<?xml version="1.0" encoding="UTF-8" standalone="no"?>
<!DOCTYPE svg PUBLIC "-//W3C//DTD SVG 1.1//EN"
 "http://www.w3.org/Graphics/SVG/1.1/DTD/svg11.dtd">
<!-- Generated by graphviz version 2.38.0 (20140413.2041)
 -->
<!-- Title: perl6&#45;type&#45;graph Pages: 1 -->
<svg width="172pt" height="188pt"
 viewBox="0.00 0.00 172.15 188.00" xmlns="http://www.w3.org/2000/svg" xmlns:xlink="http://www.w3.org/1999/xlink">
<g id="graph0" class="graph" transform="scale(1 1) rotate(0) translate(4 184)">
<title>perl6&#45;type&#45;graph</title>
<polygon fill="white" stroke="none" points="-4,4 -4,-184 168.146,-184 168.146,4 -4,4"/>
<!-- Compiler -->
<g id="node1" class="node"><title>Compiler</title>
<g id="a_node1"><a xlink:href="/type/Compiler" xlink:title="Compiler">
<ellipse fill="none" stroke="#000000" cx="72" cy="-18" rx="46.2923" ry="18"/>
<text text-anchor="middle" x="72" y="-14.3" font-family="FreeSans" font-size="14.00" fill="#000000">Compiler</text>
</a>
</g>
</g>
<!-- Any -->
<g id="node3" class="node"><title>Any</title>
<g id="a_node3"><a xlink:href="/type/Any" xlink:title="Any">
<ellipse fill="none" stroke="#000000" cx="27" cy="-90" rx="27" ry="18"/>
<text text-anchor="middle" x="27" y="-86.3" font-family="FreeSans" font-size="14.00" fill="#000000">Any</text>
</a>
</g>
</g>
<!-- Compiler&#45;&gt;Any -->
<g id="edge1" class="edge"><title>Compiler&#45;&gt;Any</title>
<path fill="none" stroke="#000000" d="M61.3356,-35.589C55.8208,-44.1677 48.9798,-54.8092 42.859,-64.3305"/>
<polygon fill="#000000" stroke="#000000" points="39.7416,-62.7074 37.2781,-73.0119 45.6298,-66.4928 39.7416,-62.7074"/>
</g>
<!-- Systemic -->
<g id="node4" class="node"><title>Systemic</title>
<g id="a_node4"><a xlink:href="/type/Systemic" xlink:title="Systemic">
<ellipse fill="none" stroke="#6666ff" cx="118" cy="-90" rx="46.2923" ry="18"/>
<text text-anchor="middle" x="118" y="-86.3" font-family="FreeSans" font-size="14.00" fill="#6666ff">Systemic</text>
</a>
</g>
</g>
<!-- Compiler&#45;&gt;Systemic -->
<g id="edge3" class="edge"><title>Compiler&#45;&gt;Systemic</title>
<path fill="none" stroke="#6666ff" d="M82.9014,-35.589C88.3777,-43.9226 95.1333,-54.2028 101.251,-63.5117"/>
<polygon fill="#6666ff" stroke="#6666ff" points="98.4405,-65.6089 106.857,-72.0438 104.29,-61.7646 98.4405,-65.6089"/>
</g>
<!-- Mu -->
<g id="node2" class="node"><title>Mu</title>
<g id="a_node2"><a xlink:href="/type/Mu" xlink:title="Mu">
<ellipse fill="none" stroke="#000000" cx="27" cy="-162" rx="27" ry="18"/>
<text text-anchor="middle" x="27" y="-158.3" font-family="FreeSans" font-size="14.00" fill="#000000">Mu</text>
</a>
</g>
</g>
<!-- Any&#45;&gt;Mu -->
<g id="edge2" class="edge"><title>Any&#45;&gt;Mu</title>
<path fill="none" stroke="#000000" d="M27,-108.303C27,-116.017 27,-125.288 27,-133.888"/>
<polygon fill="#000000" stroke="#000000" points="23.5001,-133.896 27,-143.896 30.5001,-133.896 23.5001,-133.896"/>
</g>
</g>
</svg>
