<?xml version="1.0" encoding="UTF-8" standalone="no"?>
<!DOCTYPE svg PUBLIC "-//W3C//DTD SVG 1.1//EN"
 "http://www.w3.org/Graphics/SVG/1.1/DTD/svg11.dtd">
<!-- Generated by graphviz version 2.38.0 (20140413.2041)
 -->
<!-- Title: perl6&#45;type&#45;graph Pages: 1 -->
<svg width="1844pt" height="1374pt"
 viewBox="0.00 0.00 1843.56 1373.93" xmlns="http://www.w3.org/2000/svg" xmlns:xlink="http://www.w3.org/1999/xlink">
<g id="graph0" class="graph" transform="scale(1 1) rotate(0) translate(897.687 697.548)">
<title>perl6&#45;type&#45;graph</title>
<polygon fill="white" stroke="none" points="-897.687,676.382 -897.687,-697.548 945.875,-697.548 945.875,676.382 -897.687,676.382"/>
<!-- Metamodel::AttributeContainer -->
<g id="node1" class="node"><title>Metamodel::AttributeContainer</title>
<g id="a_node1"><a xlink:href="/type/Metamodel::AttributeContainer" xlink:title="Metamodel::AttributeContainer">
<ellipse fill="none" stroke="#6666ff" cx="-179.664" cy="-126.004" rx="129.977" ry="18"/>
<text text-anchor="middle" x="-179.664" y="-122.304" font-family="FreeSans" font-size="14.00" fill="#6666ff">Metamodel::AttributeContainer</text>
</a>
</g>
</g>
<!-- Mu -->
<g id="node2" class="node"><title>Mu</title>
<g id="a_node2"><a xlink:href="/type/Mu" xlink:title="Mu">
<ellipse fill="none" stroke="#000000" cx="815.535" cy="175.796" rx="27" ry="18"/>
<text text-anchor="middle" x="815.535" y="179.496" font-family="FreeSans" font-size="14.00" fill="#000000">Mu</text>
</a>
</g>
</g>
<!-- Any -->
<g id="node3" class="node"><title>Any</title>
<g id="a_node3"><a xlink:href="/type/Any" xlink:title="Any">
<ellipse fill="none" stroke="#000000" cx="438.264" cy="10.6391" rx="27" ry="18"/>
<text text-anchor="middle" x="438.264" y="14.3391" font-family="FreeSans" font-size="14.00" fill="#000000">Any</text>
</a>
</g>
</g>
<!-- Any&#45;&gt;Mu -->
<g id="edge1" class="edge"><title>Any&#45;&gt;Mu</title>
<path fill="none" stroke="#000000" d="M461.014,20.5985C525.354,48.7644 708.777,129.061 783.384,161.722"/>
<polygon fill="#000000" stroke="#000000" points="784.998,158.607 792.755,165.824 782.19,165.02 784.998,158.607"/>
</g>
<!-- Metamodel::Naming -->
<g id="node4" class="node"><title>Metamodel::Naming</title>
<g id="a_node4"><a xlink:href="/type/Metamodel::Naming" xlink:title="Metamodel::Naming">
<ellipse fill="none" stroke="#6666ff" cx="97.1966" cy="-114.8" rx="90.1842" ry="18"/>
<text text-anchor="middle" x="97.1966" y="-111.1" font-family="FreeSans" font-size="14.00" fill="#6666ff">Metamodel::Naming</text>
</a>
</g>
</g>
<!-- Metamodel::Documenting -->
<g id="node5" class="node"><title>Metamodel::Documenting</title>
<g id="a_node5"><a xlink:href="/type/Metamodel::Documenting" xlink:title="Metamodel::Documenting">
<ellipse fill="none" stroke="#6666ff" cx="168.855" cy="-352.746" rx="111.28" ry="18"/>
<text text-anchor="middle" x="168.855" y="-349.046" font-family="FreeSans" font-size="14.00" fill="#6666ff">Metamodel::Documenting</text>
</a>
</g>
</g>
<!-- Metamodel::Versioning -->
<g id="node6" class="node"><title>Metamodel::Versioning</title>
<g id="a_node6"><a xlink:href="/type/Metamodel::Versioning" xlink:title="Metamodel::Versioning">
<ellipse fill="none" stroke="#6666ff" cx="-766.46" cy="-625.328" rx="100.983" ry="18"/>
<text text-anchor="middle" x="-766.46" y="-621.628" font-family="FreeSans" font-size="14.00" fill="#6666ff">Metamodel::Versioning</text>
</a>
</g>
</g>
<!-- Metamodel::Stashing -->
<g id="node7" class="node"><title>Metamodel::Stashing</title>
<g id="a_node7"><a xlink:href="/type/Metamodel::Stashing" xlink:title="Metamodel::Stashing">
<ellipse fill="none" stroke="#6666ff" cx="-431.175" cy="-10.2798" rx="93.6835" ry="18"/>
<text text-anchor="middle" x="-431.175" y="-6.57978" font-family="FreeSans" font-size="14.00" fill="#6666ff">Metamodel::Stashing</text>
</a>
</g>
</g>
<!-- Metamodel::Finalization -->
<g id="node8" class="node"><title>Metamodel::Finalization</title>
<g id="a_node8"><a xlink:href="/type/Metamodel::Finalization" xlink:title="Metamodel::Finalization">
<ellipse fill="none" stroke="#6666ff" cx="130.736" cy="332.525" rx="103.982" ry="18"/>
<text text-anchor="middle" x="130.736" y="336.225" font-family="FreeSans" font-size="14.00" fill="#6666ff">Metamodel::Finalization</text>
</a>
</g>
</g>
<!-- Metamodel::MethodContainer -->
<g id="node9" class="node"><title>Metamodel::MethodContainer</title>
<g id="a_node9"><a xlink:href="/type/Metamodel::MethodContainer" xlink:title="Metamodel::MethodContainer">
<ellipse fill="none" stroke="#6666ff" cx="-103.073" cy="-358.357" rx="127.277" ry="18"/>
<text text-anchor="middle" x="-103.073" y="-354.657" font-family="FreeSans" font-size="14.00" fill="#6666ff">Metamodel::MethodContainer</text>
</a>
</g>
</g>
<!-- Metamodel::PrivateMethodContainer -->
<g id="node10" class="node"><title>Metamodel::PrivateMethodContainer</title>
<g id="a_node10"><a xlink:href="/type/Metamodel::PrivateMethodContainer" xlink:title="Metamodel::PrivateMethodContainer">
<ellipse fill="none" stroke="#6666ff" cx="425.544" cy="-265.153" rx="154.873" ry="18"/>
<text text-anchor="middle" x="425.544" y="-261.453" font-family="FreeSans" font-size="14.00" fill="#6666ff">Metamodel::PrivateMethodContainer</text>
</a>
</g>
</g>
<!-- Metamodel::MultiMethodContainer -->
<g id="node11" class="node"><title>Metamodel::MultiMethodContainer</title>
<g id="a_node11"><a xlink:href="/type/Metamodel::MultiMethodContainer" xlink:title="Metamodel::MultiMethodContainer">
<ellipse fill="none" stroke="#6666ff" cx="173.249" cy="92.8734" rx="146.474" ry="18"/>
<text text-anchor="middle" x="173.249" y="96.5734" font-family="FreeSans" font-size="14.00" fill="#6666ff">Metamodel::MultiMethodContainer</text>
</a>
</g>
</g>
<!-- Metamodel::RoleContainer -->
<g id="node12" class="node"><title>Metamodel::RoleContainer</title>
<g id="a_node12"><a xlink:href="/type/Metamodel::RoleContainer" xlink:title="Metamodel::RoleContainer">
<ellipse fill="none" stroke="#6666ff" cx="-419.04" cy="-315.424" rx="115.88" ry="18"/>
<text text-anchor="middle" x="-419.04" y="-311.724" font-family="FreeSans" font-size="14.00" fill="#6666ff">Metamodel::RoleContainer</text>
</a>
</g>
</g>
<!-- Metamodel::MultipleInheritance -->
<g id="node13" class="node"><title>Metamodel::MultipleInheritance</title>
<g id="a_node13"><a xlink:href="/type/Metamodel::MultipleInheritance" xlink:title="Metamodel::MultipleInheritance">
<ellipse fill="none" stroke="#6666ff" cx="807.987" cy="-192.093" rx="133.776" ry="18"/>
<text text-anchor="middle" x="807.987" y="-188.393" font-family="FreeSans" font-size="14.00" fill="#6666ff">Metamodel::MultipleInheritance</text>
</a>
</g>
</g>
<!-- Metamodel::DefaultParent -->
<g id="node14" class="node"><title>Metamodel::DefaultParent</title>
<g id="a_node14"><a xlink:href="/type/Metamodel::DefaultParent" xlink:title="Metamodel::DefaultParent">
<ellipse fill="none" stroke="#6666ff" cx="782.799" cy="604.895" rx="113.18" ry="18"/>
<text text-anchor="middle" x="782.799" y="608.595" font-family="FreeSans" font-size="14.00" fill="#6666ff">Metamodel::DefaultParent</text>
</a>
</g>
</g>
<!-- Metamodel::C3MRO -->
<g id="node15" class="node"><title>Metamodel::C3MRO</title>
<g id="a_node15"><a xlink:href="/type/Metamodel::C3MRO" xlink:title="Metamodel::C3MRO">
<ellipse fill="none" stroke="#6666ff" cx="-801.395" cy="-199.651" rx="92.0841" ry="18"/>
<text text-anchor="middle" x="-801.395" y="-195.951" font-family="FreeSans" font-size="14.00" fill="#6666ff">Metamodel::C3MRO</text>
</a>
</g>
</g>
<!-- Metamodel::MROBasedMethodDispatch -->
<g id="node16" class="node"><title>Metamodel::MROBasedMethodDispatch</title>
<g id="a_node16"><a xlink:href="/type/Metamodel::MROBasedMethodDispatch" xlink:title="Metamodel::MROBasedMethodDispatch">
<ellipse fill="none" stroke="#6666ff" cx="-4.59859" cy="654.382" rx="169.77" ry="18"/>
<text text-anchor="middle" x="-4.59859" y="658.082" font-family="FreeSans" font-size="14.00" fill="#6666ff">Metamodel::MROBasedMethodDispatch</text>
</a>
</g>
</g>
<!-- Metamodel::MROBasedTypeChecking -->
<g id="node17" class="node"><title>Metamodel::MROBasedTypeChecking</title>
<g id="a_node17"><a xlink:href="/type/Metamodel::MROBasedTypeChecking" xlink:title="Metamodel::MROBasedTypeChecking">
<ellipse fill="none" stroke="#6666ff" cx="-347.992" cy="643.118" rx="163.271" ry="18"/>
<text text-anchor="middle" x="-347.992" y="646.818" font-family="FreeSans" font-size="14.00" fill="#6666ff">Metamodel::MROBasedTypeChecking</text>
</a>
</g>
</g>
<!-- Metamodel::Trusting -->
<g id="node18" class="node"><title>Metamodel::Trusting</title>
<g id="a_node18"><a xlink:href="/type/Metamodel::Trusting" xlink:title="Metamodel::Trusting">
<ellipse fill="none" stroke="#6666ff" cx="-774.591" cy="600.235" rx="91.784" ry="18"/>
<text text-anchor="middle" x="-774.591" y="603.935" font-family="FreeSans" font-size="14.00" fill="#6666ff">Metamodel::Trusting</text>
</a>
</g>
</g>
<!-- Metamodel::BUILDPLAN -->
<g id="node19" class="node"><title>Metamodel::BUILDPLAN</title>
<g id="a_node19"><a xlink:href="/type/Metamodel::BUILDPLAN" xlink:title="Metamodel::BUILDPLAN">
<ellipse fill="none" stroke="#6666ff" cx="-419.147" cy="275.698" rx="109.681" ry="18"/>
<text text-anchor="middle" x="-419.147" y="279.398" font-family="FreeSans" font-size="14.00" fill="#6666ff">Metamodel::BUILDPLAN</text>
</a>
</g>
</g>
<!-- Metamodel::Mixins -->
<g id="node20" class="node"><title>Metamodel::Mixins</title>
<g id="a_node20"><a xlink:href="/type/Metamodel::Mixins" xlink:title="Metamodel::Mixins">
<ellipse fill="none" stroke="#6666ff" cx="-801.48" cy="171.322" rx="85.2851" ry="18"/>
<text text-anchor="middle" x="-801.48" y="175.022" font-family="FreeSans" font-size="14.00" fill="#6666ff">Metamodel::Mixins</text>
</a>
</g>
</g>
<!-- Metamodel::BoolificationProtocol -->
<g id="node21" class="node"><title>Metamodel::BoolificationProtocol</title>
<g id="a_node21"><a xlink:href="/type/Metamodel::BoolificationProtocol" xlink:title="Metamodel::BoolificationProtocol">
<ellipse fill="none" stroke="#6666ff" cx="434.439" cy="300.354" rx="139.175" ry="18"/>
<text text-anchor="middle" x="434.439" y="304.054" font-family="FreeSans" font-size="14.00" fill="#6666ff">Metamodel::BoolificationProtocol</text>
</a>
</g>
</g>
<!-- Metamodel::ClassHOW -->
<g id="node22" class="node"><title>Metamodel::ClassHOW</title>
<g id="a_node22"><a xlink:href="/type/Metamodel::ClassHOW" xlink:title="Metamodel::ClassHOW">
<ellipse fill="none" stroke="#000000" cx="-112.169" cy="91.6509" rx="103.982" ry="18"/>
<text text-anchor="middle" x="-112.169" y="95.3509" font-family="FreeSans" font-size="14.00" fill="#000000">Metamodel::ClassHOW</text>
</a>
</g>
</g>
<!-- Metamodel::ClassHOW&#45;&gt;Metamodel::AttributeContainer -->
<g id="edge10" class="edge"><title>Metamodel::ClassHOW&#45;&gt;Metamodel::AttributeContainer</title>
<path fill="none" stroke="#6666ff" d="M-117.808,73.4682C-129.594,35.4586 -156.909,-52.6273 -170.964,-97.9508"/>
<polygon fill="#6666ff" stroke="#6666ff" points="-174.375,-97.132 -173.994,-107.72 -167.689,-99.2053 -174.375,-97.132"/>
</g>
<!-- Metamodel::ClassHOW&#45;&gt;Any -->
<g id="edge2" class="edge"><title>Metamodel::ClassHOW&#45;&gt;Any</title>
<path fill="none" stroke="#000000" d="M-32.7193,79.9576C88.1532,62.1678 313.479,29.0046 401.601,16.0351"/>
<polygon fill="#000000" stroke="#000000" points="401.248,12.5494 411.651,14.5559 402.267,19.4748 401.248,12.5494"/>
</g>
<!-- Metamodel::ClassHOW&#45;&gt;Metamodel::Naming -->
<g id="edge6" class="edge"><title>Metamodel::ClassHOW&#45;&gt;Metamodel::Naming</title>
<path fill="none" stroke="#6666ff" d="M-93.9555,73.6909C-56.5085,36.7653 29.1889,-47.7391 71.955,-89.9098"/>
<polygon fill="#6666ff" stroke="#6666ff" points="69.5962,-92.4993 79.1742,-97.0285 74.5112,-87.515 69.5962,-92.4993"/>
</g>
<!-- Metamodel::ClassHOW&#45;&gt;Metamodel::Documenting -->
<g id="edge7" class="edge"><title>Metamodel::ClassHOW&#45;&gt;Metamodel::Documenting</title>
<path fill="none" stroke="#6666ff" d="M-101.954,73.6953C-73.3853,23.4795 5.25488,-114.749 5.25488,-114.749 5.25488,-114.749 107.66,-263.722 150.431,-325.943"/>
<polygon fill="#6666ff" stroke="#6666ff" points="147.74,-328.208 156.29,-334.466 153.509,-324.242 147.74,-328.208"/>
</g>
<!-- Metamodel::ClassHOW&#45;&gt;Metamodel::Versioning -->
<g id="edge8" class="edge"><title>Metamodel::ClassHOW&#45;&gt;Metamodel::Versioning</title>
<path fill="none" stroke="#6666ff" d="M-130.667,73.9037C-212.305,-4.42005 -536.327,-315.286 -536.327,-315.286 -536.327,-315.286 -691.134,-523.847 -746.811,-598.856"/>
<polygon fill="#6666ff" stroke="#6666ff" points="-749.942,-597.203 -753.092,-607.318 -744.322,-601.375 -749.942,-597.203"/>
</g>
<!-- Metamodel::ClassHOW&#45;&gt;Metamodel::Stashing -->
<g id="edge9" class="edge"><title>Metamodel::ClassHOW&#45;&gt;Metamodel::Stashing</title>
<path fill="none" stroke="#6666ff" d="M-162.014,75.7243C-219.116,57.4787 -312.56,27.6208 -372.957,8.32234"/>
<polygon fill="#6666ff" stroke="#6666ff" points="-374.264,11.579 -382.725,5.2013 -372.134,4.91109 -374.264,11.579"/>
</g>
<!-- Metamodel::ClassHOW&#45;&gt;Metamodel::Finalization -->
<g id="edge11" class="edge"><title>Metamodel::ClassHOW&#45;&gt;Metamodel::Finalization</title>
<path fill="none" stroke="#6666ff" d="M-93.9117,109.756C-51.0773,152.232 55.9613,258.376 105.209,307.212"/>
<polygon fill="#6666ff" stroke="#6666ff" points="107.961,305.013 112.598,314.539 103.033,309.983 107.961,305.013"/>
</g>
<!-- Metamodel::ClassHOW&#45;&gt;Metamodel::MethodContainer -->
<g id="edge12" class="edge"><title>Metamodel::ClassHOW&#45;&gt;Metamodel::MethodContainer</title>
<path fill="none" stroke="#6666ff" d="M-106.815,73.4604C-91.4108,21.1268 -48.0765,-126.097 -48.0765,-126.097 -48.0765,-126.097 -81.7802,-268.434 -96.4186,-330.254"/>
<polygon fill="#6666ff" stroke="#6666ff" points="-99.8591,-329.595 -98.7575,-340.132 -93.0474,-331.208 -99.8591,-329.595"/>
</g>
<!-- Metamodel::ClassHOW&#45;&gt;Metamodel::PrivateMethodContainer -->
<g id="edge13" class="edge"><title>Metamodel::ClassHOW&#45;&gt;Metamodel::PrivateMethodContainer</title>
<path fill="none" stroke="#6666ff" d="M-85.87,74.2C2.54968,15.5284 289.195,-174.678 390.047,-241.599"/>
<polygon fill="#6666ff" stroke="#6666ff" points="388.393,-244.702 398.661,-247.314 392.263,-238.869 388.393,-244.702"/>
</g>
<!-- Metamodel::ClassHOW&#45;&gt;Metamodel::MultiMethodContainer -->
<g id="edge14" class="edge"><title>Metamodel::ClassHOW&#45;&gt;Metamodel::MultiMethodContainer</title>
<path fill="none" stroke="#6666ff" d="M-7.91509,92.0975C0.123061,92.1319 8.3371,92.1671 16.6142,92.2025"/>
<polygon fill="#6666ff" stroke="#6666ff" points="16.7493,88.703 26.7342,92.2459 16.7193,95.7029 16.7493,88.703"/>
</g>
<!-- Metamodel::ClassHOW&#45;&gt;Metamodel::RoleContainer -->
<g id="edge15" class="edge"><title>Metamodel::ClassHOW&#45;&gt;Metamodel::RoleContainer</title>
<path fill="none" stroke="#6666ff" d="M-128.461,73.8469C-176.007,21.8868 -311.251,-125.911 -311.251,-125.911 -311.251,-125.911 -373.968,-236.18 -403.722,-288.493"/>
<polygon fill="#6666ff" stroke="#6666ff" points="-406.803,-286.83 -408.704,-297.253 -400.718,-290.291 -406.803,-286.83"/>
</g>
<!-- Metamodel::ClassHOW&#45;&gt;Metamodel::MultipleInheritance -->
<g id="edge16" class="edge"><title>Metamodel::ClassHOW&#45;&gt;Metamodel::MultipleInheritance</title>
<path fill="none" stroke="#6666ff" d="M-61.0568,75.8897C96.0972,27.4289 571.947,-119.307 744.568,-172.537"/>
<polygon fill="#6666ff" stroke="#6666ff" points="743.686,-175.927 754.274,-175.53 745.749,-169.238 743.686,-175.927"/>
</g>
<!-- Metamodel::ClassHOW&#45;&gt;Metamodel::DefaultParent -->
<g id="edge17" class="edge"><title>Metamodel::ClassHOW&#45;&gt;Metamodel::DefaultParent</title>
<path fill="none" stroke="#6666ff" d="M-81.879,109.022C52.2573,185.946 592.776,495.921 743.565,582.395"/>
<polygon fill="#6666ff" stroke="#6666ff" points="745.583,579.518 752.517,587.529 742.101,585.59 745.583,579.518"/>
</g>
<!-- Metamodel::ClassHOW&#45;&gt;Metamodel::C3MRO -->
<g id="edge18" class="edge"><title>Metamodel::ClassHOW&#45;&gt;Metamodel::C3MRO</title>
<path fill="none" stroke="#6666ff" d="M-148.824,74.8026C-218.737,42.6667 -364.249,-24.2178 -364.249,-24.2178 -364.249,-24.2178 -636.719,-133.564 -751.435,-179.601"/>
<polygon fill="#6666ff" stroke="#6666ff" points="-753.076,-176.489 -761.053,-183.461 -750.469,-182.985 -753.076,-176.489"/>
</g>
<!-- Metamodel::ClassHOW&#45;&gt;Metamodel::MROBasedMethodDispatch -->
<g id="edge19" class="edge"><title>Metamodel::ClassHOW&#45;&gt;Metamodel::MROBasedMethodDispatch</title>
<path fill="none" stroke="#6666ff" d="M-106.089,109.872C-87.2759,166.252 -31.2746,334.079 -31.2746,334.079 -31.2746,334.079 -13.4669,547.898 -6.95074,626.139"/>
<polygon fill="#6666ff" stroke="#6666ff" points="-3.45137,625.987 -6.10924,636.243 -10.4272,626.568 -3.45137,625.987"/>
</g>
<!-- Metamodel::ClassHOW&#45;&gt;Metamodel::MROBasedTypeChecking -->
<g id="edge20" class="edge"><title>Metamodel::ClassHOW&#45;&gt;Metamodel::MROBasedTypeChecking</title>
<path fill="none" stroke="#6666ff" d="M-122.059,109.896C-152.659,166.349 -243.749,334.393 -243.749,334.393 -243.749,334.393 -312.703,538.605 -338.449,614.855"/>
<polygon fill="#6666ff" stroke="#6666ff" points="-335.268,616.375 -341.783,624.73 -341.9,614.136 -335.268,616.375"/>
</g>
<!-- Metamodel::ClassHOW&#45;&gt;Metamodel::Trusting -->
<g id="edge21" class="edge"><title>Metamodel::ClassHOW&#45;&gt;Metamodel::Trusting</title>
<path fill="none" stroke="#6666ff" d="M-131.274,109.621C-180.477,155.899 -307.709,275.569 -307.709,275.569 -307.709,275.569 -633.915,502.41 -740.991,576.87"/>
<polygon fill="#6666ff" stroke="#6666ff" points="-739.281,579.944 -749.49,582.78 -743.278,574.197 -739.281,579.944"/>
</g>
<!-- Metamodel::ClassHOW&#45;&gt;Metamodel::BUILDPLAN -->
<g id="edge22" class="edge"><title>Metamodel::ClassHOW&#45;&gt;Metamodel::BUILDPLAN</title>
<path fill="none" stroke="#6666ff" d="M-141.049,108.966C-196.814,142.399 -319.283,215.825 -381.408,253.072"/>
<polygon fill="#6666ff" stroke="#6666ff" points="-379.744,256.155 -390.12,258.295 -383.344,250.152 -379.744,256.155"/>
</g>
<!-- Metamodel::ClassHOW&#45;&gt;Metamodel::Mixins -->
<g id="edge23" class="edge"><title>Metamodel::ClassHOW&#45;&gt;Metamodel::Mixins</title>
<path fill="none" stroke="#6666ff" d="M-198.773,101.661C-331.719,117.027 -584.529,146.247 -716.495,161.5"/>
<polygon fill="#6666ff" stroke="#6666ff" points="-716.223,164.992 -726.559,162.663 -717.027,158.038 -716.223,164.992"/>
</g>
<!-- Metamodel::ClassHOW&#45;&gt;Metamodel::BoolificationProtocol -->
<g id="edge24" class="edge"><title>Metamodel::ClassHOW&#45;&gt;Metamodel::BoolificationProtocol</title>
<path fill="none" stroke="#6666ff" d="M-68.8208,108.202C29.9589,145.918 271.582,238.173 380.105,279.609"/>
<polygon fill="#6666ff" stroke="#6666ff" points="381.466,276.382 389.56,283.219 378.969,282.922 381.466,276.382"/>
</g>
<!-- Metamodel::ConcreteRoleHOW -->
<g id="node23" class="node"><title>Metamodel::ConcreteRoleHOW</title>
<g id="a_node23"><a xlink:href="/type/Metamodel::ConcreteRoleHOW" xlink:title="Metamodel::ConcreteRoleHOW">
<ellipse fill="none" stroke="#000000" cx="376.273" cy="-652.101" rx="135.676" ry="18"/>
<text text-anchor="middle" x="376.273" y="-648.401" font-family="FreeSans" font-size="14.00" fill="#000000">Metamodel::ConcreteRoleHOW</text>
</a>
</g>
</g>
<!-- Metamodel::ConcreteRoleHOW&#45;&gt;Metamodel::AttributeContainer -->
<g id="edge30" class="edge"><title>Metamodel::ConcreteRoleHOW&#45;&gt;Metamodel::AttributeContainer</title>
<path fill="none" stroke="#6666ff" d="M357.204,-634.265C288.281,-569.797 56.1169,-352.64 56.1169,-352.64 56.1169,-352.64 -91.8865,-210.377 -153.371,-151.277"/>
<polygon fill="#6666ff" stroke="#6666ff" points="-151.132,-148.574 -160.767,-144.168 -155.983,-153.621 -151.132,-148.574"/>
</g>
<!-- Metamodel::ConcreteRoleHOW&#45;&gt;Any -->
<g id="edge3" class="edge"><title>Metamodel::ConcreteRoleHOW&#45;&gt;Any</title>
<path fill="none" stroke="#000000" d="M371.255,-633.956C350.097,-557.451 269.258,-265.136 269.258,-265.136 269.258,-265.136 380.538,-83.5545 422.503,-15.0778"/>
<polygon fill="#000000" stroke="#000000" points="425.705,-16.5519 427.946,-6.19674 419.737,-12.8942 425.705,-16.5519"/>
</g>
<!-- Metamodel::ConcreteRoleHOW&#45;&gt;Metamodel::Naming -->
<g id="edge25" class="edge"><title>Metamodel::ConcreteRoleHOW&#45;&gt;Metamodel::Naming</title>
<path fill="none" stroke="#6666ff" d="M370.492,-633.832C349.936,-568.861 281.594,-352.852 281.594,-352.852 281.594,-352.852 165.151,-202.528 117.33,-140.791"/>
<polygon fill="#6666ff" stroke="#6666ff" points="119.947,-138.455 111.056,-132.693 114.413,-142.742 119.947,-138.455"/>
</g>
<!-- Metamodel::ConcreteRoleHOW&#45;&gt;Metamodel::Versioning -->
<g id="edge26" class="edge"><title>Metamodel::ConcreteRoleHOW&#45;&gt;Metamodel::Versioning</title>
<path fill="none" stroke="#6666ff" d="M242.389,-648.964C14.3539,-643.622 -445.155,-632.856 -656.069,-627.914"/>
<polygon fill="#6666ff" stroke="#6666ff" points="-656.15,-624.411 -666.229,-627.676 -656.314,-631.409 -656.15,-624.411"/>
</g>
<!-- Metamodel::ConcreteRoleHOW&#45;&gt;Metamodel::MethodContainer -->
<g id="edge28" class="edge"><title>Metamodel::ConcreteRoleHOW&#45;&gt;Metamodel::MethodContainer</title>
<path fill="none" stroke="#6666ff" d="M347.367,-634.388C264.604,-583.67 26.7553,-437.916 -65.6921,-381.264"/>
<polygon fill="#6666ff" stroke="#6666ff" points="-64.0775,-378.149 -74.4327,-375.908 -67.735,-384.117 -64.0775,-378.149"/>
</g>
<!-- Metamodel::ConcreteRoleHOW&#45;&gt;Metamodel::PrivateMethodContainer -->
<g id="edge27" class="edge"><title>Metamodel::ConcreteRoleHOW&#45;&gt;Metamodel::PrivateMethodContainer</title>
<path fill="none" stroke="#6666ff" d="M378.583,-633.957C386.471,-572.007 412.379,-368.546 421.95,-293.385"/>
<polygon fill="#6666ff" stroke="#6666ff" points="425.448,-293.62 423.239,-283.258 418.504,-292.736 425.448,-293.62"/>
</g>
<!-- Metamodel::ConcreteRoleHOW&#45;&gt;Metamodel::MultiMethodContainer -->
<g id="edge29" class="edge"><title>Metamodel::ConcreteRoleHOW&#45;&gt;Metamodel::MultiMethodContainer</title>
<path fill="none" stroke="#6666ff" d="M371.255,-633.956C350.097,-557.451 269.258,-265.136 269.258,-265.136 269.258,-265.136 203.322,-19.2656 180.734,64.9616"/>
<polygon fill="#6666ff" stroke="#6666ff" points="184.113,65.8754 178.142,74.6275 177.352,64.0622 184.113,65.8754"/>
</g>
<!-- Metamodel::ConcreteRoleHOW&#45;&gt;Metamodel::RoleContainer -->
<g id="edge31" class="edge"><title>Metamodel::ConcreteRoleHOW&#45;&gt;Metamodel::RoleContainer</title>
<path fill="none" stroke="#6666ff" d="M335.464,-634.826C201.619,-578.166 -223.787,-398.08 -369.51,-336.392"/>
<polygon fill="#6666ff" stroke="#6666ff" points="-368.531,-333.005 -379.104,-332.33 -371.26,-339.452 -368.531,-333.005"/>
</g>
<!-- Metamodel::ConcreteRoleHOW&#45;&gt;Metamodel::MultipleInheritance -->
<g id="edge32" class="edge"><title>Metamodel::ConcreteRoleHOW&#45;&gt;Metamodel::MultipleInheritance</title>
<path fill="none" stroke="#6666ff" d="M393.196,-634.068C460.099,-562.781 706.267,-300.479 784.177,-217.463"/>
<polygon fill="#6666ff" stroke="#6666ff" points="786.889,-219.688 791.18,-210.001 781.785,-214.898 786.889,-219.688"/>
</g>
<!-- Metamodel::TypePretense -->
<g id="node24" class="node"><title>Metamodel::TypePretense</title>
<g id="a_node24"><a xlink:href="/type/Metamodel::TypePretense" xlink:title="Metamodel::TypePretense">
<ellipse fill="none" stroke="#6666ff" cx="789.4" cy="-615.816" rx="114.28" ry="18"/>
<text text-anchor="middle" x="789.4" y="-612.116" font-family="FreeSans" font-size="14.00" fill="#6666ff">Metamodel::TypePretense</text>
</a>
</g>
</g>
<!-- Metamodel::RolePunning -->
<g id="node25" class="node"><title>Metamodel::RolePunning</title>
<g id="a_node25"><a xlink:href="/type/Metamodel::RolePunning" xlink:title="Metamodel::RolePunning">
<ellipse fill="none" stroke="#6666ff" cx="-319.569" cy="-665.923" rx="109.681" ry="18"/>
<text text-anchor="middle" x="-319.569" y="-662.223" font-family="FreeSans" font-size="14.00" fill="#6666ff">Metamodel::RolePunning</text>
</a>
</g>
</g>
<!-- Metamodel::ParametricRoleHOW -->
<g id="node26" class="node"><title>Metamodel::ParametricRoleHOW</title>
<g id="a_node26"><a xlink:href="/type/Metamodel::ParametricRoleHOW" xlink:title="Metamodel::ParametricRoleHOW">
<ellipse fill="none" stroke="#000000" cx="34.0557" cy="-675.548" rx="142.175" ry="18"/>
<text text-anchor="middle" x="34.0557" y="-671.848" font-family="FreeSans" font-size="14.00" fill="#000000">Metamodel::ParametricRoleHOW</text>
</a>
</g>
</g>
<!-- Metamodel::ParametricRoleHOW&#45;&gt;Metamodel::AttributeContainer -->
<g id="edge39" class="edge"><title>Metamodel::ParametricRoleHOW&#45;&gt;Metamodel::AttributeContainer</title>
<path fill="none" stroke="#6666ff" d="M33.5828,-657.126C31.8455,-589.438 25.9155,-358.397 25.9155,-358.397 25.9155,-358.397 -103.213,-212.426 -156.791,-151.86"/>
<polygon fill="#6666ff" stroke="#6666ff" points="-154.285,-149.411 -163.532,-144.24 -159.528,-154.049 -154.285,-149.411"/>
</g>
<!-- Metamodel::ParametricRoleHOW&#45;&gt;Any -->
<g id="edge4" class="edge"><title>Metamodel::ParametricRoleHOW&#45;&gt;Any</title>
<path fill="none" stroke="#000000" d="M48.0736,-657.274C100.439,-589.01 281.594,-352.852 281.594,-352.852 281.594,-352.852 269.258,-265.136 269.258,-265.136 269.258,-265.136 380.538,-83.5545 422.503,-15.0778"/>
<polygon fill="#000000" stroke="#000000" points="425.705,-16.5519 427.946,-6.19674 419.737,-12.8942 425.705,-16.5519"/>
</g>
<!-- Metamodel::ParametricRoleHOW&#45;&gt;Metamodel::Naming -->
<g id="edge33" class="edge"><title>Metamodel::ParametricRoleHOW&#45;&gt;Metamodel::Naming</title>
<path fill="none" stroke="#6666ff" d="M35.305,-657.262C39.9719,-588.953 56.1169,-352.64 56.1169,-352.64 56.1169,-352.64 81.4108,-206.195 92.3032,-143.131"/>
<polygon fill="#6666ff" stroke="#6666ff" points="95.7882,-143.518 94.0413,-133.068 88.8903,-142.326 95.7882,-143.518"/>
</g>
<!-- Metamodel::ParametricRoleHOW&#45;&gt;Metamodel::Documenting -->
<g id="edge34" class="edge"><title>Metamodel::ParametricRoleHOW&#45;&gt;Metamodel::Documenting</title>
<path fill="none" stroke="#6666ff" d="M41.6893,-657.268C64.2107,-603.336 130.478,-444.647 157.345,-380.31"/>
<polygon fill="#6666ff" stroke="#6666ff" points="160.682,-381.402 161.305,-370.825 154.222,-378.704 160.682,-381.402"/>
</g>
<!-- Metamodel::ParametricRoleHOW&#45;&gt;Metamodel::Versioning -->
<g id="edge35" class="edge"><title>Metamodel::ParametricRoleHOW&#45;&gt;Metamodel::Versioning</title>
<path fill="none" stroke="#6666ff" d="M-83.9991,-665.468C-158.429,-659.113 -240.558,-652.101 -240.558,-652.101 -240.558,-652.101 -319.271,-646.323 -319.271,-646.323 -319.271,-646.323 -526.364,-636.6 -658.69,-630.387"/>
<polygon fill="#6666ff" stroke="#6666ff" points="-658.722,-626.882 -668.875,-629.909 -659.05,-633.875 -658.722,-626.882"/>
</g>
<!-- Metamodel::ParametricRoleHOW&#45;&gt;Metamodel::Stashing -->
<g id="edge42" class="edge"><title>Metamodel::ParametricRoleHOW&#45;&gt;Metamodel::Stashing</title>
<path fill="none" stroke="#6666ff" d="M18.9856,-657.583C-37.3098,-590.475 -232.061,-358.317 -232.061,-358.317 -232.061,-358.317 -369.021,-118.921 -415.761,-37.2223"/>
<polygon fill="#6666ff" stroke="#6666ff" points="-412.746,-35.4436 -420.75,-28.5018 -418.822,-38.9197 -412.746,-35.4436"/>
</g>
<!-- Metamodel::ParametricRoleHOW&#45;&gt;Metamodel::MethodContainer -->
<g id="edge36" class="edge"><title>Metamodel::ParametricRoleHOW&#45;&gt;Metamodel::MethodContainer</title>
<path fill="none" stroke="#6666ff" d="M26.0903,-657.124C3.03042,-603.784 -63.8786,-449.017 -91.2208,-385.772"/>
<polygon fill="#6666ff" stroke="#6666ff" points="-88.0756,-384.227 -95.2565,-376.437 -94.5008,-387.005 -88.0756,-384.227"/>
</g>
<!-- Metamodel::ParametricRoleHOW&#45;&gt;Metamodel::PrivateMethodContainer -->
<g id="edge37" class="edge"><title>Metamodel::ParametricRoleHOW&#45;&gt;Metamodel::PrivateMethodContainer</title>
<path fill="none" stroke="#6666ff" d="M51.1292,-657.65C113.449,-592.321 328.797,-366.573 401.416,-290.447"/>
<polygon fill="#6666ff" stroke="#6666ff" points="404.011,-292.797 408.381,-283.146 398.946,-287.965 404.011,-292.797"/>
</g>
<!-- Metamodel::ParametricRoleHOW&#45;&gt;Metamodel::MultiMethodContainer -->
<g id="edge38" class="edge"><title>Metamodel::ParametricRoleHOW&#45;&gt;Metamodel::MultiMethodContainer</title>
<path fill="none" stroke="#6666ff" d="M35.305,-657.262C39.9719,-588.953 56.1169,-352.64 56.1169,-352.64 56.1169,-352.64 189.138,-114.851 189.138,-114.851 189.138,-114.851 179.747,7.92863 175.404,64.6993"/>
<polygon fill="#6666ff" stroke="#6666ff" points="178.884,65.0988 174.631,74.8027 171.904,64.5648 178.884,65.0988"/>
</g>
<!-- Metamodel::ParametricRoleHOW&#45;&gt;Metamodel::RoleContainer -->
<g id="edge40" class="edge"><title>Metamodel::ParametricRoleHOW&#45;&gt;Metamodel::RoleContainer</title>
<path fill="none" stroke="#6666ff" d="M11.5866,-657.689C-63.1539,-598.285 -303.486,-407.267 -388.716,-339.526"/>
<polygon fill="#6666ff" stroke="#6666ff" points="-386.697,-336.66 -396.703,-333.178 -391.052,-342.14 -386.697,-336.66"/>
</g>
<!-- Metamodel::ParametricRoleHOW&#45;&gt;Metamodel::MultipleInheritance -->
<g id="edge41" class="edge"><title>Metamodel::ParametricRoleHOW&#45;&gt;Metamodel::MultipleInheritance</title>
<path fill="none" stroke="#6666ff" d="M62.5182,-657.768C181.282,-583.58 637.339,-298.692 770.982,-215.209"/>
<polygon fill="#6666ff" stroke="#6666ff" points="773.048,-218.045 779.675,-209.779 769.34,-212.108 773.048,-218.045"/>
</g>
<!-- Metamodel::ParametricRoleHOW&#45;&gt;Metamodel::TypePretense -->
<g id="edge43" class="edge"><title>Metamodel::ParametricRoleHOW&#45;&gt;Metamodel::TypePretense</title>
<path fill="none" stroke="#6666ff" d="M125.327,-661.652C195.016,-651.042 279.169,-638.23 279.169,-638.23 279.169,-638.23 376.385,-632.501 376.385,-632.501 376.385,-632.501 546.419,-625.632 668.289,-620.708"/>
<polygon fill="#6666ff" stroke="#6666ff" points="668.598,-624.199 678.448,-620.298 668.315,-617.205 668.598,-624.199"/>
</g>
<!-- Metamodel::ParametricRoleHOW&#45;&gt;Metamodel::RolePunning -->
<g id="edge44" class="edge"><title>Metamodel::ParametricRoleHOW&#45;&gt;Metamodel::RolePunning</title>
<path fill="none" stroke="#6666ff" d="M-105.199,-671.758C-136.802,-670.898 -170.084,-669.992 -200.749,-669.157"/>
<polygon fill="#6666ff" stroke="#6666ff" points="-200.951,-665.651 -211.042,-668.877 -201.141,-672.648 -200.951,-665.651"/>
</g>
<!-- Metamodel::BaseType -->
<g id="node27" class="node"><title>Metamodel::BaseType</title>
<g id="a_node27"><a xlink:href="/type/Metamodel::BaseType" xlink:title="Metamodel::BaseType">
<ellipse fill="none" stroke="#6666ff" cx="342.3" cy="649.444" rx="99.3824" ry="18"/>
<text text-anchor="middle" x="342.3" y="653.144" font-family="FreeSans" font-size="14.00" fill="#6666ff">Metamodel::BaseType</text>
</a>
</g>
</g>
<!-- Metamodel::EnumHOW -->
<g id="node28" class="node"><title>Metamodel::EnumHOW</title>
<g id="a_node28"><a xlink:href="/type/Metamodel::EnumHOW" xlink:title="Metamodel::EnumHOW">
<ellipse fill="none" stroke="#000000" cx="-137.512" cy="334.236" rx="104.782" ry="18"/>
<text text-anchor="middle" x="-137.512" y="337.936" font-family="FreeSans" font-size="14.00" fill="#000000">Metamodel::EnumHOW</text>
</a>
</g>
</g>
<!-- Metamodel::EnumHOW&#45;&gt;Metamodel::AttributeContainer -->
<g id="edge47" class="edge"><title>Metamodel::EnumHOW&#45;&gt;Metamodel::AttributeContainer</title>
<path fill="none" stroke="#6666ff" d="M-143.543,316.011C-162.206,259.622 -217.758,91.7672 -217.758,91.7672 -217.758,91.7672 -194.931,-38.7233 -184.618,-97.6826"/>
<polygon fill="#6666ff" stroke="#6666ff" points="-188.017,-98.5643 -182.846,-107.812 -181.121,-97.358 -188.017,-98.5643"/>
</g>
<!-- Metamodel::EnumHOW&#45;&gt;Any -->
<g id="edge5" class="edge"><title>Metamodel::EnumHOW&#45;&gt;Any</title>
<path fill="none" stroke="#000000" d="M-104.898,317.067C-0.127729,261.913 321.085,92.8184 321.085,92.8184 321.085,92.8184 376.52,53.9413 411.132,29.6669"/>
<polygon fill="#000000" stroke="#000000" points="409.24,26.719 419.437,23.8426 413.259,32.4501 409.24,26.719"/>
</g>
<!-- Metamodel::EnumHOW&#45;&gt;Metamodel::Naming -->
<g id="edge45" class="edge"><title>Metamodel::EnumHOW&#45;&gt;Metamodel::Naming</title>
<path fill="none" stroke="#6666ff" d="M-127.671,315.994C-97.2211,259.551 -6.58014,91.5347 -6.58014,91.5347 -6.58014,91.5347 55.5266,-31.9494 83.6479,-87.8617"/>
<polygon fill="#6666ff" stroke="#6666ff" points="80.5485,-89.489 88.1686,-96.8501 86.8021,-86.3437 80.5485,-89.489"/>
</g>
<!-- Metamodel::EnumHOW&#45;&gt;Metamodel::Stashing -->
<g id="edge46" class="edge"><title>Metamodel::EnumHOW&#45;&gt;Metamodel::Stashing</title>
<path fill="none" stroke="#6666ff" d="M-152.887,316.198C-201.552,259.106 -352.343,82.2031 -409.189,15.5134"/>
<polygon fill="#6666ff" stroke="#6666ff" points="-412.128,17.4602 -415.952,7.57926 -406.801,12.9192 -412.128,17.4602"/>
</g>
<!-- Metamodel::EnumHOW&#45;&gt;Metamodel::MethodContainer -->
<g id="edge48" class="edge"><title>Metamodel::EnumHOW&#45;&gt;Metamodel::MethodContainer</title>
<path fill="none" stroke="#6666ff" d="M-127.671,315.994C-97.2211,259.551 -6.58014,91.5347 -6.58014,91.5347 -6.58014,91.5347 -48.0765,-126.097 -48.0765,-126.097 -48.0765,-126.097 -81.7802,-268.434 -96.4186,-330.254"/>
<polygon fill="#6666ff" stroke="#6666ff" points="-99.8591,-329.595 -98.7575,-340.132 -93.0474,-331.208 -99.8591,-329.595"/>
</g>
<!-- Metamodel::EnumHOW&#45;&gt;Metamodel::MultiMethodContainer -->
<g id="edge49" class="edge"><title>Metamodel::EnumHOW&#45;&gt;Metamodel::MultiMethodContainer</title>
<path fill="none" stroke="#6666ff" d="M-114.661,316.488C-59.7953,273.875 79.4538,165.722 141.996,117.147"/>
<polygon fill="#6666ff" stroke="#6666ff" points="139.897,114.345 149.942,110.975 144.191,119.874 139.897,114.345"/>
</g>
<!-- Metamodel::EnumHOW&#45;&gt;Metamodel::RoleContainer -->
<g id="edge50" class="edge"><title>Metamodel::EnumHOW&#45;&gt;Metamodel::RoleContainer</title>
<path fill="none" stroke="#6666ff" d="M-145.335,316.182C-184.562,225.662 -359.818,-178.763 -407.199,-288.099"/>
<polygon fill="#6666ff" stroke="#6666ff" points="-410.489,-286.891 -411.254,-297.458 -404.066,-289.674 -410.489,-286.891"/>
</g>
<!-- Metamodel::EnumHOW&#45;&gt;Metamodel::MROBasedMethodDispatch -->
<g id="edge52" class="edge"><title>Metamodel::EnumHOW&#45;&gt;Metamodel::MROBasedMethodDispatch</title>
<path fill="none" stroke="#6666ff" d="M-129.985,352.366C-107.831,405.728 -42.7452,562.499 -16.1355,626.593"/>
<polygon fill="#6666ff" stroke="#6666ff" points="-12.8095,625.477 -12.2076,636.054 -19.2745,628.161 -12.8095,625.477"/>
</g>
<!-- Metamodel::EnumHOW&#45;&gt;Metamodel::MROBasedTypeChecking -->
<g id="edge53" class="edge"><title>Metamodel::EnumHOW&#45;&gt;Metamodel::MROBasedTypeChecking</title>
<path fill="none" stroke="#6666ff" d="M-149.738,352.178C-185.195,404.211 -288.192,555.361 -330.02,616.744"/>
<polygon fill="#6666ff" stroke="#6666ff" points="-327.208,618.833 -335.732,625.126 -332.993,614.892 -327.208,618.833"/>
</g>
<!-- Metamodel::EnumHOW&#45;&gt;Metamodel::BUILDPLAN -->
<g id="edge54" class="edge"><title>Metamodel::EnumHOW&#45;&gt;Metamodel::BUILDPLAN</title>
<path fill="none" stroke="#6666ff" d="M-204.256,320.363C-245.302,311.832 -298.088,300.86 -341.07,291.926"/>
<polygon fill="#6666ff" stroke="#6666ff" points="-341.848,295.34 -350.926,289.878 -340.423,288.486 -341.848,295.34"/>
</g>
<!-- Metamodel::EnumHOW&#45;&gt;Metamodel::BoolificationProtocol -->
<g id="edge55" class="edge"><title>Metamodel::EnumHOW&#45;&gt;Metamodel::BoolificationProtocol</title>
<path fill="none" stroke="#6666ff" d="M-42.6079,326.623C6.25242,322.703 55.6921,318.737 55.6921,318.737 55.6921,318.737 130.198,312.926 130.198,312.926 130.198,312.926 212.686,309.517 291.759,306.25"/>
<polygon fill="#6666ff" stroke="#6666ff" points="291.743,302.748 301.879,305.832 292.032,309.742 291.743,302.748"/>
</g>
<!-- Metamodel::EnumHOW&#45;&gt;Metamodel::BaseType -->
<g id="edge51" class="edge"><title>Metamodel::EnumHOW&#45;&gt;Metamodel::BaseType</title>
<path fill="none" stroke="#6666ff" d="M-110.687,351.858C-29.1455,405.426 215.782,566.329 307.298,626.449"/>
<polygon fill="#6666ff" stroke="#6666ff" points="309.228,623.53 315.664,631.946 305.385,629.38 309.228,623.53"/>
</g>
</g>
</svg>
