<?xml version="1.0" encoding="UTF-8" standalone="no"?>
<!DOCTYPE svg PUBLIC "-//W3C//DTD SVG 1.1//EN"
 "http://www.w3.org/Graphics/SVG/1.1/DTD/svg11.dtd">
<!-- Generated by graphviz version 2.38.0 (20140413.2041)
 -->
<!-- Title: perl6&#45;type&#45;graph Pages: 1 -->
<svg width="1051pt" height="332pt"
 viewBox="0.00 0.00 1050.59 332.00" xmlns="http://www.w3.org/2000/svg" xmlns:xlink="http://www.w3.org/1999/xlink">
<g id="graph0" class="graph" transform="scale(1 1) rotate(0) translate(4 328)">
<title>perl6&#45;type&#45;graph</title>
<polygon fill="white" stroke="none" points="-4,4 -4,-328 1046.59,-328 1046.59,4 -4,4"/>
<!-- Numeric -->
<g id="node1" class="node"><title>Numeric</title>
<g id="a_node1"><a xlink:href="/type/Numeric" xlink:title="Numeric">
<ellipse fill="none" stroke="#6666ff" cx="760.047" cy="-234" rx="44.393" ry="18"/>
<text text-anchor="middle" x="760.047" y="-230.3" font-family="FreeSans" font-size="14.00" fill="#6666ff">Numeric</text>
</a>
</g>
</g>
<!-- Mu -->
<g id="node2" class="node"><title>Mu</title>
<g id="a_node2"><a xlink:href="/type/Mu" xlink:title="Mu">
<ellipse fill="none" stroke="#000000" cx="546.047" cy="-306" rx="27" ry="18"/>
<text text-anchor="middle" x="546.047" y="-302.3" font-family="FreeSans" font-size="14.00" fill="#000000">Mu</text>
</a>
</g>
</g>
<!-- Any -->
<g id="node3" class="node"><title>Any</title>
<g id="a_node3"><a xlink:href="/type/Any" xlink:title="Any">
<ellipse fill="none" stroke="#000000" cx="546.047" cy="-234" rx="27" ry="18"/>
<text text-anchor="middle" x="546.047" y="-230.3" font-family="FreeSans" font-size="14.00" fill="#000000">Any</text>
</a>
</g>
</g>
<!-- Any&#45;&gt;Mu -->
<g id="edge1" class="edge"><title>Any&#45;&gt;Mu</title>
<path fill="none" stroke="#000000" d="M546.047,-252.303C546.047,-260.017 546.047,-269.288 546.047,-277.888"/>
<polygon fill="#000000" stroke="#000000" points="542.547,-277.896 546.047,-287.896 549.547,-277.896 542.547,-277.896"/>
</g>
<!-- Cool -->
<g id="node4" class="node"><title>Cool</title>
<g id="a_node4"><a xlink:href="/type/Cool" xlink:title="Cool">
<ellipse fill="none" stroke="#000000" cx="546.047" cy="-162" rx="28.6953" ry="18"/>
<text text-anchor="middle" x="546.047" y="-158.3" font-family="FreeSans" font-size="14.00" fill="#000000">Cool</text>
</a>
</g>
</g>
<!-- Cool&#45;&gt;Any -->
<g id="edge2" class="edge"><title>Cool&#45;&gt;Any</title>
<path fill="none" stroke="#000000" d="M546.047,-180.303C546.047,-188.017 546.047,-197.288 546.047,-205.888"/>
<polygon fill="#000000" stroke="#000000" points="542.547,-205.896 546.047,-215.896 549.547,-205.896 542.547,-205.896"/>
</g>
<!-- Complex -->
<g id="node5" class="node"><title>Complex</title>
<g id="a_node5"><a xlink:href="/type/Complex" xlink:title="Complex">
<ellipse fill="none" stroke="#000000" cx="870.047" cy="-90" rx="45.4919" ry="18"/>
<text text-anchor="middle" x="870.047" y="-86.3" font-family="FreeSans" font-size="14.00" fill="#000000">Complex</text>
</a>
</g>
</g>
<!-- Complex&#45;&gt;Numeric -->
<g id="edge23" class="edge"><title>Complex&#45;&gt;Numeric</title>
<path fill="none" stroke="#6666ff" d="M861.959,-107.74C849.503,-133.521 827.047,-180 827.047,-180 827.047,-180 806.116,-196.557 787.652,-211.163"/>
<polygon fill="#6666ff" stroke="#6666ff" points="785.097,-208.721 779.426,-217.67 789.44,-214.211 785.097,-208.721"/>
</g>
<!-- Complex&#45;&gt;Cool -->
<g id="edge3" class="edge"><title>Complex&#45;&gt;Cool</title>
<path fill="none" stroke="#000000" d="M835.542,-101.863C824.959,-105.194 816.047,-108 816.047,-108 816.047,-108 656.57,-139.305 582.746,-153.796"/>
<polygon fill="#000000" stroke="#000000" points="582.061,-150.364 572.922,-155.724 583.409,-157.233 582.061,-150.364"/>
</g>
<!-- Real -->
<g id="node6" class="node"><title>Real</title>
<g id="a_node6"><a xlink:href="/type/Real" xlink:title="Real">
<ellipse fill="none" stroke="#6666ff" cx="440.047" cy="-162" rx="28.6953" ry="18"/>
<text text-anchor="middle" x="440.047" y="-158.3" font-family="FreeSans" font-size="14.00" fill="#6666ff">Real</text>
</a>
</g>
</g>
<!-- Real&#45;&gt;Numeric -->
<g id="edge24" class="edge"><title>Real&#45;&gt;Numeric</title>
<path fill="none" stroke="#6666ff" d="M466.143,-169.524C485.319,-174.318 508.047,-180 508.047,-180 508.047,-180 638.698,-207.478 711.852,-222.864"/>
<polygon fill="#6666ff" stroke="#6666ff" points="711.267,-226.317 721.773,-224.95 712.708,-219.467 711.267,-226.317"/>
</g>
<!-- Stringy -->
<g id="node7" class="node"><title>Stringy</title>
<g id="a_node7"><a xlink:href="/type/Stringy" xlink:title="Stringy">
<ellipse fill="none" stroke="#6666ff" cx="780.047" cy="-162" rx="38.1938" ry="18"/>
<text text-anchor="middle" x="780.047" y="-158.3" font-family="FreeSans" font-size="14.00" fill="#6666ff">Stringy</text>
</a>
</g>
</g>
<!-- Str -->
<g id="node8" class="node"><title>Str</title>
<g id="a_node8"><a xlink:href="/type/Str" xlink:title="Str">
<ellipse fill="none" stroke="#000000" cx="780.047" cy="-90" rx="27" ry="18"/>
<text text-anchor="middle" x="780.047" y="-86.3" font-family="FreeSans" font-size="14.00" fill="#000000">Str</text>
</a>
</g>
</g>
<!-- Str&#45;&gt;Cool -->
<g id="edge4" class="edge"><title>Str&#45;&gt;Cool</title>
<path fill="none" stroke="#000000" d="M755.886,-98.2276C714.351,-110.653 629.249,-136.11 581.161,-150.496"/>
<polygon fill="#000000" stroke="#000000" points="580.068,-147.169 571.491,-153.389 582.074,-153.876 580.068,-147.169"/>
</g>
<!-- Str&#45;&gt;Stringy -->
<g id="edge25" class="edge"><title>Str&#45;&gt;Stringy</title>
<path fill="none" stroke="#6666ff" d="M780.047,-108.303C780.047,-116.017 780.047,-125.288 780.047,-133.888"/>
<polygon fill="#6666ff" stroke="#6666ff" points="776.547,-133.896 780.047,-143.896 783.547,-133.896 776.547,-133.896"/>
</g>
<!-- ComplexStr -->
<g id="node9" class="node"><title>ComplexStr</title>
<g id="a_node9"><a xlink:href="/type/ComplexStr" xlink:title="ComplexStr">
<ellipse fill="none" stroke="#000000" cx="986.047" cy="-18" rx="56.59" ry="18"/>
<text text-anchor="middle" x="986.047" y="-14.3" font-family="FreeSans" font-size="14.00" fill="#000000">ComplexStr</text>
</a>
</g>
</g>
<!-- ComplexStr&#45;&gt;Complex -->
<g id="edge5" class="edge"><title>ComplexStr&#45;&gt;Complex</title>
<path fill="none" stroke="#000000" d="M960.876,-34.189C943.812,-44.4865 921.094,-58.1955 902.648,-69.327"/>
<polygon fill="#000000" stroke="#000000" points="900.732,-66.3949 893.979,-74.5583 904.349,-72.3883 900.732,-66.3949"/>
</g>
<!-- ComplexStr&#45;&gt;Str -->
<g id="edge6" class="edge"><title>ComplexStr&#45;&gt;Str</title>
<path fill="none" stroke="#000000" d="M947.045,-31.1593C896.855,-46.8067 816.047,-72 816.047,-72 816.047,-72 813.866,-73.0296 810.579,-74.5819"/>
<polygon fill="#000000" stroke="#000000" points="808.952,-71.4796 801.404,-78.9146 811.941,-77.8093 808.952,-71.4796"/>
</g>
<!-- Instant -->
<g id="node10" class="node"><title>Instant</title>
<g id="a_node10"><a xlink:href="/type/Instant" xlink:title="Instant">
<ellipse fill="none" stroke="#000000" cx="310.047" cy="-90" rx="37.0935" ry="18"/>
<text text-anchor="middle" x="310.047" y="-86.3" font-family="FreeSans" font-size="14.00" fill="#000000">Instant</text>
</a>
</g>
</g>
<!-- Instant&#45;&gt;Cool -->
<g id="edge7" class="edge"><title>Instant&#45;&gt;Cool</title>
<path fill="none" stroke="#000000" d="M338.656,-101.573C348.011,-105.03 356.047,-108 356.047,-108 356.047,-108 455.762,-135.815 510.716,-151.145"/>
<polygon fill="#000000" stroke="#000000" points="509.85,-154.537 520.422,-153.852 511.731,-147.794 509.85,-154.537"/>
</g>
<!-- Instant&#45;&gt;Real -->
<g id="edge26" class="edge"><title>Instant&#45;&gt;Real</title>
<path fill="none" stroke="#6666ff" d="M333.891,-103.839C355.28,-115.356 386.769,-132.312 409.898,-144.766"/>
<polygon fill="#6666ff" stroke="#6666ff" points="408.47,-147.972 418.934,-149.632 411.789,-141.809 408.47,-147.972"/>
</g>
<!-- Int -->
<g id="node11" class="node"><title>Int</title>
<g id="a_node11"><a xlink:href="/type/Int" xlink:title="Int">
<ellipse fill="none" stroke="#000000" cx="574.047" cy="-90" rx="27" ry="18"/>
<text text-anchor="middle" x="574.047" y="-86.3" font-family="FreeSans" font-size="14.00" fill="#000000">Int</text>
</a>
</g>
</g>
<!-- Int&#45;&gt;Cool -->
<g id="edge8" class="edge"><title>Int&#45;&gt;Cool</title>
<path fill="none" stroke="#000000" d="M567.411,-107.589C564.181,-115.665 560.219,-125.569 556.589,-134.645"/>
<polygon fill="#000000" stroke="#000000" points="553.293,-133.459 552.829,-144.044 559.793,-136.059 553.293,-133.459"/>
</g>
<!-- Int&#45;&gt;Real -->
<g id="edge27" class="edge"><title>Int&#45;&gt;Real</title>
<path fill="none" stroke="#6666ff" d="M553.403,-101.784C531.27,-113.346 495.898,-131.824 470.553,-145.064"/>
<polygon fill="#6666ff" stroke="#6666ff" points="468.622,-142.124 461.379,-149.856 471.863,-148.328 468.622,-142.124"/>
</g>
<!-- Num -->
<g id="node12" class="node"><title>Num</title>
<g id="a_node12"><a xlink:href="/type/Num" xlink:title="Num">
<ellipse fill="none" stroke="#000000" cx="649.047" cy="-90" rx="29.795" ry="18"/>
<text text-anchor="middle" x="649.047" y="-86.3" font-family="FreeSans" font-size="14.00" fill="#000000">Num</text>
</a>
</g>
</g>
<!-- Num&#45;&gt;Cool -->
<g id="edge9" class="edge"><title>Num&#45;&gt;Cool</title>
<path fill="none" stroke="#000000" d="M629.673,-104.166C613.893,-114.891 591.411,-130.17 573.732,-142.185"/>
<polygon fill="#000000" stroke="#000000" points="571.289,-139.613 564.985,-148.129 575.223,-145.403 571.289,-139.613"/>
</g>
<!-- Num&#45;&gt;Real -->
<g id="edge28" class="edge"><title>Num&#45;&gt;Real</title>
<path fill="none" stroke="#6666ff" d="M625.461,-101.281C617.247,-104.861 610.047,-108 610.047,-108 610.047,-108 524.598,-134.64 474.862,-150.146"/>
<polygon fill="#6666ff" stroke="#6666ff" points="473.636,-146.862 465.131,-153.18 475.719,-153.545 473.636,-146.862"/>
</g>
<!-- Rational -->
<g id="node13" class="node"><title>Rational</title>
<g id="a_node13"><a xlink:href="/type/Rational" xlink:title="Rational">
<ellipse fill="none" stroke="#6666ff" cx="119.047" cy="-90" rx="42.7926" ry="18"/>
<text text-anchor="middle" x="119.047" y="-86.3" font-family="FreeSans" font-size="14.00" fill="#6666ff">Rational</text>
</a>
</g>
</g>
<!-- Rational&#45;&gt;Real -->
<g id="edge29" class="edge"><title>Rational&#45;&gt;Real</title>
<path fill="none" stroke="#6666ff" d="M156.183,-99.0983C218.118,-112.604 341.769,-139.569 403.387,-153.006"/>
<polygon fill="#6666ff" stroke="#6666ff" points="402.918,-156.485 413.434,-155.197 404.409,-149.646 402.918,-156.485"/>
</g>
<!-- Duration -->
<g id="node14" class="node"><title>Duration</title>
<g id="a_node14"><a xlink:href="/type/Duration" xlink:title="Duration">
<ellipse fill="none" stroke="#000000" cx="409.047" cy="-90" rx="44.393" ry="18"/>
<text text-anchor="middle" x="409.047" y="-86.3" font-family="FreeSans" font-size="14.00" fill="#000000">Duration</text>
</a>
</g>
</g>
<!-- Duration&#45;&gt;Cool -->
<g id="edge10" class="edge"><title>Duration&#45;&gt;Cool</title>
<path fill="none" stroke="#000000" d="M435.462,-104.497C458.251,-116.141 491.188,-132.97 515.185,-145.231"/>
<polygon fill="#000000" stroke="#000000" points="513.728,-148.417 524.225,-149.85 516.913,-142.184 513.728,-148.417"/>
</g>
<!-- Duration&#45;&gt;Real -->
<g id="edge30" class="edge"><title>Duration&#45;&gt;Real</title>
<path fill="none" stroke="#6666ff" d="M416.551,-107.945C420.13,-116.027 424.493,-125.879 428.483,-134.888"/>
<polygon fill="#6666ff" stroke="#6666ff" points="425.362,-136.485 432.612,-144.211 431.762,-133.65 425.362,-136.485"/>
</g>
<!-- PromiseStatus -->
<g id="node15" class="node"><title>PromiseStatus</title>
<g id="a_node15"><a xlink:href="/type/PromiseStatus" xlink:title="PromiseStatus">
<ellipse fill="none" stroke="#33bb33" cx="307.047" cy="-18" rx="67.6881" ry="18"/>
<text text-anchor="middle" x="307.047" y="-14.3" font-family="FreeSans" font-size="14.00" fill="#33bb33">PromiseStatus</text>
</a>
</g>
</g>
<!-- PromiseStatus&#45;&gt;Int -->
<g id="edge11" class="edge"><title>PromiseStatus&#45;&gt;Int</title>
<path fill="none" stroke="#000000" d="M356.085,-30.5002C422.554,-46.0879 533.047,-72 533.047,-72 533.047,-72 536.926,-73.6087 542.299,-75.8363"/>
<polygon fill="#000000" stroke="#000000" points="541.049,-79.1071 551.627,-79.7042 543.73,-72.6409 541.049,-79.1071"/>
</g>
<!-- Order -->
<g id="node16" class="node"><title>Order</title>
<g id="a_node16"><a xlink:href="/type/Order" xlink:title="Order">
<ellipse fill="none" stroke="#33bb33" cx="426.047" cy="-18" rx="33.5952" ry="18"/>
<text text-anchor="middle" x="426.047" y="-14.3" font-family="FreeSans" font-size="14.00" fill="#33bb33">Order</text>
</a>
</g>
</g>
<!-- Order&#45;&gt;Int -->
<g id="edge12" class="edge"><title>Order&#45;&gt;Int</title>
<path fill="none" stroke="#000000" d="M450.486,-30.5591C475.897,-42.5779 515.738,-61.4218 543.278,-74.4471"/>
<polygon fill="#000000" stroke="#000000" points="541.926,-77.6793 552.462,-78.791 544.919,-71.3513 541.926,-77.6793"/>
</g>
<!-- atomicint -->
<g id="node17" class="node"><title>atomicint</title>
<g id="a_node17"><a xlink:href="/type/atomicint" xlink:title="atomicint">
<ellipse fill="none" stroke="#000000" cx="524.047" cy="-18" rx="46.2923" ry="18"/>
<text text-anchor="middle" x="524.047" y="-14.3" font-family="FreeSans" font-size="14.00" fill="#000000">atomicint</text>
</a>
</g>
</g>
<!-- atomicint&#45;&gt;Int -->
<g id="edge13" class="edge"><title>atomicint&#45;&gt;Int</title>
<path fill="none" stroke="#000000" d="M535.896,-35.589C542.239,-44.4696 550.162,-55.5609 557.141,-65.3316"/>
<polygon fill="#000000" stroke="#000000" points="554.307,-67.3862 562.968,-73.4892 560.003,-63.3175 554.307,-67.3862"/>
</g>
<!-- Signal -->
<g id="node18" class="node"><title>Signal</title>
<g id="a_node18"><a xlink:href="/type/Signal" xlink:title="Signal">
<ellipse fill="none" stroke="#33bb33" cx="623.047" cy="-18" rx="35.194" ry="18"/>
<text text-anchor="middle" x="623.047" y="-14.3" font-family="FreeSans" font-size="14.00" fill="#33bb33">Signal</text>
</a>
</g>
</g>
<!-- Signal&#45;&gt;Int -->
<g id="edge14" class="edge"><title>Signal&#45;&gt;Int</title>
<path fill="none" stroke="#000000" d="M611.682,-35.2354C605.472,-44.1069 597.663,-55.262 590.771,-65.1084"/>
<polygon fill="#000000" stroke="#000000" points="587.88,-63.1347 585.013,-73.3342 593.615,-67.149 587.88,-63.1347"/>
</g>
<!-- IntStr -->
<g id="node19" class="node"><title>IntStr</title>
<g id="a_node19"><a xlink:href="/type/IntStr" xlink:title="IntStr">
<ellipse fill="none" stroke="#000000" cx="780.047" cy="-18" rx="31.6951" ry="18"/>
<text text-anchor="middle" x="780.047" y="-14.3" font-family="FreeSans" font-size="14.00" fill="#000000">IntStr</text>
</a>
</g>
</g>
<!-- IntStr&#45;&gt;Str -->
<g id="edge16" class="edge"><title>IntStr&#45;&gt;Str</title>
<path fill="none" stroke="#000000" d="M780.047,-36.3034C780.047,-44.0173 780.047,-53.2875 780.047,-61.8876"/>
<polygon fill="#000000" stroke="#000000" points="776.547,-61.8956 780.047,-71.8957 783.547,-61.8957 776.547,-61.8956"/>
</g>
<!-- IntStr&#45;&gt;Int -->
<g id="edge15" class="edge"><title>IntStr&#45;&gt;Int</title>
<path fill="none" stroke="#000000" d="M754.781,-29.476C746.344,-32.9744 739.047,-36 739.047,-36 739.047,-36 610.047,-72 610.047,-72 610.047,-72 607.866,-73.0296 604.579,-74.5819"/>
<polygon fill="#000000" stroke="#000000" points="602.952,-71.4796 595.404,-78.9146 605.941,-77.8093 602.952,-71.4796"/>
</g>
<!-- int -->
<g id="node20" class="node"><title>int</title>
<g id="a_node20"><a xlink:href="/type/int" xlink:title="int">
<ellipse fill="none" stroke="#000000" cx="703.047" cy="-18" rx="27" ry="18"/>
<text text-anchor="middle" x="703.047" y="-14.3" font-family="FreeSans" font-size="14.00" fill="#000000">int</text>
</a>
</g>
</g>
<!-- int&#45;&gt;Int -->
<g id="edge17" class="edge"><title>int&#45;&gt;Int</title>
<path fill="none" stroke="#000000" d="M682.606,-30.0917C661.282,-41.663 627.65,-59.9128 603.47,-73.0338"/>
<polygon fill="#000000" stroke="#000000" points="601.512,-70.1144 594.392,-77.9602 604.85,-76.267 601.512,-70.1144"/>
</g>
<!-- Bool -->
<g id="node21" class="node"><title>Bool</title>
<g id="a_node21"><a xlink:href="/type/Bool" xlink:title="Bool">
<ellipse fill="none" stroke="#33bb33" cx="193.047" cy="-18" rx="28.6953" ry="18"/>
<text text-anchor="middle" x="193.047" y="-14.3" font-family="FreeSans" font-size="14.00" fill="#33bb33">Bool</text>
</a>
</g>
</g>
<!-- Bool&#45;&gt;Int -->
<g id="edge18" class="edge"><title>Bool&#45;&gt;Int</title>
<path fill="none" stroke="#000000" d="M215.423,-29.2811C223.215,-32.8613 230.047,-36 230.047,-36 230.047,-36 533.047,-72 533.047,-72 533.047,-72 536.926,-73.6087 542.299,-75.8363"/>
<polygon fill="#000000" stroke="#000000" points="541.049,-79.1071 551.627,-79.7042 543.73,-72.6409 541.049,-79.1071"/>
</g>
<!-- NumStr -->
<g id="node22" class="node"><title>NumStr</title>
<g id="a_node22"><a xlink:href="/type/NumStr" xlink:title="NumStr">
<ellipse fill="none" stroke="#000000" cx="871.047" cy="-18" rx="40.8928" ry="18"/>
<text text-anchor="middle" x="871.047" y="-14.3" font-family="FreeSans" font-size="14.00" fill="#000000">NumStr</text>
</a>
</g>
</g>
<!-- NumStr&#45;&gt;Str -->
<g id="edge20" class="edge"><title>NumStr&#45;&gt;Str</title>
<path fill="none" stroke="#000000" d="M851.301,-34.189C837.755,-44.609 819.668,-58.5222 805.106,-69.7232"/>
<polygon fill="#000000" stroke="#000000" points="802.794,-67.0866 797.001,-75.9579 807.062,-72.635 802.794,-67.0866"/>
</g>
<!-- NumStr&#45;&gt;Num -->
<g id="edge19" class="edge"><title>NumStr&#45;&gt;Num</title>
<path fill="none" stroke="#000000" d="M839.665,-29.6698C829.619,-33.0854 821.047,-36 821.047,-36 821.047,-36 735.124,-62.476 684.737,-78.0023"/>
<polygon fill="#000000" stroke="#000000" points="683.696,-74.6608 675.17,-80.9504 685.757,-81.3504 683.696,-74.6608"/>
</g>
<!-- Rat -->
<g id="node23" class="node"><title>Rat</title>
<g id="a_node23"><a xlink:href="/type/Rat" xlink:title="Rat">
<ellipse fill="none" stroke="#000000" cx="119.047" cy="-18" rx="27" ry="18"/>
<text text-anchor="middle" x="119.047" y="-14.3" font-family="FreeSans" font-size="14.00" fill="#000000">Rat</text>
</a>
</g>
</g>
<!-- Rat&#45;&gt;Cool -->
<g id="edge21" class="edge"><title>Rat&#45;&gt;Cool</title>
<path fill="none" stroke="#000000" d="M140.404,-29.0854C148.156,-32.7461 155.047,-36 155.047,-36 155.047,-36 495.047,-72 495.047,-72 495.047,-72 516.59,-109.595 531.673,-135.916"/>
<polygon fill="#000000" stroke="#000000" points="528.684,-137.74 536.693,-144.676 534.757,-134.259 528.684,-137.74"/>
</g>
<!-- Rat&#45;&gt;Rational -->
<g id="edge31" class="edge"><title>Rat&#45;&gt;Rational</title>
<path fill="none" stroke="#6666ff" d="M119.047,-36.3034C119.047,-44.0173 119.047,-53.2875 119.047,-61.8876"/>
<polygon fill="#6666ff" stroke="#6666ff" points="115.547,-61.8956 119.047,-71.8957 122.547,-61.8957 115.547,-61.8956"/>
</g>
<!-- FatRat -->
<g id="node24" class="node"><title>FatRat</title>
<g id="a_node24"><a xlink:href="/type/FatRat" xlink:title="FatRat">
<ellipse fill="none" stroke="#000000" cx="37.0467" cy="-18" rx="37.0935" ry="18"/>
<text text-anchor="middle" x="37.0467" y="-14.3" font-family="FreeSans" font-size="14.00" fill="#000000">FatRat</text>
</a>
</g>
</g>
<!-- FatRat&#45;&gt;Cool -->
<g id="edge22" class="edge"><title>FatRat&#45;&gt;Cool</title>
<path fill="none" stroke="#000000" d="M65.6561,-29.573C75.0106,-33.0301 83.0467,-36 83.0467,-36 83.0467,-36 462.047,-72 462.047,-72 462.047,-72 495.047,-108 495.047,-108 495.047,-108 510.785,-124.355 524.776,-138.895"/>
<polygon fill="#000000" stroke="#000000" points="522.385,-141.458 531.84,-146.237 527.429,-136.604 522.385,-141.458"/>
</g>
<!-- FatRat&#45;&gt;Rational -->
<g id="edge32" class="edge"><title>FatRat&#45;&gt;Rational</title>
<path fill="none" stroke="#6666ff" d="M54.8395,-34.189C66.0449,-43.7546 80.6987,-56.2639 93.1774,-66.9164"/>
<polygon fill="#6666ff" stroke="#6666ff" points="91.1274,-69.7683 101.005,-73.599 95.6723,-64.4443 91.1274,-69.7683"/>
</g>
</g>
</svg>
