<?xml version="1.0" encoding="UTF-8" standalone="no"?>
<!DOCTYPE svg PUBLIC "-//W3C//DTD SVG 1.1//EN"
 "http://www.w3.org/Graphics/SVG/1.1/DTD/svg11.dtd">
<!-- Generated by graphviz version 2.38.0 (20140413.2041)
 -->
<!-- Title: perl6&#45;type&#45;graph Pages: 1 -->
<svg width="1886pt" height="1036pt"
 viewBox="0.00 0.00 1886.15 1036.25" xmlns="http://www.w3.org/2000/svg" xmlns:xlink="http://www.w3.org/1999/xlink">
<g id="graph0" class="graph" transform="scale(1 1) rotate(0) translate(935.706 496.95)">
<title>perl6&#45;type&#45;graph</title>
<polygon fill="white" stroke="none" points="-935.706,539.299 -935.706,-496.95 950.447,-496.95 950.447,539.299 -935.706,539.299"/>
<!-- Metamodel::MROBasedTypeChecking -->
<g id="node1" class="node"><title>Metamodel::MROBasedTypeChecking</title>
<g id="a_node1"><a xlink:href="/type/Metamodel::MROBasedTypeChecking" xlink:title="Metamodel::MROBasedTypeChecking">
<ellipse fill="none" stroke="#6666ff" cx="-444.927" cy="167.628" rx="163.271" ry="18"/>
<text text-anchor="middle" x="-444.927" y="171.328" font-family="FreeSans" font-size="14.00" fill="#6666ff">Metamodel::MROBasedTypeChecking</text>
</a>
</g>
</g>
<!-- Mu -->
<g id="node2" class="node"><title>Mu</title>
<g id="a_node2"><a xlink:href="/type/Mu" xlink:title="Mu">
<ellipse fill="none" stroke="#000000" cx="796.342" cy="444.549" rx="27" ry="18"/>
<text text-anchor="middle" x="796.342" y="448.249" font-family="FreeSans" font-size="14.00" fill="#000000">Mu</text>
</a>
</g>
</g>
<!-- Any -->
<g id="node3" class="node"><title>Any</title>
<g id="a_node3"><a xlink:href="/type/Any" xlink:title="Any">
<ellipse fill="none" stroke="#000000" cx="144.858" cy="517.299" rx="27" ry="18"/>
<text text-anchor="middle" x="144.858" y="520.999" font-family="FreeSans" font-size="14.00" fill="#000000">Any</text>
</a>
</g>
</g>
<!-- Any&#45;&gt;Mu -->
<g id="edge1" class="edge"><title>Any&#45;&gt;Mu</title>
<path fill="none" stroke="#000000" d="M170.477,511.168C214.049,500.741 297.918,480.671 297.918,480.671 297.918,480.671 643.281,455.642 759.038,447.253"/>
<polygon fill="#000000" stroke="#000000" points="758.964,443.749 769.191,446.517 759.47,450.731 758.964,443.749"/>
</g>
<!-- Metamodel::Naming -->
<g id="node4" class="node"><title>Metamodel::Naming</title>
<g id="a_node4"><a xlink:href="/type/Metamodel::Naming" xlink:title="Metamodel::Naming">
<ellipse fill="none" stroke="#6666ff" cx="-222.454" cy="-24.5185" rx="90.1842" ry="18"/>
<text text-anchor="middle" x="-222.454" y="-20.8185" font-family="FreeSans" font-size="14.00" fill="#6666ff">Metamodel::Naming</text>
</a>
</g>
</g>
<!-- Metamodel::Documenting -->
<g id="node5" class="node"><title>Metamodel::Documenting</title>
<g id="a_node5"><a xlink:href="/type/Metamodel::Documenting" xlink:title="Metamodel::Documenting">
<ellipse fill="none" stroke="#6666ff" cx="468.226" cy="-136.469" rx="111.28" ry="18"/>
<text text-anchor="middle" x="468.226" y="-132.769" font-family="FreeSans" font-size="14.00" fill="#6666ff">Metamodel::Documenting</text>
</a>
</g>
</g>
<!-- Metamodel::Versioning -->
<g id="node6" class="node"><title>Metamodel::Versioning</title>
<g id="a_node6"><a xlink:href="/type/Metamodel::Versioning" xlink:title="Metamodel::Versioning">
<ellipse fill="none" stroke="#6666ff" cx="-77.968" cy="-201.273" rx="100.983" ry="18"/>
<text text-anchor="middle" x="-77.968" y="-197.573" font-family="FreeSans" font-size="14.00" fill="#6666ff">Metamodel::Versioning</text>
</a>
</g>
</g>
<!-- Metamodel::Stashing -->
<g id="node7" class="node"><title>Metamodel::Stashing</title>
<g id="a_node7"><a xlink:href="/type/Metamodel::Stashing" xlink:title="Metamodel::Stashing">
<ellipse fill="none" stroke="#6666ff" cx="-391.437" cy="496.622" rx="93.6835" ry="18"/>
<text text-anchor="middle" x="-391.437" y="500.322" font-family="FreeSans" font-size="14.00" fill="#6666ff">Metamodel::Stashing</text>
</a>
</g>
</g>
<!-- Metamodel::MultipleInheritance -->
<g id="node8" class="node"><title>Metamodel::MultipleInheritance</title>
<g id="a_node8"><a xlink:href="/type/Metamodel::MultipleInheritance" xlink:title="Metamodel::MultipleInheritance">
<ellipse fill="none" stroke="#6666ff" cx="812.559" cy="16.4286" rx="133.776" ry="18"/>
<text text-anchor="middle" x="812.559" y="20.1286" font-family="FreeSans" font-size="14.00" fill="#6666ff">Metamodel::MultipleInheritance</text>
</a>
</g>
</g>
<!-- Metamodel::C3MRO -->
<g id="node9" class="node"><title>Metamodel::C3MRO</title>
<g id="a_node9"><a xlink:href="/type/Metamodel::C3MRO" xlink:title="Metamodel::C3MRO">
<ellipse fill="none" stroke="#6666ff" cx="-106.699" cy="501.905" rx="92.0841" ry="18"/>
<text text-anchor="middle" x="-106.699" y="505.605" font-family="FreeSans" font-size="14.00" fill="#6666ff">Metamodel::C3MRO</text>
</a>
</g>
</g>
<!-- Metamodel::MROBasedMethodDispatch -->
<g id="node10" class="node"><title>Metamodel::MROBasedMethodDispatch</title>
<g id="a_node10"><a xlink:href="/type/Metamodel::MROBasedMethodDispatch" xlink:title="Metamodel::MROBasedMethodDispatch">
<ellipse fill="none" stroke="#6666ff" cx="419.313" cy="494.494" rx="169.77" ry="18"/>
<text text-anchor="middle" x="419.313" y="498.194" font-family="FreeSans" font-size="14.00" fill="#6666ff">Metamodel::MROBasedMethodDispatch</text>
</a>
</g>
</g>
<!-- Metamodel::NativeHOW -->
<g id="node11" class="node"><title>Metamodel::NativeHOW</title>
<g id="a_node11"><a xlink:href="/type/Metamodel::NativeHOW" xlink:title="Metamodel::NativeHOW">
<ellipse fill="none" stroke="#000000" cx="130.311" cy="245.968" rx="107.482" ry="18"/>
<text text-anchor="middle" x="130.311" y="249.668" font-family="FreeSans" font-size="14.00" fill="#000000">Metamodel::NativeHOW</text>
</a>
</g>
</g>
<!-- Metamodel::NativeHOW&#45;&gt;Metamodel::MROBasedTypeChecking -->
<g id="edge12" class="edge"><title>Metamodel::NativeHOW&#45;&gt;Metamodel::MROBasedTypeChecking</title>
<path fill="none" stroke="#6666ff" d="M59.8757,232.327C-1.95543,220.352 -82.1012,204.831 -82.1012,204.831 -82.1012,204.831 -211.191,191.595 -315.371,180.913"/>
<polygon fill="#6666ff" stroke="#6666ff" points="-315.779,184.389 -325.37,179.887 -315.065,177.426 -315.779,184.389"/>
</g>
<!-- Metamodel::NativeHOW&#45;&gt;Any -->
<g id="edge2" class="edge"><title>Metamodel::NativeHOW&#45;&gt;Any</title>
<path fill="none" stroke="#000000" d="M131.288,264.192C133.772,310.532 140.345,433.132 143.337,488.928"/>
<polygon fill="#000000" stroke="#000000" points="146.844,488.981 143.885,499.154 139.854,489.356 146.844,488.981"/>
</g>
<!-- Metamodel::NativeHOW&#45;&gt;Metamodel::Naming -->
<g id="edge5" class="edge"><title>Metamodel::NativeHOW&#45;&gt;Metamodel::Naming</title>
<path fill="none" stroke="#6666ff" d="M107.165,228.22C45.5955,181.011 -122.239,52.323 -191.711,-0.945656"/>
<polygon fill="#6666ff" stroke="#6666ff" points="-193.876,1.80491 -199.682,-7.05741 -189.617,-3.7501 -193.876,1.80491"/>
</g>
<!-- Metamodel::NativeHOW&#45;&gt;Metamodel::Documenting -->
<g id="edge6" class="edge"><title>Metamodel::NativeHOW&#45;&gt;Metamodel::Documenting</title>
<path fill="none" stroke="#6666ff" d="M151.415,227.995C210.438,177.733 372.909,39.3774 372.909,39.3774 372.909,39.3774 426.854,-60.1428 453.578,-109.446"/>
<polygon fill="#6666ff" stroke="#6666ff" points="450.542,-111.189 458.385,-118.313 456.696,-107.853 450.542,-111.189"/>
</g>
<!-- Metamodel::NativeHOW&#45;&gt;Metamodel::Versioning -->
<g id="edge7" class="edge"><title>Metamodel::NativeHOW&#45;&gt;Metamodel::Versioning</title>
<path fill="none" stroke="#6666ff" d="M128.946,227.654C125.184,177.148 114.936,39.6008 114.936,39.6008 114.936,39.6008 117.519,25.0746 117.519,25.0746 117.519,25.0746 -4.19401,-115.852 -55.5424,-175.307"/>
<polygon fill="#6666ff" stroke="#6666ff" points="-58.4135,-173.276 -62.3009,-183.132 -53.1158,-177.852 -58.4135,-173.276"/>
</g>
<!-- Metamodel::NativeHOW&#45;&gt;Metamodel::Stashing -->
<g id="edge8" class="edge"><title>Metamodel::NativeHOW&#45;&gt;Metamodel::Stashing</title>
<path fill="none" stroke="#6666ff" d="M94.8592,262.999C2.33454,307.449 -246.277,426.885 -347.575,475.55"/>
<polygon fill="#6666ff" stroke="#6666ff" points="-346.093,478.721 -356.622,479.896 -349.124,472.411 -346.093,478.721"/>
</g>
<!-- Metamodel::NativeHOW&#45;&gt;Metamodel::MultipleInheritance -->
<g id="edge9" class="edge"><title>Metamodel::NativeHOW&#45;&gt;Metamodel::MultipleInheritance</title>
<path fill="none" stroke="#6666ff" d="M178.285,229.827C299.902,188.91 620.035,81.2022 753.166,36.4109"/>
<polygon fill="#6666ff" stroke="#6666ff" points="752.21,33.04 762.804,33.1685 754.442,39.6746 752.21,33.04"/>
</g>
<!-- Metamodel::NativeHOW&#45;&gt;Metamodel::C3MRO -->
<g id="edge10" class="edge"><title>Metamodel::NativeHOW&#45;&gt;Metamodel::C3MRO</title>
<path fill="none" stroke="#6666ff" d="M113.645,263.965C72.2525,308.662 -35.3348,424.842 -83.1736,476.501"/>
<polygon fill="#6666ff" stroke="#6666ff" points="-80.689,478.969 -90.0516,483.928 -85.825,474.213 -80.689,478.969"/>
</g>
<!-- Metamodel::NativeHOW&#45;&gt;Metamodel::MROBasedMethodDispatch -->
<g id="edge11" class="edge"><title>Metamodel::NativeHOW&#45;&gt;Metamodel::MROBasedMethodDispatch</title>
<path fill="none" stroke="#6666ff" d="M151.095,263.841C201.899,307.53 332.458,419.804 390.618,469.819"/>
<polygon fill="#6666ff" stroke="#6666ff" points="393.028,467.275 398.328,476.449 388.464,472.582 393.028,467.275"/>
</g>
<!-- Metamodel::AttributeContainer -->
<g id="node12" class="node"><title>Metamodel::AttributeContainer</title>
<g id="a_node12"><a xlink:href="/type/Metamodel::AttributeContainer" xlink:title="Metamodel::AttributeContainer">
<ellipse fill="none" stroke="#6666ff" cx="-797.141" cy="25.3019" rx="129.977" ry="18"/>
<text text-anchor="middle" x="-797.141" y="29.0019" font-family="FreeSans" font-size="14.00" fill="#6666ff">Metamodel::AttributeContainer</text>
</a>
</g>
</g>
<!-- Metamodel::MethodContainer -->
<g id="node13" class="node"><title>Metamodel::MethodContainer</title>
<g id="a_node13"><a xlink:href="/type/Metamodel::MethodContainer" xlink:title="Metamodel::MethodContainer">
<ellipse fill="none" stroke="#6666ff" cx="243.922" cy="39.4891" rx="127.277" ry="18"/>
<text text-anchor="middle" x="243.922" y="43.1891" font-family="FreeSans" font-size="14.00" fill="#6666ff">Metamodel::MethodContainer</text>
</a>
</g>
</g>
<!-- Metamodel::MultiMethodContainer -->
<g id="node14" class="node"><title>Metamodel::MultiMethodContainer</title>
<g id="a_node14"><a xlink:href="/type/Metamodel::MultiMethodContainer" xlink:title="Metamodel::MultiMethodContainer">
<ellipse fill="none" stroke="#6666ff" cx="183.542" cy="-192.2" rx="146.474" ry="18"/>
<text text-anchor="middle" x="183.542" y="-188.5" font-family="FreeSans" font-size="14.00" fill="#6666ff">Metamodel::MultiMethodContainer</text>
</a>
</g>
</g>
<!-- Metamodel::RoleContainer -->
<g id="node15" class="node"><title>Metamodel::RoleContainer</title>
<g id="a_node15"><a xlink:href="/type/Metamodel::RoleContainer" xlink:title="Metamodel::RoleContainer">
<ellipse fill="none" stroke="#6666ff" cx="-441.804" cy="-146.609" rx="115.88" ry="18"/>
<text text-anchor="middle" x="-441.804" y="-142.909" font-family="FreeSans" font-size="14.00" fill="#6666ff">Metamodel::RoleContainer</text>
</a>
</g>
</g>
<!-- Metamodel::BaseType -->
<g id="node16" class="node"><title>Metamodel::BaseType</title>
<g id="a_node16"><a xlink:href="/type/Metamodel::BaseType" xlink:title="Metamodel::BaseType">
<ellipse fill="none" stroke="#6666ff" cx="-779.622" cy="447.571" rx="99.3824" ry="18"/>
<text text-anchor="middle" x="-779.622" y="451.271" font-family="FreeSans" font-size="14.00" fill="#6666ff">Metamodel::BaseType</text>
</a>
</g>
</g>
<!-- Metamodel::BUILDPLAN -->
<g id="node17" class="node"><title>Metamodel::BUILDPLAN</title>
<g id="a_node17"><a xlink:href="/type/Metamodel::BUILDPLAN" xlink:title="Metamodel::BUILDPLAN">
<ellipse fill="none" stroke="#6666ff" cx="461.961" cy="177.958" rx="109.681" ry="18"/>
<text text-anchor="middle" x="461.961" y="181.658" font-family="FreeSans" font-size="14.00" fill="#6666ff">Metamodel::BUILDPLAN</text>
</a>
</g>
</g>
<!-- Metamodel::BoolificationProtocol -->
<g id="node18" class="node"><title>Metamodel::BoolificationProtocol</title>
<g id="a_node18"><a xlink:href="/type/Metamodel::BoolificationProtocol" xlink:title="Metamodel::BoolificationProtocol">
<ellipse fill="none" stroke="#6666ff" cx="-792.618" cy="-401.187" rx="139.175" ry="18"/>
<text text-anchor="middle" x="-792.618" y="-397.487" font-family="FreeSans" font-size="14.00" fill="#6666ff">Metamodel::BoolificationProtocol</text>
</a>
</g>
</g>
<!-- Metamodel::EnumHOW -->
<g id="node19" class="node"><title>Metamodel::EnumHOW</title>
<g id="a_node19"><a xlink:href="/type/Metamodel::EnumHOW" xlink:title="Metamodel::EnumHOW">
<ellipse fill="none" stroke="#000000" cx="-156.652" cy="218.795" rx="104.782" ry="18"/>
<text text-anchor="middle" x="-156.652" y="222.495" font-family="FreeSans" font-size="14.00" fill="#000000">Metamodel::EnumHOW</text>
</a>
</g>
</g>
<!-- Metamodel::EnumHOW&#45;&gt;Metamodel::MROBasedTypeChecking -->
<g id="edge21" class="edge"><title>Metamodel::EnumHOW&#45;&gt;Metamodel::MROBasedTypeChecking</title>
<path fill="none" stroke="#6666ff" d="M-229.768,205.818C-265.752,199.431 -309.609,191.646 -348.316,184.776"/>
<polygon fill="#6666ff" stroke="#6666ff" points="-349.326,188.152 -358.56,182.958 -348.103,181.259 -349.326,188.152"/>
</g>
<!-- Metamodel::EnumHOW&#45;&gt;Any -->
<g id="edge3" class="edge"><title>Metamodel::EnumHOW&#45;&gt;Any</title>
<path fill="none" stroke="#000000" d="M-138.694,236.574C-86.5224,288.225 64.9641,438.202 122.411,495.076"/>
<polygon fill="#000000" stroke="#000000" points="124.919,492.634 129.563,502.157 119.994,497.608 124.919,492.634"/>
</g>
<!-- Metamodel::EnumHOW&#45;&gt;Metamodel::Naming -->
<g id="edge13" class="edge"><title>Metamodel::EnumHOW&#45;&gt;Metamodel::Naming</title>
<path fill="none" stroke="#6666ff" d="M-161.598,200.507C-173.01,158.307 -201.248,53.8941 -214.868,3.53398"/>
<polygon fill="#6666ff" stroke="#6666ff" points="-218.309,4.2169 -217.541,-6.35006 -211.552,2.3894 -218.309,4.2169"/>
</g>
<!-- Metamodel::EnumHOW&#45;&gt;Metamodel::Stashing -->
<g id="edge14" class="edge"><title>Metamodel::EnumHOW&#45;&gt;Metamodel::Stashing</title>
<path fill="none" stroke="#6666ff" d="M-172.057,237.024C-212.618,285.022 -322.475,415.017 -369.546,470.717"/>
<polygon fill="#6666ff" stroke="#6666ff" points="-367.153,473.308 -376.281,478.687 -372.499,468.79 -367.153,473.308"/>
</g>
<!-- Metamodel::EnumHOW&#45;&gt;Metamodel::MROBasedMethodDispatch -->
<g id="edge20" class="edge"><title>Metamodel::EnumHOW&#45;&gt;Metamodel::MROBasedMethodDispatch</title>
<path fill="none" stroke="#6666ff" d="M-121.057,235.834C-21.2034,283.631 261.531,418.968 373.16,472.402"/>
<polygon fill="#6666ff" stroke="#6666ff" points="374.967,469.387 382.475,476.861 371.944,475.701 374.967,469.387"/>
</g>
<!-- Metamodel::EnumHOW&#45;&gt;Metamodel::AttributeContainer -->
<g id="edge15" class="edge"><title>Metamodel::EnumHOW&#45;&gt;Metamodel::AttributeContainer</title>
<path fill="none" stroke="#6666ff" d="M-196.763,202.14C-232.836,187.16 -280.195,167.495 -280.195,167.495 -280.195,167.495 -329.235,153.675 -329.235,153.675 -329.235,153.675 -598.473,79.8078 -728.484,44.1385"/>
<polygon fill="#6666ff" stroke="#6666ff" points="-729.637,47.4516 -738.354,41.4304 -727.785,40.701 -729.637,47.4516"/>
</g>
<!-- Metamodel::EnumHOW&#45;&gt;Metamodel::MethodContainer -->
<g id="edge16" class="edge"><title>Metamodel::EnumHOW&#45;&gt;Metamodel::MethodContainer</title>
<path fill="none" stroke="#6666ff" d="M-118.967,201.927C-45.7899,169.171 115.411,97.014 196.037,60.9239"/>
<polygon fill="#6666ff" stroke="#6666ff" points="194.901,57.5976 205.458,56.7065 197.761,63.9868 194.901,57.5976"/>
</g>
<!-- Metamodel::EnumHOW&#45;&gt;Metamodel::MultiMethodContainer -->
<g id="edge17" class="edge"><title>Metamodel::EnumHOW&#45;&gt;Metamodel::MultiMethodContainer</title>
<path fill="none" stroke="#6666ff" d="M-150.725,200.595C-135.044,152.435 -93.6584,25.3327 -93.6584,25.3327 -93.6584,25.3327 80.2293,-111.126 152.559,-167.886"/>
<polygon fill="#6666ff" stroke="#6666ff" points="150.83,-170.978 160.857,-174.399 155.151,-165.472 150.83,-170.978"/>
</g>
<!-- Metamodel::EnumHOW&#45;&gt;Metamodel::RoleContainer -->
<g id="edge18" class="edge"><title>Metamodel::EnumHOW&#45;&gt;Metamodel::RoleContainer</title>
<path fill="none" stroke="#6666ff" d="M-170.598,200.924C-217.016,141.442 -366.449,-50.047 -421.336,-120.381"/>
<polygon fill="#6666ff" stroke="#6666ff" points="-424.154,-118.303 -427.547,-128.34 -418.636,-122.61 -424.154,-118.303"/>
</g>
<!-- Metamodel::EnumHOW&#45;&gt;Metamodel::BaseType -->
<g id="edge19" class="edge"><title>Metamodel::EnumHOW&#45;&gt;Metamodel::BaseType</title>
<path fill="none" stroke="#6666ff" d="M-201.454,235.248C-313.502,276.396 -605.521,383.635 -726.22,427.96"/>
<polygon fill="#6666ff" stroke="#6666ff" points="-725.048,431.258 -735.642,431.42 -727.461,424.687 -725.048,431.258"/>
</g>
<!-- Metamodel::EnumHOW&#45;&gt;Metamodel::BUILDPLAN -->
<g id="edge22" class="edge"><title>Metamodel::EnumHOW&#45;&gt;Metamodel::BUILDPLAN</title>
<path fill="none" stroke="#6666ff" d="M-58.6306,212.325C52.5158,204.987 233.386,193.048 349.998,185.349"/>
<polygon fill="#6666ff" stroke="#6666ff" points="349.818,181.854 360.027,184.687 350.279,188.839 349.818,181.854"/>
</g>
<!-- Metamodel::EnumHOW&#45;&gt;Metamodel::BoolificationProtocol -->
<g id="edge23" class="edge"><title>Metamodel::EnumHOW&#45;&gt;Metamodel::BoolificationProtocol</title>
<path fill="none" stroke="#6666ff" d="M-176.335,200.926C-257.133,127.572 -559.093,-146.569 -559.093,-146.569 -559.093,-146.569 -709.869,-310.964 -769.116,-375.563"/>
<polygon fill="#6666ff" stroke="#6666ff" points="-772.017,-373.547 -776.197,-383.283 -766.858,-378.279 -772.017,-373.547"/>
</g>
<!-- Metamodel::Finalization -->
<g id="node20" class="node"><title>Metamodel::Finalization</title>
<g id="a_node20"><a xlink:href="/type/Metamodel::Finalization" xlink:title="Metamodel::Finalization">
<ellipse fill="none" stroke="#6666ff" cx="-161.569" cy="-456.355" rx="103.982" ry="18"/>
<text text-anchor="middle" x="-161.569" y="-452.655" font-family="FreeSans" font-size="14.00" fill="#6666ff">Metamodel::Finalization</text>
</a>
</g>
</g>
<!-- Metamodel::PrivateMethodContainer -->
<g id="node21" class="node"><title>Metamodel::PrivateMethodContainer</title>
<g id="a_node21"><a xlink:href="/type/Metamodel::PrivateMethodContainer" xlink:title="Metamodel::PrivateMethodContainer">
<ellipse fill="none" stroke="#6666ff" cx="790.288" cy="-410.901" rx="154.873" ry="18"/>
<text text-anchor="middle" x="790.288" y="-407.201" font-family="FreeSans" font-size="14.00" fill="#6666ff">Metamodel::PrivateMethodContainer</text>
</a>
</g>
</g>
<!-- Metamodel::DefaultParent -->
<g id="node22" class="node"><title>Metamodel::DefaultParent</title>
<g id="a_node22"><a xlink:href="/type/Metamodel::DefaultParent" xlink:title="Metamodel::DefaultParent">
<ellipse fill="none" stroke="#6666ff" cx="-427.402" cy="-465.301" rx="113.18" ry="18"/>
<text text-anchor="middle" x="-427.402" y="-461.601" font-family="FreeSans" font-size="14.00" fill="#6666ff">Metamodel::DefaultParent</text>
</a>
</g>
</g>
<!-- Metamodel::Trusting -->
<g id="node23" class="node"><title>Metamodel::Trusting</title>
<g id="a_node23"><a xlink:href="/type/Metamodel::Trusting" xlink:title="Metamodel::Trusting">
<ellipse fill="none" stroke="#6666ff" cx="98.5879" cy="-474.95" rx="91.784" ry="18"/>
<text text-anchor="middle" x="98.5879" y="-471.25" font-family="FreeSans" font-size="14.00" fill="#6666ff">Metamodel::Trusting</text>
</a>
</g>
</g>
<!-- Metamodel::Mixins -->
<g id="node24" class="node"><title>Metamodel::Mixins</title>
<g id="a_node24"><a xlink:href="/type/Metamodel::Mixins" xlink:title="Metamodel::Mixins">
<ellipse fill="none" stroke="#6666ff" cx="397.138" cy="-462.938" rx="85.2851" ry="18"/>
<text text-anchor="middle" x="397.138" y="-459.238" font-family="FreeSans" font-size="14.00" fill="#6666ff">Metamodel::Mixins</text>
</a>
</g>
</g>
<!-- Metamodel::ClassHOW -->
<g id="node25" class="node"><title>Metamodel::ClassHOW</title>
<g id="a_node25"><a xlink:href="/type/Metamodel::ClassHOW" xlink:title="Metamodel::ClassHOW">
<ellipse fill="none" stroke="#000000" cx="11.9301" cy="25.2036" rx="103.982" ry="18"/>
<text text-anchor="middle" x="11.9301" y="28.9036" font-family="FreeSans" font-size="14.00" fill="#000000">Metamodel::ClassHOW</text>
</a>
</g>
</g>
<!-- Metamodel::ClassHOW&#45;&gt;Metamodel::MROBasedTypeChecking -->
<g id="edge38" class="edge"><title>Metamodel::ClassHOW&#45;&gt;Metamodel::MROBasedTypeChecking</title>
<path fill="none" stroke="#6666ff" d="M-38.7071,40.9897C-122.204,67.0199 -288.642,118.907 -380.436,147.523"/>
<polygon fill="#6666ff" stroke="#6666ff" points="-379.576,150.922 -390.165,150.556 -381.66,144.239 -379.576,150.922"/>
</g>
<!-- Metamodel::ClassHOW&#45;&gt;Any -->
<g id="edge4" class="edge"><title>Metamodel::ClassHOW&#45;&gt;Any</title>
<path fill="none" stroke="#000000" d="M12.7109,43.2783C14.9898,96.0285 21.4719,246.073 21.4719,246.073 21.4719,246.073 101.64,422.298 132.735,490.652"/>
<polygon fill="#000000" stroke="#000000" points="135.997,489.368 136.952,499.92 129.625,492.267 135.997,489.368"/>
</g>
<!-- Metamodel::ClassHOW&#45;&gt;Metamodel::Naming -->
<g id="edge24" class="edge"><title>Metamodel::ClassHOW&#45;&gt;Metamodel::Naming</title>
<path fill="none" stroke="#6666ff" d="M-53.9828,11.2209C-84.0386,4.84494 -119.7,-2.72017 -150.456,-9.24486"/>
<polygon fill="#6666ff" stroke="#6666ff" points="-151.201,-5.82479 -160.257,-11.3239 -149.748,-12.6724 -151.201,-5.82479"/>
</g>
<!-- Metamodel::ClassHOW&#45;&gt;Metamodel::Documenting -->
<g id="edge25" class="edge"><title>Metamodel::ClassHOW&#45;&gt;Metamodel::Documenting</title>
<path fill="none" stroke="#6666ff" d="M57.7707,8.96162C141.939,-20.8603 320.836,-84.2464 412.116,-116.588"/>
<polygon fill="#6666ff" stroke="#6666ff" points="411.141,-119.956 421.736,-119.997 413.479,-113.358 411.141,-119.956"/>
</g>
<!-- Metamodel::ClassHOW&#45;&gt;Metamodel::Versioning -->
<g id="edge26" class="edge"><title>Metamodel::ClassHOW&#45;&gt;Metamodel::Versioning</title>
<path fill="none" stroke="#6666ff" d="M4.72532,7.05296C-10.9567,-32.454 -48.2702,-126.456 -66.9369,-173.483"/>
<polygon fill="#6666ff" stroke="#6666ff" points="-70.2925,-172.45 -70.7289,-183.036 -63.7863,-175.032 -70.2925,-172.45"/>
</g>
<!-- Metamodel::ClassHOW&#45;&gt;Metamodel::Stashing -->
<g id="edge27" class="edge"><title>Metamodel::ClassHOW&#45;&gt;Metamodel::Stashing</title>
<path fill="none" stroke="#6666ff" d="M-12.943,42.7385C-80.5923,90.4296 -262.889,218.944 -262.889,218.944 -262.889,218.944 -346.367,399.265 -378.782,469.285"/>
<polygon fill="#6666ff" stroke="#6666ff" points="-375.625,470.798 -383.003,478.403 -381.978,467.857 -375.625,470.798"/>
</g>
<!-- Metamodel::ClassHOW&#45;&gt;Metamodel::MultipleInheritance -->
<g id="edge34" class="edge"><title>Metamodel::ClassHOW&#45;&gt;Metamodel::MultipleInheritance</title>
<path fill="none" stroke="#6666ff" d="M115.047,22.8341C176.715,21.4169 243.187,19.8894 243.187,19.8894 243.187,19.8894 499.805,18.3296 668.482,17.3043"/>
<polygon fill="#6666ff" stroke="#6666ff" points="668.686,13.8031 678.707,17.2422 668.728,20.803 668.686,13.8031"/>
</g>
<!-- Metamodel::ClassHOW&#45;&gt;Metamodel::C3MRO -->
<g id="edge36" class="edge"><title>Metamodel::ClassHOW&#45;&gt;Metamodel::C3MRO</title>
<path fill="none" stroke="#6666ff" d="M7.42454,43.3088C-10.6326,115.87 -77.844,385.953 -99.7488,473.976"/>
<polygon fill="#6666ff" stroke="#6666ff" points="-96.3778,474.923 -102.189,483.782 -103.171,473.233 -96.3778,474.923"/>
</g>
<!-- Metamodel::ClassHOW&#45;&gt;Metamodel::MROBasedMethodDispatch -->
<g id="edge37" class="edge"><title>Metamodel::ClassHOW&#45;&gt;Metamodel::MROBasedMethodDispatch</title>
<path fill="none" stroke="#6666ff" d="M30.5244,43.261C84.7911,95.9606 239.15,245.862 239.15,245.862 239.15,245.862 353.453,403.605 399.97,467.801"/>
<polygon fill="#6666ff" stroke="#6666ff" points="403.031,466.061 406.065,476.212 397.363,470.168 403.031,466.061"/>
</g>
<!-- Metamodel::ClassHOW&#45;&gt;Metamodel::AttributeContainer -->
<g id="edge28" class="edge"><title>Metamodel::ClassHOW&#45;&gt;Metamodel::AttributeContainer</title>
<path fill="none" stroke="#6666ff" d="M-92.1855,25.2163C-235.952,25.2337 -495.69,25.2653 -656.569,25.2848"/>
<polygon fill="#6666ff" stroke="#6666ff" points="-657.021,28.7847 -667.021,25.2861 -657.021,21.7847 -657.021,28.7847"/>
</g>
<!-- Metamodel::ClassHOW&#45;&gt;Metamodel::MethodContainer -->
<g id="edge30" class="edge"><title>Metamodel::ClassHOW&#45;&gt;Metamodel::MethodContainer</title>
<path fill="none" stroke="#6666ff" d="M109.979,31.2413C112.24,31.3805 114.51,31.5203 116.786,31.6604"/>
<polygon fill="#6666ff" stroke="#6666ff" points="117.025,28.1684 126.791,32.2764 116.594,35.1551 117.025,28.1684"/>
</g>
<!-- Metamodel::ClassHOW&#45;&gt;Metamodel::MultiMethodContainer -->
<g id="edge32" class="edge"><title>Metamodel::ClassHOW&#45;&gt;Metamodel::MultiMethodContainer</title>
<path fill="none" stroke="#6666ff" d="M26.2664,7.04183C56.6896,-31.4993 127.802,-121.587 163.025,-166.208"/>
<polygon fill="#6666ff" stroke="#6666ff" points="160.424,-168.562 169.367,-174.243 165.918,-164.225 160.424,-168.562"/>
</g>
<!-- Metamodel::ClassHOW&#45;&gt;Metamodel::RoleContainer -->
<g id="edge33" class="edge"><title>Metamodel::ClassHOW&#45;&gt;Metamodel::RoleContainer</title>
<path fill="none" stroke="#6666ff" d="M-31.5758,8.72949C-115.04,-22.8754 -297.401,-91.929 -388.21,-126.315"/>
<polygon fill="#6666ff" stroke="#6666ff" points="-389.65,-123.118 -397.763,-129.933 -387.172,-129.664 -389.65,-123.118"/>
</g>
<!-- Metamodel::ClassHOW&#45;&gt;Metamodel::BUILDPLAN -->
<g id="edge40" class="edge"><title>Metamodel::ClassHOW&#45;&gt;Metamodel::BUILDPLAN</title>
<path fill="none" stroke="#6666ff" d="M59.2407,41.2623C142.416,69.4948 314.533,127.917 404.438,158.433"/>
<polygon fill="#6666ff" stroke="#6666ff" points="405.585,155.126 413.93,161.655 403.335,161.755 405.585,155.126"/>
</g>
<!-- Metamodel::ClassHOW&#45;&gt;Metamodel::BoolificationProtocol -->
<g id="edge42" class="edge"><title>Metamodel::ClassHOW&#45;&gt;Metamodel::BoolificationProtocol</title>
<path fill="none" stroke="#6666ff" d="M-20.6056,7.9605C-147.322,-59.1961 -607.838,-303.258 -750.315,-378.768"/>
<polygon fill="#6666ff" stroke="#6666ff" points="-752.036,-375.718 -759.233,-383.494 -748.758,-381.904 -752.036,-375.718"/>
</g>
<!-- Metamodel::ClassHOW&#45;&gt;Metamodel::Finalization -->
<g id="edge29" class="edge"><title>Metamodel::ClassHOW&#45;&gt;Metamodel::Finalization</title>
<path fill="none" stroke="#6666ff" d="M12.9272,7.04408C15.8795,-46.7242 24.3715,-201.383 24.3715,-201.383 24.3715,-201.383 -95.1929,-365.336 -142.567,-430.299"/>
<polygon fill="#6666ff" stroke="#6666ff" points="-145.43,-428.284 -148.494,-438.426 -139.774,-432.409 -145.43,-428.284"/>
</g>
<!-- Metamodel::ClassHOW&#45;&gt;Metamodel::PrivateMethodContainer -->
<g id="edge31" class="edge"><title>Metamodel::ClassHOW&#45;&gt;Metamodel::PrivateMethodContainer</title>
<path fill="none" stroke="#6666ff" d="M42.923,7.83868C164.951,-60.5321 612.289,-311.171 749.8,-388.216"/>
<polygon fill="#6666ff" stroke="#6666ff" points="748.345,-391.413 758.78,-393.248 751.767,-385.307 748.345,-391.413"/>
</g>
<!-- Metamodel::ClassHOW&#45;&gt;Metamodel::DefaultParent -->
<g id="edge35" class="edge"><title>Metamodel::ClassHOW&#45;&gt;Metamodel::DefaultParent</title>
<path fill="none" stroke="#6666ff" d="M-4.22699,7.16459C-71.1057,-67.5041 -326.405,-352.541 -404.541,-439.778"/>
<polygon fill="#6666ff" stroke="#6666ff" points="-407.265,-437.573 -411.33,-447.357 -402.051,-442.243 -407.265,-437.573"/>
</g>
<!-- Metamodel::ClassHOW&#45;&gt;Metamodel::Trusting -->
<g id="edge39" class="edge"><title>Metamodel::ClassHOW&#45;&gt;Metamodel::Trusting</title>
<path fill="none" stroke="#6666ff" d="M13.9164,7.05018C19.6309,-45.1766 35.7068,-192.1 35.7068,-192.1 35.7068,-192.1 76.3955,-375.125 92.3122,-446.721"/>
<polygon fill="#6666ff" stroke="#6666ff" points="88.9719,-447.824 94.5587,-456.826 95.8051,-446.305 88.9719,-447.824"/>
</g>
<!-- Metamodel::ClassHOW&#45;&gt;Metamodel::Mixins -->
<g id="edge41" class="edge"><title>Metamodel::ClassHOW&#45;&gt;Metamodel::Mixins</title>
<path fill="none" stroke="#6666ff" d="M37.8012,7.58862C113.85,-44.1915 331.377,-192.3 331.377,-192.3 331.377,-192.3 373.537,-365.809 390.342,-434.971"/>
<polygon fill="#6666ff" stroke="#6666ff" points="386.958,-435.869 392.721,-444.76 393.761,-434.216 386.958,-435.869"/>
</g>
</g>
</svg>
