<?xml version="1.0" encoding="UTF-8" standalone="no"?>
<!DOCTYPE svg PUBLIC "-//W3C//DTD SVG 1.1//EN"
 "http://www.w3.org/Graphics/SVG/1.1/DTD/svg11.dtd">
<!-- Generated by graphviz version 2.38.0 (20140413.2041)
 -->
<!-- Title: perl6&#45;type&#45;graph Pages: 1 -->
<svg width="278pt" height="188pt"
 viewBox="0.00 0.00 278.34 188.00" xmlns="http://www.w3.org/2000/svg" xmlns:xlink="http://www.w3.org/1999/xlink">
<g id="graph0" class="graph" transform="scale(1 1) rotate(0) translate(4 184)">
<title>perl6&#45;type&#45;graph</title>
<polygon fill="white" stroke="none" points="-4,4 -4,-184 274.342,-184 274.342,4 -4,4"/>
<!-- Sequence -->
<g id="node1" class="node"><title>Sequence</title>
<g id="a_node1"><a xlink:href="/type/Sequence" xlink:title="Sequence">
<ellipse fill="none" stroke="#6666ff" cx="50.0456" cy="-90" rx="50.0912" ry="18"/>
<text text-anchor="middle" x="50.0456" y="-86.3" font-family="FreeSans" font-size="14.00" fill="#6666ff">Sequence</text>
</a>
</g>
</g>
<!-- Mu -->
<g id="node2" class="node"><title>Mu</title>
<g id="a_node2"><a xlink:href="/type/Mu" xlink:title="Mu">
<ellipse fill="none" stroke="#000000" cx="145.046" cy="-162" rx="27" ry="18"/>
<text text-anchor="middle" x="145.046" y="-158.3" font-family="FreeSans" font-size="14.00" fill="#000000">Mu</text>
</a>
</g>
</g>
<!-- Any -->
<g id="node3" class="node"><title>Any</title>
<g id="a_node3"><a xlink:href="/type/Any" xlink:title="Any">
<ellipse fill="none" stroke="#000000" cx="145.046" cy="-90" rx="27" ry="18"/>
<text text-anchor="middle" x="145.046" y="-86.3" font-family="FreeSans" font-size="14.00" fill="#000000">Any</text>
</a>
</g>
</g>
<!-- Any&#45;&gt;Mu -->
<g id="edge1" class="edge"><title>Any&#45;&gt;Mu</title>
<path fill="none" stroke="#000000" d="M145.046,-108.303C145.046,-116.017 145.046,-125.288 145.046,-133.888"/>
<polygon fill="#000000" stroke="#000000" points="141.546,-133.896 145.046,-143.896 148.546,-133.896 141.546,-133.896"/>
</g>
<!-- Iterable -->
<g id="node4" class="node"><title>Iterable</title>
<g id="a_node4"><a xlink:href="/type/Iterable" xlink:title="Iterable">
<ellipse fill="none" stroke="#6666ff" cx="230.046" cy="-90" rx="40.0939" ry="18"/>
<text text-anchor="middle" x="230.046" y="-86.3" font-family="FreeSans" font-size="14.00" fill="#6666ff">Iterable</text>
</a>
</g>
</g>
<!-- HyperSeq -->
<g id="node5" class="node"><title>HyperSeq</title>
<g id="a_node5"><a xlink:href="/type/HyperSeq" xlink:title="HyperSeq">
<ellipse fill="none" stroke="#000000" cx="82.0456" cy="-18" rx="50.0912" ry="18"/>
<text text-anchor="middle" x="82.0456" y="-14.3" font-family="FreeSans" font-size="14.00" fill="#000000">HyperSeq</text>
</a>
</g>
</g>
<!-- HyperSeq&#45;&gt;Sequence -->
<g id="edge5" class="edge"><title>HyperSeq&#45;&gt;Sequence</title>
<path fill="none" stroke="#6666ff" d="M74.2993,-35.945C70.6045,-44.0274 66.1011,-53.8786 61.9823,-62.8883"/>
<polygon fill="#6666ff" stroke="#6666ff" points="58.695,-61.6611 57.7205,-72.211 65.0613,-64.5714 58.695,-61.6611"/>
</g>
<!-- HyperSeq&#45;&gt;Any -->
<g id="edge2" class="edge"><title>HyperSeq&#45;&gt;Any</title>
<path fill="none" stroke="#000000" d="M96.6574,-35.2354C105.115,-44.6332 115.88,-56.5936 125.107,-66.8463"/>
<polygon fill="#000000" stroke="#000000" points="122.509,-69.1915 131.8,-74.283 127.712,-64.5087 122.509,-69.1915"/>
</g>
<!-- HyperSeq&#45;&gt;Iterable -->
<g id="edge4" class="edge"><title>HyperSeq&#45;&gt;Iterable</title>
<path fill="none" stroke="#6666ff" d="M111.286,-32.8297C135.04,-44.0648 168.65,-59.9618 194.056,-71.978"/>
<polygon fill="#6666ff" stroke="#6666ff" points="192.817,-75.2637 203.354,-76.3755 195.81,-68.9358 192.817,-75.2637"/>
</g>
<!-- RaceSeq -->
<g id="node6" class="node"><title>RaceSeq</title>
<g id="a_node6"><a xlink:href="/type/RaceSeq" xlink:title="RaceSeq">
<ellipse fill="none" stroke="#000000" cx="197.046" cy="-18" rx="46.5926" ry="18"/>
<text text-anchor="middle" x="197.046" y="-14.3" font-family="FreeSans" font-size="14.00" fill="#000000">RaceSeq</text>
</a>
</g>
</g>
<!-- RaceSeq&#45;&gt;Sequence -->
<g id="edge7" class="edge"><title>RaceSeq&#45;&gt;Sequence</title>
<path fill="none" stroke="#6666ff" d="M168.702,-32.4967C145.843,-43.3823 113.468,-58.7987 88.3094,-70.7791"/>
<polygon fill="#6666ff" stroke="#6666ff" points="86.5789,-67.7265 79.0551,-75.1859 89.5885,-74.0465 86.5789,-67.7265"/>
</g>
<!-- RaceSeq&#45;&gt;Any -->
<g id="edge3" class="edge"><title>RaceSeq&#45;&gt;Any</title>
<path fill="none" stroke="#000000" d="M184.722,-35.589C178.125,-44.4696 169.886,-55.5609 162.628,-65.3316"/>
<polygon fill="#000000" stroke="#000000" points="159.722,-63.3746 156.568,-73.4892 165.341,-67.5489 159.722,-63.3746"/>
</g>
<!-- RaceSeq&#45;&gt;Iterable -->
<g id="edge6" class="edge"><title>RaceSeq&#45;&gt;Iterable</title>
<path fill="none" stroke="#6666ff" d="M205.034,-35.945C208.844,-44.0274 213.488,-53.8786 217.736,-62.8883"/>
<polygon fill="#6666ff" stroke="#6666ff" points="214.701,-64.6582 222.131,-72.211 221.032,-61.6732 214.701,-64.6582"/>
</g>
</g>
</svg>
