<?xml version="1.0" encoding="UTF-8" standalone="no"?>
<!DOCTYPE svg PUBLIC "-//W3C//DTD SVG 1.1//EN"
 "http://www.w3.org/Graphics/SVG/1.1/DTD/svg11.dtd">
<!-- Generated by graphviz version 2.38.0 (20140413.2041)
 -->
<!-- Title: perl6&#45;type&#45;graph Pages: 1 -->
<svg width="2184pt" height="1182pt"
 viewBox="0.00 0.00 2184.26 1182.48" xmlns="http://www.w3.org/2000/svg" xmlns:xlink="http://www.w3.org/1999/xlink">
<g id="graph0" class="graph" transform="scale(1 1) rotate(0) translate(1101.81 626.861)">
<title>perl6&#45;type&#45;graph</title>
<polygon fill="white" stroke="none" points="-1101.81,555.621 -1101.81,-626.861 1082.45,-626.861 1082.45,555.621 -1101.81,555.621"/>
<!-- Metamodel::Documenting -->
<g id="node1" class="node"><title>Metamodel::Documenting</title>
<g id="a_node1"><a xlink:href="/type/Metamodel::Documenting" xlink:title="Metamodel::Documenting">
<ellipse fill="none" stroke="#6666ff" cx="122.427" cy="-15.2903" rx="111.28" ry="18"/>
<text text-anchor="middle" x="122.427" y="-11.5903" font-family="FreeSans" font-size="14.00" fill="#6666ff">Metamodel::Documenting</text>
</a>
</g>
</g>
<!-- Mu -->
<g id="node2" class="node"><title>Mu</title>
<g id="a_node2"><a xlink:href="/type/Mu" xlink:title="Mu">
<ellipse fill="none" stroke="#000000" cx="1000.84" cy="-5.265" rx="27" ry="18"/>
<text text-anchor="middle" x="1000.84" y="-1.565" font-family="FreeSans" font-size="14.00" fill="#000000">Mu</text>
</a>
</g>
</g>
<!-- Any -->
<g id="node3" class="node"><title>Any</title>
<g id="a_node3"><a xlink:href="/type/Any" xlink:title="Any">
<ellipse fill="none" stroke="#000000" cx="393.176" cy="-27.1279" rx="27" ry="18"/>
<text text-anchor="middle" x="393.176" y="-23.4279" font-family="FreeSans" font-size="14.00" fill="#000000">Any</text>
</a>
</g>
</g>
<!-- Any&#45;&gt;Mu -->
<g id="edge1" class="edge"><title>Any&#45;&gt;Mu</title>
<path fill="none" stroke="#000000" d="M420.467,-26.146C518.233,-22.6285 851.108,-10.6521 963.455,-6.61002"/>
<polygon fill="#000000" stroke="#000000" points="963.756,-10.1016 973.624,-6.24417 963.505,-3.10608 963.756,-10.1016"/>
</g>
<!-- Metamodel::Naming -->
<g id="node4" class="node"><title>Metamodel::Naming</title>
<g id="a_node4"><a xlink:href="/type/Metamodel::Naming" xlink:title="Metamodel::Naming">
<ellipse fill="none" stroke="#6666ff" cx="227.923" cy="-270.526" rx="90.1842" ry="18"/>
<text text-anchor="middle" x="227.923" y="-266.826" font-family="FreeSans" font-size="14.00" fill="#6666ff">Metamodel::Naming</text>
</a>
</g>
</g>
<!-- Metamodel::Versioning -->
<g id="node5" class="node"><title>Metamodel::Versioning</title>
<g id="a_node5"><a xlink:href="/type/Metamodel::Versioning" xlink:title="Metamodel::Versioning">
<ellipse fill="none" stroke="#6666ff" cx="-157.858" cy="-599.735" rx="100.983" ry="18"/>
<text text-anchor="middle" x="-157.858" y="-596.035" font-family="FreeSans" font-size="14.00" fill="#6666ff">Metamodel::Versioning</text>
</a>
</g>
</g>
<!-- Metamodel::MethodContainer -->
<g id="node6" class="node"><title>Metamodel::MethodContainer</title>
<g id="a_node6"><a xlink:href="/type/Metamodel::MethodContainer" xlink:title="Metamodel::MethodContainer">
<ellipse fill="none" stroke="#6666ff" cx="-296.998" cy="-300.232" rx="127.277" ry="18"/>
<text text-anchor="middle" x="-296.998" y="-296.532" font-family="FreeSans" font-size="14.00" fill="#6666ff">Metamodel::MethodContainer</text>
</a>
</g>
</g>
<!-- Metamodel::PrivateMethodContainer -->
<g id="node7" class="node"><title>Metamodel::PrivateMethodContainer</title>
<g id="a_node7"><a xlink:href="/type/Metamodel::PrivateMethodContainer" xlink:title="Metamodel::PrivateMethodContainer">
<ellipse fill="none" stroke="#6666ff" cx="-8.04925" cy="237.083" rx="154.873" ry="18"/>
<text text-anchor="middle" x="-8.04925" y="240.783" font-family="FreeSans" font-size="14.00" fill="#6666ff">Metamodel::PrivateMethodContainer</text>
</a>
</g>
</g>
<!-- Metamodel::MultiMethodContainer -->
<g id="node8" class="node"><title>Metamodel::MultiMethodContainer</title>
<g id="a_node8"><a xlink:href="/type/Metamodel::MultiMethodContainer" xlink:title="Metamodel::MultiMethodContainer">
<ellipse fill="none" stroke="#6666ff" cx="514.426" cy="524.659" rx="146.474" ry="18"/>
<text text-anchor="middle" x="514.426" y="528.359" font-family="FreeSans" font-size="14.00" fill="#6666ff">Metamodel::MultiMethodContainer</text>
</a>
</g>
</g>
<!-- Metamodel::AttributeContainer -->
<g id="node9" class="node"><title>Metamodel::AttributeContainer</title>
<g id="a_node9"><a xlink:href="/type/Metamodel::AttributeContainer" xlink:title="Metamodel::AttributeContainer">
<ellipse fill="none" stroke="#6666ff" cx="-175.757" cy="533.567" rx="129.977" ry="18"/>
<text text-anchor="middle" x="-175.757" y="537.267" font-family="FreeSans" font-size="14.00" fill="#6666ff">Metamodel::AttributeContainer</text>
</a>
</g>
</g>
<!-- Metamodel::RoleContainer -->
<g id="node10" class="node"><title>Metamodel::RoleContainer</title>
<g id="a_node10"><a xlink:href="/type/Metamodel::RoleContainer" xlink:title="Metamodel::RoleContainer">
<ellipse fill="none" stroke="#6666ff" cx="157.02" cy="533.621" rx="115.88" ry="18"/>
<text text-anchor="middle" x="157.02" y="537.321" font-family="FreeSans" font-size="14.00" fill="#6666ff">Metamodel::RoleContainer</text>
</a>
</g>
</g>
<!-- Metamodel::MultipleInheritance -->
<g id="node11" class="node"><title>Metamodel::MultipleInheritance</title>
<g id="a_node11"><a xlink:href="/type/Metamodel::MultipleInheritance" xlink:title="Metamodel::MultipleInheritance">
<ellipse fill="none" stroke="#6666ff" cx="291.695" cy="237.098" rx="133.776" ry="18"/>
<text text-anchor="middle" x="291.695" y="240.798" font-family="FreeSans" font-size="14.00" fill="#6666ff">Metamodel::MultipleInheritance</text>
</a>
</g>
</g>
<!-- Metamodel::Stashing -->
<g id="node12" class="node"><title>Metamodel::Stashing</title>
<g id="a_node12"><a xlink:href="/type/Metamodel::Stashing" xlink:title="Metamodel::Stashing">
<ellipse fill="none" stroke="#6666ff" cx="-21.0424" cy="-296.26" rx="93.6835" ry="18"/>
<text text-anchor="middle" x="-21.0424" y="-292.56" font-family="FreeSans" font-size="14.00" fill="#6666ff">Metamodel::Stashing</text>
</a>
</g>
</g>
<!-- Metamodel::TypePretense -->
<g id="node13" class="node"><title>Metamodel::TypePretense</title>
<g id="a_node13"><a xlink:href="/type/Metamodel::TypePretense" xlink:title="Metamodel::TypePretense">
<ellipse fill="none" stroke="#6666ff" cx="964.059" cy="-507.773" rx="114.28" ry="18"/>
<text text-anchor="middle" x="964.059" y="-504.073" font-family="FreeSans" font-size="14.00" fill="#6666ff">Metamodel::TypePretense</text>
</a>
</g>
</g>
<!-- Metamodel::RolePunning -->
<g id="node14" class="node"><title>Metamodel::RolePunning</title>
<g id="a_node14"><a xlink:href="/type/Metamodel::RolePunning" xlink:title="Metamodel::RolePunning">
<ellipse fill="none" stroke="#6666ff" cx="954.233" cy="465.466" rx="109.681" ry="18"/>
<text text-anchor="middle" x="954.233" y="469.166" font-family="FreeSans" font-size="14.00" fill="#6666ff">Metamodel::RolePunning</text>
</a>
</g>
</g>
<!-- Metamodel::ParametricRoleHOW -->
<g id="node15" class="node"><title>Metamodel::ParametricRoleHOW</title>
<g id="a_node15"><a xlink:href="/type/Metamodel::ParametricRoleHOW" xlink:title="Metamodel::ParametricRoleHOW">
<ellipse fill="none" stroke="#000000" cx="622.457" cy="181.855" rx="142.175" ry="18"/>
<text text-anchor="middle" x="622.457" y="185.555" font-family="FreeSans" font-size="14.00" fill="#000000">Metamodel::ParametricRoleHOW</text>
</a>
</g>
</g>
<!-- Metamodel::ParametricRoleHOW&#45;&gt;Metamodel::Documenting -->
<g id="edge9" class="edge"><title>Metamodel::ParametricRoleHOW&#45;&gt;Metamodel::Documenting</title>
<path fill="none" stroke="#6666ff" d="M578.957,164.705C486.978,128.44 273.111,44.1194 174.248,5.14096"/>
<polygon fill="#6666ff" stroke="#6666ff" points="172.782,8.32535 164.763,1.40133 175.35,1.81322 172.782,8.32535"/>
</g>
<!-- Metamodel::ParametricRoleHOW&#45;&gt;Any -->
<g id="edge2" class="edge"><title>Metamodel::ParametricRoleHOW&#45;&gt;Any</title>
<path fill="none" stroke="#000000" d="M602.51,163.675C560.268,125.172 461.96,35.5667 416.723,-5.66521"/>
<polygon fill="#000000" stroke="#000000" points="414.206,-3.22425 409.173,-12.5474 418.921,-8.39771 414.206,-3.22425"/>
</g>
<!-- Metamodel::ParametricRoleHOW&#45;&gt;Metamodel::Naming -->
<g id="edge8" class="edge"><title>Metamodel::ParametricRoleHOW&#45;&gt;Metamodel::Naming</title>
<path fill="none" stroke="#6666ff" d="M606.747,163.842C545.442,93.5486 322.156,-162.477 250.337,-244.826"/>
<polygon fill="#6666ff" stroke="#6666ff" points="247.613,-242.625 243.678,-252.462 252.888,-247.225 247.613,-242.625"/>
</g>
<!-- Metamodel::ParametricRoleHOW&#45;&gt;Metamodel::Versioning -->
<g id="edge10" class="edge"><title>Metamodel::ParametricRoleHOW&#45;&gt;Metamodel::Versioning</title>
<path fill="none" stroke="#6666ff" d="M605.339,163.613C555.383,110.373 413.284,-41.0659 413.284,-41.0659 413.284,-41.0659 135.982,-270.426 135.982,-270.426 135.982,-270.426 -65.1189,-495.801 -134.588,-573.656"/>
<polygon fill="#6666ff" stroke="#6666ff" points="-137.595,-571.769 -141.641,-581.56 -132.372,-576.429 -137.595,-571.769"/>
</g>
<!-- Metamodel::ParametricRoleHOW&#45;&gt;Metamodel::MethodContainer -->
<g id="edge11" class="edge"><title>Metamodel::ParametricRoleHOW&#45;&gt;Metamodel::MethodContainer</title>
<path fill="none" stroke="#6666ff" d="M588.916,164.269C447.684,90.2189 -98.5339,-196.173 -254.935,-278.177"/>
<polygon fill="#6666ff" stroke="#6666ff" points="-256.58,-275.088 -263.811,-282.831 -253.329,-281.287 -256.58,-275.088"/>
</g>
<!-- Metamodel::ParametricRoleHOW&#45;&gt;Metamodel::PrivateMethodContainer -->
<g id="edge12" class="edge"><title>Metamodel::ParametricRoleHOW&#45;&gt;Metamodel::PrivateMethodContainer</title>
<path fill="none" stroke="#6666ff" d="M505.341,192.114C397.743,201.539 238.361,215.499 125.777,225.361"/>
<polygon fill="#6666ff" stroke="#6666ff" points="125.981,228.856 115.714,226.242 125.37,221.883 125.981,228.856"/>
</g>
<!-- Metamodel::ParametricRoleHOW&#45;&gt;Metamodel::MultiMethodContainer -->
<g id="edge13" class="edge"><title>Metamodel::ParametricRoleHOW&#45;&gt;Metamodel::MultiMethodContainer</title>
<path fill="none" stroke="#6666ff" d="M616.648,200.286C598.765,257.034 544.458,429.361 523.144,496.995"/>
<polygon fill="#6666ff" stroke="#6666ff" points="526.476,498.067 520.132,506.553 519.8,495.963 526.476,498.067"/>
</g>
<!-- Metamodel::ParametricRoleHOW&#45;&gt;Metamodel::AttributeContainer -->
<g id="edge14" class="edge"><title>Metamodel::ParametricRoleHOW&#45;&gt;Metamodel::AttributeContainer</title>
<path fill="none" stroke="#6666ff" d="M583.145,199.177C450.347,257.691 18.5787,447.938 -127.183,512.164"/>
<polygon fill="#6666ff" stroke="#6666ff" points="-125.802,515.38 -136.365,516.209 -128.625,508.974 -125.802,515.38"/>
</g>
<!-- Metamodel::ParametricRoleHOW&#45;&gt;Metamodel::RoleContainer -->
<g id="edge15" class="edge"><title>Metamodel::ParametricRoleHOW&#45;&gt;Metamodel::RoleContainer</title>
<path fill="none" stroke="#6666ff" d="M598.736,199.783C521.377,258.249 276.367,443.421 188.644,509.72"/>
<polygon fill="#6666ff" stroke="#6666ff" points="190.504,512.701 180.416,515.939 186.283,507.117 190.504,512.701"/>
</g>
<!-- Metamodel::ParametricRoleHOW&#45;&gt;Metamodel::MultipleInheritance -->
<g id="edge16" class="edge"><title>Metamodel::ParametricRoleHOW&#45;&gt;Metamodel::MultipleInheritance</title>
<path fill="none" stroke="#6666ff" d="M536.416,196.225C490.222,203.94 433.204,213.463 385.83,221.376"/>
<polygon fill="#6666ff" stroke="#6666ff" points="386.314,224.843 375.874,223.038 385.161,217.939 386.314,224.843"/>
</g>
<!-- Metamodel::ParametricRoleHOW&#45;&gt;Metamodel::Stashing -->
<g id="edge17" class="edge"><title>Metamodel::ParametricRoleHOW&#45;&gt;Metamodel::Stashing</title>
<path fill="none" stroke="#6666ff" d="M598.405,163.985C499.338,90.3787 122.821,-189.371 10.666,-272.701"/>
<polygon fill="#6666ff" stroke="#6666ff" points="8.38775,-270.034 2.44821,-278.807 12.5625,-275.652 8.38775,-270.034"/>
</g>
<!-- Metamodel::ParametricRoleHOW&#45;&gt;Metamodel::TypePretense -->
<g id="edge18" class="edge"><title>Metamodel::ParametricRoleHOW&#45;&gt;Metamodel::TypePretense</title>
<path fill="none" stroke="#6666ff" d="M631.806,163.421C667.928,92.2043 796.36,-161.011 796.36,-161.011 796.36,-161.011 911.243,-398.563 950.836,-480.432"/>
<polygon fill="#6666ff" stroke="#6666ff" points="947.774,-482.139 955.278,-489.618 954.076,-479.091 947.774,-482.139"/>
</g>
<!-- Metamodel::ParametricRoleHOW&#45;&gt;Metamodel::RolePunning -->
<g id="edge19" class="edge"><title>Metamodel::ParametricRoleHOW&#45;&gt;Metamodel::RolePunning</title>
<path fill="none" stroke="#6666ff" d="M643.462,199.811C700.835,248.855 860.26,385.136 925.671,441.05"/>
<polygon fill="#6666ff" stroke="#6666ff" points="928.205,438.612 933.532,447.77 923.657,443.933 928.205,438.612"/>
</g>
<!-- Metamodel::SubsetHOW -->
<g id="node16" class="node"><title>Metamodel::SubsetHOW</title>
<g id="a_node16"><a xlink:href="/type/Metamodel::SubsetHOW" xlink:title="Metamodel::SubsetHOW">
<ellipse fill="none" stroke="#000000" cx="685.574" cy="-160.827" rx="109.381" ry="18"/>
<text text-anchor="middle" x="685.574" y="-157.127" font-family="FreeSans" font-size="14.00" fill="#000000">Metamodel::SubsetHOW</text>
</a>
</g>
</g>
<!-- Metamodel::SubsetHOW&#45;&gt;Metamodel::Documenting -->
<g id="edge21" class="edge"><title>Metamodel::SubsetHOW&#45;&gt;Metamodel::Documenting</title>
<path fill="none" stroke="#6666ff" d="M626.637,-145.596C521.775,-118.496 303.347,-62.0465 191.571,-33.1595"/>
<polygon fill="#6666ff" stroke="#6666ff" points="192.306,-29.7345 181.748,-30.6209 190.554,-36.5118 192.306,-29.7345"/>
</g>
<!-- Metamodel::SubsetHOW&#45;&gt;Any -->
<g id="edge3" class="edge"><title>Metamodel::SubsetHOW&#45;&gt;Any</title>
<path fill="none" stroke="#000000" d="M648.245,-143.759C590.15,-117.194 479.141,-66.4356 424.77,-41.574"/>
<polygon fill="#000000" stroke="#000000" points="426.162,-38.3621 415.612,-37.3867 423.251,-44.7282 426.162,-38.3621"/>
</g>
<!-- Metamodel::SubsetHOW&#45;&gt;Metamodel::Naming -->
<g id="edge20" class="edge"><title>Metamodel::SubsetHOW&#45;&gt;Metamodel::Naming</title>
<path fill="none" stroke="#6666ff" d="M623.377,-175.736C537.836,-196.24 384.442,-233.009 295.941,-254.222"/>
<polygon fill="#6666ff" stroke="#6666ff" points="294.915,-250.869 286.006,-256.604 296.546,-257.676 294.915,-250.869"/>
</g>
<!-- Metamodel::C3MRO -->
<g id="node17" class="node"><title>Metamodel::C3MRO</title>
<g id="a_node17"><a xlink:href="/type/Metamodel::C3MRO" xlink:title="Metamodel::C3MRO">
<ellipse fill="none" stroke="#6666ff" cx="-299.97" cy="229.53" rx="92.0841" ry="18"/>
<text text-anchor="middle" x="-299.97" y="233.23" font-family="FreeSans" font-size="14.00" fill="#6666ff">Metamodel::C3MRO</text>
</a>
</g>
</g>
<!-- Metamodel::MROBasedMethodDispatch -->
<g id="node18" class="node"><title>Metamodel::MROBasedMethodDispatch</title>
<g id="a_node18"><a xlink:href="/type/Metamodel::MROBasedMethodDispatch" xlink:title="Metamodel::MROBasedMethodDispatch">
<ellipse fill="none" stroke="#6666ff" cx="-606.923" cy="-223.722" rx="169.77" ry="18"/>
<text text-anchor="middle" x="-606.923" y="-220.022" font-family="FreeSans" font-size="14.00" fill="#6666ff">Metamodel::MROBasedMethodDispatch</text>
</a>
</g>
</g>
<!-- Metamodel::MROBasedTypeChecking -->
<g id="node19" class="node"><title>Metamodel::MROBasedTypeChecking</title>
<g id="a_node19"><a xlink:href="/type/Metamodel::MROBasedTypeChecking" xlink:title="Metamodel::MROBasedTypeChecking">
<ellipse fill="none" stroke="#6666ff" cx="-612.315" cy="141.534" rx="163.271" ry="18"/>
<text text-anchor="middle" x="-612.315" y="145.234" font-family="FreeSans" font-size="14.00" fill="#6666ff">Metamodel::MROBasedTypeChecking</text>
</a>
</g>
</g>
<!-- Metamodel::NativeHOW -->
<g id="node20" class="node"><title>Metamodel::NativeHOW</title>
<g id="a_node20"><a xlink:href="/type/Metamodel::NativeHOW" xlink:title="Metamodel::NativeHOW">
<ellipse fill="none" stroke="#000000" cx="-127.203" cy="-30.1517" rx="107.482" ry="18"/>
<text text-anchor="middle" x="-127.203" y="-26.4517" font-family="FreeSans" font-size="14.00" fill="#000000">Metamodel::NativeHOW</text>
</a>
</g>
</g>
<!-- Metamodel::NativeHOW&#45;&gt;Metamodel::Documenting -->
<g id="edge23" class="edge"><title>Metamodel::NativeHOW&#45;&gt;Metamodel::Documenting</title>
<path fill="none" stroke="#6666ff" d="M-26.0284,-24.1284C-14.9566,-23.4693 -3.6273,-22.7948 7.59376,-22.1268"/>
<polygon fill="#6666ff" stroke="#6666ff" points="8.08359,-25.6039 17.8579,-21.5157 7.66752,-18.6163 8.08359,-25.6039"/>
</g>
<!-- Metamodel::NativeHOW&#45;&gt;Any -->
<g id="edge4" class="edge"><title>Metamodel::NativeHOW&#45;&gt;Any</title>
<path fill="none" stroke="#000000" d="M-20.5116,-32.1818C47.0769,-33.4678 121.818,-34.89 121.818,-34.89 121.818,-34.89 281.442,-30.324 355.837,-28.1959"/>
<polygon fill="#000000" stroke="#000000" points="356.27,-31.6851 366.165,-27.9005 356.069,-24.688 356.27,-31.6851"/>
</g>
<!-- Metamodel::NativeHOW&#45;&gt;Metamodel::Naming -->
<g id="edge22" class="edge"><title>Metamodel::NativeHOW&#45;&gt;Metamodel::Naming</title>
<path fill="none" stroke="#6666ff" d="M-101.377,-47.6324C-38.4675,-90.2139 122.731,-199.324 193.61,-247.3"/>
<polygon fill="#6666ff" stroke="#6666ff" points="191.951,-250.404 202.194,-253.111 195.875,-244.607 191.951,-250.404"/>
</g>
<!-- Metamodel::NativeHOW&#45;&gt;Metamodel::Versioning -->
<g id="edge24" class="edge"><title>Metamodel::NativeHOW&#45;&gt;Metamodel::Versioning</title>
<path fill="none" stroke="#6666ff" d="M-128.188,-48.4576C-132.642,-131.224 -150.917,-470.775 -156.337,-571.465"/>
<polygon fill="#6666ff" stroke="#6666ff" points="-159.834,-571.323 -156.876,-581.497 -152.844,-571.699 -159.834,-571.323"/>
</g>
<!-- Metamodel::NativeHOW&#45;&gt;Metamodel::MultipleInheritance -->
<g id="edge26" class="edge"><title>Metamodel::NativeHOW&#45;&gt;Metamodel::MultipleInheritance</title>
<path fill="none" stroke="#6666ff" d="M-99.7175,-12.6167C-26.5721,34.0488 172.876,161.293 255.302,213.88"/>
<polygon fill="#6666ff" stroke="#6666ff" points="257.287,210.994 263.834,219.323 253.522,216.895 257.287,210.994"/>
</g>
<!-- Metamodel::NativeHOW&#45;&gt;Metamodel::Stashing -->
<g id="edge25" class="edge"><title>Metamodel::NativeHOW&#45;&gt;Metamodel::Stashing</title>
<path fill="none" stroke="#6666ff" d="M-119.906,-48.4424C-101.604,-94.3184 -53.6695,-214.475 -31.9811,-268.841"/>
<polygon fill="#6666ff" stroke="#6666ff" points="-35.2062,-270.202 -28.2499,-278.194 -28.7045,-267.608 -35.2062,-270.202"/>
</g>
<!-- Metamodel::NativeHOW&#45;&gt;Metamodel::C3MRO -->
<g id="edge27" class="edge"><title>Metamodel::NativeHOW&#45;&gt;Metamodel::C3MRO</title>
<path fill="none" stroke="#6666ff" d="M-139.351,-11.8913C-169.411,33.2902 -247.361,150.455 -282.427,203.161"/>
<polygon fill="#6666ff" stroke="#6666ff" points="-279.611,205.248 -288.064,211.635 -285.439,201.371 -279.611,205.248"/>
</g>
<!-- Metamodel::NativeHOW&#45;&gt;Metamodel::MROBasedMethodDispatch -->
<g id="edge28" class="edge"><title>Metamodel::NativeHOW&#45;&gt;Metamodel::MROBasedMethodDispatch</title>
<path fill="none" stroke="#6666ff" d="M-168.518,-46.8229C-255.53,-81.9325 -457.544,-163.447 -553.922,-202.336"/>
<polygon fill="#6666ff" stroke="#6666ff" points="-555.505,-199.2 -563.469,-206.188 -552.886,-205.692 -555.505,-199.2"/>
</g>
<!-- Metamodel::NativeHOW&#45;&gt;Metamodel::MROBasedTypeChecking -->
<g id="edge29" class="edge"><title>Metamodel::NativeHOW&#45;&gt;Metamodel::MROBasedTypeChecking</title>
<path fill="none" stroke="#6666ff" d="M-173.278,-13.8452C-261.996,17.553 -456.38,86.3471 -553.976,120.887"/>
<polygon fill="#6666ff" stroke="#6666ff" points="-553.086,124.285 -563.681,124.322 -555.421,117.686 -553.086,124.285"/>
</g>
<!-- Metamodel::MethodDelegation -->
<g id="node21" class="node"><title>Metamodel::MethodDelegation</title>
<g id="a_node21"><a xlink:href="/type/Metamodel::MethodDelegation" xlink:title="Metamodel::MethodDelegation">
<ellipse fill="none" stroke="#6666ff" cx="543.817" cy="-604.861" rx="131.077" ry="18"/>
<text text-anchor="middle" x="543.817" y="-601.161" font-family="FreeSans" font-size="14.00" fill="#6666ff">Metamodel::MethodDelegation</text>
</a>
</g>
</g>
<!-- Metamodel::ModuleHOW -->
<g id="node22" class="node"><title>Metamodel::ModuleHOW</title>
<g id="a_node22"><a xlink:href="/type/Metamodel::ModuleHOW" xlink:title="Metamodel::ModuleHOW">
<ellipse fill="none" stroke="#000000" cx="179.871" cy="-590.994" rx="111.28" ry="18"/>
<text text-anchor="middle" x="179.871" y="-587.294" font-family="FreeSans" font-size="14.00" fill="#000000">Metamodel::ModuleHOW</text>
</a>
</g>
</g>
<!-- Metamodel::ModuleHOW&#45;&gt;Metamodel::Documenting -->
<g id="edge31" class="edge"><title>Metamodel::ModuleHOW&#45;&gt;Metamodel::Documenting</title>
<path fill="none" stroke="#6666ff" d="M177.385,-572.84C168.101,-505.026 135.982,-270.426 135.982,-270.426 135.982,-270.426 127.483,-110.447 123.945,-43.8496"/>
<polygon fill="#6666ff" stroke="#6666ff" points="127.428,-43.4392 123.402,-33.639 120.438,-43.8107 127.428,-43.4392"/>
</g>
<!-- Metamodel::ModuleHOW&#45;&gt;Any -->
<g id="edge5" class="edge"><title>Metamodel::ModuleHOW&#45;&gt;Any</title>
<path fill="none" stroke="#000000" d="M187.798,-572.852C217.413,-505.08 319.864,-270.626 319.864,-270.626 319.864,-270.626 365.619,-118.657 384.835,-54.8314"/>
<polygon fill="#000000" stroke="#000000" points="388.254,-55.6173 387.785,-45.0328 381.551,-53.5992 388.254,-55.6173"/>
</g>
<!-- Metamodel::ModuleHOW&#45;&gt;Metamodel::Naming -->
<g id="edge30" class="edge"><title>Metamodel::ModuleHOW&#45;&gt;Metamodel::Naming</title>
<path fill="none" stroke="#6666ff" d="M182.592,-572.846C190.568,-519.65 213.938,-363.791 223.633,-299.139"/>
<polygon fill="#6666ff" stroke="#6666ff" points="227.15,-299.281 225.172,-288.872 220.228,-298.243 227.15,-299.281"/>
</g>
<!-- Metamodel::ModuleHOW&#45;&gt;Metamodel::Versioning -->
<g id="edge32" class="edge"><title>Metamodel::ModuleHOW&#45;&gt;Metamodel::Versioning</title>
<path fill="none" stroke="#6666ff" d="M69.7529,-593.844C32.0271,-594.82 -10.1676,-595.912 -47.8821,-596.888"/>
<polygon fill="#6666ff" stroke="#6666ff" points="-47.973,-593.389 -57.8791,-597.147 -47.7919,-600.387 -47.973,-593.389"/>
</g>
<!-- Metamodel::ModuleHOW&#45;&gt;Metamodel::Stashing -->
<g id="edge33" class="edge"><title>Metamodel::ModuleHOW&#45;&gt;Metamodel::Stashing</title>
<path fill="none" stroke="#6666ff" d="M167.605,-573.001C133.488,-522.952 37.3413,-381.908 -2.93673,-322.821"/>
<polygon fill="#6666ff" stroke="#6666ff" points="-0.15748,-320.684 -8.68208,-314.393 -5.94147,-324.627 -0.15748,-320.684"/>
</g>
<!-- Metamodel::ModuleHOW&#45;&gt;Metamodel::TypePretense -->
<g id="edge34" class="edge"><title>Metamodel::ModuleHOW&#45;&gt;Metamodel::TypePretense</title>
<path fill="none" stroke="#6666ff" d="M272.907,-581.121C419.893,-565.522 704.928,-535.273 859.046,-518.917"/>
<polygon fill="#6666ff" stroke="#6666ff" points="859.43,-522.396 869.005,-517.86 858.691,-515.435 859.43,-522.396"/>
</g>
<!-- Metamodel::ModuleHOW&#45;&gt;Metamodel::MethodDelegation -->
<g id="edge35" class="edge"><title>Metamodel::ModuleHOW&#45;&gt;Metamodel::MethodDelegation</title>
<path fill="none" stroke="#6666ff" d="M288.081,-595.117C325.379,-596.538 367.654,-598.149 406.936,-599.646"/>
<polygon fill="#6666ff" stroke="#6666ff" points="406.996,-603.151 417.122,-600.034 407.262,-596.156 406.996,-603.151"/>
</g>
<!-- Metamodel::PackageHOW -->
<g id="node23" class="node"><title>Metamodel::PackageHOW</title>
<g id="a_node23"><a xlink:href="/type/Metamodel::PackageHOW" xlink:title="Metamodel::PackageHOW">
<ellipse fill="none" stroke="#000000" cx="476.912" cy="-318.197" rx="116.18" ry="18"/>
<text text-anchor="middle" x="476.912" y="-314.497" font-family="FreeSans" font-size="14.00" fill="#000000">Metamodel::PackageHOW</text>
</a>
</g>
</g>
<!-- Metamodel::PackageHOW&#45;&gt;Metamodel::Documenting -->
<g id="edge37" class="edge"><title>Metamodel::PackageHOW&#45;&gt;Metamodel::Documenting</title>
<path fill="none" stroke="#6666ff" d="M456.061,-300.38C395.736,-248.832 220.913,-99.4465 151.414,-40.0593"/>
<polygon fill="#6666ff" stroke="#6666ff" points="153.352,-37.1112 143.475,-33.2757 148.804,-42.433 153.352,-37.1112"/>
</g>
<!-- Metamodel::PackageHOW&#45;&gt;Any -->
<g id="edge6" class="edge"><title>Metamodel::PackageHOW&#45;&gt;Any</title>
<path fill="none" stroke="#000000" d="M471.674,-299.989C457.454,-250.561 418.063,-113.635 401.107,-54.6943"/>
<polygon fill="#000000" stroke="#000000" points="404.434,-53.5996 398.305,-44.957 397.707,-55.5349 404.434,-53.5996"/>
</g>
<!-- Metamodel::PackageHOW&#45;&gt;Metamodel::Naming -->
<g id="edge36" class="edge"><title>Metamodel::PackageHOW&#45;&gt;Metamodel::Naming</title>
<path fill="none" stroke="#6666ff" d="M403.554,-304.152C371.97,-298.105 335.073,-291.041 303.271,-284.952"/>
<polygon fill="#6666ff" stroke="#6666ff" points="303.618,-281.455 293.139,-283.012 302.302,-288.33 303.618,-281.455"/>
</g>
<!-- Metamodel::PackageHOW&#45;&gt;Metamodel::Stashing -->
<g id="edge38" class="edge"><title>Metamodel::PackageHOW&#45;&gt;Metamodel::Stashing</title>
<path fill="none" stroke="#6666ff" d="M364.851,-313.26C279.504,-309.5 163.004,-304.368 80.3984,-300.729"/>
<polygon fill="#6666ff" stroke="#6666ff" points="80.3881,-297.225 70.2437,-300.282 80.0799,-304.219 80.3881,-297.225"/>
</g>
<!-- Metamodel::PackageHOW&#45;&gt;Metamodel::TypePretense -->
<g id="edge39" class="edge"><title>Metamodel::PackageHOW&#45;&gt;Metamodel::TypePretense</title>
<path fill="none" stroke="#6666ff" d="M520.143,-335.021C609.518,-369.801 814.36,-449.517 911.325,-487.251"/>
<polygon fill="#6666ff" stroke="#6666ff" points="910.336,-490.622 920.924,-490.987 912.875,-484.099 910.336,-490.622"/>
</g>
<!-- Metamodel::PackageHOW&#45;&gt;Metamodel::MethodDelegation -->
<g id="edge40" class="edge"><title>Metamodel::PackageHOW&#45;&gt;Metamodel::MethodDelegation</title>
<path fill="none" stroke="#6666ff" d="M481.199,-336.565C492.575,-385.309 523.588,-518.189 537.229,-576.636"/>
<polygon fill="#6666ff" stroke="#6666ff" points="533.884,-577.703 539.565,-586.646 540.701,-576.112 533.884,-577.703"/>
</g>
<!-- Metamodel::Finalization -->
<g id="node24" class="node"><title>Metamodel::Finalization</title>
<g id="a_node24"><a xlink:href="/type/Metamodel::Finalization" xlink:title="Metamodel::Finalization">
<ellipse fill="none" stroke="#6666ff" cx="-949.639" cy="-563.323" rx="103.982" ry="18"/>
<text text-anchor="middle" x="-949.639" y="-559.623" font-family="FreeSans" font-size="14.00" fill="#6666ff">Metamodel::Finalization</text>
</a>
</g>
</g>
<!-- Metamodel::DefaultParent -->
<g id="node25" class="node"><title>Metamodel::DefaultParent</title>
<g id="a_node25"><a xlink:href="/type/Metamodel::DefaultParent" xlink:title="Metamodel::DefaultParent">
<ellipse fill="none" stroke="#6666ff" cx="-984.717" cy="-193.621" rx="113.18" ry="18"/>
<text text-anchor="middle" x="-984.717" y="-189.921" font-family="FreeSans" font-size="14.00" fill="#6666ff">Metamodel::DefaultParent</text>
</a>
</g>
</g>
<!-- Metamodel::Trusting -->
<g id="node26" class="node"><title>Metamodel::Trusting</title>
<g id="a_node26"><a xlink:href="/type/Metamodel::Trusting" xlink:title="Metamodel::Trusting">
<ellipse fill="none" stroke="#6666ff" cx="-520.564" cy="509.667" rx="91.784" ry="18"/>
<text text-anchor="middle" x="-520.564" y="513.367" font-family="FreeSans" font-size="14.00" fill="#6666ff">Metamodel::Trusting</text>
</a>
</g>
</g>
<!-- Metamodel::BUILDPLAN -->
<g id="node27" class="node"><title>Metamodel::BUILDPLAN</title>
<g id="a_node27"><a xlink:href="/type/Metamodel::BUILDPLAN" xlink:title="Metamodel::BUILDPLAN">
<ellipse fill="none" stroke="#6666ff" cx="-511.769" cy="-580.556" rx="109.681" ry="18"/>
<text text-anchor="middle" x="-511.769" y="-576.856" font-family="FreeSans" font-size="14.00" fill="#6666ff">Metamodel::BUILDPLAN</text>
</a>
</g>
</g>
<!-- Metamodel::Mixins -->
<g id="node28" class="node"><title>Metamodel::Mixins</title>
<g id="a_node28"><a xlink:href="/type/Metamodel::Mixins" xlink:title="Metamodel::Mixins">
<ellipse fill="none" stroke="#6666ff" cx="-990.688" cy="135.778" rx="85.2851" ry="18"/>
<text text-anchor="middle" x="-990.688" y="139.478" font-family="FreeSans" font-size="14.00" fill="#6666ff">Metamodel::Mixins</text>
</a>
</g>
</g>
<!-- Metamodel::BoolificationProtocol -->
<g id="node29" class="node"><title>Metamodel::BoolificationProtocol</title>
<g id="a_node29"><a xlink:href="/type/Metamodel::BoolificationProtocol" xlink:title="Metamodel::BoolificationProtocol">
<ellipse fill="none" stroke="#6666ff" cx="-949.591" cy="501.546" rx="139.175" ry="18"/>
<text text-anchor="middle" x="-949.591" y="505.246" font-family="FreeSans" font-size="14.00" fill="#6666ff">Metamodel::BoolificationProtocol</text>
</a>
</g>
</g>
<!-- Metamodel::ClassHOW -->
<g id="node30" class="node"><title>Metamodel::ClassHOW</title>
<g id="a_node30"><a xlink:href="/type/Metamodel::ClassHOW" xlink:title="Metamodel::ClassHOW">
<ellipse fill="none" stroke="#000000" cx="-379.625" cy="-36.6033" rx="103.982" ry="18"/>
<text text-anchor="middle" x="-379.625" y="-32.9033" font-family="FreeSans" font-size="14.00" fill="#000000">Metamodel::ClassHOW</text>
</a>
</g>
</g>
<!-- Metamodel::ClassHOW&#45;&gt;Metamodel::Documenting -->
<g id="edge42" class="edge"><title>Metamodel::ClassHOW&#45;&gt;Metamodel::Documenting</title>
<path fill="none" stroke="#6666ff" d="M-292.963,-26.5578C-248.563,-21.4111 -203.725,-16.2136 -203.725,-16.2136 -203.725,-16.2136 -126.582,-10.552 -126.582,-10.552 -126.582,-10.552 -61.8571,-11.7836 1.59522,-12.991"/>
<polygon fill="#6666ff" stroke="#6666ff" points="1.69308,-16.4934 11.7579,-13.1844 1.82632,-9.49469 1.69308,-16.4934"/>
</g>
<!-- Metamodel::ClassHOW&#45;&gt;Any -->
<g id="edge7" class="edge"><title>Metamodel::ClassHOW&#45;&gt;Any</title>
<path fill="none" stroke="#000000" d="M-279.744,-41.8187C-209.443,-45.4895 -127.823,-49.7514 -127.823,-49.7514 -127.823,-49.7514 236.383,-33.9363 355.774,-28.752"/>
<polygon fill="#000000" stroke="#000000" points="356.06,-32.243 365.899,-28.3123 355.756,-25.2496 356.06,-32.243"/>
</g>
<!-- Metamodel::ClassHOW&#45;&gt;Metamodel::Naming -->
<g id="edge41" class="edge"><title>Metamodel::ClassHOW&#45;&gt;Metamodel::Naming</title>
<path fill="none" stroke="#6666ff" d="M-336.903,-53.0523C-228.14,-94.9293 58.9194,-205.455 176.544,-250.744"/>
<polygon fill="#6666ff" stroke="#6666ff" points="175.465,-254.079 186.055,-254.406 177.981,-247.546 175.465,-254.079"/>
</g>
<!-- Metamodel::ClassHOW&#45;&gt;Metamodel::Versioning -->
<g id="edge43" class="edge"><title>Metamodel::ClassHOW&#45;&gt;Metamodel::Versioning</title>
<path fill="none" stroke="#6666ff" d="M-365.08,-54.7248C-317.27,-114.29 -168.01,-300.249 -168.01,-300.249 -168.01,-300.249 -161.353,-496.637 -158.82,-571.349"/>
<polygon fill="#6666ff" stroke="#6666ff" points="-162.315,-571.576 -158.478,-581.451 -155.319,-571.338 -162.315,-571.576"/>
</g>
<!-- Metamodel::ClassHOW&#45;&gt;Metamodel::MethodContainer -->
<g id="edge47" class="edge"><title>Metamodel::ClassHOW&#45;&gt;Metamodel::MethodContainer</title>
<path fill="none" stroke="#6666ff" d="M-373.946,-54.7236C-359.765,-99.9684 -322.726,-218.144 -305.74,-272.34"/>
<polygon fill="#6666ff" stroke="#6666ff" points="-309.048,-273.489 -302.717,-281.985 -302.368,-271.396 -309.048,-273.489"/>
</g>
<!-- Metamodel::ClassHOW&#45;&gt;Metamodel::PrivateMethodContainer -->
<g id="edge48" class="edge"><title>Metamodel::ClassHOW&#45;&gt;Metamodel::PrivateMethodContainer</title>
<path fill="none" stroke="#6666ff" d="M-355.816,-19.0667C-291.631,28.209 -114.898,158.383 -41.1008,212.739"/>
<polygon fill="#6666ff" stroke="#6666ff" points="-38.6019,210.233 -32.6259,218.981 -42.7533,215.869 -38.6019,210.233"/>
</g>
<!-- Metamodel::ClassHOW&#45;&gt;Metamodel::MultiMethodContainer -->
<g id="edge49" class="edge"><title>Metamodel::ClassHOW&#45;&gt;Metamodel::MultiMethodContainer</title>
<path fill="none" stroke="#6666ff" d="M-346.605,-19.4865C-231.043,40.4182 148.236,237.028 148.236,237.028 148.236,237.028 395.164,430.982 483.481,500.352"/>
<polygon fill="#6666ff" stroke="#6666ff" points="485.817,497.737 491.52,506.666 481.493,503.242 485.817,497.737"/>
</g>
<!-- Metamodel::ClassHOW&#45;&gt;Metamodel::AttributeContainer -->
<g id="edge45" class="edge"><title>Metamodel::ClassHOW&#45;&gt;Metamodel::AttributeContainer</title>
<path fill="none" stroke="#6666ff" d="M-367.696,-18.3135C-328.487,41.805 -206.078,229.492 -206.078,229.492 -206.078,229.492 -186.104,429.807 -178.579,505.267"/>
<polygon fill="#6666ff" stroke="#6666ff" points="-175.073,505.158 -177.563,515.456 -182.038,505.853 -175.073,505.158"/>
</g>
<!-- Metamodel::ClassHOW&#45;&gt;Metamodel::RoleContainer -->
<g id="edge50" class="edge"><title>Metamodel::ClassHOW&#45;&gt;Metamodel::RoleContainer</title>
<path fill="none" stroke="#6666ff" d="M-365.499,-18.6424C-317.603,42.2578 -164.335,237.138 -164.335,237.138 -164.335,237.138 52.4822,437.174 129.929,508.627"/>
<polygon fill="#6666ff" stroke="#6666ff" points="132.425,506.168 137.401,515.521 127.678,511.312 132.425,506.168"/>
</g>
<!-- Metamodel::ClassHOW&#45;&gt;Metamodel::MultipleInheritance -->
<g id="edge51" class="edge"><title>Metamodel::ClassHOW&#45;&gt;Metamodel::MultipleInheritance</title>
<path fill="none" stroke="#6666ff" d="M-338.892,-19.9964C-222.493,27.4602 111.465,163.617 240.214,216.109"/>
<polygon fill="#6666ff" stroke="#6666ff" points="241.55,212.873 249.488,219.89 238.907,219.355 241.55,212.873"/>
</g>
<!-- Metamodel::ClassHOW&#45;&gt;Metamodel::Stashing -->
<g id="edge44" class="edge"><title>Metamodel::ClassHOW&#45;&gt;Metamodel::Stashing</title>
<path fill="none" stroke="#6666ff" d="M-355.26,-54.2465C-292.398,-99.766 -124.704,-221.197 -53.6174,-272.672"/>
<polygon fill="#6666ff" stroke="#6666ff" points="-55.5931,-275.563 -45.4408,-278.593 -51.4876,-269.893 -55.5931,-275.563"/>
</g>
<!-- Metamodel::ClassHOW&#45;&gt;Metamodel::C3MRO -->
<g id="edge53" class="edge"><title>Metamodel::ClassHOW&#45;&gt;Metamodel::C3MRO</title>
<path fill="none" stroke="#6666ff" d="M-374.15,-18.3109C-360.446,27.4742 -324.6,147.239 -308.279,201.769"/>
<polygon fill="#6666ff" stroke="#6666ff" points="-304.892,200.878 -305.378,211.462 -311.599,202.885 -304.892,200.878"/>
</g>
<!-- Metamodel::ClassHOW&#45;&gt;Metamodel::MROBasedMethodDispatch -->
<g id="edge54" class="edge"><title>Metamodel::ClassHOW&#45;&gt;Metamodel::MROBasedMethodDispatch</title>
<path fill="none" stroke="#6666ff" d="M-401.419,-54.5451C-442.404,-88.2853 -530.994,-161.214 -577.326,-199.357"/>
<polygon fill="#6666ff" stroke="#6666ff" points="-579.699,-196.777 -585.195,-205.835 -575.25,-202.181 -579.699,-196.777"/>
</g>
<!-- Metamodel::ClassHOW&#45;&gt;Metamodel::MROBasedTypeChecking -->
<g id="edge55" class="edge"><title>Metamodel::ClassHOW&#45;&gt;Metamodel::MROBasedTypeChecking</title>
<path fill="none" stroke="#6666ff" d="M-402.787,-18.8716C-444.754,13.2566 -533.403,81.1227 -580.824,117.426"/>
<polygon fill="#6666ff" stroke="#6666ff" points="-578.833,120.309 -588.901,123.609 -583.088,114.751 -578.833,120.309"/>
</g>
<!-- Metamodel::ClassHOW&#45;&gt;Metamodel::Finalization -->
<g id="edge46" class="edge"><title>Metamodel::ClassHOW&#45;&gt;Metamodel::Finalization</title>
<path fill="none" stroke="#6666ff" d="M-385.103,-54.8971C-399.211,-102.01 -435.691,-223.838 -435.691,-223.838 -435.691,-223.838 -798.687,-463.613 -914.548,-540.144"/>
<polygon fill="#6666ff" stroke="#6666ff" points="-916.674,-537.354 -923.089,-545.786 -912.816,-543.195 -916.674,-537.354"/>
</g>
<!-- Metamodel::ClassHOW&#45;&gt;Metamodel::DefaultParent -->
<g id="edge52" class="edge"><title>Metamodel::ClassHOW&#45;&gt;Metamodel::DefaultParent</title>
<path fill="none" stroke="#6666ff" d="M-437.369,-51.5877C-549.282,-80.6285 -795.257,-144.458 -915.624,-175.692"/>
<polygon fill="#6666ff" stroke="#6666ff" points="-916.671,-172.348 -925.472,-178.248 -914.913,-179.124 -916.671,-172.348"/>
</g>
<!-- Metamodel::ClassHOW&#45;&gt;Metamodel::Trusting -->
<g id="edge56" class="edge"><title>Metamodel::ClassHOW&#45;&gt;Metamodel::Trusting</title>
<path fill="none" stroke="#6666ff" d="M-384.314,-18.428C-405.006,61.7728 -488.227,384.33 -513.348,481.699"/>
<polygon fill="#6666ff" stroke="#6666ff" points="-509.97,482.615 -515.857,491.423 -516.748,480.866 -509.97,482.615"/>
</g>
<!-- Metamodel::ClassHOW&#45;&gt;Metamodel::BUILDPLAN -->
<g id="edge57" class="edge"><title>Metamodel::ClassHOW&#45;&gt;Metamodel::BUILDPLAN</title>
<path fill="none" stroke="#6666ff" d="M-384.021,-54.7016C-403.403,-134.481 -481.291,-455.101 -504.931,-552.412"/>
<polygon fill="#6666ff" stroke="#6666ff" points="-508.396,-551.846 -507.355,-562.39 -501.594,-553.498 -508.396,-551.846"/>
</g>
<!-- Metamodel::ClassHOW&#45;&gt;Metamodel::Mixins -->
<g id="edge58" class="edge"><title>Metamodel::ClassHOW&#45;&gt;Metamodel::Mixins</title>
<path fill="none" stroke="#6666ff" d="M-434.121,-21.2299C-547.928,10.8752 -810.152,84.8486 -929.517,118.521"/>
<polygon fill="#6666ff" stroke="#6666ff" points="-928.664,121.917 -939.239,121.264 -930.565,115.18 -928.664,121.917"/>
</g>
<!-- Metamodel::ClassHOW&#45;&gt;Metamodel::BoolificationProtocol -->
<g id="edge59" class="edge"><title>Metamodel::ClassHOW&#45;&gt;Metamodel::BoolificationProtocol</title>
<path fill="none" stroke="#6666ff" d="M-386.515,-18.5439C-403.791,26.7396 -447.579,141.517 -447.579,141.517 -447.579,141.517 -804.558,397.533 -916.46,477.786"/>
<polygon fill="#6666ff" stroke="#6666ff" points="-914.53,480.709 -924.696,483.692 -918.609,475.02 -914.53,480.709"/>
</g>
</g>
</svg>
