<?xml version="1.0" encoding="UTF-8" standalone="no"?>
<!DOCTYPE svg PUBLIC "-//W3C//DTD SVG 1.1//EN"
 "http://www.w3.org/Graphics/SVG/1.1/DTD/svg11.dtd">
<!-- Generated by graphviz version 2.38.0 (20140413.2041)
 -->
<!-- Title: perl6&#45;type&#45;graph Pages: 1 -->
<svg width="1621pt" height="858pt"
 viewBox="0.00 0.00 1620.61 858.41" xmlns="http://www.w3.org/2000/svg" xmlns:xlink="http://www.w3.org/1999/xlink">
<g id="graph0" class="graph" transform="scale(1 1) rotate(0) translate(796.943 455.196)">
<title>perl6&#45;type&#45;graph</title>
<polygon fill="white" stroke="none" points="-796.943,403.216 -796.943,-455.196 823.664,-455.196 823.664,403.216 -796.943,403.216"/>
<!-- Metamodel::TypePretense -->
<g id="node1" class="node"><title>Metamodel::TypePretense</title>
<g id="a_node1"><a xlink:href="/type/Metamodel::TypePretense" xlink:title="Metamodel::TypePretense">
<ellipse fill="none" stroke="#6666ff" cx="-93.585" cy="-33.1797" rx="114.28" ry="18"/>
<text text-anchor="middle" x="-93.585" y="-29.4797" font-family="FreeSans" font-size="14.00" fill="#6666ff">Metamodel::TypePretense</text>
</a>
</g>
</g>
<!-- Mu -->
<g id="node2" class="node"><title>Mu</title>
<g id="a_node2"><a xlink:href="/type/Mu" xlink:title="Mu">
<ellipse fill="none" stroke="#000000" cx="335.568" cy="-418.97" rx="27" ry="18"/>
<text text-anchor="middle" x="335.568" y="-415.27" font-family="FreeSans" font-size="14.00" fill="#000000">Mu</text>
</a>
</g>
</g>
<!-- Any -->
<g id="node3" class="node"><title>Any</title>
<g id="a_node3"><a xlink:href="/type/Any" xlink:title="Any">
<ellipse fill="none" stroke="#000000" cx="57.8023" cy="-430.375" rx="27" ry="18"/>
<text text-anchor="middle" x="57.8023" y="-426.675" font-family="FreeSans" font-size="14.00" fill="#000000">Any</text>
</a>
</g>
</g>
<!-- Any&#45;&gt;Mu -->
<g id="edge1" class="edge"><title>Any&#45;&gt;Mu</title>
<path fill="none" stroke="#000000" d="M84.9414,-429.261C134.829,-427.213 241.185,-422.846 297.983,-420.513"/>
<polygon fill="#000000" stroke="#000000" points="298.471,-423.997 308.319,-420.089 298.184,-417.002 298.471,-423.997"/>
</g>
<!-- Metamodel::Naming -->
<g id="node4" class="node"><title>Metamodel::Naming</title>
<g id="a_node4"><a xlink:href="/type/Metamodel::Naming" xlink:title="Metamodel::Naming">
<ellipse fill="none" stroke="#6666ff" cx="122.917" cy="109.122" rx="90.1842" ry="18"/>
<text text-anchor="middle" x="122.917" y="112.822" font-family="FreeSans" font-size="14.00" fill="#6666ff">Metamodel::Naming</text>
</a>
</g>
</g>
<!-- Metamodel::Documenting -->
<g id="node5" class="node"><title>Metamodel::Documenting</title>
<g id="a_node5"><a xlink:href="/type/Metamodel::Documenting" xlink:title="Metamodel::Documenting">
<ellipse fill="none" stroke="#6666ff" cx="704.598" cy="-14.7211" rx="111.28" ry="18"/>
<text text-anchor="middle" x="704.598" y="-11.0211" font-family="FreeSans" font-size="14.00" fill="#6666ff">Metamodel::Documenting</text>
</a>
</g>
</g>
<!-- Metamodel::Versioning -->
<g id="node6" class="node"><title>Metamodel::Versioning</title>
<g id="a_node6"><a xlink:href="/type/Metamodel::Versioning" xlink:title="Metamodel::Versioning">
<ellipse fill="none" stroke="#6666ff" cx="677.442" cy="335.525" rx="100.983" ry="18"/>
<text text-anchor="middle" x="677.442" y="339.225" font-family="FreeSans" font-size="14.00" fill="#6666ff">Metamodel::Versioning</text>
</a>
</g>
</g>
<!-- Metamodel::MethodContainer -->
<g id="node7" class="node"><title>Metamodel::MethodContainer</title>
<g id="a_node7"><a xlink:href="/type/Metamodel::MethodContainer" xlink:title="Metamodel::MethodContainer">
<ellipse fill="none" stroke="#6666ff" cx="-635.459" cy="331.212" rx="127.277" ry="18"/>
<text text-anchor="middle" x="-635.459" y="334.912" font-family="FreeSans" font-size="14.00" fill="#6666ff">Metamodel::MethodContainer</text>
</a>
</g>
</g>
<!-- Metamodel::PrivateMethodContainer -->
<g id="node8" class="node"><title>Metamodel::PrivateMethodContainer</title>
<g id="a_node8"><a xlink:href="/type/Metamodel::PrivateMethodContainer" xlink:title="Metamodel::PrivateMethodContainer">
<ellipse fill="none" stroke="#6666ff" cx="314.492" cy="370.501" rx="154.873" ry="18"/>
<text text-anchor="middle" x="314.492" y="374.201" font-family="FreeSans" font-size="14.00" fill="#6666ff">Metamodel::PrivateMethodContainer</text>
</a>
</g>
</g>
<!-- Metamodel::MultiMethodContainer -->
<g id="node9" class="node"><title>Metamodel::MultiMethodContainer</title>
<g id="a_node9"><a xlink:href="/type/Metamodel::MultiMethodContainer" xlink:title="Metamodel::MultiMethodContainer">
<ellipse fill="none" stroke="#6666ff" cx="-352.231" cy="98.1273" rx="146.474" ry="18"/>
<text text-anchor="middle" x="-352.231" y="101.827" font-family="FreeSans" font-size="14.00" fill="#6666ff">Metamodel::MultiMethodContainer</text>
</a>
</g>
</g>
<!-- Metamodel::AttributeContainer -->
<g id="node10" class="node"><title>Metamodel::AttributeContainer</title>
<g id="a_node10"><a xlink:href="/type/Metamodel::AttributeContainer" xlink:title="Metamodel::AttributeContainer">
<ellipse fill="none" stroke="#6666ff" cx="28.9663" cy="381.216" rx="129.977" ry="18"/>
<text text-anchor="middle" x="28.9663" y="384.916" font-family="FreeSans" font-size="14.00" fill="#6666ff">Metamodel::AttributeContainer</text>
</a>
</g>
</g>
<!-- Metamodel::RoleContainer -->
<g id="node11" class="node"><title>Metamodel::RoleContainer</title>
<g id="a_node11"><a xlink:href="/type/Metamodel::RoleContainer" xlink:title="Metamodel::RoleContainer">
<ellipse fill="none" stroke="#6666ff" cx="-275.838" cy="380.642" rx="115.88" ry="18"/>
<text text-anchor="middle" x="-275.838" y="384.342" font-family="FreeSans" font-size="14.00" fill="#6666ff">Metamodel::RoleContainer</text>
</a>
</g>
</g>
<!-- Metamodel::MultipleInheritance -->
<g id="node12" class="node"><title>Metamodel::MultipleInheritance</title>
<g id="a_node12"><a xlink:href="/type/Metamodel::MultipleInheritance" xlink:title="Metamodel::MultipleInheritance">
<ellipse fill="none" stroke="#6666ff" cx="-659.055" cy="-30.9953" rx="133.776" ry="18"/>
<text text-anchor="middle" x="-659.055" y="-27.2953" font-family="FreeSans" font-size="14.00" fill="#6666ff">Metamodel::MultipleInheritance</text>
</a>
</g>
</g>
<!-- Metamodel::Stashing -->
<g id="node13" class="node"><title>Metamodel::Stashing</title>
<g id="a_node13"><a xlink:href="/type/Metamodel::Stashing" xlink:title="Metamodel::Stashing">
<ellipse fill="none" stroke="#6666ff" cx="149.162" cy="-139.107" rx="93.6835" ry="18"/>
<text text-anchor="middle" x="149.162" y="-135.407" font-family="FreeSans" font-size="14.00" fill="#6666ff">Metamodel::Stashing</text>
</a>
</g>
</g>
<!-- Metamodel::RolePunning -->
<g id="node14" class="node"><title>Metamodel::RolePunning</title>
<g id="a_node14"><a xlink:href="/type/Metamodel::RolePunning" xlink:title="Metamodel::RolePunning">
<ellipse fill="none" stroke="#6666ff" cx="-338.148" cy="-158.815" rx="109.681" ry="18"/>
<text text-anchor="middle" x="-338.148" y="-155.115" font-family="FreeSans" font-size="14.00" fill="#6666ff">Metamodel::RolePunning</text>
</a>
</g>
</g>
<!-- Metamodel::ParametricRoleHOW -->
<g id="node15" class="node"><title>Metamodel::ParametricRoleHOW</title>
<g id="a_node15"><a xlink:href="/type/Metamodel::ParametricRoleHOW" xlink:title="Metamodel::ParametricRoleHOW">
<ellipse fill="none" stroke="#000000" cx="-108.777" cy="165.776" rx="142.175" ry="18"/>
<text text-anchor="middle" x="-108.777" y="169.476" font-family="FreeSans" font-size="14.00" fill="#000000">Metamodel::ParametricRoleHOW</text>
</a>
</g>
</g>
<!-- Metamodel::ParametricRoleHOW&#45;&gt;Metamodel::TypePretense -->
<g id="edge17" class="edge"><title>Metamodel::ParametricRoleHOW&#45;&gt;Metamodel::TypePretense</title>
<path fill="none" stroke="#6666ff" d="M-107.402,147.769C-104.748,113.011 -98.9017,36.4485 -95.7311,-5.074"/>
<polygon fill="#6666ff" stroke="#6666ff" points="-99.2191,-5.36574 -94.9678,-15.0702 -92.2394,-4.83272 -99.2191,-5.36574"/>
</g>
<!-- Metamodel::ParametricRoleHOW&#45;&gt;Any -->
<g id="edge2" class="edge"><title>Metamodel::ParametricRoleHOW&#45;&gt;Any</title>
<path fill="none" stroke="#000000" d="M-96.9041,147.763C-64.6127,98.7735 22.4043,-33.2414 22.4043,-33.2414 22.4043,-33.2414 53.9713,-139.033 53.9713,-139.033 53.9713,-139.033 90.2622,-229.801 90.2622,-229.801 90.2622,-229.801 71.3378,-346.738 62.3884,-402.037"/>
<polygon fill="#000000" stroke="#000000" points="58.8827,-401.791 60.7401,-412.222 65.7928,-402.91 58.8827,-401.791"/>
</g>
<!-- Metamodel::ParametricRoleHOW&#45;&gt;Metamodel::Naming -->
<g id="edge7" class="edge"><title>Metamodel::ParametricRoleHOW&#45;&gt;Metamodel::Naming</title>
<path fill="none" stroke="#6666ff" d="M-43.3118,149.768C-12.4,142.21 24.4556,133.198 55.5993,125.582"/>
<polygon fill="#6666ff" stroke="#6666ff" points="54.9503,122.138 65.4955,123.162 56.613,128.938 54.9503,122.138"/>
</g>
<!-- Metamodel::ParametricRoleHOW&#45;&gt;Metamodel::Documenting -->
<g id="edge8" class="edge"><title>Metamodel::ParametricRoleHOW&#45;&gt;Metamodel::Documenting</title>
<path fill="none" stroke="#6666ff" d="M-14.7531,152.204C72.306,139.638 188.385,122.883 188.385,122.883 188.385,122.883 292.667,83.9921 292.667,83.9921 292.667,83.9921 513.724,31.0189 631.966,2.68409"/>
<polygon fill="#6666ff" stroke="#6666ff" points="631.494,-0.801907 642.034,0.271282 633.125,6.00537 631.494,-0.801907"/>
</g>
<!-- Metamodel::ParametricRoleHOW&#45;&gt;Metamodel::Versioning -->
<g id="edge9" class="edge"><title>Metamodel::ParametricRoleHOW&#45;&gt;Metamodel::Versioning</title>
<path fill="none" stroke="#6666ff" d="M-36.5711,181.365C112.327,213.513 452.136,286.88 602.959,319.443"/>
<polygon fill="#6666ff" stroke="#6666ff" points="604.015,316.091 613.051,321.622 602.538,322.933 604.015,316.091"/>
</g>
<!-- Metamodel::ParametricRoleHOW&#45;&gt;Metamodel::MethodContainer -->
<g id="edge10" class="edge"><title>Metamodel::ParametricRoleHOW&#45;&gt;Metamodel::MethodContainer</title>
<path fill="none" stroke="#6666ff" d="M-162.176,182.549C-260.348,213.386 -468.982,278.92 -573.326,311.695"/>
<polygon fill="#6666ff" stroke="#6666ff" points="-572.502,315.105 -583.091,314.763 -574.599,308.427 -572.502,315.105"/>
</g>
<!-- Metamodel::ParametricRoleHOW&#45;&gt;Metamodel::PrivateMethodContainer -->
<g id="edge11" class="edge"><title>Metamodel::ParametricRoleHOW&#45;&gt;Metamodel::PrivateMethodContainer</title>
<path fill="none" stroke="#6666ff" d="M-72.6892,183.231C4.29238,220.465 184.481,307.617 269.093,348.542"/>
<polygon fill="#6666ff" stroke="#6666ff" points="270.717,345.44 278.196,352.945 267.669,351.742 270.717,345.44"/>
</g>
<!-- Metamodel::ParametricRoleHOW&#45;&gt;Metamodel::MultiMethodContainer -->
<g id="edge12" class="edge"><title>Metamodel::ParametricRoleHOW&#45;&gt;Metamodel::MultiMethodContainer</title>
<path fill="none" stroke="#6666ff" d="M-168.021,149.314C-202.629,139.697 -246.481,127.512 -282.717,117.443"/>
<polygon fill="#6666ff" stroke="#6666ff" points="-284.023,120.713 -292.721,114.663 -282.149,113.968 -284.023,120.713"/>
</g>
<!-- Metamodel::ParametricRoleHOW&#45;&gt;Metamodel::AttributeContainer -->
<g id="edge13" class="edge"><title>Metamodel::ParametricRoleHOW&#45;&gt;Metamodel::AttributeContainer</title>
<path fill="none" stroke="#6666ff" d="M-97.2699,183.774C-73.013,221.713 -16.5292,310.058 11.9316,354.573"/>
<polygon fill="#6666ff" stroke="#6666ff" points="14.9573,352.808 17.3952,363.118 9.05967,356.579 14.9573,352.808"/>
</g>
<!-- Metamodel::ParametricRoleHOW&#45;&gt;Metamodel::RoleContainer -->
<g id="edge14" class="edge"><title>Metamodel::ParametricRoleHOW&#45;&gt;Metamodel::RoleContainer</title>
<path fill="none" stroke="#6666ff" d="M-122.733,183.726C-152.276,221.722 -221.232,310.41 -255.608,354.623"/>
<polygon fill="#6666ff" stroke="#6666ff" points="-252.903,356.846 -261.804,362.592 -258.429,352.549 -252.903,356.846"/>
</g>
<!-- Metamodel::ParametricRoleHOW&#45;&gt;Metamodel::MultipleInheritance -->
<g id="edge15" class="edge"><title>Metamodel::ParametricRoleHOW&#45;&gt;Metamodel::MultipleInheritance</title>
<path fill="none" stroke="#6666ff" d="M-133.9,147.967C-162.231,127.884 -204.397,97.9941 -204.397,97.9941 -204.397,97.9941 -248.407,84.1742 -248.407,84.1742 -248.407,84.1742 -474.522,20.7584 -591.178,-11.9585"/>
<polygon fill="#6666ff" stroke="#6666ff" points="-592.407,-8.66818 -601.09,-14.7386 -590.517,-15.4081 -592.407,-8.66818"/>
</g>
<!-- Metamodel::ParametricRoleHOW&#45;&gt;Metamodel::Stashing -->
<g id="edge16" class="edge"><title>Metamodel::ParametricRoleHOW&#45;&gt;Metamodel::Stashing</title>
<path fill="none" stroke="#6666ff" d="M-93.4141,147.617C-49.598,95.8266 76.1025,-52.7508 127.184,-113.129"/>
<polygon fill="#6666ff" stroke="#6666ff" points="124.749,-115.67 133.88,-121.044 130.093,-111.149 124.749,-115.67"/>
</g>
<!-- Metamodel::ParametricRoleHOW&#45;&gt;Metamodel::RolePunning -->
<g id="edge18" class="edge"><title>Metamodel::ParametricRoleHOW&#45;&gt;Metamodel::RolePunning</title>
<path fill="none" stroke="#6666ff" d="M-121.766,147.394C-160.324,92.8292 -274.242,-68.3791 -319.4,-132.285"/>
<polygon fill="#6666ff" stroke="#6666ff" points="-322.388,-130.449 -325.301,-140.635 -316.672,-134.489 -322.388,-130.449"/>
</g>
<!-- Metamodel::MethodDelegation -->
<g id="node16" class="node"><title>Metamodel::MethodDelegation</title>
<g id="a_node16"><a xlink:href="/type/Metamodel::MethodDelegation" xlink:title="Metamodel::MethodDelegation">
<ellipse fill="none" stroke="#6666ff" cx="688.376" cy="-377.575" rx="131.077" ry="18"/>
<text text-anchor="middle" x="688.376" y="-373.875" font-family="FreeSans" font-size="14.00" fill="#6666ff">Metamodel::MethodDelegation</text>
</a>
</g>
</g>
<!-- Metamodel::ModuleHOW -->
<g id="node17" class="node"><title>Metamodel::ModuleHOW</title>
<g id="a_node17"><a xlink:href="/type/Metamodel::ModuleHOW" xlink:title="Metamodel::ModuleHOW">
<ellipse fill="none" stroke="#000000" cx="373.131" cy="97.7206" rx="111.28" ry="18"/>
<text text-anchor="middle" x="373.131" y="101.421" font-family="FreeSans" font-size="14.00" fill="#000000">Metamodel::ModuleHOW</text>
</a>
</g>
</g>
<!-- Metamodel::ModuleHOW&#45;&gt;Metamodel::TypePretense -->
<g id="edge23" class="edge"><title>Metamodel::ModuleHOW&#45;&gt;Metamodel::TypePretense</title>
<path fill="none" stroke="#6666ff" d="M317.298,82.061C230.805,57.8022 64.7951,11.2413 -27.5323,-14.6539"/>
<polygon fill="#6666ff" stroke="#6666ff" points="-28.6407,-11.3296 -37.3239,-17.4001 -26.7503,-18.0695 -28.6407,-11.3296"/>
</g>
<!-- Metamodel::ModuleHOW&#45;&gt;Any -->
<g id="edge3" class="edge"><title>Metamodel::ModuleHOW&#45;&gt;Any</title>
<path fill="none" stroke="#000000" d="M363.24,79.5247C333.085,24.0512 244.353,-139.181 244.353,-139.181 244.353,-139.181 119.881,-333.474 74.2845,-404.648"/>
<polygon fill="#000000" stroke="#000000" points="71.0857,-403.153 68.6384,-413.461 76.9799,-406.929 71.0857,-403.153"/>
</g>
<!-- Metamodel::ModuleHOW&#45;&gt;Metamodel::Naming -->
<g id="edge19" class="edge"><title>Metamodel::ModuleHOW&#45;&gt;Metamodel::Naming</title>
<path fill="none" stroke="#6666ff" d="M265.929,102.605C251.057,103.283 235.839,103.976 221.142,104.646"/>
<polygon fill="#6666ff" stroke="#6666ff" points="221.209,108.147 211.06,105.105 220.891,101.154 221.209,108.147"/>
</g>
<!-- Metamodel::ModuleHOW&#45;&gt;Metamodel::Documenting -->
<g id="edge20" class="edge"><title>Metamodel::ModuleHOW&#45;&gt;Metamodel::Documenting</title>
<path fill="none" stroke="#6666ff" d="M421.329,81.3706C481.19,61.0644 583.197,26.4609 647.084,4.78894"/>
<polygon fill="#6666ff" stroke="#6666ff" points="646.016,1.45531 656.611,1.55728 648.265,8.08429 646.016,1.45531"/>
</g>
<!-- Metamodel::ModuleHOW&#45;&gt;Metamodel::Versioning -->
<g id="edge21" class="edge"><title>Metamodel::ModuleHOW&#45;&gt;Metamodel::Versioning</title>
<path fill="none" stroke="#6666ff" d="M396.004,115.595C449.998,157.788 585.424,263.617 646.596,311.42"/>
<polygon fill="#6666ff" stroke="#6666ff" points="648.995,308.852 654.719,317.768 644.685,314.368 648.995,308.852"/>
</g>
<!-- Metamodel::ModuleHOW&#45;&gt;Metamodel::Stashing -->
<g id="edge22" class="edge"><title>Metamodel::ModuleHOW&#45;&gt;Metamodel::Stashing</title>
<path fill="none" stroke="#6666ff" d="M356.297,79.92C316.98,38.345 218.994,-65.2661 173.315,-113.568"/>
<polygon fill="#6666ff" stroke="#6666ff" points="170.52,-111.43 166.192,-121.1 175.606,-116.239 170.52,-111.43"/>
</g>
<!-- Metamodel::ModuleHOW&#45;&gt;Metamodel::MethodDelegation -->
<g id="edge24" class="edge"><title>Metamodel::ModuleHOW&#45;&gt;Metamodel::MethodDelegation</title>
<path fill="none" stroke="#6666ff" d="M385.104,79.6688C433.333,6.95428 613.515,-264.706 670.784,-351.051"/>
<polygon fill="#6666ff" stroke="#6666ff" points="667.947,-353.106 676.391,-359.505 673.78,-349.237 667.947,-353.106"/>
</g>
<!-- Metamodel::PackageHOW -->
<g id="node18" class="node"><title>Metamodel::PackageHOW</title>
<g id="a_node18"><a xlink:href="/type/Metamodel::PackageHOW" xlink:title="Metamodel::PackageHOW">
<ellipse fill="none" stroke="#000000" cx="397.59" cy="-148.306" rx="116.18" ry="18"/>
<text text-anchor="middle" x="397.59" y="-144.606" font-family="FreeSans" font-size="14.00" fill="#000000">Metamodel::PackageHOW</text>
</a>
</g>
</g>
<!-- Metamodel::PackageHOW&#45;&gt;Metamodel::TypePretense -->
<g id="edge28" class="edge"><title>Metamodel::PackageHOW&#45;&gt;Metamodel::TypePretense</title>
<path fill="none" stroke="#6666ff" d="M333.378,-133.256C242.336,-111.916 76.1595,-72.9662 -19.8259,-50.4682"/>
<polygon fill="#6666ff" stroke="#6666ff" points="-19.2114,-47.0174 -29.7463,-48.1429 -20.8089,-53.8327 -19.2114,-47.0174"/>
</g>
<!-- Metamodel::PackageHOW&#45;&gt;Any -->
<g id="edge4" class="edge"><title>Metamodel::PackageHOW&#45;&gt;Any</title>
<path fill="none" stroke="#000000" d="M376.077,-166.165C316.043,-216.002 146.901,-356.412 82.8271,-409.601"/>
<polygon fill="#000000" stroke="#000000" points="80.3103,-407.142 74.8515,-416.222 84.7814,-412.528 80.3103,-407.142"/>
</g>
<!-- Metamodel::PackageHOW&#45;&gt;Metamodel::Naming -->
<g id="edge25" class="edge"><title>Metamodel::PackageHOW&#45;&gt;Metamodel::Naming</title>
<path fill="none" stroke="#6666ff" d="M378.276,-130.205C330.091,-85.0451 204.503,32.6577 149.44,84.2637"/>
<polygon fill="#6666ff" stroke="#6666ff" points="151.535,87.097 141.845,91.3816 146.748,81.9895 151.535,87.097"/>
</g>
<!-- Metamodel::PackageHOW&#45;&gt;Metamodel::Documenting -->
<g id="edge26" class="edge"><title>Metamodel::PackageHOW&#45;&gt;Metamodel::Documenting</title>
<path fill="none" stroke="#6666ff" d="M436.785,-131.252C492.791,-106.883 595.634,-62.1337 656.279,-35.7455"/>
<polygon fill="#6666ff" stroke="#6666ff" points="657.864,-38.8732 665.637,-31.6739 655.071,-32.4545 657.864,-38.8732"/>
</g>
<!-- Metamodel::PackageHOW&#45;&gt;Metamodel::Stashing -->
<g id="edge27" class="edge"><title>Metamodel::PackageHOW&#45;&gt;Metamodel::Stashing</title>
<path fill="none" stroke="#6666ff" d="M284.281,-144.111C273.323,-143.705 262.25,-143.295 251.408,-142.893"/>
<polygon fill="#6666ff" stroke="#6666ff" points="251.218,-139.384 241.096,-142.511 250.959,-146.379 251.218,-139.384"/>
</g>
<!-- Metamodel::PackageHOW&#45;&gt;Metamodel::MethodDelegation -->
<g id="edge29" class="edge"><title>Metamodel::PackageHOW&#45;&gt;Metamodel::MethodDelegation</title>
<path fill="none" stroke="#6666ff" d="M420.408,-166.297C472.218,-207.146 598.784,-306.936 657.509,-353.238"/>
<polygon fill="#6666ff" stroke="#6666ff" points="655.644,-356.225 665.664,-359.668 659.979,-350.728 655.644,-356.225"/>
</g>
<!-- Metamodel::CurriedRoleHOW -->
<g id="node19" class="node"><title>Metamodel::CurriedRoleHOW</title>
<g id="a_node19"><a xlink:href="/type/Metamodel::CurriedRoleHOW" xlink:title="Metamodel::CurriedRoleHOW">
<ellipse fill="none" stroke="#000000" cx="-628.581" cy="-385.774" rx="128.877" ry="18"/>
<text text-anchor="middle" x="-628.581" y="-382.074" font-family="FreeSans" font-size="14.00" fill="#000000">Metamodel::CurriedRoleHOW</text>
</a>
</g>
</g>
<!-- Metamodel::CurriedRoleHOW&#45;&gt;Metamodel::TypePretense -->
<g id="edge31" class="edge"><title>Metamodel::CurriedRoleHOW&#45;&gt;Metamodel::TypePretense</title>
<path fill="none" stroke="#6666ff" d="M-597.381,-368.162C-502.959,-314.863 -226.709,-158.926 -226.709,-158.926 -226.709,-158.926 -158.822,-94.8011 -120.005,-58.1359"/>
<polygon fill="#6666ff" stroke="#6666ff" points="-117.525,-60.6073 -112.658,-51.1961 -122.332,-55.5185 -117.525,-60.6073"/>
</g>
<!-- Metamodel::CurriedRoleHOW&#45;&gt;Any -->
<g id="edge5" class="edge"><title>Metamodel::CurriedRoleHOW&#45;&gt;Any</title>
<path fill="none" stroke="#000000" d="M-511.756,-393.365C-353.357,-403.658 -78.8248,-421.497 20.5445,-427.954"/>
<polygon fill="#000000" stroke="#000000" points="20.4891,-431.458 30.695,-428.614 20.943,-424.473 20.4891,-431.458"/>
</g>
<!-- Metamodel::CurriedRoleHOW&#45;&gt;Metamodel::RolePunning -->
<g id="edge30" class="edge"><title>Metamodel::CurriedRoleHOW&#45;&gt;Metamodel::RolePunning</title>
<path fill="none" stroke="#6666ff" d="M-605.791,-367.965C-554.044,-327.527 -427.631,-228.742 -368.977,-182.907"/>
<polygon fill="#6666ff" stroke="#6666ff" points="-366.556,-185.457 -360.832,-176.542 -370.866,-179.941 -366.556,-185.457"/>
</g>
<!-- Metamodel::BoolificationProtocol -->
<g id="node20" class="node"><title>Metamodel::BoolificationProtocol</title>
<g id="a_node20"><a xlink:href="/type/Metamodel::BoolificationProtocol" xlink:title="Metamodel::BoolificationProtocol">
<ellipse fill="none" stroke="#6666ff" cx="-257.298" cy="-433.196" rx="139.175" ry="18"/>
<text text-anchor="middle" x="-257.298" y="-429.496" font-family="FreeSans" font-size="14.00" fill="#6666ff">Metamodel::BoolificationProtocol</text>
</a>
</g>
</g>
<!-- Metamodel::ParametricRoleGroupHOW -->
<g id="node21" class="node"><title>Metamodel::ParametricRoleGroupHOW</title>
<g id="a_node21"><a xlink:href="/type/Metamodel::ParametricRoleGroupHOW" xlink:title="Metamodel::ParametricRoleGroupHOW">
<ellipse fill="none" stroke="#000000" cx="-78.3703" cy="-229.689" rx="167.07" ry="18"/>
<text text-anchor="middle" x="-78.3703" y="-225.989" font-family="FreeSans" font-size="14.00" fill="#000000">Metamodel::ParametricRoleGroupHOW</text>
</a>
</g>
</g>
<!-- Metamodel::ParametricRoleGroupHOW&#45;&gt;Metamodel::TypePretense -->
<g id="edge34" class="edge"><title>Metamodel::ParametricRoleGroupHOW&#45;&gt;Metamodel::TypePretense</title>
<path fill="none" stroke="#6666ff" d="M-79.7744,-211.554C-82.4351,-177.189 -88.2283,-102.365 -91.4007,-61.3913"/>
<polygon fill="#6666ff" stroke="#6666ff" points="-87.9227,-60.9708 -92.1843,-51.2708 -94.9018,-61.5112 -87.9227,-60.9708"/>
</g>
<!-- Metamodel::ParametricRoleGroupHOW&#45;&gt;Any -->
<g id="edge6" class="edge"><title>Metamodel::ParametricRoleGroupHOW&#45;&gt;Any</title>
<path fill="none" stroke="#000000" d="M-66.0457,-247.853C-41.5873,-283.899 13.1161,-364.519 40.9053,-405.473"/>
<polygon fill="#000000" stroke="#000000" points="38.054,-407.505 46.5651,-413.814 43.8464,-403.574 38.054,-407.505"/>
</g>
<!-- Metamodel::ParametricRoleGroupHOW&#45;&gt;Metamodel::Naming -->
<g id="edge32" class="edge"><title>Metamodel::ParametricRoleGroupHOW&#45;&gt;Metamodel::Naming</title>
<path fill="none" stroke="#6666ff" d="M-67.5482,-211.473C-34.0902,-155.156 67.7924,16.3349 107.159,82.5981"/>
<polygon fill="#6666ff" stroke="#6666ff" points="110.187,80.8419 112.286,91.2269 104.169,84.4173 110.187,80.8419"/>
</g>
<!-- Metamodel::ParametricRoleGroupHOW&#45;&gt;Metamodel::Stashing -->
<g id="edge33" class="edge"><title>Metamodel::ParametricRoleGroupHOW&#45;&gt;Metamodel::Stashing</title>
<path fill="none" stroke="#6666ff" d="M-34.4997,-212.224C3.63767,-197.041 58.8845,-175.047 98.8147,-159.151"/>
<polygon fill="#6666ff" stroke="#6666ff" points="100.11,-162.402 108.106,-155.452 97.5207,-155.899 100.11,-162.402"/>
</g>
<!-- Metamodel::ParametricRoleGroupHOW&#45;&gt;Metamodel::RolePunning -->
<g id="edge35" class="edge"><title>Metamodel::ParametricRoleGroupHOW&#45;&gt;Metamodel::RolePunning</title>
<path fill="none" stroke="#6666ff" d="M-139.934,-212.893C-179.576,-202.078 -231.089,-188.024 -271.664,-176.954"/>
<polygon fill="#6666ff" stroke="#6666ff" points="-270.896,-173.535 -281.465,-174.28 -272.738,-180.289 -270.896,-173.535"/>
</g>
<!-- Metamodel::ParametricRoleGroupHOW&#45;&gt;Metamodel::BoolificationProtocol -->
<g id="edge36" class="edge"><title>Metamodel::ParametricRoleGroupHOW&#45;&gt;Metamodel::BoolificationProtocol</title>
<path fill="none" stroke="#6666ff" d="M-94.2489,-247.749C-126.148,-284.03 -198.092,-365.857 -234.814,-407.623"/>
<polygon fill="#6666ff" stroke="#6666ff" points="-237.48,-405.355 -241.455,-415.176 -232.223,-409.977 -237.48,-405.355"/>
</g>
</g>
</svg>
