<?xml version="1.0" encoding="UTF-8" standalone="no"?>
<!DOCTYPE svg PUBLIC "-//W3C//DTD SVG 1.1//EN"
 "http://www.w3.org/Graphics/SVG/1.1/DTD/svg11.dtd">
<!-- Generated by graphviz version 2.38.0 (20140413.2041)
 -->
<!-- Title: perl6&#45;type&#45;graph Pages: 1 -->
<svg width="550pt" height="188pt"
 viewBox="0.00 0.00 549.84 188.00" xmlns="http://www.w3.org/2000/svg" xmlns:xlink="http://www.w3.org/1999/xlink">
<g id="graph0" class="graph" transform="scale(1 1) rotate(0) translate(4 184)">
<title>perl6&#45;type&#45;graph</title>
<polygon fill="white" stroke="none" points="-4,4 -4,-184 545.841,-184 545.841,4 -4,4"/>
<!-- CompUnit::Repository::FileSystem -->
<g id="node1" class="node"><title>CompUnit::Repository::FileSystem</title>
<g id="a_node1"><a xlink:href="/type/CompUnit::Repository::FileSystem" xlink:title="CompUnit::Repository::FileSystem">
<ellipse fill="none" stroke="#000000" cx="201" cy="-18" rx="144.874" ry="18"/>
<text text-anchor="middle" x="201" y="-14.3" font-family="FreeSans" font-size="14.00" fill="#000000">CompUnit::Repository::FileSystem</text>
</a>
</g>
</g>
<!-- Any -->
<g id="node3" class="node"><title>Any</title>
<g id="a_node3"><a xlink:href="/type/Any" xlink:title="Any">
<ellipse fill="none" stroke="#000000" cx="27" cy="-90" rx="27" ry="18"/>
<text text-anchor="middle" x="27" y="-86.3" font-family="FreeSans" font-size="14.00" fill="#000000">Any</text>
</a>
</g>
</g>
<!-- CompUnit::Repository::FileSystem&#45;&gt;Any -->
<g id="edge1" class="edge"><title>CompUnit::Repository::FileSystem&#45;&gt;Any</title>
<path fill="none" stroke="#000000" d="M158.469,-35.3342C117.922,-50.9069 63,-72 63,-72 63,-72 60.8198,-73.0296 57.5324,-74.5819"/>
<polygon fill="#000000" stroke="#000000" points="55.9054,-71.4796 48.3574,-78.9146 58.8945,-77.8093 55.9054,-71.4796"/>
</g>
<!-- CompUnit::Repository::Locally -->
<g id="node4" class="node"><title>CompUnit::Repository::Locally</title>
<g id="a_node4"><a xlink:href="/type/CompUnit::Repository::Locally" xlink:title="CompUnit::Repository::Locally">
<ellipse fill="none" stroke="#6666ff" cx="201" cy="-90" rx="129.177" ry="18"/>
<text text-anchor="middle" x="201" y="-86.3" font-family="FreeSans" font-size="14.00" fill="#6666ff">CompUnit::Repository::Locally</text>
</a>
</g>
</g>
<!-- CompUnit::Repository::FileSystem&#45;&gt;CompUnit::Repository::Locally -->
<g id="edge3" class="edge"><title>CompUnit::Repository::FileSystem&#45;&gt;CompUnit::Repository::Locally</title>
<path fill="none" stroke="#6666ff" d="M201,-36.3034C201,-44.0173 201,-53.2875 201,-61.8876"/>
<polygon fill="#6666ff" stroke="#6666ff" points="197.5,-61.8956 201,-71.8957 204.5,-61.8957 197.5,-61.8956"/>
</g>
<!-- CompUnit::Repository -->
<g id="node5" class="node"><title>CompUnit::Repository</title>
<g id="a_node5"><a xlink:href="/type/CompUnit::Repository" xlink:title="CompUnit::Repository">
<ellipse fill="none" stroke="#6666ff" cx="445" cy="-90" rx="96.6831" ry="18"/>
<text text-anchor="middle" x="445" y="-86.3" font-family="FreeSans" font-size="14.00" fill="#6666ff">CompUnit::Repository</text>
</a>
</g>
</g>
<!-- CompUnit::Repository::FileSystem&#45;&gt;CompUnit::Repository -->
<g id="edge4" class="edge"><title>CompUnit::Repository::FileSystem&#45;&gt;CompUnit::Repository</title>
<path fill="none" stroke="#6666ff" d="M255.758,-34.7094C294.099,-45.7087 345.325,-60.4047 384.811,-71.7326"/>
<polygon fill="#6666ff" stroke="#6666ff" points="384.004,-75.1424 394.582,-74.5358 385.935,-68.4138 384.004,-75.1424"/>
</g>
<!-- Mu -->
<g id="node2" class="node"><title>Mu</title>
<g id="a_node2"><a xlink:href="/type/Mu" xlink:title="Mu">
<ellipse fill="none" stroke="#000000" cx="27" cy="-162" rx="27" ry="18"/>
<text text-anchor="middle" x="27" y="-158.3" font-family="FreeSans" font-size="14.00" fill="#000000">Mu</text>
</a>
</g>
</g>
<!-- Any&#45;&gt;Mu -->
<g id="edge2" class="edge"><title>Any&#45;&gt;Mu</title>
<path fill="none" stroke="#000000" d="M27,-108.303C27,-116.017 27,-125.288 27,-133.888"/>
<polygon fill="#000000" stroke="#000000" points="23.5001,-133.896 27,-143.896 30.5001,-133.896 23.5001,-133.896"/>
</g>
</g>
</svg>
