<?xml version="1.0" encoding="UTF-8" standalone="no"?>
<!DOCTYPE svg PUBLIC "-//W3C//DTD SVG 1.1//EN"
 "http://www.w3.org/Graphics/SVG/1.1/DTD/svg11.dtd">
<!-- Generated by graphviz version 2.38.0 (20140413.2041)
 -->
<!-- Title: perl6&#45;type&#45;graph Pages: 1 -->
<svg width="459pt" height="476pt"
 viewBox="0.00 0.00 458.64 476.00" xmlns="http://www.w3.org/2000/svg" xmlns:xlink="http://www.w3.org/1999/xlink">
<g id="graph0" class="graph" transform="scale(1 1) rotate(0) translate(4 472)">
<title>perl6&#45;type&#45;graph</title>
<polygon fill="white" stroke="none" points="-4,4 -4,-472 454.64,-472 454.64,4 -4,4"/>
<!-- Callable -->
<g id="node1" class="node"><title>Callable</title>
<g id="a_node1"><a xlink:href="/type/Callable" xlink:title="Callable">
<ellipse fill="none" stroke="#6666ff" cx="73.7445" cy="-378" rx="42.4939" ry="18"/>
<text text-anchor="middle" x="73.7445" y="-374.3" font-family="FreeSans" font-size="14.00" fill="#6666ff">Callable</text>
</a>
</g>
</g>
<!-- Mu -->
<g id="node2" class="node"><title>Mu</title>
<g id="a_node2"><a xlink:href="/type/Mu" xlink:title="Mu">
<ellipse fill="none" stroke="#000000" cx="166.745" cy="-450" rx="27" ry="18"/>
<text text-anchor="middle" x="166.745" y="-446.3" font-family="FreeSans" font-size="14.00" fill="#000000">Mu</text>
</a>
</g>
</g>
<!-- Any -->
<g id="node3" class="node"><title>Any</title>
<g id="a_node3"><a xlink:href="/type/Any" xlink:title="Any">
<ellipse fill="none" stroke="#000000" cx="166.745" cy="-378" rx="27" ry="18"/>
<text text-anchor="middle" x="166.745" y="-374.3" font-family="FreeSans" font-size="14.00" fill="#000000">Any</text>
</a>
</g>
</g>
<!-- Any&#45;&gt;Mu -->
<g id="edge1" class="edge"><title>Any&#45;&gt;Mu</title>
<path fill="none" stroke="#000000" d="M166.745,-396.303C166.745,-404.017 166.745,-413.288 166.745,-421.888"/>
<polygon fill="#000000" stroke="#000000" points="163.245,-421.896 166.745,-431.896 170.245,-421.896 163.245,-421.896"/>
</g>
<!-- ForeignCode -->
<g id="node4" class="node"><title>ForeignCode</title>
<g id="a_node4"><a xlink:href="/type/ForeignCode" xlink:title="ForeignCode">
<ellipse fill="none" stroke="#000000" cx="61.7445" cy="-306" rx="61.99" ry="18"/>
<text text-anchor="middle" x="61.7445" y="-302.3" font-family="FreeSans" font-size="14.00" fill="#000000">ForeignCode</text>
</a>
</g>
</g>
<!-- ForeignCode&#45;&gt;Callable -->
<g id="edge12" class="edge"><title>ForeignCode&#45;&gt;Callable</title>
<path fill="none" stroke="#6666ff" d="M64.7108,-324.303C66.0332,-332.017 67.6224,-341.288 69.0967,-349.888"/>
<polygon fill="#6666ff" stroke="#6666ff" points="65.673,-350.631 70.8123,-359.896 72.5723,-349.448 65.673,-350.631"/>
</g>
<!-- ForeignCode&#45;&gt;Any -->
<g id="edge2" class="edge"><title>ForeignCode&#45;&gt;Any</title>
<path fill="none" stroke="#000000" d="M85.3086,-322.709C101.476,-333.488 122.968,-347.815 139.813,-359.046"/>
<polygon fill="#000000" stroke="#000000" points="137.884,-361.966 148.146,-364.601 141.766,-356.141 137.884,-361.966"/>
</g>
<!-- Code -->
<g id="node5" class="node"><title>Code</title>
<g id="a_node5"><a xlink:href="/type/Code" xlink:title="Code">
<ellipse fill="none" stroke="#000000" cx="173.745" cy="-306" rx="31.6951" ry="18"/>
<text text-anchor="middle" x="173.745" y="-302.3" font-family="FreeSans" font-size="14.00" fill="#000000">Code</text>
</a>
</g>
</g>
<!-- Code&#45;&gt;Callable -->
<g id="edge13" class="edge"><title>Code&#45;&gt;Callable</title>
<path fill="none" stroke="#6666ff" d="M154.464,-320.497C139.868,-330.714 119.569,-344.923 102.98,-356.535"/>
<polygon fill="#6666ff" stroke="#6666ff" points="100.878,-353.734 94.6926,-362.336 104.892,-359.469 100.878,-353.734"/>
</g>
<!-- Code&#45;&gt;Any -->
<g id="edge3" class="edge"><title>Code&#45;&gt;Any</title>
<path fill="none" stroke="#000000" d="M172.014,-324.303C171.243,-332.017 170.316,-341.288 169.456,-349.888"/>
<polygon fill="#000000" stroke="#000000" points="165.967,-349.597 168.455,-359.896 172.933,-350.294 165.967,-349.597"/>
</g>
<!-- WhateverCode -->
<g id="node6" class="node"><title>WhateverCode</title>
<g id="a_node6"><a xlink:href="/type/WhateverCode" xlink:title="WhateverCode">
<ellipse fill="none" stroke="#000000" cx="113.745" cy="-234" rx="69.5877" ry="18"/>
<text text-anchor="middle" x="113.745" y="-230.3" font-family="FreeSans" font-size="14.00" fill="#000000">WhateverCode</text>
</a>
</g>
</g>
<!-- WhateverCode&#45;&gt;Code -->
<g id="edge4" class="edge"><title>WhateverCode&#45;&gt;Code</title>
<path fill="none" stroke="#000000" d="M128.269,-251.945C135.856,-260.796 145.261,-271.769 153.545,-281.434"/>
<polygon fill="#000000" stroke="#000000" points="151.011,-283.856 160.176,-289.171 156.326,-279.3 151.011,-283.856"/>
</g>
<!-- Block -->
<g id="node7" class="node"><title>Block</title>
<g id="a_node7"><a xlink:href="/type/Block" xlink:title="Block">
<ellipse fill="none" stroke="#000000" cx="233.745" cy="-234" rx="32.4942" ry="18"/>
<text text-anchor="middle" x="233.745" y="-230.3" font-family="FreeSans" font-size="14.00" fill="#000000">Block</text>
</a>
</g>
</g>
<!-- Block&#45;&gt;Code -->
<g id="edge5" class="edge"><title>Block&#45;&gt;Code</title>
<path fill="none" stroke="#000000" d="M220.429,-250.535C212.583,-259.689 202.505,-271.446 193.722,-281.693"/>
<polygon fill="#000000" stroke="#000000" points="190.874,-279.638 187.023,-289.508 196.189,-284.193 190.874,-279.638"/>
</g>
<!-- Routine -->
<g id="node8" class="node"><title>Routine</title>
<g id="a_node8"><a xlink:href="/type/Routine" xlink:title="Routine">
<ellipse fill="none" stroke="#000000" cx="233.745" cy="-162" rx="40.8928" ry="18"/>
<text text-anchor="middle" x="233.745" y="-158.3" font-family="FreeSans" font-size="14.00" fill="#000000">Routine</text>
</a>
</g>
</g>
<!-- Routine&#45;&gt;Block -->
<g id="edge6" class="edge"><title>Routine&#45;&gt;Block</title>
<path fill="none" stroke="#000000" d="M233.745,-180.303C233.745,-188.017 233.745,-197.288 233.745,-205.888"/>
<polygon fill="#000000" stroke="#000000" points="230.245,-205.896 233.745,-215.896 237.245,-205.896 230.245,-205.896"/>
</g>
<!-- Sub -->
<g id="node9" class="node"><title>Sub</title>
<g id="a_node9"><a xlink:href="/type/Sub" xlink:title="Sub">
<ellipse fill="none" stroke="#000000" cx="105.745" cy="-90" rx="27" ry="18"/>
<text text-anchor="middle" x="105.745" y="-86.3" font-family="FreeSans" font-size="14.00" fill="#000000">Sub</text>
</a>
</g>
</g>
<!-- Sub&#45;&gt;Routine -->
<g id="edge7" class="edge"><title>Sub&#45;&gt;Routine</title>
<path fill="none" stroke="#000000" d="M126.027,-102.092C145.941,-112.982 176.673,-129.789 200.222,-142.667"/>
<polygon fill="#000000" stroke="#000000" points="198.725,-145.838 209.178,-147.565 202.084,-139.696 198.725,-145.838"/>
</g>
<!-- Macro -->
<g id="node10" class="node"><title>Macro</title>
<g id="a_node10"><a xlink:href="/type/Macro" xlink:title="Macro">
<ellipse fill="none" stroke="#000000" cx="186.745" cy="-90" rx="35.9954" ry="18"/>
<text text-anchor="middle" x="186.745" y="-86.3" font-family="FreeSans" font-size="14.00" fill="#000000">Macro</text>
</a>
</g>
</g>
<!-- Macro&#45;&gt;Routine -->
<g id="edge8" class="edge"><title>Macro&#45;&gt;Routine</title>
<path fill="none" stroke="#000000" d="M197.645,-107.235C203.376,-115.77 210.525,-126.418 216.946,-135.981"/>
<polygon fill="#000000" stroke="#000000" points="214.096,-138.015 222.576,-144.367 219.908,-134.113 214.096,-138.015"/>
</g>
<!-- Method -->
<g id="node11" class="node"><title>Method</title>
<g id="a_node11"><a xlink:href="/type/Method" xlink:title="Method">
<ellipse fill="none" stroke="#000000" cx="280.745" cy="-90" rx="40.0939" ry="18"/>
<text text-anchor="middle" x="280.745" y="-86.3" font-family="FreeSans" font-size="14.00" fill="#000000">Method</text>
</a>
</g>
</g>
<!-- Method&#45;&gt;Routine -->
<g id="edge9" class="edge"><title>Method&#45;&gt;Routine</title>
<path fill="none" stroke="#000000" d="M269.606,-107.589C263.87,-116.132 256.76,-126.722 250.387,-136.213"/>
<polygon fill="#000000" stroke="#000000" points="247.472,-134.277 244.803,-144.53 253.283,-138.179 247.472,-134.277"/>
</g>
<!-- Submethod -->
<g id="node12" class="node"><title>Submethod</title>
<g id="a_node12"><a xlink:href="/type/Submethod" xlink:title="Submethod">
<ellipse fill="none" stroke="#000000" cx="394.745" cy="-90" rx="55.7903" ry="18"/>
<text text-anchor="middle" x="394.745" y="-86.3" font-family="FreeSans" font-size="14.00" fill="#000000">Submethod</text>
</a>
</g>
</g>
<!-- Submethod&#45;&gt;Routine -->
<g id="edge10" class="edge"><title>Submethod&#45;&gt;Routine</title>
<path fill="none" stroke="#000000" d="M362.936,-104.83C336.54,-116.306 298.955,-132.647 271.125,-144.748"/>
<polygon fill="#000000" stroke="#000000" points="269.498,-141.639 261.722,-148.836 272.289,-148.058 269.498,-141.639"/>
</g>
<!-- Regex -->
<g id="node13" class="node"><title>Regex</title>
<g id="a_node13"><a xlink:href="/type/Regex" xlink:title="Regex">
<ellipse fill="none" stroke="#000000" cx="280.745" cy="-18" rx="36.2938" ry="18"/>
<text text-anchor="middle" x="280.745" y="-14.3" font-family="FreeSans" font-size="14.00" fill="#000000">Regex</text>
</a>
</g>
</g>
<!-- Regex&#45;&gt;Method -->
<g id="edge11" class="edge"><title>Regex&#45;&gt;Method</title>
<path fill="none" stroke="#000000" d="M280.745,-36.3034C280.745,-44.0173 280.745,-53.2875 280.745,-61.8876"/>
<polygon fill="#000000" stroke="#000000" points="277.245,-61.8956 280.745,-71.8957 284.245,-61.8957 277.245,-61.8956"/>
</g>
</g>
</svg>
