<?xml version="1.0" encoding="UTF-8" standalone="no"?>
<!DOCTYPE svg PUBLIC "-//W3C//DTD SVG 1.1//EN"
 "http://www.w3.org/Graphics/SVG/1.1/DTD/svg11.dtd">
<!-- Generated by graphviz version 2.38.0 (20140413.2041)
 -->
<!-- Title: perl6&#45;type&#45;graph Pages: 1 -->
<svg width="494pt" height="332pt"
 viewBox="0.00 0.00 493.69 332.00" xmlns="http://www.w3.org/2000/svg" xmlns:xlink="http://www.w3.org/1999/xlink">
<g id="graph0" class="graph" transform="scale(1 1) rotate(0) translate(4 328)">
<title>perl6&#45;type&#45;graph</title>
<polygon fill="white" stroke="none" points="-4,4 -4,-328 489.686,-328 489.686,4 -4,4"/>
<!-- IO::Spec -->
<g id="node1" class="node"><title>IO::Spec</title>
<g id="a_node1"><a xlink:href="/type/IO::Spec" xlink:title="IO::Spec">
<ellipse fill="none" stroke="#000000" cx="246.293" cy="-162" rx="45.4919" ry="18"/>
<text text-anchor="middle" x="246.293" y="-158.3" font-family="FreeSans" font-size="14.00" fill="#000000">IO::Spec</text>
</a>
</g>
</g>
<!-- Any -->
<g id="node3" class="node"><title>Any</title>
<g id="a_node3"><a xlink:href="/type/Any" xlink:title="Any">
<ellipse fill="none" stroke="#000000" cx="246.293" cy="-234" rx="27" ry="18"/>
<text text-anchor="middle" x="246.293" y="-230.3" font-family="FreeSans" font-size="14.00" fill="#000000">Any</text>
</a>
</g>
</g>
<!-- IO::Spec&#45;&gt;Any -->
<g id="edge1" class="edge"><title>IO::Spec&#45;&gt;Any</title>
<path fill="none" stroke="#000000" d="M246.293,-180.303C246.293,-188.017 246.293,-197.288 246.293,-205.888"/>
<polygon fill="#000000" stroke="#000000" points="242.793,-205.896 246.293,-215.896 249.793,-205.896 242.793,-205.896"/>
</g>
<!-- Mu -->
<g id="node2" class="node"><title>Mu</title>
<g id="a_node2"><a xlink:href="/type/Mu" xlink:title="Mu">
<ellipse fill="none" stroke="#000000" cx="246.293" cy="-306" rx="27" ry="18"/>
<text text-anchor="middle" x="246.293" y="-302.3" font-family="FreeSans" font-size="14.00" fill="#000000">Mu</text>
</a>
</g>
</g>
<!-- Any&#45;&gt;Mu -->
<g id="edge2" class="edge"><title>Any&#45;&gt;Mu</title>
<path fill="none" stroke="#000000" d="M246.293,-252.303C246.293,-260.017 246.293,-269.288 246.293,-277.888"/>
<polygon fill="#000000" stroke="#000000" points="242.793,-277.896 246.293,-287.896 249.793,-277.896 242.793,-277.896"/>
</g>
<!-- IO::Spec::Unix -->
<g id="node4" class="node"><title>IO::Spec::Unix</title>
<g id="a_node4"><a xlink:href="/type/IO::Spec::Unix" xlink:title="IO::Spec::Unix">
<ellipse fill="none" stroke="#000000" cx="246.293" cy="-90" rx="67.6881" ry="18"/>
<text text-anchor="middle" x="246.293" y="-86.3" font-family="FreeSans" font-size="14.00" fill="#000000">IO::Spec::Unix</text>
</a>
</g>
</g>
<!-- IO::Spec::Unix&#45;&gt;IO::Spec -->
<g id="edge3" class="edge"><title>IO::Spec::Unix&#45;&gt;IO::Spec</title>
<path fill="none" stroke="#000000" d="M246.293,-108.303C246.293,-116.017 246.293,-125.288 246.293,-133.888"/>
<polygon fill="#000000" stroke="#000000" points="242.793,-133.896 246.293,-143.896 249.793,-133.896 242.793,-133.896"/>
</g>
<!-- IO::Spec::Cygwin -->
<g id="node5" class="node"><title>IO::Spec::Cygwin</title>
<g id="a_node5"><a xlink:href="/type/IO::Spec::Cygwin" xlink:title="IO::Spec::Cygwin">
<ellipse fill="none" stroke="#000000" cx="79.293" cy="-18" rx="79.0865" ry="18"/>
<text text-anchor="middle" x="79.293" y="-14.3" font-family="FreeSans" font-size="14.00" fill="#000000">IO::Spec::Cygwin</text>
</a>
</g>
</g>
<!-- IO::Spec::Cygwin&#45;&gt;IO::Spec::Unix -->
<g id="edge4" class="edge"><title>IO::Spec::Cygwin&#45;&gt;IO::Spec::Unix</title>
<path fill="none" stroke="#000000" d="M115.529,-34.189C141.016,-44.8718 175.261,-59.2262 202.313,-70.5654"/>
<polygon fill="#000000" stroke="#000000" points="200.98,-73.8016 211.556,-74.4395 203.686,-67.3458 200.98,-73.8016"/>
</g>
<!-- IO::Spec::QNX -->
<g id="node6" class="node"><title>IO::Spec::QNX</title>
<g id="a_node6"><a xlink:href="/type/IO::Spec::QNX" xlink:title="IO::Spec::QNX">
<ellipse fill="none" stroke="#000000" cx="246.293" cy="-18" rx="70.3881" ry="18"/>
<text text-anchor="middle" x="246.293" y="-14.3" font-family="FreeSans" font-size="14.00" fill="#000000">IO::Spec::QNX</text>
</a>
</g>
</g>
<!-- IO::Spec::QNX&#45;&gt;IO::Spec::Unix -->
<g id="edge5" class="edge"><title>IO::Spec::QNX&#45;&gt;IO::Spec::Unix</title>
<path fill="none" stroke="#000000" d="M246.293,-36.3034C246.293,-44.0173 246.293,-53.2875 246.293,-61.8876"/>
<polygon fill="#000000" stroke="#000000" points="242.793,-61.8956 246.293,-71.8957 249.793,-61.8957 242.793,-61.8956"/>
</g>
<!-- IO::Spec::Win32 -->
<g id="node7" class="node"><title>IO::Spec::Win32</title>
<g id="a_node7"><a xlink:href="/type/IO::Spec::Win32" xlink:title="IO::Spec::Win32">
<ellipse fill="none" stroke="#000000" cx="410.293" cy="-18" rx="75.2868" ry="18"/>
<text text-anchor="middle" x="410.293" y="-14.3" font-family="FreeSans" font-size="14.00" fill="#000000">IO::Spec::Win32</text>
</a>
</g>
</g>
<!-- IO::Spec::Win32&#45;&gt;IO::Spec::Unix -->
<g id="edge6" class="edge"><title>IO::Spec::Win32&#45;&gt;IO::Spec::Unix</title>
<path fill="none" stroke="#000000" d="M375.111,-34.0168C350.215,-44.643 316.661,-58.965 290.039,-70.3279"/>
<polygon fill="#000000" stroke="#000000" points="288.397,-67.2232 280.574,-74.368 291.145,-73.6613 288.397,-67.2232"/>
</g>
</g>
</svg>
