<?xml version="1.0" encoding="UTF-8" standalone="no"?>
<!DOCTYPE svg PUBLIC "-//W3C//DTD SVG 1.1//EN"
 "http://www.w3.org/Graphics/SVG/1.1/DTD/svg11.dtd">
<!-- Generated by graphviz version 2.38.0 (20140413.2041)
 -->
<!-- Title: perl6&#45;type&#45;graph Pages: 1 -->
<svg width="1817pt" height="404pt"
 viewBox="0.00 0.00 1817.44 404.00" xmlns="http://www.w3.org/2000/svg" xmlns:xlink="http://www.w3.org/1999/xlink">
<g id="graph0" class="graph" transform="scale(1 1) rotate(0) translate(4 400)">
<title>perl6&#45;type&#45;graph</title>
<polygon fill="white" stroke="none" points="-4,4 -4,-400 1813.44,-400 1813.44,4 -4,4"/>
<!-- X::IO -->
<g id="node1" class="node"><title>X::IO</title>
<g id="a_node1"><a xlink:href="/type/X::IO" xlink:title="X::IO">
<ellipse fill="none" stroke="#6666ff" cx="830.495" cy="-90" rx="31.3957" ry="18"/>
<text text-anchor="middle" x="830.495" y="-86.3" font-family="FreeSans" font-size="14.00" fill="#6666ff">X::IO</text>
</a>
</g>
</g>
<!-- Exception -->
<g id="node4" class="node"><title>Exception</title>
<g id="a_node4"><a xlink:href="/type/Exception" xlink:title="Exception">
<ellipse fill="none" stroke="#000000" cx="907.495" cy="-234" rx="49.2915" ry="18"/>
<text text-anchor="middle" x="907.495" y="-230.3" font-family="FreeSans" font-size="14.00" fill="#000000">Exception</text>
</a>
</g>
</g>
<!-- X::IO&#45;&gt;Exception -->
<g id="edge1" class="edge"><title>X::IO&#45;&gt;Exception</title>
<path fill="none" stroke="#000000" d="M838.959,-107.74C851.994,-133.521 875.495,-180 875.495,-180 875.495,-180 883.906,-193.931 892.104,-207.509"/>
<polygon fill="#000000" stroke="#000000" points="889.205,-209.479 897.37,-216.23 895.197,-205.861 889.205,-209.479"/>
</g>
<!-- X::OS -->
<g id="node5" class="node"><title>X::OS</title>
<g id="a_node5"><a xlink:href="/type/X::OS" xlink:title="X::OS">
<ellipse fill="none" stroke="#6666ff" cx="789.495" cy="-162" rx="34.394" ry="18"/>
<text text-anchor="middle" x="789.495" y="-158.3" font-family="FreeSans" font-size="14.00" fill="#6666ff">X::OS</text>
</a>
</g>
</g>
<!-- X::IO&#45;&gt;X::OS -->
<g id="edge40" class="edge"><title>X::IO&#45;&gt;X::OS</title>
<path fill="none" stroke="#6666ff" d="M820.986,-107.235C816.038,-115.683 809.877,-126.201 804.321,-135.688"/>
<polygon fill="#6666ff" stroke="#6666ff" points="801.271,-133.969 799.237,-144.367 807.311,-137.507 801.271,-133.969"/>
</g>
<!-- Mu -->
<g id="node2" class="node"><title>Mu</title>
<g id="a_node2"><a xlink:href="/type/Mu" xlink:title="Mu">
<ellipse fill="none" stroke="#000000" cx="907.495" cy="-378" rx="27" ry="18"/>
<text text-anchor="middle" x="907.495" y="-374.3" font-family="FreeSans" font-size="14.00" fill="#000000">Mu</text>
</a>
</g>
</g>
<!-- Any -->
<g id="node3" class="node"><title>Any</title>
<g id="a_node3"><a xlink:href="/type/Any" xlink:title="Any">
<ellipse fill="none" stroke="#000000" cx="907.495" cy="-306" rx="27" ry="18"/>
<text text-anchor="middle" x="907.495" y="-302.3" font-family="FreeSans" font-size="14.00" fill="#000000">Any</text>
</a>
</g>
</g>
<!-- Any&#45;&gt;Mu -->
<g id="edge2" class="edge"><title>Any&#45;&gt;Mu</title>
<path fill="none" stroke="#000000" d="M907.495,-324.303C907.495,-332.017 907.495,-341.288 907.495,-349.888"/>
<polygon fill="#000000" stroke="#000000" points="903.995,-349.896 907.495,-359.896 910.995,-349.896 903.995,-349.896"/>
</g>
<!-- Exception&#45;&gt;Any -->
<g id="edge3" class="edge"><title>Exception&#45;&gt;Any</title>
<path fill="none" stroke="#000000" d="M907.495,-252.303C907.495,-260.017 907.495,-269.288 907.495,-277.888"/>
<polygon fill="#000000" stroke="#000000" points="903.995,-277.896 907.495,-287.896 910.995,-277.896 903.995,-277.896"/>
</g>
<!-- X::OS&#45;&gt;Exception -->
<g id="edge4" class="edge"><title>X::OS&#45;&gt;Exception</title>
<path fill="none" stroke="#000000" d="M811.413,-176.002C828.984,-186.426 853.933,-201.226 874.004,-213.133"/>
<polygon fill="#000000" stroke="#000000" points="872.453,-216.282 882.839,-218.374 876.024,-210.261 872.453,-216.282"/>
</g>
<!-- X::IO::Mkdir -->
<g id="node6" class="node"><title>X::IO::Mkdir</title>
<g id="a_node6"><a xlink:href="/type/X::IO::Mkdir" xlink:title="X::IO::Mkdir">
<ellipse fill="none" stroke="#000000" cx="58.4948" cy="-18" rx="58.4896" ry="18"/>
<text text-anchor="middle" x="58.4948" y="-14.3" font-family="FreeSans" font-size="14.00" fill="#000000">X::IO::Mkdir</text>
</a>
</g>
</g>
<!-- X::IO::Mkdir&#45;&gt;X::IO -->
<g id="edge41" class="edge"><title>X::IO::Mkdir&#45;&gt;X::IO</title>
<path fill="none" stroke="#6666ff" d="M102.061,-30.0542C114.858,-33.3012 125.495,-36 125.495,-36 125.495,-36 639.107,-74.612 789.556,-85.9223"/>
<polygon fill="#6666ff" stroke="#6666ff" points="789.514,-89.429 799.749,-86.6886 790.039,-82.4487 789.514,-89.429"/>
</g>
<!-- X::IO::Mkdir&#45;&gt;Exception -->
<g id="edge5" class="edge"><title>X::IO::Mkdir&#45;&gt;Exception</title>
<path fill="none" stroke="#000000" d="M91.7479,-33.006C191.188,-72.1764 478.495,-180 478.495,-180 478.495,-180 734.131,-212.259 850.8,-226.442"/>
<polygon fill="#000000" stroke="#000000" points="850.624,-229.946 860.973,-227.675 851.467,-222.997 850.624,-229.946"/>
</g>
<!-- X::IO::Mkdir&#45;&gt;Exception -->
<g id="edge6" class="edge"><title>X::IO::Mkdir&#45;&gt;Exception</title>
<path fill="none" stroke="#000000" d="M96.4231,-31.768C202.984,-69.8479 496.495,-180 496.495,-180 496.495,-180 739.973,-210.725 852.195,-225.387"/>
<polygon fill="#000000" stroke="#000000" points="851.94,-228.884 862.31,-226.712 852.849,-221.943 851.94,-228.884"/>
</g>
<!-- X::IO::Rmdir -->
<g id="node7" class="node"><title>X::IO::Rmdir</title>
<g id="a_node7"><a xlink:href="/type/X::IO::Rmdir" xlink:title="X::IO::Rmdir">
<ellipse fill="none" stroke="#000000" cx="194.495" cy="-18" rx="59.5901" ry="18"/>
<text text-anchor="middle" x="194.495" y="-14.3" font-family="FreeSans" font-size="14.00" fill="#000000">X::IO::Rmdir</text>
</a>
</g>
</g>
<!-- X::IO::Rmdir&#45;&gt;X::IO -->
<g id="edge42" class="edge"><title>X::IO::Rmdir&#45;&gt;X::IO</title>
<path fill="none" stroke="#6666ff" d="M239.362,-30.0542C252.541,-33.3012 263.495,-36 263.495,-36 263.495,-36 659.652,-73.0305 789.689,-85.1857"/>
<polygon fill="#6666ff" stroke="#6666ff" points="789.728,-88.7045 800.01,-86.1505 790.38,-81.7349 789.728,-88.7045"/>
</g>
<!-- X::IO::Rmdir&#45;&gt;Exception -->
<g id="edge7" class="edge"><title>X::IO::Rmdir&#45;&gt;Exception</title>
<path fill="none" stroke="#000000" d="M224.569,-33.5716C312.755,-73.2032 563.495,-180 563.495,-180 563.495,-180 755.179,-210.326 852.45,-225.099"/>
<polygon fill="#000000" stroke="#000000" points="851.998,-228.57 862.41,-226.607 853.046,-221.649 851.998,-228.57"/>
</g>
<!-- X::IO::Rmdir&#45;&gt;Exception -->
<g id="edge8" class="edge"><title>X::IO::Rmdir&#45;&gt;Exception</title>
<path fill="none" stroke="#000000" d="M230.411,-32.588C326.528,-71.403 581.495,-180 581.495,-180 581.495,-180 761.149,-208.423 853.797,-223.64"/>
<polygon fill="#000000" stroke="#000000" points="853.4,-227.122 863.836,-225.293 854.538,-220.215 853.4,-227.122"/>
</g>
<!-- X::IO::Chdir -->
<g id="node8" class="node"><title>X::IO::Chdir</title>
<g id="a_node8"><a xlink:href="/type/X::IO::Chdir" xlink:title="X::IO::Chdir">
<ellipse fill="none" stroke="#000000" cx="329.495" cy="-18" rx="57.3905" ry="18"/>
<text text-anchor="middle" x="329.495" y="-14.3" font-family="FreeSans" font-size="14.00" fill="#000000">X::IO::Chdir</text>
</a>
</g>
</g>
<!-- X::IO::Chdir&#45;&gt;X::IO -->
<g id="edge43" class="edge"><title>X::IO::Chdir&#45;&gt;X::IO</title>
<path fill="none" stroke="#6666ff" d="M372.411,-30.0542C385.017,-33.3012 395.495,-36 395.495,-36 395.495,-36 682.192,-70.9309 790.085,-84.0765"/>
<polygon fill="#6666ff" stroke="#6666ff" points="789.902,-87.58 800.252,-85.3152 790.749,-80.6314 789.902,-87.58"/>
</g>
<!-- X::IO::Chdir&#45;&gt;Exception -->
<g id="edge9" class="edge"><title>X::IO::Chdir&#45;&gt;Exception</title>
<path fill="none" stroke="#000000" d="M354.828,-34.1465C428.201,-74.2252 634.495,-180 634.495,-180 634.495,-180 774.643,-208.136 854.195,-223.408"/>
<polygon fill="#000000" stroke="#000000" points="853.575,-226.852 864.054,-225.293 854.89,-219.977 853.575,-226.852"/>
</g>
<!-- X::IO::Chdir&#45;&gt;Exception -->
<g id="edge10" class="edge"><title>X::IO::Chdir&#45;&gt;Exception</title>
<path fill="none" stroke="#000000" d="M361.17,-33.1466C442.707,-72.4335 652.495,-180 652.495,-180 652.495,-180 782.022,-206.004 856.528,-221.582"/>
<polygon fill="#000000" stroke="#000000" points="856.152,-225.079 866.657,-223.707 857.589,-218.228 856.152,-225.079"/>
</g>
<!-- X::IO::Link -->
<g id="node9" class="node"><title>X::IO::Link</title>
<g id="a_node9"><a xlink:href="/type/X::IO::Link" xlink:title="X::IO::Link">
<ellipse fill="none" stroke="#000000" cx="457.495" cy="-18" rx="53.0913" ry="18"/>
<text text-anchor="middle" x="457.495" y="-14.3" font-family="FreeSans" font-size="14.00" fill="#000000">X::IO::Link</text>
</a>
</g>
</g>
<!-- X::IO::Link&#45;&gt;X::IO -->
<g id="edge44" class="edge"><title>X::IO::Link&#45;&gt;X::IO</title>
<path fill="none" stroke="#6666ff" d="M497.461,-29.9586C509.458,-33.248 519.495,-36 519.495,-36 519.495,-36 707.33,-68.0105 791.046,-82.2772"/>
<polygon fill="#6666ff" stroke="#6666ff" points="790.51,-85.7363 800.956,-83.9661 791.686,-78.8358 790.51,-85.7363"/>
</g>
<!-- X::IO::Link&#45;&gt;Exception -->
<g id="edge11" class="edge"><title>X::IO::Link&#45;&gt;Exception</title>
<path fill="none" stroke="#000000" d="M477.273,-35.0259C533.794,-75.749 690.495,-180 690.495,-180 690.495,-180 792.105,-205.891 856.361,-221.481"/>
<polygon fill="#000000" stroke="#000000" points="855.789,-224.943 866.331,-223.889 857.433,-218.139 855.789,-224.943"/>
</g>
<!-- X::IO::Link&#45;&gt;Exception -->
<g id="edge12" class="edge"><title>X::IO::Link&#45;&gt;Exception</title>
<path fill="none" stroke="#000000" d="M484,-33.8579C548.737,-73.7148 708.495,-180 708.495,-180 708.495,-180 801.411,-203.676 860.352,-219.379"/>
<polygon fill="#000000" stroke="#000000" points="859.651,-222.815 870.216,-222.018 861.461,-216.052 859.651,-222.815"/>
</g>
<!-- X::IO::Move -->
<g id="node10" class="node"><title>X::IO::Move</title>
<g id="a_node10"><a xlink:href="/type/X::IO::Move" xlink:title="X::IO::Move">
<ellipse fill="none" stroke="#000000" cx="586.495" cy="-18" rx="57.6901" ry="18"/>
<text text-anchor="middle" x="586.495" y="-14.3" font-family="FreeSans" font-size="14.00" fill="#000000">X::IO::Move</text>
</a>
</g>
</g>
<!-- X::IO::Move&#45;&gt;X::IO -->
<g id="edge45" class="edge"><title>X::IO::Move&#45;&gt;X::IO</title>
<path fill="none" stroke="#6666ff" d="M627.61,-30.7954C673.979,-44.0979 748.719,-65.5397 793.377,-78.3513"/>
<polygon fill="#6666ff" stroke="#6666ff" points="792.66,-81.7868 803.237,-81.1802 794.59,-75.0582 792.66,-81.7868"/>
</g>
<!-- X::IO::Move&#45;&gt;Exception -->
<g id="edge13" class="edge"><title>X::IO::Move&#45;&gt;Exception</title>
<path fill="none" stroke="#000000" d="M593.334,-35.9255C622.414,-77.2617 717.495,-180 717.495,-180 717.495,-180 800.045,-205.437 856.752,-221.067"/>
<polygon fill="#000000" stroke="#000000" points="856.095,-224.515 866.664,-223.768 857.936,-217.761 856.095,-224.515"/>
</g>
<!-- X::IO::Move&#45;&gt;Exception -->
<g id="edge14" class="edge"><title>X::IO::Move&#45;&gt;Exception</title>
<path fill="none" stroke="#000000" d="M601.879,-35.6234C639.948,-76.7587 735.495,-180 735.495,-180 735.495,-180 810.232,-203.029 861.176,-218.727"/>
<polygon fill="#000000" stroke="#000000" points="860.431,-222.16 871.018,-221.76 862.492,-215.47 860.431,-222.16"/>
</g>
<!-- X::IO::Move&#45;&gt;Exception -->
<g id="edge15" class="edge"><title>X::IO::Move&#45;&gt;Exception</title>
<path fill="none" stroke="#000000" d="M609.605,-34.7305C656.545,-75.2423 753.495,-180 753.495,-180 753.495,-180 821.278,-200.887 867.288,-216.436"/>
<polygon fill="#000000" stroke="#000000" points="866.434,-219.843 877.029,-219.763 868.696,-213.219 866.434,-219.843"/>
</g>
<!-- X::IO::Dir -->
<g id="node11" class="node"><title>X::IO::Dir</title>
<g id="a_node11"><a xlink:href="/type/X::IO::Dir" xlink:title="X::IO::Dir">
<ellipse fill="none" stroke="#000000" cx="709.495" cy="-18" rx="47.3916" ry="18"/>
<text text-anchor="middle" x="709.495" y="-14.3" font-family="FreeSans" font-size="14.00" fill="#000000">X::IO::Dir</text>
</a>
</g>
</g>
<!-- X::IO::Dir&#45;&gt;X::IO -->
<g id="edge46" class="edge"><title>X::IO::Dir&#45;&gt;X::IO</title>
<path fill="none" stroke="#6666ff" d="M734.566,-33.504C753.655,-44.5473 780.01,-59.7937 800.266,-71.5121"/>
<polygon fill="#6666ff" stroke="#6666ff" points="798.687,-74.6421 809.095,-76.6202 802.192,-68.583 798.687,-74.6421"/>
</g>
<!-- X::IO::Dir&#45;&gt;Exception -->
<g id="edge16" class="edge"><title>X::IO::Dir&#45;&gt;Exception</title>
<path fill="none" stroke="#000000" d="M704.56,-35.9255C704.884,-77.2617 728.495,-180 728.495,-180 728.495,-180 804.223,-204.929 857.613,-220.593"/>
<polygon fill="#000000" stroke="#000000" points="856.719,-223.978 867.299,-223.402 858.669,-217.255 856.719,-223.978"/>
</g>
<!-- X::IO::Dir&#45;&gt;Exception -->
<g id="edge17" class="edge"><title>X::IO::Dir&#45;&gt;Exception</title>
<path fill="none" stroke="#000000" d="M713.454,-36.2298C722.999,-77.7634 746.495,-180 746.495,-180 746.495,-180 815.005,-202.553 862.643,-218.235"/>
<polygon fill="#000000" stroke="#000000" points="861.57,-221.566 872.163,-221.369 863.759,-214.917 861.57,-221.566"/>
</g>
<!-- X::IO::Dir&#45;&gt;Exception -->
<g id="edge18" class="edge"><title>X::IO::Dir&#45;&gt;Exception</title>
<path fill="none" stroke="#000000" d="M722.072,-35.6234C740.769,-76.7587 764.495,-180 764.495,-180 764.495,-180 826.323,-200.353 869.066,-215.834"/>
<polygon fill="#000000" stroke="#000000" points="868.075,-219.199 878.669,-219.351 870.482,-212.626 868.075,-219.199"/>
</g>
<!-- X::IO::Copy -->
<g id="node12" class="node"><title>X::IO::Copy</title>
<g id="a_node12"><a xlink:href="/type/X::IO::Copy" xlink:title="X::IO::Copy">
<ellipse fill="none" stroke="#000000" cx="831.495" cy="-18" rx="56.59" ry="18"/>
<text text-anchor="middle" x="831.495" y="-14.3" font-family="FreeSans" font-size="14.00" fill="#000000">X::IO::Copy</text>
</a>
</g>
</g>
<!-- X::IO::Copy&#45;&gt;X::IO -->
<g id="edge47" class="edge"><title>X::IO::Copy&#45;&gt;X::IO</title>
<path fill="none" stroke="#6666ff" d="M831.248,-36.3034C831.137,-44.0173 831.005,-53.2875 830.882,-61.8876"/>
<polygon fill="#6666ff" stroke="#6666ff" points="827.382,-61.8467 830.739,-71.8957 834.382,-61.9467 827.382,-61.8467"/>
</g>
<!-- X::IO::Copy&#45;&gt;Exception -->
<g id="edge19" class="edge"><title>X::IO::Copy&#45;&gt;Exception</title>
<path fill="none" stroke="#000000" d="M830.362,-36.0613C837.45,-51.5549 852.495,-72 852.495,-72 852.495,-72 873.088,-161.609 891.022,-207.123"/>
<polygon fill="#000000" stroke="#000000" points="887.812,-208.518 894.918,-216.377 894.263,-205.802 887.812,-208.518"/>
</g>
<!-- X::IO::Copy&#45;&gt;Exception -->
<g id="edge20" class="edge"><title>X::IO::Copy&#45;&gt;Exception</title>
<path fill="none" stroke="#000000" d="M843.835,-35.7695C855.26,-51.2969 870.495,-72 870.495,-72 870.495,-72 890.717,-159.994 901.261,-205.876"/>
<polygon fill="#000000" stroke="#000000" points="897.884,-206.808 903.535,-215.77 904.706,-205.24 897.884,-206.808"/>
</g>
<!-- X::IO::Copy&#45;&gt;Exception -->
<g id="edge21" class="edge"><title>X::IO::Copy&#45;&gt;Exception</title>
<path fill="none" stroke="#000000" d="M855.956,-34.3298C872.293,-49.9827 888.495,-72 888.495,-72 888.495,-72 908.731,-160.054 911.992,-205.923"/>
<polygon fill="#000000" stroke="#000000" points="908.502,-206.235 912.43,-216.074 915.495,-205.933 908.502,-206.235"/>
</g>
<!-- X::IO::Chmod -->
<g id="node13" class="node"><title>X::IO::Chmod</title>
<g id="a_node13"><a xlink:href="/type/X::IO::Chmod" xlink:title="X::IO::Chmod">
<ellipse fill="none" stroke="#000000" cx="970.495" cy="-18" rx="64.189" ry="18"/>
<text text-anchor="middle" x="970.495" y="-14.3" font-family="FreeSans" font-size="14.00" fill="#000000">X::IO::Chmod</text>
</a>
</g>
</g>
<!-- X::IO::Chmod&#45;&gt;X::IO -->
<g id="edge48" class="edge"><title>X::IO::Chmod&#45;&gt;X::IO</title>
<path fill="none" stroke="#6666ff" d="M940.461,-34.0168C917.582,-45.4565 886.136,-61.1795 862.73,-72.8825"/>
<polygon fill="#6666ff" stroke="#6666ff" points="860.936,-69.8664 853.557,-77.4691 864.066,-76.1274 860.936,-69.8664"/>
</g>
<!-- X::IO::Chmod&#45;&gt;Exception -->
<g id="edge22" class="edge"><title>X::IO::Chmod&#45;&gt;Exception</title>
<path fill="none" stroke="#000000" d="M958.411,-35.9255C941.277,-77.2617 921.495,-180 921.495,-180 921.495,-180 913.502,-193.239 907.752,-206.483"/>
<polygon fill="#000000" stroke="#000000" points="904.438,-205.349 904.109,-215.939 910.97,-207.866 904.438,-205.349"/>
</g>
<!-- X::IO::Chmod&#45;&gt;Exception -->
<g id="edge23" class="edge"><title>X::IO::Chmod&#45;&gt;Exception</title>
<path fill="none" stroke="#000000" d="M967.177,-36.2298C959.18,-77.7634 939.495,-180 939.495,-180 939.495,-180 931.083,-193.931 922.886,-207.509"/>
<polygon fill="#000000" stroke="#000000" points="919.792,-205.861 917.62,-216.23 925.785,-209.479 919.792,-205.861"/>
</g>
<!-- X::IO::Chmod&#45;&gt;Exception -->
<g id="edge24" class="edge"><title>X::IO::Chmod&#45;&gt;Exception</title>
<path fill="none" stroke="#000000" d="M976.069,-36.2298C977.18,-77.7634 957.495,-180 957.495,-180 957.495,-180 948.031,-195.674 936.502,-209.975"/>
<polygon fill="#000000" stroke="#000000" points="933.763,-207.793 929.931,-217.67 939.086,-212.338 933.763,-207.793"/>
</g>
<!-- X::IO::Rename -->
<g id="node14" class="node"><title>X::IO::Rename</title>
<g id="a_node14"><a xlink:href="/type/X::IO::Rename" xlink:title="X::IO::Rename">
<ellipse fill="none" stroke="#000000" cx="1122.49" cy="-18" rx="69.5877" ry="18"/>
<text text-anchor="middle" x="1122.49" y="-14.3" font-family="FreeSans" font-size="14.00" fill="#000000">X::IO::Rename</text>
</a>
</g>
</g>
<!-- X::IO::Rename&#45;&gt;X::IO -->
<g id="edge49" class="edge"><title>X::IO::Rename&#45;&gt;X::IO</title>
<path fill="none" stroke="#6666ff" d="M1073.29,-30.7954C1015.54,-44.6397 921.015,-67.2999 868.568,-79.8728"/>
<polygon fill="#6666ff" stroke="#6666ff" points="867.572,-76.5124 858.663,-82.2473 869.204,-83.3195 867.572,-76.5124"/>
</g>
<!-- X::IO::Rename&#45;&gt;Exception -->
<g id="edge25" class="edge"><title>X::IO::Rename&#45;&gt;Exception</title>
<path fill="none" stroke="#000000" d="M1099.24,-35.0259C1052.68,-75.749 957.495,-180 957.495,-180 957.495,-180 938.233,-195.013 922.926,-209.058"/>
<polygon fill="#000000" stroke="#000000" points="920.227,-206.796 915.405,-216.23 925.057,-211.862 920.227,-206.796"/>
</g>
<!-- X::IO::Rename&#45;&gt;Exception -->
<g id="edge26" class="edge"><title>X::IO::Rename&#45;&gt;Exception</title>
<path fill="none" stroke="#000000" d="M1107.32,-35.6234C1069.76,-76.7587 975.495,-180 975.495,-180 975.495,-180 954.319,-196.505 935.601,-211.094"/>
<polygon fill="#000000" stroke="#000000" points="933.265,-208.477 927.529,-217.385 937.568,-213.998 933.265,-208.477"/>
</g>
<!-- X::IO::Rename&#45;&gt;Exception -->
<g id="edge27" class="edge"><title>X::IO::Rename&#45;&gt;Exception</title>
<path fill="none" stroke="#000000" d="M1115.87,-35.9255C1087.3,-77.2617 993.495,-180 993.495,-180 993.495,-180 969.428,-198.758 946.14,-213.955"/>
<polygon fill="#000000" stroke="#000000" points="944.208,-211.036 937.642,-219.351 947.96,-216.945 944.208,-211.036"/>
</g>
<!-- X::IO::Unlink -->
<g id="node15" class="node"><title>X::IO::Unlink</title>
<g id="a_node15"><a xlink:href="/type/X::IO::Unlink" xlink:title="X::IO::Unlink">
<ellipse fill="none" stroke="#000000" cx="1271.49" cy="-18" rx="61.1893" ry="18"/>
<text text-anchor="middle" x="1271.49" y="-14.3" font-family="FreeSans" font-size="14.00" fill="#000000">X::IO::Unlink</text>
</a>
</g>
</g>
<!-- X::IO::Unlink&#45;&gt;X::IO -->
<g id="edge50" class="edge"><title>X::IO::Unlink&#45;&gt;X::IO</title>
<path fill="none" stroke="#6666ff" d="M1225.98,-30.0542C1212.61,-33.3012 1201.49,-36 1201.49,-36 1201.49,-36 966.314,-69.5972 870.447,-83.2925"/>
<polygon fill="#6666ff" stroke="#6666ff" points="869.946,-79.8286 860.541,-84.7077 870.936,-86.7582 869.946,-79.8286"/>
</g>
<!-- X::IO::Unlink&#45;&gt;Exception -->
<g id="edge28" class="edge"><title>X::IO::Unlink&#45;&gt;Exception</title>
<path fill="none" stroke="#000000" d="M1240.77,-33.5716C1170,-73.2032 1005.49,-180 1005.49,-180 1005.49,-180 966.496,-197.819 937.232,-212.792"/>
<polygon fill="#000000" stroke="#000000" points="935.389,-209.806 928.134,-217.528 938.621,-216.015 935.389,-209.806"/>
</g>
<!-- X::IO::Unlink&#45;&gt;Exception -->
<g id="edge29" class="edge"><title>X::IO::Unlink&#45;&gt;Exception</title>
<path fill="none" stroke="#000000" d="M1247.26,-34.7305C1184.86,-75.2423 1023.49,-180 1023.49,-180 1023.49,-180 979.998,-199.874 946.275,-215.282"/>
<polygon fill="#000000" stroke="#000000" points="944.708,-212.149 937.067,-219.489 947.617,-218.516 944.708,-212.149"/>
</g>
<!-- X::IO::Unlink&#45;&gt;Exception -->
<g id="edge30" class="edge"><title>X::IO::Unlink&#45;&gt;Exception</title>
<path fill="none" stroke="#000000" d="M1254.65,-35.6234C1200.52,-76.7587 1041.49,-180 1041.49,-180 1041.49,-180 992.757,-202.268 953.562,-217.936"/>
<polygon fill="#000000" stroke="#000000" points="951.864,-214.843 943.838,-221.76 954.426,-221.358 951.864,-214.843"/>
</g>
<!-- X::IO::Symlink -->
<g id="node16" class="node"><title>X::IO::Symlink</title>
<g id="a_node16"><a xlink:href="/type/X::IO::Symlink" xlink:title="X::IO::Symlink">
<ellipse fill="none" stroke="#000000" cx="1418.49" cy="-18" rx="67.6881" ry="18"/>
<text text-anchor="middle" x="1418.49" y="-14.3" font-family="FreeSans" font-size="14.00" fill="#000000">X::IO::Symlink</text>
</a>
</g>
</g>
<!-- X::IO::Symlink&#45;&gt;X::IO -->
<g id="edge51" class="edge"><title>X::IO::Symlink&#45;&gt;X::IO</title>
<path fill="none" stroke="#6666ff" d="M1367.99,-30.1496C1353.48,-33.3539 1341.49,-36 1341.49,-36 1341.49,-36 991.63,-72.2873 870.889,-84.8104"/>
<polygon fill="#6666ff" stroke="#6666ff" points="870.515,-81.3303 860.93,-85.8433 871.238,-88.2929 870.515,-81.3303"/>
</g>
<!-- X::IO::Symlink&#45;&gt;Exception -->
<g id="edge31" class="edge"><title>X::IO::Symlink&#45;&gt;Exception</title>
<path fill="none" stroke="#000000" d="M1381.13,-33.006C1289.52,-72.1764 1064.49,-180 1064.49,-180 1064.49,-180 994.838,-201.096 947.938,-216.669"/>
<polygon fill="#000000" stroke="#000000" points="946.676,-213.401 938.308,-219.899 948.902,-220.037 946.676,-213.401"/>
</g>
<!-- X::IO::Symlink&#45;&gt;Exception -->
<g id="edge32" class="edge"><title>X::IO::Symlink&#45;&gt;Exception</title>
<path fill="none" stroke="#000000" d="M1387.19,-34.0019C1303.77,-73.9702 1082.49,-180 1082.49,-180 1082.49,-180 1005.71,-203.254 953.867,-218.956"/>
<polygon fill="#000000" stroke="#000000" points="952.737,-215.641 944.181,-221.889 954.766,-222.341 952.737,-215.641"/>
</g>
<!-- X::IO::Symlink&#45;&gt;Exception -->
<g id="edge33" class="edge"><title>X::IO::Symlink&#45;&gt;Exception</title>
<path fill="none" stroke="#000000" d="M1393.95,-34.8779C1318.59,-75.4958 1100.49,-180 1100.49,-180 1100.49,-180 1015.71,-205.678 958.096,-221.288"/>
<polygon fill="#000000" stroke="#000000" points="957.145,-217.919 948.392,-223.889 958.958,-224.681 957.145,-217.919"/>
</g>
<!-- X::IO::DoesNotExist -->
<g id="node17" class="node"><title>X::IO::DoesNotExist</title>
<g id="a_node17"><a xlink:href="/type/X::IO::DoesNotExist" xlink:title="X::IO::DoesNotExist">
<ellipse fill="none" stroke="#000000" cx="1593.49" cy="-18" rx="89.8845" ry="18"/>
<text text-anchor="middle" x="1593.49" y="-14.3" font-family="FreeSans" font-size="14.00" fill="#000000">X::IO::DoesNotExist</text>
</a>
</g>
</g>
<!-- X::IO::DoesNotExist&#45;&gt;X::IO -->
<g id="edge52" class="edge"><title>X::IO::DoesNotExist&#45;&gt;X::IO</title>
<path fill="none" stroke="#6666ff" d="M1528.13,-30.3392C1510.15,-33.4576 1495.49,-36 1495.49,-36 1495.49,-36 1016.3,-74.1911 871.468,-85.7345"/>
<polygon fill="#6666ff" stroke="#6666ff" points="870.926,-82.2665 861.235,-86.55 871.482,-89.2444 870.926,-82.2665"/>
</g>
<!-- X::IO::DoesNotExist&#45;&gt;Exception -->
<g id="edge34" class="edge"><title>X::IO::DoesNotExist&#45;&gt;Exception</title>
<path fill="none" stroke="#000000" d="M1546.06,-33.2877C1428.1,-72.6904 1133.49,-180 1133.49,-180 1133.49,-180 1021.92,-204.236 955.234,-219.93"/>
<polygon fill="#000000" stroke="#000000" points="954.263,-216.563 945.34,-222.275 955.877,-223.374 954.263,-216.563"/>
</g>
<!-- X::IO::DoesNotExist&#45;&gt;Exception -->
<g id="edge35" class="edge"><title>X::IO::DoesNotExist&#45;&gt;Exception</title>
<path fill="none" stroke="#000000" d="M1552.31,-34.0019C1442.58,-73.9702 1151.49,-180 1151.49,-180 1151.49,-180 1030.68,-206.243 959.073,-221.797"/>
<polygon fill="#000000" stroke="#000000" points="957.915,-218.466 948.886,-224.009 959.401,-225.307 957.915,-218.466"/>
</g>
<!-- X::IO::DoesNotExist&#45;&gt;Exception -->
<g id="edge36" class="edge"><title>X::IO::DoesNotExist&#45;&gt;Exception</title>
<path fill="none" stroke="#000000" d="M1558.86,-34.7305C1457.09,-75.2423 1169.49,-180 1169.49,-180 1169.49,-180 1038.49,-208.455 961.387,-223.666"/>
<polygon fill="#000000" stroke="#000000" points="960.486,-220.276 951.344,-225.631 961.83,-227.145 960.486,-220.276"/>
</g>
<!-- X::IO::Cwd -->
<g id="node18" class="node"><title>X::IO::Cwd</title>
<g id="a_node18"><a xlink:href="/type/X::IO::Cwd" xlink:title="X::IO::Cwd">
<ellipse fill="none" stroke="#000000" cx="1755.49" cy="-18" rx="53.8905" ry="18"/>
<text text-anchor="middle" x="1755.49" y="-14.3" font-family="FreeSans" font-size="14.00" fill="#000000">X::IO::Cwd</text>
</a>
</g>
</g>
<!-- X::IO::Cwd&#45;&gt;X::IO -->
<g id="edge53" class="edge"><title>X::IO::Cwd&#45;&gt;X::IO</title>
<path fill="none" stroke="#6666ff" d="M1714.88,-29.9586C1702.69,-33.248 1692.49,-36 1692.49,-36 1692.49,-36 1042.96,-75.9366 871.555,-86.4754"/>
<polygon fill="#6666ff" stroke="#6666ff" points="871.194,-82.9909 861.428,-87.0981 871.624,-89.9777 871.194,-82.9909"/>
</g>
<!-- X::IO::Cwd&#45;&gt;Exception -->
<g id="edge37" class="edge"><title>X::IO::Cwd&#45;&gt;Exception</title>
<path fill="none" stroke="#000000" d="M1713.93,-29.5637C1586.54,-65.3818 1213.49,-180 1213.49,-180 1213.49,-180 1047.05,-207.227 959.385,-222.651"/>
<polygon fill="#000000" stroke="#000000" points="958.595,-219.237 949.358,-224.426 959.814,-226.13 958.595,-219.237"/>
</g>
<!-- X::IO::Cwd&#45;&gt;Exception -->
<g id="edge38" class="edge"><title>X::IO::Cwd&#45;&gt;Exception</title>
<path fill="none" stroke="#000000" d="M1716.96,-30.8387C1595.95,-68.0197 1231.49,-180 1231.49,-180 1231.49,-180 1053.7,-209.084 961.52,-224.163"/>
<polygon fill="#000000" stroke="#000000" points="960.832,-220.729 951.528,-225.797 961.962,-227.637 960.832,-220.729"/>
</g>
<!-- X::IO::Cwd&#45;&gt;Exception -->
<g id="edge39" class="edge"><title>X::IO::Cwd&#45;&gt;Exception</title>
<path fill="none" stroke="#000000" d="M1720.94,-32.0389C1606.31,-70.3675 1249.49,-180 1249.49,-180 1249.49,-180 1060.39,-210.934 963.095,-225.536"/>
<polygon fill="#000000" stroke="#000000" points="962.497,-222.087 953.123,-227.023 963.53,-229.01 962.497,-222.087"/>
</g>
</g>
</svg>
