<?xml version="1.0" encoding="UTF-8" standalone="no"?>
<!DOCTYPE svg PUBLIC "-//W3C//DTD SVG 1.1//EN"
 "http://www.w3.org/Graphics/SVG/1.1/DTD/svg11.dtd">
<!-- Generated by graphviz version 2.38.0 (20140413.2041)
 -->
<!-- Title: perl6&#45;type&#45;graph Pages: 1 -->
<svg width="1052pt" height="332pt"
 viewBox="0.00 0.00 1051.54 332.00" xmlns="http://www.w3.org/2000/svg" xmlns:xlink="http://www.w3.org/1999/xlink">
<g id="graph0" class="graph" transform="scale(1 1) rotate(0) translate(4 328)">
<title>perl6&#45;type&#45;graph</title>
<polygon fill="white" stroke="none" points="-4,4 -4,-328 1047.54,-328 1047.54,4 -4,4"/>
<!-- Numeric -->
<g id="node1" class="node"><title>Numeric</title>
<g id="a_node1"><a xlink:href="/type/Numeric" xlink:title="Numeric">
<ellipse fill="none" stroke="#6666ff" cx="781" cy="-234" rx="44.393" ry="18"/>
<text text-anchor="middle" x="781" y="-230.3" font-family="FreeSans" font-size="14.00" fill="#6666ff">Numeric</text>
</a>
</g>
</g>
<!-- Mu -->
<g id="node2" class="node"><title>Mu</title>
<g id="a_node2"><a xlink:href="/type/Mu" xlink:title="Mu">
<ellipse fill="none" stroke="#000000" cx="551" cy="-306" rx="27" ry="18"/>
<text text-anchor="middle" x="551" y="-302.3" font-family="FreeSans" font-size="14.00" fill="#000000">Mu</text>
</a>
</g>
</g>
<!-- Any -->
<g id="node3" class="node"><title>Any</title>
<g id="a_node3"><a xlink:href="/type/Any" xlink:title="Any">
<ellipse fill="none" stroke="#000000" cx="551" cy="-234" rx="27" ry="18"/>
<text text-anchor="middle" x="551" y="-230.3" font-family="FreeSans" font-size="14.00" fill="#000000">Any</text>
</a>
</g>
</g>
<!-- Any&#45;&gt;Mu -->
<g id="edge1" class="edge"><title>Any&#45;&gt;Mu</title>
<path fill="none" stroke="#000000" d="M551,-252.303C551,-260.017 551,-269.288 551,-277.888"/>
<polygon fill="#000000" stroke="#000000" points="547.5,-277.896 551,-287.896 554.5,-277.896 547.5,-277.896"/>
</g>
<!-- Cool -->
<g id="node4" class="node"><title>Cool</title>
<g id="a_node4"><a xlink:href="/type/Cool" xlink:title="Cool">
<ellipse fill="none" stroke="#000000" cx="551" cy="-162" rx="28.6953" ry="18"/>
<text text-anchor="middle" x="551" y="-158.3" font-family="FreeSans" font-size="14.00" fill="#000000">Cool</text>
</a>
</g>
</g>
<!-- Cool&#45;&gt;Any -->
<g id="edge2" class="edge"><title>Cool&#45;&gt;Any</title>
<path fill="none" stroke="#000000" d="M551,-180.303C551,-188.017 551,-197.288 551,-205.888"/>
<polygon fill="#000000" stroke="#000000" points="547.5,-205.896 551,-215.896 554.5,-205.896 547.5,-205.896"/>
</g>
<!-- Complex -->
<g id="node5" class="node"><title>Complex</title>
<g id="a_node5"><a xlink:href="/type/Complex" xlink:title="Complex">
<ellipse fill="none" stroke="#000000" cx="871" cy="-90" rx="45.4919" ry="18"/>
<text text-anchor="middle" x="871" y="-86.3" font-family="FreeSans" font-size="14.00" fill="#000000">Complex</text>
</a>
</g>
</g>
<!-- Complex&#45;&gt;Numeric -->
<g id="edge23" class="edge"><title>Complex&#45;&gt;Numeric</title>
<path fill="none" stroke="#6666ff" d="M862.912,-107.74C850.456,-133.521 828,-180 828,-180 828,-180 814.601,-195.11 802.111,-209.194"/>
<polygon fill="#6666ff" stroke="#6666ff" points="799.373,-207.006 795.357,-216.81 804.611,-211.651 799.373,-207.006"/>
</g>
<!-- Complex&#45;&gt;Cool -->
<g id="edge3" class="edge"><title>Complex&#45;&gt;Cool</title>
<path fill="none" stroke="#000000" d="M836.495,-101.863C825.912,-105.194 817,-108 817,-108 817,-108 661.287,-139.026 588.135,-153.601"/>
<polygon fill="#000000" stroke="#000000" points="587.093,-150.24 577.969,-155.626 588.461,-157.105 587.093,-150.24"/>
</g>
<!-- Real -->
<g id="node6" class="node"><title>Real</title>
<g id="a_node6"><a xlink:href="/type/Real" xlink:title="Real">
<ellipse fill="none" stroke="#6666ff" cx="448" cy="-162" rx="28.6953" ry="18"/>
<text text-anchor="middle" x="448" y="-158.3" font-family="FreeSans" font-size="14.00" fill="#6666ff">Real</text>
</a>
</g>
</g>
<!-- Real&#45;&gt;Numeric -->
<g id="edge24" class="edge"><title>Real&#45;&gt;Numeric</title>
<path fill="none" stroke="#6666ff" d="M474.063,-169.817C492.147,-174.546 513,-180 513,-180 513,-180 654.692,-208.021 732.022,-223.314"/>
<polygon fill="#6666ff" stroke="#6666ff" points="731.541,-226.787 742.03,-225.293 732.9,-219.92 731.541,-226.787"/>
</g>
<!-- Stringy -->
<g id="node7" class="node"><title>Stringy</title>
<g id="a_node7"><a xlink:href="/type/Stringy" xlink:title="Stringy">
<ellipse fill="none" stroke="#6666ff" cx="781" cy="-162" rx="38.1938" ry="18"/>
<text text-anchor="middle" x="781" y="-158.3" font-family="FreeSans" font-size="14.00" fill="#6666ff">Stringy</text>
</a>
</g>
</g>
<!-- Str -->
<g id="node8" class="node"><title>Str</title>
<g id="a_node8"><a xlink:href="/type/Str" xlink:title="Str">
<ellipse fill="none" stroke="#000000" cx="781" cy="-90" rx="27" ry="18"/>
<text text-anchor="middle" x="781" y="-86.3" font-family="FreeSans" font-size="14.00" fill="#000000">Str</text>
</a>
</g>
</g>
<!-- Str&#45;&gt;Cool -->
<g id="edge4" class="edge"><title>Str&#45;&gt;Cool</title>
<path fill="none" stroke="#000000" d="M756.821,-98.3589C715.989,-110.786 633.22,-135.977 586.03,-150.339"/>
<polygon fill="#000000" stroke="#000000" points="584.795,-147.056 576.248,-153.316 586.834,-153.753 584.795,-147.056"/>
</g>
<!-- Str&#45;&gt;Stringy -->
<g id="edge25" class="edge"><title>Str&#45;&gt;Stringy</title>
<path fill="none" stroke="#6666ff" d="M781,-108.303C781,-116.017 781,-125.288 781,-133.888"/>
<polygon fill="#6666ff" stroke="#6666ff" points="777.5,-133.896 781,-143.896 784.5,-133.896 777.5,-133.896"/>
</g>
<!-- ComplexStr -->
<g id="node9" class="node"><title>ComplexStr</title>
<g id="a_node9"><a xlink:href="/type/ComplexStr" xlink:title="ComplexStr">
<ellipse fill="none" stroke="#000000" cx="987" cy="-18" rx="56.59" ry="18"/>
<text text-anchor="middle" x="987" y="-14.3" font-family="FreeSans" font-size="14.00" fill="#000000">ComplexStr</text>
</a>
</g>
</g>
<!-- ComplexStr&#45;&gt;Complex -->
<g id="edge5" class="edge"><title>ComplexStr&#45;&gt;Complex</title>
<path fill="none" stroke="#000000" d="M961.83,-34.189C944.765,-44.4865 922.047,-58.1955 903.601,-69.327"/>
<polygon fill="#000000" stroke="#000000" points="901.686,-66.3949 894.932,-74.5583 905.302,-72.3883 901.686,-66.3949"/>
</g>
<!-- ComplexStr&#45;&gt;Str -->
<g id="edge6" class="edge"><title>ComplexStr&#45;&gt;Str</title>
<path fill="none" stroke="#000000" d="M947.999,-31.1593C897.809,-46.8067 817,-72 817,-72 817,-72 814.82,-73.0296 811.532,-74.5819"/>
<polygon fill="#000000" stroke="#000000" points="809.905,-71.4796 802.357,-78.9146 812.894,-77.8093 809.905,-71.4796"/>
</g>
<!-- Rational -->
<g id="node10" class="node"><title>Rational</title>
<g id="a_node10"><a xlink:href="/type/Rational" xlink:title="Rational">
<ellipse fill="none" stroke="#6666ff" cx="109" cy="-90" rx="42.7926" ry="18"/>
<text text-anchor="middle" x="109" y="-86.3" font-family="FreeSans" font-size="14.00" fill="#6666ff">Rational</text>
</a>
</g>
</g>
<!-- Rational&#45;&gt;Real -->
<g id="edge26" class="edge"><title>Rational&#45;&gt;Real</title>
<path fill="none" stroke="#6666ff" d="M146.574,-98.7587C212.028,-112.274 346.169,-139.973 411.128,-153.386"/>
<polygon fill="#6666ff" stroke="#6666ff" points="410.437,-156.817 420.938,-155.412 411.853,-149.962 410.437,-156.817"/>
</g>
<!-- Instant -->
<g id="node11" class="node"><title>Instant</title>
<g id="a_node11"><a xlink:href="/type/Instant" xlink:title="Instant">
<ellipse fill="none" stroke="#000000" cx="421" cy="-90" rx="37.0935" ry="18"/>
<text text-anchor="middle" x="421" y="-86.3" font-family="FreeSans" font-size="14.00" fill="#000000">Instant</text>
</a>
</g>
</g>
<!-- Instant&#45;&gt;Cool -->
<g id="edge7" class="edge"><title>Instant&#45;&gt;Cool</title>
<path fill="none" stroke="#000000" d="M444.844,-103.839C466.233,-115.356 497.722,-132.312 520.851,-144.766"/>
<polygon fill="#000000" stroke="#000000" points="519.423,-147.972 529.887,-149.632 522.742,-141.809 519.423,-147.972"/>
</g>
<!-- Instant&#45;&gt;Real -->
<g id="edge27" class="edge"><title>Instant&#45;&gt;Real</title>
<path fill="none" stroke="#6666ff" d="M427.536,-107.945C430.62,-115.941 434.372,-125.669 437.817,-134.6"/>
<polygon fill="#6666ff" stroke="#6666ff" points="434.66,-136.141 441.524,-144.211 441.191,-133.621 434.66,-136.141"/>
</g>
<!-- Duration -->
<g id="node12" class="node"><title>Duration</title>
<g id="a_node12"><a xlink:href="/type/Duration" xlink:title="Duration">
<ellipse fill="none" stroke="#000000" cx="322" cy="-90" rx="44.393" ry="18"/>
<text text-anchor="middle" x="322" y="-86.3" font-family="FreeSans" font-size="14.00" fill="#000000">Duration</text>
</a>
</g>
</g>
<!-- Duration&#45;&gt;Cool -->
<g id="edge8" class="edge"><title>Duration&#45;&gt;Cool</title>
<path fill="none" stroke="#000000" d="M355.566,-101.766C366.084,-105.14 375,-108 375,-108 375,-108 464.752,-135.028 516.07,-150.481"/>
<polygon fill="#000000" stroke="#000000" points="515.199,-153.874 525.783,-153.406 517.217,-147.172 515.199,-153.874"/>
</g>
<!-- Duration&#45;&gt;Real -->
<g id="edge28" class="edge"><title>Duration&#45;&gt;Real</title>
<path fill="none" stroke="#6666ff" d="M347.195,-104.997C367.681,-116.378 396.629,-132.461 418.252,-144.473"/>
<polygon fill="#6666ff" stroke="#6666ff" points="416.583,-147.55 427.025,-149.347 419.983,-141.431 416.583,-147.55"/>
</g>
<!-- Num -->
<g id="node13" class="node"><title>Num</title>
<g id="a_node13"><a xlink:href="/type/Num" xlink:title="Num">
<ellipse fill="none" stroke="#000000" cx="654" cy="-90" rx="29.795" ry="18"/>
<text text-anchor="middle" x="654" y="-86.3" font-family="FreeSans" font-size="14.00" fill="#000000">Num</text>
</a>
</g>
</g>
<!-- Num&#45;&gt;Cool -->
<g id="edge9" class="edge"><title>Num&#45;&gt;Cool</title>
<path fill="none" stroke="#000000" d="M634.626,-104.166C618.846,-114.891 596.365,-130.17 578.685,-142.185"/>
<polygon fill="#000000" stroke="#000000" points="576.242,-139.613 569.939,-148.129 580.177,-145.403 576.242,-139.613"/>
</g>
<!-- Num&#45;&gt;Real -->
<g id="edge29" class="edge"><title>Num&#45;&gt;Real</title>
<path fill="none" stroke="#6666ff" d="M630.414,-101.281C622.201,-104.861 615,-108 615,-108 615,-108 531.492,-134.503 482.58,-150.026"/>
<polygon fill="#6666ff" stroke="#6666ff" points="481.474,-146.704 473.002,-153.065 483.592,-153.376 481.474,-146.704"/>
</g>
<!-- Int -->
<g id="node14" class="node"><title>Int</title>
<g id="a_node14"><a xlink:href="/type/Int" xlink:title="Int">
<ellipse fill="none" stroke="#000000" cx="579" cy="-90" rx="27" ry="18"/>
<text text-anchor="middle" x="579" y="-86.3" font-family="FreeSans" font-size="14.00" fill="#000000">Int</text>
</a>
</g>
</g>
<!-- Int&#45;&gt;Cool -->
<g id="edge10" class="edge"><title>Int&#45;&gt;Cool</title>
<path fill="none" stroke="#000000" d="M572.364,-107.589C569.134,-115.665 565.172,-125.569 561.542,-134.645"/>
<polygon fill="#000000" stroke="#000000" points="558.247,-133.459 557.782,-144.044 564.746,-136.059 558.247,-133.459"/>
</g>
<!-- Int&#45;&gt;Real -->
<g id="edge30" class="edge"><title>Int&#45;&gt;Real</title>
<path fill="none" stroke="#6666ff" d="M558.531,-101.938C536.964,-113.462 502.772,-131.733 478.125,-144.902"/>
<polygon fill="#6666ff" stroke="#6666ff" points="476.363,-141.876 469.193,-149.675 479.662,-148.05 476.363,-141.876"/>
</g>
<!-- NumStr -->
<g id="node15" class="node"><title>NumStr</title>
<g id="a_node15"><a xlink:href="/type/NumStr" xlink:title="NumStr">
<ellipse fill="none" stroke="#000000" cx="872" cy="-18" rx="40.8928" ry="18"/>
<text text-anchor="middle" x="872" y="-14.3" font-family="FreeSans" font-size="14.00" fill="#000000">NumStr</text>
</a>
</g>
</g>
<!-- NumStr&#45;&gt;Str -->
<g id="edge12" class="edge"><title>NumStr&#45;&gt;Str</title>
<path fill="none" stroke="#000000" d="M852.254,-34.189C838.708,-44.609 820.621,-58.5222 806.06,-69.7232"/>
<polygon fill="#000000" stroke="#000000" points="803.747,-67.0866 797.955,-75.9579 808.015,-72.635 803.747,-67.0866"/>
</g>
<!-- NumStr&#45;&gt;Num -->
<g id="edge11" class="edge"><title>NumStr&#45;&gt;Num</title>
<path fill="none" stroke="#000000" d="M840.618,-29.6698C830.572,-33.0854 822,-36 822,-36 822,-36 738.858,-62.2294 689.552,-77.7841"/>
<polygon fill="#000000" stroke="#000000" points="688.365,-74.4884 679.882,-80.8349 690.472,-81.1641 688.365,-74.4884"/>
</g>
<!-- Signal -->
<g id="node16" class="node"><title>Signal</title>
<g id="a_node16"><a xlink:href="/type/Signal" xlink:title="Signal">
<ellipse fill="none" stroke="#33bb33" cx="696" cy="-18" rx="35.194" ry="18"/>
<text text-anchor="middle" x="696" y="-14.3" font-family="FreeSans" font-size="14.00" fill="#33bb33">Signal</text>
</a>
</g>
</g>
<!-- Signal&#45;&gt;Int -->
<g id="edge13" class="edge"><title>Signal&#45;&gt;Int</title>
<path fill="none" stroke="#000000" d="M673.993,-32.1665C655.08,-43.4821 627.693,-59.8672 607.18,-72.14"/>
<polygon fill="#000000" stroke="#000000" points="605.359,-69.1508 598.575,-77.2885 608.953,-75.1578 605.359,-69.1508"/>
</g>
<!-- Order -->
<g id="node17" class="node"><title>Order</title>
<g id="a_node17"><a xlink:href="/type/Order" xlink:title="Order">
<ellipse fill="none" stroke="#33bb33" cx="198" cy="-18" rx="33.5952" ry="18"/>
<text text-anchor="middle" x="198" y="-14.3" font-family="FreeSans" font-size="14.00" fill="#33bb33">Order</text>
</a>
</g>
</g>
<!-- Order&#45;&gt;Int -->
<g id="edge14" class="edge"><title>Order&#45;&gt;Int</title>
<path fill="none" stroke="#000000" d="M224.498,-29.476C233.347,-32.9744 241,-36 241,-36 241,-36 538,-72 538,-72 538,-72 541.88,-73.6087 547.252,-75.8363"/>
<polygon fill="#000000" stroke="#000000" points="546.003,-79.1071 556.581,-79.7042 548.684,-72.6409 546.003,-79.1071"/>
</g>
<!-- atomicint -->
<g id="node18" class="node"><title>atomicint</title>
<g id="a_node18"><a xlink:href="/type/atomicint" xlink:title="atomicint">
<ellipse fill="none" stroke="#000000" cx="296" cy="-18" rx="46.2923" ry="18"/>
<text text-anchor="middle" x="296" y="-14.3" font-family="FreeSans" font-size="14.00" fill="#000000">atomicint</text>
</a>
</g>
</g>
<!-- atomicint&#45;&gt;Int -->
<g id="edge15" class="edge"><title>atomicint&#45;&gt;Int</title>
<path fill="none" stroke="#000000" d="M331.144,-29.8626C341.923,-33.1943 351,-36 351,-36 351,-36 538,-72 538,-72 538,-72 541.88,-73.6087 547.252,-75.8363"/>
<polygon fill="#000000" stroke="#000000" points="546.003,-79.1071 556.581,-79.7042 548.684,-72.6409 546.003,-79.1071"/>
</g>
<!-- PromiseStatus -->
<g id="node19" class="node"><title>PromiseStatus</title>
<g id="a_node19"><a xlink:href="/type/PromiseStatus" xlink:title="PromiseStatus">
<ellipse fill="none" stroke="#33bb33" cx="428" cy="-18" rx="67.6881" ry="18"/>
<text text-anchor="middle" x="428" y="-14.3" font-family="FreeSans" font-size="14.00" fill="#33bb33">PromiseStatus</text>
</a>
</g>
</g>
<!-- PromiseStatus&#45;&gt;Int -->
<g id="edge16" class="edge"><title>PromiseStatus&#45;&gt;Int</title>
<path fill="none" stroke="#000000" d="M460.393,-34.0168C486.366,-46.0569 522.573,-62.8417 548.133,-74.6907"/>
<polygon fill="#000000" stroke="#000000" points="546.82,-77.9396 557.364,-78.9701 549.764,-71.5889 546.82,-77.9396"/>
</g>
<!-- IntStr -->
<g id="node20" class="node"><title>IntStr</title>
<g id="a_node20"><a xlink:href="/type/IntStr" xlink:title="IntStr">
<ellipse fill="none" stroke="#000000" cx="781" cy="-18" rx="31.6951" ry="18"/>
<text text-anchor="middle" x="781" y="-14.3" font-family="FreeSans" font-size="14.00" fill="#000000">IntStr</text>
</a>
</g>
</g>
<!-- IntStr&#45;&gt;Str -->
<g id="edge18" class="edge"><title>IntStr&#45;&gt;Str</title>
<path fill="none" stroke="#000000" d="M781,-36.3034C781,-44.0173 781,-53.2875 781,-61.8876"/>
<polygon fill="#000000" stroke="#000000" points="777.5,-61.8956 781,-71.8957 784.5,-61.8957 777.5,-61.8956"/>
</g>
<!-- IntStr&#45;&gt;Int -->
<g id="edge17" class="edge"><title>IntStr&#45;&gt;Int</title>
<path fill="none" stroke="#000000" d="M755.734,-29.476C747.297,-32.9744 740,-36 740,-36 740,-36 615,-72 615,-72 615,-72 612.82,-73.0296 609.532,-74.5819"/>
<polygon fill="#000000" stroke="#000000" points="607.905,-71.4796 600.357,-78.9146 610.894,-77.8093 607.905,-71.4796"/>
</g>
<!-- Bool -->
<g id="node21" class="node"><title>Bool</title>
<g id="a_node21"><a xlink:href="/type/Bool" xlink:title="Bool">
<ellipse fill="none" stroke="#33bb33" cx="542" cy="-18" rx="28.6953" ry="18"/>
<text text-anchor="middle" x="542" y="-14.3" font-family="FreeSans" font-size="14.00" fill="#33bb33">Bool</text>
</a>
</g>
</g>
<!-- Bool&#45;&gt;Int -->
<g id="edge19" class="edge"><title>Bool&#45;&gt;Int</title>
<path fill="none" stroke="#000000" d="M550.582,-35.2354C555.065,-43.7169 560.651,-54.2856 565.681,-63.8026"/>
<polygon fill="#000000" stroke="#000000" points="562.698,-65.6473 570.465,-72.8527 568.886,-62.3761 562.698,-65.6473"/>
</g>
<!-- int -->
<g id="node22" class="node"><title>int</title>
<g id="a_node22"><a xlink:href="/type/int" xlink:title="int">
<ellipse fill="none" stroke="#000000" cx="616" cy="-18" rx="27" ry="18"/>
<text text-anchor="middle" x="616" y="-14.3" font-family="FreeSans" font-size="14.00" fill="#000000">int</text>
</a>
</g>
</g>
<!-- int&#45;&gt;Int -->
<g id="edge20" class="edge"><title>int&#45;&gt;Int</title>
<path fill="none" stroke="#000000" d="M607.418,-35.2354C602.935,-43.7169 597.349,-54.2856 592.319,-63.8026"/>
<polygon fill="#000000" stroke="#000000" points="589.114,-62.3761 587.535,-72.8527 595.302,-65.6473 589.114,-62.3761"/>
</g>
<!-- FatRat -->
<g id="node23" class="node"><title>FatRat</title>
<g id="a_node23"><a xlink:href="/type/FatRat" xlink:title="FatRat">
<ellipse fill="none" stroke="#000000" cx="109" cy="-18" rx="37.0935" ry="18"/>
<text text-anchor="middle" x="109" y="-14.3" font-family="FreeSans" font-size="14.00" fill="#000000">FatRat</text>
</a>
</g>
</g>
<!-- FatRat&#45;&gt;Cool -->
<g id="edge21" class="edge"><title>FatRat&#45;&gt;Cool</title>
<path fill="none" stroke="#000000" d="M137.609,-29.573C146.964,-33.0301 155,-36 155,-36 155,-36 500,-72 500,-72 500,-72 521.543,-109.595 536.626,-135.916"/>
<polygon fill="#000000" stroke="#000000" points="533.637,-137.74 541.646,-144.676 539.711,-134.259 533.637,-137.74"/>
</g>
<!-- FatRat&#45;&gt;Rational -->
<g id="edge31" class="edge"><title>FatRat&#45;&gt;Rational</title>
<path fill="none" stroke="#6666ff" d="M109,-36.3034C109,-44.0173 109,-53.2875 109,-61.8876"/>
<polygon fill="#6666ff" stroke="#6666ff" points="105.5,-61.8956 109,-71.8957 112.5,-61.8957 105.5,-61.8956"/>
</g>
<!-- Rat -->
<g id="node24" class="node"><title>Rat</title>
<g id="a_node24"><a xlink:href="/type/Rat" xlink:title="Rat">
<ellipse fill="none" stroke="#000000" cx="27" cy="-18" rx="27" ry="18"/>
<text text-anchor="middle" x="27" y="-14.3" font-family="FreeSans" font-size="14.00" fill="#000000">Rat</text>
</a>
</g>
</g>
<!-- Rat&#45;&gt;Cool -->
<g id="edge22" class="edge"><title>Rat&#45;&gt;Cool</title>
<path fill="none" stroke="#000000" d="M48.3574,-29.0854C56.1094,-32.7461 63,-36 63,-36 63,-36 467,-72 467,-72 467,-72 500,-108 500,-108 500,-108 515.738,-124.355 529.729,-138.895"/>
<polygon fill="#000000" stroke="#000000" points="527.338,-141.458 536.794,-146.237 532.382,-136.604 527.338,-141.458"/>
</g>
<!-- Rat&#45;&gt;Rational -->
<g id="edge32" class="edge"><title>Rat&#45;&gt;Rational</title>
<path fill="none" stroke="#6666ff" d="M43.2006,-32.8297C54.5643,-42.5305 69.9994,-55.7068 83.0642,-66.8597"/>
<polygon fill="#6666ff" stroke="#6666ff" points="80.9568,-69.6626 90.8349,-73.4932 85.5017,-64.3386 80.9568,-69.6626"/>
</g>
</g>
</svg>
