<?xml version="1.0" encoding="UTF-8" standalone="no"?>
<!DOCTYPE svg PUBLIC "-//W3C//DTD SVG 1.1//EN"
 "http://www.w3.org/Graphics/SVG/1.1/DTD/svg11.dtd">
<!-- Generated by graphviz version 2.38.0 (20140413.2041)
 -->
<!-- Title: perl6&#45;type&#45;graph Pages: 1 -->
<svg width="168pt" height="332pt"
 viewBox="0.00 0.00 168.20 332.00" xmlns="http://www.w3.org/2000/svg" xmlns:xlink="http://www.w3.org/1999/xlink">
<g id="graph0" class="graph" transform="scale(1 1) rotate(0) translate(4 328)">
<title>perl6&#45;type&#45;graph</title>
<polygon fill="white" stroke="none" points="-4,4 -4,-328 164.196,-328 164.196,4 -4,4"/>
<!-- atomicint -->
<g id="node1" class="node"><title>atomicint</title>
<g id="a_node1"><a xlink:href="/type/atomicint" xlink:title="atomicint">
<ellipse fill="none" stroke="#000000" cx="71" cy="-18" rx="46.2923" ry="18"/>
<text text-anchor="middle" x="71" y="-14.3" font-family="FreeSans" font-size="14.00" fill="#000000">atomicint</text>
</a>
</g>
</g>
<!-- Int -->
<g id="node7" class="node"><title>Int</title>
<g id="a_node7"><a xlink:href="/type/Int" xlink:title="Int">
<ellipse fill="none" stroke="#000000" cx="71" cy="-90" rx="27" ry="18"/>
<text text-anchor="middle" x="71" y="-86.3" font-family="FreeSans" font-size="14.00" fill="#000000">Int</text>
</a>
</g>
</g>
<!-- atomicint&#45;&gt;Int -->
<g id="edge1" class="edge"><title>atomicint&#45;&gt;Int</title>
<path fill="none" stroke="#000000" d="M71,-36.3034C71,-44.0173 71,-53.2875 71,-61.8876"/>
<polygon fill="#000000" stroke="#000000" points="67.5001,-61.8956 71,-71.8957 74.5001,-61.8957 67.5001,-61.8956"/>
</g>
<!-- Mu -->
<g id="node2" class="node"><title>Mu</title>
<g id="a_node2"><a xlink:href="/type/Mu" xlink:title="Mu">
<ellipse fill="none" stroke="#000000" cx="27" cy="-306" rx="27" ry="18"/>
<text text-anchor="middle" x="27" y="-302.3" font-family="FreeSans" font-size="14.00" fill="#000000">Mu</text>
</a>
</g>
</g>
<!-- Any -->
<g id="node3" class="node"><title>Any</title>
<g id="a_node3"><a xlink:href="/type/Any" xlink:title="Any">
<ellipse fill="none" stroke="#000000" cx="27" cy="-234" rx="27" ry="18"/>
<text text-anchor="middle" x="27" y="-230.3" font-family="FreeSans" font-size="14.00" fill="#000000">Any</text>
</a>
</g>
</g>
<!-- Any&#45;&gt;Mu -->
<g id="edge2" class="edge"><title>Any&#45;&gt;Mu</title>
<path fill="none" stroke="#000000" d="M27,-252.303C27,-260.017 27,-269.288 27,-277.888"/>
<polygon fill="#000000" stroke="#000000" points="23.5001,-277.896 27,-287.896 30.5001,-277.896 23.5001,-277.896"/>
</g>
<!-- Cool -->
<g id="node4" class="node"><title>Cool</title>
<g id="a_node4"><a xlink:href="/type/Cool" xlink:title="Cool">
<ellipse fill="none" stroke="#000000" cx="30" cy="-162" rx="28.6953" ry="18"/>
<text text-anchor="middle" x="30" y="-158.3" font-family="FreeSans" font-size="14.00" fill="#000000">Cool</text>
</a>
</g>
</g>
<!-- Cool&#45;&gt;Any -->
<g id="edge3" class="edge"><title>Cool&#45;&gt;Any</title>
<path fill="none" stroke="#000000" d="M29.2584,-180.303C28.9278,-188.017 28.5305,-197.288 28.162,-205.888"/>
<polygon fill="#000000" stroke="#000000" points="24.6645,-205.755 27.733,-215.896 31.6581,-206.055 24.6645,-205.755"/>
</g>
<!-- Numeric -->
<g id="node5" class="node"><title>Numeric</title>
<g id="a_node5"><a xlink:href="/type/Numeric" xlink:title="Numeric">
<ellipse fill="none" stroke="#6666ff" cx="116" cy="-234" rx="44.393" ry="18"/>
<text text-anchor="middle" x="116" y="-230.3" font-family="FreeSans" font-size="14.00" fill="#6666ff">Numeric</text>
</a>
</g>
</g>
<!-- Real -->
<g id="node6" class="node"><title>Real</title>
<g id="a_node6"><a xlink:href="/type/Real" xlink:title="Real">
<ellipse fill="none" stroke="#6666ff" cx="112" cy="-162" rx="28.6953" ry="18"/>
<text text-anchor="middle" x="112" y="-158.3" font-family="FreeSans" font-size="14.00" fill="#6666ff">Real</text>
</a>
</g>
</g>
<!-- Real&#45;&gt;Numeric -->
<g id="edge5" class="edge"><title>Real&#45;&gt;Numeric</title>
<path fill="none" stroke="#6666ff" d="M112.989,-180.303C113.43,-188.017 113.959,-197.288 114.451,-205.888"/>
<polygon fill="#6666ff" stroke="#6666ff" points="110.958,-206.112 115.023,-215.896 117.946,-205.712 110.958,-206.112"/>
</g>
<!-- Int&#45;&gt;Cool -->
<g id="edge4" class="edge"><title>Int&#45;&gt;Cool</title>
<path fill="none" stroke="#000000" d="M61.4907,-107.235C56.4712,-115.805 50.2036,-126.506 44.5845,-136.1"/>
<polygon fill="#000000" stroke="#000000" points="41.4917,-134.455 39.4577,-144.853 47.5319,-137.993 41.4917,-134.455"/>
</g>
<!-- Int&#45;&gt;Real -->
<g id="edge6" class="edge"><title>Int&#45;&gt;Real</title>
<path fill="none" stroke="#6666ff" d="M80.5093,-107.235C85.5288,-115.805 91.7964,-126.506 97.4155,-136.1"/>
<polygon fill="#6666ff" stroke="#6666ff" points="94.4681,-137.993 102.542,-144.853 100.508,-134.455 94.4681,-137.993"/>
</g>
</g>
</svg>
