<?xml version="1.0" encoding="UTF-8" standalone="no"?>
<!DOCTYPE svg PUBLIC "-//W3C//DTD SVG 1.1//EN"
 "http://www.w3.org/Graphics/SVG/1.1/DTD/svg11.dtd">
<!-- Generated by graphviz version 2.38.0 (20140413.2041)
 -->
<!-- Title: perl6&#45;type&#45;graph Pages: 1 -->
<svg width="1735pt" height="927pt"
 viewBox="0.00 0.00 1735.43 926.67" xmlns="http://www.w3.org/2000/svg" xmlns:xlink="http://www.w3.org/1999/xlink">
<g id="graph0" class="graph" transform="scale(1 1) rotate(0) translate(814.553 441.898)">
<title>perl6&#45;type&#45;graph</title>
<polygon fill="white" stroke="none" points="-814.553,484.776 -814.553,-441.898 920.875,-441.898 920.875,484.776 -814.553,484.776"/>
<!-- Metamodel::TypePretense -->
<g id="node1" class="node"><title>Metamodel::TypePretense</title>
<g id="a_node1"><a xlink:href="/type/Metamodel::TypePretense" xlink:title="Metamodel::TypePretense">
<ellipse fill="none" stroke="#6666ff" cx="-86.5828" cy="80.6288" rx="114.28" ry="18"/>
<text text-anchor="middle" x="-86.5828" y="84.3288" font-family="FreeSans" font-size="14.00" fill="#6666ff">Metamodel::TypePretense</text>
</a>
</g>
</g>
<!-- Mu -->
<g id="node2" class="node"><title>Mu</title>
<g id="a_node2"><a xlink:href="/type/Mu" xlink:title="Mu">
<ellipse fill="none" stroke="#000000" cx="737.69" cy="399.406" rx="27" ry="18"/>
<text text-anchor="middle" x="737.69" y="403.106" font-family="FreeSans" font-size="14.00" fill="#000000">Mu</text>
</a>
</g>
</g>
<!-- Any -->
<g id="node3" class="node"><title>Any</title>
<g id="a_node3"><a xlink:href="/type/Any" xlink:title="Any">
<ellipse fill="none" stroke="#000000" cx="59.9832" cy="286.323" rx="27" ry="18"/>
<text text-anchor="middle" x="59.9832" y="290.023" font-family="FreeSans" font-size="14.00" fill="#000000">Any</text>
</a>
</g>
</g>
<!-- Any&#45;&gt;Mu -->
<g id="edge1" class="edge"><title>Any&#45;&gt;Mu</title>
<path fill="none" stroke="#000000" d="M86.5501,290.756C191.892,308.333 580.35,373.152 701.416,393.353"/>
<polygon fill="#000000" stroke="#000000" points="702.019,389.905 711.307,395.003 700.867,396.81 702.019,389.905"/>
</g>
<!-- Metamodel::Naming -->
<g id="node4" class="node"><title>Metamodel::Naming</title>
<g id="a_node4"><a xlink:href="/type/Metamodel::Naming" xlink:title="Metamodel::Naming">
<ellipse fill="none" stroke="#6666ff" cx="431.245" cy="-115.241" rx="90.1842" ry="18"/>
<text text-anchor="middle" x="431.245" y="-111.541" font-family="FreeSans" font-size="14.00" fill="#6666ff">Metamodel::Naming</text>
</a>
</g>
</g>
<!-- Metamodel::Documenting -->
<g id="node5" class="node"><title>Metamodel::Documenting</title>
<g id="a_node5"><a xlink:href="/type/Metamodel::Documenting" xlink:title="Metamodel::Documenting">
<ellipse fill="none" stroke="#6666ff" cx="185.598" cy="74.8251" rx="111.28" ry="18"/>
<text text-anchor="middle" x="185.598" y="78.5251" font-family="FreeSans" font-size="14.00" fill="#6666ff">Metamodel::Documenting</text>
</a>
</g>
</g>
<!-- Metamodel::Stashing -->
<g id="node6" class="node"><title>Metamodel::Stashing</title>
<g id="a_node6"><a xlink:href="/type/Metamodel::Stashing" xlink:title="Metamodel::Stashing">
<ellipse fill="none" stroke="#6666ff" cx="144.34" cy="-157.93" rx="93.6835" ry="18"/>
<text text-anchor="middle" x="144.34" y="-154.23" font-family="FreeSans" font-size="14.00" fill="#6666ff">Metamodel::Stashing</text>
</a>
</g>
</g>
<!-- Metamodel::MethodDelegation -->
<g id="node7" class="node"><title>Metamodel::MethodDelegation</title>
<g id="a_node7"><a xlink:href="/type/Metamodel::MethodDelegation" xlink:title="Metamodel::MethodDelegation">
<ellipse fill="none" stroke="#6666ff" cx="-146.023" cy="462.776" rx="131.077" ry="18"/>
<text text-anchor="middle" x="-146.023" y="466.476" font-family="FreeSans" font-size="14.00" fill="#6666ff">Metamodel::MethodDelegation</text>
</a>
</g>
</g>
<!-- Metamodel::PackageHOW -->
<g id="node8" class="node"><title>Metamodel::PackageHOW</title>
<g id="a_node8"><a xlink:href="/type/Metamodel::PackageHOW" xlink:title="Metamodel::PackageHOW">
<ellipse fill="none" stroke="#000000" cx="292.628" cy="449.236" rx="116.18" ry="18"/>
<text text-anchor="middle" x="292.628" y="452.936" font-family="FreeSans" font-size="14.00" fill="#000000">Metamodel::PackageHOW</text>
</a>
</g>
</g>
<!-- Metamodel::PackageHOW&#45;&gt;Metamodel::TypePretense -->
<g id="edge10" class="edge"><title>Metamodel::PackageHOW&#45;&gt;Metamodel::TypePretense</title>
<path fill="none" stroke="#6666ff" d="M274.338,431.457C212.529,371.377 11.2845,175.759 -60.692,105.796"/>
<polygon fill="#6666ff" stroke="#6666ff" points="-63.3009,108.141 -68.032,98.6609 -58.4218,103.121 -63.3009,108.141"/>
</g>
<!-- Metamodel::PackageHOW&#45;&gt;Any -->
<g id="edge2" class="edge"><title>Metamodel::PackageHOW&#45;&gt;Any</title>
<path fill="none" stroke="#000000" d="M267.289,431.491C223.126,400.566 132.447,337.067 87.0822,305.299"/>
<polygon fill="#000000" stroke="#000000" points="84.8242,307.991 78.6405,299.388 88.8395,302.257 84.8242,307.991"/>
</g>
<!-- Metamodel::PackageHOW&#45;&gt;Metamodel::Naming -->
<g id="edge7" class="edge"><title>Metamodel::PackageHOW&#45;&gt;Metamodel::Naming</title>
<path fill="none" stroke="#6666ff" d="M290.781,431.079C284.614,370.467 265.124,178.905 265.124,178.905 265.124,178.905 374.952,-15.5654 416.006,-88.2573"/>
<polygon fill="#6666ff" stroke="#6666ff" points="413.138,-90.2972 421.103,-97.2834 419.233,-86.8549 413.138,-90.2972"/>
</g>
<!-- Metamodel::PackageHOW&#45;&gt;Metamodel::Documenting -->
<g id="edge8" class="edge"><title>Metamodel::PackageHOW&#45;&gt;Metamodel::Documenting</title>
<path fill="none" stroke="#6666ff" d="M287.466,431.177C270.233,370.892 214.594,176.26 193.662,103.034"/>
<polygon fill="#6666ff" stroke="#6666ff" points="190.217,103.718 190.834,93.1412 196.947,101.794 190.217,103.718"/>
</g>
<!-- Metamodel::PackageHOW&#45;&gt;Metamodel::Stashing -->
<g id="edge9" class="edge"><title>Metamodel::PackageHOW&#45;&gt;Metamodel::Stashing</title>
<path fill="none" stroke="#6666ff" d="M290.781,431.079C284.614,370.467 265.124,178.905 265.124,178.905 265.124,178.905 298.334,74.6733 298.334,74.6733 298.334,74.6733 202.337,-70.3279 161.931,-131.36"/>
<polygon fill="#6666ff" stroke="#6666ff" points="158.77,-129.794 156.168,-140.064 164.607,-133.658 158.77,-129.794"/>
</g>
<!-- Metamodel::PackageHOW&#45;&gt;Metamodel::MethodDelegation -->
<g id="edge11" class="edge"><title>Metamodel::PackageHOW&#45;&gt;Metamodel::MethodDelegation</title>
<path fill="none" stroke="#6666ff" d="M178.523,452.758C121.651,454.514 52.4087,456.651 -7.48837,458.5"/>
<polygon fill="#6666ff" stroke="#6666ff" points="-7.68245,462.007 -17.7857,458.818 -7.89849,455.011 -7.68245,462.007"/>
</g>
<!-- Metamodel::Versioning -->
<g id="node9" class="node"><title>Metamodel::Versioning</title>
<g id="a_node9"><a xlink:href="/type/Metamodel::Versioning" xlink:title="Metamodel::Versioning">
<ellipse fill="none" stroke="#6666ff" cx="-696.401" cy="161.588" rx="100.983" ry="18"/>
<text text-anchor="middle" x="-696.401" y="165.288" font-family="FreeSans" font-size="14.00" fill="#6666ff">Metamodel::Versioning</text>
</a>
</g>
</g>
<!-- Metamodel::ModuleHOW -->
<g id="node10" class="node"><title>Metamodel::ModuleHOW</title>
<g id="a_node10"><a xlink:href="/type/Metamodel::ModuleHOW" xlink:title="Metamodel::ModuleHOW">
<ellipse fill="none" stroke="#000000" cx="-321.698" cy="238.475" rx="111.28" ry="18"/>
<text text-anchor="middle" x="-321.698" y="242.175" font-family="FreeSans" font-size="14.00" fill="#000000">Metamodel::ModuleHOW</text>
</a>
</g>
</g>
<!-- Metamodel::ModuleHOW&#45;&gt;Metamodel::TypePretense -->
<g id="edge16" class="edge"><title>Metamodel::ModuleHOW&#45;&gt;Metamodel::TypePretense</title>
<path fill="none" stroke="#6666ff" d="M-295.185,220.675C-252.562,192.06 -168.796,135.823 -121.407,104.008"/>
<polygon fill="#6666ff" stroke="#6666ff" points="-123.253,101.032 -113,98.3639 -119.351,106.844 -123.253,101.032"/>
</g>
<!-- Metamodel::ModuleHOW&#45;&gt;Any -->
<g id="edge3" class="edge"><title>Metamodel::ModuleHOW&#45;&gt;Any</title>
<path fill="none" stroke="#000000" d="M-233.654,249.513C-152.241,259.718 -35.252,274.384 23.4528,281.743"/>
<polygon fill="#000000" stroke="#000000" points="23.8893,278.27 33.3763,282.987 23.0185,285.216 23.8893,278.27"/>
</g>
<!-- Metamodel::ModuleHOW&#45;&gt;Metamodel::Naming -->
<g id="edge12" class="edge"><title>Metamodel::ModuleHOW&#45;&gt;Metamodel::Naming</title>
<path fill="none" stroke="#6666ff" d="M-283.79,221.426C-193.002,180.595 29.4064,80.5671 29.4064,80.5671 29.4064,80.5671 283.684,-43.3374 387.695,-94.0197"/>
<polygon fill="#6666ff" stroke="#6666ff" points="386.461,-97.3121 396.984,-98.5463 389.528,-91.0194 386.461,-97.3121"/>
</g>
<!-- Metamodel::ModuleHOW&#45;&gt;Metamodel::Documenting -->
<g id="edge13" class="edge"><title>Metamodel::ModuleHOW&#45;&gt;Metamodel::Documenting</title>
<path fill="none" stroke="#6666ff" d="M-271.668,222.336C-177.686,192.018 24.8475,126.682 125.826,94.107"/>
<polygon fill="#6666ff" stroke="#6666ff" points="124.977,90.7035 135.568,90.9643 127.126,97.3654 124.977,90.7035"/>
</g>
<!-- Metamodel::ModuleHOW&#45;&gt;Metamodel::Stashing -->
<g id="edge15" class="edge"><title>Metamodel::ModuleHOW&#45;&gt;Metamodel::Stashing</title>
<path fill="none" stroke="#6666ff" d="M-308.033,220.375C-276.742,178.93 -202.572,80.6904 -202.572,80.6904 -202.572,80.6904 23.4874,-74.8024 110.639,-134.749"/>
<polygon fill="#6666ff" stroke="#6666ff" points="108.889,-137.793 119.112,-140.577 112.856,-132.026 108.889,-137.793"/>
</g>
<!-- Metamodel::ModuleHOW&#45;&gt;Metamodel::MethodDelegation -->
<g id="edge17" class="edge"><title>Metamodel::ModuleHOW&#45;&gt;Metamodel::MethodDelegation</title>
<path fill="none" stroke="#6666ff" d="M-307.619,256.452C-276.653,295.989 -202.524,390.636 -166.445,436.702"/>
<polygon fill="#6666ff" stroke="#6666ff" points="-163.58,434.683 -160.17,444.714 -169.091,439 -163.58,434.683"/>
</g>
<!-- Metamodel::ModuleHOW&#45;&gt;Metamodel::Versioning -->
<g id="edge14" class="edge"><title>Metamodel::ModuleHOW&#45;&gt;Metamodel::Versioning</title>
<path fill="none" stroke="#6666ff" d="M-390.861,224.283C-455.828,210.952 -552.842,191.046 -620.051,177.255"/>
<polygon fill="#6666ff" stroke="#6666ff" points="-621.065,180.62 -630.158,175.181 -619.658,173.763 -621.065,180.62"/>
</g>
<!-- Metamodel::RolePunning -->
<g id="node11" class="node"><title>Metamodel::RolePunning</title>
<g id="a_node11"><a xlink:href="/type/Metamodel::RolePunning" xlink:title="Metamodel::RolePunning">
<ellipse fill="none" stroke="#6666ff" cx="-356.152" cy="-58.4636" rx="109.681" ry="18"/>
<text text-anchor="middle" x="-356.152" y="-54.7636" font-family="FreeSans" font-size="14.00" fill="#6666ff">Metamodel::RolePunning</text>
</a>
</g>
</g>
<!-- Metamodel::CurriedRoleHOW -->
<g id="node12" class="node"><title>Metamodel::CurriedRoleHOW</title>
<g id="a_node12"><a xlink:href="/type/Metamodel::CurriedRoleHOW" xlink:title="Metamodel::CurriedRoleHOW">
<ellipse fill="none" stroke="#000000" cx="-630.563" cy="444.836" rx="128.877" ry="18"/>
<text text-anchor="middle" x="-630.563" y="448.536" font-family="FreeSans" font-size="14.00" fill="#000000">Metamodel::CurriedRoleHOW</text>
</a>
</g>
</g>
<!-- Metamodel::CurriedRoleHOW&#45;&gt;Metamodel::TypePretense -->
<g id="edge19" class="edge"><title>Metamodel::CurriedRoleHOW&#45;&gt;Metamodel::TypePretense</title>
<path fill="none" stroke="#6666ff" d="M-613.501,426.887C-565.785,376.687 -434.438,238.505 -434.438,238.505 -434.438,238.505 -228.477,145.028 -133.518,101.931"/>
<polygon fill="#6666ff" stroke="#6666ff" points="-134.693,98.6201 -124.14,97.6743 -131.8,104.994 -134.693,98.6201"/>
</g>
<!-- Metamodel::CurriedRoleHOW&#45;&gt;Any -->
<g id="edge4" class="edge"><title>Metamodel::CurriedRoleHOW&#45;&gt;Any</title>
<path fill="none" stroke="#000000" d="M-563.409,429.421C-419.434,396.372 -85.2404,319.658 24.4218,294.486"/>
<polygon fill="#000000" stroke="#000000" points="23.7898,291.04 34.3194,292.214 25.356,297.862 23.7898,291.04"/>
</g>
<!-- Metamodel::CurriedRoleHOW&#45;&gt;Metamodel::RolePunning -->
<g id="edge18" class="edge"><title>Metamodel::CurriedRoleHOW&#45;&gt;Metamodel::RolePunning</title>
<path fill="none" stroke="#6666ff" d="M-620.635,426.626C-579.245,350.713 -420.293,59.1783 -370.891,-31.4315"/>
<polygon fill="#6666ff" stroke="#6666ff" points="-373.928,-33.1737 -366.068,-40.278 -367.782,-29.8227 -373.928,-33.1737"/>
</g>
<!-- Metamodel::BoolificationProtocol -->
<g id="node13" class="node"><title>Metamodel::BoolificationProtocol</title>
<g id="a_node13"><a xlink:href="/type/Metamodel::BoolificationProtocol" xlink:title="Metamodel::BoolificationProtocol">
<ellipse fill="none" stroke="#6666ff" cx="777.787" cy="18.5003" rx="139.175" ry="18"/>
<text text-anchor="middle" x="777.787" y="22.2003" font-family="FreeSans" font-size="14.00" fill="#6666ff">Metamodel::BoolificationProtocol</text>
</a>
</g>
</g>
<!-- Metamodel::ParametricRoleGroupHOW -->
<g id="node14" class="node"><title>Metamodel::ParametricRoleGroupHOW</title>
<g id="a_node14"><a xlink:href="/type/Metamodel::ParametricRoleGroupHOW" xlink:title="Metamodel::ParametricRoleGroupHOW">
<ellipse fill="none" stroke="#000000" cx="433.756" cy="178.794" rx="167.07" ry="18"/>
<text text-anchor="middle" x="433.756" y="182.494" font-family="FreeSans" font-size="14.00" fill="#000000">Metamodel::ParametricRoleGroupHOW</text>
</a>
</g>
</g>
<!-- Metamodel::ParametricRoleGroupHOW&#45;&gt;Metamodel::TypePretense -->
<g id="edge22" class="edge"><title>Metamodel::ParametricRoleGroupHOW&#45;&gt;Metamodel::TypePretense</title>
<path fill="none" stroke="#6666ff" d="M350.732,163.131C253.74,144.833 94.1956,114.734 -3.02464,96.3926"/>
<polygon fill="#6666ff" stroke="#6666ff" points="-3.92882,99.7838 -13.1066,94.4905 -2.63106,92.9051 -3.92882,99.7838"/>
</g>
<!-- Metamodel::ParametricRoleGroupHOW&#45;&gt;Any -->
<g id="edge5" class="edge"><title>Metamodel::ParametricRoleGroupHOW&#45;&gt;Any</title>
<path fill="none" stroke="#000000" d="M374.943,195.714C296.104,218.394 158.675,257.93 94.6514,276.349"/>
<polygon fill="#000000" stroke="#000000" points="95.6043,279.717 85.0264,279.118 93.669,272.99 95.6043,279.717"/>
</g>
<!-- Metamodel::ParametricRoleGroupHOW&#45;&gt;Metamodel::Naming -->
<g id="edge20" class="edge"><title>Metamodel::ParametricRoleGroupHOW&#45;&gt;Metamodel::Naming</title>
<path fill="none" stroke="#6666ff" d="M433.599,160.401C433.174,110.572 431.996,-27.2802 431.486,-87.0225"/>
<polygon fill="#6666ff" stroke="#6666ff" points="427.984,-87.2003 431.398,-97.2299 434.984,-87.2602 427.984,-87.2003"/>
</g>
<!-- Metamodel::ParametricRoleGroupHOW&#45;&gt;Metamodel::Stashing -->
<g id="edge21" class="edge"><title>Metamodel::ParametricRoleGroupHOW&#45;&gt;Metamodel::Stashing</title>
<path fill="none" stroke="#6666ff" d="M418.196,160.69C369.893,104.491 222.4,-67.1108 166.307,-132.373"/>
<polygon fill="#6666ff" stroke="#6666ff" points="163.49,-130.28 159.626,-140.145 168.799,-134.843 163.49,-130.28"/>
</g>
<!-- Metamodel::ParametricRoleGroupHOW&#45;&gt;Metamodel::RolePunning -->
<g id="edge23" class="edge"><title>Metamodel::ParametricRoleGroupHOW&#45;&gt;Metamodel::RolePunning</title>
<path fill="none" stroke="#6666ff" d="M372.586,161.971C277.865,135.921 106.498,88.7914 106.498,88.7914 106.498,88.7914 -170.637,0.583122 -295.924,-39.2937"/>
<polygon fill="#6666ff" stroke="#6666ff" points="-297.292,-36.0563 -305.76,-42.4244 -295.169,-42.7265 -297.292,-36.0563"/>
</g>
<!-- Metamodel::ParametricRoleGroupHOW&#45;&gt;Metamodel::BoolificationProtocol -->
<g id="edge24" class="edge"><title>Metamodel::ParametricRoleGroupHOW&#45;&gt;Metamodel::BoolificationProtocol</title>
<path fill="none" stroke="#6666ff" d="M471.558,161.181C534.907,131.665 662.316,72.3016 731.136,40.2362"/>
<polygon fill="#6666ff" stroke="#6666ff" points="729.903,36.9496 740.446,35.8987 732.859,43.2947 729.903,36.9496"/>
</g>
<!-- Metamodel::MethodContainer -->
<g id="node15" class="node"><title>Metamodel::MethodContainer</title>
<g id="a_node15"><a xlink:href="/type/Metamodel::MethodContainer" xlink:title="Metamodel::MethodContainer">
<ellipse fill="none" stroke="#6666ff" cx="23.9808" cy="-419.898" rx="127.277" ry="18"/>
<text text-anchor="middle" x="23.9808" y="-416.198" font-family="FreeSans" font-size="14.00" fill="#6666ff">Metamodel::MethodContainer</text>
</a>
</g>
</g>
<!-- Metamodel::PrivateMethodContainer -->
<g id="node16" class="node"><title>Metamodel::PrivateMethodContainer</title>
<g id="a_node16"><a xlink:href="/type/Metamodel::PrivateMethodContainer" xlink:title="Metamodel::PrivateMethodContainer">
<ellipse fill="none" stroke="#6666ff" cx="349.003" cy="-409.207" rx="154.873" ry="18"/>
<text text-anchor="middle" x="349.003" y="-405.507" font-family="FreeSans" font-size="14.00" fill="#6666ff">Metamodel::PrivateMethodContainer</text>
</a>
</g>
</g>
<!-- Metamodel::MultiMethodContainer -->
<g id="node17" class="node"><title>Metamodel::MultiMethodContainer</title>
<g id="a_node17"><a xlink:href="/type/Metamodel::MultiMethodContainer" xlink:title="Metamodel::MultiMethodContainer">
<ellipse fill="none" stroke="#6666ff" cx="747.489" cy="-365.292" rx="146.474" ry="18"/>
<text text-anchor="middle" x="747.489" y="-361.592" font-family="FreeSans" font-size="14.00" fill="#6666ff">Metamodel::MultiMethodContainer</text>
</a>
</g>
</g>
<!-- Metamodel::AttributeContainer -->
<g id="node18" class="node"><title>Metamodel::AttributeContainer</title>
<g id="a_node18"><a xlink:href="/type/Metamodel::AttributeContainer" xlink:title="Metamodel::AttributeContainer">
<ellipse fill="none" stroke="#6666ff" cx="-291.725" cy="-392.136" rx="129.977" ry="18"/>
<text text-anchor="middle" x="-291.725" y="-388.436" font-family="FreeSans" font-size="14.00" fill="#6666ff">Metamodel::AttributeContainer</text>
</a>
</g>
</g>
<!-- Metamodel::RoleContainer -->
<g id="node19" class="node"><title>Metamodel::RoleContainer</title>
<g id="a_node19"><a xlink:href="/type/Metamodel::RoleContainer" xlink:title="Metamodel::RoleContainer">
<ellipse fill="none" stroke="#6666ff" cx="-694.864" cy="-114.957" rx="115.88" ry="18"/>
<text text-anchor="middle" x="-694.864" y="-111.257" font-family="FreeSans" font-size="14.00" fill="#6666ff">Metamodel::RoleContainer</text>
</a>
</g>
</g>
<!-- Metamodel::MultipleInheritance -->
<g id="node20" class="node"><title>Metamodel::MultipleInheritance</title>
<g id="a_node20"><a xlink:href="/type/Metamodel::MultipleInheritance" xlink:title="Metamodel::MultipleInheritance">
<ellipse fill="none" stroke="#6666ff" cx="-664.421" cy="-402.799" rx="133.776" ry="18"/>
<text text-anchor="middle" x="-664.421" y="-399.099" font-family="FreeSans" font-size="14.00" fill="#6666ff">Metamodel::MultipleInheritance</text>
</a>
</g>
</g>
<!-- Metamodel::ParametricRoleHOW -->
<g id="node21" class="node"><title>Metamodel::ParametricRoleHOW</title>
<g id="a_node21"><a xlink:href="/type/Metamodel::ParametricRoleHOW" xlink:title="Metamodel::ParametricRoleHOW">
<ellipse fill="none" stroke="#000000" cx="-104.081" cy="-159.368" rx="142.175" ry="18"/>
<text text-anchor="middle" x="-104.081" y="-155.668" font-family="FreeSans" font-size="14.00" fill="#000000">Metamodel::ParametricRoleHOW</text>
</a>
</g>
</g>
<!-- Metamodel::ParametricRoleHOW&#45;&gt;Metamodel::TypePretense -->
<g id="edge35" class="edge"><title>Metamodel::ParametricRoleHOW&#45;&gt;Metamodel::TypePretense</title>
<path fill="none" stroke="#6666ff" d="M-102.766,-141.329C-99.7448,-99.8927 -92.29,2.35303 -88.6498,52.2802"/>
<polygon fill="#6666ff" stroke="#6666ff" points="-85.1499,52.1526 -87.9133,62.3807 -92.1313,52.6617 -85.1499,52.1526"/>
</g>
<!-- Metamodel::ParametricRoleHOW&#45;&gt;Any -->
<g id="edge6" class="edge"><title>Metamodel::ParametricRoleHOW&#45;&gt;Any</title>
<path fill="none" stroke="#000000" d="M-94.048,-141.334C-63.0039,-85.534 29.4064,80.5671 29.4064,80.5671 29.4064,80.5671 47.3933,201.603 55.776,258.012"/>
<polygon fill="#000000" stroke="#000000" points="59.2617,257.657 57.2697,268.063 52.3377,258.686 59.2617,257.657"/>
</g>
<!-- Metamodel::ParametricRoleHOW&#45;&gt;Metamodel::Naming -->
<g id="edge25" class="edge"><title>Metamodel::ParametricRoleHOW&#45;&gt;Metamodel::Naming</title>
<path fill="none" stroke="#6666ff" d="M14.2983,-149.326C48.8815,-146.393 77.5794,-143.958 77.5794,-143.958 77.5794,-143.958 145.115,-138.331 145.115,-138.331 145.115,-138.331 253.878,-129.554 337.292,-122.822"/>
<polygon fill="#6666ff" stroke="#6666ff" points="337.643,-126.306 347.33,-122.012 337.08,-119.328 337.643,-126.306"/>
</g>
<!-- Metamodel::ParametricRoleHOW&#45;&gt;Metamodel::Documenting -->
<g id="edge26" class="edge"><title>Metamodel::ParametricRoleHOW&#45;&gt;Metamodel::Documenting</title>
<path fill="none" stroke="#6666ff" d="M-81.8316,-141.38C-30.3118,-99.7284 97.2199,3.37551 155.578,50.5553"/>
<polygon fill="#6666ff" stroke="#6666ff" points="158.093,48.0878 163.669,57.0966 153.692,53.5313 158.093,48.0878"/>
</g>
<!-- Metamodel::ParametricRoleHOW&#45;&gt;Metamodel::Stashing -->
<g id="edge34" class="edge"><title>Metamodel::ParametricRoleHOW&#45;&gt;Metamodel::Stashing</title>
<path fill="none" stroke="#6666ff" d="M38.2667,-158.544C38.9104,-158.54 39.5534,-158.536 40.1957,-158.533"/>
<polygon fill="#6666ff" stroke="#6666ff" points="40.5457,-162.031 50.5252,-158.473 40.5051,-155.031 40.5457,-162.031"/>
</g>
<!-- Metamodel::ParametricRoleHOW&#45;&gt;Metamodel::Versioning -->
<g id="edge27" class="edge"><title>Metamodel::ParametricRoleHOW&#45;&gt;Metamodel::Versioning</title>
<path fill="none" stroke="#6666ff" d="M-128.9,-141.591C-169.274,-112.672 -244.716,-58.6353 -244.716,-58.6353 -244.716,-58.6353 -539.153,84.9203 -652.582,140.223"/>
<polygon fill="#6666ff" stroke="#6666ff" points="-651.186,143.437 -661.708,144.673 -654.254,137.145 -651.186,143.437"/>
</g>
<!-- Metamodel::ParametricRoleHOW&#45;&gt;Metamodel::RolePunning -->
<g id="edge36" class="edge"><title>Metamodel::ParametricRoleHOW&#45;&gt;Metamodel::RolePunning</title>
<path fill="none" stroke="#6666ff" d="M-147.127,-142.136C-190.711,-124.69 -258.13,-97.7022 -304.552,-79.1192"/>
<polygon fill="#6666ff" stroke="#6666ff" points="-303.539,-75.7549 -314.123,-75.2879 -306.14,-82.2536 -303.539,-75.7549"/>
</g>
<!-- Metamodel::ParametricRoleHOW&#45;&gt;Metamodel::MethodContainer -->
<g id="edge28" class="edge"><title>Metamodel::ParametricRoleHOW&#45;&gt;Metamodel::MethodContainer</title>
<path fill="none" stroke="#6666ff" d="M-95.0762,-177.688C-72.9406,-222.72 -15.769,-339.031 10.4631,-392.397"/>
<polygon fill="#6666ff" stroke="#6666ff" points="7.43325,-394.168 14.9857,-401.598 13.7153,-391.08 7.43325,-394.168"/>
</g>
<!-- Metamodel::ParametricRoleHOW&#45;&gt;Metamodel::PrivateMethodContainer -->
<g id="edge29" class="edge"><title>Metamodel::ParametricRoleHOW&#45;&gt;Metamodel::PrivateMethodContainer</title>
<path fill="none" stroke="#6666ff" d="M-72.2212,-176.936C8.02819,-221.187 218.432,-337.208 307.848,-386.513"/>
<polygon fill="#6666ff" stroke="#6666ff" points="306.428,-389.727 316.875,-391.491 309.809,-383.597 306.428,-389.727"/>
</g>
<!-- Metamodel::ParametricRoleHOW&#45;&gt;Metamodel::MultiMethodContainer -->
<g id="edge30" class="edge"><title>Metamodel::ParametricRoleHOW&#45;&gt;Metamodel::MultiMethodContainer</title>
<path fill="none" stroke="#6666ff" d="M-37.9685,-175.355C117.531,-212.957 505.756,-306.837 671.041,-346.806"/>
<polygon fill="#6666ff" stroke="#6666ff" points="670.583,-350.296 681.125,-349.244 672.228,-343.492 670.583,-350.296"/>
</g>
<!-- Metamodel::ParametricRoleHOW&#45;&gt;Metamodel::AttributeContainer -->
<g id="edge31" class="edge"><title>Metamodel::ParametricRoleHOW&#45;&gt;Metamodel::AttributeContainer</title>
<path fill="none" stroke="#6666ff" d="M-118.805,-177.633C-151.896,-218.681 -232.243,-318.349 -270.629,-365.966"/>
<polygon fill="#6666ff" stroke="#6666ff" points="-273.518,-363.974 -277.07,-373.956 -268.069,-368.367 -273.518,-363.974"/>
</g>
<!-- Metamodel::ParametricRoleHOW&#45;&gt;Metamodel::RoleContainer -->
<g id="edge32" class="edge"><title>Metamodel::ParametricRoleHOW&#45;&gt;Metamodel::RoleContainer</title>
<path fill="none" stroke="#6666ff" d="M-226.492,-150.166C-330.505,-142.347 -478.698,-131.207 -580.381,-123.563"/>
<polygon fill="#6666ff" stroke="#6666ff" points="-580.147,-120.071 -590.381,-122.812 -580.671,-127.051 -580.147,-120.071"/>
</g>
<!-- Metamodel::ParametricRoleHOW&#45;&gt;Metamodel::MultipleInheritance -->
<g id="edge33" class="edge"><title>Metamodel::ParametricRoleHOW&#45;&gt;Metamodel::MultipleInheritance</title>
<path fill="none" stroke="#6666ff" d="M-143.93,-176.68C-244.046,-220.173 -505.91,-333.937 -615.296,-381.458"/>
<polygon fill="#6666ff" stroke="#6666ff" points="-616.998,-378.381 -624.775,-385.576 -614.209,-384.801 -616.998,-378.381"/>
</g>
</g>
</svg>
