<?xml version="1.0" encoding="UTF-8" standalone="no"?>
<!DOCTYPE svg PUBLIC "-//W3C//DTD SVG 1.1//EN"
 "http://www.w3.org/Graphics/SVG/1.1/DTD/svg11.dtd">
<!-- Generated by graphviz version 2.38.0 (20140413.2041)
 -->
<!-- Title: perl6&#45;type&#45;graph Pages: 1 -->
<svg width="217pt" height="404pt"
 viewBox="0.00 0.00 216.99 404.00" xmlns="http://www.w3.org/2000/svg" xmlns:xlink="http://www.w3.org/1999/xlink">
<g id="graph0" class="graph" transform="scale(1 1) rotate(0) translate(4 400)">
<title>perl6&#45;type&#45;graph</title>
<polygon fill="white" stroke="none" points="-4,4 -4,-400 212.992,-400 212.992,4 -4,4"/>
<!-- X::IO::Copy -->
<g id="node1" class="node"><title>X::IO::Copy</title>
<g id="a_node1"><a xlink:href="/type/X::IO::Copy" xlink:title="X::IO::Copy">
<ellipse fill="none" stroke="#000000" cx="56.545" cy="-18" rx="56.59" ry="18"/>
<text text-anchor="middle" x="56.545" y="-14.3" font-family="FreeSans" font-size="14.00" fill="#000000">X::IO::Copy</text>
</a>
</g>
</g>
<!-- Exception -->
<g id="node4" class="node"><title>Exception</title>
<g id="a_node4"><a xlink:href="/type/Exception" xlink:title="Exception">
<ellipse fill="none" stroke="#000000" cx="56.545" cy="-234" rx="49.2915" ry="18"/>
<text text-anchor="middle" x="56.545" y="-230.3" font-family="FreeSans" font-size="14.00" fill="#000000">Exception</text>
</a>
</g>
</g>
<!-- X::IO::Copy&#45;&gt;Exception -->
<g id="edge1" class="edge"><title>X::IO::Copy&#45;&gt;Exception</title>
<path fill="none" stroke="#000000" d="M48.7899,-36.1508C41.7008,-73.2599 41.1725,-161.253 47.2052,-205.946"/>
<polygon fill="#000000" stroke="#000000" points="43.789,-206.747 48.8313,-216.065 50.7003,-205.636 43.789,-206.747"/>
</g>
<!-- X::IO::Copy&#45;&gt;Exception -->
<g id="edge2" class="edge"><title>X::IO::Copy&#45;&gt;Exception</title>
<path fill="none" stroke="#000000" d="M56.545,-36.1508C56.545,-73.1683 56.545,-160.819 56.545,-205.614"/>
<polygon fill="#000000" stroke="#000000" points="53.0451,-205.768 56.545,-215.768 60.0451,-205.768 53.0451,-205.768"/>
</g>
<!-- X::IO::Copy&#45;&gt;Exception -->
<g id="edge3" class="edge"><title>X::IO::Copy&#45;&gt;Exception</title>
<path fill="none" stroke="#000000" d="M64.3,-36.1508C71.3892,-73.2599 71.9174,-161.253 65.8847,-205.946"/>
<polygon fill="#000000" stroke="#000000" points="62.3897,-205.636 64.2587,-216.065 69.301,-206.747 62.3897,-205.636"/>
</g>
<!-- X::IO -->
<g id="node6" class="node"><title>X::IO</title>
<g id="a_node6"><a xlink:href="/type/X::IO" xlink:title="X::IO">
<ellipse fill="none" stroke="#6666ff" cx="133.545" cy="-90" rx="31.3957" ry="18"/>
<text text-anchor="middle" x="133.545" y="-86.3" font-family="FreeSans" font-size="14.00" fill="#6666ff">X::IO</text>
</a>
</g>
</g>
<!-- X::IO::Copy&#45;&gt;X::IO -->
<g id="edge8" class="edge"><title>X::IO::Copy&#45;&gt;X::IO</title>
<path fill="none" stroke="#6666ff" d="M74.4039,-35.2354C85.0163,-44.8831 98.5996,-57.2315 110.072,-67.6605"/>
<polygon fill="#6666ff" stroke="#6666ff" points="107.86,-70.3802 117.614,-74.5172 112.569,-65.2006 107.86,-70.3802"/>
</g>
<!-- Mu -->
<g id="node2" class="node"><title>Mu</title>
<g id="a_node2"><a xlink:href="/type/Mu" xlink:title="Mu">
<ellipse fill="none" stroke="#000000" cx="56.545" cy="-378" rx="27" ry="18"/>
<text text-anchor="middle" x="56.545" y="-374.3" font-family="FreeSans" font-size="14.00" fill="#000000">Mu</text>
</a>
</g>
</g>
<!-- Any -->
<g id="node3" class="node"><title>Any</title>
<g id="a_node3"><a xlink:href="/type/Any" xlink:title="Any">
<ellipse fill="none" stroke="#000000" cx="56.545" cy="-306" rx="27" ry="18"/>
<text text-anchor="middle" x="56.545" y="-302.3" font-family="FreeSans" font-size="14.00" fill="#000000">Any</text>
</a>
</g>
</g>
<!-- Any&#45;&gt;Mu -->
<g id="edge4" class="edge"><title>Any&#45;&gt;Mu</title>
<path fill="none" stroke="#000000" d="M56.545,-324.303C56.545,-332.017 56.545,-341.288 56.545,-349.888"/>
<polygon fill="#000000" stroke="#000000" points="53.0451,-349.896 56.545,-359.896 60.0451,-349.896 53.0451,-349.896"/>
</g>
<!-- Exception&#45;&gt;Any -->
<g id="edge5" class="edge"><title>Exception&#45;&gt;Any</title>
<path fill="none" stroke="#000000" d="M56.545,-252.303C56.545,-260.017 56.545,-269.288 56.545,-277.888"/>
<polygon fill="#000000" stroke="#000000" points="53.0451,-277.896 56.545,-287.896 60.0451,-277.896 53.0451,-277.896"/>
</g>
<!-- X::OS -->
<g id="node5" class="node"><title>X::OS</title>
<g id="a_node5"><a xlink:href="/type/X::OS" xlink:title="X::OS">
<ellipse fill="none" stroke="#6666ff" cx="174.545" cy="-162" rx="34.394" ry="18"/>
<text text-anchor="middle" x="174.545" y="-158.3" font-family="FreeSans" font-size="14.00" fill="#6666ff">X::OS</text>
</a>
</g>
</g>
<!-- X::OS&#45;&gt;Exception -->
<g id="edge6" class="edge"><title>X::OS&#45;&gt;Exception</title>
<path fill="none" stroke="#000000" d="M152.627,-176.002C135.056,-186.426 110.107,-201.226 90.0355,-213.133"/>
<polygon fill="#000000" stroke="#000000" points="88.0157,-210.261 81.2008,-218.374 91.5871,-216.282 88.0157,-210.261"/>
</g>
<!-- X::IO&#45;&gt;Exception -->
<g id="edge7" class="edge"><title>X::IO&#45;&gt;Exception</title>
<path fill="none" stroke="#000000" d="M125.081,-107.74C112.045,-133.521 88.545,-180 88.545,-180 88.545,-180 80.1336,-193.931 71.9357,-207.509"/>
<polygon fill="#000000" stroke="#000000" points="68.8425,-205.861 66.67,-216.23 74.835,-209.479 68.8425,-205.861"/>
</g>
<!-- X::IO&#45;&gt;X::OS -->
<g id="edge9" class="edge"><title>X::IO&#45;&gt;X::OS</title>
<path fill="none" stroke="#6666ff" d="M143.054,-107.235C148.002,-115.683 154.163,-126.201 159.719,-135.688"/>
<polygon fill="#6666ff" stroke="#6666ff" points="156.728,-137.507 164.803,-144.367 162.769,-133.969 156.728,-137.507"/>
</g>
</g>
</svg>
