<?xml version="1.0" encoding="UTF-8" standalone="no"?>
<!DOCTYPE svg PUBLIC "-//W3C//DTD SVG 1.1//EN"
 "http://www.w3.org/Graphics/SVG/1.1/DTD/svg11.dtd">
<!-- Generated by graphviz version 2.38.0 (20140413.2041)
 -->
<!-- Title: perl6&#45;type&#45;graph Pages: 1 -->
<svg width="169pt" height="188pt"
 viewBox="0.00 0.00 169.19 188.00" xmlns="http://www.w3.org/2000/svg" xmlns:xlink="http://www.w3.org/1999/xlink">
<g id="graph0" class="graph" transform="scale(1 1) rotate(0) translate(4 184)">
<title>perl6&#45;type&#45;graph</title>
<polygon fill="white" stroke="none" points="-4,4 -4,-184 165.186,-184 165.186,4 -4,4"/>
<!-- Backtrace::Frame -->
<g id="node1" class="node"><title>Backtrace::Frame</title>
<g id="a_node1"><a xlink:href="/type/Backtrace::Frame" xlink:title="Backtrace::Frame">
<ellipse fill="none" stroke="#000000" cx="80.5928" cy="-18" rx="80.6858" ry="18"/>
<text text-anchor="middle" x="80.5928" y="-14.3" font-family="FreeSans" font-size="14.00" fill="#000000">Backtrace::Frame</text>
</a>
</g>
</g>
<!-- Any -->
<g id="node3" class="node"><title>Any</title>
<g id="a_node3"><a xlink:href="/type/Any" xlink:title="Any">
<ellipse fill="none" stroke="#000000" cx="80.5928" cy="-90" rx="27" ry="18"/>
<text text-anchor="middle" x="80.5928" y="-86.3" font-family="FreeSans" font-size="14.00" fill="#000000">Any</text>
</a>
</g>
</g>
<!-- Backtrace::Frame&#45;&gt;Any -->
<g id="edge1" class="edge"><title>Backtrace::Frame&#45;&gt;Any</title>
<path fill="none" stroke="#000000" d="M80.5928,-36.3034C80.5928,-44.0173 80.5928,-53.2875 80.5928,-61.8876"/>
<polygon fill="#000000" stroke="#000000" points="77.0929,-61.8956 80.5928,-71.8957 84.0929,-61.8957 77.0929,-61.8956"/>
</g>
<!-- Mu -->
<g id="node2" class="node"><title>Mu</title>
<g id="a_node2"><a xlink:href="/type/Mu" xlink:title="Mu">
<ellipse fill="none" stroke="#000000" cx="80.5928" cy="-162" rx="27" ry="18"/>
<text text-anchor="middle" x="80.5928" y="-158.3" font-family="FreeSans" font-size="14.00" fill="#000000">Mu</text>
</a>
</g>
</g>
<!-- Any&#45;&gt;Mu -->
<g id="edge2" class="edge"><title>Any&#45;&gt;Mu</title>
<path fill="none" stroke="#000000" d="M80.5928,-108.303C80.5928,-116.017 80.5928,-125.288 80.5928,-133.888"/>
<polygon fill="#000000" stroke="#000000" points="77.0929,-133.896 80.5928,-143.896 84.0929,-133.896 77.0929,-133.896"/>
</g>
</g>
</svg>
