<?xml version="1.0" encoding="UTF-8" standalone="no"?>
<!DOCTYPE svg PUBLIC "-//W3C//DTD SVG 1.1//EN"
 "http://www.w3.org/Graphics/SVG/1.1/DTD/svg11.dtd">
<!-- Generated by graphviz version 2.38.0 (20140413.2041)
 -->
<!-- Title: perl6&#45;type&#45;graph Pages: 1 -->
<svg width="228pt" height="332pt"
 viewBox="0.00 0.00 227.89 332.00" xmlns="http://www.w3.org/2000/svg" xmlns:xlink="http://www.w3.org/1999/xlink">
<g id="graph0" class="graph" transform="scale(1 1) rotate(0) translate(4 328)">
<title>perl6&#45;type&#45;graph</title>
<polygon fill="white" stroke="none" points="-4,4 -4,-328 223.893,-328 223.893,4 -4,4"/>
<!-- X::NYI -->
<g id="node1" class="node"><title>X::NYI</title>
<g id="a_node1"><a xlink:href="/type/X::NYI" xlink:title="X::NYI">
<ellipse fill="none" stroke="#000000" cx="37.0467" cy="-90" rx="37.0935" ry="18"/>
<text text-anchor="middle" x="37.0467" y="-86.3" font-family="FreeSans" font-size="14.00" fill="#000000">X::NYI</text>
</a>
</g>
</g>
<!-- Exception -->
<g id="node4" class="node"><title>Exception</title>
<g id="a_node4"><a xlink:href="/type/Exception" xlink:title="Exception">
<ellipse fill="none" stroke="#000000" cx="102.047" cy="-162" rx="49.2915" ry="18"/>
<text text-anchor="middle" x="102.047" y="-158.3" font-family="FreeSans" font-size="14.00" fill="#000000">Exception</text>
</a>
</g>
</g>
<!-- X::NYI&#45;&gt;Exception -->
<g id="edge1" class="edge"><title>X::NYI&#45;&gt;Exception</title>
<path fill="none" stroke="#000000" d="M51.7962,-106.884C60.1537,-115.884 70.7702,-127.318 80.0896,-137.354"/>
<polygon fill="#000000" stroke="#000000" points="77.5352,-139.747 86.9045,-144.693 82.6647,-134.983 77.5352,-139.747"/>
</g>
<!-- Mu -->
<g id="node2" class="node"><title>Mu</title>
<g id="a_node2"><a xlink:href="/type/Mu" xlink:title="Mu">
<ellipse fill="none" stroke="#000000" cx="102.047" cy="-306" rx="27" ry="18"/>
<text text-anchor="middle" x="102.047" y="-302.3" font-family="FreeSans" font-size="14.00" fill="#000000">Mu</text>
</a>
</g>
</g>
<!-- Any -->
<g id="node3" class="node"><title>Any</title>
<g id="a_node3"><a xlink:href="/type/Any" xlink:title="Any">
<ellipse fill="none" stroke="#000000" cx="102.047" cy="-234" rx="27" ry="18"/>
<text text-anchor="middle" x="102.047" y="-230.3" font-family="FreeSans" font-size="14.00" fill="#000000">Any</text>
</a>
</g>
</g>
<!-- Any&#45;&gt;Mu -->
<g id="edge2" class="edge"><title>Any&#45;&gt;Mu</title>
<path fill="none" stroke="#000000" d="M102.047,-252.303C102.047,-260.017 102.047,-269.288 102.047,-277.888"/>
<polygon fill="#000000" stroke="#000000" points="98.5468,-277.896 102.047,-287.896 105.547,-277.896 98.5468,-277.896"/>
</g>
<!-- Exception&#45;&gt;Any -->
<g id="edge3" class="edge"><title>Exception&#45;&gt;Any</title>
<path fill="none" stroke="#000000" d="M102.047,-180.303C102.047,-188.017 102.047,-197.288 102.047,-205.888"/>
<polygon fill="#000000" stroke="#000000" points="98.5468,-205.896 102.047,-215.896 105.547,-205.896 98.5468,-205.896"/>
</g>
<!-- X::Comp -->
<g id="node5" class="node"><title>X::Comp</title>
<g id="a_node5"><a xlink:href="/type/X::Comp" xlink:title="X::Comp">
<ellipse fill="none" stroke="#6666ff" cx="175.047" cy="-90" rx="44.6926" ry="18"/>
<text text-anchor="middle" x="175.047" y="-86.3" font-family="FreeSans" font-size="14.00" fill="#6666ff">X::Comp</text>
</a>
</g>
</g>
<!-- X::Comp&#45;&gt;Exception -->
<g id="edge4" class="edge"><title>X::Comp&#45;&gt;Exception</title>
<path fill="none" stroke="#000000" d="M158.482,-106.884C148.936,-116.038 136.766,-127.707 126.173,-137.865"/>
<polygon fill="#000000" stroke="#000000" points="123.594,-135.489 118.799,-144.936 128.439,-140.541 123.594,-135.489"/>
</g>
<!-- X::Comp::NYI -->
<g id="node6" class="node"><title>X::Comp::NYI</title>
<g id="a_node6"><a xlink:href="/type/X::Comp::NYI" xlink:title="X::Comp::NYI">
<ellipse fill="none" stroke="#000000" cx="102.047" cy="-18" rx="65.7887" ry="18"/>
<text text-anchor="middle" x="102.047" y="-14.3" font-family="FreeSans" font-size="14.00" fill="#000000">X::Comp::NYI</text>
</a>
</g>
</g>
<!-- X::Comp::NYI&#45;&gt;X::NYI -->
<g id="edge5" class="edge"><title>X::Comp::NYI&#45;&gt;X::NYI</title>
<path fill="none" stroke="#000000" d="M86.6426,-35.589C78.3482,-44.5214 67.977,-55.6904 58.8659,-65.5024"/>
<polygon fill="#000000" stroke="#000000" points="56.1326,-63.3023 51.8928,-73.0119 61.2621,-68.0655 56.1326,-63.3023"/>
</g>
<!-- X::Comp::NYI&#45;&gt;Exception -->
<g id="edge6" class="edge"><title>X::Comp::NYI&#45;&gt;Exception</title>
<path fill="none" stroke="#000000" d="M102.047,-36.1285C102.047,-60.3298 102.047,-104.789 102.047,-133.607"/>
<polygon fill="#000000" stroke="#000000" points="98.5468,-133.811 102.047,-143.811 105.547,-133.811 98.5468,-133.811"/>
</g>
<!-- X::Comp::NYI&#45;&gt;X::Comp -->
<g id="edge7" class="edge"><title>X::Comp::NYI&#45;&gt;X::Comp</title>
<path fill="none" stroke="#6666ff" d="M119.347,-35.589C128.846,-44.6983 140.772,-56.1336 151.148,-66.0837"/>
<polygon fill="#6666ff" stroke="#6666ff" points="148.733,-68.6169 158.373,-73.0119 153.578,-63.5644 148.733,-68.6169"/>
</g>
</g>
</svg>
