<?xml version="1.0" encoding="UTF-8" standalone="no"?>
<!DOCTYPE svg PUBLIC "-//W3C//DTD SVG 1.1//EN"
 "http://www.w3.org/Graphics/SVG/1.1/DTD/svg11.dtd">
<!-- Generated by graphviz version 2.38.0 (20140413.2041)
 -->
<!-- Title: perl6&#45;type&#45;graph Pages: 1 -->
<svg width="632pt" height="332pt"
 viewBox="0.00 0.00 631.89 332.00" xmlns="http://www.w3.org/2000/svg" xmlns:xlink="http://www.w3.org/1999/xlink">
<g id="graph0" class="graph" transform="scale(1 1) rotate(0) translate(4 328)">
<title>perl6&#45;type&#45;graph</title>
<polygon fill="white" stroke="none" points="-4,4 -4,-328 627.888,-328 627.888,4 -4,4"/>
<!-- IO -->
<g id="node1" class="node"><title>IO</title>
<g id="a_node1"><a xlink:href="/type/IO" xlink:title="IO">
<ellipse fill="none" stroke="#6666ff" cx="242.244" cy="-162" rx="27" ry="18"/>
<text text-anchor="middle" x="242.244" y="-158.3" font-family="FreeSans" font-size="14.00" fill="#6666ff">IO</text>
</a>
</g>
</g>
<!-- Mu -->
<g id="node2" class="node"><title>Mu</title>
<g id="a_node2"><a xlink:href="/type/Mu" xlink:title="Mu">
<ellipse fill="none" stroke="#000000" cx="251.244" cy="-306" rx="27" ry="18"/>
<text text-anchor="middle" x="251.244" y="-302.3" font-family="FreeSans" font-size="14.00" fill="#000000">Mu</text>
</a>
</g>
</g>
<!-- Any -->
<g id="node3" class="node"><title>Any</title>
<g id="a_node3"><a xlink:href="/type/Any" xlink:title="Any">
<ellipse fill="none" stroke="#000000" cx="251.244" cy="-234" rx="27" ry="18"/>
<text text-anchor="middle" x="251.244" y="-230.3" font-family="FreeSans" font-size="14.00" fill="#000000">Any</text>
</a>
</g>
</g>
<!-- Any&#45;&gt;Mu -->
<g id="edge1" class="edge"><title>Any&#45;&gt;Mu</title>
<path fill="none" stroke="#000000" d="M251.244,-252.303C251.244,-260.017 251.244,-269.288 251.244,-277.888"/>
<polygon fill="#000000" stroke="#000000" points="247.744,-277.896 251.244,-287.896 254.744,-277.896 247.744,-277.896"/>
</g>
<!-- IO::Special -->
<g id="node4" class="node"><title>IO::Special</title>
<g id="a_node4"><a xlink:href="/type/IO::Special" xlink:title="IO::Special">
<ellipse fill="none" stroke="#000000" cx="190.244" cy="-90" rx="53.8905" ry="18"/>
<text text-anchor="middle" x="190.244" y="-86.3" font-family="FreeSans" font-size="14.00" fill="#000000">IO::Special</text>
</a>
</g>
</g>
<!-- IO::Special&#45;&gt;IO -->
<g id="edge9" class="edge"><title>IO::Special&#45;&gt;IO</title>
<path fill="none" stroke="#6666ff" d="M202.567,-107.589C209.164,-116.47 217.404,-127.561 224.662,-137.332"/>
<polygon fill="#6666ff" stroke="#6666ff" points="221.949,-139.549 230.722,-145.489 227.568,-135.375 221.949,-139.549"/>
</g>
<!-- IO::Special&#45;&gt;Any -->
<g id="edge2" class="edge"><title>IO::Special&#45;&gt;Any</title>
<path fill="none" stroke="#000000" d="M193.329,-108.16C197.978,-134.022 206.244,-180 206.244,-180 206.244,-180 219.714,-195.865 231.915,-210.235"/>
<polygon fill="#000000" stroke="#000000" points="229.329,-212.596 238.469,-217.954 234.665,-208.066 229.329,-212.596"/>
</g>
<!-- Cool -->
<g id="node5" class="node"><title>Cool</title>
<g id="a_node5"><a xlink:href="/type/Cool" xlink:title="Cool">
<ellipse fill="none" stroke="#000000" cx="316.244" cy="-162" rx="28.6953" ry="18"/>
<text text-anchor="middle" x="316.244" y="-158.3" font-family="FreeSans" font-size="14.00" fill="#000000">Cool</text>
</a>
</g>
</g>
<!-- Cool&#45;&gt;Any -->
<g id="edge3" class="edge"><title>Cool&#45;&gt;Any</title>
<path fill="none" stroke="#000000" d="M302.459,-177.845C293.583,-187.404 281.881,-200.006 271.904,-210.751"/>
<polygon fill="#000000" stroke="#000000" points="269.249,-208.467 265.009,-218.176 274.378,-213.23 269.249,-208.467"/>
</g>
<!-- IO::Path -->
<g id="node6" class="node"><title>IO::Path</title>
<g id="a_node6"><a xlink:href="/type/IO::Path" xlink:title="IO::Path">
<ellipse fill="none" stroke="#000000" cx="312.244" cy="-90" rx="43.5923" ry="18"/>
<text text-anchor="middle" x="312.244" y="-86.3" font-family="FreeSans" font-size="14.00" fill="#000000">IO::Path</text>
</a>
</g>
</g>
<!-- IO::Path&#45;&gt;IO -->
<g id="edge10" class="edge"><title>IO::Path&#45;&gt;IO</title>
<path fill="none" stroke="#6666ff" d="M296.36,-106.884C286.752,-116.492 274.372,-128.872 263.878,-139.366"/>
<polygon fill="#6666ff" stroke="#6666ff" points="261.233,-137.061 256.637,-146.607 266.183,-142.011 261.233,-137.061"/>
</g>
<!-- IO::Path&#45;&gt;Cool -->
<g id="edge4" class="edge"><title>IO::Path&#45;&gt;Cool</title>
<path fill="none" stroke="#000000" d="M313.233,-108.303C313.674,-116.017 314.203,-125.288 314.695,-133.888"/>
<polygon fill="#000000" stroke="#000000" points="311.202,-134.112 315.267,-143.896 318.19,-133.712 311.202,-134.112"/>
</g>
<!-- IO::Path::QNX -->
<g id="node7" class="node"><title>IO::Path::QNX</title>
<g id="a_node7"><a xlink:href="/type/IO::Path::QNX" xlink:title="IO::Path::QNX">
<ellipse fill="none" stroke="#000000" cx="68.2439" cy="-18" rx="68.4888" ry="18"/>
<text text-anchor="middle" x="68.2439" y="-14.3" font-family="FreeSans" font-size="14.00" fill="#000000">IO::Path::QNX</text>
</a>
</g>
</g>
<!-- IO::Path::QNX&#45;&gt;IO::Path -->
<g id="edge5" class="edge"><title>IO::Path::QNX&#45;&gt;IO::Path</title>
<path fill="none" stroke="#000000" d="M112.556,-31.6948C167.287,-47.3744 253.244,-72 253.244,-72 253.244,-72 259.444,-73.7863 267.823,-76.2009"/>
<polygon fill="#000000" stroke="#000000" points="267.004,-79.6071 277.582,-79.0127 268.942,-72.8807 267.004,-79.6071"/>
</g>
<!-- IO::Path::Win32 -->
<g id="node8" class="node"><title>IO::Path::Win32</title>
<g id="a_node8"><a xlink:href="/type/IO::Path::Win32" xlink:title="IO::Path::Win32">
<ellipse fill="none" stroke="#000000" cx="228.244" cy="-18" rx="73.387" ry="18"/>
<text text-anchor="middle" x="228.244" y="-14.3" font-family="FreeSans" font-size="14.00" fill="#000000">IO::Path::Win32</text>
</a>
</g>
</g>
<!-- IO::Path::Win32&#45;&gt;IO::Path -->
<g id="edge6" class="edge"><title>IO::Path::Win32&#45;&gt;IO::Path</title>
<path fill="none" stroke="#000000" d="M248.151,-35.589C259.346,-44.9181 273.468,-56.6869 285.606,-66.8014"/>
<polygon fill="#000000" stroke="#000000" points="283.708,-69.7761 293.631,-73.4892 288.189,-64.3985 283.708,-69.7761"/>
</g>
<!-- IO::Path::Cygwin -->
<g id="node9" class="node"><title>IO::Path::Cygwin</title>
<g id="a_node9"><a xlink:href="/type/IO::Path::Cygwin" xlink:title="IO::Path::Cygwin">
<ellipse fill="none" stroke="#000000" cx="397.244" cy="-18" rx="77.1866" ry="18"/>
<text text-anchor="middle" x="397.244" y="-14.3" font-family="FreeSans" font-size="14.00" fill="#000000">IO::Path::Cygwin</text>
</a>
</g>
</g>
<!-- IO::Path::Cygwin&#45;&gt;IO::Path -->
<g id="edge7" class="edge"><title>IO::Path::Cygwin&#45;&gt;IO::Path</title>
<path fill="none" stroke="#000000" d="M377.1,-35.589C365.663,-45.0079 351.206,-56.9135 338.846,-67.0927"/>
<polygon fill="#000000" stroke="#000000" points="336.573,-64.4303 331.079,-73.4892 341.023,-69.8338 336.573,-64.4303"/>
</g>
<!-- IO::Path::Unix -->
<g id="node10" class="node"><title>IO::Path::Unix</title>
<g id="a_node10"><a xlink:href="/type/IO::Path::Unix" xlink:title="IO::Path::Unix">
<ellipse fill="none" stroke="#000000" cx="558.244" cy="-18" rx="65.7887" ry="18"/>
<text text-anchor="middle" x="558.244" y="-14.3" font-family="FreeSans" font-size="14.00" fill="#000000">IO::Path::Unix</text>
</a>
</g>
</g>
<!-- IO::Path::Unix&#45;&gt;IO::Path -->
<g id="edge8" class="edge"><title>IO::Path::Unix&#45;&gt;IO::Path</title>
<path fill="none" stroke="#000000" d="M514.548,-31.4339C470.135,-44.0716 401.676,-63.552 356.915,-76.2887"/>
<polygon fill="#000000" stroke="#000000" points="355.847,-72.9536 347.187,-79.0569 357.763,-79.6863 355.847,-72.9536"/>
</g>
</g>
</svg>
