<?xml version="1.0" encoding="UTF-8" standalone="no"?>
<!DOCTYPE svg PUBLIC "-//W3C//DTD SVG 1.1//EN"
 "http://www.w3.org/Graphics/SVG/1.1/DTD/svg11.dtd">
<!-- Generated by graphviz version 2.38.0 (20140413.2041)
 -->
<!-- Title: perl6&#45;type&#45;graph Pages: 1 -->
<svg width="449pt" height="44pt"
 viewBox="0.00 0.00 448.51 44.00" xmlns="http://www.w3.org/2000/svg" xmlns:xlink="http://www.w3.org/1999/xlink">
<g id="graph0" class="graph" transform="scale(1 1) rotate(0) translate(304.065 20.8648)">
<title>perl6&#45;type&#45;graph</title>
<polygon fill="white" stroke="none" points="-304.065,23.1352 -304.065,-20.8648 144.443,-20.8648 144.443,23.1352 -304.065,23.1352"/>
<!-- Metamodel::StaticLexPad -->
<g id="node1" class="node"><title>Metamodel::StaticLexPad</title>
<g id="a_node1"><a xlink:href="/type/Metamodel::StaticLexPad" xlink:title="Metamodel::StaticLexPad">
<ellipse fill="none" stroke="#000000" cx="-188.275" cy="1.13521" rx="111.581" ry="18"/>
<text text-anchor="middle" x="-188.275" y="4.83521" font-family="FreeSans" font-size="14.00" fill="#000000">Metamodel::StaticLexPad</text>
</a>
</g>
</g>
<!-- Any -->
<g id="node3" class="node"><title>Any</title>
<g id="a_node3"><a xlink:href="/type/Any" xlink:title="Any">
<ellipse fill="none" stroke="#000000" cx="-32.3596" cy="1.13524" rx="27" ry="18"/>
<text text-anchor="middle" x="-32.3596" y="4.83524" font-family="FreeSans" font-size="14.00" fill="#000000">Any</text>
</a>
</g>
</g>
<!-- Metamodel::StaticLexPad&#45;&gt;Any -->
<g id="edge1" class="edge"><title>Metamodel::StaticLexPad&#45;&gt;Any</title>
<path fill="none" stroke="#000000" d="M-76.2055,1.13523C-73.9542,1.13523 -71.7501,1.13523 -69.6033,1.13523"/>
<polygon fill="#000000" stroke="#000000" points="-69.3927,-2.36487 -59.3927,1.13523 -69.3927,4.63513 -69.3927,-2.36487"/>
</g>
<!-- Mu -->
<g id="node2" class="node"><title>Mu</title>
<g id="a_node2"><a xlink:href="/type/Mu" xlink:title="Mu">
<ellipse fill="none" stroke="#000000" cx="113.443" cy="1.13521" rx="27" ry="18"/>
<text text-anchor="middle" x="113.443" y="4.83521" font-family="FreeSans" font-size="14.00" fill="#000000">Mu</text>
</a>
</g>
</g>
<!-- Any&#45;&gt;Mu -->
<g id="edge2" class="edge"><title>Any&#45;&gt;Mu</title>
<path fill="none" stroke="#000000" d="M-5.27688,1.13523C17.5956,1.13523 50.5874,1.13522 75.9897,1.13521"/>
<polygon fill="#000000" stroke="#000000" points="76.0108,-2.36469 86.0109,1.13521 76.0109,4.63531 76.0108,-2.36469"/>
</g>
</g>
</svg>
