<?xml version="1.0" encoding="UTF-8" standalone="no"?>
<!DOCTYPE svg PUBLIC "-//W3C//DTD SVG 1.1//EN"
 "http://www.w3.org/Graphics/SVG/1.1/DTD/svg11.dtd">
<!-- Generated by graphviz version 2.38.0 (20140413.2041)
 -->
<!-- Title: perl6&#45;type&#45;graph Pages: 1 -->
<svg width="1816pt" height="404pt"
 viewBox="0.00 0.00 1816.04 404.00" xmlns="http://www.w3.org/2000/svg" xmlns:xlink="http://www.w3.org/1999/xlink">
<g id="graph0" class="graph" transform="scale(1 1) rotate(0) translate(4 400)">
<title>perl6&#45;type&#45;graph</title>
<polygon fill="white" stroke="none" points="-4,4 -4,-400 1812.04,-400 1812.04,4 -4,4"/>
<!-- X::OS -->
<g id="node1" class="node"><title>X::OS</title>
<g id="a_node1"><a xlink:href="/type/X::OS" xlink:title="X::OS">
<ellipse fill="none" stroke="#6666ff" cx="940.594" cy="-162" rx="34.394" ry="18"/>
<text text-anchor="middle" x="940.594" y="-158.3" font-family="FreeSans" font-size="14.00" fill="#6666ff">X::OS</text>
</a>
</g>
</g>
<!-- Exception -->
<g id="node4" class="node"><title>Exception</title>
<g id="a_node4"><a xlink:href="/type/Exception" xlink:title="Exception">
<ellipse fill="none" stroke="#000000" cx="1094.59" cy="-234" rx="49.2915" ry="18"/>
<text text-anchor="middle" x="1094.59" y="-230.3" font-family="FreeSans" font-size="14.00" fill="#000000">Exception</text>
</a>
</g>
</g>
<!-- X::OS&#45;&gt;Exception -->
<g id="edge1" class="edge"><title>X::OS&#45;&gt;Exception</title>
<path fill="none" stroke="#000000" d="M965.68,-174.403C990.107,-185.506 1027.58,-202.539 1055.84,-215.385"/>
<polygon fill="#000000" stroke="#000000" points="1054.49,-218.615 1065.04,-219.566 1057.38,-212.242 1054.49,-218.615"/>
</g>
<!-- Mu -->
<g id="node2" class="node"><title>Mu</title>
<g id="a_node2"><a xlink:href="/type/Mu" xlink:title="Mu">
<ellipse fill="none" stroke="#000000" cx="1094.59" cy="-378" rx="27" ry="18"/>
<text text-anchor="middle" x="1094.59" y="-374.3" font-family="FreeSans" font-size="14.00" fill="#000000">Mu</text>
</a>
</g>
</g>
<!-- Any -->
<g id="node3" class="node"><title>Any</title>
<g id="a_node3"><a xlink:href="/type/Any" xlink:title="Any">
<ellipse fill="none" stroke="#000000" cx="1094.59" cy="-306" rx="27" ry="18"/>
<text text-anchor="middle" x="1094.59" y="-302.3" font-family="FreeSans" font-size="14.00" fill="#000000">Any</text>
</a>
</g>
</g>
<!-- Any&#45;&gt;Mu -->
<g id="edge2" class="edge"><title>Any&#45;&gt;Mu</title>
<path fill="none" stroke="#000000" d="M1094.59,-324.303C1094.59,-332.017 1094.59,-341.288 1094.59,-349.888"/>
<polygon fill="#000000" stroke="#000000" points="1091.09,-349.896 1094.59,-359.896 1098.09,-349.896 1091.09,-349.896"/>
</g>
<!-- Exception&#45;&gt;Any -->
<g id="edge3" class="edge"><title>Exception&#45;&gt;Any</title>
<path fill="none" stroke="#000000" d="M1094.59,-252.303C1094.59,-260.017 1094.59,-269.288 1094.59,-277.888"/>
<polygon fill="#000000" stroke="#000000" points="1091.09,-277.896 1094.59,-287.896 1098.09,-277.896 1091.09,-277.896"/>
</g>
<!-- X::IO -->
<g id="node5" class="node"><title>X::IO</title>
<g id="a_node5"><a xlink:href="/type/X::IO" xlink:title="X::IO">
<ellipse fill="none" stroke="#6666ff" cx="940.594" cy="-90" rx="31.3957" ry="18"/>
<text text-anchor="middle" x="940.594" y="-86.3" font-family="FreeSans" font-size="14.00" fill="#6666ff">X::IO</text>
</a>
</g>
</g>
<!-- X::IO&#45;&gt;X::OS -->
<g id="edge38" class="edge"><title>X::IO&#45;&gt;X::OS</title>
<path fill="none" stroke="#6666ff" d="M940.594,-108.303C940.594,-116.017 940.594,-125.288 940.594,-133.888"/>
<polygon fill="#6666ff" stroke="#6666ff" points="937.094,-133.896 940.594,-143.896 944.094,-133.896 937.094,-133.896"/>
</g>
<!-- X::IO&#45;&gt;Exception -->
<g id="edge4" class="edge"><title>X::IO&#45;&gt;Exception</title>
<path fill="none" stroke="#000000" d="M927.925,-106.615C915.241,-122.249 897.594,-144 897.594,-144 897.594,-144 897.594,-180 897.594,-180 897.594,-180 988.044,-204.334 1046.37,-220.025"/>
<polygon fill="#000000" stroke="#000000" points="1045.58,-223.437 1056.14,-222.655 1047.4,-216.677 1045.58,-223.437"/>
</g>
<!-- X::IO::Symlink -->
<g id="node6" class="node"><title>X::IO::Symlink</title>
<g id="a_node6"><a xlink:href="/type/X::IO::Symlink" xlink:title="X::IO::Symlink">
<ellipse fill="none" stroke="#000000" cx="67.594" cy="-18" rx="67.6881" ry="18"/>
<text text-anchor="middle" x="67.594" y="-14.3" font-family="FreeSans" font-size="14.00" fill="#000000">X::IO::Symlink</text>
</a>
</g>
</g>
<!-- X::IO::Symlink&#45;&gt;Exception -->
<g id="edge5" class="edge"><title>X::IO::Symlink&#45;&gt;Exception</title>
<path fill="none" stroke="#000000" d="M106.865,-32.8661C223.924,-71.9189 561.594,-180 561.594,-180 561.594,-180 899.595,-214.187 1037.33,-227.647"/>
<polygon fill="#000000" stroke="#000000" points="1037,-231.131 1047.29,-228.618 1037.68,-224.164 1037,-231.131"/>
</g>
<!-- X::IO::Symlink&#45;&gt;Exception -->
<g id="edge6" class="edge"><title>X::IO::Symlink&#45;&gt;Exception</title>
<path fill="none" stroke="#000000" d="M111.391,-31.768C235.454,-69.8479 579.594,-180 579.594,-180 579.594,-180 904.235,-212.836 1038.07,-226.817"/>
<polygon fill="#000000" stroke="#000000" points="1037.82,-230.31 1048.13,-227.87 1038.55,-223.348 1037.82,-230.31"/>
</g>
<!-- X::IO::Symlink&#45;&gt;X::IO -->
<g id="edge39" class="edge"><title>X::IO::Symlink&#45;&gt;X::IO</title>
<path fill="none" stroke="#6666ff" d="M118.095,-30.1496C132.609,-33.3539 144.594,-36 144.594,-36 144.594,-36 735.967,-75.3754 899.264,-86.2481"/>
<polygon fill="#6666ff" stroke="#6666ff" points="899.179,-89.7502 909.39,-86.9223 899.645,-82.7656 899.179,-89.7502"/>
</g>
<!-- X::IO::Unlink -->
<g id="node7" class="node"><title>X::IO::Unlink</title>
<g id="a_node7"><a xlink:href="/type/X::IO::Unlink" xlink:title="X::IO::Unlink">
<ellipse fill="none" stroke="#000000" cx="214.594" cy="-18" rx="61.1893" ry="18"/>
<text text-anchor="middle" x="214.594" y="-14.3" font-family="FreeSans" font-size="14.00" fill="#000000">X::IO::Unlink</text>
</a>
</g>
</g>
<!-- X::IO::Unlink&#45;&gt;Exception -->
<g id="edge7" class="edge"><title>X::IO::Unlink&#45;&gt;Exception</title>
<path fill="none" stroke="#000000" d="M250.076,-32.8661C356.462,-71.9189 664.594,-180 664.594,-180 664.594,-180 920.839,-212.259 1037.78,-226.442"/>
<polygon fill="#000000" stroke="#000000" points="1037.62,-229.949 1047.97,-227.675 1038.46,-223 1037.62,-229.949"/>
</g>
<!-- X::IO::Unlink&#45;&gt;Exception -->
<g id="edge8" class="edge"><title>X::IO::Unlink&#45;&gt;Exception</title>
<path fill="none" stroke="#000000" d="M254.5,-31.6334C367.816,-69.5876 682.594,-180 682.594,-180 682.594,-180 926.652,-210.725 1039.15,-225.387"/>
<polygon fill="#000000" stroke="#000000" points="1038.92,-228.887 1049.29,-226.712 1039.83,-221.946 1038.92,-228.887"/>
</g>
<!-- X::IO::Unlink&#45;&gt;X::IO -->
<g id="edge40" class="edge"><title>X::IO::Unlink&#45;&gt;X::IO</title>
<path fill="none" stroke="#6666ff" d="M260.111,-30.0542C273.481,-33.3012 284.594,-36 284.594,-36 284.594,-36 756.239,-74.1054 899.693,-85.6955"/>
<polygon fill="#6666ff" stroke="#6666ff" points="899.584,-89.198 909.834,-86.5148 900.148,-82.2208 899.584,-89.198"/>
</g>
<!-- X::IO::Chmod -->
<g id="node8" class="node"><title>X::IO::Chmod</title>
<g id="a_node8"><a xlink:href="/type/X::IO::Chmod" xlink:title="X::IO::Chmod">
<ellipse fill="none" stroke="#000000" cx="357.594" cy="-18" rx="64.189" ry="18"/>
<text text-anchor="middle" x="357.594" y="-14.3" font-family="FreeSans" font-size="14.00" fill="#000000">X::IO::Chmod</text>
</a>
</g>
</g>
<!-- X::IO::Chmod&#45;&gt;Exception -->
<g id="edge9" class="edge"><title>X::IO::Chmod&#45;&gt;Exception</title>
<path fill="none" stroke="#000000" d="M390.293,-33.5716C485.617,-73.2032 755.594,-180 755.594,-180 755.594,-180 943.097,-210.114 1039.28,-224.943"/>
<polygon fill="#000000" stroke="#000000" points="1039.01,-228.441 1049.42,-226.501 1040.07,-221.523 1039.01,-228.441"/>
</g>
<!-- X::IO::Chmod&#45;&gt;Exception -->
<g id="edge10" class="edge"><title>X::IO::Chmod&#45;&gt;Exception</title>
<path fill="none" stroke="#000000" d="M395.958,-32.588C499.066,-71.403 773.594,-180 773.594,-180 773.594,-180 950.113,-208.35 1041.43,-223.581"/>
<polygon fill="#000000" stroke="#000000" points="1040.88,-227.039 1051.32,-225.237 1042.04,-220.135 1040.88,-227.039"/>
</g>
<!-- X::IO::Chmod&#45;&gt;X::IO -->
<g id="edge41" class="edge"><title>X::IO::Chmod&#45;&gt;X::IO</title>
<path fill="none" stroke="#6666ff" d="M405.472,-30.1496C419.231,-33.3539 430.594,-36 430.594,-36 430.594,-36 779.073,-72.2144 899.915,-84.7726"/>
<polygon fill="#6666ff" stroke="#6666ff" points="899.91,-88.2908 910.218,-85.8433 900.634,-81.3283 899.91,-88.2908"/>
</g>
<!-- X::IO::DoesNotExist -->
<g id="node9" class="node"><title>X::IO::DoesNotExist</title>
<g id="a_node9"><a xlink:href="/type/X::IO::DoesNotExist" xlink:title="X::IO::DoesNotExist">
<ellipse fill="none" stroke="#000000" cx="529.594" cy="-18" rx="89.8845" ry="18"/>
<text text-anchor="middle" x="529.594" y="-14.3" font-family="FreeSans" font-size="14.00" fill="#000000">X::IO::DoesNotExist</text>
</a>
</g>
</g>
<!-- X::IO::DoesNotExist&#45;&gt;Exception -->
<g id="edge11" class="edge"><title>X::IO::DoesNotExist&#45;&gt;Exception</title>
<path fill="none" stroke="#000000" d="M556.072,-35.3235C628.702,-76.2544 824.594,-180 824.594,-180 824.594,-180 962.231,-207.949 1041.05,-223.255"/>
<polygon fill="#000000" stroke="#000000" points="1040.81,-226.774 1051.29,-225.237 1042.14,-219.901 1040.81,-226.774"/>
</g>
<!-- X::IO::DoesNotExist&#45;&gt;Exception -->
<g id="edge12" class="edge"><title>X::IO::DoesNotExist&#45;&gt;Exception</title>
<path fill="none" stroke="#000000" d="M563.573,-34.7305C644.791,-75.2423 842.594,-180 842.594,-180 842.594,-180 970.309,-205.934 1043.98,-221.52"/>
<polygon fill="#000000" stroke="#000000" points="1043.49,-224.994 1054,-223.647 1044.94,-218.146 1043.49,-224.994"/>
</g>
<!-- X::IO::DoesNotExist&#45;&gt;X::IO -->
<g id="edge42" class="edge"><title>X::IO::DoesNotExist&#45;&gt;X::IO</title>
<path fill="none" stroke="#6666ff" d="M595.353,-30.292C613.638,-33.4319 628.594,-36 628.594,-36 628.594,-36 817.033,-68.0105 901.018,-82.2772"/>
<polygon fill="#6666ff" stroke="#6666ff" points="900.516,-85.7419 910.961,-83.9661 901.688,-78.8407 900.516,-85.7419"/>
</g>
<!-- X::IO::Mkdir -->
<g id="node10" class="node"><title>X::IO::Mkdir</title>
<g id="a_node10"><a xlink:href="/type/X::IO::Mkdir" xlink:title="X::IO::Mkdir">
<ellipse fill="none" stroke="#000000" cx="695.594" cy="-18" rx="58.4896" ry="18"/>
<text text-anchor="middle" x="695.594" y="-14.3" font-family="FreeSans" font-size="14.00" fill="#000000">X::IO::Mkdir</text>
</a>
</g>
</g>
<!-- X::IO::Mkdir&#45;&gt;Exception -->
<g id="edge13" class="edge"><title>X::IO::Mkdir&#45;&gt;Exception</title>
<path fill="none" stroke="#000000" d="M709.904,-35.6234C751.528,-76.7587 867.594,-180 867.594,-180 867.594,-180 975.951,-206.344 1043.03,-221.886"/>
<polygon fill="#000000" stroke="#000000" points="1042.49,-225.351 1053.02,-224.189 1044.06,-218.53 1042.49,-225.351"/>
</g>
<!-- X::IO::Mkdir&#45;&gt;Exception -->
<g id="edge14" class="edge"><title>X::IO::Mkdir&#45;&gt;Exception</title>
<path fill="none" stroke="#000000" d="M717.555,-34.7305C767.823,-75.2423 885.594,-180 885.594,-180 885.594,-180 985.008,-204.169 1046.8,-219.865"/>
<polygon fill="#000000" stroke="#000000" points="1046.19,-223.322 1056.74,-222.402 1047.92,-216.539 1046.19,-223.322"/>
</g>
<!-- X::IO::Mkdir&#45;&gt;X::IO -->
<g id="edge43" class="edge"><title>X::IO::Mkdir&#45;&gt;X::IO</title>
<path fill="none" stroke="#6666ff" d="M736.878,-30.7954C783.535,-44.1259 858.799,-65.63 903.606,-78.4321"/>
<polygon fill="#6666ff" stroke="#6666ff" points="902.648,-81.7983 913.225,-81.1802 904.571,-75.0676 902.648,-81.7983"/>
</g>
<!-- X::IO::Rmdir -->
<g id="node11" class="node"><title>X::IO::Rmdir</title>
<g id="a_node11"><a xlink:href="/type/X::IO::Rmdir" xlink:title="X::IO::Rmdir">
<ellipse fill="none" stroke="#000000" cx="831.594" cy="-18" rx="59.5901" ry="18"/>
<text text-anchor="middle" x="831.594" y="-14.3" font-family="FreeSans" font-size="14.00" fill="#000000">X::IO::Rmdir</text>
</a>
</g>
</g>
<!-- X::IO::Rmdir&#45;&gt;Exception -->
<g id="edge15" class="edge"><title>X::IO::Rmdir&#45;&gt;Exception</title>
<path fill="none" stroke="#000000" d="M833.783,-36.2298C845.223,-77.7634 884.594,-180 884.594,-180 884.594,-180 981.347,-205.512 1043.6,-221.135"/>
<polygon fill="#000000" stroke="#000000" points="1043.11,-224.619 1053.66,-223.647 1044.8,-217.828 1043.11,-224.619"/>
</g>
<!-- X::IO::Rmdir&#45;&gt;Exception -->
<g id="edge16" class="edge"><title>X::IO::Rmdir&#45;&gt;Exception</title>
<path fill="none" stroke="#000000" d="M842.524,-35.9255C863.03,-77.2617 902.594,-180 902.594,-180 902.594,-180 991.027,-203.318 1047.95,-219.021"/>
<polygon fill="#000000" stroke="#000000" points="1047.27,-222.463 1057.84,-221.76 1049.14,-215.717 1047.27,-222.463"/>
</g>
<!-- X::IO::Rmdir&#45;&gt;X::IO -->
<g id="edge44" class="edge"><title>X::IO::Rmdir&#45;&gt;X::IO</title>
<path fill="none" stroke="#6666ff" d="M855.785,-34.5353C872.342,-45.1682 894.371,-59.3153 911.828,-70.5262"/>
<polygon fill="#6666ff" stroke="#6666ff" points="910.181,-73.6283 920.487,-76.087 913.964,-67.7383 910.181,-73.6283"/>
</g>
<!-- X::IO::Chdir -->
<g id="node12" class="node"><title>X::IO::Chdir</title>
<g id="a_node12"><a xlink:href="/type/X::IO::Chdir" xlink:title="X::IO::Chdir">
<ellipse fill="none" stroke="#000000" cx="966.594" cy="-18" rx="57.3905" ry="18"/>
<text text-anchor="middle" x="966.594" y="-14.3" font-family="FreeSans" font-size="14.00" fill="#000000">X::IO::Chdir</text>
</a>
</g>
</g>
<!-- X::IO::Chdir&#45;&gt;Exception -->
<g id="edge17" class="edge"><title>X::IO::Chdir&#45;&gt;Exception</title>
<path fill="none" stroke="#000000" d="M969.097,-36.1508C984.541,-74.088 1038.65,-165.206 1071.24,-208.872"/>
<polygon fill="#000000" stroke="#000000" points="1068.58,-211.153 1077.45,-216.943 1074.12,-206.883 1068.58,-211.153"/>
</g>
<!-- X::IO::Chdir&#45;&gt;Exception -->
<g id="edge18" class="edge"><title>X::IO::Chdir&#45;&gt;Exception</title>
<path fill="none" stroke="#000000" d="M976.638,-35.7922C998.977,-73.1398 1052.89,-163.271 1079.38,-207.565"/>
<polygon fill="#000000" stroke="#000000" points="1076.46,-209.5 1084.6,-216.286 1082.47,-205.907 1076.46,-209.5"/>
</g>
<!-- X::IO::Chdir&#45;&gt;Exception -->
<g id="edge19" class="edge"><title>X::IO::Chdir&#45;&gt;Exception</title>
<path fill="none" stroke="#000000" d="M984.042,-35.4369C1013.34,-72.2882 1067.41,-161.783 1088.04,-206.564"/>
<polygon fill="#000000" stroke="#000000" points="1084.91,-208.149 1092.12,-215.915 1091.33,-205.349 1084.91,-208.149"/>
</g>
<!-- X::IO::Chdir&#45;&gt;X::IO -->
<g id="edge45" class="edge"><title>X::IO::Chdir&#45;&gt;X::IO</title>
<path fill="none" stroke="#6666ff" d="M960.3,-35.945C957.33,-43.9414 953.717,-53.6692 950.4,-62.6005"/>
<polygon fill="#6666ff" stroke="#6666ff" points="947.031,-61.6181 946.83,-72.211 953.593,-64.0554 947.031,-61.6181"/>
</g>
<!-- X::IO::Link -->
<g id="node13" class="node"><title>X::IO::Link</title>
<g id="a_node13"><a xlink:href="/type/X::IO::Link" xlink:title="X::IO::Link">
<ellipse fill="none" stroke="#000000" cx="1094.59" cy="-18" rx="53.0913" ry="18"/>
<text text-anchor="middle" x="1094.59" y="-14.3" font-family="FreeSans" font-size="14.00" fill="#000000">X::IO::Link</text>
</a>
</g>
</g>
<!-- X::IO::Link&#45;&gt;Exception -->
<g id="edge20" class="edge"><title>X::IO::Link&#45;&gt;Exception</title>
<path fill="none" stroke="#000000" d="M1086.84,-36.1508C1079.75,-73.2599 1079.22,-161.253 1085.25,-205.946"/>
<polygon fill="#000000" stroke="#000000" points="1081.84,-206.747 1086.88,-216.065 1088.75,-205.636 1081.84,-206.747"/>
</g>
<!-- X::IO::Link&#45;&gt;Exception -->
<g id="edge21" class="edge"><title>X::IO::Link&#45;&gt;Exception</title>
<path fill="none" stroke="#000000" d="M1094.59,-36.1508C1094.59,-73.1683 1094.59,-160.819 1094.59,-205.614"/>
<polygon fill="#000000" stroke="#000000" points="1091.09,-205.768 1094.59,-215.768 1098.09,-205.768 1091.09,-205.768"/>
</g>
<!-- X::IO::Link&#45;&gt;Exception -->
<g id="edge22" class="edge"><title>X::IO::Link&#45;&gt;Exception</title>
<path fill="none" stroke="#000000" d="M1102.35,-36.1508C1109.44,-73.2599 1109.97,-161.253 1103.93,-205.946"/>
<polygon fill="#000000" stroke="#000000" points="1100.44,-205.636 1102.31,-216.065 1107.35,-206.747 1100.44,-205.636"/>
</g>
<!-- X::IO::Link&#45;&gt;X::IO -->
<g id="edge46" class="edge"><title>X::IO::Link&#45;&gt;X::IO</title>
<path fill="none" stroke="#6666ff" d="M1064.17,-32.8297C1038.09,-44.6821 1000.6,-61.7226 973.766,-73.922"/>
<polygon fill="#6666ff" stroke="#6666ff" points="972.056,-70.8545 964.401,-78.1788 974.953,-77.227 972.056,-70.8545"/>
</g>
<!-- X::IO::Cwd -->
<g id="node14" class="node"><title>X::IO::Cwd</title>
<g id="a_node14"><a xlink:href="/type/X::IO::Cwd" xlink:title="X::IO::Cwd">
<ellipse fill="none" stroke="#000000" cx="1219.59" cy="-18" rx="53.8905" ry="18"/>
<text text-anchor="middle" x="1219.59" y="-14.3" font-family="FreeSans" font-size="14.00" fill="#000000">X::IO::Cwd</text>
</a>
</g>
</g>
<!-- X::IO::Cwd&#45;&gt;Exception -->
<g id="edge23" class="edge"><title>X::IO::Cwd&#45;&gt;Exception</title>
<path fill="none" stroke="#000000" d="M1201.72,-35.0259C1168.81,-75.749 1108.59,-180 1108.59,-180 1108.59,-180 1100.6,-193.239 1094.85,-206.483"/>
<polygon fill="#000000" stroke="#000000" points="1091.54,-205.349 1091.21,-215.939 1098.07,-207.866 1091.54,-205.349"/>
</g>
<!-- X::IO::Cwd&#45;&gt;Exception -->
<g id="edge24" class="edge"><title>X::IO::Cwd&#45;&gt;Exception</title>
<path fill="none" stroke="#000000" d="M1209.82,-35.9255C1185.94,-77.2617 1126.59,-180 1126.59,-180 1126.59,-180 1118.18,-193.931 1109.98,-207.509"/>
<polygon fill="#000000" stroke="#000000" points="1106.89,-205.861 1104.72,-216.23 1112.88,-209.479 1106.89,-205.861"/>
</g>
<!-- X::IO::Cwd&#45;&gt;Exception -->
<g id="edge25" class="edge"><title>X::IO::Cwd&#45;&gt;Exception</title>
<path fill="none" stroke="#000000" d="M1218.53,-36.2298C1203.65,-77.7634 1144.59,-180 1144.59,-180 1144.59,-180 1135.13,-195.674 1123.6,-209.975"/>
<polygon fill="#000000" stroke="#000000" points="1120.86,-207.793 1117.03,-217.67 1126.19,-212.338 1120.86,-207.793"/>
</g>
<!-- X::IO::Cwd&#45;&gt;X::IO -->
<g id="edge47" class="edge"><title>X::IO::Cwd&#45;&gt;X::IO</title>
<path fill="none" stroke="#6666ff" d="M1178.98,-29.9586C1166.79,-33.248 1156.59,-36 1156.59,-36 1156.59,-36 1040.65,-64.4492 978.655,-79.6609"/>
<polygon fill="#6666ff" stroke="#6666ff" points="977.71,-76.2889 968.832,-82.0712 979.378,-83.0873 977.71,-76.2889"/>
</g>
<!-- X::IO::Move -->
<g id="node15" class="node"><title>X::IO::Move</title>
<g id="a_node15"><a xlink:href="/type/X::IO::Move" xlink:title="X::IO::Move">
<ellipse fill="none" stroke="#000000" cx="1349.59" cy="-18" rx="57.6901" ry="18"/>
<text text-anchor="middle" x="1349.59" y="-14.3" font-family="FreeSans" font-size="14.00" fill="#000000">X::IO::Move</text>
</a>
</g>
</g>
<!-- X::IO::Move&#45;&gt;Exception -->
<g id="edge26" class="edge"><title>X::IO::Move&#45;&gt;Exception</title>
<path fill="none" stroke="#000000" d="M1323.85,-34.4374C1269.28,-74.7344 1151.59,-180 1151.59,-180 1151.59,-180 1129.96,-195.29 1112.72,-209.445"/>
<polygon fill="#000000" stroke="#000000" points="1110.08,-207.092 1104.72,-216.23 1114.61,-212.429 1110.08,-207.092"/>
</g>
<!-- X::IO::Move&#45;&gt;Exception -->
<g id="edge27" class="edge"><title>X::IO::Move&#45;&gt;Exception</title>
<path fill="none" stroke="#000000" d="M1331.34,-35.3235C1285.58,-76.2544 1169.59,-180 1169.59,-180 1169.59,-180 1145.53,-197.008 1124.66,-211.754"/>
<polygon fill="#000000" stroke="#000000" points="1122.43,-209.041 1116.29,-217.67 1126.47,-214.757 1122.43,-209.041"/>
</g>
<!-- X::IO::Move&#45;&gt;Exception -->
<g id="edge28" class="edge"><title>X::IO::Move&#45;&gt;Exception</title>
<path fill="none" stroke="#000000" d="M1339.5,-35.9255C1302.46,-77.2617 1187.59,-180 1187.59,-180 1187.59,-180 1160.19,-199.368 1134.53,-214.687"/>
<polygon fill="#000000" stroke="#000000" points="1132.46,-211.843 1125.58,-219.899 1135.98,-217.893 1132.46,-211.843"/>
</g>
<!-- X::IO::Move&#45;&gt;X::IO -->
<g id="edge48" class="edge"><title>X::IO::Move&#45;&gt;X::IO</title>
<path fill="none" stroke="#6666ff" d="M1306.03,-30.0542C1293.23,-33.3012 1282.59,-36 1282.59,-36 1282.59,-36 1070.67,-68.8425 980.467,-82.8209"/>
<polygon fill="#6666ff" stroke="#6666ff" points="979.692,-79.3991 970.346,-84.3893 980.764,-86.3165 979.692,-79.3991"/>
</g>
<!-- X::IO::Copy -->
<g id="node16" class="node"><title>X::IO::Copy</title>
<g id="a_node16"><a xlink:href="/type/X::IO::Copy" xlink:title="X::IO::Copy">
<ellipse fill="none" stroke="#000000" cx="1481.59" cy="-18" rx="56.59" ry="18"/>
<text text-anchor="middle" x="1481.59" y="-14.3" font-family="FreeSans" font-size="14.00" fill="#000000">X::IO::Copy</text>
</a>
</g>
</g>
<!-- X::IO::Copy&#45;&gt;Exception -->
<g id="edge29" class="edge"><title>X::IO::Copy&#45;&gt;Exception</title>
<path fill="none" stroke="#000000" d="M1450.58,-33.1466C1377.3,-72.4335 1203.59,-180 1203.59,-180 1203.59,-180 1159.36,-198.461 1126.8,-213.592"/>
<polygon fill="#000000" stroke="#000000" points="1125.11,-210.522 1117.56,-217.954 1128.09,-216.852 1125.11,-210.522"/>
</g>
<!-- X::IO::Copy&#45;&gt;Exception -->
<g id="edge30" class="edge"><title>X::IO::Copy&#45;&gt;Exception</title>
<path fill="none" stroke="#000000" d="M1456.66,-34.4374C1391.59,-74.7344 1221.59,-180 1221.59,-180 1221.59,-180 1172.72,-200.396 1135.61,-215.883"/>
<polygon fill="#000000" stroke="#000000" points="1133.87,-212.817 1125.99,-219.899 1136.56,-219.278 1133.87,-212.817"/>
</g>
<!-- X::IO::Copy&#45;&gt;Exception -->
<g id="edge31" class="edge"><title>X::IO::Copy&#45;&gt;Exception</title>
<path fill="none" stroke="#000000" d="M1463.92,-35.3235C1407.13,-76.2544 1239.59,-180 1239.59,-180 1239.59,-180 1184.42,-203.026 1141.65,-218.724"/>
<polygon fill="#000000" stroke="#000000" points="1140.4,-215.454 1132.19,-222.147 1142.78,-222.036 1140.4,-215.454"/>
</g>
<!-- X::IO::Copy&#45;&gt;X::IO -->
<g id="edge49" class="edge"><title>X::IO::Copy&#45;&gt;X::IO</title>
<path fill="none" stroke="#6666ff" d="M1439.33,-30.0542C1426.91,-33.3012 1416.59,-36 1416.59,-36 1416.59,-36 1096.45,-71.646 981.267,-84.4713"/>
<polygon fill="#6666ff" stroke="#6666ff" points="980.645,-81.0188 971.094,-85.604 981.42,-87.9758 980.645,-81.0188"/>
</g>
<!-- X::IO::Rename -->
<g id="node17" class="node"><title>X::IO::Rename</title>
<g id="a_node17"><a xlink:href="/type/X::IO::Rename" xlink:title="X::IO::Rename">
<ellipse fill="none" stroke="#000000" cx="1625.59" cy="-18" rx="69.5877" ry="18"/>
<text text-anchor="middle" x="1625.59" y="-14.3" font-family="FreeSans" font-size="14.00" fill="#000000">X::IO::Rename</text>
</a>
</g>
</g>
<!-- X::IO::Rename&#45;&gt;Exception -->
<g id="edge32" class="edge"><title>X::IO::Rename&#45;&gt;Exception</title>
<path fill="none" stroke="#000000" d="M1587.29,-33.1466C1493.76,-72.4335 1264.59,-180 1264.59,-180 1264.59,-180 1187.82,-201.644 1137.09,-217.269"/>
<polygon fill="#000000" stroke="#000000" points="1135.84,-213.994 1127.33,-220.305 1137.91,-220.679 1135.84,-213.994"/>
</g>
<!-- X::IO::Rename&#45;&gt;Exception -->
<g id="edge33" class="edge"><title>X::IO::Rename&#45;&gt;Exception</title>
<path fill="none" stroke="#000000" d="M1593.63,-34.0019C1508.48,-73.9702 1282.59,-180 1282.59,-180 1282.59,-180 1198.03,-203.839 1142.33,-219.541"/>
<polygon fill="#000000" stroke="#000000" points="1141.31,-216.193 1132.64,-222.275 1143.21,-222.93 1141.31,-216.193"/>
</g>
<!-- X::IO::Rename&#45;&gt;Exception -->
<g id="edge34" class="edge"><title>X::IO::Rename&#45;&gt;Exception</title>
<path fill="none" stroke="#000000" d="M1600.35,-34.8779C1523.23,-75.4958 1300.59,-180 1300.59,-180 1300.59,-180 1207.67,-206.197 1146.23,-221.755"/>
<polygon fill="#000000" stroke="#000000" points="1145.13,-218.422 1136.28,-224.248 1146.83,-225.212 1145.13,-218.422"/>
</g>
<!-- X::IO::Rename&#45;&gt;X::IO -->
<g id="edge50" class="edge"><title>X::IO::Rename&#45;&gt;X::IO</title>
<path fill="none" stroke="#6666ff" d="M1574,-30.2446C1559.5,-33.406 1547.59,-36 1547.59,-36 1547.59,-36 1117.9,-73.5182 981.575,-85.4218"/>
<polygon fill="#6666ff" stroke="#6666ff" points="981.187,-81.9422 971.53,-86.2989 981.796,-88.9157 981.187,-81.9422"/>
</g>
<!-- X::IO::Dir -->
<g id="node18" class="node"><title>X::IO::Dir</title>
<g id="a_node18"><a xlink:href="/type/X::IO::Dir" xlink:title="X::IO::Dir">
<ellipse fill="none" stroke="#000000" cx="1760.59" cy="-18" rx="47.3916" ry="18"/>
<text text-anchor="middle" x="1760.59" y="-14.3" font-family="FreeSans" font-size="14.00" fill="#000000">X::IO::Dir</text>
</a>
</g>
</g>
<!-- X::IO::Dir&#45;&gt;Exception -->
<g id="edge35" class="edge"><title>X::IO::Dir&#45;&gt;Exception</title>
<path fill="none" stroke="#000000" d="M1725.21,-30.0662C1622.37,-66.4407 1334.59,-180 1334.59,-180 1334.59,-180 1213.84,-204.806 1143.32,-220.476"/>
<polygon fill="#000000" stroke="#000000" points="1142.3,-217.119 1133.3,-222.718 1143.82,-223.95 1142.3,-217.119"/>
</g>
<!-- X::IO::Dir&#45;&gt;Exception -->
<g id="edge36" class="edge"><title>X::IO::Dir&#45;&gt;Exception</title>
<path fill="none" stroke="#000000" d="M1728.92,-31.4994C1633.06,-69.3271 1352.59,-180 1352.59,-180 1352.59,-180 1222.28,-206.771 1146.88,-222.26"/>
<polygon fill="#000000" stroke="#000000" points="1145.71,-218.926 1136.62,-224.367 1147.12,-225.783 1145.71,-218.926"/>
</g>
<!-- X::IO::Dir&#45;&gt;Exception -->
<g id="edge37" class="edge"><title>X::IO::Dir&#45;&gt;Exception</title>
<path fill="none" stroke="#000000" d="M1733.55,-32.8661C1644.49,-71.9189 1370.59,-180 1370.59,-180 1370.59,-180 1229.73,-208.937 1148.91,-224.048"/>
<polygon fill="#000000" stroke="#000000" points="1148.08,-220.642 1138.89,-225.907 1149.36,-227.524 1148.08,-220.642"/>
</g>
<!-- X::IO::Dir&#45;&gt;X::IO -->
<g id="edge51" class="edge"><title>X::IO::Dir&#45;&gt;X::IO</title>
<path fill="none" stroke="#6666ff" d="M1724.81,-29.8626C1713.84,-33.1943 1704.59,-36 1704.59,-36 1704.59,-36 1140.64,-75.1227 981.786,-86.1424"/>
<polygon fill="#6666ff" stroke="#6666ff" points="981.224,-82.6729 971.49,-86.8567 981.708,-89.6562 981.224,-82.6729"/>
</g>
</g>
</svg>
