<?xml version="1.0" encoding="UTF-8" standalone="no"?>
<!DOCTYPE svg PUBLIC "-//W3C//DTD SVG 1.1//EN"
 "http://www.w3.org/Graphics/SVG/1.1/DTD/svg11.dtd">
<!-- Generated by graphviz version 2.38.0 (20140413.2041)
 -->
<!-- Title: perl6&#45;type&#45;graph Pages: 1 -->
<svg width="208pt" height="404pt"
 viewBox="0.00 0.00 207.99 404.00" xmlns="http://www.w3.org/2000/svg" xmlns:xlink="http://www.w3.org/1999/xlink">
<g id="graph0" class="graph" transform="scale(1 1) rotate(0) translate(4 400)">
<title>perl6&#45;type&#45;graph</title>
<polygon fill="white" stroke="none" points="-4,4 -4,-400 203.992,-400 203.992,4 -4,4"/>
<!-- X::IO::Copy -->
<g id="node1" class="node"><title>X::IO::Copy</title>
<g id="a_node1"><a xlink:href="/type/X::IO::Copy" xlink:title="X::IO::Copy">
<ellipse fill="none" stroke="#000000" cx="56.545" cy="-18" rx="56.59" ry="18"/>
<text text-anchor="middle" x="56.545" y="-14.3" font-family="FreeSans" font-size="14.00" fill="#000000">X::IO::Copy</text>
</a>
</g>
</g>
<!-- Exception -->
<g id="node4" class="node"><title>Exception</title>
<g id="a_node4"><a xlink:href="/type/Exception" xlink:title="Exception">
<ellipse fill="none" stroke="#000000" cx="79.545" cy="-234" rx="49.2915" ry="18"/>
<text text-anchor="middle" x="79.545" y="-230.3" font-family="FreeSans" font-size="14.00" fill="#000000">Exception</text>
</a>
</g>
</g>
<!-- X::IO::Copy&#45;&gt;Exception -->
<g id="edge1" class="edge"><title>X::IO::Copy&#45;&gt;Exception</title>
<path fill="none" stroke="#000000" d="M54.5108,-36.1508C54.9555,-73.3384 64.1866,-161.626 72.017,-206.228"/>
<polygon fill="#000000" stroke="#000000" points="68.5789,-206.884 73.868,-216.065 75.4581,-205.59 68.5789,-206.884"/>
</g>
<!-- X::IO::Copy&#45;&gt;Exception -->
<g id="edge2" class="edge"><title>X::IO::Copy&#45;&gt;Exception</title>
<path fill="none" stroke="#000000" d="M62.2658,-36.1508C69.7802,-73.1683 79.4721,-160.819 81.2938,-205.614"/>
<polygon fill="#000000" stroke="#000000" points="77.7995,-205.87 81.5782,-215.768 84.7967,-205.673 77.7995,-205.87"/>
</g>
<!-- X::IO -->
<g id="node6" class="node"><title>X::IO</title>
<g id="a_node6"><a xlink:href="/type/X::IO" xlink:title="X::IO">
<ellipse fill="none" stroke="#6666ff" cx="124.545" cy="-90" rx="31.3957" ry="18"/>
<text text-anchor="middle" x="124.545" y="-86.3" font-family="FreeSans" font-size="14.00" fill="#6666ff">X::IO</text>
</a>
</g>
</g>
<!-- X::IO::Copy&#45;&gt;X::IO -->
<g id="edge7" class="edge"><title>X::IO::Copy&#45;&gt;X::IO</title>
<path fill="none" stroke="#6666ff" d="M72.66,-35.589C81.6735,-44.8676 93.0313,-56.5595 102.821,-66.6369"/>
<polygon fill="#6666ff" stroke="#6666ff" points="100.458,-69.2277 109.936,-73.9618 105.479,-64.3502 100.458,-69.2277"/>
</g>
<!-- Mu -->
<g id="node2" class="node"><title>Mu</title>
<g id="a_node2"><a xlink:href="/type/Mu" xlink:title="Mu">
<ellipse fill="none" stroke="#000000" cx="79.545" cy="-378" rx="27" ry="18"/>
<text text-anchor="middle" x="79.545" y="-374.3" font-family="FreeSans" font-size="14.00" fill="#000000">Mu</text>
</a>
</g>
</g>
<!-- Any -->
<g id="node3" class="node"><title>Any</title>
<g id="a_node3"><a xlink:href="/type/Any" xlink:title="Any">
<ellipse fill="none" stroke="#000000" cx="79.545" cy="-306" rx="27" ry="18"/>
<text text-anchor="middle" x="79.545" y="-302.3" font-family="FreeSans" font-size="14.00" fill="#000000">Any</text>
</a>
</g>
</g>
<!-- Any&#45;&gt;Mu -->
<g id="edge3" class="edge"><title>Any&#45;&gt;Mu</title>
<path fill="none" stroke="#000000" d="M79.545,-324.303C79.545,-332.017 79.545,-341.288 79.545,-349.888"/>
<polygon fill="#000000" stroke="#000000" points="76.0451,-349.896 79.545,-359.896 83.0451,-349.896 76.0451,-349.896"/>
</g>
<!-- Exception&#45;&gt;Any -->
<g id="edge4" class="edge"><title>Exception&#45;&gt;Any</title>
<path fill="none" stroke="#000000" d="M79.545,-252.303C79.545,-260.017 79.545,-269.288 79.545,-277.888"/>
<polygon fill="#000000" stroke="#000000" points="76.0451,-277.896 79.545,-287.896 83.0451,-277.896 76.0451,-277.896"/>
</g>
<!-- X::OS -->
<g id="node5" class="node"><title>X::OS</title>
<g id="a_node5"><a xlink:href="/type/X::OS" xlink:title="X::OS">
<ellipse fill="none" stroke="#6666ff" cx="165.545" cy="-162" rx="34.394" ry="18"/>
<text text-anchor="middle" x="165.545" y="-158.3" font-family="FreeSans" font-size="14.00" fill="#6666ff">X::OS</text>
</a>
</g>
</g>
<!-- X::OS&#45;&gt;Exception -->
<g id="edge5" class="edge"><title>X::OS&#45;&gt;Exception</title>
<path fill="none" stroke="#000000" d="M147.726,-177.504C135.91,-187.121 120.178,-199.926 106.804,-210.813"/>
<polygon fill="#000000" stroke="#000000" points="104.383,-208.27 98.8367,-217.297 108.802,-213.699 104.383,-208.27"/>
</g>
<!-- X::IO&#45;&gt;Exception -->
<g id="edge6" class="edge"><title>X::IO&#45;&gt;Exception</title>
<path fill="none" stroke="#000000" d="M119.206,-107.847C111.534,-132.056 97.3086,-176.946 88.1434,-205.867"/>
<polygon fill="#000000" stroke="#000000" points="84.7017,-205.142 85.0172,-215.732 91.3747,-207.257 84.7017,-205.142"/>
</g>
<!-- X::IO&#45;&gt;X::OS -->
<g id="edge8" class="edge"><title>X::IO&#45;&gt;X::OS</title>
<path fill="none" stroke="#6666ff" d="M134.054,-107.235C139.002,-115.683 145.163,-126.201 150.719,-135.688"/>
<polygon fill="#6666ff" stroke="#6666ff" points="147.728,-137.507 155.803,-144.367 153.769,-133.969 147.728,-137.507"/>
</g>
</g>
</svg>
