<?xml version="1.0" encoding="UTF-8" standalone="no"?>
<!DOCTYPE svg PUBLIC "-//W3C//DTD SVG 1.1//EN"
 "http://www.w3.org/Graphics/SVG/1.1/DTD/svg11.dtd">
<!-- Generated by graphviz version 2.38.0 (20140413.2041)
 -->
<!-- Title: perl6&#45;type&#45;graph Pages: 1 -->
<svg width="159pt" height="332pt"
 viewBox="0.00 0.00 158.79 332.00" xmlns="http://www.w3.org/2000/svg" xmlns:xlink="http://www.w3.org/1999/xlink">
<g id="graph0" class="graph" transform="scale(1 1) rotate(0) translate(4 328)">
<title>perl6&#45;type&#45;graph</title>
<polygon fill="white" stroke="none" points="-4,4 -4,-328 154.79,-328 154.79,4 -4,4"/>
<!-- CX::Succeed -->
<g id="node1" class="node"><title>CX::Succeed</title>
<g id="a_node1"><a xlink:href="/type/CX::Succeed" xlink:title="CX::Succeed">
<ellipse fill="none" stroke="#000000" cx="61.7445" cy="-18" rx="61.99" ry="18"/>
<text text-anchor="middle" x="61.7445" y="-14.3" font-family="FreeSans" font-size="14.00" fill="#000000">CX::Succeed</text>
</a>
</g>
</g>
<!-- Exception -->
<g id="node4" class="node"><title>Exception</title>
<g id="a_node4"><a xlink:href="/type/Exception" xlink:title="Exception">
<ellipse fill="none" stroke="#000000" cx="61.7445" cy="-162" rx="49.2915" ry="18"/>
<text text-anchor="middle" x="61.7445" y="-158.3" font-family="FreeSans" font-size="14.00" fill="#000000">Exception</text>
</a>
</g>
</g>
<!-- CX::Succeed&#45;&gt;Exception -->
<g id="edge1" class="edge"><title>CX::Succeed&#45;&gt;Exception</title>
<path fill="none" stroke="#000000" d="M55.3063,-36.0613C49.4597,-51.5549 41.7445,-72 41.7445,-72 41.7445,-72 41.7445,-108 41.7445,-108 41.7445,-108 46.7402,-121.239 51.7381,-134.483"/>
<polygon fill="#000000" stroke="#000000" points="48.5011,-135.818 55.3063,-143.939 55.0503,-133.347 48.5011,-135.818"/>
</g>
<!-- X::Control -->
<g id="node5" class="node"><title>X::Control</title>
<g id="a_node5"><a xlink:href="/type/X::Control" xlink:title="X::Control">
<ellipse fill="none" stroke="#6666ff" cx="100.745" cy="-90" rx="50.0912" ry="18"/>
<text text-anchor="middle" x="100.745" y="-86.3" font-family="FreeSans" font-size="14.00" fill="#6666ff">X::Control</text>
</a>
</g>
</g>
<!-- CX::Succeed&#45;&gt;X::Control -->
<g id="edge5" class="edge"><title>CX::Succeed&#45;&gt;X::Control</title>
<path fill="none" stroke="#6666ff" d="M71.1853,-35.945C75.7842,-44.1994 81.4109,-54.2986 86.5163,-63.4622"/>
<polygon fill="#6666ff" stroke="#6666ff" points="83.4661,-65.1788 91.3906,-72.211 89.5811,-61.7718 83.4661,-65.1788"/>
</g>
<!-- Mu -->
<g id="node2" class="node"><title>Mu</title>
<g id="a_node2"><a xlink:href="/type/Mu" xlink:title="Mu">
<ellipse fill="none" stroke="#000000" cx="61.7445" cy="-306" rx="27" ry="18"/>
<text text-anchor="middle" x="61.7445" y="-302.3" font-family="FreeSans" font-size="14.00" fill="#000000">Mu</text>
</a>
</g>
</g>
<!-- Any -->
<g id="node3" class="node"><title>Any</title>
<g id="a_node3"><a xlink:href="/type/Any" xlink:title="Any">
<ellipse fill="none" stroke="#000000" cx="61.7445" cy="-234" rx="27" ry="18"/>
<text text-anchor="middle" x="61.7445" y="-230.3" font-family="FreeSans" font-size="14.00" fill="#000000">Any</text>
</a>
</g>
</g>
<!-- Any&#45;&gt;Mu -->
<g id="edge2" class="edge"><title>Any&#45;&gt;Mu</title>
<path fill="none" stroke="#000000" d="M61.7445,-252.303C61.7445,-260.017 61.7445,-269.288 61.7445,-277.888"/>
<polygon fill="#000000" stroke="#000000" points="58.2446,-277.896 61.7445,-287.896 65.2446,-277.896 58.2446,-277.896"/>
</g>
<!-- Exception&#45;&gt;Any -->
<g id="edge3" class="edge"><title>Exception&#45;&gt;Any</title>
<path fill="none" stroke="#000000" d="M61.7445,-180.303C61.7445,-188.017 61.7445,-197.288 61.7445,-205.888"/>
<polygon fill="#000000" stroke="#000000" points="58.2446,-205.896 61.7445,-215.896 65.2446,-205.896 58.2446,-205.896"/>
</g>
<!-- X::Control&#45;&gt;Exception -->
<g id="edge4" class="edge"><title>X::Control&#45;&gt;Exception</title>
<path fill="none" stroke="#000000" d="M91.3037,-107.945C86.7049,-116.199 81.0781,-126.299 75.9727,-135.462"/>
<polygon fill="#000000" stroke="#000000" points="72.908,-133.772 71.0984,-144.211 79.023,-137.179 72.908,-133.772"/>
</g>
</g>
</svg>
