<?xml version="1.0" encoding="UTF-8" standalone="no"?>
<!DOCTYPE svg PUBLIC "-//W3C//DTD SVG 1.1//EN"
 "http://www.w3.org/Graphics/SVG/1.1/DTD/svg11.dtd">
<!-- Generated by graphviz version 2.38.0 (20140413.2041)
 -->
<!-- Title: perl6&#45;type&#45;graph Pages: 1 -->
<svg width="299pt" height="332pt"
 viewBox="0.00 0.00 299.17 332.00" xmlns="http://www.w3.org/2000/svg" xmlns:xlink="http://www.w3.org/1999/xlink">
<g id="graph0" class="graph" transform="scale(1 1) rotate(0) translate(4 328)">
<title>perl6&#45;type&#45;graph</title>
<polygon fill="white" stroke="none" points="-4,4 -4,-328 295.174,-328 295.174,4 -4,4"/>
<!-- X::EXPORTHOW::InvalidDirective -->
<g id="node1" class="node"><title>X::EXPORTHOW::InvalidDirective</title>
<g id="a_node1"><a xlink:href="/type/X::EXPORTHOW::InvalidDirective" xlink:title="X::EXPORTHOW::InvalidDirective">
<ellipse fill="none" stroke="#000000" cx="145.587" cy="-18" rx="145.674" ry="18"/>
<text text-anchor="middle" x="145.587" y="-14.3" font-family="FreeSans" font-size="14.00" fill="#000000">X::EXPORTHOW::InvalidDirective</text>
</a>
</g>
</g>
<!-- Exception -->
<g id="node4" class="node"><title>Exception</title>
<g id="a_node4"><a xlink:href="/type/Exception" xlink:title="Exception">
<ellipse fill="none" stroke="#000000" cx="145.587" cy="-162" rx="49.2915" ry="18"/>
<text text-anchor="middle" x="145.587" y="-158.3" font-family="FreeSans" font-size="14.00" fill="#000000">Exception</text>
</a>
</g>
</g>
<!-- X::EXPORTHOW::InvalidDirective&#45;&gt;Exception -->
<g id="edge1" class="edge"><title>X::EXPORTHOW::InvalidDirective&#45;&gt;Exception</title>
<path fill="none" stroke="#000000" d="M140.115,-36.0613C135.145,-51.5549 128.587,-72 128.587,-72 128.587,-72 128.587,-108 128.587,-108 128.587,-108 132.751,-120.983 136.958,-134.097"/>
<polygon fill="#000000" stroke="#000000" points="133.728,-135.486 140.115,-143.939 140.393,-133.348 133.728,-135.486"/>
</g>
<!-- X::Comp -->
<g id="node5" class="node"><title>X::Comp</title>
<g id="a_node5"><a xlink:href="/type/X::Comp" xlink:title="X::Comp">
<ellipse fill="none" stroke="#6666ff" cx="182.587" cy="-90" rx="44.6926" ry="18"/>
<text text-anchor="middle" x="182.587" y="-86.3" font-family="FreeSans" font-size="14.00" fill="#6666ff">X::Comp</text>
</a>
</g>
</g>
<!-- X::EXPORTHOW::InvalidDirective&#45;&gt;X::Comp -->
<g id="edge5" class="edge"><title>X::EXPORTHOW::InvalidDirective&#45;&gt;X::Comp</title>
<path fill="none" stroke="#6666ff" d="M154.733,-36.3034C158.99,-44.3564 164.143,-54.1055 168.854,-63.0176"/>
<polygon fill="#6666ff" stroke="#6666ff" points="165.779,-64.6903 173.546,-71.8957 171.967,-61.4191 165.779,-64.6903"/>
</g>
<!-- Mu -->
<g id="node2" class="node"><title>Mu</title>
<g id="a_node2"><a xlink:href="/type/Mu" xlink:title="Mu">
<ellipse fill="none" stroke="#000000" cx="145.587" cy="-306" rx="27" ry="18"/>
<text text-anchor="middle" x="145.587" y="-302.3" font-family="FreeSans" font-size="14.00" fill="#000000">Mu</text>
</a>
</g>
</g>
<!-- Any -->
<g id="node3" class="node"><title>Any</title>
<g id="a_node3"><a xlink:href="/type/Any" xlink:title="Any">
<ellipse fill="none" stroke="#000000" cx="145.587" cy="-234" rx="27" ry="18"/>
<text text-anchor="middle" x="145.587" y="-230.3" font-family="FreeSans" font-size="14.00" fill="#000000">Any</text>
</a>
</g>
</g>
<!-- Any&#45;&gt;Mu -->
<g id="edge2" class="edge"><title>Any&#45;&gt;Mu</title>
<path fill="none" stroke="#000000" d="M145.587,-252.303C145.587,-260.017 145.587,-269.288 145.587,-277.888"/>
<polygon fill="#000000" stroke="#000000" points="142.087,-277.896 145.587,-287.896 149.087,-277.896 142.087,-277.896"/>
</g>
<!-- Exception&#45;&gt;Any -->
<g id="edge3" class="edge"><title>Exception&#45;&gt;Any</title>
<path fill="none" stroke="#000000" d="M145.587,-180.303C145.587,-188.017 145.587,-197.288 145.587,-205.888"/>
<polygon fill="#000000" stroke="#000000" points="142.087,-205.896 145.587,-215.896 149.087,-205.896 142.087,-205.896"/>
</g>
<!-- X::Comp&#45;&gt;Exception -->
<g id="edge4" class="edge"><title>X::Comp&#45;&gt;Exception</title>
<path fill="none" stroke="#000000" d="M173.63,-107.945C169.313,-116.113 164.04,-126.088 159.237,-135.176"/>
<polygon fill="#000000" stroke="#000000" points="156.04,-133.734 154.461,-144.211 162.229,-137.006 156.04,-133.734"/>
</g>
</g>
</svg>
