<?xml version="1.0" encoding="UTF-8" standalone="no"?>
<!DOCTYPE svg PUBLIC "-//W3C//DTD SVG 1.1//EN"
 "http://www.w3.org/Graphics/SVG/1.1/DTD/svg11.dtd">
<!-- Generated by graphviz version 2.38.0 (20140413.2041)
 -->
<!-- Title: perl6&#45;type&#45;graph Pages: 1 -->
<svg width="126pt" height="188pt"
 viewBox="0.00 0.00 126.29 188.00" xmlns="http://www.w3.org/2000/svg" xmlns:xlink="http://www.w3.org/1999/xlink">
<g id="graph0" class="graph" transform="scale(1 1) rotate(0) translate(4 184)">
<title>perl6&#45;type&#45;graph</title>
<polygon fill="white" stroke="none" points="-4,4 -4,-184 122.29,-184 122.29,4 -4,4"/>
<!-- Cancellation -->
<g id="node1" class="node"><title>Cancellation</title>
<g id="a_node1"><a xlink:href="/type/Cancellation" xlink:title="Cancellation">
<ellipse fill="none" stroke="#000000" cx="59.1448" cy="-18" rx="59.2899" ry="18"/>
<text text-anchor="middle" x="59.1448" y="-14.3" font-family="FreeSans" font-size="14.00" fill="#000000">Cancellation</text>
</a>
</g>
</g>
<!-- Any -->
<g id="node3" class="node"><title>Any</title>
<g id="a_node3"><a xlink:href="/type/Any" xlink:title="Any">
<ellipse fill="none" stroke="#000000" cx="59.1448" cy="-90" rx="27" ry="18"/>
<text text-anchor="middle" x="59.1448" y="-86.3" font-family="FreeSans" font-size="14.00" fill="#000000">Any</text>
</a>
</g>
</g>
<!-- Cancellation&#45;&gt;Any -->
<g id="edge1" class="edge"><title>Cancellation&#45;&gt;Any</title>
<path fill="none" stroke="#000000" d="M59.1448,-36.3034C59.1448,-44.0173 59.1448,-53.2875 59.1448,-61.8876"/>
<polygon fill="#000000" stroke="#000000" points="55.6449,-61.8956 59.1448,-71.8957 62.6449,-61.8957 55.6449,-61.8956"/>
</g>
<!-- Mu -->
<g id="node2" class="node"><title>Mu</title>
<g id="a_node2"><a xlink:href="/type/Mu" xlink:title="Mu">
<ellipse fill="none" stroke="#000000" cx="59.1448" cy="-162" rx="27" ry="18"/>
<text text-anchor="middle" x="59.1448" y="-158.3" font-family="FreeSans" font-size="14.00" fill="#000000">Mu</text>
</a>
</g>
</g>
<!-- Any&#45;&gt;Mu -->
<g id="edge2" class="edge"><title>Any&#45;&gt;Mu</title>
<path fill="none" stroke="#000000" d="M59.1448,-108.303C59.1448,-116.017 59.1448,-125.288 59.1448,-133.888"/>
<polygon fill="#000000" stroke="#000000" points="55.6449,-133.896 59.1448,-143.896 62.6449,-133.896 55.6449,-133.896"/>
</g>
</g>
</svg>
