<?xml version="1.0" encoding="UTF-8" standalone="no"?>
<!DOCTYPE svg PUBLIC "-//W3C//DTD SVG 1.1//EN"
 "http://www.w3.org/Graphics/SVG/1.1/DTD/svg11.dtd">
<!-- Generated by graphviz version 2.38.0 (20140413.2041)
 -->
<!-- Title: perl6&#45;type&#45;graph Pages: 1 -->
<svg width="1419pt" height="332pt"
 viewBox="0.00 0.00 1419.13 332.00" xmlns="http://www.w3.org/2000/svg" xmlns:xlink="http://www.w3.org/1999/xlink">
<g id="graph0" class="graph" transform="scale(1 1) rotate(0) translate(4 328)">
<title>perl6&#45;type&#45;graph</title>
<polygon fill="white" stroke="none" points="-4,4 -4,-328 1415.13,-328 1415.13,4 -4,4"/>
<!-- X::Proc::Async -->
<g id="node1" class="node"><title>X::Proc::Async</title>
<g id="a_node1"><a xlink:href="/type/X::Proc::Async" xlink:title="X::Proc::Async">
<ellipse fill="none" stroke="#6666ff" cx="656.288" cy="-90" rx="68.4888" ry="18"/>
<text text-anchor="middle" x="656.288" y="-86.3" font-family="FreeSans" font-size="14.00" fill="#6666ff">X::Proc::Async</text>
</a>
</g>
</g>
<!-- Exception -->
<g id="node4" class="node"><title>Exception</title>
<g id="a_node4"><a xlink:href="/type/Exception" xlink:title="Exception">
<ellipse fill="none" stroke="#000000" cx="704.288" cy="-162" rx="49.2915" ry="18"/>
<text text-anchor="middle" x="704.288" y="-158.3" font-family="FreeSans" font-size="14.00" fill="#000000">Exception</text>
</a>
</g>
</g>
<!-- X::Proc::Async&#45;&gt;Exception -->
<g id="edge1" class="edge"><title>X::Proc::Async&#45;&gt;Exception</title>
<path fill="none" stroke="#000000" d="M667.908,-107.945C673.627,-116.285 680.638,-126.509 686.973,-135.748"/>
<polygon fill="#000000" stroke="#000000" points="684.234,-137.943 692.776,-144.211 690.007,-133.984 684.234,-137.943"/>
</g>
<!-- Mu -->
<g id="node2" class="node"><title>Mu</title>
<g id="a_node2"><a xlink:href="/type/Mu" xlink:title="Mu">
<ellipse fill="none" stroke="#000000" cx="704.288" cy="-306" rx="27" ry="18"/>
<text text-anchor="middle" x="704.288" y="-302.3" font-family="FreeSans" font-size="14.00" fill="#000000">Mu</text>
</a>
</g>
</g>
<!-- Any -->
<g id="node3" class="node"><title>Any</title>
<g id="a_node3"><a xlink:href="/type/Any" xlink:title="Any">
<ellipse fill="none" stroke="#000000" cx="704.288" cy="-234" rx="27" ry="18"/>
<text text-anchor="middle" x="704.288" y="-230.3" font-family="FreeSans" font-size="14.00" fill="#000000">Any</text>
</a>
</g>
</g>
<!-- Any&#45;&gt;Mu -->
<g id="edge2" class="edge"><title>Any&#45;&gt;Mu</title>
<path fill="none" stroke="#000000" d="M704.288,-252.303C704.288,-260.017 704.288,-269.288 704.288,-277.888"/>
<polygon fill="#000000" stroke="#000000" points="700.788,-277.896 704.288,-287.896 707.788,-277.896 700.788,-277.896"/>
</g>
<!-- Exception&#45;&gt;Any -->
<g id="edge3" class="edge"><title>Exception&#45;&gt;Any</title>
<path fill="none" stroke="#000000" d="M704.288,-180.303C704.288,-188.017 704.288,-197.288 704.288,-205.888"/>
<polygon fill="#000000" stroke="#000000" points="700.788,-205.896 704.288,-215.896 707.788,-205.896 700.788,-205.896"/>
</g>
<!-- X::Proc::Async::AlreadyStarted -->
<g id="node5" class="node"><title>X::Proc::Async::AlreadyStarted</title>
<g id="a_node5"><a xlink:href="/type/X::Proc::Async::AlreadyStarted" xlink:title="X::Proc::Async::AlreadyStarted">
<ellipse fill="none" stroke="#000000" cx="131.288" cy="-18" rx="131.077" ry="18"/>
<text text-anchor="middle" x="131.288" y="-14.3" font-family="FreeSans" font-size="14.00" fill="#000000">X::Proc::Async::AlreadyStarted</text>
</a>
</g>
</g>
<!-- X::Proc::Async::AlreadyStarted&#45;&gt;X::Proc::Async -->
<g id="edge9" class="edge"><title>X::Proc::Async::AlreadyStarted&#45;&gt;X::Proc::Async</title>
<path fill="none" stroke="#6666ff" d="M221.838,-31.0733C325.422,-44.8844 492.789,-67.2001 586.68,-79.7189"/>
<polygon fill="#6666ff" stroke="#6666ff" points="586.269,-83.195 596.644,-81.0474 587.194,-76.2564 586.269,-83.195"/>
</g>
<!-- X::Proc::Async::AlreadyStarted&#45;&gt;Exception -->
<g id="edge4" class="edge"><title>X::Proc::Async::AlreadyStarted&#45;&gt;Exception</title>
<path fill="none" stroke="#000000" d="M191.796,-33.995C305.666,-62.214 549.77,-122.707 654.688,-148.708"/>
<polygon fill="#000000" stroke="#000000" points="654.148,-152.18 664.697,-151.188 655.832,-145.386 654.148,-152.18"/>
</g>
<!-- X::Proc::Async::MustBeStarted -->
<g id="node6" class="node"><title>X::Proc::Async::MustBeStarted</title>
<g id="a_node6"><a xlink:href="/type/X::Proc::Async::MustBeStarted" xlink:title="X::Proc::Async::MustBeStarted">
<ellipse fill="none" stroke="#000000" cx="412.288" cy="-18" rx="131.877" ry="18"/>
<text text-anchor="middle" x="412.288" y="-14.3" font-family="FreeSans" font-size="14.00" fill="#000000">X::Proc::Async::MustBeStarted</text>
</a>
</g>
</g>
<!-- X::Proc::Async::MustBeStarted&#45;&gt;X::Proc::Async -->
<g id="edge10" class="edge"><title>X::Proc::Async::MustBeStarted&#45;&gt;X::Proc::Async</title>
<path fill="none" stroke="#6666ff" d="M466.137,-34.4485C506.589,-46.0534 561.758,-61.8807 602.255,-73.4985"/>
<polygon fill="#6666ff" stroke="#6666ff" points="601.378,-76.8883 611.956,-76.2817 603.309,-70.1597 601.378,-76.8883"/>
</g>
<!-- X::Proc::Async::MustBeStarted&#45;&gt;Exception -->
<g id="edge5" class="edge"><title>X::Proc::Async::MustBeStarted&#45;&gt;Exception</title>
<path fill="none" stroke="#000000" d="M443.308,-35.5316C491.604,-61.2698 579.288,-108 579.288,-108 579.288,-108 627.392,-128.396 663.917,-143.883"/>
<polygon fill="#000000" stroke="#000000" points="662.817,-147.218 673.389,-147.899 665.549,-140.773 662.817,-147.218"/>
</g>
<!-- X::Proc::Async::TapBeforeSpawn -->
<g id="node7" class="node"><title>X::Proc::Async::TapBeforeSpawn</title>
<g id="a_node7"><a xlink:href="/type/X::Proc::Async::TapBeforeSpawn" xlink:title="X::Proc::Async::TapBeforeSpawn">
<ellipse fill="none" stroke="#000000" cx="704.288" cy="-18" rx="141.875" ry="18"/>
<text text-anchor="middle" x="704.288" y="-14.3" font-family="FreeSans" font-size="14.00" fill="#000000">X::Proc::Async::TapBeforeSpawn</text>
</a>
</g>
</g>
<!-- X::Proc::Async::TapBeforeSpawn&#45;&gt;X::Proc::Async -->
<g id="edge11" class="edge"><title>X::Proc::Async::TapBeforeSpawn&#45;&gt;X::Proc::Async</title>
<path fill="none" stroke="#6666ff" d="M692.669,-35.945C686.95,-44.2853 679.939,-54.5092 673.604,-63.7483"/>
<polygon fill="#6666ff" stroke="#6666ff" points="670.57,-61.9843 667.801,-72.211 676.343,-65.9431 670.57,-61.9843"/>
</g>
<!-- X::Proc::Async::TapBeforeSpawn&#45;&gt;Exception -->
<g id="edge6" class="edge"><title>X::Proc::Async::TapBeforeSpawn&#45;&gt;Exception</title>
<path fill="none" stroke="#000000" d="M713.624,-36.0613C722.101,-51.5549 733.288,-72 733.288,-72 733.288,-72 733.288,-108 733.288,-108 733.288,-108 725.81,-121.667 718.449,-135.121"/>
<polygon fill="#000000" stroke="#000000" points="715.194,-133.778 713.464,-144.23 721.335,-137.138 715.194,-133.778"/>
</g>
<!-- X::Proc::Async::CharsOrBytes -->
<g id="node8" class="node"><title>X::Proc::Async::CharsOrBytes</title>
<g id="a_node8"><a xlink:href="/type/X::Proc::Async::CharsOrBytes" xlink:title="X::Proc::Async::CharsOrBytes">
<ellipse fill="none" stroke="#000000" cx="992.288" cy="-18" rx="128.877" ry="18"/>
<text text-anchor="middle" x="992.288" y="-14.3" font-family="FreeSans" font-size="14.00" fill="#000000">X::Proc::Async::CharsOrBytes</text>
</a>
</g>
</g>
<!-- X::Proc::Async::CharsOrBytes&#45;&gt;X::Proc::Async -->
<g id="edge12" class="edge"><title>X::Proc::Async::CharsOrBytes&#45;&gt;X::Proc::Async</title>
<path fill="none" stroke="#6666ff" d="M923.889,-33.2499C863.488,-45.8335 776.204,-64.0176 717.925,-76.159"/>
<polygon fill="#6666ff" stroke="#6666ff" points="717.189,-72.7371 708.113,-78.2032 718.617,-79.59 717.189,-72.7371"/>
</g>
<!-- X::Proc::Async::CharsOrBytes&#45;&gt;Exception -->
<g id="edge7" class="edge"><title>X::Proc::Async::CharsOrBytes&#45;&gt;Exception</title>
<path fill="none" stroke="#000000" d="M958.97,-35.4279C904.941,-62.0669 798.568,-114.515 741.901,-142.455"/>
<polygon fill="#000000" stroke="#000000" points="740.006,-139.487 732.585,-147.048 743.102,-145.765 740.006,-139.487"/>
</g>
<!-- X::Proc::Async::OpenForWriting -->
<g id="node9" class="node"><title>X::Proc::Async::OpenForWriting</title>
<g id="a_node9"><a xlink:href="/type/X::Proc::Async::OpenForWriting" xlink:title="X::Proc::Async::OpenForWriting">
<ellipse fill="none" stroke="#000000" cx="1275.29" cy="-18" rx="135.676" ry="18"/>
<text text-anchor="middle" x="1275.29" y="-14.3" font-family="FreeSans" font-size="14.00" fill="#000000">X::Proc::Async::OpenForWriting</text>
</a>
</g>
</g>
<!-- X::Proc::Async::OpenForWriting&#45;&gt;X::Proc::Async -->
<g id="edge13" class="edge"><title>X::Proc::Async::OpenForWriting&#45;&gt;X::Proc::Async</title>
<path fill="none" stroke="#6666ff" d="M1177.37,-30.4806C1151.32,-33.5341 1130.29,-36 1130.29,-36 1130.29,-36 860.275,-66.1914 727.833,-81.0002"/>
<polygon fill="#6666ff" stroke="#6666ff" points="727.319,-77.5359 717.77,-82.1255 728.097,-84.4925 727.319,-77.5359"/>
</g>
<!-- X::Proc::Async::OpenForWriting&#45;&gt;Exception -->
<g id="edge8" class="edge"><title>X::Proc::Async::OpenForWriting&#45;&gt;Exception</title>
<path fill="none" stroke="#000000" d="M1214.45,-34.1292C1100.85,-62.3809 858.521,-122.644 753.986,-148.641"/>
<polygon fill="#000000" stroke="#000000" points="752.871,-145.312 744.011,-151.121 754.56,-152.105 752.871,-145.312"/>
</g>
</g>
</svg>
