<?xml version="1.0" encoding="UTF-8" standalone="no"?>
<!DOCTYPE svg PUBLIC "-//W3C//DTD SVG 1.1//EN"
 "http://www.w3.org/Graphics/SVG/1.1/DTD/svg11.dtd">
<!-- Generated by graphviz version 2.38.0 (20140413.2041)
 -->
<!-- Title: perl6&#45;type&#45;graph Pages: 1 -->
<svg width="3053pt" height="1518pt"
 viewBox="0.00 0.00 3053.47 1518.11" xmlns="http://www.w3.org/2000/svg" xmlns:xlink="http://www.w3.org/1999/xlink">
<g id="graph0" class="graph" transform="scale(1 1) rotate(0) translate(1565.15 767.987)">
<title>perl6&#45;type&#45;graph</title>
<polygon fill="white" stroke="none" points="-1565.15,750.119 -1565.15,-767.987 1488.32,-767.987 1488.32,750.119 -1565.15,750.119"/>
<!-- Metamodel::Documenting -->
<g id="node1" class="node"><title>Metamodel::Documenting</title>
<g id="a_node1"><a xlink:href="/type/Metamodel::Documenting" xlink:title="Metamodel::Documenting">
<ellipse fill="none" stroke="#6666ff" cx="-385.179" cy="-56.6371" rx="111.28" ry="18"/>
<text text-anchor="middle" x="-385.179" y="-52.9371" font-family="FreeSans" font-size="14.00" fill="#6666ff">Metamodel::Documenting</text>
</a>
</g>
</g>
<!-- Mu -->
<g id="node2" class="node"><title>Mu</title>
<g id="a_node2"><a xlink:href="/type/Mu" xlink:title="Mu">
<ellipse fill="none" stroke="#000000" cx="-401.746" cy="727.248" rx="27" ry="18"/>
<text text-anchor="middle" x="-401.746" y="730.948" font-family="FreeSans" font-size="14.00" fill="#000000">Mu</text>
</a>
</g>
</g>
<!-- Any -->
<g id="node3" class="node"><title>Any</title>
<g id="a_node3"><a xlink:href="/type/Any" xlink:title="Any">
<ellipse fill="none" stroke="#000000" cx="-466.343" cy="296.758" rx="27" ry="18"/>
<text text-anchor="middle" x="-466.343" y="300.458" font-family="FreeSans" font-size="14.00" fill="#000000">Any</text>
</a>
</g>
</g>
<!-- Any&#45;&gt;Mu -->
<g id="edge1" class="edge"><title>Any&#45;&gt;Mu</title>
<path fill="none" stroke="#000000" d="M-463.65,314.707C-453.595,381.715 -418.206,617.554 -405.956,699.188"/>
<polygon fill="#000000" stroke="#000000" points="-402.474,698.813 -404.451,709.222 -409.396,699.852 -402.474,698.813"/>
</g>
<!-- Metamodel::Naming -->
<g id="node4" class="node"><title>Metamodel::Naming</title>
<g id="a_node4"><a xlink:href="/type/Metamodel::Naming" xlink:title="Metamodel::Naming">
<ellipse fill="none" stroke="#6666ff" cx="-747.718" cy="-251.517" rx="90.1842" ry="18"/>
<text text-anchor="middle" x="-747.718" y="-247.817" font-family="FreeSans" font-size="14.00" fill="#6666ff">Metamodel::Naming</text>
</a>
</g>
</g>
<!-- Metamodel::SubsetHOW -->
<g id="node5" class="node"><title>Metamodel::SubsetHOW</title>
<g id="a_node5"><a xlink:href="/type/Metamodel::SubsetHOW" xlink:title="Metamodel::SubsetHOW">
<ellipse fill="none" stroke="#000000" cx="-1423.95" cy="-21.1799" rx="109.381" ry="18"/>
<text text-anchor="middle" x="-1423.95" y="-17.4799" font-family="FreeSans" font-size="14.00" fill="#000000">Metamodel::SubsetHOW</text>
</a>
</g>
</g>
<!-- Metamodel::SubsetHOW&#45;&gt;Metamodel::Documenting -->
<g id="edge9" class="edge"><title>Metamodel::SubsetHOW&#45;&gt;Metamodel::Documenting</title>
<path fill="none" stroke="#6666ff" d="M-1316.7,-24.8409C-1121.21,-31.5138 -708.301,-45.6078 -504.337,-52.5698"/>
<polygon fill="#6666ff" stroke="#6666ff" points="-504.302,-56.073 -494.188,-52.9163 -504.063,-49.0771 -504.302,-56.073"/>
</g>
<!-- Metamodel::SubsetHOW&#45;&gt;Any -->
<g id="edge2" class="edge"><title>Metamodel::SubsetHOW&#45;&gt;Any</title>
<path fill="none" stroke="#000000" d="M-1382.62,-4.37708C-1263.71,43.9639 -929.176,179.956 -929.176,179.956 -929.176,179.956 -609.848,260.542 -501.677,287.841"/>
<polygon fill="#000000" stroke="#000000" points="-500.726,284.471 -491.886,290.311 -502.439,291.258 -500.726,284.471"/>
</g>
<!-- Metamodel::SubsetHOW&#45;&gt;Metamodel::Naming -->
<g id="edge8" class="edge"><title>Metamodel::SubsetHOW&#45;&gt;Metamodel::Naming</title>
<path fill="none" stroke="#6666ff" d="M-1376.13,-37.4685C-1254.31,-78.9624 -932.8,-188.475 -803.116,-232.647"/>
<polygon fill="#6666ff" stroke="#6666ff" points="-803.973,-236.053 -793.378,-235.964 -801.716,-229.426 -803.973,-236.053"/>
</g>
<!-- Metamodel::Versioning -->
<g id="node6" class="node"><title>Metamodel::Versioning</title>
<g id="a_node6"><a xlink:href="/type/Metamodel::Versioning" xlink:title="Metamodel::Versioning">
<ellipse fill="none" stroke="#6666ff" cx="-8.70903" cy="-60.043" rx="100.983" ry="18"/>
<text text-anchor="middle" x="-8.70903" y="-56.343" font-family="FreeSans" font-size="14.00" fill="#6666ff">Metamodel::Versioning</text>
</a>
</g>
</g>
<!-- Metamodel::Stashing -->
<g id="node7" class="node"><title>Metamodel::Stashing</title>
<g id="a_node7"><a xlink:href="/type/Metamodel::Stashing" xlink:title="Metamodel::Stashing">
<ellipse fill="none" stroke="#6666ff" cx="-165.965" cy="249.191" rx="93.6835" ry="18"/>
<text text-anchor="middle" x="-165.965" y="252.891" font-family="FreeSans" font-size="14.00" fill="#6666ff">Metamodel::Stashing</text>
</a>
</g>
</g>
<!-- Metamodel::MultipleInheritance -->
<g id="node8" class="node"><title>Metamodel::MultipleInheritance</title>
<g id="a_node8"><a xlink:href="/type/Metamodel::MultipleInheritance" xlink:title="Metamodel::MultipleInheritance">
<ellipse fill="none" stroke="#6666ff" cx="101.909" cy="274.019" rx="133.776" ry="18"/>
<text text-anchor="middle" x="101.909" y="277.719" font-family="FreeSans" font-size="14.00" fill="#6666ff">Metamodel::MultipleInheritance</text>
</a>
</g>
</g>
<!-- Metamodel::C3MRO -->
<g id="node9" class="node"><title>Metamodel::C3MRO</title>
<g id="a_node9"><a xlink:href="/type/Metamodel::C3MRO" xlink:title="Metamodel::C3MRO">
<ellipse fill="none" stroke="#6666ff" cx="237.038" cy="715.521" rx="92.0841" ry="18"/>
<text text-anchor="middle" x="237.038" y="719.221" font-family="FreeSans" font-size="14.00" fill="#6666ff">Metamodel::C3MRO</text>
</a>
</g>
</g>
<!-- Metamodel::MROBasedMethodDispatch -->
<g id="node10" class="node"><title>Metamodel::MROBasedMethodDispatch</title>
<g id="a_node10"><a xlink:href="/type/Metamodel::MROBasedMethodDispatch" xlink:title="Metamodel::MROBasedMethodDispatch">
<ellipse fill="none" stroke="#6666ff" cx="395.788" cy="289.176" rx="169.77" ry="18"/>
<text text-anchor="middle" x="395.788" y="292.876" font-family="FreeSans" font-size="14.00" fill="#6666ff">Metamodel::MROBasedMethodDispatch</text>
</a>
</g>
</g>
<!-- Metamodel::MROBasedTypeChecking -->
<g id="node11" class="node"><title>Metamodel::MROBasedTypeChecking</title>
<g id="a_node11"><a xlink:href="/type/Metamodel::MROBasedTypeChecking" xlink:title="Metamodel::MROBasedTypeChecking">
<ellipse fill="none" stroke="#6666ff" cx="655.33" cy="728.119" rx="163.271" ry="18"/>
<text text-anchor="middle" x="655.33" y="731.819" font-family="FreeSans" font-size="14.00" fill="#6666ff">Metamodel::MROBasedTypeChecking</text>
</a>
</g>
</g>
<!-- Metamodel::NativeHOW -->
<g id="node12" class="node"><title>Metamodel::NativeHOW</title>
<g id="a_node12"><a xlink:href="/type/Metamodel::NativeHOW" xlink:title="Metamodel::NativeHOW">
<ellipse fill="none" stroke="#000000" cx="-79.9501" cy="684.416" rx="107.482" ry="18"/>
<text text-anchor="middle" x="-79.9501" y="688.116" font-family="FreeSans" font-size="14.00" fill="#000000">Metamodel::NativeHOW</text>
</a>
</g>
</g>
<!-- Metamodel::NativeHOW&#45;&gt;Metamodel::Documenting -->
<g id="edge11" class="edge"><title>Metamodel::NativeHOW&#45;&gt;Metamodel::Documenting</title>
<path fill="none" stroke="#6666ff" d="M-87.5056,666.271C-121.8,583.912 -261.156,249.246 -261.156,249.246 -261.156,249.246 -343.53,46.0847 -374.012,-29.0963"/>
<polygon fill="#6666ff" stroke="#6666ff" points="-377.278,-27.8364 -377.792,-38.4188 -370.791,-30.4667 -377.278,-27.8364"/>
</g>
<!-- Metamodel::NativeHOW&#45;&gt;Any -->
<g id="edge3" class="edge"><title>Metamodel::NativeHOW&#45;&gt;Any</title>
<path fill="none" stroke="#000000" d="M-97.8117,666.496C-160.979,603.121 -373.775,389.629 -443.797,319.378"/>
<polygon fill="#000000" stroke="#000000" points="-446.659,321.464 -451.24,311.911 -441.701,316.522 -446.659,321.464"/>
</g>
<!-- Metamodel::NativeHOW&#45;&gt;Metamodel::Naming -->
<g id="edge10" class="edge"><title>Metamodel::NativeHOW&#45;&gt;Metamodel::Naming</title>
<path fill="none" stroke="#6666ff" d="M-92.9896,666.14C-176.011,549.779 -630.466,-87.179 -728.906,-225.15"/>
<polygon fill="#6666ff" stroke="#6666ff" points="-731.908,-223.332 -734.867,-233.506 -726.21,-227.398 -731.908,-223.332"/>
</g>
<!-- Metamodel::NativeHOW&#45;&gt;Metamodel::Versioning -->
<g id="edge12" class="edge"><title>Metamodel::NativeHOW&#45;&gt;Metamodel::Versioning</title>
<path fill="none" stroke="#6666ff" d="M-78.2244,666.382C-68.7464,567.338 -23.0247,89.5535 -11.4012,-31.9104"/>
<polygon fill="#6666ff" stroke="#6666ff" points="-14.8806,-32.2932 -10.4439,-41.9142 -7.91246,-31.6263 -14.8806,-32.2932"/>
</g>
<!-- Metamodel::NativeHOW&#45;&gt;Metamodel::Stashing -->
<g id="edge13" class="edge"><title>Metamodel::NativeHOW&#45;&gt;Metamodel::Stashing</title>
<path fill="none" stroke="#6666ff" d="M-83.5365,666.269C-96.9388,598.455 -144.143,359.605 -160.408,277.307"/>
<polygon fill="#6666ff" stroke="#6666ff" points="-163.858,277.904 -162.363,267.415 -156.991,276.547 -163.858,277.904"/>
</g>
<!-- Metamodel::NativeHOW&#45;&gt;Metamodel::MultipleInheritance -->
<g id="edge14" class="edge"><title>Metamodel::NativeHOW&#45;&gt;Metamodel::MultipleInheritance</title>
<path fill="none" stroke="#6666ff" d="M-71.9012,666.252C-43.0936,601.243 55.0006,379.876 89.6583,301.664"/>
<polygon fill="#6666ff" stroke="#6666ff" points="86.4954,300.163 93.7467,292.438 92.8952,302.999 86.4954,300.163"/>
</g>
<!-- Metamodel::NativeHOW&#45;&gt;Metamodel::C3MRO -->
<g id="edge15" class="edge"><title>Metamodel::NativeHOW&#45;&gt;Metamodel::C3MRO</title>
<path fill="none" stroke="#6666ff" d="M13.0151,693.538C54.4477,697.604 103.132,702.381 144.513,706.442"/>
<polygon fill="#6666ff" stroke="#6666ff" points="144.981,702.971 154.592,707.431 144.298,709.937 144.981,702.971"/>
</g>
<!-- Metamodel::NativeHOW&#45;&gt;Metamodel::MROBasedMethodDispatch -->
<g id="edge16" class="edge"><title>Metamodel::NativeHOW&#45;&gt;Metamodel::MROBasedMethodDispatch</title>
<path fill="none" stroke="#6666ff" d="M-58.5844,666.665C17.9463,603.084 278.492,386.625 366.484,313.522"/>
<polygon fill="#6666ff" stroke="#6666ff" points="364.281,310.802 374.209,307.104 368.754,316.186 364.281,310.802"/>
</g>
<!-- Metamodel::NativeHOW&#45;&gt;Metamodel::MROBasedTypeChecking -->
<g id="edge17" class="edge"><title>Metamodel::NativeHOW&#45;&gt;Metamodel::MROBasedTypeChecking</title>
<path fill="none" stroke="#6666ff" d="M24.9256,688.231C116.99,691.58 236.325,695.922 236.325,695.922 236.325,695.922 389.963,707.728 511.172,717.042"/>
<polygon fill="#6666ff" stroke="#6666ff" points="511.611,713.565 521.314,717.821 511.075,720.544 511.611,713.565"/>
</g>
<!-- Metamodel::MethodContainer -->
<g id="node13" class="node"><title>Metamodel::MethodContainer</title>
<g id="a_node13"><a xlink:href="/type/Metamodel::MethodContainer" xlink:title="Metamodel::MethodContainer">
<ellipse fill="none" stroke="#6666ff" cx="216.49" cy="-362.219" rx="127.277" ry="18"/>
<text text-anchor="middle" x="216.49" y="-358.519" font-family="FreeSans" font-size="14.00" fill="#6666ff">Metamodel::MethodContainer</text>
</a>
</g>
</g>
<!-- Metamodel::PrivateMethodContainer -->
<g id="node14" class="node"><title>Metamodel::PrivateMethodContainer</title>
<g id="a_node14"><a xlink:href="/type/Metamodel::PrivateMethodContainer" xlink:title="Metamodel::PrivateMethodContainer">
<ellipse fill="none" stroke="#6666ff" cx="550.82" cy="-745.987" rx="154.873" ry="18"/>
<text text-anchor="middle" x="550.82" y="-742.287" font-family="FreeSans" font-size="14.00" fill="#6666ff">Metamodel::PrivateMethodContainer</text>
</a>
</g>
</g>
<!-- Metamodel::MultiMethodContainer -->
<g id="node15" class="node"><title>Metamodel::MultiMethodContainer</title>
<g id="a_node15"><a xlink:href="/type/Metamodel::MultiMethodContainer" xlink:title="Metamodel::MultiMethodContainer">
<ellipse fill="none" stroke="#6666ff" cx="66.4322" cy="-736.095" rx="146.474" ry="18"/>
<text text-anchor="middle" x="66.4322" y="-732.395" font-family="FreeSans" font-size="14.00" fill="#6666ff">Metamodel::MultiMethodContainer</text>
</a>
</g>
</g>
<!-- Metamodel::AttributeContainer -->
<g id="node16" class="node"><title>Metamodel::AttributeContainer</title>
<g id="a_node16"><a xlink:href="/type/Metamodel::AttributeContainer" xlink:title="Metamodel::AttributeContainer">
<ellipse fill="none" stroke="#6666ff" cx="750.15" cy="-34.3749" rx="129.977" ry="18"/>
<text text-anchor="middle" x="750.15" y="-30.6749" font-family="FreeSans" font-size="14.00" fill="#6666ff">Metamodel::AttributeContainer</text>
</a>
</g>
</g>
<!-- Metamodel::RoleContainer -->
<g id="node17" class="node"><title>Metamodel::RoleContainer</title>
<g id="a_node17"><a xlink:href="/type/Metamodel::RoleContainer" xlink:title="Metamodel::RoleContainer">
<ellipse fill="none" stroke="#6666ff" cx="695.294" cy="-371.511" rx="115.88" ry="18"/>
<text text-anchor="middle" x="695.294" y="-367.811" font-family="FreeSans" font-size="14.00" fill="#6666ff">Metamodel::RoleContainer</text>
</a>
</g>
</g>
<!-- Metamodel::TypePretense -->
<g id="node18" class="node"><title>Metamodel::TypePretense</title>
<g id="a_node18"><a xlink:href="/type/Metamodel::TypePretense" xlink:title="Metamodel::TypePretense">
<ellipse fill="none" stroke="#6666ff" cx="-1414.3" cy="-627.375" rx="114.28" ry="18"/>
<text text-anchor="middle" x="-1414.3" y="-623.675" font-family="FreeSans" font-size="14.00" fill="#6666ff">Metamodel::TypePretense</text>
</a>
</g>
</g>
<!-- Metamodel::RolePunning -->
<g id="node19" class="node"><title>Metamodel::RolePunning</title>
<g id="a_node19"><a xlink:href="/type/Metamodel::RolePunning" xlink:title="Metamodel::RolePunning">
<ellipse fill="none" stroke="#6666ff" cx="-787.817" cy="-704.822" rx="109.681" ry="18"/>
<text text-anchor="middle" x="-787.817" y="-701.122" font-family="FreeSans" font-size="14.00" fill="#6666ff">Metamodel::RolePunning</text>
</a>
</g>
</g>
<!-- Metamodel::ParametricRoleHOW -->
<g id="node20" class="node"><title>Metamodel::ParametricRoleHOW</title>
<g id="a_node20"><a xlink:href="/type/Metamodel::ParametricRoleHOW" xlink:title="Metamodel::ParametricRoleHOW">
<ellipse fill="none" stroke="#000000" cx="-204.132" cy="-339.63" rx="142.175" ry="18"/>
<text text-anchor="middle" x="-204.132" y="-335.93" font-family="FreeSans" font-size="14.00" fill="#000000">Metamodel::ParametricRoleHOW</text>
</a>
</g>
</g>
<!-- Metamodel::ParametricRoleHOW&#45;&gt;Metamodel::Documenting -->
<g id="edge19" class="edge"><title>Metamodel::ParametricRoleHOW&#45;&gt;Metamodel::Documenting</title>
<path fill="none" stroke="#6666ff" d="M-215.733,-321.497C-246.773,-272.979 -331.837,-140.016 -368.262,-83.0798"/>
<polygon fill="#6666ff" stroke="#6666ff" points="-365.337,-81.1566 -373.675,-74.6191 -371.234,-84.929 -365.337,-81.1566"/>
</g>
<!-- Metamodel::ParametricRoleHOW&#45;&gt;Any -->
<g id="edge4" class="edge"><title>Metamodel::ParametricRoleHOW&#45;&gt;Any</title>
<path fill="none" stroke="#000000" d="M-208.509,-321.504C-223.585,-259.068 -272.44,-56.743 -272.44,-56.743 -272.44,-56.743 -407.088,188.732 -451.977,270.566"/>
<polygon fill="#000000" stroke="#000000" points="-449.113,272.623 -456.991,279.708 -455.25,269.257 -449.113,272.623"/>
</g>
<!-- Metamodel::ParametricRoleHOW&#45;&gt;Metamodel::Naming -->
<g id="edge18" class="edge"><title>Metamodel::ParametricRoleHOW&#45;&gt;Metamodel::Naming</title>
<path fill="none" stroke="#6666ff" d="M-291.771,-325.424C-395.563,-308.6 -567,-280.81 -667.455,-264.527"/>
<polygon fill="#6666ff" stroke="#6666ff" points="-667.117,-261.036 -677.548,-262.891 -668.237,-267.946 -667.117,-261.036"/>
</g>
<!-- Metamodel::ParametricRoleHOW&#45;&gt;Metamodel::Versioning -->
<g id="edge20" class="edge"><title>Metamodel::ParametricRoleHOW&#45;&gt;Metamodel::Versioning</title>
<path fill="none" stroke="#6666ff" d="M-191.31,-321.286C-157.618,-273.083 -66.4851,-142.702 -27.1723,-86.4579"/>
<polygon fill="#6666ff" stroke="#6666ff" points="-24.1847,-88.293 -21.3245,-78.0915 -29.9222,-84.2827 -24.1847,-88.293"/>
</g>
<!-- Metamodel::ParametricRoleHOW&#45;&gt;Metamodel::Stashing -->
<g id="edge27" class="edge"><title>Metamodel::ParametricRoleHOW&#45;&gt;Metamodel::Stashing</title>
<path fill="none" stroke="#6666ff" d="M-202.948,-321.362C-197.461,-236.707 -174.489,117.683 -167.8,220.881"/>
<polygon fill="#6666ff" stroke="#6666ff" points="-164.29,220.93 -167.135,231.136 -171.275,221.383 -164.29,220.93"/>
</g>
<!-- Metamodel::ParametricRoleHOW&#45;&gt;Metamodel::MultipleInheritance -->
<g id="edge26" class="edge"><title>Metamodel::ParametricRoleHOW&#45;&gt;Metamodel::MultipleInheritance</title>
<path fill="none" stroke="#6666ff" d="M-198.025,-321.285C-177.317,-259.08 -111.05,-60.0256 -111.05,-60.0256 -111.05,-60.0256 34.7694,168.704 85.0817,247.624"/>
<polygon fill="#6666ff" stroke="#6666ff" points="88.0349,245.745 90.4594,256.059 82.1324,249.508 88.0349,245.745"/>
</g>
<!-- Metamodel::ParametricRoleHOW&#45;&gt;Metamodel::MethodContainer -->
<g id="edge21" class="edge"><title>Metamodel::ParametricRoleHOW&#45;&gt;Metamodel::MethodContainer</title>
<path fill="none" stroke="#6666ff" d="M-73.0627,-346.669C-21.9788,-349.412 36.4108,-352.548 87.3118,-355.282"/>
<polygon fill="#6666ff" stroke="#6666ff" points="87.2145,-358.781 97.3878,-355.823 87.5899,-351.791 87.2145,-358.781"/>
</g>
<!-- Metamodel::ParametricRoleHOW&#45;&gt;Metamodel::PrivateMethodContainer -->
<g id="edge22" class="edge"><title>Metamodel::ParametricRoleHOW&#45;&gt;Metamodel::PrivateMethodContainer</title>
<path fill="none" stroke="#6666ff" d="M-171.207,-357.352C-49.6943,-422.757 373.516,-650.552 508.855,-723.4"/>
<polygon fill="#6666ff" stroke="#6666ff" points="507.257,-726.514 517.721,-728.172 510.575,-720.35 507.257,-726.514"/>
</g>
<!-- Metamodel::ParametricRoleHOW&#45;&gt;Metamodel::MultiMethodContainer -->
<g id="edge23" class="edge"><title>Metamodel::ParametricRoleHOW&#45;&gt;Metamodel::MultiMethodContainer</title>
<path fill="none" stroke="#6666ff" d="M-191.804,-357.696C-148.491,-421.163 -3.14576,-634.14 48.2431,-709.442"/>
<polygon fill="#6666ff" stroke="#6666ff" points="45.5032,-711.636 54.0311,-717.923 51.2851,-707.69 45.5032,-711.636"/>
</g>
<!-- Metamodel::ParametricRoleHOW&#45;&gt;Metamodel::AttributeContainer -->
<g id="edge24" class="edge"><title>Metamodel::ParametricRoleHOW&#45;&gt;Metamodel::AttributeContainer</title>
<path fill="none" stroke="#6666ff" d="M-151.467,-322.784C12.472,-270.343 513.187,-110.175 688.633,-54.0528"/>
<polygon fill="#6666ff" stroke="#6666ff" points="689.773,-57.3631 698.231,-50.9827 687.64,-50.6959 689.773,-57.3631"/>
</g>
<!-- Metamodel::ParametricRoleHOW&#45;&gt;Metamodel::RoleContainer -->
<g id="edge25" class="edge"><title>Metamodel::ParametricRoleHOW&#45;&gt;Metamodel::RoleContainer</title>
<path fill="none" stroke="#6666ff" d="M-61.7987,-340.64C60.4617,-341.507 217.151,-342.619 217.151,-342.619 217.151,-342.619 435.751,-355.828 577.336,-364.383"/>
<polygon fill="#6666ff" stroke="#6666ff" points="577.2,-367.881 587.393,-364.991 577.622,-360.894 577.2,-367.881"/>
</g>
<!-- Metamodel::ParametricRoleHOW&#45;&gt;Metamodel::TypePretense -->
<g id="edge28" class="edge"><title>Metamodel::ParametricRoleHOW&#45;&gt;Metamodel::TypePretense</title>
<path fill="none" stroke="#6666ff" d="M-271.354,-355.614C-481.203,-405.51 -1123.13,-558.142 -1341.04,-609.955"/>
<polygon fill="#6666ff" stroke="#6666ff" points="-1342.17,-606.627 -1351.09,-612.345 -1340.55,-613.437 -1342.17,-606.627"/>
</g>
<!-- Metamodel::ParametricRoleHOW&#45;&gt;Metamodel::RolePunning -->
<g id="edge29" class="edge"><title>Metamodel::ParametricRoleHOW&#45;&gt;Metamodel::RolePunning</title>
<path fill="none" stroke="#6666ff" d="M-232.68,-357.491C-329.186,-417.872 -643.234,-614.362 -751.07,-681.831"/>
<polygon fill="#6666ff" stroke="#6666ff" points="-753.045,-678.938 -759.666,-687.21 -749.332,-684.873 -753.045,-678.938"/>
</g>
<!-- Metamodel::MethodDelegation -->
<g id="node21" class="node"><title>Metamodel::MethodDelegation</title>
<g id="a_node21"><a xlink:href="/type/Metamodel::MethodDelegation" xlink:title="Metamodel::MethodDelegation">
<ellipse fill="none" stroke="#6666ff" cx="-1429.86" cy="611.215" rx="131.077" ry="18"/>
<text text-anchor="middle" x="-1429.86" y="614.915" font-family="FreeSans" font-size="14.00" fill="#6666ff">Metamodel::MethodDelegation</text>
</a>
</g>
</g>
<!-- Metamodel::PackageHOW -->
<g id="node22" class="node"><title>Metamodel::PackageHOW</title>
<g id="a_node22"><a xlink:href="/type/Metamodel::PackageHOW" xlink:title="Metamodel::PackageHOW">
<ellipse fill="none" stroke="#000000" cx="-822.306" cy="682.191" rx="116.18" ry="18"/>
<text text-anchor="middle" x="-822.306" y="685.891" font-family="FreeSans" font-size="14.00" fill="#000000">Metamodel::PackageHOW</text>
</a>
</g>
</g>
<!-- Metamodel::PackageHOW&#45;&gt;Metamodel::Documenting -->
<g id="edge31" class="edge"><title>Metamodel::PackageHOW&#45;&gt;Metamodel::Documenting</title>
<path fill="none" stroke="#6666ff" d="M-811.5,663.928C-752.681,564.513 -471.148,88.6678 -401.025,-29.8545"/>
<polygon fill="#6666ff" stroke="#6666ff" points="-403.906,-31.8587 -395.802,-38.683 -397.881,-28.2943 -403.906,-31.8587"/>
</g>
<!-- Metamodel::PackageHOW&#45;&gt;Any -->
<g id="edge5" class="edge"><title>Metamodel::PackageHOW&#45;&gt;Any</title>
<path fill="none" stroke="#000000" d="M-805.614,664.118C-747.248,600.919 -552.329,389.863 -487.509,319.676"/>
<polygon fill="#000000" stroke="#000000" points="-489.965,317.177 -480.609,312.205 -484.823,321.926 -489.965,317.177"/>
</g>
<!-- Metamodel::PackageHOW&#45;&gt;Metamodel::Naming -->
<g id="edge30" class="edge"><title>Metamodel::PackageHOW&#45;&gt;Metamodel::Naming</title>
<path fill="none" stroke="#6666ff" d="M-819.32,664.121C-804.224,572.754 -737.012,165.973 -737.012,165.973 -737.012,165.973 -744.579,-129.124 -746.989,-223.121"/>
<polygon fill="#6666ff" stroke="#6666ff" points="-750.493,-223.223 -747.251,-233.309 -743.495,-223.402 -750.493,-223.223"/>
</g>
<!-- Metamodel::PackageHOW&#45;&gt;Metamodel::Stashing -->
<g id="edge32" class="edge"><title>Metamodel::PackageHOW&#45;&gt;Metamodel::Stashing</title>
<path fill="none" stroke="#6666ff" d="M-795.353,664.41C-691.557,595.934 -317.693,349.289 -201.007,272.309"/>
<polygon fill="#6666ff" stroke="#6666ff" points="-202.695,269.229 -192.421,266.644 -198.84,275.072 -202.695,269.229"/>
</g>
<!-- Metamodel::PackageHOW&#45;&gt;Metamodel::TypePretense -->
<g id="edge33" class="edge"><title>Metamodel::PackageHOW&#45;&gt;Metamodel::TypePretense</title>
<path fill="none" stroke="#6666ff" d="M-830.449,664.177C-894.953,521.484 -1322.93,-425.256 -1401.81,-599.754"/>
<polygon fill="#6666ff" stroke="#6666ff" points="-1405.08,-598.478 -1406.01,-609.032 -1398.7,-601.362 -1405.08,-598.478"/>
</g>
<!-- Metamodel::PackageHOW&#45;&gt;Metamodel::MethodDelegation -->
<g id="edge34" class="edge"><title>Metamodel::PackageHOW&#45;&gt;Metamodel::MethodDelegation</title>
<path fill="none" stroke="#6666ff" d="M-915.241,671.334C-1024.09,658.618 -1204.21,637.576 -1319.91,624.059"/>
<polygon fill="#6666ff" stroke="#6666ff" points="-1320.33,627.534 -1329.86,622.897 -1319.52,620.581 -1320.33,627.534"/>
</g>
<!-- Metamodel::Finalization -->
<g id="node23" class="node"><title>Metamodel::Finalization</title>
<g id="a_node23"><a xlink:href="/type/Metamodel::Finalization" xlink:title="Metamodel::Finalization">
<ellipse fill="none" stroke="#6666ff" cx="1359.81" cy="-256.359" rx="103.982" ry="18"/>
<text text-anchor="middle" x="1359.81" y="-252.659" font-family="FreeSans" font-size="14.00" fill="#6666ff">Metamodel::Finalization</text>
</a>
</g>
</g>
<!-- Metamodel::DefaultParent -->
<g id="node24" class="node"><title>Metamodel::DefaultParent</title>
<g id="a_node24"><a xlink:href="/type/Metamodel::DefaultParent" xlink:title="Metamodel::DefaultParent">
<ellipse fill="none" stroke="#6666ff" cx="1371.23" cy="192.918" rx="113.18" ry="18"/>
<text text-anchor="middle" x="1371.23" y="196.618" font-family="FreeSans" font-size="14.00" fill="#6666ff">Metamodel::DefaultParent</text>
</a>
</g>
</g>
<!-- Metamodel::Trusting -->
<g id="node25" class="node"><title>Metamodel::Trusting</title>
<g id="a_node25"><a xlink:href="/type/Metamodel::Trusting" xlink:title="Metamodel::Trusting">
<ellipse fill="none" stroke="#6666ff" cx="1270.11" cy="-718.254" rx="91.784" ry="18"/>
<text text-anchor="middle" x="1270.11" y="-714.554" font-family="FreeSans" font-size="14.00" fill="#6666ff">Metamodel::Trusting</text>
</a>
</g>
</g>
<!-- Metamodel::BUILDPLAN -->
<g id="node26" class="node"><title>Metamodel::BUILDPLAN</title>
<g id="a_node26"><a xlink:href="/type/Metamodel::BUILDPLAN" xlink:title="Metamodel::BUILDPLAN">
<ellipse fill="none" stroke="#6666ff" cx="1314.52" cy="691.987" rx="109.681" ry="18"/>
<text text-anchor="middle" x="1314.52" y="695.687" font-family="FreeSans" font-size="14.00" fill="#6666ff">Metamodel::BUILDPLAN</text>
</a>
</g>
</g>
<!-- Metamodel::Mixins -->
<g id="node27" class="node"><title>Metamodel::Mixins</title>
<g id="a_node27"><a xlink:href="/type/Metamodel::Mixins" xlink:title="Metamodel::Mixins">
<ellipse fill="none" stroke="#6666ff" cx="787.116" cy="318.601" rx="85.2851" ry="18"/>
<text text-anchor="middle" x="787.116" y="322.301" font-family="FreeSans" font-size="14.00" fill="#6666ff">Metamodel::Mixins</text>
</a>
</g>
</g>
<!-- Metamodel::BoolificationProtocol -->
<g id="node28" class="node"><title>Metamodel::BoolificationProtocol</title>
<g id="a_node28"><a xlink:href="/type/Metamodel::BoolificationProtocol" xlink:title="Metamodel::BoolificationProtocol">
<ellipse fill="none" stroke="#6666ff" cx="-346.439" cy="-707.814" rx="139.175" ry="18"/>
<text text-anchor="middle" x="-346.439" y="-704.114" font-family="FreeSans" font-size="14.00" fill="#6666ff">Metamodel::BoolificationProtocol</text>
</a>
</g>
</g>
<!-- Metamodel::ClassHOW -->
<g id="node29" class="node"><title>Metamodel::ClassHOW</title>
<g id="a_node29"><a xlink:href="/type/Metamodel::ClassHOW" xlink:title="Metamodel::ClassHOW">
<ellipse fill="none" stroke="#000000" cx="335.858" cy="-56.8164" rx="103.982" ry="18"/>
<text text-anchor="middle" x="335.858" y="-53.1164" font-family="FreeSans" font-size="14.00" fill="#000000">Metamodel::ClassHOW</text>
</a>
</g>
</g>
<!-- Metamodel::ClassHOW&#45;&gt;Metamodel::Documenting -->
<g id="edge36" class="edge"><title>Metamodel::ClassHOW&#45;&gt;Metamodel::Documenting</title>
<path fill="none" stroke="#6666ff" d="M235.295,-52.0365C133.618,-47.2037 -8.61838,-40.443 -8.61838,-40.443 -8.61838,-40.443 -156.838,-46.8172 -267.295,-51.5675"/>
<polygon fill="#6666ff" stroke="#6666ff" points="-267.684,-48.0809 -277.524,-52.0074 -267.383,-55.0744 -267.684,-48.0809"/>
</g>
<!-- Metamodel::ClassHOW&#45;&gt;Any -->
<g id="edge6" class="edge"><title>Metamodel::ClassHOW&#45;&gt;Any</title>
<path fill="none" stroke="#000000" d="M297.705,-40.0007C160.387,20.5232 -307.238,226.631 -434.271,282.622"/>
<polygon fill="#000000" stroke="#000000" points="-432.932,285.856 -443.494,286.687 -435.755,279.451 -432.932,285.856"/>
</g>
<!-- Metamodel::ClassHOW&#45;&gt;Metamodel::Naming -->
<g id="edge35" class="edge"><title>Metamodel::ClassHOW&#45;&gt;Metamodel::Naming</title>
<path fill="none" stroke="#6666ff" d="M263.501,-69.8177C68.0084,-104.944 -469.539,-201.533 -670.536,-237.648"/>
<polygon fill="#6666ff" stroke="#6666ff" points="-671.202,-234.212 -680.425,-239.425 -669.964,-241.101 -671.202,-234.212"/>
</g>
<!-- Metamodel::ClassHOW&#45;&gt;Metamodel::Versioning -->
<g id="edge37" class="edge"><title>Metamodel::ClassHOW&#45;&gt;Metamodel::Versioning</title>
<path fill="none" stroke="#6666ff" d="M232.009,-57.7889C191.003,-58.1728 143.822,-58.6146 102.155,-59.0048"/>
<polygon fill="#6666ff" stroke="#6666ff" points="101.934,-55.5066 91.9671,-59.1002 102,-62.5063 101.934,-55.5066"/>
</g>
<!-- Metamodel::ClassHOW&#45;&gt;Metamodel::Stashing -->
<g id="edge38" class="edge"><title>Metamodel::ClassHOW&#45;&gt;Metamodel::Stashing</title>
<path fill="none" stroke="#6666ff" d="M307.44,-39.4874C221.974,12.6289 -32.7198,167.939 -128.76,226.504"/>
<polygon fill="#6666ff" stroke="#6666ff" points="-127.188,229.644 -137.548,231.863 -130.833,223.668 -127.188,229.644"/>
</g>
<!-- Metamodel::ClassHOW&#45;&gt;Metamodel::MultipleInheritance -->
<g id="edge45" class="edge"><title>Metamodel::ClassHOW&#45;&gt;Metamodel::MultipleInheritance</title>
<path fill="none" stroke="#6666ff" d="M322.946,-38.558C283.881,16.6853 166.812,182.236 120.788,247.322"/>
<polygon fill="#6666ff" stroke="#6666ff" points="123.412,249.673 114.78,255.817 117.696,245.631 123.412,249.673"/>
</g>
<!-- Metamodel::ClassHOW&#45;&gt;Metamodel::C3MRO -->
<g id="edge47" class="edge"><title>Metamodel::ClassHOW&#45;&gt;Metamodel::C3MRO</title>
<path fill="none" stroke="#6666ff" d="M330.424,-38.5657C309.782,30.7613 237.394,273.88 237.394,273.88 237.394,273.88 224.557,289.308 224.557,289.308 224.557,289.308 233.437,592.533 236.217,687.461"/>
<polygon fill="#6666ff" stroke="#6666ff" points="239.716,687.381 236.51,697.479 232.719,687.586 239.716,687.381"/>
</g>
<!-- Metamodel::ClassHOW&#45;&gt;Metamodel::MROBasedMethodDispatch -->
<g id="edge48" class="edge"><title>Metamodel::ClassHOW&#45;&gt;Metamodel::MROBasedMethodDispatch</title>
<path fill="none" stroke="#6666ff" d="M338.995,-38.7015C348.803,17.9194 378.935,191.88 390.857,260.713"/>
<polygon fill="#6666ff" stroke="#6666ff" points="394.351,260.373 392.609,270.823 387.453,261.567 394.351,260.373"/>
</g>
<!-- Metamodel::ClassHOW&#45;&gt;Metamodel::MROBasedTypeChecking -->
<g id="edge49" class="edge"><title>Metamodel::ClassHOW&#45;&gt;Metamodel::MROBasedTypeChecking</title>
<path fill="none" stroke="#6666ff" d="M347.96,-38.7084C395.524,32.4552 567.019,289.045 567.019,289.045 567.019,289.045 630.256,603.452 649.706,700.158"/>
<polygon fill="#6666ff" stroke="#6666ff" points="653.163,699.594 651.704,710.088 646.3,700.975 653.163,699.594"/>
</g>
<!-- Metamodel::ClassHOW&#45;&gt;Metamodel::MethodContainer -->
<g id="edge41" class="edge"><title>Metamodel::ClassHOW&#45;&gt;Metamodel::MethodContainer</title>
<path fill="none" stroke="#6666ff" d="M328.748,-75.0061C308.637,-126.46 251.249,-273.287 227.248,-334.694"/>
<polygon fill="#6666ff" stroke="#6666ff" points="223.943,-333.536 223.562,-344.124 230.463,-336.085 223.943,-333.536"/>
</g>
<!-- Metamodel::ClassHOW&#45;&gt;Metamodel::PrivateMethodContainer -->
<g id="edge42" class="edge"><title>Metamodel::ClassHOW&#45;&gt;Metamodel::PrivateMethodContainer</title>
<path fill="none" stroke="#6666ff" d="M341.497,-74.8958C370.853,-169.013 506.213,-602.977 542.078,-717.962"/>
<polygon fill="#6666ff" stroke="#6666ff" points="538.821,-719.274 545.14,-727.779 545.504,-717.19 538.821,-719.274"/>
</g>
<!-- Metamodel::ClassHOW&#45;&gt;Metamodel::MultiMethodContainer -->
<g id="edge43" class="edge"><title>Metamodel::ClassHOW&#45;&gt;Metamodel::MultiMethodContainer</title>
<path fill="none" stroke="#6666ff" d="M321.066,-75.0002C267.6,-140.726 87.5031,-362.118 87.5031,-362.118 87.5031,-362.118 72.9307,-620.757 68.0232,-707.856"/>
<polygon fill="#6666ff" stroke="#6666ff" points="64.5167,-707.876 67.4485,-718.057 71.5056,-708.27 64.5167,-707.876"/>
</g>
<!-- Metamodel::ClassHOW&#45;&gt;Metamodel::AttributeContainer -->
<g id="edge39" class="edge"><title>Metamodel::ClassHOW&#45;&gt;Metamodel::AttributeContainer</title>
<path fill="none" stroke="#6666ff" d="M435.354,-51.4268C490.349,-48.4479 559.362,-44.7096 618.744,-41.4929"/>
<polygon fill="#6666ff" stroke="#6666ff" points="619.153,-44.976 628.949,-40.9401 618.775,-37.9862 619.153,-44.976"/>
</g>
<!-- Metamodel::ClassHOW&#45;&gt;Metamodel::RoleContainer -->
<g id="edge44" class="edge"><title>Metamodel::ClassHOW&#45;&gt;Metamodel::RoleContainer</title>
<path fill="none" stroke="#6666ff" d="M356.212,-74.6374C416.986,-127.846 597.229,-285.653 667.139,-346.861"/>
<polygon fill="#6666ff" stroke="#6666ff" points="664.887,-349.541 674.717,-353.495 669.498,-344.275 664.887,-349.541"/>
</g>
<!-- Metamodel::ClassHOW&#45;&gt;Metamodel::Finalization -->
<g id="edge40" class="edge"><title>Metamodel::ClassHOW&#45;&gt;Metamodel::Finalization</title>
<path fill="none" stroke="#6666ff" d="M405.032,-70.2968C588.511,-106.052 1086.76,-203.15 1280.89,-240.98"/>
<polygon fill="#6666ff" stroke="#6666ff" points="1280.25,-244.421 1290.73,-242.899 1281.59,-237.551 1280.25,-244.421"/>
</g>
<!-- Metamodel::ClassHOW&#45;&gt;Metamodel::DefaultParent -->
<g id="edge46" class="edge"><title>Metamodel::ClassHOW&#45;&gt;Metamodel::DefaultParent</title>
<path fill="none" stroke="#6666ff" d="M396.76,-42.1268C576.666,1.26698 1105.22,128.756 1298.97,175.489"/>
<polygon fill="#6666ff" stroke="#6666ff" points="1299.87,172.105 1308.77,177.852 1298.23,178.91 1299.87,172.105"/>
</g>
<!-- Metamodel::ClassHOW&#45;&gt;Metamodel::Trusting -->
<g id="edge50" class="edge"><title>Metamodel::ClassHOW&#45;&gt;Metamodel::Trusting</title>
<path fill="none" stroke="#6666ff" d="M362.51,-74.4122C462.906,-140.693 812.583,-371.549 812.583,-371.549 812.583,-371.549 1135.9,-616.549 1238.95,-694.642"/>
<polygon fill="#6666ff" stroke="#6666ff" points="1237.03,-697.573 1247.11,-700.823 1241.25,-691.994 1237.03,-697.573"/>
</g>
<!-- Metamodel::ClassHOW&#45;&gt;Metamodel::BUILDPLAN -->
<g id="edge51" class="edge"><title>Metamodel::ClassHOW&#45;&gt;Metamodel::BUILDPLAN</title>
<path fill="none" stroke="#6666ff" d="M361.085,-39.2215C467.449,34.9633 873.855,318.416 873.855,318.416 873.855,318.416 1188.07,584.792 1285.84,667.676"/>
<polygon fill="#6666ff" stroke="#6666ff" points="1288.2,665.084 1293.56,674.221 1283.67,670.424 1288.2,665.084"/>
</g>
<!-- Metamodel::ClassHOW&#45;&gt;Metamodel::Mixins -->
<g id="edge52" class="edge"><title>Metamodel::ClassHOW&#45;&gt;Metamodel::Mixins</title>
<path fill="none" stroke="#6666ff" d="M357.319,-38.9618C431.056,22.3825 674.105,224.583 758.188,294.535"/>
<polygon fill="#6666ff" stroke="#6666ff" points="760.598,291.987 766.047,301.073 756.121,297.368 760.598,291.987"/>
</g>
<!-- Metamodel::ClassHOW&#45;&gt;Metamodel::BoolificationProtocol -->
<g id="edge53" class="edge"><title>Metamodel::ClassHOW&#45;&gt;Metamodel::BoolificationProtocol</title>
<path fill="none" stroke="#6666ff" d="M317.254,-74.5667C222.249,-165.213 -208.637,-576.333 -320.068,-682.653"/>
<polygon fill="#6666ff" stroke="#6666ff" points="-322.711,-680.337 -327.53,-689.773 -317.879,-685.402 -322.711,-680.337"/>
</g>
<!-- Metamodel::ModuleHOW -->
<g id="node30" class="node"><title>Metamodel::ModuleHOW</title>
<g id="a_node30"><a xlink:href="/type/Metamodel::ModuleHOW" xlink:title="Metamodel::ModuleHOW">
<ellipse fill="none" stroke="#000000" cx="-849.751" cy="166.046" rx="111.28" ry="18"/>
<text text-anchor="middle" x="-849.751" y="169.746" font-family="FreeSans" font-size="14.00" fill="#000000">Metamodel::ModuleHOW</text>
</a>
</g>
</g>
<!-- Metamodel::ModuleHOW&#45;&gt;Metamodel::Documenting -->
<g id="edge55" class="edge"><title>Metamodel::ModuleHOW&#45;&gt;Metamodel::Documenting</title>
<path fill="none" stroke="#6666ff" d="M-814.068,148.942C-730.464,108.868 -522.047,8.96761 -430.041,-35.1335"/>
<polygon fill="#6666ff" stroke="#6666ff" points="-431.514,-38.3088 -420.983,-39.4751 -428.488,-31.9965 -431.514,-38.3088"/>
</g>
<!-- Metamodel::ModuleHOW&#45;&gt;Any -->
<g id="edge7" class="edge"><title>Metamodel::ModuleHOW&#45;&gt;Any</title>
<path fill="none" stroke="#000000" d="M-801.967,182.336C-723.491,209.09 -569.188,261.695 -500.603,285.078"/>
<polygon fill="#000000" stroke="#000000" points="-499.075,281.901 -490.74,288.44 -501.334,288.526 -499.075,281.901"/>
</g>
<!-- Metamodel::ModuleHOW&#45;&gt;Metamodel::Naming -->
<g id="edge54" class="edge"><title>Metamodel::ModuleHOW&#45;&gt;Metamodel::Naming</title>
<path fill="none" stroke="#6666ff" d="M-845.301,147.835C-829.223,82.0364 -774.063,-143.702 -754.591,-223.388"/>
<polygon fill="#6666ff" stroke="#6666ff" points="-757.965,-224.327 -752.191,-233.21 -751.165,-222.665 -757.965,-224.327"/>
</g>
<!-- Metamodel::ModuleHOW&#45;&gt;Metamodel::Versioning -->
<g id="edge56" class="edge"><title>Metamodel::ModuleHOW&#45;&gt;Metamodel::Versioning</title>
<path fill="none" stroke="#6666ff" d="M-792.274,150.595C-641.248,109.996 -233.877,0.486737 -74.1933,-42.4395"/>
<polygon fill="#6666ff" stroke="#6666ff" points="-75.0594,-45.8309 -64.4936,-45.047 -73.2421,-39.0709 -75.0594,-45.8309"/>
</g>
<!-- Metamodel::ModuleHOW&#45;&gt;Metamodel::Stashing -->
<g id="edge57" class="edge"><title>Metamodel::ModuleHOW&#45;&gt;Metamodel::Stashing</title>
<path fill="none" stroke="#6666ff" d="M-760.709,176.873C-629.666,192.807 -386.266,222.403 -255.145,238.347"/>
<polygon fill="#6666ff" stroke="#6666ff" points="-254.634,234.883 -245.13,239.565 -255.479,241.832 -254.634,234.883"/>
</g>
<!-- Metamodel::ModuleHOW&#45;&gt;Metamodel::TypePretense -->
<g id="edge58" class="edge"><title>Metamodel::ModuleHOW&#45;&gt;Metamodel::TypePretense</title>
<path fill="none" stroke="#6666ff" d="M-862.603,147.983C-936.572,44.0259 -1307.79,-477.683 -1395.64,-601.151"/>
<polygon fill="#6666ff" stroke="#6666ff" points="-1398.52,-599.164 -1401.47,-609.341 -1392.82,-603.222 -1398.52,-599.164"/>
</g>
<!-- Metamodel::ModuleHOW&#45;&gt;Metamodel::MethodDelegation -->
<g id="edge59" class="edge"><title>Metamodel::ModuleHOW&#45;&gt;Metamodel::MethodDelegation</title>
<path fill="none" stroke="#6666ff" d="M-872.85,183.772C-963.445,253.293 -1294.62,507.435 -1398.48,587.138"/>
<polygon fill="#6666ff" stroke="#6666ff" points="-1396.63,590.127 -1406.69,593.438 -1400.89,584.573 -1396.63,590.127"/>
</g>
</g>
</svg>
