<?xml version="1.0" encoding="UTF-8" standalone="no"?>
<!DOCTYPE svg PUBLIC "-//W3C//DTD SVG 1.1//EN"
 "http://www.w3.org/Graphics/SVG/1.1/DTD/svg11.dtd">
<!-- Generated by graphviz version 2.38.0 (20140413.2041)
 -->
<!-- Title: perl6&#45;type&#45;graph Pages: 1 -->
<svg width="638pt" height="188pt"
 viewBox="0.00 0.00 638.38 188.00" xmlns="http://www.w3.org/2000/svg" xmlns:xlink="http://www.w3.org/1999/xlink">
<g id="graph0" class="graph" transform="scale(1 1) rotate(0) translate(4 184)">
<title>perl6&#45;type&#45;graph</title>
<polygon fill="white" stroke="none" points="-4,4 -4,-184 634.376,-184 634.376,4 -4,4"/>
<!-- CompUnit::Repository::Installable -->
<g id="node1" class="node"><title>CompUnit::Repository::Installable</title>
<g id="a_node1"><a xlink:href="/type/CompUnit::Repository::Installable" xlink:title="CompUnit::Repository::Installable">
<ellipse fill="none" stroke="#6666ff" cx="141.037" cy="-90" rx="141.075" ry="18"/>
<text text-anchor="middle" x="141.037" y="-86.3" font-family="FreeSans" font-size="14.00" fill="#6666ff">CompUnit::Repository::Installable</text>
</a>
</g>
</g>
<!-- Mu -->
<g id="node2" class="node"><title>Mu</title>
<g id="a_node2"><a xlink:href="/type/Mu" xlink:title="Mu">
<ellipse fill="none" stroke="#000000" cx="327.037" cy="-162" rx="27" ry="18"/>
<text text-anchor="middle" x="327.037" y="-158.3" font-family="FreeSans" font-size="14.00" fill="#000000">Mu</text>
</a>
</g>
</g>
<!-- Any -->
<g id="node3" class="node"><title>Any</title>
<g id="a_node3"><a xlink:href="/type/Any" xlink:title="Any">
<ellipse fill="none" stroke="#000000" cx="327.037" cy="-90" rx="27" ry="18"/>
<text text-anchor="middle" x="327.037" y="-86.3" font-family="FreeSans" font-size="14.00" fill="#000000">Any</text>
</a>
</g>
</g>
<!-- Any&#45;&gt;Mu -->
<g id="edge1" class="edge"><title>Any&#45;&gt;Mu</title>
<path fill="none" stroke="#000000" d="M327.037,-108.303C327.037,-116.017 327.037,-125.288 327.037,-133.888"/>
<polygon fill="#000000" stroke="#000000" points="323.538,-133.896 327.037,-143.896 330.538,-133.896 323.538,-133.896"/>
</g>
<!-- CompUnit::Repository::Locally -->
<g id="node4" class="node"><title>CompUnit::Repository::Locally</title>
<g id="a_node4"><a xlink:href="/type/CompUnit::Repository::Locally" xlink:title="CompUnit::Repository::Locally">
<ellipse fill="none" stroke="#6666ff" cx="501.037" cy="-90" rx="129.177" ry="18"/>
<text text-anchor="middle" x="501.037" y="-86.3" font-family="FreeSans" font-size="14.00" fill="#6666ff">CompUnit::Repository::Locally</text>
</a>
</g>
</g>
<!-- CompUnit::Repository::Installation -->
<g id="node5" class="node"><title>CompUnit::Repository::Installation</title>
<g id="a_node5"><a xlink:href="/type/CompUnit::Repository::Installation" xlink:title="CompUnit::Repository::Installation">
<ellipse fill="none" stroke="#000000" cx="327.037" cy="-18" rx="143.775" ry="18"/>
<text text-anchor="middle" x="327.037" y="-14.3" font-family="FreeSans" font-size="14.00" fill="#000000">CompUnit::Repository::Installation</text>
</a>
</g>
</g>
<!-- CompUnit::Repository::Installation&#45;&gt;CompUnit::Repository::Installable -->
<g id="edge4" class="edge"><title>CompUnit::Repository::Installation&#45;&gt;CompUnit::Repository::Installable</title>
<path fill="none" stroke="#6666ff" d="M283.898,-35.2354C256.901,-45.3955 221.945,-58.5508 193.369,-69.3053"/>
<polygon fill="#6666ff" stroke="#6666ff" points="192.07,-66.0547 183.943,-72.8527 194.535,-72.6061 192.07,-66.0547"/>
</g>
<!-- CompUnit::Repository::Installation&#45;&gt;Any -->
<g id="edge2" class="edge"><title>CompUnit::Repository::Installation&#45;&gt;Any</title>
<path fill="none" stroke="#000000" d="M327.037,-36.3034C327.037,-44.0173 327.037,-53.2875 327.037,-61.8876"/>
<polygon fill="#000000" stroke="#000000" points="323.538,-61.8956 327.037,-71.8957 330.538,-61.8957 323.538,-61.8956"/>
</g>
<!-- CompUnit::Repository::Installation&#45;&gt;CompUnit::Repository::Locally -->
<g id="edge3" class="edge"><title>CompUnit::Repository::Installation&#45;&gt;CompUnit::Repository::Locally</title>
<path fill="none" stroke="#6666ff" d="M367.833,-35.4119C392.792,-45.4531 424.9,-58.3699 451.338,-69.006"/>
<polygon fill="#6666ff" stroke="#6666ff" points="450.214,-72.3265 460.798,-72.8118 452.827,-65.8323 450.214,-72.3265"/>
</g>
</g>
</svg>
