<?xml version="1.0" encoding="UTF-8" standalone="no"?>
<!DOCTYPE svg PUBLIC "-//W3C//DTD SVG 1.1//EN"
 "http://www.w3.org/Graphics/SVG/1.1/DTD/svg11.dtd">
<!-- Generated by graphviz version 2.38.0 (20140413.2041)
 -->
<!-- Title: perl6&#45;type&#45;graph Pages: 1 -->
<svg width="271pt" height="332pt"
 viewBox="0.00 0.00 270.58 332.00" xmlns="http://www.w3.org/2000/svg" xmlns:xlink="http://www.w3.org/1999/xlink">
<g id="graph0" class="graph" transform="scale(1 1) rotate(0) translate(4 328)">
<title>perl6&#45;type&#45;graph</title>
<polygon fill="white" stroke="none" points="-4,4 -4,-328 266.577,-328 266.577,4 -4,4"/>
<!-- X::Proc::Async::AlreadyStarted -->
<g id="node1" class="node"><title>X::Proc::Async::AlreadyStarted</title>
<g id="a_node1"><a xlink:href="/type/X::Proc::Async::AlreadyStarted" xlink:title="X::Proc::Async::AlreadyStarted">
<ellipse fill="none" stroke="#000000" cx="131.288" cy="-18" rx="131.077" ry="18"/>
<text text-anchor="middle" x="131.288" y="-14.3" font-family="FreeSans" font-size="14.00" fill="#000000">X::Proc::Async::AlreadyStarted</text>
</a>
</g>
</g>
<!-- Exception -->
<g id="node4" class="node"><title>Exception</title>
<g id="a_node4"><a xlink:href="/type/Exception" xlink:title="Exception">
<ellipse fill="none" stroke="#000000" cx="131.288" cy="-162" rx="49.2915" ry="18"/>
<text text-anchor="middle" x="131.288" y="-158.3" font-family="FreeSans" font-size="14.00" fill="#000000">Exception</text>
</a>
</g>
</g>
<!-- X::Proc::Async::AlreadyStarted&#45;&gt;Exception -->
<g id="edge1" class="edge"><title>X::Proc::Async::AlreadyStarted&#45;&gt;Exception</title>
<path fill="none" stroke="#000000" d="M121.953,-36.0613C113.475,-51.5549 102.288,-72 102.288,-72 102.288,-72 102.288,-108 102.288,-108 102.288,-108 109.767,-121.667 117.128,-135.121"/>
<polygon fill="#000000" stroke="#000000" points="114.242,-137.138 122.113,-144.23 120.383,-133.778 114.242,-137.138"/>
</g>
<!-- X::Proc::Async -->
<g id="node5" class="node"><title>X::Proc::Async</title>
<g id="a_node5"><a xlink:href="/type/X::Proc::Async" xlink:title="X::Proc::Async">
<ellipse fill="none" stroke="#6666ff" cx="179.288" cy="-90" rx="68.4888" ry="18"/>
<text text-anchor="middle" x="179.288" y="-86.3" font-family="FreeSans" font-size="14.00" fill="#6666ff">X::Proc::Async</text>
</a>
</g>
</g>
<!-- X::Proc::Async::AlreadyStarted&#45;&gt;X::Proc::Async -->
<g id="edge5" class="edge"><title>X::Proc::Async::AlreadyStarted&#45;&gt;X::Proc::Async</title>
<path fill="none" stroke="#6666ff" d="M142.908,-35.945C148.627,-44.2853 155.638,-54.5092 161.973,-63.7483"/>
<polygon fill="#6666ff" stroke="#6666ff" points="159.234,-65.9431 167.776,-72.211 165.007,-61.9843 159.234,-65.9431"/>
</g>
<!-- Mu -->
<g id="node2" class="node"><title>Mu</title>
<g id="a_node2"><a xlink:href="/type/Mu" xlink:title="Mu">
<ellipse fill="none" stroke="#000000" cx="131.288" cy="-306" rx="27" ry="18"/>
<text text-anchor="middle" x="131.288" y="-302.3" font-family="FreeSans" font-size="14.00" fill="#000000">Mu</text>
</a>
</g>
</g>
<!-- Any -->
<g id="node3" class="node"><title>Any</title>
<g id="a_node3"><a xlink:href="/type/Any" xlink:title="Any">
<ellipse fill="none" stroke="#000000" cx="131.288" cy="-234" rx="27" ry="18"/>
<text text-anchor="middle" x="131.288" y="-230.3" font-family="FreeSans" font-size="14.00" fill="#000000">Any</text>
</a>
</g>
</g>
<!-- Any&#45;&gt;Mu -->
<g id="edge2" class="edge"><title>Any&#45;&gt;Mu</title>
<path fill="none" stroke="#000000" d="M131.288,-252.303C131.288,-260.017 131.288,-269.288 131.288,-277.888"/>
<polygon fill="#000000" stroke="#000000" points="127.788,-277.896 131.288,-287.896 134.788,-277.896 127.788,-277.896"/>
</g>
<!-- Exception&#45;&gt;Any -->
<g id="edge3" class="edge"><title>Exception&#45;&gt;Any</title>
<path fill="none" stroke="#000000" d="M131.288,-180.303C131.288,-188.017 131.288,-197.288 131.288,-205.888"/>
<polygon fill="#000000" stroke="#000000" points="127.788,-205.896 131.288,-215.896 134.788,-205.896 127.788,-205.896"/>
</g>
<!-- X::Proc::Async&#45;&gt;Exception -->
<g id="edge4" class="edge"><title>X::Proc::Async&#45;&gt;Exception</title>
<path fill="none" stroke="#000000" d="M167.669,-107.945C161.95,-116.285 154.939,-126.509 148.604,-135.748"/>
<polygon fill="#000000" stroke="#000000" points="145.57,-133.984 142.801,-144.211 151.343,-137.943 145.57,-133.984"/>
</g>
</g>
</svg>
