<?xml version="1.0" encoding="UTF-8" standalone="no"?>
<!DOCTYPE svg PUBLIC "-//W3C//DTD SVG 1.1//EN"
 "http://www.w3.org/Graphics/SVG/1.1/DTD/svg11.dtd">
<!-- Generated by graphviz version 2.38.0 (20140413.2041)
 -->
<!-- Title: perl6&#45;type&#45;graph Pages: 1 -->
<svg width="1453pt" height="332pt"
 viewBox="0.00 0.00 1453.09 332.00" xmlns="http://www.w3.org/2000/svg" xmlns:xlink="http://www.w3.org/1999/xlink">
<g id="graph0" class="graph" transform="scale(1 1) rotate(0) translate(4 328)">
<title>perl6&#45;type&#45;graph</title>
<polygon fill="white" stroke="none" points="-4,4 -4,-328 1449.09,-328 1449.09,4 -4,4"/>
<!-- Cool -->
<g id="node1" class="node"><title>Cool</title>
<g id="a_node1"><a xlink:href="/type/Cool" xlink:title="Cool">
<ellipse fill="none" stroke="#000000" cx="686.746" cy="-162" rx="28.6953" ry="18"/>
<text text-anchor="middle" x="686.746" y="-158.3" font-family="FreeSans" font-size="14.00" fill="#000000">Cool</text>
</a>
</g>
</g>
<!-- Any -->
<g id="node3" class="node"><title>Any</title>
<g id="a_node3"><a xlink:href="/type/Any" xlink:title="Any">
<ellipse fill="none" stroke="#000000" cx="662.746" cy="-234" rx="27" ry="18"/>
<text text-anchor="middle" x="662.746" y="-230.3" font-family="FreeSans" font-size="14.00" fill="#000000">Any</text>
</a>
</g>
</g>
<!-- Cool&#45;&gt;Any -->
<g id="edge1" class="edge"><title>Cool&#45;&gt;Any</title>
<path fill="none" stroke="#000000" d="M680.936,-179.945C678.194,-187.941 674.859,-197.669 671.797,-206.6"/>
<polygon fill="#000000" stroke="#000000" points="668.434,-205.616 668.502,-216.211 675.056,-207.887 668.434,-205.616"/>
</g>
<!-- Mu -->
<g id="node2" class="node"><title>Mu</title>
<g id="a_node2"><a xlink:href="/type/Mu" xlink:title="Mu">
<ellipse fill="none" stroke="#000000" cx="662.746" cy="-306" rx="27" ry="18"/>
<text text-anchor="middle" x="662.746" y="-302.3" font-family="FreeSans" font-size="14.00" fill="#000000">Mu</text>
</a>
</g>
</g>
<!-- Any&#45;&gt;Mu -->
<g id="edge2" class="edge"><title>Any&#45;&gt;Mu</title>
<path fill="none" stroke="#000000" d="M662.746,-252.303C662.746,-260.017 662.746,-269.288 662.746,-277.888"/>
<polygon fill="#000000" stroke="#000000" points="659.246,-277.896 662.746,-287.896 666.246,-277.896 659.246,-277.896"/>
</g>
<!-- Numeric -->
<g id="node4" class="node"><title>Numeric</title>
<g id="a_node4"><a xlink:href="/type/Numeric" xlink:title="Numeric">
<ellipse fill="none" stroke="#6666ff" cx="791.746" cy="-234" rx="44.393" ry="18"/>
<text text-anchor="middle" x="791.746" y="-230.3" font-family="FreeSans" font-size="14.00" fill="#6666ff">Numeric</text>
</a>
</g>
</g>
<!-- Real -->
<g id="node5" class="node"><title>Real</title>
<g id="a_node5"><a xlink:href="/type/Real" xlink:title="Real">
<ellipse fill="none" stroke="#6666ff" cx="988.746" cy="-162" rx="28.6953" ry="18"/>
<text text-anchor="middle" x="988.746" y="-158.3" font-family="FreeSans" font-size="14.00" fill="#6666ff">Real</text>
</a>
</g>
</g>
<!-- Real&#45;&gt;Numeric -->
<g id="edge21" class="edge"><title>Real&#45;&gt;Numeric</title>
<path fill="none" stroke="#6666ff" d="M964.194,-171.724C931.58,-183.313 873.476,-203.959 833.806,-218.055"/>
<polygon fill="#6666ff" stroke="#6666ff" points="832.395,-214.842 824.144,-221.488 834.739,-221.438 832.395,-214.842"/>
</g>
<!-- Int -->
<g id="node6" class="node"><title>Int</title>
<g id="a_node6"><a xlink:href="/type/Int" xlink:title="Int">
<ellipse fill="none" stroke="#000000" cx="1033.75" cy="-90" rx="27" ry="18"/>
<text text-anchor="middle" x="1033.75" y="-86.3" font-family="FreeSans" font-size="14.00" fill="#000000">Int</text>
</a>
</g>
</g>
<!-- Int&#45;&gt;Cool -->
<g id="edge3" class="edge"><title>Int&#45;&gt;Cool</title>
<path fill="none" stroke="#000000" d="M1012.39,-101.085C1004.64,-104.746 997.746,-108 997.746,-108 997.746,-108 806.657,-140.565 724.052,-154.642"/>
<polygon fill="#000000" stroke="#000000" points="723.342,-151.213 714.072,-156.343 724.518,-158.113 723.342,-151.213"/>
</g>
<!-- Int&#45;&gt;Real -->
<g id="edge22" class="edge"><title>Int&#45;&gt;Real</title>
<path fill="none" stroke="#6666ff" d="M1023.53,-106.884C1017.98,-115.531 1010.97,-126.425 1004.71,-136.167"/>
<polygon fill="#6666ff" stroke="#6666ff" points="1001.69,-134.389 999.229,-144.693 1007.58,-138.174 1001.69,-134.389"/>
</g>
<!-- Nil -->
<g id="node7" class="node"><title>Nil</title>
<g id="a_node7"><a xlink:href="/type/Nil" xlink:title="Nil">
<ellipse fill="none" stroke="#000000" cx="631.746" cy="-90" rx="27" ry="18"/>
<text text-anchor="middle" x="631.746" y="-86.3" font-family="FreeSans" font-size="14.00" fill="#000000">Nil</text>
</a>
</g>
</g>
<!-- Nil&#45;&gt;Cool -->
<g id="edge4" class="edge"><title>Nil&#45;&gt;Cool</title>
<path fill="none" stroke="#000000" d="M643.68,-106.189C650.86,-115.327 660.15,-127.151 668.263,-137.476"/>
<polygon fill="#000000" stroke="#000000" points="665.524,-139.655 674.454,-145.356 671.028,-135.33 665.524,-139.655"/>
</g>
<!-- Rational -->
<g id="node8" class="node"><title>Rational</title>
<g id="a_node8"><a xlink:href="/type/Rational" xlink:title="Rational">
<ellipse fill="none" stroke="#6666ff" cx="1213.75" cy="-90" rx="42.7926" ry="18"/>
<text text-anchor="middle" x="1213.75" y="-86.3" font-family="FreeSans" font-size="14.00" fill="#6666ff">Rational</text>
</a>
</g>
</g>
<!-- Rational&#45;&gt;Real -->
<g id="edge23" class="edge"><title>Rational&#45;&gt;Real</title>
<path fill="none" stroke="#6666ff" d="M1180.81,-101.766C1170.49,-105.14 1161.75,-108 1161.75,-108 1161.75,-108 1073.98,-134.889 1023.47,-150.362"/>
<polygon fill="#6666ff" stroke="#6666ff" points="1022.44,-147.018 1013.9,-153.293 1024.49,-153.711 1022.44,-147.018"/>
</g>
<!-- Rat -->
<g id="node9" class="node"><title>Rat</title>
<g id="a_node9"><a xlink:href="/type/Rat" xlink:title="Rat">
<ellipse fill="none" stroke="#000000" cx="788.746" cy="-18" rx="27" ry="18"/>
<text text-anchor="middle" x="788.746" y="-14.3" font-family="FreeSans" font-size="14.00" fill="#000000">Rat</text>
</a>
</g>
</g>
<!-- Rat&#45;&gt;Cool -->
<g id="edge5" class="edge"><title>Rat&#45;&gt;Cool</title>
<path fill="none" stroke="#000000" d="M762.859,-23.2476C686.213,-35.8243 465.746,-72 465.746,-72 465.746,-72 465.746,-108 465.746,-108 465.746,-108 648.746,-144 648.746,-144 648.746,-144 651.177,-145.088 654.809,-146.712"/>
<polygon fill="#000000" stroke="#000000" points="653.644,-150.026 664.202,-150.915 656.503,-143.636 653.644,-150.026"/>
</g>
<!-- Rat&#45;&gt;Rational -->
<g id="edge24" class="edge"><title>Rat&#45;&gt;Rational</title>
<path fill="none" stroke="#6666ff" d="M814.841,-22.8576C848.771,-27.8733 903.746,-36 903.746,-36 903.746,-36 1161.75,-72 1161.75,-72 1161.75,-72 1165.51,-73.2316 1171.02,-75.0319"/>
<polygon fill="#6666ff" stroke="#6666ff" points="1170.22,-78.4529 1180.81,-78.2336 1172.4,-71.7995 1170.22,-78.4529"/>
</g>
<!-- Complex -->
<g id="node10" class="node"><title>Complex</title>
<g id="a_node10"><a xlink:href="/type/Complex" xlink:title="Complex">
<ellipse fill="none" stroke="#000000" cx="759.746" cy="-90" rx="45.4919" ry="18"/>
<text text-anchor="middle" x="759.746" y="-86.3" font-family="FreeSans" font-size="14.00" fill="#000000">Complex</text>
</a>
</g>
</g>
<!-- Complex&#45;&gt;Cool -->
<g id="edge6" class="edge"><title>Complex&#45;&gt;Cool</title>
<path fill="none" stroke="#000000" d="M743.181,-106.884C733.064,-116.585 719.999,-129.113 708.988,-139.671"/>
<polygon fill="#000000" stroke="#000000" points="706.551,-137.16 701.755,-146.607 711.395,-142.212 706.551,-137.16"/>
</g>
<!-- Complex&#45;&gt;Numeric -->
<g id="edge25" class="edge"><title>Complex&#45;&gt;Numeric</title>
<path fill="none" stroke="#6666ff" d="M763.606,-108.129C769.083,-132.436 779.167,-177.181 785.658,-205.987"/>
<polygon fill="#6666ff" stroke="#6666ff" points="782.259,-206.825 787.872,-215.811 789.088,-205.286 782.259,-206.825"/>
</g>
<!-- Iterable -->
<g id="node11" class="node"><title>Iterable</title>
<g id="a_node11"><a xlink:href="/type/Iterable" xlink:title="Iterable">
<ellipse fill="none" stroke="#6666ff" cx="155.746" cy="-162" rx="40.0939" ry="18"/>
<text text-anchor="middle" x="155.746" y="-158.3" font-family="FreeSans" font-size="14.00" fill="#6666ff">Iterable</text>
</a>
</g>
</g>
<!-- PositionalBindFailover -->
<g id="node12" class="node"><title>PositionalBindFailover</title>
<g id="a_node12"><a xlink:href="/type/PositionalBindFailover" xlink:title="PositionalBindFailover">
<ellipse fill="none" stroke="#6666ff" cx="311.746" cy="-162" rx="97.4827" ry="18"/>
<text text-anchor="middle" x="311.746" y="-158.3" font-family="FreeSans" font-size="14.00" fill="#6666ff">PositionalBindFailover</text>
</a>
</g>
</g>
<!-- Seq -->
<g id="node13" class="node"><title>Seq</title>
<g id="a_node13"><a xlink:href="/type/Seq" xlink:title="Seq">
<ellipse fill="none" stroke="#000000" cx="227.746" cy="-90" rx="27" ry="18"/>
<text text-anchor="middle" x="227.746" y="-86.3" font-family="FreeSans" font-size="14.00" fill="#000000">Seq</text>
</a>
</g>
</g>
<!-- Seq&#45;&gt;Cool -->
<g id="edge7" class="edge"><title>Seq&#45;&gt;Cool</title>
<path fill="none" stroke="#000000" d="M249.103,-101.085C256.855,-104.746 263.746,-108 263.746,-108 263.746,-108 648.746,-144 648.746,-144 648.746,-144 651.177,-145.088 654.809,-146.712"/>
<polygon fill="#000000" stroke="#000000" points="653.644,-150.026 664.202,-150.915 656.503,-143.636 653.644,-150.026"/>
</g>
<!-- Seq&#45;&gt;Iterable -->
<g id="edge26" class="edge"><title>Seq&#45;&gt;Iterable</title>
<path fill="none" stroke="#6666ff" d="M213.175,-105.166C203.427,-114.644 190.381,-127.327 179.188,-138.209"/>
<polygon fill="#6666ff" stroke="#6666ff" points="176.528,-135.914 171.797,-145.394 181.407,-140.933 176.528,-135.914"/>
</g>
<!-- Seq&#45;&gt;PositionalBindFailover -->
<g id="edge27" class="edge"><title>Seq&#45;&gt;PositionalBindFailover</title>
<path fill="none" stroke="#6666ff" d="M243.942,-104.497C255.233,-113.906 270.587,-126.701 283.829,-137.736"/>
<polygon fill="#6666ff" stroke="#6666ff" points="281.823,-140.62 291.746,-144.333 286.304,-135.243 281.823,-140.62"/>
</g>
<!-- StrDistance -->
<g id="node14" class="node"><title>StrDistance</title>
<g id="a_node14"><a xlink:href="/type/StrDistance" xlink:title="StrDistance">
<ellipse fill="none" stroke="#000000" cx="530.746" cy="-90" rx="55.7903" ry="18"/>
<text text-anchor="middle" x="530.746" y="-86.3" font-family="FreeSans" font-size="14.00" fill="#000000">StrDistance</text>
</a>
</g>
</g>
<!-- StrDistance&#45;&gt;Cool -->
<g id="edge8" class="edge"><title>StrDistance&#45;&gt;Cool</title>
<path fill="none" stroke="#000000" d="M561.94,-104.997C588.864,-117.079 627.597,-134.459 654.752,-146.644"/>
<polygon fill="#000000" stroke="#000000" points="653.633,-149.978 664.19,-150.879 656.499,-143.591 653.633,-149.978"/>
</g>
<!-- IO -->
<g id="node15" class="node"><title>IO</title>
<g id="a_node15"><a xlink:href="/type/IO" xlink:title="IO">
<ellipse fill="none" stroke="#6666ff" cx="1317.75" cy="-162" rx="27" ry="18"/>
<text text-anchor="middle" x="1317.75" y="-158.3" font-family="FreeSans" font-size="14.00" fill="#6666ff">IO</text>
</a>
</g>
</g>
<!-- IO::Path -->
<g id="node16" class="node"><title>IO::Path</title>
<g id="a_node16"><a xlink:href="/type/IO::Path" xlink:title="IO::Path">
<ellipse fill="none" stroke="#000000" cx="1317.75" cy="-90" rx="43.5923" ry="18"/>
<text text-anchor="middle" x="1317.75" y="-86.3" font-family="FreeSans" font-size="14.00" fill="#000000">IO::Path</text>
</a>
</g>
</g>
<!-- IO::Path&#45;&gt;Cool -->
<g id="edge9" class="edge"><title>IO::Path&#45;&gt;Cool</title>
<path fill="none" stroke="#000000" d="M1284.52,-101.863C1274.33,-105.194 1265.75,-108 1265.75,-108 1265.75,-108 854.743,-145.622 725.298,-157.471"/>
<polygon fill="#000000" stroke="#000000" points="724.703,-154.011 715.064,-158.408 725.341,-160.982 724.703,-154.011"/>
</g>
<!-- IO::Path&#45;&gt;IO -->
<g id="edge28" class="edge"><title>IO::Path&#45;&gt;IO</title>
<path fill="none" stroke="#6666ff" d="M1317.75,-108.303C1317.75,-116.017 1317.75,-125.288 1317.75,-133.888"/>
<polygon fill="#6666ff" stroke="#6666ff" points="1314.25,-133.896 1317.75,-143.896 1321.25,-133.896 1314.25,-133.896"/>
</g>
<!-- Positional -->
<g id="node17" class="node"><title>Positional</title>
<g id="a_node17"><a xlink:href="/type/Positional" xlink:title="Positional">
<ellipse fill="none" stroke="#6666ff" cx="48.7457" cy="-162" rx="48.9926" ry="18"/>
<text text-anchor="middle" x="48.7457" y="-158.3" font-family="FreeSans" font-size="14.00" fill="#6666ff">Positional</text>
</a>
</g>
</g>
<!-- Range -->
<g id="node18" class="node"><title>Range</title>
<g id="a_node18"><a xlink:href="/type/Range" xlink:title="Range">
<ellipse fill="none" stroke="#000000" cx="74.7457" cy="-90" rx="36.2938" ry="18"/>
<text text-anchor="middle" x="74.7457" y="-86.3" font-family="FreeSans" font-size="14.00" fill="#000000">Range</text>
</a>
</g>
</g>
<!-- Range&#45;&gt;Cool -->
<g id="edge10" class="edge"><title>Range&#45;&gt;Cool</title>
<path fill="none" stroke="#000000" d="M102.733,-101.573C111.884,-105.03 119.746,-108 119.746,-108 119.746,-108 648.746,-144 648.746,-144 648.746,-144 651.177,-145.088 654.809,-146.712"/>
<polygon fill="#000000" stroke="#000000" points="653.644,-150.026 664.202,-150.915 656.503,-143.636 653.644,-150.026"/>
</g>
<!-- Range&#45;&gt;Iterable -->
<g id="edge30" class="edge"><title>Range&#45;&gt;Iterable</title>
<path fill="none" stroke="#6666ff" d="M92.3215,-106.189C103.39,-115.755 117.865,-128.264 130.192,-138.916"/>
<polygon fill="#6666ff" stroke="#6666ff" points="128.07,-141.708 137.924,-145.599 132.647,-136.412 128.07,-141.708"/>
</g>
<!-- Range&#45;&gt;Positional -->
<g id="edge29" class="edge"><title>Range&#45;&gt;Positional</title>
<path fill="none" stroke="#6666ff" d="M68.4518,-107.945C65.5254,-115.824 61.9747,-125.383 58.6977,-134.206"/>
<polygon fill="#6666ff" stroke="#6666ff" points="55.3632,-133.132 55.1622,-143.725 61.9251,-135.569 55.3632,-133.132"/>
</g>
<!-- List -->
<g id="node19" class="node"><title>List</title>
<g id="a_node19"><a xlink:href="/type/List" xlink:title="List">
<ellipse fill="none" stroke="#000000" cx="155.746" cy="-90" rx="27" ry="18"/>
<text text-anchor="middle" x="155.746" y="-86.3" font-family="FreeSans" font-size="14.00" fill="#000000">List</text>
</a>
</g>
</g>
<!-- List&#45;&gt;Cool -->
<g id="edge11" class="edge"><title>List&#45;&gt;Cool</title>
<path fill="none" stroke="#000000" d="M177.103,-101.085C184.855,-104.746 191.746,-108 191.746,-108 191.746,-108 648.746,-144 648.746,-144 648.746,-144 651.177,-145.088 654.809,-146.712"/>
<polygon fill="#000000" stroke="#000000" points="653.644,-150.026 664.202,-150.915 656.503,-143.636 653.644,-150.026"/>
</g>
<!-- List&#45;&gt;Iterable -->
<g id="edge32" class="edge"><title>List&#45;&gt;Iterable</title>
<path fill="none" stroke="#6666ff" d="M155.746,-108.303C155.746,-116.017 155.746,-125.288 155.746,-133.888"/>
<polygon fill="#6666ff" stroke="#6666ff" points="152.246,-133.896 155.746,-143.896 159.246,-133.896 152.246,-133.896"/>
</g>
<!-- List&#45;&gt;Positional -->
<g id="edge31" class="edge"><title>List&#45;&gt;Positional</title>
<path fill="none" stroke="#6666ff" d="M137.108,-103.193C121.394,-113.473 98.5738,-128.402 80.0606,-140.514"/>
<polygon fill="#6666ff" stroke="#6666ff" points="78.0864,-137.623 71.6342,-146.026 81.9187,-143.48 78.0864,-137.623"/>
</g>
<!-- Capture -->
<g id="node20" class="node"><title>Capture</title>
<g id="a_node20"><a xlink:href="/type/Capture" xlink:title="Capture">
<ellipse fill="none" stroke="#000000" cx="597.746" cy="-162" rx="42.4939" ry="18"/>
<text text-anchor="middle" x="597.746" y="-158.3" font-family="FreeSans" font-size="14.00" fill="#000000">Capture</text>
</a>
</g>
</g>
<!-- Capture&#45;&gt;Any -->
<g id="edge12" class="edge"><title>Capture&#45;&gt;Any</title>
<path fill="none" stroke="#000000" d="M612.495,-178.884C621.211,-188.27 632.383,-200.302 641.979,-210.636"/>
<polygon fill="#000000" stroke="#000000" points="639.574,-213.19 648.943,-218.136 644.704,-208.427 639.574,-213.19"/>
</g>
<!-- Match -->
<g id="node21" class="node"><title>Match</title>
<g id="a_node21"><a xlink:href="/type/Match" xlink:title="Match">
<ellipse fill="none" stroke="#000000" cx="383.746" cy="-90" rx="35.194" ry="18"/>
<text text-anchor="middle" x="383.746" y="-86.3" font-family="FreeSans" font-size="14.00" fill="#000000">Match</text>
</a>
</g>
</g>
<!-- Match&#45;&gt;Cool -->
<g id="edge14" class="edge"><title>Match&#45;&gt;Cool</title>
<path fill="none" stroke="#000000" d="M411.965,-100.79C422.858,-104.569 432.746,-108 432.746,-108 432.746,-108 648.746,-144 648.746,-144 648.746,-144 651.177,-145.088 654.809,-146.712"/>
<polygon fill="#000000" stroke="#000000" points="653.644,-150.026 664.202,-150.915 656.503,-143.636 653.644,-150.026"/>
</g>
<!-- Match&#45;&gt;Capture -->
<g id="edge13" class="edge"><title>Match&#45;&gt;Capture</title>
<path fill="none" stroke="#000000" d="M411.965,-100.79C422.858,-104.569 432.746,-108 432.746,-108 432.746,-108 546.746,-144 546.746,-144 546.746,-144 550.441,-145.232 555.841,-147.032"/>
<polygon fill="#000000" stroke="#000000" points="554.853,-150.392 565.447,-150.234 557.067,-143.751 554.853,-150.392"/>
</g>
<!-- Instant -->
<g id="node22" class="node"><title>Instant</title>
<g id="a_node22"><a xlink:href="/type/Instant" xlink:title="Instant">
<ellipse fill="none" stroke="#000000" cx="1115.75" cy="-90" rx="37.0935" ry="18"/>
<text text-anchor="middle" x="1115.75" y="-86.3" font-family="FreeSans" font-size="14.00" fill="#000000">Instant</text>
</a>
</g>
</g>
<!-- Instant&#45;&gt;Cool -->
<g id="edge15" class="edge"><title>Instant&#45;&gt;Cool</title>
<path fill="none" stroke="#000000" d="M1087.14,-101.573C1077.78,-105.03 1069.75,-108 1069.75,-108 1069.75,-108 821.178,-142.397 724.538,-155.77"/>
<polygon fill="#000000" stroke="#000000" points="724.024,-152.308 714.599,-157.146 724.984,-159.242 724.024,-152.308"/>
</g>
<!-- Instant&#45;&gt;Real -->
<g id="edge33" class="edge"><title>Instant&#45;&gt;Real</title>
<path fill="none" stroke="#6666ff" d="M1092.16,-104.002C1071.35,-115.47 1040.93,-132.236 1018.47,-144.617"/>
<polygon fill="#6666ff" stroke="#6666ff" points="1016.75,-141.568 1009.68,-149.46 1020.13,-147.698 1016.75,-141.568"/>
</g>
<!-- Num -->
<g id="node23" class="node"><title>Num</title>
<g id="a_node23"><a xlink:href="/type/Num" xlink:title="Num">
<ellipse fill="none" stroke="#000000" cx="852.746" cy="-90" rx="29.795" ry="18"/>
<text text-anchor="middle" x="852.746" y="-86.3" font-family="FreeSans" font-size="14.00" fill="#000000">Num</text>
</a>
</g>
</g>
<!-- Num&#45;&gt;Cool -->
<g id="edge16" class="edge"><title>Num&#45;&gt;Cool</title>
<path fill="none" stroke="#000000" d="M829.16,-101.281C820.946,-104.861 813.746,-108 813.746,-108 813.746,-108 757.251,-131.576 719.622,-147.28"/>
<polygon fill="#000000" stroke="#000000" points="717.92,-144.198 710.039,-151.279 720.616,-150.658 717.92,-144.198"/>
</g>
<!-- Num&#45;&gt;Real -->
<g id="edge34" class="edge"><title>Num&#45;&gt;Real</title>
<path fill="none" stroke="#6666ff" d="M874.899,-102.403C897.458,-114.014 932.617,-132.11 957.894,-145.121"/>
<polygon fill="#6666ff" stroke="#6666ff" points="956.558,-148.369 967.052,-149.834 959.762,-142.145 956.558,-148.369"/>
</g>
<!-- Associative -->
<g id="node24" class="node"><title>Associative</title>
<g id="a_node24"><a xlink:href="/type/Associative" xlink:title="Associative">
<ellipse fill="none" stroke="#6666ff" cx="482.746" cy="-162" rx="55.4913" ry="18"/>
<text text-anchor="middle" x="482.746" y="-158.3" font-family="FreeSans" font-size="14.00" fill="#6666ff">Associative</text>
</a>
</g>
</g>
<!-- Map -->
<g id="node25" class="node"><title>Map</title>
<g id="a_node25"><a xlink:href="/type/Map" xlink:title="Map">
<ellipse fill="none" stroke="#000000" cx="301.746" cy="-90" rx="28.6953" ry="18"/>
<text text-anchor="middle" x="301.746" y="-86.3" font-family="FreeSans" font-size="14.00" fill="#000000">Map</text>
</a>
</g>
</g>
<!-- Map&#45;&gt;Cool -->
<g id="edge17" class="edge"><title>Map&#45;&gt;Cool</title>
<path fill="none" stroke="#000000" d="M324.29,-101.085C332.472,-104.746 339.746,-108 339.746,-108 339.746,-108 648.746,-144 648.746,-144 648.746,-144 651.177,-145.088 654.809,-146.712"/>
<polygon fill="#000000" stroke="#000000" points="653.644,-150.026 664.202,-150.915 656.503,-143.636 653.644,-150.026"/>
</g>
<!-- Map&#45;&gt;Iterable -->
<g id="edge35" class="edge"><title>Map&#45;&gt;Iterable</title>
<path fill="none" stroke="#6666ff" d="M279.571,-101.631C256.166,-112.853 218.922,-130.71 191.386,-143.912"/>
<polygon fill="#6666ff" stroke="#6666ff" points="189.594,-140.89 182.09,-148.369 192.62,-147.202 189.594,-140.89"/>
</g>
<!-- Map&#45;&gt;Associative -->
<g id="edge36" class="edge"><title>Map&#45;&gt;Associative</title>
<path fill="none" stroke="#6666ff" d="M324.29,-101.085C332.472,-104.746 339.746,-108 339.746,-108 339.746,-108 396.279,-128.953 438.254,-144.51"/>
<polygon fill="#6666ff" stroke="#6666ff" points="437.171,-147.841 447.764,-148.035 439.604,-141.278 437.171,-147.841"/>
</g>
<!-- FatRat -->
<g id="node26" class="node"><title>FatRat</title>
<g id="a_node26"><a xlink:href="/type/FatRat" xlink:title="FatRat">
<ellipse fill="none" stroke="#000000" cx="949.746" cy="-18" rx="37.0935" ry="18"/>
<text text-anchor="middle" x="949.746" y="-14.3" font-family="FreeSans" font-size="14.00" fill="#000000">FatRat</text>
</a>
</g>
</g>
<!-- FatRat&#45;&gt;Cool -->
<g id="edge18" class="edge"><title>FatRat&#45;&gt;Cool</title>
<path fill="none" stroke="#000000" d="M916.585,-26.203C849.871,-40.6942 705.746,-72 705.746,-72 705.746,-72 698.096,-107.833 692.504,-134.025"/>
<polygon fill="#000000" stroke="#000000" points="689.074,-133.33 690.409,-143.84 695.92,-134.791 689.074,-133.33"/>
</g>
<!-- FatRat&#45;&gt;Rational -->
<g id="edge37" class="edge"><title>FatRat&#45;&gt;Rational</title>
<path fill="none" stroke="#6666ff" d="M981.944,-27.0496C1041.25,-41.8761 1161.75,-72 1161.75,-72 1161.75,-72 1165.51,-73.2316 1171.02,-75.0319"/>
<polygon fill="#6666ff" stroke="#6666ff" points="1170.22,-78.4529 1180.81,-78.2336 1172.4,-71.7995 1170.22,-78.4529"/>
</g>
<!-- Stringy -->
<g id="node27" class="node"><title>Stringy</title>
<g id="a_node27"><a xlink:href="/type/Stringy" xlink:title="Stringy">
<ellipse fill="none" stroke="#6666ff" cx="1406.75" cy="-162" rx="38.1938" ry="18"/>
<text text-anchor="middle" x="1406.75" y="-158.3" font-family="FreeSans" font-size="14.00" fill="#6666ff">Stringy</text>
</a>
</g>
</g>
<!-- Str -->
<g id="node28" class="node"><title>Str</title>
<g id="a_node28"><a xlink:href="/type/Str" xlink:title="Str">
<ellipse fill="none" stroke="#000000" cx="1406.75" cy="-90" rx="27" ry="18"/>
<text text-anchor="middle" x="1406.75" y="-86.3" font-family="FreeSans" font-size="14.00" fill="#000000">Str</text>
</a>
</g>
</g>
<!-- Str&#45;&gt;Cool -->
<g id="edge19" class="edge"><title>Str&#45;&gt;Cool</title>
<path fill="none" stroke="#000000" d="M1385.39,-101.085C1377.64,-104.746 1370.75,-108 1370.75,-108 1370.75,-108 870.089,-146.794 725.443,-158.002"/>
<polygon fill="#000000" stroke="#000000" points="724.965,-154.528 715.265,-158.79 725.506,-161.507 724.965,-154.528"/>
</g>
<!-- Str&#45;&gt;Stringy -->
<g id="edge38" class="edge"><title>Str&#45;&gt;Stringy</title>
<path fill="none" stroke="#6666ff" d="M1406.75,-108.303C1406.75,-116.017 1406.75,-125.288 1406.75,-133.888"/>
<polygon fill="#6666ff" stroke="#6666ff" points="1403.25,-133.896 1406.75,-143.896 1410.25,-133.896 1403.25,-133.896"/>
</g>
<!-- Duration -->
<g id="node29" class="node"><title>Duration</title>
<g id="a_node29"><a xlink:href="/type/Duration" xlink:title="Duration">
<ellipse fill="none" stroke="#000000" cx="944.746" cy="-90" rx="44.393" ry="18"/>
<text text-anchor="middle" x="944.746" y="-86.3" font-family="FreeSans" font-size="14.00" fill="#000000">Duration</text>
</a>
</g>
</g>
<!-- Duration&#45;&gt;Cool -->
<g id="edge20" class="edge"><title>Duration&#45;&gt;Cool</title>
<path fill="none" stroke="#000000" d="M911.18,-101.766C900.662,-105.14 891.746,-108 891.746,-108 891.746,-108 781.507,-136.501 722.709,-151.702"/>
<polygon fill="#000000" stroke="#000000" points="721.515,-148.396 712.709,-154.288 723.267,-155.173 721.515,-148.396"/>
</g>
<!-- Duration&#45;&gt;Real -->
<g id="edge39" class="edge"><title>Duration&#45;&gt;Real</title>
<path fill="none" stroke="#6666ff" d="M955.173,-107.589C960.565,-116.168 967.254,-126.809 973.239,-136.33"/>
<polygon fill="#6666ff" stroke="#6666ff" points="970.411,-138.408 978.696,-145.012 976.337,-134.683 970.411,-138.408"/>
</g>
</g>
</svg>
