<?xml version="1.0" encoding="UTF-8" standalone="no"?>
<!DOCTYPE svg PUBLIC "-//W3C//DTD SVG 1.1//EN"
 "http://www.w3.org/Graphics/SVG/1.1/DTD/svg11.dtd">
<!-- Generated by graphviz version 2.38.0 (20140413.2041)
 -->
<!-- Title: perl6&#45;type&#45;graph Pages: 1 -->
<svg width="206pt" height="260pt"
 viewBox="0.00 0.00 205.58 260.00" xmlns="http://www.w3.org/2000/svg" xmlns:xlink="http://www.w3.org/1999/xlink">
<g id="graph0" class="graph" transform="scale(1 1) rotate(0) translate(4 256)">
<title>perl6&#45;type&#45;graph</title>
<polygon fill="white" stroke="none" points="-4,4 -4,-256 201.582,-256 201.582,4 -4,4"/>
<!-- Pod::Block::Declarator -->
<g id="node1" class="node"><title>Pod::Block::Declarator</title>
<g id="a_node1"><a xlink:href="/type/Pod::Block::Declarator" xlink:title="Pod::Block::Declarator">
<ellipse fill="none" stroke="#000000" cx="98.7912" cy="-18" rx="98.5829" ry="18"/>
<text text-anchor="middle" x="98.7912" y="-14.3" font-family="FreeSans" font-size="14.00" fill="#000000">Pod::Block::Declarator</text>
</a>
</g>
</g>
<!-- Pod::Block -->
<g id="node4" class="node"><title>Pod::Block</title>
<g id="a_node4"><a xlink:href="/type/Pod::Block" xlink:title="Pod::Block">
<ellipse fill="none" stroke="#000000" cx="98.7912" cy="-90" rx="53.0913" ry="18"/>
<text text-anchor="middle" x="98.7912" y="-86.3" font-family="FreeSans" font-size="14.00" fill="#000000">Pod::Block</text>
</a>
</g>
</g>
<!-- Pod::Block::Declarator&#45;&gt;Pod::Block -->
<g id="edge1" class="edge"><title>Pod::Block::Declarator&#45;&gt;Pod::Block</title>
<path fill="none" stroke="#000000" d="M98.7912,-36.3034C98.7912,-44.0173 98.7912,-53.2875 98.7912,-61.8876"/>
<polygon fill="#000000" stroke="#000000" points="95.2913,-61.8956 98.7912,-71.8957 102.291,-61.8957 95.2913,-61.8956"/>
</g>
<!-- Mu -->
<g id="node2" class="node"><title>Mu</title>
<g id="a_node2"><a xlink:href="/type/Mu" xlink:title="Mu">
<ellipse fill="none" stroke="#000000" cx="98.7912" cy="-234" rx="27" ry="18"/>
<text text-anchor="middle" x="98.7912" y="-230.3" font-family="FreeSans" font-size="14.00" fill="#000000">Mu</text>
</a>
</g>
</g>
<!-- Any -->
<g id="node3" class="node"><title>Any</title>
<g id="a_node3"><a xlink:href="/type/Any" xlink:title="Any">
<ellipse fill="none" stroke="#000000" cx="98.7912" cy="-162" rx="27" ry="18"/>
<text text-anchor="middle" x="98.7912" y="-158.3" font-family="FreeSans" font-size="14.00" fill="#000000">Any</text>
</a>
</g>
</g>
<!-- Any&#45;&gt;Mu -->
<g id="edge2" class="edge"><title>Any&#45;&gt;Mu</title>
<path fill="none" stroke="#000000" d="M98.7912,-180.303C98.7912,-188.017 98.7912,-197.288 98.7912,-205.888"/>
<polygon fill="#000000" stroke="#000000" points="95.2913,-205.896 98.7912,-215.896 102.291,-205.896 95.2913,-205.896"/>
</g>
<!-- Pod::Block&#45;&gt;Any -->
<g id="edge3" class="edge"><title>Pod::Block&#45;&gt;Any</title>
<path fill="none" stroke="#000000" d="M98.7912,-108.303C98.7912,-116.017 98.7912,-125.288 98.7912,-133.888"/>
<polygon fill="#000000" stroke="#000000" points="95.2913,-133.896 98.7912,-143.896 102.291,-133.896 95.2913,-133.896"/>
</g>
</g>
</svg>
