<?xml version="1.0" encoding="UTF-8" standalone="no"?>
<!DOCTYPE svg PUBLIC "-//W3C//DTD SVG 1.1//EN"
 "http://www.w3.org/Graphics/SVG/1.1/DTD/svg11.dtd">
<!-- Generated by graphviz version 2.38.0 (20140413.2041)
 -->
<!-- Title: perl6&#45;type&#45;graph Pages: 1 -->
<svg width="621pt" height="404pt"
 viewBox="0.00 0.00 621.24 404.00" xmlns="http://www.w3.org/2000/svg" xmlns:xlink="http://www.w3.org/1999/xlink">
<g id="graph0" class="graph" transform="scale(1 1) rotate(0) translate(4 400)">
<title>perl6&#45;type&#45;graph</title>
<polygon fill="white" stroke="none" points="-4,4 -4,-400 617.237,-400 617.237,4 -4,4"/>
<!-- Iterable -->
<g id="node1" class="node"><title>Iterable</title>
<g id="a_node1"><a xlink:href="/type/Iterable" xlink:title="Iterable">
<ellipse fill="none" stroke="#6666ff" cx="155.746" cy="-234" rx="40.0939" ry="18"/>
<text text-anchor="middle" x="155.746" y="-230.3" font-family="FreeSans" font-size="14.00" fill="#6666ff">Iterable</text>
</a>
</g>
</g>
<!-- Mu -->
<g id="node2" class="node"><title>Mu</title>
<g id="a_node2"><a xlink:href="/type/Mu" xlink:title="Mu">
<ellipse fill="none" stroke="#000000" cx="242.746" cy="-378" rx="27" ry="18"/>
<text text-anchor="middle" x="242.746" y="-374.3" font-family="FreeSans" font-size="14.00" fill="#000000">Mu</text>
</a>
</g>
</g>
<!-- Any -->
<g id="node3" class="node"><title>Any</title>
<g id="a_node3"><a xlink:href="/type/Any" xlink:title="Any">
<ellipse fill="none" stroke="#000000" cx="242.746" cy="-306" rx="27" ry="18"/>
<text text-anchor="middle" x="242.746" y="-302.3" font-family="FreeSans" font-size="14.00" fill="#000000">Any</text>
</a>
</g>
</g>
<!-- Any&#45;&gt;Mu -->
<g id="edge1" class="edge"><title>Any&#45;&gt;Mu</title>
<path fill="none" stroke="#000000" d="M242.746,-324.303C242.746,-332.017 242.746,-341.288 242.746,-349.888"/>
<polygon fill="#000000" stroke="#000000" points="239.246,-349.896 242.746,-359.896 246.246,-349.896 239.246,-349.896"/>
</g>
<!-- Cool -->
<g id="node4" class="node"><title>Cool</title>
<g id="a_node4"><a xlink:href="/type/Cool" xlink:title="Cool">
<ellipse fill="none" stroke="#000000" cx="242.746" cy="-234" rx="28.6953" ry="18"/>
<text text-anchor="middle" x="242.746" y="-230.3" font-family="FreeSans" font-size="14.00" fill="#000000">Cool</text>
</a>
</g>
</g>
<!-- Cool&#45;&gt;Any -->
<g id="edge2" class="edge"><title>Cool&#45;&gt;Any</title>
<path fill="none" stroke="#000000" d="M242.746,-252.303C242.746,-260.017 242.746,-269.288 242.746,-277.888"/>
<polygon fill="#000000" stroke="#000000" points="239.246,-277.896 242.746,-287.896 246.246,-277.896 239.246,-277.896"/>
</g>
<!-- Positional -->
<g id="node5" class="node"><title>Positional</title>
<g id="a_node5"><a xlink:href="/type/Positional" xlink:title="Positional">
<ellipse fill="none" stroke="#6666ff" cx="48.7457" cy="-234" rx="48.9926" ry="18"/>
<text text-anchor="middle" x="48.7457" y="-230.3" font-family="FreeSans" font-size="14.00" fill="#6666ff">Positional</text>
</a>
</g>
</g>
<!-- Range -->
<g id="node6" class="node"><title>Range</title>
<g id="a_node6"><a xlink:href="/type/Range" xlink:title="Range">
<ellipse fill="none" stroke="#000000" cx="71.7457" cy="-162" rx="36.2938" ry="18"/>
<text text-anchor="middle" x="71.7457" y="-158.3" font-family="FreeSans" font-size="14.00" fill="#000000">Range</text>
</a>
</g>
</g>
<!-- Range&#45;&gt;Iterable -->
<g id="edge13" class="edge"><title>Range&#45;&gt;Iterable</title>
<path fill="none" stroke="#6666ff" d="M89.5599,-177.845C101.205,-187.55 116.614,-200.39 129.634,-211.24"/>
<polygon fill="#6666ff" stroke="#6666ff" points="127.454,-213.979 137.376,-217.692 131.935,-208.602 127.454,-213.979"/>
</g>
<!-- Range&#45;&gt;Cool -->
<g id="edge3" class="edge"><title>Range&#45;&gt;Cool</title>
<path fill="none" stroke="#000000" d="M99.3034,-173.982C138.26,-189.506 204.746,-216 204.746,-216 204.746,-216 207.177,-217.088 210.809,-218.712"/>
<polygon fill="#000000" stroke="#000000" points="209.644,-222.026 220.202,-222.915 212.503,-215.636 209.644,-222.026"/>
</g>
<!-- Range&#45;&gt;Positional -->
<g id="edge12" class="edge"><title>Range&#45;&gt;Positional</title>
<path fill="none" stroke="#6666ff" d="M66.178,-179.945C63.5893,-187.824 60.4482,-197.383 57.5494,-206.206"/>
<polygon fill="#6666ff" stroke="#6666ff" points="54.2183,-205.132 54.4218,-215.725 60.8686,-207.317 54.2183,-205.132"/>
</g>
<!-- Associative -->
<g id="node7" class="node"><title>Associative</title>
<g id="a_node7"><a xlink:href="/type/Associative" xlink:title="Associative">
<ellipse fill="none" stroke="#6666ff" cx="344.746" cy="-234" rx="55.4913" ry="18"/>
<text text-anchor="middle" x="344.746" y="-230.3" font-family="FreeSans" font-size="14.00" fill="#6666ff">Associative</text>
</a>
</g>
</g>
<!-- Map -->
<g id="node8" class="node"><title>Map</title>
<g id="a_node8"><a xlink:href="/type/Map" xlink:title="Map">
<ellipse fill="none" stroke="#000000" cx="245.746" cy="-162" rx="28.6953" ry="18"/>
<text text-anchor="middle" x="245.746" y="-158.3" font-family="FreeSans" font-size="14.00" fill="#000000">Map</text>
</a>
</g>
</g>
<!-- Map&#45;&gt;Iterable -->
<g id="edge14" class="edge"><title>Map&#45;&gt;Iterable</title>
<path fill="none" stroke="#6666ff" d="M228.393,-176.497C215.583,-186.46 197.893,-200.219 183.177,-211.665"/>
<polygon fill="#6666ff" stroke="#6666ff" points="180.66,-209.188 174.915,-218.091 184.957,-214.714 180.66,-209.188"/>
</g>
<!-- Map&#45;&gt;Cool -->
<g id="edge4" class="edge"><title>Map&#45;&gt;Cool</title>
<path fill="none" stroke="#000000" d="M245.004,-180.303C244.674,-188.017 244.276,-197.288 243.908,-205.888"/>
<polygon fill="#000000" stroke="#000000" points="240.41,-205.755 243.479,-215.896 247.404,-206.055 240.41,-205.755"/>
</g>
<!-- Map&#45;&gt;Associative -->
<g id="edge15" class="edge"><title>Map&#45;&gt;Associative</title>
<path fill="none" stroke="#6666ff" d="M264.367,-176.166C278.485,-186.149 298.184,-200.077 314.546,-211.647"/>
<polygon fill="#6666ff" stroke="#6666ff" points="312.566,-214.533 322.751,-217.448 316.607,-208.817 312.566,-214.533"/>
</g>
<!-- List -->
<g id="node9" class="node"><title>List</title>
<g id="a_node9"><a xlink:href="/type/List" xlink:title="List">
<ellipse fill="none" stroke="#000000" cx="152.746" cy="-162" rx="27" ry="18"/>
<text text-anchor="middle" x="152.746" y="-158.3" font-family="FreeSans" font-size="14.00" fill="#000000">List</text>
</a>
</g>
</g>
<!-- List&#45;&gt;Iterable -->
<g id="edge17" class="edge"><title>List&#45;&gt;Iterable</title>
<path fill="none" stroke="#6666ff" d="M153.487,-180.303C153.818,-188.017 154.215,-197.288 154.584,-205.888"/>
<polygon fill="#6666ff" stroke="#6666ff" points="151.088,-206.055 155.013,-215.896 158.081,-205.755 151.088,-206.055"/>
</g>
<!-- List&#45;&gt;Cool -->
<g id="edge5" class="edge"><title>List&#45;&gt;Cool</title>
<path fill="none" stroke="#000000" d="M169.674,-176.166C183.079,-186.592 202.016,-201.322 217.254,-213.173"/>
<polygon fill="#000000" stroke="#000000" points="215.237,-216.038 225.279,-219.415 219.535,-210.513 215.237,-216.038"/>
</g>
<!-- List&#45;&gt;Positional -->
<g id="edge16" class="edge"><title>List&#45;&gt;Positional</title>
<path fill="none" stroke="#6666ff" d="M134.153,-175.515C118.989,-185.721 97.2535,-200.35 79.5047,-212.297"/>
<polygon fill="#6666ff" stroke="#6666ff" points="77.4997,-209.427 71.1581,-217.915 81.4083,-215.234 77.4997,-209.427"/>
</g>
<!-- PositionalBindFailover -->
<g id="node10" class="node"><title>PositionalBindFailover</title>
<g id="a_node10"><a xlink:href="/type/PositionalBindFailover" xlink:title="PositionalBindFailover">
<ellipse fill="none" stroke="#6666ff" cx="515.746" cy="-234" rx="97.4827" ry="18"/>
<text text-anchor="middle" x="515.746" y="-230.3" font-family="FreeSans" font-size="14.00" fill="#6666ff">PositionalBindFailover</text>
</a>
</g>
</g>
<!-- Seq -->
<g id="node11" class="node"><title>Seq</title>
<g id="a_node11"><a xlink:href="/type/Seq" xlink:title="Seq">
<ellipse fill="none" stroke="#000000" cx="319.746" cy="-162" rx="27" ry="18"/>
<text text-anchor="middle" x="319.746" y="-158.3" font-family="FreeSans" font-size="14.00" fill="#000000">Seq</text>
</a>
</g>
</g>
<!-- Seq&#45;&gt;Iterable -->
<g id="edge18" class="edge"><title>Seq&#45;&gt;Iterable</title>
<path fill="none" stroke="#6666ff" d="M298.388,-173.085C290.636,-176.746 283.746,-180 283.746,-180 283.746,-180 231.449,-201.654 193.711,-217.28"/>
<polygon fill="#6666ff" stroke="#6666ff" points="192.372,-214.046 184.471,-221.106 195.05,-220.514 192.372,-214.046"/>
</g>
<!-- Seq&#45;&gt;Cool -->
<g id="edge6" class="edge"><title>Seq&#45;&gt;Cool</title>
<path fill="none" stroke="#000000" d="M304.164,-177.166C293.205,-187.128 278.351,-200.631 265.997,-211.863"/>
<polygon fill="#000000" stroke="#000000" points="263.35,-209.539 258.305,-218.856 268.058,-214.719 263.35,-209.539"/>
</g>
<!-- Seq&#45;&gt;PositionalBindFailover -->
<g id="edge19" class="edge"><title>Seq&#45;&gt;PositionalBindFailover</title>
<path fill="none" stroke="#6666ff" d="M342.999,-171.305C372.446,-181.821 424.059,-200.255 463.222,-214.242"/>
<polygon fill="#6666ff" stroke="#6666ff" points="462.295,-217.627 472.89,-217.694 464.65,-211.035 462.295,-217.627"/>
</g>
<!-- PseudoStash -->
<g id="node12" class="node"><title>PseudoStash</title>
<g id="a_node12"><a xlink:href="/type/PseudoStash" xlink:title="PseudoStash">
<ellipse fill="none" stroke="#000000" cx="255.746" cy="-90" rx="63.0888" ry="18"/>
<text text-anchor="middle" x="255.746" y="-86.3" font-family="FreeSans" font-size="14.00" fill="#000000">PseudoStash</text>
</a>
</g>
</g>
<!-- PseudoStash&#45;&gt;Map -->
<g id="edge7" class="edge"><title>PseudoStash&#45;&gt;Map</title>
<path fill="none" stroke="#000000" d="M253.274,-108.303C252.172,-116.017 250.847,-125.288 249.619,-133.888"/>
<polygon fill="#000000" stroke="#000000" points="246.139,-133.501 248.189,-143.896 253.068,-134.491 246.139,-133.501"/>
</g>
<!-- Hash -->
<g id="node13" class="node"><title>Hash</title>
<g id="a_node13"><a xlink:href="/type/Hash" xlink:title="Hash">
<ellipse fill="none" stroke="#000000" cx="367.746" cy="-90" rx="31.3957" ry="18"/>
<text text-anchor="middle" x="367.746" y="-86.3" font-family="FreeSans" font-size="14.00" fill="#000000">Hash</text>
</a>
</g>
</g>
<!-- Hash&#45;&gt;Map -->
<g id="edge8" class="edge"><title>Hash&#45;&gt;Map</title>
<path fill="none" stroke="#000000" d="M346.495,-103.193C326.782,-114.504 297.26,-131.443 275.263,-144.064"/>
<polygon fill="#000000" stroke="#000000" points="273.278,-141.167 266.346,-149.18 276.762,-147.239 273.278,-141.167"/>
</g>
<!-- Array -->
<g id="node14" class="node"><title>Array</title>
<g id="a_node14"><a xlink:href="/type/Array" xlink:title="Array">
<ellipse fill="none" stroke="#000000" cx="70.7457" cy="-90" rx="31.6951" ry="18"/>
<text text-anchor="middle" x="70.7457" y="-86.3" font-family="FreeSans" font-size="14.00" fill="#000000">Array</text>
</a>
</g>
</g>
<!-- Array&#45;&gt;List -->
<g id="edge9" class="edge"><title>Array&#45;&gt;List</title>
<path fill="none" stroke="#000000" d="M87.7361,-105.504C99.6236,-115.652 115.669,-129.349 128.844,-140.596"/>
<polygon fill="#000000" stroke="#000000" points="126.736,-143.398 136.614,-147.229 131.281,-138.074 126.736,-143.398"/>
</g>
<!-- Slip -->
<g id="node15" class="node"><title>Slip</title>
<g id="a_node15"><a xlink:href="/type/Slip" xlink:title="Slip">
<ellipse fill="none" stroke="#000000" cx="147.746" cy="-90" rx="27" ry="18"/>
<text text-anchor="middle" x="147.746" y="-86.3" font-family="FreeSans" font-size="14.00" fill="#000000">Slip</text>
</a>
</g>
</g>
<!-- Slip&#45;&gt;List -->
<g id="edge10" class="edge"><title>Slip&#45;&gt;List</title>
<path fill="none" stroke="#000000" d="M148.982,-108.303C149.533,-116.017 150.195,-125.288 150.809,-133.888"/>
<polygon fill="#000000" stroke="#000000" points="147.32,-134.17 151.524,-143.896 154.302,-133.672 147.32,-134.17"/>
</g>
<!-- Stash -->
<g id="node16" class="node"><title>Stash</title>
<g id="a_node16"><a xlink:href="/type/Stash" xlink:title="Stash">
<ellipse fill="none" stroke="#000000" cx="367.746" cy="-18" rx="33.2948" ry="18"/>
<text text-anchor="middle" x="367.746" y="-14.3" font-family="FreeSans" font-size="14.00" fill="#000000">Stash</text>
</a>
</g>
</g>
<!-- Stash&#45;&gt;Hash -->
<g id="edge11" class="edge"><title>Stash&#45;&gt;Hash</title>
<path fill="none" stroke="#000000" d="M367.746,-36.3034C367.746,-44.0173 367.746,-53.2875 367.746,-61.8876"/>
<polygon fill="#000000" stroke="#000000" points="364.246,-61.8956 367.746,-71.8957 371.246,-61.8957 364.246,-61.8956"/>
</g>
</g>
</svg>
