<?xml version="1.0" encoding="UTF-8" standalone="no"?>
<!DOCTYPE svg PUBLIC "-//W3C//DTD SVG 1.1//EN"
 "http://www.w3.org/Graphics/SVG/1.1/DTD/svg11.dtd">
<!-- Generated by graphviz version 2.38.0 (20140413.2041)
 -->
<!-- Title: perl6&#45;type&#45;graph Pages: 1 -->
<svg width="2243pt" height="1397pt"
 viewBox="0.00 0.00 2243.07 1396.62" xmlns="http://www.w3.org/2000/svg" xmlns:xlink="http://www.w3.org/1999/xlink">
<g id="graph0" class="graph" transform="scale(1 1) rotate(0) translate(1162.04 662.763)">
<title>perl6&#45;type&#45;graph</title>
<polygon fill="white" stroke="none" points="-1162.04,733.856 -1162.04,-662.763 1081.03,-662.763 1081.03,733.856 -1162.04,733.856"/>
<!-- Metamodel::Stashing -->
<g id="node1" class="node"><title>Metamodel::Stashing</title>
<g id="a_node1"><a xlink:href="/type/Metamodel::Stashing" xlink:title="Metamodel::Stashing">
<ellipse fill="none" stroke="#6666ff" cx="-47.9162" cy="382.906" rx="93.6835" ry="18"/>
<text text-anchor="middle" x="-47.9162" y="386.606" font-family="FreeSans" font-size="14.00" fill="#6666ff">Metamodel::Stashing</text>
</a>
</g>
</g>
<!-- Mu -->
<g id="node2" class="node"><title>Mu</title>
<g id="a_node2"><a xlink:href="/type/Mu" xlink:title="Mu">
<ellipse fill="none" stroke="#000000" cx="963.746" cy="207.466" rx="27" ry="18"/>
<text text-anchor="middle" x="963.746" y="211.166" font-family="FreeSans" font-size="14.00" fill="#000000">Mu</text>
</a>
</g>
</g>
<!-- Any -->
<g id="node3" class="node"><title>Any</title>
<g id="a_node3"><a xlink:href="/type/Any" xlink:title="Any">
<ellipse fill="none" stroke="#000000" cx="231.819" cy="381.571" rx="27" ry="18"/>
<text text-anchor="middle" x="231.819" y="385.271" font-family="FreeSans" font-size="14.00" fill="#000000">Any</text>
</a>
</g>
</g>
<!-- Any&#45;&gt;Mu -->
<g id="edge1" class="edge"><title>Any&#45;&gt;Mu</title>
<path fill="none" stroke="#000000" d="M256.04,373.495C299.141,359.125 384.676,330.606 384.676,330.606 384.676,330.606 433.676,316.728 433.676,316.728 433.676,316.728 808.436,239.479 927.735,214.889"/>
<polygon fill="#000000" stroke="#000000" points="927.32,211.401 937.821,212.81 928.734,218.257 927.32,211.401"/>
</g>
<!-- Metamodel::Naming -->
<g id="node4" class="node"><title>Metamodel::Naming</title>
<g id="a_node4"><a xlink:href="/type/Metamodel::Naming" xlink:title="Metamodel::Naming">
<ellipse fill="none" stroke="#6666ff" cx="67.139" cy="126.532" rx="90.1842" ry="18"/>
<text text-anchor="middle" x="67.139" y="130.232" font-family="FreeSans" font-size="14.00" fill="#6666ff">Metamodel::Naming</text>
</a>
</g>
</g>
<!-- Metamodel::Documenting -->
<g id="node5" class="node"><title>Metamodel::Documenting</title>
<g id="a_node5"><a xlink:href="/type/Metamodel::Documenting" xlink:title="Metamodel::Documenting">
<ellipse fill="none" stroke="#6666ff" cx="-339.746" cy="351.129" rx="111.28" ry="18"/>
<text text-anchor="middle" x="-339.746" y="354.829" font-family="FreeSans" font-size="14.00" fill="#6666ff">Metamodel::Documenting</text>
</a>
</g>
</g>
<!-- Metamodel::Versioning -->
<g id="node6" class="node"><title>Metamodel::Versioning</title>
<g id="a_node6"><a xlink:href="/type/Metamodel::Versioning" xlink:title="Metamodel::Versioning">
<ellipse fill="none" stroke="#6666ff" cx="-169.47" cy="140.684" rx="100.983" ry="18"/>
<text text-anchor="middle" x="-169.47" y="144.384" font-family="FreeSans" font-size="14.00" fill="#6666ff">Metamodel::Versioning</text>
</a>
</g>
</g>
<!-- Metamodel::TypePretense -->
<g id="node7" class="node"><title>Metamodel::TypePretense</title>
<g id="a_node7"><a xlink:href="/type/Metamodel::TypePretense" xlink:title="Metamodel::TypePretense">
<ellipse fill="none" stroke="#6666ff" cx="465.124" cy="701.896" rx="114.28" ry="18"/>
<text text-anchor="middle" x="465.124" y="705.596" font-family="FreeSans" font-size="14.00" fill="#6666ff">Metamodel::TypePretense</text>
</a>
</g>
</g>
<!-- Metamodel::MethodDelegation -->
<g id="node8" class="node"><title>Metamodel::MethodDelegation</title>
<g id="a_node8"><a xlink:href="/type/Metamodel::MethodDelegation" xlink:title="Metamodel::MethodDelegation">
<ellipse fill="none" stroke="#6666ff" cx="-201.706" cy="704.75" rx="131.077" ry="18"/>
<text text-anchor="middle" x="-201.706" y="708.45" font-family="FreeSans" font-size="14.00" fill="#6666ff">Metamodel::MethodDelegation</text>
</a>
</g>
</g>
<!-- Metamodel::ModuleHOW -->
<g id="node9" class="node"><title>Metamodel::ModuleHOW</title>
<g id="a_node9"><a xlink:href="/type/Metamodel::ModuleHOW" xlink:title="Metamodel::ModuleHOW">
<ellipse fill="none" stroke="#000000" cx="-546.098" cy="689.016" rx="111.28" ry="18"/>
<text text-anchor="middle" x="-546.098" y="692.716" font-family="FreeSans" font-size="14.00" fill="#000000">Metamodel::ModuleHOW</text>
</a>
</g>
</g>
<!-- Metamodel::ModuleHOW&#45;&gt;Metamodel::Stashing -->
<g id="edge12" class="edge"><title>Metamodel::ModuleHOW&#45;&gt;Metamodel::Stashing</title>
<path fill="none" stroke="#6666ff" d="M-517.525,671.459C-432.301,619.093 -179.92,464.016 -84.7718,405.552"/>
<polygon fill="#6666ff" stroke="#6666ff" points="-86.4182,402.456 -76.0657,400.203 -82.7535,408.42 -86.4182,402.456"/>
</g>
<!-- Metamodel::ModuleHOW&#45;&gt;Any -->
<g id="edge2" class="edge"><title>Metamodel::ModuleHOW&#45;&gt;Any</title>
<path fill="none" stroke="#000000" d="M-503.722,672.268C-364.807,617.367 74.98,443.556 198.983,394.548"/>
<polygon fill="#000000" stroke="#000000" points="197.764,391.267 208.351,390.846 200.337,397.777 197.764,391.267"/>
</g>
<!-- Metamodel::ModuleHOW&#45;&gt;Metamodel::Naming -->
<g id="edge9" class="edge"><title>Metamodel::ModuleHOW&#45;&gt;Metamodel::Naming</title>
<path fill="none" stroke="#6666ff" d="M-526.733,671.253C-437.245,589.171 -63.7162,246.557 40.2051,151.236"/>
<polygon fill="#6666ff" stroke="#6666ff" points="38.0332,148.479 47.7685,144.299 42.7649,153.638 38.0332,148.479"/>
</g>
<!-- Metamodel::ModuleHOW&#45;&gt;Metamodel::Documenting -->
<g id="edge10" class="edge"><title>Metamodel::ModuleHOW&#45;&gt;Metamodel::Documenting</title>
<path fill="none" stroke="#6666ff" d="M-535.004,670.85C-500.784,614.817 -396.744,444.46 -356.183,378.044"/>
<polygon fill="#6666ff" stroke="#6666ff" points="-359.094,376.095 -350.895,369.385 -353.12,379.744 -359.094,376.095"/>
</g>
<!-- Metamodel::ModuleHOW&#45;&gt;Metamodel::Versioning -->
<g id="edge11" class="edge"><title>Metamodel::ModuleHOW&#45;&gt;Metamodel::Versioning</title>
<path fill="none" stroke="#6666ff" d="M-528.943,670.842C-462.665,600.628 -227.009,350.98 -227.009,350.98 -227.009,350.98 -192.858,226.163 -177.176,168.85"/>
<polygon fill="#6666ff" stroke="#6666ff" points="-180.49,167.701 -174.475,158.979 -173.739,169.548 -180.49,167.701"/>
</g>
<!-- Metamodel::ModuleHOW&#45;&gt;Metamodel::TypePretense -->
<g id="edge13" class="edge"><title>Metamodel::ModuleHOW&#45;&gt;Metamodel::TypePretense</title>
<path fill="none" stroke="#6666ff" d="M-434.921,687.766C-334.448,686.637 -202.205,685.15 -202.205,685.15 -202.205,685.15 115.054,692.257 115.054,692.257 115.054,692.257 241.278,695.732 342.137,698.509"/>
<polygon fill="#6666ff" stroke="#6666ff" points="342.533,695.019 352.433,698.793 342.34,702.016 342.533,695.019"/>
</g>
<!-- Metamodel::ModuleHOW&#45;&gt;Metamodel::MethodDelegation -->
<g id="edge14" class="edge"><title>Metamodel::ModuleHOW&#45;&gt;Metamodel::MethodDelegation</title>
<path fill="none" stroke="#6666ff" d="M-439.018,693.908C-406.58,695.39 -370.526,697.037 -336.516,698.591"/>
<polygon fill="#6666ff" stroke="#6666ff" points="-336.339,695.095 -326.509,699.048 -336.659,702.088 -336.339,695.095"/>
</g>
<!-- Metamodel::MethodContainer -->
<g id="node10" class="node"><title>Metamodel::MethodContainer</title>
<g id="a_node10"><a xlink:href="/type/Metamodel::MethodContainer" xlink:title="Metamodel::MethodContainer">
<ellipse fill="none" stroke="#6666ff" cx="932.388" cy="-174.338" rx="127.277" ry="18"/>
<text text-anchor="middle" x="932.388" y="-170.638" font-family="FreeSans" font-size="14.00" fill="#6666ff">Metamodel::MethodContainer</text>
</a>
</g>
</g>
<!-- Metamodel::PrivateMethodContainer -->
<g id="node11" class="node"><title>Metamodel::PrivateMethodContainer</title>
<g id="a_node11"><a xlink:href="/type/Metamodel::PrivateMethodContainer" xlink:title="Metamodel::PrivateMethodContainer">
<ellipse fill="none" stroke="#6666ff" cx="-387.521" cy="15.7622" rx="154.873" ry="18"/>
<text text-anchor="middle" x="-387.521" y="19.4622" font-family="FreeSans" font-size="14.00" fill="#6666ff">Metamodel::PrivateMethodContainer</text>
</a>
</g>
</g>
<!-- Metamodel::MultiMethodContainer -->
<g id="node12" class="node"><title>Metamodel::MultiMethodContainer</title>
<g id="a_node12"><a xlink:href="/type/Metamodel::MultiMethodContainer" xlink:title="Metamodel::MultiMethodContainer">
<ellipse fill="none" stroke="#6666ff" cx="55.9112" cy="-311.937" rx="146.474" ry="18"/>
<text text-anchor="middle" x="55.9112" y="-308.237" font-family="FreeSans" font-size="14.00" fill="#6666ff">Metamodel::MultiMethodContainer</text>
</a>
</g>
</g>
<!-- Metamodel::AttributeContainer -->
<g id="node13" class="node"><title>Metamodel::AttributeContainer</title>
<g id="a_node13"><a xlink:href="/type/Metamodel::AttributeContainer" xlink:title="Metamodel::AttributeContainer">
<ellipse fill="none" stroke="#6666ff" cx="947.04" cy="-593.263" rx="129.977" ry="18"/>
<text text-anchor="middle" x="947.04" y="-589.563" font-family="FreeSans" font-size="14.00" fill="#6666ff">Metamodel::AttributeContainer</text>
</a>
</g>
</g>
<!-- Metamodel::RoleContainer -->
<g id="node14" class="node"><title>Metamodel::RoleContainer</title>
<g id="a_node14"><a xlink:href="/type/Metamodel::RoleContainer" xlink:title="Metamodel::RoleContainer">
<ellipse fill="none" stroke="#6666ff" cx="452.887" cy="-278.707" rx="115.88" ry="18"/>
<text text-anchor="middle" x="452.887" y="-275.007" font-family="FreeSans" font-size="14.00" fill="#6666ff">Metamodel::RoleContainer</text>
</a>
</g>
</g>
<!-- Metamodel::MultipleInheritance -->
<g id="node15" class="node"><title>Metamodel::MultipleInheritance</title>
<g id="a_node15"><a xlink:href="/type/Metamodel::MultipleInheritance" xlink:title="Metamodel::MultipleInheritance">
<ellipse fill="none" stroke="#6666ff" cx="208.905" cy="-106.106" rx="133.776" ry="18"/>
<text text-anchor="middle" x="208.905" y="-102.406" font-family="FreeSans" font-size="14.00" fill="#6666ff">Metamodel::MultipleInheritance</text>
</a>
</g>
</g>
<!-- Metamodel::RolePunning -->
<g id="node16" class="node"><title>Metamodel::RolePunning</title>
<g id="a_node16"><a xlink:href="/type/Metamodel::RolePunning" xlink:title="Metamodel::RolePunning">
<ellipse fill="none" stroke="#6666ff" cx="929.159" cy="658.031" rx="109.681" ry="18"/>
<text text-anchor="middle" x="929.159" y="661.731" font-family="FreeSans" font-size="14.00" fill="#6666ff">Metamodel::RolePunning</text>
</a>
</g>
</g>
<!-- Metamodel::ParametricRoleHOW -->
<g id="node17" class="node"><title>Metamodel::ParametricRoleHOW</title>
<g id="a_node17"><a xlink:href="/type/Metamodel::ParametricRoleHOW" xlink:title="Metamodel::ParametricRoleHOW">
<ellipse fill="none" stroke="#000000" cx="310.34" cy="123.711" rx="142.175" ry="18"/>
<text text-anchor="middle" x="310.34" y="127.411" font-family="FreeSans" font-size="14.00" fill="#000000">Metamodel::ParametricRoleHOW</text>
</a>
</g>
</g>
<!-- Metamodel::ParametricRoleHOW&#45;&gt;Metamodel::Stashing -->
<g id="edge24" class="edge"><title>Metamodel::ParametricRoleHOW&#45;&gt;Metamodel::Stashing</title>
<path fill="none" stroke="#6666ff" d="M285.715,141.526C222.672,187.137 55.4343,308.133 -15.4411,359.411"/>
<polygon fill="#6666ff" stroke="#6666ff" points="-13.4397,362.283 -23.5932,365.309 -17.5429,356.611 -13.4397,362.283"/>
</g>
<!-- Metamodel::ParametricRoleHOW&#45;&gt;Any -->
<g id="edge3" class="edge"><title>Metamodel::ParametricRoleHOW&#45;&gt;Any</title>
<path fill="none" stroke="#000000" d="M304.818,141.843C291.27,186.337 256.313,301.132 240.192,354.076"/>
<polygon fill="#000000" stroke="#000000" points="243.492,355.254 237.23,363.801 236.795,353.215 243.492,355.254"/>
</g>
<!-- Metamodel::ParametricRoleHOW&#45;&gt;Metamodel::Naming -->
<g id="edge15" class="edge"><title>Metamodel::ParametricRoleHOW&#45;&gt;Metamodel::Naming</title>
<path fill="none" stroke="#6666ff" d="M168.517,125.356C168.165,125.36 167.814,125.364 167.462,125.368"/>
<polygon fill="#6666ff" stroke="#6666ff" points="167.395,128.869 157.355,125.485 167.314,121.869 167.395,128.869"/>
</g>
<!-- Metamodel::ParametricRoleHOW&#45;&gt;Metamodel::Documenting -->
<g id="edge16" class="edge"><title>Metamodel::ParametricRoleHOW&#45;&gt;Metamodel::Documenting</title>
<path fill="none" stroke="#6666ff" d="M261.744,140.711C143.669,182.017 -157.811,287.483 -283.45,331.435"/>
<polygon fill="#6666ff" stroke="#6666ff" points="-282.31,334.744 -292.905,334.743 -284.622,328.137 -282.31,334.744"/>
</g>
<!-- Metamodel::ParametricRoleHOW&#45;&gt;Metamodel::Versioning -->
<g id="edge17" class="edge"><title>Metamodel::ParametricRoleHOW&#45;&gt;Metamodel::Versioning</title>
<path fill="none" stroke="#6666ff" d="M195.77,134.4C161.38,137.609 132.608,140.293 132.608,140.293 132.608,140.293 67.7868,146.131 67.7868,146.131 67.7868,146.131 2.7447,144.638 -59.2292,143.215"/>
<polygon fill="#6666ff" stroke="#6666ff" points="-59.6223,146.707 -69.5393,142.978 -59.4615,139.709 -59.6223,146.707"/>
</g>
<!-- Metamodel::ParametricRoleHOW&#45;&gt;Metamodel::TypePretense -->
<g id="edge25" class="edge"><title>Metamodel::ParametricRoleHOW&#45;&gt;Metamodel::TypePretense</title>
<path fill="none" stroke="#6666ff" d="M315.228,141.969C337.611,225.581 430.401,572.19 457.6,673.789"/>
<polygon fill="#6666ff" stroke="#6666ff" points="461.03,673.067 460.235,683.632 454.268,674.878 461.03,673.067"/>
</g>
<!-- Metamodel::ParametricRoleHOW&#45;&gt;Metamodel::MethodContainer -->
<g id="edge18" class="edge"><title>Metamodel::ParametricRoleHOW&#45;&gt;Metamodel::MethodContainer</title>
<path fill="none" stroke="#6666ff" d="M364.354,106.984C462.703,76.5278 660.949,15.1362 660.949,15.1362 660.949,15.1362 701.789,1.25587 701.789,1.25587 701.789,1.25587 837.888,-102.379 900.972,-150.415"/>
<polygon fill="#6666ff" stroke="#6666ff" points="898.932,-153.261 909.008,-156.535 903.173,-147.692 898.932,-153.261"/>
</g>
<!-- Metamodel::ParametricRoleHOW&#45;&gt;Metamodel::PrivateMethodContainer -->
<g id="edge19" class="edge"><title>Metamodel::ParametricRoleHOW&#45;&gt;Metamodel::PrivateMethodContainer</title>
<path fill="none" stroke="#6666ff" d="M220.179,109.764C90.591,89.7188 -147.708,52.8576 -284.222,31.7409"/>
<polygon fill="#6666ff" stroke="#6666ff" points="-284.929,35.1733 -294.276,30.1857 -283.859,28.2555 -284.929,35.1733"/>
</g>
<!-- Metamodel::ParametricRoleHOW&#45;&gt;Metamodel::MultiMethodContainer -->
<g id="edge20" class="edge"><title>Metamodel::ParametricRoleHOW&#45;&gt;Metamodel::MultiMethodContainer</title>
<path fill="none" stroke="#6666ff" d="M291.749,105.678C235.897,51.5051 73.4172,-106.09 73.4172,-106.09 73.4172,-106.09 63.1193,-227.18 58.3199,-283.614"/>
<polygon fill="#6666ff" stroke="#6666ff" points="54.8248,-283.409 57.4647,-293.67 61.7996,-284.002 54.8248,-283.409"/>
</g>
<!-- Metamodel::ParametricRoleHOW&#45;&gt;Metamodel::AttributeContainer -->
<g id="edge21" class="edge"><title>Metamodel::ParametricRoleHOW&#45;&gt;Metamodel::AttributeContainer</title>
<path fill="none" stroke="#6666ff" d="M326.397,105.629C412.847,8.2793 822.751,-453.304 924.26,-567.611"/>
<polygon fill="#6666ff" stroke="#6666ff" points="921.77,-570.077 931.027,-575.231 927.004,-565.429 921.77,-570.077"/>
</g>
<!-- Metamodel::ParametricRoleHOW&#45;&gt;Metamodel::RoleContainer -->
<g id="edge22" class="edge"><title>Metamodel::ParametricRoleHOW&#45;&gt;Metamodel::RoleContainer</title>
<path fill="none" stroke="#6666ff" d="M316.742,105.638C339.399,41.6762 415.881,-174.238 443.138,-251.186"/>
<polygon fill="#6666ff" stroke="#6666ff" points="439.864,-252.426 446.503,-260.684 446.463,-250.089 439.864,-252.426"/>
</g>
<!-- Metamodel::ParametricRoleHOW&#45;&gt;Metamodel::MultipleInheritance -->
<g id="edge23" class="edge"><title>Metamodel::ParametricRoleHOW&#45;&gt;Metamodel::MultipleInheritance</title>
<path fill="none" stroke="#6666ff" d="M302.38,105.677C284.721,65.6681 242.166,-30.7474 221.117,-78.439"/>
<polygon fill="#6666ff" stroke="#6666ff" points="217.804,-77.2767 216.968,-87.8385 224.208,-80.1032 217.804,-77.2767"/>
</g>
<!-- Metamodel::ParametricRoleHOW&#45;&gt;Metamodel::RolePunning -->
<g id="edge26" class="edge"><title>Metamodel::ParametricRoleHOW&#45;&gt;Metamodel::RolePunning</title>
<path fill="none" stroke="#6666ff" d="M345.433,141.339C444.971,191.341 721.945,330.477 721.945,330.477 721.945,330.477 862.614,552.84 912.149,631.144"/>
<polygon fill="#6666ff" stroke="#6666ff" points="915.334,629.632 917.723,639.954 909.419,633.374 915.334,629.632"/>
</g>
<!-- Metamodel::Finalization -->
<g id="node18" class="node"><title>Metamodel::Finalization</title>
<g id="a_node18"><a xlink:href="/type/Metamodel::Finalization" xlink:title="Metamodel::Finalization">
<ellipse fill="none" stroke="#6666ff" cx="-23.1491" cy="-640.763" rx="103.982" ry="18"/>
<text text-anchor="middle" x="-23.1491" y="-637.063" font-family="FreeSans" font-size="14.00" fill="#6666ff">Metamodel::Finalization</text>
</a>
</g>
</g>
<!-- Metamodel::DefaultParent -->
<g id="node19" class="node"><title>Metamodel::DefaultParent</title>
<g id="a_node19"><a xlink:href="/type/Metamodel::DefaultParent" xlink:title="Metamodel::DefaultParent">
<ellipse fill="none" stroke="#6666ff" cx="-577.551" cy="-618.773" rx="113.18" ry="18"/>
<text text-anchor="middle" x="-577.551" y="-615.073" font-family="FreeSans" font-size="14.00" fill="#6666ff">Metamodel::DefaultParent</text>
</a>
</g>
</g>
<!-- Metamodel::C3MRO -->
<g id="node20" class="node"><title>Metamodel::C3MRO</title>
<g id="a_node20"><a xlink:href="/type/Metamodel::C3MRO" xlink:title="Metamodel::C3MRO">
<ellipse fill="none" stroke="#6666ff" cx="-982.737" cy="-536.73" rx="92.0841" ry="18"/>
<text text-anchor="middle" x="-982.737" y="-533.03" font-family="FreeSans" font-size="14.00" fill="#6666ff">Metamodel::C3MRO</text>
</a>
</g>
</g>
<!-- Metamodel::MROBasedMethodDispatch -->
<g id="node21" class="node"><title>Metamodel::MROBasedMethodDispatch</title>
<g id="a_node21"><a xlink:href="/type/Metamodel::MROBasedMethodDispatch" xlink:title="Metamodel::MROBasedMethodDispatch">
<ellipse fill="none" stroke="#6666ff" cx="-620.666" cy="-191.3" rx="169.77" ry="18"/>
<text text-anchor="middle" x="-620.666" y="-187.6" font-family="FreeSans" font-size="14.00" fill="#6666ff">Metamodel::MROBasedMethodDispatch</text>
</a>
</g>
</g>
<!-- Metamodel::MROBasedTypeChecking -->
<g id="node22" class="node"><title>Metamodel::MROBasedTypeChecking</title>
<g id="a_node22"><a xlink:href="/type/Metamodel::MROBasedTypeChecking" xlink:title="Metamodel::MROBasedTypeChecking">
<ellipse fill="none" stroke="#6666ff" cx="-994.908" cy="29.817" rx="163.271" ry="18"/>
<text text-anchor="middle" x="-994.908" y="33.517" font-family="FreeSans" font-size="14.00" fill="#6666ff">Metamodel::MROBasedTypeChecking</text>
</a>
</g>
</g>
<!-- Metamodel::Trusting -->
<g id="node23" class="node"><title>Metamodel::Trusting</title>
<g id="a_node23"><a xlink:href="/type/Metamodel::Trusting" xlink:title="Metamodel::Trusting">
<ellipse fill="none" stroke="#6666ff" cx="529.519" cy="-631.024" rx="91.784" ry="18"/>
<text text-anchor="middle" x="529.519" y="-627.324" font-family="FreeSans" font-size="14.00" fill="#6666ff">Metamodel::Trusting</text>
</a>
</g>
</g>
<!-- Metamodel::BUILDPLAN -->
<g id="node24" class="node"><title>Metamodel::BUILDPLAN</title>
<g id="a_node24"><a xlink:href="/type/Metamodel::BUILDPLAN" xlink:title="Metamodel::BUILDPLAN">
<ellipse fill="none" stroke="#6666ff" cx="-277.678" cy="-637.862" rx="109.681" ry="18"/>
<text text-anchor="middle" x="-277.678" y="-634.162" font-family="FreeSans" font-size="14.00" fill="#6666ff">Metamodel::BUILDPLAN</text>
</a>
</g>
</g>
<!-- Metamodel::Mixins -->
<g id="node25" class="node"><title>Metamodel::Mixins</title>
<g id="a_node25"><a xlink:href="/type/Metamodel::Mixins" xlink:title="Metamodel::Mixins">
<ellipse fill="none" stroke="#6666ff" cx="232.665" cy="-616.765" rx="85.2851" ry="18"/>
<text text-anchor="middle" x="232.665" y="-613.065" font-family="FreeSans" font-size="14.00" fill="#6666ff">Metamodel::Mixins</text>
</a>
</g>
</g>
<!-- Metamodel::BoolificationProtocol -->
<g id="node26" class="node"><title>Metamodel::BoolificationProtocol</title>
<g id="a_node26"><a xlink:href="/type/Metamodel::BoolificationProtocol" xlink:title="Metamodel::BoolificationProtocol">
<ellipse fill="none" stroke="#6666ff" cx="561.102" cy="1.32808" rx="139.175" ry="18"/>
<text text-anchor="middle" x="561.102" y="5.02808" font-family="FreeSans" font-size="14.00" fill="#6666ff">Metamodel::BoolificationProtocol</text>
</a>
</g>
</g>
<!-- Metamodel::ClassHOW -->
<g id="node27" class="node"><title>Metamodel::ClassHOW</title>
<g id="a_node27"><a xlink:href="/type/Metamodel::ClassHOW" xlink:title="Metamodel::ClassHOW">
<ellipse fill="none" stroke="#000000" cx="-282.38" cy="-284.878" rx="103.982" ry="18"/>
<text text-anchor="middle" x="-282.38" y="-281.178" font-family="FreeSans" font-size="14.00" fill="#000000">Metamodel::ClassHOW</text>
</a>
</g>
</g>
<!-- Metamodel::ClassHOW&#45;&gt;Metamodel::Stashing -->
<g id="edge30" class="edge"><title>Metamodel::ClassHOW&#45;&gt;Metamodel::Stashing</title>
<path fill="none" stroke="#6666ff" d="M-274.263,-266.675C-252.49,-217.847 -194.428,-87.6364 -194.428,-87.6364 -194.428,-87.6364 -67.131,140.553 -67.131,140.553 -67.131,140.553 -55.2442,290.48 -50.1692,354.489"/>
<polygon fill="#6666ff" stroke="#6666ff" points="-46.6618,354.445 -49.3604,364.69 -53.64,354.998 -46.6618,354.445"/>
</g>
<!-- Metamodel::ClassHOW&#45;&gt;Any -->
<g id="edge4" class="edge"><title>Metamodel::ClassHOW&#45;&gt;Any</title>
<path fill="none" stroke="#000000" d="M-274.263,-266.675C-252.49,-217.847 -194.428,-87.6364 -194.428,-87.6364 -194.428,-87.6364 -24.8007,126.67 -24.8007,126.67 -24.8007,126.67 146.337,296.662 209.099,359.003"/>
<polygon fill="#000000" stroke="#000000" points="211.907,356.859 216.535,366.389 206.974,361.825 211.907,356.859"/>
</g>
<!-- Metamodel::ClassHOW&#45;&gt;Metamodel::Naming -->
<g id="edge27" class="edge"><title>Metamodel::ClassHOW&#45;&gt;Metamodel::Naming</title>
<path fill="none" stroke="#6666ff" d="M-274.263,-266.675C-252.49,-217.847 -194.428,-87.6364 -194.428,-87.6364 -194.428,-87.6364 -30.3472,46.7112 37.9031,102.594"/>
<polygon fill="#6666ff" stroke="#6666ff" points="40.2138,99.9621 45.7338,109.005 35.7792,105.378 40.2138,99.9621"/>
</g>
<!-- Metamodel::ClassHOW&#45;&gt;Metamodel::Documenting -->
<g id="edge28" class="edge"><title>Metamodel::ClassHOW&#45;&gt;Metamodel::Documenting</title>
<path fill="none" stroke="#6666ff" d="M-279.258,-266.532C-268.154,-201.287 -231.238,15.6331 -231.238,15.6331 -231.238,15.6331 -271.809,140.816 -271.809,140.816 -271.809,140.816 -312.131,265.643 -330.647,322.961"/>
<polygon fill="#6666ff" stroke="#6666ff" points="-327.431,324.393 -333.836,332.833 -334.092,322.241 -327.431,324.393"/>
</g>
<!-- Metamodel::ClassHOW&#45;&gt;Metamodel::Versioning -->
<g id="edge29" class="edge"><title>Metamodel::ClassHOW&#45;&gt;Metamodel::Versioning</title>
<path fill="none" stroke="#6666ff" d="M-277.601,-266.864C-259.966,-200.397 -198.462,31.4099 -176.96,112.452"/>
<polygon fill="#6666ff" stroke="#6666ff" points="-173.495,111.865 -174.314,122.428 -180.261,113.66 -173.495,111.865"/>
</g>
<!-- Metamodel::ClassHOW&#45;&gt;Metamodel::MethodContainer -->
<g id="edge33" class="edge"><title>Metamodel::ClassHOW&#45;&gt;Metamodel::MethodContainer</title>
<path fill="none" stroke="#6666ff" d="M-190.078,-276.479C27.8486,-256.648 574.056,-206.945 815.029,-185.017"/>
<polygon fill="#6666ff" stroke="#6666ff" points="815.58,-188.482 825.222,-184.09 814.946,-181.51 815.58,-188.482"/>
</g>
<!-- Metamodel::ClassHOW&#45;&gt;Metamodel::PrivateMethodContainer -->
<g id="edge34" class="edge"><title>Metamodel::ClassHOW&#45;&gt;Metamodel::PrivateMethodContainer</title>
<path fill="none" stroke="#6666ff" d="M-288.799,-266.524C-306.585,-215.667 -356.586,-72.6935 -377.805,-12.0212"/>
<polygon fill="#6666ff" stroke="#6666ff" points="-374.581,-10.6354 -381.186,-2.35145 -381.189,-12.9463 -374.581,-10.6354"/>
</g>
<!-- Metamodel::ClassHOW&#45;&gt;Metamodel::MultiMethodContainer -->
<g id="edge35" class="edge"><title>Metamodel::ClassHOW&#45;&gt;Metamodel::MultiMethodContainer</title>
<path fill="none" stroke="#6666ff" d="M-187.697,-292.451C-153.482,-295.188 -114.189,-298.331 -77.2881,-301.283"/>
<polygon fill="#6666ff" stroke="#6666ff" points="-77.1972,-304.801 -66.9499,-302.11 -76.639,-297.824 -77.1972,-304.801"/>
</g>
<!-- Metamodel::ClassHOW&#45;&gt;Metamodel::AttributeContainer -->
<g id="edge31" class="edge"><title>Metamodel::ClassHOW&#45;&gt;Metamodel::AttributeContainer</title>
<path fill="none" stroke="#6666ff" d="M-223.083,-299.752C-19.4821,-350.823 650.789,-518.952 873.999,-574.942"/>
<polygon fill="#6666ff" stroke="#6666ff" points="873.42,-578.405 883.971,-577.443 875.123,-571.615 873.42,-578.405"/>
</g>
<!-- Metamodel::ClassHOW&#45;&gt;Metamodel::RoleContainer -->
<g id="edge36" class="edge"><title>Metamodel::ClassHOW&#45;&gt;Metamodel::RoleContainer</title>
<path fill="none" stroke="#6666ff" d="M-178.205,-284.004C-45.2151,-282.887 184.678,-280.958 327.235,-279.761"/>
<polygon fill="#6666ff" stroke="#6666ff" points="327.375,-283.26 337.345,-279.676 327.316,-276.261 327.375,-283.26"/>
</g>
<!-- Metamodel::ClassHOW&#45;&gt;Metamodel::MultipleInheritance -->
<g id="edge37" class="edge"><title>Metamodel::ClassHOW&#45;&gt;Metamodel::MultipleInheritance</title>
<path fill="none" stroke="#6666ff" d="M-237.479,-268.539C-147.503,-235.798 54.6621,-162.233 153.027,-126.439"/>
<polygon fill="#6666ff" stroke="#6666ff" points="154.3,-129.701 162.5,-122.992 151.906,-123.123 154.3,-129.701"/>
</g>
<!-- Metamodel::ClassHOW&#45;&gt;Metamodel::Finalization -->
<g id="edge32" class="edge"><title>Metamodel::ClassHOW&#45;&gt;Metamodel::Finalization</title>
<path fill="none" stroke="#6666ff" d="M-269.168,-303.016C-226.523,-361.561 -92.4034,-545.688 -42.2896,-614.486"/>
<polygon fill="#6666ff" stroke="#6666ff" points="-45.0511,-616.64 -36.3342,-622.662 -39.393,-612.519 -45.0511,-616.64"/>
</g>
<!-- Metamodel::ClassHOW&#45;&gt;Metamodel::DefaultParent -->
<g id="edge38" class="edge"><title>Metamodel::ClassHOW&#45;&gt;Metamodel::DefaultParent</title>
<path fill="none" stroke="#6666ff" d="M-298.25,-302.83C-347.399,-358.427 -497.238,-527.924 -554.746,-592.976"/>
<polygon fill="#6666ff" stroke="#6666ff" points="-557.602,-590.923 -561.603,-600.733 -552.357,-595.559 -557.602,-590.923"/>
</g>
<!-- Metamodel::ClassHOW&#45;&gt;Metamodel::C3MRO -->
<g id="edge39" class="edge"><title>Metamodel::ClassHOW&#45;&gt;Metamodel::C3MRO</title>
<path fill="none" stroke="#6666ff" d="M-327.524,-301.112C-451.33,-345.633 -795.849,-469.524 -929.131,-517.453"/>
<polygon fill="#6666ff" stroke="#6666ff" points="-930.507,-514.229 -938.733,-520.906 -928.139,-520.816 -930.507,-514.229"/>
</g>
<!-- Metamodel::ClassHOW&#45;&gt;Metamodel::MROBasedMethodDispatch -->
<g id="edge40" class="edge"><title>Metamodel::ClassHOW&#45;&gt;Metamodel::MROBasedMethodDispatch</title>
<path fill="none" stroke="#6666ff" d="M-337.862,-269.53C-395.777,-253.51 -486.78,-228.336 -549.846,-210.89"/>
<polygon fill="#6666ff" stroke="#6666ff" points="-549.147,-207.452 -559.718,-208.159 -551.013,-214.199 -549.147,-207.452"/>
</g>
<!-- Metamodel::ClassHOW&#45;&gt;Metamodel::MROBasedTypeChecking -->
<g id="edge41" class="edge"><title>Metamodel::ClassHOW&#45;&gt;Metamodel::MROBasedTypeChecking</title>
<path fill="none" stroke="#6666ff" d="M-313.41,-267.508C-361.72,-240.465 -449.432,-191.366 -449.432,-191.366 -449.432,-191.366 -805.344,-47.0485 -942.183,8.43801"/>
<polygon fill="#6666ff" stroke="#6666ff" points="-941.067,11.7621 -951.649,12.2763 -943.697,5.27506 -941.067,11.7621"/>
</g>
<!-- Metamodel::ClassHOW&#45;&gt;Metamodel::Trusting -->
<g id="edge42" class="edge"><title>Metamodel::ClassHOW&#45;&gt;Metamodel::Trusting</title>
<path fill="none" stroke="#6666ff" d="M-243.22,-301.573C-108.701,-358.924 334.294,-547.792 481.491,-610.548"/>
<polygon fill="#6666ff" stroke="#6666ff" points="480.181,-613.794 490.752,-614.496 482.926,-607.355 480.181,-613.794"/>
</g>
<!-- Metamodel::ClassHOW&#45;&gt;Metamodel::BUILDPLAN -->
<g id="edge43" class="edge"><title>Metamodel::ClassHOW&#45;&gt;Metamodel::BUILDPLAN</title>
<path fill="none" stroke="#6666ff" d="M-282.134,-303.359C-281.363,-361.259 -278.989,-539.427 -278.058,-609.313"/>
<polygon fill="#6666ff" stroke="#6666ff" points="-281.555,-609.612 -277.922,-619.564 -274.555,-609.519 -281.555,-609.612"/>
</g>
<!-- Metamodel::ClassHOW&#45;&gt;Metamodel::Mixins -->
<g id="edge44" class="edge"><title>Metamodel::ClassHOW&#45;&gt;Metamodel::Mixins</title>
<path fill="none" stroke="#6666ff" d="M-255.053,-302.487C-168.334,-358.367 100.626,-531.681 197.468,-594.084"/>
<polygon fill="#6666ff" stroke="#6666ff" points="195.722,-597.123 206.024,-599.598 199.513,-591.239 195.722,-597.123"/>
</g>
<!-- Metamodel::ClassHOW&#45;&gt;Metamodel::BoolificationProtocol -->
<g id="edge45" class="edge"><title>Metamodel::ClassHOW&#45;&gt;Metamodel::BoolificationProtocol</title>
<path fill="none" stroke="#6666ff" d="M-227.683,-269.512C-81.9569,-228.576 304.631,-119.977 304.631,-119.977 304.631,-119.977 344.393,-106.122 344.393,-106.122 344.393,-106.122 453.408,-52.0694 516.798,-20.6388"/>
<polygon fill="#6666ff" stroke="#6666ff" points="518.397,-23.7528 525.802,-16.1748 515.288,-17.4813 518.397,-23.7528"/>
</g>
<!-- Metamodel::BaseType -->
<g id="node28" class="node"><title>Metamodel::BaseType</title>
<g id="a_node28"><a xlink:href="/type/Metamodel::BaseType" xlink:title="Metamodel::BaseType">
<ellipse fill="none" stroke="#6666ff" cx="-975.178" cy="602.375" rx="99.3824" ry="18"/>
<text text-anchor="middle" x="-975.178" y="606.075" font-family="FreeSans" font-size="14.00" fill="#6666ff">Metamodel::BaseType</text>
</a>
</g>
</g>
<!-- Metamodel::EnumHOW -->
<g id="node29" class="node"><title>Metamodel::EnumHOW</title>
<g id="a_node29"><a xlink:href="/type/Metamodel::EnumHOW" xlink:title="Metamodel::EnumHOW">
<ellipse fill="none" stroke="#000000" cx="-88.1921" cy="-87.8155" rx="104.782" ry="18"/>
<text text-anchor="middle" x="-88.1921" y="-84.1155" font-family="FreeSans" font-size="14.00" fill="#000000">Metamodel::EnumHOW</text>
</a>
</g>
</g>
<!-- Metamodel::EnumHOW&#45;&gt;Metamodel::Stashing -->
<g id="edge47" class="edge"><title>Metamodel::EnumHOW&#45;&gt;Metamodel::Stashing</title>
<path fill="none" stroke="#6666ff" d="M-86.5042,-69.5132C-81.5065,-15.3223 -67.131,140.553 -67.131,140.553 -67.131,140.553 -55.2442,290.48 -50.1692,354.489"/>
<polygon fill="#6666ff" stroke="#6666ff" points="-46.6618,354.445 -49.3604,364.69 -53.64,354.998 -46.6618,354.445"/>
</g>
<!-- Metamodel::EnumHOW&#45;&gt;Any -->
<g id="edge5" class="edge"><title>Metamodel::EnumHOW&#45;&gt;Any</title>
<path fill="none" stroke="#000000" d="M-82.7874,-69.5287C-67.4576,-17.6601 -24.8007,126.67 -24.8007,126.67 -24.8007,126.67 146.337,296.662 209.099,359.003"/>
<polygon fill="#000000" stroke="#000000" points="211.907,356.859 216.535,366.389 206.974,361.825 211.907,356.859"/>
</g>
<!-- Metamodel::EnumHOW&#45;&gt;Metamodel::Naming -->
<g id="edge46" class="edge"><title>Metamodel::EnumHOW&#45;&gt;Metamodel::Naming</title>
<path fill="none" stroke="#6666ff" d="M-75.2158,-69.9091C-47.8045,-32.0832 16.1005,56.1017 48.1298,100.3"/>
<polygon fill="#6666ff" stroke="#6666ff" points="51.0565,98.3742 54.0904,108.525 45.3883,102.482 51.0565,98.3742"/>
</g>
<!-- Metamodel::EnumHOW&#45;&gt;Metamodel::MethodContainer -->
<g id="edge49" class="edge"><title>Metamodel::EnumHOW&#45;&gt;Metamodel::MethodContainer</title>
<path fill="none" stroke="#6666ff" d="M-11.2602,-100.103C45.5434,-109.176 113.022,-119.954 113.022,-119.954 113.022,-119.954 576.975,-150.748 806.646,-165.992"/>
<polygon fill="#6666ff" stroke="#6666ff" points="806.521,-169.491 816.731,-166.661 806.985,-162.507 806.521,-169.491"/>
</g>
<!-- Metamodel::EnumHOW&#45;&gt;Metamodel::MultiMethodContainer -->
<g id="edge50" class="edge"><title>Metamodel::EnumHOW&#45;&gt;Metamodel::MultiMethodContainer</title>
<path fill="none" stroke="#6666ff" d="M-76.6431,-105.778C-51.3474,-145.12 9.06045,-239.071 38.7899,-285.309"/>
<polygon fill="#6666ff" stroke="#6666ff" points="35.9549,-287.371 44.3072,-293.89 41.8429,-283.586 35.9549,-287.371"/>
</g>
<!-- Metamodel::EnumHOW&#45;&gt;Metamodel::AttributeContainer -->
<g id="edge48" class="edge"><title>Metamodel::EnumHOW&#45;&gt;Metamodel::AttributeContainer</title>
<path fill="none" stroke="#6666ff" d="M-53.1548,-104.922C102.217,-180.782 728.955,-486.784 902.374,-571.455"/>
<polygon fill="#6666ff" stroke="#6666ff" points="900.959,-574.659 911.48,-575.901 904.03,-568.369 900.959,-574.659"/>
</g>
<!-- Metamodel::EnumHOW&#45;&gt;Metamodel::RoleContainer -->
<g id="edge51" class="edge"><title>Metamodel::EnumHOW&#45;&gt;Metamodel::RoleContainer</title>
<path fill="none" stroke="#6666ff" d="M-42.06,-104.091C56.8225,-138.976 288.912,-220.857 396.408,-258.781"/>
<polygon fill="#6666ff" stroke="#6666ff" points="395.508,-262.175 406.103,-262.201 397.837,-255.574 395.508,-262.175"/>
</g>
<!-- Metamodel::EnumHOW&#45;&gt;Metamodel::MROBasedMethodDispatch -->
<g id="edge53" class="edge"><title>Metamodel::EnumHOW&#45;&gt;Metamodel::MROBasedMethodDispatch</title>
<path fill="none" stroke="#6666ff" d="M-157.804,-101.344C-252.976,-119.841 -423.889,-153.057 -529.275,-173.538"/>
<polygon fill="#6666ff" stroke="#6666ff" points="-530.116,-170.136 -539.265,-175.48 -528.781,-177.008 -530.116,-170.136"/>
</g>
<!-- Metamodel::EnumHOW&#45;&gt;Metamodel::MROBasedTypeChecking -->
<g id="edge54" class="edge"><title>Metamodel::EnumHOW&#45;&gt;Metamodel::MROBasedTypeChecking</title>
<path fill="none" stroke="#6666ff" d="M-171.868,-76.9598C-334.485,-55.8627 -693.452,-9.2922 -878.923,14.7698"/>
<polygon fill="#6666ff" stroke="#6666ff" points="-878.615,18.2591 -888.982,16.0748 -879.516,11.3173 -878.615,18.2591"/>
</g>
<!-- Metamodel::EnumHOW&#45;&gt;Metamodel::BUILDPLAN -->
<g id="edge55" class="edge"><title>Metamodel::EnumHOW&#45;&gt;Metamodel::BUILDPLAN</title>
<path fill="none" stroke="#6666ff" d="M-94.3889,-105.804C-122.079,-186.184 -234.591,-512.787 -268.171,-610.266"/>
<polygon fill="#6666ff" stroke="#6666ff" points="-271.485,-609.139 -271.433,-619.734 -264.866,-611.419 -271.485,-609.139"/>
</g>
<!-- Metamodel::EnumHOW&#45;&gt;Metamodel::BoolificationProtocol -->
<g id="edge56" class="edge"><title>Metamodel::EnumHOW&#45;&gt;Metamodel::BoolificationProtocol</title>
<path fill="none" stroke="#6666ff" d="M-6.28751,-76.5706C110.802,-60.4951 326.113,-30.9343 455.185,-13.2135"/>
<polygon fill="#6666ff" stroke="#6666ff" points="456.047,-16.6281 465.478,-11.8004 455.095,-9.69319 456.047,-16.6281"/>
</g>
<!-- Metamodel::EnumHOW&#45;&gt;Metamodel::BaseType -->
<g id="edge52" class="edge"><title>Metamodel::EnumHOW&#45;&gt;Metamodel::BaseType</title>
<path fill="none" stroke="#6666ff" d="M-111.009,-70.061C-232.653,24.594 -804.556,469.609 -944.31,578.355"/>
<polygon fill="#6666ff" stroke="#6666ff" points="-942.47,581.358 -952.512,584.737 -946.769,575.834 -942.47,581.358"/>
</g>
<!-- Metamodel::ParametricRoleGroupHOW -->
<g id="node30" class="node"><title>Metamodel::ParametricRoleGroupHOW</title>
<g id="a_node30"><a xlink:href="/type/Metamodel::ParametricRoleGroupHOW" xlink:title="Metamodel::ParametricRoleGroupHOW">
<ellipse fill="none" stroke="#000000" cx="553.311" cy="330.542" rx="167.07" ry="18"/>
<text text-anchor="middle" x="553.311" y="334.242" font-family="FreeSans" font-size="14.00" fill="#000000">Metamodel::ParametricRoleGroupHOW</text>
</a>
</g>
</g>
<!-- Metamodel::ParametricRoleGroupHOW&#45;&gt;Metamodel::Stashing -->
<g id="edge58" class="edge"><title>Metamodel::ParametricRoleGroupHOW&#45;&gt;Metamodel::Stashing</title>
<path fill="none" stroke="#6666ff" d="M423.224,341.872C310.226,351.713 149.195,365.739 47.6999,374.578"/>
<polygon fill="#6666ff" stroke="#6666ff" points="47.7239,378.089 37.4579,375.47 47.1164,371.116 47.7239,378.089"/>
</g>
<!-- Metamodel::ParametricRoleGroupHOW&#45;&gt;Any -->
<g id="edge6" class="edge"><title>Metamodel::ParametricRoleGroupHOW&#45;&gt;Any</title>
<path fill="none" stroke="#000000" d="M459.458,345.439C395.495,355.591 314.333,368.474 268.22,375.793"/>
<polygon fill="#000000" stroke="#000000" points="268.532,379.287 258.107,377.398 267.435,372.374 268.532,379.287"/>
</g>
<!-- Metamodel::ParametricRoleGroupHOW&#45;&gt;Metamodel::Naming -->
<g id="edge57" class="edge"><title>Metamodel::ParametricRoleGroupHOW&#45;&gt;Metamodel::Naming</title>
<path fill="none" stroke="#6666ff" d="M511.439,312.971C421.588,275.267 210.73,186.786 115.42,146.792"/>
<polygon fill="#6666ff" stroke="#6666ff" points="113.886,149.944 106.019,142.847 116.595,143.489 113.886,149.944"/>
</g>
<!-- Metamodel::ParametricRoleGroupHOW&#45;&gt;Metamodel::TypePretense -->
<g id="edge59" class="edge"><title>Metamodel::ParametricRoleGroupHOW&#45;&gt;Metamodel::TypePretense</title>
<path fill="none" stroke="#6666ff" d="M548.997,348.704C534.726,408.801 488.966,601.495 471.754,673.976"/>
<polygon fill="#6666ff" stroke="#6666ff" points="475.145,674.847 469.429,683.768 468.334,673.23 475.145,674.847"/>
</g>
<!-- Metamodel::ParametricRoleGroupHOW&#45;&gt;Metamodel::RolePunning -->
<g id="edge60" class="edge"><title>Metamodel::ParametricRoleGroupHOW&#45;&gt;Metamodel::RolePunning</title>
<path fill="none" stroke="#6666ff" d="M574.053,348.615C637.326,403.747 827.974,569.865 900.621,633.165"/>
<polygon fill="#6666ff" stroke="#6666ff" points="903.24,630.805 908.48,640.013 898.641,636.083 903.24,630.805"/>
</g>
<!-- Metamodel::ParametricRoleGroupHOW&#45;&gt;Metamodel::BoolificationProtocol -->
<g id="edge61" class="edge"><title>Metamodel::ParametricRoleGroupHOW&#45;&gt;Metamodel::BoolificationProtocol</title>
<path fill="none" stroke="#6666ff" d="M553.741,312.373C555.031,257.85 558.877,95.3483 560.435,29.5036"/>
<polygon fill="#6666ff" stroke="#6666ff" points="556.938,29.3552 560.673,19.4408 563.936,29.5209 556.938,29.3552"/>
</g>
<!-- Metamodel::NativeHOW -->
<g id="node31" class="node"><title>Metamodel::NativeHOW</title>
<g id="a_node31"><a xlink:href="/type/Metamodel::NativeHOW" xlink:title="Metamodel::NativeHOW">
<ellipse fill="none" stroke="#000000" cx="-636.024" cy="242.788" rx="107.482" ry="18"/>
<text text-anchor="middle" x="-636.024" y="246.488" font-family="FreeSans" font-size="14.00" fill="#000000">Metamodel::NativeHOW</text>
</a>
</g>
</g>
<!-- Metamodel::NativeHOW&#45;&gt;Metamodel::Stashing -->
<g id="edge65" class="edge"><title>Metamodel::NativeHOW&#45;&gt;Metamodel::Stashing</title>
<path fill="none" stroke="#6666ff" d="M-574.197,257.518C-463.442,283.906 -232.012,339.045 -116.527,366.559"/>
<polygon fill="#6666ff" stroke="#6666ff" points="-115.647,363.171 -106.731,368.893 -117.269,369.98 -115.647,363.171"/>
</g>
<!-- Metamodel::NativeHOW&#45;&gt;Any -->
<g id="edge7" class="edge"><title>Metamodel::NativeHOW&#45;&gt;Any</title>
<path fill="none" stroke="#000000" d="M-558.245,255.226C-377.562,284.121 65.041,354.9 195.231,375.72"/>
<polygon fill="#000000" stroke="#000000" points="196.136,372.32 205.458,377.355 195.03,379.232 196.136,372.32"/>
</g>
<!-- Metamodel::NativeHOW&#45;&gt;Metamodel::Naming -->
<g id="edge62" class="edge"><title>Metamodel::NativeHOW&#45;&gt;Metamodel::Naming</title>
<path fill="none" stroke="#6666ff" d="M-559.027,230.178C-409.992,205.771 -96.6201,154.45 -96.6201,154.45 -96.6201,154.45 -53.74,147.14 -11.8644,140.001"/>
<polygon fill="#6666ff" stroke="#6666ff" points="-12.281,136.521 -1.83498,138.291 -11.1045,143.422 -12.281,136.521"/>
</g>
<!-- Metamodel::NativeHOW&#45;&gt;Metamodel::Documenting -->
<g id="edge63" class="edge"><title>Metamodel::NativeHOW&#45;&gt;Metamodel::Documenting</title>
<path fill="none" stroke="#6666ff" d="M-591.025,259.243C-538.384,278.492 -451.247,310.356 -394.668,331.046"/>
<polygon fill="#6666ff" stroke="#6666ff" points="-393.357,327.798 -385.168,334.52 -395.762,334.372 -393.357,327.798"/>
</g>
<!-- Metamodel::NativeHOW&#45;&gt;Metamodel::Versioning -->
<g id="edge64" class="edge"><title>Metamodel::NativeHOW&#45;&gt;Metamodel::Versioning</title>
<path fill="none" stroke="#6666ff" d="M-570.66,228.483C-484.485,209.624 -333.277,176.533 -243.142,156.807"/>
<polygon fill="#6666ff" stroke="#6666ff" points="-243.786,153.365 -233.269,154.647 -242.29,160.204 -243.786,153.365"/>
</g>
<!-- Metamodel::NativeHOW&#45;&gt;Metamodel::MultipleInheritance -->
<g id="edge66" class="edge"><title>Metamodel::NativeHOW&#45;&gt;Metamodel::MultipleInheritance</title>
<path fill="none" stroke="#6666ff" d="M-595.556,226.078C-456.265,168.561 3.2572,-21.1884 157.732,-84.9752"/>
<polygon fill="#6666ff" stroke="#6666ff" points="156.449,-88.2321 167.028,-88.8138 159.121,-81.762 156.449,-88.2321"/>
</g>
<!-- Metamodel::NativeHOW&#45;&gt;Metamodel::C3MRO -->
<g id="edge67" class="edge"><title>Metamodel::NativeHOW&#45;&gt;Metamodel::C3MRO</title>
<path fill="none" stroke="#6666ff" d="M-644.084,224.667C-689.72,122.063 -915.602,-385.791 -970.633,-509.517"/>
<polygon fill="#6666ff" stroke="#6666ff" points="-973.855,-508.149 -974.721,-518.708 -967.459,-510.994 -973.855,-508.149"/>
</g>
<!-- Metamodel::NativeHOW&#45;&gt;Metamodel::MROBasedMethodDispatch -->
<g id="edge68" class="edge"><title>Metamodel::NativeHOW&#45;&gt;Metamodel::MROBasedMethodDispatch</title>
<path fill="none" stroke="#6666ff" d="M-635.383,224.689C-632.993,157.121 -624.579,-80.6884 -621.667,-163.005"/>
<polygon fill="#6666ff" stroke="#6666ff" points="-625.161,-163.253 -621.309,-173.123 -618.165,-163.005 -625.161,-163.253"/>
</g>
<!-- Metamodel::NativeHOW&#45;&gt;Metamodel::MROBasedTypeChecking -->
<g id="edge69" class="edge"><title>Metamodel::NativeHOW&#45;&gt;Metamodel::MROBasedTypeChecking</title>
<path fill="none" stroke="#6666ff" d="M-665.393,225.36C-729.849,187.109 -883.711,95.8039 -956.058,52.8716"/>
<polygon fill="#6666ff" stroke="#6666ff" points="-958.066,55.7496 -964.88,47.6363 -954.494,49.7298 -958.066,55.7496"/>
</g>
<!-- Metamodel::PackageHOW -->
<g id="node32" class="node"><title>Metamodel::PackageHOW</title>
<g id="a_node32"><a xlink:href="/type/Metamodel::PackageHOW" xlink:title="Metamodel::PackageHOW">
<ellipse fill="none" stroke="#000000" cx="115.424" cy="711.856" rx="116.18" ry="18"/>
<text text-anchor="middle" x="115.424" y="715.556" font-family="FreeSans" font-size="14.00" fill="#000000">Metamodel::PackageHOW</text>
</a>
</g>
</g>
<!-- Metamodel::PackageHOW&#45;&gt;Metamodel::Stashing -->
<g id="edge72" class="edge"><title>Metamodel::PackageHOW&#45;&gt;Metamodel::Stashing</title>
<path fill="none" stroke="#6666ff" d="M106.409,693.702C79.2462,638.998 -1.93368,475.51 -34.3386,410.25"/>
<polygon fill="#6666ff" stroke="#6666ff" points="-37.6169,411.518 -38.9295,401.004 -31.3473,408.404 -37.6169,411.518"/>
</g>
<!-- Metamodel::PackageHOW&#45;&gt;Any -->
<g id="edge8" class="edge"><title>Metamodel::PackageHOW&#45;&gt;Any</title>
<path fill="none" stroke="#000000" d="M121.848,693.628C141.21,638.687 199.085,474.458 222.164,408.97"/>
<polygon fill="#000000" stroke="#000000" points="218.933,407.608 225.558,399.339 225.535,409.934 218.933,407.608"/>
</g>
<!-- Metamodel::PackageHOW&#45;&gt;Metamodel::Naming -->
<g id="edge70" class="edge"><title>Metamodel::PackageHOW&#45;&gt;Metamodel::Naming</title>
<path fill="none" stroke="#6666ff" d="M113.926,693.697C106.992,609.638 77.9873,258.038 69.4886,155.015"/>
<polygon fill="#6666ff" stroke="#6666ff" points="65.9774,155.022 68.6434,144.768 72.9537,154.447 65.9774,155.022"/>
</g>
<!-- Metamodel::PackageHOW&#45;&gt;Metamodel::Documenting -->
<g id="edge71" class="edge"><title>Metamodel::PackageHOW&#45;&gt;Metamodel::Documenting</title>
<path fill="none" stroke="#6666ff" d="M92.852,693.968C17.7693,634.464 -223.663,443.126 -309.284,375.271"/>
<polygon fill="#6666ff" stroke="#6666ff" points="-311.644,377.867 -317.307,368.912 -307.296,372.381 -311.644,377.867"/>
</g>
<!-- Metamodel::PackageHOW&#45;&gt;Metamodel::TypePretense -->
<g id="edge73" class="edge"><title>Metamodel::PackageHOW&#45;&gt;Metamodel::TypePretense</title>
<path fill="none" stroke="#6666ff" d="M229.929,708.595C265.889,707.571 305.73,706.436 342.245,705.396"/>
<polygon fill="#6666ff" stroke="#6666ff" points="342.354,701.891 352.45,705.105 342.554,708.888 342.354,701.891"/>
</g>
<!-- Metamodel::PackageHOW&#45;&gt;Metamodel::MethodDelegation -->
<g id="edge74" class="edge"><title>Metamodel::PackageHOW&#45;&gt;Metamodel::MethodDelegation</title>
<path fill="none" stroke="#6666ff" d="M0.0356545,709.271C-20.0542,708.821 -41.1449,708.348 -61.8069,707.885"/>
<polygon fill="#6666ff" stroke="#6666ff" points="-61.9903,711.382 -71.9094,707.659 -61.8334,704.384 -61.9903,711.382"/>
</g>
</g>
</svg>
