<?xml version="1.0" encoding="UTF-8" standalone="no"?>
<!DOCTYPE svg PUBLIC "-//W3C//DTD SVG 1.1//EN"
 "http://www.w3.org/Graphics/SVG/1.1/DTD/svg11.dtd">
<!-- Generated by graphviz version 2.38.0 (20140413.2041)
 -->
<!-- Title: perl6&#45;type&#45;graph Pages: 1 -->
<svg width="1789pt" height="1298pt"
 viewBox="0.00 0.00 1788.52 1298.29" xmlns="http://www.w3.org/2000/svg" xmlns:xlink="http://www.w3.org/1999/xlink">
<g id="graph0" class="graph" transform="scale(1 1) rotate(0) translate(942.416 614.245)">
<title>perl6&#45;type&#45;graph</title>
<polygon fill="white" stroke="none" points="-942.416,684.043 -942.416,-614.245 846.107,-614.245 846.107,684.043 -942.416,684.043"/>
<!-- Metamodel::Documenting -->
<g id="node1" class="node"><title>Metamodel::Documenting</title>
<g id="a_node1"><a xlink:href="/type/Metamodel::Documenting" xlink:title="Metamodel::Documenting">
<ellipse fill="none" stroke="#6666ff" cx="-204.672" cy="385.17" rx="111.28" ry="18"/>
<text text-anchor="middle" x="-204.672" y="388.87" font-family="FreeSans" font-size="14.00" fill="#6666ff">Metamodel::Documenting</text>
</a>
</g>
</g>
<!-- Mu -->
<g id="node2" class="node"><title>Mu</title>
<g id="a_node2"><a xlink:href="/type/Mu" xlink:title="Mu">
<ellipse fill="none" stroke="#000000" cx="747.865" cy="315.922" rx="27" ry="18"/>
<text text-anchor="middle" x="747.865" y="319.622" font-family="FreeSans" font-size="14.00" fill="#000000">Mu</text>
</a>
</g>
</g>
<!-- Any -->
<g id="node3" class="node"><title>Any</title>
<g id="a_node3"><a xlink:href="/type/Any" xlink:title="Any">
<ellipse fill="none" stroke="#000000" cx="99.3037" cy="387.397" rx="27" ry="18"/>
<text text-anchor="middle" x="99.3037" y="391.097" font-family="FreeSans" font-size="14.00" fill="#000000">Any</text>
</a>
</g>
</g>
<!-- Any&#45;&gt;Mu -->
<g id="edge1" class="edge"><title>Any&#45;&gt;Mu</title>
<path fill="none" stroke="#000000" d="M126.346,384.416C228.856,373.119 593.635,332.919 711.119,319.971"/>
<polygon fill="#000000" stroke="#000000" points="710.744,316.492 721.067,318.875 711.51,323.449 710.744,316.492"/>
</g>
<!-- Metamodel::Naming -->
<g id="node4" class="node"><title>Metamodel::Naming</title>
<g id="a_node4"><a xlink:href="/type/Metamodel::Naming" xlink:title="Metamodel::Naming">
<ellipse fill="none" stroke="#6666ff" cx="-521.224" cy="296.297" rx="90.1842" ry="18"/>
<text text-anchor="middle" x="-521.224" y="299.997" font-family="FreeSans" font-size="14.00" fill="#6666ff">Metamodel::Naming</text>
</a>
</g>
</g>
<!-- Metamodel::Stashing -->
<g id="node5" class="node"><title>Metamodel::Stashing</title>
<g id="a_node5"><a xlink:href="/type/Metamodel::Stashing" xlink:title="Metamodel::Stashing">
<ellipse fill="none" stroke="#6666ff" cx="347.662" cy="175.544" rx="93.6835" ry="18"/>
<text text-anchor="middle" x="347.662" y="179.244" font-family="FreeSans" font-size="14.00" fill="#6666ff">Metamodel::Stashing</text>
</a>
</g>
</g>
<!-- Metamodel::TypePretense -->
<g id="node6" class="node"><title>Metamodel::TypePretense</title>
<g id="a_node6"><a xlink:href="/type/Metamodel::TypePretense" xlink:title="Metamodel::TypePretense">
<ellipse fill="none" stroke="#6666ff" cx="-69.5844" cy="653.524" rx="114.28" ry="18"/>
<text text-anchor="middle" x="-69.5844" y="657.224" font-family="FreeSans" font-size="14.00" fill="#6666ff">Metamodel::TypePretense</text>
</a>
</g>
</g>
<!-- Metamodel::MethodDelegation -->
<g id="node7" class="node"><title>Metamodel::MethodDelegation</title>
<g id="a_node7"><a xlink:href="/type/Metamodel::MethodDelegation" xlink:title="Metamodel::MethodDelegation">
<ellipse fill="none" stroke="#6666ff" cx="706.137" cy="638.741" rx="131.077" ry="18"/>
<text text-anchor="middle" x="706.137" y="642.441" font-family="FreeSans" font-size="14.00" fill="#6666ff">Metamodel::MethodDelegation</text>
</a>
</g>
</g>
<!-- Metamodel::PackageHOW -->
<g id="node8" class="node"><title>Metamodel::PackageHOW</title>
<g id="a_node8"><a xlink:href="/type/Metamodel::PackageHOW" xlink:title="Metamodel::PackageHOW">
<ellipse fill="none" stroke="#000000" cx="285.446" cy="662.043" rx="116.18" ry="18"/>
<text text-anchor="middle" x="285.446" y="665.743" font-family="FreeSans" font-size="14.00" fill="#000000">Metamodel::PackageHOW</text>
</a>
</g>
</g>
<!-- Metamodel::PackageHOW&#45;&gt;Metamodel::Documenting -->
<g id="edge9" class="edge"><title>Metamodel::PackageHOW&#45;&gt;Metamodel::Documenting</title>
<path fill="none" stroke="#6666ff" d="M254.415,644.513C168.9,596.205 -70.0925,461.195 -165.047,407.554"/>
<polygon fill="#6666ff" stroke="#6666ff" points="-166.792,410.589 -173.777,402.623 -163.349,404.494 -166.792,410.589"/>
</g>
<!-- Metamodel::PackageHOW&#45;&gt;Any -->
<g id="edge2" class="edge"><title>Metamodel::PackageHOW&#45;&gt;Any</title>
<path fill="none" stroke="#000000" d="M273.233,644.023C240.977,596.43 153.448,467.285 116.321,412.504"/>
<polygon fill="#000000" stroke="#000000" points="113.32,414.315 110.607,404.074 119.114,410.388 113.32,414.315"/>
</g>
<!-- Metamodel::PackageHOW&#45;&gt;Metamodel::Naming -->
<g id="edge8" class="edge"><title>Metamodel::PackageHOW&#45;&gt;Metamodel::Naming</title>
<path fill="none" stroke="#6666ff" d="M247.621,644.893C114.71,584.631 -330.661,382.699 -475.378,317.084"/>
<polygon fill="#6666ff" stroke="#6666ff" points="-477.207,320.097 -484.869,312.78 -474.317,313.722 -477.207,320.097"/>
</g>
<!-- Metamodel::PackageHOW&#45;&gt;Metamodel::Stashing -->
<g id="edge10" class="edge"><title>Metamodel::PackageHOW&#45;&gt;Metamodel::Stashing</title>
<path fill="none" stroke="#6666ff" d="M287.65,643.663C294.571,585.939 315.416,412.087 315.416,412.087 315.416,412.087 335.271,266.441 343.821,203.72"/>
<polygon fill="#6666ff" stroke="#6666ff" points="340.366,203.148 345.185,193.712 347.302,204.093 340.366,203.148"/>
</g>
<!-- Metamodel::PackageHOW&#45;&gt;Metamodel::TypePretense -->
<g id="edge11" class="edge"><title>Metamodel::PackageHOW&#45;&gt;Metamodel::TypePretense</title>
<path fill="none" stroke="#6666ff" d="M170.178,659.277C132.912,658.383 91.4556,657.388 53.637,656.48"/>
<polygon fill="#6666ff" stroke="#6666ff" points="53.5043,659.978 43.5912,656.239 53.6723,652.98 53.5043,659.978"/>
</g>
<!-- Metamodel::PackageHOW&#45;&gt;Metamodel::MethodDelegation -->
<g id="edge12" class="edge"><title>Metamodel::PackageHOW&#45;&gt;Metamodel::MethodDelegation</title>
<path fill="none" stroke="#6666ff" d="M395.154,655.966C449.814,652.939 516.336,649.254 573.806,646.071"/>
<polygon fill="#6666ff" stroke="#6666ff" points="573.877,642.562 584.055,645.503 574.264,649.551 573.877,642.562"/>
</g>
<!-- Metamodel::SubsetHOW -->
<g id="node9" class="node"><title>Metamodel::SubsetHOW</title>
<g id="a_node9"><a xlink:href="/type/Metamodel::SubsetHOW" xlink:title="Metamodel::SubsetHOW">
<ellipse fill="none" stroke="#000000" cx="-424.288" cy="638.483" rx="109.381" ry="18"/>
<text text-anchor="middle" x="-424.288" y="642.183" font-family="FreeSans" font-size="14.00" fill="#000000">Metamodel::SubsetHOW</text>
</a>
</g>
</g>
<!-- Metamodel::SubsetHOW&#45;&gt;Metamodel::Documenting -->
<g id="edge14" class="edge"><title>Metamodel::SubsetHOW&#45;&gt;Metamodel::Documenting</title>
<path fill="none" stroke="#6666ff" d="M-408.494,620.265C-370.031,575.901 -271.41,462.148 -226.973,410.892"/>
<polygon fill="#6666ff" stroke="#6666ff" points="-229.518,408.485 -220.323,403.222 -224.229,413.071 -229.518,408.485"/>
</g>
<!-- Metamodel::SubsetHOW&#45;&gt;Any -->
<g id="edge3" class="edge"><title>Metamodel::SubsetHOW&#45;&gt;Any</title>
<path fill="none" stroke="#000000" d="M-388.711,621.422C-291.676,574.89 -23.5707,446.321 68.0981,402.361"/>
<polygon fill="#000000" stroke="#000000" points="66.6218,399.188 77.1521,398.019 69.6487,405.499 66.6218,399.188"/>
</g>
<!-- Metamodel::SubsetHOW&#45;&gt;Metamodel::Naming -->
<g id="edge13" class="edge"><title>Metamodel::SubsetHOW&#45;&gt;Metamodel::Naming</title>
<path fill="none" stroke="#6666ff" d="M-429.499,620.086C-445.513,563.556 -494.076,392.129 -513.283,324.328"/>
<polygon fill="#6666ff" stroke="#6666ff" points="-516.746,324.945 -516.104,314.37 -510.011,323.037 -516.746,324.945"/>
</g>
<!-- Metamodel::Versioning -->
<g id="node10" class="node"><title>Metamodel::Versioning</title>
<g id="a_node10"><a xlink:href="/type/Metamodel::Versioning" xlink:title="Metamodel::Versioning">
<ellipse fill="none" stroke="#6666ff" cx="426.244" cy="-45.1061" rx="100.983" ry="18"/>
<text text-anchor="middle" x="426.244" y="-41.4061" font-family="FreeSans" font-size="14.00" fill="#6666ff">Metamodel::Versioning</text>
</a>
</g>
</g>
<!-- Metamodel::AttributeContainer -->
<g id="node11" class="node"><title>Metamodel::AttributeContainer</title>
<g id="a_node11"><a xlink:href="/type/Metamodel::AttributeContainer" xlink:title="Metamodel::AttributeContainer">
<ellipse fill="none" stroke="#6666ff" cx="-808.428" cy="111.791" rx="129.977" ry="18"/>
<text text-anchor="middle" x="-808.428" y="115.491" font-family="FreeSans" font-size="14.00" fill="#6666ff">Metamodel::AttributeContainer</text>
</a>
</g>
</g>
<!-- Metamodel::Finalization -->
<g id="node12" class="node"><title>Metamodel::Finalization</title>
<g id="a_node12"><a xlink:href="/type/Metamodel::Finalization" xlink:title="Metamodel::Finalization">
<ellipse fill="none" stroke="#6666ff" cx="-175.968" cy="-579.251" rx="103.982" ry="18"/>
<text text-anchor="middle" x="-175.968" y="-575.551" font-family="FreeSans" font-size="14.00" fill="#6666ff">Metamodel::Finalization</text>
</a>
</g>
</g>
<!-- Metamodel::MethodContainer -->
<g id="node13" class="node"><title>Metamodel::MethodContainer</title>
<g id="a_node13"><a xlink:href="/type/Metamodel::MethodContainer" xlink:title="Metamodel::MethodContainer">
<ellipse fill="none" stroke="#6666ff" cx="372.807" cy="-301.493" rx="127.277" ry="18"/>
<text text-anchor="middle" x="372.807" y="-297.793" font-family="FreeSans" font-size="14.00" fill="#6666ff">Metamodel::MethodContainer</text>
</a>
</g>
</g>
<!-- Metamodel::PrivateMethodContainer -->
<g id="node14" class="node"><title>Metamodel::PrivateMethodContainer</title>
<g id="a_node14"><a xlink:href="/type/Metamodel::PrivateMethodContainer" xlink:title="Metamodel::PrivateMethodContainer">
<ellipse fill="none" stroke="#6666ff" cx="32.057" cy="-321.146" rx="154.873" ry="18"/>
<text text-anchor="middle" x="32.057" y="-317.446" font-family="FreeSans" font-size="14.00" fill="#6666ff">Metamodel::PrivateMethodContainer</text>
</a>
</g>
</g>
<!-- Metamodel::MultiMethodContainer -->
<g id="node15" class="node"><title>Metamodel::MultiMethodContainer</title>
<g id="a_node15"><a xlink:href="/type/Metamodel::MultiMethodContainer" xlink:title="Metamodel::MultiMethodContainer">
<ellipse fill="none" stroke="#6666ff" cx="-439.589" cy="-9.53389" rx="146.474" ry="18"/>
<text text-anchor="middle" x="-439.589" y="-5.83389" font-family="FreeSans" font-size="14.00" fill="#6666ff">Metamodel::MultiMethodContainer</text>
</a>
</g>
</g>
<!-- Metamodel::RoleContainer -->
<g id="node16" class="node"><title>Metamodel::RoleContainer</title>
<g id="a_node16"><a xlink:href="/type/Metamodel::RoleContainer" xlink:title="Metamodel::RoleContainer">
<ellipse fill="none" stroke="#6666ff" cx="726.417" cy="38.0396" rx="115.88" ry="18"/>
<text text-anchor="middle" x="726.417" y="41.7396" font-family="FreeSans" font-size="14.00" fill="#6666ff">Metamodel::RoleContainer</text>
</a>
</g>
</g>
<!-- Metamodel::MultipleInheritance -->
<g id="node17" class="node"><title>Metamodel::MultipleInheritance</title>
<g id="a_node17"><a xlink:href="/type/Metamodel::MultipleInheritance" xlink:title="Metamodel::MultipleInheritance">
<ellipse fill="none" stroke="#6666ff" cx="149.775" cy="-84.5183" rx="133.776" ry="18"/>
<text text-anchor="middle" x="149.775" y="-80.8183" font-family="FreeSans" font-size="14.00" fill="#6666ff">Metamodel::MultipleInheritance</text>
</a>
</g>
</g>
<!-- Metamodel::DefaultParent -->
<g id="node18" class="node"><title>Metamodel::DefaultParent</title>
<g id="a_node18"><a xlink:href="/type/Metamodel::DefaultParent" xlink:title="Metamodel::DefaultParent">
<ellipse fill="none" stroke="#6666ff" cx="100.311" cy="-592.245" rx="113.18" ry="18"/>
<text text-anchor="middle" x="100.311" y="-588.545" font-family="FreeSans" font-size="14.00" fill="#6666ff">Metamodel::DefaultParent</text>
</a>
</g>
</g>
<!-- Metamodel::C3MRO -->
<g id="node19" class="node"><title>Metamodel::C3MRO</title>
<g id="a_node19"><a xlink:href="/type/Metamodel::C3MRO" xlink:title="Metamodel::C3MRO">
<ellipse fill="none" stroke="#6666ff" cx="-801.687" cy="-532.672" rx="92.0841" ry="18"/>
<text text-anchor="middle" x="-801.687" y="-528.972" font-family="FreeSans" font-size="14.00" fill="#6666ff">Metamodel::C3MRO</text>
</a>
</g>
</g>
<!-- Metamodel::MROBasedMethodDispatch -->
<g id="node20" class="node"><title>Metamodel::MROBasedMethodDispatch</title>
<g id="a_node20"><a xlink:href="/type/Metamodel::MROBasedMethodDispatch" xlink:title="Metamodel::MROBasedMethodDispatch">
<ellipse fill="none" stroke="#6666ff" cx="-309.11" cy="-286.586" rx="169.77" ry="18"/>
<text text-anchor="middle" x="-309.11" y="-282.886" font-family="FreeSans" font-size="14.00" fill="#6666ff">Metamodel::MROBasedMethodDispatch</text>
</a>
</g>
</g>
<!-- Metamodel::MROBasedTypeChecking -->
<g id="node21" class="node"><title>Metamodel::MROBasedTypeChecking</title>
<g id="a_node21"><a xlink:href="/type/Metamodel::MROBasedTypeChecking" xlink:title="Metamodel::MROBasedTypeChecking">
<ellipse fill="none" stroke="#6666ff" cx="-695.576" cy="-215.372" rx="163.271" ry="18"/>
<text text-anchor="middle" x="-695.576" y="-211.672" font-family="FreeSans" font-size="14.00" fill="#6666ff">Metamodel::MROBasedTypeChecking</text>
</a>
</g>
</g>
<!-- Metamodel::Trusting -->
<g id="node22" class="node"><title>Metamodel::Trusting</title>
<g id="a_node22"><a xlink:href="/type/Metamodel::Trusting" xlink:title="Metamodel::Trusting">
<ellipse fill="none" stroke="#6666ff" cx="-476.618" cy="-569.524" rx="91.784" ry="18"/>
<text text-anchor="middle" x="-476.618" y="-565.824" font-family="FreeSans" font-size="14.00" fill="#6666ff">Metamodel::Trusting</text>
</a>
</g>
</g>
<!-- Metamodel::BUILDPLAN -->
<g id="node23" class="node"><title>Metamodel::BUILDPLAN</title>
<g id="a_node23"><a xlink:href="/type/Metamodel::BUILDPLAN" xlink:title="Metamodel::BUILDPLAN">
<ellipse fill="none" stroke="#6666ff" cx="729.58" cy="-568.984" rx="109.681" ry="18"/>
<text text-anchor="middle" x="729.58" y="-565.284" font-family="FreeSans" font-size="14.00" fill="#6666ff">Metamodel::BUILDPLAN</text>
</a>
</g>
</g>
<!-- Metamodel::Mixins -->
<g id="node24" class="node"><title>Metamodel::Mixins</title>
<g id="a_node24"><a xlink:href="/type/Metamodel::Mixins" xlink:title="Metamodel::Mixins">
<ellipse fill="none" stroke="#6666ff" cx="734.484" cy="-249.868" rx="85.2851" ry="18"/>
<text text-anchor="middle" x="734.484" y="-246.168" font-family="FreeSans" font-size="14.00" fill="#6666ff">Metamodel::Mixins</text>
</a>
</g>
</g>
<!-- Metamodel::BoolificationProtocol -->
<g id="node25" class="node"><title>Metamodel::BoolificationProtocol</title>
<g id="a_node25"><a xlink:href="/type/Metamodel::BoolificationProtocol" xlink:title="Metamodel::BoolificationProtocol">
<ellipse fill="none" stroke="#6666ff" cx="390.67" cy="-584.717" rx="139.175" ry="18"/>
<text text-anchor="middle" x="390.67" y="-581.017" font-family="FreeSans" font-size="14.00" fill="#6666ff">Metamodel::BoolificationProtocol</text>
</a>
</g>
</g>
<!-- Metamodel::ClassHOW -->
<g id="node26" class="node"><title>Metamodel::ClassHOW</title>
<g id="a_node26"><a xlink:href="/type/Metamodel::ClassHOW" xlink:title="Metamodel::ClassHOW">
<ellipse fill="none" stroke="#000000" cx="-120.997" cy="-87.1834" rx="103.982" ry="18"/>
<text text-anchor="middle" x="-120.997" y="-83.4834" font-family="FreeSans" font-size="14.00" fill="#000000">Metamodel::ClassHOW</text>
</a>
</g>
</g>
<!-- Metamodel::ClassHOW&#45;&gt;Metamodel::Documenting -->
<g id="edge16" class="edge"><title>Metamodel::ClassHOW&#45;&gt;Metamodel::Documenting</title>
<path fill="none" stroke="#6666ff" d="M-119.765,-68.8948C-116.117,-14.7445 -105.623,141.014 -105.623,141.014 -105.623,141.014 -167.405,293.306 -193.381,357.337"/>
<polygon fill="#6666ff" stroke="#6666ff" points="-190.225,358.868 -197.227,366.818 -196.711,356.236 -190.225,358.868"/>
</g>
<!-- Metamodel::ClassHOW&#45;&gt;Any -->
<g id="edge4" class="edge"><title>Metamodel::ClassHOW&#45;&gt;Any</title>
<path fill="none" stroke="#000000" d="M-118.793,-69.0504C-112.266,-15.3607 -93.4911,139.073 -93.4911,139.073 -93.4911,139.073 31.7078,300.332 80.3233,362.95"/>
<polygon fill="#000000" stroke="#000000" points="83.2859,361.058 86.6539,371.103 77.7567,365.351 83.2859,361.058"/>
</g>
<!-- Metamodel::ClassHOW&#45;&gt;Metamodel::Naming -->
<g id="edge15" class="edge"><title>Metamodel::ClassHOW&#45;&gt;Metamodel::Naming</title>
<path fill="none" stroke="#6666ff" d="M-139.499,-69.4565C-204.153,-7.50744 -420.143,199.444 -495.232,271.392"/>
<polygon fill="#6666ff" stroke="#6666ff" points="-492.816,273.924 -502.458,278.315 -497.659,268.87 -492.816,273.924"/>
</g>
<!-- Metamodel::ClassHOW&#45;&gt;Metamodel::Stashing -->
<g id="edge18" class="edge"><title>Metamodel::ClassHOW&#45;&gt;Metamodel::Stashing</title>
<path fill="none" stroke="#6666ff" d="M-90.2474,-69.9452C-8.05029,-23.8661 216.708,102.132 308.164,153.401"/>
<polygon fill="#6666ff" stroke="#6666ff" points="310.093,150.47 317.104,158.413 306.67,156.576 310.093,150.47"/>
</g>
<!-- Metamodel::ClassHOW&#45;&gt;Metamodel::Versioning -->
<g id="edge17" class="edge"><title>Metamodel::ClassHOW&#45;&gt;Metamodel::Versioning</title>
<path fill="none" stroke="#6666ff" d="M-29.5725,-78.5441C12.8969,-74.5309 54.1574,-70.632 54.1574,-70.632 54.1574,-70.632 211.649,-59.8278 321.707,-52.2776"/>
<polygon fill="#6666ff" stroke="#6666ff" points="322.133,-55.7567 331.87,-51.5804 321.654,-48.7731 322.133,-55.7567"/>
</g>
<!-- Metamodel::ClassHOW&#45;&gt;Metamodel::AttributeContainer -->
<g id="edge19" class="edge"><title>Metamodel::ClassHOW&#45;&gt;Metamodel::AttributeContainer</title>
<path fill="none" stroke="#6666ff" d="M-158.049,-70.3626C-208.27,-47.5632 -291.755,-9.66296 -291.755,-9.66296 -291.755,-9.66296 -334.366,4.23383 -334.366,4.23383 -334.366,4.23383 -596.157,63.63 -730.654,94.1451"/>
<polygon fill="#6666ff" stroke="#6666ff" points="-729.98,97.5809 -740.506,96.3804 -731.528,90.7544 -729.98,97.5809"/>
</g>
<!-- Metamodel::ClassHOW&#45;&gt;Metamodel::Finalization -->
<g id="edge20" class="edge"><title>Metamodel::ClassHOW&#45;&gt;Metamodel::Finalization</title>
<path fill="none" stroke="#6666ff" d="M-122.525,-105.241C-126.681,-154.353 -137.878,-286.697 -137.878,-286.697 -137.878,-286.697 -162.741,-477.658 -172.292,-551.017"/>
<polygon fill="#6666ff" stroke="#6666ff" points="-175.765,-550.582 -173.585,-560.95 -168.823,-551.486 -175.765,-550.582"/>
</g>
<!-- Metamodel::ClassHOW&#45;&gt;Metamodel::MethodContainer -->
<g id="edge21" class="edge"><title>Metamodel::ClassHOW&#45;&gt;Metamodel::MethodContainer</title>
<path fill="none" stroke="#6666ff" d="M-82.2495,-104C6.75501,-142.628 225.675,-237.638 323.819,-280.232"/>
<polygon fill="#6666ff" stroke="#6666ff" points="322.645,-283.538 333.212,-284.309 325.432,-277.117 322.645,-283.538"/>
</g>
<!-- Metamodel::ClassHOW&#45;&gt;Metamodel::PrivateMethodContainer -->
<g id="edge22" class="edge"><title>Metamodel::ClassHOW&#45;&gt;Metamodel::PrivateMethodContainer</title>
<path fill="none" stroke="#6666ff" d="M-109.242,-105.154C-82.477,-146.067 -16.8856,-246.331 14.6149,-294.484"/>
<polygon fill="#6666ff" stroke="#6666ff" points="11.8577,-296.662 20.2611,-303.115 17.7155,-292.83 11.8577,-296.662"/>
</g>
<!-- Metamodel::ClassHOW&#45;&gt;Metamodel::MultiMethodContainer -->
<g id="edge23" class="edge"><title>Metamodel::ClassHOW&#45;&gt;Metamodel::MultiMethodContainer</title>
<path fill="none" stroke="#6666ff" d="M-181.297,-72.4868C-233.031,-59.8778 -307.845,-41.6434 -363.654,-28.0413"/>
<polygon fill="#6666ff" stroke="#6666ff" points="-362.947,-24.6111 -373.492,-25.6435 -364.605,-31.412 -362.947,-24.6111"/>
</g>
<!-- Metamodel::ClassHOW&#45;&gt;Metamodel::RoleContainer -->
<g id="edge24" class="edge"><title>Metamodel::ClassHOW&#45;&gt;Metamodel::RoleContainer</title>
<path fill="none" stroke="#6666ff" d="M-41.6557,-75.459C115.194,-52.2812 464.268,-0.698308 632.371,24.1425"/>
<polygon fill="#6666ff" stroke="#6666ff" points="633.063,20.7066 642.444,25.6309 632.04,27.6314 633.063,20.7066"/>
</g>
<!-- Metamodel::ClassHOW&#45;&gt;Metamodel::MultipleInheritance -->
<g id="edge25" class="edge"><title>Metamodel::ClassHOW&#45;&gt;Metamodel::MultipleInheritance</title>
<path fill="none" stroke="#6666ff" d="M-17.0843,-86.1606C-9.51432,-86.0861 -1.80538,-86.0102 5.94059,-85.934"/>
<polygon fill="#6666ff" stroke="#6666ff" points="6.1712,-89.432 16.1362,-85.8337 6.10224,-82.4323 6.1712,-89.432"/>
</g>
<!-- Metamodel::ClassHOW&#45;&gt;Metamodel::DefaultParent -->
<g id="edge26" class="edge"><title>Metamodel::ClassHOW&#45;&gt;Metamodel::DefaultParent</title>
<path fill="none" stroke="#6666ff" d="M-121.251,-105.534C-122.012,-160.663 -124.227,-321.038 -124.227,-321.038 -124.227,-321.038 22.6979,-498.5 78.8483,-566.321"/>
<polygon fill="#6666ff" stroke="#6666ff" points="76.1568,-568.559 85.23,-574.03 81.5487,-564.095 76.1568,-568.559"/>
</g>
<!-- Metamodel::ClassHOW&#45;&gt;Metamodel::C3MRO -->
<g id="edge27" class="edge"><title>Metamodel::ClassHOW&#45;&gt;Metamodel::C3MRO</title>
<path fill="none" stroke="#6666ff" d="M-152.258,-104.521C-239.685,-153.007 -480.342,-286.474 -480.342,-286.474 -480.342,-286.474 -689.873,-447.005 -770.545,-508.813"/>
<polygon fill="#6666ff" stroke="#6666ff" points="-773.025,-506.303 -778.834,-515.163 -768.768,-511.86 -773.025,-506.303"/>
</g>
<!-- Metamodel::ClassHOW&#45;&gt;Metamodel::MROBasedMethodDispatch -->
<g id="edge28" class="edge"><title>Metamodel::ClassHOW&#45;&gt;Metamodel::MROBasedMethodDispatch</title>
<path fill="none" stroke="#6666ff" d="M-138.023,-105.231C-171.584,-140.806 -246.368,-220.078 -284.991,-261.019"/>
<polygon fill="#6666ff" stroke="#6666ff" points="-287.671,-258.76 -291.988,-268.435 -282.58,-263.563 -287.671,-258.76"/>
</g>
<!-- Metamodel::ClassHOW&#45;&gt;Metamodel::MROBasedTypeChecking -->
<g id="edge29" class="edge"><title>Metamodel::ClassHOW&#45;&gt;Metamodel::MROBasedTypeChecking</title>
<path fill="none" stroke="#6666ff" d="M-184.959,-101.453C-289.698,-124.821 -497.673,-171.22 -613.263,-197.008"/>
<polygon fill="#6666ff" stroke="#6666ff" points="-614.132,-193.616 -623.13,-199.209 -612.608,-200.448 -614.132,-193.616"/>
</g>
<!-- Metamodel::ClassHOW&#45;&gt;Metamodel::Trusting -->
<g id="edge30" class="edge"><title>Metamodel::ClassHOW&#45;&gt;Metamodel::Trusting</title>
<path fill="none" stroke="#6666ff" d="M-122.525,-105.241C-126.681,-154.353 -137.878,-286.697 -137.878,-286.697 -137.878,-286.697 -365.376,-476.643 -447.497,-545.209"/>
<polygon fill="#6666ff" stroke="#6666ff" points="-449.995,-542.736 -455.428,-551.832 -445.509,-548.109 -449.995,-542.736"/>
</g>
<!-- Metamodel::ClassHOW&#45;&gt;Metamodel::BUILDPLAN -->
<g id="edge31" class="edge"><title>Metamodel::ClassHOW&#45;&gt;Metamodel::BUILDPLAN</title>
<path fill="none" stroke="#6666ff" d="M-91.452,-104.532C-4.60146,-155.527 243.82,-301.392 243.82,-301.392 243.82,-301.392 572.403,-482.399 689.08,-546.674"/>
<polygon fill="#6666ff" stroke="#6666ff" points="687.635,-549.873 698.083,-551.633 691.013,-543.742 687.635,-549.873"/>
</g>
<!-- Metamodel::ClassHOW&#45;&gt;Metamodel::Mixins -->
<g id="edge32" class="edge"><title>Metamodel::ClassHOW&#45;&gt;Metamodel::Mixins</title>
<path fill="none" stroke="#6666ff" d="M-50.9898,-100.497C108.679,-130.86 498.498,-204.991 661.233,-235.938"/>
<polygon fill="#6666ff" stroke="#6666ff" points="660.674,-239.395 671.152,-237.824 661.982,-232.518 660.674,-239.395"/>
</g>
<!-- Metamodel::ClassHOW&#45;&gt;Metamodel::BoolificationProtocol -->
<g id="edge33" class="edge"><title>Metamodel::ClassHOW&#45;&gt;Metamodel::BoolificationProtocol</title>
<path fill="none" stroke="#6666ff" d="M-97.7468,-104.777C-25.8067,-159.213 188.341,-321.254 188.341,-321.254 188.341,-321.254 319.584,-492.153 370.665,-558.668"/>
<polygon fill="#6666ff" stroke="#6666ff" points="367.896,-560.809 376.763,-566.608 373.448,-556.545 367.896,-560.809"/>
</g>
<!-- Metamodel::ModuleHOW -->
<g id="node27" class="node"><title>Metamodel::ModuleHOW</title>
<g id="a_node27"><a xlink:href="/type/Metamodel::ModuleHOW" xlink:title="Metamodel::ModuleHOW">
<ellipse fill="none" stroke="#000000" cx="428.151" cy="411.902" rx="111.28" ry="18"/>
<text text-anchor="middle" x="428.151" y="415.602" font-family="FreeSans" font-size="14.00" fill="#000000">Metamodel::ModuleHOW</text>
</a>
</g>
</g>
<!-- Metamodel::ModuleHOW&#45;&gt;Metamodel::Documenting -->
<g id="edge35" class="edge"><title>Metamodel::ModuleHOW&#45;&gt;Metamodel::Documenting</title>
<path fill="none" stroke="#6666ff" d="M317.332,410.248C221.911,408.824 99.4666,406.996 99.4666,406.996 99.4666,406.996 -6.03996,399.425 -92.7697,393.2"/>
<polygon fill="#6666ff" stroke="#6666ff" points="-93.2517,396.675 -102.976,392.468 -92.7506,389.693 -93.2517,396.675"/>
</g>
<!-- Metamodel::ModuleHOW&#45;&gt;Any -->
<g id="edge5" class="edge"><title>Metamodel::ModuleHOW&#45;&gt;Any</title>
<path fill="none" stroke="#000000" d="M326.803,404.35C262.198,399.535 182.281,393.58 136.41,390.162"/>
<polygon fill="#000000" stroke="#000000" points="136.046,393.644 126.334,389.411 136.566,386.664 136.046,393.644"/>
</g>
<!-- Metamodel::ModuleHOW&#45;&gt;Metamodel::Naming -->
<g id="edge34" class="edge"><title>Metamodel::ModuleHOW&#45;&gt;Metamodel::Naming</title>
<path fill="none" stroke="#6666ff" d="M342.137,400.372C244.654,387.304 99.1407,367.797 99.1407,367.797 99.1407,367.797 -261.676,326.211 -432.963,306.469"/>
<polygon fill="#6666ff" stroke="#6666ff" points="-433.435,309.938 -442.969,305.316 -432.634,302.984 -433.435,309.938"/>
</g>
<!-- Metamodel::ModuleHOW&#45;&gt;Metamodel::Stashing -->
<g id="edge37" class="edge"><title>Metamodel::ModuleHOW&#45;&gt;Metamodel::Stashing</title>
<path fill="none" stroke="#6666ff" d="M421.969,393.748C407.981,352.673 373.83,252.386 357.146,203.395"/>
<polygon fill="#6666ff" stroke="#6666ff" points="353.776,204.354 353.865,193.76 360.402,202.098 353.776,204.354"/>
</g>
<!-- Metamodel::ModuleHOW&#45;&gt;Metamodel::TypePretense -->
<g id="edge38" class="edge"><title>Metamodel::ModuleHOW&#45;&gt;Metamodel::TypePretense</title>
<path fill="none" stroke="#6666ff" d="M392.754,429.085C304.111,472.116 72.7139,584.446 -25.0049,631.883"/>
<polygon fill="#6666ff" stroke="#6666ff" points="-23.5104,635.048 -34.035,636.266 -26.5674,628.751 -23.5104,635.048"/>
</g>
<!-- Metamodel::ModuleHOW&#45;&gt;Metamodel::MethodDelegation -->
<g id="edge39" class="edge"><title>Metamodel::ModuleHOW&#45;&gt;Metamodel::MethodDelegation</title>
<path fill="none" stroke="#6666ff" d="M449.964,429.702C499.371,470.019 619.893,568.365 676.213,614.323"/>
<polygon fill="#6666ff" stroke="#6666ff" points="678.506,611.676 684.041,620.71 674.08,617.1 678.506,611.676"/>
</g>
<!-- Metamodel::ModuleHOW&#45;&gt;Metamodel::Versioning -->
<g id="edge36" class="edge"><title>Metamodel::ModuleHOW&#45;&gt;Metamodel::Versioning</title>
<path fill="none" stroke="#6666ff" d="M429.28,393.745C432.723,338.389 442.853,175.504 442.853,175.504 442.853,175.504 432.854,42.6835 428.372,-16.8399"/>
<polygon fill="#6666ff" stroke="#6666ff" points="424.864,-16.8181 427.603,-27.0527 431.844,-17.3437 424.864,-16.8181"/>
</g>
<!-- Metamodel::RolePunning -->
<g id="node28" class="node"><title>Metamodel::RolePunning</title>
<g id="a_node28"><a xlink:href="/type/Metamodel::RolePunning" xlink:title="Metamodel::RolePunning">
<ellipse fill="none" stroke="#6666ff" cx="-783.331" cy="571.313" rx="109.681" ry="18"/>
<text text-anchor="middle" x="-783.331" y="575.013" font-family="FreeSans" font-size="14.00" fill="#6666ff">Metamodel::RolePunning</text>
</a>
</g>
</g>
<!-- Metamodel::ParametricRoleHOW -->
<g id="node29" class="node"><title>Metamodel::ParametricRoleHOW</title>
<g id="a_node29"><a xlink:href="/type/Metamodel::ParametricRoleHOW" xlink:title="Metamodel::ParametricRoleHOW">
<ellipse fill="none" stroke="#000000" cx="50.4404" cy="138.896" rx="142.175" ry="18"/>
<text text-anchor="middle" x="50.4404" y="142.596" font-family="FreeSans" font-size="14.00" fill="#000000">Metamodel::ParametricRoleHOW</text>
</a>
</g>
</g>
<!-- Metamodel::ParametricRoleHOW&#45;&gt;Metamodel::Documenting -->
<g id="edge41" class="edge"><title>Metamodel::ParametricRoleHOW&#45;&gt;Metamodel::Documenting</title>
<path fill="none" stroke="#6666ff" d="M31.6814,157.005C-13.3026,200.43 -127.385,310.56 -178.821,360.215"/>
<polygon fill="#6666ff" stroke="#6666ff" points="-176.604,362.939 -186.23,367.366 -181.466,357.903 -176.604,362.939"/>
</g>
<!-- Metamodel::ParametricRoleHOW&#45;&gt;Any -->
<g id="edge6" class="edge"><title>Metamodel::ParametricRoleHOW&#45;&gt;Any</title>
<path fill="none" stroke="#000000" d="M54.0334,157.169C62.4903,200.177 83.6972,308.028 93.794,359.376"/>
<polygon fill="#000000" stroke="#000000" points="97.2761,358.945 95.7713,369.432 90.4076,360.295 97.2761,358.945"/>
</g>
<!-- Metamodel::ParametricRoleHOW&#45;&gt;Metamodel::Naming -->
<g id="edge40" class="edge"><title>Metamodel::ParametricRoleHOW&#45;&gt;Metamodel::Naming</title>
<path fill="none" stroke="#6666ff" d="M-9.11994,155.295C-117.798,185.218 -347.278,248.403 -458.356,278.987"/>
<polygon fill="#6666ff" stroke="#6666ff" points="-457.513,282.385 -468.083,281.665 -459.371,275.636 -457.513,282.385"/>
</g>
<!-- Metamodel::ParametricRoleHOW&#45;&gt;Metamodel::Stashing -->
<g id="edge49" class="edge"><title>Metamodel::ParametricRoleHOW&#45;&gt;Metamodel::Stashing</title>
<path fill="none" stroke="#6666ff" d="M152.727,151.508C187.12,155.748 225.19,160.443 258.492,164.549"/>
<polygon fill="#6666ff" stroke="#6666ff" points="259.168,161.106 268.664,165.803 258.311,168.053 259.168,161.106"/>
</g>
<!-- Metamodel::ParametricRoleHOW&#45;&gt;Metamodel::TypePretense -->
<g id="edge50" class="edge"><title>Metamodel::ParametricRoleHOW&#45;&gt;Metamodel::TypePretense</title>
<path fill="none" stroke="#6666ff" d="M46.239,156.91C28.3807,233.481 -41.3037,532.265 -63.0589,625.544"/>
<polygon fill="#6666ff" stroke="#6666ff" points="-59.675,626.445 -65.3549,635.389 -66.492,624.855 -59.675,626.445"/>
</g>
<!-- Metamodel::ParametricRoleHOW&#45;&gt;Metamodel::Versioning -->
<g id="edge42" class="edge"><title>Metamodel::ParametricRoleHOW&#45;&gt;Metamodel::Versioning</title>
<path fill="none" stroke="#6666ff" d="M86.1339,121.419C155.273,87.5675 307.25,13.1561 382.399,-23.6386"/>
<polygon fill="#6666ff" stroke="#6666ff" points="381.087,-26.8931 391.607,-28.1472 384.165,-20.6062 381.087,-26.8931"/>
</g>
<!-- Metamodel::ParametricRoleHOW&#45;&gt;Metamodel::AttributeContainer -->
<g id="edge46" class="edge"><title>Metamodel::ParametricRoleHOW&#45;&gt;Metamodel::AttributeContainer</title>
<path fill="none" stroke="#6666ff" d="M-75.9957,130.599C-144.328,126.115 -214.864,121.486 -214.864,121.486 -214.864,121.486 -493.724,116.931 -669.169,114.065"/>
<polygon fill="#6666ff" stroke="#6666ff" points="-669.326,117.563 -679.267,113.9 -669.211,110.564 -669.326,117.563"/>
</g>
<!-- Metamodel::ParametricRoleHOW&#45;&gt;Metamodel::MethodContainer -->
<g id="edge43" class="edge"><title>Metamodel::ParametricRoleHOW&#45;&gt;Metamodel::MethodContainer</title>
<path fill="none" stroke="#6666ff" d="M69.2599,120.987C124.982,67.963 285.263,-84.5566 285.263,-84.5566 285.263,-84.5566 338.156,-215.628 361.715,-274.007"/>
<polygon fill="#6666ff" stroke="#6666ff" points="358.506,-275.406 365.494,-283.37 364.997,-272.787 358.506,-275.406"/>
</g>
<!-- Metamodel::ParametricRoleHOW&#45;&gt;Metamodel::PrivateMethodContainer -->
<g id="edge44" class="edge"><title>Metamodel::ParametricRoleHOW&#45;&gt;Metamodel::PrivateMethodContainer</title>
<path fill="none" stroke="#6666ff" d="M47.4818,120.616C38.8473,67.2673 14.2868,-84.48 14.2868,-84.48 14.2868,-84.48 25.2284,-230.202 29.9402,-292.955"/>
<polygon fill="#6666ff" stroke="#6666ff" points="26.4531,-293.258 30.6921,-302.968 33.4334,-292.734 26.4531,-293.258"/>
</g>
<!-- Metamodel::ParametricRoleHOW&#45;&gt;Metamodel::MultiMethodContainer -->
<g id="edge45" class="edge"><title>Metamodel::ParametricRoleHOW&#45;&gt;Metamodel::MultiMethodContainer</title>
<path fill="none" stroke="#6666ff" d="M-4.81961,122.157C-96.0506,94.5236 -277.72,39.4961 -374.832,10.081"/>
<polygon fill="#6666ff" stroke="#6666ff" points="-375.975,13.3919 -384.531,7.14317 -373.945,6.69245 -375.975,13.3919"/>
</g>
<!-- Metamodel::ParametricRoleHOW&#45;&gt;Metamodel::RoleContainer -->
<g id="edge47" class="edge"><title>Metamodel::ParametricRoleHOW&#45;&gt;Metamodel::RoleContainer</title>
<path fill="none" stroke="#6666ff" d="M142.662,125.136C271.359,105.934 503.547,71.292 632.923,51.989"/>
<polygon fill="#6666ff" stroke="#6666ff" points="632.414,48.5262 642.821,50.5121 633.447,55.4496 632.414,48.5262"/>
</g>
<!-- Metamodel::ParametricRoleHOW&#45;&gt;Metamodel::MultipleInheritance -->
<g id="edge48" class="edge"><title>Metamodel::ParametricRoleHOW&#45;&gt;Metamodel::MultipleInheritance</title>
<path fill="none" stroke="#6666ff" d="M58.5694,120.613C75.9662,81.4853 116.893,-10.5634 137.486,-56.8786"/>
<polygon fill="#6666ff" stroke="#6666ff" points="134.412,-58.5805 141.673,-66.2961 140.808,-55.7366 134.412,-58.5805"/>
</g>
<!-- Metamodel::ParametricRoleHOW&#45;&gt;Metamodel::RolePunning -->
<g id="edge51" class="edge"><title>Metamodel::ParametricRoleHOW&#45;&gt;Metamodel::RolePunning</title>
<path fill="none" stroke="#6666ff" d="M16.4625,156.518C-115.688,225.054 -595.288,473.788 -741.033,549.376"/>
<polygon fill="#6666ff" stroke="#6666ff" points="-739.654,552.603 -750.143,554.1 -742.877,546.389 -739.654,552.603"/>
</g>
<!-- Metamodel::NativeHOW -->
<g id="node30" class="node"><title>Metamodel::NativeHOW</title>
<g id="a_node30"><a xlink:href="/type/Metamodel::NativeHOW" xlink:title="Metamodel::NativeHOW">
<ellipse fill="none" stroke="#000000" cx="-214.463" cy="141.086" rx="107.482" ry="18"/>
<text text-anchor="middle" x="-214.463" y="144.786" font-family="FreeSans" font-size="14.00" fill="#000000">Metamodel::NativeHOW</text>
</a>
</g>
</g>
<!-- Metamodel::NativeHOW&#45;&gt;Metamodel::Documenting -->
<g id="edge53" class="edge"><title>Metamodel::NativeHOW&#45;&gt;Metamodel::Documenting</title>
<path fill="none" stroke="#6666ff" d="M-213.727,159.432C-212.032,201.677 -207.845,306.071 -205.814,356.711"/>
<polygon fill="#6666ff" stroke="#6666ff" points="-202.307,356.812 -205.403,366.944 -209.301,357.092 -202.307,356.812"/>
</g>
<!-- Metamodel::NativeHOW&#45;&gt;Any -->
<g id="edge7" class="edge"><title>Metamodel::NativeHOW&#45;&gt;Any</title>
<path fill="none" stroke="#000000" d="M-191.898,158.8C-135.112,203.377 13.451,320.001 73.5326,367.166"/>
<polygon fill="#000000" stroke="#000000" points="76.0289,364.676 81.7336,373.604 71.7066,370.182 76.0289,364.676"/>
</g>
<!-- Metamodel::NativeHOW&#45;&gt;Metamodel::Naming -->
<g id="edge52" class="edge"><title>Metamodel::NativeHOW&#45;&gt;Metamodel::Naming</title>
<path fill="none" stroke="#6666ff" d="M-248.464,158.289C-304.847,186.817 -417.557,243.844 -478.966,274.916"/>
<polygon fill="#6666ff" stroke="#6666ff" points="-477.5,278.096 -488.004,279.488 -480.661,271.85 -477.5,278.096"/>
</g>
<!-- Metamodel::NativeHOW&#45;&gt;Metamodel::Stashing -->
<g id="edge55" class="edge"><title>Metamodel::NativeHOW&#45;&gt;Metamodel::Stashing</title>
<path fill="none" stroke="#6666ff" d="M-115.723,148.184C-80.9795,150.682 -50.4152,152.88 -50.4152,152.88 -50.4152,152.88 129.765,163.138 247.683,169.851"/>
<polygon fill="#6666ff" stroke="#6666ff" points="248.044,166.366 257.829,170.429 247.646,173.355 248.044,166.366"/>
</g>
<!-- Metamodel::NativeHOW&#45;&gt;Metamodel::Versioning -->
<g id="edge54" class="edge"><title>Metamodel::NativeHOW&#45;&gt;Metamodel::Versioning</title>
<path fill="none" stroke="#6666ff" d="M-160.664,125.452C-42.7644,91.1896 237.861,9.63883 363.52,-26.8782"/>
<polygon fill="#6666ff" stroke="#6666ff" points="362.802,-30.3143 373.381,-29.744 364.755,-23.5924 362.802,-30.3143"/>
</g>
<!-- Metamodel::NativeHOW&#45;&gt;Metamodel::MultipleInheritance -->
<g id="edge56" class="edge"><title>Metamodel::NativeHOW&#45;&gt;Metamodel::MultipleInheritance</title>
<path fill="none" stroke="#6666ff" d="M-186.185,123.571C-121.107,83.2621 39.2722,-16.0745 112.377,-61.3545"/>
<polygon fill="#6666ff" stroke="#6666ff" points="110.919,-64.5687 121.264,-66.8589 114.605,-58.6177 110.919,-64.5687"/>
</g>
<!-- Metamodel::NativeHOW&#45;&gt;Metamodel::C3MRO -->
<g id="edge57" class="edge"><title>Metamodel::NativeHOW&#45;&gt;Metamodel::C3MRO</title>
<path fill="none" stroke="#6666ff" d="M-223.786,122.902C-244.343,82.8074 -291.755,-9.66296 -291.755,-9.66296 -291.755,-9.66296 -675.887,-403.646 -777.352,-507.713"/>
<polygon fill="#6666ff" stroke="#6666ff" points="-779.954,-505.367 -784.429,-514.971 -774.941,-510.254 -779.954,-505.367"/>
</g>
<!-- Metamodel::NativeHOW&#45;&gt;Metamodel::MROBasedMethodDispatch -->
<g id="edge58" class="edge"><title>Metamodel::NativeHOW&#45;&gt;Metamodel::MROBasedMethodDispatch</title>
<path fill="none" stroke="#6666ff" d="M-218.469,122.982C-233.252,56.1866 -284.807,-176.77 -302.831,-258.214"/>
<polygon fill="#6666ff" stroke="#6666ff" points="-306.306,-257.718 -305.05,-268.239 -299.472,-259.231 -306.306,-257.718"/>
</g>
<!-- Metamodel::NativeHOW&#45;&gt;Metamodel::MROBasedTypeChecking -->
<g id="edge59" class="edge"><title>Metamodel::NativeHOW&#45;&gt;Metamodel::MROBasedTypeChecking</title>
<path fill="none" stroke="#6666ff" d="M-223.786,122.902C-244.343,82.8074 -291.755,-9.66296 -291.755,-9.66296 -291.755,-9.66296 -547.193,-139.785 -651.753,-193.048"/>
<polygon fill="#6666ff" stroke="#6666ff" points="-653.475,-189.998 -660.797,-197.655 -650.297,-196.235 -653.475,-189.998"/>
</g>
</g>
</svg>
