<?xml version="1.0" encoding="UTF-8" standalone="no"?>
<!DOCTYPE svg PUBLIC "-//W3C//DTD SVG 1.1//EN"
 "http://www.w3.org/Graphics/SVG/1.1/DTD/svg11.dtd">
<!-- Generated by graphviz version 2.38.0 (20140413.2041)
 -->
<!-- Title: perl6&#45;type&#45;graph Pages: 1 -->
<svg width="199pt" height="404pt"
 viewBox="0.00 0.00 198.89 404.00" xmlns="http://www.w3.org/2000/svg" xmlns:xlink="http://www.w3.org/1999/xlink">
<g id="graph0" class="graph" transform="scale(1 1) rotate(0) translate(4 400)">
<title>perl6&#45;type&#45;graph</title>
<polygon fill="white" stroke="none" points="-4,4 -4,-400 194.893,-400 194.893,4 -4,4"/>
<!-- X::IO::Dir -->
<g id="node1" class="node"><title>X::IO::Dir</title>
<g id="a_node1"><a xlink:href="/type/X::IO::Dir" xlink:title="X::IO::Dir">
<ellipse fill="none" stroke="#000000" cx="47.4458" cy="-18" rx="47.3916" ry="18"/>
<text text-anchor="middle" x="47.4458" y="-14.3" font-family="FreeSans" font-size="14.00" fill="#000000">X::IO::Dir</text>
</a>
</g>
</g>
<!-- Exception -->
<g id="node4" class="node"><title>Exception</title>
<g id="a_node4"><a xlink:href="/type/Exception" xlink:title="Exception">
<ellipse fill="none" stroke="#000000" cx="70.4458" cy="-234" rx="49.2915" ry="18"/>
<text text-anchor="middle" x="70.4458" y="-230.3" font-family="FreeSans" font-size="14.00" fill="#000000">Exception</text>
</a>
</g>
</g>
<!-- X::IO::Dir&#45;&gt;Exception -->
<g id="edge1" class="edge"><title>X::IO::Dir&#45;&gt;Exception</title>
<path fill="none" stroke="#000000" d="M45.4116,-36.1508C45.8563,-73.3384 55.0874,-161.626 62.9178,-206.228"/>
<polygon fill="#000000" stroke="#000000" points="59.4797,-206.884 64.7688,-216.065 66.3589,-205.59 59.4797,-206.884"/>
</g>
<!-- X::IO::Dir&#45;&gt;Exception -->
<g id="edge2" class="edge"><title>X::IO::Dir&#45;&gt;Exception</title>
<path fill="none" stroke="#000000" d="M53.1666,-36.1508C60.681,-73.1683 70.3729,-160.819 72.1946,-205.614"/>
<polygon fill="#000000" stroke="#000000" points="68.7003,-205.87 72.479,-215.768 75.6975,-205.673 68.7003,-205.87"/>
</g>
<!-- X::IO -->
<g id="node6" class="node"><title>X::IO</title>
<g id="a_node6"><a xlink:href="/type/X::IO" xlink:title="X::IO">
<ellipse fill="none" stroke="#6666ff" cx="115.446" cy="-90" rx="31.3957" ry="18"/>
<text text-anchor="middle" x="115.446" y="-86.3" font-family="FreeSans" font-size="14.00" fill="#6666ff">X::IO</text>
</a>
</g>
</g>
<!-- X::IO::Dir&#45;&gt;X::IO -->
<g id="edge7" class="edge"><title>X::IO::Dir&#45;&gt;X::IO</title>
<path fill="none" stroke="#6666ff" d="M63.2173,-35.2354C72.2215,-44.5044 83.6474,-56.2664 93.5148,-66.424"/>
<polygon fill="#6666ff" stroke="#6666ff" points="91.2124,-69.077 100.691,-73.811 96.2334,-64.1995 91.2124,-69.077"/>
</g>
<!-- Mu -->
<g id="node2" class="node"><title>Mu</title>
<g id="a_node2"><a xlink:href="/type/Mu" xlink:title="Mu">
<ellipse fill="none" stroke="#000000" cx="70.4458" cy="-378" rx="27" ry="18"/>
<text text-anchor="middle" x="70.4458" y="-374.3" font-family="FreeSans" font-size="14.00" fill="#000000">Mu</text>
</a>
</g>
</g>
<!-- Any -->
<g id="node3" class="node"><title>Any</title>
<g id="a_node3"><a xlink:href="/type/Any" xlink:title="Any">
<ellipse fill="none" stroke="#000000" cx="70.4458" cy="-306" rx="27" ry="18"/>
<text text-anchor="middle" x="70.4458" y="-302.3" font-family="FreeSans" font-size="14.00" fill="#000000">Any</text>
</a>
</g>
</g>
<!-- Any&#45;&gt;Mu -->
<g id="edge3" class="edge"><title>Any&#45;&gt;Mu</title>
<path fill="none" stroke="#000000" d="M70.4458,-324.303C70.4458,-332.017 70.4458,-341.288 70.4458,-349.888"/>
<polygon fill="#000000" stroke="#000000" points="66.9459,-349.896 70.4458,-359.896 73.9459,-349.896 66.9459,-349.896"/>
</g>
<!-- Exception&#45;&gt;Any -->
<g id="edge4" class="edge"><title>Exception&#45;&gt;Any</title>
<path fill="none" stroke="#000000" d="M70.4458,-252.303C70.4458,-260.017 70.4458,-269.288 70.4458,-277.888"/>
<polygon fill="#000000" stroke="#000000" points="66.9459,-277.896 70.4458,-287.896 73.9459,-277.896 66.9459,-277.896"/>
</g>
<!-- X::OS -->
<g id="node5" class="node"><title>X::OS</title>
<g id="a_node5"><a xlink:href="/type/X::OS" xlink:title="X::OS">
<ellipse fill="none" stroke="#6666ff" cx="156.446" cy="-162" rx="34.394" ry="18"/>
<text text-anchor="middle" x="156.446" y="-158.3" font-family="FreeSans" font-size="14.00" fill="#6666ff">X::OS</text>
</a>
</g>
</g>
<!-- X::OS&#45;&gt;Exception -->
<g id="edge5" class="edge"><title>X::OS&#45;&gt;Exception</title>
<path fill="none" stroke="#000000" d="M138.627,-177.504C126.811,-187.121 111.079,-199.926 97.7045,-210.813"/>
<polygon fill="#000000" stroke="#000000" points="95.2837,-208.27 89.7375,-217.297 99.7026,-213.699 95.2837,-208.27"/>
</g>
<!-- X::IO&#45;&gt;Exception -->
<g id="edge6" class="edge"><title>X::IO&#45;&gt;Exception</title>
<path fill="none" stroke="#000000" d="M110.107,-107.847C102.435,-132.056 88.2094,-176.946 79.0442,-205.867"/>
<polygon fill="#000000" stroke="#000000" points="75.6025,-205.142 75.918,-215.732 82.2755,-207.257 75.6025,-205.142"/>
</g>
<!-- X::IO&#45;&gt;X::OS -->
<g id="edge8" class="edge"><title>X::IO&#45;&gt;X::OS</title>
<path fill="none" stroke="#6666ff" d="M124.955,-107.235C129.903,-115.683 136.063,-126.201 141.62,-135.688"/>
<polygon fill="#6666ff" stroke="#6666ff" points="138.629,-137.507 146.703,-144.367 144.669,-133.969 138.629,-137.507"/>
</g>
</g>
</svg>
