<?xml version="1.0" encoding="UTF-8" standalone="no"?>
<!DOCTYPE svg PUBLIC "-//W3C//DTD SVG 1.1//EN"
 "http://www.w3.org/Graphics/SVG/1.1/DTD/svg11.dtd">
<!-- Generated by graphviz version 2.38.0 (20140413.2041)
 -->
<!-- Title: perl6&#45;type&#45;graph Pages: 1 -->
<svg width="198pt" height="332pt"
 viewBox="0.00 0.00 197.78 332.00" xmlns="http://www.w3.org/2000/svg" xmlns:xlink="http://www.w3.org/1999/xlink">
<g id="graph0" class="graph" transform="scale(1 1) rotate(0) translate(4 328)">
<title>perl6&#45;type&#45;graph</title>
<polygon fill="white" stroke="none" points="-4,4 -4,-328 193.783,-328 193.783,4 -4,4"/>
<!-- X::Parameter::Default -->
<g id="node1" class="node"><title>X::Parameter::Default</title>
<g id="a_node1"><a xlink:href="/type/X::Parameter::Default" xlink:title="X::Parameter::Default">
<ellipse fill="none" stroke="#000000" cx="94.8916" cy="-18" rx="94.7833" ry="18"/>
<text text-anchor="middle" x="94.8916" y="-14.3" font-family="FreeSans" font-size="14.00" fill="#000000">X::Parameter::Default</text>
</a>
</g>
</g>
<!-- Exception -->
<g id="node4" class="node"><title>Exception</title>
<g id="a_node4"><a xlink:href="/type/Exception" xlink:title="Exception">
<ellipse fill="none" stroke="#000000" cx="94.8916" cy="-162" rx="49.2915" ry="18"/>
<text text-anchor="middle" x="94.8916" y="-158.3" font-family="FreeSans" font-size="14.00" fill="#000000">Exception</text>
</a>
</g>
</g>
<!-- X::Parameter::Default&#45;&gt;Exception -->
<g id="edge1" class="edge"><title>X::Parameter::Default&#45;&gt;Exception</title>
<path fill="none" stroke="#000000" d="M89.4191,-36.0613C84.4495,-51.5549 77.8916,-72 77.8916,-72 77.8916,-72 77.8916,-108 77.8916,-108 77.8916,-108 82.0559,-120.983 86.2624,-134.097"/>
<polygon fill="#000000" stroke="#000000" points="83.032,-135.486 89.4191,-143.939 89.6975,-133.348 83.032,-135.486"/>
</g>
<!-- X::Comp -->
<g id="node5" class="node"><title>X::Comp</title>
<g id="a_node5"><a xlink:href="/type/X::Comp" xlink:title="X::Comp">
<ellipse fill="none" stroke="#6666ff" cx="131.892" cy="-90" rx="44.6926" ry="18"/>
<text text-anchor="middle" x="131.892" y="-86.3" font-family="FreeSans" font-size="14.00" fill="#6666ff">X::Comp</text>
</a>
</g>
</g>
<!-- X::Parameter::Default&#45;&gt;X::Comp -->
<g id="edge5" class="edge"><title>X::Parameter::Default&#45;&gt;X::Comp</title>
<path fill="none" stroke="#6666ff" d="M103.848,-35.945C108.166,-44.1134 113.438,-54.0884 118.242,-63.1756"/>
<polygon fill="#6666ff" stroke="#6666ff" points="115.25,-65.0056 123.017,-72.211 121.439,-61.7344 115.25,-65.0056"/>
</g>
<!-- Mu -->
<g id="node2" class="node"><title>Mu</title>
<g id="a_node2"><a xlink:href="/type/Mu" xlink:title="Mu">
<ellipse fill="none" stroke="#000000" cx="94.8916" cy="-306" rx="27" ry="18"/>
<text text-anchor="middle" x="94.8916" y="-302.3" font-family="FreeSans" font-size="14.00" fill="#000000">Mu</text>
</a>
</g>
</g>
<!-- Any -->
<g id="node3" class="node"><title>Any</title>
<g id="a_node3"><a xlink:href="/type/Any" xlink:title="Any">
<ellipse fill="none" stroke="#000000" cx="94.8916" cy="-234" rx="27" ry="18"/>
<text text-anchor="middle" x="94.8916" y="-230.3" font-family="FreeSans" font-size="14.00" fill="#000000">Any</text>
</a>
</g>
</g>
<!-- Any&#45;&gt;Mu -->
<g id="edge2" class="edge"><title>Any&#45;&gt;Mu</title>
<path fill="none" stroke="#000000" d="M94.8916,-252.303C94.8916,-260.017 94.8916,-269.288 94.8916,-277.888"/>
<polygon fill="#000000" stroke="#000000" points="91.3917,-277.896 94.8916,-287.896 98.3917,-277.896 91.3917,-277.896"/>
</g>
<!-- Exception&#45;&gt;Any -->
<g id="edge3" class="edge"><title>Exception&#45;&gt;Any</title>
<path fill="none" stroke="#000000" d="M94.8916,-180.303C94.8916,-188.017 94.8916,-197.288 94.8916,-205.888"/>
<polygon fill="#000000" stroke="#000000" points="91.3917,-205.896 94.8916,-215.896 98.3917,-205.896 91.3917,-205.896"/>
</g>
<!-- X::Comp&#45;&gt;Exception -->
<g id="edge4" class="edge"><title>X::Comp&#45;&gt;Exception</title>
<path fill="none" stroke="#000000" d="M122.935,-107.945C118.617,-116.113 113.345,-126.088 108.542,-135.176"/>
<polygon fill="#000000" stroke="#000000" points="105.345,-133.734 103.766,-144.211 111.533,-137.006 105.345,-133.734"/>
</g>
</g>
</svg>
