<?xml version="1.0" encoding="UTF-8" standalone="no"?>
<!DOCTYPE svg PUBLIC "-//W3C//DTD SVG 1.1//EN"
 "http://www.w3.org/Graphics/SVG/1.1/DTD/svg11.dtd">
<!-- Generated by graphviz version 2.38.0 (20140413.2041)
 -->
<!-- Title: perl6&#45;type&#45;graph Pages: 1 -->
<svg width="333pt" height="404pt"
 viewBox="0.00 0.00 332.97 404.00" xmlns="http://www.w3.org/2000/svg" xmlns:xlink="http://www.w3.org/1999/xlink">
<g id="graph0" class="graph" transform="scale(1 1) rotate(0) translate(4 400)">
<title>perl6&#45;type&#45;graph</title>
<polygon fill="white" stroke="none" points="-4,4 -4,-400 328.971,-400 328.971,4 -4,4"/>
<!-- X::Syntax::Number::RadixOutOfRange -->
<g id="node1" class="node"><title>X::Syntax::Number::RadixOutOfRange</title>
<g id="a_node1"><a xlink:href="/type/X::Syntax::Number::RadixOutOfRange" xlink:title="X::Syntax::Number::RadixOutOfRange">
<ellipse fill="none" stroke="#000000" cx="162.486" cy="-18" rx="162.471" ry="18"/>
<text text-anchor="middle" x="162.486" y="-14.3" font-family="FreeSans" font-size="14.00" fill="#000000">X::Syntax::Number::RadixOutOfRange</text>
</a>
</g>
</g>
<!-- Exception -->
<g id="node4" class="node"><title>Exception</title>
<g id="a_node4"><a xlink:href="/type/Exception" xlink:title="Exception">
<ellipse fill="none" stroke="#000000" cx="162.486" cy="-234" rx="49.2915" ry="18"/>
<text text-anchor="middle" x="162.486" y="-230.3" font-family="FreeSans" font-size="14.00" fill="#000000">Exception</text>
</a>
</g>
</g>
<!-- X::Syntax::Number::RadixOutOfRange&#45;&gt;Exception -->
<g id="edge1" class="edge"><title>X::Syntax::Number::RadixOutOfRange&#45;&gt;Exception</title>
<path fill="none" stroke="#000000" d="M156.369,-36.0613C150.815,-51.5549 143.486,-72 143.486,-72 143.486,-72 143.486,-108 143.486,-108 143.486,-108 152.759,-169.008 158.348,-205.782"/>
<polygon fill="#000000" stroke="#000000" points="154.92,-206.521 159.884,-215.881 161.841,-205.469 154.92,-206.521"/>
</g>
<!-- X::Syntax -->
<g id="node6" class="node"><title>X::Syntax</title>
<g id="a_node6"><a xlink:href="/type/X::Syntax" xlink:title="X::Syntax">
<ellipse fill="none" stroke="#6666ff" cx="200.486" cy="-90" rx="48.1917" ry="18"/>
<text text-anchor="middle" x="200.486" y="-86.3" font-family="FreeSans" font-size="14.00" fill="#6666ff">X::Syntax</text>
</a>
</g>
</g>
<!-- X::Syntax::Number::RadixOutOfRange&#45;&gt;X::Syntax -->
<g id="edge6" class="edge"><title>X::Syntax::Number::RadixOutOfRange&#45;&gt;X::Syntax</title>
<path fill="none" stroke="#6666ff" d="M171.879,-36.3034C176.25,-44.3564 181.543,-54.1055 186.381,-63.0176"/>
<polygon fill="#6666ff" stroke="#6666ff" points="183.353,-64.777 191.2,-71.8957 189.505,-61.4373 183.353,-64.777"/>
</g>
<!-- Mu -->
<g id="node2" class="node"><title>Mu</title>
<g id="a_node2"><a xlink:href="/type/Mu" xlink:title="Mu">
<ellipse fill="none" stroke="#000000" cx="162.486" cy="-378" rx="27" ry="18"/>
<text text-anchor="middle" x="162.486" y="-374.3" font-family="FreeSans" font-size="14.00" fill="#000000">Mu</text>
</a>
</g>
</g>
<!-- Any -->
<g id="node3" class="node"><title>Any</title>
<g id="a_node3"><a xlink:href="/type/Any" xlink:title="Any">
<ellipse fill="none" stroke="#000000" cx="162.486" cy="-306" rx="27" ry="18"/>
<text text-anchor="middle" x="162.486" y="-302.3" font-family="FreeSans" font-size="14.00" fill="#000000">Any</text>
</a>
</g>
</g>
<!-- Any&#45;&gt;Mu -->
<g id="edge2" class="edge"><title>Any&#45;&gt;Mu</title>
<path fill="none" stroke="#000000" d="M162.486,-324.303C162.486,-332.017 162.486,-341.288 162.486,-349.888"/>
<polygon fill="#000000" stroke="#000000" points="158.986,-349.896 162.486,-359.896 165.986,-349.896 158.986,-349.896"/>
</g>
<!-- Exception&#45;&gt;Any -->
<g id="edge3" class="edge"><title>Exception&#45;&gt;Any</title>
<path fill="none" stroke="#000000" d="M162.486,-252.303C162.486,-260.017 162.486,-269.288 162.486,-277.888"/>
<polygon fill="#000000" stroke="#000000" points="158.986,-277.896 162.486,-287.896 165.986,-277.896 158.986,-277.896"/>
</g>
<!-- X::Comp -->
<g id="node5" class="node"><title>X::Comp</title>
<g id="a_node5"><a xlink:href="/type/X::Comp" xlink:title="X::Comp">
<ellipse fill="none" stroke="#6666ff" cx="235.486" cy="-162" rx="44.6926" ry="18"/>
<text text-anchor="middle" x="235.486" y="-158.3" font-family="FreeSans" font-size="14.00" fill="#6666ff">X::Comp</text>
</a>
</g>
</g>
<!-- X::Comp&#45;&gt;Exception -->
<g id="edge4" class="edge"><title>X::Comp&#45;&gt;Exception</title>
<path fill="none" stroke="#000000" d="M218.921,-178.884C209.375,-188.038 197.205,-199.707 186.612,-209.865"/>
<polygon fill="#000000" stroke="#000000" points="184.033,-207.489 179.238,-216.936 188.878,-212.541 184.033,-207.489"/>
</g>
<!-- X::Syntax&#45;&gt;Exception -->
<g id="edge5" class="edge"><title>X::Syntax&#45;&gt;Exception</title>
<path fill="none" stroke="#000000" d="M194.369,-108.061C188.815,-123.555 181.486,-144 181.486,-144 181.486,-144 173.836,-179.833 168.244,-206.025"/>
<polygon fill="#000000" stroke="#000000" points="164.814,-205.33 166.149,-215.84 171.66,-206.791 164.814,-205.33"/>
</g>
<!-- X::Syntax&#45;&gt;X::Comp -->
<g id="edge7" class="edge"><title>X::Syntax&#45;&gt;X::Comp</title>
<path fill="none" stroke="#6666ff" d="M208.958,-107.945C213.042,-116.113 218.03,-126.088 222.573,-135.176"/>
<polygon fill="#6666ff" stroke="#6666ff" points="219.488,-136.832 227.091,-144.211 225.749,-133.701 219.488,-136.832"/>
</g>
</g>
</svg>
