<?xml version="1.0" encoding="UTF-8" standalone="no"?>
<!DOCTYPE svg PUBLIC "-//W3C//DTD SVG 1.1//EN"
 "http://www.w3.org/Graphics/SVG/1.1/DTD/svg11.dtd">
<!-- Generated by graphviz version 2.38.0 (20140413.2041)
 -->
<!-- Title: perl6&#45;type&#45;graph Pages: 1 -->
<svg width="377pt" height="260pt"
 viewBox="0.00 0.00 377.09 260.00" xmlns="http://www.w3.org/2000/svg" xmlns:xlink="http://www.w3.org/1999/xlink">
<g id="graph0" class="graph" transform="scale(1 1) rotate(0) translate(4 256)">
<title>perl6&#45;type&#45;graph</title>
<polygon fill="white" stroke="none" points="-4,4 -4,-256 373.089,-256 373.089,4 -4,4"/>
<!-- Seq -->
<g id="node1" class="node"><title>Seq</title>
<g id="a_node1"><a xlink:href="/type/Seq" xlink:title="Seq">
<ellipse fill="none" stroke="#000000" cx="115.597" cy="-18" rx="27" ry="18"/>
<text text-anchor="middle" x="115.597" y="-14.3" font-family="FreeSans" font-size="14.00" fill="#000000">Seq</text>
</a>
</g>
</g>
<!-- Cool -->
<g id="node4" class="node"><title>Cool</title>
<g id="a_node4"><a xlink:href="/type/Cool" xlink:title="Cool">
<ellipse fill="none" stroke="#000000" cx="28.5975" cy="-90" rx="28.6953" ry="18"/>
<text text-anchor="middle" x="28.5975" y="-86.3" font-family="FreeSans" font-size="14.00" fill="#000000">Cool</text>
</a>
</g>
</g>
<!-- Seq&#45;&gt;Cool -->
<g id="edge1" class="edge"><title>Seq&#45;&gt;Cool</title>
<path fill="none" stroke="#000000" d="M98.823,-32.4967C86.0273,-42.7921 68.1945,-57.1403 53.7014,-68.8014"/>
<polygon fill="#000000" stroke="#000000" points="51.2144,-66.3102 45.6173,-75.3059 55.6026,-71.764 51.2144,-66.3102"/>
</g>
<!-- Iterable -->
<g id="node5" class="node"><title>Iterable</title>
<g id="a_node5"><a xlink:href="/type/Iterable" xlink:title="Iterable">
<ellipse fill="none" stroke="#6666ff" cx="115.597" cy="-90" rx="40.0939" ry="18"/>
<text text-anchor="middle" x="115.597" y="-86.3" font-family="FreeSans" font-size="14.00" fill="#6666ff">Iterable</text>
</a>
</g>
</g>
<!-- Seq&#45;&gt;Iterable -->
<g id="edge4" class="edge"><title>Seq&#45;&gt;Iterable</title>
<path fill="none" stroke="#6666ff" d="M115.597,-36.3034C115.597,-44.0173 115.597,-53.2875 115.597,-61.8876"/>
<polygon fill="#6666ff" stroke="#6666ff" points="112.098,-61.8956 115.597,-71.8957 119.098,-61.8957 112.098,-61.8956"/>
</g>
<!-- PositionalBindFailover -->
<g id="node6" class="node"><title>PositionalBindFailover</title>
<g id="a_node6"><a xlink:href="/type/PositionalBindFailover" xlink:title="PositionalBindFailover">
<ellipse fill="none" stroke="#6666ff" cx="271.597" cy="-90" rx="97.4827" ry="18"/>
<text text-anchor="middle" x="271.597" y="-86.3" font-family="FreeSans" font-size="14.00" fill="#6666ff">PositionalBindFailover</text>
</a>
</g>
</g>
<!-- Seq&#45;&gt;PositionalBindFailover -->
<g id="edge5" class="edge"><title>Seq&#45;&gt;PositionalBindFailover</title>
<path fill="none" stroke="#6666ff" d="M137.289,-28.7332C160.405,-39.106 197.65,-55.8186 227.062,-69.0162"/>
<polygon fill="#6666ff" stroke="#6666ff" points="225.752,-72.2644 236.308,-73.1651 228.618,-65.8779 225.752,-72.2644"/>
</g>
<!-- Mu -->
<g id="node2" class="node"><title>Mu</title>
<g id="a_node2"><a xlink:href="/type/Mu" xlink:title="Mu">
<ellipse fill="none" stroke="#000000" cx="28.5975" cy="-234" rx="27" ry="18"/>
<text text-anchor="middle" x="28.5975" y="-230.3" font-family="FreeSans" font-size="14.00" fill="#000000">Mu</text>
</a>
</g>
</g>
<!-- Any -->
<g id="node3" class="node"><title>Any</title>
<g id="a_node3"><a xlink:href="/type/Any" xlink:title="Any">
<ellipse fill="none" stroke="#000000" cx="28.5975" cy="-162" rx="27" ry="18"/>
<text text-anchor="middle" x="28.5975" y="-158.3" font-family="FreeSans" font-size="14.00" fill="#000000">Any</text>
</a>
</g>
</g>
<!-- Any&#45;&gt;Mu -->
<g id="edge2" class="edge"><title>Any&#45;&gt;Mu</title>
<path fill="none" stroke="#000000" d="M28.5975,-180.303C28.5975,-188.017 28.5975,-197.288 28.5975,-205.888"/>
<polygon fill="#000000" stroke="#000000" points="25.0976,-205.896 28.5975,-215.896 32.0976,-205.896 25.0976,-205.896"/>
</g>
<!-- Cool&#45;&gt;Any -->
<g id="edge3" class="edge"><title>Cool&#45;&gt;Any</title>
<path fill="none" stroke="#000000" d="M28.5975,-108.303C28.5975,-116.017 28.5975,-125.288 28.5975,-133.888"/>
<polygon fill="#000000" stroke="#000000" points="25.0976,-133.896 28.5975,-143.896 32.0976,-133.896 25.0976,-133.896"/>
</g>
</g>
</svg>
