<?xml version="1.0" encoding="UTF-8" standalone="no"?>
<!DOCTYPE svg PUBLIC "-//W3C//DTD SVG 1.1//EN"
 "http://www.w3.org/Graphics/SVG/1.1/DTD/svg11.dtd">
<!-- Generated by graphviz version 2.38.0 (20140413.2041)
 -->
<!-- Title: perl6&#45;type&#45;graph Pages: 1 -->
<svg width="279pt" height="332pt"
 viewBox="0.00 0.00 278.89 332.00" xmlns="http://www.w3.org/2000/svg" xmlns:xlink="http://www.w3.org/1999/xlink">
<g id="graph0" class="graph" transform="scale(1 1) rotate(0) translate(4 328)">
<title>perl6&#45;type&#45;graph</title>
<polygon fill="white" stroke="none" points="-4,4 -4,-328 274.894,-328 274.894,4 -4,4"/>
<!-- Array -->
<g id="node1" class="node"><title>Array</title>
<g id="a_node1"><a xlink:href="/type/Array" xlink:title="Array">
<ellipse fill="none" stroke="#000000" cx="123.597" cy="-18" rx="31.6951" ry="18"/>
<text text-anchor="middle" x="123.597" y="-14.3" font-family="FreeSans" font-size="14.00" fill="#000000">Array</text>
</a>
</g>
</g>
<!-- List -->
<g id="node7" class="node"><title>List</title>
<g id="a_node7"><a xlink:href="/type/List" xlink:title="List">
<ellipse fill="none" stroke="#000000" cx="123.597" cy="-90" rx="27" ry="18"/>
<text text-anchor="middle" x="123.597" y="-86.3" font-family="FreeSans" font-size="14.00" fill="#000000">List</text>
</a>
</g>
</g>
<!-- Array&#45;&gt;List -->
<g id="edge1" class="edge"><title>Array&#45;&gt;List</title>
<path fill="none" stroke="#000000" d="M123.597,-36.3034C123.597,-44.0173 123.597,-53.2875 123.597,-61.8876"/>
<polygon fill="#000000" stroke="#000000" points="120.098,-61.8956 123.597,-71.8957 127.098,-61.8957 120.098,-61.8956"/>
</g>
<!-- Mu -->
<g id="node2" class="node"><title>Mu</title>
<g id="a_node2"><a xlink:href="/type/Mu" xlink:title="Mu">
<ellipse fill="none" stroke="#000000" cx="28.5975" cy="-306" rx="27" ry="18"/>
<text text-anchor="middle" x="28.5975" y="-302.3" font-family="FreeSans" font-size="14.00" fill="#000000">Mu</text>
</a>
</g>
</g>
<!-- Any -->
<g id="node3" class="node"><title>Any</title>
<g id="a_node3"><a xlink:href="/type/Any" xlink:title="Any">
<ellipse fill="none" stroke="#000000" cx="28.5975" cy="-234" rx="27" ry="18"/>
<text text-anchor="middle" x="28.5975" y="-230.3" font-family="FreeSans" font-size="14.00" fill="#000000">Any</text>
</a>
</g>
</g>
<!-- Any&#45;&gt;Mu -->
<g id="edge2" class="edge"><title>Any&#45;&gt;Mu</title>
<path fill="none" stroke="#000000" d="M28.5975,-252.303C28.5975,-260.017 28.5975,-269.288 28.5975,-277.888"/>
<polygon fill="#000000" stroke="#000000" points="25.0976,-277.896 28.5975,-287.896 32.0976,-277.896 25.0976,-277.896"/>
</g>
<!-- Cool -->
<g id="node4" class="node"><title>Cool</title>
<g id="a_node4"><a xlink:href="/type/Cool" xlink:title="Cool">
<ellipse fill="none" stroke="#000000" cx="28.5975" cy="-162" rx="28.6953" ry="18"/>
<text text-anchor="middle" x="28.5975" y="-158.3" font-family="FreeSans" font-size="14.00" fill="#000000">Cool</text>
</a>
</g>
</g>
<!-- Cool&#45;&gt;Any -->
<g id="edge3" class="edge"><title>Cool&#45;&gt;Any</title>
<path fill="none" stroke="#000000" d="M28.5975,-180.303C28.5975,-188.017 28.5975,-197.288 28.5975,-205.888"/>
<polygon fill="#000000" stroke="#000000" points="25.0976,-205.896 28.5975,-215.896 32.0976,-205.896 25.0976,-205.896"/>
</g>
<!-- Positional -->
<g id="node5" class="node"><title>Positional</title>
<g id="a_node5"><a xlink:href="/type/Positional" xlink:title="Positional">
<ellipse fill="none" stroke="#6666ff" cx="123.597" cy="-162" rx="48.9926" ry="18"/>
<text text-anchor="middle" x="123.597" y="-158.3" font-family="FreeSans" font-size="14.00" fill="#6666ff">Positional</text>
</a>
</g>
</g>
<!-- Iterable -->
<g id="node6" class="node"><title>Iterable</title>
<g id="a_node6"><a xlink:href="/type/Iterable" xlink:title="Iterable">
<ellipse fill="none" stroke="#6666ff" cx="230.597" cy="-162" rx="40.0939" ry="18"/>
<text text-anchor="middle" x="230.597" y="-158.3" font-family="FreeSans" font-size="14.00" fill="#6666ff">Iterable</text>
</a>
</g>
</g>
<!-- List&#45;&gt;Cool -->
<g id="edge4" class="edge"><title>List&#45;&gt;Cool</title>
<path fill="none" stroke="#000000" d="M106.173,-103.839C91.7588,-114.46 71.0675,-129.706 54.6789,-141.782"/>
<polygon fill="#000000" stroke="#000000" points="52.5313,-139.017 46.557,-147.767 56.6838,-144.652 52.5313,-139.017"/>
</g>
<!-- List&#45;&gt;Positional -->
<g id="edge5" class="edge"><title>List&#45;&gt;Positional</title>
<path fill="none" stroke="#6666ff" d="M123.597,-108.303C123.597,-116.017 123.597,-125.288 123.597,-133.888"/>
<polygon fill="#6666ff" stroke="#6666ff" points="120.098,-133.896 123.597,-143.896 127.098,-133.896 120.098,-133.896"/>
</g>
<!-- List&#45;&gt;Iterable -->
<g id="edge6" class="edge"><title>List&#45;&gt;Iterable</title>
<path fill="none" stroke="#6666ff" d="M142.235,-103.193C158.259,-113.676 181.673,-128.993 200.374,-141.227"/>
<polygon fill="#6666ff" stroke="#6666ff" points="198.571,-144.231 208.856,-146.776 202.404,-138.373 198.571,-144.231"/>
</g>
</g>
</svg>
