<?xml version="1.0" encoding="UTF-8" standalone="no"?>
<!DOCTYPE svg PUBLIC "-//W3C//DTD SVG 1.1//EN"
 "http://www.w3.org/Graphics/SVG/1.1/DTD/svg11.dtd">
<!-- Generated by graphviz version 2.38.0 (20140413.2041)
 -->
<!-- Title: perl6&#45;type&#45;graph Pages: 1 -->
<svg width="236pt" height="260pt"
 viewBox="0.00 0.00 236.29 260.00" xmlns="http://www.w3.org/2000/svg" xmlns:xlink="http://www.w3.org/1999/xlink">
<g id="graph0" class="graph" transform="scale(1 1) rotate(0) translate(4 256)">
<title>perl6&#45;type&#45;graph</title>
<polygon fill="white" stroke="none" points="-4,4 -4,-256 232.291,-256 232.291,4 -4,4"/>
<!-- Telemetry -->
<g id="node1" class="node"><title>Telemetry</title>
<g id="a_node1"><a xlink:href="/type/Telemetry" xlink:title="Telemetry">
<ellipse fill="none" stroke="#000000" cx="50.0456" cy="-90" rx="50.0912" ry="18"/>
<text text-anchor="middle" x="50.0456" y="-86.3" font-family="FreeSans" font-size="14.00" fill="#000000">Telemetry</text>
</a>
</g>
</g>
<!-- Any -->
<g id="node3" class="node"><title>Any</title>
<g id="a_node3"><a xlink:href="/type/Any" xlink:title="Any">
<ellipse fill="none" stroke="#000000" cx="50.0456" cy="-162" rx="27" ry="18"/>
<text text-anchor="middle" x="50.0456" y="-158.3" font-family="FreeSans" font-size="14.00" fill="#000000">Any</text>
</a>
</g>
</g>
<!-- Telemetry&#45;&gt;Any -->
<g id="edge1" class="edge"><title>Telemetry&#45;&gt;Any</title>
<path fill="none" stroke="#000000" d="M50.0456,-108.303C50.0456,-116.017 50.0456,-125.288 50.0456,-133.888"/>
<polygon fill="#000000" stroke="#000000" points="46.5457,-133.896 50.0456,-143.896 53.5457,-133.896 46.5457,-133.896"/>
</g>
<!-- Mu -->
<g id="node2" class="node"><title>Mu</title>
<g id="a_node2"><a xlink:href="/type/Mu" xlink:title="Mu">
<ellipse fill="none" stroke="#000000" cx="50.0456" cy="-234" rx="27" ry="18"/>
<text text-anchor="middle" x="50.0456" y="-230.3" font-family="FreeSans" font-size="14.00" fill="#000000">Mu</text>
</a>
</g>
</g>
<!-- Any&#45;&gt;Mu -->
<g id="edge2" class="edge"><title>Any&#45;&gt;Mu</title>
<path fill="none" stroke="#000000" d="M50.0456,-180.303C50.0456,-188.017 50.0456,-197.288 50.0456,-205.888"/>
<polygon fill="#000000" stroke="#000000" points="46.5457,-205.896 50.0456,-215.896 53.5457,-205.896 46.5457,-205.896"/>
</g>
<!-- Associative -->
<g id="node4" class="node"><title>Associative</title>
<g id="a_node4"><a xlink:href="/type/Associative" xlink:title="Associative">
<ellipse fill="none" stroke="#6666ff" cx="173.046" cy="-90" rx="55.4913" ry="18"/>
<text text-anchor="middle" x="173.046" y="-86.3" font-family="FreeSans" font-size="14.00" fill="#6666ff">Associative</text>
</a>
</g>
</g>
<!-- Telemetry::Period -->
<g id="node5" class="node"><title>Telemetry::Period</title>
<g id="a_node5"><a xlink:href="/type/Telemetry::Period" xlink:title="Telemetry::Period">
<ellipse fill="none" stroke="#000000" cx="111.046" cy="-18" rx="80.6858" ry="18"/>
<text text-anchor="middle" x="111.046" y="-14.3" font-family="FreeSans" font-size="14.00" fill="#000000">Telemetry::Period</text>
</a>
</g>
</g>
<!-- Telemetry::Period&#45;&gt;Telemetry -->
<g id="edge3" class="edge"><title>Telemetry::Period&#45;&gt;Telemetry</title>
<path fill="none" stroke="#000000" d="M96.2792,-35.945C88.6762,-44.6697 79.2771,-55.4556 70.9431,-65.0192"/>
<polygon fill="#000000" stroke="#000000" points="68.1871,-62.8544 64.2559,-72.693 73.4645,-67.4533 68.1871,-62.8544"/>
</g>
<!-- Telemetry::Period&#45;&gt;Associative -->
<g id="edge4" class="edge"><title>Telemetry::Period&#45;&gt;Associative</title>
<path fill="none" stroke="#6666ff" d="M126.054,-35.945C133.67,-44.5433 143.058,-55.1434 151.436,-64.6026"/>
<polygon fill="#6666ff" stroke="#6666ff" points="148.925,-67.0457 158.175,-72.211 154.165,-62.4045 148.925,-67.0457"/>
</g>
</g>
</svg>
