<?xml version="1.0" encoding="UTF-8" standalone="no"?>
<!DOCTYPE svg PUBLIC "-//W3C//DTD SVG 1.1//EN"
 "http://www.w3.org/Graphics/SVG/1.1/DTD/svg11.dtd">
<!-- Generated by graphviz version 2.38.0 (20140413.2041)
 -->
<!-- Title: perl6&#45;type&#45;graph Pages: 1 -->
<svg width="886pt" height="332pt"
 viewBox="0.00 0.00 885.68 332.00" xmlns="http://www.w3.org/2000/svg" xmlns:xlink="http://www.w3.org/1999/xlink">
<g id="graph0" class="graph" transform="scale(1 1) rotate(0) translate(4 328)">
<title>perl6&#45;type&#45;graph</title>
<polygon fill="white" stroke="none" points="-4,4 -4,-328 881.683,-328 881.683,4 -4,4"/>
<!-- X::TypeCheck -->
<g id="node1" class="node"><title>X::TypeCheck</title>
<g id="a_node1"><a xlink:href="/type/X::TypeCheck" xlink:title="X::TypeCheck">
<ellipse fill="none" stroke="#000000" cx="444.542" cy="-90" rx="66.8882" ry="18"/>
<text text-anchor="middle" x="444.542" y="-86.3" font-family="FreeSans" font-size="14.00" fill="#000000">X::TypeCheck</text>
</a>
</g>
</g>
<!-- Exception -->
<g id="node4" class="node"><title>Exception</title>
<g id="a_node4"><a xlink:href="/type/Exception" xlink:title="Exception">
<ellipse fill="none" stroke="#000000" cx="444.542" cy="-162" rx="49.2915" ry="18"/>
<text text-anchor="middle" x="444.542" y="-158.3" font-family="FreeSans" font-size="14.00" fill="#000000">Exception</text>
</a>
</g>
</g>
<!-- X::TypeCheck&#45;&gt;Exception -->
<g id="edge1" class="edge"><title>X::TypeCheck&#45;&gt;Exception</title>
<path fill="none" stroke="#000000" d="M444.542,-108.303C444.542,-116.017 444.542,-125.288 444.542,-133.888"/>
<polygon fill="#000000" stroke="#000000" points="441.042,-133.896 444.542,-143.896 448.042,-133.896 441.042,-133.896"/>
</g>
<!-- Mu -->
<g id="node2" class="node"><title>Mu</title>
<g id="a_node2"><a xlink:href="/type/Mu" xlink:title="Mu">
<ellipse fill="none" stroke="#000000" cx="444.542" cy="-306" rx="27" ry="18"/>
<text text-anchor="middle" x="444.542" y="-302.3" font-family="FreeSans" font-size="14.00" fill="#000000">Mu</text>
</a>
</g>
</g>
<!-- Any -->
<g id="node3" class="node"><title>Any</title>
<g id="a_node3"><a xlink:href="/type/Any" xlink:title="Any">
<ellipse fill="none" stroke="#000000" cx="444.542" cy="-234" rx="27" ry="18"/>
<text text-anchor="middle" x="444.542" y="-230.3" font-family="FreeSans" font-size="14.00" fill="#000000">Any</text>
</a>
</g>
</g>
<!-- Any&#45;&gt;Mu -->
<g id="edge2" class="edge"><title>Any&#45;&gt;Mu</title>
<path fill="none" stroke="#000000" d="M444.542,-252.303C444.542,-260.017 444.542,-269.288 444.542,-277.888"/>
<polygon fill="#000000" stroke="#000000" points="441.042,-277.896 444.542,-287.896 448.042,-277.896 441.042,-277.896"/>
</g>
<!-- Exception&#45;&gt;Any -->
<g id="edge3" class="edge"><title>Exception&#45;&gt;Any</title>
<path fill="none" stroke="#000000" d="M444.542,-180.303C444.542,-188.017 444.542,-197.288 444.542,-205.888"/>
<polygon fill="#000000" stroke="#000000" points="441.042,-205.896 444.542,-215.896 448.042,-205.896 441.042,-205.896"/>
</g>
<!-- X::TypeCheck::Splice -->
<g id="node5" class="node"><title>X::TypeCheck::Splice</title>
<g id="a_node5"><a xlink:href="/type/X::TypeCheck::Splice" xlink:title="X::TypeCheck::Splice">
<ellipse fill="none" stroke="#000000" cx="95.5415" cy="-18" rx="95.5831" ry="18"/>
<text text-anchor="middle" x="95.5415" y="-14.3" font-family="FreeSans" font-size="14.00" fill="#000000">X::TypeCheck::Splice</text>
</a>
</g>
</g>
<!-- X::TypeCheck::Splice&#45;&gt;X::TypeCheck -->
<g id="edge4" class="edge"><title>X::TypeCheck::Splice&#45;&gt;X::TypeCheck</title>
<path fill="none" stroke="#000000" d="M158.339,-31.5954C221.861,-44.3363 319.453,-63.9107 382.65,-76.5861"/>
<polygon fill="#000000" stroke="#000000" points="381.993,-80.0242 392.486,-78.5591 383.37,-73.1608 381.993,-80.0242"/>
</g>
<!-- X::TypeCheck::Assignment -->
<g id="node6" class="node"><title>X::TypeCheck::Assignment</title>
<g id="a_node6"><a xlink:href="/type/X::TypeCheck::Assignment" xlink:title="X::TypeCheck::Assignment">
<ellipse fill="none" stroke="#000000" cx="326.542" cy="-18" rx="117.779" ry="18"/>
<text text-anchor="middle" x="326.542" y="-14.3" font-family="FreeSans" font-size="14.00" fill="#000000">X::TypeCheck::Assignment</text>
</a>
</g>
</g>
<!-- X::TypeCheck::Assignment&#45;&gt;X::TypeCheck -->
<g id="edge5" class="edge"><title>X::TypeCheck::Assignment&#45;&gt;X::TypeCheck</title>
<path fill="none" stroke="#000000" d="M354.506,-35.589C370.872,-45.2978 391.692,-57.6488 409.188,-68.0278"/>
<polygon fill="#000000" stroke="#000000" points="407.607,-71.1592 417.993,-73.2511 411.179,-65.1388 407.607,-71.1592"/>
</g>
<!-- X::TypeCheck::Binding -->
<g id="node7" class="node"><title>X::TypeCheck::Binding</title>
<g id="a_node7"><a xlink:href="/type/X::TypeCheck::Binding" xlink:title="X::TypeCheck::Binding">
<ellipse fill="none" stroke="#000000" cx="562.542" cy="-18" rx="100.983" ry="18"/>
<text text-anchor="middle" x="562.542" y="-14.3" font-family="FreeSans" font-size="14.00" fill="#000000">X::TypeCheck::Binding</text>
</a>
</g>
</g>
<!-- X::TypeCheck::Binding&#45;&gt;X::TypeCheck -->
<g id="edge6" class="edge"><title>X::TypeCheck::Binding&#45;&gt;X::TypeCheck</title>
<path fill="none" stroke="#000000" d="M534.876,-35.4119C518.401,-45.1848 497.335,-57.6815 479.691,-68.1484"/>
<polygon fill="#000000" stroke="#000000" points="477.634,-65.2995 470.819,-73.4118 481.205,-71.3199 477.634,-65.2995"/>
</g>
<!-- X::TypeCheck::Return -->
<g id="node8" class="node"><title>X::TypeCheck::Return</title>
<g id="a_node8"><a xlink:href="/type/X::TypeCheck::Return" xlink:title="X::TypeCheck::Return">
<ellipse fill="none" stroke="#000000" cx="779.542" cy="-18" rx="98.2828" ry="18"/>
<text text-anchor="middle" x="779.542" y="-14.3" font-family="FreeSans" font-size="14.00" fill="#000000">X::TypeCheck::Return</text>
</a>
</g>
</g>
<!-- X::TypeCheck::Return&#45;&gt;X::TypeCheck -->
<g id="edge7" class="edge"><title>X::TypeCheck::Return&#45;&gt;X::TypeCheck</title>
<path fill="none" stroke="#000000" d="M717.316,-32.0024C656.947,-44.6167 565.898,-63.642 505.844,-76.1905"/>
<polygon fill="#000000" stroke="#000000" points="504.818,-72.8293 495.745,-78.3008 506.249,-79.6814 504.818,-72.8293"/>
</g>
</g>
</svg>
