<?xml version="1.0" encoding="UTF-8" standalone="no"?>
<!DOCTYPE svg PUBLIC "-//W3C//DTD SVG 1.1//EN"
 "http://www.w3.org/Graphics/SVG/1.1/DTD/svg11.dtd">
<!-- Generated by graphviz version 2.38.0 (20140413.2041)
 -->
<!-- Title: perl6&#45;type&#45;graph Pages: 1 -->
<svg width="1419pt" height="332pt"
 viewBox="0.00 0.00 1418.78 332.00" xmlns="http://www.w3.org/2000/svg" xmlns:xlink="http://www.w3.org/1999/xlink">
<g id="graph0" class="graph" transform="scale(1 1) rotate(0) translate(4 328)">
<title>perl6&#45;type&#45;graph</title>
<polygon fill="white" stroke="none" points="-4,4 -4,-328 1414.78,-328 1414.78,4 -4,4"/>
<!-- X::Proc::Async -->
<g id="node1" class="node"><title>X::Proc::Async</title>
<g id="a_node1"><a xlink:href="/type/X::Proc::Async" xlink:title="X::Proc::Async">
<ellipse fill="none" stroke="#6666ff" cx="642.938" cy="-90" rx="68.4888" ry="18"/>
<text text-anchor="middle" x="642.938" y="-86.3" font-family="FreeSans" font-size="14.00" fill="#6666ff">X::Proc::Async</text>
</a>
</g>
</g>
<!-- Exception -->
<g id="node4" class="node"><title>Exception</title>
<g id="a_node4"><a xlink:href="/type/Exception" xlink:title="Exception">
<ellipse fill="none" stroke="#000000" cx="690.938" cy="-162" rx="49.2915" ry="18"/>
<text text-anchor="middle" x="690.938" y="-158.3" font-family="FreeSans" font-size="14.00" fill="#000000">Exception</text>
</a>
</g>
</g>
<!-- X::Proc::Async&#45;&gt;Exception -->
<g id="edge1" class="edge"><title>X::Proc::Async&#45;&gt;Exception</title>
<path fill="none" stroke="#000000" d="M654.558,-107.945C660.277,-116.285 667.287,-126.509 673.623,-135.748"/>
<polygon fill="#000000" stroke="#000000" points="670.884,-137.943 679.426,-144.211 676.657,-133.984 670.884,-137.943"/>
</g>
<!-- Mu -->
<g id="node2" class="node"><title>Mu</title>
<g id="a_node2"><a xlink:href="/type/Mu" xlink:title="Mu">
<ellipse fill="none" stroke="#000000" cx="690.938" cy="-306" rx="27" ry="18"/>
<text text-anchor="middle" x="690.938" y="-302.3" font-family="FreeSans" font-size="14.00" fill="#000000">Mu</text>
</a>
</g>
</g>
<!-- Any -->
<g id="node3" class="node"><title>Any</title>
<g id="a_node3"><a xlink:href="/type/Any" xlink:title="Any">
<ellipse fill="none" stroke="#000000" cx="690.938" cy="-234" rx="27" ry="18"/>
<text text-anchor="middle" x="690.938" y="-230.3" font-family="FreeSans" font-size="14.00" fill="#000000">Any</text>
</a>
</g>
</g>
<!-- Any&#45;&gt;Mu -->
<g id="edge2" class="edge"><title>Any&#45;&gt;Mu</title>
<path fill="none" stroke="#000000" d="M690.938,-252.303C690.938,-260.017 690.938,-269.288 690.938,-277.888"/>
<polygon fill="#000000" stroke="#000000" points="687.438,-277.896 690.938,-287.896 694.438,-277.896 687.438,-277.896"/>
</g>
<!-- Exception&#45;&gt;Any -->
<g id="edge3" class="edge"><title>Exception&#45;&gt;Any</title>
<path fill="none" stroke="#000000" d="M690.938,-180.303C690.938,-188.017 690.938,-197.288 690.938,-205.888"/>
<polygon fill="#000000" stroke="#000000" points="687.438,-205.896 690.938,-215.896 694.438,-205.896 687.438,-205.896"/>
</g>
<!-- X::Proc::Async::MustBeStarted -->
<g id="node5" class="node"><title>X::Proc::Async::MustBeStarted</title>
<g id="a_node5"><a xlink:href="/type/X::Proc::Async::MustBeStarted" xlink:title="X::Proc::Async::MustBeStarted">
<ellipse fill="none" stroke="#000000" cx="131.938" cy="-18" rx="131.877" ry="18"/>
<text text-anchor="middle" x="131.938" y="-14.3" font-family="FreeSans" font-size="14.00" fill="#000000">X::Proc::Async::MustBeStarted</text>
</a>
</g>
</g>
<!-- X::Proc::Async::MustBeStarted&#45;&gt;X::Proc::Async -->
<g id="edge9" class="edge"><title>X::Proc::Async::MustBeStarted&#45;&gt;X::Proc::Async</title>
<path fill="none" stroke="#6666ff" d="M221.532,-31.2732C321.958,-45.03 482.628,-67.0397 573.822,-79.532"/>
<polygon fill="#6666ff" stroke="#6666ff" points="573.395,-83.0062 583.778,-80.8958 574.345,-76.0709 573.395,-83.0062"/>
</g>
<!-- X::Proc::Async::MustBeStarted&#45;&gt;Exception -->
<g id="edge4" class="edge"><title>X::Proc::Async::MustBeStarted&#45;&gt;Exception</title>
<path fill="none" stroke="#000000" d="M191.496,-34.1292C302.576,-62.3463 539.366,-122.497 641.909,-148.545"/>
<polygon fill="#000000" stroke="#000000" points="641.143,-151.962 651.697,-151.032 642.866,-145.177 641.143,-151.962"/>
</g>
<!-- X::Proc::Async::AlreadyStarted -->
<g id="node6" class="node"><title>X::Proc::Async::AlreadyStarted</title>
<g id="a_node6"><a xlink:href="/type/X::Proc::Async::AlreadyStarted" xlink:title="X::Proc::Async::AlreadyStarted">
<ellipse fill="none" stroke="#000000" cx="412.938" cy="-18" rx="131.077" ry="18"/>
<text text-anchor="middle" x="412.938" y="-14.3" font-family="FreeSans" font-size="14.00" fill="#000000">X::Proc::Async::AlreadyStarted</text>
</a>
</g>
</g>
<!-- X::Proc::Async::AlreadyStarted&#45;&gt;X::Proc::Async -->
<g id="edge10" class="edge"><title>X::Proc::Async::AlreadyStarted&#45;&gt;X::Proc::Async</title>
<path fill="none" stroke="#6666ff" d="M464.269,-34.6222C501.701,-46.0148 552.276,-61.4071 590.063,-72.9077"/>
<polygon fill="#6666ff" stroke="#6666ff" points="589.283,-76.3286 599.869,-75.8919 591.321,-69.6319 589.283,-76.3286"/>
</g>
<!-- X::Proc::Async::AlreadyStarted&#45;&gt;Exception -->
<g id="edge5" class="edge"><title>X::Proc::Async::AlreadyStarted&#45;&gt;Exception</title>
<path fill="none" stroke="#000000" d="M441.716,-35.7402C486.037,-61.5213 565.938,-108 565.938,-108 565.938,-108 614.042,-128.396 650.567,-143.883"/>
<polygon fill="#000000" stroke="#000000" points="649.466,-147.218 660.039,-147.899 652.199,-140.773 649.466,-147.218"/>
</g>
<!-- X::Proc::Async::CharsOrBytes -->
<g id="node7" class="node"><title>X::Proc::Async::CharsOrBytes</title>
<g id="a_node7"><a xlink:href="/type/X::Proc::Async::CharsOrBytes" xlink:title="X::Proc::Async::CharsOrBytes">
<ellipse fill="none" stroke="#000000" cx="690.938" cy="-18" rx="128.877" ry="18"/>
<text text-anchor="middle" x="690.938" y="-14.3" font-family="FreeSans" font-size="14.00" fill="#000000">X::Proc::Async::CharsOrBytes</text>
</a>
</g>
</g>
<!-- X::Proc::Async::CharsOrBytes&#45;&gt;X::Proc::Async -->
<g id="edge11" class="edge"><title>X::Proc::Async::CharsOrBytes&#45;&gt;X::Proc::Async</title>
<path fill="none" stroke="#6666ff" d="M679.319,-35.945C673.6,-44.2853 666.589,-54.5092 660.254,-63.7483"/>
<polygon fill="#6666ff" stroke="#6666ff" points="657.22,-61.9843 654.451,-72.211 662.993,-65.9431 657.22,-61.9843"/>
</g>
<!-- X::Proc::Async::CharsOrBytes&#45;&gt;Exception -->
<g id="edge6" class="edge"><title>X::Proc::Async::CharsOrBytes&#45;&gt;Exception</title>
<path fill="none" stroke="#000000" d="M700.274,-36.0613C708.751,-51.5549 719.938,-72 719.938,-72 719.938,-72 719.938,-108 719.938,-108 719.938,-108 712.46,-121.667 705.098,-135.121"/>
<polygon fill="#000000" stroke="#000000" points="701.844,-133.778 700.114,-144.23 707.985,-137.138 701.844,-133.778"/>
</g>
<!-- X::Proc::Async::TapBeforeSpawn -->
<g id="node8" class="node"><title>X::Proc::Async::TapBeforeSpawn</title>
<g id="a_node8"><a xlink:href="/type/X::Proc::Async::TapBeforeSpawn" xlink:title="X::Proc::Async::TapBeforeSpawn">
<ellipse fill="none" stroke="#000000" cx="978.938" cy="-18" rx="141.875" ry="18"/>
<text text-anchor="middle" x="978.938" y="-14.3" font-family="FreeSans" font-size="14.00" fill="#000000">X::Proc::Async::TapBeforeSpawn</text>
</a>
</g>
</g>
<!-- X::Proc::Async::TapBeforeSpawn&#45;&gt;X::Proc::Async -->
<g id="edge12" class="edge"><title>X::Proc::Async::TapBeforeSpawn&#45;&gt;X::Proc::Async</title>
<path fill="none" stroke="#6666ff" d="M908.502,-33.6743C848.232,-46.2304 762.327,-64.1274 704.701,-76.1327"/>
<polygon fill="#6666ff" stroke="#6666ff" points="703.715,-72.763 694.639,-78.2291 705.143,-79.6159 703.715,-72.763"/>
</g>
<!-- X::Proc::Async::TapBeforeSpawn&#45;&gt;Exception -->
<g id="edge7" class="edge"><title>X::Proc::Async::TapBeforeSpawn&#45;&gt;Exception</title>
<path fill="none" stroke="#000000" d="M945.337,-35.5671C891.194,-62.2626 785.013,-114.616 728.466,-142.497"/>
<polygon fill="#000000" stroke="#000000" points="726.591,-139.519 719.17,-147.08 729.687,-145.797 726.591,-139.519"/>
</g>
<!-- X::Proc::Async::OpenForWriting -->
<g id="node9" class="node"><title>X::Proc::Async::OpenForWriting</title>
<g id="a_node9"><a xlink:href="/type/X::Proc::Async::OpenForWriting" xlink:title="X::Proc::Async::OpenForWriting">
<ellipse fill="none" stroke="#000000" cx="1274.94" cy="-18" rx="135.676" ry="18"/>
<text text-anchor="middle" x="1274.94" y="-14.3" font-family="FreeSans" font-size="14.00" fill="#000000">X::Proc::Async::OpenForWriting</text>
</a>
</g>
</g>
<!-- X::Proc::Async::OpenForWriting&#45;&gt;X::Proc::Async -->
<g id="edge13" class="edge"><title>X::Proc::Async::OpenForWriting&#45;&gt;X::Proc::Async</title>
<path fill="none" stroke="#6666ff" d="M1177.02,-30.4806C1150.97,-33.5341 1129.94,-36 1129.94,-36 1129.94,-36 850.416,-66.4203 714.907,-81.1676"/>
<polygon fill="#6666ff" stroke="#6666ff" points="714.18,-77.7261 704.617,-82.2875 714.937,-84.685 714.18,-77.7261"/>
</g>
<!-- X::Proc::Async::OpenForWriting&#45;&gt;Exception -->
<g id="edge8" class="edge"><title>X::Proc::Async::OpenForWriting&#45;&gt;Exception</title>
<path fill="none" stroke="#000000" d="M1212.99,-34.0621C1096.54,-62.3778 847.139,-123.02 740.72,-148.896"/>
<polygon fill="#000000" stroke="#000000" points="739.766,-145.525 730.876,-151.289 741.42,-152.327 739.766,-145.525"/>
</g>
</g>
</svg>
