<?xml version="1.0" encoding="UTF-8" standalone="no"?>
<!DOCTYPE svg PUBLIC "-//W3C//DTD SVG 1.1//EN"
 "http://www.w3.org/Graphics/SVG/1.1/DTD/svg11.dtd">
<!-- Generated by graphviz version 2.38.0 (20140413.2041)
 -->
<!-- Title: perl6&#45;type&#45;graph Pages: 1 -->
<svg width="2118pt" height="1083pt"
 viewBox="0.00 0.00 2118.25 1083.21" xmlns="http://www.w3.org/2000/svg" xmlns:xlink="http://www.w3.org/1999/xlink">
<g id="graph0" class="graph" transform="scale(1 1) rotate(0) translate(1041.32 567.985)">
<title>perl6&#45;type&#45;graph</title>
<polygon fill="white" stroke="none" points="-1041.32,515.222 -1041.32,-567.985 1076.94,-567.985 1076.94,515.222 -1041.32,515.222"/>
<!-- Metamodel::TypePretense -->
<g id="node1" class="node"><title>Metamodel::TypePretense</title>
<g id="a_node1"><a xlink:href="/type/Metamodel::TypePretense" xlink:title="Metamodel::TypePretense">
<ellipse fill="none" stroke="#6666ff" cx="29.7525" cy="-215.317" rx="114.28" ry="18"/>
<text text-anchor="middle" x="29.7525" y="-211.617" font-family="FreeSans" font-size="14.00" fill="#6666ff">Metamodel::TypePretense</text>
</a>
</g>
</g>
<!-- Mu -->
<g id="node2" class="node"><title>Mu</title>
<g id="a_node2"><a xlink:href="/type/Mu" xlink:title="Mu">
<ellipse fill="none" stroke="#000000" cx="915.495" cy="-494.573" rx="27" ry="18"/>
<text text-anchor="middle" x="915.495" y="-490.873" font-family="FreeSans" font-size="14.00" fill="#000000">Mu</text>
</a>
</g>
</g>
<!-- Any -->
<g id="node3" class="node"><title>Any</title>
<g id="a_node3"><a xlink:href="/type/Any" xlink:title="Any">
<ellipse fill="none" stroke="#000000" cx="257.276" cy="-150.121" rx="27" ry="18"/>
<text text-anchor="middle" x="257.276" y="-146.421" font-family="FreeSans" font-size="14.00" fill="#000000">Any</text>
</a>
</g>
</g>
<!-- Any&#45;&gt;Mu -->
<g id="edge1" class="edge"><title>Any&#45;&gt;Mu</title>
<path fill="none" stroke="#000000" d="M278.802,-161.386C375.681,-212.084 771.455,-419.195 884.944,-478.585"/>
<polygon fill="#000000" stroke="#000000" points="883.651,-481.858 894.134,-483.394 886.896,-475.656 883.651,-481.858"/>
</g>
<!-- Metamodel::Naming -->
<g id="node4" class="node"><title>Metamodel::Naming</title>
<g id="a_node4"><a xlink:href="/type/Metamodel::Naming" xlink:title="Metamodel::Naming">
<ellipse fill="none" stroke="#6666ff" cx="-199.493" cy="-149.864" rx="90.1842" ry="18"/>
<text text-anchor="middle" x="-199.493" y="-146.164" font-family="FreeSans" font-size="14.00" fill="#6666ff">Metamodel::Naming</text>
</a>
</g>
</g>
<!-- Metamodel::Documenting -->
<g id="node5" class="node"><title>Metamodel::Documenting</title>
<g id="a_node5"><a xlink:href="/type/Metamodel::Documenting" xlink:title="Metamodel::Documenting">
<ellipse fill="none" stroke="#6666ff" cx="920.058" cy="439.815" rx="111.28" ry="18"/>
<text text-anchor="middle" x="920.058" y="443.515" font-family="FreeSans" font-size="14.00" fill="#6666ff">Metamodel::Documenting</text>
</a>
</g>
</g>
<!-- Metamodel::Versioning -->
<g id="node6" class="node"><title>Metamodel::Versioning</title>
<g id="a_node6"><a xlink:href="/type/Metamodel::Versioning" xlink:title="Metamodel::Versioning">
<ellipse fill="none" stroke="#6666ff" cx="473.351" cy="493.222" rx="100.983" ry="18"/>
<text text-anchor="middle" x="473.351" y="496.922" font-family="FreeSans" font-size="14.00" fill="#6666ff">Metamodel::Versioning</text>
</a>
</g>
</g>
<!-- Metamodel::MethodContainer -->
<g id="node7" class="node"><title>Metamodel::MethodContainer</title>
<g id="a_node7"><a xlink:href="/type/Metamodel::MethodContainer" xlink:title="Metamodel::MethodContainer">
<ellipse fill="none" stroke="#6666ff" cx="-891.853" cy="-24.7556" rx="127.277" ry="18"/>
<text text-anchor="middle" x="-891.853" y="-21.0556" font-family="FreeSans" font-size="14.00" fill="#6666ff">Metamodel::MethodContainer</text>
</a>
</g>
</g>
<!-- Metamodel::PrivateMethodContainer -->
<g id="node8" class="node"><title>Metamodel::PrivateMethodContainer</title>
<g id="a_node8"><a xlink:href="/type/Metamodel::PrivateMethodContainer" xlink:title="Metamodel::PrivateMethodContainer">
<ellipse fill="none" stroke="#6666ff" cx="145.246" cy="472.089" rx="154.873" ry="18"/>
<text text-anchor="middle" x="145.246" y="475.789" font-family="FreeSans" font-size="14.00" fill="#6666ff">Metamodel::PrivateMethodContainer</text>
</a>
</g>
</g>
<!-- Metamodel::MultiMethodContainer -->
<g id="node9" class="node"><title>Metamodel::MultiMethodContainer</title>
<g id="a_node9"><a xlink:href="/type/Metamodel::MultiMethodContainer" xlink:title="Metamodel::MultiMethodContainer">
<ellipse fill="none" stroke="#6666ff" cx="-891.079" cy="430.783" rx="146.474" ry="18"/>
<text text-anchor="middle" x="-891.079" y="434.483" font-family="FreeSans" font-size="14.00" fill="#6666ff">Metamodel::MultiMethodContainer</text>
</a>
</g>
</g>
<!-- Metamodel::AttributeContainer -->
<g id="node10" class="node"><title>Metamodel::AttributeContainer</title>
<g id="a_node10"><a xlink:href="/type/Metamodel::AttributeContainer" xlink:title="Metamodel::AttributeContainer">
<ellipse fill="none" stroke="#6666ff" cx="-145.64" cy="463.838" rx="129.977" ry="18"/>
<text text-anchor="middle" x="-145.64" y="467.538" font-family="FreeSans" font-size="14.00" fill="#6666ff">Metamodel::AttributeContainer</text>
</a>
</g>
</g>
<!-- Metamodel::RoleContainer -->
<g id="node11" class="node"><title>Metamodel::RoleContainer</title>
<g id="a_node11"><a xlink:href="/type/Metamodel::RoleContainer" xlink:title="Metamodel::RoleContainer">
<ellipse fill="none" stroke="#6666ff" cx="-466.014" cy="486.733" rx="115.88" ry="18"/>
<text text-anchor="middle" x="-466.014" y="490.433" font-family="FreeSans" font-size="14.00" fill="#6666ff">Metamodel::RoleContainer</text>
</a>
</g>
</g>
<!-- Metamodel::MultipleInheritance -->
<g id="node12" class="node"><title>Metamodel::MultipleInheritance</title>
<g id="a_node12"><a xlink:href="/type/Metamodel::MultipleInheritance" xlink:title="Metamodel::MultipleInheritance">
<ellipse fill="none" stroke="#6666ff" cx="-868.065" cy="-498.321" rx="133.776" ry="18"/>
<text text-anchor="middle" x="-868.065" y="-494.621" font-family="FreeSans" font-size="14.00" fill="#6666ff">Metamodel::MultipleInheritance</text>
</a>
</g>
</g>
<!-- Metamodel::Stashing -->
<g id="node13" class="node"><title>Metamodel::Stashing</title>
<g id="a_node13"><a xlink:href="/type/Metamodel::Stashing" xlink:title="Metamodel::Stashing">
<ellipse fill="none" stroke="#6666ff" cx="25.8381" cy="119.315" rx="93.6835" ry="18"/>
<text text-anchor="middle" x="25.8381" y="123.015" font-family="FreeSans" font-size="14.00" fill="#6666ff">Metamodel::Stashing</text>
</a>
</g>
</g>
<!-- Metamodel::RolePunning -->
<g id="node14" class="node"><title>Metamodel::RolePunning</title>
<g id="a_node14"><a xlink:href="/type/Metamodel::RolePunning" xlink:title="Metamodel::RolePunning">
<ellipse fill="none" stroke="#6666ff" cx="-503.036" cy="-195.944" rx="109.681" ry="18"/>
<text text-anchor="middle" x="-503.036" y="-192.244" font-family="FreeSans" font-size="14.00" fill="#6666ff">Metamodel::RolePunning</text>
</a>
</g>
</g>
<!-- Metamodel::ParametricRoleHOW -->
<g id="node15" class="node"><title>Metamodel::ParametricRoleHOW</title>
<g id="a_node15"><a xlink:href="/type/Metamodel::ParametricRoleHOW" xlink:title="Metamodel::ParametricRoleHOW">
<ellipse fill="none" stroke="#000000" cx="-391.123" cy="128.012" rx="142.175" ry="18"/>
<text text-anchor="middle" x="-391.123" y="131.712" font-family="FreeSans" font-size="14.00" fill="#000000">Metamodel::ParametricRoleHOW</text>
</a>
</g>
</g>
<!-- Metamodel::ParametricRoleHOW&#45;&gt;Metamodel::TypePretense -->
<g id="edge17" class="edge"><title>Metamodel::ParametricRoleHOW&#45;&gt;Metamodel::TypePretense</title>
<path fill="none" stroke="#6666ff" d="M-369.087,110.037C-298.915,52.794 -80.5823,-125.311 -0.279362,-190.818"/>
<polygon fill="#6666ff" stroke="#6666ff" points="-2.02614,-193.91 7.93507,-197.519 2.39864,-188.486 -2.02614,-193.91"/>
</g>
<!-- Metamodel::ParametricRoleHOW&#45;&gt;Any -->
<g id="edge2" class="edge"><title>Metamodel::ParametricRoleHOW&#45;&gt;Any</title>
<path fill="none" stroke="#000000" d="M-350.563,110.614C-231.192,59.4091 117.259,-90.0605 225.091,-136.316"/>
<polygon fill="#000000" stroke="#000000" points="223.902,-139.614 234.472,-140.34 226.662,-133.181 223.902,-139.614"/>
</g>
<!-- Metamodel::ParametricRoleHOW&#45;&gt;Metamodel::Naming -->
<g id="edge7" class="edge"><title>Metamodel::ParametricRoleHOW&#45;&gt;Metamodel::Naming</title>
<path fill="none" stroke="#6666ff" d="M-378.55,109.78C-345.512,61.8729 -256.148,-67.7108 -217.598,-123.61"/>
<polygon fill="#6666ff" stroke="#6666ff" points="-220.422,-125.68 -211.864,-131.926 -214.659,-121.706 -220.422,-125.68"/>
</g>
<!-- Metamodel::ParametricRoleHOW&#45;&gt;Metamodel::Documenting -->
<g id="edge8" class="edge"><title>Metamodel::ParametricRoleHOW&#45;&gt;Metamodel::Documenting</title>
<path fill="none" stroke="#6666ff" d="M-323.845,144.011C-100.388,197.15 615.998,367.509 847.304,422.514"/>
<polygon fill="#6666ff" stroke="#6666ff" points="848.376,419.171 857.295,424.89 846.757,425.981 848.376,419.171"/>
</g>
<!-- Metamodel::ParametricRoleHOW&#45;&gt;Metamodel::Versioning -->
<g id="edge9" class="edge"><title>Metamodel::ParametricRoleHOW&#45;&gt;Metamodel::Versioning</title>
<path fill="none" stroke="#6666ff" d="M-350.299,145.259C-207.372,205.641 270.155,407.379 424.666,472.654"/>
<polygon fill="#6666ff" stroke="#6666ff" points="426.091,469.456 433.94,476.572 423.367,475.905 426.091,469.456"/>
</g>
<!-- Metamodel::ParametricRoleHOW&#45;&gt;Metamodel::MethodContainer -->
<g id="edge10" class="edge"><title>Metamodel::ParametricRoleHOW&#45;&gt;Metamodel::MethodContainer</title>
<path fill="none" stroke="#6666ff" d="M-445.663,111.373C-539.124,82.8586 -729.379,24.8137 -828.542,-5.43997"/>
<polygon fill="#6666ff" stroke="#6666ff" points="-829.595,-2.10186 -838.138,-8.36771 -827.552,-8.79719 -829.595,-2.10186"/>
</g>
<!-- Metamodel::ParametricRoleHOW&#45;&gt;Metamodel::PrivateMethodContainer -->
<g id="edge11" class="edge"><title>Metamodel::ParametricRoleHOW&#45;&gt;Metamodel::PrivateMethodContainer</title>
<path fill="none" stroke="#6666ff" d="M-363.415,145.787C-273.874,203.226 7.73579,383.877 108.74,448.671"/>
<polygon fill="#6666ff" stroke="#6666ff" points="110.855,445.869 117.382,454.215 107.075,451.761 110.855,445.869"/>
</g>
<!-- Metamodel::ParametricRoleHOW&#45;&gt;Metamodel::MultiMethodContainer -->
<g id="edge12" class="edge"><title>Metamodel::ParametricRoleHOW&#45;&gt;Metamodel::MultiMethodContainer</title>
<path fill="none" stroke="#6666ff" d="M-420.531,145.822C-506.405,197.827 -756.788,349.457 -852.899,407.662"/>
<polygon fill="#6666ff" stroke="#6666ff" points="-851.341,410.81 -861.708,412.996 -854.967,404.822 -851.341,410.81"/>
</g>
<!-- Metamodel::ParametricRoleHOW&#45;&gt;Metamodel::AttributeContainer -->
<g id="edge13" class="edge"><title>Metamodel::ParametricRoleHOW&#45;&gt;Metamodel::AttributeContainer</title>
<path fill="none" stroke="#6666ff" d="M-377.925,146.068C-337.132,201.873 -212.94,371.77 -164.899,437.491"/>
<polygon fill="#6666ff" stroke="#6666ff" points="-161.979,435.555 -158.903,445.693 -167.63,439.686 -161.979,435.555"/>
</g>
<!-- Metamodel::ParametricRoleHOW&#45;&gt;Metamodel::RoleContainer -->
<g id="edge14" class="edge"><title>Metamodel::ParametricRoleHOW&#45;&gt;Metamodel::RoleContainer</title>
<path fill="none" stroke="#6666ff" d="M-394.94,146.294C-407.159,204.825 -445.377,387.884 -460.126,458.529"/>
<polygon fill="#6666ff" stroke="#6666ff" points="-456.735,459.414 -462.205,468.488 -463.587,457.983 -456.735,459.414"/>
</g>
<!-- Metamodel::ParametricRoleHOW&#45;&gt;Metamodel::MultipleInheritance -->
<g id="edge15" class="edge"><title>Metamodel::ParametricRoleHOW&#45;&gt;Metamodel::MultipleInheritance</title>
<path fill="none" stroke="#6666ff" d="M-404.883,109.943C-472.328,21.3721 -767.976,-366.882 -848.02,-471.998"/>
<polygon fill="#6666ff" stroke="#6666ff" points="-850.976,-470.102 -854.25,-480.179 -845.407,-474.343 -850.976,-470.102"/>
</g>
<!-- Metamodel::ParametricRoleHOW&#45;&gt;Metamodel::Stashing -->
<g id="edge16" class="edge"><title>Metamodel::ParametricRoleHOW&#45;&gt;Metamodel::Stashing</title>
<path fill="none" stroke="#6666ff" d="M-250.54,125.08C-193.91,123.899 -129.776,122.561 -77.5542,121.472"/>
<polygon fill="#6666ff" stroke="#6666ff" points="-77.3452,117.967 -67.2744,121.257 -77.1992,124.965 -77.3452,117.967"/>
</g>
<!-- Metamodel::ParametricRoleHOW&#45;&gt;Metamodel::RolePunning -->
<g id="edge18" class="edge"><title>Metamodel::ParametricRoleHOW&#45;&gt;Metamodel::RolePunning</title>
<path fill="none" stroke="#6666ff" d="M-397.461,109.667C-416.158,55.5425 -471.175,-103.715 -493.48,-168.281"/>
<polygon fill="#6666ff" stroke="#6666ff" points="-496.811,-167.205 -496.768,-177.8 -490.195,-169.491 -496.811,-167.205"/>
</g>
<!-- Metamodel::CurriedRoleHOW -->
<g id="node16" class="node"><title>Metamodel::CurriedRoleHOW</title>
<g id="a_node16"><a xlink:href="/type/Metamodel::CurriedRoleHOW" xlink:title="Metamodel::CurriedRoleHOW">
<ellipse fill="none" stroke="#000000" cx="410.445" cy="-542.715" rx="128.877" ry="18"/>
<text text-anchor="middle" x="410.445" y="-539.015" font-family="FreeSans" font-size="14.00" fill="#000000">Metamodel::CurriedRoleHOW</text>
</a>
</g>
</g>
<!-- Metamodel::CurriedRoleHOW&#45;&gt;Metamodel::TypePretense -->
<g id="edge20" class="edge"><title>Metamodel::CurriedRoleHOW&#45;&gt;Metamodel::TypePretense</title>
<path fill="none" stroke="#6666ff" d="M389.707,-524.881C325.912,-470.017 132.454,-303.641 58.72,-240.229"/>
<polygon fill="#6666ff" stroke="#6666ff" points="60.6067,-237.235 50.7427,-233.368 56.0424,-242.543 60.6067,-237.235"/>
</g>
<!-- Metamodel::CurriedRoleHOW&#45;&gt;Any -->
<g id="edge3" class="edge"><title>Metamodel::CurriedRoleHOW&#45;&gt;Any</title>
<path fill="none" stroke="#000000" d="M403.365,-524.567C378.809,-461.627 297.21,-252.479 267.886,-177.317"/>
<polygon fill="#000000" stroke="#000000" points="271.002,-175.673 264.106,-167.629 264.48,-178.218 271.002,-175.673"/>
</g>
<!-- Metamodel::CurriedRoleHOW&#45;&gt;Metamodel::RolePunning -->
<g id="edge19" class="edge"><title>Metamodel::CurriedRoleHOW&#45;&gt;Metamodel::RolePunning</title>
<path fill="none" stroke="#6666ff" d="M365.768,-525.755C213.432,-467.926 -285.253,-278.618 -449.815,-216.147"/>
<polygon fill="#6666ff" stroke="#6666ff" points="-448.655,-212.844 -459.247,-212.567 -451.14,-219.388 -448.655,-212.844"/>
</g>
<!-- Metamodel::MethodDelegation -->
<g id="node17" class="node"><title>Metamodel::MethodDelegation</title>
<g id="a_node17"><a xlink:href="/type/Metamodel::MethodDelegation" xlink:title="Metamodel::MethodDelegation">
<ellipse fill="none" stroke="#6666ff" cx="941.649" cy="-12.5022" rx="131.077" ry="18"/>
<text text-anchor="middle" x="941.649" y="-8.80218" font-family="FreeSans" font-size="14.00" fill="#6666ff">Metamodel::MethodDelegation</text>
</a>
</g>
</g>
<!-- Metamodel::PackageHOW -->
<g id="node18" class="node"><title>Metamodel::PackageHOW</title>
<g id="a_node18"><a xlink:href="/type/Metamodel::PackageHOW" xlink:title="Metamodel::PackageHOW">
<ellipse fill="none" stroke="#000000" cx="557.912" cy="-184.959" rx="116.18" ry="18"/>
<text text-anchor="middle" x="557.912" y="-181.259" font-family="FreeSans" font-size="14.00" fill="#000000">Metamodel::PackageHOW</text>
</a>
</g>
</g>
<!-- Metamodel::PackageHOW&#45;&gt;Metamodel::TypePretense -->
<g id="edge24" class="edge"><title>Metamodel::PackageHOW&#45;&gt;Metamodel::TypePretense</title>
<path fill="none" stroke="#6666ff" d="M448.798,-191.231C360.87,-196.285 237.475,-203.377 147.361,-208.557"/>
<polygon fill="#6666ff" stroke="#6666ff" points="147.154,-205.063 137.371,-209.131 147.555,-212.051 147.154,-205.063"/>
</g>
<!-- Metamodel::PackageHOW&#45;&gt;Any -->
<g id="edge4" class="edge"><title>Metamodel::PackageHOW&#45;&gt;Any</title>
<path fill="none" stroke="#000000" d="M464.437,-174.127C406.915,-167.461 336.368,-159.287 294.213,-154.402"/>
<polygon fill="#000000" stroke="#000000" points="294.469,-150.908 284.133,-153.234 293.663,-157.862 294.469,-150.908"/>
</g>
<!-- Metamodel::PackageHOW&#45;&gt;Metamodel::Naming -->
<g id="edge21" class="edge"><title>Metamodel::PackageHOW&#45;&gt;Metamodel::Naming</title>
<path fill="none" stroke="#6666ff" d="M446.155,-179.781C298.321,-172.931 40.0645,-160.964 -100.866,-154.434"/>
<polygon fill="#6666ff" stroke="#6666ff" points="-101.071,-150.92 -111.222,-153.954 -101.395,-157.913 -101.071,-150.92"/>
</g>
<!-- Metamodel::PackageHOW&#45;&gt;Metamodel::Documenting -->
<g id="edge22" class="edge"><title>Metamodel::PackageHOW&#45;&gt;Metamodel::Documenting</title>
<path fill="none" stroke="#6666ff" d="M568.36,-166.935C619.469,-78.7618 843.159,307.148 904.469,412.922"/>
<polygon fill="#6666ff" stroke="#6666ff" points="907.581,411.31 909.568,421.717 901.525,414.821 907.581,411.31"/>
</g>
<!-- Metamodel::PackageHOW&#45;&gt;Metamodel::Stashing -->
<g id="edge23" class="edge"><title>Metamodel::PackageHOW&#45;&gt;Metamodel::Stashing</title>
<path fill="none" stroke="#6666ff" d="M527.395,-167.507C436.189,-115.35 165.735,39.3132 64.5885,97.155"/>
<polygon fill="#6666ff" stroke="#6666ff" points="66.3209,100.196 55.9026,102.122 62.8459,94.1195 66.3209,100.196"/>
</g>
<!-- Metamodel::PackageHOW&#45;&gt;Metamodel::MethodDelegation -->
<g id="edge25" class="edge"><title>Metamodel::PackageHOW&#45;&gt;Metamodel::MethodDelegation</title>
<path fill="none" stroke="#6666ff" d="M596.11,-167.793C666.556,-136.133 816.766,-68.6266 893.846,-33.9859"/>
<polygon fill="#6666ff" stroke="#6666ff" points="895.636,-37.0185 903.322,-29.7268 892.766,-30.6337 895.636,-37.0185"/>
</g>
<!-- Metamodel::BoolificationProtocol -->
<g id="node19" class="node"><title>Metamodel::BoolificationProtocol</title>
<g id="a_node19"><a xlink:href="/type/Metamodel::BoolificationProtocol" xlink:title="Metamodel::BoolificationProtocol">
<ellipse fill="none" stroke="#6666ff" cx="-356.457" cy="-544.743" rx="139.175" ry="18"/>
<text text-anchor="middle" x="-356.457" y="-541.043" font-family="FreeSans" font-size="14.00" fill="#6666ff">Metamodel::BoolificationProtocol</text>
</a>
</g>
</g>
<!-- Metamodel::ParametricRoleGroupHOW -->
<g id="node20" class="node"><title>Metamodel::ParametricRoleGroupHOW</title>
<g id="a_node20"><a xlink:href="/type/Metamodel::ParametricRoleGroupHOW" xlink:title="Metamodel::ParametricRoleGroupHOW">
<ellipse fill="none" stroke="#000000" cx="26.9384" cy="-545.985" rx="167.07" ry="18"/>
<text text-anchor="middle" x="26.9384" y="-542.285" font-family="FreeSans" font-size="14.00" fill="#000000">Metamodel::ParametricRoleGroupHOW</text>
</a>
</g>
</g>
<!-- Metamodel::ParametricRoleGroupHOW&#45;&gt;Metamodel::TypePretense -->
<g id="edge28" class="edge"><title>Metamodel::ParametricRoleGroupHOW&#45;&gt;Metamodel::TypePretense</title>
<path fill="none" stroke="#6666ff" d="M27.0937,-527.735C27.5598,-472.972 28.9488,-309.752 29.5116,-243.617"/>
<polygon fill="#6666ff" stroke="#6666ff" points="33.0123,-243.539 29.5976,-233.509 26.0126,-243.479 33.0123,-243.539"/>
</g>
<!-- Metamodel::ParametricRoleGroupHOW&#45;&gt;Any -->
<g id="edge5" class="edge"><title>Metamodel::ParametricRoleGroupHOW&#45;&gt;Any</title>
<path fill="none" stroke="#000000" d="M37.4341,-527.946C74.4854,-464.269 199.241,-249.861 242.42,-175.653"/>
<polygon fill="#000000" stroke="#000000" points="245.495,-177.327 247.499,-166.924 239.445,-173.807 245.495,-177.327"/>
</g>
<!-- Metamodel::ParametricRoleGroupHOW&#45;&gt;Metamodel::Naming -->
<g id="edge26" class="edge"><title>Metamodel::ParametricRoleGroupHOW&#45;&gt;Metamodel::Naming</title>
<path fill="none" stroke="#6666ff" d="M16.6208,-527.935C-19.5534,-464.651 -140.77,-252.594 -184.008,-176.954"/>
<polygon fill="#6666ff" stroke="#6666ff" points="-181.113,-174.964 -189.115,-168.019 -187.191,-178.438 -181.113,-174.964"/>
</g>
<!-- Metamodel::ParametricRoleGroupHOW&#45;&gt;Metamodel::Stashing -->
<g id="edge27" class="edge"><title>Metamodel::ParametricRoleGroupHOW&#45;&gt;Metamodel::Stashing</title>
<path fill="none" stroke="#6666ff" d="M20.6924,-527.732C-3.03352,-458.398 -86.2368,-215.255 -86.2368,-215.255 -86.2368,-215.255 -10.4269,11.0554 16.4934,91.4188"/>
<polygon fill="#6666ff" stroke="#6666ff" points="19.9548,90.7331 19.8124,101.327 13.3173,92.9566 19.9548,90.7331"/>
</g>
<!-- Metamodel::ParametricRoleGroupHOW&#45;&gt;Metamodel::RolePunning -->
<g id="edge29" class="edge"><title>Metamodel::ParametricRoleGroupHOW&#45;&gt;Metamodel::RolePunning</title>
<path fill="none" stroke="#6666ff" d="M-0.0716992,-528.145C-88.4234,-469.79 -368.831,-284.585 -467.929,-219.132"/>
<polygon fill="#6666ff" stroke="#6666ff" points="-466.122,-216.13 -476.396,-213.54 -469.98,-221.971 -466.122,-216.13"/>
</g>
<!-- Metamodel::ParametricRoleGroupHOW&#45;&gt;Metamodel::BoolificationProtocol -->
<g id="edge30" class="edge"><title>Metamodel::ParametricRoleGroupHOW&#45;&gt;Metamodel::BoolificationProtocol</title>
<path fill="none" stroke="#6666ff" d="M-140.109,-545.444C-162.421,-545.371 -185.185,-545.298 -207.166,-545.227"/>
<polygon fill="#6666ff" stroke="#6666ff" points="-207.195,-541.727 -217.206,-545.194 -207.218,-548.727 -207.195,-541.727"/>
</g>
<!-- Metamodel::ModuleHOW -->
<g id="node21" class="node"><title>Metamodel::ModuleHOW</title>
<g id="a_node21"><a xlink:href="/type/Metamodel::ModuleHOW" xlink:title="Metamodel::ModuleHOW">
<ellipse fill="none" stroke="#000000" cx="434.933" cy="139.2" rx="111.28" ry="18"/>
<text text-anchor="middle" x="434.933" y="142.9" font-family="FreeSans" font-size="14.00" fill="#000000">Metamodel::ModuleHOW</text>
</a>
</g>
</g>
<!-- Metamodel::ModuleHOW&#45;&gt;Metamodel::TypePretense -->
<g id="edge35" class="edge"><title>Metamodel::ModuleHOW&#45;&gt;Metamodel::TypePretense</title>
<path fill="none" stroke="#6666ff" d="M414.562,121.377C347.829,62.9877 135.649,-122.661 58.3087,-190.331"/>
<polygon fill="#6666ff" stroke="#6666ff" points="55.6264,-188.027 50.4052,-197.246 60.2358,-193.295 55.6264,-188.027"/>
</g>
<!-- Metamodel::ModuleHOW&#45;&gt;Any -->
<g id="edge6" class="edge"><title>Metamodel::ModuleHOW&#45;&gt;Any</title>
<path fill="none" stroke="#000000" d="M423.819,121.102C393.381,71.5322 308.582,-66.5666 273.151,-124.268"/>
<polygon fill="#000000" stroke="#000000" points="269.961,-122.775 267.71,-133.128 275.926,-126.438 269.961,-122.775"/>
</g>
<!-- Metamodel::ModuleHOW&#45;&gt;Metamodel::Naming -->
<g id="edge31" class="edge"><title>Metamodel::ModuleHOW&#45;&gt;Metamodel::Naming</title>
<path fill="none" stroke="#6666ff" d="M397.615,122.197C287.836,72.1787 -33.8046,-74.3709 -153.724,-129.01"/>
<polygon fill="#6666ff" stroke="#6666ff" points="-155.366,-125.912 -163.015,-133.243 -152.464,-132.282 -155.366,-125.912"/>
</g>
<!-- Metamodel::ModuleHOW&#45;&gt;Metamodel::Documenting -->
<g id="edge32" class="edge"><title>Metamodel::ModuleHOW&#45;&gt;Metamodel::Documenting</title>
<path fill="none" stroke="#6666ff" d="M463.112,156.662C546.175,208.133 790.054,359.256 883.261,417.014"/>
<polygon fill="#6666ff" stroke="#6666ff" points="885.144,414.063 891.801,422.305 881.457,420.013 885.144,414.063"/>
</g>
<!-- Metamodel::ModuleHOW&#45;&gt;Metamodel::Versioning -->
<g id="edge33" class="edge"><title>Metamodel::ModuleHOW&#45;&gt;Metamodel::Versioning</title>
<path fill="none" stroke="#6666ff" d="M436.891,157.243C443.146,214.889 462.684,394.927 470.284,464.956"/>
<polygon fill="#6666ff" stroke="#6666ff" points="473.798,464.896 471.397,475.216 466.839,465.652 473.798,464.896"/>
</g>
<!-- Metamodel::ModuleHOW&#45;&gt;Metamodel::Stashing -->
<g id="edge34" class="edge"><title>Metamodel::ModuleHOW&#45;&gt;Metamodel::Stashing</title>
<path fill="none" stroke="#6666ff" d="M328.249,134.015C266.018,130.99 187.974,127.196 126.758,124.221"/>
<polygon fill="#6666ff" stroke="#6666ff" points="126.515,127.713 116.697,123.731 126.855,120.721 126.515,127.713"/>
</g>
<!-- Metamodel::ModuleHOW&#45;&gt;Metamodel::MethodDelegation -->
<g id="edge36" class="edge"><title>Metamodel::ModuleHOW&#45;&gt;Metamodel::MethodDelegation</title>
<path fill="none" stroke="#6666ff" d="M488.203,123.252C581.894,95.2028 775.811,37.1472 877.005,6.85119"/>
<polygon fill="#6666ff" stroke="#6666ff" points="876.215,3.4343 886.799,3.91913 878.223,10.1402 876.215,3.4343"/>
</g>
</g>
</svg>
