<?xml version="1.0" encoding="UTF-8" standalone="no"?>
<!DOCTYPE svg PUBLIC "-//W3C//DTD SVG 1.1//EN"
 "http://www.w3.org/Graphics/SVG/1.1/DTD/svg11.dtd">
<!-- Generated by graphviz version 2.38.0 (20140413.2041)
 -->
<!-- Title: perl6&#45;type&#45;graph Pages: 1 -->
<svg width="418pt" height="183pt"
 viewBox="0.00 0.00 418.03 183.30" xmlns="http://www.w3.org/2000/svg" xmlns:xlink="http://www.w3.org/1999/xlink">
<g id="graph0" class="graph" transform="scale(1 1) rotate(0) translate(231.012 86.6771)">
<title>perl6&#45;type&#45;graph</title>
<polygon fill="white" stroke="none" points="-231.012,96.6224 -231.012,-86.6771 187.018,-86.6771 187.018,96.6224 -231.012,96.6224"/>
<!-- X::Comp::AdHoc -->
<g id="node1" class="node"><title>X::Comp::AdHoc</title>
<g id="a_node1"><a xlink:href="/type/X::Comp::AdHoc" xlink:title="X::Comp::AdHoc">
<ellipse fill="none" stroke="#000000" cx="-150.969" cy="18.9034" rx="76.0865" ry="18"/>
<text text-anchor="middle" x="-150.969" y="22.6034" font-family="FreeSans" font-size="14.00" fill="#000000">X::Comp::AdHoc</text>
</a>
</g>
</g>
<!-- Exception -->
<g id="node4" class="node"><title>Exception</title>
<g id="a_node4"><a xlink:href="/type/Exception" xlink:title="Exception">
<ellipse fill="none" stroke="#000000" cx="-0.284047" cy="-21.1214" rx="49.2915" ry="18"/>
<text text-anchor="middle" x="-0.284047" y="-17.4214" font-family="FreeSans" font-size="14.00" fill="#000000">Exception</text>
</a>
</g>
</g>
<!-- X::Comp::AdHoc&#45;&gt;Exception -->
<g id="edge2" class="edge"><title>X::Comp::AdHoc&#45;&gt;Exception</title>
<path fill="none" stroke="#000000" d="M-100.374,5.46438C-84.2305,1.17641 -66.382,-3.56449 -50.2814,-7.84112"/>
<polygon fill="#000000" stroke="#000000" points="-51.0766,-11.2512 -40.5132,-10.4357 -49.2796,-4.48578 -51.0766,-11.2512"/>
</g>
<!-- X::AdHoc -->
<g id="node5" class="node"><title>X::AdHoc</title>
<g id="a_node5"><a xlink:href="/type/X::AdHoc" xlink:title="X::AdHoc">
<ellipse fill="none" stroke="#000000" cx="-41.3539" cy="74.6224" rx="48.1917" ry="18"/>
<text text-anchor="middle" x="-41.3539" y="78.3224" font-family="FreeSans" font-size="14.00" fill="#000000">X::AdHoc</text>
</a>
</g>
</g>
<!-- X::Comp::AdHoc&#45;&gt;X::AdHoc -->
<g id="edge1" class="edge"><title>X::Comp::AdHoc&#45;&gt;X::AdHoc</title>
<path fill="none" stroke="#000000" d="M-118.674,35.3196C-106.274,41.6224 -92.0141,48.871 -79.1439,55.4132"/>
<polygon fill="#000000" stroke="#000000" points="-77.3929,52.3769 -70.0645,60.0284 -80.5649,58.6171 -77.3929,52.3769"/>
</g>
<!-- X::Comp -->
<g id="node6" class="node"><title>X::Comp</title>
<g id="a_node6"><a xlink:href="/type/X::Comp" xlink:title="X::Comp">
<ellipse fill="none" stroke="#6666ff" cx="-80.5309" cy="-64.6771" rx="44.6926" ry="18"/>
<text text-anchor="middle" x="-80.5309" y="-60.9771" font-family="FreeSans" font-size="14.00" fill="#6666ff">X::Comp</text>
</a>
</g>
</g>
<!-- X::Comp::AdHoc&#45;&gt;X::Comp -->
<g id="edge7" class="edge"><title>X::Comp::AdHoc&#45;&gt;X::Comp</title>
<path fill="none" stroke="#6666ff" d="M-136.031,1.17811C-125.998,-10.7267 -112.634,-26.5838 -101.534,-39.7547"/>
<polygon fill="#6666ff" stroke="#6666ff" points="-104.086,-42.1579 -94.9657,-47.549 -98.7337,-37.6469 -104.086,-42.1579"/>
</g>
<!-- Mu -->
<g id="node2" class="node"><title>Mu</title>
<g id="a_node2"><a xlink:href="/type/Mu" xlink:title="Mu">
<ellipse fill="none" stroke="#000000" cx="156.018" cy="-0.868198" rx="27" ry="18"/>
<text text-anchor="middle" x="156.018" y="2.8318" font-family="FreeSans" font-size="14.00" fill="#000000">Mu</text>
</a>
</g>
</g>
<!-- Any -->
<g id="node3" class="node"><title>Any</title>
<g id="a_node3"><a xlink:href="/type/Any" xlink:title="Any">
<ellipse fill="none" stroke="#000000" cx="74.1815" cy="18.0113" rx="27" ry="18"/>
<text text-anchor="middle" x="74.1815" y="21.7113" font-family="FreeSans" font-size="14.00" fill="#000000">Any</text>
</a>
</g>
</g>
<!-- Any&#45;&gt;Mu -->
<g id="edge3" class="edge"><title>Any&#45;&gt;Mu</title>
<path fill="none" stroke="#000000" d="M100.075,12.0377C106.556,10.5425 113.622,8.91258 120.481,7.33003"/>
<polygon fill="#000000" stroke="#000000" points="119.762,3.90411 130.293,5.06653 121.336,10.725 119.762,3.90411"/>
</g>
<!-- Exception&#45;&gt;Any -->
<g id="edge4" class="edge"><title>Exception&#45;&gt;Any</title>
<path fill="none" stroke="#000000" d="M27.8682,-6.32699C33.0165,-3.6215 38.4114,-0.78638 43.6258,1.95382"/>
<polygon fill="#000000" stroke="#000000" points="45.5002,-1.01504 52.7242,6.73516 42.2439,5.18145 45.5002,-1.01504"/>
</g>
<!-- X::AdHoc&#45;&gt;Exception -->
<g id="edge5" class="edge"><title>X::AdHoc&#45;&gt;Exception</title>
<path fill="none" stroke="#000000" d="M-33.629,56.6137C-27.5484,42.4383 -18.9727,22.4464 -12.0409,6.28673"/>
<polygon fill="#000000" stroke="#000000" points="-15.1331,4.61695 -7.97434,-3.19345 -8.70002,7.37652 -15.1331,4.61695"/>
</g>
<!-- X::Comp&#45;&gt;Exception -->
<g id="edge6" class="edge"><title>X::Comp&#45;&gt;Exception</title>
<path fill="none" stroke="#000000" d="M-53.8099,-50.1737C-48.3643,-47.218 -42.5466,-44.0603 -36.8268,-40.9557"/>
<polygon fill="#000000" stroke="#000000" points="-35.1057,-44.004 -27.9865,-36.1575 -38.445,-37.8518 -35.1057,-44.004"/>
</g>
</g>
</svg>
