<?xml version="1.0" encoding="UTF-8" standalone="no"?>
<!DOCTYPE svg PUBLIC "-//W3C//DTD SVG 1.1//EN"
 "http://www.w3.org/Graphics/SVG/1.1/DTD/svg11.dtd">
<!-- Generated by graphviz version 2.38.0 (20140413.2041)
 -->
<!-- Title: perl6&#45;type&#45;graph Pages: 1 -->
<svg width="291pt" height="332pt"
 viewBox="0.00 0.00 291.37 332.00" xmlns="http://www.w3.org/2000/svg" xmlns:xlink="http://www.w3.org/1999/xlink">
<g id="graph0" class="graph" transform="scale(1 1) rotate(0) translate(4 328)">
<title>perl6&#45;type&#45;graph</title>
<polygon fill="white" stroke="none" points="-4,4 -4,-328 287.375,-328 287.375,4 -4,4"/>
<!-- X::Proc::Async::TapBeforeSpawn -->
<g id="node1" class="node"><title>X::Proc::Async::TapBeforeSpawn</title>
<g id="a_node1"><a xlink:href="/type/X::Proc::Async::TapBeforeSpawn" xlink:title="X::Proc::Async::TapBeforeSpawn">
<ellipse fill="none" stroke="#000000" cx="141.687" cy="-18" rx="141.875" ry="18"/>
<text text-anchor="middle" x="141.687" y="-14.3" font-family="FreeSans" font-size="14.00" fill="#000000">X::Proc::Async::TapBeforeSpawn</text>
</a>
</g>
</g>
<!-- Exception -->
<g id="node4" class="node"><title>Exception</title>
<g id="a_node4"><a xlink:href="/type/Exception" xlink:title="Exception">
<ellipse fill="none" stroke="#000000" cx="141.687" cy="-162" rx="49.2915" ry="18"/>
<text text-anchor="middle" x="141.687" y="-158.3" font-family="FreeSans" font-size="14.00" fill="#000000">Exception</text>
</a>
</g>
</g>
<!-- X::Proc::Async::TapBeforeSpawn&#45;&gt;Exception -->
<g id="edge1" class="edge"><title>X::Proc::Async::TapBeforeSpawn&#45;&gt;Exception</title>
<path fill="none" stroke="#000000" d="M132.352,-36.0613C123.874,-51.5549 112.687,-72 112.687,-72 112.687,-72 112.687,-108 112.687,-108 112.687,-108 120.166,-121.667 127.527,-135.121"/>
<polygon fill="#000000" stroke="#000000" points="124.641,-137.138 132.512,-144.23 130.782,-133.778 124.641,-137.138"/>
</g>
<!-- X::Proc::Async -->
<g id="node5" class="node"><title>X::Proc::Async</title>
<g id="a_node5"><a xlink:href="/type/X::Proc::Async" xlink:title="X::Proc::Async">
<ellipse fill="none" stroke="#6666ff" cx="189.687" cy="-90" rx="68.4888" ry="18"/>
<text text-anchor="middle" x="189.687" y="-86.3" font-family="FreeSans" font-size="14.00" fill="#6666ff">X::Proc::Async</text>
</a>
</g>
</g>
<!-- X::Proc::Async::TapBeforeSpawn&#45;&gt;X::Proc::Async -->
<g id="edge5" class="edge"><title>X::Proc::Async::TapBeforeSpawn&#45;&gt;X::Proc::Async</title>
<path fill="none" stroke="#6666ff" d="M153.307,-35.945C159.026,-44.2853 166.037,-54.5092 172.372,-63.7483"/>
<polygon fill="#6666ff" stroke="#6666ff" points="169.633,-65.9431 178.175,-72.211 175.406,-61.9843 169.633,-65.9431"/>
</g>
<!-- Mu -->
<g id="node2" class="node"><title>Mu</title>
<g id="a_node2"><a xlink:href="/type/Mu" xlink:title="Mu">
<ellipse fill="none" stroke="#000000" cx="141.687" cy="-306" rx="27" ry="18"/>
<text text-anchor="middle" x="141.687" y="-302.3" font-family="FreeSans" font-size="14.00" fill="#000000">Mu</text>
</a>
</g>
</g>
<!-- Any -->
<g id="node3" class="node"><title>Any</title>
<g id="a_node3"><a xlink:href="/type/Any" xlink:title="Any">
<ellipse fill="none" stroke="#000000" cx="141.687" cy="-234" rx="27" ry="18"/>
<text text-anchor="middle" x="141.687" y="-230.3" font-family="FreeSans" font-size="14.00" fill="#000000">Any</text>
</a>
</g>
</g>
<!-- Any&#45;&gt;Mu -->
<g id="edge2" class="edge"><title>Any&#45;&gt;Mu</title>
<path fill="none" stroke="#000000" d="M141.687,-252.303C141.687,-260.017 141.687,-269.288 141.687,-277.888"/>
<polygon fill="#000000" stroke="#000000" points="138.188,-277.896 141.687,-287.896 145.188,-277.896 138.188,-277.896"/>
</g>
<!-- Exception&#45;&gt;Any -->
<g id="edge3" class="edge"><title>Exception&#45;&gt;Any</title>
<path fill="none" stroke="#000000" d="M141.687,-180.303C141.687,-188.017 141.687,-197.288 141.687,-205.888"/>
<polygon fill="#000000" stroke="#000000" points="138.188,-205.896 141.687,-215.896 145.188,-205.896 138.188,-205.896"/>
</g>
<!-- X::Proc::Async&#45;&gt;Exception -->
<g id="edge4" class="edge"><title>X::Proc::Async&#45;&gt;Exception</title>
<path fill="none" stroke="#000000" d="M178.068,-107.945C172.349,-116.285 165.338,-126.509 159.003,-135.748"/>
<polygon fill="#000000" stroke="#000000" points="155.969,-133.984 153.2,-144.211 161.742,-137.943 155.969,-133.984"/>
</g>
</g>
</svg>
