<?xml version="1.0" encoding="UTF-8" standalone="no"?>
<!DOCTYPE svg PUBLIC "-//W3C//DTD SVG 1.1//EN"
 "http://www.w3.org/Graphics/SVG/1.1/DTD/svg11.dtd">
<!-- Generated by graphviz version 2.38.0 (20140413.2041)
 -->
<!-- Title: perl6&#45;type&#45;graph Pages: 1 -->
<svg width="920pt" height="332pt"
 viewBox="0.00 0.00 919.95 332.00" xmlns="http://www.w3.org/2000/svg" xmlns:xlink="http://www.w3.org/1999/xlink">
<g id="graph0" class="graph" transform="scale(1 1) rotate(0) translate(4 328)">
<title>perl6&#45;type&#45;graph</title>
<polygon fill="white" stroke="none" points="-4,4 -4,-328 915.946,-328 915.946,4 -4,4"/>
<!-- Real -->
<g id="node1" class="node"><title>Real</title>
<g id="a_node1"><a xlink:href="/type/Real" xlink:title="Real">
<ellipse fill="none" stroke="#6666ff" cx="563.946" cy="-162" rx="28.6953" ry="18"/>
<text text-anchor="middle" x="563.946" y="-158.3" font-family="FreeSans" font-size="14.00" fill="#6666ff">Real</text>
</a>
</g>
</g>
<!-- Numeric -->
<g id="node2" class="node"><title>Numeric</title>
<g id="a_node2"><a xlink:href="/type/Numeric" xlink:title="Numeric">
<ellipse fill="none" stroke="#6666ff" cx="563.946" cy="-234" rx="44.393" ry="18"/>
<text text-anchor="middle" x="563.946" y="-230.3" font-family="FreeSans" font-size="14.00" fill="#6666ff">Numeric</text>
</a>
</g>
</g>
<!-- Real&#45;&gt;Numeric -->
<g id="edge20" class="edge"><title>Real&#45;&gt;Numeric</title>
<path fill="none" stroke="#6666ff" d="M563.946,-180.303C563.946,-188.017 563.946,-197.288 563.946,-205.888"/>
<polygon fill="#6666ff" stroke="#6666ff" points="560.446,-205.896 563.946,-215.896 567.446,-205.896 560.446,-205.896"/>
</g>
<!-- Mu -->
<g id="node3" class="node"><title>Mu</title>
<g id="a_node3"><a xlink:href="/type/Mu" xlink:title="Mu">
<ellipse fill="none" stroke="#000000" cx="460.946" cy="-306" rx="27" ry="18"/>
<text text-anchor="middle" x="460.946" y="-302.3" font-family="FreeSans" font-size="14.00" fill="#000000">Mu</text>
</a>
</g>
</g>
<!-- Any -->
<g id="node4" class="node"><title>Any</title>
<g id="a_node4"><a xlink:href="/type/Any" xlink:title="Any">
<ellipse fill="none" stroke="#000000" cx="460.946" cy="-234" rx="27" ry="18"/>
<text text-anchor="middle" x="460.946" y="-230.3" font-family="FreeSans" font-size="14.00" fill="#000000">Any</text>
</a>
</g>
</g>
<!-- Any&#45;&gt;Mu -->
<g id="edge1" class="edge"><title>Any&#45;&gt;Mu</title>
<path fill="none" stroke="#000000" d="M460.946,-252.303C460.946,-260.017 460.946,-269.288 460.946,-277.888"/>
<polygon fill="#000000" stroke="#000000" points="457.446,-277.896 460.946,-287.896 464.446,-277.896 457.446,-277.896"/>
</g>
<!-- Cool -->
<g id="node5" class="node"><title>Cool</title>
<g id="a_node5"><a xlink:href="/type/Cool" xlink:title="Cool">
<ellipse fill="none" stroke="#000000" cx="460.946" cy="-162" rx="28.6953" ry="18"/>
<text text-anchor="middle" x="460.946" y="-158.3" font-family="FreeSans" font-size="14.00" fill="#000000">Cool</text>
</a>
</g>
</g>
<!-- Cool&#45;&gt;Any -->
<g id="edge2" class="edge"><title>Cool&#45;&gt;Any</title>
<path fill="none" stroke="#000000" d="M460.946,-180.303C460.946,-188.017 460.946,-197.288 460.946,-205.888"/>
<polygon fill="#000000" stroke="#000000" points="457.446,-205.896 460.946,-215.896 464.446,-205.896 457.446,-205.896"/>
</g>
<!-- Instant -->
<g id="node6" class="node"><title>Instant</title>
<g id="a_node6"><a xlink:href="/type/Instant" xlink:title="Instant">
<ellipse fill="none" stroke="#000000" cx="563.946" cy="-90" rx="37.0935" ry="18"/>
<text text-anchor="middle" x="563.946" y="-86.3" font-family="FreeSans" font-size="14.00" fill="#000000">Instant</text>
</a>
</g>
</g>
<!-- Instant&#45;&gt;Real -->
<g id="edge21" class="edge"><title>Instant&#45;&gt;Real</title>
<path fill="none" stroke="#6666ff" d="M563.946,-108.303C563.946,-116.017 563.946,-125.288 563.946,-133.888"/>
<polygon fill="#6666ff" stroke="#6666ff" points="560.446,-133.896 563.946,-143.896 567.446,-133.896 560.446,-133.896"/>
</g>
<!-- Instant&#45;&gt;Cool -->
<g id="edge3" class="edge"><title>Instant&#45;&gt;Cool</title>
<path fill="none" stroke="#000000" d="M543.103,-105.166C527.285,-115.916 505.4,-130.789 488.195,-142.482"/>
<polygon fill="#000000" stroke="#000000" points="485.984,-139.752 479.681,-148.268 489.919,-145.542 485.984,-139.752"/>
</g>
<!-- Int -->
<g id="node7" class="node"><title>Int</title>
<g id="a_node7"><a xlink:href="/type/Int" xlink:title="Int">
<ellipse fill="none" stroke="#000000" cx="405.946" cy="-90" rx="27" ry="18"/>
<text text-anchor="middle" x="405.946" y="-86.3" font-family="FreeSans" font-size="14.00" fill="#000000">Int</text>
</a>
</g>
</g>
<!-- Int&#45;&gt;Real -->
<g id="edge22" class="edge"><title>Int&#45;&gt;Real</title>
<path fill="none" stroke="#6666ff" d="M427.916,-100.733C454.848,-112.665 500.716,-132.987 531.661,-146.696"/>
<polygon fill="#6666ff" stroke="#6666ff" points="530.58,-150.045 541.141,-150.896 533.415,-143.645 530.58,-150.045"/>
</g>
<!-- Int&#45;&gt;Cool -->
<g id="edge4" class="edge"><title>Int&#45;&gt;Cool</title>
<path fill="none" stroke="#000000" d="M417.881,-106.189C425.06,-115.327 434.351,-127.151 442.463,-137.476"/>
<polygon fill="#000000" stroke="#000000" points="439.724,-139.655 448.655,-145.356 445.229,-135.33 439.724,-139.655"/>
</g>
<!-- Num -->
<g id="node8" class="node"><title>Num</title>
<g id="a_node8"><a xlink:href="/type/Num" xlink:title="Num">
<ellipse fill="none" stroke="#000000" cx="330.946" cy="-90" rx="29.795" ry="18"/>
<text text-anchor="middle" x="330.946" y="-86.3" font-family="FreeSans" font-size="14.00" fill="#000000">Num</text>
</a>
</g>
</g>
<!-- Num&#45;&gt;Real -->
<g id="edge23" class="edge"><title>Num&#45;&gt;Real</title>
<path fill="none" stroke="#6666ff" d="M354.533,-101.281C362.746,-104.861 369.946,-108 369.946,-108 369.946,-108 472.278,-135.957 528.298,-151.261"/>
<polygon fill="#6666ff" stroke="#6666ff" points="527.616,-154.703 538.185,-153.962 529.461,-147.95 527.616,-154.703"/>
</g>
<!-- Num&#45;&gt;Cool -->
<g id="edge5" class="edge"><title>Num&#45;&gt;Cool</title>
<path fill="none" stroke="#000000" d="M352.413,-102.559C373.805,-114.078 406.838,-131.865 430.845,-144.791"/>
<polygon fill="#000000" stroke="#000000" points="429.415,-147.997 439.879,-149.656 432.734,-141.833 429.415,-147.997"/>
</g>
<!-- Rational -->
<g id="node9" class="node"><title>Rational</title>
<g id="a_node9"><a xlink:href="/type/Rational" xlink:title="Rational">
<ellipse fill="none" stroke="#6666ff" cx="802.946" cy="-90" rx="42.7926" ry="18"/>
<text text-anchor="middle" x="802.946" y="-86.3" font-family="FreeSans" font-size="14.00" fill="#6666ff">Rational</text>
</a>
</g>
</g>
<!-- Rational&#45;&gt;Real -->
<g id="edge24" class="edge"><title>Rational&#45;&gt;Real</title>
<path fill="none" stroke="#6666ff" d="M768.703,-101.029C723.584,-114.244 644.63,-137.369 599.074,-150.712"/>
<polygon fill="#6666ff" stroke="#6666ff" points="597.953,-147.393 589.34,-153.563 599.92,-154.111 597.953,-147.393"/>
</g>
<!-- Duration -->
<g id="node10" class="node"><title>Duration</title>
<g id="a_node10"><a xlink:href="/type/Duration" xlink:title="Duration">
<ellipse fill="none" stroke="#000000" cx="662.946" cy="-90" rx="44.393" ry="18"/>
<text text-anchor="middle" x="662.946" y="-86.3" font-family="FreeSans" font-size="14.00" fill="#000000">Duration</text>
</a>
</g>
</g>
<!-- Duration&#45;&gt;Real -->
<g id="edge25" class="edge"><title>Duration&#45;&gt;Real</title>
<path fill="none" stroke="#6666ff" d="M641.951,-105.845C627.009,-116.41 606.811,-130.692 590.712,-142.075"/>
<polygon fill="#6666ff" stroke="#6666ff" points="588.393,-139.428 582.249,-148.059 592.435,-145.143 588.393,-139.428"/>
</g>
<!-- Duration&#45;&gt;Cool -->
<g id="edge6" class="edge"><title>Duration&#45;&gt;Cool</title>
<path fill="none" stroke="#000000" d="M630.492,-102.247C593.329,-115.125 532.724,-136.126 494.932,-149.223"/>
<polygon fill="#000000" stroke="#000000" points="493.683,-145.952 485.38,-152.533 495.975,-152.566 493.683,-145.952"/>
</g>
<!-- PromiseStatus -->
<g id="node11" class="node"><title>PromiseStatus</title>
<g id="a_node11"><a xlink:href="/type/PromiseStatus" xlink:title="PromiseStatus">
<ellipse fill="none" stroke="#33bb33" cx="484.946" cy="-18" rx="67.6881" ry="18"/>
<text text-anchor="middle" x="484.946" y="-14.3" font-family="FreeSans" font-size="14.00" fill="#33bb33">PromiseStatus</text>
</a>
</g>
</g>
<!-- PromiseStatus&#45;&gt;Int -->
<g id="edge7" class="edge"><title>PromiseStatus&#45;&gt;Int</title>
<path fill="none" stroke="#000000" d="M466.224,-35.589C455.177,-45.378 441.098,-57.8531 429.325,-68.2847"/>
<polygon fill="#000000" stroke="#000000" points="426.772,-65.8704 421.609,-75.1219 431.415,-71.1096 426.772,-65.8704"/>
</g>
<!-- Order -->
<g id="node12" class="node"><title>Order</title>
<g id="a_node12"><a xlink:href="/type/Order" xlink:title="Order">
<ellipse fill="none" stroke="#33bb33" cx="603.946" cy="-18" rx="33.5952" ry="18"/>
<text text-anchor="middle" x="603.946" y="-14.3" font-family="FreeSans" font-size="14.00" fill="#33bb33">Order</text>
</a>
</g>
</g>
<!-- Order&#45;&gt;Int -->
<g id="edge8" class="edge"><title>Order&#45;&gt;Int</title>
<path fill="none" stroke="#000000" d="M577.586,-29.6698C569.147,-33.0854 561.946,-36 561.946,-36 561.946,-36 446.946,-72 446.946,-72 446.946,-72 443.067,-73.6087 437.694,-75.8363"/>
<polygon fill="#000000" stroke="#000000" points="436.263,-72.6409 428.366,-79.7042 438.944,-79.1071 436.263,-72.6409"/>
</g>
<!-- atomicint -->
<g id="node13" class="node"><title>atomicint</title>
<g id="a_node13"><a xlink:href="/type/atomicint" xlink:title="atomicint">
<ellipse fill="none" stroke="#000000" cx="701.946" cy="-18" rx="46.2923" ry="18"/>
<text text-anchor="middle" x="701.946" y="-14.3" font-family="FreeSans" font-size="14.00" fill="#000000">atomicint</text>
</a>
</g>
</g>
<!-- atomicint&#45;&gt;Int -->
<g id="edge9" class="edge"><title>atomicint&#45;&gt;Int</title>
<path fill="none" stroke="#000000" d="M666.803,-29.8626C656.024,-33.1943 646.946,-36 646.946,-36 646.946,-36 446.946,-72 446.946,-72 446.946,-72 443.067,-73.6087 437.694,-75.8363"/>
<polygon fill="#000000" stroke="#000000" points="436.263,-72.6409 428.366,-79.7042 438.944,-79.1071 436.263,-72.6409"/>
</g>
<!-- Signal -->
<g id="node14" class="node"><title>Signal</title>
<g id="a_node14"><a xlink:href="/type/Signal" xlink:title="Signal">
<ellipse fill="none" stroke="#33bb33" cx="216.946" cy="-18" rx="35.194" ry="18"/>
<text text-anchor="middle" x="216.946" y="-14.3" font-family="FreeSans" font-size="14.00" fill="#33bb33">Signal</text>
</a>
</g>
</g>
<!-- Signal&#45;&gt;Int -->
<g id="edge10" class="edge"><title>Signal&#45;&gt;Int</title>
<path fill="none" stroke="#000000" d="M244.061,-29.476C253.115,-32.9744 260.946,-36 260.946,-36 260.946,-36 369.946,-72 369.946,-72 369.946,-72 372.127,-73.0296 375.414,-74.5819"/>
<polygon fill="#000000" stroke="#000000" points="374.052,-77.8093 384.589,-78.9146 377.041,-71.4796 374.052,-77.8093"/>
</g>
<!-- Stringy -->
<g id="node15" class="node"><title>Stringy</title>
<g id="a_node15"><a xlink:href="/type/Stringy" xlink:title="Stringy">
<ellipse fill="none" stroke="#6666ff" cx="131.946" cy="-162" rx="38.1938" ry="18"/>
<text text-anchor="middle" x="131.946" y="-158.3" font-family="FreeSans" font-size="14.00" fill="#6666ff">Stringy</text>
</a>
</g>
</g>
<!-- Str -->
<g id="node16" class="node"><title>Str</title>
<g id="a_node16"><a xlink:href="/type/Str" xlink:title="Str">
<ellipse fill="none" stroke="#000000" cx="131.946" cy="-90" rx="27" ry="18"/>
<text text-anchor="middle" x="131.946" y="-86.3" font-family="FreeSans" font-size="14.00" fill="#000000">Str</text>
</a>
</g>
</g>
<!-- Str&#45;&gt;Cool -->
<g id="edge11" class="edge"><title>Str&#45;&gt;Cool</title>
<path fill="none" stroke="#000000" d="M157.216,-96.3766C214.918,-108.654 356.573,-138.793 424.05,-153.15"/>
<polygon fill="#000000" stroke="#000000" points="423.71,-156.656 434.219,-155.313 425.166,-149.809 423.71,-156.656"/>
</g>
<!-- Str&#45;&gt;Stringy -->
<g id="edge26" class="edge"><title>Str&#45;&gt;Stringy</title>
<path fill="none" stroke="#6666ff" d="M131.946,-108.303C131.946,-116.017 131.946,-125.288 131.946,-133.888"/>
<polygon fill="#6666ff" stroke="#6666ff" points="128.446,-133.896 131.946,-143.896 135.446,-133.896 128.446,-133.896"/>
</g>
<!-- IntStr -->
<g id="node17" class="node"><title>IntStr</title>
<g id="a_node17"><a xlink:href="/type/IntStr" xlink:title="IntStr">
<ellipse fill="none" stroke="#000000" cx="131.946" cy="-18" rx="31.6951" ry="18"/>
<text text-anchor="middle" x="131.946" y="-14.3" font-family="FreeSans" font-size="14.00" fill="#000000">IntStr</text>
</a>
</g>
</g>
<!-- IntStr&#45;&gt;Int -->
<g id="edge12" class="edge"><title>IntStr&#45;&gt;Int</title>
<path fill="none" stroke="#000000" d="M157.212,-29.476C165.649,-32.9744 172.946,-36 172.946,-36 172.946,-36 369.946,-72 369.946,-72 369.946,-72 372.127,-73.0296 375.414,-74.5819"/>
<polygon fill="#000000" stroke="#000000" points="374.052,-77.8093 384.589,-78.9146 377.041,-71.4796 374.052,-77.8093"/>
</g>
<!-- IntStr&#45;&gt;Str -->
<g id="edge13" class="edge"><title>IntStr&#45;&gt;Str</title>
<path fill="none" stroke="#000000" d="M131.946,-36.3034C131.946,-44.0173 131.946,-53.2875 131.946,-61.8876"/>
<polygon fill="#000000" stroke="#000000" points="128.446,-61.8956 131.946,-71.8957 135.446,-61.8957 128.446,-61.8956"/>
</g>
<!-- int -->
<g id="node18" class="node"><title>int</title>
<g id="a_node18"><a xlink:href="/type/int" xlink:title="int">
<ellipse fill="none" stroke="#000000" cx="296.946" cy="-18" rx="27" ry="18"/>
<text text-anchor="middle" x="296.946" y="-14.3" font-family="FreeSans" font-size="14.00" fill="#000000">int</text>
</a>
</g>
</g>
<!-- int&#45;&gt;Int -->
<g id="edge14" class="edge"><title>int&#45;&gt;Int</title>
<path fill="none" stroke="#000000" d="M315.933,-31.1931C333.282,-42.3347 359.135,-58.9378 378.69,-71.4957"/>
<polygon fill="#000000" stroke="#000000" points="376.872,-74.4879 387.178,-76.9467 380.655,-68.5979 376.872,-74.4879"/>
</g>
<!-- Bool -->
<g id="node19" class="node"><title>Bool</title>
<g id="a_node19"><a xlink:href="/type/Bool" xlink:title="Bool">
<ellipse fill="none" stroke="#33bb33" cx="370.946" cy="-18" rx="28.6953" ry="18"/>
<text text-anchor="middle" x="370.946" y="-14.3" font-family="FreeSans" font-size="14.00" fill="#33bb33">Bool</text>
</a>
</g>
</g>
<!-- Bool&#45;&gt;Int -->
<g id="edge15" class="edge"><title>Bool&#45;&gt;Int</title>
<path fill="none" stroke="#000000" d="M379.241,-35.589C383.382,-43.8708 388.484,-54.0751 393.115,-63.338"/>
<polygon fill="#000000" stroke="#000000" points="390.109,-65.151 397.711,-72.5301 396.37,-62.0205 390.109,-65.151"/>
</g>
<!-- NumStr -->
<g id="node20" class="node"><title>NumStr</title>
<g id="a_node20"><a xlink:href="/type/NumStr" xlink:title="NumStr">
<ellipse fill="none" stroke="#000000" cx="40.9464" cy="-18" rx="40.8928" ry="18"/>
<text text-anchor="middle" x="40.9464" y="-14.3" font-family="FreeSans" font-size="14.00" fill="#000000">NumStr</text>
</a>
</g>
</g>
<!-- NumStr&#45;&gt;Num -->
<g id="edge16" class="edge"><title>NumStr&#45;&gt;Num</title>
<path fill="none" stroke="#000000" d="M72.3282,-29.6698C82.374,-33.0854 90.9464,-36 90.9464,-36 90.9464,-36 226.139,-65.855 293.59,-80.7506"/>
<polygon fill="#000000" stroke="#000000" points="292.896,-84.1814 303.415,-82.9202 294.405,-77.3461 292.896,-84.1814"/>
</g>
<!-- NumStr&#45;&gt;Str -->
<g id="edge17" class="edge"><title>NumStr&#45;&gt;Str</title>
<path fill="none" stroke="#000000" d="M60.692,-34.189C74.2381,-44.609 92.3253,-58.5222 106.887,-69.7232"/>
<polygon fill="#000000" stroke="#000000" points="104.931,-72.635 114.992,-75.9579 109.199,-67.0866 104.931,-72.635"/>
</g>
<!-- Rat -->
<g id="node21" class="node"><title>Rat</title>
<g id="a_node21"><a xlink:href="/type/Rat" xlink:title="Rat">
<ellipse fill="none" stroke="#000000" cx="884.946" cy="-18" rx="27" ry="18"/>
<text text-anchor="middle" x="884.946" y="-14.3" font-family="FreeSans" font-size="14.00" fill="#000000">Rat</text>
</a>
</g>
</g>
<!-- Rat&#45;&gt;Cool -->
<g id="edge18" class="edge"><title>Rat&#45;&gt;Cool</title>
<path fill="none" stroke="#000000" d="M863.589,-29.0854C855.837,-32.7461 848.946,-36 848.946,-36 848.946,-36 517.946,-72 517.946,-72 517.946,-72 493.609,-110 476.74,-136.34"/>
<polygon fill="#000000" stroke="#000000" points="473.583,-134.78 471.137,-145.089 479.477,-138.555 473.583,-134.78"/>
</g>
<!-- Rat&#45;&gt;Rational -->
<g id="edge27" class="edge"><title>Rat&#45;&gt;Rational</title>
<path fill="none" stroke="#6666ff" d="M868.746,-32.8297C857.382,-42.5305 841.947,-55.7068 828.882,-66.8597"/>
<polygon fill="#6666ff" stroke="#6666ff" points="826.445,-64.3386 821.111,-73.4932 830.99,-69.6626 826.445,-64.3386"/>
</g>
<!-- FatRat -->
<g id="node22" class="node"><title>FatRat</title>
<g id="a_node22"><a xlink:href="/type/FatRat" xlink:title="FatRat">
<ellipse fill="none" stroke="#000000" cx="802.946" cy="-18" rx="37.0935" ry="18"/>
<text text-anchor="middle" x="802.946" y="-14.3" font-family="FreeSans" font-size="14.00" fill="#000000">FatRat</text>
</a>
</g>
</g>
<!-- FatRat&#45;&gt;Cool -->
<g id="edge19" class="edge"><title>FatRat&#45;&gt;Cool</title>
<path fill="none" stroke="#000000" d="M774.337,-29.573C764.982,-33.0301 756.946,-36 756.946,-36 756.946,-36 484.946,-72 484.946,-72 484.946,-72 475.284,-107.833 468.22,-134.025"/>
<polygon fill="#000000" stroke="#000000" points="464.798,-133.273 465.574,-143.84 471.557,-135.096 464.798,-133.273"/>
</g>
<!-- FatRat&#45;&gt;Rational -->
<g id="edge28" class="edge"><title>FatRat&#45;&gt;Rational</title>
<path fill="none" stroke="#6666ff" d="M802.946,-36.3034C802.946,-44.0173 802.946,-53.2875 802.946,-61.8876"/>
<polygon fill="#6666ff" stroke="#6666ff" points="799.446,-61.8956 802.946,-71.8957 806.446,-61.8957 799.446,-61.8956"/>
</g>
</g>
</svg>
