<?xml version="1.0" encoding="UTF-8" standalone="no"?>
<!DOCTYPE svg PUBLIC "-//W3C//DTD SVG 1.1//EN"
 "http://www.w3.org/Graphics/SVG/1.1/DTD/svg11.dtd">
<!-- Generated by graphviz version 2.38.0 (20140413.2041)
 -->
<!-- Title: perl6&#45;type&#45;graph Pages: 1 -->
<svg width="1461pt" height="332pt"
 viewBox="0.00 0.00 1460.90 332.00" xmlns="http://www.w3.org/2000/svg" xmlns:xlink="http://www.w3.org/1999/xlink">
<g id="graph0" class="graph" transform="scale(1 1) rotate(0) translate(4 328)">
<title>perl6&#45;type&#45;graph</title>
<polygon fill="white" stroke="none" points="-4,4 -4,-328 1456.9,-328 1456.9,4 -4,4"/>
<!-- Cool -->
<g id="node1" class="node"><title>Cool</title>
<g id="a_node1"><a xlink:href="/type/Cool" xlink:title="Cool">
<ellipse fill="none" stroke="#000000" cx="699.896" cy="-162" rx="28.6953" ry="18"/>
<text text-anchor="middle" x="699.896" y="-158.3" font-family="FreeSans" font-size="14.00" fill="#000000">Cool</text>
</a>
</g>
</g>
<!-- Any -->
<g id="node3" class="node"><title>Any</title>
<g id="a_node3"><a xlink:href="/type/Any" xlink:title="Any">
<ellipse fill="none" stroke="#000000" cx="654.896" cy="-234" rx="27" ry="18"/>
<text text-anchor="middle" x="654.896" y="-230.3" font-family="FreeSans" font-size="14.00" fill="#000000">Any</text>
</a>
</g>
</g>
<!-- Cool&#45;&gt;Any -->
<g id="edge1" class="edge"><title>Cool&#45;&gt;Any</title>
<path fill="none" stroke="#000000" d="M689.685,-178.884C684.047,-187.655 676.923,-198.736 670.592,-208.584"/>
<polygon fill="#000000" stroke="#000000" points="667.53,-206.874 665.067,-217.179 673.419,-210.66 667.53,-206.874"/>
</g>
<!-- Mu -->
<g id="node2" class="node"><title>Mu</title>
<g id="a_node2"><a xlink:href="/type/Mu" xlink:title="Mu">
<ellipse fill="none" stroke="#000000" cx="654.896" cy="-306" rx="27" ry="18"/>
<text text-anchor="middle" x="654.896" y="-302.3" font-family="FreeSans" font-size="14.00" fill="#000000">Mu</text>
</a>
</g>
</g>
<!-- Any&#45;&gt;Mu -->
<g id="edge2" class="edge"><title>Any&#45;&gt;Mu</title>
<path fill="none" stroke="#000000" d="M654.896,-252.303C654.896,-260.017 654.896,-269.288 654.896,-277.888"/>
<polygon fill="#000000" stroke="#000000" points="651.396,-277.896 654.896,-287.896 658.396,-277.896 651.396,-277.896"/>
</g>
<!-- Numeric -->
<g id="node4" class="node"><title>Numeric</title>
<g id="a_node4"><a xlink:href="/type/Numeric" xlink:title="Numeric">
<ellipse fill="none" stroke="#6666ff" cx="284.896" cy="-234" rx="44.393" ry="18"/>
<text text-anchor="middle" x="284.896" y="-230.3" font-family="FreeSans" font-size="14.00" fill="#6666ff">Numeric</text>
</a>
</g>
</g>
<!-- Real -->
<g id="node5" class="node"><title>Real</title>
<g id="a_node5"><a xlink:href="/type/Real" xlink:title="Real">
<ellipse fill="none" stroke="#6666ff" cx="312.896" cy="-162" rx="28.6953" ry="18"/>
<text text-anchor="middle" x="312.896" y="-158.3" font-family="FreeSans" font-size="14.00" fill="#6666ff">Real</text>
</a>
</g>
</g>
<!-- Real&#45;&gt;Numeric -->
<g id="edge20" class="edge"><title>Real&#45;&gt;Numeric</title>
<path fill="none" stroke="#6666ff" d="M306.261,-179.589C303.03,-187.665 299.069,-197.569 295.438,-206.645"/>
<polygon fill="#6666ff" stroke="#6666ff" points="292.143,-205.459 291.679,-216.044 298.642,-208.059 292.143,-205.459"/>
</g>
<!-- Duration -->
<g id="node6" class="node"><title>Duration</title>
<g id="a_node6"><a xlink:href="/type/Duration" xlink:title="Duration">
<ellipse fill="none" stroke="#000000" cx="348.896" cy="-90" rx="44.393" ry="18"/>
<text text-anchor="middle" x="348.896" y="-86.3" font-family="FreeSans" font-size="14.00" fill="#000000">Duration</text>
</a>
</g>
</g>
<!-- Duration&#45;&gt;Cool -->
<g id="edge3" class="edge"><title>Duration&#45;&gt;Cool</title>
<path fill="none" stroke="#000000" d="M382.462,-101.766C392.98,-105.14 401.896,-108 401.896,-108 401.896,-108 653.896,-144 653.896,-144 653.896,-144 659.232,-145.972 666.269,-148.572"/>
<polygon fill="#000000" stroke="#000000" points="665.225,-151.918 675.818,-152.102 667.652,-145.352 665.225,-151.918"/>
</g>
<!-- Duration&#45;&gt;Real -->
<g id="edge21" class="edge"><title>Duration&#45;&gt;Real</title>
<path fill="none" stroke="#6666ff" d="M340.182,-107.945C335.919,-116.233 330.7,-126.382 325.971,-135.576"/>
<polygon fill="#6666ff" stroke="#6666ff" points="322.744,-134.199 321.283,-144.693 328.969,-137.401 322.744,-134.199"/>
</g>
<!-- Instant -->
<g id="node7" class="node"><title>Instant</title>
<g id="a_node7"><a xlink:href="/type/Instant" xlink:title="Instant">
<ellipse fill="none" stroke="#000000" cx="249.896" cy="-90" rx="37.0935" ry="18"/>
<text text-anchor="middle" x="249.896" y="-86.3" font-family="FreeSans" font-size="14.00" fill="#000000">Instant</text>
</a>
</g>
</g>
<!-- Instant&#45;&gt;Cool -->
<g id="edge4" class="edge"><title>Instant&#45;&gt;Cool</title>
<path fill="none" stroke="#000000" d="M278.506,-101.573C287.86,-105.03 295.896,-108 295.896,-108 295.896,-108 653.896,-144 653.896,-144 653.896,-144 659.232,-145.972 666.269,-148.572"/>
<polygon fill="#000000" stroke="#000000" points="665.225,-151.918 675.818,-152.102 667.652,-145.352 665.225,-151.918"/>
</g>
<!-- Instant&#45;&gt;Real -->
<g id="edge22" class="edge"><title>Instant&#45;&gt;Real</title>
<path fill="none" stroke="#6666ff" d="M264.192,-106.884C272.524,-116.142 283.172,-127.973 292.386,-138.211"/>
<polygon fill="#6666ff" stroke="#6666ff" points="289.799,-140.568 299.09,-145.66 295.002,-135.885 289.799,-140.568"/>
</g>
<!-- Rational -->
<g id="node8" class="node"><title>Rational</title>
<g id="a_node8"><a xlink:href="/type/Rational" xlink:title="Rational">
<ellipse fill="none" stroke="#6666ff" cx="42.8962" cy="-90" rx="42.7926" ry="18"/>
<text text-anchor="middle" x="42.8962" y="-86.3" font-family="FreeSans" font-size="14.00" fill="#6666ff">Rational</text>
</a>
</g>
</g>
<!-- Rational&#45;&gt;Real -->
<g id="edge23" class="edge"><title>Rational&#45;&gt;Real</title>
<path fill="none" stroke="#6666ff" d="M75.8286,-101.766C86.1483,-105.14 94.8962,-108 94.8962,-108 94.8962,-108 214.887,-137.172 276.826,-152.231"/>
<polygon fill="#6666ff" stroke="#6666ff" points="276.056,-155.645 286.6,-154.607 277.71,-148.844 276.056,-155.645"/>
</g>
<!-- FatRat -->
<g id="node9" class="node"><title>FatRat</title>
<g id="a_node9"><a xlink:href="/type/FatRat" xlink:title="FatRat">
<ellipse fill="none" stroke="#000000" cx="364.896" cy="-18" rx="37.0935" ry="18"/>
<text text-anchor="middle" x="364.896" y="-14.3" font-family="FreeSans" font-size="14.00" fill="#000000">FatRat</text>
</a>
</g>
</g>
<!-- FatRat&#45;&gt;Cool -->
<g id="edge5" class="edge"><title>FatRat&#45;&gt;Cool</title>
<path fill="none" stroke="#000000" d="M399.757,-24.3245C487.751,-37.7646 711.896,-72 711.896,-72 711.896,-72 711.896,-108 711.896,-108 711.896,-108 708.957,-120.983 705.987,-134.097"/>
<polygon fill="#000000" stroke="#000000" points="702.554,-133.413 703.759,-143.939 709.381,-134.959 702.554,-133.413"/>
</g>
<!-- FatRat&#45;&gt;Rational -->
<g id="edge24" class="edge"><title>FatRat&#45;&gt;Rational</title>
<path fill="none" stroke="#6666ff" d="M331.246,-25.6053C258.868,-39.8129 94.8962,-72 94.8962,-72 94.8962,-72 91.1288,-73.2316 85.6221,-75.0319"/>
<polygon fill="#6666ff" stroke="#6666ff" points="84.2459,-71.7995 75.8286,-78.2336 86.4212,-78.4529 84.2459,-71.7995"/>
</g>
<!-- Positional -->
<g id="node10" class="node"><title>Positional</title>
<g id="a_node10"><a xlink:href="/type/Positional" xlink:title="Positional">
<ellipse fill="none" stroke="#6666ff" cx="891.896" cy="-162" rx="48.9926" ry="18"/>
<text text-anchor="middle" x="891.896" y="-158.3" font-family="FreeSans" font-size="14.00" fill="#6666ff">Positional</text>
</a>
</g>
</g>
<!-- Iterable -->
<g id="node11" class="node"><title>Iterable</title>
<g id="a_node11"><a xlink:href="/type/Iterable" xlink:title="Iterable">
<ellipse fill="none" stroke="#6666ff" cx="998.896" cy="-162" rx="40.0939" ry="18"/>
<text text-anchor="middle" x="998.896" y="-158.3" font-family="FreeSans" font-size="14.00" fill="#6666ff">Iterable</text>
</a>
</g>
</g>
<!-- List -->
<g id="node12" class="node"><title>List</title>
<g id="a_node12"><a xlink:href="/type/List" xlink:title="List">
<ellipse fill="none" stroke="#000000" cx="985.896" cy="-90" rx="27" ry="18"/>
<text text-anchor="middle" x="985.896" y="-86.3" font-family="FreeSans" font-size="14.00" fill="#000000">List</text>
</a>
</g>
</g>
<!-- List&#45;&gt;Cool -->
<g id="edge6" class="edge"><title>List&#45;&gt;Cool</title>
<path fill="none" stroke="#000000" d="M964.539,-101.085C956.787,-104.746 949.896,-108 949.896,-108 949.896,-108 739.896,-144 739.896,-144 739.896,-144 736.951,-145.252 732.658,-147.076"/>
<polygon fill="#000000" stroke="#000000" points="730.999,-143.978 723.164,-151.111 733.737,-150.421 730.999,-143.978"/>
</g>
<!-- List&#45;&gt;Positional -->
<g id="edge25" class="edge"><title>List&#45;&gt;Positional</title>
<path fill="none" stroke="#6666ff" d="M968.216,-104.166C954.933,-114.058 936.449,-127.822 920.999,-139.328"/>
<polygon fill="#6666ff" stroke="#6666ff" points="918.71,-136.669 912.78,-145.448 922.891,-142.283 918.71,-136.669"/>
</g>
<!-- List&#45;&gt;Iterable -->
<g id="edge26" class="edge"><title>List&#45;&gt;Iterable</title>
<path fill="none" stroke="#6666ff" d="M989.043,-107.945C990.475,-115.654 992.205,-124.973 993.814,-133.636"/>
<polygon fill="#6666ff" stroke="#6666ff" points="990.421,-134.532 995.688,-143.725 997.303,-133.254 990.421,-134.532"/>
</g>
<!-- Int -->
<g id="node13" class="node"><title>Int</title>
<g id="a_node13"><a xlink:href="/type/Int" xlink:title="Int">
<ellipse fill="none" stroke="#000000" cx="437.896" cy="-90" rx="27" ry="18"/>
<text text-anchor="middle" x="437.896" y="-86.3" font-family="FreeSans" font-size="14.00" fill="#000000">Int</text>
</a>
</g>
</g>
<!-- Int&#45;&gt;Cool -->
<g id="edge7" class="edge"><title>Int&#45;&gt;Cool</title>
<path fill="none" stroke="#000000" d="M459.254,-101.085C467.006,-104.746 473.896,-108 473.896,-108 473.896,-108 653.896,-144 653.896,-144 653.896,-144 659.232,-145.972 666.269,-148.572"/>
<polygon fill="#000000" stroke="#000000" points="665.225,-151.918 675.818,-152.102 667.652,-145.352 665.225,-151.918"/>
</g>
<!-- Int&#45;&gt;Real -->
<g id="edge27" class="edge"><title>Int&#45;&gt;Real</title>
<path fill="none" stroke="#6666ff" d="M417.813,-102.247C397.464,-113.642 365.756,-131.398 342.522,-144.41"/>
<polygon fill="#6666ff" stroke="#6666ff" points="340.778,-141.375 333.763,-149.314 344.199,-147.482 340.778,-141.375"/>
</g>
<!-- Rat -->
<g id="node14" class="node"><title>Rat</title>
<g id="a_node14"><a xlink:href="/type/Rat" xlink:title="Rat">
<ellipse fill="none" stroke="#000000" cx="607.896" cy="-18" rx="27" ry="18"/>
<text text-anchor="middle" x="607.896" y="-14.3" font-family="FreeSans" font-size="14.00" fill="#000000">Rat</text>
</a>
</g>
</g>
<!-- Rat&#45;&gt;Cool -->
<g id="edge8" class="edge"><title>Rat&#45;&gt;Cool</title>
<path fill="none" stroke="#000000" d="M630.827,-27.871C669.827,-42.9588 744.896,-72 744.896,-72 744.896,-72 744.896,-108 744.896,-108 744.896,-108 731.588,-123.674 719.446,-137.975"/>
<polygon fill="#000000" stroke="#000000" points="716.716,-135.782 712.912,-145.67 722.052,-140.313 716.716,-135.782"/>
</g>
<!-- Rat&#45;&gt;Rational -->
<g id="edge28" class="edge"><title>Rat&#45;&gt;Rational</title>
<path fill="none" stroke="#6666ff" d="M581.395,-21.7379C476.347,-32.5908 94.8962,-72 94.8962,-72 94.8962,-72 91.1288,-73.2316 85.6221,-75.0319"/>
<polygon fill="#6666ff" stroke="#6666ff" points="84.2459,-71.7995 75.8286,-78.2336 86.4212,-78.4529 84.2459,-71.7995"/>
</g>
<!-- PositionalBindFailover -->
<g id="node15" class="node"><title>PositionalBindFailover</title>
<g id="a_node15"><a xlink:href="/type/PositionalBindFailover" xlink:title="PositionalBindFailover">
<ellipse fill="none" stroke="#6666ff" cx="1283.9" cy="-162" rx="97.4827" ry="18"/>
<text text-anchor="middle" x="1283.9" y="-158.3" font-family="FreeSans" font-size="14.00" fill="#6666ff">PositionalBindFailover</text>
</a>
</g>
</g>
<!-- Seq -->
<g id="node16" class="node"><title>Seq</title>
<g id="a_node16"><a xlink:href="/type/Seq" xlink:title="Seq">
<ellipse fill="none" stroke="#000000" cx="1133.9" cy="-90" rx="27" ry="18"/>
<text text-anchor="middle" x="1133.9" y="-86.3" font-family="FreeSans" font-size="14.00" fill="#000000">Seq</text>
</a>
</g>
</g>
<!-- Seq&#45;&gt;Cool -->
<g id="edge9" class="edge"><title>Seq&#45;&gt;Cool</title>
<path fill="none" stroke="#000000" d="M1112.54,-101.085C1104.79,-104.746 1097.9,-108 1097.9,-108 1097.9,-108 739.896,-144 739.896,-144 739.896,-144 736.951,-145.252 732.658,-147.076"/>
<polygon fill="#000000" stroke="#000000" points="730.999,-143.978 723.164,-151.111 733.737,-150.421 730.999,-143.978"/>
</g>
<!-- Seq&#45;&gt;Iterable -->
<g id="edge29" class="edge"><title>Seq&#45;&gt;Iterable</title>
<path fill="none" stroke="#6666ff" d="M1113.1,-101.784C1091.76,-112.851 1058.19,-130.253 1032.97,-143.333"/>
<polygon fill="#6666ff" stroke="#6666ff" points="1031.35,-140.227 1024.09,-147.937 1034.58,-146.441 1031.35,-140.227"/>
</g>
<!-- Seq&#45;&gt;PositionalBindFailover -->
<g id="edge30" class="edge"><title>Seq&#45;&gt;PositionalBindFailover</title>
<path fill="none" stroke="#6666ff" d="M1155.39,-101.029C1177.51,-111.354 1212.6,-127.729 1240.53,-140.761"/>
<polygon fill="#6666ff" stroke="#6666ff" points="1239.15,-143.982 1249.69,-145.039 1242.11,-137.639 1239.15,-143.982"/>
</g>
<!-- Stringy -->
<g id="node17" class="node"><title>Stringy</title>
<g id="a_node17"><a xlink:href="/type/Stringy" xlink:title="Stringy">
<ellipse fill="none" stroke="#6666ff" cx="786.896" cy="-162" rx="38.1938" ry="18"/>
<text text-anchor="middle" x="786.896" y="-158.3" font-family="FreeSans" font-size="14.00" fill="#6666ff">Stringy</text>
</a>
</g>
</g>
<!-- Str -->
<g id="node18" class="node"><title>Str</title>
<g id="a_node18"><a xlink:href="/type/Str" xlink:title="Str">
<ellipse fill="none" stroke="#000000" cx="823.896" cy="-90" rx="27" ry="18"/>
<text text-anchor="middle" x="823.896" y="-86.3" font-family="FreeSans" font-size="14.00" fill="#000000">Str</text>
</a>
</g>
</g>
<!-- Str&#45;&gt;Cool -->
<g id="edge10" class="edge"><title>Str&#45;&gt;Cool</title>
<path fill="none" stroke="#000000" d="M803.973,-102.247C783.876,-113.592 752.611,-131.241 729.591,-144.237"/>
<polygon fill="#000000" stroke="#000000" points="727.584,-141.35 720.596,-149.314 731.025,-147.446 727.584,-141.35"/>
</g>
<!-- Str&#45;&gt;Stringy -->
<g id="edge31" class="edge"><title>Str&#45;&gt;Stringy</title>
<path fill="none" stroke="#6666ff" d="M815.315,-107.235C810.896,-115.596 805.405,-125.984 800.431,-135.394"/>
<polygon fill="#6666ff" stroke="#6666ff" points="797.267,-133.89 795.688,-144.367 803.456,-137.161 797.267,-133.89"/>
</g>
<!-- IO -->
<g id="node19" class="node"><title>IO</title>
<g id="a_node19"><a xlink:href="/type/IO" xlink:title="IO">
<ellipse fill="none" stroke="#6666ff" cx="1425.9" cy="-162" rx="27" ry="18"/>
<text text-anchor="middle" x="1425.9" y="-158.3" font-family="FreeSans" font-size="14.00" fill="#6666ff">IO</text>
</a>
</g>
</g>
<!-- IO::Path -->
<g id="node20" class="node"><title>IO::Path</title>
<g id="a_node20"><a xlink:href="/type/IO::Path" xlink:title="IO::Path">
<ellipse fill="none" stroke="#000000" cx="1323.9" cy="-90" rx="43.5923" ry="18"/>
<text text-anchor="middle" x="1323.9" y="-86.3" font-family="FreeSans" font-size="14.00" fill="#000000">IO::Path</text>
</a>
</g>
</g>
<!-- IO::Path&#45;&gt;Cool -->
<g id="edge11" class="edge"><title>IO::Path&#45;&gt;Cool</title>
<path fill="none" stroke="#000000" d="M1282.22,-95.6004C1236.61,-100.635 1169.9,-108 1169.9,-108 1169.9,-108 739.896,-144 739.896,-144 739.896,-144 736.951,-145.252 732.658,-147.076"/>
<polygon fill="#000000" stroke="#000000" points="730.999,-143.978 723.164,-151.111 733.737,-150.421 730.999,-143.978"/>
</g>
<!-- IO::Path&#45;&gt;IO -->
<g id="edge32" class="edge"><title>IO::Path&#45;&gt;IO</title>
<path fill="none" stroke="#6666ff" d="M1345.53,-105.845C1361.26,-116.645 1382.66,-131.328 1399.42,-142.829"/>
<polygon fill="#6666ff" stroke="#6666ff" points="1397.48,-145.743 1407.7,-148.516 1401.44,-139.971 1397.48,-145.743"/>
</g>
<!-- Nil -->
<g id="node21" class="node"><title>Nil</title>
<g id="a_node21"><a xlink:href="/type/Nil" xlink:title="Nil">
<ellipse fill="none" stroke="#000000" cx="675.896" cy="-90" rx="27" ry="18"/>
<text text-anchor="middle" x="675.896" y="-86.3" font-family="FreeSans" font-size="14.00" fill="#000000">Nil</text>
</a>
</g>
</g>
<!-- Nil&#45;&gt;Cool -->
<g id="edge12" class="edge"><title>Nil&#45;&gt;Cool</title>
<path fill="none" stroke="#000000" d="M681.706,-107.945C684.448,-115.941 687.783,-125.669 690.845,-134.6"/>
<polygon fill="#000000" stroke="#000000" points="687.586,-135.887 694.14,-144.211 694.207,-133.616 687.586,-135.887"/>
</g>
<!-- Range -->
<g id="node22" class="node"><title>Range</title>
<g id="a_node22"><a xlink:href="/type/Range" xlink:title="Range">
<ellipse fill="none" stroke="#000000" cx="904.896" cy="-90" rx="36.2938" ry="18"/>
<text text-anchor="middle" x="904.896" y="-86.3" font-family="FreeSans" font-size="14.00" fill="#000000">Range</text>
</a>
</g>
</g>
<!-- Range&#45;&gt;Cool -->
<g id="edge13" class="edge"><title>Range&#45;&gt;Cool</title>
<path fill="none" stroke="#000000" d="M876.909,-101.573C867.758,-105.03 859.896,-108 859.896,-108 859.896,-108 739.896,-144 739.896,-144 739.896,-144 736.951,-145.252 732.658,-147.076"/>
<polygon fill="#000000" stroke="#000000" points="730.999,-143.978 723.164,-151.111 733.737,-150.421 730.999,-143.978"/>
</g>
<!-- Range&#45;&gt;Positional -->
<g id="edge33" class="edge"><title>Range&#45;&gt;Positional</title>
<path fill="none" stroke="#6666ff" d="M901.749,-107.945C900.318,-115.654 898.587,-124.973 896.978,-133.636"/>
<polygon fill="#6666ff" stroke="#6666ff" points="893.489,-133.254 895.104,-143.725 900.372,-134.532 893.489,-133.254"/>
</g>
<!-- Range&#45;&gt;Iterable -->
<g id="edge34" class="edge"><title>Range&#45;&gt;Iterable</title>
<path fill="none" stroke="#6666ff" d="M924.373,-105.504C937.769,-115.48 955.771,-128.885 970.726,-140.022"/>
<polygon fill="#6666ff" stroke="#6666ff" points="969.01,-143.108 979.121,-146.274 973.191,-137.494 969.01,-143.108"/>
</g>
<!-- Num -->
<g id="node23" class="node"><title>Num</title>
<g id="a_node23"><a xlink:href="/type/Num" xlink:title="Num">
<ellipse fill="none" stroke="#000000" cx="512.896" cy="-90" rx="29.795" ry="18"/>
<text text-anchor="middle" x="512.896" y="-86.3" font-family="FreeSans" font-size="14.00" fill="#000000">Num</text>
</a>
</g>
</g>
<!-- Num&#45;&gt;Cool -->
<g id="edge14" class="edge"><title>Num&#45;&gt;Cool</title>
<path fill="none" stroke="#000000" d="M536.482,-101.281C544.696,-104.861 551.896,-108 551.896,-108 551.896,-108 653.896,-144 653.896,-144 653.896,-144 659.232,-145.972 666.269,-148.572"/>
<polygon fill="#000000" stroke="#000000" points="665.225,-151.918 675.818,-152.102 667.652,-145.352 665.225,-151.918"/>
</g>
<!-- Num&#45;&gt;Real -->
<g id="edge35" class="edge"><title>Num&#45;&gt;Real</title>
<path fill="none" stroke="#6666ff" d="M489.31,-101.281C481.097,-104.861 473.896,-108 473.896,-108 473.896,-108 394.551,-134.12 347.263,-149.687"/>
<polygon fill="#6666ff" stroke="#6666ff" points="346.104,-146.383 337.7,-152.835 348.293,-153.032 346.104,-146.383"/>
</g>
<!-- Complex -->
<g id="node24" class="node"><title>Complex</title>
<g id="a_node24"><a xlink:href="/type/Complex" xlink:title="Complex">
<ellipse fill="none" stroke="#000000" cx="148.896" cy="-90" rx="45.4919" ry="18"/>
<text text-anchor="middle" x="148.896" y="-86.3" font-family="FreeSans" font-size="14.00" fill="#000000">Complex</text>
</a>
</g>
</g>
<!-- Complex&#45;&gt;Cool -->
<g id="edge15" class="edge"><title>Complex&#45;&gt;Cool</title>
<path fill="none" stroke="#000000" d="M183.729,-101.766C194.644,-105.14 203.896,-108 203.896,-108 203.896,-108 653.896,-144 653.896,-144 653.896,-144 659.232,-145.972 666.269,-148.572"/>
<polygon fill="#000000" stroke="#000000" points="665.225,-151.918 675.818,-152.102 667.652,-145.352 665.225,-151.918"/>
</g>
<!-- Complex&#45;&gt;Numeric -->
<g id="edge36" class="edge"><title>Complex&#45;&gt;Numeric</title>
<path fill="none" stroke="#6666ff" d="M164.233,-107.013C188.21,-132.048 234.696,-180.585 262.446,-209.559"/>
<polygon fill="#6666ff" stroke="#6666ff" points="259.962,-212.026 269.407,-216.827 265.018,-207.185 259.962,-212.026"/>
</g>
<!-- Capture -->
<g id="node25" class="node"><title>Capture</title>
<g id="a_node25"><a xlink:href="/type/Capture" xlink:title="Capture">
<ellipse fill="none" stroke="#000000" cx="602.896" cy="-162" rx="42.4939" ry="18"/>
<text text-anchor="middle" x="602.896" y="-158.3" font-family="FreeSans" font-size="14.00" fill="#000000">Capture</text>
</a>
</g>
</g>
<!-- Capture&#45;&gt;Any -->
<g id="edge16" class="edge"><title>Capture&#45;&gt;Any</title>
<path fill="none" stroke="#000000" d="M615.219,-179.589C621.816,-188.47 630.056,-199.561 637.314,-209.332"/>
<polygon fill="#000000" stroke="#000000" points="634.601,-211.549 643.374,-217.489 640.22,-207.375 634.601,-211.549"/>
</g>
<!-- Match -->
<g id="node26" class="node"><title>Match</title>
<g id="a_node26"><a xlink:href="/type/Match" xlink:title="Match">
<ellipse fill="none" stroke="#000000" cx="595.896" cy="-90" rx="35.194" ry="18"/>
<text text-anchor="middle" x="595.896" y="-86.3" font-family="FreeSans" font-size="14.00" fill="#000000">Match</text>
</a>
</g>
</g>
<!-- Match&#45;&gt;Cool -->
<g id="edge18" class="edge"><title>Match&#45;&gt;Cool</title>
<path fill="none" stroke="#000000" d="M616.443,-104.83C632.474,-115.619 654.892,-130.709 672.456,-142.531"/>
<polygon fill="#000000" stroke="#000000" points="670.89,-145.695 681.14,-148.375 674.798,-139.888 670.89,-145.695"/>
</g>
<!-- Match&#45;&gt;Capture -->
<g id="edge17" class="edge"><title>Match&#45;&gt;Capture</title>
<path fill="none" stroke="#000000" d="M597.627,-108.303C598.398,-116.017 599.325,-125.288 600.185,-133.888"/>
<polygon fill="#000000" stroke="#000000" points="596.708,-134.294 601.186,-143.896 603.673,-133.597 596.708,-134.294"/>
</g>
<!-- Associative -->
<g id="node27" class="node"><title>Associative</title>
<g id="a_node27"><a xlink:href="/type/Associative" xlink:title="Associative">
<ellipse fill="none" stroke="#6666ff" cx="1112.9" cy="-162" rx="55.4913" ry="18"/>
<text text-anchor="middle" x="1112.9" y="-158.3" font-family="FreeSans" font-size="14.00" fill="#6666ff">Associative</text>
</a>
</g>
</g>
<!-- Map -->
<g id="node28" class="node"><title>Map</title>
<g id="a_node28"><a xlink:href="/type/Map" xlink:title="Map">
<ellipse fill="none" stroke="#000000" cx="1059.9" cy="-90" rx="28.6953" ry="18"/>
<text text-anchor="middle" x="1059.9" y="-86.3" font-family="FreeSans" font-size="14.00" fill="#000000">Map</text>
</a>
</g>
</g>
<!-- Map&#45;&gt;Cool -->
<g id="edge19" class="edge"><title>Map&#45;&gt;Cool</title>
<path fill="none" stroke="#000000" d="M1037.35,-101.085C1029.17,-104.746 1021.9,-108 1021.9,-108 1021.9,-108 739.896,-144 739.896,-144 739.896,-144 736.951,-145.252 732.658,-147.076"/>
<polygon fill="#000000" stroke="#000000" points="730.999,-143.978 723.164,-151.111 733.737,-150.421 730.999,-143.978"/>
</g>
<!-- Map&#45;&gt;Iterable -->
<g id="edge37" class="edge"><title>Map&#45;&gt;Iterable</title>
<path fill="none" stroke="#6666ff" d="M1046.66,-106.189C1038.81,-115.2 1028.68,-126.823 1019.77,-137.045"/>
<polygon fill="#6666ff" stroke="#6666ff" points="1016.89,-135.028 1012.96,-144.866 1022.16,-139.627 1016.89,-135.028"/>
</g>
<!-- Map&#45;&gt;Associative -->
<g id="edge38" class="edge"><title>Map&#45;&gt;Associative</title>
<path fill="none" stroke="#6666ff" d="M1071.66,-106.535C1078.17,-115.133 1086.42,-126.03 1093.83,-135.813"/>
<polygon fill="#6666ff" stroke="#6666ff" points="1091.23,-138.178 1100.05,-144.038 1096.81,-133.953 1091.23,-138.178"/>
</g>
</g>
</svg>
