<?xml version="1.0" encoding="UTF-8" standalone="no"?>
<!DOCTYPE svg PUBLIC "-//W3C//DTD SVG 1.1//EN"
 "http://www.w3.org/Graphics/SVG/1.1/DTD/svg11.dtd">
<!-- Generated by graphviz version 2.38.0 (20140413.2041)
 -->
<!-- Title: perl6&#45;type&#45;graph Pages: 1 -->
<svg width="2494pt" height="1558pt"
 viewBox="0.00 0.00 2494.41 1558.30" xmlns="http://www.w3.org/2000/svg" xmlns:xlink="http://www.w3.org/1999/xlink">
<g id="graph0" class="graph" transform="scale(1 1) rotate(0) translate(1220.71 791.342)">
<title>perl6&#45;type&#45;graph</title>
<polygon fill="white" stroke="none" points="-1220.71,766.962 -1220.71,-791.342 1273.7,-791.342 1273.7,766.962 -1220.71,766.962"/>
<!-- Metamodel::Stashing -->
<g id="node1" class="node"><title>Metamodel::Stashing</title>
<g id="a_node1"><a xlink:href="/type/Metamodel::Stashing" xlink:title="Metamodel::Stashing">
<ellipse fill="none" stroke="#6666ff" cx="-297.415" cy="-363.615" rx="93.6835" ry="18"/>
<text text-anchor="middle" x="-297.415" y="-359.915" font-family="FreeSans" font-size="14.00" fill="#6666ff">Metamodel::Stashing</text>
</a>
</g>
</g>
<!-- Mu -->
<g id="node2" class="node"><title>Mu</title>
<g id="a_node2"><a xlink:href="/type/Mu" xlink:title="Mu">
<ellipse fill="none" stroke="#000000" cx="1109.39" cy="-230.181" rx="27" ry="18"/>
<text text-anchor="middle" x="1109.39" y="-226.481" font-family="FreeSans" font-size="14.00" fill="#000000">Mu</text>
</a>
</g>
</g>
<!-- Any -->
<g id="node3" class="node"><title>Any</title>
<g id="a_node3"><a xlink:href="/type/Any" xlink:title="Any">
<ellipse fill="none" stroke="#000000" cx="4.32628" cy="-409.475" rx="27" ry="18"/>
<text text-anchor="middle" x="4.32628" y="-405.775" font-family="FreeSans" font-size="14.00" fill="#000000">Any</text>
</a>
</g>
</g>
<!-- Any&#45;&gt;Mu -->
<g id="edge1" class="edge"><title>Any&#45;&gt;Mu</title>
<path fill="none" stroke="#000000" d="M31.2637,-406.903C119.807,-398.448 396.234,-372.055 396.234,-372.055 396.234,-372.055 538.735,-330.182 538.735,-330.182 538.735,-330.182 947.473,-258.554 1073.1,-236.54"/>
<polygon fill="#000000" stroke="#000000" points="1073.76,-239.977 1083.01,-234.803 1072.55,-233.082 1073.76,-239.977"/>
</g>
<!-- Metamodel::Naming -->
<g id="node4" class="node"><title>Metamodel::Naming</title>
<g id="a_node4"><a xlink:href="/type/Metamodel::Naming" xlink:title="Metamodel::Naming">
<ellipse fill="none" stroke="#6666ff" cx="-33.3992" cy="-134.896" rx="90.1842" ry="18"/>
<text text-anchor="middle" x="-33.3992" y="-131.196" font-family="FreeSans" font-size="14.00" fill="#6666ff">Metamodel::Naming</text>
</a>
</g>
</g>
<!-- Metamodel::AttributeContainer -->
<g id="node5" class="node"><title>Metamodel::AttributeContainer</title>
<g id="a_node5"><a xlink:href="/type/Metamodel::AttributeContainer" xlink:title="Metamodel::AttributeContainer">
<ellipse fill="none" stroke="#6666ff" cx="653.595" cy="320.999" rx="129.977" ry="18"/>
<text text-anchor="middle" x="653.595" y="324.699" font-family="FreeSans" font-size="14.00" fill="#6666ff">Metamodel::AttributeContainer</text>
</a>
</g>
</g>
<!-- Metamodel::MethodContainer -->
<g id="node6" class="node"><title>Metamodel::MethodContainer</title>
<g id="a_node6"><a xlink:href="/type/Metamodel::MethodContainer" xlink:title="Metamodel::MethodContainer">
<ellipse fill="none" stroke="#6666ff" cx="601.058" cy="-8.53478" rx="127.277" ry="18"/>
<text text-anchor="middle" x="601.058" y="-4.83478" font-family="FreeSans" font-size="14.00" fill="#6666ff">Metamodel::MethodContainer</text>
</a>
</g>
</g>
<!-- Metamodel::MultiMethodContainer -->
<g id="node7" class="node"><title>Metamodel::MultiMethodContainer</title>
<g id="a_node7"><a xlink:href="/type/Metamodel::MultiMethodContainer" xlink:title="Metamodel::MultiMethodContainer">
<ellipse fill="none" stroke="#6666ff" cx="-361.667" cy="-37.8038" rx="146.474" ry="18"/>
<text text-anchor="middle" x="-361.667" y="-34.1038" font-family="FreeSans" font-size="14.00" fill="#6666ff">Metamodel::MultiMethodContainer</text>
</a>
</g>
</g>
<!-- Metamodel::RoleContainer -->
<g id="node8" class="node"><title>Metamodel::RoleContainer</title>
<g id="a_node8"><a xlink:href="/type/Metamodel::RoleContainer" xlink:title="Metamodel::RoleContainer">
<ellipse fill="none" stroke="#6666ff" cx="314.474" cy="321.573" rx="115.88" ry="18"/>
<text text-anchor="middle" x="314.474" y="325.273" font-family="FreeSans" font-size="14.00" fill="#6666ff">Metamodel::RoleContainer</text>
</a>
</g>
</g>
<!-- Metamodel::BaseType -->
<g id="node9" class="node"><title>Metamodel::BaseType</title>
<g id="a_node9"><a xlink:href="/type/Metamodel::BaseType" xlink:title="Metamodel::BaseType">
<ellipse fill="none" stroke="#6666ff" cx="1084.82" cy="686.666" rx="99.3824" ry="18"/>
<text text-anchor="middle" x="1084.82" y="690.366" font-family="FreeSans" font-size="14.00" fill="#6666ff">Metamodel::BaseType</text>
</a>
</g>
</g>
<!-- Metamodel::MROBasedMethodDispatch -->
<g id="node10" class="node"><title>Metamodel::MROBasedMethodDispatch</title>
<g id="a_node10"><a xlink:href="/type/Metamodel::MROBasedMethodDispatch" xlink:title="Metamodel::MROBasedMethodDispatch">
<ellipse fill="none" stroke="#6666ff" cx="-12.4567" cy="393.776" rx="169.77" ry="18"/>
<text text-anchor="middle" x="-12.4567" y="397.476" font-family="FreeSans" font-size="14.00" fill="#6666ff">Metamodel::MROBasedMethodDispatch</text>
</a>
</g>
</g>
<!-- Metamodel::MROBasedTypeChecking -->
<g id="node11" class="node"><title>Metamodel::MROBasedTypeChecking</title>
<g id="a_node11"><a xlink:href="/type/Metamodel::MROBasedTypeChecking" xlink:title="Metamodel::MROBasedTypeChecking">
<ellipse fill="none" stroke="#6666ff" cx="-337.77" cy="338.797" rx="163.271" ry="18"/>
<text text-anchor="middle" x="-337.77" y="342.497" font-family="FreeSans" font-size="14.00" fill="#6666ff">Metamodel::MROBasedTypeChecking</text>
</a>
</g>
</g>
<!-- Metamodel::BUILDPLAN -->
<g id="node12" class="node"><title>Metamodel::BUILDPLAN</title>
<g id="a_node12"><a xlink:href="/type/Metamodel::BUILDPLAN" xlink:title="Metamodel::BUILDPLAN">
<ellipse fill="none" stroke="#6666ff" cx="549.757" cy="729.948" rx="109.681" ry="18"/>
<text text-anchor="middle" x="549.757" y="733.648" font-family="FreeSans" font-size="14.00" fill="#6666ff">Metamodel::BUILDPLAN</text>
</a>
</g>
</g>
<!-- Metamodel::BoolificationProtocol -->
<g id="node13" class="node"><title>Metamodel::BoolificationProtocol</title>
<g id="a_node13"><a xlink:href="/type/Metamodel::BoolificationProtocol" xlink:title="Metamodel::BoolificationProtocol">
<ellipse fill="none" stroke="#6666ff" cx="638.022" cy="-344.068" rx="139.175" ry="18"/>
<text text-anchor="middle" x="638.022" y="-340.368" font-family="FreeSans" font-size="14.00" fill="#6666ff">Metamodel::BoolificationProtocol</text>
</a>
</g>
</g>
<!-- Metamodel::EnumHOW -->
<g id="node14" class="node"><title>Metamodel::EnumHOW</title>
<g id="a_node14"><a xlink:href="/type/Metamodel::EnumHOW" xlink:title="Metamodel::EnumHOW">
<ellipse fill="none" stroke="#000000" cx="279.374" cy="-55.3082" rx="104.782" ry="18"/>
<text text-anchor="middle" x="279.374" y="-51.6082" font-family="FreeSans" font-size="14.00" fill="#000000">Metamodel::EnumHOW</text>
</a>
</g>
</g>
<!-- Metamodel::EnumHOW&#45;&gt;Metamodel::Stashing -->
<g id="edge10" class="edge"><title>Metamodel::EnumHOW&#45;&gt;Metamodel::Stashing</title>
<path fill="none" stroke="#6666ff" d="M247.127,-72.5448C148.809,-125.098 -147.108,-283.273 -256.331,-341.655"/>
<polygon fill="#6666ff" stroke="#6666ff" points="-258.226,-338.699 -265.395,-346.5 -254.926,-344.873 -258.226,-338.699"/>
</g>
<!-- Metamodel::EnumHOW&#45;&gt;Any -->
<g id="edge2" class="edge"><title>Metamodel::EnumHOW&#45;&gt;Any</title>
<path fill="none" stroke="#000000" d="M265.356,-73.3583C219.689,-132.161 75.1562,-318.27 23.1773,-385.201"/>
<polygon fill="#000000" stroke="#000000" points="20.4002,-383.071 17.0308,-393.116 25.9288,-387.364 20.4002,-383.071"/>
</g>
<!-- Metamodel::EnumHOW&#45;&gt;Metamodel::Naming -->
<g id="edge9" class="edge"><title>Metamodel::EnumHOW&#45;&gt;Metamodel::Naming</title>
<path fill="none" stroke="#6666ff" d="M220.543,-70.278C166.957,-83.9135 87.9272,-104.023 32.2951,-118.179"/>
<polygon fill="#6666ff" stroke="#6666ff" points="31.3661,-114.804 22.538,-120.662 33.0923,-121.588 31.3661,-114.804"/>
</g>
<!-- Metamodel::EnumHOW&#45;&gt;Metamodel::AttributeContainer -->
<g id="edge11" class="edge"><title>Metamodel::EnumHOW&#45;&gt;Metamodel::AttributeContainer</title>
<path fill="none" stroke="#6666ff" d="M297.423,-37.1581C358.56,24.3191 557.933,224.804 628.535,295.799"/>
<polygon fill="#6666ff" stroke="#6666ff" points="631.157,293.472 635.726,303.031 626.193,298.408 631.157,293.472"/>
</g>
<!-- Metamodel::EnumHOW&#45;&gt;Metamodel::MethodContainer -->
<g id="edge12" class="edge"><title>Metamodel::EnumHOW&#45;&gt;Metamodel::MethodContainer</title>
<path fill="none" stroke="#6666ff" d="M359.304,-43.6861C402.557,-37.3972 456.364,-29.5735 502.228,-22.9048"/>
<polygon fill="#6666ff" stroke="#6666ff" points="502.796,-26.3591 512.189,-21.4565 501.789,-19.4319 502.796,-26.3591"/>
</g>
<!-- Metamodel::EnumHOW&#45;&gt;Metamodel::MultiMethodContainer -->
<g id="edge13" class="edge"><title>Metamodel::EnumHOW&#45;&gt;Metamodel::MultiMethodContainer</title>
<path fill="none" stroke="#6666ff" d="M176.023,-52.4861C72.0169,-49.6461 -89.5881,-45.2333 -208.491,-41.9865"/>
<polygon fill="#6666ff" stroke="#6666ff" points="-208.685,-38.48 -218.777,-41.7056 -208.876,-45.4774 -208.685,-38.48"/>
</g>
<!-- Metamodel::EnumHOW&#45;&gt;Metamodel::RoleContainer -->
<g id="edge14" class="edge"><title>Metamodel::EnumHOW&#45;&gt;Metamodel::RoleContainer</title>
<path fill="none" stroke="#6666ff" d="M281.067,-37.1304C286.718,23.5526 304.964,219.469 311.829,293.178"/>
<polygon fill="#6666ff" stroke="#6666ff" points="315.314,292.855 312.757,303.136 308.344,293.504 315.314,292.855"/>
</g>
<!-- Metamodel::EnumHOW&#45;&gt;Metamodel::BaseType -->
<g id="edge15" class="edge"><title>Metamodel::EnumHOW&#45;&gt;Metamodel::BaseType</title>
<path fill="none" stroke="#6666ff" d="M303.091,-37.6698C403.091,36.698 785.179,320.85 785.179,320.85 785.179,320.85 995.323,577.405 1063.64,660.811"/>
<polygon fill="#6666ff" stroke="#6666ff" points="1066.53,658.82 1070.16,668.774 1061.12,663.256 1066.53,658.82"/>
</g>
<!-- Metamodel::EnumHOW&#45;&gt;Metamodel::MROBasedMethodDispatch -->
<g id="edge16" class="edge"><title>Metamodel::EnumHOW&#45;&gt;Metamodel::MROBasedMethodDispatch</title>
<path fill="none" stroke="#6666ff" d="M275.577,-37.3159C265.929,8.40409 241.229,125.447 241.229,125.447 241.229,125.447 75.2318,301.026 11.7923,368.127"/>
<polygon fill="#6666ff" stroke="#6666ff" points="13.9956,370.891 4.58228,375.753 8.90903,366.082 13.9956,370.891"/>
</g>
<!-- Metamodel::EnumHOW&#45;&gt;Metamodel::MROBasedTypeChecking -->
<g id="edge17" class="edge"><title>Metamodel::EnumHOW&#45;&gt;Metamodel::MROBasedTypeChecking</title>
<path fill="none" stroke="#6666ff" d="M249.734,-37.9666C172.364,7.30128 -29.7461,125.552 -29.7461,125.552 -29.7461,125.552 -223.621,259.772 -303.747,315.243"/>
<polygon fill="#6666ff" stroke="#6666ff" points="-301.823,318.168 -312.038,320.983 -305.808,312.413 -301.823,318.168"/>
</g>
<!-- Metamodel::EnumHOW&#45;&gt;Metamodel::BUILDPLAN -->
<g id="edge18" class="edge"><title>Metamodel::EnumHOW&#45;&gt;Metamodel::BUILDPLAN</title>
<path fill="none" stroke="#6666ff" d="M286.724,-37.134C317.164,38.1347 431.763,321.499 431.763,321.499 431.763,321.499 515.148,610.146 541.723,702.139"/>
<polygon fill="#6666ff" stroke="#6666ff" points="545.122,701.292 544.535,711.871 538.397,703.235 545.122,701.292"/>
</g>
<!-- Metamodel::EnumHOW&#45;&gt;Metamodel::BoolificationProtocol -->
<g id="edge19" class="edge"><title>Metamodel::EnumHOW&#45;&gt;Metamodel::BoolificationProtocol</title>
<path fill="none" stroke="#6666ff" d="M301.269,-72.9367C362.65,-122.357 536.509,-262.337 607.38,-319.397"/>
<polygon fill="#6666ff" stroke="#6666ff" points="605.513,-322.388 615.497,-325.933 609.903,-316.936 605.513,-322.388"/>
</g>
<!-- Metamodel::Documenting -->
<g id="node15" class="node"><title>Metamodel::Documenting</title>
<g id="a_node15"><a xlink:href="/type/Metamodel::Documenting" xlink:title="Metamodel::Documenting">
<ellipse fill="none" stroke="#6666ff" cx="-638.84" cy="-263.758" rx="111.28" ry="18"/>
<text text-anchor="middle" x="-638.84" y="-260.058" font-family="FreeSans" font-size="14.00" fill="#6666ff">Metamodel::Documenting</text>
</a>
</g>
</g>
<!-- Metamodel::Versioning -->
<g id="node16" class="node"><title>Metamodel::Versioning</title>
<g id="a_node16"><a xlink:href="/type/Metamodel::Versioning" xlink:title="Metamodel::Versioning">
<ellipse fill="none" stroke="#6666ff" cx="-1105.5" cy="-221.9" rx="100.983" ry="18"/>
<text text-anchor="middle" x="-1105.5" y="-218.2" font-family="FreeSans" font-size="14.00" fill="#6666ff">Metamodel::Versioning</text>
</a>
</g>
</g>
<!-- Metamodel::MultipleInheritance -->
<g id="node17" class="node"><title>Metamodel::MultipleInheritance</title>
<g id="a_node17"><a xlink:href="/type/Metamodel::MultipleInheritance" xlink:title="Metamodel::MultipleInheritance">
<ellipse fill="none" stroke="#6666ff" cx="105.742" cy="125.5" rx="133.776" ry="18"/>
<text text-anchor="middle" x="105.742" y="129.2" font-family="FreeSans" font-size="14.00" fill="#6666ff">Metamodel::MultipleInheritance</text>
</a>
</g>
</g>
<!-- Metamodel::C3MRO -->
<g id="node18" class="node"><title>Metamodel::C3MRO</title>
<g id="a_node18"><a xlink:href="/type/Metamodel::C3MRO" xlink:title="Metamodel::C3MRO">
<ellipse fill="none" stroke="#6666ff" cx="-1078.94" cy="687.825" rx="92.0841" ry="18"/>
<text text-anchor="middle" x="-1078.94" y="691.525" font-family="FreeSans" font-size="14.00" fill="#6666ff">Metamodel::C3MRO</text>
</a>
</g>
</g>
<!-- Metamodel::NativeHOW -->
<g id="node19" class="node"><title>Metamodel::NativeHOW</title>
<g id="a_node19"><a xlink:href="/type/Metamodel::NativeHOW" xlink:title="Metamodel::NativeHOW">
<ellipse fill="none" stroke="#000000" cx="-651.262" cy="183.32" rx="107.482" ry="18"/>
<text text-anchor="middle" x="-651.262" y="187.02" font-family="FreeSans" font-size="14.00" fill="#000000">Metamodel::NativeHOW</text>
</a>
</g>
</g>
<!-- Metamodel::NativeHOW&#45;&gt;Metamodel::Stashing -->
<g id="edge23" class="edge"><title>Metamodel::NativeHOW&#45;&gt;Metamodel::Stashing</title>
<path fill="none" stroke="#6666ff" d="M-639.661,165.235C-605.805,112.452 -509.501,-37.6849 -509.501,-37.6849 -509.501,-37.6849 -365.524,-258.946 -314.824,-336.861"/>
<polygon fill="#6666ff" stroke="#6666ff" points="-317.507,-339.155 -309.119,-345.628 -311.64,-335.337 -317.507,-339.155"/>
</g>
<!-- Metamodel::NativeHOW&#45;&gt;Any -->
<g id="edge3" class="edge"><title>Metamodel::NativeHOW&#45;&gt;Any</title>
<path fill="none" stroke="#000000" d="M-639.661,165.235C-605.805,112.452 -509.501,-37.6849 -509.501,-37.6849 -509.501,-37.6849 -128.127,-313.635 -22.5043,-390.061"/>
<polygon fill="#000000" stroke="#000000" points="-24.418,-392.996 -14.2647,-396.023 -20.3145,-387.325 -24.418,-392.996"/>
</g>
<!-- Metamodel::NativeHOW&#45;&gt;Metamodel::Naming -->
<g id="edge20" class="edge"><title>Metamodel::NativeHOW&#45;&gt;Metamodel::Naming</title>
<path fill="none" stroke="#6666ff" d="M-617.302,166.144C-514.526,114.162 -213.832,-37.9228 -213.832,-37.9228 -213.832,-37.9228 -126.876,-84.6573 -73.6954,-113.239"/>
<polygon fill="#6666ff" stroke="#6666ff" points="-75.2937,-116.353 -64.8283,-118.004 -71.9798,-110.187 -75.2937,-116.353"/>
</g>
<!-- Metamodel::NativeHOW&#45;&gt;Metamodel::MROBasedMethodDispatch -->
<g id="edge26" class="edge"><title>Metamodel::NativeHOW&#45;&gt;Metamodel::MROBasedMethodDispatch</title>
<path fill="none" stroke="#6666ff" d="M-601.885,199.36C-479.699,239.051 -173.038,338.668 -173.038,338.668 -173.038,338.668 -118.023,357.548 -72.3956,373.206"/>
<polygon fill="#6666ff" stroke="#6666ff" points="-71.1473,369.934 -62.8249,376.49 -73.4196,376.555 -71.1473,369.934"/>
</g>
<!-- Metamodel::NativeHOW&#45;&gt;Metamodel::MROBasedTypeChecking -->
<g id="edge27" class="edge"><title>Metamodel::NativeHOW&#45;&gt;Metamodel::MROBasedTypeChecking</title>
<path fill="none" stroke="#6666ff" d="M-616.816,200.404C-559.78,228.691 -445.758,285.24 -382.551,316.588"/>
<polygon fill="#6666ff" stroke="#6666ff" points="-380.636,313.63 -373.233,321.209 -383.747,319.901 -380.636,313.63"/>
</g>
<!-- Metamodel::NativeHOW&#45;&gt;Metamodel::Documenting -->
<g id="edge21" class="edge"><title>Metamodel::NativeHOW&#45;&gt;Metamodel::Documenting</title>
<path fill="none" stroke="#6666ff" d="M-650.76,165.241C-648.842,96.2234 -641.973,-150.993 -639.63,-235.331"/>
<polygon fill="#6666ff" stroke="#6666ff" points="-643.125,-235.554 -639.349,-245.453 -636.128,-235.36 -643.125,-235.554"/>
</g>
<!-- Metamodel::NativeHOW&#45;&gt;Metamodel::Versioning -->
<g id="edge22" class="edge"><title>Metamodel::NativeHOW&#45;&gt;Metamodel::Versioning</title>
<path fill="none" stroke="#6666ff" d="M-671.366,165.386C-744.219,100.394 -994.483,-122.864 -1078.07,-197.43"/>
<polygon fill="#6666ff" stroke="#6666ff" points="-1080.49,-194.903 -1085.63,-204.172 -1075.83,-200.127 -1080.49,-194.903"/>
</g>
<!-- Metamodel::NativeHOW&#45;&gt;Metamodel::MultipleInheritance -->
<g id="edge24" class="edge"><title>Metamodel::NativeHOW&#45;&gt;Metamodel::MultipleInheritance</title>
<path fill="none" stroke="#6666ff" d="M-553.46,175.85C-417.395,165.457 -170.842,146.625 -20.8813,135.171"/>
<polygon fill="#6666ff" stroke="#6666ff" points="-20.9373,131.665 -10.6998,134.393 -20.4042,138.645 -20.9373,131.665"/>
</g>
<!-- Metamodel::NativeHOW&#45;&gt;Metamodel::C3MRO -->
<g id="edge25" class="edge"><title>Metamodel::NativeHOW&#45;&gt;Metamodel::C3MRO</title>
<path fill="none" stroke="#6666ff" d="M-666.483,201.276C-730.911,277.278 -981.339,572.694 -1057.1,662.067"/>
<polygon fill="#6666ff" stroke="#6666ff" points="-1054.54,664.457 -1063.68,669.822 -1059.88,659.931 -1054.54,664.457"/>
</g>
<!-- Metamodel::TypePretense -->
<g id="node20" class="node"><title>Metamodel::TypePretense</title>
<g id="a_node20"><a xlink:href="/type/Metamodel::TypePretense" xlink:title="Metamodel::TypePretense">
<ellipse fill="none" stroke="#6666ff" cx="170.216" cy="-764.968" rx="114.28" ry="18"/>
<text text-anchor="middle" x="170.216" y="-761.268" font-family="FreeSans" font-size="14.00" fill="#6666ff">Metamodel::TypePretense</text>
</a>
</g>
</g>
<!-- Metamodel::MethodDelegation -->
<g id="node21" class="node"><title>Metamodel::MethodDelegation</title>
<g id="a_node21"><a xlink:href="/type/Metamodel::MethodDelegation" xlink:title="Metamodel::MethodDelegation">
<ellipse fill="none" stroke="#6666ff" cx="-1078.07" cy="-713.709" rx="131.077" ry="18"/>
<text text-anchor="middle" x="-1078.07" y="-710.009" font-family="FreeSans" font-size="14.00" fill="#6666ff">Metamodel::MethodDelegation</text>
</a>
</g>
</g>
<!-- Metamodel::PackageHOW -->
<g id="node22" class="node"><title>Metamodel::PackageHOW</title>
<g id="a_node22"><a xlink:href="/type/Metamodel::PackageHOW" xlink:title="Metamodel::PackageHOW">
<ellipse fill="none" stroke="#000000" cx="-562.355" cy="-734.394" rx="116.18" ry="18"/>
<text text-anchor="middle" x="-562.355" y="-730.694" font-family="FreeSans" font-size="14.00" fill="#000000">Metamodel::PackageHOW</text>
</a>
</g>
</g>
<!-- Metamodel::PackageHOW&#45;&gt;Metamodel::Stashing -->
<g id="edge30" class="edge"><title>Metamodel::PackageHOW&#45;&gt;Metamodel::Stashing</title>
<path fill="none" stroke="#6666ff" d="M-549.397,-716.259C-506.257,-655.886 -367.351,-461.49 -316.389,-390.17"/>
<polygon fill="#6666ff" stroke="#6666ff" points="-313.314,-391.886 -310.348,-381.715 -319.009,-387.816 -313.314,-391.886"/>
</g>
<!-- Metamodel::PackageHOW&#45;&gt;Any -->
<g id="edge4" class="edge"><title>Metamodel::PackageHOW&#45;&gt;Any</title>
<path fill="none" stroke="#000000" d="M-531.887,-716.925C-433.116,-660.292 -122.531,-482.211 -25.1669,-426.385"/>
<polygon fill="#000000" stroke="#000000" points="-23.3586,-429.383 -16.4244,-421.373 -26.8405,-423.31 -23.3586,-429.383"/>
</g>
<!-- Metamodel::PackageHOW&#45;&gt;Metamodel::Naming -->
<g id="edge28" class="edge"><title>Metamodel::PackageHOW&#45;&gt;Metamodel::Naming</title>
<path fill="none" stroke="#6666ff" d="M-544.985,-716.512C-473.047,-642.456 -202.223,-363.655 -202.223,-363.655 -202.223,-363.655 -97.045,-221.137 -52.7243,-161.082"/>
<polygon fill="#6666ff" stroke="#6666ff" points="-49.7685,-162.971 -46.6466,-152.846 -55.4008,-158.814 -49.7685,-162.971"/>
</g>
<!-- Metamodel::PackageHOW&#45;&gt;Metamodel::Documenting -->
<g id="edge29" class="edge"><title>Metamodel::PackageHOW&#45;&gt;Metamodel::Documenting</title>
<path fill="none" stroke="#6666ff" d="M-565.306,-716.232C-576.994,-644.312 -620.089,-379.14 -634.277,-291.834"/>
<polygon fill="#6666ff" stroke="#6666ff" points="-630.838,-291.174 -635.897,-281.865 -637.748,-292.297 -630.838,-291.174"/>
</g>
<!-- Metamodel::PackageHOW&#45;&gt;Metamodel::TypePretense -->
<g id="edge31" class="edge"><title>Metamodel::PackageHOW&#45;&gt;Metamodel::TypePretense</title>
<path fill="none" stroke="#6666ff" d="M-449.783,-738.947C-337.904,-743.472 -182.878,-749.742 -182.878,-749.742 -182.878,-749.742 -52.8887,-755.347 49.3484,-759.756"/>
<polygon fill="#6666ff" stroke="#6666ff" points="49.3221,-763.258 59.4636,-760.192 49.6238,-756.265 49.3221,-763.258"/>
</g>
<!-- Metamodel::PackageHOW&#45;&gt;Metamodel::MethodDelegation -->
<g id="edge32" class="edge"><title>Metamodel::PackageHOW&#45;&gt;Metamodel::MethodDelegation</title>
<path fill="none" stroke="#6666ff" d="M-675.213,-729.867C-753.692,-726.719 -858.722,-722.507 -941.863,-719.172"/>
<polygon fill="#6666ff" stroke="#6666ff" points="-941.758,-715.674 -951.89,-718.77 -942.038,-722.668 -941.758,-715.674"/>
</g>
<!-- Metamodel::RolePunning -->
<g id="node23" class="node"><title>Metamodel::RolePunning</title>
<g id="a_node23"><a xlink:href="/type/Metamodel::RolePunning" xlink:title="Metamodel::RolePunning">
<ellipse fill="none" stroke="#6666ff" cx="1082.55" cy="-718.658" rx="109.681" ry="18"/>
<text text-anchor="middle" x="1082.55" y="-714.958" font-family="FreeSans" font-size="14.00" fill="#6666ff">Metamodel::RolePunning</text>
</a>
</g>
</g>
<!-- Metamodel::ParametricRoleGroupHOW -->
<g id="node24" class="node"><title>Metamodel::ParametricRoleGroupHOW</title>
<g id="a_node24"><a xlink:href="/type/Metamodel::ParametricRoleGroupHOW" xlink:title="Metamodel::ParametricRoleGroupHOW">
<ellipse fill="none" stroke="#000000" cx="550.028" cy="-757.495" rx="167.07" ry="18"/>
<text text-anchor="middle" x="550.028" y="-753.795" font-family="FreeSans" font-size="14.00" fill="#000000">Metamodel::ParametricRoleGroupHOW</text>
</a>
</g>
</g>
<!-- Metamodel::ParametricRoleGroupHOW&#45;&gt;Metamodel::Stashing -->
<g id="edge34" class="edge"><title>Metamodel::ParametricRoleGroupHOW&#45;&gt;Metamodel::Stashing</title>
<path fill="none" stroke="#6666ff" d="M512.245,-739.934C374.27,-675.805 -102.12,-454.385 -251.941,-384.751"/>
<polygon fill="#6666ff" stroke="#6666ff" points="-250.786,-381.428 -261.33,-380.387 -253.737,-387.776 -250.786,-381.428"/>
</g>
<!-- Metamodel::ParametricRoleGroupHOW&#45;&gt;Any -->
<g id="edge5" class="edge"><title>Metamodel::ParametricRoleGroupHOW&#45;&gt;Any</title>
<path fill="none" stroke="#000000" d="M521.838,-739.516C427.952,-679.641 126.511,-487.398 32.5604,-427.481"/>
<polygon fill="#000000" stroke="#000000" points="34.1937,-424.371 23.8804,-421.945 30.4297,-430.273 34.1937,-424.371"/>
</g>
<!-- Metamodel::ParametricRoleGroupHOW&#45;&gt;Metamodel::Naming -->
<g id="edge33" class="edge"><title>Metamodel::ParametricRoleGroupHOW&#45;&gt;Metamodel::Naming</title>
<path fill="none" stroke="#6666ff" d="M532.103,-739.556C454.438,-661.836 150.894,-358.072 150.894,-358.072 150.894,-358.072 36.1507,-219.12 -12.2577,-160.498"/>
<polygon fill="#6666ff" stroke="#6666ff" points="-9.56302,-158.264 -18.6292,-152.782 -14.9606,-162.721 -9.56302,-158.264"/>
</g>
<!-- Metamodel::ParametricRoleGroupHOW&#45;&gt;Metamodel::BoolificationProtocol -->
<g id="edge37" class="edge"><title>Metamodel::ParametricRoleGroupHOW&#45;&gt;Metamodel::BoolificationProtocol</title>
<path fill="none" stroke="#6666ff" d="M553.866,-739.464C567.703,-674.45 615.108,-451.726 631.991,-372.403"/>
<polygon fill="#6666ff" stroke="#6666ff" points="635.505,-372.703 634.164,-362.193 628.659,-371.246 635.505,-372.703"/>
</g>
<!-- Metamodel::ParametricRoleGroupHOW&#45;&gt;Metamodel::TypePretense -->
<g id="edge35" class="edge"><title>Metamodel::ParametricRoleGroupHOW&#45;&gt;Metamodel::TypePretense</title>
<path fill="none" stroke="#6666ff" d="M385.646,-760.729C354.979,-761.333 323.407,-761.954 294.209,-762.529"/>
<polygon fill="#6666ff" stroke="#6666ff" points="293.914,-759.034 283.985,-762.73 294.052,-766.032 293.914,-759.034"/>
</g>
<!-- Metamodel::ParametricRoleGroupHOW&#45;&gt;Metamodel::RolePunning -->
<g id="edge36" class="edge"><title>Metamodel::ParametricRoleGroupHOW&#45;&gt;Metamodel::RolePunning</title>
<path fill="none" stroke="#6666ff" d="M688.553,-747.392C776.86,-740.952 889.733,-732.72 972.015,-726.719"/>
<polygon fill="#6666ff" stroke="#6666ff" points="972.428,-730.199 982.147,-725.98 971.919,-723.217 972.428,-730.199"/>
</g>
<!-- Metamodel::PrivateMethodContainer -->
<g id="node25" class="node"><title>Metamodel::PrivateMethodContainer</title>
<g id="a_node25"><a xlink:href="/type/Metamodel::PrivateMethodContainer" xlink:title="Metamodel::PrivateMethodContainer">
<ellipse fill="none" stroke="#6666ff" cx="1115.02" cy="190.497" rx="154.873" ry="18"/>
<text text-anchor="middle" x="1115.02" y="194.197" font-family="FreeSans" font-size="14.00" fill="#6666ff">Metamodel::PrivateMethodContainer</text>
</a>
</g>
</g>
<!-- Metamodel::ParametricRoleHOW -->
<g id="node26" class="node"><title>Metamodel::ParametricRoleHOW</title>
<g id="a_node26"><a xlink:href="/type/Metamodel::ParametricRoleHOW" xlink:title="Metamodel::ParametricRoleHOW">
<ellipse fill="none" stroke="#000000" cx="294.831" cy="-358.144" rx="142.175" ry="18"/>
<text text-anchor="middle" x="294.831" y="-354.444" font-family="FreeSans" font-size="14.00" fill="#000000">Metamodel::ParametricRoleHOW</text>
</a>
</g>
</g>
<!-- Metamodel::ParametricRoleHOW&#45;&gt;Metamodel::Stashing -->
<g id="edge47" class="edge"><title>Metamodel::ParametricRoleHOW&#45;&gt;Metamodel::Stashing</title>
<path fill="none" stroke="#6666ff" d="M152.597,-359.458C45.8308,-360.445 -97.8942,-361.772 -193.904,-362.659"/>
<polygon fill="#6666ff" stroke="#6666ff" points="-193.947,-359.159 -203.914,-362.752 -193.882,-366.159 -193.947,-359.159"/>
</g>
<!-- Metamodel::ParametricRoleHOW&#45;&gt;Any -->
<g id="edge6" class="edge"><title>Metamodel::ParametricRoleHOW&#45;&gt;Any</title>
<path fill="none" stroke="#000000" d="M211.973,-372.785C155.423,-382.777 83.2948,-395.522 40.6358,-403.059"/>
<polygon fill="#000000" stroke="#000000" points="39.9484,-399.626 30.71,-404.813 41.1665,-406.519 39.9484,-399.626"/>
</g>
<!-- Metamodel::ParametricRoleHOW&#45;&gt;Metamodel::Naming -->
<g id="edge38" class="edge"><title>Metamodel::ParametricRoleHOW&#45;&gt;Metamodel::Naming</title>
<path fill="none" stroke="#6666ff" d="M268.801,-340.44C209.885,-300.368 66.3473,-202.739 0.556938,-157.991"/>
<polygon fill="#6666ff" stroke="#6666ff" points="2.41734,-155.024 -7.81974,-152.294 -1.51949,-160.812 2.41734,-155.024"/>
</g>
<!-- Metamodel::ParametricRoleHOW&#45;&gt;Metamodel::AttributeContainer -->
<g id="edge44" class="edge"><title>Metamodel::ParametricRoleHOW&#45;&gt;Metamodel::AttributeContainer</title>
<path fill="none" stroke="#6666ff" d="M304.111,-339.833C340.579,-267.871 472.072,-8.40334 472.072,-8.40334 472.072,-8.40334 595.3,215.214 638.694,293.959"/>
<polygon fill="#6666ff" stroke="#6666ff" points="641.816,292.372 643.577,302.82 635.685,295.751 641.816,292.372"/>
</g>
<!-- Metamodel::ParametricRoleHOW&#45;&gt;Metamodel::MethodContainer -->
<g id="edge41" class="edge"><title>Metamodel::ParametricRoleHOW&#45;&gt;Metamodel::MethodContainer</title>
<path fill="none" stroke="#6666ff" d="M310.864,-339.84C361.714,-281.786 519.494,-101.653 578.493,-34.2972"/>
<polygon fill="#6666ff" stroke="#6666ff" points="581.228,-36.4864 585.184,-26.6579 575.962,-31.8741 581.228,-36.4864"/>
</g>
<!-- Metamodel::ParametricRoleHOW&#45;&gt;Metamodel::MultiMethodContainer -->
<g id="edge43" class="edge"><title>Metamodel::ParametricRoleHOW&#45;&gt;Metamodel::MultiMethodContainer</title>
<path fill="none" stroke="#6666ff" d="M259.068,-340.694C147.586,-286.296 -193.511,-119.856 -316.696,-59.7476"/>
<polygon fill="#6666ff" stroke="#6666ff" points="-315.35,-56.5099 -325.872,-55.2701 -318.42,-62.8009 -315.35,-56.5099"/>
</g>
<!-- Metamodel::ParametricRoleHOW&#45;&gt;Metamodel::RoleContainer -->
<g id="edge45" class="edge"><title>Metamodel::ParametricRoleHOW&#45;&gt;Metamodel::RoleContainer</title>
<path fill="none" stroke="#6666ff" d="M300.238,-340.114C319.781,-274.944 385.612,-55.4245 385.612,-55.4245 385.612,-55.4245 336.313,205.835 319.795,293.374"/>
<polygon fill="#6666ff" stroke="#6666ff" points="323.198,294.212 317.905,303.39 316.32,292.914 323.198,294.212"/>
</g>
<!-- Metamodel::ParametricRoleHOW&#45;&gt;Metamodel::Documenting -->
<g id="edge39" class="edge"><title>Metamodel::ParametricRoleHOW&#45;&gt;Metamodel::Documenting</title>
<path fill="none" stroke="#6666ff" d="M183.598,-346.9C1.69115,-328.51 -356.911,-292.259 -534.345,-274.321"/>
<polygon fill="#6666ff" stroke="#6666ff" points="-534.17,-270.821 -544.471,-273.298 -534.874,-277.786 -534.17,-270.821"/>
</g>
<!-- Metamodel::ParametricRoleHOW&#45;&gt;Metamodel::Versioning -->
<g id="edge40" class="edge"><title>Metamodel::ParametricRoleHOW&#45;&gt;Metamodel::Versioning</title>
<path fill="none" stroke="#6666ff" d="M174.093,-348.549C-94.6362,-327.194 -718.625,-277.606 -718.625,-277.606 -718.625,-277.606 -902.367,-251.149 -1016.6,-234.701"/>
<polygon fill="#6666ff" stroke="#6666ff" points="-1016.35,-231.201 -1026.74,-233.24 -1017.34,-238.129 -1016.35,-231.201"/>
</g>
<!-- Metamodel::ParametricRoleHOW&#45;&gt;Metamodel::MultipleInheritance -->
<g id="edge46" class="edge"><title>Metamodel::ParametricRoleHOW&#45;&gt;Metamodel::MultipleInheritance</title>
<path fill="none" stroke="#6666ff" d="M287.583,-340.101C261.384,-274.881 173.135,-55.1919 173.135,-55.1919 173.135,-55.1919 134.94,47.2136 116.058,97.8382"/>
<polygon fill="#6666ff" stroke="#6666ff" points="119.224,99.3672 112.45,107.514 112.665,96.9209 119.224,99.3672"/>
</g>
<!-- Metamodel::ParametricRoleHOW&#45;&gt;Metamodel::TypePretense -->
<g id="edge48" class="edge"><title>Metamodel::ParametricRoleHOW&#45;&gt;Metamodel::TypePretense</title>
<path fill="none" stroke="#6666ff" d="M289.315,-376.15C269.616,-440.462 202.633,-659.14 178.756,-737.088"/>
<polygon fill="#6666ff" stroke="#6666ff" points="175.391,-736.123 175.809,-746.709 182.084,-738.173 175.391,-736.123"/>
</g>
<!-- Metamodel::ParametricRoleHOW&#45;&gt;Metamodel::RolePunning -->
<g id="edge49" class="edge"><title>Metamodel::ParametricRoleHOW&#45;&gt;Metamodel::RolePunning</title>
<path fill="none" stroke="#6666ff" d="M332.824,-375.533C463.358,-435.273 893.274,-632.031 1036.02,-697.361"/>
<polygon fill="#6666ff" stroke="#6666ff" points="1034.85,-700.674 1045.4,-701.653 1037.76,-694.309 1034.85,-700.674"/>
</g>
<!-- Metamodel::ParametricRoleHOW&#45;&gt;Metamodel::PrivateMethodContainer -->
<g id="edge42" class="edge"><title>Metamodel::ParametricRoleHOW&#45;&gt;Metamodel::PrivateMethodContainer</title>
<path fill="none" stroke="#6666ff" d="M321.654,-340.202C443.221,-258.883 942.491,75.0898 1079.88,166.993"/>
<polygon fill="#6666ff" stroke="#6666ff" points="1082.03,164.222 1088.4,172.691 1078.14,170.04 1082.03,164.222"/>
</g>
<!-- Metamodel::ModuleHOW -->
<g id="node27" class="node"><title>Metamodel::ModuleHOW</title>
<g id="a_node27"><a xlink:href="/type/Metamodel::ModuleHOW" xlink:title="Metamodel::ModuleHOW">
<ellipse fill="none" stroke="#000000" cx="-183.151" cy="-769.342" rx="111.28" ry="18"/>
<text text-anchor="middle" x="-183.151" y="-765.642" font-family="FreeSans" font-size="14.00" fill="#000000">Metamodel::ModuleHOW</text>
</a>
</g>
</g>
<!-- Metamodel::ModuleHOW&#45;&gt;Metamodel::Stashing -->
<g id="edge53" class="edge"><title>Metamodel::ModuleHOW&#45;&gt;Metamodel::Stashing</title>
<path fill="none" stroke="#6666ff" d="M-188.283,-751.12C-206.407,-686.764 -267.501,-469.831 -289.466,-391.839"/>
<polygon fill="#6666ff" stroke="#6666ff" points="-286.217,-390.463 -292.297,-381.787 -292.955,-392.361 -286.217,-390.463"/>
</g>
<!-- Metamodel::ModuleHOW&#45;&gt;Any -->
<g id="edge7" class="edge"><title>Metamodel::ModuleHOW&#45;&gt;Any</title>
<path fill="none" stroke="#000000" d="M-173.596,-751.001C-142.667,-691.631 -45.2036,-504.549 -9.20684,-435.452"/>
<polygon fill="#000000" stroke="#000000" points="-6.06506,-436.996 -4.5488,-426.511 -12.2731,-433.762 -6.06506,-436.996"/>
</g>
<!-- Metamodel::ModuleHOW&#45;&gt;Metamodel::Naming -->
<g id="edge50" class="edge"><title>Metamodel::ModuleHOW&#45;&gt;Metamodel::Naming</title>
<path fill="none" stroke="#6666ff" d="M-178.831,-751.038C-157.737,-661.672 -65.5529,-271.12 -39.992,-162.827"/>
<polygon fill="#6666ff" stroke="#6666ff" points="-36.5561,-163.506 -37.6652,-152.969 -43.3689,-161.898 -36.5561,-163.506"/>
</g>
<!-- Metamodel::ModuleHOW&#45;&gt;Metamodel::Documenting -->
<g id="edge51" class="edge"><title>Metamodel::ModuleHOW&#45;&gt;Metamodel::Documenting</title>
<path fill="none" stroke="#6666ff" d="M-199.369,-751.348C-268.086,-675.106 -535.387,-378.539 -615.818,-289.301"/>
<polygon fill="#6666ff" stroke="#6666ff" points="-613.284,-286.884 -622.579,-281.8 -618.484,-291.571 -613.284,-286.884"/>
</g>
<!-- Metamodel::ModuleHOW&#45;&gt;Metamodel::Versioning -->
<g id="edge52" class="edge"><title>Metamodel::ModuleHOW&#45;&gt;Metamodel::Versioning</title>
<path fill="none" stroke="#6666ff" d="M-212.536,-751.901C-348.278,-671.334 -914.519,-335.252 -1067.35,-244.544"/>
<polygon fill="#6666ff" stroke="#6666ff" points="-1066.01,-241.268 -1076.39,-239.174 -1069.58,-247.287 -1066.01,-241.268"/>
</g>
<!-- Metamodel::ModuleHOW&#45;&gt;Metamodel::TypePretense -->
<g id="edge54" class="edge"><title>Metamodel::ModuleHOW&#45;&gt;Metamodel::TypePretense</title>
<path fill="none" stroke="#6666ff" d="M-72.3129,-767.97C-34.7812,-767.505 7.37638,-766.984 45.8863,-766.507"/>
<polygon fill="#6666ff" stroke="#6666ff" points="46.161,-770.004 56.1169,-766.38 46.0743,-763.005 46.161,-770.004"/>
</g>
<!-- Metamodel::ModuleHOW&#45;&gt;Metamodel::MethodDelegation -->
<g id="edge55" class="edge"><title>Metamodel::ModuleHOW&#45;&gt;Metamodel::MethodDelegation</title>
<path fill="none" stroke="#6666ff" d="M-290.997,-764.984C-403.31,-760.447 -563.044,-753.993 -563.044,-753.993 -563.044,-753.993 -646.237,-748.172 -646.237,-748.172 -646.237,-748.172 -826.493,-733.786 -954.086,-723.604"/>
<polygon fill="#6666ff" stroke="#6666ff" points="-954.085,-720.093 -964.332,-722.786 -954.642,-727.071 -954.085,-720.093"/>
</g>
<!-- Metamodel::Finalization -->
<g id="node28" class="node"><title>Metamodel::Finalization</title>
<g id="a_node28"><a xlink:href="/type/Metamodel::Finalization" xlink:title="Metamodel::Finalization">
<ellipse fill="none" stroke="#6666ff" cx="-1112.71" cy="204.39" rx="103.982" ry="18"/>
<text text-anchor="middle" x="-1112.71" y="208.09" font-family="FreeSans" font-size="14.00" fill="#6666ff">Metamodel::Finalization</text>
</a>
</g>
</g>
<!-- Metamodel::DefaultParent -->
<g id="node29" class="node"><title>Metamodel::DefaultParent</title>
<g id="a_node29"><a xlink:href="/type/Metamodel::DefaultParent" xlink:title="Metamodel::DefaultParent">
<ellipse fill="none" stroke="#6666ff" cx="-577.574" cy="691.937" rx="113.18" ry="18"/>
<text text-anchor="middle" x="-577.574" y="695.637" font-family="FreeSans" font-size="14.00" fill="#6666ff">Metamodel::DefaultParent</text>
</a>
</g>
</g>
<!-- Metamodel::Trusting -->
<g id="node30" class="node"><title>Metamodel::Trusting</title>
<g id="a_node30"><a xlink:href="/type/Metamodel::Trusting" xlink:title="Metamodel::Trusting">
<ellipse fill="none" stroke="#6666ff" cx="-197.502" cy="744.962" rx="91.784" ry="18"/>
<text text-anchor="middle" x="-197.502" y="748.662" font-family="FreeSans" font-size="14.00" fill="#6666ff">Metamodel::Trusting</text>
</a>
</g>
</g>
<!-- Metamodel::Mixins -->
<g id="node31" class="node"><title>Metamodel::Mixins</title>
<g id="a_node31"><a xlink:href="/type/Metamodel::Mixins" xlink:title="Metamodel::Mixins">
<ellipse fill="none" stroke="#6666ff" cx="166.569" cy="733.892" rx="85.2851" ry="18"/>
<text text-anchor="middle" x="166.569" y="737.592" font-family="FreeSans" font-size="14.00" fill="#6666ff">Metamodel::Mixins</text>
</a>
</g>
</g>
<!-- Metamodel::ClassHOW -->
<g id="node32" class="node"><title>Metamodel::ClassHOW</title>
<g id="a_node32"><a xlink:href="/type/Metamodel::ClassHOW" xlink:title="Metamodel::ClassHOW">
<ellipse fill="none" stroke="#000000" cx="-142.978" cy="117.02" rx="103.982" ry="18"/>
<text text-anchor="middle" x="-142.978" y="120.72" font-family="FreeSans" font-size="14.00" fill="#000000">Metamodel::ClassHOW</text>
</a>
</g>
</g>
<!-- Metamodel::ClassHOW&#45;&gt;Metamodel::Stashing -->
<g id="edge59" class="edge"><title>Metamodel::ClassHOW&#45;&gt;Metamodel::Stashing</title>
<path fill="none" stroke="#6666ff" d="M-148.843,98.7658C-172.401,25.4492 -260.225,-247.874 -288.549,-336.023"/>
<polygon fill="#6666ff" stroke="#6666ff" points="-291.899,-335.008 -291.626,-345.599 -285.234,-337.149 -291.899,-335.008"/>
</g>
<!-- Metamodel::ClassHOW&#45;&gt;Any -->
<g id="edge8" class="edge"><title>Metamodel::ClassHOW&#45;&gt;Any</title>
<path fill="none" stroke="#000000" d="M-141.709,98.9131C-137.665,41.1827 -125.339,-134.758 -125.339,-134.758 -125.339,-134.758 -40.7014,-314.076 -8.18751,-382.962"/>
<polygon fill="#000000" stroke="#000000" points="-11.2185,-384.741 -3.78486,-392.29 -4.88815,-381.753 -11.2185,-384.741"/>
</g>
<!-- Metamodel::ClassHOW&#45;&gt;Metamodel::Naming -->
<g id="edge56" class="edge"><title>Metamodel::ClassHOW&#45;&gt;Metamodel::Naming</title>
<path fill="none" stroke="#6666ff" d="M-135.097,98.9032C-116.103,55.237 -67.708,-56.0215 -45.219,-107.723"/>
<polygon fill="#6666ff" stroke="#6666ff" points="-48.4068,-109.169 -41.2084,-116.943 -41.9878,-106.377 -48.4068,-109.169"/>
</g>
<!-- Metamodel::ClassHOW&#45;&gt;Metamodel::AttributeContainer -->
<g id="edge60" class="edge"><title>Metamodel::ClassHOW&#45;&gt;Metamodel::AttributeContainer</title>
<path fill="none" stroke="#6666ff" d="M-84.7267,131.937C58.1105,168.513 425.452,262.578 581.617,302.568"/>
<polygon fill="#6666ff" stroke="#6666ff" points="582.774,299.251 591.593,305.122 581.038,306.032 582.774,299.251"/>
</g>
<!-- Metamodel::ClassHOW&#45;&gt;Metamodel::MethodContainer -->
<g id="edge62" class="edge"><title>Metamodel::ClassHOW&#45;&gt;Metamodel::MethodContainer</title>
<path fill="none" stroke="#6666ff" d="M-68.2302,104.407C68.8386,81.2766 359.979,32.1471 508.994,7.00101"/>
<polygon fill="#6666ff" stroke="#6666ff" points="508.594,3.5191 519.037,5.30626 509.758,10.4215 508.594,3.5191"/>
</g>
<!-- Metamodel::ClassHOW&#45;&gt;Metamodel::MultiMethodContainer -->
<g id="edge64" class="edge"><title>Metamodel::ClassHOW&#45;&gt;Metamodel::MultiMethodContainer</title>
<path fill="none" stroke="#6666ff" d="M-168.064,99.2601C-207.507,71.3361 -284.063,17.1367 -328.169,-14.0887"/>
<polygon fill="#6666ff" stroke="#6666ff" points="-330.398,-11.3781 -336.537,-20.0129 -326.353,-17.0912 -330.398,-11.3781"/>
</g>
<!-- Metamodel::ClassHOW&#45;&gt;Metamodel::RoleContainer -->
<g id="edge65" class="edge"><title>Metamodel::ClassHOW&#45;&gt;Metamodel::RoleContainer</title>
<path fill="none" stroke="#6666ff" d="M-105.154,133.934C-22.1453,171.051 175.832,259.578 267.014,300.351"/>
<polygon fill="#6666ff" stroke="#6666ff" points="268.583,297.219 276.283,304.496 265.726,303.609 268.583,297.219"/>
</g>
<!-- Metamodel::ClassHOW&#45;&gt;Metamodel::MROBasedMethodDispatch -->
<g id="edge69" class="edge"><title>Metamodel::ClassHOW&#45;&gt;Metamodel::MROBasedMethodDispatch</title>
<path fill="none" stroke="#6666ff" d="M-134.414,135.179C-112.104,182.485 -52.0828,309.753 -25.4691,366.184"/>
<polygon fill="#6666ff" stroke="#6666ff" points="-22.1521,365.012 -21.0521,375.55 -28.4833,367.998 -22.1521,365.012"/>
</g>
<!-- Metamodel::ClassHOW&#45;&gt;Metamodel::MROBasedTypeChecking -->
<g id="edge70" class="edge"><title>Metamodel::ClassHOW&#45;&gt;Metamodel::MROBasedTypeChecking</title>
<path fill="none" stroke="#6666ff" d="M-158.918,135.169C-193.462,174.499 -275.316,267.691 -315.176,313.073"/>
<polygon fill="#6666ff" stroke="#6666ff" points="-312.653,315.505 -321.882,320.708 -317.912,310.885 -312.653,315.505"/>
</g>
<!-- Metamodel::ClassHOW&#45;&gt;Metamodel::BUILDPLAN -->
<g id="edge72" class="edge"><title>Metamodel::ClassHOW&#45;&gt;Metamodel::BUILDPLAN</title>
<path fill="none" stroke="#6666ff" d="M-122.993,134.703C-24.6387,221.726 407.837,604.378 522.028,705.414"/>
<polygon fill="#6666ff" stroke="#6666ff" points="524.521,702.946 529.691,712.194 519.882,708.189 524.521,702.946"/>
</g>
<!-- Metamodel::ClassHOW&#45;&gt;Metamodel::BoolificationProtocol -->
<g id="edge74" class="edge"><title>Metamodel::ClassHOW&#45;&gt;Metamodel::BoolificationProtocol</title>
<path fill="none" stroke="#6666ff" d="M-113.315,99.5082C7.48173,28.1917 462.412,-240.391 599.007,-321.034"/>
<polygon fill="#6666ff" stroke="#6666ff" points="597.519,-324.221 607.91,-326.291 601.078,-318.193 597.519,-324.221"/>
</g>
<!-- Metamodel::ClassHOW&#45;&gt;Metamodel::Documenting -->
<g id="edge57" class="edge"><title>Metamodel::ClassHOW&#45;&gt;Metamodel::Documenting</title>
<path fill="none" stroke="#6666ff" d="M-151.244,98.9432C-169.935,58.0709 -213.832,-37.9228 -213.832,-37.9228 -213.832,-37.9228 -490.323,-184.841 -597.287,-241.678"/>
<polygon fill="#6666ff" stroke="#6666ff" points="-599.008,-238.629 -606.196,-246.412 -595.723,-244.81 -599.008,-238.629"/>
</g>
<!-- Metamodel::ClassHOW&#45;&gt;Metamodel::Versioning -->
<g id="edge58" class="edge"><title>Metamodel::ClassHOW&#45;&gt;Metamodel::Versioning</title>
<path fill="none" stroke="#6666ff" d="M-189.078,100.788C-348.634,44.6052 -877.049,-141.459 -1050.1,-202.393"/>
<polygon fill="#6666ff" stroke="#6666ff" points="-1051.5,-199.175 -1059.77,-205.798 -1049.18,-205.778 -1051.5,-199.175"/>
</g>
<!-- Metamodel::ClassHOW&#45;&gt;Metamodel::MultipleInheritance -->
<g id="edge66" class="edge"><title>Metamodel::ClassHOW&#45;&gt;Metamodel::MultipleInheritance</title>
<path fill="none" stroke="#6666ff" d="M-40.7375,120.506C-38.5916,120.579 -36.4367,120.653 -34.2753,120.726"/>
<polygon fill="#6666ff" stroke="#6666ff" points="-33.9985,117.234 -24.1236,121.072 -34.2371,124.229 -33.9985,117.234"/>
</g>
<!-- Metamodel::ClassHOW&#45;&gt;Metamodel::C3MRO -->
<g id="edge68" class="edge"><title>Metamodel::ClassHOW&#45;&gt;Metamodel::C3MRO</title>
<path fill="none" stroke="#6666ff" d="M-171.5,134.415C-307.423,217.309 -889.151,572.082 -1042.02,665.31"/>
<polygon fill="#6666ff" stroke="#6666ff" points="-1040.28,668.347 -1050.64,670.566 -1043.92,662.371 -1040.28,668.347"/>
</g>
<!-- Metamodel::ClassHOW&#45;&gt;Metamodel::PrivateMethodContainer -->
<g id="edge63" class="edge"><title>Metamodel::ClassHOW&#45;&gt;Metamodel::PrivateMethodContainer</title>
<path fill="none" stroke="#6666ff" d="M-63.2518,128.667C-26.0339,134.104 10.1935,139.396 10.1935,139.396 10.1935,139.396 106.104,145.099 106.104,145.099 106.104,145.099 677.653,170.817 960.385,183.539"/>
<polygon fill="#6666ff" stroke="#6666ff" points="960.9,180.058 970.733,184.004 960.586,187.051 960.9,180.058"/>
</g>
<!-- Metamodel::ClassHOW&#45;&gt;Metamodel::Finalization -->
<g id="edge61" class="edge"><title>Metamodel::ClassHOW&#45;&gt;Metamodel::Finalization</title>
<path fill="none" stroke="#6666ff" d="M-235.417,125.306C-400.385,140.092 -728.4,169.493 -728.4,169.493 -728.4,169.493 -896.174,184.728 -1010.02,195.065"/>
<polygon fill="#6666ff" stroke="#6666ff" points="-1009.9,198.568 -1020.17,195.987 -1010.53,191.597 -1009.9,198.568"/>
</g>
<!-- Metamodel::ClassHOW&#45;&gt;Metamodel::DefaultParent -->
<g id="edge67" class="edge"><title>Metamodel::ClassHOW&#45;&gt;Metamodel::DefaultParent</title>
<path fill="none" stroke="#6666ff" d="M-145.438,135.159C-152.617,188.095 -173.038,338.668 -173.038,338.668 -173.038,338.668 -457.757,587.304 -549.472,667.396"/>
<polygon fill="#6666ff" stroke="#6666ff" points="-547.402,670.235 -557.236,674.176 -552.006,664.962 -547.402,670.235"/>
</g>
<!-- Metamodel::ClassHOW&#45;&gt;Metamodel::Trusting -->
<g id="edge71" class="edge"><title>Metamodel::ClassHOW&#45;&gt;Metamodel::Trusting</title>
<path fill="none" stroke="#6666ff" d="M-145.438,135.159C-152.617,188.095 -173.038,338.668 -173.038,338.668 -173.038,338.668 -183.689,393.884 -183.689,393.884 -183.689,393.884 -193.094,632.928 -196.382,716.518"/>
<polygon fill="#6666ff" stroke="#6666ff" points="-192.888,716.726 -196.778,726.58 -199.882,716.451 -192.888,716.726"/>
</g>
<!-- Metamodel::ClassHOW&#45;&gt;Metamodel::Mixins -->
<g id="edge73" class="edge"><title>Metamodel::ClassHOW&#45;&gt;Metamodel::Mixins</title>
<path fill="none" stroke="#6666ff" d="M-123.643,134.747C-57.0426,195.806 158.776,393.667 158.776,393.667 158.776,393.667 164.048,623.803 165.92,705.525"/>
<polygon fill="#6666ff" stroke="#6666ff" points="169.42,705.523 166.15,715.6 162.422,705.683 169.42,705.523"/>
</g>
</g>
</svg>
