<?xml version="1.0" encoding="UTF-8" standalone="no"?>
<!DOCTYPE svg PUBLIC "-//W3C//DTD SVG 1.1//EN"
 "http://www.w3.org/Graphics/SVG/1.1/DTD/svg11.dtd">
<!-- Generated by graphviz version 2.38.0 (20140413.2041)
 -->
<!-- Title: perl6&#45;type&#45;graph Pages: 1 -->
<svg width="620pt" height="332pt"
 viewBox="0.00 0.00 619.85 332.00" xmlns="http://www.w3.org/2000/svg" xmlns:xlink="http://www.w3.org/1999/xlink">
<g id="graph0" class="graph" transform="scale(1 1) rotate(0) translate(4 328)">
<title>perl6&#45;type&#45;graph</title>
<polygon fill="white" stroke="none" points="-4,4 -4,-328 615.847,-328 615.847,4 -4,4"/>
<!-- Positional -->
<g id="node1" class="node"><title>Positional</title>
<g id="a_node1"><a xlink:href="/type/Positional" xlink:title="Positional">
<ellipse fill="none" stroke="#6666ff" cx="294" cy="-162" rx="48.9926" ry="18"/>
<text text-anchor="middle" x="294" y="-158.3" font-family="FreeSans" font-size="14.00" fill="#6666ff">Positional</text>
</a>
</g>
</g>
<!-- Mu -->
<g id="node2" class="node"><title>Mu</title>
<g id="a_node2"><a xlink:href="/type/Mu" xlink:title="Mu">
<ellipse fill="none" stroke="#000000" cx="217" cy="-306" rx="27" ry="18"/>
<text text-anchor="middle" x="217" y="-302.3" font-family="FreeSans" font-size="14.00" fill="#000000">Mu</text>
</a>
</g>
</g>
<!-- Any -->
<g id="node3" class="node"><title>Any</title>
<g id="a_node3"><a xlink:href="/type/Any" xlink:title="Any">
<ellipse fill="none" stroke="#000000" cx="217" cy="-234" rx="27" ry="18"/>
<text text-anchor="middle" x="217" y="-230.3" font-family="FreeSans" font-size="14.00" fill="#000000">Any</text>
</a>
</g>
</g>
<!-- Any&#45;&gt;Mu -->
<g id="edge1" class="edge"><title>Any&#45;&gt;Mu</title>
<path fill="none" stroke="#000000" d="M217,-252.303C217,-260.017 217,-269.288 217,-277.888"/>
<polygon fill="#000000" stroke="#000000" points="213.5,-277.896 217,-287.896 220.5,-277.896 213.5,-277.896"/>
</g>
<!-- Cool -->
<g id="node4" class="node"><title>Cool</title>
<g id="a_node4"><a xlink:href="/type/Cool" xlink:title="Cool">
<ellipse fill="none" stroke="#000000" cx="389" cy="-162" rx="28.6953" ry="18"/>
<text text-anchor="middle" x="389" y="-158.3" font-family="FreeSans" font-size="14.00" fill="#000000">Cool</text>
</a>
</g>
</g>
<!-- Cool&#45;&gt;Any -->
<g id="edge2" class="edge"><title>Cool&#45;&gt;Any</title>
<path fill="none" stroke="#000000" d="M366.623,-173.281C358.831,-176.861 352,-180 352,-180 352,-180 288.867,-204.785 248.948,-220.457"/>
<polygon fill="#000000" stroke="#000000" points="247.625,-217.217 239.596,-224.129 250.183,-223.732 247.625,-217.217"/>
</g>
<!-- Iterable -->
<g id="node5" class="node"><title>Iterable</title>
<g id="a_node5"><a xlink:href="/type/Iterable" xlink:title="Iterable">
<ellipse fill="none" stroke="#6666ff" cx="476" cy="-162" rx="40.0939" ry="18"/>
<text text-anchor="middle" x="476" y="-158.3" font-family="FreeSans" font-size="14.00" fill="#6666ff">Iterable</text>
</a>
</g>
</g>
<!-- List -->
<g id="node6" class="node"><title>List</title>
<g id="a_node6"><a xlink:href="/type/List" xlink:title="List">
<ellipse fill="none" stroke="#000000" cx="392" cy="-90" rx="27" ry="18"/>
<text text-anchor="middle" x="392" y="-86.3" font-family="FreeSans" font-size="14.00" fill="#000000">List</text>
</a>
</g>
</g>
<!-- List&#45;&gt;Positional -->
<g id="edge13" class="edge"><title>List&#45;&gt;Positional</title>
<path fill="none" stroke="#6666ff" d="M374.025,-103.839C360.003,-113.855 340.222,-127.984 323.835,-139.689"/>
<polygon fill="#6666ff" stroke="#6666ff" points="321.727,-136.894 315.624,-145.554 325.796,-142.59 321.727,-136.894"/>
</g>
<!-- List&#45;&gt;Cool -->
<g id="edge3" class="edge"><title>List&#45;&gt;Cool</title>
<path fill="none" stroke="#000000" d="M391.258,-108.303C390.928,-116.017 390.531,-125.288 390.162,-133.888"/>
<polygon fill="#000000" stroke="#000000" points="386.665,-133.755 389.733,-143.896 393.658,-134.055 386.665,-133.755"/>
</g>
<!-- List&#45;&gt;Iterable -->
<g id="edge14" class="edge"><title>List&#45;&gt;Iterable</title>
<path fill="none" stroke="#6666ff" d="M408.196,-104.497C420.072,-114.394 436.443,-128.036 450.123,-139.436"/>
<polygon fill="#6666ff" stroke="#6666ff" points="447.889,-142.13 457.812,-145.843 452.37,-136.753 447.889,-142.13"/>
</g>
<!-- Stringy -->
<g id="node7" class="node"><title>Stringy</title>
<g id="a_node7"><a xlink:href="/type/Stringy" xlink:title="Stringy">
<ellipse fill="none" stroke="#6666ff" cx="131" cy="-162" rx="38.1938" ry="18"/>
<text text-anchor="middle" x="131" y="-158.3" font-family="FreeSans" font-size="14.00" fill="#6666ff">Stringy</text>
</a>
</g>
</g>
<!-- Blob -->
<g id="node8" class="node"><title>Blob</title>
<g id="a_node8"><a xlink:href="/type/Blob" xlink:title="Blob">
<ellipse fill="none" stroke="#6666ff" cx="125" cy="-90" rx="28.6953" ry="18"/>
<text text-anchor="middle" x="125" y="-86.3" font-family="FreeSans" font-size="14.00" fill="#6666ff">Blob</text>
</a>
</g>
</g>
<!-- Blob&#45;&gt;Positional -->
<g id="edge15" class="edge"><title>Blob&#45;&gt;Positional</title>
<path fill="none" stroke="#6666ff" d="M148.144,-100.586C175.214,-111.799 220.51,-130.56 253.454,-144.206"/>
<polygon fill="#6666ff" stroke="#6666ff" points="252.241,-147.492 262.819,-148.085 254.919,-141.024 252.241,-147.492"/>
</g>
<!-- Blob&#45;&gt;Stringy -->
<g id="edge16" class="edge"><title>Blob&#45;&gt;Stringy</title>
<path fill="none" stroke="#6666ff" d="M126.483,-108.303C127.144,-116.017 127.939,-125.288 128.676,-133.888"/>
<polygon fill="#6666ff" stroke="#6666ff" points="125.193,-134.231 129.534,-143.896 132.167,-133.633 125.193,-134.231"/>
</g>
<!-- Range -->
<g id="node9" class="node"><title>Range</title>
<g id="a_node9"><a xlink:href="/type/Range" xlink:title="Range">
<ellipse fill="none" stroke="#000000" cx="473" cy="-90" rx="36.2938" ry="18"/>
<text text-anchor="middle" x="473" y="-86.3" font-family="FreeSans" font-size="14.00" fill="#000000">Range</text>
</a>
</g>
</g>
<!-- Range&#45;&gt;Positional -->
<g id="edge17" class="edge"><title>Range&#45;&gt;Positional</title>
<path fill="none" stroke="#6666ff" d="M445.424,-101.784C416.147,-113.233 369.532,-131.462 335.75,-144.673"/>
<polygon fill="#6666ff" stroke="#6666ff" points="334.189,-141.526 326.15,-148.427 336.738,-148.045 334.189,-141.526"/>
</g>
<!-- Range&#45;&gt;Cool -->
<g id="edge4" class="edge"><title>Range&#45;&gt;Cool</title>
<path fill="none" stroke="#000000" d="M455.186,-105.845C443.062,-115.949 426.859,-129.451 413.519,-140.567"/>
<polygon fill="#000000" stroke="#000000" points="411.087,-138.038 405.646,-147.128 415.569,-143.415 411.087,-138.038"/>
</g>
<!-- Range&#45;&gt;Iterable -->
<g id="edge18" class="edge"><title>Range&#45;&gt;Iterable</title>
<path fill="none" stroke="#6666ff" d="M473.742,-108.303C474.072,-116.017 474.469,-125.288 474.838,-133.888"/>
<polygon fill="#6666ff" stroke="#6666ff" points="471.342,-134.055 475.267,-143.896 478.335,-133.755 471.342,-134.055"/>
</g>
<!-- Uni -->
<g id="node10" class="node"><title>Uni</title>
<g id="a_node10"><a xlink:href="/type/Uni" xlink:title="Uni">
<ellipse fill="none" stroke="#000000" cx="256" cy="-90" rx="27" ry="18"/>
<text text-anchor="middle" x="256" y="-86.3" font-family="FreeSans" font-size="14.00" fill="#000000">Uni</text>
</a>
</g>
</g>
<!-- Uni&#45;&gt;Positional -->
<g id="edge19" class="edge"><title>Uni&#45;&gt;Positional</title>
<path fill="none" stroke="#6666ff" d="M264.813,-107.235C269.286,-115.475 274.828,-125.683 279.877,-134.984"/>
<polygon fill="#6666ff" stroke="#6666ff" points="276.857,-136.757 284.704,-143.876 283.009,-133.418 276.857,-136.757"/>
</g>
<!-- Uni&#45;&gt;Any -->
<g id="edge5" class="edge"><title>Uni&#45;&gt;Any</title>
<path fill="none" stroke="#000000" d="M249.672,-107.77C243.812,-123.297 236,-144 236,-144 236,-144 228.35,-179.833 222.759,-206.025"/>
<polygon fill="#000000" stroke="#000000" points="219.328,-205.33 220.663,-215.84 226.174,-206.791 219.328,-205.33"/>
</g>
<!-- Uni&#45;&gt;Stringy -->
<g id="edge20" class="edge"><title>Uni&#45;&gt;Stringy</title>
<path fill="none" stroke="#6666ff" d="M235.917,-102.247C216.507,-113.116 186.763,-129.773 163.895,-142.579"/>
<polygon fill="#6666ff" stroke="#6666ff" points="161.894,-139.688 154.88,-147.627 165.315,-145.795 161.894,-139.688"/>
</g>
<!-- Slip -->
<g id="node11" class="node"><title>Slip</title>
<g id="a_node11"><a xlink:href="/type/Slip" xlink:title="Slip">
<ellipse fill="none" stroke="#000000" cx="503" cy="-18" rx="27" ry="18"/>
<text text-anchor="middle" x="503" y="-14.3" font-family="FreeSans" font-size="14.00" fill="#000000">Slip</text>
</a>
</g>
</g>
<!-- Slip&#45;&gt;List -->
<g id="edge6" class="edge"><title>Slip&#45;&gt;List</title>
<path fill="none" stroke="#000000" d="M483.918,-31.0334C466.287,-42.1521 439.877,-58.807 419.884,-71.4154"/>
<polygon fill="#000000" stroke="#000000" points="417.796,-68.5946 411.204,-76.8893 421.53,-74.5156 417.796,-68.5946"/>
</g>
<!-- Array -->
<g id="node12" class="node"><title>Array</title>
<g id="a_node12"><a xlink:href="/type/Array" xlink:title="Array">
<ellipse fill="none" stroke="#000000" cx="580" cy="-18" rx="31.6951" ry="18"/>
<text text-anchor="middle" x="580" y="-14.3" font-family="FreeSans" font-size="14.00" fill="#000000">Array</text>
</a>
</g>
</g>
<!-- Array&#45;&gt;List -->
<g id="edge7" class="edge"><title>Array&#45;&gt;List</title>
<path fill="none" stroke="#000000" d="M554.734,-29.476C546.297,-32.9744 539,-36 539,-36 539,-36 428,-72 428,-72 428,-72 425.82,-73.0296 422.532,-74.5819"/>
<polygon fill="#000000" stroke="#000000" points="420.905,-71.4796 413.357,-78.9146 423.894,-77.8093 420.905,-71.4796"/>
</g>
<!-- NFD -->
<g id="node13" class="node"><title>NFD</title>
<g id="a_node13"><a xlink:href="/type/NFD" xlink:title="NFD">
<ellipse fill="none" stroke="#000000" cx="173" cy="-18" rx="29.4969" ry="18"/>
<text text-anchor="middle" x="173" y="-14.3" font-family="FreeSans" font-size="14.00" fill="#000000">NFD</text>
</a>
</g>
</g>
<!-- NFD&#45;&gt;Uni -->
<g id="edge8" class="edge"><title>NFD&#45;&gt;Uni</title>
<path fill="none" stroke="#000000" d="M189.796,-33.1655C201.878,-43.3552 218.352,-57.2491 231.844,-68.6277"/>
<polygon fill="#000000" stroke="#000000" points="229.893,-71.5604 239.794,-75.3319 234.406,-66.2093 229.893,-71.5604"/>
</g>
<!-- NFKD -->
<g id="node14" class="node"><title>NFKD</title>
<g id="a_node14"><a xlink:href="/type/NFKD" xlink:title="NFKD">
<ellipse fill="none" stroke="#000000" cx="256" cy="-18" rx="35.9954" ry="18"/>
<text text-anchor="middle" x="256" y="-14.3" font-family="FreeSans" font-size="14.00" fill="#000000">NFKD</text>
</a>
</g>
</g>
<!-- NFKD&#45;&gt;Uni -->
<g id="edge9" class="edge"><title>NFKD&#45;&gt;Uni</title>
<path fill="none" stroke="#000000" d="M256,-36.3034C256,-44.0173 256,-53.2875 256,-61.8876"/>
<polygon fill="#000000" stroke="#000000" points="252.5,-61.8956 256,-71.8957 259.5,-61.8957 252.5,-61.8956"/>
</g>
<!-- NFC -->
<g id="node15" class="node"><title>NFC</title>
<g id="a_node15"><a xlink:href="/type/NFC" xlink:title="NFC">
<ellipse fill="none" stroke="#000000" cx="339" cy="-18" rx="29.4969" ry="18"/>
<text text-anchor="middle" x="339" y="-14.3" font-family="FreeSans" font-size="14.00" fill="#000000">NFC</text>
</a>
</g>
</g>
<!-- NFC&#45;&gt;Uni -->
<g id="edge10" class="edge"><title>NFC&#45;&gt;Uni</title>
<path fill="none" stroke="#000000" d="M322.204,-33.1655C310.122,-43.3552 293.648,-57.2491 280.156,-68.6277"/>
<polygon fill="#000000" stroke="#000000" points="277.594,-66.2093 272.206,-75.3319 282.107,-71.5604 277.594,-66.2093"/>
</g>
<!-- NFKC -->
<g id="node16" class="node"><title>NFKC</title>
<g id="a_node16"><a xlink:href="/type/NFKC" xlink:title="NFKC">
<ellipse fill="none" stroke="#000000" cx="422" cy="-18" rx="35.9954" ry="18"/>
<text text-anchor="middle" x="422" y="-14.3" font-family="FreeSans" font-size="14.00" fill="#000000">NFKC</text>
</a>
</g>
</g>
<!-- NFKC&#45;&gt;Uni -->
<g id="edge11" class="edge"><title>NFKC&#45;&gt;Uni</title>
<path fill="none" stroke="#000000" d="M395.329,-30.2467C366.054,-42.5918 319.076,-62.4018 287.879,-75.5571"/>
<polygon fill="#000000" stroke="#000000" points="286.201,-72.4659 278.347,-79.5765 288.921,-78.9159 286.201,-72.4659"/>
</g>
<!-- Buf -->
<g id="node17" class="node"><title>Buf</title>
<g id="a_node17"><a xlink:href="/type/Buf" xlink:title="Buf">
<ellipse fill="none" stroke="#6666ff" cx="99" cy="-18" rx="27" ry="18"/>
<text text-anchor="middle" x="99" y="-14.3" font-family="FreeSans" font-size="14.00" fill="#6666ff">Buf</text>
</a>
</g>
</g>
<!-- Buf&#45;&gt;Blob -->
<g id="edge21" class="edge"><title>Buf&#45;&gt;Blob</title>
<path fill="none" stroke="#6666ff" d="M105.162,-35.589C108.161,-43.6648 111.84,-53.5688 115.211,-62.6453"/>
<polygon fill="#6666ff" stroke="#6666ff" points="111.939,-63.8882 118.702,-72.0438 118.501,-61.4509 111.939,-63.8882"/>
</g>
<!-- utf8 -->
<g id="node18" class="node"><title>utf8</title>
<g id="a_node18"><a xlink:href="/type/utf8" xlink:title="utf8">
<ellipse fill="none" stroke="#000000" cx="27" cy="-18" rx="27" ry="18"/>
<text text-anchor="middle" x="27" y="-14.3" font-family="FreeSans" font-size="14.00" fill="#000000">utf8</text>
</a>
</g>
</g>
<!-- utf8&#45;&gt;Any -->
<g id="edge12" class="edge"><title>utf8&#45;&gt;Any</title>
<path fill="none" stroke="#000000" d="M32.8853,-35.6234C47.4487,-76.7587 84,-180 84,-180 84,-180 145.608,-204.551 184.963,-220.234"/>
<polygon fill="#000000" stroke="#000000" points="183.853,-223.559 194.438,-224.009 186.444,-217.056 183.853,-223.559"/>
</g>
<!-- utf8&#45;&gt;Blob -->
<g id="edge22" class="edge"><title>utf8&#45;&gt;Blob</title>
<path fill="none" stroke="#6666ff" d="M44.9747,-31.8391C59.9382,-42.5273 81.4592,-57.8995 98.4154,-70.011"/>
<polygon fill="#6666ff" stroke="#6666ff" points="96.6357,-73.0409 106.807,-76.0053 100.704,-67.3448 96.6357,-73.0409"/>
</g>
</g>
</svg>
