<?xml version="1.0" encoding="UTF-8" standalone="no"?>
<!DOCTYPE svg PUBLIC "-//W3C//DTD SVG 1.1//EN"
 "http://www.w3.org/Graphics/SVG/1.1/DTD/svg11.dtd">
<!-- Generated by graphviz version 2.38.0 (20140413.2041)
 -->
<!-- Title: perl6&#45;type&#45;graph Pages: 1 -->
<svg width="291pt" height="404pt"
 viewBox="0.00 0.00 291.14 404.00" xmlns="http://www.w3.org/2000/svg" xmlns:xlink="http://www.w3.org/1999/xlink">
<g id="graph0" class="graph" transform="scale(1 1) rotate(0) translate(4 400)">
<title>perl6&#45;type&#45;graph</title>
<polygon fill="white" stroke="none" points="-4,4 -4,-400 287.136,-400 287.136,4 -4,4"/>
<!-- X::Syntax::Regex::Unspace -->
<g id="node1" class="node"><title>X::Syntax::Regex::Unspace</title>
<g id="a_node1"><a xlink:href="/type/X::Syntax::Regex::Unspace" xlink:title="X::Syntax::Regex::Unspace">
<ellipse fill="none" stroke="#000000" cx="118.29" cy="-18" rx="118.079" ry="18"/>
<text text-anchor="middle" x="118.29" y="-14.3" font-family="FreeSans" font-size="14.00" fill="#000000">X::Syntax::Regex::Unspace</text>
</a>
</g>
</g>
<!-- Exception -->
<g id="node4" class="node"><title>Exception</title>
<g id="a_node4"><a xlink:href="/type/Exception" xlink:title="Exception">
<ellipse fill="none" stroke="#000000" cx="141.29" cy="-234" rx="49.2915" ry="18"/>
<text text-anchor="middle" x="141.29" y="-230.3" font-family="FreeSans" font-size="14.00" fill="#000000">Exception</text>
</a>
</g>
</g>
<!-- X::Syntax::Regex::Unspace&#45;&gt;Exception -->
<g id="edge1" class="edge"><title>X::Syntax::Regex::Unspace&#45;&gt;Exception</title>
<path fill="none" stroke="#000000" d="M116.255,-36.1508C116.7,-73.3384 125.931,-161.626 133.761,-206.228"/>
<polygon fill="#000000" stroke="#000000" points="130.323,-206.884 135.612,-216.065 137.203,-205.59 130.323,-206.884"/>
</g>
<!-- X::Syntax::Regex::Unspace&#45;&gt;Exception -->
<g id="edge2" class="edge"><title>X::Syntax::Regex::Unspace&#45;&gt;Exception</title>
<path fill="none" stroke="#000000" d="M124.01,-36.1508C131.525,-73.1683 141.217,-160.819 143.038,-205.614"/>
<polygon fill="#000000" stroke="#000000" points="139.544,-205.87 143.323,-215.768 146.541,-205.673 139.544,-205.87"/>
</g>
<!-- X::Syntax -->
<g id="node6" class="node"><title>X::Syntax</title>
<g id="a_node6"><a xlink:href="/type/X::Syntax" xlink:title="X::Syntax">
<ellipse fill="none" stroke="#6666ff" cx="203.29" cy="-90" rx="48.1917" ry="18"/>
<text text-anchor="middle" x="203.29" y="-86.3" font-family="FreeSans" font-size="14.00" fill="#6666ff">X::Syntax</text>
</a>
</g>
</g>
<!-- X::Syntax::Regex::Unspace&#45;&gt;X::Syntax -->
<g id="edge7" class="edge"><title>X::Syntax::Regex::Unspace&#45;&gt;X::Syntax</title>
<path fill="none" stroke="#6666ff" d="M138.866,-35.945C150.123,-45.216 164.207,-56.8143 176.333,-66.8003"/>
<polygon fill="#6666ff" stroke="#6666ff" points="174.412,-69.7523 184.356,-73.4077 178.862,-64.3488 174.412,-69.7523"/>
</g>
<!-- Mu -->
<g id="node2" class="node"><title>Mu</title>
<g id="a_node2"><a xlink:href="/type/Mu" xlink:title="Mu">
<ellipse fill="none" stroke="#000000" cx="141.29" cy="-378" rx="27" ry="18"/>
<text text-anchor="middle" x="141.29" y="-374.3" font-family="FreeSans" font-size="14.00" fill="#000000">Mu</text>
</a>
</g>
</g>
<!-- Any -->
<g id="node3" class="node"><title>Any</title>
<g id="a_node3"><a xlink:href="/type/Any" xlink:title="Any">
<ellipse fill="none" stroke="#000000" cx="141.29" cy="-306" rx="27" ry="18"/>
<text text-anchor="middle" x="141.29" y="-302.3" font-family="FreeSans" font-size="14.00" fill="#000000">Any</text>
</a>
</g>
</g>
<!-- Any&#45;&gt;Mu -->
<g id="edge3" class="edge"><title>Any&#45;&gt;Mu</title>
<path fill="none" stroke="#000000" d="M141.29,-324.303C141.29,-332.017 141.29,-341.288 141.29,-349.888"/>
<polygon fill="#000000" stroke="#000000" points="137.79,-349.896 141.29,-359.896 144.79,-349.896 137.79,-349.896"/>
</g>
<!-- Exception&#45;&gt;Any -->
<g id="edge4" class="edge"><title>Exception&#45;&gt;Any</title>
<path fill="none" stroke="#000000" d="M141.29,-252.303C141.29,-260.017 141.29,-269.288 141.29,-277.888"/>
<polygon fill="#000000" stroke="#000000" points="137.79,-277.896 141.29,-287.896 144.79,-277.896 137.79,-277.896"/>
</g>
<!-- X::Comp -->
<g id="node5" class="node"><title>X::Comp</title>
<g id="a_node5"><a xlink:href="/type/X::Comp" xlink:title="X::Comp">
<ellipse fill="none" stroke="#6666ff" cx="238.29" cy="-162" rx="44.6926" ry="18"/>
<text text-anchor="middle" x="238.29" y="-158.3" font-family="FreeSans" font-size="14.00" fill="#6666ff">X::Comp</text>
</a>
</g>
</g>
<!-- X::Comp&#45;&gt;Exception -->
<g id="edge5" class="edge"><title>X::Comp&#45;&gt;Exception</title>
<path fill="none" stroke="#000000" d="M217.242,-178.189C203.734,-187.937 185.991,-200.742 171.05,-211.523"/>
<polygon fill="#000000" stroke="#000000" points="168.692,-208.909 162.631,-217.599 172.788,-214.585 168.692,-208.909"/>
</g>
<!-- X::Syntax&#45;&gt;Exception -->
<g id="edge6" class="edge"><title>X::Syntax&#45;&gt;Exception</title>
<path fill="none" stroke="#000000" d="M195.934,-107.847C185.26,-132.294 165.378,-177.829 152.766,-206.714"/>
<polygon fill="#000000" stroke="#000000" points="149.43,-205.61 148.636,-216.175 155.845,-208.411 149.43,-205.61"/>
</g>
<!-- X::Syntax&#45;&gt;X::Comp -->
<g id="edge8" class="edge"><title>X::Syntax&#45;&gt;X::Comp</title>
<path fill="none" stroke="#6666ff" d="M211.762,-107.945C215.846,-116.113 220.834,-126.088 225.377,-135.176"/>
<polygon fill="#6666ff" stroke="#6666ff" points="222.292,-136.832 229.895,-144.211 228.553,-133.701 222.292,-136.832"/>
</g>
</g>
</svg>
