<?xml version="1.0" encoding="UTF-8" standalone="no"?>
<!DOCTYPE svg PUBLIC "-//W3C//DTD SVG 1.1//EN"
 "http://www.w3.org/Graphics/SVG/1.1/DTD/svg11.dtd">
<!-- Generated by graphviz version 2.38.0 (20140413.2041)
 -->
<!-- Title: perl6&#45;type&#45;graph Pages: 1 -->
<svg width="1816pt" height="404pt"
 viewBox="0.00 0.00 1816.44 404.00" xmlns="http://www.w3.org/2000/svg" xmlns:xlink="http://www.w3.org/1999/xlink">
<g id="graph0" class="graph" transform="scale(1 1) rotate(0) translate(4 400)">
<title>perl6&#45;type&#45;graph</title>
<polygon fill="white" stroke="none" points="-4,4 -4,-400 1812.44,-400 1812.44,4 -4,4"/>
<!-- X::IO -->
<g id="node1" class="node"><title>X::IO</title>
<g id="a_node1"><a xlink:href="/type/X::IO" xlink:title="X::IO">
<ellipse fill="none" stroke="#6666ff" cx="903.495" cy="-90" rx="31.3957" ry="18"/>
<text text-anchor="middle" x="903.495" y="-86.3" font-family="FreeSans" font-size="14.00" fill="#6666ff">X::IO</text>
</a>
</g>
</g>
<!-- Exception -->
<g id="node4" class="node"><title>Exception</title>
<g id="a_node4"><a xlink:href="/type/Exception" xlink:title="Exception">
<ellipse fill="none" stroke="#000000" cx="980.495" cy="-234" rx="49.2915" ry="18"/>
<text text-anchor="middle" x="980.495" y="-230.3" font-family="FreeSans" font-size="14.00" fill="#000000">Exception</text>
</a>
</g>
</g>
<!-- X::IO&#45;&gt;Exception -->
<g id="edge1" class="edge"><title>X::IO&#45;&gt;Exception</title>
<path fill="none" stroke="#000000" d="M911.959,-107.74C924.994,-133.521 948.495,-180 948.495,-180 948.495,-180 956.906,-193.931 965.104,-207.509"/>
<polygon fill="#000000" stroke="#000000" points="962.205,-209.479 970.37,-216.23 968.197,-205.861 962.205,-209.479"/>
</g>
<!-- X::OS -->
<g id="node5" class="node"><title>X::OS</title>
<g id="a_node5"><a xlink:href="/type/X::OS" xlink:title="X::OS">
<ellipse fill="none" stroke="#6666ff" cx="862.495" cy="-162" rx="34.394" ry="18"/>
<text text-anchor="middle" x="862.495" y="-158.3" font-family="FreeSans" font-size="14.00" fill="#6666ff">X::OS</text>
</a>
</g>
</g>
<!-- X::IO&#45;&gt;X::OS -->
<g id="edge41" class="edge"><title>X::IO&#45;&gt;X::OS</title>
<path fill="none" stroke="#6666ff" d="M893.986,-107.235C889.038,-115.683 882.877,-126.201 877.321,-135.688"/>
<polygon fill="#6666ff" stroke="#6666ff" points="874.271,-133.969 872.237,-144.367 880.311,-137.507 874.271,-133.969"/>
</g>
<!-- Mu -->
<g id="node2" class="node"><title>Mu</title>
<g id="a_node2"><a xlink:href="/type/Mu" xlink:title="Mu">
<ellipse fill="none" stroke="#000000" cx="980.495" cy="-378" rx="27" ry="18"/>
<text text-anchor="middle" x="980.495" y="-374.3" font-family="FreeSans" font-size="14.00" fill="#000000">Mu</text>
</a>
</g>
</g>
<!-- Any -->
<g id="node3" class="node"><title>Any</title>
<g id="a_node3"><a xlink:href="/type/Any" xlink:title="Any">
<ellipse fill="none" stroke="#000000" cx="980.495" cy="-306" rx="27" ry="18"/>
<text text-anchor="middle" x="980.495" y="-302.3" font-family="FreeSans" font-size="14.00" fill="#000000">Any</text>
</a>
</g>
</g>
<!-- Any&#45;&gt;Mu -->
<g id="edge2" class="edge"><title>Any&#45;&gt;Mu</title>
<path fill="none" stroke="#000000" d="M980.495,-324.303C980.495,-332.017 980.495,-341.288 980.495,-349.888"/>
<polygon fill="#000000" stroke="#000000" points="976.995,-349.896 980.495,-359.896 983.995,-349.896 976.995,-349.896"/>
</g>
<!-- Exception&#45;&gt;Any -->
<g id="edge3" class="edge"><title>Exception&#45;&gt;Any</title>
<path fill="none" stroke="#000000" d="M980.495,-252.303C980.495,-260.017 980.495,-269.288 980.495,-277.888"/>
<polygon fill="#000000" stroke="#000000" points="976.995,-277.896 980.495,-287.896 983.995,-277.896 976.995,-277.896"/>
</g>
<!-- X::OS&#45;&gt;Exception -->
<g id="edge4" class="edge"><title>X::OS&#45;&gt;Exception</title>
<path fill="none" stroke="#000000" d="M884.413,-176.002C901.984,-186.426 926.933,-201.226 947.004,-213.133"/>
<polygon fill="#000000" stroke="#000000" points="945.453,-216.282 955.839,-218.374 949.024,-210.261 945.453,-216.282"/>
</g>
<!-- X::IO::Mkdir -->
<g id="node6" class="node"><title>X::IO::Mkdir</title>
<g id="a_node6"><a xlink:href="/type/X::IO::Mkdir" xlink:title="X::IO::Mkdir">
<ellipse fill="none" stroke="#000000" cx="58.4948" cy="-18" rx="58.4896" ry="18"/>
<text text-anchor="middle" x="58.4948" y="-14.3" font-family="FreeSans" font-size="14.00" fill="#000000">X::IO::Mkdir</text>
</a>
</g>
</g>
<!-- X::IO::Mkdir&#45;&gt;X::IO -->
<g id="edge42" class="edge"><title>X::IO::Mkdir&#45;&gt;X::IO</title>
<path fill="none" stroke="#6666ff" d="M102.061,-30.0542C114.858,-33.3012 125.495,-36 125.495,-36 125.495,-36 701.064,-75.2097 862.085,-86.179"/>
<polygon fill="#6666ff" stroke="#6666ff" points="862.301,-89.7018 872.516,-86.8896 862.777,-82.718 862.301,-89.7018"/>
</g>
<!-- X::IO::Mkdir&#45;&gt;Exception -->
<g id="edge5" class="edge"><title>X::IO::Mkdir&#45;&gt;Exception</title>
<path fill="none" stroke="#000000" d="M94.7011,-32.3123C206.119,-70.8858 535.495,-180 535.495,-180 535.495,-180 803.995,-212.639 923.936,-226.69"/>
<polygon fill="#000000" stroke="#000000" points="923.695,-230.186 934.034,-227.87 924.508,-223.233 923.695,-230.186"/>
</g>
<!-- X::IO::Mkdir&#45;&gt;Exception -->
<g id="edge6" class="edge"><title>X::IO::Mkdir&#45;&gt;Exception</title>
<path fill="none" stroke="#000000" d="M98.8398,-31.1012C217.049,-68.5436 553.495,-180 553.495,-180 553.495,-180 809.284,-211.094 924.977,-225.649"/>
<polygon fill="#000000" stroke="#000000" points="924.699,-229.141 935.058,-226.92 925.575,-222.196 924.699,-229.141"/>
</g>
<!-- X::IO::DoesNotExist -->
<g id="node7" class="node"><title>X::IO::DoesNotExist</title>
<g id="a_node7"><a xlink:href="/type/X::IO::DoesNotExist" xlink:title="X::IO::DoesNotExist">
<ellipse fill="none" stroke="#000000" cx="224.495" cy="-18" rx="89.8845" ry="18"/>
<text text-anchor="middle" x="224.495" y="-14.3" font-family="FreeSans" font-size="14.00" fill="#000000">X::IO::DoesNotExist</text>
</a>
</g>
</g>
<!-- X::IO::DoesNotExist&#45;&gt;X::IO -->
<g id="edge43" class="edge"><title>X::IO::DoesNotExist&#45;&gt;X::IO</title>
<path fill="none" stroke="#6666ff" d="M289.862,-30.3392C307.839,-33.4576 322.495,-36 322.495,-36 322.495,-36 730.174,-73.1893 862.534,-85.2635"/>
<polygon fill="#6666ff" stroke="#6666ff" points="862.391,-88.7649 872.668,-86.1879 863.027,-81.7938 862.391,-88.7649"/>
</g>
<!-- X::IO::DoesNotExist&#45;&gt;Exception -->
<g id="edge7" class="edge"><title>X::IO::DoesNotExist&#45;&gt;Exception</title>
<path fill="none" stroke="#000000" d="M260.114,-34.5836C358.77,-74.9885 627.495,-180 627.495,-180 627.495,-180 825.312,-210.478 924.853,-225.209"/>
<polygon fill="#000000" stroke="#000000" points="924.635,-228.715 935.039,-226.712 925.657,-221.79 924.635,-228.715"/>
</g>
<!-- X::IO::DoesNotExist&#45;&gt;Exception -->
<g id="edge8" class="edge"><title>X::IO::DoesNotExist&#45;&gt;Exception</title>
<path fill="none" stroke="#000000" d="M267.075,-34.0019C374.164,-73.9702 645.495,-180 645.495,-180 645.495,-180 831.778,-208.701 926.594,-223.861"/>
<polygon fill="#000000" stroke="#000000" points="926.152,-227.335 936.58,-225.463 927.261,-220.424 926.152,-227.335"/>
</g>
<!-- X::IO::Copy -->
<g id="node8" class="node"><title>X::IO::Copy</title>
<g id="a_node8"><a xlink:href="/type/X::IO::Copy" xlink:title="X::IO::Copy">
<ellipse fill="none" stroke="#000000" cx="388.495" cy="-18" rx="56.59" ry="18"/>
<text text-anchor="middle" x="388.495" y="-14.3" font-family="FreeSans" font-size="14.00" fill="#000000">X::IO::Copy</text>
</a>
</g>
</g>
<!-- X::IO::Copy&#45;&gt;X::IO -->
<g id="edge44" class="edge"><title>X::IO::Copy&#45;&gt;X::IO</title>
<path fill="none" stroke="#6666ff" d="M431.04,-29.9586C443.811,-33.248 454.495,-36 454.495,-36 454.495,-36 752.399,-71.1646 862.894,-84.2075"/>
<polygon fill="#6666ff" stroke="#6666ff" points="862.645,-87.7023 872.986,-85.3988 863.465,-80.7505 862.645,-87.7023"/>
</g>
<!-- X::IO::Copy&#45;&gt;Exception -->
<g id="edge9" class="edge"><title>X::IO::Copy&#45;&gt;Exception</title>
<path fill="none" stroke="#000000" d="M414.486,-34.1465C489.602,-74.2252 700.495,-180 700.495,-180 700.495,-180 845.47,-208.353 926.869,-223.584"/>
<polygon fill="#000000" stroke="#000000" points="926.476,-227.071 936.948,-225.463 927.759,-220.189 926.476,-227.071"/>
</g>
<!-- X::IO::Copy&#45;&gt;Exception -->
<g id="edge10" class="edge"><title>X::IO::Copy&#45;&gt;Exception</title>
<path fill="none" stroke="#000000" d="M420.487,-33.006C503.517,-72.1764 718.495,-180 718.495,-180 718.495,-180 853.07,-206.319 929.403,-221.864"/>
<polygon fill="#000000" stroke="#000000" points="928.817,-225.316 939.315,-223.889 930.218,-218.458 928.817,-225.316"/>
</g>
<!-- X::IO::Chdir -->
<g id="node9" class="node"><title>X::IO::Chdir</title>
<g id="a_node9"><a xlink:href="/type/X::IO::Chdir" xlink:title="X::IO::Chdir">
<ellipse fill="none" stroke="#000000" cx="520.495" cy="-18" rx="57.3905" ry="18"/>
<text text-anchor="middle" x="520.495" y="-14.3" font-family="FreeSans" font-size="14.00" fill="#000000">X::IO::Chdir</text>
</a>
</g>
</g>
<!-- X::IO::Chdir&#45;&gt;X::IO -->
<g id="edge45" class="edge"><title>X::IO::Chdir&#45;&gt;X::IO</title>
<path fill="none" stroke="#6666ff" d="M563.684,-29.9586C576.649,-33.248 587.495,-36 587.495,-36 587.495,-36 778.81,-68.0877 863.719,-82.3287"/>
<polygon fill="#6666ff" stroke="#6666ff" points="863.325,-85.8115 873.766,-84.0139 864.483,-78.9079 863.325,-85.8115"/>
</g>
<!-- X::IO::Chdir&#45;&gt;Exception -->
<g id="edge11" class="edge"><title>X::IO::Chdir&#45;&gt;Exception</title>
<path fill="none" stroke="#000000" d="M536.747,-35.3235C589.977,-76.2544 748.495,-180 748.495,-180 748.495,-180 858.991,-207.366 927.864,-222.769"/>
<polygon fill="#000000" stroke="#000000" points="927.185,-226.204 937.706,-224.95 928.7,-219.37 927.185,-226.204"/>
</g>
<!-- X::IO::Chdir&#45;&gt;Exception -->
<g id="edge12" class="edge"><title>X::IO::Chdir&#45;&gt;Exception</title>
<path fill="none" stroke="#000000" d="M544.082,-34.4374C605.654,-74.7344 766.495,-180 766.495,-180 766.495,-180 867.735,-205.074 930.947,-220.729"/>
<polygon fill="#000000" stroke="#000000" points="930.196,-224.149 940.745,-223.155 931.879,-217.354 930.196,-224.149"/>
</g>
<!-- X::IO::Chdir&#45;&gt;Exception -->
<g id="edge13" class="edge"><title>X::IO::Chdir&#45;&gt;Exception</title>
<path fill="none" stroke="#000000" d="M550.783,-33.4294C620.923,-72.947 784.495,-180 784.495,-180 784.495,-180 876.949,-202.897 935.207,-218.592"/>
<polygon fill="#000000" stroke="#000000" points="934.383,-221.995 944.95,-221.238 936.217,-215.239 934.383,-221.995"/>
</g>
<!-- X::IO::Dir -->
<g id="node10" class="node"><title>X::IO::Dir</title>
<g id="a_node10"><a xlink:href="/type/X::IO::Dir" xlink:title="X::IO::Dir">
<ellipse fill="none" stroke="#000000" cx="643.495" cy="-18" rx="47.3916" ry="18"/>
<text text-anchor="middle" x="643.495" y="-14.3" font-family="FreeSans" font-size="14.00" fill="#000000">X::IO::Dir</text>
</a>
</g>
</g>
<!-- X::IO::Dir&#45;&gt;X::IO -->
<g id="edge46" class="edge"><title>X::IO::Dir&#45;&gt;X::IO</title>
<path fill="none" stroke="#6666ff" d="M679.278,-29.8626C690.253,-33.1943 699.495,-36 699.495,-36 699.495,-36 806.9,-63.9043 865.844,-79.2182"/>
<polygon fill="#6666ff" stroke="#6666ff" points="864.998,-82.6146 875.557,-81.7417 866.759,-75.8395 864.998,-82.6146"/>
</g>
<!-- X::IO::Dir&#45;&gt;Exception -->
<g id="edge14" class="edge"><title>X::IO::Dir&#45;&gt;Exception</title>
<path fill="none" stroke="#000000" d="M651.596,-35.9255C683.756,-77.2617 786.495,-180 786.495,-180 786.495,-180 871.767,-205.678 929.672,-221.288"/>
<polygon fill="#000000" stroke="#000000" points="928.861,-224.694 939.425,-223.889 930.665,-217.93 928.861,-224.694"/>
</g>
<!-- X::IO::Dir&#45;&gt;Exception -->
<g id="edge15" class="edge"><title>X::IO::Dir&#45;&gt;Exception</title>
<path fill="none" stroke="#000000" d="M659.521,-35.0259C700.244,-75.749 804.495,-180 804.495,-180 804.495,-180 881.716,-203.254 933.858,-218.956"/>
<polygon fill="#000000" stroke="#000000" points="933.015,-222.357 943.599,-221.889 935.033,-215.655 933.015,-222.357"/>
</g>
<!-- X::IO::Dir&#45;&gt;Exception -->
<g id="edge16" class="edge"><title>X::IO::Dir&#45;&gt;Exception</title>
<path fill="none" stroke="#000000" d="M666.698,-33.8579C716.21,-73.7148 822.495,-180 822.495,-180 822.495,-180 892.55,-201.096 939.744,-216.669"/>
<polygon fill="#000000" stroke="#000000" points="938.84,-220.057 949.434,-219.899 941.054,-213.416 938.84,-220.057"/>
</g>
<!-- X::IO::Move -->
<g id="node11" class="node"><title>X::IO::Move</title>
<g id="a_node11"><a xlink:href="/type/X::IO::Move" xlink:title="X::IO::Move">
<ellipse fill="none" stroke="#000000" cx="766.495" cy="-18" rx="57.6901" ry="18"/>
<text text-anchor="middle" x="766.495" y="-14.3" font-family="FreeSans" font-size="14.00" fill="#000000">X::IO::Move</text>
</a>
</g>
</g>
<!-- X::IO::Move&#45;&gt;X::IO -->
<g id="edge47" class="edge"><title>X::IO::Move&#45;&gt;X::IO</title>
<path fill="none" stroke="#6666ff" d="M795.214,-33.6743C817.558,-45.0906 848.543,-60.9223 871.645,-72.7262"/>
<polygon fill="#6666ff" stroke="#6666ff" points="870.204,-75.9205 880.701,-77.3537 873.389,-69.687 870.204,-75.9205"/>
</g>
<!-- X::IO::Move&#45;&gt;Exception -->
<g id="edge17" class="edge"><title>X::IO::Move&#45;&gt;Exception</title>
<path fill="none" stroke="#000000" d="M763.275,-36.2298C767.839,-77.7634 801.495,-180 801.495,-180 801.495,-180 877.223,-204.929 930.613,-220.593"/>
<polygon fill="#000000" stroke="#000000" points="929.719,-223.978 940.299,-223.402 931.669,-217.255 929.719,-223.978"/>
</g>
<!-- X::IO::Move&#45;&gt;Exception -->
<g id="edge18" class="edge"><title>X::IO::Move&#45;&gt;Exception</title>
<path fill="none" stroke="#000000" d="M772.067,-35.9255C785.674,-77.2617 819.495,-180 819.495,-180 819.495,-180 888.005,-202.553 935.643,-218.235"/>
<polygon fill="#000000" stroke="#000000" points="934.57,-221.566 945.163,-221.369 936.759,-214.917 934.57,-221.566"/>
</g>
<!-- X::IO::Move&#45;&gt;Exception -->
<g id="edge19" class="edge"><title>X::IO::Move&#45;&gt;Exception</title>
<path fill="none" stroke="#000000" d="M780.724,-35.6234C803.509,-76.7587 837.495,-180 837.495,-180 837.495,-180 899.323,-200.353 942.066,-215.834"/>
<polygon fill="#000000" stroke="#000000" points="941.075,-219.199 951.669,-219.351 943.482,-212.626 941.075,-219.199"/>
</g>
<!-- X::IO::Symlink -->
<g id="node12" class="node"><title>X::IO::Symlink</title>
<g id="a_node12"><a xlink:href="/type/X::IO::Symlink" xlink:title="X::IO::Symlink">
<ellipse fill="none" stroke="#000000" cx="909.495" cy="-18" rx="67.6881" ry="18"/>
<text text-anchor="middle" x="909.495" y="-14.3" font-family="FreeSans" font-size="14.00" fill="#000000">X::IO::Symlink</text>
</a>
</g>
</g>
<!-- X::IO::Symlink&#45;&gt;X::IO -->
<g id="edge48" class="edge"><title>X::IO::Symlink&#45;&gt;X::IO</title>
<path fill="none" stroke="#6666ff" d="M908.012,-36.3034C907.35,-44.0173 906.556,-53.2875 905.819,-61.8876"/>
<polygon fill="#6666ff" stroke="#6666ff" points="902.328,-61.6333 904.961,-71.8957 909.302,-62.2311 902.328,-61.6333"/>
</g>
<!-- X::IO::Symlink&#45;&gt;Exception -->
<g id="edge20" class="edge"><title>X::IO::Symlink&#45;&gt;Exception</title>
<path fill="none" stroke="#000000" d="M906.752,-36.0613C912.379,-51.5549 925.495,-72 925.495,-72 925.495,-72 946.088,-161.609 964.022,-207.123"/>
<polygon fill="#000000" stroke="#000000" points="960.812,-208.518 967.918,-216.377 967.263,-205.802 960.812,-208.518"/>
</g>
<!-- X::IO::Symlink&#45;&gt;Exception -->
<g id="edge21" class="edge"><title>X::IO::Symlink&#45;&gt;Exception</title>
<path fill="none" stroke="#000000" d="M920.44,-36.0613C930.379,-51.5549 943.495,-72 943.495,-72 943.495,-72 963.717,-159.994 974.261,-205.876"/>
<polygon fill="#000000" stroke="#000000" points="970.884,-206.808 976.535,-215.77 977.706,-205.24 970.884,-206.808"/>
</g>
<!-- X::IO::Symlink&#45;&gt;Exception -->
<g id="edge22" class="edge"><title>X::IO::Symlink&#45;&gt;Exception</title>
<path fill="none" stroke="#000000" d="M933.05,-34.9017C947.711,-50.5132 961.495,-72 961.495,-72 961.495,-72 981.731,-160.054 984.992,-205.923"/>
<polygon fill="#000000" stroke="#000000" points="981.502,-206.235 985.43,-216.074 988.495,-205.933 981.502,-206.235"/>
</g>
<!-- X::IO::Rmdir -->
<g id="node13" class="node"><title>X::IO::Rmdir</title>
<g id="a_node13"><a xlink:href="/type/X::IO::Rmdir" xlink:title="X::IO::Rmdir">
<ellipse fill="none" stroke="#000000" cx="1054.49" cy="-18" rx="59.5901" ry="18"/>
<text text-anchor="middle" x="1054.49" y="-14.3" font-family="FreeSans" font-size="14.00" fill="#000000">X::IO::Rmdir</text>
</a>
</g>
</g>
<!-- X::IO::Rmdir&#45;&gt;X::IO -->
<g id="edge49" class="edge"><title>X::IO::Rmdir&#45;&gt;X::IO</title>
<path fill="none" stroke="#6666ff" d="M1023.21,-33.504C997.93,-45.2221 962.443,-61.6728 936.674,-73.6191"/>
<polygon fill="#6666ff" stroke="#6666ff" points="934.915,-70.5765 927.314,-77.9578 937.859,-76.9273 934.915,-70.5765"/>
</g>
<!-- X::IO::Rmdir&#45;&gt;Exception -->
<g id="edge23" class="edge"><title>X::IO::Rmdir&#45;&gt;Exception</title>
<path fill="none" stroke="#000000" d="M1041,-35.7922C1021.06,-72.736 989.885,-161.329 980.475,-206.113"/>
<polygon fill="#000000" stroke="#000000" points="977.025,-205.52 978.649,-215.99 983.909,-206.793 977.025,-205.52"/>
</g>
<!-- X::IO::Rmdir&#45;&gt;Exception -->
<g id="edge24" class="edge"><title>X::IO::Rmdir&#45;&gt;Exception</title>
<path fill="none" stroke="#000000" d="M1048.56,-36.1508C1035.68,-73.4168 1005.05,-161.998 989.655,-206.51"/>
<polygon fill="#000000" stroke="#000000" points="986.311,-205.47 986.351,-216.065 992.927,-207.758 986.311,-205.47"/>
</g>
<!-- X::IO::Rmdir&#45;&gt;Exception -->
<g id="edge25" class="edge"><title>X::IO::Rmdir&#45;&gt;Exception</title>
<path fill="none" stroke="#000000" d="M1056.32,-36.1508C1050.5,-73.7585 1019.87,-163.627 998.328,-207.723"/>
<polygon fill="#000000" stroke="#000000" points="995.198,-206.157 993.747,-216.652 1001.43,-209.353 995.198,-206.157"/>
</g>
<!-- X::IO::Link -->
<g id="node14" class="node"><title>X::IO::Link</title>
<g id="a_node14"><a xlink:href="/type/X::IO::Link" xlink:title="X::IO::Link">
<ellipse fill="none" stroke="#000000" cx="1185.49" cy="-18" rx="53.0913" ry="18"/>
<text text-anchor="middle" x="1185.49" y="-14.3" font-family="FreeSans" font-size="14.00" fill="#000000">X::IO::Link</text>
</a>
</g>
</g>
<!-- X::IO::Link&#45;&gt;X::IO -->
<g id="edge50" class="edge"><title>X::IO::Link&#45;&gt;X::IO</title>
<path fill="none" stroke="#6666ff" d="M1145.53,-29.9586C1133.53,-33.248 1123.49,-36 1123.49,-36 1123.49,-36 1004.81,-64.5931 941.783,-79.7759"/>
<polygon fill="#6666ff" stroke="#6666ff" points="940.708,-76.4349 931.806,-82.1797 942.347,-83.2402 940.708,-76.4349"/>
</g>
<!-- X::IO::Link&#45;&gt;Exception -->
<g id="edge26" class="edge"><title>X::IO::Link&#45;&gt;Exception</title>
<path fill="none" stroke="#000000" d="M1162.82,-34.4374C1116.26,-74.7344 1019.49,-180 1019.49,-180 1019.49,-180 1004.13,-194.287 991.874,-208.025"/>
<polygon fill="#000000" stroke="#000000" points="988.959,-206.05 985.156,-215.939 994.296,-210.58 988.959,-206.05"/>
</g>
<!-- X::IO::Link&#45;&gt;Exception -->
<g id="edge27" class="edge"><title>X::IO::Link&#45;&gt;Exception</title>
<path fill="none" stroke="#000000" d="M1170.49,-35.3235C1132.86,-76.2544 1037.49,-180 1037.49,-180 1037.49,-180 1020.43,-195.869 1004.97,-210.24"/>
<polygon fill="#000000" stroke="#000000" points="1002.54,-207.726 997.597,-217.098 1007.3,-212.852 1002.54,-207.726"/>
</g>
<!-- X::IO::Link&#45;&gt;Exception -->
<g id="edge28" class="edge"><title>X::IO::Link&#45;&gt;Exception</title>
<path fill="none" stroke="#000000" d="M1178.76,-35.9255C1149.94,-77.2617 1055.49,-180 1055.49,-180 1055.49,-180 1036.08,-198.054 1016.33,-213.088"/>
<polygon fill="#000000" stroke="#000000" points="1014.18,-210.327 1008.2,-219.075 1018.33,-215.964 1014.18,-210.327"/>
</g>
<!-- X::IO::Rename -->
<g id="node15" class="node"><title>X::IO::Rename</title>
<g id="a_node15"><a xlink:href="/type/X::IO::Rename" xlink:title="X::IO::Rename">
<ellipse fill="none" stroke="#000000" cx="1326.49" cy="-18" rx="69.5877" ry="18"/>
<text text-anchor="middle" x="1326.49" y="-14.3" font-family="FreeSans" font-size="14.00" fill="#000000">X::IO::Rename</text>
</a>
</g>
</g>
<!-- X::IO::Rename&#45;&gt;X::IO -->
<g id="edge51" class="edge"><title>X::IO::Rename&#45;&gt;X::IO</title>
<path fill="none" stroke="#6666ff" d="M1274.68,-30.1496C1259.79,-33.3539 1247.49,-36 1247.49,-36 1247.49,-36 1033.9,-68.9092 943.325,-82.8634"/>
<polygon fill="#6666ff" stroke="#6666ff" points="942.771,-79.4073 933.421,-84.3893 943.837,-86.3257 942.771,-79.4073"/>
</g>
<!-- X::IO::Rename&#45;&gt;Exception -->
<g id="edge29" class="edge"><title>X::IO::Rename&#45;&gt;Exception</title>
<path fill="none" stroke="#000000" d="M1295.41,-34.1465C1225.83,-74.2252 1067.49,-180 1067.49,-180 1067.49,-180 1033.43,-197.193 1007.43,-211.995"/>
<polygon fill="#000000" stroke="#000000" points="1005.54,-209.05 998.645,-217.098 1009.05,-215.104 1005.54,-209.05"/>
</g>
<!-- X::IO::Rename&#45;&gt;Exception -->
<g id="edge30" class="edge"><title>X::IO::Rename&#45;&gt;Exception</title>
<path fill="none" stroke="#000000" d="M1302.51,-35.0259C1241.55,-75.749 1085.49,-180 1085.49,-180 1085.49,-180 1047.69,-199.082 1017.45,-214.347"/>
<polygon fill="#000000" stroke="#000000" points="1015.71,-211.305 1008.36,-218.936 1018.86,-217.554 1015.71,-211.305"/>
</g>
<!-- X::IO::Rename&#45;&gt;Exception -->
<g id="edge31" class="edge"><title>X::IO::Rename&#45;&gt;Exception</title>
<path fill="none" stroke="#000000" d="M1310.37,-35.6234C1258.04,-76.7587 1103.49,-180 1103.49,-180 1103.49,-180 1060.72,-201.592 1025.09,-217.213"/>
<polygon fill="#000000" stroke="#000000" points="1023.55,-214.067 1015.75,-221.238 1026.32,-220.496 1023.55,-214.067"/>
</g>
<!-- X::IO::Unlink -->
<g id="node16" class="node"><title>X::IO::Unlink</title>
<g id="a_node16"><a xlink:href="/type/X::IO::Unlink" xlink:title="X::IO::Unlink">
<ellipse fill="none" stroke="#000000" cx="1475.49" cy="-18" rx="61.1893" ry="18"/>
<text text-anchor="middle" x="1475.49" y="-14.3" font-family="FreeSans" font-size="14.00" fill="#000000">X::IO::Unlink</text>
</a>
</g>
</g>
<!-- X::IO::Unlink&#45;&gt;X::IO -->
<g id="edge52" class="edge"><title>X::IO::Unlink&#45;&gt;X::IO</title>
<path fill="none" stroke="#6666ff" d="M1429.98,-30.0542C1416.61,-33.3012 1405.49,-36 1405.49,-36 1405.49,-36 1064.05,-72.0485 944.358,-84.6858"/>
<polygon fill="#6666ff" stroke="#6666ff" points="943.719,-81.2337 934.141,-85.7644 944.454,-88.195 943.719,-81.2337"/>
</g>
<!-- X::IO::Unlink&#45;&gt;Exception -->
<g id="edge32" class="edge"><title>X::IO::Unlink&#45;&gt;Exception</title>
<path fill="none" stroke="#000000" d="M1439.53,-32.588C1349.76,-71.403 1126.49,-180 1126.49,-180 1126.49,-180 1063.25,-200.439 1019.62,-215.932"/>
<polygon fill="#000000" stroke="#000000" points="1018.32,-212.679 1010.09,-219.351 1020.69,-219.267 1018.32,-212.679"/>
</g>
<!-- X::IO::Unlink&#45;&gt;Exception -->
<g id="edge33" class="edge"><title>X::IO::Unlink&#45;&gt;Exception</title>
<path fill="none" stroke="#000000" d="M1445.24,-33.7145C1363.53,-73.4592 1144.49,-180 1144.49,-180 1144.49,-180 1074.32,-202.679 1025.77,-218.367"/>
<polygon fill="#000000" stroke="#000000" points="1024.52,-215.094 1016.08,-221.5 1026.67,-221.755 1024.52,-215.094"/>
</g>
<!-- X::IO::Unlink&#45;&gt;Exception -->
<g id="edge34" class="edge"><title>X::IO::Unlink&#45;&gt;Exception</title>
<path fill="none" stroke="#000000" d="M1451.71,-34.7305C1377.87,-75.2423 1162.49,-180 1162.49,-180 1162.49,-180 1084.94,-205.063 1030.64,-220.719"/>
<polygon fill="#000000" stroke="#000000" points="1029.46,-217.418 1020.8,-223.525 1031.38,-224.15 1029.46,-217.418"/>
</g>
<!-- X::IO::Chmod -->
<g id="node17" class="node"><title>X::IO::Chmod</title>
<g id="a_node17"><a xlink:href="/type/X::IO::Chmod" xlink:title="X::IO::Chmod">
<ellipse fill="none" stroke="#000000" cx="1618.49" cy="-18" rx="64.189" ry="18"/>
<text text-anchor="middle" x="1618.49" y="-14.3" font-family="FreeSans" font-size="14.00" fill="#000000">X::IO::Chmod</text>
</a>
</g>
</g>
<!-- X::IO::Chmod&#45;&gt;X::IO -->
<g id="edge53" class="edge"><title>X::IO::Chmod&#45;&gt;X::IO</title>
<path fill="none" stroke="#6666ff" d="M1570.62,-30.1496C1556.86,-33.3539 1545.49,-36 1545.49,-36 1545.49,-36 1085.99,-73.9344 944.474,-85.617"/>
<polygon fill="#6666ff" stroke="#6666ff" points="944.138,-82.1327 934.46,-86.4437 944.714,-89.109 944.138,-82.1327"/>
</g>
<!-- X::IO::Chmod&#45;&gt;Exception -->
<g id="edge35" class="edge"><title>X::IO::Chmod&#45;&gt;Exception</title>
<path fill="none" stroke="#000000" d="M1577.73,-32.0389C1470.96,-70.3675 1194.49,-180 1194.49,-180 1194.49,-180 1090.58,-203.74 1027.23,-219.443"/>
<polygon fill="#000000" stroke="#000000" points="1026.29,-216.071 1017.44,-221.889 1027.99,-222.862 1026.29,-216.071"/>
</g>
<!-- X::IO::Chmod&#45;&gt;Exception -->
<g id="edge36" class="edge"><title>X::IO::Chmod&#45;&gt;Exception</title>
<path fill="none" stroke="#000000" d="M1582.82,-33.1466C1483.75,-72.4335 1212.49,-180 1212.49,-180 1212.49,-180 1099.6,-205.791 1031.31,-221.391"/>
<polygon fill="#000000" stroke="#000000" points="1030.14,-218.068 1021.17,-223.707 1031.7,-224.892 1030.14,-218.068"/>
</g>
<!-- X::IO::Chmod&#45;&gt;Exception -->
<g id="edge37" class="edge"><title>X::IO::Chmod&#45;&gt;Exception</title>
<path fill="none" stroke="#000000" d="M1588.71,-34.1465C1497.23,-74.2252 1230.49,-180 1230.49,-180 1230.49,-180 1108.02,-207.979 1034.14,-223.279"/>
<polygon fill="#000000" stroke="#000000" points="1033.15,-219.91 1024.06,-225.35 1034.56,-226.767 1033.15,-219.91"/>
</g>
<!-- X::IO::Cwd -->
<g id="node18" class="node"><title>X::IO::Cwd</title>
<g id="a_node18"><a xlink:href="/type/X::IO::Cwd" xlink:title="X::IO::Cwd">
<ellipse fill="none" stroke="#000000" cx="1754.49" cy="-18" rx="53.8905" ry="18"/>
<text text-anchor="middle" x="1754.49" y="-14.3" font-family="FreeSans" font-size="14.00" fill="#000000">X::IO::Cwd</text>
</a>
</g>
</g>
<!-- X::IO::Cwd&#45;&gt;X::IO -->
<g id="edge54" class="edge"><title>X::IO::Cwd&#45;&gt;X::IO</title>
<path fill="none" stroke="#6666ff" d="M1713.88,-29.9586C1701.69,-33.248 1691.49,-36 1691.49,-36 1691.49,-36 1106.06,-75.3754 944.41,-86.2481"/>
<polygon fill="#6666ff" stroke="#6666ff" points="944.128,-82.7591 934.385,-86.9223 944.598,-89.7433 944.128,-82.7591"/>
</g>
<!-- X::IO::Cwd&#45;&gt;Exception -->
<g id="edge38" class="edge"><title>X::IO::Cwd&#45;&gt;Exception</title>
<path fill="none" stroke="#000000" d="M1714.72,-30.1934C1598.42,-66.7046 1270.49,-180 1270.49,-180 1270.49,-180 1115.48,-206.675 1031.82,-222.177"/>
<polygon fill="#000000" stroke="#000000" points="1031.18,-218.736 1021.99,-224.009 1032.46,-225.618 1031.18,-218.736"/>
</g>
<!-- X::IO::Cwd&#45;&gt;Exception -->
<g id="edge39" class="edge"><title>X::IO::Cwd&#45;&gt;Exception</title>
<path fill="none" stroke="#000000" d="M1718.32,-31.4994C1608.83,-69.3271 1288.49,-180 1288.49,-180 1288.49,-180 1122.72,-208.527 1034.41,-223.723"/>
<polygon fill="#000000" stroke="#000000" points="1033.56,-220.317 1024.3,-225.463 1034.75,-227.216 1033.56,-220.317"/>
</g>
<!-- X::IO::Cwd&#45;&gt;Exception -->
<g id="edge40" class="edge"><title>X::IO::Cwd&#45;&gt;Exception</title>
<path fill="none" stroke="#000000" d="M1722.83,-32.7268C1620.07,-71.6611 1306.49,-180 1306.49,-180 1306.49,-180 1129.66,-210.43 1036.14,-225.175"/>
<polygon fill="#000000" stroke="#000000" points="1035.33,-221.759 1025.99,-226.764 1036.41,-228.675 1035.33,-221.759"/>
</g>
</g>
</svg>
