<?xml version="1.0" encoding="UTF-8" standalone="no"?>
<!DOCTYPE svg PUBLIC "-//W3C//DTD SVG 1.1//EN"
 "http://www.w3.org/Graphics/SVG/1.1/DTD/svg11.dtd">
<!-- Generated by graphviz version 2.38.0 (20140413.2041)
 -->
<!-- Title: perl6&#45;type&#45;graph Pages: 1 -->
<svg width="2126pt" height="1023pt"
 viewBox="0.00 0.00 2125.97 1023.37" xmlns="http://www.w3.org/2000/svg" xmlns:xlink="http://www.w3.org/1999/xlink">
<g id="graph0" class="graph" transform="scale(1 1) rotate(0) translate(1028.87 491.475)">
<title>perl6&#45;type&#45;graph</title>
<polygon fill="white" stroke="none" points="-1028.87,531.893 -1028.87,-491.475 1097.1,-491.475 1097.1,531.893 -1028.87,531.893"/>
<!-- Metamodel::Stashing -->
<g id="node1" class="node"><title>Metamodel::Stashing</title>
<g id="a_node1"><a xlink:href="/type/Metamodel::Stashing" xlink:title="Metamodel::Stashing">
<ellipse fill="none" stroke="#6666ff" cx="186.941" cy="105.726" rx="93.6835" ry="18"/>
<text text-anchor="middle" x="186.941" y="109.426" font-family="FreeSans" font-size="14.00" fill="#6666ff">Metamodel::Stashing</text>
</a>
</g>
</g>
<!-- Mu -->
<g id="node2" class="node"><title>Mu</title>
<g id="a_node2"><a xlink:href="/type/Mu" xlink:title="Mu">
<ellipse fill="none" stroke="#000000" cx="561.775" cy="484.113" rx="27" ry="18"/>
<text text-anchor="middle" x="561.775" y="487.813" font-family="FreeSans" font-size="14.00" fill="#000000">Mu</text>
</a>
</g>
</g>
<!-- Any -->
<g id="node3" class="node"><title>Any</title>
<g id="a_node3"><a xlink:href="/type/Any" xlink:title="Any">
<ellipse fill="none" stroke="#000000" cx="351.247" cy="272.835" rx="27" ry="18"/>
<text text-anchor="middle" x="351.247" y="276.535" font-family="FreeSans" font-size="14.00" fill="#000000">Any</text>
</a>
</g>
</g>
<!-- Any&#45;&gt;Mu -->
<g id="edge1" class="edge"><title>Any&#45;&gt;Mu</title>
<path fill="none" stroke="#000000" d="M366.388,288.029C403.032,324.804 496.634,418.739 539.603,461.861"/>
<polygon fill="#000000" stroke="#000000" points="542.193,459.502 546.772,469.056 537.234,464.443 542.193,459.502"/>
</g>
<!-- Metamodel::Naming -->
<g id="node4" class="node"><title>Metamodel::Naming</title>
<g id="a_node4"><a xlink:href="/type/Metamodel::Naming" xlink:title="Metamodel::Naming">
<ellipse fill="none" stroke="#6666ff" cx="403.664" cy="28.8976" rx="90.1842" ry="18"/>
<text text-anchor="middle" x="403.664" y="32.5976" font-family="FreeSans" font-size="14.00" fill="#6666ff">Metamodel::Naming</text>
</a>
</g>
</g>
<!-- Metamodel::Documenting -->
<g id="node5" class="node"><title>Metamodel::Documenting</title>
<g id="a_node5"><a xlink:href="/type/Metamodel::Documenting" xlink:title="Metamodel::Documenting">
<ellipse fill="none" stroke="#6666ff" cx="341.555" cy="-189.242" rx="111.28" ry="18"/>
<text text-anchor="middle" x="341.555" y="-185.542" font-family="FreeSans" font-size="14.00" fill="#6666ff">Metamodel::Documenting</text>
</a>
</g>
</g>
<!-- Metamodel::Versioning -->
<g id="node6" class="node"><title>Metamodel::Versioning</title>
<g id="a_node6"><a xlink:href="/type/Metamodel::Versioning" xlink:title="Metamodel::Versioning">
<ellipse fill="none" stroke="#6666ff" cx="300.586" cy="-455.714" rx="100.983" ry="18"/>
<text text-anchor="middle" x="300.586" y="-452.014" font-family="FreeSans" font-size="14.00" fill="#6666ff">Metamodel::Versioning</text>
</a>
</g>
</g>
<!-- Metamodel::MethodContainer -->
<g id="node7" class="node"><title>Metamodel::MethodContainer</title>
<g id="a_node7"><a xlink:href="/type/Metamodel::MethodContainer" xlink:title="Metamodel::MethodContainer">
<ellipse fill="none" stroke="#6666ff" cx="-339.075" cy="-187.959" rx="127.277" ry="18"/>
<text text-anchor="middle" x="-339.075" y="-184.259" font-family="FreeSans" font-size="14.00" fill="#6666ff">Metamodel::MethodContainer</text>
</a>
</g>
</g>
<!-- Metamodel::PrivateMethodContainer -->
<g id="node8" class="node"><title>Metamodel::PrivateMethodContainer</title>
<g id="a_node8"><a xlink:href="/type/Metamodel::PrivateMethodContainer" xlink:title="Metamodel::PrivateMethodContainer">
<ellipse fill="none" stroke="#6666ff" cx="60.4024" cy="305.898" rx="154.873" ry="18"/>
<text text-anchor="middle" x="60.4024" y="309.598" font-family="FreeSans" font-size="14.00" fill="#6666ff">Metamodel::PrivateMethodContainer</text>
</a>
</g>
</g>
<!-- Metamodel::MultiMethodContainer -->
<g id="node9" class="node"><title>Metamodel::MultiMethodContainer</title>
<g id="a_node9"><a xlink:href="/type/Metamodel::MultiMethodContainer" xlink:title="Metamodel::MultiMethodContainer">
<ellipse fill="none" stroke="#6666ff" cx="-382.374" cy="95.2375" rx="146.474" ry="18"/>
<text text-anchor="middle" x="-382.374" y="98.9375" font-family="FreeSans" font-size="14.00" fill="#6666ff">Metamodel::MultiMethodContainer</text>
</a>
</g>
</g>
<!-- Metamodel::AttributeContainer -->
<g id="node10" class="node"><title>Metamodel::AttributeContainer</title>
<g id="a_node10"><a xlink:href="/type/Metamodel::AttributeContainer" xlink:title="Metamodel::AttributeContainer">
<ellipse fill="none" stroke="#6666ff" cx="219.245" cy="507.542" rx="129.977" ry="18"/>
<text text-anchor="middle" x="219.245" y="511.242" font-family="FreeSans" font-size="14.00" fill="#6666ff">Metamodel::AttributeContainer</text>
</a>
</g>
</g>
<!-- Metamodel::RoleContainer -->
<g id="node11" class="node"><title>Metamodel::RoleContainer</title>
<g id="a_node11"><a xlink:href="/type/Metamodel::RoleContainer" xlink:title="Metamodel::RoleContainer">
<ellipse fill="none" stroke="#6666ff" cx="-228.068" cy="281.581" rx="115.88" ry="18"/>
<text text-anchor="middle" x="-228.068" y="285.281" font-family="FreeSans" font-size="14.00" fill="#6666ff">Metamodel::RoleContainer</text>
</a>
</g>
</g>
<!-- Metamodel::MultipleInheritance -->
<g id="node12" class="node"><title>Metamodel::MultipleInheritance</title>
<g id="a_node12"><a xlink:href="/type/Metamodel::MultipleInheritance" xlink:title="Metamodel::MultipleInheritance">
<ellipse fill="none" stroke="#6666ff" cx="30.431" cy="-469.475" rx="133.776" ry="18"/>
<text text-anchor="middle" x="30.431" y="-465.775" font-family="FreeSans" font-size="14.00" fill="#6666ff">Metamodel::MultipleInheritance</text>
</a>
</g>
</g>
<!-- Metamodel::TypePretense -->
<g id="node13" class="node"><title>Metamodel::TypePretense</title>
<g id="a_node13"><a xlink:href="/type/Metamodel::TypePretense" xlink:title="Metamodel::TypePretense">
<ellipse fill="none" stroke="#6666ff" cx="964.852" cy="-386.08" rx="114.28" ry="18"/>
<text text-anchor="middle" x="964.852" y="-382.38" font-family="FreeSans" font-size="14.00" fill="#6666ff">Metamodel::TypePretense</text>
</a>
</g>
</g>
<!-- Metamodel::RolePunning -->
<g id="node14" class="node"><title>Metamodel::RolePunning</title>
<g id="a_node14"><a xlink:href="/type/Metamodel::RolePunning" xlink:title="Metamodel::RolePunning">
<ellipse fill="none" stroke="#6666ff" cx="589.042" cy="-437.34" rx="109.681" ry="18"/>
<text text-anchor="middle" x="589.042" y="-433.64" font-family="FreeSans" font-size="14.00" fill="#6666ff">Metamodel::RolePunning</text>
</a>
</g>
</g>
<!-- Metamodel::ParametricRoleHOW -->
<g id="node15" class="node"><title>Metamodel::ParametricRoleHOW</title>
<g id="a_node15"><a xlink:href="/type/Metamodel::ParametricRoleHOW" xlink:title="Metamodel::ParametricRoleHOW">
<ellipse fill="none" stroke="#000000" cx="88.2475" cy="-60.6983" rx="142.175" ry="18"/>
<text text-anchor="middle" x="88.2475" y="-56.9983" font-family="FreeSans" font-size="14.00" fill="#000000">Metamodel::ParametricRoleHOW</text>
</a>
</g>
</g>
<!-- Metamodel::ParametricRoleHOW&#45;&gt;Metamodel::Stashing -->
<g id="edge18" class="edge"><title>Metamodel::ParametricRoleHOW&#45;&gt;Metamodel::Stashing</title>
<path fill="none" stroke="#6666ff" d="M98.9973,-42.5712C116.35,-13.3092 150.634,44.5012 170.889,78.6578"/>
<polygon fill="#6666ff" stroke="#6666ff" points="174.114,77.2345 176.205,87.6211 168.094,80.8051 174.114,77.2345"/>
</g>
<!-- Metamodel::ParametricRoleHOW&#45;&gt;Any -->
<g id="edge2" class="edge"><title>Metamodel::ParametricRoleHOW&#45;&gt;Any</title>
<path fill="none" stroke="#000000" d="M109.366,-42.5755C159.617,0.547655 282.133,105.686 282.133,105.686 282.133,105.686 320.574,198.652 340.118,245.92"/>
<polygon fill="#000000" stroke="#000000" points="343.395,244.684 343.981,255.263 336.926,247.359 343.395,244.684"/>
</g>
<!-- Metamodel::ParametricRoleHOW&#45;&gt;Metamodel::Naming -->
<g id="edge9" class="edge"><title>Metamodel::ParametricRoleHOW&#45;&gt;Metamodel::Naming</title>
<path fill="none" stroke="#6666ff" d="M146.467,-44.1606C201.881,-28.4199 284.993,-4.81153 341.635,11.2778"/>
<polygon fill="#6666ff" stroke="#6666ff" points="342.876,7.99193 351.539,14.0913 340.964,14.7255 342.876,7.99193"/>
</g>
<!-- Metamodel::ParametricRoleHOW&#45;&gt;Metamodel::Documenting -->
<g id="edge10" class="edge"><title>Metamodel::ParametricRoleHOW&#45;&gt;Metamodel::Documenting</title>
<path fill="none" stroke="#6666ff" d="M122.673,-78.1681C168.295,-101.32 248.788,-142.167 298.416,-167.351"/>
<polygon fill="#6666ff" stroke="#6666ff" points="297.107,-170.612 307.609,-172.016 300.275,-164.37 297.107,-170.612"/>
</g>
<!-- Metamodel::ParametricRoleHOW&#45;&gt;Metamodel::Versioning -->
<g id="edge11" class="edge"><title>Metamodel::ParametricRoleHOW&#45;&gt;Metamodel::Versioning</title>
<path fill="none" stroke="#6666ff" d="M103.899,-78.8665C145.313,-126.941 254.614,-253.818 254.614,-253.818 254.614,-253.818 281.528,-372.016 294.169,-427.536"/>
<polygon fill="#6666ff" stroke="#6666ff" points="290.792,-428.468 296.425,-437.441 297.617,-426.914 290.792,-428.468"/>
</g>
<!-- Metamodel::ParametricRoleHOW&#45;&gt;Metamodel::MethodContainer -->
<g id="edge12" class="edge"><title>Metamodel::ParametricRoleHOW&#45;&gt;Metamodel::MethodContainer</title>
<path fill="none" stroke="#6666ff" d="M32.3825,-77.3354C-46.7209,-100.893 -191.023,-143.867 -274.58,-168.752"/>
<polygon fill="#6666ff" stroke="#6666ff" points="-275.626,-165.411 -284.211,-171.62 -273.628,-172.12 -275.626,-165.411"/>
</g>
<!-- Metamodel::ParametricRoleHOW&#45;&gt;Metamodel::PrivateMethodContainer -->
<g id="edge13" class="edge"><title>Metamodel::ParametricRoleHOW&#45;&gt;Metamodel::PrivateMethodContainer</title>
<path fill="none" stroke="#6666ff" d="M86.8666,-42.5187C82.3574,16.8472 68.0407,205.336 62.5628,277.455"/>
<polygon fill="#6666ff" stroke="#6666ff" points="66.039,277.902 61.7916,287.608 59.0591,277.372 66.039,277.902"/>
</g>
<!-- Metamodel::ParametricRoleHOW&#45;&gt;Metamodel::MultiMethodContainer -->
<g id="edge14" class="edge"><title>Metamodel::ParametricRoleHOW&#45;&gt;Metamodel::MultiMethodContainer</title>
<path fill="none" stroke="#6666ff" d="M42.7056,-43.5784C-15.9009,-21.5473 -110.261,13.9241 -110.261,13.9241 -110.261,13.9241 -236.051,51.5129 -316.58,75.5768"/>
<polygon fill="#6666ff" stroke="#6666ff" points="-316.068,79.0766 -326.651,78.5863 -318.072,72.3696 -316.068,79.0766"/>
</g>
<!-- Metamodel::ParametricRoleHOW&#45;&gt;Metamodel::AttributeContainer -->
<g id="edge15" class="edge"><title>Metamodel::ParametricRoleHOW&#45;&gt;Metamodel::AttributeContainer</title>
<path fill="none" stroke="#6666ff" d="M88.629,-42.5668C89.5367,0.57699 91.7499,105.766 91.7499,105.766 91.7499,105.766 216.688,305.824 216.688,305.824 216.688,305.824 218.179,423.427 218.884,479.042"/>
<polygon fill="#6666ff" stroke="#6666ff" points="222.386,479.241 219.013,489.285 215.387,479.33 222.386,479.241"/>
</g>
<!-- Metamodel::ParametricRoleHOW&#45;&gt;Metamodel::RoleContainer -->
<g id="edge16" class="edge"><title>Metamodel::ParametricRoleHOW&#45;&gt;Metamodel::RoleContainer</title>
<path fill="none" stroke="#6666ff" d="M65.3393,-42.9131C6.34238,2.89014 -146.215,121.331 -146.215,121.331 -146.215,121.331 -190.855,208.725 -214.203,254.435"/>
<polygon fill="#6666ff" stroke="#6666ff" points="-211.172,256.196 -218.838,263.51 -217.406,253.012 -211.172,256.196"/>
</g>
<!-- Metamodel::ParametricRoleHOW&#45;&gt;Metamodel::MultipleInheritance -->
<g id="edge17" class="edge"><title>Metamodel::ParametricRoleHOW&#45;&gt;Metamodel::MultipleInheritance</title>
<path fill="none" stroke="#6666ff" d="M78.0918,-78.9415C56.5148,-117.702 8.06109,-204.742 8.06109,-204.742 8.06109,-204.742 -26.7523,-253.503 -26.7523,-253.503 -26.7523,-253.503 7.65478,-383.453 23.0904,-441.751"/>
<polygon fill="#6666ff" stroke="#6666ff" points="19.7109,-442.662 25.654,-451.433 26.4778,-440.87 19.7109,-442.662"/>
</g>
<!-- Metamodel::ParametricRoleHOW&#45;&gt;Metamodel::TypePretense -->
<g id="edge19" class="edge"><title>Metamodel::ParametricRoleHOW&#45;&gt;Metamodel::TypePretense</title>
<path fill="none" stroke="#6666ff" d="M137.476,-77.636C230.281,-109.567 421.877,-175.489 421.877,-175.489 421.877,-175.489 776.157,-312.895 912.369,-365.725"/>
<polygon fill="#6666ff" stroke="#6666ff" points="911.203,-369.026 921.792,-369.379 913.734,-362.5 911.203,-369.026"/>
</g>
<!-- Metamodel::ParametricRoleHOW&#45;&gt;Metamodel::RolePunning -->
<g id="edge20" class="edge"><title>Metamodel::ParametricRoleHOW&#45;&gt;Metamodel::RolePunning</title>
<path fill="none" stroke="#6666ff" d="M107.793,-78.5511C146.418,-113.831 228.818,-189.093 228.818,-189.093 228.818,-189.093 465.128,-351.945 554.952,-413.847"/>
<polygon fill="#6666ff" stroke="#6666ff" points="553.204,-416.893 563.424,-419.686 557.176,-411.129 553.204,-416.893"/>
</g>
<!-- Metamodel::BaseType -->
<g id="node16" class="node"><title>Metamodel::BaseType</title>
<g id="a_node16"><a xlink:href="/type/Metamodel::BaseType" xlink:title="Metamodel::BaseType">
<ellipse fill="none" stroke="#6666ff" cx="-114.731" cy="509.893" rx="99.3824" ry="18"/>
<text text-anchor="middle" x="-114.731" y="513.593" font-family="FreeSans" font-size="14.00" fill="#6666ff">Metamodel::BaseType</text>
</a>
</g>
</g>
<!-- Metamodel::MROBasedMethodDispatch -->
<g id="node17" class="node"><title>Metamodel::MROBasedMethodDispatch</title>
<g id="a_node17"><a xlink:href="/type/Metamodel::MROBasedMethodDispatch" xlink:title="Metamodel::MROBasedMethodDispatch">
<ellipse fill="none" stroke="#6666ff" cx="-463.264" cy="483.026" rx="169.77" ry="18"/>
<text text-anchor="middle" x="-463.264" y="486.726" font-family="FreeSans" font-size="14.00" fill="#6666ff">Metamodel::MROBasedMethodDispatch</text>
</a>
</g>
</g>
<!-- Metamodel::MROBasedTypeChecking -->
<g id="node18" class="node"><title>Metamodel::MROBasedTypeChecking</title>
<g id="a_node18"><a xlink:href="/type/Metamodel::MROBasedTypeChecking" xlink:title="Metamodel::MROBasedTypeChecking">
<ellipse fill="none" stroke="#6666ff" cx="-596.928" cy="-118.779" rx="163.271" ry="18"/>
<text text-anchor="middle" x="-596.928" y="-115.079" font-family="FreeSans" font-size="14.00" fill="#6666ff">Metamodel::MROBasedTypeChecking</text>
</a>
</g>
</g>
<!-- Metamodel::BUILDPLAN -->
<g id="node19" class="node"><title>Metamodel::BUILDPLAN</title>
<g id="a_node19"><a xlink:href="/type/Metamodel::BUILDPLAN" xlink:title="Metamodel::BUILDPLAN">
<ellipse fill="none" stroke="#6666ff" cx="-603.076" cy="204.073" rx="109.681" ry="18"/>
<text text-anchor="middle" x="-603.076" y="207.773" font-family="FreeSans" font-size="14.00" fill="#6666ff">Metamodel::BUILDPLAN</text>
</a>
</g>
</g>
<!-- Metamodel::BoolificationProtocol -->
<g id="node20" class="node"><title>Metamodel::BoolificationProtocol</title>
<g id="a_node20"><a xlink:href="/type/Metamodel::BoolificationProtocol" xlink:title="Metamodel::BoolificationProtocol">
<ellipse fill="none" stroke="#6666ff" cx="113.931" cy="-253.661" rx="139.175" ry="18"/>
<text text-anchor="middle" x="113.931" y="-249.961" font-family="FreeSans" font-size="14.00" fill="#6666ff">Metamodel::BoolificationProtocol</text>
</a>
</g>
</g>
<!-- Metamodel::EnumHOW -->
<g id="node21" class="node"><title>Metamodel::EnumHOW</title>
<g id="a_node21"><a xlink:href="/type/Metamodel::EnumHOW" xlink:title="Metamodel::EnumHOW">
<ellipse fill="none" stroke="#000000" cx="-39.9752" cy="121.265" rx="104.782" ry="18"/>
<text text-anchor="middle" x="-39.9752" y="124.965" font-family="FreeSans" font-size="14.00" fill="#000000">Metamodel::EnumHOW</text>
</a>
</g>
</g>
<!-- Metamodel::EnumHOW&#45;&gt;Metamodel::Stashing -->
<g id="edge22" class="edge"><title>Metamodel::EnumHOW&#45;&gt;Metamodel::Stashing</title>
<path fill="none" stroke="#6666ff" d="M57.2454,114.607C67.5303,113.903 77.9969,113.186 88.2978,112.481"/>
<polygon fill="#6666ff" stroke="#6666ff" points="88.3148,108.971 98.5306,111.78 88.7931,115.955 88.3148,108.971"/>
</g>
<!-- Metamodel::EnumHOW&#45;&gt;Any -->
<g id="edge3" class="edge"><title>Metamodel::EnumHOW&#45;&gt;Any</title>
<path fill="none" stroke="#000000" d="M2.63721,137.774C81.1599,168.196 247.132,232.498 318.018,259.961"/>
<polygon fill="#000000" stroke="#000000" points="319.704,256.861 327.765,263.737 317.176,263.388 319.704,256.861"/>
</g>
<!-- Metamodel::EnumHOW&#45;&gt;Metamodel::Naming -->
<g id="edge21" class="edge"><title>Metamodel::EnumHOW&#45;&gt;Metamodel::Naming</title>
<path fill="none" stroke="#6666ff" d="M26.9225,107.336C108.683,90.3135 246.53,61.6133 330.88,44.0515"/>
<polygon fill="#6666ff" stroke="#6666ff" points="330.39,40.5785 340.893,41.9666 331.817,47.4315 330.39,40.5785"/>
</g>
<!-- Metamodel::EnumHOW&#45;&gt;Metamodel::MethodContainer -->
<g id="edge24" class="edge"><title>Metamodel::EnumHOW&#45;&gt;Metamodel::MethodContainer</title>
<path fill="none" stroke="#6666ff" d="M-45.8947,103.118C-56.925,69.3031 -79.515,0.0509251 -79.515,0.0509251 -79.515,0.0509251 -236.341,-113.544 -306.19,-164.139"/>
<polygon fill="#6666ff" stroke="#6666ff" points="-308.611,-161.571 -314.656,-170.271 -304.505,-167.24 -308.611,-161.571"/>
</g>
<!-- Metamodel::EnumHOW&#45;&gt;Metamodel::MultiMethodContainer -->
<g id="edge25" class="edge"><title>Metamodel::EnumHOW&#45;&gt;Metamodel::MultiMethodContainer</title>
<path fill="none" stroke="#6666ff" d="M-135.808,113.98C-170.348,111.354 -210.001,108.34 -247.265,105.508"/>
<polygon fill="#6666ff" stroke="#6666ff" points="-248,108.962 -257.705,104.714 -247.469,101.982 -248,108.962"/>
</g>
<!-- Metamodel::EnumHOW&#45;&gt;Metamodel::AttributeContainer -->
<g id="edge23" class="edge"><title>Metamodel::EnumHOW&#45;&gt;Metamodel::AttributeContainer</title>
<path fill="none" stroke="#6666ff" d="M-15.3653,138.961C48.8753,185.155 216.688,305.824 216.688,305.824 216.688,305.824 218.179,423.427 218.884,479.042"/>
<polygon fill="#6666ff" stroke="#6666ff" points="222.386,479.241 219.013,489.285 215.387,479.33 222.386,479.241"/>
</g>
<!-- Metamodel::EnumHOW&#45;&gt;Metamodel::RoleContainer -->
<g id="edge26" class="edge"><title>Metamodel::EnumHOW&#45;&gt;Metamodel::RoleContainer</title>
<path fill="none" stroke="#6666ff" d="M-60.8231,139.034C-94.5776,167.803 -161.255,224.634 -199.435,257.176"/>
<polygon fill="#6666ff" stroke="#6666ff" points="-197.246,259.909 -207.127,263.732 -201.787,254.582 -197.246,259.909"/>
</g>
<!-- Metamodel::EnumHOW&#45;&gt;Metamodel::BaseType -->
<g id="edge27" class="edge"><title>Metamodel::EnumHOW&#45;&gt;Metamodel::BaseType</title>
<path fill="none" stroke="#6666ff" d="M-45.4376,139.311C-59.5054,185.788 -95.8828,305.971 -95.8828,305.971 -95.8828,305.971 -106.97,425.928 -112.137,481.834"/>
<polygon fill="#6666ff" stroke="#6666ff" points="-108.653,482.161 -113.058,491.796 -115.623,481.516 -108.653,482.161"/>
</g>
<!-- Metamodel::EnumHOW&#45;&gt;Metamodel::MROBasedMethodDispatch -->
<g id="edge28" class="edge"><title>Metamodel::EnumHOW&#45;&gt;Metamodel::MROBasedMethodDispatch</title>
<path fill="none" stroke="#6666ff" d="M-72.6562,138.435C-151.436,179.826 -345.356,281.71 -345.356,281.71 -345.356,281.71 -415.248,401.043 -447.411,455.957"/>
<polygon fill="#6666ff" stroke="#6666ff" points="-444.519,457.945 -452.593,464.805 -450.559,454.407 -444.519,457.945"/>
</g>
<!-- Metamodel::EnumHOW&#45;&gt;Metamodel::MROBasedTypeChecking -->
<g id="edge29" class="edge"><title>Metamodel::EnumHOW&#45;&gt;Metamodel::MROBasedTypeChecking</title>
<path fill="none" stroke="#6666ff" d="M-79.139,104.385C-177.924,61.8096 -437.15,-49.9153 -546.8,-97.1739"/>
<polygon fill="#6666ff" stroke="#6666ff" points="-548.513,-94.1008 -556.311,-101.273 -545.742,-100.529 -548.513,-94.1008"/>
</g>
<!-- Metamodel::EnumHOW&#45;&gt;Metamodel::BUILDPLAN -->
<g id="edge30" class="edge"><title>Metamodel::EnumHOW&#45;&gt;Metamodel::BUILDPLAN</title>
<path fill="none" stroke="#6666ff" d="M-119.757,132.997C-222.88,148.162 -402.082,174.515 -510.908,190.519"/>
<polygon fill="#6666ff" stroke="#6666ff" points="-510.487,193.995 -520.89,191.987 -511.505,187.069 -510.487,193.995"/>
</g>
<!-- Metamodel::EnumHOW&#45;&gt;Metamodel::BoolificationProtocol -->
<g id="edge31" class="edge"><title>Metamodel::EnumHOW&#45;&gt;Metamodel::BoolificationProtocol</title>
<path fill="none" stroke="#6666ff" d="M-41.5394,103.154C-45.5143,57.1323 -55.6899,-60.6822 -55.6899,-60.6822 -55.6899,-60.6822 45.1316,-175.387 91.314,-227.929"/>
<polygon fill="#6666ff" stroke="#6666ff" points="88.7425,-230.305 97.9733,-235.506 94.0002,-225.684 88.7425,-230.305"/>
</g>
<!-- Metamodel::Finalization -->
<g id="node22" class="node"><title>Metamodel::Finalization</title>
<g id="a_node22"><a xlink:href="/type/Metamodel::Finalization" xlink:title="Metamodel::Finalization">
<ellipse fill="none" stroke="#6666ff" cx="-920.883" cy="26.1825" rx="103.982" ry="18"/>
<text text-anchor="middle" x="-920.883" y="29.8825" font-family="FreeSans" font-size="14.00" fill="#6666ff">Metamodel::Finalization</text>
</a>
</g>
</g>
<!-- Metamodel::DefaultParent -->
<g id="node23" class="node"><title>Metamodel::DefaultParent</title>
<g id="a_node23"><a xlink:href="/type/Metamodel::DefaultParent" xlink:title="Metamodel::DefaultParent">
<ellipse fill="none" stroke="#6666ff" cx="-523.742" cy="-440.291" rx="113.18" ry="18"/>
<text text-anchor="middle" x="-523.742" y="-436.591" font-family="FreeSans" font-size="14.00" fill="#6666ff">Metamodel::DefaultParent</text>
</a>
</g>
</g>
<!-- Metamodel::C3MRO -->
<g id="node24" class="node"><title>Metamodel::C3MRO</title>
<g id="a_node24"><a xlink:href="/type/Metamodel::C3MRO" xlink:title="Metamodel::C3MRO">
<ellipse fill="none" stroke="#6666ff" cx="-227.979" cy="-452.101" rx="92.0841" ry="18"/>
<text text-anchor="middle" x="-227.979" y="-448.401" font-family="FreeSans" font-size="14.00" fill="#6666ff">Metamodel::C3MRO</text>
</a>
</g>
</g>
<!-- Metamodel::Trusting -->
<g id="node25" class="node"><title>Metamodel::Trusting</title>
<g id="a_node25"><a xlink:href="/type/Metamodel::Trusting" xlink:title="Metamodel::Trusting">
<ellipse fill="none" stroke="#6666ff" cx="-896.474" cy="-386.226" rx="91.784" ry="18"/>
<text text-anchor="middle" x="-896.474" y="-382.526" font-family="FreeSans" font-size="14.00" fill="#6666ff">Metamodel::Trusting</text>
</a>
</g>
</g>
<!-- Metamodel::Mixins -->
<g id="node26" class="node"><title>Metamodel::Mixins</title>
<g id="a_node26"><a xlink:href="/type/Metamodel::Mixins" xlink:title="Metamodel::Mixins">
<ellipse fill="none" stroke="#6666ff" cx="-885.338" cy="435.976" rx="85.2851" ry="18"/>
<text text-anchor="middle" x="-885.338" y="439.676" font-family="FreeSans" font-size="14.00" fill="#6666ff">Metamodel::Mixins</text>
</a>
</g>
</g>
<!-- Metamodel::ClassHOW -->
<g id="node27" class="node"><title>Metamodel::ClassHOW</title>
<g id="a_node27"><a xlink:href="/type/Metamodel::ClassHOW" xlink:title="Metamodel::ClassHOW">
<ellipse fill="none" stroke="#000000" cx="-185.106" cy="0.0983579" rx="103.982" ry="18"/>
<text text-anchor="middle" x="-185.106" y="3.79836" font-family="FreeSans" font-size="14.00" fill="#000000">Metamodel::ClassHOW</text>
</a>
</g>
</g>
<!-- Metamodel::ClassHOW&#45;&gt;Metamodel::Stashing -->
<g id="edge35" class="edge"><title>Metamodel::ClassHOW&#45;&gt;Metamodel::Stashing</title>
<path fill="none" stroke="#6666ff" d="M-130.608,15.5706C-62.6574,34.8625 53.2306,67.7641 124.634,88.0361"/>
<polygon fill="#6666ff" stroke="#6666ff" points="125.74,84.7119 134.404,90.81 123.828,91.4458 125.74,84.7119"/>
</g>
<!-- Metamodel::ClassHOW&#45;&gt;Any -->
<g id="edge4" class="edge"><title>Metamodel::ClassHOW&#45;&gt;Any</title>
<path fill="none" stroke="#000000" d="M-149.889,17.0643C-80.7082,50.3927 66.2649,121.198 66.2649,121.198 66.2649,121.198 246.961,217.345 320.584,256.519"/>
<polygon fill="#000000" stroke="#000000" points="322.643,253.65 329.827,261.437 319.355,259.83 322.643,253.65"/>
</g>
<!-- Metamodel::ClassHOW&#45;&gt;Metamodel::Naming -->
<g id="edge32" class="edge"><title>Metamodel::ClassHOW&#45;&gt;Metamodel::Naming</title>
<path fill="none" stroke="#6666ff" d="M-84.8953,5.00006C24.1796,10.3354 197.452,18.8108 305.654,24.1035"/>
<polygon fill="#6666ff" stroke="#6666ff" points="306.101,20.621 315.918,24.6055 305.759,27.6127 306.101,20.621"/>
</g>
<!-- Metamodel::ClassHOW&#45;&gt;Metamodel::Documenting -->
<g id="edge33" class="edge"><title>Metamodel::ClassHOW&#45;&gt;Metamodel::Documenting</title>
<path fill="none" stroke="#6666ff" d="M-149.056,-16.8324C-110.763,-34.8169 -55.6899,-60.6822 -55.6899,-60.6822 -55.6899,-60.6822 -13.6149,-74.5462 -13.6149,-74.5462 -13.6149,-74.5462 180.383,-137.195 281.626,-169.889"/>
<polygon fill="#6666ff" stroke="#6666ff" points="280.829,-173.31 291.421,-173.053 282.98,-166.649 280.829,-173.31"/>
</g>
<!-- Metamodel::ClassHOW&#45;&gt;Metamodel::Versioning -->
<g id="edge34" class="edge"><title>Metamodel::ClassHOW&#45;&gt;Metamodel::Versioning</title>
<path fill="none" stroke="#6666ff" d="M-155.228,-17.1547C-56.2584,-74.3044 254.614,-253.818 254.614,-253.818 254.614,-253.818 281.528,-372.016 294.169,-427.536"/>
<polygon fill="#6666ff" stroke="#6666ff" points="290.792,-428.468 296.425,-437.441 297.617,-426.914 290.792,-428.468"/>
</g>
<!-- Metamodel::ClassHOW&#45;&gt;Metamodel::MethodContainer -->
<g id="edge38" class="edge"><title>Metamodel::ClassHOW&#45;&gt;Metamodel::MethodContainer</title>
<path fill="none" stroke="#6666ff" d="M-199.869,-17.9334C-227.229,-51.3514 -285.909,-123.022 -317.644,-161.783"/>
<polygon fill="#6666ff" stroke="#6666ff" points="-320.73,-160.027 -324.357,-169.982 -315.314,-164.462 -320.73,-160.027"/>
</g>
<!-- Metamodel::ClassHOW&#45;&gt;Metamodel::PrivateMethodContainer -->
<g id="edge39" class="edge"><title>Metamodel::ClassHOW&#45;&gt;Metamodel::PrivateMethodContainer</title>
<path fill="none" stroke="#6666ff" d="M-179.283,18.2481C-168.434,52.0679 -146.215,121.331 -146.215,121.331 -146.215,121.331 -23.5828,230.876 32.7288,281.177"/>
<polygon fill="#6666ff" stroke="#6666ff" points="35.0886,278.592 40.2148,287.865 30.4253,283.813 35.0886,278.592"/>
</g>
<!-- Metamodel::ClassHOW&#45;&gt;Metamodel::MultiMethodContainer -->
<g id="edge40" class="edge"><title>Metamodel::ClassHOW&#45;&gt;Metamodel::MultiMethodContainer</title>
<path fill="none" stroke="#6666ff" d="M-220.373,17.1073C-252.927,32.8077 -301.452,56.2103 -336.906,73.3091"/>
<polygon fill="#6666ff" stroke="#6666ff" points="-335.549,76.5405 -346.077,77.7321 -338.59,70.2355 -335.549,76.5405"/>
</g>
<!-- Metamodel::ClassHOW&#45;&gt;Metamodel::AttributeContainer -->
<g id="edge36" class="edge"><title>Metamodel::ClassHOW&#45;&gt;Metamodel::AttributeContainer</title>
<path fill="none" stroke="#6666ff" d="M-179.791,18.3161C-160.583,84.1649 -95.8828,305.971 -95.8828,305.971 -95.8828,305.971 100.115,431.341 182.965,484.335"/>
<polygon fill="#6666ff" stroke="#6666ff" points="185.018,481.493 191.556,489.83 181.246,487.39 185.018,481.493"/>
</g>
<!-- Metamodel::ClassHOW&#45;&gt;Metamodel::RoleContainer -->
<g id="edge41" class="edge"><title>Metamodel::ClassHOW&#45;&gt;Metamodel::RoleContainer</title>
<path fill="none" stroke="#6666ff" d="M-187.858,18.1346C-195.131,65.7838 -214.901,195.314 -223.721,253.094"/>
<polygon fill="#6666ff" stroke="#6666ff" points="-220.314,253.973 -225.283,263.331 -227.234,252.917 -220.314,253.973"/>
</g>
<!-- Metamodel::ClassHOW&#45;&gt;Metamodel::MultipleInheritance -->
<g id="edge42" class="edge"><title>Metamodel::ClassHOW&#45;&gt;Metamodel::MultipleInheritance</title>
<path fill="none" stroke="#6666ff" d="M-187.281,-18.0628C-193.28,-68.148 -209.617,-204.55 -209.617,-204.55 -209.617,-204.55 -53.2716,-377.098 7.06617,-443.689"/>
<polygon fill="#6666ff" stroke="#6666ff" points="4.62326,-446.205 13.9315,-451.266 9.81057,-441.505 4.62326,-446.205"/>
</g>
<!-- Metamodel::ClassHOW&#45;&gt;Metamodel::MROBasedMethodDispatch -->
<g id="edge45" class="edge"><title>Metamodel::ClassHOW&#45;&gt;Metamodel::MROBasedMethodDispatch</title>
<path fill="none" stroke="#6666ff" d="M-194.637,18.4228C-209.002,46.0399 -234.539,95.1371 -234.539,95.1371 -234.539,95.1371 -345.356,281.71 -345.356,281.71 -345.356,281.71 -415.248,401.043 -447.411,455.957"/>
<polygon fill="#6666ff" stroke="#6666ff" points="-444.519,457.945 -452.593,464.805 -450.559,454.407 -444.519,457.945"/>
</g>
<!-- Metamodel::ClassHOW&#45;&gt;Metamodel::MROBasedTypeChecking -->
<g id="edge46" class="edge"><title>Metamodel::ClassHOW&#45;&gt;Metamodel::MROBasedTypeChecking</title>
<path fill="none" stroke="#6666ff" d="M-238.944,-15.4428C-313.32,-36.9122 -447.503,-75.6458 -528.781,-99.1074"/>
<polygon fill="#6666ff" stroke="#6666ff" points="-529.786,-95.7545 -538.423,-101.891 -527.844,-102.48 -529.786,-95.7545"/>
</g>
<!-- Metamodel::ClassHOW&#45;&gt;Metamodel::BUILDPLAN -->
<g id="edge48" class="edge"><title>Metamodel::ClassHOW&#45;&gt;Metamodel::BUILDPLAN</title>
<path fill="none" stroke="#6666ff" d="M-241.619,15.3044C-329.126,38.8504 -487.445,81.4493 -487.445,81.4493 -487.445,81.4493 -530.209,95.3379 -530.209,95.3379 -530.209,95.3379 -563.745,145.381 -585.315,177.569"/>
<polygon fill="#6666ff" stroke="#6666ff" points="-582.569,179.759 -591.043,186.118 -588.384,175.862 -582.569,179.759"/>
</g>
<!-- Metamodel::ClassHOW&#45;&gt;Metamodel::BoolificationProtocol -->
<g id="edge50" class="edge"><title>Metamodel::ClassHOW&#45;&gt;Metamodel::BoolificationProtocol</title>
<path fill="none" stroke="#6666ff" d="M-164.078,-17.7455C-111.639,-62.2448 25.0064,-178.2 84.9882,-229.1"/>
<polygon fill="#6666ff" stroke="#6666ff" points="83.0371,-232.035 92.9264,-235.836 87.5663,-226.697 83.0371,-232.035"/>
</g>
<!-- Metamodel::ClassHOW&#45;&gt;Metamodel::Finalization -->
<g id="edge37" class="edge"><title>Metamodel::ClassHOW&#45;&gt;Metamodel::Finalization</title>
<path fill="none" stroke="#6666ff" d="M-287.026,3.71154C-424,8.56742 -666.648,17.1696 -808.686,22.205"/>
<polygon fill="#6666ff" stroke="#6666ff" points="-808.619,25.7047 -818.736,22.5613 -808.867,18.7091 -808.619,25.7047"/>
</g>
<!-- Metamodel::ClassHOW&#45;&gt;Metamodel::DefaultParent -->
<g id="edge43" class="edge"><title>Metamodel::ClassHOW&#45;&gt;Metamodel::DefaultParent</title>
<path fill="none" stroke="#6666ff" d="M-187.501,-17.9448C-193.754,-65.0438 -210.089,-188.078 -210.089,-188.078 -210.089,-188.078 -415.081,-352.915 -493.621,-416.07"/>
<polygon fill="#6666ff" stroke="#6666ff" points="-496.086,-413.561 -501.686,-422.555 -491.7,-419.016 -496.086,-413.561"/>
</g>
<!-- Metamodel::ClassHOW&#45;&gt;Metamodel::C3MRO -->
<g id="edge44" class="edge"><title>Metamodel::ClassHOW&#45;&gt;Metamodel::C3MRO</title>
<path fill="none" stroke="#6666ff" d="M-187.281,-18.0628C-193.28,-68.148 -209.617,-204.55 -209.617,-204.55 -209.617,-204.55 -221.029,-358.412 -225.86,-423.534"/>
<polygon fill="#6666ff" stroke="#6666ff" points="-229.379,-423.666 -226.628,-433.898 -222.398,-424.184 -229.379,-423.666"/>
</g>
<!-- Metamodel::ClassHOW&#45;&gt;Metamodel::Trusting -->
<g id="edge47" class="edge"><title>Metamodel::ClassHOW&#45;&gt;Metamodel::Trusting</title>
<path fill="none" stroke="#6666ff" d="M-217.054,-17.2517C-332.445,-79.9175 -727.605,-294.518 -855.896,-364.19"/>
<polygon fill="#6666ff" stroke="#6666ff" points="-857.901,-361.295 -865.018,-369.143 -854.56,-367.447 -857.901,-361.295"/>
</g>
<!-- Metamodel::ClassHOW&#45;&gt;Metamodel::Mixins -->
<g id="edge49" class="edge"><title>Metamodel::ClassHOW&#45;&gt;Metamodel::Mixins</title>
<path fill="none" stroke="#6666ff" d="M-194.637,18.4228C-209.002,46.0399 -234.539,95.1371 -234.539,95.1371 -234.539,95.1371 -701.037,339.453 -844.117,414.387"/>
<polygon fill="#6666ff" stroke="#6666ff" points="-842.583,417.534 -853.065,419.073 -845.83,411.333 -842.583,417.534"/>
</g>
<!-- Metamodel::NativeHOW -->
<g id="node28" class="node"><title>Metamodel::NativeHOW</title>
<g id="a_node28"><a xlink:href="/type/Metamodel::NativeHOW" xlink:title="Metamodel::NativeHOW">
<ellipse fill="none" stroke="#000000" cx="-100.778" cy="-204.646" rx="107.482" ry="18"/>
<text text-anchor="middle" x="-100.778" y="-200.946" font-family="FreeSans" font-size="14.00" fill="#000000">Metamodel::NativeHOW</text>
</a>
</g>
</g>
<!-- Metamodel::NativeHOW&#45;&gt;Metamodel::Stashing -->
<g id="edge54" class="edge"><title>Metamodel::NativeHOW&#45;&gt;Metamodel::Stashing</title>
<path fill="none" stroke="#6666ff" d="M-95.0676,-186.413C-82.935,-147.674 -55.6899,-60.6822 -55.6899,-60.6822 -55.6899,-60.6822 86.1198,36.5776 152.911,82.3862"/>
<polygon fill="#6666ff" stroke="#6666ff" points="155.167,79.6893 161.434,88.2318 151.208,85.4621 155.167,79.6893"/>
</g>
<!-- Metamodel::NativeHOW&#45;&gt;Any -->
<g id="edge5" class="edge"><title>Metamodel::NativeHOW&#45;&gt;Any</title>
<path fill="none" stroke="#000000" d="M-95.0676,-186.413C-82.935,-147.674 -55.6899,-60.6822 -55.6899,-60.6822 -55.6899,-60.6822 91.7499,105.766 91.7499,105.766 91.7499,105.766 256.287,211.698 323.326,254.859"/>
<polygon fill="#000000" stroke="#000000" points="325.229,251.921 331.743,260.277 321.44,257.807 325.229,251.921"/>
</g>
<!-- Metamodel::NativeHOW&#45;&gt;Metamodel::Naming -->
<g id="edge51" class="edge"><title>Metamodel::NativeHOW&#45;&gt;Metamodel::Naming</title>
<path fill="none" stroke="#6666ff" d="M-61.9314,-187.854C25.9006,-149.886 232.185,-60.7143 232.185,-60.7143 232.185,-60.7143 311.55,-19.2396 362.294,7.27823"/>
<polygon fill="#6666ff" stroke="#6666ff" points="364.168,4.30871 371.41,12.0423 360.926,10.5127 364.168,4.30871"/>
</g>
<!-- Metamodel::NativeHOW&#45;&gt;Metamodel::Documenting -->
<g id="edge52" class="edge"><title>Metamodel::NativeHOW&#45;&gt;Metamodel::Documenting</title>
<path fill="none" stroke="#6666ff" d="M4.32901,-200.986C69.8254,-198.705 154.269,-195.764 222.27,-193.396"/>
<polygon fill="#6666ff" stroke="#6666ff" points="222.736,-196.882 232.608,-193.036 222.492,-189.887 222.736,-196.882"/>
</g>
<!-- Metamodel::NativeHOW&#45;&gt;Metamodel::Versioning -->
<g id="edge53" class="edge"><title>Metamodel::NativeHOW&#45;&gt;Metamodel::Versioning</title>
<path fill="none" stroke="#6666ff" d="M-74.0531,-222.285C-52.8493,-236.279 -26.7523,-253.503 -26.7523,-253.503 -26.7523,-253.503 178.228,-380.129 263.774,-432.974"/>
<polygon fill="#6666ff" stroke="#6666ff" points="262.046,-436.021 272.394,-438.299 265.725,-430.066 262.046,-436.021"/>
</g>
<!-- Metamodel::NativeHOW&#45;&gt;Metamodel::MultipleInheritance -->
<g id="edge55" class="edge"><title>Metamodel::NativeHOW&#45;&gt;Metamodel::MultipleInheritance</title>
<path fill="none" stroke="#6666ff" d="M-91.7596,-222.849C-69.0928,-268.599 -9.64857,-388.58 17.0777,-442.523"/>
<polygon fill="#6666ff" stroke="#6666ff" points="13.9472,-444.088 21.5229,-451.495 20.2195,-440.981 13.9472,-444.088"/>
</g>
<!-- Metamodel::NativeHOW&#45;&gt;Metamodel::MROBasedMethodDispatch -->
<g id="edge57" class="edge"><title>Metamodel::NativeHOW&#45;&gt;Metamodel::MROBasedMethodDispatch</title>
<path fill="none" stroke="#6666ff" d="M-98.8911,-186.481C-93.6873,-136.384 -79.515,0.0509251 -79.515,0.0509251 -79.515,0.0509251 -345.356,281.71 -345.356,281.71 -345.356,281.71 -415.248,401.043 -447.411,455.957"/>
<polygon fill="#6666ff" stroke="#6666ff" points="-444.519,457.945 -452.593,464.805 -450.559,454.407 -444.519,457.945"/>
</g>
<!-- Metamodel::NativeHOW&#45;&gt;Metamodel::MROBasedTypeChecking -->
<g id="edge58" class="edge"><title>Metamodel::NativeHOW&#45;&gt;Metamodel::MROBasedTypeChecking</title>
<path fill="none" stroke="#6666ff" d="M-168.47,-190.574C-206.865,-182.593 -247.314,-174.184 -247.314,-174.184 -247.314,-174.184 -390.439,-151.502 -493.538,-135.164"/>
<polygon fill="#6666ff" stroke="#6666ff" points="-493.273,-131.662 -503.697,-133.554 -494.368,-138.576 -493.273,-131.662"/>
</g>
<!-- Metamodel::NativeHOW&#45;&gt;Metamodel::C3MRO -->
<g id="edge56" class="edge"><title>Metamodel::NativeHOW&#45;&gt;Metamodel::C3MRO</title>
<path fill="none" stroke="#6666ff" d="M-110.131,-222.842C-132.23,-265.833 -187.775,-373.889 -213.936,-424.783"/>
<polygon fill="#6666ff" stroke="#6666ff" points="-217.153,-423.384 -218.611,-433.878 -210.927,-426.584 -217.153,-423.384"/>
</g>
<!-- Metamodel::MethodDelegation -->
<g id="node29" class="node"><title>Metamodel::MethodDelegation</title>
<g id="a_node29"><a xlink:href="/type/Metamodel::MethodDelegation" xlink:title="Metamodel::MethodDelegation">
<ellipse fill="none" stroke="#6666ff" cx="959.331" cy="425.863" rx="131.077" ry="18"/>
<text text-anchor="middle" x="959.331" y="429.563" font-family="FreeSans" font-size="14.00" fill="#6666ff">Metamodel::MethodDelegation</text>
</a>
</g>
</g>
<!-- Metamodel::ModuleHOW -->
<g id="node30" class="node"><title>Metamodel::ModuleHOW</title>
<g id="a_node30"><a xlink:href="/type/Metamodel::ModuleHOW" xlink:title="Metamodel::ModuleHOW">
<ellipse fill="none" stroke="#000000" cx="981.96" cy="19.2628" rx="111.28" ry="18"/>
<text text-anchor="middle" x="981.96" y="22.9628" font-family="FreeSans" font-size="14.00" fill="#000000">Metamodel::ModuleHOW</text>
</a>
</g>
</g>
<!-- Metamodel::ModuleHOW&#45;&gt;Metamodel::Stashing -->
<g id="edge62" class="edge"><title>Metamodel::ModuleHOW&#45;&gt;Metamodel::Stashing</title>
<path fill="none" stroke="#6666ff" d="M889.595,29.308C736.402,45.9686 431.53,79.1254 278.723,95.744"/>
<polygon fill="#6666ff" stroke="#6666ff" points="278.754,99.2612 268.434,96.863 277.997,92.3022 278.754,99.2612"/>
</g>
<!-- Metamodel::ModuleHOW&#45;&gt;Any -->
<g id="edge6" class="edge"><title>Metamodel::ModuleHOW&#45;&gt;Any</title>
<path fill="none" stroke="#000000" d="M934.185,35.6593C824.093,73.4432 561.919,163.422 561.919,163.422 561.919,163.422 528.067,177.328 528.067,177.328 528.067,177.328 431.942,229.248 381.441,256.526"/>
<polygon fill="#000000" stroke="#000000" points="383.038,259.641 372.576,261.314 379.711,253.482 383.038,259.641"/>
</g>
<!-- Metamodel::ModuleHOW&#45;&gt;Metamodel::Naming -->
<g id="edge59" class="edge"><title>Metamodel::ModuleHOW&#45;&gt;Metamodel::Naming</title>
<path fill="none" stroke="#6666ff" d="M871.143,21.1091C764.974,22.8779 606.18,25.5235 503.749,27.2301"/>
<polygon fill="#6666ff" stroke="#6666ff" points="503.764,30.7302 493.707,27.3974 503.648,23.7312 503.764,30.7302"/>
</g>
<!-- Metamodel::ModuleHOW&#45;&gt;Metamodel::Documenting -->
<g id="edge60" class="edge"><title>Metamodel::ModuleHOW&#45;&gt;Metamodel::Documenting</title>
<path fill="none" stroke="#6666ff" d="M928.696,3.41282C797.759,-35.5512 470.733,-132.866 470.733,-132.866 470.733,-132.866 426.602,-152.126 389.929,-168.131"/>
<polygon fill="#6666ff" stroke="#6666ff" points="388.078,-165.12 380.312,-172.328 390.878,-171.536 388.078,-165.12"/>
</g>
<!-- Metamodel::ModuleHOW&#45;&gt;Metamodel::Versioning -->
<g id="edge61" class="edge"><title>Metamodel::ModuleHOW&#45;&gt;Metamodel::Versioning</title>
<path fill="none" stroke="#6666ff" d="M961.664,1.49958C915.776,-38.6628 808.002,-132.989 808.002,-132.989 808.002,-132.989 452.05,-359.38 336.405,-432.932"/>
<polygon fill="#6666ff" stroke="#6666ff" points="334.426,-430.043 327.866,-438.363 338.183,-435.95 334.426,-430.043"/>
</g>
<!-- Metamodel::ModuleHOW&#45;&gt;Metamodel::TypePretense -->
<g id="edge63" class="edge"><title>Metamodel::ModuleHOW&#45;&gt;Metamodel::TypePretense</title>
<path fill="none" stroke="#6666ff" d="M981.192,1.05857C978.478,-63.2364 969.331,-279.965 966.042,-357.883"/>
<polygon fill="#6666ff" stroke="#6666ff" points="962.543,-357.787 965.618,-367.926 969.537,-358.082 962.543,-357.787"/>
</g>
<!-- Metamodel::ModuleHOW&#45;&gt;Metamodel::MethodDelegation -->
<g id="edge64" class="edge"><title>Metamodel::ModuleHOW&#45;&gt;Metamodel::MethodDelegation</title>
<path fill="none" stroke="#6666ff" d="M980.944,37.5234C977.354,102.018 965.255,319.419 960.905,397.579"/>
<polygon fill="#6666ff" stroke="#6666ff" points="964.394,397.863 960.344,407.653 957.405,397.474 964.394,397.863"/>
</g>
<!-- Metamodel::PackageHOW -->
<g id="node31" class="node"><title>Metamodel::PackageHOW</title>
<g id="a_node31"><a xlink:href="/type/Metamodel::PackageHOW" xlink:title="Metamodel::PackageHOW">
<ellipse fill="none" stroke="#000000" cx="646.002" cy="177.166" rx="116.18" ry="18"/>
<text text-anchor="middle" x="646.002" y="180.866" font-family="FreeSans" font-size="14.00" fill="#000000">Metamodel::PackageHOW</text>
</a>
</g>
</g>
<!-- Metamodel::PackageHOW&#45;&gt;Metamodel::Stashing -->
<g id="edge67" class="edge"><title>Metamodel::PackageHOW&#45;&gt;Metamodel::Stashing</title>
<path fill="none" stroke="#6666ff" d="M563.932,164.394C480.912,151.474 353.259,131.608 269.916,118.639"/>
<polygon fill="#6666ff" stroke="#6666ff" points="269.321,122.088 259.978,117.092 270.398,115.171 269.321,122.088"/>
</g>
<!-- Metamodel::PackageHOW&#45;&gt;Any -->
<g id="edge7" class="edge"><title>Metamodel::PackageHOW&#45;&gt;Any</title>
<path fill="none" stroke="#000000" d="M595.667,193.503C535.703,212.966 437.157,244.951 385.413,261.745"/>
<polygon fill="#000000" stroke="#000000" points="386.306,265.135 375.714,264.894 384.145,258.477 386.306,265.135"/>
</g>
<!-- Metamodel::PackageHOW&#45;&gt;Metamodel::Naming -->
<g id="edge65" class="edge"><title>Metamodel::PackageHOW&#45;&gt;Metamodel::Naming</title>
<path fill="none" stroke="#6666ff" d="M617.251,159.575C573.226,132.64 489.125,81.1846 440.627,51.512"/>
<polygon fill="#6666ff" stroke="#6666ff" points="438.706,54.4403 432.003,46.2358 442.36,48.4693 438.706,54.4403"/>
</g>
<!-- Metamodel::PackageHOW&#45;&gt;Metamodel::Documenting -->
<g id="edge66" class="edge"><title>Metamodel::PackageHOW&#45;&gt;Metamodel::Documenting</title>
<path fill="none" stroke="#6666ff" d="M631.112,159.245C581.439,99.4624 421.269,-93.3046 363.003,-163.43"/>
<polygon fill="#6666ff" stroke="#6666ff" points="360.115,-161.428 356.416,-171.356 365.499,-165.902 360.115,-161.428"/>
</g>
<!-- Metamodel::PackageHOW&#45;&gt;Metamodel::TypePretense -->
<g id="edge68" class="edge"><title>Metamodel::PackageHOW&#45;&gt;Metamodel::TypePretense</title>
<path fill="none" stroke="#6666ff" d="M656.25,159.064C702.77,76.8867 894.203,-261.278 949.705,-359.323"/>
<polygon fill="#6666ff" stroke="#6666ff" points="946.67,-361.067 954.643,-368.045 952.762,-357.618 946.67,-361.067"/>
</g>
<!-- Metamodel::PackageHOW&#45;&gt;Metamodel::MethodDelegation -->
<g id="edge69" class="edge"><title>Metamodel::PackageHOW&#45;&gt;Metamodel::MethodDelegation</title>
<path fill="none" stroke="#6666ff" d="M668.536,195.052C723.729,238.86 865.745,351.581 928.606,401.477"/>
<polygon fill="#6666ff" stroke="#6666ff" points="930.923,398.847 936.58,407.805 926.571,404.33 930.923,398.847"/>
</g>
<!-- Metamodel::ParametricRoleGroupHOW -->
<g id="node32" class="node"><title>Metamodel::ParametricRoleGroupHOW</title>
<g id="a_node32"><a xlink:href="/type/Metamodel::ParametricRoleGroupHOW" xlink:title="Metamodel::ParametricRoleGroupHOW">
<ellipse fill="none" stroke="#000000" cx="639.367" cy="-132.928" rx="167.07" ry="18"/>
<text text-anchor="middle" x="639.367" y="-129.228" font-family="FreeSans" font-size="14.00" fill="#000000">Metamodel::ParametricRoleGroupHOW</text>
</a>
</g>
</g>
<!-- Metamodel::ParametricRoleGroupHOW&#45;&gt;Metamodel::Stashing -->
<g id="edge71" class="edge"><title>Metamodel::ParametricRoleGroupHOW&#45;&gt;Metamodel::Stashing</title>
<path fill="none" stroke="#6666ff" d="M603.338,-115.215C523.397,-75.9138 338.195,15.1363 338.195,15.1363 338.195,15.1363 311.725,29.0357 311.725,29.0357 311.725,29.0357 260.31,60.6347 223.486,83.2659"/>
<polygon fill="#6666ff" stroke="#6666ff" points="225.297,86.2608 214.945,88.5151 221.632,80.2971 225.297,86.2608"/>
</g>
<!-- Metamodel::ParametricRoleGroupHOW&#45;&gt;Any -->
<g id="edge8" class="edge"><title>Metamodel::ParametricRoleGroupHOW&#45;&gt;Any</title>
<path fill="none" stroke="#000000" d="M626.616,-114.969C580.464,-49.9733 422.067,173.099 368.848,248.048"/>
<polygon fill="#000000" stroke="#000000" points="371.537,250.306 362.894,256.433 365.83,246.253 371.537,250.306"/>
</g>
<!-- Metamodel::ParametricRoleGroupHOW&#45;&gt;Metamodel::Naming -->
<g id="edge70" class="edge"><title>Metamodel::ParametricRoleGroupHOW&#45;&gt;Metamodel::Naming</title>
<path fill="none" stroke="#6666ff" d="M613.243,-114.991C570.365,-85.5527 485.092,-27.0077 437.599,5.59903"/>
<polygon fill="#6666ff" stroke="#6666ff" points="439.415,8.59804 429.19,11.3727 435.453,2.82721 439.415,8.59804"/>
</g>
<!-- Metamodel::ParametricRoleGroupHOW&#45;&gt;Metamodel::TypePretense -->
<g id="edge72" class="edge"><title>Metamodel::ParametricRoleGroupHOW&#45;&gt;Metamodel::TypePretense</title>
<path fill="none" stroke="#6666ff" d="M662.515,-150.931C719.919,-195.578 868.872,-311.43 933.816,-361.941"/>
<polygon fill="#6666ff" stroke="#6666ff" points="931.998,-364.961 942.04,-368.337 936.295,-359.435 931.998,-364.961"/>
</g>
<!-- Metamodel::ParametricRoleGroupHOW&#45;&gt;Metamodel::RolePunning -->
<g id="edge73" class="edge"><title>Metamodel::ParametricRoleGroupHOW&#45;&gt;Metamodel::RolePunning</title>
<path fill="none" stroke="#6666ff" d="M636.37,-151.058C627.926,-202.134 603.896,-347.491 593.703,-409.143"/>
<polygon fill="#6666ff" stroke="#6666ff" points="590.202,-408.867 592.024,-419.304 597.108,-410.009 590.202,-408.867"/>
</g>
<!-- Metamodel::ParametricRoleGroupHOW&#45;&gt;Metamodel::BoolificationProtocol -->
<g id="edge74" class="edge"><title>Metamodel::ParametricRoleGroupHOW&#45;&gt;Metamodel::BoolificationProtocol</title>
<path fill="none" stroke="#6666ff" d="M586.147,-150.03C521.41,-170.833 420.666,-203.207 420.666,-203.207 420.666,-203.207 300.122,-223.035 210.169,-237.831"/>
<polygon fill="#6666ff" stroke="#6666ff" points="209.489,-234.395 200.19,-239.472 210.625,-241.302 209.489,-234.395"/>
</g>
</g>
</svg>
