<?xml version="1.0" encoding="UTF-8" standalone="no"?>
<!DOCTYPE svg PUBLIC "-//W3C//DTD SVG 1.1//EN"
 "http://www.w3.org/Graphics/SVG/1.1/DTD/svg11.dtd">
<!-- Generated by graphviz version 2.38.0 (20140413.2041)
 -->
<!-- Title: perl6&#45;type&#45;graph Pages: 1 -->
<svg width="2123pt" height="1229pt"
 viewBox="0.00 0.00 2123.46 1228.83" xmlns="http://www.w3.org/2000/svg" xmlns:xlink="http://www.w3.org/1999/xlink">
<g id="graph0" class="graph" transform="scale(1 1) rotate(0) translate(1058.73 579.887)">
<title>perl6&#45;type&#45;graph</title>
<polygon fill="white" stroke="none" points="-1058.73,648.94 -1058.73,-579.887 1064.73,-579.887 1064.73,648.94 -1058.73,648.94"/>
<!-- Metamodel::Documenting -->
<g id="node1" class="node"><title>Metamodel::Documenting</title>
<g id="a_node1"><a xlink:href="/type/Metamodel::Documenting" xlink:title="Metamodel::Documenting">
<ellipse fill="none" stroke="#6666ff" cx="14.4693" cy="321.805" rx="111.28" ry="18"/>
<text text-anchor="middle" x="14.4693" y="325.505" font-family="FreeSans" font-size="14.00" fill="#6666ff">Metamodel::Documenting</text>
</a>
</g>
</g>
<!-- Mu -->
<g id="node2" class="node"><title>Mu</title>
<g id="a_node2"><a xlink:href="/type/Mu" xlink:title="Mu">
<ellipse fill="none" stroke="#000000" cx="927.859" cy="543.295" rx="27" ry="18"/>
<text text-anchor="middle" x="927.859" y="546.995" font-family="FreeSans" font-size="14.00" fill="#000000">Mu</text>
</a>
</g>
</g>
<!-- Any -->
<g id="node3" class="node"><title>Any</title>
<g id="a_node3"><a xlink:href="/type/Any" xlink:title="Any">
<ellipse fill="none" stroke="#000000" cx="313.685" cy="320.864" rx="27" ry="18"/>
<text text-anchor="middle" x="313.685" y="324.564" font-family="FreeSans" font-size="14.00" fill="#000000">Any</text>
</a>
</g>
</g>
<!-- Any&#45;&gt;Mu -->
<g id="edge1" class="edge"><title>Any&#45;&gt;Mu</title>
<path fill="none" stroke="#000000" d="M337.761,329.584C433.036,364.089 783.854,491.142 894.321,531.149"/>
<polygon fill="#000000" stroke="#000000" points="895.738,527.94 903.949,534.636 893.354,534.522 895.738,527.94"/>
</g>
<!-- Metamodel::Naming -->
<g id="node4" class="node"><title>Metamodel::Naming</title>
<g id="a_node4"><a xlink:href="/type/Metamodel::Naming" xlink:title="Metamodel::Naming">
<ellipse fill="none" stroke="#6666ff" cx="142.902" cy="39.8958" rx="90.1842" ry="18"/>
<text text-anchor="middle" x="142.902" y="43.5958" font-family="FreeSans" font-size="14.00" fill="#6666ff">Metamodel::Naming</text>
</a>
</g>
</g>
<!-- Metamodel::Versioning -->
<g id="node5" class="node"><title>Metamodel::Versioning</title>
<g id="a_node5"><a xlink:href="/type/Metamodel::Versioning" xlink:title="Metamodel::Versioning">
<ellipse fill="none" stroke="#6666ff" cx="-115.996" cy="45.0744" rx="100.983" ry="18"/>
<text text-anchor="middle" x="-115.996" y="48.7744" font-family="FreeSans" font-size="14.00" fill="#6666ff">Metamodel::Versioning</text>
</a>
</g>
</g>
<!-- Metamodel::MethodContainer -->
<g id="node6" class="node"><title>Metamodel::MethodContainer</title>
<g id="a_node6"><a xlink:href="/type/Metamodel::MethodContainer" xlink:title="Metamodel::MethodContainer">
<ellipse fill="none" stroke="#6666ff" cx="290.369" cy="-557.887" rx="127.277" ry="18"/>
<text text-anchor="middle" x="290.369" y="-554.187" font-family="FreeSans" font-size="14.00" fill="#6666ff">Metamodel::MethodContainer</text>
</a>
</g>
</g>
<!-- Metamodel::PrivateMethodContainer -->
<g id="node7" class="node"><title>Metamodel::PrivateMethodContainer</title>
<g id="a_node7"><a xlink:href="/type/Metamodel::PrivateMethodContainer" xlink:title="Metamodel::PrivateMethodContainer">
<ellipse fill="none" stroke="#6666ff" cx="-1.90729" cy="-230.433" rx="154.873" ry="18"/>
<text text-anchor="middle" x="-1.90729" y="-226.733" font-family="FreeSans" font-size="14.00" fill="#6666ff">Metamodel::PrivateMethodContainer</text>
</a>
</g>
</g>
<!-- Metamodel::MultiMethodContainer -->
<g id="node8" class="node"><title>Metamodel::MultiMethodContainer</title>
<g id="a_node8"><a xlink:href="/type/Metamodel::MultiMethodContainer" xlink:title="Metamodel::MultiMethodContainer">
<ellipse fill="none" stroke="#6666ff" cx="586.529" cy="-536.05" rx="146.474" ry="18"/>
<text text-anchor="middle" x="586.529" y="-532.35" font-family="FreeSans" font-size="14.00" fill="#6666ff">Metamodel::MultiMethodContainer</text>
</a>
</g>
</g>
<!-- Metamodel::AttributeContainer -->
<g id="node9" class="node"><title>Metamodel::AttributeContainer</title>
<g id="a_node9"><a xlink:href="/type/Metamodel::AttributeContainer" xlink:title="Metamodel::AttributeContainer">
<ellipse fill="none" stroke="#6666ff" cx="304.728" cy="-243.987" rx="129.977" ry="18"/>
<text text-anchor="middle" x="304.728" y="-240.287" font-family="FreeSans" font-size="14.00" fill="#6666ff">Metamodel::AttributeContainer</text>
</a>
</g>
</g>
<!-- Metamodel::RoleContainer -->
<g id="node10" class="node"><title>Metamodel::RoleContainer</title>
<g id="a_node10"><a xlink:href="/type/Metamodel::RoleContainer" xlink:title="Metamodel::RoleContainer">
<ellipse fill="none" stroke="#6666ff" cx="641.997" cy="-167.615" rx="115.88" ry="18"/>
<text text-anchor="middle" x="641.997" y="-163.915" font-family="FreeSans" font-size="14.00" fill="#6666ff">Metamodel::RoleContainer</text>
</a>
</g>
</g>
<!-- Metamodel::MultipleInheritance -->
<g id="node11" class="node"><title>Metamodel::MultipleInheritance</title>
<g id="a_node11"><a xlink:href="/type/Metamodel::MultipleInheritance" xlink:title="Metamodel::MultipleInheritance">
<ellipse fill="none" stroke="#6666ff" cx="-376.304" cy="49.8306" rx="133.776" ry="18"/>
<text text-anchor="middle" x="-376.304" y="53.5306" font-family="FreeSans" font-size="14.00" fill="#6666ff">Metamodel::MultipleInheritance</text>
</a>
</g>
</g>
<!-- Metamodel::Stashing -->
<g id="node12" class="node"><title>Metamodel::Stashing</title>
<g id="a_node12"><a xlink:href="/type/Metamodel::Stashing" xlink:title="Metamodel::Stashing">
<ellipse fill="none" stroke="#6666ff" cx="-281.871" cy="328.416" rx="93.6835" ry="18"/>
<text text-anchor="middle" x="-281.871" y="332.116" font-family="FreeSans" font-size="14.00" fill="#6666ff">Metamodel::Stashing</text>
</a>
</g>
</g>
<!-- Metamodel::TypePretense -->
<g id="node13" class="node"><title>Metamodel::TypePretense</title>
<g id="a_node13"><a xlink:href="/type/Metamodel::TypePretense" xlink:title="Metamodel::TypePretense">
<ellipse fill="none" stroke="#6666ff" cx="641.876" cy="246.384" rx="114.28" ry="18"/>
<text text-anchor="middle" x="641.876" y="250.084" font-family="FreeSans" font-size="14.00" fill="#6666ff">Metamodel::TypePretense</text>
</a>
</g>
</g>
<!-- Metamodel::RolePunning -->
<g id="node14" class="node"><title>Metamodel::RolePunning</title>
<g id="a_node14"><a xlink:href="/type/Metamodel::RolePunning" xlink:title="Metamodel::RolePunning">
<ellipse fill="none" stroke="#6666ff" cx="942.802" cy="-464.457" rx="109.681" ry="18"/>
<text text-anchor="middle" x="942.802" y="-460.757" font-family="FreeSans" font-size="14.00" fill="#6666ff">Metamodel::RolePunning</text>
</a>
</g>
</g>
<!-- Metamodel::ParametricRoleHOW -->
<g id="node15" class="node"><title>Metamodel::ParametricRoleHOW</title>
<g id="a_node15"><a xlink:href="/type/Metamodel::ParametricRoleHOW" xlink:title="Metamodel::ParametricRoleHOW">
<ellipse fill="none" stroke="#000000" cx="413.96" cy="36.386" rx="142.175" ry="18"/>
<text text-anchor="middle" x="413.96" y="40.086" font-family="FreeSans" font-size="14.00" fill="#000000">Metamodel::ParametricRoleHOW</text>
</a>
</g>
</g>
<!-- Metamodel::ParametricRoleHOW&#45;&gt;Metamodel::Documenting -->
<g id="edge9" class="edge"><title>Metamodel::ParametricRoleHOW&#45;&gt;Metamodel::Documenting</title>
<path fill="none" stroke="#6666ff" d="M388.97,54.2402C319.807,103.654 125.828,242.244 47.6975,298.064"/>
<polygon fill="#6666ff" stroke="#6666ff" points="49.3656,301.174 39.1942,304.14 45.2962,295.479 49.3656,301.174"/>
</g>
<!-- Metamodel::ParametricRoleHOW&#45;&gt;Any -->
<g id="edge2" class="edge"><title>Metamodel::ParametricRoleHOW&#45;&gt;Any</title>
<path fill="none" stroke="#000000" d="M407.535,54.6142C390.408,103.202 343.587,236.033 323.286,293.627"/>
<polygon fill="#000000" stroke="#000000" points="326.553,294.885 319.928,303.153 319.952,292.558 326.553,294.885"/>
</g>
<!-- Metamodel::ParametricRoleHOW&#45;&gt;Metamodel::Naming -->
<g id="edge8" class="edge"><title>Metamodel::ParametricRoleHOW&#45;&gt;Metamodel::Naming</title>
<path fill="none" stroke="#6666ff" d="M272.08,38.2231C262.391,38.3486 252.746,38.4735 243.342,38.5953"/>
<polygon fill="#6666ff" stroke="#6666ff" points="243.287,42.0962 233.243,38.726 243.196,35.0968 243.287,42.0962"/>
</g>
<!-- Metamodel::ParametricRoleHOW&#45;&gt;Metamodel::Versioning -->
<g id="edge10" class="edge"><title>Metamodel::ParametricRoleHOW&#45;&gt;Metamodel::Versioning</title>
<path fill="none" stroke="#6666ff" d="M295.669,46.4886C222.858,52.707 143.37,59.4956 143.37,59.4956 143.37,59.4956 61.8734,54.9642 -9.75427,50.9816"/>
<polygon fill="#6666ff" stroke="#6666ff" points="-9.996,54.4736 -19.7862,50.4238 -9.60733,47.4844 -9.996,54.4736"/>
</g>
<!-- Metamodel::ParametricRoleHOW&#45;&gt;Metamodel::MethodContainer -->
<g id="edge11" class="edge"><title>Metamodel::ParametricRoleHOW&#45;&gt;Metamodel::MethodContainer</title>
<path fill="none" stroke="#6666ff" d="M415.427,17.9802C420.4,-44.4284 436.313,-244.136 436.313,-244.136 436.313,-244.136 338.935,-453.48 303.264,-530.166"/>
<polygon fill="#6666ff" stroke="#6666ff" points="299.891,-529.119 298.847,-539.662 306.238,-532.071 299.891,-529.119"/>
</g>
<!-- Metamodel::ParametricRoleHOW&#45;&gt;Metamodel::PrivateMethodContainer -->
<g id="edge12" class="edge"><title>Metamodel::ParametricRoleHOW&#45;&gt;Metamodel::PrivateMethodContainer</title>
<path fill="none" stroke="#6666ff" d="M386.352,18.6726C313.538,-28.0443 116.28,-154.604 34.4388,-207.113"/>
<polygon fill="#6666ff" stroke="#6666ff" points="32.4905,-204.205 25.9639,-212.551 36.2705,-210.097 32.4905,-204.205"/>
</g>
<!-- Metamodel::ParametricRoleHOW&#45;&gt;Metamodel::MultiMethodContainer -->
<g id="edge13" class="edge"><title>Metamodel::ParametricRoleHOW&#45;&gt;Metamodel::MultiMethodContainer</title>
<path fill="none" stroke="#6666ff" d="M419.41,18.3087C444.365,-64.4719 547.816,-407.634 578.14,-508.223"/>
<polygon fill="#6666ff" stroke="#6666ff" points="574.84,-509.404 581.078,-517.968 581.542,-507.384 574.84,-509.404"/>
</g>
<!-- Metamodel::ParametricRoleHOW&#45;&gt;Metamodel::AttributeContainer -->
<g id="edge14" class="edge"><title>Metamodel::ParametricRoleHOW&#45;&gt;Metamodel::AttributeContainer</title>
<path fill="none" stroke="#6666ff" d="M406.793,17.99C388.077,-30.0494 337.65,-159.485 315.458,-216.445"/>
<polygon fill="#6666ff" stroke="#6666ff" points="312.149,-215.299 311.78,-225.888 318.671,-217.84 312.149,-215.299"/>
</g>
<!-- Metamodel::ParametricRoleHOW&#45;&gt;Metamodel::RoleContainer -->
<g id="edge15" class="edge"><title>Metamodel::ParametricRoleHOW&#45;&gt;Metamodel::RoleContainer</title>
<path fill="none" stroke="#6666ff" d="M434.197,18.2823C475.207,-18.4054 568.154,-101.555 614.563,-143.072"/>
<polygon fill="#6666ff" stroke="#6666ff" points="612.345,-145.784 622.132,-149.843 617.012,-140.567 612.345,-145.784"/>
</g>
<!-- Metamodel::ParametricRoleHOW&#45;&gt;Metamodel::MultipleInheritance -->
<g id="edge16" class="edge"><title>Metamodel::ParametricRoleHOW&#45;&gt;Metamodel::MultipleInheritance</title>
<path fill="none" stroke="#6666ff" d="M295.669,46.4886C222.858,52.707 143.37,59.4956 143.37,59.4956 143.37,59.4956 -115.788,64.6743 -115.788,64.6743 -115.788,64.6743 -178.669,61.0915 -242.645,57.4463"/>
<polygon fill="#6666ff" stroke="#6666ff" points="-243.128,60.9245 -252.912,56.8612 -242.729,53.9359 -243.128,60.9245"/>
</g>
<!-- Metamodel::ParametricRoleHOW&#45;&gt;Metamodel::Stashing -->
<g id="edge17" class="edge"><title>Metamodel::ParametricRoleHOW&#45;&gt;Metamodel::Stashing</title>
<path fill="none" stroke="#6666ff" d="M372.774,53.6713C251.582,104.534 -103.418,253.522 -233.435,308.088"/>
<polygon fill="#6666ff" stroke="#6666ff" points="-232.191,311.362 -242.766,312.005 -234.9,304.907 -232.191,311.362"/>
</g>
<!-- Metamodel::ParametricRoleHOW&#45;&gt;Metamodel::TypePretense -->
<g id="edge18" class="edge"><title>Metamodel::ParametricRoleHOW&#45;&gt;Metamodel::TypePretense</title>
<path fill="none" stroke="#6666ff" d="M433.392,54.2903C474.097,91.7952 568.39,178.675 614.918,221.545"/>
<polygon fill="#6666ff" stroke="#6666ff" points="617.511,219.175 622.493,228.525 612.767,224.323 617.511,219.175"/>
</g>
<!-- Metamodel::ParametricRoleHOW&#45;&gt;Metamodel::RolePunning -->
<g id="edge19" class="edge"><title>Metamodel::ParametricRoleHOW&#45;&gt;Metamodel::RolePunning</title>
<path fill="none" stroke="#6666ff" d="M423.789,18.294C450.893,-31.6005 524.71,-167.483 524.71,-167.483 524.71,-167.483 810.389,-370.403 909.454,-440.769"/>
<polygon fill="#6666ff" stroke="#6666ff" points="907.721,-443.831 917.901,-446.769 911.775,-438.125 907.721,-443.831"/>
</g>
<!-- Metamodel::MethodDelegation -->
<g id="node16" class="node"><title>Metamodel::MethodDelegation</title>
<g id="a_node16"><a xlink:href="/type/Metamodel::MethodDelegation" xlink:title="Metamodel::MethodDelegation">
<ellipse fill="none" stroke="#6666ff" cx="530.388" cy="611.701" rx="131.077" ry="18"/>
<text text-anchor="middle" x="530.388" y="615.401" font-family="FreeSans" font-size="14.00" fill="#6666ff">Metamodel::MethodDelegation</text>
</a>
</g>
</g>
<!-- Metamodel::ModuleHOW -->
<g id="node17" class="node"><title>Metamodel::ModuleHOW</title>
<g id="a_node17"><a xlink:href="/type/Metamodel::ModuleHOW" xlink:title="Metamodel::ModuleHOW">
<ellipse fill="none" stroke="#000000" cx="177.967" cy="624.896" rx="111.28" ry="18"/>
<text text-anchor="middle" x="177.967" y="628.596" font-family="FreeSans" font-size="14.00" fill="#000000">Metamodel::ModuleHOW</text>
</a>
</g>
</g>
<!-- Metamodel::ModuleHOW&#45;&gt;Metamodel::Documenting -->
<g id="edge21" class="edge"><title>Metamodel::ModuleHOW&#45;&gt;Metamodel::Documenting</title>
<path fill="none" stroke="#6666ff" d="M168.229,606.843C140.626,555.673 61.7548,409.462 29.0019,348.745"/>
<polygon fill="#6666ff" stroke="#6666ff" points="25.8235,350.225 24.1562,339.762 31.9843,346.901 25.8235,350.225"/>
</g>
<!-- Metamodel::ModuleHOW&#45;&gt;Any -->
<g id="edge3" class="edge"><title>Metamodel::ModuleHOW&#45;&gt;Any</title>
<path fill="none" stroke="#000000" d="M186.05,606.787C209.024,555.322 274.782,408.013 301.838,347.404"/>
<polygon fill="#000000" stroke="#000000" points="298.71,345.824 305.982,338.119 305.102,348.678 298.71,345.824"/>
</g>
<!-- Metamodel::ModuleHOW&#45;&gt;Metamodel::Naming -->
<g id="edge20" class="edge"><title>Metamodel::ModuleHOW&#45;&gt;Metamodel::Naming</title>
<path fill="none" stroke="#6666ff" d="M176.879,606.746C171.843,522.733 150.78,171.329 144.608,68.3632"/>
<polygon fill="#6666ff" stroke="#6666ff" points="141.099,68.3138 143.994,58.1223 148.086,67.8949 141.099,68.3138"/>
</g>
<!-- Metamodel::ModuleHOW&#45;&gt;Metamodel::Versioning -->
<g id="edge22" class="edge"><title>Metamodel::ModuleHOW&#45;&gt;Metamodel::Versioning</title>
<path fill="none" stroke="#6666ff" d="M174.944,606.837C164.016,541.564 127.208,321.699 127.208,321.699 127.208,321.699 -32.6701,139.851 -93.1708,71.0363"/>
<polygon fill="#6666ff" stroke="#6666ff" points="-96.0645,73.0456 -100.039,63.2244 -90.8074,68.4236 -96.0645,73.0456"/>
</g>
<!-- Metamodel::ModuleHOW&#45;&gt;Metamodel::Stashing -->
<g id="edge23" class="edge"><title>Metamodel::ModuleHOW&#45;&gt;Metamodel::Stashing</title>
<path fill="none" stroke="#6666ff" d="M150.579,607.237C71.4145,556.196 -157.687,408.484 -246.295,351.354"/>
<polygon fill="#6666ff" stroke="#6666ff" points="-248.408,354.156 -254.916,345.796 -244.615,348.273 -248.408,354.156"/>
</g>
<!-- Metamodel::ModuleHOW&#45;&gt;Metamodel::TypePretense -->
<g id="edge24" class="edge"><title>Metamodel::ModuleHOW&#45;&gt;Metamodel::TypePretense</title>
<path fill="none" stroke="#6666ff" d="M199.72,607.147C275.208,545.555 525.962,340.96 612.336,270.487"/>
<polygon fill="#6666ff" stroke="#6666ff" points="610.209,267.704 620.17,264.094 614.635,273.128 610.209,267.704"/>
</g>
<!-- Metamodel::ModuleHOW&#45;&gt;Metamodel::MethodDelegation -->
<g id="edge25" class="edge"><title>Metamodel::ModuleHOW&#45;&gt;Metamodel::MethodDelegation</title>
<path fill="none" stroke="#6666ff" d="M286.58,620.829C320.266,619.568 357.837,618.161 393.199,616.837"/>
<polygon fill="#6666ff" stroke="#6666ff" points="393.477,613.324 403.601,616.448 393.739,620.319 393.477,613.324"/>
</g>
<!-- Metamodel::PackageHOW -->
<g id="node18" class="node"><title>Metamodel::PackageHOW</title>
<g id="a_node18"><a xlink:href="/type/Metamodel::PackageHOW" xlink:title="Metamodel::PackageHOW">
<ellipse fill="none" stroke="#000000" cx="-156.975" cy="626.94" rx="116.18" ry="18"/>
<text text-anchor="middle" x="-156.975" y="630.64" font-family="FreeSans" font-size="14.00" fill="#000000">Metamodel::PackageHOW</text>
</a>
</g>
</g>
<!-- Metamodel::PackageHOW&#45;&gt;Metamodel::Documenting -->
<g id="edge27" class="edge"><title>Metamodel::PackageHOW&#45;&gt;Metamodel::Documenting</title>
<path fill="none" stroke="#6666ff" d="M-146.764,608.766C-117.819,557.251 -35.1144,410.053 -0.769637,348.927"/>
<polygon fill="#6666ff" stroke="#6666ff" points="-3.63817,346.887 4.31163,339.883 2.46453,350.316 -3.63817,346.887"/>
</g>
<!-- Metamodel::PackageHOW&#45;&gt;Any -->
<g id="edge4" class="edge"><title>Metamodel::PackageHOW&#45;&gt;Any</title>
<path fill="none" stroke="#000000" d="M-129.98,609.385C-47.3388,555.642 201.672,393.708 285.668,339.084"/>
<polygon fill="#000000" stroke="#000000" points="283.885,336.069 294.176,333.551 287.701,341.937 283.885,336.069"/>
</g>
<!-- Metamodel::PackageHOW&#45;&gt;Metamodel::Naming -->
<g id="edge26" class="edge"><title>Metamodel::PackageHOW&#45;&gt;Metamodel::Naming</title>
<path fill="none" stroke="#6666ff" d="M-153.479,608.772C-140.84,543.105 -98.2692,321.91 -98.2692,321.91 -98.2692,321.91 61.0071,135.66 120.682,65.8783"/>
<polygon fill="#6666ff" stroke="#6666ff" points="118.289,63.2913 127.449,57.9661 123.609,67.8408 118.289,63.2913"/>
</g>
<!-- Metamodel::PackageHOW&#45;&gt;Metamodel::Stashing -->
<g id="edge28" class="edge"><title>Metamodel::PackageHOW&#45;&gt;Metamodel::Stashing</title>
<path fill="none" stroke="#6666ff" d="M-164.6,608.715C-185.772,558.112 -245.37,415.662 -270.485,355.632"/>
<polygon fill="#6666ff" stroke="#6666ff" points="-273.716,356.979 -274.346,346.402 -267.258,354.277 -273.716,356.979"/>
</g>
<!-- Metamodel::PackageHOW&#45;&gt;Metamodel::TypePretense -->
<g id="edge29" class="edge"><title>Metamodel::PackageHOW&#45;&gt;Metamodel::TypePretense</title>
<path fill="none" stroke="#6666ff" d="M-120.837,609.724C9.05654,547.846 452.18,336.751 596.232,268.128"/>
<polygon fill="#6666ff" stroke="#6666ff" points="595.147,264.768 605.681,263.627 598.158,271.087 595.147,264.768"/>
</g>
<!-- Metamodel::PackageHOW&#45;&gt;Metamodel::MethodDelegation -->
<g id="edge30" class="edge"><title>Metamodel::PackageHOW&#45;&gt;Metamodel::MethodDelegation</title>
<path fill="none" stroke="#6666ff" d="M-49.2246,619.972C48.6253,613.645 177.747,605.296 177.747,605.296 177.747,605.296 291.666,607.365 390.007,609.151"/>
<polygon fill="#6666ff" stroke="#6666ff" points="390.145,605.653 400.079,609.334 390.017,612.652 390.145,605.653"/>
</g>
<!-- Metamodel::Finalization -->
<g id="node19" class="node"><title>Metamodel::Finalization</title>
<g id="a_node19"><a xlink:href="/type/Metamodel::Finalization" xlink:title="Metamodel::Finalization">
<ellipse fill="none" stroke="#6666ff" cx="-950.742" cy="-153.974" rx="103.982" ry="18"/>
<text text-anchor="middle" x="-950.742" y="-150.274" font-family="FreeSans" font-size="14.00" fill="#6666ff">Metamodel::Finalization</text>
</a>
</g>
</g>
<!-- Metamodel::DefaultParent -->
<g id="node20" class="node"><title>Metamodel::DefaultParent</title>
<g id="a_node20"><a xlink:href="/type/Metamodel::DefaultParent" xlink:title="Metamodel::DefaultParent">
<ellipse fill="none" stroke="#6666ff" cx="-925.049" cy="-525.401" rx="113.18" ry="18"/>
<text text-anchor="middle" x="-925.049" y="-521.701" font-family="FreeSans" font-size="14.00" fill="#6666ff">Metamodel::DefaultParent</text>
</a>
</g>
</g>
<!-- Metamodel::C3MRO -->
<g id="node21" class="node"><title>Metamodel::C3MRO</title>
<g id="a_node21"><a xlink:href="/type/Metamodel::C3MRO" xlink:title="Metamodel::C3MRO">
<ellipse fill="none" stroke="#6666ff" cx="-944.719" cy="194.132" rx="92.0841" ry="18"/>
<text text-anchor="middle" x="-944.719" y="197.832" font-family="FreeSans" font-size="14.00" fill="#6666ff">Metamodel::C3MRO</text>
</a>
</g>
</g>
<!-- Metamodel::MROBasedMethodDispatch -->
<g id="node22" class="node"><title>Metamodel::MROBasedMethodDispatch</title>
<g id="a_node22"><a xlink:href="/type/Metamodel::MROBasedMethodDispatch" xlink:title="Metamodel::MROBasedMethodDispatch">
<ellipse fill="none" stroke="#6666ff" cx="-598.312" cy="255.6" rx="169.77" ry="18"/>
<text text-anchor="middle" x="-598.312" y="259.3" font-family="FreeSans" font-size="14.00" fill="#6666ff">Metamodel::MROBasedMethodDispatch</text>
</a>
</g>
</g>
<!-- Metamodel::MROBasedTypeChecking -->
<g id="node23" class="node"><title>Metamodel::MROBasedTypeChecking</title>
<g id="a_node23"><a xlink:href="/type/Metamodel::MROBasedTypeChecking" xlink:title="Metamodel::MROBasedTypeChecking">
<ellipse fill="none" stroke="#6666ff" cx="-606.804" cy="-133.003" rx="163.271" ry="18"/>
<text text-anchor="middle" x="-606.804" y="-129.303" font-family="FreeSans" font-size="14.00" fill="#6666ff">Metamodel::MROBasedTypeChecking</text>
</a>
</g>
</g>
<!-- Metamodel::Trusting -->
<g id="node24" class="node"><title>Metamodel::Trusting</title>
<g id="a_node24"><a xlink:href="/type/Metamodel::Trusting" xlink:title="Metamodel::Trusting">
<ellipse fill="none" stroke="#6666ff" cx="-249.305" cy="-555.548" rx="91.784" ry="18"/>
<text text-anchor="middle" x="-249.305" y="-551.848" font-family="FreeSans" font-size="14.00" fill="#6666ff">Metamodel::Trusting</text>
</a>
</g>
</g>
<!-- Metamodel::BUILDPLAN -->
<g id="node25" class="node"><title>Metamodel::BUILDPLAN</title>
<g id="a_node25"><a xlink:href="/type/Metamodel::BUILDPLAN" xlink:title="Metamodel::BUILDPLAN">
<ellipse fill="none" stroke="#6666ff" cx="-551.486" cy="-518.445" rx="109.681" ry="18"/>
<text text-anchor="middle" x="-551.486" y="-514.745" font-family="FreeSans" font-size="14.00" fill="#6666ff">Metamodel::BUILDPLAN</text>
</a>
</g>
</g>
<!-- Metamodel::Mixins -->
<g id="node26" class="node"><title>Metamodel::Mixins</title>
<g id="a_node26"><a xlink:href="/type/Metamodel::Mixins" xlink:title="Metamodel::Mixins">
<ellipse fill="none" stroke="#6666ff" cx="-917.905" cy="584.273" rx="85.2851" ry="18"/>
<text text-anchor="middle" x="-917.905" y="587.973" font-family="FreeSans" font-size="14.00" fill="#6666ff">Metamodel::Mixins</text>
</a>
</g>
</g>
<!-- Metamodel::BoolificationProtocol -->
<g id="node27" class="node"><title>Metamodel::BoolificationProtocol</title>
<g id="a_node27"><a xlink:href="/type/Metamodel::BoolificationProtocol" xlink:title="Metamodel::BoolificationProtocol">
<ellipse fill="none" stroke="#6666ff" cx="23.941" cy="-542.15" rx="139.175" ry="18"/>
<text text-anchor="middle" x="23.941" y="-538.45" font-family="FreeSans" font-size="14.00" fill="#6666ff">Metamodel::BoolificationProtocol</text>
</a>
</g>
</g>
<!-- Metamodel::ClassHOW -->
<g id="node28" class="node"><title>Metamodel::ClassHOW</title>
<g id="a_node28"><a xlink:href="/type/Metamodel::ClassHOW" xlink:title="Metamodel::ClassHOW">
<ellipse fill="none" stroke="#000000" cx="-298.9" cy="-237.78" rx="103.982" ry="18"/>
<text text-anchor="middle" x="-298.9" y="-234.08" font-family="FreeSans" font-size="14.00" fill="#000000">Metamodel::ClassHOW</text>
</a>
</g>
</g>
<!-- Metamodel::ClassHOW&#45;&gt;Metamodel::Documenting -->
<g id="edge32" class="edge"><title>Metamodel::ClassHOW&#45;&gt;Metamodel::Documenting</title>
<path fill="none" stroke="#6666ff" d="M-293.737,-219.653C-275.956,-157.216 -218.337,45.1142 -218.337,45.1142 -218.337,45.1142 -65.2943,227.005 -7.38018,295.836"/>
<polygon fill="#6666ff" stroke="#6666ff" points="-4.56583,293.745 -0.805743,303.65 -9.92209,298.252 -4.56583,293.745"/>
</g>
<!-- Metamodel::ClassHOW&#45;&gt;Any -->
<g id="edge5" class="edge"><title>Metamodel::ClassHOW&#45;&gt;Any</title>
<path fill="none" stroke="#000000" d="M-279.212,-219.826C-188.281,-136.902 190.838,208.834 289.912,299.184"/>
<polygon fill="#000000" stroke="#000000" points="292.56,296.863 297.591,306.187 287.843,302.035 292.56,296.863"/>
</g>
<!-- Metamodel::ClassHOW&#45;&gt;Metamodel::Naming -->
<g id="edge31" class="edge"><title>Metamodel::ClassHOW&#45;&gt;Metamodel::Naming</title>
<path fill="none" stroke="#6666ff" d="M-271.263,-220.41C-194.542,-172.19 21.0561,-36.6852 106.939,17.2932"/>
<polygon fill="#6666ff" stroke="#6666ff" points="108.954,14.4255 115.558,22.7102 105.229,20.3521 108.954,14.4255"/>
</g>
<!-- Metamodel::ClassHOW&#45;&gt;Metamodel::Versioning -->
<g id="edge33" class="edge"><title>Metamodel::ClassHOW&#45;&gt;Metamodel::Versioning</title>
<path fill="none" stroke="#6666ff" d="M-287.18,-219.656C-255.821,-171.161 -169.886,-38.2641 -133.086,18.6447"/>
<polygon fill="#6666ff" stroke="#6666ff" points="-130.109,16.8033 -127.618,27.1012 -135.987,20.6044 -130.109,16.8033"/>
</g>
<!-- Metamodel::ClassHOW&#45;&gt;Metamodel::MethodContainer -->
<g id="edge37" class="edge"><title>Metamodel::ClassHOW&#45;&gt;Metamodel::MethodContainer</title>
<path fill="none" stroke="#6666ff" d="M-267.218,-254.99C-167.816,-308.988 137.891,-475.056 249.249,-535.549"/>
<polygon fill="#6666ff" stroke="#6666ff" points="247.713,-538.698 258.171,-540.396 251.054,-532.547 247.713,-538.698"/>
</g>
<!-- Metamodel::ClassHOW&#45;&gt;Metamodel::PrivateMethodContainer -->
<g id="edge38" class="edge"><title>Metamodel::ClassHOW&#45;&gt;Metamodel::PrivateMethodContainer</title>
<path fill="none" stroke="#6666ff" d="M-195.86,-235.231C-185.341,-234.971 -174.487,-234.702 -163.536,-234.431"/>
<polygon fill="#6666ff" stroke="#6666ff" points="-163.369,-237.928 -153.459,-234.182 -163.542,-230.931 -163.369,-237.928"/>
</g>
<!-- Metamodel::ClassHOW&#45;&gt;Metamodel::MultiMethodContainer -->
<g id="edge39" class="edge"><title>Metamodel::ClassHOW&#45;&gt;Metamodel::MultiMethodContainer</title>
<path fill="none" stroke="#6666ff" d="M-251.295,-253.816C-101.351,-304.327 361.01,-460.08 526.689,-515.892"/>
<polygon fill="#6666ff" stroke="#6666ff" points="525.638,-519.231 536.232,-519.107 527.872,-512.597 525.638,-519.231"/>
</g>
<!-- Metamodel::ClassHOW&#45;&gt;Metamodel::AttributeContainer -->
<g id="edge35" class="edge"><title>Metamodel::ClassHOW&#45;&gt;Metamodel::AttributeContainer</title>
<path fill="none" stroke="#6666ff" d="M-197.672,-241.962C-111.763,-245.512 -2.34625,-250.033 -2.34625,-250.033 -2.34625,-250.033 84.2368,-248.328 165.452,-246.729"/>
<polygon fill="#6666ff" stroke="#6666ff" points="165.907,-250.221 175.836,-246.525 165.769,-243.222 165.907,-250.221"/>
</g>
<!-- Metamodel::ClassHOW&#45;&gt;Metamodel::RoleContainer -->
<g id="edge40" class="edge"><title>Metamodel::ClassHOW&#45;&gt;Metamodel::RoleContainer</title>
<path fill="none" stroke="#6666ff" d="M-211.793,-227.873C-163.095,-222.334 -112.108,-216.535 -112.108,-216.535 -112.108,-216.535 313.08,-188.952 524.92,-175.21"/>
<polygon fill="#6666ff" stroke="#6666ff" points="525.401,-178.686 535.153,-174.546 524.947,-171.701 525.401,-178.686"/>
</g>
<!-- Metamodel::ClassHOW&#45;&gt;Metamodel::MultipleInheritance -->
<g id="edge41" class="edge"><title>Metamodel::ClassHOW&#45;&gt;Metamodel::MultipleInheritance</title>
<path fill="none" stroke="#6666ff" d="M-303.742,-219.789C-316.824,-171.179 -352.954,-36.9318 -368.748,21.7565"/>
<polygon fill="#6666ff" stroke="#6666ff" points="-365.385,22.7288 -371.364,31.4756 -372.145,20.9096 -365.385,22.7288"/>
</g>
<!-- Metamodel::ClassHOW&#45;&gt;Metamodel::Stashing -->
<g id="edge34" class="edge"><title>Metamodel::ClassHOW&#45;&gt;Metamodel::Stashing</title>
<path fill="none" stroke="#6666ff" d="M-295.178,-219.359C-282.359,-155.906 -240.818,49.7116 -240.818,49.7116 -240.818,49.7116 -267.26,229.222 -277.702,300.11"/>
<polygon fill="#6666ff" stroke="#6666ff" points="-274.258,300.747 -279.178,310.13 -281.183,299.726 -274.258,300.747"/>
</g>
<!-- Metamodel::ClassHOW&#45;&gt;Metamodel::Finalization -->
<g id="edge36" class="edge"><title>Metamodel::ClassHOW&#45;&gt;Metamodel::Finalization</title>
<path fill="none" stroke="#6666ff" d="M-382.45,-227.038C-504.2,-211.385 -729.687,-182.394 -856.965,-166.03"/>
<polygon fill="#6666ff" stroke="#6666ff" points="-856.72,-162.533 -867.085,-164.729 -857.613,-169.476 -856.72,-162.533"/>
</g>
<!-- Metamodel::ClassHOW&#45;&gt;Metamodel::DefaultParent -->
<g id="edge42" class="edge"><title>Metamodel::ClassHOW&#45;&gt;Metamodel::DefaultParent</title>
<path fill="none" stroke="#6666ff" d="M-335.73,-254.698C-443.694,-304.291 -759.281,-449.255 -878.615,-504.071"/>
<polygon fill="#6666ff" stroke="#6666ff" points="-880.244,-500.968 -887.87,-508.323 -877.322,-507.329 -880.244,-500.968"/>
</g>
<!-- Metamodel::ClassHOW&#45;&gt;Metamodel::C3MRO -->
<g id="edge43" class="edge"><title>Metamodel::ClassHOW&#45;&gt;Metamodel::C3MRO</title>
<path fill="none" stroke="#6666ff" d="M-322.863,-220.25C-363.62,-190.436 -442.069,-133.048 -442.069,-133.048 -442.069,-133.048 -795.479,96.9901 -909.626,171.289"/>
<polygon fill="#6666ff" stroke="#6666ff" points="-907.759,174.25 -918.049,176.772 -911.578,168.384 -907.759,174.25"/>
</g>
<!-- Metamodel::ClassHOW&#45;&gt;Metamodel::MROBasedMethodDispatch -->
<g id="edge44" class="edge"><title>Metamodel::ClassHOW&#45;&gt;Metamodel::MROBasedMethodDispatch</title>
<path fill="none" stroke="#6666ff" d="M-312.217,-219.781C-358.824,-156.79 -511.789,49.9496 -511.789,49.9496 -511.789,49.9496 -563.11,171.932 -586.701,228.004"/>
<polygon fill="#6666ff" stroke="#6666ff" points="-583.529,229.49 -590.633,237.35 -589.981,226.775 -583.529,229.49"/>
</g>
<!-- Metamodel::ClassHOW&#45;&gt;Metamodel::MROBasedTypeChecking -->
<g id="edge45" class="edge"><title>Metamodel::ClassHOW&#45;&gt;Metamodel::MROBasedTypeChecking</title>
<path fill="none" stroke="#6666ff" d="M-346.335,-221.638C-400.186,-203.313 -488.141,-173.383 -546.739,-153.443"/>
<polygon fill="#6666ff" stroke="#6666ff" points="-545.647,-150.117 -556.241,-150.209 -547.902,-156.744 -545.647,-150.117"/>
</g>
<!-- Metamodel::ClassHOW&#45;&gt;Metamodel::Trusting -->
<g id="edge46" class="edge"><title>Metamodel::ClassHOW&#45;&gt;Metamodel::Trusting</title>
<path fill="none" stroke="#6666ff" d="M-296.091,-255.775C-287.859,-308.523 -263.738,-463.069 -253.733,-527.176"/>
<polygon fill="#6666ff" stroke="#6666ff" points="-257.144,-528.016 -252.144,-537.357 -250.228,-526.937 -257.144,-528.016"/>
</g>
<!-- Metamodel::ClassHOW&#45;&gt;Metamodel::BUILDPLAN -->
<g id="edge47" class="edge"><title>Metamodel::ClassHOW&#45;&gt;Metamodel::BUILDPLAN</title>
<path fill="none" stroke="#6666ff" d="M-315.084,-255.764C-358.568,-304.081 -478.043,-436.839 -528.508,-492.914"/>
<polygon fill="#6666ff" stroke="#6666ff" points="-531.348,-490.837 -535.436,-500.611 -526.145,-495.519 -531.348,-490.837"/>
</g>
<!-- Metamodel::ClassHOW&#45;&gt;Metamodel::Mixins -->
<g id="edge48" class="edge"><title>Metamodel::ClassHOW&#45;&gt;Metamodel::Mixins</title>
<path fill="none" stroke="#6666ff" d="M-315.928,-219.922C-400.304,-131.436 -769.539,255.787 -769.539,255.787 -769.539,255.787 -869.849,477.877 -905.509,556.828"/>
<polygon fill="#6666ff" stroke="#6666ff" points="-902.411,558.471 -909.717,566.144 -908.79,555.59 -902.411,558.471"/>
</g>
<!-- Metamodel::ClassHOW&#45;&gt;Metamodel::BoolificationProtocol -->
<g id="edge49" class="edge"><title>Metamodel::ClassHOW&#45;&gt;Metamodel::BoolificationProtocol</title>
<path fill="none" stroke="#6666ff" d="M-279.671,-255.908C-224.606,-307.823 -66.2131,-457.154 -2.78791,-516.95"/>
<polygon fill="#6666ff" stroke="#6666ff" points="-4.86367,-519.803 4.81347,-524.116 -0.061748,-514.71 -4.86367,-519.803"/>
</g>
<!-- Metamodel::NativeHOW -->
<g id="node29" class="node"><title>Metamodel::NativeHOW</title>
<g id="a_node29"><a xlink:href="/type/Metamodel::NativeHOW" xlink:title="Metamodel::NativeHOW">
<ellipse fill="none" stroke="#000000" cx="-508.18" cy="610.567" rx="107.482" ry="18"/>
<text text-anchor="middle" x="-508.18" y="614.267" font-family="FreeSans" font-size="14.00" fill="#000000">Metamodel::NativeHOW</text>
</a>
</g>
</g>
<!-- Metamodel::NativeHOW&#45;&gt;Metamodel::Documenting -->
<g id="edge51" class="edge"><title>Metamodel::NativeHOW&#45;&gt;Metamodel::Documenting</title>
<path fill="none" stroke="#6666ff" d="M-476.663,593.154C-386.348,543.255 -126.656,399.776 -26.0372,344.184"/>
<polygon fill="#6666ff" stroke="#6666ff" points="-27.5343,341.013 -17.0888,339.24 -24.1491,347.14 -27.5343,341.013"/>
</g>
<!-- Metamodel::NativeHOW&#45;&gt;Any -->
<g id="edge6" class="edge"><title>Metamodel::NativeHOW&#45;&gt;Any</title>
<path fill="none" stroke="#000000" d="M-461.936,594.266C-313.161,541.824 150.922,378.237 280.046,332.722"/>
<polygon fill="#000000" stroke="#000000" points="279.192,329.312 289.787,329.288 281.519,335.914 279.192,329.312"/>
</g>
<!-- Metamodel::NativeHOW&#45;&gt;Metamodel::Naming -->
<g id="edge50" class="edge"><title>Metamodel::NativeHOW&#45;&gt;Metamodel::Naming</title>
<path fill="none" stroke="#6666ff" d="M-487.981,592.862C-393.437,509.995 5.36711,160.444 114.943,64.4019"/>
<polygon fill="#6666ff" stroke="#6666ff" points="112.789,61.6353 122.616,57.6759 117.403,66.8994 112.789,61.6353"/>
</g>
<!-- Metamodel::NativeHOW&#45;&gt;Metamodel::Versioning -->
<g id="edge52" class="edge"><title>Metamodel::NativeHOW&#45;&gt;Metamodel::Versioning</title>
<path fill="none" stroke="#6666ff" d="M-499.779,592.493C-470.84,530.235 -377.062,328.49 -377.062,328.49 -377.062,328.49 -203.945,140.552 -139.656,70.7598"/>
<polygon fill="#6666ff" stroke="#6666ff" points="-142.074,68.2183 -132.724,63.2344 -136.925,72.9609 -142.074,68.2183"/>
</g>
<!-- Metamodel::NativeHOW&#45;&gt;Metamodel::MultipleInheritance -->
<g id="edge54" class="edge"><title>Metamodel::NativeHOW&#45;&gt;Metamodel::MultipleInheritance</title>
<path fill="none" stroke="#6666ff" d="M-503.942,592.545C-484.8,511.155 -406.337,177.529 -382.927,77.9916"/>
<polygon fill="#6666ff" stroke="#6666ff" points="-386.289,77.0001 -380.593,68.0669 -379.475,78.6027 -386.289,77.0001"/>
</g>
<!-- Metamodel::NativeHOW&#45;&gt;Metamodel::Stashing -->
<g id="edge53" class="edge"><title>Metamodel::NativeHOW&#45;&gt;Metamodel::Stashing</title>
<path fill="none" stroke="#6666ff" d="M-493.679,592.488C-454.799,544.014 -348.112,411.002 -302.737,354.431"/>
<polygon fill="#6666ff" stroke="#6666ff" points="-305.239,351.956 -296.252,346.345 -299.778,356.336 -305.239,351.956"/>
</g>
<!-- Metamodel::NativeHOW&#45;&gt;Metamodel::C3MRO -->
<g id="edge55" class="edge"><title>Metamodel::NativeHOW&#45;&gt;Metamodel::C3MRO</title>
<path fill="none" stroke="#6666ff" d="M-526.938,592.673C-596.202,526.599 -837.716,296.207 -918.311,219.324"/>
<polygon fill="#6666ff" stroke="#6666ff" points="-921.212,221.394 -926.031,211.959 -916.38,216.329 -921.212,221.394"/>
</g>
<!-- Metamodel::NativeHOW&#45;&gt;Metamodel::MROBasedMethodDispatch -->
<g id="edge56" class="edge"><title>Metamodel::NativeHOW&#45;&gt;Metamodel::MROBasedMethodDispatch</title>
<path fill="none" stroke="#6666ff" d="M-512.774,592.476C-527.48,534.558 -573.475,353.414 -591.225,283.509"/>
<polygon fill="#6666ff" stroke="#6666ff" points="-594.658,284.208 -593.727,273.655 -587.874,282.486 -594.658,284.208"/>
</g>
<!-- Metamodel::NativeHOW&#45;&gt;Metamodel::MROBasedTypeChecking -->
<g id="edge57" class="edge"><title>Metamodel::NativeHOW&#45;&gt;Metamodel::MROBasedTypeChecking</title>
<path fill="none" stroke="#6666ff" d="M-504.047,592.467C-487.522,520.093 -427.084,255.413 -427.084,255.413 -427.084,255.413 -553.212,-17.1782 -594.143,-105.642"/>
<polygon fill="#6666ff" stroke="#6666ff" points="-597.354,-104.245 -598.376,-114.79 -591.001,-107.184 -597.354,-104.245"/>
</g>
<!-- Metamodel::SubsetHOW -->
<g id="node30" class="node"><title>Metamodel::SubsetHOW</title>
<g id="a_node30"><a xlink:href="/type/Metamodel::SubsetHOW" xlink:title="Metamodel::SubsetHOW">
<ellipse fill="none" stroke="#000000" cx="951.539" cy="41.3449" rx="109.381" ry="18"/>
<text text-anchor="middle" x="951.539" y="45.0449" font-family="FreeSans" font-size="14.00" fill="#000000">Metamodel::SubsetHOW</text>
</a>
</g>
</g>
<!-- Metamodel::SubsetHOW&#45;&gt;Metamodel::Documenting -->
<g id="edge59" class="edge"><title>Metamodel::SubsetHOW&#45;&gt;Metamodel::Documenting</title>
<path fill="none" stroke="#6666ff" d="M898.812,57.1258C737.571,105.385 251.494,250.864 77.373,302.978"/>
<polygon fill="#6666ff" stroke="#6666ff" points="78.1736,306.392 67.5899,305.906 76.1664,299.685 78.1736,306.392"/>
</g>
<!-- Metamodel::SubsetHOW&#45;&gt;Any -->
<g id="edge7" class="edge"><title>Metamodel::SubsetHOW&#45;&gt;Any</title>
<path fill="none" stroke="#000000" d="M913.075,58.2006C797.106,109.02 452.31,260.116 345.554,306.899"/>
<polygon fill="#000000" stroke="#000000" points="346.83,310.161 336.266,310.969 344.021,303.749 346.83,310.161"/>
</g>
<!-- Metamodel::SubsetHOW&#45;&gt;Metamodel::Naming -->
<g id="edge58" class="edge"><title>Metamodel::SubsetHOW&#45;&gt;Metamodel::Naming</title>
<path fill="none" stroke="#6666ff" d="M843.589,44.2901C686.884,48.5654 414.908,55.9856 414.908,55.9856 414.908,55.9856 312.853,50.3363 312.853,50.3363 312.853,50.3363 277.885,48.1881 239.671,45.8405"/>
<polygon fill="#6666ff" stroke="#6666ff" points="239.138,49.3145 229.371,45.2078 239.567,42.3276 239.138,49.3145"/>
</g>
</g>
</svg>
