<?xml version="1.0" encoding="UTF-8" standalone="no"?>
<!DOCTYPE svg PUBLIC "-//W3C//DTD SVG 1.1//EN"
 "http://www.w3.org/Graphics/SVG/1.1/DTD/svg11.dtd">
<!-- Generated by graphviz version 2.38.0 (20140413.2041)
 -->
<!-- Title: perl6&#45;type&#45;graph Pages: 1 -->
<svg width="260pt" height="404pt"
 viewBox="0.00 0.00 259.94 404.00" xmlns="http://www.w3.org/2000/svg" xmlns:xlink="http://www.w3.org/1999/xlink">
<g id="graph0" class="graph" transform="scale(1 1) rotate(0) translate(4 400)">
<title>perl6&#45;type&#45;graph</title>
<polygon fill="white" stroke="none" points="-4,4 -4,-400 255.938,-400 255.938,4 -4,4"/>
<!-- X::Syntax::Perl5Var -->
<g id="node1" class="node"><title>X::Syntax::Perl5Var</title>
<g id="a_node1"><a xlink:href="/type/X::Syntax::Perl5Var" xlink:title="X::Syntax::Perl5Var">
<ellipse fill="none" stroke="#000000" cx="87.0923" cy="-18" rx="87.1846" ry="18"/>
<text text-anchor="middle" x="87.0923" y="-14.3" font-family="FreeSans" font-size="14.00" fill="#000000">X::Syntax::Perl5Var</text>
</a>
</g>
</g>
<!-- Exception -->
<g id="node4" class="node"><title>Exception</title>
<g id="a_node4"><a xlink:href="/type/Exception" xlink:title="Exception">
<ellipse fill="none" stroke="#000000" cx="110.092" cy="-234" rx="49.2915" ry="18"/>
<text text-anchor="middle" x="110.092" y="-230.3" font-family="FreeSans" font-size="14.00" fill="#000000">Exception</text>
</a>
</g>
</g>
<!-- X::Syntax::Perl5Var&#45;&gt;Exception -->
<g id="edge1" class="edge"><title>X::Syntax::Perl5Var&#45;&gt;Exception</title>
<path fill="none" stroke="#000000" d="M85.0581,-36.1508C85.5028,-73.3384 94.7339,-161.626 102.564,-206.228"/>
<polygon fill="#000000" stroke="#000000" points="99.1262,-206.884 104.415,-216.065 106.005,-205.59 99.1262,-206.884"/>
</g>
<!-- X::Syntax::Perl5Var&#45;&gt;Exception -->
<g id="edge2" class="edge"><title>X::Syntax::Perl5Var&#45;&gt;Exception</title>
<path fill="none" stroke="#000000" d="M92.8131,-36.1508C100.327,-73.1683 110.019,-160.819 111.841,-205.614"/>
<polygon fill="#000000" stroke="#000000" points="108.347,-205.87 112.125,-215.768 115.344,-205.673 108.347,-205.87"/>
</g>
<!-- X::Syntax -->
<g id="node6" class="node"><title>X::Syntax</title>
<g id="a_node6"><a xlink:href="/type/X::Syntax" xlink:title="X::Syntax">
<ellipse fill="none" stroke="#6666ff" cx="172.092" cy="-90" rx="48.1917" ry="18"/>
<text text-anchor="middle" x="172.092" y="-86.3" font-family="FreeSans" font-size="14.00" fill="#6666ff">X::Syntax</text>
</a>
</g>
</g>
<!-- X::Syntax::Perl5Var&#45;&gt;X::Syntax -->
<g id="edge7" class="edge"><title>X::Syntax::Perl5Var&#45;&gt;X::Syntax</title>
<path fill="none" stroke="#6666ff" d="M107.236,-35.589C118.593,-44.9415 132.927,-56.7459 145.229,-66.8774"/>
<polygon fill="#6666ff" stroke="#6666ff" points="143.024,-69.5958 152.969,-73.2511 147.474,-64.1922 143.024,-69.5958"/>
</g>
<!-- Mu -->
<g id="node2" class="node"><title>Mu</title>
<g id="a_node2"><a xlink:href="/type/Mu" xlink:title="Mu">
<ellipse fill="none" stroke="#000000" cx="110.092" cy="-378" rx="27" ry="18"/>
<text text-anchor="middle" x="110.092" y="-374.3" font-family="FreeSans" font-size="14.00" fill="#000000">Mu</text>
</a>
</g>
</g>
<!-- Any -->
<g id="node3" class="node"><title>Any</title>
<g id="a_node3"><a xlink:href="/type/Any" xlink:title="Any">
<ellipse fill="none" stroke="#000000" cx="110.092" cy="-306" rx="27" ry="18"/>
<text text-anchor="middle" x="110.092" y="-302.3" font-family="FreeSans" font-size="14.00" fill="#000000">Any</text>
</a>
</g>
</g>
<!-- Any&#45;&gt;Mu -->
<g id="edge3" class="edge"><title>Any&#45;&gt;Mu</title>
<path fill="none" stroke="#000000" d="M110.092,-324.303C110.092,-332.017 110.092,-341.288 110.092,-349.888"/>
<polygon fill="#000000" stroke="#000000" points="106.592,-349.896 110.092,-359.896 113.592,-349.896 106.592,-349.896"/>
</g>
<!-- Exception&#45;&gt;Any -->
<g id="edge4" class="edge"><title>Exception&#45;&gt;Any</title>
<path fill="none" stroke="#000000" d="M110.092,-252.303C110.092,-260.017 110.092,-269.288 110.092,-277.888"/>
<polygon fill="#000000" stroke="#000000" points="106.592,-277.896 110.092,-287.896 113.592,-277.896 106.592,-277.896"/>
</g>
<!-- X::Comp -->
<g id="node5" class="node"><title>X::Comp</title>
<g id="a_node5"><a xlink:href="/type/X::Comp" xlink:title="X::Comp">
<ellipse fill="none" stroke="#6666ff" cx="207.092" cy="-162" rx="44.6926" ry="18"/>
<text text-anchor="middle" x="207.092" y="-158.3" font-family="FreeSans" font-size="14.00" fill="#6666ff">X::Comp</text>
</a>
</g>
</g>
<!-- X::Comp&#45;&gt;Exception -->
<g id="edge5" class="edge"><title>X::Comp&#45;&gt;Exception</title>
<path fill="none" stroke="#000000" d="M186.045,-178.189C172.537,-187.937 154.793,-200.742 139.853,-211.523"/>
<polygon fill="#000000" stroke="#000000" points="137.495,-208.909 131.434,-217.599 141.591,-214.585 137.495,-208.909"/>
</g>
<!-- X::Syntax&#45;&gt;Exception -->
<g id="edge6" class="edge"><title>X::Syntax&#45;&gt;Exception</title>
<path fill="none" stroke="#000000" d="M164.737,-107.847C154.063,-132.294 134.181,-177.829 121.569,-206.714"/>
<polygon fill="#000000" stroke="#000000" points="118.232,-205.61 117.438,-216.175 124.647,-208.411 118.232,-205.61"/>
</g>
<!-- X::Syntax&#45;&gt;X::Comp -->
<g id="edge8" class="edge"><title>X::Syntax&#45;&gt;X::Comp</title>
<path fill="none" stroke="#6666ff" d="M180.565,-107.945C184.649,-116.113 189.636,-126.088 194.18,-135.176"/>
<polygon fill="#6666ff" stroke="#6666ff" points="191.095,-136.832 198.698,-144.211 197.356,-133.701 191.095,-136.832"/>
</g>
</g>
</svg>
