<?xml version="1.0" encoding="UTF-8" standalone="no"?>
<!DOCTYPE svg PUBLIC "-//W3C//DTD SVG 1.1//EN"
 "http://www.w3.org/Graphics/SVG/1.1/DTD/svg11.dtd">
<!-- Generated by graphviz version 2.38.0 (20140413.2041)
 -->
<!-- Title: perl6&#45;type&#45;graph Pages: 1 -->
<svg width="1475pt" height="711pt"
 viewBox="0.00 0.00 1475.22 710.50" xmlns="http://www.w3.org/2000/svg" xmlns:xlink="http://www.w3.org/1999/xlink">
<g id="graph0" class="graph" transform="scale(1 1) rotate(0) translate(781.998 346.465)">
<title>perl6&#45;type&#45;graph</title>
<polygon fill="white" stroke="none" points="-781.998,364.036 -781.998,-346.465 693.22,-346.465 693.22,364.036 -781.998,364.036"/>
<!-- Metamodel::TypePretense -->
<g id="node1" class="node"><title>Metamodel::TypePretense</title>
<g id="a_node1"><a xlink:href="/type/Metamodel::TypePretense" xlink:title="Metamodel::TypePretense">
<ellipse fill="none" stroke="#6666ff" cx="-287.253" cy="-5.85278" rx="114.28" ry="18"/>
<text text-anchor="middle" x="-287.253" y="-2.15278" font-family="FreeSans" font-size="14.00" fill="#6666ff">Metamodel::TypePretense</text>
</a>
</g>
</g>
<!-- Mu -->
<g id="node2" class="node"><title>Mu</title>
<g id="a_node2"><a xlink:href="/type/Mu" xlink:title="Mu">
<ellipse fill="none" stroke="#000000" cx="539.439" cy="293.994" rx="27" ry="18"/>
<text text-anchor="middle" x="539.439" y="297.694" font-family="FreeSans" font-size="14.00" fill="#000000">Mu</text>
</a>
</g>
</g>
<!-- Any -->
<g id="node3" class="node"><title>Any</title>
<g id="a_node3"><a xlink:href="/type/Any" xlink:title="Any">
<ellipse fill="none" stroke="#000000" cx="268.957" cy="131.411" rx="27" ry="18"/>
<text text-anchor="middle" x="268.957" y="135.111" font-family="FreeSans" font-size="14.00" fill="#000000">Any</text>
</a>
</g>
</g>
<!-- Any&#45;&gt;Mu -->
<g id="edge1" class="edge"><title>Any&#45;&gt;Mu</title>
<path fill="none" stroke="#000000" d="M289.287,143.632C336.788,172.184 455.195,243.357 510.333,276.5"/>
<polygon fill="#000000" stroke="#000000" points="512.474,273.703 519.242,281.854 508.868,279.702 512.474,273.703"/>
</g>
<!-- Metamodel::Naming -->
<g id="node4" class="node"><title>Metamodel::Naming</title>
<g id="a_node4"><a xlink:href="/type/Metamodel::Naming" xlink:title="Metamodel::Naming">
<ellipse fill="none" stroke="#6666ff" cx="-138.747" cy="-120.809" rx="90.1842" ry="18"/>
<text text-anchor="middle" x="-138.747" y="-117.109" font-family="FreeSans" font-size="14.00" fill="#6666ff">Metamodel::Naming</text>
</a>
</g>
</g>
<!-- Metamodel::Documenting -->
<g id="node5" class="node"><title>Metamodel::Documenting</title>
<g id="a_node5"><a xlink:href="/type/Metamodel::Documenting" xlink:title="Metamodel::Documenting">
<ellipse fill="none" stroke="#6666ff" cx="148.517" cy="-27.696" rx="111.28" ry="18"/>
<text text-anchor="middle" x="148.517" y="-23.996" font-family="FreeSans" font-size="14.00" fill="#6666ff">Metamodel::Documenting</text>
</a>
</g>
</g>
<!-- Metamodel::Stashing -->
<g id="node6" class="node"><title>Metamodel::Stashing</title>
<g id="a_node6"><a xlink:href="/type/Metamodel::Stashing" xlink:title="Metamodel::Stashing">
<ellipse fill="none" stroke="#6666ff" cx="-508.283" cy="2.41823" rx="93.6835" ry="18"/>
<text text-anchor="middle" x="-508.283" y="6.11823" font-family="FreeSans" font-size="14.00" fill="#6666ff">Metamodel::Stashing</text>
</a>
</g>
</g>
<!-- Metamodel::MethodDelegation -->
<g id="node7" class="node"><title>Metamodel::MethodDelegation</title>
<g id="a_node7"><a xlink:href="/type/Metamodel::MethodDelegation" xlink:title="Metamodel::MethodDelegation">
<ellipse fill="none" stroke="#6666ff" cx="-153.33" cy="342.036" rx="131.077" ry="18"/>
<text text-anchor="middle" x="-153.33" y="345.736" font-family="FreeSans" font-size="14.00" fill="#6666ff">Metamodel::MethodDelegation</text>
</a>
</g>
</g>
<!-- Metamodel::PackageHOW -->
<g id="node8" class="node"><title>Metamodel::PackageHOW</title>
<g id="a_node8"><a xlink:href="/type/Metamodel::PackageHOW" xlink:title="Metamodel::PackageHOW">
<ellipse fill="none" stroke="#000000" cx="-169.93" cy="144.809" rx="116.18" ry="18"/>
<text text-anchor="middle" x="-169.93" y="148.509" font-family="FreeSans" font-size="14.00" fill="#000000">Metamodel::PackageHOW</text>
</a>
</g>
</g>
<!-- Metamodel::PackageHOW&#45;&gt;Metamodel::TypePretense -->
<g id="edge10" class="edge"><title>Metamodel::PackageHOW&#45;&gt;Metamodel::TypePretense</title>
<path fill="none" stroke="#6666ff" d="M-183.849,126.935C-204.378,100.573 -242.904,51.0986 -266.694,20.5484"/>
<polygon fill="#6666ff" stroke="#6666ff" points="-269.604,22.5087 -272.986,12.4684 -264.081,18.2079 -269.604,22.5087"/>
</g>
<!-- Metamodel::PackageHOW&#45;&gt;Any -->
<g id="edge2" class="edge"><title>Metamodel::PackageHOW&#45;&gt;Any</title>
<path fill="none" stroke="#000000" d="M-55.7634,141.324C39.0741,138.429 168.291,134.484 231.301,132.561"/>
<polygon fill="#000000" stroke="#000000" points="231.451,129.055 241.553,132.248 231.664,136.052 231.451,129.055"/>
</g>
<!-- Metamodel::PackageHOW&#45;&gt;Metamodel::Naming -->
<g id="edge7" class="edge"><title>Metamodel::PackageHOW&#45;&gt;Metamodel::Naming</title>
<path fill="none" stroke="#6666ff" d="M-167.787,126.552C-162.433,80.9508 -148.448,-38.1806 -142.04,-92.7613"/>
<polygon fill="#6666ff" stroke="#6666ff" points="-145.506,-93.2522 -140.864,-102.776 -138.554,-92.436 -145.506,-93.2522"/>
</g>
<!-- Metamodel::PackageHOW&#45;&gt;Metamodel::Documenting -->
<g id="edge8" class="edge"><title>Metamodel::PackageHOW&#45;&gt;Metamodel::Documenting</title>
<path fill="none" stroke="#6666ff" d="M-154.827,126.74C-136.733,105.092 -108.831,71.7088 -108.831,71.7088 -108.831,71.7088 -76.7268,57.8108 -76.7268,57.8108 -76.7268,57.8108 28.6941,17.791 95.2932,-7.49134"/>
<polygon fill="#6666ff" stroke="#6666ff" points="94.2292,-10.8311 104.82,-11.1081 96.7136,-4.28677 94.2292,-10.8311"/>
</g>
<!-- Metamodel::PackageHOW&#45;&gt;Metamodel::Stashing -->
<g id="edge9" class="edge"><title>Metamodel::PackageHOW&#45;&gt;Metamodel::Stashing</title>
<path fill="none" stroke="#6666ff" d="M-210.407,127.775C-272.935,101.461 -392.786,51.0235 -459.831,22.8086"/>
<polygon fill="#6666ff" stroke="#6666ff" points="-461.467,25.9175 -469.327,18.8126 -458.752,19.4655 -461.467,25.9175"/>
</g>
<!-- Metamodel::PackageHOW&#45;&gt;Metamodel::MethodDelegation -->
<g id="edge11" class="edge"><title>Metamodel::PackageHOW&#45;&gt;Metamodel::MethodDelegation</title>
<path fill="none" stroke="#6666ff" d="M-168.398,163.01C-165.495,197.501 -159.174,272.598 -155.713,313.721"/>
<polygon fill="#6666ff" stroke="#6666ff" points="-152.209,313.62 -154.858,323.879 -159.185,314.208 -152.209,313.62"/>
</g>
<!-- Metamodel::RolePunning -->
<g id="node9" class="node"><title>Metamodel::RolePunning</title>
<g id="a_node9"><a xlink:href="/type/Metamodel::RolePunning" xlink:title="Metamodel::RolePunning">
<ellipse fill="none" stroke="#6666ff" cx="2.60705" cy="71.5756" rx="109.681" ry="18"/>
<text text-anchor="middle" x="2.60705" y="75.2756" font-family="FreeSans" font-size="14.00" fill="#6666ff">Metamodel::RolePunning</text>
</a>
</g>
</g>
<!-- Metamodel::CurriedRoleHOW -->
<g id="node10" class="node"><title>Metamodel::CurriedRoleHOW</title>
<g id="a_node10"><a xlink:href="/type/Metamodel::CurriedRoleHOW" xlink:title="Metamodel::CurriedRoleHOW">
<ellipse fill="none" stroke="#000000" cx="263.837" cy="334.897" rx="128.877" ry="18"/>
<text text-anchor="middle" x="263.837" y="338.597" font-family="FreeSans" font-size="14.00" fill="#000000">Metamodel::CurriedRoleHOW</text>
</a>
</g>
</g>
<!-- Metamodel::CurriedRoleHOW&#45;&gt;Metamodel::TypePretense -->
<g id="edge13" class="edge"><title>Metamodel::CurriedRoleHOW&#45;&gt;Metamodel::TypePretense</title>
<path fill="none" stroke="#6666ff" d="M235.369,317.294C143.171,260.287 -147.226,80.7291 -250.419,16.9228"/>
<polygon fill="#6666ff" stroke="#6666ff" points="-252.29,19.8807 -258.955,11.6447 -248.609,13.9269 -252.29,19.8807"/>
</g>
<!-- Metamodel::CurriedRoleHOW&#45;&gt;Any -->
<g id="edge3" class="edge"><title>Metamodel::CurriedRoleHOW&#45;&gt;Any</title>
<path fill="none" stroke="#000000" d="M264.292,316.839C265.185,281.316 267.178,202.126 268.246,159.637"/>
<polygon fill="#000000" stroke="#000000" points="264.753,159.338 268.503,149.429 271.751,159.514 264.753,159.338"/>
</g>
<!-- Metamodel::CurriedRoleHOW&#45;&gt;Metamodel::RolePunning -->
<g id="edge12" class="edge"><title>Metamodel::CurriedRoleHOW&#45;&gt;Metamodel::RolePunning</title>
<path fill="none" stroke="#6666ff" d="M245.882,316.798C200.286,270.837 79.9452,149.533 27.5614,96.7297"/>
<polygon fill="#6666ff" stroke="#6666ff" points="24.9008,99.0175 20.3427,89.4532 29.8703,94.0875 24.9008,99.0175"/>
</g>
<!-- Metamodel::BoolificationProtocol -->
<g id="node11" class="node"><title>Metamodel::BoolificationProtocol</title>
<g id="a_node11"><a xlink:href="/type/Metamodel::BoolificationProtocol" xlink:title="Metamodel::BoolificationProtocol">
<ellipse fill="none" stroke="#6666ff" cx="-638.911" cy="246.155" rx="139.175" ry="18"/>
<text text-anchor="middle" x="-638.911" y="249.855" font-family="FreeSans" font-size="14.00" fill="#6666ff">Metamodel::BoolificationProtocol</text>
</a>
</g>
</g>
<!-- Metamodel::ParametricRoleGroupHOW -->
<g id="node12" class="node"><title>Metamodel::ParametricRoleGroupHOW</title>
<g id="a_node12"><a xlink:href="/type/Metamodel::ParametricRoleGroupHOW" xlink:title="Metamodel::ParametricRoleGroupHOW">
<ellipse fill="none" stroke="#000000" cx="-382.532" cy="295.68" rx="167.07" ry="18"/>
<text text-anchor="middle" x="-382.532" y="299.38" font-family="FreeSans" font-size="14.00" fill="#000000">Metamodel::ParametricRoleGroupHOW</text>
</a>
</g>
</g>
<!-- Metamodel::ParametricRoleGroupHOW&#45;&gt;Metamodel::TypePretense -->
<g id="edge16" class="edge"><title>Metamodel::ParametricRoleGroupHOW&#45;&gt;Metamodel::TypePretense</title>
<path fill="none" stroke="#6666ff" d="M-376.715,277.272C-360.598,226.263 -315.287,82.8655 -296.058,22.0131"/>
<polygon fill="#6666ff" stroke="#6666ff" points="-299.344,20.7954 -292.994,12.3146 -292.67,22.9045 -299.344,20.7954"/>
</g>
<!-- Metamodel::ParametricRoleGroupHOW&#45;&gt;Any -->
<g id="edge4" class="edge"><title>Metamodel::ParametricRoleGroupHOW&#45;&gt;Any</title>
<path fill="none" stroke="#000000" d="M-316.781,279.101C-180.456,244.728 128.99,166.703 233.624,140.32"/>
<polygon fill="#000000" stroke="#000000" points="232.829,136.911 243.381,137.86 234.541,143.699 232.829,136.911"/>
</g>
<!-- Metamodel::ParametricRoleGroupHOW&#45;&gt;Metamodel::Naming -->
<g id="edge14" class="edge"><title>Metamodel::ParametricRoleGroupHOW&#45;&gt;Metamodel::Naming</title>
<path fill="none" stroke="#6666ff" d="M-371.113,277.505C-345.934,237.429 -287.864,145.002 -287.864,145.002 -287.864,145.002 -171.264,-5.91443 -171.264,-5.91443 -171.264,-5.91443 -156.32,-58.717 -146.694,-92.7305"/>
<polygon fill="#6666ff" stroke="#6666ff" points="-149.991,-93.9351 -143.9,-102.604 -143.255,-92.0288 -149.991,-93.9351"/>
</g>
<!-- Metamodel::ParametricRoleGroupHOW&#45;&gt;Metamodel::Stashing -->
<g id="edge15" class="edge"><title>Metamodel::ParametricRoleGroupHOW&#45;&gt;Metamodel::Stashing</title>
<path fill="none" stroke="#6666ff" d="M-390.398,277.335C-411.797,227.431 -471.155,89.005 -496.531,29.8246"/>
<polygon fill="#6666ff" stroke="#6666ff" points="-499.856,30.9518 -500.58,20.3817 -493.423,28.193 -499.856,30.9518"/>
</g>
<!-- Metamodel::ParametricRoleGroupHOW&#45;&gt;Metamodel::RolePunning -->
<g id="edge17" class="edge"><title>Metamodel::ParametricRoleGroupHOW&#45;&gt;Metamodel::RolePunning</title>
<path fill="none" stroke="#6666ff" d="M-343.968,278.056C-256.777,238.207 -51.9959,144.617 -51.9959,144.617 -51.9959,144.617 -32.5618,118.62 -16.8818,97.6455"/>
<polygon fill="#6666ff" stroke="#6666ff" points="-19.6811,95.5445 -10.8903,89.6307 -14.0746,99.7358 -19.6811,95.5445"/>
</g>
<!-- Metamodel::ParametricRoleGroupHOW&#45;&gt;Metamodel::BoolificationProtocol -->
<g id="edge18" class="edge"><title>Metamodel::ParametricRoleGroupHOW&#45;&gt;Metamodel::BoolificationProtocol</title>
<path fill="none" stroke="#6666ff" d="M-464.004,279.942C-491.81,274.571 -523.013,268.543 -551.282,263.082"/>
<polygon fill="#6666ff" stroke="#6666ff" points="-551.994,266.509 -561.149,261.176 -550.666,259.636 -551.994,266.509"/>
</g>
<!-- Metamodel::Versioning -->
<g id="node13" class="node"><title>Metamodel::Versioning</title>
<g id="a_node13"><a xlink:href="/type/Metamodel::Versioning" xlink:title="Metamodel::Versioning">
<ellipse fill="none" stroke="#6666ff" cx="333.027" cy="-91.9844" rx="100.983" ry="18"/>
<text text-anchor="middle" x="333.027" y="-88.2844" font-family="FreeSans" font-size="14.00" fill="#6666ff">Metamodel::Versioning</text>
</a>
</g>
</g>
<!-- Metamodel::MethodContainer -->
<g id="node14" class="node"><title>Metamodel::MethodContainer</title>
<g id="a_node14"><a xlink:href="/type/Metamodel::MethodContainer" xlink:title="Metamodel::MethodContainer">
<ellipse fill="none" stroke="#6666ff" cx="228.921" cy="-307.721" rx="127.277" ry="18"/>
<text text-anchor="middle" x="228.921" y="-304.021" font-family="FreeSans" font-size="14.00" fill="#6666ff">Metamodel::MethodContainer</text>
</a>
</g>
</g>
<!-- Metamodel::PrivateMethodContainer -->
<g id="node15" class="node"><title>Metamodel::PrivateMethodContainer</title>
<g id="a_node15"><a xlink:href="/type/Metamodel::PrivateMethodContainer" xlink:title="Metamodel::PrivateMethodContainer">
<ellipse fill="none" stroke="#6666ff" cx="-58.185" cy="-324.465" rx="154.873" ry="18"/>
<text text-anchor="middle" x="-58.185" y="-320.765" font-family="FreeSans" font-size="14.00" fill="#6666ff">Metamodel::PrivateMethodContainer</text>
</a>
</g>
</g>
<!-- Metamodel::MultiMethodContainer -->
<g id="node16" class="node"><title>Metamodel::MultiMethodContainer</title>
<g id="a_node16"><a xlink:href="/type/Metamodel::MultiMethodContainer" xlink:title="Metamodel::MultiMethodContainer">
<ellipse fill="none" stroke="#6666ff" cx="537.767" cy="-276.353" rx="146.474" ry="18"/>
<text text-anchor="middle" x="537.767" y="-272.653" font-family="FreeSans" font-size="14.00" fill="#6666ff">Metamodel::MultiMethodContainer</text>
</a>
</g>
</g>
<!-- Metamodel::AttributeContainer -->
<g id="node17" class="node"><title>Metamodel::AttributeContainer</title>
<g id="a_node17"><a xlink:href="/type/Metamodel::AttributeContainer" xlink:title="Metamodel::AttributeContainer">
<ellipse fill="none" stroke="#6666ff" cx="559.231" cy="17.8439" rx="129.977" ry="18"/>
<text text-anchor="middle" x="559.231" y="21.5439" font-family="FreeSans" font-size="14.00" fill="#6666ff">Metamodel::AttributeContainer</text>
</a>
</g>
</g>
<!-- Metamodel::RoleContainer -->
<g id="node18" class="node"><title>Metamodel::RoleContainer</title>
<g id="a_node18"><a xlink:href="/type/Metamodel::RoleContainer" xlink:title="Metamodel::RoleContainer">
<ellipse fill="none" stroke="#6666ff" cx="-334.63" cy="-285.916" rx="115.88" ry="18"/>
<text text-anchor="middle" x="-334.63" y="-282.216" font-family="FreeSans" font-size="14.00" fill="#6666ff">Metamodel::RoleContainer</text>
</a>
</g>
</g>
<!-- Metamodel::MultipleInheritance -->
<g id="node19" class="node"><title>Metamodel::MultipleInheritance</title>
<g id="a_node19"><a xlink:href="/type/Metamodel::MultipleInheritance" xlink:title="Metamodel::MultipleInheritance">
<ellipse fill="none" stroke="#6666ff" cx="-625.335" cy="-238.903" rx="133.776" ry="18"/>
<text text-anchor="middle" x="-625.335" y="-235.203" font-family="FreeSans" font-size="14.00" fill="#6666ff">Metamodel::MultipleInheritance</text>
</a>
</g>
</g>
<!-- Metamodel::ParametricRoleHOW -->
<g id="node20" class="node"><title>Metamodel::ParametricRoleHOW</title>
<g id="a_node20"><a xlink:href="/type/Metamodel::ParametricRoleHOW" xlink:title="Metamodel::ParametricRoleHOW">
<ellipse fill="none" stroke="#000000" cx="50.6571" cy="-157.966" rx="142.175" ry="18"/>
<text text-anchor="middle" x="50.6571" y="-154.266" font-family="FreeSans" font-size="14.00" fill="#000000">Metamodel::ParametricRoleHOW</text>
</a>
</g>
</g>
<!-- Metamodel::ParametricRoleHOW&#45;&gt;Metamodel::TypePretense -->
<g id="edge29" class="edge"><title>Metamodel::ParametricRoleHOW&#45;&gt;Metamodel::TypePretense</title>
<path fill="none" stroke="#6666ff" d="M11.8945,-140.517C-50.3971,-112.476 -172.597,-57.4663 -239.936,-27.1533"/>
<polygon fill="#6666ff" stroke="#6666ff" points="-238.904,-23.7796 -249.459,-22.8662 -241.777,-30.1627 -238.904,-23.7796"/>
</g>
<!-- Metamodel::ParametricRoleHOW&#45;&gt;Any -->
<g id="edge5" class="edge"><title>Metamodel::ParametricRoleHOW&#45;&gt;Any</title>
<path fill="none" stroke="#000000" d="M79.4981,-140.147C137.175,-104.511 261.254,-27.8479 261.254,-27.8479 261.254,-27.8479 265.364,57.1375 267.58,102.945"/>
<polygon fill="#000000" stroke="#000000" points="271.086,102.985 268.073,113.142 264.094,103.323 271.086,102.985"/>
</g>
<!-- Metamodel::ParametricRoleHOW&#45;&gt;Metamodel::Naming -->
<g id="edge19" class="edge"><title>Metamodel::ParametricRoleHOW&#45;&gt;Metamodel::Naming</title>
<path fill="none" stroke="#6666ff" d="M-26.654,-142.8C-38.9608,-140.385 -51.6733,-137.891 -63.9213,-135.489"/>
<polygon fill="#6666ff" stroke="#6666ff" points="-63.5945,-131.986 -74.0813,-133.495 -64.9421,-138.855 -63.5945,-131.986"/>
</g>
<!-- Metamodel::ParametricRoleHOW&#45;&gt;Metamodel::Documenting -->
<g id="edge20" class="edge"><title>Metamodel::ParametricRoleHOW&#45;&gt;Metamodel::Documenting</title>
<path fill="none" stroke="#6666ff" d="M64.2641,-139.853C81.0616,-117.492 109.752,-79.3001 128.921,-53.7825"/>
<polygon fill="#6666ff" stroke="#6666ff" points="131.818,-55.7533 135.025,-45.6557 126.221,-51.5489 131.818,-55.7533"/>
</g>
<!-- Metamodel::ParametricRoleHOW&#45;&gt;Metamodel::Stashing -->
<g id="edge28" class="edge"><title>Metamodel::ParametricRoleHOW&#45;&gt;Metamodel::Stashing</title>
<path fill="none" stroke="#6666ff" d="M8.69793,-140.728C-27.257,-125.956 -73.2793,-107.048 -73.2793,-107.048 -73.2793,-107.048 -319.465,-45.0968 -441.431,-14.4048"/>
<polygon fill="#6666ff" stroke="#6666ff" points="-440.862,-10.9388 -451.414,-11.8926 -442.571,-17.7272 -440.862,-10.9388"/>
</g>
<!-- Metamodel::ParametricRoleHOW&#45;&gt;Metamodel::RolePunning -->
<g id="edge30" class="edge"><title>Metamodel::ParametricRoleHOW&#45;&gt;Metamodel::RolePunning</title>
<path fill="none" stroke="#6666ff" d="M46.8867,-139.955C38.5566,-100.16 18.5315,-4.49783 8.51737,43.3412"/>
<polygon fill="#6666ff" stroke="#6666ff" points="11.9012,44.2592 6.42643,53.3299 5.04965,42.8249 11.9012,44.2592"/>
</g>
<!-- Metamodel::ParametricRoleHOW&#45;&gt;Metamodel::Versioning -->
<g id="edge21" class="edge"><title>Metamodel::ParametricRoleHOW&#45;&gt;Metamodel::Versioning</title>
<path fill="none" stroke="#6666ff" d="M118.651,-142.078C161.89,-131.974 217.788,-118.913 261.663,-108.66"/>
<polygon fill="#6666ff" stroke="#6666ff" points="262.46,-112.068 271.401,-106.385 260.867,-105.252 262.46,-112.068"/>
</g>
<!-- Metamodel::ParametricRoleHOW&#45;&gt;Metamodel::MethodContainer -->
<g id="edge22" class="edge"><title>Metamodel::ParametricRoleHOW&#45;&gt;Metamodel::MethodContainer</title>
<path fill="none" stroke="#6666ff" d="M72.1599,-176.03C104.1,-202.862 164.148,-253.307 199.938,-283.373"/>
<polygon fill="#6666ff" stroke="#6666ff" points="197.711,-286.074 207.62,-289.826 202.214,-280.714 197.711,-286.074"/>
</g>
<!-- Metamodel::ParametricRoleHOW&#45;&gt;Metamodel::PrivateMethodContainer -->
<g id="edge23" class="edge"><title>Metamodel::ParametricRoleHOW&#45;&gt;Metamodel::PrivateMethodContainer</title>
<path fill="none" stroke="#6666ff" d="M38.8019,-176.102C19.5827,-205.502 -18.4673,-263.708 -40.7679,-297.822"/>
<polygon fill="#6666ff" stroke="#6666ff" points="-43.8022,-296.067 -46.3444,-306.352 -37.9431,-299.897 -43.8022,-296.067"/>
</g>
<!-- Metamodel::ParametricRoleHOW&#45;&gt;Metamodel::MultiMethodContainer -->
<g id="edge24" class="edge"><title>Metamodel::ParametricRoleHOW&#45;&gt;Metamodel::MultiMethodContainer</title>
<path fill="none" stroke="#6666ff" d="M116.604,-173.994C206.471,-195.835 367.034,-234.858 461.824,-257.896"/>
<polygon fill="#6666ff" stroke="#6666ff" points="461.091,-261.319 471.635,-260.28 462.744,-254.517 461.091,-261.319"/>
</g>
<!-- Metamodel::ParametricRoleHOW&#45;&gt;Metamodel::AttributeContainer -->
<g id="edge25" class="edge"><title>Metamodel::ParametricRoleHOW&#45;&gt;Metamodel::AttributeContainer</title>
<path fill="none" stroke="#6666ff" d="M95.7669,-140.827C157.553,-117.352 260.934,-78.0729 260.934,-78.0729 260.934,-78.0729 410.79,-29.8871 498.072,-1.82186"/>
<polygon fill="#6666ff" stroke="#6666ff" points="499.164,-5.14719 507.612,1.24598 497.021,1.51678 499.164,-5.14719"/>
</g>
<!-- Metamodel::ParametricRoleHOW&#45;&gt;Metamodel::RoleContainer -->
<g id="edge26" class="edge"><title>Metamodel::ParametricRoleHOW&#45;&gt;Metamodel::RoleContainer</title>
<path fill="none" stroke="#6666ff" d="M-0.108562,-174.825C-71.1945,-198.432 -200.116,-241.245 -275.462,-266.267"/>
<polygon fill="#6666ff" stroke="#6666ff" points="-276.889,-263.053 -285.276,-269.526 -274.683,-269.696 -276.889,-263.053"/>
</g>
<!-- Metamodel::ParametricRoleHOW&#45;&gt;Metamodel::MultipleInheritance -->
<g id="edge27" class="edge"><title>Metamodel::ParametricRoleHOW&#45;&gt;Metamodel::MultipleInheritance</title>
<path fill="none" stroke="#6666ff" d="M-52.7473,-170.347C-177.703,-185.308 -387.068,-210.375 -515.036,-225.697"/>
<polygon fill="#6666ff" stroke="#6666ff" points="-515.737,-222.256 -525.25,-226.92 -514.905,-229.207 -515.737,-222.256"/>
</g>
<!-- Metamodel::ModuleHOW -->
<g id="node21" class="node"><title>Metamodel::ModuleHOW</title>
<g id="a_node21"><a xlink:href="/type/Metamodel::ModuleHOW" xlink:title="Metamodel::ModuleHOW">
<ellipse fill="none" stroke="#000000" cx="46.7336" cy="297.318" rx="111.28" ry="18"/>
<text text-anchor="middle" x="46.7336" y="301.018" font-family="FreeSans" font-size="14.00" fill="#000000">Metamodel::ModuleHOW</text>
</a>
</g>
</g>
<!-- Metamodel::ModuleHOW&#45;&gt;Metamodel::TypePretense -->
<g id="edge35" class="edge"><title>Metamodel::ModuleHOW&#45;&gt;Metamodel::TypePretense</title>
<path fill="none" stroke="#6666ff" d="M35.0203,279.201C8.8679,238.752 -51.9959,144.617 -51.9959,144.617 -51.9959,144.617 -185.491,59.2339 -251.361,17.1039"/>
<polygon fill="#6666ff" stroke="#6666ff" points="-253.268,20.0391 -259.806,11.7025 -249.496,14.1421 -253.268,20.0391"/>
</g>
<!-- Metamodel::ModuleHOW&#45;&gt;Any -->
<g id="edge6" class="edge"><title>Metamodel::ModuleHOW&#45;&gt;Any</title>
<path fill="none" stroke="#000000" d="M70.5154,279.563C112.398,248.294 199.003,183.637 242.628,151.068"/>
<polygon fill="#000000" stroke="#000000" points="240.646,148.179 250.753,145.001 244.834,153.789 240.646,148.179"/>
</g>
<!-- Metamodel::ModuleHOW&#45;&gt;Metamodel::Naming -->
<g id="edge31" class="edge"><title>Metamodel::ModuleHOW&#45;&gt;Metamodel::Naming</title>
<path fill="none" stroke="#6666ff" d="M35.0203,279.201C8.8679,238.752 -51.9959,144.617 -51.9959,144.617 -51.9959,144.617 -108.831,71.7088 -108.831,71.7088 -108.831,71.7088 -126.033,-38.9942 -134.349,-92.507"/>
<polygon fill="#6666ff" stroke="#6666ff" points="-137.856,-92.2789 -135.933,-102.698 -130.939,-93.3539 -137.856,-92.2789"/>
</g>
<!-- Metamodel::ModuleHOW&#45;&gt;Metamodel::Documenting -->
<g id="edge32" class="edge"><title>Metamodel::ModuleHOW&#45;&gt;Metamodel::Documenting</title>
<path fill="none" stroke="#6666ff" d="M52.4975,278.912C69.5027,224.611 119.539,64.8345 139.825,0.0574324"/>
<polygon fill="#6666ff" stroke="#6666ff" points="136.487,-0.995526 142.816,-9.49251 143.167,1.0965 136.487,-0.995526"/>
</g>
<!-- Metamodel::ModuleHOW&#45;&gt;Metamodel::Stashing -->
<g id="edge34" class="edge"><title>Metamodel::ModuleHOW&#45;&gt;Metamodel::Stashing</title>
<path fill="none" stroke="#6666ff" d="M9.32496,280.289C-77.9871,240.542 -287.864,145.002 -287.864,145.002 -287.864,145.002 -410.08,65.9432 -472.501,25.5646"/>
<polygon fill="#6666ff" stroke="#6666ff" points="-474.76,28.272 -481.256,19.9018 -470.958,22.3945 -474.76,28.272"/>
</g>
<!-- Metamodel::ModuleHOW&#45;&gt;Metamodel::MethodDelegation -->
<g id="edge36" class="edge"><title>Metamodel::ModuleHOW&#45;&gt;Metamodel::MethodDelegation</title>
<path fill="none" stroke="#6666ff" d="M-18.4979,311.898C-36.3794,315.895 -55.9557,320.271 -74.5113,324.418"/>
<polygon fill="#6666ff" stroke="#6666ff" points="-73.8786,327.863 -84.4012,326.629 -75.4056,321.032 -73.8786,327.863"/>
</g>
<!-- Metamodel::ModuleHOW&#45;&gt;Metamodel::Versioning -->
<g id="edge33" class="edge"><title>Metamodel::ModuleHOW&#45;&gt;Metamodel::Versioning</title>
<path fill="none" stroke="#6666ff" d="M59.9679,279.322C105.937,216.813 258.851,8.87941 313.446,-65.3584"/>
<polygon fill="#6666ff" stroke="#6666ff" points="310.858,-67.7477 319.603,-73.7302 316.498,-63.6005 310.858,-67.7477"/>
</g>
</g>
</svg>
