<?xml version="1.0" encoding="UTF-8" standalone="no"?>
<!DOCTYPE svg PUBLIC "-//W3C//DTD SVG 1.1//EN"
 "http://www.w3.org/Graphics/SVG/1.1/DTD/svg11.dtd">
<!-- Generated by graphviz version 2.38.0 (20140413.2041)
 -->
<!-- Title: perl6&#45;type&#45;graph Pages: 1 -->
<svg width="295pt" height="404pt"
 viewBox="0.00 0.00 295.27 404.00" xmlns="http://www.w3.org/2000/svg" xmlns:xlink="http://www.w3.org/1999/xlink">
<g id="graph0" class="graph" transform="scale(1 1) rotate(0) translate(4 400)">
<title>perl6&#45;type&#45;graph</title>
<polygon fill="white" stroke="none" points="-4,4 -4,-400 291.275,-400 291.275,4 -4,4"/>
<!-- X::Syntax::Term::MissingInitializer -->
<g id="node1" class="node"><title>X::Syntax::Term::MissingInitializer</title>
<g id="a_node1"><a xlink:href="/type/X::Syntax::Term::MissingInitializer" xlink:title="X::Syntax::Term::MissingInitializer">
<ellipse fill="none" stroke="#000000" cx="143.637" cy="-18" rx="143.775" ry="18"/>
<text text-anchor="middle" x="143.637" y="-14.3" font-family="FreeSans" font-size="14.00" fill="#000000">X::Syntax::Term::MissingInitializer</text>
</a>
</g>
</g>
<!-- Exception -->
<g id="node4" class="node"><title>Exception</title>
<g id="a_node4"><a xlink:href="/type/Exception" xlink:title="Exception">
<ellipse fill="none" stroke="#000000" cx="143.637" cy="-234" rx="49.2915" ry="18"/>
<text text-anchor="middle" x="143.637" y="-230.3" font-family="FreeSans" font-size="14.00" fill="#000000">Exception</text>
</a>
</g>
</g>
<!-- X::Syntax::Term::MissingInitializer&#45;&gt;Exception -->
<g id="edge1" class="edge"><title>X::Syntax::Term::MissingInitializer&#45;&gt;Exception</title>
<path fill="none" stroke="#000000" d="M137.521,-36.0613C131.967,-51.5549 124.637,-72 124.637,-72 124.637,-72 124.637,-108 124.637,-108 124.637,-108 133.91,-169.008 139.5,-205.782"/>
<polygon fill="#000000" stroke="#000000" points="136.072,-206.521 141.035,-215.881 142.993,-205.469 136.072,-206.521"/>
</g>
<!-- X::Syntax -->
<g id="node6" class="node"><title>X::Syntax</title>
<g id="a_node6"><a xlink:href="/type/X::Syntax" xlink:title="X::Syntax">
<ellipse fill="none" stroke="#6666ff" cx="181.637" cy="-90" rx="48.1917" ry="18"/>
<text text-anchor="middle" x="181.637" y="-86.3" font-family="FreeSans" font-size="14.00" fill="#6666ff">X::Syntax</text>
</a>
</g>
</g>
<!-- X::Syntax::Term::MissingInitializer&#45;&gt;X::Syntax -->
<g id="edge6" class="edge"><title>X::Syntax::Term::MissingInitializer&#45;&gt;X::Syntax</title>
<path fill="none" stroke="#6666ff" d="M153.031,-36.3034C157.402,-44.3564 162.695,-54.1055 167.533,-63.0176"/>
<polygon fill="#6666ff" stroke="#6666ff" points="164.505,-64.777 172.352,-71.8957 170.657,-61.4373 164.505,-64.777"/>
</g>
<!-- Mu -->
<g id="node2" class="node"><title>Mu</title>
<g id="a_node2"><a xlink:href="/type/Mu" xlink:title="Mu">
<ellipse fill="none" stroke="#000000" cx="143.637" cy="-378" rx="27" ry="18"/>
<text text-anchor="middle" x="143.637" y="-374.3" font-family="FreeSans" font-size="14.00" fill="#000000">Mu</text>
</a>
</g>
</g>
<!-- Any -->
<g id="node3" class="node"><title>Any</title>
<g id="a_node3"><a xlink:href="/type/Any" xlink:title="Any">
<ellipse fill="none" stroke="#000000" cx="143.637" cy="-306" rx="27" ry="18"/>
<text text-anchor="middle" x="143.637" y="-302.3" font-family="FreeSans" font-size="14.00" fill="#000000">Any</text>
</a>
</g>
</g>
<!-- Any&#45;&gt;Mu -->
<g id="edge2" class="edge"><title>Any&#45;&gt;Mu</title>
<path fill="none" stroke="#000000" d="M143.637,-324.303C143.637,-332.017 143.637,-341.288 143.637,-349.888"/>
<polygon fill="#000000" stroke="#000000" points="140.137,-349.896 143.637,-359.896 147.137,-349.896 140.137,-349.896"/>
</g>
<!-- Exception&#45;&gt;Any -->
<g id="edge3" class="edge"><title>Exception&#45;&gt;Any</title>
<path fill="none" stroke="#000000" d="M143.637,-252.303C143.637,-260.017 143.637,-269.288 143.637,-277.888"/>
<polygon fill="#000000" stroke="#000000" points="140.137,-277.896 143.637,-287.896 147.137,-277.896 140.137,-277.896"/>
</g>
<!-- X::Comp -->
<g id="node5" class="node"><title>X::Comp</title>
<g id="a_node5"><a xlink:href="/type/X::Comp" xlink:title="X::Comp">
<ellipse fill="none" stroke="#6666ff" cx="216.637" cy="-162" rx="44.6926" ry="18"/>
<text text-anchor="middle" x="216.637" y="-158.3" font-family="FreeSans" font-size="14.00" fill="#6666ff">X::Comp</text>
</a>
</g>
</g>
<!-- X::Comp&#45;&gt;Exception -->
<g id="edge4" class="edge"><title>X::Comp&#45;&gt;Exception</title>
<path fill="none" stroke="#000000" d="M200.072,-178.884C190.527,-188.038 178.357,-199.707 167.764,-209.865"/>
<polygon fill="#000000" stroke="#000000" points="165.185,-207.489 160.389,-216.936 170.03,-212.541 165.185,-207.489"/>
</g>
<!-- X::Syntax&#45;&gt;Exception -->
<g id="edge5" class="edge"><title>X::Syntax&#45;&gt;Exception</title>
<path fill="none" stroke="#000000" d="M175.521,-108.061C169.967,-123.555 162.637,-144 162.637,-144 162.637,-144 154.988,-179.833 149.396,-206.025"/>
<polygon fill="#000000" stroke="#000000" points="145.966,-205.33 147.301,-215.84 152.811,-206.791 145.966,-205.33"/>
</g>
<!-- X::Syntax&#45;&gt;X::Comp -->
<g id="edge7" class="edge"><title>X::Syntax&#45;&gt;X::Comp</title>
<path fill="none" stroke="#6666ff" d="M190.11,-107.945C194.194,-116.113 199.181,-126.088 203.725,-135.176"/>
<polygon fill="#6666ff" stroke="#6666ff" points="200.64,-136.832 208.243,-144.211 206.901,-133.701 200.64,-136.832"/>
</g>
</g>
</svg>
