<?xml version="1.0" encoding="UTF-8" standalone="no"?>
<!DOCTYPE svg PUBLIC "-//W3C//DTD SVG 1.1//EN"
 "http://www.w3.org/Graphics/SVG/1.1/DTD/svg11.dtd">
<!-- Generated by graphviz version 2.38.0 (20140413.2041)
 -->
<!-- Title: perl6&#45;type&#45;graph Pages: 1 -->
<svg width="2723pt" height="1659pt"
 viewBox="0.00 0.00 2722.61 1659.43" xmlns="http://www.w3.org/2000/svg" xmlns:xlink="http://www.w3.org/1999/xlink">
<g id="graph0" class="graph" transform="scale(1 1) rotate(0) translate(1346.58 816.068)">
<title>perl6&#45;type&#45;graph</title>
<polygon fill="white" stroke="none" points="-1346.58,843.359 -1346.58,-816.068 1376.03,-816.068 1376.03,843.359 -1346.58,843.359"/>
<!-- Metamodel::Documenting -->
<g id="node1" class="node"><title>Metamodel::Documenting</title>
<g id="a_node1"><a xlink:href="/type/Metamodel::Documenting" xlink:title="Metamodel::Documenting">
<ellipse fill="none" stroke="#6666ff" cx="-340.02" cy="378.498" rx="111.28" ry="18"/>
<text text-anchor="middle" x="-340.02" y="382.198" font-family="FreeSans" font-size="14.00" fill="#6666ff">Metamodel::Documenting</text>
</a>
</g>
</g>
<!-- Mu -->
<g id="node2" class="node"><title>Mu</title>
<g id="a_node2"><a xlink:href="/type/Mu" xlink:title="Mu">
<ellipse fill="none" stroke="#000000" cx="1173.91" cy="776.218" rx="27" ry="18"/>
<text text-anchor="middle" x="1173.91" y="779.918" font-family="FreeSans" font-size="14.00" fill="#000000">Mu</text>
</a>
</g>
</g>
<!-- Any -->
<g id="node3" class="node"><title>Any</title>
<g id="a_node3"><a xlink:href="/type/Any" xlink:title="Any">
<ellipse fill="none" stroke="#000000" cx="296.183" cy="386.275" rx="27" ry="18"/>
<text text-anchor="middle" x="296.183" y="389.975" font-family="FreeSans" font-size="14.00" fill="#000000">Any</text>
</a>
</g>
</g>
<!-- Any&#45;&gt;Mu -->
<g id="edge1" class="edge"><title>Any&#45;&gt;Mu</title>
<path fill="none" stroke="#000000" d="M318.762,396.306C438.646,449.566 1000.46,699.16 1141.65,761.886"/>
<polygon fill="#000000" stroke="#000000" points="1143.36,758.816 1151.08,766.074 1140.52,765.213 1143.36,758.816"/>
</g>
<!-- Metamodel::Naming -->
<g id="node4" class="node"><title>Metamodel::Naming</title>
<g id="a_node4"><a xlink:href="/type/Metamodel::Naming" xlink:title="Metamodel::Naming">
<ellipse fill="none" stroke="#6666ff" cx="-24.5955" cy="395.954" rx="90.1842" ry="18"/>
<text text-anchor="middle" x="-24.5955" y="399.654" font-family="FreeSans" font-size="14.00" fill="#6666ff">Metamodel::Naming</text>
</a>
</g>
</g>
<!-- Metamodel::Versioning -->
<g id="node5" class="node"><title>Metamodel::Versioning</title>
<g id="a_node5"><a xlink:href="/type/Metamodel::Versioning" xlink:title="Metamodel::Versioning">
<ellipse fill="none" stroke="#6666ff" cx="354.61" cy="28.4255" rx="100.983" ry="18"/>
<text text-anchor="middle" x="354.61" y="32.1255" font-family="FreeSans" font-size="14.00" fill="#6666ff">Metamodel::Versioning</text>
</a>
</g>
</g>
<!-- Metamodel::Stashing -->
<g id="node6" class="node"><title>Metamodel::Stashing</title>
<g id="a_node6"><a xlink:href="/type/Metamodel::Stashing" xlink:title="Metamodel::Stashing">
<ellipse fill="none" stroke="#6666ff" cx="93.7536" cy="89.8868" rx="93.6835" ry="18"/>
<text text-anchor="middle" x="93.7536" y="93.5868" font-family="FreeSans" font-size="14.00" fill="#6666ff">Metamodel::Stashing</text>
</a>
</g>
</g>
<!-- Metamodel::TypePretense -->
<g id="node7" class="node"><title>Metamodel::TypePretense</title>
<g id="a_node7"><a xlink:href="/type/Metamodel::TypePretense" xlink:title="Metamodel::TypePretense">
<ellipse fill="none" stroke="#6666ff" cx="-1199.73" cy="716.318" rx="114.28" ry="18"/>
<text text-anchor="middle" x="-1199.73" y="720.018" font-family="FreeSans" font-size="14.00" fill="#6666ff">Metamodel::TypePretense</text>
</a>
</g>
</g>
<!-- Metamodel::MethodDelegation -->
<g id="node8" class="node"><title>Metamodel::MethodDelegation</title>
<g id="a_node8"><a xlink:href="/type/Metamodel::MethodDelegation" xlink:title="Metamodel::MethodDelegation">
<ellipse fill="none" stroke="#6666ff" cx="170.847" cy="821.359" rx="131.077" ry="18"/>
<text text-anchor="middle" x="170.847" y="825.059" font-family="FreeSans" font-size="14.00" fill="#6666ff">Metamodel::MethodDelegation</text>
</a>
</g>
</g>
<!-- Metamodel::ModuleHOW -->
<g id="node9" class="node"><title>Metamodel::ModuleHOW</title>
<g id="a_node9"><a xlink:href="/type/Metamodel::ModuleHOW" xlink:title="Metamodel::ModuleHOW">
<ellipse fill="none" stroke="#000000" cx="584.085" cy="793.203" rx="111.28" ry="18"/>
<text text-anchor="middle" x="584.085" y="796.903" font-family="FreeSans" font-size="14.00" fill="#000000">Metamodel::ModuleHOW</text>
</a>
</g>
</g>
<!-- Metamodel::ModuleHOW&#45;&gt;Metamodel::Documenting -->
<g id="edge9" class="edge"><title>Metamodel::ModuleHOW&#45;&gt;Metamodel::Documenting</title>
<path fill="none" stroke="#6666ff" d="M546.136,776.173C399.283,710.27 -131.53,472.06 -293.057,399.573"/>
<polygon fill="#6666ff" stroke="#6666ff" points="-294.574,402.728 -302.265,395.441 -291.708,396.342 -294.574,402.728"/>
</g>
<!-- Metamodel::ModuleHOW&#45;&gt;Any -->
<g id="edge2" class="edge"><title>Metamodel::ModuleHOW&#45;&gt;Any</title>
<path fill="none" stroke="#000000" d="M571.343,775.193C525.226,710.01 366.949,486.297 313.77,411.133"/>
<polygon fill="#000000" stroke="#000000" points="310.739,412.909 307.821,402.724 316.454,408.866 310.739,412.909"/>
</g>
<!-- Metamodel::ModuleHOW&#45;&gt;Metamodel::Naming -->
<g id="edge8" class="edge"><title>Metamodel::ModuleHOW&#45;&gt;Metamodel::Naming</title>
<path fill="none" stroke="#6666ff" d="M557.146,775.621C459.03,711.587 120.779,490.831 10.483,418.848"/>
<polygon fill="#6666ff" stroke="#6666ff" points="8.49444,421.729 2.03301,413.333 12.3203,415.867 8.49444,421.729"/>
</g>
<!-- Metamodel::ModuleHOW&#45;&gt;Metamodel::Versioning -->
<g id="edge10" class="edge"><title>Metamodel::ModuleHOW&#45;&gt;Metamodel::Versioning</title>
<path fill="none" stroke="#6666ff" d="M578.639,775.053C548.269,673.838 399.875,179.28 362.945,56.2021"/>
<polygon fill="#6666ff" stroke="#6666ff" points="359.527,56.9903 360.005,46.4062 366.232,54.9784 359.527,56.9903"/>
</g>
<!-- Metamodel::ModuleHOW&#45;&gt;Metamodel::Stashing -->
<g id="edge11" class="edge"><title>Metamodel::ModuleHOW&#45;&gt;Metamodel::Stashing</title>
<path fill="none" stroke="#6666ff" d="M572.578,775.119C521.321,694.562 316.291,372.337 316.291,372.337 316.291,372.337 169.321,185.799 114.256,115.909"/>
<polygon fill="#6666ff" stroke="#6666ff" points="111.452,118.006 108.013,107.985 116.951,113.674 111.452,118.006"/>
</g>
<!-- Metamodel::ModuleHOW&#45;&gt;Metamodel::TypePretense -->
<g id="edge12" class="edge"><title>Metamodel::ModuleHOW&#45;&gt;Metamodel::TypePretense</title>
<path fill="none" stroke="#6666ff" d="M476.517,788.567C162.838,775.047 -749.483,735.724 -1079.12,721.517"/>
<polygon fill="#6666ff" stroke="#6666ff" points="-1079.34,725.011 -1089.18,721.083 -1079.04,718.017 -1079.34,725.011"/>
</g>
<!-- Metamodel::ModuleHOW&#45;&gt;Metamodel::MethodDelegation -->
<g id="edge13" class="edge"><title>Metamodel::ModuleHOW&#45;&gt;Metamodel::MethodDelegation</title>
<path fill="none" stroke="#6666ff" d="M481.405,800.199C426.158,803.963 357.503,808.641 298.805,812.641"/>
<polygon fill="#6666ff" stroke="#6666ff" points="298.938,816.14 288.723,813.328 298.462,809.156 298.938,816.14"/>
</g>
<!-- Metamodel::MultipleInheritance -->
<g id="node10" class="node"><title>Metamodel::MultipleInheritance</title>
<g id="a_node10"><a xlink:href="/type/Metamodel::MultipleInheritance" xlink:title="Metamodel::MultipleInheritance">
<ellipse fill="none" stroke="#6666ff" cx="-159.748" cy="47.2203" rx="133.776" ry="18"/>
<text text-anchor="middle" x="-159.748" y="50.9203" font-family="FreeSans" font-size="14.00" fill="#6666ff">Metamodel::MultipleInheritance</text>
</a>
</g>
</g>
<!-- Metamodel::C3MRO -->
<g id="node11" class="node"><title>Metamodel::C3MRO</title>
<g id="a_node11"><a xlink:href="/type/Metamodel::C3MRO" xlink:title="Metamodel::C3MRO">
<ellipse fill="none" stroke="#6666ff" cx="315.566" cy="-320.68" rx="92.0841" ry="18"/>
<text text-anchor="middle" x="315.566" y="-316.98" font-family="FreeSans" font-size="14.00" fill="#6666ff">Metamodel::C3MRO</text>
</a>
</g>
</g>
<!-- Metamodel::MROBasedMethodDispatch -->
<g id="node12" class="node"><title>Metamodel::MROBasedMethodDispatch</title>
<g id="a_node12"><a xlink:href="/type/Metamodel::MROBasedMethodDispatch" xlink:title="Metamodel::MROBasedMethodDispatch">
<ellipse fill="none" stroke="#6666ff" cx="677.237" cy="-161.833" rx="169.77" ry="18"/>
<text text-anchor="middle" x="677.237" y="-158.133" font-family="FreeSans" font-size="14.00" fill="#6666ff">Metamodel::MROBasedMethodDispatch</text>
</a>
</g>
</g>
<!-- Metamodel::MROBasedTypeChecking -->
<g id="node13" class="node"><title>Metamodel::MROBasedTypeChecking</title>
<g id="a_node13"><a xlink:href="/type/Metamodel::MROBasedTypeChecking" xlink:title="Metamodel::MROBasedTypeChecking">
<ellipse fill="none" stroke="#6666ff" cx="1208.9" cy="-189.383" rx="163.271" ry="18"/>
<text text-anchor="middle" x="1208.9" y="-185.683" font-family="FreeSans" font-size="14.00" fill="#6666ff">Metamodel::MROBasedTypeChecking</text>
</a>
</g>
</g>
<!-- Metamodel::NativeHOW -->
<g id="node14" class="node"><title>Metamodel::NativeHOW</title>
<g id="a_node14"><a xlink:href="/type/Metamodel::NativeHOW" xlink:title="Metamodel::NativeHOW">
<ellipse fill="none" stroke="#000000" cx="666.063" cy="289.867" rx="107.482" ry="18"/>
<text text-anchor="middle" x="666.063" y="293.567" font-family="FreeSans" font-size="14.00" fill="#000000">Metamodel::NativeHOW</text>
</a>
</g>
</g>
<!-- Metamodel::NativeHOW&#45;&gt;Metamodel::Documenting -->
<g id="edge15" class="edge"><title>Metamodel::NativeHOW&#45;&gt;Metamodel::Documenting</title>
<path fill="none" stroke="#6666ff" d="M570.96,298.245C383.19,314.787 -34.0653,351.545 -231.919,368.974"/>
<polygon fill="#6666ff" stroke="#6666ff" points="-231.77,372.475 -242.038,369.866 -232.384,365.502 -231.77,372.475"/>
</g>
<!-- Metamodel::NativeHOW&#45;&gt;Any -->
<g id="edge3" class="edge"><title>Metamodel::NativeHOW&#45;&gt;Any</title>
<path fill="none" stroke="#000000" d="M607.862,305.037C530.198,325.28 395.078,360.498 331.355,377.107"/>
<polygon fill="#000000" stroke="#000000" points="331.958,380.567 321.399,379.702 330.193,373.793 331.958,380.567"/>
</g>
<!-- Metamodel::NativeHOW&#45;&gt;Metamodel::Naming -->
<g id="edge14" class="edge"><title>Metamodel::NativeHOW&#45;&gt;Metamodel::Naming</title>
<path fill="none" stroke="#6666ff" d="M586.835,302.036C454.748,322.326 190.867,362.858 57.1353,383.4"/>
<polygon fill="#6666ff" stroke="#6666ff" points="57.3684,386.905 46.9529,384.964 56.3056,379.986 57.3684,386.905"/>
</g>
<!-- Metamodel::NativeHOW&#45;&gt;Metamodel::Versioning -->
<g id="edge16" class="edge"><title>Metamodel::NativeHOW&#45;&gt;Metamodel::Versioning</title>
<path fill="none" stroke="#6666ff" d="M644.655,271.897C590.071,226.078 445.639,104.838 383.598,52.7588"/>
<polygon fill="#6666ff" stroke="#6666ff" points="381.164,55.2856 375.755,46.1754 385.665,49.9241 381.164,55.2856"/>
</g>
<!-- Metamodel::NativeHOW&#45;&gt;Metamodel::Stashing -->
<g id="edge17" class="edge"><title>Metamodel::NativeHOW&#45;&gt;Metamodel::Stashing</title>
<path fill="none" stroke="#6666ff" d="M619.228,273.502C514.406,236.874 261.314,148.437 149.015,109.196"/>
<polygon fill="#6666ff" stroke="#6666ff" points="147.525,112.384 139.239,105.781 149.834,105.775 147.525,112.384"/>
</g>
<!-- Metamodel::NativeHOW&#45;&gt;Metamodel::MultipleInheritance -->
<g id="edge18" class="edge"><title>Metamodel::NativeHOW&#45;&gt;Metamodel::MultipleInheritance</title>
<path fill="none" stroke="#6666ff" d="M612.36,274.24C458.409,229.441 26.5026,103.758 26.5026,103.758 26.5026,103.758 -41.6534,83.069 -95.5066,66.7214"/>
<polygon fill="#6666ff" stroke="#6666ff" points="-96.8239,69.9793 -105.376,63.7254 -94.7905,63.2811 -96.8239,69.9793"/>
</g>
<!-- Metamodel::NativeHOW&#45;&gt;Metamodel::C3MRO -->
<g id="edge19" class="edge"><title>Metamodel::NativeHOW&#45;&gt;Metamodel::C3MRO</title>
<path fill="none" stroke="#6666ff" d="M655.763,271.925C606.036,185.304 390.75,-189.713 330.998,-293.798"/>
<polygon fill="#6666ff" stroke="#6666ff" points="327.81,-292.322 325.866,-302.737 333.88,-295.807 327.81,-292.322"/>
</g>
<!-- Metamodel::NativeHOW&#45;&gt;Metamodel::MROBasedMethodDispatch -->
<g id="edge20" class="edge"><title>Metamodel::NativeHOW&#45;&gt;Metamodel::MROBasedMethodDispatch</title>
<path fill="none" stroke="#6666ff" d="M666.514,271.6C668.239,201.87 674.418,-47.9024 676.526,-133.112"/>
<polygon fill="#6666ff" stroke="#6666ff" points="673.033,-133.428 676.779,-143.339 680.031,-133.255 673.033,-133.428"/>
</g>
<!-- Metamodel::NativeHOW&#45;&gt;Metamodel::MROBasedTypeChecking -->
<g id="edge21" class="edge"><title>Metamodel::NativeHOW&#45;&gt;Metamodel::MROBasedTypeChecking</title>
<path fill="none" stroke="#6666ff" d="M686.352,271.954C769.567,198.487 1084.85,-79.8632 1180.93,-164.693"/>
<polygon fill="#6666ff" stroke="#6666ff" points="1178.69,-167.385 1188.51,-171.38 1183.33,-162.138 1178.69,-167.385"/>
</g>
<!-- Metamodel::SubsetHOW -->
<g id="node15" class="node"><title>Metamodel::SubsetHOW</title>
<g id="a_node15"><a xlink:href="/type/Metamodel::SubsetHOW" xlink:title="Metamodel::SubsetHOW">
<ellipse fill="none" stroke="#000000" cx="-618.703" cy="802.773" rx="109.381" ry="18"/>
<text text-anchor="middle" x="-618.703" y="806.473" font-family="FreeSans" font-size="14.00" fill="#000000">Metamodel::SubsetHOW</text>
</a>
</g>
</g>
<!-- Metamodel::SubsetHOW&#45;&gt;Metamodel::Documenting -->
<g id="edge23" class="edge"><title>Metamodel::SubsetHOW&#45;&gt;Metamodel::Documenting</title>
<path fill="none" stroke="#6666ff" d="M-606.907,784.814C-563.114,718.143 -409.716,484.606 -357.544,405.177"/>
<polygon fill="#6666ff" stroke="#6666ff" points="-360.391,403.136 -351.975,396.699 -354.54,406.979 -360.391,403.136"/>
</g>
<!-- Metamodel::SubsetHOW&#45;&gt;Any -->
<g id="edge4" class="edge"><title>Metamodel::SubsetHOW&#45;&gt;Any</title>
<path fill="none" stroke="#000000" d="M-581.42,785.8C-431.627,717.608 124.996,464.207 264.379,400.753"/>
<polygon fill="#000000" stroke="#000000" points="263.131,397.476 273.683,396.518 266.031,403.847 263.131,397.476"/>
</g>
<!-- Metamodel::SubsetHOW&#45;&gt;Metamodel::Naming -->
<g id="edge22" class="edge"><title>Metamodel::SubsetHOW&#45;&gt;Metamodel::Naming</title>
<path fill="none" stroke="#6666ff" d="M-592.793,785.031C-497.429,719.73 -165.937,492.738 -58.4943,419.166"/>
<polygon fill="#6666ff" stroke="#6666ff" points="-60.2028,416.094 -49.9743,413.332 -56.2478,421.87 -60.2028,416.094"/>
</g>
<!-- Metamodel::MethodContainer -->
<g id="node16" class="node"><title>Metamodel::MethodContainer</title>
<g id="a_node16"><a xlink:href="/type/Metamodel::MethodContainer" xlink:title="Metamodel::MethodContainer">
<ellipse fill="none" stroke="#6666ff" cx="-321.16" cy="-314.094" rx="127.277" ry="18"/>
<text text-anchor="middle" x="-321.16" y="-310.394" font-family="FreeSans" font-size="14.00" fill="#6666ff">Metamodel::MethodContainer</text>
</a>
</g>
</g>
<!-- Metamodel::PrivateMethodContainer -->
<g id="node17" class="node"><title>Metamodel::PrivateMethodContainer</title>
<g id="a_node17"><a xlink:href="/type/Metamodel::PrivateMethodContainer" xlink:title="Metamodel::PrivateMethodContainer">
<ellipse fill="none" stroke="#6666ff" cx="-434.988" cy="29.2728" rx="154.873" ry="18"/>
<text text-anchor="middle" x="-434.988" y="32.9728" font-family="FreeSans" font-size="14.00" fill="#6666ff">Metamodel::PrivateMethodContainer</text>
</a>
</g>
</g>
<!-- Metamodel::MultiMethodContainer -->
<g id="node18" class="node"><title>Metamodel::MultiMethodContainer</title>
<g id="a_node18"><a xlink:href="/type/Metamodel::MultiMethodContainer" xlink:title="Metamodel::MultiMethodContainer">
<ellipse fill="none" stroke="#6666ff" cx="-662.439" cy="-720.664" rx="146.474" ry="18"/>
<text text-anchor="middle" x="-662.439" y="-716.964" font-family="FreeSans" font-size="14.00" fill="#6666ff">Metamodel::MultiMethodContainer</text>
</a>
</g>
</g>
<!-- Metamodel::AttributeContainer -->
<g id="node19" class="node"><title>Metamodel::AttributeContainer</title>
<g id="a_node19"><a xlink:href="/type/Metamodel::AttributeContainer" xlink:title="Metamodel::AttributeContainer">
<ellipse fill="none" stroke="#6666ff" cx="-727.633" cy="-209.24" rx="129.977" ry="18"/>
<text text-anchor="middle" x="-727.633" y="-205.54" font-family="FreeSans" font-size="14.00" fill="#6666ff">Metamodel::AttributeContainer</text>
</a>
</g>
</g>
<!-- Metamodel::RoleContainer -->
<g id="node20" class="node"><title>Metamodel::RoleContainer</title>
<g id="a_node20"><a xlink:href="/type/Metamodel::RoleContainer" xlink:title="Metamodel::RoleContainer">
<ellipse fill="none" stroke="#6666ff" cx="-1213.32" cy="-636.04" rx="115.88" ry="18"/>
<text text-anchor="middle" x="-1213.32" y="-632.34" font-family="FreeSans" font-size="14.00" fill="#6666ff">Metamodel::RoleContainer</text>
</a>
</g>
</g>
<!-- Metamodel::RolePunning -->
<g id="node21" class="node"><title>Metamodel::RolePunning</title>
<g id="a_node21"><a xlink:href="/type/Metamodel::RolePunning" xlink:title="Metamodel::RolePunning">
<ellipse fill="none" stroke="#6666ff" cx="-1232.74" cy="43.2182" rx="109.681" ry="18"/>
<text text-anchor="middle" x="-1232.74" y="46.9182" font-family="FreeSans" font-size="14.00" fill="#6666ff">Metamodel::RolePunning</text>
</a>
</g>
</g>
<!-- Metamodel::ParametricRoleHOW -->
<g id="node22" class="node"><title>Metamodel::ParametricRoleHOW</title>
<g id="a_node22"><a xlink:href="/type/Metamodel::ParametricRoleHOW" xlink:title="Metamodel::ParametricRoleHOW">
<ellipse fill="none" stroke="#000000" cx="-728.145" cy="288.201" rx="142.175" ry="18"/>
<text text-anchor="middle" x="-728.145" y="291.901" font-family="FreeSans" font-size="14.00" fill="#000000">Metamodel::ParametricRoleHOW</text>
</a>
</g>
</g>
<!-- Metamodel::ParametricRoleHOW&#45;&gt;Metamodel::Documenting -->
<g id="edge25" class="edge"><title>Metamodel::ParametricRoleHOW&#45;&gt;Metamodel::Documenting</title>
<path fill="none" stroke="#6666ff" d="M-660.095,304.033C-591.054,320.095 -484.525,344.879 -413.57,361.386"/>
<polygon fill="#6666ff" stroke="#6666ff" points="-412.749,357.984 -403.802,363.659 -414.335,364.802 -412.749,357.984"/>
</g>
<!-- Metamodel::ParametricRoleHOW&#45;&gt;Any -->
<g id="edge5" class="edge"><title>Metamodel::ParametricRoleHOW&#45;&gt;Any</title>
<path fill="none" stroke="#000000" d="M-614.61,299.072C-386.415,320.92 118.082,369.223 258.987,382.714"/>
<polygon fill="#000000" stroke="#000000" points="259.627,379.259 269.248,383.696 258.96,386.227 259.627,379.259"/>
</g>
<!-- Metamodel::ParametricRoleHOW&#45;&gt;Metamodel::Naming -->
<g id="edge24" class="edge"><title>Metamodel::ParametricRoleHOW&#45;&gt;Metamodel::Naming</title>
<path fill="none" stroke="#6666ff" d="M-637.25,302.123C-499.224,323.262 -238.866,363.137 -106.43,383.421"/>
<polygon fill="#6666ff" stroke="#6666ff" points="-105.699,379.992 -96.3437,384.965 -106.758,386.911 -105.699,379.992"/>
</g>
<!-- Metamodel::ParametricRoleHOW&#45;&gt;Metamodel::Versioning -->
<g id="edge26" class="edge"><title>Metamodel::ParametricRoleHOW&#45;&gt;Metamodel::Versioning</title>
<path fill="none" stroke="#6666ff" d="M-669.567,271.73C-492.287,221.882 26.3833,76.0398 26.3833,76.0398 26.3833,76.0398 168.642,55.403 265.849,41.3016"/>
<polygon fill="#6666ff" stroke="#6666ff" points="265.593,37.8022 275.992,39.8303 266.598,44.7297 265.593,37.8022"/>
</g>
<!-- Metamodel::ParametricRoleHOW&#45;&gt;Metamodel::Stashing -->
<g id="edge33" class="edge"><title>Metamodel::ParametricRoleHOW&#45;&gt;Metamodel::Stashing</title>
<path fill="none" stroke="#6666ff" d="M-661.929,272.224C-508.577,235.222 -130.308,143.95 25.2518,106.415"/>
<polygon fill="#6666ff" stroke="#6666ff" points="24.6294,102.965 35.1714,104.022 26.2714,109.77 24.6294,102.965"/>
</g>
<!-- Metamodel::ParametricRoleHOW&#45;&gt;Metamodel::TypePretense -->
<g id="edge34" class="edge"><title>Metamodel::ParametricRoleHOW&#45;&gt;Metamodel::TypePretense</title>
<path fill="none" stroke="#6666ff" d="M-747.808,306.052C-822.186,373.574 -1086.45,613.48 -1172.46,691.562"/>
<polygon fill="#6666ff" stroke="#6666ff" points="-1170.23,694.261 -1179.98,698.391 -1174.93,689.078 -1170.23,694.261"/>
</g>
<!-- Metamodel::ParametricRoleHOW&#45;&gt;Metamodel::MultipleInheritance -->
<g id="edge32" class="edge"><title>Metamodel::ParametricRoleHOW&#45;&gt;Metamodel::MultipleInheritance</title>
<path fill="none" stroke="#6666ff" d="M-687.268,270.871C-585.364,227.667 -320.31,115.293 -209.54,68.3303"/>
<polygon fill="#6666ff" stroke="#6666ff" points="-210.828,65.0751 -200.255,64.394 -208.096,71.5198 -210.828,65.0751"/>
</g>
<!-- Metamodel::ParametricRoleHOW&#45;&gt;Metamodel::MethodContainer -->
<g id="edge27" class="edge"><title>Metamodel::ParametricRoleHOW&#45;&gt;Metamodel::MethodContainer</title>
<path fill="none" stroke="#6666ff" d="M-718.521,269.997C-687.366,211.068 -591.274,29.3111 -591.274,29.3111 -591.274,29.3111 -404.722,-207.858 -341.686,-287.999"/>
<polygon fill="#6666ff" stroke="#6666ff" points="-344.235,-290.419 -335.302,-296.115 -338.733,-286.091 -344.235,-290.419"/>
</g>
<!-- Metamodel::ParametricRoleHOW&#45;&gt;Metamodel::PrivateMethodContainer -->
<g id="edge28" class="edge"><title>Metamodel::ParametricRoleHOW&#45;&gt;Metamodel::PrivateMethodContainer</title>
<path fill="none" stroke="#6666ff" d="M-707.531,269.994C-656.123,224.588 -522.164,106.27 -463.361,54.3335"/>
<polygon fill="#6666ff" stroke="#6666ff" points="-465.391,51.4568 -455.579,47.4601 -460.757,56.7033 -465.391,51.4568"/>
</g>
<!-- Metamodel::ParametricRoleHOW&#45;&gt;Metamodel::MultiMethodContainer -->
<g id="edge29" class="edge"><title>Metamodel::ParametricRoleHOW&#45;&gt;Metamodel::MultiMethodContainer</title>
<path fill="none" stroke="#6666ff" d="M-723.366,270.203C-699.683,181.019 -596.045,-209.256 -596.045,-209.256 -596.045,-209.256 -644.839,-585.102 -658.768,-692.385"/>
<polygon fill="#6666ff" stroke="#6666ff" points="-662.259,-692.095 -660.076,-702.463 -655.317,-692.996 -662.259,-692.095"/>
</g>
<!-- Metamodel::ParametricRoleHOW&#45;&gt;Metamodel::AttributeContainer -->
<g id="edge30" class="edge"><title>Metamodel::ParametricRoleHOW&#45;&gt;Metamodel::AttributeContainer</title>
<path fill="none" stroke="#6666ff" d="M-728.126,269.907C-728.049,194.869 -727.756,-89.6626 -727.663,-180.901"/>
<polygon fill="#6666ff" stroke="#6666ff" points="-731.162,-181.046 -727.652,-191.042 -724.162,-181.039 -731.162,-181.046"/>
</g>
<!-- Metamodel::ParametricRoleHOW&#45;&gt;Metamodel::RoleContainer -->
<g id="edge31" class="edge"><title>Metamodel::ParametricRoleHOW&#45;&gt;Metamodel::RoleContainer</title>
<path fill="none" stroke="#6666ff" d="M-737.619,270.154C-797.754,155.598 -1126.11,-469.902 -1198.99,-608.735"/>
<polygon fill="#6666ff" stroke="#6666ff" points="-1202.24,-607.396 -1203.79,-617.877 -1196.04,-610.649 -1202.24,-607.396"/>
</g>
<!-- Metamodel::ParametricRoleHOW&#45;&gt;Metamodel::RolePunning -->
<g id="edge35" class="edge"><title>Metamodel::ParametricRoleHOW&#45;&gt;Metamodel::RolePunning</title>
<path fill="none" stroke="#6666ff" d="M-764.03,270.779C-854.113,227.043 -1089.62,112.703 -1188.27,64.8109"/>
<polygon fill="#6666ff" stroke="#6666ff" points="-1189.91,67.9043 -1197.38,60.3882 -1186.85,61.6072 -1189.91,67.9043"/>
</g>
<!-- Metamodel::Finalization -->
<g id="node23" class="node"><title>Metamodel::Finalization</title>
<g id="a_node23"><a xlink:href="/type/Metamodel::Finalization" xlink:title="Metamodel::Finalization">
<ellipse fill="none" stroke="#6666ff" cx="241.799" cy="-794.068" rx="103.982" ry="18"/>
<text text-anchor="middle" x="241.799" y="-790.368" font-family="FreeSans" font-size="14.00" fill="#6666ff">Metamodel::Finalization</text>
</a>
</g>
</g>
<!-- Metamodel::DefaultParent -->
<g id="node24" class="node"><title>Metamodel::DefaultParent</title>
<g id="a_node24"><a xlink:href="/type/Metamodel::DefaultParent" xlink:title="Metamodel::DefaultParent">
<ellipse fill="none" stroke="#6666ff" cx="638.392" cy="-684.372" rx="113.18" ry="18"/>
<text text-anchor="middle" x="638.392" y="-680.672" font-family="FreeSans" font-size="14.00" fill="#6666ff">Metamodel::DefaultParent</text>
</a>
</g>
</g>
<!-- Metamodel::Trusting -->
<g id="node25" class="node"><title>Metamodel::Trusting</title>
<g id="a_node25"><a xlink:href="/type/Metamodel::Trusting" xlink:title="Metamodel::Trusting">
<ellipse fill="none" stroke="#6666ff" cx="-4.73933" cy="-531.611" rx="91.784" ry="18"/>
<text text-anchor="middle" x="-4.73933" y="-527.911" font-family="FreeSans" font-size="14.00" fill="#6666ff">Metamodel::Trusting</text>
</a>
</g>
</g>
<!-- Metamodel::BUILDPLAN -->
<g id="node26" class="node"><title>Metamodel::BUILDPLAN</title>
<g id="a_node26"><a xlink:href="/type/Metamodel::BUILDPLAN" xlink:title="Metamodel::BUILDPLAN">
<ellipse fill="none" stroke="#6666ff" cx="1208.81" cy="256.455" rx="109.681" ry="18"/>
<text text-anchor="middle" x="1208.81" y="260.155" font-family="FreeSans" font-size="14.00" fill="#6666ff">Metamodel::BUILDPLAN</text>
</a>
</g>
</g>
<!-- Metamodel::Mixins -->
<g id="node27" class="node"><title>Metamodel::Mixins</title>
<g id="a_node27"><a xlink:href="/type/Metamodel::Mixins" xlink:title="Metamodel::Mixins">
<ellipse fill="none" stroke="#6666ff" cx="1188.81" cy="-707.853" rx="85.2851" ry="18"/>
<text text-anchor="middle" x="1188.81" y="-704.153" font-family="FreeSans" font-size="14.00" fill="#6666ff">Metamodel::Mixins</text>
</a>
</g>
</g>
<!-- Metamodel::BoolificationProtocol -->
<g id="node28" class="node"><title>Metamodel::BoolificationProtocol</title>
<g id="a_node28"><a xlink:href="/type/Metamodel::BoolificationProtocol" xlink:title="Metamodel::BoolificationProtocol">
<ellipse fill="none" stroke="#6666ff" cx="-248.744" cy="-785.076" rx="139.175" ry="18"/>
<text text-anchor="middle" x="-248.744" y="-781.376" font-family="FreeSans" font-size="14.00" fill="#6666ff">Metamodel::BoolificationProtocol</text>
</a>
</g>
</g>
<!-- Metamodel::ClassHOW -->
<g id="node29" class="node"><title>Metamodel::ClassHOW</title>
<g id="a_node29"><a xlink:href="/type/Metamodel::ClassHOW" xlink:title="Metamodel::ClassHOW">
<ellipse fill="none" stroke="#000000" cx="11.277" cy="-213.092" rx="103.982" ry="18"/>
<text text-anchor="middle" x="11.277" y="-209.392" font-family="FreeSans" font-size="14.00" fill="#000000">Metamodel::ClassHOW</text>
</a>
</g>
</g>
<!-- Metamodel::ClassHOW&#45;&gt;Metamodel::Documenting -->
<g id="edge37" class="edge"><title>Metamodel::ClassHOW&#45;&gt;Metamodel::Documenting</title>
<path fill="none" stroke="#6666ff" d="M8.77788,-194.797C0.688208,-135.574 -24.2631,47.0888 -24.2631,47.0888 -24.2631,47.0888 -242.229,275.859 -315.971,353.256"/>
<polygon fill="#6666ff" stroke="#6666ff" points="-313.611,355.854 -323.043,360.68 -318.679,351.025 -313.611,355.854"/>
</g>
<!-- Metamodel::ClassHOW&#45;&gt;Any -->
<g id="edge6" class="edge"><title>Metamodel::ClassHOW&#45;&gt;Any</title>
<path fill="none" stroke="#000000" d="M21.8589,-195.048C60.1076,-129.826 188.945,89.8694 188.945,89.8694 188.945,89.8694 259.88,285.933 286.366,359.14"/>
<polygon fill="#000000" stroke="#000000" points="289.685,358.027 289.796,368.621 283.103,360.408 289.685,358.027"/>
</g>
<!-- Metamodel::ClassHOW&#45;&gt;Metamodel::Naming -->
<g id="edge36" class="edge"><title>Metamodel::ClassHOW&#45;&gt;Metamodel::Naming</title>
<path fill="none" stroke="#6666ff" d="M10.2034,-194.865C5.10295,-108.269 -16.6912,261.753 -22.9243,367.579"/>
<polygon fill="#6666ff" stroke="#6666ff" points="-19.4441,368.021 -23.5261,377.797 -26.432,367.609 -19.4441,368.021"/>
</g>
<!-- Metamodel::ClassHOW&#45;&gt;Metamodel::Versioning -->
<g id="edge38" class="edge"><title>Metamodel::ClassHOW&#45;&gt;Metamodel::Versioning</title>
<path fill="none" stroke="#6666ff" d="M36.2452,-195.528C97.0654,-152.744 252.911,-43.1148 321.436,5.08946"/>
<polygon fill="#6666ff" stroke="#6666ff" points="323.57,2.31115 329.735,10.9274 319.543,8.03649 323.57,2.31115"/>
</g>
<!-- Metamodel::ClassHOW&#45;&gt;Metamodel::Stashing -->
<g id="edge39" class="edge"><title>Metamodel::ClassHOW&#45;&gt;Metamodel::Stashing</title>
<path fill="none" stroke="#6666ff" d="M16.1893,-195.047C30.0235,-144.227 69.3867,0.374547 86.099,61.7676"/>
<polygon fill="#6666ff" stroke="#6666ff" points="89.5132,60.9847 88.7628,71.5529 82.759,62.8234 89.5132,60.9847"/>
</g>
<!-- Metamodel::ClassHOW&#45;&gt;Metamodel::MultipleInheritance -->
<g id="edge46" class="edge"><title>Metamodel::ClassHOW&#45;&gt;Metamodel::MultipleInheritance</title>
<path fill="none" stroke="#6666ff" d="M-0.478263,-195.2C-30.0132,-150.246 -107.453,-32.3769 -142.307,20.6732"/>
<polygon fill="#6666ff" stroke="#6666ff" points="-139.494,22.767 -147.911,29.2028 -145.345,18.9233 -139.494,22.767"/>
</g>
<!-- Metamodel::ClassHOW&#45;&gt;Metamodel::C3MRO -->
<g id="edge48" class="edge"><title>Metamodel::ClassHOW&#45;&gt;Metamodel::C3MRO</title>
<path fill="none" stroke="#6666ff" d="M57.1616,-229.316C111.779,-248.627 202.888,-280.84 261.048,-301.404"/>
<polygon fill="#6666ff" stroke="#6666ff" points="260.203,-304.817 270.797,-304.851 262.536,-298.218 260.203,-304.817"/>
</g>
<!-- Metamodel::ClassHOW&#45;&gt;Metamodel::MROBasedMethodDispatch -->
<g id="edge49" class="edge"><title>Metamodel::ClassHOW&#45;&gt;Metamodel::MROBasedMethodDispatch</title>
<path fill="none" stroke="#6666ff" d="M106.339,-205.775C216.932,-197.263 400.82,-183.109 529.945,-173.17"/>
<polygon fill="#6666ff" stroke="#6666ff" points="530.221,-176.659 539.923,-172.402 529.684,-169.68 530.221,-176.659"/>
</g>
<!-- Metamodel::ClassHOW&#45;&gt;Metamodel::MROBasedTypeChecking -->
<g id="edge50" class="edge"><title>Metamodel::ClassHOW&#45;&gt;Metamodel::MROBasedTypeChecking</title>
<path fill="none" stroke="#6666ff" d="M114.682,-211.045C320.989,-206.961 785.53,-197.764 1037.9,-192.768"/>
<polygon fill="#6666ff" stroke="#6666ff" points="1038.34,-196.26 1048.27,-192.563 1038.2,-189.261 1038.34,-196.26"/>
</g>
<!-- Metamodel::ClassHOW&#45;&gt;Metamodel::MethodContainer -->
<g id="edge42" class="edge"><title>Metamodel::ClassHOW&#45;&gt;Metamodel::MethodContainer</title>
<path fill="none" stroke="#6666ff" d="M-40.3015,-228.763C-98.8135,-246.54 -194.279,-275.545 -257.409,-294.725"/>
<polygon fill="#6666ff" stroke="#6666ff" points="-258.702,-291.46 -267.253,-297.716 -256.667,-298.158 -258.702,-291.46"/>
</g>
<!-- Metamodel::ClassHOW&#45;&gt;Metamodel::PrivateMethodContainer -->
<g id="edge43" class="edge"><title>Metamodel::ClassHOW&#45;&gt;Metamodel::PrivateMethodContainer</title>
<path fill="none" stroke="#6666ff" d="M-20.4595,-195.856C-99.5036,-152.928 -305.149,-41.242 -393.577,6.78261"/>
<polygon fill="#6666ff" stroke="#6666ff" points="-392.056,9.93931 -402.514,11.6362 -395.397,3.78795 -392.056,9.93931"/>
</g>
<!-- Metamodel::ClassHOW&#45;&gt;Metamodel::MultiMethodContainer -->
<g id="edge44" class="edge"><title>Metamodel::ClassHOW&#45;&gt;Metamodel::MultiMethodContainer</title>
<path fill="none" stroke="#6666ff" d="M-12.3059,-230.859C-113.869,-307.376 -514.061,-608.877 -630.499,-696.6"/>
<polygon fill="#6666ff" stroke="#6666ff" points="-632.817,-693.965 -638.698,-702.778 -628.605,-699.556 -632.817,-693.965"/>
</g>
<!-- Metamodel::ClassHOW&#45;&gt;Metamodel::AttributeContainer -->
<g id="edge40" class="edge"><title>Metamodel::ClassHOW&#45;&gt;Metamodel::AttributeContainer</title>
<path fill="none" stroke="#6666ff" d="M-93.0236,-212.548C-222.294,-211.874 -443.101,-210.723 -587.183,-209.972"/>
<polygon fill="#6666ff" stroke="#6666ff" points="-587.404,-206.471 -597.422,-209.918 -587.44,-213.471 -587.404,-206.471"/>
</g>
<!-- Metamodel::ClassHOW&#45;&gt;Metamodel::RoleContainer -->
<g id="edge45" class="edge"><title>Metamodel::ClassHOW&#45;&gt;Metamodel::RoleContainer</title>
<path fill="none" stroke="#6666ff" d="M-23.2362,-230.257C-81.2824,-259.126 -192.177,-314.278 -192.177,-314.278 -192.177,-314.278 -230.81,-328.083 -230.81,-328.083 -230.81,-328.083 -937.121,-549.468 -1152.02,-616.827"/>
<polygon fill="#6666ff" stroke="#6666ff" points="-1153.38,-613.586 -1161.88,-619.917 -1151.29,-620.265 -1153.38,-613.586"/>
</g>
<!-- Metamodel::ClassHOW&#45;&gt;Metamodel::Finalization -->
<g id="edge41" class="edge"><title>Metamodel::ClassHOW&#45;&gt;Metamodel::Finalization</title>
<path fill="none" stroke="#6666ff" d="M18.4288,-231.117C51.6015,-314.721 190.568,-664.953 230.826,-766.415"/>
<polygon fill="#6666ff" stroke="#6666ff" points="227.675,-767.963 234.617,-775.967 234.182,-765.381 227.675,-767.963"/>
</g>
<!-- Metamodel::ClassHOW&#45;&gt;Metamodel::DefaultParent -->
<g id="edge47" class="edge"><title>Metamodel::ClassHOW&#45;&gt;Metamodel::DefaultParent</title>
<path fill="none" stroke="#6666ff" d="M34.7161,-230.707C131.044,-303.098 496.546,-577.774 606.751,-660.593"/>
<polygon fill="#6666ff" stroke="#6666ff" points="604.738,-663.459 614.835,-666.669 608.944,-657.863 604.738,-663.459"/>
</g>
<!-- Metamodel::ClassHOW&#45;&gt;Metamodel::Trusting -->
<g id="edge51" class="edge"><title>Metamodel::ClassHOW&#45;&gt;Metamodel::Trusting</title>
<path fill="none" stroke="#6666ff" d="M10.37,-231.13C7.71137,-284.002 -0.078128,-438.913 -3.30929,-503.171"/>
<polygon fill="#6666ff" stroke="#6666ff" points="-6.81571,-503.213 -3.82242,-513.376 0.175455,-503.565 -6.81571,-503.213"/>
</g>
<!-- Metamodel::ClassHOW&#45;&gt;Metamodel::BUILDPLAN -->
<g id="edge52" class="edge"><title>Metamodel::ClassHOW&#45;&gt;Metamodel::BUILDPLAN</title>
<path fill="none" stroke="#6666ff" d="M53.5461,-196.519C236.099,-124.941 956.663,157.589 1156.93,236.112"/>
<polygon fill="#6666ff" stroke="#6666ff" points="1158.31,232.895 1166.34,239.804 1155.76,239.412 1158.31,232.895"/>
</g>
<!-- Metamodel::ClassHOW&#45;&gt;Metamodel::Mixins -->
<g id="edge53" class="edge"><title>Metamodel::ClassHOW&#45;&gt;Metamodel::Mixins</title>
<path fill="none" stroke="#6666ff" d="M44.8006,-230.223C110.266,-263.677 248.773,-334.455 248.773,-334.455 248.773,-334.455 945.57,-611.233 1139.34,-688.203"/>
<polygon fill="#6666ff" stroke="#6666ff" points="1138.14,-691.489 1148.72,-691.928 1140.72,-684.984 1138.14,-691.489"/>
</g>
<!-- Metamodel::ClassHOW&#45;&gt;Metamodel::BoolificationProtocol -->
<g id="edge54" class="edge"><title>Metamodel::ClassHOW&#45;&gt;Metamodel::BoolificationProtocol</title>
<path fill="none" stroke="#6666ff" d="M3.06563,-231.155C-34.6123,-314.038 -191.044,-658.149 -236.379,-757.877"/>
<polygon fill="#6666ff" stroke="#6666ff" points="-239.578,-756.456 -240.53,-767.008 -233.206,-759.353 -239.578,-756.456"/>
</g>
<!-- Metamodel::PackageHOW -->
<g id="node30" class="node"><title>Metamodel::PackageHOW</title>
<g id="a_node30"><a xlink:href="/type/Metamodel::PackageHOW" xlink:title="Metamodel::PackageHOW">
<ellipse fill="none" stroke="#000000" cx="-198.594" cy="817.461" rx="116.18" ry="18"/>
<text text-anchor="middle" x="-198.594" y="821.161" font-family="FreeSans" font-size="14.00" fill="#000000">Metamodel::PackageHOW</text>
</a>
</g>
</g>
<!-- Metamodel::PackageHOW&#45;&gt;Metamodel::Documenting -->
<g id="edge56" class="edge"><title>Metamodel::PackageHOW&#45;&gt;Metamodel::Documenting</title>
<path fill="none" stroke="#6666ff" d="M-204.402,799.434C-226.334,731.36 -304.226,489.595 -330.946,406.661"/>
<polygon fill="#6666ff" stroke="#6666ff" points="-334.35,407.509 -334.085,396.918 -327.687,405.363 -334.35,407.509"/>
</g>
<!-- Metamodel::PackageHOW&#45;&gt;Any -->
<g id="edge7" class="edge"><title>Metamodel::PackageHOW&#45;&gt;Any</title>
<path fill="none" stroke="#000000" d="M-177.964,799.482C-98.5895,730.309 186.905,481.508 272.049,407.307"/>
<polygon fill="#000000" stroke="#000000" points="269.812,404.614 279.65,400.683 274.411,409.891 269.812,404.614"/>
</g>
<!-- Metamodel::PackageHOW&#45;&gt;Metamodel::Naming -->
<g id="edge55" class="edge"><title>Metamodel::PackageHOW&#45;&gt;Metamodel::Naming</title>
<path fill="none" stroke="#6666ff" d="M-191.118,799.349C-163.733,733.01 -68.7968,503.03 -35.9128,423.37"/>
<polygon fill="#6666ff" stroke="#6666ff" points="-39.0951,421.906 -32.0442,413.998 -32.6247,424.577 -39.0951,421.906"/>
</g>
<!-- Metamodel::PackageHOW&#45;&gt;Metamodel::Stashing -->
<g id="edge57" class="edge"><title>Metamodel::PackageHOW&#45;&gt;Metamodel::Stashing</title>
<path fill="none" stroke="#6666ff" d="M-195.068,799.353C-179.362,718.693 -116.536,396.054 -116.536,396.054 -116.536,396.054 24.2764,191.041 75.4482,116.538"/>
<polygon fill="#6666ff" stroke="#6666ff" points="72.6821,114.383 81.2288,108.122 78.4521,118.347 72.6821,114.383"/>
</g>
<!-- Metamodel::PackageHOW&#45;&gt;Metamodel::TypePretense -->
<g id="edge58" class="edge"><title>Metamodel::PackageHOW&#45;&gt;Metamodel::TypePretense</title>
<path fill="none" stroke="#6666ff" d="M-296.41,807.578C-485.138,788.512 -898.092,746.792 -1093.37,727.063"/>
<polygon fill="#6666ff" stroke="#6666ff" points="-1093.76,730.542 -1103.36,726.054 -1093.06,723.577 -1093.76,730.542"/>
</g>
<!-- Metamodel::PackageHOW&#45;&gt;Metamodel::MethodDelegation -->
<g id="edge59" class="edge"><title>Metamodel::PackageHOW&#45;&gt;Metamodel::MethodDelegation</title>
<path fill="none" stroke="#6666ff" d="M-82.4613,818.686C-46.9765,819.061 -7.55601,819.477 29.4133,819.867"/>
<polygon fill="#6666ff" stroke="#6666ff" points="29.8077,816.371 39.7702,819.976 29.7338,823.37 29.8077,816.371"/>
</g>
</g>
</svg>
