<?xml version="1.0" encoding="UTF-8" standalone="no"?>
<!DOCTYPE svg PUBLIC "-//W3C//DTD SVG 1.1//EN"
 "http://www.w3.org/Graphics/SVG/1.1/DTD/svg11.dtd">
<!-- Generated by graphviz version 2.38.0 (20140413.2041)
 -->
<!-- Title: perl6&#45;type&#45;graph Pages: 1 -->
<svg width="234pt" height="404pt"
 viewBox="0.00 0.00 234.39 404.00" xmlns="http://www.w3.org/2000/svg" xmlns:xlink="http://www.w3.org/1999/xlink">
<g id="graph0" class="graph" transform="scale(1 1) rotate(0) translate(4 400)">
<title>perl6&#45;type&#45;graph</title>
<polygon fill="white" stroke="none" points="-4,4 -4,-400 230.386,-400 230.386,4 -4,4"/>
<!-- X::Syntax::BlockGobbled -->
<g id="node1" class="node"><title>X::Syntax::BlockGobbled</title>
<g id="a_node1"><a xlink:href="/type/X::Syntax::BlockGobbled" xlink:title="X::Syntax::BlockGobbled">
<ellipse fill="none" stroke="#000000" cx="108.54" cy="-18" rx="108.581" ry="18"/>
<text text-anchor="middle" x="108.54" y="-14.3" font-family="FreeSans" font-size="14.00" fill="#000000">X::Syntax::BlockGobbled</text>
</a>
</g>
</g>
<!-- Exception -->
<g id="node4" class="node"><title>Exception</title>
<g id="a_node4"><a xlink:href="/type/Exception" xlink:title="Exception">
<ellipse fill="none" stroke="#000000" cx="108.54" cy="-234" rx="49.2915" ry="18"/>
<text text-anchor="middle" x="108.54" y="-230.3" font-family="FreeSans" font-size="14.00" fill="#000000">Exception</text>
</a>
</g>
</g>
<!-- X::Syntax::BlockGobbled&#45;&gt;Exception -->
<g id="edge1" class="edge"><title>X::Syntax::BlockGobbled&#45;&gt;Exception</title>
<path fill="none" stroke="#000000" d="M102.424,-36.0613C96.8698,-51.5549 89.5404,-72 89.5404,-72 89.5404,-72 89.5404,-108 89.5404,-108 89.5404,-108 98.8136,-169.008 104.403,-205.782"/>
<polygon fill="#000000" stroke="#000000" points="100.975,-206.521 105.938,-215.881 107.896,-205.469 100.975,-206.521"/>
</g>
<!-- X::Syntax -->
<g id="node6" class="node"><title>X::Syntax</title>
<g id="a_node6"><a xlink:href="/type/X::Syntax" xlink:title="X::Syntax">
<ellipse fill="none" stroke="#6666ff" cx="146.54" cy="-90" rx="48.1917" ry="18"/>
<text text-anchor="middle" x="146.54" y="-86.3" font-family="FreeSans" font-size="14.00" fill="#6666ff">X::Syntax</text>
</a>
</g>
</g>
<!-- X::Syntax::BlockGobbled&#45;&gt;X::Syntax -->
<g id="edge6" class="edge"><title>X::Syntax::BlockGobbled&#45;&gt;X::Syntax</title>
<path fill="none" stroke="#6666ff" d="M117.739,-35.945C122.173,-44.1134 127.588,-54.0884 132.521,-63.1756"/>
<polygon fill="#6666ff" stroke="#6666ff" points="129.579,-65.0923 137.426,-72.211 135.731,-61.7526 129.579,-65.0923"/>
</g>
<!-- Mu -->
<g id="node2" class="node"><title>Mu</title>
<g id="a_node2"><a xlink:href="/type/Mu" xlink:title="Mu">
<ellipse fill="none" stroke="#000000" cx="108.54" cy="-378" rx="27" ry="18"/>
<text text-anchor="middle" x="108.54" y="-374.3" font-family="FreeSans" font-size="14.00" fill="#000000">Mu</text>
</a>
</g>
</g>
<!-- Any -->
<g id="node3" class="node"><title>Any</title>
<g id="a_node3"><a xlink:href="/type/Any" xlink:title="Any">
<ellipse fill="none" stroke="#000000" cx="108.54" cy="-306" rx="27" ry="18"/>
<text text-anchor="middle" x="108.54" y="-302.3" font-family="FreeSans" font-size="14.00" fill="#000000">Any</text>
</a>
</g>
</g>
<!-- Any&#45;&gt;Mu -->
<g id="edge2" class="edge"><title>Any&#45;&gt;Mu</title>
<path fill="none" stroke="#000000" d="M108.54,-324.303C108.54,-332.017 108.54,-341.288 108.54,-349.888"/>
<polygon fill="#000000" stroke="#000000" points="105.04,-349.896 108.54,-359.896 112.04,-349.896 105.04,-349.896"/>
</g>
<!-- Exception&#45;&gt;Any -->
<g id="edge3" class="edge"><title>Exception&#45;&gt;Any</title>
<path fill="none" stroke="#000000" d="M108.54,-252.303C108.54,-260.017 108.54,-269.288 108.54,-277.888"/>
<polygon fill="#000000" stroke="#000000" points="105.04,-277.896 108.54,-287.896 112.04,-277.896 105.04,-277.896"/>
</g>
<!-- X::Comp -->
<g id="node5" class="node"><title>X::Comp</title>
<g id="a_node5"><a xlink:href="/type/X::Comp" xlink:title="X::Comp">
<ellipse fill="none" stroke="#6666ff" cx="181.54" cy="-162" rx="44.6926" ry="18"/>
<text text-anchor="middle" x="181.54" y="-158.3" font-family="FreeSans" font-size="14.00" fill="#6666ff">X::Comp</text>
</a>
</g>
</g>
<!-- X::Comp&#45;&gt;Exception -->
<g id="edge4" class="edge"><title>X::Comp&#45;&gt;Exception</title>
<path fill="none" stroke="#000000" d="M164.976,-178.884C155.43,-188.038 143.26,-199.707 132.667,-209.865"/>
<polygon fill="#000000" stroke="#000000" points="130.088,-207.489 125.292,-216.936 134.933,-212.541 130.088,-207.489"/>
</g>
<!-- X::Syntax&#45;&gt;Exception -->
<g id="edge5" class="edge"><title>X::Syntax&#45;&gt;Exception</title>
<path fill="none" stroke="#000000" d="M140.424,-108.061C134.87,-123.555 127.54,-144 127.54,-144 127.54,-144 119.891,-179.833 114.299,-206.025"/>
<polygon fill="#000000" stroke="#000000" points="110.869,-205.33 112.204,-215.84 117.714,-206.791 110.869,-205.33"/>
</g>
<!-- X::Syntax&#45;&gt;X::Comp -->
<g id="edge7" class="edge"><title>X::Syntax&#45;&gt;X::Comp</title>
<path fill="none" stroke="#6666ff" d="M155.013,-107.945C159.097,-116.113 164.085,-126.088 168.628,-135.176"/>
<polygon fill="#6666ff" stroke="#6666ff" points="165.543,-136.832 173.146,-144.211 171.804,-133.701 165.543,-136.832"/>
</g>
</g>
</svg>
