<?xml version="1.0" encoding="UTF-8" standalone="no"?>
<!DOCTYPE svg PUBLIC "-//W3C//DTD SVG 1.1//EN"
 "http://www.w3.org/Graphics/SVG/1.1/DTD/svg11.dtd">
<!-- Generated by graphviz version 2.38.0 (20140413.2041)
 -->
<!-- Title: perl6&#45;type&#45;graph Pages: 1 -->
<svg width="648pt" height="278pt"
 viewBox="0.00 0.00 648.46 278.45" xmlns="http://www.w3.org/2000/svg" xmlns:xlink="http://www.w3.org/1999/xlink">
<g id="graph0" class="graph" transform="scale(1 1) rotate(0) translate(349.391 134.938)">
<title>perl6&#45;type&#45;graph</title>
<polygon fill="white" stroke="none" points="-349.391,143.508 -349.391,-134.938 299.072,-134.938 299.072,143.508 -349.391,143.508"/>
<!-- Metamodel::BaseDispatcher -->
<g id="node1" class="node"><title>Metamodel::BaseDispatcher</title>
<g id="a_node1"><a xlink:href="/type/Metamodel::BaseDispatcher" xlink:title="Metamodel::BaseDispatcher">
<ellipse fill="none" stroke="#000000" cx="16.4708" cy="-24.9275" rx="121.578" ry="18"/>
<text text-anchor="middle" x="16.4708" y="-21.2275" font-family="FreeSans" font-size="14.00" fill="#000000">Metamodel::BaseDispatcher</text>
</a>
</g>
</g>
<!-- Any -->
<g id="node3" class="node"><title>Any</title>
<g id="a_node3"><a xlink:href="/type/Any" xlink:title="Any">
<ellipse fill="none" stroke="#000000" cx="-55.7811" cy="121.508" rx="27" ry="18"/>
<text text-anchor="middle" x="-55.7811" y="125.208" font-family="FreeSans" font-size="14.00" fill="#000000">Any</text>
</a>
</g>
</g>
<!-- Metamodel::BaseDispatcher&#45;&gt;Any -->
<g id="edge1" class="edge"><title>Metamodel::BaseDispatcher&#45;&gt;Any</title>
<path fill="none" stroke="#000000" d="M7.61127,-6.97158C-4.98284,18.5534 -28.1469,65.5009 -42.7149,95.0265"/>
<polygon fill="#000000" stroke="#000000" points="-39.7346,96.8964 -47.2982,104.316 -46.0121,93.799 -39.7346,96.8964"/>
</g>
<!-- Mu -->
<g id="node2" class="node"><title>Mu</title>
<g id="a_node2"><a xlink:href="/type/Mu" xlink:title="Mu">
<ellipse fill="none" stroke="#000000" cx="151.732" cy="120.709" rx="27" ry="18"/>
<text text-anchor="middle" x="151.732" y="124.409" font-family="FreeSans" font-size="14.00" fill="#000000">Mu</text>
</a>
</g>
</g>
<!-- Any&#45;&gt;Mu -->
<g id="edge2" class="edge"><title>Any&#45;&gt;Mu</title>
<path fill="none" stroke="#000000" d="M-28.6523,121.404C7.93274,121.263 73.2364,121.011 114.424,120.853"/>
<polygon fill="#000000" stroke="#000000" points="114.583,117.352 124.597,120.813 114.61,124.352 114.583,117.352"/>
</g>
<!-- Metamodel::MethodDispatcher -->
<g id="node4" class="node"><title>Metamodel::MethodDispatcher</title>
<g id="a_node4"><a xlink:href="/type/Metamodel::MethodDispatcher" xlink:title="Metamodel::MethodDispatcher">
<ellipse fill="none" stroke="#000000" cx="-214.102" cy="30.8483" rx="131.077" ry="18"/>
<text text-anchor="middle" x="-214.102" y="34.5483" font-family="FreeSans" font-size="14.00" fill="#000000">Metamodel::MethodDispatcher</text>
</a>
</g>
</g>
<!-- Metamodel::MethodDispatcher&#45;&gt;Metamodel::BaseDispatcher -->
<g id="edge3" class="edge"><title>Metamodel::MethodDispatcher&#45;&gt;Metamodel::BaseDispatcher</title>
<path fill="none" stroke="#000000" d="M-149.261,15.1632C-120.54,8.21558 -86.6162,0.00931839 -56.9654,-7.16322"/>
<polygon fill="#000000" stroke="#000000" points="-57.63,-10.6033 -47.0874,-9.5527 -55.9842,-3.79955 -57.63,-10.6033"/>
</g>
<!-- Metamodel::MultiDispatcher -->
<g id="node5" class="node"><title>Metamodel::MultiDispatcher</title>
<g id="a_node5"><a xlink:href="/type/Metamodel::MultiDispatcher" xlink:title="Metamodel::MultiDispatcher">
<ellipse fill="none" stroke="#000000" cx="174.833" cy="-63.589" rx="120.479" ry="18"/>
<text text-anchor="middle" x="174.833" y="-59.889" font-family="FreeSans" font-size="14.00" fill="#000000">Metamodel::MultiDispatcher</text>
</a>
</g>
</g>
<!-- Metamodel::MultiDispatcher&#45;&gt;Metamodel::BaseDispatcher -->
<g id="edge4" class="edge"><title>Metamodel::MultiDispatcher&#45;&gt;Metamodel::BaseDispatcher</title>
<path fill="none" stroke="#000000" d="M111.789,-48.1979C104.412,-46.3969 96.8401,-44.5484 89.3441,-42.7184"/>
<polygon fill="#000000" stroke="#000000" points="90.1012,-39.3004 79.5564,-40.3288 88.4409,-46.1007 90.1012,-39.3004"/>
</g>
<!-- Metamodel::WrapDispatcher -->
<g id="node6" class="node"><title>Metamodel::WrapDispatcher</title>
<g id="a_node6"><a xlink:href="/type/Metamodel::WrapDispatcher" xlink:title="Metamodel::WrapDispatcher">
<ellipse fill="none" stroke="#000000" cx="-92.7647" cy="-112.938" rx="122.678" ry="18"/>
<text text-anchor="middle" x="-92.7647" y="-109.238" font-family="FreeSans" font-size="14.00" fill="#000000">Metamodel::WrapDispatcher</text>
</a>
</g>
</g>
<!-- Metamodel::WrapDispatcher&#45;&gt;Metamodel::BaseDispatcher -->
<g id="edge5" class="edge"><title>Metamodel::WrapDispatcher&#45;&gt;Metamodel::BaseDispatcher</title>
<path fill="none" stroke="#000000" d="M-70.6592,-95.1277C-54.2244,-81.8862 -31.6145,-63.6695 -13.5457,-49.1115"/>
<polygon fill="#000000" stroke="#000000" points="-11.1929,-51.7106 -5.60178,-42.7112 -15.5847,-46.2597 -11.1929,-51.7106"/>
</g>
</g>
</svg>
