<?xml version="1.0" encoding="UTF-8" standalone="no"?>
<!DOCTYPE svg PUBLIC "-//W3C//DTD SVG 1.1//EN"
 "http://www.w3.org/Graphics/SVG/1.1/DTD/svg11.dtd">
<!-- Generated by graphviz version 2.38.0 (20140413.2041)
 -->
<!-- Title: perl6&#45;type&#45;graph Pages: 1 -->
<svg width="321pt" height="260pt"
 viewBox="0.00 0.00 321.49 260.00" xmlns="http://www.w3.org/2000/svg" xmlns:xlink="http://www.w3.org/1999/xlink">
<g id="graph0" class="graph" transform="scale(1 1) rotate(0) translate(4 256)">
<title>perl6&#45;type&#45;graph</title>
<polygon fill="white" stroke="none" points="-4,4 -4,-256 317.495,-256 317.495,4 -4,4"/>
<!-- Uni -->
<g id="node1" class="node"><title>Uni</title>
<g id="a_node1"><a xlink:href="/type/Uni" xlink:title="Uni">
<ellipse fill="none" stroke="#000000" cx="156.247" cy="-90" rx="27" ry="18"/>
<text text-anchor="middle" x="156.247" y="-86.3" font-family="FreeSans" font-size="14.00" fill="#000000">Uni</text>
</a>
</g>
</g>
<!-- Any -->
<g id="node3" class="node"><title>Any</title>
<g id="a_node3"><a xlink:href="/type/Any" xlink:title="Any">
<ellipse fill="none" stroke="#000000" cx="62.2474" cy="-162" rx="27" ry="18"/>
<text text-anchor="middle" x="62.2474" y="-158.3" font-family="FreeSans" font-size="14.00" fill="#000000">Any</text>
</a>
</g>
</g>
<!-- Uni&#45;&gt;Any -->
<g id="edge1" class="edge"><title>Uni&#45;&gt;Any</title>
<path fill="none" stroke="#000000" d="M138.567,-104.166C124.297,-114.793 104.024,-129.89 87.9587,-141.853"/>
<polygon fill="#000000" stroke="#000000" points="85.4612,-139.349 79.5312,-148.129 89.6421,-144.964 85.4612,-139.349"/>
</g>
<!-- Positional -->
<g id="node4" class="node"><title>Positional</title>
<g id="a_node4"><a xlink:href="/type/Positional" xlink:title="Positional">
<ellipse fill="none" stroke="#6666ff" cx="156.247" cy="-162" rx="48.9926" ry="18"/>
<text text-anchor="middle" x="156.247" y="-158.3" font-family="FreeSans" font-size="14.00" fill="#6666ff">Positional</text>
</a>
</g>
</g>
<!-- Uni&#45;&gt;Positional -->
<g id="edge7" class="edge"><title>Uni&#45;&gt;Positional</title>
<path fill="none" stroke="#6666ff" d="M156.247,-108.303C156.247,-116.017 156.247,-125.288 156.247,-133.888"/>
<polygon fill="#6666ff" stroke="#6666ff" points="152.748,-133.896 156.247,-143.896 159.748,-133.896 152.748,-133.896"/>
</g>
<!-- Stringy -->
<g id="node5" class="node"><title>Stringy</title>
<g id="a_node5"><a xlink:href="/type/Stringy" xlink:title="Stringy">
<ellipse fill="none" stroke="#6666ff" cx="261.247" cy="-162" rx="38.1938" ry="18"/>
<text text-anchor="middle" x="261.247" y="-158.3" font-family="FreeSans" font-size="14.00" fill="#6666ff">Stringy</text>
</a>
</g>
</g>
<!-- Uni&#45;&gt;Stringy -->
<g id="edge8" class="edge"><title>Uni&#45;&gt;Stringy</title>
<path fill="none" stroke="#6666ff" d="M175.019,-103.515C190.734,-113.991 213.44,-129.129 231.608,-141.24"/>
<polygon fill="#6666ff" stroke="#6666ff" points="229.85,-144.275 240.112,-146.909 233.733,-138.45 229.85,-144.275"/>
</g>
<!-- Mu -->
<g id="node2" class="node"><title>Mu</title>
<g id="a_node2"><a xlink:href="/type/Mu" xlink:title="Mu">
<ellipse fill="none" stroke="#000000" cx="62.2474" cy="-234" rx="27" ry="18"/>
<text text-anchor="middle" x="62.2474" y="-230.3" font-family="FreeSans" font-size="14.00" fill="#000000">Mu</text>
</a>
</g>
</g>
<!-- Any&#45;&gt;Mu -->
<g id="edge2" class="edge"><title>Any&#45;&gt;Mu</title>
<path fill="none" stroke="#000000" d="M62.2474,-180.303C62.2474,-188.017 62.2474,-197.288 62.2474,-205.888"/>
<polygon fill="#000000" stroke="#000000" points="58.7475,-205.896 62.2474,-215.896 65.7475,-205.896 58.7475,-205.896"/>
</g>
<!-- NFD -->
<g id="node6" class="node"><title>NFD</title>
<g id="a_node6"><a xlink:href="/type/NFD" xlink:title="NFD">
<ellipse fill="none" stroke="#000000" cx="29.2474" cy="-18" rx="29.4969" ry="18"/>
<text text-anchor="middle" x="29.2474" y="-14.3" font-family="FreeSans" font-size="14.00" fill="#000000">NFD</text>
</a>
</g>
</g>
<!-- NFD&#45;&gt;Uni -->
<g id="edge3" class="edge"><title>NFD&#45;&gt;Uni</title>
<path fill="none" stroke="#000000" d="M50.2189,-30.5591C71.2412,-42.1462 103.773,-60.0769 127.258,-73.0216"/>
<polygon fill="#000000" stroke="#000000" points="125.637,-76.1246 136.084,-77.8865 129.016,-69.9941 125.637,-76.1246"/>
</g>
<!-- NFKD -->
<g id="node7" class="node"><title>NFKD</title>
<g id="a_node7"><a xlink:href="/type/NFKD" xlink:title="NFKD">
<ellipse fill="none" stroke="#000000" cx="112.247" cy="-18" rx="35.9954" ry="18"/>
<text text-anchor="middle" x="112.247" y="-14.3" font-family="FreeSans" font-size="14.00" fill="#000000">NFKD</text>
</a>
</g>
</g>
<!-- NFKD&#45;&gt;Uni -->
<g id="edge4" class="edge"><title>NFKD&#45;&gt;Uni</title>
<path fill="none" stroke="#000000" d="M122.675,-35.589C128.067,-44.1677 134.756,-54.8092 140.741,-64.3305"/>
<polygon fill="#000000" stroke="#000000" points="137.913,-66.4081 146.198,-73.0119 143.839,-62.6829 137.913,-66.4081"/>
</g>
<!-- NFKC -->
<g id="node8" class="node"><title>NFKC</title>
<g id="a_node8"><a xlink:href="/type/NFKC" xlink:title="NFKC">
<ellipse fill="none" stroke="#000000" cx="201.247" cy="-18" rx="35.9954" ry="18"/>
<text text-anchor="middle" x="201.247" y="-14.3" font-family="FreeSans" font-size="14.00" fill="#000000">NFKC</text>
</a>
</g>
</g>
<!-- NFKC&#45;&gt;Uni -->
<g id="edge5" class="edge"><title>NFKC&#45;&gt;Uni</title>
<path fill="none" stroke="#000000" d="M190.81,-35.2354C185.244,-43.8936 178.28,-54.7269 172.064,-64.396"/>
<polygon fill="#000000" stroke="#000000" points="169.091,-62.5482 166.628,-72.8527 174.98,-66.3336 169.091,-62.5482"/>
</g>
<!-- NFC -->
<g id="node9" class="node"><title>NFC</title>
<g id="a_node9"><a xlink:href="/type/NFC" xlink:title="NFC">
<ellipse fill="none" stroke="#000000" cx="284.247" cy="-18" rx="29.4969" ry="18"/>
<text text-anchor="middle" x="284.247" y="-14.3" font-family="FreeSans" font-size="14.00" fill="#000000">NFC</text>
</a>
</g>
</g>
<!-- NFC&#45;&gt;Uni -->
<g id="edge6" class="edge"><title>NFC&#45;&gt;Uni</title>
<path fill="none" stroke="#000000" d="M263.111,-30.5591C241.923,-42.1462 209.135,-60.0769 185.465,-73.0216"/>
<polygon fill="#000000" stroke="#000000" points="183.664,-70.0176 176.569,-77.8865 187.022,-76.1592 183.664,-70.0176"/>
</g>
</g>
</svg>
