<?xml version="1.0" encoding="UTF-8" standalone="no"?>
<!DOCTYPE svg PUBLIC "-//W3C//DTD SVG 1.1//EN"
 "http://www.w3.org/Graphics/SVG/1.1/DTD/svg11.dtd">
<!-- Generated by graphviz version 2.38.0 (20140413.2041)
 -->
<!-- Title: perl6&#45;type&#45;graph Pages: 1 -->
<svg width="1818pt" height="404pt"
 viewBox="0.00 0.00 1817.89 404.00" xmlns="http://www.w3.org/2000/svg" xmlns:xlink="http://www.w3.org/1999/xlink">
<g id="graph0" class="graph" transform="scale(1 1) rotate(0) translate(4 400)">
<title>perl6&#45;type&#45;graph</title>
<polygon fill="white" stroke="none" points="-4,4 -4,-400 1813.89,-400 1813.89,4 -4,4"/>
<!-- X::OS -->
<g id="node1" class="node"><title>X::OS</title>
<g id="a_node1"><a xlink:href="/type/X::OS" xlink:title="X::OS">
<ellipse fill="none" stroke="#6666ff" cx="888.195" cy="-162" rx="34.394" ry="18"/>
<text text-anchor="middle" x="888.195" y="-158.3" font-family="FreeSans" font-size="14.00" fill="#6666ff">X::OS</text>
</a>
</g>
</g>
<!-- Exception -->
<g id="node4" class="node"><title>Exception</title>
<g id="a_node4"><a xlink:href="/type/Exception" xlink:title="Exception">
<ellipse fill="none" stroke="#000000" cx="968.195" cy="-234" rx="49.2915" ry="18"/>
<text text-anchor="middle" x="968.195" y="-230.3" font-family="FreeSans" font-size="14.00" fill="#000000">Exception</text>
</a>
</g>
</g>
<!-- X::OS&#45;&gt;Exception -->
<g id="edge1" class="edge"><title>X::OS&#45;&gt;Exception</title>
<path fill="none" stroke="#000000" d="M905.161,-177.845C915.997,-187.327 930.253,-199.801 942.467,-210.488"/>
<polygon fill="#000000" stroke="#000000" points="940.311,-213.252 950.142,-217.203 944.921,-207.984 940.311,-213.252"/>
</g>
<!-- Mu -->
<g id="node2" class="node"><title>Mu</title>
<g id="a_node2"><a xlink:href="/type/Mu" xlink:title="Mu">
<ellipse fill="none" stroke="#000000" cx="968.195" cy="-378" rx="27" ry="18"/>
<text text-anchor="middle" x="968.195" y="-374.3" font-family="FreeSans" font-size="14.00" fill="#000000">Mu</text>
</a>
</g>
</g>
<!-- Any -->
<g id="node3" class="node"><title>Any</title>
<g id="a_node3"><a xlink:href="/type/Any" xlink:title="Any">
<ellipse fill="none" stroke="#000000" cx="968.195" cy="-306" rx="27" ry="18"/>
<text text-anchor="middle" x="968.195" y="-302.3" font-family="FreeSans" font-size="14.00" fill="#000000">Any</text>
</a>
</g>
</g>
<!-- Any&#45;&gt;Mu -->
<g id="edge2" class="edge"><title>Any&#45;&gt;Mu</title>
<path fill="none" stroke="#000000" d="M968.195,-324.303C968.195,-332.017 968.195,-341.288 968.195,-349.888"/>
<polygon fill="#000000" stroke="#000000" points="964.695,-349.896 968.195,-359.896 971.695,-349.896 964.695,-349.896"/>
</g>
<!-- Exception&#45;&gt;Any -->
<g id="edge3" class="edge"><title>Exception&#45;&gt;Any</title>
<path fill="none" stroke="#000000" d="M968.195,-252.303C968.195,-260.017 968.195,-269.288 968.195,-277.888"/>
<polygon fill="#000000" stroke="#000000" points="964.695,-277.896 968.195,-287.896 971.695,-277.896 964.695,-277.896"/>
</g>
<!-- X::IO -->
<g id="node5" class="node"><title>X::IO</title>
<g id="a_node5"><a xlink:href="/type/X::IO" xlink:title="X::IO">
<ellipse fill="none" stroke="#6666ff" cx="888.195" cy="-90" rx="31.3957" ry="18"/>
<text text-anchor="middle" x="888.195" y="-86.3" font-family="FreeSans" font-size="14.00" fill="#6666ff">X::IO</text>
</a>
</g>
</g>
<!-- X::IO&#45;&gt;X::OS -->
<g id="edge40" class="edge"><title>X::IO&#45;&gt;X::OS</title>
<path fill="none" stroke="#6666ff" d="M888.195,-108.303C888.195,-116.017 888.195,-125.288 888.195,-133.888"/>
<polygon fill="#6666ff" stroke="#6666ff" points="884.695,-133.896 888.195,-143.896 891.695,-133.896 884.695,-133.896"/>
</g>
<!-- X::IO&#45;&gt;Exception -->
<g id="edge4" class="edge"><title>X::IO&#45;&gt;Exception</title>
<path fill="none" stroke="#000000" d="M875.526,-106.615C862.842,-122.249 845.195,-144 845.195,-144 845.195,-144 845.195,-180 845.195,-180 845.195,-180 892.256,-200.278 928.158,-215.748"/>
<polygon fill="#000000" stroke="#000000" points="926.905,-219.02 937.474,-219.763 929.675,-212.591 926.905,-219.02"/>
</g>
<!-- X::IO::Chdir -->
<g id="node6" class="node"><title>X::IO::Chdir</title>
<g id="a_node6"><a xlink:href="/type/X::IO::Chdir" xlink:title="X::IO::Chdir">
<ellipse fill="none" stroke="#000000" cx="57.1949" cy="-18" rx="57.3905" ry="18"/>
<text text-anchor="middle" x="57.1949" y="-14.3" font-family="FreeSans" font-size="14.00" fill="#000000">X::IO::Chdir</text>
</a>
</g>
</g>
<!-- X::IO::Chdir&#45;&gt;Exception -->
<g id="edge5" class="edge"><title>X::IO::Chdir&#45;&gt;Exception</title>
<path fill="none" stroke="#000000" d="M92.2436,-32.3123C200.307,-70.8858 520.195,-180 520.195,-180 520.195,-180 790.542,-212.639 911.279,-226.69"/>
<polygon fill="#000000" stroke="#000000" points="911.107,-230.193 921.444,-227.87 911.914,-223.24 911.107,-230.193"/>
</g>
<!-- X::IO::Chdir&#45;&gt;Exception -->
<g id="edge6" class="edge"><title>X::IO::Chdir&#45;&gt;Exception</title>
<path fill="none" stroke="#000000" d="M96.4877,-31.1012C211.441,-68.5436 538.195,-180 538.195,-180 538.195,-180 795.744,-211.094 912.261,-225.649"/>
<polygon fill="#000000" stroke="#000000" points="912.057,-229.151 922.414,-226.92 912.927,-222.205 912.057,-229.151"/>
</g>
<!-- X::IO::Chdir&#45;&gt;X::IO -->
<g id="edge41" class="edge"><title>X::IO::Chdir&#45;&gt;X::IO</title>
<path fill="none" stroke="#6666ff" d="M100.111,-30.0542C112.717,-33.3012 123.195,-36 123.195,-36 123.195,-36 687.891,-75.1227 846.949,-86.1424"/>
<polygon fill="#6666ff" stroke="#6666ff" points="847.041,-89.6571 857.259,-86.8567 847.524,-82.6738 847.041,-89.6571"/>
</g>
<!-- X::IO::Rmdir -->
<g id="node7" class="node"><title>X::IO::Rmdir</title>
<g id="a_node7"><a xlink:href="/type/X::IO::Rmdir" xlink:title="X::IO::Rmdir">
<ellipse fill="none" stroke="#000000" cx="192.195" cy="-18" rx="59.5901" ry="18"/>
<text text-anchor="middle" x="192.195" y="-14.3" font-family="FreeSans" font-size="14.00" fill="#000000">X::IO::Rmdir</text>
</a>
</g>
</g>
<!-- X::IO::Rmdir&#45;&gt;Exception -->
<g id="edge7" class="edge"><title>X::IO::Rmdir&#45;&gt;Exception</title>
<path fill="none" stroke="#000000" d="M225.883,-33.006C326.54,-72.1764 617.195,-180 617.195,-180 617.195,-180 813.862,-210.478 912.847,-225.209"/>
<polygon fill="#000000" stroke="#000000" points="912.571,-228.706 922.976,-226.712 913.598,-221.782 912.571,-228.706"/>
</g>
<!-- X::IO::Rmdir&#45;&gt;Exception -->
<g id="edge8" class="edge"><title>X::IO::Rmdir&#45;&gt;Exception</title>
<path fill="none" stroke="#000000" d="M230.902,-31.9032C338.964,-70.1078 635.195,-180 635.195,-180 635.195,-180 820.395,-208.701 914.639,-223.861"/>
<polygon fill="#000000" stroke="#000000" points="914.135,-227.325 924.565,-225.463 915.25,-220.415 914.135,-227.325"/>
</g>
<!-- X::IO::Rmdir&#45;&gt;X::IO -->
<g id="edge42" class="edge"><title>X::IO::Rmdir&#45;&gt;X::IO</title>
<path fill="none" stroke="#6666ff" d="M236.793,-30.1496C249.61,-33.3539 260.195,-36 260.195,-36 260.195,-36 707.772,-73.7733 847.222,-85.5421"/>
<polygon fill="#6666ff" stroke="#6666ff" points="847.221,-89.0544 857.48,-86.4078 847.81,-82.0792 847.221,-89.0544"/>
</g>
<!-- X::IO::Rename -->
<g id="node8" class="node"><title>X::IO::Rename</title>
<g id="a_node8"><a xlink:href="/type/X::IO::Rename" xlink:title="X::IO::Rename">
<ellipse fill="none" stroke="#000000" cx="339.195" cy="-18" rx="69.5877" ry="18"/>
<text text-anchor="middle" x="339.195" y="-14.3" font-family="FreeSans" font-size="14.00" fill="#000000">X::IO::Rename</text>
</a>
</g>
</g>
<!-- X::IO::Rename&#45;&gt;Exception -->
<g id="edge9" class="edge"><title>X::IO::Rename&#45;&gt;Exception</title>
<path fill="none" stroke="#000000" d="M370.113,-34.2916C457.695,-74.4799 700.195,-180 700.195,-180 700.195,-180 836.426,-207.877 914.718,-223.196"/>
<polygon fill="#000000" stroke="#000000" points="914.41,-226.702 924.895,-225.18 915.75,-219.831 914.41,-226.702"/>
</g>
<!-- X::IO::Rename&#45;&gt;Exception -->
<g id="edge10" class="edge"><title>X::IO::Rename&#45;&gt;Exception</title>
<path fill="none" stroke="#000000" d="M376.133,-33.2877C471.583,-72.6904 718.195,-180 718.195,-180 718.195,-180 844.593,-205.865 917.721,-221.458"/>
<polygon fill="#000000" stroke="#000000" points="917.156,-224.916 927.667,-223.586 918.621,-218.071 917.156,-224.916"/>
</g>
<!-- X::IO::Rename&#45;&gt;X::IO -->
<g id="edge43" class="edge"><title>X::IO::Rename&#45;&gt;X::IO</title>
<path fill="none" stroke="#6666ff" d="M391.008,-30.1496C405.898,-33.3539 418.195,-36 418.195,-36 418.195,-36 733.571,-71.5637 847.64,-84.4268"/>
<polygon fill="#6666ff" stroke="#6666ff" points="847.39,-87.9207 857.719,-85.5634 848.174,-80.9648 847.39,-87.9207"/>
</g>
<!-- X::IO::Mkdir -->
<g id="node9" class="node"><title>X::IO::Mkdir</title>
<g id="a_node9"><a xlink:href="/type/X::IO::Mkdir" xlink:title="X::IO::Mkdir">
<ellipse fill="none" stroke="#000000" cx="485.195" cy="-18" rx="58.4896" ry="18"/>
<text text-anchor="middle" x="485.195" y="-14.3" font-family="FreeSans" font-size="14.00" fill="#000000">X::IO::Mkdir</text>
</a>
</g>
</g>
<!-- X::IO::Mkdir&#45;&gt;Exception -->
<g id="edge11" class="edge"><title>X::IO::Mkdir&#45;&gt;Exception</title>
<path fill="none" stroke="#000000" d="M509.253,-34.7305C577.501,-75.2423 766.195,-180 766.195,-180 766.195,-180 858.108,-205.24 918.034,-220.885"/>
<polygon fill="#000000" stroke="#000000" points="917.165,-224.275 927.724,-223.402 918.925,-217.5 917.165,-224.275"/>
</g>
<!-- X::IO::Mkdir&#45;&gt;Exception -->
<g id="edge12" class="edge"><title>X::IO::Mkdir&#45;&gt;Exception</title>
<path fill="none" stroke="#000000" d="M515.58,-33.5716C591.828,-73.2032 784.195,-180 784.195,-180 784.195,-180 867.82,-202.964 922.411,-218.661"/>
<polygon fill="#000000" stroke="#000000" points="921.662,-222.087 932.24,-221.5 923.604,-215.362 921.662,-222.087"/>
</g>
<!-- X::IO::Mkdir&#45;&gt;X::IO -->
<g id="edge44" class="edge"><title>X::IO::Mkdir&#45;&gt;X::IO</title>
<path fill="none" stroke="#6666ff" d="M529.029,-29.9586C542.187,-33.248 553.195,-36 553.195,-36 553.195,-36 759.795,-68.6859 848.504,-82.7205"/>
<polygon fill="#6666ff" stroke="#6666ff" points="848.042,-86.1909 858.466,-84.2966 849.136,-79.2769 848.042,-86.1909"/>
</g>
<!-- X::IO::Chmod -->
<g id="node10" class="node"><title>X::IO::Chmod</title>
<g id="a_node10"><a xlink:href="/type/X::IO::Chmod" xlink:title="X::IO::Chmod">
<ellipse fill="none" stroke="#000000" cx="626.195" cy="-18" rx="64.189" ry="18"/>
<text text-anchor="middle" x="626.195" y="-14.3" font-family="FreeSans" font-size="14.00" fill="#000000">X::IO::Chmod</text>
</a>
</g>
</g>
<!-- X::IO::Chmod&#45;&gt;Exception -->
<g id="edge13" class="edge"><title>X::IO::Chmod&#45;&gt;Exception</title>
<path fill="none" stroke="#000000" d="M637.87,-35.9255C678.76,-77.2617 803.195,-180 803.195,-180 803.195,-180 870.303,-204.195 919.386,-219.89"/>
<polygon fill="#000000" stroke="#000000" points="918.348,-223.233 928.938,-222.906 920.456,-216.558 918.348,-223.233"/>
</g>
<!-- X::IO::Chmod&#45;&gt;Exception -->
<g id="edge14" class="edge"><title>X::IO::Chmod&#45;&gt;Exception</title>
<path fill="none" stroke="#000000" d="M645.966,-35.3235C695.54,-76.2544 821.195,-180 821.195,-180 821.195,-180 881.59,-201.775 924.956,-217.411"/>
<polygon fill="#000000" stroke="#000000" points="923.876,-220.741 934.47,-220.841 926.25,-214.156 923.876,-220.741"/>
</g>
<!-- X::IO::Chmod&#45;&gt;Exception -->
<g id="edge15" class="edge"><title>X::IO::Chmod&#45;&gt;Exception</title>
<path fill="none" stroke="#000000" d="M653.376,-34.4374C711.699,-74.7344 839.195,-180 839.195,-180 839.195,-180 893.64,-199.63 932.204,-214.997"/>
<polygon fill="#000000" stroke="#000000" points="931.04,-218.301 941.623,-218.797 933.659,-211.81 931.04,-218.301"/>
</g>
<!-- X::IO::Chmod&#45;&gt;X::IO -->
<g id="edge45" class="edge"><title>X::IO::Chmod&#45;&gt;X::IO</title>
<path fill="none" stroke="#6666ff" d="M670.937,-30.9539C721.589,-44.4869 803.214,-66.2951 850.672,-78.9749"/>
<polygon fill="#6666ff" stroke="#6666ff" points="849.977,-82.4118 860.542,-81.6117 851.784,-75.649 849.977,-82.4118"/>
</g>
<!-- X::IO::Move -->
<g id="node11" class="node"><title>X::IO::Move</title>
<g id="a_node11"><a xlink:href="/type/X::IO::Move" xlink:title="X::IO::Move">
<ellipse fill="none" stroke="#000000" cx="766.195" cy="-18" rx="57.6901" ry="18"/>
<text text-anchor="middle" x="766.195" y="-14.3" font-family="FreeSans" font-size="14.00" fill="#000000">X::IO::Move</text>
</a>
</g>
</g>
<!-- X::IO::Move&#45;&gt;Exception -->
<g id="edge16" class="edge"><title>X::IO::Move&#45;&gt;Exception</title>
<path fill="none" stroke="#000000" d="M765.33,-36.2298C775.569,-77.7634 823.195,-180 823.195,-180 823.195,-180 878.371,-203.026 921.141,-218.724"/>
<polygon fill="#000000" stroke="#000000" points="920.009,-222.036 930.603,-222.147 922.39,-215.454 920.009,-222.036"/>
</g>
<!-- X::IO::Move&#45;&gt;Exception -->
<g id="edge17" class="edge"><title>X::IO::Move&#45;&gt;Exception</title>
<path fill="none" stroke="#000000" d="M774.079,-35.9255C793.335,-77.2617 841.195,-180 841.195,-180 841.195,-180 890.068,-200.396 927.178,-215.883"/>
<polygon fill="#000000" stroke="#000000" points="926.225,-219.278 936.802,-219.899 928.921,-212.817 926.225,-219.278"/>
</g>
<!-- X::IO::Move&#45;&gt;Exception -->
<g id="edge18" class="edge"><title>X::IO::Move&#45;&gt;Exception</title>
<path fill="none" stroke="#000000" d="M782.488,-35.3235C810.866,-76.2544 859.195,-180 859.195,-180 859.195,-180 903.431,-198.461 935.988,-213.592"/>
<polygon fill="#000000" stroke="#000000" points="934.696,-216.852 945.234,-217.954 937.683,-210.522 934.696,-216.852"/>
</g>
<!-- X::IO::Move&#45;&gt;X::IO -->
<g id="edge46" class="edge"><title>X::IO::Move&#45;&gt;X::IO</title>
<path fill="none" stroke="#6666ff" d="M792.667,-34.189C811.871,-45.2078 837.883,-60.1327 857.915,-71.6261"/>
<polygon fill="#6666ff" stroke="#6666ff" points="856.236,-74.698 866.651,-76.639 859.72,-68.6265 856.236,-74.698"/>
</g>
<!-- X::IO::Symlink -->
<g id="node12" class="node"><title>X::IO::Symlink</title>
<g id="a_node12"><a xlink:href="/type/X::IO::Symlink" xlink:title="X::IO::Symlink">
<ellipse fill="none" stroke="#000000" cx="909.195" cy="-18" rx="67.6881" ry="18"/>
<text text-anchor="middle" x="909.195" y="-14.3" font-family="FreeSans" font-size="14.00" fill="#000000">X::IO::Symlink</text>
</a>
</g>
</g>
<!-- X::IO::Symlink&#45;&gt;Exception -->
<g id="edge19" class="edge"><title>X::IO::Symlink&#45;&gt;Exception</title>
<path fill="none" stroke="#000000" d="M901.624,-36.0613C902.866,-51.5549 910.195,-72 910.195,-72 910.195,-72 932.458,-161.609 951.24,-207.123"/>
<polygon fill="#000000" stroke="#000000" points="948.079,-208.631 955.308,-216.377 954.488,-205.814 948.079,-208.631"/>
</g>
<!-- X::IO::Symlink&#45;&gt;Exception -->
<g id="edge20" class="edge"><title>X::IO::Symlink&#45;&gt;Exception</title>
<path fill="none" stroke="#000000" d="M915.311,-36.0613C920.866,-51.5549 928.195,-72 928.195,-72 928.195,-72 950.057,-159.994 961.456,-205.876"/>
<polygon fill="#000000" stroke="#000000" points="958.106,-206.909 963.914,-215.77 964.9,-205.221 958.106,-206.909"/>
</g>
<!-- X::IO::Symlink&#45;&gt;Exception -->
<g id="edge21" class="edge"><title>X::IO::Symlink&#45;&gt;Exception</title>
<path fill="none" stroke="#000000" d="M928.625,-35.479C938.68,-51.0373 946.195,-72 946.195,-72 946.195,-72 968.072,-160.054 972.187,-205.923"/>
<polygon fill="#000000" stroke="#000000" points="968.704,-206.309 972.814,-216.074 975.691,-205.878 968.704,-206.309"/>
</g>
<!-- X::IO::Symlink&#45;&gt;X::IO -->
<g id="edge47" class="edge"><title>X::IO::Symlink&#45;&gt;X::IO</title>
<path fill="none" stroke="#6666ff" d="M904.004,-36.3034C901.664,-44.1021 898.847,-53.4915 896.244,-62.1708"/>
<polygon fill="#6666ff" stroke="#6666ff" points="892.847,-61.3117 893.326,-71.8957 899.552,-63.3231 892.847,-61.3117"/>
</g>
<!-- X::IO::Dir -->
<g id="node13" class="node"><title>X::IO::Dir</title>
<g id="a_node13"><a xlink:href="/type/X::IO::Dir" xlink:title="X::IO::Dir">
<ellipse fill="none" stroke="#000000" cx="1042.19" cy="-18" rx="47.3916" ry="18"/>
<text text-anchor="middle" x="1042.19" y="-14.3" font-family="FreeSans" font-size="14.00" fill="#000000">X::IO::Dir</text>
</a>
</g>
</g>
<!-- X::IO::Dir&#45;&gt;Exception -->
<g id="edge22" class="edge"><title>X::IO::Dir&#45;&gt;Exception</title>
<path fill="none" stroke="#000000" d="M1028.89,-35.4369C1008.98,-72.1334 977.669,-161.032 968.2,-205.997"/>
<polygon fill="#000000" stroke="#000000" points="964.743,-205.444 966.36,-215.915 971.625,-206.72 964.743,-205.444"/>
</g>
<!-- X::IO::Dir&#45;&gt;Exception -->
<g id="edge23" class="edge"><title>X::IO::Dir&#45;&gt;Exception</title>
<path fill="none" stroke="#000000" d="M1036.26,-36.1508C1023.38,-73.4168 992.747,-161.998 977.355,-206.51"/>
<polygon fill="#000000" stroke="#000000" points="974.011,-205.47 974.051,-216.065 980.627,-207.758 974.011,-205.47"/>
</g>
<!-- X::IO::Dir&#45;&gt;Exception -->
<g id="edge24" class="edge"><title>X::IO::Dir&#45;&gt;Exception</title>
<path fill="none" stroke="#000000" d="M1044.02,-36.1508C1038.2,-73.7585 1007.57,-163.627 986.028,-207.723"/>
<polygon fill="#000000" stroke="#000000" points="982.898,-206.157 981.447,-216.652 989.126,-209.353 982.898,-206.157"/>
</g>
<!-- X::IO::Dir&#45;&gt;X::IO -->
<g id="edge48" class="edge"><title>X::IO::Dir&#45;&gt;X::IO</title>
<path fill="none" stroke="#6666ff" d="M1012.87,-32.3312C986.636,-44.2539 948.239,-61.7072 920.999,-74.0891"/>
<polygon fill="#6666ff" stroke="#6666ff" points="919.523,-70.9154 911.867,-78.2398 922.419,-77.288 919.523,-70.9154"/>
</g>
<!-- X::IO::Link -->
<g id="node14" class="node"><title>X::IO::Link</title>
<g id="a_node14"><a xlink:href="/type/X::IO::Link" xlink:title="X::IO::Link">
<ellipse fill="none" stroke="#000000" cx="1161.19" cy="-18" rx="53.0913" ry="18"/>
<text text-anchor="middle" x="1161.19" y="-14.3" font-family="FreeSans" font-size="14.00" fill="#000000">X::IO::Link</text>
</a>
</g>
</g>
<!-- X::IO::Link&#45;&gt;Exception -->
<g id="edge25" class="edge"><title>X::IO::Link&#45;&gt;Exception</title>
<path fill="none" stroke="#000000" d="M1139.35,-34.7305C1095.69,-75.2423 1007.19,-180 1007.19,-180 1007.19,-180 991.83,-194.287 979.574,-208.025"/>
<polygon fill="#000000" stroke="#000000" points="976.66,-206.05 972.856,-215.939 981.996,-210.58 976.66,-206.05"/>
</g>
<!-- X::IO::Link&#45;&gt;Exception -->
<g id="edge26" class="edge"><title>X::IO::Link&#45;&gt;Exception</title>
<path fill="none" stroke="#000000" d="M1147.15,-35.6234C1112.41,-76.7587 1025.19,-180 1025.19,-180 1025.19,-180 1008.13,-195.869 992.673,-210.24"/>
<polygon fill="#000000" stroke="#000000" points="990.237,-207.726 985.297,-217.098 995.004,-212.852 990.237,-207.726"/>
</g>
<!-- X::IO::Link&#45;&gt;Exception -->
<g id="edge27" class="edge"><title>X::IO::Link&#45;&gt;Exception</title>
<path fill="none" stroke="#000000" d="M1155.72,-35.9255C1129.98,-77.2617 1043.19,-180 1043.19,-180 1043.19,-180 1023.78,-198.054 1004.03,-213.088"/>
<polygon fill="#000000" stroke="#000000" points="1001.88,-210.327 995.9,-219.075 1006.03,-215.964 1001.88,-210.327"/>
</g>
<!-- X::IO::Link&#45;&gt;X::IO -->
<g id="edge49" class="edge"><title>X::IO::Link&#45;&gt;X::IO</title>
<path fill="none" stroke="#6666ff" d="M1120.94,-29.8626C1108.59,-33.1943 1098.19,-36 1098.19,-36 1098.19,-36 987.067,-64.0465 926.491,-79.3348"/>
<polygon fill="#6666ff" stroke="#6666ff" points="925.356,-76.0114 916.516,-81.8522 927.069,-82.7986 925.356,-76.0114"/>
</g>
<!-- X::IO::Copy -->
<g id="node15" class="node"><title>X::IO::Copy</title>
<g id="a_node15"><a xlink:href="/type/X::IO::Copy" xlink:title="X::IO::Copy">
<ellipse fill="none" stroke="#000000" cx="1289.19" cy="-18" rx="56.59" ry="18"/>
<text text-anchor="middle" x="1289.19" y="-14.3" font-family="FreeSans" font-size="14.00" fill="#000000">X::IO::Copy</text>
</a>
</g>
</g>
<!-- X::IO::Copy&#45;&gt;Exception -->
<g id="edge28" class="edge"><title>X::IO::Copy&#45;&gt;Exception</title>
<path fill="none" stroke="#000000" d="M1260.82,-33.8579C1197.45,-73.7148 1054.19,-180 1054.19,-180 1054.19,-180 1020.46,-197.193 994.739,-211.995"/>
<polygon fill="#000000" stroke="#000000" points="992.897,-209.017 986.045,-217.098 996.441,-215.054 992.897,-209.017"/>
</g>
<!-- X::IO::Copy&#45;&gt;Exception -->
<g id="edge29" class="edge"><title>X::IO::Copy&#45;&gt;Exception</title>
<path fill="none" stroke="#000000" d="M1267.99,-34.7305C1213.39,-75.2423 1072.19,-180 1072.19,-180 1072.19,-180 1034.75,-199.082 1004.8,-214.347"/>
<polygon fill="#000000" stroke="#000000" points="1003.11,-211.277 995.792,-218.936 1006.29,-217.514 1003.11,-211.277"/>
</g>
<!-- X::IO::Copy&#45;&gt;Exception -->
<g id="edge30" class="edge"><title>X::IO::Copy&#45;&gt;Exception</title>
<path fill="none" stroke="#000000" d="M1275.55,-35.6234C1229.35,-76.7587 1090.19,-180 1090.19,-180 1090.19,-180 1047.83,-201.592 1012.49,-217.213"/>
<polygon fill="#000000" stroke="#000000" points="1011,-214.044 1003.23,-221.238 1013.79,-220.465 1011,-214.044"/>
</g>
<!-- X::IO::Copy&#45;&gt;X::IO -->
<g id="edge50" class="edge"><title>X::IO::Copy&#45;&gt;X::IO</title>
<path fill="none" stroke="#6666ff" d="M1246.65,-29.9586C1233.88,-33.248 1223.19,-36 1223.19,-36 1223.19,-36 1016.6,-68.6859 927.886,-82.7205"/>
<polygon fill="#6666ff" stroke="#6666ff" points="927.254,-79.2769 917.924,-84.2966 928.348,-86.1909 927.254,-79.2769"/>
</g>
<!-- X::IO::Unlink -->
<g id="node16" class="node"><title>X::IO::Unlink</title>
<g id="a_node16"><a xlink:href="/type/X::IO::Unlink" xlink:title="X::IO::Unlink">
<ellipse fill="none" stroke="#000000" cx="1425.19" cy="-18" rx="61.1893" ry="18"/>
<text text-anchor="middle" x="1425.19" y="-14.3" font-family="FreeSans" font-size="14.00" fill="#000000">X::IO::Unlink</text>
</a>
</g>
</g>
<!-- X::IO::Unlink&#45;&gt;Exception -->
<g id="edge31" class="edge"><title>X::IO::Unlink&#45;&gt;Exception</title>
<path fill="none" stroke="#000000" d="M1391.22,-33.006C1309.1,-72.1764 1110.19,-180 1110.19,-180 1110.19,-180 1049.11,-200.234 1006.67,-215.698"/>
<polygon fill="#000000" stroke="#000000" points="1005.31,-212.472 997.133,-219.213 1007.73,-219.04 1005.31,-212.472"/>
</g>
<!-- X::IO::Unlink&#45;&gt;Exception -->
<g id="edge32" class="edge"><title>X::IO::Unlink&#45;&gt;Exception</title>
<path fill="none" stroke="#000000" d="M1397.25,-34.1465C1323.32,-74.2252 1128.19,-180 1128.19,-180 1128.19,-180 1060.77,-202.333 1013.46,-218.005"/>
<polygon fill="#000000" stroke="#000000" points="1012.1,-214.771 1003.7,-221.238 1014.3,-221.416 1012.1,-214.771"/>
</g>
<!-- X::IO::Unlink&#45;&gt;Exception -->
<g id="edge33" class="edge"><title>X::IO::Unlink&#45;&gt;Exception</title>
<path fill="none" stroke="#000000" d="M1404.25,-35.0259C1338.51,-75.749 1146.19,-180 1146.19,-180 1146.19,-180 1070.94,-204.929 1017.84,-220.593"/>
<polygon fill="#000000" stroke="#000000" points="1016.83,-217.243 1008.21,-223.402 1018.79,-223.963 1016.83,-217.243"/>
</g>
<!-- X::IO::Unlink&#45;&gt;X::IO -->
<g id="edge51" class="edge"><title>X::IO::Unlink&#45;&gt;X::IO</title>
<path fill="none" stroke="#6666ff" d="M1379.68,-30.0542C1366.31,-33.3012 1355.19,-36 1355.19,-36 1355.19,-36 1041.83,-71.5637 928.491,-84.4268"/>
<polygon fill="#6666ff" stroke="#6666ff" points="928.018,-80.9579 918.476,-85.5634 928.807,-87.9133 928.018,-80.9579"/>
</g>
<!-- X::IO::Cwd -->
<g id="node17" class="node"><title>X::IO::Cwd</title>
<g id="a_node17"><a xlink:href="/type/X::IO::Cwd" xlink:title="X::IO::Cwd">
<ellipse fill="none" stroke="#000000" cx="1558.19" cy="-18" rx="53.8905" ry="18"/>
<text text-anchor="middle" x="1558.19" y="-14.3" font-family="FreeSans" font-size="14.00" fill="#000000">X::IO::Cwd</text>
</a>
</g>
</g>
<!-- X::IO::Cwd&#45;&gt;Exception -->
<g id="edge34" class="edge"><title>X::IO::Cwd&#45;&gt;Exception</title>
<path fill="none" stroke="#000000" d="M1522.12,-31.4994C1426.1,-69.3271 1175.19,-180 1175.19,-180 1175.19,-180 1075.66,-203.446 1014.29,-219.15"/>
<polygon fill="#000000" stroke="#000000" points="1013.23,-215.809 1004.42,-221.695 1014.98,-222.587 1013.23,-215.809"/>
</g>
<!-- X::IO::Cwd&#45;&gt;Exception -->
<g id="edge35" class="edge"><title>X::IO::Cwd&#45;&gt;Exception</title>
<path fill="none" stroke="#000000" d="M1527.08,-32.7268C1438.81,-71.6611 1193.19,-180 1193.19,-180 1193.19,-180 1084.58,-205.586 1018.28,-221.203"/>
<polygon fill="#000000" stroke="#000000" points="1017.35,-217.825 1008.42,-223.525 1018.96,-224.639 1017.35,-217.825"/>
</g>
<!-- X::IO::Cwd&#45;&gt;Exception -->
<g id="edge36" class="edge"><title>X::IO::Cwd&#45;&gt;Exception</title>
<path fill="none" stroke="#000000" d="M1532.56,-34.0019C1451.57,-73.9702 1211.19,-180 1211.19,-180 1211.19,-180 1093.33,-207.764 1021.39,-223.102"/>
<polygon fill="#000000" stroke="#000000" points="1020.62,-219.687 1011.56,-225.18 1022.07,-226.536 1020.62,-219.687"/>
</g>
<!-- X::IO::Cwd&#45;&gt;X::IO -->
<g id="edge52" class="edge"><title>X::IO::Cwd&#45;&gt;X::IO</title>
<path fill="none" stroke="#6666ff" d="M1517.58,-29.9586C1505.39,-33.248 1495.19,-36 1495.19,-36 1495.19,-36 1065.51,-73.5182 929.176,-85.4218"/>
<polygon fill="#6666ff" stroke="#6666ff" points="928.788,-81.9422 919.131,-86.2989 929.397,-88.9157 928.788,-81.9422"/>
</g>
<!-- X::IO::DoesNotExist -->
<g id="node18" class="node"><title>X::IO::DoesNotExist</title>
<g id="a_node18"><a xlink:href="/type/X::IO::DoesNotExist" xlink:title="X::IO::DoesNotExist">
<ellipse fill="none" stroke="#000000" cx="1720.19" cy="-18" rx="89.8845" ry="18"/>
<text text-anchor="middle" x="1720.19" y="-14.3" font-family="FreeSans" font-size="14.00" fill="#000000">X::IO::DoesNotExist</text>
</a>
</g>
</g>
<!-- X::IO::DoesNotExist&#45;&gt;Exception -->
<g id="edge37" class="edge"><title>X::IO::DoesNotExist&#45;&gt;Exception</title>
<path fill="none" stroke="#000000" d="M1671.61,-33.2877C1550.46,-72.6904 1247.19,-180 1247.19,-180 1247.19,-180 1099.89,-206.287 1019.05,-221.835"/>
<polygon fill="#000000" stroke="#000000" points="1018.21,-218.432 1009.06,-223.768 1019.54,-225.305 1018.21,-218.432"/>
</g>
<!-- X::IO::DoesNotExist&#45;&gt;Exception -->
<g id="edge38" class="edge"><title>X::IO::DoesNotExist&#45;&gt;Exception</title>
<path fill="none" stroke="#000000" d="M1677.8,-34.0019C1564.84,-73.9702 1265.19,-180 1265.19,-180 1265.19,-180 1107.29,-208.178 1021.76,-223.442"/>
<polygon fill="#000000" stroke="#000000" points="1020.93,-220.034 1011.7,-225.237 1022.16,-226.925 1020.93,-220.034"/>
</g>
<!-- X::IO::DoesNotExist&#45;&gt;Exception -->
<g id="edge39" class="edge"><title>X::IO::DoesNotExist&#45;&gt;Exception</title>
<path fill="none" stroke="#000000" d="M1684.67,-34.5836C1579.97,-74.9885 1283.19,-180 1283.19,-180 1283.19,-180 1114.28,-210.142 1023.51,-224.964"/>
<polygon fill="#000000" stroke="#000000" points="1022.68,-221.552 1013.37,-226.607 1023.8,-228.461 1022.68,-221.552"/>
</g>
<!-- X::IO::DoesNotExist&#45;&gt;X::IO -->
<g id="edge53" class="edge"><title>X::IO::DoesNotExist&#45;&gt;X::IO</title>
<path fill="none" stroke="#6666ff" d="M1654.44,-30.292C1636.15,-33.4319 1621.19,-36 1621.19,-36 1621.19,-36 1083.72,-74.8624 929.253,-86.0313"/>
<polygon fill="#6666ff" stroke="#6666ff" points="928.944,-82.5444 919.223,-86.7565 929.449,-89.5261 928.944,-82.5444"/>
</g>
</g>
</svg>
