<?xml version="1.0" encoding="UTF-8" standalone="no"?>
<!DOCTYPE svg PUBLIC "-//W3C//DTD SVG 1.1//EN"
 "http://www.w3.org/Graphics/SVG/1.1/DTD/svg11.dtd">
<!-- Generated by graphviz version 2.38.0 (20140413.2041)
 -->
<!-- Title: perl6&#45;type&#45;graph Pages: 1 -->
<svg width="1819pt" height="404pt"
 viewBox="0.00 0.00 1818.79 404.00" xmlns="http://www.w3.org/2000/svg" xmlns:xlink="http://www.w3.org/1999/xlink">
<g id="graph0" class="graph" transform="scale(1 1) rotate(0) translate(4 400)">
<title>perl6&#45;type&#45;graph</title>
<polygon fill="white" stroke="none" points="-4,4 -4,-400 1814.79,-400 1814.79,4 -4,4"/>
<!-- X::IO -->
<g id="node1" class="node"><title>X::IO</title>
<g id="a_node1"><a xlink:href="/type/X::IO" xlink:title="X::IO">
<ellipse fill="none" stroke="#6666ff" cx="960.692" cy="-90" rx="31.3957" ry="18"/>
<text text-anchor="middle" x="960.692" y="-86.3" font-family="FreeSans" font-size="14.00" fill="#6666ff">X::IO</text>
</a>
</g>
</g>
<!-- Exception -->
<g id="node4" class="node"><title>Exception</title>
<g id="a_node4"><a xlink:href="/type/Exception" xlink:title="Exception">
<ellipse fill="none" stroke="#000000" cx="1074.69" cy="-234" rx="49.2915" ry="18"/>
<text text-anchor="middle" x="1074.69" y="-230.3" font-family="FreeSans" font-size="14.00" fill="#000000">Exception</text>
</a>
</g>
</g>
<!-- X::IO&#45;&gt;Exception -->
<g id="edge1" class="edge"><title>X::IO&#45;&gt;Exception</title>
<path fill="none" stroke="#000000" d="M969.156,-107.74C982.192,-133.521 1005.69,-180 1005.69,-180 1005.69,-180 1027.37,-196.653 1046.43,-211.29"/>
<polygon fill="#000000" stroke="#000000" points="1044.3,-214.069 1054.36,-217.385 1048.56,-208.518 1044.3,-214.069"/>
</g>
<!-- X::OS -->
<g id="node5" class="node"><title>X::OS</title>
<g id="a_node5"><a xlink:href="/type/X::OS" xlink:title="X::OS">
<ellipse fill="none" stroke="#6666ff" cx="919.692" cy="-162" rx="34.394" ry="18"/>
<text text-anchor="middle" x="919.692" y="-158.3" font-family="FreeSans" font-size="14.00" fill="#6666ff">X::OS</text>
</a>
</g>
</g>
<!-- X::IO&#45;&gt;X::OS -->
<g id="edge39" class="edge"><title>X::IO&#45;&gt;X::OS</title>
<path fill="none" stroke="#6666ff" d="M951.183,-107.235C946.235,-115.683 940.074,-126.201 934.518,-135.688"/>
<polygon fill="#6666ff" stroke="#6666ff" points="931.468,-133.969 929.434,-144.367 937.509,-137.507 931.468,-133.969"/>
</g>
<!-- Mu -->
<g id="node2" class="node"><title>Mu</title>
<g id="a_node2"><a xlink:href="/type/Mu" xlink:title="Mu">
<ellipse fill="none" stroke="#000000" cx="1074.69" cy="-378" rx="27" ry="18"/>
<text text-anchor="middle" x="1074.69" y="-374.3" font-family="FreeSans" font-size="14.00" fill="#000000">Mu</text>
</a>
</g>
</g>
<!-- Any -->
<g id="node3" class="node"><title>Any</title>
<g id="a_node3"><a xlink:href="/type/Any" xlink:title="Any">
<ellipse fill="none" stroke="#000000" cx="1074.69" cy="-306" rx="27" ry="18"/>
<text text-anchor="middle" x="1074.69" y="-302.3" font-family="FreeSans" font-size="14.00" fill="#000000">Any</text>
</a>
</g>
</g>
<!-- Any&#45;&gt;Mu -->
<g id="edge2" class="edge"><title>Any&#45;&gt;Mu</title>
<path fill="none" stroke="#000000" d="M1074.69,-324.303C1074.69,-332.017 1074.69,-341.288 1074.69,-349.888"/>
<polygon fill="#000000" stroke="#000000" points="1071.19,-349.896 1074.69,-359.896 1078.19,-349.896 1071.19,-349.896"/>
</g>
<!-- Exception&#45;&gt;Any -->
<g id="edge3" class="edge"><title>Exception&#45;&gt;Any</title>
<path fill="none" stroke="#000000" d="M1074.69,-252.303C1074.69,-260.017 1074.69,-269.288 1074.69,-277.888"/>
<polygon fill="#000000" stroke="#000000" points="1071.19,-277.896 1074.69,-287.896 1078.19,-277.896 1071.19,-277.896"/>
</g>
<!-- X::OS&#45;&gt;Exception -->
<g id="edge4" class="edge"><title>X::OS&#45;&gt;Exception</title>
<path fill="none" stroke="#000000" d="M944.94,-174.403C969.526,-185.506 1007.24,-202.539 1035.69,-215.385"/>
<polygon fill="#000000" stroke="#000000" points="1034.39,-218.64 1044.95,-219.566 1037.27,-212.261 1034.39,-218.64"/>
</g>
<!-- X::IO::DoesNotExist -->
<g id="node6" class="node"><title>X::IO::DoesNotExist</title>
<g id="a_node6"><a xlink:href="/type/X::IO::DoesNotExist" xlink:title="X::IO::DoesNotExist">
<ellipse fill="none" stroke="#000000" cx="89.692" cy="-18" rx="89.8845" ry="18"/>
<text text-anchor="middle" x="89.692" y="-14.3" font-family="FreeSans" font-size="14.00" fill="#000000">X::IO::DoesNotExist</text>
</a>
</g>
</g>
<!-- X::IO::DoesNotExist&#45;&gt;X::IO -->
<g id="edge40" class="edge"><title>X::IO::DoesNotExist&#45;&gt;X::IO</title>
<path fill="none" stroke="#6666ff" d="M155.059,-30.3392C173.036,-33.4576 187.692,-36 187.692,-36 187.692,-36 759.562,-75.2097 919.549,-86.179"/>
<polygon fill="#6666ff" stroke="#6666ff" points="919.696,-89.6973 929.913,-86.8896 920.175,-82.7137 919.696,-89.6973"/>
</g>
<!-- X::IO::DoesNotExist&#45;&gt;Exception -->
<g id="edge5" class="edge"><title>X::IO::DoesNotExist&#45;&gt;Exception</title>
<path fill="none" stroke="#000000" d="M132.092,-34.0019C251.407,-73.9702 580.692,-180 580.692,-180 580.692,-180 887.132,-213.487 1017.37,-227.225"/>
<polygon fill="#000000" stroke="#000000" points="1017.24,-230.731 1027.55,-228.297 1017.97,-223.769 1017.24,-230.731"/>
</g>
<!-- X::IO::DoesNotExist&#45;&gt;Exception -->
<g id="edge6" class="edge"><title>X::IO::DoesNotExist&#45;&gt;Exception</title>
<path fill="none" stroke="#000000" d="M138.166,-33.2877C265.432,-72.6904 598.692,-180 598.692,-180 598.692,-180 892.206,-212.075 1018.33,-226.32"/>
<polygon fill="#000000" stroke="#000000" points="1018.23,-229.831 1028.56,-227.478 1019.01,-222.875 1018.23,-229.831"/>
</g>
<!-- X::IO::Rename -->
<g id="node7" class="node"><title>X::IO::Rename</title>
<g id="a_node7"><a xlink:href="/type/X::IO::Rename" xlink:title="X::IO::Rename">
<ellipse fill="none" stroke="#000000" cx="266.692" cy="-18" rx="69.5877" ry="18"/>
<text text-anchor="middle" x="266.692" y="-14.3" font-family="FreeSans" font-size="14.00" fill="#000000">X::IO::Rename</text>
</a>
</g>
</g>
<!-- X::IO::Rename&#45;&gt;X::IO -->
<g id="edge41" class="edge"><title>X::IO::Rename&#45;&gt;X::IO</title>
<path fill="none" stroke="#6666ff" d="M318.505,-30.1496C333.395,-33.3539 345.692,-36 345.692,-36 345.692,-36 782.03,-73.6031 919.639,-85.4621"/>
<polygon fill="#6666ff" stroke="#6666ff" points="919.509,-88.9638 929.773,-86.3354 920.11,-81.9896 919.509,-88.9638"/>
</g>
<!-- X::IO::Rename&#45;&gt;Exception -->
<g id="edge7" class="edge"><title>X::IO::Rename&#45;&gt;Exception</title>
<path fill="none" stroke="#000000" d="M300.648,-33.7145C398.745,-73.4592 674.692,-180 674.692,-180 674.692,-180 908.175,-211.649 1018.45,-226.033"/>
<polygon fill="#000000" stroke="#000000" points="1018.03,-229.509 1028.4,-227.328 1018.94,-222.567 1018.03,-229.509"/>
</g>
<!-- X::IO::Rename&#45;&gt;Exception -->
<g id="edge8" class="edge"><title>X::IO::Rename&#45;&gt;Exception</title>
<path fill="none" stroke="#000000" d="M306.656,-32.8661C412.755,-71.9189 692.692,-180 692.692,-180 692.692,-180 913.976,-209.995 1019.77,-224.855"/>
<polygon fill="#000000" stroke="#000000" points="1019.55,-228.359 1029.94,-226.288 1020.53,-221.427 1019.55,-228.359"/>
</g>
<!-- X::IO::Chdir -->
<g id="node8" class="node"><title>X::IO::Chdir</title>
<g id="a_node8"><a xlink:href="/type/X::IO::Chdir" xlink:title="X::IO::Chdir">
<ellipse fill="none" stroke="#000000" cx="411.692" cy="-18" rx="57.3905" ry="18"/>
<text text-anchor="middle" x="411.692" y="-14.3" font-family="FreeSans" font-size="14.00" fill="#000000">X::IO::Chdir</text>
</a>
</g>
</g>
<!-- X::IO::Chdir&#45;&gt;X::IO -->
<g id="edge42" class="edge"><title>X::IO::Chdir&#45;&gt;X::IO</title>
<path fill="none" stroke="#6666ff" d="M454.608,-30.0542C467.214,-33.3012 477.692,-36 477.692,-36 477.692,-36 803.292,-71.7283 919.825,-84.5157"/>
<polygon fill="#6666ff" stroke="#6666ff" points="919.79,-88.0327 930.112,-85.6444 920.553,-81.0744 919.79,-88.0327"/>
</g>
<!-- X::IO::Chdir&#45;&gt;Exception -->
<g id="edge9" class="edge"><title>X::IO::Chdir&#45;&gt;Exception</title>
<path fill="none" stroke="#000000" d="M439.708,-33.7145C521.758,-73.4592 754.692,-180 754.692,-180 754.692,-180 928.406,-209.604 1019.93,-224.562"/>
<polygon fill="#000000" stroke="#000000" points="1019.43,-228.026 1029.87,-226.18 1020.56,-221.117 1019.43,-228.026"/>
</g>
<!-- X::IO::Chdir&#45;&gt;Exception -->
<g id="edge10" class="edge"><title>X::IO::Chdir&#45;&gt;Exception</title>
<path fill="none" stroke="#000000" d="M445.414,-32.588C535.263,-71.403 772.692,-180 772.692,-180 772.692,-180 935.402,-207.729 1022.04,-223.073"/>
<polygon fill="#000000" stroke="#000000" points="1021.5,-226.532 1031.95,-224.835 1022.72,-219.64 1021.5,-226.532"/>
</g>
<!-- X::IO::Symlink -->
<g id="node9" class="node"><title>X::IO::Symlink</title>
<g id="a_node9"><a xlink:href="/type/X::IO::Symlink" xlink:title="X::IO::Symlink">
<ellipse fill="none" stroke="#000000" cx="554.692" cy="-18" rx="67.6881" ry="18"/>
<text text-anchor="middle" x="554.692" y="-14.3" font-family="FreeSans" font-size="14.00" fill="#000000">X::IO::Symlink</text>
</a>
</g>
</g>
<!-- X::IO::Symlink&#45;&gt;X::IO -->
<g id="edge43" class="edge"><title>X::IO::Symlink&#45;&gt;X::IO</title>
<path fill="none" stroke="#6666ff" d="M605.193,-30.1496C619.707,-33.3539 631.692,-36 631.692,-36 631.692,-36 833.212,-68.4637 920.818,-82.5764"/>
<polygon fill="#6666ff" stroke="#6666ff" points="920.486,-86.0681 930.915,-84.2031 921.599,-79.1572 920.486,-86.0681"/>
</g>
<!-- X::IO::Symlink&#45;&gt;Exception -->
<g id="edge11" class="edge"><title>X::IO::Symlink&#45;&gt;Exception</title>
<path fill="none" stroke="#000000" d="M577.357,-35.0259C641.214,-75.749 816.692,-180 816.692,-180 816.692,-180 946.316,-207.591 1021.89,-222.958"/>
<polygon fill="#000000" stroke="#000000" points="1021.23,-226.396 1031.73,-224.95 1022.62,-219.535 1021.23,-226.396"/>
</g>
<!-- X::IO::Symlink&#45;&gt;Exception -->
<g id="edge12" class="edge"><title>X::IO::Symlink&#45;&gt;Exception</title>
<path fill="none" stroke="#000000" d="M584.656,-34.2916C657.078,-74.4799 834.692,-180 834.692,-180 834.692,-180 954.424,-205.485 1024.83,-221.111"/>
<polygon fill="#000000" stroke="#000000" points="1024.32,-224.583 1034.85,-223.341 1025.85,-217.75 1024.32,-224.583"/>
</g>
<!-- X::IO::Mkdir -->
<g id="node10" class="node"><title>X::IO::Mkdir</title>
<g id="a_node10"><a xlink:href="/type/X::IO::Mkdir" xlink:title="X::IO::Mkdir">
<ellipse fill="none" stroke="#000000" cx="698.692" cy="-18" rx="58.4896" ry="18"/>
<text text-anchor="middle" x="698.692" y="-14.3" font-family="FreeSans" font-size="14.00" fill="#000000">X::IO::Mkdir</text>
</a>
</g>
</g>
<!-- X::IO::Mkdir&#45;&gt;X::IO -->
<g id="edge44" class="edge"><title>X::IO::Mkdir&#45;&gt;X::IO</title>
<path fill="none" stroke="#6666ff" d="M741.37,-30.4025C791.864,-43.8933 875.128,-66.1393 923.228,-78.9904"/>
<polygon fill="#6666ff" stroke="#6666ff" points="922.369,-82.3837 932.933,-81.5836 924.176,-75.6209 922.369,-82.3837"/>
</g>
<!-- X::IO::Mkdir&#45;&gt;Exception -->
<g id="edge13" class="edge"><title>X::IO::Mkdir&#45;&gt;Exception</title>
<path fill="none" stroke="#000000" d="M711.556,-35.6234C749.603,-76.7587 856.692,-180 856.692,-180 856.692,-180 959.062,-205.96 1023.6,-221.543"/>
<polygon fill="#000000" stroke="#000000" points="1023.07,-225.015 1033.61,-223.949 1024.7,-218.209 1023.07,-225.015"/>
</g>
<!-- X::IO::Mkdir&#45;&gt;Exception -->
<g id="edge14" class="edge"><title>X::IO::Mkdir&#45;&gt;Exception</title>
<path fill="none" stroke="#000000" d="M719.626,-35.0259C766.556,-75.749 874.692,-180 874.692,-180 874.692,-180 968.055,-203.676 1027.29,-219.379"/>
<polygon fill="#000000" stroke="#000000" points="1026.64,-222.828 1037.21,-222.018 1028.44,-216.063 1026.64,-222.828"/>
</g>
<!-- X::IO::Chmod -->
<g id="node11" class="node"><title>X::IO::Chmod</title>
<g id="a_node11"><a xlink:href="/type/X::IO::Chmod" xlink:title="X::IO::Chmod">
<ellipse fill="none" stroke="#000000" cx="839.692" cy="-18" rx="64.189" ry="18"/>
<text text-anchor="middle" x="839.692" y="-14.3" font-family="FreeSans" font-size="14.00" fill="#000000">X::IO::Chmod</text>
</a>
</g>
</g>
<!-- X::IO::Chmod&#45;&gt;X::IO -->
<g id="edge45" class="edge"><title>X::IO::Chmod&#45;&gt;X::IO</title>
<path fill="none" stroke="#6666ff" d="M866.546,-34.5353C885.539,-45.5231 911.019,-60.2638 930.682,-71.6389"/>
<polygon fill="#6666ff" stroke="#6666ff" points="929.129,-74.7839 939.538,-76.7619 932.634,-68.7247 929.129,-74.7839"/>
</g>
<!-- X::IO::Chmod&#45;&gt;Exception -->
<g id="edge15" class="edge"><title>X::IO::Chmod&#45;&gt;Exception</title>
<path fill="none" stroke="#000000" d="M834.76,-36.2298C835.197,-77.7634 858.692,-180 858.692,-180 858.692,-180 958,-206.582 1022.35,-222.096"/>
<polygon fill="#000000" stroke="#000000" points="1021.82,-225.567 1032.36,-224.485 1023.44,-218.758 1021.82,-225.567"/>
</g>
<!-- X::IO::Chmod&#45;&gt;Exception -->
<g id="edge16" class="edge"><title>X::IO::Chmod&#45;&gt;Exception</title>
<path fill="none" stroke="#000000" d="M843.652,-36.2298C853.197,-77.7634 876.692,-180 876.692,-180 876.692,-180 967.601,-204.334 1026.22,-220.025"/>
<polygon fill="#000000" stroke="#000000" points="1025.48,-223.45 1036.05,-222.655 1027.29,-216.688 1025.48,-223.45"/>
</g>
<!-- X::IO::Chmod&#45;&gt;Exception -->
<g id="edge17" class="edge"><title>X::IO::Chmod&#45;&gt;Exception</title>
<path fill="none" stroke="#000000" d="M852.406,-35.9255C871.081,-77.2617 894.692,-180 894.692,-180 894.692,-180 977.632,-202.201 1031.27,-217.866"/>
<polygon fill="#000000" stroke="#000000" points="1030.34,-221.239 1040.92,-220.708 1032.32,-214.524 1030.34,-221.239"/>
</g>
<!-- X::IO::Link -->
<g id="node12" class="node"><title>X::IO::Link</title>
<g id="a_node12"><a xlink:href="/type/X::IO::Link" xlink:title="X::IO::Link">
<ellipse fill="none" stroke="#000000" cx="975.692" cy="-18" rx="53.0913" ry="18"/>
<text text-anchor="middle" x="975.692" y="-14.3" font-family="FreeSans" font-size="14.00" fill="#000000">X::IO::Link</text>
</a>
</g>
</g>
<!-- X::IO::Link&#45;&gt;X::IO -->
<g id="edge46" class="edge"><title>X::IO::Link&#45;&gt;X::IO</title>
<path fill="none" stroke="#6666ff" d="M971.984,-36.3034C970.331,-44.0173 968.345,-53.2875 966.502,-61.8876"/>
<polygon fill="#6666ff" stroke="#6666ff" points="963.03,-61.3843 964.357,-71.8957 969.875,-62.851 963.03,-61.3843"/>
</g>
<!-- X::IO::Link&#45;&gt;Exception -->
<g id="edge18" class="edge"><title>X::IO::Link&#45;&gt;Exception</title>
<path fill="none" stroke="#000000" d="M970.052,-36.0613C973.048,-51.5549 982.692,-72 982.692,-72 982.692,-72 1024.6,-163.183 1053.01,-208.306"/>
<polygon fill="#000000" stroke="#000000" points="1050.09,-210.232 1058.5,-216.676 1055.95,-206.394 1050.09,-210.232"/>
</g>
<!-- X::IO::Link&#45;&gt;Exception -->
<g id="edge19" class="edge"><title>X::IO::Link&#45;&gt;Exception</title>
<path fill="none" stroke="#000000" d="M983.74,-36.0613C991.048,-51.5549 1000.69,-72 1000.69,-72 1000.69,-72 1041.68,-161.172 1062.64,-206.789"/>
<polygon fill="#000000" stroke="#000000" points="1059.56,-208.45 1066.91,-216.074 1065.92,-205.527 1059.56,-208.45"/>
</g>
<!-- X::IO::Link&#45;&gt;Exception -->
<g id="edge20" class="edge"><title>X::IO::Link&#45;&gt;Exception</title>
<path fill="none" stroke="#000000" d="M996.325,-34.6151C1008.43,-50.2488 1018.69,-72 1018.69,-72 1018.69,-72 1059.14,-159.994 1072.95,-205.876"/>
<polygon fill="#000000" stroke="#000000" points="1069.65,-207.051 1075.66,-215.77 1076.4,-205.201 1069.65,-207.051"/>
</g>
<!-- X::IO::Cwd -->
<g id="node13" class="node"><title>X::IO::Cwd</title>
<g id="a_node13"><a xlink:href="/type/X::IO::Cwd" xlink:title="X::IO::Cwd">
<ellipse fill="none" stroke="#000000" cx="1100.69" cy="-18" rx="53.8905" ry="18"/>
<text text-anchor="middle" x="1100.69" y="-14.3" font-family="FreeSans" font-size="14.00" fill="#000000">X::IO::Cwd</text>
</a>
</g>
</g>
<!-- X::IO::Cwd&#45;&gt;X::IO -->
<g id="edge47" class="edge"><title>X::IO::Cwd&#45;&gt;X::IO</title>
<path fill="none" stroke="#6666ff" d="M1072.02,-33.3345C1049,-44.846 1016.68,-61.0043 992.796,-72.9482"/>
<polygon fill="#6666ff" stroke="#6666ff" points="991.149,-69.8585 983.77,-77.4612 994.279,-76.1195 991.149,-69.8585"/>
</g>
<!-- X::IO::Cwd&#45;&gt;Exception -->
<g id="edge21" class="edge"><title>X::IO::Cwd&#45;&gt;Exception</title>
<path fill="none" stroke="#000000" d="M1090.97,-35.7922C1079.34,-72.6581 1068.05,-160.955 1068.64,-205.829"/>
<polygon fill="#000000" stroke="#000000" points="1065.15,-206.132 1069.03,-215.99 1072.14,-205.862 1065.15,-206.132"/>
</g>
<!-- X::IO::Cwd&#45;&gt;Exception -->
<g id="edge22" class="edge"><title>X::IO::Cwd&#45;&gt;Exception</title>
<path fill="none" stroke="#000000" d="M1098.61,-36.1508C1094.11,-73.1683 1083.46,-160.819 1078.02,-205.614"/>
<polygon fill="#000000" stroke="#000000" points="1074.52,-205.418 1076.79,-215.768 1081.47,-206.263 1074.52,-205.418"/>
</g>
<!-- X::IO::Cwd&#45;&gt;Exception -->
<g id="edge23" class="edge"><title>X::IO::Cwd&#45;&gt;Exception</title>
<path fill="none" stroke="#000000" d="M1106.36,-36.1508C1108.95,-73.3384 1098.74,-161.626 1087.25,-206.228"/>
<polygon fill="#000000" stroke="#000000" points="1083.82,-205.489 1084.46,-216.065 1090.55,-207.395 1083.82,-205.489"/>
</g>
<!-- X::IO::Rmdir -->
<g id="node14" class="node"><title>X::IO::Rmdir</title>
<g id="a_node14"><a xlink:href="/type/X::IO::Rmdir" xlink:title="X::IO::Rmdir">
<ellipse fill="none" stroke="#000000" cx="1232.69" cy="-18" rx="59.5901" ry="18"/>
<text text-anchor="middle" x="1232.69" y="-14.3" font-family="FreeSans" font-size="14.00" fill="#000000">X::IO::Rmdir</text>
</a>
</g>
</g>
<!-- X::IO::Rmdir&#45;&gt;X::IO -->
<g id="edge48" class="edge"><title>X::IO::Rmdir&#45;&gt;X::IO</title>
<path fill="none" stroke="#6666ff" d="M1188.69,-30.3245C1135.94,-43.8997 1048.43,-66.4203 998.564,-79.2535"/>
<polygon fill="#6666ff" stroke="#6666ff" points="997.63,-75.8799 988.818,-81.7618 999.374,-82.659 997.63,-75.8799"/>
</g>
<!-- X::IO::Rmdir&#45;&gt;Exception -->
<g id="edge24" class="edge"><title>X::IO::Rmdir&#45;&gt;Exception</title>
<path fill="none" stroke="#000000" d="M1212.42,-35.0259C1173.45,-75.749 1097.69,-180 1097.69,-180 1097.69,-180 1087.25,-193.497 1079.22,-206.869"/>
<polygon fill="#000000" stroke="#000000" points="1075.98,-205.494 1074.2,-215.939 1082.11,-208.882 1075.98,-205.494"/>
</g>
<!-- X::IO::Rmdir&#45;&gt;Exception -->
<g id="edge25" class="edge"><title>X::IO::Rmdir&#45;&gt;Exception</title>
<path fill="none" stroke="#000000" d="M1220.39,-35.9255C1190.35,-77.2617 1115.69,-180 1115.69,-180 1115.69,-180 1104.36,-194.649 1093.61,-208.543"/>
<polygon fill="#000000" stroke="#000000" points="1090.79,-206.47 1087.44,-216.521 1096.33,-210.753 1090.79,-206.47"/>
</g>
<!-- X::IO::Rmdir&#45;&gt;Exception -->
<g id="edge26" class="edge"><title>X::IO::Rmdir&#45;&gt;Exception</title>
<path fill="none" stroke="#000000" d="M1229.06,-36.2298C1207.99,-77.7634 1133.69,-180 1133.69,-180 1133.69,-180 1121.04,-196.355 1106.71,-210.895"/>
<polygon fill="#000000" stroke="#000000" points="1103.87,-208.769 1099.12,-218.237 1108.74,-213.8 1103.87,-208.769"/>
</g>
<!-- X::IO::Move -->
<g id="node15" class="node"><title>X::IO::Move</title>
<g id="a_node15"><a xlink:href="/type/X::IO::Move" xlink:title="X::IO::Move">
<ellipse fill="none" stroke="#000000" cx="1368.69" cy="-18" rx="57.6901" ry="18"/>
<text text-anchor="middle" x="1368.69" y="-14.3" font-family="FreeSans" font-size="14.00" fill="#000000">X::IO::Move</text>
</a>
</g>
</g>
<!-- X::IO::Move&#45;&gt;X::IO -->
<g id="edge49" class="edge"><title>X::IO::Move&#45;&gt;X::IO</title>
<path fill="none" stroke="#6666ff" d="M1325.13,-30.0542C1312.33,-33.3012 1301.69,-36 1301.69,-36 1301.69,-36 1090.38,-68.8425 1000.45,-82.8209"/>
<polygon fill="#6666ff" stroke="#6666ff" points="999.701,-79.3949 990.357,-84.3893 1000.78,-86.3119 999.701,-79.3949"/>
</g>
<!-- X::IO::Move&#45;&gt;Exception -->
<g id="edge27" class="edge"><title>X::IO::Move&#45;&gt;Exception</title>
<path fill="none" stroke="#000000" d="M1341.15,-33.8579C1280,-73.7148 1142.69,-180 1142.69,-180 1142.69,-180 1116.65,-196.05 1096.23,-210.485"/>
<polygon fill="#000000" stroke="#000000" points="1093.95,-207.814 1087.91,-216.521 1098.06,-213.48 1093.95,-207.814"/>
</g>
<!-- X::IO::Move&#45;&gt;Exception -->
<g id="edge28" class="edge"><title>X::IO::Move&#45;&gt;Exception</title>
<path fill="none" stroke="#000000" d="M1347.99,-35.0259C1295.38,-75.749 1160.69,-180 1160.69,-180 1160.69,-180 1131.66,-197.89 1107.34,-212.883"/>
<polygon fill="#000000" stroke="#000000" points="1105.32,-210.01 1098.65,-218.237 1109,-215.97 1105.32,-210.01"/>
</g>
<!-- X::IO::Move&#45;&gt;Exception -->
<g id="edge29" class="edge"><title>X::IO::Move&#45;&gt;Exception</title>
<path fill="none" stroke="#000000" d="M1355.97,-35.6234C1312.07,-76.7587 1178.69,-180 1178.69,-180 1178.69,-180 1145.69,-200.341 1116.29,-215.82"/>
<polygon fill="#000000" stroke="#000000" points="1114.61,-212.748 1107.32,-220.44 1117.82,-218.971 1114.61,-212.748"/>
</g>
<!-- X::IO::Copy -->
<g id="node16" class="node"><title>X::IO::Copy</title>
<g id="a_node16"><a xlink:href="/type/X::IO::Copy" xlink:title="X::IO::Copy">
<ellipse fill="none" stroke="#000000" cx="1500.69" cy="-18" rx="56.59" ry="18"/>
<text text-anchor="middle" x="1500.69" y="-14.3" font-family="FreeSans" font-size="14.00" fill="#000000">X::IO::Copy</text>
</a>
</g>
</g>
<!-- X::IO::Copy&#45;&gt;X::IO -->
<g id="edge50" class="edge"><title>X::IO::Copy&#45;&gt;X::IO</title>
<path fill="none" stroke="#6666ff" d="M1458.43,-30.0542C1446.01,-33.3012 1435.69,-36 1435.69,-36 1435.69,-36 1116.22,-71.646 1001.28,-84.4713"/>
<polygon fill="#6666ff" stroke="#6666ff" points="1000.68,-81.0166 991.128,-85.604 1001.45,-87.9734 1000.68,-81.0166"/>
</g>
<!-- X::IO::Copy&#45;&gt;Exception -->
<g id="edge30" class="edge"><title>X::IO::Copy&#45;&gt;Exception</title>
<path fill="none" stroke="#000000" d="M1468.05,-32.8661C1389.02,-71.9189 1197.69,-180 1197.69,-180 1197.69,-180 1146.52,-199.234 1109.77,-214.528"/>
<polygon fill="#000000" stroke="#000000" points="1108.16,-211.407 1100.31,-218.518 1110.88,-217.857 1108.16,-211.407"/>
</g>
<!-- X::IO::Copy&#45;&gt;Exception -->
<g id="edge31" class="edge"><title>X::IO::Copy&#45;&gt;Exception</title>
<path fill="none" stroke="#000000" d="M1474.14,-34.0019C1403.38,-73.9702 1215.69,-180 1215.69,-180 1215.69,-180 1158.66,-201.439 1117.14,-217.046"/>
<polygon fill="#000000" stroke="#000000" points="1115.88,-213.779 1107.75,-220.574 1118.34,-220.331 1115.88,-213.779"/>
</g>
<!-- X::IO::Copy&#45;&gt;Exception -->
<g id="edge32" class="edge"><title>X::IO::Copy&#45;&gt;Exception</title>
<path fill="none" stroke="#000000" d="M1480.94,-35.0259C1418.24,-75.749 1233.69,-180 1233.69,-180 1233.69,-180 1170.55,-203.735 1123.38,-219.438"/>
<polygon fill="#000000" stroke="#000000" points="1121.99,-216.209 1113.58,-222.655 1124.18,-222.859 1121.99,-216.209"/>
</g>
<!-- X::IO::Dir -->
<g id="node17" class="node"><title>X::IO::Dir</title>
<g id="a_node17"><a xlink:href="/type/X::IO::Dir" xlink:title="X::IO::Dir">
<ellipse fill="none" stroke="#000000" cx="1622.69" cy="-18" rx="47.3916" ry="18"/>
<text text-anchor="middle" x="1622.69" y="-14.3" font-family="FreeSans" font-size="14.00" fill="#000000">X::IO::Dir</text>
</a>
</g>
</g>
<!-- X::IO::Dir&#45;&gt;X::IO -->
<g id="edge51" class="edge"><title>X::IO::Dir&#45;&gt;X::IO</title>
<path fill="none" stroke="#6666ff" d="M1586.91,-29.8626C1575.93,-33.1943 1566.69,-36 1566.69,-36 1566.69,-36 1137.71,-73.5182 1001.61,-85.4218"/>
<polygon fill="#6666ff" stroke="#6666ff" points="1001.23,-81.9408 991.577,-86.2989 1001.84,-88.9142 1001.23,-81.9408"/>
</g>
<!-- X::IO::Dir&#45;&gt;Exception -->
<g id="edge33" class="edge"><title>X::IO::Dir&#45;&gt;Exception</title>
<path fill="none" stroke="#000000" d="M1589.52,-30.9696C1499.39,-68.2818 1260.69,-180 1260.69,-180 1260.69,-180 1174.26,-202.454 1118.88,-218.132"/>
<polygon fill="#000000" stroke="#000000" points="1117.59,-214.862 1108.93,-220.973 1119.51,-221.593 1117.59,-214.862"/>
</g>
<!-- X::IO::Dir&#45;&gt;Exception -->
<g id="edge34" class="edge"><title>X::IO::Dir&#45;&gt;Exception</title>
<path fill="none" stroke="#000000" d="M1593.95,-32.4499C1511.28,-71.1446 1278.69,-180 1278.69,-180 1278.69,-180 1184.13,-204.568 1123.77,-220.25"/>
<polygon fill="#000000" stroke="#000000" points="1122.82,-216.879 1114.03,-222.781 1124.58,-223.654 1122.82,-216.879"/>
</g>
<!-- X::IO::Dir&#45;&gt;Exception -->
<g id="edge35" class="edge"><title>X::IO::Dir&#45;&gt;Exception</title>
<path fill="none" stroke="#000000" d="M1599.29,-33.8579C1523.79,-73.7148 1296.69,-180 1296.69,-180 1296.69,-180 1193.14,-206.902 1127.09,-222.373"/>
<polygon fill="#000000" stroke="#000000" points="1126.18,-218.991 1117.23,-224.66 1127.76,-225.81 1126.18,-218.991"/>
</g>
<!-- X::IO::Unlink -->
<g id="node18" class="node"><title>X::IO::Unlink</title>
<g id="a_node18"><a xlink:href="/type/X::IO::Unlink" xlink:title="X::IO::Unlink">
<ellipse fill="none" stroke="#000000" cx="1749.69" cy="-18" rx="61.1893" ry="18"/>
<text text-anchor="middle" x="1749.69" y="-14.3" font-family="FreeSans" font-size="14.00" fill="#000000">X::IO::Unlink</text>
</a>
</g>
</g>
<!-- X::IO::Unlink&#45;&gt;X::IO -->
<g id="edge52" class="edge"><title>X::IO::Unlink&#45;&gt;X::IO</title>
<path fill="none" stroke="#6666ff" d="M1703.92,-29.9586C1690.19,-33.248 1678.69,-36 1678.69,-36 1678.69,-36 1154.44,-74.6983 1001.87,-85.9601"/>
<polygon fill="#6666ff" stroke="#6666ff" points="1001.26,-82.4959 991.544,-86.7227 1001.77,-89.4769 1001.26,-82.4959"/>
</g>
<!-- X::IO::Unlink&#45;&gt;Exception -->
<g id="edge36" class="edge"><title>X::IO::Unlink&#45;&gt;Exception</title>
<path fill="none" stroke="#000000" d="M1710.08,-31.768C1605.05,-69.8479 1330.69,-180 1330.69,-180 1330.69,-180 1199.46,-205.384 1124.6,-221.018"/>
<polygon fill="#000000" stroke="#000000" points="1123.5,-217.673 1114.44,-223.155 1124.94,-224.523 1123.5,-217.673"/>
</g>
<!-- X::IO::Unlink&#45;&gt;Exception -->
<g id="edge37" class="edge"><title>X::IO::Unlink&#45;&gt;Exception</title>
<path fill="none" stroke="#000000" d="M1715.16,-32.8661C1617.89,-71.9189 1348.69,-180 1348.69,-180 1348.69,-180 1206.58,-207.489 1127.05,-222.873"/>
<polygon fill="#000000" stroke="#000000" points="1126.36,-219.441 1117.2,-224.777 1127.69,-226.314 1126.36,-219.441"/>
</g>
<!-- X::IO::Unlink&#45;&gt;Exception -->
<g id="edge38" class="edge"><title>X::IO::Unlink&#45;&gt;Exception</title>
<path fill="none" stroke="#000000" d="M1720.71,-34.0019C1630.78,-73.9702 1366.69,-180 1366.69,-180 1366.69,-180 1214.57,-209.424 1129.58,-224.425"/>
<polygon fill="#000000" stroke="#000000" points="1128.81,-221.007 1119.56,-226.18 1130.01,-227.902 1128.81,-221.007"/>
</g>
</g>
</svg>
