<?xml version="1.0" encoding="UTF-8" standalone="no"?>
<!DOCTYPE svg PUBLIC "-//W3C//DTD SVG 1.1//EN"
 "http://www.w3.org/Graphics/SVG/1.1/DTD/svg11.dtd">
<!-- Generated by graphviz version 2.38.0 (20140413.2041)
 -->
<!-- Title: perl6&#45;type&#45;graph Pages: 1 -->
<svg width="321pt" height="260pt"
 viewBox="0.00 0.00 320.99 260.00" xmlns="http://www.w3.org/2000/svg" xmlns:xlink="http://www.w3.org/1999/xlink">
<g id="graph0" class="graph" transform="scale(1 1) rotate(0) translate(4 256)">
<title>perl6&#45;type&#45;graph</title>
<polygon fill="white" stroke="none" points="-4,4 -4,-256 316.994,-256 316.994,4 -4,4"/>
<!-- Uni -->
<g id="node1" class="node"><title>Uni</title>
<g id="a_node1"><a xlink:href="/type/Uni" xlink:title="Uni">
<ellipse fill="none" stroke="#000000" cx="146.247" cy="-90" rx="27" ry="18"/>
<text text-anchor="middle" x="146.247" y="-86.3" font-family="FreeSans" font-size="14.00" fill="#000000">Uni</text>
</a>
</g>
</g>
<!-- Any -->
<g id="node3" class="node"><title>Any</title>
<g id="a_node3"><a xlink:href="/type/Any" xlink:title="Any">
<ellipse fill="none" stroke="#000000" cx="52.2474" cy="-162" rx="27" ry="18"/>
<text text-anchor="middle" x="52.2474" y="-158.3" font-family="FreeSans" font-size="14.00" fill="#000000">Any</text>
</a>
</g>
</g>
<!-- Uni&#45;&gt;Any -->
<g id="edge1" class="edge"><title>Uni&#45;&gt;Any</title>
<path fill="none" stroke="#000000" d="M128.567,-104.166C114.297,-114.793 94.0242,-129.89 77.9587,-141.853"/>
<polygon fill="#000000" stroke="#000000" points="75.4612,-139.349 69.5312,-148.129 79.6421,-144.964 75.4612,-139.349"/>
</g>
<!-- Positional -->
<g id="node4" class="node"><title>Positional</title>
<g id="a_node4"><a xlink:href="/type/Positional" xlink:title="Positional">
<ellipse fill="none" stroke="#6666ff" cx="146.247" cy="-162" rx="48.9926" ry="18"/>
<text text-anchor="middle" x="146.247" y="-158.3" font-family="FreeSans" font-size="14.00" fill="#6666ff">Positional</text>
</a>
</g>
</g>
<!-- Uni&#45;&gt;Positional -->
<g id="edge7" class="edge"><title>Uni&#45;&gt;Positional</title>
<path fill="none" stroke="#6666ff" d="M146.247,-108.303C146.247,-116.017 146.247,-125.288 146.247,-133.888"/>
<polygon fill="#6666ff" stroke="#6666ff" points="142.748,-133.896 146.247,-143.896 149.748,-133.896 142.748,-133.896"/>
</g>
<!-- Stringy -->
<g id="node5" class="node"><title>Stringy</title>
<g id="a_node5"><a xlink:href="/type/Stringy" xlink:title="Stringy">
<ellipse fill="none" stroke="#6666ff" cx="251.247" cy="-162" rx="38.1938" ry="18"/>
<text text-anchor="middle" x="251.247" y="-158.3" font-family="FreeSans" font-size="14.00" fill="#6666ff">Stringy</text>
</a>
</g>
</g>
<!-- Uni&#45;&gt;Stringy -->
<g id="edge8" class="edge"><title>Uni&#45;&gt;Stringy</title>
<path fill="none" stroke="#6666ff" d="M165.019,-103.515C180.734,-113.991 203.44,-129.129 221.608,-141.24"/>
<polygon fill="#6666ff" stroke="#6666ff" points="219.85,-144.275 230.112,-146.909 223.733,-138.45 219.85,-144.275"/>
</g>
<!-- Mu -->
<g id="node2" class="node"><title>Mu</title>
<g id="a_node2"><a xlink:href="/type/Mu" xlink:title="Mu">
<ellipse fill="none" stroke="#000000" cx="52.2474" cy="-234" rx="27" ry="18"/>
<text text-anchor="middle" x="52.2474" y="-230.3" font-family="FreeSans" font-size="14.00" fill="#000000">Mu</text>
</a>
</g>
</g>
<!-- Any&#45;&gt;Mu -->
<g id="edge2" class="edge"><title>Any&#45;&gt;Mu</title>
<path fill="none" stroke="#000000" d="M52.2474,-180.303C52.2474,-188.017 52.2474,-197.288 52.2474,-205.888"/>
<polygon fill="#000000" stroke="#000000" points="48.7475,-205.896 52.2474,-215.896 55.7475,-205.896 48.7475,-205.896"/>
</g>
<!-- NFC -->
<g id="node6" class="node"><title>NFC</title>
<g id="a_node6"><a xlink:href="/type/NFC" xlink:title="NFC">
<ellipse fill="none" stroke="#000000" cx="29.2474" cy="-18" rx="29.4969" ry="18"/>
<text text-anchor="middle" x="29.2474" y="-14.3" font-family="FreeSans" font-size="14.00" fill="#000000">NFC</text>
</a>
</g>
</g>
<!-- NFC&#45;&gt;Uni -->
<g id="edge3" class="edge"><title>NFC&#45;&gt;Uni</title>
<path fill="none" stroke="#000000" d="M49.6272,-31.1931C68.5617,-42.5214 96.9331,-59.4957 118.039,-72.1234"/>
<polygon fill="#000000" stroke="#000000" points="116.5,-75.2808 126.878,-77.4115 120.094,-69.2738 116.5,-75.2808"/>
</g>
<!-- NFD -->
<g id="node7" class="node"><title>NFD</title>
<g id="a_node7"><a xlink:href="/type/NFD" xlink:title="NFD">
<ellipse fill="none" stroke="#000000" cx="105.247" cy="-18" rx="29.4969" ry="18"/>
<text text-anchor="middle" x="105.247" y="-14.3" font-family="FreeSans" font-size="14.00" fill="#000000">NFD</text>
</a>
</g>
</g>
<!-- NFD&#45;&gt;Uni -->
<g id="edge4" class="edge"><title>NFD&#45;&gt;Uni</title>
<path fill="none" stroke="#000000" d="M114.757,-35.2354C119.776,-43.8052 126.044,-54.506 131.663,-64.0996"/>
<polygon fill="#000000" stroke="#000000" points="128.716,-65.9928 136.79,-72.8527 134.756,-62.4549 128.716,-65.9928"/>
</g>
<!-- NFKD -->
<g id="node8" class="node"><title>NFKD</title>
<g id="a_node8"><a xlink:href="/type/NFKD" xlink:title="NFKD">
<ellipse fill="none" stroke="#000000" cx="188.247" cy="-18" rx="35.9954" ry="18"/>
<text text-anchor="middle" x="188.247" y="-14.3" font-family="FreeSans" font-size="14.00" fill="#000000">NFKD</text>
</a>
</g>
</g>
<!-- NFKD&#45;&gt;Uni -->
<g id="edge5" class="edge"><title>NFKD&#45;&gt;Uni</title>
<path fill="none" stroke="#000000" d="M178.294,-35.589C173.147,-44.1677 166.762,-54.8092 161.049,-64.3305"/>
<polygon fill="#000000" stroke="#000000" points="157.984,-62.6362 155.84,-73.0119 163.987,-66.2377 157.984,-62.6362"/>
</g>
<!-- NFKC -->
<g id="node9" class="node"><title>NFKC</title>
<g id="a_node9"><a xlink:href="/type/NFKC" xlink:title="NFKC">
<ellipse fill="none" stroke="#000000" cx="277.247" cy="-18" rx="35.9954" ry="18"/>
<text text-anchor="middle" x="277.247" y="-14.3" font-family="FreeSans" font-size="14.00" fill="#000000">NFKC</text>
</a>
</g>
</g>
<!-- NFKC&#45;&gt;Uni -->
<g id="edge6" class="edge"><title>NFKC&#45;&gt;Uni</title>
<path fill="none" stroke="#000000" d="M253.524,-31.6765C231.654,-43.3631 199.118,-60.7487 175.615,-73.3074"/>
<polygon fill="#000000" stroke="#000000" points="173.949,-70.229 166.779,-78.0288 177.248,-76.4028 173.949,-70.229"/>
</g>
</g>
</svg>
