<?xml version="1.0" encoding="UTF-8" standalone="no"?>
<!DOCTYPE svg PUBLIC "-//W3C//DTD SVG 1.1//EN"
 "http://www.w3.org/Graphics/SVG/1.1/DTD/svg11.dtd">
<!-- Generated by graphviz version 2.38.0 (20140413.2041)
 -->
<!-- Title: perl6&#45;type&#45;graph Pages: 1 -->
<svg width="118pt" height="260pt"
 viewBox="0.00 0.00 118.15 260.00" xmlns="http://www.w3.org/2000/svg" xmlns:xlink="http://www.w3.org/1999/xlink">
<g id="graph0" class="graph" transform="scale(1 1) rotate(0) translate(4 256)">
<title>perl6&#45;type&#45;graph</title>
<polygon fill="white" stroke="none" points="-4,4 -4,-256 114.146,-256 114.146,4 -4,4"/>
<!-- VM -->
<g id="node1" class="node"><title>VM</title>
<g id="a_node1"><a xlink:href="/type/VM" xlink:title="VM">
<ellipse fill="none" stroke="#000000" cx="27" cy="-18" rx="27" ry="18"/>
<text text-anchor="middle" x="27" y="-14.3" font-family="FreeSans" font-size="14.00" fill="#000000">VM</text>
</a>
</g>
</g>
<!-- Any -->
<g id="node3" class="node"><title>Any</title>
<g id="a_node3"><a xlink:href="/type/Any" xlink:title="Any">
<ellipse fill="none" stroke="#000000" cx="27" cy="-162" rx="27" ry="18"/>
<text text-anchor="middle" x="27" y="-158.3" font-family="FreeSans" font-size="14.00" fill="#000000">Any</text>
</a>
</g>
</g>
<!-- VM&#45;&gt;Any -->
<g id="edge1" class="edge"><title>VM&#45;&gt;Any</title>
<path fill="none" stroke="#000000" d="M21.3047,-35.7695C16.0312,-51.2969 9,-72 9,-72 9,-72 9,-108 9,-108 9,-108 13.5529,-121.406 18.0791,-134.733"/>
<polygon fill="#000000" stroke="#000000" points="14.7747,-135.887 21.3047,-144.23 21.4029,-133.636 14.7747,-135.887"/>
</g>
<!-- Systemic -->
<g id="node4" class="node"><title>Systemic</title>
<g id="a_node4"><a xlink:href="/type/Systemic" xlink:title="Systemic">
<ellipse fill="none" stroke="#000000" cx="64" cy="-90" rx="46.2923" ry="18"/>
<text text-anchor="middle" x="64" y="-86.3" font-family="FreeSans" font-size="14.00" fill="#000000">Systemic</text>
</a>
</g>
</g>
<!-- VM&#45;&gt;Systemic -->
<g id="edge4" class="edge"><title>VM&#45;&gt;Systemic</title>
<path fill="none" stroke="#6666ff" d="M35.5815,-35.2354C39.9365,-43.4745 45.3326,-53.6834 50.2489,-62.9843"/>
<polygon fill="#6666ff" stroke="#6666ff" points="47.1813,-64.6707 54.9488,-71.8761 53.37,-61.3995 47.1813,-64.6707"/>
</g>
<!-- Mu -->
<g id="node2" class="node"><title>Mu</title>
<g id="a_node2"><a xlink:href="/type/Mu" xlink:title="Mu">
<ellipse fill="none" stroke="#000000" cx="27" cy="-234" rx="27" ry="18"/>
<text text-anchor="middle" x="27" y="-230.3" font-family="FreeSans" font-size="14.00" fill="#000000">Mu</text>
</a>
</g>
</g>
<!-- Any&#45;&gt;Mu -->
<g id="edge2" class="edge"><title>Any&#45;&gt;Mu</title>
<path fill="none" stroke="#000000" d="M27,-180.303C27,-188.017 27,-197.288 27,-205.888"/>
<polygon fill="#000000" stroke="#000000" points="23.5001,-205.896 27,-215.896 30.5001,-205.896 23.5001,-205.896"/>
</g>
<!-- Systemic&#45;&gt;Any -->
<g id="edge3" class="edge"><title>Systemic&#45;&gt;Any</title>
<path fill="none" stroke="#000000" d="M55.0433,-107.945C50.6623,-116.233 45.298,-126.382 40.4385,-135.576"/>
<polygon fill="#000000" stroke="#000000" points="37.1982,-134.216 35.6194,-144.693 43.3869,-137.488 37.1982,-134.216"/>
</g>
</g>
</svg>
