<?xml version="1.0" encoding="UTF-8" standalone="no"?>
<!DOCTYPE svg PUBLIC "-//W3C//DTD SVG 1.1//EN"
 "http://www.w3.org/Graphics/SVG/1.1/DTD/svg11.dtd">
<!-- Generated by graphviz version 2.38.0 (20140413.2041)
 -->
<!-- Title: perl6&#45;type&#45;graph Pages: 1 -->
<svg width="309pt" height="404pt"
 viewBox="0.00 0.00 308.68 404.00" xmlns="http://www.w3.org/2000/svg" xmlns:xlink="http://www.w3.org/1999/xlink">
<g id="graph0" class="graph" transform="scale(1 1) rotate(0) translate(4 400)">
<title>perl6&#45;type&#45;graph</title>
<polygon fill="white" stroke="none" points="-4,4 -4,-400 304.684,-400 304.684,4 -4,4"/>
<!-- X::Syntax::Regex::Unterminated -->
<g id="node1" class="node"><title>X::Syntax::Regex::Unterminated</title>
<g id="a_node1"><a xlink:href="/type/X::Syntax::Regex::Unterminated" xlink:title="X::Syntax::Regex::Unterminated">
<ellipse fill="none" stroke="#000000" cx="135.838" cy="-18" rx="135.676" ry="18"/>
<text text-anchor="middle" x="135.838" y="-14.3" font-family="FreeSans" font-size="14.00" fill="#000000">X::Syntax::Regex::Unterminated</text>
</a>
</g>
</g>
<!-- Exception -->
<g id="node4" class="node"><title>Exception</title>
<g id="a_node4"><a xlink:href="/type/Exception" xlink:title="Exception">
<ellipse fill="none" stroke="#000000" cx="158.838" cy="-234" rx="49.2915" ry="18"/>
<text text-anchor="middle" x="158.838" y="-230.3" font-family="FreeSans" font-size="14.00" fill="#000000">Exception</text>
</a>
</g>
</g>
<!-- X::Syntax::Regex::Unterminated&#45;&gt;Exception -->
<g id="edge1" class="edge"><title>X::Syntax::Regex::Unterminated&#45;&gt;Exception</title>
<path fill="none" stroke="#000000" d="M133.804,-36.1508C134.248,-73.3384 143.48,-161.626 151.31,-206.228"/>
<polygon fill="#000000" stroke="#000000" points="147.872,-206.884 153.161,-216.065 154.751,-205.59 147.872,-206.884"/>
</g>
<!-- X::Syntax::Regex::Unterminated&#45;&gt;Exception -->
<g id="edge2" class="edge"><title>X::Syntax::Regex::Unterminated&#45;&gt;Exception</title>
<path fill="none" stroke="#000000" d="M141.559,-36.1508C149.073,-73.1683 158.765,-160.819 160.587,-205.614"/>
<polygon fill="#000000" stroke="#000000" points="157.092,-205.87 160.871,-215.768 164.09,-205.673 157.092,-205.87"/>
</g>
<!-- X::Syntax -->
<g id="node6" class="node"><title>X::Syntax</title>
<g id="a_node6"><a xlink:href="/type/X::Syntax" xlink:title="X::Syntax">
<ellipse fill="none" stroke="#6666ff" cx="220.838" cy="-90" rx="48.1917" ry="18"/>
<text text-anchor="middle" x="220.838" y="-86.3" font-family="FreeSans" font-size="14.00" fill="#6666ff">X::Syntax</text>
</a>
</g>
</g>
<!-- X::Syntax::Regex::Unterminated&#45;&gt;X::Syntax -->
<g id="edge7" class="edge"><title>X::Syntax::Regex::Unterminated&#45;&gt;X::Syntax</title>
<path fill="none" stroke="#6666ff" d="M156.414,-35.945C167.672,-45.216 181.755,-56.8143 193.881,-66.8003"/>
<polygon fill="#6666ff" stroke="#6666ff" points="191.96,-69.7523 201.904,-73.4077 196.41,-64.3488 191.96,-69.7523"/>
</g>
<!-- Mu -->
<g id="node2" class="node"><title>Mu</title>
<g id="a_node2"><a xlink:href="/type/Mu" xlink:title="Mu">
<ellipse fill="none" stroke="#000000" cx="158.838" cy="-378" rx="27" ry="18"/>
<text text-anchor="middle" x="158.838" y="-374.3" font-family="FreeSans" font-size="14.00" fill="#000000">Mu</text>
</a>
</g>
</g>
<!-- Any -->
<g id="node3" class="node"><title>Any</title>
<g id="a_node3"><a xlink:href="/type/Any" xlink:title="Any">
<ellipse fill="none" stroke="#000000" cx="158.838" cy="-306" rx="27" ry="18"/>
<text text-anchor="middle" x="158.838" y="-302.3" font-family="FreeSans" font-size="14.00" fill="#000000">Any</text>
</a>
</g>
</g>
<!-- Any&#45;&gt;Mu -->
<g id="edge3" class="edge"><title>Any&#45;&gt;Mu</title>
<path fill="none" stroke="#000000" d="M158.838,-324.303C158.838,-332.017 158.838,-341.288 158.838,-349.888"/>
<polygon fill="#000000" stroke="#000000" points="155.338,-349.896 158.838,-359.896 162.338,-349.896 155.338,-349.896"/>
</g>
<!-- Exception&#45;&gt;Any -->
<g id="edge4" class="edge"><title>Exception&#45;&gt;Any</title>
<path fill="none" stroke="#000000" d="M158.838,-252.303C158.838,-260.017 158.838,-269.288 158.838,-277.888"/>
<polygon fill="#000000" stroke="#000000" points="155.338,-277.896 158.838,-287.896 162.338,-277.896 155.338,-277.896"/>
</g>
<!-- X::Comp -->
<g id="node5" class="node"><title>X::Comp</title>
<g id="a_node5"><a xlink:href="/type/X::Comp" xlink:title="X::Comp">
<ellipse fill="none" stroke="#6666ff" cx="255.838" cy="-162" rx="44.6926" ry="18"/>
<text text-anchor="middle" x="255.838" y="-158.3" font-family="FreeSans" font-size="14.00" fill="#6666ff">X::Comp</text>
</a>
</g>
</g>
<!-- X::Comp&#45;&gt;Exception -->
<g id="edge5" class="edge"><title>X::Comp&#45;&gt;Exception</title>
<path fill="none" stroke="#000000" d="M234.79,-178.189C221.283,-187.937 203.539,-200.742 188.599,-211.523"/>
<polygon fill="#000000" stroke="#000000" points="186.24,-208.909 180.179,-217.599 190.337,-214.585 186.24,-208.909"/>
</g>
<!-- X::Syntax&#45;&gt;Exception -->
<g id="edge6" class="edge"><title>X::Syntax&#45;&gt;Exception</title>
<path fill="none" stroke="#000000" d="M213.482,-107.847C202.808,-132.294 182.927,-177.829 170.315,-206.714"/>
<polygon fill="#000000" stroke="#000000" points="166.978,-205.61 166.184,-216.175 173.393,-208.411 166.978,-205.61"/>
</g>
<!-- X::Syntax&#45;&gt;X::Comp -->
<g id="edge8" class="edge"><title>X::Syntax&#45;&gt;X::Comp</title>
<path fill="none" stroke="#6666ff" d="M229.31,-107.945C233.395,-116.113 238.382,-126.088 242.926,-135.176"/>
<polygon fill="#6666ff" stroke="#6666ff" points="239.841,-136.832 247.443,-144.211 246.102,-133.701 239.841,-136.832"/>
</g>
</g>
</svg>
