<?xml version="1.0" encoding="UTF-8" standalone="no"?>
<!DOCTYPE svg PUBLIC "-//W3C//DTD SVG 1.1//EN"
 "http://www.w3.org/Graphics/SVG/1.1/DTD/svg11.dtd">
<!-- Generated by graphviz version 2.38.0 (20140413.2041)
 -->
<!-- Title: perl6&#45;type&#45;graph Pages: 1 -->
<svg width="1770pt" height="872pt"
 viewBox="0.00 0.00 1769.77 871.86" xmlns="http://www.w3.org/2000/svg" xmlns:xlink="http://www.w3.org/1999/xlink">
<g id="graph0" class="graph" transform="scale(1 1) rotate(0) translate(893.802 473.646)">
<title>perl6&#45;type&#45;graph</title>
<polygon fill="white" stroke="none" points="-893.802,398.214 -893.802,-473.646 875.969,-473.646 875.969,398.214 -893.802,398.214"/>
<!-- Metamodel::TypePretense -->
<g id="node1" class="node"><title>Metamodel::TypePretense</title>
<g id="a_node1"><a xlink:href="/type/Metamodel::TypePretense" xlink:title="Metamodel::TypePretense">
<ellipse fill="none" stroke="#6666ff" cx="-98.0875" cy="-235.976" rx="114.28" ry="18"/>
<text text-anchor="middle" x="-98.0875" y="-232.276" font-family="FreeSans" font-size="14.00" fill="#6666ff">Metamodel::TypePretense</text>
</a>
</g>
</g>
<!-- Mu -->
<g id="node2" class="node"><title>Mu</title>
<g id="a_node2"><a xlink:href="/type/Mu" xlink:title="Mu">
<ellipse fill="none" stroke="#000000" cx="658.638" cy="-415.245" rx="27" ry="18"/>
<text text-anchor="middle" x="658.638" y="-411.545" font-family="FreeSans" font-size="14.00" fill="#000000">Mu</text>
</a>
</g>
</g>
<!-- Any -->
<g id="node3" class="node"><title>Any</title>
<g id="a_node3"><a xlink:href="/type/Any" xlink:title="Any">
<ellipse fill="none" stroke="#000000" cx="127.286" cy="-144.09" rx="27" ry="18"/>
<text text-anchor="middle" x="127.286" y="-140.39" font-family="FreeSans" font-size="14.00" fill="#000000">Any</text>
</a>
</g>
</g>
<!-- Any&#45;&gt;Mu -->
<g id="edge1" class="edge"><title>Any&#45;&gt;Mu</title>
<path fill="none" stroke="#000000" d="M148.581,-155.345C192.204,-178.399 287.652,-228.842 287.652,-228.842 287.652,-228.842 538.667,-354.965 627.744,-399.722"/>
<polygon fill="#000000" stroke="#000000" points="626.309,-402.918 636.816,-404.281 629.452,-396.663 626.309,-402.918"/>
</g>
<!-- Metamodel::RolePunning -->
<g id="node4" class="node"><title>Metamodel::RolePunning</title>
<g id="a_node4"><a xlink:href="/type/Metamodel::RolePunning" xlink:title="Metamodel::RolePunning">
<ellipse fill="none" stroke="#6666ff" cx="399.089" cy="-228.979" rx="109.681" ry="18"/>
<text text-anchor="middle" x="399.089" y="-225.279" font-family="FreeSans" font-size="14.00" fill="#6666ff">Metamodel::RolePunning</text>
</a>
</g>
</g>
<!-- Metamodel::CurriedRoleHOW -->
<g id="node5" class="node"><title>Metamodel::CurriedRoleHOW</title>
<g id="a_node5"><a xlink:href="/type/Metamodel::CurriedRoleHOW" xlink:title="Metamodel::CurriedRoleHOW">
<ellipse fill="none" stroke="#000000" cx="181.396" cy="-440.813" rx="128.877" ry="18"/>
<text text-anchor="middle" x="181.396" y="-437.113" font-family="FreeSans" font-size="14.00" fill="#000000">Metamodel::CurriedRoleHOW</text>
</a>
</g>
</g>
<!-- Metamodel::CurriedRoleHOW&#45;&gt;Metamodel::TypePretense -->
<g id="edge8" class="edge"><title>Metamodel::CurriedRoleHOW&#45;&gt;Metamodel::TypePretense</title>
<path fill="none" stroke="#6666ff" d="M157.082,-422.994C106.68,-386.053 -9.20289,-301.121 -65.7989,-259.64"/>
<polygon fill="#6666ff" stroke="#6666ff" points="-63.8946,-256.697 -74.0293,-253.608 -68.0327,-262.343 -63.8946,-256.697"/>
</g>
<!-- Metamodel::CurriedRoleHOW&#45;&gt;Any -->
<g id="edge2" class="edge"><title>Metamodel::CurriedRoleHOW&#45;&gt;Any</title>
<path fill="none" stroke="#000000" d="M178.092,-422.699C168.958,-372.608 143.313,-231.976 132.354,-171.884"/>
<polygon fill="#000000" stroke="#000000" points="135.783,-171.178 130.546,-161.968 128.897,-172.434 135.783,-171.178"/>
</g>
<!-- Metamodel::CurriedRoleHOW&#45;&gt;Metamodel::RolePunning -->
<g id="edge7" class="edge"><title>Metamodel::CurriedRoleHOW&#45;&gt;Metamodel::RolePunning</title>
<path fill="none" stroke="#6666ff" d="M199.956,-422.753C238.835,-384.92 328.899,-297.28 373.34,-254.036"/>
<polygon fill="#6666ff" stroke="#6666ff" points="375.85,-256.477 380.576,-246.994 370.968,-251.46 375.85,-256.477"/>
</g>
<!-- Metamodel::Naming -->
<g id="node6" class="node"><title>Metamodel::Naming</title>
<g id="a_node6"><a xlink:href="/type/Metamodel::Naming" xlink:title="Metamodel::Naming">
<ellipse fill="none" stroke="#6666ff" cx="-222.43" cy="40.3185" rx="90.1842" ry="18"/>
<text text-anchor="middle" x="-222.43" y="44.0185" font-family="FreeSans" font-size="14.00" fill="#6666ff">Metamodel::Naming</text>
</a>
</g>
</g>
<!-- Metamodel::Documenting -->
<g id="node7" class="node"><title>Metamodel::Documenting</title>
<g id="a_node7"><a xlink:href="/type/Metamodel::Documenting" xlink:title="Metamodel::Documenting">
<ellipse fill="none" stroke="#6666ff" cx="-745.639" cy="328.008" rx="111.28" ry="18"/>
<text text-anchor="middle" x="-745.639" y="331.708" font-family="FreeSans" font-size="14.00" fill="#6666ff">Metamodel::Documenting</text>
</a>
</g>
</g>
<!-- Metamodel::Versioning -->
<g id="node8" class="node"><title>Metamodel::Versioning</title>
<g id="a_node8"><a xlink:href="/type/Metamodel::Versioning" xlink:title="Metamodel::Versioning">
<ellipse fill="none" stroke="#6666ff" cx="-419.051" cy="370.706" rx="100.983" ry="18"/>
<text text-anchor="middle" x="-419.051" y="374.406" font-family="FreeSans" font-size="14.00" fill="#6666ff">Metamodel::Versioning</text>
</a>
</g>
</g>
<!-- Metamodel::MethodContainer -->
<g id="node9" class="node"><title>Metamodel::MethodContainer</title>
<g id="a_node9"><a xlink:href="/type/Metamodel::MethodContainer" xlink:title="Metamodel::MethodContainer">
<ellipse fill="none" stroke="#6666ff" cx="116.296" cy="376.214" rx="127.277" ry="18"/>
<text text-anchor="middle" x="116.296" y="379.914" font-family="FreeSans" font-size="14.00" fill="#6666ff">Metamodel::MethodContainer</text>
</a>
</g>
</g>
<!-- Metamodel::PrivateMethodContainer -->
<g id="node10" class="node"><title>Metamodel::PrivateMethodContainer</title>
<g id="a_node10"><a xlink:href="/type/Metamodel::PrivateMethodContainer" xlink:title="Metamodel::PrivateMethodContainer">
<ellipse fill="none" stroke="#6666ff" cx="717.282" cy="322.836" rx="154.873" ry="18"/>
<text text-anchor="middle" x="717.282" y="326.536" font-family="FreeSans" font-size="14.00" fill="#6666ff">Metamodel::PrivateMethodContainer</text>
</a>
</g>
</g>
<!-- Metamodel::MultiMethodContainer -->
<g id="node11" class="node"><title>Metamodel::MultiMethodContainer</title>
<g id="a_node11"><a xlink:href="/type/Metamodel::MultiMethodContainer" xlink:title="Metamodel::MultiMethodContainer">
<ellipse fill="none" stroke="#6666ff" cx="401.378" cy="373.341" rx="146.474" ry="18"/>
<text text-anchor="middle" x="401.378" y="377.041" font-family="FreeSans" font-size="14.00" fill="#6666ff">Metamodel::MultiMethodContainer</text>
</a>
</g>
</g>
<!-- Metamodel::AttributeContainer -->
<g id="node12" class="node"><title>Metamodel::AttributeContainer</title>
<g id="a_node12"><a xlink:href="/type/Metamodel::AttributeContainer" xlink:title="Metamodel::AttributeContainer">
<ellipse fill="none" stroke="#6666ff" cx="-146.871" cy="359.904" rx="129.977" ry="18"/>
<text text-anchor="middle" x="-146.871" y="363.604" font-family="FreeSans" font-size="14.00" fill="#6666ff">Metamodel::AttributeContainer</text>
</a>
</g>
</g>
<!-- Metamodel::RoleContainer -->
<g id="node13" class="node"><title>Metamodel::RoleContainer</title>
<g id="a_node13"><a xlink:href="/type/Metamodel::RoleContainer" xlink:title="Metamodel::RoleContainer">
<ellipse fill="none" stroke="#6666ff" cx="493.348" cy="78.2361" rx="115.88" ry="18"/>
<text text-anchor="middle" x="493.348" y="81.9361" font-family="FreeSans" font-size="14.00" fill="#6666ff">Metamodel::RoleContainer</text>
</a>
</g>
</g>
<!-- Metamodel::MultipleInheritance -->
<g id="node14" class="node"><title>Metamodel::MultipleInheritance</title>
<g id="a_node14"><a xlink:href="/type/Metamodel::MultipleInheritance" xlink:title="Metamodel::MultipleInheritance">
<ellipse fill="none" stroke="#6666ff" cx="730.872" cy="-81.3204" rx="133.776" ry="18"/>
<text text-anchor="middle" x="730.872" y="-77.6204" font-family="FreeSans" font-size="14.00" fill="#6666ff">Metamodel::MultipleInheritance</text>
</a>
</g>
</g>
<!-- Metamodel::Stashing -->
<g id="node15" class="node"><title>Metamodel::Stashing</title>
<g id="a_node15"><a xlink:href="/type/Metamodel::Stashing" xlink:title="Metamodel::Stashing">
<ellipse fill="none" stroke="#6666ff" cx="-2.47276" cy="108.31" rx="93.6835" ry="18"/>
<text text-anchor="middle" x="-2.47276" y="112.01" font-family="FreeSans" font-size="14.00" fill="#6666ff">Metamodel::Stashing</text>
</a>
</g>
</g>
<!-- Metamodel::ParametricRoleHOW -->
<g id="node16" class="node"><title>Metamodel::ParametricRoleHOW</title>
<g id="a_node16"><a xlink:href="/type/Metamodel::ParametricRoleHOW" xlink:title="Metamodel::ParametricRoleHOW">
<ellipse fill="none" stroke="#000000" cx="238.895" cy="102.285" rx="142.175" ry="18"/>
<text text-anchor="middle" x="238.895" y="105.985" font-family="FreeSans" font-size="14.00" fill="#000000">Metamodel::ParametricRoleHOW</text>
</a>
</g>
</g>
<!-- Metamodel::ParametricRoleHOW&#45;&gt;Metamodel::TypePretense -->
<g id="edge19" class="edge"><title>Metamodel::ParametricRoleHOW&#45;&gt;Metamodel::TypePretense</title>
<path fill="none" stroke="#6666ff" d="M220.777,84.0988C164.42,27.528 -7.89874,-145.445 -72.9083,-210.701"/>
<polygon fill="#6666ff" stroke="#6666ff" points="-75.7112,-208.555 -80.2893,-218.11 -70.752,-213.496 -75.7112,-208.555"/>
</g>
<!-- Metamodel::ParametricRoleHOW&#45;&gt;Any -->
<g id="edge3" class="edge"><title>Metamodel::ParametricRoleHOW&#45;&gt;Any</title>
<path fill="none" stroke="#000000" d="M230.688,84.1686C211.243,41.2455 162.289,-66.8204 139.415,-117.314"/>
<polygon fill="#000000" stroke="#000000" points="136.143,-116.056 135.205,-126.609 142.519,-118.944 136.143,-116.056"/>
</g>
<!-- Metamodel::ParametricRoleHOW&#45;&gt;Metamodel::RolePunning -->
<g id="edge20" class="edge"><title>Metamodel::ParametricRoleHOW&#45;&gt;Metamodel::RolePunning</title>
<path fill="none" stroke="#6666ff" d="M247.735,84.0031C274.376,28.9142 353.992,-135.724 385.773,-201.443"/>
<polygon fill="#6666ff" stroke="#6666ff" points="382.771,-203.275 390.276,-210.754 389.073,-200.227 382.771,-203.275"/>
</g>
<!-- Metamodel::ParametricRoleHOW&#45;&gt;Metamodel::Naming -->
<g id="edge9" class="edge"><title>Metamodel::ParametricRoleHOW&#45;&gt;Metamodel::Naming</title>
<path fill="none" stroke="#6666ff" d="M141.059,89.1436C58.5415,78.0595 -58.3808,62.3541 -137.138,51.7753"/>
<polygon fill="#6666ff" stroke="#6666ff" points="-138.063,55.1824 -147.508,50.3822 -137.131,48.2447 -138.063,55.1824"/>
</g>
<!-- Metamodel::ParametricRoleHOW&#45;&gt;Metamodel::Documenting -->
<g id="edge10" class="edge"><title>Metamodel::ParametricRoleHOW&#45;&gt;Metamodel::Documenting</title>
<path fill="none" stroke="#6666ff" d="M170.055,118.068C-8.72789,159.057 -486.682,268.638 -671.368,310.98"/>
<polygon fill="#6666ff" stroke="#6666ff" points="-670.731,314.425 -681.26,313.248 -672.295,307.602 -670.731,314.425"/>
</g>
<!-- Metamodel::ParametricRoleHOW&#45;&gt;Metamodel::Versioning -->
<g id="edge11" class="edge"><title>Metamodel::ParametricRoleHOW&#45;&gt;Metamodel::Versioning</title>
<path fill="none" stroke="#6666ff" d="M196.736,119.484C80.5004,166.905 -244.19,299.369 -369.154,350.35"/>
<polygon fill="#6666ff" stroke="#6666ff" points="-367.926,353.629 -378.507,354.166 -370.57,347.147 -367.926,353.629"/>
</g>
<!-- Metamodel::ParametricRoleHOW&#45;&gt;Metamodel::MethodContainer -->
<g id="edge12" class="edge"><title>Metamodel::ParametricRoleHOW&#45;&gt;Metamodel::MethodContainer</title>
<path fill="none" stroke="#6666ff" d="M230.85,120.258C209.895,167.081 153.517,293.05 128.519,348.905"/>
<polygon fill="#6666ff" stroke="#6666ff" points="131.65,350.477 124.37,358.175 125.26,347.618 131.65,350.477"/>
</g>
<!-- Metamodel::ParametricRoleHOW&#45;&gt;Metamodel::PrivateMethodContainer -->
<g id="edge13" class="edge"><title>Metamodel::ParametricRoleHOW&#45;&gt;Metamodel::PrivateMethodContainer</title>
<path fill="none" stroke="#6666ff" d="M276.833,119.776C363.363,159.669 575.14,257.304 669.991,301.034"/>
<polygon fill="#6666ff" stroke="#6666ff" points="671.724,297.979 679.34,305.344 668.794,304.335 671.724,297.979"/>
</g>
<!-- Metamodel::ParametricRoleHOW&#45;&gt;Metamodel::MultiMethodContainer -->
<g id="edge14" class="edge"><title>Metamodel::ParametricRoleHOW&#45;&gt;Metamodel::MultiMethodContainer</title>
<path fill="none" stroke="#6666ff" d="M249.808,120.491C277.789,167.169 352.203,291.306 385.215,346.379"/>
<polygon fill="#6666ff" stroke="#6666ff" points="388.373,344.838 390.512,355.215 382.369,348.437 388.373,344.838"/>
</g>
<!-- Metamodel::ParametricRoleHOW&#45;&gt;Metamodel::AttributeContainer -->
<g id="edge15" class="edge"><title>Metamodel::ParametricRoleHOW&#45;&gt;Metamodel::AttributeContainer</title>
<path fill="none" stroke="#6666ff" d="M212.379,119.992C144.439,165.363 -35.8819,285.784 -112.091,336.677"/>
<polygon fill="#6666ff" stroke="#6666ff" points="-110.166,339.6 -120.426,342.243 -114.054,333.779 -110.166,339.6"/>
</g>
<!-- Metamodel::ParametricRoleHOW&#45;&gt;Metamodel::RoleContainer -->
<g id="edge16" class="edge"><title>Metamodel::ParametricRoleHOW&#45;&gt;Metamodel::RoleContainer</title>
<path fill="none" stroke="#6666ff" d="M353.096,91.4917C363.401,90.5177 373.821,89.5329 384.083,88.563"/>
<polygon fill="#6666ff" stroke="#6666ff" points="383.996,85.0557 394.281,87.5992 384.654,92.0247 383.996,85.0557"/>
</g>
<!-- Metamodel::ParametricRoleHOW&#45;&gt;Metamodel::MultipleInheritance -->
<g id="edge17" class="edge"><title>Metamodel::ParametricRoleHOW&#45;&gt;Metamodel::MultipleInheritance</title>
<path fill="none" stroke="#6666ff" d="M284.737,85.1769C375.578,51.275 578.096,-24.3047 675.909,-60.8083"/>
<polygon fill="#6666ff" stroke="#6666ff" points="674.732,-64.1046 685.324,-64.322 677.179,-57.5464 674.732,-64.1046"/>
</g>
<!-- Metamodel::ParametricRoleHOW&#45;&gt;Metamodel::Stashing -->
<g id="edge18" class="edge"><title>Metamodel::ParametricRoleHOW&#45;&gt;Metamodel::Stashing</title>
<path fill="none" stroke="#6666ff" d="M99.1891,105.772C99.0979,105.775 99.0067,105.777 98.9155,105.779"/>
<polygon fill="#6666ff" stroke="#6666ff" points="100.569,109.239 90.4847,105.99 100.394,102.241 100.569,109.239"/>
</g>
<!-- Metamodel::MethodDelegation -->
<g id="node17" class="node"><title>Metamodel::MethodDelegation</title>
<g id="a_node17"><a xlink:href="/type/Metamodel::MethodDelegation" xlink:title="Metamodel::MethodDelegation">
<ellipse fill="none" stroke="#6666ff" cx="-758.514" cy="-52.6883" rx="131.077" ry="18"/>
<text text-anchor="middle" x="-758.514" y="-48.9883" font-family="FreeSans" font-size="14.00" fill="#6666ff">Metamodel::MethodDelegation</text>
</a>
</g>
</g>
<!-- Metamodel::ModuleHOW -->
<g id="node18" class="node"><title>Metamodel::ModuleHOW</title>
<g id="a_node18"><a xlink:href="/type/Metamodel::ModuleHOW" xlink:title="Metamodel::ModuleHOW">
<ellipse fill="none" stroke="#000000" cx="-483.872" cy="88.3577" rx="111.28" ry="18"/>
<text text-anchor="middle" x="-483.872" y="92.0577" font-family="FreeSans" font-size="14.00" fill="#000000">Metamodel::ModuleHOW</text>
</a>
</g>
</g>
<!-- Metamodel::ModuleHOW&#45;&gt;Metamodel::TypePretense -->
<g id="edge25" class="edge"><title>Metamodel::ModuleHOW&#45;&gt;Metamodel::TypePretense</title>
<path fill="none" stroke="#6666ff" d="M-462.581,70.4581C-397.635,15.8574 -201.947,-148.659 -127.38,-211.349"/>
<polygon fill="#6666ff" stroke="#6666ff" points="-129.219,-214.375 -119.313,-218.131 -124.715,-209.017 -129.219,-214.375"/>
</g>
<!-- Metamodel::ModuleHOW&#45;&gt;Any -->
<g id="edge4" class="edge"><title>Metamodel::ModuleHOW&#45;&gt;Any</title>
<path fill="none" stroke="#000000" d="M-439.919,71.6406C-323.506,27.3639 -9.06966,-92.2288 94.0409,-131.446"/>
<polygon fill="#000000" stroke="#000000" points="93.0324,-134.807 103.623,-135.091 95.5209,-128.264 93.0324,-134.807"/>
</g>
<!-- Metamodel::ModuleHOW&#45;&gt;Metamodel::Naming -->
<g id="edge21" class="edge"><title>Metamodel::ModuleHOW&#45;&gt;Metamodel::Naming</title>
<path fill="none" stroke="#6666ff" d="M-410.35,74.8483C-375.709,68.4832 -334.394,60.8916 -299.335,54.4496"/>
<polygon fill="#6666ff" stroke="#6666ff" points="-299.616,50.9427 -289.148,52.5778 -298.351,57.8275 -299.616,50.9427"/>
</g>
<!-- Metamodel::ModuleHOW&#45;&gt;Metamodel::Documenting -->
<g id="edge22" class="edge"><title>Metamodel::ModuleHOW&#45;&gt;Metamodel::Documenting</title>
<path fill="none" stroke="#6666ff" d="M-503.547,106.37C-549.803,148.718 -665.533,254.671 -718.456,303.123"/>
<polygon fill="#6666ff" stroke="#6666ff" points="-716.353,305.942 -726.092,310.113 -721.08,300.779 -716.353,305.942"/>
</g>
<!-- Metamodel::ModuleHOW&#45;&gt;Metamodel::Versioning -->
<g id="edge23" class="edge"><title>Metamodel::ModuleHOW&#45;&gt;Metamodel::Versioning</title>
<path fill="none" stroke="#6666ff" d="M-479.718,106.449C-468.723,154.345 -438.793,284.715 -425.528,342.493"/>
<polygon fill="#6666ff" stroke="#6666ff" points="-422.08,341.87 -423.254,352.4 -428.903,343.437 -422.08,341.87"/>
</g>
<!-- Metamodel::ModuleHOW&#45;&gt;Metamodel::Stashing -->
<g id="edge24" class="edge"><title>Metamodel::ModuleHOW&#45;&gt;Metamodel::Stashing</title>
<path fill="none" stroke="#6666ff" d="M-376.136,92.8229C-294.804,96.1938 -183.956,100.788 -104.143,104.096"/>
<polygon fill="#6666ff" stroke="#6666ff" points="-103.923,100.602 -94.0769,104.513 -104.213,107.596 -103.923,100.602"/>
</g>
<!-- Metamodel::ModuleHOW&#45;&gt;Metamodel::MethodDelegation -->
<g id="edge26" class="edge"><title>Metamodel::ModuleHOW&#45;&gt;Metamodel::MethodDelegation</title>
<path fill="none" stroke="#6666ff" d="M-517.548,71.0627C-567.377,45.4726 -660.734,-2.4723 -715.466,-30.5808"/>
<polygon fill="#6666ff" stroke="#6666ff" points="-717.265,-27.57 -724.562,-35.2518 -714.067,-33.7968 -717.265,-27.57"/>
</g>
<!-- Metamodel::PackageHOW -->
<g id="node19" class="node"><title>Metamodel::PackageHOW</title>
<g id="a_node19"><a xlink:href="/type/Metamodel::PackageHOW" xlink:title="Metamodel::PackageHOW">
<ellipse fill="none" stroke="#000000" cx="-427.969" cy="-220.528" rx="116.18" ry="18"/>
<text text-anchor="middle" x="-427.969" y="-216.828" font-family="FreeSans" font-size="14.00" fill="#000000">Metamodel::PackageHOW</text>
</a>
</g>
</g>
<!-- Metamodel::PackageHOW&#45;&gt;Metamodel::TypePretense -->
<g id="edge30" class="edge"><title>Metamodel::PackageHOW&#45;&gt;Metamodel::TypePretense</title>
<path fill="none" stroke="#6666ff" d="M-316.286,-225.758C-284.746,-227.235 -250.296,-228.848 -218.279,-230.347"/>
<polygon fill="#6666ff" stroke="#6666ff" points="-218.129,-233.858 -207.976,-230.83 -217.801,-226.866 -218.129,-233.858"/>
</g>
<!-- Metamodel::PackageHOW&#45;&gt;Any -->
<g id="edge5" class="edge"><title>Metamodel::PackageHOW&#45;&gt;Any</title>
<path fill="none" stroke="#000000" d="M-340.905,-208.543C-217.285,-191.525 3.74791,-161.097 90.7068,-149.126"/>
<polygon fill="#000000" stroke="#000000" points="91.2022,-152.591 100.631,-147.76 90.2475,-145.656 91.2022,-152.591"/>
</g>
<!-- Metamodel::PackageHOW&#45;&gt;Metamodel::Naming -->
<g id="edge27" class="edge"><title>Metamodel::PackageHOW&#45;&gt;Metamodel::Naming</title>
<path fill="none" stroke="#6666ff" d="M-413.841,-202.599C-378.199,-157.367 -284.508,-38.4647 -242.874,14.3726"/>
<polygon fill="#6666ff" stroke="#6666ff" points="-240.096,12.2432 -236.656,22.264 -245.594,16.5756 -240.096,12.2432"/>
</g>
<!-- Metamodel::PackageHOW&#45;&gt;Metamodel::Documenting -->
<g id="edge28" class="edge"><title>Metamodel::PackageHOW&#45;&gt;Metamodel::Documenting</title>
<path fill="none" stroke="#6666ff" d="M-438.358,-202.59C-484.874,-122.268 -674.167,204.595 -730.041,301.075"/>
<polygon fill="#6666ff" stroke="#6666ff" points="-727.128,303.03 -735.169,309.929 -733.186,299.522 -727.128,303.03"/>
</g>
<!-- Metamodel::PackageHOW&#45;&gt;Metamodel::Stashing -->
<g id="edge29" class="edge"><title>Metamodel::PackageHOW&#45;&gt;Metamodel::Stashing</title>
<path fill="none" stroke="#6666ff" d="M-405.092,-202.849C-333.726,-147.695 -115.09,21.2751 -33.5563,84.2873"/>
<polygon fill="#6666ff" stroke="#6666ff" points="-30.9757,81.8582 -25.2035,90.7426 -35.2563,87.3969 -30.9757,81.8582"/>
</g>
<!-- Metamodel::PackageHOW&#45;&gt;Metamodel::MethodDelegation -->
<g id="edge31" class="edge"><title>Metamodel::PackageHOW&#45;&gt;Metamodel::MethodDelegation</title>
<path fill="none" stroke="#6666ff" d="M-462.098,-203.199C-522.593,-172.481 -648.512,-108.544 -715.088,-74.7386"/>
<polygon fill="#6666ff" stroke="#6666ff" points="-713.574,-71.5819 -724.075,-70.1752 -716.743,-77.8234 -713.574,-71.5819"/>
</g>
<!-- Metamodel::BoolificationProtocol -->
<g id="node20" class="node"><title>Metamodel::BoolificationProtocol</title>
<g id="a_node20"><a xlink:href="/type/Metamodel::BoolificationProtocol" xlink:title="Metamodel::BoolificationProtocol">
<ellipse fill="none" stroke="#6666ff" cx="-708.09" cy="-402.563" rx="139.175" ry="18"/>
<text text-anchor="middle" x="-708.09" y="-398.863" font-family="FreeSans" font-size="14.00" fill="#6666ff">Metamodel::BoolificationProtocol</text>
</a>
</g>
</g>
<!-- Metamodel::ParametricRoleGroupHOW -->
<g id="node21" class="node"><title>Metamodel::ParametricRoleGroupHOW</title>
<g id="a_node21"><a xlink:href="/type/Metamodel::ParametricRoleGroupHOW" xlink:title="Metamodel::ParametricRoleGroupHOW">
<ellipse fill="none" stroke="#000000" cx="-254.42" cy="-451.646" rx="167.07" ry="18"/>
<text text-anchor="middle" x="-254.42" y="-447.946" font-family="FreeSans" font-size="14.00" fill="#000000">Metamodel::ParametricRoleGroupHOW</text>
</a>
</g>
</g>
<!-- Metamodel::ParametricRoleGroupHOW&#45;&gt;Metamodel::TypePretense -->
<g id="edge34" class="edge"><title>Metamodel::ParametricRoleGroupHOW&#45;&gt;Metamodel::TypePretense</title>
<path fill="none" stroke="#6666ff" d="M-241.36,-433.629C-213.772,-395.57 -149.455,-306.84 -117.219,-262.369"/>
<polygon fill="#6666ff" stroke="#6666ff" points="-114.255,-264.244 -111.22,-254.093 -119.923,-260.135 -114.255,-264.244"/>
</g>
<!-- Metamodel::ParametricRoleGroupHOW&#45;&gt;Any -->
<g id="edge6" class="edge"><title>Metamodel::ParametricRoleGroupHOW&#45;&gt;Any</title>
<path fill="none" stroke="#000000" d="M-231.67,-433.635C-166.22,-381.815 17.9018,-236.037 17.9018,-236.037 17.9018,-236.037 70.192,-192.083 102.465,-164.955"/>
<polygon fill="#000000" stroke="#000000" points="104.792,-167.571 110.195,-158.457 100.288,-162.212 104.792,-167.571"/>
</g>
<!-- Metamodel::ParametricRoleGroupHOW&#45;&gt;Metamodel::RolePunning -->
<g id="edge35" class="edge"><title>Metamodel::ParametricRoleGroupHOW&#45;&gt;Metamodel::RolePunning</title>
<path fill="none" stroke="#6666ff" d="M-203.955,-434.452C-84.3224,-393.69 215.89,-291.4 341.948,-248.449"/>
<polygon fill="#6666ff" stroke="#6666ff" points="343.102,-251.753 351.439,-245.215 340.845,-245.127 343.102,-251.753"/>
</g>
<!-- Metamodel::ParametricRoleGroupHOW&#45;&gt;Metamodel::Naming -->
<g id="edge32" class="edge"><title>Metamodel::ParametricRoleGroupHOW&#45;&gt;Metamodel::Naming</title>
<path fill="none" stroke="#6666ff" d="M-253.243,-433.554C-248.423,-359.425 -230.161,-78.5735 -224.272,11.9873"/>
<polygon fill="#6666ff" stroke="#6666ff" points="-220.773,11.8552 -223.617,22.0613 -227.759,12.3095 -220.773,11.8552"/>
</g>
<!-- Metamodel::ParametricRoleGroupHOW&#45;&gt;Metamodel::Stashing -->
<g id="edge33" class="edge"><title>Metamodel::ParametricRoleGroupHOW&#45;&gt;Metamodel::Stashing</title>
<path fill="none" stroke="#6666ff" d="M-251.049,-433.624C-241.353,-381.775 -214.077,-235.914 -214.077,-235.914 -214.077,-235.914 -68.5258,0.858944 -18.8536,81.6625"/>
<polygon fill="#6666ff" stroke="#6666ff" points="-15.8069,79.9354 -13.5516,90.2875 -21.7702,83.6013 -15.8069,79.9354"/>
</g>
<!-- Metamodel::ParametricRoleGroupHOW&#45;&gt;Metamodel::BoolificationProtocol -->
<g id="edge36" class="edge"><title>Metamodel::ParametricRoleGroupHOW&#45;&gt;Metamodel::BoolificationProtocol</title>
<path fill="none" stroke="#6666ff" d="M-372.432,-438.879C-439.731,-431.597 -523.78,-422.504 -590.936,-415.238"/>
<polygon fill="#6666ff" stroke="#6666ff" points="-590.822,-411.73 -601.141,-414.134 -591.575,-418.69 -590.822,-411.73"/>
</g>
</g>
</svg>
