<?xml version="1.0" encoding="UTF-8" standalone="no"?>
<!DOCTYPE svg PUBLIC "-//W3C//DTD SVG 1.1//EN"
 "http://www.w3.org/Graphics/SVG/1.1/DTD/svg11.dtd">
<!-- Generated by graphviz version 2.38.0 (20140413.2041)
 -->
<!-- Title: perl6&#45;type&#45;graph Pages: 1 -->
<svg width="291pt" height="404pt"
 viewBox="0.00 0.00 291.37 404.00" xmlns="http://www.w3.org/2000/svg" xmlns:xlink="http://www.w3.org/1999/xlink">
<g id="graph0" class="graph" transform="scale(1 1) rotate(0) translate(4 400)">
<title>perl6&#45;type&#45;graph</title>
<polygon fill="white" stroke="none" points="-4,4 -4,-400 287.375,-400 287.375,4 -4,4"/>
<!-- X::Syntax::Argument::MOPMacro -->
<g id="node1" class="node"><title>X::Syntax::Argument::MOPMacro</title>
<g id="a_node1"><a xlink:href="/type/X::Syntax::Argument::MOPMacro" xlink:title="X::Syntax::Argument::MOPMacro">
<ellipse fill="none" stroke="#000000" cx="141.687" cy="-18" rx="141.875" ry="18"/>
<text text-anchor="middle" x="141.687" y="-14.3" font-family="FreeSans" font-size="14.00" fill="#000000">X::Syntax::Argument::MOPMacro</text>
</a>
</g>
</g>
<!-- Exception -->
<g id="node4" class="node"><title>Exception</title>
<g id="a_node4"><a xlink:href="/type/Exception" xlink:title="Exception">
<ellipse fill="none" stroke="#000000" cx="141.687" cy="-234" rx="49.2915" ry="18"/>
<text text-anchor="middle" x="141.687" y="-230.3" font-family="FreeSans" font-size="14.00" fill="#000000">Exception</text>
</a>
</g>
</g>
<!-- X::Syntax::Argument::MOPMacro&#45;&gt;Exception -->
<g id="edge1" class="edge"><title>X::Syntax::Argument::MOPMacro&#45;&gt;Exception</title>
<path fill="none" stroke="#000000" d="M135.571,-36.0613C130.017,-51.5549 122.687,-72 122.687,-72 122.687,-72 122.687,-108 122.687,-108 122.687,-108 131.961,-169.008 137.55,-205.782"/>
<polygon fill="#000000" stroke="#000000" points="134.122,-206.521 139.085,-215.881 141.043,-205.469 134.122,-206.521"/>
</g>
<!-- X::Syntax -->
<g id="node6" class="node"><title>X::Syntax</title>
<g id="a_node6"><a xlink:href="/type/X::Syntax" xlink:title="X::Syntax">
<ellipse fill="none" stroke="#6666ff" cx="179.687" cy="-90" rx="48.1917" ry="18"/>
<text text-anchor="middle" x="179.687" y="-86.3" font-family="FreeSans" font-size="14.00" fill="#6666ff">X::Syntax</text>
</a>
</g>
</g>
<!-- X::Syntax::Argument::MOPMacro&#45;&gt;X::Syntax -->
<g id="edge6" class="edge"><title>X::Syntax::Argument::MOPMacro&#45;&gt;X::Syntax</title>
<path fill="none" stroke="#6666ff" d="M151.081,-36.3034C155.452,-44.3564 160.745,-54.1055 165.583,-63.0176"/>
<polygon fill="#6666ff" stroke="#6666ff" points="162.555,-64.777 170.402,-71.8957 168.707,-61.4373 162.555,-64.777"/>
</g>
<!-- Mu -->
<g id="node2" class="node"><title>Mu</title>
<g id="a_node2"><a xlink:href="/type/Mu" xlink:title="Mu">
<ellipse fill="none" stroke="#000000" cx="141.687" cy="-378" rx="27" ry="18"/>
<text text-anchor="middle" x="141.687" y="-374.3" font-family="FreeSans" font-size="14.00" fill="#000000">Mu</text>
</a>
</g>
</g>
<!-- Any -->
<g id="node3" class="node"><title>Any</title>
<g id="a_node3"><a xlink:href="/type/Any" xlink:title="Any">
<ellipse fill="none" stroke="#000000" cx="141.687" cy="-306" rx="27" ry="18"/>
<text text-anchor="middle" x="141.687" y="-302.3" font-family="FreeSans" font-size="14.00" fill="#000000">Any</text>
</a>
</g>
</g>
<!-- Any&#45;&gt;Mu -->
<g id="edge2" class="edge"><title>Any&#45;&gt;Mu</title>
<path fill="none" stroke="#000000" d="M141.687,-324.303C141.687,-332.017 141.687,-341.288 141.687,-349.888"/>
<polygon fill="#000000" stroke="#000000" points="138.188,-349.896 141.687,-359.896 145.188,-349.896 138.188,-349.896"/>
</g>
<!-- Exception&#45;&gt;Any -->
<g id="edge3" class="edge"><title>Exception&#45;&gt;Any</title>
<path fill="none" stroke="#000000" d="M141.687,-252.303C141.687,-260.017 141.687,-269.288 141.687,-277.888"/>
<polygon fill="#000000" stroke="#000000" points="138.188,-277.896 141.687,-287.896 145.188,-277.896 138.188,-277.896"/>
</g>
<!-- X::Comp -->
<g id="node5" class="node"><title>X::Comp</title>
<g id="a_node5"><a xlink:href="/type/X::Comp" xlink:title="X::Comp">
<ellipse fill="none" stroke="#6666ff" cx="214.687" cy="-162" rx="44.6926" ry="18"/>
<text text-anchor="middle" x="214.687" y="-158.3" font-family="FreeSans" font-size="14.00" fill="#6666ff">X::Comp</text>
</a>
</g>
</g>
<!-- X::Comp&#45;&gt;Exception -->
<g id="edge4" class="edge"><title>X::Comp&#45;&gt;Exception</title>
<path fill="none" stroke="#000000" d="M198.123,-178.884C188.577,-188.038 176.407,-199.707 165.814,-209.865"/>
<polygon fill="#000000" stroke="#000000" points="163.235,-207.489 158.439,-216.936 168.08,-212.541 163.235,-207.489"/>
</g>
<!-- X::Syntax&#45;&gt;Exception -->
<g id="edge5" class="edge"><title>X::Syntax&#45;&gt;Exception</title>
<path fill="none" stroke="#000000" d="M173.571,-108.061C168.017,-123.555 160.687,-144 160.687,-144 160.687,-144 153.038,-179.833 147.446,-206.025"/>
<polygon fill="#000000" stroke="#000000" points="144.016,-205.33 145.351,-215.84 150.862,-206.791 144.016,-205.33"/>
</g>
<!-- X::Syntax&#45;&gt;X::Comp -->
<g id="edge7" class="edge"><title>X::Syntax&#45;&gt;X::Comp</title>
<path fill="none" stroke="#6666ff" d="M188.16,-107.945C192.244,-116.113 197.232,-126.088 201.775,-135.176"/>
<polygon fill="#6666ff" stroke="#6666ff" points="198.69,-136.832 206.293,-144.211 204.951,-133.701 198.69,-136.832"/>
</g>
</g>
</svg>
