<?xml version="1.0" encoding="UTF-8" standalone="no"?>
<!DOCTYPE svg PUBLIC "-//W3C//DTD SVG 1.1//EN"
 "http://www.w3.org/Graphics/SVG/1.1/DTD/svg11.dtd">
<!-- Generated by graphviz version 2.38.0 (20140413.2041)
 -->
<!-- Title: perl6&#45;type&#45;graph Pages: 1 -->
<svg width="850pt" height="188pt"
 viewBox="0.00 0.00 849.88 188.00" xmlns="http://www.w3.org/2000/svg" xmlns:xlink="http://www.w3.org/1999/xlink">
<g id="graph0" class="graph" transform="scale(1 1) rotate(0) translate(4 184)">
<title>perl6&#45;type&#45;graph</title>
<polygon fill="white" stroke="none" points="-4,4 -4,-184 845.879,-184 845.879,4 -4,4"/>
<!-- CompUnit::Repository::Locally -->
<g id="node1" class="node"><title>CompUnit::Repository::Locally</title>
<g id="a_node1"><a xlink:href="/type/CompUnit::Repository::Locally" xlink:title="CompUnit::Repository::Locally">
<ellipse fill="none" stroke="#6666ff" cx="340.841" cy="-90" rx="129.177" ry="18"/>
<text text-anchor="middle" x="340.841" y="-86.3" font-family="FreeSans" font-size="14.00" fill="#6666ff">CompUnit::Repository::Locally</text>
</a>
</g>
</g>
<!-- Mu -->
<g id="node2" class="node"><title>Mu</title>
<g id="a_node2"><a xlink:href="/type/Mu" xlink:title="Mu">
<ellipse fill="none" stroke="#000000" cx="514.841" cy="-162" rx="27" ry="18"/>
<text text-anchor="middle" x="514.841" y="-158.3" font-family="FreeSans" font-size="14.00" fill="#000000">Mu</text>
</a>
</g>
</g>
<!-- Any -->
<g id="node3" class="node"><title>Any</title>
<g id="a_node3"><a xlink:href="/type/Any" xlink:title="Any">
<ellipse fill="none" stroke="#000000" cx="514.841" cy="-90" rx="27" ry="18"/>
<text text-anchor="middle" x="514.841" y="-86.3" font-family="FreeSans" font-size="14.00" fill="#000000">Any</text>
</a>
</g>
</g>
<!-- Any&#45;&gt;Mu -->
<g id="edge1" class="edge"><title>Any&#45;&gt;Mu</title>
<path fill="none" stroke="#000000" d="M514.841,-108.303C514.841,-116.017 514.841,-125.288 514.841,-133.888"/>
<polygon fill="#000000" stroke="#000000" points="511.342,-133.896 514.841,-143.896 518.342,-133.896 511.342,-133.896"/>
</g>
<!-- CompUnit::Repository::Installable -->
<g id="node4" class="node"><title>CompUnit::Repository::Installable</title>
<g id="a_node4"><a xlink:href="/type/CompUnit::Repository::Installable" xlink:title="CompUnit::Repository::Installable">
<ellipse fill="none" stroke="#6666ff" cx="700.841" cy="-90" rx="141.075" ry="18"/>
<text text-anchor="middle" x="700.841" y="-86.3" font-family="FreeSans" font-size="14.00" fill="#6666ff">CompUnit::Repository::Installable</text>
</a>
</g>
</g>
<!-- CompUnit::Repository::Installation -->
<g id="node5" class="node"><title>CompUnit::Repository::Installation</title>
<g id="a_node5"><a xlink:href="/type/CompUnit::Repository::Installation" xlink:title="CompUnit::Repository::Installation">
<ellipse fill="none" stroke="#000000" cx="580.841" cy="-18" rx="143.775" ry="18"/>
<text text-anchor="middle" x="580.841" y="-14.3" font-family="FreeSans" font-size="14.00" fill="#000000">CompUnit::Repository::Installation</text>
</a>
</g>
</g>
<!-- CompUnit::Repository::Installation&#45;&gt;CompUnit::Repository::Locally -->
<g id="edge4" class="edge"><title>CompUnit::Repository::Installation&#45;&gt;CompUnit::Repository::Locally</title>
<path fill="none" stroke="#6666ff" d="M526.981,-34.7094C490.57,-45.3291 442.345,-59.3947 404.105,-70.548"/>
<polygon fill="#6666ff" stroke="#6666ff" points="402.729,-67.3036 394.109,-73.4637 404.689,-74.0236 402.729,-67.3036"/>
</g>
<!-- CompUnit::Repository::Installation&#45;&gt;Any -->
<g id="edge2" class="edge"><title>CompUnit::Repository::Installation&#45;&gt;Any</title>
<path fill="none" stroke="#000000" d="M564.865,-35.945C556.195,-45.1401 545.367,-56.6246 536.004,-66.5548"/>
<polygon fill="#000000" stroke="#000000" points="533.192,-64.435 528.879,-74.112 538.285,-69.2371 533.192,-64.435"/>
</g>
<!-- CompUnit::Repository::Installation&#45;&gt;CompUnit::Repository::Installable -->
<g id="edge5" class="edge"><title>CompUnit::Repository::Installation&#45;&gt;CompUnit::Repository::Installable</title>
<path fill="none" stroke="#6666ff" d="M609.584,-35.7667C625.763,-45.2042 646.148,-57.0954 663.546,-67.2441"/>
<polygon fill="#6666ff" stroke="#6666ff" points="661.932,-70.3545 672.333,-72.3701 665.459,-64.3081 661.932,-70.3545"/>
</g>
<!-- CompUnit::Repository -->
<g id="node6" class="node"><title>CompUnit::Repository</title>
<g id="a_node6"><a xlink:href="/type/CompUnit::Repository" xlink:title="CompUnit::Repository">
<ellipse fill="none" stroke="#6666ff" cx="96.8414" cy="-90" rx="96.6831" ry="18"/>
<text text-anchor="middle" x="96.8414" y="-86.3" font-family="FreeSans" font-size="14.00" fill="#6666ff">CompUnit::Repository</text>
</a>
</g>
</g>
<!-- CompUnit::Repository::FileSystem -->
<g id="node7" class="node"><title>CompUnit::Repository::FileSystem</title>
<g id="a_node7"><a xlink:href="/type/CompUnit::Repository::FileSystem" xlink:title="CompUnit::Repository::FileSystem">
<ellipse fill="none" stroke="#000000" cx="273.841" cy="-18" rx="144.874" ry="18"/>
<text text-anchor="middle" x="273.841" y="-14.3" font-family="FreeSans" font-size="14.00" fill="#000000">CompUnit::Repository::FileSystem</text>
</a>
</g>
</g>
<!-- CompUnit::Repository::FileSystem&#45;&gt;CompUnit::Repository::Locally -->
<g id="edge6" class="edge"><title>CompUnit::Repository::FileSystem&#45;&gt;CompUnit::Repository::Locally</title>
<path fill="none" stroke="#6666ff" d="M290.06,-35.945C298.25,-44.5016 308.337,-55.0406 317.358,-64.4648"/>
<polygon fill="#6666ff" stroke="#6666ff" points="314.863,-66.9206 324.306,-71.7247 319.92,-62.0804 314.863,-66.9206"/>
</g>
<!-- CompUnit::Repository::FileSystem&#45;&gt;Any -->
<g id="edge3" class="edge"><title>CompUnit::Repository::FileSystem&#45;&gt;Any</title>
<path fill="none" stroke="#000000" d="M333.687,-34.4723C394.196,-50.1159 478.841,-72 478.841,-72 478.841,-72 481.022,-73.0296 484.309,-74.5819"/>
<polygon fill="#000000" stroke="#000000" points="482.947,-77.8093 493.484,-78.9146 485.936,-71.4796 482.947,-77.8093"/>
</g>
<!-- CompUnit::Repository::FileSystem&#45;&gt;CompUnit::Repository -->
<g id="edge7" class="edge"><title>CompUnit::Repository::FileSystem&#45;&gt;CompUnit::Repository</title>
<path fill="none" stroke="#6666ff" d="M232.343,-35.4119C206.293,-45.7141 172.59,-59.0431 145.313,-69.8304"/>
<polygon fill="#6666ff" stroke="#6666ff" points="143.968,-66.5984 135.956,-73.5309 146.543,-73.1079 143.968,-66.5984"/>
</g>
</g>
</svg>
