<?xml version="1.0" encoding="UTF-8" standalone="no"?>
<!DOCTYPE svg PUBLIC "-//W3C//DTD SVG 1.1//EN"
 "http://www.w3.org/Graphics/SVG/1.1/DTD/svg11.dtd">
<!-- Generated by graphviz version 2.38.0 (20140413.2041)
 -->
<!-- Title: perl6&#45;type&#45;graph Pages: 1 -->
<svg width="209pt" height="332pt"
 viewBox="0.00 0.00 209.48 332.00" xmlns="http://www.w3.org/2000/svg" xmlns:xlink="http://www.w3.org/1999/xlink">
<g id="graph0" class="graph" transform="scale(1 1) rotate(0) translate(4 328)">
<title>perl6&#45;type&#45;graph</title>
<polygon fill="white" stroke="none" points="-4,4 -4,-328 205.482,-328 205.482,4 -4,4"/>
<!-- X::TypeCheck::Binding -->
<g id="node1" class="node"><title>X::TypeCheck::Binding</title>
<g id="a_node1"><a xlink:href="/type/X::TypeCheck::Binding" xlink:title="X::TypeCheck::Binding">
<ellipse fill="none" stroke="#000000" cx="100.741" cy="-18" rx="100.983" ry="18"/>
<text text-anchor="middle" x="100.741" y="-14.3" font-family="FreeSans" font-size="14.00" fill="#000000">X::TypeCheck::Binding</text>
</a>
</g>
</g>
<!-- X::TypeCheck -->
<g id="node5" class="node"><title>X::TypeCheck</title>
<g id="a_node5"><a xlink:href="/type/X::TypeCheck" xlink:title="X::TypeCheck">
<ellipse fill="none" stroke="#000000" cx="100.741" cy="-90" rx="66.8882" ry="18"/>
<text text-anchor="middle" x="100.741" y="-86.3" font-family="FreeSans" font-size="14.00" fill="#000000">X::TypeCheck</text>
</a>
</g>
</g>
<!-- X::TypeCheck::Binding&#45;&gt;X::TypeCheck -->
<g id="edge1" class="edge"><title>X::TypeCheck::Binding&#45;&gt;X::TypeCheck</title>
<path fill="none" stroke="#000000" d="M100.741,-36.3034C100.741,-44.0173 100.741,-53.2875 100.741,-61.8876"/>
<polygon fill="#000000" stroke="#000000" points="97.2412,-61.8956 100.741,-71.8957 104.241,-61.8957 97.2412,-61.8956"/>
</g>
<!-- Mu -->
<g id="node2" class="node"><title>Mu</title>
<g id="a_node2"><a xlink:href="/type/Mu" xlink:title="Mu">
<ellipse fill="none" stroke="#000000" cx="100.741" cy="-306" rx="27" ry="18"/>
<text text-anchor="middle" x="100.741" y="-302.3" font-family="FreeSans" font-size="14.00" fill="#000000">Mu</text>
</a>
</g>
</g>
<!-- Any -->
<g id="node3" class="node"><title>Any</title>
<g id="a_node3"><a xlink:href="/type/Any" xlink:title="Any">
<ellipse fill="none" stroke="#000000" cx="100.741" cy="-234" rx="27" ry="18"/>
<text text-anchor="middle" x="100.741" y="-230.3" font-family="FreeSans" font-size="14.00" fill="#000000">Any</text>
</a>
</g>
</g>
<!-- Any&#45;&gt;Mu -->
<g id="edge2" class="edge"><title>Any&#45;&gt;Mu</title>
<path fill="none" stroke="#000000" d="M100.741,-252.303C100.741,-260.017 100.741,-269.288 100.741,-277.888"/>
<polygon fill="#000000" stroke="#000000" points="97.2412,-277.896 100.741,-287.896 104.241,-277.896 97.2412,-277.896"/>
</g>
<!-- Exception -->
<g id="node4" class="node"><title>Exception</title>
<g id="a_node4"><a xlink:href="/type/Exception" xlink:title="Exception">
<ellipse fill="none" stroke="#000000" cx="100.741" cy="-162" rx="49.2915" ry="18"/>
<text text-anchor="middle" x="100.741" y="-158.3" font-family="FreeSans" font-size="14.00" fill="#000000">Exception</text>
</a>
</g>
</g>
<!-- Exception&#45;&gt;Any -->
<g id="edge3" class="edge"><title>Exception&#45;&gt;Any</title>
<path fill="none" stroke="#000000" d="M100.741,-180.303C100.741,-188.017 100.741,-197.288 100.741,-205.888"/>
<polygon fill="#000000" stroke="#000000" points="97.2412,-205.896 100.741,-215.896 104.241,-205.896 97.2412,-205.896"/>
</g>
<!-- X::TypeCheck&#45;&gt;Exception -->
<g id="edge4" class="edge"><title>X::TypeCheck&#45;&gt;Exception</title>
<path fill="none" stroke="#000000" d="M100.741,-108.303C100.741,-116.017 100.741,-125.288 100.741,-133.888"/>
<polygon fill="#000000" stroke="#000000" points="97.2412,-133.896 100.741,-143.896 104.241,-133.896 97.2412,-133.896"/>
</g>
</g>
</svg>
