<?xml version="1.0" encoding="UTF-8" standalone="no"?>
<!DOCTYPE svg PUBLIC "-//W3C//DTD SVG 1.1//EN"
 "http://www.w3.org/Graphics/SVG/1.1/DTD/svg11.dtd">
<!-- Generated by graphviz version 2.38.0 (20140413.2041)
 -->
<!-- Title: perl6&#45;type&#45;graph Pages: 1 -->
<svg width="291pt" height="260pt"
 viewBox="0.00 0.00 291.37 260.00" xmlns="http://www.w3.org/2000/svg" xmlns:xlink="http://www.w3.org/1999/xlink">
<g id="graph0" class="graph" transform="scale(1 1) rotate(0) translate(4 256)">
<title>perl6&#45;type&#45;graph</title>
<polygon fill="white" stroke="none" points="-4,4 -4,-256 287.375,-256 287.375,4 -4,4"/>
<!-- X::Scheduler::CueInNaNSeconds -->
<g id="node1" class="node"><title>X::Scheduler::CueInNaNSeconds</title>
<g id="a_node1"><a xlink:href="/type/X::Scheduler::CueInNaNSeconds" xlink:title="X::Scheduler::CueInNaNSeconds">
<ellipse fill="none" stroke="#000000" cx="141.687" cy="-18" rx="141.875" ry="18"/>
<text text-anchor="middle" x="141.687" y="-14.3" font-family="FreeSans" font-size="14.00" fill="#000000">X::Scheduler::CueInNaNSeconds</text>
</a>
</g>
</g>
<!-- Exception -->
<g id="node4" class="node"><title>Exception</title>
<g id="a_node4"><a xlink:href="/type/Exception" xlink:title="Exception">
<ellipse fill="none" stroke="#000000" cx="141.687" cy="-90" rx="49.2915" ry="18"/>
<text text-anchor="middle" x="141.687" y="-86.3" font-family="FreeSans" font-size="14.00" fill="#000000">Exception</text>
</a>
</g>
</g>
<!-- X::Scheduler::CueInNaNSeconds&#45;&gt;Exception -->
<g id="edge1" class="edge"><title>X::Scheduler::CueInNaNSeconds&#45;&gt;Exception</title>
<path fill="none" stroke="#000000" d="M141.687,-36.3034C141.687,-44.0173 141.687,-53.2875 141.687,-61.8876"/>
<polygon fill="#000000" stroke="#000000" points="138.188,-61.8956 141.687,-71.8957 145.188,-61.8957 138.188,-61.8956"/>
</g>
<!-- Mu -->
<g id="node2" class="node"><title>Mu</title>
<g id="a_node2"><a xlink:href="/type/Mu" xlink:title="Mu">
<ellipse fill="none" stroke="#000000" cx="141.687" cy="-234" rx="27" ry="18"/>
<text text-anchor="middle" x="141.687" y="-230.3" font-family="FreeSans" font-size="14.00" fill="#000000">Mu</text>
</a>
</g>
</g>
<!-- Any -->
<g id="node3" class="node"><title>Any</title>
<g id="a_node3"><a xlink:href="/type/Any" xlink:title="Any">
<ellipse fill="none" stroke="#000000" cx="141.687" cy="-162" rx="27" ry="18"/>
<text text-anchor="middle" x="141.687" y="-158.3" font-family="FreeSans" font-size="14.00" fill="#000000">Any</text>
</a>
</g>
</g>
<!-- Any&#45;&gt;Mu -->
<g id="edge2" class="edge"><title>Any&#45;&gt;Mu</title>
<path fill="none" stroke="#000000" d="M141.687,-180.303C141.687,-188.017 141.687,-197.288 141.687,-205.888"/>
<polygon fill="#000000" stroke="#000000" points="138.188,-205.896 141.687,-215.896 145.188,-205.896 138.188,-205.896"/>
</g>
<!-- Exception&#45;&gt;Any -->
<g id="edge3" class="edge"><title>Exception&#45;&gt;Any</title>
<path fill="none" stroke="#000000" d="M141.687,-108.303C141.687,-116.017 141.687,-125.288 141.687,-133.888"/>
<polygon fill="#000000" stroke="#000000" points="138.188,-133.896 141.687,-143.896 145.188,-133.896 138.188,-133.896"/>
</g>
</g>
</svg>
