<?xml version="1.0" encoding="UTF-8" standalone="no"?>
<!DOCTYPE svg PUBLIC "-//W3C//DTD SVG 1.1//EN"
 "http://www.w3.org/Graphics/SVG/1.1/DTD/svg11.dtd">
<!-- Generated by graphviz version 2.38.0 (20140413.2041)
 -->
<!-- Title: perl6&#45;type&#45;graph Pages: 1 -->
<svg width="311pt" height="404pt"
 viewBox="0.00 0.00 311.28 404.00" xmlns="http://www.w3.org/2000/svg" xmlns:xlink="http://www.w3.org/1999/xlink">
<g id="graph0" class="graph" transform="scale(1 1) rotate(0) translate(4 400)">
<title>perl6&#45;type&#45;graph</title>
<polygon fill="white" stroke="none" points="-4,4 -4,-400 307.284,-400 307.284,4 -4,4"/>
<!-- X::Backslash::NonVariableDollar -->
<g id="node1" class="node"><title>X::Backslash::NonVariableDollar</title>
<g id="a_node1"><a xlink:href="/type/X::Backslash::NonVariableDollar" xlink:title="X::Backslash::NonVariableDollar">
<ellipse fill="none" stroke="#000000" cx="138.438" cy="-18" rx="138.375" ry="18"/>
<text text-anchor="middle" x="138.438" y="-14.3" font-family="FreeSans" font-size="14.00" fill="#000000">X::Backslash::NonVariableDollar</text>
</a>
</g>
</g>
<!-- Exception -->
<g id="node4" class="node"><title>Exception</title>
<g id="a_node4"><a xlink:href="/type/Exception" xlink:title="Exception">
<ellipse fill="none" stroke="#000000" cx="161.438" cy="-234" rx="49.2915" ry="18"/>
<text text-anchor="middle" x="161.438" y="-230.3" font-family="FreeSans" font-size="14.00" fill="#000000">Exception</text>
</a>
</g>
</g>
<!-- X::Backslash::NonVariableDollar&#45;&gt;Exception -->
<g id="edge1" class="edge"><title>X::Backslash::NonVariableDollar&#45;&gt;Exception</title>
<path fill="none" stroke="#000000" d="M136.404,-36.1508C136.848,-73.3384 146.079,-161.626 153.91,-206.228"/>
<polygon fill="#000000" stroke="#000000" points="150.472,-206.884 155.761,-216.065 157.351,-205.59 150.472,-206.884"/>
</g>
<!-- X::Backslash::NonVariableDollar&#45;&gt;Exception -->
<g id="edge2" class="edge"><title>X::Backslash::NonVariableDollar&#45;&gt;Exception</title>
<path fill="none" stroke="#000000" d="M144.159,-36.1508C151.673,-73.1683 161.365,-160.819 163.186,-205.614"/>
<polygon fill="#000000" stroke="#000000" points="159.692,-205.87 163.471,-215.768 166.689,-205.673 159.692,-205.87"/>
</g>
<!-- X::Syntax -->
<g id="node6" class="node"><title>X::Syntax</title>
<g id="a_node6"><a xlink:href="/type/X::Syntax" xlink:title="X::Syntax">
<ellipse fill="none" stroke="#6666ff" cx="223.438" cy="-90" rx="48.1917" ry="18"/>
<text text-anchor="middle" x="223.438" y="-86.3" font-family="FreeSans" font-size="14.00" fill="#6666ff">X::Syntax</text>
</a>
</g>
</g>
<!-- X::Backslash::NonVariableDollar&#45;&gt;X::Syntax -->
<g id="edge7" class="edge"><title>X::Backslash::NonVariableDollar&#45;&gt;X::Syntax</title>
<path fill="none" stroke="#6666ff" d="M159.014,-35.945C170.271,-45.216 184.355,-56.8143 196.481,-66.8003"/>
<polygon fill="#6666ff" stroke="#6666ff" points="194.56,-69.7523 204.504,-73.4077 199.01,-64.3488 194.56,-69.7523"/>
</g>
<!-- Mu -->
<g id="node2" class="node"><title>Mu</title>
<g id="a_node2"><a xlink:href="/type/Mu" xlink:title="Mu">
<ellipse fill="none" stroke="#000000" cx="161.438" cy="-378" rx="27" ry="18"/>
<text text-anchor="middle" x="161.438" y="-374.3" font-family="FreeSans" font-size="14.00" fill="#000000">Mu</text>
</a>
</g>
</g>
<!-- Any -->
<g id="node3" class="node"><title>Any</title>
<g id="a_node3"><a xlink:href="/type/Any" xlink:title="Any">
<ellipse fill="none" stroke="#000000" cx="161.438" cy="-306" rx="27" ry="18"/>
<text text-anchor="middle" x="161.438" y="-302.3" font-family="FreeSans" font-size="14.00" fill="#000000">Any</text>
</a>
</g>
</g>
<!-- Any&#45;&gt;Mu -->
<g id="edge3" class="edge"><title>Any&#45;&gt;Mu</title>
<path fill="none" stroke="#000000" d="M161.438,-324.303C161.438,-332.017 161.438,-341.288 161.438,-349.888"/>
<polygon fill="#000000" stroke="#000000" points="157.938,-349.896 161.438,-359.896 164.938,-349.896 157.938,-349.896"/>
</g>
<!-- Exception&#45;&gt;Any -->
<g id="edge4" class="edge"><title>Exception&#45;&gt;Any</title>
<path fill="none" stroke="#000000" d="M161.438,-252.303C161.438,-260.017 161.438,-269.288 161.438,-277.888"/>
<polygon fill="#000000" stroke="#000000" points="157.938,-277.896 161.438,-287.896 164.938,-277.896 157.938,-277.896"/>
</g>
<!-- X::Comp -->
<g id="node5" class="node"><title>X::Comp</title>
<g id="a_node5"><a xlink:href="/type/X::Comp" xlink:title="X::Comp">
<ellipse fill="none" stroke="#6666ff" cx="258.438" cy="-162" rx="44.6926" ry="18"/>
<text text-anchor="middle" x="258.438" y="-158.3" font-family="FreeSans" font-size="14.00" fill="#6666ff">X::Comp</text>
</a>
</g>
</g>
<!-- X::Comp&#45;&gt;Exception -->
<g id="edge5" class="edge"><title>X::Comp&#45;&gt;Exception</title>
<path fill="none" stroke="#000000" d="M237.39,-178.189C223.882,-187.937 206.139,-200.742 191.199,-211.523"/>
<polygon fill="#000000" stroke="#000000" points="188.84,-208.909 182.779,-217.599 192.936,-214.585 188.84,-208.909"/>
</g>
<!-- X::Syntax&#45;&gt;Exception -->
<g id="edge6" class="edge"><title>X::Syntax&#45;&gt;Exception</title>
<path fill="none" stroke="#000000" d="M216.082,-107.847C205.408,-132.294 185.526,-177.829 172.915,-206.714"/>
<polygon fill="#000000" stroke="#000000" points="169.578,-205.61 168.784,-216.175 175.993,-208.411 169.578,-205.61"/>
</g>
<!-- X::Syntax&#45;&gt;X::Comp -->
<g id="edge8" class="edge"><title>X::Syntax&#45;&gt;X::Comp</title>
<path fill="none" stroke="#6666ff" d="M231.91,-107.945C235.994,-116.113 240.982,-126.088 245.526,-135.176"/>
<polygon fill="#6666ff" stroke="#6666ff" points="242.441,-136.832 250.043,-144.211 248.702,-133.701 242.441,-136.832"/>
</g>
</g>
</svg>
