<?xml version="1.0" encoding="UTF-8" standalone="no"?>
<!DOCTYPE svg PUBLIC "-//W3C//DTD SVG 1.1//EN"
 "http://www.w3.org/Graphics/SVG/1.1/DTD/svg11.dtd">
<!-- Generated by graphviz version 2.38.0 (20140413.2041)
 -->
<!-- Title: perl6&#45;type&#45;graph Pages: 1 -->
<svg width="1419pt" height="332pt"
 viewBox="0.00 0.00 1419.23 332.00" xmlns="http://www.w3.org/2000/svg" xmlns:xlink="http://www.w3.org/1999/xlink">
<g id="graph0" class="graph" transform="scale(1 1) rotate(0) translate(4 328)">
<title>perl6&#45;type&#45;graph</title>
<polygon fill="white" stroke="none" points="-4,4 -4,-328 1415.23,-328 1415.23,4 -4,4"/>
<!-- X::Proc::Async -->
<g id="node1" class="node"><title>X::Proc::Async</title>
<g id="a_node1"><a xlink:href="/type/X::Proc::Async" xlink:title="X::Proc::Async">
<ellipse fill="none" stroke="#6666ff" cx="664.288" cy="-90" rx="68.4888" ry="18"/>
<text text-anchor="middle" x="664.288" y="-86.3" font-family="FreeSans" font-size="14.00" fill="#6666ff">X::Proc::Async</text>
</a>
</g>
</g>
<!-- Exception -->
<g id="node4" class="node"><title>Exception</title>
<g id="a_node4"><a xlink:href="/type/Exception" xlink:title="Exception">
<ellipse fill="none" stroke="#000000" cx="712.288" cy="-162" rx="49.2915" ry="18"/>
<text text-anchor="middle" x="712.288" y="-158.3" font-family="FreeSans" font-size="14.00" fill="#000000">Exception</text>
</a>
</g>
</g>
<!-- X::Proc::Async&#45;&gt;Exception -->
<g id="edge1" class="edge"><title>X::Proc::Async&#45;&gt;Exception</title>
<path fill="none" stroke="#000000" d="M675.908,-107.945C681.627,-116.285 688.638,-126.509 694.973,-135.748"/>
<polygon fill="#000000" stroke="#000000" points="692.234,-137.943 700.776,-144.211 698.007,-133.984 692.234,-137.943"/>
</g>
<!-- Mu -->
<g id="node2" class="node"><title>Mu</title>
<g id="a_node2"><a xlink:href="/type/Mu" xlink:title="Mu">
<ellipse fill="none" stroke="#000000" cx="712.288" cy="-306" rx="27" ry="18"/>
<text text-anchor="middle" x="712.288" y="-302.3" font-family="FreeSans" font-size="14.00" fill="#000000">Mu</text>
</a>
</g>
</g>
<!-- Any -->
<g id="node3" class="node"><title>Any</title>
<g id="a_node3"><a xlink:href="/type/Any" xlink:title="Any">
<ellipse fill="none" stroke="#000000" cx="712.288" cy="-234" rx="27" ry="18"/>
<text text-anchor="middle" x="712.288" y="-230.3" font-family="FreeSans" font-size="14.00" fill="#000000">Any</text>
</a>
</g>
</g>
<!-- Any&#45;&gt;Mu -->
<g id="edge2" class="edge"><title>Any&#45;&gt;Mu</title>
<path fill="none" stroke="#000000" d="M712.288,-252.303C712.288,-260.017 712.288,-269.288 712.288,-277.888"/>
<polygon fill="#000000" stroke="#000000" points="708.788,-277.896 712.288,-287.896 715.788,-277.896 708.788,-277.896"/>
</g>
<!-- Exception&#45;&gt;Any -->
<g id="edge3" class="edge"><title>Exception&#45;&gt;Any</title>
<path fill="none" stroke="#000000" d="M712.288,-180.303C712.288,-188.017 712.288,-197.288 712.288,-205.888"/>
<polygon fill="#000000" stroke="#000000" points="708.788,-205.896 712.288,-215.896 715.788,-205.896 708.788,-205.896"/>
</g>
<!-- X::Proc::Async::AlreadyStarted -->
<g id="node5" class="node"><title>X::Proc::Async::AlreadyStarted</title>
<g id="a_node5"><a xlink:href="/type/X::Proc::Async::AlreadyStarted" xlink:title="X::Proc::Async::AlreadyStarted">
<ellipse fill="none" stroke="#000000" cx="131.288" cy="-18" rx="131.077" ry="18"/>
<text text-anchor="middle" x="131.288" y="-14.3" font-family="FreeSans" font-size="14.00" fill="#000000">X::Proc::Async::AlreadyStarted</text>
</a>
</g>
</g>
<!-- X::Proc::Async::AlreadyStarted&#45;&gt;X::Proc::Async -->
<g id="edge9" class="edge"><title>X::Proc::Async::AlreadyStarted&#45;&gt;X::Proc::Async</title>
<path fill="none" stroke="#6666ff" d="M222.611,-30.9936C328.093,-44.8468 499.308,-67.3327 594.619,-79.8502"/>
<polygon fill="#6666ff" stroke="#6666ff" points="594.358,-83.3459 604.729,-81.1779 595.27,-76.4055 594.358,-83.3459"/>
</g>
<!-- X::Proc::Async::AlreadyStarted&#45;&gt;Exception -->
<g id="edge4" class="edge"><title>X::Proc::Async::AlreadyStarted&#45;&gt;Exception</title>
<path fill="none" stroke="#000000" d="M192.641,-33.995C308.358,-62.277 556.718,-122.978 662.706,-148.882"/>
<polygon fill="#000000" stroke="#000000" points="661.965,-152.303 672.51,-151.278 663.626,-145.504 661.965,-152.303"/>
</g>
<!-- X::Proc::Async::OpenForWriting -->
<g id="node6" class="node"><title>X::Proc::Async::OpenForWriting</title>
<g id="a_node6"><a xlink:href="/type/X::Proc::Async::OpenForWriting" xlink:title="X::Proc::Async::OpenForWriting">
<ellipse fill="none" stroke="#000000" cx="416.288" cy="-18" rx="135.676" ry="18"/>
<text text-anchor="middle" x="416.288" y="-14.3" font-family="FreeSans" font-size="14.00" fill="#000000">X::Proc::Async::OpenForWriting</text>
</a>
</g>
</g>
<!-- X::Proc::Async::OpenForWriting&#45;&gt;X::Proc::Async -->
<g id="edge10" class="edge"><title>X::Proc::Async::OpenForWriting&#45;&gt;X::Proc::Async</title>
<path fill="none" stroke="#6666ff" d="M471.328,-34.5353C512.459,-46.1449 568.433,-61.9441 609.503,-73.5364"/>
<polygon fill="#6666ff" stroke="#6666ff" points="608.767,-76.9653 619.341,-76.3134 610.668,-70.2285 608.767,-76.9653"/>
</g>
<!-- X::Proc::Async::OpenForWriting&#45;&gt;Exception -->
<g id="edge5" class="edge"><title>X::Proc::Async::OpenForWriting&#45;&gt;Exception</title>
<path fill="none" stroke="#000000" d="M448.051,-35.5316C497.503,-61.2698 587.288,-108 587.288,-108 587.288,-108 635.392,-128.396 671.917,-143.883"/>
<polygon fill="#000000" stroke="#000000" points="670.817,-147.218 681.389,-147.899 673.549,-140.773 670.817,-147.218"/>
</g>
<!-- X::Proc::Async::TapBeforeSpawn -->
<g id="node7" class="node"><title>X::Proc::Async::TapBeforeSpawn</title>
<g id="a_node7"><a xlink:href="/type/X::Proc::Async::TapBeforeSpawn" xlink:title="X::Proc::Async::TapBeforeSpawn">
<ellipse fill="none" stroke="#000000" cx="712.288" cy="-18" rx="141.875" ry="18"/>
<text text-anchor="middle" x="712.288" y="-14.3" font-family="FreeSans" font-size="14.00" fill="#000000">X::Proc::Async::TapBeforeSpawn</text>
</a>
</g>
</g>
<!-- X::Proc::Async::TapBeforeSpawn&#45;&gt;X::Proc::Async -->
<g id="edge11" class="edge"><title>X::Proc::Async::TapBeforeSpawn&#45;&gt;X::Proc::Async</title>
<path fill="none" stroke="#6666ff" d="M700.669,-35.945C694.95,-44.2853 687.939,-54.5092 681.604,-63.7483"/>
<polygon fill="#6666ff" stroke="#6666ff" points="678.57,-61.9843 675.801,-72.211 684.343,-65.9431 678.57,-61.9843"/>
</g>
<!-- X::Proc::Async::TapBeforeSpawn&#45;&gt;Exception -->
<g id="edge6" class="edge"><title>X::Proc::Async::TapBeforeSpawn&#45;&gt;Exception</title>
<path fill="none" stroke="#000000" d="M721.624,-36.0613C730.101,-51.5549 741.288,-72 741.288,-72 741.288,-72 741.288,-108 741.288,-108 741.288,-108 733.81,-121.667 726.449,-135.121"/>
<polygon fill="#000000" stroke="#000000" points="723.194,-133.778 721.464,-144.23 729.335,-137.138 723.194,-133.778"/>
</g>
<!-- X::Proc::Async::CharsOrBytes -->
<g id="node8" class="node"><title>X::Proc::Async::CharsOrBytes</title>
<g id="a_node8"><a xlink:href="/type/X::Proc::Async::CharsOrBytes" xlink:title="X::Proc::Async::CharsOrBytes">
<ellipse fill="none" stroke="#000000" cx="1000.29" cy="-18" rx="128.877" ry="18"/>
<text text-anchor="middle" x="1000.29" y="-14.3" font-family="FreeSans" font-size="14.00" fill="#000000">X::Proc::Async::CharsOrBytes</text>
</a>
</g>
</g>
<!-- X::Proc::Async::CharsOrBytes&#45;&gt;X::Proc::Async -->
<g id="edge12" class="edge"><title>X::Proc::Async::CharsOrBytes&#45;&gt;X::Proc::Async</title>
<path fill="none" stroke="#6666ff" d="M931.889,-33.2499C871.488,-45.8335 784.204,-64.0176 725.925,-76.159"/>
<polygon fill="#6666ff" stroke="#6666ff" points="725.189,-72.7371 716.113,-78.2032 726.617,-79.59 725.189,-72.7371"/>
</g>
<!-- X::Proc::Async::CharsOrBytes&#45;&gt;Exception -->
<g id="edge7" class="edge"><title>X::Proc::Async::CharsOrBytes&#45;&gt;Exception</title>
<path fill="none" stroke="#000000" d="M966.97,-35.4279C912.941,-62.0669 806.568,-114.515 749.901,-142.455"/>
<polygon fill="#000000" stroke="#000000" points="748.006,-139.487 740.585,-147.048 751.102,-145.765 748.006,-139.487"/>
</g>
<!-- X::Proc::Async::MustBeStarted -->
<g id="node9" class="node"><title>X::Proc::Async::MustBeStarted</title>
<g id="a_node9"><a xlink:href="/type/X::Proc::Async::MustBeStarted" xlink:title="X::Proc::Async::MustBeStarted">
<ellipse fill="none" stroke="#000000" cx="1279.29" cy="-18" rx="131.877" ry="18"/>
<text text-anchor="middle" x="1279.29" y="-14.3" font-family="FreeSans" font-size="14.00" fill="#000000">X::Proc::Async::MustBeStarted</text>
</a>
</g>
</g>
<!-- X::Proc::Async::MustBeStarted&#45;&gt;X::Proc::Async -->
<g id="edge13" class="edge"><title>X::Proc::Async::MustBeStarted&#45;&gt;X::Proc::Async</title>
<path fill="none" stroke="#6666ff" d="M1184.07,-30.4806C1158.74,-33.5341 1138.29,-36 1138.29,-36 1138.29,-36 868.275,-66.1914 735.833,-81.0002"/>
<polygon fill="#6666ff" stroke="#6666ff" points="735.319,-77.5359 725.77,-82.1255 736.097,-84.4925 735.319,-77.5359"/>
</g>
<!-- X::Proc::Async::MustBeStarted&#45;&gt;Exception -->
<g id="edge8" class="edge"><title>X::Proc::Async::MustBeStarted&#45;&gt;Exception</title>
<path fill="none" stroke="#000000" d="M1219.15,-34.0621C1106.47,-62.2802 865.61,-122.602 761.694,-148.627"/>
<polygon fill="#000000" stroke="#000000" points="760.628,-145.286 751.778,-151.11 762.329,-152.076 760.628,-145.286"/>
</g>
</g>
</svg>
