<?xml version="1.0" encoding="UTF-8" standalone="no"?>
<!DOCTYPE svg PUBLIC "-//W3C//DTD SVG 1.1//EN"
 "http://www.w3.org/Graphics/SVG/1.1/DTD/svg11.dtd">
<!-- Generated by graphviz version 2.38.0 (20140413.2041)
 -->
<!-- Title: perl6&#45;type&#45;graph Pages: 1 -->
<svg width="264pt" height="404pt"
 viewBox="0.00 0.00 263.84 404.00" xmlns="http://www.w3.org/2000/svg" xmlns:xlink="http://www.w3.org/1999/xlink">
<g id="graph0" class="graph" transform="scale(1 1) rotate(0) translate(4 400)">
<title>perl6&#45;type&#45;graph</title>
<polygon fill="white" stroke="none" points="-4,4 -4,-400 259.838,-400 259.838,4 -4,4"/>
<!-- X::Syntax::Reserved -->
<g id="node1" class="node"><title>X::Syntax::Reserved</title>
<g id="a_node1"><a xlink:href="/type/X::Syntax::Reserved" xlink:title="X::Syntax::Reserved">
<ellipse fill="none" stroke="#000000" cx="90.9919" cy="-18" rx="90.9839" ry="18"/>
<text text-anchor="middle" x="90.9919" y="-14.3" font-family="FreeSans" font-size="14.00" fill="#000000">X::Syntax::Reserved</text>
</a>
</g>
</g>
<!-- Exception -->
<g id="node4" class="node"><title>Exception</title>
<g id="a_node4"><a xlink:href="/type/Exception" xlink:title="Exception">
<ellipse fill="none" stroke="#000000" cx="113.992" cy="-234" rx="49.2915" ry="18"/>
<text text-anchor="middle" x="113.992" y="-230.3" font-family="FreeSans" font-size="14.00" fill="#000000">Exception</text>
</a>
</g>
</g>
<!-- X::Syntax::Reserved&#45;&gt;Exception -->
<g id="edge1" class="edge"><title>X::Syntax::Reserved&#45;&gt;Exception</title>
<path fill="none" stroke="#000000" d="M88.9577,-36.1508C89.4024,-73.3384 98.6335,-161.626 106.464,-206.228"/>
<polygon fill="#000000" stroke="#000000" points="103.026,-206.884 108.315,-216.065 109.905,-205.59 103.026,-206.884"/>
</g>
<!-- X::Syntax::Reserved&#45;&gt;Exception -->
<g id="edge2" class="edge"><title>X::Syntax::Reserved&#45;&gt;Exception</title>
<path fill="none" stroke="#000000" d="M96.7128,-36.1508C104.227,-73.1683 113.919,-160.819 115.741,-205.614"/>
<polygon fill="#000000" stroke="#000000" points="112.246,-205.87 116.025,-215.768 119.244,-205.673 112.246,-205.87"/>
</g>
<!-- X::Syntax -->
<g id="node6" class="node"><title>X::Syntax</title>
<g id="a_node6"><a xlink:href="/type/X::Syntax" xlink:title="X::Syntax">
<ellipse fill="none" stroke="#6666ff" cx="175.992" cy="-90" rx="48.1917" ry="18"/>
<text text-anchor="middle" x="175.992" y="-86.3" font-family="FreeSans" font-size="14.00" fill="#6666ff">X::Syntax</text>
</a>
</g>
</g>
<!-- X::Syntax::Reserved&#45;&gt;X::Syntax -->
<g id="edge7" class="edge"><title>X::Syntax::Reserved&#45;&gt;X::Syntax</title>
<path fill="none" stroke="#6666ff" d="M111.136,-35.589C122.492,-44.9415 136.826,-56.7459 149.129,-66.8774"/>
<polygon fill="#6666ff" stroke="#6666ff" points="146.924,-69.5958 156.868,-73.2511 151.374,-64.1922 146.924,-69.5958"/>
</g>
<!-- Mu -->
<g id="node2" class="node"><title>Mu</title>
<g id="a_node2"><a xlink:href="/type/Mu" xlink:title="Mu">
<ellipse fill="none" stroke="#000000" cx="113.992" cy="-378" rx="27" ry="18"/>
<text text-anchor="middle" x="113.992" y="-374.3" font-family="FreeSans" font-size="14.00" fill="#000000">Mu</text>
</a>
</g>
</g>
<!-- Any -->
<g id="node3" class="node"><title>Any</title>
<g id="a_node3"><a xlink:href="/type/Any" xlink:title="Any">
<ellipse fill="none" stroke="#000000" cx="113.992" cy="-306" rx="27" ry="18"/>
<text text-anchor="middle" x="113.992" y="-302.3" font-family="FreeSans" font-size="14.00" fill="#000000">Any</text>
</a>
</g>
</g>
<!-- Any&#45;&gt;Mu -->
<g id="edge3" class="edge"><title>Any&#45;&gt;Mu</title>
<path fill="none" stroke="#000000" d="M113.992,-324.303C113.992,-332.017 113.992,-341.288 113.992,-349.888"/>
<polygon fill="#000000" stroke="#000000" points="110.492,-349.896 113.992,-359.896 117.492,-349.896 110.492,-349.896"/>
</g>
<!-- Exception&#45;&gt;Any -->
<g id="edge4" class="edge"><title>Exception&#45;&gt;Any</title>
<path fill="none" stroke="#000000" d="M113.992,-252.303C113.992,-260.017 113.992,-269.288 113.992,-277.888"/>
<polygon fill="#000000" stroke="#000000" points="110.492,-277.896 113.992,-287.896 117.492,-277.896 110.492,-277.896"/>
</g>
<!-- X::Comp -->
<g id="node5" class="node"><title>X::Comp</title>
<g id="a_node5"><a xlink:href="/type/X::Comp" xlink:title="X::Comp">
<ellipse fill="none" stroke="#6666ff" cx="210.992" cy="-162" rx="44.6926" ry="18"/>
<text text-anchor="middle" x="210.992" y="-158.3" font-family="FreeSans" font-size="14.00" fill="#6666ff">X::Comp</text>
</a>
</g>
</g>
<!-- X::Comp&#45;&gt;Exception -->
<g id="edge5" class="edge"><title>X::Comp&#45;&gt;Exception</title>
<path fill="none" stroke="#000000" d="M189.944,-178.189C176.437,-187.937 158.693,-200.742 143.753,-211.523"/>
<polygon fill="#000000" stroke="#000000" points="141.394,-208.909 135.333,-217.599 145.491,-214.585 141.394,-208.909"/>
</g>
<!-- X::Syntax&#45;&gt;Exception -->
<g id="edge6" class="edge"><title>X::Syntax&#45;&gt;Exception</title>
<path fill="none" stroke="#000000" d="M168.636,-107.847C157.962,-132.294 138.081,-177.829 125.469,-206.714"/>
<polygon fill="#000000" stroke="#000000" points="122.132,-205.61 121.338,-216.175 128.547,-208.411 122.132,-205.61"/>
</g>
<!-- X::Syntax&#45;&gt;X::Comp -->
<g id="edge8" class="edge"><title>X::Syntax&#45;&gt;X::Comp</title>
<path fill="none" stroke="#6666ff" d="M184.464,-107.945C188.549,-116.113 193.536,-126.088 198.08,-135.176"/>
<polygon fill="#6666ff" stroke="#6666ff" points="194.995,-136.832 202.597,-144.211 201.256,-133.701 194.995,-136.832"/>
</g>
</g>
</svg>
