<?xml version="1.0" encoding="UTF-8" standalone="no"?>
<!DOCTYPE svg PUBLIC "-//W3C//DTD SVG 1.1//EN"
 "http://www.w3.org/Graphics/SVG/1.1/DTD/svg11.dtd">
<!-- Generated by graphviz version 2.38.0 (20140413.2041)
 -->
<!-- Title: perl6&#45;type&#45;graph Pages: 1 -->
<svg width="243pt" height="332pt"
 viewBox="0.00 0.00 243.28 332.00" xmlns="http://www.w3.org/2000/svg" xmlns:xlink="http://www.w3.org/1999/xlink">
<g id="graph0" class="graph" transform="scale(1 1) rotate(0) translate(4 328)">
<title>perl6&#45;type&#45;graph</title>
<polygon fill="white" stroke="none" points="-4,4 -4,-328 239.279,-328 239.279,4 -4,4"/>
<!-- X::TypeCheck::Assignment -->
<g id="node1" class="node"><title>X::TypeCheck::Assignment</title>
<g id="a_node1"><a xlink:href="/type/X::TypeCheck::Assignment" xlink:title="X::TypeCheck::Assignment">
<ellipse fill="none" stroke="#000000" cx="117.64" cy="-18" rx="117.779" ry="18"/>
<text text-anchor="middle" x="117.64" y="-14.3" font-family="FreeSans" font-size="14.00" fill="#000000">X::TypeCheck::Assignment</text>
</a>
</g>
</g>
<!-- X::TypeCheck -->
<g id="node5" class="node"><title>X::TypeCheck</title>
<g id="a_node5"><a xlink:href="/type/X::TypeCheck" xlink:title="X::TypeCheck">
<ellipse fill="none" stroke="#000000" cx="117.64" cy="-90" rx="66.8882" ry="18"/>
<text text-anchor="middle" x="117.64" y="-86.3" font-family="FreeSans" font-size="14.00" fill="#000000">X::TypeCheck</text>
</a>
</g>
</g>
<!-- X::TypeCheck::Assignment&#45;&gt;X::TypeCheck -->
<g id="edge1" class="edge"><title>X::TypeCheck::Assignment&#45;&gt;X::TypeCheck</title>
<path fill="none" stroke="#000000" d="M117.64,-36.3034C117.64,-44.0173 117.64,-53.2875 117.64,-61.8876"/>
<polygon fill="#000000" stroke="#000000" points="114.14,-61.8956 117.64,-71.8957 121.14,-61.8957 114.14,-61.8956"/>
</g>
<!-- Mu -->
<g id="node2" class="node"><title>Mu</title>
<g id="a_node2"><a xlink:href="/type/Mu" xlink:title="Mu">
<ellipse fill="none" stroke="#000000" cx="117.64" cy="-306" rx="27" ry="18"/>
<text text-anchor="middle" x="117.64" y="-302.3" font-family="FreeSans" font-size="14.00" fill="#000000">Mu</text>
</a>
</g>
</g>
<!-- Any -->
<g id="node3" class="node"><title>Any</title>
<g id="a_node3"><a xlink:href="/type/Any" xlink:title="Any">
<ellipse fill="none" stroke="#000000" cx="117.64" cy="-234" rx="27" ry="18"/>
<text text-anchor="middle" x="117.64" y="-230.3" font-family="FreeSans" font-size="14.00" fill="#000000">Any</text>
</a>
</g>
</g>
<!-- Any&#45;&gt;Mu -->
<g id="edge2" class="edge"><title>Any&#45;&gt;Mu</title>
<path fill="none" stroke="#000000" d="M117.64,-252.303C117.64,-260.017 117.64,-269.288 117.64,-277.888"/>
<polygon fill="#000000" stroke="#000000" points="114.14,-277.896 117.64,-287.896 121.14,-277.896 114.14,-277.896"/>
</g>
<!-- Exception -->
<g id="node4" class="node"><title>Exception</title>
<g id="a_node4"><a xlink:href="/type/Exception" xlink:title="Exception">
<ellipse fill="none" stroke="#000000" cx="117.64" cy="-162" rx="49.2915" ry="18"/>
<text text-anchor="middle" x="117.64" y="-158.3" font-family="FreeSans" font-size="14.00" fill="#000000">Exception</text>
</a>
</g>
</g>
<!-- Exception&#45;&gt;Any -->
<g id="edge3" class="edge"><title>Exception&#45;&gt;Any</title>
<path fill="none" stroke="#000000" d="M117.64,-180.303C117.64,-188.017 117.64,-197.288 117.64,-205.888"/>
<polygon fill="#000000" stroke="#000000" points="114.14,-205.896 117.64,-215.896 121.14,-205.896 114.14,-205.896"/>
</g>
<!-- X::TypeCheck&#45;&gt;Exception -->
<g id="edge4" class="edge"><title>X::TypeCheck&#45;&gt;Exception</title>
<path fill="none" stroke="#000000" d="M117.64,-108.303C117.64,-116.017 117.64,-125.288 117.64,-133.888"/>
<polygon fill="#000000" stroke="#000000" points="114.14,-133.896 117.64,-143.896 121.14,-133.896 114.14,-133.896"/>
</g>
</g>
</svg>
