<?xml version="1.0" encoding="UTF-8" standalone="no"?>
<!DOCTYPE svg PUBLIC "-//W3C//DTD SVG 1.1//EN"
 "http://www.w3.org/Graphics/SVG/1.1/DTD/svg11.dtd">
<!-- Generated by graphviz version 2.38.0 (20140413.2041)
 -->
<!-- Title: perl6&#45;type&#45;graph Pages: 1 -->
<svg width="655pt" height="332pt"
 viewBox="0.00 0.00 655.44 332.00" xmlns="http://www.w3.org/2000/svg" xmlns:xlink="http://www.w3.org/1999/xlink">
<g id="graph0" class="graph" transform="scale(1 1) rotate(0) translate(4 328)">
<title>perl6&#45;type&#45;graph</title>
<polygon fill="white" stroke="none" points="-4,4 -4,-328 651.445,-328 651.445,4 -4,4"/>
<!-- Int -->
<g id="node1" class="node"><title>Int</title>
<g id="a_node1"><a xlink:href="/type/Int" xlink:title="Int">
<ellipse fill="none" stroke="#000000" cx="360.597" cy="-90" rx="27" ry="18"/>
<text text-anchor="middle" x="360.597" y="-86.3" font-family="FreeSans" font-size="14.00" fill="#000000">Int</text>
</a>
</g>
</g>
<!-- Cool -->
<g id="node4" class="node"><title>Cool</title>
<g id="a_node4"><a xlink:href="/type/Cool" xlink:title="Cool">
<ellipse fill="none" stroke="#000000" cx="472.597" cy="-162" rx="28.6953" ry="18"/>
<text text-anchor="middle" x="472.597" y="-158.3" font-family="FreeSans" font-size="14.00" fill="#000000">Cool</text>
</a>
</g>
</g>
<!-- Int&#45;&gt;Cool -->
<g id="edge1" class="edge"><title>Int&#45;&gt;Cool</title>
<path fill="none" stroke="#000000" d="M379.597,-102.875C397.32,-113.951 423.993,-130.622 444.235,-143.274"/>
<polygon fill="#000000" stroke="#000000" points="442.414,-146.263 452.749,-148.595 446.124,-140.327 442.414,-146.263"/>
</g>
<!-- Real -->
<g id="node6" class="node"><title>Real</title>
<g id="a_node6"><a xlink:href="/type/Real" xlink:title="Real">
<ellipse fill="none" stroke="#6666ff" cx="360.597" cy="-162" rx="28.6953" ry="18"/>
<text text-anchor="middle" x="360.597" y="-158.3" font-family="FreeSans" font-size="14.00" fill="#6666ff">Real</text>
</a>
</g>
</g>
<!-- Int&#45;&gt;Real -->
<g id="edge13" class="edge"><title>Int&#45;&gt;Real</title>
<path fill="none" stroke="#6666ff" d="M360.597,-108.303C360.597,-116.017 360.597,-125.288 360.597,-133.888"/>
<polygon fill="#6666ff" stroke="#6666ff" points="357.098,-133.896 360.597,-143.896 364.098,-133.896 357.098,-133.896"/>
</g>
<!-- Mu -->
<g id="node2" class="node"><title>Mu</title>
<g id="a_node2"><a xlink:href="/type/Mu" xlink:title="Mu">
<ellipse fill="none" stroke="#000000" cx="472.597" cy="-306" rx="27" ry="18"/>
<text text-anchor="middle" x="472.597" y="-302.3" font-family="FreeSans" font-size="14.00" fill="#000000">Mu</text>
</a>
</g>
</g>
<!-- Any -->
<g id="node3" class="node"><title>Any</title>
<g id="a_node3"><a xlink:href="/type/Any" xlink:title="Any">
<ellipse fill="none" stroke="#000000" cx="472.597" cy="-234" rx="27" ry="18"/>
<text text-anchor="middle" x="472.597" y="-230.3" font-family="FreeSans" font-size="14.00" fill="#000000">Any</text>
</a>
</g>
</g>
<!-- Any&#45;&gt;Mu -->
<g id="edge2" class="edge"><title>Any&#45;&gt;Mu</title>
<path fill="none" stroke="#000000" d="M472.597,-252.303C472.597,-260.017 472.597,-269.288 472.597,-277.888"/>
<polygon fill="#000000" stroke="#000000" points="469.098,-277.896 472.597,-287.896 476.098,-277.896 469.098,-277.896"/>
</g>
<!-- Cool&#45;&gt;Any -->
<g id="edge3" class="edge"><title>Cool&#45;&gt;Any</title>
<path fill="none" stroke="#000000" d="M472.597,-180.303C472.597,-188.017 472.597,-197.288 472.597,-205.888"/>
<polygon fill="#000000" stroke="#000000" points="469.098,-205.896 472.597,-215.896 476.098,-205.896 469.098,-205.896"/>
</g>
<!-- Numeric -->
<g id="node5" class="node"><title>Numeric</title>
<g id="a_node5"><a xlink:href="/type/Numeric" xlink:title="Numeric">
<ellipse fill="none" stroke="#6666ff" cx="360.597" cy="-234" rx="44.393" ry="18"/>
<text text-anchor="middle" x="360.597" y="-230.3" font-family="FreeSans" font-size="14.00" fill="#6666ff">Numeric</text>
</a>
</g>
</g>
<!-- Real&#45;&gt;Numeric -->
<g id="edge14" class="edge"><title>Real&#45;&gt;Numeric</title>
<path fill="none" stroke="#6666ff" d="M360.597,-180.303C360.597,-188.017 360.597,-197.288 360.597,-205.888"/>
<polygon fill="#6666ff" stroke="#6666ff" points="357.098,-205.896 360.597,-215.896 364.098,-205.896 357.098,-205.896"/>
</g>
<!-- Bool -->
<g id="node7" class="node"><title>Bool</title>
<g id="a_node7"><a xlink:href="/type/Bool" xlink:title="Bool">
<ellipse fill="none" stroke="#33bb33" cx="28.5975" cy="-18" rx="28.6953" ry="18"/>
<text text-anchor="middle" x="28.5975" y="-14.3" font-family="FreeSans" font-size="14.00" fill="#33bb33">Bool</text>
</a>
</g>
</g>
<!-- Bool&#45;&gt;Int -->
<g id="edge4" class="edge"><title>Bool&#45;&gt;Int</title>
<path fill="none" stroke="#000000" d="M50.9741,-29.2811C58.7661,-32.8613 65.5975,-36 65.5975,-36 65.5975,-36 246.549,-68.5099 325.011,-82.6065"/>
<polygon fill="#000000" stroke="#000000" points="324.473,-86.0658 334.934,-84.3893 325.711,-79.1761 324.473,-86.0658"/>
</g>
<!-- Order -->
<g id="node8" class="node"><title>Order</title>
<g id="a_node8"><a xlink:href="/type/Order" xlink:title="Order">
<ellipse fill="none" stroke="#33bb33" cx="108.597" cy="-18" rx="33.5952" ry="18"/>
<text text-anchor="middle" x="108.597" y="-14.3" font-family="FreeSans" font-size="14.00" fill="#33bb33">Order</text>
</a>
</g>
</g>
<!-- Order&#45;&gt;Int -->
<g id="edge5" class="edge"><title>Order&#45;&gt;Int</title>
<path fill="none" stroke="#000000" d="M134.958,-29.6698C143.397,-33.0854 150.597,-36 150.597,-36 150.597,-36 266.284,-65.197 325.928,-80.25"/>
<polygon fill="#000000" stroke="#000000" points="325.131,-83.6585 335.683,-82.7121 326.844,-76.8713 325.131,-83.6585"/>
</g>
<!-- PromiseStatus -->
<g id="node9" class="node"><title>PromiseStatus</title>
<g id="a_node9"><a xlink:href="/type/PromiseStatus" xlink:title="PromiseStatus">
<ellipse fill="none" stroke="#33bb33" cx="227.597" cy="-18" rx="67.6881" ry="18"/>
<text text-anchor="middle" x="227.597" y="-14.3" font-family="FreeSans" font-size="14.00" fill="#33bb33">PromiseStatus</text>
</a>
</g>
</g>
<!-- PromiseStatus&#45;&gt;Int -->
<g id="edge6" class="edge"><title>PromiseStatus&#45;&gt;Int</title>
<path fill="none" stroke="#000000" d="M256.785,-34.3618C278.865,-45.9827 309.058,-61.874 331.191,-73.523"/>
<polygon fill="#000000" stroke="#000000" points="329.657,-76.6705 340.136,-78.2308 332.917,-70.4761 329.657,-76.6705"/>
</g>
<!-- Signal -->
<g id="node10" class="node"><title>Signal</title>
<g id="a_node10"><a xlink:href="/type/Signal" xlink:title="Signal">
<ellipse fill="none" stroke="#33bb33" cx="348.597" cy="-18" rx="35.194" ry="18"/>
<text text-anchor="middle" x="348.597" y="-14.3" font-family="FreeSans" font-size="14.00" fill="#33bb33">Signal</text>
</a>
</g>
</g>
<!-- Signal&#45;&gt;Int -->
<g id="edge7" class="edge"><title>Signal&#45;&gt;Int</title>
<path fill="none" stroke="#000000" d="M351.502,-35.945C352.824,-43.6544 354.421,-52.9731 355.906,-61.6358"/>
<polygon fill="#000000" stroke="#000000" points="352.497,-62.4599 357.636,-71.7247 359.396,-61.2771 352.497,-62.4599"/>
</g>
<!-- int -->
<g id="node11" class="node"><title>int</title>
<g id="a_node11"><a xlink:href="/type/int" xlink:title="int">
<ellipse fill="none" stroke="#000000" cx="428.597" cy="-18" rx="27" ry="18"/>
<text text-anchor="middle" x="428.597" y="-14.3" font-family="FreeSans" font-size="14.00" fill="#000000">int</text>
</a>
</g>
</g>
<!-- int&#45;&gt;Int -->
<g id="edge8" class="edge"><title>int&#45;&gt;Int</title>
<path fill="none" stroke="#000000" d="M414.508,-33.504C405.026,-43.2652 392.353,-56.3103 381.677,-67.3001"/>
<polygon fill="#000000" stroke="#000000" points="379.126,-64.903 374.669,-74.5145 384.147,-69.7805 379.126,-64.903"/>
</g>
<!-- Stringy -->
<g id="node12" class="node"><title>Stringy</title>
<g id="a_node12"><a xlink:href="/type/Stringy" xlink:title="Stringy">
<ellipse fill="none" stroke="#6666ff" cx="603.597" cy="-162" rx="38.1938" ry="18"/>
<text text-anchor="middle" x="603.597" y="-158.3" font-family="FreeSans" font-size="14.00" fill="#6666ff">Stringy</text>
</a>
</g>
</g>
<!-- Str -->
<g id="node13" class="node"><title>Str</title>
<g id="a_node13"><a xlink:href="/type/Str" xlink:title="Str">
<ellipse fill="none" stroke="#000000" cx="603.597" cy="-90" rx="27" ry="18"/>
<text text-anchor="middle" x="603.597" y="-86.3" font-family="FreeSans" font-size="14.00" fill="#000000">Str</text>
</a>
</g>
</g>
<!-- Str&#45;&gt;Cool -->
<g id="edge9" class="edge"><title>Str&#45;&gt;Cool</title>
<path fill="none" stroke="#000000" d="M583.129,-101.938C561.561,-113.462 527.369,-131.733 502.723,-144.902"/>
<polygon fill="#000000" stroke="#000000" points="500.961,-141.876 493.79,-149.675 504.26,-148.05 500.961,-141.876"/>
</g>
<!-- Str&#45;&gt;Stringy -->
<g id="edge15" class="edge"><title>Str&#45;&gt;Stringy</title>
<path fill="none" stroke="#6666ff" d="M603.597,-108.303C603.597,-116.017 603.597,-125.288 603.597,-133.888"/>
<polygon fill="#6666ff" stroke="#6666ff" points="600.098,-133.896 603.597,-143.896 607.098,-133.896 600.098,-133.896"/>
</g>
<!-- IntStr -->
<g id="node14" class="node"><title>IntStr</title>
<g id="a_node14"><a xlink:href="/type/IntStr" xlink:title="IntStr">
<ellipse fill="none" stroke="#000000" cx="615.597" cy="-18" rx="31.6951" ry="18"/>
<text text-anchor="middle" x="615.597" y="-14.3" font-family="FreeSans" font-size="14.00" fill="#000000">IntStr</text>
</a>
</g>
</g>
<!-- IntStr&#45;&gt;Int -->
<g id="edge10" class="edge"><title>IntStr&#45;&gt;Int</title>
<path fill="none" stroke="#000000" d="M590.332,-29.476C581.895,-32.9744 574.597,-36 574.597,-36 574.597,-36 456.12,-65.3425 395.475,-80.3621"/>
<polygon fill="#000000" stroke="#000000" points="394.43,-77.0151 385.565,-82.8165 396.113,-83.8098 394.43,-77.0151"/>
</g>
<!-- IntStr&#45;&gt;Str -->
<g id="edge11" class="edge"><title>IntStr&#45;&gt;Str</title>
<path fill="none" stroke="#000000" d="M612.693,-35.945C611.371,-43.6544 609.774,-52.9731 608.288,-61.6358"/>
<polygon fill="#000000" stroke="#000000" points="604.799,-61.2771 606.559,-71.7247 611.698,-62.4599 604.799,-61.2771"/>
</g>
<!-- atomicint -->
<g id="node15" class="node"><title>atomicint</title>
<g id="a_node15"><a xlink:href="/type/atomicint" xlink:title="atomicint">
<ellipse fill="none" stroke="#000000" cx="519.597" cy="-18" rx="46.2923" ry="18"/>
<text text-anchor="middle" x="519.597" y="-14.3" font-family="FreeSans" font-size="14.00" fill="#000000">atomicint</text>
</a>
</g>
</g>
<!-- atomicint&#45;&gt;Int -->
<g id="edge12" class="edge"><title>atomicint&#45;&gt;Int</title>
<path fill="none" stroke="#000000" d="M490.063,-32.0024C462.267,-44.2397 420.766,-62.5105 392.288,-75.0484"/>
<polygon fill="#000000" stroke="#000000" points="390.543,-71.9921 382.801,-79.2248 393.364,-78.3987 390.543,-71.9921"/>
</g>
</g>
</svg>
