<?xml version="1.0" encoding="UTF-8" standalone="no"?>
<!DOCTYPE svg PUBLIC "-//W3C//DTD SVG 1.1//EN"
 "http://www.w3.org/Graphics/SVG/1.1/DTD/svg11.dtd">
<!-- Generated by graphviz version 2.38.0 (20140413.2041)
 -->
<!-- Title: perl6&#45;type&#45;graph Pages: 1 -->
<svg width="210pt" height="404pt"
 viewBox="0.00 0.00 209.94 404.00" xmlns="http://www.w3.org/2000/svg" xmlns:xlink="http://www.w3.org/1999/xlink">
<g id="graph0" class="graph" transform="scale(1 1) rotate(0) translate(4 400)">
<title>perl6&#45;type&#45;graph</title>
<polygon fill="white" stroke="none" points="-4,4 -4,-400 205.942,-400 205.942,4 -4,4"/>
<!-- X::IO::Mkdir -->
<g id="node1" class="node"><title>X::IO::Mkdir</title>
<g id="a_node1"><a xlink:href="/type/X::IO::Mkdir" xlink:title="X::IO::Mkdir">
<ellipse fill="none" stroke="#000000" cx="58.4948" cy="-18" rx="58.4896" ry="18"/>
<text text-anchor="middle" x="58.4948" y="-14.3" font-family="FreeSans" font-size="14.00" fill="#000000">X::IO::Mkdir</text>
</a>
</g>
</g>
<!-- Exception -->
<g id="node4" class="node"><title>Exception</title>
<g id="a_node4"><a xlink:href="/type/Exception" xlink:title="Exception">
<ellipse fill="none" stroke="#000000" cx="81.4948" cy="-234" rx="49.2915" ry="18"/>
<text text-anchor="middle" x="81.4948" y="-230.3" font-family="FreeSans" font-size="14.00" fill="#000000">Exception</text>
</a>
</g>
</g>
<!-- X::IO::Mkdir&#45;&gt;Exception -->
<g id="edge1" class="edge"><title>X::IO::Mkdir&#45;&gt;Exception</title>
<path fill="none" stroke="#000000" d="M56.4606,-36.1508C56.9053,-73.3384 66.1364,-161.626 73.9668,-206.228"/>
<polygon fill="#000000" stroke="#000000" points="70.5287,-206.884 75.8178,-216.065 77.408,-205.59 70.5287,-206.884"/>
</g>
<!-- X::IO::Mkdir&#45;&gt;Exception -->
<g id="edge2" class="edge"><title>X::IO::Mkdir&#45;&gt;Exception</title>
<path fill="none" stroke="#000000" d="M64.2156,-36.1508C71.73,-73.1683 81.422,-160.819 83.2436,-205.614"/>
<polygon fill="#000000" stroke="#000000" points="79.7493,-205.87 83.528,-215.768 86.7465,-205.673 79.7493,-205.87"/>
</g>
<!-- X::IO -->
<g id="node6" class="node"><title>X::IO</title>
<g id="a_node6"><a xlink:href="/type/X::IO" xlink:title="X::IO">
<ellipse fill="none" stroke="#6666ff" cx="126.495" cy="-90" rx="31.3957" ry="18"/>
<text text-anchor="middle" x="126.495" y="-86.3" font-family="FreeSans" font-size="14.00" fill="#6666ff">X::IO</text>
</a>
</g>
</g>
<!-- X::IO::Mkdir&#45;&gt;X::IO -->
<g id="edge7" class="edge"><title>X::IO::Mkdir&#45;&gt;X::IO</title>
<path fill="none" stroke="#6666ff" d="M74.6099,-35.589C83.6233,-44.8676 94.9812,-56.5595 104.771,-66.6369"/>
<polygon fill="#6666ff" stroke="#6666ff" points="102.408,-69.2277 111.886,-73.9618 107.429,-64.3502 102.408,-69.2277"/>
</g>
<!-- Mu -->
<g id="node2" class="node"><title>Mu</title>
<g id="a_node2"><a xlink:href="/type/Mu" xlink:title="Mu">
<ellipse fill="none" stroke="#000000" cx="81.4948" cy="-378" rx="27" ry="18"/>
<text text-anchor="middle" x="81.4948" y="-374.3" font-family="FreeSans" font-size="14.00" fill="#000000">Mu</text>
</a>
</g>
</g>
<!-- Any -->
<g id="node3" class="node"><title>Any</title>
<g id="a_node3"><a xlink:href="/type/Any" xlink:title="Any">
<ellipse fill="none" stroke="#000000" cx="81.4948" cy="-306" rx="27" ry="18"/>
<text text-anchor="middle" x="81.4948" y="-302.3" font-family="FreeSans" font-size="14.00" fill="#000000">Any</text>
</a>
</g>
</g>
<!-- Any&#45;&gt;Mu -->
<g id="edge3" class="edge"><title>Any&#45;&gt;Mu</title>
<path fill="none" stroke="#000000" d="M81.4948,-324.303C81.4948,-332.017 81.4948,-341.288 81.4948,-349.888"/>
<polygon fill="#000000" stroke="#000000" points="77.9949,-349.896 81.4948,-359.896 84.9949,-349.896 77.9949,-349.896"/>
</g>
<!-- Exception&#45;&gt;Any -->
<g id="edge4" class="edge"><title>Exception&#45;&gt;Any</title>
<path fill="none" stroke="#000000" d="M81.4948,-252.303C81.4948,-260.017 81.4948,-269.288 81.4948,-277.888"/>
<polygon fill="#000000" stroke="#000000" points="77.9949,-277.896 81.4948,-287.896 84.9949,-277.896 77.9949,-277.896"/>
</g>
<!-- X::OS -->
<g id="node5" class="node"><title>X::OS</title>
<g id="a_node5"><a xlink:href="/type/X::OS" xlink:title="X::OS">
<ellipse fill="none" stroke="#6666ff" cx="167.495" cy="-162" rx="34.394" ry="18"/>
<text text-anchor="middle" x="167.495" y="-158.3" font-family="FreeSans" font-size="14.00" fill="#6666ff">X::OS</text>
</a>
</g>
</g>
<!-- X::OS&#45;&gt;Exception -->
<g id="edge5" class="edge"><title>X::OS&#45;&gt;Exception</title>
<path fill="none" stroke="#000000" d="M149.676,-177.504C137.86,-187.121 122.128,-199.926 108.753,-210.813"/>
<polygon fill="#000000" stroke="#000000" points="106.333,-208.27 100.787,-217.297 110.752,-213.699 106.333,-208.27"/>
</g>
<!-- X::IO&#45;&gt;Exception -->
<g id="edge6" class="edge"><title>X::IO&#45;&gt;Exception</title>
<path fill="none" stroke="#000000" d="M121.156,-107.847C113.484,-132.056 99.2584,-176.946 90.0932,-205.867"/>
<polygon fill="#000000" stroke="#000000" points="86.6515,-205.142 86.967,-215.732 93.3245,-207.257 86.6515,-205.142"/>
</g>
<!-- X::IO&#45;&gt;X::OS -->
<g id="edge8" class="edge"><title>X::IO&#45;&gt;X::OS</title>
<path fill="none" stroke="#6666ff" d="M136.004,-107.235C140.952,-115.683 147.112,-126.201 152.669,-135.688"/>
<polygon fill="#6666ff" stroke="#6666ff" points="149.678,-137.507 157.752,-144.367 155.718,-133.969 149.678,-137.507"/>
</g>
</g>
</svg>
