<?xml version="1.0" encoding="UTF-8" standalone="no"?>
<!DOCTYPE svg PUBLIC "-//W3C//DTD SVG 1.1//EN"
 "http://www.w3.org/Graphics/SVG/1.1/DTD/svg11.dtd">
<!-- Generated by graphviz version 2.38.0 (20140413.2041)
 -->
<!-- Title: perl6&#45;type&#45;graph Pages: 1 -->
<svg width="192pt" height="260pt"
 viewBox="0.00 0.00 191.90 260.00" xmlns="http://www.w3.org/2000/svg" xmlns:xlink="http://www.w3.org/1999/xlink">
<g id="graph0" class="graph" transform="scale(1 1) rotate(0) translate(4 256)">
<title>perl6&#45;type&#45;graph</title>
<polygon fill="white" stroke="none" points="-4,4 -4,-256 187.895,-256 187.895,4 -4,4"/>
<!-- Set -->
<g id="node1" class="node"><title>Set</title>
<g id="a_node1"><a xlink:href="/type/Set" xlink:title="Set">
<ellipse fill="none" stroke="#000000" cx="80" cy="-18" rx="27" ry="18"/>
<text text-anchor="middle" x="80" y="-14.3" font-family="FreeSans" font-size="14.00" fill="#000000">Set</text>
</a>
</g>
</g>
<!-- Any -->
<g id="node3" class="node"><title>Any</title>
<g id="a_node3"><a xlink:href="/type/Any" xlink:title="Any">
<ellipse fill="none" stroke="#000000" cx="39" cy="-90" rx="27" ry="18"/>
<text text-anchor="middle" x="39" y="-86.3" font-family="FreeSans" font-size="14.00" fill="#000000">Any</text>
</a>
</g>
</g>
<!-- Set&#45;&gt;Any -->
<g id="edge1" class="edge"><title>Set&#45;&gt;Any</title>
<path fill="none" stroke="#000000" d="M70.4907,-35.2354C65.4712,-43.8052 59.2036,-54.506 53.5845,-64.0996"/>
<polygon fill="#000000" stroke="#000000" points="50.4917,-62.4549 48.4577,-72.8527 56.5319,-65.9928 50.4917,-62.4549"/>
</g>
<!-- Setty -->
<g id="node6" class="node"><title>Setty</title>
<g id="a_node6"><a xlink:href="/type/Setty" xlink:title="Setty">
<ellipse fill="none" stroke="#6666ff" cx="121" cy="-90" rx="30.5947" ry="18"/>
<text text-anchor="middle" x="121" y="-86.3" font-family="FreeSans" font-size="14.00" fill="#6666ff">Setty</text>
</a>
</g>
</g>
<!-- Set&#45;&gt;Setty -->
<g id="edge3" class="edge"><title>Set&#45;&gt;Setty</title>
<path fill="none" stroke="#6666ff" d="M89.5093,-35.2354C94.5288,-43.8052 100.796,-54.506 106.415,-64.0996"/>
<polygon fill="#6666ff" stroke="#6666ff" points="103.468,-65.9928 111.542,-72.8527 109.508,-62.4549 103.468,-65.9928"/>
</g>
<!-- Mu -->
<g id="node2" class="node"><title>Mu</title>
<g id="a_node2"><a xlink:href="/type/Mu" xlink:title="Mu">
<ellipse fill="none" stroke="#000000" cx="27" cy="-162" rx="27" ry="18"/>
<text text-anchor="middle" x="27" y="-158.3" font-family="FreeSans" font-size="14.00" fill="#000000">Mu</text>
</a>
</g>
</g>
<!-- Any&#45;&gt;Mu -->
<g id="edge2" class="edge"><title>Any&#45;&gt;Mu</title>
<path fill="none" stroke="#000000" d="M36.0951,-107.945C34.7735,-115.654 33.176,-124.973 31.691,-133.636"/>
<polygon fill="#000000" stroke="#000000" points="28.2015,-133.277 29.9615,-143.725 35.1009,-134.46 28.2015,-133.277"/>
</g>
<!-- Associative -->
<g id="node4" class="node"><title>Associative</title>
<g id="a_node4"><a xlink:href="/type/Associative" xlink:title="Associative">
<ellipse fill="none" stroke="#6666ff" cx="128" cy="-234" rx="55.4913" ry="18"/>
<text text-anchor="middle" x="128" y="-230.3" font-family="FreeSans" font-size="14.00" fill="#6666ff">Associative</text>
</a>
</g>
</g>
<!-- QuantHash -->
<g id="node5" class="node"><title>QuantHash</title>
<g id="a_node5"><a xlink:href="/type/QuantHash" xlink:title="QuantHash">
<ellipse fill="none" stroke="#6666ff" cx="128" cy="-162" rx="55.7903" ry="18"/>
<text text-anchor="middle" x="128" y="-158.3" font-family="FreeSans" font-size="14.00" fill="#6666ff">QuantHash</text>
</a>
</g>
</g>
<!-- QuantHash&#45;&gt;Associative -->
<g id="edge4" class="edge"><title>QuantHash&#45;&gt;Associative</title>
<path fill="none" stroke="#6666ff" d="M128,-180.303C128,-188.017 128,-197.288 128,-205.888"/>
<polygon fill="#6666ff" stroke="#6666ff" points="124.5,-205.896 128,-215.896 131.5,-205.896 124.5,-205.896"/>
</g>
<!-- Setty&#45;&gt;QuantHash -->
<g id="edge5" class="edge"><title>Setty&#45;&gt;QuantHash</title>
<path fill="none" stroke="#6666ff" d="M122.73,-108.303C123.502,-116.017 124.429,-125.288 125.289,-133.888"/>
<polygon fill="#6666ff" stroke="#6666ff" points="121.812,-134.294 126.29,-143.896 128.777,-133.597 121.812,-134.294"/>
</g>
</g>
</svg>
