<?xml version="1.0" encoding="UTF-8" standalone="no"?>
<!DOCTYPE svg PUBLIC "-//W3C//DTD SVG 1.1//EN"
 "http://www.w3.org/Graphics/SVG/1.1/DTD/svg11.dtd">
<!-- Generated by graphviz version 2.38.0 (20140413.2041)
 -->
<!-- Title: perl6&#45;type&#45;graph Pages: 1 -->
<svg width="1819pt" height="404pt"
 viewBox="0.00 0.00 1818.74 404.00" xmlns="http://www.w3.org/2000/svg" xmlns:xlink="http://www.w3.org/1999/xlink">
<g id="graph0" class="graph" transform="scale(1 1) rotate(0) translate(4 400)">
<title>perl6&#45;type&#45;graph</title>
<polygon fill="white" stroke="none" points="-4,4 -4,-400 1814.74,-400 1814.74,4 -4,4"/>
<!-- X::IO -->
<g id="node1" class="node"><title>X::IO</title>
<g id="a_node1"><a xlink:href="/type/X::IO" xlink:title="X::IO">
<ellipse fill="none" stroke="#6666ff" cx="912.446" cy="-90" rx="31.3957" ry="18"/>
<text text-anchor="middle" x="912.446" y="-86.3" font-family="FreeSans" font-size="14.00" fill="#6666ff">X::IO</text>
</a>
</g>
</g>
<!-- Exception -->
<g id="node4" class="node"><title>Exception</title>
<g id="a_node4"><a xlink:href="/type/Exception" xlink:title="Exception">
<ellipse fill="none" stroke="#000000" cx="989.446" cy="-234" rx="49.2915" ry="18"/>
<text text-anchor="middle" x="989.446" y="-230.3" font-family="FreeSans" font-size="14.00" fill="#000000">Exception</text>
</a>
</g>
</g>
<!-- X::IO&#45;&gt;Exception -->
<g id="edge1" class="edge"><title>X::IO&#45;&gt;Exception</title>
<path fill="none" stroke="#000000" d="M920.91,-107.74C933.945,-133.521 957.446,-180 957.446,-180 957.446,-180 965.857,-193.931 974.055,-207.509"/>
<polygon fill="#000000" stroke="#000000" points="971.156,-209.479 979.321,-216.23 977.148,-205.861 971.156,-209.479"/>
</g>
<!-- X::OS -->
<g id="node5" class="node"><title>X::OS</title>
<g id="a_node5"><a xlink:href="/type/X::OS" xlink:title="X::OS">
<ellipse fill="none" stroke="#6666ff" cx="871.446" cy="-162" rx="34.394" ry="18"/>
<text text-anchor="middle" x="871.446" y="-158.3" font-family="FreeSans" font-size="14.00" fill="#6666ff">X::OS</text>
</a>
</g>
</g>
<!-- X::IO&#45;&gt;X::OS -->
<g id="edge42" class="edge"><title>X::IO&#45;&gt;X::OS</title>
<path fill="none" stroke="#6666ff" d="M902.937,-107.235C897.989,-115.683 891.828,-126.201 886.272,-135.688"/>
<polygon fill="#6666ff" stroke="#6666ff" points="883.222,-133.969 881.188,-144.367 889.262,-137.507 883.222,-133.969"/>
</g>
<!-- Mu -->
<g id="node2" class="node"><title>Mu</title>
<g id="a_node2"><a xlink:href="/type/Mu" xlink:title="Mu">
<ellipse fill="none" stroke="#000000" cx="989.446" cy="-378" rx="27" ry="18"/>
<text text-anchor="middle" x="989.446" y="-374.3" font-family="FreeSans" font-size="14.00" fill="#000000">Mu</text>
</a>
</g>
</g>
<!-- Any -->
<g id="node3" class="node"><title>Any</title>
<g id="a_node3"><a xlink:href="/type/Any" xlink:title="Any">
<ellipse fill="none" stroke="#000000" cx="989.446" cy="-306" rx="27" ry="18"/>
<text text-anchor="middle" x="989.446" y="-302.3" font-family="FreeSans" font-size="14.00" fill="#000000">Any</text>
</a>
</g>
</g>
<!-- Any&#45;&gt;Mu -->
<g id="edge2" class="edge"><title>Any&#45;&gt;Mu</title>
<path fill="none" stroke="#000000" d="M989.446,-324.303C989.446,-332.017 989.446,-341.288 989.446,-349.888"/>
<polygon fill="#000000" stroke="#000000" points="985.946,-349.896 989.446,-359.896 992.946,-349.896 985.946,-349.896"/>
</g>
<!-- Exception&#45;&gt;Any -->
<g id="edge3" class="edge"><title>Exception&#45;&gt;Any</title>
<path fill="none" stroke="#000000" d="M989.446,-252.303C989.446,-260.017 989.446,-269.288 989.446,-277.888"/>
<polygon fill="#000000" stroke="#000000" points="985.946,-277.896 989.446,-287.896 992.946,-277.896 985.946,-277.896"/>
</g>
<!-- X::OS&#45;&gt;Exception -->
<g id="edge4" class="edge"><title>X::OS&#45;&gt;Exception</title>
<path fill="none" stroke="#000000" d="M893.364,-176.002C910.935,-186.426 935.884,-201.226 955.955,-213.133"/>
<polygon fill="#000000" stroke="#000000" points="954.404,-216.282 964.79,-218.374 957.975,-210.261 954.404,-216.282"/>
</g>
<!-- X::IO::Dir -->
<g id="node6" class="node"><title>X::IO::Dir</title>
<g id="a_node6"><a xlink:href="/type/X::IO::Dir" xlink:title="X::IO::Dir">
<ellipse fill="none" stroke="#000000" cx="47.4458" cy="-18" rx="47.3916" ry="18"/>
<text text-anchor="middle" x="47.4458" y="-14.3" font-family="FreeSans" font-size="14.00" fill="#000000">X::IO::Dir</text>
</a>
</g>
</g>
<!-- X::IO::Dir&#45;&gt;X::IO -->
<g id="edge43" class="edge"><title>X::IO::Dir&#45;&gt;X::IO</title>
<path fill="none" stroke="#6666ff" d="M83.2285,-29.8626C94.2036,-33.1943 103.446,-36 103.446,-36 103.446,-36 705.811,-75.4627 870.991,-86.2842"/>
<polygon fill="#6666ff" stroke="#6666ff" points="871.02,-89.7935 881.228,-86.9548 871.478,-82.8085 871.02,-89.7935"/>
</g>
<!-- X::IO::Dir&#45;&gt;Exception -->
<g id="edge5" class="edge"><title>X::IO::Dir&#45;&gt;Exception</title>
<path fill="none" stroke="#000000" d="M79.5394,-31.3661C183.98,-69.0662 506.446,-180 506.446,-180 506.446,-180 804.504,-213.327 932.401,-227.126"/>
<polygon fill="#000000" stroke="#000000" points="932.091,-230.613 942.408,-228.203 932.84,-223.653 932.091,-230.613"/>
</g>
<!-- X::IO::Dir&#45;&gt;Exception -->
<g id="edge6" class="edge"><title>X::IO::Dir&#45;&gt;Exception</title>
<path fill="none" stroke="#000000" d="M83.282,-30.0662C194.348,-66.4407 524.446,-180 524.446,-180 524.446,-180 809.205,-211.84 933.107,-226.163"/>
<polygon fill="#000000" stroke="#000000" points="932.829,-229.654 943.165,-227.328 933.635,-222.7 932.829,-229.654"/>
</g>
<!-- X::IO::Copy -->
<g id="node7" class="node"><title>X::IO::Copy</title>
<g id="a_node7"><a xlink:href="/type/X::IO::Copy" xlink:title="X::IO::Copy">
<ellipse fill="none" stroke="#000000" cx="169.446" cy="-18" rx="56.59" ry="18"/>
<text text-anchor="middle" x="169.446" y="-14.3" font-family="FreeSans" font-size="14.00" fill="#000000">X::IO::Copy</text>
</a>
</g>
</g>
<!-- X::IO::Copy&#45;&gt;X::IO -->
<g id="edge44" class="edge"><title>X::IO::Copy&#45;&gt;X::IO</title>
<path fill="none" stroke="#6666ff" d="M211.712,-30.0542C224.127,-33.3012 234.446,-36 234.446,-36 234.446,-36 724.101,-74.2769 871.167,-85.7732"/>
<polygon fill="#6666ff" stroke="#6666ff" points="871.309,-89.2949 881.552,-86.585 871.855,-82.3162 871.309,-89.2949"/>
</g>
<!-- X::IO::Copy&#45;&gt;Exception -->
<g id="edge7" class="edge"><title>X::IO::Copy&#45;&gt;Exception</title>
<path fill="none" stroke="#000000" d="M203.073,-32.588C305.612,-71.403 606.446,-180 606.446,-180 606.446,-180 827.148,-211.276 933.551,-225.776"/>
<polygon fill="#000000" stroke="#000000" points="933.1,-229.247 943.48,-227.126 934.042,-222.311 933.1,-229.247"/>
</g>
<!-- X::IO::Copy&#45;&gt;Exception -->
<g id="edge8" class="edge"><title>X::IO::Copy&#45;&gt;Exception</title>
<path fill="none" stroke="#000000" d="M207.555,-31.3661C317.139,-69.0662 624.446,-180 624.446,-180 624.446,-180 833.037,-209.56 934.913,-224.528"/>
<polygon fill="#000000" stroke="#000000" points="934.616,-228.022 945.019,-226.017 935.636,-221.097 934.616,-228.022"/>
</g>
<!-- X::IO::Rename -->
<g id="node8" class="node"><title>X::IO::Rename</title>
<g id="a_node8"><a xlink:href="/type/X::IO::Rename" xlink:title="X::IO::Rename">
<ellipse fill="none" stroke="#000000" cx="313.446" cy="-18" rx="69.5877" ry="18"/>
<text text-anchor="middle" x="313.446" y="-14.3" font-family="FreeSans" font-size="14.00" fill="#000000">X::IO::Rename</text>
</a>
</g>
</g>
<!-- X::IO::Rename&#45;&gt;X::IO -->
<g id="edge45" class="edge"><title>X::IO::Rename&#45;&gt;X::IO</title>
<path fill="none" stroke="#6666ff" d="M365.258,-30.1496C380.149,-33.3539 392.446,-36 392.446,-36 392.446,-36 749.29,-72.3706 871.762,-84.8534"/>
<polygon fill="#6666ff" stroke="#6666ff" points="871.555,-88.3504 881.859,-85.8825 872.265,-81.3864 871.555,-88.3504"/>
</g>
<!-- X::IO::Rename&#45;&gt;Exception -->
<g id="edge9" class="edge"><title>X::IO::Rename&#45;&gt;Exception</title>
<path fill="none" stroke="#000000" d="M342.357,-34.4374C430.454,-74.7344 685.446,-180 685.446,-180 685.446,-180 846.156,-209.782 934.217,-224.696"/>
<polygon fill="#000000" stroke="#000000" points="933.879,-228.188 944.321,-226.395 935.04,-221.285 933.879,-228.188"/>
</g>
<!-- X::IO::Rename&#45;&gt;Exception -->
<g id="edge10" class="edge"><title>X::IO::Rename&#45;&gt;Exception</title>
<path fill="none" stroke="#000000" d="M348.744,-33.5716C444.746,-73.2032 703.446,-180 703.446,-180 703.446,-180 853.633,-207.832 936.338,-223.158"/>
<polygon fill="#000000" stroke="#000000" points="935.849,-226.627 946.319,-225.008 937.124,-219.744 935.849,-226.627"/>
</g>
<!-- X::IO::Rename&#45;&gt;Exception -->
<g id="edge11" class="edge"><title>X::IO::Rename&#45;&gt;Exception</title>
<path fill="none" stroke="#000000" d="M354.389,-32.588C458.385,-71.403 721.446,-180 721.446,-180 721.446,-180 860.845,-205.833 938.876,-221.428"/>
<polygon fill="#000000" stroke="#000000" points="938.503,-224.923 948.997,-223.463 939.883,-218.06 938.503,-224.923"/>
</g>
<!-- X::IO::Unlink -->
<g id="node9" class="node"><title>X::IO::Unlink</title>
<g id="a_node9"><a xlink:href="/type/X::IO::Unlink" xlink:title="X::IO::Unlink">
<ellipse fill="none" stroke="#000000" cx="462.446" cy="-18" rx="61.1893" ry="18"/>
<text text-anchor="middle" x="462.446" y="-14.3" font-family="FreeSans" font-size="14.00" fill="#000000">X::IO::Unlink</text>
</a>
</g>
</g>
<!-- X::IO::Unlink&#45;&gt;X::IO -->
<g id="edge46" class="edge"><title>X::IO::Unlink&#45;&gt;X::IO</title>
<path fill="none" stroke="#6666ff" d="M507.963,-30.0542C521.333,-33.3012 532.446,-36 532.446,-36 532.446,-36 774.473,-69.7564 872.219,-83.3894"/>
<polygon fill="#6666ff" stroke="#6666ff" points="871.923,-86.8819 882.31,-84.7969 872.89,-79.949 871.923,-86.8819"/>
</g>
<!-- X::IO::Unlink&#45;&gt;Exception -->
<g id="edge12" class="edge"><title>X::IO::Unlink&#45;&gt;Exception</title>
<path fill="none" stroke="#000000" d="M484.881,-35.0259C554.419,-75.749 756.446,-180 756.446,-180 756.446,-180 867.459,-207.366 936.622,-222.769"/>
<polygon fill="#000000" stroke="#000000" points="935.986,-226.213 946.505,-224.95 937.494,-219.377 935.986,-226.213"/>
</g>
<!-- X::IO::Unlink&#45;&gt;Exception -->
<g id="edge13" class="edge"><title>X::IO::Unlink&#45;&gt;Exception</title>
<path fill="none" stroke="#000000" d="M491.518,-34.0019C568.972,-73.9702 774.446,-180 774.446,-180 774.446,-180 876.434,-205.141 939.923,-220.792"/>
<polygon fill="#000000" stroke="#000000" points="939.214,-224.222 949.761,-223.217 940.889,-217.425 939.214,-224.222"/>
</g>
<!-- X::IO::Unlink&#45;&gt;Exception -->
<g id="edge14" class="edge"><title>X::IO::Unlink&#45;&gt;Exception</title>
<path fill="none" stroke="#000000" d="M497.416,-32.8661C582.997,-71.9189 792.446,-180 792.446,-180 792.446,-180 885.854,-203.026 944.379,-218.724"/>
<polygon fill="#000000" stroke="#000000" points="943.594,-222.137 954.161,-221.369 945.421,-215.38 943.594,-222.137"/>
</g>
<!-- X::IO::DoesNotExist -->
<g id="node10" class="node"><title>X::IO::DoesNotExist</title>
<g id="a_node10"><a xlink:href="/type/X::IO::DoesNotExist" xlink:title="X::IO::DoesNotExist">
<ellipse fill="none" stroke="#000000" cx="631.446" cy="-18" rx="89.8845" ry="18"/>
<text text-anchor="middle" x="631.446" y="-14.3" font-family="FreeSans" font-size="14.00" fill="#000000">X::IO::DoesNotExist</text>
</a>
</g>
</g>
<!-- X::IO::DoesNotExist&#45;&gt;X::IO -->
<g id="edge47" class="edge"><title>X::IO::DoesNotExist&#45;&gt;X::IO</title>
<path fill="none" stroke="#6666ff" d="M685.293,-32.4139C740.787,-46.2381 825.872,-67.4336 874.625,-79.5785"/>
<polygon fill="#6666ff" stroke="#6666ff" points="873.904,-83.0057 884.453,-82.0268 875.596,-76.2133 873.904,-83.0057"/>
</g>
<!-- X::IO::DoesNotExist&#45;&gt;Exception -->
<g id="edge15" class="edge"><title>X::IO::DoesNotExist&#45;&gt;Exception</title>
<path fill="none" stroke="#000000" d="M642.28,-35.9255C681.116,-77.2617 800.446,-180 800.446,-180 800.446,-180 882.516,-205.437 938.928,-221.067"/>
<polygon fill="#000000" stroke="#000000" points="938.219,-224.501 948.789,-223.768 940.069,-217.75 938.219,-224.501"/>
</g>
<!-- X::IO::DoesNotExist&#45;&gt;Exception -->
<g id="edge16" class="edge"><title>X::IO::DoesNotExist&#45;&gt;Exception</title>
<path fill="none" stroke="#000000" d="M650.754,-35.6234C698.532,-76.7587 818.446,-180 818.446,-180 818.446,-180 892.748,-203.029 943.396,-218.727"/>
<polygon fill="#000000" stroke="#000000" points="942.593,-222.143 953.181,-221.76 944.666,-215.456 942.593,-222.143"/>
</g>
<!-- X::IO::DoesNotExist&#45;&gt;Exception -->
<g id="edge17" class="edge"><title>X::IO::DoesNotExist&#45;&gt;Exception</title>
<path fill="none" stroke="#000000" d="M659.095,-35.3235C715.946,-76.2544 836.446,-180 836.446,-180 836.446,-180 903.445,-200.766 949.153,-216.301"/>
<polygon fill="#000000" stroke="#000000" points="948.241,-219.688 958.836,-219.626 950.515,-213.068 948.241,-219.688"/>
</g>
<!-- X::IO::Chdir -->
<g id="node11" class="node"><title>X::IO::Chdir</title>
<g id="a_node11"><a xlink:href="/type/X::IO::Chdir" xlink:title="X::IO::Chdir">
<ellipse fill="none" stroke="#000000" cx="796.446" cy="-18" rx="57.3905" ry="18"/>
<text text-anchor="middle" x="796.446" y="-14.3" font-family="FreeSans" font-size="14.00" fill="#000000">X::IO::Chdir</text>
</a>
</g>
</g>
<!-- X::IO::Chdir&#45;&gt;X::IO -->
<g id="edge48" class="edge"><title>X::IO::Chdir&#45;&gt;X::IO</title>
<path fill="none" stroke="#6666ff" d="M821.616,-34.189C839.597,-45.0394 863.854,-59.6775 882.778,-71.0968"/>
<polygon fill="#6666ff" stroke="#6666ff" points="881.218,-74.2434 891.588,-76.4134 884.834,-68.2501 881.218,-74.2434"/>
</g>
<!-- X::IO::Chdir&#45;&gt;Exception -->
<g id="edge18" class="edge"><title>X::IO::Chdir&#45;&gt;Exception</title>
<path fill="none" stroke="#000000" d="M790.985,-35.9255C790.026,-77.2617 810.446,-180 810.446,-180 810.446,-180 886.174,-204.929 939.564,-220.593"/>
<polygon fill="#000000" stroke="#000000" points="938.67,-223.978 949.25,-223.402 940.62,-217.255 938.67,-223.978"/>
</g>
<!-- X::IO::Chdir&#45;&gt;Exception -->
<g id="edge19" class="edge"><title>X::IO::Chdir&#45;&gt;Exception</title>
<path fill="none" stroke="#000000" d="M799.87,-36.2298C808.125,-77.7634 828.446,-180 828.446,-180 828.446,-180 896.956,-202.553 944.594,-218.235"/>
<polygon fill="#000000" stroke="#000000" points="943.521,-221.566 954.114,-221.369 945.71,-214.917 943.521,-221.566"/>
</g>
<!-- X::IO::Chdir&#45;&gt;Exception -->
<g id="edge20" class="edge"><title>X::IO::Chdir&#45;&gt;Exception</title>
<path fill="none" stroke="#000000" d="M808.507,-35.6234C825.926,-76.7587 846.446,-180 846.446,-180 846.446,-180 908.274,-200.353 951.017,-215.834"/>
<polygon fill="#000000" stroke="#000000" points="950.026,-219.199 960.62,-219.351 952.433,-212.626 950.026,-219.199"/>
</g>
<!-- X::IO::Move -->
<g id="node12" class="node"><title>X::IO::Move</title>
<g id="a_node12"><a xlink:href="/type/X::IO::Move" xlink:title="X::IO::Move">
<ellipse fill="none" stroke="#000000" cx="929.446" cy="-18" rx="57.6901" ry="18"/>
<text text-anchor="middle" x="929.446" y="-14.3" font-family="FreeSans" font-size="14.00" fill="#000000">X::IO::Move</text>
</a>
</g>
</g>
<!-- X::IO::Move&#45;&gt;X::IO -->
<g id="edge49" class="edge"><title>X::IO::Move&#45;&gt;X::IO</title>
<path fill="none" stroke="#6666ff" d="M925.244,-36.3034C923.35,-44.1021 921.069,-53.4915 918.961,-62.1708"/>
<polygon fill="#6666ff" stroke="#6666ff" points="915.559,-61.3521 916.6,-71.8957 922.361,-63.0041 915.559,-61.3521"/>
</g>
<!-- X::IO::Move&#45;&gt;Exception -->
<g id="edge21" class="edge"><title>X::IO::Move&#45;&gt;Exception</title>
<path fill="none" stroke="#000000" d="M923.162,-36.0613C925.573,-51.5549 934.446,-72 934.446,-72 934.446,-72 955.039,-161.609 972.973,-207.123"/>
<polygon fill="#000000" stroke="#000000" points="969.763,-208.518 976.869,-216.377 976.214,-205.802 969.763,-208.518"/>
</g>
<!-- X::IO::Move&#45;&gt;Exception -->
<g id="edge22" class="edge"><title>X::IO::Move&#45;&gt;Exception</title>
<path fill="none" stroke="#000000" d="M936.85,-36.0613C943.573,-51.5549 952.446,-72 952.446,-72 952.446,-72 972.668,-159.994 983.212,-205.876"/>
<polygon fill="#000000" stroke="#000000" points="979.835,-206.808 985.486,-215.77 986.657,-205.24 979.835,-206.808"/>
</g>
<!-- X::IO::Move&#45;&gt;Exception -->
<g id="edge23" class="edge"><title>X::IO::Move&#45;&gt;Exception</title>
<path fill="none" stroke="#000000" d="M949.7,-34.9017C961.121,-50.5132 970.446,-72 970.446,-72 970.446,-72 990.682,-160.054 993.943,-205.923"/>
<polygon fill="#000000" stroke="#000000" points="990.453,-206.235 994.381,-216.074 997.446,-205.933 990.453,-206.235"/>
</g>
<!-- X::IO::Cwd -->
<g id="node13" class="node"><title>X::IO::Cwd</title>
<g id="a_node13"><a xlink:href="/type/X::IO::Cwd" xlink:title="X::IO::Cwd">
<ellipse fill="none" stroke="#000000" cx="1059.45" cy="-18" rx="53.8905" ry="18"/>
<text text-anchor="middle" x="1059.45" y="-14.3" font-family="FreeSans" font-size="14.00" fill="#000000">X::IO::Cwd</text>
</a>
</g>
</g>
<!-- X::IO::Cwd&#45;&gt;X::IO -->
<g id="edge50" class="edge"><title>X::IO::Cwd&#45;&gt;X::IO</title>
<path fill="none" stroke="#6666ff" d="M1029.7,-33.1655C1005.15,-44.8555 970.362,-61.4208 945.058,-73.4704"/>
<polygon fill="#6666ff" stroke="#6666ff" points="943.389,-70.3884 935.865,-77.8478 946.399,-76.7085 943.389,-70.3884"/>
</g>
<!-- X::IO::Cwd&#45;&gt;Exception -->
<g id="edge24" class="edge"><title>X::IO::Cwd&#45;&gt;Exception</title>
<path fill="none" stroke="#000000" d="M1046.27,-35.7922C1027.02,-72.736 997.496,-161.329 988.924,-206.113"/>
<polygon fill="#000000" stroke="#000000" points="985.469,-205.551 987.282,-215.99 992.374,-206.699 985.469,-205.551"/>
</g>
<!-- X::IO::Cwd&#45;&gt;Exception -->
<g id="edge25" class="edge"><title>X::IO::Cwd&#45;&gt;Exception</title>
<path fill="none" stroke="#000000" d="M1053.84,-36.1508C1041.65,-73.4168 1012.67,-161.998 998.111,-206.51"/>
<polygon fill="#000000" stroke="#000000" points="994.768,-205.472 994.985,-216.065 1001.42,-207.648 994.768,-205.472"/>
</g>
<!-- X::IO::Cwd&#45;&gt;Exception -->
<g id="edge26" class="edge"><title>X::IO::Cwd&#45;&gt;Exception</title>
<path fill="none" stroke="#000000" d="M1061.59,-36.1508C1056.5,-73.5875 1027.79,-162.811 1007.09,-207.119"/>
<polygon fill="#000000" stroke="#000000" points="1003.82,-205.841 1002.55,-216.359 1010.1,-208.931 1003.82,-205.841"/>
</g>
<!-- X::IO::Rmdir -->
<g id="node14" class="node"><title>X::IO::Rmdir</title>
<g id="a_node14"><a xlink:href="/type/X::IO::Rmdir" xlink:title="X::IO::Rmdir">
<ellipse fill="none" stroke="#000000" cx="1191.45" cy="-18" rx="59.5901" ry="18"/>
<text text-anchor="middle" x="1191.45" y="-14.3" font-family="FreeSans" font-size="14.00" fill="#000000">X::IO::Rmdir</text>
</a>
</g>
</g>
<!-- X::IO::Rmdir&#45;&gt;X::IO -->
<g id="edge51" class="edge"><title>X::IO::Rmdir&#45;&gt;X::IO</title>
<path fill="none" stroke="#6666ff" d="M1146.93,-30.1691C1092.67,-43.7832 1001.89,-66.5583 950.659,-79.4125"/>
<polygon fill="#6666ff" stroke="#6666ff" points="949.506,-76.0933 940.658,-81.9217 951.209,-82.8829 949.506,-76.0933"/>
</g>
<!-- X::IO::Rmdir&#45;&gt;Exception -->
<g id="edge27" class="edge"><title>X::IO::Rmdir&#45;&gt;Exception</title>
<path fill="none" stroke="#000000" d="M1168.63,-34.7305C1122.44,-75.2423 1027.45,-180 1027.45,-180 1027.45,-180 1012.35,-194.287 1000.35,-208.025"/>
<polygon fill="#000000" stroke="#000000" points="997.479,-206.008 993.785,-215.939 1002.87,-210.479 997.479,-206.008"/>
</g>
<!-- X::IO::Rmdir&#45;&gt;Exception -->
<g id="edge28" class="edge"><title>X::IO::Rmdir&#45;&gt;Exception</title>
<path fill="none" stroke="#000000" d="M1176.37,-35.6234C1139.07,-76.7587 1045.45,-180 1045.45,-180 1045.45,-180 1029.18,-195.391 1014.19,-209.585"/>
<polygon fill="#000000" stroke="#000000" points="1011.41,-207.394 1006.55,-216.81 1016.22,-212.478 1011.41,-207.394"/>
</g>
<!-- X::IO::Rmdir&#45;&gt;Exception -->
<g id="edge29" class="edge"><title>X::IO::Rmdir&#45;&gt;Exception</title>
<path fill="none" stroke="#000000" d="M1184.92,-35.9255C1156.61,-77.2617 1063.45,-180 1063.45,-180 1063.45,-180 1044.76,-197.684 1025.51,-212.623"/>
<polygon fill="#000000" stroke="#000000" points="1023.17,-209.997 1017.27,-218.797 1027.37,-215.597 1023.17,-209.997"/>
</g>
<!-- X::IO::Mkdir -->
<g id="node15" class="node"><title>X::IO::Mkdir</title>
<g id="a_node15"><a xlink:href="/type/X::IO::Mkdir" xlink:title="X::IO::Mkdir">
<ellipse fill="none" stroke="#000000" cx="1327.45" cy="-18" rx="58.4896" ry="18"/>
<text text-anchor="middle" x="1327.45" y="-14.3" font-family="FreeSans" font-size="14.00" fill="#000000">X::IO::Mkdir</text>
</a>
</g>
</g>
<!-- X::IO::Mkdir&#45;&gt;X::IO -->
<g id="edge52" class="edge"><title>X::IO::Mkdir&#45;&gt;X::IO</title>
<path fill="none" stroke="#6666ff" d="M1283.88,-30.0542C1271.08,-33.3012 1260.45,-36 1260.45,-36 1260.45,-36 1043.85,-68.9878 952.412,-82.9133"/>
<polygon fill="#6666ff" stroke="#6666ff" points="951.776,-79.4696 942.417,-84.4354 952.83,-86.3898 951.776,-79.4696"/>
</g>
<!-- X::IO::Mkdir&#45;&gt;Exception -->
<g id="edge30" class="edge"><title>X::IO::Mkdir&#45;&gt;Exception</title>
<path fill="none" stroke="#000000" d="M1297.99,-33.5716C1230.67,-73.2032 1075.45,-180 1075.45,-180 1075.45,-180 1041.71,-197.193 1015.99,-211.995"/>
<polygon fill="#000000" stroke="#000000" points="1014.15,-209.017 1007.3,-217.098 1017.69,-215.054 1014.15,-209.017"/>
</g>
<!-- X::IO::Mkdir&#45;&gt;Exception -->
<g id="edge31" class="edge"><title>X::IO::Mkdir&#45;&gt;Exception</title>
<path fill="none" stroke="#000000" d="M1304.58,-34.7305C1245.7,-75.2423 1093.45,-180 1093.45,-180 1093.45,-180 1056,-199.082 1026.05,-214.347"/>
<polygon fill="#000000" stroke="#000000" points="1024.36,-211.277 1017.04,-218.936 1027.54,-217.514 1024.36,-211.277"/>
</g>
<!-- X::IO::Mkdir&#45;&gt;Exception -->
<g id="edge32" class="edge"><title>X::IO::Mkdir&#45;&gt;Exception</title>
<path fill="none" stroke="#000000" d="M1312.04,-35.6234C1261.5,-76.7587 1111.45,-180 1111.45,-180 1111.45,-180 1069.08,-201.592 1033.74,-217.213"/>
<polygon fill="#000000" stroke="#000000" points="1032.25,-214.044 1024.48,-221.238 1035.04,-220.465 1032.25,-214.044"/>
</g>
<!-- X::IO::Chmod -->
<g id="node16" class="node"><title>X::IO::Chmod</title>
<g id="a_node16"><a xlink:href="/type/X::IO::Chmod" xlink:title="X::IO::Chmod">
<ellipse fill="none" stroke="#000000" cx="1468.45" cy="-18" rx="64.189" ry="18"/>
<text text-anchor="middle" x="1468.45" y="-14.3" font-family="FreeSans" font-size="14.00" fill="#000000">X::IO::Chmod</text>
</a>
</g>
</g>
<!-- X::IO::Chmod&#45;&gt;X::IO -->
<g id="edge53" class="edge"><title>X::IO::Chmod&#45;&gt;X::IO</title>
<path fill="none" stroke="#6666ff" d="M1420.33,-30.0542C1406.19,-33.3012 1394.45,-36 1394.45,-36 1394.45,-36 1069.52,-71.7283 953.228,-84.5157"/>
<polygon fill="#6666ff" stroke="#6666ff" points="952.52,-81.0723 942.963,-85.6444 953.285,-88.0304 952.52,-81.0723"/>
</g>
<!-- X::IO::Chmod&#45;&gt;Exception -->
<g id="edge33" class="edge"><title>X::IO::Chmod&#45;&gt;Exception</title>
<path fill="none" stroke="#000000" d="M1432.73,-33.006C1345.74,-72.1764 1133.45,-180 1133.45,-180 1133.45,-180 1070.97,-200.439 1027.93,-215.932"/>
<polygon fill="#000000" stroke="#000000" points="1026.73,-212.643 1018.53,-219.351 1029.12,-219.221 1026.73,-212.643"/>
</g>
<!-- X::IO::Chmod&#45;&gt;Exception -->
<g id="edge34" class="edge"><title>X::IO::Chmod&#45;&gt;Exception</title>
<path fill="none" stroke="#000000" d="M1438.91,-34.0019C1360.21,-73.9702 1151.45,-180 1151.45,-180 1151.45,-180 1082.51,-202.553 1034.58,-218.235"/>
<polygon fill="#000000" stroke="#000000" points="1033.41,-214.933 1025,-221.369 1035.59,-221.586 1033.41,-214.933"/>
</g>
<!-- X::IO::Chmod&#45;&gt;Exception -->
<g id="edge35" class="edge"><title>X::IO::Chmod&#45;&gt;Exception</title>
<path fill="none" stroke="#000000" d="M1445.77,-34.8779C1375.21,-75.4958 1169.45,-180 1169.45,-180 1169.45,-180 1093.25,-204.929 1039.56,-220.593"/>
<polygon fill="#000000" stroke="#000000" points="1038.46,-217.268 1029.82,-223.402 1040.4,-223.994 1038.46,-217.268"/>
</g>
<!-- X::IO::Symlink -->
<g id="node17" class="node"><title>X::IO::Symlink</title>
<g id="a_node17"><a xlink:href="/type/X::IO::Symlink" xlink:title="X::IO::Symlink">
<ellipse fill="none" stroke="#000000" cx="1618.45" cy="-18" rx="67.6881" ry="18"/>
<text text-anchor="middle" x="1618.45" y="-14.3" font-family="FreeSans" font-size="14.00" fill="#000000">X::IO::Symlink</text>
</a>
</g>
</g>
<!-- X::IO::Symlink&#45;&gt;X::IO -->
<g id="edge54" class="edge"><title>X::IO::Symlink&#45;&gt;X::IO</title>
<path fill="none" stroke="#6666ff" d="M1567.94,-30.1496C1553.43,-33.3539 1541.45,-36 1541.45,-36 1541.45,-36 1093.16,-73.7733 953.484,-85.5421"/>
<polygon fill="#6666ff" stroke="#6666ff" points="952.88,-82.0805 943.21,-86.4078 953.468,-89.0557 952.88,-82.0805"/>
</g>
<!-- X::IO::Symlink&#45;&gt;Exception -->
<g id="edge36" class="edge"><title>X::IO::Symlink&#45;&gt;Exception</title>
<path fill="none" stroke="#000000" d="M1577.41,-32.3123C1471.54,-70.8858 1200.45,-180 1200.45,-180 1200.45,-180 1098.58,-203.577 1036.06,-219.281"/>
<polygon fill="#000000" stroke="#000000" points="1034.85,-215.978 1026.01,-221.825 1036.57,-222.764 1034.85,-215.978"/>
</g>
<!-- X::IO::Symlink&#45;&gt;Exception -->
<g id="edge37" class="edge"><title>X::IO::Symlink&#45;&gt;Exception</title>
<path fill="none" stroke="#000000" d="M1582.6,-33.4294C1484.42,-72.947 1218.45,-180 1218.45,-180 1218.45,-180 1107.3,-205.723 1039.88,-221.328"/>
<polygon fill="#000000" stroke="#000000" points="1038.81,-217.982 1029.86,-223.647 1040.39,-224.802 1038.81,-217.982"/>
</g>
<!-- X::IO::Symlink&#45;&gt;Exception -->
<g id="edge38" class="edge"><title>X::IO::Symlink&#45;&gt;Exception</title>
<path fill="none" stroke="#000000" d="M1588.9,-34.2916C1498.61,-74.4799 1236.45,-180 1236.45,-180 1236.45,-180 1115.87,-207.907 1042.82,-223.22"/>
<polygon fill="#000000" stroke="#000000" points="1041.93,-219.832 1032.85,-225.293 1043.35,-226.685 1041.93,-219.832"/>
</g>
<!-- X::IO::Link -->
<g id="node18" class="node"><title>X::IO::Link</title>
<g id="a_node18"><a xlink:href="/type/X::IO::Link" xlink:title="X::IO::Link">
<ellipse fill="none" stroke="#000000" cx="1757.45" cy="-18" rx="53.0913" ry="18"/>
<text text-anchor="middle" x="1757.45" y="-14.3" font-family="FreeSans" font-size="14.00" fill="#000000">X::IO::Link</text>
</a>
</g>
</g>
<!-- X::IO::Link&#45;&gt;X::IO -->
<g id="edge55" class="edge"><title>X::IO::Link&#45;&gt;X::IO</title>
<path fill="none" stroke="#6666ff" d="M1717.48,-29.9586C1705.48,-33.248 1695.45,-36 1695.45,-36 1695.45,-36 1115.02,-75.2881 953.637,-86.2118"/>
<polygon fill="#6666ff" stroke="#6666ff" points="953.364,-82.7222 943.624,-86.8896 953.837,-89.7062 953.364,-82.7222"/>
</g>
<!-- X::IO::Link&#45;&gt;Exception -->
<g id="edge39" class="edge"><title>X::IO::Link&#45;&gt;Exception</title>
<path fill="none" stroke="#000000" d="M1717.88,-30.1934C1602.26,-66.7046 1276.45,-180 1276.45,-180 1276.45,-180 1123.65,-206.551 1040.74,-222.068"/>
<polygon fill="#000000" stroke="#000000" points="1039.93,-218.66 1030.75,-223.949 1041.22,-225.539 1039.93,-218.66"/>
</g>
<!-- X::IO::Link&#45;&gt;Exception -->
<g id="edge40" class="edge"><title>X::IO::Link&#45;&gt;Exception</title>
<path fill="none" stroke="#000000" d="M1721.5,-31.4994C1612.72,-69.3271 1294.45,-180 1294.45,-180 1294.45,-180 1130.7,-208.454 1043.17,-223.664"/>
<polygon fill="#000000" stroke="#000000" points="1042.4,-220.246 1033.14,-225.406 1043.6,-227.143 1042.4,-220.246"/>
</g>
<!-- X::IO::Link&#45;&gt;Exception -->
<g id="edge41" class="edge"><title>X::IO::Link&#45;&gt;Exception</title>
<path fill="none" stroke="#000000" d="M1726.03,-32.7268C1624,-71.6611 1312.45,-180 1312.45,-180 1312.45,-180 1137.76,-210.354 1044.99,-225.12"/>
<polygon fill="#000000" stroke="#000000" points="1044.25,-221.694 1034.92,-226.712 1045.34,-228.608 1044.25,-221.694"/>
</g>
</g>
</svg>
