<?xml version="1.0" encoding="UTF-8" standalone="no"?>
<!DOCTYPE svg PUBLIC "-//W3C//DTD SVG 1.1//EN"
 "http://www.w3.org/Graphics/SVG/1.1/DTD/svg11.dtd">
<!-- Generated by graphviz version 2.38.0 (20140413.2041)
 -->
<!-- Title: perl6&#45;type&#45;graph Pages: 1 -->
<svg width="2157pt" height="1486pt"
 viewBox="0.00 0.00 2156.54 1485.60" xmlns="http://www.w3.org/2000/svg" xmlns:xlink="http://www.w3.org/1999/xlink">
<g id="graph0" class="graph" transform="scale(1 1) rotate(0) translate(1056.19 708.658)">
<title>perl6&#45;type&#45;graph</title>
<polygon fill="white" stroke="none" points="-1056.19,776.945 -1056.19,-708.658 1100.35,-708.658 1100.35,776.945 -1056.19,776.945"/>
<!-- Metamodel::Stashing -->
<g id="node1" class="node"><title>Metamodel::Stashing</title>
<g id="a_node1"><a xlink:href="/type/Metamodel::Stashing" xlink:title="Metamodel::Stashing">
<ellipse fill="none" stroke="#6666ff" cx="-258.258" cy="145.918" rx="93.6835" ry="18"/>
<text text-anchor="middle" x="-258.258" y="149.618" font-family="FreeSans" font-size="14.00" fill="#6666ff">Metamodel::Stashing</text>
</a>
</g>
</g>
<!-- Mu -->
<g id="node2" class="node"><title>Mu</title>
<g id="a_node2"><a xlink:href="/type/Mu" xlink:title="Mu">
<ellipse fill="none" stroke="#000000" cx="966.965" cy="253.161" rx="27" ry="18"/>
<text text-anchor="middle" x="966.965" y="256.861" font-family="FreeSans" font-size="14.00" fill="#000000">Mu</text>
</a>
</g>
</g>
<!-- Any -->
<g id="node3" class="node"><title>Any</title>
<g id="a_node3"><a xlink:href="/type/Any" xlink:title="Any">
<ellipse fill="none" stroke="#000000" cx="161.752" cy="430.972" rx="27" ry="18"/>
<text text-anchor="middle" x="161.752" y="434.672" font-family="FreeSans" font-size="14.00" fill="#000000">Any</text>
</a>
</g>
</g>
<!-- Any&#45;&gt;Mu -->
<g id="edge1" class="edge"><title>Any&#45;&gt;Mu</title>
<path fill="none" stroke="#000000" d="M187.631,425.257C305.821,399.158 794.411,291.265 931.219,261.055"/>
<polygon fill="#000000" stroke="#000000" points="930.663,257.593 941.182,258.854 932.172,264.428 930.663,257.593"/>
</g>
<!-- Metamodel::Naming -->
<g id="node4" class="node"><title>Metamodel::Naming</title>
<g id="a_node4"><a xlink:href="/type/Metamodel::Naming" xlink:title="Metamodel::Naming">
<ellipse fill="none" stroke="#6666ff" cx="-170.402" cy="419.197" rx="90.1842" ry="18"/>
<text text-anchor="middle" x="-170.402" y="422.897" font-family="FreeSans" font-size="14.00" fill="#6666ff">Metamodel::Naming</text>
</a>
</g>
</g>
<!-- Metamodel::Documenting -->
<g id="node5" class="node"><title>Metamodel::Documenting</title>
<g id="a_node5"><a xlink:href="/type/Metamodel::Documenting" xlink:title="Metamodel::Documenting">
<ellipse fill="none" stroke="#6666ff" cx="-516.935" cy="362.746" rx="111.28" ry="18"/>
<text text-anchor="middle" x="-516.935" y="366.446" font-family="FreeSans" font-size="14.00" fill="#6666ff">Metamodel::Documenting</text>
</a>
</g>
</g>
<!-- Metamodel::TypePretense -->
<g id="node6" class="node"><title>Metamodel::TypePretense</title>
<g id="a_node6"><a xlink:href="/type/Metamodel::TypePretense" xlink:title="Metamodel::TypePretense">
<ellipse fill="none" stroke="#6666ff" cx="396.54" cy="750.561" rx="114.28" ry="18"/>
<text text-anchor="middle" x="396.54" y="754.261" font-family="FreeSans" font-size="14.00" fill="#6666ff">Metamodel::TypePretense</text>
</a>
</g>
</g>
<!-- Metamodel::MethodDelegation -->
<g id="node7" class="node"><title>Metamodel::MethodDelegation</title>
<g id="a_node7"><a xlink:href="/type/Metamodel::MethodDelegation" xlink:title="Metamodel::MethodDelegation">
<ellipse fill="none" stroke="#6666ff" cx="-907.661" cy="698.85" rx="131.077" ry="18"/>
<text text-anchor="middle" x="-907.661" y="702.55" font-family="FreeSans" font-size="14.00" fill="#6666ff">Metamodel::MethodDelegation</text>
</a>
</g>
</g>
<!-- Metamodel::PackageHOW -->
<g id="node8" class="node"><title>Metamodel::PackageHOW</title>
<g id="a_node8"><a xlink:href="/type/Metamodel::PackageHOW" xlink:title="Metamodel::PackageHOW">
<ellipse fill="none" stroke="#000000" cx="-9.33736" cy="754.945" rx="116.18" ry="18"/>
<text text-anchor="middle" x="-9.33736" y="758.645" font-family="FreeSans" font-size="14.00" fill="#000000">Metamodel::PackageHOW</text>
</a>
</g>
</g>
<!-- Metamodel::PackageHOW&#45;&gt;Metamodel::Stashing -->
<g id="edge11" class="edge"><title>Metamodel::PackageHOW&#45;&gt;Metamodel::Stashing</title>
<path fill="none" stroke="#6666ff" d="M-13.0538,736.886C-27.4119,667.119 -78.4626,419.059 -78.4626,419.059 -78.4626,419.059 -195.698,240.958 -240.835,172.387"/>
<polygon fill="#6666ff" stroke="#6666ff" points="-243.886,174.117 -246.461,163.84 -238.04,170.268 -243.886,174.117"/>
</g>
<!-- Metamodel::PackageHOW&#45;&gt;Any -->
<g id="edge2" class="edge"><title>Metamodel::PackageHOW&#45;&gt;Any</title>
<path fill="none" stroke="#000000" d="M0.351341,736.598C29.129,682.105 114.183,521.047 147.827,457.34"/>
<polygon fill="#000000" stroke="#000000" points="144.823,455.534 152.587,448.326 151.012,458.803 144.823,455.534"/>
</g>
<!-- Metamodel::PackageHOW&#45;&gt;Metamodel::Naming -->
<g id="edge9" class="edge"><title>Metamodel::PackageHOW&#45;&gt;Metamodel::Naming</title>
<path fill="none" stroke="#6666ff" d="M-17.9969,736.893C-44.5975,681.443 -125.25,513.319 -157.181,446.756"/>
<polygon fill="#6666ff" stroke="#6666ff" points="-160.53,447.867 -161.7,437.337 -154.219,444.84 -160.53,447.867"/>
</g>
<!-- Metamodel::PackageHOW&#45;&gt;Metamodel::Documenting -->
<g id="edge10" class="edge"><title>Metamodel::PackageHOW&#45;&gt;Metamodel::Documenting</title>
<path fill="none" stroke="#6666ff" d="M-32.4668,737.073C-114.645,673.578 -392.601,458.814 -486.017,386.635"/>
<polygon fill="#6666ff" stroke="#6666ff" points="-488.188,389.381 -493.961,380.498 -483.908,383.842 -488.188,389.381"/>
</g>
<!-- Metamodel::PackageHOW&#45;&gt;Metamodel::TypePretense -->
<g id="edge12" class="edge"><title>Metamodel::PackageHOW&#45;&gt;Metamodel::TypePretense</title>
<path fill="none" stroke="#6666ff" d="M106.971,753.688C158.687,753.13 219.643,752.472 272.255,751.903"/>
<polygon fill="#6666ff" stroke="#6666ff" points="272.281,748.403 282.318,751.795 272.357,755.403 272.281,748.403"/>
</g>
<!-- Metamodel::PackageHOW&#45;&gt;Metamodel::MethodDelegation -->
<g id="edge13" class="edge"><title>Metamodel::PackageHOW&#45;&gt;Metamodel::MethodDelegation</title>
<path fill="none" stroke="#6666ff" d="M-112.762,746.582C-206.228,739.024 -329.249,729.077 -329.249,729.077 -329.249,729.077 -409.089,723.388 -409.089,723.388 -409.089,723.388 -626.036,712.71 -773.712,705.442"/>
<polygon fill="#6666ff" stroke="#6666ff" points="-773.962,708.934 -783.778,704.947 -773.618,701.943 -773.962,708.934"/>
</g>
<!-- Metamodel::Versioning -->
<g id="node9" class="node"><title>Metamodel::Versioning</title>
<g id="a_node9"><a xlink:href="/type/Metamodel::Versioning" xlink:title="Metamodel::Versioning">
<ellipse fill="none" stroke="#6666ff" cx="-951.445" cy="239.417" rx="100.983" ry="18"/>
<text text-anchor="middle" x="-951.445" y="243.117" font-family="FreeSans" font-size="14.00" fill="#6666ff">Metamodel::Versioning</text>
</a>
</g>
</g>
<!-- Metamodel::AttributeContainer -->
<g id="node10" class="node"><title>Metamodel::AttributeContainer</title>
<g id="a_node10"><a xlink:href="/type/Metamodel::AttributeContainer" xlink:title="Metamodel::AttributeContainer">
<ellipse fill="none" stroke="#6666ff" cx="966.365" cy="-166.611" rx="129.977" ry="18"/>
<text text-anchor="middle" x="966.365" y="-162.911" font-family="FreeSans" font-size="14.00" fill="#6666ff">Metamodel::AttributeContainer</text>
</a>
</g>
</g>
<!-- Metamodel::Finalization -->
<g id="node11" class="node"><title>Metamodel::Finalization</title>
<g id="a_node11"><a xlink:href="/type/Metamodel::Finalization" xlink:title="Metamodel::Finalization">
<ellipse fill="none" stroke="#6666ff" cx="-943.15" cy="-166.026" rx="103.982" ry="18"/>
<text text-anchor="middle" x="-943.15" y="-162.326" font-family="FreeSans" font-size="14.00" fill="#6666ff">Metamodel::Finalization</text>
</a>
</g>
</g>
<!-- Metamodel::MethodContainer -->
<g id="node12" class="node"><title>Metamodel::MethodContainer</title>
<g id="a_node12"><a xlink:href="/type/Metamodel::MethodContainer" xlink:title="Metamodel::MethodContainer">
<ellipse fill="none" stroke="#6666ff" cx="-285.839" cy="-115.923" rx="127.277" ry="18"/>
<text text-anchor="middle" x="-285.839" y="-112.223" font-family="FreeSans" font-size="14.00" fill="#6666ff">Metamodel::MethodContainer</text>
</a>
</g>
</g>
<!-- Metamodel::PrivateMethodContainer -->
<g id="node13" class="node"><title>Metamodel::PrivateMethodContainer</title>
<g id="a_node13"><a xlink:href="/type/Metamodel::PrivateMethodContainer" xlink:title="Metamodel::PrivateMethodContainer">
<ellipse fill="none" stroke="#6666ff" cx="367.075" cy="-101.175" rx="154.873" ry="18"/>
<text text-anchor="middle" x="367.075" y="-97.4748" font-family="FreeSans" font-size="14.00" fill="#6666ff">Metamodel::PrivateMethodContainer</text>
</a>
</g>
</g>
<!-- Metamodel::MultiMethodContainer -->
<g id="node14" class="node"><title>Metamodel::MultiMethodContainer</title>
<g id="a_node14"><a xlink:href="/type/Metamodel::MultiMethodContainer" xlink:title="Metamodel::MultiMethodContainer">
<ellipse fill="none" stroke="#6666ff" cx="558.954" cy="-313.003" rx="146.474" ry="18"/>
<text text-anchor="middle" x="558.954" y="-309.303" font-family="FreeSans" font-size="14.00" fill="#6666ff">Metamodel::MultiMethodContainer</text>
</a>
</g>
</g>
<!-- Metamodel::RoleContainer -->
<g id="node15" class="node"><title>Metamodel::RoleContainer</title>
<g id="a_node15"><a xlink:href="/type/Metamodel::RoleContainer" xlink:title="Metamodel::RoleContainer">
<ellipse fill="none" stroke="#6666ff" cx="196.365" cy="-333.991" rx="115.88" ry="18"/>
<text text-anchor="middle" x="196.365" y="-330.291" font-family="FreeSans" font-size="14.00" fill="#6666ff">Metamodel::RoleContainer</text>
</a>
</g>
</g>
<!-- Metamodel::MultipleInheritance -->
<g id="node16" class="node"><title>Metamodel::MultipleInheritance</title>
<g id="a_node16"><a xlink:href="/type/Metamodel::MultipleInheritance" xlink:title="Metamodel::MultipleInheritance">
<ellipse fill="none" stroke="#6666ff" cx="8.22195" cy="183.159" rx="133.776" ry="18"/>
<text text-anchor="middle" x="8.22195" y="186.859" font-family="FreeSans" font-size="14.00" fill="#6666ff">Metamodel::MultipleInheritance</text>
</a>
</g>
</g>
<!-- Metamodel::DefaultParent -->
<g id="node17" class="node"><title>Metamodel::DefaultParent</title>
<g id="a_node17"><a xlink:href="/type/Metamodel::DefaultParent" xlink:title="Metamodel::DefaultParent">
<ellipse fill="none" stroke="#6666ff" cx="457.3" cy="-686.651" rx="113.18" ry="18"/>
<text text-anchor="middle" x="457.3" y="-682.951" font-family="FreeSans" font-size="14.00" fill="#6666ff">Metamodel::DefaultParent</text>
</a>
</g>
</g>
<!-- Metamodel::C3MRO -->
<g id="node18" class="node"><title>Metamodel::C3MRO</title>
<g id="a_node18"><a xlink:href="/type/Metamodel::C3MRO" xlink:title="Metamodel::C3MRO">
<ellipse fill="none" stroke="#6666ff" cx="-505.787" cy="-685.191" rx="92.0841" ry="18"/>
<text text-anchor="middle" x="-505.787" y="-681.491" font-family="FreeSans" font-size="14.00" fill="#6666ff">Metamodel::C3MRO</text>
</a>
</g>
</g>
<!-- Metamodel::MROBasedMethodDispatch -->
<g id="node19" class="node"><title>Metamodel::MROBasedMethodDispatch</title>
<g id="a_node19"><a xlink:href="/type/Metamodel::MROBasedMethodDispatch" xlink:title="Metamodel::MROBasedMethodDispatch">
<ellipse fill="none" stroke="#6666ff" cx="-506.471" cy="-307.105" rx="169.77" ry="18"/>
<text text-anchor="middle" x="-506.471" y="-303.405" font-family="FreeSans" font-size="14.00" fill="#6666ff">Metamodel::MROBasedMethodDispatch</text>
</a>
</g>
</g>
<!-- Metamodel::MROBasedTypeChecking -->
<g id="node20" class="node"><title>Metamodel::MROBasedTypeChecking</title>
<g id="a_node20"><a xlink:href="/type/Metamodel::MROBasedTypeChecking" xlink:title="Metamodel::MROBasedTypeChecking">
<ellipse fill="none" stroke="#6666ff" cx="-123.327" cy="-348.309" rx="163.271" ry="18"/>
<text text-anchor="middle" x="-123.327" y="-344.609" font-family="FreeSans" font-size="14.00" fill="#6666ff">Metamodel::MROBasedTypeChecking</text>
</a>
</g>
</g>
<!-- Metamodel::Trusting -->
<g id="node21" class="node"><title>Metamodel::Trusting</title>
<g id="a_node21"><a xlink:href="/type/Metamodel::Trusting" xlink:title="Metamodel::Trusting">
<ellipse fill="none" stroke="#6666ff" cx="-938.495" cy="-628.872" rx="91.784" ry="18"/>
<text text-anchor="middle" x="-938.495" y="-625.172" font-family="FreeSans" font-size="14.00" fill="#6666ff">Metamodel::Trusting</text>
</a>
</g>
</g>
<!-- Metamodel::BUILDPLAN -->
<g id="node22" class="node"><title>Metamodel::BUILDPLAN</title>
<g id="a_node22"><a xlink:href="/type/Metamodel::BUILDPLAN" xlink:title="Metamodel::BUILDPLAN">
<ellipse fill="none" stroke="#6666ff" cx="113.157" cy="-686.658" rx="109.681" ry="18"/>
<text text-anchor="middle" x="113.157" y="-682.958" font-family="FreeSans" font-size="14.00" fill="#6666ff">Metamodel::BUILDPLAN</text>
</a>
</g>
</g>
<!-- Metamodel::Mixins -->
<g id="node23" class="node"><title>Metamodel::Mixins</title>
<g id="a_node23"><a xlink:href="/type/Metamodel::Mixins" xlink:title="Metamodel::Mixins">
<ellipse fill="none" stroke="#6666ff" cx="-187.826" cy="-683.65" rx="85.2851" ry="18"/>
<text text-anchor="middle" x="-187.826" y="-679.95" font-family="FreeSans" font-size="14.00" fill="#6666ff">Metamodel::Mixins</text>
</a>
</g>
</g>
<!-- Metamodel::BoolificationProtocol -->
<g id="node24" class="node"><title>Metamodel::BoolificationProtocol</title>
<g id="a_node24"><a xlink:href="/type/Metamodel::BoolificationProtocol" xlink:title="Metamodel::BoolificationProtocol">
<ellipse fill="none" stroke="#6666ff" cx="594.253" cy="57.9593" rx="139.175" ry="18"/>
<text text-anchor="middle" x="594.253" y="61.6593" font-family="FreeSans" font-size="14.00" fill="#6666ff">Metamodel::BoolificationProtocol</text>
</a>
</g>
</g>
<!-- Metamodel::ClassHOW -->
<g id="node25" class="node"><title>Metamodel::ClassHOW</title>
<g id="a_node25"><a xlink:href="/type/Metamodel::ClassHOW" xlink:title="Metamodel::ClassHOW">
<ellipse fill="none" stroke="#000000" cx="-47.5713" cy="-85.8743" rx="103.982" ry="18"/>
<text text-anchor="middle" x="-47.5713" y="-82.1743" font-family="FreeSans" font-size="14.00" fill="#000000">Metamodel::ClassHOW</text>
</a>
</g>
</g>
<!-- Metamodel::ClassHOW&#45;&gt;Metamodel::Stashing -->
<g id="edge17" class="edge"><title>Metamodel::ClassHOW&#45;&gt;Metamodel::Stashing</title>
<path fill="none" stroke="#6666ff" d="M-63.7537,-68.0708C-100.826,-27.2844 -192.015,73.0387 -235.054,120.39"/>
<polygon fill="#6666ff" stroke="#6666ff" points="-232.704,123.008 -242.021,128.054 -237.884,118.3 -232.704,123.008"/>
</g>
<!-- Metamodel::ClassHOW&#45;&gt;Any -->
<g id="edge3" class="edge"><title>Metamodel::ClassHOW&#45;&gt;Any</title>
<path fill="none" stroke="#000000" d="M-34.724,-67.8121C8.16322,-7.51657 143.708,183.047 143.708,183.047 143.708,183.047 154.969,337.779 159.699,402.765"/>
<polygon fill="#000000" stroke="#000000" points="163.19,402.514 160.425,412.741 156.208,403.022 163.19,402.514"/>
</g>
<!-- Metamodel::ClassHOW&#45;&gt;Metamodel::Naming -->
<g id="edge14" class="edge"><title>Metamodel::ClassHOW&#45;&gt;Metamodel::Naming</title>
<path fill="none" stroke="#6666ff" d="M-52.9239,-67.7971C-70.792,-7.45149 -127.264,183.27 -127.264,183.27 -127.264,183.27 -153.825,328.537 -165.264,391.093"/>
<polygon fill="#6666ff" stroke="#6666ff" points="-161.847,391.868 -167.089,401.076 -168.733,390.609 -161.847,391.868"/>
</g>
<!-- Metamodel::ClassHOW&#45;&gt;Metamodel::Documenting -->
<g id="edge15" class="edge"><title>Metamodel::ClassHOW&#45;&gt;Metamodel::Documenting</title>
<path fill="none" stroke="#6666ff" d="M-70.813,-68.2589C-142.194,-14.1575 -353.45,145.958 -353.45,145.958 -353.45,145.958 -453.455,278.569 -497.034,336.356"/>
<polygon fill="#6666ff" stroke="#6666ff" points="-494.462,338.759 -503.278,344.636 -500.051,334.544 -494.462,338.759"/>
</g>
<!-- Metamodel::ClassHOW&#45;&gt;Metamodel::Versioning -->
<g id="edge16" class="edge"><title>Metamodel::ClassHOW&#45;&gt;Metamodel::Versioning</title>
<path fill="none" stroke="#6666ff" d="M-92.7038,-69.6318C-243.96,-15.197 -732.659,160.679 -896.972,219.812"/>
<polygon fill="#6666ff" stroke="#6666ff" points="-895.805,223.112 -906.4,223.205 -898.176,216.526 -895.805,223.112"/>
</g>
<!-- Metamodel::ClassHOW&#45;&gt;Metamodel::AttributeContainer -->
<g id="edge18" class="edge"><title>Metamodel::ClassHOW&#45;&gt;Metamodel::AttributeContainer</title>
<path fill="none" stroke="#6666ff" d="M43.6146,-94.6151C133.136,-103.196 256.348,-115.007 256.348,-115.007 256.348,-115.007 637.07,-142.678 840.934,-157.495"/>
<polygon fill="#6666ff" stroke="#6666ff" points="840.877,-161 851.104,-158.234 841.384,-154.018 840.877,-161"/>
</g>
<!-- Metamodel::ClassHOW&#45;&gt;Metamodel::Finalization -->
<g id="edge19" class="edge"><title>Metamodel::ClassHOW&#45;&gt;Metamodel::Finalization</title>
<path fill="none" stroke="#6666ff" d="M-148.449,-90.3209C-212.97,-93.165 -284.629,-96.3236 -284.629,-96.3236 -284.629,-96.3236 -376.188,-101.934 -376.188,-101.934 -376.188,-101.934 -683.753,-136.703 -845.82,-155.024"/>
<polygon fill="#6666ff" stroke="#6666ff" points="-846.261,-151.551 -855.804,-156.152 -845.474,-158.507 -846.261,-151.551"/>
</g>
<!-- Metamodel::ClassHOW&#45;&gt;Metamodel::MethodContainer -->
<g id="edge20" class="edge"><title>Metamodel::ClassHOW&#45;&gt;Metamodel::MethodContainer</title>
<path fill="none" stroke="#6666ff" d="M-131.911,-96.5106C-147.653,-98.4959 -164.284,-100.593 -180.565,-102.646"/>
<polygon fill="#6666ff" stroke="#6666ff" points="-181.162,-99.194 -190.646,-103.918 -180.287,-106.139 -181.162,-99.194"/>
</g>
<!-- Metamodel::ClassHOW&#45;&gt;Metamodel::PrivateMethodContainer -->
<g id="edge21" class="edge"><title>Metamodel::ClassHOW&#45;&gt;Metamodel::PrivateMethodContainer</title>
<path fill="none" stroke="#6666ff" d="M54.3937,-89.6368C100.928,-91.354 157.107,-93.427 208.935,-95.3394"/>
<polygon fill="#6666ff" stroke="#6666ff" points="209.116,-98.8484 219.238,-95.7196 209.374,-91.8532 209.116,-98.8484"/>
</g>
<!-- Metamodel::ClassHOW&#45;&gt;Metamodel::MultiMethodContainer -->
<g id="edge22" class="edge"><title>Metamodel::ClassHOW&#45;&gt;Metamodel::MultiMethodContainer</title>
<path fill="none" stroke="#6666ff" d="M-3.46298,-102.392C104.85,-142.952 383.758,-247.397 503.257,-292.146"/>
<polygon fill="#6666ff" stroke="#6666ff" points="502.357,-295.546 512.949,-295.775 504.812,-288.991 502.357,-295.546"/>
</g>
<!-- Metamodel::ClassHOW&#45;&gt;Metamodel::RoleContainer -->
<g id="edge23" class="edge"><title>Metamodel::ClassHOW&#45;&gt;Metamodel::RoleContainer</title>
<path fill="none" stroke="#6666ff" d="M-30.028,-103.718C12.6786,-147.157 122.154,-258.508 171.54,-308.74"/>
<polygon fill="#6666ff" stroke="#6666ff" points="169.147,-311.298 178.653,-315.975 174.138,-306.391 169.147,-311.298"/>
</g>
<!-- Metamodel::ClassHOW&#45;&gt;Metamodel::MultipleInheritance -->
<g id="edge24" class="edge"><title>Metamodel::ClassHOW&#45;&gt;Metamodel::MultipleInheritance</title>
<path fill="none" stroke="#6666ff" d="M-43.8239,-67.8046C-34.2983,-21.8722 -9.10148,99.6258 2.3769,154.974"/>
<polygon fill="#6666ff" stroke="#6666ff" points="5.81376,154.311 4.4174,164.813 -1.0404,155.732 5.81376,154.311"/>
</g>
<!-- Metamodel::ClassHOW&#45;&gt;Metamodel::DefaultParent -->
<g id="edge25" class="edge"><title>Metamodel::ClassHOW&#45;&gt;Metamodel::DefaultParent</title>
<path fill="none" stroke="#6666ff" d="M-38.2587,-104.118C-9.0111,-161.414 79.0757,-333.975 79.0757,-333.975 79.0757,-333.975 344.141,-581.135 430.474,-661.637"/>
<polygon fill="#6666ff" stroke="#6666ff" points="428.323,-664.417 438.023,-668.677 433.097,-659.297 428.323,-664.417"/>
</g>
<!-- Metamodel::ClassHOW&#45;&gt;Metamodel::C3MRO -->
<g id="edge26" class="edge"><title>Metamodel::ClassHOW&#45;&gt;Metamodel::C3MRO</title>
<path fill="none" stroke="#6666ff" d="M-64.1009,-103.902C-118.433,-163.158 -288.057,-348.152 -288.057,-348.152 -288.057,-348.152 -437.143,-578.933 -488.582,-658.56"/>
<polygon fill="#6666ff" stroke="#6666ff" points="-491.594,-656.772 -494.081,-667.071 -485.714,-660.57 -491.594,-656.772"/>
</g>
<!-- Metamodel::ClassHOW&#45;&gt;Metamodel::MROBasedMethodDispatch -->
<g id="edge27" class="edge"><title>Metamodel::ClassHOW&#45;&gt;Metamodel::MROBasedMethodDispatch</title>
<path fill="none" stroke="#6666ff" d="M-82.8185,-102.867C-164.996,-142.484 -369.254,-240.954 -460.809,-285.091"/>
<polygon fill="#6666ff" stroke="#6666ff" points="-462.346,-281.947 -469.834,-289.442 -459.306,-288.252 -462.346,-281.947"/>
</g>
<!-- Metamodel::ClassHOW&#45;&gt;Metamodel::MROBasedTypeChecking -->
<g id="edge28" class="edge"><title>Metamodel::ClassHOW&#45;&gt;Metamodel::MROBasedTypeChecking</title>
<path fill="none" stroke="#6666ff" d="M-52.7783,-103.913C-65.7527,-148.859 -99.5972,-266.104 -115.215,-320.206"/>
<polygon fill="#6666ff" stroke="#6666ff" points="-118.673,-319.566 -118.084,-330.144 -111.947,-321.507 -118.673,-319.566"/>
</g>
<!-- Metamodel::ClassHOW&#45;&gt;Metamodel::Trusting -->
<g id="edge29" class="edge"><title>Metamodel::ClassHOW&#45;&gt;Metamodel::Trusting</title>
<path fill="none" stroke="#6666ff" d="M-70.6259,-103.608C-138.888,-156.116 -335.237,-307.15 -335.237,-307.15 -335.237,-307.15 -761.938,-534.712 -897.605,-607.065"/>
<polygon fill="#6666ff" stroke="#6666ff" points="-899.311,-604.008 -906.487,-611.802 -896.017,-610.184 -899.311,-604.008"/>
</g>
<!-- Metamodel::ClassHOW&#45;&gt;Metamodel::BUILDPLAN -->
<g id="edge30" class="edge"><title>Metamodel::ClassHOW&#45;&gt;Metamodel::BUILDPLAN</title>
<path fill="none" stroke="#6666ff" d="M-41.4557,-103.923C-21.3539,-163.25 41.4033,-348.466 41.4033,-348.466 41.4033,-348.466 89.939,-577.226 107.174,-658.46"/>
<polygon fill="#6666ff" stroke="#6666ff" points="103.8,-659.419 109.299,-668.475 110.647,-657.967 103.8,-659.419"/>
</g>
<!-- Metamodel::ClassHOW&#45;&gt;Metamodel::Mixins -->
<g id="edge31" class="edge"><title>Metamodel::ClassHOW&#45;&gt;Metamodel::Mixins</title>
<path fill="none" stroke="#6666ff" d="M-41.4557,-103.923C-21.3539,-163.25 41.4033,-348.466 41.4033,-348.466 41.4033,-348.466 -115.557,-577.977 -169.713,-657.165"/>
<polygon fill="#6666ff" stroke="#6666ff" points="-172.745,-655.399 -175.501,-665.629 -166.967,-659.351 -172.745,-655.399"/>
</g>
<!-- Metamodel::ClassHOW&#45;&gt;Metamodel::BoolificationProtocol -->
<g id="edge32" class="edge"><title>Metamodel::ClassHOW&#45;&gt;Metamodel::BoolificationProtocol</title>
<path fill="none" stroke="#6666ff" d="M36.699,-75.2247C117.433,-65.0219 227.078,-51.1656 227.078,-51.1656 227.078,-51.1656 423.327,7.15975 528.876,38.5291"/>
<polygon fill="#6666ff" stroke="#6666ff" points="529.899,35.1817 538.487,41.3856 527.904,41.8916 529.899,35.1817"/>
</g>
<!-- Metamodel::ModuleHOW -->
<g id="node26" class="node"><title>Metamodel::ModuleHOW</title>
<g id="a_node26"><a xlink:href="/type/Metamodel::ModuleHOW" xlink:title="Metamodel::ModuleHOW">
<ellipse fill="none" stroke="#000000" cx="-408.674" cy="742.988" rx="111.28" ry="18"/>
<text text-anchor="middle" x="-408.674" y="746.688" font-family="FreeSans" font-size="14.00" fill="#000000">Metamodel::ModuleHOW</text>
</a>
</g>
</g>
<!-- Metamodel::ModuleHOW&#45;&gt;Metamodel::Stashing -->
<g id="edge36" class="edge"><title>Metamodel::ModuleHOW&#45;&gt;Metamodel::Stashing</title>
<path fill="none" stroke="#6666ff" d="M-404.09,724.792C-382.551,639.293 -291.352,277.281 -265.259,173.706"/>
<polygon fill="#6666ff" stroke="#6666ff" points="-268.643,172.813 -262.806,163.971 -261.855,174.523 -268.643,172.813"/>
</g>
<!-- Metamodel::ModuleHOW&#45;&gt;Any -->
<g id="edge4" class="edge"><title>Metamodel::ModuleHOW&#45;&gt;Any</title>
<path fill="none" stroke="#000000" d="M-376.783,725.544C-276.092,670.467 34.1611,500.762 131.925,447.287"/>
<polygon fill="#000000" stroke="#000000" points="130.256,444.21 140.709,442.482 133.615,450.352 130.256,444.21"/>
</g>
<!-- Metamodel::ModuleHOW&#45;&gt;Metamodel::Naming -->
<g id="edge33" class="edge"><title>Metamodel::ModuleHOW&#45;&gt;Metamodel::Naming</title>
<path fill="none" stroke="#6666ff" d="M-395.181,724.651C-355.126,670.221 -236.789,509.41 -189.877,445.662"/>
<polygon fill="#6666ff" stroke="#6666ff" points="-192.494,443.312 -183.748,437.332 -186.856,447.461 -192.494,443.312"/>
</g>
<!-- Metamodel::ModuleHOW&#45;&gt;Metamodel::Documenting -->
<g id="edge34" class="edge"><title>Metamodel::ModuleHOW&#45;&gt;Metamodel::Documenting</title>
<path fill="none" stroke="#6666ff" d="M-413.823,724.903C-431.205,663.852 -487.806,465.056 -508.908,390.94"/>
<polygon fill="#6666ff" stroke="#6666ff" points="-512.383,391.517 -511.755,380.941 -505.65,389.6 -512.383,391.517"/>
</g>
<!-- Metamodel::ModuleHOW&#45;&gt;Metamodel::TypePretense -->
<g id="edge37" class="edge"><title>Metamodel::ModuleHOW&#45;&gt;Metamodel::TypePretense</title>
<path fill="none" stroke="#6666ff" d="M-298.09,740.869C-180.039,738.607 -9.78036,735.345 -9.78036,735.345 -9.78036,735.345 155.191,741.523 274.897,746.006"/>
<polygon fill="#6666ff" stroke="#6666ff" points="275.381,742.521 285.243,746.393 275.119,749.516 275.381,742.521"/>
</g>
<!-- Metamodel::ModuleHOW&#45;&gt;Metamodel::MethodDelegation -->
<g id="edge38" class="edge"><title>Metamodel::ModuleHOW&#45;&gt;Metamodel::MethodDelegation</title>
<path fill="none" stroke="#6666ff" d="M-506.365,734.346C-586.74,727.237 -701.021,717.128 -787.085,709.516"/>
<polygon fill="#6666ff" stroke="#6666ff" points="-787.518,712.991 -797.171,708.623 -786.901,706.018 -787.518,712.991"/>
</g>
<!-- Metamodel::ModuleHOW&#45;&gt;Metamodel::Versioning -->
<g id="edge35" class="edge"><title>Metamodel::ModuleHOW&#45;&gt;Metamodel::Versioning</title>
<path fill="none" stroke="#6666ff" d="M-427.992,725.065C-510.097,648.889 -830.22,351.887 -924.917,264.028"/>
<polygon fill="#6666ff" stroke="#6666ff" points="-927.409,266.491 -932.359,257.124 -922.648,261.36 -927.409,266.491"/>
</g>
<!-- Metamodel::BaseType -->
<g id="node27" class="node"><title>Metamodel::BaseType</title>
<g id="a_node27"><a xlink:href="/type/Metamodel::BaseType" xlink:title="Metamodel::BaseType">
<ellipse fill="none" stroke="#6666ff" cx="931.598" cy="-640.411" rx="99.3824" ry="18"/>
<text text-anchor="middle" x="931.598" y="-636.711" font-family="FreeSans" font-size="14.00" fill="#6666ff">Metamodel::BaseType</text>
</a>
</g>
</g>
<!-- Metamodel::EnumHOW -->
<g id="node28" class="node"><title>Metamodel::EnumHOW</title>
<g id="a_node28"><a xlink:href="/type/Metamodel::EnumHOW" xlink:title="Metamodel::EnumHOW">
<ellipse fill="none" stroke="#000000" cx="152.323" cy="-37.2386" rx="104.782" ry="18"/>
<text text-anchor="middle" x="152.323" y="-33.5386" font-family="FreeSans" font-size="14.00" fill="#000000">Metamodel::EnumHOW</text>
</a>
</g>
</g>
<!-- Metamodel::EnumHOW&#45;&gt;Metamodel::Stashing -->
<g id="edge40" class="edge"><title>Metamodel::EnumHOW&#45;&gt;Metamodel::Stashing</title>
<path fill="none" stroke="#6666ff" d="M114.432,-20.336C39.0796,13.2783 -129.378,88.4256 -211.48,125.051"/>
<polygon fill="#6666ff" stroke="#6666ff" points="-210.494,128.443 -221.052,129.321 -213.346,122.05 -210.494,128.443"/>
</g>
<!-- Metamodel::EnumHOW&#45;&gt;Any -->
<g id="edge5" class="edge"><title>Metamodel::EnumHOW&#45;&gt;Any</title>
<path fill="none" stroke="#000000" d="M152.208,-19.0544C151.877,33.2607 150.947,180.433 150.947,180.433 150.947,180.433 157.722,337.529 160.542,402.927"/>
<polygon fill="#000000" stroke="#000000" points="164.041,402.812 160.975,412.954 157.047,403.114 164.041,402.812"/>
</g>
<!-- Metamodel::EnumHOW&#45;&gt;Metamodel::Naming -->
<g id="edge39" class="edge"><title>Metamodel::EnumHOW&#45;&gt;Metamodel::Naming</title>
<path fill="none" stroke="#6666ff" d="M129.916,-19.5662C63.5708,32.7597 -127.264,183.27 -127.264,183.27 -127.264,183.27 -153.825,328.537 -165.264,391.093"/>
<polygon fill="#6666ff" stroke="#6666ff" points="-161.847,391.868 -167.089,401.076 -168.733,390.609 -161.847,391.868"/>
</g>
<!-- Metamodel::EnumHOW&#45;&gt;Metamodel::AttributeContainer -->
<g id="edge41" class="edge"><title>Metamodel::EnumHOW&#45;&gt;Metamodel::AttributeContainer</title>
<path fill="none" stroke="#6666ff" d="M230.697,-49.3035C327.006,-64.1293 477.802,-87.3426 477.802,-87.3426 477.802,-87.3426 729.75,-128.221 871.79,-151.267"/>
<polygon fill="#6666ff" stroke="#6666ff" points="871.39,-154.747 881.822,-152.894 872.511,-147.838 871.39,-154.747"/>
</g>
<!-- Metamodel::EnumHOW&#45;&gt;Metamodel::MethodContainer -->
<g id="edge42" class="edge"><title>Metamodel::EnumHOW&#45;&gt;Metamodel::MethodContainer</title>
<path fill="none" stroke="#6666ff" d="M67.9149,-47.918C-12.5578,-58.0996 -121.558,-71.8904 -121.558,-71.8904 -121.558,-71.8904 -171.496,-85.2753 -216.306,-97.2857"/>
<polygon fill="#6666ff" stroke="#6666ff" points="-217.312,-93.9318 -226.065,-99.9015 -215.5,-100.693 -217.312,-93.9318"/>
</g>
<!-- Metamodel::EnumHOW&#45;&gt;Metamodel::MultiMethodContainer -->
<g id="edge43" class="edge"><title>Metamodel::EnumHOW&#45;&gt;Metamodel::MultiMethodContainer</title>
<path fill="none" stroke="#6666ff" d="M168.609,-55.0378C185.909,-73.9446 210.789,-101.137 210.789,-101.137 210.789,-101.137 431.263,-235.3 521.319,-290.101"/>
<polygon fill="#6666ff" stroke="#6666ff" points="519.506,-293.095 529.868,-295.304 523.145,-287.115 519.506,-293.095"/>
</g>
<!-- Metamodel::EnumHOW&#45;&gt;Metamodel::RoleContainer -->
<g id="edge44" class="edge"><title>Metamodel::EnumHOW&#45;&gt;Metamodel::RoleContainer</title>
<path fill="none" stroke="#6666ff" d="M155.012,-55.3551C162.429,-105.332 183.222,-245.43 192.176,-305.766"/>
<polygon fill="#6666ff" stroke="#6666ff" points="188.726,-306.357 193.656,-315.735 195.65,-305.329 188.726,-306.357"/>
</g>
<!-- Metamodel::EnumHOW&#45;&gt;Metamodel::MROBasedMethodDispatch -->
<g id="edge46" class="edge"><title>Metamodel::EnumHOW&#45;&gt;Metamodel::MROBasedMethodDispatch</title>
<path fill="none" stroke="#6666ff" d="M119.074,-54.4482C91.9217,-68.5016 58.0151,-86.0513 58.0151,-86.0513 58.0151,-86.0513 26.4152,-99.8582 26.4152,-99.8582 26.4152,-99.8582 -316.374,-233.173 -452.091,-285.955"/>
<polygon fill="#6666ff" stroke="#6666ff" points="-453.446,-282.727 -461.497,-289.614 -450.908,-289.251 -453.446,-282.727"/>
</g>
<!-- Metamodel::EnumHOW&#45;&gt;Metamodel::MROBasedTypeChecking -->
<g id="edge47" class="edge"><title>Metamodel::EnumHOW&#45;&gt;Metamodel::MROBasedTypeChecking</title>
<path fill="none" stroke="#6666ff" d="M136.311,-55.3076C89.6858,-107.924 -46.1189,-261.18 -100.46,-322.503"/>
<polygon fill="#6666ff" stroke="#6666ff" points="-103.259,-320.384 -107.271,-330.19 -98.0195,-325.027 -103.259,-320.384"/>
</g>
<!-- Metamodel::EnumHOW&#45;&gt;Metamodel::BUILDPLAN -->
<g id="edge48" class="edge"><title>Metamodel::EnumHOW&#45;&gt;Metamodel::BUILDPLAN</title>
<path fill="none" stroke="#6666ff" d="M147.851,-55.3541C131.948,-119.78 79.0757,-333.975 79.0757,-333.975 79.0757,-333.975 102.281,-574.112 110.396,-658.084"/>
<polygon fill="#6666ff" stroke="#6666ff" points="106.927,-658.576 111.373,-668.193 113.894,-657.902 106.927,-658.576"/>
</g>
<!-- Metamodel::EnumHOW&#45;&gt;Metamodel::BoolificationProtocol -->
<g id="edge49" class="edge"><title>Metamodel::EnumHOW&#45;&gt;Metamodel::BoolificationProtocol</title>
<path fill="none" stroke="#6666ff" d="M218.007,-23.0893C296.414,-6.19944 427.565,22.0523 512.471,40.3422"/>
<polygon fill="#6666ff" stroke="#6666ff" points="513.294,36.9391 522.332,42.4666 511.819,43.7822 513.294,36.9391"/>
</g>
<!-- Metamodel::EnumHOW&#45;&gt;Metamodel::BaseType -->
<g id="edge45" class="edge"><title>Metamodel::EnumHOW&#45;&gt;Metamodel::BaseType</title>
<path fill="none" stroke="#6666ff" d="M168.609,-55.0378C185.909,-73.9446 210.789,-101.137 210.789,-101.137 210.789,-101.137 411.119,-312.887 411.119,-312.887 411.119,-312.887 777.065,-543.167 895.26,-617.544"/>
<polygon fill="#6666ff" stroke="#6666ff" points="893.655,-620.669 903.982,-623.033 897.383,-614.745 893.655,-620.669"/>
</g>
<!-- Metamodel::RolePunning -->
<g id="node29" class="node"><title>Metamodel::RolePunning</title>
<g id="a_node29"><a xlink:href="/type/Metamodel::RolePunning" xlink:title="Metamodel::RolePunning">
<ellipse fill="none" stroke="#6666ff" cx="910.785" cy="707.321" rx="109.681" ry="18"/>
<text text-anchor="middle" x="910.785" y="711.021" font-family="FreeSans" font-size="14.00" fill="#6666ff">Metamodel::RolePunning</text>
</a>
</g>
</g>
<!-- Metamodel::ParametricRoleGroupHOW -->
<g id="node30" class="node"><title>Metamodel::ParametricRoleGroupHOW</title>
<g id="a_node30"><a xlink:href="/type/Metamodel::ParametricRoleGroupHOW" xlink:title="Metamodel::ParametricRoleGroupHOW">
<ellipse fill="none" stroke="#000000" cx="528.503" cy="390.384" rx="167.07" ry="18"/>
<text text-anchor="middle" x="528.503" y="394.084" font-family="FreeSans" font-size="14.00" fill="#000000">Metamodel::ParametricRoleGroupHOW</text>
</a>
</g>
</g>
<!-- Metamodel::ParametricRoleGroupHOW&#45;&gt;Metamodel::Stashing -->
<g id="edge51" class="edge"><title>Metamodel::ParametricRoleGroupHOW&#45;&gt;Metamodel::Stashing</title>
<path fill="none" stroke="#6666ff" d="M473.492,373.291C330.58,328.885 -51.5516,210.147 -199.04,164.318"/>
<polygon fill="#6666ff" stroke="#6666ff" points="-200.319,167.586 -208.83,161.277 -198.241,160.902 -200.319,167.586"/>
</g>
<!-- Metamodel::ParametricRoleGroupHOW&#45;&gt;Any -->
<g id="edge6" class="edge"><title>Metamodel::ParametricRoleGroupHOW&#45;&gt;Any</title>
<path fill="none" stroke="#000000" d="M411.957,403.282C338.483,411.413 248.428,421.38 198.873,426.864"/>
<polygon fill="#000000" stroke="#000000" points="198.965,430.375 188.641,427.996 198.195,423.417 198.965,430.375"/>
</g>
<!-- Metamodel::ParametricRoleGroupHOW&#45;&gt;Metamodel::Naming -->
<g id="edge50" class="edge"><title>Metamodel::ParametricRoleGroupHOW&#45;&gt;Metamodel::Naming</title>
<path fill="none" stroke="#6666ff" d="M372.09,396.833C236.357,402.428 44.0029,410.358 -71.4501,415.118"/>
<polygon fill="#6666ff" stroke="#6666ff" points="-71.5541,418.625 -81.6898,415.54 -71.8425,411.631 -71.5541,418.625"/>
</g>
<!-- Metamodel::ParametricRoleGroupHOW&#45;&gt;Metamodel::TypePretense -->
<g id="edge52" class="edge"><title>Metamodel::ParametricRoleGroupHOW&#45;&gt;Metamodel::TypePretense</title>
<path fill="none" stroke="#6666ff" d="M521.778,408.741C500.202,467.63 432.627,652.067 406.756,722.678"/>
<polygon fill="#6666ff" stroke="#6666ff" points="409.979,724.056 403.252,732.242 403.406,721.648 409.979,724.056"/>
</g>
<!-- Metamodel::ParametricRoleGroupHOW&#45;&gt;Metamodel::BoolificationProtocol -->
<g id="edge54" class="edge"><title>Metamodel::ParametricRoleGroupHOW&#45;&gt;Metamodel::BoolificationProtocol</title>
<path fill="none" stroke="#6666ff" d="M532.132,372.038C543.021,316.983 575.476,152.897 588.626,86.4097"/>
<polygon fill="#6666ff" stroke="#6666ff" points="585.262,85.3796 590.636,76.2488 592.129,86.7378 585.262,85.3796"/>
</g>
<!-- Metamodel::ParametricRoleGroupHOW&#45;&gt;Metamodel::RolePunning -->
<g id="edge53" class="edge"><title>Metamodel::ParametricRoleGroupHOW&#45;&gt;Metamodel::RolePunning</title>
<path fill="none" stroke="#6666ff" d="M550.152,408.332C614.941,462.047 807.39,621.6 881.363,682.928"/>
<polygon fill="#6666ff" stroke="#6666ff" points="883.909,680.493 889.374,689.57 879.442,685.882 883.909,680.493"/>
</g>
<!-- Metamodel::ParametricRoleHOW -->
<g id="node31" class="node"><title>Metamodel::ParametricRoleHOW</title>
<g id="a_node31"><a xlink:href="/type/Metamodel::ParametricRoleHOW" xlink:title="Metamodel::ParametricRoleHOW">
<ellipse fill="none" stroke="#000000" cx="294.88" cy="180.271" rx="142.175" ry="18"/>
<text text-anchor="middle" x="294.88" y="183.971" font-family="FreeSans" font-size="14.00" fill="#000000">Metamodel::ParametricRoleHOW</text>
</a>
</g>
</g>
<!-- Metamodel::ParametricRoleHOW&#45;&gt;Metamodel::Stashing -->
<g id="edge64" class="edge"><title>Metamodel::ParametricRoleHOW&#45;&gt;Metamodel::Stashing</title>
<path fill="none" stroke="#6666ff" d="M166.937,172.325C67.7453,166.165 -67.7296,157.751 -158.869,152.091"/>
<polygon fill="#6666ff" stroke="#6666ff" points="-159.164,155.579 -168.928,151.466 -158.73,148.593 -159.164,155.579"/>
</g>
<!-- Metamodel::ParametricRoleHOW&#45;&gt;Any -->
<g id="edge7" class="edge"><title>Metamodel::ParametricRoleHOW&#45;&gt;Any</title>
<path fill="none" stroke="#000000" d="M285.306,198.301C262.118,241.967 202.862,353.555 175.716,404.675"/>
<polygon fill="#000000" stroke="#000000" points="178.667,406.581 170.886,413.771 172.485,403.298 178.667,406.581"/>
</g>
<!-- Metamodel::ParametricRoleHOW&#45;&gt;Metamodel::Naming -->
<g id="edge55" class="edge"><title>Metamodel::ParametricRoleHOW&#45;&gt;Metamodel::Naming</title>
<path fill="none" stroke="#6666ff" d="M260.667,197.84C176.971,240.818 -37.8734,351.142 -128.781,397.824"/>
<polygon fill="#6666ff" stroke="#6666ff" points="-127.204,400.949 -137.698,402.403 -130.401,394.722 -127.204,400.949"/>
</g>
<!-- Metamodel::ParametricRoleHOW&#45;&gt;Metamodel::Documenting -->
<g id="edge56" class="edge"><title>Metamodel::ParametricRoleHOW&#45;&gt;Metamodel::Documenting</title>
<path fill="none" stroke="#6666ff" d="M224.962,195.987C73.2031,230.098 -285.286,310.678 -441.725,345.841"/>
<polygon fill="#6666ff" stroke="#6666ff" points="-441.209,349.312 -451.733,348.091 -442.744,342.483 -441.209,349.312"/>
</g>
<!-- Metamodel::ParametricRoleHOW&#45;&gt;Metamodel::TypePretense -->
<g id="edge65" class="edge"><title>Metamodel::ParametricRoleHOW&#45;&gt;Metamodel::TypePretense</title>
<path fill="none" stroke="#6666ff" d="M298.09,198.28C312.777,280.667 373.611,621.935 391.544,722.533"/>
<polygon fill="#6666ff" stroke="#6666ff" points="395.02,722.088 393.329,732.547 388.129,723.317 395.02,722.088"/>
</g>
<!-- Metamodel::ParametricRoleHOW&#45;&gt;Metamodel::Versioning -->
<g id="edge57" class="edge"><title>Metamodel::ParametricRoleHOW&#45;&gt;Metamodel::Versioning</title>
<path fill="none" stroke="#6666ff" d="M177.605,190.542C138.442,193.972 104.571,196.939 104.571,196.939 104.571,196.939 8.99385,202.758 8.99385,202.758 8.99385,202.758 -590.894,225.655 -842.469,235.257"/>
<polygon fill="#6666ff" stroke="#6666ff" points="-842.601,238.765 -852.727,235.649 -842.868,231.77 -842.601,238.765"/>
</g>
<!-- Metamodel::ParametricRoleHOW&#45;&gt;Metamodel::AttributeContainer -->
<g id="edge61" class="edge"><title>Metamodel::ParametricRoleHOW&#45;&gt;Metamodel::AttributeContainer</title>
<path fill="none" stroke="#6666ff" d="M317.955,162.504C361.966,128.616 453.568,58.0855 453.568,58.0855 453.568,58.0855 789.859,-89.2698 917.775,-145.32"/>
<polygon fill="#6666ff" stroke="#6666ff" points="916.414,-148.545 926.978,-149.353 919.224,-142.134 916.414,-148.545"/>
</g>
<!-- Metamodel::ParametricRoleHOW&#45;&gt;Metamodel::MethodContainer -->
<g id="edge58" class="edge"><title>Metamodel::ParametricRoleHOW&#45;&gt;Metamodel::MethodContainer</title>
<path fill="none" stroke="#6666ff" d="M260.292,162.63C159.813,111.38 -131.936,-37.4253 -242.592,-93.8651"/>
<polygon fill="#6666ff" stroke="#6666ff" points="-244.479,-90.8984 -251.797,-98.5599 -241.299,-97.1341 -244.479,-90.8984"/>
</g>
<!-- Metamodel::ParametricRoleHOW&#45;&gt;Metamodel::PrivateMethodContainer -->
<g id="edge59" class="edge"><title>Metamodel::ParametricRoleHOW&#45;&gt;Metamodel::PrivateMethodContainer</title>
<path fill="none" stroke="#6666ff" d="M299.506,162.237C311.752,114.495 345.087,-15.4582 359.861,-73.0513"/>
<polygon fill="#6666ff" stroke="#6666ff" points="356.519,-74.1102 362.394,-82.9269 363.3,-72.3709 356.519,-74.1102"/>
</g>
<!-- Metamodel::ParametricRoleHOW&#45;&gt;Metamodel::MultiMethodContainer -->
<g id="edge60" class="edge"><title>Metamodel::ParametricRoleHOW&#45;&gt;Metamodel::MultiMethodContainer</title>
<path fill="none" stroke="#6666ff" d="M309.52,162.235C359.948,100.108 523.361,-101.213 523.361,-101.213 523.361,-101.213 544.587,-227.517 554.256,-285.05"/>
<polygon fill="#6666ff" stroke="#6666ff" points="550.81,-285.664 555.919,-294.946 557.713,-284.504 550.81,-285.664"/>
</g>
<!-- Metamodel::ParametricRoleHOW&#45;&gt;Metamodel::RoleContainer -->
<g id="edge62" class="edge"><title>Metamodel::ParametricRoleHOW&#45;&gt;Metamodel::RoleContainer</title>
<path fill="none" stroke="#6666ff" d="M291.846,162.092C283.117,109.793 258.562,-37.3346 258.562,-37.3346 258.562,-37.3346 210.789,-101.137 210.789,-101.137 210.789,-101.137 201.986,-243.249 198.134,-305.431"/>
<polygon fill="#6666ff" stroke="#6666ff" points="194.622,-305.522 197.497,-315.719 201.609,-305.955 194.622,-305.522"/>
</g>
<!-- Metamodel::ParametricRoleHOW&#45;&gt;Metamodel::MultipleInheritance -->
<g id="edge63" class="edge"><title>Metamodel::ParametricRoleHOW&#45;&gt;Metamodel::MultipleInheritance</title>
<path fill="none" stroke="#6666ff" d="M152.811,181.702C152.582,181.704 152.353,181.707 152.124,181.709"/>
<polygon fill="#6666ff" stroke="#6666ff" points="151.87,185.212 141.836,181.813 151.8,178.212 151.87,185.212"/>
</g>
<!-- Metamodel::ParametricRoleHOW&#45;&gt;Metamodel::RolePunning -->
<g id="edge66" class="edge"><title>Metamodel::ParametricRoleHOW&#45;&gt;Metamodel::RolePunning</title>
<path fill="none" stroke="#6666ff" d="M328.484,197.818C425.163,248.301 697.138,390.32 697.138,390.32 697.138,390.32 841.514,604.54 892.897,680.779"/>
<polygon fill="#6666ff" stroke="#6666ff" points="896,679.121 898.686,689.369 890.195,683.033 896,679.121"/>
</g>
<!-- Metamodel::NativeHOW -->
<g id="node32" class="node"><title>Metamodel::NativeHOW</title>
<g id="a_node32"><a xlink:href="/type/Metamodel::NativeHOW" xlink:title="Metamodel::NativeHOW">
<ellipse fill="none" stroke="#000000" cx="-556.036" cy="31.4159" rx="107.482" ry="18"/>
<text text-anchor="middle" x="-556.036" y="35.1159" font-family="FreeSans" font-size="14.00" fill="#000000">Metamodel::NativeHOW</text>
</a>
</g>
</g>
<!-- Metamodel::NativeHOW&#45;&gt;Metamodel::Stashing -->
<g id="edge70" class="edge"><title>Metamodel::NativeHOW&#45;&gt;Metamodel::Stashing</title>
<path fill="none" stroke="#6666ff" d="M-513.055,47.9432C-459.309,68.6096 -367.389,103.955 -309.885,126.066"/>
<polygon fill="#6666ff" stroke="#6666ff" points="-308.342,122.91 -300.264,129.766 -310.854,129.443 -308.342,122.91"/>
</g>
<!-- Metamodel::NativeHOW&#45;&gt;Any -->
<g id="edge8" class="edge"><title>Metamodel::NativeHOW&#45;&gt;Any</title>
<path fill="none" stroke="#000000" d="M-525.268,48.8123C-468.595,80.8551 -353.45,145.958 -353.45,145.958 -353.45,145.958 22.3085,353.831 132.018,414.523"/>
<polygon fill="#000000" stroke="#000000" points="133.861,411.543 140.917,419.446 130.473,417.668 133.861,411.543"/>
</g>
<!-- Metamodel::NativeHOW&#45;&gt;Metamodel::Naming -->
<g id="edge67" class="edge"><title>Metamodel::NativeHOW&#45;&gt;Metamodel::Naming</title>
<path fill="none" stroke="#6666ff" d="M-538.21,49.3416C-475.896,112.003 -267.684,321.373 -195.388,394.072"/>
<polygon fill="#6666ff" stroke="#6666ff" points="-192.609,391.903 -188.04,401.461 -197.573,396.839 -192.609,391.903"/>
</g>
<!-- Metamodel::NativeHOW&#45;&gt;Metamodel::Documenting -->
<g id="edge68" class="edge"><title>Metamodel::NativeHOW&#45;&gt;Metamodel::Documenting</title>
<path fill="none" stroke="#6666ff" d="M-553.878,49.7016C-547.403,104.575 -528.102,268.122 -520.282,334.39"/>
<polygon fill="#6666ff" stroke="#6666ff" points="-516.783,334.176 -519.087,344.517 -523.735,334.996 -516.783,334.176"/>
</g>
<!-- Metamodel::NativeHOW&#45;&gt;Metamodel::Versioning -->
<g id="edge69" class="edge"><title>Metamodel::NativeHOW&#45;&gt;Metamodel::Versioning</title>
<path fill="none" stroke="#6666ff" d="M-588.731,48.6144C-660.296,86.2605 -830.726,175.913 -909.811,217.515"/>
<polygon fill="#6666ff" stroke="#6666ff" points="-908.51,220.786 -918.99,222.344 -911.769,214.591 -908.51,220.786"/>
</g>
<!-- Metamodel::NativeHOW&#45;&gt;Metamodel::MultipleInheritance -->
<g id="edge71" class="edge"><title>Metamodel::NativeHOW&#45;&gt;Metamodel::MultipleInheritance</title>
<path fill="none" stroke="#6666ff" d="M-499.088,46.7305C-395.056,74.7074 -174.618,133.989 -61.6788,164.361"/>
<polygon fill="#6666ff" stroke="#6666ff" points="-60.5008,161.053 -51.7528,167.03 -62.3187,167.813 -60.5008,161.053"/>
</g>
<!-- Metamodel::NativeHOW&#45;&gt;Metamodel::C3MRO -->
<g id="edge72" class="edge"><title>Metamodel::NativeHOW&#45;&gt;Metamodel::C3MRO</title>
<path fill="none" stroke="#6666ff" d="M-562.578,13.2179C-587.85,-57.0869 -677.706,-307.06 -677.706,-307.06 -677.706,-307.06 -557.567,-571.301 -518.149,-658"/>
<polygon fill="#6666ff" stroke="#6666ff" points="-521.288,-659.553 -513.963,-667.208 -514.916,-656.656 -521.288,-659.553"/>
</g>
<!-- Metamodel::NativeHOW&#45;&gt;Metamodel::MROBasedMethodDispatch -->
<g id="edge73" class="edge"><title>Metamodel::NativeHOW&#45;&gt;Metamodel::MROBasedMethodDispatch</title>
<path fill="none" stroke="#6666ff" d="M-553.371,13.2155C-545.202,-42.5779 -520.468,-211.509 -510.601,-278.903"/>
<polygon fill="#6666ff" stroke="#6666ff" points="-514.061,-279.427 -509.149,-288.814 -507.135,-278.413 -514.061,-279.427"/>
</g>
<!-- Metamodel::NativeHOW&#45;&gt;Metamodel::MROBasedTypeChecking -->
<g id="edge74" class="edge"><title>Metamodel::NativeHOW&#45;&gt;Metamodel::MROBasedTypeChecking</title>
<path fill="none" stroke="#6666ff" d="M-538.721,13.3718C-501.012,-25.9228 -414.822,-115.739 -414.822,-115.739 -414.822,-115.739 -228.603,-264.314 -153.846,-323.959"/>
<polygon fill="#6666ff" stroke="#6666ff" points="-155.716,-326.945 -145.716,-330.446 -151.35,-321.473 -155.716,-326.945"/>
</g>
</g>
</svg>
