<?xml version="1.0" encoding="UTF-8" standalone="no"?>
<!DOCTYPE svg PUBLIC "-//W3C//DTD SVG 1.1//EN"
 "http://www.w3.org/Graphics/SVG/1.1/DTD/svg11.dtd">
<!-- Generated by graphviz version 2.38.0 (20140413.2041)
 -->
<!-- Title: perl6&#45;type&#45;graph Pages: 1 -->
<svg width="272pt" height="188pt"
 viewBox="0.00 0.00 271.75 188.00" xmlns="http://www.w3.org/2000/svg" xmlns:xlink="http://www.w3.org/1999/xlink">
<g id="graph0" class="graph" transform="scale(1 1) rotate(0) translate(4 184)">
<title>perl6&#45;type&#45;graph</title>
<polygon fill="white" stroke="none" points="-4,4 -4,-184 267.746,-184 267.746,4 -4,4"/>
<!-- Blob -->
<g id="node1" class="node"><title>Blob</title>
<g id="a_node1"><a xlink:href="/type/Blob" xlink:title="Blob">
<ellipse fill="none" stroke="#6666ff" cx="153.746" cy="-90" rx="28.6953" ry="18"/>
<text text-anchor="middle" x="153.746" y="-86.3" font-family="FreeSans" font-size="14.00" fill="#6666ff">Blob</text>
</a>
</g>
</g>
<!-- Positional -->
<g id="node2" class="node"><title>Positional</title>
<g id="a_node2"><a xlink:href="/type/Positional" xlink:title="Positional">
<ellipse fill="none" stroke="#6666ff" cx="48.7457" cy="-162" rx="48.9926" ry="18"/>
<text text-anchor="middle" x="48.7457" y="-158.3" font-family="FreeSans" font-size="14.00" fill="#6666ff">Positional</text>
</a>
</g>
</g>
<!-- Blob&#45;&gt;Positional -->
<g id="edge3" class="edge"><title>Blob&#45;&gt;Positional</title>
<path fill="none" stroke="#6666ff" d="M134.487,-103.839C119.223,-114.015 97.5916,-128.436 79.8749,-140.247"/>
<polygon fill="#6666ff" stroke="#6666ff" points="77.9163,-137.346 71.5372,-145.806 81.7992,-143.171 77.9163,-137.346"/>
</g>
<!-- Stringy -->
<g id="node3" class="node"><title>Stringy</title>
<g id="a_node3"><a xlink:href="/type/Stringy" xlink:title="Stringy">
<ellipse fill="none" stroke="#6666ff" cx="153.746" cy="-162" rx="38.1938" ry="18"/>
<text text-anchor="middle" x="153.746" y="-158.3" font-family="FreeSans" font-size="14.00" fill="#6666ff">Stringy</text>
</a>
</g>
</g>
<!-- Blob&#45;&gt;Stringy -->
<g id="edge4" class="edge"><title>Blob&#45;&gt;Stringy</title>
<path fill="none" stroke="#6666ff" d="M153.746,-108.303C153.746,-116.017 153.746,-125.288 153.746,-133.888"/>
<polygon fill="#6666ff" stroke="#6666ff" points="150.246,-133.896 153.746,-143.896 157.246,-133.896 150.246,-133.896"/>
</g>
<!-- Mu -->
<g id="node4" class="node"><title>Mu</title>
<g id="a_node4"><a xlink:href="/type/Mu" xlink:title="Mu">
<ellipse fill="none" stroke="#000000" cx="236.746" cy="-162" rx="27" ry="18"/>
<text text-anchor="middle" x="236.746" y="-158.3" font-family="FreeSans" font-size="14.00" fill="#000000">Mu</text>
</a>
</g>
</g>
<!-- Any -->
<g id="node5" class="node"><title>Any</title>
<g id="a_node5"><a xlink:href="/type/Any" xlink:title="Any">
<ellipse fill="none" stroke="#000000" cx="231.746" cy="-90" rx="27" ry="18"/>
<text text-anchor="middle" x="231.746" y="-86.3" font-family="FreeSans" font-size="14.00" fill="#000000">Any</text>
</a>
</g>
</g>
<!-- Any&#45;&gt;Mu -->
<g id="edge1" class="edge"><title>Any&#45;&gt;Mu</title>
<path fill="none" stroke="#000000" d="M232.982,-108.303C233.533,-116.017 234.195,-125.288 234.809,-133.888"/>
<polygon fill="#000000" stroke="#000000" points="231.32,-134.17 235.524,-143.896 238.302,-133.672 231.32,-134.17"/>
</g>
<!-- utf8 -->
<g id="node6" class="node"><title>utf8</title>
<g id="a_node6"><a xlink:href="/type/utf8" xlink:title="utf8">
<ellipse fill="none" stroke="#000000" cx="226.746" cy="-18" rx="27" ry="18"/>
<text text-anchor="middle" x="226.746" y="-14.3" font-family="FreeSans" font-size="14.00" fill="#000000">utf8</text>
</a>
</g>
</g>
<!-- utf8&#45;&gt;Blob -->
<g id="edge5" class="edge"><title>utf8&#45;&gt;Blob</title>
<path fill="none" stroke="#6666ff" d="M211.973,-33.1655C201.652,-43.0624 187.687,-56.4538 176.02,-67.6409"/>
<polygon fill="#6666ff" stroke="#6666ff" points="173.542,-65.1678 168.747,-74.6153 178.387,-70.2203 173.542,-65.1678"/>
</g>
<!-- utf8&#45;&gt;Any -->
<g id="edge2" class="edge"><title>utf8&#45;&gt;Any</title>
<path fill="none" stroke="#000000" d="M227.982,-36.3034C228.533,-44.0173 229.195,-53.2875 229.809,-61.8876"/>
<polygon fill="#000000" stroke="#000000" points="226.32,-62.1705 230.524,-71.8957 233.302,-61.6717 226.32,-62.1705"/>
</g>
<!-- Buf -->
<g id="node7" class="node"><title>Buf</title>
<g id="a_node7"><a xlink:href="/type/Buf" xlink:title="Buf">
<ellipse fill="none" stroke="#6666ff" cx="153.746" cy="-18" rx="27" ry="18"/>
<text text-anchor="middle" x="153.746" y="-14.3" font-family="FreeSans" font-size="14.00" fill="#6666ff">Buf</text>
</a>
</g>
</g>
<!-- Buf&#45;&gt;Blob -->
<g id="edge6" class="edge"><title>Buf&#45;&gt;Blob</title>
<path fill="none" stroke="#6666ff" d="M153.746,-36.3034C153.746,-44.0173 153.746,-53.2875 153.746,-61.8876"/>
<polygon fill="#6666ff" stroke="#6666ff" points="150.246,-61.8956 153.746,-71.8957 157.246,-61.8957 150.246,-61.8956"/>
</g>
</g>
</svg>
