<?xml version="1.0" encoding="UTF-8" standalone="no"?>
<!DOCTYPE svg PUBLIC "-//W3C//DTD SVG 1.1//EN"
 "http://www.w3.org/Graphics/SVG/1.1/DTD/svg11.dtd">
<!-- Generated by graphviz version 2.38.0 (20140413.2041)
 -->
<!-- Title: perl6&#45;type&#45;graph Pages: 1 -->
<svg width="190pt" height="188pt"
 viewBox="0.00 0.00 190.25 188.00" xmlns="http://www.w3.org/2000/svg" xmlns:xlink="http://www.w3.org/1999/xlink">
<g id="graph0" class="graph" transform="scale(1 1) rotate(0) translate(4 184)">
<title>perl6&#45;type&#45;graph</title>
<polygon fill="white" stroke="none" points="-4,4 -4,-184 186.245,-184 186.245,4 -4,4"/>
<!-- Pair -->
<g id="node1" class="node"><title>Pair</title>
<g id="a_node1"><a xlink:href="/type/Pair" xlink:title="Pair">
<ellipse fill="none" stroke="#000000" cx="77" cy="-18" rx="27" ry="18"/>
<text text-anchor="middle" x="77" y="-14.3" font-family="FreeSans" font-size="14.00" fill="#000000">Pair</text>
</a>
</g>
</g>
<!-- Any -->
<g id="node3" class="node"><title>Any</title>
<g id="a_node3"><a xlink:href="/type/Any" xlink:title="Any">
<ellipse fill="none" stroke="#000000" cx="27" cy="-90" rx="27" ry="18"/>
<text text-anchor="middle" x="27" y="-86.3" font-family="FreeSans" font-size="14.00" fill="#000000">Any</text>
</a>
</g>
</g>
<!-- Pair&#45;&gt;Any -->
<g id="edge1" class="edge"><title>Pair&#45;&gt;Any</title>
<path fill="none" stroke="#000000" d="M65.9034,-34.5353C59.4948,-43.5073 51.2989,-54.9815 44.084,-65.0824"/>
<polygon fill="#000000" stroke="#000000" points="41.03,-63.3365 38.0656,-73.5082 46.7261,-67.4052 41.03,-63.3365"/>
</g>
<!-- Associative -->
<g id="node4" class="node"><title>Associative</title>
<g id="a_node4"><a xlink:href="/type/Associative" xlink:title="Associative">
<ellipse fill="none" stroke="#6666ff" cx="127" cy="-90" rx="55.4913" ry="18"/>
<text text-anchor="middle" x="127" y="-86.3" font-family="FreeSans" font-size="14.00" fill="#6666ff">Associative</text>
</a>
</g>
</g>
<!-- Pair&#45;&gt;Associative -->
<g id="edge3" class="edge"><title>Pair&#45;&gt;Associative</title>
<path fill="none" stroke="#6666ff" d="M88.0966,-34.5353C94.2382,-43.1335 102.021,-54.0296 109.009,-63.813"/>
<polygon fill="#6666ff" stroke="#6666ff" points="106.224,-65.9352 114.884,-72.0382 111.92,-61.8665 106.224,-65.9352"/>
</g>
<!-- Mu -->
<g id="node2" class="node"><title>Mu</title>
<g id="a_node2"><a xlink:href="/type/Mu" xlink:title="Mu">
<ellipse fill="none" stroke="#000000" cx="27" cy="-162" rx="27" ry="18"/>
<text text-anchor="middle" x="27" y="-158.3" font-family="FreeSans" font-size="14.00" fill="#000000">Mu</text>
</a>
</g>
</g>
<!-- Any&#45;&gt;Mu -->
<g id="edge2" class="edge"><title>Any&#45;&gt;Mu</title>
<path fill="none" stroke="#000000" d="M27,-108.303C27,-116.017 27,-125.288 27,-133.888"/>
<polygon fill="#000000" stroke="#000000" points="23.5001,-133.896 27,-143.896 30.5001,-133.896 23.5001,-133.896"/>
</g>
</g>
</svg>
