<?xml version="1.0" encoding="UTF-8" standalone="no"?>
<!DOCTYPE svg PUBLIC "-//W3C//DTD SVG 1.1//EN"
 "http://www.w3.org/Graphics/SVG/1.1/DTD/svg11.dtd">
<!-- Generated by graphviz version 2.38.0 (20140413.2041)
 -->
<!-- Title: perl6&#45;type&#45;graph Pages: 1 -->
<svg width="1817pt" height="404pt"
 viewBox="0.00 0.00 1817.34 404.00" xmlns="http://www.w3.org/2000/svg" xmlns:xlink="http://www.w3.org/1999/xlink">
<g id="graph0" class="graph" transform="scale(1 1) rotate(0) translate(4 400)">
<title>perl6&#45;type&#45;graph</title>
<polygon fill="white" stroke="none" points="-4,4 -4,-400 1813.34,-400 1813.34,4 -4,4"/>
<!-- X::OS -->
<g id="node1" class="node"><title>X::OS</title>
<g id="a_node1"><a xlink:href="/type/X::OS" xlink:title="X::OS">
<ellipse fill="none" stroke="#6666ff" cx="901.795" cy="-162" rx="34.394" ry="18"/>
<text text-anchor="middle" x="901.795" y="-158.3" font-family="FreeSans" font-size="14.00" fill="#6666ff">X::OS</text>
</a>
</g>
</g>
<!-- Exception -->
<g id="node4" class="node"><title>Exception</title>
<g id="a_node4"><a xlink:href="/type/Exception" xlink:title="Exception">
<ellipse fill="none" stroke="#000000" cx="1037.79" cy="-234" rx="49.2915" ry="18"/>
<text text-anchor="middle" x="1037.79" y="-230.3" font-family="FreeSans" font-size="14.00" fill="#000000">Exception</text>
</a>
</g>
</g>
<!-- X::OS&#45;&gt;Exception -->
<g id="edge1" class="edge"><title>X::OS&#45;&gt;Exception</title>
<path fill="none" stroke="#000000" d="M925.484,-175.193C946.311,-185.913 976.962,-201.689 1000.98,-214.053"/>
<polygon fill="#000000" stroke="#000000" points="999.667,-217.312 1010.16,-218.776 1002.87,-211.088 999.667,-217.312"/>
</g>
<!-- Mu -->
<g id="node2" class="node"><title>Mu</title>
<g id="a_node2"><a xlink:href="/type/Mu" xlink:title="Mu">
<ellipse fill="none" stroke="#000000" cx="1037.79" cy="-378" rx="27" ry="18"/>
<text text-anchor="middle" x="1037.79" y="-374.3" font-family="FreeSans" font-size="14.00" fill="#000000">Mu</text>
</a>
</g>
</g>
<!-- Any -->
<g id="node3" class="node"><title>Any</title>
<g id="a_node3"><a xlink:href="/type/Any" xlink:title="Any">
<ellipse fill="none" stroke="#000000" cx="1037.79" cy="-306" rx="27" ry="18"/>
<text text-anchor="middle" x="1037.79" y="-302.3" font-family="FreeSans" font-size="14.00" fill="#000000">Any</text>
</a>
</g>
</g>
<!-- Any&#45;&gt;Mu -->
<g id="edge2" class="edge"><title>Any&#45;&gt;Mu</title>
<path fill="none" stroke="#000000" d="M1037.79,-324.303C1037.79,-332.017 1037.79,-341.288 1037.79,-349.888"/>
<polygon fill="#000000" stroke="#000000" points="1034.29,-349.896 1037.79,-359.896 1041.29,-349.896 1034.29,-349.896"/>
</g>
<!-- Exception&#45;&gt;Any -->
<g id="edge3" class="edge"><title>Exception&#45;&gt;Any</title>
<path fill="none" stroke="#000000" d="M1037.79,-252.303C1037.79,-260.017 1037.79,-269.288 1037.79,-277.888"/>
<polygon fill="#000000" stroke="#000000" points="1034.29,-277.896 1037.79,-287.896 1041.29,-277.896 1034.29,-277.896"/>
</g>
<!-- X::IO -->
<g id="node5" class="node"><title>X::IO</title>
<g id="a_node5"><a xlink:href="/type/X::IO" xlink:title="X::IO">
<ellipse fill="none" stroke="#6666ff" cx="865.795" cy="-90" rx="31.3957" ry="18"/>
<text text-anchor="middle" x="865.795" y="-86.3" font-family="FreeSans" font-size="14.00" fill="#6666ff">X::IO</text>
</a>
</g>
</g>
<!-- X::IO&#45;&gt;X::OS -->
<g id="edge37" class="edge"><title>X::IO&#45;&gt;X::OS</title>
<path fill="none" stroke="#6666ff" d="M874.326,-107.589C878.63,-115.958 883.944,-126.29 888.747,-135.63"/>
<polygon fill="#6666ff" stroke="#6666ff" points="885.638,-137.238 893.324,-144.53 891.863,-134.036 885.638,-137.238"/>
</g>
<!-- X::IO&#45;&gt;Exception -->
<g id="edge4" class="edge"><title>X::IO&#45;&gt;Exception</title>
<path fill="none" stroke="#000000" d="M863.541,-108.061C861.495,-123.555 858.795,-144 858.795,-144 858.795,-144 858.795,-180 858.795,-180 858.795,-180 937.768,-203.383 990.803,-219.086"/>
<polygon fill="#000000" stroke="#000000" points="990.124,-222.535 1000.71,-222.018 992.111,-215.823 990.124,-222.535"/>
</g>
<!-- X::IO::Rmdir -->
<g id="node6" class="node"><title>X::IO::Rmdir</title>
<g id="a_node6"><a xlink:href="/type/X::IO::Rmdir" xlink:title="X::IO::Rmdir">
<ellipse fill="none" stroke="#000000" cx="59.7947" cy="-18" rx="59.5901" ry="18"/>
<text text-anchor="middle" x="59.7947" y="-14.3" font-family="FreeSans" font-size="14.00" fill="#000000">X::IO::Rmdir</text>
</a>
</g>
</g>
<!-- X::IO::Rmdir&#45;&gt;Exception -->
<g id="edge5" class="edge"><title>X::IO::Rmdir&#45;&gt;Exception</title>
<path fill="none" stroke="#000000" d="M94.8968,-32.7268C200.928,-71.6611 509.795,-180 509.795,-180 509.795,-180 843.108,-214.038 980.14,-227.558"/>
<polygon fill="#000000" stroke="#000000" points="980.146,-231.076 990.441,-228.572 980.832,-224.11 980.146,-231.076"/>
</g>
<!-- X::IO::Rmdir&#45;&gt;Exception -->
<g id="edge6" class="edge"><title>X::IO::Rmdir&#45;&gt;Exception</title>
<path fill="none" stroke="#000000" d="M99.7004,-31.6334C213.017,-69.5876 527.795,-180 527.795,-180 527.795,-180 848.561,-212.756 981.374,-226.766"/>
<polygon fill="#000000" stroke="#000000" points="981.05,-230.251 991.362,-227.822 981.785,-223.29 981.05,-230.251"/>
</g>
<!-- X::IO::Rmdir&#45;&gt;X::IO -->
<g id="edge38" class="edge"><title>X::IO::Rmdir&#45;&gt;X::IO</title>
<path fill="none" stroke="#6666ff" d="M104.662,-30.0542C117.841,-33.3012 128.795,-36 128.795,-36 128.795,-36 670.407,-74.9491 825.031,-86.0685"/>
<polygon fill="#6666ff" stroke="#6666ff" points="824.84,-89.5637 835.065,-86.7901 825.342,-82.5818 824.84,-89.5637"/>
</g>
<!-- X::IO::Dir -->
<g id="node7" class="node"><title>X::IO::Dir</title>
<g id="a_node7"><a xlink:href="/type/X::IO::Dir" xlink:title="X::IO::Dir">
<ellipse fill="none" stroke="#000000" cx="184.795" cy="-18" rx="47.3916" ry="18"/>
<text text-anchor="middle" x="184.795" y="-14.3" font-family="FreeSans" font-size="14.00" fill="#000000">X::IO::Dir</text>
</a>
</g>
</g>
<!-- X::IO::Dir&#45;&gt;Exception -->
<g id="edge7" class="edge"><title>X::IO::Dir&#45;&gt;Exception</title>
<path fill="none" stroke="#000000" d="M215.332,-31.9032C312.294,-70.1078 605.795,-180 605.795,-180 605.795,-180 863.883,-212.337 981.156,-226.494"/>
<polygon fill="#000000" stroke="#000000" points="981.032,-230.004 991.379,-227.724 981.869,-223.054 981.032,-230.004"/>
</g>
<!-- X::IO::Dir&#45;&gt;Exception -->
<g id="edge8" class="edge"><title>X::IO::Dir&#45;&gt;Exception</title>
<path fill="none" stroke="#000000" d="M219.099,-30.4497C322.612,-67.2316 623.795,-180 623.795,-180 623.795,-180 869.012,-210.725 982.064,-225.387"/>
<polygon fill="#000000" stroke="#000000" points="981.886,-228.893 992.254,-226.712 982.788,-221.952 981.886,-228.893"/>
</g>
<!-- X::IO::Dir&#45;&gt;X::IO -->
<g id="edge39" class="edge"><title>X::IO::Dir&#45;&gt;X::IO</title>
<path fill="none" stroke="#6666ff" d="M220.577,-29.8626C231.553,-33.1943 240.795,-36 240.795,-36 240.795,-36 685.23,-73.6881 824.547,-85.5022"/>
<polygon fill="#6666ff" stroke="#6666ff" points="824.541,-89.0141 834.801,-86.3717 825.132,-82.0392 824.541,-89.0141"/>
</g>
<!-- X::IO::Symlink -->
<g id="node8" class="node"><title>X::IO::Symlink</title>
<g id="a_node8"><a xlink:href="/type/X::IO::Symlink" xlink:title="X::IO::Symlink">
<ellipse fill="none" stroke="#000000" cx="317.795" cy="-18" rx="67.6881" ry="18"/>
<text text-anchor="middle" x="317.795" y="-14.3" font-family="FreeSans" font-size="14.00" fill="#000000">X::IO::Symlink</text>
</a>
</g>
</g>
<!-- X::IO::Symlink&#45;&gt;Exception -->
<g id="edge9" class="edge"><title>X::IO::Symlink&#45;&gt;Exception</title>
<path fill="none" stroke="#000000" d="M349.292,-34.0019C439.562,-73.9702 691.795,-180 691.795,-180 691.795,-180 884.623,-210.326 982.452,-225.099"/>
<polygon fill="#000000" stroke="#000000" points="982.059,-228.579 992.468,-226.607 983.101,-221.657 982.059,-228.579"/>
</g>
<!-- X::IO::Symlink&#45;&gt;Exception -->
<g id="edge10" class="edge"><title>X::IO::Symlink&#45;&gt;Exception</title>
<path fill="none" stroke="#000000" d="M355.181,-33.006C453.295,-72.1764 709.795,-180 709.795,-180 709.795,-180 890.987,-208.496 984.103,-223.699"/>
<polygon fill="#000000" stroke="#000000" points="983.755,-227.188 994.19,-225.35 984.886,-220.28 983.755,-227.188"/>
</g>
<!-- X::IO::Symlink&#45;&gt;X::IO -->
<g id="edge40" class="edge"><title>X::IO::Symlink&#45;&gt;X::IO</title>
<path fill="none" stroke="#6666ff" d="M368.065,-30.2446C382.198,-33.406 393.795,-36 393.795,-36 393.795,-36 710.513,-71.5637 825.067,-84.4268"/>
<polygon fill="#6666ff" stroke="#6666ff" points="824.861,-87.9255 835.189,-85.5634 825.642,-80.9693 824.861,-87.9255"/>
</g>
<!-- X::IO::Move -->
<g id="node9" class="node"><title>X::IO::Move</title>
<g id="a_node9"><a xlink:href="/type/X::IO::Move" xlink:title="X::IO::Move">
<ellipse fill="none" stroke="#000000" cx="460.795" cy="-18" rx="57.6901" ry="18"/>
<text text-anchor="middle" x="460.795" y="-14.3" font-family="FreeSans" font-size="14.00" fill="#000000">X::IO::Move</text>
</a>
</g>
</g>
<!-- X::IO::Move&#45;&gt;Exception -->
<g id="edge11" class="edge"><title>X::IO::Move&#45;&gt;Exception</title>
<path fill="none" stroke="#000000" d="M486.109,-34.2916C558.964,-74.4799 762.795,-180 762.795,-180 762.795,-180 904.367,-208.208 984.442,-223.466"/>
<polygon fill="#000000" stroke="#000000" points="983.885,-226.923 994.362,-225.35 985.191,-220.046 983.885,-226.923"/>
</g>
<!-- X::IO::Move&#45;&gt;Exception -->
<g id="edge12" class="edge"><title>X::IO::Move&#45;&gt;Exception</title>
<path fill="none" stroke="#000000" d="M492.206,-33.1466C573.011,-72.4335 780.795,-180 780.795,-180 780.795,-180 911.651,-206.073 986.697,-221.644"/>
<polygon fill="#000000" stroke="#000000" points="986.393,-225.156 996.897,-223.768 987.82,-218.303 986.393,-225.156"/>
</g>
<!-- X::IO::Move&#45;&gt;X::IO -->
<g id="edge41" class="edge"><title>X::IO::Move&#45;&gt;X::IO</title>
<path fill="none" stroke="#6666ff" d="M504.361,-30.0542C517.158,-33.3012 527.795,-36 527.795,-36 527.795,-36 736.744,-68.7642 826.069,-82.7707"/>
<polygon fill="#6666ff" stroke="#6666ff" points="825.674,-86.2516 836.096,-84.3431 826.759,-79.3361 825.674,-86.2516"/>
</g>
<!-- X::IO::Unlink -->
<g id="node10" class="node"><title>X::IO::Unlink</title>
<g id="a_node10"><a xlink:href="/type/X::IO::Unlink" xlink:title="X::IO::Unlink">
<ellipse fill="none" stroke="#000000" cx="597.795" cy="-18" rx="61.1893" ry="18"/>
<text text-anchor="middle" x="597.795" y="-14.3" font-family="FreeSans" font-size="14.00" fill="#000000">X::IO::Unlink</text>
</a>
</g>
</g>
<!-- X::IO::Unlink&#45;&gt;Exception -->
<g id="edge13" class="edge"><title>X::IO::Unlink&#45;&gt;Exception</title>
<path fill="none" stroke="#000000" d="M616.364,-35.3235C669.164,-76.2544 814.795,-180 814.795,-180 814.795,-180 920.604,-206.205 986.55,-221.762"/>
<polygon fill="#000000" stroke="#000000" points="985.835,-225.19 996.371,-224.069 987.436,-218.375 985.835,-225.19"/>
</g>
<!-- X::IO::Unlink&#45;&gt;Exception -->
<g id="edge14" class="edge"><title>X::IO::Unlink&#45;&gt;Exception</title>
<path fill="none" stroke="#000000" d="M623.706,-34.4374C685.031,-74.7344 832.795,-180 832.795,-180 832.795,-180 929.85,-204.037 990.489,-219.736"/>
<polygon fill="#000000" stroke="#000000" points="989.696,-223.146 1000.25,-222.275 991.457,-216.371 989.696,-223.146"/>
</g>
<!-- X::IO::Unlink&#45;&gt;X::IO -->
<g id="edge42" class="edge"><title>X::IO::Unlink&#45;&gt;X::IO</title>
<path fill="none" stroke="#6666ff" d="M642.049,-30.5591C693.96,-44.1178 779.126,-66.3627 828.048,-79.1407"/>
<polygon fill="#6666ff" stroke="#6666ff" points="827.352,-82.5763 837.912,-81.7171 829.121,-75.8035 827.352,-82.5763"/>
</g>
<!-- X::IO::Link -->
<g id="node11" class="node"><title>X::IO::Link</title>
<g id="a_node11"><a xlink:href="/type/X::IO::Link" xlink:title="X::IO::Link">
<ellipse fill="none" stroke="#000000" cx="729.795" cy="-18" rx="53.0913" ry="18"/>
<text text-anchor="middle" x="729.795" y="-14.3" font-family="FreeSans" font-size="14.00" fill="#000000">X::IO::Link</text>
</a>
</g>
</g>
<!-- X::IO::Link&#45;&gt;Exception -->
<g id="edge15" class="edge"><title>X::IO::Link&#45;&gt;Exception</title>
<path fill="none" stroke="#000000" d="M738.523,-35.9255C766.029,-77.2617 845.795,-180 845.795,-180 845.795,-180 931.304,-204.765 988.295,-220.438"/>
<polygon fill="#000000" stroke="#000000" points="987.658,-223.892 998.227,-223.155 989.505,-217.14 987.658,-223.892"/>
</g>
<!-- X::IO::Link&#45;&gt;Exception -->
<g id="edge16" class="edge"><title>X::IO::Link&#45;&gt;Exception</title>
<path fill="none" stroke="#000000" d="M746.813,-35.3235C783.247,-76.2544 863.795,-180 863.795,-180 863.795,-180 941.441,-202.488 993.091,-218.167"/>
<polygon fill="#000000" stroke="#000000" points="992.14,-221.536 1002.73,-221.106 994.182,-214.84 992.14,-221.536"/>
</g>
<!-- X::IO::Link&#45;&gt;X::IO -->
<g id="edge43" class="edge"><title>X::IO::Link&#45;&gt;X::IO</title>
<path fill="none" stroke="#6666ff" d="M757.974,-33.504C780.13,-44.9077 810.993,-60.7934 834.025,-72.6479"/>
<polygon fill="#6666ff" stroke="#6666ff" points="832.562,-75.8314 843.055,-77.2959 835.766,-69.6074 832.562,-75.8314"/>
</g>
<!-- X::IO::Chmod -->
<g id="node12" class="node"><title>X::IO::Chmod</title>
<g id="a_node12"><a xlink:href="/type/X::IO::Chmod" xlink:title="X::IO::Chmod">
<ellipse fill="none" stroke="#000000" cx="865.795" cy="-18" rx="64.189" ry="18"/>
<text text-anchor="middle" x="865.795" y="-14.3" font-family="FreeSans" font-size="14.00" fill="#000000">X::IO::Chmod</text>
</a>
</g>
</g>
<!-- X::IO::Chmod&#45;&gt;Exception -->
<g id="edge17" class="edge"><title>X::IO::Chmod&#45;&gt;Exception</title>
<path fill="none" stroke="#000000" d="M875.702,-36.1508C902.682,-74.2461 976.219,-165.966 1014.42,-209.415"/>
<polygon fill="#000000" stroke="#000000" points="1011.85,-211.801 1021.12,-216.943 1017.08,-207.146 1011.85,-211.801"/>
</g>
<!-- X::IO::Chmod&#45;&gt;Exception -->
<g id="edge18" class="edge"><title>X::IO::Chmod&#45;&gt;Exception</title>
<path fill="none" stroke="#000000" d="M882.814,-35.4369C916.422,-72.6896 989.841,-163.739 1022.24,-208.011"/>
<polygon fill="#000000" stroke="#000000" points="1019.46,-210.144 1028.14,-216.212 1025.14,-206.052 1019.46,-210.144"/>
</g>
<!-- X::IO::Chmod&#45;&gt;X::IO -->
<g id="edge44" class="edge"><title>X::IO::Chmod&#45;&gt;X::IO</title>
<path fill="none" stroke="#6666ff" d="M865.795,-36.3034C865.795,-44.0173 865.795,-53.2875 865.795,-61.8876"/>
<polygon fill="#6666ff" stroke="#6666ff" points="862.295,-61.8956 865.795,-71.8957 869.295,-61.8957 862.295,-61.8956"/>
</g>
<!-- X::IO::DoesNotExist -->
<g id="node13" class="node"><title>X::IO::DoesNotExist</title>
<g id="a_node13"><a xlink:href="/type/X::IO::DoesNotExist" xlink:title="X::IO::DoesNotExist">
<ellipse fill="none" stroke="#000000" cx="1037.79" cy="-18" rx="89.8845" ry="18"/>
<text text-anchor="middle" x="1037.79" y="-14.3" font-family="FreeSans" font-size="14.00" fill="#000000">X::IO::DoesNotExist</text>
</a>
</g>
</g>
<!-- X::IO::DoesNotExist&#45;&gt;Exception -->
<g id="edge19" class="edge"><title>X::IO::DoesNotExist&#45;&gt;Exception</title>
<path fill="none" stroke="#000000" d="M1030.04,-36.1508C1022.95,-73.2599 1022.42,-161.253 1028.45,-205.946"/>
<polygon fill="#000000" stroke="#000000" points="1025.04,-206.747 1030.08,-216.065 1031.95,-205.636 1025.04,-206.747"/>
</g>
<!-- X::IO::DoesNotExist&#45;&gt;Exception -->
<g id="edge20" class="edge"><title>X::IO::DoesNotExist&#45;&gt;Exception</title>
<path fill="none" stroke="#000000" d="M1037.79,-36.1508C1037.79,-73.1683 1037.79,-160.819 1037.79,-205.614"/>
<polygon fill="#000000" stroke="#000000" points="1034.29,-205.768 1037.79,-215.768 1041.29,-205.768 1034.29,-205.768"/>
</g>
<!-- X::IO::DoesNotExist&#45;&gt;Exception -->
<g id="edge21" class="edge"><title>X::IO::DoesNotExist&#45;&gt;Exception</title>
<path fill="none" stroke="#000000" d="M1045.55,-36.1508C1052.64,-73.2599 1053.17,-161.253 1047.13,-205.946"/>
<polygon fill="#000000" stroke="#000000" points="1043.64,-205.636 1045.51,-216.065 1050.55,-206.747 1043.64,-205.636"/>
</g>
<!-- X::IO::DoesNotExist&#45;&gt;X::IO -->
<g id="edge45" class="edge"><title>X::IO::DoesNotExist&#45;&gt;X::IO</title>
<path fill="none" stroke="#6666ff" d="M1000.05,-34.3618C970.108,-46.547 928.63,-63.4277 899.73,-75.1892"/>
<polygon fill="#6666ff" stroke="#6666ff" points="898.389,-71.9561 890.446,-78.9675 901.028,-78.4397 898.389,-71.9561"/>
</g>
<!-- X::IO::Cwd -->
<g id="node14" class="node"><title>X::IO::Cwd</title>
<g id="a_node14"><a xlink:href="/type/X::IO::Cwd" xlink:title="X::IO::Cwd">
<ellipse fill="none" stroke="#000000" cx="1199.79" cy="-18" rx="53.8905" ry="18"/>
<text text-anchor="middle" x="1199.79" y="-14.3" font-family="FreeSans" font-size="14.00" fill="#000000">X::IO::Cwd</text>
</a>
</g>
</g>
<!-- X::IO::Cwd&#45;&gt;Exception -->
<g id="edge22" class="edge"><title>X::IO::Cwd&#45;&gt;Exception</title>
<path fill="none" stroke="#000000" d="M1180.07,-35.0848C1144.9,-71.8379 1075.92,-162.243 1048.27,-207.014"/>
<polygon fill="#000000" stroke="#000000" points="1045.13,-205.455 1043.03,-215.839 1051.15,-209.031 1045.13,-205.455"/>
</g>
<!-- X::IO::Cwd&#45;&gt;Exception -->
<g id="edge23" class="edge"><title>X::IO::Cwd&#45;&gt;Exception</title>
<path fill="none" stroke="#000000" d="M1187.08,-35.7922C1158.69,-73.2961 1090.01,-164.027 1056.63,-208.119"/>
<polygon fill="#000000" stroke="#000000" points="1053.69,-206.2 1050.45,-216.286 1059.27,-210.425 1053.69,-206.2"/>
</g>
<!-- X::IO::Cwd&#45;&gt;Exception -->
<g id="edge24" class="edge"><title>X::IO::Cwd&#45;&gt;Exception</title>
<path fill="none" stroke="#000000" d="M1194.57,-36.1508C1172.95,-74.3395 1103.6,-166.416 1064.2,-209.734"/>
<polygon fill="#000000" stroke="#000000" points="1061.47,-207.53 1057.22,-217.231 1066.59,-212.303 1061.47,-207.53"/>
</g>
<!-- X::IO::Cwd&#45;&gt;X::IO -->
<g id="edge46" class="edge"><title>X::IO::Cwd&#45;&gt;X::IO</title>
<path fill="none" stroke="#6666ff" d="M1159.18,-29.9586C1146.99,-33.248 1136.79,-36 1136.79,-36 1136.79,-36 979.821,-66.6997 904.812,-81.3694"/>
<polygon fill="#6666ff" stroke="#6666ff" points="903.939,-77.9737 894.796,-83.3281 905.282,-84.8436 903.939,-77.9737"/>
</g>
<!-- X::IO::Mkdir -->
<g id="node15" class="node"><title>X::IO::Mkdir</title>
<g id="a_node15"><a xlink:href="/type/X::IO::Mkdir" xlink:title="X::IO::Mkdir">
<ellipse fill="none" stroke="#000000" cx="1329.79" cy="-18" rx="58.4896" ry="18"/>
<text text-anchor="middle" x="1329.79" y="-14.3" font-family="FreeSans" font-size="14.00" fill="#000000">X::IO::Mkdir</text>
</a>
</g>
</g>
<!-- X::IO::Mkdir&#45;&gt;Exception -->
<g id="edge25" class="edge"><title>X::IO::Mkdir&#45;&gt;Exception</title>
<path fill="none" stroke="#000000" d="M1302.09,-34.1465C1241.48,-74.2252 1106.79,-180 1106.79,-180 1106.79,-180 1080.21,-196.193 1059.48,-210.678"/>
<polygon fill="#000000" stroke="#000000" points="1057.41,-207.851 1051.32,-216.521 1061.49,-213.541 1057.41,-207.851"/>
</g>
<!-- X::IO::Mkdir&#45;&gt;Exception -->
<g id="edge26" class="edge"><title>X::IO::Mkdir&#45;&gt;Exception</title>
<path fill="none" stroke="#000000" d="M1309.39,-35.0259C1257.54,-75.749 1124.79,-180 1124.79,-180 1124.79,-180 1095.43,-197.89 1070.82,-212.883"/>
<polygon fill="#000000" stroke="#000000" points="1068.75,-210.045 1062.03,-218.237 1072.39,-216.023 1068.75,-210.045"/>
</g>
<!-- X::IO::Mkdir&#45;&gt;Exception -->
<g id="edge27" class="edge"><title>X::IO::Mkdir&#45;&gt;Exception</title>
<path fill="none" stroke="#000000" d="M1317.39,-35.6234C1274.25,-76.7587 1142.79,-180 1142.79,-180 1142.79,-180 1109.41,-200.341 1079.72,-215.82"/>
<polygon fill="#000000" stroke="#000000" points="1077.98,-212.777 1070.66,-220.44 1081.16,-219.012 1077.98,-212.777"/>
</g>
<!-- X::IO::Mkdir&#45;&gt;X::IO -->
<g id="edge47" class="edge"><title>X::IO::Mkdir&#45;&gt;X::IO</title>
<path fill="none" stroke="#6666ff" d="M1286.23,-30.0542C1273.43,-33.3012 1262.79,-36 1262.79,-36 1262.79,-36 1007.03,-70.145 906.078,-83.6221"/>
<polygon fill="#6666ff" stroke="#6666ff" points="905.409,-80.1803 895.96,-84.9729 906.335,-87.1187 905.409,-80.1803"/>
</g>
<!-- X::IO::Chdir -->
<g id="node16" class="node"><title>X::IO::Chdir</title>
<g id="a_node16"><a xlink:href="/type/X::IO::Chdir" xlink:title="X::IO::Chdir">
<ellipse fill="none" stroke="#000000" cx="1463.79" cy="-18" rx="57.3905" ry="18"/>
<text text-anchor="middle" x="1463.79" y="-14.3" font-family="FreeSans" font-size="14.00" fill="#000000">X::IO::Chdir</text>
</a>
</g>
</g>
<!-- X::IO::Chdir&#45;&gt;Exception -->
<g id="edge28" class="edge"><title>X::IO::Chdir&#45;&gt;Exception</title>
<path fill="none" stroke="#000000" d="M1431.24,-32.8661C1352.45,-71.9189 1161.79,-180 1161.79,-180 1161.79,-180 1110.26,-199.234 1073.22,-214.528"/>
<polygon fill="#000000" stroke="#000000" points="1071.56,-211.429 1063.68,-218.518 1074.26,-217.887 1071.56,-211.429"/>
</g>
<!-- X::IO::Chdir&#45;&gt;Exception -->
<g id="edge29" class="edge"><title>X::IO::Chdir&#45;&gt;Exception</title>
<path fill="none" stroke="#000000" d="M1437.33,-34.0019C1366.83,-73.9702 1179.79,-180 1179.79,-180 1179.79,-180 1122.36,-201.439 1080.54,-217.046"/>
<polygon fill="#000000" stroke="#000000" points="1079.23,-213.798 1071.09,-220.574 1081.68,-220.356 1079.23,-213.798"/>
</g>
<!-- X::IO::Chdir&#45;&gt;Exception -->
<g id="edge30" class="edge"><title>X::IO::Chdir&#45;&gt;Exception</title>
<path fill="none" stroke="#000000" d="M1444.15,-35.0259C1381.69,-75.749 1197.79,-180 1197.79,-180 1197.79,-180 1133.59,-203.964 1086.05,-219.664"/>
<polygon fill="#000000" stroke="#000000" points="1084.91,-216.354 1076.49,-222.781 1087.08,-223.009 1084.91,-216.354"/>
</g>
<!-- X::IO::Chdir&#45;&gt;X::IO -->
<g id="edge48" class="edge"><title>X::IO::Chdir&#45;&gt;X::IO</title>
<path fill="none" stroke="#6666ff" d="M1420.61,-29.9586C1407.64,-33.248 1396.79,-36 1396.79,-36 1396.79,-36 1030.73,-72.5375 906.483,-84.9388"/>
<polygon fill="#6666ff" stroke="#6666ff" points="905.854,-81.4842 896.251,-85.9601 906.549,-88.4496 905.854,-81.4842"/>
</g>
<!-- X::IO::Rename -->
<g id="node17" class="node"><title>X::IO::Rename</title>
<g id="a_node17"><a xlink:href="/type/X::IO::Rename" xlink:title="X::IO::Rename">
<ellipse fill="none" stroke="#000000" cx="1608.79" cy="-18" rx="69.5877" ry="18"/>
<text text-anchor="middle" x="1608.79" y="-14.3" font-family="FreeSans" font-size="14.00" fill="#000000">X::IO::Rename</text>
</a>
</g>
</g>
<!-- X::IO::Rename&#45;&gt;Exception -->
<g id="edge31" class="edge"><title>X::IO::Rename&#45;&gt;Exception</title>
<path fill="none" stroke="#000000" d="M1569.17,-32.8661C1470.49,-71.9189 1224.79,-180 1224.79,-180 1224.79,-180 1137.58,-202.547 1081.92,-218.229"/>
<polygon fill="#000000" stroke="#000000" points="1080.92,-214.874 1072.26,-220.973 1082.84,-221.607 1080.92,-214.874"/>
</g>
<!-- X::IO::Rename&#45;&gt;Exception -->
<g id="edge32" class="edge"><title>X::IO::Rename&#45;&gt;Exception</title>
<path fill="none" stroke="#000000" d="M1575.02,-33.8579C1484.41,-73.7148 1242.79,-180 1242.79,-180 1242.79,-180 1147.25,-204.702 1086.62,-220.378"/>
<polygon fill="#000000" stroke="#000000" points="1085.64,-217.015 1076.84,-222.906 1087.39,-223.792 1085.64,-217.015"/>
</g>
<!-- X::IO::Rename&#45;&gt;Exception -->
<g id="edge33" class="edge"><title>X::IO::Rename&#45;&gt;Exception</title>
<path fill="none" stroke="#000000" d="M1581.59,-34.7305C1498.94,-75.2423 1260.79,-180 1260.79,-180 1260.79,-180 1156.47,-206.972 1090.13,-222.434"/>
<polygon fill="#000000" stroke="#000000" points="1089.19,-219.059 1080.23,-224.719 1090.76,-225.879 1089.19,-219.059"/>
</g>
<!-- X::IO::Rename&#45;&gt;X::IO -->
<g id="edge49" class="edge"><title>X::IO::Rename&#45;&gt;X::IO</title>
<path fill="none" stroke="#6666ff" d="M1556.98,-30.1496C1542.09,-33.3539 1529.79,-36 1529.79,-36 1529.79,-36 1051.32,-74.1911 906.706,-85.7345"/>
<polygon fill="#6666ff" stroke="#6666ff" points="906.179,-82.2653 896.489,-86.55 906.736,-89.2431 906.179,-82.2653"/>
</g>
<!-- X::IO::Copy -->
<g id="node18" class="node"><title>X::IO::Copy</title>
<g id="a_node18"><a xlink:href="/type/X::IO::Copy" xlink:title="X::IO::Copy">
<ellipse fill="none" stroke="#000000" cx="1752.79" cy="-18" rx="56.59" ry="18"/>
<text text-anchor="middle" x="1752.79" y="-14.3" font-family="FreeSans" font-size="14.00" fill="#000000">X::IO::Copy</text>
</a>
</g>
</g>
<!-- X::IO::Copy&#45;&gt;Exception -->
<g id="edge34" class="edge"><title>X::IO::Copy&#45;&gt;Exception</title>
<path fill="none" stroke="#000000" d="M1713.03,-30.8387C1601.44,-68.0197 1296.79,-180 1296.79,-180 1296.79,-180 1162.86,-205.626 1087.31,-221.24"/>
<polygon fill="#000000" stroke="#000000" points="1086.58,-217.816 1077.5,-223.279 1088.01,-224.67 1086.58,-217.816"/>
</g>
<!-- X::IO::Copy&#45;&gt;Exception -->
<g id="edge35" class="edge"><title>X::IO::Copy&#45;&gt;Exception</title>
<path fill="none" stroke="#000000" d="M1717.32,-32.0389C1613.05,-70.3675 1314.79,-180 1314.79,-180 1314.79,-180 1170.75,-207.56 1090.41,-222.932"/>
<polygon fill="#000000" stroke="#000000" points="1089.63,-219.518 1080.47,-224.835 1090.95,-226.393 1089.63,-219.518"/>
</g>
<!-- X::IO::Copy&#45;&gt;Exception -->
<g id="edge36" class="edge"><title>X::IO::Copy&#45;&gt;Exception</title>
<path fill="none" stroke="#000000" d="M1722.13,-33.2877C1624.73,-72.6904 1332.79,-180 1332.79,-180 1332.79,-180 1178.62,-209.499 1092.84,-224.481"/>
<polygon fill="#000000" stroke="#000000" points="1091.99,-221.077 1082.74,-226.234 1093.19,-227.974 1091.99,-221.077"/>
</g>
<!-- X::IO::Copy&#45;&gt;X::IO -->
<g id="edge50" class="edge"><title>X::IO::Copy&#45;&gt;X::IO</title>
<path fill="none" stroke="#6666ff" d="M1710.53,-30.0542C1698.11,-33.3012 1687.79,-36 1687.79,-36 1687.79,-36 1074.39,-75.5502 907.36,-86.32"/>
<polygon fill="#6666ff" stroke="#6666ff" points="906.768,-82.8508 897.014,-86.9871 907.219,-89.8363 906.768,-82.8508"/>
</g>
</g>
</svg>
