<?xml version="1.0" encoding="UTF-8" standalone="no"?>
<!DOCTYPE svg PUBLIC "-//W3C//DTD SVG 1.1//EN"
 "http://www.w3.org/Graphics/SVG/1.1/DTD/svg11.dtd">
<!-- Generated by graphviz version 2.38.0 (20140413.2041)
 -->
<!-- Title: perl6&#45;type&#45;graph Pages: 1 -->
<svg width="778pt" height="476pt"
 viewBox="0.00 0.00 778.49 476.00" xmlns="http://www.w3.org/2000/svg" xmlns:xlink="http://www.w3.org/1999/xlink">
<g id="graph0" class="graph" transform="scale(1 1) rotate(0) translate(4 472)">
<title>perl6&#45;type&#45;graph</title>
<polygon fill="white" stroke="none" points="-4,4 -4,-472 774.493,-472 774.493,4 -4,4"/>
<!-- Associative -->
<g id="node1" class="node"><title>Associative</title>
<g id="a_node1"><a xlink:href="/type/Associative" xlink:title="Associative">
<ellipse fill="none" stroke="#6666ff" cx="55.2451" cy="-450" rx="55.4913" ry="18"/>
<text text-anchor="middle" x="55.2451" y="-446.3" font-family="FreeSans" font-size="14.00" fill="#6666ff">Associative</text>
</a>
</g>
</g>
<!-- Mu -->
<g id="node2" class="node"><title>Mu</title>
<g id="a_node2"><a xlink:href="/type/Mu" xlink:title="Mu">
<ellipse fill="none" stroke="#000000" cx="333.245" cy="-378" rx="27" ry="18"/>
<text text-anchor="middle" x="333.245" y="-374.3" font-family="FreeSans" font-size="14.00" fill="#000000">Mu</text>
</a>
</g>
</g>
<!-- Any -->
<g id="node3" class="node"><title>Any</title>
<g id="a_node3"><a xlink:href="/type/Any" xlink:title="Any">
<ellipse fill="none" stroke="#000000" cx="333.245" cy="-306" rx="27" ry="18"/>
<text text-anchor="middle" x="333.245" y="-302.3" font-family="FreeSans" font-size="14.00" fill="#000000">Any</text>
</a>
</g>
</g>
<!-- Any&#45;&gt;Mu -->
<g id="edge1" class="edge"><title>Any&#45;&gt;Mu</title>
<path fill="none" stroke="#000000" d="M333.245,-324.303C333.245,-332.017 333.245,-341.288 333.245,-349.888"/>
<polygon fill="#000000" stroke="#000000" points="329.745,-349.896 333.245,-359.896 336.745,-349.896 329.745,-349.896"/>
</g>
<!-- Pair -->
<g id="node4" class="node"><title>Pair</title>
<g id="a_node4"><a xlink:href="/type/Pair" xlink:title="Pair">
<ellipse fill="none" stroke="#000000" cx="55.2451" cy="-234" rx="27" ry="18"/>
<text text-anchor="middle" x="55.2451" y="-230.3" font-family="FreeSans" font-size="14.00" fill="#000000">Pair</text>
</a>
</g>
</g>
<!-- Pair&#45;&gt;Associative -->
<g id="edge14" class="edge"><title>Pair&#45;&gt;Associative</title>
<path fill="none" stroke="#6666ff" d="M55.2451,-252.151C55.2451,-289.168 55.2451,-376.819 55.2451,-421.614"/>
<polygon fill="#6666ff" stroke="#6666ff" points="51.7452,-421.768 55.2451,-431.768 58.7452,-421.768 51.7452,-421.768"/>
</g>
<!-- Pair&#45;&gt;Any -->
<g id="edge2" class="edge"><title>Pair&#45;&gt;Any</title>
<path fill="none" stroke="#000000" d="M76.6025,-245.085C84.3545,-248.746 91.2451,-252 91.2451,-252 91.2451,-252 230.386,-282.473 297.657,-297.206"/>
<polygon fill="#000000" stroke="#000000" points="297.287,-300.708 307.804,-299.428 298.785,-293.87 297.287,-300.708"/>
</g>
<!-- QuantHash -->
<g id="node5" class="node"><title>QuantHash</title>
<g id="a_node5"><a xlink:href="/type/QuantHash" xlink:title="QuantHash">
<ellipse fill="none" stroke="#6666ff" cx="445.245" cy="-378" rx="55.7903" ry="18"/>
<text text-anchor="middle" x="445.245" y="-374.3" font-family="FreeSans" font-size="14.00" fill="#6666ff">QuantHash</text>
</a>
</g>
</g>
<!-- QuantHash&#45;&gt;Associative -->
<g id="edge15" class="edge"><title>QuantHash&#45;&gt;Associative</title>
<path fill="none" stroke="#6666ff" d="M400.596,-388.987C384.053,-392.688 369.245,-396 369.245,-396 369.245,-396 203.869,-423.914 113.152,-439.226"/>
<polygon fill="#6666ff" stroke="#6666ff" points="112.555,-435.777 103.277,-440.893 113.72,-442.679 112.555,-435.777"/>
</g>
<!-- Cool -->
<g id="node6" class="node"><title>Cool</title>
<g id="a_node6"><a xlink:href="/type/Cool" xlink:title="Cool">
<ellipse fill="none" stroke="#000000" cx="227.245" cy="-234" rx="28.6953" ry="18"/>
<text text-anchor="middle" x="227.245" y="-230.3" font-family="FreeSans" font-size="14.00" fill="#000000">Cool</text>
</a>
</g>
</g>
<!-- Cool&#45;&gt;Any -->
<g id="edge3" class="edge"><title>Cool&#45;&gt;Any</title>
<path fill="none" stroke="#000000" d="M246.196,-247.515C262.955,-258.582 287.591,-274.851 306.381,-287.259"/>
<polygon fill="#000000" stroke="#000000" points="304.54,-290.238 314.813,-292.828 308.398,-284.397 304.54,-290.238"/>
</g>
<!-- Iterable -->
<g id="node7" class="node"><title>Iterable</title>
<g id="a_node7"><a xlink:href="/type/Iterable" xlink:title="Iterable">
<ellipse fill="none" stroke="#6666ff" cx="140.245" cy="-234" rx="40.0939" ry="18"/>
<text text-anchor="middle" x="140.245" y="-230.3" font-family="FreeSans" font-size="14.00" fill="#6666ff">Iterable</text>
</a>
</g>
</g>
<!-- Map -->
<g id="node8" class="node"><title>Map</title>
<g id="a_node8"><a xlink:href="/type/Map" xlink:title="Map">
<ellipse fill="none" stroke="#000000" cx="140.245" cy="-162" rx="28.6953" ry="18"/>
<text text-anchor="middle" x="140.245" y="-158.3" font-family="FreeSans" font-size="14.00" fill="#000000">Map</text>
</a>
</g>
</g>
<!-- Map&#45;&gt;Associative -->
<g id="edge17" class="edge"><title>Map&#45;&gt;Associative</title>
<path fill="none" stroke="#6666ff" d="M117.486,-172.969C82.4352,-188.322 19.2451,-216 19.2451,-216 19.2451,-216 19.2451,-252 19.2451,-252 19.2451,-252 40.4352,-367.957 50.3008,-421.944"/>
<polygon fill="#6666ff" stroke="#6666ff" points="46.8726,-422.654 52.1133,-431.862 53.7586,-421.396 46.8726,-422.654"/>
</g>
<!-- Map&#45;&gt;Cool -->
<g id="edge4" class="edge"><title>Map&#45;&gt;Cool</title>
<path fill="none" stroke="#000000" d="M157.433,-176.83C170.266,-187.155 187.993,-201.418 202.371,-212.987"/>
<polygon fill="#000000" stroke="#000000" points="200.403,-215.895 210.388,-219.437 204.791,-210.441 200.403,-215.895"/>
</g>
<!-- Map&#45;&gt;Iterable -->
<g id="edge16" class="edge"><title>Map&#45;&gt;Iterable</title>
<path fill="none" stroke="#6666ff" d="M140.245,-180.303C140.245,-188.017 140.245,-197.288 140.245,-205.888"/>
<polygon fill="#6666ff" stroke="#6666ff" points="136.745,-205.896 140.245,-215.896 143.745,-205.896 136.745,-205.896"/>
</g>
<!-- PseudoStash -->
<g id="node9" class="node"><title>PseudoStash</title>
<g id="a_node9"><a xlink:href="/type/PseudoStash" xlink:title="PseudoStash">
<ellipse fill="none" stroke="#000000" cx="84.2451" cy="-90" rx="63.0888" ry="18"/>
<text text-anchor="middle" x="84.2451" y="-86.3" font-family="FreeSans" font-size="14.00" fill="#000000">PseudoStash</text>
</a>
</g>
</g>
<!-- PseudoStash&#45;&gt;Map -->
<g id="edge5" class="edge"><title>PseudoStash&#45;&gt;Map</title>
<path fill="none" stroke="#000000" d="M97.8011,-107.945C104.911,-116.833 113.733,-127.86 121.489,-137.554"/>
<polygon fill="#000000" stroke="#000000" points="118.98,-140.021 127.96,-145.644 124.446,-135.648 118.98,-140.021"/>
</g>
<!-- Hash -->
<g id="node10" class="node"><title>Hash</title>
<g id="a_node10"><a xlink:href="/type/Hash" xlink:title="Hash">
<ellipse fill="none" stroke="#000000" cx="196.245" cy="-90" rx="31.3957" ry="18"/>
<text text-anchor="middle" x="196.245" y="-86.3" font-family="FreeSans" font-size="14.00" fill="#000000">Hash</text>
</a>
</g>
</g>
<!-- Hash&#45;&gt;Map -->
<g id="edge6" class="edge"><title>Hash&#45;&gt;Map</title>
<path fill="none" stroke="#000000" d="M183.817,-106.535C176.494,-115.689 167.088,-127.446 158.891,-137.693"/>
<polygon fill="#000000" stroke="#000000" points="156.153,-135.513 152.639,-145.508 161.619,-139.886 156.153,-135.513"/>
</g>
<!-- Baggy -->
<g id="node11" class="node"><title>Baggy</title>
<g id="a_node11"><a xlink:href="/type/Baggy" xlink:title="Baggy">
<ellipse fill="none" stroke="#6666ff" cx="621.245" cy="-306" rx="35.9954" ry="18"/>
<text text-anchor="middle" x="621.245" y="-302.3" font-family="FreeSans" font-size="14.00" fill="#6666ff">Baggy</text>
</a>
</g>
</g>
<!-- Baggy&#45;&gt;QuantHash -->
<g id="edge18" class="edge"><title>Baggy&#45;&gt;QuantHash</title>
<path fill="none" stroke="#6666ff" d="M594.131,-317.784C565.959,-328.989 521.459,-346.687 488.439,-359.821"/>
<polygon fill="#6666ff" stroke="#6666ff" points="487.021,-356.618 479.023,-363.566 489.608,-363.122 487.021,-356.618"/>
</g>
<!-- Setty -->
<g id="node12" class="node"><title>Setty</title>
<g id="a_node12"><a xlink:href="/type/Setty" xlink:title="Setty">
<ellipse fill="none" stroke="#6666ff" cx="445.245" cy="-306" rx="30.5947" ry="18"/>
<text text-anchor="middle" x="445.245" y="-302.3" font-family="FreeSans" font-size="14.00" fill="#6666ff">Setty</text>
</a>
</g>
</g>
<!-- Setty&#45;&gt;QuantHash -->
<g id="edge19" class="edge"><title>Setty&#45;&gt;QuantHash</title>
<path fill="none" stroke="#6666ff" d="M445.245,-324.303C445.245,-332.017 445.245,-341.288 445.245,-349.888"/>
<polygon fill="#6666ff" stroke="#6666ff" points="441.745,-349.896 445.245,-359.896 448.745,-349.896 441.745,-349.896"/>
</g>
<!-- Stash -->
<g id="node13" class="node"><title>Stash</title>
<g id="a_node13"><a xlink:href="/type/Stash" xlink:title="Stash">
<ellipse fill="none" stroke="#000000" cx="196.245" cy="-18" rx="33.2948" ry="18"/>
<text text-anchor="middle" x="196.245" y="-14.3" font-family="FreeSans" font-size="14.00" fill="#000000">Stash</text>
</a>
</g>
</g>
<!-- Stash&#45;&gt;Hash -->
<g id="edge7" class="edge"><title>Stash&#45;&gt;Hash</title>
<path fill="none" stroke="#000000" d="M196.245,-36.3034C196.245,-44.0173 196.245,-53.2875 196.245,-61.8876"/>
<polygon fill="#000000" stroke="#000000" points="192.745,-61.8956 196.245,-71.8957 199.745,-61.8957 192.745,-61.8956"/>
</g>
<!-- Bag -->
<g id="node14" class="node"><title>Bag</title>
<g id="a_node14"><a xlink:href="/type/Bag" xlink:title="Bag">
<ellipse fill="none" stroke="#000000" cx="667.245" cy="-234" rx="27" ry="18"/>
<text text-anchor="middle" x="667.245" y="-230.3" font-family="FreeSans" font-size="14.00" fill="#000000">Bag</text>
</a>
</g>
</g>
<!-- Bag&#45;&gt;Any -->
<g id="edge8" class="edge"><title>Bag&#45;&gt;Any</title>
<path fill="none" stroke="#000000" d="M645.888,-245.085C638.136,-248.746 631.245,-252 631.245,-252 631.245,-252 405.245,-288 405.245,-288 405.245,-288 386.524,-292.42 368.174,-296.753"/>
<polygon fill="#000000" stroke="#000000" points="367.355,-293.35 358.427,-299.054 368.964,-300.163 367.355,-293.35"/>
</g>
<!-- Bag&#45;&gt;Baggy -->
<g id="edge20" class="edge"><title>Bag&#45;&gt;Baggy</title>
<path fill="none" stroke="#6666ff" d="M656.807,-250.884C651.124,-259.531 643.966,-270.425 637.564,-280.167"/>
<polygon fill="#6666ff" stroke="#6666ff" points="634.528,-278.414 631.961,-288.693 640.378,-282.258 634.528,-278.414"/>
</g>
<!-- BagHash -->
<g id="node15" class="node"><title>BagHash</title>
<g id="a_node15"><a xlink:href="/type/BagHash" xlink:title="BagHash">
<ellipse fill="none" stroke="#000000" cx="575.245" cy="-234" rx="46.5926" ry="18"/>
<text text-anchor="middle" x="575.245" y="-230.3" font-family="FreeSans" font-size="14.00" fill="#000000">BagHash</text>
</a>
</g>
</g>
<!-- BagHash&#45;&gt;Any -->
<g id="edge9" class="edge"><title>BagHash&#45;&gt;Any</title>
<path fill="none" stroke="#000000" d="M539.779,-245.766C528.666,-249.14 519.245,-252 519.245,-252 519.245,-252 421.045,-279.982 367.35,-295.282"/>
<polygon fill="#000000" stroke="#000000" points="366.219,-291.965 357.561,-298.071 368.138,-298.697 366.219,-291.965"/>
</g>
<!-- BagHash&#45;&gt;Baggy -->
<g id="edge21" class="edge"><title>BagHash&#45;&gt;Baggy</title>
<path fill="none" stroke="#6666ff" d="M586.146,-251.589C591.703,-260.045 598.577,-270.506 604.765,-279.922"/>
<polygon fill="#6666ff" stroke="#6666ff" points="602.005,-282.095 610.422,-288.53 607.855,-278.251 602.005,-282.095"/>
</g>
<!-- Mixy -->
<g id="node16" class="node"><title>Mixy</title>
<g id="a_node16"><a xlink:href="/type/Mixy" xlink:title="Mixy">
<ellipse fill="none" stroke="#6666ff" cx="741.245" cy="-234" rx="29.4969" ry="18"/>
<text text-anchor="middle" x="741.245" y="-230.3" font-family="FreeSans" font-size="14.00" fill="#6666ff">Mixy</text>
</a>
</g>
</g>
<!-- Mixy&#45;&gt;Baggy -->
<g id="edge22" class="edge"><title>Mixy&#45;&gt;Baggy</title>
<path fill="none" stroke="#6666ff" d="M720.616,-247.033C701.853,-257.979 673.893,-274.289 652.407,-286.822"/>
<polygon fill="#6666ff" stroke="#6666ff" points="650.515,-283.874 643.64,-291.936 654.042,-289.921 650.515,-283.874"/>
</g>
<!-- Set -->
<g id="node17" class="node"><title>Set</title>
<g id="a_node17"><a xlink:href="/type/Set" xlink:title="Set">
<ellipse fill="none" stroke="#000000" cx="377.245" cy="-234" rx="27" ry="18"/>
<text text-anchor="middle" x="377.245" y="-230.3" font-family="FreeSans" font-size="14.00" fill="#000000">Set</text>
</a>
</g>
</g>
<!-- Set&#45;&gt;Any -->
<g id="edge10" class="edge"><title>Set&#45;&gt;Any</title>
<path fill="none" stroke="#000000" d="M367.261,-250.884C361.748,-259.655 354.782,-270.736 348.592,-280.584"/>
<polygon fill="#000000" stroke="#000000" points="345.548,-278.85 343.19,-289.179 351.475,-282.575 345.548,-278.85"/>
</g>
<!-- Set&#45;&gt;Setty -->
<g id="edge23" class="edge"><title>Set&#45;&gt;Setty</title>
<path fill="none" stroke="#6666ff" d="M391.335,-249.504C400.601,-259.042 412.913,-271.717 423.431,-282.545"/>
<polygon fill="#6666ff" stroke="#6666ff" points="421.226,-285.297 430.704,-290.032 426.247,-280.42 421.226,-285.297"/>
</g>
<!-- SetHash -->
<g id="node18" class="node"><title>SetHash</title>
<g id="a_node18"><a xlink:href="/type/SetHash" xlink:title="SetHash">
<ellipse fill="none" stroke="#000000" cx="466.245" cy="-234" rx="44.393" ry="18"/>
<text text-anchor="middle" x="466.245" y="-230.3" font-family="FreeSans" font-size="14.00" fill="#000000">SetHash</text>
</a>
</g>
</g>
<!-- SetHash&#45;&gt;Any -->
<g id="edge11" class="edge"><title>SetHash&#45;&gt;Any</title>
<path fill="none" stroke="#000000" d="M440.286,-248.663C418.094,-260.343 386.162,-277.149 362.954,-289.364"/>
<polygon fill="#000000" stroke="#000000" points="361.126,-286.371 353.907,-294.126 364.386,-292.565 361.126,-286.371"/>
</g>
<!-- SetHash&#45;&gt;Setty -->
<g id="edge24" class="edge"><title>SetHash&#45;&gt;Setty</title>
<path fill="none" stroke="#6666ff" d="M461.162,-251.945C458.763,-259.941 455.844,-269.669 453.165,-278.6"/>
<polygon fill="#6666ff" stroke="#6666ff" points="449.803,-277.627 450.282,-288.211 456.508,-279.638 449.803,-277.627"/>
</g>
<!-- MixHash -->
<g id="node19" class="node"><title>MixHash</title>
<g id="a_node19"><a xlink:href="/type/MixHash" xlink:title="MixHash">
<ellipse fill="none" stroke="#000000" cx="376.245" cy="-162" rx="45.4919" ry="18"/>
<text text-anchor="middle" x="376.245" y="-158.3" font-family="FreeSans" font-size="14.00" fill="#000000">MixHash</text>
</a>
</g>
</g>
<!-- MixHash&#45;&gt;Any -->
<g id="edge12" class="edge"><title>MixHash&#45;&gt;Any</title>
<path fill="none" stroke="#000000" d="M356.577,-178.33C336.494,-193.983 308.245,-216 308.245,-216 308.245,-216 308.245,-252 308.245,-252 308.245,-252 314.773,-265.839 321.157,-279.373"/>
<polygon fill="#000000" stroke="#000000" points="318.04,-280.97 325.472,-288.521 324.371,-277.983 318.04,-280.97"/>
</g>
<!-- MixHash&#45;&gt;Mixy -->
<g id="edge25" class="edge"><title>MixHash&#45;&gt;Mixy</title>
<path fill="none" stroke="#6666ff" d="M417.66,-169.712C505.651,-183.974 703.245,-216 703.245,-216 703.245,-216 705.59,-217.049 709.115,-218.626"/>
<polygon fill="#6666ff" stroke="#6666ff" points="707.706,-221.83 718.264,-222.719 710.565,-215.44 707.706,-221.83"/>
</g>
<!-- Mix -->
<g id="node20" class="node"><title>Mix</title>
<g id="a_node20"><a xlink:href="/type/Mix" xlink:title="Mix">
<ellipse fill="none" stroke="#000000" cx="649.245" cy="-162" rx="27" ry="18"/>
<text text-anchor="middle" x="649.245" y="-158.3" font-family="FreeSans" font-size="14.00" fill="#000000">Mix</text>
</a>
</g>
</g>
<!-- Mix&#45;&gt;Any -->
<g id="edge13" class="edge"><title>Mix&#45;&gt;Any</title>
<path fill="none" stroke="#000000" d="M623.251,-167.473C548.996,-180.251 341.245,-216 341.245,-216 341.245,-216 338.053,-251.517 335.701,-277.677"/>
<polygon fill="#000000" stroke="#000000" points="332.197,-277.567 334.788,-287.84 339.169,-278.193 332.197,-277.567"/>
</g>
<!-- Mix&#45;&gt;Mixy -->
<g id="edge26" class="edge"><title>Mix&#45;&gt;Mixy</title>
<path fill="none" stroke="#6666ff" d="M666.55,-176.166C680.252,-186.592 699.611,-201.322 715.186,-213.173"/>
<polygon fill="#6666ff" stroke="#6666ff" points="713.313,-216.145 723.391,-219.415 717.552,-210.574 713.313,-216.145"/>
</g>
</g>
</svg>
