<?xml version="1.0" encoding="UTF-8" standalone="no"?>
<!DOCTYPE svg PUBLIC "-//W3C//DTD SVG 1.1//EN"
 "http://www.w3.org/Graphics/SVG/1.1/DTD/svg11.dtd">
<!-- Generated by graphviz version 2.38.0 (20140413.2041)
 -->
<!-- Title: perl6&#45;type&#45;graph Pages: 1 -->
<svg width="751pt" height="332pt"
 viewBox="0.00 0.00 750.94 332.00" xmlns="http://www.w3.org/2000/svg" xmlns:xlink="http://www.w3.org/1999/xlink">
<g id="graph0" class="graph" transform="scale(1 1) rotate(0) translate(4 328)">
<title>perl6&#45;type&#45;graph</title>
<polygon fill="white" stroke="none" points="-4,4 -4,-328 746.944,-328 746.944,4 -4,4"/>
<!-- Int -->
<g id="node1" class="node"><title>Int</title>
<g id="a_node1"><a xlink:href="/type/Int" xlink:title="Int">
<ellipse fill="none" stroke="#000000" cx="454.097" cy="-90" rx="27" ry="18"/>
<text text-anchor="middle" x="454.097" y="-86.3" font-family="FreeSans" font-size="14.00" fill="#000000">Int</text>
</a>
</g>
</g>
<!-- Cool -->
<g id="node4" class="node"><title>Cool</title>
<g id="a_node4"><a xlink:href="/type/Cool" xlink:title="Cool">
<ellipse fill="none" stroke="#000000" cx="564.097" cy="-162" rx="28.6953" ry="18"/>
<text text-anchor="middle" x="564.097" y="-158.3" font-family="FreeSans" font-size="14.00" fill="#000000">Cool</text>
</a>
</g>
</g>
<!-- Int&#45;&gt;Cool -->
<g id="edge1" class="edge"><title>Int&#45;&gt;Cool</title>
<path fill="none" stroke="#000000" d="M473.257,-103.193C490.659,-114.267 516.538,-130.736 536.228,-143.265"/>
<polygon fill="#000000" stroke="#000000" points="534.471,-146.296 544.787,-148.712 538.229,-140.39 534.471,-146.296"/>
</g>
<!-- Real -->
<g id="node6" class="node"><title>Real</title>
<g id="a_node6"><a xlink:href="/type/Real" xlink:title="Real">
<ellipse fill="none" stroke="#6666ff" cx="454.097" cy="-162" rx="28.6953" ry="18"/>
<text text-anchor="middle" x="454.097" y="-158.3" font-family="FreeSans" font-size="14.00" fill="#6666ff">Real</text>
</a>
</g>
</g>
<!-- Int&#45;&gt;Real -->
<g id="edge14" class="edge"><title>Int&#45;&gt;Real</title>
<path fill="none" stroke="#6666ff" d="M454.097,-108.303C454.097,-116.017 454.097,-125.288 454.097,-133.888"/>
<polygon fill="#6666ff" stroke="#6666ff" points="450.597,-133.896 454.097,-143.896 457.597,-133.896 450.597,-133.896"/>
</g>
<!-- Mu -->
<g id="node2" class="node"><title>Mu</title>
<g id="a_node2"><a xlink:href="/type/Mu" xlink:title="Mu">
<ellipse fill="none" stroke="#000000" cx="564.097" cy="-306" rx="27" ry="18"/>
<text text-anchor="middle" x="564.097" y="-302.3" font-family="FreeSans" font-size="14.00" fill="#000000">Mu</text>
</a>
</g>
</g>
<!-- Any -->
<g id="node3" class="node"><title>Any</title>
<g id="a_node3"><a xlink:href="/type/Any" xlink:title="Any">
<ellipse fill="none" stroke="#000000" cx="564.097" cy="-234" rx="27" ry="18"/>
<text text-anchor="middle" x="564.097" y="-230.3" font-family="FreeSans" font-size="14.00" fill="#000000">Any</text>
</a>
</g>
</g>
<!-- Any&#45;&gt;Mu -->
<g id="edge2" class="edge"><title>Any&#45;&gt;Mu</title>
<path fill="none" stroke="#000000" d="M564.097,-252.303C564.097,-260.017 564.097,-269.288 564.097,-277.888"/>
<polygon fill="#000000" stroke="#000000" points="560.597,-277.896 564.097,-287.896 567.597,-277.896 560.597,-277.896"/>
</g>
<!-- Cool&#45;&gt;Any -->
<g id="edge3" class="edge"><title>Cool&#45;&gt;Any</title>
<path fill="none" stroke="#000000" d="M564.097,-180.303C564.097,-188.017 564.097,-197.288 564.097,-205.888"/>
<polygon fill="#000000" stroke="#000000" points="560.597,-205.896 564.097,-215.896 567.597,-205.896 560.597,-205.896"/>
</g>
<!-- Numeric -->
<g id="node5" class="node"><title>Numeric</title>
<g id="a_node5"><a xlink:href="/type/Numeric" xlink:title="Numeric">
<ellipse fill="none" stroke="#6666ff" cx="454.097" cy="-234" rx="44.393" ry="18"/>
<text text-anchor="middle" x="454.097" y="-230.3" font-family="FreeSans" font-size="14.00" fill="#6666ff">Numeric</text>
</a>
</g>
</g>
<!-- Real&#45;&gt;Numeric -->
<g id="edge15" class="edge"><title>Real&#45;&gt;Numeric</title>
<path fill="none" stroke="#6666ff" d="M454.097,-180.303C454.097,-188.017 454.097,-197.288 454.097,-205.888"/>
<polygon fill="#6666ff" stroke="#6666ff" points="450.597,-205.896 454.097,-215.896 457.597,-205.896 450.597,-205.896"/>
</g>
<!-- Signal -->
<g id="node7" class="node"><title>Signal</title>
<g id="a_node7"><a xlink:href="/type/Signal" xlink:title="Signal">
<ellipse fill="none" stroke="#33bb33" cx="35.0969" cy="-18" rx="35.194" ry="18"/>
<text text-anchor="middle" x="35.0969" y="-14.3" font-family="FreeSans" font-size="14.00" fill="#33bb33">Signal</text>
</a>
</g>
</g>
<!-- Signal&#45;&gt;Int -->
<g id="edge4" class="edge"><title>Signal&#45;&gt;Int</title>
<path fill="none" stroke="#000000" d="M62.2112,-29.476C71.2658,-32.9744 79.0969,-36 79.0969,-36 79.0969,-36 323.762,-70.5793 417.842,-83.8759"/>
<polygon fill="#000000" stroke="#000000" points="417.634,-87.3813 428.025,-85.3152 418.614,-80.4502 417.634,-87.3813"/>
</g>
<!-- PromiseStatus -->
<g id="node8" class="node"><title>PromiseStatus</title>
<g id="a_node8"><a xlink:href="/type/PromiseStatus" xlink:title="PromiseStatus">
<ellipse fill="none" stroke="#33bb33" cx="156.097" cy="-18" rx="67.6881" ry="18"/>
<text text-anchor="middle" x="156.097" y="-14.3" font-family="FreeSans" font-size="14.00" fill="#33bb33">PromiseStatus</text>
</a>
</g>
</g>
<!-- PromiseStatus&#45;&gt;Int -->
<g id="edge5" class="edge"><title>PromiseStatus&#45;&gt;Int</title>
<path fill="none" stroke="#000000" d="M204.972,-30.4807C265.189,-44.6257 366.015,-68.3097 419.049,-80.7674"/>
<polygon fill="#000000" stroke="#000000" points="418.458,-84.2235 428.993,-83.1031 420.058,-77.409 418.458,-84.2235"/>
</g>
<!-- Endian -->
<g id="node9" class="node"><title>Endian</title>
<g id="a_node9"><a xlink:href="/type/Endian" xlink:title="Endian">
<ellipse fill="none" stroke="#33bb33" cx="280.097" cy="-18" rx="38.1938" ry="18"/>
<text text-anchor="middle" x="280.097" y="-14.3" font-family="FreeSans" font-size="14.00" fill="#33bb33">Endian</text>
</a>
</g>
</g>
<!-- Endian&#45;&gt;Int -->
<g id="edge6" class="edge"><title>Endian&#45;&gt;Int</title>
<path fill="none" stroke="#000000" d="M308.44,-30.4025C339.596,-42.9364 389.537,-63.0276 422.082,-76.1206"/>
<polygon fill="#000000" stroke="#000000" points="421,-79.4579 431.584,-79.9431 423.613,-72.9637 421,-79.4579"/>
</g>
<!-- int -->
<g id="node10" class="node"><title>int</title>
<g id="a_node10"><a xlink:href="/type/int" xlink:title="int">
<ellipse fill="none" stroke="#000000" cx="363.097" cy="-18" rx="27" ry="18"/>
<text text-anchor="middle" x="363.097" y="-14.3" font-family="FreeSans" font-size="14.00" fill="#000000">int</text>
</a>
</g>
</g>
<!-- int&#45;&gt;Int -->
<g id="edge7" class="edge"><title>int&#45;&gt;Int</title>
<path fill="none" stroke="#000000" d="M380.213,-32.1665C393.941,-42.7259 413.407,-57.6999 428.912,-69.6272"/>
<polygon fill="#000000" stroke="#000000" points="426.997,-72.5696 437.057,-75.8926 431.265,-67.0212 426.997,-72.5696"/>
</g>
<!-- atomicint -->
<g id="node11" class="node"><title>atomicint</title>
<g id="a_node11"><a xlink:href="/type/atomicint" xlink:title="atomicint">
<ellipse fill="none" stroke="#000000" cx="454.097" cy="-18" rx="46.2923" ry="18"/>
<text text-anchor="middle" x="454.097" y="-14.3" font-family="FreeSans" font-size="14.00" fill="#000000">atomicint</text>
</a>
</g>
</g>
<!-- atomicint&#45;&gt;Int -->
<g id="edge8" class="edge"><title>atomicint&#45;&gt;Int</title>
<path fill="none" stroke="#000000" d="M454.097,-36.3034C454.097,-44.0173 454.097,-53.2875 454.097,-61.8876"/>
<polygon fill="#000000" stroke="#000000" points="450.597,-61.8956 454.097,-71.8957 457.597,-61.8957 450.597,-61.8956"/>
</g>
<!-- Bool -->
<g id="node12" class="node"><title>Bool</title>
<g id="a_node12"><a xlink:href="/type/Bool" xlink:title="Bool">
<ellipse fill="none" stroke="#33bb33" cx="547.097" cy="-18" rx="28.6953" ry="18"/>
<text text-anchor="middle" x="547.097" y="-14.3" font-family="FreeSans" font-size="14.00" fill="#33bb33">Bool</text>
</a>
</g>
</g>
<!-- Bool&#45;&gt;Int -->
<g id="edge9" class="edge"><title>Bool&#45;&gt;Int</title>
<path fill="none" stroke="#000000" d="M529.166,-32.4967C515.092,-43.0894 495.319,-57.9725 479.599,-69.8049"/>
<polygon fill="#000000" stroke="#000000" points="477.229,-67.2079 471.344,-76.018 481.439,-72.8007 477.229,-67.2079"/>
</g>
<!-- Stringy -->
<g id="node13" class="node"><title>Stringy</title>
<g id="a_node13"><a xlink:href="/type/Stringy" xlink:title="Stringy">
<ellipse fill="none" stroke="#6666ff" cx="690.097" cy="-162" rx="38.1938" ry="18"/>
<text text-anchor="middle" x="690.097" y="-158.3" font-family="FreeSans" font-size="14.00" fill="#6666ff">Stringy</text>
</a>
</g>
</g>
<!-- Str -->
<g id="node14" class="node"><title>Str</title>
<g id="a_node14"><a xlink:href="/type/Str" xlink:title="Str">
<ellipse fill="none" stroke="#000000" cx="690.097" cy="-90" rx="27" ry="18"/>
<text text-anchor="middle" x="690.097" y="-86.3" font-family="FreeSans" font-size="14.00" fill="#000000">Str</text>
</a>
</g>
</g>
<!-- Str&#45;&gt;Cool -->
<g id="edge10" class="edge"><title>Str&#45;&gt;Cool</title>
<path fill="none" stroke="#000000" d="M669.853,-102.247C649.341,-113.642 617.38,-131.398 593.959,-144.41"/>
<polygon fill="#000000" stroke="#000000" points="592.173,-141.398 585.131,-149.314 595.572,-147.517 592.173,-141.398"/>
</g>
<!-- Str&#45;&gt;Stringy -->
<g id="edge16" class="edge"><title>Str&#45;&gt;Stringy</title>
<path fill="none" stroke="#6666ff" d="M690.097,-108.303C690.097,-116.017 690.097,-125.288 690.097,-133.888"/>
<polygon fill="#6666ff" stroke="#6666ff" points="686.597,-133.896 690.097,-143.896 693.597,-133.896 686.597,-133.896"/>
</g>
<!-- IntStr -->
<g id="node15" class="node"><title>IntStr</title>
<g id="a_node15"><a xlink:href="/type/IntStr" xlink:title="IntStr">
<ellipse fill="none" stroke="#000000" cx="711.097" cy="-18" rx="31.6951" ry="18"/>
<text text-anchor="middle" x="711.097" y="-14.3" font-family="FreeSans" font-size="14.00" fill="#000000">IntStr</text>
</a>
</g>
</g>
<!-- IntStr&#45;&gt;Int -->
<g id="edge11" class="edge"><title>IntStr&#45;&gt;Int</title>
<path fill="none" stroke="#000000" d="M685.831,-29.476C677.394,-32.9744 670.097,-36 670.097,-36 670.097,-36 550.512,-65.3425 489.301,-80.3621"/>
<polygon fill="#000000" stroke="#000000" points="488.175,-77.0342 479.298,-82.8165 489.844,-83.8326 488.175,-77.0342"/>
</g>
<!-- IntStr&#45;&gt;Str -->
<g id="edge12" class="edge"><title>IntStr&#45;&gt;Str</title>
<path fill="none" stroke="#000000" d="M706.013,-35.945C703.614,-43.9414 700.696,-53.6692 698.017,-62.6005"/>
<polygon fill="#000000" stroke="#000000" points="694.655,-61.627 695.134,-72.211 701.36,-63.6385 694.655,-61.627"/>
</g>
<!-- Order -->
<g id="node16" class="node"><title>Order</title>
<g id="a_node16"><a xlink:href="/type/Order" xlink:title="Order">
<ellipse fill="none" stroke="#33bb33" cx="627.097" cy="-18" rx="33.5952" ry="18"/>
<text text-anchor="middle" x="627.097" y="-14.3" font-family="FreeSans" font-size="14.00" fill="#33bb33">Order</text>
</a>
</g>
</g>
<!-- Order&#45;&gt;Int -->
<g id="edge13" class="edge"><title>Order&#45;&gt;Int</title>
<path fill="none" stroke="#000000" d="M600.736,-29.6698C592.298,-33.0854 585.097,-36 585.097,-36 585.097,-36 524.736,-60.421 485.96,-76.1089"/>
<polygon fill="#000000" stroke="#000000" points="484.574,-72.8939 476.617,-79.889 487.199,-79.383 484.574,-72.8939"/>
</g>
</g>
</svg>
