<?xml version="1.0" encoding="UTF-8" standalone="no"?>
<!DOCTYPE svg PUBLIC "-//W3C//DTD SVG 1.1//EN"
 "http://www.w3.org/Graphics/SVG/1.1/DTD/svg11.dtd">
<!-- Generated by graphviz version 2.38.0 (20140413.2041)
 -->
<!-- Title: perl6&#45;type&#45;graph Pages: 1 -->
<svg width="1912pt" height="950pt"
 viewBox="0.00 0.00 1911.98 950.06" xmlns="http://www.w3.org/2000/svg" xmlns:xlink="http://www.w3.org/1999/xlink">
<g id="graph0" class="graph" transform="scale(1 1) rotate(0) translate(993.598 456.262)">
<title>perl6&#45;type&#45;graph</title>
<polygon fill="white" stroke="none" points="-993.598,493.796 -993.598,-456.262 918.384,-456.262 918.384,493.796 -993.598,493.796"/>
<!-- Metamodel::TypePretense -->
<g id="node1" class="node"><title>Metamodel::TypePretense</title>
<g id="a_node1"><a xlink:href="/type/Metamodel::TypePretense" xlink:title="Metamodel::TypePretense">
<ellipse fill="none" stroke="#6666ff" cx="-358.921" cy="-99.8186" rx="114.28" ry="18"/>
<text text-anchor="middle" x="-358.921" y="-96.1186" font-family="FreeSans" font-size="14.00" fill="#6666ff">Metamodel::TypePretense</text>
</a>
</g>
</g>
<!-- Mu -->
<g id="node2" class="node"><title>Mu</title>
<g id="a_node2"><a xlink:href="/type/Mu" xlink:title="Mu">
<ellipse fill="none" stroke="#000000" cx="-100.709" cy="456.811" rx="27" ry="18"/>
<text text-anchor="middle" x="-100.709" y="460.511" font-family="FreeSans" font-size="14.00" fill="#000000">Mu</text>
</a>
</g>
</g>
<!-- Any -->
<g id="node3" class="node"><title>Any</title>
<g id="a_node3"><a xlink:href="/type/Any" xlink:title="Any">
<ellipse fill="none" stroke="#000000" cx="87.3983" cy="224.927" rx="27" ry="18"/>
<text text-anchor="middle" x="87.3983" y="228.627" font-family="FreeSans" font-size="14.00" fill="#000000">Any</text>
</a>
</g>
</g>
<!-- Any&#45;&gt;Mu -->
<g id="edge1" class="edge"><title>Any&#45;&gt;Mu</title>
<path fill="none" stroke="#000000" d="M74.4689,240.866C42.0509,280.828 -42.839,385.473 -81.2877,432.87"/>
<polygon fill="#000000" stroke="#000000" points="-78.6715,435.2 -87.6896,440.761 -84.1077,430.79 -78.6715,435.2"/>
</g>
<!-- Metamodel::Naming -->
<g id="node4" class="node"><title>Metamodel::Naming</title>
<g id="a_node4"><a xlink:href="/type/Metamodel::Naming" xlink:title="Metamodel::Naming">
<ellipse fill="none" stroke="#6666ff" cx="-74.1845" cy="67.626" rx="90.1842" ry="18"/>
<text text-anchor="middle" x="-74.1845" y="71.326" font-family="FreeSans" font-size="14.00" fill="#6666ff">Metamodel::Naming</text>
</a>
</g>
</g>
<!-- Metamodel::Documenting -->
<g id="node5" class="node"><title>Metamodel::Documenting</title>
<g id="a_node5"><a xlink:href="/type/Metamodel::Documenting" xlink:title="Metamodel::Documenting">
<ellipse fill="none" stroke="#6666ff" cx="449.907" cy="-103.064" rx="111.28" ry="18"/>
<text text-anchor="middle" x="449.907" y="-99.3644" font-family="FreeSans" font-size="14.00" fill="#6666ff">Metamodel::Documenting</text>
</a>
</g>
</g>
<!-- Metamodel::Versioning -->
<g id="node6" class="node"><title>Metamodel::Versioning</title>
<g id="a_node6"><a xlink:href="/type/Metamodel::Versioning" xlink:title="Metamodel::Versioning">
<ellipse fill="none" stroke="#6666ff" cx="802.593" cy="38.7021" rx="100.983" ry="18"/>
<text text-anchor="middle" x="802.593" y="42.4021" font-family="FreeSans" font-size="14.00" fill="#6666ff">Metamodel::Versioning</text>
</a>
</g>
</g>
<!-- Metamodel::Stashing -->
<g id="node7" class="node"><title>Metamodel::Stashing</title>
<g id="a_node7"><a xlink:href="/type/Metamodel::Stashing" xlink:title="Metamodel::Stashing">
<ellipse fill="none" stroke="#6666ff" cx="175.394" cy="-80.8844" rx="93.6835" ry="18"/>
<text text-anchor="middle" x="175.394" y="-77.1844" font-family="FreeSans" font-size="14.00" fill="#6666ff">Metamodel::Stashing</text>
</a>
</g>
</g>
<!-- Metamodel::MethodDelegation -->
<g id="node8" class="node"><title>Metamodel::MethodDelegation</title>
<g id="a_node8"><a xlink:href="/type/Metamodel::MethodDelegation" xlink:title="Metamodel::MethodDelegation">
<ellipse fill="none" stroke="#6666ff" cx="749.779" cy="423.846" rx="131.077" ry="18"/>
<text text-anchor="middle" x="749.779" y="427.546" font-family="FreeSans" font-size="14.00" fill="#6666ff">Metamodel::MethodDelegation</text>
</a>
</g>
</g>
<!-- Metamodel::ModuleHOW -->
<g id="node9" class="node"><title>Metamodel::ModuleHOW</title>
<g id="a_node9"><a xlink:href="/type/Metamodel::ModuleHOW" xlink:title="Metamodel::ModuleHOW">
<ellipse fill="none" stroke="#000000" cx="384.385" cy="175.208" rx="111.28" ry="18"/>
<text text-anchor="middle" x="384.385" y="178.908" font-family="FreeSans" font-size="14.00" fill="#000000">Metamodel::ModuleHOW</text>
</a>
</g>
</g>
<!-- Metamodel::ModuleHOW&#45;&gt;Metamodel::TypePretense -->
<g id="edge11" class="edge"><title>Metamodel::ModuleHOW&#45;&gt;Metamodel::TypePretense</title>
<path fill="none" stroke="#6666ff" d="M339.562,158.623C210.211,110.763 -163.434,-27.4873 -304.305,-79.6106"/>
<polygon fill="#6666ff" stroke="#6666ff" points="-305.875,-76.4595 -314.039,-83.2122 -303.446,-83.0245 -305.875,-76.4595"/>
</g>
<!-- Metamodel::ModuleHOW&#45;&gt;Any -->
<g id="edge2" class="edge"><title>Metamodel::ModuleHOW&#45;&gt;Any</title>
<path fill="none" stroke="#000000" d="M306.743,188.206C247.589,198.109 168.842,211.293 123.577,218.87"/>
<polygon fill="#000000" stroke="#000000" points="124.075,222.336 113.634,220.535 122.919,215.432 124.075,222.336"/>
</g>
<!-- Metamodel::ModuleHOW&#45;&gt;Metamodel::Naming -->
<g id="edge7" class="edge"><title>Metamodel::ModuleHOW&#45;&gt;Metamodel::Naming</title>
<path fill="none" stroke="#6666ff" d="M321.104,160.362C235.344,140.242 82.8001,104.455 -5.61192,83.7133"/>
<polygon fill="#6666ff" stroke="#6666ff" points="-6.60451,87.0756 -15.5407,81.384 -5.00564,80.2606 -6.60451,87.0756"/>
</g>
<!-- Metamodel::ModuleHOW&#45;&gt;Metamodel::Documenting -->
<g id="edge8" class="edge"><title>Metamodel::ModuleHOW&#45;&gt;Metamodel::Documenting</title>
<path fill="none" stroke="#6666ff" d="M388.684,156.95C399.861,109.483 429.89,-18.0516 443.291,-74.9683"/>
<polygon fill="#6666ff" stroke="#6666ff" points="439.893,-75.8073 445.592,-84.7389 446.707,-74.2029 439.893,-75.8073"/>
</g>
<!-- Metamodel::ModuleHOW&#45;&gt;Metamodel::Versioning -->
<g id="edge9" class="edge"><title>Metamodel::ModuleHOW&#45;&gt;Metamodel::Versioning</title>
<path fill="none" stroke="#6666ff" d="M434.001,159.013C511.657,133.666 661.564,84.7348 744.267,57.74"/>
<polygon fill="#6666ff" stroke="#6666ff" points="743.418,54.3355 754.01,54.5597 745.59,60.99 743.418,54.3355"/>
</g>
<!-- Metamodel::ModuleHOW&#45;&gt;Metamodel::Stashing -->
<g id="edge10" class="edge"><title>Metamodel::ModuleHOW&#45;&gt;Metamodel::Stashing</title>
<path fill="none" stroke="#6666ff" d="M369.689,157.2C333.265,112.567 238.711,-3.29709 196.399,-55.1454"/>
<polygon fill="#6666ff" stroke="#6666ff" points="193.685,-52.9359 190.074,-62.8964 199.108,-57.3617 193.685,-52.9359"/>
</g>
<!-- Metamodel::ModuleHOW&#45;&gt;Metamodel::MethodDelegation -->
<g id="edge12" class="edge"><title>Metamodel::ModuleHOW&#45;&gt;Metamodel::MethodDelegation</title>
<path fill="none" stroke="#6666ff" d="M410.37,192.89C474.92,236.814 642.583,350.903 715.298,400.383"/>
<polygon fill="#6666ff" stroke="#6666ff" points="717.384,397.568 723.682,406.087 713.446,403.355 717.384,397.568"/>
</g>
<!-- Metamodel::RolePunning -->
<g id="node10" class="node"><title>Metamodel::RolePunning</title>
<g id="a_node10"><a xlink:href="/type/Metamodel::RolePunning" xlink:title="Metamodel::RolePunning">
<ellipse fill="none" stroke="#6666ff" cx="-754.081" cy="18.0583" rx="109.681" ry="18"/>
<text text-anchor="middle" x="-754.081" y="21.7583" font-family="FreeSans" font-size="14.00" fill="#6666ff">Metamodel::RolePunning</text>
</a>
</g>
</g>
<!-- Metamodel::CurriedRoleHOW -->
<g id="node11" class="node"><title>Metamodel::CurriedRoleHOW</title>
<g id="a_node11"><a xlink:href="/type/Metamodel::CurriedRoleHOW" xlink:title="Metamodel::CurriedRoleHOW">
<ellipse fill="none" stroke="#000000" cx="-445.572" cy="434.484" rx="128.877" ry="18"/>
<text text-anchor="middle" x="-445.572" y="438.184" font-family="FreeSans" font-size="14.00" fill="#000000">Metamodel::CurriedRoleHOW</text>
</a>
</g>
</g>
<!-- Metamodel::CurriedRoleHOW&#45;&gt;Metamodel::TypePretense -->
<g id="edge14" class="edge"><title>Metamodel::CurriedRoleHOW&#45;&gt;Metamodel::TypePretense</title>
<path fill="none" stroke="#6666ff" d="M-448.564,416.453C-458.709,355.313 -491.172,159.665 -491.172,159.665 -491.172,159.665 -406.824,-5.82971 -372.851,-72.4862"/>
<polygon fill="#6666ff" stroke="#6666ff" points="-375.88,-74.252 -368.221,-81.5722 -369.643,-71.0733 -375.88,-74.252"/>
</g>
<!-- Metamodel::CurriedRoleHOW&#45;&gt;Any -->
<g id="edge3" class="edge"><title>Metamodel::CurriedRoleHOW&#45;&gt;Any</title>
<path fill="none" stroke="#000000" d="M-402.408,417.513C-298.757,376.759 -37.5825,274.068 54.5779,237.832"/>
<polygon fill="#000000" stroke="#000000" points="53.3759,234.544 63.9631,234.142 55.9374,241.058 53.3759,234.544"/>
</g>
<!-- Metamodel::CurriedRoleHOW&#45;&gt;Metamodel::RolePunning -->
<g id="edge13" class="edge"><title>Metamodel::CurriedRoleHOW&#45;&gt;Metamodel::RolePunning</title>
<path fill="none" stroke="#6666ff" d="M-459.026,416.323C-507.938,350.302 -676.471,122.817 -734.368,44.6673"/>
<polygon fill="#6666ff" stroke="#6666ff" points="-737.415,46.4337 -740.555,36.315 -731.79,42.2667 -737.415,46.4337"/>
</g>
<!-- Metamodel::BoolificationProtocol -->
<g id="node12" class="node"><title>Metamodel::BoolificationProtocol</title>
<g id="a_node12"><a xlink:href="/type/Metamodel::BoolificationProtocol" xlink:title="Metamodel::BoolificationProtocol">
<ellipse fill="none" stroke="#6666ff" cx="-847.863" cy="384.938" rx="139.175" ry="18"/>
<text text-anchor="middle" x="-847.863" y="388.638" font-family="FreeSans" font-size="14.00" fill="#6666ff">Metamodel::BoolificationProtocol</text>
</a>
</g>
</g>
<!-- Metamodel::ParametricRoleGroupHOW -->
<g id="node13" class="node"><title>Metamodel::ParametricRoleGroupHOW</title>
<g id="a_node13"><a xlink:href="/type/Metamodel::ParametricRoleGroupHOW" xlink:title="Metamodel::ParametricRoleGroupHOW">
<ellipse fill="none" stroke="#000000" cx="-322.538" cy="159.591" rx="167.07" ry="18"/>
<text text-anchor="middle" x="-322.538" y="163.291" font-family="FreeSans" font-size="14.00" fill="#000000">Metamodel::ParametricRoleGroupHOW</text>
</a>
</g>
</g>
<!-- Metamodel::ParametricRoleGroupHOW&#45;&gt;Metamodel::TypePretense -->
<g id="edge17" class="edge"><title>Metamodel::ParametricRoleGroupHOW&#45;&gt;Metamodel::TypePretense</title>
<path fill="none" stroke="#6666ff" d="M-325.097,141.35C-331.346,96.79 -347.426,-17.8603 -354.94,-71.4368"/>
<polygon fill="#6666ff" stroke="#6666ff" points="-358.442,-71.2083 -356.365,-81.5975 -351.51,-72.1806 -358.442,-71.2083"/>
</g>
<!-- Metamodel::ParametricRoleGroupHOW&#45;&gt;Any -->
<g id="edge4" class="edge"><title>Metamodel::ParametricRoleGroupHOW&#45;&gt;Any</title>
<path fill="none" stroke="#000000" d="M-228.748,174.54C-140.05,188.676 -11.5253,209.161 50.7866,219.092"/>
<polygon fill="#000000" stroke="#000000" points="51.5913,215.676 60.9157,220.706 50.4895,222.589 51.5913,215.676"/>
</g>
<!-- Metamodel::ParametricRoleGroupHOW&#45;&gt;Metamodel::Naming -->
<g id="edge15" class="edge"><title>Metamodel::ParametricRoleGroupHOW&#45;&gt;Metamodel::Naming</title>
<path fill="none" stroke="#6666ff" d="M-275.825,142.293C-233.411,126.587 -170.923,103.448 -126.772,87.0991"/>
<polygon fill="#6666ff" stroke="#6666ff" points="-127.958,83.806 -117.365,83.6155 -125.527,90.3704 -127.958,83.806"/>
</g>
<!-- Metamodel::ParametricRoleGroupHOW&#45;&gt;Metamodel::Stashing -->
<g id="edge16" class="edge"><title>Metamodel::ParametricRoleGroupHOW&#45;&gt;Metamodel::Stashing</title>
<path fill="none" stroke="#6666ff" d="M-292.38,141.886C-246.928,115.202 -166.124,67.7637 -166.124,67.7637 -166.124,67.7637 -139.652,53.8644 -139.652,53.8644 -139.652,53.8644 39.3542,-22.6986 127.503,-60.4007"/>
<polygon fill="#6666ff" stroke="#6666ff" points="126.193,-63.647 136.763,-64.3616 128.945,-57.211 126.193,-63.647"/>
</g>
<!-- Metamodel::ParametricRoleGroupHOW&#45;&gt;Metamodel::RolePunning -->
<g id="edge18" class="edge"><title>Metamodel::ParametricRoleGroupHOW&#45;&gt;Metamodel::RolePunning</title>
<path fill="none" stroke="#6666ff" d="M-375.022,142.378C-455.94,115.84 -610.64,65.1027 -695.24,37.3563"/>
<polygon fill="#6666ff" stroke="#6666ff" points="-696.539,40.6137 -704.951,34.1716 -694.358,33.9623 -696.539,40.6137"/>
</g>
<!-- Metamodel::ParametricRoleGroupHOW&#45;&gt;Metamodel::BoolificationProtocol -->
<g id="edge19" class="edge"><title>Metamodel::ParametricRoleGroupHOW&#45;&gt;Metamodel::BoolificationProtocol</title>
<path fill="none" stroke="#6666ff" d="M-363.322,177.086C-458.467,217.9 -694.85,319.301 -798.185,363.628"/>
<polygon fill="#6666ff" stroke="#6666ff" points="-796.896,366.883 -807.466,367.609 -799.655,360.45 -796.896,366.883"/>
</g>
<!-- Metamodel::MethodContainer -->
<g id="node14" class="node"><title>Metamodel::MethodContainer</title>
<g id="a_node14"><a xlink:href="/type/Metamodel::MethodContainer" xlink:title="Metamodel::MethodContainer">
<ellipse fill="none" stroke="#6666ff" cx="97.589" cy="-422.848" rx="127.277" ry="18"/>
<text text-anchor="middle" x="97.589" y="-419.148" font-family="FreeSans" font-size="14.00" fill="#6666ff">Metamodel::MethodContainer</text>
</a>
</g>
</g>
<!-- Metamodel::PrivateMethodContainer -->
<g id="node15" class="node"><title>Metamodel::PrivateMethodContainer</title>
<g id="a_node15"><a xlink:href="/type/Metamodel::PrivateMethodContainer" xlink:title="Metamodel::PrivateMethodContainer">
<ellipse fill="none" stroke="#6666ff" cx="-180.868" cy="-434.262" rx="154.873" ry="18"/>
<text text-anchor="middle" x="-180.868" y="-430.562" font-family="FreeSans" font-size="14.00" fill="#6666ff">Metamodel::PrivateMethodContainer</text>
</a>
</g>
</g>
<!-- Metamodel::MultiMethodContainer -->
<g id="node16" class="node"><title>Metamodel::MultiMethodContainer</title>
<g id="a_node16"><a xlink:href="/type/Metamodel::MultiMethodContainer" xlink:title="Metamodel::MultiMethodContainer">
<ellipse fill="none" stroke="#6666ff" cx="383.172" cy="-421.635" rx="146.474" ry="18"/>
<text text-anchor="middle" x="383.172" y="-417.935" font-family="FreeSans" font-size="14.00" fill="#6666ff">Metamodel::MultiMethodContainer</text>
</a>
</g>
</g>
<!-- Metamodel::AttributeContainer -->
<g id="node17" class="node"><title>Metamodel::AttributeContainer</title>
<g id="a_node17"><a xlink:href="/type/Metamodel::AttributeContainer" xlink:title="Metamodel::AttributeContainer">
<ellipse fill="none" stroke="#6666ff" cx="784.395" cy="-378.806" rx="129.977" ry="18"/>
<text text-anchor="middle" x="784.395" y="-375.106" font-family="FreeSans" font-size="14.00" fill="#6666ff">Metamodel::AttributeContainer</text>
</a>
</g>
</g>
<!-- Metamodel::RoleContainer -->
<g id="node18" class="node"><title>Metamodel::RoleContainer</title>
<g id="a_node18"><a xlink:href="/type/Metamodel::RoleContainer" xlink:title="Metamodel::RoleContainer">
<ellipse fill="none" stroke="#6666ff" cx="-475.317" cy="-404.053" rx="115.88" ry="18"/>
<text text-anchor="middle" x="-475.317" y="-400.353" font-family="FreeSans" font-size="14.00" fill="#6666ff">Metamodel::RoleContainer</text>
</a>
</g>
</g>
<!-- Metamodel::MultipleInheritance -->
<g id="node19" class="node"><title>Metamodel::MultipleInheritance</title>
<g id="a_node19"><a xlink:href="/type/Metamodel::MultipleInheritance" xlink:title="Metamodel::MultipleInheritance">
<ellipse fill="none" stroke="#6666ff" cx="-855.71" cy="-356.079" rx="133.776" ry="18"/>
<text text-anchor="middle" x="-855.71" y="-352.379" font-family="FreeSans" font-size="14.00" fill="#6666ff">Metamodel::MultipleInheritance</text>
</a>
</g>
</g>
<!-- Metamodel::ParametricRoleHOW -->
<g id="node20" class="node"><title>Metamodel::ParametricRoleHOW</title>
<g id="a_node20"><a xlink:href="/type/Metamodel::ParametricRoleHOW" xlink:title="Metamodel::ParametricRoleHOW">
<ellipse fill="none" stroke="#000000" cx="-69.3592" cy="-167.117" rx="142.175" ry="18"/>
<text text-anchor="middle" x="-69.3592" y="-163.417" font-family="FreeSans" font-size="14.00" fill="#000000">Metamodel::ParametricRoleHOW</text>
</a>
</g>
</g>
<!-- Metamodel::ParametricRoleHOW&#45;&gt;Metamodel::TypePretense -->
<g id="edge30" class="edge"><title>Metamodel::ParametricRoleHOW&#45;&gt;Metamodel::TypePretense</title>
<path fill="none" stroke="#6666ff" d="M-137.615,-151.254C-181.854,-140.972 -239.47,-127.581 -284.824,-117.04"/>
<polygon fill="#6666ff" stroke="#6666ff" points="-284.066,-113.623 -294.599,-114.768 -285.651,-120.441 -284.066,-113.623"/>
</g>
<!-- Metamodel::ParametricRoleHOW&#45;&gt;Any -->
<g id="edge5" class="edge"><title>Metamodel::ParametricRoleHOW&#45;&gt;Any</title>
<path fill="none" stroke="#000000" d="M-62.1129,-148.994C-36.9815,-86.1417 46.5285,122.713 76.5396,197.77"/>
<polygon fill="#000000" stroke="#000000" points="79.9447,196.859 80.4075,207.444 73.445,199.458 79.9447,196.859"/>
</g>
<!-- Metamodel::ParametricRoleHOW&#45;&gt;Metamodel::Naming -->
<g id="edge20" class="edge"><title>Metamodel::ParametricRoleHOW&#45;&gt;Metamodel::Naming</title>
<path fill="none" stroke="#6666ff" d="M-69.7298,-149.087C-70.5649,-108.464 -72.5986,-9.52339 -73.6033,39.3512"/>
<polygon fill="#6666ff" stroke="#6666ff" points="-70.1077,39.6085 -73.8126,49.5344 -77.1062,39.4646 -70.1077,39.6085"/>
</g>
<!-- Metamodel::ParametricRoleHOW&#45;&gt;Metamodel::Documenting -->
<g id="edge21" class="edge"><title>Metamodel::ParametricRoleHOW&#45;&gt;Metamodel::Documenting</title>
<path fill="none" stroke="#6666ff" d="M32.6115,-154.539C124.85,-143.161 259.816,-126.513 351.07,-115.256"/>
<polygon fill="#6666ff" stroke="#6666ff" points="351.648,-118.711 361.144,-114.013 350.791,-111.764 351.648,-118.711"/>
</g>
<!-- Metamodel::ParametricRoleHOW&#45;&gt;Metamodel::Versioning -->
<g id="edge22" class="edge"><title>Metamodel::ParametricRoleHOW&#45;&gt;Metamodel::Versioning</title>
<path fill="none" stroke="#6666ff" d="M-0.922705,-151.244C90.8751,-129.953 242.489,-94.788 242.489,-94.788 242.489,-94.788 581.53,-13.984 732.049,21.8894"/>
<polygon fill="#6666ff" stroke="#6666ff" points="733.204,18.5664 742.12,24.2895 731.581,25.3757 733.204,18.5664"/>
</g>
<!-- Metamodel::ParametricRoleHOW&#45;&gt;Metamodel::Stashing -->
<g id="edge29" class="edge"><title>Metamodel::ParametricRoleHOW&#45;&gt;Metamodel::Stashing</title>
<path fill="none" stroke="#6666ff" d="M-21.0038,-150.08C19.838,-135.691 78.299,-115.093 120.812,-100.115"/>
<polygon fill="#6666ff" stroke="#6666ff" points="122.172,-103.347 130.44,-96.7228 119.846,-96.7448 122.172,-103.347"/>
</g>
<!-- Metamodel::ParametricRoleHOW&#45;&gt;Metamodel::RolePunning -->
<g id="edge31" class="edge"><title>Metamodel::ParametricRoleHOW&#45;&gt;Metamodel::RolePunning</title>
<path fill="none" stroke="#6666ff" d="M-113.319,-149.915C-174.167,-126.105 -276.646,-86.003 -276.646,-86.003 -276.646,-86.003 -543.011,-27.9462 -677.828,1.43823"/>
<polygon fill="#6666ff" stroke="#6666ff" points="-677.18,4.87909 -687.696,3.58905 -678.67,-1.96034 -677.18,4.87909"/>
</g>
<!-- Metamodel::ParametricRoleHOW&#45;&gt;Metamodel::MethodContainer -->
<g id="edge23" class="edge"><title>Metamodel::ParametricRoleHOW&#45;&gt;Metamodel::MethodContainer</title>
<path fill="none" stroke="#6666ff" d="M-57.6197,-185.1C-28.6429,-229.486 46.3885,-344.419 80.3902,-396.503"/>
<polygon fill="#6666ff" stroke="#6666ff" points="77.4652,-398.425 85.8625,-404.886 83.3267,-394.599 77.4652,-398.425"/>
</g>
<!-- Metamodel::ParametricRoleHOW&#45;&gt;Metamodel::PrivateMethodContainer -->
<g id="edge24" class="edge"><title>Metamodel::ParametricRoleHOW&#45;&gt;Metamodel::PrivateMethodContainer</title>
<path fill="none" stroke="#6666ff" d="M-77.0237,-185.479C-96.2473,-231.534 -146.597,-352.158 -169.378,-406.736"/>
<polygon fill="#6666ff" stroke="#6666ff" points="-172.675,-405.549 -173.298,-416.125 -166.216,-408.245 -172.675,-405.549"/>
</g>
<!-- Metamodel::ParametricRoleHOW&#45;&gt;Metamodel::MultiMethodContainer -->
<g id="edge25" class="edge"><title>Metamodel::ParametricRoleHOW&#45;&gt;Metamodel::MultiMethodContainer</title>
<path fill="none" stroke="#6666ff" d="M-37.8974,-184.812C42.2316,-229.879 253.936,-348.949 342.897,-398.983"/>
<polygon fill="#6666ff" stroke="#6666ff" points="341.186,-402.036 351.618,-403.888 344.618,-395.935 341.186,-402.036"/>
</g>
<!-- Metamodel::ParametricRoleHOW&#45;&gt;Metamodel::AttributeContainer -->
<g id="edge26" class="edge"><title>Metamodel::ParametricRoleHOW&#45;&gt;Metamodel::AttributeContainer</title>
<path fill="none" stroke="#6666ff" d="M-4.48813,-183.202C151.403,-221.855 546.313,-319.773 710.763,-360.549"/>
<polygon fill="#6666ff" stroke="#6666ff" points="710.237,-364.024 720.785,-363.034 711.921,-357.23 710.237,-364.024"/>
</g>
<!-- Metamodel::ParametricRoleHOW&#45;&gt;Metamodel::RoleContainer -->
<g id="edge27" class="edge"><title>Metamodel::ParametricRoleHOW&#45;&gt;Metamodel::RoleContainer</title>
<path fill="none" stroke="#6666ff" d="M-99.5404,-184.732C-172.083,-227.072 -356.17,-334.513 -436.656,-381.489"/>
<polygon fill="#6666ff" stroke="#6666ff" points="-438.616,-378.58 -445.488,-386.643 -435.087,-384.625 -438.616,-378.58"/>
</g>
<!-- Metamodel::ParametricRoleHOW&#45;&gt;Metamodel::MultipleInheritance -->
<g id="edge28" class="edge"><title>Metamodel::ParametricRoleHOW&#45;&gt;Metamodel::MultipleInheritance</title>
<path fill="none" stroke="#6666ff" d="M-135.725,-183.065C-281.104,-218 -626.912,-301.099 -780.257,-337.948"/>
<polygon fill="#6666ff" stroke="#6666ff" points="-781.17,-334.567 -790.075,-340.307 -779.534,-341.374 -781.17,-334.567"/>
</g>
<!-- Metamodel::PackageHOW -->
<g id="node21" class="node"><title>Metamodel::PackageHOW</title>
<g id="a_node21"><a xlink:href="/type/Metamodel::PackageHOW" xlink:title="Metamodel::PackageHOW">
<ellipse fill="none" stroke="#000000" cx="283.511" cy="471.796" rx="116.18" ry="18"/>
<text text-anchor="middle" x="283.511" y="475.496" font-family="FreeSans" font-size="14.00" fill="#000000">Metamodel::PackageHOW</text>
</a>
</g>
</g>
<!-- Metamodel::PackageHOW&#45;&gt;Metamodel::TypePretense -->
<g id="edge35" class="edge"><title>Metamodel::PackageHOW&#45;&gt;Metamodel::TypePretense</title>
<path fill="none" stroke="#6666ff" d="M263.579,454.062C170.292,371.057 -223.214,20.9292 -331.333,-75.272"/>
<polygon fill="#6666ff" stroke="#6666ff" points="-333.761,-72.747 -338.905,-82.0091 -329.108,-77.9766 -333.761,-72.747"/>
</g>
<!-- Metamodel::PackageHOW&#45;&gt;Any -->
<g id="edge6" class="edge"><title>Metamodel::PackageHOW&#45;&gt;Any</title>
<path fill="none" stroke="#000000" d="M269.09,453.643C234.304,409.855 145.769,298.406 106.572,249.064"/>
<polygon fill="#000000" stroke="#000000" points="103.764,251.156 100.285,241.149 109.245,246.802 103.764,251.156"/>
</g>
<!-- Metamodel::PackageHOW&#45;&gt;Metamodel::Naming -->
<g id="edge32" class="edge"><title>Metamodel::PackageHOW&#45;&gt;Metamodel::Naming</title>
<path fill="none" stroke="#6666ff" d="M266.905,453.906C216.278,399.365 67.3089,238.878 67.3089,238.878 67.3089,238.878 -13.3762,141.223 -52.889,93.4002"/>
<polygon fill="#6666ff" stroke="#6666ff" points="-55.6383,95.5677 -59.3096,85.6292 -50.2419,91.109 -55.6383,95.5677"/>
</g>
<!-- Metamodel::PackageHOW&#45;&gt;Metamodel::Documenting -->
<g id="edge33" class="edge"><title>Metamodel::PackageHOW&#45;&gt;Metamodel::Documenting</title>
<path fill="none" stroke="#6666ff" d="M282.786,453.697C280.211,389.333 271.648,175.341 271.648,175.341 271.648,175.341 387.881,-6.19268 432.632,-76.085"/>
<polygon fill="#6666ff" stroke="#6666ff" points="429.871,-78.2631 438.211,-84.7974 435.766,-74.4885 429.871,-78.2631"/>
</g>
<!-- Metamodel::PackageHOW&#45;&gt;Metamodel::Stashing -->
<g id="edge34" class="edge"><title>Metamodel::PackageHOW&#45;&gt;Metamodel::Stashing</title>
<path fill="none" stroke="#6666ff" d="M279.975,453.721C264.207,373.119 200.238,46.1157 180.935,-52.5593"/>
<polygon fill="#6666ff" stroke="#6666ff" points="177.443,-52.1829 178.958,-62.6688 184.312,-53.5268 177.443,-52.1829"/>
</g>
<!-- Metamodel::PackageHOW&#45;&gt;Metamodel::MethodDelegation -->
<g id="edge36" class="edge"><title>Metamodel::PackageHOW&#45;&gt;Metamodel::MethodDelegation</title>
<path fill="none" stroke="#6666ff" d="M380.405,461.831C454.202,454.242 556.058,443.767 634.123,435.739"/>
<polygon fill="#6666ff" stroke="#6666ff" points="634.184,432.215 644.489,434.673 634.9,439.178 634.184,432.215"/>
</g>
</g>
</svg>
