<?xml version="1.0" encoding="UTF-8" standalone="no"?>
<!DOCTYPE svg PUBLIC "-//W3C//DTD SVG 1.1//EN"
 "http://www.w3.org/Graphics/SVG/1.1/DTD/svg11.dtd">
<!-- Generated by graphviz version 2.38.0 (20140413.2041)
 -->
<!-- Title: perl6&#45;type&#45;graph Pages: 1 -->
<svg width="238pt" height="404pt"
 viewBox="0.00 0.00 238.29 404.00" xmlns="http://www.w3.org/2000/svg" xmlns:xlink="http://www.w3.org/1999/xlink">
<g id="graph0" class="graph" transform="scale(1 1) rotate(0) translate(4 400)">
<title>perl6&#45;type&#45;graph</title>
<polygon fill="white" stroke="none" points="-4,4 -4,-400 234.286,-400 234.286,4 -4,4"/>
<!-- X::Syntax::Extension::Null -->
<g id="node1" class="node"><title>X::Syntax::Extension::Null</title>
<g id="a_node1"><a xlink:href="/type/X::Syntax::Extension::Null" xlink:title="X::Syntax::Extension::Null">
<ellipse fill="none" stroke="#000000" cx="112.44" cy="-18" rx="112.38" ry="18"/>
<text text-anchor="middle" x="112.44" y="-14.3" font-family="FreeSans" font-size="14.00" fill="#000000">X::Syntax::Extension::Null</text>
</a>
</g>
</g>
<!-- Exception -->
<g id="node4" class="node"><title>Exception</title>
<g id="a_node4"><a xlink:href="/type/Exception" xlink:title="Exception">
<ellipse fill="none" stroke="#000000" cx="112.44" cy="-234" rx="49.2915" ry="18"/>
<text text-anchor="middle" x="112.44" y="-230.3" font-family="FreeSans" font-size="14.00" fill="#000000">Exception</text>
</a>
</g>
</g>
<!-- X::Syntax::Extension::Null&#45;&gt;Exception -->
<g id="edge1" class="edge"><title>X::Syntax::Extension::Null&#45;&gt;Exception</title>
<path fill="none" stroke="#000000" d="M106.324,-36.0613C100.769,-51.5549 93.44,-72 93.44,-72 93.44,-72 93.44,-108 93.44,-108 93.44,-108 102.713,-169.008 108.303,-205.782"/>
<polygon fill="#000000" stroke="#000000" points="104.875,-206.521 109.838,-215.881 111.795,-205.469 104.875,-206.521"/>
</g>
<!-- X::Syntax -->
<g id="node6" class="node"><title>X::Syntax</title>
<g id="a_node6"><a xlink:href="/type/X::Syntax" xlink:title="X::Syntax">
<ellipse fill="none" stroke="#6666ff" cx="150.44" cy="-90" rx="48.1917" ry="18"/>
<text text-anchor="middle" x="150.44" y="-86.3" font-family="FreeSans" font-size="14.00" fill="#6666ff">X::Syntax</text>
</a>
</g>
</g>
<!-- X::Syntax::Extension::Null&#45;&gt;X::Syntax -->
<g id="edge6" class="edge"><title>X::Syntax::Extension::Null&#45;&gt;X::Syntax</title>
<path fill="none" stroke="#6666ff" d="M121.639,-35.945C126.073,-44.1134 131.488,-54.0884 136.421,-63.1756"/>
<polygon fill="#6666ff" stroke="#6666ff" points="133.479,-65.0923 141.326,-72.211 139.631,-61.7526 133.479,-65.0923"/>
</g>
<!-- Mu -->
<g id="node2" class="node"><title>Mu</title>
<g id="a_node2"><a xlink:href="/type/Mu" xlink:title="Mu">
<ellipse fill="none" stroke="#000000" cx="112.44" cy="-378" rx="27" ry="18"/>
<text text-anchor="middle" x="112.44" y="-374.3" font-family="FreeSans" font-size="14.00" fill="#000000">Mu</text>
</a>
</g>
</g>
<!-- Any -->
<g id="node3" class="node"><title>Any</title>
<g id="a_node3"><a xlink:href="/type/Any" xlink:title="Any">
<ellipse fill="none" stroke="#000000" cx="112.44" cy="-306" rx="27" ry="18"/>
<text text-anchor="middle" x="112.44" y="-302.3" font-family="FreeSans" font-size="14.00" fill="#000000">Any</text>
</a>
</g>
</g>
<!-- Any&#45;&gt;Mu -->
<g id="edge2" class="edge"><title>Any&#45;&gt;Mu</title>
<path fill="none" stroke="#000000" d="M112.44,-324.303C112.44,-332.017 112.44,-341.288 112.44,-349.888"/>
<polygon fill="#000000" stroke="#000000" points="108.94,-349.896 112.44,-359.896 115.94,-349.896 108.94,-349.896"/>
</g>
<!-- Exception&#45;&gt;Any -->
<g id="edge3" class="edge"><title>Exception&#45;&gt;Any</title>
<path fill="none" stroke="#000000" d="M112.44,-252.303C112.44,-260.017 112.44,-269.288 112.44,-277.888"/>
<polygon fill="#000000" stroke="#000000" points="108.94,-277.896 112.44,-287.896 115.94,-277.896 108.94,-277.896"/>
</g>
<!-- X::Comp -->
<g id="node5" class="node"><title>X::Comp</title>
<g id="a_node5"><a xlink:href="/type/X::Comp" xlink:title="X::Comp">
<ellipse fill="none" stroke="#6666ff" cx="185.44" cy="-162" rx="44.6926" ry="18"/>
<text text-anchor="middle" x="185.44" y="-158.3" font-family="FreeSans" font-size="14.00" fill="#6666ff">X::Comp</text>
</a>
</g>
</g>
<!-- X::Comp&#45;&gt;Exception -->
<g id="edge4" class="edge"><title>X::Comp&#45;&gt;Exception</title>
<path fill="none" stroke="#000000" d="M168.875,-178.884C159.329,-188.038 147.159,-199.707 136.566,-209.865"/>
<polygon fill="#000000" stroke="#000000" points="133.987,-207.489 129.192,-216.936 138.832,-212.541 133.987,-207.489"/>
</g>
<!-- X::Syntax&#45;&gt;Exception -->
<g id="edge5" class="edge"><title>X::Syntax&#45;&gt;Exception</title>
<path fill="none" stroke="#000000" d="M144.324,-108.061C138.769,-123.555 131.44,-144 131.44,-144 131.44,-144 123.79,-179.833 118.199,-206.025"/>
<polygon fill="#000000" stroke="#000000" points="114.768,-205.33 116.103,-215.84 121.614,-206.791 114.768,-205.33"/>
</g>
<!-- X::Syntax&#45;&gt;X::Comp -->
<g id="edge7" class="edge"><title>X::Syntax&#45;&gt;X::Comp</title>
<path fill="none" stroke="#6666ff" d="M158.913,-107.945C162.997,-116.113 167.984,-126.088 172.528,-135.176"/>
<polygon fill="#6666ff" stroke="#6666ff" points="169.443,-136.832 177.046,-144.211 175.704,-133.701 169.443,-136.832"/>
</g>
</g>
</svg>
