<?xml version="1.0" encoding="UTF-8" standalone="no"?>
<!DOCTYPE svg PUBLIC "-//W3C//DTD SVG 1.1//EN"
 "http://www.w3.org/Graphics/SVG/1.1/DTD/svg11.dtd">
<!-- Generated by graphviz version 2.38.0 (20140413.2041)
 -->
<!-- Title: perl6&#45;type&#45;graph Pages: 1 -->
<svg width="260pt" height="332pt"
 viewBox="0.00 0.00 260.18 332.00" xmlns="http://www.w3.org/2000/svg" xmlns:xlink="http://www.w3.org/1999/xlink">
<g id="graph0" class="graph" transform="scale(1 1) rotate(0) translate(4 328)">
<title>perl6&#45;type&#45;graph</title>
<polygon fill="white" stroke="none" points="-4,4 -4,-328 256.178,-328 256.178,4 -4,4"/>
<!-- X::DateTime::InvalidDeltaUnit -->
<g id="node1" class="node"><title>X::DateTime::InvalidDeltaUnit</title>
<g id="a_node1"><a xlink:href="/type/X::DateTime::InvalidDeltaUnit" xlink:title="X::DateTime::InvalidDeltaUnit">
<ellipse fill="none" stroke="#000000" cx="126.089" cy="-18" rx="126.178" ry="18"/>
<text text-anchor="middle" x="126.089" y="-14.3" font-family="FreeSans" font-size="14.00" fill="#000000">X::DateTime::InvalidDeltaUnit</text>
</a>
</g>
</g>
<!-- Exception -->
<g id="node4" class="node"><title>Exception</title>
<g id="a_node4"><a xlink:href="/type/Exception" xlink:title="Exception">
<ellipse fill="none" stroke="#000000" cx="126.089" cy="-162" rx="49.2915" ry="18"/>
<text text-anchor="middle" x="126.089" y="-158.3" font-family="FreeSans" font-size="14.00" fill="#000000">Exception</text>
</a>
</g>
</g>
<!-- X::DateTime::InvalidDeltaUnit&#45;&gt;Exception -->
<g id="edge1" class="edge"><title>X::DateTime::InvalidDeltaUnit&#45;&gt;Exception</title>
<path fill="none" stroke="#000000" d="M118.363,-36.0613C111.347,-51.5549 102.089,-72 102.089,-72 102.089,-72 102.089,-108 102.089,-108 102.089,-108 108.084,-121.239 114.081,-134.483"/>
<polygon fill="#000000" stroke="#000000" points="111.049,-136.273 118.363,-143.939 117.426,-133.385 111.049,-136.273"/>
</g>
<!-- X::Temporal -->
<g id="node5" class="node"><title>X::Temporal</title>
<g id="a_node5"><a xlink:href="/type/X::Temporal" xlink:title="X::Temporal">
<ellipse fill="none" stroke="#6666ff" cx="170.089" cy="-90" rx="59.2899" ry="18"/>
<text text-anchor="middle" x="170.089" y="-86.3" font-family="FreeSans" font-size="14.00" fill="#6666ff">X::Temporal</text>
</a>
</g>
</g>
<!-- X::DateTime::InvalidDeltaUnit&#45;&gt;X::Temporal -->
<g id="edge5" class="edge"><title>X::DateTime::InvalidDeltaUnit&#45;&gt;X::Temporal</title>
<path fill="none" stroke="#6666ff" d="M136.74,-35.945C141.928,-44.1994 148.277,-54.2986 154.037,-63.4622"/>
<polygon fill="#6666ff" stroke="#6666ff" points="151.251,-65.6072 159.536,-72.211 157.177,-61.882 151.251,-65.6072"/>
</g>
<!-- Mu -->
<g id="node2" class="node"><title>Mu</title>
<g id="a_node2"><a xlink:href="/type/Mu" xlink:title="Mu">
<ellipse fill="none" stroke="#000000" cx="126.089" cy="-306" rx="27" ry="18"/>
<text text-anchor="middle" x="126.089" y="-302.3" font-family="FreeSans" font-size="14.00" fill="#000000">Mu</text>
</a>
</g>
</g>
<!-- Any -->
<g id="node3" class="node"><title>Any</title>
<g id="a_node3"><a xlink:href="/type/Any" xlink:title="Any">
<ellipse fill="none" stroke="#000000" cx="126.089" cy="-234" rx="27" ry="18"/>
<text text-anchor="middle" x="126.089" y="-230.3" font-family="FreeSans" font-size="14.00" fill="#000000">Any</text>
</a>
</g>
</g>
<!-- Any&#45;&gt;Mu -->
<g id="edge2" class="edge"><title>Any&#45;&gt;Mu</title>
<path fill="none" stroke="#000000" d="M126.089,-252.303C126.089,-260.017 126.089,-269.288 126.089,-277.888"/>
<polygon fill="#000000" stroke="#000000" points="122.589,-277.896 126.089,-287.896 129.589,-277.896 122.589,-277.896"/>
</g>
<!-- Exception&#45;&gt;Any -->
<g id="edge3" class="edge"><title>Exception&#45;&gt;Any</title>
<path fill="none" stroke="#000000" d="M126.089,-180.303C126.089,-188.017 126.089,-197.288 126.089,-205.888"/>
<polygon fill="#000000" stroke="#000000" points="122.589,-205.896 126.089,-215.896 129.589,-205.896 122.589,-205.896"/>
</g>
<!-- X::Temporal&#45;&gt;Exception -->
<g id="edge4" class="edge"><title>X::Temporal&#45;&gt;Exception</title>
<path fill="none" stroke="#000000" d="M159.438,-107.945C154.249,-116.199 147.901,-126.299 142.141,-135.462"/>
<polygon fill="#000000" stroke="#000000" points="139,-133.882 136.642,-144.211 144.927,-137.607 139,-133.882"/>
</g>
</g>
</svg>
