<?xml version="1.0" encoding="UTF-8" standalone="no"?>
<!DOCTYPE svg PUBLIC "-//W3C//DTD SVG 1.1//EN"
 "http://www.w3.org/Graphics/SVG/1.1/DTD/svg11.dtd">
<!-- Generated by graphviz version 2.38.0 (20140413.2041)
 -->
<!-- Title: perl6&#45;type&#45;graph Pages: 1 -->
<svg width="321pt" height="260pt"
 viewBox="0.00 0.00 321.49 260.00" xmlns="http://www.w3.org/2000/svg" xmlns:xlink="http://www.w3.org/1999/xlink">
<g id="graph0" class="graph" transform="scale(1 1) rotate(0) translate(4 256)">
<title>perl6&#45;type&#45;graph</title>
<polygon fill="white" stroke="none" points="-4,4 -4,-256 317.494,-256 317.494,4 -4,4"/>
<!-- Uni -->
<g id="node1" class="node"><title>Uni</title>
<g id="a_node1"><a xlink:href="/type/Uni" xlink:title="Uni">
<ellipse fill="none" stroke="#000000" cx="156.747" cy="-90" rx="27" ry="18"/>
<text text-anchor="middle" x="156.747" y="-86.3" font-family="FreeSans" font-size="14.00" fill="#000000">Uni</text>
</a>
</g>
</g>
<!-- Any -->
<g id="node3" class="node"><title>Any</title>
<g id="a_node3"><a xlink:href="/type/Any" xlink:title="Any">
<ellipse fill="none" stroke="#000000" cx="62.7468" cy="-162" rx="27" ry="18"/>
<text text-anchor="middle" x="62.7468" y="-158.3" font-family="FreeSans" font-size="14.00" fill="#000000">Any</text>
</a>
</g>
</g>
<!-- Uni&#45;&gt;Any -->
<g id="edge1" class="edge"><title>Uni&#45;&gt;Any</title>
<path fill="none" stroke="#000000" d="M139.066,-104.166C124.797,-114.793 104.524,-129.89 88.4582,-141.853"/>
<polygon fill="#000000" stroke="#000000" points="85.9606,-139.349 80.0306,-148.129 90.1415,-144.964 85.9606,-139.349"/>
</g>
<!-- Positional -->
<g id="node4" class="node"><title>Positional</title>
<g id="a_node4"><a xlink:href="/type/Positional" xlink:title="Positional">
<ellipse fill="none" stroke="#6666ff" cx="156.747" cy="-162" rx="48.9926" ry="18"/>
<text text-anchor="middle" x="156.747" y="-158.3" font-family="FreeSans" font-size="14.00" fill="#6666ff">Positional</text>
</a>
</g>
</g>
<!-- Uni&#45;&gt;Positional -->
<g id="edge7" class="edge"><title>Uni&#45;&gt;Positional</title>
<path fill="none" stroke="#6666ff" d="M156.747,-108.303C156.747,-116.017 156.747,-125.288 156.747,-133.888"/>
<polygon fill="#6666ff" stroke="#6666ff" points="153.247,-133.896 156.747,-143.896 160.247,-133.896 153.247,-133.896"/>
</g>
<!-- Stringy -->
<g id="node5" class="node"><title>Stringy</title>
<g id="a_node5"><a xlink:href="/type/Stringy" xlink:title="Stringy">
<ellipse fill="none" stroke="#6666ff" cx="261.747" cy="-162" rx="38.1938" ry="18"/>
<text text-anchor="middle" x="261.747" y="-158.3" font-family="FreeSans" font-size="14.00" fill="#6666ff">Stringy</text>
</a>
</g>
</g>
<!-- Uni&#45;&gt;Stringy -->
<g id="edge8" class="edge"><title>Uni&#45;&gt;Stringy</title>
<path fill="none" stroke="#6666ff" d="M175.519,-103.515C191.233,-113.991 213.94,-129.129 232.107,-141.24"/>
<polygon fill="#6666ff" stroke="#6666ff" points="230.349,-144.275 240.611,-146.909 234.232,-138.45 230.349,-144.275"/>
</g>
<!-- Mu -->
<g id="node2" class="node"><title>Mu</title>
<g id="a_node2"><a xlink:href="/type/Mu" xlink:title="Mu">
<ellipse fill="none" stroke="#000000" cx="62.7468" cy="-234" rx="27" ry="18"/>
<text text-anchor="middle" x="62.7468" y="-230.3" font-family="FreeSans" font-size="14.00" fill="#000000">Mu</text>
</a>
</g>
</g>
<!-- Any&#45;&gt;Mu -->
<g id="edge2" class="edge"><title>Any&#45;&gt;Mu</title>
<path fill="none" stroke="#000000" d="M62.7468,-180.303C62.7468,-188.017 62.7468,-197.288 62.7468,-205.888"/>
<polygon fill="#000000" stroke="#000000" points="59.2469,-205.896 62.7468,-215.896 66.2469,-205.896 59.2469,-205.896"/>
</g>
<!-- NFKC -->
<g id="node6" class="node"><title>NFKC</title>
<g id="a_node6"><a xlink:href="/type/NFKC" xlink:title="NFKC">
<ellipse fill="none" stroke="#000000" cx="35.7468" cy="-18" rx="35.9954" ry="18"/>
<text text-anchor="middle" x="35.7468" y="-14.3" font-family="FreeSans" font-size="14.00" fill="#000000">NFKC</text>
</a>
</g>
</g>
<!-- NFKC&#45;&gt;Uni -->
<g id="edge3" class="edge"><title>NFKC&#45;&gt;Uni</title>
<path fill="none" stroke="#000000" d="M58.2224,-32.0024C77.9568,-43.419 106.769,-60.0869 128.142,-72.4519"/>
<polygon fill="#000000" stroke="#000000" points="126.39,-75.4819 136.799,-77.4599 129.896,-69.4228 126.39,-75.4819"/>
</g>
<!-- NFC -->
<g id="node7" class="node"><title>NFC</title>
<g id="a_node7"><a xlink:href="/type/NFC" xlink:title="NFC">
<ellipse fill="none" stroke="#000000" cx="118.747" cy="-18" rx="29.4969" ry="18"/>
<text text-anchor="middle" x="118.747" y="-14.3" font-family="FreeSans" font-size="14.00" fill="#000000">NFC</text>
</a>
</g>
</g>
<!-- NFC&#45;&gt;Uni -->
<g id="edge4" class="edge"><title>NFC&#45;&gt;Uni</title>
<path fill="none" stroke="#000000" d="M127.56,-35.2354C132.165,-43.7169 137.902,-54.2856 143.068,-63.8026"/>
<polygon fill="#000000" stroke="#000000" points="140.134,-65.734 147.981,-72.8527 146.286,-62.3943 140.134,-65.734"/>
</g>
<!-- NFD -->
<g id="node8" class="node"><title>NFD</title>
<g id="a_node8"><a xlink:href="/type/NFD" xlink:title="NFD">
<ellipse fill="none" stroke="#000000" cx="194.747" cy="-18" rx="29.4969" ry="18"/>
<text text-anchor="middle" x="194.747" y="-14.3" font-family="FreeSans" font-size="14.00" fill="#000000">NFD</text>
</a>
</g>
</g>
<!-- NFD&#45;&gt;Uni -->
<g id="edge5" class="edge"><title>NFD&#45;&gt;Uni</title>
<path fill="none" stroke="#000000" d="M185.933,-35.2354C181.329,-43.7169 175.592,-54.2856 170.425,-63.8026"/>
<polygon fill="#000000" stroke="#000000" points="167.207,-62.3943 165.513,-72.8527 173.359,-65.734 167.207,-62.3943"/>
</g>
<!-- NFKD -->
<g id="node9" class="node"><title>NFKD</title>
<g id="a_node9"><a xlink:href="/type/NFKD" xlink:title="NFKD">
<ellipse fill="none" stroke="#000000" cx="277.747" cy="-18" rx="35.9954" ry="18"/>
<text text-anchor="middle" x="277.747" y="-14.3" font-family="FreeSans" font-size="14.00" fill="#000000">NFKD</text>
</a>
</g>
</g>
<!-- NFKD&#45;&gt;Uni -->
<g id="edge6" class="edge"><title>NFKD&#45;&gt;Uni</title>
<path fill="none" stroke="#000000" d="M255.271,-32.0024C235.537,-43.419 206.725,-60.0869 185.351,-72.4519"/>
<polygon fill="#000000" stroke="#000000" points="183.598,-69.4228 176.695,-77.4599 187.103,-75.4819 183.598,-69.4228"/>
</g>
</g>
</svg>
