<?xml version="1.0" encoding="UTF-8" standalone="no"?>
<!DOCTYPE svg PUBLIC "-//W3C//DTD SVG 1.1//EN"
 "http://www.w3.org/Graphics/SVG/1.1/DTD/svg11.dtd">
<!-- Generated by graphviz version 2.38.0 (20140413.2041)
 -->
<!-- Title: perl6&#45;type&#45;graph Pages: 1 -->
<svg width="230pt" height="404pt"
 viewBox="0.00 0.00 229.99 404.00" xmlns="http://www.w3.org/2000/svg" xmlns:xlink="http://www.w3.org/1999/xlink">
<g id="graph0" class="graph" transform="scale(1 1) rotate(0) translate(4 400)">
<title>perl6&#45;type&#45;graph</title>
<polygon fill="white" stroke="none" points="-4,4 -4,-400 225.991,-400 225.991,4 -4,4"/>
<!-- X::IO::Rename -->
<g id="node1" class="node"><title>X::IO::Rename</title>
<g id="a_node1"><a xlink:href="/type/X::IO::Rename" xlink:title="X::IO::Rename">
<ellipse fill="none" stroke="#000000" cx="69.5438" cy="-18" rx="69.5877" ry="18"/>
<text text-anchor="middle" x="69.5438" y="-14.3" font-family="FreeSans" font-size="14.00" fill="#000000">X::IO::Rename</text>
</a>
</g>
</g>
<!-- Exception -->
<g id="node4" class="node"><title>Exception</title>
<g id="a_node4"><a xlink:href="/type/Exception" xlink:title="Exception">
<ellipse fill="none" stroke="#000000" cx="69.5438" cy="-234" rx="49.2915" ry="18"/>
<text text-anchor="middle" x="69.5438" y="-230.3" font-family="FreeSans" font-size="14.00" fill="#000000">Exception</text>
</a>
</g>
</g>
<!-- X::IO::Rename&#45;&gt;Exception -->
<g id="edge1" class="edge"><title>X::IO::Rename&#45;&gt;Exception</title>
<path fill="none" stroke="#000000" d="M61.7888,-36.1508C54.6996,-73.2599 54.1714,-161.253 60.2041,-205.946"/>
<polygon fill="#000000" stroke="#000000" points="56.7878,-206.747 61.8301,-216.065 63.6991,-205.636 56.7878,-206.747"/>
</g>
<!-- X::IO::Rename&#45;&gt;Exception -->
<g id="edge2" class="edge"><title>X::IO::Rename&#45;&gt;Exception</title>
<path fill="none" stroke="#000000" d="M69.5438,-36.1508C69.5438,-73.1683 69.5438,-160.819 69.5438,-205.614"/>
<polygon fill="#000000" stroke="#000000" points="66.0439,-205.768 69.5438,-215.768 73.0439,-205.768 66.0439,-205.768"/>
</g>
<!-- X::IO::Rename&#45;&gt;Exception -->
<g id="edge3" class="edge"><title>X::IO::Rename&#45;&gt;Exception</title>
<path fill="none" stroke="#000000" d="M77.2989,-36.1508C84.388,-73.2599 84.9163,-161.253 78.8836,-205.946"/>
<polygon fill="#000000" stroke="#000000" points="75.3885,-205.636 77.2575,-216.065 82.2999,-206.747 75.3885,-205.636"/>
</g>
<!-- X::IO -->
<g id="node6" class="node"><title>X::IO</title>
<g id="a_node6"><a xlink:href="/type/X::IO" xlink:title="X::IO">
<ellipse fill="none" stroke="#6666ff" cx="146.544" cy="-90" rx="31.3957" ry="18"/>
<text text-anchor="middle" x="146.544" y="-86.3" font-family="FreeSans" font-size="14.00" fill="#6666ff">X::IO</text>
</a>
</g>
</g>
<!-- X::IO::Rename&#45;&gt;X::IO -->
<g id="edge8" class="edge"><title>X::IO::Rename&#45;&gt;X::IO</title>
<path fill="none" stroke="#6666ff" d="M87.7918,-35.589C98.3429,-45.1809 111.731,-57.3519 123.061,-67.6521"/>
<polygon fill="#6666ff" stroke="#6666ff" points="120.763,-70.2926 130.516,-74.4295 125.471,-65.113 120.763,-70.2926"/>
</g>
<!-- Mu -->
<g id="node2" class="node"><title>Mu</title>
<g id="a_node2"><a xlink:href="/type/Mu" xlink:title="Mu">
<ellipse fill="none" stroke="#000000" cx="69.5438" cy="-378" rx="27" ry="18"/>
<text text-anchor="middle" x="69.5438" y="-374.3" font-family="FreeSans" font-size="14.00" fill="#000000">Mu</text>
</a>
</g>
</g>
<!-- Any -->
<g id="node3" class="node"><title>Any</title>
<g id="a_node3"><a xlink:href="/type/Any" xlink:title="Any">
<ellipse fill="none" stroke="#000000" cx="69.5438" cy="-306" rx="27" ry="18"/>
<text text-anchor="middle" x="69.5438" y="-302.3" font-family="FreeSans" font-size="14.00" fill="#000000">Any</text>
</a>
</g>
</g>
<!-- Any&#45;&gt;Mu -->
<g id="edge4" class="edge"><title>Any&#45;&gt;Mu</title>
<path fill="none" stroke="#000000" d="M69.5438,-324.303C69.5438,-332.017 69.5438,-341.288 69.5438,-349.888"/>
<polygon fill="#000000" stroke="#000000" points="66.0439,-349.896 69.5438,-359.896 73.0439,-349.896 66.0439,-349.896"/>
</g>
<!-- Exception&#45;&gt;Any -->
<g id="edge5" class="edge"><title>Exception&#45;&gt;Any</title>
<path fill="none" stroke="#000000" d="M69.5438,-252.303C69.5438,-260.017 69.5438,-269.288 69.5438,-277.888"/>
<polygon fill="#000000" stroke="#000000" points="66.0439,-277.896 69.5438,-287.896 73.0439,-277.896 66.0439,-277.896"/>
</g>
<!-- X::OS -->
<g id="node5" class="node"><title>X::OS</title>
<g id="a_node5"><a xlink:href="/type/X::OS" xlink:title="X::OS">
<ellipse fill="none" stroke="#6666ff" cx="187.544" cy="-162" rx="34.394" ry="18"/>
<text text-anchor="middle" x="187.544" y="-158.3" font-family="FreeSans" font-size="14.00" fill="#6666ff">X::OS</text>
</a>
</g>
</g>
<!-- X::OS&#45;&gt;Exception -->
<g id="edge6" class="edge"><title>X::OS&#45;&gt;Exception</title>
<path fill="none" stroke="#000000" d="M165.625,-176.002C148.055,-186.426 123.106,-201.226 103.034,-213.133"/>
<polygon fill="#000000" stroke="#000000" points="101.015,-210.261 94.1997,-218.374 104.586,-216.282 101.015,-210.261"/>
</g>
<!-- X::IO&#45;&gt;Exception -->
<g id="edge7" class="edge"><title>X::IO&#45;&gt;Exception</title>
<path fill="none" stroke="#000000" d="M138.08,-107.74C125.044,-133.521 101.544,-180 101.544,-180 101.544,-180 93.1324,-193.931 84.9346,-207.509"/>
<polygon fill="#000000" stroke="#000000" points="81.8413,-205.861 79.6688,-216.23 87.8338,-209.479 81.8413,-205.861"/>
</g>
<!-- X::IO&#45;&gt;X::OS -->
<g id="edge9" class="edge"><title>X::IO&#45;&gt;X::OS</title>
<path fill="none" stroke="#6666ff" d="M156.053,-107.235C161.001,-115.683 167.161,-126.201 172.718,-135.688"/>
<polygon fill="#6666ff" stroke="#6666ff" points="169.727,-137.507 177.801,-144.367 175.767,-133.969 169.727,-137.507"/>
</g>
</g>
</svg>
