<?xml version="1.0" encoding="UTF-8" standalone="no"?>
<!DOCTYPE svg PUBLIC "-//W3C//DTD SVG 1.1//EN"
 "http://www.w3.org/Graphics/SVG/1.1/DTD/svg11.dtd">
<!-- Generated by graphviz version 2.38.0 (20140413.2041)
 -->
<!-- Title: perl6&#45;type&#45;graph Pages: 1 -->
<svg width="219pt" height="404pt"
 viewBox="0.00 0.00 218.94 404.00" xmlns="http://www.w3.org/2000/svg" xmlns:xlink="http://www.w3.org/1999/xlink">
<g id="graph0" class="graph" transform="scale(1 1) rotate(0) translate(4 400)">
<title>perl6&#45;type&#45;graph</title>
<polygon fill="white" stroke="none" points="-4,4 -4,-400 214.942,-400 214.942,4 -4,4"/>
<!-- X::IO::Mkdir -->
<g id="node1" class="node"><title>X::IO::Mkdir</title>
<g id="a_node1"><a xlink:href="/type/X::IO::Mkdir" xlink:title="X::IO::Mkdir">
<ellipse fill="none" stroke="#000000" cx="58.4948" cy="-18" rx="58.4896" ry="18"/>
<text text-anchor="middle" x="58.4948" y="-14.3" font-family="FreeSans" font-size="14.00" fill="#000000">X::IO::Mkdir</text>
</a>
</g>
</g>
<!-- Exception -->
<g id="node4" class="node"><title>Exception</title>
<g id="a_node4"><a xlink:href="/type/Exception" xlink:title="Exception">
<ellipse fill="none" stroke="#000000" cx="58.4948" cy="-234" rx="49.2915" ry="18"/>
<text text-anchor="middle" x="58.4948" y="-230.3" font-family="FreeSans" font-size="14.00" fill="#000000">Exception</text>
</a>
</g>
</g>
<!-- X::IO::Mkdir&#45;&gt;Exception -->
<g id="edge1" class="edge"><title>X::IO::Mkdir&#45;&gt;Exception</title>
<path fill="none" stroke="#000000" d="M50.7398,-36.1508C43.6506,-73.2599 43.1224,-161.253 49.1551,-205.946"/>
<polygon fill="#000000" stroke="#000000" points="45.7388,-206.747 50.7811,-216.065 52.6501,-205.636 45.7388,-206.747"/>
</g>
<!-- X::IO::Mkdir&#45;&gt;Exception -->
<g id="edge2" class="edge"><title>X::IO::Mkdir&#45;&gt;Exception</title>
<path fill="none" stroke="#000000" d="M58.4948,-36.1508C58.4948,-73.1683 58.4948,-160.819 58.4948,-205.614"/>
<polygon fill="#000000" stroke="#000000" points="54.9949,-205.768 58.4948,-215.768 61.9949,-205.768 54.9949,-205.768"/>
</g>
<!-- X::IO::Mkdir&#45;&gt;Exception -->
<g id="edge3" class="edge"><title>X::IO::Mkdir&#45;&gt;Exception</title>
<path fill="none" stroke="#000000" d="M66.2499,-36.1508C73.339,-73.2599 73.8673,-161.253 67.8346,-205.946"/>
<polygon fill="#000000" stroke="#000000" points="64.3395,-205.636 66.2085,-216.065 71.2508,-206.747 64.3395,-205.636"/>
</g>
<!-- X::IO -->
<g id="node6" class="node"><title>X::IO</title>
<g id="a_node6"><a xlink:href="/type/X::IO" xlink:title="X::IO">
<ellipse fill="none" stroke="#6666ff" cx="135.495" cy="-90" rx="31.3957" ry="18"/>
<text text-anchor="middle" x="135.495" y="-86.3" font-family="FreeSans" font-size="14.00" fill="#6666ff">X::IO</text>
</a>
</g>
</g>
<!-- X::IO::Mkdir&#45;&gt;X::IO -->
<g id="edge8" class="edge"><title>X::IO::Mkdir&#45;&gt;X::IO</title>
<path fill="none" stroke="#6666ff" d="M76.3537,-35.2354C86.9662,-44.8831 100.549,-57.2315 112.021,-67.6605"/>
<polygon fill="#6666ff" stroke="#6666ff" points="109.81,-70.3802 119.564,-74.5172 114.519,-65.2006 109.81,-70.3802"/>
</g>
<!-- Mu -->
<g id="node2" class="node"><title>Mu</title>
<g id="a_node2"><a xlink:href="/type/Mu" xlink:title="Mu">
<ellipse fill="none" stroke="#000000" cx="58.4948" cy="-378" rx="27" ry="18"/>
<text text-anchor="middle" x="58.4948" y="-374.3" font-family="FreeSans" font-size="14.00" fill="#000000">Mu</text>
</a>
</g>
</g>
<!-- Any -->
<g id="node3" class="node"><title>Any</title>
<g id="a_node3"><a xlink:href="/type/Any" xlink:title="Any">
<ellipse fill="none" stroke="#000000" cx="58.4948" cy="-306" rx="27" ry="18"/>
<text text-anchor="middle" x="58.4948" y="-302.3" font-family="FreeSans" font-size="14.00" fill="#000000">Any</text>
</a>
</g>
</g>
<!-- Any&#45;&gt;Mu -->
<g id="edge4" class="edge"><title>Any&#45;&gt;Mu</title>
<path fill="none" stroke="#000000" d="M58.4948,-324.303C58.4948,-332.017 58.4948,-341.288 58.4948,-349.888"/>
<polygon fill="#000000" stroke="#000000" points="54.9949,-349.896 58.4948,-359.896 61.9949,-349.896 54.9949,-349.896"/>
</g>
<!-- Exception&#45;&gt;Any -->
<g id="edge5" class="edge"><title>Exception&#45;&gt;Any</title>
<path fill="none" stroke="#000000" d="M58.4948,-252.303C58.4948,-260.017 58.4948,-269.288 58.4948,-277.888"/>
<polygon fill="#000000" stroke="#000000" points="54.9949,-277.896 58.4948,-287.896 61.9949,-277.896 54.9949,-277.896"/>
</g>
<!-- X::OS -->
<g id="node5" class="node"><title>X::OS</title>
<g id="a_node5"><a xlink:href="/type/X::OS" xlink:title="X::OS">
<ellipse fill="none" stroke="#6666ff" cx="176.495" cy="-162" rx="34.394" ry="18"/>
<text text-anchor="middle" x="176.495" y="-158.3" font-family="FreeSans" font-size="14.00" fill="#6666ff">X::OS</text>
</a>
</g>
</g>
<!-- X::OS&#45;&gt;Exception -->
<g id="edge6" class="edge"><title>X::OS&#45;&gt;Exception</title>
<path fill="none" stroke="#000000" d="M154.576,-176.002C137.006,-186.426 112.057,-201.226 91.9853,-213.133"/>
<polygon fill="#000000" stroke="#000000" points="89.9655,-210.261 83.1506,-218.374 93.5369,-216.282 89.9655,-210.261"/>
</g>
<!-- X::IO&#45;&gt;Exception -->
<g id="edge7" class="edge"><title>X::IO&#45;&gt;Exception</title>
<path fill="none" stroke="#000000" d="M127.031,-107.74C113.995,-133.521 90.4948,-180 90.4948,-180 90.4948,-180 82.0834,-193.931 73.8856,-207.509"/>
<polygon fill="#000000" stroke="#000000" points="70.7923,-205.861 68.6198,-216.23 76.7848,-209.479 70.7923,-205.861"/>
</g>
<!-- X::IO&#45;&gt;X::OS -->
<g id="edge9" class="edge"><title>X::IO&#45;&gt;X::OS</title>
<path fill="none" stroke="#6666ff" d="M145.004,-107.235C149.952,-115.683 156.112,-126.201 161.669,-135.688"/>
<polygon fill="#6666ff" stroke="#6666ff" points="158.678,-137.507 166.752,-144.367 164.718,-133.969 158.678,-137.507"/>
</g>
</g>
</svg>
