<?xml version="1.0" encoding="UTF-8" standalone="no"?>
<!DOCTYPE svg PUBLIC "-//W3C//DTD SVG 1.1//EN"
 "http://www.w3.org/Graphics/SVG/1.1/DTD/svg11.dtd">
<!-- Generated by graphviz version 2.38.0 (20140413.2041)
 -->
<!-- Title: perl6&#45;type&#45;graph Pages: 1 -->
<svg width="1843pt" height="912pt"
 viewBox="0.00 0.00 1843.37 912.33" xmlns="http://www.w3.org/2000/svg" xmlns:xlink="http://www.w3.org/1999/xlink">
<g id="graph0" class="graph" transform="scale(1 1) rotate(0) translate(919.142 435.222)">
<title>perl6&#45;type&#45;graph</title>
<polygon fill="white" stroke="none" points="-919.142,477.111 -919.142,-435.222 924.228,-435.222 924.228,477.111 -919.142,477.111"/>
<!-- Metamodel::AttributeContainer -->
<g id="node1" class="node"><title>Metamodel::AttributeContainer</title>
<g id="a_node1"><a xlink:href="/type/Metamodel::AttributeContainer" xlink:title="Metamodel::AttributeContainer">
<ellipse fill="none" stroke="#6666ff" cx="8.62163" cy="56.8684" rx="129.977" ry="18"/>
<text text-anchor="middle" x="8.62163" y="60.5684" font-family="FreeSans" font-size="14.00" fill="#6666ff">Metamodel::AttributeContainer</text>
</a>
</g>
</g>
<!-- Mu -->
<g id="node2" class="node"><title>Mu</title>
<g id="a_node2"><a xlink:href="/type/Mu" xlink:title="Mu">
<ellipse fill="none" stroke="#000000" cx="151.355" cy="453.743" rx="27" ry="18"/>
<text text-anchor="middle" x="151.355" y="457.443" font-family="FreeSans" font-size="14.00" fill="#000000">Mu</text>
</a>
</g>
</g>
<!-- Any -->
<g id="node3" class="node"><title>Any</title>
<g id="a_node3"><a xlink:href="/type/Any" xlink:title="Any">
<ellipse fill="none" stroke="#000000" cx="20.825" cy="242.454" rx="27" ry="18"/>
<text text-anchor="middle" x="20.825" y="246.154" font-family="FreeSans" font-size="14.00" fill="#000000">Any</text>
</a>
</g>
</g>
<!-- Any&#45;&gt;Mu -->
<g id="edge1" class="edge"><title>Any&#45;&gt;Mu</title>
<path fill="none" stroke="#000000" d="M31.2862,259.388C54.1604,296.414 108.731,384.748 135.709,428.416"/>
<polygon fill="#000000" stroke="#000000" points="138.747,426.675 141.026,437.022 132.792,430.354 138.747,426.675"/>
</g>
<!-- Metamodel::Naming -->
<g id="node4" class="node"><title>Metamodel::Naming</title>
<g id="a_node4"><a xlink:href="/type/Metamodel::Naming" xlink:title="Metamodel::Naming">
<ellipse fill="none" stroke="#6666ff" cx="232.949" cy="14.6118" rx="90.1842" ry="18"/>
<text text-anchor="middle" x="232.949" y="18.3118" font-family="FreeSans" font-size="14.00" fill="#6666ff">Metamodel::Naming</text>
</a>
</g>
</g>
<!-- Metamodel::Documenting -->
<g id="node5" class="node"><title>Metamodel::Documenting</title>
<g id="a_node5"><a xlink:href="/type/Metamodel::Documenting" xlink:title="Metamodel::Documenting">
<ellipse fill="none" stroke="#6666ff" cx="428.975" cy="-395.453" rx="111.28" ry="18"/>
<text text-anchor="middle" x="428.975" y="-391.753" font-family="FreeSans" font-size="14.00" fill="#6666ff">Metamodel::Documenting</text>
</a>
</g>
</g>
<!-- Metamodel::Versioning -->
<g id="node6" class="node"><title>Metamodel::Versioning</title>
<g id="a_node6"><a xlink:href="/type/Metamodel::Versioning" xlink:title="Metamodel::Versioning">
<ellipse fill="none" stroke="#6666ff" cx="225.624" cy="-182.527" rx="100.983" ry="18"/>
<text text-anchor="middle" x="225.624" y="-178.827" font-family="FreeSans" font-size="14.00" fill="#6666ff">Metamodel::Versioning</text>
</a>
</g>
</g>
<!-- Metamodel::MethodContainer -->
<g id="node7" class="node"><title>Metamodel::MethodContainer</title>
<g id="a_node7"><a xlink:href="/type/Metamodel::MethodContainer" xlink:title="Metamodel::MethodContainer">
<ellipse fill="none" stroke="#6666ff" cx="-214.564" cy="24.0519" rx="127.277" ry="18"/>
<text text-anchor="middle" x="-214.564" y="27.7519" font-family="FreeSans" font-size="14.00" fill="#6666ff">Metamodel::MethodContainer</text>
</a>
</g>
</g>
<!-- Metamodel::PrivateMethodContainer -->
<g id="node8" class="node"><title>Metamodel::PrivateMethodContainer</title>
<g id="a_node8"><a xlink:href="/type/Metamodel::PrivateMethodContainer" xlink:title="Metamodel::PrivateMethodContainer">
<ellipse fill="none" stroke="#6666ff" cx="765.541" cy="-348.915" rx="154.873" ry="18"/>
<text text-anchor="middle" x="765.541" y="-345.215" font-family="FreeSans" font-size="14.00" fill="#6666ff">Metamodel::PrivateMethodContainer</text>
</a>
</g>
</g>
<!-- Metamodel::MultiMethodContainer -->
<g id="node9" class="node"><title>Metamodel::MultiMethodContainer</title>
<g id="a_node9"><a xlink:href="/type/Metamodel::MultiMethodContainer" xlink:title="Metamodel::MultiMethodContainer">
<ellipse fill="none" stroke="#6666ff" cx="-112.324" cy="455.111" rx="146.474" ry="18"/>
<text text-anchor="middle" x="-112.324" y="458.811" font-family="FreeSans" font-size="14.00" fill="#6666ff">Metamodel::MultiMethodContainer</text>
</a>
</g>
</g>
<!-- Metamodel::RoleContainer -->
<g id="node10" class="node"><title>Metamodel::RoleContainer</title>
<g id="a_node10"><a xlink:href="/type/Metamodel::RoleContainer" xlink:title="Metamodel::RoleContainer">
<ellipse fill="none" stroke="#6666ff" cx="236.628" cy="214.545" rx="115.88" ry="18"/>
<text text-anchor="middle" x="236.628" y="218.245" font-family="FreeSans" font-size="14.00" fill="#6666ff">Metamodel::RoleContainer</text>
</a>
</g>
</g>
<!-- Metamodel::MultipleInheritance -->
<g id="node11" class="node"><title>Metamodel::MultipleInheritance</title>
<g id="a_node11"><a xlink:href="/type/Metamodel::MultipleInheritance" xlink:title="Metamodel::MultipleInheritance">
<ellipse fill="none" stroke="#6666ff" cx="469.777" cy="-113.259" rx="133.776" ry="18"/>
<text text-anchor="middle" x="469.777" y="-109.559" font-family="FreeSans" font-size="14.00" fill="#6666ff">Metamodel::MultipleInheritance</text>
</a>
</g>
</g>
<!-- Metamodel::Stashing -->
<g id="node12" class="node"><title>Metamodel::Stashing</title>
<g id="a_node12"><a xlink:href="/type/Metamodel::Stashing" xlink:title="Metamodel::Stashing">
<ellipse fill="none" stroke="#6666ff" cx="14.1255" cy="-135.389" rx="93.6835" ry="18"/>
<text text-anchor="middle" x="14.1255" y="-131.689" font-family="FreeSans" font-size="14.00" fill="#6666ff">Metamodel::Stashing</text>
</a>
</g>
</g>
<!-- Metamodel::TypePretense -->
<g id="node13" class="node"><title>Metamodel::TypePretense</title>
<g id="a_node13"><a xlink:href="/type/Metamodel::TypePretense" xlink:title="Metamodel::TypePretense">
<ellipse fill="none" stroke="#6666ff" cx="765.939" cy="385.756" rx="114.28" ry="18"/>
<text text-anchor="middle" x="765.939" y="389.456" font-family="FreeSans" font-size="14.00" fill="#6666ff">Metamodel::TypePretense</text>
</a>
</g>
</g>
<!-- Metamodel::RolePunning -->
<g id="node14" class="node"><title>Metamodel::RolePunning</title>
<g id="a_node14"><a xlink:href="/type/Metamodel::RolePunning" xlink:title="Metamodel::RolePunning">
<ellipse fill="none" stroke="#6666ff" cx="782.028" cy="16.4649" rx="109.681" ry="18"/>
<text text-anchor="middle" x="782.028" y="20.1649" font-family="FreeSans" font-size="14.00" fill="#6666ff">Metamodel::RolePunning</text>
</a>
</g>
</g>
<!-- Metamodel::ParametricRoleHOW -->
<g id="node15" class="node"><title>Metamodel::ParametricRoleHOW</title>
<g id="a_node15"><a xlink:href="/type/Metamodel::ParametricRoleHOW" xlink:title="Metamodel::ParametricRoleHOW">
<ellipse fill="none" stroke="#000000" cx="475.4" cy="146.656" rx="142.175" ry="18"/>
<text text-anchor="middle" x="475.4" y="150.356" font-family="FreeSans" font-size="14.00" fill="#000000">Metamodel::ParametricRoleHOW</text>
</a>
</g>
</g>
<!-- Metamodel::ParametricRoleHOW&#45;&gt;Metamodel::AttributeContainer -->
<g id="edge12" class="edge"><title>Metamodel::ParametricRoleHOW&#45;&gt;Metamodel::AttributeContainer</title>
<path fill="none" stroke="#6666ff" d="M397.009,131.577C313.33,115.481 181.136,90.0527 94.6421,73.415"/>
<polygon fill="#6666ff" stroke="#6666ff" points="93.7478,76.8072 84.5889,71.4812 95.0701,69.9332 93.7478,76.8072"/>
</g>
<!-- Metamodel::ParametricRoleHOW&#45;&gt;Any -->
<g id="edge2" class="edge"><title>Metamodel::ParametricRoleHOW&#45;&gt;Any</title>
<path fill="none" stroke="#000000" d="M389.591,161.068C294.268,177.077 153.618,200.698 153.618,200.698 153.618,200.698 94.6137,219.252 55.2675,231.624"/>
<polygon fill="#000000" stroke="#000000" points="56.0806,235.037 45.4912,234.698 53.9808,228.36 56.0806,235.037"/>
</g>
<!-- Metamodel::ParametricRoleHOW&#45;&gt;Metamodel::Naming -->
<g id="edge6" class="edge"><title>Metamodel::ParametricRoleHOW&#45;&gt;Metamodel::Naming</title>
<path fill="none" stroke="#6666ff" d="M443.205,129.122C399.277,105.198 320.59,62.343 272.935,36.3888"/>
<polygon fill="#6666ff" stroke="#6666ff" points="271.233,39.4475 264.125,31.5908 274.581,33.3001 271.233,39.4475"/>
</g>
<!-- Metamodel::ParametricRoleHOW&#45;&gt;Metamodel::Documenting -->
<g id="edge7" class="edge"><title>Metamodel::ParametricRoleHOW&#45;&gt;Metamodel::Documenting</title>
<path fill="none" stroke="#6666ff" d="M465.478,128.384C433.358,69.2337 334.29,-113.204 334.29,-113.204 334.29,-113.204 395.81,-296.591 419.672,-367.722"/>
<polygon fill="#6666ff" stroke="#6666ff" points="416.409,-369 422.908,-377.367 423.045,-366.774 416.409,-369"/>
</g>
<!-- Metamodel::ParametricRoleHOW&#45;&gt;Metamodel::Versioning -->
<g id="edge8" class="edge"><title>Metamodel::ParametricRoleHOW&#45;&gt;Metamodel::Versioning</title>
<path fill="none" stroke="#6666ff" d="M461.615,128.489C419.822,73.4092 294.407,-91.8771 245.479,-156.359"/>
<polygon fill="#6666ff" stroke="#6666ff" points="242.622,-154.334 239.366,-164.416 248.199,-158.565 242.622,-154.334"/>
</g>
<!-- Metamodel::ParametricRoleHOW&#45;&gt;Metamodel::MethodContainer -->
<g id="edge9" class="edge"><title>Metamodel::ParametricRoleHOW&#45;&gt;Metamodel::MethodContainer</title>
<path fill="none" stroke="#6666ff" d="M378.283,133.485C218.098,111.761 -83.9824,70.7934 -83.9824,70.7934 -83.9824,70.7934 -122.965,56.9615 -122.965,56.9615 -122.965,56.9615 -139.353,51.0737 -158.265,44.279"/>
<polygon fill="#6666ff" stroke="#6666ff" points="-159.464,47.5674 -167.691,40.8923 -157.097,40.9797 -159.464,47.5674"/>
</g>
<!-- Metamodel::ParametricRoleHOW&#45;&gt;Metamodel::PrivateMethodContainer -->
<g id="edge10" class="edge"><title>Metamodel::ParametricRoleHOW&#45;&gt;Metamodel::PrivateMethodContainer</title>
<path fill="none" stroke="#6666ff" d="M486.071,128.431C530.061,53.2949 697.486,-232.674 749.815,-322.054"/>
<polygon fill="#6666ff" stroke="#6666ff" points="746.855,-323.925 754.928,-330.786 752.895,-320.388 746.855,-323.925"/>
</g>
<!-- Metamodel::ParametricRoleHOW&#45;&gt;Metamodel::MultiMethodContainer -->
<g id="edge11" class="edge"><title>Metamodel::ParametricRoleHOW&#45;&gt;Metamodel::MultiMethodContainer</title>
<path fill="none" stroke="#6666ff" d="M443.799,164.312C407.805,184.422 353.918,214.528 353.918,214.528 353.918,214.528 46.5079,373.153 -69.0816,432.797"/>
<polygon fill="#6666ff" stroke="#6666ff" points="-67.5489,435.945 -78.0406,437.42 -70.7588,429.724 -67.5489,435.945"/>
</g>
<!-- Metamodel::ParametricRoleHOW&#45;&gt;Metamodel::RoleContainer -->
<g id="edge13" class="edge"><title>Metamodel::ParametricRoleHOW&#45;&gt;Metamodel::RoleContainer</title>
<path fill="none" stroke="#6666ff" d="M417.295,163.177C382.596,173.043 338.422,185.603 302.439,195.834"/>
<polygon fill="#6666ff" stroke="#6666ff" points="303.098,199.285 292.522,198.653 301.183,192.552 303.098,199.285"/>
</g>
<!-- Metamodel::ParametricRoleHOW&#45;&gt;Metamodel::MultipleInheritance -->
<g id="edge14" class="edge"><title>Metamodel::ParametricRoleHOW&#45;&gt;Metamodel::MultipleInheritance</title>
<path fill="none" stroke="#6666ff" d="M475.005,128.38C474.039,83.7328 471.554,-31.1412 470.393,-84.8223"/>
<polygon fill="#6666ff" stroke="#6666ff" points="466.89,-84.9294 470.172,-95.0028 473.888,-85.0809 466.89,-84.9294"/>
</g>
<!-- Metamodel::ParametricRoleHOW&#45;&gt;Metamodel::Stashing -->
<g id="edge15" class="edge"><title>Metamodel::ParametricRoleHOW&#45;&gt;Metamodel::Stashing</title>
<path fill="none" stroke="#6666ff" d="M454.788,128.566C413.568,92.3885 324.891,14.561 324.891,14.561 324.891,14.561 297.793,0.716644 297.793,0.716644 297.793,0.716644 138.318,-75.8008 58.5143,-114.091"/>
<polygon fill="#6666ff" stroke="#6666ff" points="56.6951,-111.082 49.1932,-118.563 59.7232,-117.393 56.6951,-111.082"/>
</g>
<!-- Metamodel::ParametricRoleHOW&#45;&gt;Metamodel::TypePretense -->
<g id="edge16" class="edge"><title>Metamodel::ParametricRoleHOW&#45;&gt;Metamodel::TypePretense</title>
<path fill="none" stroke="#6666ff" d="M497.238,164.628C548.789,207.052 678.085,313.456 736.489,361.52"/>
<polygon fill="#6666ff" stroke="#6666ff" points="738.747,358.846 744.244,367.903 734.299,364.251 738.747,358.846"/>
</g>
<!-- Metamodel::ParametricRoleHOW&#45;&gt;Metamodel::RolePunning -->
<g id="edge17" class="edge"><title>Metamodel::ParametricRoleHOW&#45;&gt;Metamodel::RolePunning</title>
<path fill="none" stroke="#6666ff" d="M516.118,129.368C572.096,105.6 672.706,62.882 732.828,37.3549"/>
<polygon fill="#6666ff" stroke="#6666ff" points="731.544,34.0977 742.116,33.4111 734.279,40.541 731.544,34.0977"/>
</g>
<!-- Metamodel::BaseType -->
<g id="node16" class="node"><title>Metamodel::BaseType</title>
<g id="a_node16"><a xlink:href="/type/Metamodel::BaseType" xlink:title="Metamodel::BaseType">
<ellipse fill="none" stroke="#6666ff" cx="-392.557" cy="437.646" rx="99.3824" ry="18"/>
<text text-anchor="middle" x="-392.557" y="441.346" font-family="FreeSans" font-size="14.00" fill="#6666ff">Metamodel::BaseType</text>
</a>
</g>
</g>
<!-- Metamodel::MROBasedMethodDispatch -->
<g id="node17" class="node"><title>Metamodel::MROBasedMethodDispatch</title>
<g id="a_node17"><a xlink:href="/type/Metamodel::MROBasedMethodDispatch" xlink:title="Metamodel::MROBasedMethodDispatch">
<ellipse fill="none" stroke="#6666ff" cx="-745.507" cy="390.987" rx="169.77" ry="18"/>
<text text-anchor="middle" x="-745.507" y="394.687" font-family="FreeSans" font-size="14.00" fill="#6666ff">Metamodel::MROBasedMethodDispatch</text>
</a>
</g>
</g>
<!-- Metamodel::MROBasedTypeChecking -->
<g id="node18" class="node"><title>Metamodel::MROBasedTypeChecking</title>
<g id="a_node18"><a xlink:href="/type/Metamodel::MROBasedTypeChecking" xlink:title="Metamodel::MROBasedTypeChecking">
<ellipse fill="none" stroke="#6666ff" cx="-451.083" cy="-101.217" rx="163.271" ry="18"/>
<text text-anchor="middle" x="-451.083" y="-97.5174" font-family="FreeSans" font-size="14.00" fill="#6666ff">Metamodel::MROBasedTypeChecking</text>
</a>
</g>
</g>
<!-- Metamodel::BUILDPLAN -->
<g id="node19" class="node"><title>Metamodel::BUILDPLAN</title>
<g id="a_node19"><a xlink:href="/type/Metamodel::BUILDPLAN" xlink:title="Metamodel::BUILDPLAN">
<ellipse fill="none" stroke="#6666ff" cx="-449.743" cy="157.842" rx="109.681" ry="18"/>
<text text-anchor="middle" x="-449.743" y="161.542" font-family="FreeSans" font-size="14.00" fill="#6666ff">Metamodel::BUILDPLAN</text>
</a>
</g>
</g>
<!-- Metamodel::BoolificationProtocol -->
<g id="node20" class="node"><title>Metamodel::BoolificationProtocol</title>
<g id="a_node20"><a xlink:href="/type/Metamodel::BoolificationProtocol" xlink:title="Metamodel::BoolificationProtocol">
<ellipse fill="none" stroke="#6666ff" cx="-763.691" cy="29.386" rx="139.175" ry="18"/>
<text text-anchor="middle" x="-763.691" y="33.086" font-family="FreeSans" font-size="14.00" fill="#6666ff">Metamodel::BoolificationProtocol</text>
</a>
</g>
</g>
<!-- Metamodel::EnumHOW -->
<g id="node21" class="node"><title>Metamodel::EnumHOW</title>
<g id="a_node21"><a xlink:href="/type/Metamodel::EnumHOW" xlink:title="Metamodel::EnumHOW">
<ellipse fill="none" stroke="#000000" cx="-200.635" cy="222.349" rx="104.782" ry="18"/>
<text text-anchor="middle" x="-200.635" y="226.049" font-family="FreeSans" font-size="14.00" fill="#000000">Metamodel::EnumHOW</text>
</a>
</g>
</g>
<!-- Metamodel::EnumHOW&#45;&gt;Metamodel::AttributeContainer -->
<g id="edge20" class="edge"><title>Metamodel::EnumHOW&#45;&gt;Metamodel::AttributeContainer</title>
<path fill="none" stroke="#6666ff" d="M-178.241,204.639C-140.581,174.858 -64.5225,114.711 -21.9702,81.0604"/>
<polygon fill="#6666ff" stroke="#6666ff" points="-23.9426,78.158 -13.9278,74.7005 -19.6006,83.6487 -23.9426,78.158"/>
</g>
<!-- Metamodel::EnumHOW&#45;&gt;Any -->
<g id="edge3" class="edge"><title>Metamodel::EnumHOW&#45;&gt;Any</title>
<path fill="none" stroke="#000000" d="M-107.999,230.759C-75.8489,233.678 -41.6067,236.786 -16.5128,239.065"/>
<polygon fill="#000000" stroke="#000000" points="-15.9937,235.597 -6.35115,239.987 -16.6267,242.569 -15.9937,235.597"/>
</g>
<!-- Metamodel::EnumHOW&#45;&gt;Metamodel::Naming -->
<g id="edge18" class="edge"><title>Metamodel::EnumHOW&#45;&gt;Metamodel::Naming</title>
<path fill="none" stroke="#6666ff" d="M-165.153,205.349C-86.3961,167.615 102.841,76.9485 188.951,35.6921"/>
<polygon fill="#6666ff" stroke="#6666ff" points="187.658,32.4305 198.189,31.2661 190.683,38.7434 187.658,32.4305"/>
</g>
<!-- Metamodel::EnumHOW&#45;&gt;Metamodel::MethodContainer -->
<g id="edge21" class="edge"><title>Metamodel::EnumHOW&#45;&gt;Metamodel::MethodContainer</title>
<path fill="none" stroke="#6666ff" d="M-201.921,204.049C-204.356,169.371 -209.66,93.8665 -212.564,52.52"/>
<polygon fill="#6666ff" stroke="#6666ff" points="-216.072,52.5282 -213.282,42.3075 -209.089,52.0376 -216.072,52.5282"/>
</g>
<!-- Metamodel::EnumHOW&#45;&gt;Metamodel::MultiMethodContainer -->
<g id="edge22" class="edge"><title>Metamodel::EnumHOW&#45;&gt;Metamodel::MultiMethodContainer</title>
<path fill="none" stroke="#6666ff" d="M-193.706,240.613C-178.294,281.235 -141.099,379.269 -122.821,427.446"/>
<polygon fill="#6666ff" stroke="#6666ff" points="-119.497,426.34 -119.222,436.931 -126.042,428.823 -119.497,426.34"/>
</g>
<!-- Metamodel::EnumHOW&#45;&gt;Metamodel::RoleContainer -->
<g id="edge23" class="edge"><title>Metamodel::EnumHOW&#45;&gt;Metamodel::RoleContainer</title>
<path fill="none" stroke="#6666ff" d="M-96.4553,220.489C-34.1052,219.377 45.54,217.955 111.314,216.782"/>
<polygon fill="#6666ff" stroke="#6666ff" points="111.269,213.282 121.33,216.603 111.394,220.281 111.269,213.282"/>
</g>
<!-- Metamodel::EnumHOW&#45;&gt;Metamodel::Stashing -->
<g id="edge19" class="edge"><title>Metamodel::EnumHOW&#45;&gt;Metamodel::Stashing</title>
<path fill="none" stroke="#6666ff" d="M-192.175,204.334C-172.045,161.47 -122.965,56.9615 -122.965,56.9615 -122.965,56.9615 -85.5773,23.9402 -85.5773,23.9402 -85.5773,23.9402 -30.9753,-63.3161 -2.5858,-108.684"/>
<polygon fill="#6666ff" stroke="#6666ff" points="-5.38958,-110.801 2.88209,-117.422 0.544371,-107.088 -5.38958,-110.801"/>
</g>
<!-- Metamodel::EnumHOW&#45;&gt;Metamodel::BaseType -->
<g id="edge24" class="edge"><title>Metamodel::EnumHOW&#45;&gt;Metamodel::BaseType</title>
<path fill="none" stroke="#6666ff" d="M-216.668,240.334C-250.763,278.581 -330.551,368.088 -369.856,412.181"/>
<polygon fill="#6666ff" stroke="#6666ff" points="-367.437,414.727 -376.704,419.863 -372.663,410.069 -367.437,414.727"/>
</g>
<!-- Metamodel::EnumHOW&#45;&gt;Metamodel::MROBasedMethodDispatch -->
<g id="edge25" class="edge"><title>Metamodel::EnumHOW&#45;&gt;Metamodel::MROBasedMethodDispatch</title>
<path fill="none" stroke="#6666ff" d="M-251.895,238.214C-351.544,269.055 -571.193,337.037 -680.74,370.942"/>
<polygon fill="#6666ff" stroke="#6666ff" points="-679.763,374.303 -690.351,373.916 -681.833,367.616 -679.763,374.303"/>
</g>
<!-- Metamodel::EnumHOW&#45;&gt;Metamodel::MROBasedTypeChecking -->
<g id="edge26" class="edge"><title>Metamodel::EnumHOW&#45;&gt;Metamodel::MROBasedTypeChecking</title>
<path fill="none" stroke="#6666ff" d="M-214.457,204.491C-256.265,150.478 -381.526,-11.354 -430.828,-75.0493"/>
<polygon fill="#6666ff" stroke="#6666ff" points="-433.642,-72.9663 -436.995,-83.0165 -428.106,-77.2509 -433.642,-72.9663"/>
</g>
<!-- Metamodel::EnumHOW&#45;&gt;Metamodel::BUILDPLAN -->
<g id="edge27" class="edge"><title>Metamodel::EnumHOW&#45;&gt;Metamodel::BUILDPLAN</title>
<path fill="none" stroke="#6666ff" d="M-258.726,207.306C-295.151,197.874 -342.301,185.664 -380.642,175.736"/>
<polygon fill="#6666ff" stroke="#6666ff" points="-381.892,179.027 -390.696,173.132 -380.137,172.251 -381.892,179.027"/>
</g>
<!-- Metamodel::EnumHOW&#45;&gt;Metamodel::BoolificationProtocol -->
<g id="edge28" class="edge"><title>Metamodel::EnumHOW&#45;&gt;Metamodel::BoolificationProtocol</title>
<path fill="none" stroke="#6666ff" d="M-236.806,205.366C-277.596,186.216 -338.305,157.713 -338.305,157.713 -338.305,157.713 -371.463,143.892 -371.463,143.892 -371.463,143.892 -585.351,81.4499 -697.233,48.7873"/>
<polygon fill="#6666ff" stroke="#6666ff" points="-698.458,52.076 -707.076,45.9138 -696.496,45.3565 -698.458,52.076"/>
</g>
<!-- Metamodel::ConcreteRoleHOW -->
<g id="node22" class="node"><title>Metamodel::ConcreteRoleHOW</title>
<g id="a_node22"><a xlink:href="/type/Metamodel::ConcreteRoleHOW" xlink:title="Metamodel::ConcreteRoleHOW">
<ellipse fill="none" stroke="#000000" cx="424.541" cy="434.516" rx="135.676" ry="18"/>
<text text-anchor="middle" x="424.541" y="438.216" font-family="FreeSans" font-size="14.00" fill="#000000">Metamodel::ConcreteRoleHOW</text>
</a>
</g>
</g>
<!-- Metamodel::ConcreteRoleHOW&#45;&gt;Metamodel::AttributeContainer -->
<g id="edge34" class="edge"><title>Metamodel::ConcreteRoleHOW&#45;&gt;Metamodel::AttributeContainer</title>
<path fill="none" stroke="#6666ff" d="M399.824,416.703C327.165,364.339 119.338,214.563 119.338,214.563 119.338,214.563 58.7515,128.268 27.2155,83.3517"/>
<polygon fill="#6666ff" stroke="#6666ff" points="24.2039,85.1534 21.3223,74.9579 29.9329,81.131 24.2039,85.1534"/>
</g>
<!-- Metamodel::ConcreteRoleHOW&#45;&gt;Any -->
<g id="edge4" class="edge"><title>Metamodel::ConcreteRoleHOW&#45;&gt;Any</title>
<path fill="none" stroke="#000000" d="M388.002,417.133C309.426,379.752 125.561,292.281 52.0272,257.298"/>
<polygon fill="#000000" stroke="#000000" points="50.336,260.37 42.8094,252.913 53.3432,254.049 50.336,260.37"/>
</g>
<!-- Metamodel::ConcreteRoleHOW&#45;&gt;Metamodel::Naming -->
<g id="edge29" class="edge"><title>Metamodel::ConcreteRoleHOW&#45;&gt;Metamodel::Naming</title>
<path fill="none" stroke="#6666ff" d="M418.762,416.514C401.895,363.974 353.918,214.528 353.918,214.528 353.918,214.528 282.212,96.0245 249.215,41.4923"/>
<polygon fill="#6666ff" stroke="#6666ff" points="246.08,43.0732 243.898,32.7056 252.069,39.4493 246.08,43.0732"/>
</g>
<!-- Metamodel::ConcreteRoleHOW&#45;&gt;Metamodel::Versioning -->
<g id="edge30" class="edge"><title>Metamodel::ConcreteRoleHOW&#45;&gt;Metamodel::Versioning</title>
<path fill="none" stroke="#6666ff" d="M418.762,416.514C401.895,363.974 353.918,214.528 353.918,214.528 353.918,214.528 331.466,146.775 331.466,146.775 331.466,146.775 324.891,14.561 324.891,14.561 324.891,14.561 266.572,-101.226 239.335,-155.304"/>
<polygon fill="#6666ff" stroke="#6666ff" points="236.157,-153.833 234.784,-164.339 242.409,-156.982 236.157,-153.833"/>
</g>
<!-- Metamodel::ConcreteRoleHOW&#45;&gt;Metamodel::MethodContainer -->
<g id="edge32" class="edge"><title>Metamodel::ConcreteRoleHOW&#45;&gt;Metamodel::MethodContainer</title>
<path fill="none" stroke="#6666ff" d="M397.08,416.879C294.972,351.301 -62.8237,121.507 -178.321,47.3287"/>
<polygon fill="#6666ff" stroke="#6666ff" points="-180.323,50.2027 -186.846,41.8538 -176.54,44.3128 -180.323,50.2027"/>
</g>
<!-- Metamodel::ConcreteRoleHOW&#45;&gt;Metamodel::PrivateMethodContainer -->
<g id="edge31" class="edge"><title>Metamodel::ConcreteRoleHOW&#45;&gt;Metamodel::PrivateMethodContainer</title>
<path fill="none" stroke="#6666ff" d="M436.727,416.502C479.372,353.456 619.335,146.537 619.335,146.537 619.335,146.537 726.313,-215.98 757.253,-320.828"/>
<polygon fill="#6666ff" stroke="#6666ff" points="753.977,-322.094 760.165,-330.694 760.691,-320.112 753.977,-322.094"/>
</g>
<!-- Metamodel::ConcreteRoleHOW&#45;&gt;Metamodel::MultiMethodContainer -->
<g id="edge33" class="edge"><title>Metamodel::ConcreteRoleHOW&#45;&gt;Metamodel::MultiMethodContainer</title>
<path fill="none" stroke="#6666ff" d="M288.71,434.331C220.128,434.237 151.277,434.143 151.277,434.143 151.277,434.143 86.1784,439.321 20.6824,444.531"/>
<polygon fill="#6666ff" stroke="#6666ff" points="20.8474,448.029 10.6013,445.333 20.2923,441.051 20.8474,448.029"/>
</g>
<!-- Metamodel::ConcreteRoleHOW&#45;&gt;Metamodel::RoleContainer -->
<g id="edge35" class="edge"><title>Metamodel::ConcreteRoleHOW&#45;&gt;Metamodel::RoleContainer</title>
<path fill="none" stroke="#6666ff" d="M409.164,416.515C375.909,377.587 297.203,285.455 258.664,240.34"/>
<polygon fill="#6666ff" stroke="#6666ff" points="255.789,242.363 251.955,232.487 261.111,237.817 255.789,242.363"/>
</g>
<!-- Metamodel::ConcreteRoleHOW&#45;&gt;Metamodel::MultipleInheritance -->
<g id="edge36" class="edge"><title>Metamodel::ConcreteRoleHOW&#45;&gt;Metamodel::MultipleInheritance</title>
<path fill="none" stroke="#6666ff" d="M418.762,416.514C401.895,363.974 353.918,214.528 353.918,214.528 353.918,214.528 331.466,146.775 331.466,146.775 331.466,146.775 419.679,-19.0709 455.209,-85.869"/>
<polygon fill="#6666ff" stroke="#6666ff" points="452.265,-87.7891 460.052,-94.9742 458.446,-84.5018 452.265,-87.7891"/>
</g>
<!-- Metamodel::Finalization -->
<g id="node23" class="node"><title>Metamodel::Finalization</title>
<g id="a_node23"><a xlink:href="/type/Metamodel::Finalization" xlink:title="Metamodel::Finalization">
<ellipse fill="none" stroke="#6666ff" cx="-223.062" cy="-411.41" rx="103.982" ry="18"/>
<text text-anchor="middle" x="-223.062" y="-407.71" font-family="FreeSans" font-size="14.00" fill="#6666ff">Metamodel::Finalization</text>
</a>
</g>
</g>
<!-- Metamodel::DefaultParent -->
<g id="node24" class="node"><title>Metamodel::DefaultParent</title>
<g id="a_node24"><a xlink:href="/type/Metamodel::DefaultParent" xlink:title="Metamodel::DefaultParent">
<ellipse fill="none" stroke="#6666ff" cx="-24.9751" cy="-384.14" rx="113.18" ry="18"/>
<text text-anchor="middle" x="-24.9751" y="-380.44" font-family="FreeSans" font-size="14.00" fill="#6666ff">Metamodel::DefaultParent</text>
</a>
</g>
</g>
<!-- Metamodel::C3MRO -->
<g id="node25" class="node"><title>Metamodel::C3MRO</title>
<g id="a_node25"><a xlink:href="/type/Metamodel::C3MRO" xlink:title="Metamodel::C3MRO">
<ellipse fill="none" stroke="#6666ff" cx="-452.711" cy="-386.9" rx="92.0841" ry="18"/>
<text text-anchor="middle" x="-452.711" y="-383.2" font-family="FreeSans" font-size="14.00" fill="#6666ff">Metamodel::C3MRO</text>
</a>
</g>
</g>
<!-- Metamodel::Trusting -->
<g id="node26" class="node"><title>Metamodel::Trusting</title>
<g id="a_node26"><a xlink:href="/type/Metamodel::Trusting" xlink:title="Metamodel::Trusting">
<ellipse fill="none" stroke="#6666ff" cx="-762.915" cy="-338.879" rx="91.784" ry="18"/>
<text text-anchor="middle" x="-762.915" y="-335.179" font-family="FreeSans" font-size="14.00" fill="#6666ff">Metamodel::Trusting</text>
</a>
</g>
</g>
<!-- Metamodel::Mixins -->
<g id="node27" class="node"><title>Metamodel::Mixins</title>
<g id="a_node27"><a xlink:href="/type/Metamodel::Mixins" xlink:title="Metamodel::Mixins">
<ellipse fill="none" stroke="#6666ff" cx="175.341" cy="-413.222" rx="85.2851" ry="18"/>
<text text-anchor="middle" x="175.341" y="-409.522" font-family="FreeSans" font-size="14.00" fill="#6666ff">Metamodel::Mixins</text>
</a>
</g>
</g>
<!-- Metamodel::ClassHOW -->
<g id="node28" class="node"><title>Metamodel::ClassHOW</title>
<g id="a_node28"><a xlink:href="/type/Metamodel::ClassHOW" xlink:title="Metamodel::ClassHOW">
<ellipse fill="none" stroke="#000000" cx="-204.488" cy="-171.313" rx="103.982" ry="18"/>
<text text-anchor="middle" x="-204.488" y="-167.613" font-family="FreeSans" font-size="14.00" fill="#000000">Metamodel::ClassHOW</text>
</a>
</g>
</g>
<!-- Metamodel::ClassHOW&#45;&gt;Metamodel::AttributeContainer -->
<g id="edge41" class="edge"><title>Metamodel::ClassHOW&#45;&gt;Metamodel::AttributeContainer</title>
<path fill="none" stroke="#6666ff" d="M-187.766,-153.408C-150.2,-113.185 -59.006,-15.5418 -15.3903,31.1583"/>
<polygon fill="#6666ff" stroke="#6666ff" points="-12.5857,29.0336 -8.31795,38.7309 -17.7015,33.8115 -12.5857,29.0336"/>
</g>
<!-- Metamodel::ClassHOW&#45;&gt;Any -->
<g id="edge5" class="edge"><title>Metamodel::ClassHOW&#45;&gt;Any</title>
<path fill="none" stroke="#000000" d="M-193.515,-153.294C-164.077,-104.957 -85.5773,23.9402 -85.5773,23.9402 -85.5773,23.9402 -122.965,56.9615 -122.965,56.9615 -122.965,56.9615 -36.9118,167.973 2.05231,218.237"/>
<polygon fill="#000000" stroke="#000000" points="4.95568,216.27 8.31611,226.318 -0.576753,220.558 4.95568,216.27"/>
</g>
<!-- Metamodel::ClassHOW&#45;&gt;Metamodel::Naming -->
<g id="edge37" class="edge"><title>Metamodel::ClassHOW&#45;&gt;Metamodel::Naming</title>
<path fill="none" stroke="#6666ff" d="M-164.897,-154.485C-84.4205,-120.28 97.9879,-42.7509 185.014,-5.76207"/>
<polygon fill="#6666ff" stroke="#6666ff" points="186.555,-8.91039 194.389,-1.77756 183.817,-2.46814 186.555,-8.91039"/>
</g>
<!-- Metamodel::ClassHOW&#45;&gt;Metamodel::Documenting -->
<g id="edge38" class="edge"><title>Metamodel::ClassHOW&#45;&gt;Metamodel::Documenting</title>
<path fill="none" stroke="#6666ff" d="M-158.676,-187.522C-45.0892,-227.713 249.255,-331.862 372.936,-375.624"/>
<polygon fill="#6666ff" stroke="#6666ff" points="372.007,-379.008 382.602,-379.045 374.342,-372.409 372.007,-379.008"/>
</g>
<!-- Metamodel::ClassHOW&#45;&gt;Metamodel::Versioning -->
<g id="edge39" class="edge"><title>Metamodel::ClassHOW&#45;&gt;Metamodel::Versioning</title>
<path fill="none" stroke="#6666ff" d="M-101.466,-173.999C-35.9858,-175.706 48.7195,-177.915 115.524,-179.656"/>
<polygon fill="#6666ff" stroke="#6666ff" points="115.577,-183.159 125.665,-179.921 115.76,-176.161 115.577,-183.159"/>
</g>
<!-- Metamodel::ClassHOW&#45;&gt;Metamodel::MethodContainer -->
<g id="edge43" class="edge"><title>Metamodel::ClassHOW&#45;&gt;Metamodel::MethodContainer</title>
<path fill="none" stroke="#6666ff" d="M-205.418,-153.283C-207.176,-119.205 -210.997,-45.1077 -213.101,-4.30613"/>
<polygon fill="#6666ff" stroke="#6666ff" points="-209.611,-4.02424 -213.622,5.78219 -216.602,-4.38484 -209.611,-4.02424"/>
</g>
<!-- Metamodel::ClassHOW&#45;&gt;Metamodel::PrivateMethodContainer -->
<g id="edge44" class="edge"><title>Metamodel::ClassHOW&#45;&gt;Metamodel::PrivateMethodContainer</title>
<path fill="none" stroke="#6666ff" d="M-132.766,-184.444C40.0127,-216.078 479.231,-296.495 672.199,-331.825"/>
<polygon fill="#6666ff" stroke="#6666ff" points="671.851,-335.319 682.318,-333.678 673.112,-328.434 671.851,-335.319"/>
</g>
<!-- Metamodel::ClassHOW&#45;&gt;Metamodel::MultiMethodContainer -->
<g id="edge45" class="edge"><title>Metamodel::ClassHOW&#45;&gt;Metamodel::MultiMethodContainer</title>
<path fill="none" stroke="#6666ff" d="M-193.515,-153.294C-164.077,-104.957 -85.5773,23.9402 -85.5773,23.9402 -85.5773,23.9402 -122.965,56.9615 -122.965,56.9615 -122.965,56.9615 -94.3948,222.31 -94.3948,222.31 -94.3948,222.31 -105.337,364.389 -110.125,426.557"/>
<polygon fill="#6666ff" stroke="#6666ff" points="-106.66,427.142 -110.918,436.843 -113.639,426.604 -106.66,427.142"/>
</g>
<!-- Metamodel::ClassHOW&#45;&gt;Metamodel::RoleContainer -->
<g id="edge46" class="edge"><title>Metamodel::ClassHOW&#45;&gt;Metamodel::RoleContainer</title>
<path fill="none" stroke="#6666ff" d="M-178.013,-153.794C-97.2978,-100.384 140.209,56.7753 140.209,56.7753 140.209,56.7753 192.752,142.751 220.263,187.768"/>
<polygon fill="#6666ff" stroke="#6666ff" points="223.339,186.089 225.568,196.447 217.366,189.739 223.339,186.089"/>
</g>
<!-- Metamodel::ClassHOW&#45;&gt;Metamodel::MultipleInheritance -->
<g id="edge47" class="edge"><title>Metamodel::ClassHOW&#45;&gt;Metamodel::MultipleInheritance</title>
<path fill="none" stroke="#6666ff" d="M-108.895,-164.153C-50.3368,-159.767 13.4547,-154.989 13.4547,-154.989 13.4547,-154.989 80.9602,-149.346 80.9602,-149.346 80.9602,-149.346 235.008,-135.048 349.175,-124.453"/>
<polygon fill="#6666ff" stroke="#6666ff" points="349.764,-127.913 359.398,-123.504 349.117,-120.943 349.764,-127.913"/>
</g>
<!-- Metamodel::ClassHOW&#45;&gt;Metamodel::Stashing -->
<g id="edge40" class="edge"><title>Metamodel::ClassHOW&#45;&gt;Metamodel::Stashing</title>
<path fill="none" stroke="#6666ff" d="M-128.948,-158.899C-109.099,-155.638 -87.6028,-152.105 -67.4527,-148.794"/>
<polygon fill="#6666ff" stroke="#6666ff" points="-66.6695,-152.213 -57.3694,-147.137 -67.8046,-145.305 -66.6695,-152.213"/>
</g>
<!-- Metamodel::ClassHOW&#45;&gt;Metamodel::MROBasedMethodDispatch -->
<g id="edge50" class="edge"><title>Metamodel::ClassHOW&#45;&gt;Metamodel::MROBasedMethodDispatch</title>
<path fill="none" stroke="#6666ff" d="M-223.666,-153.609C-297.754,-85.2133 -561.181,157.971 -561.181,157.971 -561.181,157.971 -676.488,303.737 -724.704,364.689"/>
<polygon fill="#6666ff" stroke="#6666ff" points="-722.094,367.031 -731.043,372.703 -727.584,362.688 -722.094,367.031"/>
</g>
<!-- Metamodel::ClassHOW&#45;&gt;Metamodel::MROBasedTypeChecking -->
<g id="edge51" class="edge"><title>Metamodel::ClassHOW&#45;&gt;Metamodel::MROBasedTypeChecking</title>
<path fill="none" stroke="#6666ff" d="M-258.605,-155.93C-294.939,-145.602 -343.124,-131.905 -382.193,-120.799"/>
<polygon fill="#6666ff" stroke="#6666ff" points="-381.341,-117.403 -391.917,-118.036 -383.255,-124.136 -381.341,-117.403"/>
</g>
<!-- Metamodel::ClassHOW&#45;&gt;Metamodel::BUILDPLAN -->
<g id="edge53" class="edge"><title>Metamodel::ClassHOW&#45;&gt;Metamodel::BUILDPLAN</title>
<path fill="none" stroke="#6666ff" d="M-218.024,-153.147C-259.06,-98.0718 -382.205,67.1999 -430.247,131.676"/>
<polygon fill="#6666ff" stroke="#6666ff" points="-427.468,133.805 -436.249,139.732 -433.081,129.622 -427.468,133.805"/>
</g>
<!-- Metamodel::ClassHOW&#45;&gt;Metamodel::BoolificationProtocol -->
<g id="edge55" class="edge"><title>Metamodel::ClassHOW&#45;&gt;Metamodel::BoolificationProtocol</title>
<path fill="none" stroke="#6666ff" d="M-225.145,-153.652C-249.396,-132.919 -286.35,-101.326 -286.35,-101.326 -286.35,-101.326 -333.956,-87.4349 -333.956,-87.4349 -333.956,-87.4349 -571.663,-22.8155 -693.493,10.3032"/>
<polygon fill="#6666ff" stroke="#6666ff" points="-692.917,13.7737 -703.485,13.0196 -694.754,7.01883 -692.917,13.7737"/>
</g>
<!-- Metamodel::ClassHOW&#45;&gt;Metamodel::Finalization -->
<g id="edge42" class="edge"><title>Metamodel::ClassHOW&#45;&gt;Metamodel::Finalization</title>
<path fill="none" stroke="#6666ff" d="M-205.884,-189.359C-209.091,-230.813 -217.004,-333.101 -220.868,-383.049"/>
<polygon fill="#6666ff" stroke="#6666ff" points="-224.368,-382.914 -221.65,-393.154 -217.389,-383.454 -224.368,-382.914"/>
</g>
<!-- Metamodel::ClassHOW&#45;&gt;Metamodel::DefaultParent -->
<g id="edge48" class="edge"><title>Metamodel::ClassHOW&#45;&gt;Metamodel::DefaultParent</title>
<path fill="none" stroke="#6666ff" d="M-189.183,-189.458C-157.322,-227.233 -83.7739,-314.429 -46.8942,-358.153"/>
<polygon fill="#6666ff" stroke="#6666ff" points="-49.3644,-360.653 -40.2415,-366.04 -44.0136,-356.14 -49.3644,-360.653"/>
</g>
<!-- Metamodel::ClassHOW&#45;&gt;Metamodel::C3MRO -->
<g id="edge49" class="edge"><title>Metamodel::ClassHOW&#45;&gt;Metamodel::C3MRO</title>
<path fill="none" stroke="#6666ff" d="M-225.225,-189.323C-269.687,-227.939 -374.232,-318.739 -424.606,-362.491"/>
<polygon fill="#6666ff" stroke="#6666ff" points="-426.953,-359.893 -432.208,-369.093 -422.363,-365.178 -426.953,-359.893"/>
</g>
<!-- Metamodel::ClassHOW&#45;&gt;Metamodel::Trusting -->
<g id="edge52" class="edge"><title>Metamodel::ClassHOW&#45;&gt;Metamodel::Trusting</title>
<path fill="none" stroke="#6666ff" d="M-256.522,-186.926C-360.339,-218.079 -592.66,-287.791 -702.793,-320.838"/>
<polygon fill="#6666ff" stroke="#6666ff" points="-703.852,-317.502 -712.424,-323.728 -701.84,-324.206 -703.852,-317.502"/>
</g>
<!-- Metamodel::ClassHOW&#45;&gt;Metamodel::Mixins -->
<g id="edge54" class="edge"><title>Metamodel::ClassHOW&#45;&gt;Metamodel::Mixins</title>
<path fill="none" stroke="#6666ff" d="M-177.172,-188.71C-109.828,-231.601 64.1431,-342.401 139.575,-390.443"/>
<polygon fill="#6666ff" stroke="#6666ff" points="137.957,-393.562 148.272,-395.982 141.718,-387.658 137.957,-393.562"/>
</g>
</g>
</svg>
