<?xml version="1.0" encoding="UTF-8" standalone="no"?>
<!DOCTYPE svg PUBLIC "-//W3C//DTD SVG 1.1//EN"
 "http://www.w3.org/Graphics/SVG/1.1/DTD/svg11.dtd">
<!-- Generated by graphviz version 2.38.0 (20140413.2041)
 -->
<!-- Title: perl6&#45;type&#45;graph Pages: 1 -->
<svg width="1754pt" height="1199pt"
 viewBox="0.00 0.00 1753.71 1198.89" xmlns="http://www.w3.org/2000/svg" xmlns:xlink="http://www.w3.org/1999/xlink">
<g id="graph0" class="graph" transform="scale(1 1) rotate(0) translate(877.578 568.529)">
<title>perl6&#45;type&#45;graph</title>
<polygon fill="white" stroke="none" points="-877.578,630.36 -877.578,-568.529 876.131,-568.529 876.131,630.36 -877.578,630.36"/>
<!-- Metamodel::Stashing -->
<g id="node1" class="node"><title>Metamodel::Stashing</title>
<g id="a_node1"><a xlink:href="/type/Metamodel::Stashing" xlink:title="Metamodel::Stashing">
<ellipse fill="none" stroke="#6666ff" cx="-87.2606" cy="113.704" rx="93.6835" ry="18"/>
<text text-anchor="middle" x="-87.2606" y="117.404" font-family="FreeSans" font-size="14.00" fill="#6666ff">Metamodel::Stashing</text>
</a>
</g>
</g>
<!-- Mu -->
<g id="node2" class="node"><title>Mu</title>
<g id="a_node2"><a xlink:href="/type/Mu" xlink:title="Mu">
<ellipse fill="none" stroke="#000000" cx="756.559" cy="174.048" rx="27" ry="18"/>
<text text-anchor="middle" x="756.559" y="177.748" font-family="FreeSans" font-size="14.00" fill="#000000">Mu</text>
</a>
</g>
</g>
<!-- Any -->
<g id="node3" class="node"><title>Any</title>
<g id="a_node3"><a xlink:href="/type/Any" xlink:title="Any">
<ellipse fill="none" stroke="#000000" cx="442.454" cy="57.3524" rx="27" ry="18"/>
<text text-anchor="middle" x="442.454" y="61.0524" font-family="FreeSans" font-size="14.00" fill="#000000">Any</text>
</a>
</g>
</g>
<!-- Any&#45;&gt;Mu -->
<g id="edge1" class="edge"><title>Any&#45;&gt;Mu</title>
<path fill="none" stroke="#000000" d="M466.063,66.1235C521.317,86.6516 659.19,137.874 723.081,161.61"/>
<polygon fill="#000000" stroke="#000000" points="724.521,158.411 732.676,165.175 722.083,164.973 724.521,158.411"/>
</g>
<!-- Metamodel::Naming -->
<g id="node4" class="node"><title>Metamodel::Naming</title>
<g id="a_node4"><a xlink:href="/type/Metamodel::Naming" xlink:title="Metamodel::Naming">
<ellipse fill="none" stroke="#6666ff" cx="138.089" cy="146.451" rx="90.1842" ry="18"/>
<text text-anchor="middle" x="138.089" y="150.151" font-family="FreeSans" font-size="14.00" fill="#6666ff">Metamodel::Naming</text>
</a>
</g>
</g>
<!-- Metamodel::Documenting -->
<g id="node5" class="node"><title>Metamodel::Documenting</title>
<g id="a_node5"><a xlink:href="/type/Metamodel::Documenting" xlink:title="Metamodel::Documenting">
<ellipse fill="none" stroke="#6666ff" cx="-50.5487" cy="364.788" rx="111.28" ry="18"/>
<text text-anchor="middle" x="-50.5487" y="368.488" font-family="FreeSans" font-size="14.00" fill="#6666ff">Metamodel::Documenting</text>
</a>
</g>
</g>
<!-- Metamodel::TypePretense -->
<g id="node6" class="node"><title>Metamodel::TypePretense</title>
<g id="a_node6"><a xlink:href="/type/Metamodel::TypePretense" xlink:title="Metamodel::TypePretense">
<ellipse fill="none" stroke="#6666ff" cx="374.324" cy="601.439" rx="114.28" ry="18"/>
<text text-anchor="middle" x="374.324" y="605.139" font-family="FreeSans" font-size="14.00" fill="#6666ff">Metamodel::TypePretense</text>
</a>
</g>
</g>
<!-- Metamodel::MethodDelegation -->
<g id="node7" class="node"><title>Metamodel::MethodDelegation</title>
<g id="a_node7"><a xlink:href="/type/Metamodel::MethodDelegation" xlink:title="Metamodel::MethodDelegation">
<ellipse fill="none" stroke="#6666ff" cx="-294.799" cy="599.482" rx="131.077" ry="18"/>
<text text-anchor="middle" x="-294.799" y="603.182" font-family="FreeSans" font-size="14.00" fill="#6666ff">Metamodel::MethodDelegation</text>
</a>
</g>
</g>
<!-- Metamodel::PackageHOW -->
<g id="node8" class="node"><title>Metamodel::PackageHOW</title>
<g id="a_node8"><a xlink:href="/type/Metamodel::PackageHOW" xlink:title="Metamodel::PackageHOW">
<ellipse fill="none" stroke="#000000" cx="46.5018" cy="608.36" rx="116.18" ry="18"/>
<text text-anchor="middle" x="46.5018" y="612.06" font-family="FreeSans" font-size="14.00" fill="#000000">Metamodel::PackageHOW</text>
</a>
</g>
</g>
<!-- Metamodel::PackageHOW&#45;&gt;Metamodel::Stashing -->
<g id="edge11" class="edge"><title>Metamodel::PackageHOW&#45;&gt;Metamodel::Stashing</title>
<path fill="none" stroke="#6666ff" d="M47.6809,590.042C51.3289,533.361 62.1881,364.639 62.1881,364.639 62.1881,364.639 -32.6842,205.341 -71.2492,140.588"/>
<polygon fill="#6666ff" stroke="#6666ff" points="-74.4027,142.133 -76.5126,131.75 -68.3885,138.551 -74.4027,142.133"/>
</g>
<!-- Metamodel::PackageHOW&#45;&gt;Any -->
<g id="edge2" class="edge"><title>Metamodel::PackageHOW&#45;&gt;Any</title>
<path fill="none" stroke="#000000" d="M47.6809,590.042C51.3289,533.361 62.1881,364.639 62.1881,364.639 62.1881,364.639 57.5091,345.482 57.5091,345.482 57.5091,345.482 329.858,141.63 416.393,76.8583"/>
<polygon fill="#000000" stroke="#000000" points="414.3,74.0533 424.403,70.863 418.495,79.6574 414.3,74.0533"/>
</g>
<!-- Metamodel::PackageHOW&#45;&gt;Metamodel::Naming -->
<g id="edge9" class="edge"><title>Metamodel::PackageHOW&#45;&gt;Metamodel::Naming</title>
<path fill="none" stroke="#6666ff" d="M47.6809,590.042C51.3289,533.361 62.1881,364.639 62.1881,364.639 62.1881,364.639 57.5091,345.482 57.5091,345.482 57.5091,345.482 104.88,228.476 126.98,173.888"/>
<polygon fill="#6666ff" stroke="#6666ff" points="123.799,172.42 130.796,164.464 130.287,175.047 123.799,172.42"/>
</g>
<!-- Metamodel::PackageHOW&#45;&gt;Metamodel::Documenting -->
<g id="edge10" class="edge"><title>Metamodel::PackageHOW&#45;&gt;Metamodel::Documenting</title>
<path fill="none" stroke="#6666ff" d="M39.2073,590.053C22.3396,547.719 -19.4467,442.846 -39.4852,392.554"/>
<polygon fill="#6666ff" stroke="#6666ff" points="-42.8518,393.561 -43.3019,382.975 -36.349,390.97 -42.8518,393.561"/>
</g>
<!-- Metamodel::PackageHOW&#45;&gt;Metamodel::TypePretense -->
<g id="edge12" class="edge"><title>Metamodel::PackageHOW&#45;&gt;Metamodel::TypePretense</title>
<path fill="none" stroke="#6666ff" d="M162.08,605.92C190.772,605.314 221.634,604.663 250.695,604.049"/>
<polygon fill="#6666ff" stroke="#6666ff" points="250.821,600.546 260.893,603.834 250.969,607.544 250.821,600.546"/>
</g>
<!-- Metamodel::PackageHOW&#45;&gt;Metamodel::MethodDelegation -->
<g id="edge13" class="edge"><title>Metamodel::PackageHOW&#45;&gt;Metamodel::MethodDelegation</title>
<path fill="none" stroke="#6666ff" d="M-68.5712,605.367C-96.4422,604.642 -126.533,603.859 -155.391,603.109"/>
<polygon fill="#6666ff" stroke="#6666ff" points="-155.635,606.604 -165.541,602.845 -155.453,599.606 -155.635,606.604"/>
</g>
<!-- Metamodel::Versioning -->
<g id="node9" class="node"><title>Metamodel::Versioning</title>
<g id="a_node9"><a xlink:href="/type/Metamodel::Versioning" xlink:title="Metamodel::Versioning">
<ellipse fill="none" stroke="#6666ff" cx="-263.098" cy="257.944" rx="100.983" ry="18"/>
<text text-anchor="middle" x="-263.098" y="261.644" font-family="FreeSans" font-size="14.00" fill="#6666ff">Metamodel::Versioning</text>
</a>
</g>
</g>
<!-- Metamodel::MethodContainer -->
<g id="node10" class="node"><title>Metamodel::MethodContainer</title>
<g id="a_node10"><a xlink:href="/type/Metamodel::MethodContainer" xlink:title="Metamodel::MethodContainer">
<ellipse fill="none" stroke="#6666ff" cx="198.416" cy="-279.081" rx="127.277" ry="18"/>
<text text-anchor="middle" x="198.416" y="-275.381" font-family="FreeSans" font-size="14.00" fill="#6666ff">Metamodel::MethodContainer</text>
</a>
</g>
</g>
<!-- Metamodel::PrivateMethodContainer -->
<g id="node11" class="node"><title>Metamodel::PrivateMethodContainer</title>
<g id="a_node11"><a xlink:href="/type/Metamodel::PrivateMethodContainer" xlink:title="Metamodel::PrivateMethodContainer">
<ellipse fill="none" stroke="#6666ff" cx="-710.322" cy="579.318" rx="154.873" ry="18"/>
<text text-anchor="middle" x="-710.322" y="583.018" font-family="FreeSans" font-size="14.00" fill="#6666ff">Metamodel::PrivateMethodContainer</text>
</a>
</g>
</g>
<!-- Metamodel::MultiMethodContainer -->
<g id="node12" class="node"><title>Metamodel::MultiMethodContainer</title>
<g id="a_node12"><a xlink:href="/type/Metamodel::MultiMethodContainer" xlink:title="Metamodel::MultiMethodContainer">
<ellipse fill="none" stroke="#6666ff" cx="-275.172" cy="-19.7189" rx="146.474" ry="18"/>
<text text-anchor="middle" x="-275.172" y="-16.0189" font-family="FreeSans" font-size="14.00" fill="#6666ff">Metamodel::MultiMethodContainer</text>
</a>
</g>
</g>
<!-- Metamodel::AttributeContainer -->
<g id="node13" class="node"><title>Metamodel::AttributeContainer</title>
<g id="a_node13"><a xlink:href="/type/Metamodel::AttributeContainer" xlink:title="Metamodel::AttributeContainer">
<ellipse fill="none" stroke="#6666ff" cx="737.627" cy="-144.904" rx="129.977" ry="18"/>
<text text-anchor="middle" x="737.627" y="-141.204" font-family="FreeSans" font-size="14.00" fill="#6666ff">Metamodel::AttributeContainer</text>
</a>
</g>
</g>
<!-- Metamodel::RoleContainer -->
<g id="node14" class="node"><title>Metamodel::RoleContainer</title>
<g id="a_node14"><a xlink:href="/type/Metamodel::RoleContainer" xlink:title="Metamodel::RoleContainer">
<ellipse fill="none" stroke="#6666ff" cx="444.463" cy="-234.193" rx="115.88" ry="18"/>
<text text-anchor="middle" x="444.463" y="-230.493" font-family="FreeSans" font-size="14.00" fill="#6666ff">Metamodel::RoleContainer</text>
</a>
</g>
</g>
<!-- Metamodel::MultipleInheritance -->
<g id="node15" class="node"><title>Metamodel::MultipleInheritance</title>
<g id="a_node15"><a xlink:href="/type/Metamodel::MultipleInheritance" xlink:title="Metamodel::MultipleInheritance">
<ellipse fill="none" stroke="#6666ff" cx="738.243" cy="-493.636" rx="133.776" ry="18"/>
<text text-anchor="middle" x="738.243" y="-489.936" font-family="FreeSans" font-size="14.00" fill="#6666ff">Metamodel::MultipleInheritance</text>
</a>
</g>
</g>
<!-- Metamodel::RolePunning -->
<g id="node16" class="node"><title>Metamodel::RolePunning</title>
<g id="a_node16"><a xlink:href="/type/Metamodel::RolePunning" xlink:title="Metamodel::RolePunning">
<ellipse fill="none" stroke="#6666ff" cx="732.617" cy="554.582" rx="109.681" ry="18"/>
<text text-anchor="middle" x="732.617" y="558.282" font-family="FreeSans" font-size="14.00" fill="#6666ff">Metamodel::RolePunning</text>
</a>
</g>
</g>
<!-- Metamodel::ParametricRoleHOW -->
<g id="node17" class="node"><title>Metamodel::ParametricRoleHOW</title>
<g id="a_node17"><a xlink:href="/type/Metamodel::ParametricRoleHOW" xlink:title="Metamodel::ParametricRoleHOW">
<ellipse fill="none" stroke="#000000" cx="485.973" cy="315.646" rx="142.175" ry="18"/>
<text text-anchor="middle" x="485.973" y="319.346" font-family="FreeSans" font-size="14.00" fill="#000000">Metamodel::ParametricRoleHOW</text>
</a>
</g>
</g>
<!-- Metamodel::ParametricRoleHOW&#45;&gt;Metamodel::Stashing -->
<g id="edge23" class="edge"><title>Metamodel::ParametricRoleHOW&#45;&gt;Metamodel::Stashing</title>
<path fill="none" stroke="#6666ff" d="M437.593,298.602C331.478,261.22 78.8788,172.232 -32.6882,132.929"/>
<polygon fill="#6666ff" stroke="#6666ff" points="-34.1277,136.133 -42.3966,129.509 -31.8018,129.53 -34.1277,136.133"/>
</g>
<!-- Metamodel::ParametricRoleHOW&#45;&gt;Any -->
<g id="edge3" class="edge"><title>Metamodel::ParametricRoleHOW&#45;&gt;Any</title>
<path fill="none" stroke="#000000" d="M482.913,297.483C475.437,253.115 456.203,138.958 447.215,85.612"/>
<polygon fill="#000000" stroke="#000000" points="443.721,85.9376 445.51,75.495 450.623,84.7745 443.721,85.9376"/>
</g>
<!-- Metamodel::ParametricRoleHOW&#45;&gt;Metamodel::Naming -->
<g id="edge14" class="edge"><title>Metamodel::ParametricRoleHOW&#45;&gt;Metamodel::Naming</title>
<path fill="none" stroke="#6666ff" d="M450.053,298.176C385.805,266.928 251.439,201.579 181.893,167.755"/>
<polygon fill="#6666ff" stroke="#6666ff" points="179.985,170.719 172.523,163.198 183.047,164.424 179.985,170.719"/>
</g>
<!-- Metamodel::ParametricRoleHOW&#45;&gt;Metamodel::Documenting -->
<g id="edge15" class="edge"><title>Metamodel::ParametricRoleHOW&#45;&gt;Metamodel::Documenting</title>
<path fill="none" stroke="#6666ff" d="M349.757,320.979C286.792,323.444 225.736,325.835 225.736,325.835 225.736,325.835 106.612,331.609 106.612,331.609 106.612,331.609 66.952,339.982 27.4779,348.315"/>
<polygon fill="#6666ff" stroke="#6666ff" points="27.9777,351.787 17.4704,350.428 26.5317,344.938 27.9777,351.787"/>
</g>
<!-- Metamodel::ParametricRoleHOW&#45;&gt;Metamodel::TypePretense -->
<g id="edge24" class="edge"><title>Metamodel::ParametricRoleHOW&#45;&gt;Metamodel::TypePretense</title>
<path fill="none" stroke="#6666ff" d="M478.819,333.958C459.795,382.654 407.866,515.58 385.176,573.661"/>
<polygon fill="#6666ff" stroke="#6666ff" points="388.317,575.238 381.418,583.279 381.797,572.691 388.317,575.238"/>
</g>
<!-- Metamodel::ParametricRoleHOW&#45;&gt;Metamodel::Versioning -->
<g id="edge16" class="edge"><title>Metamodel::ParametricRoleHOW&#45;&gt;Metamodel::Versioning</title>
<path fill="none" stroke="#6666ff" d="M364.372,306.279C218.455,295.038 -23.6118,276.392 -160.51,265.846"/>
<polygon fill="#6666ff" stroke="#6666ff" points="-160.886,269.328 -170.587,265.07 -160.348,262.348 -160.886,269.328"/>
</g>
<!-- Metamodel::ParametricRoleHOW&#45;&gt;Metamodel::MethodContainer -->
<g id="edge17" class="edge"><title>Metamodel::ParametricRoleHOW&#45;&gt;Metamodel::MethodContainer</title>
<path fill="none" stroke="#6666ff" d="M479.023,297.638C450.492,223.718 343.867,-52.5366 343.867,-52.5366 343.867,-52.5366 254.047,-192.435 215.573,-252.359"/>
<polygon fill="#6666ff" stroke="#6666ff" points="212.531,-250.619 210.073,-260.925 218.421,-254.401 212.531,-250.619"/>
</g>
<!-- Metamodel::ParametricRoleHOW&#45;&gt;Metamodel::PrivateMethodContainer -->
<g id="edge18" class="edge"><title>Metamodel::ParametricRoleHOW&#45;&gt;Metamodel::PrivateMethodContainer</title>
<path fill="none" stroke="#6666ff" d="M434.512,332.429C413.827,339.175 394.778,345.387 394.778,345.387 394.778,345.387 345.675,359.26 345.675,359.26 345.675,359.26 -373.758,509.182 -624.986,561.535"/>
<polygon fill="#6666ff" stroke="#6666ff" points="-624.297,564.967 -634.801,563.581 -625.725,558.114 -624.297,564.967"/>
</g>
<!-- Metamodel::ParametricRoleHOW&#45;&gt;Metamodel::MultiMethodContainer -->
<g id="edge19" class="edge"><title>Metamodel::ParametricRoleHOW&#45;&gt;Metamodel::MultiMethodContainer</title>
<path fill="none" stroke="#6666ff" d="M440.259,298.439C332.876,258.021 73.5359,160.407 73.5359,160.407 73.5359,160.407 46.1493,146.589 46.1493,146.589 46.1493,146.589 7.93092,113.664 7.93092,113.664 7.93092,113.664 -20.0869,99.8164 -20.0869,99.8164 -20.0869,99.8164 -155.154,36.5226 -228.72,2.04856"/>
<polygon fill="#6666ff" stroke="#6666ff" points="-230.237,5.20321 -237.807,-2.20943 -227.267,-1.13535 -230.237,5.20321"/>
</g>
<!-- Metamodel::ParametricRoleHOW&#45;&gt;Metamodel::AttributeContainer -->
<g id="edge20" class="edge"><title>Metamodel::ParametricRoleHOW&#45;&gt;Metamodel::AttributeContainer</title>
<path fill="none" stroke="#6666ff" d="M495.838,297.592C534.596,226.66 676.567,-33.16 722.897,-117.947"/>
<polygon fill="#6666ff" stroke="#6666ff" points="719.827,-119.628 727.693,-126.725 725.97,-116.271 719.827,-119.628"/>
</g>
<!-- Metamodel::ParametricRoleHOW&#45;&gt;Metamodel::RoleContainer -->
<g id="edge21" class="edge"><title>Metamodel::ParametricRoleHOW&#45;&gt;Metamodel::RoleContainer</title>
<path fill="none" stroke="#6666ff" d="M484.924,297.479C481.528,238.674 471.053,57.2974 471.053,57.2974 471.053,57.2974 453.768,-132.191 447.07,-205.611"/>
<polygon fill="#6666ff" stroke="#6666ff" points="443.549,-205.682 446.126,-215.959 450.52,-206.318 443.549,-205.682"/>
</g>
<!-- Metamodel::ParametricRoleHOW&#45;&gt;Metamodel::MultipleInheritance -->
<g id="edge22" class="edge"><title>Metamodel::ParametricRoleHOW&#45;&gt;Metamodel::MultipleInheritance</title>
<path fill="none" stroke="#6666ff" d="M490.68,297.593C512.878,212.451 606.038,-144.866 606.038,-144.866 606.038,-144.866 696.422,-383.308 727.724,-465.885"/>
<polygon fill="#6666ff" stroke="#6666ff" points="724.504,-467.265 731.321,-475.375 731.049,-464.784 724.504,-467.265"/>
</g>
<!-- Metamodel::ParametricRoleHOW&#45;&gt;Metamodel::RolePunning -->
<g id="edge25" class="edge"><title>Metamodel::ParametricRoleHOW&#45;&gt;Metamodel::RolePunning</title>
<path fill="none" stroke="#6666ff" d="M504.511,333.605C548.095,375.826 657.139,481.463 707.005,529.771"/>
<polygon fill="#6666ff" stroke="#6666ff" points="709.453,527.269 714.2,536.741 704.582,532.296 709.453,527.269"/>
</g>
<!-- Metamodel::BaseType -->
<g id="node18" class="node"><title>Metamodel::BaseType</title>
<g id="a_node18"><a xlink:href="/type/Metamodel::BaseType" xlink:title="Metamodel::BaseType">
<ellipse fill="none" stroke="#6666ff" cx="-412.99" cy="-527.999" rx="99.3824" ry="18"/>
<text text-anchor="middle" x="-412.99" y="-524.299" font-family="FreeSans" font-size="14.00" fill="#6666ff">Metamodel::BaseType</text>
</a>
</g>
</g>
<!-- Metamodel::MROBasedMethodDispatch -->
<g id="node19" class="node"><title>Metamodel::MROBasedMethodDispatch</title>
<g id="a_node19"><a xlink:href="/type/Metamodel::MROBasedMethodDispatch" xlink:title="Metamodel::MROBasedMethodDispatch">
<ellipse fill="none" stroke="#6666ff" cx="-475.291" cy="-229.039" rx="169.77" ry="18"/>
<text text-anchor="middle" x="-475.291" y="-225.339" font-family="FreeSans" font-size="14.00" fill="#6666ff">Metamodel::MROBasedMethodDispatch</text>
</a>
</g>
</g>
<!-- Metamodel::MROBasedTypeChecking -->
<g id="node20" class="node"><title>Metamodel::MROBasedTypeChecking</title>
<g id="a_node20"><a xlink:href="/type/Metamodel::MROBasedTypeChecking" xlink:title="Metamodel::MROBasedTypeChecking">
<ellipse fill="none" stroke="#6666ff" cx="-19.7471" cy="-315.989" rx="163.271" ry="18"/>
<text text-anchor="middle" x="-19.7471" y="-312.289" font-family="FreeSans" font-size="14.00" fill="#6666ff">Metamodel::MROBasedTypeChecking</text>
</a>
</g>
</g>
<!-- Metamodel::BUILDPLAN -->
<g id="node21" class="node"><title>Metamodel::BUILDPLAN</title>
<g id="a_node21"><a xlink:href="/type/Metamodel::BUILDPLAN" xlink:title="Metamodel::BUILDPLAN">
<ellipse fill="none" stroke="#6666ff" cx="-757.238" cy="-122.039" rx="109.681" ry="18"/>
<text text-anchor="middle" x="-757.238" y="-118.339" font-family="FreeSans" font-size="14.00" fill="#6666ff">Metamodel::BUILDPLAN</text>
</a>
</g>
</g>
<!-- Metamodel::BoolificationProtocol -->
<g id="node22" class="node"><title>Metamodel::BoolificationProtocol</title>
<g id="a_node22"><a xlink:href="/type/Metamodel::BoolificationProtocol" xlink:title="Metamodel::BoolificationProtocol">
<ellipse fill="none" stroke="#6666ff" cx="-494.757" cy="71.8615" rx="139.175" ry="18"/>
<text text-anchor="middle" x="-494.757" y="75.5615" font-family="FreeSans" font-size="14.00" fill="#6666ff">Metamodel::BoolificationProtocol</text>
</a>
</g>
</g>
<!-- Metamodel::EnumHOW -->
<g id="node23" class="node"><title>Metamodel::EnumHOW</title>
<g id="a_node23"><a xlink:href="/type/Metamodel::EnumHOW" xlink:title="Metamodel::EnumHOW">
<ellipse fill="none" stroke="#000000" cx="-228.866" cy="-253.259" rx="104.782" ry="18"/>
<text text-anchor="middle" x="-228.866" y="-249.559" font-family="FreeSans" font-size="14.00" fill="#000000">Metamodel::EnumHOW</text>
</a>
</g>
</g>
<!-- Metamodel::EnumHOW&#45;&gt;Metamodel::Stashing -->
<g id="edge27" class="edge"><title>Metamodel::EnumHOW&#45;&gt;Metamodel::Stashing</title>
<path fill="none" stroke="#6666ff" d="M-220.9,-234.948C-196.966,-179.937 -127.341,-19.9027 -127.341,-19.9027 -127.341,-19.9027 -107.341,46.7681 -95.5964,85.9165"/>
<polygon fill="#6666ff" stroke="#6666ff" points="-92.187,85.1011 -92.666,95.6851 -98.8919,87.1125 -92.187,85.1011"/>
</g>
<!-- Metamodel::EnumHOW&#45;&gt;Any -->
<g id="edge4" class="edge"><title>Metamodel::EnumHOW&#45;&gt;Any</title>
<path fill="none" stroke="#000000" d="M-194.97,-236.211C-111.091,-194.024 99.4273,-88.1444 99.4273,-88.1444 99.4273,-88.1444 126.195,-52.1826 126.195,-52.1826 126.195,-52.1826 158.767,-38.3757 158.767,-38.3757 158.767,-38.3757 333.611,20.6241 408.771,45.9864"/>
<polygon fill="#000000" stroke="#000000" points="409.911,42.677 418.267,49.1907 407.672,49.3096 409.911,42.677"/>
</g>
<!-- Metamodel::EnumHOW&#45;&gt;Metamodel::Naming -->
<g id="edge26" class="edge"><title>Metamodel::EnumHOW&#45;&gt;Metamodel::Naming</title>
<path fill="none" stroke="#6666ff" d="M-216.11,-235.261C-185.757,-192.435 -111.753,-88.0215 -111.753,-88.0215 -111.753,-88.0215 47.958,61.8643 111.993,121.96"/>
<polygon fill="#6666ff" stroke="#6666ff" points="114.413,119.432 119.31,128.827 109.623,124.536 114.413,119.432"/>
</g>
<!-- Metamodel::EnumHOW&#45;&gt;Metamodel::MethodContainer -->
<g id="edge29" class="edge"><title>Metamodel::EnumHOW&#45;&gt;Metamodel::MethodContainer</title>
<path fill="none" stroke="#6666ff" d="M-130.034,-259.232C-70.2527,-262.845 6.58989,-267.489 70.9171,-271.376"/>
<polygon fill="#6666ff" stroke="#6666ff" points="70.9363,-274.884 81.1292,-271.993 71.3586,-267.896 70.9363,-274.884"/>
</g>
<!-- Metamodel::EnumHOW&#45;&gt;Metamodel::MultiMethodContainer -->
<g id="edge30" class="edge"><title>Metamodel::EnumHOW&#45;&gt;Metamodel::MultiMethodContainer</title>
<path fill="none" stroke="#6666ff" d="M-232.5,-234.934C-240.564,-194.261 -260.002,-96.2257 -269.608,-47.7802"/>
<polygon fill="#6666ff" stroke="#6666ff" points="-266.177,-47.0876 -271.555,-37.9593 -273.043,-48.4491 -266.177,-47.0876"/>
</g>
<!-- Metamodel::EnumHOW&#45;&gt;Metamodel::AttributeContainer -->
<g id="edge28" class="edge"><title>Metamodel::EnumHOW&#45;&gt;Metamodel::AttributeContainer</title>
<path fill="none" stroke="#6666ff" d="M-140.964,-243.404C35.4714,-223.624 432.412,-179.122 626.514,-157.361"/>
<polygon fill="#6666ff" stroke="#6666ff" points="626.905,-160.839 636.452,-156.247 626.125,-153.883 626.905,-160.839"/>
</g>
<!-- Metamodel::EnumHOW&#45;&gt;Metamodel::RoleContainer -->
<g id="edge31" class="edge"><title>Metamodel::EnumHOW&#45;&gt;Metamodel::RoleContainer</title>
<path fill="none" stroke="#6666ff" d="M-125.502,-250.332C-5.53078,-246.935 192.201,-241.336 320.371,-237.707"/>
<polygon fill="#6666ff" stroke="#6666ff" points="320.731,-241.198 330.628,-237.416 320.533,-234.201 320.731,-241.198"/>
</g>
<!-- Metamodel::EnumHOW&#45;&gt;Metamodel::BaseType -->
<g id="edge32" class="edge"><title>Metamodel::EnumHOW&#45;&gt;Metamodel::BaseType</title>
<path fill="none" stroke="#6666ff" d="M-240.947,-271.286C-272.55,-318.442 -357.793,-445.636 -395.098,-501.3"/>
<polygon fill="#6666ff" stroke="#6666ff" points="-398.205,-499.65 -400.865,-509.906 -392.39,-503.547 -398.205,-499.65"/>
</g>
<!-- Metamodel::EnumHOW&#45;&gt;Metamodel::MROBasedMethodDispatch -->
<g id="edge33" class="edge"><title>Metamodel::EnumHOW&#45;&gt;Metamodel::MROBasedMethodDispatch</title>
<path fill="none" stroke="#6666ff" d="M-319.926,-244.309C-326.65,-243.648 -333.512,-242.974 -340.423,-242.295"/>
<polygon fill="#6666ff" stroke="#6666ff" points="-340.28,-238.792 -350.574,-241.297 -340.964,-245.758 -340.28,-238.792"/>
</g>
<!-- Metamodel::EnumHOW&#45;&gt;Metamodel::MROBasedTypeChecking -->
<g id="edge34" class="edge"><title>Metamodel::EnumHOW&#45;&gt;Metamodel::MROBasedTypeChecking</title>
<path fill="none" stroke="#6666ff" d="M-176.636,-268.927C-149.138,-277.176 -115.133,-287.376 -85.8194,-296.169"/>
<polygon fill="#6666ff" stroke="#6666ff" points="-86.6581,-299.572 -76.0741,-299.093 -84.6468,-292.867 -86.6581,-299.572"/>
</g>
<!-- Metamodel::EnumHOW&#45;&gt;Metamodel::BUILDPLAN -->
<g id="edge35" class="edge"><title>Metamodel::EnumHOW&#45;&gt;Metamodel::BUILDPLAN</title>
<path fill="none" stroke="#6666ff" d="M-278.6,-237.268C-292.583,-232.773 -304.056,-229.084 -304.056,-229.084 -304.056,-229.084 -353.932,-215.211 -353.932,-215.211 -353.932,-215.211 -567.01,-165.986 -683.41,-139.095"/>
<polygon fill="#6666ff" stroke="#6666ff" points="-682.802,-135.644 -693.333,-136.803 -684.378,-142.464 -682.802,-135.644"/>
</g>
<!-- Metamodel::EnumHOW&#45;&gt;Metamodel::BoolificationProtocol -->
<g id="edge36" class="edge"><title>Metamodel::EnumHOW&#45;&gt;Metamodel::BoolificationProtocol</title>
<path fill="none" stroke="#6666ff" d="M-243.778,-235.307C-289.237,-180.578 -423.002,-19.5351 -423.002,-19.5351 -423.002,-19.5351 -453.116,18.8222 -474.327,45.839"/>
<polygon fill="#6666ff" stroke="#6666ff" points="-471.652,48.1002 -480.58,53.8044 -477.158,43.7775 -471.652,48.1002"/>
</g>
<!-- Metamodel::C3MRO -->
<g id="node24" class="node"><title>Metamodel::C3MRO</title>
<g id="a_node24"><a xlink:href="/type/Metamodel::C3MRO" xlink:title="Metamodel::C3MRO">
<ellipse fill="none" stroke="#6666ff" cx="140.268" cy="-546.529" rx="92.0841" ry="18"/>
<text text-anchor="middle" x="140.268" y="-542.829" font-family="FreeSans" font-size="14.00" fill="#6666ff">Metamodel::C3MRO</text>
</a>
</g>
</g>
<!-- Metamodel::NativeHOW -->
<g id="node25" class="node"><title>Metamodel::NativeHOW</title>
<g id="a_node25"><a xlink:href="/type/Metamodel::NativeHOW" xlink:title="Metamodel::NativeHOW">
<ellipse fill="none" stroke="#000000" cx="235.031" cy="-52.3596" rx="107.482" ry="18"/>
<text text-anchor="middle" x="235.031" y="-48.6596" font-family="FreeSans" font-size="14.00" fill="#000000">Metamodel::NativeHOW</text>
</a>
</g>
</g>
<!-- Metamodel::NativeHOW&#45;&gt;Metamodel::Stashing -->
<g id="edge40" class="edge"><title>Metamodel::NativeHOW&#45;&gt;Metamodel::Stashing</title>
<path fill="none" stroke="#6666ff" d="M201.754,-35.2134C142.737,-4.80433 19.8584,58.5099 -45.0268,91.9425"/>
<polygon fill="#6666ff" stroke="#6666ff" points="-43.6722,95.1818 -54.1647,96.6509 -46.8784,88.9592 -43.6722,95.1818"/>
</g>
<!-- Metamodel::NativeHOW&#45;&gt;Any -->
<g id="edge5" class="edge"><title>Metamodel::NativeHOW&#45;&gt;Any</title>
<path fill="none" stroke="#000000" d="M267.897,-34.9754C307.494,-14.0318 373.481,20.8708 411.978,41.2328"/>
<polygon fill="#000000" stroke="#000000" points="413.937,38.3095 421.14,46.079 410.664,44.4972 413.937,38.3095"/>
</g>
<!-- Metamodel::NativeHOW&#45;&gt;Metamodel::Naming -->
<g id="edge37" class="edge"><title>Metamodel::NativeHOW&#45;&gt;Metamodel::Naming</title>
<path fill="none" stroke="#6666ff" d="M226.257,-34.3659C209.213,0.587548 171.539,77.8495 151.399,119.154"/>
<polygon fill="#6666ff" stroke="#6666ff" points="154.442,120.9 146.913,128.354 148.15,117.832 154.442,120.9"/>
</g>
<!-- Metamodel::NativeHOW&#45;&gt;Metamodel::Documenting -->
<g id="edge38" class="edge"><title>Metamodel::NativeHOW&#45;&gt;Metamodel::Documenting</title>
<path fill="none" stroke="#6666ff" d="M217.936,-34.3534C171.441,14.6195 46.1493,146.589 46.1493,146.589 46.1493,146.589 -12.2749,278.423 -38.2973,337.142"/>
<polygon fill="#6666ff" stroke="#6666ff" points="-35.2191,338.835 -42.4706,346.559 -41.6188,335.999 -35.2191,338.835"/>
</g>
<!-- Metamodel::NativeHOW&#45;&gt;Metamodel::Versioning -->
<g id="edge39" class="edge"><title>Metamodel::NativeHOW&#45;&gt;Metamodel::Versioning</title>
<path fill="none" stroke="#6666ff" d="M210.727,-34.5922C152.142,8.23739 7.93092,113.664 7.93092,113.664 7.93092,113.664 -146.352,195.795 -222.109,236.124"/>
<polygon fill="#6666ff" stroke="#6666ff" points="-220.471,239.217 -230.943,240.826 -223.76,233.038 -220.471,239.217"/>
</g>
<!-- Metamodel::NativeHOW&#45;&gt;Metamodel::MultipleInheritance -->
<g id="edge41" class="edge"><title>Metamodel::NativeHOW&#45;&gt;Metamodel::MultipleInheritance</title>
<path fill="none" stroke="#6666ff" d="M266.062,-69.641C347.617,-115.059 561.75,-234.309 561.75,-234.309 561.75,-234.309 674.777,-400.382 719.93,-466.728"/>
<polygon fill="#6666ff" stroke="#6666ff" points="717.312,-469.102 725.832,-475.4 723.099,-465.164 717.312,-469.102"/>
</g>
<!-- Metamodel::NativeHOW&#45;&gt;Metamodel::MROBasedMethodDispatch -->
<g id="edge43" class="edge"><title>Metamodel::NativeHOW&#45;&gt;Metamodel::MROBasedMethodDispatch</title>
<path fill="none" stroke="#6666ff" d="M182.266,-68.0616C133.409,-82.6004 68.2667,-101.986 68.2667,-101.986 68.2667,-101.986 -243.628,-174.889 -394.898,-210.248"/>
<polygon fill="#6666ff" stroke="#6666ff" points="-396.124,-206.94 -405.065,-212.624 -394.531,-213.756 -396.124,-206.94"/>
</g>
<!-- Metamodel::NativeHOW&#45;&gt;Metamodel::MROBasedTypeChecking -->
<g id="edge44" class="edge"><title>Metamodel::NativeHOW&#45;&gt;Metamodel::MROBasedTypeChecking</title>
<path fill="none" stroke="#6666ff" d="M217.519,-70.4799C173.049,-116.494 55.6808,-237.941 4.59088,-290.806"/>
<polygon fill="#6666ff" stroke="#6666ff" points="1.98307,-288.468 -2.4495,-298.091 7.01662,-293.332 1.98307,-288.468"/>
</g>
<!-- Metamodel::NativeHOW&#45;&gt;Metamodel::C3MRO -->
<g id="edge42" class="edge"><title>Metamodel::NativeHOW&#45;&gt;Metamodel::C3MRO</title>
<path fill="none" stroke="#6666ff" d="M242.434,-70.5386C264.353,-124.364 327.403,-279.19 327.403,-279.19 327.403,-279.19 205.946,-452.702 158.73,-520.154"/>
<polygon fill="#6666ff" stroke="#6666ff" points="155.704,-518.374 152.837,-528.573 161.439,-522.388 155.704,-518.374"/>
</g>
<!-- Metamodel::ModuleHOW -->
<g id="node26" class="node"><title>Metamodel::ModuleHOW</title>
<g id="a_node26"><a xlink:href="/type/Metamodel::ModuleHOW" xlink:title="Metamodel::ModuleHOW">
<ellipse fill="none" stroke="#000000" cx="-471.016" cy="365.627" rx="111.28" ry="18"/>
<text text-anchor="middle" x="-471.016" y="369.327" font-family="FreeSans" font-size="14.00" fill="#000000">Metamodel::ModuleHOW</text>
</a>
</g>
</g>
<!-- Metamodel::ModuleHOW&#45;&gt;Metamodel::Stashing -->
<g id="edge48" class="edge"><title>Metamodel::ModuleHOW&#45;&gt;Metamodel::Stashing</title>
<path fill="none" stroke="#6666ff" d="M-453.106,347.377C-422.984,316.683 -365.437,258.044 -365.437,258.044 -365.437,258.044 -206.691,175.674 -129.04,135.383"/>
<polygon fill="#6666ff" stroke="#6666ff" points="-130.477,132.185 -119.989,130.686 -127.253,138.398 -130.477,132.185"/>
</g>
<!-- Metamodel::ModuleHOW&#45;&gt;Any -->
<g id="edge6" class="edge"><title>Metamodel::ModuleHOW&#45;&gt;Any</title>
<path fill="none" stroke="#000000" d="M-418.645,349.68C-260.15,301.416 203.558,160.212 203.558,160.212 203.558,160.212 344.873,99.3671 410.128,71.2704"/>
<polygon fill="#000000" stroke="#000000" points="408.978,67.955 419.547,67.215 411.747,74.3844 408.978,67.955"/>
</g>
<!-- Metamodel::ModuleHOW&#45;&gt;Metamodel::Naming -->
<g id="edge45" class="edge"><title>Metamodel::ModuleHOW&#45;&gt;Metamodel::Naming</title>
<path fill="none" stroke="#6666ff" d="M-422.45,349.379C-342.123,322.505 -190.362,271.732 -190.362,271.732 -190.362,271.732 -5.69138,201.293 86.7061,166.049"/>
<polygon fill="#6666ff" stroke="#6666ff" points="85.5661,162.738 96.1568,162.445 88.0608,169.279 85.5661,162.738"/>
</g>
<!-- Metamodel::ModuleHOW&#45;&gt;Metamodel::Documenting -->
<g id="edge46" class="edge"><title>Metamodel::ModuleHOW&#45;&gt;Metamodel::Documenting</title>
<path fill="none" stroke="#6666ff" d="M-359.718,365.405C-301.875,365.29 -231.087,365.148 -171.849,365.03"/>
<polygon fill="#6666ff" stroke="#6666ff" points="-171.696,361.53 -161.689,365.01 -171.682,368.53 -171.696,361.53"/>
</g>
<!-- Metamodel::ModuleHOW&#45;&gt;Metamodel::TypePretense -->
<g id="edge49" class="edge"><title>Metamodel::ModuleHOW&#45;&gt;Metamodel::TypePretense</title>
<path fill="none" stroke="#6666ff" d="M-414.896,381.282C-264.549,423.222 146.809,537.973 308.147,582.979"/>
<polygon fill="#6666ff" stroke="#6666ff" points="309.255,579.654 317.947,585.712 307.374,586.397 309.255,579.654"/>
</g>
<!-- Metamodel::ModuleHOW&#45;&gt;Metamodel::MethodDelegation -->
<g id="edge50" class="edge"><title>Metamodel::ModuleHOW&#45;&gt;Metamodel::MethodDelegation</title>
<path fill="none" stroke="#6666ff" d="M-457.481,383.589C-426.538,424.654 -350.52,525.536 -314.43,573.43"/>
<polygon fill="#6666ff" stroke="#6666ff" points="-311.603,571.366 -308.38,581.459 -317.193,575.579 -311.603,571.366"/>
</g>
<!-- Metamodel::ModuleHOW&#45;&gt;Metamodel::Versioning -->
<g id="edge47" class="edge"><title>Metamodel::ModuleHOW&#45;&gt;Metamodel::Versioning</title>
<path fill="none" stroke="#6666ff" d="M-437.61,348.326C-401.584,329.667 -344.154,299.924 -305.096,279.695"/>
<polygon fill="#6666ff" stroke="#6666ff" points="-306.566,276.515 -296.077,275.024 -303.347,282.731 -306.566,276.515"/>
</g>
<!-- Metamodel::ParametricRoleGroupHOW -->
<g id="node27" class="node"><title>Metamodel::ParametricRoleGroupHOW</title>
<g id="a_node27"><a xlink:href="/type/Metamodel::ParametricRoleGroupHOW" xlink:title="Metamodel::ParametricRoleGroupHOW">
<ellipse fill="none" stroke="#000000" cx="226.144" cy="345.435" rx="167.07" ry="18"/>
<text text-anchor="middle" x="226.144" y="349.135" font-family="FreeSans" font-size="14.00" fill="#000000">Metamodel::ParametricRoleGroupHOW</text>
</a>
</g>
</g>
<!-- Metamodel::ParametricRoleGroupHOW&#45;&gt;Metamodel::Stashing -->
<g id="edge52" class="edge"><title>Metamodel::ParametricRoleGroupHOW&#45;&gt;Metamodel::Stashing</title>
<path fill="none" stroke="#6666ff" d="M201.812,327.444C145.77,286.006 7.59024,183.836 -55.2389,137.381"/>
<polygon fill="#6666ff" stroke="#6666ff" points="-57.628,139.967 -63.5879,131.207 -53.4663,134.338 -57.628,139.967"/>
</g>
<!-- Metamodel::ParametricRoleGroupHOW&#45;&gt;Any -->
<g id="edge7" class="edge"><title>Metamodel::ParametricRoleGroupHOW&#45;&gt;Any</title>
<path fill="none" stroke="#000000" d="M239.675,327.414C277.064,277.618 381.821,138.103 424.258,81.585"/>
<polygon fill="#000000" stroke="#000000" points="421.48,79.4557 430.284,73.5605 427.078,83.6588 421.48,79.4557"/>
</g>
<!-- Metamodel::ParametricRoleGroupHOW&#45;&gt;Metamodel::Naming -->
<g id="edge51" class="edge"><title>Metamodel::ParametricRoleGroupHOW&#45;&gt;Metamodel::Naming</title>
<path fill="none" stroke="#6666ff" d="M218.174,327.425C202.693,292.441 168.473,215.112 150.179,173.771"/>
<polygon fill="#6666ff" stroke="#6666ff" points="146.95,175.124 146.104,164.563 153.351,172.291 146.95,175.124"/>
</g>
<!-- Metamodel::ParametricRoleGroupHOW&#45;&gt;Metamodel::TypePretense -->
<g id="edge53" class="edge"><title>Metamodel::ParametricRoleGroupHOW&#45;&gt;Metamodel::TypePretense</title>
<path fill="none" stroke="#6666ff" d="M236.564,363.436C262.23,407.779 328.604,522.451 358.871,574.742"/>
<polygon fill="#6666ff" stroke="#6666ff" points="361.935,573.049 363.916,583.457 355.877,576.556 361.935,573.049"/>
</g>
<!-- Metamodel::ParametricRoleGroupHOW&#45;&gt;Metamodel::RolePunning -->
<g id="edge54" class="edge"><title>Metamodel::ParametricRoleGroupHOW&#45;&gt;Metamodel::RolePunning</title>
<path fill="none" stroke="#6666ff" d="M268.454,362.907C361.387,401.283 582.965,492.783 682.59,533.924"/>
<polygon fill="#6666ff" stroke="#6666ff" points="683.935,530.692 691.842,537.744 681.263,537.162 683.935,530.692"/>
</g>
<!-- Metamodel::ParametricRoleGroupHOW&#45;&gt;Metamodel::BoolificationProtocol -->
<g id="edge55" class="edge"><title>Metamodel::ParametricRoleGroupHOW&#45;&gt;Metamodel::BoolificationProtocol</title>
<path fill="none" stroke="#6666ff" d="M180.501,328.114C53.5543,279.939 -303.341,144.501 -440.301,92.5266"/>
<polygon fill="#6666ff" stroke="#6666ff" points="-441.668,95.7514 -449.776,88.931 -439.185,89.2068 -441.668,95.7514"/>
</g>
<!-- Metamodel::Finalization -->
<g id="node28" class="node"><title>Metamodel::Finalization</title>
<g id="a_node28"><a xlink:href="/type/Metamodel::Finalization" xlink:title="Metamodel::Finalization">
<ellipse fill="none" stroke="#6666ff" cx="-738.044" cy="-491.861" rx="103.982" ry="18"/>
<text text-anchor="middle" x="-738.044" y="-488.161" font-family="FreeSans" font-size="14.00" fill="#6666ff">Metamodel::Finalization</text>
</a>
</g>
</g>
<!-- Metamodel::DefaultParent -->
<g id="node29" class="node"><title>Metamodel::DefaultParent</title>
<g id="a_node29"><a xlink:href="/type/Metamodel::DefaultParent" xlink:title="Metamodel::DefaultParent">
<ellipse fill="none" stroke="#6666ff" cx="-760.488" cy="223.714" rx="113.18" ry="18"/>
<text text-anchor="middle" x="-760.488" y="227.414" font-family="FreeSans" font-size="14.00" fill="#6666ff">Metamodel::DefaultParent</text>
</a>
</g>
</g>
<!-- Metamodel::Trusting -->
<g id="node30" class="node"><title>Metamodel::Trusting</title>
<g id="a_node30"><a xlink:href="/type/Metamodel::Trusting" xlink:title="Metamodel::Trusting">
<ellipse fill="none" stroke="#6666ff" cx="417.988" cy="-530.637" rx="91.784" ry="18"/>
<text text-anchor="middle" x="417.988" y="-526.937" font-family="FreeSans" font-size="14.00" fill="#6666ff">Metamodel::Trusting</text>
</a>
</g>
</g>
<!-- Metamodel::Mixins -->
<g id="node31" class="node"><title>Metamodel::Mixins</title>
<g id="a_node31"><a xlink:href="/type/Metamodel::Mixins" xlink:title="Metamodel::Mixins">
<ellipse fill="none" stroke="#6666ff" cx="-141.166" cy="-544.787" rx="85.2851" ry="18"/>
<text text-anchor="middle" x="-141.166" y="-541.087" font-family="FreeSans" font-size="14.00" fill="#6666ff">Metamodel::Mixins</text>
</a>
</g>
</g>
<!-- Metamodel::ClassHOW -->
<g id="node32" class="node"><title>Metamodel::ClassHOW</title>
<g id="a_node32"><a xlink:href="/type/Metamodel::ClassHOW" xlink:title="Metamodel::ClassHOW">
<ellipse fill="none" stroke="#000000" cx="-6.16296" cy="-88.0829" rx="103.982" ry="18"/>
<text text-anchor="middle" x="-6.16296" y="-84.3829" font-family="FreeSans" font-size="14.00" fill="#000000">Metamodel::ClassHOW</text>
</a>
</g>
</g>
<!-- Metamodel::ClassHOW&#45;&gt;Metamodel::Stashing -->
<g id="edge59" class="edge"><title>Metamodel::ClassHOW&#45;&gt;Metamodel::Stashing</title>
<path fill="none" stroke="#6666ff" d="M-13.5029,-69.8198C-27.797,-34.2532 -59.4369,44.473 -76.2536,86.3162"/>
<polygon fill="#6666ff" stroke="#6666ff" points="-73.019,87.6539 -79.9957,95.6274 -79.5141,85.0435 -73.019,87.6539"/>
</g>
<!-- Metamodel::ClassHOW&#45;&gt;Any -->
<g id="edge8" class="edge"><title>Metamodel::ClassHOW&#45;&gt;Any</title>
<path fill="none" stroke="#000000" d="M43.1302,-72.1028C134.729,-42.4076 329.035,20.5835 408.003,46.1839"/>
<polygon fill="#000000" stroke="#000000" points="409.489,42.9863 417.922,49.3996 407.33,49.6451 409.489,42.9863"/>
</g>
<!-- Metamodel::ClassHOW&#45;&gt;Metamodel::Naming -->
<g id="edge56" class="edge"><title>Metamodel::ClassHOW&#45;&gt;Metamodel::Naming</title>
<path fill="none" stroke="#6666ff" d="M4.91672,-70.0689C30.1421,-29.0559 91.9612,71.4532 121.65,119.723"/>
<polygon fill="#6666ff" stroke="#6666ff" points="124.714,118.024 126.972,128.375 118.751,121.691 124.714,118.024"/>
</g>
<!-- Metamodel::ClassHOW&#45;&gt;Metamodel::Documenting -->
<g id="edge57" class="edge"><title>Metamodel::ClassHOW&#45;&gt;Metamodel::Documenting</title>
<path fill="none" stroke="#6666ff" d="M-4.88736,-69.8234C-1.41803,-20.1616 7.93092,113.664 7.93092,113.664 7.93092,113.664 -28.7378,271.127 -44.0027,336.678"/>
<polygon fill="#6666ff" stroke="#6666ff" points="-40.6661,337.782 -46.343,346.728 -47.4837,336.194 -40.6661,337.782"/>
</g>
<!-- Metamodel::ClassHOW&#45;&gt;Metamodel::Versioning -->
<g id="edge58" class="edge"><title>Metamodel::ClassHOW&#45;&gt;Metamodel::Versioning</title>
<path fill="none" stroke="#6666ff" d="M-21.8074,-70.1722C-64.952,-20.7776 -182.452,113.744 -182.452,113.744 -182.452,113.744 -224.783,189.435 -248.107,231.14"/>
<polygon fill="#6666ff" stroke="#6666ff" points="-245.111,232.953 -253.047,239.972 -251.22,229.536 -245.111,232.953"/>
</g>
<!-- Metamodel::ClassHOW&#45;&gt;Metamodel::MethodContainer -->
<g id="edge62" class="edge"><title>Metamodel::ClassHOW&#45;&gt;Metamodel::MethodContainer</title>
<path fill="none" stroke="#6666ff" d="M13.0834,-106.052C49.7898,-140.321 129.863,-215.079 171.72,-254.158"/>
<polygon fill="#6666ff" stroke="#6666ff" points="169.374,-256.755 179.072,-261.021 174.151,-251.639 169.374,-256.755"/>
</g>
<!-- Metamodel::ClassHOW&#45;&gt;Metamodel::PrivateMethodContainer -->
<g id="edge63" class="edge"><title>Metamodel::ClassHOW&#45;&gt;Metamodel::PrivateMethodContainer</title>
<path fill="none" stroke="#6666ff" d="M-28.8053,-70.2941C-135.594,13.6037 -583.755,365.699 -583.755,365.699 -583.755,365.699 -660.178,494.685 -694.254,552.199"/>
<polygon fill="#6666ff" stroke="#6666ff" points="-691.422,554.286 -699.531,561.105 -697.445,550.718 -691.422,554.286"/>
</g>
<!-- Metamodel::ClassHOW&#45;&gt;Metamodel::MultiMethodContainer -->
<g id="edge64" class="edge"><title>Metamodel::ClassHOW&#45;&gt;Metamodel::MultiMethodContainer</title>
<path fill="none" stroke="#6666ff" d="M-64.8656,-73.1646C-105.024,-62.959 -158.568,-49.3517 -201.578,-38.4215"/>
<polygon fill="#6666ff" stroke="#6666ff" points="-200.872,-34.9898 -211.426,-35.9189 -202.596,-41.7742 -200.872,-34.9898"/>
</g>
<!-- Metamodel::ClassHOW&#45;&gt;Metamodel::AttributeContainer -->
<g id="edge60" class="edge"><title>Metamodel::ClassHOW&#45;&gt;Metamodel::AttributeContainer</title>
<path fill="none" stroke="#6666ff" d="M89.1726,-95.366C222.81,-105.575 465.981,-124.152 613.569,-135.427"/>
<polygon fill="#6666ff" stroke="#6666ff" points="613.351,-138.92 623.588,-136.192 613.884,-131.94 613.351,-138.92"/>
</g>
<!-- Metamodel::ClassHOW&#45;&gt;Metamodel::RoleContainer -->
<g id="edge65" class="edge"><title>Metamodel::ClassHOW&#45;&gt;Metamodel::RoleContainer</title>
<path fill="none" stroke="#6666ff" d="M42.9197,-103.997C126.14,-130.981 294.636,-185.613 384.629,-214.793"/>
<polygon fill="#6666ff" stroke="#6666ff" points="383.818,-218.209 394.41,-217.964 385.977,-211.55 383.818,-218.209"/>
</g>
<!-- Metamodel::ClassHOW&#45;&gt;Metamodel::MultipleInheritance -->
<g id="edge66" class="edge"><title>Metamodel::ClassHOW&#45;&gt;Metamodel::MultipleInheritance</title>
<path fill="none" stroke="#6666ff" d="M25.3478,-105.25C143.85,-169.81 562.812,-398.061 696.747,-471.028"/>
<polygon fill="#6666ff" stroke="#6666ff" points="695.433,-474.298 705.889,-476.009 698.782,-468.152 695.433,-474.298"/>
</g>
<!-- Metamodel::ClassHOW&#45;&gt;Metamodel::MROBasedMethodDispatch -->
<g id="edge69" class="edge"><title>Metamodel::ClassHOW&#45;&gt;Metamodel::MROBasedMethodDispatch</title>
<path fill="none" stroke="#6666ff" d="M-58.1603,-103.706C-143.872,-129.459 -314.695,-180.786 -408.974,-209.113"/>
<polygon fill="#6666ff" stroke="#6666ff" points="-410.118,-205.802 -418.688,-212.032 -408.104,-212.506 -410.118,-205.802"/>
</g>
<!-- Metamodel::ClassHOW&#45;&gt;Metamodel::MROBasedTypeChecking -->
<g id="edge70" class="edge"><title>Metamodel::ClassHOW&#45;&gt;Metamodel::MROBasedTypeChecking</title>
<path fill="none" stroke="#6666ff" d="M-7.25164,-106.348C-9.61718,-146.036 -15.2401,-240.374 -18.0656,-287.778"/>
<polygon fill="#6666ff" stroke="#6666ff" points="-21.5708,-287.763 -18.6721,-297.953 -14.5832,-288.179 -21.5708,-287.763"/>
</g>
<!-- Metamodel::ClassHOW&#45;&gt;Metamodel::BUILDPLAN -->
<g id="edge72" class="edge"><title>Metamodel::ClassHOW&#45;&gt;Metamodel::BUILDPLAN</title>
<path fill="none" stroke="#6666ff" d="M-107.066,-92.6448C-245.665,-98.911 -494.372,-110.155 -640.727,-116.772"/>
<polygon fill="#6666ff" stroke="#6666ff" points="-641.253,-113.292 -651.085,-117.24 -640.937,-120.285 -641.253,-113.292"/>
</g>
<!-- Metamodel::ClassHOW&#45;&gt;Metamodel::BoolificationProtocol -->
<g id="edge74" class="edge"><title>Metamodel::ClassHOW&#45;&gt;Metamodel::BoolificationProtocol</title>
<path fill="none" stroke="#6666ff" d="M-36.7413,-70.8782C-72.6393,-50.6804 -127.341,-19.9027 -127.341,-19.9027 -127.341,-19.9027 -169.659,-5.9902 -169.659,-5.9902 -169.659,-5.9902 -322.513,30.6139 -418.598,53.6236"/>
<polygon fill="#6666ff" stroke="#6666ff" points="-418.036,57.088 -428.576,56.0132 -419.667,50.2805 -418.036,57.088"/>
</g>
<!-- Metamodel::ClassHOW&#45;&gt;Metamodel::C3MRO -->
<g id="edge68" class="edge"><title>Metamodel::ClassHOW&#45;&gt;Metamodel::C3MRO</title>
<path fill="none" stroke="#6666ff" d="M0.948592,-106.041C19.7663,-153.561 69.4295,-278.973 69.4295,-278.973 69.4295,-278.973 144.983,-316.146 144.983,-316.146 144.983,-316.146 142.105,-456.75 140.846,-518.273"/>
<polygon fill="#6666ff" stroke="#6666ff" points="137.343,-518.382 140.638,-528.451 144.342,-518.525 137.343,-518.382"/>
</g>
<!-- Metamodel::ClassHOW&#45;&gt;Metamodel::Finalization -->
<g id="edge61" class="edge"><title>Metamodel::ClassHOW&#45;&gt;Metamodel::Finalization</title>
<path fill="none" stroke="#6666ff" d="M-40.1263,-105.118C-124.17,-147.273 -335.102,-253.074 -335.102,-253.074 -335.102,-253.074 -599.798,-409.935 -700.118,-469.386"/>
<polygon fill="#6666ff" stroke="#6666ff" points="-701.922,-466.386 -708.741,-474.496 -698.353,-472.408 -701.922,-466.386"/>
</g>
<!-- Metamodel::ClassHOW&#45;&gt;Metamodel::DefaultParent -->
<g id="edge67" class="edge"><title>Metamodel::ClassHOW&#45;&gt;Metamodel::DefaultParent</title>
<path fill="none" stroke="#6666ff" d="M-36.7413,-70.8782C-72.6393,-50.6804 -127.341,-19.9027 -127.341,-19.9027 -127.341,-19.9027 -354.071,71.7468 -354.071,71.7468 -354.071,71.7468 -595.465,162.008 -706.175,203.405"/>
<polygon fill="#6666ff" stroke="#6666ff" points="-705.239,206.792 -715.831,207.016 -707.691,200.235 -705.239,206.792"/>
</g>
<!-- Metamodel::ClassHOW&#45;&gt;Metamodel::Trusting -->
<g id="edge71" class="edge"><title>Metamodel::ClassHOW&#45;&gt;Metamodel::Trusting</title>
<path fill="none" stroke="#6666ff" d="M0.948592,-106.041C19.7663,-153.561 69.4295,-278.973 69.4295,-278.973 69.4295,-278.973 144.983,-316.146 144.983,-316.146 144.983,-316.146 316.239,-450.697 387.474,-506.663"/>
<polygon fill="#6666ff" stroke="#6666ff" points="385.621,-509.659 395.647,-513.085 389.946,-504.154 385.621,-509.659"/>
</g>
<!-- Metamodel::ClassHOW&#45;&gt;Metamodel::Mixins -->
<g id="edge73" class="edge"><title>Metamodel::ClassHOW&#45;&gt;Metamodel::Mixins</title>
<path fill="none" stroke="#6666ff" d="M-18.8487,-106.094C-49.0346,-148.952 -122.63,-253.445 -122.63,-253.445 -122.63,-253.445 -184.477,-315.832 -184.477,-315.832 -184.477,-315.832 -158.169,-454.906 -146.56,-516.271"/>
<polygon fill="#6666ff" stroke="#6666ff" points="-149.935,-517.262 -144.637,-526.437 -143.057,-515.961 -149.935,-517.262"/>
</g>
</g>
</svg>
