<?xml version="1.0" encoding="UTF-8" standalone="no"?>
<!DOCTYPE svg PUBLIC "-//W3C//DTD SVG 1.1//EN"
 "http://www.w3.org/Graphics/SVG/1.1/DTD/svg11.dtd">
<!-- Generated by graphviz version 2.38.0 (20140413.2041)
 -->
<!-- Title: perl6&#45;type&#45;graph Pages: 1 -->
<svg width="2525pt" height="1291pt"
 viewBox="0.00 0.00 2525.47 1291.31" xmlns="http://www.w3.org/2000/svg" xmlns:xlink="http://www.w3.org/1999/xlink">
<g id="graph0" class="graph" transform="scale(1 1) rotate(0) translate(1258.69 643.555)">
<title>perl6&#45;type&#45;graph</title>
<polygon fill="white" stroke="none" points="-1258.69,647.755 -1258.69,-643.555 1266.79,-643.555 1266.79,647.755 -1258.69,647.755"/>
<!-- Metamodel::Documenting -->
<g id="node1" class="node"><title>Metamodel::Documenting</title>
<g id="a_node1"><a xlink:href="/type/Metamodel::Documenting" xlink:title="Metamodel::Documenting">
<ellipse fill="none" stroke="#6666ff" cx="638.887" cy="-212.226" rx="111.28" ry="18"/>
<text text-anchor="middle" x="638.887" y="-208.526" font-family="FreeSans" font-size="14.00" fill="#6666ff">Metamodel::Documenting</text>
</a>
</g>
</g>
<!-- Mu -->
<g id="node2" class="node"><title>Mu</title>
<g id="a_node2"><a xlink:href="/type/Mu" xlink:title="Mu">
<ellipse fill="none" stroke="#000000" cx="1148.83" cy="485.342" rx="27" ry="18"/>
<text text-anchor="middle" x="1148.83" y="489.042" font-family="FreeSans" font-size="14.00" fill="#000000">Mu</text>
</a>
</g>
</g>
<!-- Any -->
<g id="node3" class="node"><title>Any</title>
<g id="a_node3"><a xlink:href="/type/Any" xlink:title="Any">
<ellipse fill="none" stroke="#000000" cx="734.715" cy="133.464" rx="27" ry="18"/>
<text text-anchor="middle" x="734.715" y="137.164" font-family="FreeSans" font-size="14.00" fill="#000000">Any</text>
</a>
</g>
</g>
<!-- Any&#45;&gt;Mu -->
<g id="edge1" class="edge"><title>Any&#45;&gt;Mu</title>
<path fill="none" stroke="#000000" d="M751.462,147.694C815.846,202.402 1047.65,399.373 1124.14,464.369"/>
<polygon fill="#000000" stroke="#000000" points="1126.52,461.792 1131.87,470.935 1121.98,467.127 1126.52,461.792"/>
</g>
<!-- Metamodel::Naming -->
<g id="node4" class="node"><title>Metamodel::Naming</title>
<g id="a_node4"><a xlink:href="/type/Metamodel::Naming" xlink:title="Metamodel::Naming">
<ellipse fill="none" stroke="#6666ff" cx="119.313" cy="-311.476" rx="90.1842" ry="18"/>
<text text-anchor="middle" x="119.313" y="-307.776" font-family="FreeSans" font-size="14.00" fill="#6666ff">Metamodel::Naming</text>
</a>
</g>
</g>
<!-- Metamodel::Versioning -->
<g id="node5" class="node"><title>Metamodel::Versioning</title>
<g id="a_node5"><a xlink:href="/type/Metamodel::Versioning" xlink:title="Metamodel::Versioning">
<ellipse fill="none" stroke="#6666ff" cx="1.69621" cy="-76.5543" rx="100.983" ry="18"/>
<text text-anchor="middle" x="1.69621" y="-72.8543" font-family="FreeSans" font-size="14.00" fill="#6666ff">Metamodel::Versioning</text>
</a>
</g>
</g>
<!-- Metamodel::Stashing -->
<g id="node6" class="node"><title>Metamodel::Stashing</title>
<g id="a_node6"><a xlink:href="/type/Metamodel::Stashing" xlink:title="Metamodel::Stashing">
<ellipse fill="none" stroke="#6666ff" cx="328.075" cy="-108.27" rx="93.6835" ry="18"/>
<text text-anchor="middle" x="328.075" y="-104.57" font-family="FreeSans" font-size="14.00" fill="#6666ff">Metamodel::Stashing</text>
</a>
</g>
</g>
<!-- Metamodel::MultipleInheritance -->
<g id="node7" class="node"><title>Metamodel::MultipleInheritance</title>
<g id="a_node7"><a xlink:href="/type/Metamodel::MultipleInheritance" xlink:title="Metamodel::MultipleInheritance">
<ellipse fill="none" stroke="#6666ff" cx="-170.246" cy="98.4973" rx="133.776" ry="18"/>
<text text-anchor="middle" x="-170.246" y="102.197" font-family="FreeSans" font-size="14.00" fill="#6666ff">Metamodel::MultipleInheritance</text>
</a>
</g>
</g>
<!-- Metamodel::C3MRO -->
<g id="node8" class="node"><title>Metamodel::C3MRO</title>
<g id="a_node8"><a xlink:href="/type/Metamodel::C3MRO" xlink:title="Metamodel::C3MRO">
<ellipse fill="none" stroke="#6666ff" cx="373.916" cy="564.53" rx="92.0841" ry="18"/>
<text text-anchor="middle" x="373.916" y="568.23" font-family="FreeSans" font-size="14.00" fill="#6666ff">Metamodel::C3MRO</text>
</a>
</g>
</g>
<!-- Metamodel::MROBasedMethodDispatch -->
<g id="node9" class="node"><title>Metamodel::MROBasedMethodDispatch</title>
<g id="a_node9"><a xlink:href="/type/Metamodel::MROBasedMethodDispatch" xlink:title="Metamodel::MROBasedMethodDispatch">
<ellipse fill="none" stroke="#6666ff" cx="-66.4767" cy="311.08" rx="169.77" ry="18"/>
<text text-anchor="middle" x="-66.4767" y="314.78" font-family="FreeSans" font-size="14.00" fill="#6666ff">Metamodel::MROBasedMethodDispatch</text>
</a>
</g>
</g>
<!-- Metamodel::MROBasedTypeChecking -->
<g id="node10" class="node"><title>Metamodel::MROBasedTypeChecking</title>
<g id="a_node10"><a xlink:href="/type/Metamodel::MROBasedTypeChecking" xlink:title="Metamodel::MROBasedTypeChecking">
<ellipse fill="none" stroke="#6666ff" cx="108.392" cy="566.989" rx="163.271" ry="18"/>
<text text-anchor="middle" x="108.392" y="570.689" font-family="FreeSans" font-size="14.00" fill="#6666ff">Metamodel::MROBasedTypeChecking</text>
</a>
</g>
</g>
<!-- Metamodel::NativeHOW -->
<g id="node11" class="node"><title>Metamodel::NativeHOW</title>
<g id="a_node11"><a xlink:href="/type/Metamodel::NativeHOW" xlink:title="Metamodel::NativeHOW">
<ellipse fill="none" stroke="#000000" cx="429.88" cy="200.484" rx="107.482" ry="18"/>
<text text-anchor="middle" x="429.88" y="204.184" font-family="FreeSans" font-size="14.00" fill="#000000">Metamodel::NativeHOW</text>
</a>
</g>
</g>
<!-- Metamodel::NativeHOW&#45;&gt;Metamodel::Documenting -->
<g id="edge9" class="edge"><title>Metamodel::NativeHOW&#45;&gt;Metamodel::Documenting</title>
<path fill="none" stroke="#6666ff" d="M438.995,182.485C471.997,117.318 585.383,-106.576 625.05,-184.905"/>
<polygon fill="#6666ff" stroke="#6666ff" points="622.083,-186.792 629.723,-194.132 628.328,-183.63 622.083,-186.792"/>
</g>
<!-- Metamodel::NativeHOW&#45;&gt;Any -->
<g id="edge2" class="edge"><title>Metamodel::NativeHOW&#45;&gt;Any</title>
<path fill="none" stroke="#000000" d="M495.275,186.106C557.502,172.426 648.832,152.346 698.794,141.362"/>
<polygon fill="#000000" stroke="#000000" points="698.284,137.89 708.802,139.161 699.787,144.727 698.284,137.89"/>
</g>
<!-- Metamodel::NativeHOW&#45;&gt;Metamodel::Naming -->
<g id="edge8" class="edge"><title>Metamodel::NativeHOW&#45;&gt;Metamodel::Naming</title>
<path fill="none" stroke="#6666ff" d="M418.437,182.55C376.393,116.658 232.883,-108.253 232.883,-108.253 232.883,-108.253 165.24,-229.295 134.361,-284.548"/>
<polygon fill="#6666ff" stroke="#6666ff" points="131.215,-283.004 129.392,-293.441 137.325,-286.419 131.215,-283.004"/>
</g>
<!-- Metamodel::NativeHOW&#45;&gt;Metamodel::Versioning -->
<g id="edge10" class="edge"><title>Metamodel::NativeHOW&#45;&gt;Metamodel::Versioning</title>
<path fill="none" stroke="#6666ff" d="M402.77,182.944C328.363,134.801 120.951,0.604518 37.3234,-53.5033"/>
<polygon fill="#6666ff" stroke="#6666ff" points="35.182,-50.72 28.6873,-59.0909 38.9845,-56.5972 35.182,-50.72"/>
</g>
<!-- Metamodel::NativeHOW&#45;&gt;Metamodel::Stashing -->
<g id="edge11" class="edge"><title>Metamodel::NativeHOW&#45;&gt;Metamodel::Stashing</title>
<path fill="none" stroke="#6666ff" d="M423.817,182.095C406.664,130.076 357.72,-18.3624 337.25,-80.4436"/>
<polygon fill="#6666ff" stroke="#6666ff" points="333.914,-79.3842 334.107,-89.9773 340.562,-81.5763 333.914,-79.3842"/>
</g>
<!-- Metamodel::NativeHOW&#45;&gt;Metamodel::MultipleInheritance -->
<g id="edge12" class="edge"><title>Metamodel::NativeHOW&#45;&gt;Metamodel::MultipleInheritance</title>
<path fill="none" stroke="#6666ff" d="M356.86,187.286C307.395,178.345 250.988,168.15 250.988,168.15 250.988,168.15 48.33,134.64 -75.8517,114.106"/>
<polygon fill="#6666ff" stroke="#6666ff" points="-76.4674,117.552 -85.7624,112.467 -75.3253,110.645 -76.4674,117.552"/>
</g>
<!-- Metamodel::NativeHOW&#45;&gt;Metamodel::C3MRO -->
<g id="edge13" class="edge"><title>Metamodel::NativeHOW&#45;&gt;Metamodel::C3MRO</title>
<path fill="none" stroke="#6666ff" d="M427.105,218.537C418.042,277.49 389.267,464.668 378.258,536.285"/>
<polygon fill="#6666ff" stroke="#6666ff" points="381.687,537.016 376.708,546.368 374.768,535.953 381.687,537.016"/>
</g>
<!-- Metamodel::NativeHOW&#45;&gt;Metamodel::MROBasedMethodDispatch -->
<g id="edge14" class="edge"><title>Metamodel::NativeHOW&#45;&gt;Metamodel::MROBasedMethodDispatch</title>
<path fill="none" stroke="#6666ff" d="M365.245,214.886C275.897,234.794 114.593,270.735 16.4607,292.6"/>
<polygon fill="#6666ff" stroke="#6666ff" points="17.1009,296.043 6.57903,294.802 15.5785,289.211 17.1009,296.043"/>
</g>
<!-- Metamodel::NativeHOW&#45;&gt;Metamodel::MROBasedTypeChecking -->
<g id="edge15" class="edge"><title>Metamodel::NativeHOW&#45;&gt;Metamodel::MROBasedTypeChecking</title>
<path fill="none" stroke="#6666ff" d="M414.156,218.409C361.718,278.191 192.664,470.918 131.093,541.11"/>
<polygon fill="#6666ff" stroke="#6666ff" points="133.691,543.456 124.466,548.665 128.429,538.84 133.691,543.456"/>
</g>
<!-- Metamodel::SubsetHOW -->
<g id="node12" class="node"><title>Metamodel::SubsetHOW</title>
<g id="a_node12"><a xlink:href="/type/Metamodel::SubsetHOW" xlink:title="Metamodel::SubsetHOW">
<ellipse fill="none" stroke="#000000" cx="645.53" cy="-584.338" rx="109.381" ry="18"/>
<text text-anchor="middle" x="645.53" y="-580.638" font-family="FreeSans" font-size="14.00" fill="#000000">Metamodel::SubsetHOW</text>
</a>
</g>
</g>
<!-- Metamodel::SubsetHOW&#45;&gt;Metamodel::Documenting -->
<g id="edge17" class="edge"><title>Metamodel::SubsetHOW&#45;&gt;Metamodel::Documenting</title>
<path fill="none" stroke="#6666ff" d="M645.206,-566.138C644.133,-506.042 640.697,-313.622 639.394,-240.65"/>
<polygon fill="#6666ff" stroke="#6666ff" points="642.889,-240.326 639.211,-230.391 635.89,-240.451 642.889,-240.326"/>
</g>
<!-- Metamodel::SubsetHOW&#45;&gt;Any -->
<g id="edge3" class="edge"><title>Metamodel::SubsetHOW&#45;&gt;Any</title>
<path fill="none" stroke="#000000" d="M650.719,-566.144C672.02,-491.456 751.625,-212.332 751.625,-212.332 751.625,-212.332 740.135,22.6365 736.098,105.196"/>
<polygon fill="#000000" stroke="#000000" points="739.585,105.542 735.601,115.359 732.593,105.2 739.585,105.542"/>
</g>
<!-- Metamodel::SubsetHOW&#45;&gt;Metamodel::Naming -->
<g id="edge16" class="edge"><title>Metamodel::SubsetHOW&#45;&gt;Metamodel::Naming</title>
<path fill="none" stroke="#6666ff" d="M612.214,-567.062C520.089,-519.292 262.061,-385.496 160.824,-333.001"/>
<polygon fill="#6666ff" stroke="#6666ff" points="162.299,-329.823 151.81,-328.327 159.077,-336.037 162.299,-329.823"/>
</g>
<!-- Metamodel::TypePretense -->
<g id="node13" class="node"><title>Metamodel::TypePretense</title>
<g id="a_node13"><a xlink:href="/type/Metamodel::TypePretense" xlink:title="Metamodel::TypePretense">
<ellipse fill="none" stroke="#6666ff" cx="-91.0978" cy="-621.555" rx="114.28" ry="18"/>
<text text-anchor="middle" x="-91.0978" y="-617.855" font-family="FreeSans" font-size="14.00" fill="#6666ff">Metamodel::TypePretense</text>
</a>
</g>
</g>
<!-- Metamodel::MethodDelegation -->
<g id="node14" class="node"><title>Metamodel::MethodDelegation</title>
<g id="a_node14"><a xlink:href="/type/Metamodel::MethodDelegation" xlink:title="Metamodel::MethodDelegation">
<ellipse fill="none" stroke="#6666ff" cx="1126.3" cy="-520.567" rx="131.077" ry="18"/>
<text text-anchor="middle" x="1126.3" y="-516.867" font-family="FreeSans" font-size="14.00" fill="#6666ff">Metamodel::MethodDelegation</text>
</a>
</g>
</g>
<!-- Metamodel::ModuleHOW -->
<g id="node15" class="node"><title>Metamodel::ModuleHOW</title>
<g id="a_node15"><a xlink:href="/type/Metamodel::ModuleHOW" xlink:title="Metamodel::ModuleHOW">
<ellipse fill="none" stroke="#000000" cx="287.947" cy="-576.617" rx="111.28" ry="18"/>
<text text-anchor="middle" x="287.947" y="-572.917" font-family="FreeSans" font-size="14.00" fill="#000000">Metamodel::ModuleHOW</text>
</a>
</g>
</g>
<!-- Metamodel::ModuleHOW&#45;&gt;Metamodel::Documenting -->
<g id="edge19" class="edge"><title>Metamodel::ModuleHOW&#45;&gt;Metamodel::Documenting</title>
<path fill="none" stroke="#6666ff" d="M305.111,-558.795C362.486,-499.221 547.75,-306.856 614.572,-237.473"/>
<polygon fill="#6666ff" stroke="#6666ff" points="617.34,-239.644 621.756,-230.014 612.298,-234.789 617.34,-239.644"/>
</g>
<!-- Metamodel::ModuleHOW&#45;&gt;Any -->
<g id="edge4" class="edge"><title>Metamodel::ModuleHOW&#45;&gt;Any</title>
<path fill="none" stroke="#000000" d="M299.214,-558.709C359.83,-462.367 647.076,-5.82778 718.571,107.805"/>
<polygon fill="#000000" stroke="#000000" points="721.717,106.232 724.08,116.56 715.792,109.96 721.717,106.232"/>
</g>
<!-- Metamodel::ModuleHOW&#45;&gt;Metamodel::Naming -->
<g id="edge18" class="edge"><title>Metamodel::ModuleHOW&#45;&gt;Metamodel::Naming</title>
<path fill="none" stroke="#6666ff" d="M276.356,-558.393C247.163,-512.494 170.508,-391.969 136.262,-338.125"/>
<polygon fill="#6666ff" stroke="#6666ff" points="139.082,-336.037 130.762,-329.477 133.175,-339.793 139.082,-336.037"/>
</g>
<!-- Metamodel::ModuleHOW&#45;&gt;Metamodel::Versioning -->
<g id="edge20" class="edge"><title>Metamodel::ModuleHOW&#45;&gt;Metamodel::Versioning</title>
<path fill="none" stroke="#6666ff" d="M282.675,-558.4C265.348,-498.519 211.254,-311.576 211.254,-311.576 211.254,-311.576 79.0045,-163.256 24.6263,-102.271"/>
<polygon fill="#6666ff" stroke="#6666ff" points="27.0594,-99.7404 17.7919,-94.6058 21.8347,-104.399 27.0594,-99.7404"/>
</g>
<!-- Metamodel::ModuleHOW&#45;&gt;Metamodel::Stashing -->
<g id="edge21" class="edge"><title>Metamodel::ModuleHOW&#45;&gt;Metamodel::Stashing</title>
<path fill="none" stroke="#6666ff" d="M289.495,-558.544C295.621,-487.046 318.191,-223.628 325.658,-136.476"/>
<polygon fill="#6666ff" stroke="#6666ff" points="329.165,-136.552 326.531,-126.289 322.19,-135.954 329.165,-136.552"/>
</g>
<!-- Metamodel::ModuleHOW&#45;&gt;Metamodel::TypePretense -->
<g id="edge22" class="edge"><title>Metamodel::ModuleHOW&#45;&gt;Metamodel::TypePretense</title>
<path fill="none" stroke="#6666ff" d="M198.118,-587.267C141.724,-593.953 68.867,-602.59 10.3873,-609.524"/>
<polygon fill="#6666ff" stroke="#6666ff" points="9.90668,-606.056 0.388323,-610.709 10.7309,-613.007 9.90668,-606.056"/>
</g>
<!-- Metamodel::ModuleHOW&#45;&gt;Metamodel::MethodDelegation -->
<g id="edge23" class="edge"><title>Metamodel::ModuleHOW&#45;&gt;Metamodel::MethodDelegation</title>
<path fill="none" stroke="#6666ff" d="M390.745,-569.744C543.743,-559.515 831.184,-540.297 997.834,-529.156"/>
<polygon fill="#6666ff" stroke="#6666ff" points="998.396,-532.626 1008.14,-528.467 997.929,-525.642 998.396,-532.626"/>
</g>
<!-- Metamodel::PackageHOW -->
<g id="node16" class="node"><title>Metamodel::PackageHOW</title>
<g id="a_node16"><a xlink:href="/type/Metamodel::PackageHOW" xlink:title="Metamodel::PackageHOW">
<ellipse fill="none" stroke="#000000" cx="1146.45" cy="-34.5832" rx="116.18" ry="18"/>
<text text-anchor="middle" x="1146.45" y="-30.8832" font-family="FreeSans" font-size="14.00" fill="#000000">Metamodel::PackageHOW</text>
</a>
</g>
</g>
<!-- Metamodel::PackageHOW&#45;&gt;Metamodel::Documenting -->
<g id="edge25" class="edge"><title>Metamodel::PackageHOW&#45;&gt;Metamodel::Documenting</title>
<path fill="none" stroke="#6666ff" d="M1099.15,-51.1358C1005.44,-83.9367 796.501,-157.062 695.59,-192.38"/>
<polygon fill="#6666ff" stroke="#6666ff" points="694.16,-189.173 685.877,-195.78 696.472,-195.78 694.16,-189.173"/>
</g>
<!-- Metamodel::PackageHOW&#45;&gt;Any -->
<g id="edge5" class="edge"><title>Metamodel::PackageHOW&#45;&gt;Any</title>
<path fill="none" stroke="#000000" d="M1105.08,-17.7007C1023.12,15.7544 841.58,89.8475 767.33,120.152"/>
<polygon fill="#000000" stroke="#000000" points="768.578,123.424 757.997,123.962 765.933,116.943 768.578,123.424"/>
</g>
<!-- Metamodel::PackageHOW&#45;&gt;Metamodel::Naming -->
<g id="edge24" class="edge"><title>Metamodel::PackageHOW&#45;&gt;Metamodel::Naming</title>
<path fill="none" stroke="#6666ff" d="M1088.28,-50.2635C909.511,-98.4562 368.992,-244.168 182.997,-294.308"/>
<polygon fill="#6666ff" stroke="#6666ff" points="181.84,-290.995 173.096,-296.977 183.662,-297.754 181.84,-290.995"/>
</g>
<!-- Metamodel::PackageHOW&#45;&gt;Metamodel::Stashing -->
<g id="edge26" class="edge"><title>Metamodel::PackageHOW&#45;&gt;Metamodel::Stashing</title>
<path fill="none" stroke="#6666ff" d="M1045.69,-43.6556C886.411,-57.9972 578.606,-85.7122 423.026,-99.7208"/>
<polygon fill="#6666ff" stroke="#6666ff" points="422.647,-96.2407 413.001,-100.623 423.275,-103.212 422.647,-96.2407"/>
</g>
<!-- Metamodel::PackageHOW&#45;&gt;Metamodel::TypePretense -->
<g id="edge27" class="edge"><title>Metamodel::PackageHOW&#45;&gt;Metamodel::TypePretense</title>
<path fill="none" stroke="#6666ff" d="M1110.08,-51.8322C931.842,-136.372 151.181,-506.642 -45.8232,-600.081"/>
<polygon fill="#6666ff" stroke="#6666ff" points="-47.4922,-596.999 -55.0275,-604.447 -44.4924,-603.324 -47.4922,-596.999"/>
</g>
<!-- Metamodel::PackageHOW&#45;&gt;Metamodel::MethodDelegation -->
<g id="edge28" class="edge"><title>Metamodel::PackageHOW&#45;&gt;Metamodel::MethodDelegation</title>
<path fill="none" stroke="#6666ff" d="M1145.7,-52.7473C1142.65,-126.275 1131.21,-402.176 1127.48,-492.063"/>
<polygon fill="#6666ff" stroke="#6666ff" points="1123.97,-492.175 1127.05,-502.311 1130.97,-492.465 1123.97,-492.175"/>
</g>
<!-- Metamodel::MethodContainer -->
<g id="node17" class="node"><title>Metamodel::MethodContainer</title>
<g id="a_node17"><a xlink:href="/type/Metamodel::MethodContainer" xlink:title="Metamodel::MethodContainer">
<ellipse fill="none" stroke="#6666ff" cx="159.958" cy="182.036" rx="127.277" ry="18"/>
<text text-anchor="middle" x="159.958" y="185.736" font-family="FreeSans" font-size="14.00" fill="#6666ff">Metamodel::MethodContainer</text>
</a>
</g>
</g>
<!-- Metamodel::PrivateMethodContainer -->
<g id="node18" class="node"><title>Metamodel::PrivateMethodContainer</title>
<g id="a_node18"><a xlink:href="/type/Metamodel::PrivateMethodContainer" xlink:title="Metamodel::PrivateMethodContainer">
<ellipse fill="none" stroke="#6666ff" cx="-1066.68" cy="-538.266" rx="154.873" ry="18"/>
<text text-anchor="middle" x="-1066.68" y="-534.566" font-family="FreeSans" font-size="14.00" fill="#6666ff">Metamodel::PrivateMethodContainer</text>
</a>
</g>
</g>
<!-- Metamodel::MultiMethodContainer -->
<g id="node19" class="node"><title>Metamodel::MultiMethodContainer</title>
<g id="a_node19"><a xlink:href="/type/Metamodel::MultiMethodContainer" xlink:title="Metamodel::MultiMethodContainer">
<ellipse fill="none" stroke="#6666ff" cx="-729.512" cy="161.249" rx="146.474" ry="18"/>
<text text-anchor="middle" x="-729.512" y="164.949" font-family="FreeSans" font-size="14.00" fill="#6666ff">Metamodel::MultiMethodContainer</text>
</a>
</g>
</g>
<!-- Metamodel::AttributeContainer -->
<g id="node20" class="node"><title>Metamodel::AttributeContainer</title>
<g id="a_node20"><a xlink:href="/type/Metamodel::AttributeContainer" xlink:title="Metamodel::AttributeContainer">
<ellipse fill="none" stroke="#6666ff" cx="-1124.7" cy="-44.3894" rx="129.977" ry="18"/>
<text text-anchor="middle" x="-1124.7" y="-40.6894" font-family="FreeSans" font-size="14.00" fill="#6666ff">Metamodel::AttributeContainer</text>
</a>
</g>
</g>
<!-- Metamodel::RoleContainer -->
<g id="node21" class="node"><title>Metamodel::RoleContainer</title>
<g id="a_node21"><a xlink:href="/type/Metamodel::RoleContainer" xlink:title="Metamodel::RoleContainer">
<ellipse fill="none" stroke="#6666ff" cx="-439.474" cy="128.431" rx="115.88" ry="18"/>
<text text-anchor="middle" x="-439.474" y="132.131" font-family="FreeSans" font-size="14.00" fill="#6666ff">Metamodel::RoleContainer</text>
</a>
</g>
</g>
<!-- Metamodel::RolePunning -->
<g id="node22" class="node"><title>Metamodel::RolePunning</title>
<g id="a_node22"><a xlink:href="/type/Metamodel::RolePunning" xlink:title="Metamodel::RolePunning">
<ellipse fill="none" stroke="#6666ff" cx="-523.696" cy="-590.223" rx="109.681" ry="18"/>
<text text-anchor="middle" x="-523.696" y="-586.523" font-family="FreeSans" font-size="14.00" fill="#6666ff">Metamodel::RolePunning</text>
</a>
</g>
</g>
<!-- Metamodel::ParametricRoleHOW -->
<g id="node23" class="node"><title>Metamodel::ParametricRoleHOW</title>
<g id="a_node23"><a xlink:href="/type/Metamodel::ParametricRoleHOW" xlink:title="Metamodel::ParametricRoleHOW">
<ellipse fill="none" stroke="#000000" cx="-213.942" cy="-335.02" rx="142.175" ry="18"/>
<text text-anchor="middle" x="-213.942" y="-331.32" font-family="FreeSans" font-size="14.00" fill="#000000">Metamodel::ParametricRoleHOW</text>
</a>
</g>
</g>
<!-- Metamodel::ParametricRoleHOW&#45;&gt;Metamodel::Documenting -->
<g id="edge30" class="edge"><title>Metamodel::ParametricRoleHOW&#45;&gt;Metamodel::Documenting</title>
<path fill="none" stroke="#6666ff" d="M-119.826,-321.468C44.4873,-297.81 381.753,-249.249 545.531,-225.668"/>
<polygon fill="#6666ff" stroke="#6666ff" points="546.187,-229.109 555.586,-224.22 545.19,-222.181 546.187,-229.109"/>
</g>
<!-- Metamodel::ParametricRoleHOW&#45;&gt;Any -->
<g id="edge6" class="edge"><title>Metamodel::ParametricRoleHOW&#45;&gt;Any</title>
<path fill="none" stroke="#000000" d="M-179.252,-317.414C-74.2684,-264.135 232.883,-108.253 232.883,-108.253 232.883,-108.253 260.824,-94.3987 260.824,-94.3987 260.824,-94.3987 598.215,67.8299 703.632,118.518"/>
<polygon fill="#000000" stroke="#000000" points="705.313,115.443 712.809,122.931 702.28,121.752 705.313,115.443"/>
</g>
<!-- Metamodel::ParametricRoleHOW&#45;&gt;Metamodel::Naming -->
<g id="edge29" class="edge"><title>Metamodel::ParametricRoleHOW&#45;&gt;Metamodel::Naming</title>
<path fill="none" stroke="#6666ff" d="M-89.376,-326.219C-51.937,-323.574 -11.4666,-320.715 23.7802,-318.225"/>
<polygon fill="#6666ff" stroke="#6666ff" points="24.329,-321.695 34.0574,-317.499 23.8356,-314.713 24.329,-321.695"/>
</g>
<!-- Metamodel::ParametricRoleHOW&#45;&gt;Metamodel::Versioning -->
<g id="edge31" class="edge"><title>Metamodel::ParametricRoleHOW&#45;&gt;Metamodel::Versioning</title>
<path fill="none" stroke="#6666ff" d="M-198.778,-316.845C-161.105,-271.689 -63.162,-154.294 -19.6607,-102.153"/>
<polygon fill="#6666ff" stroke="#6666ff" points="-16.8827,-104.287 -13.164,-94.3659 -22.2577,-99.8023 -16.8827,-104.287"/>
</g>
<!-- Metamodel::ParametricRoleHOW&#45;&gt;Metamodel::Stashing -->
<g id="edge38" class="edge"><title>Metamodel::ParametricRoleHOW&#45;&gt;Metamodel::Stashing</title>
<path fill="none" stroke="#6666ff" d="M-172.311,-317.604C-73.6321,-276.322 174.079,-172.693 279.432,-128.62"/>
<polygon fill="#6666ff" stroke="#6666ff" points="280.999,-131.758 288.874,-124.67 278.298,-125.3 280.999,-131.758"/>
</g>
<!-- Metamodel::ParametricRoleHOW&#45;&gt;Metamodel::MultipleInheritance -->
<g id="edge37" class="edge"><title>Metamodel::ParametricRoleHOW&#45;&gt;Metamodel::MultipleInheritance</title>
<path fill="none" stroke="#6666ff" d="M-212.12,-316.944C-205.318,-249.465 -181.38,-11.9684 -173.094,70.24"/>
<polygon fill="#6666ff" stroke="#6666ff" points="-169.596,70.0438 -172.075,80.3444 -176.561,70.7459 -169.596,70.0438"/>
</g>
<!-- Metamodel::ParametricRoleHOW&#45;&gt;Metamodel::TypePretense -->
<g id="edge39" class="edge"><title>Metamodel::ParametricRoleHOW&#45;&gt;Metamodel::TypePretense</title>
<path fill="none" stroke="#6666ff" d="M-206.07,-353.38C-185.096,-402.304 -127.766,-536.026 -102.883,-594.066"/>
<polygon fill="#6666ff" stroke="#6666ff" points="-106.061,-595.536 -98.9035,-603.348 -99.6271,-592.778 -106.061,-595.536"/>
</g>
<!-- Metamodel::ParametricRoleHOW&#45;&gt;Metamodel::MethodContainer -->
<g id="edge32" class="edge"><title>Metamodel::ParametricRoleHOW&#45;&gt;Metamodel::MethodContainer</title>
<path fill="none" stroke="#6666ff" d="M-205.975,-316.842C-180.186,-258.001 -100.645,-76.5145 -100.645,-76.5145 -100.645,-76.5145 68.9872,91.7817 134.534,156.812"/>
<polygon fill="#6666ff" stroke="#6666ff" points="136.999,154.328 141.633,163.855 132.069,159.297 136.999,154.328"/>
</g>
<!-- Metamodel::ParametricRoleHOW&#45;&gt;Metamodel::PrivateMethodContainer -->
<g id="edge33" class="edge"><title>Metamodel::ParametricRoleHOW&#45;&gt;Metamodel::PrivateMethodContainer</title>
<path fill="none" stroke="#6666ff" d="M-280.855,-350.968C-436.512,-388.068 -822.267,-480.011 -988.456,-519.622"/>
<polygon fill="#6666ff" stroke="#6666ff" points="-989.686,-516.317 -998.602,-522.04 -988.063,-523.126 -989.686,-516.317"/>
</g>
<!-- Metamodel::ParametricRoleHOW&#45;&gt;Metamodel::MultiMethodContainer -->
<g id="edge34" class="edge"><title>Metamodel::ParametricRoleHOW&#45;&gt;Metamodel::MultiMethodContainer</title>
<path fill="none" stroke="#6666ff" d="M-234.465,-317.063C-291.862,-266.843 -449.858,-128.605 -449.858,-128.605 -449.858,-128.605 -636.915,65.2752 -705.058,135.903"/>
<polygon fill="#6666ff" stroke="#6666ff" points="-702.556,138.351 -712.019,143.118 -707.594,133.491 -702.556,138.351"/>
</g>
<!-- Metamodel::ParametricRoleHOW&#45;&gt;Metamodel::AttributeContainer -->
<g id="edge35" class="edge"><title>Metamodel::ParametricRoleHOW&#45;&gt;Metamodel::AttributeContainer</title>
<path fill="none" stroke="#6666ff" d="M-263.165,-318.067C-363.996,-283.341 -584.617,-207.358 -584.617,-207.358 -584.617,-207.358 -917.321,-106.965 -1060.47,-63.7706"/>
<polygon fill="#6666ff" stroke="#6666ff" points="-1059.85,-60.2998 -1070.44,-60.7617 -1061.88,-67.0014 -1059.85,-60.2998"/>
</g>
<!-- Metamodel::ParametricRoleHOW&#45;&gt;Metamodel::RoleContainer -->
<g id="edge36" class="edge"><title>Metamodel::ParametricRoleHOW&#45;&gt;Metamodel::RoleContainer</title>
<path fill="none" stroke="#6666ff" d="M-216.137,-316.715C-222.191,-266.232 -238.678,-128.749 -238.678,-128.749 -238.678,-128.749 -367.795,36.6239 -418.954,102.149"/>
<polygon fill="#6666ff" stroke="#6666ff" points="-416.442,104.619 -425.355,110.347 -421.959,100.311 -416.442,104.619"/>
</g>
<!-- Metamodel::ParametricRoleHOW&#45;&gt;Metamodel::RolePunning -->
<g id="edge40" class="edge"><title>Metamodel::ParametricRoleHOW&#45;&gt;Metamodel::RolePunning</title>
<path fill="none" stroke="#6666ff" d="M-235.723,-352.965C-290.153,-397.809 -432.163,-514.811 -494.096,-565.836"/>
<polygon fill="#6666ff" stroke="#6666ff" points="-496.446,-563.238 -501.938,-572.298 -491.995,-568.64 -496.446,-563.238"/>
</g>
<!-- Metamodel::Finalization -->
<g id="node24" class="node"><title>Metamodel::Finalization</title>
<g id="a_node24"><a xlink:href="/type/Metamodel::Finalization" xlink:title="Metamodel::Finalization">
<ellipse fill="none" stroke="#6666ff" cx="-659.878" cy="-221.106" rx="103.982" ry="18"/>
<text text-anchor="middle" x="-659.878" y="-217.406" font-family="FreeSans" font-size="14.00" fill="#6666ff">Metamodel::Finalization</text>
</a>
</g>
</g>
<!-- Metamodel::DefaultParent -->
<g id="node25" class="node"><title>Metamodel::DefaultParent</title>
<g id="a_node25"><a xlink:href="/type/Metamodel::DefaultParent" xlink:title="Metamodel::DefaultParent">
<ellipse fill="none" stroke="#6666ff" cx="-1109.07" cy="489.385" rx="113.18" ry="18"/>
<text text-anchor="middle" x="-1109.07" y="493.085" font-family="FreeSans" font-size="14.00" fill="#6666ff">Metamodel::DefaultParent</text>
</a>
</g>
</g>
<!-- Metamodel::Trusting -->
<g id="node26" class="node"><title>Metamodel::Trusting</title>
<g id="a_node26"><a xlink:href="/type/Metamodel::Trusting" xlink:title="Metamodel::Trusting">
<ellipse fill="none" stroke="#6666ff" cx="-199.674" cy="625.755" rx="91.784" ry="18"/>
<text text-anchor="middle" x="-199.674" y="629.455" font-family="FreeSans" font-size="14.00" fill="#6666ff">Metamodel::Trusting</text>
</a>
</g>
</g>
<!-- Metamodel::BUILDPLAN -->
<g id="node27" class="node"><title>Metamodel::BUILDPLAN</title>
<g id="a_node27"><a xlink:href="/type/Metamodel::BUILDPLAN" xlink:title="Metamodel::BUILDPLAN">
<ellipse fill="none" stroke="#6666ff" cx="698.262" cy="551.936" rx="109.681" ry="18"/>
<text text-anchor="middle" x="698.262" y="555.636" font-family="FreeSans" font-size="14.00" fill="#6666ff">Metamodel::BUILDPLAN</text>
</a>
</g>
</g>
<!-- Metamodel::Mixins -->
<g id="node28" class="node"><title>Metamodel::Mixins</title>
<g id="a_node28"><a xlink:href="/type/Metamodel::Mixins" xlink:title="Metamodel::Mixins">
<ellipse fill="none" stroke="#6666ff" cx="-636.41" cy="576.018" rx="85.2851" ry="18"/>
<text text-anchor="middle" x="-636.41" y="579.718" font-family="FreeSans" font-size="14.00" fill="#6666ff">Metamodel::Mixins</text>
</a>
</g>
</g>
<!-- Metamodel::BoolificationProtocol -->
<g id="node29" class="node"><title>Metamodel::BoolificationProtocol</title>
<g id="a_node29"><a xlink:href="/type/Metamodel::BoolificationProtocol" xlink:title="Metamodel::BoolificationProtocol">
<ellipse fill="none" stroke="#6666ff" cx="-360.313" cy="391.786" rx="139.175" ry="18"/>
<text text-anchor="middle" x="-360.313" y="395.486" font-family="FreeSans" font-size="14.00" fill="#6666ff">Metamodel::BoolificationProtocol</text>
</a>
</g>
</g>
<!-- Metamodel::ClassHOW -->
<g id="node30" class="node"><title>Metamodel::ClassHOW</title>
<g id="a_node30"><a xlink:href="/type/Metamodel::ClassHOW" xlink:title="Metamodel::ClassHOW">
<ellipse fill="none" stroke="#000000" cx="-344.268" cy="-128.677" rx="103.982" ry="18"/>
<text text-anchor="middle" x="-344.268" y="-124.977" font-family="FreeSans" font-size="14.00" fill="#000000">Metamodel::ClassHOW</text>
</a>
</g>
</g>
<!-- Metamodel::ClassHOW&#45;&gt;Metamodel::Documenting -->
<g id="edge42" class="edge"><title>Metamodel::ClassHOW&#45;&gt;Metamodel::Documenting</title>
<path fill="none" stroke="#6666ff" d="M-250.889,-136.612C-68.1818,-152.139 335.651,-186.457 530.089,-202.98"/>
<polygon fill="#6666ff" stroke="#6666ff" points="530.062,-206.491 540.322,-203.85 530.655,-199.516 530.062,-206.491"/>
</g>
<!-- Metamodel::ClassHOW&#45;&gt;Any -->
<g id="edge7" class="edge"><title>Metamodel::ClassHOW&#45;&gt;Any</title>
<path fill="none" stroke="#000000" d="M-283.556,-113.927C-84.8454,-65.6497 542.322,86.7218 698.983,124.783"/>
<polygon fill="#000000" stroke="#000000" points="700.135,121.461 709.026,127.223 698.482,128.263 700.135,121.461"/>
</g>
<!-- Metamodel::ClassHOW&#45;&gt;Metamodel::Naming -->
<g id="edge41" class="edge"><title>Metamodel::ClassHOW&#45;&gt;Metamodel::Naming</title>
<path fill="none" stroke="#6666ff" d="M-302.311,-145.222C-216.852,-178.92 -22.9305,-255.387 69.0726,-291.665"/>
<polygon fill="#6666ff" stroke="#6666ff" points="67.8613,-294.95 78.4481,-295.362 70.4291,-288.438 67.8613,-294.95"/>
</g>
<!-- Metamodel::ClassHOW&#45;&gt;Metamodel::Versioning -->
<g id="edge43" class="edge"><title>Metamodel::ClassHOW&#45;&gt;Metamodel::Versioning</title>
<path fill="none" stroke="#6666ff" d="M-265.763,-116.85C-212.18,-108.777 -141.151,-98.0755 -85.7569,-89.7299"/>
<polygon fill="#6666ff" stroke="#6666ff" points="-84.9704,-93.151 -75.6034,-88.2002 -86.0133,-86.2291 -84.9704,-93.151"/>
</g>
<!-- Metamodel::ClassHOW&#45;&gt;Metamodel::Stashing -->
<g id="edge44" class="edge"><title>Metamodel::ClassHOW&#45;&gt;Metamodel::Stashing</title>
<path fill="none" stroke="#6666ff" d="M-241.788,-125.567C-115.265,-121.726 98.6674,-115.233 225.318,-111.389"/>
<polygon fill="#6666ff" stroke="#6666ff" points="225.523,-114.885 235.412,-111.083 225.31,-107.888 225.523,-114.885"/>
</g>
<!-- Metamodel::ClassHOW&#45;&gt;Metamodel::MultipleInheritance -->
<g id="edge51" class="edge"><title>Metamodel::ClassHOW&#45;&gt;Metamodel::MultipleInheritance</title>
<path fill="none" stroke="#6666ff" d="M-330.321,-110.47C-299.57,-70.3271 -225.851,25.9081 -190.21,72.435"/>
<polygon fill="#6666ff" stroke="#6666ff" points="-187.32,70.4524 -184.017,80.5194 -192.877,74.7092 -187.32,70.4524"/>
</g>
<!-- Metamodel::ClassHOW&#45;&gt;Metamodel::C3MRO -->
<g id="edge53" class="edge"><title>Metamodel::ClassHOW&#45;&gt;Metamodel::C3MRO</title>
<path fill="none" stroke="#6666ff" d="M-320.239,-111.044C-247.518,-57.6816 -34.7581,98.4423 -34.7581,98.4423 -34.7581,98.4423 30.9695,182.075 30.9695,182.075 30.9695,182.075 274.094,453.209 350.932,538.898"/>
<polygon fill="#6666ff" stroke="#6666ff" points="353.764,536.815 357.835,546.597 348.553,541.488 353.764,536.815"/>
</g>
<!-- Metamodel::ClassHOW&#45;&gt;Metamodel::MROBasedMethodDispatch -->
<g id="edge54" class="edge"><title>Metamodel::ClassHOW&#45;&gt;Metamodel::MROBasedMethodDispatch</title>
<path fill="none" stroke="#6666ff" d="M-341.18,-110.466C-332.036,-56.5453 -305.733,98.5524 -305.733,98.5524 -305.733,98.5524 -157.671,230.074 -94.4973,286.19"/>
<polygon fill="#6666ff" stroke="#6666ff" points="-92.0276,283.702 -86.8756,292.96 -96.6764,288.935 -92.0276,283.702"/>
</g>
<!-- Metamodel::ClassHOW&#45;&gt;Metamodel::MROBasedTypeChecking -->
<g id="edge55" class="edge"><title>Metamodel::ClassHOW&#45;&gt;Metamodel::MROBasedTypeChecking</title>
<path fill="none" stroke="#6666ff" d="M-341.18,-110.466C-332.036,-56.5453 -305.733,98.5524 -305.733,98.5524 -305.733,98.5524 -237.707,311.229 -237.707,311.229 -237.707,311.229 -10.1329,479.402 75.9409,543.008"/>
<polygon fill="#6666ff" stroke="#6666ff" points="78.093,540.247 84.0552,549.005 73.9328,545.876 78.093,540.247"/>
</g>
<!-- Metamodel::ClassHOW&#45;&gt;Metamodel::MethodContainer -->
<g id="edge47" class="edge"><title>Metamodel::ClassHOW&#45;&gt;Metamodel::MethodContainer</title>
<path fill="none" stroke="#6666ff" d="M-316.078,-111.306C-230.503,-58.5726 26.3133,99.682 122.787,159.131"/>
<polygon fill="#6666ff" stroke="#6666ff" points="124.666,156.178 131.344,164.404 120.994,162.137 124.666,156.178"/>
</g>
<!-- Metamodel::ClassHOW&#45;&gt;Metamodel::PrivateMethodContainer -->
<g id="edge48" class="edge"><title>Metamodel::ClassHOW&#45;&gt;Metamodel::PrivateMethodContainer</title>
<path fill="none" stroke="#6666ff" d="M-374.848,-146.015C-489.849,-211.218 -896.433,-441.74 -1026.41,-515.434"/>
<polygon fill="#6666ff" stroke="#6666ff" points="-1028.31,-512.487 -1035.28,-520.464 -1024.86,-518.577 -1028.31,-512.487"/>
</g>
<!-- Metamodel::ClassHOW&#45;&gt;Metamodel::MultiMethodContainer -->
<g id="edge49" class="edge"><title>Metamodel::ClassHOW&#45;&gt;Metamodel::MultiMethodContainer</title>
<path fill="none" stroke="#6666ff" d="M-367.787,-110.977C-434.011,-61.1386 -622.124,80.4313 -697.6,137.233"/>
<polygon fill="#6666ff" stroke="#6666ff" points="-695.717,140.196 -705.812,143.413 -699.926,134.603 -695.717,140.196"/>
</g>
<!-- Metamodel::ClassHOW&#45;&gt;Metamodel::AttributeContainer -->
<g id="edge45" class="edge"><title>Metamodel::ClassHOW&#45;&gt;Metamodel::AttributeContainer</title>
<path fill="none" stroke="#6666ff" d="M-432.655,-119.131C-575.09,-103.748 -855.237,-73.4916 -1011.88,-56.5736"/>
<polygon fill="#6666ff" stroke="#6666ff" points="-1011.7,-53.0729 -1022.02,-55.4788 -1012.45,-60.0324 -1011.7,-53.0729"/>
</g>
<!-- Metamodel::ClassHOW&#45;&gt;Metamodel::RoleContainer -->
<g id="edge50" class="edge"><title>Metamodel::ClassHOW&#45;&gt;Metamodel::RoleContainer</title>
<path fill="none" stroke="#6666ff" d="M-350.963,-110.598C-367.385,-66.2486 -409.747,48.1503 -429.303,100.963"/>
<polygon fill="#6666ff" stroke="#6666ff" points="-426.032,102.21 -432.787,110.372 -432.597,99.7788 -426.032,102.21"/>
</g>
<!-- Metamodel::ClassHOW&#45;&gt;Metamodel::Finalization -->
<g id="edge46" class="edge"><title>Metamodel::ClassHOW&#45;&gt;Metamodel::Finalization</title>
<path fill="none" stroke="#6666ff" d="M-397.45,-144.252C-452.502,-160.374 -538.472,-185.551 -596.89,-202.66"/>
<polygon fill="#6666ff" stroke="#6666ff" points="-598.128,-199.375 -606.741,-205.544 -596.161,-206.093 -598.128,-199.375"/>
</g>
<!-- Metamodel::ClassHOW&#45;&gt;Metamodel::DefaultParent -->
<g id="edge52" class="edge"><title>Metamodel::ClassHOW&#45;&gt;Metamodel::DefaultParent</title>
<path fill="none" stroke="#6666ff" d="M-359.21,-110.594C-407.579,-52.0587 -556.764,128.484 -556.764,128.484 -556.764,128.484 -581.675,161.233 -581.675,161.233 -581.675,161.233 -952.383,391.893 -1072.2,466.445"/>
<polygon fill="#6666ff" stroke="#6666ff" points="-1070.37,469.431 -1080.71,471.742 -1074.07,463.488 -1070.37,469.431"/>
</g>
<!-- Metamodel::ClassHOW&#45;&gt;Metamodel::Trusting -->
<g id="edge56" class="edge"><title>Metamodel::ClassHOW&#45;&gt;Metamodel::Trusting</title>
<path fill="none" stroke="#6666ff" d="M-341.18,-110.466C-332.036,-56.5453 -305.733,98.5524 -305.733,98.5524 -305.733,98.5524 -219.632,391.609 -219.632,391.609 -219.632,391.609 -207.451,534.509 -202.122,597.037"/>
<polygon fill="#6666ff" stroke="#6666ff" points="-198.602,597.121 -201.24,607.382 -205.577,597.716 -198.602,597.121"/>
</g>
<!-- Metamodel::ClassHOW&#45;&gt;Metamodel::BUILDPLAN -->
<g id="edge57" class="edge"><title>Metamodel::ClassHOW&#45;&gt;Metamodel::BUILDPLAN</title>
<path fill="none" stroke="#6666ff" d="M-320.239,-111.044C-247.518,-57.6816 -34.7581,98.4423 -34.7581,98.4423 -34.7581,98.4423 30.9695,182.075 30.9695,182.075 30.9695,182.075 513.619,449.594 657.962,529.599"/>
<polygon fill="#6666ff" stroke="#6666ff" points="659.922,526.684 666.972,534.593 656.529,532.807 659.922,526.684"/>
</g>
<!-- Metamodel::ClassHOW&#45;&gt;Metamodel::Mixins -->
<g id="edge58" class="edge"><title>Metamodel::ClassHOW&#45;&gt;Metamodel::Mixins</title>
<path fill="none" stroke="#6666ff" d="M-359.21,-110.594C-407.579,-52.0587 -556.764,128.484 -556.764,128.484 -556.764,128.484 -613.923,449.662 -631.397,547.847"/>
<polygon fill="#6666ff" stroke="#6666ff" points="-627.991,548.688 -633.189,557.92 -634.883,547.461 -627.991,548.688"/>
</g>
<!-- Metamodel::ClassHOW&#45;&gt;Metamodel::BoolificationProtocol -->
<g id="edge59" class="edge"><title>Metamodel::ClassHOW&#45;&gt;Metamodel::BoolificationProtocol</title>
<path fill="none" stroke="#6666ff" d="M-342.715,-110.601C-337.689,-52.0899 -322.185,128.379 -322.185,128.379 -322.185,128.379 -346.416,295.779 -356.245,363.679"/>
<polygon fill="#6666ff" stroke="#6666ff" points="-352.796,364.285 -357.693,373.681 -359.724,363.283 -352.796,364.285"/>
</g>
</g>
</svg>
