<?xml version="1.0" encoding="UTF-8" standalone="no"?>
<!DOCTYPE svg PUBLIC "-//W3C//DTD SVG 1.1//EN"
 "http://www.w3.org/Graphics/SVG/1.1/DTD/svg11.dtd">
<!-- Generated by graphviz version 2.38.0 (20140413.2041)
 -->
<!-- Title: perl6&#45;type&#45;graph Pages: 1 -->
<svg width="358pt" height="404pt"
 viewBox="0.00 0.00 357.67 404.00" xmlns="http://www.w3.org/2000/svg" xmlns:xlink="http://www.w3.org/1999/xlink">
<g id="graph0" class="graph" transform="scale(1 1) rotate(0) translate(4 400)">
<title>perl6&#45;type&#45;graph</title>
<polygon fill="white" stroke="none" points="-4,4 -4,-400 353.669,-400 353.669,4 -4,4"/>
<!-- X::Syntax::Regex::UnrecognizedMetachar -->
<g id="node1" class="node"><title>X::Syntax::Regex::UnrecognizedMetachar</title>
<g id="a_node1"><a xlink:href="/type/X::Syntax::Regex::UnrecognizedMetachar" xlink:title="X::Syntax::Regex::UnrecognizedMetachar">
<ellipse fill="none" stroke="#000000" cx="174.834" cy="-18" rx="174.669" ry="18"/>
<text text-anchor="middle" x="174.834" y="-14.3" font-family="FreeSans" font-size="14.00" fill="#000000">X::Syntax::Regex::UnrecognizedMetachar</text>
</a>
</g>
</g>
<!-- Exception -->
<g id="node4" class="node"><title>Exception</title>
<g id="a_node4"><a xlink:href="/type/Exception" xlink:title="Exception">
<ellipse fill="none" stroke="#000000" cx="197.834" cy="-234" rx="49.2915" ry="18"/>
<text text-anchor="middle" x="197.834" y="-230.3" font-family="FreeSans" font-size="14.00" fill="#000000">Exception</text>
</a>
</g>
</g>
<!-- X::Syntax::Regex::UnrecognizedMetachar&#45;&gt;Exception -->
<g id="edge1" class="edge"><title>X::Syntax::Regex::UnrecognizedMetachar&#45;&gt;Exception</title>
<path fill="none" stroke="#000000" d="M172.8,-36.1508C173.245,-73.3384 182.476,-161.626 190.306,-206.228"/>
<polygon fill="#000000" stroke="#000000" points="186.868,-206.884 192.157,-216.065 193.748,-205.59 186.868,-206.884"/>
</g>
<!-- X::Syntax::Regex::UnrecognizedMetachar&#45;&gt;Exception -->
<g id="edge2" class="edge"><title>X::Syntax::Regex::UnrecognizedMetachar&#45;&gt;Exception</title>
<path fill="none" stroke="#000000" d="M180.555,-36.1508C188.07,-73.1683 197.762,-160.819 199.583,-205.614"/>
<polygon fill="#000000" stroke="#000000" points="196.089,-205.87 199.868,-215.768 203.086,-205.673 196.089,-205.87"/>
</g>
<!-- X::Syntax -->
<g id="node6" class="node"><title>X::Syntax</title>
<g id="a_node6"><a xlink:href="/type/X::Syntax" xlink:title="X::Syntax">
<ellipse fill="none" stroke="#6666ff" cx="259.834" cy="-90" rx="48.1917" ry="18"/>
<text text-anchor="middle" x="259.834" y="-86.3" font-family="FreeSans" font-size="14.00" fill="#6666ff">X::Syntax</text>
</a>
</g>
</g>
<!-- X::Syntax::Regex::UnrecognizedMetachar&#45;&gt;X::Syntax -->
<g id="edge7" class="edge"><title>X::Syntax::Regex::UnrecognizedMetachar&#45;&gt;X::Syntax</title>
<path fill="none" stroke="#6666ff" d="M195.411,-35.945C206.668,-45.216 220.752,-56.8143 232.878,-66.8003"/>
<polygon fill="#6666ff" stroke="#6666ff" points="230.957,-69.7523 240.901,-73.4077 235.407,-64.3488 230.957,-69.7523"/>
</g>
<!-- Mu -->
<g id="node2" class="node"><title>Mu</title>
<g id="a_node2"><a xlink:href="/type/Mu" xlink:title="Mu">
<ellipse fill="none" stroke="#000000" cx="197.834" cy="-378" rx="27" ry="18"/>
<text text-anchor="middle" x="197.834" y="-374.3" font-family="FreeSans" font-size="14.00" fill="#000000">Mu</text>
</a>
</g>
</g>
<!-- Any -->
<g id="node3" class="node"><title>Any</title>
<g id="a_node3"><a xlink:href="/type/Any" xlink:title="Any">
<ellipse fill="none" stroke="#000000" cx="197.834" cy="-306" rx="27" ry="18"/>
<text text-anchor="middle" x="197.834" y="-302.3" font-family="FreeSans" font-size="14.00" fill="#000000">Any</text>
</a>
</g>
</g>
<!-- Any&#45;&gt;Mu -->
<g id="edge3" class="edge"><title>Any&#45;&gt;Mu</title>
<path fill="none" stroke="#000000" d="M197.834,-324.303C197.834,-332.017 197.834,-341.288 197.834,-349.888"/>
<polygon fill="#000000" stroke="#000000" points="194.335,-349.896 197.834,-359.896 201.335,-349.896 194.335,-349.896"/>
</g>
<!-- Exception&#45;&gt;Any -->
<g id="edge4" class="edge"><title>Exception&#45;&gt;Any</title>
<path fill="none" stroke="#000000" d="M197.834,-252.303C197.834,-260.017 197.834,-269.288 197.834,-277.888"/>
<polygon fill="#000000" stroke="#000000" points="194.335,-277.896 197.834,-287.896 201.335,-277.896 194.335,-277.896"/>
</g>
<!-- X::Comp -->
<g id="node5" class="node"><title>X::Comp</title>
<g id="a_node5"><a xlink:href="/type/X::Comp" xlink:title="X::Comp">
<ellipse fill="none" stroke="#6666ff" cx="294.834" cy="-162" rx="44.6926" ry="18"/>
<text text-anchor="middle" x="294.834" y="-158.3" font-family="FreeSans" font-size="14.00" fill="#6666ff">X::Comp</text>
</a>
</g>
</g>
<!-- X::Comp&#45;&gt;Exception -->
<g id="edge5" class="edge"><title>X::Comp&#45;&gt;Exception</title>
<path fill="none" stroke="#000000" d="M273.787,-178.189C260.279,-187.937 242.536,-200.742 227.595,-211.523"/>
<polygon fill="#000000" stroke="#000000" points="225.237,-208.909 219.176,-217.599 229.333,-214.585 225.237,-208.909"/>
</g>
<!-- X::Syntax&#45;&gt;Exception -->
<g id="edge6" class="edge"><title>X::Syntax&#45;&gt;Exception</title>
<path fill="none" stroke="#000000" d="M252.479,-107.847C241.805,-132.294 221.923,-177.829 209.311,-206.714"/>
<polygon fill="#000000" stroke="#000000" points="205.974,-205.61 205.181,-216.175 212.39,-208.411 205.974,-205.61"/>
</g>
<!-- X::Syntax&#45;&gt;X::Comp -->
<g id="edge8" class="edge"><title>X::Syntax&#45;&gt;X::Comp</title>
<path fill="none" stroke="#6666ff" d="M268.307,-107.945C272.391,-116.113 277.379,-126.088 281.922,-135.176"/>
<polygon fill="#6666ff" stroke="#6666ff" points="278.837,-136.832 286.44,-144.211 285.098,-133.701 278.837,-136.832"/>
</g>
</g>
</svg>
