<?xml version="1.0" encoding="UTF-8" standalone="no"?>
<!DOCTYPE svg PUBLIC "-//W3C//DTD SVG 1.1//EN"
 "http://www.w3.org/Graphics/SVG/1.1/DTD/svg11.dtd">
<!-- Generated by graphviz version 2.38.0 (20140413.2041)
 -->
<!-- Title: perl6&#45;type&#45;graph Pages: 1 -->
<svg width="380pt" height="476pt"
 viewBox="0.00 0.00 380.04 476.00" xmlns="http://www.w3.org/2000/svg" xmlns:xlink="http://www.w3.org/1999/xlink">
<g id="graph0" class="graph" transform="scale(1 1) rotate(0) translate(4 472)">
<title>perl6&#45;type&#45;graph</title>
<polygon fill="white" stroke="none" points="-4,4 -4,-472 376.043,-472 376.043,4 -4,4"/>
<!-- Callable -->
<g id="node1" class="node"><title>Callable</title>
<g id="a_node1"><a xlink:href="/type/Callable" xlink:title="Callable">
<ellipse fill="none" stroke="#6666ff" cx="156.296" cy="-378" rx="42.4939" ry="18"/>
<text text-anchor="middle" x="156.296" y="-374.3" font-family="FreeSans" font-size="14.00" fill="#6666ff">Callable</text>
</a>
</g>
</g>
<!-- Mu -->
<g id="node2" class="node"><title>Mu</title>
<g id="a_node2"><a xlink:href="/type/Mu" xlink:title="Mu">
<ellipse fill="none" stroke="#000000" cx="249.296" cy="-450" rx="27" ry="18"/>
<text text-anchor="middle" x="249.296" y="-446.3" font-family="FreeSans" font-size="14.00" fill="#000000">Mu</text>
</a>
</g>
</g>
<!-- Any -->
<g id="node3" class="node"><title>Any</title>
<g id="a_node3"><a xlink:href="/type/Any" xlink:title="Any">
<ellipse fill="none" stroke="#000000" cx="249.296" cy="-378" rx="27" ry="18"/>
<text text-anchor="middle" x="249.296" y="-374.3" font-family="FreeSans" font-size="14.00" fill="#000000">Any</text>
</a>
</g>
</g>
<!-- Any&#45;&gt;Mu -->
<g id="edge1" class="edge"><title>Any&#45;&gt;Mu</title>
<path fill="none" stroke="#000000" d="M249.296,-396.303C249.296,-404.017 249.296,-413.288 249.296,-421.888"/>
<polygon fill="#000000" stroke="#000000" points="245.797,-421.896 249.296,-431.896 252.797,-421.896 245.797,-421.896"/>
</g>
<!-- Code -->
<g id="node4" class="node"><title>Code</title>
<g id="a_node4"><a xlink:href="/type/Code" xlink:title="Code">
<ellipse fill="none" stroke="#000000" cx="144.296" cy="-306" rx="31.6951" ry="18"/>
<text text-anchor="middle" x="144.296" y="-302.3" font-family="FreeSans" font-size="14.00" fill="#000000">Code</text>
</a>
</g>
</g>
<!-- Code&#45;&gt;Callable -->
<g id="edge12" class="edge"><title>Code&#45;&gt;Callable</title>
<path fill="none" stroke="#6666ff" d="M147.201,-323.945C148.523,-331.654 150.12,-340.973 151.605,-349.636"/>
<polygon fill="#6666ff" stroke="#6666ff" points="148.196,-350.46 153.335,-359.725 155.095,-349.277 148.196,-350.46"/>
</g>
<!-- Code&#45;&gt;Any -->
<g id="edge2" class="edge"><title>Code&#45;&gt;Any</title>
<path fill="none" stroke="#000000" d="M164.046,-320.166C180.485,-331.126 204.056,-346.84 222.249,-358.968"/>
<polygon fill="#000000" stroke="#000000" points="220.431,-361.963 230.693,-364.598 224.314,-356.138 220.431,-361.963"/>
</g>
<!-- ForeignCode -->
<g id="node5" class="node"><title>ForeignCode</title>
<g id="a_node5"><a xlink:href="/type/ForeignCode" xlink:title="ForeignCode">
<ellipse fill="none" stroke="#000000" cx="256.296" cy="-306" rx="61.99" ry="18"/>
<text text-anchor="middle" x="256.296" y="-302.3" font-family="FreeSans" font-size="14.00" fill="#000000">ForeignCode</text>
</a>
</g>
</g>
<!-- ForeignCode&#45;&gt;Callable -->
<g id="edge13" class="edge"><title>ForeignCode&#45;&gt;Callable</title>
<path fill="none" stroke="#6666ff" d="M233.605,-322.884C219.539,-332.73 201.314,-345.488 186.092,-356.143"/>
<polygon fill="#6666ff" stroke="#6666ff" points="183.716,-353.534 177.531,-362.136 187.73,-359.269 183.716,-353.534"/>
</g>
<!-- ForeignCode&#45;&gt;Any -->
<g id="edge3" class="edge"><title>ForeignCode&#45;&gt;Any</title>
<path fill="none" stroke="#000000" d="M254.566,-324.303C253.795,-332.017 252.868,-341.288 252.008,-349.888"/>
<polygon fill="#000000" stroke="#000000" points="248.519,-349.597 251.007,-359.896 255.485,-350.294 248.519,-349.597"/>
</g>
<!-- WhateverCode -->
<g id="node6" class="node"><title>WhateverCode</title>
<g id="a_node6"><a xlink:href="/type/WhateverCode" xlink:title="WhateverCode">
<ellipse fill="none" stroke="#000000" cx="84.2964" cy="-234" rx="69.5877" ry="18"/>
<text text-anchor="middle" x="84.2964" y="-230.3" font-family="FreeSans" font-size="14.00" fill="#000000">WhateverCode</text>
</a>
</g>
</g>
<!-- WhateverCode&#45;&gt;Code -->
<g id="edge4" class="edge"><title>WhateverCode&#45;&gt;Code</title>
<path fill="none" stroke="#000000" d="M98.8208,-251.945C106.407,-260.796 115.812,-271.769 124.097,-281.434"/>
<polygon fill="#000000" stroke="#000000" points="121.563,-283.856 130.728,-289.171 126.878,-279.3 121.563,-283.856"/>
</g>
<!-- Block -->
<g id="node7" class="node"><title>Block</title>
<g id="a_node7"><a xlink:href="/type/Block" xlink:title="Block">
<ellipse fill="none" stroke="#000000" cx="204.296" cy="-234" rx="32.4942" ry="18"/>
<text text-anchor="middle" x="204.296" y="-230.3" font-family="FreeSans" font-size="14.00" fill="#000000">Block</text>
</a>
</g>
</g>
<!-- Block&#45;&gt;Code -->
<g id="edge5" class="edge"><title>Block&#45;&gt;Code</title>
<path fill="none" stroke="#000000" d="M190.98,-250.535C183.135,-259.689 173.057,-271.446 164.274,-281.693"/>
<polygon fill="#000000" stroke="#000000" points="161.426,-279.638 157.575,-289.508 166.741,-284.193 161.426,-279.638"/>
</g>
<!-- Routine -->
<g id="node8" class="node"><title>Routine</title>
<g id="a_node8"><a xlink:href="/type/Routine" xlink:title="Routine">
<ellipse fill="none" stroke="#000000" cx="204.296" cy="-162" rx="40.8928" ry="18"/>
<text text-anchor="middle" x="204.296" y="-158.3" font-family="FreeSans" font-size="14.00" fill="#000000">Routine</text>
</a>
</g>
</g>
<!-- Routine&#45;&gt;Block -->
<g id="edge6" class="edge"><title>Routine&#45;&gt;Block</title>
<path fill="none" stroke="#000000" d="M204.296,-180.303C204.296,-188.017 204.296,-197.288 204.296,-205.888"/>
<polygon fill="#000000" stroke="#000000" points="200.797,-205.896 204.296,-215.896 207.797,-205.896 200.797,-205.896"/>
</g>
<!-- Method -->
<g id="node9" class="node"><title>Method</title>
<g id="a_node9"><a xlink:href="/type/Method" xlink:title="Method">
<ellipse fill="none" stroke="#000000" cx="40.2964" cy="-90" rx="40.0939" ry="18"/>
<text text-anchor="middle" x="40.2964" y="-86.3" font-family="FreeSans" font-size="14.00" fill="#000000">Method</text>
</a>
</g>
</g>
<!-- Method&#45;&gt;Routine -->
<g id="edge7" class="edge"><title>Method&#45;&gt;Routine</title>
<path fill="none" stroke="#000000" d="M68.489,-103.033C95.5945,-114.603 136.744,-132.167 166.643,-144.928"/>
<polygon fill="#000000" stroke="#000000" points="165.352,-148.183 175.923,-148.889 168.1,-141.745 165.352,-148.183"/>
</g>
<!-- Submethod -->
<g id="node10" class="node"><title>Submethod</title>
<g id="a_node10"><a xlink:href="/type/Submethod" xlink:title="Submethod">
<ellipse fill="none" stroke="#000000" cx="154.296" cy="-90" rx="55.7903" ry="18"/>
<text text-anchor="middle" x="154.296" y="-86.3" font-family="FreeSans" font-size="14.00" fill="#000000">Submethod</text>
</a>
</g>
</g>
<!-- Submethod&#45;&gt;Routine -->
<g id="edge8" class="edge"><title>Submethod&#45;&gt;Routine</title>
<path fill="none" stroke="#000000" d="M166.4,-107.945C172.507,-116.495 180.029,-127.025 186.756,-136.444"/>
<polygon fill="#000000" stroke="#000000" points="183.988,-138.59 192.649,-144.693 189.684,-134.521 183.988,-138.59"/>
</g>
<!-- Sub -->
<g id="node11" class="node"><title>Sub</title>
<g id="a_node11"><a xlink:href="/type/Sub" xlink:title="Sub">
<ellipse fill="none" stroke="#000000" cx="255.296" cy="-90" rx="27" ry="18"/>
<text text-anchor="middle" x="255.296" y="-86.3" font-family="FreeSans" font-size="14.00" fill="#000000">Sub</text>
</a>
</g>
</g>
<!-- Sub&#45;&gt;Routine -->
<g id="edge9" class="edge"><title>Sub&#45;&gt;Routine</title>
<path fill="none" stroke="#000000" d="M243.978,-106.535C237.623,-115.258 229.544,-126.346 222.338,-136.238"/>
<polygon fill="#000000" stroke="#000000" points="219.354,-134.389 216.294,-144.533 225.011,-138.511 219.354,-134.389"/>
</g>
<!-- Macro -->
<g id="node12" class="node"><title>Macro</title>
<g id="a_node12"><a xlink:href="/type/Macro" xlink:title="Macro">
<ellipse fill="none" stroke="#000000" cx="336.296" cy="-90" rx="35.9954" ry="18"/>
<text text-anchor="middle" x="336.296" y="-86.3" font-family="FreeSans" font-size="14.00" fill="#000000">Macro</text>
</a>
</g>
</g>
<!-- Macro&#45;&gt;Routine -->
<g id="edge10" class="edge"><title>Macro&#45;&gt;Routine</title>
<path fill="none" stroke="#000000" d="M312.392,-103.676C291.666,-114.667 261.435,-130.699 238.21,-143.016"/>
<polygon fill="#000000" stroke="#000000" points="236.565,-139.926 229.37,-147.704 239.844,-146.111 236.565,-139.926"/>
</g>
<!-- Regex -->
<g id="node13" class="node"><title>Regex</title>
<g id="a_node13"><a xlink:href="/type/Regex" xlink:title="Regex">
<ellipse fill="none" stroke="#000000" cx="40.2964" cy="-18" rx="36.2938" ry="18"/>
<text text-anchor="middle" x="40.2964" y="-14.3" font-family="FreeSans" font-size="14.00" fill="#000000">Regex</text>
</a>
</g>
</g>
<!-- Regex&#45;&gt;Method -->
<g id="edge11" class="edge"><title>Regex&#45;&gt;Method</title>
<path fill="none" stroke="#000000" d="M40.2964,-36.3034C40.2964,-44.0173 40.2964,-53.2875 40.2964,-61.8876"/>
<polygon fill="#000000" stroke="#000000" points="36.7965,-61.8956 40.2964,-71.8957 43.7965,-61.8957 36.7965,-61.8956"/>
</g>
</g>
</svg>
