<?xml version="1.0" encoding="UTF-8" standalone="no"?>
<!DOCTYPE svg PUBLIC "-//W3C//DTD SVG 1.1//EN"
 "http://www.w3.org/Graphics/SVG/1.1/DTD/svg11.dtd">
<!-- Generated by graphviz version 2.38.0 (20140413.2041)
 -->
<!-- Title: perl6&#45;type&#45;graph Pages: 1 -->
<svg width="632pt" height="332pt"
 viewBox="0.00 0.00 631.59 332.00" xmlns="http://www.w3.org/2000/svg" xmlns:xlink="http://www.w3.org/1999/xlink">
<g id="graph0" class="graph" transform="scale(1 1) rotate(0) translate(4 328)">
<title>perl6&#45;type&#45;graph</title>
<polygon fill="white" stroke="none" points="-4,4 -4,-328 627.587,-328 627.587,4 -4,4"/>
<!-- IO -->
<g id="node1" class="node"><title>IO</title>
<g id="a_node1"><a xlink:href="/type/IO" xlink:title="IO">
<ellipse fill="none" stroke="#6666ff" cx="254.343" cy="-162" rx="27" ry="18"/>
<text text-anchor="middle" x="254.343" y="-158.3" font-family="FreeSans" font-size="14.00" fill="#6666ff">IO</text>
</a>
</g>
</g>
<!-- Mu -->
<g id="node2" class="node"><title>Mu</title>
<g id="a_node2"><a xlink:href="/type/Mu" xlink:title="Mu">
<ellipse fill="none" stroke="#000000" cx="263.343" cy="-306" rx="27" ry="18"/>
<text text-anchor="middle" x="263.343" y="-302.3" font-family="FreeSans" font-size="14.00" fill="#000000">Mu</text>
</a>
</g>
</g>
<!-- Any -->
<g id="node3" class="node"><title>Any</title>
<g id="a_node3"><a xlink:href="/type/Any" xlink:title="Any">
<ellipse fill="none" stroke="#000000" cx="263.343" cy="-234" rx="27" ry="18"/>
<text text-anchor="middle" x="263.343" y="-230.3" font-family="FreeSans" font-size="14.00" fill="#000000">Any</text>
</a>
</g>
</g>
<!-- Any&#45;&gt;Mu -->
<g id="edge1" class="edge"><title>Any&#45;&gt;Mu</title>
<path fill="none" stroke="#000000" d="M263.343,-252.303C263.343,-260.017 263.343,-269.288 263.343,-277.888"/>
<polygon fill="#000000" stroke="#000000" points="259.843,-277.896 263.343,-287.896 266.843,-277.896 259.843,-277.896"/>
</g>
<!-- IO::Special -->
<g id="node4" class="node"><title>IO::Special</title>
<g id="a_node4"><a xlink:href="/type/IO::Special" xlink:title="IO::Special">
<ellipse fill="none" stroke="#000000" cx="202.343" cy="-90" rx="53.8905" ry="18"/>
<text text-anchor="middle" x="202.343" y="-86.3" font-family="FreeSans" font-size="14.00" fill="#000000">IO::Special</text>
</a>
</g>
</g>
<!-- IO::Special&#45;&gt;IO -->
<g id="edge9" class="edge"><title>IO::Special&#45;&gt;IO</title>
<path fill="none" stroke="#6666ff" d="M214.666,-107.589C221.263,-116.47 229.503,-127.561 236.761,-137.332"/>
<polygon fill="#6666ff" stroke="#6666ff" points="234.048,-139.549 242.821,-145.489 239.667,-135.375 234.048,-139.549"/>
</g>
<!-- IO::Special&#45;&gt;Any -->
<g id="edge2" class="edge"><title>IO::Special&#45;&gt;Any</title>
<path fill="none" stroke="#000000" d="M205.428,-108.16C210.078,-134.022 218.343,-180 218.343,-180 218.343,-180 231.813,-195.865 244.014,-210.235"/>
<polygon fill="#000000" stroke="#000000" points="241.428,-212.596 250.568,-217.954 246.764,-208.066 241.428,-212.596"/>
</g>
<!-- Cool -->
<g id="node5" class="node"><title>Cool</title>
<g id="a_node5"><a xlink:href="/type/Cool" xlink:title="Cool">
<ellipse fill="none" stroke="#000000" cx="328.343" cy="-162" rx="28.6953" ry="18"/>
<text text-anchor="middle" x="328.343" y="-158.3" font-family="FreeSans" font-size="14.00" fill="#000000">Cool</text>
</a>
</g>
</g>
<!-- Cool&#45;&gt;Any -->
<g id="edge3" class="edge"><title>Cool&#45;&gt;Any</title>
<path fill="none" stroke="#000000" d="M314.558,-177.845C305.682,-187.404 293.98,-200.006 284.003,-210.751"/>
<polygon fill="#000000" stroke="#000000" points="281.348,-208.467 277.108,-218.176 286.477,-213.23 281.348,-208.467"/>
</g>
<!-- IO::Path -->
<g id="node6" class="node"><title>IO::Path</title>
<g id="a_node6"><a xlink:href="/type/IO::Path" xlink:title="IO::Path">
<ellipse fill="none" stroke="#000000" cx="324.343" cy="-90" rx="43.5923" ry="18"/>
<text text-anchor="middle" x="324.343" y="-86.3" font-family="FreeSans" font-size="14.00" fill="#000000">IO::Path</text>
</a>
</g>
</g>
<!-- IO::Path&#45;&gt;IO -->
<g id="edge10" class="edge"><title>IO::Path&#45;&gt;IO</title>
<path fill="none" stroke="#6666ff" d="M308.459,-106.884C298.851,-116.492 286.471,-128.872 275.977,-139.366"/>
<polygon fill="#6666ff" stroke="#6666ff" points="273.332,-137.061 268.736,-146.607 278.282,-142.011 273.332,-137.061"/>
</g>
<!-- IO::Path&#45;&gt;Cool -->
<g id="edge4" class="edge"><title>IO::Path&#45;&gt;Cool</title>
<path fill="none" stroke="#000000" d="M325.332,-108.303C325.773,-116.017 326.302,-125.288 326.794,-133.888"/>
<polygon fill="#000000" stroke="#000000" points="323.301,-134.112 327.366,-143.896 330.289,-133.712 323.301,-134.112"/>
</g>
<!-- IO::Path::Cygwin -->
<g id="node7" class="node"><title>IO::Path::Cygwin</title>
<g id="a_node7"><a xlink:href="/type/IO::Path::Cygwin" xlink:title="IO::Path::Cygwin">
<ellipse fill="none" stroke="#000000" cx="77.3431" cy="-18" rx="77.1866" ry="18"/>
<text text-anchor="middle" x="77.3431" y="-14.3" font-family="FreeSans" font-size="14.00" fill="#000000">IO::Path::Cygwin</text>
</a>
</g>
</g>
<!-- IO::Path::Cygwin&#45;&gt;IO::Path -->
<g id="edge5" class="edge"><title>IO::Path::Cygwin&#45;&gt;IO::Path</title>
<path fill="none" stroke="#000000" d="M124.783,-32.3741C180.477,-48.075 265.343,-72 265.343,-72 265.343,-72 271.543,-73.7863 279.923,-76.2009"/>
<polygon fill="#000000" stroke="#000000" points="279.103,-79.6071 289.681,-79.0127 281.041,-72.8807 279.103,-79.6071"/>
</g>
<!-- IO::Path::Win32 -->
<g id="node8" class="node"><title>IO::Path::Win32</title>
<g id="a_node8"><a xlink:href="/type/IO::Path::Win32" xlink:title="IO::Path::Win32">
<ellipse fill="none" stroke="#000000" cx="246.343" cy="-18" rx="73.387" ry="18"/>
<text text-anchor="middle" x="246.343" y="-14.3" font-family="FreeSans" font-size="14.00" fill="#000000">IO::Path::Win32</text>
</a>
</g>
</g>
<!-- IO::Path::Win32&#45;&gt;IO::Path -->
<g id="edge6" class="edge"><title>IO::Path::Win32&#45;&gt;IO::Path</title>
<path fill="none" stroke="#000000" d="M264.828,-35.589C275.051,-44.7634 287.903,-56.2971 299.045,-66.2967"/>
<polygon fill="#000000" stroke="#000000" points="297.014,-69.1768 306.794,-73.2511 301.69,-63.9671 297.014,-69.1768"/>
</g>
<!-- IO::Path::Unix -->
<g id="node9" class="node"><title>IO::Path::Unix</title>
<g id="a_node9"><a xlink:href="/type/IO::Path::Unix" xlink:title="IO::Path::Unix">
<ellipse fill="none" stroke="#000000" cx="403.343" cy="-18" rx="65.7887" ry="18"/>
<text text-anchor="middle" x="403.343" y="-14.3" font-family="FreeSans" font-size="14.00" fill="#000000">IO::Path::Unix</text>
</a>
</g>
</g>
<!-- IO::Path::Unix&#45;&gt;IO::Path -->
<g id="edge7" class="edge"><title>IO::Path::Unix&#45;&gt;IO::Path</title>
<path fill="none" stroke="#000000" d="M384.621,-35.589C374.093,-44.9181 360.811,-56.6869 349.396,-66.8014"/>
<polygon fill="#000000" stroke="#000000" points="347.012,-64.2377 341.848,-73.4892 351.654,-69.4769 347.012,-64.2377"/>
</g>
<!-- IO::Path::QNX -->
<g id="node10" class="node"><title>IO::Path::QNX</title>
<g id="a_node10"><a xlink:href="/type/IO::Path::QNX" xlink:title="IO::Path::QNX">
<ellipse fill="none" stroke="#000000" cx="555.343" cy="-18" rx="68.4888" ry="18"/>
<text text-anchor="middle" x="555.343" y="-14.3" font-family="FreeSans" font-size="14.00" fill="#000000">IO::Path::QNX</text>
</a>
</g>
</g>
<!-- IO::Path::QNX&#45;&gt;IO::Path -->
<g id="edge8" class="edge"><title>IO::Path::QNX&#45;&gt;IO::Path</title>
<path fill="none" stroke="#000000" d="M512.435,-32.0024C471.332,-44.4579 409.602,-63.1639 368.189,-75.7134"/>
<polygon fill="#000000" stroke="#000000" points="366.938,-72.4353 358.382,-78.6851 368.968,-79.1345 366.938,-72.4353"/>
</g>
</g>
</svg>
