<?xml version="1.0" encoding="UTF-8" standalone="no"?>
<!DOCTYPE svg PUBLIC "-//W3C//DTD SVG 1.1//EN"
 "http://www.w3.org/Graphics/SVG/1.1/DTD/svg11.dtd">
<!-- Generated by graphviz version 2.38.0 (20140413.2041)
 -->
<!-- Title: perl6&#45;type&#45;graph Pages: 1 -->
<svg width="921pt" height="332pt"
 viewBox="0.00 0.00 920.99 332.00" xmlns="http://www.w3.org/2000/svg" xmlns:xlink="http://www.w3.org/1999/xlink">
<g id="graph0" class="graph" transform="scale(1 1) rotate(0) translate(4 328)">
<title>perl6&#45;type&#45;graph</title>
<polygon fill="white" stroke="none" points="-4,4 -4,-328 916.993,-328 916.993,4 -4,4"/>
<!-- Real -->
<g id="node1" class="node"><title>Real</title>
<g id="a_node1"><a xlink:href="/type/Real" xlink:title="Real">
<ellipse fill="none" stroke="#6666ff" cx="278.047" cy="-162" rx="28.6953" ry="18"/>
<text text-anchor="middle" x="278.047" y="-158.3" font-family="FreeSans" font-size="14.00" fill="#6666ff">Real</text>
</a>
</g>
</g>
<!-- Numeric -->
<g id="node2" class="node"><title>Numeric</title>
<g id="a_node2"><a xlink:href="/type/Numeric" xlink:title="Numeric">
<ellipse fill="none" stroke="#6666ff" cx="278.047" cy="-234" rx="44.393" ry="18"/>
<text text-anchor="middle" x="278.047" y="-230.3" font-family="FreeSans" font-size="14.00" fill="#6666ff">Numeric</text>
</a>
</g>
</g>
<!-- Real&#45;&gt;Numeric -->
<g id="edge20" class="edge"><title>Real&#45;&gt;Numeric</title>
<path fill="none" stroke="#6666ff" d="M278.047,-180.303C278.047,-188.017 278.047,-197.288 278.047,-205.888"/>
<polygon fill="#6666ff" stroke="#6666ff" points="274.547,-205.896 278.047,-215.896 281.547,-205.896 274.547,-205.896"/>
</g>
<!-- Mu -->
<g id="node3" class="node"><title>Mu</title>
<g id="a_node3"><a xlink:href="/type/Mu" xlink:title="Mu">
<ellipse fill="none" stroke="#000000" cx="388.047" cy="-306" rx="27" ry="18"/>
<text text-anchor="middle" x="388.047" y="-302.3" font-family="FreeSans" font-size="14.00" fill="#000000">Mu</text>
</a>
</g>
</g>
<!-- Any -->
<g id="node4" class="node"><title>Any</title>
<g id="a_node4"><a xlink:href="/type/Any" xlink:title="Any">
<ellipse fill="none" stroke="#000000" cx="388.047" cy="-234" rx="27" ry="18"/>
<text text-anchor="middle" x="388.047" y="-230.3" font-family="FreeSans" font-size="14.00" fill="#000000">Any</text>
</a>
</g>
</g>
<!-- Any&#45;&gt;Mu -->
<g id="edge1" class="edge"><title>Any&#45;&gt;Mu</title>
<path fill="none" stroke="#000000" d="M388.047,-252.303C388.047,-260.017 388.047,-269.288 388.047,-277.888"/>
<polygon fill="#000000" stroke="#000000" points="384.547,-277.896 388.047,-287.896 391.547,-277.896 384.547,-277.896"/>
</g>
<!-- Cool -->
<g id="node5" class="node"><title>Cool</title>
<g id="a_node5"><a xlink:href="/type/Cool" xlink:title="Cool">
<ellipse fill="none" stroke="#000000" cx="388.047" cy="-162" rx="28.6953" ry="18"/>
<text text-anchor="middle" x="388.047" y="-158.3" font-family="FreeSans" font-size="14.00" fill="#000000">Cool</text>
</a>
</g>
</g>
<!-- Cool&#45;&gt;Any -->
<g id="edge2" class="edge"><title>Cool&#45;&gt;Any</title>
<path fill="none" stroke="#000000" d="M388.047,-180.303C388.047,-188.017 388.047,-197.288 388.047,-205.888"/>
<polygon fill="#000000" stroke="#000000" points="384.547,-205.896 388.047,-215.896 391.547,-205.896 384.547,-205.896"/>
</g>
<!-- Instant -->
<g id="node6" class="node"><title>Instant</title>
<g id="a_node6"><a xlink:href="/type/Instant" xlink:title="Instant">
<ellipse fill="none" stroke="#000000" cx="179.047" cy="-90" rx="37.0935" ry="18"/>
<text text-anchor="middle" x="179.047" y="-86.3" font-family="FreeSans" font-size="14.00" fill="#000000">Instant</text>
</a>
</g>
</g>
<!-- Instant&#45;&gt;Real -->
<g id="edge21" class="edge"><title>Instant&#45;&gt;Real</title>
<path fill="none" stroke="#6666ff" d="M199.081,-105.166C214.188,-115.848 235.054,-130.601 251.542,-142.259"/>
<polygon fill="#6666ff" stroke="#6666ff" points="249.526,-145.12 259.712,-148.036 253.567,-139.405 249.526,-145.12"/>
</g>
<!-- Instant&#45;&gt;Cool -->
<g id="edge3" class="edge"><title>Instant&#45;&gt;Cool</title>
<path fill="none" stroke="#000000" d="M207.656,-101.573C217.011,-105.03 225.047,-108 225.047,-108 225.047,-108 305.796,-134.256 353.625,-149.808"/>
<polygon fill="#000000" stroke="#000000" points="352.698,-153.187 363.291,-152.95 354.863,-146.53 352.698,-153.187"/>
</g>
<!-- Duration -->
<g id="node7" class="node"><title>Duration</title>
<g id="a_node7"><a xlink:href="/type/Duration" xlink:title="Duration">
<ellipse fill="none" stroke="#000000" cx="278.047" cy="-90" rx="44.393" ry="18"/>
<text text-anchor="middle" x="278.047" y="-86.3" font-family="FreeSans" font-size="14.00" fill="#000000">Duration</text>
</a>
</g>
</g>
<!-- Duration&#45;&gt;Real -->
<g id="edge22" class="edge"><title>Duration&#45;&gt;Real</title>
<path fill="none" stroke="#6666ff" d="M278.047,-108.303C278.047,-116.017 278.047,-125.288 278.047,-133.888"/>
<polygon fill="#6666ff" stroke="#6666ff" points="274.547,-133.896 278.047,-143.896 281.547,-133.896 274.547,-133.896"/>
</g>
<!-- Duration&#45;&gt;Cool -->
<g id="edge4" class="edge"><title>Duration&#45;&gt;Cool</title>
<path fill="none" stroke="#000000" d="M300.839,-105.504C318.036,-116.448 341.72,-131.519 360.067,-143.195"/>
<polygon fill="#000000" stroke="#000000" points="358.277,-146.204 368.593,-148.62 362.035,-140.299 358.277,-146.204"/>
</g>
<!-- Num -->
<g id="node8" class="node"><title>Num</title>
<g id="a_node8"><a xlink:href="/type/Num" xlink:title="Num">
<ellipse fill="none" stroke="#000000" cx="518.047" cy="-90" rx="29.795" ry="18"/>
<text text-anchor="middle" x="518.047" y="-86.3" font-family="FreeSans" font-size="14.00" fill="#000000">Num</text>
</a>
</g>
</g>
<!-- Num&#45;&gt;Real -->
<g id="edge23" class="edge"><title>Num&#45;&gt;Real</title>
<path fill="none" stroke="#6666ff" d="M494.461,-101.281C486.247,-104.861 479.047,-108 479.047,-108 479.047,-108 371.501,-136.358 313.744,-151.587"/>
<polygon fill="#6666ff" stroke="#6666ff" points="312.69,-148.246 303.912,-154.18 314.474,-155.014 312.69,-148.246"/>
</g>
<!-- Num&#45;&gt;Cool -->
<g id="edge5" class="edge"><title>Num&#45;&gt;Cool</title>
<path fill="none" stroke="#000000" d="M496.58,-102.559C475.188,-114.078 442.155,-131.865 418.149,-144.791"/>
<polygon fill="#000000" stroke="#000000" points="416.259,-141.833 409.114,-149.656 419.578,-147.997 416.259,-141.833"/>
</g>
<!-- Int -->
<g id="node9" class="node"><title>Int</title>
<g id="a_node9"><a xlink:href="/type/Int" xlink:title="Int">
<ellipse fill="none" stroke="#000000" cx="443.047" cy="-90" rx="27" ry="18"/>
<text text-anchor="middle" x="443.047" y="-86.3" font-family="FreeSans" font-size="14.00" fill="#000000">Int</text>
</a>
</g>
</g>
<!-- Int&#45;&gt;Real -->
<g id="edge24" class="edge"><title>Int&#45;&gt;Real</title>
<path fill="none" stroke="#6666ff" d="M420.794,-100.441C392.414,-112.48 343.121,-133.393 310.539,-147.215"/>
<polygon fill="#6666ff" stroke="#6666ff" points="308.844,-144.132 301.006,-151.26 311.578,-150.576 308.844,-144.132"/>
</g>
<!-- Int&#45;&gt;Cool -->
<g id="edge6" class="edge"><title>Int&#45;&gt;Cool</title>
<path fill="none" stroke="#000000" d="M431.113,-106.189C423.933,-115.327 414.643,-127.151 406.53,-137.476"/>
<polygon fill="#000000" stroke="#000000" points="403.765,-135.33 400.338,-145.356 409.269,-139.655 403.765,-135.33"/>
</g>
<!-- Rational -->
<g id="node10" class="node"><title>Rational</title>
<g id="a_node10"><a xlink:href="/type/Rational" xlink:title="Rational">
<ellipse fill="none" stroke="#6666ff" cx="81.0467" cy="-90" rx="42.7926" ry="18"/>
<text text-anchor="middle" x="81.0467" y="-86.3" font-family="FreeSans" font-size="14.00" fill="#6666ff">Rational</text>
</a>
</g>
</g>
<!-- Rational&#45;&gt;Real -->
<g id="edge25" class="edge"><title>Rational&#45;&gt;Real</title>
<path fill="none" stroke="#6666ff" d="M112.698,-102.247C148.588,-114.999 206.896,-135.718 243.819,-148.838"/>
<polygon fill="#6666ff" stroke="#6666ff" points="243.035,-152.274 253.63,-152.324 245.379,-145.678 243.035,-152.274"/>
</g>
<!-- Stringy -->
<g id="node11" class="node"><title>Stringy</title>
<g id="a_node11"><a xlink:href="/type/Stringy" xlink:title="Stringy">
<ellipse fill="none" stroke="#6666ff" cx="781.047" cy="-162" rx="38.1938" ry="18"/>
<text text-anchor="middle" x="781.047" y="-158.3" font-family="FreeSans" font-size="14.00" fill="#6666ff">Stringy</text>
</a>
</g>
</g>
<!-- Str -->
<g id="node12" class="node"><title>Str</title>
<g id="a_node12"><a xlink:href="/type/Str" xlink:title="Str">
<ellipse fill="none" stroke="#000000" cx="781.047" cy="-90" rx="27" ry="18"/>
<text text-anchor="middle" x="781.047" y="-86.3" font-family="FreeSans" font-size="14.00" fill="#000000">Str</text>
</a>
</g>
</g>
<!-- Str&#45;&gt;Cool -->
<g id="edge7" class="edge"><title>Str&#45;&gt;Cool</title>
<path fill="none" stroke="#000000" d="M755.261,-95.5929C687.52,-107.659 504.313,-140.291 425.227,-154.378"/>
<polygon fill="#000000" stroke="#000000" points="424.455,-150.96 415.224,-156.159 425.683,-157.851 424.455,-150.96"/>
</g>
<!-- Str&#45;&gt;Stringy -->
<g id="edge26" class="edge"><title>Str&#45;&gt;Stringy</title>
<path fill="none" stroke="#6666ff" d="M781.047,-108.303C781.047,-116.017 781.047,-125.288 781.047,-133.888"/>
<polygon fill="#6666ff" stroke="#6666ff" points="777.547,-133.896 781.047,-143.896 784.547,-133.896 777.547,-133.896"/>
</g>
<!-- NumStr -->
<g id="node13" class="node"><title>NumStr</title>
<g id="a_node13"><a xlink:href="/type/NumStr" xlink:title="NumStr">
<ellipse fill="none" stroke="#000000" cx="872.047" cy="-18" rx="40.8928" ry="18"/>
<text text-anchor="middle" x="872.047" y="-14.3" font-family="FreeSans" font-size="14.00" fill="#000000">NumStr</text>
</a>
</g>
</g>
<!-- NumStr&#45;&gt;Num -->
<g id="edge8" class="edge"><title>NumStr&#45;&gt;Num</title>
<path fill="none" stroke="#000000" d="M840.665,-29.6698C830.619,-33.0854 822.047,-36 822.047,-36 822.047,-36 637.928,-68.0997 556.267,-82.3367"/>
<polygon fill="#000000" stroke="#000000" points="555.624,-78.8959 546.373,-84.0615 556.826,-85.7919 555.624,-78.8959"/>
</g>
<!-- NumStr&#45;&gt;Str -->
<g id="edge9" class="edge"><title>NumStr&#45;&gt;Str</title>
<path fill="none" stroke="#000000" d="M852.301,-34.189C838.755,-44.609 820.668,-58.5222 806.106,-69.7232"/>
<polygon fill="#000000" stroke="#000000" points="803.794,-67.0866 798.001,-75.9579 808.062,-72.635 803.794,-67.0866"/>
</g>
<!-- Bool -->
<g id="node14" class="node"><title>Bool</title>
<g id="a_node14"><a xlink:href="/type/Bool" xlink:title="Bool">
<ellipse fill="none" stroke="#33bb33" cx="278.047" cy="-18" rx="28.6953" ry="18"/>
<text text-anchor="middle" x="278.047" y="-14.3" font-family="FreeSans" font-size="14.00" fill="#33bb33">Bool</text>
</a>
</g>
</g>
<!-- Bool&#45;&gt;Int -->
<g id="edge10" class="edge"><title>Bool&#45;&gt;Int</title>
<path fill="none" stroke="#000000" d="M300.591,-29.0854C308.773,-32.7461 316.047,-36 316.047,-36 316.047,-36 373.456,-59.9582 411.077,-75.6585"/>
<polygon fill="#000000" stroke="#000000" points="410.057,-79.0253 420.634,-79.6467 412.753,-72.5653 410.057,-79.0253"/>
</g>
<!-- int -->
<g id="node15" class="node"><title>int</title>
<g id="a_node15"><a xlink:href="/type/int" xlink:title="int">
<ellipse fill="none" stroke="#000000" cx="352.047" cy="-18" rx="27" ry="18"/>
<text text-anchor="middle" x="352.047" y="-14.3" font-family="FreeSans" font-size="14.00" fill="#000000">int</text>
</a>
</g>
</g>
<!-- int&#45;&gt;Int -->
<g id="edge11" class="edge"><title>int&#45;&gt;Int</title>
<path fill="none" stroke="#000000" d="M369.163,-32.1665C382.89,-42.7259 402.357,-57.6999 417.862,-69.6272"/>
<polygon fill="#000000" stroke="#000000" points="415.947,-72.5696 426.007,-75.8926 420.215,-67.0212 415.947,-72.5696"/>
</g>
<!-- atomicint -->
<g id="node16" class="node"><title>atomicint</title>
<g id="a_node16"><a xlink:href="/type/atomicint" xlink:title="atomicint">
<ellipse fill="none" stroke="#000000" cx="443.047" cy="-18" rx="46.2923" ry="18"/>
<text text-anchor="middle" x="443.047" y="-14.3" font-family="FreeSans" font-size="14.00" fill="#000000">atomicint</text>
</a>
</g>
</g>
<!-- atomicint&#45;&gt;Int -->
<g id="edge12" class="edge"><title>atomicint&#45;&gt;Int</title>
<path fill="none" stroke="#000000" d="M443.047,-36.3034C443.047,-44.0173 443.047,-53.2875 443.047,-61.8876"/>
<polygon fill="#000000" stroke="#000000" points="439.547,-61.8956 443.047,-71.8957 446.547,-61.8957 439.547,-61.8956"/>
</g>
<!-- PromiseStatus -->
<g id="node17" class="node"><title>PromiseStatus</title>
<g id="a_node17"><a xlink:href="/type/PromiseStatus" xlink:title="PromiseStatus">
<ellipse fill="none" stroke="#33bb33" cx="575.047" cy="-18" rx="67.6881" ry="18"/>
<text text-anchor="middle" x="575.047" y="-14.3" font-family="FreeSans" font-size="14.00" fill="#33bb33">PromiseStatus</text>
</a>
</g>
</g>
<!-- PromiseStatus&#45;&gt;Int -->
<g id="edge13" class="edge"><title>PromiseStatus&#45;&gt;Int</title>
<path fill="none" stroke="#000000" d="M546.079,-34.3618C524.298,-45.9122 494.561,-61.6816 472.632,-73.3107"/>
<polygon fill="#000000" stroke="#000000" points="470.953,-70.2396 463.758,-78.0168 474.232,-76.4238 470.953,-70.2396"/>
</g>
<!-- IntStr -->
<g id="node18" class="node"><title>IntStr</title>
<g id="a_node18"><a xlink:href="/type/IntStr" xlink:title="IntStr">
<ellipse fill="none" stroke="#000000" cx="781.047" cy="-18" rx="31.6951" ry="18"/>
<text text-anchor="middle" x="781.047" y="-14.3" font-family="FreeSans" font-size="14.00" fill="#000000">IntStr</text>
</a>
</g>
</g>
<!-- IntStr&#45;&gt;Int -->
<g id="edge14" class="edge"><title>IntStr&#45;&gt;Int</title>
<path fill="none" stroke="#000000" d="M755.781,-29.476C747.344,-32.9744 740.047,-36 740.047,-36 740.047,-36 479.047,-72 479.047,-72 479.047,-72 476.866,-73.0296 473.579,-74.5819"/>
<polygon fill="#000000" stroke="#000000" points="471.952,-71.4796 464.404,-78.9146 474.941,-77.8093 471.952,-71.4796"/>
</g>
<!-- IntStr&#45;&gt;Str -->
<g id="edge15" class="edge"><title>IntStr&#45;&gt;Str</title>
<path fill="none" stroke="#000000" d="M781.047,-36.3034C781.047,-44.0173 781.047,-53.2875 781.047,-61.8876"/>
<polygon fill="#000000" stroke="#000000" points="777.547,-61.8956 781.047,-71.8957 784.547,-61.8957 777.547,-61.8956"/>
</g>
<!-- Signal -->
<g id="node19" class="node"><title>Signal</title>
<g id="a_node19"><a xlink:href="/type/Signal" xlink:title="Signal">
<ellipse fill="none" stroke="#33bb33" cx="696.047" cy="-18" rx="35.194" ry="18"/>
<text text-anchor="middle" x="696.047" y="-14.3" font-family="FreeSans" font-size="14.00" fill="#33bb33">Signal</text>
</a>
</g>
</g>
<!-- Signal&#45;&gt;Int -->
<g id="edge16" class="edge"><title>Signal&#45;&gt;Int</title>
<path fill="none" stroke="#000000" d="M668.932,-29.476C659.878,-32.9744 652.047,-36 652.047,-36 652.047,-36 479.047,-72 479.047,-72 479.047,-72 476.866,-73.0296 473.579,-74.5819"/>
<polygon fill="#000000" stroke="#000000" points="471.952,-71.4796 464.404,-78.9146 474.941,-77.8093 471.952,-71.4796"/>
</g>
<!-- Order -->
<g id="node20" class="node"><title>Order</title>
<g id="a_node20"><a xlink:href="/type/Order" xlink:title="Order">
<ellipse fill="none" stroke="#33bb33" cx="198.047" cy="-18" rx="33.5952" ry="18"/>
<text text-anchor="middle" x="198.047" y="-14.3" font-family="FreeSans" font-size="14.00" fill="#33bb33">Order</text>
</a>
</g>
</g>
<!-- Order&#45;&gt;Int -->
<g id="edge17" class="edge"><title>Order&#45;&gt;Int</title>
<path fill="none" stroke="#000000" d="M224.407,-29.6698C232.846,-33.0854 240.047,-36 240.047,-36 240.047,-36 402.047,-72 402.047,-72 402.047,-72 405.926,-73.6087 411.299,-75.8363"/>
<polygon fill="#000000" stroke="#000000" points="410.049,-79.1071 420.627,-79.7042 412.73,-72.6409 410.049,-79.1071"/>
</g>
<!-- FatRat -->
<g id="node21" class="node"><title>FatRat</title>
<g id="a_node21"><a xlink:href="/type/FatRat" xlink:title="FatRat">
<ellipse fill="none" stroke="#000000" cx="37.0467" cy="-18" rx="37.0935" ry="18"/>
<text text-anchor="middle" x="37.0467" y="-14.3" font-family="FreeSans" font-size="14.00" fill="#000000">FatRat</text>
</a>
</g>
</g>
<!-- FatRat&#45;&gt;Cool -->
<g id="edge18" class="edge"><title>FatRat&#45;&gt;Cool</title>
<path fill="none" stroke="#000000" d="M65.6561,-29.573C75.0106,-33.0301 83.0467,-36 83.0467,-36 83.0467,-36 331.047,-72 331.047,-72 331.047,-72 355.384,-110 372.253,-136.34"/>
<polygon fill="#000000" stroke="#000000" points="369.516,-138.555 377.856,-145.089 375.41,-134.78 369.516,-138.555"/>
</g>
<!-- FatRat&#45;&gt;Rational -->
<g id="edge27" class="edge"><title>FatRat&#45;&gt;Rational</title>
<path fill="none" stroke="#6666ff" d="M47.4741,-35.589C52.7894,-44.0451 59.3645,-54.5056 65.2832,-63.9217"/>
<polygon fill="#6666ff" stroke="#6666ff" points="62.4092,-65.9263 70.6942,-72.5301 68.3356,-62.2011 62.4092,-65.9263"/>
</g>
<!-- Rat -->
<g id="node22" class="node"><title>Rat</title>
<g id="a_node22"><a xlink:href="/type/Rat" xlink:title="Rat">
<ellipse fill="none" stroke="#000000" cx="119.047" cy="-18" rx="27" ry="18"/>
<text text-anchor="middle" x="119.047" y="-14.3" font-family="FreeSans" font-size="14.00" fill="#000000">Rat</text>
</a>
</g>
</g>
<!-- Rat&#45;&gt;Cool -->
<g id="edge19" class="edge"><title>Rat&#45;&gt;Cool</title>
<path fill="none" stroke="#000000" d="M140.404,-29.0854C148.156,-32.7461 155.047,-36 155.047,-36 155.047,-36 364.047,-72 364.047,-72 364.047,-72 373.71,-107.833 380.773,-134.025"/>
<polygon fill="#000000" stroke="#000000" points="377.436,-135.096 383.419,-143.84 384.195,-133.273 377.436,-135.096"/>
</g>
<!-- Rat&#45;&gt;Rational -->
<g id="edge28" class="edge"><title>Rat&#45;&gt;Rational</title>
<path fill="none" stroke="#6666ff" d="M110.233,-35.2354C105.695,-43.5957 100.055,-53.9841 94.9471,-63.3941"/>
<polygon fill="#6666ff" stroke="#6666ff" points="91.7713,-61.9082 90.0763,-72.3666 97.9232,-65.2479 91.7713,-61.9082"/>
</g>
</g>
</svg>
