<?xml version="1.0" encoding="UTF-8" standalone="no"?>
<!DOCTYPE svg PUBLIC "-//W3C//DTD SVG 1.1//EN"
 "http://www.w3.org/Graphics/SVG/1.1/DTD/svg11.dtd">
<!-- Generated by graphviz version 2.38.0 (20140413.2041)
 -->
<!-- Title: perl6&#45;type&#45;graph Pages: 1 -->
<svg width="1955pt" height="1129pt"
 viewBox="0.00 0.00 1955.20 1128.91" xmlns="http://www.w3.org/2000/svg" xmlns:xlink="http://www.w3.org/1999/xlink">
<g id="graph0" class="graph" transform="scale(1 1) rotate(0) translate(942.388 547.785)">
<title>perl6&#45;type&#45;graph</title>
<polygon fill="white" stroke="none" points="-942.388,581.12 -942.388,-547.785 1012.81,-547.785 1012.81,581.12 -942.388,581.12"/>
<!-- Metamodel::MultiMethodContainer -->
<g id="node1" class="node"><title>Metamodel::MultiMethodContainer</title>
<g id="a_node1"><a xlink:href="/type/Metamodel::MultiMethodContainer" xlink:title="Metamodel::MultiMethodContainer">
<ellipse fill="none" stroke="#6666ff" cx="245.893" cy="-91.9168" rx="146.474" ry="18"/>
<text text-anchor="middle" x="245.893" y="-88.2168" font-family="FreeSans" font-size="14.00" fill="#6666ff">Metamodel::MultiMethodContainer</text>
</a>
</g>
</g>
<!-- Mu -->
<g id="node2" class="node"><title>Mu</title>
<g id="a_node2"><a xlink:href="/type/Mu" xlink:title="Mu">
<ellipse fill="none" stroke="#000000" cx="872.893" cy="478.329" rx="27" ry="18"/>
<text text-anchor="middle" x="872.893" y="482.029" font-family="FreeSans" font-size="14.00" fill="#000000">Mu</text>
</a>
</g>
</g>
<!-- Any -->
<g id="node3" class="node"><title>Any</title>
<g id="a_node3"><a xlink:href="/type/Any" xlink:title="Any">
<ellipse fill="none" stroke="#000000" cx="520.108" cy="261.262" rx="27" ry="18"/>
<text text-anchor="middle" x="520.108" y="264.962" font-family="FreeSans" font-size="14.00" fill="#000000">Any</text>
</a>
</g>
</g>
<!-- Any&#45;&gt;Mu -->
<g id="edge1" class="edge"><title>Any&#45;&gt;Mu</title>
<path fill="none" stroke="#000000" d="M540.086,273.554C599.373,310.033 774.494,417.785 843.995,460.548"/>
<polygon fill="#000000" stroke="#000000" points="846.014,457.681 852.697,465.902 842.346,463.643 846.014,457.681"/>
</g>
<!-- Metamodel::Naming -->
<g id="node4" class="node"><title>Metamodel::Naming</title>
<g id="a_node4"><a xlink:href="/type/Metamodel::Naming" xlink:title="Metamodel::Naming">
<ellipse fill="none" stroke="#6666ff" cx="1.30204" cy="20.0837" rx="90.1842" ry="18"/>
<text text-anchor="middle" x="1.30204" y="23.7837" font-family="FreeSans" font-size="14.00" fill="#6666ff">Metamodel::Naming</text>
</a>
</g>
</g>
<!-- Metamodel::Versioning -->
<g id="node5" class="node"><title>Metamodel::Versioning</title>
<g id="a_node5"><a xlink:href="/type/Metamodel::Versioning" xlink:title="Metamodel::Versioning">
<ellipse fill="none" stroke="#6666ff" cx="254.831" cy="-461.211" rx="100.983" ry="18"/>
<text text-anchor="middle" x="254.831" y="-457.511" font-family="FreeSans" font-size="14.00" fill="#6666ff">Metamodel::Versioning</text>
</a>
</g>
</g>
<!-- Metamodel::PrivateMethodContainer -->
<g id="node6" class="node"><title>Metamodel::PrivateMethodContainer</title>
<g id="a_node6"><a xlink:href="/type/Metamodel::PrivateMethodContainer" xlink:title="Metamodel::PrivateMethodContainer">
<ellipse fill="none" stroke="#6666ff" cx="1.20472" cy="-508.15" rx="154.873" ry="18"/>
<text text-anchor="middle" x="1.20472" y="-504.45" font-family="FreeSans" font-size="14.00" fill="#6666ff">Metamodel::PrivateMethodContainer</text>
</a>
</g>
</g>
<!-- Metamodel::MethodContainer -->
<g id="node7" class="node"><title>Metamodel::MethodContainer</title>
<g id="a_node7"><a xlink:href="/type/Metamodel::MethodContainer" xlink:title="Metamodel::MethodContainer">
<ellipse fill="none" stroke="#6666ff" cx="-115.281" cy="269.72" rx="127.277" ry="18"/>
<text text-anchor="middle" x="-115.281" y="273.42" font-family="FreeSans" font-size="14.00" fill="#6666ff">Metamodel::MethodContainer</text>
</a>
</g>
</g>
<!-- Metamodel::AttributeContainer -->
<g id="node8" class="node"><title>Metamodel::AttributeContainer</title>
<g id="a_node8"><a xlink:href="/type/Metamodel::AttributeContainer" xlink:title="Metamodel::AttributeContainer">
<ellipse fill="none" stroke="#6666ff" cx="448.302" cy="47.2222" rx="129.977" ry="18"/>
<text text-anchor="middle" x="448.302" y="50.9222" font-family="FreeSans" font-size="14.00" fill="#6666ff">Metamodel::AttributeContainer</text>
</a>
</g>
</g>
<!-- Metamodel::RoleContainer -->
<g id="node9" class="node"><title>Metamodel::RoleContainer</title>
<g id="a_node9"><a xlink:href="/type/Metamodel::RoleContainer" xlink:title="Metamodel::RoleContainer">
<ellipse fill="none" stroke="#6666ff" cx="189.046" cy="208.726" rx="115.88" ry="18"/>
<text text-anchor="middle" x="189.046" y="212.426" font-family="FreeSans" font-size="14.00" fill="#6666ff">Metamodel::RoleContainer</text>
</a>
</g>
</g>
<!-- Metamodel::MultipleInheritance -->
<g id="node10" class="node"><title>Metamodel::MultipleInheritance</title>
<g id="a_node10"><a xlink:href="/type/Metamodel::MultipleInheritance" xlink:title="Metamodel::MultipleInheritance">
<ellipse fill="none" stroke="#6666ff" cx="64.581" cy="-225.895" rx="133.776" ry="18"/>
<text text-anchor="middle" x="64.581" y="-222.195" font-family="FreeSans" font-size="14.00" fill="#6666ff">Metamodel::MultipleInheritance</text>
</a>
</g>
</g>
<!-- Metamodel::ConcreteRoleHOW -->
<g id="node11" class="node"><title>Metamodel::ConcreteRoleHOW</title>
<g id="a_node11"><a xlink:href="/type/Metamodel::ConcreteRoleHOW" xlink:title="Metamodel::ConcreteRoleHOW">
<ellipse fill="none" stroke="#000000" cx="872.977" cy="34.4624" rx="135.676" ry="18"/>
<text text-anchor="middle" x="872.977" y="38.1624" font-family="FreeSans" font-size="14.00" fill="#000000">Metamodel::ConcreteRoleHOW</text>
</a>
</g>
</g>
<!-- Metamodel::ConcreteRoleHOW&#45;&gt;Metamodel::MultiMethodContainer -->
<g id="edge10" class="edge"><title>Metamodel::ConcreteRoleHOW&#45;&gt;Metamodel::MultiMethodContainer</title>
<path fill="none" stroke="#6666ff" d="M798.269,19.4063C681.433,-4.14019 456.069,-49.559 332.375,-74.4876"/>
<polygon fill="#6666ff" stroke="#6666ff" points="331.665,-71.0602 322.554,-76.467 333.048,-77.9223 331.665,-71.0602"/>
</g>
<!-- Metamodel::ConcreteRoleHOW&#45;&gt;Any -->
<g id="edge2" class="edge"><title>Metamodel::ConcreteRoleHOW&#45;&gt;Any</title>
<path fill="none" stroke="#000000" d="M845.288,52.259C779.649,94.4467 615.135,200.185 548.649,242.917"/>
<polygon fill="#000000" stroke="#000000" points="550.244,246.053 539.939,248.516 546.459,240.165 550.244,246.053"/>
</g>
<!-- Metamodel::ConcreteRoleHOW&#45;&gt;Metamodel::Naming -->
<g id="edge6" class="edge"><title>Metamodel::ConcreteRoleHOW&#45;&gt;Metamodel::Naming</title>
<path fill="none" stroke="#6666ff" d="M737.734,32.2315C561.794,29.3293 258.434,24.3252 101.633,21.7387"/>
<polygon fill="#6666ff" stroke="#6666ff" points="101.461,25.2364 91.5199,21.5719 101.576,18.2374 101.461,25.2364"/>
</g>
<!-- Metamodel::ConcreteRoleHOW&#45;&gt;Metamodel::Versioning -->
<g id="edge7" class="edge"><title>Metamodel::ConcreteRoleHOW&#45;&gt;Metamodel::Versioning</title>
<path fill="none" stroke="#6666ff" d="M856.888,16.4418C809.251,-36.9151 672.229,-190.391 672.229,-190.391 672.229,-190.391 391.585,-372.481 290.541,-438.041"/>
<polygon fill="#6666ff" stroke="#6666ff" points="288.38,-435.272 281.896,-443.651 292.19,-441.144 288.38,-435.272"/>
</g>
<!-- Metamodel::ConcreteRoleHOW&#45;&gt;Metamodel::PrivateMethodContainer -->
<g id="edge8" class="edge"><title>Metamodel::ConcreteRoleHOW&#45;&gt;Metamodel::PrivateMethodContainer</title>
<path fill="none" stroke="#6666ff" d="M835.043,17.0347C720.242,-35.7079 384.368,-190.017 384.368,-190.017 384.368,-190.017 120.68,-408.952 30.7994,-483.578"/>
<polygon fill="#6666ff" stroke="#6666ff" points="28.361,-481.053 22.9031,-490.134 32.8326,-486.439 28.361,-481.053"/>
</g>
<!-- Metamodel::ConcreteRoleHOW&#45;&gt;Metamodel::MethodContainer -->
<g id="edge9" class="edge"><title>Metamodel::ConcreteRoleHOW&#45;&gt;Metamodel::MethodContainer</title>
<path fill="none" stroke="#6666ff" d="M800.124,49.7002C608.659,89.7468 105.941,194.895 105.941,194.895 105.941,194.895 9.45041,227.532 -56.0797,249.696"/>
<polygon fill="#6666ff" stroke="#6666ff" points="-55.3154,253.133 -65.9097,253.021 -57.5583,246.502 -55.3154,253.133"/>
</g>
<!-- Metamodel::ConcreteRoleHOW&#45;&gt;Metamodel::AttributeContainer -->
<g id="edge11" class="edge"><title>Metamodel::ConcreteRoleHOW&#45;&gt;Metamodel::AttributeContainer</title>
<path fill="none" stroke="#6666ff" d="M740.354,38.4472C691.174,39.9249 635.321,41.603 585.723,43.0933"/>
<polygon fill="#6666ff" stroke="#6666ff" points="585.666,46.5965 575.565,43.3985 585.456,39.5996 585.666,46.5965"/>
</g>
<!-- Metamodel::ConcreteRoleHOW&#45;&gt;Metamodel::RoleContainer -->
<g id="edge12" class="edge"><title>Metamodel::ConcreteRoleHOW&#45;&gt;Metamodel::RoleContainer</title>
<path fill="none" stroke="#6666ff" d="M810.165,50.4667C682.427,83.0138 393.174,156.715 259.369,190.808"/>
<polygon fill="#6666ff" stroke="#6666ff" points="260.175,194.214 249.62,193.292 258.446,187.431 260.175,194.214"/>
</g>
<!-- Metamodel::ConcreteRoleHOW&#45;&gt;Metamodel::MultipleInheritance -->
<g id="edge13" class="edge"><title>Metamodel::ConcreteRoleHOW&#45;&gt;Metamodel::MultipleInheritance</title>
<path fill="none" stroke="#6666ff" d="M821.178,17.7799C678.387,-28.2082 279.562,-156.656 125.966,-206.125"/>
<polygon fill="#6666ff" stroke="#6666ff" points="124.654,-202.87 116.209,-209.267 126.8,-209.533 124.654,-202.87"/>
</g>
<!-- Metamodel::Documenting -->
<g id="node12" class="node"><title>Metamodel::Documenting</title>
<g id="a_node12"><a xlink:href="/type/Metamodel::Documenting" xlink:title="Metamodel::Documenting">
<ellipse fill="none" stroke="#6666ff" cx="-275.845" cy="-525.785" rx="111.28" ry="18"/>
<text text-anchor="middle" x="-275.845" y="-522.085" font-family="FreeSans" font-size="14.00" fill="#6666ff">Metamodel::Documenting</text>
</a>
</g>
</g>
<!-- Metamodel::Stashing -->
<g id="node13" class="node"><title>Metamodel::Stashing</title>
<g id="a_node13"><a xlink:href="/type/Metamodel::Stashing" xlink:title="Metamodel::Stashing">
<ellipse fill="none" stroke="#6666ff" cx="-198.038" cy="-213.35" rx="93.6835" ry="18"/>
<text text-anchor="middle" x="-198.038" y="-209.65" font-family="FreeSans" font-size="14.00" fill="#6666ff">Metamodel::Stashing</text>
</a>
</g>
</g>
<!-- Metamodel::Finalization -->
<g id="node14" class="node"><title>Metamodel::Finalization</title>
<g id="a_node14"><a xlink:href="/type/Metamodel::Finalization" xlink:title="Metamodel::Finalization">
<ellipse fill="none" stroke="#6666ff" cx="-488.627" cy="-390.485" rx="103.982" ry="18"/>
<text text-anchor="middle" x="-488.627" y="-386.785" font-family="FreeSans" font-size="14.00" fill="#6666ff">Metamodel::Finalization</text>
</a>
</g>
</g>
<!-- Metamodel::DefaultParent -->
<g id="node15" class="node"><title>Metamodel::DefaultParent</title>
<g id="a_node15"><a xlink:href="/type/Metamodel::DefaultParent" xlink:title="Metamodel::DefaultParent">
<ellipse fill="none" stroke="#6666ff" cx="-825.298" cy="-488.83" rx="113.18" ry="18"/>
<text text-anchor="middle" x="-825.298" y="-485.13" font-family="FreeSans" font-size="14.00" fill="#6666ff">Metamodel::DefaultParent</text>
</a>
</g>
</g>
<!-- Metamodel::C3MRO -->
<g id="node16" class="node"><title>Metamodel::C3MRO</title>
<g id="a_node16"><a xlink:href="/type/Metamodel::C3MRO" xlink:title="Metamodel::C3MRO">
<ellipse fill="none" stroke="#6666ff" cx="-836.803" cy="176.867" rx="92.0841" ry="18"/>
<text text-anchor="middle" x="-836.803" y="180.567" font-family="FreeSans" font-size="14.00" fill="#6666ff">Metamodel::C3MRO</text>
</a>
</g>
</g>
<!-- Metamodel::MROBasedMethodDispatch -->
<g id="node17" class="node"><title>Metamodel::MROBasedMethodDispatch</title>
<g id="a_node17"><a xlink:href="/type/Metamodel::MROBasedMethodDispatch" xlink:title="Metamodel::MROBasedMethodDispatch">
<ellipse fill="none" stroke="#6666ff" cx="-85.3831" cy="557.948" rx="169.77" ry="18"/>
<text text-anchor="middle" x="-85.3831" y="561.648" font-family="FreeSans" font-size="14.00" fill="#6666ff">Metamodel::MROBasedMethodDispatch</text>
</a>
</g>
</g>
<!-- Metamodel::MROBasedTypeChecking -->
<g id="node18" class="node"><title>Metamodel::MROBasedTypeChecking</title>
<g id="a_node18"><a xlink:href="/type/Metamodel::MROBasedTypeChecking" xlink:title="Metamodel::MROBasedTypeChecking">
<ellipse fill="none" stroke="#6666ff" cx="-449.861" cy="237.188" rx="163.271" ry="18"/>
<text text-anchor="middle" x="-449.861" y="240.888" font-family="FreeSans" font-size="14.00" fill="#6666ff">Metamodel::MROBasedTypeChecking</text>
</a>
</g>
</g>
<!-- Metamodel::Trusting -->
<g id="node19" class="node"><title>Metamodel::Trusting</title>
<g id="a_node19"><a xlink:href="/type/Metamodel::Trusting" xlink:title="Metamodel::Trusting">
<ellipse fill="none" stroke="#6666ff" cx="-846.41" cy="-136.971" rx="91.784" ry="18"/>
<text text-anchor="middle" x="-846.41" y="-133.271" font-family="FreeSans" font-size="14.00" fill="#6666ff">Metamodel::Trusting</text>
</a>
</g>
</g>
<!-- Metamodel::BUILDPLAN -->
<g id="node20" class="node"><title>Metamodel::BUILDPLAN</title>
<g id="a_node20"><a xlink:href="/type/Metamodel::BUILDPLAN" xlink:title="Metamodel::BUILDPLAN">
<ellipse fill="none" stroke="#6666ff" cx="-811.496" cy="524.522" rx="109.681" ry="18"/>
<text text-anchor="middle" x="-811.496" y="528.222" font-family="FreeSans" font-size="14.00" fill="#6666ff">Metamodel::BUILDPLAN</text>
</a>
</g>
</g>
<!-- Metamodel::Mixins -->
<g id="node21" class="node"><title>Metamodel::Mixins</title>
<g id="a_node21"><a xlink:href="/type/Metamodel::Mixins" xlink:title="Metamodel::Mixins">
<ellipse fill="none" stroke="#6666ff" cx="-484.559" cy="-61.5071" rx="85.2851" ry="18"/>
<text text-anchor="middle" x="-484.559" y="-57.8071" font-family="FreeSans" font-size="14.00" fill="#6666ff">Metamodel::Mixins</text>
</a>
</g>
</g>
<!-- Metamodel::BoolificationProtocol -->
<g id="node22" class="node"><title>Metamodel::BoolificationProtocol</title>
<g id="a_node22"><a xlink:href="/type/Metamodel::BoolificationProtocol" xlink:title="Metamodel::BoolificationProtocol">
<ellipse fill="none" stroke="#6666ff" cx="-393.38" cy="541.72" rx="139.175" ry="18"/>
<text text-anchor="middle" x="-393.38" y="545.42" font-family="FreeSans" font-size="14.00" fill="#6666ff">Metamodel::BoolificationProtocol</text>
</a>
</g>
</g>
<!-- Metamodel::ClassHOW -->
<g id="node23" class="node"><title>Metamodel::ClassHOW</title>
<g id="a_node23"><a xlink:href="/type/Metamodel::ClassHOW" xlink:title="Metamodel::ClassHOW">
<ellipse fill="none" stroke="#000000" cx="-239.14" cy="42.277" rx="103.982" ry="18"/>
<text text-anchor="middle" x="-239.14" y="45.977" font-family="FreeSans" font-size="14.00" fill="#000000">Metamodel::ClassHOW</text>
</a>
</g>
</g>
<!-- Metamodel::ClassHOW&#45;&gt;Metamodel::MultiMethodContainer -->
<g id="edge22" class="edge"><title>Metamodel::ClassHOW&#45;&gt;Metamodel::MultiMethodContainer</title>
<path fill="none" stroke="#6666ff" d="M-183.972,27.0139C-95.1539,2.44051 79.3857,-45.8493 176.512,-72.7211"/>
<polygon fill="#6666ff" stroke="#6666ff" points="175.667,-76.1188 186.238,-75.4121 177.533,-69.3722 175.667,-76.1188"/>
</g>
<!-- Metamodel::ClassHOW&#45;&gt;Any -->
<g id="edge3" class="edge"><title>Metamodel::ClassHOW&#45;&gt;Any</title>
<path fill="none" stroke="#000000" d="M-185.448,57.7628C-39.0631,99.9837 364.144,216.278 485.259,251.211"/>
<polygon fill="#000000" stroke="#000000" points="486.478,247.92 495.117,254.054 484.539,254.645 486.478,247.92"/>
</g>
<!-- Metamodel::ClassHOW&#45;&gt;Metamodel::Naming -->
<g id="edge14" class="edge"><title>Metamodel::ClassHOW&#45;&gt;Metamodel::Naming</title>
<path fill="none" stroke="#6666ff" d="M-147.21,33.7916C-128.753,32.088 -109.353,30.2974 -90.8876,28.593"/>
<polygon fill="#6666ff" stroke="#6666ff" points="-91.0164,25.0901 -80.737,27.6561 -90.373,32.0604 -91.0164,25.0901"/>
</g>
<!-- Metamodel::ClassHOW&#45;&gt;Metamodel::Versioning -->
<g id="edge16" class="edge"><title>Metamodel::ClassHOW&#45;&gt;Metamodel::Versioning</title>
<path fill="none" stroke="#6666ff" d="M-227.84,24.2662C-190.12,-35.8573 -70.9071,-225.877 -70.9071,-225.877 -70.9071,-225.877 139.936,-378.204 222.36,-437.753"/>
<polygon fill="#6666ff" stroke="#6666ff" points="220.458,-440.696 230.613,-443.715 224.557,-435.022 220.458,-440.696"/>
</g>
<!-- Metamodel::ClassHOW&#45;&gt;Metamodel::PrivateMethodContainer -->
<g id="edge21" class="edge"><title>Metamodel::ClassHOW&#45;&gt;Metamodel::PrivateMethodContainer</title>
<path fill="none" stroke="#6666ff" d="M-229.556,24.2913C-198.533,-33.9288 -102.849,-213.499 -102.849,-213.499 -102.849,-213.499 -34.3359,-407.509 -8.49862,-480.673"/>
<polygon fill="#6666ff" stroke="#6666ff" points="-11.7779,-481.898 -5.14768,-490.162 -5.17738,-479.567 -11.7779,-481.898"/>
</g>
<!-- Metamodel::ClassHOW&#45;&gt;Metamodel::MethodContainer -->
<g id="edge20" class="edge"><title>Metamodel::ClassHOW&#45;&gt;Metamodel::MethodContainer</title>
<path fill="none" stroke="#6666ff" d="M-229.213,60.5052C-207.463,100.446 -155.509,195.848 -129.967,242.752"/>
<polygon fill="#6666ff" stroke="#6666ff" points="-126.791,241.265 -125.083,251.721 -132.939,244.613 -126.791,241.265"/>
</g>
<!-- Metamodel::ClassHOW&#45;&gt;Metamodel::AttributeContainer -->
<g id="edge18" class="edge"><title>Metamodel::ClassHOW&#45;&gt;Metamodel::AttributeContainer</title>
<path fill="none" stroke="#6666ff" d="M-135.105,43.0254C-16.8557,43.876 176.759,45.2688 308.22,46.2145"/>
<polygon fill="#6666ff" stroke="#6666ff" points="308.392,42.7156 318.366,46.2875 308.341,49.7154 308.392,42.7156"/>
</g>
<!-- Metamodel::ClassHOW&#45;&gt;Metamodel::RoleContainer -->
<g id="edge23" class="edge"><title>Metamodel::ClassHOW&#45;&gt;Metamodel::RoleContainer</title>
<path fill="none" stroke="#6666ff" d="M-196.518,58.8453C-117.693,89.487 50.6288,154.919 136.42,188.269"/>
<polygon fill="#6666ff" stroke="#6666ff" points="137.909,185.092 145.961,191.978 135.373,191.617 137.909,185.092"/>
</g>
<!-- Metamodel::ClassHOW&#45;&gt;Metamodel::MultipleInheritance -->
<g id="edge24" class="edge"><title>Metamodel::ClassHOW&#45;&gt;Metamodel::MultipleInheritance</title>
<path fill="none" stroke="#6666ff" d="M-218.74,24.2651C-165.788,-22.4893 -23.8776,-147.79 36.6281,-201.213"/>
<polygon fill="#6666ff" stroke="#6666ff" points="34.4574,-203.966 44.2702,-207.961 39.0906,-198.719 34.4574,-203.966"/>
</g>
<!-- Metamodel::ClassHOW&#45;&gt;Metamodel::Documenting -->
<g id="edge15" class="edge"><title>Metamodel::ClassHOW&#45;&gt;Metamodel::Documenting</title>
<path fill="none" stroke="#6666ff" d="M-243.029,23.9036C-255.431,-34.6753 -293.227,-213.201 -293.227,-213.201 -293.227,-213.201 -281.724,-420.067 -277.433,-497.226"/>
<polygon fill="#6666ff" stroke="#6666ff" points="-280.905,-497.838 -276.855,-507.628 -273.915,-497.449 -280.905,-497.838"/>
</g>
<!-- Metamodel::ClassHOW&#45;&gt;Metamodel::Stashing -->
<g id="edge17" class="edge"><title>Metamodel::ClassHOW&#45;&gt;Metamodel::Stashing</title>
<path fill="none" stroke="#6666ff" d="M-236.184,23.8929C-229.089,-20.2323 -211.058,-132.376 -202.577,-185.119"/>
<polygon fill="#6666ff" stroke="#6666ff" points="-206.01,-185.815 -200.967,-195.133 -199.099,-184.704 -206.01,-185.815"/>
</g>
<!-- Metamodel::ClassHOW&#45;&gt;Metamodel::Finalization -->
<g id="edge19" class="edge"><title>Metamodel::ClassHOW&#45;&gt;Metamodel::Finalization</title>
<path fill="none" stroke="#6666ff" d="M-249.542,24.2327C-288.534,-43.4038 -426.171,-282.15 -472.94,-363.274"/>
<polygon fill="#6666ff" stroke="#6666ff" points="-476.217,-361.953 -478.18,-372.364 -470.153,-365.449 -476.217,-361.953"/>
</g>
<!-- Metamodel::ClassHOW&#45;&gt;Metamodel::DefaultParent -->
<g id="edge25" class="edge"><title>Metamodel::ClassHOW&#45;&gt;Metamodel::DefaultParent</title>
<path fill="none" stroke="#6666ff" d="M-258.978,24.3018C-346.305,-54.8234 -696.616,-372.234 -797.802,-463.916"/>
<polygon fill="#6666ff" stroke="#6666ff" points="-800.404,-461.551 -805.465,-470.859 -795.704,-466.738 -800.404,-461.551"/>
</g>
<!-- Metamodel::ClassHOW&#45;&gt;Metamodel::C3MRO -->
<g id="edge26" class="edge"><title>Metamodel::ClassHOW&#45;&gt;Metamodel::C3MRO</title>
<path fill="none" stroke="#6666ff" d="M-302.534,56.553C-415.067,81.8946 -648.907,134.554 -766.322,160.995"/>
<polygon fill="#6666ff" stroke="#6666ff" points="-765.762,164.456 -776.286,163.239 -767.299,157.627 -765.762,164.456"/>
</g>
<!-- Metamodel::ClassHOW&#45;&gt;Metamodel::MROBasedMethodDispatch -->
<g id="edge27" class="edge"><title>Metamodel::ClassHOW&#45;&gt;Metamodel::MROBasedMethodDispatch</title>
<path fill="none" stroke="#6666ff" d="M-239.55,60.5141C-240.767,114.512 -244.267,269.832 -244.267,269.832 -244.267,269.832 -139.706,459.441 -100.23,531.025"/>
<polygon fill="#6666ff" stroke="#6666ff" points="-97.0862,529.478 -95.322,539.925 -103.216,532.858 -97.0862,529.478"/>
</g>
<!-- Metamodel::ClassHOW&#45;&gt;Metamodel::MROBasedTypeChecking -->
<g id="edge28" class="edge"><title>Metamodel::ClassHOW&#45;&gt;Metamodel::MROBasedTypeChecking</title>
<path fill="none" stroke="#6666ff" d="M-258.586,60.2644C-296.377,95.22 -379.798,172.381 -422.902,212.252"/>
<polygon fill="#6666ff" stroke="#6666ff" points="-420.744,215.023 -430.462,219.244 -425.497,209.884 -420.744,215.023"/>
</g>
<!-- Metamodel::ClassHOW&#45;&gt;Metamodel::Trusting -->
<g id="edge29" class="edge"><title>Metamodel::ClassHOW&#45;&gt;Metamodel::Trusting</title>
<path fill="none" stroke="#6666ff" d="M-292.201,26.7206C-379.965,0.990693 -545.776,-47.6208 -545.776,-47.6208 -545.776,-47.6208 -698.105,-92.8941 -785.901,-118.987"/>
<polygon fill="#6666ff" stroke="#6666ff" points="-787.163,-115.711 -795.751,-121.915 -785.169,-122.421 -787.163,-115.711"/>
</g>
<!-- Metamodel::ClassHOW&#45;&gt;Metamodel::BUILDPLAN -->
<g id="edge30" class="edge"><title>Metamodel::ClassHOW&#45;&gt;Metamodel::BUILDPLAN</title>
<path fill="none" stroke="#6666ff" d="M-272.13,59.4127C-363.747,107.001 -614.594,237.296 -614.594,237.296 -614.594,237.296 -744.705,427.091 -793.395,498.117"/>
<polygon fill="#6666ff" stroke="#6666ff" points="-790.638,500.285 -799.179,506.554 -796.411,496.327 -790.638,500.285"/>
</g>
<!-- Metamodel::ClassHOW&#45;&gt;Metamodel::Mixins -->
<g id="edge31" class="edge"><title>Metamodel::ClassHOW&#45;&gt;Metamodel::Mixins</title>
<path fill="none" stroke="#6666ff" d="M-278.57,25.6023C-321.707,7.36064 -390.839,-21.8744 -436.962,-41.3791"/>
<polygon fill="#6666ff" stroke="#6666ff" points="-438.591,-38.2675 -446.438,-45.3861 -435.864,-44.7147 -438.591,-38.2675"/>
</g>
<!-- Metamodel::ClassHOW&#45;&gt;Metamodel::BoolificationProtocol -->
<g id="edge32" class="edge"><title>Metamodel::ClassHOW&#45;&gt;Metamodel::BoolificationProtocol</title>
<path fill="none" stroke="#6666ff" d="M-243.466,60.6035C-254.914,109.097 -285.128,237.08 -285.128,237.08 -285.128,237.08 -356.733,438.59 -383.47,513.831"/>
<polygon fill="#6666ff" stroke="#6666ff" points="-380.286,515.325 -386.932,523.576 -386.882,512.981 -380.286,515.325"/>
</g>
<!-- Metamodel::TypePretense -->
<g id="node24" class="node"><title>Metamodel::TypePretense</title>
<g id="a_node24"><a xlink:href="/type/Metamodel::TypePretense" xlink:title="Metamodel::TypePretense">
<ellipse fill="none" stroke="#6666ff" cx="888.967" cy="-416.415" rx="114.28" ry="18"/>
<text text-anchor="middle" x="888.967" y="-412.715" font-family="FreeSans" font-size="14.00" fill="#6666ff">Metamodel::TypePretense</text>
</a>
</g>
</g>
<!-- Metamodel::RolePunning -->
<g id="node25" class="node"><title>Metamodel::RolePunning</title>
<g id="a_node25"><a xlink:href="/type/Metamodel::RolePunning" xlink:title="Metamodel::RolePunning">
<ellipse fill="none" stroke="#6666ff" cx="526.969" cy="-511.519" rx="109.681" ry="18"/>
<text text-anchor="middle" x="526.969" y="-507.819" font-family="FreeSans" font-size="14.00" fill="#6666ff">Metamodel::RolePunning</text>
</a>
</g>
</g>
<!-- Metamodel::ParametricRoleHOW -->
<g id="node26" class="node"><title>Metamodel::ParametricRoleHOW</title>
<g id="a_node26"><a xlink:href="/type/Metamodel::ParametricRoleHOW" xlink:title="Metamodel::ParametricRoleHOW">
<ellipse fill="none" stroke="#000000" cx="528.299" cy="-190.204" rx="142.175" ry="18"/>
<text text-anchor="middle" x="528.299" y="-186.504" font-family="FreeSans" font-size="14.00" fill="#000000">Metamodel::ParametricRoleHOW</text>
</a>
</g>
</g>
<!-- Metamodel::ParametricRoleHOW&#45;&gt;Metamodel::MultiMethodContainer -->
<g id="edge38" class="edge"><title>Metamodel::ParametricRoleHOW&#45;&gt;Metamodel::MultiMethodContainer</title>
<path fill="none" stroke="#6666ff" d="M479.43,-173.196C430.933,-156.317 356.558,-130.432 304.819,-112.425"/>
<polygon fill="#6666ff" stroke="#6666ff" points="305.705,-109.028 295.11,-109.046 303.404,-115.639 305.705,-109.028"/>
</g>
<!-- Metamodel::ParametricRoleHOW&#45;&gt;Any -->
<g id="edge4" class="edge"><title>Metamodel::ParametricRoleHOW&#45;&gt;Any</title>
<path fill="none" stroke="#000000" d="M532.261,-171.976C544.342,-116.403 579.889,47.1224 579.889,47.1224 579.889,47.1224 544.068,175.437 527.883,233.413"/>
<polygon fill="#000000" stroke="#000000" points="531.162,234.682 525.102,243.373 524.42,232.8 531.162,234.682"/>
</g>
<!-- Metamodel::ParametricRoleHOW&#45;&gt;Metamodel::Naming -->
<g id="edge33" class="edge"><title>Metamodel::ParametricRoleHOW&#45;&gt;Metamodel::Naming</title>
<path fill="none" stroke="#6666ff" d="M503.929,-172.422C465.149,-144.125 393.728,-92.0099 393.728,-92.0099 393.728,-92.0099 350.925,-78.1235 350.925,-78.1235 350.925,-78.1235 163.844,-25.5735 63.3819,2.64575"/>
<polygon fill="#6666ff" stroke="#6666ff" points="64.218,6.04629 53.6441,5.38105 62.325,-0.692895 64.218,6.04629"/>
</g>
<!-- Metamodel::ParametricRoleHOW&#45;&gt;Metamodel::Versioning -->
<g id="edge35" class="edge"><title>Metamodel::ParametricRoleHOW&#45;&gt;Metamodel::Versioning</title>
<path fill="none" stroke="#6666ff" d="M509.931,-208.407C462.236,-255.672 334.387,-382.371 279.941,-436.327"/>
<polygon fill="#6666ff" stroke="#6666ff" points="277.4,-433.917 272.761,-443.442 282.328,-438.889 277.4,-433.917"/>
</g>
<!-- Metamodel::ParametricRoleHOW&#45;&gt;Metamodel::PrivateMethodContainer -->
<g id="edge37" class="edge"><title>Metamodel::ParametricRoleHOW&#45;&gt;Metamodel::PrivateMethodContainer</title>
<path fill="none" stroke="#6666ff" d="M498.83,-207.98C409.178,-262.058 139.737,-424.586 39.4032,-485.108"/>
<polygon fill="#6666ff" stroke="#6666ff" points="37.5453,-482.141 30.7903,-490.304 41.1609,-488.135 37.5453,-482.141"/>
</g>
<!-- Metamodel::ParametricRoleHOW&#45;&gt;Metamodel::MethodContainer -->
<g id="edge36" class="edge"><title>Metamodel::ParametricRoleHOW&#45;&gt;Metamodel::MethodContainer</title>
<path fill="none" stroke="#6666ff" d="M503.929,-172.422C465.149,-144.125 393.728,-92.0099 393.728,-92.0099 393.728,-92.0099 30.956,165.796 -82.0713,246.12"/>
<polygon fill="#6666ff" stroke="#6666ff" points="-80.2069,249.089 -90.3857,252.029 -84.2619,243.383 -80.2069,249.089"/>
</g>
<!-- Metamodel::ParametricRoleHOW&#45;&gt;Metamodel::AttributeContainer -->
<g id="edge39" class="edge"><title>Metamodel::ParametricRoleHOW&#45;&gt;Metamodel::AttributeContainer</title>
<path fill="none" stroke="#6666ff" d="M522.154,-171.968C508.252,-130.708 474.31,-29.9671 457.728,19.2447"/>
<polygon fill="#6666ff" stroke="#6666ff" points="460.977,20.5649 454.467,28.9239 454.343,18.3298 460.977,20.5649"/>
</g>
<!-- Metamodel::ParametricRoleHOW&#45;&gt;Metamodel::RoleContainer -->
<g id="edge40" class="edge"><title>Metamodel::ParametricRoleHOW&#45;&gt;Metamodel::RoleContainer</title>
<path fill="none" stroke="#6666ff" d="M512.047,-171.96C462.502,-116.341 316.715,47.3221 316.715,47.3221 316.715,47.3221 245.569,137.268 209.498,182.869"/>
<polygon fill="#6666ff" stroke="#6666ff" points="212.145,185.164 203.197,190.836 206.655,180.822 212.145,185.164"/>
</g>
<!-- Metamodel::ParametricRoleHOW&#45;&gt;Metamodel::MultipleInheritance -->
<g id="edge41" class="edge"><title>Metamodel::ParametricRoleHOW&#45;&gt;Metamodel::MultipleInheritance</title>
<path fill="none" stroke="#6666ff" d="M406.462,-199.581C340.1,-204.689 258.083,-211.002 191.017,-216.163"/>
<polygon fill="#6666ff" stroke="#6666ff" points="190.513,-212.692 180.811,-216.949 191.05,-219.671 190.513,-212.692"/>
</g>
<!-- Metamodel::ParametricRoleHOW&#45;&gt;Metamodel::Documenting -->
<g id="edge34" class="edge"><title>Metamodel::ParametricRoleHOW&#45;&gt;Metamodel::Documenting</title>
<path fill="none" stroke="#6666ff" d="M486.758,-207.54C350.963,-264.209 -79.4883,-443.843 -226.258,-505.092"/>
<polygon fill="#6666ff" stroke="#6666ff" points="-227.629,-501.871 -235.51,-508.953 -224.933,-508.331 -227.629,-501.871"/>
</g>
<!-- Metamodel::ParametricRoleHOW&#45;&gt;Metamodel::Stashing -->
<g id="edge42" class="edge"><title>Metamodel::ParametricRoleHOW&#45;&gt;Metamodel::Stashing</title>
<path fill="none" stroke="#6666ff" d="M389.971,-194.612C248.406,-199.124 31.696,-206.029 -95.3211,-210.077"/>
<polygon fill="#6666ff" stroke="#6666ff" points="-95.5564,-206.583 -105.44,-210.399 -95.3334,-213.579 -95.5564,-206.583"/>
</g>
<!-- Metamodel::ParametricRoleHOW&#45;&gt;Metamodel::TypePretense -->
<g id="edge43" class="edge"><title>Metamodel::ParametricRoleHOW&#45;&gt;Metamodel::TypePretense</title>
<path fill="none" stroke="#6666ff" d="M556.6,-207.955C621.256,-248.507 779.777,-347.931 852.016,-393.24"/>
<polygon fill="#6666ff" stroke="#6666ff" points="850.466,-396.399 860.797,-398.747 854.185,-390.469 850.466,-396.399"/>
</g>
<!-- Metamodel::ParametricRoleHOW&#45;&gt;Metamodel::RolePunning -->
<g id="edge44" class="edge"><title>Metamodel::ParametricRoleHOW&#45;&gt;Metamodel::RolePunning</title>
<path fill="none" stroke="#6666ff" d="M528.223,-208.4C528.003,-261.737 527.356,-418.007 527.088,-482.83"/>
<polygon fill="#6666ff" stroke="#6666ff" points="523.587,-483.11 527.045,-493.124 530.586,-483.139 523.587,-483.11"/>
</g>
<!-- Metamodel::BaseType -->
<g id="node27" class="node"><title>Metamodel::BaseType</title>
<g id="a_node27"><a xlink:href="/type/Metamodel::BaseType" xlink:title="Metamodel::BaseType">
<ellipse fill="none" stroke="#6666ff" cx="470.587" cy="559.12" rx="99.3824" ry="18"/>
<text text-anchor="middle" x="470.587" y="562.82" font-family="FreeSans" font-size="14.00" fill="#6666ff">Metamodel::BaseType</text>
</a>
</g>
</g>
<!-- Metamodel::EnumHOW -->
<g id="node28" class="node"><title>Metamodel::EnumHOW</title>
<g id="a_node28"><a xlink:href="/type/Metamodel::EnumHOW" xlink:title="Metamodel::EnumHOW">
<ellipse fill="none" stroke="#000000" cx="179.146" cy="514.354" rx="104.782" ry="18"/>
<text text-anchor="middle" x="179.146" y="518.054" font-family="FreeSans" font-size="14.00" fill="#000000">Metamodel::EnumHOW</text>
</a>
</g>
</g>
<!-- Metamodel::EnumHOW&#45;&gt;Metamodel::MultiMethodContainer -->
<g id="edge49" class="edge"><title>Metamodel::EnumHOW&#45;&gt;Metamodel::MultiMethodContainer</title>
<path fill="none" stroke="#6666ff" d="M186.721,496.148C214.103,430.344 306.335,208.686 306.335,208.686 306.335,208.686 266.7,11.5657 251.622,-63.4252"/>
<polygon fill="#6666ff" stroke="#6666ff" points="248.123,-63.0715 249.583,-73.5652 254.985,-64.4514 248.123,-63.0715"/>
</g>
<!-- Metamodel::EnumHOW&#45;&gt;Any -->
<g id="edge5" class="edge"><title>Metamodel::EnumHOW&#45;&gt;Any</title>
<path fill="none" stroke="#000000" d="M202.851,496.758C264.421,451.055 429.098,328.818 493.638,280.91"/>
<polygon fill="#000000" stroke="#000000" points="491.592,278.07 501.707,274.92 495.764,283.691 491.592,278.07"/>
</g>
<!-- Metamodel::EnumHOW&#45;&gt;Metamodel::Naming -->
<g id="edge45" class="edge"><title>Metamodel::EnumHOW&#45;&gt;Metamodel::Naming</title>
<path fill="none" stroke="#6666ff" d="M172.605,496.176C145.723,421.465 43.639,137.748 11.2356,47.6913"/>
<polygon fill="#6666ff" stroke="#6666ff" points="7.90028,48.7594 7.8079,38.165 14.4869,46.3894 7.90028,48.7594"/>
</g>
<!-- Metamodel::EnumHOW&#45;&gt;Metamodel::MethodContainer -->
<g id="edge48" class="edge"><title>Metamodel::EnumHOW&#45;&gt;Metamodel::MethodContainer</title>
<path fill="none" stroke="#6666ff" d="M157.496,496.365C105.493,453.157 -26.5211,343.469 -85.7419,294.264"/>
<polygon fill="#6666ff" stroke="#6666ff" points="-88.1445,296.818 -93.5992,287.735 -83.6709,291.434 -88.1445,296.818"/>
</g>
<!-- Metamodel::EnumHOW&#45;&gt;Metamodel::AttributeContainer -->
<g id="edge47" class="edge"><title>Metamodel::EnumHOW&#45;&gt;Metamodel::AttributeContainer</title>
<path fill="none" stroke="#6666ff" d="M189.532,496.328C230.831,424.652 383.551,159.601 432.85,74.0403"/>
<polygon fill="#6666ff" stroke="#6666ff" points="429.921,72.1116 437.947,65.1944 435.987,75.6064 429.921,72.1116"/>
</g>
<!-- Metamodel::EnumHOW&#45;&gt;Metamodel::RoleContainer -->
<g id="edge50" class="edge"><title>Metamodel::EnumHOW&#45;&gt;Metamodel::RoleContainer</title>
<path fill="none" stroke="#6666ff" d="M179.735,496.151C181.397,444.871 186.124,298.934 188.129,237.035"/>
<polygon fill="#6666ff" stroke="#6666ff" points="184.637,236.715 188.459,226.834 191.634,236.942 184.637,236.715"/>
</g>
<!-- Metamodel::EnumHOW&#45;&gt;Metamodel::Stashing -->
<g id="edge46" class="edge"><title>Metamodel::EnumHOW&#45;&gt;Metamodel::Stashing</title>
<path fill="none" stroke="#6666ff" d="M169.224,496.178C120.551,407.014 -90.6396,20.1344 -90.6396,20.1344 -90.6396,20.1344 -157.315,-124.819 -185.596,-186.301"/>
<polygon fill="#6666ff" stroke="#6666ff" points="-188.79,-184.869 -189.789,-195.417 -182.43,-187.794 -188.79,-184.869"/>
</g>
<!-- Metamodel::EnumHOW&#45;&gt;Metamodel::MROBasedMethodDispatch -->
<g id="edge52" class="edge"><title>Metamodel::EnumHOW&#45;&gt;Metamodel::MROBasedMethodDispatch</title>
<path fill="none" stroke="#6666ff" d="M103.342,526.846C76.4383,531.28 45.6971,536.346 16.9473,541.084"/>
<polygon fill="#6666ff" stroke="#6666ff" points="17.3069,544.572 6.8708,542.744 16.1686,537.665 17.3069,544.572"/>
</g>
<!-- Metamodel::EnumHOW&#45;&gt;Metamodel::MROBasedTypeChecking -->
<g id="edge53" class="edge"><title>Metamodel::EnumHOW&#45;&gt;Metamodel::MROBasedTypeChecking</title>
<path fill="none" stroke="#6666ff" d="M140.745,497.433C31.8018,449.428 -279.174,312.399 -400.518,258.93"/>
<polygon fill="#6666ff" stroke="#6666ff" points="-402.212,262.009 -409.952,254.774 -399.389,255.603 -402.212,262.009"/>
</g>
<!-- Metamodel::EnumHOW&#45;&gt;Metamodel::BUILDPLAN -->
<g id="edge54" class="edge"><title>Metamodel::EnumHOW&#45;&gt;Metamodel::BUILDPLAN</title>
<path fill="none" stroke="#6666ff" d="M74.5353,515.428C-110.866,517.331 -495.964,521.283 -691.698,523.292"/>
<polygon fill="#6666ff" stroke="#6666ff" points="-691.698,526.792 -701.734,523.395 -691.77,519.792 -691.698,526.792"/>
</g>
<!-- Metamodel::EnumHOW&#45;&gt;Metamodel::BoolificationProtocol -->
<g id="edge55" class="edge"><title>Metamodel::EnumHOW&#45;&gt;Metamodel::BoolificationProtocol</title>
<path fill="none" stroke="#6666ff" d="M78.1076,519.183C-13.6959,523.572 -150.039,530.089 -252.526,534.987"/>
<polygon fill="#6666ff" stroke="#6666ff" points="-252.493,538.49 -262.649,535.471 -252.827,531.498 -252.493,538.49"/>
</g>
<!-- Metamodel::EnumHOW&#45;&gt;Metamodel::BaseType -->
<g id="edge51" class="edge"><title>Metamodel::EnumHOW&#45;&gt;Metamodel::BaseType</title>
<path fill="none" stroke="#6666ff" d="M257.247,526.35C296.495,532.379 344.151,539.699 384.459,545.891"/>
<polygon fill="#6666ff" stroke="#6666ff" points="385.186,542.461 394.539,547.439 384.123,549.38 385.186,542.461"/>
</g>
</g>
</svg>
