<?xml version="1.0" encoding="UTF-8" standalone="no"?>
<!DOCTYPE svg PUBLIC "-//W3C//DTD SVG 1.1//EN"
 "http://www.w3.org/Graphics/SVG/1.1/DTD/svg11.dtd">
<!-- Generated by graphviz version 2.38.0 (20140413.2041)
 -->
<!-- Title: perl6&#45;type&#45;graph Pages: 1 -->
<svg width="2401pt" height="1473pt"
 viewBox="0.00 0.00 2400.65 1472.57" xmlns="http://www.w3.org/2000/svg" xmlns:xlink="http://www.w3.org/1999/xlink">
<g id="graph0" class="graph" transform="scale(1 1) rotate(0) translate(1219.57 772.376)">
<title>perl6&#45;type&#45;graph</title>
<polygon fill="white" stroke="none" points="-1219.57,700.193 -1219.57,-772.376 1181.08,-772.376 1181.08,700.193 -1219.57,700.193"/>
<!-- Metamodel::Stashing -->
<g id="node1" class="node"><title>Metamodel::Stashing</title>
<g id="a_node1"><a xlink:href="/type/Metamodel::Stashing" xlink:title="Metamodel::Stashing">
<ellipse fill="none" stroke="#6666ff" cx="-70.6993" cy="-375.002" rx="93.6835" ry="18"/>
<text text-anchor="middle" x="-70.6993" y="-371.302" font-family="FreeSans" font-size="14.00" fill="#6666ff">Metamodel::Stashing</text>
</a>
</g>
</g>
<!-- Mu -->
<g id="node2" class="node"><title>Mu</title>
<g id="a_node2"><a xlink:href="/type/Mu" xlink:title="Mu">
<ellipse fill="none" stroke="#000000" cx="1089.62" cy="-39.1219" rx="27" ry="18"/>
<text text-anchor="middle" x="1089.62" y="-35.4219" font-family="FreeSans" font-size="14.00" fill="#000000">Mu</text>
</a>
</g>
</g>
<!-- Any -->
<g id="node3" class="node"><title>Any</title>
<g id="a_node3"><a xlink:href="/type/Any" xlink:title="Any">
<ellipse fill="none" stroke="#000000" cx="395.468" cy="-310.371" rx="27" ry="18"/>
<text text-anchor="middle" x="395.468" y="-306.671" font-family="FreeSans" font-size="14.00" fill="#000000">Any</text>
</a>
</g>
</g>
<!-- Any&#45;&gt;Mu -->
<g id="edge1" class="edge"><title>Any&#45;&gt;Mu</title>
<path fill="none" stroke="#000000" d="M418.962,-301.19C522.273,-260.82 936.395,-98.9953 1056.69,-51.9871"/>
<polygon fill="#000000" stroke="#000000" points="1058.09,-55.1996 1066.13,-48.3 1055.54,-48.6797 1058.09,-55.1996"/>
</g>
<!-- Metamodel::Naming -->
<g id="node4" class="node"><title>Metamodel::Naming</title>
<g id="a_node4"><a xlink:href="/type/Metamodel::Naming" xlink:title="Metamodel::Naming">
<ellipse fill="none" stroke="#6666ff" cx="129.215" cy="-152.148" rx="90.1842" ry="18"/>
<text text-anchor="middle" x="129.215" y="-148.448" font-family="FreeSans" font-size="14.00" fill="#6666ff">Metamodel::Naming</text>
</a>
</g>
</g>
<!-- Metamodel::AttributeContainer -->
<g id="node5" class="node"><title>Metamodel::AttributeContainer</title>
<g id="a_node5"><a xlink:href="/type/Metamodel::AttributeContainer" xlink:title="Metamodel::AttributeContainer">
<ellipse fill="none" stroke="#6666ff" cx="115.445" cy="90.6998" rx="129.977" ry="18"/>
<text text-anchor="middle" x="115.445" y="94.3998" font-family="FreeSans" font-size="14.00" fill="#6666ff">Metamodel::AttributeContainer</text>
</a>
</g>
</g>
<!-- Metamodel::MethodContainer -->
<g id="node6" class="node"><title>Metamodel::MethodContainer</title>
<g id="a_node6"><a xlink:href="/type/Metamodel::MethodContainer" xlink:title="Metamodel::MethodContainer">
<ellipse fill="none" stroke="#6666ff" cx="-396.052" cy="-19.2409" rx="127.277" ry="18"/>
<text text-anchor="middle" x="-396.052" y="-15.5409" font-family="FreeSans" font-size="14.00" fill="#6666ff">Metamodel::MethodContainer</text>
</a>
</g>
</g>
<!-- Metamodel::MultiMethodContainer -->
<g id="node7" class="node"><title>Metamodel::MultiMethodContainer</title>
<g id="a_node7"><a xlink:href="/type/Metamodel::MultiMethodContainer" xlink:title="Metamodel::MultiMethodContainer">
<ellipse fill="none" stroke="#6666ff" cx="-394.394" cy="314.174" rx="146.474" ry="18"/>
<text text-anchor="middle" x="-394.394" y="317.874" font-family="FreeSans" font-size="14.00" fill="#6666ff">Metamodel::MultiMethodContainer</text>
</a>
</g>
</g>
<!-- Metamodel::RoleContainer -->
<g id="node8" class="node"><title>Metamodel::RoleContainer</title>
<g id="a_node8"><a xlink:href="/type/Metamodel::RoleContainer" xlink:title="Metamodel::RoleContainer">
<ellipse fill="none" stroke="#6666ff" cx="402.02" cy="-7.34023" rx="115.88" ry="18"/>
<text text-anchor="middle" x="402.02" y="-3.64023" font-family="FreeSans" font-size="14.00" fill="#6666ff">Metamodel::RoleContainer</text>
</a>
</g>
</g>
<!-- Metamodel::BaseType -->
<g id="node9" class="node"><title>Metamodel::BaseType</title>
<g id="a_node9"><a xlink:href="/type/Metamodel::BaseType" xlink:title="Metamodel::BaseType">
<ellipse fill="none" stroke="#6666ff" cx="1065.7" cy="566.051" rx="99.3824" ry="18"/>
<text text-anchor="middle" x="1065.7" y="569.751" font-family="FreeSans" font-size="14.00" fill="#6666ff">Metamodel::BaseType</text>
</a>
</g>
</g>
<!-- Metamodel::MROBasedMethodDispatch -->
<g id="node10" class="node"><title>Metamodel::MROBasedMethodDispatch</title>
<g id="a_node10"><a xlink:href="/type/Metamodel::MROBasedMethodDispatch" xlink:title="Metamodel::MROBasedMethodDispatch">
<ellipse fill="none" stroke="#6666ff" cx="78.3816" cy="365.647" rx="169.77" ry="18"/>
<text text-anchor="middle" x="78.3816" y="369.347" font-family="FreeSans" font-size="14.00" fill="#6666ff">Metamodel::MROBasedMethodDispatch</text>
</a>
</g>
</g>
<!-- Metamodel::MROBasedTypeChecking -->
<g id="node11" class="node"><title>Metamodel::MROBasedTypeChecking</title>
<g id="a_node11"><a xlink:href="/type/Metamodel::MROBasedTypeChecking" xlink:title="Metamodel::MROBasedTypeChecking">
<ellipse fill="none" stroke="#6666ff" cx="-22.0909" cy="678.193" rx="163.271" ry="18"/>
<text text-anchor="middle" x="-22.0909" y="681.893" font-family="FreeSans" font-size="14.00" fill="#6666ff">Metamodel::MROBasedTypeChecking</text>
</a>
</g>
</g>
<!-- Metamodel::BUILDPLAN -->
<g id="node12" class="node"><title>Metamodel::BUILDPLAN</title>
<g id="a_node12"><a xlink:href="/type/Metamodel::BUILDPLAN" xlink:title="Metamodel::BUILDPLAN">
<ellipse fill="none" stroke="#6666ff" cx="271.162" cy="678.028" rx="109.681" ry="18"/>
<text text-anchor="middle" x="271.162" y="681.728" font-family="FreeSans" font-size="14.00" fill="#6666ff">Metamodel::BUILDPLAN</text>
</a>
</g>
</g>
<!-- Metamodel::BoolificationProtocol -->
<g id="node13" class="node"><title>Metamodel::BoolificationProtocol</title>
<g id="a_node13"><a xlink:href="/type/Metamodel::BoolificationProtocol" xlink:title="Metamodel::BoolificationProtocol">
<ellipse fill="none" stroke="#6666ff" cx="706.595" cy="196.913" rx="139.175" ry="18"/>
<text text-anchor="middle" x="706.595" y="200.613" font-family="FreeSans" font-size="14.00" fill="#6666ff">Metamodel::BoolificationProtocol</text>
</a>
</g>
</g>
<!-- Metamodel::EnumHOW -->
<g id="node14" class="node"><title>Metamodel::EnumHOW</title>
<g id="a_node14"><a xlink:href="/type/Metamodel::EnumHOW" xlink:title="Metamodel::EnumHOW">
<ellipse fill="none" stroke="#000000" cx="370.014" cy="311.222" rx="104.782" ry="18"/>
<text text-anchor="middle" x="370.014" y="314.922" font-family="FreeSans" font-size="14.00" fill="#000000">Metamodel::EnumHOW</text>
</a>
</g>
</g>
<!-- Metamodel::EnumHOW&#45;&gt;Metamodel::Stashing -->
<g id="edge10" class="edge"><title>Metamodel::EnumHOW&#45;&gt;Metamodel::Stashing</title>
<path fill="none" stroke="#6666ff" d="M359.949,293.164C330.577,240.461 247.029,90.5508 247.029,90.5508 247.029,90.5508 37.2752,-152.01 37.2752,-152.01 37.2752,-152.01 -28.5436,-287.941 -57.4046,-347.545"/>
<polygon fill="#6666ff" stroke="#6666ff" points="-60.6553,-346.228 -61.8633,-356.753 -54.3551,-349.278 -60.6553,-346.228"/>
</g>
<!-- Metamodel::EnumHOW&#45;&gt;Any -->
<g id="edge2" class="edge"><title>Metamodel::EnumHOW&#45;&gt;Any</title>
<path fill="none" stroke="#000000" d="M365.184,293.186C347.143,225.812 284.731,-7.2666 284.731,-7.2666 284.731,-7.2666 358.317,-208.682 385.518,-283.136"/>
<polygon fill="#000000" stroke="#000000" points="382.317,-284.573 389.036,-292.764 388.892,-282.171 382.317,-284.573"/>
</g>
<!-- Metamodel::EnumHOW&#45;&gt;Metamodel::Naming -->
<g id="edge9" class="edge"><title>Metamodel::EnumHOW&#45;&gt;Metamodel::Naming</title>
<path fill="none" stroke="#6666ff" d="M360.574,293.057C323.483,221.683 187.609,-39.7803 143.294,-125.056"/>
<polygon fill="#6666ff" stroke="#6666ff" points="140.095,-123.622 138.589,-134.109 146.306,-126.849 140.095,-123.622"/>
</g>
<!-- Metamodel::EnumHOW&#45;&gt;Metamodel::AttributeContainer -->
<g id="edge11" class="edge"><title>Metamodel::EnumHOW&#45;&gt;Metamodel::AttributeContainer</title>
<path fill="none" stroke="#6666ff" d="M349.612,293.549C304.478,254.451 196.071,160.543 144.133,115.551"/>
<polygon fill="#6666ff" stroke="#6666ff" points="141.567,117.959 136.3,108.766 146.15,112.668 141.567,117.959"/>
</g>
<!-- Metamodel::EnumHOW&#45;&gt;Metamodel::MethodContainer -->
<g id="edge12" class="edge"><title>Metamodel::EnumHOW&#45;&gt;Metamodel::MethodContainer</title>
<path fill="none" stroke="#6666ff" d="M331.236,294.494C203.386,239.343 -204.738,63.2878 -346.765,2.02056"/>
<polygon fill="#6666ff" stroke="#6666ff" points="-348.331,5.15674 -356.127,-2.01799 -345.559,-1.27073 -348.331,5.15674"/>
</g>
<!-- Metamodel::EnumHOW&#45;&gt;Metamodel::MultiMethodContainer -->
<g id="edge13" class="edge"><title>Metamodel::EnumHOW&#45;&gt;Metamodel::MultiMethodContainer</title>
<path fill="none" stroke="#6666ff" d="M265.329,311.626C135.324,312.128 -87.6228,312.989 -237.948,313.569"/>
<polygon fill="#6666ff" stroke="#6666ff" points="-238.179,317.07 -248.193,313.609 -238.206,310.07 -238.179,317.07"/>
</g>
<!-- Metamodel::EnumHOW&#45;&gt;Metamodel::RoleContainer -->
<g id="edge14" class="edge"><title>Metamodel::EnumHOW&#45;&gt;Metamodel::RoleContainer</title>
<path fill="none" stroke="#6666ff" d="M371.826,293.182C377.139,240.302 392.705,85.3704 399.162,21.103"/>
<polygon fill="#6666ff" stroke="#6666ff" points="395.706,20.4968 400.188,10.8968 402.67,21.1966 395.706,20.4968"/>
</g>
<!-- Metamodel::EnumHOW&#45;&gt;Metamodel::BaseType -->
<g id="edge15" class="edge"><title>Metamodel::EnumHOW&#45;&gt;Metamodel::BaseType</title>
<path fill="none" stroke="#6666ff" d="M414.59,327.55C537.177,372.454 879.044,497.68 1011.92,546.351"/>
<polygon fill="#6666ff" stroke="#6666ff" points="1013.31,543.133 1021.49,549.859 1010.9,549.705 1013.31,543.133"/>
</g>
<!-- Metamodel::EnumHOW&#45;&gt;Metamodel::MROBasedMethodDispatch -->
<g id="edge16" class="edge"><title>Metamodel::EnumHOW&#45;&gt;Metamodel::MROBasedMethodDispatch</title>
<path fill="none" stroke="#6666ff" d="M299.045,324.466C260.962,331.573 213.534,340.424 172.418,348.098"/>
<polygon fill="#6666ff" stroke="#6666ff" points="172.858,351.576 162.386,349.97 171.574,344.695 172.858,351.576"/>
</g>
<!-- Metamodel::EnumHOW&#45;&gt;Metamodel::MROBasedTypeChecking -->
<g id="edge17" class="edge"><title>Metamodel::EnumHOW&#45;&gt;Metamodel::MROBasedTypeChecking</title>
<path fill="none" stroke="#6666ff" d="M350.836,329.17C286.601,389.288 78.8955,583.68 4.62354,653.191"/>
<polygon fill="#6666ff" stroke="#6666ff" points="6.74246,656.001 -2.95039,660.279 1.9592,650.891 6.74246,656.001"/>
</g>
<!-- Metamodel::EnumHOW&#45;&gt;Metamodel::BUILDPLAN -->
<g id="edge18" class="edge"><title>Metamodel::EnumHOW&#45;&gt;Metamodel::BUILDPLAN</title>
<path fill="none" stroke="#6666ff" d="M365.112,329.412C349.071,388.934 298.069,578.183 278.712,650.012"/>
<polygon fill="#6666ff" stroke="#6666ff" points="282.075,650.983 276.093,659.728 275.316,649.162 282.075,650.983"/>
</g>
<!-- Metamodel::EnumHOW&#45;&gt;Metamodel::BoolificationProtocol -->
<g id="edge19" class="edge"><title>Metamodel::EnumHOW&#45;&gt;Metamodel::BoolificationProtocol</title>
<path fill="none" stroke="#6666ff" d="M417.524,295.087C477.764,274.628 581.642,239.349 647.096,217.12"/>
<polygon fill="#6666ff" stroke="#6666ff" points="646.267,213.705 656.861,213.804 648.518,220.334 646.267,213.705"/>
</g>
<!-- Metamodel::Documenting -->
<g id="node15" class="node"><title>Metamodel::Documenting</title>
<g id="a_node15"><a xlink:href="/type/Metamodel::Documenting" xlink:title="Metamodel::Documenting">
<ellipse fill="none" stroke="#6666ff" cx="-200.819" cy="-721.118" rx="111.28" ry="18"/>
<text text-anchor="middle" x="-200.819" y="-717.418" font-family="FreeSans" font-size="14.00" fill="#6666ff">Metamodel::Documenting</text>
</a>
</g>
</g>
<!-- Metamodel::Versioning -->
<g id="node16" class="node"><title>Metamodel::Versioning</title>
<g id="a_node16"><a xlink:href="/type/Metamodel::Versioning" xlink:title="Metamodel::Versioning">
<ellipse fill="none" stroke="#6666ff" cx="-689.035" cy="-265.277" rx="100.983" ry="18"/>
<text text-anchor="middle" x="-689.035" y="-261.577" font-family="FreeSans" font-size="14.00" fill="#6666ff">Metamodel::Versioning</text>
</a>
</g>
</g>
<!-- Metamodel::MultipleInheritance -->
<g id="node17" class="node"><title>Metamodel::MultipleInheritance</title>
<g id="a_node17"><a xlink:href="/type/Metamodel::MultipleInheritance" xlink:title="Metamodel::MultipleInheritance">
<ellipse fill="none" stroke="#6666ff" cx="-716.707" cy="187.522" rx="133.776" ry="18"/>
<text text-anchor="middle" x="-716.707" y="191.222" font-family="FreeSans" font-size="14.00" fill="#6666ff">Metamodel::MultipleInheritance</text>
</a>
</g>
</g>
<!-- Metamodel::C3MRO -->
<g id="node18" class="node"><title>Metamodel::C3MRO</title>
<g id="a_node18"><a xlink:href="/type/Metamodel::C3MRO" xlink:title="Metamodel::C3MRO">
<ellipse fill="none" stroke="#6666ff" cx="-1096.67" cy="-43.9496" rx="92.0841" ry="18"/>
<text text-anchor="middle" x="-1096.67" y="-40.2496" font-family="FreeSans" font-size="14.00" fill="#6666ff">Metamodel::C3MRO</text>
</a>
</g>
</g>
<!-- Metamodel::NativeHOW -->
<g id="node19" class="node"><title>Metamodel::NativeHOW</title>
<g id="a_node19"><a xlink:href="/type/Metamodel::NativeHOW" xlink:title="Metamodel::NativeHOW">
<ellipse fill="none" stroke="#000000" cx="-127.275" cy="-68.4817" rx="107.482" ry="18"/>
<text text-anchor="middle" x="-127.275" y="-64.7817" font-family="FreeSans" font-size="14.00" fill="#000000">Metamodel::NativeHOW</text>
</a>
</g>
</g>
<!-- Metamodel::NativeHOW&#45;&gt;Metamodel::Stashing -->
<g id="edge23" class="edge"><title>Metamodel::NativeHOW&#45;&gt;Metamodel::Stashing</title>
<path fill="none" stroke="#6666ff" d="M-123.906,-86.738C-114.394,-138.274 -87.2862,-285.137 -75.8689,-346.994"/>
<polygon fill="#6666ff" stroke="#6666ff" points="-79.3084,-347.643 -74.0513,-356.841 -72.4247,-346.372 -79.3084,-347.643"/>
</g>
<!-- Metamodel::NativeHOW&#45;&gt;Any -->
<g id="edge3" class="edge"><title>Metamodel::NativeHOW&#45;&gt;Any</title>
<path fill="none" stroke="#000000" d="M-93.5645,-85.6755C-38.7261,-113.645 63.7456,-165.909 63.7456,-165.909 63.7456,-165.909 280.239,-260.19 363.434,-296.42"/>
<polygon fill="#000000" stroke="#000000" points="362.102,-299.657 372.668,-300.441 364.897,-293.24 362.102,-299.657"/>
</g>
<!-- Metamodel::NativeHOW&#45;&gt;Metamodel::Naming -->
<g id="edge20" class="edge"><title>Metamodel::NativeHOW&#45;&gt;Metamodel::Naming</title>
<path fill="none" stroke="#6666ff" d="M-78.125,-84.5144C-35.1659,-98.5275 27.2198,-118.878 72.3276,-133.592"/>
<polygon fill="#6666ff" stroke="#6666ff" points="71.371,-136.961 81.9634,-136.735 73.5418,-130.306 71.371,-136.961"/>
</g>
<!-- Metamodel::NativeHOW&#45;&gt;Metamodel::MROBasedMethodDispatch -->
<g id="edge26" class="edge"><title>Metamodel::NativeHOW&#45;&gt;Metamodel::MROBasedMethodDispatch</title>
<path fill="none" stroke="#6666ff" d="M-118.7,-50.3804C-86.5583,17.4695 26.8986,256.97 65.4504,338.35"/>
<polygon fill="#6666ff" stroke="#6666ff" points="68.6519,336.933 69.77,347.468 62.3258,339.929 68.6519,336.933"/>
</g>
<!-- Metamodel::NativeHOW&#45;&gt;Metamodel::MROBasedTypeChecking -->
<g id="edge27" class="edge"><title>Metamodel::NativeHOW&#45;&gt;Metamodel::MROBasedTypeChecking</title>
<path fill="none" stroke="#6666ff" d="M-121.941,-50.2639C-102.66,15.5852 -37.7138,237.393 -37.7138,237.393 -37.7138,237.393 -92.8507,365.755 -92.8507,365.755 -92.8507,365.755 -45.8302,573.373 -28.449,650.119"/>
<polygon fill="#6666ff" stroke="#6666ff" points="-24.9965,649.518 -26.2011,660.044 -31.8236,651.065 -24.9965,649.518"/>
</g>
<!-- Metamodel::NativeHOW&#45;&gt;Metamodel::Documenting -->
<g id="edge21" class="edge"><title>Metamodel::NativeHOW&#45;&gt;Metamodel::Documenting</title>
<path fill="none" stroke="#6666ff" d="M-129.575,-86.7356C-137.889,-152.715 -165.891,-374.962 -165.891,-374.962 -165.891,-374.962 -189.624,-610.175 -197.963,-692.82"/>
<polygon fill="#6666ff" stroke="#6666ff" points="-201.468,-692.693 -198.99,-702.994 -194.504,-693.396 -201.468,-692.693"/>
</g>
<!-- Metamodel::NativeHOW&#45;&gt;Metamodel::Versioning -->
<g id="edge22" class="edge"><title>Metamodel::NativeHOW&#45;&gt;Metamodel::Versioning</title>
<path fill="none" stroke="#6666ff" d="M-173.725,-84.7537C-276.431,-120.734 -522.464,-206.924 -633.27,-245.741"/>
<polygon fill="#6666ff" stroke="#6666ff" points="-634.645,-242.514 -642.926,-249.124 -632.331,-249.121 -634.645,-242.514"/>
</g>
<!-- Metamodel::NativeHOW&#45;&gt;Metamodel::MultipleInheritance -->
<g id="edge24" class="edge"><title>Metamodel::NativeHOW&#45;&gt;Metamodel::MultipleInheritance</title>
<path fill="none" stroke="#6666ff" d="M-165.95,-51.6846C-269.457,-6.72905 -552.708,116.293 -667.458,166.132"/>
<polygon fill="#6666ff" stroke="#6666ff" points="-666.162,169.385 -676.728,170.158 -668.95,162.964 -666.162,169.385"/>
</g>
<!-- Metamodel::NativeHOW&#45;&gt;Metamodel::C3MRO -->
<g id="edge25" class="edge"><title>Metamodel::NativeHOW&#45;&gt;Metamodel::C3MRO</title>
<path fill="none" stroke="#6666ff" d="M-233.326,-65.7979C-421.128,-61.0453 -809.766,-51.2102 -994.65,-46.5314"/>
<polygon fill="#6666ff" stroke="#6666ff" points="-994.829,-43.0258 -1004.91,-46.2716 -995.006,-50.0236 -994.829,-43.0258"/>
</g>
<!-- Metamodel::PrivateMethodContainer -->
<g id="node20" class="node"><title>Metamodel::PrivateMethodContainer</title>
<g id="a_node20"><a xlink:href="/type/Metamodel::PrivateMethodContainer" xlink:title="Metamodel::PrivateMethodContainer">
<ellipse fill="none" stroke="#6666ff" cx="-1060.88" cy="-630.425" rx="154.873" ry="18"/>
<text text-anchor="middle" x="-1060.88" y="-626.725" font-family="FreeSans" font-size="14.00" fill="#6666ff">Metamodel::PrivateMethodContainer</text>
</a>
</g>
</g>
<!-- Metamodel::TypePretense -->
<g id="node21" class="node"><title>Metamodel::TypePretense</title>
<g id="a_node21"><a xlink:href="/type/Metamodel::TypePretense" xlink:title="Metamodel::TypePretense">
<ellipse fill="none" stroke="#6666ff" cx="149.873" cy="-750.376" rx="114.28" ry="18"/>
<text text-anchor="middle" x="149.873" y="-746.676" font-family="FreeSans" font-size="14.00" fill="#6666ff">Metamodel::TypePretense</text>
</a>
</g>
</g>
<!-- Metamodel::RolePunning -->
<g id="node22" class="node"><title>Metamodel::RolePunning</title>
<g id="a_node22"><a xlink:href="/type/Metamodel::RolePunning" xlink:title="Metamodel::RolePunning">
<ellipse fill="none" stroke="#6666ff" cx="-587.262" cy="-706.756" rx="109.681" ry="18"/>
<text text-anchor="middle" x="-587.262" y="-703.056" font-family="FreeSans" font-size="14.00" fill="#6666ff">Metamodel::RolePunning</text>
</a>
</g>
</g>
<!-- Metamodel::ParametricRoleHOW -->
<g id="node23" class="node"><title>Metamodel::ParametricRoleHOW</title>
<g id="a_node23"><a xlink:href="/type/Metamodel::ParametricRoleHOW" xlink:title="Metamodel::ParametricRoleHOW">
<ellipse fill="none" stroke="#000000" cx="-344.034" cy="-351.993" rx="142.175" ry="18"/>
<text text-anchor="middle" x="-344.034" y="-348.293" font-family="FreeSans" font-size="14.00" fill="#000000">Metamodel::ParametricRoleHOW</text>
</a>
</g>
</g>
<!-- Metamodel::ParametricRoleHOW&#45;&gt;Metamodel::Stashing -->
<g id="edge37" class="edge"><title>Metamodel::ParametricRoleHOW&#45;&gt;Metamodel::Stashing</title>
<path fill="none" stroke="#6666ff" d="M-225.338,-361.984C-205.798,-363.629 -185.759,-365.316 -166.857,-366.907"/>
<polygon fill="#6666ff" stroke="#6666ff" points="-167.044,-370.404 -156.785,-367.755 -166.457,-363.428 -167.044,-370.404"/>
</g>
<!-- Metamodel::ParametricRoleHOW&#45;&gt;Any -->
<g id="edge4" class="edge"><title>Metamodel::ParametricRoleHOW&#45;&gt;Any</title>
<path fill="none" stroke="#000000" d="M-213.952,-344.671C-41.235,-334.95 254.077,-318.329 357.975,-312.481"/>
<polygon fill="#000000" stroke="#000000" points="358.485,-315.958 368.273,-311.901 358.092,-308.969 358.485,-315.958"/>
</g>
<!-- Metamodel::ParametricRoleHOW&#45;&gt;Metamodel::Naming -->
<g id="edge28" class="edge"><title>Metamodel::ParametricRoleHOW&#45;&gt;Metamodel::Naming</title>
<path fill="none" stroke="#6666ff" d="M-302.864,-334.607C-215.552,-297.737 -12.1943,-211.863 81.0009,-172.508"/>
<polygon fill="#6666ff" stroke="#6666ff" points="82.6206,-175.623 90.4713,-168.509 79.8974,-169.175 82.6206,-175.623"/>
</g>
<!-- Metamodel::ParametricRoleHOW&#45;&gt;Metamodel::AttributeContainer -->
<g id="edge34" class="edge"><title>Metamodel::ParametricRoleHOW&#45;&gt;Metamodel::AttributeContainer</title>
<path fill="none" stroke="#6666ff" d="M-323.171,-333.829C-251.308,-271.265 -18.4353,-68.5267 -18.4353,-68.5267 -18.4353,-68.5267 55.8051,19.769 93.7171,64.8586"/>
<polygon fill="#6666ff" stroke="#6666ff" points="96.5906,62.8375 100.347,72.744 91.2328,67.3424 96.5906,62.8375"/>
</g>
<!-- Metamodel::ParametricRoleHOW&#45;&gt;Metamodel::MethodContainer -->
<g id="edge31" class="edge"><title>Metamodel::ParametricRoleHOW&#45;&gt;Metamodel::MethodContainer</title>
<path fill="none" stroke="#6666ff" d="M-346.904,-333.628C-355.52,-278.519 -381.196,-114.272 -391.6,-47.7192"/>
<polygon fill="#6666ff" stroke="#6666ff" points="-388.188,-46.8877 -393.19,-37.5483 -395.104,-47.9689 -388.188,-46.8877"/>
</g>
<!-- Metamodel::ParametricRoleHOW&#45;&gt;Metamodel::MultiMethodContainer -->
<g id="edge33" class="edge"><title>Metamodel::ParametricRoleHOW&#45;&gt;Metamodel::MultiMethodContainer</title>
<path fill="none" stroke="#6666ff" d="M-339.786,-333.636C-323.651,-263.906 -267.067,-19.3723 -267.067,-19.3723 -267.067,-19.3723 -353.153,206.139 -383.756,286.306"/>
<polygon fill="#6666ff" stroke="#6666ff" points="-380.531,287.671 -387.367,295.766 -387.07,285.175 -380.531,287.671"/>
</g>
<!-- Metamodel::ParametricRoleHOW&#45;&gt;Metamodel::RoleContainer -->
<g id="edge35" class="edge"><title>Metamodel::ParametricRoleHOW&#45;&gt;Metamodel::RoleContainer</title>
<path fill="none" stroke="#6666ff" d="M-310.529,-334.421C-217.483,-285.621 37.2752,-152.01 37.2752,-152.01 37.2752,-152.01 64.6618,-138.191 64.6618,-138.191 64.6618,-138.191 254.246,-64.6572 349.173,-27.838"/>
<polygon fill="#6666ff" stroke="#6666ff" points="350.549,-31.0583 358.607,-24.1788 348.018,-24.532 350.549,-31.0583"/>
</g>
<!-- Metamodel::ParametricRoleHOW&#45;&gt;Metamodel::Documenting -->
<g id="edge29" class="edge"><title>Metamodel::ParametricRoleHOW&#45;&gt;Metamodel::Documenting</title>
<path fill="none" stroke="#6666ff" d="M-337.029,-370.046C-313.852,-429.783 -239.539,-621.32 -211.586,-693.366"/>
<polygon fill="#6666ff" stroke="#6666ff" points="-214.69,-695.042 -207.81,-703.099 -208.164,-692.51 -214.69,-695.042"/>
</g>
<!-- Metamodel::ParametricRoleHOW&#45;&gt;Metamodel::Versioning -->
<g id="edge30" class="edge"><title>Metamodel::ParametricRoleHOW&#45;&gt;Metamodel::Versioning</title>
<path fill="none" stroke="#6666ff" d="M-408.117,-335.885C-468.478,-320.714 -558.624,-298.056 -620.422,-282.523"/>
<polygon fill="#6666ff" stroke="#6666ff" points="-619.918,-279.041 -630.469,-279.997 -621.624,-285.829 -619.918,-279.041"/>
</g>
<!-- Metamodel::ParametricRoleHOW&#45;&gt;Metamodel::MultipleInheritance -->
<g id="edge36" class="edge"><title>Metamodel::ParametricRoleHOW&#45;&gt;Metamodel::MultipleInheritance</title>
<path fill="none" stroke="#6666ff" d="M-356.433,-334.042C-411.369,-254.512 -632.985,66.318 -698.426,161.057"/>
<polygon fill="#6666ff" stroke="#6666ff" points="-695.697,163.265 -704.261,169.504 -701.457,159.286 -695.697,163.265"/>
</g>
<!-- Metamodel::ParametricRoleHOW&#45;&gt;Metamodel::PrivateMethodContainer -->
<g id="edge32" class="edge"><title>Metamodel::ParametricRoleHOW&#45;&gt;Metamodel::PrivateMethodContainer</title>
<path fill="none" stroke="#6666ff" d="M-388.335,-369.2C-513.684,-417.887 -870.59,-556.514 -1006.98,-609.491"/>
<polygon fill="#6666ff" stroke="#6666ff" points="-1008.36,-606.272 -1016.42,-613.155 -1005.83,-612.797 -1008.36,-606.272"/>
</g>
<!-- Metamodel::ParametricRoleHOW&#45;&gt;Metamodel::TypePretense -->
<g id="edge38" class="edge"><title>Metamodel::ParametricRoleHOW&#45;&gt;Metamodel::TypePretense</title>
<path fill="none" stroke="#6666ff" d="M-321.852,-369.884C-242.308,-434.045 28.7171,-652.652 119.763,-726.09"/>
<polygon fill="#6666ff" stroke="#6666ff" points="117.771,-728.98 127.752,-732.534 122.166,-723.531 117.771,-728.98"/>
</g>
<!-- Metamodel::ParametricRoleHOW&#45;&gt;Metamodel::RolePunning -->
<g id="edge39" class="edge"><title>Metamodel::ParametricRoleHOW&#45;&gt;Metamodel::RolePunning</title>
<path fill="none" stroke="#6666ff" d="M-356.43,-370.073C-396.361,-428.315 -521.771,-611.233 -569.015,-680.141"/>
<polygon fill="#6666ff" stroke="#6666ff" points="-572.123,-678.485 -574.891,-688.712 -566.35,-682.443 -572.123,-678.485"/>
</g>
<!-- Metamodel::MethodDelegation -->
<g id="node24" class="node"><title>Metamodel::MethodDelegation</title>
<g id="a_node24"><a xlink:href="/type/Metamodel::MethodDelegation" xlink:title="Metamodel::MethodDelegation">
<ellipse fill="none" stroke="#6666ff" cx="1045.79" cy="-634.606" rx="131.077" ry="18"/>
<text text-anchor="middle" x="1045.79" y="-630.906" font-family="FreeSans" font-size="14.00" fill="#6666ff">Metamodel::MethodDelegation</text>
</a>
</g>
</g>
<!-- Metamodel::PackageHOW -->
<g id="node25" class="node"><title>Metamodel::PackageHOW</title>
<g id="a_node25"><a xlink:href="/type/Metamodel::PackageHOW" xlink:title="Metamodel::PackageHOW">
<ellipse fill="none" stroke="#000000" cx="556.809" cy="-706.613" rx="116.18" ry="18"/>
<text text-anchor="middle" x="556.809" y="-702.913" font-family="FreeSans" font-size="14.00" fill="#000000">Metamodel::PackageHOW</text>
</a>
</g>
</g>
<!-- Metamodel::PackageHOW&#45;&gt;Metamodel::Stashing -->
<g id="edge42" class="edge"><title>Metamodel::PackageHOW&#45;&gt;Metamodel::Stashing</title>
<path fill="none" stroke="#6666ff" d="M523.955,-689.251C418.255,-633.393 87.0874,-458.385 -29.5508,-396.747"/>
<polygon fill="#6666ff" stroke="#6666ff" points="-28.0695,-393.571 -38.5462,-391.993 -31.3401,-399.76 -28.0695,-393.571"/>
</g>
<!-- Metamodel::PackageHOW&#45;&gt;Any -->
<g id="edge5" class="edge"><title>Metamodel::PackageHOW&#45;&gt;Any</title>
<path fill="none" stroke="#000000" d="M549.457,-688.557C523.675,-625.239 437.267,-413.025 406.479,-337.412"/>
<polygon fill="#000000" stroke="#000000" points="409.692,-336.021 402.679,-328.079 403.209,-338.661 409.692,-336.021"/>
</g>
<!-- Metamodel::PackageHOW&#45;&gt;Metamodel::Naming -->
<g id="edge40" class="edge"><title>Metamodel::PackageHOW&#45;&gt;Metamodel::Naming</title>
<path fill="none" stroke="#6666ff" d="M542.825,-688.48C479.953,-606.954 223.303,-274.153 149.284,-178.172"/>
<polygon fill="#6666ff" stroke="#6666ff" points="151.97,-175.924 143.092,-170.142 146.427,-180.199 151.97,-175.924"/>
</g>
<!-- Metamodel::PackageHOW&#45;&gt;Metamodel::Documenting -->
<g id="edge41" class="edge"><title>Metamodel::PackageHOW&#45;&gt;Metamodel::Documenting</title>
<path fill="none" stroke="#6666ff" d="M441.329,-708.823C300.351,-711.523 63.0654,-716.065 -80.2047,-718.808"/>
<polygon fill="#6666ff" stroke="#6666ff" points="-80.4239,-715.312 -90.355,-719.003 -80.2898,-722.311 -80.4239,-715.312"/>
</g>
<!-- Metamodel::PackageHOW&#45;&gt;Metamodel::TypePretense -->
<g id="edge43" class="edge"><title>Metamodel::PackageHOW&#45;&gt;Metamodel::TypePretense</title>
<path fill="none" stroke="#6666ff" d="M461.143,-716.901C399.144,-723.568 318.37,-732.255 254.642,-739.109"/>
<polygon fill="#6666ff" stroke="#6666ff" points="254.134,-735.643 244.566,-740.192 254.883,-742.603 254.134,-735.643"/>
</g>
<!-- Metamodel::PackageHOW&#45;&gt;Metamodel::MethodDelegation -->
<g id="edge44" class="edge"><title>Metamodel::PackageHOW&#45;&gt;Metamodel::MethodDelegation</title>
<path fill="none" stroke="#6666ff" d="M641.147,-694.193C725.94,-681.707 856.624,-662.463 946.404,-649.242"/>
<polygon fill="#6666ff" stroke="#6666ff" points="946.94,-652.701 956.324,-647.781 945.92,-645.775 946.94,-652.701"/>
</g>
<!-- Metamodel::ParametricRoleGroupHOW -->
<g id="node26" class="node"><title>Metamodel::ParametricRoleGroupHOW</title>
<g id="a_node26"><a xlink:href="/type/Metamodel::ParametricRoleGroupHOW" xlink:title="Metamodel::ParametricRoleGroupHOW">
<ellipse fill="none" stroke="#000000" cx="704.637" cy="-264.076" rx="167.07" ry="18"/>
<text text-anchor="middle" x="704.637" y="-260.376" font-family="FreeSans" font-size="14.00" fill="#000000">Metamodel::ParametricRoleGroupHOW</text>
</a>
</g>
</g>
<!-- Metamodel::ParametricRoleGroupHOW&#45;&gt;Metamodel::Stashing -->
<g id="edge46" class="edge"><title>Metamodel::ParametricRoleGroupHOW&#45;&gt;Metamodel::Stashing</title>
<path fill="none" stroke="#6666ff" d="M574.004,-275.359C489.646,-282.644 395.549,-290.771 395.549,-290.771 395.549,-290.771 140.56,-336.836 7.72315,-360.834"/>
<polygon fill="#6666ff" stroke="#6666ff" points="6.81492,-357.442 -2.40354,-362.664 8.05942,-364.33 6.81492,-357.442"/>
</g>
<!-- Metamodel::ParametricRoleGroupHOW&#45;&gt;Any -->
<g id="edge6" class="edge"><title>Metamodel::ParametricRoleGroupHOW&#45;&gt;Any</title>
<path fill="none" stroke="#000000" d="M606.814,-278.724C547.325,-287.632 474.811,-298.49 432.044,-304.894"/>
<polygon fill="#000000" stroke="#000000" points="431.467,-301.441 422.096,-306.384 432.504,-308.364 431.467,-301.441"/>
</g>
<!-- Metamodel::ParametricRoleGroupHOW&#45;&gt;Metamodel::Naming -->
<g id="edge45" class="edge"><title>Metamodel::ParametricRoleGroupHOW&#45;&gt;Metamodel::Naming</title>
<path fill="none" stroke="#6666ff" d="M623.413,-248.277C511.658,-226.539 312.054,-187.713 203.868,-166.669"/>
<polygon fill="#6666ff" stroke="#6666ff" points="204.493,-163.225 194.009,-164.751 203.156,-170.096 204.493,-163.225"/>
</g>
<!-- Metamodel::ParametricRoleGroupHOW&#45;&gt;Metamodel::BoolificationProtocol -->
<g id="edge49" class="edge"><title>Metamodel::ParametricRoleGroupHOW&#45;&gt;Metamodel::BoolificationProtocol</title>
<path fill="none" stroke="#6666ff" d="M704.713,-246.005C705.013,-175.365 706.109,82.4326 706.475,168.627"/>
<polygon fill="#6666ff" stroke="#6666ff" points="709.975,168.702 706.518,178.717 702.975,168.732 709.975,168.702"/>
</g>
<!-- Metamodel::ParametricRoleGroupHOW&#45;&gt;Metamodel::TypePretense -->
<g id="edge47" class="edge"><title>Metamodel::ParametricRoleGroupHOW&#45;&gt;Metamodel::TypePretense</title>
<path fill="none" stroke="#6666ff" d="M684.234,-281.961C599.528,-356.213 275.455,-640.292 177.851,-725.85"/>
<polygon fill="#6666ff" stroke="#6666ff" points="175.38,-723.363 170.167,-732.586 179.994,-728.627 175.38,-723.363"/>
</g>
<!-- Metamodel::ParametricRoleGroupHOW&#45;&gt;Metamodel::RolePunning -->
<g id="edge48" class="edge"><title>Metamodel::ParametricRoleGroupHOW&#45;&gt;Metamodel::RolePunning</title>
<path fill="none" stroke="#6666ff" d="M645.107,-280.9C494.34,-323.507 109.34,-432.309 109.34,-432.309 109.34,-432.309 -373.635,-622.591 -535.273,-686.273"/>
<polygon fill="#6666ff" stroke="#6666ff" points="-536.975,-683.182 -544.996,-690.104 -534.409,-689.694 -536.975,-683.182"/>
</g>
<!-- Metamodel::ModuleHOW -->
<g id="node27" class="node"><title>Metamodel::ModuleHOW</title>
<g id="a_node27"><a xlink:href="/type/Metamodel::ModuleHOW" xlink:title="Metamodel::ModuleHOW">
<ellipse fill="none" stroke="#000000" cx="188.866" cy="-446.202" rx="111.28" ry="18"/>
<text text-anchor="middle" x="188.866" y="-442.502" font-family="FreeSans" font-size="14.00" fill="#000000">Metamodel::ModuleHOW</text>
</a>
</g>
</g>
<!-- Metamodel::ModuleHOW&#45;&gt;Metamodel::Stashing -->
<g id="edge53" class="edge"><title>Metamodel::ModuleHOW&#45;&gt;Metamodel::Stashing</title>
<path fill="none" stroke="#6666ff" d="M132.224,-430.665C91.1225,-419.39 35.4897,-404.13 -7.13053,-392.439"/>
<polygon fill="#6666ff" stroke="#6666ff" points="-6.27066,-389.046 -16.8403,-389.776 -8.12245,-395.796 -6.27066,-389.046"/>
</g>
<!-- Metamodel::ModuleHOW&#45;&gt;Any -->
<g id="edge7" class="edge"><title>Metamodel::ModuleHOW&#45;&gt;Any</title>
<path fill="none" stroke="#000000" d="M215.453,-428.722C254.664,-402.943 327.66,-354.952 367.595,-328.696"/>
<polygon fill="#000000" stroke="#000000" points="369.627,-331.549 376.06,-323.131 365.781,-325.7 369.627,-331.549"/>
</g>
<!-- Metamodel::ModuleHOW&#45;&gt;Metamodel::Naming -->
<g id="edge50" class="edge"><title>Metamodel::ModuleHOW&#45;&gt;Metamodel::Naming</title>
<path fill="none" stroke="#6666ff" d="M185.134,-427.808C175.005,-377.872 146.943,-239.542 134.864,-179.997"/>
<polygon fill="#6666ff" stroke="#6666ff" points="138.287,-179.265 132.869,-170.16 131.427,-180.656 138.287,-179.265"/>
</g>
<!-- Metamodel::ModuleHOW&#45;&gt;Metamodel::Documenting -->
<g id="edge51" class="edge"><title>Metamodel::ModuleHOW&#45;&gt;Metamodel::Documenting</title>
<path fill="none" stroke="#6666ff" d="M163.897,-463.817C96.2044,-511.573 -90.8556,-643.541 -167.455,-697.58"/>
<polygon fill="#6666ff" stroke="#6666ff" points="-169.652,-694.847 -175.806,-703.471 -165.617,-700.567 -169.652,-694.847"/>
</g>
<!-- Metamodel::ModuleHOW&#45;&gt;Metamodel::Versioning -->
<g id="edge52" class="edge"><title>Metamodel::ModuleHOW&#45;&gt;Metamodel::Versioning</title>
<path fill="none" stroke="#6666ff" d="M113.432,-432.968C16.8572,-416.026 -138.147,-388.833 -138.147,-388.833 -138.147,-388.833 -165.891,-374.962 -165.891,-374.962 -165.891,-374.962 -200.103,-352.178 -200.103,-352.178 -200.103,-352.178 -241.297,-338.265 -241.297,-338.265 -241.297,-338.265 -474.949,-300.176 -604.676,-279.029"/>
<polygon fill="#6666ff" stroke="#6666ff" points="-604.165,-275.566 -614.598,-277.411 -605.291,-282.475 -604.165,-275.566"/>
</g>
<!-- Metamodel::ModuleHOW&#45;&gt;Metamodel::TypePretense -->
<g id="edge54" class="edge"><title>Metamodel::ModuleHOW&#45;&gt;Metamodel::TypePretense</title>
<path fill="none" stroke="#6666ff" d="M186.543,-464.318C180.001,-515.354 161.382,-660.598 153.484,-722.201"/>
<polygon fill="#6666ff" stroke="#6666ff" points="149.983,-721.991 152.183,-732.355 156.926,-722.881 149.983,-721.991"/>
</g>
<!-- Metamodel::ModuleHOW&#45;&gt;Metamodel::MethodDelegation -->
<g id="edge55" class="edge"><title>Metamodel::ModuleHOW&#45;&gt;Metamodel::MethodDelegation</title>
<path fill="none" stroke="#6666ff" d="M255.039,-460.751C410.466,-494.923 798.345,-580.202 966.245,-617.116"/>
<polygon fill="#6666ff" stroke="#6666ff" points="965.737,-620.588 976.256,-619.317 967.24,-613.751 965.737,-620.588"/>
</g>
<!-- Metamodel::Finalization -->
<g id="node28" class="node"><title>Metamodel::Finalization</title>
<g id="a_node28"><a xlink:href="/type/Metamodel::Finalization" xlink:title="Metamodel::Finalization">
<ellipse fill="none" stroke="#6666ff" cx="-1079.67" cy="561.975" rx="103.982" ry="18"/>
<text text-anchor="middle" x="-1079.67" y="565.675" font-family="FreeSans" font-size="14.00" fill="#6666ff">Metamodel::Finalization</text>
</a>
</g>
</g>
<!-- Metamodel::DefaultParent -->
<g id="node29" class="node"><title>Metamodel::DefaultParent</title>
<g id="a_node29"><a xlink:href="/type/Metamodel::DefaultParent" xlink:title="Metamodel::DefaultParent">
<ellipse fill="none" stroke="#6666ff" cx="-644.89" cy="654.328" rx="113.18" ry="18"/>
<text text-anchor="middle" x="-644.89" y="658.028" font-family="FreeSans" font-size="14.00" fill="#6666ff">Metamodel::DefaultParent</text>
</a>
</g>
</g>
<!-- Metamodel::Trusting -->
<g id="node30" class="node"><title>Metamodel::Trusting</title>
<g id="a_node30"><a xlink:href="/type/Metamodel::Trusting" xlink:title="Metamodel::Trusting">
<ellipse fill="none" stroke="#6666ff" cx="-293.008" cy="659.416" rx="91.784" ry="18"/>
<text text-anchor="middle" x="-293.008" y="663.116" font-family="FreeSans" font-size="14.00" fill="#6666ff">Metamodel::Trusting</text>
</a>
</g>
</g>
<!-- Metamodel::Mixins -->
<g id="node31" class="node"><title>Metamodel::Mixins</title>
<g id="a_node31"><a xlink:href="/type/Metamodel::Mixins" xlink:title="Metamodel::Mixins">
<ellipse fill="none" stroke="#6666ff" cx="625.986" cy="652.224" rx="85.2851" ry="18"/>
<text text-anchor="middle" x="625.986" y="655.924" font-family="FreeSans" font-size="14.00" fill="#6666ff">Metamodel::Mixins</text>
</a>
</g>
</g>
<!-- Metamodel::ClassHOW -->
<g id="node32" class="node"><title>Metamodel::ClassHOW</title>
<g id="a_node32"><a xlink:href="/type/Metamodel::ClassHOW" xlink:title="Metamodel::ClassHOW">
<ellipse fill="none" stroke="#000000" cx="-143.304" cy="237.454" rx="103.982" ry="18"/>
<text text-anchor="middle" x="-143.304" y="241.154" font-family="FreeSans" font-size="14.00" fill="#000000">Metamodel::ClassHOW</text>
</a>
</g>
</g>
<!-- Metamodel::ClassHOW&#45;&gt;Metamodel::Stashing -->
<g id="edge59" class="edge"><title>Metamodel::ClassHOW&#45;&gt;Metamodel::Stashing</title>
<path fill="none" stroke="#6666ff" d="M-135.867,219.23C-108.985,153.358 -18.4353,-68.5267 -18.4353,-68.5267 -18.4353,-68.5267 -52.8652,-270.423 -65.8352,-346.479"/>
<polygon fill="#6666ff" stroke="#6666ff" points="-69.3556,-346.302 -67.5865,-356.748 -62.4552,-347.479 -69.3556,-346.302"/>
</g>
<!-- Metamodel::ClassHOW&#45;&gt;Any -->
<g id="edge8" class="edge"><title>Metamodel::ClassHOW&#45;&gt;Any</title>
<path fill="none" stroke="#000000" d="M-127.711,219.477C-93.7548,180.329 -16.1399,90.8487 -16.1399,90.8487 -16.1399,90.8487 286.129,-203.791 372.609,-288.089"/>
<polygon fill="#000000" stroke="#000000" points="370.232,-290.659 379.835,-295.132 375.118,-285.646 370.232,-290.659"/>
</g>
<!-- Metamodel::ClassHOW&#45;&gt;Metamodel::Naming -->
<g id="edge56" class="edge"><title>Metamodel::ClassHOW&#45;&gt;Metamodel::Naming</title>
<path fill="none" stroke="#6666ff" d="M-130.706,219.444C-86.9494,156.887 58.6083,-51.2065 110.576,-125.501"/>
<polygon fill="#6666ff" stroke="#6666ff" points="107.837,-127.692 116.437,-133.88 113.573,-123.679 107.837,-127.692"/>
</g>
<!-- Metamodel::ClassHOW&#45;&gt;Metamodel::AttributeContainer -->
<g id="edge60" class="edge"><title>Metamodel::ClassHOW&#45;&gt;Metamodel::AttributeContainer</title>
<path fill="none" stroke="#6666ff" d="M-112.861,220.188C-66.1067,193.67 23.4073,142.901 75.3761,113.425"/>
<polygon fill="#6666ff" stroke="#6666ff" points="73.8884,110.245 84.3135,108.356 77.3419,116.334 73.8884,110.245"/>
</g>
<!-- Metamodel::ClassHOW&#45;&gt;Metamodel::MethodContainer -->
<g id="edge62" class="edge"><title>Metamodel::ClassHOW&#45;&gt;Metamodel::MethodContainer</title>
<path fill="none" stroke="#6666ff" d="M-161.077,219.404C-205.308,174.482 -320.421,57.5719 -371.278,5.92034"/>
<polygon fill="#6666ff" stroke="#6666ff" points="-373.777,8.37077 -378.299,-1.21053 -368.789,3.45949 -373.777,8.37077"/>
</g>
<!-- Metamodel::ClassHOW&#45;&gt;Metamodel::MultiMethodContainer -->
<g id="edge64" class="edge"><title>Metamodel::ClassHOW&#45;&gt;Metamodel::MultiMethodContainer</title>
<path fill="none" stroke="#6666ff" d="M-194.722,253.164C-233.855,265.122 -287.96,281.653 -329.979,294.492"/>
<polygon fill="#6666ff" stroke="#6666ff" points="-328.979,297.846 -339.565,297.421 -331.024,291.151 -328.979,297.846"/>
</g>
<!-- Metamodel::ClassHOW&#45;&gt;Metamodel::RoleContainer -->
<g id="edge65" class="edge"><title>Metamodel::ClassHOW&#45;&gt;Metamodel::RoleContainer</title>
<path fill="none" stroke="#6666ff" d="M-99.6641,221.03C2.19211,182.696 247.029,90.5508 247.029,90.5508 247.029,90.5508 320.019,44.4513 365.821,15.523"/>
<polygon fill="#6666ff" stroke="#6666ff" points="363.987,12.5416 374.311,10.1607 367.725,18.46 363.987,12.5416"/>
</g>
<!-- Metamodel::ClassHOW&#45;&gt;Metamodel::MROBasedMethodDispatch -->
<g id="edge69" class="edge"><title>Metamodel::ClassHOW&#45;&gt;Metamodel::MROBasedMethodDispatch</title>
<path fill="none" stroke="#6666ff" d="M-113.407,254.743C-74.1267,277.457 -5.02694,317.415 38.6263,342.658"/>
<polygon fill="#6666ff" stroke="#6666ff" points="40.6306,339.774 47.5353,347.81 37.1264,345.833 40.6306,339.774"/>
</g>
<!-- Metamodel::ClassHOW&#45;&gt;Metamodel::MROBasedTypeChecking -->
<g id="edge70" class="edge"><title>Metamodel::ClassHOW&#45;&gt;Metamodel::MROBasedTypeChecking</title>
<path fill="none" stroke="#6666ff" d="M-138.326,255.553C-119.486,324.058 -52.4653,567.75 -29.7125,650.481"/>
<polygon fill="#6666ff" stroke="#6666ff" points="-26.3204,649.616 -27.0432,660.186 -33.0698,651.472 -26.3204,649.616"/>
</g>
<!-- Metamodel::ClassHOW&#45;&gt;Metamodel::BUILDPLAN -->
<g id="edge72" class="edge"><title>Metamodel::ClassHOW&#45;&gt;Metamodel::BUILDPLAN</title>
<path fill="none" stroke="#6666ff" d="M-136.182,255.564C-122.275,290.931 -92.8507,365.755 -92.8507,365.755 -92.8507,365.755 157.154,580.225 242.788,653.687"/>
<polygon fill="#6666ff" stroke="#6666ff" points="245.237,651.176 250.548,660.344 240.679,656.489 245.237,651.176"/>
</g>
<!-- Metamodel::ClassHOW&#45;&gt;Metamodel::BoolificationProtocol -->
<g id="edge74" class="edge"><title>Metamodel::ClassHOW&#45;&gt;Metamodel::BoolificationProtocol</title>
<path fill="none" stroke="#6666ff" d="M-42.8917,232.664C108.059,225.464 394.024,211.823 565.756,203.631"/>
<polygon fill="#6666ff" stroke="#6666ff" points="565.725,200.129 575.881,203.148 566.059,207.121 565.725,200.129"/>
</g>
<!-- Metamodel::ClassHOW&#45;&gt;Metamodel::Documenting -->
<g id="edge57" class="edge"><title>Metamodel::ClassHOW&#45;&gt;Metamodel::Documenting</title>
<path fill="none" stroke="#6666ff" d="M-148.832,219.235C-168.813,153.383 -236.116,-68.4367 -236.116,-68.4367 -236.116,-68.4367 -200.103,-352.178 -200.103,-352.178 -200.103,-352.178 -200.597,-606.759 -200.764,-692.969"/>
<polygon fill="#6666ff" stroke="#6666ff" points="-204.264,-693.066 -200.784,-703.073 -197.264,-693.08 -204.264,-693.066"/>
</g>
<!-- Metamodel::ClassHOW&#45;&gt;Metamodel::Versioning -->
<g id="edge58" class="edge"><title>Metamodel::ClassHOW&#45;&gt;Metamodel::Versioning</title>
<path fill="none" stroke="#6666ff" d="M-169.242,220.021C-255.16,162.275 -525.038,-19.1094 -525.038,-19.1094 -525.038,-19.1094 -629.085,-175.289 -671.428,-238.848"/>
<polygon fill="#6666ff" stroke="#6666ff" points="-674.345,-236.913 -676.976,-247.176 -668.519,-240.794 -674.345,-236.913"/>
</g>
<!-- Metamodel::ClassHOW&#45;&gt;Metamodel::MultipleInheritance -->
<g id="edge66" class="edge"><title>Metamodel::ClassHOW&#45;&gt;Metamodel::MultipleInheritance</title>
<path fill="none" stroke="#6666ff" d="M-236.388,229.348C-333.707,220.873 -486.898,207.533 -594.036,198.204"/>
<polygon fill="#6666ff" stroke="#6666ff" points="-594.598,201.668 -604.257,197.314 -593.991,194.695 -594.598,201.668"/>
</g>
<!-- Metamodel::ClassHOW&#45;&gt;Metamodel::C3MRO -->
<g id="edge68" class="edge"><title>Metamodel::ClassHOW&#45;&gt;Metamodel::C3MRO</title>
<path fill="none" stroke="#6666ff" d="M-195.919,221.924C-359.906,173.52 -861.19,25.5562 -1035.87,-26.0038"/>
<polygon fill="#6666ff" stroke="#6666ff" points="-1037.07,-22.7083 -1045.67,-28.8962 -1035.09,-29.422 -1037.07,-22.7083"/>
</g>
<!-- Metamodel::ClassHOW&#45;&gt;Metamodel::PrivateMethodContainer -->
<g id="edge63" class="edge"><title>Metamodel::ClassHOW&#45;&gt;Metamodel::PrivateMethodContainer</title>
<path fill="none" stroke="#6666ff" d="M-169.242,220.021C-255.16,162.275 -525.038,-19.1094 -525.038,-19.1094 -525.038,-19.1094 -791.375,-265.165 -791.375,-265.165 -791.375,-265.165 -979.578,-520.237 -1041.44,-604.073"/>
<polygon fill="#6666ff" stroke="#6666ff" points="-1044.39,-602.187 -1047.52,-612.312 -1038.76,-606.343 -1044.39,-602.187"/>
</g>
<!-- Metamodel::ClassHOW&#45;&gt;Metamodel::Finalization -->
<g id="edge61" class="edge"><title>Metamodel::ClassHOW&#45;&gt;Metamodel::Finalization</title>
<path fill="none" stroke="#6666ff" d="M-166.993,255.028C-197.478,277.643 -246.56,314.055 -246.56,314.055 -246.56,314.055 -289.225,327.948 -289.225,327.948 -289.225,327.948 -830.458,488.191 -1017.21,543.482"/>
<polygon fill="#6666ff" stroke="#6666ff" points="-1016.3,546.864 -1026.89,546.347 -1018.29,540.152 -1016.3,546.864"/>
</g>
<!-- Metamodel::ClassHOW&#45;&gt;Metamodel::DefaultParent -->
<g id="edge67" class="edge"><title>Metamodel::ClassHOW&#45;&gt;Metamodel::DefaultParent</title>
<path fill="none" stroke="#6666ff" d="M-164.536,255.1C-243.995,321.14 -523.94,553.806 -615.598,629.984"/>
<polygon fill="#6666ff" stroke="#6666ff" points="-613.444,632.744 -623.372,636.444 -617.918,627.361 -613.444,632.744"/>
</g>
<!-- Metamodel::ClassHOW&#45;&gt;Metamodel::Trusting -->
<g id="edge71" class="edge"><title>Metamodel::ClassHOW&#45;&gt;Metamodel::Trusting</title>
<path fill="none" stroke="#6666ff" d="M-149.737,255.585C-173.25,321.86 -254.646,551.287 -283.097,631.482"/>
<polygon fill="#6666ff" stroke="#6666ff" points="-279.957,633.098 -286.599,641.353 -286.554,630.758 -279.957,633.098"/>
</g>
<!-- Metamodel::ClassHOW&#45;&gt;Metamodel::Mixins -->
<g id="edge73" class="edge"><title>Metamodel::ClassHOW&#45;&gt;Metamodel::Mixins</title>
<path fill="none" stroke="#6666ff" d="M-94.3352,253.417C10.9934,287.752 249.614,365.539 249.614,365.539 249.614,365.539 504.578,559.747 594.805,628.474"/>
<polygon fill="#6666ff" stroke="#6666ff" points="597.174,625.879 603.009,634.722 592.933,631.447 597.174,625.879"/>
</g>
</g>
</svg>
