<?xml version="1.0" encoding="UTF-8" standalone="no"?>
<!DOCTYPE svg PUBLIC "-//W3C//DTD SVG 1.1//EN"
 "http://www.w3.org/Graphics/SVG/1.1/DTD/svg11.dtd">
<!-- Generated by graphviz version 2.38.0 (20140413.2041)
 -->
<!-- Title: perl6&#45;type&#45;graph Pages: 1 -->
<svg width="1538pt" height="769pt"
 viewBox="0.00 0.00 1538.19 769.03" xmlns="http://www.w3.org/2000/svg" xmlns:xlink="http://www.w3.org/1999/xlink">
<g id="graph0" class="graph" transform="scale(1 1) rotate(0) translate(752.178 356.787)">
<title>perl6&#45;type&#45;graph</title>
<polygon fill="white" stroke="none" points="-752.178,412.243 -752.178,-356.787 786.009,-356.787 786.009,412.243 -752.178,412.243"/>
<!-- Metamodel::MethodContainer -->
<g id="node1" class="node"><title>Metamodel::MethodContainer</title>
<g id="a_node1"><a xlink:href="/type/Metamodel::MethodContainer" xlink:title="Metamodel::MethodContainer">
<ellipse fill="none" stroke="#6666ff" cx="201.51" cy="196.732" rx="127.277" ry="18"/>
<text text-anchor="middle" x="201.51" y="200.432" font-family="FreeSans" font-size="14.00" fill="#6666ff">Metamodel::MethodContainer</text>
</a>
</g>
</g>
<!-- Mu -->
<g id="node2" class="node"><title>Mu</title>
<g id="a_node2"><a xlink:href="/type/Mu" xlink:title="Mu">
<ellipse fill="none" stroke="#000000" cx="-121.663" cy="389.373" rx="27" ry="18"/>
<text text-anchor="middle" x="-121.663" y="393.073" font-family="FreeSans" font-size="14.00" fill="#000000">Mu</text>
</a>
</g>
</g>
<!-- Any -->
<g id="node3" class="node"><title>Any</title>
<g id="a_node3"><a xlink:href="/type/Any" xlink:title="Any">
<ellipse fill="none" stroke="#000000" cx="121.211" cy="390.243" rx="27" ry="18"/>
<text text-anchor="middle" x="121.211" y="393.943" font-family="FreeSans" font-size="14.00" fill="#000000">Any</text>
</a>
</g>
</g>
<!-- Any&#45;&gt;Mu -->
<g id="edge1" class="edge"><title>Any&#45;&gt;Mu</title>
<path fill="none" stroke="#000000" d="M93.8221,390.145C50.2494,389.989 -34.9465,389.684 -84.1545,389.507"/>
<polygon fill="#000000" stroke="#000000" points="-84.3871,393.007 -94.3745,389.471 -84.362,386.007 -84.3871,393.007"/>
</g>
<!-- Metamodel::Naming -->
<g id="node4" class="node"><title>Metamodel::Naming</title>
<g id="a_node4"><a xlink:href="/type/Metamodel::Naming" xlink:title="Metamodel::Naming">
<ellipse fill="none" stroke="#6666ff" cx="40.709" cy="-140.309" rx="90.1842" ry="18"/>
<text text-anchor="middle" x="40.709" y="-136.609" font-family="FreeSans" font-size="14.00" fill="#6666ff">Metamodel::Naming</text>
</a>
</g>
</g>
<!-- Metamodel::Documenting -->
<g id="node5" class="node"><title>Metamodel::Documenting</title>
<g id="a_node5"><a xlink:href="/type/Metamodel::Documenting" xlink:title="Metamodel::Documenting">
<ellipse fill="none" stroke="#6666ff" cx="376.446" cy="-323.318" rx="111.28" ry="18"/>
<text text-anchor="middle" x="376.446" y="-319.618" font-family="FreeSans" font-size="14.00" fill="#6666ff">Metamodel::Documenting</text>
</a>
</g>
</g>
<!-- Metamodel::Versioning -->
<g id="node6" class="node"><title>Metamodel::Versioning</title>
<g id="a_node6"><a xlink:href="/type/Metamodel::Versioning" xlink:title="Metamodel::Versioning">
<ellipse fill="none" stroke="#6666ff" cx="232.766" cy="-152.518" rx="100.983" ry="18"/>
<text text-anchor="middle" x="232.766" y="-148.818" font-family="FreeSans" font-size="14.00" fill="#6666ff">Metamodel::Versioning</text>
</a>
</g>
</g>
<!-- Metamodel::Stashing -->
<g id="node7" class="node"><title>Metamodel::Stashing</title>
<g id="a_node7"><a xlink:href="/type/Metamodel::Stashing" xlink:title="Metamodel::Stashing">
<ellipse fill="none" stroke="#6666ff" cx="-191.852" cy="187.299" rx="93.6835" ry="18"/>
<text text-anchor="middle" x="-191.852" y="190.999" font-family="FreeSans" font-size="14.00" fill="#6666ff">Metamodel::Stashing</text>
</a>
</g>
</g>
<!-- Metamodel::AttributeContainer -->
<g id="node8" class="node"><title>Metamodel::AttributeContainer</title>
<g id="a_node8"><a xlink:href="/type/Metamodel::AttributeContainer" xlink:title="Metamodel::AttributeContainer">
<ellipse fill="none" stroke="#6666ff" cx="209.538" cy="18.535" rx="129.977" ry="18"/>
<text text-anchor="middle" x="209.538" y="22.235" font-family="FreeSans" font-size="14.00" fill="#6666ff">Metamodel::AttributeContainer</text>
</a>
</g>
</g>
<!-- Metamodel::Finalization -->
<g id="node9" class="node"><title>Metamodel::Finalization</title>
<g id="a_node9"><a xlink:href="/type/Metamodel::Finalization" xlink:title="Metamodel::Finalization">
<ellipse fill="none" stroke="#6666ff" cx="-639.024" cy="332.606" rx="103.982" ry="18"/>
<text text-anchor="middle" x="-639.024" y="336.306" font-family="FreeSans" font-size="14.00" fill="#6666ff">Metamodel::Finalization</text>
</a>
</g>
</g>
<!-- Metamodel::PrivateMethodContainer -->
<g id="node10" class="node"><title>Metamodel::PrivateMethodContainer</title>
<g id="a_node10"><a xlink:href="/type/Metamodel::PrivateMethodContainer" xlink:title="Metamodel::PrivateMethodContainer">
<ellipse fill="none" stroke="#6666ff" cx="425.684" cy="-81.509" rx="154.873" ry="18"/>
<text text-anchor="middle" x="425.684" y="-77.809" font-family="FreeSans" font-size="14.00" fill="#6666ff">Metamodel::PrivateMethodContainer</text>
</a>
</g>
</g>
<!-- Metamodel::MultiMethodContainer -->
<g id="node11" class="node"><title>Metamodel::MultiMethodContainer</title>
<g id="a_node11"><a xlink:href="/type/Metamodel::MultiMethodContainer" xlink:title="Metamodel::MultiMethodContainer">
<ellipse fill="none" stroke="#6666ff" cx="-1.16958" cy="228.268" rx="146.474" ry="18"/>
<text text-anchor="middle" x="-1.16958" y="231.968" font-family="FreeSans" font-size="14.00" fill="#6666ff">Metamodel::MultiMethodContainer</text>
</a>
</g>
</g>
<!-- Metamodel::RoleContainer -->
<g id="node12" class="node"><title>Metamodel::RoleContainer</title>
<g id="a_node12"><a xlink:href="/type/Metamodel::RoleContainer" xlink:title="Metamodel::RoleContainer">
<ellipse fill="none" stroke="#6666ff" cx="24.5946" cy="69.2066" rx="115.88" ry="18"/>
<text text-anchor="middle" x="24.5946" y="72.9066" font-family="FreeSans" font-size="14.00" fill="#6666ff">Metamodel::RoleContainer</text>
</a>
</g>
</g>
<!-- Metamodel::MultipleInheritance -->
<g id="node13" class="node"><title>Metamodel::MultipleInheritance</title>
<g id="a_node13"><a xlink:href="/type/Metamodel::MultipleInheritance" xlink:title="Metamodel::MultipleInheritance">
<ellipse fill="none" stroke="#6666ff" cx="648.121" cy="-277.022" rx="133.776" ry="18"/>
<text text-anchor="middle" x="648.121" y="-273.322" font-family="FreeSans" font-size="14.00" fill="#6666ff">Metamodel::MultipleInheritance</text>
</a>
</g>
</g>
<!-- Metamodel::DefaultParent -->
<g id="node14" class="node"><title>Metamodel::DefaultParent</title>
<g id="a_node14"><a xlink:href="/type/Metamodel::DefaultParent" xlink:title="Metamodel::DefaultParent">
<ellipse fill="none" stroke="#6666ff" cx="-94.5997" cy="-330.53" rx="113.18" ry="18"/>
<text text-anchor="middle" x="-94.5997" y="-326.83" font-family="FreeSans" font-size="14.00" fill="#6666ff">Metamodel::DefaultParent</text>
</a>
</g>
</g>
<!-- Metamodel::C3MRO -->
<g id="node15" class="node"><title>Metamodel::C3MRO</title>
<g id="a_node15"><a xlink:href="/type/Metamodel::C3MRO" xlink:title="Metamodel::C3MRO">
<ellipse fill="none" stroke="#6666ff" cx="-351.01" cy="-327.81" rx="92.0841" ry="18"/>
<text text-anchor="middle" x="-351.01" y="-324.11" font-family="FreeSans" font-size="14.00" fill="#6666ff">Metamodel::C3MRO</text>
</a>
</g>
</g>
<!-- Metamodel::MROBasedMethodDispatch -->
<g id="node16" class="node"><title>Metamodel::MROBasedMethodDispatch</title>
<g id="a_node16"><a xlink:href="/type/Metamodel::MROBasedMethodDispatch" xlink:title="Metamodel::MROBasedMethodDispatch">
<ellipse fill="none" stroke="#6666ff" cx="-420.161" cy="141.892" rx="169.77" ry="18"/>
<text text-anchor="middle" x="-420.161" y="145.592" font-family="FreeSans" font-size="14.00" fill="#6666ff">Metamodel::MROBasedMethodDispatch</text>
</a>
</g>
</g>
<!-- Metamodel::MROBasedTypeChecking -->
<g id="node17" class="node"><title>Metamodel::MROBasedTypeChecking</title>
<g id="a_node17"><a xlink:href="/type/Metamodel::MROBasedTypeChecking" xlink:title="Metamodel::MROBasedTypeChecking">
<ellipse fill="none" stroke="#6666ff" cx="-358.956" cy="371.563" rx="163.271" ry="18"/>
<text text-anchor="middle" x="-358.956" y="375.263" font-family="FreeSans" font-size="14.00" fill="#6666ff">Metamodel::MROBasedTypeChecking</text>
</a>
</g>
</g>
<!-- Metamodel::Trusting -->
<g id="node18" class="node"><title>Metamodel::Trusting</title>
<g id="a_node18"><a xlink:href="/type/Metamodel::Trusting" xlink:title="Metamodel::Trusting">
<ellipse fill="none" stroke="#6666ff" cx="-656.536" cy="23.9147" rx="91.784" ry="18"/>
<text text-anchor="middle" x="-656.536" y="27.6147" font-family="FreeSans" font-size="14.00" fill="#6666ff">Metamodel::Trusting</text>
</a>
</g>
</g>
<!-- Metamodel::BUILDPLAN -->
<g id="node19" class="node"><title>Metamodel::BUILDPLAN</title>
<g id="a_node19"><a xlink:href="/type/Metamodel::BUILDPLAN" xlink:title="Metamodel::BUILDPLAN">
<ellipse fill="none" stroke="#6666ff" cx="-420.879" cy="-95.8436" rx="109.681" ry="18"/>
<text text-anchor="middle" x="-420.879" y="-92.1436" font-family="FreeSans" font-size="14.00" fill="#6666ff">Metamodel::BUILDPLAN</text>
</a>
</g>
</g>
<!-- Metamodel::Mixins -->
<g id="node20" class="node"><title>Metamodel::Mixins</title>
<g id="a_node20"><a xlink:href="/type/Metamodel::Mixins" xlink:title="Metamodel::Mixins">
<ellipse fill="none" stroke="#6666ff" cx="-637.272" cy="-282.769" rx="85.2851" ry="18"/>
<text text-anchor="middle" x="-637.272" y="-279.069" font-family="FreeSans" font-size="14.00" fill="#6666ff">Metamodel::Mixins</text>
</a>
</g>
</g>
<!-- Metamodel::BoolificationProtocol -->
<g id="node21" class="node"><title>Metamodel::BoolificationProtocol</title>
<g id="a_node21"><a xlink:href="/type/Metamodel::BoolificationProtocol" xlink:title="Metamodel::BoolificationProtocol">
<ellipse fill="none" stroke="#6666ff" cx="-206.172" cy="-164.564" rx="139.175" ry="18"/>
<text text-anchor="middle" x="-206.172" y="-160.864" font-family="FreeSans" font-size="14.00" fill="#6666ff">Metamodel::BoolificationProtocol</text>
</a>
</g>
</g>
<!-- Metamodel::ClassHOW -->
<g id="node22" class="node"><title>Metamodel::ClassHOW</title>
<g id="a_node22"><a xlink:href="/type/Metamodel::ClassHOW" xlink:title="Metamodel::ClassHOW">
<ellipse fill="none" stroke="#000000" cx="-90.0345" cy="-32.7531" rx="103.982" ry="18"/>
<text text-anchor="middle" x="-90.0345" y="-29.0531" font-family="FreeSans" font-size="14.00" fill="#000000">Metamodel::ClassHOW</text>
</a>
</g>
</g>
<!-- Metamodel::ClassHOW&#45;&gt;Metamodel::MethodContainer -->
<g id="edge12" class="edge"><title>Metamodel::ClassHOW&#45;&gt;Metamodel::MethodContainer</title>
<path fill="none" stroke="#6666ff" d="M-51.7383,-15.9393C14.1323,12.9808 141.881,69.0685 141.881,69.0685 141.881,69.0685 171.185,131.807 188.707,169.322"/>
<polygon fill="#6666ff" stroke="#6666ff" points="192.032,168.17 193.093,178.712 185.69,171.133 192.032,168.17"/>
</g>
<!-- Metamodel::ClassHOW&#45;&gt;Any -->
<g id="edge2" class="edge"><title>Metamodel::ClassHOW&#45;&gt;Any</title>
<path fill="none" stroke="#000000" d="M-90.5096,-14.5001C-91.2741,14.8669 -92.6922,69.3447 -92.6922,69.3447 -92.6922,69.3447 72.5226,196.825 72.5226,196.825 72.5226,196.825 146.667,228.213 146.667,228.213 146.667,228.213 132.89,315.904 125.606,362.264"/>
<polygon fill="#000000" stroke="#000000" points="129.042,362.948 124.032,372.284 122.127,361.862 129.042,362.948"/>
</g>
<!-- Metamodel::ClassHOW&#45;&gt;Metamodel::Naming -->
<g id="edge6" class="edge"><title>Metamodel::ClassHOW&#45;&gt;Metamodel::Naming</title>
<path fill="none" stroke="#6666ff" d="M-68.4448,-50.5138C-46.6805,-68.4183 -12.9334,-96.1805 11.2745,-116.095"/>
<polygon fill="#6666ff" stroke="#6666ff" points="9.1411,-118.872 19.0873,-122.522 13.5882,-113.466 9.1411,-118.872"/>
</g>
<!-- Metamodel::ClassHOW&#45;&gt;Metamodel::Documenting -->
<g id="edge7" class="edge"><title>Metamodel::ClassHOW&#45;&gt;Metamodel::Documenting</title>
<path fill="none" stroke="#6666ff" d="M-54.554,-49.7274C1.90604,-76.7387 105.89,-126.486 105.89,-126.486 105.89,-126.486 132.651,-140.36 132.651,-140.36 132.651,-140.36 130.427,-152.391 130.427,-152.391 130.427,-152.391 274.921,-252.781 342.436,-299.689"/>
<polygon fill="#6666ff" stroke="#6666ff" points="340.835,-302.838 351.044,-305.67 344.829,-297.09 340.835,-302.838"/>
</g>
<!-- Metamodel::ClassHOW&#45;&gt;Metamodel::Versioning -->
<g id="edge8" class="edge"><title>Metamodel::ClassHOW&#45;&gt;Metamodel::Versioning</title>
<path fill="none" stroke="#6666ff" d="M-45.8273,-49.1548C12.7675,-70.8946 116.072,-109.223 179.081,-132.6"/>
<polygon fill="#6666ff" stroke="#6666ff" points="178.242,-136.022 188.835,-136.219 180.677,-129.459 178.242,-136.022"/>
</g>
<!-- Metamodel::ClassHOW&#45;&gt;Metamodel::Stashing -->
<g id="edge9" class="edge"><title>Metamodel::ClassHOW&#45;&gt;Metamodel::Stashing</title>
<path fill="none" stroke="#6666ff" d="M-98.3666,-14.7453C-116.198,23.7934 -158.148,114.457 -179.256,160.075"/>
<polygon fill="#6666ff" stroke="#6666ff" points="-176.172,161.745 -183.548,169.351 -182.525,158.806 -176.172,161.745"/>
</g>
<!-- Metamodel::ClassHOW&#45;&gt;Metamodel::AttributeContainer -->
<g id="edge10" class="edge"><title>Metamodel::ClassHOW&#45;&gt;Metamodel::AttributeContainer</title>
<path fill="none" stroke="#6666ff" d="M-15.9829,-20.0751C24.4443,-13.1538 74.86,-4.52245 117.765,2.82302"/>
<polygon fill="#6666ff" stroke="#6666ff" points="118.38,-0.62266 127.646,4.51472 117.199,6.27695 118.38,-0.62266"/>
</g>
<!-- Metamodel::ClassHOW&#45;&gt;Metamodel::Finalization -->
<g id="edge11" class="edge"><title>Metamodel::ClassHOW&#45;&gt;Metamodel::Finalization</title>
<path fill="none" stroke="#6666ff" d="M-106.44,-14.7284C-147.037,29.8741 -248.927,141.818 -248.927,141.818 -248.927,141.818 -492.845,261.113 -594.928,311.04"/>
<polygon fill="#6666ff" stroke="#6666ff" points="-593.541,314.258 -604.062,315.507 -596.617,307.97 -593.541,314.258"/>
</g>
<!-- Metamodel::ClassHOW&#45;&gt;Metamodel::PrivateMethodContainer -->
<g id="edge13" class="edge"><title>Metamodel::ClassHOW&#45;&gt;Metamodel::PrivateMethodContainer</title>
<path fill="none" stroke="#6666ff" d="M1.27471,-41.3855C82.8392,-49.0966 203.263,-60.4814 295.019,-69.1561"/>
<polygon fill="#6666ff" stroke="#6666ff" points="294.929,-72.663 305.214,-70.1199 295.588,-65.6941 294.929,-72.663"/>
</g>
<!-- Metamodel::ClassHOW&#45;&gt;Metamodel::MultiMethodContainer -->
<g id="edge14" class="edge"><title>Metamodel::ClassHOW&#45;&gt;Metamodel::MultiMethodContainer</title>
<path fill="none" stroke="#6666ff" d="M-90.5096,-14.5001C-91.2741,14.8669 -92.6922,69.3447 -92.6922,69.3447 -92.6922,69.3447 -42.8173,155.949 -16.7032,201.295"/>
<polygon fill="#6666ff" stroke="#6666ff" points="-13.626,199.625 -11.6684,210.037 -19.692,203.118 -13.626,199.625"/>
</g>
<!-- Metamodel::ClassHOW&#45;&gt;Metamodel::RoleContainer -->
<g id="edge15" class="edge"><title>Metamodel::ClassHOW&#45;&gt;Metamodel::RoleContainer</title>
<path fill="none" stroke="#6666ff" d="M-70.0676,-14.9931C-51.5253,1.49981 -23.7459,26.2089 -3.0703,44.5993"/>
<polygon fill="#6666ff" stroke="#6666ff" points="-0.673871,42.0467 4.47193,51.308 -5.32615,47.277 -0.673871,42.0467"/>
</g>
<!-- Metamodel::ClassHOW&#45;&gt;Metamodel::MultipleInheritance -->
<g id="edge16" class="edge"><title>Metamodel::ClassHOW&#45;&gt;Metamodel::MultipleInheritance</title>
<path fill="none" stroke="#6666ff" d="M-33.3498,-47.9397C76.0465,-77.2486 305.599,-138.749 305.599,-138.749 305.599,-138.749 500.518,-217.436 596.275,-256.092"/>
<polygon fill="#6666ff" stroke="#6666ff" points="595.195,-259.43 605.778,-259.928 597.815,-252.939 595.195,-259.43"/>
</g>
<!-- Metamodel::ClassHOW&#45;&gt;Metamodel::DefaultParent -->
<g id="edge17" class="edge"><title>Metamodel::ClassHOW&#45;&gt;Metamodel::DefaultParent</title>
<path fill="none" stroke="#6666ff" d="M-86.6725,-50.8097C-79.949,-86.9199 -65.485,-164.602 -65.485,-164.602 -65.485,-164.602 -81.3864,-255.226 -89.686,-302.526"/>
<polygon fill="#6666ff" stroke="#6666ff" points="-93.1475,-302.003 -91.4285,-312.457 -86.2528,-303.212 -93.1475,-302.003"/>
</g>
<!-- Metamodel::ClassHOW&#45;&gt;Metamodel::C3MRO -->
<g id="edge18" class="edge"><title>Metamodel::ClassHOW&#45;&gt;Metamodel::C3MRO</title>
<path fill="none" stroke="#6666ff" d="M-123.347,-49.845C-192.837,-85.4994 -346.86,-164.526 -346.86,-164.526 -346.86,-164.526 -349.106,-252.895 -350.293,-299.614"/>
<polygon fill="#6666ff" stroke="#6666ff" points="-353.794,-299.626 -350.55,-309.711 -346.797,-299.804 -353.794,-299.626"/>
</g>
<!-- Metamodel::ClassHOW&#45;&gt;Metamodel::MROBasedMethodDispatch -->
<g id="edge19" class="edge"><title>Metamodel::ClassHOW&#45;&gt;Metamodel::MROBasedMethodDispatch</title>
<path fill="none" stroke="#6666ff" d="M-107.735,-14.9593C-123.808,1.19944 -145.019,22.5224 -145.019,22.5224 -145.019,22.5224 -175.707,36.4141 -175.707,36.4141 -175.707,36.4141 -298.715,89.4898 -370.216,120.341"/>
<polygon fill="#6666ff" stroke="#6666ff" points="-368.951,123.607 -379.52,124.356 -371.725,117.18 -368.951,123.607"/>
</g>
<!-- Metamodel::ClassHOW&#45;&gt;Metamodel::MROBasedTypeChecking -->
<g id="edge20" class="edge"><title>Metamodel::ClassHOW&#45;&gt;Metamodel::MROBasedTypeChecking</title>
<path fill="none" stroke="#6666ff" d="M-106.156,-14.7362C-153.208,37.8454 -287.042,187.411 -287.042,187.411 -287.042,187.411 -328.168,292.724 -348.219,344.069"/>
<polygon fill="#6666ff" stroke="#6666ff" points="-345.032,345.529 -351.929,353.571 -351.552,342.983 -345.032,345.529"/>
</g>
<!-- Metamodel::ClassHOW&#45;&gt;Metamodel::Trusting -->
<g id="edge21" class="edge"><title>Metamodel::ClassHOW&#45;&gt;Metamodel::Trusting</title>
<path fill="none" stroke="#6666ff" d="M-180.111,-23.7426C-285.357,-13.2148 -458.56,4.111 -564.599,14.7182"/>
<polygon fill="#6666ff" stroke="#6666ff" points="-564.347,18.2104 -574.646,15.7232 -565.044,11.2452 -564.347,18.2104"/>
</g>
<!-- Metamodel::ClassHOW&#45;&gt;Metamodel::BUILDPLAN -->
<g id="edge22" class="edge"><title>Metamodel::ClassHOW&#45;&gt;Metamodel::BUILDPLAN</title>
<path fill="none" stroke="#6666ff" d="M-160.198,-46.133C-212.518,-56.1101 -284.123,-69.765 -339.05,-80.2392"/>
<polygon fill="#6666ff" stroke="#6666ff" points="-339.936,-76.845 -349.103,-82.1564 -338.625,-83.7211 -339.936,-76.845"/>
</g>
<!-- Metamodel::ClassHOW&#45;&gt;Metamodel::Mixins -->
<g id="edge23" class="edge"><title>Metamodel::ClassHOW&#45;&gt;Metamodel::Mixins</title>
<path fill="none" stroke="#6666ff" d="M-127.218,-49.7411C-224.594,-94.2292 -486.803,-214.024 -592.35,-262.245"/>
<polygon fill="#6666ff" stroke="#6666ff" points="-593.828,-259.072 -601.469,-266.412 -590.919,-265.439 -593.828,-259.072"/>
</g>
<!-- Metamodel::ClassHOW&#45;&gt;Metamodel::BoolificationProtocol -->
<g id="edge24" class="edge"><title>Metamodel::ClassHOW&#45;&gt;Metamodel::BoolificationProtocol</title>
<path fill="none" stroke="#6666ff" d="M-105.939,-50.8045C-125.982,-73.5518 -160.564,-112.801 -183.405,-138.724"/>
<polygon fill="#6666ff" stroke="#6666ff" points="-186.102,-136.491 -190.087,-146.308 -180.85,-141.118 -186.102,-136.491"/>
</g>
<!-- Metamodel::BaseType -->
<g id="node23" class="node"><title>Metamodel::BaseType</title>
<g id="a_node23"><a xlink:href="/type/Metamodel::BaseType" xlink:title="Metamodel::BaseType">
<ellipse fill="none" stroke="#6666ff" cx="133.345" cy="-334.787" rx="99.3824" ry="18"/>
<text text-anchor="middle" x="133.345" y="-331.087" font-family="FreeSans" font-size="14.00" fill="#6666ff">Metamodel::BaseType</text>
</a>
</g>
</g>
<!-- Metamodel::EnumHOW -->
<g id="node24" class="node"><title>Metamodel::EnumHOW</title>
<g id="a_node24"><a xlink:href="/type/Metamodel::EnumHOW" xlink:title="Metamodel::EnumHOW">
<ellipse fill="none" stroke="#000000" cx="-251.258" cy="22.634" rx="104.782" ry="18"/>
<text text-anchor="middle" x="-251.258" y="26.334" font-family="FreeSans" font-size="14.00" fill="#000000">Metamodel::EnumHOW</text>
</a>
</g>
</g>
<!-- Metamodel::EnumHOW&#45;&gt;Metamodel::MethodContainer -->
<g id="edge28" class="edge"><title>Metamodel::EnumHOW&#45;&gt;Metamodel::MethodContainer</title>
<path fill="none" stroke="#6666ff" d="M-208.254,39.1697C-125.193,71.1086 57.1069,141.206 147.912,176.123"/>
<polygon fill="#6666ff" stroke="#6666ff" points="149.387,172.94 157.464,179.796 146.874,179.474 149.387,172.94"/>
</g>
<!-- Metamodel::EnumHOW&#45;&gt;Any -->
<g id="edge3" class="edge"><title>Metamodel::EnumHOW&#45;&gt;Any</title>
<path fill="none" stroke="#000000" d="M-234.419,40.5574C-194.351,83.206 -96.662,187.188 -96.662,187.188 -96.662,187.188 -149.006,228.323 -149.006,228.323 -149.006,228.323 22.328,330.99 92.1364,372.821"/>
<polygon fill="#000000" stroke="#000000" points="94.1216,369.93 100.9,378.073 90.5235,375.935 94.1216,369.93"/>
</g>
<!-- Metamodel::EnumHOW&#45;&gt;Metamodel::Naming -->
<g id="edge25" class="edge"><title>Metamodel::EnumHOW&#45;&gt;Metamodel::Naming</title>
<path fill="none" stroke="#6666ff" d="M-233.348,4.84175C-217.085,-11.3157 -195.623,-32.6368 -195.623,-32.6368 -195.623,-32.6368 -165.14,-46.5299 -165.14,-46.5299 -165.14,-46.5299 -65.6444,-91.8576 -4.99751,-119.487"/>
<polygon fill="#6666ff" stroke="#6666ff" points="-6.16999,-122.799 4.38119,-123.759 -3.2679,-116.429 -6.16999,-122.799"/>
</g>
<!-- Metamodel::EnumHOW&#45;&gt;Metamodel::Stashing -->
<g id="edge26" class="edge"><title>Metamodel::EnumHOW&#45;&gt;Metamodel::Stashing</title>
<path fill="none" stroke="#6666ff" d="M-244.673,40.8852C-234.298,69.6458 -214.072,125.709 -201.881,159.5"/>
<polygon fill="#6666ff" stroke="#6666ff" points="-198.477,158.623 -198.376,169.217 -205.061,160.998 -198.477,158.623"/>
</g>
<!-- Metamodel::EnumHOW&#45;&gt;Metamodel::AttributeContainer -->
<g id="edge27" class="edge"><title>Metamodel::EnumHOW&#45;&gt;Metamodel::AttributeContainer</title>
<path fill="none" stroke="#6666ff" d="M-146.696,21.7039C-82.7914,21.1354 -0.255317,20.4012 69.2775,19.7827"/>
<polygon fill="#6666ff" stroke="#6666ff" points="69.4076,16.2815 79.4383,19.6923 69.4699,23.2812 69.4076,16.2815"/>
</g>
<!-- Metamodel::EnumHOW&#45;&gt;Metamodel::MultiMethodContainer -->
<g id="edge29" class="edge"><title>Metamodel::EnumHOW&#45;&gt;Metamodel::MultiMethodContainer</title>
<path fill="none" stroke="#6666ff" d="M-229.502,40.523C-184.698,77.3622 -82.0724,161.746 -31.0722,203.681"/>
<polygon fill="#6666ff" stroke="#6666ff" points="-28.5548,201.219 -23.0536,210.274 -33.0007,206.626 -28.5548,201.219"/>
</g>
<!-- Metamodel::EnumHOW&#45;&gt;Metamodel::RoleContainer -->
<g id="edge30" class="edge"><title>Metamodel::EnumHOW&#45;&gt;Metamodel::RoleContainer</title>
<path fill="none" stroke="#6666ff" d="M-176.244,35.2987C-141.682,41.1338 -100.413,48.1014 -64.299,54.1985"/>
<polygon fill="#6666ff" stroke="#6666ff" points="-63.5374,50.7775 -54.2596,55.8935 -64.7028,57.6798 -63.5374,50.7775"/>
</g>
<!-- Metamodel::EnumHOW&#45;&gt;Metamodel::MROBasedMethodDispatch -->
<g id="edge32" class="edge"><title>Metamodel::EnumHOW&#45;&gt;Metamodel::MROBasedMethodDispatch</title>
<path fill="none" stroke="#6666ff" d="M-276.18,40.2309C-305.41,60.8694 -353.998,95.1763 -386.544,118.156"/>
<polygon fill="#6666ff" stroke="#6666ff" points="-384.672,121.119 -394.86,124.027 -388.71,115.4 -384.672,121.119"/>
</g>
<!-- Metamodel::EnumHOW&#45;&gt;Metamodel::MROBasedTypeChecking -->
<g id="edge33" class="edge"><title>Metamodel::EnumHOW&#45;&gt;Metamodel::MROBasedTypeChecking</title>
<path fill="none" stroke="#6666ff" d="M-250.904,40.7355C-250.252,74.0768 -248.927,141.818 -248.927,141.818 -248.927,141.818 -287.042,187.411 -287.042,187.411 -287.042,187.411 -328.168,292.724 -348.219,344.069"/>
<polygon fill="#6666ff" stroke="#6666ff" points="-345.032,345.529 -351.929,353.571 -351.552,342.983 -345.032,345.529"/>
</g>
<!-- Metamodel::EnumHOW&#45;&gt;Metamodel::BUILDPLAN -->
<g id="edge34" class="edge"><title>Metamodel::EnumHOW&#45;&gt;Metamodel::BUILDPLAN</title>
<path fill="none" stroke="#6666ff" d="M-276.286,5.15224C-305.725,-15.4104 -354.717,-49.6304 -387.402,-72.4605"/>
<polygon fill="#6666ff" stroke="#6666ff" points="-389.554,-69.6944 -395.748,-78.2901 -385.546,-75.4332 -389.554,-69.6944"/>
</g>
<!-- Metamodel::EnumHOW&#45;&gt;Metamodel::BoolificationProtocol -->
<g id="edge35" class="edge"><title>Metamodel::EnumHOW&#45;&gt;Metamodel::BoolificationProtocol</title>
<path fill="none" stroke="#6666ff" d="M-246.853,4.34386C-238.954,-28.4526 -222.334,-97.4619 -212.966,-136.358"/>
<polygon fill="#6666ff" stroke="#6666ff" points="-216.273,-137.573 -210.529,-146.475 -209.468,-135.934 -216.273,-137.573"/>
</g>
<!-- Metamodel::EnumHOW&#45;&gt;Metamodel::BaseType -->
<g id="edge31" class="edge"><title>Metamodel::EnumHOW&#45;&gt;Metamodel::BaseType</title>
<path fill="none" stroke="#6666ff" d="M-233.348,4.84175C-217.085,-11.3157 -195.623,-32.6368 -195.623,-32.6368 -195.623,-32.6368 27.3525,-237.435 106.158,-309.816"/>
<polygon fill="#6666ff" stroke="#6666ff" points="104.019,-312.604 113.752,-316.791 108.755,-307.449 104.019,-312.604"/>
</g>
<!-- Metamodel::ConcreteRoleHOW -->
<g id="node25" class="node"><title>Metamodel::ConcreteRoleHOW</title>
<g id="a_node25"><a xlink:href="/type/Metamodel::ConcreteRoleHOW" xlink:title="Metamodel::ConcreteRoleHOW">
<ellipse fill="none" stroke="#000000" cx="362.563" cy="373.01" rx="135.676" ry="18"/>
<text text-anchor="middle" x="362.563" y="376.71" font-family="FreeSans" font-size="14.00" fill="#000000">Metamodel::ConcreteRoleHOW</text>
</a>
</g>
</g>
<!-- Metamodel::ConcreteRoleHOW&#45;&gt;Metamodel::MethodContainer -->
<g id="edge39" class="edge"><title>Metamodel::ConcreteRoleHOW&#45;&gt;Metamodel::MethodContainer</title>
<path fill="none" stroke="#6666ff" d="M346.234,355.137C317.536,323.727 257.97,258.53 224.905,222.339"/>
<polygon fill="#6666ff" stroke="#6666ff" points="222.043,224.395 217.882,214.652 227.211,219.674 222.043,224.395"/>
</g>
<!-- Metamodel::ConcreteRoleHOW&#45;&gt;Any -->
<g id="edge4" class="edge"><title>Metamodel::ConcreteRoleHOW&#45;&gt;Any</title>
<path fill="none" stroke="#000000" d="M242.947,381.551C212.249,383.743 181.459,385.941 158.524,387.579"/>
<polygon fill="#000000" stroke="#000000" points="158.475,391.091 148.251,388.312 157.976,384.109 158.475,391.091"/>
</g>
<!-- Metamodel::ConcreteRoleHOW&#45;&gt;Metamodel::Naming -->
<g id="edge36" class="edge"><title>Metamodel::ConcreteRoleHOW&#45;&gt;Metamodel::Naming</title>
<path fill="none" stroke="#6666ff" d="M359.252,354.799C351.059,309.737 330.497,196.639 330.497,196.639 330.497,196.639 77.951,18.6348 77.951,18.6348 77.951,18.6348 57.9936,-66.5407 47.2981,-112.188"/>
<polygon fill="#6666ff" stroke="#6666ff" points="43.8548,-111.542 44.9812,-122.077 50.6702,-113.139 43.8548,-111.542"/>
</g>
<!-- Metamodel::ConcreteRoleHOW&#45;&gt;Metamodel::Versioning -->
<g id="edge37" class="edge"><title>Metamodel::ConcreteRoleHOW&#45;&gt;Metamodel::Versioning</title>
<path fill="none" stroke="#6666ff" d="M359.252,354.799C351.059,309.737 330.497,196.639 330.497,196.639 330.497,196.639 267.632,139.376 267.632,139.376 267.632,139.376 341.124,18.4351 341.124,18.4351 341.124,18.4351 269.397,-81.4917 269.397,-81.4917 269.397,-81.4917 257.217,-105.109 246.903,-125.107"/>
<polygon fill="#6666ff" stroke="#6666ff" points="243.673,-123.735 242.2,-134.227 249.894,-126.944 243.673,-123.735"/>
</g>
<!-- Metamodel::ConcreteRoleHOW&#45;&gt;Metamodel::AttributeContainer -->
<g id="edge41" class="edge"><title>Metamodel::ConcreteRoleHOW&#45;&gt;Metamodel::AttributeContainer</title>
<path fill="none" stroke="#6666ff" d="M359.252,354.799C351.059,309.737 330.497,196.639 330.497,196.639 330.497,196.639 267.632,139.376 267.632,139.376 267.632,139.376 239.901,81.6929 222.758,46.0336"/>
<polygon fill="#6666ff" stroke="#6666ff" points="219.413,47.1552 218.235,36.6261 225.722,44.1222 219.413,47.1552"/>
</g>
<!-- Metamodel::ConcreteRoleHOW&#45;&gt;Metamodel::PrivateMethodContainer -->
<g id="edge38" class="edge"><title>Metamodel::ConcreteRoleHOW&#45;&gt;Metamodel::PrivateMethodContainer</title>
<path fill="none" stroke="#6666ff" d="M359.252,354.799C351.059,309.737 330.497,196.639 330.497,196.639 330.497,196.639 267.632,139.376 267.632,139.376 267.632,139.376 364.773,3.61675 406.743,-55.0383"/>
<polygon fill="#6666ff" stroke="#6666ff" points="404.084,-57.3373 412.75,-63.4331 409.777,-53.2639 404.084,-57.3373"/>
</g>
<!-- Metamodel::ConcreteRoleHOW&#45;&gt;Metamodel::MultiMethodContainer -->
<g id="edge40" class="edge"><title>Metamodel::ConcreteRoleHOW&#45;&gt;Metamodel::MultiMethodContainer</title>
<path fill="none" stroke="#6666ff" d="M319.41,355.838C252.504,329.214 123.934,278.051 51.6019,249.268"/>
<polygon fill="#6666ff" stroke="#6666ff" points="50.2073,252.48 42.21,245.53 52.7955,245.976 50.2073,252.48"/>
</g>
<!-- Metamodel::ConcreteRoleHOW&#45;&gt;Metamodel::RoleContainer -->
<g id="edge42" class="edge"><title>Metamodel::ConcreteRoleHOW&#45;&gt;Metamodel::RoleContainer</title>
<path fill="none" stroke="#6666ff" d="M336.09,355.255C278.439,316.59 146.667,228.213 146.667,228.213 146.667,228.213 72.5226,196.825 72.5226,196.825 72.5226,196.825 48.9689,134.109 34.8851,96.6072"/>
<polygon fill="#6666ff" stroke="#6666ff" points="31.5992,97.8127 31.3599,87.2205 38.1523,95.3516 31.5992,97.8127"/>
</g>
<!-- Metamodel::ConcreteRoleHOW&#45;&gt;Metamodel::MultipleInheritance -->
<g id="edge43" class="edge"><title>Metamodel::ConcreteRoleHOW&#45;&gt;Metamodel::MultipleInheritance</title>
<path fill="none" stroke="#6666ff" d="M377.382,355.041C422.56,300.259 555.498,139.062 555.498,139.062 555.498,139.062 549.415,31.9384 549.415,31.9384 549.415,31.9384 614.706,-172.43 639.085,-248.737"/>
<polygon fill="#6666ff" stroke="#6666ff" points="635.865,-250.16 642.242,-258.62 642.533,-248.029 635.865,-250.16"/>
</g>
<!-- Metamodel::TypePretense -->
<g id="node26" class="node"><title>Metamodel::TypePretense</title>
<g id="a_node26"><a xlink:href="/type/Metamodel::TypePretense" xlink:title="Metamodel::TypePretense">
<ellipse fill="none" stroke="#6666ff" cx="642.231" cy="333.741" rx="114.28" ry="18"/>
<text text-anchor="middle" x="642.231" y="337.441" font-family="FreeSans" font-size="14.00" fill="#6666ff">Metamodel::TypePretense</text>
</a>
</g>
</g>
<!-- Metamodel::RolePunning -->
<g id="node27" class="node"><title>Metamodel::RolePunning</title>
<g id="a_node27"><a xlink:href="/type/Metamodel::RolePunning" xlink:title="Metamodel::RolePunning">
<ellipse fill="none" stroke="#6666ff" cx="660.855" cy="31.8935" rx="109.681" ry="18"/>
<text text-anchor="middle" x="660.855" y="35.5935" font-family="FreeSans" font-size="14.00" fill="#6666ff">Metamodel::RolePunning</text>
</a>
</g>
</g>
<!-- Metamodel::ParametricRoleHOW -->
<g id="node28" class="node"><title>Metamodel::ParametricRoleHOW</title>
<g id="a_node28"><a xlink:href="/type/Metamodel::ParametricRoleHOW" xlink:title="Metamodel::ParametricRoleHOW">
<ellipse fill="none" stroke="#000000" cx="411.565" cy="139.219" rx="142.175" ry="18"/>
<text text-anchor="middle" x="411.565" y="142.919" font-family="FreeSans" font-size="14.00" fill="#000000">Metamodel::ParametricRoleHOW</text>
</a>
</g>
</g>
<!-- Metamodel::ParametricRoleHOW&#45;&gt;Metamodel::MethodContainer -->
<g id="edge47" class="edge"><title>Metamodel::ParametricRoleHOW&#45;&gt;Metamodel::MethodContainer</title>
<path fill="none" stroke="#6666ff" d="M351.653,155.623C326.169,162.6 296.31,170.776 269.961,177.99"/>
<polygon fill="#6666ff" stroke="#6666ff" points="270.62,181.438 260.051,180.704 268.771,174.687 270.62,181.438"/>
</g>
<!-- Metamodel::ParametricRoleHOW&#45;&gt;Any -->
<g id="edge5" class="edge"><title>Metamodel::ParametricRoleHOW&#45;&gt;Any</title>
<path fill="none" stroke="#000000" d="M390.683,157.272C338.259,202.595 201.305,320.998 145.453,369.284"/>
<polygon fill="#000000" stroke="#000000" points="147.675,371.99 137.821,375.883 143.097,366.695 147.675,371.99"/>
</g>
<!-- Metamodel::ParametricRoleHOW&#45;&gt;Metamodel::Naming -->
<g id="edge44" class="edge"><title>Metamodel::ParametricRoleHOW&#45;&gt;Metamodel::Naming</title>
<path fill="none" stroke="#6666ff" d="M401.019,121.136C381.369,87.4416 341.124,18.4351 341.124,18.4351 341.124,18.4351 164.253,-75.0265 81.939,-118.523"/>
<polygon fill="#6666ff" stroke="#6666ff" points="80.065,-115.554 72.8587,-123.321 83.3355,-121.744 80.065,-115.554"/>
</g>
<!-- Metamodel::ParametricRoleHOW&#45;&gt;Metamodel::Documenting -->
<g id="edge45" class="edge"><title>Metamodel::ParametricRoleHOW&#45;&gt;Metamodel::Documenting</title>
<path fill="none" stroke="#6666ff" d="M401.019,121.136C381.369,87.4416 341.124,18.4351 341.124,18.4351 341.124,18.4351 269.397,-81.4917 269.397,-81.4917 269.397,-81.4917 335.105,-152.645 335.105,-152.645 335.105,-152.645 357.89,-246.713 369.629,-295.177"/>
<polygon fill="#6666ff" stroke="#6666ff" points="366.266,-296.158 372.022,-305.053 373.069,-294.51 366.266,-296.158"/>
</g>
<!-- Metamodel::ParametricRoleHOW&#45;&gt;Metamodel::Versioning -->
<g id="edge46" class="edge"><title>Metamodel::ParametricRoleHOW&#45;&gt;Metamodel::Versioning</title>
<path fill="none" stroke="#6666ff" d="M401.019,121.136C381.369,87.4416 341.124,18.4351 341.124,18.4351 341.124,18.4351 269.397,-81.4917 269.397,-81.4917 269.397,-81.4917 257.217,-105.109 246.903,-125.107"/>
<polygon fill="#6666ff" stroke="#6666ff" points="243.673,-123.735 242.2,-134.227 249.894,-126.944 243.673,-123.735"/>
</g>
<!-- Metamodel::ParametricRoleHOW&#45;&gt;Metamodel::Stashing -->
<g id="edge53" class="edge"><title>Metamodel::ParametricRoleHOW&#45;&gt;Metamodel::Stashing</title>
<path fill="none" stroke="#6666ff" d="M290.905,148.833C177.57,157.863 10.1491,171.204 -94.791,179.565"/>
<polygon fill="#6666ff" stroke="#6666ff" points="-94.8159,183.078 -105.062,180.384 -95.3719,176.1 -94.8159,183.078"/>
</g>
<!-- Metamodel::ParametricRoleHOW&#45;&gt;Metamodel::AttributeContainer -->
<g id="edge50" class="edge"><title>Metamodel::ParametricRoleHOW&#45;&gt;Metamodel::AttributeContainer</title>
<path fill="none" stroke="#6666ff" d="M381.755,121.411C346.292,100.227 287.006,64.8115 248.086,41.5622"/>
<polygon fill="#6666ff" stroke="#6666ff" points="245.931,44.3518 239.141,36.2187 249.521,38.3424 245.931,44.3518"/>
</g>
<!-- Metamodel::ParametricRoleHOW&#45;&gt;Metamodel::PrivateMethodContainer -->
<g id="edge48" class="edge"><title>Metamodel::ParametricRoleHOW&#45;&gt;Metamodel::PrivateMethodContainer</title>
<path fill="none" stroke="#6666ff" d="M412.72,121.156C415.177,82.7418 420.937,-7.30146 423.881,-53.3329"/>
<polygon fill="#6666ff" stroke="#6666ff" points="420.401,-53.7498 424.532,-63.5059 427.387,-53.3029 420.401,-53.7498"/>
</g>
<!-- Metamodel::ParametricRoleHOW&#45;&gt;Metamodel::MultiMethodContainer -->
<g id="edge49" class="edge"><title>Metamodel::ParametricRoleHOW&#45;&gt;Metamodel::MultiMethodContainer</title>
<path fill="none" stroke="#6666ff" d="M317.76,152.812C229.197,165.647 109.869,182.939 109.869,182.939 109.869,182.939 72.5226,196.825 72.5226,196.825 72.5226,196.825 62.0107,201.31 48.9273,206.893"/>
<polygon fill="#6666ff" stroke="#6666ff" points="50.1276,210.186 39.5562,210.891 47.3804,203.748 50.1276,210.186"/>
</g>
<!-- Metamodel::ParametricRoleHOW&#45;&gt;Metamodel::RoleContainer -->
<g id="edge51" class="edge"><title>Metamodel::ParametricRoleHOW&#45;&gt;Metamodel::RoleContainer</title>
<path fill="none" stroke="#6666ff" d="M329.971,124.457C265.431,112.78 175.583,96.524 110.058,84.669"/>
<polygon fill="#6666ff" stroke="#6666ff" points="109.383,88.1038 100.166,82.8793 110.63,81.2156 109.383,88.1038"/>
</g>
<!-- Metamodel::ParametricRoleHOW&#45;&gt;Metamodel::MultipleInheritance -->
<g id="edge52" class="edge"><title>Metamodel::ParametricRoleHOW&#45;&gt;Metamodel::MultipleInheritance</title>
<path fill="none" stroke="#6666ff" d="M425.51,121.154C466.208,68.4338 581.97,-81.5264 581.97,-81.5264 581.97,-81.5264 620.512,-195.429 638.757,-249.349"/>
<polygon fill="#6666ff" stroke="#6666ff" points="635.496,-250.63 642.016,-258.98 642.126,-248.386 635.496,-250.63"/>
</g>
<!-- Metamodel::ParametricRoleHOW&#45;&gt;Metamodel::TypePretense -->
<g id="edge54" class="edge"><title>Metamodel::ParametricRoleHOW&#45;&gt;Metamodel::TypePretense</title>
<path fill="none" stroke="#6666ff" d="M432.852,157.17C474.392,192.201 566.295,269.703 613.306,309.348"/>
<polygon fill="#6666ff" stroke="#6666ff" points="615.607,306.711 620.995,315.833 611.094,312.062 615.607,306.711"/>
</g>
<!-- Metamodel::ParametricRoleHOW&#45;&gt;Metamodel::RolePunning -->
<g id="edge55" class="edge"><title>Metamodel::ParametricRoleHOW&#45;&gt;Metamodel::RolePunning</title>
<path fill="none" stroke="#6666ff" d="M451.895,121.856C495.599,103.04 565.337,73.0162 612.087,52.8891"/>
<polygon fill="#6666ff" stroke="#6666ff" points="610.837,49.6167 621.406,48.877 613.605,56.0461 610.837,49.6167"/>
</g>
</g>
</svg>
