<?xml version="1.0" encoding="UTF-8" standalone="no"?>
<!DOCTYPE svg PUBLIC "-//W3C//DTD SVG 1.1//EN"
 "http://www.w3.org/Graphics/SVG/1.1/DTD/svg11.dtd">
<!-- Generated by graphviz version 2.38.0 (20140413.2041)
 -->
<!-- Title: perl6&#45;type&#45;graph Pages: 1 -->
<svg width="961pt" height="501pt"
 viewBox="0.00 0.00 961.23 501.35" xmlns="http://www.w3.org/2000/svg" xmlns:xlink="http://www.w3.org/1999/xlink">
<g id="graph0" class="graph" transform="scale(1 1) rotate(0) translate(415.153 220.186)">
<title>perl6&#45;type&#45;graph</title>
<polygon fill="white" stroke="none" points="-415.153,281.167 -415.153,-220.186 546.074,-220.186 546.074,281.167 -415.153,281.167"/>
<!-- Metamodel::NativeHOW -->
<g id="node1" class="node"><title>Metamodel::NativeHOW</title>
<g id="a_node1"><a xlink:href="/type/Metamodel::NativeHOW" xlink:title="Metamodel::NativeHOW">
<ellipse fill="none" stroke="#000000" cx="-56.6173" cy="-0.677319" rx="107.482" ry="18"/>
<text text-anchor="middle" x="-56.6173" y="3.02268" font-family="FreeSans" font-size="14.00" fill="#000000">Metamodel::NativeHOW</text>
</a>
</g>
</g>
<!-- Any -->
<g id="node3" class="node"><title>Any</title>
<g id="a_node3"><a xlink:href="/type/Any" xlink:title="Any">
<ellipse fill="none" stroke="#000000" cx="42.3173" cy="109.776" rx="27" ry="18"/>
<text text-anchor="middle" x="42.3173" y="113.476" font-family="FreeSans" font-size="14.00" fill="#000000">Any</text>
</a>
</g>
</g>
<!-- Metamodel::NativeHOW&#45;&gt;Any -->
<g id="edge1" class="edge"><title>Metamodel::NativeHOW&#45;&gt;Any</title>
<path fill="none" stroke="#000000" d="M-40.2803,17.5618C-23.4191,36.3861 2.94616,65.8211 21.3392,86.3555"/>
<polygon fill="#000000" stroke="#000000" points="24.1366,84.2328 28.2015,94.0168 18.9224,88.9032 24.1366,84.2328"/>
</g>
<!-- Metamodel::Naming -->
<g id="node4" class="node"><title>Metamodel::Naming</title>
<g id="a_node4"><a xlink:href="/type/Metamodel::Naming" xlink:title="Metamodel::Naming">
<ellipse fill="none" stroke="#6666ff" cx="-320.811" cy="-163.356" rx="90.1842" ry="18"/>
<text text-anchor="middle" x="-320.811" y="-159.656" font-family="FreeSans" font-size="14.00" fill="#6666ff">Metamodel::Naming</text>
</a>
</g>
</g>
<!-- Metamodel::NativeHOW&#45;&gt;Metamodel::Naming -->
<g id="edge3" class="edge"><title>Metamodel::NativeHOW&#45;&gt;Metamodel::Naming</title>
<path fill="none" stroke="#6666ff" d="M-84.8906,-18.0868C-132.96,-47.6856 -230.579,-107.795 -283.942,-140.654"/>
<polygon fill="#6666ff" stroke="#6666ff" points="-286.061,-137.848 -292.741,-146.072 -282.39,-143.809 -286.061,-137.848"/>
</g>
<!-- Metamodel::Documenting -->
<g id="node5" class="node"><title>Metamodel::Documenting</title>
<g id="a_node5"><a xlink:href="/type/Metamodel::Documenting" xlink:title="Metamodel::Documenting">
<ellipse fill="none" stroke="#6666ff" cx="96.9203" cy="-198.186" rx="111.28" ry="18"/>
<text text-anchor="middle" x="96.9203" y="-194.486" font-family="FreeSans" font-size="14.00" fill="#6666ff">Metamodel::Documenting</text>
</a>
</g>
</g>
<!-- Metamodel::NativeHOW&#45;&gt;Metamodel::Documenting -->
<g id="edge4" class="edge"><title>Metamodel::NativeHOW&#45;&gt;Metamodel::Documenting</title>
<path fill="none" stroke="#6666ff" d="M-42.7211,-18.5532C-15.4993,-53.5709 44.9503,-131.333 76.6412,-172.099"/>
<polygon fill="#6666ff" stroke="#6666ff" points="74.0441,-174.461 82.9448,-180.208 79.5707,-170.165 74.0441,-174.461"/>
</g>
<!-- Metamodel::Versioning -->
<g id="node6" class="node"><title>Metamodel::Versioning</title>
<g id="a_node6"><a xlink:href="/type/Metamodel::Versioning" xlink:title="Metamodel::Versioning">
<ellipse fill="none" stroke="#6666ff" cx="-116.838" cy="-175.367" rx="100.983" ry="18"/>
<text text-anchor="middle" x="-116.838" y="-171.667" font-family="FreeSans" font-size="14.00" fill="#6666ff">Metamodel::Versioning</text>
</a>
</g>
</g>
<!-- Metamodel::NativeHOW&#45;&gt;Metamodel::Versioning -->
<g id="edge5" class="edge"><title>Metamodel::NativeHOW&#45;&gt;Metamodel::Versioning</title>
<path fill="none" stroke="#6666ff" d="M-62.8351,-18.7142C-73.3381,-49.1815 -94.6655,-111.049 -107.145,-147.251"/>
<polygon fill="#6666ff" stroke="#6666ff" points="-110.613,-146.572 -110.564,-157.167 -103.996,-148.853 -110.613,-146.572"/>
</g>
<!-- Metamodel::Stashing -->
<g id="node7" class="node"><title>Metamodel::Stashing</title>
<g id="a_node7"><a xlink:href="/type/Metamodel::Stashing" xlink:title="Metamodel::Stashing">
<ellipse fill="none" stroke="#6666ff" cx="-297.612" cy="53.8502" rx="93.6835" ry="18"/>
<text text-anchor="middle" x="-297.612" y="57.5502" font-family="FreeSans" font-size="14.00" fill="#6666ff">Metamodel::Stashing</text>
</a>
</g>
</g>
<!-- Metamodel::NativeHOW&#45;&gt;Metamodel::Stashing -->
<g id="edge6" class="edge"><title>Metamodel::NativeHOW&#45;&gt;Metamodel::Stashing</title>
<path fill="none" stroke="#6666ff" d="M-120.567,13.7919C-153.311,21.2007 -193.261,30.2397 -226.919,37.8551"/>
<polygon fill="#6666ff" stroke="#6666ff" points="-226.163,41.2726 -236.689,40.0658 -227.708,34.4452 -226.163,41.2726"/>
</g>
<!-- Metamodel::MultipleInheritance -->
<g id="node8" class="node"><title>Metamodel::MultipleInheritance</title>
<g id="a_node8"><a xlink:href="/type/Metamodel::MultipleInheritance" xlink:title="Metamodel::MultipleInheritance">
<ellipse fill="none" stroke="#6666ff" cx="191.125" cy="-30.2989" rx="133.776" ry="18"/>
<text text-anchor="middle" x="191.125" y="-26.5989" font-family="FreeSans" font-size="14.00" fill="#6666ff">Metamodel::MultipleInheritance</text>
</a>
</g>
</g>
<!-- Metamodel::NativeHOW&#45;&gt;Metamodel::MultipleInheritance -->
<g id="edge7" class="edge"><title>Metamodel::NativeHOW&#45;&gt;Metamodel::MultipleInheritance</title>
<path fill="none" stroke="#6666ff" d="M31.0759,-11.1625C47.0985,-13.0782 64.0064,-15.0999 80.5915,-17.0829"/>
<polygon fill="#6666ff" stroke="#6666ff" points="80.5208,-20.5993 90.8656,-18.3113 81.3519,-13.6488 80.5208,-20.5993"/>
</g>
<!-- Metamodel::C3MRO -->
<g id="node9" class="node"><title>Metamodel::C3MRO</title>
<g id="a_node9"><a xlink:href="/type/Metamodel::C3MRO" xlink:title="Metamodel::C3MRO">
<ellipse fill="none" stroke="#6666ff" cx="-249.5" cy="242.632" rx="92.0841" ry="18"/>
<text text-anchor="middle" x="-249.5" y="246.332" font-family="FreeSans" font-size="14.00" fill="#6666ff">Metamodel::C3MRO</text>
</a>
</g>
</g>
<!-- Metamodel::NativeHOW&#45;&gt;Metamodel::C3MRO -->
<g id="edge8" class="edge"><title>Metamodel::NativeHOW&#45;&gt;Metamodel::C3MRO</title>
<path fill="none" stroke="#6666ff" d="M-70.8004,17.2138C-104.52,59.7485 -189.589,167.059 -228.944,216.702"/>
<polygon fill="#6666ff" stroke="#6666ff" points="-226.341,219.053 -235.296,224.715 -231.826,214.704 -226.341,219.053"/>
</g>
<!-- Metamodel::MROBasedMethodDispatch -->
<g id="node10" class="node"><title>Metamodel::MROBasedMethodDispatch</title>
<g id="a_node10"><a xlink:href="/type/Metamodel::MROBasedMethodDispatch" xlink:title="Metamodel::MROBasedMethodDispatch">
<ellipse fill="none" stroke="#6666ff" cx="354.888" cy="189.37" rx="169.77" ry="18"/>
<text text-anchor="middle" x="354.888" y="193.07" font-family="FreeSans" font-size="14.00" fill="#6666ff">Metamodel::MROBasedMethodDispatch</text>
</a>
</g>
</g>
<!-- Metamodel::NativeHOW&#45;&gt;Metamodel::MROBasedMethodDispatch -->
<g id="edge9" class="edge"><title>Metamodel::NativeHOW&#45;&gt;Metamodel::MROBasedMethodDispatch</title>
<path fill="none" stroke="#6666ff" d="M-19.7368,16.3554C55.1048,50.9199 224.72,129.254 307.568,167.516"/>
<polygon fill="#6666ff" stroke="#6666ff" points="309.139,164.387 316.75,171.757 306.204,170.742 309.139,164.387"/>
</g>
<!-- Metamodel::MROBasedTypeChecking -->
<g id="node11" class="node"><title>Metamodel::MROBasedTypeChecking</title>
<g id="a_node11"><a xlink:href="/type/Metamodel::MROBasedTypeChecking" xlink:title="Metamodel::MROBasedTypeChecking">
<ellipse fill="none" stroke="#6666ff" cx="378.939" cy="-135.334" rx="163.271" ry="18"/>
<text text-anchor="middle" x="378.939" y="-131.634" font-family="FreeSans" font-size="14.00" fill="#6666ff">Metamodel::MROBasedTypeChecking</text>
</a>
</g>
</g>
<!-- Metamodel::NativeHOW&#45;&gt;Metamodel::MROBasedTypeChecking -->
<g id="edge10" class="edge"><title>Metamodel::NativeHOW&#45;&gt;Metamodel::MROBasedTypeChecking</title>
<path fill="none" stroke="#6666ff" d="M-5.37266,-16.5201C74.0937,-41.0879 226.94,-88.3419 314.018,-115.263"/>
<polygon fill="#6666ff" stroke="#6666ff" points="313.197,-118.672 323.785,-118.282 315.265,-111.985 313.197,-118.672"/>
</g>
<!-- Mu -->
<g id="node2" class="node"><title>Mu</title>
<g id="a_node2"><a xlink:href="/type/Mu" xlink:title="Mu">
<ellipse fill="none" stroke="#000000" cx="72.9871" cy="259.167" rx="27" ry="18"/>
<text text-anchor="middle" x="72.9871" y="262.867" font-family="FreeSans" font-size="14.00" fill="#000000">Mu</text>
</a>
</g>
</g>
<!-- Any&#45;&gt;Mu -->
<g id="edge2" class="edge"><title>Any&#45;&gt;Mu</title>
<path fill="none" stroke="#000000" d="M46.0168,127.796C51.2899,153.481 61.016,200.856 67.2343,231.145"/>
<polygon fill="#000000" stroke="#000000" points="70.6919,230.583 69.2745,241.083 63.8349,231.991 70.6919,230.583"/>
</g>
</g>
</svg>
