<?xml version="1.0" encoding="UTF-8" standalone="no"?>
<!DOCTYPE svg PUBLIC "-//W3C//DTD SVG 1.1//EN"
 "http://www.w3.org/Graphics/SVG/1.1/DTD/svg11.dtd">
<!-- Generated by graphviz version 2.38.0 (20140413.2041)
 -->
<!-- Title: perl6&#45;type&#45;graph Pages: 1 -->
<svg width="207pt" height="260pt"
 viewBox="0.00 0.00 206.88 260.00" xmlns="http://www.w3.org/2000/svg" xmlns:xlink="http://www.w3.org/1999/xlink">
<g id="graph0" class="graph" transform="scale(1 1) rotate(0) translate(4 256)">
<title>perl6&#45;type&#45;graph</title>
<polygon fill="white" stroke="none" points="-4,4 -4,-256 202.882,-256 202.882,4 -4,4"/>
<!-- X::Dynamic::NotFound -->
<g id="node1" class="node"><title>X::Dynamic::NotFound</title>
<g id="a_node1"><a xlink:href="/type/X::Dynamic::NotFound" xlink:title="X::Dynamic::NotFound">
<ellipse fill="none" stroke="#000000" cx="99.4412" cy="-18" rx="99.3824" ry="18"/>
<text text-anchor="middle" x="99.4412" y="-14.3" font-family="FreeSans" font-size="14.00" fill="#000000">X::Dynamic::NotFound</text>
</a>
</g>
</g>
<!-- Exception -->
<g id="node4" class="node"><title>Exception</title>
<g id="a_node4"><a xlink:href="/type/Exception" xlink:title="Exception">
<ellipse fill="none" stroke="#000000" cx="99.4412" cy="-90" rx="49.2915" ry="18"/>
<text text-anchor="middle" x="99.4412" y="-86.3" font-family="FreeSans" font-size="14.00" fill="#000000">Exception</text>
</a>
</g>
</g>
<!-- X::Dynamic::NotFound&#45;&gt;Exception -->
<g id="edge1" class="edge"><title>X::Dynamic::NotFound&#45;&gt;Exception</title>
<path fill="none" stroke="#000000" d="M99.4412,-36.3034C99.4412,-44.0173 99.4412,-53.2875 99.4412,-61.8876"/>
<polygon fill="#000000" stroke="#000000" points="95.9413,-61.8956 99.4412,-71.8957 102.941,-61.8957 95.9413,-61.8956"/>
</g>
<!-- Mu -->
<g id="node2" class="node"><title>Mu</title>
<g id="a_node2"><a xlink:href="/type/Mu" xlink:title="Mu">
<ellipse fill="none" stroke="#000000" cx="99.4412" cy="-234" rx="27" ry="18"/>
<text text-anchor="middle" x="99.4412" y="-230.3" font-family="FreeSans" font-size="14.00" fill="#000000">Mu</text>
</a>
</g>
</g>
<!-- Any -->
<g id="node3" class="node"><title>Any</title>
<g id="a_node3"><a xlink:href="/type/Any" xlink:title="Any">
<ellipse fill="none" stroke="#000000" cx="99.4412" cy="-162" rx="27" ry="18"/>
<text text-anchor="middle" x="99.4412" y="-158.3" font-family="FreeSans" font-size="14.00" fill="#000000">Any</text>
</a>
</g>
</g>
<!-- Any&#45;&gt;Mu -->
<g id="edge2" class="edge"><title>Any&#45;&gt;Mu</title>
<path fill="none" stroke="#000000" d="M99.4412,-180.303C99.4412,-188.017 99.4412,-197.288 99.4412,-205.888"/>
<polygon fill="#000000" stroke="#000000" points="95.9413,-205.896 99.4412,-215.896 102.941,-205.896 95.9413,-205.896"/>
</g>
<!-- Exception&#45;&gt;Any -->
<g id="edge3" class="edge"><title>Exception&#45;&gt;Any</title>
<path fill="none" stroke="#000000" d="M99.4412,-108.303C99.4412,-116.017 99.4412,-125.288 99.4412,-133.888"/>
<polygon fill="#000000" stroke="#000000" points="95.9413,-133.896 99.4412,-143.896 102.941,-133.896 95.9413,-133.896"/>
</g>
</g>
</svg>
