<?xml version="1.0" encoding="UTF-8" standalone="no"?>
<!DOCTYPE svg PUBLIC "-//W3C//DTD SVG 1.1//EN"
 "http://www.w3.org/Graphics/SVG/1.1/DTD/svg11.dtd">
<!-- Generated by graphviz version 2.38.0 (20140413.2041)
 -->
<!-- Title: perl6&#45;type&#45;graph Pages: 1 -->
<svg width="164pt" height="332pt"
 viewBox="0.00 0.00 163.99 332.00" xmlns="http://www.w3.org/2000/svg" xmlns:xlink="http://www.w3.org/1999/xlink">
<g id="graph0" class="graph" transform="scale(1 1) rotate(0) translate(4 328)">
<title>perl6&#45;type&#45;graph</title>
<polygon fill="white" stroke="none" points="-4,4 -4,-328 159.986,-328 159.986,4 -4,4"/>
<!-- X::Bind::Slice -->
<g id="node1" class="node"><title>X::Bind::Slice</title>
<g id="a_node1"><a xlink:href="/type/X::Bind::Slice" xlink:title="X::Bind::Slice">
<ellipse fill="none" stroke="#000000" cx="77.9931" cy="-90" rx="63.0888" ry="18"/>
<text text-anchor="middle" x="77.9931" y="-86.3" font-family="FreeSans" font-size="14.00" fill="#000000">X::Bind::Slice</text>
</a>
</g>
</g>
<!-- Exception -->
<g id="node4" class="node"><title>Exception</title>
<g id="a_node4"><a xlink:href="/type/Exception" xlink:title="Exception">
<ellipse fill="none" stroke="#000000" cx="77.9931" cy="-162" rx="49.2915" ry="18"/>
<text text-anchor="middle" x="77.9931" y="-158.3" font-family="FreeSans" font-size="14.00" fill="#000000">Exception</text>
</a>
</g>
</g>
<!-- X::Bind::Slice&#45;&gt;Exception -->
<g id="edge1" class="edge"><title>X::Bind::Slice&#45;&gt;Exception</title>
<path fill="none" stroke="#000000" d="M77.9931,-108.303C77.9931,-116.017 77.9931,-125.288 77.9931,-133.888"/>
<polygon fill="#000000" stroke="#000000" points="74.4932,-133.896 77.9931,-143.896 81.4932,-133.896 74.4932,-133.896"/>
</g>
<!-- Mu -->
<g id="node2" class="node"><title>Mu</title>
<g id="a_node2"><a xlink:href="/type/Mu" xlink:title="Mu">
<ellipse fill="none" stroke="#000000" cx="77.9931" cy="-306" rx="27" ry="18"/>
<text text-anchor="middle" x="77.9931" y="-302.3" font-family="FreeSans" font-size="14.00" fill="#000000">Mu</text>
</a>
</g>
</g>
<!-- Any -->
<g id="node3" class="node"><title>Any</title>
<g id="a_node3"><a xlink:href="/type/Any" xlink:title="Any">
<ellipse fill="none" stroke="#000000" cx="77.9931" cy="-234" rx="27" ry="18"/>
<text text-anchor="middle" x="77.9931" y="-230.3" font-family="FreeSans" font-size="14.00" fill="#000000">Any</text>
</a>
</g>
</g>
<!-- Any&#45;&gt;Mu -->
<g id="edge2" class="edge"><title>Any&#45;&gt;Mu</title>
<path fill="none" stroke="#000000" d="M77.9931,-252.303C77.9931,-260.017 77.9931,-269.288 77.9931,-277.888"/>
<polygon fill="#000000" stroke="#000000" points="74.4932,-277.896 77.9931,-287.896 81.4932,-277.896 74.4932,-277.896"/>
</g>
<!-- Exception&#45;&gt;Any -->
<g id="edge3" class="edge"><title>Exception&#45;&gt;Any</title>
<path fill="none" stroke="#000000" d="M77.9931,-180.303C77.9931,-188.017 77.9931,-197.288 77.9931,-205.888"/>
<polygon fill="#000000" stroke="#000000" points="74.4932,-205.896 77.9931,-215.896 81.4932,-205.896 74.4932,-205.896"/>
</g>
<!-- X::Bind::ZenSlice -->
<g id="node5" class="node"><title>X::Bind::ZenSlice</title>
<g id="a_node5"><a xlink:href="/type/X::Bind::ZenSlice" xlink:title="X::Bind::ZenSlice">
<ellipse fill="none" stroke="#000000" cx="77.9931" cy="-18" rx="77.9862" ry="18"/>
<text text-anchor="middle" x="77.9931" y="-14.3" font-family="FreeSans" font-size="14.00" fill="#000000">X::Bind::ZenSlice</text>
</a>
</g>
</g>
<!-- X::Bind::ZenSlice&#45;&gt;X::Bind::Slice -->
<g id="edge4" class="edge"><title>X::Bind::ZenSlice&#45;&gt;X::Bind::Slice</title>
<path fill="none" stroke="#000000" d="M77.9931,-36.3034C77.9931,-44.0173 77.9931,-53.2875 77.9931,-61.8876"/>
<polygon fill="#000000" stroke="#000000" points="74.4932,-61.8956 77.9931,-71.8957 81.4932,-61.8957 74.4932,-61.8956"/>
</g>
</g>
</svg>
