<?xml version="1.0" encoding="UTF-8" standalone="no"?>
<!DOCTYPE svg PUBLIC "-//W3C//DTD SVG 1.1//EN"
 "http://www.w3.org/Graphics/SVG/1.1/DTD/svg11.dtd">
<!-- Generated by graphviz version 2.38.0 (20140413.2041)
 -->
<!-- Title: perl6&#45;type&#45;graph Pages: 1 -->
<svg width="886pt" height="332pt"
 viewBox="0.00 0.00 886.28 332.00" xmlns="http://www.w3.org/2000/svg" xmlns:xlink="http://www.w3.org/1999/xlink">
<g id="graph0" class="graph" transform="scale(1 1) rotate(0) translate(4 328)">
<title>perl6&#45;type&#45;graph</title>
<polygon fill="white" stroke="none" points="-4,4 -4,-328 882.283,-328 882.283,4 -4,4"/>
<!-- X::TypeCheck -->
<g id="node1" class="node"><title>X::TypeCheck</title>
<g id="a_node1"><a xlink:href="/type/X::TypeCheck" xlink:title="X::TypeCheck">
<ellipse fill="none" stroke="#000000" cx="443.542" cy="-90" rx="66.8882" ry="18"/>
<text text-anchor="middle" x="443.542" y="-86.3" font-family="FreeSans" font-size="14.00" fill="#000000">X::TypeCheck</text>
</a>
</g>
</g>
<!-- Exception -->
<g id="node4" class="node"><title>Exception</title>
<g id="a_node4"><a xlink:href="/type/Exception" xlink:title="Exception">
<ellipse fill="none" stroke="#000000" cx="443.542" cy="-162" rx="49.2915" ry="18"/>
<text text-anchor="middle" x="443.542" y="-158.3" font-family="FreeSans" font-size="14.00" fill="#000000">Exception</text>
</a>
</g>
</g>
<!-- X::TypeCheck&#45;&gt;Exception -->
<g id="edge1" class="edge"><title>X::TypeCheck&#45;&gt;Exception</title>
<path fill="none" stroke="#000000" d="M443.542,-108.303C443.542,-116.017 443.542,-125.288 443.542,-133.888"/>
<polygon fill="#000000" stroke="#000000" points="440.042,-133.896 443.542,-143.896 447.042,-133.896 440.042,-133.896"/>
</g>
<!-- Mu -->
<g id="node2" class="node"><title>Mu</title>
<g id="a_node2"><a xlink:href="/type/Mu" xlink:title="Mu">
<ellipse fill="none" stroke="#000000" cx="443.542" cy="-306" rx="27" ry="18"/>
<text text-anchor="middle" x="443.542" y="-302.3" font-family="FreeSans" font-size="14.00" fill="#000000">Mu</text>
</a>
</g>
</g>
<!-- Any -->
<g id="node3" class="node"><title>Any</title>
<g id="a_node3"><a xlink:href="/type/Any" xlink:title="Any">
<ellipse fill="none" stroke="#000000" cx="443.542" cy="-234" rx="27" ry="18"/>
<text text-anchor="middle" x="443.542" y="-230.3" font-family="FreeSans" font-size="14.00" fill="#000000">Any</text>
</a>
</g>
</g>
<!-- Any&#45;&gt;Mu -->
<g id="edge2" class="edge"><title>Any&#45;&gt;Mu</title>
<path fill="none" stroke="#000000" d="M443.542,-252.303C443.542,-260.017 443.542,-269.288 443.542,-277.888"/>
<polygon fill="#000000" stroke="#000000" points="440.042,-277.896 443.542,-287.896 447.042,-277.896 440.042,-277.896"/>
</g>
<!-- Exception&#45;&gt;Any -->
<g id="edge3" class="edge"><title>Exception&#45;&gt;Any</title>
<path fill="none" stroke="#000000" d="M443.542,-180.303C443.542,-188.017 443.542,-197.288 443.542,-205.888"/>
<polygon fill="#000000" stroke="#000000" points="440.042,-205.896 443.542,-215.896 447.042,-205.896 440.042,-205.896"/>
</g>
<!-- X::TypeCheck::Splice -->
<g id="node5" class="node"><title>X::TypeCheck::Splice</title>
<g id="a_node5"><a xlink:href="/type/X::TypeCheck::Splice" xlink:title="X::TypeCheck::Splice">
<ellipse fill="none" stroke="#000000" cx="95.5415" cy="-18" rx="95.5831" ry="18"/>
<text text-anchor="middle" x="95.5415" y="-14.3" font-family="FreeSans" font-size="14.00" fill="#000000">X::TypeCheck::Splice</text>
</a>
</g>
</g>
<!-- X::TypeCheck::Splice&#45;&gt;X::TypeCheck -->
<g id="edge4" class="edge"><title>X::TypeCheck::Splice&#45;&gt;X::TypeCheck</title>
<path fill="none" stroke="#000000" d="M158.159,-31.5954C221.499,-44.3363 318.812,-63.9107 381.827,-76.5861"/>
<polygon fill="#000000" stroke="#000000" points="381.142,-80.0183 391.636,-78.5591 382.522,-73.1558 381.142,-80.0183"/>
</g>
<!-- X::TypeCheck::Assignment -->
<g id="node6" class="node"><title>X::TypeCheck::Assignment</title>
<g id="a_node6"><a xlink:href="/type/X::TypeCheck::Assignment" xlink:title="X::TypeCheck::Assignment">
<ellipse fill="none" stroke="#000000" cx="326.542" cy="-18" rx="117.779" ry="18"/>
<text text-anchor="middle" x="326.542" y="-14.3" font-family="FreeSans" font-size="14.00" fill="#000000">X::TypeCheck::Assignment</text>
</a>
</g>
</g>
<!-- X::TypeCheck::Assignment&#45;&gt;X::TypeCheck -->
<g id="edge5" class="edge"><title>X::TypeCheck::Assignment&#45;&gt;X::TypeCheck</title>
<path fill="none" stroke="#000000" d="M354.269,-35.589C370.496,-45.2978 391.14,-57.6488 408.488,-68.0278"/>
<polygon fill="#000000" stroke="#000000" points="406.84,-71.1204 417.218,-73.2511 410.434,-65.1134 406.84,-71.1204"/>
</g>
<!-- X::TypeCheck::Return -->
<g id="node7" class="node"><title>X::TypeCheck::Return</title>
<g id="a_node7"><a xlink:href="/type/X::TypeCheck::Return" xlink:title="X::TypeCheck::Return">
<ellipse fill="none" stroke="#000000" cx="560.542" cy="-18" rx="98.2828" ry="18"/>
<text text-anchor="middle" x="560.542" y="-14.3" font-family="FreeSans" font-size="14.00" fill="#000000">X::TypeCheck::Return</text>
</a>
</g>
</g>
<!-- X::TypeCheck::Return&#45;&gt;X::TypeCheck -->
<g id="edge6" class="edge"><title>X::TypeCheck::Return&#45;&gt;X::TypeCheck</title>
<path fill="none" stroke="#000000" d="M533.11,-35.4119C516.776,-45.1848 495.888,-57.6815 478.393,-68.1484"/>
<polygon fill="#000000" stroke="#000000" points="476.381,-65.274 469.596,-73.4118 479.975,-71.281 476.381,-65.274"/>
</g>
<!-- X::TypeCheck::Binding -->
<g id="node8" class="node"><title>X::TypeCheck::Binding</title>
<g id="a_node8"><a xlink:href="/type/X::TypeCheck::Binding" xlink:title="X::TypeCheck::Binding">
<ellipse fill="none" stroke="#000000" cx="777.542" cy="-18" rx="100.983" ry="18"/>
<text text-anchor="middle" x="777.542" y="-14.3" font-family="FreeSans" font-size="14.00" fill="#000000">X::TypeCheck::Binding</text>
</a>
</g>
</g>
<!-- X::TypeCheck::Binding&#45;&gt;X::TypeCheck -->
<g id="edge7" class="edge"><title>X::TypeCheck::Binding&#45;&gt;X::TypeCheck</title>
<path fill="none" stroke="#000000" d="M714.719,-32.1665C654.519,-44.7832 564.249,-63.7021 504.634,-76.1962"/>
<polygon fill="#000000" stroke="#000000" points="503.676,-72.8208 494.607,-78.2977 505.112,-79.6719 503.676,-72.8208"/>
</g>
</g>
</svg>
