<?xml version="1.0" encoding="UTF-8" standalone="no"?>
<!DOCTYPE svg PUBLIC "-//W3C//DTD SVG 1.1//EN"
 "http://www.w3.org/Graphics/SVG/1.1/DTD/svg11.dtd">
<!-- Generated by graphviz version 2.38.0 (20140413.2041)
 -->
<!-- Title: perl6&#45;type&#45;graph Pages: 1 -->
<svg width="1818pt" height="404pt"
 viewBox="0.00 0.00 1818.39 404.00" xmlns="http://www.w3.org/2000/svg" xmlns:xlink="http://www.w3.org/1999/xlink">
<g id="graph0" class="graph" transform="scale(1 1) rotate(0) translate(4 400)">
<title>perl6&#45;type&#45;graph</title>
<polygon fill="white" stroke="none" points="-4,4 -4,-400 1814.39,-400 1814.39,4 -4,4"/>
<!-- X::OS -->
<g id="node1" class="node"><title>X::OS</title>
<g id="a_node1"><a xlink:href="/type/X::OS" xlink:title="X::OS">
<ellipse fill="none" stroke="#6666ff" cx="922.795" cy="-162" rx="34.394" ry="18"/>
<text text-anchor="middle" x="922.795" y="-158.3" font-family="FreeSans" font-size="14.00" fill="#6666ff">X::OS</text>
</a>
</g>
</g>
<!-- Exception -->
<g id="node4" class="node"><title>Exception</title>
<g id="a_node4"><a xlink:href="/type/Exception" xlink:title="Exception">
<ellipse fill="none" stroke="#000000" cx="993.795" cy="-234" rx="49.2915" ry="18"/>
<text text-anchor="middle" x="993.795" y="-230.3" font-family="FreeSans" font-size="14.00" fill="#000000">Exception</text>
</a>
</g>
</g>
<!-- X::OS&#45;&gt;Exception -->
<g id="edge1" class="edge"><title>X::OS&#45;&gt;Exception</title>
<path fill="none" stroke="#000000" d="M938.201,-178.189C947.521,-187.378 959.597,-199.284 970.112,-209.651"/>
<polygon fill="#000000" stroke="#000000" points="967.852,-212.338 977.431,-216.866 972.767,-207.353 967.852,-212.338"/>
</g>
<!-- Mu -->
<g id="node2" class="node"><title>Mu</title>
<g id="a_node2"><a xlink:href="/type/Mu" xlink:title="Mu">
<ellipse fill="none" stroke="#000000" cx="993.795" cy="-378" rx="27" ry="18"/>
<text text-anchor="middle" x="993.795" y="-374.3" font-family="FreeSans" font-size="14.00" fill="#000000">Mu</text>
</a>
</g>
</g>
<!-- Any -->
<g id="node3" class="node"><title>Any</title>
<g id="a_node3"><a xlink:href="/type/Any" xlink:title="Any">
<ellipse fill="none" stroke="#000000" cx="993.795" cy="-306" rx="27" ry="18"/>
<text text-anchor="middle" x="993.795" y="-302.3" font-family="FreeSans" font-size="14.00" fill="#000000">Any</text>
</a>
</g>
</g>
<!-- Any&#45;&gt;Mu -->
<g id="edge2" class="edge"><title>Any&#45;&gt;Mu</title>
<path fill="none" stroke="#000000" d="M993.795,-324.303C993.795,-332.017 993.795,-341.288 993.795,-349.888"/>
<polygon fill="#000000" stroke="#000000" points="990.295,-349.896 993.795,-359.896 997.295,-349.896 990.295,-349.896"/>
</g>
<!-- Exception&#45;&gt;Any -->
<g id="edge3" class="edge"><title>Exception&#45;&gt;Any</title>
<path fill="none" stroke="#000000" d="M993.795,-252.303C993.795,-260.017 993.795,-269.288 993.795,-277.888"/>
<polygon fill="#000000" stroke="#000000" points="990.295,-277.896 993.795,-287.896 997.295,-277.896 990.295,-277.896"/>
</g>
<!-- X::IO -->
<g id="node5" class="node"><title>X::IO</title>
<g id="a_node5"><a xlink:href="/type/X::IO" xlink:title="X::IO">
<ellipse fill="none" stroke="#6666ff" cx="912.795" cy="-90" rx="31.3957" ry="18"/>
<text text-anchor="middle" x="912.795" y="-86.3" font-family="FreeSans" font-size="14.00" fill="#6666ff">X::IO</text>
</a>
</g>
</g>
<!-- X::IO&#45;&gt;X::OS -->
<g id="edge33" class="edge"><title>X::IO&#45;&gt;X::OS</title>
<path fill="none" stroke="#6666ff" d="M915.267,-108.303C916.369,-116.017 917.693,-125.288 918.921,-133.888"/>
<polygon fill="#6666ff" stroke="#6666ff" points="915.472,-134.491 920.351,-143.896 922.402,-133.501 915.472,-134.491"/>
</g>
<!-- X::IO&#45;&gt;Exception -->
<g id="edge4" class="edge"><title>X::IO&#45;&gt;Exception</title>
<path fill="none" stroke="#000000" d="M902.714,-107.19C893.01,-122.776 879.795,-144 879.795,-144 879.795,-144 879.795,-180 879.795,-180 879.795,-180 921.93,-199.589 954.968,-214.949"/>
<polygon fill="#000000" stroke="#000000" points="953.893,-218.309 964.437,-219.351 956.844,-211.962 953.893,-218.309"/>
</g>
<!-- X::IO::Rmdir -->
<g id="node6" class="node"><title>X::IO::Rmdir</title>
<g id="a_node6"><a xlink:href="/type/X::IO::Rmdir" xlink:title="X::IO::Rmdir">
<ellipse fill="none" stroke="#000000" cx="59.7947" cy="-18" rx="59.5901" ry="18"/>
<text text-anchor="middle" x="59.7947" y="-14.3" font-family="FreeSans" font-size="14.00" fill="#000000">X::IO::Rmdir</text>
</a>
</g>
</g>
<!-- X::IO::Rmdir&#45;&gt;Exception -->
<g id="edge5" class="edge"><title>X::IO::Rmdir&#45;&gt;Exception</title>
<path fill="none" stroke="#000000" d="M95.5317,-32.588C204.098,-71.403 521.795,-180 521.795,-180 521.795,-180 810.96,-213.101 936.688,-226.985"/>
<polygon fill="#000000" stroke="#000000" points="936.571,-230.493 946.894,-228.109 937.337,-223.535 936.571,-230.493"/>
</g>
<!-- X::IO::Rmdir&#45;&gt;Exception -->
<g id="edge6" class="edge"><title>X::IO::Rmdir&#45;&gt;Exception</title>
<path fill="none" stroke="#000000" d="M100.232,-31.4994C216.025,-69.3271 539.795,-180 539.795,-180 539.795,-180 816.028,-211.621 937.617,-226.014"/>
<polygon fill="#000000" stroke="#000000" points="937.501,-229.524 947.843,-227.227 938.325,-222.573 937.501,-229.524"/>
</g>
<!-- X::IO::Rmdir&#45;&gt;X::IO -->
<g id="edge34" class="edge"><title>X::IO::Rmdir&#45;&gt;X::IO</title>
<path fill="none" stroke="#6666ff" d="M104.662,-30.0542C117.841,-33.3012 128.795,-36 128.795,-36 128.795,-36 709.962,-75.2881 871.551,-86.2118"/>
<polygon fill="#6666ff" stroke="#6666ff" points="871.364,-89.7071 881.577,-86.8896 871.836,-82.723 871.364,-89.7071"/>
</g>
<!-- X::IO::Cwd -->
<g id="node7" class="node"><title>X::IO::Cwd</title>
<g id="a_node7"><a xlink:href="/type/X::IO::Cwd" xlink:title="X::IO::Cwd">
<ellipse fill="none" stroke="#000000" cx="191.795" cy="-18" rx="53.8905" ry="18"/>
<text text-anchor="middle" x="191.795" y="-14.3" font-family="FreeSans" font-size="14.00" fill="#000000">X::IO::Cwd</text>
</a>
</g>
</g>
<!-- X::IO::Cwd&#45;&gt;Exception -->
<g id="edge7" class="edge"><title>X::IO::Cwd&#45;&gt;Exception</title>
<path fill="none" stroke="#000000" d="M224.305,-32.4499C324.33,-71.1446 619.795,-180 619.795,-180 619.795,-180 833.694,-211.059 938.041,-225.625"/>
<polygon fill="#000000" stroke="#000000" points="937.702,-229.111 948.089,-227.023 938.667,-222.178 937.702,-229.111"/>
</g>
<!-- X::IO::Cwd&#45;&gt;Exception -->
<g id="edge8" class="edge"><title>X::IO::Cwd&#45;&gt;Exception</title>
<path fill="none" stroke="#000000" d="M228.834,-31.2333C335.98,-68.805 637.795,-180 637.795,-180 637.795,-180 839.825,-209.336 939.566,-224.357"/>
<polygon fill="#000000" stroke="#000000" points="939.057,-227.82 949.468,-225.852 940.103,-220.898 939.057,-227.82"/>
</g>
<!-- X::IO::Cwd&#45;&gt;X::IO -->
<g id="edge35" class="edge"><title>X::IO::Cwd&#45;&gt;X::IO</title>
<path fill="none" stroke="#6666ff" d="M232.11,-30.0542C243.952,-33.3012 253.795,-36 253.795,-36 253.795,-36 727.596,-74.1054 871.707,-85.6955"/>
<polygon fill="#6666ff" stroke="#6666ff" points="871.645,-89.2018 881.894,-86.5148 872.206,-82.2243 871.645,-89.2018"/>
</g>
<!-- X::IO::Copy -->
<g id="node8" class="node"><title>X::IO::Copy</title>
<g id="a_node8"><a xlink:href="/type/X::IO::Copy" xlink:title="X::IO::Copy">
<ellipse fill="none" stroke="#000000" cx="319.795" cy="-18" rx="56.59" ry="18"/>
<text text-anchor="middle" x="319.795" y="-14.3" font-family="FreeSans" font-size="14.00" fill="#000000">X::IO::Copy</text>
</a>
</g>
</g>
<!-- X::IO::Copy&#45;&gt;Exception -->
<g id="edge9" class="edge"><title>X::IO::Copy&#45;&gt;Exception</title>
<path fill="none" stroke="#000000" d="M350.681,-33.1466C442.885,-72.4335 708.795,-180 708.795,-180 708.795,-180 857.125,-208.484 939.851,-223.689"/>
<polygon fill="#000000" stroke="#000000" points="939.377,-227.16 949.844,-225.519 940.638,-220.275 939.377,-227.16"/>
</g>
<!-- X::IO::Copy&#45;&gt;Exception -->
<g id="edge10" class="edge"><title>X::IO::Copy&#45;&gt;Exception</title>
<path fill="none" stroke="#000000" d="M355.97,-32.0389C455.778,-70.3675 726.795,-180 726.795,-180 726.795,-180 864.581,-206.459 942.27,-221.987"/>
<polygon fill="#000000" stroke="#000000" points="941.86,-225.475 952.353,-224.009 943.237,-218.611 941.86,-225.475"/>
</g>
<!-- X::IO::Copy&#45;&gt;X::IO -->
<g id="edge36" class="edge"><title>X::IO::Copy&#45;&gt;X::IO</title>
<path fill="none" stroke="#6666ff" d="M362.061,-30.0542C374.476,-33.3012 384.795,-36 384.795,-36 384.795,-36 747.959,-72.454 871.911,-84.8962"/>
<polygon fill="#6666ff" stroke="#6666ff" points="871.825,-88.4051 882.125,-85.9214 872.525,-81.4401 871.825,-88.4051"/>
</g>
<!-- X::IO::Rename -->
<g id="node9" class="node"><title>X::IO::Rename</title>
<g id="a_node9"><a xlink:href="/type/X::IO::Rename" xlink:title="X::IO::Rename">
<ellipse fill="none" stroke="#000000" cx="463.795" cy="-18" rx="69.5877" ry="18"/>
<text text-anchor="middle" x="463.795" y="-14.3" font-family="FreeSans" font-size="14.00" fill="#000000">X::IO::Rename</text>
</a>
</g>
</g>
<!-- X::IO::Rename&#45;&gt;Exception -->
<g id="edge11" class="edge"><title>X::IO::Rename&#45;&gt;Exception</title>
<path fill="none" stroke="#000000" d="M491.38,-34.5836C569.206,-74.9885 783.795,-180 783.795,-180 783.795,-180 880.547,-205.512 942.804,-221.135"/>
<polygon fill="#000000" stroke="#000000" points="942.309,-224.619 952.859,-223.647 944.005,-217.828 942.309,-224.619"/>
</g>
<!-- X::IO::Rename&#45;&gt;Exception -->
<g id="edge12" class="edge"><title>X::IO::Rename&#45;&gt;Exception</title>
<path fill="none" stroke="#000000" d="M498.019,-33.7145C584.081,-73.4592 801.795,-180 801.795,-180 801.795,-180 890.228,-203.318 947.152,-219.021"/>
<polygon fill="#000000" stroke="#000000" points="946.468,-222.463 957.039,-221.76 948.337,-215.717 946.468,-222.463"/>
</g>
<!-- X::IO::Rename&#45;&gt;X::IO -->
<g id="edge37" class="edge"><title>X::IO::Rename&#45;&gt;X::IO</title>
<path fill="none" stroke="#6666ff" d="M515.607,-30.1496C530.498,-33.3539 542.795,-36 542.795,-36 542.795,-36 776.867,-69.5292 872.659,-83.2508"/>
<polygon fill="#6666ff" stroke="#6666ff" points="872.434,-86.7543 882.829,-84.7077 873.427,-79.825 872.434,-86.7543"/>
</g>
<!-- X::IO::Chmod -->
<g id="node10" class="node"><title>X::IO::Chmod</title>
<g id="a_node10"><a xlink:href="/type/X::IO::Chmod" xlink:title="X::IO::Chmod">
<ellipse fill="none" stroke="#000000" cx="615.795" cy="-18" rx="64.189" ry="18"/>
<text text-anchor="middle" x="615.795" y="-14.3" font-family="FreeSans" font-size="14.00" fill="#000000">X::IO::Chmod</text>
</a>
</g>
</g>
<!-- X::IO::Chmod&#45;&gt;Exception -->
<g id="edge13" class="edge"><title>X::IO::Chmod&#45;&gt;Exception</title>
<path fill="none" stroke="#000000" d="M634.769,-35.3235C688.587,-76.2544 836.795,-180 836.795,-180 836.795,-180 900.923,-202.965 947.321,-218.661"/>
<polygon fill="#000000" stroke="#000000" points="946.33,-222.02 956.924,-221.889 948.56,-215.385 946.33,-222.02"/>
</g>
<!-- X::IO::Chmod&#45;&gt;Exception -->
<g id="edge14" class="edge"><title>X::IO::Chmod&#45;&gt;Exception</title>
<path fill="none" stroke="#000000" d="M642.09,-34.4374C704.415,-74.7344 854.795,-180 854.795,-180 854.795,-180 912.389,-200.625 953.535,-216.142"/>
<polygon fill="#000000" stroke="#000000" points="952.485,-219.487 963.076,-219.763 954.968,-212.942 952.485,-219.487"/>
</g>
<!-- X::IO::Chmod&#45;&gt;X::IO -->
<g id="edge38" class="edge"><title>X::IO::Chmod&#45;&gt;X::IO</title>
<path fill="none" stroke="#6666ff" d="M663.513,-30.2467C722.205,-44.0798 820.664,-67.2858 874.606,-79.9993"/>
<polygon fill="#6666ff" stroke="#6666ff" points="873.922,-83.4338 884.458,-82.3213 875.528,-76.6205 873.922,-83.4338"/>
</g>
<!-- X::IO::Link -->
<g id="node11" class="node"><title>X::IO::Link</title>
<g id="a_node11"><a xlink:href="/type/X::IO::Link" xlink:title="X::IO::Link">
<ellipse fill="none" stroke="#000000" cx="751.795" cy="-18" rx="53.0913" ry="18"/>
<text text-anchor="middle" x="751.795" y="-14.3" font-family="FreeSans" font-size="14.00" fill="#000000">X::IO::Link</text>
</a>
</g>
</g>
<!-- X::IO::Link&#45;&gt;Exception -->
<g id="edge15" class="edge"><title>X::IO::Link&#45;&gt;Exception</title>
<path fill="none" stroke="#000000" d="M760.418,-35.9255C787.667,-77.2617 866.795,-180 866.795,-180 866.795,-180 913.793,-201.109 950.73,-216.684"/>
<polygon fill="#000000" stroke="#000000" points="949.775,-220.078 960.351,-220.708 952.476,-213.62 949.775,-220.078"/>
</g>
<!-- X::IO::Link&#45;&gt;Exception -->
<g id="edge16" class="edge"><title>X::IO::Link&#45;&gt;Exception</title>
<path fill="none" stroke="#000000" d="M768.711,-35.3235C804.891,-76.2544 884.795,-180 884.795,-180 884.795,-180 926.892,-198.908 958.88,-214.137"/>
<polygon fill="#000000" stroke="#000000" points="957.477,-217.346 968.007,-218.518 960.506,-211.035 957.477,-217.346"/>
</g>
<!-- X::IO::Link&#45;&gt;X::IO -->
<g id="edge39" class="edge"><title>X::IO::Link&#45;&gt;X::IO</title>
<path fill="none" stroke="#6666ff" d="M783.219,-32.6629C810.724,-44.6216 850.59,-61.9543 878.825,-74.2305"/>
<polygon fill="#6666ff" stroke="#6666ff" points="877.721,-77.5671 888.288,-78.3447 880.512,-71.1476 877.721,-77.5671"/>
</g>
<!-- X::IO::DoesNotExist -->
<g id="node12" class="node"><title>X::IO::DoesNotExist</title>
<g id="a_node12"><a xlink:href="/type/X::IO::DoesNotExist" xlink:title="X::IO::DoesNotExist">
<ellipse fill="none" stroke="#000000" cx="912.795" cy="-18" rx="89.8845" ry="18"/>
<text text-anchor="middle" x="912.795" y="-14.3" font-family="FreeSans" font-size="14.00" fill="#000000">X::IO::DoesNotExist</text>
</a>
</g>
</g>
<!-- X::IO::DoesNotExist&#45;&gt;Exception -->
<g id="edge17" class="edge"><title>X::IO::DoesNotExist&#45;&gt;Exception</title>
<path fill="none" stroke="#000000" d="M918.827,-36.0613C928.364,-51.5549 943.795,-72 943.795,-72 943.795,-72 966.408,-160.799 981.733,-206.502"/>
<polygon fill="#000000" stroke="#000000" points="978.474,-207.785 985.072,-216.074 985.083,-205.48 978.474,-207.785"/>
</g>
<!-- X::IO::DoesNotExist&#45;&gt;Exception -->
<g id="edge18" class="edge"><title>X::IO::DoesNotExist&#45;&gt;Exception</title>
<path fill="none" stroke="#000000" d="M932.254,-35.7695C946.17,-51.2969 961.795,-72 961.795,-72 961.795,-72 984.203,-159.994 992.251,-205.876"/>
<polygon fill="#000000" stroke="#000000" points="988.799,-206.458 993.853,-215.77 995.709,-205.339 988.799,-206.458"/>
</g>
<!-- X::IO::DoesNotExist&#45;&gt;X::IO -->
<g id="edge40" class="edge"><title>X::IO::DoesNotExist&#45;&gt;X::IO</title>
<path fill="none" stroke="#6666ff" d="M912.795,-36.3034C912.795,-44.0173 912.795,-53.2875 912.795,-61.8876"/>
<polygon fill="#6666ff" stroke="#6666ff" points="909.295,-61.8956 912.795,-71.8957 916.295,-61.8957 909.295,-61.8956"/>
</g>
<!-- X::IO::Move -->
<g id="node13" class="node"><title>X::IO::Move</title>
<g id="a_node13"><a xlink:href="/type/X::IO::Move" xlink:title="X::IO::Move">
<ellipse fill="none" stroke="#000000" cx="1078.79" cy="-18" rx="57.6901" ry="18"/>
<text text-anchor="middle" x="1078.79" y="-14.3" font-family="FreeSans" font-size="14.00" fill="#000000">X::IO::Move</text>
</a>
</g>
</g>
<!-- X::IO::Move&#45;&gt;Exception -->
<g id="edge19" class="edge"><title>X::IO::Move&#45;&gt;Exception</title>
<path fill="none" stroke="#000000" d="M1068.28,-35.7922C1049.99,-72.814 1014.42,-161.703 999.723,-206.396"/>
<polygon fill="#000000" stroke="#000000" points="996.367,-205.4 996.687,-215.99 1003.04,-207.511 996.367,-205.4"/>
</g>
<!-- X::IO::Move&#45;&gt;Exception -->
<g id="edge20" class="edge"><title>X::IO::Move&#45;&gt;Exception</title>
<path fill="none" stroke="#000000" d="M1075.86,-36.1508C1064.57,-73.5875 1029.36,-162.811 1008.66,-207.119"/>
<polygon fill="#000000" stroke="#000000" points="1005.4,-205.829 1004.23,-216.359 1011.71,-208.856 1005.4,-205.829"/>
</g>
<!-- X::IO::Move&#45;&gt;X::IO -->
<g id="edge41" class="edge"><title>X::IO::Move&#45;&gt;X::IO</title>
<path fill="none" stroke="#6666ff" d="M1046,-32.8297C1017.22,-44.9651 975.545,-62.5392 946.499,-74.7873"/>
<polygon fill="#6666ff" stroke="#6666ff" points="945.024,-71.6106 937.17,-78.7212 947.744,-78.0606 945.024,-71.6106"/>
</g>
<!-- X::IO::Mkdir -->
<g id="node14" class="node"><title>X::IO::Mkdir</title>
<g id="a_node14"><a xlink:href="/type/X::IO::Mkdir" xlink:title="X::IO::Mkdir">
<ellipse fill="none" stroke="#000000" cx="1212.79" cy="-18" rx="58.4896" ry="18"/>
<text text-anchor="middle" x="1212.79" y="-14.3" font-family="FreeSans" font-size="14.00" fill="#000000">X::IO::Mkdir</text>
</a>
</g>
</g>
<!-- X::IO::Mkdir&#45;&gt;Exception -->
<g id="edge21" class="edge"><title>X::IO::Mkdir&#45;&gt;Exception</title>
<path fill="none" stroke="#000000" d="M1192.56,-35.0848C1150.64,-72.4058 1055.6,-165.05 1013.85,-209.056"/>
<polygon fill="#000000" stroke="#000000" points="1011.22,-206.747 1006.93,-216.434 1016.32,-211.536 1011.22,-206.747"/>
</g>
<!-- X::IO::Mkdir&#45;&gt;Exception -->
<g id="edge22" class="edge"><title>X::IO::Mkdir&#45;&gt;Exception</title>
<path fill="none" stroke="#000000" d="M1199.45,-35.7922C1164,-74.0601 1068.29,-167.745 1020.88,-210.755"/>
<polygon fill="#000000" stroke="#000000" points="1018.53,-208.161 1013.43,-217.448 1023.21,-213.368 1018.53,-208.161"/>
</g>
<!-- X::IO::Mkdir&#45;&gt;X::IO -->
<g id="edge42" class="edge"><title>X::IO::Mkdir&#45;&gt;X::IO</title>
<path fill="none" stroke="#6666ff" d="M1169.23,-30.0542C1156.43,-33.3012 1145.79,-36 1145.79,-36 1145.79,-36 1017.66,-65.1466 951.433,-80.211"/>
<polygon fill="#6666ff" stroke="#6666ff" points="950.34,-76.8702 941.365,-82.5012 951.892,-83.6959 950.34,-76.8702"/>
</g>
<!-- X::IO::Chdir -->
<g id="node15" class="node"><title>X::IO::Chdir</title>
<g id="a_node15"><a xlink:href="/type/X::IO::Chdir" xlink:title="X::IO::Chdir">
<ellipse fill="none" stroke="#000000" cx="1346.79" cy="-18" rx="57.3905" ry="18"/>
<text text-anchor="middle" x="1346.79" y="-14.3" font-family="FreeSans" font-size="14.00" fill="#000000">X::IO::Chdir</text>
</a>
</g>
</g>
<!-- X::IO::Chdir&#45;&gt;Exception -->
<g id="edge23" class="edge"><title>X::IO::Chdir&#45;&gt;Exception</title>
<path fill="none" stroke="#000000" d="M1319,-33.8579C1250.79,-73.7148 1081.79,-180 1081.79,-180 1081.79,-180 1049.55,-197.618 1023.97,-212.538"/>
<polygon fill="#000000" stroke="#000000" points="1022.1,-209.577 1015.26,-217.67 1025.65,-215.608 1022.1,-209.577"/>
</g>
<!-- X::IO::Chdir&#45;&gt;Exception -->
<g id="edge24" class="edge"><title>X::IO::Chdir&#45;&gt;Exception</title>
<path fill="none" stroke="#000000" d="M1325.62,-35.0259C1265.56,-75.749 1099.79,-180 1099.79,-180 1099.79,-180 1063.62,-199.764 1033.41,-215.154"/>
<polygon fill="#000000" stroke="#000000" points="1031.62,-212.135 1024.27,-219.763 1034.77,-218.385 1031.62,-212.135"/>
</g>
<!-- X::IO::Chdir&#45;&gt;X::IO -->
<g id="edge43" class="edge"><title>X::IO::Chdir&#45;&gt;X::IO</title>
<path fill="none" stroke="#6666ff" d="M1303.61,-29.9586C1290.64,-33.248 1279.79,-36 1279.79,-36 1279.79,-36 1048.17,-69.4499 952.943,-83.202"/>
<polygon fill="#6666ff" stroke="#6666ff" points="952.225,-79.7693 942.828,-84.6628 953.225,-86.6975 952.225,-79.7693"/>
</g>
<!-- X::IO::Unlink -->
<g id="node16" class="node"><title>X::IO::Unlink</title>
<g id="a_node16"><a xlink:href="/type/X::IO::Unlink" xlink:title="X::IO::Unlink">
<ellipse fill="none" stroke="#000000" cx="1482.79" cy="-18" rx="61.1893" ry="18"/>
<text text-anchor="middle" x="1482.79" y="-14.3" font-family="FreeSans" font-size="14.00" fill="#000000">X::IO::Unlink</text>
</a>
</g>
</g>
<!-- X::IO::Unlink&#45;&gt;Exception -->
<g id="edge25" class="edge"><title>X::IO::Unlink&#45;&gt;Exception</title>
<path fill="none" stroke="#000000" d="M1448.75,-33.1466C1360.62,-72.4335 1132.79,-180 1132.79,-180 1132.79,-180 1075.2,-200.625 1034.05,-216.142"/>
<polygon fill="#000000" stroke="#000000" points="1032.62,-212.942 1024.51,-219.763 1035.1,-219.487 1032.62,-212.942"/>
</g>
<!-- X::IO::Unlink&#45;&gt;Exception -->
<g id="edge26" class="edge"><title>X::IO::Unlink&#45;&gt;Exception</title>
<path fill="none" stroke="#000000" d="M1454.92,-34.1465C1374.83,-74.2252 1150.79,-180 1150.79,-180 1150.79,-180 1086.67,-202.965 1040.27,-218.661"/>
<polygon fill="#000000" stroke="#000000" points="1039.03,-215.385 1030.67,-221.889 1041.26,-222.02 1039.03,-215.385"/>
</g>
<!-- X::IO::Unlink&#45;&gt;X::IO -->
<g id="edge44" class="edge"><title>X::IO::Unlink&#45;&gt;X::IO</title>
<path fill="none" stroke="#6666ff" d="M1437.28,-30.0542C1423.91,-33.3012 1412.79,-36 1412.79,-36 1412.79,-36 1072.71,-72.0485 953.495,-84.6858"/>
<polygon fill="#6666ff" stroke="#6666ff" points="952.895,-81.2297 943.319,-85.7644 953.633,-88.1907 952.895,-81.2297"/>
</g>
<!-- X::IO::Dir -->
<g id="node17" class="node"><title>X::IO::Dir</title>
<g id="a_node17"><a xlink:href="/type/X::IO::Dir" xlink:title="X::IO::Dir">
<ellipse fill="none" stroke="#000000" cx="1609.79" cy="-18" rx="47.3916" ry="18"/>
<text text-anchor="middle" x="1609.79" y="-14.3" font-family="FreeSans" font-size="14.00" fill="#000000">X::IO::Dir</text>
</a>
</g>
</g>
<!-- X::IO::Dir&#45;&gt;Exception -->
<g id="edge27" class="edge"><title>X::IO::Dir&#45;&gt;Exception</title>
<path fill="none" stroke="#000000" d="M1574.41,-30.0662C1471.57,-66.4407 1183.79,-180 1183.79,-180 1183.79,-180 1094.81,-202.675 1038.28,-218.362"/>
<polygon fill="#000000" stroke="#000000" points="1037.16,-215.04 1028.47,-221.106 1039.05,-221.781 1037.16,-215.04"/>
</g>
<!-- X::IO::Dir&#45;&gt;Exception -->
<g id="edge28" class="edge"><title>X::IO::Dir&#45;&gt;Exception</title>
<path fill="none" stroke="#000000" d="M1578.12,-31.4994C1482.26,-69.3271 1201.79,-180 1201.79,-180 1201.79,-180 1104.85,-204.702 1043.33,-220.378"/>
<polygon fill="#000000" stroke="#000000" points="1042.23,-217.045 1033.41,-222.906 1043.96,-223.829 1042.23,-217.045"/>
</g>
<!-- X::IO::Dir&#45;&gt;Exception -->
<g id="edge29" class="edge"><title>X::IO::Dir&#45;&gt;Exception</title>
<path fill="none" stroke="#000000" d="M1582.76,-32.8661C1493.69,-71.9189 1219.79,-180 1219.79,-180 1219.79,-180 1113.67,-207.042 1046.46,-222.494"/>
<polygon fill="#000000" stroke="#000000" points="1045.42,-219.143 1036.44,-224.777 1046.97,-225.969 1045.42,-219.143"/>
</g>
<!-- X::IO::Dir&#45;&gt;X::IO -->
<g id="edge45" class="edge"><title>X::IO::Dir&#45;&gt;X::IO</title>
<path fill="none" stroke="#6666ff" d="M1573.7,-29.7664C1562.38,-33.1401 1552.79,-36 1552.79,-36 1552.79,-36 1094.72,-73.9344 953.647,-85.617"/>
<polygon fill="#6666ff" stroke="#6666ff" points="953.34,-82.1302 943.663,-86.4437 953.918,-89.1064 953.34,-82.1302"/>
</g>
<!-- X::IO::Symlink -->
<g id="node18" class="node"><title>X::IO::Symlink</title>
<g id="a_node18"><a xlink:href="/type/X::IO::Symlink" xlink:title="X::IO::Symlink">
<ellipse fill="none" stroke="#000000" cx="1742.79" cy="-18" rx="67.6881" ry="18"/>
<text text-anchor="middle" x="1742.79" y="-14.3" font-family="FreeSans" font-size="14.00" fill="#000000">X::IO::Symlink</text>
</a>
</g>
</g>
<!-- X::IO::Symlink&#45;&gt;Exception -->
<g id="edge30" class="edge"><title>X::IO::Symlink&#45;&gt;Exception</title>
<path fill="none" stroke="#000000" d="M1698.61,-31.6334C1579,-69.5876 1260.79,-180 1260.79,-180 1260.79,-180 1121.88,-205.833 1044.15,-221.428"/>
<polygon fill="#000000" stroke="#000000" points="1043.17,-218.054 1034.06,-223.463 1044.56,-224.915 1043.17,-218.054"/>
</g>
<!-- X::IO::Symlink&#45;&gt;Exception -->
<g id="edge31" class="edge"><title>X::IO::Symlink&#45;&gt;Exception</title>
<path fill="none" stroke="#000000" d="M1703.23,-32.7268C1591.03,-71.6611 1278.79,-180 1278.79,-180 1278.79,-180 1129.13,-207.832 1046.72,-223.158"/>
<polygon fill="#000000" stroke="#000000" points="1045.96,-219.739 1036.77,-225.008 1047.24,-226.621 1045.96,-219.739"/>
</g>
<!-- X::IO::Symlink&#45;&gt;Exception -->
<g id="edge32" class="edge"><title>X::IO::Symlink&#45;&gt;Exception</title>
<path fill="none" stroke="#000000" d="M1708.7,-33.7145C1603.84,-73.4592 1296.79,-180 1296.79,-180 1296.79,-180 1136.65,-209.782 1048.87,-224.696"/>
<polygon fill="#000000" stroke="#000000" points="1048.07,-221.28 1038.8,-226.395 1049.24,-228.183 1048.07,-221.28"/>
</g>
<!-- X::IO::Symlink&#45;&gt;X::IO -->
<g id="edge46" class="edge"><title>X::IO::Symlink&#45;&gt;X::IO</title>
<path fill="none" stroke="#6666ff" d="M1692.29,-30.1496C1677.78,-33.3539 1665.79,-36 1665.79,-36 1665.79,-36 1111.19,-75.0358 953.917,-86.1056"/>
<polygon fill="#6666ff" stroke="#6666ff" points="953.447,-82.63 943.717,-86.8235 953.938,-89.6127 953.447,-82.63"/>
</g>
</g>
</svg>
