<?xml version="1.0" encoding="UTF-8" standalone="no"?>
<!DOCTYPE svg PUBLIC "-//W3C//DTD SVG 1.1//EN"
 "http://www.w3.org/Graphics/SVG/1.1/DTD/svg11.dtd">
<!-- Generated by graphviz version 2.38.0 (20140413.2041)
 -->
<!-- Title: perl6&#45;type&#45;graph Pages: 1 -->
<svg width="1015pt" height="332pt"
 viewBox="0.00 0.00 1014.99 332.00" xmlns="http://www.w3.org/2000/svg" xmlns:xlink="http://www.w3.org/1999/xlink">
<g id="graph0" class="graph" transform="scale(1 1) rotate(0) translate(4 328)">
<title>perl6&#45;type&#45;graph</title>
<polygon fill="white" stroke="none" points="-4,4 -4,-328 1010.99,-328 1010.99,4 -4,4"/>
<!-- Real -->
<g id="node1" class="node"><title>Real</title>
<g id="a_node1"><a xlink:href="/type/Real" xlink:title="Real">
<ellipse fill="none" stroke="#6666ff" cx="372.047" cy="-162" rx="28.6953" ry="18"/>
<text text-anchor="middle" x="372.047" y="-158.3" font-family="FreeSans" font-size="14.00" fill="#6666ff">Real</text>
</a>
</g>
</g>
<!-- Numeric -->
<g id="node2" class="node"><title>Numeric</title>
<g id="a_node2"><a xlink:href="/type/Numeric" xlink:title="Numeric">
<ellipse fill="none" stroke="#6666ff" cx="372.047" cy="-234" rx="44.393" ry="18"/>
<text text-anchor="middle" x="372.047" y="-230.3" font-family="FreeSans" font-size="14.00" fill="#6666ff">Numeric</text>
</a>
</g>
</g>
<!-- Real&#45;&gt;Numeric -->
<g id="edge21" class="edge"><title>Real&#45;&gt;Numeric</title>
<path fill="none" stroke="#6666ff" d="M372.047,-180.303C372.047,-188.017 372.047,-197.288 372.047,-205.888"/>
<polygon fill="#6666ff" stroke="#6666ff" points="368.547,-205.896 372.047,-215.896 375.547,-205.896 368.547,-205.896"/>
</g>
<!-- Rational -->
<g id="node3" class="node"><title>Rational</title>
<g id="a_node3"><a xlink:href="/type/Rational" xlink:title="Rational">
<ellipse fill="none" stroke="#6666ff" cx="119.047" cy="-90" rx="42.7926" ry="18"/>
<text text-anchor="middle" x="119.047" y="-86.3" font-family="FreeSans" font-size="14.00" fill="#6666ff">Rational</text>
</a>
</g>
</g>
<!-- Rational&#45;&gt;Real -->
<g id="edge22" class="edge"><title>Rational&#45;&gt;Real</title>
<path fill="none" stroke="#6666ff" d="M153.96,-100.66C202.05,-113.965 288.203,-137.802 336.582,-151.188"/>
<polygon fill="#6666ff" stroke="#6666ff" points="335.734,-154.585 346.305,-153.878 337.601,-147.838 335.734,-154.585"/>
</g>
<!-- Mu -->
<g id="node4" class="node"><title>Mu</title>
<g id="a_node4"><a xlink:href="/type/Mu" xlink:title="Mu">
<ellipse fill="none" stroke="#000000" cx="475.047" cy="-306" rx="27" ry="18"/>
<text text-anchor="middle" x="475.047" y="-302.3" font-family="FreeSans" font-size="14.00" fill="#000000">Mu</text>
</a>
</g>
</g>
<!-- Any -->
<g id="node5" class="node"><title>Any</title>
<g id="a_node5"><a xlink:href="/type/Any" xlink:title="Any">
<ellipse fill="none" stroke="#000000" cx="475.047" cy="-234" rx="27" ry="18"/>
<text text-anchor="middle" x="475.047" y="-230.3" font-family="FreeSans" font-size="14.00" fill="#000000">Any</text>
</a>
</g>
</g>
<!-- Any&#45;&gt;Mu -->
<g id="edge1" class="edge"><title>Any&#45;&gt;Mu</title>
<path fill="none" stroke="#000000" d="M475.047,-252.303C475.047,-260.017 475.047,-269.288 475.047,-277.888"/>
<polygon fill="#000000" stroke="#000000" points="471.547,-277.896 475.047,-287.896 478.547,-277.896 471.547,-277.896"/>
</g>
<!-- Cool -->
<g id="node6" class="node"><title>Cool</title>
<g id="a_node6"><a xlink:href="/type/Cool" xlink:title="Cool">
<ellipse fill="none" stroke="#000000" cx="475.047" cy="-162" rx="28.6953" ry="18"/>
<text text-anchor="middle" x="475.047" y="-158.3" font-family="FreeSans" font-size="14.00" fill="#000000">Cool</text>
</a>
</g>
</g>
<!-- Cool&#45;&gt;Any -->
<g id="edge2" class="edge"><title>Cool&#45;&gt;Any</title>
<path fill="none" stroke="#000000" d="M475.047,-180.303C475.047,-188.017 475.047,-197.288 475.047,-205.888"/>
<polygon fill="#000000" stroke="#000000" points="471.547,-205.896 475.047,-215.896 478.547,-205.896 471.547,-205.896"/>
</g>
<!-- Instant -->
<g id="node7" class="node"><title>Instant</title>
<g id="a_node7"><a xlink:href="/type/Instant" xlink:title="Instant">
<ellipse fill="none" stroke="#000000" cx="372.047" cy="-90" rx="37.0935" ry="18"/>
<text text-anchor="middle" x="372.047" y="-86.3" font-family="FreeSans" font-size="14.00" fill="#000000">Instant</text>
</a>
</g>
</g>
<!-- Instant&#45;&gt;Real -->
<g id="edge23" class="edge"><title>Instant&#45;&gt;Real</title>
<path fill="none" stroke="#6666ff" d="M372.047,-108.303C372.047,-116.017 372.047,-125.288 372.047,-133.888"/>
<polygon fill="#6666ff" stroke="#6666ff" points="368.547,-133.896 372.047,-143.896 375.547,-133.896 368.547,-133.896"/>
</g>
<!-- Instant&#45;&gt;Cool -->
<g id="edge3" class="edge"><title>Instant&#45;&gt;Cool</title>
<path fill="none" stroke="#000000" d="M392.89,-105.166C408.708,-115.916 430.593,-130.789 447.798,-142.482"/>
<polygon fill="#000000" stroke="#000000" points="446.074,-145.542 456.312,-148.268 450.009,-139.752 446.074,-145.542"/>
</g>
<!-- Duration -->
<g id="node8" class="node"><title>Duration</title>
<g id="a_node8"><a xlink:href="/type/Duration" xlink:title="Duration">
<ellipse fill="none" stroke="#000000" cx="273.047" cy="-90" rx="44.393" ry="18"/>
<text text-anchor="middle" x="273.047" y="-86.3" font-family="FreeSans" font-size="14.00" fill="#000000">Duration</text>
</a>
</g>
</g>
<!-- Duration&#45;&gt;Real -->
<g id="edge24" class="edge"><title>Duration&#45;&gt;Real</title>
<path fill="none" stroke="#6666ff" d="M294.042,-105.845C308.984,-116.41 329.182,-130.692 345.281,-142.075"/>
<polygon fill="#6666ff" stroke="#6666ff" points="343.559,-145.143 353.744,-148.059 347.6,-139.428 343.559,-145.143"/>
</g>
<!-- Duration&#45;&gt;Cool -->
<g id="edge4" class="edge"><title>Duration&#45;&gt;Cool</title>
<path fill="none" stroke="#000000" d="M305.502,-102.247C342.664,-115.125 403.269,-136.126 441.061,-149.223"/>
<polygon fill="#000000" stroke="#000000" points="440.018,-152.566 450.613,-152.533 442.311,-145.952 440.018,-152.566"/>
</g>
<!-- Num -->
<g id="node9" class="node"><title>Num</title>
<g id="a_node9"><a xlink:href="/type/Num" xlink:title="Num">
<ellipse fill="none" stroke="#000000" cx="605.047" cy="-90" rx="29.795" ry="18"/>
<text text-anchor="middle" x="605.047" y="-86.3" font-family="FreeSans" font-size="14.00" fill="#000000">Num</text>
</a>
</g>
</g>
<!-- Num&#45;&gt;Real -->
<g id="edge25" class="edge"><title>Num&#45;&gt;Real</title>
<path fill="none" stroke="#6666ff" d="M581.461,-101.281C573.247,-104.861 566.047,-108 566.047,-108 566.047,-108 463.715,-135.957 407.695,-151.261"/>
<polygon fill="#6666ff" stroke="#6666ff" points="406.532,-147.95 397.808,-153.962 408.377,-154.703 406.532,-147.95"/>
</g>
<!-- Num&#45;&gt;Cool -->
<g id="edge5" class="edge"><title>Num&#45;&gt;Cool</title>
<path fill="none" stroke="#000000" d="M583.58,-102.559C562.188,-114.078 529.155,-131.865 505.149,-144.791"/>
<polygon fill="#000000" stroke="#000000" points="503.259,-141.833 496.114,-149.656 506.578,-147.997 503.259,-141.833"/>
</g>
<!-- Int -->
<g id="node10" class="node"><title>Int</title>
<g id="a_node10"><a xlink:href="/type/Int" xlink:title="Int">
<ellipse fill="none" stroke="#000000" cx="530.047" cy="-90" rx="27" ry="18"/>
<text text-anchor="middle" x="530.047" y="-86.3" font-family="FreeSans" font-size="14.00" fill="#000000">Int</text>
</a>
</g>
</g>
<!-- Int&#45;&gt;Real -->
<g id="edge26" class="edge"><title>Int&#45;&gt;Real</title>
<path fill="none" stroke="#6666ff" d="M508.077,-100.733C481.145,-112.665 435.277,-132.987 404.332,-146.696"/>
<polygon fill="#6666ff" stroke="#6666ff" points="402.578,-143.645 394.853,-150.896 405.413,-150.045 402.578,-143.645"/>
</g>
<!-- Int&#45;&gt;Cool -->
<g id="edge6" class="edge"><title>Int&#45;&gt;Cool</title>
<path fill="none" stroke="#000000" d="M518.113,-106.189C510.933,-115.327 501.643,-127.151 493.53,-137.476"/>
<polygon fill="#000000" stroke="#000000" points="490.765,-135.33 487.338,-145.356 496.269,-139.655 490.765,-135.33"/>
</g>
<!-- Stringy -->
<g id="node11" class="node"><title>Stringy</title>
<g id="a_node11"><a xlink:href="/type/Stringy" xlink:title="Stringy">
<ellipse fill="none" stroke="#6666ff" cx="875.047" cy="-162" rx="38.1938" ry="18"/>
<text text-anchor="middle" x="875.047" y="-158.3" font-family="FreeSans" font-size="14.00" fill="#6666ff">Stringy</text>
</a>
</g>
</g>
<!-- Str -->
<g id="node12" class="node"><title>Str</title>
<g id="a_node12"><a xlink:href="/type/Str" xlink:title="Str">
<ellipse fill="none" stroke="#000000" cx="875.047" cy="-90" rx="27" ry="18"/>
<text text-anchor="middle" x="875.047" y="-86.3" font-family="FreeSans" font-size="14.00" fill="#000000">Str</text>
</a>
</g>
</g>
<!-- Str&#45;&gt;Cool -->
<g id="edge7" class="edge"><title>Str&#45;&gt;Cool</title>
<path fill="none" stroke="#000000" d="M849.11,-95.539C780.269,-107.586 592.728,-140.406 512.388,-154.465"/>
<polygon fill="#000000" stroke="#000000" points="511.483,-151.07 502.236,-156.242 512.69,-157.966 511.483,-151.07"/>
</g>
<!-- Str&#45;&gt;Stringy -->
<g id="edge27" class="edge"><title>Str&#45;&gt;Stringy</title>
<path fill="none" stroke="#6666ff" d="M875.047,-108.303C875.047,-116.017 875.047,-125.288 875.047,-133.888"/>
<polygon fill="#6666ff" stroke="#6666ff" points="871.547,-133.896 875.047,-143.896 878.547,-133.896 871.547,-133.896"/>
</g>
<!-- NumStr -->
<g id="node13" class="node"><title>NumStr</title>
<g id="a_node13"><a xlink:href="/type/NumStr" xlink:title="NumStr">
<ellipse fill="none" stroke="#000000" cx="966.047" cy="-18" rx="40.8928" ry="18"/>
<text text-anchor="middle" x="966.047" y="-14.3" font-family="FreeSans" font-size="14.00" fill="#000000">NumStr</text>
</a>
</g>
</g>
<!-- NumStr&#45;&gt;Num -->
<g id="edge8" class="edge"><title>NumStr&#45;&gt;Num</title>
<path fill="none" stroke="#000000" d="M934.665,-29.6698C924.619,-33.0854 916.047,-36 916.047,-36 916.047,-36 726.78,-68.2544 643.545,-82.4392"/>
<polygon fill="#000000" stroke="#000000" points="642.74,-79.0258 633.47,-84.1561 643.916,-85.9263 642.74,-79.0258"/>
</g>
<!-- NumStr&#45;&gt;Str -->
<g id="edge9" class="edge"><title>NumStr&#45;&gt;Str</title>
<path fill="none" stroke="#000000" d="M946.301,-34.189C932.755,-44.609 914.668,-58.5222 900.106,-69.7232"/>
<polygon fill="#000000" stroke="#000000" points="897.794,-67.0866 892.001,-75.9579 902.062,-72.635 897.794,-67.0866"/>
</g>
<!-- Signal -->
<g id="node14" class="node"><title>Signal</title>
<g id="a_node14"><a xlink:href="/type/Signal" xlink:title="Signal">
<ellipse fill="none" stroke="#33bb33" cx="285.047" cy="-18" rx="35.194" ry="18"/>
<text text-anchor="middle" x="285.047" y="-14.3" font-family="FreeSans" font-size="14.00" fill="#33bb33">Signal</text>
</a>
</g>
</g>
<!-- Signal&#45;&gt;Int -->
<g id="edge10" class="edge"><title>Signal&#45;&gt;Int</title>
<path fill="none" stroke="#000000" d="M312.161,-29.476C321.216,-32.9744 329.047,-36 329.047,-36 329.047,-36 489.047,-72 489.047,-72 489.047,-72 492.926,-73.6087 498.299,-75.8363"/>
<polygon fill="#000000" stroke="#000000" points="497.049,-79.1071 507.627,-79.7042 499.73,-72.6409 497.049,-79.1071"/>
</g>
<!-- PromiseStatus -->
<g id="node15" class="node"><title>PromiseStatus</title>
<g id="a_node15"><a xlink:href="/type/PromiseStatus" xlink:title="PromiseStatus">
<ellipse fill="none" stroke="#33bb33" cx="406.047" cy="-18" rx="67.6881" ry="18"/>
<text text-anchor="middle" x="406.047" y="-14.3" font-family="FreeSans" font-size="14.00" fill="#33bb33">PromiseStatus</text>
</a>
</g>
</g>
<!-- PromiseStatus&#45;&gt;Int -->
<g id="edge11" class="edge"><title>PromiseStatus&#45;&gt;Int</title>
<path fill="none" stroke="#000000" d="M433.566,-34.5353C453.614,-45.8523 480.713,-61.1503 501.087,-72.6519"/>
<polygon fill="#000000" stroke="#000000" points="499.497,-75.7733 509.926,-77.6414 502.938,-69.6775 499.497,-75.7733"/>
</g>
<!-- Endian -->
<g id="node16" class="node"><title>Endian</title>
<g id="a_node16"><a xlink:href="/type/Endian" xlink:title="Endian">
<ellipse fill="none" stroke="#33bb33" cx="530.047" cy="-18" rx="38.1938" ry="18"/>
<text text-anchor="middle" x="530.047" y="-14.3" font-family="FreeSans" font-size="14.00" fill="#33bb33">Endian</text>
</a>
</g>
</g>
<!-- Endian&#45;&gt;Int -->
<g id="edge12" class="edge"><title>Endian&#45;&gt;Int</title>
<path fill="none" stroke="#000000" d="M530.047,-36.3034C530.047,-44.0173 530.047,-53.2875 530.047,-61.8876"/>
<polygon fill="#000000" stroke="#000000" points="526.547,-61.8956 530.047,-71.8957 533.547,-61.8957 526.547,-61.8956"/>
</g>
<!-- int -->
<g id="node17" class="node"><title>int</title>
<g id="a_node17"><a xlink:href="/type/int" xlink:title="int">
<ellipse fill="none" stroke="#000000" cx="613.047" cy="-18" rx="27" ry="18"/>
<text text-anchor="middle" x="613.047" y="-14.3" font-family="FreeSans" font-size="14.00" fill="#000000">int</text>
</a>
</g>
</g>
<!-- int&#45;&gt;Int -->
<g id="edge13" class="edge"><title>int&#45;&gt;Int</title>
<path fill="none" stroke="#000000" d="M596.649,-32.8297C584.406,-43.155 567.495,-57.4175 553.777,-68.9867"/>
<polygon fill="#000000" stroke="#000000" points="551.516,-66.3146 546.128,-75.4372 556.029,-71.6656 551.516,-66.3146"/>
</g>
<!-- atomicint -->
<g id="node18" class="node"><title>atomicint</title>
<g id="a_node18"><a xlink:href="/type/atomicint" xlink:title="atomicint">
<ellipse fill="none" stroke="#000000" cx="704.047" cy="-18" rx="46.2923" ry="18"/>
<text text-anchor="middle" x="704.047" y="-14.3" font-family="FreeSans" font-size="14.00" fill="#000000">atomicint</text>
</a>
</g>
</g>
<!-- atomicint&#45;&gt;Int -->
<g id="edge14" class="edge"><title>atomicint&#45;&gt;Int</title>
<path fill="none" stroke="#000000" d="M672.387,-31.1593C631.644,-46.8067 566.047,-72 566.047,-72 566.047,-72 563.866,-73.0296 560.579,-74.5819"/>
<polygon fill="#000000" stroke="#000000" points="558.952,-71.4796 551.404,-78.9146 561.941,-77.8093 558.952,-71.4796"/>
</g>
<!-- Bool -->
<g id="node19" class="node"><title>Bool</title>
<g id="a_node19"><a xlink:href="/type/Bool" xlink:title="Bool">
<ellipse fill="none" stroke="#33bb33" cx="797.047" cy="-18" rx="28.6953" ry="18"/>
<text text-anchor="middle" x="797.047" y="-14.3" font-family="FreeSans" font-size="14.00" fill="#33bb33">Bool</text>
</a>
</g>
</g>
<!-- Bool&#45;&gt;Int -->
<g id="edge15" class="edge"><title>Bool&#45;&gt;Int</title>
<path fill="none" stroke="#000000" d="M774.503,-29.0854C766.32,-32.7461 759.047,-36 759.047,-36 759.047,-36 566.047,-72 566.047,-72 566.047,-72 563.866,-73.0296 560.579,-74.5819"/>
<polygon fill="#000000" stroke="#000000" points="558.952,-71.4796 551.404,-78.9146 561.941,-77.8093 558.952,-71.4796"/>
</g>
<!-- IntStr -->
<g id="node20" class="node"><title>IntStr</title>
<g id="a_node20"><a xlink:href="/type/IntStr" xlink:title="IntStr">
<ellipse fill="none" stroke="#000000" cx="875.047" cy="-18" rx="31.6951" ry="18"/>
<text text-anchor="middle" x="875.047" y="-14.3" font-family="FreeSans" font-size="14.00" fill="#000000">IntStr</text>
</a>
</g>
</g>
<!-- IntStr&#45;&gt;Int -->
<g id="edge16" class="edge"><title>IntStr&#45;&gt;Int</title>
<path fill="none" stroke="#000000" d="M850.397,-29.476C842.166,-32.9744 835.047,-36 835.047,-36 835.047,-36 566.047,-72 566.047,-72 566.047,-72 563.866,-73.0296 560.579,-74.5819"/>
<polygon fill="#000000" stroke="#000000" points="558.952,-71.4796 551.404,-78.9146 561.941,-77.8093 558.952,-71.4796"/>
</g>
<!-- IntStr&#45;&gt;Str -->
<g id="edge17" class="edge"><title>IntStr&#45;&gt;Str</title>
<path fill="none" stroke="#000000" d="M875.047,-36.3034C875.047,-44.0173 875.047,-53.2875 875.047,-61.8876"/>
<polygon fill="#000000" stroke="#000000" points="871.547,-61.8956 875.047,-71.8957 878.547,-61.8957 871.547,-61.8956"/>
</g>
<!-- Order -->
<g id="node21" class="node"><title>Order</title>
<g id="a_node21"><a xlink:href="/type/Order" xlink:title="Order">
<ellipse fill="none" stroke="#33bb33" cx="198.047" cy="-18" rx="33.5952" ry="18"/>
<text text-anchor="middle" x="198.047" y="-14.3" font-family="FreeSans" font-size="14.00" fill="#33bb33">Order</text>
</a>
</g>
</g>
<!-- Order&#45;&gt;Int -->
<g id="edge18" class="edge"><title>Order&#45;&gt;Int</title>
<path fill="none" stroke="#000000" d="M224.545,-29.476C233.394,-32.9744 241.047,-36 241.047,-36 241.047,-36 489.047,-72 489.047,-72 489.047,-72 492.926,-73.6087 498.299,-75.8363"/>
<polygon fill="#000000" stroke="#000000" points="497.049,-79.1071 507.627,-79.7042 499.73,-72.6409 497.049,-79.1071"/>
</g>
<!-- FatRat -->
<g id="node22" class="node"><title>FatRat</title>
<g id="a_node22"><a xlink:href="/type/FatRat" xlink:title="FatRat">
<ellipse fill="none" stroke="#000000" cx="37.0467" cy="-18" rx="37.0935" ry="18"/>
<text text-anchor="middle" x="37.0467" y="-14.3" font-family="FreeSans" font-size="14.00" fill="#000000">FatRat</text>
</a>
</g>
</g>
<!-- FatRat&#45;&gt;Rational -->
<g id="edge28" class="edge"><title>FatRat&#45;&gt;Rational</title>
<path fill="none" stroke="#6666ff" d="M54.8395,-34.189C66.0449,-43.7546 80.6987,-56.2639 93.1774,-66.9164"/>
<polygon fill="#6666ff" stroke="#6666ff" points="91.1274,-69.7683 101.005,-73.599 95.6723,-64.4443 91.1274,-69.7683"/>
</g>
<!-- FatRat&#45;&gt;Cool -->
<g id="edge19" class="edge"><title>FatRat&#45;&gt;Cool</title>
<path fill="none" stroke="#000000" d="M65.6561,-29.573C75.0106,-33.0301 83.0467,-36 83.0467,-36 83.0467,-36 418.047,-72 418.047,-72 418.047,-72 442.384,-110 459.253,-136.34"/>
<polygon fill="#000000" stroke="#000000" points="456.516,-138.555 464.856,-145.089 462.41,-134.78 456.516,-138.555"/>
</g>
<!-- Rat -->
<g id="node23" class="node"><title>Rat</title>
<g id="a_node23"><a xlink:href="/type/Rat" xlink:title="Rat">
<ellipse fill="none" stroke="#000000" cx="119.047" cy="-18" rx="27" ry="18"/>
<text text-anchor="middle" x="119.047" y="-14.3" font-family="FreeSans" font-size="14.00" fill="#000000">Rat</text>
</a>
</g>
</g>
<!-- Rat&#45;&gt;Rational -->
<g id="edge29" class="edge"><title>Rat&#45;&gt;Rational</title>
<path fill="none" stroke="#6666ff" d="M119.047,-36.3034C119.047,-44.0173 119.047,-53.2875 119.047,-61.8876"/>
<polygon fill="#6666ff" stroke="#6666ff" points="115.547,-61.8956 119.047,-71.8957 122.547,-61.8957 115.547,-61.8956"/>
</g>
<!-- Rat&#45;&gt;Cool -->
<g id="edge20" class="edge"><title>Rat&#45;&gt;Cool</title>
<path fill="none" stroke="#000000" d="M140.404,-29.0854C148.156,-32.7461 155.047,-36 155.047,-36 155.047,-36 451.047,-72 451.047,-72 451.047,-72 460.71,-107.833 467.773,-134.025"/>
<polygon fill="#000000" stroke="#000000" points="464.436,-135.096 470.419,-143.84 471.195,-133.273 464.436,-135.096"/>
</g>
</g>
</svg>
