<?xml version="1.0" encoding="UTF-8" standalone="no"?>
<!DOCTYPE svg PUBLIC "-//W3C//DTD SVG 1.1//EN"
 "http://www.w3.org/Graphics/SVG/1.1/DTD/svg11.dtd">
<!-- Generated by graphviz version 2.38.0 (20140413.2041)
 -->
<!-- Title: perl6&#45;type&#45;graph Pages: 1 -->
<svg width="1051pt" height="332pt"
 viewBox="0.00 0.00 1050.59 332.00" xmlns="http://www.w3.org/2000/svg" xmlns:xlink="http://www.w3.org/1999/xlink">
<g id="graph0" class="graph" transform="scale(1 1) rotate(0) translate(4 328)">
<title>perl6&#45;type&#45;graph</title>
<polygon fill="white" stroke="none" points="-4,4 -4,-328 1046.59,-328 1046.59,4 -4,4"/>
<!-- Numeric -->
<g id="node1" class="node"><title>Numeric</title>
<g id="a_node1"><a xlink:href="/type/Numeric" xlink:title="Numeric">
<ellipse fill="none" stroke="#6666ff" cx="749.047" cy="-234" rx="44.393" ry="18"/>
<text text-anchor="middle" x="749.047" y="-230.3" font-family="FreeSans" font-size="14.00" fill="#6666ff">Numeric</text>
</a>
</g>
</g>
<!-- Real -->
<g id="node2" class="node"><title>Real</title>
<g id="a_node2"><a xlink:href="/type/Real" xlink:title="Real">
<ellipse fill="none" stroke="#6666ff" cx="448.047" cy="-162" rx="28.6953" ry="18"/>
<text text-anchor="middle" x="448.047" y="-158.3" font-family="FreeSans" font-size="14.00" fill="#6666ff">Real</text>
</a>
</g>
</g>
<!-- Real&#45;&gt;Numeric -->
<g id="edge23" class="edge"><title>Real&#45;&gt;Numeric</title>
<path fill="none" stroke="#6666ff" d="M474.11,-169.817C492.194,-174.546 513.047,-180 513.047,-180 513.047,-180 632.703,-206.872 701.612,-222.347"/>
<polygon fill="#6666ff" stroke="#6666ff" points="700.867,-225.767 711.391,-224.543 702.401,-218.937 700.867,-225.767"/>
</g>
<!-- Mu -->
<g id="node3" class="node"><title>Mu</title>
<g id="a_node3"><a xlink:href="/type/Mu" xlink:title="Mu">
<ellipse fill="none" stroke="#000000" cx="551.047" cy="-306" rx="27" ry="18"/>
<text text-anchor="middle" x="551.047" y="-302.3" font-family="FreeSans" font-size="14.00" fill="#000000">Mu</text>
</a>
</g>
</g>
<!-- Any -->
<g id="node4" class="node"><title>Any</title>
<g id="a_node4"><a xlink:href="/type/Any" xlink:title="Any">
<ellipse fill="none" stroke="#000000" cx="551.047" cy="-234" rx="27" ry="18"/>
<text text-anchor="middle" x="551.047" y="-230.3" font-family="FreeSans" font-size="14.00" fill="#000000">Any</text>
</a>
</g>
</g>
<!-- Any&#45;&gt;Mu -->
<g id="edge1" class="edge"><title>Any&#45;&gt;Mu</title>
<path fill="none" stroke="#000000" d="M551.047,-252.303C551.047,-260.017 551.047,-269.288 551.047,-277.888"/>
<polygon fill="#000000" stroke="#000000" points="547.547,-277.896 551.047,-287.896 554.547,-277.896 547.547,-277.896"/>
</g>
<!-- Cool -->
<g id="node5" class="node"><title>Cool</title>
<g id="a_node5"><a xlink:href="/type/Cool" xlink:title="Cool">
<ellipse fill="none" stroke="#000000" cx="551.047" cy="-162" rx="28.6953" ry="18"/>
<text text-anchor="middle" x="551.047" y="-158.3" font-family="FreeSans" font-size="14.00" fill="#000000">Cool</text>
</a>
</g>
</g>
<!-- Cool&#45;&gt;Any -->
<g id="edge2" class="edge"><title>Cool&#45;&gt;Any</title>
<path fill="none" stroke="#000000" d="M551.047,-180.303C551.047,-188.017 551.047,-197.288 551.047,-205.888"/>
<polygon fill="#000000" stroke="#000000" points="547.547,-205.896 551.047,-215.896 554.547,-205.896 547.547,-205.896"/>
</g>
<!-- Complex -->
<g id="node6" class="node"><title>Complex</title>
<g id="a_node6"><a xlink:href="/type/Complex" xlink:title="Complex">
<ellipse fill="none" stroke="#000000" cx="870.047" cy="-90" rx="45.4919" ry="18"/>
<text text-anchor="middle" x="870.047" y="-86.3" font-family="FreeSans" font-size="14.00" fill="#000000">Complex</text>
</a>
</g>
</g>
<!-- Complex&#45;&gt;Numeric -->
<g id="edge24" class="edge"><title>Complex&#45;&gt;Numeric</title>
<path fill="none" stroke="#6666ff" d="M861.959,-107.74C849.503,-133.521 827.047,-180 827.047,-180 827.047,-180 801.177,-197.578 779.235,-212.487"/>
<polygon fill="#6666ff" stroke="#6666ff" points="777.078,-209.721 770.774,-218.237 781.012,-215.511 777.078,-209.721"/>
</g>
<!-- Complex&#45;&gt;Cool -->
<g id="edge3" class="edge"><title>Complex&#45;&gt;Cool</title>
<path fill="none" stroke="#000000" d="M835.542,-101.863C824.959,-105.194 816.047,-108 816.047,-108 816.047,-108 660.919,-139.026 588.042,-153.601"/>
<polygon fill="#000000" stroke="#000000" points="587.034,-150.233 577.915,-155.626 588.407,-157.097 587.034,-150.233"/>
</g>
<!-- Stringy -->
<g id="node7" class="node"><title>Stringy</title>
<g id="a_node7"><a xlink:href="/type/Stringy" xlink:title="Stringy">
<ellipse fill="none" stroke="#6666ff" cx="780.047" cy="-162" rx="38.1938" ry="18"/>
<text text-anchor="middle" x="780.047" y="-158.3" font-family="FreeSans" font-size="14.00" fill="#6666ff">Stringy</text>
</a>
</g>
</g>
<!-- Str -->
<g id="node8" class="node"><title>Str</title>
<g id="a_node8"><a xlink:href="/type/Str" xlink:title="Str">
<ellipse fill="none" stroke="#000000" cx="780.047" cy="-90" rx="27" ry="18"/>
<text text-anchor="middle" x="780.047" y="-86.3" font-family="FreeSans" font-size="14.00" fill="#000000">Str</text>
</a>
</g>
</g>
<!-- Str&#45;&gt;Cool -->
<g id="edge4" class="edge"><title>Str&#45;&gt;Cool</title>
<path fill="none" stroke="#000000" d="M755.973,-98.3589C715.319,-110.786 632.909,-135.977 585.925,-150.339"/>
<polygon fill="#000000" stroke="#000000" points="584.725,-147.045 576.185,-153.316 586.771,-153.74 584.725,-147.045"/>
</g>
<!-- Str&#45;&gt;Stringy -->
<g id="edge25" class="edge"><title>Str&#45;&gt;Stringy</title>
<path fill="none" stroke="#6666ff" d="M780.047,-108.303C780.047,-116.017 780.047,-125.288 780.047,-133.888"/>
<polygon fill="#6666ff" stroke="#6666ff" points="776.547,-133.896 780.047,-143.896 783.547,-133.896 776.547,-133.896"/>
</g>
<!-- ComplexStr -->
<g id="node9" class="node"><title>ComplexStr</title>
<g id="a_node9"><a xlink:href="/type/ComplexStr" xlink:title="ComplexStr">
<ellipse fill="none" stroke="#000000" cx="986.047" cy="-18" rx="56.59" ry="18"/>
<text text-anchor="middle" x="986.047" y="-14.3" font-family="FreeSans" font-size="14.00" fill="#000000">ComplexStr</text>
</a>
</g>
</g>
<!-- ComplexStr&#45;&gt;Complex -->
<g id="edge5" class="edge"><title>ComplexStr&#45;&gt;Complex</title>
<path fill="none" stroke="#000000" d="M960.876,-34.189C943.812,-44.4865 921.094,-58.1955 902.648,-69.327"/>
<polygon fill="#000000" stroke="#000000" points="900.732,-66.3949 893.979,-74.5583 904.349,-72.3883 900.732,-66.3949"/>
</g>
<!-- ComplexStr&#45;&gt;Str -->
<g id="edge6" class="edge"><title>ComplexStr&#45;&gt;Str</title>
<path fill="none" stroke="#000000" d="M947.045,-31.1593C896.855,-46.8067 816.047,-72 816.047,-72 816.047,-72 813.866,-73.0296 810.579,-74.5819"/>
<polygon fill="#000000" stroke="#000000" points="808.952,-71.4796 801.404,-78.9146 811.941,-77.8093 808.952,-71.4796"/>
</g>
<!-- Duration -->
<g id="node10" class="node"><title>Duration</title>
<g id="a_node10"><a xlink:href="/type/Duration" xlink:title="Duration">
<ellipse fill="none" stroke="#000000" cx="321.047" cy="-90" rx="44.393" ry="18"/>
<text text-anchor="middle" x="321.047" y="-86.3" font-family="FreeSans" font-size="14.00" fill="#000000">Duration</text>
</a>
</g>
</g>
<!-- Duration&#45;&gt;Real -->
<g id="edge26" class="edge"><title>Duration&#45;&gt;Real</title>
<path fill="none" stroke="#6666ff" d="M346.138,-104.83C366.885,-116.265 396.393,-132.53 418.322,-144.616"/>
<polygon fill="#6666ff" stroke="#6666ff" points="416.761,-147.752 427.209,-149.514 420.14,-141.622 416.761,-147.752"/>
</g>
<!-- Duration&#45;&gt;Cool -->
<g id="edge7" class="edge"><title>Duration&#45;&gt;Cool</title>
<path fill="none" stroke="#000000" d="M354.612,-101.766C365.131,-105.14 374.047,-108 374.047,-108 374.047,-108 464.309,-135.028 515.919,-150.481"/>
<polygon fill="#000000" stroke="#000000" points="515.103,-153.891 525.687,-153.406 517.111,-147.185 515.103,-153.891"/>
</g>
<!-- Instant -->
<g id="node11" class="node"><title>Instant</title>
<g id="a_node11"><a xlink:href="/type/Instant" xlink:title="Instant">
<ellipse fill="none" stroke="#000000" cx="420.047" cy="-90" rx="37.0935" ry="18"/>
<text text-anchor="middle" x="420.047" y="-86.3" font-family="FreeSans" font-size="14.00" fill="#000000">Instant</text>
</a>
</g>
</g>
<!-- Instant&#45;&gt;Real -->
<g id="edge27" class="edge"><title>Instant&#45;&gt;Real</title>
<path fill="none" stroke="#6666ff" d="M426.825,-107.945C430.058,-116.027 433.998,-125.879 437.602,-134.888"/>
<polygon fill="#6666ff" stroke="#6666ff" points="434.367,-136.226 441.331,-144.211 440.867,-133.626 434.367,-136.226"/>
</g>
<!-- Instant&#45;&gt;Cool -->
<g id="edge8" class="edge"><title>Instant&#45;&gt;Cool</title>
<path fill="none" stroke="#000000" d="M444.074,-103.839C465.628,-115.356 497.359,-132.312 520.666,-144.766"/>
<polygon fill="#000000" stroke="#000000" points="519.302,-148.006 529.772,-149.632 522.601,-141.832 519.302,-148.006"/>
</g>
<!-- Rational -->
<g id="node12" class="node"><title>Rational</title>
<g id="a_node12"><a xlink:href="/type/Rational" xlink:title="Rational">
<ellipse fill="none" stroke="#6666ff" cx="119.047" cy="-90" rx="42.7926" ry="18"/>
<text text-anchor="middle" x="119.047" y="-86.3" font-family="FreeSans" font-size="14.00" fill="#6666ff">Rational</text>
</a>
</g>
</g>
<!-- Rational&#45;&gt;Real -->
<g id="edge28" class="edge"><title>Rational&#45;&gt;Real</title>
<path fill="none" stroke="#6666ff" d="M156.467,-98.9617C219.963,-112.472 348.047,-139.723 411.171,-153.154"/>
<polygon fill="#6666ff" stroke="#6666ff" points="410.578,-156.606 421.087,-155.264 412.035,-149.759 410.578,-156.606"/>
</g>
<!-- Int -->
<g id="node13" class="node"><title>Int</title>
<g id="a_node13"><a xlink:href="/type/Int" xlink:title="Int">
<ellipse fill="none" stroke="#000000" cx="578.047" cy="-90" rx="27" ry="18"/>
<text text-anchor="middle" x="578.047" y="-86.3" font-family="FreeSans" font-size="14.00" fill="#000000">Int</text>
</a>
</g>
</g>
<!-- Int&#45;&gt;Real -->
<g id="edge29" class="edge"><title>Int&#45;&gt;Real</title>
<path fill="none" stroke="#6666ff" d="M557.734,-101.938C536.332,-113.462 502.4,-131.733 477.942,-144.902"/>
<polygon fill="#6666ff" stroke="#6666ff" points="476.223,-141.853 469.078,-149.675 479.542,-148.016 476.223,-141.853"/>
</g>
<!-- Int&#45;&gt;Cool -->
<g id="edge9" class="edge"><title>Int&#45;&gt;Cool</title>
<path fill="none" stroke="#000000" d="M571.648,-107.589C568.533,-115.665 564.713,-125.569 561.212,-134.645"/>
<polygon fill="#000000" stroke="#000000" points="557.92,-133.454 557.587,-144.044 564.451,-135.973 557.92,-133.454"/>
</g>
<!-- Num -->
<g id="node14" class="node"><title>Num</title>
<g id="a_node14"><a xlink:href="/type/Num" xlink:title="Num">
<ellipse fill="none" stroke="#000000" cx="653.047" cy="-90" rx="29.795" ry="18"/>
<text text-anchor="middle" x="653.047" y="-86.3" font-family="FreeSans" font-size="14.00" fill="#000000">Num</text>
</a>
</g>
</g>
<!-- Num&#45;&gt;Real -->
<g id="edge30" class="edge"><title>Num&#45;&gt;Real</title>
<path fill="none" stroke="#6666ff" d="M629.461,-101.281C621.247,-104.861 614.047,-108 614.047,-108 614.047,-108 531.385,-134.392 482.724,-149.928"/>
<polygon fill="#6666ff" stroke="#6666ff" points="481.36,-146.69 472.899,-153.065 483.489,-153.358 481.36,-146.69"/>
</g>
<!-- Num&#45;&gt;Cool -->
<g id="edge10" class="edge"><title>Num&#45;&gt;Cool</title>
<path fill="none" stroke="#000000" d="M633.861,-104.166C618.234,-114.891 595.971,-130.17 578.463,-142.185"/>
<polygon fill="#000000" stroke="#000000" points="576.066,-139.585 569.801,-148.129 580.027,-145.356 576.066,-139.585"/>
</g>
<!-- atomicint -->
<g id="node15" class="node"><title>atomicint</title>
<g id="a_node15"><a xlink:href="/type/atomicint" xlink:title="atomicint">
<ellipse fill="none" stroke="#000000" cx="210.047" cy="-18" rx="46.2923" ry="18"/>
<text text-anchor="middle" x="210.047" y="-14.3" font-family="FreeSans" font-size="14.00" fill="#000000">atomicint</text>
</a>
</g>
</g>
<!-- atomicint&#45;&gt;Int -->
<g id="edge11" class="edge"><title>atomicint&#45;&gt;Int</title>
<path fill="none" stroke="#000000" d="M245.19,-29.8626C255.97,-33.1943 265.047,-36 265.047,-36 265.047,-36 537.047,-72 537.047,-72 537.047,-72 540.926,-73.6087 546.299,-75.8363"/>
<polygon fill="#000000" stroke="#000000" points="545.049,-79.1071 555.627,-79.7042 547.73,-72.6409 545.049,-79.1071"/>
</g>
<!-- Order -->
<g id="node16" class="node"><title>Order</title>
<g id="a_node16"><a xlink:href="/type/Order" xlink:title="Order">
<ellipse fill="none" stroke="#33bb33" cx="308.047" cy="-18" rx="33.5952" ry="18"/>
<text text-anchor="middle" x="308.047" y="-14.3" font-family="FreeSans" font-size="14.00" fill="#33bb33">Order</text>
</a>
</g>
</g>
<!-- Order&#45;&gt;Int -->
<g id="edge12" class="edge"><title>Order&#45;&gt;Int</title>
<path fill="none" stroke="#000000" d="M334.407,-29.6698C342.846,-33.0854 350.047,-36 350.047,-36 350.047,-36 537.047,-72 537.047,-72 537.047,-72 540.926,-73.6087 546.299,-75.8363"/>
<polygon fill="#000000" stroke="#000000" points="545.049,-79.1071 555.627,-79.7042 547.73,-72.6409 545.049,-79.1071"/>
</g>
<!-- PromiseStatus -->
<g id="node17" class="node"><title>PromiseStatus</title>
<g id="a_node17"><a xlink:href="/type/PromiseStatus" xlink:title="PromiseStatus">
<ellipse fill="none" stroke="#33bb33" cx="427.047" cy="-18" rx="67.6881" ry="18"/>
<text text-anchor="middle" x="427.047" y="-14.3" font-family="FreeSans" font-size="14.00" fill="#33bb33">PromiseStatus</text>
</a>
</g>
</g>
<!-- PromiseStatus&#45;&gt;Int -->
<g id="edge13" class="edge"><title>PromiseStatus&#45;&gt;Int</title>
<path fill="none" stroke="#000000" d="M459.44,-34.0168C485.412,-46.0569 521.62,-62.8417 547.18,-74.6907"/>
<polygon fill="#000000" stroke="#000000" points="545.866,-77.9396 556.411,-78.9701 548.81,-71.5889 545.866,-77.9396"/>
</g>
<!-- Bool -->
<g id="node18" class="node"><title>Bool</title>
<g id="a_node18"><a xlink:href="/type/Bool" xlink:title="Bool">
<ellipse fill="none" stroke="#33bb33" cx="541.047" cy="-18" rx="28.6953" ry="18"/>
<text text-anchor="middle" x="541.047" y="-14.3" font-family="FreeSans" font-size="14.00" fill="#33bb33">Bool</text>
</a>
</g>
</g>
<!-- Bool&#45;&gt;Int -->
<g id="edge14" class="edge"><title>Bool&#45;&gt;Int</title>
<path fill="none" stroke="#000000" d="M549.628,-35.2354C554.111,-43.7169 559.698,-54.2856 564.728,-63.8026"/>
<polygon fill="#000000" stroke="#000000" points="561.744,-65.6473 569.512,-72.8527 567.933,-62.3761 561.744,-65.6473"/>
</g>
<!-- IntStr -->
<g id="node19" class="node"><title>IntStr</title>
<g id="a_node19"><a xlink:href="/type/IntStr" xlink:title="IntStr">
<ellipse fill="none" stroke="#000000" cx="780.047" cy="-18" rx="31.6951" ry="18"/>
<text text-anchor="middle" x="780.047" y="-14.3" font-family="FreeSans" font-size="14.00" fill="#000000">IntStr</text>
</a>
</g>
</g>
<!-- IntStr&#45;&gt;Str -->
<g id="edge16" class="edge"><title>IntStr&#45;&gt;Str</title>
<path fill="none" stroke="#000000" d="M780.047,-36.3034C780.047,-44.0173 780.047,-53.2875 780.047,-61.8876"/>
<polygon fill="#000000" stroke="#000000" points="776.547,-61.8956 780.047,-71.8957 783.547,-61.8957 776.547,-61.8956"/>
</g>
<!-- IntStr&#45;&gt;Int -->
<g id="edge15" class="edge"><title>IntStr&#45;&gt;Int</title>
<path fill="none" stroke="#000000" d="M754.781,-29.476C746.344,-32.9744 739.047,-36 739.047,-36 739.047,-36 614.047,-72 614.047,-72 614.047,-72 611.866,-73.0296 608.579,-74.5819"/>
<polygon fill="#000000" stroke="#000000" points="606.952,-71.4796 599.404,-78.9146 609.941,-77.8093 606.952,-71.4796"/>
</g>
<!-- int -->
<g id="node20" class="node"><title>int</title>
<g id="a_node20"><a xlink:href="/type/int" xlink:title="int">
<ellipse fill="none" stroke="#000000" cx="615.047" cy="-18" rx="27" ry="18"/>
<text text-anchor="middle" x="615.047" y="-14.3" font-family="FreeSans" font-size="14.00" fill="#000000">int</text>
</a>
</g>
</g>
<!-- int&#45;&gt;Int -->
<g id="edge17" class="edge"><title>int&#45;&gt;Int</title>
<path fill="none" stroke="#000000" d="M606.465,-35.2354C601.982,-43.7169 596.396,-54.2856 591.365,-63.8026"/>
<polygon fill="#000000" stroke="#000000" points="588.161,-62.3761 586.582,-72.8527 594.349,-65.6473 588.161,-62.3761"/>
</g>
<!-- Signal -->
<g id="node21" class="node"><title>Signal</title>
<g id="a_node21"><a xlink:href="/type/Signal" xlink:title="Signal">
<ellipse fill="none" stroke="#33bb33" cx="695.047" cy="-18" rx="35.194" ry="18"/>
<text text-anchor="middle" x="695.047" y="-14.3" font-family="FreeSans" font-size="14.00" fill="#33bb33">Signal</text>
</a>
</g>
</g>
<!-- Signal&#45;&gt;Int -->
<g id="edge18" class="edge"><title>Signal&#45;&gt;Int</title>
<path fill="none" stroke="#000000" d="M673.04,-32.1665C654.127,-43.4821 626.74,-59.8672 606.227,-72.14"/>
<polygon fill="#000000" stroke="#000000" points="604.406,-69.1508 597.622,-77.2885 608,-75.1578 604.406,-69.1508"/>
</g>
<!-- NumStr -->
<g id="node22" class="node"><title>NumStr</title>
<g id="a_node22"><a xlink:href="/type/NumStr" xlink:title="NumStr">
<ellipse fill="none" stroke="#000000" cx="871.047" cy="-18" rx="40.8928" ry="18"/>
<text text-anchor="middle" x="871.047" y="-14.3" font-family="FreeSans" font-size="14.00" fill="#000000">NumStr</text>
</a>
</g>
</g>
<!-- NumStr&#45;&gt;Str -->
<g id="edge20" class="edge"><title>NumStr&#45;&gt;Str</title>
<path fill="none" stroke="#000000" d="M851.301,-34.189C837.755,-44.609 819.668,-58.5222 805.106,-69.7232"/>
<polygon fill="#000000" stroke="#000000" points="802.794,-67.0866 797.001,-75.9579 807.062,-72.635 802.794,-67.0866"/>
</g>
<!-- NumStr&#45;&gt;Num -->
<g id="edge19" class="edge"><title>NumStr&#45;&gt;Num</title>
<path fill="none" stroke="#000000" d="M839.665,-29.6698C829.619,-33.0854 821.047,-36 821.047,-36 821.047,-36 737.904,-62.2294 688.599,-77.7841"/>
<polygon fill="#000000" stroke="#000000" points="687.412,-74.4884 678.929,-80.8349 689.518,-81.1641 687.412,-74.4884"/>
</g>
<!-- FatRat -->
<g id="node23" class="node"><title>FatRat</title>
<g id="a_node23"><a xlink:href="/type/FatRat" xlink:title="FatRat">
<ellipse fill="none" stroke="#000000" cx="37.0467" cy="-18" rx="37.0935" ry="18"/>
<text text-anchor="middle" x="37.0467" y="-14.3" font-family="FreeSans" font-size="14.00" fill="#000000">FatRat</text>
</a>
</g>
</g>
<!-- FatRat&#45;&gt;Cool -->
<g id="edge21" class="edge"><title>FatRat&#45;&gt;Cool</title>
<path fill="none" stroke="#000000" d="M65.6561,-29.573C75.0106,-33.0301 83.0467,-36 83.0467,-36 83.0467,-36 466.047,-72 466.047,-72 466.047,-72 499.047,-108 499.047,-108 499.047,-108 515.094,-124.355 529.359,-138.895"/>
<polygon fill="#000000" stroke="#000000" points="527.06,-141.55 536.562,-146.237 532.057,-136.647 527.06,-141.55"/>
</g>
<!-- FatRat&#45;&gt;Rational -->
<g id="edge31" class="edge"><title>FatRat&#45;&gt;Rational</title>
<path fill="none" stroke="#6666ff" d="M54.8395,-34.189C66.0449,-43.7546 80.6987,-56.2639 93.1774,-66.9164"/>
<polygon fill="#6666ff" stroke="#6666ff" points="91.1274,-69.7683 101.005,-73.599 95.6723,-64.4443 91.1274,-69.7683"/>
</g>
<!-- Rat -->
<g id="node24" class="node"><title>Rat</title>
<g id="a_node24"><a xlink:href="/type/Rat" xlink:title="Rat">
<ellipse fill="none" stroke="#000000" cx="119.047" cy="-18" rx="27" ry="18"/>
<text text-anchor="middle" x="119.047" y="-14.3" font-family="FreeSans" font-size="14.00" fill="#000000">Rat</text>
</a>
</g>
</g>
<!-- Rat&#45;&gt;Cool -->
<g id="edge22" class="edge"><title>Rat&#45;&gt;Cool</title>
<path fill="none" stroke="#000000" d="M140.404,-29.0854C148.156,-32.7461 155.047,-36 155.047,-36 155.047,-36 499.047,-72 499.047,-72 499.047,-72 521.012,-109.595 536.391,-135.916"/>
<polygon fill="#000000" stroke="#000000" points="533.442,-137.807 541.509,-144.676 539.486,-134.276 533.442,-137.807"/>
</g>
<!-- Rat&#45;&gt;Rational -->
<g id="edge32" class="edge"><title>Rat&#45;&gt;Rational</title>
<path fill="none" stroke="#6666ff" d="M119.047,-36.3034C119.047,-44.0173 119.047,-53.2875 119.047,-61.8876"/>
<polygon fill="#6666ff" stroke="#6666ff" points="115.547,-61.8956 119.047,-71.8957 122.547,-61.8957 115.547,-61.8956"/>
</g>
</g>
</svg>
