<?xml version="1.0" encoding="UTF-8" standalone="no"?>
<!DOCTYPE svg PUBLIC "-//W3C//DTD SVG 1.1//EN"
 "http://www.w3.org/Graphics/SVG/1.1/DTD/svg11.dtd">
<!-- Generated by graphviz version 2.38.0 (20140413.2041)
 -->
<!-- Title: perl6&#45;type&#45;graph Pages: 1 -->
<svg width="1716pt" height="824pt"
 viewBox="0.00 0.00 1716.08 823.71" xmlns="http://www.w3.org/2000/svg" xmlns:xlink="http://www.w3.org/1999/xlink">
<g id="graph0" class="graph" transform="scale(1 1) rotate(0) translate(871.05 385.474)">
<title>perl6&#45;type&#45;graph</title>
<polygon fill="white" stroke="none" points="-871.05,438.232 -871.05,-385.474 845.027,-385.474 845.027,438.232 -871.05,438.232"/>
<!-- Metamodel::ClassHOW -->
<g id="node1" class="node"><title>Metamodel::ClassHOW</title>
<g id="a_node1"><a xlink:href="/type/Metamodel::ClassHOW" xlink:title="Metamodel::ClassHOW">
<ellipse fill="none" stroke="#000000" cx="-39.8112" cy="-64.1355" rx="103.982" ry="18"/>
<text text-anchor="middle" x="-39.8112" y="-60.4355" font-family="FreeSans" font-size="14.00" fill="#000000">Metamodel::ClassHOW</text>
</a>
</g>
</g>
<!-- Any -->
<g id="node3" class="node"><title>Any</title>
<g id="a_node3"><a xlink:href="/type/Any" xlink:title="Any">
<ellipse fill="none" stroke="#000000" cx="274.031" cy="409.54" rx="27" ry="18"/>
<text text-anchor="middle" x="274.031" y="413.24" font-family="FreeSans" font-size="14.00" fill="#000000">Any</text>
</a>
</g>
</g>
<!-- Metamodel::ClassHOW&#45;&gt;Any -->
<g id="edge1" class="edge"><title>Metamodel::ClassHOW&#45;&gt;Any</title>
<path fill="none" stroke="#000000" d="M-33.8506,-45.8604C-16.9443,5.97487 30.0993,150.212 30.0993,150.212 30.0993,150.212 192.776,323.156 252.434,386.58"/>
<polygon fill="#000000" stroke="#000000" points="255.2,384.413 259.503,394.095 250.102,389.209 255.2,384.413"/>
</g>
<!-- Metamodel::Naming -->
<g id="node4" class="node"><title>Metamodel::Naming</title>
<g id="a_node4"><a xlink:href="/type/Metamodel::Naming" xlink:title="Metamodel::Naming">
<ellipse fill="none" stroke="#6666ff" cx="-126.791" cy="-341.479" rx="90.1842" ry="18"/>
<text text-anchor="middle" x="-126.791" y="-337.779" font-family="FreeSans" font-size="14.00" fill="#6666ff">Metamodel::Naming</text>
</a>
</g>
</g>
<!-- Metamodel::ClassHOW&#45;&gt;Metamodel::Naming -->
<g id="edge4" class="edge"><title>Metamodel::ClassHOW&#45;&gt;Metamodel::Naming</title>
<path fill="none" stroke="#6666ff" d="M-45.5181,-82.3328C-60.3548,-129.641 -100.218,-256.75 -118.009,-313.476"/>
<polygon fill="#6666ff" stroke="#6666ff" points="-121.41,-312.625 -121.063,-323.214 -114.73,-314.72 -121.41,-312.625"/>
</g>
<!-- Metamodel::Documenting -->
<g id="node5" class="node"><title>Metamodel::Documenting</title>
<g id="a_node5"><a xlink:href="/type/Metamodel::Documenting" xlink:title="Metamodel::Documenting">
<ellipse fill="none" stroke="#6666ff" cx="371.171" cy="-74.2425" rx="111.28" ry="18"/>
<text text-anchor="middle" x="371.171" y="-70.5425" font-family="FreeSans" font-size="14.00" fill="#6666ff">Metamodel::Documenting</text>
</a>
</g>
</g>
<!-- Metamodel::ClassHOW&#45;&gt;Metamodel::Documenting -->
<g id="edge5" class="edge"><title>Metamodel::ClassHOW&#45;&gt;Metamodel::Documenting</title>
<path fill="none" stroke="#6666ff" d="M63.3666,-66.6729C120.346,-68.0741 191.417,-69.8219 250.906,-71.2849"/>
<polygon fill="#6666ff" stroke="#6666ff" points="251.026,-74.7888 261.109,-71.5358 251.198,-67.7909 251.026,-74.7888"/>
</g>
<!-- Metamodel::Versioning -->
<g id="node6" class="node"><title>Metamodel::Versioning</title>
<g id="a_node6"><a xlink:href="/type/Metamodel::Versioning" xlink:title="Metamodel::Versioning">
<ellipse fill="none" stroke="#6666ff" cx="-239.818" cy="-83.4813" rx="100.983" ry="18"/>
<text text-anchor="middle" x="-239.818" y="-79.7813" font-family="FreeSans" font-size="14.00" fill="#6666ff">Metamodel::Versioning</text>
</a>
</g>
</g>
<!-- Metamodel::ClassHOW&#45;&gt;Metamodel::Versioning -->
<g id="edge6" class="edge"><title>Metamodel::ClassHOW&#45;&gt;Metamodel::Versioning</title>
<path fill="none" stroke="#6666ff" d="M-130.743,-72.931C-134.149,-73.2603 -137.568,-73.5911 -140.986,-73.9217"/>
<polygon fill="#6666ff" stroke="#6666ff" points="-141.601,-70.4647 -151.218,-74.9113 -140.927,-77.4322 -141.601,-70.4647"/>
</g>
<!-- Metamodel::Stashing -->
<g id="node7" class="node"><title>Metamodel::Stashing</title>
<g id="a_node7"><a xlink:href="/type/Metamodel::Stashing" xlink:title="Metamodel::Stashing">
<ellipse fill="none" stroke="#6666ff" cx="-678.148" cy="378.172" rx="93.6835" ry="18"/>
<text text-anchor="middle" x="-678.148" y="381.872" font-family="FreeSans" font-size="14.00" fill="#6666ff">Metamodel::Stashing</text>
</a>
</g>
</g>
<!-- Metamodel::ClassHOW&#45;&gt;Metamodel::Stashing -->
<g id="edge7" class="edge"><title>Metamodel::ClassHOW&#45;&gt;Metamodel::Stashing</title>
<path fill="none" stroke="#6666ff" d="M-57.8422,-46.3153C-112.013,7.22144 -269.599,162.965 -269.599,162.965 -269.599,162.965 -532.98,301.703 -636.796,356.39"/>
<polygon fill="#6666ff" stroke="#6666ff" points="-635.269,359.541 -645.748,361.105 -638.532,353.348 -635.269,359.541"/>
</g>
<!-- Metamodel::AttributeContainer -->
<g id="node8" class="node"><title>Metamodel::AttributeContainer</title>
<g id="a_node8"><a xlink:href="/type/Metamodel::AttributeContainer" xlink:title="Metamodel::AttributeContainer">
<ellipse fill="none" stroke="#6666ff" cx="711.038" cy="173.683" rx="129.977" ry="18"/>
<text text-anchor="middle" x="711.038" y="177.383" font-family="FreeSans" font-size="14.00" fill="#6666ff">Metamodel::AttributeContainer</text>
</a>
</g>
</g>
<!-- Metamodel::ClassHOW&#45;&gt;Metamodel::AttributeContainer -->
<g id="edge8" class="edge"><title>Metamodel::ClassHOW&#45;&gt;Metamodel::AttributeContainer</title>
<path fill="none" stroke="#6666ff" d="M10.3275,-48.2549C143.14,-6.18888 503.786,108.04 649.113,154.069"/>
<polygon fill="#6666ff" stroke="#6666ff" points="650.308,150.776 658.784,157.133 648.194,157.45 650.308,150.776"/>
</g>
<!-- Metamodel::Finalization -->
<g id="node9" class="node"><title>Metamodel::Finalization</title>
<g id="a_node9"><a xlink:href="/type/Metamodel::Finalization" xlink:title="Metamodel::Finalization">
<ellipse fill="none" stroke="#6666ff" cx="-322.367" cy="411.777" rx="103.982" ry="18"/>
<text text-anchor="middle" x="-322.367" y="415.477" font-family="FreeSans" font-size="14.00" fill="#6666ff">Metamodel::Finalization</text>
</a>
</g>
</g>
<!-- Metamodel::ClassHOW&#45;&gt;Metamodel::Finalization -->
<g id="edge9" class="edge"><title>Metamodel::ClassHOW&#45;&gt;Metamodel::Finalization</title>
<path fill="none" stroke="#6666ff" d="M-56.8118,-46.3609C-109.413,8.63595 -265.995,172.347 -265.995,172.347 -265.995,172.347 -300.868,320.465 -315.757,383.703"/>
<polygon fill="#6666ff" stroke="#6666ff" points="-312.431,384.849 -318.13,393.781 -319.245,383.245 -312.431,384.849"/>
</g>
<!-- Metamodel::MethodContainer -->
<g id="node10" class="node"><title>Metamodel::MethodContainer</title>
<g id="a_node10"><a xlink:href="/type/Metamodel::MethodContainer" xlink:title="Metamodel::MethodContainer">
<ellipse fill="none" stroke="#6666ff" cx="-137.009" cy="172.237" rx="127.277" ry="18"/>
<text text-anchor="middle" x="-137.009" y="175.937" font-family="FreeSans" font-size="14.00" fill="#6666ff">Metamodel::MethodContainer</text>
</a>
</g>
</g>
<!-- Metamodel::ClassHOW&#45;&gt;Metamodel::MethodContainer -->
<g id="edge10" class="edge"><title>Metamodel::ClassHOW&#45;&gt;Metamodel::MethodContainer</title>
<path fill="none" stroke="#6666ff" d="M-47.2767,-45.9803C-64.203,-4.81759 -105.582,95.81 -125.682,144.69"/>
<polygon fill="#6666ff" stroke="#6666ff" points="-122.478,146.102 -129.518,154.02 -128.952,143.44 -122.478,146.102"/>
</g>
<!-- Metamodel::PrivateMethodContainer -->
<g id="node11" class="node"><title>Metamodel::PrivateMethodContainer</title>
<g id="a_node11"><a xlink:href="/type/Metamodel::PrivateMethodContainer" xlink:title="Metamodel::PrivateMethodContainer">
<ellipse fill="none" stroke="#6666ff" cx="-18.4591" cy="406.557" rx="154.873" ry="18"/>
<text text-anchor="middle" x="-18.4591" y="410.257" font-family="FreeSans" font-size="14.00" fill="#6666ff">Metamodel::PrivateMethodContainer</text>
</a>
</g>
</g>
<!-- Metamodel::ClassHOW&#45;&gt;Metamodel::PrivateMethodContainer -->
<g id="edge11" class="edge"><title>Metamodel::ClassHOW&#45;&gt;Metamodel::PrivateMethodContainer</title>
<path fill="none" stroke="#6666ff" d="M-37.3695,-45.9888C-29.9257,9.33479 -8.02216,172.126 -8.02216,172.126 -8.02216,172.126 -14.422,315.876 -17.1987,378.246"/>
<polygon fill="#6666ff" stroke="#6666ff" points="-13.7161,378.717 -17.6575,388.551 -20.7092,378.405 -13.7161,378.717"/>
</g>
<!-- Metamodel::MultiMethodContainer -->
<g id="node12" class="node"><title>Metamodel::MultiMethodContainer</title>
<g id="a_node12"><a xlink:href="/type/Metamodel::MultiMethodContainer" xlink:title="Metamodel::MultiMethodContainer">
<ellipse fill="none" stroke="#6666ff" cx="-719.617" cy="47.9176" rx="146.474" ry="18"/>
<text text-anchor="middle" x="-719.617" y="51.6176" font-family="FreeSans" font-size="14.00" fill="#6666ff">Metamodel::MultiMethodContainer</text>
</a>
</g>
</g>
<!-- Metamodel::ClassHOW&#45;&gt;Metamodel::MultiMethodContainer -->
<g id="edge12" class="edge"><title>Metamodel::ClassHOW&#45;&gt;Metamodel::MultiMethodContainer</title>
<path fill="none" stroke="#6666ff" d="M-115.16,-51.7157C-238.848,-31.3281 -484.851,9.22092 -621.814,31.7966"/>
<polygon fill="#6666ff" stroke="#6666ff" points="-621.452,35.2841 -631.888,33.4571 -622.59,28.3773 -621.452,35.2841"/>
</g>
<!-- Metamodel::RoleContainer -->
<g id="node13" class="node"><title>Metamodel::RoleContainer</title>
<g id="a_node13"><a xlink:href="/type/Metamodel::RoleContainer" xlink:title="Metamodel::RoleContainer">
<ellipse fill="none" stroke="#6666ff" cx="669.588" cy="-79.4794" rx="115.88" ry="18"/>
<text text-anchor="middle" x="669.588" y="-75.7794" font-family="FreeSans" font-size="14.00" fill="#6666ff">Metamodel::RoleContainer</text>
</a>
</g>
</g>
<!-- Metamodel::ClassHOW&#45;&gt;Metamodel::RoleContainer -->
<g id="edge13" class="edge"><title>Metamodel::ClassHOW&#45;&gt;Metamodel::RoleContainer</title>
<path fill="none" stroke="#6666ff" d="M63.2935,-61.7585C185.256,-58.9468 371.937,-54.643 371.937,-54.643 371.937,-54.643 451.431,-60.4777 451.431,-60.4777 451.431,-60.4777 504.601,-65.109 558.443,-69.7986"/>
<polygon fill="#6666ff" stroke="#6666ff" points="558.226,-73.2929 568.492,-70.6739 558.834,-66.3193 558.226,-73.2929"/>
</g>
<!-- Metamodel::MultipleInheritance -->
<g id="node14" class="node"><title>Metamodel::MultipleInheritance</title>
<g id="a_node14"><a xlink:href="/type/Metamodel::MultipleInheritance" xlink:title="Metamodel::MultipleInheritance">
<ellipse fill="none" stroke="#6666ff" cx="681.997" cy="-345.512" rx="133.776" ry="18"/>
<text text-anchor="middle" x="681.997" y="-341.812" font-family="FreeSans" font-size="14.00" fill="#6666ff">Metamodel::MultipleInheritance</text>
</a>
</g>
</g>
<!-- Metamodel::ClassHOW&#45;&gt;Metamodel::MultipleInheritance -->
<g id="edge14" class="edge"><title>Metamodel::ClassHOW&#45;&gt;Metamodel::MultipleInheritance</title>
<path fill="none" stroke="#6666ff" d="M-8.69312,-81.4324C20.9741,-97.9228 61.1583,-120.259 61.1583,-120.259 61.1583,-120.259 86.3922,-134.134 86.3922,-134.134 86.3922,-134.134 476.108,-272.443 625.057,-325.305"/>
<polygon fill="#6666ff" stroke="#6666ff" points="623.919,-328.614 634.513,-328.661 626.26,-322.018 623.919,-328.614"/>
</g>
<!-- Metamodel::DefaultParent -->
<g id="node15" class="node"><title>Metamodel::DefaultParent</title>
<g id="a_node15"><a xlink:href="/type/Metamodel::DefaultParent" xlink:title="Metamodel::DefaultParent">
<ellipse fill="none" stroke="#6666ff" cx="103.821" cy="-363.474" rx="113.18" ry="18"/>
<text text-anchor="middle" x="103.821" y="-359.774" font-family="FreeSans" font-size="14.00" fill="#6666ff">Metamodel::DefaultParent</text>
</a>
</g>
</g>
<!-- Metamodel::ClassHOW&#45;&gt;Metamodel::DefaultParent -->
<g id="edge15" class="edge"><title>Metamodel::ClassHOW&#45;&gt;Metamodel::DefaultParent</title>
<path fill="none" stroke="#6666ff" d="M-31.0425,-82.4099C-6.69498,-133.152 61.8434,-275.99 90.7266,-336.185"/>
<polygon fill="#6666ff" stroke="#6666ff" points="87.6855,-337.938 95.1672,-345.439 93.9966,-334.909 87.6855,-337.938"/>
</g>
<!-- Metamodel::C3MRO -->
<g id="node16" class="node"><title>Metamodel::C3MRO</title>
<g id="a_node16"><a xlink:href="/type/Metamodel::C3MRO" xlink:title="Metamodel::C3MRO">
<ellipse fill="none" stroke="#6666ff" cx="123.989" cy="150.085" rx="92.0841" ry="18"/>
<text text-anchor="middle" x="123.989" y="153.785" font-family="FreeSans" font-size="14.00" fill="#6666ff">Metamodel::C3MRO</text>
</a>
</g>
</g>
<!-- Metamodel::ClassHOW&#45;&gt;Metamodel::C3MRO -->
<g id="edge16" class="edge"><title>Metamodel::ClassHOW&#45;&gt;Metamodel::C3MRO</title>
<path fill="none" stroke="#6666ff" d="M-26.1274,-46.2396C2.83871,-8.35733 70.4488,80.0642 104.154,124.145"/>
<polygon fill="#6666ff" stroke="#6666ff" points="106.935,122.02 110.229,132.089 101.375,126.272 106.935,122.02"/>
</g>
<!-- Metamodel::MROBasedMethodDispatch -->
<g id="node17" class="node"><title>Metamodel::MROBasedMethodDispatch</title>
<g id="a_node17"><a xlink:href="/type/Metamodel::MROBasedMethodDispatch" xlink:title="Metamodel::MROBasedMethodDispatch">
<ellipse fill="none" stroke="#6666ff" cx="398.699" cy="174.453" rx="169.77" ry="18"/>
<text text-anchor="middle" x="398.699" y="178.153" font-family="FreeSans" font-size="14.00" fill="#6666ff">Metamodel::MROBasedMethodDispatch</text>
</a>
</g>
</g>
<!-- Metamodel::ClassHOW&#45;&gt;Metamodel::MROBasedMethodDispatch -->
<g id="edge17" class="edge"><title>Metamodel::ClassHOW&#45;&gt;Metamodel::MROBasedMethodDispatch</title>
<path fill="none" stroke="#6666ff" d="M-8.27462,-46.9768C69.3942,-4.71803 269.913,104.382 357.141,151.842"/>
<polygon fill="#6666ff" stroke="#6666ff" points="358.855,148.79 365.966,156.644 355.509,154.939 358.855,148.79"/>
</g>
<!-- Metamodel::MROBasedTypeChecking -->
<g id="node18" class="node"><title>Metamodel::MROBasedTypeChecking</title>
<g id="a_node18"><a xlink:href="/type/Metamodel::MROBasedTypeChecking" xlink:title="Metamodel::MROBasedTypeChecking">
<ellipse fill="none" stroke="#6666ff" cx="-703.914" cy="-315.226" rx="163.271" ry="18"/>
<text text-anchor="middle" x="-703.914" y="-311.526" font-family="FreeSans" font-size="14.00" fill="#6666ff">Metamodel::MROBasedTypeChecking</text>
</a>
</g>
</g>
<!-- Metamodel::ClassHOW&#45;&gt;Metamodel::MROBasedTypeChecking -->
<g id="edge18" class="edge"><title>Metamodel::ClassHOW&#45;&gt;Metamodel::MROBasedTypeChecking</title>
<path fill="none" stroke="#6666ff" d="M-83.1286,-80.5134C-199.472,-124.502 -518.689,-245.194 -648.21,-294.164"/>
<polygon fill="#6666ff" stroke="#6666ff" points="-649.823,-291.033 -657.939,-297.843 -647.348,-297.58 -649.823,-291.033"/>
</g>
<!-- Metamodel::Trusting -->
<g id="node19" class="node"><title>Metamodel::Trusting</title>
<g id="a_node19"><a xlink:href="/type/Metamodel::Trusting" xlink:title="Metamodel::Trusting">
<ellipse fill="none" stroke="#6666ff" cx="-473.381" cy="-100.149" rx="91.784" ry="18"/>
<text text-anchor="middle" x="-473.381" y="-96.4486" font-family="FreeSans" font-size="14.00" fill="#6666ff">Metamodel::Trusting</text>
</a>
</g>
</g>
<!-- Metamodel::ClassHOW&#45;&gt;Metamodel::Trusting -->
<g id="edge19" class="edge"><title>Metamodel::ClassHOW&#45;&gt;Metamodel::Trusting</title>
<path fill="none" stroke="#6666ff" d="M-143.835,-64.0032C-192.396,-63.9414 -239.664,-63.8813 -239.664,-63.8813 -239.664,-63.8813 -312.075,-69.6011 -312.075,-69.6011 -312.075,-69.6011 -355.515,-77.8276 -397.309,-85.7424"/>
<polygon fill="#6666ff" stroke="#6666ff" points="-398.132,-82.336 -407.306,-87.6356 -396.829,-89.2137 -398.132,-82.336"/>
</g>
<!-- Metamodel::BUILDPLAN -->
<g id="node20" class="node"><title>Metamodel::BUILDPLAN</title>
<g id="a_node20"><a xlink:href="/type/Metamodel::BUILDPLAN" xlink:title="Metamodel::BUILDPLAN">
<ellipse fill="none" stroke="#6666ff" cx="-385.568" cy="-359.479" rx="109.681" ry="18"/>
<text text-anchor="middle" x="-385.568" y="-355.779" font-family="FreeSans" font-size="14.00" fill="#6666ff">Metamodel::BUILDPLAN</text>
</a>
</g>
</g>
<!-- Metamodel::ClassHOW&#45;&gt;Metamodel::BUILDPLAN -->
<g id="edge20" class="edge"><title>Metamodel::ClassHOW&#45;&gt;Metamodel::BUILDPLAN</title>
<path fill="none" stroke="#6666ff" d="M-60.6612,-81.9454C-119.867,-132.519 -289.102,-277.078 -356.935,-335.021"/>
<polygon fill="#6666ff" stroke="#6666ff" points="-359.36,-332.489 -364.691,-341.646 -354.814,-337.812 -359.36,-332.489"/>
</g>
<!-- Metamodel::Mixins -->
<g id="node21" class="node"><title>Metamodel::Mixins</title>
<g id="a_node21"><a xlink:href="/type/Metamodel::Mixins" xlink:title="Metamodel::Mixins">
<ellipse fill="none" stroke="#6666ff" cx="147.9" cy="-120.314" rx="85.2851" ry="18"/>
<text text-anchor="middle" x="147.9" y="-116.614" font-family="FreeSans" font-size="14.00" fill="#6666ff">Metamodel::Mixins</text>
</a>
</g>
</g>
<!-- Metamodel::ClassHOW&#45;&gt;Metamodel::Mixins -->
<g id="edge21" class="edge"><title>Metamodel::ClassHOW&#45;&gt;Metamodel::Mixins</title>
<path fill="none" stroke="#6666ff" d="M12.477,-79.7844C36.1225,-86.861 64.1791,-95.2578 88.6055,-102.568"/>
<polygon fill="#6666ff" stroke="#6666ff" points="87.8903,-106.008 98.474,-105.522 89.8974,-99.3014 87.8903,-106.008"/>
</g>
<!-- Metamodel::BoolificationProtocol -->
<g id="node22" class="node"><title>Metamodel::BoolificationProtocol</title>
<g id="a_node22"><a xlink:href="/type/Metamodel::BoolificationProtocol" xlink:title="Metamodel::BoolificationProtocol">
<ellipse fill="none" stroke="#6666ff" cx="-410.283" cy="163.103" rx="139.175" ry="18"/>
<text text-anchor="middle" x="-410.283" y="166.803" font-family="FreeSans" font-size="14.00" fill="#6666ff">Metamodel::BoolificationProtocol</text>
</a>
</g>
</g>
<!-- Metamodel::ClassHOW&#45;&gt;Metamodel::BoolificationProtocol -->
<g id="edge22" class="edge"><title>Metamodel::ClassHOW&#45;&gt;Metamodel::BoolificationProtocol</title>
<path fill="none" stroke="#6666ff" d="M-68.2663,-46.6818C-134.451,-6.08568 -298.723,94.6746 -372.891,140.167"/>
<polygon fill="#6666ff" stroke="#6666ff" points="-371.122,143.188 -381.476,145.433 -374.782,137.221 -371.122,143.188"/>
</g>
<!-- Mu -->
<g id="node2" class="node"><title>Mu</title>
<g id="a_node2"><a xlink:href="/type/Mu" xlink:title="Mu">
<ellipse fill="none" stroke="#000000" cx="637.937" cy="416.232" rx="27" ry="18"/>
<text text-anchor="middle" x="637.937" y="419.932" font-family="FreeSans" font-size="14.00" fill="#000000">Mu</text>
</a>
</g>
</g>
<!-- Any&#45;&gt;Mu -->
<g id="edge2" class="edge"><title>Any&#45;&gt;Mu</title>
<path fill="none" stroke="#000000" d="M301.086,410.038C365.298,411.219 527.004,414.192 600.519,415.544"/>
<polygon fill="#000000" stroke="#000000" points="600.77,412.048 610.704,415.731 600.641,419.046 600.77,412.048"/>
</g>
<!-- Metamodel::GrammarHOW -->
<g id="node23" class="node"><title>Metamodel::GrammarHOW</title>
<g id="a_node23"><a xlink:href="/type/Metamodel::GrammarHOW" xlink:title="Metamodel::GrammarHOW">
<ellipse fill="none" stroke="#000000" cx="368.264" cy="-345.933" rx="118.879" ry="18"/>
<text text-anchor="middle" x="368.264" y="-342.233" font-family="FreeSans" font-size="14.00" fill="#000000">Metamodel::GrammarHOW</text>
</a>
</g>
</g>
<!-- Metamodel::GrammarHOW&#45;&gt;Metamodel::ClassHOW -->
<g id="edge3" class="edge"><title>Metamodel::GrammarHOW&#45;&gt;Metamodel::ClassHOW</title>
<path fill="none" stroke="#000000" d="M342.737,-328.305C272.172,-279.576 74.4109,-143.012 -5.58379,-87.7713"/>
<polygon fill="#000000" stroke="#000000" points="-4.07638,-84.5588 -14.2939,-81.7565 -8.05404,-90.3189 -4.07638,-84.5588"/>
</g>
<!-- Metamodel::GrammarHOW&#45;&gt;Metamodel::DefaultParent -->
<g id="edge23" class="edge"><title>Metamodel::GrammarHOW&#45;&gt;Metamodel::DefaultParent</title>
<path fill="none" stroke="#6666ff" d="M259.178,-353.169C245.8,-354.056 232.096,-354.965 218.636,-355.858"/>
<polygon fill="#6666ff" stroke="#6666ff" points="218.147,-352.383 208.401,-356.537 218.611,-359.367 218.147,-352.383"/>
</g>
</g>
</svg>
