<?xml version="1.0" encoding="UTF-8" standalone="no"?>
<!DOCTYPE svg PUBLIC "-//W3C//DTD SVG 1.1//EN"
 "http://www.w3.org/Graphics/SVG/1.1/DTD/svg11.dtd">
<!-- Generated by graphviz version 2.38.0 (20140413.2041)
 -->
<!-- Title: perl6&#45;type&#45;graph Pages: 1 -->
<svg width="216pt" height="404pt"
 viewBox="0.00 0.00 215.79 404.00" xmlns="http://www.w3.org/2000/svg" xmlns:xlink="http://www.w3.org/1999/xlink">
<g id="graph0" class="graph" transform="scale(1 1) rotate(0) translate(4 400)">
<title>perl6&#45;type&#45;graph</title>
<polygon fill="white" stroke="none" points="-4,4 -4,-400 211.791,-400 211.791,4 -4,4"/>
<!-- X::IO::Chmod -->
<g id="node1" class="node"><title>X::IO::Chmod</title>
<g id="a_node1"><a xlink:href="/type/X::IO::Chmod" xlink:title="X::IO::Chmod">
<ellipse fill="none" stroke="#000000" cx="64.3443" cy="-18" rx="64.189" ry="18"/>
<text text-anchor="middle" x="64.3443" y="-14.3" font-family="FreeSans" font-size="14.00" fill="#000000">X::IO::Chmod</text>
</a>
</g>
</g>
<!-- Exception -->
<g id="node4" class="node"><title>Exception</title>
<g id="a_node4"><a xlink:href="/type/Exception" xlink:title="Exception">
<ellipse fill="none" stroke="#000000" cx="87.3443" cy="-234" rx="49.2915" ry="18"/>
<text text-anchor="middle" x="87.3443" y="-230.3" font-family="FreeSans" font-size="14.00" fill="#000000">Exception</text>
</a>
</g>
</g>
<!-- X::IO::Chmod&#45;&gt;Exception -->
<g id="edge1" class="edge"><title>X::IO::Chmod&#45;&gt;Exception</title>
<path fill="none" stroke="#000000" d="M62.3101,-36.1508C62.7548,-73.3384 71.9859,-161.626 79.8163,-206.228"/>
<polygon fill="#000000" stroke="#000000" points="76.3782,-206.884 81.6673,-216.065 83.2574,-205.59 76.3782,-206.884"/>
</g>
<!-- X::IO::Chmod&#45;&gt;Exception -->
<g id="edge2" class="edge"><title>X::IO::Chmod&#45;&gt;Exception</title>
<path fill="none" stroke="#000000" d="M70.0651,-36.1508C77.5795,-73.1683 87.2714,-160.819 89.0931,-205.614"/>
<polygon fill="#000000" stroke="#000000" points="85.5988,-205.87 89.3775,-215.768 92.596,-205.673 85.5988,-205.87"/>
</g>
<!-- X::IO -->
<g id="node6" class="node"><title>X::IO</title>
<g id="a_node6"><a xlink:href="/type/X::IO" xlink:title="X::IO">
<ellipse fill="none" stroke="#6666ff" cx="132.344" cy="-90" rx="31.3957" ry="18"/>
<text text-anchor="middle" x="132.344" y="-86.3" font-family="FreeSans" font-size="14.00" fill="#6666ff">X::IO</text>
</a>
</g>
</g>
<!-- X::IO::Chmod&#45;&gt;X::IO -->
<g id="edge7" class="edge"><title>X::IO::Chmod&#45;&gt;X::IO</title>
<path fill="none" stroke="#6666ff" d="M80.4593,-35.589C89.4728,-44.8676 100.831,-56.5595 110.62,-66.6369"/>
<polygon fill="#6666ff" stroke="#6666ff" points="108.257,-69.2277 117.736,-73.9618 113.278,-64.3502 108.257,-69.2277"/>
</g>
<!-- Mu -->
<g id="node2" class="node"><title>Mu</title>
<g id="a_node2"><a xlink:href="/type/Mu" xlink:title="Mu">
<ellipse fill="none" stroke="#000000" cx="87.3443" cy="-378" rx="27" ry="18"/>
<text text-anchor="middle" x="87.3443" y="-374.3" font-family="FreeSans" font-size="14.00" fill="#000000">Mu</text>
</a>
</g>
</g>
<!-- Any -->
<g id="node3" class="node"><title>Any</title>
<g id="a_node3"><a xlink:href="/type/Any" xlink:title="Any">
<ellipse fill="none" stroke="#000000" cx="87.3443" cy="-306" rx="27" ry="18"/>
<text text-anchor="middle" x="87.3443" y="-302.3" font-family="FreeSans" font-size="14.00" fill="#000000">Any</text>
</a>
</g>
</g>
<!-- Any&#45;&gt;Mu -->
<g id="edge3" class="edge"><title>Any&#45;&gt;Mu</title>
<path fill="none" stroke="#000000" d="M87.3443,-324.303C87.3443,-332.017 87.3443,-341.288 87.3443,-349.888"/>
<polygon fill="#000000" stroke="#000000" points="83.8444,-349.896 87.3443,-359.896 90.8444,-349.896 83.8444,-349.896"/>
</g>
<!-- Exception&#45;&gt;Any -->
<g id="edge4" class="edge"><title>Exception&#45;&gt;Any</title>
<path fill="none" stroke="#000000" d="M87.3443,-252.303C87.3443,-260.017 87.3443,-269.288 87.3443,-277.888"/>
<polygon fill="#000000" stroke="#000000" points="83.8444,-277.896 87.3443,-287.896 90.8444,-277.896 83.8444,-277.896"/>
</g>
<!-- X::OS -->
<g id="node5" class="node"><title>X::OS</title>
<g id="a_node5"><a xlink:href="/type/X::OS" xlink:title="X::OS">
<ellipse fill="none" stroke="#6666ff" cx="173.344" cy="-162" rx="34.394" ry="18"/>
<text text-anchor="middle" x="173.344" y="-158.3" font-family="FreeSans" font-size="14.00" fill="#6666ff">X::OS</text>
</a>
</g>
</g>
<!-- X::OS&#45;&gt;Exception -->
<g id="edge5" class="edge"><title>X::OS&#45;&gt;Exception</title>
<path fill="none" stroke="#000000" d="M155.525,-177.504C143.71,-187.121 127.978,-199.926 114.603,-210.813"/>
<polygon fill="#000000" stroke="#000000" points="112.182,-208.27 106.636,-217.297 116.601,-213.699 112.182,-208.27"/>
</g>
<!-- X::IO&#45;&gt;Exception -->
<g id="edge6" class="edge"><title>X::IO&#45;&gt;Exception</title>
<path fill="none" stroke="#000000" d="M127.005,-107.847C119.334,-132.056 105.108,-176.946 95.9427,-205.867"/>
<polygon fill="#000000" stroke="#000000" points="92.501,-205.142 92.8165,-215.732 99.174,-207.257 92.501,-205.142"/>
</g>
<!-- X::IO&#45;&gt;X::OS -->
<g id="edge8" class="edge"><title>X::IO&#45;&gt;X::OS</title>
<path fill="none" stroke="#6666ff" d="M141.854,-107.235C146.801,-115.683 152.962,-126.201 158.519,-135.688"/>
<polygon fill="#6666ff" stroke="#6666ff" points="155.528,-137.507 163.602,-144.367 161.568,-133.969 155.528,-137.507"/>
</g>
</g>
</svg>
