<?xml version="1.0" encoding="UTF-8" standalone="no"?>
<!DOCTYPE svg PUBLIC "-//W3C//DTD SVG 1.1//EN"
 "http://www.w3.org/Graphics/SVG/1.1/DTD/svg11.dtd">
<!-- Generated by graphviz version 2.38.0 (20140413.2041)
 -->
<!-- Title: perl6&#45;type&#45;graph Pages: 1 -->
<svg width="922pt" height="332pt"
 viewBox="0.00 0.00 921.99 332.00" xmlns="http://www.w3.org/2000/svg" xmlns:xlink="http://www.w3.org/1999/xlink">
<g id="graph0" class="graph" transform="scale(1 1) rotate(0) translate(4 328)">
<title>perl6&#45;type&#45;graph</title>
<polygon fill="white" stroke="none" points="-4,4 -4,-328 917.993,-328 917.993,4 -4,4"/>
<!-- Real -->
<g id="node1" class="node"><title>Real</title>
<g id="a_node1"><a xlink:href="/type/Real" xlink:title="Real">
<ellipse fill="none" stroke="#6666ff" cx="348.047" cy="-162" rx="28.6953" ry="18"/>
<text text-anchor="middle" x="348.047" y="-158.3" font-family="FreeSans" font-size="14.00" fill="#6666ff">Real</text>
</a>
</g>
</g>
<!-- Numeric -->
<g id="node2" class="node"><title>Numeric</title>
<g id="a_node2"><a xlink:href="/type/Numeric" xlink:title="Numeric">
<ellipse fill="none" stroke="#6666ff" cx="346.047" cy="-234" rx="44.393" ry="18"/>
<text text-anchor="middle" x="346.047" y="-230.3" font-family="FreeSans" font-size="14.00" fill="#6666ff">Numeric</text>
</a>
</g>
</g>
<!-- Real&#45;&gt;Numeric -->
<g id="edge20" class="edge"><title>Real&#45;&gt;Numeric</title>
<path fill="none" stroke="#6666ff" d="M347.552,-180.303C347.332,-188.017 347.067,-197.288 346.821,-205.888"/>
<polygon fill="#6666ff" stroke="#6666ff" points="343.323,-205.8 346.535,-215.896 350.32,-206 343.323,-205.8"/>
</g>
<!-- Mu -->
<g id="node3" class="node"><title>Mu</title>
<g id="a_node3"><a xlink:href="/type/Mu" xlink:title="Mu">
<ellipse fill="none" stroke="#000000" cx="435.047" cy="-306" rx="27" ry="18"/>
<text text-anchor="middle" x="435.047" y="-302.3" font-family="FreeSans" font-size="14.00" fill="#000000">Mu</text>
</a>
</g>
</g>
<!-- Any -->
<g id="node4" class="node"><title>Any</title>
<g id="a_node4"><a xlink:href="/type/Any" xlink:title="Any">
<ellipse fill="none" stroke="#000000" cx="435.047" cy="-234" rx="27" ry="18"/>
<text text-anchor="middle" x="435.047" y="-230.3" font-family="FreeSans" font-size="14.00" fill="#000000">Any</text>
</a>
</g>
</g>
<!-- Any&#45;&gt;Mu -->
<g id="edge1" class="edge"><title>Any&#45;&gt;Mu</title>
<path fill="none" stroke="#000000" d="M435.047,-252.303C435.047,-260.017 435.047,-269.288 435.047,-277.888"/>
<polygon fill="#000000" stroke="#000000" points="431.547,-277.896 435.047,-287.896 438.547,-277.896 431.547,-277.896"/>
</g>
<!-- Cool -->
<g id="node5" class="node"><title>Cool</title>
<g id="a_node5"><a xlink:href="/type/Cool" xlink:title="Cool">
<ellipse fill="none" stroke="#000000" cx="428.047" cy="-162" rx="28.6953" ry="18"/>
<text text-anchor="middle" x="428.047" y="-158.3" font-family="FreeSans" font-size="14.00" fill="#000000">Cool</text>
</a>
</g>
</g>
<!-- Cool&#45;&gt;Any -->
<g id="edge2" class="edge"><title>Cool&#45;&gt;Any</title>
<path fill="none" stroke="#000000" d="M429.777,-180.303C430.548,-188.017 431.475,-197.288 432.335,-205.888"/>
<polygon fill="#000000" stroke="#000000" points="428.859,-206.294 433.336,-215.896 435.824,-205.597 428.859,-206.294"/>
</g>
<!-- Int -->
<g id="node6" class="node"><title>Int</title>
<g id="a_node6"><a xlink:href="/type/Int" xlink:title="Int">
<ellipse fill="none" stroke="#000000" cx="478.047" cy="-90" rx="27" ry="18"/>
<text text-anchor="middle" x="478.047" y="-86.3" font-family="FreeSans" font-size="14.00" fill="#000000">Int</text>
</a>
</g>
</g>
<!-- Int&#45;&gt;Real -->
<g id="edge21" class="edge"><title>Int&#45;&gt;Real</title>
<path fill="none" stroke="#6666ff" d="M457.734,-101.938C436.332,-113.462 402.4,-131.733 377.942,-144.902"/>
<polygon fill="#6666ff" stroke="#6666ff" points="376.223,-141.853 369.078,-149.675 379.542,-148.016 376.223,-141.853"/>
</g>
<!-- Int&#45;&gt;Cool -->
<g id="edge3" class="edge"><title>Int&#45;&gt;Cool</title>
<path fill="none" stroke="#000000" d="M466.95,-106.535C460.631,-115.383 452.573,-126.663 445.432,-136.661"/>
<polygon fill="#000000" stroke="#000000" points="442.423,-134.851 439.459,-145.023 448.119,-138.92 442.423,-134.851"/>
</g>
<!-- Instant -->
<g id="node7" class="node"><title>Instant</title>
<g id="a_node7"><a xlink:href="/type/Instant" xlink:title="Instant">
<ellipse fill="none" stroke="#000000" cx="252.047" cy="-90" rx="37.0935" ry="18"/>
<text text-anchor="middle" x="252.047" y="-86.3" font-family="FreeSans" font-size="14.00" fill="#000000">Instant</text>
</a>
</g>
</g>
<!-- Instant&#45;&gt;Real -->
<g id="edge22" class="edge"><title>Instant&#45;&gt;Real</title>
<path fill="none" stroke="#6666ff" d="M271.938,-105.504C286.396,-116.046 306.106,-130.418 321.846,-141.896"/>
<polygon fill="#6666ff" stroke="#6666ff" points="319.981,-144.867 330.124,-147.931 324.106,-139.211 319.981,-144.867"/>
</g>
<!-- Instant&#45;&gt;Cool -->
<g id="edge4" class="edge"><title>Instant&#45;&gt;Cool</title>
<path fill="none" stroke="#000000" d="M279.812,-101.982C319.061,-117.506 386.047,-144 386.047,-144 386.047,-144 389.89,-145.556 395.251,-147.725"/>
<polygon fill="#000000" stroke="#000000" points="394.008,-150.998 404.591,-151.506 396.635,-144.51 394.008,-150.998"/>
</g>
<!-- Duration -->
<g id="node8" class="node"><title>Duration</title>
<g id="a_node8"><a xlink:href="/type/Duration" xlink:title="Duration">
<ellipse fill="none" stroke="#000000" cx="351.047" cy="-90" rx="44.393" ry="18"/>
<text text-anchor="middle" x="351.047" y="-86.3" font-family="FreeSans" font-size="14.00" fill="#000000">Duration</text>
</a>
</g>
</g>
<!-- Duration&#45;&gt;Real -->
<g id="edge23" class="edge"><title>Duration&#45;&gt;Real</title>
<path fill="none" stroke="#6666ff" d="M350.305,-108.303C349.975,-116.017 349.577,-125.288 349.209,-133.888"/>
<polygon fill="#6666ff" stroke="#6666ff" points="345.711,-133.755 348.78,-143.896 352.705,-134.055 345.711,-133.755"/>
</g>
<!-- Duration&#45;&gt;Cool -->
<g id="edge5" class="edge"><title>Duration&#45;&gt;Cool</title>
<path fill="none" stroke="#000000" d="M368.519,-106.884C379.263,-116.651 393.157,-129.282 404.82,-139.885"/>
<polygon fill="#000000" stroke="#000000" points="402.718,-142.704 412.472,-146.841 407.427,-137.524 402.718,-142.704"/>
</g>
<!-- Rational -->
<g id="node9" class="node"><title>Rational</title>
<g id="a_node9"><a xlink:href="/type/Rational" xlink:title="Rational">
<ellipse fill="none" stroke="#6666ff" cx="119.047" cy="-90" rx="42.7926" ry="18"/>
<text text-anchor="middle" x="119.047" y="-86.3" font-family="FreeSans" font-size="14.00" fill="#6666ff">Rational</text>
</a>
</g>
</g>
<!-- Rational&#45;&gt;Real -->
<g id="edge24" class="edge"><title>Rational&#45;&gt;Real</title>
<path fill="none" stroke="#6666ff" d="M152.836,-101.329C195.889,-114.489 269.918,-137.118 313.385,-150.405"/>
<polygon fill="#6666ff" stroke="#6666ff" points="312.37,-153.754 322.957,-153.331 314.417,-147.06 312.37,-153.754"/>
</g>
<!-- Num -->
<g id="node10" class="node"><title>Num</title>
<g id="a_node10"><a xlink:href="/type/Num" xlink:title="Num">
<ellipse fill="none" stroke="#000000" cx="553.047" cy="-90" rx="29.795" ry="18"/>
<text text-anchor="middle" x="553.047" y="-86.3" font-family="FreeSans" font-size="14.00" fill="#000000">Num</text>
</a>
</g>
</g>
<!-- Num&#45;&gt;Real -->
<g id="edge25" class="edge"><title>Num&#45;&gt;Real</title>
<path fill="none" stroke="#6666ff" d="M529.461,-101.281C521.247,-104.861 514.047,-108 514.047,-108 514.047,-108 390.047,-144 390.047,-144 390.047,-144 386.204,-145.556 380.843,-147.725"/>
<polygon fill="#6666ff" stroke="#6666ff" points="379.459,-144.51 371.503,-151.506 382.085,-150.998 379.459,-144.51"/>
</g>
<!-- Num&#45;&gt;Cool -->
<g id="edge6" class="edge"><title>Num&#45;&gt;Cool</title>
<path fill="none" stroke="#000000" d="M531.842,-102.875C511.517,-114.257 480.646,-131.544 457.851,-144.309"/>
<polygon fill="#000000" stroke="#000000" points="455.953,-141.361 448.938,-149.301 459.373,-147.469 455.953,-141.361"/>
</g>
<!-- atomicint -->
<g id="node11" class="node"><title>atomicint</title>
<g id="a_node11"><a xlink:href="/type/atomicint" xlink:title="atomicint">
<ellipse fill="none" stroke="#000000" cx="512.047" cy="-18" rx="46.2923" ry="18"/>
<text text-anchor="middle" x="512.047" y="-14.3" font-family="FreeSans" font-size="14.00" fill="#000000">atomicint</text>
</a>
</g>
</g>
<!-- atomicint&#45;&gt;Int -->
<g id="edge7" class="edge"><title>atomicint&#45;&gt;Int</title>
<path fill="none" stroke="#000000" d="M503.816,-35.945C499.79,-44.2335 494.861,-54.3822 490.396,-63.5759"/>
<polygon fill="#000000" stroke="#000000" points="487.188,-62.1687 485.967,-72.693 493.485,-65.2271 487.188,-62.1687"/>
</g>
<!-- Signal -->
<g id="node12" class="node"><title>Signal</title>
<g id="a_node12"><a xlink:href="/type/Signal" xlink:title="Signal">
<ellipse fill="none" stroke="#33bb33" cx="611.047" cy="-18" rx="35.194" ry="18"/>
<text text-anchor="middle" x="611.047" y="-14.3" font-family="FreeSans" font-size="14.00" fill="#33bb33">Signal</text>
</a>
</g>
</g>
<!-- Signal&#45;&gt;Int -->
<g id="edge8" class="edge"><title>Signal&#45;&gt;Int</title>
<path fill="none" stroke="#000000" d="M587.269,-31.5146C564.974,-43.2489 531.568,-60.8307 507.575,-73.4587"/>
<polygon fill="#000000" stroke="#000000" points="505.785,-70.4456 498.566,-78.2004 509.045,-76.6401 505.785,-70.4456"/>
</g>
<!-- Order -->
<g id="node13" class="node"><title>Order</title>
<g id="a_node13"><a xlink:href="/type/Order" xlink:title="Order">
<ellipse fill="none" stroke="#33bb33" cx="698.047" cy="-18" rx="33.5952" ry="18"/>
<text text-anchor="middle" x="698.047" y="-14.3" font-family="FreeSans" font-size="14.00" fill="#33bb33">Order</text>
</a>
</g>
</g>
<!-- Order&#45;&gt;Int -->
<g id="edge9" class="edge"><title>Order&#45;&gt;Int</title>
<path fill="none" stroke="#000000" d="M671.549,-29.476C662.7,-32.9744 655.047,-36 655.047,-36 655.047,-36 514.047,-72 514.047,-72 514.047,-72 511.866,-73.0296 508.579,-74.5819"/>
<polygon fill="#000000" stroke="#000000" points="506.952,-71.4796 499.404,-78.9146 509.941,-77.8093 506.952,-71.4796"/>
</g>
<!-- Stringy -->
<g id="node14" class="node"><title>Stringy</title>
<g id="a_node14"><a xlink:href="/type/Stringy" xlink:title="Stringy">
<ellipse fill="none" stroke="#6666ff" cx="782.047" cy="-162" rx="38.1938" ry="18"/>
<text text-anchor="middle" x="782.047" y="-158.3" font-family="FreeSans" font-size="14.00" fill="#6666ff">Stringy</text>
</a>
</g>
</g>
<!-- Str -->
<g id="node15" class="node"><title>Str</title>
<g id="a_node15"><a xlink:href="/type/Str" xlink:title="Str">
<ellipse fill="none" stroke="#000000" cx="782.047" cy="-90" rx="27" ry="18"/>
<text text-anchor="middle" x="782.047" y="-86.3" font-family="FreeSans" font-size="14.00" fill="#000000">Str</text>
</a>
</g>
</g>
<!-- Str&#45;&gt;Cool -->
<g id="edge10" class="edge"><title>Str&#45;&gt;Cool</title>
<path fill="none" stroke="#000000" d="M756.588,-96.0342C694.938,-108.225 537.411,-139.374 465.212,-153.651"/>
<polygon fill="#000000" stroke="#000000" points="464.331,-150.257 455.2,-155.631 465.689,-157.124 464.331,-150.257"/>
</g>
<!-- Str&#45;&gt;Stringy -->
<g id="edge26" class="edge"><title>Str&#45;&gt;Stringy</title>
<path fill="none" stroke="#6666ff" d="M782.047,-108.303C782.047,-116.017 782.047,-125.288 782.047,-133.888"/>
<polygon fill="#6666ff" stroke="#6666ff" points="778.547,-133.896 782.047,-143.896 785.547,-133.896 778.547,-133.896"/>
</g>
<!-- IntStr -->
<g id="node16" class="node"><title>IntStr</title>
<g id="a_node16"><a xlink:href="/type/IntStr" xlink:title="IntStr">
<ellipse fill="none" stroke="#000000" cx="782.047" cy="-18" rx="31.6951" ry="18"/>
<text text-anchor="middle" x="782.047" y="-14.3" font-family="FreeSans" font-size="14.00" fill="#000000">IntStr</text>
</a>
</g>
</g>
<!-- IntStr&#45;&gt;Int -->
<g id="edge11" class="edge"><title>IntStr&#45;&gt;Int</title>
<path fill="none" stroke="#000000" d="M756.781,-29.476C748.344,-32.9744 741.047,-36 741.047,-36 741.047,-36 514.047,-72 514.047,-72 514.047,-72 511.866,-73.0296 508.579,-74.5819"/>
<polygon fill="#000000" stroke="#000000" points="506.952,-71.4796 499.404,-78.9146 509.941,-77.8093 506.952,-71.4796"/>
</g>
<!-- IntStr&#45;&gt;Str -->
<g id="edge12" class="edge"><title>IntStr&#45;&gt;Str</title>
<path fill="none" stroke="#000000" d="M782.047,-36.3034C782.047,-44.0173 782.047,-53.2875 782.047,-61.8876"/>
<polygon fill="#000000" stroke="#000000" points="778.547,-61.8956 782.047,-71.8957 785.547,-61.8957 778.547,-61.8956"/>
</g>
<!-- PromiseStatus -->
<g id="node17" class="node"><title>PromiseStatus</title>
<g id="a_node17"><a xlink:href="/type/PromiseStatus" xlink:title="PromiseStatus">
<ellipse fill="none" stroke="#33bb33" cx="232.047" cy="-18" rx="67.6881" ry="18"/>
<text text-anchor="middle" x="232.047" y="-14.3" font-family="FreeSans" font-size="14.00" fill="#33bb33">PromiseStatus</text>
</a>
</g>
</g>
<!-- PromiseStatus&#45;&gt;Int -->
<g id="edge13" class="edge"><title>PromiseStatus&#45;&gt;Int</title>
<path fill="none" stroke="#000000" d="M278.821,-31.0928C339.325,-46.7353 437.047,-72 437.047,-72 437.047,-72 440.926,-73.6087 446.299,-75.8363"/>
<polygon fill="#000000" stroke="#000000" points="445.049,-79.1071 455.627,-79.7042 447.73,-72.6409 445.049,-79.1071"/>
</g>
<!-- int -->
<g id="node18" class="node"><title>int</title>
<g id="a_node18"><a xlink:href="/type/int" xlink:title="int">
<ellipse fill="none" stroke="#000000" cx="345.047" cy="-18" rx="27" ry="18"/>
<text text-anchor="middle" x="345.047" y="-14.3" font-family="FreeSans" font-size="14.00" fill="#000000">int</text>
</a>
</g>
</g>
<!-- int&#45;&gt;Int -->
<g id="edge14" class="edge"><title>int&#45;&gt;Int</title>
<path fill="none" stroke="#000000" d="M365.536,-29.7841C387.634,-41.4142 423.025,-60.0414 448.211,-73.2969"/>
<polygon fill="#000000" stroke="#000000" points="446.835,-76.528 457.315,-78.0883 450.095,-70.3336 446.835,-76.528"/>
</g>
<!-- Bool -->
<g id="node19" class="node"><title>Bool</title>
<g id="a_node19"><a xlink:href="/type/Bool" xlink:title="Bool">
<ellipse fill="none" stroke="#33bb33" cx="419.047" cy="-18" rx="28.6953" ry="18"/>
<text text-anchor="middle" x="419.047" y="-14.3" font-family="FreeSans" font-size="14.00" fill="#33bb33">Bool</text>
</a>
</g>
</g>
<!-- Bool&#45;&gt;Int -->
<g id="edge15" class="edge"><title>Bool&#45;&gt;Int</title>
<path fill="none" stroke="#000000" d="M431.849,-34.189C439.658,-43.4536 449.794,-55.4797 458.581,-65.9056"/>
<polygon fill="#000000" stroke="#000000" points="456.149,-68.45 465.27,-73.8407 461.501,-63.9387 456.149,-68.45"/>
</g>
<!-- NumStr -->
<g id="node20" class="node"><title>NumStr</title>
<g id="a_node20"><a xlink:href="/type/NumStr" xlink:title="NumStr">
<ellipse fill="none" stroke="#000000" cx="873.047" cy="-18" rx="40.8928" ry="18"/>
<text text-anchor="middle" x="873.047" y="-14.3" font-family="FreeSans" font-size="14.00" fill="#000000">NumStr</text>
</a>
</g>
</g>
<!-- NumStr&#45;&gt;Num -->
<g id="edge16" class="edge"><title>NumStr&#45;&gt;Num</title>
<path fill="none" stroke="#000000" d="M841.665,-29.6698C831.619,-33.0854 823.047,-36 823.047,-36 823.047,-36 665.5,-66.9258 591.099,-81.5305"/>
<polygon fill="#000000" stroke="#000000" points="590.316,-78.1173 581.177,-83.4781 591.664,-84.9862 590.316,-78.1173"/>
</g>
<!-- NumStr&#45;&gt;Str -->
<g id="edge17" class="edge"><title>NumStr&#45;&gt;Str</title>
<path fill="none" stroke="#000000" d="M853.301,-34.189C839.755,-44.609 821.668,-58.5222 807.106,-69.7232"/>
<polygon fill="#000000" stroke="#000000" points="804.794,-67.0866 799.001,-75.9579 809.062,-72.635 804.794,-67.0866"/>
</g>
<!-- FatRat -->
<g id="node21" class="node"><title>FatRat</title>
<g id="a_node21"><a xlink:href="/type/FatRat" xlink:title="FatRat">
<ellipse fill="none" stroke="#000000" cx="37.0467" cy="-18" rx="37.0935" ry="18"/>
<text text-anchor="middle" x="37.0467" y="-14.3" font-family="FreeSans" font-size="14.00" fill="#000000">FatRat</text>
</a>
</g>
</g>
<!-- FatRat&#45;&gt;Cool -->
<g id="edge18" class="edge"><title>FatRat&#45;&gt;Cool</title>
<path fill="none" stroke="#000000" d="M42.831,-36.1601C51.5487,-62.0225 67.0467,-108 67.0467,-108 67.0467,-108 386.047,-144 386.047,-144 386.047,-144 389.89,-145.556 395.251,-147.725"/>
<polygon fill="#000000" stroke="#000000" points="394.008,-150.998 404.591,-151.506 396.635,-144.51 394.008,-150.998"/>
</g>
<!-- FatRat&#45;&gt;Rational -->
<g id="edge27" class="edge"><title>FatRat&#45;&gt;Rational</title>
<path fill="none" stroke="#6666ff" d="M54.8395,-34.189C66.0449,-43.7546 80.6987,-56.2639 93.1774,-66.9164"/>
<polygon fill="#6666ff" stroke="#6666ff" points="91.1274,-69.7683 101.005,-73.599 95.6723,-64.4443 91.1274,-69.7683"/>
</g>
<!-- Rat -->
<g id="node22" class="node"><title>Rat</title>
<g id="a_node22"><a xlink:href="/type/Rat" xlink:title="Rat">
<ellipse fill="none" stroke="#000000" cx="119.047" cy="-18" rx="27" ry="18"/>
<text text-anchor="middle" x="119.047" y="-14.3" font-family="FreeSans" font-size="14.00" fill="#000000">Rat</text>
</a>
</g>
</g>
<!-- Rat&#45;&gt;Cool -->
<g id="edge19" class="edge"><title>Rat&#45;&gt;Cool</title>
<path fill="none" stroke="#000000" d="M140.404,-29.0854C148.156,-32.7461 155.047,-36 155.047,-36 155.047,-36 404.047,-72 404.047,-72 404.047,-72 413.71,-107.833 420.773,-134.025"/>
<polygon fill="#000000" stroke="#000000" points="417.436,-135.096 423.419,-143.84 424.195,-133.273 417.436,-135.096"/>
</g>
<!-- Rat&#45;&gt;Rational -->
<g id="edge28" class="edge"><title>Rat&#45;&gt;Rational</title>
<path fill="none" stroke="#6666ff" d="M119.047,-36.3034C119.047,-44.0173 119.047,-53.2875 119.047,-61.8876"/>
<polygon fill="#6666ff" stroke="#6666ff" points="115.547,-61.8956 119.047,-71.8957 122.547,-61.8957 115.547,-61.8956"/>
</g>
</g>
</svg>
