<?xml version="1.0" encoding="UTF-8" standalone="no"?>
<!DOCTYPE svg PUBLIC "-//W3C//DTD SVG 1.1//EN"
 "http://www.w3.org/Graphics/SVG/1.1/DTD/svg11.dtd">
<!-- Generated by graphviz version 2.38.0 (20140413.2041)
 -->
<!-- Title: perl6&#45;type&#45;graph Pages: 1 -->
<svg width="261pt" height="188pt"
 viewBox="0.00 0.00 261.48 188.00" xmlns="http://www.w3.org/2000/svg" xmlns:xlink="http://www.w3.org/1999/xlink">
<g id="graph0" class="graph" transform="scale(1 1) rotate(0) translate(4 184)">
<title>perl6&#45;type&#45;graph</title>
<polygon fill="white" stroke="none" points="-4,4 -4,-184 257.478,-184 257.478,4 -4,4"/>
<!-- Telemetry::Instrument::Usage -->
<g id="node1" class="node"><title>Telemetry::Instrument::Usage</title>
<g id="a_node1"><a xlink:href="/type/Telemetry::Instrument::Usage" xlink:title="Telemetry::Instrument::Usage">
<ellipse fill="none" stroke="#000000" cx="126.739" cy="-18" rx="126.978" ry="18"/>
<text text-anchor="middle" x="126.739" y="-14.3" font-family="FreeSans" font-size="14.00" fill="#000000">Telemetry::Instrument::Usage</text>
</a>
</g>
</g>
<!-- Any -->
<g id="node3" class="node"><title>Any</title>
<g id="a_node3"><a xlink:href="/type/Any" xlink:title="Any">
<ellipse fill="none" stroke="#000000" cx="126.739" cy="-90" rx="27" ry="18"/>
<text text-anchor="middle" x="126.739" y="-86.3" font-family="FreeSans" font-size="14.00" fill="#000000">Any</text>
</a>
</g>
</g>
<!-- Telemetry::Instrument::Usage&#45;&gt;Any -->
<g id="edge1" class="edge"><title>Telemetry::Instrument::Usage&#45;&gt;Any</title>
<path fill="none" stroke="#000000" d="M126.739,-36.3034C126.739,-44.0173 126.739,-53.2875 126.739,-61.8876"/>
<polygon fill="#000000" stroke="#000000" points="123.239,-61.8956 126.739,-71.8957 130.239,-61.8957 123.239,-61.8956"/>
</g>
<!-- Mu -->
<g id="node2" class="node"><title>Mu</title>
<g id="a_node2"><a xlink:href="/type/Mu" xlink:title="Mu">
<ellipse fill="none" stroke="#000000" cx="126.739" cy="-162" rx="27" ry="18"/>
<text text-anchor="middle" x="126.739" y="-158.3" font-family="FreeSans" font-size="14.00" fill="#000000">Mu</text>
</a>
</g>
</g>
<!-- Any&#45;&gt;Mu -->
<g id="edge2" class="edge"><title>Any&#45;&gt;Mu</title>
<path fill="none" stroke="#000000" d="M126.739,-108.303C126.739,-116.017 126.739,-125.288 126.739,-133.888"/>
<polygon fill="#000000" stroke="#000000" points="123.239,-133.896 126.739,-143.896 130.239,-133.896 123.239,-133.896"/>
</g>
</g>
</svg>
