<?xml version="1.0" encoding="UTF-8" standalone="no"?>
<!DOCTYPE svg PUBLIC "-//W3C//DTD SVG 1.1//EN"
 "http://www.w3.org/Graphics/SVG/1.1/DTD/svg11.dtd">
<!-- Generated by graphviz version 2.38.0 (20140413.2041)
 -->
<!-- Title: perl6&#45;type&#45;graph Pages: 1 -->
<svg width="254pt" height="188pt"
 viewBox="0.00 0.00 254.09 188.00" xmlns="http://www.w3.org/2000/svg" xmlns:xlink="http://www.w3.org/1999/xlink">
<g id="graph0" class="graph" transform="scale(1 1) rotate(0) translate(4 184)">
<title>perl6&#45;type&#45;graph</title>
<polygon fill="white" stroke="none" points="-4,4 -4,-184 250.092,-184 250.092,4 -4,4"/>
<!-- Distribution::Path -->
<g id="node1" class="node"><title>Distribution::Path</title>
<g id="a_node1"><a xlink:href="/type/Distribution::Path" xlink:title="Distribution::Path">
<ellipse fill="none" stroke="#000000" cx="93" cy="-18" rx="77.1866" ry="18"/>
<text text-anchor="middle" x="93" y="-14.3" font-family="FreeSans" font-size="14.00" fill="#000000">Distribution::Path</text>
</a>
</g>
</g>
<!-- Any -->
<g id="node3" class="node"><title>Any</title>
<g id="a_node3"><a xlink:href="/type/Any" xlink:title="Any">
<ellipse fill="none" stroke="#000000" cx="27" cy="-90" rx="27" ry="18"/>
<text text-anchor="middle" x="27" y="-86.3" font-family="FreeSans" font-size="14.00" fill="#000000">Any</text>
</a>
</g>
</g>
<!-- Distribution::Path&#45;&gt;Any -->
<g id="edge1" class="edge"><title>Distribution::Path&#45;&gt;Any</title>
<path fill="none" stroke="#000000" d="M77.0232,-35.945C68.3536,-45.1401 57.5254,-56.6246 48.1626,-66.5548"/>
<polygon fill="#000000" stroke="#000000" points="45.3509,-64.435 41.0373,-74.112 50.444,-69.2371 45.3509,-64.435"/>
</g>
<!-- Distribution::Locally -->
<g id="node5" class="node"><title>Distribution::Locally</title>
<g id="a_node5"><a xlink:href="/type/Distribution::Locally" xlink:title="Distribution::Locally">
<ellipse fill="none" stroke="#6666ff" cx="159" cy="-90" rx="87.1846" ry="18"/>
<text text-anchor="middle" x="159" y="-86.3" font-family="FreeSans" font-size="14.00" fill="#6666ff">Distribution::Locally</text>
</a>
</g>
</g>
<!-- Distribution::Path&#45;&gt;Distribution::Locally -->
<g id="edge3" class="edge"><title>Distribution::Path&#45;&gt;Distribution::Locally</title>
<path fill="none" stroke="#6666ff" d="M108.977,-35.945C117.165,-44.6293 127.278,-55.3556 136.264,-64.886"/>
<polygon fill="#6666ff" stroke="#6666ff" points="133.764,-67.3361 143.17,-72.211 138.857,-62.534 133.764,-67.3361"/>
</g>
<!-- Mu -->
<g id="node2" class="node"><title>Mu</title>
<g id="a_node2"><a xlink:href="/type/Mu" xlink:title="Mu">
<ellipse fill="none" stroke="#000000" cx="27" cy="-162" rx="27" ry="18"/>
<text text-anchor="middle" x="27" y="-158.3" font-family="FreeSans" font-size="14.00" fill="#000000">Mu</text>
</a>
</g>
</g>
<!-- Any&#45;&gt;Mu -->
<g id="edge2" class="edge"><title>Any&#45;&gt;Mu</title>
<path fill="none" stroke="#000000" d="M27,-108.303C27,-116.017 27,-125.288 27,-133.888"/>
<polygon fill="#000000" stroke="#000000" points="23.5001,-133.896 27,-143.896 30.5001,-133.896 23.5001,-133.896"/>
</g>
<!-- Distribution -->
<g id="node4" class="node"><title>Distribution</title>
<g id="a_node4"><a xlink:href="/type/Distribution" xlink:title="Distribution">
<ellipse fill="none" stroke="#6666ff" cx="159" cy="-162" rx="54.6905" ry="18"/>
<text text-anchor="middle" x="159" y="-158.3" font-family="FreeSans" font-size="14.00" fill="#6666ff">Distribution</text>
</a>
</g>
</g>
<!-- Distribution::Locally&#45;&gt;Distribution -->
<g id="edge4" class="edge"><title>Distribution::Locally&#45;&gt;Distribution</title>
<path fill="none" stroke="#6666ff" d="M159,-108.303C159,-116.017 159,-125.288 159,-133.888"/>
<polygon fill="#6666ff" stroke="#6666ff" points="155.5,-133.896 159,-143.896 162.5,-133.896 155.5,-133.896"/>
</g>
</g>
</svg>
