<?xml version="1.0" encoding="UTF-8" standalone="no"?>
<!DOCTYPE svg PUBLIC "-//W3C//DTD SVG 1.1//EN"
 "http://www.w3.org/Graphics/SVG/1.1/DTD/svg11.dtd">
<!-- Generated by graphviz version 2.38.0 (20140413.2041)
 -->
<!-- Title: perl6&#45;type&#45;graph Pages: 1 -->
<svg width="949pt" height="404pt"
 viewBox="0.00 0.00 948.54 404.00" xmlns="http://www.w3.org/2000/svg" xmlns:xlink="http://www.w3.org/1999/xlink">
<g id="graph0" class="graph" transform="scale(1 1) rotate(0) translate(4 400)">
<title>perl6&#45;type&#45;graph</title>
<polygon fill="white" stroke="none" points="-4,4 -4,-400 944.545,-400 944.545,4 -4,4"/>
<!-- Stringy -->
<g id="node1" class="node"><title>Stringy</title>
<g id="a_node1"><a xlink:href="/type/Stringy" xlink:title="Stringy">
<ellipse fill="none" stroke="#6666ff" cx="230" cy="-306" rx="38.1938" ry="18"/>
<text text-anchor="middle" x="230" y="-302.3" font-family="FreeSans" font-size="14.00" fill="#6666ff">Stringy</text>
</a>
</g>
</g>
<!-- Positional -->
<g id="node2" class="node"><title>Positional</title>
<g id="a_node2"><a xlink:href="/type/Positional" xlink:title="Positional">
<ellipse fill="none" stroke="#6666ff" cx="112" cy="-306" rx="48.9926" ry="18"/>
<text text-anchor="middle" x="112" y="-302.3" font-family="FreeSans" font-size="14.00" fill="#6666ff">Positional</text>
</a>
</g>
</g>
<!-- Blob -->
<g id="node3" class="node"><title>Blob</title>
<g id="a_node3"><a xlink:href="/type/Blob" xlink:title="Blob">
<ellipse fill="none" stroke="#6666ff" cx="105" cy="-234" rx="28.6953" ry="18"/>
<text text-anchor="middle" x="105" y="-230.3" font-family="FreeSans" font-size="14.00" fill="#6666ff">Blob</text>
</a>
</g>
</g>
<!-- Blob&#45;&gt;Stringy -->
<g id="edge23" class="edge"><title>Blob&#45;&gt;Stringy</title>
<path fill="none" stroke="#6666ff" d="M125.641,-246.559C145.144,-257.481 174.71,-274.038 197.399,-286.744"/>
<polygon fill="#6666ff" stroke="#6666ff" points="195.906,-289.919 206.342,-291.751 199.327,-283.811 195.906,-289.919"/>
</g>
<!-- Blob&#45;&gt;Positional -->
<g id="edge22" class="edge"><title>Blob&#45;&gt;Positional</title>
<path fill="none" stroke="#6666ff" d="M106.73,-252.303C107.502,-260.017 108.429,-269.288 109.289,-277.888"/>
<polygon fill="#6666ff" stroke="#6666ff" points="105.812,-278.294 110.29,-287.896 112.777,-277.597 105.812,-278.294"/>
</g>
<!-- Mu -->
<g id="node4" class="node"><title>Mu</title>
<g id="a_node4"><a xlink:href="/type/Mu" xlink:title="Mu">
<ellipse fill="none" stroke="#000000" cx="313" cy="-378" rx="27" ry="18"/>
<text text-anchor="middle" x="313" y="-374.3" font-family="FreeSans" font-size="14.00" fill="#000000">Mu</text>
</a>
</g>
</g>
<!-- Any -->
<g id="node5" class="node"><title>Any</title>
<g id="a_node5"><a xlink:href="/type/Any" xlink:title="Any">
<ellipse fill="none" stroke="#000000" cx="313" cy="-306" rx="27" ry="18"/>
<text text-anchor="middle" x="313" y="-302.3" font-family="FreeSans" font-size="14.00" fill="#000000">Any</text>
</a>
</g>
</g>
<!-- Any&#45;&gt;Mu -->
<g id="edge1" class="edge"><title>Any&#45;&gt;Mu</title>
<path fill="none" stroke="#000000" d="M313,-324.303C313,-332.017 313,-341.288 313,-349.888"/>
<polygon fill="#000000" stroke="#000000" points="309.5,-349.896 313,-359.896 316.5,-349.896 309.5,-349.896"/>
</g>
<!-- Cool -->
<g id="node6" class="node"><title>Cool</title>
<g id="a_node6"><a xlink:href="/type/Cool" xlink:title="Cool">
<ellipse fill="none" stroke="#000000" cx="723" cy="-234" rx="28.6953" ry="18"/>
<text text-anchor="middle" x="723" y="-230.3" font-family="FreeSans" font-size="14.00" fill="#000000">Cool</text>
</a>
</g>
</g>
<!-- Cool&#45;&gt;Any -->
<g id="edge2" class="edge"><title>Cool&#45;&gt;Any</title>
<path fill="none" stroke="#000000" d="M700.623,-245.281C692.831,-248.861 686,-252 686,-252 686,-252 443.206,-286.499 349.389,-299.829"/>
<polygon fill="#000000" stroke="#000000" points="348.637,-296.401 339.229,-301.273 349.622,-303.331 348.637,-296.401"/>
</g>
<!-- Str -->
<g id="node7" class="node"><title>Str</title>
<g id="a_node7"><a xlink:href="/type/Str" xlink:title="Str">
<ellipse fill="none" stroke="#000000" cx="795" cy="-162" rx="27" ry="18"/>
<text text-anchor="middle" x="795" y="-158.3" font-family="FreeSans" font-size="14.00" fill="#000000">Str</text>
</a>
</g>
</g>
<!-- Str&#45;&gt;Stringy -->
<g id="edge24" class="edge"><title>Str&#45;&gt;Stringy</title>
<path fill="none" stroke="#6666ff" d="M788.605,-179.74C778.756,-205.521 761,-252 761,-252 761,-252 277,-288 277,-288 277,-288 273.852,-289.139 269.186,-290.826"/>
<polygon fill="#6666ff" stroke="#6666ff" points="267.712,-287.637 259.499,-294.33 270.093,-294.22 267.712,-287.637"/>
</g>
<!-- Str&#45;&gt;Cool -->
<g id="edge3" class="edge"><title>Str&#45;&gt;Cool</title>
<path fill="none" stroke="#000000" d="M780.43,-177.166C770.414,-186.903 756.918,-200.024 745.526,-211.099"/>
<polygon fill="#000000" stroke="#000000" points="742.774,-208.893 738.044,-218.374 747.654,-213.912 742.774,-208.893"/>
</g>
<!-- Uni -->
<g id="node8" class="node"><title>Uni</title>
<g id="a_node8"><a xlink:href="/type/Uni" xlink:title="Uni">
<ellipse fill="none" stroke="#000000" cx="256" cy="-234" rx="27" ry="18"/>
<text text-anchor="middle" x="256" y="-230.3" font-family="FreeSans" font-size="14.00" fill="#000000">Uni</text>
</a>
</g>
</g>
<!-- Uni&#45;&gt;Stringy -->
<g id="edge26" class="edge"><title>Uni&#45;&gt;Stringy</title>
<path fill="none" stroke="#6666ff" d="M249.838,-251.589C246.839,-259.665 243.16,-269.569 239.789,-278.645"/>
<polygon fill="#6666ff" stroke="#6666ff" points="236.499,-277.451 236.298,-288.044 243.061,-279.888 236.499,-277.451"/>
</g>
<!-- Uni&#45;&gt;Positional -->
<g id="edge25" class="edge"><title>Uni&#45;&gt;Positional</title>
<path fill="none" stroke="#6666ff" d="M234.752,-245.329C212.358,-256.215 176.635,-273.58 149.487,-286.777"/>
<polygon fill="#6666ff" stroke="#6666ff" points="147.741,-283.734 140.278,-291.254 150.802,-290.03 147.741,-283.734"/>
</g>
<!-- Uni&#45;&gt;Any -->
<g id="edge4" class="edge"><title>Uni&#45;&gt;Any</title>
<path fill="none" stroke="#000000" d="M268.368,-250.189C275.912,-259.454 285.705,-271.48 294.195,-281.906"/>
<polygon fill="#000000" stroke="#000000" points="291.628,-284.296 300.656,-289.841 297.056,-279.876 291.628,-284.296"/>
</g>
<!-- Numeric -->
<g id="node9" class="node"><title>Numeric</title>
<g id="a_node9"><a xlink:href="/type/Numeric" xlink:title="Numeric">
<ellipse fill="none" stroke="#6666ff" cx="733" cy="-306" rx="44.393" ry="18"/>
<text text-anchor="middle" x="733" y="-302.3" font-family="FreeSans" font-size="14.00" fill="#6666ff">Numeric</text>
</a>
</g>
</g>
<!-- Real -->
<g id="node10" class="node"><title>Real</title>
<g id="a_node10"><a xlink:href="/type/Real" xlink:title="Real">
<ellipse fill="none" stroke="#6666ff" cx="648" cy="-234" rx="28.6953" ry="18"/>
<text text-anchor="middle" x="648" y="-230.3" font-family="FreeSans" font-size="14.00" fill="#6666ff">Real</text>
</a>
</g>
</g>
<!-- Real&#45;&gt;Numeric -->
<g id="edge27" class="edge"><title>Real&#45;&gt;Numeric</title>
<path fill="none" stroke="#6666ff" d="M664.793,-248.83C676.573,-258.531 692.573,-271.707 706.115,-282.86"/>
<polygon fill="#6666ff" stroke="#6666ff" points="704.226,-285.838 714.17,-289.493 708.676,-280.434 704.226,-285.838"/>
</g>
<!-- Rational -->
<g id="node11" class="node"><title>Rational</title>
<g id="a_node11"><a xlink:href="/type/Rational" xlink:title="Rational">
<ellipse fill="none" stroke="#6666ff" cx="519" cy="-162" rx="42.7926" ry="18"/>
<text text-anchor="middle" x="519" y="-158.3" font-family="FreeSans" font-size="14.00" fill="#6666ff">Rational</text>
</a>
</g>
</g>
<!-- Rational&#45;&gt;Real -->
<g id="edge28" class="edge"><title>Rational&#45;&gt;Real</title>
<path fill="none" stroke="#6666ff" d="M544.179,-176.663C565.351,-188.152 595.663,-204.6 618.072,-216.76"/>
<polygon fill="#6666ff" stroke="#6666ff" points="616.684,-219.989 627.143,-221.682 620.023,-213.836 616.684,-219.989"/>
</g>
<!-- Rat -->
<g id="node12" class="node"><title>Rat</title>
<g id="a_node12"><a xlink:href="/type/Rat" xlink:title="Rat">
<ellipse fill="none" stroke="#000000" cx="562" cy="-90" rx="27" ry="18"/>
<text text-anchor="middle" x="562" y="-86.3" font-family="FreeSans" font-size="14.00" fill="#000000">Rat</text>
</a>
</g>
</g>
<!-- Rat&#45;&gt;Cool -->
<g id="edge5" class="edge"><title>Rat&#45;&gt;Cool</title>
<path fill="none" stroke="#000000" d="M570.621,-107.324C584.189,-133.018 609,-180 609,-180 609,-180 657.521,-202.558 691.253,-218.24"/>
<polygon fill="#000000" stroke="#000000" points="690.206,-221.613 700.749,-222.655 693.157,-215.266 690.206,-221.613"/>
</g>
<!-- Rat&#45;&gt;Rational -->
<g id="edge29" class="edge"><title>Rat&#45;&gt;Rational</title>
<path fill="none" stroke="#6666ff" d="M552.243,-106.884C547.06,-115.321 540.564,-125.896 534.693,-135.453"/>
<polygon fill="#6666ff" stroke="#6666ff" points="531.57,-133.85 529.318,-144.203 537.535,-137.514 531.57,-133.85"/>
</g>
<!-- RatStr -->
<g id="node13" class="node"><title>RatStr</title>
<g id="a_node13"><a xlink:href="/type/RatStr" xlink:title="RatStr">
<ellipse fill="none" stroke="#000000" cx="680" cy="-18" rx="35.9954" ry="18"/>
<text text-anchor="middle" x="680" y="-14.3" font-family="FreeSans" font-size="14.00" fill="#000000">RatStr</text>
</a>
</g>
</g>
<!-- RatStr&#45;&gt;Str -->
<g id="edge7" class="edge"><title>RatStr&#45;&gt;Str</title>
<path fill="none" stroke="#000000" d="M703.699,-31.5603C733.27,-47.2331 780,-72 780,-72 780,-72 785.986,-107.517 790.395,-133.677"/>
<polygon fill="#000000" stroke="#000000" points="786.994,-134.561 792.108,-143.84 793.897,-133.397 786.994,-134.561"/>
</g>
<!-- RatStr&#45;&gt;Rat -->
<g id="edge6" class="edge"><title>RatStr&#45;&gt;Rat</title>
<path fill="none" stroke="#000000" d="M657.805,-32.1665C638.73,-43.4821 611.11,-59.8672 590.421,-72.14"/>
<polygon fill="#000000" stroke="#000000" points="588.557,-69.1762 581.742,-77.2885 592.129,-75.1966 588.557,-69.1762"/>
</g>
<!-- Num -->
<g id="node14" class="node"><title>Num</title>
<g id="a_node14"><a xlink:href="/type/Num" xlink:title="Num">
<ellipse fill="none" stroke="#000000" cx="648" cy="-162" rx="29.795" ry="18"/>
<text text-anchor="middle" x="648" y="-158.3" font-family="FreeSans" font-size="14.00" fill="#000000">Num</text>
</a>
</g>
</g>
<!-- Num&#45;&gt;Cool -->
<g id="edge8" class="edge"><title>Num&#45;&gt;Cool</title>
<path fill="none" stroke="#000000" d="M663.54,-177.504C674.169,-187.425 688.433,-200.738 700.326,-211.837"/>
<polygon fill="#000000" stroke="#000000" points="698.038,-214.49 707.736,-218.754 702.814,-209.372 698.038,-214.49"/>
</g>
<!-- Num&#45;&gt;Real -->
<g id="edge30" class="edge"><title>Num&#45;&gt;Real</title>
<path fill="none" stroke="#6666ff" d="M648,-180.303C648,-188.017 648,-197.288 648,-205.888"/>
<polygon fill="#6666ff" stroke="#6666ff" points="644.5,-205.896 648,-215.896 651.5,-205.896 644.5,-205.896"/>
</g>
<!-- NumStr -->
<g id="node15" class="node"><title>NumStr</title>
<g id="a_node15"><a xlink:href="/type/NumStr" xlink:title="NumStr">
<ellipse fill="none" stroke="#000000" cx="648" cy="-90" rx="40.8928" ry="18"/>
<text text-anchor="middle" x="648" y="-86.3" font-family="FreeSans" font-size="14.00" fill="#000000">NumStr</text>
</a>
</g>
</g>
<!-- NumStr&#45;&gt;Str -->
<g id="edge10" class="edge"><title>NumStr&#45;&gt;Str</title>
<path fill="none" stroke="#000000" d="M674.962,-103.839C700.209,-115.861 737.9,-133.809 764.294,-146.378"/>
<polygon fill="#000000" stroke="#000000" points="762.929,-149.605 773.463,-150.744 765.939,-143.285 762.929,-149.605"/>
</g>
<!-- NumStr&#45;&gt;Num -->
<g id="edge9" class="edge"><title>NumStr&#45;&gt;Num</title>
<path fill="none" stroke="#000000" d="M648,-108.303C648,-116.017 648,-125.288 648,-133.888"/>
<polygon fill="#000000" stroke="#000000" points="644.5,-133.896 648,-143.896 651.5,-133.896 644.5,-133.896"/>
</g>
<!-- Int -->
<g id="node16" class="node"><title>Int</title>
<g id="a_node16"><a xlink:href="/type/Int" xlink:title="Int">
<ellipse fill="none" stroke="#000000" cx="723" cy="-162" rx="27" ry="18"/>
<text text-anchor="middle" x="723" y="-158.3" font-family="FreeSans" font-size="14.00" fill="#000000">Int</text>
</a>
</g>
</g>
<!-- Int&#45;&gt;Cool -->
<g id="edge11" class="edge"><title>Int&#45;&gt;Cool</title>
<path fill="none" stroke="#000000" d="M723,-180.303C723,-188.017 723,-197.288 723,-205.888"/>
<polygon fill="#000000" stroke="#000000" points="719.5,-205.896 723,-215.896 726.5,-205.896 719.5,-205.896"/>
</g>
<!-- Int&#45;&gt;Real -->
<g id="edge31" class="edge"><title>Int&#45;&gt;Real</title>
<path fill="none" stroke="#6666ff" d="M707.823,-177.166C697.219,-187.062 682.871,-200.454 670.885,-211.641"/>
<polygon fill="#6666ff" stroke="#6666ff" points="668.335,-209.233 663.412,-218.615 673.111,-214.351 668.335,-209.233"/>
</g>
<!-- IntStr -->
<g id="node17" class="node"><title>IntStr</title>
<g id="a_node17"><a xlink:href="/type/IntStr" xlink:title="IntStr">
<ellipse fill="none" stroke="#000000" cx="739" cy="-90" rx="31.6951" ry="18"/>
<text text-anchor="middle" x="739" y="-86.3" font-family="FreeSans" font-size="14.00" fill="#000000">IntStr</text>
</a>
</g>
</g>
<!-- IntStr&#45;&gt;Str -->
<g id="edge13" class="edge"><title>IntStr&#45;&gt;Str</title>
<path fill="none" stroke="#000000" d="M751.707,-106.884C758.968,-115.96 768.208,-127.51 776.285,-137.607"/>
<polygon fill="#000000" stroke="#000000" points="773.748,-140.038 782.728,-145.66 779.214,-135.665 773.748,-140.038"/>
</g>
<!-- IntStr&#45;&gt;Int -->
<g id="edge12" class="edge"><title>IntStr&#45;&gt;Int</title>
<path fill="none" stroke="#000000" d="M735.127,-107.945C733.345,-115.739 731.188,-125.178 729.189,-133.921"/>
<polygon fill="#000000" stroke="#000000" points="725.765,-133.196 726.949,-143.725 732.589,-134.756 725.765,-133.196"/>
</g>
<!-- Complex -->
<g id="node18" class="node"><title>Complex</title>
<g id="a_node18"><a xlink:href="/type/Complex" xlink:title="Complex">
<ellipse fill="none" stroke="#000000" cx="885" cy="-162" rx="45.4919" ry="18"/>
<text text-anchor="middle" x="885" y="-158.3" font-family="FreeSans" font-size="14.00" fill="#000000">Complex</text>
</a>
</g>
</g>
<!-- Complex&#45;&gt;Cool -->
<g id="edge14" class="edge"><title>Complex&#45;&gt;Cool</title>
<path fill="none" stroke="#000000" d="M855.287,-175.839C827.056,-188.038 784.705,-206.337 755.568,-218.928"/>
<polygon fill="#000000" stroke="#000000" points="754.024,-215.782 746.232,-222.961 756.8,-222.208 754.024,-215.782"/>
</g>
<!-- Complex&#45;&gt;Numeric -->
<g id="edge32" class="edge"><title>Complex&#45;&gt;Numeric</title>
<path fill="none" stroke="#6666ff" d="M869.593,-179.324C845.343,-205.018 801,-252 801,-252 801,-252 779.565,-268.707 760.764,-283.36"/>
<polygon fill="#6666ff" stroke="#6666ff" points="758.404,-280.762 752.668,-289.67 762.707,-286.283 758.404,-280.762"/>
</g>
<!-- ComplexStr -->
<g id="node19" class="node"><title>ComplexStr</title>
<g id="a_node19"><a xlink:href="/type/ComplexStr" xlink:title="ComplexStr">
<ellipse fill="none" stroke="#000000" cx="884" cy="-90" rx="56.59" ry="18"/>
<text text-anchor="middle" x="884" y="-86.3" font-family="FreeSans" font-size="14.00" fill="#000000">ComplexStr</text>
</a>
</g>
</g>
<!-- ComplexStr&#45;&gt;Str -->
<g id="edge16" class="edge"><title>ComplexStr&#45;&gt;Str</title>
<path fill="none" stroke="#000000" d="M863.805,-106.884C850.808,-117.106 833.822,-130.466 819.979,-141.353"/>
<polygon fill="#000000" stroke="#000000" points="817.527,-138.83 811.83,-147.763 821.854,-144.332 817.527,-138.83"/>
</g>
<!-- ComplexStr&#45;&gt;Complex -->
<g id="edge15" class="edge"><title>ComplexStr&#45;&gt;Complex</title>
<path fill="none" stroke="#000000" d="M884.247,-108.303C884.357,-116.017 884.49,-125.288 884.613,-133.888"/>
<polygon fill="#000000" stroke="#000000" points="881.113,-133.947 884.756,-143.896 888.112,-133.847 881.113,-133.947"/>
</g>
<!-- NFC -->
<g id="node20" class="node"><title>NFC</title>
<g id="a_node20"><a xlink:href="/type/NFC" xlink:title="NFC">
<ellipse fill="none" stroke="#000000" cx="173" cy="-162" rx="29.4969" ry="18"/>
<text text-anchor="middle" x="173" y="-158.3" font-family="FreeSans" font-size="14.00" fill="#000000">NFC</text>
</a>
</g>
</g>
<!-- NFC&#45;&gt;Uni -->
<g id="edge17" class="edge"><title>NFC&#45;&gt;Uni</title>
<path fill="none" stroke="#000000" d="M189.796,-177.166C201.878,-187.355 218.352,-201.249 231.844,-212.628"/>
<polygon fill="#000000" stroke="#000000" points="229.893,-215.56 239.794,-219.332 234.406,-210.209 229.893,-215.56"/>
</g>
<!-- NFKC -->
<g id="node21" class="node"><title>NFKC</title>
<g id="a_node21"><a xlink:href="/type/NFKC" xlink:title="NFKC">
<ellipse fill="none" stroke="#000000" cx="256" cy="-162" rx="35.9954" ry="18"/>
<text text-anchor="middle" x="256" y="-158.3" font-family="FreeSans" font-size="14.00" fill="#000000">NFKC</text>
</a>
</g>
</g>
<!-- NFKC&#45;&gt;Uni -->
<g id="edge18" class="edge"><title>NFKC&#45;&gt;Uni</title>
<path fill="none" stroke="#000000" d="M256,-180.303C256,-188.017 256,-197.288 256,-205.888"/>
<polygon fill="#000000" stroke="#000000" points="252.5,-205.896 256,-215.896 259.5,-205.896 252.5,-205.896"/>
</g>
<!-- NFD -->
<g id="node22" class="node"><title>NFD</title>
<g id="a_node22"><a xlink:href="/type/NFD" xlink:title="NFD">
<ellipse fill="none" stroke="#000000" cx="339" cy="-162" rx="29.4969" ry="18"/>
<text text-anchor="middle" x="339" y="-158.3" font-family="FreeSans" font-size="14.00" fill="#000000">NFD</text>
</a>
</g>
</g>
<!-- NFD&#45;&gt;Uni -->
<g id="edge19" class="edge"><title>NFD&#45;&gt;Uni</title>
<path fill="none" stroke="#000000" d="M322.204,-177.166C310.122,-187.355 293.648,-201.249 280.156,-212.628"/>
<polygon fill="#000000" stroke="#000000" points="277.594,-210.209 272.206,-219.332 282.107,-215.56 277.594,-210.209"/>
</g>
<!-- NFKD -->
<g id="node23" class="node"><title>NFKD</title>
<g id="a_node23"><a xlink:href="/type/NFKD" xlink:title="NFKD">
<ellipse fill="none" stroke="#000000" cx="422" cy="-162" rx="35.9954" ry="18"/>
<text text-anchor="middle" x="422" y="-158.3" font-family="FreeSans" font-size="14.00" fill="#000000">NFKD</text>
</a>
</g>
</g>
<!-- NFKD&#45;&gt;Uni -->
<g id="edge20" class="edge"><title>NFKD&#45;&gt;Uni</title>
<path fill="none" stroke="#000000" d="M395.329,-174.247C366.054,-186.592 319.076,-206.402 287.879,-219.557"/>
<polygon fill="#000000" stroke="#000000" points="286.201,-216.466 278.347,-223.577 288.921,-222.916 286.201,-216.466"/>
</g>
<!-- utf8 -->
<g id="node24" class="node"><title>utf8</title>
<g id="a_node24"><a xlink:href="/type/utf8" xlink:title="utf8">
<ellipse fill="none" stroke="#000000" cx="99" cy="-162" rx="27" ry="18"/>
<text text-anchor="middle" x="99" y="-158.3" font-family="FreeSans" font-size="14.00" fill="#000000">utf8</text>
</a>
</g>
</g>
<!-- utf8&#45;&gt;Blob -->
<g id="edge33" class="edge"><title>utf8&#45;&gt;Blob</title>
<path fill="none" stroke="#6666ff" d="M100.483,-180.303C101.144,-188.017 101.939,-197.288 102.676,-205.888"/>
<polygon fill="#6666ff" stroke="#6666ff" points="99.1926,-206.231 103.534,-215.896 106.167,-205.633 99.1926,-206.231"/>
</g>
<!-- utf8&#45;&gt;Any -->
<g id="edge21" class="edge"><title>utf8&#45;&gt;Any</title>
<path fill="none" stroke="#000000" d="M116.594,-175.941C150.153,-200.625 220,-252 220,-252 220,-252 256.702,-272.916 283.993,-288.469"/>
<polygon fill="#000000" stroke="#000000" points="282.399,-291.589 292.82,-293.5 285.865,-285.508 282.399,-291.589"/>
</g>
<!-- Buf -->
<g id="node25" class="node"><title>Buf</title>
<g id="a_node25"><a xlink:href="/type/Buf" xlink:title="Buf">
<ellipse fill="none" stroke="#6666ff" cx="27" cy="-162" rx="27" ry="18"/>
<text text-anchor="middle" x="27" y="-158.3" font-family="FreeSans" font-size="14.00" fill="#6666ff">Buf</text>
</a>
</g>
</g>
<!-- Buf&#45;&gt;Blob -->
<g id="edge34" class="edge"><title>Buf&#45;&gt;Blob</title>
<path fill="none" stroke="#6666ff" d="M42.4103,-176.83C53.5874,-186.86 68.9051,-200.607 81.5894,-211.99"/>
<polygon fill="#6666ff" stroke="#6666ff" points="79.3061,-214.644 89.0862,-218.718 83.9815,-209.434 79.3061,-214.644"/>
</g>
</g>
</svg>
