<?xml version="1.0" encoding="UTF-8" standalone="no"?>
<!DOCTYPE svg PUBLIC "-//W3C//DTD SVG 1.1//EN"
 "http://www.w3.org/Graphics/SVG/1.1/DTD/svg11.dtd">
<!-- Generated by graphviz version 2.38.0 (20140413.2041)
 -->
<!-- Title: perl6&#45;type&#45;graph Pages: 1 -->
<svg width="2158pt" height="928pt"
 viewBox="0.00 0.00 2158.40 927.96" xmlns="http://www.w3.org/2000/svg" xmlns:xlink="http://www.w3.org/1999/xlink">
<g id="graph0" class="graph" transform="scale(1 1) rotate(0) translate(1104.27 481.201)">
<title>perl6&#45;type&#45;graph</title>
<polygon fill="white" stroke="none" points="-1104.27,446.763 -1104.27,-481.201 1054.13,-481.201 1054.13,446.763 -1104.27,446.763"/>
<!-- Metamodel::TypePretense -->
<g id="node1" class="node"><title>Metamodel::TypePretense</title>
<g id="a_node1"><a xlink:href="/type/Metamodel::TypePretense" xlink:title="Metamodel::TypePretense">
<ellipse fill="none" stroke="#6666ff" cx="-339.684" cy="-164.875" rx="114.28" ry="18"/>
<text text-anchor="middle" x="-339.684" y="-161.175" font-family="FreeSans" font-size="14.00" fill="#6666ff">Metamodel::TypePretense</text>
</a>
</g>
</g>
<!-- Mu -->
<g id="node2" class="node"><title>Mu</title>
<g id="a_node2"><a xlink:href="/type/Mu" xlink:title="Mu">
<ellipse fill="none" stroke="#000000" cx="138.039" cy="-459.201" rx="27" ry="18"/>
<text text-anchor="middle" x="138.039" y="-455.501" font-family="FreeSans" font-size="14.00" fill="#000000">Mu</text>
</a>
</g>
</g>
<!-- Any -->
<g id="node3" class="node"><title>Any</title>
<g id="a_node3"><a xlink:href="/type/Any" xlink:title="Any">
<ellipse fill="none" stroke="#000000" cx="-50.4267" cy="-152.578" rx="27" ry="18"/>
<text text-anchor="middle" x="-50.4267" y="-148.878" font-family="FreeSans" font-size="14.00" fill="#000000">Any</text>
</a>
</g>
</g>
<!-- Any&#45;&gt;Mu -->
<g id="edge1" class="edge"><title>Any&#45;&gt;Mu</title>
<path fill="none" stroke="#000000" d="M-40.0255,-169.501C-8.68395,-220.491 84.9832,-372.882 122.373,-433.713"/>
<polygon fill="#000000" stroke="#000000" points="119.452,-435.644 127.67,-442.331 125.415,-431.979 119.452,-435.644"/>
</g>
<!-- Metamodel::Naming -->
<g id="node4" class="node"><title>Metamodel::Naming</title>
<g id="a_node4"><a xlink:href="/type/Metamodel::Naming" xlink:title="Metamodel::Naming">
<ellipse fill="none" stroke="#6666ff" cx="104.373" cy="111.216" rx="90.1842" ry="18"/>
<text text-anchor="middle" x="104.373" y="114.916" font-family="FreeSans" font-size="14.00" fill="#6666ff">Metamodel::Naming</text>
</a>
</g>
</g>
<!-- Metamodel::Documenting -->
<g id="node5" class="node"><title>Metamodel::Documenting</title>
<g id="a_node5"><a xlink:href="/type/Metamodel::Documenting" xlink:title="Metamodel::Documenting">
<ellipse fill="none" stroke="#6666ff" cx="-274.676" cy="424.763" rx="111.28" ry="18"/>
<text text-anchor="middle" x="-274.676" y="428.463" font-family="FreeSans" font-size="14.00" fill="#6666ff">Metamodel::Documenting</text>
</a>
</g>
</g>
<!-- Metamodel::Stashing -->
<g id="node6" class="node"><title>Metamodel::Stashing</title>
<g id="a_node6"><a xlink:href="/type/Metamodel::Stashing" xlink:title="Metamodel::Stashing">
<ellipse fill="none" stroke="#6666ff" cx="-252.302" cy="122.494" rx="93.6835" ry="18"/>
<text text-anchor="middle" x="-252.302" y="126.194" font-family="FreeSans" font-size="14.00" fill="#6666ff">Metamodel::Stashing</text>
</a>
</g>
</g>
<!-- Metamodel::MethodDelegation -->
<g id="node7" class="node"><title>Metamodel::MethodDelegation</title>
<g id="a_node7"><a xlink:href="/type/Metamodel::MethodDelegation" xlink:title="Metamodel::MethodDelegation">
<ellipse fill="none" stroke="#6666ff" cx="-968.209" cy="286.121" rx="131.077" ry="18"/>
<text text-anchor="middle" x="-968.209" y="289.821" font-family="FreeSans" font-size="14.00" fill="#6666ff">Metamodel::MethodDelegation</text>
</a>
</g>
</g>
<!-- Metamodel::PackageHOW -->
<g id="node8" class="node"><title>Metamodel::PackageHOW</title>
<g id="a_node8"><a xlink:href="/type/Metamodel::PackageHOW" xlink:title="Metamodel::PackageHOW">
<ellipse fill="none" stroke="#000000" cx="-641.533" cy="-9.8827" rx="116.18" ry="18"/>
<text text-anchor="middle" x="-641.533" y="-6.1827" font-family="FreeSans" font-size="14.00" fill="#000000">Metamodel::PackageHOW</text>
</a>
</g>
</g>
<!-- Metamodel::PackageHOW&#45;&gt;Metamodel::TypePretense -->
<g id="edge10" class="edge"><title>Metamodel::PackageHOW&#45;&gt;Metamodel::TypePretense</title>
<path fill="none" stroke="#6666ff" d="M-607.786,-27.2112C-552.473,-55.6127 -442.636,-112.012 -382.128,-143.081"/>
<polygon fill="#6666ff" stroke="#6666ff" points="-383.709,-146.204 -373.214,-147.658 -380.511,-139.977 -383.709,-146.204"/>
</g>
<!-- Metamodel::PackageHOW&#45;&gt;Any -->
<g id="edge2" class="edge"><title>Metamodel::PackageHOW&#45;&gt;Any</title>
<path fill="none" stroke="#000000" d="M-578.554,-25.086C-454.705,-54.9839 -183.07,-120.558 -85.8817,-144.019"/>
<polygon fill="#000000" stroke="#000000" points="-86.5104,-147.468 -75.9682,-146.413 -84.8677,-140.664 -86.5104,-147.468"/>
</g>
<!-- Metamodel::PackageHOW&#45;&gt;Metamodel::Naming -->
<g id="edge7" class="edge"><title>Metamodel::PackageHOW&#45;&gt;Metamodel::Naming</title>
<path fill="none" stroke="#6666ff" d="M-560.999,3.19199C-417.434,26.4999 -118.945,74.9597 24.2927,98.2145"/>
<polygon fill="#6666ff" stroke="#6666ff" points="25.0235,94.7872 34.3333,99.8446 23.9016,101.697 25.0235,94.7872"/>
</g>
<!-- Metamodel::PackageHOW&#45;&gt;Metamodel::Documenting -->
<g id="edge8" class="edge"><title>Metamodel::PackageHOW&#45;&gt;Metamodel::Documenting</title>
<path fill="none" stroke="#6666ff" d="M-626.468,7.96624C-569.112,75.9199 -364.223,318.67 -296.546,398.852"/>
<polygon fill="#6666ff" stroke="#6666ff" points="-293.846,396.625 -290.071,406.524 -299.195,401.14 -293.846,396.625"/>
</g>
<!-- Metamodel::PackageHOW&#45;&gt;Metamodel::Stashing -->
<g id="edge9" class="edge"><title>Metamodel::PackageHOW&#45;&gt;Metamodel::Stashing</title>
<path fill="none" stroke="#6666ff" d="M-593.024,6.61524C-520.667,31.2238 -384.81,77.4283 -308.322,103.442"/>
<polygon fill="#6666ff" stroke="#6666ff" points="-306.73,100.286 -298.389,106.82 -308.984,106.914 -306.73,100.286"/>
</g>
<!-- Metamodel::PackageHOW&#45;&gt;Metamodel::MethodDelegation -->
<g id="edge11" class="edge"><title>Metamodel::PackageHOW&#45;&gt;Metamodel::MethodDelegation</title>
<path fill="none" stroke="#6666ff" d="M-661.476,8.18809C-717.537,58.9854 -876.607,203.121 -940.823,261.307"/>
<polygon fill="#6666ff" stroke="#6666ff" points="-938.766,264.166 -948.526,268.287 -943.466,258.979 -938.766,264.166"/>
</g>
<!-- Metamodel::Versioning -->
<g id="node9" class="node"><title>Metamodel::Versioning</title>
<g id="a_node9"><a xlink:href="/type/Metamodel::Versioning" xlink:title="Metamodel::Versioning">
<ellipse fill="none" stroke="#6666ff" cx="-12.3714" cy="406.336" rx="100.983" ry="18"/>
<text text-anchor="middle" x="-12.3714" y="410.036" font-family="FreeSans" font-size="14.00" fill="#6666ff">Metamodel::Versioning</text>
</a>
</g>
</g>
<!-- Metamodel::MethodContainer -->
<g id="node10" class="node"><title>Metamodel::MethodContainer</title>
<g id="a_node10"><a xlink:href="/type/Metamodel::MethodContainer" xlink:title="Metamodel::MethodContainer">
<ellipse fill="none" stroke="#6666ff" cx="922.745" cy="368.604" rx="127.277" ry="18"/>
<text text-anchor="middle" x="922.745" y="372.304" font-family="FreeSans" font-size="14.00" fill="#6666ff">Metamodel::MethodContainer</text>
</a>
</g>
</g>
<!-- Metamodel::PrivateMethodContainer -->
<g id="node11" class="node"><title>Metamodel::PrivateMethodContainer</title>
<g id="a_node11"><a xlink:href="/type/Metamodel::PrivateMethodContainer" xlink:title="Metamodel::PrivateMethodContainer">
<ellipse fill="none" stroke="#6666ff" cx="543.807" cy="379.747" rx="154.873" ry="18"/>
<text text-anchor="middle" x="543.807" y="383.447" font-family="FreeSans" font-size="14.00" fill="#6666ff">Metamodel::PrivateMethodContainer</text>
</a>
</g>
</g>
<!-- Metamodel::MultiMethodContainer -->
<g id="node12" class="node"><title>Metamodel::MultiMethodContainer</title>
<g id="a_node12"><a xlink:href="/type/Metamodel::MultiMethodContainer" xlink:title="Metamodel::MultiMethodContainer">
<ellipse fill="none" stroke="#6666ff" cx="250.606" cy="395.961" rx="146.474" ry="18"/>
<text text-anchor="middle" x="250.606" y="399.661" font-family="FreeSans" font-size="14.00" fill="#6666ff">Metamodel::MultiMethodContainer</text>
</a>
</g>
</g>
<!-- Metamodel::AttributeContainer -->
<g id="node13" class="node"><title>Metamodel::AttributeContainer</title>
<g id="a_node13"><a xlink:href="/type/Metamodel::AttributeContainer" xlink:title="Metamodel::AttributeContainer">
<ellipse fill="none" stroke="#6666ff" cx="890.753" cy="-26.951" rx="129.977" ry="18"/>
<text text-anchor="middle" x="890.753" y="-23.251" font-family="FreeSans" font-size="14.00" fill="#6666ff">Metamodel::AttributeContainer</text>
</a>
</g>
</g>
<!-- Metamodel::RoleContainer -->
<g id="node14" class="node"><title>Metamodel::RoleContainer</title>
<g id="a_node14"><a xlink:href="/type/Metamodel::RoleContainer" xlink:title="Metamodel::RoleContainer">
<ellipse fill="none" stroke="#6666ff" cx="905.142" cy="-411.751" rx="115.88" ry="18"/>
<text text-anchor="middle" x="905.142" y="-408.051" font-family="FreeSans" font-size="14.00" fill="#6666ff">Metamodel::RoleContainer</text>
</a>
</g>
</g>
<!-- Metamodel::MultipleInheritance -->
<g id="node15" class="node"><title>Metamodel::MultipleInheritance</title>
<g id="a_node15"><a xlink:href="/type/Metamodel::MultipleInheritance" xlink:title="Metamodel::MultipleInheritance">
<ellipse fill="none" stroke="#6666ff" cx="495.883" cy="-406.976" rx="133.776" ry="18"/>
<text text-anchor="middle" x="495.883" y="-403.276" font-family="FreeSans" font-size="14.00" fill="#6666ff">Metamodel::MultipleInheritance</text>
</a>
</g>
</g>
<!-- Metamodel::RolePunning -->
<g id="node16" class="node"><title>Metamodel::RolePunning</title>
<g id="a_node16"><a xlink:href="/type/Metamodel::RolePunning" xlink:title="Metamodel::RolePunning">
<ellipse fill="none" stroke="#6666ff" cx="235.025" cy="-162.704" rx="109.681" ry="18"/>
<text text-anchor="middle" x="235.025" y="-159.004" font-family="FreeSans" font-size="14.00" fill="#6666ff">Metamodel::RolePunning</text>
</a>
</g>
</g>
<!-- Metamodel::ParametricRoleHOW -->
<g id="node17" class="node"><title>Metamodel::ParametricRoleHOW</title>
<g id="a_node17"><a xlink:href="/type/Metamodel::ParametricRoleHOW" xlink:title="Metamodel::ParametricRoleHOW">
<ellipse fill="none" stroke="#000000" cx="484.238" cy="14.0641" rx="142.175" ry="18"/>
<text text-anchor="middle" x="484.238" y="17.7641" font-family="FreeSans" font-size="14.00" fill="#000000">Metamodel::ParametricRoleHOW</text>
</a>
</g>
</g>
<!-- Metamodel::ParametricRoleHOW&#45;&gt;Metamodel::TypePretense -->
<g id="edge22" class="edge"><title>Metamodel::ParametricRoleHOW&#45;&gt;Metamodel::TypePretense</title>
<path fill="none" stroke="#6666ff" d="M412.562,-1.50258C258.459,-34.9706 -103.284,-113.534 -262.338,-148.077"/>
<polygon fill="#6666ff" stroke="#6666ff" points="-263.488,-144.745 -272.518,-150.288 -262.003,-151.586 -263.488,-144.745"/>
</g>
<!-- Metamodel::ParametricRoleHOW&#45;&gt;Any -->
<g id="edge3" class="edge"><title>Metamodel::ParametricRoleHOW&#45;&gt;Any</title>
<path fill="none" stroke="#000000" d="M430.524,-2.67723C321.008,-36.8108 74.6211,-113.604 -16.0727,-141.871"/>
<polygon fill="#000000" stroke="#000000" points="-17.3426,-138.601 -25.8481,-144.918 -15.2596,-145.284 -17.3426,-138.601"/>
</g>
<!-- Metamodel::ParametricRoleHOW&#45;&gt;Metamodel::Naming -->
<g id="edge12" class="edge"><title>Metamodel::ParametricRoleHOW&#45;&gt;Metamodel::Naming</title>
<path fill="none" stroke="#6666ff" d="M421.085,30.2157C351.612,47.9837 240.49,76.4032 170.034,94.4226"/>
<polygon fill="#6666ff" stroke="#6666ff" points="170.499,97.9163 159.943,97.0033 168.764,91.1346 170.499,97.9163"/>
</g>
<!-- Metamodel::ParametricRoleHOW&#45;&gt;Metamodel::Documenting -->
<g id="edge13" class="edge"><title>Metamodel::ParametricRoleHOW&#45;&gt;Metamodel::Documenting</title>
<path fill="none" stroke="#6666ff" d="M451.628,31.7113C329.737,97.6746 -98.9968,329.691 -233.793,402.638"/>
<polygon fill="#6666ff" stroke="#6666ff" points="-232.151,405.729 -242.612,407.411 -235.483,399.573 -232.151,405.729"/>
</g>
<!-- Metamodel::ParametricRoleHOW&#45;&gt;Metamodel::Stashing -->
<g id="edge21" class="edge"><title>Metamodel::ParametricRoleHOW&#45;&gt;Metamodel::Stashing</title>
<path fill="none" stroke="#6666ff" d="M391.328,27.7419C247.109,48.9731 -28.4714,89.5426 -167.549,110.017"/>
<polygon fill="#6666ff" stroke="#6666ff" points="-167.327,113.522 -177.73,111.516 -168.346,106.597 -167.327,113.522"/>
</g>
<!-- Metamodel::ParametricRoleHOW&#45;&gt;Metamodel::Versioning -->
<g id="edge14" class="edge"><title>Metamodel::ParametricRoleHOW&#45;&gt;Metamodel::Versioning</title>
<path fill="none" stroke="#6666ff" d="M461.609,31.9385C381.291,95.3816 109.819,309.818 18.1536,382.224"/>
<polygon fill="#6666ff" stroke="#6666ff" points="20.1224,385.129 10.1057,388.581 15.7834,379.636 20.1224,385.129"/>
</g>
<!-- Metamodel::ParametricRoleHOW&#45;&gt;Metamodel::MethodContainer -->
<g id="edge15" class="edge"><title>Metamodel::ParametricRoleHOW&#45;&gt;Metamodel::MethodContainer</title>
<path fill="none" stroke="#6666ff" d="M506.284,31.8887C578.737,90.4678 809.604,277.127 892.636,344.26"/>
<polygon fill="#6666ff" stroke="#6666ff" points="895.079,341.735 900.655,350.744 890.678,347.178 895.079,341.735"/>
</g>
<!-- Metamodel::ParametricRoleHOW&#45;&gt;Metamodel::PrivateMethodContainer -->
<g id="edge16" class="edge"><title>Metamodel::ParametricRoleHOW&#45;&gt;Metamodel::PrivateMethodContainer</title>
<path fill="none" stroke="#6666ff" d="M487.192,32.1984C496.839,91.4164 527.467,279.436 539.186,351.375"/>
<polygon fill="#6666ff" stroke="#6666ff" points="542.682,351.071 540.835,361.503 535.773,352.196 542.682,351.071"/>
</g>
<!-- Metamodel::ParametricRoleHOW&#45;&gt;Metamodel::MultiMethodContainer -->
<g id="edge17" class="edge"><title>Metamodel::ParametricRoleHOW&#45;&gt;Metamodel::MultiMethodContainer</title>
<path fill="none" stroke="#6666ff" d="M473.127,32.2269C435.384,93.9212 311.963,295.666 267.098,369.003"/>
<polygon fill="#6666ff" stroke="#6666ff" points="269.99,370.983 261.785,377.687 264.018,367.33 269.99,370.983"/>
</g>
<!-- Metamodel::ParametricRoleHOW&#45;&gt;Metamodel::AttributeContainer -->
<g id="edge18" class="edge"><title>Metamodel::ParametricRoleHOW&#45;&gt;Metamodel::AttributeContainer</title>
<path fill="none" stroke="#6666ff" d="M595.589,2.8294C651.47,-2.8087 719.091,-9.63132 775.503,-15.323"/>
<polygon fill="#6666ff" stroke="#6666ff" points="775.238,-18.8139 785.538,-16.3355 775.94,-11.8492 775.238,-18.8139"/>
</g>
<!-- Metamodel::ParametricRoleHOW&#45;&gt;Metamodel::RoleContainer -->
<g id="edge19" class="edge"><title>Metamodel::ParametricRoleHOW&#45;&gt;Metamodel::RoleContainer</title>
<path fill="none" stroke="#6666ff" d="M502.055,-3.9607C568.616,-71.2983 802.823,-308.239 880.155,-386.473"/>
<polygon fill="#6666ff" stroke="#6666ff" points="878.036,-389.307 887.555,-393.959 883.014,-384.386 878.036,-389.307"/>
</g>
<!-- Metamodel::ParametricRoleHOW&#45;&gt;Metamodel::MultipleInheritance -->
<g id="edge20" class="edge"><title>Metamodel::ParametricRoleHOW&#45;&gt;Metamodel::MultipleInheritance</title>
<path fill="none" stroke="#6666ff" d="M484.738,-4.02747C486.564,-70.0227 492.873,-298.149 495.099,-378.61"/>
<polygon fill="#6666ff" stroke="#6666ff" points="491.609,-379.052 495.385,-388.951 498.607,-378.858 491.609,-379.052"/>
</g>
<!-- Metamodel::ParametricRoleHOW&#45;&gt;Metamodel::RolePunning -->
<g id="edge23" class="edge"><title>Metamodel::ParametricRoleHOW&#45;&gt;Metamodel::RolePunning</title>
<path fill="none" stroke="#6666ff" d="M458.971,-3.85822C413.7,-35.9687 318.789,-103.29 268.289,-139.11"/>
<polygon fill="#6666ff" stroke="#6666ff" points="266.12,-136.357 259.988,-144.998 270.17,-142.067 266.12,-136.357"/>
</g>
<!-- Metamodel::BoolificationProtocol -->
<g id="node18" class="node"><title>Metamodel::BoolificationProtocol</title>
<g id="a_node18"><a xlink:href="/type/Metamodel::BoolificationProtocol" xlink:title="Metamodel::BoolificationProtocol">
<ellipse fill="none" stroke="#6666ff" cx="-961.182" cy="-322.48" rx="139.175" ry="18"/>
<text text-anchor="middle" x="-961.182" y="-318.78" font-family="FreeSans" font-size="14.00" fill="#6666ff">Metamodel::BoolificationProtocol</text>
</a>
</g>
</g>
<!-- Metamodel::ParametricRoleGroupHOW -->
<g id="node19" class="node"><title>Metamodel::ParametricRoleGroupHOW</title>
<g id="a_node19"><a xlink:href="/type/Metamodel::ParametricRoleGroupHOW" xlink:title="Metamodel::ParametricRoleGroupHOW">
<ellipse fill="none" stroke="#000000" cx="-563.383" cy="-436.284" rx="167.07" ry="18"/>
<text text-anchor="middle" x="-563.383" y="-432.584" font-family="FreeSans" font-size="14.00" fill="#000000">Metamodel::ParametricRoleGroupHOW</text>
</a>
</g>
</g>
<!-- Metamodel::ParametricRoleGroupHOW&#45;&gt;Metamodel::TypePretense -->
<g id="edge26" class="edge"><title>Metamodel::ParametricRoleGroupHOW&#45;&gt;Metamodel::TypePretense</title>
<path fill="none" stroke="#6666ff" d="M-548.358,-418.054C-509.596,-371.025 -406.114,-245.473 -361.097,-190.855"/>
<polygon fill="#6666ff" stroke="#6666ff" points="-358.303,-192.968 -354.643,-183.025 -363.704,-188.516 -358.303,-192.968"/>
</g>
<!-- Metamodel::ParametricRoleGroupHOW&#45;&gt;Any -->
<g id="edge4" class="edge"><title>Metamodel::ParametricRoleGroupHOW&#45;&gt;Any</title>
<path fill="none" stroke="#000000" d="M-531.295,-418.537C-438.405,-367.161 -170.17,-218.806 -80.228,-169.061"/>
<polygon fill="#000000" stroke="#000000" points="-78.4214,-172.061 -71.3646,-164.159 -81.8094,-165.936 -78.4214,-172.061"/>
</g>
<!-- Metamodel::ParametricRoleGroupHOW&#45;&gt;Metamodel::Naming -->
<g id="edge24" class="edge"><title>Metamodel::ParametricRoleGroupHOW&#45;&gt;Metamodel::Naming</title>
<path fill="none" stroke="#6666ff" d="M-540.832,-418.27C-464.964,-357.666 -223.695,-164.937 -223.695,-164.937 -223.695,-164.937 -4.37891,19.6732 75.6173,87.0103"/>
<polygon fill="#6666ff" stroke="#6666ff" points="77.9553,84.4034 83.3518,93.5209 73.4474,89.7587 77.9553,84.4034"/>
</g>
<!-- Metamodel::ParametricRoleGroupHOW&#45;&gt;Metamodel::Stashing -->
<g id="edge25" class="edge"><title>Metamodel::ParametricRoleGroupHOW&#45;&gt;Metamodel::Stashing</title>
<path fill="none" stroke="#6666ff" d="M-556.149,-418.05C-531.999,-357.183 -455.673,-164.813 -455.673,-164.813 -455.673,-164.813 -321.288,25.036 -270.998,96.0818"/>
<polygon fill="#6666ff" stroke="#6666ff" points="-267.945,94.3373 -265.024,104.522 -273.659,98.3816 -267.945,94.3373"/>
</g>
<!-- Metamodel::ParametricRoleGroupHOW&#45;&gt;Metamodel::RolePunning -->
<g id="edge27" class="edge"><title>Metamodel::ParametricRoleGroupHOW&#45;&gt;Metamodel::RolePunning</title>
<path fill="none" stroke="#6666ff" d="M-513.137,-419.066C-371.877,-370.663 28.1767,-233.582 177.7,-182.347"/>
<polygon fill="#6666ff" stroke="#6666ff" points="178.856,-185.651 187.181,-179.098 176.587,-179.029 178.856,-185.651"/>
</g>
<!-- Metamodel::ParametricRoleGroupHOW&#45;&gt;Metamodel::BoolificationProtocol -->
<g id="edge28" class="edge"><title>Metamodel::ParametricRoleGroupHOW&#45;&gt;Metamodel::BoolificationProtocol</title>
<path fill="none" stroke="#6666ff" d="M-622.508,-419.369C-695.005,-398.629 -817.598,-363.557 -893.711,-341.783"/>
<polygon fill="#6666ff" stroke="#6666ff" points="-893.096,-338.318 -903.673,-338.933 -895.021,-345.048 -893.096,-338.318"/>
</g>
<!-- Metamodel::CurriedRoleHOW -->
<g id="node20" class="node"><title>Metamodel::CurriedRoleHOW</title>
<g id="a_node20"><a xlink:href="/type/Metamodel::CurriedRoleHOW" xlink:title="Metamodel::CurriedRoleHOW">
<ellipse fill="none" stroke="#000000" cx="-190.766" cy="-456.501" rx="128.877" ry="18"/>
<text text-anchor="middle" x="-190.766" y="-452.801" font-family="FreeSans" font-size="14.00" fill="#000000">Metamodel::CurriedRoleHOW</text>
</a>
</g>
</g>
<!-- Metamodel::CurriedRoleHOW&#45;&gt;Metamodel::TypePretense -->
<g id="edge30" class="edge"><title>Metamodel::CurriedRoleHOW&#45;&gt;Metamodel::TypePretense</title>
<path fill="none" stroke="#6666ff" d="M-200.082,-438.258C-225.415,-388.648 -295.671,-251.065 -325.739,-192.184"/>
<polygon fill="#6666ff" stroke="#6666ff" points="-322.707,-190.425 -330.372,-183.111 -328.941,-193.609 -322.707,-190.425"/>
</g>
<!-- Metamodel::CurriedRoleHOW&#45;&gt;Any -->
<g id="edge5" class="edge"><title>Metamodel::CurriedRoleHOW&#45;&gt;Any</title>
<path fill="none" stroke="#000000" d="M-182.408,-438.399C-158.651,-386.952 -90.654,-239.695 -62.6773,-179.109"/>
<polygon fill="#000000" stroke="#000000" points="-59.4063,-180.373 -58.3916,-169.827 -65.7615,-177.439 -59.4063,-180.373"/>
</g>
<!-- Metamodel::CurriedRoleHOW&#45;&gt;Metamodel::RolePunning -->
<g id="edge29" class="edge"><title>Metamodel::CurriedRoleHOW&#45;&gt;Metamodel::RolePunning</title>
<path fill="none" stroke="#6666ff" d="M-165.09,-438.784C-91.7219,-388.16 118.849,-242.866 201.321,-185.96"/>
<polygon fill="#6666ff" stroke="#6666ff" points="203.341,-188.818 209.584,-180.258 199.366,-183.057 203.341,-188.818"/>
</g>
<!-- Metamodel::ModuleHOW -->
<g id="node21" class="node"><title>Metamodel::ModuleHOW</title>
<g id="a_node21"><a xlink:href="/type/Metamodel::ModuleHOW" xlink:title="Metamodel::ModuleHOW">
<ellipse fill="none" stroke="#000000" cx="-587.197" cy="388.955" rx="111.28" ry="18"/>
<text text-anchor="middle" x="-587.197" y="392.655" font-family="FreeSans" font-size="14.00" fill="#000000">Metamodel::ModuleHOW</text>
</a>
</g>
</g>
<!-- Metamodel::ModuleHOW&#45;&gt;Metamodel::TypePretense -->
<g id="edge35" class="edge"><title>Metamodel::ModuleHOW&#45;&gt;Metamodel::TypePretense</title>
<path fill="none" stroke="#6666ff" d="M-579.103,370.843C-542.856,289.737 -395.341,-40.3383 -351.824,-137.712"/>
<polygon fill="#6666ff" stroke="#6666ff" points="-354.992,-139.2 -347.717,-146.901 -348.601,-136.343 -354.992,-139.2"/>
</g>
<!-- Metamodel::ModuleHOW&#45;&gt;Any -->
<g id="edge6" class="edge"><title>Metamodel::ModuleHOW&#45;&gt;Any</title>
<path fill="none" stroke="#000000" d="M-571.097,371.068C-517.352,311.36 -347.491,122.653 -347.491,122.653 -347.491,122.653 -144.082,-65.8061 -73.8997,-130.831"/>
<polygon fill="#000000" stroke="#000000" points="-76.1124,-133.552 -66.3982,-137.781 -71.355,-128.417 -76.1124,-133.552"/>
</g>
<!-- Metamodel::ModuleHOW&#45;&gt;Metamodel::Naming -->
<g id="edge31" class="edge"><title>Metamodel::ModuleHOW&#45;&gt;Metamodel::Naming</title>
<path fill="none" stroke="#6666ff" d="M-545.494,372.206C-424.84,323.751 -75.733,183.547 54.5576,131.222"/>
<polygon fill="#6666ff" stroke="#6666ff" points="53.3371,127.94 63.9211,127.461 55.9458,134.436 53.3371,127.94"/>
</g>
<!-- Metamodel::ModuleHOW&#45;&gt;Metamodel::Documenting -->
<g id="edge32" class="edge"><title>Metamodel::ModuleHOW&#45;&gt;Metamodel::Documenting</title>
<path fill="none" stroke="#6666ff" d="M-496.384,399.36C-458.581,403.691 -414.542,408.737 -375.721,413.185"/>
<polygon fill="#6666ff" stroke="#6666ff" points="-374.983,409.747 -365.446,414.363 -375.78,416.702 -374.983,409.747"/>
</g>
<!-- Metamodel::ModuleHOW&#45;&gt;Metamodel::Stashing -->
<g id="edge34" class="edge"><title>Metamodel::ModuleHOW&#45;&gt;Metamodel::Stashing</title>
<path fill="none" stroke="#6666ff" d="M-564.965,371.265C-506.544,324.783 -348.647,199.151 -282.304,146.365"/>
<polygon fill="#6666ff" stroke="#6666ff" points="-284.313,143.491 -274.309,140.003 -279.955,148.968 -284.313,143.491"/>
</g>
<!-- Metamodel::ModuleHOW&#45;&gt;Metamodel::MethodDelegation -->
<g id="edge36" class="edge"><title>Metamodel::ModuleHOW&#45;&gt;Metamodel::MethodDelegation</title>
<path fill="none" stroke="#6666ff" d="M-644.651,373.448C-712.655,355.094 -825.836,324.547 -898.709,304.879"/>
<polygon fill="#6666ff" stroke="#6666ff" points="-899.973,308.163 -908.715,302.178 -898.149,301.405 -899.973,308.163"/>
</g>
<!-- Metamodel::ModuleHOW&#45;&gt;Metamodel::Versioning -->
<g id="edge33" class="edge"><title>Metamodel::ModuleHOW&#45;&gt;Metamodel::Versioning</title>
<path fill="none" stroke="#6666ff" d="M-477.724,392.265C-375.584,395.353 -224.015,399.936 -121.868,403.025"/>
<polygon fill="#6666ff" stroke="#6666ff" points="-121.722,399.528 -111.832,403.328 -121.933,406.524 -121.722,399.528"/>
</g>
</g>
</svg>
