<?xml version="1.0" encoding="UTF-8" standalone="no"?>
<!DOCTYPE svg PUBLIC "-//W3C//DTD SVG 1.1//EN"
 "http://www.w3.org/Graphics/SVG/1.1/DTD/svg11.dtd">
<!-- Generated by graphviz version 2.38.0 (20140413.2041)
 -->
<!-- Title: perl6&#45;type&#45;graph Pages: 1 -->
<svg width="229pt" height="404pt"
 viewBox="0.00 0.00 228.54 404.00" xmlns="http://www.w3.org/2000/svg" xmlns:xlink="http://www.w3.org/1999/xlink">
<g id="graph0" class="graph" transform="scale(1 1) rotate(0) translate(4 400)">
<title>perl6&#45;type&#45;graph</title>
<polygon fill="white" stroke="none" points="-4,4 -4,-400 224.537,-400 224.537,4 -4,4"/>
<!-- X::Syntax::NegatedPair -->
<g id="node1" class="node"><title>X::Syntax::NegatedPair</title>
<g id="a_node1"><a xlink:href="/type/X::Syntax::NegatedPair" xlink:title="X::Syntax::NegatedPair">
<ellipse fill="none" stroke="#000000" cx="102.691" cy="-18" rx="102.882" ry="18"/>
<text text-anchor="middle" x="102.691" y="-14.3" font-family="FreeSans" font-size="14.00" fill="#000000">X::Syntax::NegatedPair</text>
</a>
</g>
</g>
<!-- Exception -->
<g id="node4" class="node"><title>Exception</title>
<g id="a_node4"><a xlink:href="/type/Exception" xlink:title="Exception">
<ellipse fill="none" stroke="#000000" cx="102.691" cy="-234" rx="49.2915" ry="18"/>
<text text-anchor="middle" x="102.691" y="-230.3" font-family="FreeSans" font-size="14.00" fill="#000000">Exception</text>
</a>
</g>
</g>
<!-- X::Syntax::NegatedPair&#45;&gt;Exception -->
<g id="edge1" class="edge"><title>X::Syntax::NegatedPair&#45;&gt;Exception</title>
<path fill="none" stroke="#000000" d="M96.5746,-36.0613C91.0203,-51.5549 83.6909,-72 83.6909,-72 83.6909,-72 83.6909,-108 83.6909,-108 83.6909,-108 92.9641,-169.008 98.5537,-205.782"/>
<polygon fill="#000000" stroke="#000000" points="95.1258,-206.521 100.089,-215.881 102.046,-205.469 95.1258,-206.521"/>
</g>
<!-- X::Syntax -->
<g id="node6" class="node"><title>X::Syntax</title>
<g id="a_node6"><a xlink:href="/type/X::Syntax" xlink:title="X::Syntax">
<ellipse fill="none" stroke="#6666ff" cx="140.691" cy="-90" rx="48.1917" ry="18"/>
<text text-anchor="middle" x="140.691" y="-86.3" font-family="FreeSans" font-size="14.00" fill="#6666ff">X::Syntax</text>
</a>
</g>
</g>
<!-- X::Syntax::NegatedPair&#45;&gt;X::Syntax -->
<g id="edge6" class="edge"><title>X::Syntax::NegatedPair&#45;&gt;X::Syntax</title>
<path fill="none" stroke="#6666ff" d="M111.89,-35.945C116.324,-44.1134 121.739,-54.0884 126.672,-63.1756"/>
<polygon fill="#6666ff" stroke="#6666ff" points="123.73,-65.0923 131.577,-72.211 129.882,-61.7526 123.73,-65.0923"/>
</g>
<!-- Mu -->
<g id="node2" class="node"><title>Mu</title>
<g id="a_node2"><a xlink:href="/type/Mu" xlink:title="Mu">
<ellipse fill="none" stroke="#000000" cx="102.691" cy="-378" rx="27" ry="18"/>
<text text-anchor="middle" x="102.691" y="-374.3" font-family="FreeSans" font-size="14.00" fill="#000000">Mu</text>
</a>
</g>
</g>
<!-- Any -->
<g id="node3" class="node"><title>Any</title>
<g id="a_node3"><a xlink:href="/type/Any" xlink:title="Any">
<ellipse fill="none" stroke="#000000" cx="102.691" cy="-306" rx="27" ry="18"/>
<text text-anchor="middle" x="102.691" y="-302.3" font-family="FreeSans" font-size="14.00" fill="#000000">Any</text>
</a>
</g>
</g>
<!-- Any&#45;&gt;Mu -->
<g id="edge2" class="edge"><title>Any&#45;&gt;Mu</title>
<path fill="none" stroke="#000000" d="M102.691,-324.303C102.691,-332.017 102.691,-341.288 102.691,-349.888"/>
<polygon fill="#000000" stroke="#000000" points="99.191,-349.896 102.691,-359.896 106.191,-349.896 99.191,-349.896"/>
</g>
<!-- Exception&#45;&gt;Any -->
<g id="edge3" class="edge"><title>Exception&#45;&gt;Any</title>
<path fill="none" stroke="#000000" d="M102.691,-252.303C102.691,-260.017 102.691,-269.288 102.691,-277.888"/>
<polygon fill="#000000" stroke="#000000" points="99.191,-277.896 102.691,-287.896 106.191,-277.896 99.191,-277.896"/>
</g>
<!-- X::Comp -->
<g id="node5" class="node"><title>X::Comp</title>
<g id="a_node5"><a xlink:href="/type/X::Comp" xlink:title="X::Comp">
<ellipse fill="none" stroke="#6666ff" cx="175.691" cy="-162" rx="44.6926" ry="18"/>
<text text-anchor="middle" x="175.691" y="-158.3" font-family="FreeSans" font-size="14.00" fill="#6666ff">X::Comp</text>
</a>
</g>
</g>
<!-- X::Comp&#45;&gt;Exception -->
<g id="edge4" class="edge"><title>X::Comp&#45;&gt;Exception</title>
<path fill="none" stroke="#000000" d="M159.126,-178.884C149.58,-188.038 137.41,-199.707 126.817,-209.865"/>
<polygon fill="#000000" stroke="#000000" points="124.238,-207.489 119.443,-216.936 129.083,-212.541 124.238,-207.489"/>
</g>
<!-- X::Syntax&#45;&gt;Exception -->
<g id="edge5" class="edge"><title>X::Syntax&#45;&gt;Exception</title>
<path fill="none" stroke="#000000" d="M134.575,-108.061C129.02,-123.555 121.691,-144 121.691,-144 121.691,-144 114.041,-179.833 108.45,-206.025"/>
<polygon fill="#000000" stroke="#000000" points="105.019,-205.33 106.354,-215.84 111.865,-206.791 105.019,-205.33"/>
</g>
<!-- X::Syntax&#45;&gt;X::Comp -->
<g id="edge7" class="edge"><title>X::Syntax&#45;&gt;X::Comp</title>
<path fill="none" stroke="#6666ff" d="M149.163,-107.945C153.248,-116.113 158.235,-126.088 162.779,-135.176"/>
<polygon fill="#6666ff" stroke="#6666ff" points="159.694,-136.832 167.296,-144.211 165.955,-133.701 159.694,-136.832"/>
</g>
</g>
</svg>
