<?xml version="1.0" encoding="UTF-8" standalone="no"?>
<!DOCTYPE svg PUBLIC "-//W3C//DTD SVG 1.1//EN"
 "http://www.w3.org/Graphics/SVG/1.1/DTD/svg11.dtd">
<!-- Generated by graphviz version 2.38.0 (20140413.2041)
 -->
<!-- Title: perl6&#45;type&#45;graph Pages: 1 -->
<svg width="124pt" height="188pt"
 viewBox="0.00 0.00 123.69 188.00" xmlns="http://www.w3.org/2000/svg" xmlns:xlink="http://www.w3.org/1999/xlink">
<g id="graph0" class="graph" transform="scale(1 1) rotate(0) translate(4 184)">
<title>perl6&#45;type&#45;graph</title>
<polygon fill="white" stroke="none" points="-4,4 -4,-184 119.69,-184 119.69,4 -4,4"/>
<!-- Deprecation -->
<g id="node1" class="node"><title>Deprecation</title>
<g id="a_node1"><a xlink:href="/type/Deprecation" xlink:title="Deprecation">
<ellipse fill="none" stroke="#000000" cx="57.8449" cy="-18" rx="57.6901" ry="18"/>
<text text-anchor="middle" x="57.8449" y="-14.3" font-family="FreeSans" font-size="14.00" fill="#000000">Deprecation</text>
</a>
</g>
</g>
<!-- Any -->
<g id="node3" class="node"><title>Any</title>
<g id="a_node3"><a xlink:href="/type/Any" xlink:title="Any">
<ellipse fill="none" stroke="#000000" cx="57.8449" cy="-90" rx="27" ry="18"/>
<text text-anchor="middle" x="57.8449" y="-86.3" font-family="FreeSans" font-size="14.00" fill="#000000">Any</text>
</a>
</g>
</g>
<!-- Deprecation&#45;&gt;Any -->
<g id="edge1" class="edge"><title>Deprecation&#45;&gt;Any</title>
<path fill="none" stroke="#000000" d="M57.8449,-36.3034C57.8449,-44.0173 57.8449,-53.2875 57.8449,-61.8876"/>
<polygon fill="#000000" stroke="#000000" points="54.345,-61.8956 57.8449,-71.8957 61.345,-61.8957 54.345,-61.8956"/>
</g>
<!-- Mu -->
<g id="node2" class="node"><title>Mu</title>
<g id="a_node2"><a xlink:href="/type/Mu" xlink:title="Mu">
<ellipse fill="none" stroke="#000000" cx="57.8449" cy="-162" rx="27" ry="18"/>
<text text-anchor="middle" x="57.8449" y="-158.3" font-family="FreeSans" font-size="14.00" fill="#000000">Mu</text>
</a>
</g>
</g>
<!-- Any&#45;&gt;Mu -->
<g id="edge2" class="edge"><title>Any&#45;&gt;Mu</title>
<path fill="none" stroke="#000000" d="M57.8449,-108.303C57.8449,-116.017 57.8449,-125.288 57.8449,-133.888"/>
<polygon fill="#000000" stroke="#000000" points="54.345,-133.896 57.8449,-143.896 61.345,-133.896 54.345,-133.896"/>
</g>
</g>
</svg>
