<?xml version="1.0" encoding="UTF-8" standalone="no"?>
<!DOCTYPE svg PUBLIC "-//W3C//DTD SVG 1.1//EN"
 "http://www.w3.org/Graphics/SVG/1.1/DTD/svg11.dtd">
<!-- Generated by graphviz version 2.38.0 (20140413.2041)
 -->
<!-- Title: perl6&#45;type&#45;graph Pages: 1 -->
<svg width="2234pt" height="1031pt"
 viewBox="0.00 0.00 2233.64 1031.18" xmlns="http://www.w3.org/2000/svg" xmlns:xlink="http://www.w3.org/1999/xlink">
<g id="graph0" class="graph" transform="scale(1 1) rotate(0) translate(1095.05 485.753)">
<title>perl6&#45;type&#45;graph</title>
<polygon fill="white" stroke="none" points="-1095.05,545.429 -1095.05,-485.753 1138.58,-485.753 1138.58,545.429 -1095.05,545.429"/>
<!-- Metamodel::PrivateMethodContainer -->
<g id="node1" class="node"><title>Metamodel::PrivateMethodContainer</title>
<g id="a_node1"><a xlink:href="/type/Metamodel::PrivateMethodContainer" xlink:title="Metamodel::PrivateMethodContainer">
<ellipse fill="none" stroke="#6666ff" cx="31.7634" cy="34.2275" rx="154.873" ry="18"/>
<text text-anchor="middle" x="31.7634" y="37.9275" font-family="FreeSans" font-size="14.00" fill="#6666ff">Metamodel::PrivateMethodContainer</text>
</a>
</g>
</g>
<!-- Mu -->
<g id="node2" class="node"><title>Mu</title>
<g id="a_node2"><a xlink:href="/type/Mu" xlink:title="Mu">
<ellipse fill="none" stroke="#000000" cx="519.648" cy="514.447" rx="27" ry="18"/>
<text text-anchor="middle" x="519.648" y="518.147" font-family="FreeSans" font-size="14.00" fill="#000000">Mu</text>
</a>
</g>
</g>
<!-- Any -->
<g id="node3" class="node"><title>Any</title>
<g id="a_node3"><a xlink:href="/type/Any" xlink:title="Any">
<ellipse fill="none" stroke="#000000" cx="189.16" cy="520.033" rx="27" ry="18"/>
<text text-anchor="middle" x="189.16" y="523.733" font-family="FreeSans" font-size="14.00" fill="#000000">Any</text>
</a>
</g>
</g>
<!-- Any&#45;&gt;Mu -->
<g id="edge1" class="edge"><title>Any&#45;&gt;Mu</title>
<path fill="none" stroke="#000000" d="M216.205,519.576C275.031,518.581 414.72,516.22 482.065,515.082"/>
<polygon fill="#000000" stroke="#000000" points="482.171,511.58 492.229,514.91 482.29,518.579 482.171,511.58"/>
</g>
<!-- Metamodel::Naming -->
<g id="node4" class="node"><title>Metamodel::Naming</title>
<g id="a_node4"><a xlink:href="/type/Metamodel::Naming" xlink:title="Metamodel::Naming">
<ellipse fill="none" stroke="#6666ff" cx="249.287" cy="-144.502" rx="90.1842" ry="18"/>
<text text-anchor="middle" x="249.287" y="-140.802" font-family="FreeSans" font-size="14.00" fill="#6666ff">Metamodel::Naming</text>
</a>
</g>
</g>
<!-- Metamodel::Documenting -->
<g id="node5" class="node"><title>Metamodel::Documenting</title>
<g id="a_node5"><a xlink:href="/type/Metamodel::Documenting" xlink:title="Metamodel::Documenting">
<ellipse fill="none" stroke="#6666ff" cx="16.7776" cy="-463.753" rx="111.28" ry="18"/>
<text text-anchor="middle" x="16.7776" y="-460.053" font-family="FreeSans" font-size="14.00" fill="#6666ff">Metamodel::Documenting</text>
</a>
</g>
</g>
<!-- Metamodel::Versioning -->
<g id="node6" class="node"><title>Metamodel::Versioning</title>
<g id="a_node6"><a xlink:href="/type/Metamodel::Versioning" xlink:title="Metamodel::Versioning">
<ellipse fill="none" stroke="#6666ff" cx="272.107" cy="-461.042" rx="100.983" ry="18"/>
<text text-anchor="middle" x="272.107" y="-457.342" font-family="FreeSans" font-size="14.00" fill="#6666ff">Metamodel::Versioning</text>
</a>
</g>
</g>
<!-- Metamodel::Stashing -->
<g id="node7" class="node"><title>Metamodel::Stashing</title>
<g id="a_node7"><a xlink:href="/type/Metamodel::Stashing" xlink:title="Metamodel::Stashing">
<ellipse fill="none" stroke="#6666ff" cx="-237.464" cy="188.272" rx="93.6835" ry="18"/>
<text text-anchor="middle" x="-237.464" y="191.972" font-family="FreeSans" font-size="14.00" fill="#6666ff">Metamodel::Stashing</text>
</a>
</g>
</g>
<!-- Metamodel::AttributeContainer -->
<g id="node8" class="node"><title>Metamodel::AttributeContainer</title>
<g id="a_node8"><a xlink:href="/type/Metamodel::AttributeContainer" xlink:title="Metamodel::AttributeContainer">
<ellipse fill="none" stroke="#6666ff" cx="610.22" cy="189.587" rx="129.977" ry="18"/>
<text text-anchor="middle" x="610.22" y="193.287" font-family="FreeSans" font-size="14.00" fill="#6666ff">Metamodel::AttributeContainer</text>
</a>
</g>
</g>
<!-- Metamodel::Finalization -->
<g id="node9" class="node"><title>Metamodel::Finalization</title>
<g id="a_node9"><a xlink:href="/type/Metamodel::Finalization" xlink:title="Metamodel::Finalization">
<ellipse fill="none" stroke="#6666ff" cx="-940.127" cy="473.14" rx="103.982" ry="18"/>
<text text-anchor="middle" x="-940.127" y="476.84" font-family="FreeSans" font-size="14.00" fill="#6666ff">Metamodel::Finalization</text>
</a>
</g>
</g>
<!-- Metamodel::MethodContainer -->
<g id="node10" class="node"><title>Metamodel::MethodContainer</title>
<g id="a_node10"><a xlink:href="/type/Metamodel::MethodContainer" xlink:title="Metamodel::MethodContainer">
<ellipse fill="none" stroke="#6666ff" cx="306.183" cy="164.522" rx="127.277" ry="18"/>
<text text-anchor="middle" x="306.183" y="168.222" font-family="FreeSans" font-size="14.00" fill="#6666ff">Metamodel::MethodContainer</text>
</a>
</g>
</g>
<!-- Metamodel::MultiMethodContainer -->
<g id="node11" class="node"><title>Metamodel::MultiMethodContainer</title>
<g id="a_node11"><a xlink:href="/type/Metamodel::MultiMethodContainer" xlink:title="Metamodel::MultiMethodContainer">
<ellipse fill="none" stroke="#6666ff" cx="34.2193" cy="265.933" rx="146.474" ry="18"/>
<text text-anchor="middle" x="34.2193" y="269.633" font-family="FreeSans" font-size="14.00" fill="#6666ff">Metamodel::MultiMethodContainer</text>
</a>
</g>
</g>
<!-- Metamodel::RoleContainer -->
<g id="node12" class="node"><title>Metamodel::RoleContainer</title>
<g id="a_node12"><a xlink:href="/type/Metamodel::RoleContainer" xlink:title="Metamodel::RoleContainer">
<ellipse fill="none" stroke="#6666ff" cx="-59.9858" cy="-174.022" rx="115.88" ry="18"/>
<text text-anchor="middle" x="-59.9858" y="-170.322" font-family="FreeSans" font-size="14.00" fill="#6666ff">Metamodel::RoleContainer</text>
</a>
</g>
</g>
<!-- Metamodel::MultipleInheritance -->
<g id="node13" class="node"><title>Metamodel::MultipleInheritance</title>
<g id="a_node13"><a xlink:href="/type/Metamodel::MultipleInheritance" xlink:title="Metamodel::MultipleInheritance">
<ellipse fill="none" stroke="#6666ff" cx="567.965" cy="-453.779" rx="133.776" ry="18"/>
<text text-anchor="middle" x="567.965" y="-450.079" font-family="FreeSans" font-size="14.00" fill="#6666ff">Metamodel::MultipleInheritance</text>
</a>
</g>
</g>
<!-- Metamodel::DefaultParent -->
<g id="node14" class="node"><title>Metamodel::DefaultParent</title>
<g id="a_node14"><a xlink:href="/type/Metamodel::DefaultParent" xlink:title="Metamodel::DefaultParent">
<ellipse fill="none" stroke="#6666ff" cx="-245.22" cy="-450.261" rx="113.18" ry="18"/>
<text text-anchor="middle" x="-245.22" y="-446.561" font-family="FreeSans" font-size="14.00" fill="#6666ff">Metamodel::DefaultParent</text>
</a>
</g>
</g>
<!-- Metamodel::C3MRO -->
<g id="node15" class="node"><title>Metamodel::C3MRO</title>
<g id="a_node15"><a xlink:href="/type/Metamodel::C3MRO" xlink:title="Metamodel::C3MRO">
<ellipse fill="none" stroke="#6666ff" cx="-540.771" cy="-457.973" rx="92.0841" ry="18"/>
<text text-anchor="middle" x="-540.771" y="-454.273" font-family="FreeSans" font-size="14.00" fill="#6666ff">Metamodel::C3MRO</text>
</a>
</g>
</g>
<!-- Metamodel::MROBasedMethodDispatch -->
<g id="node16" class="node"><title>Metamodel::MROBasedMethodDispatch</title>
<g id="a_node16"><a xlink:href="/type/Metamodel::MROBasedMethodDispatch" xlink:title="Metamodel::MROBasedMethodDispatch">
<ellipse fill="none" stroke="#6666ff" cx="-477.604" cy="514.595" rx="169.77" ry="18"/>
<text text-anchor="middle" x="-477.604" y="518.295" font-family="FreeSans" font-size="14.00" fill="#6666ff">Metamodel::MROBasedMethodDispatch</text>
</a>
</g>
</g>
<!-- Metamodel::MROBasedTypeChecking -->
<g id="node17" class="node"><title>Metamodel::MROBasedTypeChecking</title>
<g id="a_node17"><a xlink:href="/type/Metamodel::MROBasedTypeChecking" xlink:title="Metamodel::MROBasedTypeChecking">
<ellipse fill="none" stroke="#6666ff" cx="-138.976" cy="523.429" rx="163.271" ry="18"/>
<text text-anchor="middle" x="-138.976" y="527.129" font-family="FreeSans" font-size="14.00" fill="#6666ff">Metamodel::MROBasedTypeChecking</text>
</a>
</g>
</g>
<!-- Metamodel::Trusting -->
<g id="node18" class="node"><title>Metamodel::Trusting</title>
<g id="a_node18"><a xlink:href="/type/Metamodel::Trusting" xlink:title="Metamodel::Trusting">
<ellipse fill="none" stroke="#6666ff" cx="-965.472" cy="-403.957" rx="91.784" ry="18"/>
<text text-anchor="middle" x="-965.472" y="-400.257" font-family="FreeSans" font-size="14.00" fill="#6666ff">Metamodel::Trusting</text>
</a>
</g>
</g>
<!-- Metamodel::BUILDPLAN -->
<g id="node19" class="node"><title>Metamodel::BUILDPLAN</title>
<g id="a_node19"><a xlink:href="/type/Metamodel::BUILDPLAN" xlink:title="Metamodel::BUILDPLAN">
<ellipse fill="none" stroke="#6666ff" cx="-981.214" cy="46.6136" rx="109.681" ry="18"/>
<text text-anchor="middle" x="-981.214" y="50.3136" font-family="FreeSans" font-size="14.00" fill="#6666ff">Metamodel::BUILDPLAN</text>
</a>
</g>
</g>
<!-- Metamodel::Mixins -->
<g id="node20" class="node"><title>Metamodel::Mixins</title>
<g id="a_node20"><a xlink:href="/type/Metamodel::Mixins" xlink:title="Metamodel::Mixins">
<ellipse fill="none" stroke="#6666ff" cx="-606.208" cy="-120.132" rx="85.2851" ry="18"/>
<text text-anchor="middle" x="-606.208" y="-116.432" font-family="FreeSans" font-size="14.00" fill="#6666ff">Metamodel::Mixins</text>
</a>
</g>
</g>
<!-- Metamodel::BoolificationProtocol -->
<g id="node21" class="node"><title>Metamodel::BoolificationProtocol</title>
<g id="a_node21"><a xlink:href="/type/Metamodel::BoolificationProtocol" xlink:title="Metamodel::BoolificationProtocol">
<ellipse fill="none" stroke="#6666ff" cx="-313.219" cy="-96.3304" rx="139.175" ry="18"/>
<text text-anchor="middle" x="-313.219" y="-92.6304" font-family="FreeSans" font-size="14.00" fill="#6666ff">Metamodel::BoolificationProtocol</text>
</a>
</g>
</g>
<!-- Metamodel::ClassHOW -->
<g id="node22" class="node"><title>Metamodel::ClassHOW</title>
<g id="a_node22"><a xlink:href="/type/Metamodel::ClassHOW" xlink:title="Metamodel::ClassHOW">
<ellipse fill="none" stroke="#000000" cx="-555.543" cy="187.695" rx="103.982" ry="18"/>
<text text-anchor="middle" x="-555.543" y="191.395" font-family="FreeSans" font-size="14.00" fill="#000000">Metamodel::ClassHOW</text>
</a>
</g>
</g>
<!-- Metamodel::ClassHOW&#45;&gt;Metamodel::PrivateMethodContainer -->
<g id="edge12" class="edge"><title>Metamodel::ClassHOW&#45;&gt;Metamodel::PrivateMethodContainer</title>
<path fill="none" stroke="#6666ff" d="M-497.892,172.63C-390.367,144.533 -159.443,84.1913 -41.2287,53.3009"/>
<polygon fill="#6666ff" stroke="#6666ff" points="-42.0913,49.9089 -31.5313,50.7669 -40.3216,56.6815 -42.0913,49.9089"/>
</g>
<!-- Metamodel::ClassHOW&#45;&gt;Any -->
<g id="edge2" class="edge"><title>Metamodel::ClassHOW&#45;&gt;Any</title>
<path fill="none" stroke="#000000" d="M-517.847,204.518C-388.431,262.272 36.4031,451.862 156.987,505.675"/>
<polygon fill="#000000" stroke="#000000" points="158.716,502.614 166.422,509.886 155.863,509.006 158.716,502.614"/>
</g>
<!-- Metamodel::ClassHOW&#45;&gt;Metamodel::Naming -->
<g id="edge5" class="edge"><title>Metamodel::ClassHOW&#45;&gt;Metamodel::Naming</title>
<path fill="none" stroke="#6666ff" d="M-515.08,170.994C-380.312,115.368 53.0831,-63.5182 200.027,-124.17"/>
<polygon fill="#6666ff" stroke="#6666ff" points="199.116,-127.58 209.695,-128.161 201.787,-121.11 199.116,-127.58"/>
</g>
<!-- Metamodel::ClassHOW&#45;&gt;Metamodel::Documenting -->
<g id="edge6" class="edge"><title>Metamodel::ClassHOW&#45;&gt;Metamodel::Documenting</title>
<path fill="none" stroke="#6666ff" d="M-549.031,169.502C-526.598,106.837 -453.905,-96.23 -453.905,-96.23 -453.905,-96.23 -118.365,-358.229 -13.8925,-439.804"/>
<polygon fill="#6666ff" stroke="#6666ff" points="-15.9604,-442.63 -5.92445,-446.026 -11.6523,-437.113 -15.9604,-442.63"/>
</g>
<!-- Metamodel::ClassHOW&#45;&gt;Metamodel::Versioning -->
<g id="edge7" class="edge"><title>Metamodel::ClassHOW&#45;&gt;Metamodel::Versioning</title>
<path fill="none" stroke="#6666ff" d="M-525.984,170.244C-403.566,97.9697 57.3025,-174.122 57.3025,-174.122 57.3025,-174.122 199.243,-363.715 252.36,-434.665"/>
<polygon fill="#6666ff" stroke="#6666ff" points="249.875,-437.186 258.67,-443.093 255.479,-432.991 249.875,-437.186"/>
</g>
<!-- Metamodel::ClassHOW&#45;&gt;Metamodel::Stashing -->
<g id="edge8" class="edge"><title>Metamodel::ClassHOW&#45;&gt;Metamodel::Stashing</title>
<path fill="none" stroke="#6666ff" d="M-451.392,187.884C-416.103,187.948 -376.704,188.02 -341.429,188.084"/>
<polygon fill="#6666ff" stroke="#6666ff" points="-341.105,184.584 -331.111,188.102 -341.117,191.584 -341.105,184.584"/>
</g>
<!-- Metamodel::ClassHOW&#45;&gt;Metamodel::AttributeContainer -->
<g id="edge9" class="edge"><title>Metamodel::ClassHOW&#45;&gt;Metamodel::AttributeContainer</title>
<path fill="none" stroke="#6666ff" d="M-457.673,193.886C-363.91,199.817 -236.57,207.871 -236.57,207.871 -236.57,207.871 231.19,197.771 471.403,192.585"/>
<polygon fill="#6666ff" stroke="#6666ff" points="471.538,189.081 481.611,192.364 471.689,196.08 471.538,189.081"/>
</g>
<!-- Metamodel::ClassHOW&#45;&gt;Metamodel::Finalization -->
<g id="edge10" class="edge"><title>Metamodel::ClassHOW&#45;&gt;Metamodel::Finalization</title>
<path fill="none" stroke="#6666ff" d="M-579.31,205.336C-645.54,254.492 -832.256,393.076 -907.801,449.147"/>
<polygon fill="#6666ff" stroke="#6666ff" points="-905.911,452.103 -916.026,455.252 -910.083,446.482 -905.911,452.103"/>
</g>
<!-- Metamodel::ClassHOW&#45;&gt;Metamodel::MethodContainer -->
<g id="edge11" class="edge"><title>Metamodel::ClassHOW&#45;&gt;Metamodel::MethodContainer</title>
<path fill="none" stroke="#6666ff" d="M-456.923,181.781C-363.812,176.197 -238.358,168.673 -238.358,168.673 -238.358,168.673 7.52297,166.799 168.838,165.569"/>
<polygon fill="#6666ff" stroke="#6666ff" points="168.83,162.069 178.856,165.493 168.883,169.069 168.83,162.069"/>
</g>
<!-- Metamodel::ClassHOW&#45;&gt;Metamodel::MultiMethodContainer -->
<g id="edge13" class="edge"><title>Metamodel::ClassHOW&#45;&gt;Metamodel::MultiMethodContainer</title>
<path fill="none" stroke="#6666ff" d="M-472.918,198.656C-369.138,212.424 -190.74,236.09 -75.573,251.368"/>
<polygon fill="#6666ff" stroke="#6666ff" points="-74.7749,247.943 -65.322,252.728 -75.6955,254.882 -74.7749,247.943"/>
</g>
<!-- Metamodel::ClassHOW&#45;&gt;Metamodel::RoleContainer -->
<g id="edge14" class="edge"><title>Metamodel::ClassHOW&#45;&gt;Metamodel::RoleContainer</title>
<path fill="none" stroke="#6666ff" d="M-531.306,170.004C-449.712,110.447 -184.955,-82.8044 -92.3365,-150.408"/>
<polygon fill="#6666ff" stroke="#6666ff" points="-94.317,-153.296 -84.1763,-156.365 -90.19,-147.642 -94.317,-153.296"/>
</g>
<!-- Metamodel::ClassHOW&#45;&gt;Metamodel::MultipleInheritance -->
<g id="edge15" class="edge"><title>Metamodel::ClassHOW&#45;&gt;Metamodel::MultipleInheritance</title>
<path fill="none" stroke="#6666ff" d="M-525.201,170.371C-368.267,80.7689 350.867,-329.825 528.304,-431.134"/>
<polygon fill="#6666ff" stroke="#6666ff" points="526.643,-434.216 537.063,-436.135 530.114,-428.137 526.643,-434.216"/>
</g>
<!-- Metamodel::ClassHOW&#45;&gt;Metamodel::DefaultParent -->
<g id="edge16" class="edge"><title>Metamodel::ClassHOW&#45;&gt;Metamodel::DefaultParent</title>
<path fill="none" stroke="#6666ff" d="M-549.031,169.502C-526.598,106.837 -453.905,-96.23 -453.905,-96.23 -453.905,-96.23 -309.71,-340.855 -261.043,-423.418"/>
<polygon fill="#6666ff" stroke="#6666ff" points="-263.949,-425.381 -255.856,-432.218 -257.919,-421.826 -263.949,-425.381"/>
</g>
<!-- Metamodel::ClassHOW&#45;&gt;Metamodel::C3MRO -->
<g id="edge17" class="edge"><title>Metamodel::ClassHOW&#45;&gt;Metamodel::C3MRO</title>
<path fill="none" stroke="#6666ff" d="M-553.394,169.357C-545.628,103.071 -519.466,-120.205 -519.466,-120.205 -519.466,-120.205 -533.877,-348.679 -538.994,-429.81"/>
<polygon fill="#6666ff" stroke="#6666ff" points="-542.489,-429.613 -539.625,-439.813 -535.502,-430.053 -542.489,-429.613"/>
</g>
<!-- Metamodel::ClassHOW&#45;&gt;Metamodel::MROBasedMethodDispatch -->
<g id="edge18" class="edge"><title>Metamodel::ClassHOW&#45;&gt;Metamodel::MROBasedMethodDispatch</title>
<path fill="none" stroke="#6666ff" d="M-551.242,205.736C-538.364,259.749 -500.043,420.481 -484.384,486.157"/>
<polygon fill="#6666ff" stroke="#6666ff" points="-480.903,485.668 -481.988,496.207 -487.712,487.291 -480.903,485.668"/>
</g>
<!-- Metamodel::ClassHOW&#45;&gt;Metamodel::MROBasedTypeChecking -->
<g id="edge19" class="edge"><title>Metamodel::ClassHOW&#45;&gt;Metamodel::MROBasedTypeChecking</title>
<path fill="none" stroke="#6666ff" d="M-533.441,205.509C-463.9,261.556 -249.459,434.385 -169.472,498.851"/>
<polygon fill="#6666ff" stroke="#6666ff" points="-166.868,496.455 -161.278,505.455 -171.26,501.905 -166.868,496.455"/>
</g>
<!-- Metamodel::ClassHOW&#45;&gt;Metamodel::Trusting -->
<g id="edge20" class="edge"><title>Metamodel::ClassHOW&#45;&gt;Metamodel::Trusting</title>
<path fill="none" stroke="#6666ff" d="M-568.035,169.665C-626.974,84.5994 -877.294,-276.69 -947.247,-377.653"/>
<polygon fill="#6666ff" stroke="#6666ff" points="-950.259,-375.855 -953.077,-386.068 -944.505,-379.842 -950.259,-375.855"/>
</g>
<!-- Metamodel::ClassHOW&#45;&gt;Metamodel::BUILDPLAN -->
<g id="edge21" class="edge"><title>Metamodel::ClassHOW&#45;&gt;Metamodel::BUILDPLAN</title>
<path fill="none" stroke="#6666ff" d="M-603.959,171.649C-682.666,145.562 -838.076,94.0543 -922.795,65.9756"/>
<polygon fill="#6666ff" stroke="#6666ff" points="-924.125,69.2219 -932.516,62.7535 -921.923,62.5774 -924.125,69.2219"/>
</g>
<!-- Metamodel::ClassHOW&#45;&gt;Metamodel::Mixins -->
<g id="edge22" class="edge"><title>Metamodel::ClassHOW&#45;&gt;Metamodel::Mixins</title>
<path fill="none" stroke="#6666ff" d="M-558.561,169.361C-567.079,117.605 -591.354,-29.8841 -601.578,-92.0047"/>
<polygon fill="#6666ff" stroke="#6666ff" points="-605.035,-91.458 -603.206,-101.894 -598.128,-92.5949 -605.035,-91.458"/>
</g>
<!-- Metamodel::ClassHOW&#45;&gt;Metamodel::BoolificationProtocol -->
<g id="edge23" class="edge"><title>Metamodel::ClassHOW&#45;&gt;Metamodel::BoolificationProtocol</title>
<path fill="none" stroke="#6666ff" d="M-540.016,169.496C-498.299,120.6 -383.678,-13.7467 -335.263,-70.4929"/>
<polygon fill="#6666ff" stroke="#6666ff" points="-337.77,-72.947 -328.617,-78.2828 -332.445,-68.4037 -337.77,-72.947"/>
</g>
<!-- Metamodel::TypePretense -->
<g id="node23" class="node"><title>Metamodel::TypePretense</title>
<g id="a_node23"><a xlink:href="/type/Metamodel::TypePretense" xlink:title="Metamodel::TypePretense">
<ellipse fill="none" stroke="#6666ff" cx="984.79" cy="-405.44" rx="114.28" ry="18"/>
<text text-anchor="middle" x="984.79" y="-401.74" font-family="FreeSans" font-size="14.00" fill="#6666ff">Metamodel::TypePretense</text>
</a>
</g>
</g>
<!-- Metamodel::RolePunning -->
<g id="node24" class="node"><title>Metamodel::RolePunning</title>
<g id="a_node24"><a xlink:href="/type/Metamodel::RolePunning" xlink:title="Metamodel::RolePunning">
<ellipse fill="none" stroke="#6666ff" cx="976.819" cy="465.949" rx="109.681" ry="18"/>
<text text-anchor="middle" x="976.819" y="469.649" font-family="FreeSans" font-size="14.00" fill="#6666ff">Metamodel::RolePunning</text>
</a>
</g>
</g>
<!-- Metamodel::ParametricRoleHOW -->
<g id="node25" class="node"><title>Metamodel::ParametricRoleHOW</title>
<g id="a_node25"><a xlink:href="/type/Metamodel::ParametricRoleHOW" xlink:title="Metamodel::ParametricRoleHOW">
<ellipse fill="none" stroke="#000000" cx="567.304" cy="-113.201" rx="142.175" ry="18"/>
<text text-anchor="middle" x="567.304" y="-109.501" font-family="FreeSans" font-size="14.00" fill="#000000">Metamodel::ParametricRoleHOW</text>
</a>
</g>
</g>
<!-- Metamodel::ParametricRoleHOW&#45;&gt;Metamodel::PrivateMethodContainer -->
<g id="edge28" class="edge"><title>Metamodel::ParametricRoleHOW&#45;&gt;Metamodel::PrivateMethodContainer</title>
<path fill="none" stroke="#6666ff" d="M507.688,-96.7892C408.015,-69.3502 208.033,-14.2974 101.808,14.9449"/>
<polygon fill="#6666ff" stroke="#6666ff" points="102.71,18.3268 92.14,17.6065 100.852,11.5778 102.71,18.3268"/>
</g>
<!-- Metamodel::ParametricRoleHOW&#45;&gt;Any -->
<g id="edge3" class="edge"><title>Metamodel::ParametricRoleHOW&#45;&gt;Any</title>
<path fill="none" stroke="#000000" d="M558.635,-94.9871C529.238,-33.2294 435.169,164.395 435.169,164.395 435.169,164.395 262.869,413.477 206.66,494.734"/>
<polygon fill="#000000" stroke="#000000" points="209.263,497.124 200.695,503.357 203.506,493.141 209.263,497.124"/>
</g>
<!-- Metamodel::ParametricRoleHOW&#45;&gt;Metamodel::Naming -->
<g id="edge24" class="edge"><title>Metamodel::ParametricRoleHOW&#45;&gt;Metamodel::Naming</title>
<path fill="none" stroke="#6666ff" d="M454.736,-124.281C417.494,-127.946 376.527,-131.978 341.04,-135.471"/>
<polygon fill="#6666ff" stroke="#6666ff" points="340.308,-132.026 330.699,-136.489 340.994,-138.993 340.308,-132.026"/>
</g>
<!-- Metamodel::ParametricRoleHOW&#45;&gt;Metamodel::Documenting -->
<g id="edge25" class="edge"><title>Metamodel::ParametricRoleHOW&#45;&gt;Metamodel::Documenting</title>
<path fill="none" stroke="#6666ff" d="M539.247,-131.067C447.376,-189.566 155.601,-375.356 52.9363,-440.728"/>
<polygon fill="#6666ff" stroke="#6666ff" points="51.0063,-437.808 44.4511,-446.131 54.7661,-443.712 51.0063,-437.808"/>
</g>
<!-- Metamodel::ParametricRoleHOW&#45;&gt;Metamodel::Versioning -->
<g id="edge26" class="edge"><title>Metamodel::ParametricRoleHOW&#45;&gt;Metamodel::Versioning</title>
<path fill="none" stroke="#6666ff" d="M551.849,-131.413C502.93,-189.056 351.351,-367.666 294.208,-435"/>
<polygon fill="#6666ff" stroke="#6666ff" points="291.212,-433.121 287.41,-443.01 296.549,-437.65 291.212,-433.121"/>
</g>
<!-- Metamodel::ParametricRoleHOW&#45;&gt;Metamodel::Stashing -->
<g id="edge33" class="edge"><title>Metamodel::ParametricRoleHOW&#45;&gt;Metamodel::Stashing</title>
<path fill="none" stroke="#6666ff" d="M523.056,-96.0205C423.011,-57.1758 188.044,34.0558 188.044,34.0558 188.044,34.0558 -69.5776,127.425 -183.908,168.862"/>
<polygon fill="#6666ff" stroke="#6666ff" points="-182.936,172.232 -193.53,172.349 -185.321,165.651 -182.936,172.232"/>
</g>
<!-- Metamodel::ParametricRoleHOW&#45;&gt;Metamodel::AttributeContainer -->
<g id="edge30" class="edge"><title>Metamodel::ParametricRoleHOW&#45;&gt;Metamodel::AttributeContainer</title>
<path fill="none" stroke="#6666ff" d="M569.86,-95.1669C577.044,-44.4835 597.457,99.5348 606.183,161.105"/>
<polygon fill="#6666ff" stroke="#6666ff" points="609.685,160.873 607.623,171.265 602.754,161.855 609.685,160.873"/>
</g>
<!-- Metamodel::ParametricRoleHOW&#45;&gt;Metamodel::MethodContainer -->
<g id="edge27" class="edge"><title>Metamodel::ParametricRoleHOW&#45;&gt;Metamodel::MethodContainer</title>
<path fill="none" stroke="#6666ff" d="M550.171,-94.9787C504.968,-46.9008 382.379,83.4817 330.208,138.969"/>
<polygon fill="#6666ff" stroke="#6666ff" points="332.44,141.706 323.04,146.594 327.34,136.911 332.44,141.706"/>
</g>
<!-- Metamodel::ParametricRoleHOW&#45;&gt;Metamodel::MultiMethodContainer -->
<g id="edge29" class="edge"><title>Metamodel::ParametricRoleHOW&#45;&gt;Metamodel::MultiMethodContainer</title>
<path fill="none" stroke="#6666ff" d="M542.308,-95.423C455.388,-33.6053 166.255,172.028 67.5663,242.216"/>
<polygon fill="#6666ff" stroke="#6666ff" points="69.3397,245.25 59.162,248.193 65.2826,239.545 69.3397,245.25"/>
</g>
<!-- Metamodel::ParametricRoleHOW&#45;&gt;Metamodel::RoleContainer -->
<g id="edge31" class="edge"><title>Metamodel::ParametricRoleHOW&#45;&gt;Metamodel::RoleContainer</title>
<path fill="none" stroke="#6666ff" d="M430.353,-118.248C344.422,-121.415 249.806,-124.902 249.806,-124.902 249.806,-124.902 184.642,-130.565 184.642,-130.565 184.642,-130.565 97.0172,-146.131 26.6536,-158.631"/>
<polygon fill="#6666ff" stroke="#6666ff" points="25.6434,-155.255 16.4098,-160.45 26.8678,-162.147 25.6434,-155.255"/>
</g>
<!-- Metamodel::ParametricRoleHOW&#45;&gt;Metamodel::MultipleInheritance -->
<g id="edge32" class="edge"><title>Metamodel::ParametricRoleHOW&#45;&gt;Metamodel::MultipleInheritance</title>
<path fill="none" stroke="#6666ff" d="M567.34,-131.512C567.449,-187.529 567.777,-356.904 567.91,-424.986"/>
<polygon fill="#6666ff" stroke="#6666ff" points="564.41,-425.384 567.93,-435.378 571.41,-425.371 564.41,-425.384"/>
</g>
<!-- Metamodel::ParametricRoleHOW&#45;&gt;Metamodel::TypePretense -->
<g id="edge34" class="edge"><title>Metamodel::ParametricRoleHOW&#45;&gt;Metamodel::TypePretense</title>
<path fill="none" stroke="#6666ff" d="M592.792,-131.042C664.874,-181.5 870.215,-325.237 951.283,-381.985"/>
<polygon fill="#6666ff" stroke="#6666ff" points="949.437,-384.965 959.637,-387.833 953.452,-379.231 949.437,-384.965"/>
</g>
<!-- Metamodel::ParametricRoleHOW&#45;&gt;Metamodel::RolePunning -->
<g id="edge35" class="edge"><title>Metamodel::ParametricRoleHOW&#45;&gt;Metamodel::RolePunning</title>
<path fill="none" stroke="#6666ff" d="M580.009,-95.233C639.177,-11.5553 887.807,340.065 958.184,439.596"/>
<polygon fill="#6666ff" stroke="#6666ff" points="961.144,437.719 964.06,447.904 955.428,441.76 961.144,437.719"/>
</g>
<!-- Metamodel::ConcreteRoleHOW -->
<g id="node26" class="node"><title>Metamodel::ConcreteRoleHOW</title>
<g id="a_node26"><a xlink:href="/type/Metamodel::ConcreteRoleHOW" xlink:title="Metamodel::ConcreteRoleHOW">
<ellipse fill="none" stroke="#000000" cx="998.746" cy="26.6618" rx="135.676" ry="18"/>
<text text-anchor="middle" x="998.746" y="30.3618" font-family="FreeSans" font-size="14.00" fill="#000000">Metamodel::ConcreteRoleHOW</text>
</a>
</g>
</g>
<!-- Metamodel::ConcreteRoleHOW&#45;&gt;Metamodel::PrivateMethodContainer -->
<g id="edge38" class="edge"><title>Metamodel::ConcreteRoleHOW&#45;&gt;Metamodel::PrivateMethodContainer</title>
<path fill="none" stroke="#6666ff" d="M863.018,27.7237C688.14,29.092 384.346,31.4689 196.448,32.939"/>
<polygon fill="#6666ff" stroke="#6666ff" points="196.223,36.4408 186.196,33.0192 196.169,29.441 196.223,36.4408"/>
</g>
<!-- Metamodel::ConcreteRoleHOW&#45;&gt;Any -->
<g id="edge4" class="edge"><title>Metamodel::ConcreteRoleHOW&#45;&gt;Any</title>
<path fill="none" stroke="#000000" d="M970.76,44.4023C904.167,86.6159 741.808,189.537 741.808,189.537 741.808,189.537 332.525,434.297 218.394,502.55"/>
<polygon fill="#000000" stroke="#000000" points="219.863,505.75 209.484,507.878 216.27,499.742 219.863,505.75"/>
</g>
<!-- Metamodel::ConcreteRoleHOW&#45;&gt;Metamodel::Naming -->
<g id="edge36" class="edge"><title>Metamodel::ConcreteRoleHOW&#45;&gt;Metamodel::Naming</title>
<path fill="none" stroke="#6666ff" d="M930.25,11.0184C787.949,-21.4806 461.706,-95.9891 318.657,-128.659"/>
<polygon fill="#6666ff" stroke="#6666ff" points="317.648,-125.299 308.679,-130.938 319.207,-132.124 317.648,-125.299"/>
</g>
<!-- Metamodel::ConcreteRoleHOW&#45;&gt;Metamodel::Versioning -->
<g id="edge37" class="edge"><title>Metamodel::ConcreteRoleHOW&#45;&gt;Metamodel::Versioning</title>
<path fill="none" stroke="#6666ff" d="M972.023,8.72577C860.503,-66.1238 432.222,-353.576 306.805,-437.753"/>
<polygon fill="#6666ff" stroke="#6666ff" points="304.66,-434.978 298.307,-443.457 308.561,-440.79 304.66,-434.978"/>
</g>
<!-- Metamodel::ConcreteRoleHOW&#45;&gt;Metamodel::AttributeContainer -->
<g id="edge41" class="edge"><title>Metamodel::ConcreteRoleHOW&#45;&gt;Metamodel::AttributeContainer</title>
<path fill="none" stroke="#6666ff" d="M957.535,43.9434C885.804,74.0232 738.255,135.897 660.58,168.469"/>
<polygon fill="#6666ff" stroke="#6666ff" points="661.584,171.844 651.008,172.483 658.877,165.388 661.584,171.844"/>
</g>
<!-- Metamodel::ConcreteRoleHOW&#45;&gt;Metamodel::MethodContainer -->
<g id="edge39" class="edge"><title>Metamodel::ConcreteRoleHOW&#45;&gt;Metamodel::MethodContainer</title>
<path fill="none" stroke="#6666ff" d="M923.311,41.6777C792.83,67.651 525.946,120.776 389.917,147.854"/>
<polygon fill="#6666ff" stroke="#6666ff" points="390.446,151.317 379.955,149.837 389.079,144.452 390.446,151.317"/>
</g>
<!-- Metamodel::ConcreteRoleHOW&#45;&gt;Metamodel::MultiMethodContainer -->
<g id="edge40" class="edge"><title>Metamodel::ConcreteRoleHOW&#45;&gt;Metamodel::MultiMethodContainer</title>
<path fill="none" stroke="#6666ff" d="M935.589,42.6022C781.345,81.5325 397.981,178.291 397.981,178.291 397.981,178.291 217.404,221.798 110.708,247.504"/>
<polygon fill="#6666ff" stroke="#6666ff" points="111.48,250.918 100.939,249.858 109.841,244.113 111.48,250.918"/>
</g>
<!-- Metamodel::ConcreteRoleHOW&#45;&gt;Metamodel::RoleContainer -->
<g id="edge42" class="edge"><title>Metamodel::ConcreteRoleHOW&#45;&gt;Metamodel::RoleContainer</title>
<path fill="none" stroke="#6666ff" d="M920.895,11.905C726.945,-24.8584 223.483,-120.29 23.5909,-158.18"/>
<polygon fill="#6666ff" stroke="#6666ff" points="22.903,-154.748 13.7297,-160.049 24.2067,-161.625 22.903,-154.748"/>
</g>
<!-- Metamodel::ConcreteRoleHOW&#45;&gt;Metamodel::MultipleInheritance -->
<g id="edge43" class="edge"><title>Metamodel::ConcreteRoleHOW&#45;&gt;Metamodel::MultipleInheritance</title>
<path fill="none" stroke="#6666ff" d="M982.645,8.70479C916.806,-64.7238 667.914,-342.308 590.851,-428.255"/>
<polygon fill="#6666ff" stroke="#6666ff" points="588.217,-425.95 584.147,-435.732 593.429,-430.623 588.217,-425.95"/>
</g>
</g>
</svg>
