<?xml version="1.0" encoding="UTF-8" standalone="no"?>
<!DOCTYPE svg PUBLIC "-//W3C//DTD SVG 1.1//EN"
 "http://www.w3.org/Graphics/SVG/1.1/DTD/svg11.dtd">
<!-- Generated by graphviz version 2.38.0 (20140413.2041)
 -->
<!-- Title: perl6&#45;type&#45;graph Pages: 1 -->
<svg width="2306pt" height="1303pt"
 viewBox="0.00 0.00 2306.12 1303.07" xmlns="http://www.w3.org/2000/svg" xmlns:xlink="http://www.w3.org/1999/xlink">
<g id="graph0" class="graph" transform="scale(1 1) rotate(0) translate(1130.73 626.212)">
<title>perl6&#45;type&#45;graph</title>
<polygon fill="white" stroke="none" points="-1130.73,676.857 -1130.73,-626.212 1175.4,-626.212 1175.4,676.857 -1130.73,676.857"/>
<!-- Metamodel::RoleContainer -->
<g id="node1" class="node"><title>Metamodel::RoleContainer</title>
<g id="a_node1"><a xlink:href="/type/Metamodel::RoleContainer" xlink:title="Metamodel::RoleContainer">
<ellipse fill="none" stroke="#6666ff" cx="-221.101" cy="6.51945" rx="115.88" ry="18"/>
<text text-anchor="middle" x="-221.101" y="10.2195" font-family="FreeSans" font-size="14.00" fill="#6666ff">Metamodel::RoleContainer</text>
</a>
</g>
</g>
<!-- Mu -->
<g id="node2" class="node"><title>Mu</title>
<g id="a_node2"><a xlink:href="/type/Mu" xlink:title="Mu">
<ellipse fill="none" stroke="#000000" cx="1057.18" cy="552.812" rx="27" ry="18"/>
<text text-anchor="middle" x="1057.18" y="556.512" font-family="FreeSans" font-size="14.00" fill="#000000">Mu</text>
</a>
</g>
</g>
<!-- Any -->
<g id="node3" class="node"><title>Any</title>
<g id="a_node3"><a xlink:href="/type/Any" xlink:title="Any">
<ellipse fill="none" stroke="#000000" cx="599.591" cy="641.989" rx="27" ry="18"/>
<text text-anchor="middle" x="599.591" y="645.689" font-family="FreeSans" font-size="14.00" fill="#000000">Any</text>
</a>
</g>
</g>
<!-- Any&#45;&gt;Mu -->
<g id="edge1" class="edge"><title>Any&#45;&gt;Mu</title>
<path fill="none" stroke="#000000" d="M625.836,636.875C703.473,621.744 932.131,577.182 1021.14,559.835"/>
<polygon fill="#000000" stroke="#000000" points="1020.56,556.384 1031.04,557.906 1021.9,563.255 1020.56,556.384"/>
</g>
<!-- Metamodel::Naming -->
<g id="node4" class="node"><title>Metamodel::Naming</title>
<g id="a_node4"><a xlink:href="/type/Metamodel::Naming" xlink:title="Metamodel::Naming">
<ellipse fill="none" stroke="#6666ff" cx="264.243" cy="-197.652" rx="90.1842" ry="18"/>
<text text-anchor="middle" x="264.243" y="-193.952" font-family="FreeSans" font-size="14.00" fill="#6666ff">Metamodel::Naming</text>
</a>
</g>
</g>
<!-- Metamodel::Documenting -->
<g id="node5" class="node"><title>Metamodel::Documenting</title>
<g id="a_node5"><a xlink:href="/type/Metamodel::Documenting" xlink:title="Metamodel::Documenting">
<ellipse fill="none" stroke="#6666ff" cx="-10.3019" cy="-604.212" rx="111.28" ry="18"/>
<text text-anchor="middle" x="-10.3019" y="-600.512" font-family="FreeSans" font-size="14.00" fill="#6666ff">Metamodel::Documenting</text>
</a>
</g>
</g>
<!-- Metamodel::Versioning -->
<g id="node6" class="node"><title>Metamodel::Versioning</title>
<g id="a_node6"><a xlink:href="/type/Metamodel::Versioning" xlink:title="Metamodel::Versioning">
<ellipse fill="none" stroke="#6666ff" cx="255.676" cy="-559.793" rx="100.983" ry="18"/>
<text text-anchor="middle" x="255.676" y="-556.093" font-family="FreeSans" font-size="14.00" fill="#6666ff">Metamodel::Versioning</text>
</a>
</g>
</g>
<!-- Metamodel::Stashing -->
<g id="node7" class="node"><title>Metamodel::Stashing</title>
<g id="a_node7"><a xlink:href="/type/Metamodel::Stashing" xlink:title="Metamodel::Stashing">
<ellipse fill="none" stroke="#6666ff" cx="-211.356" cy="292.531" rx="93.6835" ry="18"/>
<text text-anchor="middle" x="-211.356" y="296.231" font-family="FreeSans" font-size="14.00" fill="#6666ff">Metamodel::Stashing</text>
</a>
</g>
</g>
<!-- Metamodel::AttributeContainer -->
<g id="node8" class="node"><title>Metamodel::AttributeContainer</title>
<g id="a_node8"><a xlink:href="/type/Metamodel::AttributeContainer" xlink:title="Metamodel::AttributeContainer">
<ellipse fill="none" stroke="#6666ff" cx="55.931" cy="22.9823" rx="129.977" ry="18"/>
<text text-anchor="middle" x="55.931" y="26.6823" font-family="FreeSans" font-size="14.00" fill="#6666ff">Metamodel::AttributeContainer</text>
</a>
</g>
</g>
<!-- Metamodel::Finalization -->
<g id="node9" class="node"><title>Metamodel::Finalization</title>
<g id="a_node9"><a xlink:href="/type/Metamodel::Finalization" xlink:title="Metamodel::Finalization">
<ellipse fill="none" stroke="#6666ff" cx="-1022.74" cy="192.527" rx="103.982" ry="18"/>
<text text-anchor="middle" x="-1022.74" y="196.227" font-family="FreeSans" font-size="14.00" fill="#6666ff">Metamodel::Finalization</text>
</a>
</g>
</g>
<!-- Metamodel::MethodContainer -->
<g id="node10" class="node"><title>Metamodel::MethodContainer</title>
<g id="a_node10"><a xlink:href="/type/Metamodel::MethodContainer" xlink:title="Metamodel::MethodContainer">
<ellipse fill="none" stroke="#6666ff" cx="86.4964" cy="296.6" rx="127.277" ry="18"/>
<text text-anchor="middle" x="86.4964" y="300.3" font-family="FreeSans" font-size="14.00" fill="#6666ff">Metamodel::MethodContainer</text>
</a>
</g>
</g>
<!-- Metamodel::PrivateMethodContainer -->
<g id="node11" class="node"><title>Metamodel::PrivateMethodContainer</title>
<g id="a_node11"><a xlink:href="/type/Metamodel::PrivateMethodContainer" xlink:title="Metamodel::PrivateMethodContainer">
<ellipse fill="none" stroke="#6666ff" cx="575.898" cy="-568.295" rx="154.873" ry="18"/>
<text text-anchor="middle" x="575.898" y="-564.595" font-family="FreeSans" font-size="14.00" fill="#6666ff">Metamodel::PrivateMethodContainer</text>
</a>
</g>
</g>
<!-- Metamodel::MultiMethodContainer -->
<g id="node12" class="node"><title>Metamodel::MultiMethodContainer</title>
<g id="a_node12"><a xlink:href="/type/Metamodel::MultiMethodContainer" xlink:title="Metamodel::MultiMethodContainer">
<ellipse fill="none" stroke="#6666ff" cx="-66.9201" cy="-246.235" rx="146.474" ry="18"/>
<text text-anchor="middle" x="-66.9201" y="-242.535" font-family="FreeSans" font-size="14.00" fill="#6666ff">Metamodel::MultiMethodContainer</text>
</a>
</g>
</g>
<!-- Metamodel::MultipleInheritance -->
<g id="node13" class="node"><title>Metamodel::MultipleInheritance</title>
<g id="a_node13"><a xlink:href="/type/Metamodel::MultipleInheritance" xlink:title="Metamodel::MultipleInheritance">
<ellipse fill="none" stroke="#6666ff" cx="334.542" cy="138.701" rx="133.776" ry="18"/>
<text text-anchor="middle" x="334.542" y="142.401" font-family="FreeSans" font-size="14.00" fill="#6666ff">Metamodel::MultipleInheritance</text>
</a>
</g>
</g>
<!-- Metamodel::DefaultParent -->
<g id="node14" class="node"><title>Metamodel::DefaultParent</title>
<g id="a_node14"><a xlink:href="/type/Metamodel::DefaultParent" xlink:title="Metamodel::DefaultParent">
<ellipse fill="none" stroke="#6666ff" cx="-273.154" cy="-548.866" rx="113.18" ry="18"/>
<text text-anchor="middle" x="-273.154" y="-545.166" font-family="FreeSans" font-size="14.00" fill="#6666ff">Metamodel::DefaultParent</text>
</a>
</g>
</g>
<!-- Metamodel::C3MRO -->
<g id="node15" class="node"><title>Metamodel::C3MRO</title>
<g id="a_node15"><a xlink:href="/type/Metamodel::C3MRO" xlink:title="Metamodel::C3MRO">
<ellipse fill="none" stroke="#6666ff" cx="-576.52" cy="-558.565" rx="92.0841" ry="18"/>
<text text-anchor="middle" x="-576.52" y="-554.865" font-family="FreeSans" font-size="14.00" fill="#6666ff">Metamodel::C3MRO</text>
</a>
</g>
</g>
<!-- Metamodel::MROBasedMethodDispatch -->
<g id="node16" class="node"><title>Metamodel::MROBasedMethodDispatch</title>
<g id="a_node16"><a xlink:href="/type/Metamodel::MROBasedMethodDispatch" xlink:title="Metamodel::MROBasedMethodDispatch">
<ellipse fill="none" stroke="#6666ff" cx="-553.44" cy="582.087" rx="169.77" ry="18"/>
<text text-anchor="middle" x="-553.44" y="585.787" font-family="FreeSans" font-size="14.00" fill="#6666ff">Metamodel::MROBasedMethodDispatch</text>
</a>
</g>
</g>
<!-- Metamodel::MROBasedTypeChecking -->
<g id="node17" class="node"><title>Metamodel::MROBasedTypeChecking</title>
<g id="a_node17"><a xlink:href="/type/Metamodel::MROBasedTypeChecking" xlink:title="Metamodel::MROBasedTypeChecking">
<ellipse fill="none" stroke="#6666ff" cx="-249.29" cy="650.817" rx="163.271" ry="18"/>
<text text-anchor="middle" x="-249.29" y="654.517" font-family="FreeSans" font-size="14.00" fill="#6666ff">Metamodel::MROBasedTypeChecking</text>
</a>
</g>
</g>
<!-- Metamodel::Trusting -->
<g id="node18" class="node"><title>Metamodel::Trusting</title>
<g id="a_node18"><a xlink:href="/type/Metamodel::Trusting" xlink:title="Metamodel::Trusting">
<ellipse fill="none" stroke="#6666ff" cx="-944.115" cy="-142.451" rx="91.784" ry="18"/>
<text text-anchor="middle" x="-944.115" y="-138.751" font-family="FreeSans" font-size="14.00" fill="#6666ff">Metamodel::Trusting</text>
</a>
</g>
</g>
<!-- Metamodel::BUILDPLAN -->
<g id="node19" class="node"><title>Metamodel::BUILDPLAN</title>
<g id="a_node19"><a xlink:href="/type/Metamodel::BUILDPLAN" xlink:title="Metamodel::BUILDPLAN">
<ellipse fill="none" stroke="#6666ff" cx="-1002.27" cy="614.31" rx="109.681" ry="18"/>
<text text-anchor="middle" x="-1002.27" y="618.01" font-family="FreeSans" font-size="14.00" fill="#6666ff">Metamodel::BUILDPLAN</text>
</a>
</g>
</g>
<!-- Metamodel::Mixins -->
<g id="node20" class="node"><title>Metamodel::Mixins</title>
<g id="a_node20"><a xlink:href="/type/Metamodel::Mixins" xlink:title="Metamodel::Mixins">
<ellipse fill="none" stroke="#6666ff" cx="-1028.33" cy="-538.694" rx="85.2851" ry="18"/>
<text text-anchor="middle" x="-1028.33" y="-534.994" font-family="FreeSans" font-size="14.00" fill="#6666ff">Metamodel::Mixins</text>
</a>
</g>
</g>
<!-- Metamodel::BoolificationProtocol -->
<g id="node21" class="node"><title>Metamodel::BoolificationProtocol</title>
<g id="a_node21"><a xlink:href="/type/Metamodel::BoolificationProtocol" xlink:title="Metamodel::BoolificationProtocol">
<ellipse fill="none" stroke="#6666ff" cx="-542.851" cy="165.004" rx="139.175" ry="18"/>
<text text-anchor="middle" x="-542.851" y="168.704" font-family="FreeSans" font-size="14.00" fill="#6666ff">Metamodel::BoolificationProtocol</text>
</a>
</g>
</g>
<!-- Metamodel::ClassHOW -->
<g id="node22" class="node"><title>Metamodel::ClassHOW</title>
<g id="a_node22"><a xlink:href="/type/Metamodel::ClassHOW" xlink:title="Metamodel::ClassHOW">
<ellipse fill="none" stroke="#000000" cx="-465.207" cy="-179.142" rx="103.982" ry="18"/>
<text text-anchor="middle" x="-465.207" y="-175.442" font-family="FreeSans" font-size="14.00" fill="#000000">Metamodel::ClassHOW</text>
</a>
</g>
</g>
<!-- Metamodel::ClassHOW&#45;&gt;Metamodel::RoleContainer -->
<g id="edge15" class="edge"><title>Metamodel::ClassHOW&#45;&gt;Metamodel::RoleContainer</title>
<path fill="none" stroke="#6666ff" d="M-441.801,-161.34C-397.694,-127.793 -302.251,-55.2016 -252.578,-17.4217"/>
<polygon fill="#6666ff" stroke="#6666ff" points="-250.277,-20.0682 -244.436,-11.2287 -254.514,-14.4966 -250.277,-20.0682"/>
</g>
<!-- Metamodel::ClassHOW&#45;&gt;Any -->
<g id="edge2" class="edge"><title>Metamodel::ClassHOW&#45;&gt;Any</title>
<path fill="none" stroke="#000000" d="M-431.856,-162.017C-342.389,-116.078 -103.812,6.42636 -103.812,6.42636 -103.812,6.42636 452.911,509.456 575.783,620.478"/>
<polygon fill="#000000" stroke="#000000" points="578.166,617.914 583.239,627.215 573.473,623.107 578.166,617.914"/>
</g>
<!-- Metamodel::ClassHOW&#45;&gt;Metamodel::Naming -->
<g id="edge6" class="edge"><title>Metamodel::ClassHOW&#45;&gt;Metamodel::Naming</title>
<path fill="none" stroke="#6666ff" d="M-362.242,-181.755C-222.398,-185.304 25.9581,-191.606 164.246,-195.115"/>
<polygon fill="#6666ff" stroke="#6666ff" points="164.333,-198.618 174.418,-195.373 164.51,-191.62 164.333,-198.618"/>
</g>
<!-- Metamodel::ClassHOW&#45;&gt;Metamodel::Documenting -->
<g id="edge7" class="edge"><title>Metamodel::ClassHOW&#45;&gt;Metamodel::Documenting</title>
<path fill="none" stroke="#6666ff" d="M-446.24,-196.866C-374.564,-263.84 -120.088,-501.627 -36.8584,-579.397"/>
<polygon fill="#6666ff" stroke="#6666ff" points="-39.0466,-582.143 -29.3504,-586.413 -34.2674,-577.028 -39.0466,-582.143"/>
</g>
<!-- Metamodel::ClassHOW&#45;&gt;Metamodel::Versioning -->
<g id="edge8" class="edge"><title>Metamodel::ClassHOW&#45;&gt;Metamodel::Versioning</title>
<path fill="none" stroke="#6666ff" d="M-432.359,-196.487C-314.947,-258.485 83.8737,-469.075 214.141,-537.861"/>
<polygon fill="#6666ff" stroke="#6666ff" points="212.571,-540.99 223.048,-542.564 215.84,-534.8 212.571,-540.99"/>
</g>
<!-- Metamodel::ClassHOW&#45;&gt;Metamodel::Stashing -->
<g id="edge9" class="edge"><title>Metamodel::ClassHOW&#45;&gt;Metamodel::Stashing</title>
<path fill="none" stroke="#6666ff" d="M-455.411,-160.941C-416.461,-88.5685 -272.425,179.06 -225.93,265.453"/>
<polygon fill="#6666ff" stroke="#6666ff" points="-222.78,263.92 -221.123,274.384 -228.944,267.237 -222.78,263.92"/>
</g>
<!-- Metamodel::ClassHOW&#45;&gt;Metamodel::AttributeContainer -->
<g id="edge10" class="edge"><title>Metamodel::ClassHOW&#45;&gt;Metamodel::AttributeContainer</title>
<path fill="none" stroke="#6666ff" d="M-422.56,-162.601C-328.031,-125.938 -101.083,-37.9157 2.61501,2.30361"/>
<polygon fill="#6666ff" stroke="#6666ff" points="3.90107,-0.951698 11.9587,5.92759 1.36978,5.57462 3.90107,-0.951698"/>
</g>
<!-- Metamodel::ClassHOW&#45;&gt;Metamodel::Finalization -->
<g id="edge11" class="edge"><title>Metamodel::ClassHOW&#45;&gt;Metamodel::Finalization</title>
<path fill="none" stroke="#6666ff" d="M-491.35,-161.714C-582.243,-101.122 -884.56,100.413 -987.817,169.248"/>
<polygon fill="#6666ff" stroke="#6666ff" points="-986.066,172.287 -996.328,174.921 -989.949,166.462 -986.066,172.287"/>
</g>
<!-- Metamodel::ClassHOW&#45;&gt;Metamodel::MethodContainer -->
<g id="edge12" class="edge"><title>Metamodel::ClassHOW&#45;&gt;Metamodel::MethodContainer</title>
<path fill="none" stroke="#6666ff" d="M-452.816,-160.993C-420.906,-114.252 -338.389,6.61255 -338.389,6.61255 -338.389,6.61255 -48.817,204.248 52.2158,273.204"/>
<polygon fill="#6666ff" stroke="#6666ff" points="54.271,270.369 60.5575,278.897 50.3248,276.15 54.271,270.369"/>
</g>
<!-- Metamodel::ClassHOW&#45;&gt;Metamodel::PrivateMethodContainer -->
<g id="edge13" class="edge"><title>Metamodel::ClassHOW&#45;&gt;Metamodel::PrivateMethodContainer</title>
<path fill="none" stroke="#6666ff" d="M-421.468,-195.491C-255.495,-257.53 335.32,-478.37 520.186,-547.471"/>
<polygon fill="#6666ff" stroke="#6666ff" points="519.122,-550.81 529.714,-551.033 521.573,-544.253 519.122,-550.81"/>
</g>
<!-- Metamodel::ClassHOW&#45;&gt;Metamodel::MultiMethodContainer -->
<g id="edge14" class="edge"><title>Metamodel::ClassHOW&#45;&gt;Metamodel::MultiMethodContainer</title>
<path fill="none" stroke="#6666ff" d="M-390.292,-191.762C-326.074,-202.58 -233.159,-218.231 -163.389,-229.984"/>
<polygon fill="#6666ff" stroke="#6666ff" points="-163.712,-233.479 -153.27,-231.689 -162.549,-226.576 -163.712,-233.479"/>
</g>
<!-- Metamodel::ClassHOW&#45;&gt;Metamodel::MultipleInheritance -->
<g id="edge16" class="edge"><title>Metamodel::ClassHOW&#45;&gt;Metamodel::MultipleInheritance</title>
<path fill="none" stroke="#6666ff" d="M-431.856,-162.017C-342.389,-116.078 -103.812,6.42636 -103.812,6.42636 -103.812,6.42636 -75.6557,23.0822 -75.6557,23.0822 -75.6557,23.0822 -36.6407,36.9121 -36.6407,36.9121 -36.6407,36.9121 158.168,90.3343 265.526,119.775"/>
<polygon fill="#6666ff" stroke="#6666ff" points="266.598,116.44 275.316,122.46 264.747,123.19 266.598,116.44"/>
</g>
<!-- Metamodel::ClassHOW&#45;&gt;Metamodel::DefaultParent -->
<g id="edge17" class="edge"><title>Metamodel::ClassHOW&#45;&gt;Metamodel::DefaultParent</title>
<path fill="none" stroke="#6666ff" d="M-455.814,-197.225C-424.67,-257.181 -324.67,-449.693 -287.363,-521.511"/>
<polygon fill="#6666ff" stroke="#6666ff" points="-290.245,-523.557 -282.529,-530.818 -284.033,-520.33 -290.245,-523.557"/>
</g>
<!-- Metamodel::ClassHOW&#45;&gt;Metamodel::C3MRO -->
<g id="edge18" class="edge"><title>Metamodel::ClassHOW&#45;&gt;Metamodel::C3MRO</title>
<path fill="none" stroke="#6666ff" d="M-470.501,-197.187C-488.374,-258.107 -546.57,-456.475 -568.267,-530.432"/>
<polygon fill="#6666ff" stroke="#6666ff" points="-571.737,-529.829 -571.194,-540.41 -565.02,-531.799 -571.737,-529.829"/>
</g>
<!-- Metamodel::ClassHOW&#45;&gt;Metamodel::MROBasedMethodDispatch -->
<g id="edge19" class="edge"><title>Metamodel::ClassHOW&#45;&gt;Metamodel::MROBasedMethodDispatch</title>
<path fill="none" stroke="#6666ff" d="M-461.906,-161.126C-448.935,-90.3232 -402.164,164.965 -402.164,164.965 -402.164,164.965 -509.526,461 -543.357,554.285"/>
<polygon fill="#6666ff" stroke="#6666ff" points="-540.143,555.688 -546.842,563.895 -546.723,553.301 -540.143,555.688"/>
</g>
<!-- Metamodel::ClassHOW&#45;&gt;Metamodel::MROBasedTypeChecking -->
<g id="edge20" class="edge"><title>Metamodel::ClassHOW&#45;&gt;Metamodel::MROBasedTypeChecking</title>
<path fill="none" stroke="#6666ff" d="M-460.497,-161.035C-432.754,-54.3943 -290.716,491.582 -256.644,622.551"/>
<polygon fill="#6666ff" stroke="#6666ff" points="-253.162,622.035 -254.031,632.594 -259.936,623.797 -253.162,622.035"/>
</g>
<!-- Metamodel::ClassHOW&#45;&gt;Metamodel::Trusting -->
<g id="edge21" class="edge"><title>Metamodel::ClassHOW&#45;&gt;Metamodel::Trusting</title>
<path fill="none" stroke="#6666ff" d="M-560.396,-171.849C-643.883,-165.453 -764.672,-156.199 -848.334,-149.789"/>
<polygon fill="#6666ff" stroke="#6666ff" points="-848.11,-146.296 -858.348,-149.022 -848.645,-153.276 -848.11,-146.296"/>
</g>
<!-- Metamodel::ClassHOW&#45;&gt;Metamodel::BUILDPLAN -->
<g id="edge22" class="edge"><title>Metamodel::ClassHOW&#45;&gt;Metamodel::BUILDPLAN</title>
<path fill="none" stroke="#6666ff" d="M-477.433,-161.079C-547.731,-57.2215 -900.235,463.569 -984.264,587.713"/>
<polygon fill="#6666ff" stroke="#6666ff" points="-981.555,589.955 -990.059,596.275 -987.352,586.032 -981.555,589.955"/>
</g>
<!-- Metamodel::ClassHOW&#45;&gt;Metamodel::Mixins -->
<g id="edge23" class="edge"><title>Metamodel::ClassHOW&#45;&gt;Metamodel::Mixins</title>
<path fill="none" stroke="#6666ff" d="M-492.749,-196.727C-585.868,-256.184 -888.928,-449.688 -992.92,-516.087"/>
<polygon fill="#6666ff" stroke="#6666ff" points="-994.951,-513.231 -1001.5,-521.563 -991.184,-519.131 -994.951,-513.231"/>
</g>
<!-- Metamodel::ClassHOW&#45;&gt;Metamodel::BoolificationProtocol -->
<g id="edge24" class="edge"><title>Metamodel::ClassHOW&#45;&gt;Metamodel::BoolificationProtocol</title>
<path fill="none" stroke="#6666ff" d="M-469.272,-161.124C-481.979,-104.805 -521.017,68.226 -536.464,136.692"/>
<polygon fill="#6666ff" stroke="#6666ff" points="-533.117,137.764 -538.733,146.748 -539.946,136.223 -533.117,137.764"/>
</g>
<!-- Metamodel::TypePretense -->
<g id="node23" class="node"><title>Metamodel::TypePretense</title>
<g id="a_node23"><a xlink:href="/type/Metamodel::TypePretense" xlink:title="Metamodel::TypePretense">
<ellipse fill="none" stroke="#6666ff" cx="1043.5" cy="-506.858" rx="114.28" ry="18"/>
<text text-anchor="middle" x="1043.5" y="-503.158" font-family="FreeSans" font-size="14.00" fill="#6666ff">Metamodel::TypePretense</text>
</a>
</g>
</g>
<!-- Metamodel::RolePunning -->
<g id="node24" class="node"><title>Metamodel::RolePunning</title>
<g id="a_node24"><a xlink:href="/type/Metamodel::RolePunning" xlink:title="Metamodel::RolePunning">
<ellipse fill="none" stroke="#6666ff" cx="1061.56" cy="16.29" rx="109.681" ry="18"/>
<text text-anchor="middle" x="1061.56" y="19.99" font-family="FreeSans" font-size="14.00" fill="#6666ff">Metamodel::RolePunning</text>
</a>
</g>
</g>
<!-- Metamodel::ParametricRoleHOW -->
<g id="node25" class="node"><title>Metamodel::ParametricRoleHOW</title>
<g id="a_node25"><a xlink:href="/type/Metamodel::ParametricRoleHOW" xlink:title="Metamodel::ParametricRoleHOW">
<ellipse fill="none" stroke="#000000" cx="606.797" cy="-153.387" rx="142.175" ry="18"/>
<text text-anchor="middle" x="606.797" y="-149.687" font-family="FreeSans" font-size="14.00" fill="#000000">Metamodel::ParametricRoleHOW</text>
</a>
</g>
</g>
<!-- Metamodel::ParametricRoleHOW&#45;&gt;Metamodel::RoleContainer -->
<g id="edge32" class="edge"><title>Metamodel::ParametricRoleHOW&#45;&gt;Metamodel::RoleContainer</title>
<path fill="none" stroke="#6666ff" d="M528.538,-138.271C372.151,-108.066 22.3154,-40.4958 -137.986,-9.53397"/>
<polygon fill="#6666ff" stroke="#6666ff" points="-137.784,-6.00832 -148.267,-7.5483 -139.112,-12.8813 -137.784,-6.00832"/>
</g>
<!-- Metamodel::ParametricRoleHOW&#45;&gt;Any -->
<g id="edge3" class="edge"><title>Metamodel::ParametricRoleHOW&#45;&gt;Any</title>
<path fill="none" stroke="#000000" d="M601.588,-135.246C579.819,-59.4411 497.257,228.055 497.257,228.055 497.257,228.055 569.899,521.889 592.777,614.429"/>
<polygon fill="#000000" stroke="#000000" points="596.191,613.655 595.194,624.203 589.396,615.335 596.191,613.655"/>
</g>
<!-- Metamodel::ParametricRoleHOW&#45;&gt;Metamodel::Naming -->
<g id="edge25" class="edge"><title>Metamodel::ParametricRoleHOW&#45;&gt;Metamodel::Naming</title>
<path fill="none" stroke="#6666ff" d="M506.796,-166.309C457.109,-172.73 397.682,-180.409 350.087,-186.559"/>
<polygon fill="#6666ff" stroke="#6666ff" points="349.587,-183.095 340.118,-187.848 350.484,-190.037 349.587,-183.095"/>
</g>
<!-- Metamodel::ParametricRoleHOW&#45;&gt;Metamodel::Documenting -->
<g id="edge26" class="edge"><title>Metamodel::ParametricRoleHOW&#45;&gt;Metamodel::Documenting</title>
<path fill="none" stroke="#6666ff" d="M582.225,-171.338C485.647,-241.894 132.053,-500.214 22.369,-580.344"/>
<polygon fill="#6666ff" stroke="#6666ff" points="20.0146,-577.73 14.0045,-586.455 24.144,-583.382 20.0146,-577.73"/>
</g>
<!-- Metamodel::ParametricRoleHOW&#45;&gt;Metamodel::Versioning -->
<g id="edge27" class="edge"><title>Metamodel::ParametricRoleHOW&#45;&gt;Metamodel::Versioning</title>
<path fill="none" stroke="#6666ff" d="M591.257,-171.374C535.297,-236.144 343.924,-457.65 278.116,-533.82"/>
<polygon fill="#6666ff" stroke="#6666ff" points="275.325,-531.697 271.435,-541.552 280.622,-536.273 275.325,-531.697"/>
</g>
<!-- Metamodel::ParametricRoleHOW&#45;&gt;Metamodel::Stashing -->
<g id="edge34" class="edge"><title>Metamodel::ParametricRoleHOW&#45;&gt;Metamodel::Stashing</title>
<path fill="none" stroke="#6666ff" d="M574.473,-135.769C445.878,-65.6809 -29.2838,193.296 -171.125,270.604"/>
<polygon fill="#6666ff" stroke="#6666ff" points="-169.524,273.717 -179.979,275.43 -172.874,267.571 -169.524,273.717"/>
</g>
<!-- Metamodel::ParametricRoleHOW&#45;&gt;Metamodel::AttributeContainer -->
<g id="edge31" class="edge"><title>Metamodel::ParametricRoleHOW&#45;&gt;Metamodel::AttributeContainer</title>
<path fill="none" stroke="#6666ff" d="M554.476,-136.635C452.283,-103.917 226.623,-31.6677 117.461,3.28236"/>
<polygon fill="#6666ff" stroke="#6666ff" points="118.493,6.62686 107.902,6.34281 116.359,-0.0397865 118.493,6.62686"/>
</g>
<!-- Metamodel::ParametricRoleHOW&#45;&gt;Metamodel::MethodContainer -->
<g id="edge28" class="edge"><title>Metamodel::ParametricRoleHOW&#45;&gt;Metamodel::MethodContainer</title>
<path fill="none" stroke="#6666ff" d="M581.905,-135.546C493.379,-72.0971 199.058,138.85 199.058,138.85 199.058,138.85 137.461,225.175 105.4,270.108"/>
<polygon fill="#6666ff" stroke="#6666ff" points="108.066,272.397 99.4087,278.504 102.368,268.331 108.066,272.397"/>
</g>
<!-- Metamodel::ParametricRoleHOW&#45;&gt;Metamodel::PrivateMethodContainer -->
<g id="edge29" class="edge"><title>Metamodel::ParametricRoleHOW&#45;&gt;Metamodel::PrivateMethodContainer</title>
<path fill="none" stroke="#6666ff" d="M605.45,-171.482C600.59,-236.729 583.944,-460.251 578.015,-539.859"/>
<polygon fill="#6666ff" stroke="#6666ff" points="574.505,-539.873 577.252,-550.105 581.485,-540.393 574.505,-539.873"/>
</g>
<!-- Metamodel::ParametricRoleHOW&#45;&gt;Metamodel::MultiMethodContainer -->
<g id="edge30" class="edge"><title>Metamodel::ParametricRoleHOW&#45;&gt;Metamodel::MultiMethodContainer</title>
<path fill="none" stroke="#6666ff" d="M533.105,-168.82C450.832,-186.051 329.087,-211.548 329.087,-211.548 329.087,-211.548 264.005,-217.252 264.005,-217.252 264.005,-217.252 155.4,-226.764 62.6238,-234.889"/>
<polygon fill="#6666ff" stroke="#6666ff" points="62.2079,-231.412 52.5514,-235.772 62.8187,-238.386 62.2079,-231.412"/>
</g>
<!-- Metamodel::ParametricRoleHOW&#45;&gt;Metamodel::MultipleInheritance -->
<g id="edge33" class="edge"><title>Metamodel::ParametricRoleHOW&#45;&gt;Metamodel::MultipleInheritance</title>
<path fill="none" stroke="#6666ff" d="M589.766,-135.115C542.958,-84.8975 412.262,55.3189 358.306,113.206"/>
<polygon fill="#6666ff" stroke="#6666ff" points="360.597,115.881 351.219,120.809 355.477,111.108 360.597,115.881"/>
</g>
<!-- Metamodel::ParametricRoleHOW&#45;&gt;Metamodel::TypePretense -->
<g id="edge35" class="edge"><title>Metamodel::ParametricRoleHOW&#45;&gt;Metamodel::TypePretense</title>
<path fill="none" stroke="#6666ff" d="M629.054,-171.402C701.564,-230.091 931.059,-415.846 1013.58,-482.64"/>
<polygon fill="#6666ff" stroke="#6666ff" points="1011.58,-485.519 1021.55,-489.09 1015.98,-480.078 1011.58,-485.519"/>
</g>
<!-- Metamodel::ParametricRoleHOW&#45;&gt;Metamodel::RolePunning -->
<g id="edge36" class="edge"><title>Metamodel::ParametricRoleHOW&#45;&gt;Metamodel::RolePunning</title>
<path fill="none" stroke="#6666ff" d="M652.904,-136.184C737.655,-104.562 917.749,-37.3664 1007.86,-3.74473"/>
<polygon fill="#6666ff" stroke="#6666ff" points="1009.2,-6.98155 1017.34,-0.206559 1006.75,-0.423185 1009.2,-6.98155"/>
</g>
<!-- Metamodel::BaseType -->
<g id="node26" class="node"><title>Metamodel::BaseType</title>
<g id="a_node26"><a xlink:href="/type/Metamodel::BaseType" xlink:title="Metamodel::BaseType">
<ellipse fill="none" stroke="#6666ff" cx="302.277" cy="568.276" rx="99.3824" ry="18"/>
<text text-anchor="middle" x="302.277" y="571.976" font-family="FreeSans" font-size="14.00" fill="#6666ff">Metamodel::BaseType</text>
</a>
</g>
</g>
<!-- Metamodel::EnumHOW -->
<g id="node27" class="node"><title>Metamodel::EnumHOW</title>
<g id="a_node27"><a xlink:href="/type/Metamodel::EnumHOW" xlink:title="Metamodel::EnumHOW">
<ellipse fill="none" stroke="#000000" cx="42.548" cy="654.857" rx="104.782" ry="18"/>
<text text-anchor="middle" x="42.548" y="658.557" font-family="FreeSans" font-size="14.00" fill="#000000">Metamodel::EnumHOW</text>
</a>
</g>
</g>
<!-- Metamodel::EnumHOW&#45;&gt;Metamodel::RoleContainer -->
<g id="edge42" class="edge"><title>Metamodel::EnumHOW&#45;&gt;Metamodel::RoleContainer</title>
<path fill="none" stroke="#6666ff" d="M35.2213,636.841C-1.47381,546.604 -165.28,143.788 -209.865,34.1493"/>
<polygon fill="#6666ff" stroke="#6666ff" points="-213.16,35.3384 -213.685,24.7566 -206.675,32.7015 -213.16,35.3384"/>
</g>
<!-- Metamodel::EnumHOW&#45;&gt;Any -->
<g id="edge4" class="edge"><title>Metamodel::EnumHOW&#45;&gt;Any</title>
<path fill="none" stroke="#000000" d="M146.344,652.46C272.369,649.548 478.455,644.788 562.325,642.85"/>
<polygon fill="#000000" stroke="#000000" points="562.322,639.35 572.4,642.618 562.483,646.348 562.322,639.35"/>
</g>
<!-- Metamodel::EnumHOW&#45;&gt;Metamodel::Naming -->
<g id="edge37" class="edge"><title>Metamodel::EnumHOW&#45;&gt;Metamodel::Naming</title>
<path fill="none" stroke="#6666ff" d="M51.3617,636.598C86.6029,563.589 215.485,296.583 215.485,296.583 215.485,296.583 199.058,138.85 199.058,138.85 199.058,138.85 243.15,-88.7676 258.808,-169.595"/>
<polygon fill="#6666ff" stroke="#6666ff" points="255.4,-170.409 260.738,-179.561 262.273,-169.077 255.4,-170.409"/>
</g>
<!-- Metamodel::EnumHOW&#45;&gt;Metamodel::Stashing -->
<g id="edge38" class="edge"><title>Metamodel::EnumHOW&#45;&gt;Metamodel::Stashing</title>
<path fill="none" stroke="#6666ff" d="M29.9568,636.89C-11.4977,577.733 -143.858,388.853 -192.871,318.91"/>
<polygon fill="#6666ff" stroke="#6666ff" points="-195.817,320.806 -198.689,310.608 -190.084,316.788 -195.817,320.806"/>
</g>
<!-- Metamodel::EnumHOW&#45;&gt;Metamodel::AttributeContainer -->
<g id="edge39" class="edge"><title>Metamodel::EnumHOW&#45;&gt;Metamodel::AttributeContainer</title>
<path fill="none" stroke="#6666ff" d="M38.2139,636.6C20.8844,563.598 -42.4922,296.618 -42.4922,296.618 -42.4922,296.618 20.8673,120.466 45.9149,50.829"/>
<polygon fill="#6666ff" stroke="#6666ff" points="42.6423,49.5864 49.3204,41.3612 49.2292,51.9557 42.6423,49.5864"/>
</g>
<!-- Metamodel::EnumHOW&#45;&gt;Metamodel::MethodContainer -->
<g id="edge40" class="edge"><title>Metamodel::EnumHOW&#45;&gt;Metamodel::MethodContainer</title>
<path fill="none" stroke="#6666ff" d="M44.7878,636.599C51.9587,578.144 74.3861,395.321 83.041,324.768"/>
<polygon fill="#6666ff" stroke="#6666ff" points="79.5695,324.321 84.2611,314.822 86.5174,325.174 79.5695,324.321"/>
</g>
<!-- Metamodel::EnumHOW&#45;&gt;Metamodel::MultiMethodContainer -->
<g id="edge41" class="edge"><title>Metamodel::EnumHOW&#45;&gt;Metamodel::MultiMethodContainer</title>
<path fill="none" stroke="#6666ff" d="M38.2139,636.6C20.8844,563.598 -42.4922,296.618 -42.4922,296.618 -42.4922,296.618 -75.6557,23.0822 -75.6557,23.0822 -75.6557,23.0822 -70.0782,-148.871 -67.8366,-217.98"/>
<polygon fill="#6666ff" stroke="#6666ff" points="-71.3292,-218.265 -67.5068,-228.146 -64.3329,-218.038 -71.3292,-218.265"/>
</g>
<!-- Metamodel::EnumHOW&#45;&gt;Metamodel::MROBasedMethodDispatch -->
<g id="edge44" class="edge"><title>Metamodel::EnumHOW&#45;&gt;Metamodel::MROBasedMethodDispatch</title>
<path fill="none" stroke="#6666ff" d="M-42.8425,644.431C-144.878,631.973 -316.303,611.041 -432.075,596.906"/>
<polygon fill="#6666ff" stroke="#6666ff" points="-432.551,600.374 -442.053,595.687 -431.703,593.425 -432.551,600.374"/>
</g>
<!-- Metamodel::EnumHOW&#45;&gt;Metamodel::MROBasedTypeChecking -->
<g id="edge45" class="edge"><title>Metamodel::EnumHOW&#45;&gt;Metamodel::MROBasedTypeChecking</title>
<path fill="none" stroke="#6666ff" d="M-61.988,653.41C-66.892,653.342 -71.8641,653.274 -76.8794,653.204"/>
<polygon fill="#6666ff" stroke="#6666ff" points="-77.276,656.699 -87.2266,653.061 -77.1791,649.7 -77.276,656.699"/>
</g>
<!-- Metamodel::EnumHOW&#45;&gt;Metamodel::BUILDPLAN -->
<g id="edge46" class="edge"><title>Metamodel::EnumHOW&#45;&gt;Metamodel::BUILDPLAN</title>
<path fill="none" stroke="#6666ff" d="M-47.4891,645.662C-90.7789,641.241 -133.403,636.887 -133.403,636.887 -133.403,636.887 -250.134,631.218 -250.134,631.218 -250.134,631.218 -670.959,621.758 -883.052,616.99"/>
<polygon fill="#6666ff" stroke="#6666ff" points="-883.383,620.483 -893.302,616.759 -883.226,613.485 -883.383,620.483"/>
</g>
<!-- Metamodel::EnumHOW&#45;&gt;Metamodel::BoolificationProtocol -->
<g id="edge47" class="edge"><title>Metamodel::EnumHOW&#45;&gt;Metamodel::BoolificationProtocol</title>
<path fill="none" stroke="#6666ff" d="M21.3675,637.134C-67.5435,562.734 -410.751,275.543 -513.576,189.501"/>
<polygon fill="#6666ff" stroke="#6666ff" points="-515.968,192.063 -521.391,182.961 -511.475,186.695 -515.968,192.063"/>
</g>
<!-- Metamodel::EnumHOW&#45;&gt;Metamodel::BaseType -->
<g id="edge43" class="edge"><title>Metamodel::EnumHOW&#45;&gt;Metamodel::BaseType</title>
<path fill="none" stroke="#6666ff" d="M90.7923,638.775C134.483,624.211 198.9,602.737 245.15,587.319"/>
<polygon fill="#6666ff" stroke="#6666ff" points="244.136,583.968 254.729,584.126 246.349,590.609 244.136,583.968"/>
</g>
<!-- Metamodel::ConcreteRoleHOW -->
<g id="node28" class="node"><title>Metamodel::ConcreteRoleHOW</title>
<g id="a_node28"><a xlink:href="/type/Metamodel::ConcreteRoleHOW" xlink:title="Metamodel::ConcreteRoleHOW">
<ellipse fill="none" stroke="#000000" cx="634.691" cy="227.898" rx="135.676" ry="18"/>
<text text-anchor="middle" x="634.691" y="231.598" font-family="FreeSans" font-size="14.00" fill="#000000">Metamodel::ConcreteRoleHOW</text>
</a>
</g>
</g>
<!-- Metamodel::ConcreteRoleHOW&#45;&gt;Metamodel::RoleContainer -->
<g id="edge54" class="edge"><title>Metamodel::ConcreteRoleHOW&#45;&gt;Metamodel::RoleContainer</title>
<path fill="none" stroke="#6666ff" d="M557.079,213.124C441.98,191.214 239.468,152.665 239.468,152.665 239.468,152.665 -35.0665,65.5511 -160.221,25.8375"/>
<polygon fill="#6666ff" stroke="#6666ff" points="-161.579,29.0787 -170.052,22.718 -159.462,22.4065 -161.579,29.0787"/>
</g>
<!-- Metamodel::ConcreteRoleHOW&#45;&gt;Any -->
<g id="edge5" class="edge"><title>Metamodel::ConcreteRoleHOW&#45;&gt;Any</title>
<path fill="none" stroke="#000000" d="M633.16,245.957C627.64,311.076 608.731,534.158 601.996,613.609"/>
<polygon fill="#000000" stroke="#000000" points="605.462,614.166 601.13,623.835 598.487,613.575 605.462,614.166"/>
</g>
<!-- Metamodel::ConcreteRoleHOW&#45;&gt;Metamodel::Naming -->
<g id="edge48" class="edge"><title>Metamodel::ConcreteRoleHOW&#45;&gt;Metamodel::Naming</title>
<path fill="none" stroke="#6666ff" d="M619.01,209.884C560.546,142.725 355.128,-93.2483 286.648,-171.914"/>
<polygon fill="#6666ff" stroke="#6666ff" points="283.648,-170.03 279.722,-179.871 288.928,-174.627 283.648,-170.03"/>
</g>
<!-- Metamodel::ConcreteRoleHOW&#45;&gt;Metamodel::Versioning -->
<g id="edge49" class="edge"><title>Metamodel::ConcreteRoleHOW&#45;&gt;Metamodel::Versioning</title>
<path fill="none" stroke="#6666ff" d="M625.88,209.587C575.992,105.907 329.066,-407.271 268.908,-532.294"/>
<polygon fill="#6666ff" stroke="#6666ff" points="265.621,-531.053 264.439,-541.582 271.929,-534.088 265.621,-531.053"/>
</g>
<!-- Metamodel::ConcreteRoleHOW&#45;&gt;Metamodel::AttributeContainer -->
<g id="edge53" class="edge"><title>Metamodel::ConcreteRoleHOW&#45;&gt;Metamodel::AttributeContainer</title>
<path fill="none" stroke="#6666ff" d="M602.158,210.246C554.17,184.208 470.026,138.552 470.026,138.552 470.026,138.552 429.616,124.737 429.616,124.737 429.616,124.737 232.98,71.1929 124.989,41.7867"/>
<polygon fill="#6666ff" stroke="#6666ff" points="123.872,45.1101 115.142,39.1056 125.711,38.356 123.872,45.1101"/>
</g>
<!-- Metamodel::ConcreteRoleHOW&#45;&gt;Metamodel::MethodContainer -->
<g id="edge51" class="edge"><title>Metamodel::ConcreteRoleHOW&#45;&gt;Metamodel::MethodContainer</title>
<path fill="none" stroke="#6666ff" d="M535.735,240.3C438.683,252.463 291.223,270.943 191.984,283.38"/>
<polygon fill="#6666ff" stroke="#6666ff" points="192.291,286.869 181.934,284.64 191.421,279.923 192.291,286.869"/>
</g>
<!-- Metamodel::ConcreteRoleHOW&#45;&gt;Metamodel::PrivateMethodContainer -->
<g id="edge50" class="edge"><title>Metamodel::ConcreteRoleHOW&#45;&gt;Metamodel::PrivateMethodContainer</title>
<path fill="none" stroke="#6666ff" d="M626.519,209.767C592.371,134.004 462.86,-153.334 462.86,-153.334 462.86,-153.334 542.922,-447.24 568.287,-540.355"/>
<polygon fill="#6666ff" stroke="#6666ff" points="564.963,-541.47 570.968,-550.198 571.717,-539.63 564.963,-541.47"/>
</g>
<!-- Metamodel::ConcreteRoleHOW&#45;&gt;Metamodel::MultiMethodContainer -->
<g id="edge52" class="edge"><title>Metamodel::ConcreteRoleHOW&#45;&gt;Metamodel::MultiMethodContainer</title>
<path fill="none" stroke="#6666ff" d="M608.467,210.177C500.48,137.201 90.136,-140.1 -32.2582,-222.811"/>
<polygon fill="#6666ff" stroke="#6666ff" points="-34.2391,-219.926 -40.5649,-228.425 -30.3197,-225.725 -34.2391,-219.926"/>
</g>
<!-- Metamodel::ConcreteRoleHOW&#45;&gt;Metamodel::MultipleInheritance -->
<g id="edge55" class="edge"><title>Metamodel::ConcreteRoleHOW&#45;&gt;Metamodel::MultipleInheritance</title>
<path fill="none" stroke="#6666ff" d="M579.289,211.434C528.5,196.341 453.261,173.981 399.627,158.043"/>
<polygon fill="#6666ff" stroke="#6666ff" points="398.463,161.348 389.874,155.144 400.457,154.638 398.463,161.348"/>
</g>
</g>
</svg>
