<?xml version="1.0" encoding="UTF-8" standalone="no"?>
<!DOCTYPE svg PUBLIC "-//W3C//DTD SVG 1.1//EN"
 "http://www.w3.org/Graphics/SVG/1.1/DTD/svg11.dtd">
<!-- Generated by graphviz version 2.38.0 (20140413.2041)
 -->
<!-- Title: perl6&#45;type&#45;graph Pages: 1 -->
<svg width="1816pt" height="404pt"
 viewBox="0.00 0.00 1816.39 404.00" xmlns="http://www.w3.org/2000/svg" xmlns:xlink="http://www.w3.org/1999/xlink">
<g id="graph0" class="graph" transform="scale(1 1) rotate(0) translate(4 400)">
<title>perl6&#45;type&#45;graph</title>
<polygon fill="white" stroke="none" points="-4,4 -4,-400 1812.39,-400 1812.39,4 -4,4"/>
<!-- X::OS -->
<g id="node1" class="node"><title>X::OS</title>
<g id="a_node1"><a xlink:href="/type/X::OS" xlink:title="X::OS">
<ellipse fill="none" stroke="#6666ff" cx="875.446" cy="-162" rx="34.394" ry="18"/>
<text text-anchor="middle" x="875.446" y="-158.3" font-family="FreeSans" font-size="14.00" fill="#6666ff">X::OS</text>
</a>
</g>
</g>
<!-- Exception -->
<g id="node4" class="node"><title>Exception</title>
<g id="a_node4"><a xlink:href="/type/Exception" xlink:title="Exception">
<ellipse fill="none" stroke="#000000" cx="955.446" cy="-234" rx="49.2915" ry="18"/>
<text text-anchor="middle" x="955.446" y="-230.3" font-family="FreeSans" font-size="14.00" fill="#000000">Exception</text>
</a>
</g>
</g>
<!-- X::OS&#45;&gt;Exception -->
<g id="edge1" class="edge"><title>X::OS&#45;&gt;Exception</title>
<path fill="none" stroke="#000000" d="M892.412,-177.845C903.248,-187.327 917.504,-199.801 929.718,-210.488"/>
<polygon fill="#000000" stroke="#000000" points="927.562,-213.252 937.392,-217.203 932.171,-207.984 927.562,-213.252"/>
</g>
<!-- Mu -->
<g id="node2" class="node"><title>Mu</title>
<g id="a_node2"><a xlink:href="/type/Mu" xlink:title="Mu">
<ellipse fill="none" stroke="#000000" cx="955.446" cy="-378" rx="27" ry="18"/>
<text text-anchor="middle" x="955.446" y="-374.3" font-family="FreeSans" font-size="14.00" fill="#000000">Mu</text>
</a>
</g>
</g>
<!-- Any -->
<g id="node3" class="node"><title>Any</title>
<g id="a_node3"><a xlink:href="/type/Any" xlink:title="Any">
<ellipse fill="none" stroke="#000000" cx="955.446" cy="-306" rx="27" ry="18"/>
<text text-anchor="middle" x="955.446" y="-302.3" font-family="FreeSans" font-size="14.00" fill="#000000">Any</text>
</a>
</g>
</g>
<!-- Any&#45;&gt;Mu -->
<g id="edge2" class="edge"><title>Any&#45;&gt;Mu</title>
<path fill="none" stroke="#000000" d="M955.446,-324.303C955.446,-332.017 955.446,-341.288 955.446,-349.888"/>
<polygon fill="#000000" stroke="#000000" points="951.946,-349.896 955.446,-359.896 958.946,-349.896 951.946,-349.896"/>
</g>
<!-- Exception&#45;&gt;Any -->
<g id="edge3" class="edge"><title>Exception&#45;&gt;Any</title>
<path fill="none" stroke="#000000" d="M955.446,-252.303C955.446,-260.017 955.446,-269.288 955.446,-277.888"/>
<polygon fill="#000000" stroke="#000000" points="951.946,-277.896 955.446,-287.896 958.946,-277.896 951.946,-277.896"/>
</g>
<!-- X::IO -->
<g id="node5" class="node"><title>X::IO</title>
<g id="a_node5"><a xlink:href="/type/X::IO" xlink:title="X::IO">
<ellipse fill="none" stroke="#6666ff" cx="875.446" cy="-90" rx="31.3957" ry="18"/>
<text text-anchor="middle" x="875.446" y="-86.3" font-family="FreeSans" font-size="14.00" fill="#6666ff">X::IO</text>
</a>
</g>
</g>
<!-- X::IO&#45;&gt;X::OS -->
<g id="edge44" class="edge"><title>X::IO&#45;&gt;X::OS</title>
<path fill="none" stroke="#6666ff" d="M875.446,-108.303C875.446,-116.017 875.446,-125.288 875.446,-133.888"/>
<polygon fill="#6666ff" stroke="#6666ff" points="871.946,-133.896 875.446,-143.896 878.946,-133.896 871.946,-133.896"/>
</g>
<!-- X::IO&#45;&gt;Exception -->
<g id="edge4" class="edge"><title>X::IO&#45;&gt;Exception</title>
<path fill="none" stroke="#000000" d="M862.777,-106.615C850.093,-122.249 832.446,-144 832.446,-144 832.446,-144 832.446,-180 832.446,-180 832.446,-180 879.507,-200.278 915.409,-215.748"/>
<polygon fill="#000000" stroke="#000000" points="914.156,-219.02 924.725,-219.763 916.926,-212.591 914.156,-219.02"/>
</g>
<!-- X::IO::Dir -->
<g id="node6" class="node"><title>X::IO::Dir</title>
<g id="a_node6"><a xlink:href="/type/X::IO::Dir" xlink:title="X::IO::Dir">
<ellipse fill="none" stroke="#000000" cx="47.4458" cy="-18" rx="47.3916" ry="18"/>
<text text-anchor="middle" x="47.4458" y="-14.3" font-family="FreeSans" font-size="14.00" fill="#000000">X::IO::Dir</text>
</a>
</g>
</g>
<!-- X::IO::Dir&#45;&gt;Exception -->
<g id="edge5" class="edge"><title>X::IO::Dir&#45;&gt;Exception</title>
<path fill="none" stroke="#000000" d="M77.2499,-32.1753C177.272,-70.6268 490.446,-180 490.446,-180 490.446,-180 773.66,-213.58 898.299,-227.282"/>
<polygon fill="#000000" stroke="#000000" points="898.103,-230.781 908.425,-228.389 898.864,-223.823 898.103,-230.781"/>
</g>
<!-- X::IO::Dir&#45;&gt;Exception -->
<g id="edge6" class="edge"><title>X::IO::Dir&#45;&gt;Exception</title>
<path fill="none" stroke="#000000" d="M81.3442,-30.8387C187.806,-68.0197 508.446,-180 508.446,-180 508.446,-180 779.079,-212.089 899.185,-226.329"/>
<polygon fill="#000000" stroke="#000000" points="898.95,-229.826 909.293,-227.528 899.774,-222.875 898.95,-229.826"/>
</g>
<!-- X::IO::Dir&#45;&gt;Exception -->
<g id="edge7" class="edge"><title>X::IO::Dir&#45;&gt;Exception</title>
<path fill="none" stroke="#000000" d="M84.4883,-29.4396C197.493,-65.1164 526.446,-180 526.446,-180 526.446,-180 784.164,-210.557 900.345,-225.267"/>
<polygon fill="#000000" stroke="#000000" points="900.105,-228.764 910.466,-226.554 900.988,-221.82 900.105,-228.764"/>
</g>
<!-- X::IO::Dir&#45;&gt;X::IO -->
<g id="edge45" class="edge"><title>X::IO::Dir&#45;&gt;X::IO</title>
<path fill="none" stroke="#6666ff" d="M83.2285,-29.8626C94.2036,-33.1943 103.446,-36 103.446,-36 103.446,-36 674.576,-75.2097 834.356,-86.179"/>
<polygon fill="#6666ff" stroke="#6666ff" points="834.49,-89.6964 844.706,-86.8896 834.969,-82.7128 834.49,-89.6964"/>
</g>
<!-- X::IO::Rmdir -->
<g id="node7" class="node"><title>X::IO::Rmdir</title>
<g id="a_node7"><a xlink:href="/type/X::IO::Rmdir" xlink:title="X::IO::Rmdir">
<ellipse fill="none" stroke="#000000" cx="172.446" cy="-18" rx="59.5901" ry="18"/>
<text text-anchor="middle" x="172.446" y="-14.3" font-family="FreeSans" font-size="14.00" fill="#000000">X::IO::Rmdir</text>
</a>
</g>
</g>
<!-- X::IO::Rmdir&#45;&gt;Exception -->
<g id="edge8" class="edge"><title>X::IO::Rmdir&#45;&gt;Exception</title>
<path fill="none" stroke="#000000" d="M203.36,-33.5716C300.222,-73.2032 587.446,-180 587.446,-180 587.446,-180 796.116,-211.599 899.497,-225.999"/>
<polygon fill="#000000" stroke="#000000" points="899.077,-229.474 909.463,-227.378 900.037,-222.54 899.077,-229.474"/>
</g>
<!-- X::IO::Rmdir&#45;&gt;Exception -->
<g id="edge9" class="edge"><title>X::IO::Rmdir&#45;&gt;Exception</title>
<path fill="none" stroke="#000000" d="M208.618,-32.4499C312.686,-71.1446 605.446,-180 605.446,-180 605.446,-180 802.232,-209.799 900.692,-224.709"/>
<polygon fill="#000000" stroke="#000000" points="900.351,-228.197 910.763,-226.234 901.399,-221.276 900.351,-228.197"/>
</g>
<!-- X::IO::Rmdir&#45;&gt;Exception -->
<g id="edge10" class="edge"><title>X::IO::Rmdir&#45;&gt;Exception</title>
<path fill="none" stroke="#000000" d="M213.015,-31.2333C324.394,-68.805 623.446,-180 623.446,-180 623.446,-180 808.635,-208.043 902.672,-223.332"/>
<polygon fill="#000000" stroke="#000000" points="902.142,-226.792 912.575,-224.95 903.271,-219.883 902.142,-226.792"/>
</g>
<!-- X::IO::Rmdir&#45;&gt;X::IO -->
<g id="edge46" class="edge"><title>X::IO::Rmdir&#45;&gt;X::IO</title>
<path fill="none" stroke="#6666ff" d="M217.313,-30.0542C230.492,-33.3012 241.446,-36 241.446,-36 241.446,-36 693.299,-73.7733 834.081,-85.5421"/>
<polygon fill="#6666ff" stroke="#6666ff" points="834.181,-89.0625 844.437,-86.4078 834.764,-82.0868 834.181,-89.0625"/>
</g>
<!-- X::IO::Unlink -->
<g id="node8" class="node"><title>X::IO::Unlink</title>
<g id="a_node8"><a xlink:href="/type/X::IO::Unlink" xlink:title="X::IO::Unlink">
<ellipse fill="none" stroke="#000000" cx="311.446" cy="-18" rx="61.1893" ry="18"/>
<text text-anchor="middle" x="311.446" y="-14.3" font-family="FreeSans" font-size="14.00" fill="#000000">X::IO::Unlink</text>
</a>
</g>
</g>
<!-- X::IO::Unlink&#45;&gt;Exception -->
<g id="edge11" class="edge"><title>X::IO::Unlink&#45;&gt;Exception</title>
<path fill="none" stroke="#000000" d="M338.687,-34.1465C423.448,-74.2252 672.446,-180 672.446,-180 672.446,-180 818.161,-209.143 900.826,-224.208"/>
<polygon fill="#000000" stroke="#000000" points="900.363,-227.681 910.826,-226.017 901.608,-220.793 900.363,-227.681"/>
</g>
<!-- X::IO::Unlink&#45;&gt;Exception -->
<g id="edge12" class="edge"><title>X::IO::Unlink&#45;&gt;Exception</title>
<path fill="none" stroke="#000000" d="M344.747,-33.1466C437.23,-72.4335 690.446,-180 690.446,-180 690.446,-180 825.909,-207.093 903.131,-222.537"/>
<polygon fill="#000000" stroke="#000000" points="902.67,-226.014 913.163,-224.543 904.043,-219.15 902.67,-226.014"/>
</g>
<!-- X::IO::Unlink&#45;&gt;Exception -->
<g id="edge13" class="edge"><title>X::IO::Unlink&#45;&gt;Exception</title>
<path fill="none" stroke="#000000" d="M350.025,-32.0389C450.367,-70.3675 708.446,-180 708.446,-180 708.446,-180 834.002,-205.111 906.396,-220.764"/>
<polygon fill="#000000" stroke="#000000" points="905.724,-224.2 916.239,-222.906 907.212,-217.36 905.724,-224.2"/>
</g>
<!-- X::IO::Unlink&#45;&gt;X::IO -->
<g id="edge47" class="edge"><title>X::IO::Unlink&#45;&gt;X::IO</title>
<path fill="none" stroke="#6666ff" d="M356.963,-30.0542C370.333,-33.3012 381.446,-36 381.446,-36 381.446,-36 716.673,-71.9657 834.827,-84.6421"/>
<polygon fill="#6666ff" stroke="#6666ff" points="834.6,-88.1378 844.917,-85.7246 835.347,-81.1777 834.6,-88.1378"/>
</g>
<!-- X::IO::Chmod -->
<g id="node9" class="node"><title>X::IO::Chmod</title>
<g id="a_node9"><a xlink:href="/type/X::IO::Chmod" xlink:title="X::IO::Chmod">
<ellipse fill="none" stroke="#000000" cx="454.446" cy="-18" rx="64.189" ry="18"/>
<text text-anchor="middle" x="454.446" y="-14.3" font-family="FreeSans" font-size="14.00" fill="#000000">X::IO::Chmod</text>
</a>
</g>
</g>
<!-- X::IO::Chmod&#45;&gt;Exception -->
<g id="edge14" class="edge"><title>X::IO::Chmod&#45;&gt;Exception</title>
<path fill="none" stroke="#000000" d="M476.184,-35.0259C543.952,-75.749 741.446,-180 741.446,-180 741.446,-180 839.751,-206.582 903.514,-222.096"/>
<polygon fill="#000000" stroke="#000000" points="902.889,-225.545 913.431,-224.485 904.529,-218.74 902.889,-225.545"/>
</g>
<!-- X::IO::Chmod&#45;&gt;Exception -->
<g id="edge15" class="edge"><title>X::IO::Chmod&#45;&gt;Exception</title>
<path fill="none" stroke="#000000" d="M483.139,-34.1465C559.065,-74.2252 759.446,-180 759.446,-180 759.446,-180 848.947,-204.202 906.988,-219.897"/>
<polygon fill="#000000" stroke="#000000" points="906.156,-223.297 916.722,-222.529 907.983,-216.54 906.156,-223.297"/>
</g>
<!-- X::IO::Chmod&#45;&gt;Exception -->
<g id="edge16" class="edge"><title>X::IO::Chmod&#45;&gt;Exception</title>
<path fill="none" stroke="#000000" d="M489.415,-33.1466C573.671,-72.4335 777.446,-180 777.446,-180 777.446,-180 859.208,-202.109 912.266,-217.768"/>
<polygon fill="#000000" stroke="#000000" points="911.555,-221.208 922.138,-220.708 913.553,-214.499 911.555,-221.208"/>
</g>
<!-- X::IO::Chmod&#45;&gt;X::IO -->
<g id="edge48" class="edge"><title>X::IO::Chmod&#45;&gt;X::IO</title>
<path fill="none" stroke="#6666ff" d="M502.323,-30.1496C516.083,-33.3539 527.446,-36 527.446,-36 527.446,-36 744.045,-68.9878 835.48,-82.9133"/>
<polygon fill="#6666ff" stroke="#6666ff" points="835.061,-86.3898 845.474,-84.4354 836.115,-79.4696 835.061,-86.3898"/>
</g>
<!-- X::IO::Copy -->
<g id="node10" class="node"><title>X::IO::Copy</title>
<g id="a_node10"><a xlink:href="/type/X::IO::Copy" xlink:title="X::IO::Copy">
<ellipse fill="none" stroke="#000000" cx="593.446" cy="-18" rx="56.59" ry="18"/>
<text text-anchor="middle" x="593.446" y="-14.3" font-family="FreeSans" font-size="14.00" fill="#000000">X::IO::Copy</text>
</a>
</g>
</g>
<!-- X::IO::Copy&#45;&gt;Exception -->
<g id="edge17" class="edge"><title>X::IO::Copy&#45;&gt;Exception</title>
<path fill="none" stroke="#000000" d="M606.991,-35.6234C652.936,-76.7587 791.446,-180 791.446,-180 791.446,-180 857.82,-204.095 906.579,-219.792"/>
<polygon fill="#000000" stroke="#000000" points="905.788,-223.213 916.379,-222.906 907.909,-216.542 905.788,-223.213"/>
</g>
<!-- X::IO::Copy&#45;&gt;Exception -->
<g id="edge18" class="edge"><title>X::IO::Copy&#45;&gt;Exception</title>
<path fill="none" stroke="#000000" d="M614.55,-34.7305C668.901,-75.2423 809.446,-180 809.446,-180 809.446,-180 869.091,-201.652 912.135,-217.278"/>
<polygon fill="#000000" stroke="#000000" points="910.989,-220.585 921.583,-220.708 913.378,-214.005 910.989,-220.585"/>
</g>
<!-- X::IO::Copy&#45;&gt;Exception -->
<g id="edge19" class="edge"><title>X::IO::Copy&#45;&gt;Exception</title>
<path fill="none" stroke="#000000" d="M621.725,-33.8579C684.852,-73.7148 827.446,-180 827.446,-180 827.446,-180 881.201,-199.514 919.454,-214.86"/>
<polygon fill="#000000" stroke="#000000" points="918.221,-218.137 928.803,-218.657 920.855,-211.652 918.221,-218.137"/>
</g>
<!-- X::IO::Copy&#45;&gt;X::IO -->
<g id="edge49" class="edge"><title>X::IO::Copy&#45;&gt;X::IO</title>
<path fill="none" stroke="#6666ff" d="M635.712,-30.0542C648.127,-33.3012 658.446,-36 658.446,-36 658.446,-36 774.926,-64.4492 837.208,-79.6609"/>
<polygon fill="#6666ff" stroke="#6666ff" points="836.532,-83.0985 847.077,-82.0712 838.193,-76.2984 836.532,-83.0985"/>
</g>
<!-- X::IO::DoesNotExist -->
<g id="node11" class="node"><title>X::IO::DoesNotExist</title>
<g id="a_node11"><a xlink:href="/type/X::IO::DoesNotExist" xlink:title="X::IO::DoesNotExist">
<ellipse fill="none" stroke="#000000" cx="757.446" cy="-18" rx="89.8845" ry="18"/>
<text text-anchor="middle" x="757.446" y="-14.3" font-family="FreeSans" font-size="14.00" fill="#000000">X::IO::DoesNotExist</text>
</a>
</g>
</g>
<!-- X::IO::DoesNotExist&#45;&gt;Exception -->
<g id="edge20" class="edge"><title>X::IO::DoesNotExist&#45;&gt;Exception</title>
<path fill="none" stroke="#000000" d="M756.152,-36.2298C765.36,-77.7634 810.446,-180 810.446,-180 810.446,-180 865.622,-203.026 908.392,-218.724"/>
<polygon fill="#000000" stroke="#000000" points="907.26,-222.036 917.854,-222.147 909.641,-215.454 907.26,-222.036"/>
</g>
<!-- X::IO::DoesNotExist&#45;&gt;Exception -->
<g id="edge21" class="edge"><title>X::IO::DoesNotExist&#45;&gt;Exception</title>
<path fill="none" stroke="#000000" d="M765.044,-36.2298C783.36,-77.7634 828.446,-180 828.446,-180 828.446,-180 877.319,-200.396 914.429,-215.883"/>
<polygon fill="#000000" stroke="#000000" points="913.476,-219.278 924.053,-219.899 916.172,-212.817 913.476,-219.278"/>
</g>
<!-- X::IO::DoesNotExist&#45;&gt;Exception -->
<g id="edge22" class="edge"><title>X::IO::DoesNotExist&#45;&gt;Exception</title>
<path fill="none" stroke="#000000" d="M773.734,-35.9255C801.139,-77.2617 846.446,-180 846.446,-180 846.446,-180 890.681,-198.461 923.239,-213.592"/>
<polygon fill="#000000" stroke="#000000" points="921.947,-216.852 932.485,-217.954 924.934,-210.522 921.947,-216.852"/>
</g>
<!-- X::IO::DoesNotExist&#45;&gt;X::IO -->
<g id="edge50" class="edge"><title>X::IO::DoesNotExist&#45;&gt;X::IO</title>
<path fill="none" stroke="#6666ff" d="M784.814,-35.2354C803.069,-46.0644 827.059,-60.2961 845.772,-71.3968"/>
<polygon fill="#6666ff" stroke="#6666ff" points="844.099,-74.4742 854.486,-76.5661 847.671,-68.4538 844.099,-74.4742"/>
</g>
<!-- X::IO::Mkdir -->
<g id="node12" class="node"><title>X::IO::Mkdir</title>
<g id="a_node12"><a xlink:href="/type/X::IO::Mkdir" xlink:title="X::IO::Mkdir">
<ellipse fill="none" stroke="#000000" cx="923.446" cy="-18" rx="58.4896" ry="18"/>
<text text-anchor="middle" x="923.446" y="-14.3" font-family="FreeSans" font-size="14.00" fill="#000000">X::IO::Mkdir</text>
</a>
</g>
</g>
<!-- X::IO::Mkdir&#45;&gt;Exception -->
<g id="edge23" class="edge"><title>X::IO::Mkdir&#45;&gt;Exception</title>
<path fill="none" stroke="#000000" d="M918.255,-36.1508C916.708,-73.4302 929.461,-162.062 942.236,-206.558"/>
<polygon fill="#000000" stroke="#000000" points="938.976,-207.86 945.301,-216.359 945.656,-205.771 938.976,-207.86"/>
</g>
<!-- X::IO::Mkdir&#45;&gt;Exception -->
<g id="edge24" class="edge"><title>X::IO::Mkdir&#45;&gt;Exception</title>
<path fill="none" stroke="#000000" d="M926.01,-36.1508C931.546,-73.1683 944.652,-160.819 951.351,-205.614"/>
<polygon fill="#000000" stroke="#000000" points="947.928,-206.395 952.869,-215.768 954.852,-205.36 947.928,-206.395"/>
</g>
<!-- X::IO::Mkdir&#45;&gt;Exception -->
<g id="edge25" class="edge"><title>X::IO::Mkdir&#45;&gt;Exception</title>
<path fill="none" stroke="#000000" d="M933.643,-35.7922C946.304,-72.6581 960.064,-160.955 960.738,-205.829"/>
<polygon fill="#000000" stroke="#000000" points="957.237,-205.953 960.63,-215.99 964.236,-206.027 957.237,-205.953"/>
</g>
<!-- X::IO::Mkdir&#45;&gt;X::IO -->
<g id="edge51" class="edge"><title>X::IO::Mkdir&#45;&gt;X::IO</title>
<path fill="none" stroke="#6666ff" d="M911.826,-35.945C905.963,-44.4952 898.743,-55.025 892.284,-64.4439"/>
<polygon fill="#6666ff" stroke="#6666ff" points="889.397,-62.4663 886.628,-72.693 895.17,-66.4251 889.397,-62.4663"/>
</g>
<!-- X::IO::Chdir -->
<g id="node13" class="node"><title>X::IO::Chdir</title>
<g id="a_node13"><a xlink:href="/type/X::IO::Chdir" xlink:title="X::IO::Chdir">
<ellipse fill="none" stroke="#000000" cx="1057.45" cy="-18" rx="57.3905" ry="18"/>
<text text-anchor="middle" x="1057.45" y="-14.3" font-family="FreeSans" font-size="14.00" fill="#000000">X::IO::Chdir</text>
</a>
</g>
</g>
<!-- X::IO::Chdir&#45;&gt;Exception -->
<g id="edge26" class="edge"><title>X::IO::Chdir&#45;&gt;Exception</title>
<path fill="none" stroke="#000000" d="M1041.99,-35.4369C1017.23,-72.2108 974.155,-161.407 958.887,-206.281"/>
<polygon fill="#000000" stroke="#000000" points="955.518,-205.325 955.847,-215.915 962.194,-207.431 955.518,-205.325"/>
</g>
<!-- X::IO::Chdir&#45;&gt;Exception -->
<g id="edge27" class="edge"><title>X::IO::Chdir&#45;&gt;Exception</title>
<path fill="none" stroke="#000000" d="M1049.27,-36.1508C1031.47,-73.4953 989.11,-162.372 967.938,-206.791"/>
<polygon fill="#000000" stroke="#000000" points="964.661,-205.532 963.518,-216.065 970.98,-208.543 964.661,-205.532"/>
</g>
<!-- X::IO::Chdir&#45;&gt;Exception -->
<g id="edge28" class="edge"><title>X::IO::Chdir&#45;&gt;Exception</title>
<path fill="none" stroke="#000000" d="M1057.03,-36.1508C1046.26,-73.8374 1003.72,-164.004 976.415,-208"/>
<polygon fill="#000000" stroke="#000000" points="973.314,-206.351 970.837,-216.652 979.197,-210.144 973.314,-206.351"/>
</g>
<!-- X::IO::Chdir&#45;&gt;X::IO -->
<g id="edge52" class="edge"><title>X::IO::Chdir&#45;&gt;X::IO</title>
<path fill="none" stroke="#6666ff" d="M1022.78,-32.3312C990.445,-44.7695 942.455,-63.2273 910.113,-75.6664"/>
<polygon fill="#6666ff" stroke="#6666ff" points="908.69,-72.4637 900.613,-79.3202 911.203,-78.9971 908.69,-72.4637"/>
</g>
<!-- X::IO::Symlink -->
<g id="node14" class="node"><title>X::IO::Symlink</title>
<g id="a_node14"><a xlink:href="/type/X::IO::Symlink" xlink:title="X::IO::Symlink">
<ellipse fill="none" stroke="#000000" cx="1200.45" cy="-18" rx="67.6881" ry="18"/>
<text text-anchor="middle" x="1200.45" y="-14.3" font-family="FreeSans" font-size="14.00" fill="#000000">X::IO::Symlink</text>
</a>
</g>
</g>
<!-- X::IO::Symlink&#45;&gt;Exception -->
<g id="edge29" class="edge"><title>X::IO::Symlink&#45;&gt;Exception</title>
<path fill="none" stroke="#000000" d="M1174.5,-34.7305C1120.26,-75.2423 1004.45,-180 1004.45,-180 1004.45,-180 985.704,-194.826 970.708,-208.795"/>
<polygon fill="#000000" stroke="#000000" points="968.078,-206.469 963.326,-215.939 972.946,-211.499 968.078,-206.469"/>
</g>
<!-- X::IO::Symlink&#45;&gt;Exception -->
<g id="edge30" class="edge"><title>X::IO::Symlink&#45;&gt;Exception</title>
<path fill="none" stroke="#000000" d="M1182.07,-35.6234C1136.59,-76.7587 1022.45,-180 1022.45,-180 1022.45,-180 1001.77,-196.357 983.387,-210.897"/>
<polygon fill="#000000" stroke="#000000" points="980.857,-208.436 975.186,-217.385 985.2,-213.926 980.857,-208.436"/>
</g>
<!-- X::IO::Symlink&#45;&gt;Exception -->
<g id="edge31" class="edge"><title>X::IO::Symlink&#45;&gt;Exception</title>
<path fill="none" stroke="#000000" d="M1190.56,-35.9255C1154.03,-77.2617 1040.45,-180 1040.45,-180 1040.45,-180 1016.94,-198.593 994.035,-213.755"/>
<polygon fill="#000000" stroke="#000000" points="991.852,-210.997 985.335,-219.351 995.639,-216.884 991.852,-210.997"/>
</g>
<!-- X::IO::Symlink&#45;&gt;X::IO -->
<g id="edge53" class="edge"><title>X::IO::Symlink&#45;&gt;X::IO</title>
<path fill="none" stroke="#6666ff" d="M1149.94,-30.1496C1135.43,-33.3539 1123.45,-36 1123.45,-36 1123.45,-36 984.438,-65.7074 914.566,-80.6397"/>
<polygon fill="#6666ff" stroke="#6666ff" points="913.428,-77.3038 904.38,-82.8165 914.891,-84.1492 913.428,-77.3038"/>
</g>
<!-- X::IO::Link -->
<g id="node15" class="node"><title>X::IO::Link</title>
<g id="a_node15"><a xlink:href="/type/X::IO::Link" xlink:title="X::IO::Link">
<ellipse fill="none" stroke="#000000" cx="1339.45" cy="-18" rx="53.0913" ry="18"/>
<text text-anchor="middle" x="1339.45" y="-14.3" font-family="FreeSans" font-size="14.00" fill="#000000">X::IO::Link</text>
</a>
</g>
</g>
<!-- X::IO::Link&#45;&gt;Exception -->
<g id="edge32" class="edge"><title>X::IO::Link&#45;&gt;Exception</title>
<path fill="none" stroke="#000000" d="M1308.79,-32.7268C1234.77,-71.6611 1056.45,-180 1056.45,-180 1056.45,-180 1015.85,-198.083 985.662,-213.123"/>
<polygon fill="#000000" stroke="#000000" points="984.024,-210.029 976.685,-217.67 987.187,-216.274 984.024,-210.029"/>
</g>
<!-- X::IO::Link&#45;&gt;Exception -->
<g id="edge33" class="edge"><title>X::IO::Link&#45;&gt;Exception</title>
<path fill="none" stroke="#000000" d="M1314.52,-34.1465C1248.55,-74.2252 1074.45,-180 1074.45,-180 1074.45,-180 1029.56,-199.99 994.926,-215.416"/>
<polygon fill="#000000" stroke="#000000" points="993.185,-212.36 985.475,-219.626 996.033,-218.755 993.185,-212.36"/>
</g>
<!-- X::IO::Link&#45;&gt;Exception -->
<g id="edge34" class="edge"><title>X::IO::Link&#45;&gt;Exception</title>
<path fill="none" stroke="#000000" d="M1321.69,-35.0259C1264.04,-75.749 1092.45,-180 1092.45,-180 1092.45,-180 1041.74,-202.582 1001.52,-218.266"/>
<polygon fill="#000000" stroke="#000000" points="1000.16,-215.038 992.083,-221.889 1002.67,-221.573 1000.16,-215.038"/>
</g>
<!-- X::IO::Link&#45;&gt;X::IO -->
<g id="edge54" class="edge"><title>X::IO::Link&#45;&gt;X::IO</title>
<path fill="none" stroke="#6666ff" d="M1299.48,-29.9586C1287.48,-33.248 1277.45,-36 1277.45,-36 1277.45,-36 1017.85,-70.2253 915.877,-83.6696"/>
<polygon fill="#6666ff" stroke="#6666ff" points="915.118,-80.2392 905.661,-85.0164 916.033,-87.1792 915.118,-80.2392"/>
</g>
<!-- X::IO::Move -->
<g id="node16" class="node"><title>X::IO::Move</title>
<g id="a_node16"><a xlink:href="/type/X::IO::Move" xlink:title="X::IO::Move">
<ellipse fill="none" stroke="#000000" cx="1468.45" cy="-18" rx="57.6901" ry="18"/>
<text text-anchor="middle" x="1468.45" y="-14.3" font-family="FreeSans" font-size="14.00" fill="#000000">X::IO::Move</text>
</a>
</g>
</g>
<!-- X::IO::Move&#45;&gt;Exception -->
<g id="edge35" class="edge"><title>X::IO::Move&#45;&gt;Exception</title>
<path fill="none" stroke="#000000" d="M1432.95,-32.3123C1343.13,-70.8858 1117.45,-180 1117.45,-180 1117.45,-180 1045.08,-201.307 996.707,-216.902"/>
<polygon fill="#000000" stroke="#000000" points="995.508,-213.611 987.082,-220.035 997.674,-220.268 995.508,-213.611"/>
</g>
<!-- X::IO::Move&#45;&gt;Exception -->
<g id="edge36" class="edge"><title>X::IO::Move&#45;&gt;Exception</title>
<path fill="none" stroke="#000000" d="M1438.6,-33.4294C1356.87,-72.947 1135.45,-180 1135.45,-180 1135.45,-180 1055.7,-203.48 1002.37,-219.184"/>
<polygon fill="#000000" stroke="#000000" points="1001.35,-215.836 992.742,-222.018 1003.32,-222.551 1001.35,-215.836"/>
</g>
<!-- X::IO::Move&#45;&gt;Exception -->
<g id="edge37" class="edge"><title>X::IO::Move&#45;&gt;Exception</title>
<path fill="none" stroke="#000000" d="M1444.73,-34.5836C1370.64,-74.9885 1153.45,-180 1153.45,-180 1153.45,-180 1065.77,-205.815 1006.68,-221.412"/>
<polygon fill="#000000" stroke="#000000" points="1005.53,-218.096 996.737,-224.009 1007.3,-224.869 1005.53,-218.096"/>
</g>
<!-- X::IO::Move&#45;&gt;X::IO -->
<g id="edge55" class="edge"><title>X::IO::Move&#45;&gt;X::IO</title>
<path fill="none" stroke="#6666ff" d="M1424.88,-30.0542C1412.08,-33.3012 1401.45,-36 1401.45,-36 1401.45,-36 1039.66,-72.454 916.174,-84.8962"/>
<polygon fill="#6666ff" stroke="#6666ff" points="915.598,-81.4364 905.999,-85.9214 916.3,-88.4012 915.598,-81.4364"/>
</g>
<!-- X::IO::Rename -->
<g id="node17" class="node"><title>X::IO::Rename</title>
<g id="a_node17"><a xlink:href="/type/X::IO::Rename" xlink:title="X::IO::Rename">
<ellipse fill="none" stroke="#000000" cx="1613.45" cy="-18" rx="69.5877" ry="18"/>
<text text-anchor="middle" x="1613.45" y="-14.3" font-family="FreeSans" font-size="14.00" fill="#000000">X::IO::Rename</text>
</a>
</g>
</g>
<!-- X::IO::Rename&#45;&gt;Exception -->
<g id="edge38" class="edge"><title>X::IO::Rename&#45;&gt;Exception</title>
<path fill="none" stroke="#000000" d="M1571.2,-32.4499C1462.66,-71.1446 1185.45,-180 1185.45,-180 1185.45,-180 1071.42,-204.369 1003.61,-220.059"/>
<polygon fill="#000000" stroke="#000000" points="1002.5,-216.724 993.558,-222.402 1004.09,-223.541 1002.5,-216.724"/>
</g>
<!-- X::IO::Rename&#45;&gt;Exception -->
<g id="edge39" class="edge"><title>X::IO::Rename&#45;&gt;Exception</title>
<path fill="none" stroke="#000000" d="M1576.7,-33.4294C1476.07,-72.947 1203.45,-180 1203.45,-180 1203.45,-180 1079.49,-206.491 1006.85,-222.015"/>
<polygon fill="#000000" stroke="#000000" points="1006,-218.616 996.955,-224.129 1007.47,-225.462 1006,-218.616"/>
</g>
<!-- X::IO::Rename&#45;&gt;Exception -->
<g id="edge40" class="edge"><title>X::IO::Rename&#45;&gt;Exception</title>
<path fill="none" stroke="#000000" d="M1582.95,-34.2916C1490.16,-74.4799 1221.45,-180 1221.45,-180 1221.45,-180 1087.96,-208.528 1009.74,-223.724"/>
<polygon fill="#000000" stroke="#000000" points="1008.72,-220.357 999.559,-225.686 1010.04,-227.231 1008.72,-220.357"/>
</g>
<!-- X::IO::Rename&#45;&gt;X::IO -->
<g id="edge56" class="edge"><title>X::IO::Rename&#45;&gt;X::IO</title>
<path fill="none" stroke="#6666ff" d="M1561.85,-30.2446C1547.35,-33.406 1535.45,-36 1535.45,-36 1535.45,-36 1060.93,-74.1054 916.596,-85.6955"/>
<polygon fill="#6666ff" stroke="#6666ff" points="916.081,-82.2255 906.394,-86.5148 916.642,-89.203 916.081,-82.2255"/>
</g>
<!-- X::IO::Cwd -->
<g id="node18" class="node"><title>X::IO::Cwd</title>
<g id="a_node18"><a xlink:href="/type/X::IO::Cwd" xlink:title="X::IO::Cwd">
<ellipse fill="none" stroke="#000000" cx="1754.45" cy="-18" rx="53.8905" ry="18"/>
<text text-anchor="middle" x="1754.45" y="-14.3" font-family="FreeSans" font-size="14.00" fill="#000000">X::IO::Cwd</text>
</a>
</g>
</g>
<!-- X::IO::Cwd&#45;&gt;Exception -->
<g id="edge41" class="edge"><title>X::IO::Cwd&#45;&gt;Exception</title>
<path fill="none" stroke="#000000" d="M1714.12,-30.1934C1596,-66.7046 1262.45,-180 1262.45,-180 1262.45,-180 1095.49,-207.227 1007.53,-222.651"/>
<polygon fill="#000000" stroke="#000000" points="1006.71,-219.242 997.47,-224.426 1007.93,-226.136 1006.71,-219.242"/>
</g>
<!-- X::IO::Cwd&#45;&gt;Exception -->
<g id="edge42" class="edge"><title>X::IO::Cwd&#45;&gt;Exception</title>
<path fill="none" stroke="#000000" d="M1718.04,-31.3661C1607.05,-69.0662 1280.45,-180 1280.45,-180 1280.45,-180 1102.1,-209.084 1009.64,-224.163"/>
<polygon fill="#000000" stroke="#000000" points="1008.92,-220.733 999.615,-225.797 1010.05,-227.642 1008.92,-220.733"/>
</g>
<!-- X::IO::Cwd&#45;&gt;Exception -->
<g id="edge43" class="edge"><title>X::IO::Cwd&#45;&gt;Exception</title>
<path fill="none" stroke="#000000" d="M1722.47,-32.588C1618.17,-71.403 1298.45,-180 1298.45,-180 1298.45,-180 1108.76,-210.934 1011.19,-225.536"/>
<polygon fill="#000000" stroke="#000000" points="1010.56,-222.091 1001.19,-227.023 1011.59,-229.014 1010.56,-222.091"/>
</g>
<!-- X::IO::Cwd&#45;&gt;X::IO -->
<g id="edge57" class="edge"><title>X::IO::Cwd&#45;&gt;X::IO</title>
<path fill="none" stroke="#6666ff" d="M1714.13,-30.0542C1702.29,-33.3012 1692.45,-36 1692.45,-36 1692.45,-36 1082.78,-75.5502 916.758,-86.32"/>
<polygon fill="#6666ff" stroke="#6666ff" points="916.228,-82.847 906.476,-86.9871 916.681,-89.8323 916.228,-82.847"/>
</g>
</g>
</svg>
