<?xml version="1.0" encoding="UTF-8" standalone="no"?>
<!DOCTYPE svg PUBLIC "-//W3C//DTD SVG 1.1//EN"
 "http://www.w3.org/Graphics/SVG/1.1/DTD/svg11.dtd">
<!-- Generated by graphviz version 2.38.0 (20140413.2041)
 -->
<!-- Title: perl6&#45;type&#45;graph Pages: 1 -->
<svg width="334pt" height="404pt"
 viewBox="0.00 0.00 334.27 404.00" xmlns="http://www.w3.org/2000/svg" xmlns:xlink="http://www.w3.org/1999/xlink">
<g id="graph0" class="graph" transform="scale(1 1) rotate(0) translate(4 400)">
<title>perl6&#45;type&#45;graph</title>
<polygon fill="white" stroke="none" points="-4,4 -4,-400 330.271,-400 330.271,4 -4,4"/>
<!-- X::Syntax::Variable::IndirectDeclaration -->
<g id="node1" class="node"><title>X::Syntax::Variable::IndirectDeclaration</title>
<g id="a_node1"><a xlink:href="/type/X::Syntax::Variable::IndirectDeclaration" xlink:title="X::Syntax::Variable::IndirectDeclaration">
<ellipse fill="none" stroke="#000000" cx="163.136" cy="-18" rx="163.271" ry="18"/>
<text text-anchor="middle" x="163.136" y="-14.3" font-family="FreeSans" font-size="14.00" fill="#000000">X::Syntax::Variable::IndirectDeclaration</text>
</a>
</g>
</g>
<!-- Exception -->
<g id="node4" class="node"><title>Exception</title>
<g id="a_node4"><a xlink:href="/type/Exception" xlink:title="Exception">
<ellipse fill="none" stroke="#000000" cx="163.136" cy="-234" rx="49.2915" ry="18"/>
<text text-anchor="middle" x="163.136" y="-230.3" font-family="FreeSans" font-size="14.00" fill="#000000">Exception</text>
</a>
</g>
</g>
<!-- X::Syntax::Variable::IndirectDeclaration&#45;&gt;Exception -->
<g id="edge1" class="edge"><title>X::Syntax::Variable::IndirectDeclaration&#45;&gt;Exception</title>
<path fill="none" stroke="#000000" d="M157.019,-36.0613C151.465,-51.5549 144.136,-72 144.136,-72 144.136,-72 144.136,-108 144.136,-108 144.136,-108 153.409,-169.008 158.998,-205.782"/>
<polygon fill="#000000" stroke="#000000" points="155.57,-206.521 160.533,-215.881 162.491,-205.469 155.57,-206.521"/>
</g>
<!-- X::Syntax -->
<g id="node6" class="node"><title>X::Syntax</title>
<g id="a_node6"><a xlink:href="/type/X::Syntax" xlink:title="X::Syntax">
<ellipse fill="none" stroke="#6666ff" cx="201.136" cy="-90" rx="48.1917" ry="18"/>
<text text-anchor="middle" x="201.136" y="-86.3" font-family="FreeSans" font-size="14.00" fill="#6666ff">X::Syntax</text>
</a>
</g>
</g>
<!-- X::Syntax::Variable::IndirectDeclaration&#45;&gt;X::Syntax -->
<g id="edge6" class="edge"><title>X::Syntax::Variable::IndirectDeclaration&#45;&gt;X::Syntax</title>
<path fill="none" stroke="#6666ff" d="M172.529,-36.3034C176.9,-44.3564 182.193,-54.1055 187.031,-63.0176"/>
<polygon fill="#6666ff" stroke="#6666ff" points="184.003,-64.777 191.85,-71.8957 190.155,-61.4373 184.003,-64.777"/>
</g>
<!-- Mu -->
<g id="node2" class="node"><title>Mu</title>
<g id="a_node2"><a xlink:href="/type/Mu" xlink:title="Mu">
<ellipse fill="none" stroke="#000000" cx="163.136" cy="-378" rx="27" ry="18"/>
<text text-anchor="middle" x="163.136" y="-374.3" font-family="FreeSans" font-size="14.00" fill="#000000">Mu</text>
</a>
</g>
</g>
<!-- Any -->
<g id="node3" class="node"><title>Any</title>
<g id="a_node3"><a xlink:href="/type/Any" xlink:title="Any">
<ellipse fill="none" stroke="#000000" cx="163.136" cy="-306" rx="27" ry="18"/>
<text text-anchor="middle" x="163.136" y="-302.3" font-family="FreeSans" font-size="14.00" fill="#000000">Any</text>
</a>
</g>
</g>
<!-- Any&#45;&gt;Mu -->
<g id="edge2" class="edge"><title>Any&#45;&gt;Mu</title>
<path fill="none" stroke="#000000" d="M163.136,-324.303C163.136,-332.017 163.136,-341.288 163.136,-349.888"/>
<polygon fill="#000000" stroke="#000000" points="159.636,-349.896 163.136,-359.896 166.636,-349.896 159.636,-349.896"/>
</g>
<!-- Exception&#45;&gt;Any -->
<g id="edge3" class="edge"><title>Exception&#45;&gt;Any</title>
<path fill="none" stroke="#000000" d="M163.136,-252.303C163.136,-260.017 163.136,-269.288 163.136,-277.888"/>
<polygon fill="#000000" stroke="#000000" points="159.636,-277.896 163.136,-287.896 166.636,-277.896 159.636,-277.896"/>
</g>
<!-- X::Comp -->
<g id="node5" class="node"><title>X::Comp</title>
<g id="a_node5"><a xlink:href="/type/X::Comp" xlink:title="X::Comp">
<ellipse fill="none" stroke="#6666ff" cx="236.136" cy="-162" rx="44.6926" ry="18"/>
<text text-anchor="middle" x="236.136" y="-158.3" font-family="FreeSans" font-size="14.00" fill="#6666ff">X::Comp</text>
</a>
</g>
</g>
<!-- X::Comp&#45;&gt;Exception -->
<g id="edge4" class="edge"><title>X::Comp&#45;&gt;Exception</title>
<path fill="none" stroke="#000000" d="M219.571,-178.884C210.025,-188.038 197.855,-199.707 187.262,-209.865"/>
<polygon fill="#000000" stroke="#000000" points="184.683,-207.489 179.887,-216.936 189.528,-212.541 184.683,-207.489"/>
</g>
<!-- X::Syntax&#45;&gt;Exception -->
<g id="edge5" class="edge"><title>X::Syntax&#45;&gt;Exception</title>
<path fill="none" stroke="#000000" d="M195.019,-108.061C189.465,-123.555 182.136,-144 182.136,-144 182.136,-144 174.486,-179.833 168.894,-206.025"/>
<polygon fill="#000000" stroke="#000000" points="165.464,-205.33 166.799,-215.84 172.31,-206.791 165.464,-205.33"/>
</g>
<!-- X::Syntax&#45;&gt;X::Comp -->
<g id="edge7" class="edge"><title>X::Syntax&#45;&gt;X::Comp</title>
<path fill="none" stroke="#6666ff" d="M209.608,-107.945C213.692,-116.113 218.68,-126.088 223.223,-135.176"/>
<polygon fill="#6666ff" stroke="#6666ff" points="220.138,-136.832 227.741,-144.211 226.399,-133.701 220.138,-136.832"/>
</g>
</g>
</svg>
