<?xml version="1.0" encoding="UTF-8" standalone="no"?>
<!DOCTYPE svg PUBLIC "-//W3C//DTD SVG 1.1//EN"
 "http://www.w3.org/Graphics/SVG/1.1/DTD/svg11.dtd">
<!-- Generated by graphviz version 2.38.0 (20140413.2041)
 -->
<!-- Title: perl6&#45;type&#45;graph Pages: 1 -->
<svg width="2135pt" height="1280pt"
 viewBox="0.00 0.00 2134.84 1280.12" xmlns="http://www.w3.org/2000/svg" xmlns:xlink="http://www.w3.org/1999/xlink">
<g id="graph0" class="graph" transform="scale(1 1) rotate(0) translate(1060.25 600.599)">
<title>perl6&#45;type&#45;graph</title>
<polygon fill="white" stroke="none" points="-1060.25,679.518 -1060.25,-600.599 1074.59,-600.599 1074.59,679.518 -1060.25,679.518"/>
<!-- Metamodel::BoolificationProtocol -->
<g id="node1" class="node"><title>Metamodel::BoolificationProtocol</title>
<g id="a_node1"><a xlink:href="/type/Metamodel::BoolificationProtocol" xlink:title="Metamodel::BoolificationProtocol">
<ellipse fill="none" stroke="#6666ff" cx="-277.982" cy="83.9078" rx="139.175" ry="18"/>
<text text-anchor="middle" x="-277.982" y="87.6078" font-family="FreeSans" font-size="14.00" fill="#6666ff">Metamodel::BoolificationProtocol</text>
</a>
</g>
</g>
<!-- Mu -->
<g id="node2" class="node"><title>Mu</title>
<g id="a_node2"><a xlink:href="/type/Mu" xlink:title="Mu">
<ellipse fill="none" stroke="#000000" cx="428.791" cy="632.988" rx="27" ry="18"/>
<text text-anchor="middle" x="428.791" y="636.688" font-family="FreeSans" font-size="14.00" fill="#000000">Mu</text>
</a>
</g>
</g>
<!-- Any -->
<g id="node3" class="node"><title>Any</title>
<g id="a_node3"><a xlink:href="/type/Any" xlink:title="Any">
<ellipse fill="none" stroke="#000000" cx="19.2251" cy="647.743" rx="27" ry="18"/>
<text text-anchor="middle" x="19.2251" y="651.443" font-family="FreeSans" font-size="14.00" fill="#000000">Any</text>
</a>
</g>
</g>
<!-- Any&#45;&gt;Mu -->
<g id="edge1" class="edge"><title>Any&#45;&gt;Mu</title>
<path fill="none" stroke="#000000" d="M46.4151,646.764C117.63,644.198 309.717,637.278 391.31,634.338"/>
<polygon fill="#000000" stroke="#000000" points="391.491,630.829 401.611,633.967 391.743,637.825 391.491,630.829"/>
</g>
<!-- Metamodel::Naming -->
<g id="node4" class="node"><title>Metamodel::Naming</title>
<g id="a_node4"><a xlink:href="/type/Metamodel::Naming" xlink:title="Metamodel::Naming">
<ellipse fill="none" stroke="#6666ff" cx="-607.245" cy="187.832" rx="90.1842" ry="18"/>
<text text-anchor="middle" x="-607.245" y="191.532" font-family="FreeSans" font-size="14.00" fill="#6666ff">Metamodel::Naming</text>
</a>
</g>
</g>
<!-- Metamodel::Stashing -->
<g id="node5" class="node"><title>Metamodel::Stashing</title>
<g id="a_node5"><a xlink:href="/type/Metamodel::Stashing" xlink:title="Metamodel::Stashing">
<ellipse fill="none" stroke="#6666ff" cx="-103.538" cy="347.13" rx="93.6835" ry="18"/>
<text text-anchor="middle" x="-103.538" y="350.83" font-family="FreeSans" font-size="14.00" fill="#6666ff">Metamodel::Stashing</text>
</a>
</g>
</g>
<!-- Metamodel::TypePretense -->
<g id="node6" class="node"><title>Metamodel::TypePretense</title>
<g id="a_node6"><a xlink:href="/type/Metamodel::TypePretense" xlink:title="Metamodel::TypePretense">
<ellipse fill="none" stroke="#6666ff" cx="-862.604" cy="564.889" rx="114.28" ry="18"/>
<text text-anchor="middle" x="-862.604" y="568.589" font-family="FreeSans" font-size="14.00" fill="#6666ff">Metamodel::TypePretense</text>
</a>
</g>
</g>
<!-- Metamodel::RolePunning -->
<g id="node7" class="node"><title>Metamodel::RolePunning</title>
<g id="a_node7"><a xlink:href="/type/Metamodel::RolePunning" xlink:title="Metamodel::RolePunning">
<ellipse fill="none" stroke="#6666ff" cx="-400.385" cy="657.518" rx="109.681" ry="18"/>
<text text-anchor="middle" x="-400.385" y="661.218" font-family="FreeSans" font-size="14.00" fill="#6666ff">Metamodel::RolePunning</text>
</a>
</g>
</g>
<!-- Metamodel::ParametricRoleGroupHOW -->
<g id="node8" class="node"><title>Metamodel::ParametricRoleGroupHOW</title>
<g id="a_node8"><a xlink:href="/type/Metamodel::ParametricRoleGroupHOW" xlink:title="Metamodel::ParametricRoleGroupHOW">
<ellipse fill="none" stroke="#000000" cx="-411.295" cy="375.529" rx="167.07" ry="18"/>
<text text-anchor="middle" x="-411.295" y="379.229" font-family="FreeSans" font-size="14.00" fill="#000000">Metamodel::ParametricRoleGroupHOW</text>
</a>
</g>
</g>
<!-- Metamodel::ParametricRoleGroupHOW&#45;&gt;Metamodel::BoolificationProtocol -->
<g id="edge9" class="edge"><title>Metamodel::ParametricRoleGroupHOW&#45;&gt;Metamodel::BoolificationProtocol</title>
<path fill="none" stroke="#6666ff" d="M-402.955,357.287C-380.323,307.779 -317.642,170.664 -290.633,111.582"/>
<polygon fill="#6666ff" stroke="#6666ff" points="-293.659,109.783 -286.318,102.143 -287.292,112.693 -293.659,109.783"/>
</g>
<!-- Metamodel::ParametricRoleGroupHOW&#45;&gt;Any -->
<g id="edge2" class="edge"><title>Metamodel::ParametricRoleGroupHOW&#45;&gt;Any</title>
<path fill="none" stroke="#000000" d="M-383.047,393.39C-305.21,442.605 -88.2122,579.812 -9.64228,629.491"/>
<polygon fill="#000000" stroke="#000000" points="-7.34714,626.801 -0.765464,635.104 -11.0881,632.717 -7.34714,626.801"/>
</g>
<!-- Metamodel::ParametricRoleGroupHOW&#45;&gt;Metamodel::Naming -->
<g id="edge5" class="edge"><title>Metamodel::ParametricRoleGroupHOW&#45;&gt;Metamodel::Naming</title>
<path fill="none" stroke="#6666ff" d="M-430.083,357.532C-465.286,323.811 -541.227,251.069 -581.288,212.695"/>
<polygon fill="#6666ff" stroke="#6666ff" points="-583.999,214.945 -588.799,205.501 -579.156,209.89 -583.999,214.945"/>
</g>
<!-- Metamodel::ParametricRoleGroupHOW&#45;&gt;Metamodel::Stashing -->
<g id="edge6" class="edge"><title>Metamodel::ParametricRoleGroupHOW&#45;&gt;Metamodel::Stashing</title>
<path fill="none" stroke="#6666ff" d="M-284.341,363.814C-255.565,361.158 -225.491,358.383 -198.317,355.876"/>
<polygon fill="#6666ff" stroke="#6666ff" points="-198.333,352.362 -188.053,354.929 -197.689,359.333 -198.333,352.362"/>
</g>
<!-- Metamodel::ParametricRoleGroupHOW&#45;&gt;Metamodel::TypePretense -->
<g id="edge7" class="edge"><title>Metamodel::ParametricRoleGroupHOW&#45;&gt;Metamodel::TypePretense</title>
<path fill="none" stroke="#6666ff" d="M-452.944,393.004C-536.319,427.986 -723.39,506.478 -812.962,544.06"/>
<polygon fill="#6666ff" stroke="#6666ff" points="-811.78,547.36 -822.355,548.001 -814.488,540.905 -811.78,547.36"/>
</g>
<!-- Metamodel::ParametricRoleGroupHOW&#45;&gt;Metamodel::RolePunning -->
<g id="edge8" class="edge"><title>Metamodel::ParametricRoleGroupHOW&#45;&gt;Metamodel::RolePunning</title>
<path fill="none" stroke="#6666ff" d="M-410.596,393.597C-408.749,441.332 -403.728,571.096 -401.489,628.98"/>
<polygon fill="#6666ff" stroke="#6666ff" points="-397.981,629.107 -401.092,639.235 -404.976,629.377 -397.981,629.107"/>
</g>
<!-- Metamodel::AttributeContainer -->
<g id="node9" class="node"><title>Metamodel::AttributeContainer</title>
<g id="a_node9"><a xlink:href="/type/Metamodel::AttributeContainer" xlink:title="Metamodel::AttributeContainer">
<ellipse fill="none" stroke="#6666ff" cx="18.6389" cy="52.4811" rx="129.977" ry="18"/>
<text text-anchor="middle" x="18.6389" y="56.1811" font-family="FreeSans" font-size="14.00" fill="#6666ff">Metamodel::AttributeContainer</text>
</a>
</g>
</g>
<!-- Metamodel::MethodContainer -->
<g id="node10" class="node"><title>Metamodel::MethodContainer</title>
<g id="a_node10"><a xlink:href="/type/Metamodel::MethodContainer" xlink:title="Metamodel::MethodContainer">
<ellipse fill="none" stroke="#6666ff" cx="911.043" cy="62.0705" rx="127.277" ry="18"/>
<text text-anchor="middle" x="911.043" y="65.7705" font-family="FreeSans" font-size="14.00" fill="#6666ff">Metamodel::MethodContainer</text>
</a>
</g>
</g>
<!-- Metamodel::MultiMethodContainer -->
<g id="node11" class="node"><title>Metamodel::MultiMethodContainer</title>
<g id="a_node11"><a xlink:href="/type/Metamodel::MultiMethodContainer" xlink:title="Metamodel::MultiMethodContainer">
<ellipse fill="none" stroke="#6666ff" cx="306.001" cy="58.9498" rx="146.474" ry="18"/>
<text text-anchor="middle" x="306.001" y="62.6498" font-family="FreeSans" font-size="14.00" fill="#6666ff">Metamodel::MultiMethodContainer</text>
</a>
</g>
</g>
<!-- Metamodel::RoleContainer -->
<g id="node12" class="node"><title>Metamodel::RoleContainer</title>
<g id="a_node12"><a xlink:href="/type/Metamodel::RoleContainer" xlink:title="Metamodel::RoleContainer">
<ellipse fill="none" stroke="#6666ff" cx="-257.146" cy="-187.194" rx="115.88" ry="18"/>
<text text-anchor="middle" x="-257.146" y="-183.494" font-family="FreeSans" font-size="14.00" fill="#6666ff">Metamodel::RoleContainer</text>
</a>
</g>
</g>
<!-- Metamodel::BaseType -->
<g id="node13" class="node"><title>Metamodel::BaseType</title>
<g id="a_node13"><a xlink:href="/type/Metamodel::BaseType" xlink:title="Metamodel::BaseType">
<ellipse fill="none" stroke="#6666ff" cx="870.378" cy="566.898" rx="99.3824" ry="18"/>
<text text-anchor="middle" x="870.378" y="570.598" font-family="FreeSans" font-size="14.00" fill="#6666ff">Metamodel::BaseType</text>
</a>
</g>
</g>
<!-- Metamodel::MROBasedMethodDispatch -->
<g id="node14" class="node"><title>Metamodel::MROBasedMethodDispatch</title>
<g id="a_node14"><a xlink:href="/type/Metamodel::MROBasedMethodDispatch" xlink:title="Metamodel::MROBasedMethodDispatch">
<ellipse fill="none" stroke="#6666ff" cx="900.959" cy="-466.617" rx="169.77" ry="18"/>
<text text-anchor="middle" x="900.959" y="-462.917" font-family="FreeSans" font-size="14.00" fill="#6666ff">Metamodel::MROBasedMethodDispatch</text>
</a>
</g>
</g>
<!-- Metamodel::MROBasedTypeChecking -->
<g id="node15" class="node"><title>Metamodel::MROBasedTypeChecking</title>
<g id="a_node15"><a xlink:href="/type/Metamodel::MROBasedTypeChecking" xlink:title="Metamodel::MROBasedTypeChecking">
<ellipse fill="none" stroke="#6666ff" cx="279.388" cy="-230.012" rx="163.271" ry="18"/>
<text text-anchor="middle" x="279.388" y="-226.312" font-family="FreeSans" font-size="14.00" fill="#6666ff">Metamodel::MROBasedTypeChecking</text>
</a>
</g>
</g>
<!-- Metamodel::BUILDPLAN -->
<g id="node16" class="node"><title>Metamodel::BUILDPLAN</title>
<g id="a_node16"><a xlink:href="/type/Metamodel::BUILDPLAN" xlink:title="Metamodel::BUILDPLAN">
<ellipse fill="none" stroke="#6666ff" cx="592.91" cy="-145.753" rx="109.681" ry="18"/>
<text text-anchor="middle" x="592.91" y="-142.053" font-family="FreeSans" font-size="14.00" fill="#6666ff">Metamodel::BUILDPLAN</text>
</a>
</g>
</g>
<!-- Metamodel::EnumHOW -->
<g id="node17" class="node"><title>Metamodel::EnumHOW</title>
<g id="a_node17"><a xlink:href="/type/Metamodel::EnumHOW" xlink:title="Metamodel::EnumHOW">
<ellipse fill="none" stroke="#000000" cx="203.72" cy="343.639" rx="104.782" ry="18"/>
<text text-anchor="middle" x="203.72" y="347.339" font-family="FreeSans" font-size="14.00" fill="#000000">Metamodel::EnumHOW</text>
</a>
</g>
</g>
<!-- Metamodel::EnumHOW&#45;&gt;Metamodel::BoolificationProtocol -->
<g id="edge20" class="edge"><title>Metamodel::EnumHOW&#45;&gt;Metamodel::BoolificationProtocol</title>
<path fill="none" stroke="#6666ff" d="M171.741,326.396C87.2462,280.837 -141.921,157.271 -236.401,106.328"/>
<polygon fill="#6666ff" stroke="#6666ff" points="-238.24,109.313 -245.381,101.486 -234.918,103.151 -238.24,109.313"/>
</g>
<!-- Metamodel::EnumHOW&#45;&gt;Any -->
<g id="edge3" class="edge"><title>Metamodel::EnumHOW&#45;&gt;Any</title>
<path fill="none" stroke="#000000" d="M192.731,361.752C161.363,413.457 71.3179,561.879 34.8456,621.996"/>
<polygon fill="#000000" stroke="#000000" points="37.6485,624.124 29.4692,630.858 31.6638,620.493 37.6485,624.124"/>
</g>
<!-- Metamodel::EnumHOW&#45;&gt;Metamodel::Naming -->
<g id="edge10" class="edge"><title>Metamodel::EnumHOW&#45;&gt;Metamodel::Naming</title>
<path fill="none" stroke="#6666ff" d="M133.876,330.22C-17.7245,301.094 -375.838,232.291 -532.113,202.267"/>
<polygon fill="#6666ff" stroke="#6666ff" points="-532.95,205.67 -542.11,200.346 -531.63,198.796 -532.95,205.67"/>
</g>
<!-- Metamodel::EnumHOW&#45;&gt;Metamodel::Stashing -->
<g id="edge11" class="edge"><title>Metamodel::EnumHOW&#45;&gt;Metamodel::Stashing</title>
<path fill="none" stroke="#6666ff" d="M99.2678,344.826C67.3216,345.189 32.2038,345.588 0.298641,345.95"/>
<polygon fill="#6666ff" stroke="#6666ff" points="0.0999388,349.453 -9.93921,346.067 0.0203522,342.453 0.0999388,349.453"/>
</g>
<!-- Metamodel::EnumHOW&#45;&gt;Metamodel::AttributeContainer -->
<g id="edge12" class="edge"><title>Metamodel::EnumHOW&#45;&gt;Metamodel::AttributeContainer</title>
<path fill="none" stroke="#6666ff" d="M192.142,325.426C160.592,275.793 72.9794,137.966 35.7401,79.3835"/>
<polygon fill="#6666ff" stroke="#6666ff" points="32.6231,81.0043 30.2122,70.6874 38.5306,77.2491 32.6231,81.0043"/>
</g>
<!-- Metamodel::EnumHOW&#45;&gt;Metamodel::MethodContainer -->
<g id="edge13" class="edge"><title>Metamodel::EnumHOW&#45;&gt;Metamodel::MethodContainer</title>
<path fill="none" stroke="#6666ff" d="M245.325,327.077C367.364,278.496 724.24,136.432 858.847,82.8483"/>
<polygon fill="#6666ff" stroke="#6666ff" points="857.563,79.5924 868.148,79.1457 860.152,86.0961 857.563,79.5924"/>
</g>
<!-- Metamodel::EnumHOW&#45;&gt;Metamodel::MultiMethodContainer -->
<g id="edge14" class="edge"><title>Metamodel::EnumHOW&#45;&gt;Metamodel::MultiMethodContainer</title>
<path fill="none" stroke="#6666ff" d="M210.274,325.398C227.701,276.889 275.273,144.477 296.06,86.6203"/>
<polygon fill="#6666ff" stroke="#6666ff" points="292.827,85.2672 299.502,77.0396 299.414,87.634 292.827,85.2672"/>
</g>
<!-- Metamodel::EnumHOW&#45;&gt;Metamodel::RoleContainer -->
<g id="edge15" class="edge"><title>Metamodel::EnumHOW&#45;&gt;Metamodel::RoleContainer</title>
<path fill="none" stroke="#6666ff" d="M184.388,325.871C115.635,262.681 -112.947,52.5927 -112.947,52.5927 -112.947,52.5927 -203.262,-97.5906 -240.941,-160.246"/>
<polygon fill="#6666ff" stroke="#6666ff" points="-244.154,-158.797 -246.308,-169.171 -238.155,-162.405 -244.154,-158.797"/>
</g>
<!-- Metamodel::EnumHOW&#45;&gt;Metamodel::BaseType -->
<g id="edge16" class="edge"><title>Metamodel::EnumHOW&#45;&gt;Metamodel::BaseType</title>
<path fill="none" stroke="#6666ff" d="M251.664,359.695C371.545,399.842 683.936,504.46 813.149,547.732"/>
<polygon fill="#6666ff" stroke="#6666ff" points="814.498,544.493 822.868,550.987 812.275,551.13 814.498,544.493"/>
</g>
<!-- Metamodel::EnumHOW&#45;&gt;Metamodel::MROBasedMethodDispatch -->
<g id="edge17" class="edge"><title>Metamodel::EnumHOW&#45;&gt;Metamodel::MROBasedMethodDispatch</title>
<path fill="none" stroke="#6666ff" d="M222.131,325.636C312.451,237.32 704.348,-145.885 704.348,-145.885 704.348,-145.885 837.212,-362.626 884.498,-439.763"/>
<polygon fill="#6666ff" stroke="#6666ff" points="881.615,-441.758 889.825,-448.454 887.583,-438.099 881.615,-441.758"/>
</g>
<!-- Metamodel::EnumHOW&#45;&gt;Metamodel::MROBasedTypeChecking -->
<g id="edge18" class="edge"><title>Metamodel::EnumHOW&#45;&gt;Metamodel::MROBasedTypeChecking</title>
<path fill="none" stroke="#6666ff" d="M200.801,325.4C190.746,262.575 158.164,58.9897 158.164,58.9897 158.164,58.9897 237.616,-130.427 267.875,-202.565"/>
<polygon fill="#6666ff" stroke="#6666ff" points="264.709,-204.066 271.804,-211.933 271.164,-201.358 264.709,-204.066"/>
</g>
<!-- Metamodel::EnumHOW&#45;&gt;Metamodel::BUILDPLAN -->
<g id="edge19" class="edge"><title>Metamodel::EnumHOW&#45;&gt;Metamodel::BUILDPLAN</title>
<path fill="none" stroke="#6666ff" d="M219.366,325.828C274.123,263.494 453.837,58.91 453.837,58.91 453.837,58.91 537.013,-63.4943 574.716,-118.979"/>
<polygon fill="#6666ff" stroke="#6666ff" points="572.053,-121.287 580.568,-127.591 577.843,-117.353 572.053,-121.287"/>
</g>
<!-- Metamodel::Documenting -->
<g id="node18" class="node"><title>Metamodel::Documenting</title>
<g id="a_node18"><a xlink:href="/type/Metamodel::Documenting" xlink:title="Metamodel::Documenting">
<ellipse fill="none" stroke="#6666ff" cx="-272.563" cy="-509.531" rx="111.28" ry="18"/>
<text text-anchor="middle" x="-272.563" y="-505.831" font-family="FreeSans" font-size="14.00" fill="#6666ff">Metamodel::Documenting</text>
</a>
</g>
</g>
<!-- Metamodel::Versioning -->
<g id="node19" class="node"><title>Metamodel::Versioning</title>
<g id="a_node19"><a xlink:href="/type/Metamodel::Versioning" xlink:title="Metamodel::Versioning">
<ellipse fill="none" stroke="#6666ff" cx="-907.436" cy="-465.453" rx="100.983" ry="18"/>
<text text-anchor="middle" x="-907.436" y="-461.753" font-family="FreeSans" font-size="14.00" fill="#6666ff">Metamodel::Versioning</text>
</a>
</g>
</g>
<!-- Metamodel::Finalization -->
<g id="node20" class="node"><title>Metamodel::Finalization</title>
<g id="a_node20"><a xlink:href="/type/Metamodel::Finalization" xlink:title="Metamodel::Finalization">
<ellipse fill="none" stroke="#6666ff" cx="-555.53" cy="-559.08" rx="103.982" ry="18"/>
<text text-anchor="middle" x="-555.53" y="-555.38" font-family="FreeSans" font-size="14.00" fill="#6666ff">Metamodel::Finalization</text>
</a>
</g>
</g>
<!-- Metamodel::PrivateMethodContainer -->
<g id="node21" class="node"><title>Metamodel::PrivateMethodContainer</title>
<g id="a_node21"><a xlink:href="/type/Metamodel::PrivateMethodContainer" xlink:title="Metamodel::PrivateMethodContainer">
<ellipse fill="none" stroke="#6666ff" cx="-577.088" cy="-175.419" rx="154.873" ry="18"/>
<text text-anchor="middle" x="-577.088" y="-171.719" font-family="FreeSans" font-size="14.00" fill="#6666ff">Metamodel::PrivateMethodContainer</text>
</a>
</g>
</g>
<!-- Metamodel::MultipleInheritance -->
<g id="node22" class="node"><title>Metamodel::MultipleInheritance</title>
<g id="a_node22"><a xlink:href="/type/Metamodel::MultipleInheritance" xlink:title="Metamodel::MultipleInheritance">
<ellipse fill="none" stroke="#6666ff" cx="-922.359" cy="51.767" rx="133.776" ry="18"/>
<text text-anchor="middle" x="-922.359" y="55.467" font-family="FreeSans" font-size="14.00" fill="#6666ff">Metamodel::MultipleInheritance</text>
</a>
</g>
</g>
<!-- Metamodel::DefaultParent -->
<g id="node23" class="node"><title>Metamodel::DefaultParent</title>
<g id="a_node23"><a xlink:href="/type/Metamodel::DefaultParent" xlink:title="Metamodel::DefaultParent">
<ellipse fill="none" stroke="#6666ff" cx="230.157" cy="-552.004" rx="113.18" ry="18"/>
<text text-anchor="middle" x="230.157" y="-548.304" font-family="FreeSans" font-size="14.00" fill="#6666ff">Metamodel::DefaultParent</text>
</a>
</g>
</g>
<!-- Metamodel::C3MRO -->
<g id="node24" class="node"><title>Metamodel::C3MRO</title>
<g id="a_node24"><a xlink:href="/type/Metamodel::C3MRO" xlink:title="Metamodel::C3MRO">
<ellipse fill="none" stroke="#6666ff" cx="538.121" cy="-543.095" rx="92.0841" ry="18"/>
<text text-anchor="middle" x="538.121" y="-539.395" font-family="FreeSans" font-size="14.00" fill="#6666ff">Metamodel::C3MRO</text>
</a>
</g>
</g>
<!-- Metamodel::Trusting -->
<g id="node25" class="node"><title>Metamodel::Trusting</title>
<g id="a_node25"><a xlink:href="/type/Metamodel::Trusting" xlink:title="Metamodel::Trusting">
<ellipse fill="none" stroke="#6666ff" cx="-33.0182" cy="-578.599" rx="91.784" ry="18"/>
<text text-anchor="middle" x="-33.0182" y="-574.899" font-family="FreeSans" font-size="14.00" fill="#6666ff">Metamodel::Trusting</text>
</a>
</g>
</g>
<!-- Metamodel::Mixins -->
<g id="node26" class="node"><title>Metamodel::Mixins</title>
<g id="a_node26"><a xlink:href="/type/Metamodel::Mixins" xlink:title="Metamodel::Mixins">
<ellipse fill="none" stroke="#6666ff" cx="561.286" cy="266.564" rx="85.2851" ry="18"/>
<text text-anchor="middle" x="561.286" y="270.264" font-family="FreeSans" font-size="14.00" fill="#6666ff">Metamodel::Mixins</text>
</a>
</g>
</g>
<!-- Metamodel::ClassHOW -->
<g id="node27" class="node"><title>Metamodel::ClassHOW</title>
<g id="a_node27"><a xlink:href="/type/Metamodel::ClassHOW" xlink:title="Metamodel::ClassHOW">
<ellipse fill="none" stroke="#000000" cx="4.50055" cy="-247.479" rx="103.982" ry="18"/>
<text text-anchor="middle" x="4.50055" y="-243.779" font-family="FreeSans" font-size="14.00" fill="#000000">Metamodel::ClassHOW</text>
</a>
</g>
</g>
<!-- Metamodel::ClassHOW&#45;&gt;Metamodel::BoolificationProtocol -->
<g id="edge39" class="edge"><title>Metamodel::ClassHOW&#45;&gt;Metamodel::BoolificationProtocol</title>
<path fill="none" stroke="#6666ff" d="M-10.6869,-229.662C-57.7234,-174.483 -201.122,-6.25853 -256.157,58.3047"/>
<polygon fill="#6666ff" stroke="#6666ff" points="-253.568,60.6632 -262.719,66.003 -258.896,56.1221 -253.568,60.6632"/>
</g>
<!-- Metamodel::ClassHOW&#45;&gt;Any -->
<g id="edge4" class="edge"><title>Metamodel::ClassHOW&#45;&gt;Any</title>
<path fill="none" stroke="#000000" d="M-2.66955,-229.16C-28.1692,-164.01 -112.947,52.5927 -112.947,52.5927 -112.947,52.5927 -8.35015,346.946 -8.35015,346.946 -8.35015,346.946 9.73235,544.194 16.6115,619.233"/>
<polygon fill="#000000" stroke="#000000" points="20.1141,619.102 17.5417,629.38 13.1433,619.741 20.1141,619.102"/>
</g>
<!-- Metamodel::ClassHOW&#45;&gt;Metamodel::Naming -->
<g id="edge21" class="edge"><title>Metamodel::ClassHOW&#45;&gt;Metamodel::Naming</title>
<path fill="none" stroke="#6666ff" d="M-20.2383,-229.875C-116.434,-161.423 -465.625,87.0568 -574.557,164.571"/>
<polygon fill="#6666ff" stroke="#6666ff" points="-572.691,167.54 -582.868,170.486 -576.75,161.836 -572.691,167.54"/>
</g>
<!-- Metamodel::ClassHOW&#45;&gt;Metamodel::Stashing -->
<g id="edge24" class="edge"><title>Metamodel::ClassHOW&#45;&gt;Metamodel::Stashing</title>
<path fill="none" stroke="#6666ff" d="M-2.66955,-229.16C-28.1692,-164.01 -112.947,52.5927 -112.947,52.5927 -112.947,52.5927 -106.805,244.848 -104.446,318.705"/>
<polygon fill="#6666ff" stroke="#6666ff" points="-100.947,318.599 -104.126,328.705 -107.944,318.822 -100.947,318.599"/>
</g>
<!-- Metamodel::ClassHOW&#45;&gt;Metamodel::AttributeContainer -->
<g id="edge25" class="edge"><title>Metamodel::ClassHOW&#45;&gt;Metamodel::AttributeContainer</title>
<path fill="none" stroke="#6666ff" d="M5.36368,-229.167C7.75045,-178.529 14.4513,-36.3635 17.3146,24.3842"/>
<polygon fill="#6666ff" stroke="#6666ff" points="20.8123,24.2547 17.7871,34.4084 13.8201,24.5843 20.8123,24.2547"/>
</g>
<!-- Metamodel::ClassHOW&#45;&gt;Metamodel::MethodContainer -->
<g id="edge27" class="edge"><title>Metamodel::ClassHOW&#45;&gt;Metamodel::MethodContainer</title>
<path fill="none" stroke="#6666ff" d="M51.6471,-231.38C204.251,-179.272 684.541,-15.2713 852.42,42.053"/>
<polygon fill="#6666ff" stroke="#6666ff" points="853.743,38.8063 862.076,45.35 851.481,45.4308 853.743,38.8063"/>
</g>
<!-- Metamodel::ClassHOW&#45;&gt;Metamodel::MultiMethodContainer -->
<g id="edge29" class="edge"><title>Metamodel::ClassHOW&#45;&gt;Metamodel::MultiMethodContainer</title>
<path fill="none" stroke="#6666ff" d="M22.0137,-229.68C72.9953,-177.864 221.456,-26.9766 280.932,33.471"/>
<polygon fill="#6666ff" stroke="#6666ff" points="283.541,31.1329 288.06,40.7158 278.552,36.0424 283.541,31.1329"/>
</g>
<!-- Metamodel::ClassHOW&#45;&gt;Metamodel::RoleContainer -->
<g id="edge30" class="edge"><title>Metamodel::ClassHOW&#45;&gt;Metamodel::RoleContainer</title>
<path fill="none" stroke="#6666ff" d="M-58.1704,-233.039C-95.5222,-224.433 -143.157,-213.457 -182.454,-204.403"/>
<polygon fill="#6666ff" stroke="#6666ff" points="-181.724,-200.98 -192.254,-202.145 -183.295,-207.801 -181.724,-200.98"/>
</g>
<!-- Metamodel::ClassHOW&#45;&gt;Metamodel::MROBasedMethodDispatch -->
<g id="edge34" class="edge"><title>Metamodel::ClassHOW&#45;&gt;Metamodel::MROBasedMethodDispatch</title>
<path fill="none" stroke="#6666ff" d="M64.7117,-262.197C222.409,-300.746 647.413,-404.638 823.209,-447.611"/>
<polygon fill="#6666ff" stroke="#6666ff" points="822.616,-451.069 833.161,-450.044 824.279,-444.269 822.616,-451.069"/>
</g>
<!-- Metamodel::ClassHOW&#45;&gt;Metamodel::MROBasedTypeChecking -->
<g id="edge35" class="edge"><title>Metamodel::ClassHOW&#45;&gt;Metamodel::MROBasedTypeChecking</title>
<path fill="none" stroke="#6666ff" d="M102.189,-241.271C110.508,-240.743 119.039,-240.201 127.646,-239.654"/>
<polygon fill="#6666ff" stroke="#6666ff" points="128.018,-243.137 137.776,-239.01 127.575,-236.151 128.018,-243.137"/>
</g>
<!-- Metamodel::ClassHOW&#45;&gt;Metamodel::BUILDPLAN -->
<g id="edge37" class="edge"><title>Metamodel::ClassHOW&#45;&gt;Metamodel::BUILDPLAN</title>
<path fill="none" stroke="#6666ff" d="M73.441,-233.875C116.491,-225.381 163.79,-216.048 163.79,-216.048 163.79,-216.048 379.687,-180.681 505.207,-160.12"/>
<polygon fill="#6666ff" stroke="#6666ff" points="505.897,-163.554 515.2,-158.483 504.765,-156.646 505.897,-163.554"/>
</g>
<!-- Metamodel::ClassHOW&#45;&gt;Metamodel::Documenting -->
<g id="edge22" class="edge"><title>Metamodel::ClassHOW&#45;&gt;Metamodel::Documenting</title>
<path fill="none" stroke="#6666ff" d="M-14.5431,-265.491C-63.0013,-311.324 -191.061,-432.445 -246.437,-484.821"/>
<polygon fill="#6666ff" stroke="#6666ff" points="-248.892,-482.325 -253.752,-491.74 -244.082,-487.411 -248.892,-482.325"/>
</g>
<!-- Metamodel::ClassHOW&#45;&gt;Metamodel::Versioning -->
<g id="edge23" class="edge"><title>Metamodel::ClassHOW&#45;&gt;Metamodel::Versioning</title>
<path fill="none" stroke="#6666ff" d="M-56.7502,-262.119C-219.912,-301.119 -664.373,-407.355 -837.289,-448.686"/>
<polygon fill="#6666ff" stroke="#6666ff" points="-838.136,-445.29 -847.048,-451.019 -836.508,-452.098 -838.136,-445.29"/>
</g>
<!-- Metamodel::ClassHOW&#45;&gt;Metamodel::Finalization -->
<g id="edge26" class="edge"><title>Metamodel::ClassHOW&#45;&gt;Metamodel::Finalization</title>
<path fill="none" stroke="#6666ff" d="M-26.4068,-264.676C-121.436,-317.55 -409.286,-477.71 -515.554,-536.838"/>
<polygon fill="#6666ff" stroke="#6666ff" points="-517.337,-533.824 -524.374,-541.745 -513.933,-539.941 -517.337,-533.824"/>
</g>
<!-- Metamodel::ClassHOW&#45;&gt;Metamodel::PrivateMethodContainer -->
<g id="edge28" class="edge"><title>Metamodel::ClassHOW&#45;&gt;Metamodel::PrivateMethodContainer</title>
<path fill="none" stroke="#6666ff" d="M-80.0674,-237.001C-180.451,-224.563 -348.385,-203.756 -460.913,-189.814"/>
<polygon fill="#6666ff" stroke="#6666ff" points="-460.593,-186.327 -470.947,-188.57 -461.454,-193.273 -460.593,-186.327"/>
</g>
<!-- Metamodel::ClassHOW&#45;&gt;Metamodel::MultipleInheritance -->
<g id="edge31" class="edge"><title>Metamodel::ClassHOW&#45;&gt;Metamodel::MultipleInheritance</title>
<path fill="none" stroke="#6666ff" d="M-35.3278,-230.851C-78.0567,-213.012 -139.857,-187.211 -139.857,-187.211 -139.857,-187.211 -174.137,-173.347 -174.137,-173.347 -174.137,-173.347 -676.502,-22.2029 -857.959,32.3912"/>
<polygon fill="#6666ff" stroke="#6666ff" points="-857.059,35.7755 -867.644,35.305 -859.076,29.0723 -857.059,35.7755"/>
</g>
<!-- Metamodel::ClassHOW&#45;&gt;Metamodel::DefaultParent -->
<g id="edge32" class="edge"><title>Metamodel::ClassHOW&#45;&gt;Metamodel::DefaultParent</title>
<path fill="none" stroke="#6666ff" d="M17.9406,-265.616C56.1945,-317.24 165.792,-465.142 210.654,-525.684"/>
<polygon fill="#6666ff" stroke="#6666ff" points="208.022,-528.01 216.788,-533.961 213.646,-523.843 208.022,-528.01"/>
</g>
<!-- Metamodel::ClassHOW&#45;&gt;Metamodel::C3MRO -->
<g id="edge33" class="edge"><title>Metamodel::ClassHOW&#45;&gt;Metamodel::C3MRO</title>
<path fill="none" stroke="#6666ff" d="M35.8887,-264.867C127.854,-315.815 396.591,-464.69 498.402,-521.091"/>
<polygon fill="#6666ff" stroke="#6666ff" points="496.996,-524.313 507.439,-526.098 500.388,-518.19 496.996,-524.313"/>
</g>
<!-- Metamodel::ClassHOW&#45;&gt;Metamodel::Trusting -->
<g id="edge36" class="edge"><title>Metamodel::ClassHOW&#45;&gt;Metamodel::Trusting</title>
<path fill="none" stroke="#6666ff" d="M2.42994,-265.753C-3.78375,-320.592 -22.3032,-484.034 -29.8071,-550.261"/>
<polygon fill="#6666ff" stroke="#6666ff" points="-33.3057,-550.051 -30.9539,-560.382 -26.3502,-550.839 -33.3057,-550.051"/>
</g>
<!-- Metamodel::ClassHOW&#45;&gt;Metamodel::Mixins -->
<g id="edge38" class="edge"><title>Metamodel::ClassHOW&#45;&gt;Metamodel::Mixins</title>
<path fill="none" stroke="#6666ff" d="M30.2727,-229.906C125.751,-164.802 453.837,58.91 453.837,58.91 453.837,58.91 518.142,183.184 547.258,239.454"/>
<polygon fill="#6666ff" stroke="#6666ff" points="550.451,238.009 551.938,248.499 544.234,241.226 550.451,238.009"/>
</g>
</g>
</svg>
