<?xml version="1.0" encoding="UTF-8" standalone="no"?>
<!DOCTYPE svg PUBLIC "-//W3C//DTD SVG 1.1//EN"
 "http://www.w3.org/Graphics/SVG/1.1/DTD/svg11.dtd">
<!-- Generated by graphviz version 2.38.0 (20140413.2041)
 -->
<!-- Title: perl6&#45;type&#45;graph Pages: 1 -->
<svg width="291pt" height="404pt"
 viewBox="0.00 0.00 291.37 404.00" xmlns="http://www.w3.org/2000/svg" xmlns:xlink="http://www.w3.org/1999/xlink">
<g id="graph0" class="graph" transform="scale(1 1) rotate(0) translate(4 400)">
<title>perl6&#45;type&#45;graph</title>
<polygon fill="white" stroke="none" points="-4,4 -4,-400 287.375,-400 287.375,4 -4,4"/>
<!-- X::Syntax::Pod::BeginWithoutEnd -->
<g id="node1" class="node"><title>X::Syntax::Pod::BeginWithoutEnd</title>
<g id="a_node1"><a xlink:href="/type/X::Syntax::Pod::BeginWithoutEnd" xlink:title="X::Syntax::Pod::BeginWithoutEnd">
<ellipse fill="none" stroke="#000000" cx="141.687" cy="-18" rx="141.875" ry="18"/>
<text text-anchor="middle" x="141.687" y="-14.3" font-family="FreeSans" font-size="14.00" fill="#000000">X::Syntax::Pod::BeginWithoutEnd</text>
</a>
</g>
</g>
<!-- Exception -->
<g id="node4" class="node"><title>Exception</title>
<g id="a_node4"><a xlink:href="/type/Exception" xlink:title="Exception">
<ellipse fill="none" stroke="#000000" cx="103.687" cy="-234" rx="49.2915" ry="18"/>
<text text-anchor="middle" x="103.687" y="-230.3" font-family="FreeSans" font-size="14.00" fill="#000000">Exception</text>
</a>
</g>
</g>
<!-- X::Syntax::Pod::BeginWithoutEnd&#45;&gt;Exception -->
<g id="edge1" class="edge"><title>X::Syntax::Pod::BeginWithoutEnd&#45;&gt;Exception</title>
<path fill="none" stroke="#000000" d="M123.339,-36.0613C106.676,-51.5549 84.6874,-72 84.6874,-72 84.6874,-72 84.6874,-108 84.6874,-108 84.6874,-108 93.9607,-169.008 99.5503,-205.782"/>
<polygon fill="#000000" stroke="#000000" points="96.1223,-206.521 101.085,-215.881 103.043,-205.469 96.1223,-206.521"/>
</g>
<!-- X::Syntax -->
<g id="node6" class="node"><title>X::Syntax</title>
<g id="a_node6"><a xlink:href="/type/X::Syntax" xlink:title="X::Syntax">
<ellipse fill="none" stroke="#6666ff" cx="141.687" cy="-90" rx="48.1917" ry="18"/>
<text text-anchor="middle" x="141.687" y="-86.3" font-family="FreeSans" font-size="14.00" fill="#6666ff">X::Syntax</text>
</a>
</g>
</g>
<!-- X::Syntax::Pod::BeginWithoutEnd&#45;&gt;X::Syntax -->
<g id="edge6" class="edge"><title>X::Syntax::Pod::BeginWithoutEnd&#45;&gt;X::Syntax</title>
<path fill="none" stroke="#6666ff" d="M141.687,-36.3034C141.687,-44.0173 141.687,-53.2875 141.687,-61.8876"/>
<polygon fill="#6666ff" stroke="#6666ff" points="138.188,-61.8956 141.687,-71.8957 145.188,-61.8957 138.188,-61.8956"/>
</g>
<!-- X::Pod -->
<g id="node7" class="node"><title>X::Pod</title>
<g id="a_node7"><a xlink:href="/type/X::Pod" xlink:title="X::Pod">
<ellipse fill="none" stroke="#6666ff" cx="244.687" cy="-90" rx="37.0935" ry="18"/>
<text text-anchor="middle" x="244.687" y="-86.3" font-family="FreeSans" font-size="14.00" fill="#6666ff">X::Pod</text>
</a>
</g>
</g>
<!-- X::Syntax::Pod::BeginWithoutEnd&#45;&gt;X::Pod -->
<g id="edge7" class="edge"><title>X::Syntax::Pod::BeginWithoutEnd&#45;&gt;X::Pod</title>
<path fill="none" stroke="#6666ff" d="M166.358,-35.7667C181.085,-45.7749 199.871,-58.5425 215.355,-69.0651"/>
<polygon fill="#6666ff" stroke="#6666ff" points="213.795,-72.2372 224.033,-74.9633 217.73,-66.4476 213.795,-72.2372"/>
</g>
<!-- Mu -->
<g id="node2" class="node"><title>Mu</title>
<g id="a_node2"><a xlink:href="/type/Mu" xlink:title="Mu">
<ellipse fill="none" stroke="#000000" cx="103.687" cy="-378" rx="27" ry="18"/>
<text text-anchor="middle" x="103.687" y="-374.3" font-family="FreeSans" font-size="14.00" fill="#000000">Mu</text>
</a>
</g>
</g>
<!-- Any -->
<g id="node3" class="node"><title>Any</title>
<g id="a_node3"><a xlink:href="/type/Any" xlink:title="Any">
<ellipse fill="none" stroke="#000000" cx="103.687" cy="-306" rx="27" ry="18"/>
<text text-anchor="middle" x="103.687" y="-302.3" font-family="FreeSans" font-size="14.00" fill="#000000">Any</text>
</a>
</g>
</g>
<!-- Any&#45;&gt;Mu -->
<g id="edge2" class="edge"><title>Any&#45;&gt;Mu</title>
<path fill="none" stroke="#000000" d="M103.687,-324.303C103.687,-332.017 103.687,-341.288 103.687,-349.888"/>
<polygon fill="#000000" stroke="#000000" points="100.188,-349.896 103.687,-359.896 107.188,-349.896 100.188,-349.896"/>
</g>
<!-- Exception&#45;&gt;Any -->
<g id="edge3" class="edge"><title>Exception&#45;&gt;Any</title>
<path fill="none" stroke="#000000" d="M103.687,-252.303C103.687,-260.017 103.687,-269.288 103.687,-277.888"/>
<polygon fill="#000000" stroke="#000000" points="100.188,-277.896 103.687,-287.896 107.188,-277.896 100.188,-277.896"/>
</g>
<!-- X::Comp -->
<g id="node5" class="node"><title>X::Comp</title>
<g id="a_node5"><a xlink:href="/type/X::Comp" xlink:title="X::Comp">
<ellipse fill="none" stroke="#6666ff" cx="176.687" cy="-162" rx="44.6926" ry="18"/>
<text text-anchor="middle" x="176.687" y="-158.3" font-family="FreeSans" font-size="14.00" fill="#6666ff">X::Comp</text>
</a>
</g>
</g>
<!-- X::Comp&#45;&gt;Exception -->
<g id="edge4" class="edge"><title>X::Comp&#45;&gt;Exception</title>
<path fill="none" stroke="#000000" d="M160.123,-178.884C150.577,-188.038 138.407,-199.707 127.814,-209.865"/>
<polygon fill="#000000" stroke="#000000" points="125.235,-207.489 120.439,-216.936 130.08,-212.541 125.235,-207.489"/>
</g>
<!-- X::Syntax&#45;&gt;Exception -->
<g id="edge5" class="edge"><title>X::Syntax&#45;&gt;Exception</title>
<path fill="none" stroke="#000000" d="M135.571,-108.061C130.017,-123.555 122.687,-144 122.687,-144 122.687,-144 115.038,-179.833 109.446,-206.025"/>
<polygon fill="#000000" stroke="#000000" points="106.016,-205.33 107.351,-215.84 112.862,-206.791 106.016,-205.33"/>
</g>
<!-- X::Syntax&#45;&gt;X::Comp -->
<g id="edge8" class="edge"><title>X::Syntax&#45;&gt;X::Comp</title>
<path fill="none" stroke="#6666ff" d="M150.16,-107.945C154.244,-116.113 159.232,-126.088 163.775,-135.176"/>
<polygon fill="#6666ff" stroke="#6666ff" points="160.69,-136.832 168.293,-144.211 166.951,-133.701 160.69,-136.832"/>
</g>
</g>
</svg>
