<?xml version="1.0" encoding="UTF-8" standalone="no"?>
<!DOCTYPE svg PUBLIC "-//W3C//DTD SVG 1.1//EN"
 "http://www.w3.org/Graphics/SVG/1.1/DTD/svg11.dtd">
<!-- Generated by graphviz version 2.38.0 (20140413.2041)
 -->
<!-- Title: perl6&#45;type&#45;graph Pages: 1 -->
<svg width="118pt" height="260pt"
 viewBox="0.00 0.00 118.15 260.00" xmlns="http://www.w3.org/2000/svg" xmlns:xlink="http://www.w3.org/1999/xlink">
<g id="graph0" class="graph" transform="scale(1 1) rotate(0) translate(4 256)">
<title>perl6&#45;type&#45;graph</title>
<polygon fill="white" stroke="none" points="-4,4 -4,-256 114.146,-256 114.146,4 -4,4"/>
<!-- Systemic -->
<g id="node1" class="node"><title>Systemic</title>
<g id="a_node1"><a xlink:href="/type/Systemic" xlink:title="Systemic">
<ellipse fill="none" stroke="#000000" cx="46.1459" cy="-90" rx="46.2923" ry="18"/>
<text text-anchor="middle" x="46.1459" y="-86.3" font-family="FreeSans" font-size="14.00" fill="#000000">Systemic</text>
</a>
</g>
</g>
<!-- Any -->
<g id="node3" class="node"><title>Any</title>
<g id="a_node3"><a xlink:href="/type/Any" xlink:title="Any">
<ellipse fill="none" stroke="#000000" cx="83.1459" cy="-162" rx="27" ry="18"/>
<text text-anchor="middle" x="83.1459" y="-158.3" font-family="FreeSans" font-size="14.00" fill="#000000">Any</text>
</a>
</g>
</g>
<!-- Systemic&#45;&gt;Any -->
<g id="edge1" class="edge"><title>Systemic&#45;&gt;Any</title>
<path fill="none" stroke="#000000" d="M55.1026,-107.945C59.4836,-116.233 64.8479,-126.382 69.7074,-135.576"/>
<polygon fill="#000000" stroke="#000000" points="66.759,-137.488 74.5265,-144.693 72.9477,-134.216 66.759,-137.488"/>
</g>
<!-- Mu -->
<g id="node2" class="node"><title>Mu</title>
<g id="a_node2"><a xlink:href="/type/Mu" xlink:title="Mu">
<ellipse fill="none" stroke="#000000" cx="83.1459" cy="-234" rx="27" ry="18"/>
<text text-anchor="middle" x="83.1459" y="-230.3" font-family="FreeSans" font-size="14.00" fill="#000000">Mu</text>
</a>
</g>
</g>
<!-- Any&#45;&gt;Mu -->
<g id="edge2" class="edge"><title>Any&#45;&gt;Mu</title>
<path fill="none" stroke="#000000" d="M83.1459,-180.303C83.1459,-188.017 83.1459,-197.288 83.1459,-205.888"/>
<polygon fill="#000000" stroke="#000000" points="79.646,-205.896 83.1459,-215.896 86.646,-205.896 79.646,-205.896"/>
</g>
<!-- VM -->
<g id="node4" class="node"><title>VM</title>
<g id="a_node4"><a xlink:href="/type/VM" xlink:title="VM">
<ellipse fill="none" stroke="#000000" cx="83.1459" cy="-18" rx="27" ry="18"/>
<text text-anchor="middle" x="83.1459" y="-14.3" font-family="FreeSans" font-size="14.00" fill="#000000">VM</text>
</a>
</g>
</g>
<!-- VM&#45;&gt;Systemic -->
<g id="edge4" class="edge"><title>VM&#45;&gt;Systemic</title>
<path fill="none" stroke="#6666ff" d="M74.5644,-35.2354C70.2094,-43.4745 64.8133,-53.6834 59.897,-62.9843"/>
<polygon fill="#6666ff" stroke="#6666ff" points="56.7759,-61.3995 55.1971,-71.8761 62.9646,-64.6707 56.7759,-61.3995"/>
</g>
<!-- VM&#45;&gt;Any -->
<g id="edge3" class="edge"><title>VM&#45;&gt;Any</title>
<path fill="none" stroke="#000000" d="M88.8412,-35.7695C94.1147,-51.2969 101.146,-72 101.146,-72 101.146,-72 101.146,-108 101.146,-108 101.146,-108 96.593,-121.406 92.0668,-134.733"/>
<polygon fill="#000000" stroke="#000000" points="88.743,-133.636 88.8412,-144.23 95.3712,-135.887 88.743,-133.636"/>
</g>
</g>
</svg>
