<?xml version="1.0" encoding="UTF-8" standalone="no"?>
<!DOCTYPE svg PUBLIC "-//W3C//DTD SVG 1.1//EN"
 "http://www.w3.org/Graphics/SVG/1.1/DTD/svg11.dtd">
<!-- Generated by graphviz version 2.38.0 (20140413.2041)
 -->
<!-- Title: perl6&#45;type&#45;graph Pages: 1 -->
<svg width="1986pt" height="904pt"
 viewBox="0.00 0.00 1985.66 904.28" xmlns="http://www.w3.org/2000/svg" xmlns:xlink="http://www.w3.org/1999/xlink">
<g id="graph0" class="graph" transform="scale(1 1) rotate(0) translate(1001.07 439.792)">
<title>perl6&#45;type&#45;graph</title>
<polygon fill="white" stroke="none" points="-1001.07,464.484 -1001.07,-439.792 984.586,-439.792 984.586,464.484 -1001.07,464.484"/>
<!-- Metamodel::MROBasedTypeChecking -->
<g id="node1" class="node"><title>Metamodel::MROBasedTypeChecking</title>
<g id="a_node1"><a xlink:href="/type/Metamodel::MROBasedTypeChecking" xlink:title="Metamodel::MROBasedTypeChecking">
<ellipse fill="none" stroke="#6666ff" cx="-257.292" cy="164.075" rx="163.271" ry="18"/>
<text text-anchor="middle" x="-257.292" y="167.775" font-family="FreeSans" font-size="14.00" fill="#6666ff">Metamodel::MROBasedTypeChecking</text>
</a>
</g>
</g>
<!-- Mu -->
<g id="node2" class="node"><title>Mu</title>
<g id="a_node2"><a xlink:href="/type/Mu" xlink:title="Mu">
<ellipse fill="none" stroke="#000000" cx="826.987" cy="398.52" rx="27" ry="18"/>
<text text-anchor="middle" x="826.987" y="402.22" font-family="FreeSans" font-size="14.00" fill="#000000">Mu</text>
</a>
</g>
</g>
<!-- Any -->
<g id="node3" class="node"><title>Any</title>
<g id="a_node3"><a xlink:href="/type/Any" xlink:title="Any">
<ellipse fill="none" stroke="#000000" cx="425.024" cy="442.484" rx="27" ry="18"/>
<text text-anchor="middle" x="425.024" y="446.184" font-family="FreeSans" font-size="14.00" fill="#000000">Any</text>
</a>
</g>
</g>
<!-- Any&#45;&gt;Mu -->
<g id="edge1" class="edge"><title>Any&#45;&gt;Mu</title>
<path fill="none" stroke="#000000" d="M451.709,439.566C521.602,431.921 710.124,411.302 790.202,402.543"/>
<polygon fill="#000000" stroke="#000000" points="789.99,399.046 800.311,401.438 790.751,406.004 789.99,399.046"/>
</g>
<!-- Metamodel::Naming -->
<g id="node4" class="node"><title>Metamodel::Naming</title>
<g id="a_node4"><a xlink:href="/type/Metamodel::Naming" xlink:title="Metamodel::Naming">
<ellipse fill="none" stroke="#6666ff" cx="-480.497" cy="-110.1" rx="90.1842" ry="18"/>
<text text-anchor="middle" x="-480.497" y="-106.4" font-family="FreeSans" font-size="14.00" fill="#6666ff">Metamodel::Naming</text>
</a>
</g>
</g>
<!-- Metamodel::Documenting -->
<g id="node5" class="node"><title>Metamodel::Documenting</title>
<g id="a_node5"><a xlink:href="/type/Metamodel::Documenting" xlink:title="Metamodel::Documenting">
<ellipse fill="none" stroke="#6666ff" cx="490.604" cy="-117.183" rx="111.28" ry="18"/>
<text text-anchor="middle" x="490.604" y="-113.483" font-family="FreeSans" font-size="14.00" fill="#6666ff">Metamodel::Documenting</text>
</a>
</g>
</g>
<!-- Metamodel::Versioning -->
<g id="node6" class="node"><title>Metamodel::Versioning</title>
<g id="a_node6"><a xlink:href="/type/Metamodel::Versioning" xlink:title="Metamodel::Versioning">
<ellipse fill="none" stroke="#6666ff" cx="-444.014" cy="441.608" rx="100.983" ry="18"/>
<text text-anchor="middle" x="-444.014" y="445.308" font-family="FreeSans" font-size="14.00" fill="#6666ff">Metamodel::Versioning</text>
</a>
</g>
</g>
<!-- Metamodel::Stashing -->
<g id="node7" class="node"><title>Metamodel::Stashing</title>
<g id="a_node7"><a xlink:href="/type/Metamodel::Stashing" xlink:title="Metamodel::Stashing">
<ellipse fill="none" stroke="#6666ff" cx="116.423" cy="442.205" rx="93.6835" ry="18"/>
<text text-anchor="middle" x="116.423" y="445.905" font-family="FreeSans" font-size="14.00" fill="#6666ff">Metamodel::Stashing</text>
</a>
</g>
</g>
<!-- Metamodel::AttributeContainer -->
<g id="node8" class="node"><title>Metamodel::AttributeContainer</title>
<g id="a_node8"><a xlink:href="/type/Metamodel::AttributeContainer" xlink:title="Metamodel::AttributeContainer">
<ellipse fill="none" stroke="#6666ff" cx="850.598" cy="25.9301" rx="129.977" ry="18"/>
<text text-anchor="middle" x="850.598" y="29.6301" font-family="FreeSans" font-size="14.00" fill="#6666ff">Metamodel::AttributeContainer</text>
</a>
</g>
</g>
<!-- Metamodel::Finalization -->
<g id="node9" class="node"><title>Metamodel::Finalization</title>
<g id="a_node9"><a xlink:href="/type/Metamodel::Finalization" xlink:title="Metamodel::Finalization">
<ellipse fill="none" stroke="#6666ff" cx="-526.843" cy="155.538" rx="103.982" ry="18"/>
<text text-anchor="middle" x="-526.843" y="159.238" font-family="FreeSans" font-size="14.00" fill="#6666ff">Metamodel::Finalization</text>
</a>
</g>
</g>
<!-- Metamodel::MethodContainer -->
<g id="node10" class="node"><title>Metamodel::MethodContainer</title>
<g id="a_node10"><a xlink:href="/type/Metamodel::MethodContainer" xlink:title="Metamodel::MethodContainer">
<ellipse fill="none" stroke="#6666ff" cx="220.948" cy="190.425" rx="127.277" ry="18"/>
<text text-anchor="middle" x="220.948" y="194.125" font-family="FreeSans" font-size="14.00" fill="#6666ff">Metamodel::MethodContainer</text>
</a>
</g>
</g>
<!-- Metamodel::PrivateMethodContainer -->
<g id="node11" class="node"><title>Metamodel::PrivateMethodContainer</title>
<g id="a_node11"><a xlink:href="/type/Metamodel::PrivateMethodContainer" xlink:title="Metamodel::PrivateMethodContainer">
<ellipse fill="none" stroke="#6666ff" cx="-842.385" cy="395.98" rx="154.873" ry="18"/>
<text text-anchor="middle" x="-842.385" y="399.68" font-family="FreeSans" font-size="14.00" fill="#6666ff">Metamodel::PrivateMethodContainer</text>
</a>
</g>
</g>
<!-- Metamodel::MultiMethodContainer -->
<g id="node12" class="node"><title>Metamodel::MultiMethodContainer</title>
<g id="a_node12"><a xlink:href="/type/Metamodel::MultiMethodContainer" xlink:title="Metamodel::MultiMethodContainer">
<ellipse fill="none" stroke="#6666ff" cx="-223.533" cy="-369.937" rx="146.474" ry="18"/>
<text text-anchor="middle" x="-223.533" y="-366.237" font-family="FreeSans" font-size="14.00" fill="#6666ff">Metamodel::MultiMethodContainer</text>
</a>
</g>
</g>
<!-- Metamodel::RoleContainer -->
<g id="node13" class="node"><title>Metamodel::RoleContainer</title>
<g id="a_node13"><a xlink:href="/type/Metamodel::RoleContainer" xlink:title="Metamodel::RoleContainer">
<ellipse fill="none" stroke="#6666ff" cx="476.274" cy="-406.568" rx="115.88" ry="18"/>
<text text-anchor="middle" x="476.274" y="-402.868" font-family="FreeSans" font-size="14.00" fill="#6666ff">Metamodel::RoleContainer</text>
</a>
</g>
</g>
<!-- Metamodel::MultipleInheritance -->
<g id="node14" class="node"><title>Metamodel::MultipleInheritance</title>
<g id="a_node14"><a xlink:href="/type/Metamodel::MultipleInheritance" xlink:title="Metamodel::MultipleInheritance">
<ellipse fill="none" stroke="#6666ff" cx="11.7395" cy="-134.841" rx="133.776" ry="18"/>
<text text-anchor="middle" x="11.7395" y="-131.141" font-family="FreeSans" font-size="14.00" fill="#6666ff">Metamodel::MultipleInheritance</text>
</a>
</g>
</g>
<!-- Metamodel::DefaultParent -->
<g id="node15" class="node"><title>Metamodel::DefaultParent</title>
<g id="a_node15"><a xlink:href="/type/Metamodel::DefaultParent" xlink:title="Metamodel::DefaultParent">
<ellipse fill="none" stroke="#6666ff" cx="-483.671" cy="-401.349" rx="113.18" ry="18"/>
<text text-anchor="middle" x="-483.671" y="-397.649" font-family="FreeSans" font-size="14.00" fill="#6666ff">Metamodel::DefaultParent</text>
</a>
</g>
</g>
<!-- Metamodel::C3MRO -->
<g id="node16" class="node"><title>Metamodel::C3MRO</title>
<g id="a_node16"><a xlink:href="/type/Metamodel::C3MRO" xlink:title="Metamodel::C3MRO">
<ellipse fill="none" stroke="#6666ff" cx="-146.247" cy="432.891" rx="92.0841" ry="18"/>
<text text-anchor="middle" x="-146.247" y="436.591" font-family="FreeSans" font-size="14.00" fill="#6666ff">Metamodel::C3MRO</text>
</a>
</g>
</g>
<!-- Metamodel::MROBasedMethodDispatch -->
<g id="node17" class="node"><title>Metamodel::MROBasedMethodDispatch</title>
<g id="a_node17"><a xlink:href="/type/Metamodel::MROBasedMethodDispatch" xlink:title="Metamodel::MROBasedMethodDispatch">
<ellipse fill="none" stroke="#6666ff" cx="496.219" cy="153.928" rx="169.77" ry="18"/>
<text text-anchor="middle" x="496.219" y="157.628" font-family="FreeSans" font-size="14.00" fill="#6666ff">Metamodel::MROBasedMethodDispatch</text>
</a>
</g>
</g>
<!-- Metamodel::Trusting -->
<g id="node18" class="node"><title>Metamodel::Trusting</title>
<g id="a_node18"><a xlink:href="/type/Metamodel::Trusting" xlink:title="Metamodel::Trusting">
<ellipse fill="none" stroke="#6666ff" cx="-860.641" cy="16.2523" rx="91.784" ry="18"/>
<text text-anchor="middle" x="-860.641" y="19.9523" font-family="FreeSans" font-size="14.00" fill="#6666ff">Metamodel::Trusting</text>
</a>
</g>
</g>
<!-- Metamodel::BUILDPLAN -->
<g id="node19" class="node"><title>Metamodel::BUILDPLAN</title>
<g id="a_node19"><a xlink:href="/type/Metamodel::BUILDPLAN" xlink:title="Metamodel::BUILDPLAN">
<ellipse fill="none" stroke="#6666ff" cx="1.45787" cy="-417.792" rx="109.681" ry="18"/>
<text text-anchor="middle" x="1.45787" y="-414.092" font-family="FreeSans" font-size="14.00" fill="#6666ff">Metamodel::BUILDPLAN</text>
</a>
</g>
</g>
<!-- Metamodel::Mixins -->
<g id="node20" class="node"><title>Metamodel::Mixins</title>
<g id="a_node20"><a xlink:href="/type/Metamodel::Mixins" xlink:title="Metamodel::Mixins">
<ellipse fill="none" stroke="#6666ff" cx="-848.026" cy="-353.003" rx="85.2851" ry="18"/>
<text text-anchor="middle" x="-848.026" y="-349.303" font-family="FreeSans" font-size="14.00" fill="#6666ff">Metamodel::Mixins</text>
</a>
</g>
</g>
<!-- Metamodel::BoolificationProtocol -->
<g id="node21" class="node"><title>Metamodel::BoolificationProtocol</title>
<g id="a_node21"><a xlink:href="/type/Metamodel::BoolificationProtocol" xlink:title="Metamodel::BoolificationProtocol">
<ellipse fill="none" stroke="#6666ff" cx="222.019" cy="-359.652" rx="139.175" ry="18"/>
<text text-anchor="middle" x="222.019" y="-355.952" font-family="FreeSans" font-size="14.00" fill="#6666ff">Metamodel::BoolificationProtocol</text>
</a>
</g>
</g>
<!-- Metamodel::ClassHOW -->
<g id="node22" class="node"><title>Metamodel::ClassHOW</title>
<g id="a_node22"><a xlink:href="/type/Metamodel::ClassHOW" xlink:title="Metamodel::ClassHOW">
<ellipse fill="none" stroke="#000000" cx="-207.595" cy="-78.9091" rx="103.982" ry="18"/>
<text text-anchor="middle" x="-207.595" y="-75.2091" font-family="FreeSans" font-size="14.00" fill="#000000">Metamodel::ClassHOW</text>
</a>
</g>
</g>
<!-- Metamodel::ClassHOW&#45;&gt;Metamodel::MROBasedTypeChecking -->
<g id="edge19" class="edge"><title>Metamodel::ClassHOW&#45;&gt;Metamodel::MROBasedTypeChecking</title>
<path fill="none" stroke="#6666ff" d="M-211.331,-60.6458C-219.95,-18.5027 -241.276,85.7687 -251.562,136.061"/>
<polygon fill="#6666ff" stroke="#6666ff" points="-248.148,136.835 -253.581,145.931 -255.006,135.433 -248.148,136.835"/>
</g>
<!-- Metamodel::ClassHOW&#45;&gt;Any -->
<g id="edge2" class="edge"><title>Metamodel::ClassHOW&#45;&gt;Any</title>
<path fill="none" stroke="#000000" d="M-183.07,-61.2923C-110.977,-9.507 95.232,138.616 95.232,138.616 95.232,138.616 91.96,190.476 91.96,190.476 91.96,190.476 320.019,363.034 398.707,422.572"/>
<polygon fill="#000000" stroke="#000000" points="401.254,420.11 407.117,428.935 397.031,425.693 401.254,420.11"/>
</g>
<!-- Metamodel::ClassHOW&#45;&gt;Metamodel::Naming -->
<g id="edge5" class="edge"><title>Metamodel::ClassHOW&#45;&gt;Metamodel::Naming</title>
<path fill="none" stroke="#6666ff" d="M-294.693,-88.8639C-325.801,-92.4193 -360.863,-96.4267 -392.08,-99.9947"/>
<polygon fill="#6666ff" stroke="#6666ff" points="-392.532,-96.5235 -402.07,-101.137 -391.737,-103.478 -392.532,-96.5235"/>
</g>
<!-- Metamodel::ClassHOW&#45;&gt;Metamodel::Documenting -->
<g id="edge6" class="edge"><title>Metamodel::ClassHOW&#45;&gt;Metamodel::Documenting</title>
<path fill="none" stroke="#6666ff" d="M-108.302,-84.3522C19.1134,-91.3369 239.761,-103.432 374.717,-110.831"/>
<polygon fill="#6666ff" stroke="#6666ff" points="374.911,-114.346 385.087,-111.399 375.294,-107.357 374.911,-114.346"/>
</g>
<!-- Metamodel::ClassHOW&#45;&gt;Metamodel::Versioning -->
<g id="edge7" class="edge"><title>Metamodel::ClassHOW&#45;&gt;Metamodel::Versioning</title>
<path fill="none" stroke="#6666ff" d="M-223.363,-61.0321C-272.882,-4.88715 -422.024,164.208 -422.024,164.208 -422.024,164.208 -436.188,342.878 -441.781,413.434"/>
<polygon fill="#6666ff" stroke="#6666ff" points="-438.292,413.715 -442.571,423.407 -445.27,413.161 -438.292,413.715"/>
</g>
<!-- Metamodel::ClassHOW&#45;&gt;Metamodel::Stashing -->
<g id="edge8" class="edge"><title>Metamodel::ClassHOW&#45;&gt;Metamodel::Stashing</title>
<path fill="none" stroke="#6666ff" d="M-200.482,-60.7156C-180.017,-8.3735 -122.444,138.875 -122.444,138.875 -122.444,138.875 -92.5601,163.942 -92.5601,163.942 -92.5601,163.942 44.8978,346.969 96.8524,416.147"/>
<polygon fill="#6666ff" stroke="#6666ff" points="99.8254,414.277 103.032,424.375 94.2281,418.481 99.8254,414.277"/>
</g>
<!-- Metamodel::ClassHOW&#45;&gt;Metamodel::AttributeContainer -->
<g id="edge9" class="edge"><title>Metamodel::ClassHOW&#45;&gt;Metamodel::AttributeContainer</title>
<path fill="none" stroke="#6666ff" d="M-119.634,-69.2638C-13.1828,-57.591 151.977,-39.4805 151.977,-39.4805 151.977,-39.4805 533.119,-3.79489 732.363,14.8599"/>
<polygon fill="#6666ff" stroke="#6666ff" points="732.957,11.4002 742.587,15.8173 732.305,18.3697 732.957,11.4002"/>
</g>
<!-- Metamodel::ClassHOW&#45;&gt;Metamodel::Finalization -->
<g id="edge10" class="edge"><title>Metamodel::ClassHOW&#45;&gt;Metamodel::Finalization</title>
<path fill="none" stroke="#6666ff" d="M-231.591,-61.2875C-288.212,-19.7062 -430.192,84.5604 -494.405,131.716"/>
<polygon fill="#6666ff" stroke="#6666ff" points="-492.437,134.613 -502.569,137.712 -496.58,128.971 -492.437,134.613"/>
</g>
<!-- Metamodel::ClassHOW&#45;&gt;Metamodel::MethodContainer -->
<g id="edge11" class="edge"><title>Metamodel::ClassHOW&#45;&gt;Metamodel::MethodContainer</title>
<path fill="none" stroke="#6666ff" d="M-179.807,-61.4449C-105.094,-14.4885 100.122,114.487 184.244,167.357"/>
<polygon fill="#6666ff" stroke="#6666ff" points="186.341,164.541 192.945,172.825 182.616,170.467 186.341,164.541"/>
</g>
<!-- Metamodel::ClassHOW&#45;&gt;Metamodel::PrivateMethodContainer -->
<g id="edge12" class="edge"><title>Metamodel::ClassHOW&#45;&gt;Metamodel::PrivateMethodContainer</title>
<path fill="none" stroke="#6666ff" d="M-224.006,-60.9159C-274.037,-6.06037 -421.256,155.354 -421.256,155.354 -421.256,155.354 -697.808,313.371 -802.696,373.302"/>
<polygon fill="#6666ff" stroke="#6666ff" points="-800.999,376.364 -811.418,378.286 -804.472,370.286 -800.999,376.364"/>
</g>
<!-- Metamodel::ClassHOW&#45;&gt;Metamodel::MultiMethodContainer -->
<g id="edge13" class="edge"><title>Metamodel::ClassHOW&#45;&gt;Metamodel::MultiMethodContainer</title>
<path fill="none" stroke="#6666ff" d="M-208.592,-97.1142C-211.287,-146.316 -218.73,-282.228 -221.981,-341.584"/>
<polygon fill="#6666ff" stroke="#6666ff" points="-225.485,-341.562 -222.537,-351.739 -218.495,-341.945 -225.485,-341.562"/>
</g>
<!-- Metamodel::ClassHOW&#45;&gt;Metamodel::RoleContainer -->
<g id="edge14" class="edge"><title>Metamodel::ClassHOW&#45;&gt;Metamodel::RoleContainer</title>
<path fill="none" stroke="#6666ff" d="M-181.065,-96.5748C-156.5,-112.932 -123.747,-134.741 -123.747,-134.741 -123.747,-134.741 287.283,-320.95 428.954,-385.131"/>
<polygon fill="#6666ff" stroke="#6666ff" points="427.732,-388.42 438.285,-389.358 430.621,-382.043 427.732,-388.42"/>
</g>
<!-- Metamodel::ClassHOW&#45;&gt;Metamodel::MultipleInheritance -->
<g id="edge15" class="edge"><title>Metamodel::ClassHOW&#45;&gt;Metamodel::MultipleInheritance</title>
<path fill="none" stroke="#6666ff" d="M-149.106,-93.8244C-121.975,-100.743 -89.4564,-109.035 -60.7807,-116.348"/>
<polygon fill="#6666ff" stroke="#6666ff" points="-61.368,-119.81 -50.8132,-118.89 -59.6382,-113.027 -61.368,-119.81"/>
</g>
<!-- Metamodel::ClassHOW&#45;&gt;Metamodel::DefaultParent -->
<g id="edge16" class="edge"><title>Metamodel::ClassHOW&#45;&gt;Metamodel::DefaultParent</title>
<path fill="none" stroke="#6666ff" d="M-223.229,-97.1687C-269.734,-151.483 -407.313,-312.168 -461.438,-375.383"/>
<polygon fill="#6666ff" stroke="#6666ff" points="-464.363,-373.417 -468.208,-383.29 -459.046,-377.97 -464.363,-373.417"/>
</g>
<!-- Metamodel::ClassHOW&#45;&gt;Metamodel::C3MRO -->
<g id="edge17" class="edge"><title>Metamodel::ClassHOW&#45;&gt;Metamodel::C3MRO</title>
<path fill="none" stroke="#6666ff" d="M-200.482,-60.7156C-180.017,-8.3735 -122.444,138.875 -122.444,138.875 -122.444,138.875 -92.5601,163.942 -92.5601,163.942 -92.5601,163.942 -126.838,335.661 -140.615,404.675"/>
<polygon fill="#6666ff" stroke="#6666ff" points="-137.251,405.706 -142.641,414.827 -144.116,404.335 -137.251,405.706"/>
</g>
<!-- Metamodel::ClassHOW&#45;&gt;Metamodel::MROBasedMethodDispatch -->
<g id="edge18" class="edge"><title>Metamodel::ClassHOW&#45;&gt;Metamodel::MROBasedMethodDispatch</title>
<path fill="none" stroke="#6666ff" d="M-159.219,-62.9053C-34.7183,-21.7178 296.63,87.8994 434.593,133.54"/>
<polygon fill="#6666ff" stroke="#6666ff" points="435.792,130.251 444.187,136.714 433.594,136.896 435.792,130.251"/>
</g>
<!-- Metamodel::ClassHOW&#45;&gt;Metamodel::Trusting -->
<g id="edge20" class="edge"><title>Metamodel::ClassHOW&#45;&gt;Metamodel::Trusting</title>
<path fill="none" stroke="#6666ff" d="M-287.345,-67.2881C-411.576,-49.1852 -650.162,-14.4186 -776.833,4.03984"/>
<polygon fill="#6666ff" stroke="#6666ff" points="-776.474,7.52431 -786.874,5.50294 -777.483,0.597468 -776.474,7.52431"/>
</g>
<!-- Metamodel::ClassHOW&#45;&gt;Metamodel::BUILDPLAN -->
<g id="edge21" class="edge"><title>Metamodel::ClassHOW&#45;&gt;Metamodel::BUILDPLAN</title>
<path fill="none" stroke="#6666ff" d="M-196.356,-97.1289C-161.688,-153.327 -56.2863,-324.186 -15.1947,-390.797"/>
<polygon fill="#6666ff" stroke="#6666ff" points="-18.0664,-392.809 -9.83731,-399.482 -12.1088,-389.133 -18.0664,-392.809"/>
</g>
<!-- Metamodel::ClassHOW&#45;&gt;Metamodel::Mixins -->
<g id="edge22" class="edge"><title>Metamodel::ClassHOW&#45;&gt;Metamodel::Mixins</title>
<path fill="none" stroke="#6666ff" d="M-246.693,-95.6423C-358.541,-143.511 -679.537,-280.892 -800.839,-332.807"/>
<polygon fill="#6666ff" stroke="#6666ff" points="-802.43,-329.681 -810.247,-336.833 -799.676,-336.116 -802.43,-329.681"/>
</g>
<!-- Metamodel::ClassHOW&#45;&gt;Metamodel::BoolificationProtocol -->
<g id="edge23" class="edge"><title>Metamodel::ClassHOW&#45;&gt;Metamodel::BoolificationProtocol</title>
<path fill="none" stroke="#6666ff" d="M-181.065,-96.5748C-156.5,-112.932 -123.747,-134.741 -123.747,-134.741 -123.747,-134.741 97.3691,-278.571 185.955,-336.193"/>
<polygon fill="#6666ff" stroke="#6666ff" points="184.308,-339.297 194.599,-341.816 188.125,-333.429 184.308,-339.297"/>
</g>
<!-- Metamodel::BaseType -->
<g id="node23" class="node"><title>Metamodel::BaseType</title>
<g id="a_node23"><a xlink:href="/type/Metamodel::BaseType" xlink:title="Metamodel::BaseType">
<ellipse fill="none" stroke="#6666ff" cx="842.185" cy="-350.215" rx="99.3824" ry="18"/>
<text text-anchor="middle" x="842.185" y="-346.515" font-family="FreeSans" font-size="14.00" fill="#6666ff">Metamodel::BaseType</text>
</a>
</g>
</g>
<!-- Metamodel::EnumHOW -->
<g id="node24" class="node"><title>Metamodel::EnumHOW</title>
<g id="a_node24"><a xlink:href="/type/Metamodel::EnumHOW" xlink:title="Metamodel::EnumHOW">
<ellipse fill="none" stroke="#000000" cx="226.685" cy="-53.4161" rx="104.782" ry="18"/>
<text text-anchor="middle" x="226.685" y="-49.7161" font-family="FreeSans" font-size="14.00" fill="#000000">Metamodel::EnumHOW</text>
</a>
</g>
</g>
<!-- Metamodel::EnumHOW&#45;&gt;Metamodel::MROBasedTypeChecking -->
<g id="edge32" class="edge"><title>Metamodel::EnumHOW&#45;&gt;Metamodel::MROBasedTypeChecking</title>
<path fill="none" stroke="#6666ff" d="M189.111,-36.5309C102.276,2.49114 -112.252,98.8967 -208.816,142.291"/>
<polygon fill="#6666ff" stroke="#6666ff" points="-207.505,145.539 -218.061,146.445 -210.374,139.154 -207.505,145.539"/>
</g>
<!-- Metamodel::EnumHOW&#45;&gt;Any -->
<g id="edge3" class="edge"><title>Metamodel::EnumHOW&#45;&gt;Any</title>
<path fill="none" stroke="#000000" d="M235.237,-35.3736C259.152,15.0852 324.985,153.983 324.985,153.983 324.985,153.983 349.936,190.374 349.936,190.374 349.936,190.374 397.434,349.851 416.876,415.128"/>
<polygon fill="#000000" stroke="#000000" points="420.244,414.173 419.744,424.756 413.535,416.172 420.244,414.173"/>
</g>
<!-- Metamodel::EnumHOW&#45;&gt;Metamodel::Naming -->
<g id="edge24" class="edge"><title>Metamodel::EnumHOW&#45;&gt;Metamodel::Naming</title>
<path fill="none" stroke="#6666ff" d="M138.183,-63.1059C31.6211,-74.7732 -133.212,-92.8204 -133.212,-92.8204 -133.212,-92.8204 -207.992,-98.509 -207.992,-98.509 -207.992,-98.509 -303.668,-102.579 -381.638,-105.895"/>
<polygon fill="#6666ff" stroke="#6666ff" points="-382.18,-102.415 -392.023,-106.337 -381.883,-109.409 -382.18,-102.415"/>
</g>
<!-- Metamodel::EnumHOW&#45;&gt;Metamodel::Stashing -->
<g id="edge25" class="edge"><title>Metamodel::EnumHOW&#45;&gt;Metamodel::Stashing</title>
<path fill="none" stroke="#6666ff" d="M216.778,-35.4822C185.665,20.8417 91.96,190.476 91.96,190.476 91.96,190.476 107.299,348.319 113.684,414.027"/>
<polygon fill="#6666ff" stroke="#6666ff" points="117.18,413.81 114.663,424.101 110.213,414.487 117.18,413.81"/>
</g>
<!-- Metamodel::EnumHOW&#45;&gt;Metamodel::AttributeContainer -->
<g id="edge26" class="edge"><title>Metamodel::EnumHOW&#45;&gt;Metamodel::AttributeContainer</title>
<path fill="none" stroke="#6666ff" d="M310.829,-42.7151C423.173,-28.4278 622.189,-3.11785 744.636,12.4545"/>
<polygon fill="#6666ff" stroke="#6666ff" points="745.3,9.01052 754.778,13.7442 744.416,15.9546 745.3,9.01052"/>
</g>
<!-- Metamodel::EnumHOW&#45;&gt;Metamodel::MethodContainer -->
<g id="edge27" class="edge"><title>Metamodel::EnumHOW&#45;&gt;Metamodel::MethodContainer</title>
<path fill="none" stroke="#6666ff" d="M226.254,-35.0884C225.261,7.11489 222.807,111.405 221.617,161.994"/>
<polygon fill="#6666ff" stroke="#6666ff" points="225.111,162.302 221.377,172.217 218.113,162.138 225.111,162.302"/>
</g>
<!-- Metamodel::EnumHOW&#45;&gt;Metamodel::MultiMethodContainer -->
<g id="edge28" class="edge"><title>Metamodel::EnumHOW&#45;&gt;Metamodel::MultiMethodContainer</title>
<path fill="none" stroke="#6666ff" d="M209.05,-71.5092C185.641,-95.5271 147.226,-134.941 147.226,-134.941 147.226,-134.941 -93.0857,-287.256 -186.767,-346.633"/>
<polygon fill="#6666ff" stroke="#6666ff" points="-188.789,-343.771 -195.362,-352.081 -185.042,-349.684 -188.789,-343.771"/>
</g>
<!-- Metamodel::EnumHOW&#45;&gt;Metamodel::RoleContainer -->
<g id="edge29" class="edge"><title>Metamodel::EnumHOW&#45;&gt;Metamodel::RoleContainer</title>
<path fill="none" stroke="#6666ff" d="M239.405,-71.4145C280.381,-129.392 409.07,-311.479 457.55,-380.075"/>
<polygon fill="#6666ff" stroke="#6666ff" points="454.95,-382.46 463.58,-388.606 460.666,-378.42 454.95,-382.46"/>
</g>
<!-- Metamodel::EnumHOW&#45;&gt;Metamodel::MROBasedMethodDispatch -->
<g id="edge31" class="edge"><title>Metamodel::EnumHOW&#45;&gt;Metamodel::MROBasedMethodDispatch</title>
<path fill="none" stroke="#6666ff" d="M249.665,-35.7381C297.98,1.42906 410.137,87.7071 464.944,129.868"/>
<polygon fill="#6666ff" stroke="#6666ff" points="467.122,127.128 472.914,136 462.854,132.677 467.122,127.128"/>
</g>
<!-- Metamodel::EnumHOW&#45;&gt;Metamodel::BUILDPLAN -->
<g id="edge33" class="edge"><title>Metamodel::EnumHOW&#45;&gt;Metamodel::BUILDPLAN</title>
<path fill="none" stroke="#6666ff" d="M215.516,-71.4856C178.818,-130.855 61.8108,-320.152 18.1217,-390.833"/>
<polygon fill="#6666ff" stroke="#6666ff" points="14.975,-389.267 12.6943,-399.613 20.9294,-392.947 14.975,-389.267"/>
</g>
<!-- Metamodel::EnumHOW&#45;&gt;Metamodel::BoolificationProtocol -->
<g id="edge34" class="edge"><title>Metamodel::EnumHOW&#45;&gt;Metamodel::BoolificationProtocol</title>
<path fill="none" stroke="#6666ff" d="M226.407,-71.6555C225.624,-123.037 223.397,-269.265 222.452,-331.286"/>
<polygon fill="#6666ff" stroke="#6666ff" points="218.949,-331.456 222.296,-341.508 225.948,-331.563 218.949,-331.456"/>
</g>
<!-- Metamodel::EnumHOW&#45;&gt;Metamodel::BaseType -->
<g id="edge30" class="edge"><title>Metamodel::EnumHOW&#45;&gt;Metamodel::BaseType</title>
<path fill="none" stroke="#6666ff" d="M261.988,-70.4394C367.688,-121.409 681.506,-272.734 798.003,-328.91"/>
<polygon fill="#6666ff" stroke="#6666ff" points="796.498,-332.07 807.025,-333.261 799.538,-325.765 796.498,-332.07"/>
</g>
<!-- Metamodel::NativeHOW -->
<g id="node25" class="node"><title>Metamodel::NativeHOW</title>
<g id="a_node25"><a xlink:href="/type/Metamodel::NativeHOW" xlink:title="Metamodel::NativeHOW">
<ellipse fill="none" stroke="#000000" cx="-13.6061" cy="138.745" rx="107.482" ry="18"/>
<text text-anchor="middle" x="-13.6061" y="142.445" font-family="FreeSans" font-size="14.00" fill="#000000">Metamodel::NativeHOW</text>
</a>
</g>
</g>
<!-- Metamodel::NativeHOW&#45;&gt;Metamodel::MROBasedTypeChecking -->
<g id="edge42" class="edge"><title>Metamodel::NativeHOW&#45;&gt;Metamodel::MROBasedTypeChecking</title>
<path fill="none" stroke="#6666ff" d="M-105.039,148.249C-112.731,149.049 -120.595,149.866 -128.499,150.688"/>
<polygon fill="#6666ff" stroke="#6666ff" points="-128.212,154.177 -138.52,151.73 -128.936,147.214 -128.212,154.177"/>
</g>
<!-- Metamodel::NativeHOW&#45;&gt;Any -->
<g id="edge4" class="edge"><title>Metamodel::NativeHOW&#45;&gt;Any</title>
<path fill="none" stroke="#000000" d="M11.8724,156.389C88.8087,209.665 318.339,368.608 397.682,423.551"/>
<polygon fill="#000000" stroke="#000000" points="399.94,420.857 406.169,429.428 395.955,426.612 399.94,420.857"/>
</g>
<!-- Metamodel::NativeHOW&#45;&gt;Metamodel::Naming -->
<g id="edge35" class="edge"><title>Metamodel::NativeHOW&#45;&gt;Metamodel::Naming</title>
<path fill="none" stroke="#6666ff" d="M-46.0663,121.445C-128.938,77.2754 -348.218,-39.5975 -439.608,-88.3069"/>
<polygon fill="#6666ff" stroke="#6666ff" points="-441.382,-85.2863 -448.561,-93.0786 -438.09,-91.4637 -441.382,-85.2863"/>
</g>
<!-- Metamodel::NativeHOW&#45;&gt;Metamodel::Documenting -->
<g id="edge36" class="edge"><title>Metamodel::NativeHOW&#45;&gt;Metamodel::Documenting</title>
<path fill="none" stroke="#6666ff" d="M20.2595,121.556C109.135,76.4439 348.967,-45.2907 447.473,-95.2905"/>
<polygon fill="#6666ff" stroke="#6666ff" points="446.054,-98.4951 456.555,-99.9003 449.222,-92.2531 446.054,-98.4951"/>
</g>
<!-- Metamodel::NativeHOW&#45;&gt;Metamodel::Versioning -->
<g id="edge37" class="edge"><title>Metamodel::NativeHOW&#45;&gt;Metamodel::Versioning</title>
<path fill="none" stroke="#6666ff" d="M-38.6071,156.338C-112.165,208.098 -327.874,359.884 -410.908,418.312"/>
<polygon fill="#6666ff" stroke="#6666ff" points="-409.021,421.264 -419.213,424.156 -413.049,415.539 -409.021,421.264"/>
</g>
<!-- Metamodel::NativeHOW&#45;&gt;Metamodel::Stashing -->
<g id="edge38" class="edge"><title>Metamodel::NativeHOW&#45;&gt;Metamodel::Stashing</title>
<path fill="none" stroke="#6666ff" d="M-5.86164,156.819C16.0456,207.946 78.5589,353.839 104.704,414.855"/>
<polygon fill="#6666ff" stroke="#6666ff" points="107.997,413.655 108.719,424.226 101.563,416.412 107.997,413.655"/>
</g>
<!-- Metamodel::NativeHOW&#45;&gt;Metamodel::MultipleInheritance -->
<g id="edge39" class="edge"><title>Metamodel::NativeHOW&#45;&gt;Metamodel::MultipleInheritance</title>
<path fill="none" stroke="#6666ff" d="M-11.9038,120.37C-7.56607,73.5475 3.92505,-50.4904 9.1218,-106.585"/>
<polygon fill="#6666ff" stroke="#6666ff" points="5.63691,-106.911 10.0445,-116.546 12.6071,-106.265 5.63691,-106.911"/>
</g>
<!-- Metamodel::NativeHOW&#45;&gt;Metamodel::C3MRO -->
<g id="edge40" class="edge"><title>Metamodel::NativeHOW&#45;&gt;Metamodel::C3MRO</title>
<path fill="none" stroke="#6666ff" d="M-21.7038,156.703C-44.1349,206.446 -107.182,346.26 -133.965,405.653"/>
<polygon fill="#6666ff" stroke="#6666ff" points="-130.786,407.118 -138.087,414.795 -137.167,404.24 -130.786,407.118"/>
</g>
<!-- Metamodel::NativeHOW&#45;&gt;Metamodel::MROBasedMethodDispatch -->
<g id="edge41" class="edge"><title>Metamodel::NativeHOW&#45;&gt;Metamodel::MROBasedMethodDispatch</title>
<path fill="none" stroke="#6666ff" d="M92.03,141.891C158.463,143.87 245.781,146.47 322.253,148.747"/>
<polygon fill="#6666ff" stroke="#6666ff" points="322.594,145.256 332.485,149.052 322.386,152.252 322.594,145.256"/>
</g>
</g>
</svg>
