<?xml version="1.0" encoding="UTF-8" standalone="no"?>
<!DOCTYPE svg PUBLIC "-//W3C//DTD SVG 1.1//EN"
 "http://www.w3.org/Graphics/SVG/1.1/DTD/svg11.dtd">
<!-- Generated by graphviz version 2.38.0 (20140413.2041)
 -->
<!-- Title: perl6&#45;type&#45;graph Pages: 1 -->
<svg width="886pt" height="332pt"
 viewBox="0.00 0.00 886.38 332.00" xmlns="http://www.w3.org/2000/svg" xmlns:xlink="http://www.w3.org/1999/xlink">
<g id="graph0" class="graph" transform="scale(1 1) rotate(0) translate(4 328)">
<title>perl6&#45;type&#45;graph</title>
<polygon fill="white" stroke="none" points="-4,4 -4,-328 882.381,-328 882.381,4 -4,4"/>
<!-- X::TypeCheck -->
<g id="node1" class="node"><title>X::TypeCheck</title>
<g id="a_node1"><a xlink:href="/type/X::TypeCheck" xlink:title="X::TypeCheck">
<ellipse fill="none" stroke="#000000" cx="457.64" cy="-90" rx="66.8882" ry="18"/>
<text text-anchor="middle" x="457.64" y="-86.3" font-family="FreeSans" font-size="14.00" fill="#000000">X::TypeCheck</text>
</a>
</g>
</g>
<!-- Exception -->
<g id="node4" class="node"><title>Exception</title>
<g id="a_node4"><a xlink:href="/type/Exception" xlink:title="Exception">
<ellipse fill="none" stroke="#000000" cx="457.64" cy="-162" rx="49.2915" ry="18"/>
<text text-anchor="middle" x="457.64" y="-158.3" font-family="FreeSans" font-size="14.00" fill="#000000">Exception</text>
</a>
</g>
</g>
<!-- X::TypeCheck&#45;&gt;Exception -->
<g id="edge1" class="edge"><title>X::TypeCheck&#45;&gt;Exception</title>
<path fill="none" stroke="#000000" d="M457.64,-108.303C457.64,-116.017 457.64,-125.288 457.64,-133.888"/>
<polygon fill="#000000" stroke="#000000" points="454.14,-133.896 457.64,-143.896 461.14,-133.896 454.14,-133.896"/>
</g>
<!-- Mu -->
<g id="node2" class="node"><title>Mu</title>
<g id="a_node2"><a xlink:href="/type/Mu" xlink:title="Mu">
<ellipse fill="none" stroke="#000000" cx="457.64" cy="-306" rx="27" ry="18"/>
<text text-anchor="middle" x="457.64" y="-302.3" font-family="FreeSans" font-size="14.00" fill="#000000">Mu</text>
</a>
</g>
</g>
<!-- Any -->
<g id="node3" class="node"><title>Any</title>
<g id="a_node3"><a xlink:href="/type/Any" xlink:title="Any">
<ellipse fill="none" stroke="#000000" cx="457.64" cy="-234" rx="27" ry="18"/>
<text text-anchor="middle" x="457.64" y="-230.3" font-family="FreeSans" font-size="14.00" fill="#000000">Any</text>
</a>
</g>
</g>
<!-- Any&#45;&gt;Mu -->
<g id="edge2" class="edge"><title>Any&#45;&gt;Mu</title>
<path fill="none" stroke="#000000" d="M457.64,-252.303C457.64,-260.017 457.64,-269.288 457.64,-277.888"/>
<polygon fill="#000000" stroke="#000000" points="454.14,-277.896 457.64,-287.896 461.14,-277.896 454.14,-277.896"/>
</g>
<!-- Exception&#45;&gt;Any -->
<g id="edge3" class="edge"><title>Exception&#45;&gt;Any</title>
<path fill="none" stroke="#000000" d="M457.64,-180.303C457.64,-188.017 457.64,-197.288 457.64,-205.888"/>
<polygon fill="#000000" stroke="#000000" points="454.14,-205.896 457.64,-215.896 461.14,-205.896 454.14,-205.896"/>
</g>
<!-- X::TypeCheck::Assignment -->
<g id="node5" class="node"><title>X::TypeCheck::Assignment</title>
<g id="a_node5"><a xlink:href="/type/X::TypeCheck::Assignment" xlink:title="X::TypeCheck::Assignment">
<ellipse fill="none" stroke="#000000" cx="117.64" cy="-18" rx="117.779" ry="18"/>
<text text-anchor="middle" x="117.64" y="-14.3" font-family="FreeSans" font-size="14.00" fill="#000000">X::TypeCheck::Assignment</text>
</a>
</g>
</g>
<!-- X::TypeCheck::Assignment&#45;&gt;X::TypeCheck -->
<g id="edge4" class="edge"><title>X::TypeCheck::Assignment&#45;&gt;X::TypeCheck</title>
<path fill="none" stroke="#000000" d="M184.813,-32.8297C246.282,-45.4852 336.482,-64.0558 396.109,-76.332"/>
<polygon fill="#000000" stroke="#000000" points="395.639,-79.8085 406.139,-78.397 397.051,-72.9523 395.639,-79.8085"/>
</g>
<!-- X::TypeCheck::Return -->
<g id="node6" class="node"><title>X::TypeCheck::Return</title>
<g id="a_node6"><a xlink:href="/type/X::TypeCheck::Return" xlink:title="X::TypeCheck::Return">
<ellipse fill="none" stroke="#000000" cx="351.64" cy="-18" rx="98.2828" ry="18"/>
<text text-anchor="middle" x="351.64" y="-14.3" font-family="FreeSans" font-size="14.00" fill="#000000">X::TypeCheck::Return</text>
</a>
</g>
</g>
<!-- X::TypeCheck::Return&#45;&gt;X::TypeCheck -->
<g id="edge5" class="edge"><title>X::TypeCheck::Return&#45;&gt;X::TypeCheck</title>
<path fill="none" stroke="#000000" d="M376.76,-35.589C391.09,-45.0521 409.221,-57.0253 424.683,-67.236"/>
<polygon fill="#000000" stroke="#000000" points="423.156,-70.4219 433.429,-73.0119 427.013,-64.5806 423.156,-70.4219"/>
</g>
<!-- X::TypeCheck::Splice -->
<g id="node7" class="node"><title>X::TypeCheck::Splice</title>
<g id="a_node7"><a xlink:href="/type/X::TypeCheck::Splice" xlink:title="X::TypeCheck::Splice">
<ellipse fill="none" stroke="#000000" cx="563.64" cy="-18" rx="95.5831" ry="18"/>
<text text-anchor="middle" x="563.64" y="-14.3" font-family="FreeSans" font-size="14.00" fill="#000000">X::TypeCheck::Splice</text>
</a>
</g>
</g>
<!-- X::TypeCheck::Splice&#45;&gt;X::TypeCheck -->
<g id="edge6" class="edge"><title>X::TypeCheck::Splice&#45;&gt;X::TypeCheck</title>
<path fill="none" stroke="#000000" d="M538.787,-35.4119C524.227,-45.0269 505.675,-57.2786 489.985,-67.6397"/>
<polygon fill="#000000" stroke="#000000" points="488.023,-64.7413 481.607,-73.1726 491.88,-70.5826 488.023,-64.7413"/>
</g>
<!-- X::TypeCheck::Binding -->
<g id="node8" class="node"><title>X::TypeCheck::Binding</title>
<g id="a_node8"><a xlink:href="/type/X::TypeCheck::Binding" xlink:title="X::TypeCheck::Binding">
<ellipse fill="none" stroke="#000000" cx="777.64" cy="-18" rx="100.983" ry="18"/>
<text text-anchor="middle" x="777.64" y="-14.3" font-family="FreeSans" font-size="14.00" fill="#000000">X::TypeCheck::Binding</text>
</a>
</g>
</g>
<!-- X::TypeCheck::Binding&#45;&gt;X::TypeCheck -->
<g id="edge7" class="edge"><title>X::TypeCheck::Binding&#45;&gt;X::TypeCheck</title>
<path fill="none" stroke="#000000" d="M716.319,-32.4139C659.138,-44.9222 574.37,-63.4652 517.624,-75.8784"/>
<polygon fill="#000000" stroke="#000000" points="516.739,-72.4892 507.718,-78.0454 518.235,-79.3275 516.739,-72.4892"/>
</g>
</g>
</svg>
