<?xml version="1.0" encoding="UTF-8" standalone="no"?>
<!DOCTYPE svg PUBLIC "-//W3C//DTD SVG 1.1//EN"
 "http://www.w3.org/Graphics/SVG/1.1/DTD/svg11.dtd">
<!-- Generated by graphviz version 2.38.0 (20140413.2041)
 -->
<!-- Title: perl6&#45;type&#45;graph Pages: 1 -->
<svg width="886pt" height="332pt"
 viewBox="0.00 0.00 886.38 332.00" xmlns="http://www.w3.org/2000/svg" xmlns:xlink="http://www.w3.org/1999/xlink">
<g id="graph0" class="graph" transform="scale(1 1) rotate(0) translate(4 328)">
<title>perl6&#45;type&#45;graph</title>
<polygon fill="white" stroke="none" points="-4,4 -4,-328 882.381,-328 882.381,4 -4,4"/>
<!-- X::TypeCheck -->
<g id="node1" class="node"><title>X::TypeCheck</title>
<g id="a_node1"><a xlink:href="/type/X::TypeCheck" xlink:title="X::TypeCheck">
<ellipse fill="none" stroke="#000000" cx="423.741" cy="-90" rx="66.8882" ry="18"/>
<text text-anchor="middle" x="423.741" y="-86.3" font-family="FreeSans" font-size="14.00" fill="#000000">X::TypeCheck</text>
</a>
</g>
</g>
<!-- Exception -->
<g id="node4" class="node"><title>Exception</title>
<g id="a_node4"><a xlink:href="/type/Exception" xlink:title="Exception">
<ellipse fill="none" stroke="#000000" cx="423.741" cy="-162" rx="49.2915" ry="18"/>
<text text-anchor="middle" x="423.741" y="-158.3" font-family="FreeSans" font-size="14.00" fill="#000000">Exception</text>
</a>
</g>
</g>
<!-- X::TypeCheck&#45;&gt;Exception -->
<g id="edge1" class="edge"><title>X::TypeCheck&#45;&gt;Exception</title>
<path fill="none" stroke="#000000" d="M423.741,-108.303C423.741,-116.017 423.741,-125.288 423.741,-133.888"/>
<polygon fill="#000000" stroke="#000000" points="420.241,-133.896 423.741,-143.896 427.241,-133.896 420.241,-133.896"/>
</g>
<!-- Mu -->
<g id="node2" class="node"><title>Mu</title>
<g id="a_node2"><a xlink:href="/type/Mu" xlink:title="Mu">
<ellipse fill="none" stroke="#000000" cx="423.741" cy="-306" rx="27" ry="18"/>
<text text-anchor="middle" x="423.741" y="-302.3" font-family="FreeSans" font-size="14.00" fill="#000000">Mu</text>
</a>
</g>
</g>
<!-- Any -->
<g id="node3" class="node"><title>Any</title>
<g id="a_node3"><a xlink:href="/type/Any" xlink:title="Any">
<ellipse fill="none" stroke="#000000" cx="423.741" cy="-234" rx="27" ry="18"/>
<text text-anchor="middle" x="423.741" y="-230.3" font-family="FreeSans" font-size="14.00" fill="#000000">Any</text>
</a>
</g>
</g>
<!-- Any&#45;&gt;Mu -->
<g id="edge2" class="edge"><title>Any&#45;&gt;Mu</title>
<path fill="none" stroke="#000000" d="M423.741,-252.303C423.741,-260.017 423.741,-269.288 423.741,-277.888"/>
<polygon fill="#000000" stroke="#000000" points="420.241,-277.896 423.741,-287.896 427.241,-277.896 420.241,-277.896"/>
</g>
<!-- Exception&#45;&gt;Any -->
<g id="edge3" class="edge"><title>Exception&#45;&gt;Any</title>
<path fill="none" stroke="#000000" d="M423.741,-180.303C423.741,-188.017 423.741,-197.288 423.741,-205.888"/>
<polygon fill="#000000" stroke="#000000" points="420.241,-205.896 423.741,-215.896 427.241,-205.896 420.241,-205.896"/>
</g>
<!-- X::TypeCheck::Binding -->
<g id="node5" class="node"><title>X::TypeCheck::Binding</title>
<g id="a_node5"><a xlink:href="/type/X::TypeCheck::Binding" xlink:title="X::TypeCheck::Binding">
<ellipse fill="none" stroke="#000000" cx="100.741" cy="-18" rx="100.983" ry="18"/>
<text text-anchor="middle" x="100.741" y="-14.3" font-family="FreeSans" font-size="14.00" fill="#000000">X::TypeCheck::Binding</text>
</a>
</g>
</g>
<!-- X::TypeCheck::Binding&#45;&gt;X::TypeCheck -->
<g id="edge4" class="edge"><title>X::TypeCheck::Binding&#45;&gt;X::TypeCheck</title>
<path fill="none" stroke="#000000" d="M162.255,-32.3312C220.014,-44.8485 305.901,-63.462 363.306,-75.9026"/>
<polygon fill="#000000" stroke="#000000" points="362.811,-79.3766 373.326,-78.0741 364.294,-72.5354 362.811,-79.3766"/>
</g>
<!-- X::TypeCheck::Return -->
<g id="node6" class="node"><title>X::TypeCheck::Return</title>
<g id="a_node6"><a xlink:href="/type/X::TypeCheck::Return" xlink:title="X::TypeCheck::Return">
<ellipse fill="none" stroke="#000000" cx="317.741" cy="-18" rx="98.2828" ry="18"/>
<text text-anchor="middle" x="317.741" y="-14.3" font-family="FreeSans" font-size="14.00" fill="#000000">X::TypeCheck::Return</text>
</a>
</g>
</g>
<!-- X::TypeCheck::Return&#45;&gt;X::TypeCheck -->
<g id="edge5" class="edge"><title>X::TypeCheck::Return&#45;&gt;X::TypeCheck</title>
<path fill="none" stroke="#000000" d="M342.862,-35.589C357.191,-45.0521 375.322,-57.0253 390.784,-67.236"/>
<polygon fill="#000000" stroke="#000000" points="389.257,-70.4219 399.53,-73.0119 393.115,-64.5806 389.257,-70.4219"/>
</g>
<!-- X::TypeCheck::Splice -->
<g id="node7" class="node"><title>X::TypeCheck::Splice</title>
<g id="a_node7"><a xlink:href="/type/X::TypeCheck::Splice" xlink:title="X::TypeCheck::Splice">
<ellipse fill="none" stroke="#000000" cx="529.741" cy="-18" rx="95.5831" ry="18"/>
<text text-anchor="middle" x="529.741" y="-14.3" font-family="FreeSans" font-size="14.00" fill="#000000">X::TypeCheck::Splice</text>
</a>
</g>
</g>
<!-- X::TypeCheck::Splice&#45;&gt;X::TypeCheck -->
<g id="edge6" class="edge"><title>X::TypeCheck::Splice&#45;&gt;X::TypeCheck</title>
<path fill="none" stroke="#000000" d="M504.889,-35.4119C490.329,-45.0269 471.776,-57.2786 456.087,-67.6397"/>
<polygon fill="#000000" stroke="#000000" points="454.124,-64.7413 447.708,-73.1726 457.982,-70.5826 454.124,-64.7413"/>
</g>
<!-- X::TypeCheck::Assignment -->
<g id="node8" class="node"><title>X::TypeCheck::Assignment</title>
<g id="a_node8"><a xlink:href="/type/X::TypeCheck::Assignment" xlink:title="X::TypeCheck::Assignment">
<ellipse fill="none" stroke="#000000" cx="760.741" cy="-18" rx="117.779" ry="18"/>
<text text-anchor="middle" x="760.741" y="-14.3" font-family="FreeSans" font-size="14.00" fill="#000000">X::TypeCheck::Assignment</text>
</a>
</g>
</g>
<!-- X::TypeCheck::Assignment&#45;&gt;X::TypeCheck -->
<g id="edge7" class="edge"><title>X::TypeCheck::Assignment&#45;&gt;X::TypeCheck</title>
<path fill="none" stroke="#000000" d="M693.758,-32.9134C632.88,-45.5587 543.816,-64.0587 484.844,-76.3081"/>
<polygon fill="#000000" stroke="#000000" points="484.001,-72.9082 474.922,-78.3689 485.425,-79.7619 484.001,-72.9082"/>
</g>
</g>
</svg>
