<?xml version="1.0" encoding="UTF-8" standalone="no"?>
<!DOCTYPE svg PUBLIC "-//W3C//DTD SVG 1.1//EN"
 "http://www.w3.org/Graphics/SVG/1.1/DTD/svg11.dtd">
<!-- Generated by graphviz version 2.38.0 (20140413.2041)
 -->
<!-- Title: perl6&#45;type&#45;graph Pages: 1 -->
<svg width="1016pt" height="332pt"
 viewBox="0.00 0.00 1015.95 332.00" xmlns="http://www.w3.org/2000/svg" xmlns:xlink="http://www.w3.org/1999/xlink">
<g id="graph0" class="graph" transform="scale(1 1) rotate(0) translate(4 328)">
<title>perl6&#45;type&#45;graph</title>
<polygon fill="white" stroke="none" points="-4,4 -4,-328 1011.95,-328 1011.95,4 -4,4"/>
<!-- Real -->
<g id="node1" class="node"><title>Real</title>
<g id="a_node1"><a xlink:href="/type/Real" xlink:title="Real">
<ellipse fill="none" stroke="#6666ff" cx="638.946" cy="-162" rx="28.6953" ry="18"/>
<text text-anchor="middle" x="638.946" y="-158.3" font-family="FreeSans" font-size="14.00" fill="#6666ff">Real</text>
</a>
</g>
</g>
<!-- Numeric -->
<g id="node2" class="node"><title>Numeric</title>
<g id="a_node2"><a xlink:href="/type/Numeric" xlink:title="Numeric">
<ellipse fill="none" stroke="#6666ff" cx="638.946" cy="-234" rx="44.393" ry="18"/>
<text text-anchor="middle" x="638.946" y="-230.3" font-family="FreeSans" font-size="14.00" fill="#6666ff">Numeric</text>
</a>
</g>
</g>
<!-- Real&#45;&gt;Numeric -->
<g id="edge21" class="edge"><title>Real&#45;&gt;Numeric</title>
<path fill="none" stroke="#6666ff" d="M638.946,-180.303C638.946,-188.017 638.946,-197.288 638.946,-205.888"/>
<polygon fill="#6666ff" stroke="#6666ff" points="635.446,-205.896 638.946,-215.896 642.446,-205.896 635.446,-205.896"/>
</g>
<!-- Mu -->
<g id="node3" class="node"><title>Mu</title>
<g id="a_node3"><a xlink:href="/type/Mu" xlink:title="Mu">
<ellipse fill="none" stroke="#000000" cx="528.946" cy="-306" rx="27" ry="18"/>
<text text-anchor="middle" x="528.946" y="-302.3" font-family="FreeSans" font-size="14.00" fill="#000000">Mu</text>
</a>
</g>
</g>
<!-- Any -->
<g id="node4" class="node"><title>Any</title>
<g id="a_node4"><a xlink:href="/type/Any" xlink:title="Any">
<ellipse fill="none" stroke="#000000" cx="528.946" cy="-234" rx="27" ry="18"/>
<text text-anchor="middle" x="528.946" y="-230.3" font-family="FreeSans" font-size="14.00" fill="#000000">Any</text>
</a>
</g>
</g>
<!-- Any&#45;&gt;Mu -->
<g id="edge1" class="edge"><title>Any&#45;&gt;Mu</title>
<path fill="none" stroke="#000000" d="M528.946,-252.303C528.946,-260.017 528.946,-269.288 528.946,-277.888"/>
<polygon fill="#000000" stroke="#000000" points="525.446,-277.896 528.946,-287.896 532.446,-277.896 525.446,-277.896"/>
</g>
<!-- Cool -->
<g id="node5" class="node"><title>Cool</title>
<g id="a_node5"><a xlink:href="/type/Cool" xlink:title="Cool">
<ellipse fill="none" stroke="#000000" cx="528.946" cy="-162" rx="28.6953" ry="18"/>
<text text-anchor="middle" x="528.946" y="-158.3" font-family="FreeSans" font-size="14.00" fill="#000000">Cool</text>
</a>
</g>
</g>
<!-- Cool&#45;&gt;Any -->
<g id="edge2" class="edge"><title>Cool&#45;&gt;Any</title>
<path fill="none" stroke="#000000" d="M528.946,-180.303C528.946,-188.017 528.946,-197.288 528.946,-205.888"/>
<polygon fill="#000000" stroke="#000000" points="525.446,-205.896 528.946,-215.896 532.446,-205.896 525.446,-205.896"/>
</g>
<!-- Int -->
<g id="node6" class="node"><title>Int</title>
<g id="a_node6"><a xlink:href="/type/Int" xlink:title="Int">
<ellipse fill="none" stroke="#000000" cx="473.946" cy="-90" rx="27" ry="18"/>
<text text-anchor="middle" x="473.946" y="-86.3" font-family="FreeSans" font-size="14.00" fill="#000000">Int</text>
</a>
</g>
</g>
<!-- Int&#45;&gt;Real -->
<g id="edge22" class="edge"><title>Int&#45;&gt;Real</title>
<path fill="none" stroke="#6666ff" d="M496.199,-100.441C524.579,-112.48 573.872,-133.393 606.454,-147.215"/>
<polygon fill="#6666ff" stroke="#6666ff" points="605.415,-150.576 615.988,-151.26 608.149,-144.132 605.415,-150.576"/>
</g>
<!-- Int&#45;&gt;Cool -->
<g id="edge3" class="edge"><title>Int&#45;&gt;Cool</title>
<path fill="none" stroke="#000000" d="M485.881,-106.189C493.06,-115.327 502.351,-127.151 510.463,-137.476"/>
<polygon fill="#000000" stroke="#000000" points="507.724,-139.655 516.655,-145.356 513.229,-135.33 507.724,-139.655"/>
</g>
<!-- Instant -->
<g id="node7" class="node"><title>Instant</title>
<g id="a_node7"><a xlink:href="/type/Instant" xlink:title="Instant">
<ellipse fill="none" stroke="#000000" cx="737.946" cy="-90" rx="37.0935" ry="18"/>
<text text-anchor="middle" x="737.946" y="-86.3" font-family="FreeSans" font-size="14.00" fill="#000000">Instant</text>
</a>
</g>
</g>
<!-- Instant&#45;&gt;Real -->
<g id="edge23" class="edge"><title>Instant&#45;&gt;Real</title>
<path fill="none" stroke="#6666ff" d="M717.912,-105.166C702.805,-115.848 681.939,-130.601 665.451,-142.259"/>
<polygon fill="#6666ff" stroke="#6666ff" points="663.426,-139.405 657.281,-148.036 667.467,-145.12 663.426,-139.405"/>
</g>
<!-- Instant&#45;&gt;Cool -->
<g id="edge4" class="edge"><title>Instant&#45;&gt;Cool</title>
<path fill="none" stroke="#000000" d="M709.337,-101.573C699.982,-105.03 691.946,-108 691.946,-108 691.946,-108 611.197,-134.256 563.368,-149.808"/>
<polygon fill="#000000" stroke="#000000" points="562.13,-146.53 553.703,-152.95 564.295,-153.187 562.13,-146.53"/>
</g>
<!-- Num -->
<g id="node8" class="node"><title>Num</title>
<g id="a_node8"><a xlink:href="/type/Num" xlink:title="Num">
<ellipse fill="none" stroke="#000000" cx="398.946" cy="-90" rx="29.795" ry="18"/>
<text text-anchor="middle" x="398.946" y="-86.3" font-family="FreeSans" font-size="14.00" fill="#000000">Num</text>
</a>
</g>
</g>
<!-- Num&#45;&gt;Real -->
<g id="edge24" class="edge"><title>Num&#45;&gt;Real</title>
<path fill="none" stroke="#6666ff" d="M422.533,-101.281C430.746,-104.861 437.946,-108 437.946,-108 437.946,-108 545.492,-136.358 603.25,-151.587"/>
<polygon fill="#6666ff" stroke="#6666ff" points="602.519,-155.014 613.081,-154.18 604.304,-148.246 602.519,-155.014"/>
</g>
<!-- Num&#45;&gt;Cool -->
<g id="edge5" class="edge"><title>Num&#45;&gt;Cool</title>
<path fill="none" stroke="#000000" d="M420.413,-102.559C441.805,-114.078 474.838,-131.865 498.845,-144.791"/>
<polygon fill="#000000" stroke="#000000" points="497.415,-147.997 507.879,-149.656 500.734,-141.833 497.415,-147.997"/>
</g>
<!-- Rational -->
<g id="node9" class="node"><title>Rational</title>
<g id="a_node9"><a xlink:href="/type/Rational" xlink:title="Rational">
<ellipse fill="none" stroke="#6666ff" cx="898.946" cy="-90" rx="42.7926" ry="18"/>
<text text-anchor="middle" x="898.946" y="-86.3" font-family="FreeSans" font-size="14.00" fill="#6666ff">Rational</text>
</a>
</g>
</g>
<!-- Rational&#45;&gt;Real -->
<g id="edge25" class="edge"><title>Rational&#45;&gt;Real</title>
<path fill="none" stroke="#6666ff" d="M863.882,-100.441C814.345,-113.777 724.371,-138.001 674.545,-151.416"/>
<polygon fill="#6666ff" stroke="#6666ff" points="673.592,-148.048 664.845,-154.027 675.412,-154.807 673.592,-148.048"/>
</g>
<!-- Duration -->
<g id="node10" class="node"><title>Duration</title>
<g id="a_node10"><a xlink:href="/type/Duration" xlink:title="Duration">
<ellipse fill="none" stroke="#000000" cx="638.946" cy="-90" rx="44.393" ry="18"/>
<text text-anchor="middle" x="638.946" y="-86.3" font-family="FreeSans" font-size="14.00" fill="#000000">Duration</text>
</a>
</g>
</g>
<!-- Duration&#45;&gt;Real -->
<g id="edge26" class="edge"><title>Duration&#45;&gt;Real</title>
<path fill="none" stroke="#6666ff" d="M638.946,-108.303C638.946,-116.017 638.946,-125.288 638.946,-133.888"/>
<polygon fill="#6666ff" stroke="#6666ff" points="635.446,-133.896 638.946,-143.896 642.446,-133.896 635.446,-133.896"/>
</g>
<!-- Duration&#45;&gt;Cool -->
<g id="edge6" class="edge"><title>Duration&#45;&gt;Cool</title>
<path fill="none" stroke="#000000" d="M616.154,-105.504C598.957,-116.448 575.273,-131.519 556.926,-143.195"/>
<polygon fill="#000000" stroke="#000000" points="554.958,-140.299 548.4,-148.62 558.716,-146.204 554.958,-140.299"/>
</g>
<!-- Signal -->
<g id="node11" class="node"><title>Signal</title>
<g id="a_node11"><a xlink:href="/type/Signal" xlink:title="Signal">
<ellipse fill="none" stroke="#33bb33" cx="560.946" cy="-18" rx="35.194" ry="18"/>
<text text-anchor="middle" x="560.946" y="-14.3" font-family="FreeSans" font-size="14.00" fill="#33bb33">Signal</text>
</a>
</g>
</g>
<!-- Signal&#45;&gt;Int -->
<g id="edge7" class="edge"><title>Signal&#45;&gt;Int</title>
<path fill="none" stroke="#000000" d="M542.92,-33.504C530.022,-43.8815 512.511,-57.9707 498.361,-69.3559"/>
<polygon fill="#000000" stroke="#000000" points="496.075,-66.7027 490.478,-75.6984 500.464,-72.1565 496.075,-66.7027"/>
</g>
<!-- Endian -->
<g id="node12" class="node"><title>Endian</title>
<g id="a_node12"><a xlink:href="/type/Endian" xlink:title="Endian">
<ellipse fill="none" stroke="#33bb33" cx="651.946" cy="-18" rx="38.1938" ry="18"/>
<text text-anchor="middle" x="651.946" y="-14.3" font-family="FreeSans" font-size="14.00" fill="#33bb33">Endian</text>
</a>
</g>
</g>
<!-- Endian&#45;&gt;Int -->
<g id="edge8" class="edge"><title>Endian&#45;&gt;Int</title>
<path fill="none" stroke="#000000" d="M623.227,-30.1105C583.054,-45.6518 514.946,-72 514.946,-72 514.946,-72 511.067,-73.6087 505.694,-75.8363"/>
<polygon fill="#000000" stroke="#000000" points="504.263,-72.6409 496.366,-79.7042 506.944,-79.1071 504.263,-72.6409"/>
</g>
<!-- Stringy -->
<g id="node13" class="node"><title>Stringy</title>
<g id="a_node13"><a xlink:href="/type/Stringy" xlink:title="Stringy">
<ellipse fill="none" stroke="#6666ff" cx="131.946" cy="-162" rx="38.1938" ry="18"/>
<text text-anchor="middle" x="131.946" y="-158.3" font-family="FreeSans" font-size="14.00" fill="#6666ff">Stringy</text>
</a>
</g>
</g>
<!-- Str -->
<g id="node14" class="node"><title>Str</title>
<g id="a_node14"><a xlink:href="/type/Str" xlink:title="Str">
<ellipse fill="none" stroke="#000000" cx="131.946" cy="-90" rx="27" ry="18"/>
<text text-anchor="middle" x="131.946" y="-86.3" font-family="FreeSans" font-size="14.00" fill="#000000">Str</text>
</a>
</g>
</g>
<!-- Str&#45;&gt;Cool -->
<g id="edge9" class="edge"><title>Str&#45;&gt;Cool</title>
<path fill="none" stroke="#000000" d="M157.689,-95.539C225.931,-107.572 411.7,-140.327 491.596,-154.414"/>
<polygon fill="#000000" stroke="#000000" points="491.242,-157.906 501.697,-156.195 492.457,-151.012 491.242,-157.906"/>
</g>
<!-- Str&#45;&gt;Stringy -->
<g id="edge27" class="edge"><title>Str&#45;&gt;Stringy</title>
<path fill="none" stroke="#6666ff" d="M131.946,-108.303C131.946,-116.017 131.946,-125.288 131.946,-133.888"/>
<polygon fill="#6666ff" stroke="#6666ff" points="128.446,-133.896 131.946,-143.896 135.446,-133.896 128.446,-133.896"/>
</g>
<!-- IntStr -->
<g id="node15" class="node"><title>IntStr</title>
<g id="a_node15"><a xlink:href="/type/IntStr" xlink:title="IntStr">
<ellipse fill="none" stroke="#000000" cx="131.946" cy="-18" rx="31.6951" ry="18"/>
<text text-anchor="middle" x="131.946" y="-14.3" font-family="FreeSans" font-size="14.00" fill="#000000">IntStr</text>
</a>
</g>
</g>
<!-- IntStr&#45;&gt;Int -->
<g id="edge10" class="edge"><title>IntStr&#45;&gt;Int</title>
<path fill="none" stroke="#000000" d="M157.212,-29.476C165.649,-32.9744 172.946,-36 172.946,-36 172.946,-36 437.946,-72 437.946,-72 437.946,-72 440.127,-73.0296 443.414,-74.5819"/>
<polygon fill="#000000" stroke="#000000" points="442.052,-77.8093 452.589,-78.9146 445.041,-71.4796 442.052,-77.8093"/>
</g>
<!-- IntStr&#45;&gt;Str -->
<g id="edge11" class="edge"><title>IntStr&#45;&gt;Str</title>
<path fill="none" stroke="#000000" d="M131.946,-36.3034C131.946,-44.0173 131.946,-53.2875 131.946,-61.8876"/>
<polygon fill="#000000" stroke="#000000" points="128.446,-61.8956 131.946,-71.8957 135.446,-61.8957 128.446,-61.8956"/>
</g>
<!-- PromiseStatus -->
<g id="node16" class="node"><title>PromiseStatus</title>
<g id="a_node16"><a xlink:href="/type/PromiseStatus" xlink:title="PromiseStatus">
<ellipse fill="none" stroke="#33bb33" cx="775.946" cy="-18" rx="67.6881" ry="18"/>
<text text-anchor="middle" x="775.946" y="-14.3" font-family="FreeSans" font-size="14.00" fill="#33bb33">PromiseStatus</text>
</a>
</g>
</g>
<!-- PromiseStatus&#45;&gt;Int -->
<g id="edge12" class="edge"><title>PromiseStatus&#45;&gt;Int</title>
<path fill="none" stroke="#000000" d="M725.445,-30.1496C710.932,-33.3539 698.946,-36 698.946,-36 698.946,-36 514.946,-72 514.946,-72 514.946,-72 511.067,-73.6087 505.694,-75.8363"/>
<polygon fill="#000000" stroke="#000000" points="504.263,-72.6409 496.366,-79.7042 506.944,-79.1071 504.263,-72.6409"/>
</g>
<!-- atomicint -->
<g id="node17" class="node"><title>atomicint</title>
<g id="a_node17"><a xlink:href="/type/atomicint" xlink:title="atomicint">
<ellipse fill="none" stroke="#000000" cx="227.946" cy="-18" rx="46.2923" ry="18"/>
<text text-anchor="middle" x="227.946" y="-14.3" font-family="FreeSans" font-size="14.00" fill="#000000">atomicint</text>
</a>
</g>
</g>
<!-- atomicint&#45;&gt;Int -->
<g id="edge13" class="edge"><title>atomicint&#45;&gt;Int</title>
<path fill="none" stroke="#000000" d="M263.09,-29.8626C273.869,-33.1943 282.946,-36 282.946,-36 282.946,-36 437.946,-72 437.946,-72 437.946,-72 440.127,-73.0296 443.414,-74.5819"/>
<polygon fill="#000000" stroke="#000000" points="442.052,-77.8093 452.589,-78.9146 445.041,-71.4796 442.052,-77.8093"/>
</g>
<!-- Bool -->
<g id="node18" class="node"><title>Bool</title>
<g id="a_node18"><a xlink:href="/type/Bool" xlink:title="Bool">
<ellipse fill="none" stroke="#33bb33" cx="320.946" cy="-18" rx="28.6953" ry="18"/>
<text text-anchor="middle" x="320.946" y="-14.3" font-family="FreeSans" font-size="14.00" fill="#33bb33">Bool</text>
</a>
</g>
</g>
<!-- Bool&#45;&gt;Int -->
<g id="edge14" class="edge"><title>Bool&#45;&gt;Int</title>
<path fill="none" stroke="#000000" d="M343.505,-29.2189C377.504,-44.6201 437.946,-72 437.946,-72 437.946,-72 440.127,-73.0296 443.414,-74.5819"/>
<polygon fill="#000000" stroke="#000000" points="442.052,-77.8093 452.589,-78.9146 445.041,-71.4796 442.052,-77.8093"/>
</g>
<!-- int -->
<g id="node19" class="node"><title>int</title>
<g id="a_node19"><a xlink:href="/type/int" xlink:title="int">
<ellipse fill="none" stroke="#000000" cx="394.946" cy="-18" rx="27" ry="18"/>
<text text-anchor="middle" x="394.946" y="-14.3" font-family="FreeSans" font-size="14.00" fill="#000000">int</text>
</a>
</g>
</g>
<!-- int&#45;&gt;Int -->
<g id="edge15" class="edge"><title>int&#45;&gt;Int</title>
<path fill="none" stroke="#000000" d="M410.554,-32.8297C422.024,-42.9925 437.798,-56.9696 450.741,-68.4386"/>
<polygon fill="#000000" stroke="#000000" points="448.565,-71.1867 458.371,-75.199 453.208,-65.9475 448.565,-71.1867"/>
</g>
<!-- Order -->
<g id="node20" class="node"><title>Order</title>
<g id="a_node20"><a xlink:href="/type/Order" xlink:title="Order">
<ellipse fill="none" stroke="#33bb33" cx="473.946" cy="-18" rx="33.5952" ry="18"/>
<text text-anchor="middle" x="473.946" y="-14.3" font-family="FreeSans" font-size="14.00" fill="#33bb33">Order</text>
</a>
</g>
</g>
<!-- Order&#45;&gt;Int -->
<g id="edge16" class="edge"><title>Order&#45;&gt;Int</title>
<path fill="none" stroke="#000000" d="M473.946,-36.3034C473.946,-44.0173 473.946,-53.2875 473.946,-61.8876"/>
<polygon fill="#000000" stroke="#000000" points="470.446,-61.8956 473.946,-71.8957 477.446,-61.8957 470.446,-61.8956"/>
</g>
<!-- NumStr -->
<g id="node21" class="node"><title>NumStr</title>
<g id="a_node21"><a xlink:href="/type/NumStr" xlink:title="NumStr">
<ellipse fill="none" stroke="#000000" cx="40.9464" cy="-18" rx="40.8928" ry="18"/>
<text text-anchor="middle" x="40.9464" y="-14.3" font-family="FreeSans" font-size="14.00" fill="#000000">NumStr</text>
</a>
</g>
</g>
<!-- NumStr&#45;&gt;Num -->
<g id="edge17" class="edge"><title>NumStr&#45;&gt;Num</title>
<path fill="none" stroke="#000000" d="M72.3282,-29.6698C82.374,-33.0854 90.9464,-36 90.9464,-36 90.9464,-36 277.937,-68.177 360.522,-82.388"/>
<polygon fill="#000000" stroke="#000000" points="360.074,-85.8623 370.523,-84.1089 361.261,-78.9636 360.074,-85.8623"/>
</g>
<!-- NumStr&#45;&gt;Str -->
<g id="edge18" class="edge"><title>NumStr&#45;&gt;Str</title>
<path fill="none" stroke="#000000" d="M60.692,-34.189C74.2381,-44.609 92.3253,-58.5222 106.887,-69.7232"/>
<polygon fill="#000000" stroke="#000000" points="104.931,-72.635 114.992,-75.9579 109.199,-67.0866 104.931,-72.635"/>
</g>
<!-- Rat -->
<g id="node22" class="node"><title>Rat</title>
<g id="a_node22"><a xlink:href="/type/Rat" xlink:title="Rat">
<ellipse fill="none" stroke="#000000" cx="980.946" cy="-18" rx="27" ry="18"/>
<text text-anchor="middle" x="980.946" y="-14.3" font-family="FreeSans" font-size="14.00" fill="#000000">Rat</text>
</a>
</g>
</g>
<!-- Rat&#45;&gt;Cool -->
<g id="edge19" class="edge"><title>Rat&#45;&gt;Cool</title>
<path fill="none" stroke="#000000" d="M959.589,-29.0854C951.837,-32.7461 944.946,-36 944.946,-36 944.946,-36 585.946,-72 585.946,-72 585.946,-72 561.609,-110 544.74,-136.34"/>
<polygon fill="#000000" stroke="#000000" points="541.583,-134.78 539.137,-145.089 547.477,-138.555 541.583,-134.78"/>
</g>
<!-- Rat&#45;&gt;Rational -->
<g id="edge28" class="edge"><title>Rat&#45;&gt;Rational</title>
<path fill="none" stroke="#6666ff" d="M964.746,-32.8297C953.382,-42.5305 937.947,-55.7068 924.882,-66.8597"/>
<polygon fill="#6666ff" stroke="#6666ff" points="922.445,-64.3386 917.111,-73.4932 926.99,-69.6626 922.445,-64.3386"/>
</g>
<!-- FatRat -->
<g id="node23" class="node"><title>FatRat</title>
<g id="a_node23"><a xlink:href="/type/FatRat" xlink:title="FatRat">
<ellipse fill="none" stroke="#000000" cx="898.946" cy="-18" rx="37.0935" ry="18"/>
<text text-anchor="middle" x="898.946" y="-14.3" font-family="FreeSans" font-size="14.00" fill="#000000">FatRat</text>
</a>
</g>
</g>
<!-- FatRat&#45;&gt;Cool -->
<g id="edge20" class="edge"><title>FatRat&#45;&gt;Cool</title>
<path fill="none" stroke="#000000" d="M870.337,-29.573C860.982,-33.0301 852.946,-36 852.946,-36 852.946,-36 552.946,-72 552.946,-72 552.946,-72 543.284,-107.833 536.22,-134.025"/>
<polygon fill="#000000" stroke="#000000" points="532.798,-133.273 533.574,-143.84 539.557,-135.096 532.798,-133.273"/>
</g>
<!-- FatRat&#45;&gt;Rational -->
<g id="edge29" class="edge"><title>FatRat&#45;&gt;Rational</title>
<path fill="none" stroke="#6666ff" d="M898.946,-36.3034C898.946,-44.0173 898.946,-53.2875 898.946,-61.8876"/>
<polygon fill="#6666ff" stroke="#6666ff" points="895.446,-61.8956 898.946,-71.8957 902.446,-61.8957 895.446,-61.8956"/>
</g>
</g>
</svg>
