<?xml version="1.0" encoding="UTF-8" standalone="no"?>
<!DOCTYPE svg PUBLIC "-//W3C//DTD SVG 1.1//EN"
 "http://www.w3.org/Graphics/SVG/1.1/DTD/svg11.dtd">
<!-- Generated by graphviz version 2.38.0 (20140413.2041)
 -->
<!-- Title: perl6&#45;type&#45;graph Pages: 1 -->
<svg width="2696pt" height="1606pt"
 viewBox="0.00 0.00 2695.83 1606.09" xmlns="http://www.w3.org/2000/svg" xmlns:xlink="http://www.w3.org/1999/xlink">
<g id="graph0" class="graph" transform="scale(1 1) rotate(0) translate(1303.71 790.125)">
<title>perl6&#45;type&#45;graph</title>
<polygon fill="white" stroke="none" points="-1303.71,815.968 -1303.71,-790.125 1392.13,-790.125 1392.13,815.968 -1303.71,815.968"/>
<!-- Metamodel::MultiMethodContainer -->
<g id="node1" class="node"><title>Metamodel::MultiMethodContainer</title>
<g id="a_node1"><a xlink:href="/type/Metamodel::MultiMethodContainer" xlink:title="Metamodel::MultiMethodContainer">
<ellipse fill="none" stroke="#6666ff" cx="-312.34" cy="31.9758" rx="146.474" ry="18"/>
<text text-anchor="middle" x="-312.34" y="35.6758" font-family="FreeSans" font-size="14.00" fill="#6666ff">Metamodel::MultiMethodContainer</text>
</a>
</g>
</g>
<!-- Mu -->
<g id="node2" class="node"><title>Mu</title>
<g id="a_node2"><a xlink:href="/type/Mu" xlink:title="Mu">
<ellipse fill="none" stroke="#000000" cx="1223.03" cy="688.006" rx="27" ry="18"/>
<text text-anchor="middle" x="1223.03" y="691.706" font-family="FreeSans" font-size="14.00" fill="#000000">Mu</text>
</a>
</g>
</g>
<!-- Any -->
<g id="node3" class="node"><title>Any</title>
<g id="a_node3"><a xlink:href="/type/Any" xlink:title="Any">
<ellipse fill="none" stroke="#000000" cx="719.517" cy="244.649" rx="27" ry="18"/>
<text text-anchor="middle" x="719.517" y="248.349" font-family="FreeSans" font-size="14.00" fill="#000000">Any</text>
</a>
</g>
</g>
<!-- Any&#45;&gt;Mu -->
<g id="edge1" class="edge"><title>Any&#45;&gt;Mu</title>
<path fill="none" stroke="#000000" d="M735.983,259.148C809.944,324.272 1111.63,589.914 1199.14,666.965"/>
<polygon fill="#000000" stroke="#000000" points="1201.5,664.382 1206.69,673.618 1196.88,669.636 1201.5,664.382"/>
</g>
<!-- Metamodel::Naming -->
<g id="node4" class="node"><title>Metamodel::Naming</title>
<g id="a_node4"><a xlink:href="/type/Metamodel::Naming" xlink:title="Metamodel::Naming">
<ellipse fill="none" stroke="#6666ff" cx="327.233" cy="11.7983" rx="90.1842" ry="18"/>
<text text-anchor="middle" x="327.233" y="15.4983" font-family="FreeSans" font-size="14.00" fill="#6666ff">Metamodel::Naming</text>
</a>
</g>
</g>
<!-- Metamodel::Documenting -->
<g id="node5" class="node"><title>Metamodel::Documenting</title>
<g id="a_node5"><a xlink:href="/type/Metamodel::Documenting" xlink:title="Metamodel::Documenting">
<ellipse fill="none" stroke="#6666ff" cx="-170.32" cy="-766.426" rx="111.28" ry="18"/>
<text text-anchor="middle" x="-170.32" y="-762.726" font-family="FreeSans" font-size="14.00" fill="#6666ff">Metamodel::Documenting</text>
</a>
</g>
</g>
<!-- Metamodel::Versioning -->
<g id="node6" class="node"><title>Metamodel::Versioning</title>
<g id="a_node6"><a xlink:href="/type/Metamodel::Versioning" xlink:title="Metamodel::Versioning">
<ellipse fill="none" stroke="#6666ff" cx="-287.291" cy="-315.666" rx="100.983" ry="18"/>
<text text-anchor="middle" x="-287.291" y="-311.966" font-family="FreeSans" font-size="14.00" fill="#6666ff">Metamodel::Versioning</text>
</a>
</g>
</g>
<!-- Metamodel::Stashing -->
<g id="node7" class="node"><title>Metamodel::Stashing</title>
<g id="a_node7"><a xlink:href="/type/Metamodel::Stashing" xlink:title="Metamodel::Stashing">
<ellipse fill="none" stroke="#6666ff" cx="36.2276" cy="324.799" rx="93.6835" ry="18"/>
<text text-anchor="middle" x="36.2276" y="328.499" font-family="FreeSans" font-size="14.00" fill="#6666ff">Metamodel::Stashing</text>
</a>
</g>
</g>
<!-- Metamodel::AttributeContainer -->
<g id="node8" class="node"><title>Metamodel::AttributeContainer</title>
<g id="a_node8"><a xlink:href="/type/Metamodel::AttributeContainer" xlink:title="Metamodel::AttributeContainer">
<ellipse fill="none" stroke="#6666ff" cx="719.265" cy="-215.14" rx="129.977" ry="18"/>
<text text-anchor="middle" x="719.265" y="-211.44" font-family="FreeSans" font-size="14.00" fill="#6666ff">Metamodel::AttributeContainer</text>
</a>
</g>
</g>
<!-- Metamodel::Finalization -->
<g id="node9" class="node"><title>Metamodel::Finalization</title>
<g id="a_node9"><a xlink:href="/type/Metamodel::Finalization" xlink:title="Metamodel::Finalization">
<ellipse fill="none" stroke="#6666ff" cx="-1172.16" cy="752.901" rx="103.982" ry="18"/>
<text text-anchor="middle" x="-1172.16" y="756.601" font-family="FreeSans" font-size="14.00" fill="#6666ff">Metamodel::Finalization</text>
</a>
</g>
</g>
<!-- Metamodel::MethodContainer -->
<g id="node10" class="node"><title>Metamodel::MethodContainer</title>
<g id="a_node10"><a xlink:href="/type/Metamodel::MethodContainer" xlink:title="Metamodel::MethodContainer">
<ellipse fill="none" stroke="#6666ff" cx="347.944" cy="357.931" rx="127.277" ry="18"/>
<text text-anchor="middle" x="347.944" y="361.631" font-family="FreeSans" font-size="14.00" fill="#6666ff">Metamodel::MethodContainer</text>
</a>
</g>
</g>
<!-- Metamodel::PrivateMethodContainer -->
<g id="node11" class="node"><title>Metamodel::PrivateMethodContainer</title>
<g id="a_node11"><a xlink:href="/type/Metamodel::PrivateMethodContainer" xlink:title="Metamodel::PrivateMethodContainer">
<ellipse fill="none" stroke="#6666ff" cx="31.4001" cy="-334.438" rx="154.873" ry="18"/>
<text text-anchor="middle" x="31.4001" y="-330.738" font-family="FreeSans" font-size="14.00" fill="#6666ff">Metamodel::PrivateMethodContainer</text>
</a>
</g>
</g>
<!-- Metamodel::RoleContainer -->
<g id="node12" class="node"><title>Metamodel::RoleContainer</title>
<g id="a_node12"><a xlink:href="/type/Metamodel::RoleContainer" xlink:title="Metamodel::RoleContainer">
<ellipse fill="none" stroke="#6666ff" cx="-2.94526" cy="-8.41076" rx="115.88" ry="18"/>
<text text-anchor="middle" x="-2.94526" y="-4.71076" font-family="FreeSans" font-size="14.00" fill="#6666ff">Metamodel::RoleContainer</text>
</a>
</g>
</g>
<!-- Metamodel::MultipleInheritance -->
<g id="node13" class="node"><title>Metamodel::MultipleInheritance</title>
<g id="a_node13"><a xlink:href="/type/Metamodel::MultipleInheritance" xlink:title="Metamodel::MultipleInheritance">
<ellipse fill="none" stroke="#6666ff" cx="206.799" cy="-768.125" rx="133.776" ry="18"/>
<text text-anchor="middle" x="206.799" y="-764.425" font-family="FreeSans" font-size="14.00" fill="#6666ff">Metamodel::MultipleInheritance</text>
</a>
</g>
</g>
<!-- Metamodel::DefaultParent -->
<g id="node14" class="node"><title>Metamodel::DefaultParent</title>
<g id="a_node14"><a xlink:href="/type/Metamodel::DefaultParent" xlink:title="Metamodel::DefaultParent">
<ellipse fill="none" stroke="#6666ff" cx="-581.296" cy="-724.179" rx="113.18" ry="18"/>
<text text-anchor="middle" x="-581.296" y="-720.479" font-family="FreeSans" font-size="14.00" fill="#6666ff">Metamodel::DefaultParent</text>
</a>
</g>
</g>
<!-- Metamodel::C3MRO -->
<g id="node15" class="node"><title>Metamodel::C3MRO</title>
<g id="a_node15"><a xlink:href="/type/Metamodel::C3MRO" xlink:title="Metamodel::C3MRO">
<ellipse fill="none" stroke="#6666ff" cx="-1171.17" cy="-729.499" rx="92.0841" ry="18"/>
<text text-anchor="middle" x="-1171.17" y="-725.799" font-family="FreeSans" font-size="14.00" fill="#6666ff">Metamodel::C3MRO</text>
</a>
</g>
</g>
<!-- Metamodel::MROBasedMethodDispatch -->
<g id="node16" class="node"><title>Metamodel::MROBasedMethodDispatch</title>
<g id="a_node16"><a xlink:href="/type/Metamodel::MROBasedMethodDispatch" xlink:title="Metamodel::MROBasedMethodDispatch">
<ellipse fill="none" stroke="#6666ff" cx="-569.685" cy="771.288" rx="169.77" ry="18"/>
<text text-anchor="middle" x="-569.685" y="774.988" font-family="FreeSans" font-size="14.00" fill="#6666ff">Metamodel::MROBasedMethodDispatch</text>
</a>
</g>
</g>
<!-- Metamodel::MROBasedTypeChecking -->
<g id="node17" class="node"><title>Metamodel::MROBasedTypeChecking</title>
<g id="a_node17"><a xlink:href="/type/Metamodel::MROBasedTypeChecking" xlink:title="Metamodel::MROBasedTypeChecking">
<ellipse fill="none" stroke="#6666ff" cx="-273.674" cy="368.396" rx="163.271" ry="18"/>
<text text-anchor="middle" x="-273.674" y="372.096" font-family="FreeSans" font-size="14.00" fill="#6666ff">Metamodel::MROBasedTypeChecking</text>
</a>
</g>
</g>
<!-- Metamodel::Trusting -->
<g id="node18" class="node"><title>Metamodel::Trusting</title>
<g id="a_node18"><a xlink:href="/type/Metamodel::Trusting" xlink:title="Metamodel::Trusting">
<ellipse fill="none" stroke="#6666ff" cx="-1208.06" cy="232.025" rx="91.784" ry="18"/>
<text text-anchor="middle" x="-1208.06" y="235.725" font-family="FreeSans" font-size="14.00" fill="#6666ff">Metamodel::Trusting</text>
</a>
</g>
</g>
<!-- Metamodel::BUILDPLAN -->
<g id="node19" class="node"><title>Metamodel::BUILDPLAN</title>
<g id="a_node19"><a xlink:href="/type/Metamodel::BUILDPLAN" xlink:title="Metamodel::BUILDPLAN">
<ellipse fill="none" stroke="#6666ff" cx="-654.511" cy="262.632" rx="109.681" ry="18"/>
<text text-anchor="middle" x="-654.511" y="266.332" font-family="FreeSans" font-size="14.00" fill="#6666ff">Metamodel::BUILDPLAN</text>
</a>
</g>
</g>
<!-- Metamodel::Mixins -->
<g id="node20" class="node"><title>Metamodel::Mixins</title>
<g id="a_node20"><a xlink:href="/type/Metamodel::Mixins" xlink:title="Metamodel::Mixins">
<ellipse fill="none" stroke="#6666ff" cx="-1212.25" cy="-216.071" rx="85.2851" ry="18"/>
<text text-anchor="middle" x="-1212.25" y="-212.371" font-family="FreeSans" font-size="14.00" fill="#6666ff">Metamodel::Mixins</text>
</a>
</g>
</g>
<!-- Metamodel::BoolificationProtocol -->
<g id="node21" class="node"><title>Metamodel::BoolificationProtocol</title>
<g id="a_node21"><a xlink:href="/type/Metamodel::BoolificationProtocol" xlink:title="Metamodel::BoolificationProtocol">
<ellipse fill="none" stroke="#6666ff" cx="-148.889" cy="793.968" rx="139.175" ry="18"/>
<text text-anchor="middle" x="-148.889" y="797.668" font-family="FreeSans" font-size="14.00" fill="#6666ff">Metamodel::BoolificationProtocol</text>
</a>
</g>
</g>
<!-- Metamodel::ClassHOW -->
<g id="node22" class="node"><title>Metamodel::ClassHOW</title>
<g id="a_node22"><a xlink:href="/type/Metamodel::ClassHOW" xlink:title="Metamodel::ClassHOW">
<ellipse fill="none" stroke="#000000" cx="-660.039" cy="-195.912" rx="103.982" ry="18"/>
<text text-anchor="middle" x="-660.039" y="-192.212" font-family="FreeSans" font-size="14.00" fill="#000000">Metamodel::ClassHOW</text>
</a>
</g>
</g>
<!-- Metamodel::ClassHOW&#45;&gt;Metamodel::MultiMethodContainer -->
<g id="edge14" class="edge"><title>Metamodel::ClassHOW&#45;&gt;Metamodel::MultiMethodContainer</title>
<path fill="none" stroke="#6666ff" d="M-633.333,-178.409C-571.419,-137.829 -418.047,-37.3063 -348.118,8.5266"/>
<polygon fill="#6666ff" stroke="#6666ff" points="-346.062,5.68926 -339.617,14.0983 -349.899,11.5438 -346.062,5.68926"/>
</g>
<!-- Metamodel::ClassHOW&#45;&gt;Any -->
<g id="edge2" class="edge"><title>Metamodel::ClassHOW&#45;&gt;Any</title>
<path fill="none" stroke="#000000" d="M-613.977,-179.767C-477.592,-131.961 -85.2952,5.54585 -85.2952,5.54585 -85.2952,5.54585 530.099,188.375 684.638,234.287"/>
<polygon fill="#000000" stroke="#000000" points="685.959,231.028 694.548,237.231 683.965,237.738 685.959,231.028"/>
</g>
<!-- Metamodel::ClassHOW&#45;&gt;Metamodel::Naming -->
<g id="edge6" class="edge"><title>Metamodel::ClassHOW&#45;&gt;Metamodel::Naming</title>
<path fill="none" stroke="#6666ff" d="M-593.728,-181.961C-415.85,-144.538 70.8453,-42.1426 255.181,-3.36056"/>
<polygon fill="#6666ff" stroke="#6666ff" points="255.98,-6.76924 265.045,-1.28533 254.538,0.0808022 255.98,-6.76924"/>
</g>
<!-- Metamodel::ClassHOW&#45;&gt;Metamodel::Documenting -->
<g id="edge7" class="edge"><title>Metamodel::ClassHOW&#45;&gt;Metamodel::Documenting</title>
<path fill="none" stroke="#6666ff" d="M-644.574,-213.929C-573.254,-297.015 -276.013,-643.296 -192.33,-740.784"/>
<polygon fill="#6666ff" stroke="#6666ff" points="-194.958,-743.097 -185.789,-748.405 -189.646,-738.537 -194.958,-743.097"/>
</g>
<!-- Metamodel::ClassHOW&#45;&gt;Metamodel::Versioning -->
<g id="edge8" class="edge"><title>Metamodel::ClassHOW&#45;&gt;Metamodel::Versioning</title>
<path fill="none" stroke="#6666ff" d="M-610.541,-211.815C-542.261,-233.751 -419.356,-273.237 -346.358,-296.689"/>
<polygon fill="#6666ff" stroke="#6666ff" points="-346.991,-300.162 -336.4,-299.888 -344.85,-293.497 -346.991,-300.162"/>
</g>
<!-- Metamodel::ClassHOW&#45;&gt;Metamodel::Stashing -->
<g id="edge9" class="edge"><title>Metamodel::ClassHOW&#45;&gt;Metamodel::Stashing</title>
<path fill="none" stroke="#6666ff" d="M-644.356,-178.023C-597.24,-124.278 -460.176,32.0689 -460.176,32.0689 -460.176,32.0689 -118.154,233.76 -1.90768,302.311"/>
<polygon fill="#6666ff" stroke="#6666ff" points="0.192624,299.486 7.02858,307.58 -3.36312,305.516 0.192624,299.486"/>
</g>
<!-- Metamodel::ClassHOW&#45;&gt;Metamodel::AttributeContainer -->
<g id="edge10" class="edge"><title>Metamodel::ClassHOW&#45;&gt;Metamodel::AttributeContainer</title>
<path fill="none" stroke="#6666ff" d="M-556.367,-197.357C-311.607,-200.769 302.328,-209.328 579.551,-213.192"/>
<polygon fill="#6666ff" stroke="#6666ff" points="579.625,-216.693 589.673,-213.333 579.723,-209.694 579.625,-216.693"/>
</g>
<!-- Metamodel::ClassHOW&#45;&gt;Metamodel::Finalization -->
<g id="edge11" class="edge"><title>Metamodel::ClassHOW&#45;&gt;Metamodel::Finalization</title>
<path fill="none" stroke="#6666ff" d="M-669.812,-177.806C-732.804,-61.0989 -1081.36,584.674 -1157.47,725.695"/>
<polygon fill="#6666ff" stroke="#6666ff" points="-1154.45,727.466 -1162.28,734.604 -1160.61,724.142 -1154.45,727.466"/>
</g>
<!-- Metamodel::ClassHOW&#45;&gt;Metamodel::MethodContainer -->
<g id="edge12" class="edge"><title>Metamodel::ClassHOW&#45;&gt;Metamodel::MethodContainer</title>
<path fill="none" stroke="#6666ff" d="M-623.198,-178.977C-508.357,-126.185 -164.505,31.8827 -164.505,31.8827 -164.505,31.8827 194.161,260.086 311.37,334.661"/>
<polygon fill="#6666ff" stroke="#6666ff" points="313.47,331.849 320.029,340.17 309.713,337.755 313.47,331.849"/>
</g>
<!-- Metamodel::ClassHOW&#45;&gt;Metamodel::PrivateMethodContainer -->
<g id="edge13" class="edge"><title>Metamodel::ClassHOW&#45;&gt;Metamodel::PrivateMethodContainer</title>
<path fill="none" stroke="#6666ff" d="M-591.849,-209.574C-465.666,-234.854 -195.918,-288.896 -56.33,-316.862"/>
<polygon fill="#6666ff" stroke="#6666ff" points="-57.0011,-320.297 -46.5083,-318.83 -55.6259,-313.434 -57.0011,-320.297"/>
</g>
<!-- Metamodel::ClassHOW&#45;&gt;Metamodel::RoleContainer -->
<g id="edge15" class="edge"><title>Metamodel::ClassHOW&#45;&gt;Metamodel::RoleContainer</title>
<path fill="none" stroke="#6666ff" d="M-605.987,-180.488C-486.156,-146.295 -198.547,-64.2256 -68.6216,-27.1515"/>
<polygon fill="#6666ff" stroke="#6666ff" points="-67.4497,-30.4569 -58.794,-24.3472 -69.3706,-23.7255 -67.4497,-30.4569"/>
</g>
<!-- Metamodel::ClassHOW&#45;&gt;Metamodel::MultipleInheritance -->
<g id="edge16" class="edge"><title>Metamodel::ClassHOW&#45;&gt;Metamodel::MultipleInheritance</title>
<path fill="none" stroke="#6666ff" d="M-633.623,-213.35C-508.142,-296.182 27.581,-649.821 171.234,-744.649"/>
<polygon fill="#6666ff" stroke="#6666ff" points="169.461,-747.672 179.735,-750.26 173.317,-741.83 169.461,-747.672"/>
</g>
<!-- Metamodel::ClassHOW&#45;&gt;Metamodel::DefaultParent -->
<g id="edge17" class="edge"><title>Metamodel::ClassHOW&#45;&gt;Metamodel::DefaultParent</title>
<path fill="none" stroke="#6666ff" d="M-657.329,-214.096C-645.663,-292.359 -599.683,-600.83 -585.491,-696.039"/>
<polygon fill="#6666ff" stroke="#6666ff" points="-588.931,-696.697 -583.995,-706.072 -582.008,-695.665 -588.931,-696.697"/>
</g>
<!-- Metamodel::ClassHOW&#45;&gt;Metamodel::C3MRO -->
<g id="edge18" class="edge"><title>Metamodel::ClassHOW&#45;&gt;Metamodel::C3MRO</title>
<path fill="none" stroke="#6666ff" d="M-677.338,-213.971C-753.419,-293.395 -1058.41,-611.789 -1146.95,-704.222"/>
<polygon fill="#6666ff" stroke="#6666ff" points="-1149.74,-702.074 -1154.13,-711.716 -1144.69,-706.916 -1149.74,-702.074"/>
</g>
<!-- Metamodel::ClassHOW&#45;&gt;Metamodel::MROBasedMethodDispatch -->
<g id="edge19" class="edge"><title>Metamodel::ClassHOW&#45;&gt;Metamodel::MROBasedMethodDispatch</title>
<path fill="none" stroke="#6666ff" d="M-655.382,-177.659C-633.627,-92.3991 -543.073,262.503 -543.073,262.503 -543.073,262.503 -562.631,636.421 -568.213,743.155"/>
<polygon fill="#6666ff" stroke="#6666ff" points="-564.72,743.377 -568.737,753.18 -571.71,743.011 -564.72,743.377"/>
</g>
<!-- Metamodel::ClassHOW&#45;&gt;Metamodel::MROBasedTypeChecking -->
<g id="edge20" class="edge"><title>Metamodel::ClassHOW&#45;&gt;Metamodel::MROBasedTypeChecking</title>
<path fill="none" stroke="#6666ff" d="M-647.622,-177.776C-591.195,-95.3609 -358.816,244.042 -291.826,341.885"/>
<polygon fill="#6666ff" stroke="#6666ff" points="-288.807,340.098 -286.046,350.327 -294.583,344.053 -288.807,340.098"/>
</g>
<!-- Metamodel::ClassHOW&#45;&gt;Metamodel::Trusting -->
<g id="edge21" class="edge"><title>Metamodel::ClassHOW&#45;&gt;Metamodel::Trusting</title>
<path fill="none" stroke="#6666ff" d="M-682.544,-178.339C-768.852,-110.943 -1078.8,131.085 -1177.58,208.225"/>
<polygon fill="#6666ff" stroke="#6666ff" points="-1175.64,211.145 -1185.67,214.541 -1179.95,205.628 -1175.64,211.145"/>
</g>
<!-- Metamodel::ClassHOW&#45;&gt;Metamodel::BUILDPLAN -->
<g id="edge22" class="edge"><title>Metamodel::ClassHOW&#45;&gt;Metamodel::BUILDPLAN</title>
<path fill="none" stroke="#6666ff" d="M-659.819,-177.654C-658.968,-107.05 -655.888,148.412 -654.853,234.264"/>
<polygon fill="#6666ff" stroke="#6666ff" points="-651.353,234.28 -654.732,244.321 -658.352,234.364 -651.353,234.28"/>
</g>
<!-- Metamodel::ClassHOW&#45;&gt;Metamodel::Mixins -->
<g id="edge23" class="edge"><title>Metamodel::ClassHOW&#45;&gt;Metamodel::Mixins</title>
<path fill="none" stroke="#6666ff" d="M-761.966,-199.633C-863.802,-203.351 -1019.07,-209.019 -1118.08,-212.634"/>
<polygon fill="#6666ff" stroke="#6666ff" points="-1118.21,-209.136 -1128.08,-212.999 -1117.96,-216.131 -1118.21,-209.136"/>
</g>
<!-- Metamodel::ClassHOW&#45;&gt;Metamodel::BoolificationProtocol -->
<g id="edge24" class="edge"><title>Metamodel::ClassHOW&#45;&gt;Metamodel::BoolificationProtocol</title>
<path fill="none" stroke="#6666ff" d="M-652.916,-177.773C-614.981,-81.1656 -438.408,368.496 -438.408,368.496 -438.408,368.496 -229.918,674.889 -166.788,767.664"/>
<polygon fill="#6666ff" stroke="#6666ff" points="-163.877,765.721 -161.145,775.958 -169.664,769.659 -163.877,765.721"/>
</g>
<!-- Metamodel::ConcreteRoleHOW -->
<g id="node23" class="node"><title>Metamodel::ConcreteRoleHOW</title>
<g id="a_node23"><a xlink:href="/type/Metamodel::ConcreteRoleHOW" xlink:title="Metamodel::ConcreteRoleHOW">
<ellipse fill="none" stroke="#000000" cx="1252.29" cy="14.5031" rx="135.676" ry="18"/>
<text text-anchor="middle" x="1252.29" y="18.2031" font-family="FreeSans" font-size="14.00" fill="#000000">Metamodel::ConcreteRoleHOW</text>
</a>
</g>
</g>
<!-- Metamodel::ConcreteRoleHOW&#45;&gt;Metamodel::MultiMethodContainer -->
<g id="edge29" class="edge"><title>Metamodel::ConcreteRoleHOW&#45;&gt;Metamodel::MultiMethodContainer</title>
<path fill="none" stroke="#6666ff" d="M1117.32,16.9689C860.63,21.6582 327.471,31.3982 327.471,31.3982 327.471,31.3982 33.5217,31.6636 -155.891,31.8346"/>
<polygon fill="#6666ff" stroke="#6666ff" points="-155.953,35.3345 -165.956,31.8437 -155.959,28.3345 -155.953,35.3345"/>
</g>
<!-- Metamodel::ConcreteRoleHOW&#45;&gt;Any -->
<g id="edge3" class="edge"><title>Metamodel::ConcreteRoleHOW&#45;&gt;Any</title>
<path fill="none" stroke="#000000" d="M1212.24,31.8015C1110.68,75.6765 844.527,190.647 751.875,230.671"/>
<polygon fill="#000000" stroke="#000000" points="753.023,233.988 742.455,234.74 750.247,227.562 753.023,233.988"/>
</g>
<!-- Metamodel::ConcreteRoleHOW&#45;&gt;Metamodel::Naming -->
<g id="edge25" class="edge"><title>Metamodel::ConcreteRoleHOW&#45;&gt;Metamodel::Naming</title>
<path fill="none" stroke="#6666ff" d="M1116.29,14.1055C928.748,13.5571 595.027,12.5813 428.126,12.0933"/>
<polygon fill="#6666ff" stroke="#6666ff" points="427.855,15.5926 417.865,12.0633 427.875,8.59263 427.855,15.5926"/>
</g>
<!-- Metamodel::ConcreteRoleHOW&#45;&gt;Metamodel::Versioning -->
<g id="edge26" class="edge"><title>Metamodel::ConcreteRoleHOW&#45;&gt;Metamodel::Versioning</title>
<path fill="none" stroke="#6666ff" d="M1180.86,-0.814131C924.058,-55.8871 48.977,-243.552 -212.755,-299.681"/>
<polygon fill="#6666ff" stroke="#6666ff" points="-213.501,-296.262 -222.545,-301.781 -212.033,-303.106 -213.501,-296.262"/>
</g>
<!-- Metamodel::ConcreteRoleHOW&#45;&gt;Metamodel::AttributeContainer -->
<g id="edge30" class="edge"><title>Metamodel::ConcreteRoleHOW&#45;&gt;Metamodel::AttributeContainer</title>
<path fill="none" stroke="#6666ff" d="M1212.22,-2.75742C1116.2,-44.1282 873.132,-148.849 768.456,-193.947"/>
<polygon fill="#6666ff" stroke="#6666ff" points="766.865,-190.821 759.066,-197.992 769.635,-197.25 766.865,-190.821"/>
</g>
<!-- Metamodel::ConcreteRoleHOW&#45;&gt;Metamodel::MethodContainer -->
<g id="edge28" class="edge"><title>Metamodel::ConcreteRoleHOW&#45;&gt;Metamodel::MethodContainer</title>
<path fill="none" stroke="#6666ff" d="M1207.44,31.5338C1056.31,88.9273 565.938,275.147 401.934,337.429"/>
<polygon fill="#6666ff" stroke="#6666ff" points="403.118,340.723 392.527,341.001 400.633,334.179 403.118,340.723"/>
</g>
<!-- Metamodel::ConcreteRoleHOW&#45;&gt;Metamodel::PrivateMethodContainer -->
<g id="edge27" class="edge"><title>Metamodel::ConcreteRoleHOW&#45;&gt;Metamodel::PrivateMethodContainer</title>
<path fill="none" stroke="#6666ff" d="M1195.04,-1.85903C993.534,-59.4512 317.493,-252.67 99.661,-314.929"/>
<polygon fill="#6666ff" stroke="#6666ff" points="98.5984,-311.592 89.9453,-317.706 100.522,-318.323 98.5984,-311.592"/>
</g>
<!-- Metamodel::ConcreteRoleHOW&#45;&gt;Metamodel::RoleContainer -->
<g id="edge31" class="edge"><title>Metamodel::ConcreteRoleHOW&#45;&gt;Metamodel::RoleContainer</title>
<path fill="none" stroke="#6666ff" d="M1118.24,11.2717C861.801,5.0902 326.995,-7.80166 326.995,-7.80166 326.995,-7.80166 216.205,-8.00619 123.025,-8.17821"/>
<polygon fill="#6666ff" stroke="#6666ff" points="122.909,-4.67832 112.915,-8.19687 122.922,-11.6783 122.909,-4.67832"/>
</g>
<!-- Metamodel::ConcreteRoleHOW&#45;&gt;Metamodel::MultipleInheritance -->
<g id="edge32" class="edge"><title>Metamodel::ConcreteRoleHOW&#45;&gt;Metamodel::MultipleInheritance</title>
<path fill="none" stroke="#6666ff" d="M1228.49,-3.31362C1090.82,-106.37 397.159,-625.626 238.954,-744.055"/>
<polygon fill="#6666ff" stroke="#6666ff" points="236.471,-741.542 230.563,-750.336 240.666,-747.145 236.471,-741.542"/>
</g>
<!-- Metamodel::TypePretense -->
<g id="node24" class="node"><title>Metamodel::TypePretense</title>
<g id="a_node24"><a xlink:href="/type/Metamodel::TypePretense" xlink:title="Metamodel::TypePretense">
<ellipse fill="none" stroke="#6666ff" cx="1222.97" cy="-658.973" rx="114.28" ry="18"/>
<text text-anchor="middle" x="1222.97" y="-655.273" font-family="FreeSans" font-size="14.00" fill="#6666ff">Metamodel::TypePretense</text>
</a>
</g>
</g>
<!-- Metamodel::RolePunning -->
<g id="node25" class="node"><title>Metamodel::RolePunning</title>
<g id="a_node25"><a xlink:href="/type/Metamodel::RolePunning" xlink:title="Metamodel::RolePunning">
<ellipse fill="none" stroke="#6666ff" cx="637.678" cy="-746.123" rx="109.681" ry="18"/>
<text text-anchor="middle" x="637.678" y="-742.423" font-family="FreeSans" font-size="14.00" fill="#6666ff">Metamodel::RolePunning</text>
</a>
</g>
</g>
<!-- Metamodel::ParametricRoleHOW -->
<g id="node26" class="node"><title>Metamodel::ParametricRoleHOW</title>
<g id="a_node26"><a xlink:href="/type/Metamodel::ParametricRoleHOW" xlink:title="Metamodel::ParametricRoleHOW">
<ellipse fill="none" stroke="#000000" cx="347.798" cy="-332.842" rx="142.175" ry="18"/>
<text text-anchor="middle" x="347.798" y="-329.142" font-family="FreeSans" font-size="14.00" fill="#000000">Metamodel::ParametricRoleHOW</text>
</a>
</g>
</g>
<!-- Metamodel::ParametricRoleHOW&#45;&gt;Metamodel::MultiMethodContainer -->
<g id="edge38" class="edge"><title>Metamodel::ParametricRoleHOW&#45;&gt;Metamodel::MultiMethodContainer</title>
<path fill="none" stroke="#6666ff" d="M315.958,-315.246C207.145,-255.112 -149.911,-57.7888 -271.425,9.36466"/>
<polygon fill="#6666ff" stroke="#6666ff" points="-269.989,12.5697 -280.434,14.3434 -273.375,6.44306 -269.989,12.5697"/>
</g>
<!-- Metamodel::ParametricRoleHOW&#45;&gt;Any -->
<g id="edge4" class="edge"><title>Metamodel::ParametricRoleHOW&#45;&gt;Any</title>
<path fill="none" stroke="#000000" d="M359.536,-314.605C413.813,-230.283 640.47,121.844 703.304,219.461"/>
<polygon fill="#000000" stroke="#000000" points="706.392,217.793 708.862,228.096 700.506,221.582 706.392,217.793"/>
</g>
<!-- Metamodel::ParametricRoleHOW&#45;&gt;Metamodel::Naming -->
<g id="edge33" class="edge"><title>Metamodel::ParametricRoleHOW&#45;&gt;Metamodel::Naming</title>
<path fill="none" stroke="#6666ff" d="M346.721,-314.798C343.356,-258.398 333.016,-85.1182 328.925,-16.5541"/>
<polygon fill="#6666ff" stroke="#6666ff" points="332.413,-16.2567 328.324,-6.483 325.426,-16.6738 332.413,-16.2567"/>
</g>
<!-- Metamodel::ParametricRoleHOW&#45;&gt;Metamodel::Documenting -->
<g id="edge34" class="edge"><title>Metamodel::ParametricRoleHOW&#45;&gt;Metamodel::Documenting</title>
<path fill="none" stroke="#6666ff" d="M326.521,-350.647C245.005,-418.863 -47.5191,-663.661 -141.222,-742.075"/>
<polygon fill="#6666ff" stroke="#6666ff" points="-143.729,-739.609 -149.152,-748.711 -139.236,-744.978 -143.729,-739.609"/>
</g>
<!-- Metamodel::ParametricRoleHOW&#45;&gt;Metamodel::Versioning -->
<g id="edge35" class="edge"><title>Metamodel::ParametricRoleHOW&#45;&gt;Metamodel::Versioning</title>
<path fill="none" stroke="#6666ff" d="M218.77,-325.17C177.467,-322.714 142.221,-320.618 142.221,-320.618 142.221,-320.618 31.839,-314.839 31.839,-314.839 31.839,-314.839 -83.9752,-315.139 -176.067,-315.378"/>
<polygon fill="#6666ff" stroke="#6666ff" points="-176.325,-311.878 -186.316,-315.404 -176.307,-318.878 -176.325,-311.878"/>
</g>
<!-- Metamodel::ParametricRoleHOW&#45;&gt;Metamodel::Stashing -->
<g id="edge42" class="edge"><title>Metamodel::ParametricRoleHOW&#45;&gt;Metamodel::Stashing</title>
<path fill="none" stroke="#6666ff" d="M339.139,-314.566C295.683,-222.842 101.378,187.284 49.1744,297.472"/>
<polygon fill="#6666ff" stroke="#6666ff" points="52.2886,299.073 44.8441,306.612 45.9627,296.076 52.2886,299.073"/>
</g>
<!-- Metamodel::ParametricRoleHOW&#45;&gt;Metamodel::AttributeContainer -->
<g id="edge39" class="edge"><title>Metamodel::ParametricRoleHOW&#45;&gt;Metamodel::AttributeContainer</title>
<path fill="none" stroke="#6666ff" d="M400.625,-316.103C468.252,-294.675 585.244,-257.605 657.091,-234.84"/>
<polygon fill="#6666ff" stroke="#6666ff" points="658.444,-238.083 666.919,-231.726 656.329,-231.41 658.444,-238.083"/>
</g>
<!-- Metamodel::ParametricRoleHOW&#45;&gt;Metamodel::MethodContainer -->
<g id="edge36" class="edge"><title>Metamodel::ParametricRoleHOW&#45;&gt;Metamodel::MethodContainer</title>
<path fill="none" stroke="#6666ff" d="M351.535,-314.8C366.221,-243.898 419.174,11.7475 419.174,11.7475 419.174,11.7475 370.674,247.46 353.715,329.884"/>
<polygon fill="#6666ff" stroke="#6666ff" points="357.117,330.717 351.673,339.806 350.261,329.306 357.117,330.717"/>
</g>
<!-- Metamodel::ParametricRoleHOW&#45;&gt;Metamodel::PrivateMethodContainer -->
<g id="edge37" class="edge"><title>Metamodel::ParametricRoleHOW&#45;&gt;Metamodel::PrivateMethodContainer</title>
<path fill="none" stroke="#6666ff" d="M205.334,-333.561C202.335,-333.576 199.329,-333.591 196.32,-333.606"/>
<polygon fill="#6666ff" stroke="#6666ff" points="196.064,-330.107 186.081,-333.658 196.099,-337.107 196.064,-330.107"/>
</g>
<!-- Metamodel::ParametricRoleHOW&#45;&gt;Metamodel::RoleContainer -->
<g id="edge40" class="edge"><title>Metamodel::ParametricRoleHOW&#45;&gt;Metamodel::RoleContainer</title>
<path fill="none" stroke="#6666ff" d="M328.441,-314.937C269.514,-260.43 92.2021,-96.4203 24.1004,-33.4275"/>
<polygon fill="#6666ff" stroke="#6666ff" points="26.0697,-30.4814 16.352,-26.2604 21.3164,-35.6201 26.0697,-30.4814"/>
</g>
<!-- Metamodel::ParametricRoleHOW&#45;&gt;Metamodel::MultipleInheritance -->
<g id="edge41" class="edge"><title>Metamodel::ParametricRoleHOW&#45;&gt;Metamodel::MultipleInheritance</title>
<path fill="none" stroke="#6666ff" d="M341.919,-350.991C319.927,-418.883 242.412,-658.183 215.826,-740.256"/>
<polygon fill="#6666ff" stroke="#6666ff" points="212.455,-739.306 212.703,-749.898 219.114,-741.464 212.455,-739.306"/>
</g>
<!-- Metamodel::ParametricRoleHOW&#45;&gt;Metamodel::TypePretense -->
<g id="edge43" class="edge"><title>Metamodel::ParametricRoleHOW&#45;&gt;Metamodel::TypePretense</title>
<path fill="none" stroke="#6666ff" d="M393.618,-349.917C542.008,-405.214 1009.02,-579.245 1168.76,-638.773"/>
<polygon fill="#6666ff" stroke="#6666ff" points="1167.79,-642.147 1178.38,-642.36 1170.24,-635.588 1167.79,-642.147"/>
</g>
<!-- Metamodel::ParametricRoleHOW&#45;&gt;Metamodel::RolePunning -->
<g id="edge44" class="edge"><title>Metamodel::ParametricRoleHOW&#45;&gt;Metamodel::RolePunning</title>
<path fill="none" stroke="#6666ff" d="M360.44,-350.866C406.398,-416.388 564.754,-642.156 619.155,-719.715"/>
<polygon fill="#6666ff" stroke="#6666ff" points="616.362,-721.827 624.97,-728.004 622.093,-717.807 616.362,-721.827"/>
</g>
<!-- Metamodel::BaseType -->
<g id="node27" class="node"><title>Metamodel::BaseType</title>
<g id="a_node27"><a xlink:href="/type/Metamodel::BaseType" xlink:title="Metamodel::BaseType">
<ellipse fill="none" stroke="#6666ff" cx="638.009" cy="775.664" rx="99.3824" ry="18"/>
<text text-anchor="middle" x="638.009" y="779.364" font-family="FreeSans" font-size="14.00" fill="#6666ff">Metamodel::BaseType</text>
</a>
</g>
</g>
<!-- Metamodel::EnumHOW -->
<g id="node28" class="node"><title>Metamodel::EnumHOW</title>
<g id="a_node28"><a xlink:href="/type/Metamodel::EnumHOW" xlink:title="Metamodel::EnumHOW">
<ellipse fill="none" stroke="#000000" cx="213.737" cy="787.396" rx="104.782" ry="18"/>
<text text-anchor="middle" x="213.737" y="791.096" font-family="FreeSans" font-size="14.00" fill="#000000">Metamodel::EnumHOW</text>
</a>
</g>
</g>
<!-- Metamodel::EnumHOW&#45;&gt;Metamodel::MultiMethodContainer -->
<g id="edge49" class="edge"><title>Metamodel::EnumHOW&#45;&gt;Metamodel::MultiMethodContainer</title>
<path fill="none" stroke="#6666ff" d="M201.252,769.467C131.424,669.199 -210.566,178.118 -293.971,58.3535"/>
<polygon fill="#6666ff" stroke="#6666ff" points="-296.896,60.2781 -299.738,50.0717 -291.151,56.2777 -296.896,60.2781"/>
</g>
<!-- Metamodel::EnumHOW&#45;&gt;Any -->
<g id="edge5" class="edge"><title>Metamodel::EnumHOW&#45;&gt;Any</title>
<path fill="none" stroke="#000000" d="M230.565,769.338C306.104,688.277 613.856,358.033 698.106,267.625"/>
<polygon fill="#000000" stroke="#000000" points="695.732,265.038 705.111,260.108 700.854,269.81 695.732,265.038"/>
</g>
<!-- Metamodel::EnumHOW&#45;&gt;Metamodel::Naming -->
<g id="edge45" class="edge"><title>Metamodel::EnumHOW&#45;&gt;Metamodel::Naming</title>
<path fill="none" stroke="#6666ff" d="M213.958,769.217C214.951,687.478 218.955,357.949 218.955,357.949 218.955,357.949 292.83,121.778 318.539,39.5913"/>
<polygon fill="#6666ff" stroke="#6666ff" points="315.238,38.4205 321.564,29.9215 321.919,40.5103 315.238,38.4205"/>
</g>
<!-- Metamodel::EnumHOW&#45;&gt;Metamodel::Stashing -->
<g id="edge46" class="edge"><title>Metamodel::EnumHOW&#45;&gt;Metamodel::Stashing</title>
<path fill="none" stroke="#6666ff" d="M206.778,769.261C179.492,698.151 79.6799,438.037 46.8059,352.367"/>
<polygon fill="#6666ff" stroke="#6666ff" points="43.453,353.398 43.1381,342.808 49.9884,350.89 43.453,353.398"/>
</g>
<!-- Metamodel::EnumHOW&#45;&gt;Metamodel::AttributeContainer -->
<g id="edge47" class="edge"><title>Metamodel::EnumHOW&#45;&gt;Metamodel::AttributeContainer</title>
<path fill="none" stroke="#6666ff" d="M224.711,769.488C274.523,688.206 476.933,357.914 476.933,357.914 476.933,357.914 659.249,-73.2183 707.608,-187.575"/>
<polygon fill="#6666ff" stroke="#6666ff" points="704.494,-189.196 711.612,-197.043 710.941,-186.469 704.494,-189.196"/>
</g>
<!-- Metamodel::EnumHOW&#45;&gt;Metamodel::MethodContainer -->
<g id="edge48" class="edge"><title>Metamodel::EnumHOW&#45;&gt;Metamodel::MethodContainer</title>
<path fill="none" stroke="#6666ff" d="M219.418,769.217C240.422,702.004 313.781,467.252 339.196,385.924"/>
<polygon fill="#6666ff" stroke="#6666ff" points="335.863,384.856 342.187,376.355 342.544,386.944 335.863,384.856"/>
</g>
<!-- Metamodel::EnumHOW&#45;&gt;Metamodel::RoleContainer -->
<g id="edge50" class="edge"><title>Metamodel::EnumHOW&#45;&gt;Metamodel::RoleContainer</title>
<path fill="none" stroke="#6666ff" d="M210.51,769.257C195.29,683.709 131.418,324.687 131.418,324.687 131.418,324.687 40.5747,99.4791 8.2807,19.4194"/>
<polygon fill="#6666ff" stroke="#6666ff" points="4.96511,20.5558 4.47007,9.97252 11.4569,17.9371 4.96511,20.5558"/>
</g>
<!-- Metamodel::EnumHOW&#45;&gt;Metamodel::MROBasedMethodDispatch -->
<g id="edge52" class="edge"><title>Metamodel::EnumHOW&#45;&gt;Metamodel::MROBasedMethodDispatch</title>
<path fill="none" stroke="#6666ff" d="M111.199,783.715C3.88523,779.862 -149.164,774.368 -149.164,774.368 -149.164,774.368 -275.628,773.442 -389.853,772.605"/>
<polygon fill="#6666ff" stroke="#6666ff" points="-390.184,776.103 -400.158,772.53 -390.132,769.103 -390.184,776.103"/>
</g>
<!-- Metamodel::EnumHOW&#45;&gt;Metamodel::MROBasedTypeChecking -->
<g id="edge53" class="edge"><title>Metamodel::EnumHOW&#45;&gt;Metamodel::MROBasedTypeChecking</title>
<path fill="none" stroke="#6666ff" d="M193.105,769.659C115.969,703.35 -155.596,469.901 -244.941,393.096"/>
<polygon fill="#6666ff" stroke="#6666ff" points="-247.463,395.544 -252.765,386.371 -242.9,390.235 -247.463,395.544"/>
</g>
<!-- Metamodel::EnumHOW&#45;&gt;Metamodel::BUILDPLAN -->
<g id="edge54" class="edge"><title>Metamodel::EnumHOW&#45;&gt;Metamodel::BUILDPLAN</title>
<path fill="none" stroke="#6666ff" d="M184.849,769.936C55.4415,691.723 -470.955,373.572 -616.858,285.39"/>
<polygon fill="#6666ff" stroke="#6666ff" points="-618.766,288.326 -625.514,280.157 -615.146,282.335 -618.766,288.326"/>
</g>
<!-- Metamodel::EnumHOW&#45;&gt;Metamodel::BoolificationProtocol -->
<g id="edge55" class="edge"><title>Metamodel::EnumHOW&#45;&gt;Metamodel::BoolificationProtocol</title>
<path fill="none" stroke="#6666ff" d="M109.337,789.288C75.0073,789.91 36.162,790.614 -0.779435,791.284"/>
<polygon fill="#6666ff" stroke="#6666ff" points="-1.08117,794.79 -11.143,791.472 -1.20808,787.791 -1.08117,794.79"/>
</g>
<!-- Metamodel::EnumHOW&#45;&gt;Metamodel::BaseType -->
<g id="edge51" class="edge"><title>Metamodel::EnumHOW&#45;&gt;Metamodel::BaseType</title>
<path fill="none" stroke="#6666ff" d="M317.254,784.533C381.52,782.756 463.999,780.476 529.226,778.672"/>
<polygon fill="#6666ff" stroke="#6666ff" points="529.448,775.165 539.541,778.387 529.642,782.162 529.448,775.165"/>
</g>
</g>
</svg>
