<?xml version="1.0" encoding="UTF-8" standalone="no"?>
<!DOCTYPE svg PUBLIC "-//W3C//DTD SVG 1.1//EN"
 "http://www.w3.org/Graphics/SVG/1.1/DTD/svg11.dtd">
<!-- Generated by graphviz version 2.38.0 (20140413.2041)
 -->
<!-- Title: perl6&#45;type&#45;graph Pages: 1 -->
<svg width="1822pt" height="1101pt"
 viewBox="0.00 0.00 1822.15 1101.33" xmlns="http://www.w3.org/2000/svg" xmlns:xlink="http://www.w3.org/1999/xlink">
<g id="graph0" class="graph" transform="scale(1 1) rotate(0) translate(938.391 520.404)">
<title>perl6&#45;type&#45;graph</title>
<polygon fill="white" stroke="none" points="-938.391,580.923 -938.391,-520.404 883.757,-520.404 883.757,580.923 -938.391,580.923"/>
<!-- Metamodel::Stashing -->
<g id="node1" class="node"><title>Metamodel::Stashing</title>
<g id="a_node1"><a xlink:href="/type/Metamodel::Stashing" xlink:title="Metamodel::Stashing">
<ellipse fill="none" stroke="#6666ff" cx="66.4759" cy="328.663" rx="93.6835" ry="18"/>
<text text-anchor="middle" x="66.4759" y="332.363" font-family="FreeSans" font-size="14.00" fill="#6666ff">Metamodel::Stashing</text>
</a>
</g>
</g>
<!-- Mu -->
<g id="node2" class="node"><title>Mu</title>
<g id="a_node2"><a xlink:href="/type/Mu" xlink:title="Mu">
<ellipse fill="none" stroke="#000000" cx="760.653" cy="474.16" rx="27" ry="18"/>
<text text-anchor="middle" x="760.653" y="477.86" font-family="FreeSans" font-size="14.00" fill="#000000">Mu</text>
</a>
</g>
</g>
<!-- Any -->
<g id="node3" class="node"><title>Any</title>
<g id="a_node3"><a xlink:href="/type/Any" xlink:title="Any">
<ellipse fill="none" stroke="#000000" cx="297.312" cy="297.868" rx="27" ry="18"/>
<text text-anchor="middle" x="297.312" y="301.568" font-family="FreeSans" font-size="14.00" fill="#000000">Any</text>
</a>
</g>
</g>
<!-- Any&#45;&gt;Mu -->
<g id="edge1" class="edge"><title>Any&#45;&gt;Mu</title>
<path fill="none" stroke="#000000" d="M320.926,306.853C397.459,335.972 638.826,427.807 727.529,461.557"/>
<polygon fill="#000000" stroke="#000000" points="728.984,458.366 737.086,465.193 726.495,464.908 728.984,458.366"/>
</g>
<!-- Metamodel::Naming -->
<g id="node4" class="node"><title>Metamodel::Naming</title>
<g id="a_node4"><a xlink:href="/type/Metamodel::Naming" xlink:title="Metamodel::Naming">
<ellipse fill="none" stroke="#6666ff" cx="-115.987" cy="290.736" rx="90.1842" ry="18"/>
<text text-anchor="middle" x="-115.987" y="294.436" font-family="FreeSans" font-size="14.00" fill="#6666ff">Metamodel::Naming</text>
</a>
</g>
</g>
<!-- Metamodel::Documenting -->
<g id="node5" class="node"><title>Metamodel::Documenting</title>
<g id="a_node5"><a xlink:href="/type/Metamodel::Documenting" xlink:title="Metamodel::Documenting">
<ellipse fill="none" stroke="#6666ff" cx="156.612" cy="127.07" rx="111.28" ry="18"/>
<text text-anchor="middle" x="156.612" y="130.77" font-family="FreeSans" font-size="14.00" fill="#6666ff">Metamodel::Documenting</text>
</a>
</g>
</g>
<!-- Metamodel::Versioning -->
<g id="node6" class="node"><title>Metamodel::Versioning</title>
<g id="a_node6"><a xlink:href="/type/Metamodel::Versioning" xlink:title="Metamodel::Versioning">
<ellipse fill="none" stroke="#6666ff" cx="-535.231" cy="189.441" rx="100.983" ry="18"/>
<text text-anchor="middle" x="-535.231" y="193.141" font-family="FreeSans" font-size="14.00" fill="#6666ff">Metamodel::Versioning</text>
</a>
</g>
</g>
<!-- Metamodel::TypePretense -->
<g id="node7" class="node"><title>Metamodel::TypePretense</title>
<g id="a_node7"><a xlink:href="/type/Metamodel::TypePretense" xlink:title="Metamodel::TypePretense">
<ellipse fill="none" stroke="#6666ff" cx="-449.343" cy="549.811" rx="114.28" ry="18"/>
<text text-anchor="middle" x="-449.343" y="553.511" font-family="FreeSans" font-size="14.00" fill="#6666ff">Metamodel::TypePretense</text>
</a>
</g>
</g>
<!-- Metamodel::MethodDelegation -->
<g id="node8" class="node"><title>Metamodel::MethodDelegation</title>
<g id="a_node8"><a xlink:href="/type/Metamodel::MethodDelegation" xlink:title="Metamodel::MethodDelegation">
<ellipse fill="none" stroke="#6666ff" cx="146.983" cy="558.923" rx="131.077" ry="18"/>
<text text-anchor="middle" x="146.983" y="562.623" font-family="FreeSans" font-size="14.00" fill="#6666ff">Metamodel::MethodDelegation</text>
</a>
</g>
</g>
<!-- Metamodel::ModuleHOW -->
<g id="node9" class="node"><title>Metamodel::ModuleHOW</title>
<g id="a_node9"><a xlink:href="/type/Metamodel::ModuleHOW" xlink:title="Metamodel::ModuleHOW">
<ellipse fill="none" stroke="#000000" cx="-141.243" cy="554.172" rx="111.28" ry="18"/>
<text text-anchor="middle" x="-141.243" y="557.872" font-family="FreeSans" font-size="14.00" fill="#000000">Metamodel::ModuleHOW</text>
</a>
</g>
</g>
<!-- Metamodel::ModuleHOW&#45;&gt;Metamodel::Stashing -->
<g id="edge12" class="edge"><title>Metamodel::ModuleHOW&#45;&gt;Metamodel::Stashing</title>
<path fill="none" stroke="#6666ff" d="M-124.595,536.099C-87.7379,496.084 0.83442,399.926 43.1728,353.962"/>
<polygon fill="#6666ff" stroke="#6666ff" points="40.6882,351.493 50.0376,346.509 45.8369,356.235 40.6882,351.493"/>
</g>
<!-- Metamodel::ModuleHOW&#45;&gt;Any -->
<g id="edge2" class="edge"><title>Metamodel::ModuleHOW&#45;&gt;Any</title>
<path fill="none" stroke="#000000" d="M-111.444,536.757C-31.4133,489.985 187.55,362.016 267.544,315.265"/>
<polygon fill="#000000" stroke="#000000" points="266.192,312.001 276.592,309.977 269.724,318.045 266.192,312.001"/>
</g>
<!-- Metamodel::ModuleHOW&#45;&gt;Metamodel::Naming -->
<g id="edge9" class="edge"><title>Metamodel::ModuleHOW&#45;&gt;Metamodel::Naming</title>
<path fill="none" stroke="#6666ff" d="M-139.507,536.065C-135.182,490.947 -123.898,373.255 -118.692,318.946"/>
<polygon fill="#6666ff" stroke="#6666ff" points="-122.174,318.59 -117.735,308.969 -115.206,319.258 -122.174,318.59"/>
</g>
<!-- Metamodel::ModuleHOW&#45;&gt;Metamodel::Documenting -->
<g id="edge10" class="edge"><title>Metamodel::ModuleHOW&#45;&gt;Metamodel::Documenting</title>
<path fill="none" stroke="#6666ff" d="M-132.224,536.102C-105.522,482.599 -28.7156,328.702 -28.7156,328.702 -28.7156,328.702 83.4995,206.615 133.292,152.441"/>
<polygon fill="#6666ff" stroke="#6666ff" points="130.821,149.958 140.165,144.964 135.975,154.695 130.821,149.958"/>
</g>
<!-- Metamodel::ModuleHOW&#45;&gt;Metamodel::Versioning -->
<g id="edge11" class="edge"><title>Metamodel::ModuleHOW&#45;&gt;Metamodel::Versioning</title>
<path fill="none" stroke="#6666ff" d="M-168.64,536.634C-251.553,483.558 -494.133,328.271 -494.133,328.271 -494.133,328.271 -515.027,257.692 -527.019,217.181"/>
<polygon fill="#6666ff" stroke="#6666ff" points="-530.375,218.173 -529.858,207.59 -523.663,216.186 -530.375,218.173"/>
</g>
<!-- Metamodel::ModuleHOW&#45;&gt;Metamodel::TypePretense -->
<g id="edge13" class="edge"><title>Metamodel::ModuleHOW&#45;&gt;Metamodel::TypePretense</title>
<path fill="none" stroke="#6666ff" d="M-252.039,552.604C-275.739,552.268 -300.925,551.912 -325.093,551.57"/>
<polygon fill="#6666ff" stroke="#6666ff" points="-325.432,555.065 -335.382,551.424 -325.333,548.066 -325.432,555.065"/>
</g>
<!-- Metamodel::ModuleHOW&#45;&gt;Metamodel::MethodDelegation -->
<g id="edge14" class="edge"><title>Metamodel::ModuleHOW&#45;&gt;Metamodel::MethodDelegation</title>
<path fill="none" stroke="#6666ff" d="M-30.6314,555.995C-18.6009,556.194 -6.24071,556.397 6.08809,556.6"/>
<polygon fill="#6666ff" stroke="#6666ff" points="6.48803,553.106 16.429,556.771 6.3726,560.106 6.48803,553.106"/>
</g>
<!-- Metamodel::PackageHOW -->
<g id="node10" class="node"><title>Metamodel::PackageHOW</title>
<g id="a_node10"><a xlink:href="/type/Metamodel::PackageHOW" xlink:title="Metamodel::PackageHOW">
<ellipse fill="none" stroke="#000000" cx="439.671" cy="540.879" rx="116.18" ry="18"/>
<text text-anchor="middle" x="439.671" y="544.579" font-family="FreeSans" font-size="14.00" fill="#000000">Metamodel::PackageHOW</text>
</a>
</g>
</g>
<!-- Metamodel::PackageHOW&#45;&gt;Metamodel::Stashing -->
<g id="edge17" class="edge"><title>Metamodel::PackageHOW&#45;&gt;Metamodel::Stashing</title>
<path fill="none" stroke="#6666ff" d="M408.813,523.332C341.238,484.906 180.27,393.371 105.671,350.951"/>
<polygon fill="#6666ff" stroke="#6666ff" points="103.55,353.771 96.5875,345.785 107.011,347.686 103.55,353.771"/>
</g>
<!-- Metamodel::PackageHOW&#45;&gt;Any -->
<g id="edge3" class="edge"><title>Metamodel::PackageHOW&#45;&gt;Any</title>
<path fill="none" stroke="#000000" d="M428.971,522.614C403.882,479.787 341.211,372.806 312.325,323.496"/>
<polygon fill="#000000" stroke="#000000" points="309.215,325.111 307.18,314.714 315.255,321.573 309.215,325.111"/>
</g>
<!-- Metamodel::PackageHOW&#45;&gt;Metamodel::Naming -->
<g id="edge15" class="edge"><title>Metamodel::PackageHOW&#45;&gt;Metamodel::Naming</title>
<path fill="none" stroke="#6666ff" d="M401.478,523.686C302.347,479.06 37.1131,359.658 -70.0874,311.399"/>
<polygon fill="#6666ff" stroke="#6666ff" points="-71.671,314.524 -79.3529,307.228 -68.7975,308.141 -71.671,314.524"/>
</g>
<!-- Metamodel::PackageHOW&#45;&gt;Metamodel::Documenting -->
<g id="edge16" class="edge"><title>Metamodel::PackageHOW&#45;&gt;Metamodel::Documenting</title>
<path fill="none" stroke="#6666ff" d="M426.918,522.901C388.604,468.89 277.145,311.766 277.145,311.766 277.145,311.766 207.35,204.818 173.982,153.687"/>
<polygon fill="#6666ff" stroke="#6666ff" points="170.922,155.403 168.388,145.116 176.785,151.578 170.922,155.403"/>
</g>
<!-- Metamodel::PackageHOW&#45;&gt;Metamodel::TypePretense -->
<g id="edge18" class="edge"><title>Metamodel::PackageHOW&#45;&gt;Metamodel::TypePretense</title>
<path fill="none" stroke="#6666ff" d="M323.395,539.618C153.701,537.778 -141.82,534.572 -141.82,534.572 -141.82,534.572 -243.458,539.609 -329.871,543.891"/>
<polygon fill="#6666ff" stroke="#6666ff" points="-329.895,547.396 -340.056,544.396 -330.242,540.405 -329.895,547.396"/>
</g>
<!-- Metamodel::PackageHOW&#45;&gt;Metamodel::MethodDelegation -->
<g id="edge19" class="edge"><title>Metamodel::PackageHOW&#45;&gt;Metamodel::MethodDelegation</title>
<path fill="none" stroke="#6666ff" d="M331.516,547.547C313.792,548.639 295.264,549.782 277.075,550.903"/>
<polygon fill="#6666ff" stroke="#6666ff" points="277.208,554.401 267.012,551.523 276.778,547.415 277.208,554.401"/>
</g>
<!-- Metamodel::AttributeContainer -->
<g id="node11" class="node"><title>Metamodel::AttributeContainer</title>
<g id="a_node11"><a xlink:href="/type/Metamodel::AttributeContainer" xlink:title="Metamodel::AttributeContainer">
<ellipse fill="none" stroke="#6666ff" cx="355.169" cy="22.8015" rx="129.977" ry="18"/>
<text text-anchor="middle" x="355.169" y="26.5015" font-family="FreeSans" font-size="14.00" fill="#6666ff">Metamodel::AttributeContainer</text>
</a>
</g>
</g>
<!-- Metamodel::Finalization -->
<g id="node12" class="node"><title>Metamodel::Finalization</title>
<g id="a_node12"><a xlink:href="/type/Metamodel::Finalization" xlink:title="Metamodel::Finalization">
<ellipse fill="none" stroke="#6666ff" cx="-431.438" cy="-482.329" rx="103.982" ry="18"/>
<text text-anchor="middle" x="-431.438" y="-478.629" font-family="FreeSans" font-size="14.00" fill="#6666ff">Metamodel::Finalization</text>
</a>
</g>
</g>
<!-- Metamodel::MethodContainer -->
<g id="node13" class="node"><title>Metamodel::MethodContainer</title>
<g id="a_node13"><a xlink:href="/type/Metamodel::MethodContainer" xlink:title="Metamodel::MethodContainer">
<ellipse fill="none" stroke="#6666ff" cx="13.5002" cy="-274.674" rx="127.277" ry="18"/>
<text text-anchor="middle" x="13.5002" y="-270.974" font-family="FreeSans" font-size="14.00" fill="#6666ff">Metamodel::MethodContainer</text>
</a>
</g>
</g>
<!-- Metamodel::PrivateMethodContainer -->
<g id="node14" class="node"><title>Metamodel::PrivateMethodContainer</title>
<g id="a_node14"><a xlink:href="/type/Metamodel::PrivateMethodContainer" xlink:title="Metamodel::PrivateMethodContainer">
<ellipse fill="none" stroke="#6666ff" cx="-779.704" cy="21.4918" rx="154.873" ry="18"/>
<text text-anchor="middle" x="-779.704" y="25.1918" font-family="FreeSans" font-size="14.00" fill="#6666ff">Metamodel::PrivateMethodContainer</text>
</a>
</g>
</g>
<!-- Metamodel::MultiMethodContainer -->
<g id="node15" class="node"><title>Metamodel::MultiMethodContainer</title>
<g id="a_node15"><a xlink:href="/type/Metamodel::MultiMethodContainer" xlink:title="Metamodel::MultiMethodContainer">
<ellipse fill="none" stroke="#6666ff" cx="-258.159" cy="-261.73" rx="146.474" ry="18"/>
<text text-anchor="middle" x="-258.159" y="-258.03" font-family="FreeSans" font-size="14.00" fill="#6666ff">Metamodel::MultiMethodContainer</text>
</a>
</g>
</g>
<!-- Metamodel::RoleContainer -->
<g id="node16" class="node"><title>Metamodel::RoleContainer</title>
<g id="a_node16"><a xlink:href="/type/Metamodel::RoleContainer" xlink:title="Metamodel::RoleContainer">
<ellipse fill="none" stroke="#6666ff" cx="120.271" cy="-77.3881" rx="115.88" ry="18"/>
<text text-anchor="middle" x="120.271" y="-73.6881" font-family="FreeSans" font-size="14.00" fill="#6666ff">Metamodel::RoleContainer</text>
</a>
</g>
</g>
<!-- Metamodel::MultipleInheritance -->
<g id="node17" class="node"><title>Metamodel::MultipleInheritance</title>
<g id="a_node17"><a xlink:href="/type/Metamodel::MultipleInheritance" xlink:title="Metamodel::MultipleInheritance">
<ellipse fill="none" stroke="#6666ff" cx="-537.175" cy="-172.325" rx="133.776" ry="18"/>
<text text-anchor="middle" x="-537.175" y="-168.625" font-family="FreeSans" font-size="14.00" fill="#6666ff">Metamodel::MultipleInheritance</text>
</a>
</g>
</g>
<!-- Metamodel::DefaultParent -->
<g id="node18" class="node"><title>Metamodel::DefaultParent</title>
<g id="a_node18"><a xlink:href="/type/Metamodel::DefaultParent" xlink:title="Metamodel::DefaultParent">
<ellipse fill="none" stroke="#6666ff" cx="153.484" cy="-494.591" rx="113.18" ry="18"/>
<text text-anchor="middle" x="153.484" y="-490.891" font-family="FreeSans" font-size="14.00" fill="#6666ff">Metamodel::DefaultParent</text>
</a>
</g>
</g>
<!-- Metamodel::C3MRO -->
<g id="node19" class="node"><title>Metamodel::C3MRO</title>
<g id="a_node19"><a xlink:href="/type/Metamodel::C3MRO" xlink:title="Metamodel::C3MRO">
<ellipse fill="none" stroke="#6666ff" cx="-132.228" cy="-498.404" rx="92.0841" ry="18"/>
<text text-anchor="middle" x="-132.228" y="-494.704" font-family="FreeSans" font-size="14.00" fill="#6666ff">Metamodel::C3MRO</text>
</a>
</g>
</g>
<!-- Metamodel::MROBasedMethodDispatch -->
<g id="node20" class="node"><title>Metamodel::MROBasedMethodDispatch</title>
<g id="a_node20"><a xlink:href="/type/Metamodel::MROBasedMethodDispatch" xlink:title="Metamodel::MROBasedMethodDispatch">
<ellipse fill="none" stroke="#6666ff" cx="536.968" cy="-157.022" rx="169.77" ry="18"/>
<text text-anchor="middle" x="536.968" y="-153.322" font-family="FreeSans" font-size="14.00" fill="#6666ff">Metamodel::MROBasedMethodDispatch</text>
</a>
</g>
</g>
<!-- Metamodel::MROBasedTypeChecking -->
<g id="node21" class="node"><title>Metamodel::MROBasedTypeChecking</title>
<g id="a_node21"><a xlink:href="/type/Metamodel::MROBasedTypeChecking" xlink:title="Metamodel::MROBasedTypeChecking">
<ellipse fill="none" stroke="#6666ff" cx="277.373" cy="-237.887" rx="163.271" ry="18"/>
<text text-anchor="middle" x="277.373" y="-234.187" font-family="FreeSans" font-size="14.00" fill="#6666ff">Metamodel::MROBasedTypeChecking</text>
</a>
</g>
</g>
<!-- Metamodel::Trusting -->
<g id="node22" class="node"><title>Metamodel::Trusting</title>
<g id="a_node22"><a xlink:href="/type/Metamodel::Trusting" xlink:title="Metamodel::Trusting">
<ellipse fill="none" stroke="#6666ff" cx="-758.26" cy="-417.743" rx="91.784" ry="18"/>
<text text-anchor="middle" x="-758.26" y="-414.043" font-family="FreeSans" font-size="14.00" fill="#6666ff">Metamodel::Trusting</text>
</a>
</g>
</g>
<!-- Metamodel::BUILDPLAN -->
<g id="node23" class="node"><title>Metamodel::BUILDPLAN</title>
<g id="a_node23"><a xlink:href="/type/Metamodel::BUILDPLAN" xlink:title="Metamodel::BUILDPLAN">
<ellipse fill="none" stroke="#6666ff" cx="761.466" cy="-413.03" rx="109.681" ry="18"/>
<text text-anchor="middle" x="761.466" y="-409.33" font-family="FreeSans" font-size="14.00" fill="#6666ff">Metamodel::BUILDPLAN</text>
</a>
</g>
</g>
<!-- Metamodel::Mixins -->
<g id="node24" class="node"><title>Metamodel::Mixins</title>
<g id="a_node24"><a xlink:href="/type/Metamodel::Mixins" xlink:title="Metamodel::Mixins">
<ellipse fill="none" stroke="#6666ff" cx="441.932" cy="-478.098" rx="85.2851" ry="18"/>
<text text-anchor="middle" x="441.932" y="-474.398" font-family="FreeSans" font-size="14.00" fill="#6666ff">Metamodel::Mixins</text>
</a>
</g>
</g>
<!-- Metamodel::BoolificationProtocol -->
<g id="node25" class="node"><title>Metamodel::BoolificationProtocol</title>
<g id="a_node25"><a xlink:href="/type/Metamodel::BoolificationProtocol" xlink:title="Metamodel::BoolificationProtocol">
<ellipse fill="none" stroke="#6666ff" cx="-355.959" cy="-33.937" rx="139.175" ry="18"/>
<text text-anchor="middle" x="-355.959" y="-30.237" font-family="FreeSans" font-size="14.00" fill="#6666ff">Metamodel::BoolificationProtocol</text>
</a>
</g>
</g>
<!-- Metamodel::ClassHOW -->
<g id="node26" class="node"><title>Metamodel::ClassHOW</title>
<g id="a_node26"><a xlink:href="/type/Metamodel::ClassHOW" xlink:title="Metamodel::ClassHOW">
<ellipse fill="none" stroke="#000000" cx="-114.029" cy="-91.0208" rx="103.982" ry="18"/>
<text text-anchor="middle" x="-114.029" y="-87.3208" font-family="FreeSans" font-size="14.00" fill="#000000">Metamodel::ClassHOW</text>
</a>
</g>
</g>
<!-- Metamodel::ClassHOW&#45;&gt;Metamodel::Stashing -->
<g id="edge23" class="edge"><title>Metamodel::ClassHOW&#45;&gt;Metamodel::Stashing</title>
<path fill="none" stroke="#6666ff" d="M-117.015,-72.7592C-124.604,-26.355 -144.031,92.4399 -144.031,92.4399 -144.031,92.4399 -104.336,121.417 -104.336,121.417 -104.336,121.417 -0.839666,246.989 45.0296,302.642"/>
<polygon fill="#6666ff" stroke="#6666ff" points="47.957,300.691 51.6163,310.633 42.5553,305.143 47.957,300.691"/>
</g>
<!-- Metamodel::ClassHOW&#45;&gt;Any -->
<g id="edge4" class="edge"><title>Metamodel::ClassHOW&#45;&gt;Any</title>
<path fill="none" stroke="#000000" d="M-95.6915,-73.1051C-48.4668,-26.9655 73.6495,92.345 73.6495,92.345 73.6495,92.345 43.8747,127.219 43.8747,127.219 43.8747,127.219 203.914,234.98 269.641,279.236"/>
<polygon fill="#000000" stroke="#000000" points="271.923,276.553 278.263,285.042 268.013,282.36 271.923,276.553"/>
</g>
<!-- Metamodel::ClassHOW&#45;&gt;Metamodel::Naming -->
<g id="edge20" class="edge"><title>Metamodel::ClassHOW&#45;&gt;Metamodel::Naming</title>
<path fill="none" stroke="#6666ff" d="M-117.015,-72.7592C-124.604,-26.355 -144.031,92.4399 -144.031,92.4399 -144.031,92.4399 -104.336,121.417 -104.336,121.417 -104.336,121.417 -110.731,214.348 -114.045,262.515"/>
<polygon fill="#6666ff" stroke="#6666ff" points="-110.562,262.88 -114.74,272.616 -117.546,262.399 -110.562,262.88"/>
</g>
<!-- Metamodel::ClassHOW&#45;&gt;Metamodel::Documenting -->
<g id="edge21" class="edge"><title>Metamodel::ClassHOW&#45;&gt;Metamodel::Documenting</title>
<path fill="none" stroke="#6666ff" d="M-91.8809,-73.1735C-43.4889,-34.1776 71.7273,58.6676 126.584,102.873"/>
<polygon fill="#6666ff" stroke="#6666ff" points="128.947,100.282 134.537,109.282 124.555,105.733 128.947,100.282"/>
</g>
<!-- Metamodel::ClassHOW&#45;&gt;Metamodel::Versioning -->
<g id="edge22" class="edge"><title>Metamodel::ClassHOW&#45;&gt;Metamodel::Versioning</title>
<path fill="none" stroke="#6666ff" d="M-140.377,-73.4767C-213.36,-24.8804 -418.163,111.49 -500.403,166.25"/>
<polygon fill="#6666ff" stroke="#6666ff" points="-498.629,169.274 -508.893,171.903 -502.509,163.448 -498.629,169.274"/>
</g>
<!-- Metamodel::ClassHOW&#45;&gt;Metamodel::AttributeContainer -->
<g id="edge24" class="edge"><title>Metamodel::ClassHOW&#45;&gt;Metamodel::AttributeContainer</title>
<path fill="none" stroke="#6666ff" d="M-53.1701,-76.2572C32.4774,-55.4801 188.412,-17.6519 280.817,4.76442"/>
<polygon fill="#6666ff" stroke="#6666ff" points="281.765,1.39289 290.658,7.15183 280.115,8.19559 281.765,1.39289"/>
</g>
<!-- Metamodel::ClassHOW&#45;&gt;Metamodel::Finalization -->
<g id="edge25" class="edge"><title>Metamodel::ClassHOW&#45;&gt;Metamodel::Finalization</title>
<path fill="none" stroke="#6666ff" d="M-143.631,-108.327C-217.857,-151.722 -405.996,-261.714 -405.996,-261.714 -405.996,-261.714 -421.314,-394.537 -428.178,-454.062"/>
<polygon fill="#6666ff" stroke="#6666ff" points="-431.687,-453.94 -429.356,-464.275 -424.733,-454.742 -431.687,-453.94"/>
</g>
<!-- Metamodel::ClassHOW&#45;&gt;Metamodel::MethodContainer -->
<g id="edge26" class="edge"><title>Metamodel::ClassHOW&#45;&gt;Metamodel::MethodContainer</title>
<path fill="none" stroke="#6666ff" d="M-101.568,-108.965C-78.9973,-141.469 -31.2493,-210.23 -4.90888,-248.163"/>
<polygon fill="#6666ff" stroke="#6666ff" points="-7.58922,-250.44 0.989399,-256.657 -1.8395,-246.447 -7.58922,-250.44"/>
</g>
<!-- Metamodel::ClassHOW&#45;&gt;Metamodel::PrivateMethodContainer -->
<g id="edge27" class="edge"><title>Metamodel::ClassHOW&#45;&gt;Metamodel::PrivateMethodContainer</title>
<path fill="none" stroke="#6666ff" d="M-198.204,-80.3606C-299.558,-67.525 -456.334,-47.6705 -456.334,-47.6705 -456.334,-47.6705 -599.719,-17.0035 -695.532,3.48898"/>
<polygon fill="#6666ff" stroke="#6666ff" points="-695.006,6.95561 -705.517,5.62459 -696.47,0.11042 -695.006,6.95561"/>
</g>
<!-- Metamodel::ClassHOW&#45;&gt;Metamodel::MultiMethodContainer -->
<g id="edge28" class="edge"><title>Metamodel::ClassHOW&#45;&gt;Metamodel::MultiMethodContainer</title>
<path fill="none" stroke="#6666ff" d="M-129.181,-108.967C-154.808,-139.32 -206.797,-200.897 -236.345,-235.893"/>
<polygon fill="#6666ff" stroke="#6666ff" points="-239.217,-233.869 -242.994,-243.768 -233.868,-238.385 -239.217,-233.869"/>
</g>
<!-- Metamodel::ClassHOW&#45;&gt;Metamodel::RoleContainer -->
<g id="edge29" class="edge"><title>Metamodel::ClassHOW&#45;&gt;Metamodel::RoleContainer</title>
<path fill="none" stroke="#6666ff" d="M-15.3436,-85.2788C-9.71575,-84.9514 -4.02959,-84.6205 1.66117,-84.2894"/>
<polygon fill="#6666ff" stroke="#6666ff" points="2.11811,-87.7688 11.8979,-83.6938 1.71144,-80.7807 2.11811,-87.7688"/>
</g>
<!-- Metamodel::ClassHOW&#45;&gt;Metamodel::MultipleInheritance -->
<g id="edge30" class="edge"><title>Metamodel::ClassHOW&#45;&gt;Metamodel::MultipleInheritance</title>
<path fill="none" stroke="#6666ff" d="M-183.903,-104.447C-256.95,-118.482 -371.706,-140.531 -450.484,-155.668"/>
<polygon fill="#6666ff" stroke="#6666ff" points="-451.229,-152.247 -460.389,-157.571 -449.908,-159.121 -451.229,-152.247"/>
</g>
<!-- Metamodel::ClassHOW&#45;&gt;Metamodel::DefaultParent -->
<g id="edge31" class="edge"><title>Metamodel::ClassHOW&#45;&gt;Metamodel::DefaultParent</title>
<path fill="none" stroke="#6666ff" d="M-113.632,-109.291C-112.676,-153.334 -110.322,-261.746 -110.322,-261.746 -110.322,-261.746 -115.488,-274.636 -115.488,-274.636 -115.488,-274.636 53.2381,-412.613 123.421,-470.006"/>
<polygon fill="#6666ff" stroke="#6666ff" points="121.516,-472.97 131.473,-476.591 125.947,-467.551 121.516,-472.97"/>
</g>
<!-- Metamodel::ClassHOW&#45;&gt;Metamodel::C3MRO -->
<g id="edge32" class="edge"><title>Metamodel::ClassHOW&#45;&gt;Metamodel::C3MRO</title>
<path fill="none" stroke="#6666ff" d="M-113.632,-109.291C-112.676,-153.334 -110.322,-261.746 -110.322,-261.746 -110.322,-261.746 -115.488,-274.636 -115.488,-274.636 -115.488,-274.636 -125.609,-409.917 -130.111,-470.108"/>
<polygon fill="#6666ff" stroke="#6666ff" points="-133.603,-469.859 -130.858,-480.092 -126.622,-470.381 -133.603,-469.859"/>
</g>
<!-- Metamodel::ClassHOW&#45;&gt;Metamodel::MROBasedMethodDispatch -->
<g id="edge33" class="edge"><title>Metamodel::ClassHOW&#45;&gt;Metamodel::MROBasedMethodDispatch</title>
<path fill="none" stroke="#6666ff" d="M-24.1937,-100.129C86.6866,-111.37 276.204,-130.585 403.967,-143.538"/>
<polygon fill="#6666ff" stroke="#6666ff" points="403.906,-147.05 414.208,-144.576 404.612,-140.085 403.906,-147.05"/>
</g>
<!-- Metamodel::ClassHOW&#45;&gt;Metamodel::MROBasedTypeChecking -->
<g id="edge34" class="edge"><title>Metamodel::ClassHOW&#45;&gt;Metamodel::MROBasedTypeChecking</title>
<path fill="none" stroke="#6666ff" d="M-70.2691,-107.441C1.18158,-134.251 142.799,-187.39 221.442,-216.899"/>
<polygon fill="#6666ff" stroke="#6666ff" points="220.584,-220.316 231.176,-220.552 223.043,-213.762 220.584,-220.316"/>
</g>
<!-- Metamodel::ClassHOW&#45;&gt;Metamodel::Trusting -->
<g id="edge35" class="edge"><title>Metamodel::ClassHOW&#45;&gt;Metamodel::Trusting</title>
<path fill="none" stroke="#6666ff" d="M-147.758,-108.127C-256.149,-163.097 -595.478,-335.189 -715.596,-396.107"/>
<polygon fill="#6666ff" stroke="#6666ff" points="-717.528,-393.162 -724.864,-400.807 -714.362,-399.405 -717.528,-393.162"/>
</g>
<!-- Metamodel::ClassHOW&#45;&gt;Metamodel::BUILDPLAN -->
<g id="edge36" class="edge"><title>Metamodel::ClassHOW&#45;&gt;Metamodel::BUILDPLAN</title>
<path fill="none" stroke="#6666ff" d="M-56.2172,-106.154C77.0027,-141.027 394.252,-224.074 394.252,-224.074 394.252,-224.074 442.108,-237.953 442.108,-237.953 442.108,-237.953 635.083,-343.745 721.018,-390.856"/>
<polygon fill="#6666ff" stroke="#6666ff" points="719.52,-394.026 729.971,-395.764 722.885,-387.888 719.52,-394.026"/>
</g>
<!-- Metamodel::ClassHOW&#45;&gt;Metamodel::Mixins -->
<g id="edge37" class="edge"><title>Metamodel::ClassHOW&#45;&gt;Metamodel::Mixins</title>
<path fill="none" stroke="#6666ff" d="M-88.6954,-108.659C1.50579,-171.46 307.063,-384.198 408.726,-454.979"/>
<polygon fill="#6666ff" stroke="#6666ff" points="406.879,-457.958 417.085,-460.799 410.878,-452.213 406.879,-457.958"/>
</g>
<!-- Metamodel::ClassHOW&#45;&gt;Metamodel::BoolificationProtocol -->
<g id="edge38" class="edge"><title>Metamodel::ClassHOW&#45;&gt;Metamodel::BoolificationProtocol</title>
<path fill="none" stroke="#6666ff" d="M-175.704,-76.4685C-207.041,-69.0744 -245.431,-60.0162 -278.717,-52.1622"/>
<polygon fill="#6666ff" stroke="#6666ff" points="-278.334,-48.6567 -288.87,-49.7666 -279.941,-55.4696 -278.334,-48.6567"/>
</g>
<!-- Metamodel::NativeHOW -->
<g id="node27" class="node"><title>Metamodel::NativeHOW</title>
<g id="a_node27"><a xlink:href="/type/Metamodel::NativeHOW" xlink:title="Metamodel::NativeHOW">
<ellipse fill="none" stroke="#000000" cx="-35.1907" cy="92.3925" rx="107.482" ry="18"/>
<text text-anchor="middle" x="-35.1907" y="96.0925" font-family="FreeSans" font-size="14.00" fill="#000000">Metamodel::NativeHOW</text>
</a>
</g>
</g>
<!-- Metamodel::NativeHOW&#45;&gt;Metamodel::Stashing -->
<g id="edge42" class="edge"><title>Metamodel::NativeHOW&#45;&gt;Metamodel::Stashing</title>
<path fill="none" stroke="#6666ff" d="M-27.3819,110.54C-9.67732,151.685 33.6039,252.269 54.6278,301.128"/>
<polygon fill="#6666ff" stroke="#6666ff" points="57.9029,299.884 58.6405,310.453 51.4729,302.651 57.9029,299.884"/>
</g>
<!-- Metamodel::NativeHOW&#45;&gt;Any -->
<g id="edge5" class="edge"><title>Metamodel::NativeHOW&#45;&gt;Any</title>
<path fill="none" stroke="#000000" d="M-6.84173,109.911C55.8767,148.669 205.801,241.318 268.732,280.207"/>
<polygon fill="#000000" stroke="#000000" points="270.698,277.308 277.365,285.542 267.019,283.262 270.698,277.308"/>
</g>
<!-- Metamodel::NativeHOW&#45;&gt;Metamodel::Naming -->
<g id="edge39" class="edge"><title>Metamodel::NativeHOW&#45;&gt;Metamodel::Naming</title>
<path fill="none" stroke="#6666ff" d="M-42.647,110.697C-56.9028,145.692 -88.0924,222.258 -104.836,263.361"/>
<polygon fill="#6666ff" stroke="#6666ff" points="-101.652,264.822 -108.666,272.762 -108.135,262.181 -101.652,264.822"/>
</g>
<!-- Metamodel::NativeHOW&#45;&gt;Metamodel::Documenting -->
<g id="edge40" class="edge"><title>Metamodel::NativeHOW&#45;&gt;Metamodel::Documenting</title>
<path fill="none" stroke="#6666ff" d="M37.8687,105.602C49.0863,107.63 60.7466,109.738 72.186,111.806"/>
<polygon fill="#6666ff" stroke="#6666ff" points="72.9474,108.387 82.1652,113.61 71.702,115.275 72.9474,108.387"/>
</g>
<!-- Metamodel::NativeHOW&#45;&gt;Metamodel::Versioning -->
<g id="edge41" class="edge"><title>Metamodel::NativeHOW&#45;&gt;Metamodel::Versioning</title>
<path fill="none" stroke="#6666ff" d="M-75.0119,109.108C-90.3823,115.56 -104.336,121.417 -104.336,121.417 -104.336,121.417 -145.562,135.328 -145.562,135.328 -145.562,135.328 -330.124,160.958 -445.212,176.94"/>
<polygon fill="#6666ff" stroke="#6666ff" points="-445.049,180.451 -455.435,178.36 -446.012,173.517 -445.049,180.451"/>
</g>
<!-- Metamodel::NativeHOW&#45;&gt;Metamodel::MultipleInheritance -->
<g id="edge43" class="edge"><title>Metamodel::NativeHOW&#45;&gt;Metamodel::MultipleInheritance</title>
<path fill="none" stroke="#6666ff" d="M-60.2309,74.8023C-109.714,40.0418 -215.277,-34.114 -215.277,-34.114 -215.277,-34.114 -397.631,-112.41 -487.838,-151.142"/>
<polygon fill="#6666ff" stroke="#6666ff" points="-489.249,-147.938 -497.057,-155.1 -486.487,-154.371 -489.249,-147.938"/>
</g>
<!-- Metamodel::NativeHOW&#45;&gt;Metamodel::C3MRO -->
<g id="edge44" class="edge"><title>Metamodel::NativeHOW&#45;&gt;Metamodel::C3MRO</title>
<path fill="none" stroke="#6666ff" d="M-32.5278,74.1284C-25.7611,27.7179 -8.43848,-91.093 -8.43848,-91.093 -8.43848,-91.093 -115.488,-274.636 -115.488,-274.636 -115.488,-274.636 -125.609,-409.917 -130.111,-470.108"/>
<polygon fill="#6666ff" stroke="#6666ff" points="-133.603,-469.859 -130.858,-480.092 -126.622,-470.381 -133.603,-469.859"/>
</g>
<!-- Metamodel::NativeHOW&#45;&gt;Metamodel::MROBasedMethodDispatch -->
<g id="edge45" class="edge"><title>Metamodel::NativeHOW&#45;&gt;Metamodel::MROBasedMethodDispatch</title>
<path fill="none" stroke="#6666ff" d="M3.68629,75.4453C104.622,31.4456 374.946,-86.3939 487.118,-135.292"/>
<polygon fill="#6666ff" stroke="#6666ff" points="485.95,-138.6 496.515,-139.388 488.747,-132.184 485.95,-138.6"/>
</g>
<!-- Metamodel::NativeHOW&#45;&gt;Metamodel::MROBasedTypeChecking -->
<g id="edge46" class="edge"><title>Metamodel::NativeHOW&#45;&gt;Metamodel::MROBasedTypeChecking</title>
<path fill="none" stroke="#6666ff" d="M-7.28351,75.0094C62.2311,31.7096 237.559,-77.4998 237.559,-77.4998 237.559,-77.4998 259,-163.874 270.414,-209.851"/>
<polygon fill="#6666ff" stroke="#6666ff" points="267.077,-210.938 272.883,-219.8 273.871,-209.251 267.077,-210.938"/>
</g>
<!-- Metamodel::RolePunning -->
<g id="node28" class="node"><title>Metamodel::RolePunning</title>
<g id="a_node28"><a xlink:href="/type/Metamodel::RolePunning" xlink:title="Metamodel::RolePunning">
<ellipse fill="none" stroke="#6666ff" cx="-760.674" cy="465.703" rx="109.681" ry="18"/>
<text text-anchor="middle" x="-760.674" y="469.403" font-family="FreeSans" font-size="14.00" fill="#6666ff">Metamodel::RolePunning</text>
</a>
</g>
</g>
<!-- Metamodel::ParametricRoleHOW -->
<g id="node29" class="node"><title>Metamodel::ParametricRoleHOW</title>
<g id="a_node29"><a xlink:href="/type/Metamodel::ParametricRoleHOW" xlink:title="Metamodel::ParametricRoleHOW">
<ellipse fill="none" stroke="#000000" cx="-248.267" cy="121.596" rx="142.175" ry="18"/>
<text text-anchor="middle" x="-248.267" y="125.296" font-family="FreeSans" font-size="14.00" fill="#000000">Metamodel::ParametricRoleHOW</text>
</a>
</g>
</g>
<!-- Metamodel::ParametricRoleHOW&#45;&gt;Metamodel::Stashing -->
<g id="edge56" class="edge"><title>Metamodel::ParametricRoleHOW&#45;&gt;Metamodel::Stashing</title>
<path fill="none" stroke="#6666ff" d="M-221.16,139.43C-164.052,177.001 -31.4378,264.246 31.7685,305.829"/>
<polygon fill="#6666ff" stroke="#6666ff" points="33.7809,302.963 40.2114,311.383 29.9336,308.811 33.7809,302.963"/>
</g>
<!-- Metamodel::ParametricRoleHOW&#45;&gt;Any -->
<g id="edge6" class="edge"><title>Metamodel::ParametricRoleHOW&#45;&gt;Any</title>
<path fill="none" stroke="#000000" d="M-195.955,138.498C-85.1574,174.296 170.578,256.922 263.11,286.818"/>
<polygon fill="#000000" stroke="#000000" points="264.373,283.548 272.812,289.953 262.22,290.209 264.373,283.548"/>
</g>
<!-- Metamodel::ParametricRoleHOW&#45;&gt;Metamodel::Naming -->
<g id="edge47" class="edge"><title>Metamodel::ParametricRoleHOW&#45;&gt;Metamodel::Naming</title>
<path fill="none" stroke="#6666ff" d="M-234.111,139.697C-210.64,169.709 -163.574,229.889 -136.475,264.539"/>
<polygon fill="#6666ff" stroke="#6666ff" points="-133.445,262.732 -130.042,272.765 -138.959,267.044 -133.445,262.732"/>
</g>
<!-- Metamodel::ParametricRoleHOW&#45;&gt;Metamodel::Documenting -->
<g id="edge48" class="edge"><title>Metamodel::ParametricRoleHOW&#45;&gt;Metamodel::Documenting</title>
<path fill="none" stroke="#6666ff" d="M-106.66,123.511C-60.2313,124.139 -9.09626,124.83 35.6601,125.435"/>
<polygon fill="#6666ff" stroke="#6666ff" points="35.7489,121.936 45.7007,125.571 35.6542,128.935 35.7489,121.936"/>
</g>
<!-- Metamodel::ParametricRoleHOW&#45;&gt;Metamodel::Versioning -->
<g id="edge49" class="edge"><title>Metamodel::ParametricRoleHOW&#45;&gt;Metamodel::Versioning</title>
<path fill="none" stroke="#6666ff" d="M-315.547,137.503C-360.305,148.084 -418.998,161.961 -464.457,172.708"/>
<polygon fill="#6666ff" stroke="#6666ff" points="-463.702,176.126 -474.239,175.021 -465.312,169.314 -463.702,176.126"/>
</g>
<!-- Metamodel::ParametricRoleHOW&#45;&gt;Metamodel::TypePretense -->
<g id="edge57" class="edge"><title>Metamodel::ParametricRoleHOW&#45;&gt;Metamodel::TypePretense</title>
<path fill="none" stroke="#6666ff" d="M-269.656,139.576C-329.474,189.859 -494.133,328.271 -494.133,328.271 -494.133,328.271 -467.055,462.205 -455.007,521.797"/>
<polygon fill="#6666ff" stroke="#6666ff" points="-451.56,521.186 -453.009,531.682 -458.421,522.574 -451.56,521.186"/>
</g>
<!-- Metamodel::ParametricRoleHOW&#45;&gt;Metamodel::AttributeContainer -->
<g id="edge53" class="edge"><title>Metamodel::ParametricRoleHOW&#45;&gt;Metamodel::AttributeContainer</title>
<path fill="none" stroke="#6666ff" d="M-195.324,104.837C-157.158,92.7548 -112.339,78.5668 -112.339,78.5668 -112.339,78.5668 108.254,52.2541 246.384,35.7777"/>
<polygon fill="#6666ff" stroke="#6666ff" points="246.25,32.2689 256.594,34.5598 247.079,39.2196 246.25,32.2689"/>
</g>
<!-- Metamodel::ParametricRoleHOW&#45;&gt;Metamodel::MethodContainer -->
<g id="edge50" class="edge"><title>Metamodel::ParametricRoleHOW&#45;&gt;Metamodel::MethodContainer</title>
<path fill="none" stroke="#6666ff" d="M-227.819,103.463C-169.822,52.0284 -8.43848,-91.093 -8.43848,-91.093 -8.43848,-91.093 3.94321,-194.702 10.1031,-246.247"/>
<polygon fill="#6666ff" stroke="#6666ff" points="6.65444,-246.886 11.3164,-256.4 13.605,-246.056 6.65444,-246.886"/>
</g>
<!-- Metamodel::ParametricRoleHOW&#45;&gt;Metamodel::PrivateMethodContainer -->
<g id="edge51" class="edge"><title>Metamodel::ParametricRoleHOW&#45;&gt;Metamodel::PrivateMethodContainer</title>
<path fill="none" stroke="#6666ff" d="M-327.829,106.61C-424.366,88.4253 -586.784,57.8315 -688.349,38.7"/>
<polygon fill="#6666ff" stroke="#6666ff" points="-689.109,42.1185 -698.289,36.8278 -687.814,35.2394 -689.109,42.1185"/>
</g>
<!-- Metamodel::ParametricRoleHOW&#45;&gt;Metamodel::MultiMethodContainer -->
<g id="edge52" class="edge"><title>Metamodel::ParametricRoleHOW&#45;&gt;Metamodel::MultiMethodContainer</title>
<path fill="none" stroke="#6666ff" d="M-244.418,103.43C-235.716,62.355 -215.277,-34.114 -215.277,-34.114 -215.277,-34.114 -241.325,-172.374 -252.818,-233.381"/>
<polygon fill="#6666ff" stroke="#6666ff" points="-256.31,-233.013 -254.722,-243.488 -249.431,-234.309 -256.31,-233.013"/>
</g>
<!-- Metamodel::ParametricRoleHOW&#45;&gt;Metamodel::RoleContainer -->
<g id="edge54" class="edge"><title>Metamodel::ParametricRoleHOW&#45;&gt;Metamodel::RoleContainer</title>
<path fill="none" stroke="#6666ff" d="M-215.562,103.938C-148.325,67.6347 5.29309,-15.3082 79.1405,-55.1806"/>
<polygon fill="#6666ff" stroke="#6666ff" points="77.7028,-58.382 88.165,-60.0533 81.0286,-52.2224 77.7028,-58.382"/>
</g>
<!-- Metamodel::ParametricRoleHOW&#45;&gt;Metamodel::MultipleInheritance -->
<g id="edge55" class="edge"><title>Metamodel::ParametricRoleHOW&#45;&gt;Metamodel::MultipleInheritance</title>
<path fill="none" stroke="#6666ff" d="M-276.759,103.775C-341.998,62.968 -496.641,-33.7599 -496.641,-33.7599 -496.641,-33.7599 -517.16,-103.906 -529,-144.381"/>
<polygon fill="#6666ff" stroke="#6666ff" points="-532.427,-143.63 -531.876,-154.21 -525.709,-145.595 -532.427,-143.63"/>
</g>
<!-- Metamodel::ParametricRoleHOW&#45;&gt;Metamodel::RolePunning -->
<g id="edge58" class="edge"><title>Metamodel::ParametricRoleHOW&#45;&gt;Metamodel::RolePunning</title>
<path fill="none" stroke="#6666ff" d="M-274.737,139.372C-360.291,196.826 -629.39,377.54 -725.844,442.313"/>
<polygon fill="#6666ff" stroke="#6666ff" points="-724.109,445.364 -734.362,448.033 -728.011,439.553 -724.109,445.364"/>
</g>
<!-- Metamodel::BaseType -->
<g id="node30" class="node"><title>Metamodel::BaseType</title>
<g id="a_node30"><a xlink:href="/type/Metamodel::BaseType" xlink:title="Metamodel::BaseType">
<ellipse fill="none" stroke="#6666ff" cx="780.316" cy="29.3709" rx="99.3824" ry="18"/>
<text text-anchor="middle" x="780.316" y="33.0709" font-family="FreeSans" font-size="14.00" fill="#6666ff">Metamodel::BaseType</text>
</a>
</g>
</g>
<!-- Metamodel::EnumHOW -->
<g id="node31" class="node"><title>Metamodel::EnumHOW</title>
<g id="a_node31"><a xlink:href="/type/Metamodel::EnumHOW" xlink:title="Metamodel::EnumHOW">
<ellipse fill="none" stroke="#000000" cx="541.216" cy="213.291" rx="104.782" ry="18"/>
<text text-anchor="middle" x="541.216" y="216.991" font-family="FreeSans" font-size="14.00" fill="#000000">Metamodel::EnumHOW</text>
</a>
</g>
</g>
<!-- Metamodel::EnumHOW&#45;&gt;Metamodel::Stashing -->
<g id="edge60" class="edge"><title>Metamodel::EnumHOW&#45;&gt;Metamodel::Stashing</title>
<path fill="none" stroke="#6666ff" d="M480.608,228.02C391.974,249.56 227.483,289.535 134.713,312.08"/>
<polygon fill="#6666ff" stroke="#6666ff" points="135.408,315.512 124.864,314.473 133.755,308.71 135.408,315.512"/>
</g>
<!-- Metamodel::EnumHOW&#45;&gt;Any -->
<g id="edge7" class="edge"><title>Metamodel::EnumHOW&#45;&gt;Any</title>
<path fill="none" stroke="#000000" d="M494.478,229.499C446.584,246.106 373.299,271.519 330.867,286.232"/>
<polygon fill="#000000" stroke="#000000" points="331.881,289.585 321.286,289.555 329.588,282.972 331.881,289.585"/>
</g>
<!-- Metamodel::EnumHOW&#45;&gt;Metamodel::Naming -->
<g id="edge59" class="edge"><title>Metamodel::EnumHOW&#45;&gt;Metamodel::Naming</title>
<path fill="none" stroke="#6666ff" d="M454.623,223.495C329.143,238.282 98.0175,265.518 -28.1537,280.385"/>
<polygon fill="#6666ff" stroke="#6666ff" points="-27.8283,283.871 -38.1692,281.566 -28.6476,276.919 -27.8283,283.871"/>
</g>
<!-- Metamodel::EnumHOW&#45;&gt;Metamodel::AttributeContainer -->
<g id="edge61" class="edge"><title>Metamodel::EnumHOW&#45;&gt;Metamodel::AttributeContainer</title>
<path fill="none" stroke="#6666ff" d="M523.713,195.371C490.471,161.334 418.116,87.2511 379.923,48.1459"/>
<polygon fill="#6666ff" stroke="#6666ff" points="377.244,50.4131 372.761,40.8135 382.252,45.522 377.244,50.4131"/>
</g>
<!-- Metamodel::EnumHOW&#45;&gt;Metamodel::MethodContainer -->
<g id="edge62" class="edge"><title>Metamodel::EnumHOW&#45;&gt;Metamodel::MethodContainer</title>
<path fill="none" stroke="#6666ff" d="M535.994,195.014C522.363,147.304 486.755,22.6725 486.755,22.6725 486.755,22.6725 161.429,-181.73 50.2388,-251.591"/>
<polygon fill="#6666ff" stroke="#6666ff" points="48.2925,-248.68 41.6871,-256.964 52.0166,-254.607 48.2925,-248.68"/>
</g>
<!-- Metamodel::EnumHOW&#45;&gt;Metamodel::MultiMethodContainer -->
<g id="edge63" class="edge"><title>Metamodel::EnumHOW&#45;&gt;Metamodel::MultiMethodContainer</title>
<path fill="none" stroke="#6666ff" d="M509.159,195.985C393.288,133.431 2.98296,-77.2764 2.98296,-77.2764 2.98296,-77.2764 -8.43848,-91.093 -8.43848,-91.093 -8.43848,-91.093 -154.988,-191.232 -223.554,-238.084"/>
<polygon fill="#6666ff" stroke="#6666ff" points="-225.625,-235.26 -231.907,-243.791 -221.676,-241.039 -225.625,-235.26"/>
</g>
<!-- Metamodel::EnumHOW&#45;&gt;Metamodel::RoleContainer -->
<g id="edge64" class="edge"><title>Metamodel::EnumHOW&#45;&gt;Metamodel::RoleContainer</title>
<path fill="none" stroke="#6666ff" d="M512.186,195.893C433.775,148.901 223.584,22.9306 223.584,22.9306 223.584,22.9306 176.735,-22.5608 146.133,-52.2757"/>
<polygon fill="#6666ff" stroke="#6666ff" points="143.477,-49.9758 138.741,-59.4531 148.354,-54.9978 143.477,-49.9758"/>
</g>
<!-- Metamodel::EnumHOW&#45;&gt;Metamodel::MROBasedMethodDispatch -->
<g id="edge66" class="edge"><title>Metamodel::EnumHOW&#45;&gt;Metamodel::MROBasedMethodDispatch</title>
<path fill="none" stroke="#6666ff" d="M541.009,195.18C540.322,135.374 538.126,-56.116 537.293,-128.735"/>
<polygon fill="#6666ff" stroke="#6666ff" points="533.791,-128.906 537.176,-138.945 540.79,-128.986 533.791,-128.906"/>
</g>
<!-- Metamodel::EnumHOW&#45;&gt;Metamodel::MROBasedTypeChecking -->
<g id="edge67" class="edge"><title>Metamodel::EnumHOW&#45;&gt;Metamodel::MROBasedTypeChecking</title>
<path fill="none" stroke="#6666ff" d="M535.994,195.014C522.363,147.304 486.755,22.6725 486.755,22.6725 486.755,22.6725 351.567,-145.558 298.445,-211.664"/>
<polygon fill="#6666ff" stroke="#6666ff" points="295.632,-209.577 292.096,-219.565 301.089,-213.962 295.632,-209.577"/>
</g>
<!-- Metamodel::EnumHOW&#45;&gt;Metamodel::BUILDPLAN -->
<g id="edge68" class="edge"><title>Metamodel::EnumHOW&#45;&gt;Metamodel::BUILDPLAN</title>
<path fill="none" stroke="#6666ff" d="M549.383,195.172C582.908,120.793 708.198,-157.179 708.198,-157.179 708.198,-157.179 741.755,-318.357 755.601,-384.858"/>
<polygon fill="#6666ff" stroke="#6666ff" points="752.256,-385.963 757.721,-395.039 759.109,-384.536 752.256,-385.963"/>
</g>
<!-- Metamodel::EnumHOW&#45;&gt;Metamodel::BoolificationProtocol -->
<g id="edge69" class="edge"><title>Metamodel::EnumHOW&#45;&gt;Metamodel::BoolificationProtocol</title>
<path fill="none" stroke="#6666ff" d="M492.472,197.306C406.223,169.021 235.723,113.106 235.723,113.106 235.723,113.106 -122.983,23.9614 -281.804,-15.5083"/>
<polygon fill="#6666ff" stroke="#6666ff" points="-282.651,-12.1123 -291.512,-17.9209 -280.963,-18.9057 -282.651,-12.1123"/>
</g>
<!-- Metamodel::EnumHOW&#45;&gt;Metamodel::BaseType -->
<g id="edge65" class="edge"><title>Metamodel::EnumHOW&#45;&gt;Metamodel::BaseType</title>
<path fill="none" stroke="#6666ff" d="M564.142,195.656C607.344,162.424 700.83,90.5131 749.484,53.0875"/>
<polygon fill="#6666ff" stroke="#6666ff" points="747.399,50.2755 757.459,46.9526 751.667,55.8239 747.399,50.2755"/>
</g>
<!-- Metamodel::ParametricRoleGroupHOW -->
<g id="node32" class="node"><title>Metamodel::ParametricRoleGroupHOW</title>
<g id="a_node32"><a xlink:href="/type/Metamodel::ParametricRoleGroupHOW" xlink:title="Metamodel::ParametricRoleGroupHOW">
<ellipse fill="none" stroke="#000000" cx="-325.499" cy="328.21" rx="167.07" ry="18"/>
<text text-anchor="middle" x="-325.499" y="331.91" font-family="FreeSans" font-size="14.00" fill="#000000">Metamodel::ParametricRoleGroupHOW</text>
</a>
</g>
</g>
<!-- Metamodel::ParametricRoleGroupHOW&#45;&gt;Metamodel::Stashing -->
<g id="edge71" class="edge"><title>Metamodel::ParametricRoleGroupHOW&#45;&gt;Metamodel::Stashing</title>
<path fill="none" stroke="#6666ff" d="M-158.413,328.403C-117.397,328.45 -74.6539,328.5 -37.5836,328.542"/>
<polygon fill="#6666ff" stroke="#6666ff" points="-37.2804,325.043 -27.2845,328.554 -37.2886,332.043 -37.2804,325.043"/>
</g>
<!-- Metamodel::ParametricRoleGroupHOW&#45;&gt;Any -->
<g id="edge8" class="edge"><title>Metamodel::ParametricRoleGroupHOW&#45;&gt;Any</title>
<path fill="none" stroke="#000000" d="M-173.185,320.766C-63.1182,315.387 66.2824,309.063 66.2824,309.063 66.2824,309.063 194.717,302.839 260.064,299.673"/>
<polygon fill="#000000" stroke="#000000" points="260.2,296.162 270.358,299.174 260.539,303.154 260.2,296.162"/>
</g>
<!-- Metamodel::ParametricRoleGroupHOW&#45;&gt;Metamodel::Naming -->
<g id="edge70" class="edge"><title>Metamodel::ParametricRoleGroupHOW&#45;&gt;Metamodel::Naming</title>
<path fill="none" stroke="#6666ff" d="M-239.073,312.751C-223.961,310.049 -208.325,307.252 -193.474,304.595"/>
<polygon fill="#6666ff" stroke="#6666ff" points="-193.794,301.097 -183.334,302.782 -192.562,307.988 -193.794,301.097"/>
</g>
<!-- Metamodel::ParametricRoleGroupHOW&#45;&gt;Metamodel::TypePretense -->
<g id="edge72" class="edge"><title>Metamodel::ParametricRoleGroupHOW&#45;&gt;Metamodel::TypePretense</title>
<path fill="none" stroke="#6666ff" d="M-335.633,346.345C-357.414,385.317 -408.777,477.223 -434.344,522.971"/>
<polygon fill="#6666ff" stroke="#6666ff" points="-431.309,524.715 -439.242,531.737 -437.419,521.3 -431.309,524.715"/>
</g>
<!-- Metamodel::ParametricRoleGroupHOW&#45;&gt;Metamodel::BoolificationProtocol -->
<g id="edge74" class="edge"><title>Metamodel::ParametricRoleGroupHOW&#45;&gt;Metamodel::BoolificationProtocol</title>
<path fill="none" stroke="#6666ff" d="M-331.418,309.89C-347.742,259.368 -392.198,121.776 -392.198,121.776 -392.198,121.776 -372.955,39.0936 -362.514,-5.77103"/>
<polygon fill="#6666ff" stroke="#6666ff" points="-365.862,-6.82371 -360.187,-15.77 -359.045,-5.23692 -365.862,-6.82371"/>
</g>
<!-- Metamodel::ParametricRoleGroupHOW&#45;&gt;Metamodel::RolePunning -->
<g id="edge73" class="edge"><title>Metamodel::ParametricRoleGroupHOW&#45;&gt;Metamodel::RolePunning</title>
<path fill="none" stroke="#6666ff" d="M-379.734,345.346C-461.264,371.105 -614.902,419.647 -700.034,446.544"/>
<polygon fill="#6666ff" stroke="#6666ff" points="-699.225,449.959 -709.815,449.635 -701.334,443.284 -699.225,449.959"/>
</g>
</g>
</svg>
