<?xml version="1.0" encoding="UTF-8" standalone="no"?>
<!DOCTYPE svg PUBLIC "-//W3C//DTD SVG 1.1//EN"
 "http://www.w3.org/Graphics/SVG/1.1/DTD/svg11.dtd">
<!-- Generated by graphviz version 2.38.0 (20140413.2041)
 -->
<!-- Title: perl6&#45;type&#45;graph Pages: 1 -->
<svg width="504pt" height="332pt"
 viewBox="0.00 0.00 504.44 332.00" xmlns="http://www.w3.org/2000/svg" xmlns:xlink="http://www.w3.org/1999/xlink">
<g id="graph0" class="graph" transform="scale(1 1) rotate(0) translate(4 328)">
<title>perl6&#45;type&#45;graph</title>
<polygon fill="white" stroke="none" points="-4,4 -4,-328 500.443,-328 500.443,4 -4,4"/>
<!-- QuantHash -->
<g id="node1" class="node"><title>QuantHash</title>
<g id="a_node1"><a xlink:href="/type/QuantHash" xlink:title="QuantHash">
<ellipse fill="none" stroke="#6666ff" cx="332.196" cy="-234" rx="55.7903" ry="18"/>
<text text-anchor="middle" x="332.196" y="-230.3" font-family="FreeSans" font-size="14.00" fill="#6666ff">QuantHash</text>
</a>
</g>
</g>
<!-- Associative -->
<g id="node2" class="node"><title>Associative</title>
<g id="a_node2"><a xlink:href="/type/Associative" xlink:title="Associative">
<ellipse fill="none" stroke="#6666ff" cx="332.196" cy="-306" rx="55.4913" ry="18"/>
<text text-anchor="middle" x="332.196" y="-302.3" font-family="FreeSans" font-size="14.00" fill="#6666ff">Associative</text>
</a>
</g>
</g>
<!-- QuantHash&#45;&gt;Associative -->
<g id="edge8" class="edge"><title>QuantHash&#45;&gt;Associative</title>
<path fill="none" stroke="#6666ff" d="M332.196,-252.303C332.196,-260.017 332.196,-269.288 332.196,-277.888"/>
<polygon fill="#6666ff" stroke="#6666ff" points="328.696,-277.896 332.196,-287.896 335.696,-277.896 328.696,-277.896"/>
</g>
<!-- Baggy -->
<g id="node3" class="node"><title>Baggy</title>
<g id="a_node3"><a xlink:href="/type/Baggy" xlink:title="Baggy">
<ellipse fill="none" stroke="#6666ff" cx="359.196" cy="-162" rx="35.9954" ry="18"/>
<text text-anchor="middle" x="359.196" y="-158.3" font-family="FreeSans" font-size="14.00" fill="#6666ff">Baggy</text>
</a>
</g>
</g>
<!-- Baggy&#45;&gt;QuantHash -->
<g id="edge9" class="edge"><title>Baggy&#45;&gt;QuantHash</title>
<path fill="none" stroke="#6666ff" d="M352.66,-179.945C349.621,-187.824 345.934,-197.383 342.531,-206.206"/>
<polygon fill="#6666ff" stroke="#6666ff" points="339.193,-205.135 338.859,-215.725 345.724,-207.654 339.193,-205.135"/>
</g>
<!-- Setty -->
<g id="node4" class="node"><title>Setty</title>
<g id="a_node4"><a xlink:href="/type/Setty" xlink:title="Setty">
<ellipse fill="none" stroke="#6666ff" cx="133.196" cy="-162" rx="30.5947" ry="18"/>
<text text-anchor="middle" x="133.196" y="-158.3" font-family="FreeSans" font-size="14.00" fill="#6666ff">Setty</text>
</a>
</g>
</g>
<!-- Setty&#45;&gt;QuantHash -->
<g id="edge10" class="edge"><title>Setty&#45;&gt;QuantHash</title>
<path fill="none" stroke="#6666ff" d="M158.602,-171.998C170.115,-176.076 181.196,-180 181.196,-180 181.196,-180 241.743,-201.252 286.157,-216.841"/>
<polygon fill="#6666ff" stroke="#6666ff" points="285.048,-220.161 295.643,-220.17 287.367,-213.556 285.048,-220.161"/>
</g>
<!-- Mixy -->
<g id="node5" class="node"><title>Mixy</title>
<g id="a_node5"><a xlink:href="/type/Mixy" xlink:title="Mixy">
<ellipse fill="none" stroke="#6666ff" cx="467.196" cy="-90" rx="29.4969" ry="18"/>
<text text-anchor="middle" x="467.196" y="-86.3" font-family="FreeSans" font-size="14.00" fill="#6666ff">Mixy</text>
</a>
</g>
</g>
<!-- Mixy&#45;&gt;Baggy -->
<g id="edge11" class="edge"><title>Mixy&#45;&gt;Baggy</title>
<path fill="none" stroke="#6666ff" d="M447.638,-103.676C431.266,-114.288 407.644,-129.599 388.93,-141.728"/>
<polygon fill="#6666ff" stroke="#6666ff" points="386.945,-138.844 380.457,-147.22 390.752,-144.718 386.945,-138.844"/>
</g>
<!-- Mu -->
<g id="node6" class="node"><title>Mu</title>
<g id="a_node6"><a xlink:href="/type/Mu" xlink:title="Mu">
<ellipse fill="none" stroke="#000000" cx="217.196" cy="-234" rx="27" ry="18"/>
<text text-anchor="middle" x="217.196" y="-230.3" font-family="FreeSans" font-size="14.00" fill="#000000">Mu</text>
</a>
</g>
</g>
<!-- Any -->
<g id="node7" class="node"><title>Any</title>
<g id="a_node7"><a xlink:href="/type/Any" xlink:title="Any">
<ellipse fill="none" stroke="#000000" cx="217.196" cy="-162" rx="27" ry="18"/>
<text text-anchor="middle" x="217.196" y="-158.3" font-family="FreeSans" font-size="14.00" fill="#000000">Any</text>
</a>
</g>
</g>
<!-- Any&#45;&gt;Mu -->
<g id="edge1" class="edge"><title>Any&#45;&gt;Mu</title>
<path fill="none" stroke="#000000" d="M217.196,-180.303C217.196,-188.017 217.196,-197.288 217.196,-205.888"/>
<polygon fill="#000000" stroke="#000000" points="213.696,-205.896 217.196,-215.896 220.696,-205.896 213.696,-205.896"/>
</g>
<!-- BagHash -->
<g id="node8" class="node"><title>BagHash</title>
<g id="a_node8"><a xlink:href="/type/BagHash" xlink:title="BagHash">
<ellipse fill="none" stroke="#000000" cx="373.196" cy="-90" rx="46.5926" ry="18"/>
<text text-anchor="middle" x="373.196" y="-86.3" font-family="FreeSans" font-size="14.00" fill="#000000">BagHash</text>
</a>
</g>
</g>
<!-- BagHash&#45;&gt;Baggy -->
<g id="edge12" class="edge"><title>BagHash&#45;&gt;Baggy</title>
<path fill="none" stroke="#6666ff" d="M369.735,-108.303C368.193,-116.017 366.339,-125.288 364.619,-133.888"/>
<polygon fill="#6666ff" stroke="#6666ff" points="361.146,-133.403 362.617,-143.896 368.01,-134.776 361.146,-133.403"/>
</g>
<!-- BagHash&#45;&gt;Any -->
<g id="edge2" class="edge"><title>BagHash&#45;&gt;Any</title>
<path fill="none" stroke="#000000" d="M343.854,-104.166C316.694,-116.353 276.43,-134.421 248.624,-146.898"/>
<polygon fill="#000000" stroke="#000000" points="247.041,-143.772 239.35,-151.059 249.907,-150.158 247.041,-143.772"/>
</g>
<!-- Bag -->
<g id="node9" class="node"><title>Bag</title>
<g id="a_node9"><a xlink:href="/type/Bag" xlink:title="Bag">
<ellipse fill="none" stroke="#000000" cx="281.196" cy="-90" rx="27" ry="18"/>
<text text-anchor="middle" x="281.196" y="-86.3" font-family="FreeSans" font-size="14.00" fill="#000000">Bag</text>
</a>
</g>
</g>
<!-- Bag&#45;&gt;Baggy -->
<g id="edge13" class="edge"><title>Bag&#45;&gt;Baggy</title>
<path fill="none" stroke="#6666ff" d="M296.606,-104.83C307.46,-114.57 322.217,-127.813 334.676,-138.995"/>
<polygon fill="#6666ff" stroke="#6666ff" points="332.687,-141.913 342.468,-145.987 337.363,-136.703 332.687,-141.913"/>
</g>
<!-- Bag&#45;&gt;Any -->
<g id="edge3" class="edge"><title>Bag&#45;&gt;Any</title>
<path fill="none" stroke="#000000" d="M267.623,-105.845C258.884,-115.404 247.362,-128.006 237.538,-138.751"/>
<polygon fill="#000000" stroke="#000000" points="234.914,-136.434 230.749,-146.176 240.08,-141.158 234.914,-136.434"/>
</g>
<!-- SetHash -->
<g id="node10" class="node"><title>SetHash</title>
<g id="a_node10"><a xlink:href="/type/SetHash" xlink:title="SetHash">
<ellipse fill="none" stroke="#000000" cx="44.1961" cy="-90" rx="44.393" ry="18"/>
<text text-anchor="middle" x="44.1961" y="-86.3" font-family="FreeSans" font-size="14.00" fill="#000000">SetHash</text>
</a>
</g>
</g>
<!-- SetHash&#45;&gt;Setty -->
<g id="edge14" class="edge"><title>SetHash&#45;&gt;Setty</title>
<path fill="none" stroke="#6666ff" d="M63.9481,-106.535C76.7557,-116.609 93.5735,-129.836 107.428,-140.733"/>
<polygon fill="#6666ff" stroke="#6666ff" points="105.585,-143.737 115.609,-147.168 109.913,-138.234 105.585,-143.737"/>
</g>
<!-- SetHash&#45;&gt;Any -->
<g id="edge4" class="edge"><title>SetHash&#45;&gt;Any</title>
<path fill="none" stroke="#000000" d="M74.3304,-103.193C105.254,-115.705 153.2,-135.106 184.892,-147.929"/>
<polygon fill="#000000" stroke="#000000" points="183.986,-151.338 194.568,-151.844 186.611,-144.849 183.986,-151.338"/>
</g>
<!-- Set -->
<g id="node11" class="node"><title>Set</title>
<g id="a_node11"><a xlink:href="/type/Set" xlink:title="Set">
<ellipse fill="none" stroke="#000000" cx="133.196" cy="-90" rx="27" ry="18"/>
<text text-anchor="middle" x="133.196" y="-86.3" font-family="FreeSans" font-size="14.00" fill="#000000">Set</text>
</a>
</g>
</g>
<!-- Set&#45;&gt;Setty -->
<g id="edge15" class="edge"><title>Set&#45;&gt;Setty</title>
<path fill="none" stroke="#6666ff" d="M133.196,-108.303C133.196,-116.017 133.196,-125.288 133.196,-133.888"/>
<polygon fill="#6666ff" stroke="#6666ff" points="129.696,-133.896 133.196,-143.896 136.696,-133.896 129.696,-133.896"/>
</g>
<!-- Set&#45;&gt;Any -->
<g id="edge5" class="edge"><title>Set&#45;&gt;Any</title>
<path fill="none" stroke="#000000" d="M149.392,-104.497C161.826,-114.858 179.187,-129.326 193.228,-141.027"/>
<polygon fill="#000000" stroke="#000000" points="191.127,-143.832 201.05,-147.545 195.608,-138.454 191.127,-143.832"/>
</g>
<!-- MixHash -->
<g id="node12" class="node"><title>MixHash</title>
<g id="a_node12"><a xlink:href="/type/MixHash" xlink:title="MixHash">
<ellipse fill="none" stroke="#000000" cx="419.196" cy="-18" rx="45.4919" ry="18"/>
<text text-anchor="middle" x="419.196" y="-14.3" font-family="FreeSans" font-size="14.00" fill="#000000">MixHash</text>
</a>
</g>
</g>
<!-- MixHash&#45;&gt;Mixy -->
<g id="edge16" class="edge"><title>MixHash&#45;&gt;Mixy</title>
<path fill="none" stroke="#6666ff" d="M430.571,-35.589C436.515,-44.2561 443.902,-55.0289 450.482,-64.6246"/>
<polygon fill="#6666ff" stroke="#6666ff" points="447.691,-66.7439 456.233,-73.0119 453.464,-62.7852 447.691,-66.7439"/>
</g>
<!-- MixHash&#45;&gt;Any -->
<g id="edge6" class="edge"><title>MixHash&#45;&gt;Any</title>
<path fill="none" stroke="#000000" d="M384.403,-29.598C333.625,-45.0647 245.196,-72 245.196,-72 245.196,-72 233.8,-108.224 225.548,-134.451"/>
<polygon fill="#000000" stroke="#000000" points="222.125,-133.67 222.463,-144.26 228.802,-135.771 222.125,-133.67"/>
</g>
<!-- Mix -->
<g id="node13" class="node"><title>Mix</title>
<g id="a_node13"><a xlink:href="/type/Mix" xlink:title="Mix">
<ellipse fill="none" stroke="#000000" cx="282.196" cy="-18" rx="27" ry="18"/>
<text text-anchor="middle" x="282.196" y="-14.3" font-family="FreeSans" font-size="14.00" fill="#000000">Mix</text>
</a>
</g>
</g>
<!-- Mix&#45;&gt;Mixy -->
<g id="edge17" class="edge"><title>Mix&#45;&gt;Mixy</title>
<path fill="none" stroke="#6666ff" d="M305.489,-27.398C346.939,-42.3426 429.196,-72 429.196,-72 429.196,-72 431.541,-73.0491 435.066,-74.626"/>
<polygon fill="#6666ff" stroke="#6666ff" points="433.657,-77.83 444.215,-78.7189 436.516,-71.4403 433.657,-77.83"/>
</g>
<!-- Mix&#45;&gt;Any -->
<g id="edge7" class="edge"><title>Mix&#45;&gt;Any</title>
<path fill="none" stroke="#000000" d="M264.893,-32.1011C244.164,-47.7959 212.196,-72 212.196,-72 212.196,-72 212.196,-108 212.196,-108 212.196,-108 213.397,-120.73 214.622,-133.712"/>
<polygon fill="#000000" stroke="#000000" points="211.163,-134.312 215.587,-143.939 218.132,-133.654 211.163,-134.312"/>
</g>
</g>
</svg>
