<?xml version="1.0" encoding="UTF-8" standalone="no"?>
<!DOCTYPE svg PUBLIC "-//W3C//DTD SVG 1.1//EN"
 "http://www.w3.org/Graphics/SVG/1.1/DTD/svg11.dtd">
<!-- Generated by graphviz version 2.38.0 (20140413.2041)
 -->
<!-- Title: perl6&#45;type&#45;graph Pages: 1 -->
<svg width="200pt" height="188pt"
 viewBox="0.00 0.00 200.09 188.00" xmlns="http://www.w3.org/2000/svg" xmlns:xlink="http://www.w3.org/1999/xlink">
<g id="graph0" class="graph" transform="scale(1 1) rotate(0) translate(4 184)">
<title>perl6&#45;type&#45;graph</title>
<polygon fill="white" stroke="none" points="-4,4 -4,-184 196.092,-184 196.092,4 -4,4"/>
<!-- Buf -->
<g id="node1" class="node"><title>Buf</title>
<g id="a_node1"><a xlink:href="/type/Buf" xlink:title="Buf">
<ellipse fill="none" stroke="#6666ff" cx="100.746" cy="-18" rx="27" ry="18"/>
<text text-anchor="middle" x="100.746" y="-14.3" font-family="FreeSans" font-size="14.00" fill="#6666ff">Buf</text>
</a>
</g>
</g>
<!-- Blob -->
<g id="node4" class="node"><title>Blob</title>
<g id="a_node4"><a xlink:href="/type/Blob" xlink:title="Blob">
<ellipse fill="none" stroke="#6666ff" cx="100.746" cy="-90" rx="28.6953" ry="18"/>
<text text-anchor="middle" x="100.746" y="-86.3" font-family="FreeSans" font-size="14.00" fill="#6666ff">Blob</text>
</a>
</g>
</g>
<!-- Buf&#45;&gt;Blob -->
<g id="edge1" class="edge"><title>Buf&#45;&gt;Blob</title>
<path fill="none" stroke="#6666ff" d="M100.746,-36.3034C100.746,-44.0173 100.746,-53.2875 100.746,-61.8876"/>
<polygon fill="#6666ff" stroke="#6666ff" points="97.2458,-61.8956 100.746,-71.8957 104.246,-61.8957 97.2458,-61.8956"/>
</g>
<!-- Positional -->
<g id="node2" class="node"><title>Positional</title>
<g id="a_node2"><a xlink:href="/type/Positional" xlink:title="Positional">
<ellipse fill="none" stroke="#6666ff" cx="48.7457" cy="-162" rx="48.9926" ry="18"/>
<text text-anchor="middle" x="48.7457" y="-158.3" font-family="FreeSans" font-size="14.00" fill="#6666ff">Positional</text>
</a>
</g>
</g>
<!-- Stringy -->
<g id="node3" class="node"><title>Stringy</title>
<g id="a_node3"><a xlink:href="/type/Stringy" xlink:title="Stringy">
<ellipse fill="none" stroke="#6666ff" cx="153.746" cy="-162" rx="38.1938" ry="18"/>
<text text-anchor="middle" x="153.746" y="-158.3" font-family="FreeSans" font-size="14.00" fill="#6666ff">Stringy</text>
</a>
</g>
</g>
<!-- Blob&#45;&gt;Positional -->
<g id="edge2" class="edge"><title>Blob&#45;&gt;Positional</title>
<path fill="none" stroke="#6666ff" d="M89.2052,-106.535C82.7254,-115.258 74.4887,-126.346 67.1406,-136.238"/>
<polygon fill="#6666ff" stroke="#6666ff" points="64.1321,-134.418 60.9784,-144.533 69.7513,-138.593 64.1321,-134.418"/>
</g>
<!-- Blob&#45;&gt;Stringy -->
<g id="edge3" class="edge"><title>Blob&#45;&gt;Stringy</title>
<path fill="none" stroke="#6666ff" d="M112.508,-106.535C119.179,-115.346 127.677,-126.57 135.224,-136.537"/>
<polygon fill="#6666ff" stroke="#6666ff" points="132.451,-138.673 141.278,-144.533 138.032,-134.447 132.451,-138.673"/>
</g>
</g>
</svg>
