<?xml version="1.0" encoding="UTF-8" standalone="no"?>
<!DOCTYPE svg PUBLIC "-//W3C//DTD SVG 1.1//EN"
 "http://www.w3.org/Graphics/SVG/1.1/DTD/svg11.dtd">
<!-- Generated by graphviz version 2.38.0 (20140413.2041)
 -->
<!-- Title: perl6&#45;type&#45;graph Pages: 1 -->
<svg width="280pt" height="404pt"
 viewBox="0.00 0.00 279.68 404.00" xmlns="http://www.w3.org/2000/svg" xmlns:xlink="http://www.w3.org/1999/xlink">
<g id="graph0" class="graph" transform="scale(1 1) rotate(0) translate(4 400)">
<title>perl6&#45;type&#45;graph</title>
<polygon fill="white" stroke="none" points="-4,4 -4,-400 275.676,-400 275.676,4 -4,4"/>
<!-- X::Syntax::Regex::Unterminated -->
<g id="node1" class="node"><title>X::Syntax::Regex::Unterminated</title>
<g id="a_node1"><a xlink:href="/type/X::Syntax::Regex::Unterminated" xlink:title="X::Syntax::Regex::Unterminated">
<ellipse fill="none" stroke="#000000" cx="135.838" cy="-18" rx="135.676" ry="18"/>
<text text-anchor="middle" x="135.838" y="-14.3" font-family="FreeSans" font-size="14.00" fill="#000000">X::Syntax::Regex::Unterminated</text>
</a>
</g>
</g>
<!-- Exception -->
<g id="node4" class="node"><title>Exception</title>
<g id="a_node4"><a xlink:href="/type/Exception" xlink:title="Exception">
<ellipse fill="none" stroke="#000000" cx="135.838" cy="-234" rx="49.2915" ry="18"/>
<text text-anchor="middle" x="135.838" y="-230.3" font-family="FreeSans" font-size="14.00" fill="#000000">Exception</text>
</a>
</g>
</g>
<!-- X::Syntax::Regex::Unterminated&#45;&gt;Exception -->
<g id="edge1" class="edge"><title>X::Syntax::Regex::Unterminated&#45;&gt;Exception</title>
<path fill="none" stroke="#000000" d="M129.722,-36.0613C124.167,-51.5549 116.838,-72 116.838,-72 116.838,-72 116.838,-108 116.838,-108 116.838,-108 126.111,-169.008 131.701,-205.782"/>
<polygon fill="#000000" stroke="#000000" points="128.273,-206.521 133.236,-215.881 135.193,-205.469 128.273,-206.521"/>
</g>
<!-- X::Syntax -->
<g id="node6" class="node"><title>X::Syntax</title>
<g id="a_node6"><a xlink:href="/type/X::Syntax" xlink:title="X::Syntax">
<ellipse fill="none" stroke="#6666ff" cx="173.838" cy="-90" rx="48.1917" ry="18"/>
<text text-anchor="middle" x="173.838" y="-86.3" font-family="FreeSans" font-size="14.00" fill="#6666ff">X::Syntax</text>
</a>
</g>
</g>
<!-- X::Syntax::Regex::Unterminated&#45;&gt;X::Syntax -->
<g id="edge6" class="edge"><title>X::Syntax::Regex::Unterminated&#45;&gt;X::Syntax</title>
<path fill="none" stroke="#6666ff" d="M145.231,-36.3034C149.603,-44.3564 154.895,-54.1055 159.733,-63.0176"/>
<polygon fill="#6666ff" stroke="#6666ff" points="156.706,-64.777 164.553,-71.8957 162.858,-61.4373 156.706,-64.777"/>
</g>
<!-- Mu -->
<g id="node2" class="node"><title>Mu</title>
<g id="a_node2"><a xlink:href="/type/Mu" xlink:title="Mu">
<ellipse fill="none" stroke="#000000" cx="135.838" cy="-378" rx="27" ry="18"/>
<text text-anchor="middle" x="135.838" y="-374.3" font-family="FreeSans" font-size="14.00" fill="#000000">Mu</text>
</a>
</g>
</g>
<!-- Any -->
<g id="node3" class="node"><title>Any</title>
<g id="a_node3"><a xlink:href="/type/Any" xlink:title="Any">
<ellipse fill="none" stroke="#000000" cx="135.838" cy="-306" rx="27" ry="18"/>
<text text-anchor="middle" x="135.838" y="-302.3" font-family="FreeSans" font-size="14.00" fill="#000000">Any</text>
</a>
</g>
</g>
<!-- Any&#45;&gt;Mu -->
<g id="edge2" class="edge"><title>Any&#45;&gt;Mu</title>
<path fill="none" stroke="#000000" d="M135.838,-324.303C135.838,-332.017 135.838,-341.288 135.838,-349.888"/>
<polygon fill="#000000" stroke="#000000" points="132.338,-349.896 135.838,-359.896 139.338,-349.896 132.338,-349.896"/>
</g>
<!-- Exception&#45;&gt;Any -->
<g id="edge3" class="edge"><title>Exception&#45;&gt;Any</title>
<path fill="none" stroke="#000000" d="M135.838,-252.303C135.838,-260.017 135.838,-269.288 135.838,-277.888"/>
<polygon fill="#000000" stroke="#000000" points="132.338,-277.896 135.838,-287.896 139.338,-277.896 132.338,-277.896"/>
</g>
<!-- X::Comp -->
<g id="node5" class="node"><title>X::Comp</title>
<g id="a_node5"><a xlink:href="/type/X::Comp" xlink:title="X::Comp">
<ellipse fill="none" stroke="#6666ff" cx="208.838" cy="-162" rx="44.6926" ry="18"/>
<text text-anchor="middle" x="208.838" y="-158.3" font-family="FreeSans" font-size="14.00" fill="#6666ff">X::Comp</text>
</a>
</g>
</g>
<!-- X::Comp&#45;&gt;Exception -->
<g id="edge4" class="edge"><title>X::Comp&#45;&gt;Exception</title>
<path fill="none" stroke="#000000" d="M192.273,-178.884C182.727,-188.038 170.557,-199.707 159.964,-209.865"/>
<polygon fill="#000000" stroke="#000000" points="157.385,-207.489 152.59,-216.936 162.23,-212.541 157.385,-207.489"/>
</g>
<!-- X::Syntax&#45;&gt;Exception -->
<g id="edge5" class="edge"><title>X::Syntax&#45;&gt;Exception</title>
<path fill="none" stroke="#000000" d="M167.722,-108.061C162.167,-123.555 154.838,-144 154.838,-144 154.838,-144 147.188,-179.833 141.597,-206.025"/>
<polygon fill="#000000" stroke="#000000" points="138.166,-205.33 139.501,-215.84 145.012,-206.791 138.166,-205.33"/>
</g>
<!-- X::Syntax&#45;&gt;X::Comp -->
<g id="edge7" class="edge"><title>X::Syntax&#45;&gt;X::Comp</title>
<path fill="none" stroke="#6666ff" d="M182.31,-107.945C186.395,-116.113 191.382,-126.088 195.926,-135.176"/>
<polygon fill="#6666ff" stroke="#6666ff" points="192.841,-136.832 200.443,-144.211 199.102,-133.701 192.841,-136.832"/>
</g>
</g>
</svg>
