<?xml version="1.0" encoding="UTF-8" standalone="no"?>
<!DOCTYPE svg PUBLIC "-//W3C//DTD SVG 1.1//EN"
 "http://www.w3.org/Graphics/SVG/1.1/DTD/svg11.dtd">
<!-- Generated by graphviz version 2.38.0 (20140413.2041)
 -->
<!-- Title: perl6&#45;type&#45;graph Pages: 1 -->
<svg width="2286pt" height="1294pt"
 viewBox="0.00 0.00 2285.87 1294.31" xmlns="http://www.w3.org/2000/svg" xmlns:xlink="http://www.w3.org/1999/xlink">
<g id="graph0" class="graph" transform="scale(1 1) rotate(0) translate(1105.07 631.942)">
<title>perl6&#45;type&#45;graph</title>
<polygon fill="white" stroke="none" points="-1105.07,662.371 -1105.07,-631.942 1180.81,-631.942 1180.81,662.371 -1105.07,662.371"/>
<!-- Metamodel::MultiMethodContainer -->
<g id="node1" class="node"><title>Metamodel::MultiMethodContainer</title>
<g id="a_node1"><a xlink:href="/type/Metamodel::MultiMethodContainer" xlink:title="Metamodel::MultiMethodContainer">
<ellipse fill="none" stroke="#6666ff" cx="52.5148" cy="275.423" rx="146.474" ry="18"/>
<text text-anchor="middle" x="52.5148" y="279.123" font-family="FreeSans" font-size="14.00" fill="#6666ff">Metamodel::MultiMethodContainer</text>
</a>
</g>
</g>
<!-- Mu -->
<g id="node2" class="node"><title>Mu</title>
<g id="a_node2"><a xlink:href="/type/Mu" xlink:title="Mu">
<ellipse fill="none" stroke="#000000" cx="-458.306" cy="640.371" rx="27" ry="18"/>
<text text-anchor="middle" x="-458.306" y="644.071" font-family="FreeSans" font-size="14.00" fill="#000000">Mu</text>
</a>
</g>
</g>
<!-- Any -->
<g id="node3" class="node"><title>Any</title>
<g id="a_node3"><a xlink:href="/type/Any" xlink:title="Any">
<ellipse fill="none" stroke="#000000" cx="-245.165" cy="291.724" rx="27" ry="18"/>
<text text-anchor="middle" x="-245.165" y="295.424" font-family="FreeSans" font-size="14.00" fill="#000000">Any</text>
</a>
</g>
</g>
<!-- Any&#45;&gt;Mu -->
<g id="edge1" class="edge"><title>Any&#45;&gt;Mu</title>
<path fill="none" stroke="#000000" d="M-255.445,308.54C-289.834,364.792 -401.017,546.66 -442.503,614.522"/>
<polygon fill="#000000" stroke="#000000" points="-439.677,616.609 -447.88,623.316 -445.65,612.958 -439.677,616.609"/>
</g>
<!-- Metamodel::Naming -->
<g id="node4" class="node"><title>Metamodel::Naming</title>
<g id="a_node4"><a xlink:href="/type/Metamodel::Naming" xlink:title="Metamodel::Naming">
<ellipse fill="none" stroke="#6666ff" cx="314.815" cy="-216.704" rx="90.1842" ry="18"/>
<text text-anchor="middle" x="314.815" y="-213.004" font-family="FreeSans" font-size="14.00" fill="#6666ff">Metamodel::Naming</text>
</a>
</g>
</g>
<!-- Metamodel::Documenting -->
<g id="node5" class="node"><title>Metamodel::Documenting</title>
<g id="a_node5"><a xlink:href="/type/Metamodel::Documenting" xlink:title="Metamodel::Documenting">
<ellipse fill="none" stroke="#6666ff" cx="553.895" cy="-585.591" rx="111.28" ry="18"/>
<text text-anchor="middle" x="553.895" y="-581.891" font-family="FreeSans" font-size="14.00" fill="#6666ff">Metamodel::Documenting</text>
</a>
</g>
</g>
<!-- Metamodel::Versioning -->
<g id="node6" class="node"><title>Metamodel::Versioning</title>
<g id="a_node6"><a xlink:href="/type/Metamodel::Versioning" xlink:title="Metamodel::Versioning">
<ellipse fill="none" stroke="#6666ff" cx="-579.57" cy="300.038" rx="100.983" ry="18"/>
<text text-anchor="middle" x="-579.57" y="303.738" font-family="FreeSans" font-size="14.00" fill="#6666ff">Metamodel::Versioning</text>
</a>
</g>
</g>
<!-- Metamodel::Stashing -->
<g id="node7" class="node"><title>Metamodel::Stashing</title>
<g id="a_node7"><a xlink:href="/type/Metamodel::Stashing" xlink:title="Metamodel::Stashing">
<ellipse fill="none" stroke="#6666ff" cx="-500.938" cy="22.6942" rx="93.6835" ry="18"/>
<text text-anchor="middle" x="-500.938" y="26.3942" font-family="FreeSans" font-size="14.00" fill="#6666ff">Metamodel::Stashing</text>
</a>
</g>
</g>
<!-- Metamodel::AttributeContainer -->
<g id="node8" class="node"><title>Metamodel::AttributeContainer</title>
<g id="a_node8"><a xlink:href="/type/Metamodel::AttributeContainer" xlink:title="Metamodel::AttributeContainer">
<ellipse fill="none" stroke="#6666ff" cx="1046.82" cy="11.5144" rx="129.977" ry="18"/>
<text text-anchor="middle" x="1046.82" y="15.2144" font-family="FreeSans" font-size="14.00" fill="#6666ff">Metamodel::AttributeContainer</text>
</a>
</g>
</g>
<!-- Metamodel::Finalization -->
<g id="node9" class="node"><title>Metamodel::Finalization</title>
<g id="a_node9"><a xlink:href="/type/Metamodel::Finalization" xlink:title="Metamodel::Finalization">
<ellipse fill="none" stroke="#6666ff" cx="-976.744" cy="606.358" rx="103.982" ry="18"/>
<text text-anchor="middle" x="-976.744" y="610.058" font-family="FreeSans" font-size="14.00" fill="#6666ff">Metamodel::Finalization</text>
</a>
</g>
</g>
<!-- Metamodel::MethodContainer -->
<g id="node10" class="node"><title>Metamodel::MethodContainer</title>
<g id="a_node10"><a xlink:href="/type/Metamodel::MethodContainer" xlink:title="Metamodel::MethodContainer">
<ellipse fill="none" stroke="#6666ff" cx="331.448" cy="163.677" rx="127.277" ry="18"/>
<text text-anchor="middle" x="331.448" y="167.377" font-family="FreeSans" font-size="14.00" fill="#6666ff">Metamodel::MethodContainer</text>
</a>
</g>
</g>
<!-- Metamodel::PrivateMethodContainer -->
<g id="node11" class="node"><title>Metamodel::PrivateMethodContainer</title>
<g id="a_node11"><a xlink:href="/type/Metamodel::PrivateMethodContainer" xlink:title="Metamodel::PrivateMethodContainer">
<ellipse fill="none" stroke="#6666ff" cx="-88.2515" cy="633.765" rx="154.873" ry="18"/>
<text text-anchor="middle" x="-88.2515" y="637.465" font-family="FreeSans" font-size="14.00" fill="#6666ff">Metamodel::PrivateMethodContainer</text>
</a>
</g>
</g>
<!-- Metamodel::RoleContainer -->
<g id="node12" class="node"><title>Metamodel::RoleContainer</title>
<g id="a_node12"><a xlink:href="/type/Metamodel::RoleContainer" xlink:title="Metamodel::RoleContainer">
<ellipse fill="none" stroke="#6666ff" cx="100.829" cy="-8.95927" rx="115.88" ry="18"/>
<text text-anchor="middle" x="100.829" y="-5.25927" font-family="FreeSans" font-size="14.00" fill="#6666ff">Metamodel::RoleContainer</text>
</a>
</g>
</g>
<!-- Metamodel::MultipleInheritance -->
<g id="node13" class="node"><title>Metamodel::MultipleInheritance</title>
<g id="a_node13"><a xlink:href="/type/Metamodel::MultipleInheritance" xlink:title="Metamodel::MultipleInheritance">
<ellipse fill="none" stroke="#6666ff" cx="620.488" cy="-159.5" rx="133.776" ry="18"/>
<text text-anchor="middle" x="620.488" y="-155.8" font-family="FreeSans" font-size="14.00" fill="#6666ff">Metamodel::MultipleInheritance</text>
</a>
</g>
</g>
<!-- Metamodel::DefaultParent -->
<g id="node14" class="node"><title>Metamodel::DefaultParent</title>
<g id="a_node14"><a xlink:href="/type/Metamodel::DefaultParent" xlink:title="Metamodel::DefaultParent">
<ellipse fill="none" stroke="#6666ff" cx="-125.533" cy="-609.825" rx="113.18" ry="18"/>
<text text-anchor="middle" x="-125.533" y="-606.125" font-family="FreeSans" font-size="14.00" fill="#6666ff">Metamodel::DefaultParent</text>
</a>
</g>
</g>
<!-- Metamodel::C3MRO -->
<g id="node15" class="node"><title>Metamodel::C3MRO</title>
<g id="a_node15"><a xlink:href="/type/Metamodel::C3MRO" xlink:title="Metamodel::C3MRO">
<ellipse fill="none" stroke="#6666ff" cx="-983.098" cy="-578.661" rx="92.0841" ry="18"/>
<text text-anchor="middle" x="-983.098" y="-574.961" font-family="FreeSans" font-size="14.00" fill="#6666ff">Metamodel::C3MRO</text>
</a>
</g>
</g>
<!-- Metamodel::MROBasedMethodDispatch -->
<g id="node16" class="node"><title>Metamodel::MROBasedMethodDispatch</title>
<g id="a_node16"><a xlink:href="/type/Metamodel::MROBasedMethodDispatch" xlink:title="Metamodel::MROBasedMethodDispatch">
<ellipse fill="none" stroke="#6666ff" cx="-589.089" cy="-255.144" rx="169.77" ry="18"/>
<text text-anchor="middle" x="-589.089" y="-251.444" font-family="FreeSans" font-size="14.00" fill="#6666ff">Metamodel::MROBasedMethodDispatch</text>
</a>
</g>
</g>
<!-- Metamodel::MROBasedTypeChecking -->
<g id="node17" class="node"><title>Metamodel::MROBasedTypeChecking</title>
<g id="a_node17"><a xlink:href="/type/Metamodel::MROBasedTypeChecking" xlink:title="Metamodel::MROBasedTypeChecking">
<ellipse fill="none" stroke="#6666ff" cx="202.69" cy="-601.482" rx="163.271" ry="18"/>
<text text-anchor="middle" x="202.69" y="-597.782" font-family="FreeSans" font-size="14.00" fill="#6666ff">Metamodel::MROBasedTypeChecking</text>
</a>
</g>
</g>
<!-- Metamodel::Trusting -->
<g id="node18" class="node"><title>Metamodel::Trusting</title>
<g id="a_node18"><a xlink:href="/type/Metamodel::Trusting" xlink:title="Metamodel::Trusting">
<ellipse fill="none" stroke="#6666ff" cx="-1009.42" cy="193.154" rx="91.784" ry="18"/>
<text text-anchor="middle" x="-1009.42" y="196.854" font-family="FreeSans" font-size="14.00" fill="#6666ff">Metamodel::Trusting</text>
</a>
</g>
</g>
<!-- Metamodel::BUILDPLAN -->
<g id="node19" class="node"><title>Metamodel::BUILDPLAN</title>
<g id="a_node19"><a xlink:href="/type/Metamodel::BUILDPLAN" xlink:title="Metamodel::BUILDPLAN">
<ellipse fill="none" stroke="#6666ff" cx="-483.201" cy="-609.942" rx="109.681" ry="18"/>
<text text-anchor="middle" x="-483.201" y="-606.242" font-family="FreeSans" font-size="14.00" fill="#6666ff">Metamodel::BUILDPLAN</text>
</a>
</g>
</g>
<!-- Metamodel::Mixins -->
<g id="node20" class="node"><title>Metamodel::Mixins</title>
<g id="a_node20"><a xlink:href="/type/Metamodel::Mixins" xlink:title="Metamodel::Mixins">
<ellipse fill="none" stroke="#6666ff" cx="-1014.15" cy="-160.343" rx="85.2851" ry="18"/>
<text text-anchor="middle" x="-1014.15" y="-156.643" font-family="FreeSans" font-size="14.00" fill="#6666ff">Metamodel::Mixins</text>
</a>
</g>
</g>
<!-- Metamodel::BoolificationProtocol -->
<g id="node21" class="node"><title>Metamodel::BoolificationProtocol</title>
<g id="a_node21"><a xlink:href="/type/Metamodel::BoolificationProtocol" xlink:title="Metamodel::BoolificationProtocol">
<ellipse fill="none" stroke="#6666ff" cx="-265.618" cy="-255.726" rx="139.175" ry="18"/>
<text text-anchor="middle" x="-265.618" y="-252.026" font-family="FreeSans" font-size="14.00" fill="#6666ff">Metamodel::BoolificationProtocol</text>
</a>
</g>
</g>
<!-- Metamodel::ClassHOW -->
<g id="node22" class="node"><title>Metamodel::ClassHOW</title>
<g id="a_node22"><a xlink:href="/type/Metamodel::ClassHOW" xlink:title="Metamodel::ClassHOW">
<ellipse fill="none" stroke="#000000" cx="-168.33" cy="15.9841" rx="103.982" ry="18"/>
<text text-anchor="middle" x="-168.33" y="19.6841" font-family="FreeSans" font-size="14.00" fill="#000000">Metamodel::ClassHOW</text>
</a>
</g>
</g>
<!-- Metamodel::ClassHOW&#45;&gt;Metamodel::MultiMethodContainer -->
<g id="edge14" class="edge"><title>Metamodel::ClassHOW&#45;&gt;Metamodel::MultiMethodContainer</title>
<path fill="none" stroke="#6666ff" d="M-153.151,33.8164C-114.855,78.805 -14.1867,197.065 30.5477,249.617"/>
<polygon fill="#6666ff" stroke="#6666ff" points="33.4121,247.583 37.229,257.466 28.0818,252.12 33.4121,247.583"/>
</g>
<!-- Metamodel::ClassHOW&#45;&gt;Any -->
<g id="edge2" class="edge"><title>Metamodel::ClassHOW&#45;&gt;Any</title>
<path fill="none" stroke="#000000" d="M-173.372,34.0761C-186.509,81.2238 -221.861,208.091 -237.52,264.288"/>
<polygon fill="#000000" stroke="#000000" points="-234.149,265.23 -240.205,273.924 -240.892,263.351 -234.149,265.23"/>
</g>
<!-- Metamodel::ClassHOW&#45;&gt;Metamodel::Naming -->
<g id="edge6" class="edge"><title>Metamodel::ClassHOW&#45;&gt;Metamodel::Naming</title>
<path fill="none" stroke="#6666ff" d="M-132.803,-1.12606C-46.0181,-42.9228 176.566,-150.122 271.194,-195.696"/>
<polygon fill="#6666ff" stroke="#6666ff" points="269.684,-198.853 280.212,-200.039 272.721,-192.546 269.684,-198.853"/>
</g>
<!-- Metamodel::ClassHOW&#45;&gt;Metamodel::Documenting -->
<g id="edge7" class="edge"><title>Metamodel::ClassHOW&#45;&gt;Metamodel::Documenting</title>
<path fill="none" stroke="#6666ff" d="M-147.107,-1.69416C-43.9183,-87.6446 405.244,-461.773 524.652,-561.233"/>
<polygon fill="#6666ff" stroke="#6666ff" points="522.747,-564.201 532.67,-567.912 527.227,-558.823 522.747,-564.201"/>
</g>
<!-- Metamodel::ClassHOW&#45;&gt;Metamodel::Versioning -->
<g id="edge8" class="edge"><title>Metamodel::ClassHOW&#45;&gt;Metamodel::Versioning</title>
<path fill="none" stroke="#6666ff" d="M-193.745,33.5385C-264.877,82.6712 -465.988,221.583 -546.066,276.895"/>
<polygon fill="#6666ff" stroke="#6666ff" points="-544.108,279.797 -554.325,282.6 -548.086,274.037 -544.108,279.797"/>
</g>
<!-- Metamodel::ClassHOW&#45;&gt;Metamodel::Stashing -->
<g id="edge9" class="edge"><title>Metamodel::ClassHOW&#45;&gt;Metamodel::Stashing</title>
<path fill="none" stroke="#6666ff" d="M-271.746,18.0704C-311.829,18.879 -357.627,19.803 -397.693,20.6113"/>
<polygon fill="#6666ff" stroke="#6666ff" points="-397.68,24.1117 -407.749,20.8142 -397.822,17.1131 -397.68,24.1117"/>
</g>
<!-- Metamodel::ClassHOW&#45;&gt;Metamodel::AttributeContainer -->
<g id="edge10" class="edge"><title>Metamodel::ClassHOW&#45;&gt;Metamodel::AttributeContainer</title>
<path fill="none" stroke="#6666ff" d="M-64.2019,15.601C154.076,14.7981 659.722,12.9382 906.4,12.0309"/>
<polygon fill="#6666ff" stroke="#6666ff" points="906.494,8.53061 916.507,11.9937 906.52,15.5306 906.494,8.53061"/>
</g>
<!-- Metamodel::ClassHOW&#45;&gt;Metamodel::Finalization -->
<g id="edge11" class="edge"><title>Metamodel::ClassHOW&#45;&gt;Metamodel::Finalization</title>
<path fill="none" stroke="#6666ff" d="M-187.653,33.7449C-255.279,95.9034 -477.231,299.911 -477.231,299.911 -477.231,299.911 -824.46,512.933 -939.915,583.764"/>
<polygon fill="#6666ff" stroke="#6666ff" points="-938.103,586.758 -948.457,589.004 -941.763,580.792 -938.103,586.758"/>
</g>
<!-- Metamodel::ClassHOW&#45;&gt;Metamodel::MethodContainer -->
<g id="edge12" class="edge"><title>Metamodel::ClassHOW&#45;&gt;Metamodel::MethodContainer</title>
<path fill="none" stroke="#6666ff" d="M-115.318,31.65C-23.0532,58.9159 166.73,115 266.651,144.528"/>
<polygon fill="#6666ff" stroke="#6666ff" points="267.729,141.197 276.327,147.388 265.745,147.91 267.729,141.197"/>
</g>
<!-- Metamodel::ClassHOW&#45;&gt;Metamodel::PrivateMethodContainer -->
<g id="edge13" class="edge"><title>Metamodel::ClassHOW&#45;&gt;Metamodel::PrivateMethodContainer</title>
<path fill="none" stroke="#6666ff" d="M-165.977,34.1385C-154.65,121.522 -105.726,498.957 -91.902,605.603"/>
<polygon fill="#6666ff" stroke="#6666ff" points="-88.4194,605.243 -90.6048,615.61 -95.3614,606.143 -88.4194,605.243"/>
</g>
<!-- Metamodel::ClassHOW&#45;&gt;Metamodel::RoleContainer -->
<g id="edge15" class="edge"><title>Metamodel::ClassHOW&#45;&gt;Metamodel::RoleContainer</title>
<path fill="none" stroke="#6666ff" d="M-76.4537,7.46974C-54.795,5.4626 -31.49,3.3029 -9.12447,1.23026"/>
<polygon fill="#6666ff" stroke="#6666ff" points="-9.20415,-2.27727 1.07619,0.284952 -8.55815,4.69287 -9.20415,-2.27727"/>
</g>
<!-- Metamodel::ClassHOW&#45;&gt;Metamodel::MultipleInheritance -->
<g id="edge16" class="edge"><title>Metamodel::ClassHOW&#45;&gt;Metamodel::MultipleInheritance</title>
<path fill="none" stroke="#6666ff" d="M-104.446,1.77211C38.5748,-30.045 384.232,-106.941 540.914,-141.797"/>
<polygon fill="#6666ff" stroke="#6666ff" points="540.435,-145.276 550.957,-144.032 541.955,-138.444 540.435,-145.276"/>
</g>
<!-- Metamodel::ClassHOW&#45;&gt;Metamodel::DefaultParent -->
<g id="edge17" class="edge"><title>Metamodel::ClassHOW&#45;&gt;Metamodel::DefaultParent</title>
<path fill="none" stroke="#6666ff" d="M-165.415,-2.26811C-155.684,-63.1976 -124.93,-255.765 -124.93,-255.765 -124.93,-255.765 -125.342,-497.934 -125.485,-581.71"/>
<polygon fill="#6666ff" stroke="#6666ff" points="-128.985,-581.774 -125.502,-591.78 -121.985,-581.786 -128.985,-581.774"/>
</g>
<!-- Metamodel::ClassHOW&#45;&gt;Metamodel::C3MRO -->
<g id="edge18" class="edge"><title>Metamodel::ClassHOW&#45;&gt;Metamodel::C3MRO</title>
<path fill="none" stroke="#6666ff" d="M-184.702,-1.81027C-240.215,-62.1454 -417.855,-255.218 -417.855,-255.218 -417.855,-255.218 -816.868,-483.541 -944.403,-556.519"/>
<polygon fill="#6666ff" stroke="#6666ff" points="-946.166,-553.495 -953.107,-561.499 -942.69,-559.571 -946.166,-553.495"/>
</g>
<!-- Metamodel::ClassHOW&#45;&gt;Metamodel::MROBasedMethodDispatch -->
<g id="edge19" class="edge"><title>Metamodel::ClassHOW&#45;&gt;Metamodel::MROBasedMethodDispatch</title>
<path fill="none" stroke="#6666ff" d="M-195.613,-1.59653C-268.881,-48.8091 -469.975,-178.39 -552.754,-231.731"/>
<polygon fill="#6666ff" stroke="#6666ff" points="-554.809,-228.892 -561.32,-237.25 -551.018,-234.776 -554.809,-228.892"/>
</g>
<!-- Metamodel::ClassHOW&#45;&gt;Metamodel::MROBasedTypeChecking -->
<g id="edge20" class="edge"><title>Metamodel::ClassHOW&#45;&gt;Metamodel::MROBasedTypeChecking</title>
<path fill="none" stroke="#6666ff" d="M-163.118,-2.23532C-144.876,-65.9984 -85.0038,-275.272 -85.0038,-275.272 -85.0038,-275.272 111.891,-498.527 179.907,-575.648"/>
<polygon fill="#6666ff" stroke="#6666ff" points="177.574,-578.294 186.813,-583.479 182.823,-573.664 177.574,-578.294"/>
</g>
<!-- Metamodel::ClassHOW&#45;&gt;Metamodel::Trusting -->
<g id="edge21" class="edge"><title>Metamodel::ClassHOW&#45;&gt;Metamodel::Trusting</title>
<path fill="none" stroke="#6666ff" d="M-234.681,29.9603C-389.891,62.6543 -775.666,143.915 -936.847,177.867"/>
<polygon fill="#6666ff" stroke="#6666ff" points="-936.165,181.3 -946.672,179.936 -937.608,174.45 -936.165,181.3"/>
</g>
<!-- Metamodel::ClassHOW&#45;&gt;Metamodel::BUILDPLAN -->
<g id="edge22" class="edge"><title>Metamodel::ClassHOW&#45;&gt;Metamodel::BUILDPLAN</title>
<path fill="none" stroke="#6666ff" d="M-183.944,-1.84112C-236.887,-62.2809 -406.305,-255.688 -406.305,-255.688 -406.305,-255.688 -459.008,-498.484 -477.151,-582.068"/>
<polygon fill="#6666ff" stroke="#6666ff" points="-480.581,-581.372 -479.282,-591.887 -473.74,-582.857 -480.581,-581.372"/>
</g>
<!-- Metamodel::ClassHOW&#45;&gt;Metamodel::Mixins -->
<g id="edge23" class="edge"><title>Metamodel::ClassHOW&#45;&gt;Metamodel::Mixins</title>
<path fill="none" stroke="#6666ff" d="M-235.053,2.07433C-391.743,-30.5908 -782.102,-111.969 -943.047,-145.521"/>
<polygon fill="#6666ff" stroke="#6666ff" points="-944.236,-142.194 -953.312,-147.661 -942.808,-149.046 -944.236,-142.194"/>
</g>
<!-- Metamodel::ClassHOW&#45;&gt;Metamodel::BoolificationProtocol -->
<g id="edge24" class="edge"><title>Metamodel::ClassHOW&#45;&gt;Metamodel::BoolificationProtocol</title>
<path fill="none" stroke="#6666ff" d="M-174.865,-2.26554C-191.549,-48.8635 -235.806,-172.467 -255.694,-228.011"/>
<polygon fill="#6666ff" stroke="#6666ff" points="-259.036,-226.962 -259.112,-237.556 -252.446,-229.321 -259.036,-226.962"/>
</g>
<!-- Metamodel::ConcreteRoleHOW -->
<g id="node23" class="node"><title>Metamodel::ConcreteRoleHOW</title>
<g id="a_node23"><a xlink:href="/type/Metamodel::ConcreteRoleHOW" xlink:title="Metamodel::ConcreteRoleHOW">
<ellipse fill="none" stroke="#000000" cx="226.4" cy="595.294" rx="135.676" ry="18"/>
<text text-anchor="middle" x="226.4" y="598.994" font-family="FreeSans" font-size="14.00" fill="#000000">Metamodel::ConcreteRoleHOW</text>
</a>
</g>
</g>
<!-- Metamodel::ConcreteRoleHOW&#45;&gt;Metamodel::MultiMethodContainer -->
<g id="edge29" class="edge"><title>Metamodel::ConcreteRoleHOW&#45;&gt;Metamodel::MultiMethodContainer</title>
<path fill="none" stroke="#6666ff" d="M216.553,577.18C187.51,523.754 102.07,366.582 67.3938,302.794"/>
<polygon fill="#6666ff" stroke="#6666ff" points="64.1704,304.193 62.4694,293.735 70.3205,300.849 64.1704,304.193"/>
</g>
<!-- Metamodel::ConcreteRoleHOW&#45;&gt;Any -->
<g id="edge3" class="edge"><title>Metamodel::ConcreteRoleHOW&#45;&gt;Any</title>
<path fill="none" stroke="#000000" d="M199.009,577.66C115.843,524.123 -133.173,363.819 -217.155,309.756"/>
<polygon fill="#000000" stroke="#000000" points="-219.148,312.635 -225.661,304.279 -215.359,306.749 -219.148,312.635"/>
</g>
<!-- Metamodel::ConcreteRoleHOW&#45;&gt;Metamodel::Naming -->
<g id="edge25" class="edge"><title>Metamodel::ConcreteRoleHOW&#45;&gt;Metamodel::Naming</title>
<path fill="none" stroke="#6666ff" d="M225.387,577.024C220.83,494.876 202.46,163.694 202.46,163.694 202.46,163.694 280.656,-101.054 306.578,-188.817"/>
<polygon fill="#6666ff" stroke="#6666ff" points="303.282,-190.014 309.472,-198.613 309.996,-188.031 303.282,-190.014"/>
</g>
<!-- Metamodel::ConcreteRoleHOW&#45;&gt;Metamodel::Versioning -->
<g id="edge26" class="edge"><title>Metamodel::ConcreteRoleHOW&#45;&gt;Metamodel::Versioning</title>
<path fill="none" stroke="#6666ff" d="M180.173,578.359C40.5785,527.22 -376.224,374.531 -525.576,319.817"/>
<polygon fill="#6666ff" stroke="#6666ff" points="-526.836,323.084 -535.021,316.357 -524.428,316.511 -526.836,323.084"/>
</g>
<!-- Metamodel::ConcreteRoleHOW&#45;&gt;Metamodel::AttributeContainer -->
<g id="edge30" class="edge"><title>Metamodel::ConcreteRoleHOW&#45;&gt;Metamodel::AttributeContainer</title>
<path fill="none" stroke="#6666ff" d="M252.075,577.481C360.327,502.38 773.945,215.425 773.945,215.425 773.945,215.425 942.695,89.3239 1014.79,35.4518"/>
<polygon fill="#6666ff" stroke="#6666ff" points="1012.98,32.4357 1023.08,29.2534 1017.17,38.0431 1012.98,32.4357"/>
</g>
<!-- Metamodel::ConcreteRoleHOW&#45;&gt;Metamodel::MethodContainer -->
<g id="edge28" class="edge"><title>Metamodel::ConcreteRoleHOW&#45;&gt;Metamodel::MethodContainer</title>
<path fill="none" stroke="#6666ff" d="M230.78,577.297C247.132,510.114 304.681,273.659 324.601,191.811"/>
<polygon fill="#6666ff" stroke="#6666ff" points="321.284,190.639 327.05,181.75 328.086,192.295 321.284,190.639"/>
</g>
<!-- Metamodel::ConcreteRoleHOW&#45;&gt;Metamodel::PrivateMethodContainer -->
<g id="edge27" class="edge"><title>Metamodel::ConcreteRoleHOW&#45;&gt;Metamodel::PrivateMethodContainer</title>
<path fill="none" stroke="#6666ff" d="M126.41,607.519C95.3962,611.311 60.9384,615.524 28.8695,619.445"/>
<polygon fill="#6666ff" stroke="#6666ff" points="28.8997,622.968 18.5488,620.707 28.0501,616.019 28.8997,622.968"/>
</g>
<!-- Metamodel::ConcreteRoleHOW&#45;&gt;Metamodel::RoleContainer -->
<g id="edge31" class="edge"><title>Metamodel::ConcreteRoleHOW&#45;&gt;Metamodel::RoleContainer</title>
<path fill="none" stroke="#6666ff" d="M224.925,577.174C219.414,509.488 200.35,275.33 200.35,275.33 200.35,275.33 135.688,90.6176 110.607,18.9717"/>
<polygon fill="#6666ff" stroke="#6666ff" points="107.207,19.8516 107.206,9.25678 113.814,17.5387 107.207,19.8516"/>
</g>
<!-- Metamodel::ConcreteRoleHOW&#45;&gt;Metamodel::MultipleInheritance -->
<g id="edge32" class="edge"><title>Metamodel::ConcreteRoleHOW&#45;&gt;Metamodel::MultipleInheritance</title>
<path fill="none" stroke="#6666ff" d="M236.159,577.296C280.452,495.606 460.437,163.66 460.437,163.66 460.437,163.66 568.156,-53.8349 606.852,-131.967"/>
<polygon fill="#6666ff" stroke="#6666ff" points="603.85,-133.792 611.425,-141.2 610.123,-130.685 603.85,-133.792"/>
</g>
<!-- Metamodel::BaseType -->
<g id="node24" class="node"><title>Metamodel::BaseType</title>
<g id="a_node24"><a xlink:href="/type/Metamodel::BaseType" xlink:title="Metamodel::BaseType">
<ellipse fill="none" stroke="#6666ff" cx="1021.33" cy="-522.849" rx="99.3824" ry="18"/>
<text text-anchor="middle" x="1021.33" y="-519.149" font-family="FreeSans" font-size="14.00" fill="#6666ff">Metamodel::BaseType</text>
</a>
</g>
</g>
<!-- Metamodel::EnumHOW -->
<g id="node25" class="node"><title>Metamodel::EnumHOW</title>
<g id="a_node25"><a xlink:href="/type/Metamodel::EnumHOW" xlink:title="Metamodel::EnumHOW">
<ellipse fill="none" stroke="#000000" cx="21.2365" cy="-275.324" rx="104.782" ry="18"/>
<text text-anchor="middle" x="21.2365" y="-271.624" font-family="FreeSans" font-size="14.00" fill="#000000">Metamodel::EnumHOW</text>
</a>
</g>
</g>
<!-- Metamodel::EnumHOW&#45;&gt;Metamodel::MultiMethodContainer -->
<g id="edge37" class="edge"><title>Metamodel::EnumHOW&#45;&gt;Metamodel::MultiMethodContainer</title>
<path fill="none" stroke="#6666ff" d="M18.6456,-257.007C10.1294,-196.796 -16.4577,-8.82116 -16.4577,-8.82116 -16.4577,-8.82116 28.1726,175.106 45.6311,247.055"/>
<polygon fill="#6666ff" stroke="#6666ff" points="49.1384,246.667 48.0953,257.21 42.3358,248.317 49.1384,246.667"/>
</g>
<!-- Metamodel::EnumHOW&#45;&gt;Any -->
<g id="edge4" class="edge"><title>Metamodel::EnumHOW&#45;&gt;Any</title>
<path fill="none" stroke="#000000" d="M15.9833,-257.109C-2.40151,-193.36 -62.7414,15.8678 -62.7414,15.8678 -62.7414,15.8678 -183.348,198.246 -228.43,266.418"/>
<polygon fill="#000000" stroke="#000000" points="-225.593,268.473 -234.028,274.883 -231.432,264.611 -225.593,268.473"/>
</g>
<!-- Metamodel::EnumHOW&#45;&gt;Metamodel::Naming -->
<g id="edge33" class="edge"><title>Metamodel::EnumHOW&#45;&gt;Metamodel::Naming</title>
<path fill="none" stroke="#6666ff" d="M89.6972,-261.655C135.001,-252.609 194.381,-240.752 240.781,-231.487"/>
<polygon fill="#6666ff" stroke="#6666ff" points="241.653,-234.882 250.774,-229.492 240.283,-228.017 241.653,-234.882"/>
</g>
<!-- Metamodel::EnumHOW&#45;&gt;Metamodel::Stashing -->
<g id="edge34" class="edge"><title>Metamodel::EnumHOW&#45;&gt;Metamodel::Stashing</title>
<path fill="none" stroke="#6666ff" d="M-9.09484,-258.014C-98.6967,-206.875 -362.155,-56.5128 -461.988,0.464311"/>
<polygon fill="#6666ff" stroke="#6666ff" points="-460.429,3.60457 -470.849,5.52164 -463.899,-2.47498 -460.429,3.60457"/>
</g>
<!-- Metamodel::EnumHOW&#45;&gt;Metamodel::AttributeContainer -->
<g id="edge35" class="edge"><title>Metamodel::EnumHOW&#45;&gt;Metamodel::AttributeContainer</title>
<path fill="none" stroke="#6666ff" d="M71.1506,-259.5C138.453,-238.163 249.971,-202.809 249.971,-202.809 249.971,-202.809 783.543,-59.2977 977.452,-7.14339"/>
<polygon fill="#6666ff" stroke="#6666ff" points="978.506,-10.4843 987.254,-4.50706 976.688,-3.72457 978.506,-10.4843"/>
</g>
<!-- Metamodel::EnumHOW&#45;&gt;Metamodel::MethodContainer -->
<g id="edge36" class="edge"><title>Metamodel::EnumHOW&#45;&gt;Metamodel::MethodContainer</title>
<path fill="none" stroke="#6666ff" d="M34.46,-257.443C78.6028,-197.752 218.116,-9.09738 218.116,-9.09738 218.116,-9.09738 282.21,88.613 313.997,137.073"/>
<polygon fill="#6666ff" stroke="#6666ff" points="316.976,135.232 319.534,145.514 311.123,139.072 316.976,135.232"/>
</g>
<!-- Metamodel::EnumHOW&#45;&gt;Metamodel::RoleContainer -->
<g id="edge38" class="edge"><title>Metamodel::EnumHOW&#45;&gt;Metamodel::RoleContainer</title>
<path fill="none" stroke="#6666ff" d="M26.7072,-257.016C40.4002,-211.191 76.2182,-91.3222 92.5265,-36.745"/>
<polygon fill="#6666ff" stroke="#6666ff" points="95.9158,-37.627 95.4254,-27.0435 89.2088,-35.6229 95.9158,-37.627"/>
</g>
<!-- Metamodel::EnumHOW&#45;&gt;Metamodel::MROBasedMethodDispatch -->
<g id="edge40" class="edge"><title>Metamodel::EnumHOW&#45;&gt;Metamodel::MROBasedMethodDispatch</title>
<path fill="none" stroke="#6666ff" d="M-83.6425,-275.325C-165.665,-275.326 -265.892,-275.326 -265.892,-275.326 -265.892,-275.326 -365.293,-269.559 -365.293,-269.559 -365.293,-269.559 -395.378,-267.621 -433.487,-265.166"/>
<polygon fill="#6666ff" stroke="#6666ff" points="-433.676,-261.647 -443.88,-264.497 -434.126,-268.633 -433.676,-261.647"/>
</g>
<!-- Metamodel::EnumHOW&#45;&gt;Metamodel::MROBasedTypeChecking -->
<g id="edge41" class="edge"><title>Metamodel::EnumHOW&#45;&gt;Metamodel::MROBasedTypeChecking</title>
<path fill="none" stroke="#6666ff" d="M31.2507,-293.325C61.4174,-347.548 151.556,-509.569 187.575,-574.313"/>
<polygon fill="#6666ff" stroke="#6666ff" points="184.563,-576.098 192.484,-583.135 190.68,-572.695 184.563,-576.098"/>
</g>
<!-- Metamodel::EnumHOW&#45;&gt;Metamodel::BUILDPLAN -->
<g id="edge42" class="edge"><title>Metamodel::EnumHOW&#45;&gt;Metamodel::BUILDPLAN</title>
<path fill="none" stroke="#6666ff" d="M-5.17404,-292.844C-89.6058,-348.851 -353,-523.573 -448.323,-586.806"/>
<polygon fill="#6666ff" stroke="#6666ff" points="-450.35,-583.95 -456.749,-592.395 -446.481,-589.783 -450.35,-583.95"/>
</g>
<!-- Metamodel::EnumHOW&#45;&gt;Metamodel::BoolificationProtocol -->
<g id="edge43" class="edge"><title>Metamodel::EnumHOW&#45;&gt;Metamodel::BoolificationProtocol</title>
<path fill="none" stroke="#6666ff" d="M-76.2795,-268.662C-94.3152,-267.43 -113.434,-266.124 -132.317,-264.834"/>
<polygon fill="#6666ff" stroke="#6666ff" points="-132.252,-261.33 -142.468,-264.14 -132.73,-268.314 -132.252,-261.33"/>
</g>
<!-- Metamodel::EnumHOW&#45;&gt;Metamodel::BaseType -->
<g id="edge39" class="edge"><title>Metamodel::EnumHOW&#45;&gt;Metamodel::BaseType</title>
<path fill="none" stroke="#6666ff" d="M81.1725,-290.159C256.311,-333.506 766.586,-459.8 952.521,-505.819"/>
<polygon fill="#6666ff" stroke="#6666ff" points="951.903,-509.272 962.451,-508.277 953.585,-502.477 951.903,-509.272"/>
</g>
<!-- Metamodel::TypePretense -->
<g id="node26" class="node"><title>Metamodel::TypePretense</title>
<g id="a_node26"><a xlink:href="/type/Metamodel::TypePretense" xlink:title="Metamodel::TypePretense">
<ellipse fill="none" stroke="#6666ff" cx="554.853" cy="616.3" rx="114.28" ry="18"/>
<text text-anchor="middle" x="554.853" y="620" font-family="FreeSans" font-size="14.00" fill="#6666ff">Metamodel::TypePretense</text>
</a>
</g>
</g>
<!-- Metamodel::RolePunning -->
<g id="node27" class="node"><title>Metamodel::RolePunning</title>
<g id="a_node27"><a xlink:href="/type/Metamodel::RolePunning" xlink:title="Metamodel::RolePunning">
<ellipse fill="none" stroke="#6666ff" cx="1024.86" cy="547.919" rx="109.681" ry="18"/>
<text text-anchor="middle" x="1024.86" y="551.619" font-family="FreeSans" font-size="14.00" fill="#6666ff">Metamodel::RolePunning</text>
</a>
</g>
</g>
<!-- Metamodel::ParametricRoleHOW -->
<g id="node28" class="node"><title>Metamodel::ParametricRoleHOW</title>
<g id="a_node28"><a xlink:href="/type/Metamodel::ParametricRoleHOW" xlink:title="Metamodel::ParametricRoleHOW">
<ellipse fill="none" stroke="#000000" cx="630.012" cy="215.582" rx="142.175" ry="18"/>
<text text-anchor="middle" x="630.012" y="219.282" font-family="FreeSans" font-size="14.00" fill="#000000">Metamodel::ParametricRoleHOW</text>
</a>
</g>
</g>
<!-- Metamodel::ParametricRoleHOW&#45;&gt;Metamodel::MultiMethodContainer -->
<g id="edge49" class="edge"><title>Metamodel::ParametricRoleHOW&#45;&gt;Metamodel::MultiMethodContainer</title>
<path fill="none" stroke="#6666ff" d="M519.689,227.014C420.995,237.241 276.564,252.207 174.469,262.786"/>
<polygon fill="#6666ff" stroke="#6666ff" points="174.722,266.279 164.414,263.828 174,259.316 174.722,266.279"/>
</g>
<!-- Metamodel::ParametricRoleHOW&#45;&gt;Any -->
<g id="edge5" class="edge"><title>Metamodel::ParametricRoleHOW&#45;&gt;Any</title>
<path fill="none" stroke="#000000" d="M504.428,224.055C307.301,237.354 -52.5172,261.63 -52.5172,261.63 -52.5172,261.63 -152.692,277.279 -208.569,286.007"/>
<polygon fill="#000000" stroke="#000000" points="-208.362,289.517 -218.782,287.603 -209.442,282.601 -208.362,289.517"/>
</g>
<!-- Metamodel::ParametricRoleHOW&#45;&gt;Metamodel::Naming -->
<g id="edge44" class="edge"><title>Metamodel::ParametricRoleHOW&#45;&gt;Metamodel::Naming</title>
<path fill="none" stroke="#6666ff" d="M616.87,197.557C567.408,129.721 392.304,-110.43 333.919,-190.503"/>
<polygon fill="#6666ff" stroke="#6666ff" points="331.077,-188.46 328.014,-198.603 336.733,-192.585 331.077,-188.46"/>
</g>
<!-- Metamodel::ParametricRoleHOW&#45;&gt;Metamodel::Documenting -->
<g id="edge45" class="edge"><title>Metamodel::ParametricRoleHOW&#45;&gt;Metamodel::Documenting</title>
<path fill="none" stroke="#6666ff" d="M623.018,197.498C594.052,122.604 485.004,-159.351 485.004,-159.351 485.004,-159.351 534.016,-462.596 549.36,-557.53"/>
<polygon fill="#6666ff" stroke="#6666ff" points="545.928,-558.235 550.979,-567.549 552.839,-557.118 545.928,-558.235"/>
</g>
<!-- Metamodel::ParametricRoleHOW&#45;&gt;Metamodel::Versioning -->
<g id="edge46" class="edge"><title>Metamodel::ParametricRoleHOW&#45;&gt;Metamodel::Versioning</title>
<path fill="none" stroke="#6666ff" d="M503.183,223.773C260.562,239.444 -245.434,272.125 -245.434,272.125 -245.434,272.125 -379.937,283.361 -478.27,291.575"/>
<polygon fill="#6666ff" stroke="#6666ff" points="-478.009,295.066 -488.266,292.41 -478.592,288.09 -478.009,295.066"/>
</g>
<!-- Metamodel::ParametricRoleHOW&#45;&gt;Metamodel::Stashing -->
<g id="edge53" class="edge"><title>Metamodel::ParametricRoleHOW&#45;&gt;Metamodel::Stashing</title>
<path fill="none" stroke="#6666ff" d="M517.297,204.581C402.206,193.348 240.32,177.549 240.32,177.549 240.32,177.549 -240.049,77.1959 -427.381,38.0609"/>
<polygon fill="#6666ff" stroke="#6666ff" points="-428.345,41.435 -437.418,35.9639 -426.914,34.5829 -428.345,41.435"/>
</g>
<!-- Metamodel::ParametricRoleHOW&#45;&gt;Metamodel::AttributeContainer -->
<g id="edge50" class="edge"><title>Metamodel::ParametricRoleHOW&#45;&gt;Metamodel::AttributeContainer</title>
<path fill="none" stroke="#6666ff" d="M665.91,198.006C741.87,160.817 918.706,74.2388 1001.96,33.478"/>
<polygon fill="#6666ff" stroke="#6666ff" points="1000.64,30.2287 1011.16,28.9749 1003.72,36.5156 1000.64,30.2287"/>
</g>
<!-- Metamodel::ParametricRoleHOW&#45;&gt;Metamodel::MethodContainer -->
<g id="edge47" class="edge"><title>Metamodel::ParametricRoleHOW&#45;&gt;Metamodel::MethodContainer</title>
<path fill="none" stroke="#6666ff" d="M546.051,200.985C507.334,194.254 461.315,186.254 421.84,179.391"/>
<polygon fill="#6666ff" stroke="#6666ff" points="421.206,182.834 411.953,177.673 422.405,175.937 421.206,182.834"/>
</g>
<!-- Metamodel::ParametricRoleHOW&#45;&gt;Metamodel::PrivateMethodContainer -->
<g id="edge48" class="edge"><title>Metamodel::ParametricRoleHOW&#45;&gt;Metamodel::PrivateMethodContainer</title>
<path fill="none" stroke="#6666ff" d="M599.608,233.283C485.006,300.006 79.1735,536.288 -49.0921,610.966"/>
<polygon fill="#6666ff" stroke="#6666ff" points="-47.4367,614.052 -57.8397,616.059 -50.9588,608.003 -47.4367,614.052"/>
</g>
<!-- Metamodel::ParametricRoleHOW&#45;&gt;Metamodel::RoleContainer -->
<g id="edge51" class="edge"><title>Metamodel::ParametricRoleHOW&#45;&gt;Metamodel::RoleContainer</title>
<path fill="none" stroke="#6666ff" d="M588.929,198.149C492.849,157.381 253.795,55.9467 150.107,11.9502"/>
<polygon fill="#6666ff" stroke="#6666ff" points="148.639,15.1293 140.8,8.00121 151.373,8.68539 148.639,15.1293"/>
</g>
<!-- Metamodel::ParametricRoleHOW&#45;&gt;Metamodel::MultipleInheritance -->
<g id="edge52" class="edge"><title>Metamodel::ParametricRoleHOW&#45;&gt;Metamodel::MultipleInheritance</title>
<path fill="none" stroke="#6666ff" d="M629.553,197.491C628.023,137.221 623.089,-57.0849 621.217,-130.788"/>
<polygon fill="#6666ff" stroke="#6666ff" points="617.709,-131.065 620.954,-141.151 624.707,-131.243 617.709,-131.065"/>
</g>
<!-- Metamodel::ParametricRoleHOW&#45;&gt;Metamodel::TypePretense -->
<g id="edge54" class="edge"><title>Metamodel::ParametricRoleHOW&#45;&gt;Metamodel::TypePretense</title>
<path fill="none" stroke="#6666ff" d="M626.637,233.578C614.743,296.994 574.713,510.416 560.181,587.894"/>
<polygon fill="#6666ff" stroke="#6666ff" points="563.589,588.711 558.305,597.894 556.709,587.42 563.589,588.711"/>
</g>
<!-- Metamodel::ParametricRoleHOW&#45;&gt;Metamodel::RolePunning -->
<g id="edge55" class="edge"><title>Metamodel::ParametricRoleHOW&#45;&gt;Metamodel::RolePunning</title>
<path fill="none" stroke="#6666ff" d="M651.241,233.45C717.39,289.126 919.884,459.56 995.754,523.418"/>
<polygon fill="#6666ff" stroke="#6666ff" points="998.134,520.846 1003.53,529.963 993.626,526.201 998.134,520.846"/>
</g>
</g>
</svg>
