<?xml version="1.0" encoding="UTF-8" standalone="no"?>
<!DOCTYPE svg PUBLIC "-//W3C//DTD SVG 1.1//EN"
 "http://www.w3.org/Graphics/SVG/1.1/DTD/svg11.dtd">
<!-- Generated by graphviz version 2.38.0 (20140413.2041)
 -->
<!-- Title: perl6&#45;type&#45;graph Pages: 1 -->
<svg width="1419pt" height="332pt"
 viewBox="0.00 0.00 1419.13 332.00" xmlns="http://www.w3.org/2000/svg" xmlns:xlink="http://www.w3.org/1999/xlink">
<g id="graph0" class="graph" transform="scale(1 1) rotate(0) translate(4 328)">
<title>perl6&#45;type&#45;graph</title>
<polygon fill="white" stroke="none" points="-4,4 -4,-328 1415.13,-328 1415.13,4 -4,4"/>
<!-- X::Proc::Async -->
<g id="node1" class="node"><title>X::Proc::Async</title>
<g id="a_node1"><a xlink:href="/type/X::Proc::Async" xlink:title="X::Proc::Async">
<ellipse fill="none" stroke="#6666ff" cx="671.838" cy="-90" rx="68.4888" ry="18"/>
<text text-anchor="middle" x="671.838" y="-86.3" font-family="FreeSans" font-size="14.00" fill="#6666ff">X::Proc::Async</text>
</a>
</g>
</g>
<!-- Exception -->
<g id="node4" class="node"><title>Exception</title>
<g id="a_node4"><a xlink:href="/type/Exception" xlink:title="Exception">
<ellipse fill="none" stroke="#000000" cx="719.838" cy="-162" rx="49.2915" ry="18"/>
<text text-anchor="middle" x="719.838" y="-158.3" font-family="FreeSans" font-size="14.00" fill="#000000">Exception</text>
</a>
</g>
</g>
<!-- X::Proc::Async&#45;&gt;Exception -->
<g id="edge1" class="edge"><title>X::Proc::Async&#45;&gt;Exception</title>
<path fill="none" stroke="#000000" d="M683.457,-107.945C689.176,-116.285 696.187,-126.509 702.522,-135.748"/>
<polygon fill="#000000" stroke="#000000" points="699.784,-137.943 708.325,-144.211 705.557,-133.984 699.784,-137.943"/>
</g>
<!-- Mu -->
<g id="node2" class="node"><title>Mu</title>
<g id="a_node2"><a xlink:href="/type/Mu" xlink:title="Mu">
<ellipse fill="none" stroke="#000000" cx="719.838" cy="-306" rx="27" ry="18"/>
<text text-anchor="middle" x="719.838" y="-302.3" font-family="FreeSans" font-size="14.00" fill="#000000">Mu</text>
</a>
</g>
</g>
<!-- Any -->
<g id="node3" class="node"><title>Any</title>
<g id="a_node3"><a xlink:href="/type/Any" xlink:title="Any">
<ellipse fill="none" stroke="#000000" cx="719.838" cy="-234" rx="27" ry="18"/>
<text text-anchor="middle" x="719.838" y="-230.3" font-family="FreeSans" font-size="14.00" fill="#000000">Any</text>
</a>
</g>
</g>
<!-- Any&#45;&gt;Mu -->
<g id="edge2" class="edge"><title>Any&#45;&gt;Mu</title>
<path fill="none" stroke="#000000" d="M719.838,-252.303C719.838,-260.017 719.838,-269.288 719.838,-277.888"/>
<polygon fill="#000000" stroke="#000000" points="716.338,-277.896 719.838,-287.896 723.338,-277.896 716.338,-277.896"/>
</g>
<!-- Exception&#45;&gt;Any -->
<g id="edge3" class="edge"><title>Exception&#45;&gt;Any</title>
<path fill="none" stroke="#000000" d="M719.838,-180.303C719.838,-188.017 719.838,-197.288 719.838,-205.888"/>
<polygon fill="#000000" stroke="#000000" points="716.338,-205.896 719.838,-215.896 723.338,-205.896 716.338,-205.896"/>
</g>
<!-- X::Proc::Async::OpenForWriting -->
<g id="node5" class="node"><title>X::Proc::Async::OpenForWriting</title>
<g id="a_node5"><a xlink:href="/type/X::Proc::Async::OpenForWriting" xlink:title="X::Proc::Async::OpenForWriting">
<ellipse fill="none" stroke="#000000" cx="135.838" cy="-18" rx="135.676" ry="18"/>
<text text-anchor="middle" x="135.838" y="-14.3" font-family="FreeSans" font-size="14.00" fill="#000000">X::Proc::Async::OpenForWriting</text>
</a>
</g>
</g>
<!-- X::Proc::Async::OpenForWriting&#45;&gt;X::Proc::Async -->
<g id="edge9" class="edge"><title>X::Proc::Async::OpenForWriting&#45;&gt;X::Proc::Async</title>
<path fill="none" stroke="#6666ff" d="M228.896,-31.1531C335.193,-45.0352 506.7,-67.4335 602.115,-79.8944"/>
<polygon fill="#6666ff" stroke="#6666ff" points="601.866,-83.3915 612.235,-81.216 602.772,-76.4504 601.866,-83.3915"/>
</g>
<!-- X::Proc::Async::OpenForWriting&#45;&gt;Exception -->
<g id="edge4" class="edge"><title>X::Proc::Async::OpenForWriting&#45;&gt;Exception</title>
<path fill="none" stroke="#000000" d="M197.783,-34.0621C314.237,-62.3778 563.637,-123.02 670.057,-148.896"/>
<polygon fill="#000000" stroke="#000000" points="669.356,-152.327 679.9,-151.289 671.01,-145.525 669.356,-152.327"/>
</g>
<!-- X::Proc::Async::TapBeforeSpawn -->
<g id="node6" class="node"><title>X::Proc::Async::TapBeforeSpawn</title>
<g id="a_node6"><a xlink:href="/type/X::Proc::Async::TapBeforeSpawn" xlink:title="X::Proc::Async::TapBeforeSpawn">
<ellipse fill="none" stroke="#000000" cx="431.838" cy="-18" rx="141.875" ry="18"/>
<text text-anchor="middle" x="431.838" y="-14.3" font-family="FreeSans" font-size="14.00" fill="#000000">X::Proc::Async::TapBeforeSpawn</text>
</a>
</g>
</g>
<!-- X::Proc::Async::TapBeforeSpawn&#45;&gt;X::Proc::Async -->
<g id="edge10" class="edge"><title>X::Proc::Async::TapBeforeSpawn&#45;&gt;X::Proc::Async</title>
<path fill="none" stroke="#6666ff" d="M485.699,-34.7094C525.194,-46.229 578.591,-61.8031 618.066,-73.3166"/>
<polygon fill="#6666ff" stroke="#6666ff" points="617.205,-76.7113 627.786,-76.1514 619.166,-69.9913 617.205,-76.7113"/>
</g>
<!-- X::Proc::Async::TapBeforeSpawn&#45;&gt;Exception -->
<g id="edge5" class="edge"><title>X::Proc::Async::TapBeforeSpawn&#45;&gt;Exception</title>
<path fill="none" stroke="#000000" d="M462.497,-35.7402C509.714,-61.5213 594.838,-108 594.838,-108 594.838,-108 642.942,-128.396 679.467,-143.883"/>
<polygon fill="#000000" stroke="#000000" points="678.366,-147.218 688.939,-147.899 681.099,-140.773 678.366,-147.218"/>
</g>
<!-- X::Proc::Async::CharsOrBytes -->
<g id="node7" class="node"><title>X::Proc::Async::CharsOrBytes</title>
<g id="a_node7"><a xlink:href="/type/X::Proc::Async::CharsOrBytes" xlink:title="X::Proc::Async::CharsOrBytes">
<ellipse fill="none" stroke="#000000" cx="719.838" cy="-18" rx="128.877" ry="18"/>
<text text-anchor="middle" x="719.838" y="-14.3" font-family="FreeSans" font-size="14.00" fill="#000000">X::Proc::Async::CharsOrBytes</text>
</a>
</g>
</g>
<!-- X::Proc::Async::CharsOrBytes&#45;&gt;X::Proc::Async -->
<g id="edge11" class="edge"><title>X::Proc::Async::CharsOrBytes&#45;&gt;X::Proc::Async</title>
<path fill="none" stroke="#6666ff" d="M708.218,-35.945C702.499,-44.2853 695.489,-54.5092 689.153,-63.7483"/>
<polygon fill="#6666ff" stroke="#6666ff" points="686.119,-61.9843 683.35,-72.211 691.892,-65.9431 686.119,-61.9843"/>
</g>
<!-- X::Proc::Async::CharsOrBytes&#45;&gt;Exception -->
<g id="edge6" class="edge"><title>X::Proc::Async::CharsOrBytes&#45;&gt;Exception</title>
<path fill="none" stroke="#000000" d="M729.173,-36.0613C737.651,-51.5549 748.838,-72 748.838,-72 748.838,-72 748.838,-108 748.838,-108 748.838,-108 741.36,-121.667 733.998,-135.121"/>
<polygon fill="#000000" stroke="#000000" points="730.743,-133.778 729.014,-144.23 736.884,-137.138 730.743,-133.778"/>
</g>
<!-- X::Proc::Async::MustBeStarted -->
<g id="node8" class="node"><title>X::Proc::Async::MustBeStarted</title>
<g id="a_node8"><a xlink:href="/type/X::Proc::Async::MustBeStarted" xlink:title="X::Proc::Async::MustBeStarted">
<ellipse fill="none" stroke="#000000" cx="998.838" cy="-18" rx="131.877" ry="18"/>
<text text-anchor="middle" x="998.838" y="-14.3" font-family="FreeSans" font-size="14.00" fill="#000000">X::Proc::Async::MustBeStarted</text>
</a>
</g>
</g>
<!-- X::Proc::Async::MustBeStarted&#45;&gt;X::Proc::Async -->
<g id="edge12" class="edge"><title>X::Proc::Async::MustBeStarted&#45;&gt;X::Proc::Async</title>
<path fill="none" stroke="#6666ff" d="M931.083,-33.504C872.758,-45.9895 789.335,-63.8478 733.008,-75.9055"/>
<polygon fill="#6666ff" stroke="#6666ff" points="732.212,-72.4965 723.166,-78.0123 733.677,-79.3414 732.212,-72.4965"/>
</g>
<!-- X::Proc::Async::MustBeStarted&#45;&gt;Exception -->
<g id="edge7" class="edge"><title>X::Proc::Async::MustBeStarted&#45;&gt;Exception</title>
<path fill="none" stroke="#000000" d="M966.287,-35.5671C913.972,-62.1934 811.505,-114.345 756.619,-142.28"/>
<polygon fill="#000000" stroke="#000000" points="754.915,-139.22 747.59,-146.875 758.09,-145.458 754.915,-139.22"/>
</g>
<!-- X::Proc::Async::AlreadyStarted -->
<g id="node9" class="node"><title>X::Proc::Async::AlreadyStarted</title>
<g id="a_node9"><a xlink:href="/type/X::Proc::Async::AlreadyStarted" xlink:title="X::Proc::Async::AlreadyStarted">
<ellipse fill="none" stroke="#000000" cx="1279.84" cy="-18" rx="131.077" ry="18"/>
<text text-anchor="middle" x="1279.84" y="-14.3" font-family="FreeSans" font-size="14.00" fill="#000000">X::Proc::Async::AlreadyStarted</text>
</a>
</g>
</g>
<!-- X::Proc::Async::AlreadyStarted&#45;&gt;X::Proc::Async -->
<g id="edge13" class="edge"><title>X::Proc::Async::AlreadyStarted&#45;&gt;X::Proc::Async</title>
<path fill="none" stroke="#6666ff" d="M1184.91,-30.5275C1159.94,-33.5593 1139.84,-36 1139.84,-36 1139.84,-36 874.585,-66.0393 743.469,-80.8879"/>
<polygon fill="#6666ff" stroke="#6666ff" points="743.045,-77.4135 733.502,-82.0167 743.832,-84.3691 743.045,-77.4135"/>
</g>
<!-- X::Proc::Async::AlreadyStarted&#45;&gt;Exception -->
<g id="edge8" class="edge"><title>X::Proc::Async::AlreadyStarted&#45;&gt;Exception</title>
<path fill="none" stroke="#000000" d="M1220.44,-34.0621C1109.29,-62.2457 871.849,-122.454 769.011,-148.531"/>
<polygon fill="#000000" stroke="#000000" points="768.028,-145.17 759.195,-151.02 769.749,-151.955 768.028,-145.17"/>
</g>
</g>
</svg>
