<?xml version="1.0" encoding="UTF-8" standalone="no"?>
<!DOCTYPE svg PUBLIC "-//W3C//DTD SVG 1.1//EN"
 "http://www.w3.org/Graphics/SVG/1.1/DTD/svg11.dtd">
<!-- Generated by graphviz version 2.38.0 (20140413.2041)
 -->
<!-- Title: perl6&#45;type&#45;graph Pages: 1 -->
<svg width="168pt" height="116pt"
 viewBox="0.00 0.00 168.20 116.00" xmlns="http://www.w3.org/2000/svg" xmlns:xlink="http://www.w3.org/1999/xlink">
<g id="graph0" class="graph" transform="scale(1 1) rotate(0) translate(4 112)">
<title>perl6&#45;type&#45;graph</title>
<polygon fill="white" stroke="none" points="-4,4 -4,-112 164.196,-112 164.196,4 -4,4"/>
<!-- Mu -->
<g id="node1" class="node"><title>Mu</title>
<g id="a_node1"><a xlink:href="/type/Mu" xlink:title="Mu">
<ellipse fill="none" stroke="#000000" cx="88.1961" cy="-90" rx="27" ry="18"/>
<text text-anchor="middle" x="88.1961" y="-86.3" font-family="FreeSans" font-size="14.00" fill="#000000">Mu</text>
</a>
</g>
</g>
<!-- Junction -->
<g id="node2" class="node"><title>Junction</title>
<g id="a_node2"><a xlink:href="/type/Junction" xlink:title="Junction">
<ellipse fill="none" stroke="#000000" cx="44.1961" cy="-18" rx="44.393" ry="18"/>
<text text-anchor="middle" x="44.1961" y="-14.3" font-family="FreeSans" font-size="14.00" fill="#000000">Junction</text>
</a>
</g>
</g>
<!-- Junction&#45;&gt;Mu -->
<g id="edge1" class="edge"><title>Junction&#45;&gt;Mu</title>
<path fill="none" stroke="#000000" d="M54.6235,-35.589C60.0158,-44.1677 66.7047,-54.8092 72.6895,-64.3305"/>
<polygon fill="#000000" stroke="#000000" points="69.8614,-66.4081 78.1464,-73.0119 75.7879,-62.6829 69.8614,-66.4081"/>
</g>
<!-- Any -->
<g id="node3" class="node"><title>Any</title>
<g id="a_node3"><a xlink:href="/type/Any" xlink:title="Any">
<ellipse fill="none" stroke="#000000" cx="133.196" cy="-18" rx="27" ry="18"/>
<text text-anchor="middle" x="133.196" y="-14.3" font-family="FreeSans" font-size="14.00" fill="#000000">Any</text>
</a>
</g>
</g>
<!-- Any&#45;&gt;Mu -->
<g id="edge2" class="edge"><title>Any&#45;&gt;Mu</title>
<path fill="none" stroke="#000000" d="M122.985,-34.8841C117.346,-43.655 110.223,-54.7363 103.892,-64.5838"/>
<polygon fill="#000000" stroke="#000000" points="100.83,-62.8743 98.3669,-73.1788 106.719,-66.6596 100.83,-62.8743"/>
</g>
</g>
</svg>
