<?xml version="1.0" encoding="UTF-8" standalone="no"?>
<!DOCTYPE svg PUBLIC "-//W3C//DTD SVG 1.1//EN"
 "http://www.w3.org/Graphics/SVG/1.1/DTD/svg11.dtd">
<!-- Generated by graphviz version 2.38.0 (20140413.2041)
 -->
<!-- Title: perl6&#45;type&#45;graph Pages: 1 -->
<svg width="272pt" height="188pt"
 viewBox="0.00 0.00 272.35 188.00" xmlns="http://www.w3.org/2000/svg" xmlns:xlink="http://www.w3.org/1999/xlink">
<g id="graph0" class="graph" transform="scale(1 1) rotate(0) translate(4 184)">
<title>perl6&#45;type&#45;graph</title>
<polygon fill="white" stroke="none" points="-4,4 -4,-184 268.347,-184 268.347,4 -4,4"/>
<!-- utf8 -->
<g id="node1" class="node"><title>utf8</title>
<g id="a_node1"><a xlink:href="/type/utf8" xlink:title="utf8">
<ellipse fill="none" stroke="#000000" cx="84" cy="-18" rx="27" ry="18"/>
<text text-anchor="middle" x="84" y="-14.3" font-family="FreeSans" font-size="14.00" fill="#000000">utf8</text>
</a>
</g>
</g>
<!-- Any -->
<g id="node3" class="node"><title>Any</title>
<g id="a_node3"><a xlink:href="/type/Any" xlink:title="Any">
<ellipse fill="none" stroke="#000000" cx="37" cy="-90" rx="27" ry="18"/>
<text text-anchor="middle" x="37" y="-86.3" font-family="FreeSans" font-size="14.00" fill="#000000">Any</text>
</a>
</g>
</g>
<!-- utf8&#45;&gt;Any -->
<g id="edge1" class="edge"><title>utf8&#45;&gt;Any</title>
<path fill="none" stroke="#000000" d="M73.335,-34.8841C67.4459,-43.655 60.0056,-54.7363 53.3938,-64.5838"/>
<polygon fill="#000000" stroke="#000000" points="50.2914,-62.9255 47.6228,-73.1788 56.103,-66.8276 50.2914,-62.9255"/>
</g>
<!-- Blob -->
<g id="node6" class="node"><title>Blob</title>
<g id="a_node6"><a xlink:href="/type/Blob" xlink:title="Blob">
<ellipse fill="none" stroke="#6666ff" cx="121" cy="-90" rx="28.6953" ry="18"/>
<text text-anchor="middle" x="121" y="-86.3" font-family="FreeSans" font-size="14.00" fill="#6666ff">Blob</text>
</a>
</g>
</g>
<!-- utf8&#45;&gt;Blob -->
<g id="edge3" class="edge"><title>utf8&#45;&gt;Blob</title>
<path fill="none" stroke="#6666ff" d="M92.5815,-35.2354C97.0006,-43.5957 102.492,-53.9841 107.465,-63.3941"/>
<polygon fill="#6666ff" stroke="#6666ff" points="104.441,-65.1612 112.208,-72.3666 110.629,-61.89 104.441,-65.1612"/>
</g>
<!-- Mu -->
<g id="node2" class="node"><title>Mu</title>
<g id="a_node2"><a xlink:href="/type/Mu" xlink:title="Mu">
<ellipse fill="none" stroke="#000000" cx="27" cy="-162" rx="27" ry="18"/>
<text text-anchor="middle" x="27" y="-158.3" font-family="FreeSans" font-size="14.00" fill="#000000">Mu</text>
</a>
</g>
</g>
<!-- Any&#45;&gt;Mu -->
<g id="edge2" class="edge"><title>Any&#45;&gt;Mu</title>
<path fill="none" stroke="#000000" d="M34.5793,-107.945C33.4779,-115.654 32.1467,-124.973 30.9092,-133.636"/>
<polygon fill="#000000" stroke="#000000" points="27.4174,-133.33 29.4679,-143.725 34.347,-134.32 27.4174,-133.33"/>
</g>
<!-- Positional -->
<g id="node4" class="node"><title>Positional</title>
<g id="a_node4"><a xlink:href="/type/Positional" xlink:title="Positional">
<ellipse fill="none" stroke="#6666ff" cx="121" cy="-162" rx="48.9926" ry="18"/>
<text text-anchor="middle" x="121" y="-158.3" font-family="FreeSans" font-size="14.00" fill="#6666ff">Positional</text>
</a>
</g>
</g>
<!-- Stringy -->
<g id="node5" class="node"><title>Stringy</title>
<g id="a_node5"><a xlink:href="/type/Stringy" xlink:title="Stringy">
<ellipse fill="none" stroke="#6666ff" cx="226" cy="-162" rx="38.1938" ry="18"/>
<text text-anchor="middle" x="226" y="-158.3" font-family="FreeSans" font-size="14.00" fill="#6666ff">Stringy</text>
</a>
</g>
</g>
<!-- Blob&#45;&gt;Positional -->
<g id="edge4" class="edge"><title>Blob&#45;&gt;Positional</title>
<path fill="none" stroke="#6666ff" d="M121,-108.303C121,-116.017 121,-125.288 121,-133.888"/>
<polygon fill="#6666ff" stroke="#6666ff" points="117.5,-133.896 121,-143.896 124.5,-133.896 117.5,-133.896"/>
</g>
<!-- Blob&#45;&gt;Stringy -->
<g id="edge5" class="edge"><title>Blob&#45;&gt;Stringy</title>
<path fill="none" stroke="#6666ff" d="M140.259,-103.839C155.929,-114.286 178.312,-129.208 196.28,-141.186"/>
<polygon fill="#6666ff" stroke="#6666ff" points="194.434,-144.163 204.696,-146.798 198.317,-138.338 194.434,-144.163"/>
</g>
</g>
</svg>
