<?xml version="1.0" encoding="UTF-8" standalone="no"?>
<!DOCTYPE svg PUBLIC "-//W3C//DTD SVG 1.1//EN"
 "http://www.w3.org/Graphics/SVG/1.1/DTD/svg11.dtd">
<!-- Generated by graphviz version 2.38.0 (20140413.2041)
 -->
<!-- Title: perl6&#45;type&#45;graph Pages: 1 -->
<svg width="396pt" height="476pt"
 viewBox="0.00 0.00 396.44 476.00" xmlns="http://www.w3.org/2000/svg" xmlns:xlink="http://www.w3.org/1999/xlink">
<g id="graph0" class="graph" transform="scale(1 1) rotate(0) translate(4 472)">
<title>perl6&#45;type&#45;graph</title>
<polygon fill="white" stroke="none" points="-4,4 -4,-472 392.439,-472 392.439,4 -4,4"/>
<!-- Code -->
<g id="node1" class="node"><title>Code</title>
<g id="a_node1"><a xlink:href="/type/Code" xlink:title="Code">
<ellipse fill="none" stroke="#000000" cx="258.895" cy="-306" rx="31.6951" ry="18"/>
<text text-anchor="middle" x="258.895" y="-302.3" font-family="FreeSans" font-size="14.00" fill="#000000">Code</text>
</a>
</g>
</g>
<!-- Any -->
<g id="node3" class="node"><title>Any</title>
<g id="a_node3"><a xlink:href="/type/Any" xlink:title="Any">
<ellipse fill="none" stroke="#000000" cx="215.895" cy="-378" rx="27" ry="18"/>
<text text-anchor="middle" x="215.895" y="-374.3" font-family="FreeSans" font-size="14.00" fill="#000000">Any</text>
</a>
</g>
</g>
<!-- Code&#45;&gt;Any -->
<g id="edge1" class="edge"><title>Code&#45;&gt;Any</title>
<path fill="none" stroke="#000000" d="M248.922,-323.235C243.658,-331.805 237.084,-342.506 231.191,-352.1"/>
<polygon fill="#000000" stroke="#000000" points="228.066,-350.5 225.814,-360.853 234.031,-354.164 228.066,-350.5"/>
</g>
<!-- Callable -->
<g id="node4" class="node"><title>Callable</title>
<g id="a_node4"><a xlink:href="/type/Callable" xlink:title="Callable">
<ellipse fill="none" stroke="#6666ff" cx="302.895" cy="-378" rx="42.4939" ry="18"/>
<text text-anchor="middle" x="302.895" y="-374.3" font-family="FreeSans" font-size="14.00" fill="#6666ff">Callable</text>
</a>
</g>
</g>
<!-- Code&#45;&gt;Callable -->
<g id="edge11" class="edge"><title>Code&#45;&gt;Callable</title>
<path fill="none" stroke="#6666ff" d="M269.1,-323.235C274.41,-331.683 281.021,-342.201 286.985,-351.688"/>
<polygon fill="#6666ff" stroke="#6666ff" points="284.155,-353.763 292.44,-360.367 290.081,-350.038 284.155,-353.763"/>
</g>
<!-- Mu -->
<g id="node2" class="node"><title>Mu</title>
<g id="a_node2"><a xlink:href="/type/Mu" xlink:title="Mu">
<ellipse fill="none" stroke="#000000" cx="215.895" cy="-450" rx="27" ry="18"/>
<text text-anchor="middle" x="215.895" y="-446.3" font-family="FreeSans" font-size="14.00" fill="#000000">Mu</text>
</a>
</g>
</g>
<!-- Any&#45;&gt;Mu -->
<g id="edge2" class="edge"><title>Any&#45;&gt;Mu</title>
<path fill="none" stroke="#000000" d="M215.895,-396.303C215.895,-404.017 215.895,-413.288 215.895,-421.888"/>
<polygon fill="#000000" stroke="#000000" points="212.395,-421.896 215.895,-431.896 219.395,-421.896 212.395,-421.896"/>
</g>
<!-- Block -->
<g id="node5" class="node"><title>Block</title>
<g id="a_node5"><a xlink:href="/type/Block" xlink:title="Block">
<ellipse fill="none" stroke="#000000" cx="198.895" cy="-234" rx="32.4942" ry="18"/>
<text text-anchor="middle" x="198.895" y="-230.3" font-family="FreeSans" font-size="14.00" fill="#000000">Block</text>
</a>
</g>
</g>
<!-- Block&#45;&gt;Code -->
<g id="edge3" class="edge"><title>Block&#45;&gt;Code</title>
<path fill="none" stroke="#000000" d="M212.211,-250.535C220.057,-259.689 230.135,-271.446 238.918,-281.693"/>
<polygon fill="#000000" stroke="#000000" points="236.451,-284.193 245.616,-289.508 241.766,-279.638 236.451,-284.193"/>
</g>
<!-- WhateverCode -->
<g id="node6" class="node"><title>WhateverCode</title>
<g id="a_node6"><a xlink:href="/type/WhateverCode" xlink:title="WhateverCode">
<ellipse fill="none" stroke="#000000" cx="318.895" cy="-234" rx="69.5877" ry="18"/>
<text text-anchor="middle" x="318.895" y="-230.3" font-family="FreeSans" font-size="14.00" fill="#000000">WhateverCode</text>
</a>
</g>
</g>
<!-- WhateverCode&#45;&gt;Code -->
<g id="edge4" class="edge"><title>WhateverCode&#45;&gt;Code</title>
<path fill="none" stroke="#000000" d="M304.371,-251.945C296.784,-260.796 287.379,-271.769 279.094,-281.434"/>
<polygon fill="#000000" stroke="#000000" points="276.314,-279.3 272.463,-289.171 281.628,-283.856 276.314,-279.3"/>
</g>
<!-- Routine -->
<g id="node7" class="node"><title>Routine</title>
<g id="a_node7"><a xlink:href="/type/Routine" xlink:title="Routine">
<ellipse fill="none" stroke="#000000" cx="198.895" cy="-162" rx="40.8928" ry="18"/>
<text text-anchor="middle" x="198.895" y="-158.3" font-family="FreeSans" font-size="14.00" fill="#000000">Routine</text>
</a>
</g>
</g>
<!-- Routine&#45;&gt;Block -->
<g id="edge5" class="edge"><title>Routine&#45;&gt;Block</title>
<path fill="none" stroke="#000000" d="M198.895,-180.303C198.895,-188.017 198.895,-197.288 198.895,-205.888"/>
<polygon fill="#000000" stroke="#000000" points="195.395,-205.896 198.895,-215.896 202.395,-205.896 195.395,-205.896"/>
</g>
<!-- Submethod -->
<g id="node8" class="node"><title>Submethod</title>
<g id="a_node8"><a xlink:href="/type/Submethod" xlink:title="Submethod">
<ellipse fill="none" stroke="#000000" cx="55.895" cy="-90" rx="55.7903" ry="18"/>
<text text-anchor="middle" x="55.895" y="-86.3" font-family="FreeSans" font-size="14.00" fill="#000000">Submethod</text>
</a>
</g>
</g>
<!-- Submethod&#45;&gt;Routine -->
<g id="edge6" class="edge"><title>Submethod&#45;&gt;Routine</title>
<path fill="none" stroke="#000000" d="M85.1783,-105.334C107.829,-116.422 139.287,-131.821 163.375,-143.613"/>
<polygon fill="#000000" stroke="#000000" points="162.02,-146.846 172.54,-148.099 165.098,-140.559 162.02,-146.846"/>
</g>
<!-- Sub -->
<g id="node9" class="node"><title>Sub</title>
<g id="a_node9"><a xlink:href="/type/Sub" xlink:title="Sub">
<ellipse fill="none" stroke="#000000" cx="156.895" cy="-90" rx="27" ry="18"/>
<text text-anchor="middle" x="156.895" y="-86.3" font-family="FreeSans" font-size="14.00" fill="#000000">Sub</text>
</a>
</g>
</g>
<!-- Sub&#45;&gt;Routine -->
<g id="edge7" class="edge"><title>Sub&#45;&gt;Routine</title>
<path fill="none" stroke="#000000" d="M166.425,-106.884C171.488,-115.321 177.832,-125.896 183.567,-135.453"/>
<polygon fill="#000000" stroke="#000000" points="180.67,-137.428 188.817,-144.203 186.673,-133.827 180.67,-137.428"/>
</g>
<!-- Method -->
<g id="node10" class="node"><title>Method</title>
<g id="a_node10"><a xlink:href="/type/Method" xlink:title="Method">
<ellipse fill="none" stroke="#000000" cx="241.895" cy="-90" rx="40.0939" ry="18"/>
<text text-anchor="middle" x="241.895" y="-86.3" font-family="FreeSans" font-size="14.00" fill="#000000">Method</text>
</a>
</g>
</g>
<!-- Method&#45;&gt;Routine -->
<g id="edge8" class="edge"><title>Method&#45;&gt;Routine</title>
<path fill="none" stroke="#000000" d="M231.705,-107.589C226.51,-116.045 220.084,-126.506 214.3,-135.922"/>
<polygon fill="#000000" stroke="#000000" points="211.264,-134.177 209.012,-144.53 217.229,-137.841 211.264,-134.177"/>
</g>
<!-- Macro -->
<g id="node11" class="node"><title>Macro</title>
<g id="a_node11"><a xlink:href="/type/Macro" xlink:title="Macro">
<ellipse fill="none" stroke="#000000" cx="335.895" cy="-90" rx="35.9954" ry="18"/>
<text text-anchor="middle" x="335.895" y="-86.3" font-family="FreeSans" font-size="14.00" fill="#000000">Macro</text>
</a>
</g>
</g>
<!-- Macro&#45;&gt;Routine -->
<g id="edge9" class="edge"><title>Macro&#45;&gt;Routine</title>
<path fill="none" stroke="#000000" d="M311.718,-103.353C290.057,-114.421 258.035,-130.783 233.634,-143.25"/>
<polygon fill="#000000" stroke="#000000" points="232.005,-140.152 224.693,-147.819 235.19,-146.385 232.005,-140.152"/>
</g>
<!-- Regex -->
<g id="node12" class="node"><title>Regex</title>
<g id="a_node12"><a xlink:href="/type/Regex" xlink:title="Regex">
<ellipse fill="none" stroke="#000000" cx="241.895" cy="-18" rx="36.2938" ry="18"/>
<text text-anchor="middle" x="241.895" y="-14.3" font-family="FreeSans" font-size="14.00" fill="#000000">Regex</text>
</a>
</g>
</g>
<!-- Regex&#45;&gt;Method -->
<g id="edge10" class="edge"><title>Regex&#45;&gt;Method</title>
<path fill="none" stroke="#000000" d="M241.895,-36.3034C241.895,-44.0173 241.895,-53.2875 241.895,-61.8876"/>
<polygon fill="#000000" stroke="#000000" points="238.395,-61.8956 241.895,-71.8957 245.395,-61.8957 238.395,-61.8956"/>
</g>
</g>
</svg>
