<?xml version="1.0" encoding="UTF-8" standalone="no"?>
<!DOCTYPE svg PUBLIC "-//W3C//DTD SVG 1.1//EN"
 "http://www.w3.org/Graphics/SVG/1.1/DTD/svg11.dtd">
<!-- Generated by graphviz version 2.38.0 (20140413.2041)
 -->
<!-- Title: perl6&#45;type&#45;graph Pages: 1 -->
<svg width="287pt" height="404pt"
 viewBox="0.00 0.00 287.24 404.00" xmlns="http://www.w3.org/2000/svg" xmlns:xlink="http://www.w3.org/1999/xlink">
<g id="graph0" class="graph" transform="scale(1 1) rotate(0) translate(4 400)">
<title>perl6&#45;type&#45;graph</title>
<polygon fill="white" stroke="none" points="-4,4 -4,-400 283.236,-400 283.236,4 -4,4"/>
<!-- X::Syntax::Variable::Match -->
<g id="node1" class="node"><title>X::Syntax::Variable::Match</title>
<g id="a_node1"><a xlink:href="/type/X::Syntax::Variable::Match" xlink:title="X::Syntax::Variable::Match">
<ellipse fill="none" stroke="#000000" cx="114.39" cy="-18" rx="114.28" ry="18"/>
<text text-anchor="middle" x="114.39" y="-14.3" font-family="FreeSans" font-size="14.00" fill="#000000">X::Syntax::Variable::Match</text>
</a>
</g>
</g>
<!-- Exception -->
<g id="node4" class="node"><title>Exception</title>
<g id="a_node4"><a xlink:href="/type/Exception" xlink:title="Exception">
<ellipse fill="none" stroke="#000000" cx="137.39" cy="-234" rx="49.2915" ry="18"/>
<text text-anchor="middle" x="137.39" y="-230.3" font-family="FreeSans" font-size="14.00" fill="#000000">Exception</text>
</a>
</g>
</g>
<!-- X::Syntax::Variable::Match&#45;&gt;Exception -->
<g id="edge1" class="edge"><title>X::Syntax::Variable::Match&#45;&gt;Exception</title>
<path fill="none" stroke="#000000" d="M112.356,-36.1508C112.8,-73.3384 122.031,-161.626 129.862,-206.228"/>
<polygon fill="#000000" stroke="#000000" points="126.424,-206.884 131.713,-216.065 133.303,-205.59 126.424,-206.884"/>
</g>
<!-- X::Syntax::Variable::Match&#45;&gt;Exception -->
<g id="edge2" class="edge"><title>X::Syntax::Variable::Match&#45;&gt;Exception</title>
<path fill="none" stroke="#000000" d="M120.111,-36.1508C127.625,-73.1683 137.317,-160.819 139.139,-205.614"/>
<polygon fill="#000000" stroke="#000000" points="135.644,-205.87 139.423,-215.768 142.642,-205.673 135.644,-205.87"/>
</g>
<!-- X::Syntax -->
<g id="node6" class="node"><title>X::Syntax</title>
<g id="a_node6"><a xlink:href="/type/X::Syntax" xlink:title="X::Syntax">
<ellipse fill="none" stroke="#6666ff" cx="199.39" cy="-90" rx="48.1917" ry="18"/>
<text text-anchor="middle" x="199.39" y="-86.3" font-family="FreeSans" font-size="14.00" fill="#6666ff">X::Syntax</text>
</a>
</g>
</g>
<!-- X::Syntax::Variable::Match&#45;&gt;X::Syntax -->
<g id="edge7" class="edge"><title>X::Syntax::Variable::Match&#45;&gt;X::Syntax</title>
<path fill="none" stroke="#6666ff" d="M134.966,-35.945C146.224,-45.216 160.307,-56.8143 172.433,-66.8003"/>
<polygon fill="#6666ff" stroke="#6666ff" points="170.512,-69.7523 180.456,-73.4077 174.962,-64.3488 170.512,-69.7523"/>
</g>
<!-- Mu -->
<g id="node2" class="node"><title>Mu</title>
<g id="a_node2"><a xlink:href="/type/Mu" xlink:title="Mu">
<ellipse fill="none" stroke="#000000" cx="137.39" cy="-378" rx="27" ry="18"/>
<text text-anchor="middle" x="137.39" y="-374.3" font-family="FreeSans" font-size="14.00" fill="#000000">Mu</text>
</a>
</g>
</g>
<!-- Any -->
<g id="node3" class="node"><title>Any</title>
<g id="a_node3"><a xlink:href="/type/Any" xlink:title="Any">
<ellipse fill="none" stroke="#000000" cx="137.39" cy="-306" rx="27" ry="18"/>
<text text-anchor="middle" x="137.39" y="-302.3" font-family="FreeSans" font-size="14.00" fill="#000000">Any</text>
</a>
</g>
</g>
<!-- Any&#45;&gt;Mu -->
<g id="edge3" class="edge"><title>Any&#45;&gt;Mu</title>
<path fill="none" stroke="#000000" d="M137.39,-324.303C137.39,-332.017 137.39,-341.288 137.39,-349.888"/>
<polygon fill="#000000" stroke="#000000" points="133.89,-349.896 137.39,-359.896 140.89,-349.896 133.89,-349.896"/>
</g>
<!-- Exception&#45;&gt;Any -->
<g id="edge4" class="edge"><title>Exception&#45;&gt;Any</title>
<path fill="none" stroke="#000000" d="M137.39,-252.303C137.39,-260.017 137.39,-269.288 137.39,-277.888"/>
<polygon fill="#000000" stroke="#000000" points="133.89,-277.896 137.39,-287.896 140.89,-277.896 133.89,-277.896"/>
</g>
<!-- X::Comp -->
<g id="node5" class="node"><title>X::Comp</title>
<g id="a_node5"><a xlink:href="/type/X::Comp" xlink:title="X::Comp">
<ellipse fill="none" stroke="#6666ff" cx="234.39" cy="-162" rx="44.6926" ry="18"/>
<text text-anchor="middle" x="234.39" y="-158.3" font-family="FreeSans" font-size="14.00" fill="#6666ff">X::Comp</text>
</a>
</g>
</g>
<!-- X::Comp&#45;&gt;Exception -->
<g id="edge5" class="edge"><title>X::Comp&#45;&gt;Exception</title>
<path fill="none" stroke="#000000" d="M213.342,-178.189C199.835,-187.937 182.091,-200.742 167.151,-211.523"/>
<polygon fill="#000000" stroke="#000000" points="164.792,-208.909 158.731,-217.599 168.888,-214.585 164.792,-208.909"/>
</g>
<!-- X::Syntax&#45;&gt;Exception -->
<g id="edge6" class="edge"><title>X::Syntax&#45;&gt;Exception</title>
<path fill="none" stroke="#000000" d="M192.034,-107.847C181.36,-132.294 161.479,-177.829 148.867,-206.714"/>
<polygon fill="#000000" stroke="#000000" points="145.53,-205.61 144.736,-216.175 151.945,-208.411 145.53,-205.61"/>
</g>
<!-- X::Syntax&#45;&gt;X::Comp -->
<g id="edge8" class="edge"><title>X::Syntax&#45;&gt;X::Comp</title>
<path fill="none" stroke="#6666ff" d="M207.862,-107.945C211.947,-116.113 216.934,-126.088 221.478,-135.176"/>
<polygon fill="#6666ff" stroke="#6666ff" points="218.393,-136.832 225.995,-144.211 224.654,-133.701 218.393,-136.832"/>
</g>
</g>
</svg>
