<?xml version="1.0" encoding="UTF-8" standalone="no"?>
<!DOCTYPE svg PUBLIC "-//W3C//DTD SVG 1.1//EN"
 "http://www.w3.org/Graphics/SVG/1.1/DTD/svg11.dtd">
<!-- Generated by graphviz version 2.38.0 (20140413.2041)
 -->
<!-- Title: perl6&#45;type&#45;graph Pages: 1 -->
<svg width="164pt" height="260pt"
 viewBox="0.00 0.00 164.25 260.00" xmlns="http://www.w3.org/2000/svg" xmlns:xlink="http://www.w3.org/1999/xlink">
<g id="graph0" class="graph" transform="scale(1 1) rotate(0) translate(4 256)">
<title>perl6&#45;type&#45;graph</title>
<polygon fill="white" stroke="none" points="-4,4 -4,-256 160.246,-256 160.246,4 -4,4"/>
<!-- WhateverCode -->
<g id="node1" class="node"><title>WhateverCode</title>
<g id="a_node1"><a xlink:href="/type/WhateverCode" xlink:title="WhateverCode">
<ellipse fill="none" stroke="#000000" cx="70" cy="-18" rx="69.5877" ry="18"/>
<text text-anchor="middle" x="70" y="-14.3" font-family="FreeSans" font-size="14.00" fill="#000000">WhateverCode</text>
</a>
</g>
</g>
<!-- Code -->
<g id="node5" class="node"><title>Code</title>
<g id="a_node5"><a xlink:href="/type/Code" xlink:title="Code">
<ellipse fill="none" stroke="#000000" cx="70" cy="-90" rx="31.6951" ry="18"/>
<text text-anchor="middle" x="70" y="-86.3" font-family="FreeSans" font-size="14.00" fill="#000000">Code</text>
</a>
</g>
</g>
<!-- WhateverCode&#45;&gt;Code -->
<g id="edge1" class="edge"><title>WhateverCode&#45;&gt;Code</title>
<path fill="none" stroke="#000000" d="M70,-36.3034C70,-44.0173 70,-53.2875 70,-61.8876"/>
<polygon fill="#000000" stroke="#000000" points="66.5001,-61.8956 70,-71.8957 73.5001,-61.8957 66.5001,-61.8956"/>
</g>
<!-- Mu -->
<g id="node2" class="node"><title>Mu</title>
<g id="a_node2"><a xlink:href="/type/Mu" xlink:title="Mu">
<ellipse fill="none" stroke="#000000" cx="27" cy="-234" rx="27" ry="18"/>
<text text-anchor="middle" x="27" y="-230.3" font-family="FreeSans" font-size="14.00" fill="#000000">Mu</text>
</a>
</g>
</g>
<!-- Any -->
<g id="node3" class="node"><title>Any</title>
<g id="a_node3"><a xlink:href="/type/Any" xlink:title="Any">
<ellipse fill="none" stroke="#000000" cx="27" cy="-162" rx="27" ry="18"/>
<text text-anchor="middle" x="27" y="-158.3" font-family="FreeSans" font-size="14.00" fill="#000000">Any</text>
</a>
</g>
</g>
<!-- Any&#45;&gt;Mu -->
<g id="edge2" class="edge"><title>Any&#45;&gt;Mu</title>
<path fill="none" stroke="#000000" d="M27,-180.303C27,-188.017 27,-197.288 27,-205.888"/>
<polygon fill="#000000" stroke="#000000" points="23.5001,-205.896 27,-215.896 30.5001,-205.896 23.5001,-205.896"/>
</g>
<!-- Callable -->
<g id="node4" class="node"><title>Callable</title>
<g id="a_node4"><a xlink:href="/type/Callable" xlink:title="Callable">
<ellipse fill="none" stroke="#6666ff" cx="114" cy="-162" rx="42.4939" ry="18"/>
<text text-anchor="middle" x="114" y="-158.3" font-family="FreeSans" font-size="14.00" fill="#6666ff">Callable</text>
</a>
</g>
</g>
<!-- Code&#45;&gt;Any -->
<g id="edge3" class="edge"><title>Code&#45;&gt;Any</title>
<path fill="none" stroke="#000000" d="M60.0269,-107.235C54.7625,-115.805 48.1892,-126.506 42.2959,-136.1"/>
<polygon fill="#000000" stroke="#000000" points="39.171,-134.5 36.9191,-144.853 45.1356,-138.164 39.171,-134.5"/>
</g>
<!-- Code&#45;&gt;Callable -->
<g id="edge4" class="edge"><title>Code&#45;&gt;Callable</title>
<path fill="none" stroke="#6666ff" d="M80.2051,-107.235C85.5149,-115.683 92.1262,-126.201 98.0895,-135.688"/>
<polygon fill="#6666ff" stroke="#6666ff" points="95.2597,-137.763 103.545,-144.367 101.186,-134.038 95.2597,-137.763"/>
</g>
</g>
</svg>
