<?xml version="1.0" encoding="UTF-8" standalone="no"?>
<!DOCTYPE svg PUBLIC "-//W3C//DTD SVG 1.1//EN"
 "http://www.w3.org/Graphics/SVG/1.1/DTD/svg11.dtd">
<!-- Generated by graphviz version 2.38.0 (20140413.2041)
 -->
<!-- Title: perl6&#45;type&#45;graph Pages: 1 -->
<svg width="1817pt" height="404pt"
 viewBox="0.00 0.00 1817.09 404.00" xmlns="http://www.w3.org/2000/svg" xmlns:xlink="http://www.w3.org/1999/xlink">
<g id="graph0" class="graph" transform="scale(1 1) rotate(0) translate(4 400)">
<title>perl6&#45;type&#45;graph</title>
<polygon fill="white" stroke="none" points="-4,4 -4,-400 1813.09,-400 1813.09,4 -4,4"/>
<!-- X::OS -->
<g id="node1" class="node"><title>X::OS</title>
<g id="a_node1"><a xlink:href="/type/X::OS" xlink:title="X::OS">
<ellipse fill="none" stroke="#6666ff" cx="907.594" cy="-162" rx="34.394" ry="18"/>
<text text-anchor="middle" x="907.594" y="-158.3" font-family="FreeSans" font-size="14.00" fill="#6666ff">X::OS</text>
</a>
</g>
</g>
<!-- Exception -->
<g id="node4" class="node"><title>Exception</title>
<g id="a_node4"><a xlink:href="/type/Exception" xlink:title="Exception">
<ellipse fill="none" stroke="#000000" cx="987.594" cy="-234" rx="49.2915" ry="18"/>
<text text-anchor="middle" x="987.594" y="-230.3" font-family="FreeSans" font-size="14.00" fill="#000000">Exception</text>
</a>
</g>
</g>
<!-- X::OS&#45;&gt;Exception -->
<g id="edge1" class="edge"><title>X::OS&#45;&gt;Exception</title>
<path fill="none" stroke="#000000" d="M924.56,-177.845C935.396,-187.327 949.653,-199.801 961.866,-210.488"/>
<polygon fill="#000000" stroke="#000000" points="959.71,-213.252 969.541,-217.203 964.32,-207.984 959.71,-213.252"/>
</g>
<!-- Mu -->
<g id="node2" class="node"><title>Mu</title>
<g id="a_node2"><a xlink:href="/type/Mu" xlink:title="Mu">
<ellipse fill="none" stroke="#000000" cx="987.594" cy="-378" rx="27" ry="18"/>
<text text-anchor="middle" x="987.594" y="-374.3" font-family="FreeSans" font-size="14.00" fill="#000000">Mu</text>
</a>
</g>
</g>
<!-- Any -->
<g id="node3" class="node"><title>Any</title>
<g id="a_node3"><a xlink:href="/type/Any" xlink:title="Any">
<ellipse fill="none" stroke="#000000" cx="987.594" cy="-306" rx="27" ry="18"/>
<text text-anchor="middle" x="987.594" y="-302.3" font-family="FreeSans" font-size="14.00" fill="#000000">Any</text>
</a>
</g>
</g>
<!-- Any&#45;&gt;Mu -->
<g id="edge2" class="edge"><title>Any&#45;&gt;Mu</title>
<path fill="none" stroke="#000000" d="M987.594,-324.303C987.594,-332.017 987.594,-341.288 987.594,-349.888"/>
<polygon fill="#000000" stroke="#000000" points="984.094,-349.896 987.594,-359.896 991.094,-349.896 984.094,-349.896"/>
</g>
<!-- Exception&#45;&gt;Any -->
<g id="edge3" class="edge"><title>Exception&#45;&gt;Any</title>
<path fill="none" stroke="#000000" d="M987.594,-252.303C987.594,-260.017 987.594,-269.288 987.594,-277.888"/>
<polygon fill="#000000" stroke="#000000" points="984.094,-277.896 987.594,-287.896 991.094,-277.896 984.094,-277.896"/>
</g>
<!-- X::IO -->
<g id="node5" class="node"><title>X::IO</title>
<g id="a_node5"><a xlink:href="/type/X::IO" xlink:title="X::IO">
<ellipse fill="none" stroke="#6666ff" cx="907.594" cy="-90" rx="31.3957" ry="18"/>
<text text-anchor="middle" x="907.594" y="-86.3" font-family="FreeSans" font-size="14.00" fill="#6666ff">X::IO</text>
</a>
</g>
</g>
<!-- X::IO&#45;&gt;X::OS -->
<g id="edge44" class="edge"><title>X::IO&#45;&gt;X::OS</title>
<path fill="none" stroke="#6666ff" d="M907.594,-108.303C907.594,-116.017 907.594,-125.288 907.594,-133.888"/>
<polygon fill="#6666ff" stroke="#6666ff" points="904.094,-133.896 907.594,-143.896 911.094,-133.896 904.094,-133.896"/>
</g>
<!-- X::IO&#45;&gt;Exception -->
<g id="edge4" class="edge"><title>X::IO&#45;&gt;Exception</title>
<path fill="none" stroke="#000000" d="M894.925,-106.615C882.241,-122.249 864.594,-144 864.594,-144 864.594,-144 864.594,-180 864.594,-180 864.594,-180 911.655,-200.278 947.557,-215.748"/>
<polygon fill="#000000" stroke="#000000" points="946.304,-219.02 956.873,-219.763 949.075,-212.591 946.304,-219.02"/>
</g>
<!-- X::IO::Symlink -->
<g id="node6" class="node"><title>X::IO::Symlink</title>
<g id="a_node6"><a xlink:href="/type/X::IO::Symlink" xlink:title="X::IO::Symlink">
<ellipse fill="none" stroke="#000000" cx="67.594" cy="-18" rx="67.6881" ry="18"/>
<text text-anchor="middle" x="67.594" y="-14.3" font-family="FreeSans" font-size="14.00" fill="#000000">X::IO::Symlink</text>
</a>
</g>
</g>
<!-- X::IO::Symlink&#45;&gt;Exception -->
<g id="edge5" class="edge"><title>X::IO::Symlink&#45;&gt;Exception</title>
<path fill="none" stroke="#000000" d="M102.4,-33.5716C209.847,-73.2032 525.594,-180 525.594,-180 525.594,-180 806.236,-213.5 930.326,-227.233"/>
<polygon fill="#000000" stroke="#000000" points="930.088,-230.728 940.411,-228.343 930.854,-223.77 930.088,-230.728"/>
</g>
<!-- X::IO::Symlink&#45;&gt;Exception -->
<g id="edge6" class="edge"><title>X::IO::Symlink&#45;&gt;Exception</title>
<path fill="none" stroke="#000000" d="M107.767,-32.588C222.525,-71.403 543.594,-180 543.594,-180 543.594,-180 811.756,-212.01 931.274,-226.277"/>
<polygon fill="#000000" stroke="#000000" points="930.99,-229.768 941.335,-227.478 931.82,-222.817 930.99,-229.768"/>
</g>
<!-- X::IO::Symlink&#45;&gt;Exception -->
<g id="edge7" class="edge"><title>X::IO::Symlink&#45;&gt;Exception</title>
<path fill="none" stroke="#000000" d="M112.722,-31.6334C235.157,-69.5876 561.594,-180 561.594,-180 561.594,-180 816.944,-210.481 932.498,-225.212"/>
<polygon fill="#000000" stroke="#000000" points="932.204,-228.703 942.568,-226.501 933.093,-221.759 932.204,-228.703"/>
</g>
<!-- X::IO::Symlink&#45;&gt;X::IO -->
<g id="edge45" class="edge"><title>X::IO::Symlink&#45;&gt;X::IO</title>
<path fill="none" stroke="#6666ff" d="M118.095,-30.1496C132.609,-33.3539 144.594,-36 144.594,-36 144.594,-36 707.814,-75.1227 866.456,-86.1424"/>
<polygon fill="#6666ff" stroke="#6666ff" points="866.52,-89.6552 876.738,-86.8567 867.005,-82.6721 866.52,-89.6552"/>
</g>
<!-- X::IO::Cwd -->
<g id="node7" class="node"><title>X::IO::Cwd</title>
<g id="a_node7"><a xlink:href="/type/X::IO::Cwd" xlink:title="X::IO::Cwd">
<ellipse fill="none" stroke="#000000" cx="207.594" cy="-18" rx="53.8905" ry="18"/>
<text text-anchor="middle" x="207.594" y="-14.3" font-family="FreeSans" font-size="14.00" fill="#000000">X::IO::Cwd</text>
</a>
</g>
</g>
<!-- X::IO::Cwd&#45;&gt;Exception -->
<g id="edge8" class="edge"><title>X::IO::Cwd&#45;&gt;Exception</title>
<path fill="none" stroke="#000000" d="M237.47,-33.1466C333.3,-72.4335 622.594,-180 622.594,-180 622.594,-180 828.553,-211.458 931.353,-225.902"/>
<polygon fill="#000000" stroke="#000000" points="931.179,-229.412 941.567,-227.328 932.147,-222.479 931.179,-229.412"/>
</g>
<!-- X::IO::Cwd&#45;&gt;Exception -->
<g id="edge9" class="edge"><title>X::IO::Cwd&#45;&gt;Exception</title>
<path fill="none" stroke="#000000" d="M242.296,-31.9032C345.046,-70.1078 640.594,-180 640.594,-180 640.594,-180 835.203,-209.724 932.941,-224.652"/>
<polygon fill="#000000" stroke="#000000" points="932.526,-228.13 942.94,-226.18 933.583,-221.21 932.526,-228.13"/>
</g>
<!-- X::IO::Cwd&#45;&gt;Exception -->
<g id="edge10" class="edge"><title>X::IO::Cwd&#45;&gt;Exception</title>
<path fill="none" stroke="#000000" d="M246.22,-30.5787C356.017,-67.4946 658.594,-180 658.594,-180 658.594,-180 841.35,-207.914 934.722,-223.226"/>
<polygon fill="#000000" stroke="#000000" points="934.395,-226.719 944.831,-224.893 935.534,-219.813 934.395,-226.719"/>
</g>
<!-- X::IO::Cwd&#45;&gt;X::IO -->
<g id="edge46" class="edge"><title>X::IO::Cwd&#45;&gt;X::IO</title>
<path fill="none" stroke="#6666ff" d="M248.205,-29.9586C260.396,-33.248 270.594,-36 270.594,-36 270.594,-36 725.61,-73.8585 866.511,-85.5818"/>
<polygon fill="#6666ff" stroke="#6666ff" points="866.614,-89.1024 876.87,-86.4437 867.195,-82.1265 866.614,-89.1024"/>
</g>
<!-- X::IO::Link -->
<g id="node8" class="node"><title>X::IO::Link</title>
<g id="a_node8"><a xlink:href="/type/X::IO::Link" xlink:title="X::IO::Link">
<ellipse fill="none" stroke="#000000" cx="332.594" cy="-18" rx="53.0913" ry="18"/>
<text text-anchor="middle" x="332.594" y="-14.3" font-family="FreeSans" font-size="14.00" fill="#000000">X::IO::Link</text>
</a>
</g>
</g>
<!-- X::IO::Link&#45;&gt;Exception -->
<g id="edge11" class="edge"><title>X::IO::Link&#45;&gt;Exception</title>
<path fill="none" stroke="#000000" d="M360.25,-33.5716C448.25,-73.2032 711.594,-180 711.594,-180 711.594,-180 852.457,-208.937 933.276,-224.048"/>
<polygon fill="#000000" stroke="#000000" points="932.83,-227.524 943.301,-225.907 934.107,-220.642 932.83,-227.524"/>
</g>
<!-- X::IO::Link&#45;&gt;Exception -->
<g id="edge12" class="edge"><title>X::IO::Link&#45;&gt;Exception</title>
<path fill="none" stroke="#000000" d="M365.42,-32.3123C460.536,-70.8858 729.594,-180 729.594,-180 729.594,-180 859.913,-206.771 935.312,-222.26"/>
<polygon fill="#000000" stroke="#000000" points="935.068,-225.783 945.568,-224.367 936.476,-218.926 935.068,-225.783"/>
</g>
<!-- X::IO::Link&#45;&gt;Exception -->
<g id="edge13" class="edge"><title>X::IO::Link&#45;&gt;Exception</title>
<path fill="none" stroke="#000000" d="M369.705,-30.9696C472.115,-68.2818 747.594,-180 747.594,-180 747.594,-180 868.346,-204.806 938.867,-220.476"/>
<polygon fill="#000000" stroke="#000000" points="938.364,-223.95 948.887,-222.718 939.892,-217.119 938.364,-223.95"/>
</g>
<!-- X::IO::Link&#45;&gt;X::IO -->
<g id="edge47" class="edge"><title>X::IO::Link&#45;&gt;X::IO</title>
<path fill="none" stroke="#6666ff" d="M372.561,-29.9586C384.557,-33.248 394.594,-36 394.594,-36 394.594,-36 745.828,-72.2873 867.042,-84.8104"/>
<polygon fill="#6666ff" stroke="#6666ff" points="866.733,-88.297 877.04,-85.8433 867.452,-81.3341 866.733,-88.297"/>
</g>
<!-- X::IO::DoesNotExist -->
<g id="node9" class="node"><title>X::IO::DoesNotExist</title>
<g id="a_node9"><a xlink:href="/type/X::IO::DoesNotExist" xlink:title="X::IO::DoesNotExist">
<ellipse fill="none" stroke="#000000" cx="493.594" cy="-18" rx="89.8845" ry="18"/>
<text text-anchor="middle" x="493.594" y="-14.3" font-family="FreeSans" font-size="14.00" fill="#000000">X::IO::DoesNotExist</text>
</a>
</g>
</g>
<!-- X::IO::DoesNotExist&#45;&gt;Exception -->
<g id="edge14" class="edge"><title>X::IO::DoesNotExist&#45;&gt;Exception</title>
<path fill="none" stroke="#000000" d="M516.078,-35.4732C584.535,-76.5067 780.594,-180 780.594,-180 780.594,-180 874.012,-206.197 935.749,-221.755"/>
<polygon fill="#000000" stroke="#000000" points="935.194,-225.224 945.743,-224.248 936.888,-218.432 935.194,-225.224"/>
</g>
<!-- X::IO::DoesNotExist&#45;&gt;Exception -->
<g id="edge15" class="edge"><title>X::IO::DoesNotExist&#45;&gt;Exception</title>
<path fill="none" stroke="#000000" d="M523.954,-35.0259C601.1,-75.749 798.594,-180 798.594,-180 798.594,-180 884.073,-203.97 940.061,-219.671"/>
<polygon fill="#000000" stroke="#000000" points="939.228,-223.072 949.801,-222.402 941.118,-216.332 939.228,-223.072"/>
</g>
<!-- X::IO::DoesNotExist&#45;&gt;Exception -->
<g id="edge16" class="edge"><title>X::IO::DoesNotExist&#45;&gt;Exception</title>
<path fill="none" stroke="#000000" d="M531.322,-34.4374C617.178,-74.7344 816.594,-180 816.594,-180 816.594,-180 894.219,-201.768 945.236,-217.403"/>
<polygon fill="#000000" stroke="#000000" points="944.466,-220.828 955.054,-220.44 946.535,-214.141 944.466,-220.828"/>
</g>
<!-- X::IO::DoesNotExist&#45;&gt;X::IO -->
<g id="edge48" class="edge"><title>X::IO::DoesNotExist&#45;&gt;X::IO</title>
<path fill="none" stroke="#6666ff" d="M558.961,-30.3392C576.938,-33.4576 591.594,-36 591.594,-36 591.594,-36 782.91,-68.0877 867.818,-82.3287"/>
<polygon fill="#6666ff" stroke="#6666ff" points="867.424,-85.8115 877.865,-84.0139 868.582,-78.9079 867.424,-85.8115"/>
</g>
<!-- X::IO::Copy -->
<g id="node10" class="node"><title>X::IO::Copy</title>
<g id="a_node10"><a xlink:href="/type/X::IO::Copy" xlink:title="X::IO::Copy">
<ellipse fill="none" stroke="#000000" cx="657.594" cy="-18" rx="56.59" ry="18"/>
<text text-anchor="middle" x="657.594" y="-14.3" font-family="FreeSans" font-size="14.00" fill="#000000">X::IO::Copy</text>
</a>
</g>
</g>
<!-- X::IO::Copy&#45;&gt;Exception -->
<g id="edge17" class="edge"><title>X::IO::Copy&#45;&gt;Exception</title>
<path fill="none" stroke="#000000" d="M668.113,-35.9255C706.179,-77.2617 823.594,-180 823.594,-180 823.594,-180 889.968,-204.095 938.728,-219.792"/>
<polygon fill="#000000" stroke="#000000" points="937.937,-223.213 948.527,-222.906 940.057,-216.542 937.937,-223.213"/>
</g>
<!-- X::IO::Copy&#45;&gt;Exception -->
<g id="edge18" class="edge"><title>X::IO::Copy&#45;&gt;Exception</title>
<path fill="none" stroke="#000000" d="M676.249,-35.3235C723.028,-76.2544 841.594,-180 841.594,-180 841.594,-180 901.239,-201.652 944.283,-217.278"/>
<polygon fill="#000000" stroke="#000000" points="943.138,-220.585 953.732,-220.708 945.526,-214.005 943.138,-220.585"/>
</g>
<!-- X::IO::Copy&#45;&gt;Exception -->
<g id="edge19" class="edge"><title>X::IO::Copy&#45;&gt;Exception</title>
<path fill="none" stroke="#000000" d="M683.319,-34.1465C738.709,-74.2252 859.594,-180 859.594,-180 859.594,-180 913.349,-199.514 951.602,-214.86"/>
<polygon fill="#000000" stroke="#000000" points="950.369,-218.137 960.952,-218.657 953.004,-211.652 950.369,-218.137"/>
</g>
<!-- X::IO::Copy&#45;&gt;X::IO -->
<g id="edge49" class="edge"><title>X::IO::Copy&#45;&gt;X::IO</title>
<path fill="none" stroke="#6666ff" d="M698.596,-30.4807C746.247,-43.8227 824.206,-65.6514 870.24,-78.541"/>
<polygon fill="#6666ff" stroke="#6666ff" points="869.537,-81.9786 880.11,-81.3046 871.425,-75.2379 869.537,-81.9786"/>
</g>
<!-- X::IO::Chdir -->
<g id="node11" class="node"><title>X::IO::Chdir</title>
<g id="a_node11"><a xlink:href="/type/X::IO::Chdir" xlink:title="X::IO::Chdir">
<ellipse fill="none" stroke="#000000" cx="789.594" cy="-18" rx="57.3905" ry="18"/>
<text text-anchor="middle" x="789.594" y="-14.3" font-family="FreeSans" font-size="14.00" fill="#000000">X::IO::Chdir</text>
</a>
</g>
</g>
<!-- X::IO::Chdir&#45;&gt;Exception -->
<g id="edge20" class="edge"><title>X::IO::Chdir&#45;&gt;Exception</title>
<path fill="none" stroke="#000000" d="M788.301,-36.2298C797.508,-77.7634 842.594,-180 842.594,-180 842.594,-180 897.77,-203.026 940.54,-218.724"/>
<polygon fill="#000000" stroke="#000000" points="939.408,-222.036 950.002,-222.147 941.789,-215.454 939.408,-222.036"/>
</g>
<!-- X::IO::Chdir&#45;&gt;Exception -->
<g id="edge21" class="edge"><title>X::IO::Chdir&#45;&gt;Exception</title>
<path fill="none" stroke="#000000" d="M797.058,-35.9255C815.287,-77.2617 860.594,-180 860.594,-180 860.594,-180 909.467,-200.396 946.577,-215.883"/>
<polygon fill="#000000" stroke="#000000" points="945.624,-219.278 956.201,-219.899 948.32,-212.817 945.624,-219.278"/>
</g>
<!-- X::IO::Chdir&#45;&gt;Exception -->
<g id="edge22" class="edge"><title>X::IO::Chdir&#45;&gt;Exception</title>
<path fill="none" stroke="#000000" d="M805.482,-35.3235C832.843,-76.2544 878.594,-180 878.594,-180 878.594,-180 922.83,-198.461 955.387,-213.592"/>
<polygon fill="#000000" stroke="#000000" points="954.096,-216.852 964.633,-217.954 957.083,-210.522 954.096,-216.852"/>
</g>
<!-- X::IO::Chdir&#45;&gt;X::IO -->
<g id="edge50" class="edge"><title>X::IO::Chdir&#45;&gt;X::IO</title>
<path fill="none" stroke="#6666ff" d="M815.198,-34.189C833.572,-45.0887 858.389,-59.8106 877.677,-71.2523"/>
<polygon fill="#6666ff" stroke="#6666ff" points="875.99,-74.3215 886.377,-76.4134 879.562,-68.3011 875.99,-74.3215"/>
</g>
<!-- X::IO::Unlink -->
<g id="node12" class="node"><title>X::IO::Unlink</title>
<g id="a_node12"><a xlink:href="/type/X::IO::Unlink" xlink:title="X::IO::Unlink">
<ellipse fill="none" stroke="#000000" cx="925.594" cy="-18" rx="61.1893" ry="18"/>
<text text-anchor="middle" x="925.594" y="-14.3" font-family="FreeSans" font-size="14.00" fill="#000000">X::IO::Unlink</text>
</a>
</g>
</g>
<!-- X::IO::Unlink&#45;&gt;Exception -->
<g id="edge23" class="edge"><title>X::IO::Unlink&#45;&gt;Exception</title>
<path fill="none" stroke="#000000" d="M918.989,-36.0613C921.107,-51.5549 929.594,-72 929.594,-72 929.594,-72 951.857,-161.609 970.639,-207.123"/>
<polygon fill="#000000" stroke="#000000" points="967.479,-208.631 974.707,-216.377 973.887,-205.814 967.479,-208.631"/>
</g>
<!-- X::IO::Unlink&#45;&gt;Exception -->
<g id="edge24" class="edge"><title>X::IO::Unlink&#45;&gt;Exception</title>
<path fill="none" stroke="#000000" d="M932.676,-36.0613C939.107,-51.5549 947.594,-72 947.594,-72 947.594,-72 969.456,-159.994 980.855,-205.876"/>
<polygon fill="#000000" stroke="#000000" points="977.505,-206.909 983.313,-215.77 984.299,-205.221 977.505,-206.909"/>
</g>
<!-- X::IO::Unlink&#45;&gt;Exception -->
<g id="edge25" class="edge"><title>X::IO::Unlink&#45;&gt;Exception</title>
<path fill="none" stroke="#000000" d="M945.753,-35.1897C956.784,-50.7761 965.594,-72 965.594,-72 965.594,-72 987.471,-160.054 991.586,-205.923"/>
<polygon fill="#000000" stroke="#000000" points="988.103,-206.309 992.213,-216.074 995.09,-205.878 988.103,-206.309"/>
</g>
<!-- X::IO::Unlink&#45;&gt;X::IO -->
<g id="edge51" class="edge"><title>X::IO::Unlink&#45;&gt;X::IO</title>
<path fill="none" stroke="#6666ff" d="M921.145,-36.3034C919.139,-44.1021 916.725,-53.4915 914.493,-62.1708"/>
<polygon fill="#6666ff" stroke="#6666ff" points="911.093,-61.3391 911.992,-71.8957 917.872,-63.0824 911.093,-61.3391"/>
</g>
<!-- X::IO::Chmod -->
<g id="node13" class="node"><title>X::IO::Chmod</title>
<g id="a_node13"><a xlink:href="/type/X::IO::Chmod" xlink:title="X::IO::Chmod">
<ellipse fill="none" stroke="#000000" cx="1068.59" cy="-18" rx="64.189" ry="18"/>
<text text-anchor="middle" x="1068.59" y="-14.3" font-family="FreeSans" font-size="14.00" fill="#000000">X::IO::Chmod</text>
</a>
</g>
</g>
<!-- X::IO::Chmod&#45;&gt;Exception -->
<g id="edge26" class="edge"><title>X::IO::Chmod&#45;&gt;Exception</title>
<path fill="none" stroke="#000000" d="M1054.55,-35.7922C1033.41,-72.736 999.329,-161.329 988.454,-206.113"/>
<polygon fill="#000000" stroke="#000000" points="985.011,-205.474 986.304,-215.99 991.851,-206.963 985.011,-205.474"/>
</g>
<!-- X::IO::Chmod&#45;&gt;Exception -->
<g id="edge27" class="edge"><title>X::IO::Chmod&#45;&gt;Exception</title>
<path fill="none" stroke="#000000" d="M1062.1,-36.1508C1048,-73.4168 1014.47,-161.998 997.621,-206.51"/>
<polygon fill="#000000" stroke="#000000" points="994.271,-205.473 994.004,-216.065 1000.82,-207.951 994.271,-205.473"/>
</g>
<!-- X::IO::Chmod&#45;&gt;Exception -->
<g id="edge28" class="edge"><title>X::IO::Chmod&#45;&gt;Exception</title>
<path fill="none" stroke="#000000" d="M1069.86,-36.1508C1062.81,-73.7585 1029.24,-163.627 1006.25,-207.723"/>
<polygon fill="#000000" stroke="#000000" points="1003.1,-206.198 1001.38,-216.652 1009.24,-209.551 1003.1,-206.198"/>
</g>
<!-- X::IO::Chmod&#45;&gt;X::IO -->
<g id="edge52" class="edge"><title>X::IO::Chmod&#45;&gt;X::IO</title>
<path fill="none" stroke="#6666ff" d="M1035.23,-33.504C1007.72,-45.4687 968.85,-62.3671 941.25,-74.367"/>
<polygon fill="#6666ff" stroke="#6666ff" points="939.77,-71.194 931.994,-78.3911 942.561,-77.6135 939.77,-71.194"/>
</g>
<!-- X::IO::Rename -->
<g id="node14" class="node"><title>X::IO::Rename</title>
<g id="a_node14"><a xlink:href="/type/X::IO::Rename" xlink:title="X::IO::Rename">
<ellipse fill="none" stroke="#000000" cx="1220.59" cy="-18" rx="69.5877" ry="18"/>
<text text-anchor="middle" x="1220.59" y="-14.3" font-family="FreeSans" font-size="14.00" fill="#000000">X::IO::Rename</text>
</a>
</g>
</g>
<!-- X::IO::Rename&#45;&gt;Exception -->
<g id="edge29" class="edge"><title>X::IO::Rename&#45;&gt;Exception</title>
<path fill="none" stroke="#000000" d="M1194.75,-35.0259C1141.62,-75.749 1029.59,-180 1029.59,-180 1029.59,-180 1013.12,-194.555 1000.02,-208.41"/>
<polygon fill="#000000" stroke="#000000" points="997.327,-206.172 993.221,-215.939 1002.52,-210.864 997.327,-206.172"/>
</g>
<!-- X::IO::Rename&#45;&gt;Exception -->
<g id="edge30" class="edge"><title>X::IO::Rename&#45;&gt;Exception</title>
<path fill="none" stroke="#000000" d="M1202.73,-35.6234C1158.53,-76.7587 1047.59,-180 1047.59,-180 1047.59,-180 1029.63,-195.869 1013.36,-210.24"/>
<polygon fill="#000000" stroke="#000000" points="1010.77,-207.855 1005.6,-217.098 1015.41,-213.101 1010.77,-207.855"/>
</g>
<!-- X::IO::Rename&#45;&gt;Exception -->
<g id="edge31" class="edge"><title>X::IO::Rename&#45;&gt;Exception</title>
<path fill="none" stroke="#000000" d="M1211.23,-35.9255C1175.99,-77.2617 1065.59,-180 1065.59,-180 1065.59,-180 1044.97,-198.215 1024.28,-213.288"/>
<polygon fill="#000000" stroke="#000000" points="1022.24,-210.448 1016.09,-219.075 1026.27,-216.166 1022.24,-210.448"/>
</g>
<!-- X::IO::Rename&#45;&gt;X::IO -->
<g id="edge53" class="edge"><title>X::IO::Rename&#45;&gt;X::IO</title>
<path fill="none" stroke="#6666ff" d="M1169.61,-30.4025C1106.99,-44.4073 1002.18,-67.8474 945.97,-80.4176"/>
<polygon fill="#6666ff" stroke="#6666ff" points="945.056,-77.0353 936.061,-82.6335 946.584,-83.8665 945.056,-77.0353"/>
</g>
<!-- X::IO::Dir -->
<g id="node15" class="node"><title>X::IO::Dir</title>
<g id="a_node15"><a xlink:href="/type/X::IO::Dir" xlink:title="X::IO::Dir">
<ellipse fill="none" stroke="#000000" cx="1355.59" cy="-18" rx="47.3916" ry="18"/>
<text text-anchor="middle" x="1355.59" y="-14.3" font-family="FreeSans" font-size="14.00" fill="#000000">X::IO::Dir</text>
</a>
</g>
</g>
<!-- X::IO::Dir&#45;&gt;Exception -->
<g id="edge32" class="edge"><title>X::IO::Dir&#45;&gt;Exception</title>
<path fill="none" stroke="#000000" d="M1326.39,-32.3123C1254.77,-70.8858 1080.59,-180 1080.59,-180 1080.59,-180 1043.82,-197.557 1016.04,-212.461"/>
<polygon fill="#000000" stroke="#000000" points="1014.13,-209.519 1007.03,-217.385 1017.48,-215.661 1014.13,-209.519"/>
</g>
<!-- X::IO::Dir&#45;&gt;Exception -->
<g id="edge33" class="edge"><title>X::IO::Dir&#45;&gt;Exception</title>
<path fill="none" stroke="#000000" d="M1331.88,-33.8579C1268.25,-73.7148 1098.59,-180 1098.59,-180 1098.59,-180 1057.81,-199.475 1025.68,-214.814"/>
<polygon fill="#000000" stroke="#000000" points="1023.98,-211.746 1016.47,-219.213 1027,-218.063 1023.98,-211.746"/>
</g>
<!-- X::IO::Dir&#45;&gt;Exception -->
<g id="edge34" class="edge"><title>X::IO::Dir&#45;&gt;Exception</title>
<path fill="none" stroke="#000000" d="M1338.63,-35.0259C1283.01,-75.749 1116.59,-180 1116.59,-180 1116.59,-180 1070.47,-202.021 1032.87,-217.675"/>
<polygon fill="#000000" stroke="#000000" points="1031.45,-214.472 1023.53,-221.5 1034.11,-220.95 1031.45,-214.472"/>
</g>
<!-- X::IO::Dir&#45;&gt;X::IO -->
<g id="edge54" class="edge"><title>X::IO::Dir&#45;&gt;X::IO</title>
<path fill="none" stroke="#6666ff" d="M1319.81,-29.8626C1308.84,-33.1943 1299.59,-36 1299.59,-36 1299.59,-36 1047.64,-70.0648 947.722,-83.5745"/>
<polygon fill="#6666ff" stroke="#6666ff" points="947.144,-80.1208 937.703,-84.9292 948.081,-87.0577 947.144,-80.1208"/>
</g>
<!-- X::IO::Move -->
<g id="node16" class="node"><title>X::IO::Move</title>
<g id="a_node16"><a xlink:href="/type/X::IO::Move" xlink:title="X::IO::Move">
<ellipse fill="none" stroke="#000000" cx="1478.59" cy="-18" rx="57.6901" ry="18"/>
<text text-anchor="middle" x="1478.59" y="-14.3" font-family="FreeSans" font-size="14.00" fill="#000000">X::IO::Move</text>
</a>
</g>
</g>
<!-- X::IO::Move&#45;&gt;Exception -->
<g id="edge35" class="edge"><title>X::IO::Move&#45;&gt;Exception</title>
<path fill="none" stroke="#000000" d="M1443.87,-32.4499C1356.95,-71.1446 1140.59,-180 1140.59,-180 1140.59,-180 1073.59,-200.766 1027.89,-216.301"/>
<polygon fill="#000000" stroke="#000000" points="1026.53,-213.068 1018.2,-219.626 1028.8,-219.688 1026.53,-213.068"/>
</g>
<!-- X::IO::Move&#45;&gt;Exception -->
<g id="edge36" class="edge"><title>X::IO::Move&#45;&gt;Exception</title>
<path fill="none" stroke="#000000" d="M1449.35,-33.7145C1370.35,-73.4592 1158.59,-180 1158.59,-180 1158.59,-180 1084.29,-203.029 1033.64,-218.727"/>
<polygon fill="#000000" stroke="#000000" points="1032.37,-215.456 1023.86,-221.76 1034.45,-222.143 1032.37,-215.456"/>
</g>
<!-- X::IO::Move&#45;&gt;Exception -->
<g id="edge37" class="edge"><title>X::IO::Move&#45;&gt;Exception</title>
<path fill="none" stroke="#000000" d="M1455.88,-34.7305C1384.81,-75.2423 1176.59,-180 1176.59,-180 1176.59,-180 1094.52,-205.437 1038.11,-221.067"/>
<polygon fill="#000000" stroke="#000000" points="1036.97,-217.75 1028.25,-223.768 1038.82,-224.501 1036.97,-217.75"/>
</g>
<!-- X::IO::Move&#45;&gt;X::IO -->
<g id="edge55" class="edge"><title>X::IO::Move&#45;&gt;X::IO</title>
<path fill="none" stroke="#6666ff" d="M1435.03,-30.0542C1422.23,-33.3012 1411.59,-36 1411.59,-36 1411.59,-36 1068,-72.1314 948.206,-84.7293"/>
<polygon fill="#6666ff" stroke="#6666ff" points="947.566,-81.2773 937.986,-85.804 948.298,-88.2389 947.566,-81.2773"/>
</g>
<!-- X::IO::Rmdir -->
<g id="node17" class="node"><title>X::IO::Rmdir</title>
<g id="a_node17"><a xlink:href="/type/X::IO::Rmdir" xlink:title="X::IO::Rmdir">
<ellipse fill="none" stroke="#000000" cx="1614.59" cy="-18" rx="59.5901" ry="18"/>
<text text-anchor="middle" x="1614.59" y="-14.3" font-family="FreeSans" font-size="14.00" fill="#000000">X::IO::Rmdir</text>
</a>
</g>
</g>
<!-- X::IO::Rmdir&#45;&gt;Exception -->
<g id="edge38" class="edge"><title>X::IO::Rmdir&#45;&gt;Exception</title>
<path fill="none" stroke="#000000" d="M1575.93,-31.768C1473.74,-69.8479 1207.59,-180 1207.59,-180 1207.59,-180 1100.1,-203.938 1035.06,-219.638"/>
<polygon fill="#000000" stroke="#000000" points="1033.9,-216.319 1025.01,-222.083 1035.55,-223.121 1033.9,-216.319"/>
</g>
<!-- X::IO::Rmdir&#45;&gt;Exception -->
<g id="edge39" class="edge"><title>X::IO::Rmdir&#45;&gt;Exception</title>
<path fill="none" stroke="#000000" d="M1580.75,-33.006C1486.11,-72.1764 1225.59,-180 1225.59,-180 1225.59,-180 1108.37,-206.105 1038.46,-221.673"/>
<polygon fill="#000000" stroke="#000000" points="1037.51,-218.299 1028.51,-223.889 1039.03,-225.132 1037.51,-218.299"/>
</g>
<!-- X::IO::Rmdir&#45;&gt;Exception -->
<g id="edge40" class="edge"><title>X::IO::Rmdir&#45;&gt;Exception</title>
<path fill="none" stroke="#000000" d="M1586.73,-34.0019C1499.78,-73.9702 1243.59,-180 1243.59,-180 1243.59,-180 1116.47,-208.31 1041.01,-223.549"/>
<polygon fill="#000000" stroke="#000000" points="1040.29,-220.123 1031.17,-225.519 1041.66,-226.987 1040.29,-220.123"/>
</g>
<!-- X::IO::Rmdir&#45;&gt;X::IO -->
<g id="edge56" class="edge"><title>X::IO::Rmdir&#45;&gt;X::IO</title>
<path fill="none" stroke="#6666ff" d="M1569.73,-30.0542C1556.55,-33.3012 1545.59,-36 1545.59,-36 1545.59,-36 1089.86,-73.8585 948.741,-85.5818"/>
<polygon fill="#6666ff" stroke="#6666ff" points="948.042,-82.1278 938.366,-86.4437 948.622,-89.1037 948.042,-82.1278"/>
</g>
<!-- X::IO::Mkdir -->
<g id="node18" class="node"><title>X::IO::Mkdir</title>
<g id="a_node18"><a xlink:href="/type/X::IO::Mkdir" xlink:title="X::IO::Mkdir">
<ellipse fill="none" stroke="#000000" cx="1750.59" cy="-18" rx="58.4896" ry="18"/>
<text text-anchor="middle" x="1750.59" y="-14.3" font-family="FreeSans" font-size="14.00" fill="#000000">X::IO::Mkdir</text>
</a>
</g>
</g>
<!-- X::IO::Mkdir&#45;&gt;Exception -->
<g id="edge41" class="edge"><title>X::IO::Mkdir&#45;&gt;Exception</title>
<path fill="none" stroke="#000000" d="M1709.54,-30.9696C1594.85,-68.2818 1282.59,-180 1282.59,-180 1282.59,-180 1124.22,-206.817 1039.27,-222.3"/>
<polygon fill="#000000" stroke="#000000" points="1038.49,-218.883 1029.28,-224.129 1039.75,-225.769 1038.49,-218.883"/>
</g>
<!-- X::IO::Mkdir&#45;&gt;Exception -->
<g id="edge42" class="edge"><title>X::IO::Mkdir&#45;&gt;Exception</title>
<path fill="none" stroke="#000000" d="M1713.77,-32.1753C1606.3,-70.6268 1300.59,-180 1300.59,-180 1300.59,-180 1130.92,-208.731 1041.42,-223.886"/>
<polygon fill="#000000" stroke="#000000" points="1040.72,-220.454 1031.44,-225.575 1041.89,-227.356 1040.72,-220.454"/>
</g>
<!-- X::IO::Mkdir&#45;&gt;Exception -->
<g id="edge43" class="edge"><title>X::IO::Mkdir&#45;&gt;Exception</title>
<path fill="none" stroke="#000000" d="M1718.86,-33.2877C1618.53,-72.6904 1318.59,-180 1318.59,-180 1318.59,-180 1137.62,-210.643 1042.98,-225.329"/>
<polygon fill="#000000" stroke="#000000" points="1042.34,-221.886 1032.99,-226.868 1043.41,-228.804 1042.34,-221.886"/>
</g>
<!-- X::IO::Mkdir&#45;&gt;X::IO -->
<g id="edge57" class="edge"><title>X::IO::Mkdir&#45;&gt;X::IO</title>
<path fill="none" stroke="#6666ff" d="M1707.03,-30.0542C1694.23,-33.3012 1683.59,-36 1683.59,-36 1683.59,-36 1109.5,-75.2097 948.897,-86.179"/>
<polygon fill="#6666ff" stroke="#6666ff" points="948.231,-82.7163 938.493,-86.8896 948.708,-89.7 948.231,-82.7163"/>
</g>
</g>
</svg>
