<?xml version="1.0" encoding="UTF-8" standalone="no"?>
<!DOCTYPE svg PUBLIC "-//W3C//DTD SVG 1.1//EN"
 "http://www.w3.org/Graphics/SVG/1.1/DTD/svg11.dtd">
<!-- Generated by graphviz version 2.38.0 (20140413.2041)
 -->
<!-- Title: perl6&#45;type&#45;graph Pages: 1 -->
<svg width="1052pt" height="332pt"
 viewBox="0.00 0.00 1051.54 332.00" xmlns="http://www.w3.org/2000/svg" xmlns:xlink="http://www.w3.org/1999/xlink">
<g id="graph0" class="graph" transform="scale(1 1) rotate(0) translate(4 328)">
<title>perl6&#45;type&#45;graph</title>
<polygon fill="white" stroke="none" points="-4,4 -4,-328 1047.54,-328 1047.54,4 -4,4"/>
<!-- Numeric -->
<g id="node1" class="node"><title>Numeric</title>
<g id="a_node1"><a xlink:href="/type/Numeric" xlink:title="Numeric">
<ellipse fill="none" stroke="#6666ff" cx="736" cy="-234" rx="44.393" ry="18"/>
<text text-anchor="middle" x="736" y="-230.3" font-family="FreeSans" font-size="14.00" fill="#6666ff">Numeric</text>
</a>
</g>
</g>
<!-- Real -->
<g id="node2" class="node"><title>Real</title>
<g id="a_node2"><a xlink:href="/type/Real" xlink:title="Real">
<ellipse fill="none" stroke="#6666ff" cx="391" cy="-162" rx="28.6953" ry="18"/>
<text text-anchor="middle" x="391" y="-158.3" font-family="FreeSans" font-size="14.00" fill="#6666ff">Real</text>
</a>
</g>
</g>
<!-- Real&#45;&gt;Numeric -->
<g id="edge23" class="edge"><title>Real&#45;&gt;Numeric</title>
<path fill="none" stroke="#6666ff" d="M417.096,-169.524C436.272,-174.318 459,-180 459,-180 459,-180 606.96,-208.31 686.605,-223.549"/>
<polygon fill="#6666ff" stroke="#6666ff" points="686.421,-227.077 696.9,-225.519 687.736,-220.202 686.421,-227.077"/>
</g>
<!-- Mu -->
<g id="node3" class="node"><title>Mu</title>
<g id="a_node3"><a xlink:href="/type/Mu" xlink:title="Mu">
<ellipse fill="none" stroke="#000000" cx="497" cy="-306" rx="27" ry="18"/>
<text text-anchor="middle" x="497" y="-302.3" font-family="FreeSans" font-size="14.00" fill="#000000">Mu</text>
</a>
</g>
</g>
<!-- Any -->
<g id="node4" class="node"><title>Any</title>
<g id="a_node4"><a xlink:href="/type/Any" xlink:title="Any">
<ellipse fill="none" stroke="#000000" cx="497" cy="-234" rx="27" ry="18"/>
<text text-anchor="middle" x="497" y="-230.3" font-family="FreeSans" font-size="14.00" fill="#000000">Any</text>
</a>
</g>
</g>
<!-- Any&#45;&gt;Mu -->
<g id="edge1" class="edge"><title>Any&#45;&gt;Mu</title>
<path fill="none" stroke="#000000" d="M497,-252.303C497,-260.017 497,-269.288 497,-277.888"/>
<polygon fill="#000000" stroke="#000000" points="493.5,-277.896 497,-287.896 500.5,-277.896 493.5,-277.896"/>
</g>
<!-- Cool -->
<g id="node5" class="node"><title>Cool</title>
<g id="a_node5"><a xlink:href="/type/Cool" xlink:title="Cool">
<ellipse fill="none" stroke="#000000" cx="497" cy="-162" rx="28.6953" ry="18"/>
<text text-anchor="middle" x="497" y="-158.3" font-family="FreeSans" font-size="14.00" fill="#000000">Cool</text>
</a>
</g>
</g>
<!-- Cool&#45;&gt;Any -->
<g id="edge2" class="edge"><title>Cool&#45;&gt;Any</title>
<path fill="none" stroke="#000000" d="M497,-180.303C497,-188.017 497,-197.288 497,-205.888"/>
<polygon fill="#000000" stroke="#000000" points="493.5,-205.896 497,-215.896 500.5,-205.896 493.5,-205.896"/>
</g>
<!-- Complex -->
<g id="node6" class="node"><title>Complex</title>
<g id="a_node6"><a xlink:href="/type/Complex" xlink:title="Complex">
<ellipse fill="none" stroke="#000000" cx="871" cy="-90" rx="45.4919" ry="18"/>
<text text-anchor="middle" x="871" y="-86.3" font-family="FreeSans" font-size="14.00" fill="#000000">Complex</text>
</a>
</g>
</g>
<!-- Complex&#45;&gt;Numeric -->
<g id="edge24" class="edge"><title>Complex&#45;&gt;Numeric</title>
<path fill="none" stroke="#6666ff" d="M862.912,-107.74C850.456,-133.521 828,-180 828,-180 828,-180 795.917,-198.482 769.643,-213.619"/>
<polygon fill="#6666ff" stroke="#6666ff" points="767.572,-210.772 760.654,-218.797 771.066,-216.838 767.572,-210.772"/>
</g>
<!-- Complex&#45;&gt;Cool -->
<g id="edge3" class="edge"><title>Complex&#45;&gt;Cool</title>
<path fill="none" stroke="#000000" d="M836.495,-101.863C825.912,-105.194 817,-108 817,-108 817,-108 618.566,-140.866 534.219,-154.836"/>
<polygon fill="#000000" stroke="#000000" points="533.577,-151.394 524.283,-156.481 534.721,-158.3 533.577,-151.394"/>
</g>
<!-- Stringy -->
<g id="node7" class="node"><title>Stringy</title>
<g id="a_node7"><a xlink:href="/type/Stringy" xlink:title="Stringy">
<ellipse fill="none" stroke="#6666ff" cx="781" cy="-162" rx="38.1938" ry="18"/>
<text text-anchor="middle" x="781" y="-158.3" font-family="FreeSans" font-size="14.00" fill="#6666ff">Stringy</text>
</a>
</g>
</g>
<!-- Str -->
<g id="node8" class="node"><title>Str</title>
<g id="a_node8"><a xlink:href="/type/Str" xlink:title="Str">
<ellipse fill="none" stroke="#000000" cx="781" cy="-90" rx="27" ry="18"/>
<text text-anchor="middle" x="781" y="-86.3" font-family="FreeSans" font-size="14.00" fill="#000000">Str</text>
</a>
</g>
</g>
<!-- Str&#45;&gt;Cool -->
<g id="edge4" class="edge"><title>Str&#45;&gt;Cool</title>
<path fill="none" stroke="#000000" d="M755.797,-97.212C705.34,-109.649 591.756,-137.645 533.289,-152.055"/>
<polygon fill="#000000" stroke="#000000" points="532.251,-148.706 523.38,-154.498 533.927,-155.503 532.251,-148.706"/>
</g>
<!-- Str&#45;&gt;Stringy -->
<g id="edge25" class="edge"><title>Str&#45;&gt;Stringy</title>
<path fill="none" stroke="#6666ff" d="M781,-108.303C781,-116.017 781,-125.288 781,-133.888"/>
<polygon fill="#6666ff" stroke="#6666ff" points="777.5,-133.896 781,-143.896 784.5,-133.896 777.5,-133.896"/>
</g>
<!-- ComplexStr -->
<g id="node9" class="node"><title>ComplexStr</title>
<g id="a_node9"><a xlink:href="/type/ComplexStr" xlink:title="ComplexStr">
<ellipse fill="none" stroke="#000000" cx="987" cy="-18" rx="56.59" ry="18"/>
<text text-anchor="middle" x="987" y="-14.3" font-family="FreeSans" font-size="14.00" fill="#000000">ComplexStr</text>
</a>
</g>
</g>
<!-- ComplexStr&#45;&gt;Complex -->
<g id="edge5" class="edge"><title>ComplexStr&#45;&gt;Complex</title>
<path fill="none" stroke="#000000" d="M961.83,-34.189C944.765,-44.4865 922.047,-58.1955 903.601,-69.327"/>
<polygon fill="#000000" stroke="#000000" points="901.686,-66.3949 894.932,-74.5583 905.302,-72.3883 901.686,-66.3949"/>
</g>
<!-- ComplexStr&#45;&gt;Str -->
<g id="edge6" class="edge"><title>ComplexStr&#45;&gt;Str</title>
<path fill="none" stroke="#000000" d="M947.999,-31.1593C897.809,-46.8067 817,-72 817,-72 817,-72 814.82,-73.0296 811.532,-74.5819"/>
<polygon fill="#000000" stroke="#000000" points="809.905,-71.4796 802.357,-78.9146 812.894,-77.8093 809.905,-71.4796"/>
</g>
<!-- Int -->
<g id="node10" class="node"><title>Int</title>
<g id="a_node10"><a xlink:href="/type/Int" xlink:title="Int">
<ellipse fill="none" stroke="#000000" cx="525" cy="-90" rx="27" ry="18"/>
<text text-anchor="middle" x="525" y="-86.3" font-family="FreeSans" font-size="14.00" fill="#000000">Int</text>
</a>
</g>
</g>
<!-- Int&#45;&gt;Real -->
<g id="edge26" class="edge"><title>Int&#45;&gt;Real</title>
<path fill="none" stroke="#6666ff" d="M504.356,-101.784C482.223,-113.346 446.852,-131.824 421.507,-145.064"/>
<polygon fill="#6666ff" stroke="#6666ff" points="419.575,-142.124 412.332,-149.856 422.816,-148.328 419.575,-142.124"/>
</g>
<!-- Int&#45;&gt;Cool -->
<g id="edge7" class="edge"><title>Int&#45;&gt;Cool</title>
<path fill="none" stroke="#000000" d="M518.364,-107.589C515.134,-115.665 511.172,-125.569 507.542,-134.645"/>
<polygon fill="#000000" stroke="#000000" points="504.247,-133.459 503.782,-144.044 510.746,-136.059 504.247,-133.459"/>
</g>
<!-- Instant -->
<g id="node11" class="node"><title>Instant</title>
<g id="a_node11"><a xlink:href="/type/Instant" xlink:title="Instant">
<ellipse fill="none" stroke="#000000" cx="261" cy="-90" rx="37.0935" ry="18"/>
<text text-anchor="middle" x="261" y="-86.3" font-family="FreeSans" font-size="14.00" fill="#000000">Instant</text>
</a>
</g>
</g>
<!-- Instant&#45;&gt;Real -->
<g id="edge27" class="edge"><title>Instant&#45;&gt;Real</title>
<path fill="none" stroke="#6666ff" d="M284.844,-103.839C306.233,-115.356 337.722,-132.312 360.851,-144.766"/>
<polygon fill="#6666ff" stroke="#6666ff" points="359.423,-147.972 369.887,-149.632 362.742,-141.809 359.423,-147.972"/>
</g>
<!-- Instant&#45;&gt;Cool -->
<g id="edge8" class="edge"><title>Instant&#45;&gt;Cool</title>
<path fill="none" stroke="#000000" d="M289.609,-101.573C298.964,-105.03 307,-108 307,-108 307,-108 406.715,-135.815 461.67,-151.145"/>
<polygon fill="#000000" stroke="#000000" points="460.803,-154.537 471.376,-153.852 462.684,-147.794 460.803,-154.537"/>
</g>
<!-- Num -->
<g id="node12" class="node"><title>Num</title>
<g id="a_node12"><a xlink:href="/type/Num" xlink:title="Num">
<ellipse fill="none" stroke="#000000" cx="600" cy="-90" rx="29.795" ry="18"/>
<text text-anchor="middle" x="600" y="-86.3" font-family="FreeSans" font-size="14.00" fill="#000000">Num</text>
</a>
</g>
</g>
<!-- Num&#45;&gt;Real -->
<g id="edge28" class="edge"><title>Num&#45;&gt;Real</title>
<path fill="none" stroke="#6666ff" d="M576.414,-101.281C568.201,-104.861 561,-108 561,-108 561,-108 475.552,-134.64 425.815,-150.146"/>
<polygon fill="#6666ff" stroke="#6666ff" points="424.589,-146.862 416.084,-153.18 426.673,-153.545 424.589,-146.862"/>
</g>
<!-- Num&#45;&gt;Cool -->
<g id="edge9" class="edge"><title>Num&#45;&gt;Cool</title>
<path fill="none" stroke="#000000" d="M580.626,-104.166C564.846,-114.891 542.365,-130.17 524.685,-142.185"/>
<polygon fill="#000000" stroke="#000000" points="522.242,-139.613 515.939,-148.129 526.177,-145.403 522.242,-139.613"/>
</g>
<!-- Duration -->
<g id="node13" class="node"><title>Duration</title>
<g id="a_node13"><a xlink:href="/type/Duration" xlink:title="Duration">
<ellipse fill="none" stroke="#000000" cx="360" cy="-90" rx="44.393" ry="18"/>
<text text-anchor="middle" x="360" y="-86.3" font-family="FreeSans" font-size="14.00" fill="#000000">Duration</text>
</a>
</g>
</g>
<!-- Duration&#45;&gt;Real -->
<g id="edge29" class="edge"><title>Duration&#45;&gt;Real</title>
<path fill="none" stroke="#6666ff" d="M367.504,-107.945C371.084,-116.027 375.446,-125.879 379.436,-134.888"/>
<polygon fill="#6666ff" stroke="#6666ff" points="376.315,-136.485 383.565,-144.211 382.716,-133.65 376.315,-136.485"/>
</g>
<!-- Duration&#45;&gt;Cool -->
<g id="edge10" class="edge"><title>Duration&#45;&gt;Cool</title>
<path fill="none" stroke="#000000" d="M386.415,-104.497C409.205,-116.141 442.141,-132.97 466.139,-145.231"/>
<polygon fill="#000000" stroke="#000000" points="464.681,-148.417 475.178,-149.85 467.866,-142.184 464.681,-148.417"/>
</g>
<!-- Rational -->
<g id="node14" class="node"><title>Rational</title>
<g id="a_node14"><a xlink:href="/type/Rational" xlink:title="Rational">
<ellipse fill="none" stroke="#6666ff" cx="109" cy="-90" rx="42.7926" ry="18"/>
<text text-anchor="middle" x="109" y="-86.3" font-family="FreeSans" font-size="14.00" fill="#6666ff">Rational</text>
</a>
</g>
</g>
<!-- Rational&#45;&gt;Real -->
<g id="edge30" class="edge"><title>Rational&#45;&gt;Real</title>
<path fill="none" stroke="#6666ff" d="M145.002,-99.9366C199.125,-113.372 300.867,-138.627 354.993,-152.062"/>
<polygon fill="#6666ff" stroke="#6666ff" points="354.291,-155.494 364.84,-154.506 355.978,-148.7 354.291,-155.494"/>
</g>
<!-- atomicint -->
<g id="node15" class="node"><title>atomicint</title>
<g id="a_node15"><a xlink:href="/type/atomicint" xlink:title="atomicint">
<ellipse fill="none" stroke="#000000" cx="358" cy="-18" rx="46.2923" ry="18"/>
<text text-anchor="middle" x="358" y="-14.3" font-family="FreeSans" font-size="14.00" fill="#000000">atomicint</text>
</a>
</g>
</g>
<!-- atomicint&#45;&gt;Int -->
<g id="edge11" class="edge"><title>atomicint&#45;&gt;Int</title>
<path fill="none" stroke="#000000" d="M388.242,-31.6765C418.012,-44.1549 463.283,-63.1307 493.486,-75.7903"/>
<polygon fill="#000000" stroke="#000000" points="492.148,-79.0245 502.723,-79.6624 494.854,-72.5687 492.148,-79.0245"/>
</g>
<!-- Signal -->
<g id="node16" class="node"><title>Signal</title>
<g id="a_node16"><a xlink:href="/type/Signal" xlink:title="Signal">
<ellipse fill="none" stroke="#33bb33" cx="457" cy="-18" rx="35.194" ry="18"/>
<text text-anchor="middle" x="457" y="-14.3" font-family="FreeSans" font-size="14.00" fill="#33bb33">Signal</text>
</a>
</g>
</g>
<!-- Signal&#45;&gt;Int -->
<g id="edge12" class="edge"><title>Signal&#45;&gt;Int</title>
<path fill="none" stroke="#000000" d="M472.091,-34.5353C481.411,-44.1291 493.51,-56.5839 503.785,-67.1615"/>
<polygon fill="#000000" stroke="#000000" points="501.401,-69.73 510.879,-74.4641 506.422,-64.8525 501.401,-69.73"/>
</g>
<!-- PromiseStatus -->
<g id="node17" class="node"><title>PromiseStatus</title>
<g id="a_node17"><a xlink:href="/type/PromiseStatus" xlink:title="PromiseStatus">
<ellipse fill="none" stroke="#33bb33" cx="578" cy="-18" rx="67.6881" ry="18"/>
<text text-anchor="middle" x="578" y="-14.3" font-family="FreeSans" font-size="14.00" fill="#33bb33">PromiseStatus</text>
</a>
</g>
</g>
<!-- PromiseStatus&#45;&gt;Int -->
<g id="edge13" class="edge"><title>PromiseStatus&#45;&gt;Int</title>
<path fill="none" stroke="#000000" d="M565.17,-35.945C558.441,-44.8328 550.092,-55.8596 542.752,-65.5543"/>
<polygon fill="#000000" stroke="#000000" points="539.873,-63.5583 536.627,-73.6436 545.454,-67.7838 539.873,-63.5583"/>
</g>
<!-- Order -->
<g id="node18" class="node"><title>Order</title>
<g id="a_node18"><a xlink:href="/type/Order" xlink:title="Order">
<ellipse fill="none" stroke="#33bb33" cx="697" cy="-18" rx="33.5952" ry="18"/>
<text text-anchor="middle" x="697" y="-14.3" font-family="FreeSans" font-size="14.00" fill="#33bb33">Order</text>
</a>
</g>
</g>
<!-- Order&#45;&gt;Int -->
<g id="edge14" class="edge"><title>Order&#45;&gt;Int</title>
<path fill="none" stroke="#000000" d="M670.639,-29.6698C662.201,-33.0854 655,-36 655,-36 655,-36 561,-72 561,-72 561,-72 558.82,-73.0296 555.532,-74.5819"/>
<polygon fill="#000000" stroke="#000000" points="553.905,-71.4796 546.357,-78.9146 556.894,-77.8093 553.905,-71.4796"/>
</g>
<!-- int -->
<g id="node19" class="node"><title>int</title>
<g id="a_node19"><a xlink:href="/type/int" xlink:title="int">
<ellipse fill="none" stroke="#000000" cx="191" cy="-18" rx="27" ry="18"/>
<text text-anchor="middle" x="191" y="-14.3" font-family="FreeSans" font-size="14.00" fill="#000000">int</text>
</a>
</g>
</g>
<!-- int&#45;&gt;Int -->
<g id="edge15" class="edge"><title>int&#45;&gt;Int</title>
<path fill="none" stroke="#000000" d="M212.357,-29.0854C220.109,-32.7461 227,-36 227,-36 227,-36 484,-72 484,-72 484,-72 487.88,-73.6087 493.252,-75.8363"/>
<polygon fill="#000000" stroke="#000000" points="492.003,-79.1071 502.581,-79.7042 494.684,-72.6409 492.003,-79.1071"/>
</g>
<!-- IntStr -->
<g id="node20" class="node"><title>IntStr</title>
<g id="a_node20"><a xlink:href="/type/IntStr" xlink:title="IntStr">
<ellipse fill="none" stroke="#000000" cx="781" cy="-18" rx="31.6951" ry="18"/>
<text text-anchor="middle" x="781" y="-14.3" font-family="FreeSans" font-size="14.00" fill="#000000">IntStr</text>
</a>
</g>
</g>
<!-- IntStr&#45;&gt;Str -->
<g id="edge17" class="edge"><title>IntStr&#45;&gt;Str</title>
<path fill="none" stroke="#000000" d="M781,-36.3034C781,-44.0173 781,-53.2875 781,-61.8876"/>
<polygon fill="#000000" stroke="#000000" points="777.5,-61.8956 781,-71.8957 784.5,-61.8957 777.5,-61.8956"/>
</g>
<!-- IntStr&#45;&gt;Int -->
<g id="edge16" class="edge"><title>IntStr&#45;&gt;Int</title>
<path fill="none" stroke="#000000" d="M755.734,-29.476C747.297,-32.9744 740,-36 740,-36 740,-36 561,-72 561,-72 561,-72 558.82,-73.0296 555.532,-74.5819"/>
<polygon fill="#000000" stroke="#000000" points="553.905,-71.4796 546.357,-78.9146 556.894,-77.8093 553.905,-71.4796"/>
</g>
<!-- Bool -->
<g id="node21" class="node"><title>Bool</title>
<g id="a_node21"><a xlink:href="/type/Bool" xlink:title="Bool">
<ellipse fill="none" stroke="#33bb33" cx="265" cy="-18" rx="28.6953" ry="18"/>
<text text-anchor="middle" x="265" y="-14.3" font-family="FreeSans" font-size="14.00" fill="#33bb33">Bool</text>
</a>
</g>
</g>
<!-- Bool&#45;&gt;Int -->
<g id="edge18" class="edge"><title>Bool&#45;&gt;Int</title>
<path fill="none" stroke="#000000" d="M287.544,-29.0854C295.727,-32.7461 303,-36 303,-36 303,-36 484,-72 484,-72 484,-72 487.88,-73.6087 493.252,-75.8363"/>
<polygon fill="#000000" stroke="#000000" points="492.003,-79.1071 502.581,-79.7042 494.684,-72.6409 492.003,-79.1071"/>
</g>
<!-- NumStr -->
<g id="node22" class="node"><title>NumStr</title>
<g id="a_node22"><a xlink:href="/type/NumStr" xlink:title="NumStr">
<ellipse fill="none" stroke="#000000" cx="872" cy="-18" rx="40.8928" ry="18"/>
<text text-anchor="middle" x="872" y="-14.3" font-family="FreeSans" font-size="14.00" fill="#000000">NumStr</text>
</a>
</g>
</g>
<!-- NumStr&#45;&gt;Str -->
<g id="edge20" class="edge"><title>NumStr&#45;&gt;Str</title>
<path fill="none" stroke="#000000" d="M852.254,-34.189C838.708,-44.609 820.621,-58.5222 806.06,-69.7232"/>
<polygon fill="#000000" stroke="#000000" points="803.747,-67.0866 797.955,-75.9579 808.015,-72.635 803.747,-67.0866"/>
</g>
<!-- NumStr&#45;&gt;Num -->
<g id="edge19" class="edge"><title>NumStr&#45;&gt;Num</title>
<path fill="none" stroke="#000000" d="M840.618,-29.6698C830.572,-33.0854 822,-36 822,-36 822,-36 700.416,-65.0268 637.205,-80.1178"/>
<polygon fill="#000000" stroke="#000000" points="636.135,-76.7746 627.222,-82.5012 637.761,-83.5833 636.135,-76.7746"/>
</g>
<!-- Rat -->
<g id="node23" class="node"><title>Rat</title>
<g id="a_node23"><a xlink:href="/type/Rat" xlink:title="Rat">
<ellipse fill="none" stroke="#000000" cx="27" cy="-18" rx="27" ry="18"/>
<text text-anchor="middle" x="27" y="-14.3" font-family="FreeSans" font-size="14.00" fill="#000000">Rat</text>
</a>
</g>
</g>
<!-- Rat&#45;&gt;Cool -->
<g id="edge21" class="edge"><title>Rat&#45;&gt;Cool</title>
<path fill="none" stroke="#000000" d="M48.3574,-29.0854C56.1094,-32.7461 63,-36 63,-36 63,-36 413,-72 413,-72 413,-72 446,-108 446,-108 446,-108 461.738,-124.355 475.729,-138.895"/>
<polygon fill="#000000" stroke="#000000" points="473.338,-141.458 482.794,-146.237 478.382,-136.604 473.338,-141.458"/>
</g>
<!-- Rat&#45;&gt;Rational -->
<g id="edge31" class="edge"><title>Rat&#45;&gt;Rational</title>
<path fill="none" stroke="#6666ff" d="M43.2006,-32.8297C54.5643,-42.5305 69.9994,-55.7068 83.0642,-66.8597"/>
<polygon fill="#6666ff" stroke="#6666ff" points="80.9568,-69.6626 90.8349,-73.4932 85.5017,-64.3386 80.9568,-69.6626"/>
</g>
<!-- FatRat -->
<g id="node24" class="node"><title>FatRat</title>
<g id="a_node24"><a xlink:href="/type/FatRat" xlink:title="FatRat">
<ellipse fill="none" stroke="#000000" cx="109" cy="-18" rx="37.0935" ry="18"/>
<text text-anchor="middle" x="109" y="-14.3" font-family="FreeSans" font-size="14.00" fill="#000000">FatRat</text>
</a>
</g>
</g>
<!-- FatRat&#45;&gt;Cool -->
<g id="edge22" class="edge"><title>FatRat&#45;&gt;Cool</title>
<path fill="none" stroke="#000000" d="M137.609,-29.573C146.964,-33.0301 155,-36 155,-36 155,-36 446,-72 446,-72 446,-72 467.543,-109.595 482.626,-135.916"/>
<polygon fill="#000000" stroke="#000000" points="479.637,-137.74 487.646,-144.676 485.711,-134.259 479.637,-137.74"/>
</g>
<!-- FatRat&#45;&gt;Rational -->
<g id="edge32" class="edge"><title>FatRat&#45;&gt;Rational</title>
<path fill="none" stroke="#6666ff" d="M109,-36.3034C109,-44.0173 109,-53.2875 109,-61.8876"/>
<polygon fill="#6666ff" stroke="#6666ff" points="105.5,-61.8956 109,-71.8957 112.5,-61.8957 105.5,-61.8956"/>
</g>
</g>
</svg>
