<?xml version="1.0" encoding="UTF-8" standalone="no"?>
<!DOCTYPE svg PUBLIC "-//W3C//DTD SVG 1.1//EN"
 "http://www.w3.org/Graphics/SVG/1.1/DTD/svg11.dtd">
<!-- Generated by graphviz version 2.38.0 (20140413.2041)
 -->
<!-- Title: perl6&#45;type&#45;graph Pages: 1 -->
<svg width="398pt" height="185pt"
 viewBox="0.00 0.00 397.55 185.43" xmlns="http://www.w3.org/2000/svg" xmlns:xlink="http://www.w3.org/1999/xlink">
<g id="graph0" class="graph" transform="scale(1 1) rotate(0) translate(211.226 87.8993)">
<title>perl6&#45;type&#45;graph</title>
<polygon fill="white" stroke="none" points="-211.226,97.5281 -211.226,-87.8993 186.321,-87.8993 186.321,97.5281 -211.226,97.5281"/>
<!-- X::Comp::NYI -->
<g id="node1" class="node"><title>X::Comp::NYI</title>
<g id="a_node1"><a xlink:href="/type/X::Comp::NYI" xlink:title="X::Comp::NYI">
<ellipse fill="none" stroke="#000000" cx="-141.582" cy="23.3998" rx="65.7887" ry="18"/>
<text text-anchor="middle" x="-141.582" y="27.0998" font-family="FreeSans" font-size="14.00" fill="#000000">X::Comp::NYI</text>
</a>
</g>
</g>
<!-- Exception -->
<g id="node4" class="node"><title>Exception</title>
<g id="a_node4"><a xlink:href="/type/Exception" xlink:title="Exception">
<ellipse fill="none" stroke="#000000" cx="-0.116236" cy="-21.4511" rx="49.2915" ry="18"/>
<text text-anchor="middle" x="-0.116236" y="-17.7511" font-family="FreeSans" font-size="14.00" fill="#000000">Exception</text>
</a>
</g>
</g>
<!-- X::Comp::NYI&#45;&gt;Exception -->
<g id="edge2" class="edge"><title>X::Comp::NYI&#45;&gt;Exception</title>
<path fill="none" stroke="#000000" d="M-98.3687,9.69934C-82.3539,4.62193 -64.1093,-1.16243 -47.7247,-6.35707"/>
<polygon fill="#000000" stroke="#000000" points="-48.3901,-9.81775 -37.7999,-9.50367 -46.2745,-3.14507 -48.3901,-9.81775"/>
</g>
<!-- X::NYI -->
<g id="node5" class="node"><title>X::NYI</title>
<g id="a_node5"><a xlink:href="/type/X::NYI" xlink:title="X::NYI">
<ellipse fill="none" stroke="#000000" cx="-38.6984" cy="75.5281" rx="37.0935" ry="18"/>
<text text-anchor="middle" x="-38.6984" y="79.2281" font-family="FreeSans" font-size="14.00" fill="#000000">X::NYI</text>
</a>
</g>
</g>
<!-- X::Comp::NYI&#45;&gt;X::NYI -->
<g id="edge1" class="edge"><title>X::Comp::NYI&#45;&gt;X::NYI</title>
<path fill="none" stroke="#000000" d="M-110.154,39.3232C-98.5903,45.1824 -85.4277,51.8515 -73.5778,57.8556"/>
<polygon fill="#000000" stroke="#000000" points="-71.7498,54.8581 -64.4114,62.5 -74.9136,61.1023 -71.7498,54.8581"/>
</g>
<!-- X::Comp -->
<g id="node6" class="node"><title>X::Comp</title>
<g id="a_node6"><a xlink:href="/type/X::Comp" xlink:title="X::Comp">
<ellipse fill="none" stroke="#6666ff" cx="-82.6042" cy="-65.8993" rx="44.6926" ry="18"/>
<text text-anchor="middle" x="-82.6042" y="-62.1993" font-family="FreeSans" font-size="14.00" fill="#6666ff">X::Comp</text>
</a>
</g>
</g>
<!-- X::Comp::NYI&#45;&gt;X::Comp -->
<g id="edge7" class="edge"><title>X::Comp::NYI&#45;&gt;X::Comp</title>
<path fill="none" stroke="#6666ff" d="M-129.647,5.32877C-121.062,-7.67019 -109.355,-25.3946 -99.7685,-39.9104"/>
<polygon fill="#6666ff" stroke="#6666ff" points="-102.552,-42.0474 -94.12,-48.4629 -96.7106,-38.1897 -102.552,-42.0474"/>
</g>
<!-- Mu -->
<g id="node2" class="node"><title>Mu</title>
<g id="a_node2"><a xlink:href="/type/Mu" xlink:title="Mu">
<ellipse fill="none" stroke="#000000" cx="155.321" cy="-1.00175" rx="27" ry="18"/>
<text text-anchor="middle" x="155.321" y="2.69825" font-family="FreeSans" font-size="14.00" fill="#000000">Mu</text>
</a>
</g>
</g>
<!-- Any -->
<g id="node3" class="node"><title>Any</title>
<g id="a_node3"><a xlink:href="/type/Any" xlink:title="Any">
<ellipse fill="none" stroke="#000000" cx="74.1791" cy="18.1892" rx="27" ry="18"/>
<text text-anchor="middle" x="74.1791" y="21.8892" font-family="FreeSans" font-size="14.00" fill="#000000">Any</text>
</a>
</g>
</g>
<!-- Any&#45;&gt;Mu -->
<g id="edge3" class="edge"><title>Any&#45;&gt;Mu</title>
<path fill="none" stroke="#000000" d="M99.8528,12.117C106.129,10.6325 112.959,9.01736 119.611,7.44403"/>
<polygon fill="#000000" stroke="#000000" points="119.277,3.92654 129.814,5.03087 120.888,10.7386 119.277,3.92654"/>
</g>
<!-- Exception&#45;&gt;Any -->
<g id="edge4" class="edge"><title>Exception&#45;&gt;Any</title>
<path fill="none" stroke="#000000" d="M27.9717,-6.4648C33.1082,-3.72422 38.4908,-0.852323 43.6932,1.92342"/>
<polygon fill="#000000" stroke="#000000" points="45.5957,-1.0286 52.7708,6.76678 42.3005,5.14732 45.5957,-1.0286"/>
</g>
<!-- X::NYI&#45;&gt;Exception -->
<g id="edge5" class="edge"><title>X::NYI&#45;&gt;Exception</title>
<path fill="none" stroke="#000000" d="M-31.6219,57.7406C-25.8929,43.3405 -17.7225,22.8035 -11.1377,6.25209"/>
<polygon fill="#000000" stroke="#000000" points="-14.2273,4.54989 -7.2786,-3.44796 -7.72317,7.13755 -14.2273,4.54989"/>
</g>
<!-- X::Comp&#45;&gt;Exception -->
<g id="edge6" class="edge"><title>X::Comp&#45;&gt;Exception</title>
<path fill="none" stroke="#000000" d="M-55.5946,-51.3453C-49.6596,-48.1473 -43.2764,-44.7078 -37.0274,-41.3405"/>
<polygon fill="#000000" stroke="#000000" points="-35.1787,-44.3202 -28.0357,-36.4954 -38.4993,-38.1579 -35.1787,-44.3202"/>
</g>
</g>
</svg>
