<?xml version="1.0" encoding="UTF-8" standalone="no"?>
<!DOCTYPE svg PUBLIC "-//W3C//DTD SVG 1.1//EN"
 "http://www.w3.org/Graphics/SVG/1.1/DTD/svg11.dtd">
<!-- Generated by graphviz version 2.38.0 (20140413.2041)
 -->
<!-- Title: perl6&#45;type&#45;graph Pages: 1 -->
<svg width="330pt" height="404pt"
 viewBox="0.00 0.00 330.13 404.00" xmlns="http://www.w3.org/2000/svg" xmlns:xlink="http://www.w3.org/1999/xlink">
<g id="graph0" class="graph" transform="scale(1 1) rotate(0) translate(4 400)">
<title>perl6&#45;type&#45;graph</title>
<polygon fill="white" stroke="none" points="-4,4 -4,-400 326.132,-400 326.132,4 -4,4"/>
<!-- X::Syntax::Signature::InvocantMarker -->
<g id="node1" class="node"><title>X::Syntax::Signature::InvocantMarker</title>
<g id="a_node1"><a xlink:href="/type/X::Syntax::Signature::InvocantMarker" xlink:title="X::Syntax::Signature::InvocantMarker">
<ellipse fill="none" stroke="#000000" cx="157.286" cy="-18" rx="157.072" ry="18"/>
<text text-anchor="middle" x="157.286" y="-14.3" font-family="FreeSans" font-size="14.00" fill="#000000">X::Syntax::Signature::InvocantMarker</text>
</a>
</g>
</g>
<!-- Exception -->
<g id="node4" class="node"><title>Exception</title>
<g id="a_node4"><a xlink:href="/type/Exception" xlink:title="Exception">
<ellipse fill="none" stroke="#000000" cx="180.286" cy="-234" rx="49.2915" ry="18"/>
<text text-anchor="middle" x="180.286" y="-230.3" font-family="FreeSans" font-size="14.00" fill="#000000">Exception</text>
</a>
</g>
</g>
<!-- X::Syntax::Signature::InvocantMarker&#45;&gt;Exception -->
<g id="edge1" class="edge"><title>X::Syntax::Signature::InvocantMarker&#45;&gt;Exception</title>
<path fill="none" stroke="#000000" d="M155.252,-36.1508C155.697,-73.3384 164.928,-161.626 172.758,-206.228"/>
<polygon fill="#000000" stroke="#000000" points="169.32,-206.884 174.609,-216.065 176.199,-205.59 169.32,-206.884"/>
</g>
<!-- X::Syntax::Signature::InvocantMarker&#45;&gt;Exception -->
<g id="edge2" class="edge"><title>X::Syntax::Signature::InvocantMarker&#45;&gt;Exception</title>
<path fill="none" stroke="#000000" d="M163.007,-36.1508C170.521,-73.1683 180.213,-160.819 182.035,-205.614"/>
<polygon fill="#000000" stroke="#000000" points="178.541,-205.87 182.319,-215.768 185.538,-205.673 178.541,-205.87"/>
</g>
<!-- X::Syntax -->
<g id="node6" class="node"><title>X::Syntax</title>
<g id="a_node6"><a xlink:href="/type/X::Syntax" xlink:title="X::Syntax">
<ellipse fill="none" stroke="#6666ff" cx="242.286" cy="-90" rx="48.1917" ry="18"/>
<text text-anchor="middle" x="242.286" y="-86.3" font-family="FreeSans" font-size="14.00" fill="#6666ff">X::Syntax</text>
</a>
</g>
</g>
<!-- X::Syntax::Signature::InvocantMarker&#45;&gt;X::Syntax -->
<g id="edge7" class="edge"><title>X::Syntax::Signature::InvocantMarker&#45;&gt;X::Syntax</title>
<path fill="none" stroke="#6666ff" d="M177.862,-35.945C189.12,-45.216 203.203,-56.8143 215.329,-66.8003"/>
<polygon fill="#6666ff" stroke="#6666ff" points="213.408,-69.7523 223.353,-73.4077 217.858,-64.3488 213.408,-69.7523"/>
</g>
<!-- Mu -->
<g id="node2" class="node"><title>Mu</title>
<g id="a_node2"><a xlink:href="/type/Mu" xlink:title="Mu">
<ellipse fill="none" stroke="#000000" cx="180.286" cy="-378" rx="27" ry="18"/>
<text text-anchor="middle" x="180.286" y="-374.3" font-family="FreeSans" font-size="14.00" fill="#000000">Mu</text>
</a>
</g>
</g>
<!-- Any -->
<g id="node3" class="node"><title>Any</title>
<g id="a_node3"><a xlink:href="/type/Any" xlink:title="Any">
<ellipse fill="none" stroke="#000000" cx="180.286" cy="-306" rx="27" ry="18"/>
<text text-anchor="middle" x="180.286" y="-302.3" font-family="FreeSans" font-size="14.00" fill="#000000">Any</text>
</a>
</g>
</g>
<!-- Any&#45;&gt;Mu -->
<g id="edge3" class="edge"><title>Any&#45;&gt;Mu</title>
<path fill="none" stroke="#000000" d="M180.286,-324.303C180.286,-332.017 180.286,-341.288 180.286,-349.888"/>
<polygon fill="#000000" stroke="#000000" points="176.786,-349.896 180.286,-359.896 183.786,-349.896 176.786,-349.896"/>
</g>
<!-- Exception&#45;&gt;Any -->
<g id="edge4" class="edge"><title>Exception&#45;&gt;Any</title>
<path fill="none" stroke="#000000" d="M180.286,-252.303C180.286,-260.017 180.286,-269.288 180.286,-277.888"/>
<polygon fill="#000000" stroke="#000000" points="176.786,-277.896 180.286,-287.896 183.786,-277.896 176.786,-277.896"/>
</g>
<!-- X::Comp -->
<g id="node5" class="node"><title>X::Comp</title>
<g id="a_node5"><a xlink:href="/type/X::Comp" xlink:title="X::Comp">
<ellipse fill="none" stroke="#6666ff" cx="277.286" cy="-162" rx="44.6926" ry="18"/>
<text text-anchor="middle" x="277.286" y="-158.3" font-family="FreeSans" font-size="14.00" fill="#6666ff">X::Comp</text>
</a>
</g>
</g>
<!-- X::Comp&#45;&gt;Exception -->
<g id="edge5" class="edge"><title>X::Comp&#45;&gt;Exception</title>
<path fill="none" stroke="#000000" d="M256.238,-178.189C242.731,-187.937 224.987,-200.742 210.047,-211.523"/>
<polygon fill="#000000" stroke="#000000" points="207.688,-208.909 201.627,-217.599 211.785,-214.585 207.688,-208.909"/>
</g>
<!-- X::Syntax&#45;&gt;Exception -->
<g id="edge6" class="edge"><title>X::Syntax&#45;&gt;Exception</title>
<path fill="none" stroke="#000000" d="M234.93,-107.847C224.256,-132.294 204.375,-177.829 191.763,-206.714"/>
<polygon fill="#000000" stroke="#000000" points="188.426,-205.61 187.632,-216.175 194.841,-208.411 188.426,-205.61"/>
</g>
<!-- X::Syntax&#45;&gt;X::Comp -->
<g id="edge8" class="edge"><title>X::Syntax&#45;&gt;X::Comp</title>
<path fill="none" stroke="#6666ff" d="M250.759,-107.945C254.843,-116.113 259.83,-126.088 264.374,-135.176"/>
<polygon fill="#6666ff" stroke="#6666ff" points="261.289,-136.832 268.892,-144.211 267.55,-133.701 261.289,-136.832"/>
</g>
</g>
</svg>
