<?xml version="1.0" encoding="UTF-8" standalone="no"?>
<!DOCTYPE svg PUBLIC "-//W3C//DTD SVG 1.1//EN"
 "http://www.w3.org/Graphics/SVG/1.1/DTD/svg11.dtd">
<!-- Generated by graphviz version 2.38.0 (20140413.2041)
 -->
<!-- Title: perl6&#45;type&#45;graph Pages: 1 -->
<svg width="163pt" height="332pt"
 viewBox="0.00 0.00 162.69 332.00" xmlns="http://www.w3.org/2000/svg" xmlns:xlink="http://www.w3.org/1999/xlink">
<g id="graph0" class="graph" transform="scale(1 1) rotate(0) translate(4 328)">
<title>perl6&#45;type&#45;graph</title>
<polygon fill="white" stroke="none" points="-4,4 -4,-328 158.686,-328 158.686,4 -4,4"/>
<!-- IO::Path::Cygwin -->
<g id="node1" class="node"><title>IO::Path::Cygwin</title>
<g id="a_node1"><a xlink:href="/type/IO::Path::Cygwin" xlink:title="IO::Path::Cygwin">
<ellipse fill="none" stroke="#000000" cx="77.3431" cy="-18" rx="77.1866" ry="18"/>
<text text-anchor="middle" x="77.3431" y="-14.3" font-family="FreeSans" font-size="14.00" fill="#000000">IO::Path::Cygwin</text>
</a>
</g>
</g>
<!-- IO::Path -->
<g id="node6" class="node"><title>IO::Path</title>
<g id="a_node6"><a xlink:href="/type/IO::Path" xlink:title="IO::Path">
<ellipse fill="none" stroke="#000000" cx="77.3431" cy="-90" rx="43.5923" ry="18"/>
<text text-anchor="middle" x="77.3431" y="-86.3" font-family="FreeSans" font-size="14.00" fill="#000000">IO::Path</text>
</a>
</g>
</g>
<!-- IO::Path::Cygwin&#45;&gt;IO::Path -->
<g id="edge1" class="edge"><title>IO::Path::Cygwin&#45;&gt;IO::Path</title>
<path fill="none" stroke="#000000" d="M77.3431,-36.3034C77.3431,-44.0173 77.3431,-53.2875 77.3431,-61.8876"/>
<polygon fill="#000000" stroke="#000000" points="73.8432,-61.8956 77.3431,-71.8957 80.8432,-61.8957 73.8432,-61.8956"/>
</g>
<!-- Mu -->
<g id="node2" class="node"><title>Mu</title>
<g id="a_node2"><a xlink:href="/type/Mu" xlink:title="Mu">
<ellipse fill="none" stroke="#000000" cx="40.3431" cy="-306" rx="27" ry="18"/>
<text text-anchor="middle" x="40.3431" y="-302.3" font-family="FreeSans" font-size="14.00" fill="#000000">Mu</text>
</a>
</g>
</g>
<!-- Any -->
<g id="node3" class="node"><title>Any</title>
<g id="a_node3"><a xlink:href="/type/Any" xlink:title="Any">
<ellipse fill="none" stroke="#000000" cx="40.3431" cy="-234" rx="27" ry="18"/>
<text text-anchor="middle" x="40.3431" y="-230.3" font-family="FreeSans" font-size="14.00" fill="#000000">Any</text>
</a>
</g>
</g>
<!-- Any&#45;&gt;Mu -->
<g id="edge2" class="edge"><title>Any&#45;&gt;Mu</title>
<path fill="none" stroke="#000000" d="M40.3431,-252.303C40.3431,-260.017 40.3431,-269.288 40.3431,-277.888"/>
<polygon fill="#000000" stroke="#000000" points="36.8432,-277.896 40.3431,-287.896 43.8432,-277.896 36.8432,-277.896"/>
</g>
<!-- Cool -->
<g id="node4" class="node"><title>Cool</title>
<g id="a_node4"><a xlink:href="/type/Cool" xlink:title="Cool">
<ellipse fill="none" stroke="#000000" cx="40.3431" cy="-162" rx="28.6953" ry="18"/>
<text text-anchor="middle" x="40.3431" y="-158.3" font-family="FreeSans" font-size="14.00" fill="#000000">Cool</text>
</a>
</g>
</g>
<!-- Cool&#45;&gt;Any -->
<g id="edge3" class="edge"><title>Cool&#45;&gt;Any</title>
<path fill="none" stroke="#000000" d="M40.3431,-180.303C40.3431,-188.017 40.3431,-197.288 40.3431,-205.888"/>
<polygon fill="#000000" stroke="#000000" points="36.8432,-205.896 40.3431,-215.896 43.8432,-205.896 36.8432,-205.896"/>
</g>
<!-- IO -->
<g id="node5" class="node"><title>IO</title>
<g id="a_node5"><a xlink:href="/type/IO" xlink:title="IO">
<ellipse fill="none" stroke="#6666ff" cx="114.343" cy="-162" rx="27" ry="18"/>
<text text-anchor="middle" x="114.343" y="-158.3" font-family="FreeSans" font-size="14.00" fill="#6666ff">IO</text>
</a>
</g>
</g>
<!-- IO::Path&#45;&gt;Cool -->
<g id="edge4" class="edge"><title>IO::Path&#45;&gt;Cool</title>
<path fill="none" stroke="#000000" d="M68.3865,-107.945C64.0054,-116.233 58.6411,-126.382 53.7816,-135.576"/>
<polygon fill="#000000" stroke="#000000" points="50.5413,-134.216 48.9626,-144.693 56.73,-137.488 50.5413,-134.216"/>
</g>
<!-- IO::Path&#45;&gt;IO -->
<g id="edge5" class="edge"><title>IO::Path&#45;&gt;IO</title>
<path fill="none" stroke="#6666ff" d="M86.2998,-107.945C90.6808,-116.233 96.0452,-126.382 100.905,-135.576"/>
<polygon fill="#6666ff" stroke="#6666ff" points="97.9563,-137.488 105.724,-144.693 104.145,-134.216 97.9563,-137.488"/>
</g>
</g>
</svg>
