<?xml version="1.0" encoding="UTF-8" standalone="no"?>
<!DOCTYPE svg PUBLIC "-//W3C//DTD SVG 1.1//EN"
 "http://www.w3.org/Graphics/SVG/1.1/DTD/svg11.dtd">
<!-- Generated by graphviz version 2.38.0 (20140413.2041)
 -->
<!-- Title: perl6&#45;type&#45;graph Pages: 1 -->
<svg width="1051pt" height="332pt"
 viewBox="0.00 0.00 1050.59 332.00" xmlns="http://www.w3.org/2000/svg" xmlns:xlink="http://www.w3.org/1999/xlink">
<g id="graph0" class="graph" transform="scale(1 1) rotate(0) translate(4 328)">
<title>perl6&#45;type&#45;graph</title>
<polygon fill="white" stroke="none" points="-4,4 -4,-328 1046.59,-328 1046.59,4 -4,4"/>
<!-- Numeric -->
<g id="node1" class="node"><title>Numeric</title>
<g id="a_node1"><a xlink:href="/type/Numeric" xlink:title="Numeric">
<ellipse fill="none" stroke="#6666ff" cx="786.047" cy="-234" rx="44.393" ry="18"/>
<text text-anchor="middle" x="786.047" y="-230.3" font-family="FreeSans" font-size="14.00" fill="#6666ff">Numeric</text>
</a>
</g>
</g>
<!-- Mu -->
<g id="node2" class="node"><title>Mu</title>
<g id="a_node2"><a xlink:href="/type/Mu" xlink:title="Mu">
<ellipse fill="none" stroke="#000000" cx="543.047" cy="-306" rx="27" ry="18"/>
<text text-anchor="middle" x="543.047" y="-302.3" font-family="FreeSans" font-size="14.00" fill="#000000">Mu</text>
</a>
</g>
</g>
<!-- Any -->
<g id="node3" class="node"><title>Any</title>
<g id="a_node3"><a xlink:href="/type/Any" xlink:title="Any">
<ellipse fill="none" stroke="#000000" cx="543.047" cy="-234" rx="27" ry="18"/>
<text text-anchor="middle" x="543.047" y="-230.3" font-family="FreeSans" font-size="14.00" fill="#000000">Any</text>
</a>
</g>
</g>
<!-- Any&#45;&gt;Mu -->
<g id="edge1" class="edge"><title>Any&#45;&gt;Mu</title>
<path fill="none" stroke="#000000" d="M543.047,-252.303C543.047,-260.017 543.047,-269.288 543.047,-277.888"/>
<polygon fill="#000000" stroke="#000000" points="539.547,-277.896 543.047,-287.896 546.547,-277.896 539.547,-277.896"/>
</g>
<!-- Cool -->
<g id="node4" class="node"><title>Cool</title>
<g id="a_node4"><a xlink:href="/type/Cool" xlink:title="Cool">
<ellipse fill="none" stroke="#000000" cx="543.047" cy="-162" rx="28.6953" ry="18"/>
<text text-anchor="middle" x="543.047" y="-158.3" font-family="FreeSans" font-size="14.00" fill="#000000">Cool</text>
</a>
</g>
</g>
<!-- Cool&#45;&gt;Any -->
<g id="edge2" class="edge"><title>Cool&#45;&gt;Any</title>
<path fill="none" stroke="#000000" d="M543.047,-180.303C543.047,-188.017 543.047,-197.288 543.047,-205.888"/>
<polygon fill="#000000" stroke="#000000" points="539.547,-205.896 543.047,-215.896 546.547,-205.896 539.547,-205.896"/>
</g>
<!-- Complex -->
<g id="node5" class="node"><title>Complex</title>
<g id="a_node5"><a xlink:href="/type/Complex" xlink:title="Complex">
<ellipse fill="none" stroke="#000000" cx="870.047" cy="-90" rx="45.4919" ry="18"/>
<text text-anchor="middle" x="870.047" y="-86.3" font-family="FreeSans" font-size="14.00" fill="#000000">Complex</text>
</a>
</g>
</g>
<!-- Complex&#45;&gt;Numeric -->
<g id="edge23" class="edge"><title>Complex&#45;&gt;Numeric</title>
<path fill="none" stroke="#6666ff" d="M861.959,-107.74C849.503,-133.521 827.047,-180 827.047,-180 827.047,-180 815.715,-194.649 804.966,-208.543"/>
<polygon fill="#6666ff" stroke="#6666ff" points="802.145,-206.47 798.795,-216.521 807.682,-210.753 802.145,-206.47"/>
</g>
<!-- Complex&#45;&gt;Cool -->
<g id="edge3" class="edge"><title>Complex&#45;&gt;Cool</title>
<path fill="none" stroke="#000000" d="M835.542,-101.863C824.959,-105.194 816.047,-108 816.047,-108 816.047,-108 654.798,-139.305 580.153,-153.796"/>
<polygon fill="#000000" stroke="#000000" points="579.371,-150.383 570.221,-155.724 580.705,-157.254 579.371,-150.383"/>
</g>
<!-- Real -->
<g id="node6" class="node"><title>Real</title>
<g id="a_node6"><a xlink:href="/type/Real" xlink:title="Real">
<ellipse fill="none" stroke="#6666ff" cx="440.047" cy="-162" rx="28.6953" ry="18"/>
<text text-anchor="middle" x="440.047" y="-158.3" font-family="FreeSans" font-size="14.00" fill="#6666ff">Real</text>
</a>
</g>
</g>
<!-- Real&#45;&gt;Numeric -->
<g id="edge24" class="edge"><title>Real&#45;&gt;Numeric</title>
<path fill="none" stroke="#6666ff" d="M466.11,-169.817C484.194,-174.546 505.047,-180 505.047,-180 505.047,-180 656.143,-208.499 736.742,-223.7"/>
<polygon fill="#6666ff" stroke="#6666ff" points="736.204,-227.161 746.679,-225.575 737.501,-220.282 736.204,-227.161"/>
</g>
<!-- Stringy -->
<g id="node7" class="node"><title>Stringy</title>
<g id="a_node7"><a xlink:href="/type/Stringy" xlink:title="Stringy">
<ellipse fill="none" stroke="#6666ff" cx="780.047" cy="-162" rx="38.1938" ry="18"/>
<text text-anchor="middle" x="780.047" y="-158.3" font-family="FreeSans" font-size="14.00" fill="#6666ff">Stringy</text>
</a>
</g>
</g>
<!-- Str -->
<g id="node8" class="node"><title>Str</title>
<g id="a_node8"><a xlink:href="/type/Str" xlink:title="Str">
<ellipse fill="none" stroke="#000000" cx="780.047" cy="-90" rx="27" ry="18"/>
<text text-anchor="middle" x="780.047" y="-86.3" font-family="FreeSans" font-size="14.00" fill="#000000">Str</text>
</a>
</g>
</g>
<!-- Str&#45;&gt;Cool -->
<g id="edge4" class="edge"><title>Str&#45;&gt;Cool</title>
<path fill="none" stroke="#000000" d="M755.576,-98.2276C713.398,-110.685 626.863,-136.244 578.229,-150.609"/>
<polygon fill="#000000" stroke="#000000" points="577.055,-147.306 568.456,-153.495 579.037,-154.019 577.055,-147.306"/>
</g>
<!-- Str&#45;&gt;Stringy -->
<g id="edge25" class="edge"><title>Str&#45;&gt;Stringy</title>
<path fill="none" stroke="#6666ff" d="M780.047,-108.303C780.047,-116.017 780.047,-125.288 780.047,-133.888"/>
<polygon fill="#6666ff" stroke="#6666ff" points="776.547,-133.896 780.047,-143.896 783.547,-133.896 776.547,-133.896"/>
</g>
<!-- ComplexStr -->
<g id="node9" class="node"><title>ComplexStr</title>
<g id="a_node9"><a xlink:href="/type/ComplexStr" xlink:title="ComplexStr">
<ellipse fill="none" stroke="#000000" cx="986.047" cy="-18" rx="56.59" ry="18"/>
<text text-anchor="middle" x="986.047" y="-14.3" font-family="FreeSans" font-size="14.00" fill="#000000">ComplexStr</text>
</a>
</g>
</g>
<!-- ComplexStr&#45;&gt;Complex -->
<g id="edge5" class="edge"><title>ComplexStr&#45;&gt;Complex</title>
<path fill="none" stroke="#000000" d="M960.876,-34.189C943.812,-44.4865 921.094,-58.1955 902.648,-69.327"/>
<polygon fill="#000000" stroke="#000000" points="900.732,-66.3949 893.979,-74.5583 904.349,-72.3883 900.732,-66.3949"/>
</g>
<!-- ComplexStr&#45;&gt;Str -->
<g id="edge6" class="edge"><title>ComplexStr&#45;&gt;Str</title>
<path fill="none" stroke="#000000" d="M947.045,-31.1593C896.855,-46.8067 816.047,-72 816.047,-72 816.047,-72 813.866,-73.0296 810.579,-74.5819"/>
<polygon fill="#000000" stroke="#000000" points="808.952,-71.4796 801.404,-78.9146 811.941,-77.8093 808.952,-71.4796"/>
</g>
<!-- Int -->
<g id="node10" class="node"><title>Int</title>
<g id="a_node10"><a xlink:href="/type/Int" xlink:title="Int">
<ellipse fill="none" stroke="#000000" cx="571.047" cy="-90" rx="27" ry="18"/>
<text text-anchor="middle" x="571.047" y="-86.3" font-family="FreeSans" font-size="14.00" fill="#000000">Int</text>
</a>
</g>
</g>
<!-- Int&#45;&gt;Cool -->
<g id="edge7" class="edge"><title>Int&#45;&gt;Cool</title>
<path fill="none" stroke="#000000" d="M564.411,-107.589C561.181,-115.665 557.219,-125.569 553.589,-134.645"/>
<polygon fill="#000000" stroke="#000000" points="550.293,-133.459 549.829,-144.044 556.793,-136.059 550.293,-133.459"/>
</g>
<!-- Int&#45;&gt;Real -->
<g id="edge26" class="edge"><title>Int&#45;&gt;Real</title>
<path fill="none" stroke="#6666ff" d="M550.578,-101.938C529.011,-113.462 494.818,-131.733 470.172,-144.902"/>
<polygon fill="#6666ff" stroke="#6666ff" points="468.41,-141.876 461.24,-149.675 471.709,-148.05 468.41,-141.876"/>
</g>
<!-- Instant -->
<g id="node11" class="node"><title>Instant</title>
<g id="a_node11"><a xlink:href="/type/Instant" xlink:title="Instant">
<ellipse fill="none" stroke="#000000" cx="413.047" cy="-90" rx="37.0935" ry="18"/>
<text text-anchor="middle" x="413.047" y="-86.3" font-family="FreeSans" font-size="14.00" fill="#000000">Instant</text>
</a>
</g>
</g>
<!-- Instant&#45;&gt;Cool -->
<g id="edge8" class="edge"><title>Instant&#45;&gt;Cool</title>
<path fill="none" stroke="#000000" d="M436.891,-103.839C458.28,-115.356 489.769,-132.312 512.898,-144.766"/>
<polygon fill="#000000" stroke="#000000" points="511.47,-147.972 521.934,-149.632 514.789,-141.809 511.47,-147.972"/>
</g>
<!-- Instant&#45;&gt;Real -->
<g id="edge27" class="edge"><title>Instant&#45;&gt;Real</title>
<path fill="none" stroke="#6666ff" d="M419.583,-107.945C422.667,-115.941 426.419,-125.669 429.864,-134.6"/>
<polygon fill="#6666ff" stroke="#6666ff" points="426.707,-136.141 433.571,-144.211 433.238,-133.621 426.707,-136.141"/>
</g>
<!-- Duration -->
<g id="node12" class="node"><title>Duration</title>
<g id="a_node12"><a xlink:href="/type/Duration" xlink:title="Duration">
<ellipse fill="none" stroke="#000000" cx="314.047" cy="-90" rx="44.393" ry="18"/>
<text text-anchor="middle" x="314.047" y="-86.3" font-family="FreeSans" font-size="14.00" fill="#000000">Duration</text>
</a>
</g>
</g>
<!-- Duration&#45;&gt;Cool -->
<g id="edge9" class="edge"><title>Duration&#45;&gt;Cool</title>
<path fill="none" stroke="#000000" d="M347.612,-101.766C358.131,-105.14 367.047,-108 367.047,-108 367.047,-108 456.799,-135.028 508.117,-150.481"/>
<polygon fill="#000000" stroke="#000000" points="507.246,-153.874 517.83,-153.406 509.264,-147.172 507.246,-153.874"/>
</g>
<!-- Duration&#45;&gt;Real -->
<g id="edge28" class="edge"><title>Duration&#45;&gt;Real</title>
<path fill="none" stroke="#6666ff" d="M339.242,-104.997C359.727,-116.378 388.676,-132.461 410.299,-144.473"/>
<polygon fill="#6666ff" stroke="#6666ff" points="408.63,-147.55 419.071,-149.347 412.029,-141.431 408.63,-147.55"/>
</g>
<!-- Rational -->
<g id="node13" class="node"><title>Rational</title>
<g id="a_node13"><a xlink:href="/type/Rational" xlink:title="Rational">
<ellipse fill="none" stroke="#6666ff" cx="119.047" cy="-90" rx="42.7926" ry="18"/>
<text text-anchor="middle" x="119.047" y="-86.3" font-family="FreeSans" font-size="14.00" fill="#6666ff">Rational</text>
</a>
</g>
</g>
<!-- Rational&#45;&gt;Real -->
<g id="edge29" class="edge"><title>Rational&#45;&gt;Real</title>
<path fill="none" stroke="#6666ff" d="M156.183,-99.0983C218.118,-112.604 341.769,-139.569 403.387,-153.006"/>
<polygon fill="#6666ff" stroke="#6666ff" points="402.918,-156.485 413.434,-155.197 404.409,-149.646 402.918,-156.485"/>
</g>
<!-- Num -->
<g id="node14" class="node"><title>Num</title>
<g id="a_node14"><a xlink:href="/type/Num" xlink:title="Num">
<ellipse fill="none" stroke="#000000" cx="646.047" cy="-90" rx="29.795" ry="18"/>
<text text-anchor="middle" x="646.047" y="-86.3" font-family="FreeSans" font-size="14.00" fill="#000000">Num</text>
</a>
</g>
</g>
<!-- Num&#45;&gt;Cool -->
<g id="edge10" class="edge"><title>Num&#45;&gt;Cool</title>
<path fill="none" stroke="#000000" d="M626.673,-104.166C610.893,-114.891 588.411,-130.17 570.732,-142.185"/>
<polygon fill="#000000" stroke="#000000" points="568.289,-139.613 561.985,-148.129 572.223,-145.403 568.289,-139.613"/>
</g>
<!-- Num&#45;&gt;Real -->
<g id="edge30" class="edge"><title>Num&#45;&gt;Real</title>
<path fill="none" stroke="#6666ff" d="M622.461,-101.281C614.247,-104.861 607.047,-108 607.047,-108 607.047,-108 523.538,-134.503 474.626,-150.026"/>
<polygon fill="#6666ff" stroke="#6666ff" points="473.521,-146.704 465.048,-153.065 475.639,-153.376 473.521,-146.704"/>
</g>
<!-- atomicint -->
<g id="node15" class="node"><title>atomicint</title>
<g id="a_node15"><a xlink:href="/type/atomicint" xlink:title="atomicint">
<ellipse fill="none" stroke="#000000" cx="210.047" cy="-18" rx="46.2923" ry="18"/>
<text text-anchor="middle" x="210.047" y="-14.3" font-family="FreeSans" font-size="14.00" fill="#000000">atomicint</text>
</a>
</g>
</g>
<!-- atomicint&#45;&gt;Int -->
<g id="edge11" class="edge"><title>atomicint&#45;&gt;Int</title>
<path fill="none" stroke="#000000" d="M245.19,-29.8626C255.97,-33.1943 265.047,-36 265.047,-36 265.047,-36 530.047,-72 530.047,-72 530.047,-72 533.926,-73.6087 539.299,-75.8363"/>
<polygon fill="#000000" stroke="#000000" points="538.049,-79.1071 548.627,-79.7042 540.73,-72.6409 538.049,-79.1071"/>
</g>
<!-- Signal -->
<g id="node16" class="node"><title>Signal</title>
<g id="a_node16"><a xlink:href="/type/Signal" xlink:title="Signal">
<ellipse fill="none" stroke="#33bb33" cx="309.047" cy="-18" rx="35.194" ry="18"/>
<text text-anchor="middle" x="309.047" y="-14.3" font-family="FreeSans" font-size="14.00" fill="#33bb33">Signal</text>
</a>
</g>
</g>
<!-- Signal&#45;&gt;Int -->
<g id="edge12" class="edge"><title>Signal&#45;&gt;Int</title>
<path fill="none" stroke="#000000" d="M336.161,-29.476C345.216,-32.9744 353.047,-36 353.047,-36 353.047,-36 530.047,-72 530.047,-72 530.047,-72 533.926,-73.6087 539.299,-75.8363"/>
<polygon fill="#000000" stroke="#000000" points="538.049,-79.1071 548.627,-79.7042 540.73,-72.6409 538.049,-79.1071"/>
</g>
<!-- Order -->
<g id="node17" class="node"><title>Order</title>
<g id="a_node17"><a xlink:href="/type/Order" xlink:title="Order">
<ellipse fill="none" stroke="#33bb33" cx="396.047" cy="-18" rx="33.5952" ry="18"/>
<text text-anchor="middle" x="396.047" y="-14.3" font-family="FreeSans" font-size="14.00" fill="#33bb33">Order</text>
</a>
</g>
</g>
<!-- Order&#45;&gt;Int -->
<g id="edge13" class="edge"><title>Order&#45;&gt;Int</title>
<path fill="none" stroke="#000000" d="M422.407,-29.6698C430.846,-33.0854 438.047,-36 438.047,-36 438.047,-36 530.047,-72 530.047,-72 530.047,-72 533.926,-73.6087 539.299,-75.8363"/>
<polygon fill="#000000" stroke="#000000" points="538.049,-79.1071 548.627,-79.7042 540.73,-72.6409 538.049,-79.1071"/>
</g>
<!-- IntStr -->
<g id="node18" class="node"><title>IntStr</title>
<g id="a_node18"><a xlink:href="/type/IntStr" xlink:title="IntStr">
<ellipse fill="none" stroke="#000000" cx="780.047" cy="-18" rx="31.6951" ry="18"/>
<text text-anchor="middle" x="780.047" y="-14.3" font-family="FreeSans" font-size="14.00" fill="#000000">IntStr</text>
</a>
</g>
</g>
<!-- IntStr&#45;&gt;Str -->
<g id="edge15" class="edge"><title>IntStr&#45;&gt;Str</title>
<path fill="none" stroke="#000000" d="M780.047,-36.3034C780.047,-44.0173 780.047,-53.2875 780.047,-61.8876"/>
<polygon fill="#000000" stroke="#000000" points="776.547,-61.8956 780.047,-71.8957 783.547,-61.8957 776.547,-61.8956"/>
</g>
<!-- IntStr&#45;&gt;Int -->
<g id="edge14" class="edge"><title>IntStr&#45;&gt;Int</title>
<path fill="none" stroke="#000000" d="M755.397,-29.476C747.166,-32.9744 740.047,-36 740.047,-36 740.047,-36 607.047,-72 607.047,-72 607.047,-72 604.866,-73.0296 601.579,-74.5819"/>
<polygon fill="#000000" stroke="#000000" points="599.952,-71.4796 592.404,-78.9146 602.941,-77.8093 599.952,-71.4796"/>
</g>
<!-- PromiseStatus -->
<g id="node19" class="node"><title>PromiseStatus</title>
<g id="a_node19"><a xlink:href="/type/PromiseStatus" xlink:title="PromiseStatus">
<ellipse fill="none" stroke="#33bb33" cx="515.047" cy="-18" rx="67.6881" ry="18"/>
<text text-anchor="middle" x="515.047" y="-14.3" font-family="FreeSans" font-size="14.00" fill="#33bb33">PromiseStatus</text>
</a>
</g>
</g>
<!-- PromiseStatus&#45;&gt;Int -->
<g id="edge16" class="edge"><title>PromiseStatus&#45;&gt;Int</title>
<path fill="none" stroke="#000000" d="M528.603,-35.945C535.713,-44.8328 544.534,-55.8596 552.29,-65.5543"/>
<polygon fill="#000000" stroke="#000000" points="549.782,-68.0213 558.762,-73.6436 555.248,-63.6485 549.782,-68.0213"/>
</g>
<!-- int -->
<g id="node20" class="node"><title>int</title>
<g id="a_node20"><a xlink:href="/type/int" xlink:title="int">
<ellipse fill="none" stroke="#000000" cx="628.047" cy="-18" rx="27" ry="18"/>
<text text-anchor="middle" x="628.047" y="-14.3" font-family="FreeSans" font-size="14.00" fill="#000000">int</text>
</a>
</g>
</g>
<!-- int&#45;&gt;Int -->
<g id="edge17" class="edge"><title>int&#45;&gt;Int</title>
<path fill="none" stroke="#000000" d="M615.679,-34.189C608.134,-43.4536 598.342,-55.4797 589.852,-65.9056"/>
<polygon fill="#000000" stroke="#000000" points="586.991,-63.8763 583.391,-73.8407 592.419,-68.2963 586.991,-63.8763"/>
</g>
<!-- Bool -->
<g id="node21" class="node"><title>Bool</title>
<g id="a_node21"><a xlink:href="/type/Bool" xlink:title="Bool">
<ellipse fill="none" stroke="#33bb33" cx="702.047" cy="-18" rx="28.6953" ry="18"/>
<text text-anchor="middle" x="702.047" y="-14.3" font-family="FreeSans" font-size="14.00" fill="#33bb33">Bool</text>
</a>
</g>
</g>
<!-- Bool&#45;&gt;Int -->
<g id="edge18" class="edge"><title>Bool&#45;&gt;Int</title>
<path fill="none" stroke="#000000" d="M680.999,-30.2467C659.194,-41.8982 624.945,-60.1995 600.467,-73.2794"/>
<polygon fill="#000000" stroke="#000000" points="598.78,-70.2121 591.61,-78.012 602.079,-76.386 598.78,-70.2121"/>
</g>
<!-- NumStr -->
<g id="node22" class="node"><title>NumStr</title>
<g id="a_node22"><a xlink:href="/type/NumStr" xlink:title="NumStr">
<ellipse fill="none" stroke="#000000" cx="871.047" cy="-18" rx="40.8928" ry="18"/>
<text text-anchor="middle" x="871.047" y="-14.3" font-family="FreeSans" font-size="14.00" fill="#000000">NumStr</text>
</a>
</g>
</g>
<!-- NumStr&#45;&gt;Str -->
<g id="edge20" class="edge"><title>NumStr&#45;&gt;Str</title>
<path fill="none" stroke="#000000" d="M851.301,-34.189C837.755,-44.609 819.668,-58.5222 805.106,-69.7232"/>
<polygon fill="#000000" stroke="#000000" points="802.794,-67.0866 797.001,-75.9579 807.062,-72.635 802.794,-67.0866"/>
</g>
<!-- NumStr&#45;&gt;Num -->
<g id="edge19" class="edge"><title>NumStr&#45;&gt;Num</title>
<path fill="none" stroke="#000000" d="M839.665,-29.6698C829.619,-33.0854 821.047,-36 821.047,-36 821.047,-36 733.172,-62.6134 681.962,-78.1227"/>
<polygon fill="#000000" stroke="#000000" points="680.802,-74.817 672.246,-81.0654 682.831,-81.5165 680.802,-74.817"/>
</g>
<!-- FatRat -->
<g id="node23" class="node"><title>FatRat</title>
<g id="a_node23"><a xlink:href="/type/FatRat" xlink:title="FatRat">
<ellipse fill="none" stroke="#000000" cx="37.0467" cy="-18" rx="37.0935" ry="18"/>
<text text-anchor="middle" x="37.0467" y="-14.3" font-family="FreeSans" font-size="14.00" fill="#000000">FatRat</text>
</a>
</g>
</g>
<!-- FatRat&#45;&gt;Cool -->
<g id="edge21" class="edge"><title>FatRat&#45;&gt;Cool</title>
<path fill="none" stroke="#000000" d="M65.6561,-29.573C75.0106,-33.0301 83.0467,-36 83.0467,-36 83.0467,-36 459.047,-72 459.047,-72 459.047,-72 492.047,-108 492.047,-108 492.047,-108 507.785,-124.355 521.776,-138.895"/>
<polygon fill="#000000" stroke="#000000" points="519.385,-141.458 528.84,-146.237 524.429,-136.604 519.385,-141.458"/>
</g>
<!-- FatRat&#45;&gt;Rational -->
<g id="edge31" class="edge"><title>FatRat&#45;&gt;Rational</title>
<path fill="none" stroke="#6666ff" d="M54.8395,-34.189C66.0449,-43.7546 80.6987,-56.2639 93.1774,-66.9164"/>
<polygon fill="#6666ff" stroke="#6666ff" points="91.1274,-69.7683 101.005,-73.599 95.6723,-64.4443 91.1274,-69.7683"/>
</g>
<!-- Rat -->
<g id="node24" class="node"><title>Rat</title>
<g id="a_node24"><a xlink:href="/type/Rat" xlink:title="Rat">
<ellipse fill="none" stroke="#000000" cx="119.047" cy="-18" rx="27" ry="18"/>
<text text-anchor="middle" x="119.047" y="-14.3" font-family="FreeSans" font-size="14.00" fill="#000000">Rat</text>
</a>
</g>
</g>
<!-- Rat&#45;&gt;Cool -->
<g id="edge22" class="edge"><title>Rat&#45;&gt;Cool</title>
<path fill="none" stroke="#000000" d="M140.404,-29.0854C148.156,-32.7461 155.047,-36 155.047,-36 155.047,-36 492.047,-72 492.047,-72 492.047,-72 513.59,-109.595 528.673,-135.916"/>
<polygon fill="#000000" stroke="#000000" points="525.684,-137.74 533.693,-144.676 531.757,-134.259 525.684,-137.74"/>
</g>
<!-- Rat&#45;&gt;Rational -->
<g id="edge32" class="edge"><title>Rat&#45;&gt;Rational</title>
<path fill="none" stroke="#6666ff" d="M119.047,-36.3034C119.047,-44.0173 119.047,-53.2875 119.047,-61.8876"/>
<polygon fill="#6666ff" stroke="#6666ff" points="115.547,-61.8956 119.047,-71.8957 122.547,-61.8957 115.547,-61.8956"/>
</g>
</g>
</svg>
