<?xml version="1.0" encoding="UTF-8" standalone="no"?>
<!DOCTYPE svg PUBLIC "-//W3C//DTD SVG 1.1//EN"
 "http://www.w3.org/Graphics/SVG/1.1/DTD/svg11.dtd">
<!-- Generated by graphviz version 2.38.0 (20140413.2041)
 -->
<!-- Title: perl6&#45;type&#45;graph Pages: 1 -->
<svg width="709pt" height="44pt"
 viewBox="0.00 0.00 709.35 44.00" xmlns="http://www.w3.org/2000/svg" xmlns:xlink="http://www.w3.org/1999/xlink">
<g id="graph0" class="graph" transform="scale(1 1) rotate(0) translate(459.53 22.7607)">
<title>perl6&#45;type&#45;graph</title>
<polygon fill="white" stroke="none" points="-459.53,21.2393 -459.53,-22.7607 249.815,-22.7607 249.815,21.2393 -459.53,21.2393"/>
<!-- X::Composition::NotComposable -->
<g id="node1" class="node"><title>X::Composition::NotComposable</title>
<g id="a_node1"><a xlink:href="/type/X::Composition::NotComposable" xlink:title="X::Composition::NotComposable">
<ellipse fill="none" stroke="#000000" cx="-317.092" cy="-0.760668" rx="138.375" ry="18"/>
<text text-anchor="middle" x="-317.092" y="2.93933" font-family="FreeSans" font-size="14.00" fill="#000000">X::Composition::NotComposable</text>
</a>
</g>
</g>
<!-- Exception -->
<g id="node4" class="node"><title>Exception</title>
<g id="a_node4"><a xlink:href="/type/Exception" xlink:title="Exception">
<ellipse fill="none" stroke="#000000" cx="-118.682" cy="-0.760667" rx="49.2915" ry="18"/>
<text text-anchor="middle" x="-118.682" y="2.93933" font-family="FreeSans" font-size="14.00" fill="#000000">Exception</text>
</a>
</g>
</g>
<!-- X::Composition::NotComposable&#45;&gt;Exception -->
<g id="edge1" class="edge"><title>X::Composition::NotComposable&#45;&gt;Exception</title>
<path fill="none" stroke="#000000" d="M-178.481,-0.760667C-178.37,-0.760667 -178.26,-0.760667 -178.15,-0.760667"/>
<polygon fill="#000000" stroke="#000000" points="-178.151,-4.26077 -168.151,-0.760667 -178.151,2.73923 -178.151,-4.26077"/>
</g>
<!-- Mu -->
<g id="node2" class="node"><title>Mu</title>
<g id="a_node2"><a xlink:href="/type/Mu" xlink:title="Mu">
<ellipse fill="none" stroke="#000000" cx="218.815" cy="-0.760667" rx="27" ry="18"/>
<text text-anchor="middle" x="218.815" y="2.93933" font-family="FreeSans" font-size="14.00" fill="#000000">Mu</text>
</a>
</g>
</g>
<!-- Any -->
<g id="node3" class="node"><title>Any</title>
<g id="a_node3"><a xlink:href="/type/Any" xlink:title="Any">
<ellipse fill="none" stroke="#000000" cx="39.0267" cy="-0.760668" rx="27" ry="18"/>
<text text-anchor="middle" x="39.0267" y="2.93933" font-family="FreeSans" font-size="14.00" fill="#000000">Any</text>
</a>
</g>
</g>
<!-- Any&#45;&gt;Mu -->
<g id="edge2" class="edge"><title>Any&#45;&gt;Mu</title>
<path fill="none" stroke="#000000" d="M66.3327,-0.760668C97.0459,-0.760668 147.11,-0.760668 181.438,-0.760667"/>
<polygon fill="#000000" stroke="#000000" points="181.547,-4.26077 191.547,-0.760667 181.547,2.73923 181.547,-4.26077"/>
</g>
<!-- Exception&#45;&gt;Any -->
<g id="edge3" class="edge"><title>Exception&#45;&gt;Any</title>
<path fill="none" stroke="#000000" d="M-69.2148,-0.760667C-46.3406,-0.760668 -19.6165,-0.760668 1.55446,-0.760668"/>
<polygon fill="#000000" stroke="#000000" points="1.76404,-4.26057 11.7641,-0.760668 1.76411,2.73943 1.76404,-4.26057"/>
</g>
</g>
</svg>
