<?xml version="1.0" encoding="UTF-8" standalone="no"?>
<!DOCTYPE svg PUBLIC "-//W3C//DTD SVG 1.1//EN"
 "http://www.w3.org/Graphics/SVG/1.1/DTD/svg11.dtd">
<!-- Generated by graphviz version 2.38.0 (20140413.2041)
 -->
<!-- Title: perl6&#45;type&#45;graph Pages: 1 -->
<svg width="2534pt" height="1132pt"
 viewBox="0.00 0.00 2533.73 1131.67" xmlns="http://www.w3.org/2000/svg" xmlns:xlink="http://www.w3.org/1999/xlink">
<g id="graph0" class="graph" transform="scale(1 1) rotate(0) translate(1231.88 546.163)">
<title>perl6&#45;type&#45;graph</title>
<polygon fill="white" stroke="none" points="-1231.88,585.507 -1231.88,-546.163 1301.85,-546.163 1301.85,585.507 -1231.88,585.507"/>
<!-- Metamodel::PrivateMethodContainer -->
<g id="node1" class="node"><title>Metamodel::PrivateMethodContainer</title>
<g id="a_node1"><a xlink:href="/type/Metamodel::PrivateMethodContainer" xlink:title="Metamodel::PrivateMethodContainer">
<ellipse fill="none" stroke="#6666ff" cx="-14.8688" cy="-204.52" rx="154.873" ry="18"/>
<text text-anchor="middle" x="-14.8688" y="-200.82" font-family="FreeSans" font-size="14.00" fill="#6666ff">Metamodel::PrivateMethodContainer</text>
</a>
</g>
</g>
<!-- Mu -->
<g id="node2" class="node"><title>Mu</title>
<g id="a_node2"><a xlink:href="/type/Mu" xlink:title="Mu">
<ellipse fill="none" stroke="#000000" cx="1133.07" cy="510.795" rx="27" ry="18"/>
<text text-anchor="middle" x="1133.07" y="514.495" font-family="FreeSans" font-size="14.00" fill="#000000">Mu</text>
</a>
</g>
</g>
<!-- Any -->
<g id="node3" class="node"><title>Any</title>
<g id="a_node3"><a xlink:href="/type/Any" xlink:title="Any">
<ellipse fill="none" stroke="#000000" cx="544.527" cy="558.743" rx="27" ry="18"/>
<text text-anchor="middle" x="544.527" y="562.443" font-family="FreeSans" font-size="14.00" fill="#000000">Any</text>
</a>
</g>
</g>
<!-- Any&#45;&gt;Mu -->
<g id="edge1" class="edge"><title>Any&#45;&gt;Mu</title>
<path fill="none" stroke="#000000" d="M571.345,556.558C666.231,548.828 986.233,522.758 1095.86,513.827"/>
<polygon fill="#000000" stroke="#000000" points="1095.85,510.316 1106.1,512.993 1096.41,517.293 1095.85,510.316"/>
</g>
<!-- Metamodel::Naming -->
<g id="node4" class="node"><title>Metamodel::Naming</title>
<g id="a_node4"><a xlink:href="/type/Metamodel::Naming" xlink:title="Metamodel::Naming">
<ellipse fill="none" stroke="#6666ff" cx="265.801" cy="-499.699" rx="90.1842" ry="18"/>
<text text-anchor="middle" x="265.801" y="-495.999" font-family="FreeSans" font-size="14.00" fill="#6666ff">Metamodel::Naming</text>
</a>
</g>
</g>
<!-- Metamodel::Documenting -->
<g id="node5" class="node"><title>Metamodel::Documenting</title>
<g id="a_node5"><a xlink:href="/type/Metamodel::Documenting" xlink:title="Metamodel::Documenting">
<ellipse fill="none" stroke="#6666ff" cx="611.647" cy="-498.943" rx="111.28" ry="18"/>
<text text-anchor="middle" x="611.647" y="-495.243" font-family="FreeSans" font-size="14.00" fill="#6666ff">Metamodel::Documenting</text>
</a>
</g>
</g>
<!-- Metamodel::Versioning -->
<g id="node6" class="node"><title>Metamodel::Versioning</title>
<g id="a_node6"><a xlink:href="/type/Metamodel::Versioning" xlink:title="Metamodel::Versioning">
<ellipse fill="none" stroke="#6666ff" cx="-10.5401" cy="-524.163" rx="100.983" ry="18"/>
<text text-anchor="middle" x="-10.5401" y="-520.463" font-family="FreeSans" font-size="14.00" fill="#6666ff">Metamodel::Versioning</text>
</a>
</g>
</g>
<!-- Metamodel::Stashing -->
<g id="node7" class="node"><title>Metamodel::Stashing</title>
<g id="a_node7"><a xlink:href="/type/Metamodel::Stashing" xlink:title="Metamodel::Stashing">
<ellipse fill="none" stroke="#6666ff" cx="45.8553" cy="271.231" rx="93.6835" ry="18"/>
<text text-anchor="middle" x="45.8553" y="274.931" font-family="FreeSans" font-size="14.00" fill="#6666ff">Metamodel::Stashing</text>
</a>
</g>
</g>
<!-- Metamodel::AttributeContainer -->
<g id="node8" class="node"><title>Metamodel::AttributeContainer</title>
<g id="a_node8"><a xlink:href="/type/Metamodel::AttributeContainer" xlink:title="Metamodel::AttributeContainer">
<ellipse fill="none" stroke="#6666ff" cx="335.286" cy="176.201" rx="129.977" ry="18"/>
<text text-anchor="middle" x="335.286" y="179.901" font-family="FreeSans" font-size="14.00" fill="#6666ff">Metamodel::AttributeContainer</text>
</a>
</g>
</g>
<!-- Metamodel::Finalization -->
<g id="node9" class="node"><title>Metamodel::Finalization</title>
<g id="a_node9"><a xlink:href="/type/Metamodel::Finalization" xlink:title="Metamodel::Finalization">
<ellipse fill="none" stroke="#6666ff" cx="-550.879" cy="500.705" rx="103.982" ry="18"/>
<text text-anchor="middle" x="-550.879" y="504.405" font-family="FreeSans" font-size="14.00" fill="#6666ff">Metamodel::Finalization</text>
</a>
</g>
</g>
<!-- Metamodel::MethodContainer -->
<g id="node10" class="node"><title>Metamodel::MethodContainer</title>
<g id="a_node10"><a xlink:href="/type/Metamodel::MethodContainer" xlink:title="Metamodel::MethodContainer">
<ellipse fill="none" stroke="#6666ff" cx="46.3215" cy="28.1681" rx="127.277" ry="18"/>
<text text-anchor="middle" x="46.3215" y="31.8681" font-family="FreeSans" font-size="14.00" fill="#6666ff">Metamodel::MethodContainer</text>
</a>
</g>
</g>
<!-- Metamodel::MultiMethodContainer -->
<g id="node11" class="node"><title>Metamodel::MultiMethodContainer</title>
<g id="a_node11"><a xlink:href="/type/Metamodel::MultiMethodContainer" xlink:title="Metamodel::MultiMethodContainer">
<ellipse fill="none" stroke="#6666ff" cx="-243.691" cy="183.679" rx="146.474" ry="18"/>
<text text-anchor="middle" x="-243.691" y="187.379" font-family="FreeSans" font-size="14.00" fill="#6666ff">Metamodel::MultiMethodContainer</text>
</a>
</g>
</g>
<!-- Metamodel::RoleContainer -->
<g id="node12" class="node"><title>Metamodel::RoleContainer</title>
<g id="a_node12"><a xlink:href="/type/Metamodel::RoleContainer" xlink:title="Metamodel::RoleContainer">
<ellipse fill="none" stroke="#6666ff" cx="-298.421" cy="-129.995" rx="115.88" ry="18"/>
<text text-anchor="middle" x="-298.421" y="-126.295" font-family="FreeSans" font-size="14.00" fill="#6666ff">Metamodel::RoleContainer</text>
</a>
</g>
</g>
<!-- Metamodel::MultipleInheritance -->
<g id="node13" class="node"><title>Metamodel::MultipleInheritance</title>
<g id="a_node13"><a xlink:href="/type/Metamodel::MultipleInheritance" xlink:title="Metamodel::MultipleInheritance">
<ellipse fill="none" stroke="#6666ff" cx="682.956" cy="216.29" rx="133.776" ry="18"/>
<text text-anchor="middle" x="682.956" y="219.99" font-family="FreeSans" font-size="14.00" fill="#6666ff">Metamodel::MultipleInheritance</text>
</a>
</g>
</g>
<!-- Metamodel::DefaultParent -->
<g id="node14" class="node"><title>Metamodel::DefaultParent</title>
<g id="a_node14"><a xlink:href="/type/Metamodel::DefaultParent" xlink:title="Metamodel::DefaultParent">
<ellipse fill="none" stroke="#6666ff" cx="-293.965" cy="-510.473" rx="113.18" ry="18"/>
<text text-anchor="middle" x="-293.965" y="-506.773" font-family="FreeSans" font-size="14.00" fill="#6666ff">Metamodel::DefaultParent</text>
</a>
</g>
</g>
<!-- Metamodel::C3MRO -->
<g id="node15" class="node"><title>Metamodel::C3MRO</title>
<g id="a_node15"><a xlink:href="/type/Metamodel::C3MRO" xlink:title="Metamodel::C3MRO">
<ellipse fill="none" stroke="#6666ff" cx="-1123.12" cy="-483.514" rx="92.0841" ry="18"/>
<text text-anchor="middle" x="-1123.12" y="-479.814" font-family="FreeSans" font-size="14.00" fill="#6666ff">Metamodel::C3MRO</text>
</a>
</g>
</g>
<!-- Metamodel::MROBasedMethodDispatch -->
<g id="node16" class="node"><title>Metamodel::MROBasedMethodDispatch</title>
<g id="a_node16"><a xlink:href="/type/Metamodel::MROBasedMethodDispatch" xlink:title="Metamodel::MROBasedMethodDispatch">
<ellipse fill="none" stroke="#6666ff" cx="-187.775" cy="557.274" rx="169.77" ry="18"/>
<text text-anchor="middle" x="-187.775" y="560.974" font-family="FreeSans" font-size="14.00" fill="#6666ff">Metamodel::MROBasedMethodDispatch</text>
</a>
</g>
</g>
<!-- Metamodel::MROBasedTypeChecking -->
<g id="node17" class="node"><title>Metamodel::MROBasedTypeChecking</title>
<g id="a_node17"><a xlink:href="/type/Metamodel::MROBasedTypeChecking" xlink:title="Metamodel::MROBasedTypeChecking">
<ellipse fill="none" stroke="#6666ff" cx="162.974" cy="563.507" rx="163.271" ry="18"/>
<text text-anchor="middle" x="162.974" y="567.207" font-family="FreeSans" font-size="14.00" fill="#6666ff">Metamodel::MROBasedTypeChecking</text>
</a>
</g>
</g>
<!-- Metamodel::Trusting -->
<g id="node18" class="node"><title>Metamodel::Trusting</title>
<g id="a_node18"><a xlink:href="/type/Metamodel::Trusting" xlink:title="Metamodel::Trusting">
<ellipse fill="none" stroke="#6666ff" cx="-1029.01" cy="-129.189" rx="91.784" ry="18"/>
<text text-anchor="middle" x="-1029.01" y="-125.489" font-family="FreeSans" font-size="14.00" fill="#6666ff">Metamodel::Trusting</text>
</a>
</g>
</g>
<!-- Metamodel::BUILDPLAN -->
<g id="node19" class="node"><title>Metamodel::BUILDPLAN</title>
<g id="a_node19"><a xlink:href="/type/Metamodel::BUILDPLAN" xlink:title="Metamodel::BUILDPLAN">
<ellipse fill="none" stroke="#6666ff" cx="-1079.27" cy="548.073" rx="109.681" ry="18"/>
<text text-anchor="middle" x="-1079.27" y="551.773" font-family="FreeSans" font-size="14.00" fill="#6666ff">Metamodel::BUILDPLAN</text>
</a>
</g>
</g>
<!-- Metamodel::Mixins -->
<g id="node20" class="node"><title>Metamodel::Mixins</title>
<g id="a_node20"><a xlink:href="/type/Metamodel::Mixins" xlink:title="Metamodel::Mixins">
<ellipse fill="none" stroke="#6666ff" cx="-1142.74" cy="168.674" rx="85.2851" ry="18"/>
<text text-anchor="middle" x="-1142.74" y="172.374" font-family="FreeSans" font-size="14.00" fill="#6666ff">Metamodel::Mixins</text>
</a>
</g>
</g>
<!-- Metamodel::BoolificationProtocol -->
<g id="node21" class="node"><title>Metamodel::BoolificationProtocol</title>
<g id="a_node21"><a xlink:href="/type/Metamodel::BoolificationProtocol" xlink:title="Metamodel::BoolificationProtocol">
<ellipse fill="none" stroke="#6666ff" cx="-606.476" cy="-432.152" rx="139.175" ry="18"/>
<text text-anchor="middle" x="-606.476" y="-428.452" font-family="FreeSans" font-size="14.00" fill="#6666ff">Metamodel::BoolificationProtocol</text>
</a>
</g>
</g>
<!-- Metamodel::ClassHOW -->
<g id="node22" class="node"><title>Metamodel::ClassHOW</title>
<g id="a_node22"><a xlink:href="/type/Metamodel::ClassHOW" xlink:title="Metamodel::ClassHOW">
<ellipse fill="none" stroke="#000000" cx="-587.74" cy="62.5817" rx="103.982" ry="18"/>
<text text-anchor="middle" x="-587.74" y="66.2817" font-family="FreeSans" font-size="14.00" fill="#000000">Metamodel::ClassHOW</text>
</a>
</g>
</g>
<!-- Metamodel::ClassHOW&#45;&gt;Metamodel::PrivateMethodContainer -->
<g id="edge12" class="edge"><title>Metamodel::ClassHOW&#45;&gt;Metamodel::PrivateMethodContainer</title>
<path fill="none" stroke="#6666ff" d="M-551.47,45.6707C-451.692,-0.850905 -173.153,-130.72 -61.7708,-182.652"/>
<polygon fill="#6666ff" stroke="#6666ff" points="-63.0088,-185.936 -52.4665,-186.99 -60.0507,-179.592 -63.0088,-185.936"/>
</g>
<!-- Metamodel::ClassHOW&#45;&gt;Any -->
<g id="edge2" class="edge"><title>Metamodel::ClassHOW&#45;&gt;Any</title>
<path fill="none" stroke="#000000" d="M-559.627,79.948C-505.372,113.463 -391.525,183.791 -391.525,183.791 -391.525,183.791 345.181,478.892 511.455,545.496"/>
<polygon fill="#000000" stroke="#000000" points="512.939,542.319 520.92,549.287 510.336,548.817 512.939,542.319"/>
</g>
<!-- Metamodel::ClassHOW&#45;&gt;Metamodel::Naming -->
<g id="edge5" class="edge"><title>Metamodel::ClassHOW&#45;&gt;Metamodel::Naming</title>
<path fill="none" stroke="#6666ff" d="M-571.556,44.4739C-528.731,-3.4405 -415.709,-129.895 -415.709,-129.895 -415.709,-129.895 78.3326,-397.974 225.139,-477.635"/>
<polygon fill="#6666ff" stroke="#6666ff" points="223.839,-480.911 234.297,-482.604 227.177,-474.759 223.839,-480.911"/>
</g>
<!-- Metamodel::ClassHOW&#45;&gt;Metamodel::Documenting -->
<g id="edge6" class="edge"><title>Metamodel::ClassHOW&#45;&gt;Metamodel::Documenting</title>
<path fill="none" stroke="#6666ff" d="M-543.226,46.2649C-384.916,-11.7641 141.411,-204.692 141.411,-204.692 141.411,-204.692 464.662,-406.967 575.142,-476.1"/>
<polygon fill="#6666ff" stroke="#6666ff" points="573.306,-479.08 583.64,-481.417 577.019,-473.146 573.306,-479.08"/>
</g>
<!-- Metamodel::ClassHOW&#45;&gt;Metamodel::Versioning -->
<g id="edge7" class="edge"><title>Metamodel::ClassHOW&#45;&gt;Metamodel::Versioning</title>
<path fill="none" stroke="#6666ff" d="M-571.556,44.4739C-528.731,-3.4405 -415.709,-129.895 -415.709,-129.895 -415.709,-129.895 -124.781,-412.995 -35.9742,-499.413"/>
<polygon fill="#6666ff" stroke="#6666ff" points="-38.3442,-501.99 -28.7365,-506.456 -33.4624,-496.973 -38.3442,-501.99"/>
</g>
<!-- Metamodel::ClassHOW&#45;&gt;Metamodel::Stashing -->
<g id="edge8" class="edge"><title>Metamodel::ClassHOW&#45;&gt;Metamodel::Stashing</title>
<path fill="none" stroke="#6666ff" d="M-526.389,77.2571C-403.696,106.605 -139.752,169.741 -139.752,169.741 -139.752,169.741 -95.8561,183.568 -95.8561,183.568 -95.8561,183.568 -32.7396,222.612 9.24882,248.586"/>
<polygon fill="#6666ff" stroke="#6666ff" points="11.1947,245.674 17.8577,253.912 7.51204,251.627 11.1947,245.674"/>
</g>
<!-- Metamodel::ClassHOW&#45;&gt;Metamodel::AttributeContainer -->
<g id="edge9" class="edge"><title>Metamodel::ClassHOW&#45;&gt;Metamodel::AttributeContainer</title>
<path fill="none" stroke="#6666ff" d="M-502.97,73.0164C-334.488,93.7556 42.197,140.123 227.77,162.966"/>
<polygon fill="#6666ff" stroke="#6666ff" points="228.319,159.507 237.816,164.203 227.463,166.455 228.319,159.507"/>
</g>
<!-- Metamodel::ClassHOW&#45;&gt;Metamodel::Finalization -->
<g id="edge10" class="edge"><title>Metamodel::ClassHOW&#45;&gt;Metamodel::Finalization</title>
<path fill="none" stroke="#6666ff" d="M-586.203,80.8495C-580.466,149.045 -560.272,389.065 -553.282,472.147"/>
<polygon fill="#6666ff" stroke="#6666ff" points="-549.774,472.101 -552.423,482.359 -556.749,472.688 -549.774,472.101"/>
</g>
<!-- Metamodel::ClassHOW&#45;&gt;Metamodel::MethodContainer -->
<g id="edge11" class="edge"><title>Metamodel::ClassHOW&#45;&gt;Metamodel::MethodContainer</title>
<path fill="none" stroke="#6666ff" d="M-488.319,57.1857C-379.018,51.2533 -203.029,41.7016 -83.0544,35.19"/>
<polygon fill="#6666ff" stroke="#6666ff" points="-82.885,31.6757 -72.71,34.6285 -82.5056,38.6654 -82.885,31.6757"/>
</g>
<!-- Metamodel::ClassHOW&#45;&gt;Metamodel::MultiMethodContainer -->
<g id="edge13" class="edge"><title>Metamodel::ClassHOW&#45;&gt;Metamodel::MultiMethodContainer</title>
<path fill="none" stroke="#6666ff" d="M-541.697,78.7878C-479.741,100.595 -369.524,139.389 -301.892,163.194"/>
<polygon fill="#6666ff" stroke="#6666ff" points="-300.504,159.972 -292.233,166.593 -302.828,166.575 -300.504,159.972"/>
</g>
<!-- Metamodel::ClassHOW&#45;&gt;Metamodel::RoleContainer -->
<g id="edge14" class="edge"><title>Metamodel::ClassHOW&#45;&gt;Metamodel::RoleContainer</title>
<path fill="none" stroke="#6666ff" d="M-561.555,45.1521C-509.293,10.3661 -392.039,-67.6808 -333.319,-106.766"/>
<polygon fill="#6666ff" stroke="#6666ff" points="-335.019,-109.839 -324.755,-112.466 -331.14,-104.011 -335.019,-109.839"/>
</g>
<!-- Metamodel::ClassHOW&#45;&gt;Metamodel::MultipleInheritance -->
<g id="edge15" class="edge"><title>Metamodel::ClassHOW&#45;&gt;Metamodel::MultipleInheritance</title>
<path fill="none" stroke="#6666ff" d="M-509.635,74.5779C-302.963,106.321 242.48,190.096 242.48,190.096 242.48,190.096 335.627,195.801 335.627,195.801 335.627,195.801 451.968,202.664 549.984,208.446"/>
<polygon fill="#6666ff" stroke="#6666ff" points="550.236,204.955 560.012,209.038 549.823,211.943 550.236,204.955"/>
</g>
<!-- Metamodel::ClassHOW&#45;&gt;Metamodel::DefaultParent -->
<g id="edge16" class="edge"><title>Metamodel::ClassHOW&#45;&gt;Metamodel::DefaultParent</title>
<path fill="none" stroke="#6666ff" d="M-578.463,44.4848C-535.894,-38.5528 -359.155,-383.309 -307.934,-483.223"/>
<polygon fill="#6666ff" stroke="#6666ff" points="-310.921,-485.069 -303.244,-492.372 -304.692,-481.876 -310.921,-485.069"/>
</g>
<!-- Metamodel::ClassHOW&#45;&gt;Metamodel::C3MRO -->
<g id="edge17" class="edge"><title>Metamodel::ClassHOW&#45;&gt;Metamodel::C3MRO</title>
<path fill="none" stroke="#6666ff" d="M-605.249,44.7226C-684.128,-35.7346 -1006.61,-364.67 -1098.55,-458.45"/>
<polygon fill="#6666ff" stroke="#6666ff" points="-1101.25,-456.2 -1105.75,-465.791 -1096.25,-461.1 -1101.25,-456.2"/>
</g>
<!-- Metamodel::ClassHOW&#45;&gt;Metamodel::MROBasedMethodDispatch -->
<g id="edge18" class="edge"><title>Metamodel::ClassHOW&#45;&gt;Metamodel::MROBasedMethodDispatch</title>
<path fill="none" stroke="#6666ff" d="M-573.269,80.4803C-512.826,155.238 -280.378,442.739 -208.847,531.212"/>
<polygon fill="#6666ff" stroke="#6666ff" points="-206.003,529.162 -202.438,539.139 -211.447,533.563 -206.003,529.162"/>
</g>
<!-- Metamodel::ClassHOW&#45;&gt;Metamodel::MROBasedTypeChecking -->
<g id="edge19" class="edge"><title>Metamodel::ClassHOW&#45;&gt;Metamodel::MROBasedTypeChecking</title>
<path fill="none" stroke="#6666ff" d="M-561.462,80.1162C-448.192,155.697 -1.57654,453.708 127.725,539.987"/>
<polygon fill="#6666ff" stroke="#6666ff" points="129.752,537.131 136.128,545.593 125.867,542.954 129.752,537.131"/>
</g>
<!-- Metamodel::ClassHOW&#45;&gt;Metamodel::Trusting -->
<g id="edge20" class="edge"><title>Metamodel::ClassHOW&#45;&gt;Metamodel::Trusting</title>
<path fill="none" stroke="#6666ff" d="M-626.513,45.7314C-707.477,10.5459 -894.242,-70.6193 -981.931,-108.728"/>
<polygon fill="#6666ff" stroke="#6666ff" points="-983.336,-105.522 -991.112,-112.718 -980.546,-111.942 -983.336,-105.522"/>
</g>
<!-- Metamodel::ClassHOW&#45;&gt;Metamodel::BUILDPLAN -->
<g id="edge21" class="edge"><title>Metamodel::ClassHOW&#45;&gt;Metamodel::BUILDPLAN</title>
<path fill="none" stroke="#6666ff" d="M-605.817,80.4364C-680.717,154.416 -966.852,437.034 -1053.96,523.071"/>
<polygon fill="#6666ff" stroke="#6666ff" points="-1051.72,525.776 -1061.29,530.313 -1056.64,520.796 -1051.72,525.776"/>
</g>
<!-- Metamodel::ClassHOW&#45;&gt;Metamodel::Mixins -->
<g id="edge22" class="edge"><title>Metamodel::ClassHOW&#45;&gt;Metamodel::Mixins</title>
<path fill="none" stroke="#6666ff" d="M-657.749,75.9646C-763.189,96.1205 -961.813,134.089 -1069.26,154.628"/>
<polygon fill="#6666ff" stroke="#6666ff" points="-1068.88,158.12 -1079.36,156.56 -1070.2,151.245 -1068.88,158.12"/>
</g>
<!-- Metamodel::ClassHOW&#45;&gt;Metamodel::BoolificationProtocol -->
<g id="edge23" class="edge"><title>Metamodel::ClassHOW&#45;&gt;Metamodel::BoolificationProtocol</title>
<path fill="none" stroke="#6666ff" d="M-588.429,44.3871C-591.255,-30.2427 -601.972,-313.225 -605.408,-403.967"/>
<polygon fill="#6666ff" stroke="#6666ff" points="-608.909,-403.928 -605.79,-414.053 -601.914,-404.193 -608.909,-403.928"/>
</g>
<!-- Metamodel::ConcreteRoleHOW -->
<g id="node23" class="node"><title>Metamodel::ConcreteRoleHOW</title>
<g id="a_node23"><a xlink:href="/type/Metamodel::ConcreteRoleHOW" xlink:title="Metamodel::ConcreteRoleHOW">
<ellipse fill="none" stroke="#000000" cx="301.282" cy="-149.045" rx="135.676" ry="18"/>
<text text-anchor="middle" x="301.282" y="-145.345" font-family="FreeSans" font-size="14.00" fill="#000000">Metamodel::ConcreteRoleHOW</text>
</a>
</g>
</g>
<!-- Metamodel::ConcreteRoleHOW&#45;&gt;Metamodel::PrivateMethodContainer -->
<g id="edge26" class="edge"><title>Metamodel::ConcreteRoleHOW&#45;&gt;Metamodel::PrivateMethodContainer</title>
<path fill="none" stroke="#6666ff" d="M219.043,-163.475C176.689,-170.907 124.818,-180.009 80.6925,-187.752"/>
<polygon fill="#6666ff" stroke="#6666ff" points="80.066,-184.308 70.8214,-189.484 81.2758,-191.203 80.066,-184.308"/>
</g>
<!-- Metamodel::ConcreteRoleHOW&#45;&gt;Any -->
<g id="edge3" class="edge"><title>Metamodel::ConcreteRoleHOW&#45;&gt;Any</title>
<path fill="none" stroke="#000000" d="M310.66,-130.629C345.689,-61.836 466.874,176.15 466.874,176.15 466.874,176.15 521.04,443.025 538.894,530.992"/>
<polygon fill="#000000" stroke="#000000" points="542.327,530.306 540.886,540.803 535.466,531.699 542.327,530.306"/>
</g>
<!-- Metamodel::ConcreteRoleHOW&#45;&gt;Metamodel::Naming -->
<g id="edge24" class="edge"><title>Metamodel::ConcreteRoleHOW&#45;&gt;Metamodel::Naming</title>
<path fill="none" stroke="#6666ff" d="M299.425,-167.404C293.605,-224.921 275.696,-401.914 268.671,-471.338"/>
<polygon fill="#6666ff" stroke="#6666ff" points="265.165,-471.22 267.641,-481.522 272.13,-471.925 265.165,-471.22"/>
</g>
<!-- Metamodel::ConcreteRoleHOW&#45;&gt;Metamodel::Versioning -->
<g id="edge25" class="edge"><title>Metamodel::ConcreteRoleHOW&#45;&gt;Metamodel::Versioning</title>
<path fill="none" stroke="#6666ff" d="M286.242,-167.137C235.506,-228.172 70.5137,-426.656 11.0612,-498.177"/>
<polygon fill="#6666ff" stroke="#6666ff" points="8.04981,-496.324 4.34884,-506.251 13.4328,-500.799 8.04981,-496.324"/>
</g>
<!-- Metamodel::ConcreteRoleHOW&#45;&gt;Metamodel::AttributeContainer -->
<g id="edge29" class="edge"><title>Metamodel::ConcreteRoleHOW&#45;&gt;Metamodel::AttributeContainer</title>
<path fill="none" stroke="#6666ff" d="M303.208,-130.626C308.877,-76.3981 325.536,82.947 332.34,148.026"/>
<polygon fill="#6666ff" stroke="#6666ff" points="335.822,147.675 333.381,157.985 328.86,148.403 335.822,147.675"/>
</g>
<!-- Metamodel::ConcreteRoleHOW&#45;&gt;Metamodel::MethodContainer -->
<g id="edge27" class="edge"><title>Metamodel::ConcreteRoleHOW&#45;&gt;Metamodel::MethodContainer</title>
<path fill="none" stroke="#6666ff" d="M275.432,-131.077C229.118,-98.8861 132.018,-31.3959 80.3528,4.51436"/>
<polygon fill="#6666ff" stroke="#6666ff" points="82.0699,7.58327 71.861,10.4167 78.0747,1.83533 82.0699,7.58327"/>
</g>
<!-- Metamodel::ConcreteRoleHOW&#45;&gt;Metamodel::MultiMethodContainer -->
<g id="edge28" class="edge"><title>Metamodel::ConcreteRoleHOW&#45;&gt;Metamodel::MultiMethodContainer</title>
<path fill="none" stroke="#6666ff" d="M263.769,-131.718C167.158,-87.0943 -82.6645,28.2951 -82.6645,28.2951 -82.6645,28.2951 -171.814,114.321 -217.447,158.355"/>
<polygon fill="#6666ff" stroke="#6666ff" points="-215.277,161.125 -224.904,165.551 -220.138,156.088 -215.277,161.125"/>
</g>
<!-- Metamodel::ConcreteRoleHOW&#45;&gt;Metamodel::RoleContainer -->
<g id="edge30" class="edge"><title>Metamodel::ConcreteRoleHOW&#45;&gt;Metamodel::RoleContainer</title>
<path fill="none" stroke="#6666ff" d="M168.933,-144.84C66.554,-141.588 -74.182,-137.118 -174.399,-133.935"/>
<polygon fill="#6666ff" stroke="#6666ff" points="-174.472,-130.431 -184.578,-133.611 -174.694,-137.427 -174.472,-130.431"/>
</g>
<!-- Metamodel::ConcreteRoleHOW&#45;&gt;Metamodel::MultipleInheritance -->
<g id="edge31" class="edge"><title>Metamodel::ConcreteRoleHOW&#45;&gt;Metamodel::MultipleInheritance</title>
<path fill="none" stroke="#6666ff" d="M319.95,-131.176C382.476,-71.3264 584.656,122.198 656.953,191.4"/>
<polygon fill="#6666ff" stroke="#6666ff" points="659.521,189.013 664.325,198.456 654.681,194.07 659.521,189.013"/>
</g>
<!-- Metamodel::TypePretense -->
<g id="node24" class="node"><title>Metamodel::TypePretense</title>
<g id="a_node24"><a xlink:href="/type/Metamodel::TypePretense" xlink:title="Metamodel::TypePretense">
<ellipse fill="none" stroke="#6666ff" cx="1183.46" cy="31.0788" rx="114.28" ry="18"/>
<text text-anchor="middle" x="1183.46" y="34.7788" font-family="FreeSans" font-size="14.00" fill="#6666ff">Metamodel::TypePretense</text>
</a>
</g>
</g>
<!-- Metamodel::RolePunning -->
<g id="node25" class="node"><title>Metamodel::RolePunning</title>
<g id="a_node25"><a xlink:href="/type/Metamodel::RolePunning" xlink:title="Metamodel::RolePunning">
<ellipse fill="none" stroke="#6666ff" cx="1146.68" cy="-452.588" rx="109.681" ry="18"/>
<text text-anchor="middle" x="1146.68" y="-448.888" font-family="FreeSans" font-size="14.00" fill="#6666ff">Metamodel::RolePunning</text>
</a>
</g>
</g>
<!-- Metamodel::ParametricRoleHOW -->
<g id="node26" class="node"><title>Metamodel::ParametricRoleHOW</title>
<g id="a_node26"><a xlink:href="/type/Metamodel::ParametricRoleHOW" xlink:title="Metamodel::ParametricRoleHOW">
<ellipse fill="none" stroke="#000000" cx="654.598" cy="-119.686" rx="142.175" ry="18"/>
<text text-anchor="middle" x="654.598" y="-115.986" font-family="FreeSans" font-size="14.00" fill="#000000">Metamodel::ParametricRoleHOW</text>
</a>
</g>
</g>
<!-- Metamodel::ParametricRoleHOW&#45;&gt;Metamodel::PrivateMethodContainer -->
<g id="edge36" class="edge"><title>Metamodel::ParametricRoleHOW&#45;&gt;Metamodel::PrivateMethodContainer</title>
<path fill="none" stroke="#6666ff" d="M569.096,-134.107C494.4,-146.706 397.824,-162.995 397.824,-162.995 397.824,-162.995 233.658,-179.513 112.408,-191.713"/>
<polygon fill="#6666ff" stroke="#6666ff" points="111.888,-188.248 102.288,-192.732 112.589,-195.213 111.888,-188.248"/>
</g>
<!-- Metamodel::ParametricRoleHOW&#45;&gt;Any -->
<g id="edge4" class="edge"><title>Metamodel::ParametricRoleHOW&#45;&gt;Any</title>
<path fill="none" stroke="#000000" d="M648.838,-101.62C626.587,-31.8263 547.469,216.33 547.469,216.33 547.469,216.33 545.479,447.946 544.772,530.193"/>
<polygon fill="#000000" stroke="#000000" points="548.271,530.364 544.685,540.333 541.271,530.304 548.271,530.364"/>
</g>
<!-- Metamodel::ParametricRoleHOW&#45;&gt;Metamodel::Naming -->
<g id="edge32" class="edge"><title>Metamodel::ParametricRoleHOW&#45;&gt;Metamodel::Naming</title>
<path fill="none" stroke="#6666ff" d="M636.107,-137.759C572.769,-199.667 364.437,-403.292 291.387,-474.692"/>
<polygon fill="#6666ff" stroke="#6666ff" points="288.659,-472.464 283.954,-481.957 293.552,-477.47 288.659,-472.464"/>
</g>
<!-- Metamodel::ParametricRoleHOW&#45;&gt;Metamodel::Documenting -->
<g id="edge33" class="edge"><title>Metamodel::ParametricRoleHOW&#45;&gt;Metamodel::Documenting</title>
<path fill="none" stroke="#6666ff" d="M652.555,-137.723C645.659,-198.617 623.203,-396.898 614.831,-470.822"/>
<polygon fill="#6666ff" stroke="#6666ff" points="611.35,-470.465 613.702,-480.795 618.305,-471.253 611.35,-470.465"/>
</g>
<!-- Metamodel::ParametricRoleHOW&#45;&gt;Metamodel::Versioning -->
<g id="edge34" class="edge"><title>Metamodel::ParametricRoleHOW&#45;&gt;Metamodel::Versioning</title>
<path fill="none" stroke="#6666ff" d="M625.59,-137.326C518.61,-202.381 146.208,-428.843 26.69,-501.523"/>
<polygon fill="#6666ff" stroke="#6666ff" points="24.5986,-498.698 17.8729,-506.884 28.2357,-504.679 24.5986,-498.698"/>
</g>
<!-- Metamodel::ParametricRoleHOW&#45;&gt;Metamodel::Stashing -->
<g id="edge41" class="edge"><title>Metamodel::ParametricRoleHOW&#45;&gt;Metamodel::Stashing</title>
<path fill="none" stroke="#6666ff" d="M626.86,-101.873C527.783,-38.2491 191.414,177.757 81.1662,248.556"/>
<polygon fill="#6666ff" stroke="#6666ff" points="83.0216,251.524 72.7159,253.982 79.2391,245.634 83.0216,251.524"/>
</g>
<!-- Metamodel::ParametricRoleHOW&#45;&gt;Metamodel::AttributeContainer -->
<g id="edge38" class="edge"><title>Metamodel::ParametricRoleHOW&#45;&gt;Metamodel::AttributeContainer</title>
<path fill="none" stroke="#6666ff" d="M635.104,-101.622C580.307,-50.845 424.822,93.233 362.054,151.396"/>
<polygon fill="#6666ff" stroke="#6666ff" points="364.238,154.144 354.524,158.374 359.48,149.01 364.238,154.144"/>
</g>
<!-- Metamodel::ParametricRoleHOW&#45;&gt;Metamodel::MethodContainer -->
<g id="edge35" class="edge"><title>Metamodel::ParametricRoleHOW&#45;&gt;Metamodel::MethodContainer</title>
<path fill="none" stroke="#6666ff" d="M588.634,-103.652C474.36,-75.8753 240.343,-18.9929 120.557,10.1236"/>
<polygon fill="#6666ff" stroke="#6666ff" points="121.275,13.5511 110.731,12.5121 119.621,6.74914 121.275,13.5511"/>
</g>
<!-- Metamodel::ParametricRoleHOW&#45;&gt;Metamodel::MultiMethodContainer -->
<g id="edge37" class="edge"><title>Metamodel::ParametricRoleHOW&#45;&gt;Metamodel::MultiMethodContainer</title>
<path fill="none" stroke="#6666ff" d="M604.377,-102.726C449.962,-50.5773 -17.4177,107.264 -183.958,163.507"/>
<polygon fill="#6666ff" stroke="#6666ff" points="-182.953,166.861 -193.547,166.745 -185.193,160.229 -182.953,166.861"/>
</g>
<!-- Metamodel::ParametricRoleHOW&#45;&gt;Metamodel::RoleContainer -->
<g id="edge39" class="edge"><title>Metamodel::ParametricRoleHOW&#45;&gt;Metamodel::RoleContainer</title>
<path fill="none" stroke="#6666ff" d="M512.694,-121.221C327.099,-123.229 4.77958,-126.715 -172.529,-128.633"/>
<polygon fill="#6666ff" stroke="#6666ff" points="-172.728,-125.135 -182.689,-128.743 -172.652,-132.135 -172.728,-125.135"/>
</g>
<!-- Metamodel::ParametricRoleHOW&#45;&gt;Metamodel::MultipleInheritance -->
<g id="edge40" class="edge"><title>Metamodel::ParametricRoleHOW&#45;&gt;Metamodel::MultipleInheritance</title>
<path fill="none" stroke="#6666ff" d="M656.123,-101.622C660.787,-46.3623 674.89,120.724 680.559,187.886"/>
<polygon fill="#6666ff" stroke="#6666ff" points="684.071,187.878 681.424,198.137 677.095,188.467 684.071,187.878"/>
</g>
<!-- Metamodel::ParametricRoleHOW&#45;&gt;Metamodel::TypePretense -->
<g id="edge42" class="edge"><title>Metamodel::ParametricRoleHOW&#45;&gt;Metamodel::TypePretense</title>
<path fill="none" stroke="#6666ff" d="M712.455,-103.192C811.769,-74.8804 1014.03,-17.2204 1118.21,12.4787"/>
<polygon fill="#6666ff" stroke="#6666ff" points="1119.32,9.15609 1127.98,15.2636 1117.4,15.8879 1119.32,9.15609"/>
</g>
<!-- Metamodel::ParametricRoleHOW&#45;&gt;Metamodel::RolePunning -->
<g id="edge43" class="edge"><title>Metamodel::ParametricRoleHOW&#45;&gt;Metamodel::RolePunning</title>
<path fill="none" stroke="#6666ff" d="M681.055,-137.584C764.02,-193.711 1019.08,-366.267 1112.2,-429.259"/>
<polygon fill="#6666ff" stroke="#6666ff" points="1110.45,-432.301 1120.69,-435.006 1114.37,-426.503 1110.45,-432.301"/>
</g>
</g>
</svg>
