<?xml version="1.0" encoding="UTF-8" standalone="no"?>
<!DOCTYPE svg PUBLIC "-//W3C//DTD SVG 1.1//EN"
 "http://www.w3.org/Graphics/SVG/1.1/DTD/svg11.dtd">
<!-- Generated by graphviz version 2.38.0 (20140413.2041)
 -->
<!-- Title: perl6&#45;type&#45;graph Pages: 1 -->
<svg width="242pt" height="404pt"
 viewBox="0.00 0.00 242.19 404.00" xmlns="http://www.w3.org/2000/svg" xmlns:xlink="http://www.w3.org/1999/xlink">
<g id="graph0" class="graph" transform="scale(1 1) rotate(0) translate(4 400)">
<title>perl6&#45;type&#45;graph</title>
<polygon fill="white" stroke="none" points="-4,4 -4,-400 238.186,-400 238.186,4 -4,4"/>
<!-- X::Syntax::Malformed::Elsif -->
<g id="node1" class="node"><title>X::Syntax::Malformed::Elsif</title>
<g id="a_node1"><a xlink:href="/type/X::Syntax::Malformed::Elsif" xlink:title="X::Syntax::Malformed::Elsif">
<ellipse fill="none" stroke="#000000" cx="116.34" cy="-18" rx="116.18" ry="18"/>
<text text-anchor="middle" x="116.34" y="-14.3" font-family="FreeSans" font-size="14.00" fill="#000000">X::Syntax::Malformed::Elsif</text>
</a>
</g>
</g>
<!-- Exception -->
<g id="node4" class="node"><title>Exception</title>
<g id="a_node4"><a xlink:href="/type/Exception" xlink:title="Exception">
<ellipse fill="none" stroke="#000000" cx="116.34" cy="-234" rx="49.2915" ry="18"/>
<text text-anchor="middle" x="116.34" y="-230.3" font-family="FreeSans" font-size="14.00" fill="#000000">Exception</text>
</a>
</g>
</g>
<!-- X::Syntax::Malformed::Elsif&#45;&gt;Exception -->
<g id="edge1" class="edge"><title>X::Syntax::Malformed::Elsif&#45;&gt;Exception</title>
<path fill="none" stroke="#000000" d="M110.223,-36.0613C104.669,-51.5549 97.3397,-72 97.3397,-72 97.3397,-72 97.3397,-108 97.3397,-108 97.3397,-108 106.613,-169.008 112.203,-205.782"/>
<polygon fill="#000000" stroke="#000000" points="108.775,-206.521 113.738,-215.881 115.695,-205.469 108.775,-206.521"/>
</g>
<!-- X::Syntax -->
<g id="node6" class="node"><title>X::Syntax</title>
<g id="a_node6"><a xlink:href="/type/X::Syntax" xlink:title="X::Syntax">
<ellipse fill="none" stroke="#6666ff" cx="154.34" cy="-90" rx="48.1917" ry="18"/>
<text text-anchor="middle" x="154.34" y="-86.3" font-family="FreeSans" font-size="14.00" fill="#6666ff">X::Syntax</text>
</a>
</g>
</g>
<!-- X::Syntax::Malformed::Elsif&#45;&gt;X::Syntax -->
<g id="edge6" class="edge"><title>X::Syntax::Malformed::Elsif&#45;&gt;X::Syntax</title>
<path fill="none" stroke="#6666ff" d="M125.538,-35.945C129.973,-44.1134 135.388,-54.0884 140.321,-63.1756"/>
<polygon fill="#6666ff" stroke="#6666ff" points="137.379,-65.0923 145.226,-72.211 143.531,-61.7526 137.379,-65.0923"/>
</g>
<!-- Mu -->
<g id="node2" class="node"><title>Mu</title>
<g id="a_node2"><a xlink:href="/type/Mu" xlink:title="Mu">
<ellipse fill="none" stroke="#000000" cx="116.34" cy="-378" rx="27" ry="18"/>
<text text-anchor="middle" x="116.34" y="-374.3" font-family="FreeSans" font-size="14.00" fill="#000000">Mu</text>
</a>
</g>
</g>
<!-- Any -->
<g id="node3" class="node"><title>Any</title>
<g id="a_node3"><a xlink:href="/type/Any" xlink:title="Any">
<ellipse fill="none" stroke="#000000" cx="116.34" cy="-306" rx="27" ry="18"/>
<text text-anchor="middle" x="116.34" y="-302.3" font-family="FreeSans" font-size="14.00" fill="#000000">Any</text>
</a>
</g>
</g>
<!-- Any&#45;&gt;Mu -->
<g id="edge2" class="edge"><title>Any&#45;&gt;Mu</title>
<path fill="none" stroke="#000000" d="M116.34,-324.303C116.34,-332.017 116.34,-341.288 116.34,-349.888"/>
<polygon fill="#000000" stroke="#000000" points="112.84,-349.896 116.34,-359.896 119.84,-349.896 112.84,-349.896"/>
</g>
<!-- Exception&#45;&gt;Any -->
<g id="edge3" class="edge"><title>Exception&#45;&gt;Any</title>
<path fill="none" stroke="#000000" d="M116.34,-252.303C116.34,-260.017 116.34,-269.288 116.34,-277.888"/>
<polygon fill="#000000" stroke="#000000" points="112.84,-277.896 116.34,-287.896 119.84,-277.896 112.84,-277.896"/>
</g>
<!-- X::Comp -->
<g id="node5" class="node"><title>X::Comp</title>
<g id="a_node5"><a xlink:href="/type/X::Comp" xlink:title="X::Comp">
<ellipse fill="none" stroke="#6666ff" cx="189.34" cy="-162" rx="44.6926" ry="18"/>
<text text-anchor="middle" x="189.34" y="-158.3" font-family="FreeSans" font-size="14.00" fill="#6666ff">X::Comp</text>
</a>
</g>
</g>
<!-- X::Comp&#45;&gt;Exception -->
<g id="edge4" class="edge"><title>X::Comp&#45;&gt;Exception</title>
<path fill="none" stroke="#000000" d="M172.775,-178.884C163.229,-188.038 151.059,-199.707 140.466,-209.865"/>
<polygon fill="#000000" stroke="#000000" points="137.887,-207.489 133.092,-216.936 142.732,-212.541 137.887,-207.489"/>
</g>
<!-- X::Syntax&#45;&gt;Exception -->
<g id="edge5" class="edge"><title>X::Syntax&#45;&gt;Exception</title>
<path fill="none" stroke="#000000" d="M148.223,-108.061C142.669,-123.555 135.34,-144 135.34,-144 135.34,-144 127.69,-179.833 122.098,-206.025"/>
<polygon fill="#000000" stroke="#000000" points="118.668,-205.33 120.003,-215.84 125.514,-206.791 118.668,-205.33"/>
</g>
<!-- X::Syntax&#45;&gt;X::Comp -->
<g id="edge7" class="edge"><title>X::Syntax&#45;&gt;X::Comp</title>
<path fill="none" stroke="#6666ff" d="M162.812,-107.945C166.896,-116.113 171.884,-126.088 176.427,-135.176"/>
<polygon fill="#6666ff" stroke="#6666ff" points="173.342,-136.832 180.945,-144.211 179.603,-133.701 173.342,-136.832"/>
</g>
</g>
</svg>
