<?xml version="1.0" encoding="UTF-8" standalone="no"?>
<!DOCTYPE svg PUBLIC "-//W3C//DTD SVG 1.1//EN"
 "http://www.w3.org/Graphics/SVG/1.1/DTD/svg11.dtd">
<!-- Generated by graphviz version 2.38.0 (20140413.2041)
 -->
<!-- Title: perl6&#45;type&#45;graph Pages: 1 -->
<svg width="148pt" height="332pt"
 viewBox="0.00 0.00 148.39 332.00" xmlns="http://www.w3.org/2000/svg" xmlns:xlink="http://www.w3.org/1999/xlink">
<g id="graph0" class="graph" transform="scale(1 1) rotate(0) translate(4 328)">
<title>perl6&#45;type&#45;graph</title>
<polygon fill="white" stroke="none" points="-4,4 -4,-328 144.388,-328 144.388,4 -4,4"/>
<!-- IO::Spec::QNX -->
<g id="node1" class="node"><title>IO::Spec::QNX</title>
<g id="a_node1"><a xlink:href="/type/IO::Spec::QNX" xlink:title="IO::Spec::QNX">
<ellipse fill="none" stroke="#000000" cx="70.1938" cy="-18" rx="70.3881" ry="18"/>
<text text-anchor="middle" x="70.1938" y="-14.3" font-family="FreeSans" font-size="14.00" fill="#000000">IO::Spec::QNX</text>
</a>
</g>
</g>
<!-- IO::Spec::Unix -->
<g id="node5" class="node"><title>IO::Spec::Unix</title>
<g id="a_node5"><a xlink:href="/type/IO::Spec::Unix" xlink:title="IO::Spec::Unix">
<ellipse fill="none" stroke="#000000" cx="70.1938" cy="-90" rx="67.6881" ry="18"/>
<text text-anchor="middle" x="70.1938" y="-86.3" font-family="FreeSans" font-size="14.00" fill="#000000">IO::Spec::Unix</text>
</a>
</g>
</g>
<!-- IO::Spec::QNX&#45;&gt;IO::Spec::Unix -->
<g id="edge1" class="edge"><title>IO::Spec::QNX&#45;&gt;IO::Spec::Unix</title>
<path fill="none" stroke="#000000" d="M70.1938,-36.3034C70.1938,-44.0173 70.1938,-53.2875 70.1938,-61.8876"/>
<polygon fill="#000000" stroke="#000000" points="66.6939,-61.8956 70.1938,-71.8957 73.6939,-61.8957 66.6939,-61.8956"/>
</g>
<!-- Mu -->
<g id="node2" class="node"><title>Mu</title>
<g id="a_node2"><a xlink:href="/type/Mu" xlink:title="Mu">
<ellipse fill="none" stroke="#000000" cx="70.1938" cy="-306" rx="27" ry="18"/>
<text text-anchor="middle" x="70.1938" y="-302.3" font-family="FreeSans" font-size="14.00" fill="#000000">Mu</text>
</a>
</g>
</g>
<!-- Any -->
<g id="node3" class="node"><title>Any</title>
<g id="a_node3"><a xlink:href="/type/Any" xlink:title="Any">
<ellipse fill="none" stroke="#000000" cx="70.1938" cy="-234" rx="27" ry="18"/>
<text text-anchor="middle" x="70.1938" y="-230.3" font-family="FreeSans" font-size="14.00" fill="#000000">Any</text>
</a>
</g>
</g>
<!-- Any&#45;&gt;Mu -->
<g id="edge2" class="edge"><title>Any&#45;&gt;Mu</title>
<path fill="none" stroke="#000000" d="M70.1938,-252.303C70.1938,-260.017 70.1938,-269.288 70.1938,-277.888"/>
<polygon fill="#000000" stroke="#000000" points="66.6939,-277.896 70.1938,-287.896 73.6939,-277.896 66.6939,-277.896"/>
</g>
<!-- IO::Spec -->
<g id="node4" class="node"><title>IO::Spec</title>
<g id="a_node4"><a xlink:href="/type/IO::Spec" xlink:title="IO::Spec">
<ellipse fill="none" stroke="#000000" cx="70.1938" cy="-162" rx="45.4919" ry="18"/>
<text text-anchor="middle" x="70.1938" y="-158.3" font-family="FreeSans" font-size="14.00" fill="#000000">IO::Spec</text>
</a>
</g>
</g>
<!-- IO::Spec&#45;&gt;Any -->
<g id="edge3" class="edge"><title>IO::Spec&#45;&gt;Any</title>
<path fill="none" stroke="#000000" d="M70.1938,-180.303C70.1938,-188.017 70.1938,-197.288 70.1938,-205.888"/>
<polygon fill="#000000" stroke="#000000" points="66.6939,-205.896 70.1938,-215.896 73.6939,-205.896 66.6939,-205.896"/>
</g>
<!-- IO::Spec::Unix&#45;&gt;IO::Spec -->
<g id="edge4" class="edge"><title>IO::Spec::Unix&#45;&gt;IO::Spec</title>
<path fill="none" stroke="#000000" d="M70.1938,-108.303C70.1938,-116.017 70.1938,-125.288 70.1938,-133.888"/>
<polygon fill="#000000" stroke="#000000" points="66.6939,-133.896 70.1938,-143.896 73.6939,-133.896 66.6939,-133.896"/>
</g>
</g>
</svg>
