<?xml version="1.0" encoding="UTF-8" standalone="no"?>
<!DOCTYPE svg PUBLIC "-//W3C//DTD SVG 1.1//EN"
 "http://www.w3.org/Graphics/SVG/1.1/DTD/svg11.dtd">
<!-- Generated by graphviz version 2.38.0 (20140413.2041)
 -->
<!-- Title: perl6&#45;type&#45;graph Pages: 1 -->
<svg width="494pt" height="332pt"
 viewBox="0.00 0.00 493.59 332.00" xmlns="http://www.w3.org/2000/svg" xmlns:xlink="http://www.w3.org/1999/xlink">
<g id="graph0" class="graph" transform="scale(1 1) rotate(0) translate(4 328)">
<title>perl6&#45;type&#45;graph</title>
<polygon fill="white" stroke="none" points="-4,4 -4,-328 489.587,-328 489.587,4 -4,4"/>
<!-- IO::Spec -->
<g id="node1" class="node"><title>IO::Spec</title>
<g id="a_node1"><a xlink:href="/type/IO::Spec" xlink:title="IO::Spec">
<ellipse fill="none" stroke="#000000" cx="237.194" cy="-162" rx="45.4919" ry="18"/>
<text text-anchor="middle" x="237.194" y="-158.3" font-family="FreeSans" font-size="14.00" fill="#000000">IO::Spec</text>
</a>
</g>
</g>
<!-- Any -->
<g id="node3" class="node"><title>Any</title>
<g id="a_node3"><a xlink:href="/type/Any" xlink:title="Any">
<ellipse fill="none" stroke="#000000" cx="237.194" cy="-234" rx="27" ry="18"/>
<text text-anchor="middle" x="237.194" y="-230.3" font-family="FreeSans" font-size="14.00" fill="#000000">Any</text>
</a>
</g>
</g>
<!-- IO::Spec&#45;&gt;Any -->
<g id="edge1" class="edge"><title>IO::Spec&#45;&gt;Any</title>
<path fill="none" stroke="#000000" d="M237.194,-180.303C237.194,-188.017 237.194,-197.288 237.194,-205.888"/>
<polygon fill="#000000" stroke="#000000" points="233.694,-205.896 237.194,-215.896 240.694,-205.896 233.694,-205.896"/>
</g>
<!-- Mu -->
<g id="node2" class="node"><title>Mu</title>
<g id="a_node2"><a xlink:href="/type/Mu" xlink:title="Mu">
<ellipse fill="none" stroke="#000000" cx="237.194" cy="-306" rx="27" ry="18"/>
<text text-anchor="middle" x="237.194" y="-302.3" font-family="FreeSans" font-size="14.00" fill="#000000">Mu</text>
</a>
</g>
</g>
<!-- Any&#45;&gt;Mu -->
<g id="edge2" class="edge"><title>Any&#45;&gt;Mu</title>
<path fill="none" stroke="#000000" d="M237.194,-252.303C237.194,-260.017 237.194,-269.288 237.194,-277.888"/>
<polygon fill="#000000" stroke="#000000" points="233.694,-277.896 237.194,-287.896 240.694,-277.896 233.694,-277.896"/>
</g>
<!-- IO::Spec::Unix -->
<g id="node4" class="node"><title>IO::Spec::Unix</title>
<g id="a_node4"><a xlink:href="/type/IO::Spec::Unix" xlink:title="IO::Spec::Unix">
<ellipse fill="none" stroke="#000000" cx="237.194" cy="-90" rx="67.6881" ry="18"/>
<text text-anchor="middle" x="237.194" y="-86.3" font-family="FreeSans" font-size="14.00" fill="#000000">IO::Spec::Unix</text>
</a>
</g>
</g>
<!-- IO::Spec::Unix&#45;&gt;IO::Spec -->
<g id="edge3" class="edge"><title>IO::Spec::Unix&#45;&gt;IO::Spec</title>
<path fill="none" stroke="#000000" d="M237.194,-108.303C237.194,-116.017 237.194,-125.288 237.194,-133.888"/>
<polygon fill="#000000" stroke="#000000" points="233.694,-133.896 237.194,-143.896 240.694,-133.896 233.694,-133.896"/>
</g>
<!-- IO::Spec::QNX -->
<g id="node5" class="node"><title>IO::Spec::QNX</title>
<g id="a_node5"><a xlink:href="/type/IO::Spec::QNX" xlink:title="IO::Spec::QNX">
<ellipse fill="none" stroke="#000000" cx="70.1938" cy="-18" rx="70.3881" ry="18"/>
<text text-anchor="middle" x="70.1938" y="-14.3" font-family="FreeSans" font-size="14.00" fill="#000000">IO::Spec::QNX</text>
</a>
</g>
</g>
<!-- IO::Spec::QNX&#45;&gt;IO::Spec::Unix -->
<g id="edge4" class="edge"><title>IO::Spec::QNX&#45;&gt;IO::Spec::Unix</title>
<path fill="none" stroke="#000000" d="M105.202,-33.6743C130.784,-44.397 165.658,-59.0149 193.135,-70.5321"/>
<polygon fill="#000000" stroke="#000000" points="191.942,-73.8272 202.518,-74.4651 194.648,-67.3714 191.942,-73.8272"/>
</g>
<!-- IO::Spec::Cygwin -->
<g id="node6" class="node"><title>IO::Spec::Cygwin</title>
<g id="a_node6"><a xlink:href="/type/IO::Spec::Cygwin" xlink:title="IO::Spec::Cygwin">
<ellipse fill="none" stroke="#000000" cx="237.194" cy="-18" rx="79.0865" ry="18"/>
<text text-anchor="middle" x="237.194" y="-14.3" font-family="FreeSans" font-size="14.00" fill="#000000">IO::Spec::Cygwin</text>
</a>
</g>
</g>
<!-- IO::Spec::Cygwin&#45;&gt;IO::Spec::Unix -->
<g id="edge5" class="edge"><title>IO::Spec::Cygwin&#45;&gt;IO::Spec::Unix</title>
<path fill="none" stroke="#000000" d="M237.194,-36.3034C237.194,-44.0173 237.194,-53.2875 237.194,-61.8876"/>
<polygon fill="#000000" stroke="#000000" points="233.694,-61.8956 237.194,-71.8957 240.694,-61.8957 233.694,-61.8956"/>
</g>
<!-- IO::Spec::Win32 -->
<g id="node7" class="node"><title>IO::Spec::Win32</title>
<g id="a_node7"><a xlink:href="/type/IO::Spec::Win32" xlink:title="IO::Spec::Win32">
<ellipse fill="none" stroke="#000000" cx="410.194" cy="-18" rx="75.2868" ry="18"/>
<text text-anchor="middle" x="410.194" y="-14.3" font-family="FreeSans" font-size="14.00" fill="#000000">IO::Spec::Win32</text>
</a>
</g>
</g>
<!-- IO::Spec::Win32&#45;&gt;IO::Spec::Unix -->
<g id="edge6" class="edge"><title>IO::Spec::Win32&#45;&gt;IO::Spec::Unix</title>
<path fill="none" stroke="#000000" d="M373.505,-33.8452C346.772,-44.6622 310.409,-59.3753 281.964,-70.8848"/>
<polygon fill="#000000" stroke="#000000" points="280.604,-67.6596 272.647,-74.655 283.229,-74.1485 280.604,-67.6596"/>
</g>
</g>
</svg>
