<?xml version="1.0" encoding="UTF-8" standalone="no"?>
<!DOCTYPE svg PUBLIC "-//W3C//DTD SVG 1.1//EN"
 "http://www.w3.org/Graphics/SVG/1.1/DTD/svg11.dtd">
<!-- Generated by graphviz version 2.38.0 (20140413.2041)
 -->
<!-- Title: perl6&#45;type&#45;graph Pages: 1 -->
<svg width="266pt" height="404pt"
 viewBox="0.00 0.00 265.79 404.00" xmlns="http://www.w3.org/2000/svg" xmlns:xlink="http://www.w3.org/1999/xlink">
<g id="graph0" class="graph" transform="scale(1 1) rotate(0) translate(4 400)">
<title>perl6&#45;type&#45;graph</title>
<polygon fill="white" stroke="none" points="-4,4 -4,-400 261.788,-400 261.788,4 -4,4"/>
<!-- X::Syntax::VirtualCall -->
<g id="node1" class="node"><title>X::Syntax::VirtualCall</title>
<g id="a_node1"><a xlink:href="/type/X::Syntax::VirtualCall" xlink:title="X::Syntax::VirtualCall">
<ellipse fill="none" stroke="#000000" cx="92.9418" cy="-18" rx="92.8835" ry="18"/>
<text text-anchor="middle" x="92.9418" y="-14.3" font-family="FreeSans" font-size="14.00" fill="#000000">X::Syntax::VirtualCall</text>
</a>
</g>
</g>
<!-- Exception -->
<g id="node4" class="node"><title>Exception</title>
<g id="a_node4"><a xlink:href="/type/Exception" xlink:title="Exception">
<ellipse fill="none" stroke="#000000" cx="115.942" cy="-234" rx="49.2915" ry="18"/>
<text text-anchor="middle" x="115.942" y="-230.3" font-family="FreeSans" font-size="14.00" fill="#000000">Exception</text>
</a>
</g>
</g>
<!-- X::Syntax::VirtualCall&#45;&gt;Exception -->
<g id="edge1" class="edge"><title>X::Syntax::VirtualCall&#45;&gt;Exception</title>
<path fill="none" stroke="#000000" d="M90.9075,-36.1508C91.3523,-73.3384 100.583,-161.626 108.414,-206.228"/>
<polygon fill="#000000" stroke="#000000" points="104.976,-206.884 110.265,-216.065 111.855,-205.59 104.976,-206.884"/>
</g>
<!-- X::Syntax::VirtualCall&#45;&gt;Exception -->
<g id="edge2" class="edge"><title>X::Syntax::VirtualCall&#45;&gt;Exception</title>
<path fill="none" stroke="#000000" d="M98.6626,-36.1508C106.177,-73.1683 115.869,-160.819 117.691,-205.614"/>
<polygon fill="#000000" stroke="#000000" points="114.196,-205.87 117.975,-215.768 121.193,-205.673 114.196,-205.87"/>
</g>
<!-- X::Syntax -->
<g id="node6" class="node"><title>X::Syntax</title>
<g id="a_node6"><a xlink:href="/type/X::Syntax" xlink:title="X::Syntax">
<ellipse fill="none" stroke="#6666ff" cx="177.942" cy="-90" rx="48.1917" ry="18"/>
<text text-anchor="middle" x="177.942" y="-86.3" font-family="FreeSans" font-size="14.00" fill="#6666ff">X::Syntax</text>
</a>
</g>
</g>
<!-- X::Syntax::VirtualCall&#45;&gt;X::Syntax -->
<g id="edge7" class="edge"><title>X::Syntax::VirtualCall&#45;&gt;X::Syntax</title>
<path fill="none" stroke="#6666ff" d="M113.086,-35.589C124.442,-44.9415 138.776,-56.7459 151.079,-66.8774"/>
<polygon fill="#6666ff" stroke="#6666ff" points="148.874,-69.5958 158.818,-73.2511 153.324,-64.1922 148.874,-69.5958"/>
</g>
<!-- Mu -->
<g id="node2" class="node"><title>Mu</title>
<g id="a_node2"><a xlink:href="/type/Mu" xlink:title="Mu">
<ellipse fill="none" stroke="#000000" cx="115.942" cy="-378" rx="27" ry="18"/>
<text text-anchor="middle" x="115.942" y="-374.3" font-family="FreeSans" font-size="14.00" fill="#000000">Mu</text>
</a>
</g>
</g>
<!-- Any -->
<g id="node3" class="node"><title>Any</title>
<g id="a_node3"><a xlink:href="/type/Any" xlink:title="Any">
<ellipse fill="none" stroke="#000000" cx="115.942" cy="-306" rx="27" ry="18"/>
<text text-anchor="middle" x="115.942" y="-302.3" font-family="FreeSans" font-size="14.00" fill="#000000">Any</text>
</a>
</g>
</g>
<!-- Any&#45;&gt;Mu -->
<g id="edge3" class="edge"><title>Any&#45;&gt;Mu</title>
<path fill="none" stroke="#000000" d="M115.942,-324.303C115.942,-332.017 115.942,-341.288 115.942,-349.888"/>
<polygon fill="#000000" stroke="#000000" points="112.442,-349.896 115.942,-359.896 119.442,-349.896 112.442,-349.896"/>
</g>
<!-- Exception&#45;&gt;Any -->
<g id="edge4" class="edge"><title>Exception&#45;&gt;Any</title>
<path fill="none" stroke="#000000" d="M115.942,-252.303C115.942,-260.017 115.942,-269.288 115.942,-277.888"/>
<polygon fill="#000000" stroke="#000000" points="112.442,-277.896 115.942,-287.896 119.442,-277.896 112.442,-277.896"/>
</g>
<!-- X::Comp -->
<g id="node5" class="node"><title>X::Comp</title>
<g id="a_node5"><a xlink:href="/type/X::Comp" xlink:title="X::Comp">
<ellipse fill="none" stroke="#6666ff" cx="212.942" cy="-162" rx="44.6926" ry="18"/>
<text text-anchor="middle" x="212.942" y="-158.3" font-family="FreeSans" font-size="14.00" fill="#6666ff">X::Comp</text>
</a>
</g>
</g>
<!-- X::Comp&#45;&gt;Exception -->
<g id="edge5" class="edge"><title>X::Comp&#45;&gt;Exception</title>
<path fill="none" stroke="#000000" d="M191.894,-178.189C178.387,-187.937 160.643,-200.742 145.703,-211.523"/>
<polygon fill="#000000" stroke="#000000" points="143.344,-208.909 137.283,-217.599 147.44,-214.585 143.344,-208.909"/>
</g>
<!-- X::Syntax&#45;&gt;Exception -->
<g id="edge6" class="edge"><title>X::Syntax&#45;&gt;Exception</title>
<path fill="none" stroke="#000000" d="M170.586,-107.847C159.912,-132.294 140.03,-177.829 127.419,-206.714"/>
<polygon fill="#000000" stroke="#000000" points="124.082,-205.61 123.288,-216.175 130.497,-208.411 124.082,-205.61"/>
</g>
<!-- X::Syntax&#45;&gt;X::Comp -->
<g id="edge8" class="edge"><title>X::Syntax&#45;&gt;X::Comp</title>
<path fill="none" stroke="#6666ff" d="M186.414,-107.945C190.498,-116.113 195.486,-126.088 200.03,-135.176"/>
<polygon fill="#6666ff" stroke="#6666ff" points="196.945,-136.832 204.547,-144.211 203.206,-133.701 196.945,-136.832"/>
</g>
</g>
</svg>
