<?xml version="1.0" encoding="UTF-8" standalone="no"?>
<!DOCTYPE svg PUBLIC "-//W3C//DTD SVG 1.1//EN"
 "http://www.w3.org/Graphics/SVG/1.1/DTD/svg11.dtd">
<!-- Generated by graphviz version 2.38.0 (20140413.2041)
 -->
<!-- Title: perl6&#45;type&#45;graph Pages: 1 -->
<svg width="242pt" height="332pt"
 viewBox="0.00 0.00 241.98 332.00" xmlns="http://www.w3.org/2000/svg" xmlns:xlink="http://www.w3.org/1999/xlink">
<g id="graph0" class="graph" transform="scale(1 1) rotate(0) translate(4 328)">
<title>perl6&#45;type&#45;graph</title>
<polygon fill="white" stroke="none" points="-4,4 -4,-328 237.979,-328 237.979,4 -4,4"/>
<!-- X::Temporal::InvalidFormat -->
<g id="node1" class="node"><title>X::Temporal::InvalidFormat</title>
<g id="a_node1"><a xlink:href="/type/X::Temporal::InvalidFormat" xlink:title="X::Temporal::InvalidFormat">
<ellipse fill="none" stroke="#000000" cx="116.99" cy="-18" rx="116.979" ry="18"/>
<text text-anchor="middle" x="116.99" y="-14.3" font-family="FreeSans" font-size="14.00" fill="#000000">X::Temporal::InvalidFormat</text>
</a>
</g>
</g>
<!-- Exception -->
<g id="node4" class="node"><title>Exception</title>
<g id="a_node4"><a xlink:href="/type/Exception" xlink:title="Exception">
<ellipse fill="none" stroke="#000000" cx="116.99" cy="-162" rx="49.2915" ry="18"/>
<text text-anchor="middle" x="116.99" y="-158.3" font-family="FreeSans" font-size="14.00" fill="#000000">Exception</text>
</a>
</g>
</g>
<!-- X::Temporal::InvalidFormat&#45;&gt;Exception -->
<g id="edge1" class="edge"><title>X::Temporal::InvalidFormat&#45;&gt;Exception</title>
<path fill="none" stroke="#000000" d="M109.264,-36.0613C102.248,-51.5549 92.9896,-72 92.9896,-72 92.9896,-72 92.9896,-108 92.9896,-108 92.9896,-108 98.9845,-121.239 104.982,-134.483"/>
<polygon fill="#000000" stroke="#000000" points="101.95,-136.273 109.264,-143.939 108.327,-133.385 101.95,-136.273"/>
</g>
<!-- X::Temporal -->
<g id="node5" class="node"><title>X::Temporal</title>
<g id="a_node5"><a xlink:href="/type/X::Temporal" xlink:title="X::Temporal">
<ellipse fill="none" stroke="#6666ff" cx="160.99" cy="-90" rx="59.2899" ry="18"/>
<text text-anchor="middle" x="160.99" y="-86.3" font-family="FreeSans" font-size="14.00" fill="#6666ff">X::Temporal</text>
</a>
</g>
</g>
<!-- X::Temporal::InvalidFormat&#45;&gt;X::Temporal -->
<g id="edge5" class="edge"><title>X::Temporal::InvalidFormat&#45;&gt;X::Temporal</title>
<path fill="none" stroke="#6666ff" d="M127.641,-35.945C132.829,-44.1994 139.177,-54.2986 144.937,-63.4622"/>
<polygon fill="#6666ff" stroke="#6666ff" points="142.152,-65.6072 150.437,-72.211 148.078,-61.882 142.152,-65.6072"/>
</g>
<!-- Mu -->
<g id="node2" class="node"><title>Mu</title>
<g id="a_node2"><a xlink:href="/type/Mu" xlink:title="Mu">
<ellipse fill="none" stroke="#000000" cx="116.99" cy="-306" rx="27" ry="18"/>
<text text-anchor="middle" x="116.99" y="-302.3" font-family="FreeSans" font-size="14.00" fill="#000000">Mu</text>
</a>
</g>
</g>
<!-- Any -->
<g id="node3" class="node"><title>Any</title>
<g id="a_node3"><a xlink:href="/type/Any" xlink:title="Any">
<ellipse fill="none" stroke="#000000" cx="116.99" cy="-234" rx="27" ry="18"/>
<text text-anchor="middle" x="116.99" y="-230.3" font-family="FreeSans" font-size="14.00" fill="#000000">Any</text>
</a>
</g>
</g>
<!-- Any&#45;&gt;Mu -->
<g id="edge2" class="edge"><title>Any&#45;&gt;Mu</title>
<path fill="none" stroke="#000000" d="M116.99,-252.303C116.99,-260.017 116.99,-269.288 116.99,-277.888"/>
<polygon fill="#000000" stroke="#000000" points="113.49,-277.896 116.99,-287.896 120.49,-277.896 113.49,-277.896"/>
</g>
<!-- Exception&#45;&gt;Any -->
<g id="edge3" class="edge"><title>Exception&#45;&gt;Any</title>
<path fill="none" stroke="#000000" d="M116.99,-180.303C116.99,-188.017 116.99,-197.288 116.99,-205.888"/>
<polygon fill="#000000" stroke="#000000" points="113.49,-205.896 116.99,-215.896 120.49,-205.896 113.49,-205.896"/>
</g>
<!-- X::Temporal&#45;&gt;Exception -->
<g id="edge4" class="edge"><title>X::Temporal&#45;&gt;Exception</title>
<path fill="none" stroke="#000000" d="M150.338,-107.945C145.15,-116.199 138.802,-126.299 133.042,-135.462"/>
<polygon fill="#000000" stroke="#000000" points="129.901,-133.882 127.543,-144.211 135.828,-137.607 129.901,-133.882"/>
</g>
</g>
</svg>
