<?xml version="1.0" encoding="UTF-8" standalone="no"?>
<!DOCTYPE svg PUBLIC "-//W3C//DTD SVG 1.1//EN"
 "http://www.w3.org/Graphics/SVG/1.1/DTD/svg11.dtd">
<!-- Generated by graphviz version 2.38.0 (20140413.2041)
 -->
<!-- Title: perl6&#45;type&#45;graph Pages: 1 -->
<svg width="2328pt" height="1183pt"
 viewBox="0.00 0.00 2328.49 1183.24" xmlns="http://www.w3.org/2000/svg" xmlns:xlink="http://www.w3.org/1999/xlink">
<g id="graph0" class="graph" transform="scale(1 1) rotate(0) translate(1159.84 570.546)">
<title>perl6&#45;type&#45;graph</title>
<polygon fill="white" stroke="none" points="-1159.84,612.694 -1159.84,-570.546 1168.64,-570.546 1168.64,612.694 -1159.84,612.694"/>
<!-- Metamodel::MultiMethodContainer -->
<g id="node1" class="node"><title>Metamodel::MultiMethodContainer</title>
<g id="a_node1"><a xlink:href="/type/Metamodel::MultiMethodContainer" xlink:title="Metamodel::MultiMethodContainer">
<ellipse fill="none" stroke="#6666ff" cx="-29.4359" cy="37.3573" rx="146.474" ry="18"/>
<text text-anchor="middle" x="-29.4359" y="41.0573" font-family="FreeSans" font-size="14.00" fill="#6666ff">Metamodel::MultiMethodContainer</text>
</a>
</g>
</g>
<!-- Mu -->
<g id="node2" class="node"><title>Mu</title>
<g id="a_node2"><a xlink:href="/type/Mu" xlink:title="Mu">
<ellipse fill="none" stroke="#000000" cx="184.886" cy="590.694" rx="27" ry="18"/>
<text text-anchor="middle" x="184.886" y="594.394" font-family="FreeSans" font-size="14.00" fill="#000000">Mu</text>
</a>
</g>
</g>
<!-- Any -->
<g id="node3" class="node"><title>Any</title>
<g id="a_node3"><a xlink:href="/type/Any" xlink:title="Any">
<ellipse fill="none" stroke="#000000" cx="34.7696" cy="280.523" rx="27" ry="18"/>
<text text-anchor="middle" x="34.7696" y="284.223" font-family="FreeSans" font-size="14.00" fill="#000000">Any</text>
</a>
</g>
</g>
<!-- Any&#45;&gt;Mu -->
<g id="edge1" class="edge"><title>Any&#45;&gt;Mu</title>
<path fill="none" stroke="#000000" d="M43.2706,298.088C68.351,349.909 142.148,502.389 172.068,564.208"/>
<polygon fill="#000000" stroke="#000000" points="175.272,562.796 176.478,573.322 168.972,565.845 175.272,562.796"/>
</g>
<!-- Metamodel::Naming -->
<g id="node4" class="node"><title>Metamodel::Naming</title>
<g id="a_node4"><a xlink:href="/type/Metamodel::Naming" xlink:title="Metamodel::Naming">
<ellipse fill="none" stroke="#6666ff" cx="270.6" cy="24.0408" rx="90.1842" ry="18"/>
<text text-anchor="middle" x="270.6" y="27.7408" font-family="FreeSans" font-size="14.00" fill="#6666ff">Metamodel::Naming</text>
</a>
</g>
</g>
<!-- Metamodel::Documenting -->
<g id="node5" class="node"><title>Metamodel::Documenting</title>
<g id="a_node5"><a xlink:href="/type/Metamodel::Documenting" xlink:title="Metamodel::Documenting">
<ellipse fill="none" stroke="#6666ff" cx="558.536" cy="-529.454" rx="111.28" ry="18"/>
<text text-anchor="middle" x="558.536" y="-525.754" font-family="FreeSans" font-size="14.00" fill="#6666ff">Metamodel::Documenting</text>
</a>
</g>
</g>
<!-- Metamodel::Versioning -->
<g id="node6" class="node"><title>Metamodel::Versioning</title>
<g id="a_node6"><a xlink:href="/type/Metamodel::Versioning" xlink:title="Metamodel::Versioning">
<ellipse fill="none" stroke="#6666ff" cx="305.9" cy="-234.712" rx="100.983" ry="18"/>
<text text-anchor="middle" x="305.9" y="-231.012" font-family="FreeSans" font-size="14.00" fill="#6666ff">Metamodel::Versioning</text>
</a>
</g>
</g>
<!-- Metamodel::MethodContainer -->
<g id="node7" class="node"><title>Metamodel::MethodContainer</title>
<g id="a_node7"><a xlink:href="/type/Metamodel::MethodContainer" xlink:title="Metamodel::MethodContainer">
<ellipse fill="none" stroke="#6666ff" cx="-306.29" cy="30.7262" rx="127.277" ry="18"/>
<text text-anchor="middle" x="-306.29" y="34.4262" font-family="FreeSans" font-size="14.00" fill="#6666ff">Metamodel::MethodContainer</text>
</a>
</g>
</g>
<!-- Metamodel::PrivateMethodContainer -->
<g id="node8" class="node"><title>Metamodel::PrivateMethodContainer</title>
<g id="a_node8"><a xlink:href="/type/Metamodel::PrivateMethodContainer" xlink:title="Metamodel::PrivateMethodContainer">
<ellipse fill="none" stroke="#6666ff" cx="1009.96" cy="-468.35" rx="154.873" ry="18"/>
<text text-anchor="middle" x="1009.96" y="-464.65" font-family="FreeSans" font-size="14.00" fill="#6666ff">Metamodel::PrivateMethodContainer</text>
</a>
</g>
</g>
<!-- Metamodel::AttributeContainer -->
<g id="node9" class="node"><title>Metamodel::AttributeContainer</title>
<g id="a_node9"><a xlink:href="/type/Metamodel::AttributeContainer" xlink:title="Metamodel::AttributeContainer">
<ellipse fill="none" stroke="#6666ff" cx="-141.533" cy="590.348" rx="129.977" ry="18"/>
<text text-anchor="middle" x="-141.533" y="594.048" font-family="FreeSans" font-size="14.00" fill="#6666ff">Metamodel::AttributeContainer</text>
</a>
</g>
</g>
<!-- Metamodel::RoleContainer -->
<g id="node10" class="node"><title>Metamodel::RoleContainer</title>
<g id="a_node10"><a xlink:href="/type/Metamodel::RoleContainer" xlink:title="Metamodel::RoleContainer">
<ellipse fill="none" stroke="#6666ff" cx="308.385" cy="280.034" rx="115.88" ry="18"/>
<text text-anchor="middle" x="308.385" y="283.734" font-family="FreeSans" font-size="14.00" fill="#6666ff">Metamodel::RoleContainer</text>
</a>
</g>
</g>
<!-- Metamodel::MultipleInheritance -->
<g id="node11" class="node"><title>Metamodel::MultipleInheritance</title>
<g id="a_node11"><a xlink:href="/type/Metamodel::MultipleInheritance" xlink:title="Metamodel::MultipleInheritance">
<ellipse fill="none" stroke="#6666ff" cx="606.677" cy="-147.427" rx="133.776" ry="18"/>
<text text-anchor="middle" x="606.677" y="-143.727" font-family="FreeSans" font-size="14.00" fill="#6666ff">Metamodel::MultipleInheritance</text>
</a>
</g>
</g>
<!-- Metamodel::Stashing -->
<g id="node12" class="node"><title>Metamodel::Stashing</title>
<g id="a_node12"><a xlink:href="/type/Metamodel::Stashing" xlink:title="Metamodel::Stashing">
<ellipse fill="none" stroke="#6666ff" cx="39.6558" cy="-205.767" rx="93.6835" ry="18"/>
<text text-anchor="middle" x="39.6558" y="-202.067" font-family="FreeSans" font-size="14.00" fill="#6666ff">Metamodel::Stashing</text>
</a>
</g>
</g>
<!-- Metamodel::TypePretense -->
<g id="node13" class="node"><title>Metamodel::TypePretense</title>
<g id="a_node13"><a xlink:href="/type/Metamodel::TypePretense" xlink:title="Metamodel::TypePretense">
<ellipse fill="none" stroke="#6666ff" cx="1007.37" cy="507.606" rx="114.28" ry="18"/>
<text text-anchor="middle" x="1007.37" y="511.306" font-family="FreeSans" font-size="14.00" fill="#6666ff">Metamodel::TypePretense</text>
</a>
</g>
</g>
<!-- Metamodel::RolePunning -->
<g id="node14" class="node"><title>Metamodel::RolePunning</title>
<g id="a_node14"><a xlink:href="/type/Metamodel::RolePunning" xlink:title="Metamodel::RolePunning">
<ellipse fill="none" stroke="#6666ff" cx="1030.58" cy="18.7293" rx="109.681" ry="18"/>
<text text-anchor="middle" x="1030.58" y="22.4293" font-family="FreeSans" font-size="14.00" fill="#6666ff">Metamodel::RolePunning</text>
</a>
</g>
</g>
<!-- Metamodel::ParametricRoleHOW -->
<g id="node15" class="node"><title>Metamodel::ParametricRoleHOW</title>
<g id="a_node15"><a xlink:href="/type/Metamodel::ParametricRoleHOW" xlink:title="Metamodel::ParametricRoleHOW">
<ellipse fill="none" stroke="#000000" cx="609.769" cy="187.541" rx="142.175" ry="18"/>
<text text-anchor="middle" x="609.769" y="191.241" font-family="FreeSans" font-size="14.00" fill="#000000">Metamodel::ParametricRoleHOW</text>
</a>
</g>
</g>
<!-- Metamodel::ParametricRoleHOW&#45;&gt;Metamodel::MultiMethodContainer -->
<g id="edge11" class="edge"><title>Metamodel::ParametricRoleHOW&#45;&gt;Metamodel::MultiMethodContainer</title>
<path fill="none" stroke="#6666ff" d="M542.27,171.682C422.911,143.638 175.279,85.456 48.7196,55.7202"/>
<polygon fill="#6666ff" stroke="#6666ff" points="47.643,59.0627 38.7087,53.3682 49.2442,52.2483 47.643,59.0627"/>
</g>
<!-- Metamodel::ParametricRoleHOW&#45;&gt;Any -->
<g id="edge2" class="edge"><title>Metamodel::ParametricRoleHOW&#45;&gt;Any</title>
<path fill="none" stroke="#000000" d="M521.813,201.764C393.503,222.513 160.561,260.182 71.1015,274.648"/>
<polygon fill="#000000" stroke="#000000" points="71.5961,278.113 61.1656,276.255 70.4786,271.203 71.5961,278.113"/>
</g>
<!-- Metamodel::ParametricRoleHOW&#45;&gt;Metamodel::Naming -->
<g id="edge6" class="edge"><title>Metamodel::ParametricRoleHOW&#45;&gt;Metamodel::Naming</title>
<path fill="none" stroke="#6666ff" d="M573.472,170.044C510.634,139.752 381.84,77.6652 314.236,45.0758"/>
<polygon fill="#6666ff" stroke="#6666ff" points="312.604,48.1747 305.116,40.6795 315.644,41.8691 312.604,48.1747"/>
</g>
<!-- Metamodel::ParametricRoleHOW&#45;&gt;Metamodel::Documenting -->
<g id="edge7" class="edge"><title>Metamodel::ParametricRoleHOW&#45;&gt;Metamodel::Documenting</title>
<path fill="none" stroke="#6666ff" d="M602.318,169.535C573.534,99.9697 471.19,-147.372 471.19,-147.372 471.19,-147.372 531.98,-413.292 552.132,-501.444"/>
<polygon fill="#6666ff" stroke="#6666ff" points="548.741,-502.314 554.381,-511.283 555.565,-500.754 548.741,-502.314"/>
</g>
<!-- Metamodel::ParametricRoleHOW&#45;&gt;Metamodel::Versioning -->
<g id="edge8" class="edge"><title>Metamodel::ParametricRoleHOW&#45;&gt;Metamodel::Versioning</title>
<path fill="none" stroke="#6666ff" d="M596.712,169.397C548.693,102.67 381.74,-129.326 324.968,-208.215"/>
<polygon fill="#6666ff" stroke="#6666ff" points="321.909,-206.475 318.909,-216.636 327.591,-210.563 321.909,-206.475"/>
</g>
<!-- Metamodel::ParametricRoleHOW&#45;&gt;Metamodel::MethodContainer -->
<g id="edge9" class="edge"><title>Metamodel::ParametricRoleHOW&#45;&gt;Metamodel::MethodContainer</title>
<path fill="none" stroke="#6666ff" d="M524.821,172.999C352.413,143.486 -37.2393,76.7834 -214.907,46.3695"/>
<polygon fill="#6666ff" stroke="#6666ff" points="-215.745,49.777 -225.011,44.6398 -214.564,42.8774 -215.745,49.777"/>
</g>
<!-- Metamodel::ParametricRoleHOW&#45;&gt;Metamodel::PrivateMethodContainer -->
<g id="edge10" class="edge"><title>Metamodel::ParametricRoleHOW&#45;&gt;Metamodel::PrivateMethodContainer</title>
<path fill="none" stroke="#6666ff" d="M620.89,169.314C676.763,77.7416 926.78,-332.024 993.531,-441.426"/>
<polygon fill="#6666ff" stroke="#6666ff" points="990.695,-443.498 998.891,-450.211 996.67,-439.852 990.695,-443.498"/>
</g>
<!-- Metamodel::ParametricRoleHOW&#45;&gt;Metamodel::AttributeContainer -->
<g id="edge12" class="edge"><title>Metamodel::ParametricRoleHOW&#45;&gt;Metamodel::AttributeContainer</title>
<path fill="none" stroke="#6666ff" d="M577.003,205.108C456.061,269.951 34.7947,495.811 -99.8286,567.989"/>
<polygon fill="#6666ff" stroke="#6666ff" points="-98.551,571.275 -109.018,572.916 -101.859,565.106 -98.551,571.275"/>
</g>
<!-- Metamodel::ParametricRoleHOW&#45;&gt;Metamodel::RoleContainer -->
<g id="edge13" class="edge"><title>Metamodel::ParametricRoleHOW&#45;&gt;Metamodel::RoleContainer</title>
<path fill="none" stroke="#6666ff" d="M555.539,204.184C503.608,220.121 425.309,244.151 370.805,260.878"/>
<polygon fill="#6666ff" stroke="#6666ff" points="371.503,264.324 360.916,263.912 369.449,257.632 371.503,264.324"/>
</g>
<!-- Metamodel::ParametricRoleHOW&#45;&gt;Metamodel::MultipleInheritance -->
<g id="edge14" class="edge"><title>Metamodel::ParametricRoleHOW&#45;&gt;Metamodel::MultipleInheritance</title>
<path fill="none" stroke="#6666ff" d="M609.603,169.532C609.094,114.437 607.557,-52.1476 606.939,-119.108"/>
<polygon fill="#6666ff" stroke="#6666ff" points="603.437,-119.297 606.844,-129.329 610.437,-119.362 603.437,-119.297"/>
</g>
<!-- Metamodel::ParametricRoleHOW&#45;&gt;Metamodel::Stashing -->
<g id="edge15" class="edge"><title>Metamodel::ParametricRoleHOW&#45;&gt;Metamodel::Stashing</title>
<path fill="none" stroke="#6666ff" d="M583.791,169.619C491.188,105.734 177.241,-110.851 73.3499,-182.523"/>
<polygon fill="#6666ff" stroke="#6666ff" points="71.0557,-179.853 64.8119,-188.413 75.0307,-185.615 71.0557,-179.853"/>
</g>
<!-- Metamodel::ParametricRoleHOW&#45;&gt;Metamodel::TypePretense -->
<g id="edge16" class="edge"><title>Metamodel::ParametricRoleHOW&#45;&gt;Metamodel::TypePretense</title>
<path fill="none" stroke="#6666ff" d="M631.998,205.435C699.216,259.545 900.42,421.514 977.168,483.296"/>
<polygon fill="#6666ff" stroke="#6666ff" points="979.455,480.644 985.05,489.641 975.065,486.096 979.455,480.644"/>
</g>
<!-- Metamodel::ParametricRoleHOW&#45;&gt;Metamodel::RolePunning -->
<g id="edge17" class="edge"><title>Metamodel::ParametricRoleHOW&#45;&gt;Metamodel::RolePunning</title>
<path fill="none" stroke="#6666ff" d="M652.825,170.268C730.983,138.914 895.841,72.7799 979.525,39.2089"/>
<polygon fill="#6666ff" stroke="#6666ff" points="978.245,35.9514 988.829,35.4765 980.851,42.4481 978.245,35.9514"/>
</g>
<!-- Metamodel::BaseType -->
<g id="node16" class="node"><title>Metamodel::BaseType</title>
<g id="a_node16"><a xlink:href="/type/Metamodel::BaseType" xlink:title="Metamodel::BaseType">
<ellipse fill="none" stroke="#6666ff" cx="-505.987" cy="574.579" rx="99.3824" ry="18"/>
<text text-anchor="middle" x="-505.987" y="578.279" font-family="FreeSans" font-size="14.00" fill="#6666ff">Metamodel::BaseType</text>
</a>
</g>
</g>
<!-- Metamodel::MROBasedMethodDispatch -->
<g id="node17" class="node"><title>Metamodel::MROBasedMethodDispatch</title>
<g id="a_node17"><a xlink:href="/type/Metamodel::MROBasedMethodDispatch" xlink:title="Metamodel::MROBasedMethodDispatch">
<ellipse fill="none" stroke="#6666ff" cx="-986.207" cy="513.992" rx="169.77" ry="18"/>
<text text-anchor="middle" x="-986.207" y="517.692" font-family="FreeSans" font-size="14.00" fill="#6666ff">Metamodel::MROBasedMethodDispatch</text>
</a>
</g>
</g>
<!-- Metamodel::MROBasedTypeChecking -->
<g id="node18" class="node"><title>Metamodel::MROBasedTypeChecking</title>
<g id="a_node18"><a xlink:href="/type/Metamodel::MROBasedTypeChecking" xlink:title="Metamodel::MROBasedTypeChecking">
<ellipse fill="none" stroke="#6666ff" cx="-584.619" cy="-145.475" rx="163.271" ry="18"/>
<text text-anchor="middle" x="-584.619" y="-141.775" font-family="FreeSans" font-size="14.00" fill="#6666ff">Metamodel::MROBasedTypeChecking</text>
</a>
</g>
</g>
<!-- Metamodel::BUILDPLAN -->
<g id="node19" class="node"><title>Metamodel::BUILDPLAN</title>
<g id="a_node19"><a xlink:href="/type/Metamodel::BUILDPLAN" xlink:title="Metamodel::BUILDPLAN">
<ellipse fill="none" stroke="#6666ff" cx="-589.42" cy="204.83" rx="109.681" ry="18"/>
<text text-anchor="middle" x="-589.42" y="208.53" font-family="FreeSans" font-size="14.00" fill="#6666ff">Metamodel::BUILDPLAN</text>
</a>
</g>
</g>
<!-- Metamodel::BoolificationProtocol -->
<g id="node20" class="node"><title>Metamodel::BoolificationProtocol</title>
<g id="a_node20"><a xlink:href="/type/Metamodel::BoolificationProtocol" xlink:title="Metamodel::BoolificationProtocol">
<ellipse fill="none" stroke="#6666ff" cx="-1011.54" cy="31.6124" rx="139.175" ry="18"/>
<text text-anchor="middle" x="-1011.54" y="35.3124" font-family="FreeSans" font-size="14.00" fill="#6666ff">Metamodel::BoolificationProtocol</text>
</a>
</g>
</g>
<!-- Metamodel::EnumHOW -->
<g id="node21" class="node"><title>Metamodel::EnumHOW</title>
<g id="a_node21"><a xlink:href="/type/Metamodel::EnumHOW" xlink:title="Metamodel::EnumHOW">
<ellipse fill="none" stroke="#000000" cx="-252.44" cy="283.567" rx="104.782" ry="18"/>
<text text-anchor="middle" x="-252.44" y="287.267" font-family="FreeSans" font-size="14.00" fill="#000000">Metamodel::EnumHOW</text>
</a>
</g>
</g>
<!-- Metamodel::EnumHOW&#45;&gt;Metamodel::MultiMethodContainer -->
<g id="edge22" class="edge"><title>Metamodel::EnumHOW&#45;&gt;Metamodel::MultiMethodContainer</title>
<path fill="none" stroke="#6666ff" d="M-236.042,265.463C-196.896,222.243 -97.8888,112.933 -52.641,62.9771"/>
<polygon fill="#6666ff" stroke="#6666ff" points="-55.1653,60.5503 -45.858,55.4882 -49.9771,65.2496 -55.1653,60.5503"/>
</g>
<!-- Metamodel::EnumHOW&#45;&gt;Any -->
<g id="edge3" class="edge"><title>Metamodel::EnumHOW&#45;&gt;Any</title>
<path fill="none" stroke="#000000" d="M-147.938,282.459C-97.137,281.921 -39.2683,281.308 -2.51754,280.918"/>
<polygon fill="#000000" stroke="#000000" points="-2.31528,277.416 7.72128,280.81 -2.24104,284.416 -2.31528,277.416"/>
</g>
<!-- Metamodel::EnumHOW&#45;&gt;Metamodel::Naming -->
<g id="edge18" class="edge"><title>Metamodel::EnumHOW&#45;&gt;Metamodel::Naming</title>
<path fill="none" stroke="#6666ff" d="M-218.122,266.539C-125.999,220.828 126.577,95.5034 227.807,45.2743"/>
<polygon fill="#6666ff" stroke="#6666ff" points="226.322,42.1039 236.836,40.7943 229.434,48.3744 226.322,42.1039"/>
</g>
<!-- Metamodel::EnumHOW&#45;&gt;Metamodel::MethodContainer -->
<g id="edge21" class="edge"><title>Metamodel::EnumHOW&#45;&gt;Metamodel::MethodContainer</title>
<path fill="none" stroke="#6666ff" d="M-256.313,265.383C-265.608,221.739 -289.232,110.817 -300.343,58.6494"/>
<polygon fill="#6666ff" stroke="#6666ff" points="-303.792,59.2548 -302.452,48.7451 -296.946,57.7966 -303.792,59.2548"/>
</g>
<!-- Metamodel::EnumHOW&#45;&gt;Metamodel::AttributeContainer -->
<g id="edge20" class="edge"><title>Metamodel::EnumHOW&#45;&gt;Metamodel::AttributeContainer</title>
<path fill="none" stroke="#6666ff" d="M-245.835,301.839C-227.149,353.525 -173.829,501.015 -151.528,562.699"/>
<polygon fill="#6666ff" stroke="#6666ff" points="-148.212,561.578 -148.104,572.172 -154.795,563.958 -148.212,561.578"/>
</g>
<!-- Metamodel::EnumHOW&#45;&gt;Metamodel::RoleContainer -->
<g id="edge23" class="edge"><title>Metamodel::EnumHOW&#45;&gt;Metamodel::RoleContainer</title>
<path fill="none" stroke="#6666ff" d="M-153.104,289.288C-70.0095,294.073 35.0382,300.122 35.0382,300.122 35.0382,300.122 118.716,293.973 193.476,288.479"/>
<polygon fill="#6666ff" stroke="#6666ff" points="193.254,284.986 203.483,287.743 193.767,291.967 193.254,284.986"/>
</g>
<!-- Metamodel::EnumHOW&#45;&gt;Metamodel::Stashing -->
<g id="edge19" class="edge"><title>Metamodel::EnumHOW&#45;&gt;Metamodel::Stashing</title>
<path fill="none" stroke="#6666ff" d="M-246.913,265.469C-229.554,208.632 -177.271,37.4504 -177.271,37.4504 -177.271,37.4504 -39.0796,-117.49 16.7086,-180.039"/>
<polygon fill="#6666ff" stroke="#6666ff" points="14.4364,-182.75 23.7047,-187.883 19.6605,-178.09 14.4364,-182.75"/>
</g>
<!-- Metamodel::EnumHOW&#45;&gt;Metamodel::BaseType -->
<g id="edge24" class="edge"><title>Metamodel::EnumHOW&#45;&gt;Metamodel::BaseType</title>
<path fill="none" stroke="#6666ff" d="M-268.301,301.771C-311.892,351.804 -433.607,491.504 -483.856,549.178"/>
<polygon fill="#6666ff" stroke="#6666ff" points="-481.248,551.513 -490.456,556.754 -486.526,546.915 -481.248,551.513"/>
</g>
<!-- Metamodel::EnumHOW&#45;&gt;Metamodel::MROBasedMethodDispatch -->
<g id="edge25" class="edge"><title>Metamodel::EnumHOW&#45;&gt;Metamodel::MROBasedMethodDispatch</title>
<path fill="none" stroke="#6666ff" d="M-302.875,299.405C-432.725,340.182 -778.394,448.732 -922.126,493.869"/>
<polygon fill="#6666ff" stroke="#6666ff" points="-921.12,497.221 -931.709,496.878 -923.217,490.543 -921.12,497.221"/>
</g>
<!-- Metamodel::EnumHOW&#45;&gt;Metamodel::MROBasedTypeChecking -->
<g id="edge26" class="edge"><title>Metamodel::EnumHOW&#45;&gt;Metamodel::MROBasedTypeChecking</title>
<path fill="none" stroke="#6666ff" d="M-266.291,265.678C-318.418,198.35 -502.956,-39.9981 -564.486,-119.471"/>
<polygon fill="#6666ff" stroke="#6666ff" points="-567.355,-117.459 -570.71,-127.509 -561.82,-121.745 -567.355,-117.459"/>
</g>
<!-- Metamodel::EnumHOW&#45;&gt;Metamodel::BUILDPLAN -->
<g id="edge27" class="edge"><title>Metamodel::EnumHOW&#45;&gt;Metamodel::BUILDPLAN</title>
<path fill="none" stroke="#6666ff" d="M-314.64,269.034C-371.656,255.712 -456.117,235.977 -516.331,221.907"/>
<polygon fill="#6666ff" stroke="#6666ff" points="-517.212,225.296 -526.154,219.612 -515.619,218.479 -517.212,225.296"/>
</g>
<!-- Metamodel::EnumHOW&#45;&gt;Metamodel::BoolificationProtocol -->
<g id="edge28" class="edge"><title>Metamodel::EnumHOW&#45;&gt;Metamodel::BoolificationProtocol</title>
<path fill="none" stroke="#6666ff" d="M-297.798,267.316C-371.992,240.734 -511.14,190.88 -511.14,190.88 -511.14,190.88 -815.058,94.1489 -949.191,51.4569"/>
<polygon fill="#6666ff" stroke="#6666ff" points="-950.467,54.7238 -958.935,48.3557 -948.344,48.0535 -950.467,54.7238"/>
</g>
<!-- Metamodel::ConcreteRoleHOW -->
<g id="node22" class="node"><title>Metamodel::ConcreteRoleHOW</title>
<g id="a_node22"><a xlink:href="/type/Metamodel::ConcreteRoleHOW" xlink:title="Metamodel::ConcreteRoleHOW">
<ellipse fill="none" stroke="#000000" cx="543.8" cy="571.951" rx="135.676" ry="18"/>
<text text-anchor="middle" x="543.8" y="575.651" font-family="FreeSans" font-size="14.00" fill="#000000">Metamodel::ConcreteRoleHOW</text>
</a>
</g>
</g>
<!-- Metamodel::ConcreteRoleHOW&#45;&gt;Metamodel::MultiMethodContainer -->
<g id="edge33" class="edge"><title>Metamodel::ConcreteRoleHOW&#45;&gt;Metamodel::MultiMethodContainer</title>
<path fill="none" stroke="#6666ff" d="M522.268,554.13C445.69,490.755 191.095,280.051 191.095,280.051 191.095,280.051 50.6934,125.54 -6.05546,63.0875"/>
<polygon fill="#6666ff" stroke="#6666ff" points="-8.72553,65.3535 -12.8603,55.5988 -3.54487,60.646 -8.72553,65.3535"/>
</g>
<!-- Metamodel::ConcreteRoleHOW&#45;&gt;Any -->
<g id="edge4" class="edge"><title>Metamodel::ConcreteRoleHOW&#45;&gt;Any</title>
<path fill="none" stroke="#000000" d="M513.105,554.377C421.968,502.2 153.744,348.638 64.2299,297.39"/>
<polygon fill="#000000" stroke="#000000" points="62.3529,300.348 55.4136,292.342 65.8309,294.273 62.3529,300.348"/>
</g>
<!-- Metamodel::ConcreteRoleHOW&#45;&gt;Metamodel::Naming -->
<g id="edge29" class="edge"><title>Metamodel::ConcreteRoleHOW&#45;&gt;Metamodel::Naming</title>
<path fill="none" stroke="#6666ff" d="M536.411,553.689C510.55,489.777 425.674,280.017 425.674,280.017 425.674,280.017 326.365,116.089 286.691,50.6006"/>
<polygon fill="#6666ff" stroke="#6666ff" points="283.693,52.407 281.505,42.0405 289.68,48.7799 283.693,52.407"/>
</g>
<!-- Metamodel::ConcreteRoleHOW&#45;&gt;Metamodel::Versioning -->
<g id="edge30" class="edge"><title>Metamodel::ConcreteRoleHOW&#45;&gt;Metamodel::Versioning</title>
<path fill="none" stroke="#6666ff" d="M538.384,553.587C507.305,448.203 351.697,-79.4267 314.091,-206.939"/>
<polygon fill="#6666ff" stroke="#6666ff" points="310.676,-206.145 311.205,-216.726 317.39,-208.125 310.676,-206.145"/>
</g>
<!-- Metamodel::ConcreteRoleHOW&#45;&gt;Metamodel::MethodContainer -->
<g id="edge32" class="edge"><title>Metamodel::ConcreteRoleHOW&#45;&gt;Metamodel::MethodContainer</title>
<path fill="none" stroke="#6666ff" d="M516,554.251C390.014,474.04 -127.355,144.648 -269.824,53.9432"/>
<polygon fill="#6666ff" stroke="#6666ff" points="-271.716,56.8873 -278.272,48.5642 -267.957,50.9824 -271.716,56.8873"/>
</g>
<!-- Metamodel::ConcreteRoleHOW&#45;&gt;Metamodel::PrivateMethodContainer -->
<g id="edge31" class="edge"><title>Metamodel::ConcreteRoleHOW&#45;&gt;Metamodel::PrivateMethodContainer</title>
<path fill="none" stroke="#6666ff" d="M553.643,553.92C595.142,477.897 753.704,187.422 753.704,187.422 753.704,187.422 950.244,-315.538 999.077,-440.503"/>
<polygon fill="#6666ff" stroke="#6666ff" points="995.938,-442.086 1002.84,-450.126 1002.46,-439.538 995.938,-442.086"/>
</g>
<!-- Metamodel::ConcreteRoleHOW&#45;&gt;Metamodel::AttributeContainer -->
<g id="edge34" class="edge"><title>Metamodel::ConcreteRoleHOW&#45;&gt;Metamodel::AttributeContainer</title>
<path fill="none" stroke="#6666ff" d="M407.825,571.626C306.217,571.384 184.808,571.094 184.808,571.094 184.808,571.094 79.3259,577.317 -11.6989,582.688"/>
<polygon fill="#6666ff" stroke="#6666ff" points="-11.6796,586.193 -21.8685,583.288 -12.092,579.205 -11.6796,586.193"/>
</g>
<!-- Metamodel::ConcreteRoleHOW&#45;&gt;Metamodel::RoleContainer -->
<g id="edge35" class="edge"><title>Metamodel::ConcreteRoleHOW&#45;&gt;Metamodel::RoleContainer</title>
<path fill="none" stroke="#6666ff" d="M529.074,553.69C488.682,503.604 376.05,363.94 329.22,305.87"/>
<polygon fill="#6666ff" stroke="#6666ff" points="326.358,307.896 322.805,297.915 331.807,303.502 326.358,307.896"/>
</g>
<!-- Metamodel::ConcreteRoleHOW&#45;&gt;Metamodel::MultipleInheritance -->
<g id="edge36" class="edge"><title>Metamodel::ConcreteRoleHOW&#45;&gt;Metamodel::MultipleInheritance</title>
<path fill="none" stroke="#6666ff" d="M540.144,553.931C524.73,477.955 465.834,187.66 465.834,187.66 465.834,187.66 561.493,-39.9264 595.14,-119.979"/>
<polygon fill="#6666ff" stroke="#6666ff" points="592.004,-121.549 599.105,-129.411 598.457,-118.836 592.004,-121.549"/>
</g>
<!-- Metamodel::Finalization -->
<g id="node23" class="node"><title>Metamodel::Finalization</title>
<g id="a_node23"><a xlink:href="/type/Metamodel::Finalization" xlink:title="Metamodel::Finalization">
<ellipse fill="none" stroke="#6666ff" cx="-286.799" cy="-541.152" rx="103.982" ry="18"/>
<text text-anchor="middle" x="-286.799" y="-537.452" font-family="FreeSans" font-size="14.00" fill="#6666ff">Metamodel::Finalization</text>
</a>
</g>
</g>
<!-- Metamodel::DefaultParent -->
<g id="node24" class="node"><title>Metamodel::DefaultParent</title>
<g id="a_node24"><a xlink:href="/type/Metamodel::DefaultParent" xlink:title="Metamodel::DefaultParent">
<ellipse fill="none" stroke="#6666ff" cx="-32.8453" cy="-527.568" rx="113.18" ry="18"/>
<text text-anchor="middle" x="-32.8453" y="-523.868" font-family="FreeSans" font-size="14.00" fill="#6666ff">Metamodel::DefaultParent</text>
</a>
</g>
</g>
<!-- Metamodel::C3MRO -->
<g id="node25" class="node"><title>Metamodel::C3MRO</title>
<g id="a_node25"><a xlink:href="/type/Metamodel::C3MRO" xlink:title="Metamodel::C3MRO">
<ellipse fill="none" stroke="#6666ff" cx="-584.894" cy="-521.906" rx="92.0841" ry="18"/>
<text text-anchor="middle" x="-584.894" y="-518.206" font-family="FreeSans" font-size="14.00" fill="#6666ff">Metamodel::C3MRO</text>
</a>
</g>
</g>
<!-- Metamodel::Trusting -->
<g id="node26" class="node"><title>Metamodel::Trusting</title>
<g id="a_node26"><a xlink:href="/type/Metamodel::Trusting" xlink:title="Metamodel::Trusting">
<ellipse fill="none" stroke="#6666ff" cx="-1008.66" cy="-458.18" rx="91.784" ry="18"/>
<text text-anchor="middle" x="-1008.66" y="-454.48" font-family="FreeSans" font-size="14.00" fill="#6666ff">Metamodel::Trusting</text>
</a>
</g>
</g>
<!-- Metamodel::Mixins -->
<g id="node27" class="node"><title>Metamodel::Mixins</title>
<g id="a_node27"><a xlink:href="/type/Metamodel::Mixins" xlink:title="Metamodel::Mixins">
<ellipse fill="none" stroke="#6666ff" cx="228.916" cy="-548.546" rx="85.2851" ry="18"/>
<text text-anchor="middle" x="228.916" y="-544.846" font-family="FreeSans" font-size="14.00" fill="#6666ff">Metamodel::Mixins</text>
</a>
</g>
</g>
<!-- Metamodel::ClassHOW -->
<g id="node28" class="node"><title>Metamodel::ClassHOW</title>
<g id="a_node28"><a xlink:href="/type/Metamodel::ClassHOW" xlink:title="Metamodel::ClassHOW">
<ellipse fill="none" stroke="#000000" cx="-243.512" cy="-219.056" rx="103.982" ry="18"/>
<text text-anchor="middle" x="-243.512" y="-215.356" font-family="FreeSans" font-size="14.00" fill="#000000">Metamodel::ClassHOW</text>
</a>
</g>
</g>
<!-- Metamodel::ClassHOW&#45;&gt;Metamodel::MultiMethodContainer -->
<g id="edge45" class="edge"><title>Metamodel::ClassHOW&#45;&gt;Metamodel::MultiMethodContainer</title>
<path fill="none" stroke="#6666ff" d="M-228.459,-201.025C-191.149,-156.337 -94.2938,-40.3272 -50.952,11.5861"/>
<polygon fill="#6666ff" stroke="#6666ff" points="-48.1949,9.42727 -44.4727,19.3468 -53.5684,13.9135 -48.1949,9.42727"/>
</g>
<!-- Metamodel::ClassHOW&#45;&gt;Any -->
<g id="edge5" class="edge"><title>Metamodel::ClassHOW&#45;&gt;Any</title>
<path fill="none" stroke="#000000" d="M-238.644,-200.697C-223.354,-143.039 -177.303,30.6145 -177.303,30.6145 -177.303,30.6145 -177.271,37.4504 -177.271,37.4504 -177.271,37.4504 -38.3696,196.68 14.5897,257.39"/>
<polygon fill="#000000" stroke="#000000" points="17.2467,255.112 21.1829,264.948 11.9717,259.713 17.2467,255.112"/>
</g>
<!-- Metamodel::ClassHOW&#45;&gt;Metamodel::Naming -->
<g id="edge37" class="edge"><title>Metamodel::ClassHOW&#45;&gt;Metamodel::Naming</title>
<path fill="none" stroke="#6666ff" d="M-207.361,-201.962C-115.583,-158.565 126.222,-44.2279 226.28,3.08399"/>
<polygon fill="#6666ff" stroke="#6666ff" points="227.967,0.0098542 235.511,7.4487 224.974,6.33807 227.967,0.0098542"/>
</g>
<!-- Metamodel::ClassHOW&#45;&gt;Metamodel::Documenting -->
<g id="edge38" class="edge"><title>Metamodel::ClassHOW&#45;&gt;Metamodel::Documenting</title>
<path fill="none" stroke="#6666ff" d="M-200.957,-235.525C-65.1672,-288.077 357.572,-451.68 506.208,-509.203"/>
<polygon fill="#6666ff" stroke="#6666ff" points="505.007,-512.491 515.596,-512.837 507.534,-505.963 505.007,-512.491"/>
</g>
<!-- Metamodel::ClassHOW&#45;&gt;Metamodel::Versioning -->
<g id="edge39" class="edge"><title>Metamodel::ClassHOW&#45;&gt;Metamodel::Versioning</title>
<path fill="none" stroke="#6666ff" d="M-140.816,-221.982C-44.9759,-224.713 97.6052,-228.776 195.773,-231.574"/>
<polygon fill="#6666ff" stroke="#6666ff" points="195.929,-235.079 206.025,-231.866 196.128,-228.082 195.929,-235.079"/>
</g>
<!-- Metamodel::ClassHOW&#45;&gt;Metamodel::MethodContainer -->
<g id="edge43" class="edge"><title>Metamodel::ClassHOW&#45;&gt;Metamodel::MethodContainer</title>
<path fill="none" stroke="#6666ff" d="M-248.128,-200.689C-259.016,-157.368 -286.353,-48.5981 -299.293,2.88447"/>
<polygon fill="#6666ff" stroke="#6666ff" points="-295.92,3.82383 -301.752,12.6691 -302.709,2.11753 -295.92,3.82383"/>
</g>
<!-- Metamodel::ClassHOW&#45;&gt;Metamodel::PrivateMethodContainer -->
<g id="edge44" class="edge"><title>Metamodel::ClassHOW&#45;&gt;Metamodel::PrivateMethodContainer</title>
<path fill="none" stroke="#6666ff" d="M-175.23,-232.636C36.9314,-274.831 684.646,-403.651 921.777,-450.812"/>
<polygon fill="#6666ff" stroke="#6666ff" points="921.248,-454.275 931.738,-452.793 922.613,-447.41 921.248,-454.275"/>
</g>
<!-- Metamodel::ClassHOW&#45;&gt;Metamodel::AttributeContainer -->
<g id="edge41" class="edge"><title>Metamodel::ClassHOW&#45;&gt;Metamodel::AttributeContainer</title>
<path fill="none" stroke="#6666ff" d="M-238.644,-200.697C-223.354,-143.039 -177.303,30.6145 -177.303,30.6145 -177.303,30.6145 -177.271,37.4504 -177.271,37.4504 -177.271,37.4504 -146.2,283.529 -146.2,283.529 -146.2,283.529 -143.125,485.652 -141.967,561.793"/>
<polygon fill="#6666ff" stroke="#6666ff" points="-138.463,562.022 -141.811,572.074 -145.463,562.129 -138.463,562.022"/>
</g>
<!-- Metamodel::ClassHOW&#45;&gt;Metamodel::RoleContainer -->
<g id="edge46" class="edge"><title>Metamodel::ClassHOW&#45;&gt;Metamodel::RoleContainer</title>
<path fill="none" stroke="#6666ff" d="M-218.637,-201.438C-136.87,-143.528 118.399,37.2642 118.399,37.2642 118.399,37.2642 238.371,190.568 287.642,253.528"/>
<polygon fill="#6666ff" stroke="#6666ff" points="290.698,251.755 294.105,261.787 285.186,256.069 290.698,251.755"/>
</g>
<!-- Metamodel::ClassHOW&#45;&gt;Metamodel::MultipleInheritance -->
<g id="edge47" class="edge"><title>Metamodel::ClassHOW&#45;&gt;Metamodel::MultipleInheritance</title>
<path fill="none" stroke="#6666ff" d="M-159.253,-208.444C-98.5098,-200.794 -27.1789,-191.811 -27.1789,-191.811 -27.1789,-191.811 40.3266,-186.168 40.3266,-186.168 40.3266,-186.168 309.971,-167.723 477.147,-156.288"/>
<polygon fill="#6666ff" stroke="#6666ff" points="477.523,-159.77 487.261,-155.596 477.045,-152.786 477.523,-159.77"/>
</g>
<!-- Metamodel::ClassHOW&#45;&gt;Metamodel::Stashing -->
<g id="edge40" class="edge"><title>Metamodel::ClassHOW&#45;&gt;Metamodel::Stashing</title>
<path fill="none" stroke="#6666ff" d="M-142.88,-214.333C-116.521,-213.096 -88.09,-211.762 -61.6936,-210.524"/>
<polygon fill="#6666ff" stroke="#6666ff" points="-61.51,-214.019 -51.6851,-210.054 -61.8382,-207.027 -61.51,-214.019"/>
</g>
<!-- Metamodel::ClassHOW&#45;&gt;Metamodel::MROBasedMethodDispatch -->
<g id="edge50" class="edge"><title>Metamodel::ClassHOW&#45;&gt;Metamodel::MROBasedMethodDispatch</title>
<path fill="none" stroke="#6666ff" d="M-262.872,-201.107C-349.92,-120.402 -700.858,204.959 -700.858,204.959 -700.858,204.959 -894.372,414.535 -962.679,488.512"/>
<polygon fill="#6666ff" stroke="#6666ff" points="-960.276,491.069 -969.632,496.041 -965.419,486.32 -960.276,491.069"/>
</g>
<!-- Metamodel::ClassHOW&#45;&gt;Metamodel::MROBasedTypeChecking -->
<g id="edge51" class="edge"><title>Metamodel::ClassHOW&#45;&gt;Metamodel::MROBasedTypeChecking</title>
<path fill="none" stroke="#6666ff" d="M-308.878,-204.956C-363.281,-193.22 -441.113,-176.431 -500.221,-163.681"/>
<polygon fill="#6666ff" stroke="#6666ff" points="-499.77,-160.197 -510.283,-161.51 -501.246,-167.04 -499.77,-160.197"/>
</g>
<!-- Metamodel::ClassHOW&#45;&gt;Metamodel::BUILDPLAN -->
<g id="edge53" class="edge"><title>Metamodel::ClassHOW&#45;&gt;Metamodel::BUILDPLAN</title>
<path fill="none" stroke="#6666ff" d="M-258.154,-201.113C-312.621,-134.368 -503.684,99.7666 -568.061,178.656"/>
<polygon fill="#6666ff" stroke="#6666ff" points="-565.546,181.11 -574.58,186.645 -570.97,176.685 -565.546,181.11"/>
</g>
<!-- Metamodel::ClassHOW&#45;&gt;Metamodel::BoolificationProtocol -->
<g id="edge55" class="edge"><title>Metamodel::ClassHOW&#45;&gt;Metamodel::BoolificationProtocol</title>
<path fill="none" stroke="#6666ff" d="M-283.534,-202.384C-335.572,-180.706 -419.886,-145.583 -419.886,-145.583 -419.886,-145.583 -792.521,-33.9822 -946.336,12.0842"/>
<polygon fill="#6666ff" stroke="#6666ff" points="-945.561,15.5057 -956.145,15.0219 -947.57,8.79996 -945.561,15.5057"/>
</g>
<!-- Metamodel::ClassHOW&#45;&gt;Metamodel::Finalization -->
<g id="edge42" class="edge"><title>Metamodel::ClassHOW&#45;&gt;Metamodel::Finalization</title>
<path fill="none" stroke="#6666ff" d="M-245.964,-237.296C-253.166,-290.888 -274.301,-448.15 -282.996,-512.85"/>
<polygon fill="#6666ff" stroke="#6666ff" points="-286.511,-512.734 -284.375,-523.112 -279.574,-513.667 -286.511,-512.734"/>
</g>
<!-- Metamodel::ClassHOW&#45;&gt;Metamodel::DefaultParent -->
<g id="edge48" class="edge"><title>Metamodel::ClassHOW&#45;&gt;Metamodel::DefaultParent</title>
<path fill="none" stroke="#6666ff" d="M-231.275,-236.976C-195.787,-288.947 -92.698,-439.916 -50.8332,-501.225"/>
<polygon fill="#6666ff" stroke="#6666ff" points="-53.6456,-503.313 -45.116,-509.598 -47.8648,-499.366 -53.6456,-503.313"/>
</g>
<!-- Metamodel::ClassHOW&#45;&gt;Metamodel::C3MRO -->
<g id="edge49" class="edge"><title>Metamodel::ClassHOW&#45;&gt;Metamodel::C3MRO</title>
<path fill="none" stroke="#6666ff" d="M-263.845,-237.094C-322.191,-288.854 -490.245,-437.94 -557.038,-497.195"/>
<polygon fill="#6666ff" stroke="#6666ff" points="-559.51,-494.709 -564.668,-503.963 -554.865,-499.945 -559.51,-494.709"/>
</g>
<!-- Metamodel::ClassHOW&#45;&gt;Metamodel::Trusting -->
<g id="edge52" class="edge"><title>Metamodel::ClassHOW&#45;&gt;Metamodel::Trusting</title>
<path fill="none" stroke="#6666ff" d="M-294.012,-234.838C-430.293,-277.429 -805.051,-394.548 -950.181,-439.904"/>
<polygon fill="#6666ff" stroke="#6666ff" points="-951.315,-436.591 -959.816,-442.915 -949.227,-443.272 -951.315,-436.591"/>
</g>
<!-- Metamodel::ClassHOW&#45;&gt;Metamodel::Mixins -->
<g id="edge54" class="edge"><title>Metamodel::ClassHOW&#45;&gt;Metamodel::Mixins</title>
<path fill="none" stroke="#6666ff" d="M-218.446,-236.538C-139.156,-291.838 106.238,-462.985 195.78,-525.436"/>
<polygon fill="#6666ff" stroke="#6666ff" points="193.991,-528.455 204.195,-531.305 197.995,-522.713 193.991,-528.455"/>
</g>
</g>
</svg>
