<?xml version="1.0" encoding="UTF-8" standalone="no"?>
<!DOCTYPE svg PUBLIC "-//W3C//DTD SVG 1.1//EN"
 "http://www.w3.org/Graphics/SVG/1.1/DTD/svg11.dtd">
<!-- Generated by graphviz version 2.38.0 (20140413.2041)
 -->
<!-- Title: perl6&#45;type&#45;graph Pages: 1 -->
<svg width="1789pt" height="1051pt"
 viewBox="0.00 0.00 1788.62 1050.96" xmlns="http://www.w3.org/2000/svg" xmlns:xlink="http://www.w3.org/1999/xlink">
<g id="graph0" class="graph" transform="scale(1 1) rotate(0) translate(905.732 555.799)">
<title>perl6&#45;type&#45;graph</title>
<polygon fill="white" stroke="none" points="-905.732,495.16 -905.732,-555.799 882.884,-555.799 882.884,495.16 -905.732,495.16"/>
<!-- Metamodel::TypePretense -->
<g id="node1" class="node"><title>Metamodel::TypePretense</title>
<g id="a_node1"><a xlink:href="/type/Metamodel::TypePretense" xlink:title="Metamodel::TypePretense">
<ellipse fill="none" stroke="#6666ff" cx="137.316" cy="-85.5469" rx="114.28" ry="18"/>
<text text-anchor="middle" x="137.316" y="-81.8469" font-family="FreeSans" font-size="14.00" fill="#6666ff">Metamodel::TypePretense</text>
</a>
</g>
</g>
<!-- Mu -->
<g id="node2" class="node"><title>Mu</title>
<g id="a_node2"><a xlink:href="/type/Mu" xlink:title="Mu">
<ellipse fill="none" stroke="#000000" cx="756.375" cy="-62.9813" rx="27" ry="18"/>
<text text-anchor="middle" x="756.375" y="-59.2813" font-family="FreeSans" font-size="14.00" fill="#000000">Mu</text>
</a>
</g>
</g>
<!-- Any -->
<g id="node3" class="node"><title>Any</title>
<g id="a_node3"><a xlink:href="/type/Any" xlink:title="Any">
<ellipse fill="none" stroke="#000000" cx="447.728" cy="92.108" rx="27" ry="18"/>
<text text-anchor="middle" x="447.728" y="95.808" font-family="FreeSans" font-size="14.00" fill="#000000">Any</text>
</a>
</g>
</g>
<!-- Any&#45;&gt;Mu -->
<g id="edge1" class="edge"><title>Any&#45;&gt;Mu</title>
<path fill="none" stroke="#000000" d="M469.431,81.2024C523.334,54.1171 663.44,-16.2835 725.738,-47.5872"/>
<polygon fill="#000000" stroke="#000000" points="724.188,-50.7253 734.695,-52.0878 727.331,-44.4705 724.188,-50.7253"/>
</g>
<!-- Metamodel::Naming -->
<g id="node4" class="node"><title>Metamodel::Naming</title>
<g id="a_node4"><a xlink:href="/type/Metamodel::Naming" xlink:title="Metamodel::Naming">
<ellipse fill="none" stroke="#6666ff" cx="-168.067" cy="-91.4301" rx="90.1842" ry="18"/>
<text text-anchor="middle" x="-168.067" y="-87.7301" font-family="FreeSans" font-size="14.00" fill="#6666ff">Metamodel::Naming</text>
</a>
</g>
</g>
<!-- Metamodel::Documenting -->
<g id="node5" class="node"><title>Metamodel::Documenting</title>
<g id="a_node5"><a xlink:href="/type/Metamodel::Documenting" xlink:title="Metamodel::Documenting">
<ellipse fill="none" stroke="#6666ff" cx="178.396" cy="184.43" rx="111.28" ry="18"/>
<text text-anchor="middle" x="178.396" y="188.13" font-family="FreeSans" font-size="14.00" fill="#6666ff">Metamodel::Documenting</text>
</a>
</g>
</g>
<!-- Metamodel::Versioning -->
<g id="node6" class="node"><title>Metamodel::Versioning</title>
<g id="a_node6"><a xlink:href="/type/Metamodel::Versioning" xlink:title="Metamodel::Versioning">
<ellipse fill="none" stroke="#6666ff" cx="-729.727" cy="-472.203" rx="100.983" ry="18"/>
<text text-anchor="middle" x="-729.727" y="-468.503" font-family="FreeSans" font-size="14.00" fill="#6666ff">Metamodel::Versioning</text>
</a>
</g>
</g>
<!-- Metamodel::MethodContainer -->
<g id="node7" class="node"><title>Metamodel::MethodContainer</title>
<g id="a_node7"><a xlink:href="/type/Metamodel::MethodContainer" xlink:title="Metamodel::MethodContainer">
<ellipse fill="none" stroke="#6666ff" cx="-772.605" cy="391.026" rx="127.277" ry="18"/>
<text text-anchor="middle" x="-772.605" y="394.726" font-family="FreeSans" font-size="14.00" fill="#6666ff">Metamodel::MethodContainer</text>
</a>
</g>
</g>
<!-- Metamodel::PrivateMethodContainer -->
<g id="node8" class="node"><title>Metamodel::PrivateMethodContainer</title>
<g id="a_node8"><a xlink:href="/type/Metamodel::PrivateMethodContainer" xlink:title="Metamodel::PrivateMethodContainer">
<ellipse fill="none" stroke="#6666ff" cx="405.249" cy="455.343" rx="154.873" ry="18"/>
<text text-anchor="middle" x="405.249" y="459.043" font-family="FreeSans" font-size="14.00" fill="#6666ff">Metamodel::PrivateMethodContainer</text>
</a>
</g>
</g>
<!-- Metamodel::MultiMethodContainer -->
<g id="node9" class="node"><title>Metamodel::MultiMethodContainer</title>
<g id="a_node9"><a xlink:href="/type/Metamodel::MultiMethodContainer" xlink:title="Metamodel::MultiMethodContainer">
<ellipse fill="none" stroke="#6666ff" cx="-440.184" cy="459.302" rx="146.474" ry="18"/>
<text text-anchor="middle" x="-440.184" y="463.002" font-family="FreeSans" font-size="14.00" fill="#6666ff">Metamodel::MultiMethodContainer</text>
</a>
</g>
</g>
<!-- Metamodel::AttributeContainer -->
<g id="node10" class="node"><title>Metamodel::AttributeContainer</title>
<g id="a_node10"><a xlink:href="/type/Metamodel::AttributeContainer" xlink:title="Metamodel::AttributeContainer">
<ellipse fill="none" stroke="#6666ff" cx="105.152" cy="473.16" rx="129.977" ry="18"/>
<text text-anchor="middle" x="105.152" y="476.86" font-family="FreeSans" font-size="14.00" fill="#6666ff">Metamodel::AttributeContainer</text>
</a>
</g>
</g>
<!-- Metamodel::RoleContainer -->
<g id="node11" class="node"><title>Metamodel::RoleContainer</title>
<g id="a_node11"><a xlink:href="/type/Metamodel::RoleContainer" xlink:title="Metamodel::RoleContainer">
<ellipse fill="none" stroke="#6666ff" cx="-165.642" cy="456.192" rx="115.88" ry="18"/>
<text text-anchor="middle" x="-165.642" y="459.892" font-family="FreeSans" font-size="14.00" fill="#6666ff">Metamodel::RoleContainer</text>
</a>
</g>
</g>
<!-- Metamodel::MultipleInheritance -->
<g id="node12" class="node"><title>Metamodel::MultipleInheritance</title>
<g id="a_node12"><a xlink:href="/type/Metamodel::MultipleInheritance" xlink:title="Metamodel::MultipleInheritance">
<ellipse fill="none" stroke="#6666ff" cx="-767.844" cy="-46.7783" rx="133.776" ry="18"/>
<text text-anchor="middle" x="-767.844" y="-43.0783" font-family="FreeSans" font-size="14.00" fill="#6666ff">Metamodel::MultipleInheritance</text>
</a>
</g>
</g>
<!-- Metamodel::Stashing -->
<g id="node13" class="node"><title>Metamodel::Stashing</title>
<g id="a_node13"><a xlink:href="/type/Metamodel::Stashing" xlink:title="Metamodel::Stashing">
<ellipse fill="none" stroke="#6666ff" cx="-424.357" cy="-226.632" rx="93.6835" ry="18"/>
<text text-anchor="middle" x="-424.357" y="-222.932" font-family="FreeSans" font-size="14.00" fill="#6666ff">Metamodel::Stashing</text>
</a>
</g>
</g>
<!-- Metamodel::RolePunning -->
<g id="node14" class="node"><title>Metamodel::RolePunning</title>
<g id="a_node14"><a xlink:href="/type/Metamodel::RolePunning" xlink:title="Metamodel::RolePunning">
<ellipse fill="none" stroke="#6666ff" cx="-102.693" cy="165.018" rx="109.681" ry="18"/>
<text text-anchor="middle" x="-102.693" y="168.718" font-family="FreeSans" font-size="14.00" fill="#6666ff">Metamodel::RolePunning</text>
</a>
</g>
</g>
<!-- Metamodel::ParametricRoleHOW -->
<g id="node15" class="node"><title>Metamodel::ParametricRoleHOW</title>
<g id="a_node15"><a xlink:href="/type/Metamodel::ParametricRoleHOW" xlink:title="Metamodel::ParametricRoleHOW">
<ellipse fill="none" stroke="#000000" cx="-425.373" cy="117.545" rx="142.175" ry="18"/>
<text text-anchor="middle" x="-425.373" y="121.245" font-family="FreeSans" font-size="14.00" fill="#000000">Metamodel::ParametricRoleHOW</text>
</a>
</g>
</g>
<!-- Metamodel::ParametricRoleHOW&#45;&gt;Metamodel::TypePretense -->
<g id="edge17" class="edge"><title>Metamodel::ParametricRoleHOW&#45;&gt;Metamodel::TypePretense</title>
<path fill="none" stroke="#6666ff" d="M-377.884,100.404C-274.364,63.0408 -28.8233,-25.5822 81.7034,-65.4747"/>
<polygon fill="#6666ff" stroke="#6666ff" points="80.7399,-68.8479 91.3342,-68.9508 83.1164,-62.2636 80.7399,-68.8479"/>
</g>
<!-- Metamodel::ParametricRoleHOW&#45;&gt;Any -->
<g id="edge2" class="edge"><title>Metamodel::ParametricRoleHOW&#45;&gt;Any</title>
<path fill="none" stroke="#000000" d="M-286.546,113.5C-81.2776,107.52 291.722,96.653 410.409,93.1952"/>
<polygon fill="#000000" stroke="#000000" points="410.351,89.6955 420.449,92.9027 410.555,96.6926 410.351,89.6955"/>
</g>
<!-- Metamodel::ParametricRoleHOW&#45;&gt;Metamodel::Naming -->
<g id="edge7" class="edge"><title>Metamodel::ParametricRoleHOW&#45;&gt;Metamodel::Naming</title>
<path fill="none" stroke="#6666ff" d="M-403.436,99.7277C-357.292,62.2513 -250.149,-24.7665 -197.854,-67.2385"/>
<polygon fill="#6666ff" stroke="#6666ff" points="-199.919,-70.0706 -189.95,-73.6581 -195.506,-64.6369 -199.919,-70.0706"/>
</g>
<!-- Metamodel::ParametricRoleHOW&#45;&gt;Metamodel::Documenting -->
<g id="edge8" class="edge"><title>Metamodel::ParametricRoleHOW&#45;&gt;Metamodel::Documenting</title>
<path fill="none" stroke="#6666ff" d="M-306.407,127.493C-188.172,137.381 -24.3389,151.081 -24.3389,151.081 -24.3389,151.081 35.5102,160.926 90.1727,169.918"/>
<polygon fill="#6666ff" stroke="#6666ff" points="91.0041,166.508 100.303,171.584 89.8679,173.415 91.0041,166.508"/>
</g>
<!-- Metamodel::ParametricRoleHOW&#45;&gt;Metamodel::Versioning -->
<g id="edge9" class="edge"><title>Metamodel::ParametricRoleHOW&#45;&gt;Metamodel::Versioning</title>
<path fill="none" stroke="#6666ff" d="M-434.648,99.5728C-478.271,15.0451 -663.102,-343.104 -715.706,-445.035"/>
<polygon fill="#6666ff" stroke="#6666ff" points="-718.899,-443.59 -720.375,-454.082 -712.679,-446.8 -718.899,-443.59"/>
</g>
<!-- Metamodel::ParametricRoleHOW&#45;&gt;Metamodel::MethodContainer -->
<g id="edge10" class="edge"><title>Metamodel::ParametricRoleHOW&#45;&gt;Metamodel::MethodContainer</title>
<path fill="none" stroke="#6666ff" d="M-448.156,135.489C-508.615,183.106 -673.171,312.711 -741.851,366.804"/>
<polygon fill="#6666ff" stroke="#6666ff" points="-739.717,369.578 -749.738,373.016 -744.048,364.079 -739.717,369.578"/>
</g>
<!-- Metamodel::ParametricRoleHOW&#45;&gt;Metamodel::PrivateMethodContainer -->
<g id="edge11" class="edge"><title>Metamodel::ParametricRoleHOW&#45;&gt;Metamodel::PrivateMethodContainer</title>
<path fill="none" stroke="#6666ff" d="M-383.041,134.761C-243.777,191.396 199.941,371.848 352.859,434.037"/>
<polygon fill="#6666ff" stroke="#6666ff" points="354.56,430.95 362.505,437.96 351.923,437.435 354.56,430.95"/>
</g>
<!-- Metamodel::ParametricRoleHOW&#45;&gt;Metamodel::MultiMethodContainer -->
<g id="edge12" class="edge"><title>Metamodel::ParametricRoleHOW&#45;&gt;Metamodel::MultiMethodContainer</title>
<path fill="none" stroke="#6666ff" d="M-426.17,135.919C-428.611,192.262 -436.005,362.886 -438.952,430.887"/>
<polygon fill="#6666ff" stroke="#6666ff" points="-435.472,431.413 -439.401,441.252 -442.465,431.11 -435.472,431.413"/>
</g>
<!-- Metamodel::ParametricRoleHOW&#45;&gt;Metamodel::AttributeContainer -->
<g id="edge13" class="edge"><title>Metamodel::ParametricRoleHOW&#45;&gt;Metamodel::AttributeContainer</title>
<path fill="none" stroke="#6666ff" d="M-398.701,135.423C-310.588,194.486 -28.8194,383.358 70.278,449.784"/>
<polygon fill="#6666ff" stroke="#6666ff" points="72.3833,446.982 78.741,455.457 68.4857,452.796 72.3833,446.982"/>
</g>
<!-- Metamodel::ParametricRoleHOW&#45;&gt;Metamodel::RoleContainer -->
<g id="edge14" class="edge"><title>Metamodel::ParametricRoleHOW&#45;&gt;Metamodel::RoleContainer</title>
<path fill="none" stroke="#6666ff" d="M-411.409,135.752C-368.148,192.157 -236.234,364.152 -185.664,430.086"/>
<polygon fill="#6666ff" stroke="#6666ff" points="-182.669,428.241 -179.36,438.306 -188.223,432.501 -182.669,428.241"/>
</g>
<!-- Metamodel::ParametricRoleHOW&#45;&gt;Metamodel::MultipleInheritance -->
<g id="edge15" class="edge"><title>Metamodel::ParametricRoleHOW&#45;&gt;Metamodel::MultipleInheritance</title>
<path fill="none" stroke="#6666ff" d="M-461.7,100.115C-524.588,69.9401 -653.591,8.04248 -722.345,-24.947"/>
<polygon fill="#6666ff" stroke="#6666ff" points="-724.132,-21.9222 -731.633,-29.4037 -721.103,-28.2333 -724.132,-21.9222"/>
</g>
<!-- Metamodel::ParametricRoleHOW&#45;&gt;Metamodel::Stashing -->
<g id="edge16" class="edge"><title>Metamodel::ParametricRoleHOW&#45;&gt;Metamodel::Stashing</title>
<path fill="none" stroke="#6666ff" d="M-425.32,99.5249C-425.154,43.2013 -424.643,-129.846 -424.441,-198.317"/>
<polygon fill="#6666ff" stroke="#6666ff" points="-427.941,-198.385 -424.411,-208.375 -420.941,-198.365 -427.941,-198.385"/>
</g>
<!-- Metamodel::ParametricRoleHOW&#45;&gt;Metamodel::RolePunning -->
<g id="edge18" class="edge"><title>Metamodel::ParametricRoleHOW&#45;&gt;Metamodel::RolePunning</title>
<path fill="none" stroke="#6666ff" d="M-332.474,131.212C-289.119,137.591 -237.67,145.16 -194.457,151.518"/>
<polygon fill="#6666ff" stroke="#6666ff" points="-193.901,148.062 -184.517,152.98 -194.92,154.987 -193.901,148.062"/>
</g>
<!-- Metamodel::CurriedRoleHOW -->
<g id="node16" class="node"><title>Metamodel::CurriedRoleHOW</title>
<g id="a_node16"><a xlink:href="/type/Metamodel::CurriedRoleHOW" xlink:title="Metamodel::CurriedRoleHOW">
<ellipse fill="none" stroke="#000000" cx="750.196" cy="391.801" rx="128.877" ry="18"/>
<text text-anchor="middle" x="750.196" y="395.501" font-family="FreeSans" font-size="14.00" fill="#000000">Metamodel::CurriedRoleHOW</text>
</a>
</g>
</g>
<!-- Metamodel::CurriedRoleHOW&#45;&gt;Metamodel::TypePretense -->
<g id="edge20" class="edge"><title>Metamodel::CurriedRoleHOW&#45;&gt;Metamodel::TypePretense</title>
<path fill="none" stroke="#6666ff" d="M727.289,373.96C633.135,300.628 275.855,22.356 168.199,-61.493"/>
<polygon fill="#6666ff" stroke="#6666ff" points="165.751,-58.9635 160.012,-67.8695 170.052,-64.486 165.751,-58.9635"/>
</g>
<!-- Metamodel::CurriedRoleHOW&#45;&gt;Any -->
<g id="edge3" class="edge"><title>Metamodel::CurriedRoleHOW&#45;&gt;Any</title>
<path fill="none" stroke="#000000" d="M732.181,373.952C679.843,322.094 527.876,171.52 470.246,114.419"/>
<polygon fill="#000000" stroke="#000000" points="467.712,116.835 463.071,107.311 472.638,111.863 467.712,116.835"/>
</g>
<!-- Metamodel::CurriedRoleHOW&#45;&gt;Metamodel::RolePunning -->
<g id="edge19" class="edge"><title>Metamodel::CurriedRoleHOW&#45;&gt;Metamodel::RolePunning</title>
<path fill="none" stroke="#6666ff" d="M690.222,375.854C536.093,334.871 126.911,226.07 -35.1887,182.968"/>
<polygon fill="#6666ff" stroke="#6666ff" points="-36.2761,186.3 -45.0409,180.348 -34.4773,179.535 -36.2761,186.3"/>
</g>
<!-- Metamodel::MethodDelegation -->
<g id="node17" class="node"><title>Metamodel::MethodDelegation</title>
<g id="a_node17"><a xlink:href="/type/Metamodel::MethodDelegation" xlink:title="Metamodel::MethodDelegation">
<ellipse fill="none" stroke="#6666ff" cx="702.385" cy="-479.6" rx="131.077" ry="18"/>
<text text-anchor="middle" x="702.385" y="-475.9" font-family="FreeSans" font-size="14.00" fill="#6666ff">Metamodel::MethodDelegation</text>
</a>
</g>
</g>
<!-- Metamodel::ModuleHOW -->
<g id="node18" class="node"><title>Metamodel::ModuleHOW</title>
<g id="a_node18"><a xlink:href="/type/Metamodel::ModuleHOW" xlink:title="Metamodel::ModuleHOW">
<ellipse fill="none" stroke="#000000" cx="-17.5601" cy="-341.066" rx="111.28" ry="18"/>
<text text-anchor="middle" x="-17.5601" y="-337.366" font-family="FreeSans" font-size="14.00" fill="#000000">Metamodel::ModuleHOW</text>
</a>
</g>
</g>
<!-- Metamodel::ModuleHOW&#45;&gt;Metamodel::TypePretense -->
<g id="edge25" class="edge"><title>Metamodel::ModuleHOW&#45;&gt;Metamodel::TypePretense</title>
<path fill="none" stroke="#6666ff" d="M-6.66954,-323.098C20.1563,-278.84 89.5301,-164.385 121.165,-112.193"/>
<polygon fill="#6666ff" stroke="#6666ff" points="124.247,-113.861 126.437,-103.495 118.261,-110.232 124.247,-113.861"/>
</g>
<!-- Metamodel::ModuleHOW&#45;&gt;Any -->
<g id="edge4" class="edge"><title>Metamodel::ModuleHOW&#45;&gt;Any</title>
<path fill="none" stroke="#000000" d="M1.54718,-323.277C75.4489,-254.476 342.471,-5.8842 423.953,69.9741"/>
<polygon fill="#000000" stroke="#000000" points="426.742,67.7886 431.676,77.1643 421.972,72.912 426.742,67.7886"/>
</g>
<!-- Metamodel::ModuleHOW&#45;&gt;Metamodel::Naming -->
<g id="edge21" class="edge"><title>Metamodel::ModuleHOW&#45;&gt;Metamodel::Naming</title>
<path fill="none" stroke="#6666ff" d="M-28.3842,-323.112C-54.4634,-279.857 -120.897,-169.668 -151.8,-118.412"/>
<polygon fill="#6666ff" stroke="#6666ff" points="-148.979,-116.313 -157.139,-109.556 -154.973,-119.927 -148.979,-116.313"/>
</g>
<!-- Metamodel::ModuleHOW&#45;&gt;Metamodel::Documenting -->
<g id="edge22" class="edge"><title>Metamodel::ModuleHOW&#45;&gt;Metamodel::Documenting</title>
<path fill="none" stroke="#6666ff" d="M-14.7635,-322.685C-5.84716,-264.083 21.3264,-85.4852 21.3264,-85.4852 21.3264,-85.4852 122.854,88.9847 162.657,157.383"/>
<polygon fill="#6666ff" stroke="#6666ff" points="165.842,155.898 167.846,166.301 159.792,159.419 165.842,155.898"/>
</g>
<!-- Metamodel::ModuleHOW&#45;&gt;Metamodel::Versioning -->
<g id="edge23" class="edge"><title>Metamodel::ModuleHOW&#45;&gt;Metamodel::Versioning</title>
<path fill="none" stroke="#6666ff" d="M-91.0921,-354.606C-225.529,-379.361 -509.928,-431.729 -649.309,-457.395"/>
<polygon fill="#6666ff" stroke="#6666ff" points="-650.296,-454.018 -659.496,-459.271 -649.028,-460.902 -650.296,-454.018"/>
</g>
<!-- Metamodel::ModuleHOW&#45;&gt;Metamodel::Stashing -->
<g id="edge24" class="edge"><title>Metamodel::ModuleHOW&#45;&gt;Metamodel::Stashing</title>
<path fill="none" stroke="#6666ff" d="M-73.2705,-325.394C-148.602,-304.203 -282.575,-266.516 -361.447,-244.329"/>
<polygon fill="#6666ff" stroke="#6666ff" points="-360.681,-240.908 -371.255,-241.569 -362.577,-247.647 -360.681,-240.908"/>
</g>
<!-- Metamodel::ModuleHOW&#45;&gt;Metamodel::MethodDelegation -->
<g id="edge26" class="edge"><title>Metamodel::ModuleHOW&#45;&gt;Metamodel::MethodDelegation</title>
<path fill="none" stroke="#6666ff" d="M54.1031,-354.855C187.305,-380.486 472.502,-435.365 616.065,-462.99"/>
<polygon fill="#6666ff" stroke="#6666ff" points="615.672,-466.479 626.153,-464.931 616.995,-459.605 615.672,-466.479"/>
</g>
<!-- Metamodel::PackageHOW -->
<g id="node19" class="node"><title>Metamodel::PackageHOW</title>
<g id="a_node19"><a xlink:href="/type/Metamodel::PackageHOW" xlink:title="Metamodel::PackageHOW">
<ellipse fill="none" stroke="#000000" cx="392.214" cy="-243.764" rx="116.18" ry="18"/>
<text text-anchor="middle" x="392.214" y="-240.064" font-family="FreeSans" font-size="14.00" fill="#000000">Metamodel::PackageHOW</text>
</a>
</g>
</g>
<!-- Metamodel::PackageHOW&#45;&gt;Metamodel::TypePretense -->
<g id="edge30" class="edge"><title>Metamodel::PackageHOW&#45;&gt;Metamodel::TypePretense</title>
<path fill="none" stroke="#6666ff" d="M363.961,-226.227C317.74,-197.537 225.964,-140.572 174.509,-108.633"/>
<polygon fill="#6666ff" stroke="#6666ff" points="176.037,-105.462 165.695,-103.162 172.345,-111.409 176.037,-105.462"/>
</g>
<!-- Metamodel::PackageHOW&#45;&gt;Any -->
<g id="edge5" class="edge"><title>Metamodel::PackageHOW&#45;&gt;Any</title>
<path fill="none" stroke="#000000" d="M395.199,-225.706C404.329,-170.463 431.937,-3.42861 443.035,63.7128"/>
<polygon fill="#000000" stroke="#000000" points="446.551,63.5239 444.729,73.9608 439.645,64.6654 446.551,63.5239"/>
</g>
<!-- Metamodel::PackageHOW&#45;&gt;Metamodel::Naming -->
<g id="edge27" class="edge"><title>Metamodel::PackageHOW&#45;&gt;Metamodel::Naming</title>
<path fill="none" stroke="#6666ff" d="M334.626,-228.106C229.017,-199.392 5.14781,-138.525 -104.651,-108.672"/>
<polygon fill="#6666ff" stroke="#6666ff" points="-104.026,-105.215 -114.594,-105.969 -105.863,-111.97 -104.026,-105.215"/>
</g>
<!-- Metamodel::PackageHOW&#45;&gt;Metamodel::Documenting -->
<g id="edge28" class="edge"><title>Metamodel::PackageHOW&#45;&gt;Metamodel::Documenting</title>
<path fill="none" stroke="#6666ff" d="M383.163,-225.638C349.632,-158.488 232.347,76.387 192.086,157.015"/>
<polygon fill="#6666ff" stroke="#6666ff" points="195.168,158.678 187.569,166.061 188.905,155.551 195.168,158.678"/>
</g>
<!-- Metamodel::PackageHOW&#45;&gt;Metamodel::Stashing -->
<g id="edge29" class="edge"><title>Metamodel::PackageHOW&#45;&gt;Metamodel::Stashing</title>
<path fill="none" stroke="#6666ff" d="M276.519,-241.336C116.956,-237.989 -168.215,-232.006 -320.99,-228.8"/>
<polygon fill="#6666ff" stroke="#6666ff" points="-321.237,-225.294 -331.308,-228.584 -321.384,-232.293 -321.237,-225.294"/>
</g>
<!-- Metamodel::PackageHOW&#45;&gt;Metamodel::MethodDelegation -->
<g id="edge31" class="edge"><title>Metamodel::PackageHOW&#45;&gt;Metamodel::MethodDelegation</title>
<path fill="none" stroke="#6666ff" d="M415.527,-261.49C470.427,-303.232 607.92,-407.774 670.487,-455.346"/>
<polygon fill="#6666ff" stroke="#6666ff" points="668.723,-458.402 678.802,-461.669 672.96,-452.83 668.723,-458.402"/>
</g>
<!-- Metamodel::BoolificationProtocol -->
<g id="node20" class="node"><title>Metamodel::BoolificationProtocol</title>
<g id="a_node20"><a xlink:href="/type/Metamodel::BoolificationProtocol" xlink:title="Metamodel::BoolificationProtocol">
<ellipse fill="none" stroke="#6666ff" cx="-266.061" cy="-529.835" rx="139.175" ry="18"/>
<text text-anchor="middle" x="-266.061" y="-526.135" font-family="FreeSans" font-size="14.00" fill="#6666ff">Metamodel::BoolificationProtocol</text>
</a>
</g>
</g>
<!-- Metamodel::ParametricRoleGroupHOW -->
<g id="node21" class="node"><title>Metamodel::ParametricRoleGroupHOW</title>
<g id="a_node21"><a xlink:href="/type/Metamodel::ParametricRoleGroupHOW" xlink:title="Metamodel::ParametricRoleGroupHOW">
<ellipse fill="none" stroke="#000000" cx="224.47" cy="-533.799" rx="167.07" ry="18"/>
<text text-anchor="middle" x="224.47" y="-530.099" font-family="FreeSans" font-size="14.00" fill="#000000">Metamodel::ParametricRoleGroupHOW</text>
</a>
</g>
</g>
<!-- Metamodel::ParametricRoleGroupHOW&#45;&gt;Metamodel::TypePretense -->
<g id="edge34" class="edge"><title>Metamodel::ParametricRoleGroupHOW&#45;&gt;Metamodel::TypePretense</title>
<path fill="none" stroke="#6666ff" d="M220.945,-515.672C207.477,-446.403 159.2,-198.102 142.807,-113.791"/>
<polygon fill="#6666ff" stroke="#6666ff" points="146.228,-113.048 140.884,-103.9 139.357,-114.384 146.228,-113.048"/>
</g>
<!-- Metamodel::ParametricRoleGroupHOW&#45;&gt;Any -->
<g id="edge6" class="edge"><title>Metamodel::ParametricRoleGroupHOW&#45;&gt;Any</title>
<path fill="none" stroke="#000000" d="M227.585,-515.649C238.489,-452.13 274.276,-243.658 274.276,-243.658 274.276,-243.658 393.156,-13.5327 434.08,65.6888"/>
<polygon fill="#000000" stroke="#000000" points="437.408,64.5047 438.888,74.9957 431.189,67.7175 437.408,64.5047"/>
</g>
<!-- Metamodel::ParametricRoleGroupHOW&#45;&gt;Metamodel::Naming -->
<g id="edge32" class="edge"><title>Metamodel::ParametricRoleGroupHOW&#45;&gt;Metamodel::Naming</title>
<path fill="none" stroke="#6666ff" d="M212.307,-515.672C180.122,-467.706 95.1797,-341.116 95.1797,-341.116 95.1797,-341.116 -74.6844,-180.003 -141.514,-116.615"/>
<polygon fill="#6666ff" stroke="#6666ff" points="-139.471,-113.729 -149.135,-109.387 -144.288,-118.808 -139.471,-113.729"/>
</g>
<!-- Metamodel::ParametricRoleGroupHOW&#45;&gt;Metamodel::Stashing -->
<g id="edge33" class="edge"><title>Metamodel::ParametricRoleGroupHOW&#45;&gt;Metamodel::Stashing</title>
<path fill="none" stroke="#6666ff" d="M187.256,-516.181C75.3082,-463.183 -258.096,-305.343 -379.502,-247.867"/>
<polygon fill="#6666ff" stroke="#6666ff" points="-378.355,-244.538 -388.891,-243.422 -381.35,-250.865 -378.355,-244.538"/>
</g>
<!-- Metamodel::ParametricRoleGroupHOW&#45;&gt;Metamodel::RolePunning -->
<g id="edge35" class="edge"><title>Metamodel::ParametricRoleGroupHOW&#45;&gt;Metamodel::RolePunning</title>
<path fill="none" stroke="#6666ff" d="M215.887,-515.467C171.069,-419.735 -36.086,22.7468 -89.8937,137.68"/>
<polygon fill="#6666ff" stroke="#6666ff" points="-86.79,139.305 -94.1999,146.878 -93.1297,136.337 -86.79,139.305"/>
</g>
<!-- Metamodel::ParametricRoleGroupHOW&#45;&gt;Metamodel::BoolificationProtocol -->
<g id="edge36" class="edge"><title>Metamodel::ParametricRoleGroupHOW&#45;&gt;Metamodel::BoolificationProtocol</title>
<path fill="none" stroke="#6666ff" d="M57.7138,-532.452C1.10525,-531.994 -61.7411,-531.486 -116.889,-531.041"/>
<polygon fill="#6666ff" stroke="#6666ff" points="-117.065,-527.539 -127.093,-530.958 -117.122,-534.539 -117.065,-527.539"/>
</g>
</g>
</svg>
