<?xml version="1.0" encoding="UTF-8" standalone="no"?>
<!DOCTYPE svg PUBLIC "-//W3C//DTD SVG 1.1//EN"
 "http://www.w3.org/Graphics/SVG/1.1/DTD/svg11.dtd">
<!-- Generated by graphviz version 2.38.0 (20140413.2041)
 -->
<!-- Title: perl6&#45;type&#45;graph Pages: 1 -->
<svg width="403pt" height="476pt"
 viewBox="0.00 0.00 402.84 476.00" xmlns="http://www.w3.org/2000/svg" xmlns:xlink="http://www.w3.org/1999/xlink">
<g id="graph0" class="graph" transform="scale(1 1) rotate(0) translate(4 472)">
<title>perl6&#45;type&#45;graph</title>
<polygon fill="white" stroke="none" points="-4,4 -4,-472 398.84,-472 398.84,4 -4,4"/>
<!-- Callable -->
<g id="node1" class="node"><title>Callable</title>
<g id="a_node1"><a xlink:href="/type/Callable" xlink:title="Callable">
<ellipse fill="none" stroke="#6666ff" cx="141.544" cy="-378" rx="42.4939" ry="18"/>
<text text-anchor="middle" x="141.544" y="-374.3" font-family="FreeSans" font-size="14.00" fill="#6666ff">Callable</text>
</a>
</g>
</g>
<!-- Mu -->
<g id="node2" class="node"><title>Mu</title>
<g id="a_node2"><a xlink:href="/type/Mu" xlink:title="Mu">
<ellipse fill="none" stroke="#000000" cx="234.544" cy="-450" rx="27" ry="18"/>
<text text-anchor="middle" x="234.544" y="-446.3" font-family="FreeSans" font-size="14.00" fill="#000000">Mu</text>
</a>
</g>
</g>
<!-- Any -->
<g id="node3" class="node"><title>Any</title>
<g id="a_node3"><a xlink:href="/type/Any" xlink:title="Any">
<ellipse fill="none" stroke="#000000" cx="234.544" cy="-378" rx="27" ry="18"/>
<text text-anchor="middle" x="234.544" y="-374.3" font-family="FreeSans" font-size="14.00" fill="#000000">Any</text>
</a>
</g>
</g>
<!-- Any&#45;&gt;Mu -->
<g id="edge1" class="edge"><title>Any&#45;&gt;Mu</title>
<path fill="none" stroke="#000000" d="M234.544,-396.303C234.544,-404.017 234.544,-413.288 234.544,-421.888"/>
<polygon fill="#000000" stroke="#000000" points="231.044,-421.896 234.544,-431.896 238.044,-421.896 231.044,-421.896"/>
</g>
<!-- Code -->
<g id="node4" class="node"><title>Code</title>
<g id="a_node4"><a xlink:href="/type/Code" xlink:title="Code">
<ellipse fill="none" stroke="#000000" cx="129.544" cy="-306" rx="31.6951" ry="18"/>
<text text-anchor="middle" x="129.544" y="-302.3" font-family="FreeSans" font-size="14.00" fill="#000000">Code</text>
</a>
</g>
</g>
<!-- Code&#45;&gt;Callable -->
<g id="edge12" class="edge"><title>Code&#45;&gt;Callable</title>
<path fill="none" stroke="#6666ff" d="M132.449,-323.945C133.77,-331.654 135.368,-340.973 136.853,-349.636"/>
<polygon fill="#6666ff" stroke="#6666ff" points="133.443,-350.46 138.582,-359.725 140.342,-349.277 133.443,-350.46"/>
</g>
<!-- Code&#45;&gt;Any -->
<g id="edge2" class="edge"><title>Code&#45;&gt;Any</title>
<path fill="none" stroke="#000000" d="M149.294,-320.166C165.732,-331.126 189.304,-346.84 207.496,-358.968"/>
<polygon fill="#000000" stroke="#000000" points="205.678,-361.963 215.94,-364.598 209.561,-356.138 205.678,-361.963"/>
</g>
<!-- ForeignCode -->
<g id="node5" class="node"><title>ForeignCode</title>
<g id="a_node5"><a xlink:href="/type/ForeignCode" xlink:title="ForeignCode">
<ellipse fill="none" stroke="#000000" cx="241.544" cy="-306" rx="61.99" ry="18"/>
<text text-anchor="middle" x="241.544" y="-302.3" font-family="FreeSans" font-size="14.00" fill="#000000">ForeignCode</text>
</a>
</g>
</g>
<!-- ForeignCode&#45;&gt;Callable -->
<g id="edge13" class="edge"><title>ForeignCode&#45;&gt;Callable</title>
<path fill="none" stroke="#6666ff" d="M218.852,-322.884C204.786,-332.73 186.561,-345.488 171.339,-356.143"/>
<polygon fill="#6666ff" stroke="#6666ff" points="168.963,-353.534 162.778,-362.136 172.977,-359.269 168.963,-353.534"/>
</g>
<!-- ForeignCode&#45;&gt;Any -->
<g id="edge3" class="edge"><title>ForeignCode&#45;&gt;Any</title>
<path fill="none" stroke="#000000" d="M239.813,-324.303C239.042,-332.017 238.115,-341.288 237.255,-349.888"/>
<polygon fill="#000000" stroke="#000000" points="233.767,-349.597 236.254,-359.896 240.732,-350.294 233.767,-349.597"/>
</g>
<!-- WhateverCode -->
<g id="node6" class="node"><title>WhateverCode</title>
<g id="a_node6"><a xlink:href="/type/WhateverCode" xlink:title="WhateverCode">
<ellipse fill="none" stroke="#000000" cx="69.5438" cy="-234" rx="69.5877" ry="18"/>
<text text-anchor="middle" x="69.5438" y="-230.3" font-family="FreeSans" font-size="14.00" fill="#000000">WhateverCode</text>
</a>
</g>
</g>
<!-- WhateverCode&#45;&gt;Code -->
<g id="edge4" class="edge"><title>WhateverCode&#45;&gt;Code</title>
<path fill="none" stroke="#000000" d="M84.0682,-251.945C91.6548,-260.796 101.06,-271.769 109.345,-281.434"/>
<polygon fill="#000000" stroke="#000000" points="106.81,-283.856 115.976,-289.171 112.125,-279.3 106.81,-283.856"/>
</g>
<!-- Block -->
<g id="node7" class="node"><title>Block</title>
<g id="a_node7"><a xlink:href="/type/Block" xlink:title="Block">
<ellipse fill="none" stroke="#000000" cx="189.544" cy="-234" rx="32.4942" ry="18"/>
<text text-anchor="middle" x="189.544" y="-230.3" font-family="FreeSans" font-size="14.00" fill="#000000">Block</text>
</a>
</g>
</g>
<!-- Block&#45;&gt;Code -->
<g id="edge5" class="edge"><title>Block&#45;&gt;Code</title>
<path fill="none" stroke="#000000" d="M176.228,-250.535C168.382,-259.689 158.304,-271.446 149.521,-281.693"/>
<polygon fill="#000000" stroke="#000000" points="146.673,-279.638 142.823,-289.508 151.988,-284.193 146.673,-279.638"/>
</g>
<!-- Routine -->
<g id="node8" class="node"><title>Routine</title>
<g id="a_node8"><a xlink:href="/type/Routine" xlink:title="Routine">
<ellipse fill="none" stroke="#000000" cx="189.544" cy="-162" rx="40.8928" ry="18"/>
<text text-anchor="middle" x="189.544" y="-158.3" font-family="FreeSans" font-size="14.00" fill="#000000">Routine</text>
</a>
</g>
</g>
<!-- Routine&#45;&gt;Block -->
<g id="edge6" class="edge"><title>Routine&#45;&gt;Block</title>
<path fill="none" stroke="#000000" d="M189.544,-180.303C189.544,-188.017 189.544,-197.288 189.544,-205.888"/>
<polygon fill="#000000" stroke="#000000" points="186.044,-205.896 189.544,-215.896 193.044,-205.896 186.044,-205.896"/>
</g>
<!-- Macro -->
<g id="node9" class="node"><title>Macro</title>
<g id="a_node9"><a xlink:href="/type/Macro" xlink:title="Macro">
<ellipse fill="none" stroke="#000000" cx="58.5438" cy="-90" rx="35.9954" ry="18"/>
<text text-anchor="middle" x="58.5438" y="-86.3" font-family="FreeSans" font-size="14.00" fill="#000000">Macro</text>
</a>
</g>
</g>
<!-- Macro&#45;&gt;Routine -->
<g id="edge7" class="edge"><title>Macro&#45;&gt;Routine</title>
<path fill="none" stroke="#000000" d="M82.2669,-103.676C102.745,-114.619 132.573,-130.557 155.581,-142.852"/>
<polygon fill="#000000" stroke="#000000" points="154.191,-146.078 164.661,-147.704 157.49,-139.904 154.191,-146.078"/>
</g>
<!-- Sub -->
<g id="node10" class="node"><title>Sub</title>
<g id="a_node10"><a xlink:href="/type/Sub" xlink:title="Sub">
<ellipse fill="none" stroke="#000000" cx="139.544" cy="-90" rx="27" ry="18"/>
<text text-anchor="middle" x="139.544" y="-86.3" font-family="FreeSans" font-size="14.00" fill="#000000">Sub</text>
</a>
</g>
</g>
<!-- Sub&#45;&gt;Routine -->
<g id="edge8" class="edge"><title>Sub&#45;&gt;Routine</title>
<path fill="none" stroke="#000000" d="M150.64,-106.535C156.871,-115.258 164.791,-126.346 171.856,-136.238"/>
<polygon fill="#000000" stroke="#000000" points="169.121,-138.43 177.782,-144.533 174.817,-134.361 169.121,-138.43"/>
</g>
<!-- Submethod -->
<g id="node11" class="node"><title>Submethod</title>
<g id="a_node11"><a xlink:href="/type/Submethod" xlink:title="Submethod">
<ellipse fill="none" stroke="#000000" cx="240.544" cy="-90" rx="55.7903" ry="18"/>
<text text-anchor="middle" x="240.544" y="-86.3" font-family="FreeSans" font-size="14.00" fill="#000000">Submethod</text>
</a>
</g>
</g>
<!-- Submethod&#45;&gt;Routine -->
<g id="edge9" class="edge"><title>Submethod&#45;&gt;Routine</title>
<path fill="none" stroke="#000000" d="M228.458,-107.589C222.233,-116.132 214.518,-126.722 207.603,-136.213"/>
<polygon fill="#000000" stroke="#000000" points="204.603,-134.387 201.543,-144.53 210.261,-138.509 204.603,-134.387"/>
</g>
<!-- Method -->
<g id="node12" class="node"><title>Method</title>
<g id="a_node12"><a xlink:href="/type/Method" xlink:title="Method">
<ellipse fill="none" stroke="#000000" cx="354.544" cy="-90" rx="40.0939" ry="18"/>
<text text-anchor="middle" x="354.544" y="-86.3" font-family="FreeSans" font-size="14.00" fill="#000000">Method</text>
</a>
</g>
</g>
<!-- Method&#45;&gt;Routine -->
<g id="edge10" class="edge"><title>Method&#45;&gt;Routine</title>
<path fill="none" stroke="#000000" d="M326.179,-103.033C298.909,-114.603 257.508,-132.167 227.427,-144.928"/>
<polygon fill="#000000" stroke="#000000" points="225.929,-141.762 218.09,-148.889 228.663,-148.206 225.929,-141.762"/>
</g>
<!-- Regex -->
<g id="node13" class="node"><title>Regex</title>
<g id="a_node13"><a xlink:href="/type/Regex" xlink:title="Regex">
<ellipse fill="none" stroke="#000000" cx="354.544" cy="-18" rx="36.2938" ry="18"/>
<text text-anchor="middle" x="354.544" y="-14.3" font-family="FreeSans" font-size="14.00" fill="#000000">Regex</text>
</a>
</g>
</g>
<!-- Regex&#45;&gt;Method -->
<g id="edge11" class="edge"><title>Regex&#45;&gt;Method</title>
<path fill="none" stroke="#000000" d="M354.544,-36.3034C354.544,-44.0173 354.544,-53.2875 354.544,-61.8876"/>
<polygon fill="#000000" stroke="#000000" points="351.044,-61.8956 354.544,-71.8957 358.044,-61.8957 351.044,-61.8956"/>
</g>
</g>
</svg>
