<?xml version="1.0" encoding="UTF-8" standalone="no"?>
<!DOCTYPE svg PUBLIC "-//W3C//DTD SVG 1.1//EN"
 "http://www.w3.org/Graphics/SVG/1.1/DTD/svg11.dtd">
<!-- Generated by graphviz version 2.38.0 (20140413.2041)
 -->
<!-- Title: perl6&#45;type&#45;graph Pages: 1 -->
<svg width="657pt" height="332pt"
 viewBox="0.00 0.00 656.94 332.00" xmlns="http://www.w3.org/2000/svg" xmlns:xlink="http://www.w3.org/1999/xlink">
<g id="graph0" class="graph" transform="scale(1 1) rotate(0) translate(4 328)">
<title>perl6&#45;type&#45;graph</title>
<polygon fill="white" stroke="none" points="-4,4 -4,-328 652.944,-328 652.944,4 -4,4"/>
<!-- Int -->
<g id="node1" class="node"><title>Int</title>
<g id="a_node1"><a xlink:href="/type/Int" xlink:title="Int">
<ellipse fill="none" stroke="#000000" cx="363.097" cy="-90" rx="27" ry="18"/>
<text text-anchor="middle" x="363.097" y="-86.3" font-family="FreeSans" font-size="14.00" fill="#000000">Int</text>
</a>
</g>
</g>
<!-- Cool -->
<g id="node4" class="node"><title>Cool</title>
<g id="a_node4"><a xlink:href="/type/Cool" xlink:title="Cool">
<ellipse fill="none" stroke="#000000" cx="475.097" cy="-162" rx="28.6953" ry="18"/>
<text text-anchor="middle" x="475.097" y="-158.3" font-family="FreeSans" font-size="14.00" fill="#000000">Cool</text>
</a>
</g>
</g>
<!-- Int&#45;&gt;Cool -->
<g id="edge1" class="edge"><title>Int&#45;&gt;Cool</title>
<path fill="none" stroke="#000000" d="M382.096,-102.875C399.819,-113.951 426.492,-130.622 446.735,-143.274"/>
<polygon fill="#000000" stroke="#000000" points="444.914,-146.263 455.249,-148.595 448.624,-140.327 444.914,-146.263"/>
</g>
<!-- Real -->
<g id="node6" class="node"><title>Real</title>
<g id="a_node6"><a xlink:href="/type/Real" xlink:title="Real">
<ellipse fill="none" stroke="#6666ff" cx="363.097" cy="-162" rx="28.6953" ry="18"/>
<text text-anchor="middle" x="363.097" y="-158.3" font-family="FreeSans" font-size="14.00" fill="#6666ff">Real</text>
</a>
</g>
</g>
<!-- Int&#45;&gt;Real -->
<g id="edge13" class="edge"><title>Int&#45;&gt;Real</title>
<path fill="none" stroke="#6666ff" d="M363.097,-108.303C363.097,-116.017 363.097,-125.288 363.097,-133.888"/>
<polygon fill="#6666ff" stroke="#6666ff" points="359.597,-133.896 363.097,-143.896 366.597,-133.896 359.597,-133.896"/>
</g>
<!-- Mu -->
<g id="node2" class="node"><title>Mu</title>
<g id="a_node2"><a xlink:href="/type/Mu" xlink:title="Mu">
<ellipse fill="none" stroke="#000000" cx="475.097" cy="-306" rx="27" ry="18"/>
<text text-anchor="middle" x="475.097" y="-302.3" font-family="FreeSans" font-size="14.00" fill="#000000">Mu</text>
</a>
</g>
</g>
<!-- Any -->
<g id="node3" class="node"><title>Any</title>
<g id="a_node3"><a xlink:href="/type/Any" xlink:title="Any">
<ellipse fill="none" stroke="#000000" cx="475.097" cy="-234" rx="27" ry="18"/>
<text text-anchor="middle" x="475.097" y="-230.3" font-family="FreeSans" font-size="14.00" fill="#000000">Any</text>
</a>
</g>
</g>
<!-- Any&#45;&gt;Mu -->
<g id="edge2" class="edge"><title>Any&#45;&gt;Mu</title>
<path fill="none" stroke="#000000" d="M475.097,-252.303C475.097,-260.017 475.097,-269.288 475.097,-277.888"/>
<polygon fill="#000000" stroke="#000000" points="471.597,-277.896 475.097,-287.896 478.597,-277.896 471.597,-277.896"/>
</g>
<!-- Cool&#45;&gt;Any -->
<g id="edge3" class="edge"><title>Cool&#45;&gt;Any</title>
<path fill="none" stroke="#000000" d="M475.097,-180.303C475.097,-188.017 475.097,-197.288 475.097,-205.888"/>
<polygon fill="#000000" stroke="#000000" points="471.597,-205.896 475.097,-215.896 478.597,-205.896 471.597,-205.896"/>
</g>
<!-- Numeric -->
<g id="node5" class="node"><title>Numeric</title>
<g id="a_node5"><a xlink:href="/type/Numeric" xlink:title="Numeric">
<ellipse fill="none" stroke="#6666ff" cx="363.097" cy="-234" rx="44.393" ry="18"/>
<text text-anchor="middle" x="363.097" y="-230.3" font-family="FreeSans" font-size="14.00" fill="#6666ff">Numeric</text>
</a>
</g>
</g>
<!-- Real&#45;&gt;Numeric -->
<g id="edge14" class="edge"><title>Real&#45;&gt;Numeric</title>
<path fill="none" stroke="#6666ff" d="M363.097,-180.303C363.097,-188.017 363.097,-197.288 363.097,-205.888"/>
<polygon fill="#6666ff" stroke="#6666ff" points="359.597,-205.896 363.097,-215.896 366.597,-205.896 359.597,-205.896"/>
</g>
<!-- Signal -->
<g id="node7" class="node"><title>Signal</title>
<g id="a_node7"><a xlink:href="/type/Signal" xlink:title="Signal">
<ellipse fill="none" stroke="#33bb33" cx="35.0969" cy="-18" rx="35.194" ry="18"/>
<text text-anchor="middle" x="35.0969" y="-14.3" font-family="FreeSans" font-size="14.00" fill="#33bb33">Signal</text>
</a>
</g>
</g>
<!-- Signal&#45;&gt;Int -->
<g id="edge4" class="edge"><title>Signal&#45;&gt;Int</title>
<path fill="none" stroke="#000000" d="M62.2112,-29.476C71.2658,-32.9744 79.0969,-36 79.0969,-36 79.0969,-36 250.938,-68.069 327.282,-82.3163"/>
<polygon fill="#000000" stroke="#000000" points="326.92,-85.8091 337.393,-84.2031 328.205,-78.9279 326.92,-85.8091"/>
</g>
<!-- Order -->
<g id="node8" class="node"><title>Order</title>
<g id="a_node8"><a xlink:href="/type/Order" xlink:title="Order">
<ellipse fill="none" stroke="#33bb33" cx="122.097" cy="-18" rx="33.5952" ry="18"/>
<text text-anchor="middle" x="122.097" y="-14.3" font-family="FreeSans" font-size="14.00" fill="#33bb33">Order</text>
</a>
</g>
</g>
<!-- Order&#45;&gt;Int -->
<g id="edge5" class="edge"><title>Order&#45;&gt;Int</title>
<path fill="none" stroke="#000000" d="M148.595,-29.476C157.444,-32.9744 165.097,-36 165.097,-36 165.097,-36 271.664,-64.5257 328.436,-79.7222"/>
<polygon fill="#000000" stroke="#000000" points="327.855,-83.1898 338.42,-82.3947 329.666,-76.4279 327.855,-83.1898"/>
</g>
<!-- atomicint -->
<g id="node9" class="node"><title>atomicint</title>
<g id="a_node9"><a xlink:href="/type/atomicint" xlink:title="atomicint">
<ellipse fill="none" stroke="#000000" cx="220.097" cy="-18" rx="46.2923" ry="18"/>
<text text-anchor="middle" x="220.097" y="-14.3" font-family="FreeSans" font-size="14.00" fill="#000000">atomicint</text>
</a>
</g>
</g>
<!-- atomicint&#45;&gt;Int -->
<g id="edge6" class="edge"><title>atomicint&#45;&gt;Int</title>
<path fill="none" stroke="#000000" d="M247.669,-32.4967C271.993,-44.4039 307.393,-61.7323 332.566,-74.0549"/>
<polygon fill="#000000" stroke="#000000" points="331.149,-77.2577 341.669,-78.5108 334.226,-70.9706 331.149,-77.2577"/>
</g>
<!-- PromiseStatus -->
<g id="node10" class="node"><title>PromiseStatus</title>
<g id="a_node10"><a xlink:href="/type/PromiseStatus" xlink:title="PromiseStatus">
<ellipse fill="none" stroke="#33bb33" cx="352.097" cy="-18" rx="67.6881" ry="18"/>
<text text-anchor="middle" x="352.097" y="-14.3" font-family="FreeSans" font-size="14.00" fill="#33bb33">PromiseStatus</text>
</a>
</g>
</g>
<!-- PromiseStatus&#45;&gt;Int -->
<g id="edge7" class="edge"><title>PromiseStatus&#45;&gt;Int</title>
<path fill="none" stroke="#000000" d="M354.816,-36.3034C356.028,-44.0173 357.485,-53.2875 358.836,-61.8876"/>
<polygon fill="#000000" stroke="#000000" points="355.399,-62.5603 360.409,-71.8957 362.314,-61.4735 355.399,-62.5603"/>
</g>
<!-- Stringy -->
<g id="node11" class="node"><title>Stringy</title>
<g id="a_node11"><a xlink:href="/type/Stringy" xlink:title="Stringy">
<ellipse fill="none" stroke="#6666ff" cx="605.097" cy="-162" rx="38.1938" ry="18"/>
<text text-anchor="middle" x="605.097" y="-158.3" font-family="FreeSans" font-size="14.00" fill="#6666ff">Stringy</text>
</a>
</g>
</g>
<!-- Str -->
<g id="node12" class="node"><title>Str</title>
<g id="a_node12"><a xlink:href="/type/Str" xlink:title="Str">
<ellipse fill="none" stroke="#000000" cx="605.097" cy="-90" rx="27" ry="18"/>
<text text-anchor="middle" x="605.097" y="-86.3" font-family="FreeSans" font-size="14.00" fill="#000000">Str</text>
</a>
</g>
</g>
<!-- Str&#45;&gt;Cool -->
<g id="edge8" class="edge"><title>Str&#45;&gt;Cool</title>
<path fill="none" stroke="#000000" d="M584.784,-101.938C563.382,-113.462 529.45,-131.733 504.992,-144.902"/>
<polygon fill="#000000" stroke="#000000" points="503.273,-141.853 496.128,-149.675 506.592,-148.016 503.273,-141.853"/>
</g>
<!-- Str&#45;&gt;Stringy -->
<g id="edge15" class="edge"><title>Str&#45;&gt;Stringy</title>
<path fill="none" stroke="#6666ff" d="M605.097,-108.303C605.097,-116.017 605.097,-125.288 605.097,-133.888"/>
<polygon fill="#6666ff" stroke="#6666ff" points="601.597,-133.896 605.097,-143.896 608.597,-133.896 601.597,-133.896"/>
</g>
<!-- IntStr -->
<g id="node13" class="node"><title>IntStr</title>
<g id="a_node13"><a xlink:href="/type/IntStr" xlink:title="IntStr">
<ellipse fill="none" stroke="#000000" cx="617.097" cy="-18" rx="31.6951" ry="18"/>
<text text-anchor="middle" x="617.097" y="-14.3" font-family="FreeSans" font-size="14.00" fill="#000000">IntStr</text>
</a>
</g>
</g>
<!-- IntStr&#45;&gt;Int -->
<g id="edge9" class="edge"><title>IntStr&#45;&gt;Int</title>
<path fill="none" stroke="#000000" d="M591.831,-29.476C583.394,-32.9744 576.097,-36 576.097,-36 576.097,-36 458.173,-65.3425 397.812,-80.3621"/>
<polygon fill="#000000" stroke="#000000" points="396.807,-77.0054 387.948,-82.8165 398.497,-83.7982 396.807,-77.0054"/>
</g>
<!-- IntStr&#45;&gt;Str -->
<g id="edge10" class="edge"><title>IntStr&#45;&gt;Str</title>
<path fill="none" stroke="#000000" d="M614.192,-35.945C612.87,-43.6544 611.273,-52.9731 609.788,-61.6358"/>
<polygon fill="#000000" stroke="#000000" points="606.298,-61.2771 608.058,-71.7247 613.198,-62.4599 606.298,-61.2771"/>
</g>
<!-- Bool -->
<g id="node14" class="node"><title>Bool</title>
<g id="a_node14"><a xlink:href="/type/Bool" xlink:title="Bool">
<ellipse fill="none" stroke="#33bb33" cx="466.097" cy="-18" rx="28.6953" ry="18"/>
<text text-anchor="middle" x="466.097" y="-14.3" font-family="FreeSans" font-size="14.00" fill="#33bb33">Bool</text>
</a>
</g>
</g>
<!-- Bool&#45;&gt;Int -->
<g id="edge11" class="edge"><title>Bool&#45;&gt;Int</title>
<path fill="none" stroke="#000000" d="M447.205,-31.8391C431.134,-42.761 407.867,-58.574 389.876,-70.8008"/>
<polygon fill="#000000" stroke="#000000" points="387.826,-67.9621 381.522,-76.4778 391.76,-73.7517 387.826,-67.9621"/>
</g>
<!-- int -->
<g id="node15" class="node"><title>int</title>
<g id="a_node15"><a xlink:href="/type/int" xlink:title="int">
<ellipse fill="none" stroke="#000000" cx="540.097" cy="-18" rx="27" ry="18"/>
<text text-anchor="middle" x="540.097" y="-14.3" font-family="FreeSans" font-size="14.00" fill="#000000">int</text>
</a>
</g>
</g>
<!-- int&#45;&gt;Int -->
<g id="edge12" class="edge"><title>int&#45;&gt;Int</title>
<path fill="none" stroke="#000000" d="M518.739,-29.0854C510.988,-32.7461 504.097,-36 504.097,-36 504.097,-36 437.178,-61.1537 395.543,-76.8038"/>
<polygon fill="#000000" stroke="#000000" points="394.194,-73.5719 386.065,-80.3667 396.657,-80.1243 394.194,-73.5719"/>
</g>
</g>
</svg>
