<?xml version="1.0" encoding="UTF-8" standalone="no"?>
<!DOCTYPE svg PUBLIC "-//W3C//DTD SVG 1.1//EN"
 "http://www.w3.org/Graphics/SVG/1.1/DTD/svg11.dtd">
<!-- Generated by graphviz version 2.38.0 (20140413.2041)
 -->
<!-- Title: perl6&#45;type&#45;graph Pages: 1 -->
<svg width="146pt" height="332pt"
 viewBox="0.00 0.00 146.44 332.00" xmlns="http://www.w3.org/2000/svg" xmlns:xlink="http://www.w3.org/1999/xlink">
<g id="graph0" class="graph" transform="scale(1 1) rotate(0) translate(4 328)">
<title>perl6&#45;type&#45;graph</title>
<polygon fill="white" stroke="none" points="-4,4 -4,-328 142.441,-328 142.441,4 -4,4"/>
<!-- CX::Done -->
<g id="node1" class="node"><title>CX::Done</title>
<g id="a_node1"><a xlink:href="/type/CX::Done" xlink:title="CX::Done">
<ellipse fill="none" stroke="#000000" cx="49.3956" cy="-18" rx="48.9926" ry="18"/>
<text text-anchor="middle" x="49.3956" y="-14.3" font-family="FreeSans" font-size="14.00" fill="#000000">CX::Done</text>
</a>
</g>
</g>
<!-- Exception -->
<g id="node4" class="node"><title>Exception</title>
<g id="a_node4"><a xlink:href="/type/Exception" xlink:title="Exception">
<ellipse fill="none" stroke="#000000" cx="49.3956" cy="-162" rx="49.2915" ry="18"/>
<text text-anchor="middle" x="49.3956" y="-158.3" font-family="FreeSans" font-size="14.00" fill="#000000">Exception</text>
</a>
</g>
</g>
<!-- CX::Done&#45;&gt;Exception -->
<g id="edge1" class="edge"><title>CX::Done&#45;&gt;Exception</title>
<path fill="none" stroke="#000000" d="M42.9574,-36.0613C37.1108,-51.5549 29.3956,-72 29.3956,-72 29.3956,-72 29.3956,-108 29.3956,-108 29.3956,-108 34.3913,-121.239 39.3892,-134.483"/>
<polygon fill="#000000" stroke="#000000" points="36.1522,-135.818 42.9574,-143.939 42.7014,-133.347 36.1522,-135.818"/>
</g>
<!-- X::Control -->
<g id="node5" class="node"><title>X::Control</title>
<g id="a_node5"><a xlink:href="/type/X::Control" xlink:title="X::Control">
<ellipse fill="none" stroke="#6666ff" cx="88.3956" cy="-90" rx="50.0912" ry="18"/>
<text text-anchor="middle" x="88.3956" y="-86.3" font-family="FreeSans" font-size="14.00" fill="#6666ff">X::Control</text>
</a>
</g>
</g>
<!-- CX::Done&#45;&gt;X::Control -->
<g id="edge5" class="edge"><title>CX::Done&#45;&gt;X::Control</title>
<path fill="none" stroke="#6666ff" d="M58.8364,-35.945C63.4353,-44.1994 69.062,-54.2986 74.1674,-63.4622"/>
<polygon fill="#6666ff" stroke="#6666ff" points="71.1172,-65.1788 79.0417,-72.211 77.2322,-61.7718 71.1172,-65.1788"/>
</g>
<!-- Mu -->
<g id="node2" class="node"><title>Mu</title>
<g id="a_node2"><a xlink:href="/type/Mu" xlink:title="Mu">
<ellipse fill="none" stroke="#000000" cx="49.3956" cy="-306" rx="27" ry="18"/>
<text text-anchor="middle" x="49.3956" y="-302.3" font-family="FreeSans" font-size="14.00" fill="#000000">Mu</text>
</a>
</g>
</g>
<!-- Any -->
<g id="node3" class="node"><title>Any</title>
<g id="a_node3"><a xlink:href="/type/Any" xlink:title="Any">
<ellipse fill="none" stroke="#000000" cx="49.3956" cy="-234" rx="27" ry="18"/>
<text text-anchor="middle" x="49.3956" y="-230.3" font-family="FreeSans" font-size="14.00" fill="#000000">Any</text>
</a>
</g>
</g>
<!-- Any&#45;&gt;Mu -->
<g id="edge2" class="edge"><title>Any&#45;&gt;Mu</title>
<path fill="none" stroke="#000000" d="M49.3956,-252.303C49.3956,-260.017 49.3956,-269.288 49.3956,-277.888"/>
<polygon fill="#000000" stroke="#000000" points="45.8957,-277.896 49.3956,-287.896 52.8957,-277.896 45.8957,-277.896"/>
</g>
<!-- Exception&#45;&gt;Any -->
<g id="edge3" class="edge"><title>Exception&#45;&gt;Any</title>
<path fill="none" stroke="#000000" d="M49.3956,-180.303C49.3956,-188.017 49.3956,-197.288 49.3956,-205.888"/>
<polygon fill="#000000" stroke="#000000" points="45.8957,-205.896 49.3956,-215.896 52.8957,-205.896 45.8957,-205.896"/>
</g>
<!-- X::Control&#45;&gt;Exception -->
<g id="edge4" class="edge"><title>X::Control&#45;&gt;Exception</title>
<path fill="none" stroke="#000000" d="M78.9548,-107.945C74.356,-116.199 68.7292,-126.299 63.6238,-135.462"/>
<polygon fill="#000000" stroke="#000000" points="60.5591,-133.772 58.7495,-144.211 66.6741,-137.179 60.5591,-133.772"/>
</g>
</g>
</svg>
