<?xml version="1.0" encoding="UTF-8" standalone="no"?>
<!DOCTYPE svg PUBLIC "-//W3C//DTD SVG 1.1//EN"
 "http://www.w3.org/Graphics/SVG/1.1/DTD/svg11.dtd">
<!-- Generated by graphviz version 2.38.0 (20140413.2041)
 -->
<!-- Title: perl6&#45;type&#45;graph Pages: 1 -->
<svg width="657pt" height="332pt"
 viewBox="0.00 0.00 657.44 332.00" xmlns="http://www.w3.org/2000/svg" xmlns:xlink="http://www.w3.org/1999/xlink">
<g id="graph0" class="graph" transform="scale(1 1) rotate(0) translate(4 328)">
<title>perl6&#45;type&#45;graph</title>
<polygon fill="white" stroke="none" points="-4,4 -4,-328 653.445,-328 653.445,4 -4,4"/>
<!-- Int -->
<g id="node1" class="node"><title>Int</title>
<g id="a_node1"><a xlink:href="/type/Int" xlink:title="Int">
<ellipse fill="none" stroke="#000000" cx="340.597" cy="-90" rx="27" ry="18"/>
<text text-anchor="middle" x="340.597" y="-86.3" font-family="FreeSans" font-size="14.00" fill="#000000">Int</text>
</a>
</g>
</g>
<!-- Cool -->
<g id="node4" class="node"><title>Cool</title>
<g id="a_node4"><a xlink:href="/type/Cool" xlink:title="Cool">
<ellipse fill="none" stroke="#000000" cx="458.597" cy="-162" rx="28.6953" ry="18"/>
<text text-anchor="middle" x="458.597" y="-158.3" font-family="FreeSans" font-size="14.00" fill="#000000">Cool</text>
</a>
</g>
</g>
<!-- Int&#45;&gt;Cool -->
<g id="edge1" class="edge"><title>Int&#45;&gt;Cool</title>
<path fill="none" stroke="#000000" d="M360.083,-102.559C378.984,-113.772 407.899,-130.925 429.522,-143.752"/>
<polygon fill="#000000" stroke="#000000" points="427.905,-146.862 438.292,-148.954 431.477,-140.842 427.905,-146.862"/>
</g>
<!-- Real -->
<g id="node6" class="node"><title>Real</title>
<g id="a_node6"><a xlink:href="/type/Real" xlink:title="Real">
<ellipse fill="none" stroke="#6666ff" cx="340.597" cy="-162" rx="28.6953" ry="18"/>
<text text-anchor="middle" x="340.597" y="-158.3" font-family="FreeSans" font-size="14.00" fill="#6666ff">Real</text>
</a>
</g>
</g>
<!-- Int&#45;&gt;Real -->
<g id="edge13" class="edge"><title>Int&#45;&gt;Real</title>
<path fill="none" stroke="#6666ff" d="M340.597,-108.303C340.597,-116.017 340.597,-125.288 340.597,-133.888"/>
<polygon fill="#6666ff" stroke="#6666ff" points="337.098,-133.896 340.597,-143.896 344.098,-133.896 337.098,-133.896"/>
</g>
<!-- Mu -->
<g id="node2" class="node"><title>Mu</title>
<g id="a_node2"><a xlink:href="/type/Mu" xlink:title="Mu">
<ellipse fill="none" stroke="#000000" cx="458.597" cy="-306" rx="27" ry="18"/>
<text text-anchor="middle" x="458.597" y="-302.3" font-family="FreeSans" font-size="14.00" fill="#000000">Mu</text>
</a>
</g>
</g>
<!-- Any -->
<g id="node3" class="node"><title>Any</title>
<g id="a_node3"><a xlink:href="/type/Any" xlink:title="Any">
<ellipse fill="none" stroke="#000000" cx="458.597" cy="-234" rx="27" ry="18"/>
<text text-anchor="middle" x="458.597" y="-230.3" font-family="FreeSans" font-size="14.00" fill="#000000">Any</text>
</a>
</g>
</g>
<!-- Any&#45;&gt;Mu -->
<g id="edge2" class="edge"><title>Any&#45;&gt;Mu</title>
<path fill="none" stroke="#000000" d="M458.597,-252.303C458.597,-260.017 458.597,-269.288 458.597,-277.888"/>
<polygon fill="#000000" stroke="#000000" points="455.098,-277.896 458.597,-287.896 462.098,-277.896 455.098,-277.896"/>
</g>
<!-- Cool&#45;&gt;Any -->
<g id="edge3" class="edge"><title>Cool&#45;&gt;Any</title>
<path fill="none" stroke="#000000" d="M458.597,-180.303C458.597,-188.017 458.597,-197.288 458.597,-205.888"/>
<polygon fill="#000000" stroke="#000000" points="455.098,-205.896 458.597,-215.896 462.098,-205.896 455.098,-205.896"/>
</g>
<!-- Numeric -->
<g id="node5" class="node"><title>Numeric</title>
<g id="a_node5"><a xlink:href="/type/Numeric" xlink:title="Numeric">
<ellipse fill="none" stroke="#6666ff" cx="340.597" cy="-234" rx="44.393" ry="18"/>
<text text-anchor="middle" x="340.597" y="-230.3" font-family="FreeSans" font-size="14.00" fill="#6666ff">Numeric</text>
</a>
</g>
</g>
<!-- Real&#45;&gt;Numeric -->
<g id="edge14" class="edge"><title>Real&#45;&gt;Numeric</title>
<path fill="none" stroke="#6666ff" d="M340.597,-180.303C340.597,-188.017 340.597,-197.288 340.597,-205.888"/>
<polygon fill="#6666ff" stroke="#6666ff" points="337.098,-205.896 340.597,-215.896 344.098,-205.896 337.098,-205.896"/>
</g>
<!-- Bool -->
<g id="node7" class="node"><title>Bool</title>
<g id="a_node7"><a xlink:href="/type/Bool" xlink:title="Bool">
<ellipse fill="none" stroke="#33bb33" cx="28.5975" cy="-18" rx="28.6953" ry="18"/>
<text text-anchor="middle" x="28.5975" y="-14.3" font-family="FreeSans" font-size="14.00" fill="#33bb33">Bool</text>
</a>
</g>
</g>
<!-- Bool&#45;&gt;Int -->
<g id="edge4" class="edge"><title>Bool&#45;&gt;Int</title>
<path fill="none" stroke="#000000" d="M51.1414,-29.0854C59.324,-32.7461 66.5975,-36 66.5975,-36 66.5975,-36 230.802,-67.7622 304.978,-82.11"/>
<polygon fill="#000000" stroke="#000000" points="304.337,-85.551 314.82,-84.0139 305.667,-78.6784 304.337,-85.551"/>
</g>
<!-- int -->
<g id="node8" class="node"><title>int</title>
<g id="a_node8"><a xlink:href="/type/int" xlink:title="int">
<ellipse fill="none" stroke="#000000" cx="102.597" cy="-18" rx="27" ry="18"/>
<text text-anchor="middle" x="102.597" y="-14.3" font-family="FreeSans" font-size="14.00" fill="#000000">int</text>
</a>
</g>
</g>
<!-- int&#45;&gt;Int -->
<g id="edge5" class="edge"><title>int&#45;&gt;Int</title>
<path fill="none" stroke="#000000" d="M123.955,-29.0854C131.707,-32.7461 138.597,-36 138.597,-36 138.597,-36 248.317,-64.7879 306.03,-79.9304"/>
<polygon fill="#000000" stroke="#000000" points="305.267,-83.3486 315.828,-82.5012 307.044,-76.5778 305.267,-83.3486"/>
</g>
<!-- atomicint -->
<g id="node9" class="node"><title>atomicint</title>
<g id="a_node9"><a xlink:href="/type/atomicint" xlink:title="atomicint">
<ellipse fill="none" stroke="#000000" cx="193.597" cy="-18" rx="46.2923" ry="18"/>
<text text-anchor="middle" x="193.597" y="-14.3" font-family="FreeSans" font-size="14.00" fill="#000000">atomicint</text>
</a>
</g>
</g>
<!-- atomicint&#45;&gt;Int -->
<g id="edge6" class="edge"><title>atomicint&#45;&gt;Int</title>
<path fill="none" stroke="#000000" d="M221.593,-32.3312C246.818,-44.3431 283.832,-61.9688 309.867,-74.3663"/>
<polygon fill="#000000" stroke="#000000" points="308.386,-77.5378 318.919,-78.6771 311.396,-71.2177 308.386,-77.5378"/>
</g>
<!-- PromiseStatus -->
<g id="node10" class="node"><title>PromiseStatus</title>
<g id="a_node10"><a xlink:href="/type/PromiseStatus" xlink:title="PromiseStatus">
<ellipse fill="none" stroke="#33bb33" cx="325.597" cy="-18" rx="67.6881" ry="18"/>
<text text-anchor="middle" x="325.597" y="-14.3" font-family="FreeSans" font-size="14.00" fill="#33bb33">PromiseStatus</text>
</a>
</g>
</g>
<!-- PromiseStatus&#45;&gt;Int -->
<g id="edge7" class="edge"><title>PromiseStatus&#45;&gt;Int</title>
<path fill="none" stroke="#000000" d="M329.305,-36.3034C330.958,-44.0173 332.945,-53.2875 334.788,-61.8876"/>
<polygon fill="#000000" stroke="#000000" points="331.415,-62.851 336.932,-71.8957 338.259,-61.3843 331.415,-62.851"/>
</g>
<!-- Stringy -->
<g id="node11" class="node"><title>Stringy</title>
<g id="a_node11"><a xlink:href="/type/Stringy" xlink:title="Stringy">
<ellipse fill="none" stroke="#6666ff" cx="602.597" cy="-162" rx="38.1938" ry="18"/>
<text text-anchor="middle" x="602.597" y="-158.3" font-family="FreeSans" font-size="14.00" fill="#6666ff">Stringy</text>
</a>
</g>
</g>
<!-- Str -->
<g id="node12" class="node"><title>Str</title>
<g id="a_node12"><a xlink:href="/type/Str" xlink:title="Str">
<ellipse fill="none" stroke="#000000" cx="602.597" cy="-90" rx="27" ry="18"/>
<text text-anchor="middle" x="602.597" y="-86.3" font-family="FreeSans" font-size="14.00" fill="#000000">Str</text>
</a>
</g>
</g>
<!-- Str&#45;&gt;Cool -->
<g id="edge8" class="edge"><title>Str&#45;&gt;Cool</title>
<path fill="none" stroke="#000000" d="M581.35,-101.329C557.276,-113.031 517.799,-132.221 490.13,-145.672"/>
<polygon fill="#000000" stroke="#000000" points="488.344,-142.648 480.88,-150.168 491.404,-148.944 488.344,-142.648"/>
</g>
<!-- Str&#45;&gt;Stringy -->
<g id="edge15" class="edge"><title>Str&#45;&gt;Stringy</title>
<path fill="none" stroke="#6666ff" d="M602.597,-108.303C602.597,-116.017 602.597,-125.288 602.597,-133.888"/>
<polygon fill="#6666ff" stroke="#6666ff" points="599.098,-133.896 602.597,-143.896 606.098,-133.896 599.098,-133.896"/>
</g>
<!-- IntStr -->
<g id="node13" class="node"><title>IntStr</title>
<g id="a_node13"><a xlink:href="/type/IntStr" xlink:title="IntStr">
<ellipse fill="none" stroke="#000000" cx="617.597" cy="-18" rx="31.6951" ry="18"/>
<text text-anchor="middle" x="617.597" y="-14.3" font-family="FreeSans" font-size="14.00" fill="#000000">IntStr</text>
</a>
</g>
</g>
<!-- IntStr&#45;&gt;Int -->
<g id="edge9" class="edge"><title>IntStr&#45;&gt;Int</title>
<path fill="none" stroke="#000000" d="M592.332,-29.476C583.895,-32.9744 576.597,-36 576.597,-36 576.597,-36 441.569,-66.3242 375.786,-81.0976"/>
<polygon fill="#000000" stroke="#000000" points="374.844,-77.7219 365.854,-83.3281 376.378,-84.5518 374.844,-77.7219"/>
</g>
<!-- IntStr&#45;&gt;Str -->
<g id="edge10" class="edge"><title>IntStr&#45;&gt;Str</title>
<path fill="none" stroke="#000000" d="M613.966,-35.945C612.296,-43.7391 610.274,-53.1781 608.4,-61.9211"/>
<polygon fill="#000000" stroke="#000000" points="604.972,-61.2133 606.299,-71.7247 611.817,-62.6801 604.972,-61.2133"/>
</g>
<!-- Signal -->
<g id="node14" class="node"><title>Signal</title>
<g id="a_node14"><a xlink:href="/type/Signal" xlink:title="Signal">
<ellipse fill="none" stroke="#33bb33" cx="446.597" cy="-18" rx="35.194" ry="18"/>
<text text-anchor="middle" x="446.597" y="-14.3" font-family="FreeSans" font-size="14.00" fill="#33bb33">Signal</text>
</a>
</g>
</g>
<!-- Signal&#45;&gt;Int -->
<g id="edge11" class="edge"><title>Signal&#45;&gt;Int</title>
<path fill="none" stroke="#000000" d="M425.908,-32.6629C409.236,-43.6729 385.665,-59.2381 367.524,-71.2186"/>
<polygon fill="#000000" stroke="#000000" points="365.524,-68.345 359.108,-76.7763 369.381,-74.1863 365.524,-68.345"/>
</g>
<!-- Order -->
<g id="node15" class="node"><title>Order</title>
<g id="a_node15"><a xlink:href="/type/Order" xlink:title="Order">
<ellipse fill="none" stroke="#33bb33" cx="533.597" cy="-18" rx="33.5952" ry="18"/>
<text text-anchor="middle" x="533.597" y="-14.3" font-family="FreeSans" font-size="14.00" fill="#33bb33">Order</text>
</a>
</g>
</g>
<!-- Order&#45;&gt;Int -->
<g id="edge12" class="edge"><title>Order&#45;&gt;Int</title>
<path fill="none" stroke="#000000" d="M507.099,-29.476C498.251,-32.9744 490.597,-36 490.597,-36 490.597,-36 417.671,-61.7675 373.516,-77.3689"/>
<polygon fill="#000000" stroke="#000000" points="372.298,-74.0871 364.035,-80.7188 374.63,-80.6873 372.298,-74.0871"/>
</g>
</g>
</svg>
