<?xml version="1.0" encoding="UTF-8" standalone="no"?>
<!DOCTYPE svg PUBLIC "-//W3C//DTD SVG 1.1//EN"
 "http://www.w3.org/Graphics/SVG/1.1/DTD/svg11.dtd">
<!-- Generated by graphviz version 2.38.0 (20140413.2041)
 -->
<!-- Title: perl6&#45;type&#45;graph Pages: 1 -->
<svg width="1371pt" height="332pt"
 viewBox="0.00 0.00 1371.29 332.00" xmlns="http://www.w3.org/2000/svg" xmlns:xlink="http://www.w3.org/1999/xlink">
<g id="graph0" class="graph" transform="scale(1 1) rotate(0) translate(4 328)">
<title>perl6&#45;type&#45;graph</title>
<polygon fill="white" stroke="none" points="-4,4 -4,-328 1367.29,-328 1367.29,4 -4,4"/>
<!-- Cool -->
<g id="node1" class="node"><title>Cool</title>
<g id="a_node1"><a xlink:href="/type/Cool" xlink:title="Cool">
<ellipse fill="none" stroke="#000000" cx="687.746" cy="-162" rx="28.6953" ry="18"/>
<text text-anchor="middle" x="687.746" y="-158.3" font-family="FreeSans" font-size="14.00" fill="#000000">Cool</text>
</a>
</g>
</g>
<!-- Any -->
<g id="node3" class="node"><title>Any</title>
<g id="a_node3"><a xlink:href="/type/Any" xlink:title="Any">
<ellipse fill="none" stroke="#000000" cx="661.746" cy="-234" rx="27" ry="18"/>
<text text-anchor="middle" x="661.746" y="-230.3" font-family="FreeSans" font-size="14.00" fill="#000000">Any</text>
</a>
</g>
</g>
<!-- Cool&#45;&gt;Any -->
<g id="edge1" class="edge"><title>Cool&#45;&gt;Any</title>
<path fill="none" stroke="#000000" d="M681.584,-179.589C678.584,-187.665 674.906,-197.569 671.535,-206.645"/>
<polygon fill="#000000" stroke="#000000" points="668.245,-205.451 668.044,-216.044 674.807,-207.888 668.245,-205.451"/>
</g>
<!-- Mu -->
<g id="node2" class="node"><title>Mu</title>
<g id="a_node2"><a xlink:href="/type/Mu" xlink:title="Mu">
<ellipse fill="none" stroke="#000000" cx="661.746" cy="-306" rx="27" ry="18"/>
<text text-anchor="middle" x="661.746" y="-302.3" font-family="FreeSans" font-size="14.00" fill="#000000">Mu</text>
</a>
</g>
</g>
<!-- Any&#45;&gt;Mu -->
<g id="edge2" class="edge"><title>Any&#45;&gt;Mu</title>
<path fill="none" stroke="#000000" d="M661.746,-252.303C661.746,-260.017 661.746,-269.288 661.746,-277.888"/>
<polygon fill="#000000" stroke="#000000" points="658.246,-277.896 661.746,-287.896 665.246,-277.896 658.246,-277.896"/>
</g>
<!-- Numeric -->
<g id="node4" class="node"><title>Numeric</title>
<g id="a_node4"><a xlink:href="/type/Numeric" xlink:title="Numeric">
<ellipse fill="none" stroke="#6666ff" cx="786.746" cy="-234" rx="44.393" ry="18"/>
<text text-anchor="middle" x="786.746" y="-230.3" font-family="FreeSans" font-size="14.00" fill="#6666ff">Numeric</text>
</a>
</g>
</g>
<!-- Real -->
<g id="node5" class="node"><title>Real</title>
<g id="a_node5"><a xlink:href="/type/Real" xlink:title="Real">
<ellipse fill="none" stroke="#6666ff" cx="907.746" cy="-162" rx="28.6953" ry="18"/>
<text text-anchor="middle" x="907.746" y="-158.3" font-family="FreeSans" font-size="14.00" fill="#6666ff">Real</text>
</a>
</g>
</g>
<!-- Real&#45;&gt;Numeric -->
<g id="edge20" class="edge"><title>Real&#45;&gt;Numeric</title>
<path fill="none" stroke="#6666ff" d="M887.493,-174.716C869.126,-185.342 841.703,-201.206 820.103,-213.702"/>
<polygon fill="#6666ff" stroke="#6666ff" points="818.149,-210.789 811.245,-218.827 821.654,-216.849 818.149,-210.789"/>
</g>
<!-- Instant -->
<g id="node6" class="node"><title>Instant</title>
<g id="a_node6"><a xlink:href="/type/Instant" xlink:title="Instant">
<ellipse fill="none" stroke="#000000" cx="788.746" cy="-90" rx="37.0935" ry="18"/>
<text text-anchor="middle" x="788.746" y="-86.3" font-family="FreeSans" font-size="14.00" fill="#000000">Instant</text>
</a>
</g>
</g>
<!-- Instant&#45;&gt;Cool -->
<g id="edge3" class="edge"><title>Instant&#45;&gt;Cool</title>
<path fill="none" stroke="#000000" d="M768.307,-105.166C752.894,-115.848 731.607,-130.601 714.786,-142.259"/>
<polygon fill="#000000" stroke="#000000" points="712.676,-139.463 706.451,-148.036 716.664,-145.216 712.676,-139.463"/>
</g>
<!-- Instant&#45;&gt;Real -->
<g id="edge21" class="edge"><title>Instant&#45;&gt;Real</title>
<path fill="none" stroke="#6666ff" d="M811.409,-104.331C830.559,-115.596 858.102,-131.798 878.837,-143.995"/>
<polygon fill="#6666ff" stroke="#6666ff" points="877.151,-147.064 887.545,-149.117 880.7,-141.03 877.151,-147.064"/>
</g>
<!-- Capture -->
<g id="node7" class="node"><title>Capture</title>
<g id="a_node7"><a xlink:href="/type/Capture" xlink:title="Capture">
<ellipse fill="none" stroke="#000000" cx="598.746" cy="-162" rx="42.4939" ry="18"/>
<text text-anchor="middle" x="598.746" y="-158.3" font-family="FreeSans" font-size="14.00" fill="#000000">Capture</text>
</a>
</g>
</g>
<!-- Capture&#45;&gt;Any -->
<g id="edge4" class="edge"><title>Capture&#45;&gt;Any</title>
<path fill="none" stroke="#000000" d="M613.357,-179.235C621.816,-188.633 632.58,-200.594 641.807,-210.846"/>
<polygon fill="#000000" stroke="#000000" points="639.209,-213.191 648.5,-218.283 644.412,-208.509 639.209,-213.191"/>
</g>
<!-- Match -->
<g id="node8" class="node"><title>Match</title>
<g id="a_node8"><a xlink:href="/type/Match" xlink:title="Match">
<ellipse fill="none" stroke="#000000" cx="441.746" cy="-90" rx="35.194" ry="18"/>
<text text-anchor="middle" x="441.746" y="-86.3" font-family="FreeSans" font-size="14.00" fill="#000000">Match</text>
</a>
</g>
</g>
<!-- Match&#45;&gt;Cool -->
<g id="edge6" class="edge"><title>Match&#45;&gt;Cool</title>
<path fill="none" stroke="#000000" d="M469.965,-100.79C480.858,-104.569 490.746,-108 490.746,-108 490.746,-108 649.746,-144 649.746,-144 649.746,-144 652.177,-145.088 655.809,-146.712"/>
<polygon fill="#000000" stroke="#000000" points="654.644,-150.026 665.202,-150.915 657.503,-143.636 654.644,-150.026"/>
</g>
<!-- Match&#45;&gt;Capture -->
<g id="edge5" class="edge"><title>Match&#45;&gt;Capture</title>
<path fill="none" stroke="#000000" d="M467.32,-102.403C492.769,-113.749 532.11,-131.29 561.121,-144.225"/>
<polygon fill="#000000" stroke="#000000" points="559.97,-147.544 570.529,-148.419 562.82,-141.15 559.97,-147.544"/>
</g>
<!-- Iterable -->
<g id="node9" class="node"><title>Iterable</title>
<g id="a_node9"><a xlink:href="/type/Iterable" xlink:title="Iterable">
<ellipse fill="none" stroke="#6666ff" cx="155.746" cy="-162" rx="40.0939" ry="18"/>
<text text-anchor="middle" x="155.746" y="-158.3" font-family="FreeSans" font-size="14.00" fill="#6666ff">Iterable</text>
</a>
</g>
</g>
<!-- PositionalBindFailover -->
<g id="node10" class="node"><title>PositionalBindFailover</title>
<g id="a_node10"><a xlink:href="/type/PositionalBindFailover" xlink:title="PositionalBindFailover">
<ellipse fill="none" stroke="#6666ff" cx="440.746" cy="-162" rx="97.4827" ry="18"/>
<text text-anchor="middle" x="440.746" y="-158.3" font-family="FreeSans" font-size="14.00" fill="#6666ff">PositionalBindFailover</text>
</a>
</g>
</g>
<!-- Seq -->
<g id="node11" class="node"><title>Seq</title>
<g id="a_node11"><a xlink:href="/type/Seq" xlink:title="Seq">
<ellipse fill="none" stroke="#000000" cx="361.746" cy="-90" rx="27" ry="18"/>
<text text-anchor="middle" x="361.746" y="-86.3" font-family="FreeSans" font-size="14.00" fill="#000000">Seq</text>
</a>
</g>
</g>
<!-- Seq&#45;&gt;Cool -->
<g id="edge7" class="edge"><title>Seq&#45;&gt;Cool</title>
<path fill="none" stroke="#000000" d="M383.103,-101.085C390.855,-104.746 397.746,-108 397.746,-108 397.746,-108 649.746,-144 649.746,-144 649.746,-144 652.177,-145.088 655.809,-146.712"/>
<polygon fill="#000000" stroke="#000000" points="654.644,-150.026 665.202,-150.915 657.503,-143.636 654.644,-150.026"/>
</g>
<!-- Seq&#45;&gt;Iterable -->
<g id="edge22" class="edge"><title>Seq&#45;&gt;Iterable</title>
<path fill="none" stroke="#6666ff" d="M338.053,-99.0496C294.412,-113.876 205.746,-144 205.746,-144 205.746,-144 201.984,-145.279 196.524,-147.135"/>
<polygon fill="#6666ff" stroke="#6666ff" points="195.184,-143.894 186.843,-150.427 197.437,-150.522 195.184,-143.894"/>
</g>
<!-- Seq&#45;&gt;PositionalBindFailover -->
<g id="edge23" class="edge"><title>Seq&#45;&gt;PositionalBindFailover</title>
<path fill="none" stroke="#6666ff" d="M377.354,-104.83C387.829,-114.112 401.897,-126.577 414.118,-137.406"/>
<polygon fill="#6666ff" stroke="#6666ff" points="412.021,-140.224 421.826,-144.236 416.663,-134.985 412.021,-140.224"/>
</g>
<!-- Rational -->
<g id="node12" class="node"><title>Rational</title>
<g id="a_node12"><a xlink:href="/type/Rational" xlink:title="Rational">
<ellipse fill="none" stroke="#6666ff" cx="1142.75" cy="-90" rx="42.7926" ry="18"/>
<text text-anchor="middle" x="1142.75" y="-86.3" font-family="FreeSans" font-size="14.00" fill="#6666ff">Rational</text>
</a>
</g>
</g>
<!-- Rational&#45;&gt;Real -->
<g id="edge24" class="edge"><title>Rational&#45;&gt;Real</title>
<path fill="none" stroke="#6666ff" d="M1109.81,-101.766C1099.49,-105.14 1090.75,-108 1090.75,-108 1090.75,-108 996.071,-135.419 942.915,-150.814"/>
<polygon fill="#6666ff" stroke="#6666ff" points="941.823,-147.487 933.191,-153.631 943.77,-154.21 941.823,-147.487"/>
</g>
<!-- Rat -->
<g id="node13" class="node"><title>Rat</title>
<g id="a_node13"><a xlink:href="/type/Rat" xlink:title="Rat">
<ellipse fill="none" stroke="#000000" cx="782.746" cy="-18" rx="27" ry="18"/>
<text text-anchor="middle" x="782.746" y="-14.3" font-family="FreeSans" font-size="14.00" fill="#000000">Rat</text>
</a>
</g>
</g>
<!-- Rat&#45;&gt;Cool -->
<g id="edge8" class="edge"><title>Rat&#45;&gt;Cool</title>
<path fill="none" stroke="#000000" d="M756.965,-24.2756C691.454,-37.6813 523.746,-72 523.746,-72 523.746,-72 523.746,-108 523.746,-108 523.746,-108 649.746,-144 649.746,-144 649.746,-144 652.177,-145.088 655.809,-146.712"/>
<polygon fill="#000000" stroke="#000000" points="654.644,-150.026 665.202,-150.915 657.503,-143.636 654.644,-150.026"/>
</g>
<!-- Rat&#45;&gt;Rational -->
<g id="edge25" class="edge"><title>Rat&#45;&gt;Rational</title>
<path fill="none" stroke="#6666ff" d="M806.282,-27.0022C819.25,-31.4115 832.746,-36 832.746,-36 832.746,-36 1090.75,-72 1090.75,-72 1090.75,-72 1094.51,-73.2316 1100.02,-75.0319"/>
<polygon fill="#6666ff" stroke="#6666ff" points="1099.22,-78.4529 1109.81,-78.2336 1101.4,-71.7995 1099.22,-78.4529"/>
</g>
<!-- Positional -->
<g id="node14" class="node"><title>Positional</title>
<g id="a_node14"><a xlink:href="/type/Positional" xlink:title="Positional">
<ellipse fill="none" stroke="#6666ff" cx="48.7457" cy="-162" rx="48.9926" ry="18"/>
<text text-anchor="middle" x="48.7457" y="-158.3" font-family="FreeSans" font-size="14.00" fill="#6666ff">Positional</text>
</a>
</g>
</g>
<!-- List -->
<g id="node15" class="node"><title>List</title>
<g id="a_node15"><a xlink:href="/type/List" xlink:title="List">
<ellipse fill="none" stroke="#000000" cx="175.746" cy="-90" rx="27" ry="18"/>
<text text-anchor="middle" x="175.746" y="-86.3" font-family="FreeSans" font-size="14.00" fill="#000000">List</text>
</a>
</g>
</g>
<!-- List&#45;&gt;Cool -->
<g id="edge9" class="edge"><title>List&#45;&gt;Cool</title>
<path fill="none" stroke="#000000" d="M199.82,-98.3082C214.998,-102.916 231.746,-108 231.746,-108 231.746,-108 649.746,-144 649.746,-144 649.746,-144 652.177,-145.088 655.809,-146.712"/>
<polygon fill="#000000" stroke="#000000" points="654.644,-150.026 665.202,-150.915 657.503,-143.636 654.644,-150.026"/>
</g>
<!-- List&#45;&gt;Iterable -->
<g id="edge27" class="edge"><title>List&#45;&gt;Iterable</title>
<path fill="none" stroke="#6666ff" d="M170.904,-107.945C168.677,-115.739 165.981,-125.178 163.483,-133.921"/>
<polygon fill="#6666ff" stroke="#6666ff" points="160.063,-133.148 160.681,-143.725 166.794,-135.071 160.063,-133.148"/>
</g>
<!-- List&#45;&gt;Positional -->
<g id="edge26" class="edge"><title>List&#45;&gt;Positional</title>
<path fill="none" stroke="#6666ff" d="M155.622,-102.092C136.357,-112.71 106.889,-128.952 83.7717,-141.694"/>
<polygon fill="#6666ff" stroke="#6666ff" points="82.0081,-138.67 74.9398,-146.562 85.3871,-144.8 82.0081,-138.67"/>
</g>
<!-- Complex -->
<g id="node16" class="node"><title>Complex</title>
<g id="a_node16"><a xlink:href="/type/Complex" xlink:title="Complex">
<ellipse fill="none" stroke="#000000" cx="687.746" cy="-90" rx="45.4919" ry="18"/>
<text text-anchor="middle" x="687.746" y="-86.3" font-family="FreeSans" font-size="14.00" fill="#000000">Complex</text>
</a>
</g>
</g>
<!-- Complex&#45;&gt;Cool -->
<g id="edge10" class="edge"><title>Complex&#45;&gt;Cool</title>
<path fill="none" stroke="#000000" d="M687.746,-108.303C687.746,-116.017 687.746,-125.288 687.746,-133.888"/>
<polygon fill="#000000" stroke="#000000" points="684.246,-133.896 687.746,-143.896 691.246,-133.896 684.246,-133.896"/>
</g>
<!-- Complex&#45;&gt;Numeric -->
<g id="edge28" class="edge"><title>Complex&#45;&gt;Numeric</title>
<path fill="none" stroke="#6666ff" d="M699.561,-107.479C710.716,-123.037 725.746,-144 725.746,-144 725.746,-144 751.46,-181.517 769.497,-207.834"/>
<polygon fill="#6666ff" stroke="#6666ff" points="766.732,-209.99 775.272,-216.26 772.506,-206.033 766.732,-209.99"/>
</g>
<!-- Int -->
<g id="node17" class="node"><title>Int</title>
<g id="a_node17"><a xlink:href="/type/Int" xlink:title="Int">
<ellipse fill="none" stroke="#000000" cx="870.746" cy="-90" rx="27" ry="18"/>
<text text-anchor="middle" x="870.746" y="-86.3" font-family="FreeSans" font-size="14.00" fill="#000000">Int</text>
</a>
</g>
</g>
<!-- Int&#45;&gt;Cool -->
<g id="edge11" class="edge"><title>Int&#45;&gt;Cool</title>
<path fill="none" stroke="#000000" d="M849.388,-101.085C841.636,-104.746 834.746,-108 834.746,-108 834.746,-108 765.052,-133.128 721.641,-148.779"/>
<polygon fill="#000000" stroke="#000000" points="720.24,-145.564 712.02,-152.248 722.614,-152.149 720.24,-145.564"/>
</g>
<!-- Int&#45;&gt;Real -->
<g id="edge29" class="edge"><title>Int&#45;&gt;Real</title>
<path fill="none" stroke="#6666ff" d="M879.327,-107.235C883.746,-115.596 889.237,-125.984 894.211,-135.394"/>
<polygon fill="#6666ff" stroke="#6666ff" points="891.186,-137.161 898.954,-144.367 897.375,-133.89 891.186,-137.161"/>
</g>
<!-- Associative -->
<g id="node18" class="node"><title>Associative</title>
<g id="a_node18"><a xlink:href="/type/Associative" xlink:title="Associative">
<ellipse fill="none" stroke="#6666ff" cx="269.746" cy="-162" rx="55.4913" ry="18"/>
<text text-anchor="middle" x="269.746" y="-158.3" font-family="FreeSans" font-size="14.00" fill="#6666ff">Associative</text>
</a>
</g>
</g>
<!-- Map -->
<g id="node19" class="node"><title>Map</title>
<g id="a_node19"><a xlink:href="/type/Map" xlink:title="Map">
<ellipse fill="none" stroke="#000000" cx="269.746" cy="-90" rx="28.6953" ry="18"/>
<text text-anchor="middle" x="269.746" y="-86.3" font-family="FreeSans" font-size="14.00" fill="#000000">Map</text>
</a>
</g>
</g>
<!-- Map&#45;&gt;Cool -->
<g id="edge12" class="edge"><title>Map&#45;&gt;Cool</title>
<path fill="none" stroke="#000000" d="M295.124,-98.7042C309.941,-103.202 325.746,-108 325.746,-108 325.746,-108 649.746,-144 649.746,-144 649.746,-144 652.177,-145.088 655.809,-146.712"/>
<polygon fill="#000000" stroke="#000000" points="654.644,-150.026 665.202,-150.915 657.503,-143.636 654.644,-150.026"/>
</g>
<!-- Map&#45;&gt;Iterable -->
<g id="edge30" class="edge"><title>Map&#45;&gt;Iterable</title>
<path fill="none" stroke="#6666ff" d="M249.888,-103.193C232.629,-113.791 207.321,-129.331 187.291,-141.63"/>
<polygon fill="#6666ff" stroke="#6666ff" points="185.197,-138.808 178.507,-147.024 188.86,-144.774 185.197,-138.808"/>
</g>
<!-- Map&#45;&gt;Associative -->
<g id="edge31" class="edge"><title>Map&#45;&gt;Associative</title>
<path fill="none" stroke="#6666ff" d="M269.746,-108.303C269.746,-116.017 269.746,-125.288 269.746,-133.888"/>
<polygon fill="#6666ff" stroke="#6666ff" points="266.246,-133.896 269.746,-143.896 273.246,-133.896 266.246,-133.896"/>
</g>
<!-- Range -->
<g id="node20" class="node"><title>Range</title>
<g id="a_node20"><a xlink:href="/type/Range" xlink:title="Range">
<ellipse fill="none" stroke="#000000" cx="94.7457" cy="-90" rx="36.2938" ry="18"/>
<text text-anchor="middle" x="94.7457" y="-86.3" font-family="FreeSans" font-size="14.00" fill="#000000">Range</text>
</a>
</g>
</g>
<!-- Range&#45;&gt;Cool -->
<g id="edge13" class="edge"><title>Range&#45;&gt;Cool</title>
<path fill="none" stroke="#000000" d="M122.733,-101.573C131.884,-105.03 139.746,-108 139.746,-108 139.746,-108 649.746,-144 649.746,-144 649.746,-144 652.177,-145.088 655.809,-146.712"/>
<polygon fill="#000000" stroke="#000000" points="654.644,-150.026 665.202,-150.915 657.503,-143.636 654.644,-150.026"/>
</g>
<!-- Range&#45;&gt;Iterable -->
<g id="edge33" class="edge"><title>Range&#45;&gt;Iterable</title>
<path fill="none" stroke="#6666ff" d="M108.588,-106.884C116.354,-115.796 126.199,-127.094 134.882,-137.058"/>
<polygon fill="#6666ff" stroke="#6666ff" points="132.327,-139.453 141.535,-144.693 137.604,-134.854 132.327,-139.453"/>
</g>
<!-- Range&#45;&gt;Positional -->
<g id="edge32" class="edge"><title>Range&#45;&gt;Positional</title>
<path fill="none" stroke="#6666ff" d="M84.0767,-107.235C78.4683,-115.77 71.4711,-126.418 65.1868,-135.981"/>
<polygon fill="#6666ff" stroke="#6666ff" points="62.243,-134.087 59.6762,-144.367 68.093,-137.932 62.243,-134.087"/>
</g>
<!-- Num -->
<g id="node21" class="node"><title>Num</title>
<g id="a_node21"><a xlink:href="/type/Num" xlink:title="Num">
<ellipse fill="none" stroke="#000000" cx="945.746" cy="-90" rx="29.795" ry="18"/>
<text text-anchor="middle" x="945.746" y="-86.3" font-family="FreeSans" font-size="14.00" fill="#000000">Num</text>
</a>
</g>
</g>
<!-- Num&#45;&gt;Cool -->
<g id="edge14" class="edge"><title>Num&#45;&gt;Cool</title>
<path fill="none" stroke="#000000" d="M922.16,-101.281C913.946,-104.861 906.746,-108 906.746,-108 906.746,-108 786.204,-137.172 723.981,-152.231"/>
<polygon fill="#000000" stroke="#000000" points="723.058,-148.853 714.162,-154.607 724.705,-155.656 723.058,-148.853"/>
</g>
<!-- Num&#45;&gt;Real -->
<g id="edge34" class="edge"><title>Num&#45;&gt;Real</title>
<path fill="none" stroke="#6666ff" d="M936.932,-107.235C932.328,-115.717 926.591,-126.286 921.424,-135.803"/>
<polygon fill="#6666ff" stroke="#6666ff" points="918.206,-134.394 916.511,-144.853 924.358,-137.734 918.206,-134.394"/>
</g>
<!-- Stringy -->
<g id="node22" class="node"><title>Stringy</title>
<g id="a_node22"><a xlink:href="/type/Stringy" xlink:title="Stringy">
<ellipse fill="none" stroke="#6666ff" cx="1230.75" cy="-162" rx="38.1938" ry="18"/>
<text text-anchor="middle" x="1230.75" y="-158.3" font-family="FreeSans" font-size="14.00" fill="#6666ff">Stringy</text>
</a>
</g>
</g>
<!-- Str -->
<g id="node23" class="node"><title>Str</title>
<g id="a_node23"><a xlink:href="/type/Str" xlink:title="Str">
<ellipse fill="none" stroke="#000000" cx="1230.75" cy="-90" rx="27" ry="18"/>
<text text-anchor="middle" x="1230.75" y="-86.3" font-family="FreeSans" font-size="14.00" fill="#000000">Str</text>
</a>
</g>
</g>
<!-- Str&#45;&gt;Cool -->
<g id="edge15" class="edge"><title>Str&#45;&gt;Cool</title>
<path fill="none" stroke="#000000" d="M1209.39,-101.085C1201.64,-104.746 1194.75,-108 1194.75,-108 1194.75,-108 843.533,-144.715 725.738,-157.028"/>
<polygon fill="#000000" stroke="#000000" points="725.308,-153.554 715.726,-158.075 726.036,-160.516 725.308,-153.554"/>
</g>
<!-- Str&#45;&gt;Stringy -->
<g id="edge35" class="edge"><title>Str&#45;&gt;Stringy</title>
<path fill="none" stroke="#6666ff" d="M1230.75,-108.303C1230.75,-116.017 1230.75,-125.288 1230.75,-133.888"/>
<polygon fill="#6666ff" stroke="#6666ff" points="1227.25,-133.896 1230.75,-143.896 1234.25,-133.896 1227.25,-133.896"/>
</g>
<!-- FatRat -->
<g id="node24" class="node"><title>FatRat</title>
<g id="a_node24"><a xlink:href="/type/FatRat" xlink:title="FatRat">
<ellipse fill="none" stroke="#000000" cx="878.746" cy="-18" rx="37.0935" ry="18"/>
<text text-anchor="middle" x="878.746" y="-14.3" font-family="FreeSans" font-size="14.00" fill="#000000">FatRat</text>
</a>
</g>
</g>
<!-- FatRat&#45;&gt;Cool -->
<g id="edge16" class="edge"><title>FatRat&#45;&gt;Cool</title>
<path fill="none" stroke="#000000" d="M847.34,-27.8983C832.823,-32.0115 818.746,-36 818.746,-36 818.746,-36 633.746,-72 633.746,-72 633.746,-72 633.746,-108 633.746,-108 633.746,-108 650.61,-124.552 665.49,-139.156"/>
<polygon fill="#000000" stroke="#000000" points="663.401,-142.011 672.99,-146.518 668.305,-137.015 663.401,-142.011"/>
</g>
<!-- FatRat&#45;&gt;Rational -->
<g id="edge36" class="edge"><title>FatRat&#45;&gt;Rational</title>
<path fill="none" stroke="#6666ff" d="M910.944,-27.0496C970.25,-41.8761 1090.75,-72 1090.75,-72 1090.75,-72 1094.51,-73.2316 1100.02,-75.0319"/>
<polygon fill="#6666ff" stroke="#6666ff" points="1099.22,-78.4529 1109.81,-78.2336 1101.4,-71.7995 1099.22,-78.4529"/>
</g>
<!-- Nil -->
<g id="node25" class="node"><title>Nil</title>
<g id="a_node25"><a xlink:href="/type/Nil" xlink:title="Nil">
<ellipse fill="none" stroke="#000000" cx="559.746" cy="-90" rx="27" ry="18"/>
<text text-anchor="middle" x="559.746" y="-86.3" font-family="FreeSans" font-size="14.00" fill="#000000">Nil</text>
</a>
</g>
</g>
<!-- Nil&#45;&gt;Cool -->
<g id="edge17" class="edge"><title>Nil&#45;&gt;Cool</title>
<path fill="none" stroke="#000000" d="M580.028,-102.092C600.938,-113.527 633.774,-131.484 657.7,-144.569"/>
<polygon fill="#000000" stroke="#000000" points="656.255,-147.767 666.708,-149.495 659.613,-141.626 656.255,-147.767"/>
</g>
<!-- IO -->
<g id="node26" class="node"><title>IO</title>
<g id="a_node26"><a xlink:href="/type/IO" xlink:title="IO">
<ellipse fill="none" stroke="#6666ff" cx="1319.75" cy="-162" rx="27" ry="18"/>
<text text-anchor="middle" x="1319.75" y="-158.3" font-family="FreeSans" font-size="14.00" fill="#6666ff">IO</text>
</a>
</g>
</g>
<!-- IO::Path -->
<g id="node27" class="node"><title>IO::Path</title>
<g id="a_node27"><a xlink:href="/type/IO::Path" xlink:title="IO::Path">
<ellipse fill="none" stroke="#000000" cx="1319.75" cy="-90" rx="43.5923" ry="18"/>
<text text-anchor="middle" x="1319.75" y="-86.3" font-family="FreeSans" font-size="14.00" fill="#000000">IO::Path</text>
</a>
</g>
</g>
<!-- IO::Path&#45;&gt;Cool -->
<g id="edge18" class="edge"><title>IO::Path&#45;&gt;Cool</title>
<path fill="none" stroke="#000000" d="M1286.48,-101.67C1275.83,-105.085 1266.75,-108 1266.75,-108 1266.75,-108 869.746,-144 869.746,-144 869.746,-144 779.298,-152.448 725.927,-157.434"/>
<polygon fill="#000000" stroke="#000000" points="725.415,-153.966 715.784,-158.381 726.067,-160.936 725.415,-153.966"/>
</g>
<!-- IO::Path&#45;&gt;IO -->
<g id="edge37" class="edge"><title>IO::Path&#45;&gt;IO</title>
<path fill="none" stroke="#6666ff" d="M1319.75,-108.303C1319.75,-116.017 1319.75,-125.288 1319.75,-133.888"/>
<polygon fill="#6666ff" stroke="#6666ff" points="1316.25,-133.896 1319.75,-143.896 1323.25,-133.896 1316.25,-133.896"/>
</g>
<!-- Duration -->
<g id="node28" class="node"><title>Duration</title>
<g id="a_node28"><a xlink:href="/type/Duration" xlink:title="Duration">
<ellipse fill="none" stroke="#000000" cx="1037.75" cy="-90" rx="44.393" ry="18"/>
<text text-anchor="middle" x="1037.75" y="-86.3" font-family="FreeSans" font-size="14.00" fill="#000000">Duration</text>
</a>
</g>
</g>
<!-- Duration&#45;&gt;Cool -->
<g id="edge19" class="edge"><title>Duration&#45;&gt;Cool</title>
<path fill="none" stroke="#000000" d="M1004.18,-101.766C993.662,-105.14 984.746,-108 984.746,-108 984.746,-108 804.735,-140.123 724.998,-154.352"/>
<polygon fill="#000000" stroke="#000000" points="724.119,-150.954 714.89,-156.156 725.349,-157.845 724.119,-150.954"/>
</g>
<!-- Duration&#45;&gt;Real -->
<g id="edge38" class="edge"><title>Duration&#45;&gt;Real</title>
<path fill="none" stroke="#6666ff" d="M1012.06,-104.83C990.825,-116.265 960.619,-132.53 938.172,-144.616"/>
<polygon fill="#6666ff" stroke="#6666ff" points="936.221,-141.692 929.076,-149.514 939.54,-147.855 936.221,-141.692"/>
</g>
</g>
</svg>
