<?xml version="1.0" encoding="UTF-8" standalone="no"?>
<!DOCTYPE svg PUBLIC "-//W3C//DTD SVG 1.1//EN"
 "http://www.w3.org/Graphics/SVG/1.1/DTD/svg11.dtd">
<!-- Generated by graphviz version 2.38.0 (20140413.2041)
 -->
<!-- Title: perl6&#45;type&#45;graph Pages: 1 -->
<svg width="83pt" height="332pt"
 viewBox="0.00 0.00 83.39 332.00" xmlns="http://www.w3.org/2000/svg" xmlns:xlink="http://www.w3.org/1999/xlink">
<g id="graph0" class="graph" transform="scale(1 1) rotate(0) translate(4 328)">
<title>perl6&#45;type&#45;graph</title>
<polygon fill="white" stroke="none" points="-4,4 -4,-328 79.3933,-328 79.3933,4 -4,4"/>
<!-- Nil -->
<g id="node1" class="node"><title>Nil</title>
<g id="a_node1"><a xlink:href="/type/Nil" xlink:title="Nil">
<ellipse fill="none" stroke="#000000" cx="37.6967" cy="-90" rx="27" ry="18"/>
<text text-anchor="middle" x="37.6967" y="-86.3" font-family="FreeSans" font-size="14.00" fill="#000000">Nil</text>
</a>
</g>
</g>
<!-- Cool -->
<g id="node4" class="node"><title>Cool</title>
<g id="a_node4"><a xlink:href="/type/Cool" xlink:title="Cool">
<ellipse fill="none" stroke="#000000" cx="37.6967" cy="-162" rx="28.6953" ry="18"/>
<text text-anchor="middle" x="37.6967" y="-158.3" font-family="FreeSans" font-size="14.00" fill="#000000">Cool</text>
</a>
</g>
</g>
<!-- Nil&#45;&gt;Cool -->
<g id="edge1" class="edge"><title>Nil&#45;&gt;Cool</title>
<path fill="none" stroke="#000000" d="M37.6967,-108.303C37.6967,-116.017 37.6967,-125.288 37.6967,-133.888"/>
<polygon fill="#000000" stroke="#000000" points="34.1968,-133.896 37.6967,-143.896 41.1968,-133.896 34.1968,-133.896"/>
</g>
<!-- Mu -->
<g id="node2" class="node"><title>Mu</title>
<g id="a_node2"><a xlink:href="/type/Mu" xlink:title="Mu">
<ellipse fill="none" stroke="#000000" cx="37.6967" cy="-306" rx="27" ry="18"/>
<text text-anchor="middle" x="37.6967" y="-302.3" font-family="FreeSans" font-size="14.00" fill="#000000">Mu</text>
</a>
</g>
</g>
<!-- Any -->
<g id="node3" class="node"><title>Any</title>
<g id="a_node3"><a xlink:href="/type/Any" xlink:title="Any">
<ellipse fill="none" stroke="#000000" cx="37.6967" cy="-234" rx="27" ry="18"/>
<text text-anchor="middle" x="37.6967" y="-230.3" font-family="FreeSans" font-size="14.00" fill="#000000">Any</text>
</a>
</g>
</g>
<!-- Any&#45;&gt;Mu -->
<g id="edge2" class="edge"><title>Any&#45;&gt;Mu</title>
<path fill="none" stroke="#000000" d="M37.6967,-252.303C37.6967,-260.017 37.6967,-269.288 37.6967,-277.888"/>
<polygon fill="#000000" stroke="#000000" points="34.1968,-277.896 37.6967,-287.896 41.1968,-277.896 34.1968,-277.896"/>
</g>
<!-- Cool&#45;&gt;Any -->
<g id="edge3" class="edge"><title>Cool&#45;&gt;Any</title>
<path fill="none" stroke="#000000" d="M37.6967,-180.303C37.6967,-188.017 37.6967,-197.288 37.6967,-205.888"/>
<polygon fill="#000000" stroke="#000000" points="34.1968,-205.896 37.6967,-215.896 41.1968,-205.896 34.1968,-205.896"/>
</g>
<!-- Failure -->
<g id="node5" class="node"><title>Failure</title>
<g id="a_node5"><a xlink:href="/type/Failure" xlink:title="Failure">
<ellipse fill="none" stroke="#000000" cx="37.6967" cy="-18" rx="37.8943" ry="18"/>
<text text-anchor="middle" x="37.6967" y="-14.3" font-family="FreeSans" font-size="14.00" fill="#000000">Failure</text>
</a>
</g>
</g>
<!-- Failure&#45;&gt;Nil -->
<g id="edge4" class="edge"><title>Failure&#45;&gt;Nil</title>
<path fill="none" stroke="#000000" d="M37.6967,-36.3034C37.6967,-44.0173 37.6967,-53.2875 37.6967,-61.8876"/>
<polygon fill="#000000" stroke="#000000" points="34.1968,-61.8956 37.6967,-71.8957 41.1968,-61.8957 34.1968,-61.8956"/>
</g>
</g>
</svg>
