<?xml version="1.0" encoding="UTF-8" standalone="no"?>
<!DOCTYPE svg PUBLIC "-//W3C//DTD SVG 1.1//EN"
 "http://www.w3.org/Graphics/SVG/1.1/DTD/svg11.dtd">
<!-- Generated by graphviz version 2.38.0 (20140413.2041)
 -->
<!-- Title: perl6&#45;type&#45;graph Pages: 1 -->
<svg width="2198pt" height="1236pt"
 viewBox="0.00 0.00 2198.32 1235.58" xmlns="http://www.w3.org/2000/svg" xmlns:xlink="http://www.w3.org/1999/xlink">
<g id="graph0" class="graph" transform="scale(1 1) rotate(0) translate(1122.68 589.91)">
<title>perl6&#45;type&#45;graph</title>
<polygon fill="white" stroke="none" points="-1122.68,645.674 -1122.68,-589.91 1075.63,-589.91 1075.63,645.674 -1122.68,645.674"/>
<!-- Metamodel::Versioning -->
<g id="node1" class="node"><title>Metamodel::Versioning</title>
<g id="a_node1"><a xlink:href="/type/Metamodel::Versioning" xlink:title="Metamodel::Versioning">
<ellipse fill="none" stroke="#6666ff" cx="-26.1952" cy="289.146" rx="100.983" ry="18"/>
<text text-anchor="middle" x="-26.1952" y="292.846" font-family="FreeSans" font-size="14.00" fill="#6666ff">Metamodel::Versioning</text>
</a>
</g>
</g>
<!-- Mu -->
<g id="node2" class="node"><title>Mu</title>
<g id="a_node2"><a xlink:href="/type/Mu" xlink:title="Mu">
<ellipse fill="none" stroke="#000000" cx="495.782" cy="610.72" rx="27" ry="18"/>
<text text-anchor="middle" x="495.782" y="614.42" font-family="FreeSans" font-size="14.00" fill="#000000">Mu</text>
</a>
</g>
</g>
<!-- Any -->
<g id="node3" class="node"><title>Any</title>
<g id="a_node3"><a xlink:href="/type/Any" xlink:title="Any">
<ellipse fill="none" stroke="#000000" cx="-152.65" cy="618.679" rx="27" ry="18"/>
<text text-anchor="middle" x="-152.65" y="622.379" font-family="FreeSans" font-size="14.00" fill="#000000">Any</text>
</a>
</g>
</g>
<!-- Any&#45;&gt;Mu -->
<g id="edge1" class="edge"><title>Any&#45;&gt;Mu</title>
<path fill="none" stroke="#000000" d="M-125.488,617.358C-51.6158,613.762 147.451,604.074 147.451,604.074 147.451,604.074 369.005,608.301 458.724,610.013"/>
<polygon fill="#000000" stroke="#000000" points="458.807,606.514 468.739,610.204 458.674,613.513 458.807,606.514"/>
</g>
<!-- Metamodel::Naming -->
<g id="node4" class="node"><title>Metamodel::Naming</title>
<g id="a_node4"><a xlink:href="/type/Metamodel::Naming" xlink:title="Metamodel::Naming">
<ellipse fill="none" stroke="#6666ff" cx="-135.063" cy="6.35255" rx="90.1842" ry="18"/>
<text text-anchor="middle" x="-135.063" y="10.0525" font-family="FreeSans" font-size="14.00" fill="#6666ff">Metamodel::Naming</text>
</a>
</g>
</g>
<!-- Metamodel::Documenting -->
<g id="node5" class="node"><title>Metamodel::Documenting</title>
<g id="a_node5"><a xlink:href="/type/Metamodel::Documenting" xlink:title="Metamodel::Documenting">
<ellipse fill="none" stroke="#6666ff" cx="-375.23" cy="45.2841" rx="111.28" ry="18"/>
<text text-anchor="middle" x="-375.23" y="48.9841" font-family="FreeSans" font-size="14.00" fill="#6666ff">Metamodel::Documenting</text>
</a>
</g>
</g>
<!-- Metamodel::Stashing -->
<g id="node6" class="node"><title>Metamodel::Stashing</title>
<g id="a_node6"><a xlink:href="/type/Metamodel::Stashing" xlink:title="Metamodel::Stashing">
<ellipse fill="none" stroke="#6666ff" cx="-286.158" cy="325.451" rx="93.6835" ry="18"/>
<text text-anchor="middle" x="-286.158" y="329.151" font-family="FreeSans" font-size="14.00" fill="#6666ff">Metamodel::Stashing</text>
</a>
</g>
</g>
<!-- Metamodel::TypePretense -->
<g id="node7" class="node"><title>Metamodel::TypePretense</title>
<g id="a_node7"><a xlink:href="/type/Metamodel::TypePretense" xlink:title="Metamodel::TypePretense">
<ellipse fill="none" stroke="#6666ff" cx="147.687" cy="623.674" rx="114.28" ry="18"/>
<text text-anchor="middle" x="147.687" y="627.374" font-family="FreeSans" font-size="14.00" fill="#6666ff">Metamodel::TypePretense</text>
</a>
</g>
</g>
<!-- Metamodel::MethodDelegation -->
<g id="node8" class="node"><title>Metamodel::MethodDelegation</title>
<g id="a_node8"><a xlink:href="/type/Metamodel::MethodDelegation" xlink:title="Metamodel::MethodDelegation">
<ellipse fill="none" stroke="#6666ff" cx="-927.713" cy="551.679" rx="131.077" ry="18"/>
<text text-anchor="middle" x="-927.713" y="555.379" font-family="FreeSans" font-size="14.00" fill="#6666ff">Metamodel::MethodDelegation</text>
</a>
</g>
</g>
<!-- Metamodel::ModuleHOW -->
<g id="node9" class="node"><title>Metamodel::ModuleHOW</title>
<g id="a_node9"><a xlink:href="/type/Metamodel::ModuleHOW" xlink:title="Metamodel::ModuleHOW">
<ellipse fill="none" stroke="#000000" cx="-506.424" cy="617.655" rx="111.28" ry="18"/>
<text text-anchor="middle" x="-506.424" y="621.355" font-family="FreeSans" font-size="14.00" fill="#000000">Metamodel::ModuleHOW</text>
</a>
</g>
</g>
<!-- Metamodel::ModuleHOW&#45;&gt;Metamodel::Versioning -->
<g id="edge9" class="edge"><title>Metamodel::ModuleHOW&#45;&gt;Metamodel::Versioning</title>
<path fill="none" stroke="#6666ff" d="M-480.605,599.993C-399.733,544.671 -151.298,374.725 -60.1671,312.385"/>
<polygon fill="#6666ff" stroke="#6666ff" points="-62.0797,309.453 -51.8499,306.696 -58.1274,315.231 -62.0797,309.453"/>
</g>
<!-- Metamodel::ModuleHOW&#45;&gt;Any -->
<g id="edge2" class="edge"><title>Metamodel::ModuleHOW&#45;&gt;Any</title>
<path fill="none" stroke="#000000" d="M-394.973,617.978C-324.739,618.181 -238.483,618.431 -190.126,618.571"/>
<polygon fill="#000000" stroke="#000000" points="-189.818,615.072 -179.828,618.601 -189.839,622.072 -189.818,615.072"/>
</g>
<!-- Metamodel::ModuleHOW&#45;&gt;Metamodel::Naming -->
<g id="edge7" class="edge"><title>Metamodel::ModuleHOW&#45;&gt;Metamodel::Naming</title>
<path fill="none" stroke="#6666ff" d="M-498.6,599.383C-471.218,535.434 -381.349,325.551 -381.349,325.551 -381.349,325.551 -214.239,108.969 -155.324,32.6116"/>
<polygon fill="#6666ff" stroke="#6666ff" points="-157.89,30.2078 -149.01,24.4286 -152.347,34.484 -157.89,30.2078"/>
</g>
<!-- Metamodel::ModuleHOW&#45;&gt;Metamodel::Documenting -->
<g id="edge8" class="edge"><title>Metamodel::ModuleHOW&#45;&gt;Metamodel::Documenting</title>
<path fill="none" stroke="#6666ff" d="M-502.281,599.58C-483.328,516.892 -404.82,174.379 -381.677,73.4141"/>
<polygon fill="#6666ff" stroke="#6666ff" points="-385.019,72.329 -379.374,63.3637 -378.196,73.893 -385.019,72.329"/>
</g>
<!-- Metamodel::ModuleHOW&#45;&gt;Metamodel::Stashing -->
<g id="edge10" class="edge"><title>Metamodel::ModuleHOW&#45;&gt;Metamodel::Stashing</title>
<path fill="none" stroke="#6666ff" d="M-492.645,599.377C-454.931,549.344 -349.901,410.012 -305.923,351.671"/>
<polygon fill="#6666ff" stroke="#6666ff" points="-308.465,349.228 -299.65,343.35 -302.875,353.442 -308.465,349.228"/>
</g>
<!-- Metamodel::ModuleHOW&#45;&gt;Metamodel::TypePretense -->
<g id="edge11" class="edge"><title>Metamodel::ModuleHOW&#45;&gt;Metamodel::TypePretense</title>
<path fill="none" stroke="#6666ff" d="M-401.67,623.759C-297.305,629.841 -152.495,638.279 -152.495,638.279 -152.495,638.279 -55.7373,633.572 27.9114,629.502"/>
<polygon fill="#6666ff" stroke="#6666ff" points="27.8818,625.999 38.0401,629.009 28.222,632.991 27.8818,625.999"/>
</g>
<!-- Metamodel::ModuleHOW&#45;&gt;Metamodel::MethodDelegation -->
<g id="edge12" class="edge"><title>Metamodel::ModuleHOW&#45;&gt;Metamodel::MethodDelegation</title>
<path fill="none" stroke="#6666ff" d="M-586.657,605.09C-656.086,594.217 -756.679,578.464 -830.633,566.883"/>
<polygon fill="#6666ff" stroke="#6666ff" points="-831.547,570.282 -840.885,565.277 -830.464,563.366 -831.547,570.282"/>
</g>
<!-- Metamodel::AttributeContainer -->
<g id="node10" class="node"><title>Metamodel::AttributeContainer</title>
<g id="a_node10"><a xlink:href="/type/Metamodel::AttributeContainer" xlink:title="Metamodel::AttributeContainer">
<ellipse fill="none" stroke="#6666ff" cx="928.705" cy="40.3876" rx="129.977" ry="18"/>
<text text-anchor="middle" x="928.705" y="44.0876" font-family="FreeSans" font-size="14.00" fill="#6666ff">Metamodel::AttributeContainer</text>
</a>
</g>
</g>
<!-- Metamodel::Finalization -->
<g id="node11" class="node"><title>Metamodel::Finalization</title>
<g id="a_node11"><a xlink:href="/type/Metamodel::Finalization" xlink:title="Metamodel::Finalization">
<ellipse fill="none" stroke="#6666ff" cx="-962.81" cy="52.286" rx="103.982" ry="18"/>
<text text-anchor="middle" x="-962.81" y="55.986" font-family="FreeSans" font-size="14.00" fill="#6666ff">Metamodel::Finalization</text>
</a>
</g>
</g>
<!-- Metamodel::MethodContainer -->
<g id="node12" class="node"><title>Metamodel::MethodContainer</title>
<g id="a_node12"><a xlink:href="/type/Metamodel::MethodContainer" xlink:title="Metamodel::MethodContainer">
<ellipse fill="none" stroke="#6666ff" cx="333.857" cy="43.191" rx="127.277" ry="18"/>
<text text-anchor="middle" x="333.857" y="46.891" font-family="FreeSans" font-size="14.00" fill="#6666ff">Metamodel::MethodContainer</text>
</a>
</g>
</g>
<!-- Metamodel::PrivateMethodContainer -->
<g id="node13" class="node"><title>Metamodel::PrivateMethodContainer</title>
<g id="a_node13"><a xlink:href="/type/Metamodel::PrivateMethodContainer" xlink:title="Metamodel::PrivateMethodContainer">
<ellipse fill="none" stroke="#6666ff" cx="916.947" cy="-470.991" rx="154.873" ry="18"/>
<text text-anchor="middle" x="916.947" y="-467.291" font-family="FreeSans" font-size="14.00" fill="#6666ff">Metamodel::PrivateMethodContainer</text>
</a>
</g>
</g>
<!-- Metamodel::MultiMethodContainer -->
<g id="node14" class="node"><title>Metamodel::MultiMethodContainer</title>
<g id="a_node14"><a xlink:href="/type/Metamodel::MultiMethodContainer" xlink:title="Metamodel::MultiMethodContainer">
<ellipse fill="none" stroke="#6666ff" cx="592.882" cy="-164.975" rx="146.474" ry="18"/>
<text text-anchor="middle" x="592.882" y="-161.275" font-family="FreeSans" font-size="14.00" fill="#6666ff">Metamodel::MultiMethodContainer</text>
</a>
</g>
</g>
<!-- Metamodel::RoleContainer -->
<g id="node15" class="node"><title>Metamodel::RoleContainer</title>
<g id="a_node15"><a xlink:href="/type/Metamodel::RoleContainer" xlink:title="Metamodel::RoleContainer">
<ellipse fill="none" stroke="#6666ff" cx="260.158" cy="-247.304" rx="115.88" ry="18"/>
<text text-anchor="middle" x="260.158" y="-243.604" font-family="FreeSans" font-size="14.00" fill="#6666ff">Metamodel::RoleContainer</text>
</a>
</g>
</g>
<!-- Metamodel::MultipleInheritance -->
<g id="node16" class="node"><title>Metamodel::MultipleInheritance</title>
<g id="a_node16"><a xlink:href="/type/Metamodel::MultipleInheritance" xlink:title="Metamodel::MultipleInheritance">
<ellipse fill="none" stroke="#6666ff" cx="89.7837" cy="17.9523" rx="133.776" ry="18"/>
<text text-anchor="middle" x="89.7837" y="21.6523" font-family="FreeSans" font-size="14.00" fill="#6666ff">Metamodel::MultipleInheritance</text>
</a>
</g>
</g>
<!-- Metamodel::DefaultParent -->
<g id="node17" class="node"><title>Metamodel::DefaultParent</title>
<g id="a_node17"><a xlink:href="/type/Metamodel::DefaultParent" xlink:title="Metamodel::DefaultParent">
<ellipse fill="none" stroke="#6666ff" cx="543.535" cy="-542.105" rx="113.18" ry="18"/>
<text text-anchor="middle" x="543.535" y="-538.405" font-family="FreeSans" font-size="14.00" fill="#6666ff">Metamodel::DefaultParent</text>
</a>
</g>
</g>
<!-- Metamodel::C3MRO -->
<g id="node18" class="node"><title>Metamodel::C3MRO</title>
<g id="a_node18"><a xlink:href="/type/Metamodel::C3MRO" xlink:title="Metamodel::C3MRO">
<ellipse fill="none" stroke="#6666ff" cx="-317.785" cy="-251.532" rx="92.0841" ry="18"/>
<text text-anchor="middle" x="-317.785" y="-247.832" font-family="FreeSans" font-size="14.00" fill="#6666ff">Metamodel::C3MRO</text>
</a>
</g>
</g>
<!-- Metamodel::MROBasedMethodDispatch -->
<g id="node19" class="node"><title>Metamodel::MROBasedMethodDispatch</title>
<g id="a_node19"><a xlink:href="/type/Metamodel::MROBasedMethodDispatch" xlink:title="Metamodel::MROBasedMethodDispatch">
<ellipse fill="none" stroke="#6666ff" cx="-949.048" cy="-468.25" rx="169.77" ry="18"/>
<text text-anchor="middle" x="-949.048" y="-464.55" font-family="FreeSans" font-size="14.00" fill="#6666ff">Metamodel::MROBasedMethodDispatch</text>
</a>
</g>
</g>
<!-- Metamodel::MROBasedTypeChecking -->
<g id="node20" class="node"><title>Metamodel::MROBasedTypeChecking</title>
<g id="a_node20"><a xlink:href="/type/Metamodel::MROBasedTypeChecking" xlink:title="Metamodel::MROBasedTypeChecking">
<ellipse fill="none" stroke="#6666ff" cx="-640.415" cy="-156.275" rx="163.271" ry="18"/>
<text text-anchor="middle" x="-640.415" y="-152.575" font-family="FreeSans" font-size="14.00" fill="#6666ff">Metamodel::MROBasedTypeChecking</text>
</a>
</g>
</g>
<!-- Metamodel::Trusting -->
<g id="node21" class="node"><title>Metamodel::Trusting</title>
<g id="a_node21"><a xlink:href="/type/Metamodel::Trusting" xlink:title="Metamodel::Trusting">
<ellipse fill="none" stroke="#6666ff" cx="-264.9" cy="-557.605" rx="91.784" ry="18"/>
<text text-anchor="middle" x="-264.9" y="-553.905" font-family="FreeSans" font-size="14.00" fill="#6666ff">Metamodel::Trusting</text>
</a>
</g>
</g>
<!-- Metamodel::BUILDPLAN -->
<g id="node22" class="node"><title>Metamodel::BUILDPLAN</title>
<g id="a_node22"><a xlink:href="/type/Metamodel::BUILDPLAN" xlink:title="Metamodel::BUILDPLAN">
<ellipse fill="none" stroke="#6666ff" cx="-577.675" cy="-542.461" rx="109.681" ry="18"/>
<text text-anchor="middle" x="-577.675" y="-538.761" font-family="FreeSans" font-size="14.00" fill="#6666ff">Metamodel::BUILDPLAN</text>
</a>
</g>
</g>
<!-- Metamodel::Mixins -->
<g id="node23" class="node"><title>Metamodel::Mixins</title>
<g id="a_node23"><a xlink:href="/type/Metamodel::Mixins" xlink:title="Metamodel::Mixins">
<ellipse fill="none" stroke="#6666ff" cx="-12.4411" cy="-567.91" rx="85.2851" ry="18"/>
<text text-anchor="middle" x="-12.4411" y="-564.21" font-family="FreeSans" font-size="14.00" fill="#6666ff">Metamodel::Mixins</text>
</a>
</g>
</g>
<!-- Metamodel::BoolificationProtocol -->
<g id="node24" class="node"><title>Metamodel::BoolificationProtocol</title>
<g id="a_node24"><a xlink:href="/type/Metamodel::BoolificationProtocol" xlink:title="Metamodel::BoolificationProtocol">
<ellipse fill="none" stroke="#6666ff" cx="236.907" cy="-554.927" rx="139.175" ry="18"/>
<text text-anchor="middle" x="236.907" y="-551.227" font-family="FreeSans" font-size="14.00" fill="#6666ff">Metamodel::BoolificationProtocol</text>
</a>
</g>
</g>
<!-- Metamodel::ClassHOW -->
<g id="node25" class="node"><title>Metamodel::ClassHOW</title>
<g id="a_node25"><a xlink:href="/type/Metamodel::ClassHOW" xlink:title="Metamodel::ClassHOW">
<ellipse fill="none" stroke="#000000" cx="-27.0418" cy="-265.566" rx="103.982" ry="18"/>
<text text-anchor="middle" x="-27.0418" y="-261.866" font-family="FreeSans" font-size="14.00" fill="#000000">Metamodel::ClassHOW</text>
</a>
</g>
</g>
<!-- Metamodel::ClassHOW&#45;&gt;Metamodel::Versioning -->
<g id="edge15" class="edge"><title>Metamodel::ClassHOW&#45;&gt;Metamodel::Versioning</title>
<path fill="none" stroke="#6666ff" d="M-28.1219,-247.311C-31.7274,-186.372 -43.1226,6.22558 -43.1226,6.22558 -43.1226,6.22558 -45.7024,18.0605 -45.7024,18.0605 -45.7024,18.0605 -33.2474,191.143 -28.2418,260.706"/>
<polygon fill="#6666ff" stroke="#6666ff" points="-24.7323,260.713 -27.5054,270.939 -31.7142,261.216 -24.7323,260.713"/>
</g>
<!-- Metamodel::ClassHOW&#45;&gt;Any -->
<g id="edge3" class="edge"><title>Metamodel::ClassHOW&#45;&gt;Any</title>
<path fill="none" stroke="#000000" d="M-28.1219,-247.311C-31.7274,-186.372 -43.1226,6.22558 -43.1226,6.22558 -43.1226,6.22558 -128.532,289.33 -128.532,289.33 -128.532,289.33 -144.705,510.194 -150.563,590.188"/>
<polygon fill="#000000" stroke="#000000" points="-147.097,590.785 -151.318,600.503 -154.079,590.274 -147.097,590.785"/>
</g>
<!-- Metamodel::ClassHOW&#45;&gt;Metamodel::Naming -->
<g id="edge13" class="edge"><title>Metamodel::ClassHOW&#45;&gt;Metamodel::Naming</title>
<path fill="none" stroke="#6666ff" d="M-34.2971,-247.302C-52.8225,-200.669 -101.962,-76.971 -124.044,-21.3842"/>
<polygon fill="#6666ff" stroke="#6666ff" points="-120.894,-19.8329 -127.839,-11.8315 -127.4,-22.4172 -120.894,-19.8329"/>
</g>
<!-- Metamodel::ClassHOW&#45;&gt;Metamodel::Documenting -->
<g id="edge14" class="edge"><title>Metamodel::ClassHOW&#45;&gt;Metamodel::Documenting</title>
<path fill="none" stroke="#6666ff" d="M-47.0125,-247.737C-106.027,-195.05 -279.724,-39.9802 -347.601,20.6185"/>
<polygon fill="#6666ff" stroke="#6666ff" points="-345.549,23.4781 -355.34,27.527 -350.211,18.2563 -345.549,23.4781"/>
</g>
<!-- Metamodel::ClassHOW&#45;&gt;Metamodel::Stashing -->
<g id="edge16" class="edge"><title>Metamodel::ClassHOW&#45;&gt;Metamodel::Stashing</title>
<path fill="none" stroke="#6666ff" d="M-40.4723,-247.294C-85.306,-186.298 -227.003,6.47951 -227.003,6.47951 -227.003,6.47951 -266.492,219.41 -280.942,297.326"/>
<polygon fill="#6666ff" stroke="#6666ff" points="-277.543,298.194 -282.808,307.388 -284.426,296.917 -277.543,298.194"/>
</g>
<!-- Metamodel::ClassHOW&#45;&gt;Metamodel::AttributeContainer -->
<g id="edge17" class="edge"><title>Metamodel::ClassHOW&#45;&gt;Metamodel::AttributeContainer</title>
<path fill="none" stroke="#6666ff" d="M22.6636,-249.654C183.71,-198.1 690.918,-35.7326 867.428,20.7717"/>
<polygon fill="#6666ff" stroke="#6666ff" points="868.623,17.4792 877.079,23.8614 866.488,24.1459 868.623,17.4792"/>
</g>
<!-- Metamodel::ClassHOW&#45;&gt;Metamodel::Finalization -->
<g id="edge18" class="edge"><title>Metamodel::ClassHOW&#45;&gt;Metamodel::Finalization</title>
<path fill="none" stroke="#6666ff" d="M-74.4101,-249.476C-231.583,-196.089 -735.523,-24.9162 -905.902,32.9562"/>
<polygon fill="#6666ff" stroke="#6666ff" points="-904.848,36.2945 -915.443,36.1968 -907.1,29.6664 -904.848,36.2945"/>
</g>
<!-- Metamodel::ClassHOW&#45;&gt;Metamodel::MethodContainer -->
<g id="edge19" class="edge"><title>Metamodel::ClassHOW&#45;&gt;Metamodel::MethodContainer</title>
<path fill="none" stroke="#6666ff" d="M-6.34212,-247.857C54.8071,-195.542 234.747,-41.5993 305.151,18.6328"/>
<polygon fill="#6666ff" stroke="#6666ff" points="307.467,16.0076 312.79,25.168 302.916,21.3267 307.467,16.0076"/>
</g>
<!-- Metamodel::ClassHOW&#45;&gt;Metamodel::PrivateMethodContainer -->
<g id="edge20" class="edge"><title>Metamodel::ClassHOW&#45;&gt;Metamodel::PrivateMethodContainer</title>
<path fill="none" stroke="#6666ff" d="M37.8423,-279.685C204.725,-316.001 648.695,-412.616 833.945,-452.929"/>
<polygon fill="#6666ff" stroke="#6666ff" points="833.388,-456.389 843.904,-455.096 834.877,-449.549 833.388,-456.389"/>
</g>
<!-- Metamodel::ClassHOW&#45;&gt;Metamodel::MultiMethodContainer -->
<g id="edge21" class="edge"><title>Metamodel::ClassHOW&#45;&gt;Metamodel::MultiMethodContainer</title>
<path fill="none" stroke="#6666ff" d="M48.973,-253.231C161.005,-235.053 370.519,-201.056 494.256,-180.978"/>
<polygon fill="#6666ff" stroke="#6666ff" points="495.174,-184.375 504.484,-179.319 494.052,-177.466 495.174,-184.375"/>
</g>
<!-- Metamodel::ClassHOW&#45;&gt;Metamodel::RoleContainer -->
<g id="edge22" class="edge"><title>Metamodel::ClassHOW&#45;&gt;Metamodel::RoleContainer</title>
<path fill="none" stroke="#6666ff" d="M70.5918,-259.358C93.785,-257.883 118.767,-256.294 142.741,-254.77"/>
<polygon fill="#6666ff" stroke="#6666ff" points="143.187,-258.249 152.945,-254.121 142.743,-251.263 143.187,-258.249"/>
</g>
<!-- Metamodel::ClassHOW&#45;&gt;Metamodel::MultipleInheritance -->
<g id="edge23" class="edge"><title>Metamodel::ClassHOW&#45;&gt;Metamodel::MultipleInheritance</title>
<path fill="none" stroke="#6666ff" d="M-19.5562,-247.399C0.349743,-199.09 54.6866,-67.223 78.4288,-9.60438"/>
<polygon fill="#6666ff" stroke="#6666ff" points="81.7865,-10.6423 82.3603,-0.0630269 75.3144,-7.97541 81.7865,-10.6423"/>
</g>
<!-- Metamodel::ClassHOW&#45;&gt;Metamodel::DefaultParent -->
<g id="edge24" class="edge"><title>Metamodel::ClassHOW&#45;&gt;Metamodel::DefaultParent</title>
<path fill="none" stroke="#6666ff" d="M8.21968,-282.656C107.493,-330.77 389.237,-467.322 498.994,-520.518"/>
<polygon fill="#6666ff" stroke="#6666ff" points="497.619,-523.74 508.144,-524.952 500.672,-517.441 497.619,-523.74"/>
</g>
<!-- Metamodel::ClassHOW&#45;&gt;Metamodel::C3MRO -->
<g id="edge25" class="edge"><title>Metamodel::ClassHOW&#45;&gt;Metamodel::C3MRO</title>
<path fill="none" stroke="#6666ff" d="M-127.506,-260.716C-156.724,-259.306 -188.626,-257.766 -217.814,-256.358"/>
<polygon fill="#6666ff" stroke="#6666ff" points="-217.859,-252.851 -228.016,-255.865 -218.197,-259.843 -217.859,-252.851"/>
</g>
<!-- Metamodel::ClassHOW&#45;&gt;Metamodel::MROBasedMethodDispatch -->
<g id="edge26" class="edge"><title>Metamodel::ClassHOW&#45;&gt;Metamodel::MROBasedMethodDispatch</title>
<path fill="none" stroke="#6666ff" d="M-91.5091,-279.737C-254.519,-315.572 -683.104,-409.788 -865.235,-449.825"/>
<polygon fill="#6666ff" stroke="#6666ff" points="-866.019,-446.414 -875.034,-451.979 -864.516,-453.251 -866.019,-446.414"/>
</g>
<!-- Metamodel::ClassHOW&#45;&gt;Metamodel::MROBasedTypeChecking -->
<g id="edge27" class="edge"><title>Metamodel::ClassHOW&#45;&gt;Metamodel::MROBasedTypeChecking</title>
<path fill="none" stroke="#6666ff" d="M-99.5096,-252.653C-210.05,-232.957 -420.91,-195.386 -544.174,-173.423"/>
<polygon fill="#6666ff" stroke="#6666ff" points="-543.898,-169.917 -554.357,-171.608 -545.126,-176.808 -543.898,-169.917"/>
</g>
<!-- Metamodel::ClassHOW&#45;&gt;Metamodel::Trusting -->
<g id="edge28" class="edge"><title>Metamodel::ClassHOW&#45;&gt;Metamodel::Trusting</title>
<path fill="none" stroke="#6666ff" d="M-41.5629,-283.394C-82.0362,-333.087 -196.248,-473.315 -243.758,-531.647"/>
<polygon fill="#6666ff" stroke="#6666ff" points="-246.665,-529.674 -250.267,-539.638 -241.238,-534.095 -246.665,-529.674"/>
</g>
<!-- Metamodel::ClassHOW&#45;&gt;Metamodel::BUILDPLAN -->
<g id="edge29" class="edge"><title>Metamodel::ClassHOW&#45;&gt;Metamodel::BUILDPLAN</title>
<path fill="none" stroke="#6666ff" d="M-61.0709,-282.678C-156.779,-330.806 -428.224,-467.307 -534.372,-520.685"/>
<polygon fill="#6666ff" stroke="#6666ff" points="-536.16,-517.666 -543.522,-525.286 -533.015,-523.92 -536.16,-517.666"/>
</g>
<!-- Metamodel::ClassHOW&#45;&gt;Metamodel::Mixins -->
<g id="edge30" class="edge"><title>Metamodel::ClassHOW&#45;&gt;Metamodel::Mixins</title>
<path fill="none" stroke="#6666ff" d="M-26.1722,-283.573C-23.7282,-334.182 -16.7835,-477.989 -13.8145,-539.469"/>
<polygon fill="#6666ff" stroke="#6666ff" points="-17.303,-539.795 -13.3246,-549.614 -10.3111,-539.457 -17.303,-539.795"/>
</g>
<!-- Metamodel::ClassHOW&#45;&gt;Metamodel::BoolificationProtocol -->
<g id="edge31" class="edge"><title>Metamodel::ClassHOW&#45;&gt;Metamodel::BoolificationProtocol</title>
<path fill="none" stroke="#6666ff" d="M-10.5306,-283.667C34.7417,-333.298 160.956,-471.664 213.494,-529.26"/>
<polygon fill="#6666ff" stroke="#6666ff" points="211.077,-531.804 220.402,-536.833 216.249,-527.086 211.077,-531.804"/>
</g>
<!-- Metamodel::RolePunning -->
<g id="node26" class="node"><title>Metamodel::RolePunning</title>
<g id="a_node26"><a xlink:href="/type/Metamodel::RolePunning" xlink:title="Metamodel::RolePunning">
<ellipse fill="none" stroke="#6666ff" cx="903.825" cy="543.728" rx="109.681" ry="18"/>
<text text-anchor="middle" x="903.825" y="547.428" font-family="FreeSans" font-size="14.00" fill="#6666ff">Metamodel::RolePunning</text>
</a>
</g>
</g>
<!-- Metamodel::ParametricRoleHOW -->
<g id="node27" class="node"><title>Metamodel::ParametricRoleHOW</title>
<g id="a_node27"><a xlink:href="/type/Metamodel::ParametricRoleHOW" xlink:title="Metamodel::ParametricRoleHOW">
<ellipse fill="none" stroke="#000000" cx="240.366" cy="324.696" rx="142.175" ry="18"/>
<text text-anchor="middle" x="240.366" y="328.396" font-family="FreeSans" font-size="14.00" fill="#000000">Metamodel::ParametricRoleHOW</text>
</a>
</g>
</g>
<!-- Metamodel::ParametricRoleHOW&#45;&gt;Metamodel::Versioning -->
<g id="edge34" class="edge"><title>Metamodel::ParametricRoleHOW&#45;&gt;Metamodel::Versioning</title>
<path fill="none" stroke="#6666ff" d="M142.244,311.61C116.933,308.234 89.7992,304.616 64.8643,301.29"/>
<polygon fill="#6666ff" stroke="#6666ff" points="64.1432,304.725 54.6936,299.934 65.0686,297.787 64.1432,304.725"/>
</g>
<!-- Metamodel::ParametricRoleHOW&#45;&gt;Any -->
<g id="edge4" class="edge"><title>Metamodel::ParametricRoleHOW&#45;&gt;Any</title>
<path fill="none" stroke="#000000" d="M216.373,342.643C146.868,394.634 -54.2472,545.073 -126.453,599.084"/>
<polygon fill="#000000" stroke="#000000" points="-124.497,601.992 -134.602,605.179 -128.69,596.387 -124.497,601.992"/>
</g>
<!-- Metamodel::ParametricRoleHOW&#45;&gt;Metamodel::Naming -->
<g id="edge32" class="edge"><title>Metamodel::ParametricRoleHOW&#45;&gt;Metamodel::Naming</title>
<path fill="none" stroke="#6666ff" d="M219.106,306.668C155.479,252.716 -33.5209,92.4544 -106.168,30.8534"/>
<polygon fill="#6666ff" stroke="#6666ff" points="-108.672,33.3194 -114.035,24.1825 -104.145,27.9804 -108.672,33.3194"/>
</g>
<!-- Metamodel::ParametricRoleHOW&#45;&gt;Metamodel::Documenting -->
<g id="edge33" class="edge"><title>Metamodel::ParametricRoleHOW&#45;&gt;Metamodel::Documenting</title>
<path fill="none" stroke="#6666ff" d="M201.858,307.218C93.9641,258.246 -211.05,119.804 -328.408,66.536"/>
<polygon fill="#6666ff" stroke="#6666ff" points="-329.862,69.7194 -337.522,62.3992 -326.969,63.3453 -329.862,69.7194"/>
</g>
<!-- Metamodel::ParametricRoleHOW&#45;&gt;Metamodel::Stashing -->
<g id="edge41" class="edge"><title>Metamodel::ParametricRoleHOW&#45;&gt;Metamodel::Stashing</title>
<path fill="none" stroke="#6666ff" d="M97.8812,324.9C9.38577,325.027 -102.356,325.187 -182.455,325.302"/>
<polygon fill="#6666ff" stroke="#6666ff" points="-182.55,328.802 -192.555,325.317 -182.56,321.802 -182.55,328.802"/>
</g>
<!-- Metamodel::ParametricRoleHOW&#45;&gt;Metamodel::TypePretense -->
<g id="edge42" class="edge"><title>Metamodel::ParametricRoleHOW&#45;&gt;Metamodel::TypePretense</title>
<path fill="none" stroke="#6666ff" d="M234.708,342.948C219.03,393.525 174.955,535.708 156.252,596.045"/>
<polygon fill="#6666ff" stroke="#6666ff" points="159.575,597.146 153.271,605.661 152.889,595.073 159.575,597.146"/>
</g>
<!-- Metamodel::ParametricRoleHOW&#45;&gt;Metamodel::AttributeContainer -->
<g id="edge38" class="edge"><title>Metamodel::ParametricRoleHOW&#45;&gt;Metamodel::AttributeContainer</title>
<path fill="none" stroke="#6666ff" d="M282.131,307.446C402.05,257.915 747.172,115.367 877.791,61.4169"/>
<polygon fill="#6666ff" stroke="#6666ff" points="876.608,58.1185 887.187,57.5358 879.281,64.5884 876.608,58.1185"/>
</g>
<!-- Metamodel::ParametricRoleHOW&#45;&gt;Metamodel::MethodContainer -->
<g id="edge35" class="edge"><title>Metamodel::ParametricRoleHOW&#45;&gt;Metamodel::MethodContainer</title>
<path fill="none" stroke="#6666ff" d="M246.357,306.658C262.249,258.807 305.563,128.386 324.634,70.9629"/>
<polygon fill="#6666ff" stroke="#6666ff" points="321.322,69.8299 327.795,61.4428 327.965,72.0363 321.322,69.8299"/>
</g>
<!-- Metamodel::ParametricRoleHOW&#45;&gt;Metamodel::PrivateMethodContainer -->
<g id="edge36" class="edge"><title>Metamodel::ParametricRoleHOW&#45;&gt;Metamodel::PrivateMethodContainer</title>
<path fill="none" stroke="#6666ff" d="M258.768,306.685C349.038,218.328 740.718,-165.049 740.718,-165.049 740.718,-165.049 858.244,-369.079 901.344,-443.904"/>
<polygon fill="#6666ff" stroke="#6666ff" points="898.426,-445.851 906.451,-452.769 904.492,-442.357 898.426,-445.851"/>
</g>
<!-- Metamodel::ParametricRoleHOW&#45;&gt;Metamodel::MultiMethodContainer -->
<g id="edge37" class="edge"><title>Metamodel::ParametricRoleHOW&#45;&gt;Metamodel::MultiMethodContainer</title>
<path fill="none" stroke="#6666ff" d="M254.622,306.65C303.725,244.49 462.843,43.0596 462.843,43.0596 462.843,43.0596 540.988,-81.9569 576.122,-138.163"/>
<polygon fill="#6666ff" stroke="#6666ff" points="573.301,-140.253 581.569,-146.877 579.236,-136.542 573.301,-140.253"/>
</g>
<!-- Metamodel::ParametricRoleHOW&#45;&gt;Metamodel::RoleContainer -->
<g id="edge39" class="edge"><title>Metamodel::ParametricRoleHOW&#45;&gt;Metamodel::RoleContainer</title>
<path fill="none" stroke="#6666ff" d="M238.092,306.667C230.258,244.565 204.871,43.3225 204.871,43.3225 204.871,43.3225 225.27,17.8441 225.27,17.8441 225.27,17.8441 247.442,-150.663 256.435,-219.011"/>
<polygon fill="#6666ff" stroke="#6666ff" points="252.986,-219.621 257.76,-229.079 259.926,-218.708 252.986,-219.621"/>
</g>
<!-- Metamodel::ParametricRoleHOW&#45;&gt;Metamodel::MultipleInheritance -->
<g id="edge40" class="edge"><title>Metamodel::ParametricRoleHOW&#45;&gt;Metamodel::MultipleInheritance</title>
<path fill="none" stroke="#6666ff" d="M231.398,306.426C205.975,254.64 133.334,106.666 103.168,45.2174"/>
<polygon fill="#6666ff" stroke="#6666ff" points="99.9703,46.6452 98.7053,36.1262 106.254,43.5605 99.9703,46.6452"/>
</g>
<!-- Metamodel::ParametricRoleHOW&#45;&gt;Metamodel::RolePunning -->
<g id="edge43" class="edge"><title>Metamodel::ParametricRoleHOW&#45;&gt;Metamodel::RolePunning</title>
<path fill="none" stroke="#6666ff" d="M291.325,341.519C412.426,381.499 716.896,482.016 845.281,524.401"/>
<polygon fill="#6666ff" stroke="#6666ff" points="846.551,521.134 854.95,527.593 844.357,527.782 846.551,521.134"/>
</g>
<!-- Metamodel::ConcreteRoleHOW -->
<g id="node28" class="node"><title>Metamodel::ConcreteRoleHOW</title>
<g id="a_node28"><a xlink:href="/type/Metamodel::ConcreteRoleHOW" xlink:title="Metamodel::ConcreteRoleHOW">
<ellipse fill="none" stroke="#000000" cx="584.433" cy="246.156" rx="135.676" ry="18"/>
<text text-anchor="middle" x="584.433" y="249.856" font-family="FreeSans" font-size="14.00" fill="#000000">Metamodel::ConcreteRoleHOW</text>
</a>
</g>
</g>
<!-- Metamodel::ConcreteRoleHOW&#45;&gt;Metamodel::Versioning -->
<g id="edge45" class="edge"><title>Metamodel::ConcreteRoleHOW&#45;&gt;Metamodel::Versioning</title>
<path fill="none" stroke="#6666ff" d="M464.157,254.624C351.568,262.55 185.076,274.272 78.011,281.81"/>
<polygon fill="#6666ff" stroke="#6666ff" points="78.0604,285.315 67.8392,282.526 77.5687,278.332 78.0604,285.315"/>
</g>
<!-- Metamodel::ConcreteRoleHOW&#45;&gt;Any -->
<g id="edge5" class="edge"><title>Metamodel::ConcreteRoleHOW&#45;&gt;Any</title>
<path fill="none" stroke="#000000" d="M549.871,263.624C424.755,326.858 -3.39088,543.244 -121.982,603.18"/>
<polygon fill="#000000" stroke="#000000" points="-120.42,606.312 -130.923,607.699 -123.577,600.064 -120.42,606.312"/>
</g>
<!-- Metamodel::ConcreteRoleHOW&#45;&gt;Metamodel::Naming -->
<g id="edge44" class="edge"><title>Metamodel::ConcreteRoleHOW&#45;&gt;Metamodel::Naming</title>
<path fill="none" stroke="#6666ff" d="M534.126,229.389C404.238,186.098 58.2745,70.7905 -78.3873,25.2421"/>
<polygon fill="#6666ff" stroke="#6666ff" points="-79.867,28.4382 -88.2473,21.9558 -77.6536,21.7974 -79.867,28.4382"/>
</g>
<!-- Metamodel::ConcreteRoleHOW&#45;&gt;Metamodel::AttributeContainer -->
<g id="edge49" class="edge"><title>Metamodel::ConcreteRoleHOW&#45;&gt;Metamodel::AttributeContainer</title>
<path fill="none" stroke="#6666ff" d="M614.084,228.434C676.365,191.209 820.749,104.912 890.127,63.4454"/>
<polygon fill="#6666ff" stroke="#6666ff" points="888.624,60.2659 899.003,58.1397 892.215,66.2745 888.624,60.2659"/>
</g>
<!-- Metamodel::ConcreteRoleHOW&#45;&gt;Metamodel::MethodContainer -->
<g id="edge47" class="edge"><title>Metamodel::ConcreteRoleHOW&#45;&gt;Metamodel::MethodContainer</title>
<path fill="none" stroke="#6666ff" d="M562.196,228.144C517.153,191.659 415.091,108.99 364.072,67.6647"/>
<polygon fill="#6666ff" stroke="#6666ff" points="361.612,70.1764 356.044,61.1625 366.018,64.7369 361.612,70.1764"/>
</g>
<!-- Metamodel::ConcreteRoleHOW&#45;&gt;Metamodel::PrivateMethodContainer -->
<g id="edge46" class="edge"><title>Metamodel::ConcreteRoleHOW&#45;&gt;Metamodel::PrivateMethodContainer</title>
<path fill="none" stroke="#6666ff" d="M592.819,228.07C637.742,131.184 849.901,-326.39 904.243,-443.591"/>
<polygon fill="#6666ff" stroke="#6666ff" points="901.202,-445.354 908.584,-452.954 907.553,-442.409 901.202,-445.354"/>
</g>
<!-- Metamodel::ConcreteRoleHOW&#45;&gt;Metamodel::MultiMethodContainer -->
<g id="edge48" class="edge"><title>Metamodel::ConcreteRoleHOW&#45;&gt;Metamodel::MultiMethodContainer</title>
<path fill="none" stroke="#6666ff" d="M584.807,227.96C586.14,163.099 590.666,-57.1246 592.293,-136.315"/>
<polygon fill="#6666ff" stroke="#6666ff" points="588.798,-136.596 592.503,-146.522 595.796,-136.453 588.798,-136.596"/>
</g>
<!-- Metamodel::ConcreteRoleHOW&#45;&gt;Metamodel::RoleContainer -->
<g id="edge50" class="edge"><title>Metamodel::ConcreteRoleHOW&#45;&gt;Metamodel::RoleContainer</title>
<path fill="none" stroke="#6666ff" d="M573.643,228.132C543.885,178.427 462.843,43.0596 462.843,43.0596 462.843,43.0596 328.911,-148.809 278.791,-220.611"/>
<polygon fill="#6666ff" stroke="#6666ff" points="275.691,-218.937 272.837,-229.141 281.431,-222.944 275.691,-218.937"/>
</g>
<!-- Metamodel::ConcreteRoleHOW&#45;&gt;Metamodel::MultipleInheritance -->
<g id="edge51" class="edge"><title>Metamodel::ConcreteRoleHOW&#45;&gt;Metamodel::MultipleInheritance</title>
<path fill="none" stroke="#6666ff" d="M546.848,228.816C457.826,187.747 234.276,84.6129 136.637,39.5678"/>
<polygon fill="#6666ff" stroke="#6666ff" points="134.926,42.6328 127.312,35.2656 137.858,36.2767 134.926,42.6328"/>
</g>
<!-- Metamodel::NativeHOW -->
<g id="node29" class="node"><title>Metamodel::NativeHOW</title>
<g id="a_node29"><a xlink:href="/type/Metamodel::NativeHOW" xlink:title="Metamodel::NativeHOW">
<ellipse fill="none" stroke="#000000" cx="-620.775" cy="257.96" rx="107.482" ry="18"/>
<text text-anchor="middle" x="-620.775" y="261.66" font-family="FreeSans" font-size="14.00" fill="#000000">Metamodel::NativeHOW</text>
</a>
</g>
</g>
<!-- Metamodel::NativeHOW&#45;&gt;Metamodel::Versioning -->
<g id="edge54" class="edge"><title>Metamodel::NativeHOW&#45;&gt;Metamodel::Versioning</title>
<path fill="none" stroke="#6666ff" d="M-518.225,263.339C-410.628,268.983 -242.263,277.813 -133.071,283.541"/>
<polygon fill="#6666ff" stroke="#6666ff" points="-132.824,280.049 -123.021,284.068 -133.19,287.039 -132.824,280.049"/>
</g>
<!-- Metamodel::NativeHOW&#45;&gt;Any -->
<g id="edge6" class="edge"><title>Metamodel::NativeHOW&#45;&gt;Any</title>
<path fill="none" stroke="#000000" d="M-597.879,275.603C-519.437,336.047 -261.792,534.578 -178.718,598.592"/>
<polygon fill="#000000" stroke="#000000" points="-176.576,595.824 -170.791,604.7 -180.848,601.369 -176.576,595.824"/>
</g>
<!-- Metamodel::NativeHOW&#45;&gt;Metamodel::Naming -->
<g id="edge52" class="edge"><title>Metamodel::NativeHOW&#45;&gt;Metamodel::Naming</title>
<path fill="none" stroke="#6666ff" d="M-587.39,240.666C-501.206,196.022 -271.396,76.9758 -176.718,27.9309"/>
<polygon fill="#6666ff" stroke="#6666ff" points="-178.209,24.7615 -167.72,23.2696 -174.989,30.9771 -178.209,24.7615"/>
</g>
<!-- Metamodel::NativeHOW&#45;&gt;Metamodel::Documenting -->
<g id="edge53" class="edge"><title>Metamodel::NativeHOW&#45;&gt;Metamodel::Documenting</title>
<path fill="none" stroke="#6666ff" d="M-600.262,240.194C-556.479,202.272 -453.8,113.337 -403.713,69.955"/>
<polygon fill="#6666ff" stroke="#6666ff" points="-405.707,67.0514 -395.857,63.15 -401.124,72.3426 -405.707,67.0514"/>
</g>
<!-- Metamodel::NativeHOW&#45;&gt;Metamodel::Stashing -->
<g id="edge55" class="edge"><title>Metamodel::NativeHOW&#45;&gt;Metamodel::Stashing</title>
<path fill="none" stroke="#6666ff" d="M-551.848,271.863C-496.26,283.075 -418.199,298.819 -361.074,310.341"/>
<polygon fill="#6666ff" stroke="#6666ff" points="-360.13,306.961 -351.02,312.369 -361.514,313.822 -360.13,306.961"/>
</g>
<!-- Metamodel::NativeHOW&#45;&gt;Metamodel::MultipleInheritance -->
<g id="edge56" class="edge"><title>Metamodel::NativeHOW&#45;&gt;Metamodel::MultipleInheritance</title>
<path fill="none" stroke="#6666ff" d="M-573.05,241.84C-447.399,199.399 -107.645,84.6385 30.3325,38.0334"/>
<polygon fill="#6666ff" stroke="#6666ff" points="29.3182,34.6817 39.9124,34.7975 31.5583,41.3136 29.3182,34.6817"/>
</g>
<!-- Metamodel::NativeHOW&#45;&gt;Metamodel::C3MRO -->
<g id="edge57" class="edge"><title>Metamodel::NativeHOW&#45;&gt;Metamodel::C3MRO</title>
<path fill="none" stroke="#6666ff" d="M-609.991,239.827C-564.434,163.22 -387.604,-134.127 -333.562,-225.001"/>
<polygon fill="#6666ff" stroke="#6666ff" points="-336.559,-226.81 -328.439,-233.616 -330.542,-223.232 -336.559,-226.81"/>
</g>
<!-- Metamodel::NativeHOW&#45;&gt;Metamodel::MROBasedMethodDispatch -->
<g id="edge58" class="edge"><title>Metamodel::NativeHOW&#45;&gt;Metamodel::MROBasedMethodDispatch</title>
<path fill="none" stroke="#6666ff" d="M-628.889,240.009C-672.921,142.602 -883.145,-322.458 -936.641,-440.804"/>
<polygon fill="#6666ff" stroke="#6666ff" points="-939.844,-439.393 -940.774,-449.947 -933.466,-442.276 -939.844,-439.393"/>
</g>
<!-- Metamodel::NativeHOW&#45;&gt;Metamodel::MROBasedTypeChecking -->
<g id="edge59" class="edge"><title>Metamodel::NativeHOW&#45;&gt;Metamodel::MROBasedTypeChecking</title>
<path fill="none" stroke="#6666ff" d="M-621.631,239.895C-624.72,174.754 -635.301,-48.4059 -639.069,-127.884"/>
<polygon fill="#6666ff" stroke="#6666ff" points="-642.576,-127.959 -639.554,-138.114 -635.584,-128.291 -642.576,-127.959"/>
</g>
</g>
</svg>
