<?xml version="1.0" encoding="UTF-8" standalone="no"?>
<!DOCTYPE svg PUBLIC "-//W3C//DTD SVG 1.1//EN"
 "http://www.w3.org/Graphics/SVG/1.1/DTD/svg11.dtd">
<!-- Generated by graphviz version 2.38.0 (20140413.2041)
 -->
<!-- Title: perl6&#45;type&#45;graph Pages: 1 -->
<svg width="458pt" height="179pt"
 viewBox="0.00 0.00 458.46 178.52" xmlns="http://www.w3.org/2000/svg" xmlns:xlink="http://www.w3.org/1999/xlink">
<g id="graph0" class="graph" transform="scale(1 1) rotate(0) translate(270.001 83.6813)">
<title>perl6&#45;type&#45;graph</title>
<polygon fill="white" stroke="none" points="-270.001,94.842 -270.001,-83.6813 188.455,-83.6813 188.455,94.842 -270.001,94.842"/>
<!-- X::Comp::Trait::Scope -->
<g id="node1" class="node"><title>X::Comp::Trait::Scope</title>
<g id="a_node1"><a xlink:href="/type/X::Comp::Trait::Scope" xlink:title="X::Comp::Trait::Scope">
<ellipse fill="none" stroke="#000000" cx="-168.509" cy="13.3529" rx="97.4827" ry="18"/>
<text text-anchor="middle" x="-168.509" y="17.0529" font-family="FreeSans" font-size="14.00" fill="#000000">X::Comp::Trait::Scope</text>
</a>
</g>
</g>
<!-- Exception -->
<g id="node4" class="node"><title>Exception</title>
<g id="a_node4"><a xlink:href="/type/Exception" xlink:title="Exception">
<ellipse fill="none" stroke="#000000" cx="0.25714" cy="-20.9751" rx="49.2915" ry="18"/>
<text text-anchor="middle" x="0.25714" y="-17.2751" font-family="FreeSans" font-size="14.00" fill="#000000">Exception</text>
</a>
</g>
</g>
<!-- X::Comp::Trait::Scope&#45;&gt;Exception -->
<g id="edge2" class="edge"><title>X::Comp::Trait::Scope&#45;&gt;Exception</title>
<path fill="none" stroke="#000000" d="M-102.777,-0.0175319C-86.3015,-3.36864 -68.828,-6.92284 -53.0418,-10.1338"/>
<polygon fill="#000000" stroke="#000000" points="-53.4361,-13.6252 -42.9391,-12.1888 -52.0407,-6.76571 -53.4361,-13.6252"/>
</g>
<!-- X::Trait::Scope -->
<g id="node5" class="node"><title>X::Trait::Scope</title>
<g id="a_node5"><a xlink:href="/type/X::Trait::Scope" xlink:title="X::Trait::Scope">
<ellipse fill="none" stroke="#000000" cx="-47.1128" cy="72.842" rx="69.5877" ry="18"/>
<text text-anchor="middle" x="-47.1128" y="76.542" font-family="FreeSans" font-size="14.00" fill="#000000">X::Trait::Scope</text>
</a>
</g>
</g>
<!-- X::Comp::Trait::Scope&#45;&gt;X::Trait::Scope -->
<g id="edge1" class="edge"><title>X::Comp::Trait::Scope&#45;&gt;X::Trait::Scope</title>
<path fill="none" stroke="#000000" d="M-134.047,30.2409C-120.131,37.0601 -103.938,44.9956 -89.3243,52.1566"/>
<polygon fill="#000000" stroke="#000000" points="-87.429,49.1877 -79.9894,56.7311 -90.5094,55.4735 -87.429,49.1877"/>
</g>
<!-- X::Comp -->
<g id="node6" class="node"><title>X::Comp</title>
<g id="a_node6"><a xlink:href="/type/X::Comp" xlink:title="X::Comp">
<ellipse fill="none" stroke="#6666ff" cx="-78.9409" cy="-61.6813" rx="44.6926" ry="18"/>
<text text-anchor="middle" x="-78.9409" y="-57.9813" font-family="FreeSans" font-size="14.00" fill="#6666ff">X::Comp</text>
</a>
</g>
</g>
<!-- X::Comp::Trait::Scope&#45;&gt;X::Comp -->
<g id="edge7" class="edge"><title>X::Comp::Trait::Scope&#45;&gt;X::Comp</title>
<path fill="none" stroke="#6666ff" d="M-147.283,-4.42918C-135.03,-14.6933 -119.489,-27.7125 -106.324,-38.7414"/>
<polygon fill="#6666ff" stroke="#6666ff" points="-108.398,-41.5701 -98.4846,-45.3089 -103.903,-36.2042 -108.398,-41.5701"/>
</g>
<!-- Mu -->
<g id="node2" class="node"><title>Mu</title>
<g id="a_node2"><a xlink:href="/type/Mu" xlink:title="Mu">
<ellipse fill="none" stroke="#000000" cx="157.455" cy="-0.605553" rx="27" ry="18"/>
<text text-anchor="middle" x="157.455" y="3.09445" font-family="FreeSans" font-size="14.00" fill="#000000">Mu</text>
</a>
</g>
</g>
<!-- Any -->
<g id="node3" class="node"><title>Any</title>
<g id="a_node3"><a xlink:href="/type/Any" xlink:title="Any">
<ellipse fill="none" stroke="#000000" cx="74.1687" cy="17.9918" rx="27" ry="18"/>
<text text-anchor="middle" x="74.1687" y="21.6918" font-family="FreeSans" font-size="14.00" fill="#000000">Any</text>
</a>
</g>
</g>
<!-- Any&#45;&gt;Mu -->
<g id="edge3" class="edge"><title>Any&#45;&gt;Mu</title>
<path fill="none" stroke="#000000" d="M100.065,12.2094C106.802,10.705 114.184,9.05653 121.345,7.45769"/>
<polygon fill="#000000" stroke="#000000" points="121.053,3.93671 131.575,5.17324 122.578,10.7685 121.053,3.93671"/>
</g>
<!-- Exception&#45;&gt;Any -->
<g id="edge4" class="edge"><title>Exception&#45;&gt;Any</title>
<path fill="none" stroke="#000000" d="M28.6219,-6.02095C33.4842,-3.4575 38.5565,-0.783317 43.4763,1.81044"/>
<polygon fill="#000000" stroke="#000000" points="45.4402,-1.11083 52.6539,6.64895 42.1756,5.08132 45.4402,-1.11083"/>
</g>
<!-- X::Trait::Scope&#45;&gt;Exception -->
<g id="edge5" class="edge"><title>X::Trait::Scope&#45;&gt;Exception</title>
<path fill="none" stroke="#000000" d="M-37.9794,54.7531C-30.9884,40.9074 -21.236,21.5924 -13.3302,5.93485"/>
<polygon fill="#000000" stroke="#000000" points="-16.3192,4.08916 -8.68757,-3.25995 -10.0705,7.24425 -16.3192,4.08916"/>
</g>
<!-- X::Comp&#45;&gt;Exception -->
<g id="edge6" class="edge"><title>X::Comp&#45;&gt;Exception</title>
<path fill="none" stroke="#000000" d="M-51.2412,-47.4442C-46.729,-45.1251 -41.9896,-42.6891 -37.2888,-40.273"/>
<polygon fill="#000000" stroke="#000000" points="-35.6607,-43.3714 -28.3666,-35.6872 -38.8606,-37.1457 -35.6607,-43.3714"/>
</g>
</g>
</svg>
