<?xml version="1.0" encoding="UTF-8" standalone="no"?>
<!DOCTYPE svg PUBLIC "-//W3C//DTD SVG 1.1//EN"
 "http://www.w3.org/Graphics/SVG/1.1/DTD/svg11.dtd">
<!-- Generated by graphviz version 2.38.0 (20140413.2041)
 -->
<!-- Title: perl6&#45;type&#45;graph Pages: 1 -->
<svg width="778pt" height="476pt"
 viewBox="0.00 0.00 778.44 476.00" xmlns="http://www.w3.org/2000/svg" xmlns:xlink="http://www.w3.org/1999/xlink">
<g id="graph0" class="graph" transform="scale(1 1) rotate(0) translate(4 472)">
<title>perl6&#45;type&#45;graph</title>
<polygon fill="white" stroke="none" points="-4,4 -4,-472 774.441,-472 774.441,4 -4,4"/>
<!-- Associative -->
<g id="node1" class="node"><title>Associative</title>
<g id="a_node1"><a xlink:href="/type/Associative" xlink:title="Associative">
<ellipse fill="none" stroke="#6666ff" cx="55.2451" cy="-450" rx="55.4913" ry="18"/>
<text text-anchor="middle" x="55.2451" y="-446.3" font-family="FreeSans" font-size="14.00" fill="#6666ff">Associative</text>
</a>
</g>
</g>
<!-- QuantHash -->
<g id="node2" class="node"><title>QuantHash</title>
<g id="a_node2"><a xlink:href="/type/QuantHash" xlink:title="QuantHash">
<ellipse fill="none" stroke="#6666ff" cx="483.245" cy="-378" rx="55.7903" ry="18"/>
<text text-anchor="middle" x="483.245" y="-374.3" font-family="FreeSans" font-size="14.00" fill="#6666ff">QuantHash</text>
</a>
</g>
</g>
<!-- QuantHash&#45;&gt;Associative -->
<g id="edge14" class="edge"><title>QuantHash&#45;&gt;Associative</title>
<path fill="none" stroke="#6666ff" d="M435.745,-387.5C411.995,-391.75 388.245,-396 388.245,-396 388.245,-396 209.301,-424.481 113.765,-439.686"/>
<polygon fill="#6666ff" stroke="#6666ff" points="112.992,-436.265 103.666,-441.293 114.092,-443.178 112.992,-436.265"/>
</g>
<!-- Mu -->
<g id="node3" class="node"><title>Mu</title>
<g id="a_node3"><a xlink:href="/type/Mu" xlink:title="Mu">
<ellipse fill="none" stroke="#000000" cx="352.245" cy="-378" rx="27" ry="18"/>
<text text-anchor="middle" x="352.245" y="-374.3" font-family="FreeSans" font-size="14.00" fill="#000000">Mu</text>
</a>
</g>
</g>
<!-- Any -->
<g id="node4" class="node"><title>Any</title>
<g id="a_node4"><a xlink:href="/type/Any" xlink:title="Any">
<ellipse fill="none" stroke="#000000" cx="352.245" cy="-306" rx="27" ry="18"/>
<text text-anchor="middle" x="352.245" y="-302.3" font-family="FreeSans" font-size="14.00" fill="#000000">Any</text>
</a>
</g>
</g>
<!-- Any&#45;&gt;Mu -->
<g id="edge1" class="edge"><title>Any&#45;&gt;Mu</title>
<path fill="none" stroke="#000000" d="M352.245,-324.303C352.245,-332.017 352.245,-341.288 352.245,-349.888"/>
<polygon fill="#000000" stroke="#000000" points="348.745,-349.896 352.245,-359.896 355.745,-349.896 348.745,-349.896"/>
</g>
<!-- Pair -->
<g id="node5" class="node"><title>Pair</title>
<g id="a_node5"><a xlink:href="/type/Pair" xlink:title="Pair">
<ellipse fill="none" stroke="#000000" cx="55.2451" cy="-234" rx="27" ry="18"/>
<text text-anchor="middle" x="55.2451" y="-230.3" font-family="FreeSans" font-size="14.00" fill="#000000">Pair</text>
</a>
</g>
</g>
<!-- Pair&#45;&gt;Associative -->
<g id="edge15" class="edge"><title>Pair&#45;&gt;Associative</title>
<path fill="none" stroke="#6666ff" d="M55.2451,-252.151C55.2451,-289.168 55.2451,-376.819 55.2451,-421.614"/>
<polygon fill="#6666ff" stroke="#6666ff" points="51.7452,-421.768 55.2451,-431.768 58.7452,-421.768 51.7452,-421.768"/>
</g>
<!-- Pair&#45;&gt;Any -->
<g id="edge2" class="edge"><title>Pair&#45;&gt;Any</title>
<path fill="none" stroke="#000000" d="M76.6025,-245.085C84.3545,-248.746 91.2451,-252 91.2451,-252 91.2451,-252 245.522,-283.328 316.85,-297.813"/>
<polygon fill="#000000" stroke="#000000" points="316.248,-301.262 326.744,-299.822 317.641,-294.402 316.248,-301.262"/>
</g>
<!-- Cool -->
<g id="node6" class="node"><title>Cool</title>
<g id="a_node6"><a xlink:href="/type/Cool" xlink:title="Cool">
<ellipse fill="none" stroke="#000000" cx="227.245" cy="-234" rx="28.6953" ry="18"/>
<text text-anchor="middle" x="227.245" y="-230.3" font-family="FreeSans" font-size="14.00" fill="#000000">Cool</text>
</a>
</g>
</g>
<!-- Cool&#45;&gt;Any -->
<g id="edge3" class="edge"><title>Cool&#45;&gt;Any</title>
<path fill="none" stroke="#000000" d="M247.886,-246.559C268.364,-258.027 299.937,-275.708 322.994,-288.619"/>
<polygon fill="#000000" stroke="#000000" points="321.553,-291.824 331.988,-293.656 324.973,-285.716 321.553,-291.824"/>
</g>
<!-- Iterable -->
<g id="node7" class="node"><title>Iterable</title>
<g id="a_node7"><a xlink:href="/type/Iterable" xlink:title="Iterable">
<ellipse fill="none" stroke="#6666ff" cx="140.245" cy="-234" rx="40.0939" ry="18"/>
<text text-anchor="middle" x="140.245" y="-230.3" font-family="FreeSans" font-size="14.00" fill="#6666ff">Iterable</text>
</a>
</g>
</g>
<!-- Map -->
<g id="node8" class="node"><title>Map</title>
<g id="a_node8"><a xlink:href="/type/Map" xlink:title="Map">
<ellipse fill="none" stroke="#000000" cx="140.245" cy="-162" rx="28.6953" ry="18"/>
<text text-anchor="middle" x="140.245" y="-158.3" font-family="FreeSans" font-size="14.00" fill="#000000">Map</text>
</a>
</g>
</g>
<!-- Map&#45;&gt;Associative -->
<g id="edge17" class="edge"><title>Map&#45;&gt;Associative</title>
<path fill="none" stroke="#6666ff" d="M117.486,-172.969C82.4352,-188.322 19.2451,-216 19.2451,-216 19.2451,-216 19.2451,-252 19.2451,-252 19.2451,-252 40.4352,-367.957 50.3008,-421.944"/>
<polygon fill="#6666ff" stroke="#6666ff" points="46.8726,-422.654 52.1133,-431.862 53.7586,-421.396 46.8726,-422.654"/>
</g>
<!-- Map&#45;&gt;Cool -->
<g id="edge4" class="edge"><title>Map&#45;&gt;Cool</title>
<path fill="none" stroke="#000000" d="M157.433,-176.83C170.266,-187.155 187.993,-201.418 202.371,-212.987"/>
<polygon fill="#000000" stroke="#000000" points="200.403,-215.895 210.388,-219.437 204.791,-210.441 200.403,-215.895"/>
</g>
<!-- Map&#45;&gt;Iterable -->
<g id="edge16" class="edge"><title>Map&#45;&gt;Iterable</title>
<path fill="none" stroke="#6666ff" d="M140.245,-180.303C140.245,-188.017 140.245,-197.288 140.245,-205.888"/>
<polygon fill="#6666ff" stroke="#6666ff" points="136.745,-205.896 140.245,-215.896 143.745,-205.896 136.745,-205.896"/>
</g>
<!-- Hash -->
<g id="node9" class="node"><title>Hash</title>
<g id="a_node9"><a xlink:href="/type/Hash" xlink:title="Hash">
<ellipse fill="none" stroke="#000000" cx="84.2451" cy="-90" rx="31.3957" ry="18"/>
<text text-anchor="middle" x="84.2451" y="-86.3" font-family="FreeSans" font-size="14.00" fill="#000000">Hash</text>
</a>
</g>
</g>
<!-- Hash&#45;&gt;Map -->
<g id="edge5" class="edge"><title>Hash&#45;&gt;Map</title>
<path fill="none" stroke="#000000" d="M96.6733,-106.535C103.996,-115.689 113.402,-127.446 121.599,-137.693"/>
<polygon fill="#000000" stroke="#000000" points="118.872,-139.886 127.852,-145.508 124.338,-135.513 118.872,-139.886"/>
</g>
<!-- PseudoStash -->
<g id="node10" class="node"><title>PseudoStash</title>
<g id="a_node10"><a xlink:href="/type/PseudoStash" xlink:title="PseudoStash">
<ellipse fill="none" stroke="#000000" cx="196.245" cy="-90" rx="63.0888" ry="18"/>
<text text-anchor="middle" x="196.245" y="-86.3" font-family="FreeSans" font-size="14.00" fill="#000000">PseudoStash</text>
</a>
</g>
</g>
<!-- PseudoStash&#45;&gt;Map -->
<g id="edge6" class="edge"><title>PseudoStash&#45;&gt;Map</title>
<path fill="none" stroke="#000000" d="M182.689,-107.945C175.579,-116.833 166.757,-127.86 159.002,-137.554"/>
<polygon fill="#000000" stroke="#000000" points="156.044,-135.648 152.53,-145.644 161.51,-140.021 156.044,-135.648"/>
</g>
<!-- Setty -->
<g id="node11" class="node"><title>Setty</title>
<g id="a_node11"><a xlink:href="/type/Setty" xlink:title="Setty">
<ellipse fill="none" stroke="#6666ff" cx="567.245" cy="-306" rx="30.5947" ry="18"/>
<text text-anchor="middle" x="567.245" y="-302.3" font-family="FreeSans" font-size="14.00" fill="#6666ff">Setty</text>
</a>
</g>
</g>
<!-- Setty&#45;&gt;QuantHash -->
<g id="edge18" class="edge"><title>Setty&#45;&gt;QuantHash</title>
<path fill="none" stroke="#6666ff" d="M550.246,-321.166C538.813,-330.694 523.493,-343.46 510.388,-354.381"/>
<polygon fill="#6666ff" stroke="#6666ff" points="508.011,-351.806 502.569,-360.897 512.492,-357.184 508.011,-351.806"/>
</g>
<!-- Baggy -->
<g id="node12" class="node"><title>Baggy</title>
<g id="a_node12"><a xlink:href="/type/Baggy" xlink:title="Baggy">
<ellipse fill="none" stroke="#6666ff" cx="483.245" cy="-306" rx="35.9954" ry="18"/>
<text text-anchor="middle" x="483.245" y="-302.3" font-family="FreeSans" font-size="14.00" fill="#6666ff">Baggy</text>
</a>
</g>
</g>
<!-- Baggy&#45;&gt;QuantHash -->
<g id="edge19" class="edge"><title>Baggy&#45;&gt;QuantHash</title>
<path fill="none" stroke="#6666ff" d="M483.245,-324.303C483.245,-332.017 483.245,-341.288 483.245,-349.888"/>
<polygon fill="#6666ff" stroke="#6666ff" points="479.745,-349.896 483.245,-359.896 486.745,-349.896 479.745,-349.896"/>
</g>
<!-- Stash -->
<g id="node13" class="node"><title>Stash</title>
<g id="a_node13"><a xlink:href="/type/Stash" xlink:title="Stash">
<ellipse fill="none" stroke="#000000" cx="84.2451" cy="-18" rx="33.2948" ry="18"/>
<text text-anchor="middle" x="84.2451" y="-14.3" font-family="FreeSans" font-size="14.00" fill="#000000">Stash</text>
</a>
</g>
</g>
<!-- Stash&#45;&gt;Hash -->
<g id="edge7" class="edge"><title>Stash&#45;&gt;Hash</title>
<path fill="none" stroke="#000000" d="M84.2451,-36.3034C84.2451,-44.0173 84.2451,-53.2875 84.2451,-61.8876"/>
<polygon fill="#000000" stroke="#000000" points="80.7452,-61.8956 84.2451,-71.8957 87.7452,-61.8957 80.7452,-61.8956"/>
</g>
<!-- SetHash -->
<g id="node14" class="node"><title>SetHash</title>
<g id="a_node14"><a xlink:href="/type/SetHash" xlink:title="SetHash">
<ellipse fill="none" stroke="#000000" cx="726.245" cy="-234" rx="44.393" ry="18"/>
<text text-anchor="middle" x="726.245" y="-230.3" font-family="FreeSans" font-size="14.00" fill="#000000">SetHash</text>
</a>
</g>
</g>
<!-- SetHash&#45;&gt;Any -->
<g id="edge8" class="edge"><title>SetHash&#45;&gt;Any</title>
<path fill="none" stroke="#000000" d="M692.679,-245.766C682.161,-249.14 673.245,-252 673.245,-252 673.245,-252 438.245,-288 438.245,-288 438.245,-288 411.551,-293.277 387.908,-297.95"/>
<polygon fill="#000000" stroke="#000000" points="387.179,-294.527 378.048,-299.899 388.537,-301.394 387.179,-294.527"/>
</g>
<!-- SetHash&#45;&gt;Setty -->
<g id="edge20" class="edge"><title>SetHash&#45;&gt;Setty</title>
<path fill="none" stroke="#6666ff" d="M697.451,-247.676C670.115,-259.712 629.05,-277.79 600.368,-290.418"/>
<polygon fill="#6666ff" stroke="#6666ff" points="598.896,-287.241 591.154,-294.474 601.716,-293.648 598.896,-287.241"/>
</g>
<!-- Set -->
<g id="node15" class="node"><title>Set</title>
<g id="a_node15"><a xlink:href="/type/Set" xlink:title="Set">
<ellipse fill="none" stroke="#000000" cx="561.245" cy="-234" rx="27" ry="18"/>
<text text-anchor="middle" x="561.245" y="-230.3" font-family="FreeSans" font-size="14.00" fill="#000000">Set</text>
</a>
</g>
</g>
<!-- Set&#45;&gt;Any -->
<g id="edge9" class="edge"><title>Set&#45;&gt;Any</title>
<path fill="none" stroke="#000000" d="M539.888,-245.085C532.136,-248.746 525.245,-252 525.245,-252 525.245,-252 436.487,-279.192 386.121,-294.622"/>
<polygon fill="#000000" stroke="#000000" points="384.836,-291.355 376.3,-297.631 386.887,-298.048 384.836,-291.355"/>
</g>
<!-- Set&#45;&gt;Setty -->
<g id="edge21" class="edge"><title>Set&#45;&gt;Setty</title>
<path fill="none" stroke="#6666ff" d="M562.728,-252.303C563.389,-260.017 564.184,-269.288 564.921,-277.888"/>
<polygon fill="#6666ff" stroke="#6666ff" points="561.438,-278.231 565.779,-287.896 568.412,-277.633 561.438,-278.231"/>
</g>
<!-- Bag -->
<g id="node16" class="node"><title>Bag</title>
<g id="a_node16"><a xlink:href="/type/Bag" xlink:title="Bag">
<ellipse fill="none" stroke="#000000" cx="489.245" cy="-234" rx="27" ry="18"/>
<text text-anchor="middle" x="489.245" y="-230.3" font-family="FreeSans" font-size="14.00" fill="#000000">Bag</text>
</a>
</g>
</g>
<!-- Bag&#45;&gt;Any -->
<g id="edge10" class="edge"><title>Bag&#45;&gt;Any</title>
<path fill="none" stroke="#000000" d="M468.438,-245.631C445.504,-257.349 408.412,-276.302 382.318,-289.634"/>
<polygon fill="#000000" stroke="#000000" points="380.561,-286.602 373.248,-294.268 383.746,-292.835 380.561,-286.602"/>
</g>
<!-- Bag&#45;&gt;Baggy -->
<g id="edge22" class="edge"><title>Bag&#45;&gt;Baggy</title>
<path fill="none" stroke="#6666ff" d="M487.762,-252.303C487.101,-260.017 486.306,-269.288 485.569,-277.888"/>
<polygon fill="#6666ff" stroke="#6666ff" points="482.078,-277.633 484.711,-287.896 489.052,-278.231 482.078,-277.633"/>
</g>
<!-- BagHash -->
<g id="node17" class="node"><title>BagHash</title>
<g id="a_node17"><a xlink:href="/type/BagHash" xlink:title="BagHash">
<ellipse fill="none" stroke="#000000" cx="397.245" cy="-234" rx="46.5926" ry="18"/>
<text text-anchor="middle" x="397.245" y="-230.3" font-family="FreeSans" font-size="14.00" fill="#000000">BagHash</text>
</a>
</g>
</g>
<!-- BagHash&#45;&gt;Any -->
<g id="edge11" class="edge"><title>BagHash&#45;&gt;Any</title>
<path fill="none" stroke="#000000" d="M386.581,-251.589C381.066,-260.168 374.225,-270.809 368.104,-280.33"/>
<polygon fill="#000000" stroke="#000000" points="364.987,-278.707 362.523,-289.012 370.875,-282.493 364.987,-278.707"/>
</g>
<!-- BagHash&#45;&gt;Baggy -->
<g id="edge23" class="edge"><title>BagHash&#45;&gt;Baggy</title>
<path fill="none" stroke="#6666ff" d="M416.331,-250.535C428.379,-260.342 444.1,-273.138 457.276,-283.862"/>
<polygon fill="#6666ff" stroke="#6666ff" points="455.13,-286.629 465.095,-290.227 459.549,-281.2 455.13,-286.629"/>
</g>
<!-- Mixy -->
<g id="node18" class="node"><title>Mixy</title>
<g id="a_node18"><a xlink:href="/type/Mixy" xlink:title="Mixy">
<ellipse fill="none" stroke="#6666ff" cx="635.245" cy="-234" rx="29.4969" ry="18"/>
<text text-anchor="middle" x="635.245" y="-230.3" font-family="FreeSans" font-size="14.00" fill="#6666ff">Mixy</text>
</a>
</g>
</g>
<!-- Mixy&#45;&gt;Baggy -->
<g id="edge24" class="edge"><title>Mixy&#45;&gt;Baggy</title>
<path fill="none" stroke="#6666ff" d="M612.489,-245.48C587.488,-256.993 547.04,-275.621 518.05,-288.971"/>
<polygon fill="#6666ff" stroke="#6666ff" points="516.316,-285.917 508.697,-293.279 519.244,-292.275 516.316,-285.917"/>
</g>
<!-- MixHash -->
<g id="node19" class="node"><title>MixHash</title>
<g id="a_node19"><a xlink:href="/type/MixHash" xlink:title="MixHash">
<ellipse fill="none" stroke="#000000" cx="569.245" cy="-162" rx="45.4919" ry="18"/>
<text text-anchor="middle" x="569.245" y="-158.3" font-family="FreeSans" font-size="14.00" fill="#000000">MixHash</text>
</a>
</g>
</g>
<!-- MixHash&#45;&gt;Any -->
<g id="edge12" class="edge"><title>MixHash&#45;&gt;Any</title>
<path fill="none" stroke="#000000" d="M531.083,-171.871C466.177,-186.959 341.245,-216 341.245,-216 341.245,-216 341.245,-252 341.245,-252 341.245,-252 343.94,-264.983 346.662,-278.097"/>
<polygon fill="#000000" stroke="#000000" points="343.245,-278.859 348.704,-287.939 350.099,-277.436 343.245,-278.859"/>
</g>
<!-- MixHash&#45;&gt;Mixy -->
<g id="edge25" class="edge"><title>MixHash&#45;&gt;Mixy</title>
<path fill="none" stroke="#6666ff" d="M584.553,-179.235C593.292,-188.504 604.382,-200.266 613.959,-210.424"/>
<polygon fill="#6666ff" stroke="#6666ff" points="611.517,-212.936 620.924,-217.811 616.61,-208.134 611.517,-212.936"/>
</g>
<!-- Mix -->
<g id="node20" class="node"><title>Mix</title>
<g id="a_node20"><a xlink:href="/type/Mix" xlink:title="Mix">
<ellipse fill="none" stroke="#000000" cx="349.245" cy="-162" rx="27" ry="18"/>
<text text-anchor="middle" x="349.245" y="-158.3" font-family="FreeSans" font-size="14.00" fill="#000000">Mix</text>
</a>
</g>
</g>
<!-- Mix&#45;&gt;Any -->
<g id="edge13" class="edge"><title>Mix&#45;&gt;Any</title>
<path fill="none" stroke="#000000" d="M337.386,-178.33C325.277,-193.983 308.245,-216 308.245,-216 308.245,-216 308.245,-252 308.245,-252 308.245,-252 321.416,-267.865 333.346,-282.235"/>
<polygon fill="#000000" stroke="#000000" points="330.674,-284.496 339.754,-289.954 336.06,-280.024 330.674,-284.496"/>
</g>
<!-- Mix&#45;&gt;Mixy -->
<g id="edge26" class="edge"><title>Mix&#45;&gt;Mixy</title>
<path fill="none" stroke="#6666ff" d="M374.851,-168.472C438.215,-182.014 597.245,-216 597.245,-216 597.245,-216 599.59,-217.049 603.115,-218.626"/>
<polygon fill="#6666ff" stroke="#6666ff" points="601.706,-221.83 612.264,-222.719 604.565,-215.44 601.706,-221.83"/>
</g>
</g>
</svg>
