<?xml version="1.0" encoding="UTF-8" standalone="no"?>
<!DOCTYPE svg PUBLIC "-//W3C//DTD SVG 1.1//EN"
 "http://www.w3.org/Graphics/SVG/1.1/DTD/svg11.dtd">
<!-- Generated by graphviz version 2.38.0 (20140413.2041)
 -->
<!-- Title: perl6&#45;type&#45;graph Pages: 1 -->
<svg width="504pt" height="332pt"
 viewBox="0.00 0.00 504.44 332.00" xmlns="http://www.w3.org/2000/svg" xmlns:xlink="http://www.w3.org/1999/xlink">
<g id="graph0" class="graph" transform="scale(1 1) rotate(0) translate(4 328)">
<title>perl6&#45;type&#45;graph</title>
<polygon fill="white" stroke="none" points="-4,4 -4,-328 500.443,-328 500.443,4 -4,4"/>
<!-- QuantHash -->
<g id="node1" class="node"><title>QuantHash</title>
<g id="a_node1"><a xlink:href="/type/QuantHash" xlink:title="QuantHash">
<ellipse fill="none" stroke="#6666ff" cx="129.196" cy="-234" rx="55.7903" ry="18"/>
<text text-anchor="middle" x="129.196" y="-230.3" font-family="FreeSans" font-size="14.00" fill="#6666ff">QuantHash</text>
</a>
</g>
</g>
<!-- Associative -->
<g id="node2" class="node"><title>Associative</title>
<g id="a_node2"><a xlink:href="/type/Associative" xlink:title="Associative">
<ellipse fill="none" stroke="#6666ff" cx="129.196" cy="-306" rx="55.4913" ry="18"/>
<text text-anchor="middle" x="129.196" y="-302.3" font-family="FreeSans" font-size="14.00" fill="#6666ff">Associative</text>
</a>
</g>
</g>
<!-- QuantHash&#45;&gt;Associative -->
<g id="edge8" class="edge"><title>QuantHash&#45;&gt;Associative</title>
<path fill="none" stroke="#6666ff" d="M129.196,-252.303C129.196,-260.017 129.196,-269.288 129.196,-277.888"/>
<polygon fill="#6666ff" stroke="#6666ff" points="125.696,-277.896 129.196,-287.896 132.696,-277.896 125.696,-277.896"/>
</g>
<!-- Setty -->
<g id="node3" class="node"><title>Setty</title>
<g id="a_node3"><a xlink:href="/type/Setty" xlink:title="Setty">
<ellipse fill="none" stroke="#6666ff" cx="129.196" cy="-162" rx="30.5947" ry="18"/>
<text text-anchor="middle" x="129.196" y="-158.3" font-family="FreeSans" font-size="14.00" fill="#6666ff">Setty</text>
</a>
</g>
</g>
<!-- Setty&#45;&gt;QuantHash -->
<g id="edge9" class="edge"><title>Setty&#45;&gt;QuantHash</title>
<path fill="none" stroke="#6666ff" d="M129.196,-180.303C129.196,-188.017 129.196,-197.288 129.196,-205.888"/>
<polygon fill="#6666ff" stroke="#6666ff" points="125.696,-205.896 129.196,-215.896 132.696,-205.896 125.696,-205.896"/>
</g>
<!-- Baggy -->
<g id="node4" class="node"><title>Baggy</title>
<g id="a_node4"><a xlink:href="/type/Baggy" xlink:title="Baggy">
<ellipse fill="none" stroke="#6666ff" cx="340.196" cy="-162" rx="35.9954" ry="18"/>
<text text-anchor="middle" x="340.196" y="-158.3" font-family="FreeSans" font-size="14.00" fill="#6666ff">Baggy</text>
</a>
</g>
</g>
<!-- Baggy&#45;&gt;QuantHash -->
<g id="edge10" class="edge"><title>Baggy&#45;&gt;QuantHash</title>
<path fill="none" stroke="#6666ff" d="M310.857,-172.733C276.053,-184.28 217.57,-203.682 176.379,-217.347"/>
<polygon fill="#6666ff" stroke="#6666ff" points="175.217,-214.045 166.827,-220.516 177.421,-220.689 175.217,-214.045"/>
</g>
<!-- Mu -->
<g id="node5" class="node"><title>Mu</title>
<g id="a_node5"><a xlink:href="/type/Mu" xlink:title="Mu">
<ellipse fill="none" stroke="#000000" cx="230.196" cy="-234" rx="27" ry="18"/>
<text text-anchor="middle" x="230.196" y="-230.3" font-family="FreeSans" font-size="14.00" fill="#000000">Mu</text>
</a>
</g>
</g>
<!-- Any -->
<g id="node6" class="node"><title>Any</title>
<g id="a_node6"><a xlink:href="/type/Any" xlink:title="Any">
<ellipse fill="none" stroke="#000000" cx="226.196" cy="-162" rx="27" ry="18"/>
<text text-anchor="middle" x="226.196" y="-158.3" font-family="FreeSans" font-size="14.00" fill="#000000">Any</text>
</a>
</g>
</g>
<!-- Any&#45;&gt;Mu -->
<g id="edge1" class="edge"><title>Any&#45;&gt;Mu</title>
<path fill="none" stroke="#000000" d="M227.185,-180.303C227.626,-188.017 228.155,-197.288 228.647,-205.888"/>
<polygon fill="#000000" stroke="#000000" points="225.154,-206.112 229.219,-215.896 232.142,-205.712 225.154,-206.112"/>
</g>
<!-- SetHash -->
<g id="node7" class="node"><title>SetHash</title>
<g id="a_node7"><a xlink:href="/type/SetHash" xlink:title="SetHash">
<ellipse fill="none" stroke="#000000" cx="44.1961" cy="-90" rx="44.393" ry="18"/>
<text text-anchor="middle" x="44.1961" y="-86.3" font-family="FreeSans" font-size="14.00" fill="#000000">SetHash</text>
</a>
</g>
</g>
<!-- SetHash&#45;&gt;Setty -->
<g id="edge11" class="edge"><title>SetHash&#45;&gt;Setty</title>
<path fill="none" stroke="#6666ff" d="M63.0603,-106.535C75.2113,-116.542 91.1418,-129.661 104.323,-140.516"/>
<polygon fill="#6666ff" stroke="#6666ff" points="102.172,-143.279 112.116,-146.934 106.622,-137.876 102.172,-143.279"/>
</g>
<!-- SetHash&#45;&gt;Any -->
<g id="edge2" class="edge"><title>SetHash&#45;&gt;Any</title>
<path fill="none" stroke="#000000" d="M75.483,-103.033C108.457,-115.716 160.158,-135.601 193.613,-148.468"/>
<polygon fill="#000000" stroke="#000000" points="192.779,-151.897 203.369,-152.22 195.292,-145.364 192.779,-151.897"/>
</g>
<!-- Set -->
<g id="node8" class="node"><title>Set</title>
<g id="a_node8"><a xlink:href="/type/Set" xlink:title="Set">
<ellipse fill="none" stroke="#000000" cx="133.196" cy="-90" rx="27" ry="18"/>
<text text-anchor="middle" x="133.196" y="-86.3" font-family="FreeSans" font-size="14.00" fill="#000000">Set</text>
</a>
</g>
</g>
<!-- Set&#45;&gt;Setty -->
<g id="edge12" class="edge"><title>Set&#45;&gt;Setty</title>
<path fill="none" stroke="#6666ff" d="M132.207,-108.303C131.767,-116.017 131.237,-125.288 130.745,-133.888"/>
<polygon fill="#6666ff" stroke="#6666ff" points="127.25,-133.712 130.173,-143.896 134.238,-134.112 127.25,-133.712"/>
</g>
<!-- Set&#45;&gt;Any -->
<g id="edge3" class="edge"><title>Set&#45;&gt;Any</title>
<path fill="none" stroke="#000000" d="M150.689,-104.166C164.718,-114.726 184.612,-129.7 200.458,-141.627"/>
<polygon fill="#000000" stroke="#000000" points="198.687,-144.675 208.782,-147.893 202.897,-139.082 198.687,-144.675"/>
</g>
<!-- Mixy -->
<g id="node9" class="node"><title>Mixy</title>
<g id="a_node9"><a xlink:href="/type/Mixy" xlink:title="Mixy">
<ellipse fill="none" stroke="#6666ff" cx="467.196" cy="-90" rx="29.4969" ry="18"/>
<text text-anchor="middle" x="467.196" y="-86.3" font-family="FreeSans" font-size="14.00" fill="#6666ff">Mixy</text>
</a>
</g>
</g>
<!-- Mixy&#45;&gt;Baggy -->
<g id="edge13" class="edge"><title>Mixy&#45;&gt;Baggy</title>
<path fill="none" stroke="#6666ff" d="M446.225,-102.559C426.073,-113.666 395.346,-130.602 372.149,-143.388"/>
<polygon fill="#6666ff" stroke="#6666ff" points="370.42,-140.345 363.351,-148.237 373.799,-146.475 370.42,-140.345"/>
</g>
<!-- BagHash -->
<g id="node10" class="node"><title>BagHash</title>
<g id="a_node10"><a xlink:href="/type/BagHash" xlink:title="BagHash">
<ellipse fill="none" stroke="#000000" cx="373.196" cy="-90" rx="46.5926" ry="18"/>
<text text-anchor="middle" x="373.196" y="-86.3" font-family="FreeSans" font-size="14.00" fill="#000000">BagHash</text>
</a>
</g>
</g>
<!-- BagHash&#45;&gt;Baggy -->
<g id="edge14" class="edge"><title>BagHash&#45;&gt;Baggy</title>
<path fill="none" stroke="#6666ff" d="M365.208,-107.945C361.397,-116.027 356.753,-125.879 352.506,-134.888"/>
<polygon fill="#6666ff" stroke="#6666ff" points="349.209,-133.673 348.111,-144.211 355.541,-136.658 349.209,-133.673"/>
</g>
<!-- BagHash&#45;&gt;Any -->
<g id="edge4" class="edge"><title>BagHash&#45;&gt;Any</title>
<path fill="none" stroke="#000000" d="M344.853,-104.497C319.7,-116.474 283.027,-133.938 257.123,-146.273"/>
<polygon fill="#000000" stroke="#000000" points="255.292,-143.268 247.768,-150.728 258.301,-149.588 255.292,-143.268"/>
</g>
<!-- Bag -->
<g id="node11" class="node"><title>Bag</title>
<g id="a_node11"><a xlink:href="/type/Bag" xlink:title="Bag">
<ellipse fill="none" stroke="#000000" cx="281.196" cy="-90" rx="27" ry="18"/>
<text text-anchor="middle" x="281.196" y="-86.3" font-family="FreeSans" font-size="14.00" fill="#000000">Bag</text>
</a>
</g>
</g>
<!-- Bag&#45;&gt;Baggy -->
<g id="edge15" class="edge"><title>Bag&#45;&gt;Baggy</title>
<path fill="none" stroke="#6666ff" d="M293.998,-106.189C301.593,-115.2 311.39,-126.823 320.006,-137.045"/>
<polygon fill="#6666ff" stroke="#6666ff" points="317.477,-139.476 326.598,-144.866 322.829,-134.964 317.477,-139.476"/>
</g>
<!-- Bag&#45;&gt;Any -->
<g id="edge5" class="edge"><title>Bag&#45;&gt;Any</title>
<path fill="none" stroke="#000000" d="M269.262,-106.189C261.983,-115.454 252.533,-127.48 244.342,-137.906"/>
<polygon fill="#000000" stroke="#000000" points="241.533,-135.815 238.107,-145.841 247.037,-140.14 241.533,-135.815"/>
</g>
<!-- Mix -->
<g id="node12" class="node"><title>Mix</title>
<g id="a_node12"><a xlink:href="/type/Mix" xlink:title="Mix">
<ellipse fill="none" stroke="#000000" cx="419.196" cy="-18" rx="27" ry="18"/>
<text text-anchor="middle" x="419.196" y="-14.3" font-family="FreeSans" font-size="14.00" fill="#000000">Mix</text>
</a>
</g>
</g>
<!-- Mix&#45;&gt;Any -->
<g id="edge6" class="edge"><title>Mix&#45;&gt;Any</title>
<path fill="none" stroke="#000000" d="M395.002,-26.3694C347.192,-40.9324 245.196,-72 245.196,-72 245.196,-72 237.546,-107.833 231.955,-134.025"/>
<polygon fill="#000000" stroke="#000000" points="228.524,-133.33 229.859,-143.84 235.37,-134.791 228.524,-133.33"/>
</g>
<!-- Mix&#45;&gt;Mixy -->
<g id="edge16" class="edge"><title>Mix&#45;&gt;Mixy</title>
<path fill="none" stroke="#6666ff" d="M430.088,-34.8841C436.164,-43.7445 443.856,-54.9627 450.66,-64.8848"/>
<polygon fill="#6666ff" stroke="#6666ff" points="447.805,-66.9108 456.347,-73.1788 453.578,-62.9521 447.805,-66.9108"/>
</g>
<!-- MixHash -->
<g id="node13" class="node"><title>MixHash</title>
<g id="a_node13"><a xlink:href="/type/MixHash" xlink:title="MixHash">
<ellipse fill="none" stroke="#000000" cx="235.196" cy="-18" rx="45.4919" ry="18"/>
<text text-anchor="middle" x="235.196" y="-14.3" font-family="FreeSans" font-size="14.00" fill="#000000">MixHash</text>
</a>
</g>
</g>
<!-- MixHash&#45;&gt;Any -->
<g id="edge7" class="edge"><title>MixHash&#45;&gt;Any</title>
<path fill="none" stroke="#000000" d="M227.919,-35.7695C221.18,-51.2969 212.196,-72 212.196,-72 212.196,-72 212.196,-108 212.196,-108 212.196,-108 215.669,-121.147 219.155,-134.345"/>
<polygon fill="#000000" stroke="#000000" points="215.828,-135.456 221.766,-144.23 222.596,-133.668 215.828,-135.456"/>
</g>
<!-- MixHash&#45;&gt;Mixy -->
<g id="edge17" class="edge"><title>MixHash&#45;&gt;Mixy</title>
<path fill="none" stroke="#6666ff" d="M271.686,-28.9689C327.883,-44.3217 429.196,-72 429.196,-72 429.196,-72 431.541,-73.0491 435.066,-74.626"/>
<polygon fill="#6666ff" stroke="#6666ff" points="433.657,-77.83 444.215,-78.7189 436.516,-71.4403 433.657,-77.83"/>
</g>
</g>
</svg>
