<?xml version="1.0" encoding="UTF-8" standalone="no"?>
<!DOCTYPE svg PUBLIC "-//W3C//DTD SVG 1.1//EN"
 "http://www.w3.org/Graphics/SVG/1.1/DTD/svg11.dtd">
<!-- Generated by graphviz version 2.38.0 (20140413.2041)
 -->
<!-- Title: perl6&#45;type&#45;graph Pages: 1 -->
<svg width="1509pt" height="332pt"
 viewBox="0.00 0.00 1509.24 332.00" xmlns="http://www.w3.org/2000/svg" xmlns:xlink="http://www.w3.org/1999/xlink">
<g id="graph0" class="graph" transform="scale(1 1) rotate(0) translate(4 328)">
<title>perl6&#45;type&#45;graph</title>
<polygon fill="white" stroke="none" points="-4,4 -4,-328 1505.24,-328 1505.24,4 -4,4"/>
<!-- Cool -->
<g id="node1" class="node"><title>Cool</title>
<g id="a_node1"><a xlink:href="/type/Cool" xlink:title="Cool">
<ellipse fill="none" stroke="#000000" cx="718.896" cy="-162" rx="28.6953" ry="18"/>
<text text-anchor="middle" x="718.896" y="-158.3" font-family="FreeSans" font-size="14.00" fill="#000000">Cool</text>
</a>
</g>
</g>
<!-- Any -->
<g id="node3" class="node"><title>Any</title>
<g id="a_node3"><a xlink:href="/type/Any" xlink:title="Any">
<ellipse fill="none" stroke="#000000" cx="662.896" cy="-234" rx="27" ry="18"/>
<text text-anchor="middle" x="662.896" y="-230.3" font-family="FreeSans" font-size="14.00" fill="#000000">Any</text>
</a>
</g>
</g>
<!-- Cool&#45;&gt;Any -->
<g id="edge1" class="edge"><title>Cool&#45;&gt;Any</title>
<path fill="none" stroke="#000000" d="M706.468,-178.535C699.145,-187.689 689.739,-199.446 681.542,-209.693"/>
<polygon fill="#000000" stroke="#000000" points="678.804,-207.513 675.29,-217.508 684.27,-211.886 678.804,-207.513"/>
</g>
<!-- Mu -->
<g id="node2" class="node"><title>Mu</title>
<g id="a_node2"><a xlink:href="/type/Mu" xlink:title="Mu">
<ellipse fill="none" stroke="#000000" cx="662.896" cy="-306" rx="27" ry="18"/>
<text text-anchor="middle" x="662.896" y="-302.3" font-family="FreeSans" font-size="14.00" fill="#000000">Mu</text>
</a>
</g>
</g>
<!-- Any&#45;&gt;Mu -->
<g id="edge2" class="edge"><title>Any&#45;&gt;Mu</title>
<path fill="none" stroke="#000000" d="M662.896,-252.303C662.896,-260.017 662.896,-269.288 662.896,-277.888"/>
<polygon fill="#000000" stroke="#000000" points="659.396,-277.896 662.896,-287.896 666.396,-277.896 659.396,-277.896"/>
</g>
<!-- Numeric -->
<g id="node4" class="node"><title>Numeric</title>
<g id="a_node4"><a xlink:href="/type/Numeric" xlink:title="Numeric">
<ellipse fill="none" stroke="#6666ff" cx="272.896" cy="-234" rx="44.393" ry="18"/>
<text text-anchor="middle" x="272.896" y="-230.3" font-family="FreeSans" font-size="14.00" fill="#6666ff">Numeric</text>
</a>
</g>
</g>
<!-- Real -->
<g id="node5" class="node"><title>Real</title>
<g id="a_node5"><a xlink:href="/type/Real" xlink:title="Real">
<ellipse fill="none" stroke="#6666ff" cx="300.896" cy="-162" rx="28.6953" ry="18"/>
<text text-anchor="middle" x="300.896" y="-158.3" font-family="FreeSans" font-size="14.00" fill="#6666ff">Real</text>
</a>
</g>
</g>
<!-- Real&#45;&gt;Numeric -->
<g id="edge20" class="edge"><title>Real&#45;&gt;Numeric</title>
<path fill="none" stroke="#6666ff" d="M294.261,-179.589C291.03,-187.665 287.069,-197.569 283.438,-206.645"/>
<polygon fill="#6666ff" stroke="#6666ff" points="280.143,-205.459 279.679,-216.044 286.642,-208.059 280.143,-205.459"/>
</g>
<!-- Num -->
<g id="node6" class="node"><title>Num</title>
<g id="a_node6"><a xlink:href="/type/Num" xlink:title="Num">
<ellipse fill="none" stroke="#000000" cx="512.896" cy="-90" rx="29.795" ry="18"/>
<text text-anchor="middle" x="512.896" y="-86.3" font-family="FreeSans" font-size="14.00" fill="#000000">Num</text>
</a>
</g>
</g>
<!-- Num&#45;&gt;Cool -->
<g id="edge3" class="edge"><title>Num&#45;&gt;Cool</title>
<path fill="none" stroke="#000000" d="M536.482,-101.281C544.696,-104.861 551.896,-108 551.896,-108 551.896,-108 635.404,-134.503 684.317,-150.026"/>
<polygon fill="#000000" stroke="#000000" points="683.304,-153.376 693.895,-153.065 685.422,-146.704 683.304,-153.376"/>
</g>
<!-- Num&#45;&gt;Real -->
<g id="edge21" class="edge"><title>Num&#45;&gt;Real</title>
<path fill="none" stroke="#6666ff" d="M489.31,-101.281C481.097,-104.861 473.896,-108 473.896,-108 473.896,-108 386.126,-134.889 335.619,-150.362"/>
<polygon fill="#6666ff" stroke="#6666ff" points="334.588,-147.018 326.052,-153.293 336.638,-153.711 334.588,-147.018"/>
</g>
<!-- Nil -->
<g id="node7" class="node"><title>Nil</title>
<g id="a_node7"><a xlink:href="/type/Nil" xlink:title="Nil">
<ellipse fill="none" stroke="#000000" cx="675.896" cy="-90" rx="27" ry="18"/>
<text text-anchor="middle" x="675.896" y="-86.3" font-family="FreeSans" font-size="14.00" fill="#000000">Nil</text>
</a>
</g>
</g>
<!-- Nil&#45;&gt;Cool -->
<g id="edge4" class="edge"><title>Nil&#45;&gt;Cool</title>
<path fill="none" stroke="#000000" d="M685.654,-106.884C690.966,-115.531 697.657,-126.425 703.642,-136.167"/>
<polygon fill="#000000" stroke="#000000" points="700.663,-138.004 708.879,-144.693 706.627,-134.34 700.663,-138.004"/>
</g>
<!-- Instant -->
<g id="node8" class="node"><title>Instant</title>
<g id="a_node8"><a xlink:href="/type/Instant" xlink:title="Instant">
<ellipse fill="none" stroke="#000000" cx="249.896" cy="-90" rx="37.0935" ry="18"/>
<text text-anchor="middle" x="249.896" y="-86.3" font-family="FreeSans" font-size="14.00" fill="#000000">Instant</text>
</a>
</g>
</g>
<!-- Instant&#45;&gt;Cool -->
<g id="edge5" class="edge"><title>Instant&#45;&gt;Cool</title>
<path fill="none" stroke="#000000" d="M278.506,-101.573C287.86,-105.03 295.896,-108 295.896,-108 295.896,-108 657.896,-144 657.896,-144 657.896,-144 669.879,-147.339 683.222,-151.058"/>
<polygon fill="#000000" stroke="#000000" points="682.454,-154.477 693.027,-153.79 684.333,-147.734 682.454,-154.477"/>
</g>
<!-- Instant&#45;&gt;Real -->
<g id="edge22" class="edge"><title>Instant&#45;&gt;Real</title>
<path fill="none" stroke="#6666ff" d="M261.725,-107.235C268.188,-116.107 276.316,-127.262 283.489,-137.108"/>
<polygon fill="#6666ff" stroke="#6666ff" points="280.765,-139.313 289.483,-145.334 286.423,-135.191 280.765,-139.313"/>
</g>
<!-- Positional -->
<g id="node9" class="node"><title>Positional</title>
<g id="a_node9"><a xlink:href="/type/Positional" xlink:title="Positional">
<ellipse fill="none" stroke="#6666ff" cx="916.896" cy="-162" rx="48.9926" ry="18"/>
<text text-anchor="middle" x="916.896" y="-158.3" font-family="FreeSans" font-size="14.00" fill="#6666ff">Positional</text>
</a>
</g>
</g>
<!-- Iterable -->
<g id="node10" class="node"><title>Iterable</title>
<g id="a_node10"><a xlink:href="/type/Iterable" xlink:title="Iterable">
<ellipse fill="none" stroke="#6666ff" cx="1023.9" cy="-162" rx="40.0939" ry="18"/>
<text text-anchor="middle" x="1023.9" y="-158.3" font-family="FreeSans" font-size="14.00" fill="#6666ff">Iterable</text>
</a>
</g>
</g>
<!-- Range -->
<g id="node11" class="node"><title>Range</title>
<g id="a_node11"><a xlink:href="/type/Range" xlink:title="Range">
<ellipse fill="none" stroke="#000000" cx="1010.9" cy="-90" rx="36.2938" ry="18"/>
<text text-anchor="middle" x="1010.9" y="-86.3" font-family="FreeSans" font-size="14.00" fill="#000000">Range</text>
</a>
</g>
</g>
<!-- Range&#45;&gt;Cool -->
<g id="edge6" class="edge"><title>Range&#45;&gt;Cool</title>
<path fill="none" stroke="#000000" d="M982.909,-101.573C973.758,-105.03 965.896,-108 965.896,-108 965.896,-108 786.896,-144 786.896,-144 786.896,-144 771.31,-147.897 755.061,-151.959"/>
<polygon fill="#000000" stroke="#000000" points="753.845,-148.655 744.992,-154.476 755.543,-155.446 753.845,-148.655"/>
</g>
<!-- Range&#45;&gt;Positional -->
<g id="edge23" class="edge"><title>Range&#45;&gt;Positional</title>
<path fill="none" stroke="#6666ff" d="M991.419,-105.504C978.293,-115.279 960.744,-128.347 945.974,-139.347"/>
<polygon fill="#6666ff" stroke="#6666ff" points="943.582,-136.764 937.652,-145.543 947.763,-142.378 943.582,-136.764"/>
</g>
<!-- Range&#45;&gt;Iterable -->
<g id="edge24" class="edge"><title>Range&#45;&gt;Iterable</title>
<path fill="none" stroke="#6666ff" d="M1014.04,-107.945C1015.47,-115.654 1017.21,-124.973 1018.81,-133.636"/>
<polygon fill="#6666ff" stroke="#6666ff" points="1015.42,-134.532 1020.69,-143.725 1022.3,-133.254 1015.42,-134.532"/>
</g>
<!-- Complex -->
<g id="node12" class="node"><title>Complex</title>
<g id="a_node12"><a xlink:href="/type/Complex" xlink:title="Complex">
<ellipse fill="none" stroke="#000000" cx="148.896" cy="-90" rx="45.4919" ry="18"/>
<text text-anchor="middle" x="148.896" y="-86.3" font-family="FreeSans" font-size="14.00" fill="#000000">Complex</text>
</a>
</g>
</g>
<!-- Complex&#45;&gt;Cool -->
<g id="edge7" class="edge"><title>Complex&#45;&gt;Cool</title>
<path fill="none" stroke="#000000" d="M183.729,-101.766C194.644,-105.14 203.896,-108 203.896,-108 203.896,-108 657.896,-144 657.896,-144 657.896,-144 669.879,-147.339 683.222,-151.058"/>
<polygon fill="#000000" stroke="#000000" points="682.454,-154.477 693.027,-153.79 684.333,-147.734 682.454,-154.477"/>
</g>
<!-- Complex&#45;&gt;Numeric -->
<g id="edge25" class="edge"><title>Complex&#45;&gt;Numeric</title>
<path fill="none" stroke="#6666ff" d="M163.121,-107.289C184.984,-132.327 226.96,-180.395 252.195,-209.293"/>
<polygon fill="#6666ff" stroke="#6666ff" points="249.624,-211.671 258.838,-216.901 254.896,-207.066 249.624,-211.671"/>
</g>
<!-- Associative -->
<g id="node13" class="node"><title>Associative</title>
<g id="a_node13"><a xlink:href="/type/Associative" xlink:title="Associative">
<ellipse fill="none" stroke="#6666ff" cx="1350.9" cy="-162" rx="55.4913" ry="18"/>
<text text-anchor="middle" x="1350.9" y="-158.3" font-family="FreeSans" font-size="14.00" fill="#6666ff">Associative</text>
</a>
</g>
</g>
<!-- Map -->
<g id="node14" class="node"><title>Map</title>
<g id="a_node14"><a xlink:href="/type/Map" xlink:title="Map">
<ellipse fill="none" stroke="#000000" cx="1165.9" cy="-90" rx="28.6953" ry="18"/>
<text text-anchor="middle" x="1165.9" y="-86.3" font-family="FreeSans" font-size="14.00" fill="#000000">Map</text>
</a>
</g>
</g>
<!-- Map&#45;&gt;Cool -->
<g id="edge8" class="edge"><title>Map&#45;&gt;Cool</title>
<path fill="none" stroke="#000000" d="M1143.35,-101.085C1135.17,-104.746 1127.9,-108 1127.9,-108 1127.9,-108 786.896,-144 786.896,-144 786.896,-144 771.31,-147.897 755.061,-151.959"/>
<polygon fill="#000000" stroke="#000000" points="753.845,-148.655 744.992,-154.476 755.543,-155.446 753.845,-148.655"/>
</g>
<!-- Map&#45;&gt;Iterable -->
<g id="edge26" class="edge"><title>Map&#45;&gt;Iterable</title>
<path fill="none" stroke="#6666ff" d="M1144.02,-101.784C1121.33,-112.968 1085.52,-130.622 1058.89,-143.747"/>
<polygon fill="#6666ff" stroke="#6666ff" points="1057.32,-140.622 1049.9,-148.183 1060.41,-146.901 1057.32,-140.622"/>
</g>
<!-- Map&#45;&gt;Associative -->
<g id="edge27" class="edge"><title>Map&#45;&gt;Associative</title>
<path fill="none" stroke="#6666ff" d="M1189.7,-100.008C1219.18,-111.16 1269.96,-130.377 1306.67,-144.265"/>
<polygon fill="#6666ff" stroke="#6666ff" points="1305.55,-147.585 1316.14,-147.851 1308.03,-141.038 1305.55,-147.585"/>
</g>
<!-- PositionalBindFailover -->
<g id="node15" class="node"><title>PositionalBindFailover</title>
<g id="a_node15"><a xlink:href="/type/PositionalBindFailover" xlink:title="PositionalBindFailover">
<ellipse fill="none" stroke="#6666ff" cx="1179.9" cy="-162" rx="97.4827" ry="18"/>
<text text-anchor="middle" x="1179.9" y="-158.3" font-family="FreeSans" font-size="14.00" fill="#6666ff">PositionalBindFailover</text>
</a>
</g>
</g>
<!-- Seq -->
<g id="node16" class="node"><title>Seq</title>
<g id="a_node16"><a xlink:href="/type/Seq" xlink:title="Seq">
<ellipse fill="none" stroke="#000000" cx="1091.9" cy="-90" rx="27" ry="18"/>
<text text-anchor="middle" x="1091.9" y="-86.3" font-family="FreeSans" font-size="14.00" fill="#000000">Seq</text>
</a>
</g>
</g>
<!-- Seq&#45;&gt;Cool -->
<g id="edge9" class="edge"><title>Seq&#45;&gt;Cool</title>
<path fill="none" stroke="#000000" d="M1070.54,-101.085C1062.79,-104.746 1055.9,-108 1055.9,-108 1055.9,-108 786.896,-144 786.896,-144 786.896,-144 771.31,-147.897 755.061,-151.959"/>
<polygon fill="#000000" stroke="#000000" points="753.845,-148.655 744.992,-154.476 755.543,-155.446 753.845,-148.655"/>
</g>
<!-- Seq&#45;&gt;Iterable -->
<g id="edge28" class="edge"><title>Seq&#45;&gt;Iterable</title>
<path fill="none" stroke="#6666ff" d="M1077.81,-105.504C1068.79,-114.785 1056.89,-127.034 1046.57,-137.663"/>
<polygon fill="#6666ff" stroke="#6666ff" points="1043.85,-135.439 1039.39,-145.05 1048.87,-140.316 1043.85,-135.439"/>
</g>
<!-- Seq&#45;&gt;PositionalBindFailover -->
<g id="edge29" class="edge"><title>Seq&#45;&gt;PositionalBindFailover</title>
<path fill="none" stroke="#6666ff" d="M1108.86,-104.497C1120.8,-113.995 1137.08,-126.943 1151.04,-138.048"/>
<polygon fill="#6666ff" stroke="#6666ff" points="1148.94,-140.847 1158.94,-144.333 1153.3,-135.369 1148.94,-140.847"/>
</g>
<!-- Capture -->
<g id="node17" class="node"><title>Capture</title>
<g id="a_node17"><a xlink:href="/type/Capture" xlink:title="Capture">
<ellipse fill="none" stroke="#000000" cx="606.896" cy="-162" rx="42.4939" ry="18"/>
<text text-anchor="middle" x="606.896" y="-158.3" font-family="FreeSans" font-size="14.00" fill="#000000">Capture</text>
</a>
</g>
</g>
<!-- Capture&#45;&gt;Any -->
<g id="edge10" class="edge"><title>Capture&#45;&gt;Any</title>
<path fill="none" stroke="#000000" d="M619.884,-179.235C627.154,-188.323 636.341,-199.806 644.356,-209.825"/>
<polygon fill="#000000" stroke="#000000" points="641.765,-212.189 650.745,-217.811 647.231,-207.816 641.765,-212.189"/>
</g>
<!-- Match -->
<g id="node18" class="node"><title>Match</title>
<g id="a_node18"><a xlink:href="/type/Match" xlink:title="Match">
<ellipse fill="none" stroke="#000000" cx="595.896" cy="-90" rx="35.194" ry="18"/>
<text text-anchor="middle" x="595.896" y="-86.3" font-family="FreeSans" font-size="14.00" fill="#000000">Match</text>
</a>
</g>
</g>
<!-- Match&#45;&gt;Cool -->
<g id="edge12" class="edge"><title>Match&#45;&gt;Cool</title>
<path fill="none" stroke="#000000" d="M618.456,-103.839C638.361,-115.167 667.51,-131.756 689.285,-144.148"/>
<polygon fill="#000000" stroke="#000000" points="687.696,-147.271 698.118,-149.175 691.158,-141.187 687.696,-147.271"/>
</g>
<!-- Match&#45;&gt;Capture -->
<g id="edge11" class="edge"><title>Match&#45;&gt;Capture</title>
<path fill="none" stroke="#000000" d="M598.615,-108.303C599.827,-116.017 601.284,-125.288 602.636,-133.888"/>
<polygon fill="#000000" stroke="#000000" points="599.198,-134.56 604.208,-143.896 606.113,-133.474 599.198,-134.56"/>
</g>
<!-- IO -->
<g id="node19" class="node"><title>IO</title>
<g id="a_node19"><a xlink:href="/type/IO" xlink:title="IO">
<ellipse fill="none" stroke="#6666ff" cx="822.896" cy="-162" rx="27" ry="18"/>
<text text-anchor="middle" x="822.896" y="-158.3" font-family="FreeSans" font-size="14.00" fill="#6666ff">IO</text>
</a>
</g>
</g>
<!-- IO::Path -->
<g id="node20" class="node"><title>IO::Path</title>
<g id="a_node20"><a xlink:href="/type/IO::Path" xlink:title="IO::Path">
<ellipse fill="none" stroke="#000000" cx="840.896" cy="-90" rx="43.5923" ry="18"/>
<text text-anchor="middle" x="840.896" y="-86.3" font-family="FreeSans" font-size="14.00" fill="#000000">IO::Path</text>
</a>
</g>
</g>
<!-- IO::Path&#45;&gt;Cool -->
<g id="edge13" class="edge"><title>IO::Path&#45;&gt;Cool</title>
<path fill="none" stroke="#000000" d="M816.501,-104.997C796.875,-116.258 769.228,-132.121 748.366,-144.091"/>
<polygon fill="#000000" stroke="#000000" points="746.53,-141.109 739.598,-149.122 750.014,-147.181 746.53,-141.109"/>
</g>
<!-- IO::Path&#45;&gt;IO -->
<g id="edge30" class="edge"><title>IO::Path&#45;&gt;IO</title>
<path fill="none" stroke="#6666ff" d="M836.539,-107.945C834.505,-115.855 832.035,-125.46 829.759,-134.312"/>
<polygon fill="#6666ff" stroke="#6666ff" points="826.314,-133.654 827.213,-144.211 833.094,-135.398 826.314,-133.654"/>
</g>
<!-- Stringy -->
<g id="node21" class="node"><title>Stringy</title>
<g id="a_node21"><a xlink:href="/type/Stringy" xlink:title="Stringy">
<ellipse fill="none" stroke="#6666ff" cx="1462.9" cy="-162" rx="38.1938" ry="18"/>
<text text-anchor="middle" x="1462.9" y="-158.3" font-family="FreeSans" font-size="14.00" fill="#6666ff">Stringy</text>
</a>
</g>
</g>
<!-- Str -->
<g id="node22" class="node"><title>Str</title>
<g id="a_node22"><a xlink:href="/type/Str" xlink:title="Str">
<ellipse fill="none" stroke="#000000" cx="1344.9" cy="-90" rx="27" ry="18"/>
<text text-anchor="middle" x="1344.9" y="-86.3" font-family="FreeSans" font-size="14.00" fill="#000000">Str</text>
</a>
</g>
</g>
<!-- Str&#45;&gt;Cool -->
<g id="edge14" class="edge"><title>Str&#45;&gt;Cool</title>
<path fill="none" stroke="#000000" d="M1318.38,-94.1976C1277.53,-99.1221 1203.9,-108 1203.9,-108 1203.9,-108 786.896,-144 786.896,-144 786.896,-144 771.31,-147.897 755.061,-151.959"/>
<polygon fill="#000000" stroke="#000000" points="753.845,-148.655 744.992,-154.476 755.543,-155.446 753.845,-148.655"/>
</g>
<!-- Str&#45;&gt;Stringy -->
<g id="edge31" class="edge"><title>Str&#45;&gt;Stringy</title>
<path fill="none" stroke="#6666ff" d="M1364.38,-102.559C1382.6,-113.364 1410.11,-129.685 1431.43,-142.336"/>
<polygon fill="#6666ff" stroke="#6666ff" points="1429.76,-145.414 1440.15,-147.506 1433.33,-139.394 1429.76,-145.414"/>
</g>
<!-- Int -->
<g id="node23" class="node"><title>Int</title>
<g id="a_node23"><a xlink:href="/type/Int" xlink:title="Int">
<ellipse fill="none" stroke="#000000" cx="331.896" cy="-90" rx="27" ry="18"/>
<text text-anchor="middle" x="331.896" y="-86.3" font-family="FreeSans" font-size="14.00" fill="#000000">Int</text>
</a>
</g>
</g>
<!-- Int&#45;&gt;Cool -->
<g id="edge15" class="edge"><title>Int&#45;&gt;Cool</title>
<path fill="none" stroke="#000000" d="M353.254,-101.085C361.006,-104.746 367.896,-108 367.896,-108 367.896,-108 657.896,-144 657.896,-144 657.896,-144 669.879,-147.339 683.222,-151.058"/>
<polygon fill="#000000" stroke="#000000" points="682.454,-154.477 693.027,-153.79 684.333,-147.734 682.454,-154.477"/>
</g>
<!-- Int&#45;&gt;Real -->
<g id="edge32" class="edge"><title>Int&#45;&gt;Real</title>
<path fill="none" stroke="#6666ff" d="M324.55,-107.589C320.882,-115.871 316.363,-126.075 312.261,-135.338"/>
<polygon fill="#6666ff" stroke="#6666ff" points="309.039,-133.969 308.19,-144.53 315.44,-136.804 309.039,-133.969"/>
</g>
<!-- List -->
<g id="node24" class="node"><title>List</title>
<g id="a_node24"><a xlink:href="/type/List" xlink:title="List">
<ellipse fill="none" stroke="#000000" cx="929.896" cy="-90" rx="27" ry="18"/>
<text text-anchor="middle" x="929.896" y="-86.3" font-family="FreeSans" font-size="14.00" fill="#000000">List</text>
</a>
</g>
</g>
<!-- List&#45;&gt;Cool -->
<g id="edge16" class="edge"><title>List&#45;&gt;Cool</title>
<path fill="none" stroke="#000000" d="M908.539,-101.085C900.787,-104.746 893.896,-108 893.896,-108 893.896,-108 805.111,-134.889 754.021,-150.362"/>
<polygon fill="#000000" stroke="#000000" points="752.899,-147.045 744.343,-153.293 754.928,-153.744 752.899,-147.045"/>
</g>
<!-- List&#45;&gt;Positional -->
<g id="edge33" class="edge"><title>List&#45;&gt;Positional</title>
<path fill="none" stroke="#6666ff" d="M926.749,-107.945C925.318,-115.654 923.587,-124.973 921.978,-133.636"/>
<polygon fill="#6666ff" stroke="#6666ff" points="918.489,-133.254 920.104,-143.725 925.372,-134.532 918.489,-133.254"/>
</g>
<!-- List&#45;&gt;Iterable -->
<g id="edge34" class="edge"><title>List&#45;&gt;Iterable</title>
<path fill="none" stroke="#6666ff" d="M947.577,-104.166C961.128,-114.258 980.095,-128.382 995.729,-140.025"/>
<polygon fill="#6666ff" stroke="#6666ff" points="993.906,-143.031 1004.02,-146.196 998.087,-137.416 993.906,-143.031"/>
</g>
<!-- Duration -->
<g id="node25" class="node"><title>Duration</title>
<g id="a_node25"><a xlink:href="/type/Duration" xlink:title="Duration">
<ellipse fill="none" stroke="#000000" cx="420.896" cy="-90" rx="44.393" ry="18"/>
<text text-anchor="middle" x="420.896" y="-86.3" font-family="FreeSans" font-size="14.00" fill="#000000">Duration</text>
</a>
</g>
</g>
<!-- Duration&#45;&gt;Cool -->
<g id="edge17" class="edge"><title>Duration&#45;&gt;Cool</title>
<path fill="none" stroke="#000000" d="M454.462,-101.766C464.98,-105.14 473.896,-108 473.896,-108 473.896,-108 657.896,-144 657.896,-144 657.896,-144 669.879,-147.339 683.222,-151.058"/>
<polygon fill="#000000" stroke="#000000" points="682.454,-154.477 693.027,-153.79 684.333,-147.734 682.454,-154.477"/>
</g>
<!-- Duration&#45;&gt;Real -->
<g id="edge35" class="edge"><title>Duration&#45;&gt;Real</title>
<path fill="none" stroke="#6666ff" d="M396.612,-105.166C377.37,-116.39 350.423,-132.11 330.021,-144.011"/>
<polygon fill="#6666ff" stroke="#6666ff" points="328.033,-141.118 321.159,-149.18 331.561,-147.164 328.033,-141.118"/>
</g>
<!-- Rational -->
<g id="node26" class="node"><title>Rational</title>
<g id="a_node26"><a xlink:href="/type/Rational" xlink:title="Rational">
<ellipse fill="none" stroke="#6666ff" cx="42.8962" cy="-90" rx="42.7926" ry="18"/>
<text text-anchor="middle" x="42.8962" y="-86.3" font-family="FreeSans" font-size="14.00" fill="#6666ff">Rational</text>
</a>
</g>
</g>
<!-- Rational&#45;&gt;Real -->
<g id="edge36" class="edge"><title>Rational&#45;&gt;Real</title>
<path fill="none" stroke="#6666ff" d="M75.8286,-101.766C86.1483,-105.14 94.8962,-108 94.8962,-108 94.8962,-108 205.673,-136.501 264.758,-151.702"/>
<polygon fill="#6666ff" stroke="#6666ff" points="264.249,-155.185 274.806,-154.288 265.994,-148.406 264.249,-155.185"/>
</g>
<!-- FatRat -->
<g id="node27" class="node"><title>FatRat</title>
<g id="a_node27"><a xlink:href="/type/FatRat" xlink:title="FatRat">
<ellipse fill="none" stroke="#000000" cx="364.896" cy="-18" rx="37.0935" ry="18"/>
<text text-anchor="middle" x="364.896" y="-14.3" font-family="FreeSans" font-size="14.00" fill="#000000">FatRat</text>
</a>
</g>
</g>
<!-- FatRat&#45;&gt;Cool -->
<g id="edge18" class="edge"><title>FatRat&#45;&gt;Cool</title>
<path fill="none" stroke="#000000" d="M399.757,-24.3245C487.751,-37.7646 711.896,-72 711.896,-72 711.896,-72 714.69,-107.517 716.747,-133.677"/>
<polygon fill="#000000" stroke="#000000" points="713.273,-134.145 717.547,-143.84 720.252,-133.596 713.273,-134.145"/>
</g>
<!-- FatRat&#45;&gt;Rational -->
<g id="edge37" class="edge"><title>FatRat&#45;&gt;Rational</title>
<path fill="none" stroke="#6666ff" d="M331.246,-25.6053C258.868,-39.8129 94.8962,-72 94.8962,-72 94.8962,-72 91.1288,-73.2316 85.6221,-75.0319"/>
<polygon fill="#6666ff" stroke="#6666ff" points="84.2459,-71.7995 75.8286,-78.2336 86.4212,-78.4529 84.2459,-71.7995"/>
</g>
<!-- Rat -->
<g id="node28" class="node"><title>Rat</title>
<g id="a_node28"><a xlink:href="/type/Rat" xlink:title="Rat">
<ellipse fill="none" stroke="#000000" cx="607.896" cy="-18" rx="27" ry="18"/>
<text text-anchor="middle" x="607.896" y="-14.3" font-family="FreeSans" font-size="14.00" fill="#000000">Rat</text>
</a>
</g>
</g>
<!-- Rat&#45;&gt;Cool -->
<g id="edge19" class="edge"><title>Rat&#45;&gt;Cool</title>
<path fill="none" stroke="#000000" d="M630.827,-27.871C669.827,-42.9588 744.896,-72 744.896,-72 744.896,-72 744.896,-108 744.896,-108 744.896,-108 738.107,-121.839 731.468,-135.373"/>
<polygon fill="#000000" stroke="#000000" points="728.242,-134.002 726.98,-144.521 734.527,-137.085 728.242,-134.002"/>
</g>
<!-- Rat&#45;&gt;Rational -->
<g id="edge38" class="edge"><title>Rat&#45;&gt;Rational</title>
<path fill="none" stroke="#6666ff" d="M581.395,-21.7379C476.347,-32.5908 94.8962,-72 94.8962,-72 94.8962,-72 91.1288,-73.2316 85.6221,-75.0319"/>
<polygon fill="#6666ff" stroke="#6666ff" points="84.2459,-71.7995 75.8286,-78.2336 86.4212,-78.4529 84.2459,-71.7995"/>
</g>
</g>
</svg>
