<?xml version="1.0" encoding="UTF-8" standalone="no"?>
<!DOCTYPE svg PUBLIC "-//W3C//DTD SVG 1.1//EN"
 "http://www.w3.org/Graphics/SVG/1.1/DTD/svg11.dtd">
<!-- Generated by graphviz version 2.38.0 (20140413.2041)
 -->
<!-- Title: perl6&#45;type&#45;graph Pages: 1 -->
<svg width="81pt" height="188pt"
 viewBox="0.00 0.00 80.79 188.00" xmlns="http://www.w3.org/2000/svg" xmlns:xlink="http://www.w3.org/1999/xlink">
<g id="graph0" class="graph" transform="scale(1 1) rotate(0) translate(4 184)">
<title>perl6&#45;type&#45;graph</title>
<polygon fill="white" stroke="none" points="-4,4 -4,-184 76.7935,-184 76.7935,4 -4,4"/>
<!-- Kernel -->
<g id="node1" class="node"><title>Kernel</title>
<g id="a_node1"><a xlink:href="/type/Kernel" xlink:title="Kernel">
<ellipse fill="none" stroke="#000000" cx="36.3968" cy="-18" rx="36.2938" ry="18"/>
<text text-anchor="middle" x="36.3968" y="-14.3" font-family="FreeSans" font-size="14.00" fill="#000000">Kernel</text>
</a>
</g>
</g>
<!-- Any -->
<g id="node3" class="node"><title>Any</title>
<g id="a_node3"><a xlink:href="/type/Any" xlink:title="Any">
<ellipse fill="none" stroke="#000000" cx="36.3968" cy="-90" rx="27" ry="18"/>
<text text-anchor="middle" x="36.3968" y="-86.3" font-family="FreeSans" font-size="14.00" fill="#000000">Any</text>
</a>
</g>
</g>
<!-- Kernel&#45;&gt;Any -->
<g id="edge1" class="edge"><title>Kernel&#45;&gt;Any</title>
<path fill="none" stroke="#000000" d="M36.3968,-36.3034C36.3968,-44.0173 36.3968,-53.2875 36.3968,-61.8876"/>
<polygon fill="#000000" stroke="#000000" points="32.8969,-61.8956 36.3968,-71.8957 39.8969,-61.8957 32.8969,-61.8956"/>
</g>
<!-- Mu -->
<g id="node2" class="node"><title>Mu</title>
<g id="a_node2"><a xlink:href="/type/Mu" xlink:title="Mu">
<ellipse fill="none" stroke="#000000" cx="36.3968" cy="-162" rx="27" ry="18"/>
<text text-anchor="middle" x="36.3968" y="-158.3" font-family="FreeSans" font-size="14.00" fill="#000000">Mu</text>
</a>
</g>
</g>
<!-- Any&#45;&gt;Mu -->
<g id="edge2" class="edge"><title>Any&#45;&gt;Mu</title>
<path fill="none" stroke="#000000" d="M36.3968,-108.303C36.3968,-116.017 36.3968,-125.288 36.3968,-133.888"/>
<polygon fill="#000000" stroke="#000000" points="32.8969,-133.896 36.3968,-143.896 39.8969,-133.896 32.8969,-133.896"/>
</g>
</g>
</svg>
