<?xml version="1.0" encoding="UTF-8" standalone="no"?>
<!DOCTYPE svg PUBLIC "-//W3C//DTD SVG 1.1//EN"
 "http://www.w3.org/Graphics/SVG/1.1/DTD/svg11.dtd">
<!-- Generated by graphviz version 2.38.0 (20140413.2041)
 -->
<!-- Title: perl6&#45;type&#45;graph Pages: 1 -->
<svg width="1801pt" height="923pt"
 viewBox="0.00 0.00 1801.23 922.90" xmlns="http://www.w3.org/2000/svg" xmlns:xlink="http://www.w3.org/1999/xlink">
<g id="graph0" class="graph" transform="scale(1 1) rotate(0) translate(905.828 438.81)">
<title>perl6&#45;type&#45;graph</title>
<polygon fill="white" stroke="none" points="-905.828,484.087 -905.828,-438.81 895.399,-438.81 895.399,484.087 -905.828,484.087"/>
<!-- Metamodel::MethodContainer -->
<g id="node1" class="node"><title>Metamodel::MethodContainer</title>
<g id="a_node1"><a xlink:href="/type/Metamodel::MethodContainer" xlink:title="Metamodel::MethodContainer">
<ellipse fill="none" stroke="#6666ff" cx="16.0678" cy="-7.42994" rx="127.277" ry="18"/>
<text text-anchor="middle" x="16.0678" y="-3.72994" font-family="FreeSans" font-size="14.00" fill="#6666ff">Metamodel::MethodContainer</text>
</a>
</g>
</g>
<!-- Mu -->
<g id="node2" class="node"><title>Mu</title>
<g id="a_node2"><a xlink:href="/type/Mu" xlink:title="Mu">
<ellipse fill="none" stroke="#000000" cx="141.862" cy="462.087" rx="27" ry="18"/>
<text text-anchor="middle" x="141.862" y="465.787" font-family="FreeSans" font-size="14.00" fill="#000000">Mu</text>
</a>
</g>
</g>
<!-- Any -->
<g id="node3" class="node"><title>Any</title>
<g id="a_node3"><a xlink:href="/type/Any" xlink:title="Any">
<ellipse fill="none" stroke="#000000" cx="67.9857" cy="217.855" rx="27" ry="18"/>
<text text-anchor="middle" x="67.9857" y="221.555" font-family="FreeSans" font-size="14.00" fill="#000000">Any</text>
</a>
</g>
</g>
<!-- Any&#45;&gt;Mu -->
<g id="edge1" class="edge"><title>Any&#45;&gt;Mu</title>
<path fill="none" stroke="#000000" d="M73.4179,235.813C86.2037,278.083 118.266,384.081 133.531,434.548"/>
<polygon fill="#000000" stroke="#000000" points="136.976,433.846 136.521,444.431 130.276,435.872 136.976,433.846"/>
</g>
<!-- Metamodel::Naming -->
<g id="node4" class="node"><title>Metamodel::Naming</title>
<g id="a_node4"><a xlink:href="/type/Metamodel::Naming" xlink:title="Metamodel::Naming">
<ellipse fill="none" stroke="#6666ff" cx="226.842" cy="-174.917" rx="90.1842" ry="18"/>
<text text-anchor="middle" x="226.842" y="-171.217" font-family="FreeSans" font-size="14.00" fill="#6666ff">Metamodel::Naming</text>
</a>
</g>
</g>
<!-- Metamodel::Documenting -->
<g id="node5" class="node"><title>Metamodel::Documenting</title>
<g id="a_node5"><a xlink:href="/type/Metamodel::Documenting" xlink:title="Metamodel::Documenting">
<ellipse fill="none" stroke="#6666ff" cx="758.617" cy="-353.76" rx="111.28" ry="18"/>
<text text-anchor="middle" x="758.617" y="-350.06" font-family="FreeSans" font-size="14.00" fill="#6666ff">Metamodel::Documenting</text>
</a>
</g>
</g>
<!-- Metamodel::Versioning -->
<g id="node6" class="node"><title>Metamodel::Versioning</title>
<g id="a_node6"><a xlink:href="/type/Metamodel::Versioning" xlink:title="Metamodel::Versioning">
<ellipse fill="none" stroke="#6666ff" cx="413.079" cy="-400.476" rx="100.983" ry="18"/>
<text text-anchor="middle" x="413.079" y="-396.776" font-family="FreeSans" font-size="14.00" fill="#6666ff">Metamodel::Versioning</text>
</a>
</g>
</g>
<!-- Metamodel::PrivateMethodContainer -->
<g id="node7" class="node"><title>Metamodel::PrivateMethodContainer</title>
<g id="a_node7"><a xlink:href="/type/Metamodel::PrivateMethodContainer" xlink:title="Metamodel::PrivateMethodContainer">
<ellipse fill="none" stroke="#6666ff" cx="-88.4212" cy="157.922" rx="154.873" ry="18"/>
<text text-anchor="middle" x="-88.4212" y="161.622" font-family="FreeSans" font-size="14.00" fill="#6666ff">Metamodel::PrivateMethodContainer</text>
</a>
</g>
</g>
<!-- Metamodel::MultiMethodContainer -->
<g id="node8" class="node"><title>Metamodel::MultiMethodContainer</title>
<g id="a_node8"><a xlink:href="/type/Metamodel::MultiMethodContainer" xlink:title="Metamodel::MultiMethodContainer">
<ellipse fill="none" stroke="#6666ff" cx="242.593" cy="29.956" rx="146.474" ry="18"/>
<text text-anchor="middle" x="242.593" y="33.656" font-family="FreeSans" font-size="14.00" fill="#6666ff">Metamodel::MultiMethodContainer</text>
</a>
</g>
</g>
<!-- Metamodel::AttributeContainer -->
<g id="node9" class="node"><title>Metamodel::AttributeContainer</title>
<g id="a_node9"><a xlink:href="/type/Metamodel::AttributeContainer" xlink:title="Metamodel::AttributeContainer">
<ellipse fill="none" stroke="#6666ff" cx="-111.979" cy="451.26" rx="129.977" ry="18"/>
<text text-anchor="middle" x="-111.979" y="454.96" font-family="FreeSans" font-size="14.00" fill="#6666ff">Metamodel::AttributeContainer</text>
</a>
</g>
</g>
<!-- Metamodel::RoleContainer -->
<g id="node10" class="node"><title>Metamodel::RoleContainer</title>
<g id="a_node10"><a xlink:href="/type/Metamodel::RoleContainer" xlink:title="Metamodel::RoleContainer">
<ellipse fill="none" stroke="#6666ff" cx="265.176" cy="235.93" rx="115.88" ry="18"/>
<text text-anchor="middle" x="265.176" y="239.63" font-family="FreeSans" font-size="14.00" fill="#6666ff">Metamodel::RoleContainer</text>
</a>
</g>
</g>
<!-- Metamodel::MultipleInheritance -->
<g id="node11" class="node"><title>Metamodel::MultipleInheritance</title>
<g id="a_node11"><a xlink:href="/type/Metamodel::MultipleInheritance" xlink:title="Metamodel::MultipleInheritance">
<ellipse fill="none" stroke="#6666ff" cx="472.184" cy="-114.713" rx="133.776" ry="18"/>
<text text-anchor="middle" x="472.184" y="-111.013" font-family="FreeSans" font-size="14.00" fill="#6666ff">Metamodel::MultipleInheritance</text>
</a>
</g>
</g>
<!-- Metamodel::Stashing -->
<g id="node12" class="node"><title>Metamodel::Stashing</title>
<g id="a_node12"><a xlink:href="/type/Metamodel::Stashing" xlink:title="Metamodel::Stashing">
<ellipse fill="none" stroke="#6666ff" cx="9.40731" cy="-196.238" rx="93.6835" ry="18"/>
<text text-anchor="middle" x="9.40731" y="-192.538" font-family="FreeSans" font-size="14.00" fill="#6666ff">Metamodel::Stashing</text>
</a>
</g>
</g>
<!-- Metamodel::TypePretense -->
<g id="node13" class="node"><title>Metamodel::TypePretense</title>
<g id="a_node13"><a xlink:href="/type/Metamodel::TypePretense" xlink:title="Metamodel::TypePretense">
<ellipse fill="none" stroke="#6666ff" cx="764.058" cy="393.792" rx="114.28" ry="18"/>
<text text-anchor="middle" x="764.058" y="397.492" font-family="FreeSans" font-size="14.00" fill="#6666ff">Metamodel::TypePretense</text>
</a>
</g>
</g>
<!-- Metamodel::RolePunning -->
<g id="node14" class="node"><title>Metamodel::RolePunning</title>
<g id="a_node14"><a xlink:href="/type/Metamodel::RolePunning" xlink:title="Metamodel::RolePunning">
<ellipse fill="none" stroke="#6666ff" cx="781.559" cy="16.4545" rx="109.681" ry="18"/>
<text text-anchor="middle" x="781.559" y="20.1545" font-family="FreeSans" font-size="14.00" fill="#6666ff">Metamodel::RolePunning</text>
</a>
</g>
</g>
<!-- Metamodel::ParametricRoleHOW -->
<g id="node15" class="node"><title>Metamodel::ParametricRoleHOW</title>
<g id="a_node15"><a xlink:href="/type/Metamodel::ParametricRoleHOW" xlink:title="Metamodel::ParametricRoleHOW">
<ellipse fill="none" stroke="#000000" cx="487.176" cy="152.262" rx="142.175" ry="18"/>
<text text-anchor="middle" x="487.176" y="155.962" font-family="FreeSans" font-size="14.00" fill="#000000">Metamodel::ParametricRoleHOW</text>
</a>
</g>
</g>
<!-- Metamodel::ParametricRoleHOW&#45;&gt;Metamodel::MethodContainer -->
<g id="edge9" class="edge"><title>Metamodel::ParametricRoleHOW&#45;&gt;Metamodel::MethodContainer</title>
<path fill="none" stroke="#6666ff" d="M433.473,135.565C335.692,105.165 138.591,43.8857 138.591,43.8857 138.591,43.8857 94.7583,30.0559 94.7583,30.0559 94.7583,30.0559 79.1238,22.6081 61.7925,14.352"/>
<polygon fill="#6666ff" stroke="#6666ff" points="60.1713,17.4566 52.6486,9.99608 63.1818,11.137 60.1713,17.4566"/>
</g>
<!-- Metamodel::ParametricRoleHOW&#45;&gt;Any -->
<g id="edge2" class="edge"><title>Metamodel::ParametricRoleHOW&#45;&gt;Any</title>
<path fill="none" stroke="#000000" d="M397.506,166.293C306.375,180.552 169.657,201.945 104.735,212.104"/>
<polygon fill="#000000" stroke="#000000" points="105.002,215.605 94.5807,213.693 103.919,208.689 105.002,215.605"/>
</g>
<!-- Metamodel::ParametricRoleHOW&#45;&gt;Metamodel::Naming -->
<g id="edge6" class="edge"><title>Metamodel::ParametricRoleHOW&#45;&gt;Metamodel::Naming</title>
<path fill="none" stroke="#6666ff" d="M472.9,134.2C445.989,100.151 390.429,29.8561 390.429,29.8561 390.429,29.8561 291.31,-94.2174 247.381,-149.207"/>
<polygon fill="#6666ff" stroke="#6666ff" points="244.58,-147.105 241.073,-157.103 250.049,-151.474 244.58,-147.105"/>
</g>
<!-- Metamodel::ParametricRoleHOW&#45;&gt;Metamodel::Documenting -->
<g id="edge7" class="edge"><title>Metamodel::ParametricRoleHOW&#45;&gt;Metamodel::Documenting</title>
<path fill="none" stroke="#6666ff" d="M496.837,134.252C537.564,58.3285 695.394,-235.899 744.172,-326.831"/>
<polygon fill="#6666ff" stroke="#6666ff" points="741.119,-328.545 748.931,-335.702 747.288,-325.236 741.119,-328.545"/>
</g>
<!-- Metamodel::ParametricRoleHOW&#45;&gt;Metamodel::Versioning -->
<g id="edge8" class="edge"><title>Metamodel::ParametricRoleHOW&#45;&gt;Metamodel::Versioning</title>
<path fill="none" stroke="#6666ff" d="M476.833,133.915C442.835,73.6103 336.697,-114.658 336.697,-114.658 336.697,-114.658 386.325,-300.364 405.575,-372.395"/>
<polygon fill="#6666ff" stroke="#6666ff" points="402.222,-373.405 408.185,-382.162 408.984,-371.598 402.222,-373.405"/>
</g>
<!-- Metamodel::ParametricRoleHOW&#45;&gt;Metamodel::PrivateMethodContainer -->
<g id="edge10" class="edge"><title>Metamodel::ParametricRoleHOW&#45;&gt;Metamodel::PrivateMethodContainer</title>
<path fill="none" stroke="#6666ff" d="M345.263,153.657C263.689,154.46 160.856,155.471 75.8004,156.307"/>
<polygon fill="#6666ff" stroke="#6666ff" points="75.8173,159.807 65.7833,156.406 75.7484,152.808 75.8173,159.807"/>
</g>
<!-- Metamodel::ParametricRoleHOW&#45;&gt;Metamodel::MultiMethodContainer -->
<g id="edge11" class="edge"><title>Metamodel::ParametricRoleHOW&#45;&gt;Metamodel::MultiMethodContainer</title>
<path fill="none" stroke="#6666ff" d="M452.133,134.738C408.544,112.941 334.097,75.7131 286.677,52.0006"/>
<polygon fill="#6666ff" stroke="#6666ff" points="284.95,55.0499 277.571,47.4469 288.081,48.7891 284.95,55.0499"/>
</g>
<!-- Metamodel::ParametricRoleHOW&#45;&gt;Metamodel::AttributeContainer -->
<g id="edge12" class="edge"><title>Metamodel::ParametricRoleHOW&#45;&gt;Metamodel::AttributeContainer</title>
<path fill="none" stroke="#6666ff" d="M464.713,170.207C433.946,194.786 382.466,235.912 382.466,235.912 382.466,235.912 61.898,375.531 -62.9986,429.927"/>
<polygon fill="#6666ff" stroke="#6666ff" points="-61.7867,433.217 -72.3525,434.001 -64.5819,426.799 -61.7867,433.217"/>
</g>
<!-- Metamodel::ParametricRoleHOW&#45;&gt;Metamodel::RoleContainer -->
<g id="edge13" class="edge"><title>Metamodel::ParametricRoleHOW&#45;&gt;Metamodel::RoleContainer</title>
<path fill="none" stroke="#6666ff" d="M441.715,169.395C406.199,182.781 356.735,201.423 319.198,215.57"/>
<polygon fill="#6666ff" stroke="#6666ff" points="320.032,218.996 309.44,219.248 317.563,212.446 320.032,218.996"/>
</g>
<!-- Metamodel::ParametricRoleHOW&#45;&gt;Metamodel::MultipleInheritance -->
<g id="edge14" class="edge"><title>Metamodel::ParametricRoleHOW&#45;&gt;Metamodel::MultipleInheritance</title>
<path fill="none" stroke="#6666ff" d="M486.145,133.911C483.572,88.077 476.848,-31.6627 473.767,-86.5221"/>
<polygon fill="#6666ff" stroke="#6666ff" points="470.268,-86.4072 473.202,-96.5878 477.257,-86.7998 470.268,-86.4072"/>
</g>
<!-- Metamodel::ParametricRoleHOW&#45;&gt;Metamodel::Stashing -->
<g id="edge15" class="edge"><title>Metamodel::ParametricRoleHOW&#45;&gt;Metamodel::Stashing</title>
<path fill="none" stroke="#6666ff" d="M472.9,134.2C445.989,100.151 390.429,29.8561 390.429,29.8561 390.429,29.8561 143.466,-116.689 47.1916,-173.817"/>
<polygon fill="#6666ff" stroke="#6666ff" points="45.1724,-170.946 38.3586,-179.059 48.7446,-176.965 45.1724,-170.946"/>
</g>
<!-- Metamodel::ParametricRoleHOW&#45;&gt;Metamodel::TypePretense -->
<g id="edge16" class="edge"><title>Metamodel::ParametricRoleHOW&#45;&gt;Metamodel::TypePretense</title>
<path fill="none" stroke="#6666ff" d="M507.987,170.416C557.014,213.183 679.83,320.318 735.65,369.011"/>
<polygon fill="#6666ff" stroke="#6666ff" points="738.148,366.545 743.383,375.757 733.547,371.82 738.148,366.545"/>
</g>
<!-- Metamodel::ParametricRoleHOW&#45;&gt;Metamodel::RolePunning -->
<g id="edge17" class="edge"><title>Metamodel::ParametricRoleHOW&#45;&gt;Metamodel::RolePunning</title>
<path fill="none" stroke="#6666ff" d="M525.059,134.785C578.897,109.948 677.435,64.4897 735.45,37.7259"/>
<polygon fill="#6666ff" stroke="#6666ff" points="734.201,34.4476 744.747,33.4367 737.133,40.8039 734.201,34.4476"/>
</g>
<!-- Metamodel::BaseType -->
<g id="node16" class="node"><title>Metamodel::BaseType</title>
<g id="a_node16"><a xlink:href="/type/Metamodel::BaseType" xlink:title="Metamodel::BaseType">
<ellipse fill="none" stroke="#6666ff" cx="-400.034" cy="452.676" rx="99.3824" ry="18"/>
<text text-anchor="middle" x="-400.034" y="456.376" font-family="FreeSans" font-size="14.00" fill="#6666ff">Metamodel::BaseType</text>
</a>
</g>
</g>
<!-- Metamodel::MROBasedMethodDispatch -->
<g id="node17" class="node"><title>Metamodel::MROBasedMethodDispatch</title>
<g id="a_node17"><a xlink:href="/type/Metamodel::MROBasedMethodDispatch" xlink:title="Metamodel::MROBasedMethodDispatch">
<ellipse fill="none" stroke="#6666ff" cx="-241.154" cy="18.43" rx="169.77" ry="18"/>
<text text-anchor="middle" x="-241.154" y="22.13" font-family="FreeSans" font-size="14.00" fill="#6666ff">Metamodel::MROBasedMethodDispatch</text>
</a>
</g>
</g>
<!-- Metamodel::MROBasedTypeChecking -->
<g id="node18" class="node"><title>Metamodel::MROBasedTypeChecking</title>
<g id="a_node18"><a xlink:href="/type/Metamodel::MROBasedTypeChecking" xlink:title="Metamodel::MROBasedTypeChecking">
<ellipse fill="none" stroke="#6666ff" cx="-457.461" cy="-118.706" rx="163.271" ry="18"/>
<text text-anchor="middle" x="-457.461" y="-115.006" font-family="FreeSans" font-size="14.00" fill="#6666ff">Metamodel::MROBasedTypeChecking</text>
</a>
</g>
</g>
<!-- Metamodel::BUILDPLAN -->
<g id="node19" class="node"><title>Metamodel::BUILDPLAN</title>
<g id="a_node19"><a xlink:href="/type/Metamodel::BUILDPLAN" xlink:title="Metamodel::BUILDPLAN">
<ellipse fill="none" stroke="#6666ff" cx="-743.158" cy="394.753" rx="109.681" ry="18"/>
<text text-anchor="middle" x="-743.158" y="398.453" font-family="FreeSans" font-size="14.00" fill="#6666ff">Metamodel::BUILDPLAN</text>
</a>
</g>
</g>
<!-- Metamodel::BoolificationProtocol -->
<g id="node20" class="node"><title>Metamodel::BoolificationProtocol</title>
<g id="a_node20"><a xlink:href="/type/Metamodel::BoolificationProtocol" xlink:title="Metamodel::BoolificationProtocol">
<ellipse fill="none" stroke="#6666ff" cx="-762.741" cy="16.615" rx="139.175" ry="18"/>
<text text-anchor="middle" x="-762.741" y="20.315" font-family="FreeSans" font-size="14.00" fill="#6666ff">Metamodel::BoolificationProtocol</text>
</a>
</g>
</g>
<!-- Metamodel::EnumHOW -->
<g id="node21" class="node"><title>Metamodel::EnumHOW</title>
<g id="a_node21"><a xlink:href="/type/Metamodel::EnumHOW" xlink:title="Metamodel::EnumHOW">
<ellipse fill="none" stroke="#000000" cx="-252.256" cy="240.512" rx="104.782" ry="18"/>
<text text-anchor="middle" x="-252.256" y="244.212" font-family="FreeSans" font-size="14.00" fill="#000000">Metamodel::EnumHOW</text>
</a>
</g>
</g>
<!-- Metamodel::EnumHOW&#45;&gt;Metamodel::MethodContainer -->
<g id="edge21" class="edge"><title>Metamodel::EnumHOW&#45;&gt;Metamodel::MethodContainer</title>
<path fill="none" stroke="#6666ff" d="M-250.58,222.207C-248.356,197.909 -244.705,158.034 -244.705,158.034 -244.705,158.034 -92.417,61.4052 -20.5951,15.8332"/>
<polygon fill="#6666ff" stroke="#6666ff" points="-22.1584,12.68 -11.8395,10.2776 -18.408,18.5906 -22.1584,12.68"/>
</g>
<!-- Metamodel::EnumHOW&#45;&gt;Any -->
<g id="edge3" class="edge"><title>Metamodel::EnumHOW&#45;&gt;Any</title>
<path fill="none" stroke="#000000" d="M-155.304,233.652C-92.586,229.215 -14.4691,223.688 30.7844,220.486"/>
<polygon fill="#000000" stroke="#000000" points="30.7875,216.978 41.0096,219.763 31.2816,223.96 30.7875,216.978"/>
</g>
<!-- Metamodel::EnumHOW&#45;&gt;Metamodel::Naming -->
<g id="edge18" class="edge"><title>Metamodel::EnumHOW&#45;&gt;Metamodel::Naming</title>
<path fill="none" stroke="#6666ff" d="M-250.58,222.207C-248.356,197.909 -244.705,158.034 -244.705,158.034 -244.705,158.034 145.055,-7.52304 145.055,-7.52304 145.055,-7.52304 190.289,-100.104 213.477,-147.563"/>
<polygon fill="#6666ff" stroke="#6666ff" points="210.399,-149.236 217.933,-156.684 216.688,-146.163 210.399,-149.236"/>
</g>
<!-- Metamodel::EnumHOW&#45;&gt;Metamodel::MultiMethodContainer -->
<g id="edge22" class="edge"><title>Metamodel::EnumHOW&#45;&gt;Metamodel::MultiMethodContainer</title>
<path fill="none" stroke="#6666ff" d="M-192.93,225.666C-112.095,205.438 22.7177,171.703 22.7177,171.703 22.7177,171.703 67.8625,157.811 67.8625,157.811 67.8625,157.811 159.39,90.8377 209.958,53.8358"/>
<polygon fill="#6666ff" stroke="#6666ff" points="208.161,50.8143 218.298,47.7337 212.294,56.4635 208.161,50.8143"/>
</g>
<!-- Metamodel::EnumHOW&#45;&gt;Metamodel::AttributeContainer -->
<g id="edge20" class="edge"><title>Metamodel::EnumHOW&#45;&gt;Metamodel::AttributeContainer</title>
<path fill="none" stroke="#6666ff" d="M-240.296,258.48C-215.564,295.637 -158.689,381.084 -129.686,424.658"/>
<polygon fill="#6666ff" stroke="#6666ff" points="-126.736,422.774 -124.108,433.038 -132.563,426.652 -126.736,422.774"/>
</g>
<!-- Metamodel::EnumHOW&#45;&gt;Metamodel::RoleContainer -->
<g id="edge23" class="edge"><title>Metamodel::EnumHOW&#45;&gt;Metamodel::RoleContainer</title>
<path fill="none" stroke="#6666ff" d="M-147.546,239.584C-64.6597,238.85 51.3851,237.823 139.323,237.044"/>
<polygon fill="#6666ff" stroke="#6666ff" points="139.331,233.544 149.361,236.955 139.393,240.544 139.331,233.544"/>
</g>
<!-- Metamodel::EnumHOW&#45;&gt;Metamodel::Stashing -->
<g id="edge19" class="edge"><title>Metamodel::EnumHOW&#45;&gt;Metamodel::Stashing</title>
<path fill="none" stroke="#6666ff" d="M-250.58,222.207C-248.356,197.909 -244.705,158.034 -244.705,158.034 -244.705,158.034 -69.9212,18.3296 -69.9212,18.3296 -69.9212,18.3296 -112.919,-7.33684 -112.919,-7.33684 -112.919,-7.33684 -41.4479,-117.706 -7.7668,-169.717"/>
<polygon fill="#6666ff" stroke="#6666ff" points="-10.6953,-171.634 -2.3219,-178.125 -4.81966,-167.829 -10.6953,-171.634"/>
</g>
<!-- Metamodel::EnumHOW&#45;&gt;Metamodel::BaseType -->
<g id="edge24" class="edge"><title>Metamodel::EnumHOW&#45;&gt;Metamodel::BaseType</title>
<path fill="none" stroke="#6666ff" d="M-264.856,258.601C-290.976,296.101 -351.127,382.46 -381.609,426.224"/>
<polygon fill="#6666ff" stroke="#6666ff" points="-378.879,428.427 -387.466,434.633 -384.623,424.427 -378.879,428.427"/>
</g>
<!-- Metamodel::EnumHOW&#45;&gt;Metamodel::MROBasedMethodDispatch -->
<g id="edge25" class="edge"><title>Metamodel::EnumHOW&#45;&gt;Metamodel::MROBasedMethodDispatch</title>
<path fill="none" stroke="#6666ff" d="M-251.348,222.338C-249.416,183.688 -244.887,93.0927 -242.571,46.7789"/>
<polygon fill="#6666ff" stroke="#6666ff" points="-246.055,46.3562 -242.059,36.5435 -239.063,46.7058 -246.055,46.3562"/>
</g>
<!-- Metamodel::EnumHOW&#45;&gt;Metamodel::MROBasedTypeChecking -->
<g id="edge26" class="edge"><title>Metamodel::EnumHOW&#45;&gt;Metamodel::MROBasedTypeChecking</title>
<path fill="none" stroke="#6666ff" d="M-265.361,222.346C-303.604,169.33 -412.387,18.5304 -412.387,18.5304 -412.387,18.5304 -435.186,-50.8871 -448.355,-90.9809"/>
<polygon fill="#6666ff" stroke="#6666ff" points="-451.681,-89.8895 -451.476,-100.482 -445.03,-92.0738 -451.681,-89.8895"/>
</g>
<!-- Metamodel::EnumHOW&#45;&gt;Metamodel::BUILDPLAN -->
<g id="edge27" class="edge"><title>Metamodel::EnumHOW&#45;&gt;Metamodel::BUILDPLAN</title>
<path fill="none" stroke="#6666ff" d="M-302.943,256.437C-393.888,285.012 -584.395,344.87 -682.264,375.62"/>
<polygon fill="#6666ff" stroke="#6666ff" points="-681.423,379.025 -692.012,378.683 -683.521,372.346 -681.423,379.025"/>
</g>
<!-- Metamodel::EnumHOW&#45;&gt;Metamodel::BoolificationProtocol -->
<g id="edge28" class="edge"><title>Metamodel::EnumHOW&#45;&gt;Metamodel::BoolificationProtocol</title>
<path fill="none" stroke="#6666ff" d="M-277.847,222.923C-314.798,197.527 -378.713,153.598 -378.713,153.598 -378.713,153.598 -406.65,139.794 -406.65,139.794 -406.65,139.794 -603.543,71.6851 -704.513,36.7574"/>
<polygon fill="#6666ff" stroke="#6666ff" points="-705.668,40.0612 -713.975,33.4843 -703.38,33.4458 -705.668,40.0612"/>
</g>
<!-- Metamodel::ConcreteRoleHOW -->
<g id="node22" class="node"><title>Metamodel::ConcreteRoleHOW</title>
<g id="a_node22"><a xlink:href="/type/Metamodel::ConcreteRoleHOW" xlink:title="Metamodel::ConcreteRoleHOW">
<ellipse fill="none" stroke="#000000" cx="424.615" cy="449.462" rx="135.676" ry="18"/>
<text text-anchor="middle" x="424.615" y="453.162" font-family="FreeSans" font-size="14.00" fill="#000000">Metamodel::ConcreteRoleHOW</text>
</a>
</g>
</g>
<!-- Metamodel::ConcreteRoleHOW&#45;&gt;Metamodel::MethodContainer -->
<g id="edge32" class="edge"><title>Metamodel::ConcreteRoleHOW&#45;&gt;Metamodel::MethodContainer</title>
<path fill="none" stroke="#6666ff" d="M401.497,431.625C334.988,380.309 147.886,235.947 147.886,235.947 147.886,235.947 65.3256,83.5149 30.882,19.9216"/>
<polygon fill="#6666ff" stroke="#6666ff" points="27.6606,21.3229 25.9756,10.8629 33.8158,17.9891 27.6606,21.3229"/>
</g>
<!-- Metamodel::ConcreteRoleHOW&#45;&gt;Any -->
<g id="edge4" class="edge"><title>Metamodel::ConcreteRoleHOW&#45;&gt;Any</title>
<path fill="none" stroke="#000000" d="M397.223,431.673C331.174,388.778 163.646,279.98 96.4817,236.361"/>
<polygon fill="#000000" stroke="#000000" points="94.1718,239.034 87.6915,230.652 97.9845,233.164 94.1718,239.034"/>
</g>
<!-- Metamodel::ConcreteRoleHOW&#45;&gt;Metamodel::Naming -->
<g id="edge29" class="edge"><title>Metamodel::ConcreteRoleHOW&#45;&gt;Metamodel::Naming</title>
<path fill="none" stroke="#6666ff" d="M421.021,431.255C410.828,379.613 382.466,235.912 382.466,235.912 382.466,235.912 343.241,152.381 343.241,152.381 343.241,152.381 390.429,29.8561 390.429,29.8561 390.429,29.8561 291.31,-94.2174 247.381,-149.207"/>
<polygon fill="#6666ff" stroke="#6666ff" points="244.58,-147.105 241.073,-157.103 250.049,-151.474 244.58,-147.105"/>
</g>
<!-- Metamodel::ConcreteRoleHOW&#45;&gt;Metamodel::Versioning -->
<g id="edge30" class="edge"><title>Metamodel::ConcreteRoleHOW&#45;&gt;Metamodel::Versioning</title>
<path fill="none" stroke="#6666ff" d="M421.021,431.255C410.828,379.613 382.466,235.912 382.466,235.912 382.466,235.912 343.241,152.381 343.241,152.381 343.241,152.381 390.429,29.8561 390.429,29.8561 390.429,29.8561 336.697,-114.658 336.697,-114.658 336.697,-114.658 386.325,-300.364 405.575,-372.395"/>
<polygon fill="#6666ff" stroke="#6666ff" points="402.222,-373.405 408.185,-382.162 408.984,-371.598 402.222,-373.405"/>
</g>
<!-- Metamodel::ConcreteRoleHOW&#45;&gt;Metamodel::PrivateMethodContainer -->
<g id="edge31" class="edge"><title>Metamodel::ConcreteRoleHOW&#45;&gt;Metamodel::PrivateMethodContainer</title>
<path fill="none" stroke="#6666ff" d="M393.677,431.882C305.129,381.563 50.7119,236.987 -48.308,180.717"/>
<polygon fill="#6666ff" stroke="#6666ff" points="-50.1527,183.695 -57.1177,175.711 -46.6942,177.609 -50.1527,183.695"/>
</g>
<!-- Metamodel::ConcreteRoleHOW&#45;&gt;Metamodel::MultiMethodContainer -->
<g id="edge33" class="edge"><title>Metamodel::ConcreteRoleHOW&#45;&gt;Metamodel::MultiMethodContainer</title>
<path fill="none" stroke="#6666ff" d="M421.021,431.255C410.828,379.613 382.466,235.912 382.466,235.912 382.466,235.912 298.466,112.226 260.658,56.5549"/>
<polygon fill="#6666ff" stroke="#6666ff" points="257.729,58.4723 255.006,48.2333 263.52,54.5395 257.729,58.4723"/>
</g>
<!-- Metamodel::ConcreteRoleHOW&#45;&gt;Metamodel::AttributeContainer -->
<g id="edge34" class="edge"><title>Metamodel::ConcreteRoleHOW&#45;&gt;Metamodel::AttributeContainer</title>
<path fill="none" stroke="#6666ff" d="M291.067,446.169C217.837,444.363 141.784,442.487 141.784,442.487 141.784,442.487 84.4119,444.47 24.227,446.551"/>
<polygon fill="#6666ff" stroke="#6666ff" points="24.2738,450.051 14.1588,446.899 24.0318,443.055 24.2738,450.051"/>
</g>
<!-- Metamodel::ConcreteRoleHOW&#45;&gt;Metamodel::RoleContainer -->
<g id="edge35" class="edge"><title>Metamodel::ConcreteRoleHOW&#45;&gt;Metamodel::RoleContainer</title>
<path fill="none" stroke="#6666ff" d="M411.021,431.257C382.781,393.436 317.671,306.235 284.849,262.277"/>
<polygon fill="#6666ff" stroke="#6666ff" points="281.914,264.196 278.735,254.089 287.523,260.008 281.914,264.196"/>
</g>
<!-- Metamodel::ConcreteRoleHOW&#45;&gt;Metamodel::MultipleInheritance -->
<g id="edge36" class="edge"><title>Metamodel::ConcreteRoleHOW&#45;&gt;Metamodel::MultipleInheritance</title>
<path fill="none" stroke="#6666ff" d="M421.021,431.255C410.828,379.613 382.466,235.912 382.466,235.912 382.466,235.912 343.241,152.381 343.241,152.381 343.241,152.381 425.863,-18.7631 458.833,-87.0576"/>
<polygon fill="#6666ff" stroke="#6666ff" points="455.822,-88.8711 463.321,-96.355 462.126,-85.8278 455.822,-88.8711"/>
</g>
<!-- Metamodel::Finalization -->
<g id="node23" class="node"><title>Metamodel::Finalization</title>
<g id="a_node23"><a xlink:href="/type/Metamodel::Finalization" xlink:title="Metamodel::Finalization">
<ellipse fill="none" stroke="#6666ff" cx="-392.503" cy="-401.303" rx="103.982" ry="18"/>
<text text-anchor="middle" x="-392.503" y="-397.603" font-family="FreeSans" font-size="14.00" fill="#6666ff">Metamodel::Finalization</text>
</a>
</g>
</g>
<!-- Metamodel::DefaultParent -->
<g id="node24" class="node"><title>Metamodel::DefaultParent</title>
<g id="a_node24"><a xlink:href="/type/Metamodel::DefaultParent" xlink:title="Metamodel::DefaultParent">
<ellipse fill="none" stroke="#6666ff" cx="-118.798" cy="-416.81" rx="113.18" ry="18"/>
<text text-anchor="middle" x="-118.798" y="-413.11" font-family="FreeSans" font-size="14.00" fill="#6666ff">Metamodel::DefaultParent</text>
</a>
</g>
</g>
<!-- Metamodel::C3MRO -->
<g id="node25" class="node"><title>Metamodel::C3MRO</title>
<g id="a_node25"><a xlink:href="/type/Metamodel::C3MRO" xlink:title="Metamodel::C3MRO">
<ellipse fill="none" stroke="#6666ff" cx="-738.748" cy="-354.56" rx="92.0841" ry="18"/>
<text text-anchor="middle" x="-738.748" y="-350.86" font-family="FreeSans" font-size="14.00" fill="#6666ff">Metamodel::C3MRO</text>
</a>
</g>
</g>
<!-- Metamodel::Trusting -->
<g id="node26" class="node"><title>Metamodel::Trusting</title>
<g id="a_node26"><a xlink:href="/type/Metamodel::Trusting" xlink:title="Metamodel::Trusting">
<ellipse fill="none" stroke="#6666ff" cx="-471.951" cy="153.785" rx="91.784" ry="18"/>
<text text-anchor="middle" x="-471.951" y="157.485" font-family="FreeSans" font-size="14.00" fill="#6666ff">Metamodel::Trusting</text>
</a>
</g>
</g>
<!-- Metamodel::Mixins -->
<g id="node27" class="node"><title>Metamodel::Mixins</title>
<g id="a_node27"><a xlink:href="/type/Metamodel::Mixins" xlink:title="Metamodel::Mixins">
<ellipse fill="none" stroke="#6666ff" cx="139.484" cy="-416.079" rx="85.2851" ry="18"/>
<text text-anchor="middle" x="139.484" y="-412.379" font-family="FreeSans" font-size="14.00" fill="#6666ff">Metamodel::Mixins</text>
</a>
</g>
</g>
<!-- Metamodel::ClassHOW -->
<g id="node28" class="node"><title>Metamodel::ClassHOW</title>
<g id="a_node28"><a xlink:href="/type/Metamodel::ClassHOW" xlink:title="Metamodel::ClassHOW">
<ellipse fill="none" stroke="#000000" cx="-205.136" cy="-177.213" rx="103.982" ry="18"/>
<text text-anchor="middle" x="-205.136" y="-173.513" font-family="FreeSans" font-size="14.00" fill="#000000">Metamodel::ClassHOW</text>
</a>
</g>
</g>
<!-- Metamodel::ClassHOW&#45;&gt;Metamodel::MethodContainer -->
<g id="edge43" class="edge"><title>Metamodel::ClassHOW&#45;&gt;Metamodel::MethodContainer</title>
<path fill="none" stroke="#6666ff" d="M-181.882,-159.364C-141.887,-128.667 -60.0549,-65.8573 -15.1448,-31.3869"/>
<polygon fill="#6666ff" stroke="#6666ff" points="-13.0089,-34.1596 -7.20717,-25.2944 -17.271,-28.6067 -13.0089,-34.1596"/>
</g>
<!-- Metamodel::ClassHOW&#45;&gt;Any -->
<g id="edge5" class="edge"><title>Metamodel::ClassHOW&#45;&gt;Any</title>
<path fill="none" stroke="#000000" d="M-195.267,-159.034C-171.478,-115.21 -112.919,-7.33684 -112.919,-7.33684 -112.919,-7.33684 -69.9212,18.3296 -69.9212,18.3296 -69.9212,18.3296 67.8625,157.811 67.8625,157.811 67.8625,157.811 67.8955,173.881 67.9273,189.393"/>
<polygon fill="#000000" stroke="#000000" points="71.4281,189.832 67.9487,199.839 64.4281,189.847 71.4281,189.832"/>
</g>
<!-- Metamodel::ClassHOW&#45;&gt;Metamodel::Naming -->
<g id="edge37" class="edge"><title>Metamodel::ClassHOW&#45;&gt;Metamodel::Naming</title>
<path fill="none" stroke="#6666ff" d="M-101.117,-176.66C-32.1344,-176.294 57.9103,-175.815 126.192,-175.452"/>
<polygon fill="#6666ff" stroke="#6666ff" points="126.549,-178.95 136.53,-175.397 126.511,-171.95 126.549,-178.95"/>
</g>
<!-- Metamodel::ClassHOW&#45;&gt;Metamodel::Documenting -->
<g id="edge38" class="edge"><title>Metamodel::ClassHOW&#45;&gt;Metamodel::Documenting</title>
<path fill="none" stroke="#6666ff" d="M-141.192,-191.498C-101.643,-200.333 -58.376,-209.999 -58.376,-209.999 -58.376,-209.999 463.726,-301.87 673.185,-338.727"/>
<polygon fill="#6666ff" stroke="#6666ff" points="672.765,-342.207 683.221,-340.493 673.979,-335.313 672.765,-342.207"/>
</g>
<!-- Metamodel::ClassHOW&#45;&gt;Metamodel::Versioning -->
<g id="edge39" class="edge"><title>Metamodel::ClassHOW&#45;&gt;Metamodel::Versioning</title>
<path fill="none" stroke="#6666ff" d="M-160.178,-193.45C-49.1018,-233.564 237.993,-337.246 358.526,-380.775"/>
<polygon fill="#6666ff" stroke="#6666ff" points="357.695,-384.196 368.289,-384.301 360.072,-377.612 357.695,-384.196"/>
</g>
<!-- Metamodel::ClassHOW&#45;&gt;Metamodel::PrivateMethodContainer -->
<g id="edge44" class="edge"><title>Metamodel::ClassHOW&#45;&gt;Metamodel::PrivateMethodContainer</title>
<path fill="none" stroke="#6666ff" d="M-195.267,-159.034C-171.478,-115.21 -112.919,-7.33684 -112.919,-7.33684 -112.919,-7.33684 -69.9212,18.3296 -69.9212,18.3296 -69.9212,18.3296 -79.2469,88.6966 -84.6559,129.511"/>
<polygon fill="#6666ff" stroke="#6666ff" points="-81.2191,130.22 -86.0027,139.673 -88.1585,129.3 -81.2191,130.22"/>
</g>
<!-- Metamodel::ClassHOW&#45;&gt;Metamodel::MultiMethodContainer -->
<g id="edge45" class="edge"><title>Metamodel::ClassHOW&#45;&gt;Metamodel::MultiMethodContainer</title>
<path fill="none" stroke="#6666ff" d="M-168.497,-160.26C-87.6105,-122.833 106.128,-33.188 195.706,8.26062"/>
<polygon fill="#6666ff" stroke="#6666ff" points="197.209,5.09974 204.815,12.4756 194.27,11.4526 197.209,5.09974"/>
</g>
<!-- Metamodel::ClassHOW&#45;&gt;Metamodel::AttributeContainer -->
<g id="edge41" class="edge"><title>Metamodel::ClassHOW&#45;&gt;Metamodel::AttributeContainer</title>
<path fill="none" stroke="#6666ff" d="M-195.267,-159.034C-171.478,-115.21 -112.919,-7.33684 -112.919,-7.33684 -112.919,-7.33684 -69.9212,18.3296 -69.9212,18.3296 -69.9212,18.3296 67.8625,157.811 67.8625,157.811 67.8625,157.811 -50.9749,351.719 -95.4464,424.283"/>
<polygon fill="#6666ff" stroke="#6666ff" points="-92.5198,426.206 -100.729,432.903 -98.4881,422.548 -92.5198,426.206"/>
</g>
<!-- Metamodel::ClassHOW&#45;&gt;Metamodel::RoleContainer -->
<g id="edge46" class="edge"><title>Metamodel::ClassHOW&#45;&gt;Metamodel::RoleContainer</title>
<path fill="none" stroke="#6666ff" d="M-195.267,-159.034C-171.478,-115.21 -112.919,-7.33684 -112.919,-7.33684 -112.919,-7.33684 -69.9212,18.3296 -69.9212,18.3296 -69.9212,18.3296 143.361,156.828 229.614,212.837"/>
<polygon fill="#6666ff" stroke="#6666ff" points="231.557,209.925 238.038,218.307 227.745,215.796 231.557,209.925"/>
</g>
<!-- Metamodel::ClassHOW&#45;&gt;Metamodel::MultipleInheritance -->
<g id="edge47" class="edge"><title>Metamodel::ClassHOW&#45;&gt;Metamodel::MultipleInheritance</title>
<path fill="none" stroke="#6666ff" d="M-113.085,-168.719C7.30045,-157.611 218.491,-138.123 351.557,-125.844"/>
<polygon fill="#6666ff" stroke="#6666ff" points="352.159,-129.304 361.795,-124.9 351.516,-122.333 352.159,-129.304"/>
</g>
<!-- Metamodel::ClassHOW&#45;&gt;Metamodel::Stashing -->
<g id="edge40" class="edge"><title>Metamodel::ClassHOW&#45;&gt;Metamodel::Stashing</title>
<path fill="none" stroke="#6666ff" d="M-112.282,-185.447C-103.573,-186.219 -94.734,-187.003 -86.0016,-187.778"/>
<polygon fill="#6666ff" stroke="#6666ff" points="-86.0834,-191.284 -75.8133,-188.681 -85.4651,-184.311 -86.0834,-191.284"/>
</g>
<!-- Metamodel::ClassHOW&#45;&gt;Metamodel::MROBasedMethodDispatch -->
<g id="edge50" class="edge"><title>Metamodel::ClassHOW&#45;&gt;Metamodel::MROBasedMethodDispatch</title>
<path fill="none" stroke="#6666ff" d="M-208.46,-159.158C-214.759,-124.945 -228.473,-50.4504 -235.983,-9.65724"/>
<polygon fill="#6666ff" stroke="#6666ff" points="-232.585,-8.78236 -237.838,0.418644 -239.47,-10.0498 -232.585,-8.78236"/>
</g>
<!-- Metamodel::ClassHOW&#45;&gt;Metamodel::MROBasedTypeChecking -->
<g id="edge51" class="edge"><title>Metamodel::ClassHOW&#45;&gt;Metamodel::MROBasedTypeChecking</title>
<path fill="none" stroke="#6666ff" d="M-267.509,-162.751C-300.725,-155.049 -341.946,-145.491 -377.492,-137.249"/>
<polygon fill="#6666ff" stroke="#6666ff" points="-376.823,-133.811 -387.355,-134.962 -378.405,-140.63 -376.823,-133.811"/>
</g>
<!-- Metamodel::ClassHOW&#45;&gt;Metamodel::BUILDPLAN -->
<g id="edge53" class="edge"><title>Metamodel::ClassHOW&#45;&gt;Metamodel::BUILDPLAN</title>
<path fill="none" stroke="#6666ff" d="M-224.494,-159.407C-299.281,-90.6168 -565.189,153.972 -565.189,153.972 -565.189,153.972 -677.572,306.02 -723.727,368.464"/>
<polygon fill="#6666ff" stroke="#6666ff" points="-721.023,370.694 -729.781,376.655 -726.652,366.533 -721.023,370.694"/>
</g>
<!-- Metamodel::ClassHOW&#45;&gt;Metamodel::BoolificationProtocol -->
<g id="edge55" class="edge"><title>Metamodel::ClassHOW&#45;&gt;Metamodel::BoolificationProtocol</title>
<path fill="none" stroke="#6666ff" d="M-231.417,-159.692C-257.218,-142.49 -292.728,-118.815 -292.728,-118.815 -292.728,-118.815 -340.334,-104.924 -340.334,-104.924 -340.334,-104.924 -576.382,-37.006 -695.567,-2.71294"/>
<polygon fill="#6666ff" stroke="#6666ff" points="-694.756,0.695631 -705.334,0.0972738 -696.691,-6.03145 -694.756,0.695631"/>
</g>
<!-- Metamodel::ClassHOW&#45;&gt;Metamodel::Finalization -->
<g id="edge42" class="edge"><title>Metamodel::ClassHOW&#45;&gt;Metamodel::Finalization</title>
<path fill="none" stroke="#6666ff" d="M-220.152,-195.173C-253.248,-234.755 -332.57,-329.624 -370.961,-375.54"/>
<polygon fill="#6666ff" stroke="#6666ff" points="-373.686,-373.342 -377.415,-383.258 -368.315,-377.832 -373.686,-373.342"/>
</g>
<!-- Metamodel::ClassHOW&#45;&gt;Metamodel::DefaultParent -->
<g id="edge48" class="edge"><title>Metamodel::ClassHOW&#45;&gt;Metamodel::DefaultParent</title>
<path fill="none" stroke="#6666ff" d="M-198.647,-195.222C-183.678,-236.763 -146.649,-339.522 -128.771,-389.133"/>
<polygon fill="#6666ff" stroke="#6666ff" points="-132.046,-390.371 -125.363,-398.593 -125.46,-387.998 -132.046,-390.371"/>
</g>
<!-- Metamodel::ClassHOW&#45;&gt;Metamodel::C3MRO -->
<g id="edge49" class="edge"><title>Metamodel::ClassHOW&#45;&gt;Metamodel::C3MRO</title>
<path fill="none" stroke="#6666ff" d="M-253.432,-193.264C-352.199,-226.09 -576.824,-300.744 -682.198,-335.765"/>
<polygon fill="#6666ff" stroke="#6666ff" points="-683.324,-332.451 -691.71,-338.927 -681.117,-339.094 -683.324,-332.451"/>
</g>
<!-- Metamodel::ClassHOW&#45;&gt;Metamodel::Trusting -->
<g id="edge52" class="edge"><title>Metamodel::ClassHOW&#45;&gt;Metamodel::Trusting</title>
<path fill="none" stroke="#6666ff" d="M-223.894,-159.497C-274.91,-111.313 -412.387,18.5304 -412.387,18.5304 -412.387,18.5304 -442.516,86.9453 -459.917,126.46"/>
<polygon fill="#6666ff" stroke="#6666ff" points="-456.808,128.083 -464.041,135.824 -463.214,125.262 -456.808,128.083"/>
</g>
<!-- Metamodel::ClassHOW&#45;&gt;Metamodel::Mixins -->
<g id="edge54" class="edge"><title>Metamodel::ClassHOW&#45;&gt;Metamodel::Mixins</title>
<path fill="none" stroke="#6666ff" d="M-179.795,-194.778C-118.529,-237.243 37.6177,-345.473 106.258,-393.05"/>
<polygon fill="#6666ff" stroke="#6666ff" points="104.359,-395.991 114.571,-398.811 108.346,-390.238 104.359,-395.991"/>
</g>
</g>
</svg>
