<?xml version="1.0" encoding="UTF-8" standalone="no"?>
<!DOCTYPE svg PUBLIC "-//W3C//DTD SVG 1.1//EN"
 "http://www.w3.org/Graphics/SVG/1.1/DTD/svg11.dtd">
<!-- Generated by graphviz version 2.38.0 (20140413.2041)
 -->
<!-- Title: perl6&#45;type&#45;graph Pages: 1 -->
<svg width="210pt" height="404pt"
 viewBox="0.00 0.00 209.84 404.00" xmlns="http://www.w3.org/2000/svg" xmlns:xlink="http://www.w3.org/1999/xlink">
<g id="graph0" class="graph" transform="scale(1 1) rotate(0) translate(4 400)">
<title>perl6&#45;type&#45;graph</title>
<polygon fill="white" stroke="none" points="-4,4 -4,-400 205.843,-400 205.843,4 -4,4"/>
<!-- X::IO::Dir -->
<g id="node1" class="node"><title>X::IO::Dir</title>
<g id="a_node1"><a xlink:href="/type/X::IO::Dir" xlink:title="X::IO::Dir">
<ellipse fill="none" stroke="#000000" cx="49.3956" cy="-18" rx="47.3916" ry="18"/>
<text text-anchor="middle" x="49.3956" y="-14.3" font-family="FreeSans" font-size="14.00" fill="#000000">X::IO::Dir</text>
</a>
</g>
</g>
<!-- Exception -->
<g id="node4" class="node"><title>Exception</title>
<g id="a_node4"><a xlink:href="/type/Exception" xlink:title="Exception">
<ellipse fill="none" stroke="#000000" cx="49.3956" cy="-234" rx="49.2915" ry="18"/>
<text text-anchor="middle" x="49.3956" y="-230.3" font-family="FreeSans" font-size="14.00" fill="#000000">Exception</text>
</a>
</g>
</g>
<!-- X::IO::Dir&#45;&gt;Exception -->
<g id="edge1" class="edge"><title>X::IO::Dir&#45;&gt;Exception</title>
<path fill="none" stroke="#000000" d="M41.7096,-35.7922C34.546,-72.736 34.0023,-161.329 40.0785,-206.113"/>
<polygon fill="#000000" stroke="#000000" points="36.6235,-206.673 41.6675,-215.99 43.5346,-205.561 36.6235,-206.673"/>
</g>
<!-- X::IO::Dir&#45;&gt;Exception -->
<g id="edge2" class="edge"><title>X::IO::Dir&#45;&gt;Exception</title>
<path fill="none" stroke="#000000" d="M49.3956,-36.1508C49.3956,-73.1683 49.3956,-160.819 49.3956,-205.614"/>
<polygon fill="#000000" stroke="#000000" points="45.8957,-205.768 49.3956,-215.768 52.8957,-205.768 45.8957,-205.768"/>
</g>
<!-- X::IO::Dir&#45;&gt;Exception -->
<g id="edge3" class="edge"><title>X::IO::Dir&#45;&gt;Exception</title>
<path fill="none" stroke="#000000" d="M57.0817,-35.7922C64.2452,-72.736 64.789,-161.329 58.7128,-206.113"/>
<polygon fill="#000000" stroke="#000000" points="55.2566,-205.561 57.1238,-215.99 62.1678,-206.673 55.2566,-205.561"/>
</g>
<!-- X::IO -->
<g id="node6" class="node"><title>X::IO</title>
<g id="a_node6"><a xlink:href="/type/X::IO" xlink:title="X::IO">
<ellipse fill="none" stroke="#6666ff" cx="126.396" cy="-90" rx="31.3957" ry="18"/>
<text text-anchor="middle" x="126.396" y="-86.3" font-family="FreeSans" font-size="14.00" fill="#6666ff">X::IO</text>
</a>
</g>
</g>
<!-- X::IO::Dir&#45;&gt;X::IO -->
<g id="edge8" class="edge"><title>X::IO::Dir&#45;&gt;X::IO</title>
<path fill="none" stroke="#6666ff" d="M66.8681,-34.8841C77.4674,-44.5198 91.1338,-56.9438 102.698,-67.457"/>
<polygon fill="#6666ff" stroke="#6666ff" points="100.551,-70.2354 110.305,-74.3723 105.26,-65.0558 100.551,-70.2354"/>
</g>
<!-- Mu -->
<g id="node2" class="node"><title>Mu</title>
<g id="a_node2"><a xlink:href="/type/Mu" xlink:title="Mu">
<ellipse fill="none" stroke="#000000" cx="49.3956" cy="-378" rx="27" ry="18"/>
<text text-anchor="middle" x="49.3956" y="-374.3" font-family="FreeSans" font-size="14.00" fill="#000000">Mu</text>
</a>
</g>
</g>
<!-- Any -->
<g id="node3" class="node"><title>Any</title>
<g id="a_node3"><a xlink:href="/type/Any" xlink:title="Any">
<ellipse fill="none" stroke="#000000" cx="49.3956" cy="-306" rx="27" ry="18"/>
<text text-anchor="middle" x="49.3956" y="-302.3" font-family="FreeSans" font-size="14.00" fill="#000000">Any</text>
</a>
</g>
</g>
<!-- Any&#45;&gt;Mu -->
<g id="edge4" class="edge"><title>Any&#45;&gt;Mu</title>
<path fill="none" stroke="#000000" d="M49.3956,-324.303C49.3956,-332.017 49.3956,-341.288 49.3956,-349.888"/>
<polygon fill="#000000" stroke="#000000" points="45.8957,-349.896 49.3956,-359.896 52.8957,-349.896 45.8957,-349.896"/>
</g>
<!-- Exception&#45;&gt;Any -->
<g id="edge5" class="edge"><title>Exception&#45;&gt;Any</title>
<path fill="none" stroke="#000000" d="M49.3956,-252.303C49.3956,-260.017 49.3956,-269.288 49.3956,-277.888"/>
<polygon fill="#000000" stroke="#000000" points="45.8957,-277.896 49.3956,-287.896 52.8957,-277.896 45.8957,-277.896"/>
</g>
<!-- X::OS -->
<g id="node5" class="node"><title>X::OS</title>
<g id="a_node5"><a xlink:href="/type/X::OS" xlink:title="X::OS">
<ellipse fill="none" stroke="#6666ff" cx="167.396" cy="-162" rx="34.394" ry="18"/>
<text text-anchor="middle" x="167.396" y="-158.3" font-family="FreeSans" font-size="14.00" fill="#6666ff">X::OS</text>
</a>
</g>
</g>
<!-- X::OS&#45;&gt;Exception -->
<g id="edge6" class="edge"><title>X::OS&#45;&gt;Exception</title>
<path fill="none" stroke="#000000" d="M145.477,-176.002C127.907,-186.426 102.957,-201.226 82.8861,-213.133"/>
<polygon fill="#000000" stroke="#000000" points="80.8663,-210.261 74.0515,-218.374 84.4377,-216.282 80.8663,-210.261"/>
</g>
<!-- X::IO&#45;&gt;Exception -->
<g id="edge7" class="edge"><title>X::IO&#45;&gt;Exception</title>
<path fill="none" stroke="#000000" d="M117.931,-107.74C104.896,-133.521 81.3956,-180 81.3956,-180 81.3956,-180 72.9842,-193.931 64.7864,-207.509"/>
<polygon fill="#000000" stroke="#000000" points="61.6931,-205.861 59.5206,-216.23 67.6856,-209.479 61.6931,-205.861"/>
</g>
<!-- X::IO&#45;&gt;X::OS -->
<g id="edge9" class="edge"><title>X::IO&#45;&gt;X::OS</title>
<path fill="none" stroke="#6666ff" d="M135.905,-107.235C140.853,-115.683 147.013,-126.201 152.57,-135.688"/>
<polygon fill="#6666ff" stroke="#6666ff" points="149.579,-137.507 157.653,-144.367 155.619,-133.969 149.579,-137.507"/>
</g>
</g>
</svg>
