<?xml version="1.0" encoding="UTF-8" standalone="no"?>
<!DOCTYPE svg PUBLIC "-//W3C//DTD SVG 1.1//EN"
 "http://www.w3.org/Graphics/SVG/1.1/DTD/svg11.dtd">
<!-- Generated by graphviz version 2.38.0 (20140413.2041)
 -->
<!-- Title: perl6&#45;type&#45;graph Pages: 1 -->
<svg width="2587pt" height="1358pt"
 viewBox="0.00 0.00 2587.32 1357.66" xmlns="http://www.w3.org/2000/svg" xmlns:xlink="http://www.w3.org/1999/xlink">
<g id="graph0" class="graph" transform="scale(1 1) rotate(0) translate(1288.18 666.34)">
<title>perl6&#45;type&#45;graph</title>
<polygon fill="white" stroke="none" points="-1288.18,691.315 -1288.18,-666.34 1299.14,-666.34 1299.14,691.315 -1288.18,691.315"/>
<!-- Metamodel::Versioning -->
<g id="node1" class="node"><title>Metamodel::Versioning</title>
<g id="a_node1"><a xlink:href="/type/Metamodel::Versioning" xlink:title="Metamodel::Versioning">
<ellipse fill="none" stroke="#6666ff" cx="-390.386" cy="280.66" rx="100.983" ry="18"/>
<text text-anchor="middle" x="-390.386" y="284.36" font-family="FreeSans" font-size="14.00" fill="#6666ff">Metamodel::Versioning</text>
</a>
</g>
</g>
<!-- Mu -->
<g id="node2" class="node"><title>Mu</title>
<g id="a_node2"><a xlink:href="/type/Mu" xlink:title="Mu">
<ellipse fill="none" stroke="#000000" cx="148.31" cy="669.315" rx="27" ry="18"/>
<text text-anchor="middle" x="148.31" y="673.015" font-family="FreeSans" font-size="14.00" fill="#000000">Mu</text>
</a>
</g>
</g>
<!-- Any -->
<g id="node3" class="node"><title>Any</title>
<g id="a_node3"><a xlink:href="/type/Any" xlink:title="Any">
<ellipse fill="none" stroke="#000000" cx="-52.5375" cy="325.735" rx="27" ry="18"/>
<text text-anchor="middle" x="-52.5375" y="329.435" font-family="FreeSans" font-size="14.00" fill="#000000">Any</text>
</a>
</g>
</g>
<!-- Any&#45;&gt;Mu -->
<g id="edge1" class="edge"><title>Any&#45;&gt;Mu</title>
<path fill="none" stroke="#000000" d="M-42.5774,342.773C-9.91891,398.64 94.0646,576.52 133.211,643.485"/>
<polygon fill="#000000" stroke="#000000" points="136.265,641.775 138.29,652.174 130.222,645.307 136.265,641.775"/>
</g>
<!-- Metamodel::Naming -->
<g id="node4" class="node"><title>Metamodel::Naming</title>
<g id="a_node4"><a xlink:href="/type/Metamodel::Naming" xlink:title="Metamodel::Naming">
<ellipse fill="none" stroke="#6666ff" cx="-240.791" cy="11.2287" rx="90.1842" ry="18"/>
<text text-anchor="middle" x="-240.791" y="14.9287" font-family="FreeSans" font-size="14.00" fill="#6666ff">Metamodel::Naming</text>
</a>
</g>
</g>
<!-- Metamodel::Documenting -->
<g id="node5" class="node"><title>Metamodel::Documenting</title>
<g id="a_node5"><a xlink:href="/type/Metamodel::Documenting" xlink:title="Metamodel::Documenting">
<ellipse fill="none" stroke="#6666ff" cx="-663.274" cy="-141.515" rx="111.28" ry="18"/>
<text text-anchor="middle" x="-663.274" y="-137.815" font-family="FreeSans" font-size="14.00" fill="#6666ff">Metamodel::Documenting</text>
</a>
</g>
</g>
<!-- Metamodel::Stashing -->
<g id="node6" class="node"><title>Metamodel::Stashing</title>
<g id="a_node6"><a xlink:href="/type/Metamodel::Stashing" xlink:title="Metamodel::Stashing">
<ellipse fill="none" stroke="#6666ff" cx="-753.822" cy="234.061" rx="93.6835" ry="18"/>
<text text-anchor="middle" x="-753.822" y="237.761" font-family="FreeSans" font-size="14.00" fill="#6666ff">Metamodel::Stashing</text>
</a>
</g>
</g>
<!-- Metamodel::TypePretense -->
<g id="node7" class="node"><title>Metamodel::TypePretense</title>
<g id="a_node7"><a xlink:href="/type/Metamodel::TypePretense" xlink:title="Metamodel::TypePretense">
<ellipse fill="none" stroke="#6666ff" cx="-233.93" cy="656.315" rx="114.28" ry="18"/>
<text text-anchor="middle" x="-233.93" y="660.015" font-family="FreeSans" font-size="14.00" fill="#6666ff">Metamodel::TypePretense</text>
</a>
</g>
</g>
<!-- Metamodel::MethodDelegation -->
<g id="node8" class="node"><title>Metamodel::MethodDelegation</title>
<g id="a_node8"><a xlink:href="/type/Metamodel::MethodDelegation" xlink:title="Metamodel::MethodDelegation">
<ellipse fill="none" stroke="#6666ff" cx="-1152.89" cy="567.759" rx="131.077" ry="18"/>
<text text-anchor="middle" x="-1152.89" y="571.459" font-family="FreeSans" font-size="14.00" fill="#6666ff">Metamodel::MethodDelegation</text>
</a>
</g>
</g>
<!-- Metamodel::ModuleHOW -->
<g id="node9" class="node"><title>Metamodel::ModuleHOW</title>
<g id="a_node9"><a xlink:href="/type/Metamodel::ModuleHOW" xlink:title="Metamodel::ModuleHOW">
<ellipse fill="none" stroke="#000000" cx="-648.921" cy="647.113" rx="111.28" ry="18"/>
<text text-anchor="middle" x="-648.921" y="650.813" font-family="FreeSans" font-size="14.00" fill="#000000">Metamodel::ModuleHOW</text>
</a>
</g>
</g>
<!-- Metamodel::ModuleHOW&#45;&gt;Metamodel::Versioning -->
<g id="edge9" class="edge"><title>Metamodel::ModuleHOW&#45;&gt;Metamodel::Versioning</title>
<path fill="none" stroke="#6666ff" d="M-636.277,629.19C-594.18,569.522 -458.631,377.392 -408.902,306.905"/>
<polygon fill="#6666ff" stroke="#6666ff" points="-411.631,304.702 -403.006,298.548 -405.911,308.737 -411.631,304.702"/>
</g>
<!-- Metamodel::ModuleHOW&#45;&gt;Any -->
<g id="edge2" class="edge"><title>Metamodel::ModuleHOW&#45;&gt;Any</title>
<path fill="none" stroke="#000000" d="M-616.857,629.834C-512.569,573.636 -183.908,396.527 -82.5801,341.924"/>
<polygon fill="#000000" stroke="#000000" points="-84.2322,338.839 -73.7686,337.176 -80.9115,345.001 -84.2322,338.839"/>
</g>
<!-- Metamodel::ModuleHOW&#45;&gt;Metamodel::Naming -->
<g id="edge7" class="edge"><title>Metamodel::ModuleHOW&#45;&gt;Metamodel::Naming</title>
<path fill="none" stroke="#6666ff" d="M-641.175,628.95C-609.658,555.044 -492.722,280.844 -492.722,280.844 -492.722,280.844 -327.873,104.423 -264.872,37.0003"/>
<polygon fill="#6666ff" stroke="#6666ff" points="-267.097,34.2546 -257.712,29.3375 -261.982,39.0338 -267.097,34.2546"/>
</g>
<!-- Metamodel::ModuleHOW&#45;&gt;Metamodel::Documenting -->
<g id="edge8" class="edge"><title>Metamodel::ModuleHOW&#45;&gt;Metamodel::Documenting</title>
<path fill="none" stroke="#6666ff" d="M-649.255,628.78C-651.14,525.185 -660.457,13.2483 -662.759,-113.226"/>
<polygon fill="#6666ff" stroke="#6666ff" points="-666.259,-113.22 -662.942,-123.282 -659.26,-113.348 -666.259,-113.22"/>
</g>
<!-- Metamodel::ModuleHOW&#45;&gt;Metamodel::Stashing -->
<g id="edge10" class="edge"><title>Metamodel::ModuleHOW&#45;&gt;Metamodel::Stashing</title>
<path fill="none" stroke="#6666ff" d="M-653.496,629.099C-670.026,564.011 -726.737,340.711 -746.755,261.886"/>
<polygon fill="#6666ff" stroke="#6666ff" points="-750.154,262.724 -749.223,252.17 -743.369,261 -750.154,262.724"/>
</g>
<!-- Metamodel::ModuleHOW&#45;&gt;Metamodel::TypePretense -->
<g id="edge11" class="edge"><title>Metamodel::ModuleHOW&#45;&gt;Metamodel::TypePretense</title>
<path fill="none" stroke="#6666ff" d="M-538.801,649.555C-483.076,650.791 -415.234,652.295 -357.707,653.57"/>
<polygon fill="#6666ff" stroke="#6666ff" points="-357.381,650.077 -347.461,653.798 -357.536,657.075 -357.381,650.077"/>
</g>
<!-- Metamodel::ModuleHOW&#45;&gt;Metamodel::MethodDelegation -->
<g id="edge12" class="edge"><title>Metamodel::ModuleHOW&#45;&gt;Metamodel::MethodDelegation</title>
<path fill="none" stroke="#6666ff" d="M-728.777,634.539C-817.774,620.526 -961.644,597.872 -1056.75,582.897"/>
<polygon fill="#6666ff" stroke="#6666ff" points="-1057.32,586.35 -1066.66,581.337 -1056.24,579.435 -1057.32,586.35"/>
</g>
<!-- Metamodel::PrivateMethodContainer -->
<g id="node10" class="node"><title>Metamodel::PrivateMethodContainer</title>
<g id="a_node10"><a xlink:href="/type/Metamodel::PrivateMethodContainer" xlink:title="Metamodel::PrivateMethodContainer">
<ellipse fill="none" stroke="#6666ff" cx="1140.45" cy="30.4878" rx="154.873" ry="18"/>
<text text-anchor="middle" x="1140.45" y="34.1878" font-family="FreeSans" font-size="14.00" fill="#6666ff">Metamodel::PrivateMethodContainer</text>
</a>
</g>
</g>
<!-- Metamodel::MethodContainer -->
<g id="node11" class="node"><title>Metamodel::MethodContainer</title>
<g id="a_node11"><a xlink:href="/type/Metamodel::MethodContainer" xlink:title="Metamodel::MethodContainer">
<ellipse fill="none" stroke="#6666ff" cx="701.926" cy="250.457" rx="127.277" ry="18"/>
<text text-anchor="middle" x="701.926" y="254.157" font-family="FreeSans" font-size="14.00" fill="#6666ff">Metamodel::MethodContainer</text>
</a>
</g>
</g>
<!-- Metamodel::MultiMethodContainer -->
<g id="node12" class="node"><title>Metamodel::MultiMethodContainer</title>
<g id="a_node12"><a xlink:href="/type/Metamodel::MultiMethodContainer" xlink:title="Metamodel::MultiMethodContainer">
<ellipse fill="none" stroke="#6666ff" cx="392.013" cy="31.1415" rx="146.474" ry="18"/>
<text text-anchor="middle" x="392.013" y="34.8415" font-family="FreeSans" font-size="14.00" fill="#6666ff">Metamodel::MultiMethodContainer</text>
</a>
</g>
</g>
<!-- Metamodel::AttributeContainer -->
<g id="node13" class="node"><title>Metamodel::AttributeContainer</title>
<g id="a_node13"><a xlink:href="/type/Metamodel::AttributeContainer" xlink:title="Metamodel::AttributeContainer">
<ellipse fill="none" stroke="#6666ff" cx="715.082" cy="-182.5" rx="129.977" ry="18"/>
<text text-anchor="middle" x="715.082" y="-178.8" font-family="FreeSans" font-size="14.00" fill="#6666ff">Metamodel::AttributeContainer</text>
</a>
</g>
</g>
<!-- Metamodel::RoleContainer -->
<g id="node14" class="node"><title>Metamodel::RoleContainer</title>
<g id="a_node14"><a xlink:href="/type/Metamodel::RoleContainer" xlink:title="Metamodel::RoleContainer">
<ellipse fill="none" stroke="#6666ff" cx="326.97" cy="-281.526" rx="115.88" ry="18"/>
<text text-anchor="middle" x="326.97" y="-277.826" font-family="FreeSans" font-size="14.00" fill="#6666ff">Metamodel::RoleContainer</text>
</a>
</g>
</g>
<!-- Metamodel::MultipleInheritance -->
<g id="node15" class="node"><title>Metamodel::MultipleInheritance</title>
<g id="a_node15"><a xlink:href="/type/Metamodel::MultipleInheritance" xlink:title="Metamodel::MultipleInheritance">
<ellipse fill="none" stroke="#6666ff" cx="85.4508" cy="36.9085" rx="133.776" ry="18"/>
<text text-anchor="middle" x="85.4508" y="40.6085" font-family="FreeSans" font-size="14.00" fill="#6666ff">Metamodel::MultipleInheritance</text>
</a>
</g>
</g>
<!-- Metamodel::ConcreteRoleHOW -->
<g id="node16" class="node"><title>Metamodel::ConcreteRoleHOW</title>
<g id="a_node16"><a xlink:href="/type/Metamodel::ConcreteRoleHOW" xlink:title="Metamodel::ConcreteRoleHOW">
<ellipse fill="none" stroke="#000000" cx="583.841" cy="653.333" rx="135.676" ry="18"/>
<text text-anchor="middle" x="583.841" y="657.033" font-family="FreeSans" font-size="14.00" fill="#000000">Metamodel::ConcreteRoleHOW</text>
</a>
</g>
</g>
<!-- Metamodel::ConcreteRoleHOW&#45;&gt;Metamodel::Versioning -->
<g id="edge14" class="edge"><title>Metamodel::ConcreteRoleHOW&#45;&gt;Metamodel::Versioning</title>
<path fill="none" stroke="#6666ff" d="M539.128,636.228C378.857,574.92 -166.411,366.337 -338.145,300.643"/>
<polygon fill="#6666ff" stroke="#6666ff" points="-339.629,303.823 -347.719,296.981 -337.128,297.285 -339.629,303.823"/>
</g>
<!-- Metamodel::ConcreteRoleHOW&#45;&gt;Any -->
<g id="edge3" class="edge"><title>Metamodel::ConcreteRoleHOW&#45;&gt;Any</title>
<path fill="none" stroke="#000000" d="M549.626,635.72C437.731,578.118 83.7696,395.904 -22.2457,341.329"/>
<polygon fill="#000000" stroke="#000000" points="-23.8645,344.432 -31.1536,336.743 -20.6606,338.208 -23.8645,344.432"/>
</g>
<!-- Metamodel::ConcreteRoleHOW&#45;&gt;Metamodel::Naming -->
<g id="edge13" class="edge"><title>Metamodel::ConcreteRoleHOW&#45;&gt;Metamodel::Naming</title>
<path fill="none" stroke="#6666ff" d="M559.245,635.499C467.365,568.88 149.512,338.413 149.512,338.413 149.512,338.413 -121.548,111.188 -211.888,35.4576"/>
<polygon fill="#6666ff" stroke="#6666ff" points="-214.391,37.926 -219.806,28.8195 -209.894,32.5615 -214.391,37.926"/>
</g>
<!-- Metamodel::ConcreteRoleHOW&#45;&gt;Metamodel::PrivateMethodContainer -->
<g id="edge15" class="edge"><title>Metamodel::ConcreteRoleHOW&#45;&gt;Metamodel::PrivateMethodContainer</title>
<path fill="none" stroke="#6666ff" d="M599.899,635.364C678.768,547.11 1025.03,159.644 1117.62,56.0387"/>
<polygon fill="#6666ff" stroke="#6666ff" points="1115.05,53.6538 1124.33,48.5296 1120.27,58.3182 1115.05,53.6538"/>
</g>
<!-- Metamodel::ConcreteRoleHOW&#45;&gt;Metamodel::MethodContainer -->
<g id="edge16" class="edge"><title>Metamodel::ConcreteRoleHOW&#45;&gt;Metamodel::MethodContainer</title>
<path fill="none" stroke="#6666ff" d="M589.144,635.239C607.874,571.336 671.012,355.926 693.711,278.482"/>
<polygon fill="#6666ff" stroke="#6666ff" points="690.466,277.112 696.637,268.5 697.183,279.081 690.466,277.112"/>
</g>
<!-- Metamodel::ConcreteRoleHOW&#45;&gt;Metamodel::MultiMethodContainer -->
<g id="edge17" class="edge"><title>Metamodel::ConcreteRoleHOW&#45;&gt;Metamodel::MultiMethodContainer</title>
<path fill="none" stroke="#6666ff" d="M578.203,635.049C551.043,546.953 433.635,166.144 400.657,59.1803"/>
<polygon fill="#6666ff" stroke="#6666ff" points="397.252,60.0139 397.65,49.4266 403.941,57.9515 397.252,60.0139"/>
</g>
<!-- Metamodel::ConcreteRoleHOW&#45;&gt;Metamodel::AttributeContainer -->
<g id="edge18" class="edge"><title>Metamodel::ConcreteRoleHOW&#45;&gt;Metamodel::AttributeContainer</title>
<path fill="none" stroke="#6666ff" d="M583.351,635.246C581.23,556.882 572.941,250.605 572.941,250.605 572.941,250.605 674.703,-59.4649 706.021,-154.89"/>
<polygon fill="#6666ff" stroke="#6666ff" points="702.712,-156.031 709.156,-164.441 709.363,-153.848 702.712,-156.031"/>
</g>
<!-- Metamodel::ConcreteRoleHOW&#45;&gt;Metamodel::RoleContainer -->
<g id="edge19" class="edge"><title>Metamodel::ConcreteRoleHOW&#45;&gt;Metamodel::RoleContainer</title>
<path fill="none" stroke="#6666ff" d="M582.548,635.045C575.281,532.251 539.846,31.0101 539.846,31.0101 539.846,31.0101 396.647,-179.229 345.145,-254.841"/>
<polygon fill="#6666ff" stroke="#6666ff" points="342.072,-253.136 339.335,-263.372 347.857,-257.077 342.072,-253.136"/>
</g>
<!-- Metamodel::ConcreteRoleHOW&#45;&gt;Metamodel::MultipleInheritance -->
<g id="edge20" class="edge"><title>Metamodel::ConcreteRoleHOW&#45;&gt;Metamodel::MultipleInheritance</title>
<path fill="none" stroke="#6666ff" d="M575.333,635.019C544.073,567.728 437.374,338.043 437.374,338.043 437.374,338.043 197.875,133.107 114.026,61.3601"/>
<polygon fill="#6666ff" stroke="#6666ff" points="111.734,64.0048 106.411,54.844 116.285,58.6862 111.734,64.0048"/>
</g>
<!-- Metamodel::Finalization -->
<g id="node17" class="node"><title>Metamodel::Finalization</title>
<g id="a_node17"><a xlink:href="/type/Metamodel::Finalization" xlink:title="Metamodel::Finalization">
<ellipse fill="none" stroke="#6666ff" cx="1132.76" cy="-534.768" rx="103.982" ry="18"/>
<text text-anchor="middle" x="1132.76" y="-531.068" font-family="FreeSans" font-size="14.00" fill="#6666ff">Metamodel::Finalization</text>
</a>
</g>
</g>
<!-- Metamodel::DefaultParent -->
<g id="node18" class="node"><title>Metamodel::DefaultParent</title>
<g id="a_node18"><a xlink:href="/type/Metamodel::DefaultParent" xlink:title="Metamodel::DefaultParent">
<ellipse fill="none" stroke="#6666ff" cx="-149.924" cy="-625.126" rx="113.18" ry="18"/>
<text text-anchor="middle" x="-149.924" y="-621.426" font-family="FreeSans" font-size="14.00" fill="#6666ff">Metamodel::DefaultParent</text>
</a>
</g>
</g>
<!-- Metamodel::C3MRO -->
<g id="node19" class="node"><title>Metamodel::C3MRO</title>
<g id="a_node19"><a xlink:href="/type/Metamodel::C3MRO" xlink:title="Metamodel::C3MRO">
<ellipse fill="none" stroke="#6666ff" cx="-747.316" cy="-564.835" rx="92.0841" ry="18"/>
<text text-anchor="middle" x="-747.316" y="-561.135" font-family="FreeSans" font-size="14.00" fill="#6666ff">Metamodel::C3MRO</text>
</a>
</g>
</g>
<!-- Metamodel::MROBasedMethodDispatch -->
<g id="node20" class="node"><title>Metamodel::MROBasedMethodDispatch</title>
<g id="a_node20"><a xlink:href="/type/Metamodel::MROBasedMethodDispatch" xlink:title="Metamodel::MROBasedMethodDispatch">
<ellipse fill="none" stroke="#6666ff" cx="-329.075" cy="-287.432" rx="169.77" ry="18"/>
<text text-anchor="middle" x="-329.075" y="-283.732" font-family="FreeSans" font-size="14.00" fill="#6666ff">Metamodel::MROBasedMethodDispatch</text>
</a>
</g>
</g>
<!-- Metamodel::MROBasedTypeChecking -->
<g id="node21" class="node"><title>Metamodel::MROBasedTypeChecking</title>
<g id="a_node21"><a xlink:href="/type/Metamodel::MROBasedTypeChecking" xlink:title="Metamodel::MROBasedTypeChecking">
<ellipse fill="none" stroke="#6666ff" cx="-428.303" cy="-643.776" rx="163.271" ry="18"/>
<text text-anchor="middle" x="-428.303" y="-640.076" font-family="FreeSans" font-size="14.00" fill="#6666ff">Metamodel::MROBasedTypeChecking</text>
</a>
</g>
</g>
<!-- Metamodel::Trusting -->
<g id="node22" class="node"><title>Metamodel::Trusting</title>
<g id="a_node22"><a xlink:href="/type/Metamodel::Trusting" xlink:title="Metamodel::Trusting">
<ellipse fill="none" stroke="#6666ff" cx="-1169.21" cy="-542.28" rx="91.784" ry="18"/>
<text text-anchor="middle" x="-1169.21" y="-538.58" font-family="FreeSans" font-size="14.00" fill="#6666ff">Metamodel::Trusting</text>
</a>
</g>
</g>
<!-- Metamodel::BUILDPLAN -->
<g id="node23" class="node"><title>Metamodel::BUILDPLAN</title>
<g id="a_node23"><a xlink:href="/type/Metamodel::BUILDPLAN" xlink:title="Metamodel::BUILDPLAN">
<ellipse fill="none" stroke="#6666ff" cx="353.055" cy="-644.34" rx="109.681" ry="18"/>
<text text-anchor="middle" x="353.055" y="-640.64" font-family="FreeSans" font-size="14.00" fill="#6666ff">Metamodel::BUILDPLAN</text>
</a>
</g>
</g>
<!-- Metamodel::Mixins -->
<g id="node24" class="node"><title>Metamodel::Mixins</title>
<g id="a_node24"><a xlink:href="/type/Metamodel::Mixins" xlink:title="Metamodel::Mixins">
<ellipse fill="none" stroke="#6666ff" cx="691.138" cy="-606.491" rx="85.2851" ry="18"/>
<text text-anchor="middle" x="691.138" y="-602.791" font-family="FreeSans" font-size="14.00" fill="#6666ff">Metamodel::Mixins</text>
</a>
</g>
</g>
<!-- Metamodel::BoolificationProtocol -->
<g id="node25" class="node"><title>Metamodel::BoolificationProtocol</title>
<g id="a_node25"><a xlink:href="/type/Metamodel::BoolificationProtocol" xlink:title="Metamodel::BoolificationProtocol">
<ellipse fill="none" stroke="#6666ff" cx="92.2682" cy="-606.041" rx="139.175" ry="18"/>
<text text-anchor="middle" x="92.2682" y="-602.341" font-family="FreeSans" font-size="14.00" fill="#6666ff">Metamodel::BoolificationProtocol</text>
</a>
</g>
</g>
<!-- Metamodel::ClassHOW -->
<g id="node26" class="node"><title>Metamodel::ClassHOW</title>
<g id="a_node26"><a xlink:href="/type/Metamodel::ClassHOW" xlink:title="Metamodel::ClassHOW">
<ellipse fill="none" stroke="#000000" cx="-3.72172" cy="-256.675" rx="103.982" ry="18"/>
<text text-anchor="middle" x="-3.72172" y="-252.975" font-family="FreeSans" font-size="14.00" fill="#000000">Metamodel::ClassHOW</text>
</a>
</g>
</g>
<!-- Metamodel::ClassHOW&#45;&gt;Metamodel::Versioning -->
<g id="edge23" class="edge"><title>Metamodel::ClassHOW&#45;&gt;Metamodel::Versioning</title>
<path fill="none" stroke="#6666ff" d="M-13.4694,-238.689C-46.0091,-178.65 -148.851,11.1017 -148.851,11.1017 -148.851,11.1017 -306.897,187.485 -367.298,254.893"/>
<polygon fill="#6666ff" stroke="#6666ff" points="-364.883,257.443 -374.163,262.555 -370.096,252.771 -364.883,257.443"/>
</g>
<!-- Metamodel::ClassHOW&#45;&gt;Any -->
<g id="edge4" class="edge"><title>Metamodel::ClassHOW&#45;&gt;Any</title>
<path fill="none" stroke="#000000" d="M-6.61886,-238.303C-16.7581,-174.009 -50.0356,37.0089 -50.0356,37.0089 -50.0356,37.0089 -51.662,224.7 -52.2922,297.424"/>
<polygon fill="#000000" stroke="#000000" points="-48.7944,297.705 -52.381,307.674 -55.7941,297.644 -48.7944,297.705"/>
</g>
<!-- Metamodel::ClassHOW&#45;&gt;Metamodel::Naming -->
<g id="edge21" class="edge"><title>Metamodel::ClassHOW&#45;&gt;Metamodel::Naming</title>
<path fill="none" stroke="#6666ff" d="M-19.6446,-238.681C-60.7233,-192.259 -170.391,-68.328 -218.098,-14.416"/>
<polygon fill="#6666ff" stroke="#6666ff" points="-215.689,-11.8564 -224.937,-6.6869 -220.931,-16.4953 -215.689,-11.8564"/>
</g>
<!-- Metamodel::ClassHOW&#45;&gt;Metamodel::Documenting -->
<g id="edge22" class="edge"><title>Metamodel::ClassHOW&#45;&gt;Metamodel::Documenting</title>
<path fill="none" stroke="#6666ff" d="M-77.1428,-243.855C-200.106,-222.385 -447.026,-179.272 -577.676,-156.46"/>
<polygon fill="#6666ff" stroke="#6666ff" points="-577.193,-152.992 -587.646,-154.72 -578.397,-159.888 -577.193,-152.992"/>
</g>
<!-- Metamodel::ClassHOW&#45;&gt;Metamodel::Stashing -->
<g id="edge24" class="edge"><title>Metamodel::ClassHOW&#45;&gt;Metamodel::Stashing</title>
<path fill="none" stroke="#6666ff" d="M-30.4182,-239.209C-144.329,-164.686 -589.743,126.716 -718.676,211.068"/>
<polygon fill="#6666ff" stroke="#6666ff" points="-716.77,214.003 -727.055,216.549 -720.603,208.145 -716.77,214.003"/>
</g>
<!-- Metamodel::ClassHOW&#45;&gt;Metamodel::PrivateMethodContainer -->
<g id="edge28" class="edge"><title>Metamodel::ClassHOW&#45;&gt;Metamodel::PrivateMethodContainer</title>
<path fill="none" stroke="#6666ff" d="M55.3846,-241.84C247.166,-193.707 852.002,-41.9063 1065.18,11.5974"/>
<polygon fill="#6666ff" stroke="#6666ff" points="1066.19,8.24103 1075.04,14.0701 1064.48,15.0305 1066.19,8.24103"/>
</g>
<!-- Metamodel::ClassHOW&#45;&gt;Metamodel::MethodContainer -->
<g id="edge27" class="edge"><title>Metamodel::ClassHOW&#45;&gt;Metamodel::MethodContainer</title>
<path fill="none" stroke="#6666ff" d="M11.7856,-238.662C66.0571,-175.623 244.179,31.273 244.179,31.273 244.179,31.273 540.465,173.144 656.294,228.607"/>
<polygon fill="#6666ff" stroke="#6666ff" points="658.117,225.599 665.625,233.074 655.094,231.912 658.117,225.599"/>
</g>
<!-- Metamodel::ClassHOW&#45;&gt;Metamodel::MultiMethodContainer -->
<g id="edge29" class="edge"><title>Metamodel::ClassHOW&#45;&gt;Metamodel::MultiMethodContainer</title>
<path fill="none" stroke="#6666ff" d="M20.4375,-239.104C88.3839,-189.687 281.241,-49.422 358.955,7.09902"/>
<polygon fill="#6666ff" stroke="#6666ff" points="361.385,4.53833 367.414,13.2508 357.268,10.1994 361.385,4.53833"/>
</g>
<!-- Metamodel::ClassHOW&#45;&gt;Metamodel::AttributeContainer -->
<g id="edge25" class="edge"><title>Metamodel::ClassHOW&#45;&gt;Metamodel::AttributeContainer</title>
<path fill="none" stroke="#6666ff" d="M85.862,-247.43C216.057,-233.995 457.577,-209.072 600.543,-194.319"/>
<polygon fill="#6666ff" stroke="#6666ff" points="601.076,-197.783 610.663,-193.275 600.357,-190.82 601.076,-197.783"/>
</g>
<!-- Metamodel::ClassHOW&#45;&gt;Metamodel::RoleContainer -->
<g id="edge30" class="edge"><title>Metamodel::ClassHOW&#45;&gt;Metamodel::RoleContainer</title>
<path fill="none" stroke="#6666ff" d="M91.9279,-263.863C129.568,-266.691 173.106,-269.963 212.406,-272.916"/>
<polygon fill="#6666ff" stroke="#6666ff" points="212.331,-276.421 222.566,-273.68 212.856,-269.44 212.331,-276.421"/>
</g>
<!-- Metamodel::ClassHOW&#45;&gt;Metamodel::MultipleInheritance -->
<g id="edge31" class="edge"><title>Metamodel::ClassHOW&#45;&gt;Metamodel::MultipleInheritance</title>
<path fill="none" stroke="#6666ff" d="M1.85642,-238.31C16.9635,-188.572 58.7493,-51.001 76.8764,8.67893"/>
<polygon fill="#6666ff" stroke="#6666ff" points="80.3173,7.96489 79.8748,18.5505 73.6195,9.99933 80.3173,7.96489"/>
</g>
<!-- Metamodel::ClassHOW&#45;&gt;Metamodel::Finalization -->
<g id="edge26" class="edge"><title>Metamodel::ClassHOW&#45;&gt;Metamodel::Finalization</title>
<path fill="none" stroke="#6666ff" d="M56.5782,-271.43C250.271,-318.826 856.001,-467.045 1062.77,-517.642"/>
<polygon fill="#6666ff" stroke="#6666ff" points="1062.06,-521.071 1072.61,-520.048 1063.73,-514.271 1062.06,-521.071"/>
</g>
<!-- Metamodel::ClassHOW&#45;&gt;Metamodel::DefaultParent -->
<g id="edge32" class="edge"><title>Metamodel::ClassHOW&#45;&gt;Metamodel::DefaultParent</title>
<path fill="none" stroke="#6666ff" d="M-10.8723,-274.695C-34.5326,-334.323 -110.396,-525.51 -138.932,-597.425"/>
<polygon fill="#6666ff" stroke="#6666ff" points="-142.352,-596.555 -142.787,-607.14 -135.845,-599.136 -142.352,-596.555"/>
</g>
<!-- Metamodel::ClassHOW&#45;&gt;Metamodel::C3MRO -->
<g id="edge33" class="edge"><title>Metamodel::ClassHOW&#45;&gt;Metamodel::C3MRO</title>
<path fill="none" stroke="#6666ff" d="M-43.9642,-273.352C-170.492,-325.788 -560.021,-487.216 -698.132,-544.452"/>
<polygon fill="#6666ff" stroke="#6666ff" points="-699.736,-541.329 -707.634,-548.39 -697.056,-547.795 -699.736,-541.329"/>
</g>
<!-- Metamodel::ClassHOW&#45;&gt;Metamodel::MROBasedMethodDispatch -->
<g id="edge34" class="edge"><title>Metamodel::ClassHOW&#45;&gt;Metamodel::MROBasedMethodDispatch</title>
<path fill="none" stroke="#6666ff" d="M-95.2166,-265.324C-125.28,-268.166 -159.384,-271.39 -192.069,-274.48"/>
<polygon fill="#6666ff" stroke="#6666ff" points="-192.535,-271.008 -202.161,-275.434 -191.876,-277.977 -192.535,-271.008"/>
</g>
<!-- Metamodel::ClassHOW&#45;&gt;Metamodel::MROBasedTypeChecking -->
<g id="edge35" class="edge"><title>Metamodel::ClassHOW&#45;&gt;Metamodel::MROBasedTypeChecking</title>
<path fill="none" stroke="#6666ff" d="M-23.3486,-274.569C-91.9373,-337.103 -321.07,-546.009 -400.729,-618.636"/>
<polygon fill="#6666ff" stroke="#6666ff" points="-403.363,-616.301 -408.394,-625.625 -398.647,-621.474 -403.363,-616.301"/>
</g>
<!-- Metamodel::ClassHOW&#45;&gt;Metamodel::Trusting -->
<g id="edge36" class="edge"><title>Metamodel::ClassHOW&#45;&gt;Metamodel::Trusting</title>
<path fill="none" stroke="#6666ff" d="M-63.9294,-271.429C-262.169,-320.007 -893.675,-474.759 -1101.9,-525.784"/>
<polygon fill="#6666ff" stroke="#6666ff" points="-1102.9,-522.427 -1111.78,-528.207 -1101.24,-529.226 -1102.9,-522.427"/>
</g>
<!-- Metamodel::ClassHOW&#45;&gt;Metamodel::BUILDPLAN -->
<g id="edge37" class="edge"><title>Metamodel::ClassHOW&#45;&gt;Metamodel::BUILDPLAN</title>
<path fill="none" stroke="#6666ff" d="M12.7708,-274.595C70.2897,-337.094 262.17,-545.586 329.477,-618.721"/>
<polygon fill="#6666ff" stroke="#6666ff" points="326.979,-621.174 336.326,-626.162 332.13,-616.434 326.979,-621.174"/>
</g>
<!-- Metamodel::ClassHOW&#45;&gt;Metamodel::Mixins -->
<g id="edge38" class="edge"><title>Metamodel::ClassHOW&#45;&gt;Metamodel::Mixins</title>
<path fill="none" stroke="#6666ff" d="M30.2632,-273.784C145.63,-331.863 522.138,-521.411 648.985,-585.27"/>
<polygon fill="#6666ff" stroke="#6666ff" points="647.525,-588.453 658.031,-589.824 650.672,-582.201 647.525,-588.453"/>
</g>
<!-- Metamodel::ClassHOW&#45;&gt;Metamodel::BoolificationProtocol -->
<g id="edge39" class="edge"><title>Metamodel::ClassHOW&#45;&gt;Metamodel::BoolificationProtocol</title>
<path fill="none" stroke="#6666ff" d="M1.30397,-274.966C17.0815,-332.39 65.6995,-509.341 84.6215,-578.209"/>
<polygon fill="#6666ff" stroke="#6666ff" points="81.2679,-579.215 87.2923,-587.93 88.0178,-577.36 81.2679,-579.215"/>
</g>
<!-- Metamodel::NativeHOW -->
<g id="node27" class="node"><title>Metamodel::NativeHOW</title>
<g id="a_node27"><a xlink:href="/type/Metamodel::NativeHOW" xlink:title="Metamodel::NativeHOW">
<ellipse fill="none" stroke="#000000" cx="-1162.62" cy="-1.55432" rx="107.482" ry="18"/>
<text text-anchor="middle" x="-1162.62" y="2.14568" font-family="FreeSans" font-size="14.00" fill="#000000">Metamodel::NativeHOW</text>
</a>
</g>
</g>
<!-- Metamodel::NativeHOW&#45;&gt;Metamodel::Versioning -->
<g id="edge42" class="edge"><title>Metamodel::NativeHOW&#45;&gt;Metamodel::Versioning</title>
<path fill="none" stroke="#6666ff" d="M-1117.77,14.8385C-984.188,63.6548 -589.335,207.954 -444.468,260.895"/>
<polygon fill="#6666ff" stroke="#6666ff" points="-443.075,257.678 -434.884,264.398 -445.478,264.253 -443.075,257.678"/>
</g>
<!-- Metamodel::NativeHOW&#45;&gt;Any -->
<g id="edge5" class="edge"><title>Metamodel::NativeHOW&#45;&gt;Any</title>
<path fill="none" stroke="#000000" d="M-1109.46,14.1213C-915.222,71.3876 -247.038,268.39 -87.1233,315.538"/>
<polygon fill="#000000" stroke="#000000" points="-85.9375,312.238 -77.3355,318.424 -87.9171,318.953 -85.9375,312.238"/>
</g>
<!-- Metamodel::NativeHOW&#45;&gt;Metamodel::Naming -->
<g id="edge40" class="edge"><title>Metamodel::NativeHOW&#45;&gt;Metamodel::Naming</title>
<path fill="none" stroke="#6666ff" d="M-1055.53,-0.0692026C-875.853,2.42231 -516.234,7.40911 -341.166,9.83676"/>
<polygon fill="#6666ff" stroke="#6666ff" points="-340.877,6.34034 -330.927,9.97876 -340.974,13.3397 -340.877,6.34034"/>
</g>
<!-- Metamodel::NativeHOW&#45;&gt;Metamodel::Documenting -->
<g id="edge41" class="edge"><title>Metamodel::NativeHOW&#45;&gt;Metamodel::Documenting</title>
<path fill="none" stroke="#6666ff" d="M-1107.28,-17.0673C-1014.6,-43.0429 -828.442,-95.2205 -729.164,-123.047"/>
<polygon fill="#6666ff" stroke="#6666ff" points="-729.824,-126.496 -719.251,-125.825 -727.935,-119.756 -729.824,-126.496"/>
</g>
<!-- Metamodel::NativeHOW&#45;&gt;Metamodel::Stashing -->
<g id="edge43" class="edge"><title>Metamodel::NativeHOW&#45;&gt;Metamodel::Stashing</title>
<path fill="none" stroke="#6666ff" d="M-1132.56,15.771C-1059.68,57.7777 -873.602,165.025 -792.542,211.745"/>
<polygon fill="#6666ff" stroke="#6666ff" points="-790.566,208.843 -783.65,216.869 -794.062,214.908 -790.566,208.843"/>
</g>
<!-- Metamodel::NativeHOW&#45;&gt;Metamodel::MultipleInheritance -->
<g id="edge44" class="edge"><title>Metamodel::NativeHOW&#45;&gt;Metamodel::MultipleInheritance</title>
<path fill="none" stroke="#6666ff" d="M-1057.26,2.14459C-815.228,10.6413 -240.195,30.8283 -240.195,30.8283 -240.195,30.8283 -144.996,32.6057 -57.5424,34.2386"/>
<polygon fill="#6666ff" stroke="#6666ff" points="-57.4045,30.7405 -47.4716,34.4266 -57.5353,37.7393 -57.4045,30.7405"/>
</g>
<!-- Metamodel::NativeHOW&#45;&gt;Metamodel::C3MRO -->
<g id="edge45" class="edge"><title>Metamodel::NativeHOW&#45;&gt;Metamodel::C3MRO</title>
<path fill="none" stroke="#6666ff" d="M-1149.28,-19.6577C-1088.56,-102.005 -838.332,-441.39 -766.61,-538.667"/>
<polygon fill="#6666ff" stroke="#6666ff" points="-769.365,-540.827 -760.614,-546.799 -763.731,-536.673 -769.365,-540.827"/>
</g>
<!-- Metamodel::NativeHOW&#45;&gt;Metamodel::MROBasedMethodDispatch -->
<g id="edge46" class="edge"><title>Metamodel::NativeHOW&#45;&gt;Metamodel::MROBasedMethodDispatch</title>
<path fill="none" stroke="#6666ff" d="M-1117.76,-18.0073C-1009.63,-57.6681 -743.446,-155.295 -743.446,-155.295 -743.446,-155.295 -508.817,-230.115 -392.667,-267.153"/>
<polygon fill="#6666ff" stroke="#6666ff" points="-393.413,-270.589 -382.822,-270.293 -391.286,-263.92 -393.413,-270.589"/>
</g>
<!-- Metamodel::NativeHOW&#45;&gt;Metamodel::MROBasedTypeChecking -->
<g id="edge47" class="edge"><title>Metamodel::NativeHOW&#45;&gt;Metamodel::MROBasedTypeChecking</title>
<path fill="none" stroke="#6666ff" d="M-1142.22,-19.4013C-1039.19,-109.507 -576.402,-514.251 -456.661,-618.975"/>
<polygon fill="#6666ff" stroke="#6666ff" points="-458.79,-621.762 -448.959,-625.711 -454.182,-616.493 -458.79,-621.762"/>
</g>
<!-- Metamodel::RolePunning -->
<g id="node28" class="node"><title>Metamodel::RolePunning</title>
<g id="a_node28"><a xlink:href="/type/Metamodel::RolePunning" xlink:title="Metamodel::RolePunning">
<ellipse fill="none" stroke="#6666ff" cx="1103.87" cy="581.229" rx="109.681" ry="18"/>
<text text-anchor="middle" x="1103.87" y="584.929" font-family="FreeSans" font-size="14.00" fill="#6666ff">Metamodel::RolePunning</text>
</a>
</g>
</g>
<!-- Metamodel::ParametricRoleHOW -->
<g id="node29" class="node"><title>Metamodel::ParametricRoleHOW</title>
<g id="a_node29"><a xlink:href="/type/Metamodel::ParametricRoleHOW" xlink:title="Metamodel::ParametricRoleHOW">
<ellipse fill="none" stroke="#000000" cx="293.443" cy="338.228" rx="142.175" ry="18"/>
<text text-anchor="middle" x="293.443" y="341.928" font-family="FreeSans" font-size="14.00" fill="#000000">Metamodel::ParametricRoleHOW</text>
</a>
</g>
</g>
<!-- Metamodel::ParametricRoleHOW&#45;&gt;Metamodel::Versioning -->
<g id="edge50" class="edge"><title>Metamodel::ParametricRoleHOW&#45;&gt;Metamodel::Versioning</title>
<path fill="none" stroke="#6666ff" d="M178.185,327.541C77.4943,318.206 -52.692,306.135 -52.692,306.135 -52.692,306.135 -187.819,295.941 -287.118,288.45"/>
<polygon fill="#6666ff" stroke="#6666ff" points="-287.507,291.931 -297.215,287.688 -286.98,284.951 -287.507,291.931"/>
</g>
<!-- Metamodel::ParametricRoleHOW&#45;&gt;Any -->
<g id="edge6" class="edge"><title>Metamodel::ParametricRoleHOW&#45;&gt;Any</title>
<path fill="none" stroke="#000000" d="M156.206,333.272C94.0727,331.029 25.5054,328.553 -15.5119,327.072"/>
<polygon fill="#000000" stroke="#000000" points="-15.7075,330.567 -25.5747,326.708 -15.4549,323.572 -15.7075,330.567"/>
</g>
<!-- Metamodel::ParametricRoleHOW&#45;&gt;Metamodel::Naming -->
<g id="edge48" class="edge"><title>Metamodel::ParametricRoleHOW&#45;&gt;Metamodel::Naming</title>
<path fill="none" stroke="#6666ff" d="M264.341,320.415C173.667,264.914 -103.667,95.1608 -204.041,33.7231"/>
<polygon fill="#6666ff" stroke="#6666ff" points="-205.933,36.6682 -212.635,28.4624 -202.279,30.6978 -205.933,36.6682"/>
</g>
<!-- Metamodel::ParametricRoleHOW&#45;&gt;Metamodel::Documenting -->
<g id="edge49" class="edge"><title>Metamodel::ParametricRoleHOW&#45;&gt;Metamodel::Documenting</title>
<path fill="none" stroke="#6666ff" d="M258.544,320.728C111.588,247.037 -456.766,-37.9623 -619.505,-119.567"/>
<polygon fill="#6666ff" stroke="#6666ff" points="-621.371,-116.588 -628.741,-124.199 -618.233,-122.845 -621.371,-116.588"/>
</g>
<!-- Metamodel::ParametricRoleHOW&#45;&gt;Metamodel::Stashing -->
<g id="edge57" class="edge"><title>Metamodel::ParametricRoleHOW&#45;&gt;Metamodel::Stashing</title>
<path fill="none" stroke="#6666ff" d="M188.907,326.008C14.0711,305.571 -318.703,266.671 -318.703,266.671 -318.703,266.671 -391.347,261.061 -391.347,261.061 -391.347,261.061 -548.951,249.321 -656.313,241.324"/>
<polygon fill="#6666ff" stroke="#6666ff" points="-656.826,244.796 -666.539,240.562 -656.306,237.815 -656.826,244.796"/>
</g>
<!-- Metamodel::ParametricRoleHOW&#45;&gt;Metamodel::TypePretense -->
<g id="edge58" class="edge"><title>Metamodel::ParametricRoleHOW&#45;&gt;Metamodel::TypePretense</title>
<path fill="none" stroke="#6666ff" d="M263.959,356.011C174.14,410.186 -96.0463,573.15 -196.114,633.506"/>
<polygon fill="#6666ff" stroke="#6666ff" points="-194.607,636.684 -204.978,638.852 -198.222,630.69 -194.607,636.684"/>
</g>
<!-- Metamodel::ParametricRoleHOW&#45;&gt;Metamodel::PrivateMethodContainer -->
<g id="edge52" class="edge"><title>Metamodel::ParametricRoleHOW&#45;&gt;Metamodel::PrivateMethodContainer</title>
<path fill="none" stroke="#6666ff" d="M340.492,321.134C485.618,268.406 925.993,108.406 1083.6,51.1444"/>
<polygon fill="#6666ff" stroke="#6666ff" points="1082.52,47.8101 1093.12,47.6847 1084.91,54.3893 1082.52,47.8101"/>
</g>
<!-- Metamodel::ParametricRoleHOW&#45;&gt;Metamodel::MethodContainer -->
<g id="edge51" class="edge"><title>Metamodel::ParametricRoleHOW&#45;&gt;Metamodel::MethodContainer</title>
<path fill="none" stroke="#6666ff" d="M366.001,322.637C437.858,307.197 547.624,283.612 621.959,267.639"/>
<polygon fill="#6666ff" stroke="#6666ff" points="621.238,264.214 631.75,265.535 622.709,271.058 621.238,264.214"/>
</g>
<!-- Metamodel::ParametricRoleHOW&#45;&gt;Metamodel::MultiMethodContainer -->
<g id="edge53" class="edge"><title>Metamodel::ParametricRoleHOW&#45;&gt;Metamodel::MultiMethodContainer</title>
<path fill="none" stroke="#6666ff" d="M299.314,319.938C315.887,268.307 363.114,121.172 383.006,59.201"/>
<polygon fill="#6666ff" stroke="#6666ff" points="379.784,57.7875 386.173,49.3357 386.449,59.9269 379.784,57.7875"/>
</g>
<!-- Metamodel::ParametricRoleHOW&#45;&gt;Metamodel::AttributeContainer -->
<g id="edge54" class="edge"><title>Metamodel::ParametricRoleHOW&#45;&gt;Metamodel::AttributeContainer</title>
<path fill="none" stroke="#6666ff" d="M307.957,320.303C370.796,242.696 619.579,-64.5527 693.966,-156.421"/>
<polygon fill="#6666ff" stroke="#6666ff" points="691.399,-158.813 700.412,-164.382 696.839,-154.408 691.399,-158.813"/>
</g>
<!-- Metamodel::ParametricRoleHOW&#45;&gt;Metamodel::RoleContainer -->
<g id="edge55" class="edge"><title>Metamodel::ParametricRoleHOW&#45;&gt;Metamodel::RoleContainer</title>
<path fill="none" stroke="#6666ff" d="M290.509,319.946C279.903,253.864 244.179,31.273 244.179,31.273 244.179,31.273 299.194,-176.585 319.531,-253.419"/>
<polygon fill="#6666ff" stroke="#6666ff" points="316.218,-254.585 322.161,-263.356 322.985,-252.794 316.218,-254.585"/>
</g>
<!-- Metamodel::ParametricRoleHOW&#45;&gt;Metamodel::MultipleInheritance -->
<g id="edge56" class="edge"><title>Metamodel::ParametricRoleHOW&#45;&gt;Metamodel::MultipleInheritance</title>
<path fill="none" stroke="#6666ff" d="M281.055,320.281C245.879,269.322 145.255,123.547 103.721,63.3769"/>
<polygon fill="#6666ff" stroke="#6666ff" points="100.837,65.36 98.0368,55.1419 106.598,61.3834 100.837,65.36"/>
</g>
<!-- Metamodel::ParametricRoleHOW&#45;&gt;Metamodel::RolePunning -->
<g id="edge59" class="edge"><title>Metamodel::ParametricRoleHOW&#45;&gt;Metamodel::RolePunning</title>
<path fill="none" stroke="#6666ff" d="M348.828,354.835C494.56,398.532 887.996,516.502 1041.41,562.502"/>
<polygon fill="#6666ff" stroke="#6666ff" points="1042.59,559.202 1051.16,565.427 1040.58,565.907 1042.59,559.202"/>
</g>
</g>
</svg>
