<?xml version="1.0" encoding="UTF-8" standalone="no"?>
<!DOCTYPE svg PUBLIC "-//W3C//DTD SVG 1.1//EN"
 "http://www.w3.org/Graphics/SVG/1.1/DTD/svg11.dtd">
<!-- Generated by graphviz version 2.38.0 (20140413.2041)
 -->
<!-- Title: perl6&#45;type&#45;graph Pages: 1 -->
<svg width="1419pt" height="332pt"
 viewBox="0.00 0.00 1418.63 332.00" xmlns="http://www.w3.org/2000/svg" xmlns:xlink="http://www.w3.org/1999/xlink">
<g id="graph0" class="graph" transform="scale(1 1) rotate(0) translate(4 328)">
<title>perl6&#45;type&#45;graph</title>
<polygon fill="white" stroke="none" points="-4,4 -4,-328 1414.63,-328 1414.63,4 -4,4"/>
<!-- X::Proc::Async -->
<g id="node1" class="node"><title>X::Proc::Async</title>
<g id="a_node1"><a xlink:href="/type/X::Proc::Async" xlink:title="X::Proc::Async">
<ellipse fill="none" stroke="#6666ff" cx="649.938" cy="-90" rx="68.4888" ry="18"/>
<text text-anchor="middle" x="649.938" y="-86.3" font-family="FreeSans" font-size="14.00" fill="#6666ff">X::Proc::Async</text>
</a>
</g>
</g>
<!-- Exception -->
<g id="node4" class="node"><title>Exception</title>
<g id="a_node4"><a xlink:href="/type/Exception" xlink:title="Exception">
<ellipse fill="none" stroke="#000000" cx="697.938" cy="-162" rx="49.2915" ry="18"/>
<text text-anchor="middle" x="697.938" y="-158.3" font-family="FreeSans" font-size="14.00" fill="#000000">Exception</text>
</a>
</g>
</g>
<!-- X::Proc::Async&#45;&gt;Exception -->
<g id="edge1" class="edge"><title>X::Proc::Async&#45;&gt;Exception</title>
<path fill="none" stroke="#000000" d="M661.558,-107.945C667.277,-116.285 674.287,-126.509 680.623,-135.748"/>
<polygon fill="#000000" stroke="#000000" points="677.884,-137.943 686.426,-144.211 683.657,-133.984 677.884,-137.943"/>
</g>
<!-- Mu -->
<g id="node2" class="node"><title>Mu</title>
<g id="a_node2"><a xlink:href="/type/Mu" xlink:title="Mu">
<ellipse fill="none" stroke="#000000" cx="697.938" cy="-306" rx="27" ry="18"/>
<text text-anchor="middle" x="697.938" y="-302.3" font-family="FreeSans" font-size="14.00" fill="#000000">Mu</text>
</a>
</g>
</g>
<!-- Any -->
<g id="node3" class="node"><title>Any</title>
<g id="a_node3"><a xlink:href="/type/Any" xlink:title="Any">
<ellipse fill="none" stroke="#000000" cx="697.938" cy="-234" rx="27" ry="18"/>
<text text-anchor="middle" x="697.938" y="-230.3" font-family="FreeSans" font-size="14.00" fill="#000000">Any</text>
</a>
</g>
</g>
<!-- Any&#45;&gt;Mu -->
<g id="edge2" class="edge"><title>Any&#45;&gt;Mu</title>
<path fill="none" stroke="#000000" d="M697.938,-252.303C697.938,-260.017 697.938,-269.288 697.938,-277.888"/>
<polygon fill="#000000" stroke="#000000" points="694.438,-277.896 697.938,-287.896 701.438,-277.896 694.438,-277.896"/>
</g>
<!-- Exception&#45;&gt;Any -->
<g id="edge3" class="edge"><title>Exception&#45;&gt;Any</title>
<path fill="none" stroke="#000000" d="M697.938,-180.303C697.938,-188.017 697.938,-197.288 697.938,-205.888"/>
<polygon fill="#000000" stroke="#000000" points="694.438,-205.896 697.938,-215.896 701.438,-205.896 694.438,-205.896"/>
</g>
<!-- X::Proc::Async::MustBeStarted -->
<g id="node5" class="node"><title>X::Proc::Async::MustBeStarted</title>
<g id="a_node5"><a xlink:href="/type/X::Proc::Async::MustBeStarted" xlink:title="X::Proc::Async::MustBeStarted">
<ellipse fill="none" stroke="#000000" cx="131.938" cy="-18" rx="131.877" ry="18"/>
<text text-anchor="middle" x="131.938" y="-14.3" font-family="FreeSans" font-size="14.00" fill="#000000">X::Proc::Async::MustBeStarted</text>
</a>
</g>
</g>
<!-- X::Proc::Async::MustBeStarted&#45;&gt;X::Proc::Async -->
<g id="edge9" class="edge"><title>X::Proc::Async::MustBeStarted&#45;&gt;X::Proc::Async</title>
<path fill="none" stroke="#6666ff" d="M222.167,-31.1931C324.145,-44.9738 487.95,-67.1097 580.467,-79.612"/>
<polygon fill="#6666ff" stroke="#6666ff" points="580.186,-83.1057 590.564,-80.9765 581.123,-76.1688 580.186,-83.1057"/>
</g>
<!-- X::Proc::Async::MustBeStarted&#45;&gt;Exception -->
<g id="edge4" class="edge"><title>X::Proc::Async::MustBeStarted&#45;&gt;Exception</title>
<path fill="none" stroke="#000000" d="M191.974,-34.0621C304.45,-62.2802 544.887,-122.602 648.62,-148.627"/>
<polygon fill="#000000" stroke="#000000" points="647.967,-152.071 658.518,-151.11 649.67,-145.282 647.967,-152.071"/>
</g>
<!-- X::Proc::Async::AlreadyStarted -->
<g id="node6" class="node"><title>X::Proc::Async::AlreadyStarted</title>
<g id="a_node6"><a xlink:href="/type/X::Proc::Async::AlreadyStarted" xlink:title="X::Proc::Async::AlreadyStarted">
<ellipse fill="none" stroke="#000000" cx="412.938" cy="-18" rx="131.077" ry="18"/>
<text text-anchor="middle" x="412.938" y="-14.3" font-family="FreeSans" font-size="14.00" fill="#000000">X::Proc::Async::AlreadyStarted</text>
</a>
</g>
</g>
<!-- X::Proc::Async::AlreadyStarted&#45;&gt;X::Proc::Async -->
<g id="edge10" class="edge"><title>X::Proc::Async::AlreadyStarted&#45;&gt;X::Proc::Async</title>
<path fill="none" stroke="#6666ff" d="M465.536,-34.5353C504.509,-46.0461 557.425,-61.6755 596.578,-73.2396"/>
<polygon fill="#6666ff" stroke="#6666ff" points="595.637,-76.611 606.219,-76.087 597.62,-69.8977 595.637,-76.611"/>
</g>
<!-- X::Proc::Async::AlreadyStarted&#45;&gt;Exception -->
<g id="edge5" class="edge"><title>X::Proc::Async::AlreadyStarted&#45;&gt;Exception</title>
<path fill="none" stroke="#000000" d="M443.033,-35.7402C489.381,-61.5213 572.938,-108 572.938,-108 572.938,-108 621.042,-128.396 657.567,-143.883"/>
<polygon fill="#000000" stroke="#000000" points="656.466,-147.218 667.039,-147.899 659.199,-140.773 656.466,-147.218"/>
</g>
<!-- X::Proc::Async::OpenForWriting -->
<g id="node7" class="node"><title>X::Proc::Async::OpenForWriting</title>
<g id="a_node7"><a xlink:href="/type/X::Proc::Async::OpenForWriting" xlink:title="X::Proc::Async::OpenForWriting">
<ellipse fill="none" stroke="#000000" cx="697.938" cy="-18" rx="135.676" ry="18"/>
<text text-anchor="middle" x="697.938" y="-14.3" font-family="FreeSans" font-size="14.00" fill="#000000">X::Proc::Async::OpenForWriting</text>
</a>
</g>
</g>
<!-- X::Proc::Async::OpenForWriting&#45;&gt;X::Proc::Async -->
<g id="edge11" class="edge"><title>X::Proc::Async::OpenForWriting&#45;&gt;X::Proc::Async</title>
<path fill="none" stroke="#6666ff" d="M686.319,-35.945C680.6,-44.2853 673.589,-54.5092 667.254,-63.7483"/>
<polygon fill="#6666ff" stroke="#6666ff" points="664.22,-61.9843 661.451,-72.211 669.993,-65.9431 664.22,-61.9843"/>
</g>
<!-- X::Proc::Async::OpenForWriting&#45;&gt;Exception -->
<g id="edge6" class="edge"><title>X::Proc::Async::OpenForWriting&#45;&gt;Exception</title>
<path fill="none" stroke="#000000" d="M707.274,-36.0613C715.751,-51.5549 726.938,-72 726.938,-72 726.938,-72 726.938,-108 726.938,-108 726.938,-108 719.46,-121.667 712.098,-135.121"/>
<polygon fill="#000000" stroke="#000000" points="708.844,-133.778 707.114,-144.23 714.985,-137.138 708.844,-133.778"/>
</g>
<!-- X::Proc::Async::TapBeforeSpawn -->
<g id="node8" class="node"><title>X::Proc::Async::TapBeforeSpawn</title>
<g id="a_node8"><a xlink:href="/type/X::Proc::Async::TapBeforeSpawn" xlink:title="X::Proc::Async::TapBeforeSpawn">
<ellipse fill="none" stroke="#000000" cx="993.938" cy="-18" rx="141.875" ry="18"/>
<text text-anchor="middle" x="993.938" y="-14.3" font-family="FreeSans" font-size="14.00" fill="#000000">X::Proc::Async::TapBeforeSpawn</text>
</a>
</g>
</g>
<!-- X::Proc::Async::TapBeforeSpawn&#45;&gt;X::Proc::Async -->
<g id="edge12" class="edge"><title>X::Proc::Async::TapBeforeSpawn&#45;&gt;X::Proc::Async</title>
<path fill="none" stroke="#6666ff" d="M922.243,-33.5891C860.166,-46.2211 771.294,-64.3055 712.161,-76.3385"/>
<polygon fill="#6666ff" stroke="#6666ff" points="711.309,-72.94 702.207,-78.3638 712.705,-79.7994 711.309,-72.94"/>
</g>
<!-- X::Proc::Async::TapBeforeSpawn&#45;&gt;Exception -->
<g id="edge7" class="edge"><title>X::Proc::Async::TapBeforeSpawn&#45;&gt;Exception</title>
<path fill="none" stroke="#000000" d="M959.404,-35.5671C903.498,-62.3871 793.607,-115.105 735.699,-142.885"/>
<polygon fill="#000000" stroke="#000000" points="734.031,-139.803 726.529,-147.284 737.059,-146.114 734.031,-139.803"/>
</g>
<!-- X::Proc::Async::CharsOrBytes -->
<g id="node9" class="node"><title>X::Proc::Async::CharsOrBytes</title>
<g id="a_node9"><a xlink:href="/type/X::Proc::Async::CharsOrBytes" xlink:title="X::Proc::Async::CharsOrBytes">
<ellipse fill="none" stroke="#000000" cx="1281.94" cy="-18" rx="128.877" ry="18"/>
<text text-anchor="middle" x="1281.94" y="-14.3" font-family="FreeSans" font-size="14.00" fill="#000000">X::Proc::Async::CharsOrBytes</text>
</a>
</g>
</g>
<!-- X::Proc::Async::CharsOrBytes&#45;&gt;X::Proc::Async -->
<g id="edge13" class="edge"><title>X::Proc::Async::CharsOrBytes&#45;&gt;X::Proc::Async</title>
<path fill="none" stroke="#6666ff" d="M1189.04,-30.5275C1164.61,-33.5593 1144.94,-36 1144.94,-36 1144.94,-36 859.539,-66.5579 722.158,-81.2674"/>
<polygon fill="#6666ff" stroke="#6666ff" points="721.7,-77.7964 712.129,-82.3412 722.445,-84.7566 721.7,-77.7964"/>
</g>
<!-- X::Proc::Async::CharsOrBytes&#45;&gt;Exception -->
<g id="edge8" class="edge"><title>X::Proc::Async::CharsOrBytes&#45;&gt;Exception</title>
<path fill="none" stroke="#000000" d="M1220.82,-33.8613C1104.78,-62.0752 854.657,-122.894 747.89,-148.854"/>
<polygon fill="#000000" stroke="#000000" points="746.904,-145.492 738.015,-151.255 748.558,-152.294 746.904,-145.492"/>
</g>
</g>
</svg>
