<?xml version="1.0" encoding="UTF-8" standalone="no"?>
<!DOCTYPE svg PUBLIC "-//W3C//DTD SVG 1.1//EN"
 "http://www.w3.org/Graphics/SVG/1.1/DTD/svg11.dtd">
<!-- Generated by graphviz version 2.38.0 (20140413.2041)
 -->
<!-- Title: perl6&#45;type&#45;graph Pages: 1 -->
<svg width="939pt" height="404pt"
 viewBox="0.00 0.00 938.90 404.00" xmlns="http://www.w3.org/2000/svg" xmlns:xlink="http://www.w3.org/1999/xlink">
<g id="graph0" class="graph" transform="scale(1 1) rotate(0) translate(4 400)">
<title>perl6&#45;type&#45;graph</title>
<polygon fill="white" stroke="none" points="-4,4 -4,-400 934.896,-400 934.896,4 -4,4"/>
<!-- Stringy -->
<g id="node1" class="node"><title>Stringy</title>
<g id="a_node1"><a xlink:href="/type/Stringy" xlink:title="Stringy">
<ellipse fill="none" stroke="#6666ff" cx="240" cy="-306" rx="38.1938" ry="18"/>
<text text-anchor="middle" x="240" y="-302.3" font-family="FreeSans" font-size="14.00" fill="#6666ff">Stringy</text>
</a>
</g>
</g>
<!-- Mu -->
<g id="node2" class="node"><title>Mu</title>
<g id="a_node2"><a xlink:href="/type/Mu" xlink:title="Mu">
<ellipse fill="none" stroke="#000000" cx="323" cy="-378" rx="27" ry="18"/>
<text text-anchor="middle" x="323" y="-374.3" font-family="FreeSans" font-size="14.00" fill="#000000">Mu</text>
</a>
</g>
</g>
<!-- Any -->
<g id="node3" class="node"><title>Any</title>
<g id="a_node3"><a xlink:href="/type/Any" xlink:title="Any">
<ellipse fill="none" stroke="#000000" cx="323" cy="-306" rx="27" ry="18"/>
<text text-anchor="middle" x="323" y="-302.3" font-family="FreeSans" font-size="14.00" fill="#000000">Any</text>
</a>
</g>
</g>
<!-- Any&#45;&gt;Mu -->
<g id="edge1" class="edge"><title>Any&#45;&gt;Mu</title>
<path fill="none" stroke="#000000" d="M323,-324.303C323,-332.017 323,-341.288 323,-349.888"/>
<polygon fill="#000000" stroke="#000000" points="319.5,-349.896 323,-359.896 326.5,-349.896 319.5,-349.896"/>
</g>
<!-- Positional -->
<g id="node4" class="node"><title>Positional</title>
<g id="a_node4"><a xlink:href="/type/Positional" xlink:title="Positional">
<ellipse fill="none" stroke="#6666ff" cx="124" cy="-306" rx="48.9926" ry="18"/>
<text text-anchor="middle" x="124" y="-302.3" font-family="FreeSans" font-size="14.00" fill="#6666ff">Positional</text>
</a>
</g>
</g>
<!-- Uni -->
<g id="node5" class="node"><title>Uni</title>
<g id="a_node5"><a xlink:href="/type/Uni" xlink:title="Uni">
<ellipse fill="none" stroke="#000000" cx="263" cy="-234" rx="27" ry="18"/>
<text text-anchor="middle" x="263" y="-230.3" font-family="FreeSans" font-size="14.00" fill="#000000">Uni</text>
</a>
</g>
</g>
<!-- Uni&#45;&gt;Stringy -->
<g id="edge23" class="edge"><title>Uni&#45;&gt;Stringy</title>
<path fill="none" stroke="#6666ff" d="M257.432,-251.945C254.844,-259.824 251.703,-269.383 248.804,-278.206"/>
<polygon fill="#6666ff" stroke="#6666ff" points="245.473,-277.132 245.676,-287.725 252.123,-279.317 245.473,-277.132"/>
</g>
<!-- Uni&#45;&gt;Any -->
<g id="edge2" class="edge"><title>Uni&#45;&gt;Any</title>
<path fill="none" stroke="#000000" d="M276.019,-250.189C284.039,-259.545 294.473,-271.718 303.47,-282.215"/>
<polygon fill="#000000" stroke="#000000" points="300.841,-284.526 310.006,-289.841 306.156,-279.97 300.841,-284.526"/>
</g>
<!-- Uni&#45;&gt;Positional -->
<g id="edge22" class="edge"><title>Uni&#45;&gt;Positional</title>
<path fill="none" stroke="#6666ff" d="M242.19,-245.48C220.741,-256.282 186.857,-273.346 160.858,-286.439"/>
<polygon fill="#6666ff" stroke="#6666ff" points="159.031,-283.44 151.674,-291.064 162.179,-289.692 159.031,-283.44"/>
</g>
<!-- Blob -->
<g id="node6" class="node"><title>Blob</title>
<g id="a_node6"><a xlink:href="/type/Blob" xlink:title="Blob">
<ellipse fill="none" stroke="#6666ff" cx="112" cy="-234" rx="28.6953" ry="18"/>
<text text-anchor="middle" x="112" y="-230.3" font-family="FreeSans" font-size="14.00" fill="#6666ff">Blob</text>
</a>
</g>
</g>
<!-- Blob&#45;&gt;Stringy -->
<g id="edge25" class="edge"><title>Blob&#45;&gt;Stringy</title>
<path fill="none" stroke="#6666ff" d="M132.85,-246.403C152.863,-257.347 183.411,-274.053 206.777,-286.831"/>
<polygon fill="#6666ff" stroke="#6666ff" points="205.208,-289.962 215.661,-291.689 208.566,-283.82 205.208,-289.962"/>
</g>
<!-- Blob&#45;&gt;Positional -->
<g id="edge24" class="edge"><title>Blob&#45;&gt;Positional</title>
<path fill="none" stroke="#6666ff" d="M114.905,-251.945C116.226,-259.654 117.824,-268.973 119.309,-277.636"/>
<polygon fill="#6666ff" stroke="#6666ff" points="115.899,-278.46 121.039,-287.725 122.798,-277.277 115.899,-278.46"/>
</g>
<!-- Cool -->
<g id="node7" class="node"><title>Cool</title>
<g id="a_node7"><a xlink:href="/type/Cool" xlink:title="Cool">
<ellipse fill="none" stroke="#000000" cx="654" cy="-234" rx="28.6953" ry="18"/>
<text text-anchor="middle" x="654" y="-230.3" font-family="FreeSans" font-size="14.00" fill="#000000">Cool</text>
</a>
</g>
</g>
<!-- Cool&#45;&gt;Any -->
<g id="edge3" class="edge"><title>Cool&#45;&gt;Any</title>
<path fill="none" stroke="#000000" d="M628.293,-242.407C612.394,-246.988 595,-252 595,-252 595,-252 432.66,-283.632 358.813,-298.022"/>
<polygon fill="#000000" stroke="#000000" points="357.735,-294.666 348.589,-300.014 359.074,-301.537 357.735,-294.666"/>
</g>
<!-- Str -->
<g id="node8" class="node"><title>Str</title>
<g id="a_node8"><a xlink:href="/type/Str" xlink:title="Str">
<ellipse fill="none" stroke="#000000" cx="612" cy="-162" rx="27" ry="18"/>
<text text-anchor="middle" x="612" y="-158.3" font-family="FreeSans" font-size="14.00" fill="#000000">Str</text>
</a>
</g>
</g>
<!-- Str&#45;&gt;Stringy -->
<g id="edge26" class="edge"><title>Str&#45;&gt;Stringy</title>
<path fill="none" stroke="#6666ff" d="M590.643,-173.085C582.891,-176.746 576,-180 576,-180 576,-180 366.944,-257.774 278.635,-290.627"/>
<polygon fill="#6666ff" stroke="#6666ff" points="277.382,-287.359 269.23,-294.126 279.823,-293.919 277.382,-287.359"/>
</g>
<!-- Str&#45;&gt;Cool -->
<g id="edge4" class="edge"><title>Str&#45;&gt;Cool</title>
<path fill="none" stroke="#000000" d="M621.53,-178.884C626.666,-187.443 633.122,-198.203 638.921,-207.868"/>
<polygon fill="#000000" stroke="#000000" points="636.07,-209.919 644.216,-216.693 642.072,-206.317 636.07,-209.919"/>
</g>
<!-- NFKC -->
<g id="node9" class="node"><title>NFKC</title>
<g id="a_node9"><a xlink:href="/type/NFKC" xlink:title="NFKC">
<ellipse fill="none" stroke="#000000" cx="180" cy="-162" rx="35.9954" ry="18"/>
<text text-anchor="middle" x="180" y="-158.3" font-family="FreeSans" font-size="14.00" fill="#000000">NFKC</text>
</a>
</g>
</g>
<!-- NFKC&#45;&gt;Uni -->
<g id="edge5" class="edge"><title>NFKC&#45;&gt;Uni</title>
<path fill="none" stroke="#000000" d="M197.602,-177.845C209.661,-188.015 225.803,-201.629 239.032,-212.786"/>
<polygon fill="#000000" stroke="#000000" points="236.93,-215.592 246.831,-219.363 241.443,-210.241 236.93,-215.592"/>
</g>
<!-- NFC -->
<g id="node10" class="node"><title>NFC</title>
<g id="a_node10"><a xlink:href="/type/NFC" xlink:title="NFC">
<ellipse fill="none" stroke="#000000" cx="263" cy="-162" rx="29.4969" ry="18"/>
<text text-anchor="middle" x="263" y="-158.3" font-family="FreeSans" font-size="14.00" fill="#000000">NFC</text>
</a>
</g>
</g>
<!-- NFC&#45;&gt;Uni -->
<g id="edge6" class="edge"><title>NFC&#45;&gt;Uni</title>
<path fill="none" stroke="#000000" d="M263,-180.303C263,-188.017 263,-197.288 263,-205.888"/>
<polygon fill="#000000" stroke="#000000" points="259.5,-205.896 263,-215.896 266.5,-205.896 259.5,-205.896"/>
</g>
<!-- NFKD -->
<g id="node11" class="node"><title>NFKD</title>
<g id="a_node11"><a xlink:href="/type/NFKD" xlink:title="NFKD">
<ellipse fill="none" stroke="#000000" cx="346" cy="-162" rx="35.9954" ry="18"/>
<text text-anchor="middle" x="346" y="-158.3" font-family="FreeSans" font-size="14.00" fill="#000000">NFKD</text>
</a>
</g>
</g>
<!-- NFKD&#45;&gt;Uni -->
<g id="edge7" class="edge"><title>NFKD&#45;&gt;Uni</title>
<path fill="none" stroke="#000000" d="M328.398,-177.845C316.339,-188.015 300.197,-201.629 286.968,-212.786"/>
<polygon fill="#000000" stroke="#000000" points="284.557,-210.241 279.169,-219.363 289.07,-215.592 284.557,-210.241"/>
</g>
<!-- NFD -->
<g id="node12" class="node"><title>NFD</title>
<g id="a_node12"><a xlink:href="/type/NFD" xlink:title="NFD">
<ellipse fill="none" stroke="#000000" cx="429" cy="-162" rx="29.4969" ry="18"/>
<text text-anchor="middle" x="429" y="-158.3" font-family="FreeSans" font-size="14.00" fill="#000000">NFD</text>
</a>
</g>
</g>
<!-- NFD&#45;&gt;Uni -->
<g id="edge8" class="edge"><title>NFD&#45;&gt;Uni</title>
<path fill="none" stroke="#000000" d="M406.019,-173.281C398.016,-176.861 391,-180 391,-180 391,-180 332.83,-204.086 294.918,-219.784"/>
<polygon fill="#000000" stroke="#000000" points="293.196,-216.709 285.296,-223.768 295.874,-223.176 293.196,-216.709"/>
</g>
<!-- Numeric -->
<g id="node13" class="node"><title>Numeric</title>
<g id="a_node13"><a xlink:href="/type/Numeric" xlink:title="Numeric">
<ellipse fill="none" stroke="#6666ff" cx="633" cy="-306" rx="44.393" ry="18"/>
<text text-anchor="middle" x="633" y="-302.3" font-family="FreeSans" font-size="14.00" fill="#6666ff">Numeric</text>
</a>
</g>
</g>
<!-- Real -->
<g id="node14" class="node"><title>Real</title>
<g id="a_node14"><a xlink:href="/type/Real" xlink:title="Real">
<ellipse fill="none" stroke="#6666ff" cx="737" cy="-234" rx="28.6953" ry="18"/>
<text text-anchor="middle" x="737" y="-230.3" font-family="FreeSans" font-size="14.00" fill="#6666ff">Real</text>
</a>
</g>
</g>
<!-- Real&#45;&gt;Numeric -->
<g id="edge27" class="edge"><title>Real&#45;&gt;Numeric</title>
<path fill="none" stroke="#6666ff" d="M717.925,-247.839C702.605,-258.15 680.808,-272.821 663.133,-284.718"/>
<polygon fill="#6666ff" stroke="#6666ff" points="661.175,-281.817 654.833,-290.304 665.084,-287.624 661.175,-281.817"/>
</g>
<!-- Int -->
<g id="node15" class="node"><title>Int</title>
<g id="a_node15"><a xlink:href="/type/Int" xlink:title="Int">
<ellipse fill="none" stroke="#000000" cx="800" cy="-162" rx="27" ry="18"/>
<text text-anchor="middle" x="800" y="-158.3" font-family="FreeSans" font-size="14.00" fill="#000000">Int</text>
</a>
</g>
</g>
<!-- Int&#45;&gt;Cool -->
<g id="edge9" class="edge"><title>Int&#45;&gt;Cool</title>
<path fill="none" stroke="#000000" d="M778.77,-173.179C754.185,-184.966 713.46,-204.492 685.256,-218.014"/>
<polygon fill="#000000" stroke="#000000" points="683.717,-214.871 676.213,-222.35 686.743,-221.183 683.717,-214.871"/>
</g>
<!-- Int&#45;&gt;Real -->
<g id="edge28" class="edge"><title>Int&#45;&gt;Real</title>
<path fill="none" stroke="#6666ff" d="M786.639,-177.845C778.235,-187.184 767.217,-199.426 757.697,-210.003"/>
<polygon fill="#6666ff" stroke="#6666ff" points="754.865,-207.918 750.777,-217.692 760.068,-212.601 754.865,-207.918"/>
</g>
<!-- IntStr -->
<g id="node16" class="node"><title>IntStr</title>
<g id="a_node16"><a xlink:href="/type/IntStr" xlink:title="IntStr">
<ellipse fill="none" stroke="#000000" cx="772" cy="-90" rx="31.6951" ry="18"/>
<text text-anchor="middle" x="772" y="-86.3" font-family="FreeSans" font-size="14.00" fill="#000000">IntStr</text>
</a>
</g>
</g>
<!-- IntStr&#45;&gt;Str -->
<g id="edge11" class="edge"><title>IntStr&#45;&gt;Str</title>
<path fill="none" stroke="#000000" d="M747.351,-101.784C719.429,-114 673.863,-133.935 643.413,-147.257"/>
<polygon fill="#000000" stroke="#000000" points="641.858,-144.117 634.1,-151.331 644.664,-150.53 641.858,-144.117"/>
</g>
<!-- IntStr&#45;&gt;Int -->
<g id="edge10" class="edge"><title>IntStr&#45;&gt;Int</title>
<path fill="none" stroke="#000000" d="M778.778,-107.945C782.011,-116.027 785.951,-125.879 789.555,-134.888"/>
<polygon fill="#000000" stroke="#000000" points="786.321,-136.226 793.284,-144.211 792.82,-133.626 786.321,-136.226"/>
</g>
<!-- Complex -->
<g id="node17" class="node"><title>Complex</title>
<g id="a_node17"><a xlink:href="/type/Complex" xlink:title="Complex">
<ellipse fill="none" stroke="#000000" cx="522" cy="-162" rx="45.4919" ry="18"/>
<text text-anchor="middle" x="522" y="-158.3" font-family="FreeSans" font-size="14.00" fill="#000000">Complex</text>
</a>
</g>
</g>
<!-- Complex&#45;&gt;Cool -->
<g id="edge12" class="edge"><title>Complex&#45;&gt;Cool</title>
<path fill="none" stroke="#000000" d="M548.079,-176.83C569.871,-188.386 600.964,-204.875 623.827,-216.999"/>
<polygon fill="#000000" stroke="#000000" points="622.288,-220.145 632.762,-221.738 625.567,-213.96 622.288,-220.145"/>
</g>
<!-- Complex&#45;&gt;Numeric -->
<g id="edge29" class="edge"><title>Complex&#45;&gt;Numeric</title>
<path fill="none" stroke="#6666ff" d="M534.733,-179.289C554.117,-204.087 591.162,-251.477 613.816,-280.459"/>
<polygon fill="#6666ff" stroke="#6666ff" points="611.157,-282.74 620.073,-288.463 616.672,-278.429 611.157,-282.74"/>
</g>
<!-- ComplexStr -->
<g id="node18" class="node"><title>ComplexStr</title>
<g id="a_node18"><a xlink:href="/type/ComplexStr" xlink:title="ComplexStr">
<ellipse fill="none" stroke="#000000" cx="525" cy="-90" rx="56.59" ry="18"/>
<text text-anchor="middle" x="525" y="-86.3" font-family="FreeSans" font-size="14.00" fill="#000000">ComplexStr</text>
</a>
</g>
</g>
<!-- ComplexStr&#45;&gt;Str -->
<g id="edge14" class="edge"><title>ComplexStr&#45;&gt;Str</title>
<path fill="none" stroke="#000000" d="M544.742,-106.884C557.363,-117.039 573.833,-130.291 587.316,-141.14"/>
<polygon fill="#000000" stroke="#000000" points="585.279,-143.992 595.264,-147.534 589.667,-138.539 585.279,-143.992"/>
</g>
<!-- ComplexStr&#45;&gt;Complex -->
<g id="edge13" class="edge"><title>ComplexStr&#45;&gt;Complex</title>
<path fill="none" stroke="#000000" d="M524.258,-108.303C523.928,-116.017 523.531,-125.288 523.162,-133.888"/>
<polygon fill="#000000" stroke="#000000" points="519.665,-133.755 522.733,-143.896 526.658,-134.055 519.665,-133.755"/>
</g>
<!-- Num -->
<g id="node19" class="node"><title>Num</title>
<g id="a_node19"><a xlink:href="/type/Num" xlink:title="Num">
<ellipse fill="none" stroke="#000000" cx="725" cy="-162" rx="29.795" ry="18"/>
<text text-anchor="middle" x="725" y="-158.3" font-family="FreeSans" font-size="14.00" fill="#000000">Num</text>
</a>
</g>
</g>
<!-- Num&#45;&gt;Cool -->
<g id="edge15" class="edge"><title>Num&#45;&gt;Cool</title>
<path fill="none" stroke="#000000" d="M709.943,-177.845C700.153,-187.497 687.217,-200.251 676.25,-211.063"/>
<polygon fill="#000000" stroke="#000000" points="673.699,-208.663 669.036,-218.176 678.614,-213.648 673.699,-208.663"/>
</g>
<!-- Num&#45;&gt;Real -->
<g id="edge30" class="edge"><title>Num&#45;&gt;Real</title>
<path fill="none" stroke="#6666ff" d="M727.905,-179.945C729.226,-187.654 730.824,-196.973 732.309,-205.636"/>
<polygon fill="#6666ff" stroke="#6666ff" points="728.899,-206.46 734.039,-215.725 735.798,-205.277 728.899,-206.46"/>
</g>
<!-- NumStr -->
<g id="node20" class="node"><title>NumStr</title>
<g id="a_node20"><a xlink:href="/type/NumStr" xlink:title="NumStr">
<ellipse fill="none" stroke="#000000" cx="681" cy="-90" rx="40.8928" ry="18"/>
<text text-anchor="middle" x="681" y="-86.3" font-family="FreeSans" font-size="14.00" fill="#000000">NumStr</text>
</a>
</g>
</g>
<!-- NumStr&#45;&gt;Str -->
<g id="edge17" class="edge"><title>NumStr&#45;&gt;Str</title>
<path fill="none" stroke="#000000" d="M665.343,-106.884C655.872,-116.492 643.669,-128.872 633.325,-139.366"/>
<polygon fill="#000000" stroke="#000000" points="630.714,-137.029 626.187,-146.607 635.7,-141.943 630.714,-137.029"/>
</g>
<!-- NumStr&#45;&gt;Num -->
<g id="edge16" class="edge"><title>NumStr&#45;&gt;Num</title>
<path fill="none" stroke="#000000" d="M691.427,-107.589C696.82,-116.168 703.509,-126.809 709.493,-136.33"/>
<polygon fill="#000000" stroke="#000000" points="706.665,-138.408 714.95,-145.012 712.592,-134.683 706.665,-138.408"/>
</g>
<!-- Rational -->
<g id="node21" class="node"><title>Rational</title>
<g id="a_node21"><a xlink:href="/type/Rational" xlink:title="Rational">
<ellipse fill="none" stroke="#6666ff" cx="888" cy="-162" rx="42.7926" ry="18"/>
<text text-anchor="middle" x="888" y="-158.3" font-family="FreeSans" font-size="14.00" fill="#6666ff">Rational</text>
</a>
</g>
</g>
<!-- Rational&#45;&gt;Real -->
<g id="edge31" class="edge"><title>Rational&#45;&gt;Real</title>
<path fill="none" stroke="#6666ff" d="M860.304,-175.839C834.522,-187.791 796.106,-205.6 769.019,-218.157"/>
<polygon fill="#6666ff" stroke="#6666ff" points="767.197,-215.144 759.596,-222.525 770.141,-221.495 767.197,-215.144"/>
</g>
<!-- Rat -->
<g id="node22" class="node"><title>Rat</title>
<g id="a_node22"><a xlink:href="/type/Rat" xlink:title="Rat">
<ellipse fill="none" stroke="#000000" cx="849" cy="-90" rx="27" ry="18"/>
<text text-anchor="middle" x="849" y="-86.3" font-family="FreeSans" font-size="14.00" fill="#000000">Rat</text>
</a>
</g>
</g>
<!-- Rat&#45;&gt;Cool -->
<g id="edge18" class="edge"><title>Rat&#45;&gt;Cool</title>
<path fill="none" stroke="#000000" d="M827.643,-101.085C819.891,-104.746 813,-108 813,-108 813,-108 686,-144 686,-144 686,-144 672.86,-180.545 663.421,-206.799"/>
<polygon fill="#000000" stroke="#000000" points="660.109,-205.665 660.019,-216.26 666.696,-208.034 660.109,-205.665"/>
</g>
<!-- Rat&#45;&gt;Rational -->
<g id="edge32" class="edge"><title>Rat&#45;&gt;Rational</title>
<path fill="none" stroke="#6666ff" d="M858.045,-107.235C862.703,-115.596 868.491,-125.984 873.734,-135.394"/>
<polygon fill="#6666ff" stroke="#6666ff" points="870.808,-137.334 878.733,-144.367 876.923,-133.927 870.808,-137.334"/>
</g>
<!-- RatStr -->
<g id="node23" class="node"><title>RatStr</title>
<g id="a_node23"><a xlink:href="/type/RatStr" xlink:title="RatStr">
<ellipse fill="none" stroke="#000000" cx="730" cy="-18" rx="35.9954" ry="18"/>
<text text-anchor="middle" x="730" y="-14.3" font-family="FreeSans" font-size="14.00" fill="#000000">RatStr</text>
</a>
</g>
</g>
<!-- RatStr&#45;&gt;Str -->
<g id="edge20" class="edge"><title>RatStr&#45;&gt;Str</title>
<path fill="none" stroke="#000000" d="M706.287,-31.6948C676.999,-47.3744 631,-72 631,-72 631,-72 623.35,-107.833 617.759,-134.025"/>
<polygon fill="#000000" stroke="#000000" points="614.328,-133.33 615.663,-143.84 621.174,-134.791 614.328,-133.33"/>
</g>
<!-- RatStr&#45;&gt;Rat -->
<g id="edge19" class="edge"><title>RatStr&#45;&gt;Rat</title>
<path fill="none" stroke="#000000" d="M752.383,-32.1665C771.737,-43.5511 799.814,-60.0672 820.719,-72.364"/>
<polygon fill="#000000" stroke="#000000" points="819.083,-75.4622 829.477,-77.5156 822.632,-69.4286 819.083,-75.4622"/>
</g>
<!-- Buf -->
<g id="node24" class="node"><title>Buf</title>
<g id="a_node24"><a xlink:href="/type/Buf" xlink:title="Buf">
<ellipse fill="none" stroke="#6666ff" cx="27" cy="-162" rx="27" ry="18"/>
<text text-anchor="middle" x="27" y="-158.3" font-family="FreeSans" font-size="14.00" fill="#6666ff">Buf</text>
</a>
</g>
</g>
<!-- Buf&#45;&gt;Blob -->
<g id="edge33" class="edge"><title>Buf&#45;&gt;Blob</title>
<path fill="none" stroke="#6666ff" d="M43.3889,-176.497C55.8904,-186.792 73.3132,-201.14 87.4732,-212.801"/>
<polygon fill="#6666ff" stroke="#6666ff" points="85.4271,-215.651 95.3714,-219.306 89.8771,-210.247 85.4271,-215.651"/>
</g>
<!-- utf8 -->
<g id="node25" class="node"><title>utf8</title>
<g id="a_node25"><a xlink:href="/type/utf8" xlink:title="utf8">
<ellipse fill="none" stroke="#000000" cx="99" cy="-162" rx="27" ry="18"/>
<text text-anchor="middle" x="99" y="-158.3" font-family="FreeSans" font-size="14.00" fill="#000000">utf8</text>
</a>
</g>
</g>
<!-- utf8&#45;&gt;Any -->
<g id="edge21" class="edge"><title>utf8&#45;&gt;Any</title>
<path fill="none" stroke="#000000" d="M117.068,-175.563C152.351,-200.096 227,-252 227,-252 227,-252 265.31,-273.15 293.528,-288.729"/>
<polygon fill="#000000" stroke="#000000" points="292.195,-291.991 302.641,-293.76 295.578,-285.863 292.195,-291.991"/>
</g>
<!-- utf8&#45;&gt;Blob -->
<g id="edge34" class="edge"><title>utf8&#45;&gt;Blob</title>
<path fill="none" stroke="#6666ff" d="M102.147,-179.945C103.579,-187.654 105.309,-196.973 106.918,-205.636"/>
<polygon fill="#6666ff" stroke="#6666ff" points="103.525,-206.532 108.792,-215.725 110.407,-205.254 103.525,-206.532"/>
</g>
</g>
</svg>
