<?xml version="1.0" encoding="UTF-8" standalone="no"?>
<!DOCTYPE svg PUBLIC "-//W3C//DTD SVG 1.1//EN"
 "http://www.w3.org/Graphics/SVG/1.1/DTD/svg11.dtd">
<!-- Generated by graphviz version 2.38.0 (20140413.2041)
 -->
<!-- Title: perl6&#45;type&#45;graph Pages: 1 -->
<svg width="280pt" height="332pt"
 viewBox="0.00 0.00 279.68 332.00" xmlns="http://www.w3.org/2000/svg" xmlns:xlink="http://www.w3.org/1999/xlink">
<g id="graph0" class="graph" transform="scale(1 1) rotate(0) translate(4 328)">
<title>perl6&#45;type&#45;graph</title>
<polygon fill="white" stroke="none" points="-4,4 -4,-328 275.676,-328 275.676,4 -4,4"/>
<!-- X::Placeholder::NonPlaceholder -->
<g id="node1" class="node"><title>X::Placeholder::NonPlaceholder</title>
<g id="a_node1"><a xlink:href="/type/X::Placeholder::NonPlaceholder" xlink:title="X::Placeholder::NonPlaceholder">
<ellipse fill="none" stroke="#000000" cx="135.838" cy="-18" rx="135.676" ry="18"/>
<text text-anchor="middle" x="135.838" y="-14.3" font-family="FreeSans" font-size="14.00" fill="#000000">X::Placeholder::NonPlaceholder</text>
</a>
</g>
</g>
<!-- Exception -->
<g id="node4" class="node"><title>Exception</title>
<g id="a_node4"><a xlink:href="/type/Exception" xlink:title="Exception">
<ellipse fill="none" stroke="#000000" cx="135.838" cy="-162" rx="49.2915" ry="18"/>
<text text-anchor="middle" x="135.838" y="-158.3" font-family="FreeSans" font-size="14.00" fill="#000000">Exception</text>
</a>
</g>
</g>
<!-- X::Placeholder::NonPlaceholder&#45;&gt;Exception -->
<g id="edge1" class="edge"><title>X::Placeholder::NonPlaceholder&#45;&gt;Exception</title>
<path fill="none" stroke="#000000" d="M130.365,-36.0613C125.396,-51.5549 118.838,-72 118.838,-72 118.838,-72 118.838,-108 118.838,-108 118.838,-108 123.002,-120.983 127.209,-134.097"/>
<polygon fill="#000000" stroke="#000000" points="123.978,-135.486 130.365,-143.939 130.644,-133.348 123.978,-135.486"/>
</g>
<!-- X::Comp -->
<g id="node5" class="node"><title>X::Comp</title>
<g id="a_node5"><a xlink:href="/type/X::Comp" xlink:title="X::Comp">
<ellipse fill="none" stroke="#6666ff" cx="172.838" cy="-90" rx="44.6926" ry="18"/>
<text text-anchor="middle" x="172.838" y="-86.3" font-family="FreeSans" font-size="14.00" fill="#6666ff">X::Comp</text>
</a>
</g>
</g>
<!-- X::Placeholder::NonPlaceholder&#45;&gt;X::Comp -->
<g id="edge5" class="edge"><title>X::Placeholder::NonPlaceholder&#45;&gt;X::Comp</title>
<path fill="none" stroke="#6666ff" d="M144.984,-36.3034C149.241,-44.3564 154.394,-54.1055 159.104,-63.0176"/>
<polygon fill="#6666ff" stroke="#6666ff" points="156.03,-64.6903 163.797,-71.8957 162.218,-61.4191 156.03,-64.6903"/>
</g>
<!-- Mu -->
<g id="node2" class="node"><title>Mu</title>
<g id="a_node2"><a xlink:href="/type/Mu" xlink:title="Mu">
<ellipse fill="none" stroke="#000000" cx="135.838" cy="-306" rx="27" ry="18"/>
<text text-anchor="middle" x="135.838" y="-302.3" font-family="FreeSans" font-size="14.00" fill="#000000">Mu</text>
</a>
</g>
</g>
<!-- Any -->
<g id="node3" class="node"><title>Any</title>
<g id="a_node3"><a xlink:href="/type/Any" xlink:title="Any">
<ellipse fill="none" stroke="#000000" cx="135.838" cy="-234" rx="27" ry="18"/>
<text text-anchor="middle" x="135.838" y="-230.3" font-family="FreeSans" font-size="14.00" fill="#000000">Any</text>
</a>
</g>
</g>
<!-- Any&#45;&gt;Mu -->
<g id="edge2" class="edge"><title>Any&#45;&gt;Mu</title>
<path fill="none" stroke="#000000" d="M135.838,-252.303C135.838,-260.017 135.838,-269.288 135.838,-277.888"/>
<polygon fill="#000000" stroke="#000000" points="132.338,-277.896 135.838,-287.896 139.338,-277.896 132.338,-277.896"/>
</g>
<!-- Exception&#45;&gt;Any -->
<g id="edge3" class="edge"><title>Exception&#45;&gt;Any</title>
<path fill="none" stroke="#000000" d="M135.838,-180.303C135.838,-188.017 135.838,-197.288 135.838,-205.888"/>
<polygon fill="#000000" stroke="#000000" points="132.338,-205.896 135.838,-215.896 139.338,-205.896 132.338,-205.896"/>
</g>
<!-- X::Comp&#45;&gt;Exception -->
<g id="edge4" class="edge"><title>X::Comp&#45;&gt;Exception</title>
<path fill="none" stroke="#000000" d="M163.881,-107.945C159.564,-116.113 154.291,-126.088 149.488,-135.176"/>
<polygon fill="#000000" stroke="#000000" points="146.291,-133.734 144.712,-144.211 152.48,-137.006 146.291,-133.734"/>
</g>
</g>
</svg>
