<?xml version="1.0" encoding="UTF-8" standalone="no"?>
<!DOCTYPE svg PUBLIC "-//W3C//DTD SVG 1.1//EN"
 "http://www.w3.org/Graphics/SVG/1.1/DTD/svg11.dtd">
<!-- Generated by graphviz version 2.38.0 (20140413.2041)
 -->
<!-- Title: perl6&#45;type&#45;graph Pages: 1 -->
<svg width="219pt" height="404pt"
 viewBox="0.00 0.00 218.79 404.00" xmlns="http://www.w3.org/2000/svg" xmlns:xlink="http://www.w3.org/1999/xlink">
<g id="graph0" class="graph" transform="scale(1 1) rotate(0) translate(4 400)">
<title>perl6&#45;type&#45;graph</title>
<polygon fill="white" stroke="none" points="-4,4 -4,-400 214.788,-400 214.788,4 -4,4"/>
<!-- X::Syntax::VirtualCall -->
<g id="node1" class="node"><title>X::Syntax::VirtualCall</title>
<g id="a_node1"><a xlink:href="/type/X::Syntax::VirtualCall" xlink:title="X::Syntax::VirtualCall">
<ellipse fill="none" stroke="#000000" cx="92.9418" cy="-18" rx="92.8835" ry="18"/>
<text text-anchor="middle" x="92.9418" y="-14.3" font-family="FreeSans" font-size="14.00" fill="#000000">X::Syntax::VirtualCall</text>
</a>
</g>
</g>
<!-- Exception -->
<g id="node4" class="node"><title>Exception</title>
<g id="a_node4"><a xlink:href="/type/Exception" xlink:title="Exception">
<ellipse fill="none" stroke="#000000" cx="92.9418" cy="-234" rx="49.2915" ry="18"/>
<text text-anchor="middle" x="92.9418" y="-230.3" font-family="FreeSans" font-size="14.00" fill="#000000">Exception</text>
</a>
</g>
</g>
<!-- X::Syntax::VirtualCall&#45;&gt;Exception -->
<g id="edge1" class="edge"><title>X::Syntax::VirtualCall&#45;&gt;Exception</title>
<path fill="none" stroke="#000000" d="M86.8254,-36.0613C81.2711,-51.5549 73.9418,-72 73.9418,-72 73.9418,-72 73.9418,-108 73.9418,-108 73.9418,-108 83.215,-169.008 88.8046,-205.782"/>
<polygon fill="#000000" stroke="#000000" points="85.3766,-206.521 90.3397,-215.881 92.2972,-205.469 85.3766,-206.521"/>
</g>
<!-- X::Syntax -->
<g id="node6" class="node"><title>X::Syntax</title>
<g id="a_node6"><a xlink:href="/type/X::Syntax" xlink:title="X::Syntax">
<ellipse fill="none" stroke="#6666ff" cx="130.942" cy="-90" rx="48.1917" ry="18"/>
<text text-anchor="middle" x="130.942" y="-86.3" font-family="FreeSans" font-size="14.00" fill="#6666ff">X::Syntax</text>
</a>
</g>
</g>
<!-- X::Syntax::VirtualCall&#45;&gt;X::Syntax -->
<g id="edge6" class="edge"><title>X::Syntax::VirtualCall&#45;&gt;X::Syntax</title>
<path fill="none" stroke="#6666ff" d="M102.14,-35.945C106.575,-44.1134 111.99,-54.0884 116.923,-63.1756"/>
<polygon fill="#6666ff" stroke="#6666ff" points="113.981,-65.0923 121.828,-72.211 120.133,-61.7526 113.981,-65.0923"/>
</g>
<!-- Mu -->
<g id="node2" class="node"><title>Mu</title>
<g id="a_node2"><a xlink:href="/type/Mu" xlink:title="Mu">
<ellipse fill="none" stroke="#000000" cx="92.9418" cy="-378" rx="27" ry="18"/>
<text text-anchor="middle" x="92.9418" y="-374.3" font-family="FreeSans" font-size="14.00" fill="#000000">Mu</text>
</a>
</g>
</g>
<!-- Any -->
<g id="node3" class="node"><title>Any</title>
<g id="a_node3"><a xlink:href="/type/Any" xlink:title="Any">
<ellipse fill="none" stroke="#000000" cx="92.9418" cy="-306" rx="27" ry="18"/>
<text text-anchor="middle" x="92.9418" y="-302.3" font-family="FreeSans" font-size="14.00" fill="#000000">Any</text>
</a>
</g>
</g>
<!-- Any&#45;&gt;Mu -->
<g id="edge2" class="edge"><title>Any&#45;&gt;Mu</title>
<path fill="none" stroke="#000000" d="M92.9418,-324.303C92.9418,-332.017 92.9418,-341.288 92.9418,-349.888"/>
<polygon fill="#000000" stroke="#000000" points="89.4419,-349.896 92.9418,-359.896 96.4419,-349.896 89.4419,-349.896"/>
</g>
<!-- Exception&#45;&gt;Any -->
<g id="edge3" class="edge"><title>Exception&#45;&gt;Any</title>
<path fill="none" stroke="#000000" d="M92.9418,-252.303C92.9418,-260.017 92.9418,-269.288 92.9418,-277.888"/>
<polygon fill="#000000" stroke="#000000" points="89.4419,-277.896 92.9418,-287.896 96.4419,-277.896 89.4419,-277.896"/>
</g>
<!-- X::Comp -->
<g id="node5" class="node"><title>X::Comp</title>
<g id="a_node5"><a xlink:href="/type/X::Comp" xlink:title="X::Comp">
<ellipse fill="none" stroke="#6666ff" cx="165.942" cy="-162" rx="44.6926" ry="18"/>
<text text-anchor="middle" x="165.942" y="-158.3" font-family="FreeSans" font-size="14.00" fill="#6666ff">X::Comp</text>
</a>
</g>
</g>
<!-- X::Comp&#45;&gt;Exception -->
<g id="edge4" class="edge"><title>X::Comp&#45;&gt;Exception</title>
<path fill="none" stroke="#000000" d="M149.377,-178.884C139.831,-188.038 127.661,-199.707 117.068,-209.865"/>
<polygon fill="#000000" stroke="#000000" points="114.489,-207.489 109.694,-216.936 119.334,-212.541 114.489,-207.489"/>
</g>
<!-- X::Syntax&#45;&gt;Exception -->
<g id="edge5" class="edge"><title>X::Syntax&#45;&gt;Exception</title>
<path fill="none" stroke="#000000" d="M124.825,-108.061C119.271,-123.555 111.942,-144 111.942,-144 111.942,-144 104.292,-179.833 98.7004,-206.025"/>
<polygon fill="#000000" stroke="#000000" points="95.2701,-205.33 96.6051,-215.84 102.116,-206.791 95.2701,-205.33"/>
</g>
<!-- X::Syntax&#45;&gt;X::Comp -->
<g id="edge7" class="edge"><title>X::Syntax&#45;&gt;X::Comp</title>
<path fill="none" stroke="#6666ff" d="M139.414,-107.945C143.498,-116.113 148.486,-126.088 153.03,-135.176"/>
<polygon fill="#6666ff" stroke="#6666ff" points="149.945,-136.832 157.547,-144.211 156.206,-133.701 149.945,-136.832"/>
</g>
</g>
</svg>
