<?xml version="1.0" encoding="UTF-8" standalone="no"?>
<!DOCTYPE svg PUBLIC "-//W3C//DTD SVG 1.1//EN"
 "http://www.w3.org/Graphics/SVG/1.1/DTD/svg11.dtd">
<!-- Generated by graphviz version 2.38.0 (20140413.2041)
 -->
<!-- Title: perl6&#45;type&#45;graph Pages: 1 -->
<svg width="1718pt" height="260pt"
 viewBox="0.00 0.00 1717.89 260.00" xmlns="http://www.w3.org/2000/svg" xmlns:xlink="http://www.w3.org/1999/xlink">
<g id="graph0" class="graph" transform="scale(1 1) rotate(0) translate(4 256)">
<title>perl6&#45;type&#45;graph</title>
<polygon fill="white" stroke="none" points="-4,4 -4,-256 1713.89,-256 1713.89,4 -4,4"/>
<!-- Pod::Block -->
<g id="node1" class="node"><title>Pod::Block</title>
<g id="a_node1"><a xlink:href="/type/Pod::Block" xlink:title="Pod::Block">
<ellipse fill="none" stroke="#000000" cx="906.791" cy="-90" rx="53.0913" ry="18"/>
<text text-anchor="middle" x="906.791" y="-86.3" font-family="FreeSans" font-size="14.00" fill="#000000">Pod::Block</text>
</a>
</g>
</g>
<!-- Any -->
<g id="node3" class="node"><title>Any</title>
<g id="a_node3"><a xlink:href="/type/Any" xlink:title="Any">
<ellipse fill="none" stroke="#000000" cx="906.791" cy="-162" rx="27" ry="18"/>
<text text-anchor="middle" x="906.791" y="-158.3" font-family="FreeSans" font-size="14.00" fill="#000000">Any</text>
</a>
</g>
</g>
<!-- Pod::Block&#45;&gt;Any -->
<g id="edge1" class="edge"><title>Pod::Block&#45;&gt;Any</title>
<path fill="none" stroke="#000000" d="M906.791,-108.303C906.791,-116.017 906.791,-125.288 906.791,-133.888"/>
<polygon fill="#000000" stroke="#000000" points="903.291,-133.896 906.791,-143.896 910.291,-133.896 903.291,-133.896"/>
</g>
<!-- Mu -->
<g id="node2" class="node"><title>Mu</title>
<g id="a_node2"><a xlink:href="/type/Mu" xlink:title="Mu">
<ellipse fill="none" stroke="#000000" cx="906.791" cy="-234" rx="27" ry="18"/>
<text text-anchor="middle" x="906.791" y="-230.3" font-family="FreeSans" font-size="14.00" fill="#000000">Mu</text>
</a>
</g>
</g>
<!-- Any&#45;&gt;Mu -->
<g id="edge2" class="edge"><title>Any&#45;&gt;Mu</title>
<path fill="none" stroke="#000000" d="M906.791,-180.303C906.791,-188.017 906.791,-197.288 906.791,-205.888"/>
<polygon fill="#000000" stroke="#000000" points="903.291,-205.896 906.791,-215.896 910.291,-205.896 903.291,-205.896"/>
</g>
<!-- Pod::Block::Declarator -->
<g id="node4" class="node"><title>Pod::Block::Declarator</title>
<g id="a_node4"><a xlink:href="/type/Pod::Block::Declarator" xlink:title="Pod::Block::Declarator">
<ellipse fill="none" stroke="#000000" cx="98.7912" cy="-18" rx="98.5829" ry="18"/>
<text text-anchor="middle" x="98.7912" y="-14.3" font-family="FreeSans" font-size="14.00" fill="#000000">Pod::Block::Declarator</text>
</a>
</g>
</g>
<!-- Pod::Block::Declarator&#45;&gt;Pod::Block -->
<g id="edge3" class="edge"><title>Pod::Block::Declarator&#45;&gt;Pod::Block</title>
<path fill="none" stroke="#000000" d="M170.755,-30.4336C190.111,-33.5087 205.791,-36 205.791,-36 205.791,-36 674.031,-71.4019 845.137,-84.3386"/>
<polygon fill="#000000" stroke="#000000" points="845.01,-87.8388 855.245,-85.1028 845.537,-80.8587 845.01,-87.8388"/>
</g>
<!-- Pod::Block::Para -->
<g id="node5" class="node"><title>Pod::Block::Para</title>
<g id="a_node5"><a xlink:href="/type/Pod::Block::Para" xlink:title="Pod::Block::Para">
<ellipse fill="none" stroke="#000000" cx="291.791" cy="-18" rx="76.8869" ry="18"/>
<text text-anchor="middle" x="291.791" y="-14.3" font-family="FreeSans" font-size="14.00" fill="#000000">Pod::Block::Para</text>
</a>
</g>
</g>
<!-- Pod::Block::Para&#45;&gt;Pod::Block -->
<g id="edge4" class="edge"><title>Pod::Block::Para&#45;&gt;Pod::Block</title>
<path fill="none" stroke="#000000" d="M348.014,-30.2446C363.821,-33.406 376.791,-36 376.791,-36 376.791,-36 707.401,-69.061 846.386,-82.9595"/>
<polygon fill="#000000" stroke="#000000" points="846.154,-86.4536 856.452,-83.9661 846.85,-79.4884 846.154,-86.4536"/>
</g>
<!-- Pod::Block::Table -->
<g id="node6" class="node"><title>Pod::Block::Table</title>
<g id="a_node6"><a xlink:href="/type/Pod::Block::Table" xlink:title="Pod::Block::Table">
<ellipse fill="none" stroke="#000000" cx="466.791" cy="-18" rx="80.6858" ry="18"/>
<text text-anchor="middle" x="466.791" y="-14.3" font-family="FreeSans" font-size="14.00" fill="#000000">Pod::Block::Table</text>
</a>
</g>
</g>
<!-- Pod::Block::Table&#45;&gt;Pod::Block -->
<g id="edge5" class="edge"><title>Pod::Block::Table&#45;&gt;Pod::Block</title>
<path fill="none" stroke="#000000" d="M526.07,-30.1971C542.921,-33.38 556.791,-36 556.791,-36 556.791,-36 750.027,-65.2615 849.337,-80.2997"/>
<polygon fill="#000000" stroke="#000000" points="848.813,-83.7603 859.224,-81.797 849.861,-76.8392 848.813,-83.7603"/>
</g>
<!-- Pod::Block::Comment -->
<g id="node7" class="node"><title>Pod::Block::Comment</title>
<g id="a_node7"><a xlink:href="/type/Pod::Block::Comment" xlink:title="Pod::Block::Comment">
<ellipse fill="none" stroke="#000000" cx="661.791" cy="-18" rx="96.3833" ry="18"/>
<text text-anchor="middle" x="661.791" y="-14.3" font-family="FreeSans" font-size="14.00" fill="#000000">Pod::Block::Comment</text>
</a>
</g>
</g>
<!-- Pod::Block::Comment&#45;&gt;Pod::Block -->
<g id="edge6" class="edge"><title>Pod::Block::Comment&#45;&gt;Pod::Block</title>
<path fill="none" stroke="#000000" d="M712.258,-33.4192C754.794,-45.5723 815.301,-62.86 857.501,-74.9171"/>
<polygon fill="#000000" stroke="#000000" points="856.702,-78.3288 867.279,-77.7108 858.625,-71.5982 856.702,-78.3288"/>
</g>
<!-- Pod::Defn -->
<g id="node8" class="node"><title>Pod::Defn</title>
<g id="a_node8"><a xlink:href="/type/Pod::Defn" xlink:title="Pod::Defn">
<ellipse fill="none" stroke="#000000" cx="825.791" cy="-18" rx="50.0912" ry="18"/>
<text text-anchor="middle" x="825.791" y="-14.3" font-family="FreeSans" font-size="14.00" fill="#000000">Pod::Defn</text>
</a>
</g>
</g>
<!-- Pod::Defn&#45;&gt;Pod::Block -->
<g id="edge7" class="edge"><title>Pod::Defn&#45;&gt;Pod::Block</title>
<path fill="none" stroke="#000000" d="M844.171,-34.8841C854.866,-44.1265 868.529,-55.9343 880.363,-66.1605"/>
<polygon fill="#000000" stroke="#000000" points="878.349,-69.046 888.203,-72.9365 882.926,-63.7497 878.349,-69.046"/>
</g>
<!-- Pod::FormattingCode -->
<g id="node9" class="node"><title>Pod::FormattingCode</title>
<g id="a_node9"><a xlink:href="/type/Pod::FormattingCode" xlink:title="Pod::FormattingCode">
<ellipse fill="none" stroke="#000000" cx="987.791" cy="-18" rx="94.4839" ry="18"/>
<text text-anchor="middle" x="987.791" y="-14.3" font-family="FreeSans" font-size="14.00" fill="#000000">Pod::FormattingCode</text>
</a>
</g>
</g>
<!-- Pod::FormattingCode&#45;&gt;Pod::Block -->
<g id="edge8" class="edge"><title>Pod::FormattingCode&#45;&gt;Pod::Block</title>
<path fill="none" stroke="#000000" d="M968.183,-35.945C957.608,-45.0845 944.415,-56.4857 932.972,-66.3744"/>
<polygon fill="#000000" stroke="#000000" points="930.661,-63.7455 925.384,-72.9324 935.238,-69.0418 930.661,-63.7455"/>
</g>
<!-- Pod::Block::Named -->
<g id="node10" class="node"><title>Pod::Block::Named</title>
<g id="a_node10"><a xlink:href="/type/Pod::Block::Named" xlink:title="Pod::Block::Named">
<ellipse fill="none" stroke="#000000" cx="1186.79" cy="-18" rx="87.1846" ry="18"/>
<text text-anchor="middle" x="1186.79" y="-14.3" font-family="FreeSans" font-size="14.00" fill="#000000">Pod::Block::Named</text>
</a>
</g>
</g>
<!-- Pod::Block::Named&#45;&gt;Pod::Block -->
<g id="edge9" class="edge"><title>Pod::Block::Named&#45;&gt;Pod::Block</title>
<path fill="none" stroke="#000000" d="M1133.47,-32.3312C1083.14,-44.9119 1008.19,-63.6505 958.427,-76.091"/>
<polygon fill="#000000" stroke="#000000" points="957.37,-72.7475 948.517,-78.5684 959.068,-79.5385 957.37,-72.7475"/>
</g>
<!-- Pod::Heading -->
<g id="node11" class="node"><title>Pod::Heading</title>
<g id="a_node11"><a xlink:href="/type/Pod::Heading" xlink:title="Pod::Heading">
<ellipse fill="none" stroke="#000000" cx="1355.79" cy="-18" rx="63.8893" ry="18"/>
<text text-anchor="middle" x="1355.79" y="-14.3" font-family="FreeSans" font-size="14.00" fill="#000000">Pod::Heading</text>
</a>
</g>
</g>
<!-- Pod::Heading&#45;&gt;Pod::Block -->
<g id="edge10" class="edge"><title>Pod::Heading&#45;&gt;Pod::Block</title>
<path fill="none" stroke="#000000" d="M1308.32,-30.0542C1294.38,-33.3012 1282.79,-36 1282.79,-36 1282.79,-36 1071.06,-65.8445 965.371,-80.7427"/>
<polygon fill="#000000" stroke="#000000" points="964.59,-77.3181 955.177,-82.1797 965.568,-84.2496 964.59,-77.3181"/>
</g>
<!-- Pod::Block::Code -->
<g id="node12" class="node"><title>Pod::Block::Code</title>
<g id="a_node12"><a xlink:href="/type/Pod::Block::Code" xlink:title="Pod::Block::Code">
<ellipse fill="none" stroke="#000000" cx="1516.79" cy="-18" rx="79.0865" ry="18"/>
<text text-anchor="middle" x="1516.79" y="-14.3" font-family="FreeSans" font-size="14.00" fill="#000000">Pod::Block::Code</text>
</a>
</g>
</g>
<!-- Pod::Block::Code&#45;&gt;Pod::Block -->
<g id="edge11" class="edge"><title>Pod::Block::Code&#45;&gt;Pod::Block</title>
<path fill="none" stroke="#000000" d="M1458.58,-30.2446C1442.22,-33.406 1428.79,-36 1428.79,-36 1428.79,-36 1104.74,-68.9017 967.279,-82.8586"/>
<polygon fill="#000000" stroke="#000000" points="966.912,-79.3777 957.317,-83.87 967.62,-86.3419 966.912,-79.3777"/>
</g>
<!-- Pod::Item -->
<g id="node13" class="node"><title>Pod::Item</title>
<g id="a_node13"><a xlink:href="/type/Pod::Item" xlink:title="Pod::Item">
<ellipse fill="none" stroke="#000000" cx="1661.79" cy="-18" rx="48.1917" ry="18"/>
<text text-anchor="middle" x="1661.79" y="-14.3" font-family="FreeSans" font-size="14.00" fill="#000000">Pod::Item</text>
</a>
</g>
</g>
<!-- Pod::Item&#45;&gt;Pod::Block -->
<g id="edge12" class="edge"><title>Pod::Item&#45;&gt;Pod::Block</title>
<path fill="none" stroke="#000000" d="M1625.37,-29.8626C1614.2,-33.1943 1604.79,-36 1604.79,-36 1604.79,-36 1138.55,-71.4019 968.181,-84.3386"/>
<polygon fill="#000000" stroke="#000000" points="967.823,-80.8556 958.117,-85.1028 968.353,-87.8355 967.823,-80.8556"/>
</g>
</g>
</svg>
