<?xml version="1.0" encoding="UTF-8" standalone="no"?>
<!DOCTYPE svg PUBLIC "-//W3C//DTD SVG 1.1//EN"
 "http://www.w3.org/Graphics/SVG/1.1/DTD/svg11.dtd">
<!-- Generated by graphviz version 2.38.0 (20140413.2041)
 -->
<!-- Title: perl6&#45;type&#45;graph Pages: 1 -->
<svg width="377pt" height="260pt"
 viewBox="0.00 0.00 376.79 260.00" xmlns="http://www.w3.org/2000/svg" xmlns:xlink="http://www.w3.org/1999/xlink">
<g id="graph0" class="graph" transform="scale(1 1) rotate(0) translate(4 256)">
<title>perl6&#45;type&#45;graph</title>
<polygon fill="white" stroke="none" points="-4,4 -4,-256 372.788,-256 372.788,4 -4,4"/>
<!-- PositionalBindFailover -->
<g id="node1" class="node"><title>PositionalBindFailover</title>
<g id="a_node1"><a xlink:href="/type/PositionalBindFailover" xlink:title="PositionalBindFailover">
<ellipse fill="none" stroke="#6666ff" cx="97.4913" cy="-90" rx="97.4827" ry="18"/>
<text text-anchor="middle" x="97.4913" y="-86.3" font-family="FreeSans" font-size="14.00" fill="#6666ff">PositionalBindFailover</text>
</a>
</g>
</g>
<!-- Mu -->
<g id="node2" class="node"><title>Mu</title>
<g id="a_node2"><a xlink:href="/type/Mu" xlink:title="Mu">
<ellipse fill="none" stroke="#000000" cx="241.491" cy="-234" rx="27" ry="18"/>
<text text-anchor="middle" x="241.491" y="-230.3" font-family="FreeSans" font-size="14.00" fill="#000000">Mu</text>
</a>
</g>
</g>
<!-- Any -->
<g id="node3" class="node"><title>Any</title>
<g id="a_node3"><a xlink:href="/type/Any" xlink:title="Any">
<ellipse fill="none" stroke="#000000" cx="241.491" cy="-162" rx="27" ry="18"/>
<text text-anchor="middle" x="241.491" y="-158.3" font-family="FreeSans" font-size="14.00" fill="#000000">Any</text>
</a>
</g>
</g>
<!-- Any&#45;&gt;Mu -->
<g id="edge1" class="edge"><title>Any&#45;&gt;Mu</title>
<path fill="none" stroke="#000000" d="M241.491,-180.303C241.491,-188.017 241.491,-197.288 241.491,-205.888"/>
<polygon fill="#000000" stroke="#000000" points="237.991,-205.896 241.491,-215.896 244.991,-205.896 237.991,-205.896"/>
</g>
<!-- Cool -->
<g id="node4" class="node"><title>Cool</title>
<g id="a_node4"><a xlink:href="/type/Cool" xlink:title="Cool">
<ellipse fill="none" stroke="#000000" cx="241.491" cy="-90" rx="28.6953" ry="18"/>
<text text-anchor="middle" x="241.491" y="-86.3" font-family="FreeSans" font-size="14.00" fill="#000000">Cool</text>
</a>
</g>
</g>
<!-- Cool&#45;&gt;Any -->
<g id="edge2" class="edge"><title>Cool&#45;&gt;Any</title>
<path fill="none" stroke="#000000" d="M241.491,-108.303C241.491,-116.017 241.491,-125.288 241.491,-133.888"/>
<polygon fill="#000000" stroke="#000000" points="237.991,-133.896 241.491,-143.896 244.991,-133.896 237.991,-133.896"/>
</g>
<!-- Iterable -->
<g id="node5" class="node"><title>Iterable</title>
<g id="a_node5"><a xlink:href="/type/Iterable" xlink:title="Iterable">
<ellipse fill="none" stroke="#6666ff" cx="328.491" cy="-90" rx="40.0939" ry="18"/>
<text text-anchor="middle" x="328.491" y="-86.3" font-family="FreeSans" font-size="14.00" fill="#6666ff">Iterable</text>
</a>
</g>
</g>
<!-- Seq -->
<g id="node6" class="node"><title>Seq</title>
<g id="a_node6"><a xlink:href="/type/Seq" xlink:title="Seq">
<ellipse fill="none" stroke="#000000" cx="241.491" cy="-18" rx="27" ry="18"/>
<text text-anchor="middle" x="241.491" y="-14.3" font-family="FreeSans" font-size="14.00" fill="#000000">Seq</text>
</a>
</g>
</g>
<!-- Seq&#45;&gt;PositionalBindFailover -->
<g id="edge5" class="edge"><title>Seq&#45;&gt;PositionalBindFailover</title>
<path fill="none" stroke="#6666ff" d="M220.244,-29.3287C199.039,-39.6367 165.884,-55.7535 139.374,-68.6402"/>
<polygon fill="#6666ff" stroke="#6666ff" points="137.769,-65.5291 130.305,-73.0489 140.829,-71.8247 137.769,-65.5291"/>
</g>
<!-- Seq&#45;&gt;Cool -->
<g id="edge3" class="edge"><title>Seq&#45;&gt;Cool</title>
<path fill="none" stroke="#000000" d="M241.491,-36.3034C241.491,-44.0173 241.491,-53.2875 241.491,-61.8876"/>
<polygon fill="#000000" stroke="#000000" points="237.991,-61.8956 241.491,-71.8957 244.991,-61.8957 237.991,-61.8956"/>
</g>
<!-- Seq&#45;&gt;Iterable -->
<g id="edge4" class="edge"><title>Seq&#45;&gt;Iterable</title>
<path fill="none" stroke="#6666ff" d="M258.266,-32.4967C270.566,-42.3935 287.521,-56.0356 301.69,-67.4356"/>
<polygon fill="#6666ff" stroke="#6666ff" points="299.669,-70.3015 309.654,-73.8434 304.057,-64.8477 299.669,-70.3015"/>
</g>
</g>
</svg>
