<?xml version="1.0" encoding="UTF-8" standalone="no"?>
<!DOCTYPE svg PUBLIC "-//W3C//DTD SVG 1.1//EN"
 "http://www.w3.org/Graphics/SVG/1.1/DTD/svg11.dtd">
<!-- Generated by graphviz version 2.38.0 (20140413.2041)
 -->
<!-- Title: perl6&#45;type&#45;graph Pages: 1 -->
<svg width="434pt" height="188pt"
 viewBox="0.00 0.00 434.08 188.00" xmlns="http://www.w3.org/2000/svg" xmlns:xlink="http://www.w3.org/1999/xlink">
<g id="graph0" class="graph" transform="scale(1 1) rotate(0) translate(4 184)">
<title>perl6&#45;type&#45;graph</title>
<polygon fill="white" stroke="none" points="-4,4 -4,-184 430.082,-184 430.082,4 -4,4"/>
<!-- Scheduler -->
<g id="node1" class="node"><title>Scheduler</title>
<g id="a_node1"><a xlink:href="/type/Scheduler" xlink:title="Scheduler">
<ellipse fill="none" stroke="#6666ff" cx="128.191" cy="-90" rx="50.0912" ry="18"/>
<text text-anchor="middle" x="128.191" y="-86.3" font-family="FreeSans" font-size="14.00" fill="#6666ff">Scheduler</text>
</a>
</g>
</g>
<!-- Mu -->
<g id="node2" class="node"><title>Mu</title>
<g id="a_node2"><a xlink:href="/type/Mu" xlink:title="Mu">
<ellipse fill="none" stroke="#000000" cx="286.191" cy="-162" rx="27" ry="18"/>
<text text-anchor="middle" x="286.191" y="-158.3" font-family="FreeSans" font-size="14.00" fill="#000000">Mu</text>
</a>
</g>
</g>
<!-- Any -->
<g id="node3" class="node"><title>Any</title>
<g id="a_node3"><a xlink:href="/type/Any" xlink:title="Any">
<ellipse fill="none" stroke="#000000" cx="286.191" cy="-90" rx="27" ry="18"/>
<text text-anchor="middle" x="286.191" y="-86.3" font-family="FreeSans" font-size="14.00" fill="#000000">Any</text>
</a>
</g>
</g>
<!-- Any&#45;&gt;Mu -->
<g id="edge1" class="edge"><title>Any&#45;&gt;Mu</title>
<path fill="none" stroke="#000000" d="M286.191,-108.303C286.191,-116.017 286.191,-125.288 286.191,-133.888"/>
<polygon fill="#000000" stroke="#000000" points="282.692,-133.896 286.191,-143.896 289.692,-133.896 282.692,-133.896"/>
</g>
<!-- ThreadPoolScheduler -->
<g id="node4" class="node"><title>ThreadPoolScheduler</title>
<g id="a_node4"><a xlink:href="/type/ThreadPoolScheduler" xlink:title="ThreadPoolScheduler">
<ellipse fill="none" stroke="#000000" cx="96.1915" cy="-18" rx="96.3833" ry="18"/>
<text text-anchor="middle" x="96.1915" y="-14.3" font-family="FreeSans" font-size="14.00" fill="#000000">ThreadPoolScheduler</text>
</a>
</g>
</g>
<!-- ThreadPoolScheduler&#45;&gt;Scheduler -->
<g id="edge4" class="edge"><title>ThreadPoolScheduler&#45;&gt;Scheduler</title>
<path fill="none" stroke="#6666ff" d="M103.938,-35.945C107.633,-44.0274 112.136,-53.8786 116.255,-62.8883"/>
<polygon fill="#6666ff" stroke="#6666ff" points="113.176,-64.5714 120.516,-72.211 119.542,-61.6611 113.176,-64.5714"/>
</g>
<!-- ThreadPoolScheduler&#45;&gt;Any -->
<g id="edge2" class="edge"><title>ThreadPoolScheduler&#45;&gt;Any</title>
<path fill="none" stroke="#000000" d="M137.888,-34.3618C172.584,-47.1447 221.306,-65.095 253.299,-76.8819"/>
<polygon fill="#000000" stroke="#000000" points="252.467,-80.305 263.06,-80.4779 254.887,-73.7366 252.467,-80.305"/>
</g>
<!-- CurrentThreadScheduler -->
<g id="node5" class="node"><title>CurrentThreadScheduler</title>
<g id="a_node5"><a xlink:href="/type/CurrentThreadScheduler" xlink:title="CurrentThreadScheduler">
<ellipse fill="none" stroke="#000000" cx="318.191" cy="-18" rx="107.781" ry="18"/>
<text text-anchor="middle" x="318.191" y="-14.3" font-family="FreeSans" font-size="14.00" fill="#000000">CurrentThreadScheduler</text>
</a>
</g>
</g>
<!-- CurrentThreadScheduler&#45;&gt;Scheduler -->
<g id="edge5" class="edge"><title>CurrentThreadScheduler&#45;&gt;Scheduler</title>
<path fill="none" stroke="#6666ff" d="M275.552,-34.7094C244.552,-46.1304 202.734,-61.5369 171.565,-73.0202"/>
<polygon fill="#6666ff" stroke="#6666ff" points="170.02,-69.8593 161.847,-76.6007 172.44,-76.4278 170.02,-69.8593"/>
</g>
<!-- CurrentThreadScheduler&#45;&gt;Any -->
<g id="edge3" class="edge"><title>CurrentThreadScheduler&#45;&gt;Any</title>
<path fill="none" stroke="#000000" d="M310.281,-36.3034C306.584,-44.3905 302.105,-54.1883 298.017,-63.1309"/>
<polygon fill="#000000" stroke="#000000" points="294.765,-61.8278 293.79,-72.3777 301.131,-64.7381 294.765,-61.8278"/>
</g>
</g>
</svg>
