<?xml version="1.0" encoding="UTF-8" standalone="no"?>
<!DOCTYPE svg PUBLIC "-//W3C//DTD SVG 1.1//EN"
 "http://www.w3.org/Graphics/SVG/1.1/DTD/svg11.dtd">
<!-- Generated by graphviz version 2.38.0 (20140413.2041)
 -->
<!-- Title: perl6&#45;type&#45;graph Pages: 1 -->
<svg width="404pt" height="44pt"
 viewBox="0.00 0.00 404.40 44.01" xmlns="http://www.w3.org/2000/svg" xmlns:xlink="http://www.w3.org/1999/xlink">
<g id="graph0" class="graph" transform="scale(1 1) rotate(0) translate(270.806 20.8691)">
<title>perl6&#45;type&#45;graph</title>
<polygon fill="white" stroke="none" points="-270.806,23.1427 -270.806,-20.8691 133.59,-20.8691 133.59,23.1427 -270.806,23.1427"/>
<!-- Metamodel::Archetypes -->
<g id="node1" class="node"><title>Metamodel::Archetypes</title>
<g id="a_node1"><a xlink:href="/type/Metamodel::Archetypes" xlink:title="Metamodel::Archetypes">
<ellipse fill="none" stroke="#000000" cx="-163.465" cy="1.13308" rx="103.182" ry="18"/>
<text text-anchor="middle" x="-163.465" y="4.83308" font-family="FreeSans" font-size="14.00" fill="#000000">Metamodel::Archetypes</text>
</a>
</g>
</g>
<!-- Any -->
<g id="node3" class="node"><title>Any</title>
<g id="a_node3"><a xlink:href="/type/Any" xlink:title="Any">
<ellipse fill="none" stroke="#000000" cx="-22.6278" cy="1.14271" rx="27" ry="18"/>
<text text-anchor="middle" x="-22.6278" y="4.84271" font-family="FreeSans" font-size="14.00" fill="#000000">Any</text>
</a>
</g>
</g>
<!-- Metamodel::Archetypes&#45;&gt;Any -->
<g id="edge1" class="edge"><title>Metamodel::Archetypes&#45;&gt;Any</title>
<path fill="none" stroke="#000000" d="M-59.9999,1.14016C-59.8907,1.14016 -59.7817,1.14017 -59.6728,1.14018"/>
<polygon fill="#000000" stroke="#000000" points="-59.9886,-2.35995 -49.9888,1.14084 -59.9891,4.64005 -59.9886,-2.35995"/>
</g>
<!-- Mu -->
<g id="node2" class="node"><title>Mu</title>
<g id="a_node2"><a xlink:href="/type/Mu" xlink:title="Mu">
<ellipse fill="none" stroke="#000000" cx="102.59" cy="1.13091" rx="27" ry="18"/>
<text text-anchor="middle" x="102.59" y="4.83091" font-family="FreeSans" font-size="14.00" fill="#000000">Mu</text>
</a>
</g>
</g>
<!-- Any&#45;&gt;Mu -->
<g id="edge2" class="edge"><title>Any&#45;&gt;Mu</title>
<path fill="none" stroke="#000000" d="M4.54266,1.14015C22.3462,1.13847 45.8503,1.13626 65.3826,1.13441"/>
<polygon fill="#000000" stroke="#000000" points="65.4725,-2.3655 75.4728,1.13346 65.4732,4.6345 65.4725,-2.3655"/>
</g>
</g>
</svg>
