<?xml version="1.0" encoding="UTF-8" standalone="no"?>
<!DOCTYPE svg PUBLIC "-//W3C//DTD SVG 1.1//EN"
 "http://www.w3.org/Graphics/SVG/1.1/DTD/svg11.dtd">
<!-- Generated by graphviz version 2.38.0 (20140413.2041)
 -->
<!-- Title: perl6&#45;type&#45;graph Pages: 1 -->
<svg width="155pt" height="332pt"
 viewBox="0.00 0.00 155.49 332.00" xmlns="http://www.w3.org/2000/svg" xmlns:xlink="http://www.w3.org/1999/xlink">
<g id="graph0" class="graph" transform="scale(1 1) rotate(0) translate(4 328)">
<title>perl6&#45;type&#45;graph</title>
<polygon fill="white" stroke="none" points="-4,4 -4,-328 151.49,-328 151.49,4 -4,4"/>
<!-- X::Anon::Multi -->
<g id="node1" class="node"><title>X::Anon::Multi</title>
<g id="a_node1"><a xlink:href="/type/X::Anon::Multi" xlink:title="X::Anon::Multi">
<ellipse fill="none" stroke="#000000" cx="65.6442" cy="-18" rx="65.7887" ry="18"/>
<text text-anchor="middle" x="65.6442" y="-14.3" font-family="FreeSans" font-size="14.00" fill="#000000">X::Anon::Multi</text>
</a>
</g>
</g>
<!-- Exception -->
<g id="node4" class="node"><title>Exception</title>
<g id="a_node4"><a xlink:href="/type/Exception" xlink:title="Exception">
<ellipse fill="none" stroke="#000000" cx="65.6442" cy="-162" rx="49.2915" ry="18"/>
<text text-anchor="middle" x="65.6442" y="-158.3" font-family="FreeSans" font-size="14.00" fill="#000000">Exception</text>
</a>
</g>
</g>
<!-- X::Anon::Multi&#45;&gt;Exception -->
<g id="edge1" class="edge"><title>X::Anon::Multi&#45;&gt;Exception</title>
<path fill="none" stroke="#000000" d="M60.1717,-36.0613C55.2021,-51.5549 48.6442,-72 48.6442,-72 48.6442,-72 48.6442,-108 48.6442,-108 48.6442,-108 52.8085,-120.983 57.015,-134.097"/>
<polygon fill="#000000" stroke="#000000" points="53.7846,-135.486 60.1717,-143.939 60.4501,-133.348 53.7846,-135.486"/>
</g>
<!-- X::Comp -->
<g id="node5" class="node"><title>X::Comp</title>
<g id="a_node5"><a xlink:href="/type/X::Comp" xlink:title="X::Comp">
<ellipse fill="none" stroke="#6666ff" cx="102.644" cy="-90" rx="44.6926" ry="18"/>
<text text-anchor="middle" x="102.644" y="-86.3" font-family="FreeSans" font-size="14.00" fill="#6666ff">X::Comp</text>
</a>
</g>
</g>
<!-- X::Anon::Multi&#45;&gt;X::Comp -->
<g id="edge5" class="edge"><title>X::Anon::Multi&#45;&gt;X::Comp</title>
<path fill="none" stroke="#6666ff" d="M74.6008,-35.945C78.9184,-44.1134 84.1909,-54.0884 88.9941,-63.1756"/>
<polygon fill="#6666ff" stroke="#6666ff" points="86.0025,-65.0056 93.77,-72.211 92.1912,-61.7344 86.0025,-65.0056"/>
</g>
<!-- Mu -->
<g id="node2" class="node"><title>Mu</title>
<g id="a_node2"><a xlink:href="/type/Mu" xlink:title="Mu">
<ellipse fill="none" stroke="#000000" cx="65.6442" cy="-306" rx="27" ry="18"/>
<text text-anchor="middle" x="65.6442" y="-302.3" font-family="FreeSans" font-size="14.00" fill="#000000">Mu</text>
</a>
</g>
</g>
<!-- Any -->
<g id="node3" class="node"><title>Any</title>
<g id="a_node3"><a xlink:href="/type/Any" xlink:title="Any">
<ellipse fill="none" stroke="#000000" cx="65.6442" cy="-234" rx="27" ry="18"/>
<text text-anchor="middle" x="65.6442" y="-230.3" font-family="FreeSans" font-size="14.00" fill="#000000">Any</text>
</a>
</g>
</g>
<!-- Any&#45;&gt;Mu -->
<g id="edge2" class="edge"><title>Any&#45;&gt;Mu</title>
<path fill="none" stroke="#000000" d="M65.6442,-252.303C65.6442,-260.017 65.6442,-269.288 65.6442,-277.888"/>
<polygon fill="#000000" stroke="#000000" points="62.1443,-277.896 65.6442,-287.896 69.1443,-277.896 62.1443,-277.896"/>
</g>
<!-- Exception&#45;&gt;Any -->
<g id="edge3" class="edge"><title>Exception&#45;&gt;Any</title>
<path fill="none" stroke="#000000" d="M65.6442,-180.303C65.6442,-188.017 65.6442,-197.288 65.6442,-205.888"/>
<polygon fill="#000000" stroke="#000000" points="62.1443,-205.896 65.6442,-215.896 69.1443,-205.896 62.1443,-205.896"/>
</g>
<!-- X::Comp&#45;&gt;Exception -->
<g id="edge4" class="edge"><title>X::Comp&#45;&gt;Exception</title>
<path fill="none" stroke="#000000" d="M93.6875,-107.945C89.37,-116.113 84.0974,-126.088 79.2942,-135.176"/>
<polygon fill="#000000" stroke="#000000" points="76.0972,-133.734 74.5184,-144.211 82.2858,-137.006 76.0972,-133.734"/>
</g>
</g>
</svg>
