<?xml version="1.0" encoding="UTF-8" standalone="no"?>
<!DOCTYPE svg PUBLIC "-//W3C//DTD SVG 1.1//EN"
 "http://www.w3.org/Graphics/SVG/1.1/DTD/svg11.dtd">
<!-- Generated by graphviz version 2.38.0 (20140413.2041)
 -->
<!-- Title: perl6&#45;type&#45;graph Pages: 1 -->
<svg width="95pt" height="188pt"
 viewBox="0.00 0.00 95.09 188.00" xmlns="http://www.w3.org/2000/svg" xmlns:xlink="http://www.w3.org/1999/xlink">
<g id="graph0" class="graph" transform="scale(1 1) rotate(0) translate(4 184)">
<title>perl6&#45;type&#45;graph</title>
<polygon fill="white" stroke="none" points="-4,4 -4,-184 91.0923,-184 91.0923,4 -4,4"/>
<!-- Channel -->
<g id="node1" class="node"><title>Channel</title>
<g id="a_node1"><a xlink:href="/type/Channel" xlink:title="Channel">
<ellipse fill="none" stroke="#000000" cx="43.5461" cy="-18" rx="43.5923" ry="18"/>
<text text-anchor="middle" x="43.5461" y="-14.3" font-family="FreeSans" font-size="14.00" fill="#000000">Channel</text>
</a>
</g>
</g>
<!-- Any -->
<g id="node3" class="node"><title>Any</title>
<g id="a_node3"><a xlink:href="/type/Any" xlink:title="Any">
<ellipse fill="none" stroke="#000000" cx="43.5461" cy="-90" rx="27" ry="18"/>
<text text-anchor="middle" x="43.5461" y="-86.3" font-family="FreeSans" font-size="14.00" fill="#000000">Any</text>
</a>
</g>
</g>
<!-- Channel&#45;&gt;Any -->
<g id="edge1" class="edge"><title>Channel&#45;&gt;Any</title>
<path fill="none" stroke="#000000" d="M43.5461,-36.3034C43.5461,-44.0173 43.5461,-53.2875 43.5461,-61.8876"/>
<polygon fill="#000000" stroke="#000000" points="40.0462,-61.8956 43.5461,-71.8957 47.0462,-61.8957 40.0462,-61.8956"/>
</g>
<!-- Mu -->
<g id="node2" class="node"><title>Mu</title>
<g id="a_node2"><a xlink:href="/type/Mu" xlink:title="Mu">
<ellipse fill="none" stroke="#000000" cx="43.5461" cy="-162" rx="27" ry="18"/>
<text text-anchor="middle" x="43.5461" y="-158.3" font-family="FreeSans" font-size="14.00" fill="#000000">Mu</text>
</a>
</g>
</g>
<!-- Any&#45;&gt;Mu -->
<g id="edge2" class="edge"><title>Any&#45;&gt;Mu</title>
<path fill="none" stroke="#000000" d="M43.5461,-108.303C43.5461,-116.017 43.5461,-125.288 43.5461,-133.888"/>
<polygon fill="#000000" stroke="#000000" points="40.0462,-133.896 43.5461,-143.896 47.0462,-133.896 40.0462,-133.896"/>
</g>
</g>
</svg>
