<?xml version="1.0" encoding="UTF-8" standalone="no"?>
<!DOCTYPE svg PUBLIC "-//W3C//DTD SVG 1.1//EN"
 "http://www.w3.org/Graphics/SVG/1.1/DTD/svg11.dtd">
<!-- Generated by graphviz version 2.38.0 (20140413.2041)
 -->
<!-- Title: perl6&#45;type&#45;graph Pages: 1 -->
<svg width="986pt" height="452pt"
 viewBox="0.00 0.00 986.46 451.83" xmlns="http://www.w3.org/2000/svg" xmlns:xlink="http://www.w3.org/1999/xlink">
<g id="graph0" class="graph" transform="scale(1 1) rotate(0) translate(510.908 207.228)">
<title>perl6&#45;type&#45;graph</title>
<polygon fill="white" stroke="none" points="-510.908,244.599 -510.908,-207.228 475.547,-207.228 475.547,244.599 -510.908,244.599"/>
<!-- Metamodel::MethodDelegation -->
<g id="node1" class="node"><title>Metamodel::MethodDelegation</title>
<g id="a_node1"><a xlink:href="/type/Metamodel::MethodDelegation" xlink:title="Metamodel::MethodDelegation">
<ellipse fill="none" stroke="#6666ff" cx="-375.619" cy="165.107" rx="131.077" ry="18"/>
<text text-anchor="middle" x="-375.619" y="168.807" font-family="FreeSans" font-size="14.00" fill="#6666ff">Metamodel::MethodDelegation</text>
</a>
</g>
</g>
<!-- Mu -->
<g id="node2" class="node"><title>Mu</title>
<g id="a_node2"><a xlink:href="/type/Mu" xlink:title="Mu">
<ellipse fill="none" stroke="#000000" cx="341.358" cy="176.807" rx="27" ry="18"/>
<text text-anchor="middle" x="341.358" y="180.507" font-family="FreeSans" font-size="14.00" fill="#000000">Mu</text>
</a>
</g>
</g>
<!-- Any -->
<g id="node3" class="node"><title>Any</title>
<g id="a_node3"><a xlink:href="/type/Any" xlink:title="Any">
<ellipse fill="none" stroke="#000000" cx="88.6618" cy="218.924" rx="27" ry="18"/>
<text text-anchor="middle" x="88.6618" y="222.624" font-family="FreeSans" font-size="14.00" fill="#000000">Any</text>
</a>
</g>
</g>
<!-- Any&#45;&gt;Mu -->
<g id="edge1" class="edge"><title>Any&#45;&gt;Mu</title>
<path fill="none" stroke="#000000" d="M115.227,214.496C160.75,206.909 253.72,191.413 305.142,182.843"/>
<polygon fill="#000000" stroke="#000000" points="304.71,179.367 315.149,181.175 305.86,186.271 304.71,179.367"/>
</g>
<!-- Metamodel::Naming -->
<g id="node4" class="node"><title>Metamodel::Naming</title>
<g id="a_node4"><a xlink:href="/type/Metamodel::Naming" xlink:title="Metamodel::Naming">
<ellipse fill="none" stroke="#6666ff" cx="-100.249" cy="-181.406" rx="90.1842" ry="18"/>
<text text-anchor="middle" x="-100.249" y="-177.706" font-family="FreeSans" font-size="14.00" fill="#6666ff">Metamodel::Naming</text>
</a>
</g>
</g>
<!-- Metamodel::Documenting -->
<g id="node5" class="node"><title>Metamodel::Documenting</title>
<g id="a_node5"><a xlink:href="/type/Metamodel::Documenting" xlink:title="Metamodel::Documenting">
<ellipse fill="none" stroke="#6666ff" cx="136.161" cy="-185.228" rx="111.28" ry="18"/>
<text text-anchor="middle" x="136.161" y="-181.528" font-family="FreeSans" font-size="14.00" fill="#6666ff">Metamodel::Documenting</text>
</a>
</g>
</g>
<!-- Metamodel::Versioning -->
<g id="node6" class="node"><title>Metamodel::Versioning</title>
<g id="a_node6"><a xlink:href="/type/Metamodel::Versioning" xlink:title="Metamodel::Versioning">
<ellipse fill="none" stroke="#6666ff" cx="-362.961" cy="-137.69" rx="100.983" ry="18"/>
<text text-anchor="middle" x="-362.961" y="-133.99" font-family="FreeSans" font-size="14.00" fill="#6666ff">Metamodel::Versioning</text>
</a>
</g>
</g>
<!-- Metamodel::Stashing -->
<g id="node7" class="node"><title>Metamodel::Stashing</title>
<g id="a_node7"><a xlink:href="/type/Metamodel::Stashing" xlink:title="Metamodel::Stashing">
<ellipse fill="none" stroke="#6666ff" cx="-142.917" cy="222.599" rx="93.6835" ry="18"/>
<text text-anchor="middle" x="-142.917" y="226.299" font-family="FreeSans" font-size="14.00" fill="#6666ff">Metamodel::Stashing</text>
</a>
</g>
</g>
<!-- Metamodel::TypePretense -->
<g id="node8" class="node"><title>Metamodel::TypePretense</title>
<g id="a_node8"><a xlink:href="/type/Metamodel::TypePretense" xlink:title="Metamodel::TypePretense">
<ellipse fill="none" stroke="#6666ff" cx="357.158" cy="-121.289" rx="114.28" ry="18"/>
<text text-anchor="middle" x="357.158" y="-117.589" font-family="FreeSans" font-size="14.00" fill="#6666ff">Metamodel::TypePretense</text>
</a>
</g>
</g>
<!-- Metamodel::ModuleHOW -->
<g id="node9" class="node"><title>Metamodel::ModuleHOW</title>
<g id="a_node9"><a xlink:href="/type/Metamodel::ModuleHOW" xlink:title="Metamodel::ModuleHOW">
<ellipse fill="none" stroke="#000000" cx="-142.356" cy="18.4281" rx="111.28" ry="18"/>
<text text-anchor="middle" x="-142.356" y="22.1281" font-family="FreeSans" font-size="14.00" fill="#000000">Metamodel::ModuleHOW</text>
</a>
</g>
</g>
<!-- Metamodel::ModuleHOW&#45;&gt;Metamodel::MethodDelegation -->
<g id="edge9" class="edge"><title>Metamodel::ModuleHOW&#45;&gt;Metamodel::MethodDelegation</title>
<path fill="none" stroke="#6666ff" d="M-170.493,36.121C-212.613,62.6064 -292.087,112.58 -338.782,141.943"/>
<polygon fill="#6666ff" stroke="#6666ff" points="-337.054,144.991 -347.383,147.351 -340.78,139.065 -337.054,144.991"/>
</g>
<!-- Metamodel::ModuleHOW&#45;&gt;Any -->
<g id="edge2" class="edge"><title>Metamodel::ModuleHOW&#45;&gt;Any</title>
<path fill="none" stroke="#000000" d="M-121.855,36.2208C-79.2482,73.1981 18.6926,158.199 64.3743,197.845"/>
<polygon fill="#000000" stroke="#000000" points="66.7559,195.278 72.0142,204.476 62.1677,200.564 66.7559,195.278"/>
</g>
<!-- Metamodel::ModuleHOW&#45;&gt;Metamodel::Naming -->
<g id="edge4" class="edge"><title>Metamodel::ModuleHOW&#45;&gt;Metamodel::Naming</title>
<path fill="none" stroke="#6666ff" d="M-138.545,0.341732C-131.189,-34.5694 -114.985,-111.47 -106.198,-153.176"/>
<polygon fill="#6666ff" stroke="#6666ff" points="-109.569,-154.153 -104.082,-163.216 -102.719,-152.71 -109.569,-154.153"/>
</g>
<!-- Metamodel::ModuleHOW&#45;&gt;Metamodel::Documenting -->
<g id="edge5" class="edge"><title>Metamodel::ModuleHOW&#45;&gt;Metamodel::Documenting</title>
<path fill="none" stroke="#6666ff" d="M-118.127,0.711289C-68.0248,-35.924 47.0052,-120.036 103.559,-161.388"/>
<polygon fill="#6666ff" stroke="#6666ff" points="101.651,-164.329 111.789,-167.407 105.783,-158.679 101.651,-164.329"/>
</g>
<!-- Metamodel::ModuleHOW&#45;&gt;Metamodel::Versioning -->
<g id="edge6" class="edge"><title>Metamodel::ModuleHOW&#45;&gt;Metamodel::Versioning</title>
<path fill="none" stroke="#6666ff" d="M-167.233,0.822902C-207.143,-27.4202 -285.496,-82.8692 -330.009,-114.37"/>
<polygon fill="#6666ff" stroke="#6666ff" points="-332.033,-111.515 -338.174,-120.149 -327.99,-117.229 -332.033,-111.515"/>
</g>
<!-- Metamodel::ModuleHOW&#45;&gt;Metamodel::Stashing -->
<g id="edge7" class="edge"><title>Metamodel::ModuleHOW&#45;&gt;Metamodel::Stashing</title>
<path fill="none" stroke="#6666ff" d="M-142.406,36.5469C-142.504,72.1892 -142.722,151.647 -142.839,194.278"/>
<polygon fill="#6666ff" stroke="#6666ff" points="-139.339,194.53 -142.867,204.521 -146.339,194.511 -139.339,194.53"/>
</g>
<!-- Metamodel::ModuleHOW&#45;&gt;Metamodel::TypePretense -->
<g id="edge8" class="edge"><title>Metamodel::ModuleHOW&#45;&gt;Metamodel::TypePretense</title>
<path fill="none" stroke="#6666ff" d="M-86.5095,2.80754C6.28139,-23.1466 191.799,-75.0368 290.999,-102.784"/>
<polygon fill="#6666ff" stroke="#6666ff" points="290.333,-106.232 300.906,-105.555 292.219,-99.4904 290.333,-106.232"/>
</g>
<!-- Metamodel::PackageHOW -->
<g id="node10" class="node"><title>Metamodel::PackageHOW</title>
<g id="a_node10"><a xlink:href="/type/Metamodel::PackageHOW" xlink:title="Metamodel::PackageHOW">
<ellipse fill="none" stroke="#000000" cx="110.88" cy="16.4441" rx="116.18" ry="18"/>
<text text-anchor="middle" x="110.88" y="20.1441" font-family="FreeSans" font-size="14.00" fill="#000000">Metamodel::PackageHOW</text>
</a>
</g>
</g>
<!-- Metamodel::PackageHOW&#45;&gt;Metamodel::MethodDelegation -->
<g id="edge14" class="edge"><title>Metamodel::PackageHOW&#45;&gt;Metamodel::MethodDelegation</title>
<path fill="none" stroke="#6666ff" d="M57.8899,32.6366C-32.2281,60.1746 -214.972,116.017 -311.906,145.638"/>
<polygon fill="#6666ff" stroke="#6666ff" points="-310.996,149.019 -321.582,148.595 -313.042,142.325 -310.996,149.019"/>
</g>
<!-- Metamodel::PackageHOW&#45;&gt;Any -->
<g id="edge3" class="edge"><title>Metamodel::PackageHOW&#45;&gt;Any</title>
<path fill="none" stroke="#000000" d="M108.869,34.7699C104.978,70.2327 96.3942,148.457 91.7653,190.64"/>
<polygon fill="#000000" stroke="#000000" points="95.2221,191.227 90.6522,200.785 88.2639,190.463 95.2221,191.227"/>
</g>
<!-- Metamodel::PackageHOW&#45;&gt;Metamodel::Naming -->
<g id="edge10" class="edge"><title>Metamodel::PackageHOW&#45;&gt;Metamodel::Naming</title>
<path fill="none" stroke="#6666ff" d="M91.7713,-1.46276C53.9299,-36.924 -30.6066,-116.143 -73.7771,-156.599"/>
<polygon fill="#6666ff" stroke="#6666ff" points="-76.4324,-154.29 -81.336,-163.682 -71.6459,-159.398 -76.4324,-154.29"/>
</g>
<!-- Metamodel::PackageHOW&#45;&gt;Metamodel::Documenting -->
<g id="edge11" class="edge"><title>Metamodel::PackageHOW&#45;&gt;Metamodel::Documenting</title>
<path fill="none" stroke="#6666ff" d="M113.168,-1.80863C117.596,-37.1299 127.363,-115.042 132.63,-157.057"/>
<polygon fill="#6666ff" stroke="#6666ff" points="129.18,-157.674 133.896,-167.161 136.125,-156.804 129.18,-157.674"/>
</g>
<!-- Metamodel::PackageHOW&#45;&gt;Metamodel::Stashing -->
<g id="edge12" class="edge"><title>Metamodel::PackageHOW&#45;&gt;Metamodel::Stashing</title>
<path fill="none" stroke="#6666ff" d="M88.8012,34.3783C43.1254,71.48 -61.7693,156.684 -113.278,198.524"/>
<polygon fill="#6666ff" stroke="#6666ff" points="-111.101,201.264 -121.07,204.853 -115.514,195.831 -111.101,201.264"/>
</g>
<!-- Metamodel::PackageHOW&#45;&gt;Metamodel::TypePretense -->
<g id="edge13" class="edge"><title>Metamodel::PackageHOW&#45;&gt;Metamodel::TypePretense</title>
<path fill="none" stroke="#6666ff" d="M142.071,-0.999867C186.546,-25.8729 268.2,-71.5386 317.099,-98.8854"/>
<polygon fill="#6666ff" stroke="#6666ff" points="315.395,-101.943 325.832,-103.769 318.812,-95.8334 315.395,-101.943"/>
</g>
</g>
</svg>
