<?xml version="1.0" encoding="UTF-8" standalone="no"?>
<!DOCTYPE svg PUBLIC "-//W3C//DTD SVG 1.1//EN"
 "http://www.w3.org/Graphics/SVG/1.1/DTD/svg11.dtd">
<!-- Generated by graphviz version 2.38.0 (20140413.2041)
 -->
<!-- Title: perl6&#45;type&#45;graph Pages: 1 -->
<svg width="178pt" height="260pt"
 viewBox="0.00 0.00 178.28 260.00" xmlns="http://www.w3.org/2000/svg" xmlns:xlink="http://www.w3.org/1999/xlink">
<g id="graph0" class="graph" transform="scale(1 1) rotate(0) translate(4 256)">
<title>perl6&#45;type&#45;graph</title>
<polygon fill="white" stroke="none" points="-4,4 -4,-256 174.285,-256 174.285,4 -4,4"/>
<!-- X::Promise::Vowed -->
<g id="node1" class="node"><title>X::Promise::Vowed</title>
<g id="a_node1"><a xlink:href="/type/X::Promise::Vowed" xlink:title="X::Promise::Vowed">
<ellipse fill="none" stroke="#000000" cx="85.1424" cy="-18" rx="85.2851" ry="18"/>
<text text-anchor="middle" x="85.1424" y="-14.3" font-family="FreeSans" font-size="14.00" fill="#000000">X::Promise::Vowed</text>
</a>
</g>
</g>
<!-- Exception -->
<g id="node4" class="node"><title>Exception</title>
<g id="a_node4"><a xlink:href="/type/Exception" xlink:title="Exception">
<ellipse fill="none" stroke="#000000" cx="85.1424" cy="-90" rx="49.2915" ry="18"/>
<text text-anchor="middle" x="85.1424" y="-86.3" font-family="FreeSans" font-size="14.00" fill="#000000">Exception</text>
</a>
</g>
</g>
<!-- X::Promise::Vowed&#45;&gt;Exception -->
<g id="edge1" class="edge"><title>X::Promise::Vowed&#45;&gt;Exception</title>
<path fill="none" stroke="#000000" d="M85.1424,-36.3034C85.1424,-44.0173 85.1424,-53.2875 85.1424,-61.8876"/>
<polygon fill="#000000" stroke="#000000" points="81.6425,-61.8956 85.1424,-71.8957 88.6425,-61.8957 81.6425,-61.8956"/>
</g>
<!-- Mu -->
<g id="node2" class="node"><title>Mu</title>
<g id="a_node2"><a xlink:href="/type/Mu" xlink:title="Mu">
<ellipse fill="none" stroke="#000000" cx="85.1424" cy="-234" rx="27" ry="18"/>
<text text-anchor="middle" x="85.1424" y="-230.3" font-family="FreeSans" font-size="14.00" fill="#000000">Mu</text>
</a>
</g>
</g>
<!-- Any -->
<g id="node3" class="node"><title>Any</title>
<g id="a_node3"><a xlink:href="/type/Any" xlink:title="Any">
<ellipse fill="none" stroke="#000000" cx="85.1424" cy="-162" rx="27" ry="18"/>
<text text-anchor="middle" x="85.1424" y="-158.3" font-family="FreeSans" font-size="14.00" fill="#000000">Any</text>
</a>
</g>
</g>
<!-- Any&#45;&gt;Mu -->
<g id="edge2" class="edge"><title>Any&#45;&gt;Mu</title>
<path fill="none" stroke="#000000" d="M85.1424,-180.303C85.1424,-188.017 85.1424,-197.288 85.1424,-205.888"/>
<polygon fill="#000000" stroke="#000000" points="81.6425,-205.896 85.1424,-215.896 88.6425,-205.896 81.6425,-205.896"/>
</g>
<!-- Exception&#45;&gt;Any -->
<g id="edge3" class="edge"><title>Exception&#45;&gt;Any</title>
<path fill="none" stroke="#000000" d="M85.1424,-108.303C85.1424,-116.017 85.1424,-125.288 85.1424,-133.888"/>
<polygon fill="#000000" stroke="#000000" points="81.6425,-133.896 85.1424,-143.896 88.6425,-133.896 81.6425,-133.896"/>
</g>
</g>
</svg>
