<?xml version="1.0" encoding="UTF-8" standalone="no"?>
<!DOCTYPE svg PUBLIC "-//W3C//DTD SVG 1.1//EN"
 "http://www.w3.org/Graphics/SVG/1.1/DTD/svg11.dtd">
<!-- Generated by graphviz version 2.38.0 (20140413.2041)
 -->
<!-- Title: perl6&#45;type&#45;graph Pages: 1 -->
<svg width="380pt" height="476pt"
 viewBox="0.00 0.00 379.90 476.00" xmlns="http://www.w3.org/2000/svg" xmlns:xlink="http://www.w3.org/1999/xlink">
<g id="graph0" class="graph" transform="scale(1 1) rotate(0) translate(4 472)">
<title>perl6&#45;type&#45;graph</title>
<polygon fill="white" stroke="none" points="-4,4 -4,-472 375.895,-472 375.895,4 -4,4"/>
<!-- Block -->
<g id="node1" class="node"><title>Block</title>
<g id="a_node1"><a xlink:href="/type/Block" xlink:title="Block">
<ellipse fill="none" stroke="#000000" cx="159" cy="-234" rx="32.4942" ry="18"/>
<text text-anchor="middle" x="159" y="-230.3" font-family="FreeSans" font-size="14.00" fill="#000000">Block</text>
</a>
</g>
</g>
<!-- Code -->
<g id="node5" class="node"><title>Code</title>
<g id="a_node5"><a xlink:href="/type/Code" xlink:title="Code">
<ellipse fill="none" stroke="#000000" cx="159" cy="-306" rx="31.6951" ry="18"/>
<text text-anchor="middle" x="159" y="-302.3" font-family="FreeSans" font-size="14.00" fill="#000000">Code</text>
</a>
</g>
</g>
<!-- Block&#45;&gt;Code -->
<g id="edge1" class="edge"><title>Block&#45;&gt;Code</title>
<path fill="none" stroke="#000000" d="M159,-252.303C159,-260.017 159,-269.288 159,-277.888"/>
<polygon fill="#000000" stroke="#000000" points="155.5,-277.896 159,-287.896 162.5,-277.896 155.5,-277.896"/>
</g>
<!-- Mu -->
<g id="node2" class="node"><title>Mu</title>
<g id="a_node2"><a xlink:href="/type/Mu" xlink:title="Mu">
<ellipse fill="none" stroke="#000000" cx="116" cy="-450" rx="27" ry="18"/>
<text text-anchor="middle" x="116" y="-446.3" font-family="FreeSans" font-size="14.00" fill="#000000">Mu</text>
</a>
</g>
</g>
<!-- Any -->
<g id="node3" class="node"><title>Any</title>
<g id="a_node3"><a xlink:href="/type/Any" xlink:title="Any">
<ellipse fill="none" stroke="#000000" cx="116" cy="-378" rx="27" ry="18"/>
<text text-anchor="middle" x="116" y="-374.3" font-family="FreeSans" font-size="14.00" fill="#000000">Any</text>
</a>
</g>
</g>
<!-- Any&#45;&gt;Mu -->
<g id="edge2" class="edge"><title>Any&#45;&gt;Mu</title>
<path fill="none" stroke="#000000" d="M116,-396.303C116,-404.017 116,-413.288 116,-421.888"/>
<polygon fill="#000000" stroke="#000000" points="112.5,-421.896 116,-431.896 119.5,-421.896 112.5,-421.896"/>
</g>
<!-- Callable -->
<g id="node4" class="node"><title>Callable</title>
<g id="a_node4"><a xlink:href="/type/Callable" xlink:title="Callable">
<ellipse fill="none" stroke="#6666ff" cx="203" cy="-378" rx="42.4939" ry="18"/>
<text text-anchor="middle" x="203" y="-374.3" font-family="FreeSans" font-size="14.00" fill="#6666ff">Callable</text>
</a>
</g>
</g>
<!-- Code&#45;&gt;Any -->
<g id="edge3" class="edge"><title>Code&#45;&gt;Any</title>
<path fill="none" stroke="#000000" d="M149.027,-323.235C143.763,-331.805 137.189,-342.506 131.296,-352.1"/>
<polygon fill="#000000" stroke="#000000" points="128.171,-350.5 125.919,-360.853 134.136,-354.164 128.171,-350.5"/>
</g>
<!-- Code&#45;&gt;Callable -->
<g id="edge10" class="edge"><title>Code&#45;&gt;Callable</title>
<path fill="none" stroke="#6666ff" d="M169.205,-323.235C174.515,-331.683 181.126,-342.201 187.089,-351.688"/>
<polygon fill="#6666ff" stroke="#6666ff" points="184.26,-353.763 192.545,-360.367 190.186,-350.038 184.26,-353.763"/>
</g>
<!-- Routine -->
<g id="node6" class="node"><title>Routine</title>
<g id="a_node6"><a xlink:href="/type/Routine" xlink:title="Routine">
<ellipse fill="none" stroke="#000000" cx="159" cy="-162" rx="40.8928" ry="18"/>
<text text-anchor="middle" x="159" y="-158.3" font-family="FreeSans" font-size="14.00" fill="#000000">Routine</text>
</a>
</g>
</g>
<!-- Routine&#45;&gt;Block -->
<g id="edge4" class="edge"><title>Routine&#45;&gt;Block</title>
<path fill="none" stroke="#000000" d="M159,-180.303C159,-188.017 159,-197.288 159,-205.888"/>
<polygon fill="#000000" stroke="#000000" points="155.5,-205.896 159,-215.896 162.5,-205.896 155.5,-205.896"/>
</g>
<!-- Sub -->
<g id="node7" class="node"><title>Sub</title>
<g id="a_node7"><a xlink:href="/type/Sub" xlink:title="Sub">
<ellipse fill="none" stroke="#000000" cx="27" cy="-90" rx="27" ry="18"/>
<text text-anchor="middle" x="27" y="-86.3" font-family="FreeSans" font-size="14.00" fill="#000000">Sub</text>
</a>
</g>
</g>
<!-- Sub&#45;&gt;Routine -->
<g id="edge5" class="edge"><title>Sub&#45;&gt;Routine</title>
<path fill="none" stroke="#000000" d="M47.625,-101.938C68.1996,-112.848 100.177,-129.806 124.599,-142.757"/>
<polygon fill="#000000" stroke="#000000" points="123.075,-145.91 133.549,-147.503 126.354,-139.726 123.075,-145.91"/>
</g>
<!-- Method -->
<g id="node8" class="node"><title>Method</title>
<g id="a_node8"><a xlink:href="/type/Method" xlink:title="Method">
<ellipse fill="none" stroke="#000000" cx="112" cy="-90" rx="40.0939" ry="18"/>
<text text-anchor="middle" x="112" y="-86.3" font-family="FreeSans" font-size="14.00" fill="#000000">Method</text>
</a>
</g>
</g>
<!-- Method&#45;&gt;Routine -->
<g id="edge6" class="edge"><title>Method&#45;&gt;Routine</title>
<path fill="none" stroke="#000000" d="M123.138,-107.589C128.875,-116.132 135.984,-126.722 142.357,-136.213"/>
<polygon fill="#000000" stroke="#000000" points="139.461,-138.179 147.942,-144.53 145.273,-134.277 139.461,-138.179"/>
</g>
<!-- Macro -->
<g id="node9" class="node"><title>Macro</title>
<g id="a_node9"><a xlink:href="/type/Macro" xlink:title="Macro">
<ellipse fill="none" stroke="#000000" cx="206" cy="-90" rx="35.9954" ry="18"/>
<text text-anchor="middle" x="206" y="-86.3" font-family="FreeSans" font-size="14.00" fill="#000000">Macro</text>
</a>
</g>
</g>
<!-- Macro&#45;&gt;Routine -->
<g id="edge7" class="edge"><title>Macro&#45;&gt;Routine</title>
<path fill="none" stroke="#000000" d="M195.099,-107.235C189.369,-115.77 182.219,-126.418 175.799,-135.981"/>
<polygon fill="#000000" stroke="#000000" points="172.837,-134.113 170.168,-144.367 178.648,-138.015 172.837,-134.113"/>
</g>
<!-- Submethod -->
<g id="node10" class="node"><title>Submethod</title>
<g id="a_node10"><a xlink:href="/type/Submethod" xlink:title="Submethod">
<ellipse fill="none" stroke="#000000" cx="316" cy="-90" rx="55.7903" ry="18"/>
<text text-anchor="middle" x="316" y="-86.3" font-family="FreeSans" font-size="14.00" fill="#000000">Submethod</text>
</a>
</g>
</g>
<!-- Submethod&#45;&gt;Routine -->
<g id="edge8" class="edge"><title>Submethod&#45;&gt;Routine</title>
<path fill="none" stroke="#000000" d="M284.606,-104.997C259.103,-116.368 223.073,-132.432 196.138,-144.442"/>
<polygon fill="#000000" stroke="#000000" points="194.37,-141.398 186.662,-148.667 197.221,-147.791 194.37,-141.398"/>
</g>
<!-- Regex -->
<g id="node11" class="node"><title>Regex</title>
<g id="a_node11"><a xlink:href="/type/Regex" xlink:title="Regex">
<ellipse fill="none" stroke="#000000" cx="112" cy="-18" rx="36.2938" ry="18"/>
<text text-anchor="middle" x="112" y="-14.3" font-family="FreeSans" font-size="14.00" fill="#000000">Regex</text>
</a>
</g>
</g>
<!-- Regex&#45;&gt;Method -->
<g id="edge9" class="edge"><title>Regex&#45;&gt;Method</title>
<path fill="none" stroke="#000000" d="M112,-36.3034C112,-44.0173 112,-53.2875 112,-61.8876"/>
<polygon fill="#000000" stroke="#000000" points="108.5,-61.8956 112,-71.8957 115.5,-61.8957 108.5,-61.8956"/>
</g>
</g>
</svg>
