<?xml version="1.0" encoding="UTF-8" standalone="no"?>
<!DOCTYPE svg PUBLIC "-//W3C//DTD SVG 1.1//EN"
 "http://www.w3.org/Graphics/SVG/1.1/DTD/svg11.dtd">
<!-- Generated by graphviz version 2.38.0 (20140413.2041)
 -->
<!-- Title: perl6&#45;type&#45;graph Pages: 1 -->
<svg width="2378pt" height="1170pt"
 viewBox="0.00 0.00 2377.67 1170.01" xmlns="http://www.w3.org/2000/svg" xmlns:xlink="http://www.w3.org/1999/xlink">
<g id="graph0" class="graph" transform="scale(1 1) rotate(0) translate(1213.16 571.674)">
<title>perl6&#45;type&#45;graph</title>
<polygon fill="white" stroke="none" points="-1213.16,598.341 -1213.16,-571.674 1164.5,-571.674 1164.5,598.341 -1213.16,598.341"/>
<!-- Metamodel::MultiMethodContainer -->
<g id="node1" class="node"><title>Metamodel::MultiMethodContainer</title>
<g id="a_node1"><a xlink:href="/type/Metamodel::MultiMethodContainer" xlink:title="Metamodel::MultiMethodContainer">
<ellipse fill="none" stroke="#6666ff" cx="50.9067" cy="7.92095" rx="146.474" ry="18"/>
<text text-anchor="middle" x="50.9067" y="11.6209" font-family="FreeSans" font-size="14.00" fill="#6666ff">Metamodel::MultiMethodContainer</text>
</a>
</g>
</g>
<!-- Mu -->
<g id="node2" class="node"><title>Mu</title>
<g id="a_node2"><a xlink:href="/type/Mu" xlink:title="Mu">
<ellipse fill="none" stroke="#000000" cx="530.776" cy="571.476" rx="27" ry="18"/>
<text text-anchor="middle" x="530.776" y="575.176" font-family="FreeSans" font-size="14.00" fill="#000000">Mu</text>
</a>
</g>
</g>
<!-- Any -->
<g id="node3" class="node"><title>Any</title>
<g id="a_node3"><a xlink:href="/type/Any" xlink:title="Any">
<ellipse fill="none" stroke="#000000" cx="155.214" cy="576.341" rx="27" ry="18"/>
<text text-anchor="middle" x="155.214" y="580.041" font-family="FreeSans" font-size="14.00" fill="#000000">Any</text>
</a>
</g>
</g>
<!-- Any&#45;&gt;Mu -->
<g id="edge1" class="edge"><title>Any&#45;&gt;Mu</title>
<path fill="none" stroke="#000000" d="M182.224,575.991C248.19,575.137 417.626,572.942 493.299,571.961"/>
<polygon fill="#000000" stroke="#000000" points="493.715,568.456 503.76,571.826 493.806,575.455 493.715,568.456"/>
</g>
<!-- Metamodel::Naming -->
<g id="node4" class="node"><title>Metamodel::Naming</title>
<g id="a_node4"><a xlink:href="/type/Metamodel::Naming" xlink:title="Metamodel::Naming">
<ellipse fill="none" stroke="#6666ff" cx="314.972" cy="10.5118" rx="90.1842" ry="18"/>
<text text-anchor="middle" x="314.972" y="14.2118" font-family="FreeSans" font-size="14.00" fill="#6666ff">Metamodel::Naming</text>
</a>
</g>
</g>
<!-- Metamodel::Documenting -->
<g id="node5" class="node"><title>Metamodel::Documenting</title>
<g id="a_node5"><a xlink:href="/type/Metamodel::Documenting" xlink:title="Metamodel::Documenting">
<ellipse fill="none" stroke="#6666ff" cx="510.345" cy="-529.644" rx="111.28" ry="18"/>
<text text-anchor="middle" x="510.345" y="-525.944" font-family="FreeSans" font-size="14.00" fill="#6666ff">Metamodel::Documenting</text>
</a>
</g>
</g>
<!-- Metamodel::Versioning -->
<g id="node6" class="node"><title>Metamodel::Versioning</title>
<g id="a_node6"><a xlink:href="/type/Metamodel::Versioning" xlink:title="Metamodel::Versioning">
<ellipse fill="none" stroke="#6666ff" cx="274.412" cy="-242.009" rx="100.983" ry="18"/>
<text text-anchor="middle" x="274.412" y="-238.309" font-family="FreeSans" font-size="14.00" fill="#6666ff">Metamodel::Versioning</text>
</a>
</g>
</g>
<!-- Metamodel::MethodContainer -->
<g id="node7" class="node"><title>Metamodel::MethodContainer</title>
<g id="a_node7"><a xlink:href="/type/Metamodel::MethodContainer" xlink:title="Metamodel::MethodContainer">
<ellipse fill="none" stroke="#6666ff" cx="-80.0753" cy="267.92" rx="127.277" ry="18"/>
<text text-anchor="middle" x="-80.0753" y="271.62" font-family="FreeSans" font-size="14.00" fill="#6666ff">Metamodel::MethodContainer</text>
</a>
</g>
</g>
<!-- Metamodel::PrivateMethodContainer -->
<g id="node8" class="node"><title>Metamodel::PrivateMethodContainer</title>
<g id="a_node8"><a xlink:href="/type/Metamodel::PrivateMethodContainer" xlink:title="Metamodel::PrivateMethodContainer">
<ellipse fill="none" stroke="#6666ff" cx="1005.82" cy="-470.212" rx="154.873" ry="18"/>
<text text-anchor="middle" x="1005.82" y="-466.512" font-family="FreeSans" font-size="14.00" fill="#6666ff">Metamodel::PrivateMethodContainer</text>
</a>
</g>
</g>
<!-- Metamodel::AttributeContainer -->
<g id="node9" class="node"><title>Metamodel::AttributeContainer</title>
<g id="a_node9"><a xlink:href="/type/Metamodel::AttributeContainer" xlink:title="Metamodel::AttributeContainer">
<ellipse fill="none" stroke="#6666ff" cx="-170.696" cy="572.743" rx="129.977" ry="18"/>
<text text-anchor="middle" x="-170.696" y="576.443" font-family="FreeSans" font-size="14.00" fill="#6666ff">Metamodel::AttributeContainer</text>
</a>
</g>
</g>
<!-- Metamodel::RoleContainer -->
<g id="node10" class="node"><title>Metamodel::RoleContainer</title>
<g id="a_node10"><a xlink:href="/type/Metamodel::RoleContainer" xlink:title="Metamodel::RoleContainer">
<ellipse fill="none" stroke="#6666ff" cx="128.603" cy="227.777" rx="115.88" ry="18"/>
<text text-anchor="middle" x="128.603" y="231.477" font-family="FreeSans" font-size="14.00" fill="#6666ff">Metamodel::RoleContainer</text>
</a>
</g>
</g>
<!-- Metamodel::MultipleInheritance -->
<g id="node11" class="node"><title>Metamodel::MultipleInheritance</title>
<g id="a_node11"><a xlink:href="/type/Metamodel::MultipleInheritance" xlink:title="Metamodel::MultipleInheritance">
<ellipse fill="none" stroke="#6666ff" cx="342.395" cy="283.142" rx="133.776" ry="18"/>
<text text-anchor="middle" x="342.395" y="286.842" font-family="FreeSans" font-size="14.00" fill="#6666ff">Metamodel::MultipleInheritance</text>
</a>
</g>
</g>
<!-- Metamodel::Stashing -->
<g id="node12" class="node"><title>Metamodel::Stashing</title>
<g id="a_node12"><a xlink:href="/type/Metamodel::Stashing" xlink:title="Metamodel::Stashing">
<ellipse fill="none" stroke="#6666ff" cx="0.0934393" cy="-244.945" rx="93.6835" ry="18"/>
<text text-anchor="middle" x="0.0934393" y="-241.245" font-family="FreeSans" font-size="14.00" fill="#6666ff">Metamodel::Stashing</text>
</a>
</g>
</g>
<!-- Metamodel::TypePretense -->
<g id="node13" class="node"><title>Metamodel::TypePretense</title>
<g id="a_node13"><a xlink:href="/type/Metamodel::TypePretense" xlink:title="Metamodel::TypePretense">
<ellipse fill="none" stroke="#6666ff" cx="1014.63" cy="501.887" rx="114.28" ry="18"/>
<text text-anchor="middle" x="1014.63" y="505.587" font-family="FreeSans" font-size="14.00" fill="#6666ff">Metamodel::TypePretense</text>
</a>
</g>
</g>
<!-- Metamodel::RolePunning -->
<g id="node14" class="node"><title>Metamodel::RolePunning</title>
<g id="a_node14"><a xlink:href="/type/Metamodel::RolePunning" xlink:title="Metamodel::RolePunning">
<ellipse fill="none" stroke="#6666ff" cx="1043.72" cy="10.2659" rx="109.681" ry="18"/>
<text text-anchor="middle" x="1043.72" y="13.9659" font-family="FreeSans" font-size="14.00" fill="#6666ff">Metamodel::RolePunning</text>
</a>
</g>
</g>
<!-- Metamodel::ParametricRoleHOW -->
<g id="node15" class="node"><title>Metamodel::ParametricRoleHOW</title>
<g id="a_node15"><a xlink:href="/type/Metamodel::ParametricRoleHOW" xlink:title="Metamodel::ParametricRoleHOW">
<ellipse fill="none" stroke="#000000" cx="600.485" cy="-161.993" rx="142.175" ry="18"/>
<text text-anchor="middle" x="600.485" y="-158.293" font-family="FreeSans" font-size="14.00" fill="#000000">Metamodel::ParametricRoleHOW</text>
</a>
</g>
</g>
<!-- Metamodel::ParametricRoleHOW&#45;&gt;Metamodel::MultiMethodContainer -->
<g id="edge11" class="edge"><title>Metamodel::ParametricRoleHOW&#45;&gt;Metamodel::MultiMethodContainer</title>
<path fill="none" stroke="#6666ff" d="M546.537,-145.314C444.546,-113.781 223.911,-45.5671 114.74,-11.8147"/>
<polygon fill="#6666ff" stroke="#6666ff" points="115.754,-8.46475 105.167,-8.85474 113.687,-15.1524 115.754,-8.46475"/>
</g>
<!-- Metamodel::ParametricRoleHOW&#45;&gt;Any -->
<g id="edge2" class="edge"><title>Metamodel::ParametricRoleHOW&#45;&gt;Any</title>
<path fill="none" stroke="#000000" d="M584.569,-143.99C510.937,-60.7019 206.908,283.197 206.908,283.197 206.908,283.197 173.01,475.426 160.114,548.556"/>
<polygon fill="#000000" stroke="#000000" points="163.554,549.205 158.37,558.445 156.66,547.989 163.554,549.205"/>
</g>
<!-- Metamodel::ParametricRoleHOW&#45;&gt;Metamodel::Naming -->
<g id="edge6" class="edge"><title>Metamodel::ParametricRoleHOW&#45;&gt;Metamodel::Naming</title>
<path fill="none" stroke="#6666ff" d="M571.272,-144.343C519.063,-112.798 409.836,-46.804 352.284,-12.0318"/>
<polygon fill="#6666ff" stroke="#6666ff" points="353.877,-8.90487 343.508,-6.72916 350.257,-14.8962 353.877,-8.90487"/>
</g>
<!-- Metamodel::ParametricRoleHOW&#45;&gt;Metamodel::Documenting -->
<g id="edge7" class="edge"><title>Metamodel::ParametricRoleHOW&#45;&gt;Metamodel::Documenting</title>
<path fill="none" stroke="#6666ff" d="M596.015,-180.225C581.388,-239.884 534.881,-429.569 517.23,-501.563"/>
<polygon fill="#6666ff" stroke="#6666ff" points="513.825,-500.756 514.843,-511.302 520.623,-502.423 513.825,-500.756"/>
</g>
<!-- Metamodel::ParametricRoleHOW&#45;&gt;Metamodel::Versioning -->
<g id="edge8" class="edge"><title>Metamodel::ParametricRoleHOW&#45;&gt;Metamodel::Versioning</title>
<path fill="none" stroke="#6666ff" d="M534.891,-178.089C479.452,-191.694 400.269,-211.124 343.785,-224.985"/>
<polygon fill="#6666ff" stroke="#6666ff" points="342.744,-221.637 333.866,-227.419 344.412,-228.435 342.744,-221.637"/>
</g>
<!-- Metamodel::ParametricRoleHOW&#45;&gt;Metamodel::MethodContainer -->
<g id="edge9" class="edge"><title>Metamodel::ParametricRoleHOW&#45;&gt;Metamodel::MethodContainer</title>
<path fill="none" stroke="#6666ff" d="M580.135,-143.864C530.437,-99.5866 406.914,10.461 406.914,10.461 406.914,10.461 80.5396,183.007 -37.8363,245.589"/>
<polygon fill="#6666ff" stroke="#6666ff" points="-36.509,248.847 -46.9854,250.426 -39.7807,242.658 -36.509,248.847"/>
</g>
<!-- Metamodel::ParametricRoleHOW&#45;&gt;Metamodel::PrivateMethodContainer -->
<g id="edge10" class="edge"><title>Metamodel::ParametricRoleHOW&#45;&gt;Metamodel::PrivateMethodContainer</title>
<path fill="none" stroke="#6666ff" d="M624.029,-179.897C693.15,-232.457 895.556,-386.367 974.126,-446.113"/>
<polygon fill="#6666ff" stroke="#6666ff" points="972.131,-448.992 982.209,-452.259 976.368,-443.42 972.131,-448.992"/>
</g>
<!-- Metamodel::ParametricRoleHOW&#45;&gt;Metamodel::AttributeContainer -->
<g id="edge12" class="edge"><title>Metamodel::ParametricRoleHOW&#45;&gt;Metamodel::AttributeContainer</title>
<path fill="none" stroke="#6666ff" d="M584.093,-143.976C514.356,-67.3239 245.893,227.759 245.893,227.759 245.893,227.759 -46.5735,469.955 -141.4,548.483"/>
<polygon fill="#6666ff" stroke="#6666ff" points="-139.242,551.24 -149.176,554.922 -143.706,545.848 -139.242,551.24"/>
</g>
<!-- Metamodel::ParametricRoleHOW&#45;&gt;Metamodel::RoleContainer -->
<g id="edge13" class="edge"><title>Metamodel::ParametricRoleHOW&#45;&gt;Metamodel::RoleContainer</title>
<path fill="none" stroke="#6666ff" d="M580.135,-143.864C530.437,-99.5866 406.914,10.461 406.914,10.461 406.914,10.461 231.619,147.338 159.269,203.832"/>
<polygon fill="#6666ff" stroke="#6666ff" points="161.414,206.597 151.378,209.993 157.106,201.08 161.414,206.597"/>
</g>
<!-- Metamodel::ParametricRoleHOW&#45;&gt;Metamodel::MultipleInheritance -->
<g id="edge14" class="edge"><title>Metamodel::ParametricRoleHOW&#45;&gt;Metamodel::MultipleInheritance</title>
<path fill="none" stroke="#6666ff" d="M590.048,-143.992C550.002,-74.9245 406.035,173.381 358.069,256.109"/>
<polygon fill="#6666ff" stroke="#6666ff" points="361.006,258.021 352.962,264.917 354.95,254.51 361.006,258.021"/>
</g>
<!-- Metamodel::ParametricRoleHOW&#45;&gt;Metamodel::Stashing -->
<g id="edge15" class="edge"><title>Metamodel::ParametricRoleHOW&#45;&gt;Metamodel::Stashing</title>
<path fill="none" stroke="#6666ff" d="M504.355,-175.275C389.028,-191.209 197.4,-217.684 86.5508,-233"/>
<polygon fill="#6666ff" stroke="#6666ff" points="85.837,-229.565 76.4101,-234.401 86.7951,-236.499 85.837,-229.565"/>
</g>
<!-- Metamodel::ParametricRoleHOW&#45;&gt;Metamodel::TypePretense -->
<g id="edge16" class="edge"><title>Metamodel::ParametricRoleHOW&#45;&gt;Metamodel::TypePretense</title>
<path fill="none" stroke="#6666ff" d="M611.777,-143.892C669.277,-51.7198 929.47,365.37 998.031,475.275"/>
<polygon fill="#6666ff" stroke="#6666ff" points="1001.03,473.465 1003.35,483.802 995.088,477.17 1001.03,473.465"/>
</g>
<!-- Metamodel::ParametricRoleHOW&#45;&gt;Metamodel::RolePunning -->
<g id="edge17" class="edge"><title>Metamodel::ParametricRoleHOW&#45;&gt;Metamodel::RolePunning</title>
<path fill="none" stroke="#6666ff" d="M644.604,-144.847C726.81,-112.898 903.049,-44.4042 991.222,-10.1366"/>
<polygon fill="#6666ff" stroke="#6666ff" points="992.705,-13.3157 1000.76,-6.43086 990.169,-6.79109 992.705,-13.3157"/>
</g>
<!-- Metamodel::Finalization -->
<g id="node16" class="node"><title>Metamodel::Finalization</title>
<g id="a_node16"><a xlink:href="/type/Metamodel::Finalization" xlink:title="Metamodel::Finalization">
<ellipse fill="none" stroke="#6666ff" cx="-599.104" cy="186.867" rx="103.982" ry="18"/>
<text text-anchor="middle" x="-599.104" y="190.567" font-family="FreeSans" font-size="14.00" fill="#6666ff">Metamodel::Finalization</text>
</a>
</g>
</g>
<!-- Metamodel::DefaultParent -->
<g id="node17" class="node"><title>Metamodel::DefaultParent</title>
<g id="a_node17"><a xlink:href="/type/Metamodel::DefaultParent" xlink:title="Metamodel::DefaultParent">
<ellipse fill="none" stroke="#6666ff" cx="136.46" cy="-549.674" rx="113.18" ry="18"/>
<text text-anchor="middle" x="136.46" y="-545.974" font-family="FreeSans" font-size="14.00" fill="#6666ff">Metamodel::DefaultParent</text>
</a>
</g>
</g>
<!-- Metamodel::C3MRO -->
<g id="node18" class="node"><title>Metamodel::C3MRO</title>
<g id="a_node18"><a xlink:href="/type/Metamodel::C3MRO" xlink:title="Metamodel::C3MRO">
<ellipse fill="none" stroke="#6666ff" cx="-527.217" cy="-523.725" rx="92.0841" ry="18"/>
<text text-anchor="middle" x="-527.217" y="-520.025" font-family="FreeSans" font-size="14.00" fill="#6666ff">Metamodel::C3MRO</text>
</a>
</g>
</g>
<!-- Metamodel::MROBasedMethodDispatch -->
<g id="node19" class="node"><title>Metamodel::MROBasedMethodDispatch</title>
<g id="a_node19"><a xlink:href="/type/Metamodel::MROBasedMethodDispatch" xlink:title="Metamodel::MROBasedMethodDispatch">
<ellipse fill="none" stroke="#6666ff" cx="-634.599" cy="-149.015" rx="169.77" ry="18"/>
<text text-anchor="middle" x="-634.599" y="-145.315" font-family="FreeSans" font-size="14.00" fill="#6666ff">Metamodel::MROBasedMethodDispatch</text>
</a>
</g>
</g>
<!-- Metamodel::MROBasedTypeChecking -->
<g id="node20" class="node"><title>Metamodel::MROBasedTypeChecking</title>
<g id="a_node20"><a xlink:href="/type/Metamodel::MROBasedTypeChecking" xlink:title="Metamodel::MROBasedTypeChecking">
<ellipse fill="none" stroke="#6666ff" cx="-1046.03" cy="31.1422" rx="163.271" ry="18"/>
<text text-anchor="middle" x="-1046.03" y="34.8422" font-family="FreeSans" font-size="14.00" fill="#6666ff">Metamodel::MROBasedTypeChecking</text>
</a>
</g>
</g>
<!-- Metamodel::Trusting -->
<g id="node21" class="node"><title>Metamodel::Trusting</title>
<g id="a_node21"><a xlink:href="/type/Metamodel::Trusting" xlink:title="Metamodel::Trusting">
<ellipse fill="none" stroke="#6666ff" cx="-1013.91" cy="-464.323" rx="91.784" ry="18"/>
<text text-anchor="middle" x="-1013.91" y="-460.623" font-family="FreeSans" font-size="14.00" fill="#6666ff">Metamodel::Trusting</text>
</a>
</g>
</g>
<!-- Metamodel::BUILDPLAN -->
<g id="node22" class="node"><title>Metamodel::BUILDPLAN</title>
<g id="a_node22"><a xlink:href="/type/Metamodel::BUILDPLAN" xlink:title="Metamodel::BUILDPLAN">
<ellipse fill="none" stroke="#6666ff" cx="-1002.82" cy="511.291" rx="109.681" ry="18"/>
<text text-anchor="middle" x="-1002.82" y="514.991" font-family="FreeSans" font-size="14.00" fill="#6666ff">Metamodel::BUILDPLAN</text>
</a>
</g>
</g>
<!-- Metamodel::Mixins -->
<g id="node23" class="node"><title>Metamodel::Mixins</title>
<g id="a_node23"><a xlink:href="/type/Metamodel::Mixins" xlink:title="Metamodel::Mixins">
<ellipse fill="none" stroke="#6666ff" cx="-185.96" cy="-515.536" rx="85.2851" ry="18"/>
<text text-anchor="middle" x="-185.96" y="-511.836" font-family="FreeSans" font-size="14.00" fill="#6666ff">Metamodel::Mixins</text>
</a>
</g>
</g>
<!-- Metamodel::BoolificationProtocol -->
<g id="node24" class="node"><title>Metamodel::BoolificationProtocol</title>
<g id="a_node24"><a xlink:href="/type/Metamodel::BoolificationProtocol" xlink:title="Metamodel::BoolificationProtocol">
<ellipse fill="none" stroke="#6666ff" cx="-345.03" cy="-166.815" rx="139.175" ry="18"/>
<text text-anchor="middle" x="-345.03" y="-163.115" font-family="FreeSans" font-size="14.00" fill="#6666ff">Metamodel::BoolificationProtocol</text>
</a>
</g>
</g>
<!-- Metamodel::ClassHOW -->
<g id="node25" class="node"><title>Metamodel::ClassHOW</title>
<g id="a_node25"><a xlink:href="/type/Metamodel::ClassHOW" xlink:title="Metamodel::ClassHOW">
<ellipse fill="none" stroke="#000000" cx="-156.667" cy="-52.8696" rx="103.982" ry="18"/>
<text text-anchor="middle" x="-156.667" y="-49.1696" font-family="FreeSans" font-size="14.00" fill="#000000">Metamodel::ClassHOW</text>
</a>
</g>
</g>
<!-- Metamodel::ClassHOW&#45;&gt;Metamodel::MultiMethodContainer -->
<g id="edge26" class="edge"><title>Metamodel::ClassHOW&#45;&gt;Metamodel::MultiMethodContainer</title>
<path fill="none" stroke="#6666ff" d="M-103.75,-37.3723C-76.996,-29.537 -44.2501,-19.9469 -15.7891,-11.6118"/>
<polygon fill="#6666ff" stroke="#6666ff" points="-14.5309,-14.8903 -5.91768,-8.72078 -16.4983,-8.1725 -14.5309,-14.8903"/>
</g>
<!-- Metamodel::ClassHOW&#45;&gt;Any -->
<g id="edge3" class="edge"><title>Metamodel::ClassHOW&#45;&gt;Any</title>
<path fill="none" stroke="#000000" d="M-145.903,-34.8858C-108.828,27.0596 11.3133,227.794 11.3133,227.794 11.3133,227.794 48.9113,267.808 48.9113,267.808 48.9113,267.808 119.551,472.831 145.663,548.618"/>
<polygon fill="#000000" stroke="#000000" points="149.091,547.825 149.04,558.419 142.473,550.105 149.091,547.825"/>
</g>
<!-- Metamodel::ClassHOW&#45;&gt;Metamodel::Naming -->
<g id="edge18" class="edge"><title>Metamodel::ClassHOW&#45;&gt;Metamodel::Naming</title>
<path fill="none" stroke="#6666ff" d="M-74.5135,-41.8294C10.7868,-30.3663 143.598,-12.5183 229.947,-0.914361"/>
<polygon fill="#6666ff" stroke="#6666ff" points="230.535,-4.36695 239.979,0.43383 229.602,2.57068 230.535,-4.36695"/>
</g>
<!-- Metamodel::ClassHOW&#45;&gt;Metamodel::Documenting -->
<g id="edge19" class="edge"><title>Metamodel::ClassHOW&#45;&gt;Metamodel::Documenting</title>
<path fill="none" stroke="#6666ff" d="M-132.136,-70.4036C-30.0994,-143.339 360.825,-422.768 477.367,-506.071"/>
<polygon fill="#6666ff" stroke="#6666ff" points="475.421,-508.982 485.592,-511.95 479.492,-503.288 475.421,-508.982"/>
</g>
<!-- Metamodel::ClassHOW&#45;&gt;Metamodel::Versioning -->
<g id="edge20" class="edge"><title>Metamodel::ClassHOW&#45;&gt;Metamodel::Versioning</title>
<path fill="none" stroke="#6666ff" d="M-118.411,-69.6544C-39.5628,-104.25 140.845,-183.405 226.965,-221.191"/>
<polygon fill="#6666ff" stroke="#6666ff" points="225.678,-224.449 236.242,-225.261 228.491,-218.038 225.678,-224.449"/>
</g>
<!-- Metamodel::ClassHOW&#45;&gt;Metamodel::MethodContainer -->
<g id="edge24" class="edge"><title>Metamodel::ClassHOW&#45;&gt;Metamodel::MethodContainer</title>
<path fill="none" stroke="#6666ff" d="M-152.329,-34.7034C-139.589,18.656 -102.212,175.206 -86.8184,239.678"/>
<polygon fill="#6666ff" stroke="#6666ff" points="-83.3781,239.016 -84.46,249.556 -90.1867,240.642 -83.3781,239.016"/>
</g>
<!-- Metamodel::ClassHOW&#45;&gt;Metamodel::PrivateMethodContainer -->
<g id="edge25" class="edge"><title>Metamodel::ClassHOW&#45;&gt;Metamodel::PrivateMethodContainer</title>
<path fill="none" stroke="#6666ff" d="M-110.163,-69.0536C14.5844,-112.468 347.245,-228.239 347.245,-228.239 347.245,-228.239 789.801,-390.843 949.341,-449.461"/>
<polygon fill="#6666ff" stroke="#6666ff" points="948.39,-452.84 958.984,-453.004 950.804,-446.27 948.39,-452.84"/>
</g>
<!-- Metamodel::ClassHOW&#45;&gt;Metamodel::AttributeContainer -->
<g id="edge22" class="edge"><title>Metamodel::ClassHOW&#45;&gt;Metamodel::AttributeContainer</title>
<path fill="none" stroke="#6666ff" d="M-159.634,-34.6971C-170.718,33.1876 -209.062,268.032 -209.062,268.032 -209.062,268.032 -183.788,468.766 -174.267,544.385"/>
<polygon fill="#6666ff" stroke="#6666ff" points="-170.758,544.236 -172.982,554.595 -177.703,545.11 -170.758,544.236"/>
</g>
<!-- Metamodel::ClassHOW&#45;&gt;Metamodel::RoleContainer -->
<g id="edge27" class="edge"><title>Metamodel::ClassHOW&#45;&gt;Metamodel::RoleContainer</title>
<path fill="none" stroke="#6666ff" d="M-139.066,-34.9318C-121.445,-16.9726 -96.9287,8.01405 -96.9287,8.01405 -96.9287,8.01405 43.3995,144.753 102.673,202.51"/>
<polygon fill="#6666ff" stroke="#6666ff" points="105.427,200.307 110.147,209.793 100.542,205.32 105.427,200.307"/>
</g>
<!-- Metamodel::ClassHOW&#45;&gt;Metamodel::MultipleInheritance -->
<g id="edge28" class="edge"><title>Metamodel::ClassHOW&#45;&gt;Metamodel::MultipleInheritance</title>
<path fill="none" stroke="#6666ff" d="M-139.066,-34.9318C-121.445,-16.9726 -96.9287,8.01405 -96.9287,8.01405 -96.9287,8.01405 199.737,193.802 305.496,260.034"/>
<polygon fill="#6666ff" stroke="#6666ff" points="307.628,257.239 314.245,265.513 303.912,263.172 307.628,257.239"/>
</g>
<!-- Metamodel::ClassHOW&#45;&gt;Metamodel::Stashing -->
<g id="edge21" class="edge"><title>Metamodel::ClassHOW&#45;&gt;Metamodel::Stashing</title>
<path fill="none" stroke="#6666ff" d="M-141.919,-70.9395C-113.955,-105.204 -53.1424,-179.716 -20.9205,-219.197"/>
<polygon fill="#6666ff" stroke="#6666ff" points="-23.5353,-221.529 -14.5008,-227.063 -18.1122,-217.102 -23.5353,-221.529"/>
</g>
<!-- Metamodel::ClassHOW&#45;&gt;Metamodel::Finalization -->
<g id="edge23" class="edge"><title>Metamodel::ClassHOW&#45;&gt;Metamodel::Finalization</title>
<path fill="none" stroke="#6666ff" d="M-188.486,-35.6283C-267.233,7.04117 -471.144,117.531 -558.456,164.842"/>
<polygon fill="#6666ff" stroke="#6666ff" points="-556.817,167.934 -567.277,169.621 -560.152,161.78 -556.817,167.934"/>
</g>
<!-- Metamodel::ClassHOW&#45;&gt;Metamodel::DefaultParent -->
<g id="edge29" class="edge"><title>Metamodel::ClassHOW&#45;&gt;Metamodel::DefaultParent</title>
<path fill="none" stroke="#6666ff" d="M-150.874,-70.9265C-135.547,-118.707 -95.0959,-244.807 -95.0959,-244.807 -95.0959,-244.807 59.9568,-448.95 116.303,-523.136"/>
<polygon fill="#6666ff" stroke="#6666ff" points="113.833,-525.67 122.669,-531.516 119.407,-521.436 113.833,-525.67"/>
</g>
<!-- Metamodel::ClassHOW&#45;&gt;Metamodel::C3MRO -->
<g id="edge30" class="edge"><title>Metamodel::ClassHOW&#45;&gt;Metamodel::C3MRO</title>
<path fill="none" stroke="#6666ff" d="M-164.222,-70.9423C-177.665,-103.103 -204.345,-166.927 -204.345,-166.927 -204.345,-166.927 -429.708,-415.97 -503.87,-497.925"/>
<polygon fill="#6666ff" stroke="#6666ff" points="-506.647,-495.778 -510.762,-505.541 -501.457,-500.474 -506.647,-495.778"/>
</g>
<!-- Metamodel::ClassHOW&#45;&gt;Metamodel::MROBasedMethodDispatch -->
<g id="edge31" class="edge"><title>Metamodel::ClassHOW&#45;&gt;Metamodel::MROBasedMethodDispatch</title>
<path fill="none" stroke="#6666ff" d="M-224.635,-66.5428C-308.804,-83.475 -452.408,-112.364 -545.372,-131.065"/>
<polygon fill="#6666ff" stroke="#6666ff" points="-546.214,-127.665 -555.327,-133.068 -544.833,-134.527 -546.214,-127.665"/>
</g>
<!-- Metamodel::ClassHOW&#45;&gt;Metamodel::MROBasedTypeChecking -->
<g id="edge32" class="edge"><title>Metamodel::ClassHOW&#45;&gt;Metamodel::MROBasedTypeChecking</title>
<path fill="none" stroke="#6666ff" d="M-248.079,-44.2345C-405.64,-29.3507 -729.031,1.19777 -912.05,18.4864"/>
<polygon fill="#6666ff" stroke="#6666ff" points="-911.723,21.971 -922.008,19.427 -912.382,15.002 -911.723,21.971"/>
</g>
<!-- Metamodel::ClassHOW&#45;&gt;Metamodel::Trusting -->
<g id="edge33" class="edge"><title>Metamodel::ClassHOW&#45;&gt;Metamodel::Trusting</title>
<path fill="none" stroke="#6666ff" d="M-203.462,-69.0583C-294.307,-100.486 -485.716,-166.704 -485.716,-166.704 -485.716,-166.704 -852.043,-373.117 -974.545,-442.144"/>
<polygon fill="#6666ff" stroke="#6666ff" points="-976.618,-439.295 -983.612,-447.253 -973.182,-445.393 -976.618,-439.295"/>
</g>
<!-- Metamodel::ClassHOW&#45;&gt;Metamodel::BUILDPLAN -->
<g id="edge34" class="edge"><title>Metamodel::ClassHOW&#45;&gt;Metamodel::BUILDPLAN</title>
<path fill="none" stroke="#6666ff" d="M-181.436,-35.2466C-259.227,20.1006 -493.514,186.793 -493.514,186.793 -493.514,186.793 -850.789,414.428 -966.864,488.384"/>
<polygon fill="#6666ff" stroke="#6666ff" points="-965.12,491.423 -975.434,493.845 -968.881,485.52 -965.12,491.423"/>
</g>
<!-- Metamodel::ClassHOW&#45;&gt;Metamodel::Mixins -->
<g id="edge35" class="edge"><title>Metamodel::ClassHOW&#45;&gt;Metamodel::Mixins</title>
<path fill="none" stroke="#6666ff" d="M-157.815,-71.0066C-162.309,-141.983 -178.722,-401.224 -184.181,-487.44"/>
<polygon fill="#6666ff" stroke="#6666ff" points="-187.68,-487.323 -184.819,-497.524 -180.694,-487.765 -187.68,-487.323"/>
</g>
<!-- Metamodel::ClassHOW&#45;&gt;Metamodel::BoolificationProtocol -->
<g id="edge36" class="edge"><title>Metamodel::ClassHOW&#45;&gt;Metamodel::BoolificationProtocol</title>
<path fill="none" stroke="#6666ff" d="M-185.275,-70.1755C-217.818,-89.8616 -271.097,-122.091 -307.088,-143.863"/>
<polygon fill="#6666ff" stroke="#6666ff" points="-309.097,-140.988 -315.842,-149.159 -305.474,-146.978 -309.097,-140.988"/>
</g>
<!-- Metamodel::BaseType -->
<g id="node26" class="node"><title>Metamodel::BaseType</title>
<g id="a_node26"><a xlink:href="/type/Metamodel::BaseType" xlink:title="Metamodel::BaseType">
<ellipse fill="none" stroke="#6666ff" cx="-512.847" cy="555.783" rx="99.3824" ry="18"/>
<text text-anchor="middle" x="-512.847" y="559.483" font-family="FreeSans" font-size="14.00" fill="#6666ff">Metamodel::BaseType</text>
</a>
</g>
</g>
<!-- Metamodel::EnumHOW -->
<g id="node27" class="node"><title>Metamodel::EnumHOW</title>
<g id="a_node27"><a xlink:href="/type/Metamodel::EnumHOW" xlink:title="Metamodel::EnumHOW">
<ellipse fill="none" stroke="#000000" cx="-306.191" cy="184.606" rx="104.782" ry="18"/>
<text text-anchor="middle" x="-306.191" y="188.306" font-family="FreeSans" font-size="14.00" fill="#000000">Metamodel::EnumHOW</text>
</a>
</g>
</g>
<!-- Metamodel::EnumHOW&#45;&gt;Metamodel::MultiMethodContainer -->
<g id="edge41" class="edge"><title>Metamodel::EnumHOW&#45;&gt;Metamodel::MultiMethodContainer</title>
<path fill="none" stroke="#6666ff" d="M-271.626,167.504C-206.547,135.304 -65.9011,65.7151 6.24172,30.0203"/>
<polygon fill="#6666ff" stroke="#6666ff" points="5.01654,26.7215 15.5316,25.4238 8.12084,32.9956 5.01654,26.7215"/>
</g>
<!-- Metamodel::EnumHOW&#45;&gt;Any -->
<g id="edge4" class="edge"><title>Metamodel::EnumHOW&#45;&gt;Any</title>
<path fill="none" stroke="#000000" d="M-285.592,202.298C-257.081,226.787 -209.062,268.032 -209.062,268.032 -209.062,268.032 48.1444,485.721 130.305,555.259"/>
<polygon fill="#000000" stroke="#000000" points="132.761,552.752 138.133,561.884 128.239,558.095 132.761,552.752"/>
</g>
<!-- Metamodel::EnumHOW&#45;&gt;Metamodel::Naming -->
<g id="edge37" class="edge"><title>Metamodel::EnumHOW&#45;&gt;Metamodel::Naming</title>
<path fill="none" stroke="#6666ff" d="M-251.339,169.232C-135.989,136.903 131.06,62.0571 252.653,27.9782"/>
<polygon fill="#6666ff" stroke="#6666ff" points="251.983,24.5312 262.556,25.2026 253.872,31.2715 251.983,24.5312"/>
</g>
<!-- Metamodel::EnumHOW&#45;&gt;Metamodel::MethodContainer -->
<g id="edge40" class="edge"><title>Metamodel::EnumHOW&#45;&gt;Metamodel::MethodContainer</title>
<path fill="none" stroke="#6666ff" d="M-261.788,200.967C-225.625,214.291 -174.38,233.173 -135.523,247.49"/>
<polygon fill="#6666ff" stroke="#6666ff" points="-134.102,244.284 -125.928,251.025 -136.522,250.852 -134.102,244.284"/>
</g>
<!-- Metamodel::EnumHOW&#45;&gt;Metamodel::AttributeContainer -->
<g id="edge39" class="edge"><title>Metamodel::EnumHOW&#45;&gt;Metamodel::AttributeContainer</title>
<path fill="none" stroke="#6666ff" d="M-299.838,202.806C-278.101,265.073 -206.609,469.869 -180.421,544.887"/>
<polygon fill="#6666ff" stroke="#6666ff" points="-177.028,543.988 -177.036,554.583 -183.637,546.295 -177.028,543.988"/>
</g>
<!-- Metamodel::EnumHOW&#45;&gt;Metamodel::RoleContainer -->
<g id="edge42" class="edge"><title>Metamodel::EnumHOW&#45;&gt;Metamodel::RoleContainer</title>
<path fill="none" stroke="#6666ff" d="M-215.309,193.629C-146.476,200.464 -51.6911,209.875 20.9423,217.087"/>
<polygon fill="#6666ff" stroke="#6666ff" points="21.434,213.619 31.0392,218.09 20.7423,220.584 21.434,213.619"/>
</g>
<!-- Metamodel::EnumHOW&#45;&gt;Metamodel::Stashing -->
<g id="edge38" class="edge"><title>Metamodel::EnumHOW&#45;&gt;Metamodel::Stashing</title>
<path fill="none" stroke="#6666ff" d="M-287.016,166.752C-227.686,111.513 -51.0764,-52.922 -51.0764,-52.922 -51.0764,-52.922 -21.5294,-163.802 -7.34025,-217.049"/>
<polygon fill="#6666ff" stroke="#6666ff" points="-10.6775,-218.118 -4.72049,-226.88 -3.91351,-216.316 -10.6775,-218.118"/>
</g>
<!-- Metamodel::EnumHOW&#45;&gt;Metamodel::MROBasedMethodDispatch -->
<g id="edge44" class="edge"><title>Metamodel::EnumHOW&#45;&gt;Metamodel::MROBasedMethodDispatch</title>
<path fill="none" stroke="#6666ff" d="M-323.848,166.669C-378.643,111.004 -545.923,-58.9314 -609.616,-123.635"/>
<polygon fill="#6666ff" stroke="#6666ff" points="-612.334,-121.408 -616.855,-130.99 -607.346,-126.319 -612.334,-121.408"/>
</g>
<!-- Metamodel::EnumHOW&#45;&gt;Metamodel::MROBasedTypeChecking -->
<g id="edge45" class="edge"><title>Metamodel::EnumHOW&#45;&gt;Metamodel::MROBasedTypeChecking</title>
<path fill="none" stroke="#6666ff" d="M-373.151,170.716C-507.54,142.84 -809.996,80.1017 -959.296,49.1325"/>
<polygon fill="#6666ff" stroke="#6666ff" points="-960.26,52.507 -969.341,47.0488 -958.839,45.6529 -960.26,52.507"/>
</g>
<!-- Metamodel::EnumHOW&#45;&gt;Metamodel::BUILDPLAN -->
<g id="edge46" class="edge"><title>Metamodel::EnumHOW&#45;&gt;Metamodel::BUILDPLAN</title>
<path fill="none" stroke="#6666ff" d="M-342.664,201.71C-459.968,256.72 -827.414,429.035 -957.011,489.81"/>
<polygon fill="#6666ff" stroke="#6666ff" points="-955.746,493.083 -966.286,494.16 -958.718,486.745 -955.746,493.083"/>
</g>
<!-- Metamodel::EnumHOW&#45;&gt;Metamodel::BoolificationProtocol -->
<g id="edge47" class="edge"><title>Metamodel::EnumHOW&#45;&gt;Metamodel::BoolificationProtocol</title>
<path fill="none" stroke="#6666ff" d="M-308.224,166.207C-314.595,108.563 -334.199,-68.8163 -341.889,-138.392"/>
<polygon fill="#6666ff" stroke="#6666ff" points="-345.397,-138.274 -343.017,-148.598 -338.439,-139.043 -345.397,-138.274"/>
</g>
<!-- Metamodel::EnumHOW&#45;&gt;Metamodel::BaseType -->
<g id="edge43" class="edge"><title>Metamodel::EnumHOW&#45;&gt;Metamodel::BaseType</title>
<path fill="none" stroke="#6666ff" d="M-316.298,202.76C-349.879,263.074 -457.855,457.011 -497.802,528.762"/>
<polygon fill="#6666ff" stroke="#6666ff" points="-494.836,530.63 -502.759,537.664 -500.952,527.224 -494.836,530.63"/>
</g>
<!-- Metamodel::ConcreteRoleHOW -->
<g id="node28" class="node"><title>Metamodel::ConcreteRoleHOW</title>
<g id="a_node28"><a xlink:href="/type/Metamodel::ConcreteRoleHOW" xlink:title="Metamodel::ConcreteRoleHOW">
<ellipse fill="none" stroke="#000000" cx="623.707" cy="180.04" rx="135.676" ry="18"/>
<text text-anchor="middle" x="623.707" y="183.74" font-family="FreeSans" font-size="14.00" fill="#000000">Metamodel::ConcreteRoleHOW</text>
</a>
</g>
</g>
<!-- Metamodel::ConcreteRoleHOW&#45;&gt;Metamodel::MultiMethodContainer -->
<g id="edge52" class="edge"><title>Metamodel::ConcreteRoleHOW&#45;&gt;Metamodel::MultiMethodContainer</title>
<path fill="none" stroke="#6666ff" d="M568.785,163.537C462.672,131.651 229.935,61.7166 116.145,27.5242"/>
<polygon fill="#6666ff" stroke="#6666ff" points="115.074,30.8572 106.505,24.6274 117.089,24.1533 115.074,30.8572"/>
</g>
<!-- Metamodel::ConcreteRoleHOW&#45;&gt;Any -->
<g id="edge5" class="edge"><title>Metamodel::ConcreteRoleHOW&#45;&gt;Any</title>
<path fill="none" stroke="#000000" d="M602.667,197.838C526.066,262.635 262.263,485.788 179.949,555.418"/>
<polygon fill="#000000" stroke="#000000" points="182.021,558.25 172.126,562.036 177.5,552.905 182.021,558.25"/>
</g>
<!-- Metamodel::ConcreteRoleHOW&#45;&gt;Metamodel::Naming -->
<g id="edge48" class="edge"><title>Metamodel::ConcreteRoleHOW&#45;&gt;Metamodel::Naming</title>
<path fill="none" stroke="#6666ff" d="M591.83,162.536C535.265,131.476 417.458,66.7873 355.329,32.6717"/>
<polygon fill="#6666ff" stroke="#6666ff" points="353.297,35.5493 346.216,27.6681 356.667,29.4134 353.297,35.5493"/>
</g>
<!-- Metamodel::ConcreteRoleHOW&#45;&gt;Metamodel::Versioning -->
<g id="edge49" class="edge"><title>Metamodel::ConcreteRoleHOW&#45;&gt;Metamodel::Versioning</title>
<path fill="none" stroke="#6666ff" d="M608.698,161.905C553.389,95.0755 360.81,-137.615 295.935,-216.003"/>
<polygon fill="#6666ff" stroke="#6666ff" points="293.044,-214.006 289.364,-223.941 298.437,-218.469 293.044,-214.006"/>
</g>
<!-- Metamodel::ConcreteRoleHOW&#45;&gt;Metamodel::MethodContainer -->
<g id="edge51" class="edge"><title>Metamodel::ConcreteRoleHOW&#45;&gt;Metamodel::MethodContainer</title>
<path fill="none" stroke="#6666ff" d="M533.526,193.517C412.245,211.641 211.613,241.624 211.613,241.624 211.613,241.624 118.901,249.982 38.0152,257.274"/>
<polygon fill="#6666ff" stroke="#6666ff" points="37.9837,260.791 27.7098,258.203 37.3552,253.819 37.9837,260.791"/>
</g>
<!-- Metamodel::ConcreteRoleHOW&#45;&gt;Metamodel::PrivateMethodContainer -->
<g id="edge50" class="edge"><title>Metamodel::ConcreteRoleHOW&#45;&gt;Metamodel::PrivateMethodContainer</title>
<path fill="none" stroke="#6666ff" d="M634.326,161.97C687.674,71.1848 926.397,-335.058 990.133,-443.519"/>
<polygon fill="#6666ff" stroke="#6666ff" points="987.167,-445.381 995.251,-452.229 993.202,-441.834 987.167,-445.381"/>
</g>
<!-- Metamodel::ConcreteRoleHOW&#45;&gt;Metamodel::AttributeContainer -->
<g id="edge53" class="edge"><title>Metamodel::ConcreteRoleHOW&#45;&gt;Metamodel::AttributeContainer</title>
<path fill="none" stroke="#6666ff" d="M598.639,197.755C556.946,227.217 477.883,283.087 477.883,283.087 477.883,283.087 27.552,484.205 -122.618,551.271"/>
<polygon fill="#6666ff" stroke="#6666ff" points="-121.509,554.609 -132.067,555.492 -124.364,548.218 -121.509,554.609"/>
</g>
<!-- Metamodel::ConcreteRoleHOW&#45;&gt;Metamodel::RoleContainer -->
<g id="edge54" class="edge"><title>Metamodel::ConcreteRoleHOW&#45;&gt;Metamodel::RoleContainer</title>
<path fill="none" stroke="#6666ff" d="M513.827,190.635C431.51,198.571 319.413,209.379 237.367,217.29"/>
<polygon fill="#6666ff" stroke="#6666ff" points="237.551,220.788 227.262,218.264 236.88,213.821 237.551,220.788"/>
</g>
<!-- Metamodel::ConcreteRoleHOW&#45;&gt;Metamodel::MultipleInheritance -->
<g id="edge55" class="edge"><title>Metamodel::ConcreteRoleHOW&#45;&gt;Metamodel::MultipleInheritance</title>
<path fill="none" stroke="#6666ff" d="M577.254,197.065C528.186,215.049 450.809,243.408 398.4,262.616"/>
<polygon fill="#6666ff" stroke="#6666ff" points="399.511,265.937 388.917,266.092 397.102,259.364 399.511,265.937"/>
</g>
</g>
</svg>
