<?xml version="1.0" encoding="UTF-8" standalone="no"?>
<!DOCTYPE svg PUBLIC "-//W3C//DTD SVG 1.1//EN"
 "http://www.w3.org/Graphics/SVG/1.1/DTD/svg11.dtd">
<!-- Generated by graphviz version 2.38.0 (20140413.2041)
 -->
<!-- Title: perl6&#45;type&#45;graph Pages: 1 -->
<svg width="206pt" height="116pt"
 viewBox="0.00 0.00 206.34 116.00" xmlns="http://www.w3.org/2000/svg" xmlns:xlink="http://www.w3.org/1999/xlink">
<g id="graph0" class="graph" transform="scale(1 1) rotate(0) translate(4 112)">
<title>perl6&#45;type&#45;graph</title>
<polygon fill="white" stroke="none" points="-4,4 -4,-112 202.342,-112 202.342,4 -4,4"/>
<!-- X::Syntax -->
<g id="node1" class="node"><title>X::Syntax</title>
<g id="a_node1"><a xlink:href="/type/X::Syntax" xlink:title="X::Syntax">
<ellipse fill="none" stroke="#6666ff" cx="100.146" cy="-18" rx="48.1917" ry="18"/>
<text text-anchor="middle" x="100.146" y="-14.3" font-family="FreeSans" font-size="14.00" fill="#6666ff">X::Syntax</text>
</a>
</g>
</g>
<!-- Exception -->
<g id="node2" class="node"><title>Exception</title>
<ellipse fill="none" stroke="black" cx="46.1459" cy="-90" rx="46.2923" ry="18"/>
<text text-anchor="middle" x="46.1459" y="-86.3" font-family="Times,serif" font-size="14.00">Exception</text>
</g>
<!-- X::Syntax&#45;&gt;Exception -->
<g id="edge1" class="edge"><title>X::Syntax&#45;&gt;Exception</title>
<path fill="none" stroke="#000000" d="M87.3487,-35.589C80.6909,-44.2195 72.4224,-54.9378 65.0437,-64.5028"/>
<polygon fill="#000000" stroke="#000000" points="62.1881,-62.4744 58.8513,-72.5301 67.7306,-66.75 62.1881,-62.4744"/>
</g>
<!-- X::Comp -->
<g id="node3" class="node"><title>X::Comp</title>
<ellipse fill="none" stroke="black" cx="154.146" cy="-90" rx="44.393" ry="18"/>
<text text-anchor="middle" x="154.146" y="-86.3" font-family="Times,serif" font-size="14.00">X::Comp</text>
</g>
<!-- X::Syntax&#45;&gt;X::Comp -->
<g id="edge2" class="edge"><title>X::Syntax&#45;&gt;X::Comp</title>
<path fill="none" stroke="#6666ff" d="M112.943,-35.589C119.601,-44.2195 127.869,-54.9378 135.248,-64.5028"/>
<polygon fill="#6666ff" stroke="#6666ff" points="132.561,-66.75 141.441,-72.5301 138.104,-62.4744 132.561,-66.75"/>
</g>
</g>
</svg>
