<?xml version="1.0" encoding="UTF-8" standalone="no"?>
<!DOCTYPE svg PUBLIC "-//W3C//DTD SVG 1.1//EN"
 "http://www.w3.org/Graphics/SVG/1.1/DTD/svg11.dtd">
<!-- Generated by graphviz version 2.38.0 (20140413.2041)
 -->
<!-- Title: perl6&#45;type&#45;graph Pages: 1 -->
<svg width="168pt" height="332pt"
 viewBox="0.00 0.00 167.84 332.00" xmlns="http://www.w3.org/2000/svg" xmlns:xlink="http://www.w3.org/1999/xlink">
<g id="graph0" class="graph" transform="scale(1 1) rotate(0) translate(4 328)">
<title>perl6&#45;type&#45;graph</title>
<polygon fill="white" stroke="none" points="-4,4 -4,-328 163.844,-328 163.844,4 -4,4"/>
<!-- Capture -->
<g id="node1" class="node"><title>Capture</title>
<g id="a_node1"><a xlink:href="/type/Capture" xlink:title="Capture">
<ellipse fill="none" stroke="#000000" cx="42.2463" cy="-162" rx="42.4939" ry="18"/>
<text text-anchor="middle" x="42.2463" y="-158.3" font-family="FreeSans" font-size="14.00" fill="#000000">Capture</text>
</a>
</g>
</g>
<!-- Any -->
<g id="node3" class="node"><title>Any</title>
<g id="a_node3"><a xlink:href="/type/Any" xlink:title="Any">
<ellipse fill="none" stroke="#000000" cx="86.2463" cy="-234" rx="27" ry="18"/>
<text text-anchor="middle" x="86.2463" y="-230.3" font-family="FreeSans" font-size="14.00" fill="#000000">Any</text>
</a>
</g>
</g>
<!-- Capture&#45;&gt;Any -->
<g id="edge1" class="edge"><title>Capture&#45;&gt;Any</title>
<path fill="none" stroke="#000000" d="M52.6736,-179.589C58.0659,-188.168 64.7549,-198.809 70.7397,-208.33"/>
<polygon fill="#000000" stroke="#000000" points="67.9116,-210.408 76.1966,-217.012 73.8381,-206.683 67.9116,-210.408"/>
</g>
<!-- Mu -->
<g id="node2" class="node"><title>Mu</title>
<g id="a_node2"><a xlink:href="/type/Mu" xlink:title="Mu">
<ellipse fill="none" stroke="#000000" cx="86.2463" cy="-306" rx="27" ry="18"/>
<text text-anchor="middle" x="86.2463" y="-302.3" font-family="FreeSans" font-size="14.00" fill="#000000">Mu</text>
</a>
</g>
</g>
<!-- Any&#45;&gt;Mu -->
<g id="edge2" class="edge"><title>Any&#45;&gt;Mu</title>
<path fill="none" stroke="#000000" d="M86.2463,-252.303C86.2463,-260.017 86.2463,-269.288 86.2463,-277.888"/>
<polygon fill="#000000" stroke="#000000" points="82.7464,-277.896 86.2463,-287.896 89.7464,-277.896 82.7464,-277.896"/>
</g>
<!-- Cool -->
<g id="node4" class="node"><title>Cool</title>
<g id="a_node4"><a xlink:href="/type/Cool" xlink:title="Cool">
<ellipse fill="none" stroke="#000000" cx="131.246" cy="-162" rx="28.6953" ry="18"/>
<text text-anchor="middle" x="131.246" y="-158.3" font-family="FreeSans" font-size="14.00" fill="#000000">Cool</text>
</a>
</g>
</g>
<!-- Cool&#45;&gt;Any -->
<g id="edge3" class="edge"><title>Cool&#45;&gt;Any</title>
<path fill="none" stroke="#000000" d="M121.035,-178.884C115.397,-187.655 108.273,-198.736 101.942,-208.584"/>
<polygon fill="#000000" stroke="#000000" points="98.8805,-206.874 96.417,-217.179 104.769,-210.66 98.8805,-206.874"/>
</g>
<!-- Match -->
<g id="node5" class="node"><title>Match</title>
<g id="a_node5"><a xlink:href="/type/Match" xlink:title="Match">
<ellipse fill="none" stroke="#000000" cx="86.2463" cy="-90" rx="35.194" ry="18"/>
<text text-anchor="middle" x="86.2463" y="-86.3" font-family="FreeSans" font-size="14.00" fill="#000000">Match</text>
</a>
</g>
</g>
<!-- Match&#45;&gt;Capture -->
<g id="edge4" class="edge"><title>Match&#45;&gt;Capture</title>
<path fill="none" stroke="#000000" d="M76.0412,-107.235C70.7314,-115.683 64.1201,-126.201 58.1568,-135.688"/>
<polygon fill="#000000" stroke="#000000" points="55.0601,-134.038 52.7015,-144.367 60.9865,-137.763 55.0601,-134.038"/>
</g>
<!-- Match&#45;&gt;Cool -->
<g id="edge5" class="edge"><title>Match&#45;&gt;Cool</title>
<path fill="none" stroke="#000000" d="M96.6833,-107.235C102.249,-115.894 109.214,-126.727 115.429,-136.396"/>
<polygon fill="#000000" stroke="#000000" points="112.514,-138.334 120.866,-144.853 118.402,-134.548 112.514,-138.334"/>
</g>
<!-- Grammar -->
<g id="node6" class="node"><title>Grammar</title>
<g id="a_node6"><a xlink:href="/type/Grammar" xlink:title="Grammar">
<ellipse fill="none" stroke="#000000" cx="86.2463" cy="-18" rx="48.1917" ry="18"/>
<text text-anchor="middle" x="86.2463" y="-14.3" font-family="FreeSans" font-size="14.00" fill="#000000">Grammar</text>
</a>
</g>
</g>
<!-- Grammar&#45;&gt;Match -->
<g id="edge6" class="edge"><title>Grammar&#45;&gt;Match</title>
<path fill="none" stroke="#000000" d="M86.2463,-36.3034C86.2463,-44.0173 86.2463,-53.2875 86.2463,-61.8876"/>
<polygon fill="#000000" stroke="#000000" points="82.7464,-61.8956 86.2463,-71.8957 89.7464,-61.8957 82.7464,-61.8956"/>
</g>
</g>
</svg>
