<?xml version="1.0" encoding="UTF-8" standalone="no"?>
<!DOCTYPE svg PUBLIC "-//W3C//DTD SVG 1.1//EN"
 "http://www.w3.org/Graphics/SVG/1.1/DTD/svg11.dtd">
<!-- Generated by graphviz version 2.38.0 (20140413.2041)
 -->
<!-- Title: perl6&#45;type&#45;graph Pages: 1 -->
<svg width="621pt" height="404pt"
 viewBox="0.00 0.00 621.24 404.00" xmlns="http://www.w3.org/2000/svg" xmlns:xlink="http://www.w3.org/1999/xlink">
<g id="graph0" class="graph" transform="scale(1 1) rotate(0) translate(4 400)">
<title>perl6&#45;type&#45;graph</title>
<polygon fill="white" stroke="none" points="-4,4 -4,-400 617.237,-400 617.237,4 -4,4"/>
<!-- Iterable -->
<g id="node1" class="node"><title>Iterable</title>
<g id="a_node1"><a xlink:href="/type/Iterable" xlink:title="Iterable">
<ellipse fill="none" stroke="#6666ff" cx="457.491" cy="-234" rx="40.0939" ry="18"/>
<text text-anchor="middle" x="457.491" y="-230.3" font-family="FreeSans" font-size="14.00" fill="#6666ff">Iterable</text>
</a>
</g>
</g>
<!-- Mu -->
<g id="node2" class="node"><title>Mu</title>
<g id="a_node2"><a xlink:href="/type/Mu" xlink:title="Mu">
<ellipse fill="none" stroke="#000000" cx="370.491" cy="-378" rx="27" ry="18"/>
<text text-anchor="middle" x="370.491" y="-374.3" font-family="FreeSans" font-size="14.00" fill="#000000">Mu</text>
</a>
</g>
</g>
<!-- Any -->
<g id="node3" class="node"><title>Any</title>
<g id="a_node3"><a xlink:href="/type/Any" xlink:title="Any">
<ellipse fill="none" stroke="#000000" cx="370.491" cy="-306" rx="27" ry="18"/>
<text text-anchor="middle" x="370.491" y="-302.3" font-family="FreeSans" font-size="14.00" fill="#000000">Any</text>
</a>
</g>
</g>
<!-- Any&#45;&gt;Mu -->
<g id="edge1" class="edge"><title>Any&#45;&gt;Mu</title>
<path fill="none" stroke="#000000" d="M370.491,-324.303C370.491,-332.017 370.491,-341.288 370.491,-349.888"/>
<polygon fill="#000000" stroke="#000000" points="366.991,-349.896 370.491,-359.896 373.991,-349.896 366.991,-349.896"/>
</g>
<!-- Cool -->
<g id="node4" class="node"><title>Cool</title>
<g id="a_node4"><a xlink:href="/type/Cool" xlink:title="Cool">
<ellipse fill="none" stroke="#000000" cx="370.491" cy="-234" rx="28.6953" ry="18"/>
<text text-anchor="middle" x="370.491" y="-230.3" font-family="FreeSans" font-size="14.00" fill="#000000">Cool</text>
</a>
</g>
</g>
<!-- Cool&#45;&gt;Any -->
<g id="edge2" class="edge"><title>Cool&#45;&gt;Any</title>
<path fill="none" stroke="#000000" d="M370.491,-252.303C370.491,-260.017 370.491,-269.288 370.491,-277.888"/>
<polygon fill="#000000" stroke="#000000" points="366.991,-277.896 370.491,-287.896 373.991,-277.896 366.991,-277.896"/>
</g>
<!-- Associative -->
<g id="node5" class="node"><title>Associative</title>
<g id="a_node5"><a xlink:href="/type/Associative" xlink:title="Associative">
<ellipse fill="none" stroke="#6666ff" cx="268.491" cy="-234" rx="55.4913" ry="18"/>
<text text-anchor="middle" x="268.491" y="-230.3" font-family="FreeSans" font-size="14.00" fill="#6666ff">Associative</text>
</a>
</g>
</g>
<!-- Map -->
<g id="node6" class="node"><title>Map</title>
<g id="a_node6"><a xlink:href="/type/Map" xlink:title="Map">
<ellipse fill="none" stroke="#000000" cx="367.491" cy="-162" rx="28.6953" ry="18"/>
<text text-anchor="middle" x="367.491" y="-158.3" font-family="FreeSans" font-size="14.00" fill="#000000">Map</text>
</a>
</g>
</g>
<!-- Map&#45;&gt;Iterable -->
<g id="edge12" class="edge"><title>Map&#45;&gt;Iterable</title>
<path fill="none" stroke="#6666ff" d="M384.844,-176.497C397.654,-186.46 415.344,-200.219 430.06,-211.665"/>
<polygon fill="#6666ff" stroke="#6666ff" points="428.28,-214.714 438.322,-218.091 432.577,-209.188 428.28,-214.714"/>
</g>
<!-- Map&#45;&gt;Cool -->
<g id="edge3" class="edge"><title>Map&#45;&gt;Cool</title>
<path fill="none" stroke="#000000" d="M368.233,-180.303C368.564,-188.017 368.961,-197.288 369.329,-205.888"/>
<polygon fill="#000000" stroke="#000000" points="365.833,-206.055 369.758,-215.896 372.827,-205.755 365.833,-206.055"/>
</g>
<!-- Map&#45;&gt;Associative -->
<g id="edge13" class="edge"><title>Map&#45;&gt;Associative</title>
<path fill="none" stroke="#6666ff" d="M348.87,-176.166C334.752,-186.149 315.053,-200.077 298.691,-211.647"/>
<polygon fill="#6666ff" stroke="#6666ff" points="296.63,-208.817 290.486,-217.448 300.671,-214.533 296.63,-208.817"/>
</g>
<!-- PositionalBindFailover -->
<g id="node7" class="node"><title>PositionalBindFailover</title>
<g id="a_node7"><a xlink:href="/type/PositionalBindFailover" xlink:title="PositionalBindFailover">
<ellipse fill="none" stroke="#6666ff" cx="97.4913" cy="-234" rx="97.4827" ry="18"/>
<text text-anchor="middle" x="97.4913" y="-230.3" font-family="FreeSans" font-size="14.00" fill="#6666ff">PositionalBindFailover</text>
</a>
</g>
</g>
<!-- Seq -->
<g id="node8" class="node"><title>Seq</title>
<g id="a_node8"><a xlink:href="/type/Seq" xlink:title="Seq">
<ellipse fill="none" stroke="#000000" cx="293.491" cy="-162" rx="27" ry="18"/>
<text text-anchor="middle" x="293.491" y="-158.3" font-family="FreeSans" font-size="14.00" fill="#000000">Seq</text>
</a>
</g>
</g>
<!-- Seq&#45;&gt;Iterable -->
<g id="edge14" class="edge"><title>Seq&#45;&gt;Iterable</title>
<path fill="none" stroke="#6666ff" d="M314.849,-173.085C322.601,-176.746 329.491,-180 329.491,-180 329.491,-180 381.788,-201.654 419.526,-217.28"/>
<polygon fill="#6666ff" stroke="#6666ff" points="418.187,-220.514 428.766,-221.106 420.865,-214.046 418.187,-220.514"/>
</g>
<!-- Seq&#45;&gt;Cool -->
<g id="edge4" class="edge"><title>Seq&#45;&gt;Cool</title>
<path fill="none" stroke="#000000" d="M309.073,-177.166C320.032,-187.128 334.886,-200.631 347.241,-211.863"/>
<polygon fill="#000000" stroke="#000000" points="345.179,-214.719 354.932,-218.856 349.887,-209.539 345.179,-214.719"/>
</g>
<!-- Seq&#45;&gt;PositionalBindFailover -->
<g id="edge15" class="edge"><title>Seq&#45;&gt;PositionalBindFailover</title>
<path fill="none" stroke="#6666ff" d="M270.238,-171.305C240.791,-181.821 189.178,-200.255 150.015,-214.242"/>
<polygon fill="#6666ff" stroke="#6666ff" points="148.588,-211.035 140.347,-217.694 150.942,-217.627 148.588,-211.035"/>
</g>
<!-- Positional -->
<g id="node9" class="node"><title>Positional</title>
<g id="a_node9"><a xlink:href="/type/Positional" xlink:title="Positional">
<ellipse fill="none" stroke="#6666ff" cx="564.491" cy="-234" rx="48.9926" ry="18"/>
<text text-anchor="middle" x="564.491" y="-230.3" font-family="FreeSans" font-size="14.00" fill="#6666ff">Positional</text>
</a>
</g>
</g>
<!-- List -->
<g id="node10" class="node"><title>List</title>
<g id="a_node10"><a xlink:href="/type/List" xlink:title="List">
<ellipse fill="none" stroke="#000000" cx="462.491" cy="-162" rx="27" ry="18"/>
<text text-anchor="middle" x="462.491" y="-158.3" font-family="FreeSans" font-size="14.00" fill="#000000">List</text>
</a>
</g>
</g>
<!-- List&#45;&gt;Iterable -->
<g id="edge17" class="edge"><title>List&#45;&gt;Iterable</title>
<path fill="none" stroke="#6666ff" d="M461.255,-180.303C460.704,-188.017 460.042,-197.288 459.428,-205.888"/>
<polygon fill="#6666ff" stroke="#6666ff" points="455.935,-205.672 458.713,-215.896 462.917,-206.17 455.935,-205.672"/>
</g>
<!-- List&#45;&gt;Cool -->
<g id="edge5" class="edge"><title>List&#45;&gt;Cool</title>
<path fill="none" stroke="#000000" d="M445.187,-176.166C431.397,-186.659 411.877,-201.511 396.251,-213.4"/>
<polygon fill="#000000" stroke="#000000" points="393.87,-210.814 388.031,-219.655 398.109,-216.385 393.87,-210.814"/>
</g>
<!-- List&#45;&gt;Positional -->
<g id="edge16" class="edge"><title>List&#45;&gt;Positional</title>
<path fill="none" stroke="#6666ff" d="M480.727,-175.515C495.463,-185.628 516.529,-200.085 533.848,-211.97"/>
<polygon fill="#6666ff" stroke="#6666ff" points="532.284,-215.142 542.51,-217.915 536.245,-209.37 532.284,-215.142"/>
</g>
<!-- Range -->
<g id="node11" class="node"><title>Range</title>
<g id="a_node11"><a xlink:href="/type/Range" xlink:title="Range">
<ellipse fill="none" stroke="#000000" cx="543.491" cy="-162" rx="36.2938" ry="18"/>
<text text-anchor="middle" x="543.491" y="-158.3" font-family="FreeSans" font-size="14.00" fill="#000000">Range</text>
</a>
</g>
</g>
<!-- Range&#45;&gt;Iterable -->
<g id="edge19" class="edge"><title>Range&#45;&gt;Iterable</title>
<path fill="none" stroke="#6666ff" d="M525.253,-177.845C513.249,-187.616 497.338,-200.566 483.952,-211.463"/>
<polygon fill="#6666ff" stroke="#6666ff" points="481.546,-208.908 476,-217.935 485.965,-214.337 481.546,-208.908"/>
</g>
<!-- Range&#45;&gt;Cool -->
<g id="edge6" class="edge"><title>Range&#45;&gt;Cool</title>
<path fill="none" stroke="#000000" d="M515.846,-173.853C476.35,-189.359 408.491,-216 408.491,-216 408.491,-216 406.06,-217.088 402.428,-218.712"/>
<polygon fill="#000000" stroke="#000000" points="400.734,-215.636 393.035,-222.915 403.593,-222.026 400.734,-215.636"/>
</g>
<!-- Range&#45;&gt;Positional -->
<g id="edge18" class="edge"><title>Range&#45;&gt;Positional</title>
<path fill="none" stroke="#6666ff" d="M548.575,-179.945C550.913,-187.739 553.745,-197.178 556.368,-205.921"/>
<polygon fill="#6666ff" stroke="#6666ff" points="553.083,-207.152 559.309,-215.725 559.788,-205.141 553.083,-207.152"/>
</g>
<!-- Hash -->
<g id="node12" class="node"><title>Hash</title>
<g id="a_node12"><a xlink:href="/type/Hash" xlink:title="Hash">
<ellipse fill="none" stroke="#000000" cx="245.491" cy="-90" rx="31.3957" ry="18"/>
<text text-anchor="middle" x="245.491" y="-86.3" font-family="FreeSans" font-size="14.00" fill="#000000">Hash</text>
</a>
</g>
</g>
<!-- Hash&#45;&gt;Map -->
<g id="edge7" class="edge"><title>Hash&#45;&gt;Map</title>
<path fill="none" stroke="#000000" d="M266.742,-103.193C286.455,-114.504 315.977,-131.443 337.974,-144.064"/>
<polygon fill="#000000" stroke="#000000" points="336.475,-147.239 346.891,-149.18 339.959,-141.167 336.475,-147.239"/>
</g>
<!-- PseudoStash -->
<g id="node13" class="node"><title>PseudoStash</title>
<g id="a_node13"><a xlink:href="/type/PseudoStash" xlink:title="PseudoStash">
<ellipse fill="none" stroke="#000000" cx="357.491" cy="-90" rx="63.0888" ry="18"/>
<text text-anchor="middle" x="357.491" y="-86.3" font-family="FreeSans" font-size="14.00" fill="#000000">PseudoStash</text>
</a>
</g>
</g>
<!-- PseudoStash&#45;&gt;Map -->
<g id="edge8" class="edge"><title>PseudoStash&#45;&gt;Map</title>
<path fill="none" stroke="#000000" d="M359.963,-108.303C361.065,-116.017 362.39,-125.288 363.618,-133.888"/>
<polygon fill="#000000" stroke="#000000" points="360.169,-134.491 365.048,-143.896 367.098,-133.501 360.169,-134.491"/>
</g>
<!-- Slip -->
<g id="node14" class="node"><title>Slip</title>
<g id="a_node14"><a xlink:href="/type/Slip" xlink:title="Slip">
<ellipse fill="none" stroke="#000000" cx="465.491" cy="-90" rx="27" ry="18"/>
<text text-anchor="middle" x="465.491" y="-86.3" font-family="FreeSans" font-size="14.00" fill="#000000">Slip</text>
</a>
</g>
</g>
<!-- Slip&#45;&gt;List -->
<g id="edge9" class="edge"><title>Slip&#45;&gt;List</title>
<path fill="none" stroke="#000000" d="M464.75,-108.303C464.419,-116.017 464.022,-125.288 463.653,-133.888"/>
<polygon fill="#000000" stroke="#000000" points="460.156,-133.755 463.224,-143.896 467.149,-134.055 460.156,-133.755"/>
</g>
<!-- Array -->
<g id="node15" class="node"><title>Array</title>
<g id="a_node15"><a xlink:href="/type/Array" xlink:title="Array">
<ellipse fill="none" stroke="#000000" cx="542.491" cy="-90" rx="31.6951" ry="18"/>
<text text-anchor="middle" x="542.491" y="-86.3" font-family="FreeSans" font-size="14.00" fill="#000000">Array</text>
</a>
</g>
</g>
<!-- Array&#45;&gt;List -->
<g id="edge10" class="edge"><title>Array&#45;&gt;List</title>
<path fill="none" stroke="#000000" d="M525.915,-105.504C514.318,-115.652 498.664,-129.349 485.81,-140.596"/>
<polygon fill="#000000" stroke="#000000" points="483.451,-138.01 478.23,-147.229 488.06,-143.278 483.451,-138.01"/>
</g>
<!-- Stash -->
<g id="node16" class="node"><title>Stash</title>
<g id="a_node16"><a xlink:href="/type/Stash" xlink:title="Stash">
<ellipse fill="none" stroke="#000000" cx="245.491" cy="-18" rx="33.2948" ry="18"/>
<text text-anchor="middle" x="245.491" y="-14.3" font-family="FreeSans" font-size="14.00" fill="#000000">Stash</text>
</a>
</g>
</g>
<!-- Stash&#45;&gt;Hash -->
<g id="edge11" class="edge"><title>Stash&#45;&gt;Hash</title>
<path fill="none" stroke="#000000" d="M245.491,-36.3034C245.491,-44.0173 245.491,-53.2875 245.491,-61.8876"/>
<polygon fill="#000000" stroke="#000000" points="241.991,-61.8956 245.491,-71.8957 248.991,-61.8957 241.991,-61.8956"/>
</g>
</g>
</svg>
