<?xml version="1.0" encoding="UTF-8" standalone="no"?>
<!DOCTYPE svg PUBLIC "-//W3C//DTD SVG 1.1//EN"
 "http://www.w3.org/Graphics/SVG/1.1/DTD/svg11.dtd">
<!-- Generated by graphviz version 2.38.0 (20140413.2041)
 -->
<!-- Title: perl6&#45;type&#45;graph Pages: 1 -->
<svg width="360pt" height="404pt"
 viewBox="0.00 0.00 360.27 404.00" xmlns="http://www.w3.org/2000/svg" xmlns:xlink="http://www.w3.org/1999/xlink">
<g id="graph0" class="graph" transform="scale(1 1) rotate(0) translate(4 400)">
<title>perl6&#45;type&#45;graph</title>
<polygon fill="white" stroke="none" points="-4,4 -4,-400 356.269,-400 356.269,4 -4,4"/>
<!-- X::Syntax::AddCategorical::TooManyParts -->
<g id="node1" class="node"><title>X::Syntax::AddCategorical::TooManyParts</title>
<g id="a_node1"><a xlink:href="/type/X::Syntax::AddCategorical::TooManyParts" xlink:title="X::Syntax::AddCategorical::TooManyParts">
<ellipse fill="none" stroke="#000000" cx="176.134" cy="-18" rx="176.269" ry="18"/>
<text text-anchor="middle" x="176.134" y="-14.3" font-family="FreeSans" font-size="14.00" fill="#000000">X::Syntax::AddCategorical::TooManyParts</text>
</a>
</g>
</g>
<!-- Exception -->
<g id="node4" class="node"><title>Exception</title>
<g id="a_node4"><a xlink:href="/type/Exception" xlink:title="Exception">
<ellipse fill="none" stroke="#000000" cx="199.134" cy="-234" rx="49.2915" ry="18"/>
<text text-anchor="middle" x="199.134" y="-230.3" font-family="FreeSans" font-size="14.00" fill="#000000">Exception</text>
</a>
</g>
</g>
<!-- X::Syntax::AddCategorical::TooManyParts&#45;&gt;Exception -->
<g id="edge1" class="edge"><title>X::Syntax::AddCategorical::TooManyParts&#45;&gt;Exception</title>
<path fill="none" stroke="#000000" d="M174.1,-36.1508C174.545,-73.3384 183.776,-161.626 191.606,-206.228"/>
<polygon fill="#000000" stroke="#000000" points="188.168,-206.884 193.457,-216.065 195.048,-205.59 188.168,-206.884"/>
</g>
<!-- X::Syntax::AddCategorical::TooManyParts&#45;&gt;Exception -->
<g id="edge2" class="edge"><title>X::Syntax::AddCategorical::TooManyParts&#45;&gt;Exception</title>
<path fill="none" stroke="#000000" d="M181.855,-36.1508C189.37,-73.1683 199.062,-160.819 200.883,-205.614"/>
<polygon fill="#000000" stroke="#000000" points="197.389,-205.87 201.168,-215.768 204.386,-205.673 197.389,-205.87"/>
</g>
<!-- X::Syntax -->
<g id="node6" class="node"><title>X::Syntax</title>
<g id="a_node6"><a xlink:href="/type/X::Syntax" xlink:title="X::Syntax">
<ellipse fill="none" stroke="#6666ff" cx="261.134" cy="-90" rx="48.1917" ry="18"/>
<text text-anchor="middle" x="261.134" y="-86.3" font-family="FreeSans" font-size="14.00" fill="#6666ff">X::Syntax</text>
</a>
</g>
</g>
<!-- X::Syntax::AddCategorical::TooManyParts&#45;&gt;X::Syntax -->
<g id="edge7" class="edge"><title>X::Syntax::AddCategorical::TooManyParts&#45;&gt;X::Syntax</title>
<path fill="none" stroke="#6666ff" d="M196.711,-35.945C207.968,-45.216 222.052,-56.8143 234.178,-66.8003"/>
<polygon fill="#6666ff" stroke="#6666ff" points="232.257,-69.7523 242.201,-73.4077 236.706,-64.3488 232.257,-69.7523"/>
</g>
<!-- Mu -->
<g id="node2" class="node"><title>Mu</title>
<g id="a_node2"><a xlink:href="/type/Mu" xlink:title="Mu">
<ellipse fill="none" stroke="#000000" cx="199.134" cy="-378" rx="27" ry="18"/>
<text text-anchor="middle" x="199.134" y="-374.3" font-family="FreeSans" font-size="14.00" fill="#000000">Mu</text>
</a>
</g>
</g>
<!-- Any -->
<g id="node3" class="node"><title>Any</title>
<g id="a_node3"><a xlink:href="/type/Any" xlink:title="Any">
<ellipse fill="none" stroke="#000000" cx="199.134" cy="-306" rx="27" ry="18"/>
<text text-anchor="middle" x="199.134" y="-302.3" font-family="FreeSans" font-size="14.00" fill="#000000">Any</text>
</a>
</g>
</g>
<!-- Any&#45;&gt;Mu -->
<g id="edge3" class="edge"><title>Any&#45;&gt;Mu</title>
<path fill="none" stroke="#000000" d="M199.134,-324.303C199.134,-332.017 199.134,-341.288 199.134,-349.888"/>
<polygon fill="#000000" stroke="#000000" points="195.634,-349.896 199.134,-359.896 202.634,-349.896 195.634,-349.896"/>
</g>
<!-- Exception&#45;&gt;Any -->
<g id="edge4" class="edge"><title>Exception&#45;&gt;Any</title>
<path fill="none" stroke="#000000" d="M199.134,-252.303C199.134,-260.017 199.134,-269.288 199.134,-277.888"/>
<polygon fill="#000000" stroke="#000000" points="195.634,-277.896 199.134,-287.896 202.634,-277.896 195.634,-277.896"/>
</g>
<!-- X::Comp -->
<g id="node5" class="node"><title>X::Comp</title>
<g id="a_node5"><a xlink:href="/type/X::Comp" xlink:title="X::Comp">
<ellipse fill="none" stroke="#6666ff" cx="296.134" cy="-162" rx="44.6926" ry="18"/>
<text text-anchor="middle" x="296.134" y="-158.3" font-family="FreeSans" font-size="14.00" fill="#6666ff">X::Comp</text>
</a>
</g>
</g>
<!-- X::Comp&#45;&gt;Exception -->
<g id="edge5" class="edge"><title>X::Comp&#45;&gt;Exception</title>
<path fill="none" stroke="#000000" d="M275.087,-178.189C261.579,-187.937 243.835,-200.742 228.895,-211.523"/>
<polygon fill="#000000" stroke="#000000" points="226.537,-208.909 220.476,-217.599 230.633,-214.585 226.537,-208.909"/>
</g>
<!-- X::Syntax&#45;&gt;Exception -->
<g id="edge6" class="edge"><title>X::Syntax&#45;&gt;Exception</title>
<path fill="none" stroke="#000000" d="M253.779,-107.847C243.105,-132.294 223.223,-177.829 210.611,-206.714"/>
<polygon fill="#000000" stroke="#000000" points="207.274,-205.61 206.48,-216.175 213.69,-208.411 207.274,-205.61"/>
</g>
<!-- X::Syntax&#45;&gt;X::Comp -->
<g id="edge8" class="edge"><title>X::Syntax&#45;&gt;X::Comp</title>
<path fill="none" stroke="#6666ff" d="M269.607,-107.945C273.691,-116.113 278.679,-126.088 283.222,-135.176"/>
<polygon fill="#6666ff" stroke="#6666ff" points="280.137,-136.832 287.74,-144.211 286.398,-133.701 280.137,-136.832"/>
</g>
</g>
</svg>
