<?xml version="1.0" encoding="UTF-8" standalone="no"?>
<!DOCTYPE svg PUBLIC "-//W3C//DTD SVG 1.1//EN"
 "http://www.w3.org/Graphics/SVG/1.1/DTD/svg11.dtd">
<!-- Generated by graphviz version 2.38.0 (20140413.2041)
 -->
<!-- Title: perl6&#45;type&#45;graph Pages: 1 -->
<svg width="835pt" height="332pt"
 viewBox="0.00 0.00 834.99 332.00" xmlns="http://www.w3.org/2000/svg" xmlns:xlink="http://www.w3.org/1999/xlink">
<g id="graph0" class="graph" transform="scale(1 1) rotate(0) translate(4 328)">
<title>perl6&#45;type&#45;graph</title>
<polygon fill="white" stroke="none" points="-4,4 -4,-328 830.992,-328 830.992,4 -4,4"/>
<!-- X::Control -->
<g id="node1" class="node"><title>X::Control</title>
<g id="a_node1"><a xlink:href="/type/X::Control" xlink:title="X::Control">
<ellipse fill="none" stroke="#6666ff" cx="386.146" cy="-90" rx="50.0912" ry="18"/>
<text text-anchor="middle" x="386.146" y="-86.3" font-family="FreeSans" font-size="14.00" fill="#6666ff">X::Control</text>
</a>
</g>
</g>
<!-- Exception -->
<g id="node4" class="node"><title>Exception</title>
<g id="a_node4"><a xlink:href="/type/Exception" xlink:title="Exception">
<ellipse fill="none" stroke="#000000" cx="425.146" cy="-162" rx="49.2915" ry="18"/>
<text text-anchor="middle" x="425.146" y="-158.3" font-family="FreeSans" font-size="14.00" fill="#000000">Exception</text>
</a>
</g>
</g>
<!-- X::Control&#45;&gt;Exception -->
<g id="edge1" class="edge"><title>X::Control&#45;&gt;Exception</title>
<path fill="none" stroke="#000000" d="M395.587,-107.945C400.186,-116.199 405.812,-126.299 410.918,-135.462"/>
<polygon fill="#000000" stroke="#000000" points="407.867,-137.179 415.792,-144.211 413.982,-133.772 407.867,-137.179"/>
</g>
<!-- Mu -->
<g id="node2" class="node"><title>Mu</title>
<g id="a_node2"><a xlink:href="/type/Mu" xlink:title="Mu">
<ellipse fill="none" stroke="#000000" cx="425.146" cy="-306" rx="27" ry="18"/>
<text text-anchor="middle" x="425.146" y="-302.3" font-family="FreeSans" font-size="14.00" fill="#000000">Mu</text>
</a>
</g>
</g>
<!-- Any -->
<g id="node3" class="node"><title>Any</title>
<g id="a_node3"><a xlink:href="/type/Any" xlink:title="Any">
<ellipse fill="none" stroke="#000000" cx="425.146" cy="-234" rx="27" ry="18"/>
<text text-anchor="middle" x="425.146" y="-230.3" font-family="FreeSans" font-size="14.00" fill="#000000">Any</text>
</a>
</g>
</g>
<!-- Any&#45;&gt;Mu -->
<g id="edge2" class="edge"><title>Any&#45;&gt;Mu</title>
<path fill="none" stroke="#000000" d="M425.146,-252.303C425.146,-260.017 425.146,-269.288 425.146,-277.888"/>
<polygon fill="#000000" stroke="#000000" points="421.646,-277.896 425.146,-287.896 428.646,-277.896 421.646,-277.896"/>
</g>
<!-- Exception&#45;&gt;Any -->
<g id="edge3" class="edge"><title>Exception&#45;&gt;Any</title>
<path fill="none" stroke="#000000" d="M425.146,-180.303C425.146,-188.017 425.146,-197.288 425.146,-205.888"/>
<polygon fill="#000000" stroke="#000000" points="421.646,-205.896 425.146,-215.896 428.646,-205.896 421.646,-205.896"/>
</g>
<!-- CX::Next -->
<g id="node5" class="node"><title>CX::Next</title>
<g id="a_node5"><a xlink:href="/type/CX::Next" xlink:title="CX::Next">
<ellipse fill="none" stroke="#000000" cx="46.1459" cy="-18" rx="46.2923" ry="18"/>
<text text-anchor="middle" x="46.1459" y="-14.3" font-family="FreeSans" font-size="14.00" fill="#000000">CX::Next</text>
</a>
</g>
</g>
<!-- CX::Next&#45;&gt;X::Control -->
<g id="edge11" class="edge"><title>CX::Next&#45;&gt;X::Control</title>
<path fill="none" stroke="#6666ff" d="M81.2896,-29.8626C92.0688,-33.1943 101.146,-36 101.146,-36 101.146,-36 250.421,-63.7599 332.904,-79.0989"/>
<polygon fill="#6666ff" stroke="#6666ff" points="332.389,-82.5631 342.861,-80.9504 333.669,-75.6811 332.389,-82.5631"/>
</g>
<!-- CX::Next&#45;&gt;Exception -->
<g id="edge4" class="edge"><title>CX::Next&#45;&gt;Exception</title>
<path fill="none" stroke="#000000" d="M75.5184,-31.9414C131.543,-56.6253 248.146,-108 248.146,-108 248.146,-108 325.806,-131.254 378.244,-146.956"/>
<polygon fill="#000000" stroke="#000000" points="377.457,-150.374 388.041,-149.889 379.465,-143.668 377.457,-150.374"/>
</g>
<!-- CX::Redo -->
<g id="node6" class="node"><title>CX::Redo</title>
<g id="a_node6"><a xlink:href="/type/CX::Redo" xlink:title="CX::Redo">
<ellipse fill="none" stroke="#000000" cx="159.146" cy="-18" rx="48.9926" ry="18"/>
<text text-anchor="middle" x="159.146" y="-14.3" font-family="FreeSans" font-size="14.00" fill="#000000">CX::Redo</text>
</a>
</g>
</g>
<!-- CX::Redo&#45;&gt;X::Control -->
<g id="edge12" class="edge"><title>CX::Redo&#45;&gt;X::Control</title>
<path fill="none" stroke="#6666ff" d="M195.366,-30.1691C234.5,-42.2371 296.979,-61.5035 339.699,-74.6772"/>
<polygon fill="#6666ff" stroke="#6666ff" points="338.715,-78.0362 349.302,-77.6385 340.778,-71.3471 338.715,-78.0362"/>
</g>
<!-- CX::Redo&#45;&gt;Exception -->
<g id="edge5" class="edge"><title>CX::Redo&#45;&gt;Exception</title>
<path fill="none" stroke="#000000" d="M183.75,-33.6965C226.07,-58.975 308.146,-108 308.146,-108 308.146,-108 352.018,-127.874 386.032,-143.282"/>
<polygon fill="#000000" stroke="#000000" points="384.766,-146.551 395.319,-147.489 387.654,-140.174 384.766,-146.551"/>
</g>
<!-- CX::Succeed -->
<g id="node7" class="node"><title>CX::Succeed</title>
<g id="a_node7"><a xlink:href="/type/CX::Succeed" xlink:title="CX::Succeed">
<ellipse fill="none" stroke="#000000" cx="287.146" cy="-18" rx="61.99" ry="18"/>
<text text-anchor="middle" x="287.146" y="-14.3" font-family="FreeSans" font-size="14.00" fill="#000000">CX::Succeed</text>
</a>
</g>
</g>
<!-- CX::Succeed&#45;&gt;X::Control -->
<g id="edge13" class="edge"><title>CX::Succeed&#45;&gt;X::Control</title>
<path fill="none" stroke="#6666ff" d="M309.611,-34.8841C323.345,-44.5954 341.085,-57.139 356.028,-67.7042"/>
<polygon fill="#6666ff" stroke="#6666ff" points="354.265,-70.7443 364.451,-73.6598 358.306,-65.0287 354.265,-70.7443"/>
</g>
<!-- CX::Succeed&#45;&gt;Exception -->
<g id="edge6" class="edge"><title>CX::Succeed&#45;&gt;Exception</title>
<path fill="none" stroke="#000000" d="M294.858,-36.1601C306.482,-62.0225 327.146,-108 327.146,-108 327.146,-108 361.715,-126.696 389.791,-141.879"/>
<polygon fill="#000000" stroke="#000000" points="388.165,-144.979 398.626,-146.657 391.495,-138.822 388.165,-144.979"/>
</g>
<!-- CX::Take -->
<g id="node8" class="node"><title>CX::Take</title>
<g id="a_node8"><a xlink:href="/type/CX::Take" xlink:title="CX::Take">
<ellipse fill="none" stroke="#000000" cx="415.146" cy="-18" rx="48.1917" ry="18"/>
<text text-anchor="middle" x="415.146" y="-14.3" font-family="FreeSans" font-size="14.00" fill="#000000">CX::Take</text>
</a>
</g>
</g>
<!-- CX::Take&#45;&gt;X::Control -->
<g id="edge14" class="edge"><title>CX::Take&#45;&gt;X::Control</title>
<path fill="none" stroke="#6666ff" d="M408.126,-35.945C404.862,-43.8238 400.901,-53.3835 397.246,-62.206"/>
<polygon fill="#6666ff" stroke="#6666ff" points="393.897,-61.1465 393.303,-71.7247 400.364,-63.8257 393.897,-61.1465"/>
</g>
<!-- CX::Take&#45;&gt;Exception -->
<g id="edge7" class="edge"><title>CX::Take&#45;&gt;Exception</title>
<path fill="none" stroke="#000000" d="M424.638,-35.7695C433.427,-51.2969 445.146,-72 445.146,-72 445.146,-72 445.146,-108 445.146,-108 445.146,-108 440.15,-121.239 435.152,-134.483"/>
<polygon fill="#000000" stroke="#000000" points="431.84,-133.347 431.584,-143.939 438.389,-135.818 431.84,-133.347"/>
</g>
<!-- CX::Proceed -->
<g id="node9" class="node"><title>CX::Proceed</title>
<g id="a_node9"><a xlink:href="/type/CX::Proceed" xlink:title="CX::Proceed">
<ellipse fill="none" stroke="#000000" cx="542.146" cy="-18" rx="60.3893" ry="18"/>
<text text-anchor="middle" x="542.146" y="-14.3" font-family="FreeSans" font-size="14.00" fill="#000000">CX::Proceed</text>
</a>
</g>
</g>
<!-- CX::Proceed&#45;&gt;X::Control -->
<g id="edge15" class="edge"><title>CX::Proceed&#45;&gt;X::Control</title>
<path fill="none" stroke="#6666ff" d="M510.201,-33.3345C485.669,-44.3423 451.668,-59.599 425.465,-71.3568"/>
<polygon fill="#6666ff" stroke="#6666ff" points="423.887,-68.2287 416.196,-75.5159 426.753,-74.6152 423.887,-68.2287"/>
</g>
<!-- CX::Proceed&#45;&gt;Exception -->
<g id="edge8" class="edge"><title>CX::Proceed&#45;&gt;Exception</title>
<path fill="none" stroke="#000000" d="M528.496,-35.5671C507.976,-60.4707 469.059,-107.703 445.277,-136.567"/>
<polygon fill="#000000" stroke="#000000" points="442.367,-134.595 438.709,-144.538 447.77,-139.046 442.367,-134.595"/>
</g>
<!-- CX::Warn -->
<g id="node10" class="node"><title>CX::Warn</title>
<g id="a_node10"><a xlink:href="/type/CX::Warn" xlink:title="CX::Warn">
<ellipse fill="none" stroke="#000000" cx="670.146" cy="-18" rx="49.2915" ry="18"/>
<text text-anchor="middle" x="670.146" y="-14.3" font-family="FreeSans" font-size="14.00" fill="#000000">CX::Warn</text>
</a>
</g>
</g>
<!-- CX::Warn&#45;&gt;X::Control -->
<g id="edge16" class="edge"><title>CX::Warn&#45;&gt;X::Control</title>
<path fill="none" stroke="#6666ff" d="M632.446,-29.8626C620.883,-33.1943 611.146,-36 611.146,-36 611.146,-36 503.107,-61.4491 436.76,-77.0776"/>
<polygon fill="#6666ff" stroke="#6666ff" points="435.823,-73.7025 426.892,-79.4021 437.428,-80.516 435.823,-73.7025"/>
</g>
<!-- CX::Warn&#45;&gt;Exception -->
<g id="edge9" class="edge"><title>CX::Warn&#45;&gt;Exception</title>
<path fill="none" stroke="#000000" d="M644.849,-33.6617C600.537,-59.3446 508.865,-112.477 459.09,-141.326"/>
<polygon fill="#000000" stroke="#000000" points="457.202,-138.375 450.305,-146.418 460.712,-144.432 457.202,-138.375"/>
</g>
<!-- CX::Last -->
<g id="node11" class="node"><title>CX::Last</title>
<g id="a_node11"><a xlink:href="/type/CX::Last" xlink:title="CX::Last">
<ellipse fill="none" stroke="#000000" cx="782.146" cy="-18" rx="44.6926" ry="18"/>
<text text-anchor="middle" x="782.146" y="-14.3" font-family="FreeSans" font-size="14.00" fill="#000000">CX::Last</text>
</a>
</g>
</g>
<!-- CX::Last&#45;&gt;X::Control -->
<g id="edge17" class="edge"><title>CX::Last&#45;&gt;X::Control</title>
<path fill="none" stroke="#6666ff" d="M747.947,-29.7664C737.23,-33.1401 728.146,-36 728.146,-36 728.146,-36 537.788,-65.5 441.108,-80.4825"/>
<polygon fill="#6666ff" stroke="#6666ff" points="440.554,-77.0264 431.208,-82.0167 441.626,-83.9439 440.554,-77.0264"/>
</g>
<!-- CX::Last&#45;&gt;Exception -->
<g id="edge10" class="edge"><title>CX::Last&#45;&gt;Exception</title>
<path fill="none" stroke="#000000" d="M751.556,-31.3751C691.106,-55.8298 562.146,-108 562.146,-108 562.146,-108 507.589,-129.106 467.332,-144.68"/>
<polygon fill="#000000" stroke="#000000" points="466.024,-141.433 457.961,-148.305 468.55,-147.961 466.024,-141.433"/>
</g>
</g>
</svg>
