<?xml version="1.0" encoding="UTF-8" standalone="no"?>
<!DOCTYPE svg PUBLIC "-//W3C//DTD SVG 1.1//EN"
 "http://www.w3.org/Graphics/SVG/1.1/DTD/svg11.dtd">
<!-- Generated by graphviz version 2.38.0 (20140413.2041)
 -->
<!-- Title: perl6&#45;type&#45;graph Pages: 1 -->
<svg width="235pt" height="332pt"
 viewBox="0.00 0.00 235.48 332.00" xmlns="http://www.w3.org/2000/svg" xmlns:xlink="http://www.w3.org/1999/xlink">
<g id="graph0" class="graph" transform="scale(1 1) rotate(0) translate(4 328)">
<title>perl6&#45;type&#45;graph</title>
<polygon fill="white" stroke="none" points="-4,4 -4,-328 231.48,-328 231.48,4 -4,4"/>
<!-- X::Parameter::Placeholder -->
<g id="node1" class="node"><title>X::Parameter::Placeholder</title>
<g id="a_node1"><a xlink:href="/type/X::Parameter::Placeholder" xlink:title="X::Parameter::Placeholder">
<ellipse fill="none" stroke="#000000" cx="113.74" cy="-18" rx="113.98" ry="18"/>
<text text-anchor="middle" x="113.74" y="-14.3" font-family="FreeSans" font-size="14.00" fill="#000000">X::Parameter::Placeholder</text>
</a>
</g>
</g>
<!-- Exception -->
<g id="node4" class="node"><title>Exception</title>
<g id="a_node4"><a xlink:href="/type/Exception" xlink:title="Exception">
<ellipse fill="none" stroke="#000000" cx="113.74" cy="-162" rx="49.2915" ry="18"/>
<text text-anchor="middle" x="113.74" y="-158.3" font-family="FreeSans" font-size="14.00" fill="#000000">Exception</text>
</a>
</g>
</g>
<!-- X::Parameter::Placeholder&#45;&gt;Exception -->
<g id="edge1" class="edge"><title>X::Parameter::Placeholder&#45;&gt;Exception</title>
<path fill="none" stroke="#000000" d="M108.267,-36.0613C103.298,-51.5549 96.7399,-72 96.7399,-72 96.7399,-72 96.7399,-108 96.7399,-108 96.7399,-108 100.904,-120.983 105.111,-134.097"/>
<polygon fill="#000000" stroke="#000000" points="101.88,-135.486 108.267,-143.939 108.546,-133.348 101.88,-135.486"/>
</g>
<!-- X::Comp -->
<g id="node5" class="node"><title>X::Comp</title>
<g id="a_node5"><a xlink:href="/type/X::Comp" xlink:title="X::Comp">
<ellipse fill="none" stroke="#6666ff" cx="150.74" cy="-90" rx="44.6926" ry="18"/>
<text text-anchor="middle" x="150.74" y="-86.3" font-family="FreeSans" font-size="14.00" fill="#6666ff">X::Comp</text>
</a>
</g>
</g>
<!-- X::Parameter::Placeholder&#45;&gt;X::Comp -->
<g id="edge5" class="edge"><title>X::Parameter::Placeholder&#45;&gt;X::Comp</title>
<path fill="none" stroke="#6666ff" d="M122.697,-35.945C127.014,-44.1134 132.287,-54.0884 137.09,-63.1756"/>
<polygon fill="#6666ff" stroke="#6666ff" points="134.098,-65.0056 141.866,-72.211 140.287,-61.7344 134.098,-65.0056"/>
</g>
<!-- Mu -->
<g id="node2" class="node"><title>Mu</title>
<g id="a_node2"><a xlink:href="/type/Mu" xlink:title="Mu">
<ellipse fill="none" stroke="#000000" cx="113.74" cy="-306" rx="27" ry="18"/>
<text text-anchor="middle" x="113.74" y="-302.3" font-family="FreeSans" font-size="14.00" fill="#000000">Mu</text>
</a>
</g>
</g>
<!-- Any -->
<g id="node3" class="node"><title>Any</title>
<g id="a_node3"><a xlink:href="/type/Any" xlink:title="Any">
<ellipse fill="none" stroke="#000000" cx="113.74" cy="-234" rx="27" ry="18"/>
<text text-anchor="middle" x="113.74" y="-230.3" font-family="FreeSans" font-size="14.00" fill="#000000">Any</text>
</a>
</g>
</g>
<!-- Any&#45;&gt;Mu -->
<g id="edge2" class="edge"><title>Any&#45;&gt;Mu</title>
<path fill="none" stroke="#000000" d="M113.74,-252.303C113.74,-260.017 113.74,-269.288 113.74,-277.888"/>
<polygon fill="#000000" stroke="#000000" points="110.24,-277.896 113.74,-287.896 117.24,-277.896 110.24,-277.896"/>
</g>
<!-- Exception&#45;&gt;Any -->
<g id="edge3" class="edge"><title>Exception&#45;&gt;Any</title>
<path fill="none" stroke="#000000" d="M113.74,-180.303C113.74,-188.017 113.74,-197.288 113.74,-205.888"/>
<polygon fill="#000000" stroke="#000000" points="110.24,-205.896 113.74,-215.896 117.24,-205.896 110.24,-205.896"/>
</g>
<!-- X::Comp&#45;&gt;Exception -->
<g id="edge4" class="edge"><title>X::Comp&#45;&gt;Exception</title>
<path fill="none" stroke="#000000" d="M141.783,-107.945C137.466,-116.113 132.193,-126.088 127.39,-135.176"/>
<polygon fill="#000000" stroke="#000000" points="124.193,-133.734 122.614,-144.211 130.382,-137.006 124.193,-133.734"/>
</g>
</g>
</svg>
