<?xml version="1.0" encoding="UTF-8" standalone="no"?>
<!DOCTYPE svg PUBLIC "-//W3C//DTD SVG 1.1//EN"
 "http://www.w3.org/Graphics/SVG/1.1/DTD/svg11.dtd">
<!-- Generated by graphviz version 2.38.0 (20140413.2041)
 -->
<!-- Title: perl6&#45;type&#45;graph Pages: 1 -->
<svg width="194pt" height="332pt"
 viewBox="0.00 0.00 194.44 332.00" xmlns="http://www.w3.org/2000/svg" xmlns:xlink="http://www.w3.org/1999/xlink">
<g id="graph0" class="graph" transform="scale(1 1) rotate(0) translate(4 328)">
<title>perl6&#45;type&#45;graph</title>
<polygon fill="white" stroke="none" points="-4,4 -4,-328 190.441,-328 190.441,4 -4,4"/>
<!-- CX::Redo -->
<g id="node1" class="node"><title>CX::Redo</title>
<g id="a_node1"><a xlink:href="/type/CX::Redo" xlink:title="CX::Redo">
<ellipse fill="none" stroke="#000000" cx="92.3956" cy="-18" rx="48.9926" ry="18"/>
<text text-anchor="middle" x="92.3956" y="-14.3" font-family="FreeSans" font-size="14.00" fill="#000000">CX::Redo</text>
</a>
</g>
</g>
<!-- Exception -->
<g id="node4" class="node"><title>Exception</title>
<g id="a_node4"><a xlink:href="/type/Exception" xlink:title="Exception">
<ellipse fill="none" stroke="#000000" cx="49.3956" cy="-162" rx="49.2915" ry="18"/>
<text text-anchor="middle" x="49.3956" y="-158.3" font-family="FreeSans" font-size="14.00" fill="#000000">Exception</text>
</a>
</g>
</g>
<!-- CX::Redo&#45;&gt;Exception -->
<g id="edge1" class="edge"><title>CX::Redo&#45;&gt;Exception</title>
<path fill="none" stroke="#000000" d="M82.7396,-35.8469C72.8148,-60.0561 58.9259,-104.946 52.1708,-133.867"/>
<polygon fill="#000000" stroke="#000000" points="48.7306,-133.217 50.0254,-143.732 55.5707,-134.704 48.7306,-133.217"/>
</g>
<!-- CX::Redo&#45;&gt;Exception -->
<g id="edge2" class="edge"><title>CX::Redo&#45;&gt;Exception</title>
<path fill="none" stroke="#000000" d="M91.7933,-36.1285C86.9551,-60.675 73.4741,-106.062 62.6933,-134.83"/>
<polygon fill="#000000" stroke="#000000" points="59.3915,-133.664 59.0112,-144.252 65.9113,-136.212 59.3915,-133.664"/>
</g>
<!-- X::Control -->
<g id="node5" class="node"><title>X::Control</title>
<g id="a_node5"><a xlink:href="/type/X::Control" xlink:title="X::Control">
<ellipse fill="none" stroke="#6666ff" cx="136.396" cy="-90" rx="50.0912" ry="18"/>
<text text-anchor="middle" x="136.396" y="-86.3" font-family="FreeSans" font-size="14.00" fill="#6666ff">X::Control</text>
</a>
</g>
</g>
<!-- CX::Redo&#45;&gt;X::Control -->
<g id="edge6" class="edge"><title>CX::Redo&#45;&gt;X::Control</title>
<path fill="none" stroke="#6666ff" d="M97.1686,-35.945C101.636,-44.4952 108.055,-55.025 114.485,-64.4439"/>
<polygon fill="#6666ff" stroke="#6666ff" points="111.696,-66.5619 120.337,-72.693 117.405,-62.5117 111.696,-66.5619"/>
</g>
<!-- CX::Redo&#45;&gt;X::Control -->
<g id="edge7" class="edge"><title>CX::Redo&#45;&gt;X::Control</title>
<path fill="none" stroke="#6666ff" d="M108.401,-35.2354C114.505,-43.4745 121.171,-53.6834 126.591,-62.9843"/>
<polygon fill="#6666ff" stroke="#6666ff" points="123.614,-64.8329 131.529,-71.8761 129.734,-61.4344 123.614,-64.8329"/>
</g>
<!-- Mu -->
<g id="node2" class="node"><title>Mu</title>
<g id="a_node2"><a xlink:href="/type/Mu" xlink:title="Mu">
<ellipse fill="none" stroke="#000000" cx="49.3956" cy="-306" rx="27" ry="18"/>
<text text-anchor="middle" x="49.3956" y="-302.3" font-family="FreeSans" font-size="14.00" fill="#000000">Mu</text>
</a>
</g>
</g>
<!-- Any -->
<g id="node3" class="node"><title>Any</title>
<g id="a_node3"><a xlink:href="/type/Any" xlink:title="Any">
<ellipse fill="none" stroke="#000000" cx="49.3956" cy="-234" rx="27" ry="18"/>
<text text-anchor="middle" x="49.3956" y="-230.3" font-family="FreeSans" font-size="14.00" fill="#000000">Any</text>
</a>
</g>
</g>
<!-- Any&#45;&gt;Mu -->
<g id="edge3" class="edge"><title>Any&#45;&gt;Mu</title>
<path fill="none" stroke="#000000" d="M49.3956,-252.303C49.3956,-260.017 49.3956,-269.288 49.3956,-277.888"/>
<polygon fill="#000000" stroke="#000000" points="45.8957,-277.896 49.3956,-287.896 52.8957,-277.896 45.8957,-277.896"/>
</g>
<!-- Exception&#45;&gt;Any -->
<g id="edge4" class="edge"><title>Exception&#45;&gt;Any</title>
<path fill="none" stroke="#000000" d="M49.3956,-180.303C49.3956,-188.017 49.3956,-197.288 49.3956,-205.888"/>
<polygon fill="#000000" stroke="#000000" points="45.8957,-205.896 49.3956,-215.896 52.8957,-205.896 45.8957,-205.896"/>
</g>
<!-- X::Control&#45;&gt;Exception -->
<g id="edge5" class="edge"><title>X::Control&#45;&gt;Exception</title>
<path fill="none" stroke="#000000" d="M116.654,-106.884C104.892,-116.348 89.7872,-128.501 76.8727,-138.892"/>
<polygon fill="#000000" stroke="#000000" points="74.3566,-136.424 68.7594,-145.42 78.7447,-141.878 74.3566,-136.424"/>
</g>
</g>
</svg>
