<?xml version="1.0" encoding="UTF-8" standalone="no"?>
<!DOCTYPE svg PUBLIC "-//W3C//DTD SVG 1.1//EN"
 "http://www.w3.org/Graphics/SVG/1.1/DTD/svg11.dtd">
<!-- Generated by graphviz version 2.38.0 (20140413.2041)
 -->
<!-- Title: perl6&#45;type&#45;graph Pages: 1 -->
<svg width="217pt" height="404pt"
 viewBox="0.00 0.00 216.84 404.00" xmlns="http://www.w3.org/2000/svg" xmlns:xlink="http://www.w3.org/1999/xlink">
<g id="graph0" class="graph" transform="scale(1 1) rotate(0) translate(4 400)">
<title>perl6&#45;type&#45;graph</title>
<polygon fill="white" stroke="none" points="-4,4 -4,-400 212.838,-400 212.838,4 -4,4"/>
<!-- X::Syntax::Reserved -->
<g id="node1" class="node"><title>X::Syntax::Reserved</title>
<g id="a_node1"><a xlink:href="/type/X::Syntax::Reserved" xlink:title="X::Syntax::Reserved">
<ellipse fill="none" stroke="#000000" cx="90.9919" cy="-18" rx="90.9839" ry="18"/>
<text text-anchor="middle" x="90.9919" y="-14.3" font-family="FreeSans" font-size="14.00" fill="#000000">X::Syntax::Reserved</text>
</a>
</g>
</g>
<!-- Exception -->
<g id="node4" class="node"><title>Exception</title>
<g id="a_node4"><a xlink:href="/type/Exception" xlink:title="Exception">
<ellipse fill="none" stroke="#000000" cx="90.9919" cy="-234" rx="49.2915" ry="18"/>
<text text-anchor="middle" x="90.9919" y="-230.3" font-family="FreeSans" font-size="14.00" fill="#000000">Exception</text>
</a>
</g>
</g>
<!-- X::Syntax::Reserved&#45;&gt;Exception -->
<g id="edge1" class="edge"><title>X::Syntax::Reserved&#45;&gt;Exception</title>
<path fill="none" stroke="#000000" d="M84.8756,-36.0613C79.3213,-51.5549 71.9919,-72 71.9919,-72 71.9919,-72 71.9919,-108 71.9919,-108 71.9919,-108 81.2651,-169.008 86.8548,-205.782"/>
<polygon fill="#000000" stroke="#000000" points="83.4268,-206.521 88.3899,-215.881 90.3473,-205.469 83.4268,-206.521"/>
</g>
<!-- X::Syntax -->
<g id="node6" class="node"><title>X::Syntax</title>
<g id="a_node6"><a xlink:href="/type/X::Syntax" xlink:title="X::Syntax">
<ellipse fill="none" stroke="#6666ff" cx="128.992" cy="-90" rx="48.1917" ry="18"/>
<text text-anchor="middle" x="128.992" y="-86.3" font-family="FreeSans" font-size="14.00" fill="#6666ff">X::Syntax</text>
</a>
</g>
</g>
<!-- X::Syntax::Reserved&#45;&gt;X::Syntax -->
<g id="edge6" class="edge"><title>X::Syntax::Reserved&#45;&gt;X::Syntax</title>
<path fill="none" stroke="#6666ff" d="M100.191,-35.945C104.625,-44.1134 110.04,-54.0884 114.973,-63.1756"/>
<polygon fill="#6666ff" stroke="#6666ff" points="112.031,-65.0923 119.878,-72.211 118.183,-61.7526 112.031,-65.0923"/>
</g>
<!-- Mu -->
<g id="node2" class="node"><title>Mu</title>
<g id="a_node2"><a xlink:href="/type/Mu" xlink:title="Mu">
<ellipse fill="none" stroke="#000000" cx="90.9919" cy="-378" rx="27" ry="18"/>
<text text-anchor="middle" x="90.9919" y="-374.3" font-family="FreeSans" font-size="14.00" fill="#000000">Mu</text>
</a>
</g>
</g>
<!-- Any -->
<g id="node3" class="node"><title>Any</title>
<g id="a_node3"><a xlink:href="/type/Any" xlink:title="Any">
<ellipse fill="none" stroke="#000000" cx="90.9919" cy="-306" rx="27" ry="18"/>
<text text-anchor="middle" x="90.9919" y="-302.3" font-family="FreeSans" font-size="14.00" fill="#000000">Any</text>
</a>
</g>
</g>
<!-- Any&#45;&gt;Mu -->
<g id="edge2" class="edge"><title>Any&#45;&gt;Mu</title>
<path fill="none" stroke="#000000" d="M90.9919,-324.303C90.9919,-332.017 90.9919,-341.288 90.9919,-349.888"/>
<polygon fill="#000000" stroke="#000000" points="87.492,-349.896 90.9919,-359.896 94.492,-349.896 87.492,-349.896"/>
</g>
<!-- Exception&#45;&gt;Any -->
<g id="edge3" class="edge"><title>Exception&#45;&gt;Any</title>
<path fill="none" stroke="#000000" d="M90.9919,-252.303C90.9919,-260.017 90.9919,-269.288 90.9919,-277.888"/>
<polygon fill="#000000" stroke="#000000" points="87.492,-277.896 90.9919,-287.896 94.492,-277.896 87.492,-277.896"/>
</g>
<!-- X::Comp -->
<g id="node5" class="node"><title>X::Comp</title>
<g id="a_node5"><a xlink:href="/type/X::Comp" xlink:title="X::Comp">
<ellipse fill="none" stroke="#6666ff" cx="163.992" cy="-162" rx="44.6926" ry="18"/>
<text text-anchor="middle" x="163.992" y="-158.3" font-family="FreeSans" font-size="14.00" fill="#6666ff">X::Comp</text>
</a>
</g>
</g>
<!-- X::Comp&#45;&gt;Exception -->
<g id="edge4" class="edge"><title>X::Comp&#45;&gt;Exception</title>
<path fill="none" stroke="#000000" d="M147.427,-178.884C137.881,-188.038 125.711,-199.707 115.118,-209.865"/>
<polygon fill="#000000" stroke="#000000" points="112.539,-207.489 107.744,-216.936 117.384,-212.541 112.539,-207.489"/>
</g>
<!-- X::Syntax&#45;&gt;Exception -->
<g id="edge5" class="edge"><title>X::Syntax&#45;&gt;Exception</title>
<path fill="none" stroke="#000000" d="M122.876,-108.061C117.321,-123.555 109.992,-144 109.992,-144 109.992,-144 102.342,-179.833 96.7506,-206.025"/>
<polygon fill="#000000" stroke="#000000" points="93.3203,-205.33 94.6553,-215.84 100.166,-206.791 93.3203,-205.33"/>
</g>
<!-- X::Syntax&#45;&gt;X::Comp -->
<g id="edge7" class="edge"><title>X::Syntax&#45;&gt;X::Comp</title>
<path fill="none" stroke="#6666ff" d="M137.464,-107.945C141.549,-116.113 146.536,-126.088 151.08,-135.176"/>
<polygon fill="#6666ff" stroke="#6666ff" points="147.995,-136.832 155.597,-144.211 154.256,-133.701 147.995,-136.832"/>
</g>
</g>
</svg>
