<?xml version="1.0" encoding="UTF-8" standalone="no"?>
<!DOCTYPE svg PUBLIC "-//W3C//DTD SVG 1.1//EN"
 "http://www.w3.org/Graphics/SVG/1.1/DTD/svg11.dtd">
<!-- Generated by graphviz version 2.38.0 (20140413.2041)
 -->
<!-- Title: perl6&#45;type&#45;graph Pages: 1 -->
<svg width="1468pt" height="332pt"
 viewBox="0.00 0.00 1468.29 332.00" xmlns="http://www.w3.org/2000/svg" xmlns:xlink="http://www.w3.org/1999/xlink">
<g id="graph0" class="graph" transform="scale(1 1) rotate(0) translate(4 328)">
<title>perl6&#45;type&#45;graph</title>
<polygon fill="white" stroke="none" points="-4,4 -4,-328 1464.29,-328 1464.29,4 -4,4"/>
<!-- Cool -->
<g id="node1" class="node"><title>Cool</title>
<g id="a_node1"><a xlink:href="/type/Cool" xlink:title="Cool">
<ellipse fill="none" stroke="#000000" cx="781.746" cy="-162" rx="28.6953" ry="18"/>
<text text-anchor="middle" x="781.746" y="-158.3" font-family="FreeSans" font-size="14.00" fill="#000000">Cool</text>
</a>
</g>
</g>
<!-- Any -->
<g id="node3" class="node"><title>Any</title>
<g id="a_node3"><a xlink:href="/type/Any" xlink:title="Any">
<ellipse fill="none" stroke="#000000" cx="734.746" cy="-234" rx="27" ry="18"/>
<text text-anchor="middle" x="734.746" y="-230.3" font-family="FreeSans" font-size="14.00" fill="#000000">Any</text>
</a>
</g>
</g>
<!-- Cool&#45;&gt;Any -->
<g id="edge1" class="edge"><title>Cool&#45;&gt;Any</title>
<path fill="none" stroke="#000000" d="M771.081,-178.884C765.192,-187.655 757.751,-198.736 751.139,-208.584"/>
<polygon fill="#000000" stroke="#000000" points="748.037,-206.926 745.368,-217.179 753.849,-210.828 748.037,-206.926"/>
</g>
<!-- Mu -->
<g id="node2" class="node"><title>Mu</title>
<g id="a_node2"><a xlink:href="/type/Mu" xlink:title="Mu">
<ellipse fill="none" stroke="#000000" cx="734.746" cy="-306" rx="27" ry="18"/>
<text text-anchor="middle" x="734.746" y="-302.3" font-family="FreeSans" font-size="14.00" fill="#000000">Mu</text>
</a>
</g>
</g>
<!-- Any&#45;&gt;Mu -->
<g id="edge2" class="edge"><title>Any&#45;&gt;Mu</title>
<path fill="none" stroke="#000000" d="M734.746,-252.303C734.746,-260.017 734.746,-269.288 734.746,-277.888"/>
<polygon fill="#000000" stroke="#000000" points="731.246,-277.896 734.746,-287.896 738.246,-277.896 731.246,-277.896"/>
</g>
<!-- Positional -->
<g id="node4" class="node"><title>Positional</title>
<g id="a_node4"><a xlink:href="/type/Positional" xlink:title="Positional">
<ellipse fill="none" stroke="#6666ff" cx="48.7457" cy="-162" rx="48.9926" ry="18"/>
<text text-anchor="middle" x="48.7457" y="-158.3" font-family="FreeSans" font-size="14.00" fill="#6666ff">Positional</text>
</a>
</g>
</g>
<!-- Iterable -->
<g id="node5" class="node"><title>Iterable</title>
<g id="a_node5"><a xlink:href="/type/Iterable" xlink:title="Iterable">
<ellipse fill="none" stroke="#6666ff" cx="155.746" cy="-162" rx="40.0939" ry="18"/>
<text text-anchor="middle" x="155.746" y="-158.3" font-family="FreeSans" font-size="14.00" fill="#6666ff">Iterable</text>
</a>
</g>
</g>
<!-- Range -->
<g id="node6" class="node"><title>Range</title>
<g id="a_node6"><a xlink:href="/type/Range" xlink:title="Range">
<ellipse fill="none" stroke="#000000" cx="114.746" cy="-90" rx="36.2938" ry="18"/>
<text text-anchor="middle" x="114.746" y="-86.3" font-family="FreeSans" font-size="14.00" fill="#000000">Range</text>
</a>
</g>
</g>
<!-- Range&#45;&gt;Cool -->
<g id="edge3" class="edge"><title>Range&#45;&gt;Cool</title>
<path fill="none" stroke="#000000" d="M142.733,-101.573C151.884,-105.03 159.746,-108 159.746,-108 159.746,-108 743.746,-144 743.746,-144 743.746,-144 746.177,-145.088 749.809,-146.712"/>
<polygon fill="#000000" stroke="#000000" points="748.644,-150.026 759.202,-150.915 751.503,-143.636 748.644,-150.026"/>
</g>
<!-- Range&#45;&gt;Positional -->
<g id="edge20" class="edge"><title>Range&#45;&gt;Positional</title>
<path fill="none" stroke="#6666ff" d="M100.098,-106.535C91.6246,-115.522 80.7839,-127.02 71.2484,-137.133"/>
<polygon fill="#6666ff" stroke="#6666ff" points="68.5855,-134.856 64.2719,-144.533 73.6786,-139.658 68.5855,-134.856"/>
</g>
<!-- Range&#45;&gt;Iterable -->
<g id="edge21" class="edge"><title>Range&#45;&gt;Iterable</title>
<path fill="none" stroke="#6666ff" d="M124.462,-107.589C129.293,-115.837 135.24,-125.991 140.648,-135.223"/>
<polygon fill="#6666ff" stroke="#6666ff" points="137.74,-137.184 145.814,-144.044 143.78,-133.646 137.74,-137.184"/>
</g>
<!-- Capture -->
<g id="node7" class="node"><title>Capture</title>
<g id="a_node7"><a xlink:href="/type/Capture" xlink:title="Capture">
<ellipse fill="none" stroke="#000000" cx="597.746" cy="-162" rx="42.4939" ry="18"/>
<text text-anchor="middle" x="597.746" y="-158.3" font-family="FreeSans" font-size="14.00" fill="#000000">Capture</text>
</a>
</g>
</g>
<!-- Capture&#45;&gt;Any -->
<g id="edge4" class="edge"><title>Capture&#45;&gt;Any</title>
<path fill="none" stroke="#000000" d="M623.837,-176.331C646.865,-188.098 680.437,-205.251 704.605,-217.6"/>
<polygon fill="#000000" stroke="#000000" points="703.189,-220.807 713.686,-222.24 706.374,-214.573 703.189,-220.807"/>
</g>
<!-- Match -->
<g id="node8" class="node"><title>Match</title>
<g id="a_node8"><a xlink:href="/type/Match" xlink:title="Match">
<ellipse fill="none" stroke="#000000" cx="540.746" cy="-90" rx="35.194" ry="18"/>
<text text-anchor="middle" x="540.746" y="-86.3" font-family="FreeSans" font-size="14.00" fill="#000000">Match</text>
</a>
</g>
</g>
<!-- Match&#45;&gt;Cool -->
<g id="edge6" class="edge"><title>Match&#45;&gt;Cool</title>
<path fill="none" stroke="#000000" d="M567.86,-101.476C576.915,-104.974 584.746,-108 584.746,-108 584.746,-108 743.746,-144 743.746,-144 743.746,-144 746.177,-145.088 749.809,-146.712"/>
<polygon fill="#000000" stroke="#000000" points="748.644,-150.026 759.202,-150.915 751.503,-143.636 748.644,-150.026"/>
</g>
<!-- Match&#45;&gt;Capture -->
<g id="edge5" class="edge"><title>Match&#45;&gt;Capture</title>
<path fill="none" stroke="#000000" d="M553.68,-106.884C560.865,-115.708 569.954,-126.87 578.009,-136.762"/>
<polygon fill="#000000" stroke="#000000" points="575.439,-139.149 584.467,-144.693 580.867,-134.729 575.439,-139.149"/>
</g>
<!-- List -->
<g id="node9" class="node"><title>List</title>
<g id="a_node9"><a xlink:href="/type/List" xlink:title="List">
<ellipse fill="none" stroke="#000000" cx="195.746" cy="-90" rx="27" ry="18"/>
<text text-anchor="middle" x="195.746" y="-86.3" font-family="FreeSans" font-size="14.00" fill="#000000">List</text>
</a>
</g>
</g>
<!-- List&#45;&gt;Cool -->
<g id="edge7" class="edge"><title>List&#45;&gt;Cool</title>
<path fill="none" stroke="#000000" d="M221.058,-96.3789C244.496,-101.359 275.746,-108 275.746,-108 275.746,-108 743.746,-144 743.746,-144 743.746,-144 746.177,-145.088 749.809,-146.712"/>
<polygon fill="#000000" stroke="#000000" points="748.644,-150.026 759.202,-150.915 751.503,-143.636 748.644,-150.026"/>
</g>
<!-- List&#45;&gt;Positional -->
<g id="edge22" class="edge"><title>List&#45;&gt;Positional</title>
<path fill="none" stroke="#6666ff" d="M174.371,-101.179C151.406,-112.114 114.453,-129.711 86.5578,-142.994"/>
<polygon fill="#6666ff" stroke="#6666ff" points="85.0019,-139.859 77.478,-147.318 88.0114,-146.179 85.0019,-139.859"/>
</g>
<!-- List&#45;&gt;Iterable -->
<g id="edge23" class="edge"><title>List&#45;&gt;Iterable</title>
<path fill="none" stroke="#6666ff" d="M186.468,-107.235C181.691,-115.596 175.755,-125.984 170.378,-135.394"/>
<polygon fill="#6666ff" stroke="#6666ff" points="167.173,-133.948 165.25,-144.367 173.251,-137.421 167.173,-133.948"/>
</g>
<!-- Nil -->
<g id="node10" class="node"><title>Nil</title>
<g id="a_node10"><a xlink:href="/type/Nil" xlink:title="Nil">
<ellipse fill="none" stroke="#000000" cx="730.746" cy="-90" rx="27" ry="18"/>
<text text-anchor="middle" x="730.746" y="-86.3" font-family="FreeSans" font-size="14.00" fill="#000000">Nil</text>
</a>
</g>
</g>
<!-- Nil&#45;&gt;Cool -->
<g id="edge8" class="edge"><title>Nil&#45;&gt;Cool</title>
<path fill="none" stroke="#000000" d="M742.064,-106.535C748.51,-115.383 756.729,-126.663 764.013,-136.661"/>
<polygon fill="#000000" stroke="#000000" points="761.388,-139.001 770.105,-145.023 767.045,-134.879 761.388,-139.001"/>
</g>
<!-- Stringy -->
<g id="node11" class="node"><title>Stringy</title>
<g id="a_node11"><a xlink:href="/type/Stringy" xlink:title="Stringy">
<ellipse fill="none" stroke="#6666ff" cx="696.746" cy="-162" rx="38.1938" ry="18"/>
<text text-anchor="middle" x="696.746" y="-158.3" font-family="FreeSans" font-size="14.00" fill="#6666ff">Stringy</text>
</a>
</g>
</g>
<!-- Str -->
<g id="node12" class="node"><title>Str</title>
<g id="a_node12"><a xlink:href="/type/Str" xlink:title="Str">
<ellipse fill="none" stroke="#000000" cx="620.746" cy="-90" rx="27" ry="18"/>
<text text-anchor="middle" x="620.746" y="-86.3" font-family="FreeSans" font-size="14.00" fill="#000000">Str</text>
</a>
</g>
</g>
<!-- Str&#45;&gt;Cool -->
<g id="edge9" class="edge"><title>Str&#45;&gt;Cool</title>
<path fill="none" stroke="#000000" d="M642.736,-100.475C678.115,-115.72 743.746,-144 743.746,-144 743.746,-144 746.177,-145.088 749.809,-146.712"/>
<polygon fill="#000000" stroke="#000000" points="748.644,-150.026 759.202,-150.915 751.503,-143.636 748.644,-150.026"/>
</g>
<!-- Str&#45;&gt;Stringy -->
<g id="edge24" class="edge"><title>Str&#45;&gt;Stringy</title>
<path fill="none" stroke="#6666ff" d="M636.125,-105.166C646.586,-114.8 660.642,-127.747 672.586,-138.747"/>
<polygon fill="#6666ff" stroke="#6666ff" points="670.343,-141.441 680.07,-145.641 675.086,-136.292 670.343,-141.441"/>
</g>
<!-- PositionalBindFailover -->
<g id="node13" class="node"><title>PositionalBindFailover</title>
<g id="a_node13"><a xlink:href="/type/PositionalBindFailover" xlink:title="PositionalBindFailover">
<ellipse fill="none" stroke="#6666ff" cx="311.746" cy="-162" rx="97.4827" ry="18"/>
<text text-anchor="middle" x="311.746" y="-158.3" font-family="FreeSans" font-size="14.00" fill="#6666ff">PositionalBindFailover</text>
</a>
</g>
</g>
<!-- Seq -->
<g id="node14" class="node"><title>Seq</title>
<g id="a_node14"><a xlink:href="/type/Seq" xlink:title="Seq">
<ellipse fill="none" stroke="#000000" cx="311.746" cy="-90" rx="27" ry="18"/>
<text text-anchor="middle" x="311.746" y="-86.3" font-family="FreeSans" font-size="14.00" fill="#000000">Seq</text>
</a>
</g>
</g>
<!-- Seq&#45;&gt;Cool -->
<g id="edge10" class="edge"><title>Seq&#45;&gt;Cool</title>
<path fill="none" stroke="#000000" d="M337.854,-95.0719C370.101,-100.101 420.746,-108 420.746,-108 420.746,-108 743.746,-144 743.746,-144 743.746,-144 746.177,-145.088 749.809,-146.712"/>
<polygon fill="#000000" stroke="#000000" points="748.644,-150.026 759.202,-150.915 751.503,-143.636 748.644,-150.026"/>
</g>
<!-- Seq&#45;&gt;Iterable -->
<g id="edge25" class="edge"><title>Seq&#45;&gt;Iterable</title>
<path fill="none" stroke="#6666ff" d="M290.055,-100.733C264.898,-112.021 223.01,-130.817 192.694,-144.421"/>
<polygon fill="#6666ff" stroke="#6666ff" points="190.984,-141.352 183.293,-148.639 193.85,-147.738 190.984,-141.352"/>
</g>
<!-- Seq&#45;&gt;PositionalBindFailover -->
<g id="edge26" class="edge"><title>Seq&#45;&gt;PositionalBindFailover</title>
<path fill="none" stroke="#6666ff" d="M311.746,-108.303C311.746,-116.017 311.746,-125.288 311.746,-133.888"/>
<polygon fill="#6666ff" stroke="#6666ff" points="308.246,-133.896 311.746,-143.896 315.246,-133.896 308.246,-133.896"/>
</g>
<!-- Numeric -->
<g id="node15" class="node"><title>Numeric</title>
<g id="a_node15"><a xlink:href="/type/Numeric" xlink:title="Numeric">
<ellipse fill="none" stroke="#6666ff" cx="913.746" cy="-234" rx="44.393" ry="18"/>
<text text-anchor="middle" x="913.746" y="-230.3" font-family="FreeSans" font-size="14.00" fill="#6666ff">Numeric</text>
</a>
</g>
</g>
<!-- Complex -->
<g id="node16" class="node"><title>Complex</title>
<g id="a_node16"><a xlink:href="/type/Complex" xlink:title="Complex">
<ellipse fill="none" stroke="#000000" cx="858.746" cy="-90" rx="45.4919" ry="18"/>
<text text-anchor="middle" x="858.746" y="-86.3" font-family="FreeSans" font-size="14.00" fill="#000000">Complex</text>
</a>
</g>
</g>
<!-- Complex&#45;&gt;Cool -->
<g id="edge11" class="edge"><title>Complex&#45;&gt;Cool</title>
<path fill="none" stroke="#000000" d="M841.273,-106.884C830.53,-116.651 816.635,-129.282 804.972,-139.885"/>
<polygon fill="#000000" stroke="#000000" points="802.366,-137.524 797.321,-146.841 807.074,-142.704 802.366,-137.524"/>
</g>
<!-- Complex&#45;&gt;Numeric -->
<g id="edge27" class="edge"><title>Complex&#45;&gt;Numeric</title>
<path fill="none" stroke="#6666ff" d="M865.271,-107.847C874.74,-132.294 892.377,-177.829 903.565,-206.714"/>
<polygon fill="#6666ff" stroke="#6666ff" points="900.353,-208.114 907.229,-216.175 906.881,-205.586 900.353,-208.114"/>
</g>
<!-- Real -->
<g id="node17" class="node"><title>Real</title>
<g id="a_node17"><a xlink:href="/type/Real" xlink:title="Real">
<ellipse fill="none" stroke="#6666ff" cx="1079.75" cy="-162" rx="28.6953" ry="18"/>
<text text-anchor="middle" x="1079.75" y="-158.3" font-family="FreeSans" font-size="14.00" fill="#6666ff">Real</text>
</a>
</g>
</g>
<!-- Real&#45;&gt;Numeric -->
<g id="edge28" class="edge"><title>Real&#45;&gt;Numeric</title>
<path fill="none" stroke="#6666ff" d="M1056.66,-172.733C1029.86,-184.036 985.205,-202.867 952.935,-216.474"/>
<polygon fill="#6666ff" stroke="#6666ff" points="951.206,-213.405 943.351,-220.516 953.926,-219.855 951.206,-213.405"/>
</g>
<!-- Instant -->
<g id="node18" class="node"><title>Instant</title>
<g id="a_node18"><a xlink:href="/type/Instant" xlink:title="Instant">
<ellipse fill="none" stroke="#000000" cx="1030.75" cy="-90" rx="37.0935" ry="18"/>
<text text-anchor="middle" x="1030.75" y="-86.3" font-family="FreeSans" font-size="14.00" fill="#000000">Instant</text>
</a>
</g>
</g>
<!-- Instant&#45;&gt;Cool -->
<g id="edge12" class="edge"><title>Instant&#45;&gt;Cool</title>
<path fill="none" stroke="#000000" d="M1002.14,-101.573C992.782,-105.03 984.746,-108 984.746,-108 984.746,-108 876.13,-136.358 817.798,-151.587"/>
<polygon fill="#000000" stroke="#000000" points="816.66,-148.267 807.869,-154.18 818.429,-155.04 816.66,-148.267"/>
</g>
<!-- Instant&#45;&gt;Real -->
<g id="edge29" class="edge"><title>Instant&#45;&gt;Real</title>
<path fill="none" stroke="#6666ff" d="M1042.11,-107.235C1048.32,-116.107 1056.13,-127.262 1063.02,-137.108"/>
<polygon fill="#6666ff" stroke="#6666ff" points="1060.18,-139.149 1068.78,-145.334 1065.91,-135.135 1060.18,-139.149"/>
</g>
<!-- Rational -->
<g id="node19" class="node"><title>Rational</title>
<g id="a_node19"><a xlink:href="/type/Rational" xlink:title="Rational">
<ellipse fill="none" stroke="#6666ff" cx="1312.75" cy="-90" rx="42.7926" ry="18"/>
<text text-anchor="middle" x="1312.75" y="-86.3" font-family="FreeSans" font-size="14.00" fill="#6666ff">Rational</text>
</a>
</g>
</g>
<!-- Rational&#45;&gt;Real -->
<g id="edge30" class="edge"><title>Rational&#45;&gt;Real</title>
<path fill="none" stroke="#6666ff" d="M1279.81,-101.766C1269.49,-105.14 1260.75,-108 1260.75,-108 1260.75,-108 1167.58,-135.28 1114.93,-150.696"/>
<polygon fill="#6666ff" stroke="#6666ff" points="1113.91,-147.35 1105.29,-153.519 1115.88,-154.068 1113.91,-147.35"/>
</g>
<!-- FatRat -->
<g id="node20" class="node"><title>FatRat</title>
<g id="a_node20"><a xlink:href="/type/FatRat" xlink:title="FatRat">
<ellipse fill="none" stroke="#000000" cx="952.746" cy="-18" rx="37.0935" ry="18"/>
<text text-anchor="middle" x="952.746" y="-14.3" font-family="FreeSans" font-size="14.00" fill="#000000">FatRat</text>
</a>
</g>
</g>
<!-- FatRat&#45;&gt;Cool -->
<g id="edge13" class="edge"><title>FatRat&#45;&gt;Cool</title>
<path fill="none" stroke="#000000" d="M919.281,-25.8745C849.473,-40.215 694.746,-72 694.746,-72 694.746,-72 694.746,-108 694.746,-108 694.746,-108 728.025,-128.274 753.418,-143.743"/>
<polygon fill="#000000" stroke="#000000" points="751.643,-146.76 762.004,-148.973 755.285,-140.782 751.643,-146.76"/>
</g>
<!-- FatRat&#45;&gt;Rational -->
<g id="edge31" class="edge"><title>FatRat&#45;&gt;Rational</title>
<path fill="none" stroke="#6666ff" d="M984.151,-27.8983C998.669,-32.0115 1012.75,-36 1012.75,-36 1012.75,-36 1260.75,-72 1260.75,-72 1260.75,-72 1264.51,-73.2316 1270.02,-75.0319"/>
<polygon fill="#6666ff" stroke="#6666ff" points="1269.22,-78.4529 1279.81,-78.2336 1271.4,-71.7995 1269.22,-78.4529"/>
</g>
<!-- Duration -->
<g id="node21" class="node"><title>Duration</title>
<g id="a_node21"><a xlink:href="/type/Duration" xlink:title="Duration">
<ellipse fill="none" stroke="#000000" cx="1129.75" cy="-90" rx="44.393" ry="18"/>
<text text-anchor="middle" x="1129.75" y="-86.3" font-family="FreeSans" font-size="14.00" fill="#000000">Duration</text>
</a>
</g>
</g>
<!-- Duration&#45;&gt;Cool -->
<g id="edge14" class="edge"><title>Duration&#45;&gt;Cool</title>
<path fill="none" stroke="#000000" d="M1096.18,-101.766C1085.66,-105.14 1076.75,-108 1076.75,-108 1076.75,-108 898.376,-140.046 819.033,-154.301"/>
<polygon fill="#000000" stroke="#000000" points="818.193,-150.896 808.97,-156.109 819.431,-157.785 818.193,-150.896"/>
</g>
<!-- Duration&#45;&gt;Real -->
<g id="edge32" class="edge"><title>Duration&#45;&gt;Real</title>
<path fill="none" stroke="#6666ff" d="M1117.9,-107.589C1111.71,-116.256 1104.01,-127.029 1097.16,-136.625"/>
<polygon fill="#6666ff" stroke="#6666ff" points="1094.13,-134.84 1091.17,-145.012 1099.83,-138.909 1094.13,-134.84"/>
</g>
<!-- Num -->
<g id="node22" class="node"><title>Num</title>
<g id="a_node22"><a xlink:href="/type/Num" xlink:title="Num">
<ellipse fill="none" stroke="#000000" cx="1221.75" cy="-90" rx="29.795" ry="18"/>
<text text-anchor="middle" x="1221.75" y="-86.3" font-family="FreeSans" font-size="14.00" fill="#000000">Num</text>
</a>
</g>
</g>
<!-- Num&#45;&gt;Cool -->
<g id="edge15" class="edge"><title>Num&#45;&gt;Cool</title>
<path fill="none" stroke="#000000" d="M1198.16,-101.281C1189.95,-104.861 1182.75,-108 1182.75,-108 1182.75,-108 919.523,-142.79 819.601,-155.997"/>
<polygon fill="#000000" stroke="#000000" points="819.08,-152.535 809.625,-157.315 819.997,-159.475 819.08,-152.535"/>
</g>
<!-- Num&#45;&gt;Real -->
<g id="edge33" class="edge"><title>Num&#45;&gt;Real</title>
<path fill="none" stroke="#6666ff" d="M1199.25,-102.092C1175.43,-113.834 1137.65,-132.454 1110.96,-145.612"/>
<polygon fill="#6666ff" stroke="#6666ff" points="1109.1,-142.629 1101.67,-150.19 1112.19,-148.908 1109.1,-142.629"/>
</g>
<!-- IO -->
<g id="node23" class="node"><title>IO</title>
<g id="a_node23"><a xlink:href="/type/IO" xlink:title="IO">
<ellipse fill="none" stroke="#6666ff" cx="1416.75" cy="-162" rx="27" ry="18"/>
<text text-anchor="middle" x="1416.75" y="-158.3" font-family="FreeSans" font-size="14.00" fill="#6666ff">IO</text>
</a>
</g>
</g>
<!-- IO::Path -->
<g id="node24" class="node"><title>IO::Path</title>
<g id="a_node24"><a xlink:href="/type/IO::Path" xlink:title="IO::Path">
<ellipse fill="none" stroke="#000000" cx="1416.75" cy="-90" rx="43.5923" ry="18"/>
<text text-anchor="middle" x="1416.75" y="-86.3" font-family="FreeSans" font-size="14.00" fill="#000000">IO::Path</text>
</a>
</g>
</g>
<!-- IO::Path&#45;&gt;Cool -->
<g id="edge16" class="edge"><title>IO::Path&#45;&gt;Cool</title>
<path fill="none" stroke="#000000" d="M1383.52,-101.863C1373.33,-105.194 1364.75,-108 1364.75,-108 1364.75,-108 949.97,-145.707 820.125,-157.511"/>
<polygon fill="#000000" stroke="#000000" points="819.507,-154.053 809.865,-158.444 820.141,-161.024 819.507,-154.053"/>
</g>
<!-- IO::Path&#45;&gt;IO -->
<g id="edge34" class="edge"><title>IO::Path&#45;&gt;IO</title>
<path fill="none" stroke="#6666ff" d="M1416.75,-108.303C1416.75,-116.017 1416.75,-125.288 1416.75,-133.888"/>
<polygon fill="#6666ff" stroke="#6666ff" points="1413.25,-133.896 1416.75,-143.896 1420.25,-133.896 1413.25,-133.896"/>
</g>
<!-- Rat -->
<g id="node25" class="node"><title>Rat</title>
<g id="a_node25"><a xlink:href="/type/Rat" xlink:title="Rat">
<ellipse fill="none" stroke="#000000" cx="1048.75" cy="-18" rx="27" ry="18"/>
<text text-anchor="middle" x="1048.75" y="-14.3" font-family="FreeSans" font-size="14.00" fill="#000000">Rat</text>
</a>
</g>
</g>
<!-- Rat&#45;&gt;Cool -->
<g id="edge17" class="edge"><title>Rat&#45;&gt;Cool</title>
<path fill="none" stroke="#000000" d="M1025.21,-27.0022C1012.24,-31.4115 998.746,-36 998.746,-36 998.746,-36 804.746,-72 804.746,-72 804.746,-72 795.485,-107.833 788.717,-134.025"/>
<polygon fill="#000000" stroke="#000000" points="785.294,-133.282 786.18,-143.84 792.071,-135.034 785.294,-133.282"/>
</g>
<!-- Rat&#45;&gt;Rational -->
<g id="edge35" class="edge"><title>Rat&#45;&gt;Rational</title>
<path fill="none" stroke="#6666ff" d="M1073.9,-25.2879C1130.05,-39.3271 1260.75,-72 1260.75,-72 1260.75,-72 1264.51,-73.2316 1270.02,-75.0319"/>
<polygon fill="#6666ff" stroke="#6666ff" points="1269.22,-78.4529 1279.81,-78.2336 1271.4,-71.7995 1269.22,-78.4529"/>
</g>
<!-- Int -->
<g id="node26" class="node"><title>Int</title>
<g id="a_node26"><a xlink:href="/type/Int" xlink:title="Int">
<ellipse fill="none" stroke="#000000" cx="948.746" cy="-90" rx="27" ry="18"/>
<text text-anchor="middle" x="948.746" y="-86.3" font-family="FreeSans" font-size="14.00" fill="#000000">Int</text>
</a>
</g>
</g>
<!-- Int&#45;&gt;Cool -->
<g id="edge18" class="edge"><title>Int&#45;&gt;Cool</title>
<path fill="none" stroke="#000000" d="M927.388,-101.085C919.636,-104.746 912.746,-108 912.746,-108 912.746,-108 853.341,-132.034 814.538,-147.733"/>
<polygon fill="#000000" stroke="#000000" points="813.123,-144.53 805.166,-151.525 815.749,-151.019 813.123,-144.53"/>
</g>
<!-- Int&#45;&gt;Real -->
<g id="edge36" class="edge"><title>Int&#45;&gt;Real</title>
<path fill="none" stroke="#6666ff" d="M969.214,-101.938C990.782,-113.462 1024.97,-131.733 1049.62,-144.902"/>
<polygon fill="#6666ff" stroke="#6666ff" points="1048.08,-148.05 1058.55,-149.675 1051.38,-141.876 1048.08,-148.05"/>
</g>
<!-- Associative -->
<g id="node27" class="node"><title>Associative</title>
<g id="a_node27"><a xlink:href="/type/Associative" xlink:title="Associative">
<ellipse fill="none" stroke="#6666ff" cx="482.746" cy="-162" rx="55.4913" ry="18"/>
<text text-anchor="middle" x="482.746" y="-158.3" font-family="FreeSans" font-size="14.00" fill="#6666ff">Associative</text>
</a>
</g>
</g>
<!-- Map -->
<g id="node28" class="node"><title>Map</title>
<g id="a_node28"><a xlink:href="/type/Map" xlink:title="Map">
<ellipse fill="none" stroke="#000000" cx="458.746" cy="-90" rx="28.6953" ry="18"/>
<text text-anchor="middle" x="458.746" y="-86.3" font-family="FreeSans" font-size="14.00" fill="#000000">Map</text>
</a>
</g>
</g>
<!-- Map&#45;&gt;Cool -->
<g id="edge19" class="edge"><title>Map&#45;&gt;Cool</title>
<path fill="none" stroke="#000000" d="M481.29,-101.085C489.472,-104.746 496.746,-108 496.746,-108 496.746,-108 743.746,-144 743.746,-144 743.746,-144 746.177,-145.088 749.809,-146.712"/>
<polygon fill="#000000" stroke="#000000" points="748.644,-150.026 759.202,-150.915 751.503,-143.636 748.644,-150.026"/>
</g>
<!-- Map&#45;&gt;Iterable -->
<g id="edge37" class="edge"><title>Map&#45;&gt;Iterable</title>
<path fill="none" stroke="#6666ff" d="M431.67,-96.6719C366.403,-110.344 205.746,-144 205.746,-144 205.746,-144 201.984,-145.279 196.524,-147.135"/>
<polygon fill="#6666ff" stroke="#6666ff" points="195.184,-143.894 186.843,-150.427 197.437,-150.522 195.184,-143.894"/>
</g>
<!-- Map&#45;&gt;Associative -->
<g id="edge38" class="edge"><title>Map&#45;&gt;Associative</title>
<path fill="none" stroke="#6666ff" d="M464.555,-107.945C467.257,-115.824 470.534,-125.383 473.559,-134.206"/>
<polygon fill="#6666ff" stroke="#6666ff" points="470.269,-135.4 476.823,-143.725 476.89,-133.13 470.269,-135.4"/>
</g>
</g>
</svg>
