<?xml version="1.0" encoding="UTF-8" standalone="no"?>
<!DOCTYPE svg PUBLIC "-//W3C//DTD SVG 1.1//EN"
 "http://www.w3.org/Graphics/SVG/1.1/DTD/svg11.dtd">
<!-- Generated by graphviz version 2.38.0 (20140413.2041)
 -->
<!-- Title: perl6&#45;type&#45;graph Pages: 1 -->
<svg width="196pt" height="260pt"
 viewBox="0.00 0.00 196.48 260.00" xmlns="http://www.w3.org/2000/svg" xmlns:xlink="http://www.w3.org/1999/xlink">
<g id="graph0" class="graph" transform="scale(1 1) rotate(0) translate(4 256)">
<title>perl6&#45;type&#45;graph</title>
<polygon fill="white" stroke="none" points="-4,4 -4,-256 192.483,-256 192.483,4 -4,4"/>
<!-- Pod::FormattingCode -->
<g id="node1" class="node"><title>Pod::FormattingCode</title>
<g id="a_node1"><a xlink:href="/type/Pod::FormattingCode" xlink:title="Pod::FormattingCode">
<ellipse fill="none" stroke="#000000" cx="94.2416" cy="-18" rx="94.4839" ry="18"/>
<text text-anchor="middle" x="94.2416" y="-14.3" font-family="FreeSans" font-size="14.00" fill="#000000">Pod::FormattingCode</text>
</a>
</g>
</g>
<!-- Pod::Block -->
<g id="node4" class="node"><title>Pod::Block</title>
<g id="a_node4"><a xlink:href="/type/Pod::Block" xlink:title="Pod::Block">
<ellipse fill="none" stroke="#000000" cx="94.2416" cy="-90" rx="53.0913" ry="18"/>
<text text-anchor="middle" x="94.2416" y="-86.3" font-family="FreeSans" font-size="14.00" fill="#000000">Pod::Block</text>
</a>
</g>
</g>
<!-- Pod::FormattingCode&#45;&gt;Pod::Block -->
<g id="edge1" class="edge"><title>Pod::FormattingCode&#45;&gt;Pod::Block</title>
<path fill="none" stroke="#000000" d="M94.2416,-36.3034C94.2416,-44.0173 94.2416,-53.2875 94.2416,-61.8876"/>
<polygon fill="#000000" stroke="#000000" points="90.7417,-61.8956 94.2416,-71.8957 97.7417,-61.8957 90.7417,-61.8956"/>
</g>
<!-- Mu -->
<g id="node2" class="node"><title>Mu</title>
<g id="a_node2"><a xlink:href="/type/Mu" xlink:title="Mu">
<ellipse fill="none" stroke="#000000" cx="94.2416" cy="-234" rx="27" ry="18"/>
<text text-anchor="middle" x="94.2416" y="-230.3" font-family="FreeSans" font-size="14.00" fill="#000000">Mu</text>
</a>
</g>
</g>
<!-- Any -->
<g id="node3" class="node"><title>Any</title>
<g id="a_node3"><a xlink:href="/type/Any" xlink:title="Any">
<ellipse fill="none" stroke="#000000" cx="94.2416" cy="-162" rx="27" ry="18"/>
<text text-anchor="middle" x="94.2416" y="-158.3" font-family="FreeSans" font-size="14.00" fill="#000000">Any</text>
</a>
</g>
</g>
<!-- Any&#45;&gt;Mu -->
<g id="edge2" class="edge"><title>Any&#45;&gt;Mu</title>
<path fill="none" stroke="#000000" d="M94.2416,-180.303C94.2416,-188.017 94.2416,-197.288 94.2416,-205.888"/>
<polygon fill="#000000" stroke="#000000" points="90.7417,-205.896 94.2416,-215.896 97.7417,-205.896 90.7417,-205.896"/>
</g>
<!-- Pod::Block&#45;&gt;Any -->
<g id="edge3" class="edge"><title>Pod::Block&#45;&gt;Any</title>
<path fill="none" stroke="#000000" d="M94.2416,-108.303C94.2416,-116.017 94.2416,-125.288 94.2416,-133.888"/>
<polygon fill="#000000" stroke="#000000" points="90.7417,-133.896 94.2416,-143.896 97.7417,-133.896 90.7417,-133.896"/>
</g>
</g>
</svg>
