<?xml version="1.0" encoding="UTF-8" standalone="no"?>
<!DOCTYPE svg PUBLIC "-//W3C//DTD SVG 1.1//EN"
 "http://www.w3.org/Graphics/SVG/1.1/DTD/svg11.dtd">
<!-- Generated by graphviz version 2.38.0 (20140413.2041)
 -->
<!-- Title: perl6&#45;type&#45;graph Pages: 1 -->
<svg width="296pt" height="404pt"
 viewBox="0.00 0.00 296.29 404.00" xmlns="http://www.w3.org/2000/svg" xmlns:xlink="http://www.w3.org/1999/xlink">
<g id="graph0" class="graph" transform="scale(1 1) rotate(0) translate(4 400)">
<title>perl6&#45;type&#45;graph</title>
<polygon fill="white" stroke="none" points="-4,4 -4,-400 292.29,-400 292.29,4 -4,4"/>
<!-- Map -->
<g id="node1" class="node"><title>Map</title>
<g id="a_node1"><a xlink:href="/type/Map" xlink:title="Map">
<ellipse fill="none" stroke="#000000" cx="119.044" cy="-162" rx="28.6953" ry="18"/>
<text text-anchor="middle" x="119.044" y="-158.3" font-family="FreeSans" font-size="14.00" fill="#000000">Map</text>
</a>
</g>
</g>
<!-- Cool -->
<g id="node4" class="node"><title>Cool</title>
<g id="a_node4"><a xlink:href="/type/Cool" xlink:title="Cool">
<ellipse fill="none" stroke="#000000" cx="32.0444" cy="-234" rx="28.6953" ry="18"/>
<text text-anchor="middle" x="32.0444" y="-230.3" font-family="FreeSans" font-size="14.00" fill="#000000">Cool</text>
</a>
</g>
</g>
<!-- Map&#45;&gt;Cool -->
<g id="edge1" class="edge"><title>Map&#45;&gt;Cool</title>
<path fill="none" stroke="#000000" d="M101.856,-176.83C89.0232,-187.155 71.2969,-201.418 56.918,-212.987"/>
<polygon fill="#000000" stroke="#000000" points="54.4982,-210.441 48.9011,-219.437 58.8864,-215.895 54.4982,-210.441"/>
</g>
<!-- Iterable -->
<g id="node5" class="node"><title>Iterable</title>
<g id="a_node5"><a xlink:href="/type/Iterable" xlink:title="Iterable">
<ellipse fill="none" stroke="#6666ff" cx="119.044" cy="-234" rx="40.0939" ry="18"/>
<text text-anchor="middle" x="119.044" y="-230.3" font-family="FreeSans" font-size="14.00" fill="#6666ff">Iterable</text>
</a>
</g>
</g>
<!-- Map&#45;&gt;Iterable -->
<g id="edge7" class="edge"><title>Map&#45;&gt;Iterable</title>
<path fill="none" stroke="#6666ff" d="M119.044,-180.303C119.044,-188.017 119.044,-197.288 119.044,-205.888"/>
<polygon fill="#6666ff" stroke="#6666ff" points="115.545,-205.896 119.044,-215.896 122.545,-205.896 115.545,-205.896"/>
</g>
<!-- Associative -->
<g id="node6" class="node"><title>Associative</title>
<g id="a_node6"><a xlink:href="/type/Associative" xlink:title="Associative">
<ellipse fill="none" stroke="#6666ff" cx="233.044" cy="-234" rx="55.4913" ry="18"/>
<text text-anchor="middle" x="233.044" y="-230.3" font-family="FreeSans" font-size="14.00" fill="#6666ff">Associative</text>
</a>
</g>
</g>
<!-- Map&#45;&gt;Associative -->
<g id="edge8" class="edge"><title>Map&#45;&gt;Associative</title>
<path fill="none" stroke="#6666ff" d="M138.902,-175.193C155.608,-185.452 179.855,-200.34 199.557,-212.438"/>
<polygon fill="#6666ff" stroke="#6666ff" points="197.893,-215.523 208.247,-217.773 201.556,-209.558 197.893,-215.523"/>
</g>
<!-- Mu -->
<g id="node2" class="node"><title>Mu</title>
<g id="a_node2"><a xlink:href="/type/Mu" xlink:title="Mu">
<ellipse fill="none" stroke="#000000" cx="32.0444" cy="-378" rx="27" ry="18"/>
<text text-anchor="middle" x="32.0444" y="-374.3" font-family="FreeSans" font-size="14.00" fill="#000000">Mu</text>
</a>
</g>
</g>
<!-- Any -->
<g id="node3" class="node"><title>Any</title>
<g id="a_node3"><a xlink:href="/type/Any" xlink:title="Any">
<ellipse fill="none" stroke="#000000" cx="32.0444" cy="-306" rx="27" ry="18"/>
<text text-anchor="middle" x="32.0444" y="-302.3" font-family="FreeSans" font-size="14.00" fill="#000000">Any</text>
</a>
</g>
</g>
<!-- Any&#45;&gt;Mu -->
<g id="edge2" class="edge"><title>Any&#45;&gt;Mu</title>
<path fill="none" stroke="#000000" d="M32.0444,-324.303C32.0444,-332.017 32.0444,-341.288 32.0444,-349.888"/>
<polygon fill="#000000" stroke="#000000" points="28.5445,-349.896 32.0444,-359.896 35.5445,-349.896 28.5445,-349.896"/>
</g>
<!-- Cool&#45;&gt;Any -->
<g id="edge3" class="edge"><title>Cool&#45;&gt;Any</title>
<path fill="none" stroke="#000000" d="M32.0444,-252.303C32.0444,-260.017 32.0444,-269.288 32.0444,-277.888"/>
<polygon fill="#000000" stroke="#000000" points="28.5445,-277.896 32.0444,-287.896 35.5445,-277.896 28.5445,-277.896"/>
</g>
<!-- PseudoStash -->
<g id="node7" class="node"><title>PseudoStash</title>
<g id="a_node7"><a xlink:href="/type/PseudoStash" xlink:title="PseudoStash">
<ellipse fill="none" stroke="#000000" cx="63.0444" cy="-90" rx="63.0888" ry="18"/>
<text text-anchor="middle" x="63.0444" y="-86.3" font-family="FreeSans" font-size="14.00" fill="#000000">PseudoStash</text>
</a>
</g>
</g>
<!-- PseudoStash&#45;&gt;Map -->
<g id="edge4" class="edge"><title>PseudoStash&#45;&gt;Map</title>
<path fill="none" stroke="#000000" d="M76.6004,-107.945C83.7107,-116.833 92.5321,-127.86 100.288,-137.554"/>
<polygon fill="#000000" stroke="#000000" points="97.7793,-140.021 106.759,-145.644 103.245,-135.648 97.7793,-140.021"/>
</g>
<!-- Hash -->
<g id="node8" class="node"><title>Hash</title>
<g id="a_node8"><a xlink:href="/type/Hash" xlink:title="Hash">
<ellipse fill="none" stroke="#000000" cx="175.044" cy="-90" rx="31.3957" ry="18"/>
<text text-anchor="middle" x="175.044" y="-86.3" font-family="FreeSans" font-size="14.00" fill="#000000">Hash</text>
</a>
</g>
</g>
<!-- Hash&#45;&gt;Map -->
<g id="edge5" class="edge"><title>Hash&#45;&gt;Map</title>
<path fill="none" stroke="#000000" d="M162.616,-106.535C155.294,-115.689 145.888,-127.446 137.69,-137.693"/>
<polygon fill="#000000" stroke="#000000" points="134.952,-135.513 131.438,-145.508 140.418,-139.886 134.952,-135.513"/>
</g>
<!-- Stash -->
<g id="node9" class="node"><title>Stash</title>
<g id="a_node9"><a xlink:href="/type/Stash" xlink:title="Stash">
<ellipse fill="none" stroke="#000000" cx="175.044" cy="-18" rx="33.2948" ry="18"/>
<text text-anchor="middle" x="175.044" y="-14.3" font-family="FreeSans" font-size="14.00" fill="#000000">Stash</text>
</a>
</g>
</g>
<!-- Stash&#45;&gt;Hash -->
<g id="edge6" class="edge"><title>Stash&#45;&gt;Hash</title>
<path fill="none" stroke="#000000" d="M175.044,-36.3034C175.044,-44.0173 175.044,-53.2875 175.044,-61.8876"/>
<polygon fill="#000000" stroke="#000000" points="171.545,-61.8956 175.044,-71.8957 178.545,-61.8957 171.545,-61.8956"/>
</g>
</g>
</svg>
