<?xml version="1.0" encoding="UTF-8" standalone="no"?>
<!DOCTYPE svg PUBLIC "-//W3C//DTD SVG 1.1//EN"
 "http://www.w3.org/Graphics/SVG/1.1/DTD/svg11.dtd">
<!-- Generated by graphviz version 2.38.0 (20140413.2041)
 -->
<!-- Title: perl6&#45;type&#45;graph Pages: 1 -->
<svg width="247pt" height="404pt"
 viewBox="0.00 0.00 247.18 404.00" xmlns="http://www.w3.org/2000/svg" xmlns:xlink="http://www.w3.org/1999/xlink">
<g id="graph0" class="graph" transform="scale(1 1) rotate(0) translate(4 400)">
<title>perl6&#45;type&#45;graph</title>
<polygon fill="white" stroke="none" points="-4,4 -4,-400 243.179,-400 243.179,4 -4,4"/>
<!-- X::Declaration::Scope -->
<g id="node1" class="node"><title>X::Declaration::Scope</title>
<g id="a_node1"><a xlink:href="/type/X::Declaration::Scope" xlink:title="X::Declaration::Scope">
<ellipse fill="none" stroke="#000000" cx="119.589" cy="-90" rx="95.5831" ry="18"/>
<text text-anchor="middle" x="119.589" y="-86.3" font-family="FreeSans" font-size="14.00" fill="#000000">X::Declaration::Scope</text>
</a>
</g>
</g>
<!-- Exception -->
<g id="node4" class="node"><title>Exception</title>
<g id="a_node4"><a xlink:href="/type/Exception" xlink:title="Exception">
<ellipse fill="none" stroke="#000000" cx="119.589" cy="-234" rx="49.2915" ry="18"/>
<text text-anchor="middle" x="119.589" y="-230.3" font-family="FreeSans" font-size="14.00" fill="#000000">Exception</text>
</a>
</g>
</g>
<!-- X::Declaration::Scope&#45;&gt;Exception -->
<g id="edge1" class="edge"><title>X::Declaration::Scope&#45;&gt;Exception</title>
<path fill="none" stroke="#000000" d="M114.117,-108.061C109.147,-123.555 102.589,-144 102.589,-144 102.589,-144 102.589,-180 102.589,-180 102.589,-180 106.754,-192.983 110.96,-206.097"/>
<polygon fill="#000000" stroke="#000000" points="107.73,-207.486 114.117,-215.939 114.395,-205.348 107.73,-207.486"/>
</g>
<!-- X::Comp -->
<g id="node5" class="node"><title>X::Comp</title>
<g id="a_node5"><a xlink:href="/type/X::Comp" xlink:title="X::Comp">
<ellipse fill="none" stroke="#6666ff" cx="156.589" cy="-162" rx="44.6926" ry="18"/>
<text text-anchor="middle" x="156.589" y="-158.3" font-family="FreeSans" font-size="14.00" fill="#6666ff">X::Comp</text>
</a>
</g>
</g>
<!-- X::Declaration::Scope&#45;&gt;X::Comp -->
<g id="edge6" class="edge"><title>X::Declaration::Scope&#45;&gt;X::Comp</title>
<path fill="none" stroke="#6666ff" d="M128.546,-107.945C132.864,-116.113 138.136,-126.088 142.939,-135.176"/>
<polygon fill="#6666ff" stroke="#6666ff" points="139.948,-137.006 147.715,-144.211 146.136,-133.734 139.948,-137.006"/>
</g>
<!-- Mu -->
<g id="node2" class="node"><title>Mu</title>
<g id="a_node2"><a xlink:href="/type/Mu" xlink:title="Mu">
<ellipse fill="none" stroke="#000000" cx="119.589" cy="-378" rx="27" ry="18"/>
<text text-anchor="middle" x="119.589" y="-374.3" font-family="FreeSans" font-size="14.00" fill="#000000">Mu</text>
</a>
</g>
</g>
<!-- Any -->
<g id="node3" class="node"><title>Any</title>
<g id="a_node3"><a xlink:href="/type/Any" xlink:title="Any">
<ellipse fill="none" stroke="#000000" cx="119.589" cy="-306" rx="27" ry="18"/>
<text text-anchor="middle" x="119.589" y="-302.3" font-family="FreeSans" font-size="14.00" fill="#000000">Any</text>
</a>
</g>
</g>
<!-- Any&#45;&gt;Mu -->
<g id="edge2" class="edge"><title>Any&#45;&gt;Mu</title>
<path fill="none" stroke="#000000" d="M119.589,-324.303C119.589,-332.017 119.589,-341.288 119.589,-349.888"/>
<polygon fill="#000000" stroke="#000000" points="116.089,-349.896 119.589,-359.896 123.089,-349.896 116.089,-349.896"/>
</g>
<!-- Exception&#45;&gt;Any -->
<g id="edge3" class="edge"><title>Exception&#45;&gt;Any</title>
<path fill="none" stroke="#000000" d="M119.589,-252.303C119.589,-260.017 119.589,-269.288 119.589,-277.888"/>
<polygon fill="#000000" stroke="#000000" points="116.089,-277.896 119.589,-287.896 123.089,-277.896 116.089,-277.896"/>
</g>
<!-- X::Comp&#45;&gt;Exception -->
<g id="edge4" class="edge"><title>X::Comp&#45;&gt;Exception</title>
<path fill="none" stroke="#000000" d="M147.633,-179.945C143.315,-188.113 138.043,-198.088 133.239,-207.176"/>
<polygon fill="#000000" stroke="#000000" points="130.042,-205.734 128.464,-216.211 136.231,-209.006 130.042,-205.734"/>
</g>
<!-- X::Declaration::Scope::Multi -->
<g id="node6" class="node"><title>X::Declaration::Scope::Multi</title>
<g id="a_node6"><a xlink:href="/type/X::Declaration::Scope::Multi" xlink:title="X::Declaration::Scope::Multi">
<ellipse fill="none" stroke="#000000" cx="119.589" cy="-18" rx="119.679" ry="18"/>
<text text-anchor="middle" x="119.589" y="-14.3" font-family="FreeSans" font-size="14.00" fill="#000000">X::Declaration::Scope::Multi</text>
</a>
</g>
</g>
<!-- X::Declaration::Scope::Multi&#45;&gt;X::Declaration::Scope -->
<g id="edge5" class="edge"><title>X::Declaration::Scope::Multi&#45;&gt;X::Declaration::Scope</title>
<path fill="none" stroke="#000000" d="M119.589,-36.3034C119.589,-44.0173 119.589,-53.2875 119.589,-61.8876"/>
<polygon fill="#000000" stroke="#000000" points="116.089,-61.8956 119.589,-71.8957 123.089,-61.8957 116.089,-61.8956"/>
</g>
</g>
</svg>
