<?xml version="1.0" encoding="UTF-8" standalone="no"?>
<!DOCTYPE svg PUBLIC "-//W3C//DTD SVG 1.1//EN"
 "http://www.w3.org/Graphics/SVG/1.1/DTD/svg11.dtd">
<!-- Generated by graphviz version 2.38.0 (20140413.2041)
 -->
<!-- Title: perl6&#45;type&#45;graph Pages: 1 -->
<svg width="108pt" height="188pt"
 viewBox="0.00 0.00 108.09 188.00" xmlns="http://www.w3.org/2000/svg" xmlns:xlink="http://www.w3.org/1999/xlink">
<g id="graph0" class="graph" transform="scale(1 1) rotate(0) translate(4 184)">
<title>perl6&#45;type&#45;graph</title>
<polygon fill="white" stroke="none" points="-4,4 -4,-184 104.091,-184 104.091,4 -4,4"/>
<!-- Backtrace -->
<g id="node1" class="node"><title>Backtrace</title>
<g id="a_node1"><a xlink:href="/type/Backtrace" xlink:title="Backtrace">
<ellipse fill="none" stroke="#000000" cx="50.0456" cy="-18" rx="50.0912" ry="18"/>
<text text-anchor="middle" x="50.0456" y="-14.3" font-family="FreeSans" font-size="14.00" fill="#000000">Backtrace</text>
</a>
</g>
</g>
<!-- Any -->
<g id="node3" class="node"><title>Any</title>
<g id="a_node3"><a xlink:href="/type/Any" xlink:title="Any">
<ellipse fill="none" stroke="#000000" cx="50.0456" cy="-90" rx="27" ry="18"/>
<text text-anchor="middle" x="50.0456" y="-86.3" font-family="FreeSans" font-size="14.00" fill="#000000">Any</text>
</a>
</g>
</g>
<!-- Backtrace&#45;&gt;Any -->
<g id="edge1" class="edge"><title>Backtrace&#45;&gt;Any</title>
<path fill="none" stroke="#000000" d="M50.0456,-36.3034C50.0456,-44.0173 50.0456,-53.2875 50.0456,-61.8876"/>
<polygon fill="#000000" stroke="#000000" points="46.5457,-61.8956 50.0456,-71.8957 53.5457,-61.8957 46.5457,-61.8956"/>
</g>
<!-- Mu -->
<g id="node2" class="node"><title>Mu</title>
<g id="a_node2"><a xlink:href="/type/Mu" xlink:title="Mu">
<ellipse fill="none" stroke="#000000" cx="50.0456" cy="-162" rx="27" ry="18"/>
<text text-anchor="middle" x="50.0456" y="-158.3" font-family="FreeSans" font-size="14.00" fill="#000000">Mu</text>
</a>
</g>
</g>
<!-- Any&#45;&gt;Mu -->
<g id="edge2" class="edge"><title>Any&#45;&gt;Mu</title>
<path fill="none" stroke="#000000" d="M50.0456,-108.303C50.0456,-116.017 50.0456,-125.288 50.0456,-133.888"/>
<polygon fill="#000000" stroke="#000000" points="46.5457,-133.896 50.0456,-143.896 53.5457,-133.896 46.5457,-133.896"/>
</g>
</g>
</svg>
