<?xml version="1.0" encoding="UTF-8" standalone="no"?>
<!DOCTYPE svg PUBLIC "-//W3C//DTD SVG 1.1//EN"
 "http://www.w3.org/Graphics/SVG/1.1/DTD/svg11.dtd">
<!-- Generated by graphviz version 2.38.0 (20140413.2041)
 -->
<!-- Title: perl6&#45;type&#45;graph Pages: 1 -->
<svg width="470pt" height="404pt"
 viewBox="0.00 0.00 470.44 404.00" xmlns="http://www.w3.org/2000/svg" xmlns:xlink="http://www.w3.org/1999/xlink">
<g id="graph0" class="graph" transform="scale(1 1) rotate(0) translate(4 400)">
<title>perl6&#45;type&#45;graph</title>
<polygon fill="white" stroke="none" points="-4,4 -4,-400 466.441,-400 466.441,4 -4,4"/>
<!-- Str -->
<g id="node1" class="node"><title>Str</title>
<g id="a_node1"><a xlink:href="/type/Str" xlink:title="Str">
<ellipse fill="none" stroke="#000000" cx="318.896" cy="-162" rx="27" ry="18"/>
<text text-anchor="middle" x="318.896" y="-158.3" font-family="FreeSans" font-size="14.00" fill="#000000">Str</text>
</a>
</g>
</g>
<!-- Cool -->
<g id="node4" class="node"><title>Cool</title>
<g id="a_node4"><a xlink:href="/type/Cool" xlink:title="Cool">
<ellipse fill="none" stroke="#000000" cx="239.896" cy="-234" rx="28.6953" ry="18"/>
<text text-anchor="middle" x="239.896" y="-230.3" font-family="FreeSans" font-size="14.00" fill="#000000">Cool</text>
</a>
</g>
</g>
<!-- Str&#45;&gt;Cool -->
<g id="edge1" class="edge"><title>Str&#45;&gt;Cool</title>
<path fill="none" stroke="#000000" d="M303.288,-176.83C291.893,-186.926 276.249,-200.788 263.354,-212.215"/>
<polygon fill="#000000" stroke="#000000" points="260.905,-209.708 255.742,-218.959 265.548,-214.947 260.905,-209.708"/>
</g>
<!-- Stringy -->
<g id="node5" class="node"><title>Stringy</title>
<g id="a_node5"><a xlink:href="/type/Stringy" xlink:title="Stringy">
<ellipse fill="none" stroke="#6666ff" cx="324.896" cy="-234" rx="38.1938" ry="18"/>
<text text-anchor="middle" x="324.896" y="-230.3" font-family="FreeSans" font-size="14.00" fill="#6666ff">Stringy</text>
</a>
</g>
</g>
<!-- Str&#45;&gt;Stringy -->
<g id="edge16" class="edge"><title>Str&#45;&gt;Stringy</title>
<path fill="none" stroke="#6666ff" d="M320.379,-180.303C321.041,-188.017 321.835,-197.288 322.572,-205.888"/>
<polygon fill="#6666ff" stroke="#6666ff" points="319.089,-206.231 323.43,-215.896 326.063,-205.633 319.089,-206.231"/>
</g>
<!-- Mu -->
<g id="node2" class="node"><title>Mu</title>
<g id="a_node2"><a xlink:href="/type/Mu" xlink:title="Mu">
<ellipse fill="none" stroke="#000000" cx="239.896" cy="-378" rx="27" ry="18"/>
<text text-anchor="middle" x="239.896" y="-374.3" font-family="FreeSans" font-size="14.00" fill="#000000">Mu</text>
</a>
</g>
</g>
<!-- Any -->
<g id="node3" class="node"><title>Any</title>
<g id="a_node3"><a xlink:href="/type/Any" xlink:title="Any">
<ellipse fill="none" stroke="#000000" cx="239.896" cy="-306" rx="27" ry="18"/>
<text text-anchor="middle" x="239.896" y="-302.3" font-family="FreeSans" font-size="14.00" fill="#000000">Any</text>
</a>
</g>
</g>
<!-- Any&#45;&gt;Mu -->
<g id="edge2" class="edge"><title>Any&#45;&gt;Mu</title>
<path fill="none" stroke="#000000" d="M239.896,-324.303C239.896,-332.017 239.896,-341.288 239.896,-349.888"/>
<polygon fill="#000000" stroke="#000000" points="236.396,-349.896 239.896,-359.896 243.396,-349.896 236.396,-349.896"/>
</g>
<!-- Cool&#45;&gt;Any -->
<g id="edge3" class="edge"><title>Cool&#45;&gt;Any</title>
<path fill="none" stroke="#000000" d="M239.896,-252.303C239.896,-260.017 239.896,-269.288 239.896,-277.888"/>
<polygon fill="#000000" stroke="#000000" points="236.396,-277.896 239.896,-287.896 243.396,-277.896 236.396,-277.896"/>
</g>
<!-- Numeric -->
<g id="node6" class="node"><title>Numeric</title>
<g id="a_node6"><a xlink:href="/type/Numeric" xlink:title="Numeric">
<ellipse fill="none" stroke="#6666ff" cx="140.896" cy="-306" rx="44.393" ry="18"/>
<text text-anchor="middle" x="140.896" y="-302.3" font-family="FreeSans" font-size="14.00" fill="#6666ff">Numeric</text>
</a>
</g>
</g>
<!-- Complex -->
<g id="node7" class="node"><title>Complex</title>
<g id="a_node7"><a xlink:href="/type/Complex" xlink:title="Complex">
<ellipse fill="none" stroke="#000000" cx="408.896" cy="-162" rx="45.4919" ry="18"/>
<text text-anchor="middle" x="408.896" y="-158.3" font-family="FreeSans" font-size="14.00" fill="#000000">Complex</text>
</a>
</g>
</g>
<!-- Complex&#45;&gt;Cool -->
<g id="edge4" class="edge"><title>Complex&#45;&gt;Cool</title>
<path fill="none" stroke="#000000" d="M378.183,-175.426C339.463,-191.091 277.896,-216 277.896,-216 277.896,-216 275.465,-217.088 271.833,-218.712"/>
<polygon fill="#000000" stroke="#000000" points="270.139,-215.636 262.44,-222.915 272.998,-222.026 270.139,-215.636"/>
</g>
<!-- Complex&#45;&gt;Numeric -->
<g id="edge17" class="edge"><title>Complex&#45;&gt;Numeric</title>
<path fill="none" stroke="#6666ff" d="M401.762,-180.16C391.01,-206.022 371.896,-252 371.896,-252 371.896,-252 203.896,-288 203.896,-288 203.896,-288 196.468,-290.005 186.712,-292.637"/>
<polygon fill="#6666ff" stroke="#6666ff" points="185.556,-289.324 176.813,-295.308 187.379,-296.082 185.556,-289.324"/>
</g>
<!-- ComplexStr -->
<g id="node8" class="node"><title>ComplexStr</title>
<g id="a_node8"><a xlink:href="/type/ComplexStr" xlink:title="ComplexStr">
<ellipse fill="none" stroke="#000000" cx="405.896" cy="-90" rx="56.59" ry="18"/>
<text text-anchor="middle" x="405.896" y="-86.3" font-family="FreeSans" font-size="14.00" fill="#000000">ComplexStr</text>
</a>
</g>
</g>
<!-- ComplexStr&#45;&gt;Str -->
<g id="edge6" class="edge"><title>ComplexStr&#45;&gt;Str</title>
<path fill="none" stroke="#000000" d="M386.155,-106.884C373.533,-117.039 357.063,-130.291 343.58,-141.14"/>
<polygon fill="#000000" stroke="#000000" points="341.229,-138.539 335.632,-147.534 345.617,-143.992 341.229,-138.539"/>
</g>
<!-- ComplexStr&#45;&gt;Complex -->
<g id="edge5" class="edge"><title>ComplexStr&#45;&gt;Complex</title>
<path fill="none" stroke="#000000" d="M406.638,-108.303C406.968,-116.017 407.366,-125.288 407.734,-133.888"/>
<polygon fill="#000000" stroke="#000000" points="404.238,-134.055 408.163,-143.896 411.232,-133.755 404.238,-134.055"/>
</g>
<!-- Real -->
<g id="node9" class="node"><title>Real</title>
<g id="a_node9"><a xlink:href="/type/Real" xlink:title="Real">
<ellipse fill="none" stroke="#6666ff" cx="135.896" cy="-234" rx="28.6953" ry="18"/>
<text text-anchor="middle" x="135.896" y="-230.3" font-family="FreeSans" font-size="14.00" fill="#6666ff">Real</text>
</a>
</g>
</g>
<!-- Real&#45;&gt;Numeric -->
<g id="edge18" class="edge"><title>Real&#45;&gt;Numeric</title>
<path fill="none" stroke="#6666ff" d="M137.132,-252.303C137.683,-260.017 138.345,-269.288 138.96,-277.888"/>
<polygon fill="#6666ff" stroke="#6666ff" points="135.471,-278.17 139.674,-287.896 142.453,-277.672 135.471,-278.17"/>
</g>
<!-- Int -->
<g id="node10" class="node"><title>Int</title>
<g id="a_node10"><a xlink:href="/type/Int" xlink:title="Int">
<ellipse fill="none" stroke="#000000" cx="130.896" cy="-162" rx="27" ry="18"/>
<text text-anchor="middle" x="130.896" y="-158.3" font-family="FreeSans" font-size="14.00" fill="#000000">Int</text>
</a>
</g>
</g>
<!-- Int&#45;&gt;Cool -->
<g id="edge7" class="edge"><title>Int&#45;&gt;Cool</title>
<path fill="none" stroke="#000000" d="M149.883,-175.193C167.02,-186.199 192.456,-202.534 211.921,-215.034"/>
<polygon fill="#000000" stroke="#000000" points="210.088,-218.017 220.393,-220.475 213.87,-212.127 210.088,-218.017"/>
</g>
<!-- Int&#45;&gt;Real -->
<g id="edge19" class="edge"><title>Int&#45;&gt;Real</title>
<path fill="none" stroke="#6666ff" d="M132.132,-180.303C132.683,-188.017 133.345,-197.288 133.96,-205.888"/>
<polygon fill="#6666ff" stroke="#6666ff" points="130.471,-206.17 134.674,-215.896 137.453,-205.672 130.471,-206.17"/>
</g>
<!-- IntStr -->
<g id="node11" class="node"><title>IntStr</title>
<g id="a_node11"><a xlink:href="/type/IntStr" xlink:title="IntStr">
<ellipse fill="none" stroke="#000000" cx="158.896" cy="-90" rx="31.6951" ry="18"/>
<text text-anchor="middle" x="158.896" y="-86.3" font-family="FreeSans" font-size="14.00" fill="#000000">IntStr</text>
</a>
</g>
</g>
<!-- IntStr&#45;&gt;Str -->
<g id="edge9" class="edge"><title>IntStr&#45;&gt;Str</title>
<path fill="none" stroke="#000000" d="M183.546,-101.784C211.467,-114 257.033,-133.935 287.483,-147.257"/>
<polygon fill="#000000" stroke="#000000" points="286.232,-150.53 296.797,-151.331 289.038,-144.117 286.232,-150.53"/>
</g>
<!-- IntStr&#45;&gt;Int -->
<g id="edge8" class="edge"><title>IntStr&#45;&gt;Int</title>
<path fill="none" stroke="#000000" d="M152.118,-107.945C148.885,-116.027 144.945,-125.879 141.341,-134.888"/>
<polygon fill="#000000" stroke="#000000" points="138.076,-133.626 137.612,-144.211 144.575,-136.226 138.076,-133.626"/>
</g>
<!-- Rational -->
<g id="node12" class="node"><title>Rational</title>
<g id="a_node12"><a xlink:href="/type/Rational" xlink:title="Rational">
<ellipse fill="none" stroke="#6666ff" cx="42.8962" cy="-162" rx="42.7926" ry="18"/>
<text text-anchor="middle" x="42.8962" y="-158.3" font-family="FreeSans" font-size="14.00" fill="#6666ff">Rational</text>
</a>
</g>
</g>
<!-- Rational&#45;&gt;Real -->
<g id="edge20" class="edge"><title>Rational&#45;&gt;Real</title>
<path fill="none" stroke="#6666ff" d="M63.0758,-178.189C76.8303,-188.542 95.166,-202.343 109.997,-213.506"/>
<polygon fill="#6666ff" stroke="#6666ff" points="108.169,-216.511 118.263,-219.728 112.379,-210.918 108.169,-216.511"/>
</g>
<!-- Rat -->
<g id="node13" class="node"><title>Rat</title>
<g id="a_node13"><a xlink:href="/type/Rat" xlink:title="Rat">
<ellipse fill="none" stroke="#000000" cx="81.8962" cy="-90" rx="27" ry="18"/>
<text text-anchor="middle" x="81.8962" y="-86.3" font-family="FreeSans" font-size="14.00" fill="#000000">Rat</text>
</a>
</g>
</g>
<!-- Rat&#45;&gt;Cool -->
<g id="edge10" class="edge"><title>Rat&#45;&gt;Cool</title>
<path fill="none" stroke="#000000" d="M103.254,-101.085C111.006,-104.746 117.896,-108 117.896,-108 117.896,-108 244.896,-144 244.896,-144 244.896,-144 244.896,-180 244.896,-180 244.896,-180 243.695,-192.73 242.471,-205.712"/>
<polygon fill="#000000" stroke="#000000" points="238.961,-205.654 241.506,-215.939 245.93,-206.312 238.961,-205.654"/>
</g>
<!-- Rat&#45;&gt;Rational -->
<g id="edge21" class="edge"><title>Rat&#45;&gt;Rational</title>
<path fill="none" stroke="#6666ff" d="M72.8508,-107.235C68.1929,-115.596 62.4051,-125.984 57.1624,-135.394"/>
<polygon fill="#6666ff" stroke="#6666ff" points="53.973,-133.927 52.1634,-144.367 60.0879,-137.334 53.973,-133.927"/>
</g>
<!-- RatStr -->
<g id="node14" class="node"><title>RatStr</title>
<g id="a_node14"><a xlink:href="/type/RatStr" xlink:title="RatStr">
<ellipse fill="none" stroke="#000000" cx="199.896" cy="-18" rx="35.9954" ry="18"/>
<text text-anchor="middle" x="199.896" y="-14.3" font-family="FreeSans" font-size="14.00" fill="#000000">RatStr</text>
</a>
</g>
</g>
<!-- RatStr&#45;&gt;Str -->
<g id="edge12" class="edge"><title>RatStr&#45;&gt;Str</title>
<path fill="none" stroke="#000000" d="M223.595,-31.5603C253.166,-47.2331 299.896,-72 299.896,-72 299.896,-72 307.546,-107.833 313.138,-134.025"/>
<polygon fill="#000000" stroke="#000000" points="309.722,-134.791 315.233,-143.84 316.568,-133.33 309.722,-134.791"/>
</g>
<!-- RatStr&#45;&gt;Rat -->
<g id="edge11" class="edge"><title>RatStr&#45;&gt;Rat</title>
<path fill="none" stroke="#000000" d="M177.701,-32.1665C158.626,-43.4821 131.006,-59.8672 110.317,-72.14"/>
<polygon fill="#000000" stroke="#000000" points="108.453,-69.1762 101.638,-77.2885 112.025,-75.1966 108.453,-69.1762"/>
</g>
<!-- Num -->
<g id="node15" class="node"><title>Num</title>
<g id="a_node15"><a xlink:href="/type/Num" xlink:title="Num">
<ellipse fill="none" stroke="#000000" cx="205.896" cy="-162" rx="29.795" ry="18"/>
<text text-anchor="middle" x="205.896" y="-158.3" font-family="FreeSans" font-size="14.00" fill="#000000">Num</text>
</a>
</g>
</g>
<!-- Num&#45;&gt;Cool -->
<g id="edge13" class="edge"><title>Num&#45;&gt;Cool</title>
<path fill="none" stroke="#000000" d="M213.954,-179.589C217.976,-187.871 222.933,-198.075 227.432,-207.338"/>
<polygon fill="#000000" stroke="#000000" points="224.379,-209.064 231.897,-216.53 230.676,-206.006 224.379,-209.064"/>
</g>
<!-- Num&#45;&gt;Real -->
<g id="edge22" class="edge"><title>Num&#45;&gt;Real</title>
<path fill="none" stroke="#6666ff" d="M191.051,-177.845C181.399,-187.497 168.645,-200.251 157.833,-211.063"/>
<polygon fill="#6666ff" stroke="#6666ff" points="155.316,-208.63 150.72,-218.176 160.266,-213.58 155.316,-208.63"/>
</g>
<!-- NumStr -->
<g id="node16" class="node"><title>NumStr</title>
<g id="a_node16"><a xlink:href="/type/NumStr" xlink:title="NumStr">
<ellipse fill="none" stroke="#000000" cx="249.896" cy="-90" rx="40.8928" ry="18"/>
<text text-anchor="middle" x="249.896" y="-86.3" font-family="FreeSans" font-size="14.00" fill="#000000">NumStr</text>
</a>
</g>
</g>
<!-- NumStr&#45;&gt;Str -->
<g id="edge15" class="edge"><title>NumStr&#45;&gt;Str</title>
<path fill="none" stroke="#000000" d="M265.553,-106.884C275.024,-116.492 287.227,-128.872 297.571,-139.366"/>
<polygon fill="#000000" stroke="#000000" points="295.196,-141.943 304.709,-146.607 300.182,-137.029 295.196,-141.943"/>
</g>
<!-- NumStr&#45;&gt;Num -->
<g id="edge14" class="edge"><title>NumStr&#45;&gt;Num</title>
<path fill="none" stroke="#000000" d="M239.469,-107.589C234.077,-116.168 227.388,-126.809 221.403,-136.33"/>
<polygon fill="#000000" stroke="#000000" points="218.304,-134.683 215.946,-145.012 224.231,-138.408 218.304,-134.683"/>
</g>
</g>
</svg>
