<?xml version="1.0" encoding="UTF-8" standalone="no"?>
<!DOCTYPE svg PUBLIC "-//W3C//DTD SVG 1.1//EN"
 "http://www.w3.org/Graphics/SVG/1.1/DTD/svg11.dtd">
<!-- Generated by graphviz version 2.38.0 (20140413.2041)
 -->
<!-- Title: perl6&#45;type&#45;graph Pages: 1 -->
<svg width="192pt" height="260pt"
 viewBox="0.00 0.00 191.90 260.00" xmlns="http://www.w3.org/2000/svg" xmlns:xlink="http://www.w3.org/1999/xlink">
<g id="graph0" class="graph" transform="scale(1 1) rotate(0) translate(4 256)">
<title>perl6&#45;type&#45;graph</title>
<polygon fill="white" stroke="none" points="-4,4 -4,-256 187.895,-256 187.895,4 -4,4"/>
<!-- BagHash -->
<g id="node1" class="node"><title>BagHash</title>
<g id="a_node1"><a xlink:href="/type/BagHash" xlink:title="BagHash">
<ellipse fill="none" stroke="#000000" cx="80" cy="-18" rx="46.5926" ry="18"/>
<text text-anchor="middle" x="80" y="-14.3" font-family="FreeSans" font-size="14.00" fill="#000000">BagHash</text>
</a>
</g>
</g>
<!-- Any -->
<g id="node3" class="node"><title>Any</title>
<g id="a_node3"><a xlink:href="/type/Any" xlink:title="Any">
<ellipse fill="none" stroke="#000000" cx="37" cy="-90" rx="27" ry="18"/>
<text text-anchor="middle" x="37" y="-86.3" font-family="FreeSans" font-size="14.00" fill="#000000">Any</text>
</a>
</g>
</g>
<!-- BagHash&#45;&gt;Any -->
<g id="edge1" class="edge"><title>BagHash&#45;&gt;Any</title>
<path fill="none" stroke="#000000" d="M69.8096,-35.589C64.5399,-44.1677 58.0029,-54.8092 52.1541,-64.3305"/>
<polygon fill="#000000" stroke="#000000" points="49.0732,-62.6591 46.8213,-73.0119 55.0378,-66.3231 49.0732,-62.6591"/>
</g>
<!-- Baggy -->
<g id="node6" class="node"><title>Baggy</title>
<g id="a_node6"><a xlink:href="/type/Baggy" xlink:title="Baggy">
<ellipse fill="none" stroke="#6666ff" cx="123" cy="-90" rx="35.9954" ry="18"/>
<text text-anchor="middle" x="123" y="-86.3" font-family="FreeSans" font-size="14.00" fill="#6666ff">Baggy</text>
</a>
</g>
</g>
<!-- BagHash&#45;&gt;Baggy -->
<g id="edge3" class="edge"><title>BagHash&#45;&gt;Baggy</title>
<path fill="none" stroke="#6666ff" d="M90.1904,-35.589C95.3849,-44.0451 101.811,-54.5056 107.595,-63.9217"/>
<polygon fill="#6666ff" stroke="#6666ff" points="104.666,-65.8413 112.883,-72.5301 110.631,-62.1773 104.666,-65.8413"/>
</g>
<!-- Mu -->
<g id="node2" class="node"><title>Mu</title>
<g id="a_node2"><a xlink:href="/type/Mu" xlink:title="Mu">
<ellipse fill="none" stroke="#000000" cx="27" cy="-162" rx="27" ry="18"/>
<text text-anchor="middle" x="27" y="-158.3" font-family="FreeSans" font-size="14.00" fill="#000000">Mu</text>
</a>
</g>
</g>
<!-- Any&#45;&gt;Mu -->
<g id="edge2" class="edge"><title>Any&#45;&gt;Mu</title>
<path fill="none" stroke="#000000" d="M34.5793,-107.945C33.4779,-115.654 32.1467,-124.973 30.9092,-133.636"/>
<polygon fill="#000000" stroke="#000000" points="27.4174,-133.33 29.4679,-143.725 34.347,-134.32 27.4174,-133.33"/>
</g>
<!-- Associative -->
<g id="node4" class="node"><title>Associative</title>
<g id="a_node4"><a xlink:href="/type/Associative" xlink:title="Associative">
<ellipse fill="none" stroke="#6666ff" cx="128" cy="-234" rx="55.4913" ry="18"/>
<text text-anchor="middle" x="128" y="-230.3" font-family="FreeSans" font-size="14.00" fill="#6666ff">Associative</text>
</a>
</g>
</g>
<!-- QuantHash -->
<g id="node5" class="node"><title>QuantHash</title>
<g id="a_node5"><a xlink:href="/type/QuantHash" xlink:title="QuantHash">
<ellipse fill="none" stroke="#6666ff" cx="128" cy="-162" rx="55.7903" ry="18"/>
<text text-anchor="middle" x="128" y="-158.3" font-family="FreeSans" font-size="14.00" fill="#6666ff">QuantHash</text>
</a>
</g>
</g>
<!-- QuantHash&#45;&gt;Associative -->
<g id="edge4" class="edge"><title>QuantHash&#45;&gt;Associative</title>
<path fill="none" stroke="#6666ff" d="M128,-180.303C128,-188.017 128,-197.288 128,-205.888"/>
<polygon fill="#6666ff" stroke="#6666ff" points="124.5,-205.896 128,-215.896 131.5,-205.896 124.5,-205.896"/>
</g>
<!-- Baggy&#45;&gt;QuantHash -->
<g id="edge5" class="edge"><title>Baggy&#45;&gt;QuantHash</title>
<path fill="none" stroke="#6666ff" d="M124.236,-108.303C124.787,-116.017 125.449,-125.288 126.063,-133.888"/>
<polygon fill="#6666ff" stroke="#6666ff" points="122.575,-134.17 126.778,-143.896 129.557,-133.672 122.575,-134.17"/>
</g>
</g>
</svg>
