<?xml version="1.0" encoding="UTF-8" standalone="no"?>
<!DOCTYPE svg PUBLIC "-//W3C//DTD SVG 1.1//EN"
 "http://www.w3.org/Graphics/SVG/1.1/DTD/svg11.dtd">
<!-- Generated by graphviz version 2.38.0 (20140413.2041)
 -->
<!-- Title: perl6&#45;type&#45;graph Pages: 1 -->
<svg width="234pt" height="332pt"
 viewBox="0.00 0.00 234.18 332.00" xmlns="http://www.w3.org/2000/svg" xmlns:xlink="http://www.w3.org/1999/xlink">
<g id="graph0" class="graph" transform="scale(1 1) rotate(0) translate(4 328)">
<title>perl6&#45;type&#45;graph</title>
<polygon fill="white" stroke="none" points="-4,4 -4,-328 230.18,-328 230.18,4 -4,4"/>
<!-- X::Augment::NoSuchType -->
<g id="node1" class="node"><title>X::Augment::NoSuchType</title>
<g id="a_node1"><a xlink:href="/type/X::Augment::NoSuchType" xlink:title="X::Augment::NoSuchType">
<ellipse fill="none" stroke="#000000" cx="113.09" cy="-18" rx="113.18" ry="18"/>
<text text-anchor="middle" x="113.09" y="-14.3" font-family="FreeSans" font-size="14.00" fill="#000000">X::Augment::NoSuchType</text>
</a>
</g>
</g>
<!-- Exception -->
<g id="node4" class="node"><title>Exception</title>
<g id="a_node4"><a xlink:href="/type/Exception" xlink:title="Exception">
<ellipse fill="none" stroke="#000000" cx="113.09" cy="-162" rx="49.2915" ry="18"/>
<text text-anchor="middle" x="113.09" y="-158.3" font-family="FreeSans" font-size="14.00" fill="#000000">Exception</text>
</a>
</g>
</g>
<!-- X::Augment::NoSuchType&#45;&gt;Exception -->
<g id="edge1" class="edge"><title>X::Augment::NoSuchType&#45;&gt;Exception</title>
<path fill="none" stroke="#000000" d="M107.617,-36.0613C102.648,-51.5549 96.09,-72 96.09,-72 96.09,-72 96.09,-108 96.09,-108 96.09,-108 100.254,-120.983 104.461,-134.097"/>
<polygon fill="#000000" stroke="#000000" points="101.23,-135.486 107.617,-143.939 107.896,-133.348 101.23,-135.486"/>
</g>
<!-- X::Comp -->
<g id="node5" class="node"><title>X::Comp</title>
<g id="a_node5"><a xlink:href="/type/X::Comp" xlink:title="X::Comp">
<ellipse fill="none" stroke="#6666ff" cx="150.09" cy="-90" rx="44.6926" ry="18"/>
<text text-anchor="middle" x="150.09" y="-86.3" font-family="FreeSans" font-size="14.00" fill="#6666ff">X::Comp</text>
</a>
</g>
</g>
<!-- X::Augment::NoSuchType&#45;&gt;X::Comp -->
<g id="edge5" class="edge"><title>X::Augment::NoSuchType&#45;&gt;X::Comp</title>
<path fill="none" stroke="#6666ff" d="M122.047,-35.945C126.364,-44.1134 131.637,-54.0884 136.44,-63.1756"/>
<polygon fill="#6666ff" stroke="#6666ff" points="133.448,-65.0056 141.216,-72.211 139.637,-61.7344 133.448,-65.0056"/>
</g>
<!-- Mu -->
<g id="node2" class="node"><title>Mu</title>
<g id="a_node2"><a xlink:href="/type/Mu" xlink:title="Mu">
<ellipse fill="none" stroke="#000000" cx="113.09" cy="-306" rx="27" ry="18"/>
<text text-anchor="middle" x="113.09" y="-302.3" font-family="FreeSans" font-size="14.00" fill="#000000">Mu</text>
</a>
</g>
</g>
<!-- Any -->
<g id="node3" class="node"><title>Any</title>
<g id="a_node3"><a xlink:href="/type/Any" xlink:title="Any">
<ellipse fill="none" stroke="#000000" cx="113.09" cy="-234" rx="27" ry="18"/>
<text text-anchor="middle" x="113.09" y="-230.3" font-family="FreeSans" font-size="14.00" fill="#000000">Any</text>
</a>
</g>
</g>
<!-- Any&#45;&gt;Mu -->
<g id="edge2" class="edge"><title>Any&#45;&gt;Mu</title>
<path fill="none" stroke="#000000" d="M113.09,-252.303C113.09,-260.017 113.09,-269.288 113.09,-277.888"/>
<polygon fill="#000000" stroke="#000000" points="109.59,-277.896 113.09,-287.896 116.59,-277.896 109.59,-277.896"/>
</g>
<!-- Exception&#45;&gt;Any -->
<g id="edge3" class="edge"><title>Exception&#45;&gt;Any</title>
<path fill="none" stroke="#000000" d="M113.09,-180.303C113.09,-188.017 113.09,-197.288 113.09,-205.888"/>
<polygon fill="#000000" stroke="#000000" points="109.59,-205.896 113.09,-215.896 116.59,-205.896 109.59,-205.896"/>
</g>
<!-- X::Comp&#45;&gt;Exception -->
<g id="edge4" class="edge"><title>X::Comp&#45;&gt;Exception</title>
<path fill="none" stroke="#000000" d="M141.133,-107.945C136.816,-116.113 131.543,-126.088 126.74,-135.176"/>
<polygon fill="#000000" stroke="#000000" points="123.543,-133.734 121.964,-144.211 129.732,-137.006 123.543,-133.734"/>
</g>
</g>
</svg>
