<?xml version="1.0" encoding="UTF-8" standalone="no"?>
<!DOCTYPE svg PUBLIC "-//W3C//DTD SVG 1.1//EN"
 "http://www.w3.org/Graphics/SVG/1.1/DTD/svg11.dtd">
<!-- Generated by graphviz version 2.38.0 (20140413.2041)
 -->
<!-- Title: perl6&#45;type&#45;graph Pages: 1 -->
<svg width="225pt" height="404pt"
 viewBox="0.00 0.00 224.79 404.00" xmlns="http://www.w3.org/2000/svg" xmlns:xlink="http://www.w3.org/1999/xlink">
<g id="graph0" class="graph" transform="scale(1 1) rotate(0) translate(4 400)">
<title>perl6&#45;type&#45;graph</title>
<polygon fill="white" stroke="none" points="-4,4 -4,-400 220.791,-400 220.791,4 -4,4"/>
<!-- X::IO::Chmod -->
<g id="node1" class="node"><title>X::IO::Chmod</title>
<g id="a_node1"><a xlink:href="/type/X::IO::Chmod" xlink:title="X::IO::Chmod">
<ellipse fill="none" stroke="#000000" cx="64.3443" cy="-18" rx="64.189" ry="18"/>
<text text-anchor="middle" x="64.3443" y="-14.3" font-family="FreeSans" font-size="14.00" fill="#000000">X::IO::Chmod</text>
</a>
</g>
</g>
<!-- Exception -->
<g id="node4" class="node"><title>Exception</title>
<g id="a_node4"><a xlink:href="/type/Exception" xlink:title="Exception">
<ellipse fill="none" stroke="#000000" cx="64.3443" cy="-234" rx="49.2915" ry="18"/>
<text text-anchor="middle" x="64.3443" y="-230.3" font-family="FreeSans" font-size="14.00" fill="#000000">Exception</text>
</a>
</g>
</g>
<!-- X::IO::Chmod&#45;&gt;Exception -->
<g id="edge1" class="edge"><title>X::IO::Chmod&#45;&gt;Exception</title>
<path fill="none" stroke="#000000" d="M56.5892,-36.1508C49.5001,-73.2599 48.9718,-161.253 55.0045,-205.946"/>
<polygon fill="#000000" stroke="#000000" points="51.5883,-206.747 56.6306,-216.065 58.4996,-205.636 51.5883,-206.747"/>
</g>
<!-- X::IO::Chmod&#45;&gt;Exception -->
<g id="edge2" class="edge"><title>X::IO::Chmod&#45;&gt;Exception</title>
<path fill="none" stroke="#000000" d="M64.3443,-36.1508C64.3443,-73.1683 64.3443,-160.819 64.3443,-205.614"/>
<polygon fill="#000000" stroke="#000000" points="60.8444,-205.768 64.3443,-215.768 67.8444,-205.768 60.8444,-205.768"/>
</g>
<!-- X::IO::Chmod&#45;&gt;Exception -->
<g id="edge3" class="edge"><title>X::IO::Chmod&#45;&gt;Exception</title>
<path fill="none" stroke="#000000" d="M72.0993,-36.1508C79.1885,-73.2599 79.7167,-161.253 73.684,-205.946"/>
<polygon fill="#000000" stroke="#000000" points="70.189,-205.636 72.058,-216.065 77.1003,-206.747 70.189,-205.636"/>
</g>
<!-- X::IO -->
<g id="node6" class="node"><title>X::IO</title>
<g id="a_node6"><a xlink:href="/type/X::IO" xlink:title="X::IO">
<ellipse fill="none" stroke="#6666ff" cx="141.344" cy="-90" rx="31.3957" ry="18"/>
<text text-anchor="middle" x="141.344" y="-86.3" font-family="FreeSans" font-size="14.00" fill="#6666ff">X::IO</text>
</a>
</g>
</g>
<!-- X::IO::Chmod&#45;&gt;X::IO -->
<g id="edge8" class="edge"><title>X::IO::Chmod&#45;&gt;X::IO</title>
<path fill="none" stroke="#6666ff" d="M82.5922,-35.589C93.1433,-45.1809 106.531,-57.3519 117.862,-67.6521"/>
<polygon fill="#6666ff" stroke="#6666ff" points="115.563,-70.2926 125.317,-74.4295 120.272,-65.113 115.563,-70.2926"/>
</g>
<!-- Mu -->
<g id="node2" class="node"><title>Mu</title>
<g id="a_node2"><a xlink:href="/type/Mu" xlink:title="Mu">
<ellipse fill="none" stroke="#000000" cx="64.3443" cy="-378" rx="27" ry="18"/>
<text text-anchor="middle" x="64.3443" y="-374.3" font-family="FreeSans" font-size="14.00" fill="#000000">Mu</text>
</a>
</g>
</g>
<!-- Any -->
<g id="node3" class="node"><title>Any</title>
<g id="a_node3"><a xlink:href="/type/Any" xlink:title="Any">
<ellipse fill="none" stroke="#000000" cx="64.3443" cy="-306" rx="27" ry="18"/>
<text text-anchor="middle" x="64.3443" y="-302.3" font-family="FreeSans" font-size="14.00" fill="#000000">Any</text>
</a>
</g>
</g>
<!-- Any&#45;&gt;Mu -->
<g id="edge4" class="edge"><title>Any&#45;&gt;Mu</title>
<path fill="none" stroke="#000000" d="M64.3443,-324.303C64.3443,-332.017 64.3443,-341.288 64.3443,-349.888"/>
<polygon fill="#000000" stroke="#000000" points="60.8444,-349.896 64.3443,-359.896 67.8444,-349.896 60.8444,-349.896"/>
</g>
<!-- Exception&#45;&gt;Any -->
<g id="edge5" class="edge"><title>Exception&#45;&gt;Any</title>
<path fill="none" stroke="#000000" d="M64.3443,-252.303C64.3443,-260.017 64.3443,-269.288 64.3443,-277.888"/>
<polygon fill="#000000" stroke="#000000" points="60.8444,-277.896 64.3443,-287.896 67.8444,-277.896 60.8444,-277.896"/>
</g>
<!-- X::OS -->
<g id="node5" class="node"><title>X::OS</title>
<g id="a_node5"><a xlink:href="/type/X::OS" xlink:title="X::OS">
<ellipse fill="none" stroke="#6666ff" cx="182.344" cy="-162" rx="34.394" ry="18"/>
<text text-anchor="middle" x="182.344" y="-158.3" font-family="FreeSans" font-size="14.00" fill="#6666ff">X::OS</text>
</a>
</g>
</g>
<!-- X::OS&#45;&gt;Exception -->
<g id="edge6" class="edge"><title>X::OS&#45;&gt;Exception</title>
<path fill="none" stroke="#000000" d="M160.426,-176.002C142.855,-186.426 117.906,-201.226 97.8348,-213.133"/>
<polygon fill="#000000" stroke="#000000" points="95.815,-210.261 89.0001,-218.374 99.3864,-216.282 95.815,-210.261"/>
</g>
<!-- X::IO&#45;&gt;Exception -->
<g id="edge7" class="edge"><title>X::IO&#45;&gt;Exception</title>
<path fill="none" stroke="#000000" d="M132.88,-107.74C119.845,-133.521 96.3443,-180 96.3443,-180 96.3443,-180 87.9329,-193.931 79.735,-207.509"/>
<polygon fill="#000000" stroke="#000000" points="76.6418,-205.861 74.4693,-216.23 82.6343,-209.479 76.6418,-205.861"/>
</g>
<!-- X::IO&#45;&gt;X::OS -->
<g id="edge9" class="edge"><title>X::IO&#45;&gt;X::OS</title>
<path fill="none" stroke="#6666ff" d="M150.854,-107.235C155.801,-115.683 161.962,-126.201 167.519,-135.688"/>
<polygon fill="#6666ff" stroke="#6666ff" points="164.528,-137.507 172.602,-144.367 170.568,-133.969 164.528,-137.507"/>
</g>
</g>
</svg>
