<?xml version="1.0" encoding="UTF-8" standalone="no"?>
<!DOCTYPE svg PUBLIC "-//W3C//DTD SVG 1.1//EN"
 "http://www.w3.org/Graphics/SVG/1.1/DTD/svg11.dtd">
<!-- Generated by graphviz version 2.38.0 (20140413.2041)
 -->
<!-- Title: perl6&#45;type&#45;graph Pages: 1 -->
<svg width="1747pt" height="864pt"
 viewBox="0.00 0.00 1747.47 863.85" xmlns="http://www.w3.org/2000/svg" xmlns:xlink="http://www.w3.org/1999/xlink">
<g id="graph0" class="graph" transform="scale(1 1) rotate(0) translate(876.769 416.15)">
<title>perl6&#45;type&#45;graph</title>
<polygon fill="white" stroke="none" points="-876.769,447.705 -876.769,-416.15 870.702,-416.15 870.702,447.705 -876.769,447.705"/>
<!-- Metamodel::MethodContainer -->
<g id="node1" class="node"><title>Metamodel::MethodContainer</title>
<g id="a_node1"><a xlink:href="/type/Metamodel::MethodContainer" xlink:title="Metamodel::MethodContainer">
<ellipse fill="none" stroke="#6666ff" cx="-59.312" cy="77.6917" rx="127.277" ry="18"/>
<text text-anchor="middle" x="-59.312" y="81.3917" font-family="FreeSans" font-size="14.00" fill="#6666ff">Metamodel::MethodContainer</text>
</a>
</g>
</g>
<!-- Mu -->
<g id="node2" class="node"><title>Mu</title>
<g id="a_node2"><a xlink:href="/type/Mu" xlink:title="Mu">
<ellipse fill="none" stroke="#000000" cx="159.692" cy="417.662" rx="27" ry="18"/>
<text text-anchor="middle" x="159.692" y="421.362" font-family="FreeSans" font-size="14.00" fill="#000000">Mu</text>
</a>
</g>
</g>
<!-- Any -->
<g id="node3" class="node"><title>Any</title>
<g id="a_node3"><a xlink:href="/type/Any" xlink:title="Any">
<ellipse fill="none" stroke="#000000" cx="-90.5578" cy="425.705" rx="27" ry="18"/>
<text text-anchor="middle" x="-90.5578" y="429.405" font-family="FreeSans" font-size="14.00" fill="#000000">Any</text>
</a>
</g>
</g>
<!-- Any&#45;&gt;Mu -->
<g id="edge1" class="edge"><title>Any&#45;&gt;Mu</title>
<path fill="none" stroke="#000000" d="M-63.3003,424.829C-18.3592,423.385 71.3638,420.501 122.233,418.866"/>
<polygon fill="#000000" stroke="#000000" points="122.361,415.36 132.468,418.537 122.586,422.357 122.361,415.36"/>
</g>
<!-- Metamodel::Naming -->
<g id="node4" class="node"><title>Metamodel::Naming</title>
<g id="a_node4"><a xlink:href="/type/Metamodel::Naming" xlink:title="Metamodel::Naming">
<ellipse fill="none" stroke="#6666ff" cx="93.8058" cy="-18.0917" rx="90.1842" ry="18"/>
<text text-anchor="middle" x="93.8058" y="-14.3917" font-family="FreeSans" font-size="14.00" fill="#6666ff">Metamodel::Naming</text>
</a>
</g>
</g>
<!-- Metamodel::Documenting -->
<g id="node5" class="node"><title>Metamodel::Documenting</title>
<g id="a_node5"><a xlink:href="/type/Metamodel::Documenting" xlink:title="Metamodel::Documenting">
<ellipse fill="none" stroke="#6666ff" cx="439.021" cy="-363.494" rx="111.28" ry="18"/>
<text text-anchor="middle" x="439.021" y="-359.794" font-family="FreeSans" font-size="14.00" fill="#6666ff">Metamodel::Documenting</text>
</a>
</g>
</g>
<!-- Metamodel::Versioning -->
<g id="node6" class="node"><title>Metamodel::Versioning</title>
<g id="a_node6"><a xlink:href="/type/Metamodel::Versioning" xlink:title="Metamodel::Versioning">
<ellipse fill="none" stroke="#6666ff" cx="475.075" cy="-73.801" rx="100.983" ry="18"/>
<text text-anchor="middle" x="475.075" y="-70.101" font-family="FreeSans" font-size="14.00" fill="#6666ff">Metamodel::Versioning</text>
</a>
</g>
</g>
<!-- Metamodel::PrivateMethodContainer -->
<g id="node7" class="node"><title>Metamodel::PrivateMethodContainer</title>
<g id="a_node7"><a xlink:href="/type/Metamodel::PrivateMethodContainer" xlink:title="Metamodel::PrivateMethodContainer">
<ellipse fill="none" stroke="#6666ff" cx="82.3641" cy="211.638" rx="154.873" ry="18"/>
<text text-anchor="middle" x="82.3641" y="215.338" font-family="FreeSans" font-size="14.00" fill="#6666ff">Metamodel::PrivateMethodContainer</text>
</a>
</g>
</g>
<!-- Metamodel::MultiMethodContainer -->
<g id="node8" class="node"><title>Metamodel::MultiMethodContainer</title>
<g id="a_node8"><a xlink:href="/type/Metamodel::MultiMethodContainer" xlink:title="Metamodel::MultiMethodContainer">
<ellipse fill="none" stroke="#6666ff" cx="256.089" cy="-174.042" rx="146.474" ry="18"/>
<text text-anchor="middle" x="256.089" y="-170.342" font-family="FreeSans" font-size="14.00" fill="#6666ff">Metamodel::MultiMethodContainer</text>
</a>
</g>
</g>
<!-- Metamodel::AttributeContainer -->
<g id="node9" class="node"><title>Metamodel::AttributeContainer</title>
<g id="a_node9"><a xlink:href="/type/Metamodel::AttributeContainer" xlink:title="Metamodel::AttributeContainer">
<ellipse fill="none" stroke="#6666ff" cx="-188.433" cy="228.492" rx="129.977" ry="18"/>
<text text-anchor="middle" x="-188.433" y="232.192" font-family="FreeSans" font-size="14.00" fill="#6666ff">Metamodel::AttributeContainer</text>
</a>
</g>
</g>
<!-- Metamodel::RoleContainer -->
<g id="node10" class="node"><title>Metamodel::RoleContainer</title>
<g id="a_node10"><a xlink:href="/type/Metamodel::RoleContainer" xlink:title="Metamodel::RoleContainer">
<ellipse fill="none" stroke="#6666ff" cx="252.859" cy="40.951" rx="115.88" ry="18"/>
<text text-anchor="middle" x="252.859" y="44.651" font-family="FreeSans" font-size="14.00" fill="#6666ff">Metamodel::RoleContainer</text>
</a>
</g>
</g>
<!-- Metamodel::MultipleInheritance -->
<g id="node11" class="node"><title>Metamodel::MultipleInheritance</title>
<g id="a_node11"><a xlink:href="/type/Metamodel::MultipleInheritance" xlink:title="Metamodel::MultipleInheritance">
<ellipse fill="none" stroke="#6666ff" cx="382.901" cy="188.59" rx="133.776" ry="18"/>
<text text-anchor="middle" x="382.901" y="192.29" font-family="FreeSans" font-size="14.00" fill="#6666ff">Metamodel::MultipleInheritance</text>
</a>
</g>
</g>
<!-- Metamodel::Stashing -->
<g id="node12" class="node"><title>Metamodel::Stashing</title>
<g id="a_node12"><a xlink:href="/type/Metamodel::Stashing" xlink:title="Metamodel::Stashing">
<ellipse fill="none" stroke="#6666ff" cx="50.4253" cy="-221.968" rx="93.6835" ry="18"/>
<text text-anchor="middle" x="50.4253" y="-218.268" font-family="FreeSans" font-size="14.00" fill="#6666ff">Metamodel::Stashing</text>
</a>
</g>
</g>
<!-- Metamodel::TypePretense -->
<g id="node13" class="node"><title>Metamodel::TypePretense</title>
<g id="a_node13"><a xlink:href="/type/Metamodel::TypePretense" xlink:title="Metamodel::TypePretense">
<ellipse fill="none" stroke="#6666ff" cx="721.307" cy="371.1" rx="114.28" ry="18"/>
<text text-anchor="middle" x="721.307" y="374.8" font-family="FreeSans" font-size="14.00" fill="#6666ff">Metamodel::TypePretense</text>
</a>
</g>
</g>
<!-- Metamodel::RolePunning -->
<g id="node14" class="node"><title>Metamodel::RolePunning</title>
<g id="a_node14"><a xlink:href="/type/Metamodel::RolePunning" xlink:title="Metamodel::RolePunning">
<ellipse fill="none" stroke="#6666ff" cx="734.024" cy="-306.834" rx="109.681" ry="18"/>
<text text-anchor="middle" x="734.024" y="-303.134" font-family="FreeSans" font-size="14.00" fill="#6666ff">Metamodel::RolePunning</text>
</a>
</g>
</g>
<!-- Metamodel::ParametricRoleHOW -->
<g id="node15" class="node"><title>Metamodel::ParametricRoleHOW</title>
<g id="a_node15"><a xlink:href="/type/Metamodel::ParametricRoleHOW" xlink:title="Metamodel::ParametricRoleHOW">
<ellipse fill="none" stroke="#000000" cx="724.364" cy="51.7574" rx="142.175" ry="18"/>
<text text-anchor="middle" x="724.364" y="55.4574" font-family="FreeSans" font-size="14.00" fill="#000000">Metamodel::ParametricRoleHOW</text>
</a>
</g>
</g>
<!-- Metamodel::ParametricRoleHOW&#45;&gt;Metamodel::MethodContainer -->
<g id="edge9" class="edge"><title>Metamodel::ParametricRoleHOW&#45;&gt;Metamodel::MethodContainer</title>
<path fill="none" stroke="#6666ff" d="M586.512,56.3193C442.402,61.0884 217.755,68.5227 74.9859,73.2474"/>
<polygon fill="#6666ff" stroke="#6666ff" points="74.9606,76.75 64.8503,73.5828 74.729,69.7538 74.9606,76.75"/>
</g>
<!-- Metamodel::ParametricRoleHOW&#45;&gt;Any -->
<g id="edge2" class="edge"><title>Metamodel::ParametricRoleHOW&#45;&gt;Any</title>
<path fill="none" stroke="#000000" d="M697.436,69.6387C641.604,106.714 518.388,188.535 518.388,188.535 518.388,188.535 69.4932,363.369 -57.4684,412.817"/>
<polygon fill="#000000" stroke="#000000" points="-56.4711,416.185 -67.0596,416.553 -59.0116,409.662 -56.4711,416.185"/>
</g>
<!-- Metamodel::ParametricRoleHOW&#45;&gt;Metamodel::Naming -->
<g id="edge6" class="edge"><title>Metamodel::ParametricRoleHOW&#45;&gt;Metamodel::Naming</title>
<path fill="none" stroke="#6666ff" d="M617.041,39.8689C494.87,26.3356 297.499,4.47203 183.29,-8.17919"/>
<polygon fill="#6666ff" stroke="#6666ff" points="182.735,-4.71921 173.181,-9.29902 183.506,-11.6767 182.735,-4.71921"/>
</g>
<!-- Metamodel::ParametricRoleHOW&#45;&gt;Metamodel::Documenting -->
<g id="edge7" class="edge"><title>Metamodel::ParametricRoleHOW&#45;&gt;Metamodel::Documenting</title>
<path fill="none" stroke="#6666ff" d="M711.92,33.6475C666.681,-32.1877 510.804,-259.031 457.254,-336.96"/>
<polygon fill="#6666ff" stroke="#6666ff" points="454.31,-335.065 451.531,-345.289 460.079,-339.029 454.31,-335.065"/>
</g>
<!-- Metamodel::ParametricRoleHOW&#45;&gt;Metamodel::Versioning -->
<g id="edge8" class="edge"><title>Metamodel::ParametricRoleHOW&#45;&gt;Metamodel::Versioning</title>
<path fill="none" stroke="#6666ff" d="M689.702,34.299C644.832,11.6998 566.652,-27.6767 518.055,-52.1536"/>
<polygon fill="#6666ff" stroke="#6666ff" points="516.401,-49.0677 509.044,-56.692 519.55,-55.3195 516.401,-49.0677"/>
</g>
<!-- Metamodel::ParametricRoleHOW&#45;&gt;Metamodel::PrivateMethodContainer -->
<g id="edge10" class="edge"><title>Metamodel::ParametricRoleHOW&#45;&gt;Metamodel::PrivateMethodContainer</title>
<path fill="none" stroke="#6666ff" d="M659.867,67.8194C540.521,97.5409 285.803,160.975 158.327,192.721"/>
<polygon fill="#6666ff" stroke="#6666ff" points="158.804,196.209 148.255,195.229 157.113,189.416 158.804,196.209"/>
</g>
<!-- Metamodel::ParametricRoleHOW&#45;&gt;Metamodel::MultiMethodContainer -->
<g id="edge11" class="edge"><title>Metamodel::ParametricRoleHOW&#45;&gt;Metamodel::MultiMethodContainer</title>
<path fill="none" stroke="#6666ff" d="M675.583,34.8063C585.733,3.58381 403.179,-59.8523 403.179,-59.8523 403.179,-59.8523 372.736,-73.6741 372.736,-73.6741 372.736,-73.6741 319.391,-119.574 284.851,-149.294"/>
<polygon fill="#6666ff" stroke="#6666ff" points="282.241,-146.922 276.943,-156.098 286.806,-152.229 282.241,-146.922"/>
</g>
<!-- Metamodel::ParametricRoleHOW&#45;&gt;Metamodel::AttributeContainer -->
<g id="edge12" class="edge"><title>Metamodel::ParametricRoleHOW&#45;&gt;Metamodel::AttributeContainer</title>
<path fill="none" stroke="#6666ff" d="M646.145,66.9021C476.189,99.8088 74.3074,177.621 -102.461,211.846"/>
<polygon fill="#6666ff" stroke="#6666ff" points="-102.015,215.325 -112.498,213.79 -103.346,208.453 -102.015,215.325"/>
</g>
<!-- Metamodel::ParametricRoleHOW&#45;&gt;Metamodel::RoleContainer -->
<g id="edge13" class="edge"><title>Metamodel::ParametricRoleHOW&#45;&gt;Metamodel::RoleContainer</title>
<path fill="none" stroke="#6666ff" d="M584.174,48.5443C518.596,47.0414 441.143,45.2662 377.62,43.8104"/>
<polygon fill="#6666ff" stroke="#6666ff" points="377.466,47.3078 367.548,43.5795 377.626,40.3097 377.466,47.3078"/>
</g>
<!-- Metamodel::ParametricRoleHOW&#45;&gt;Metamodel::MultipleInheritance -->
<g id="edge14" class="edge"><title>Metamodel::ParametricRoleHOW&#45;&gt;Metamodel::MultipleInheritance</title>
<path fill="none" stroke="#6666ff" d="M681.463,68.9488C618.893,94.0225 502.725,140.574 435.22,167.625"/>
<polygon fill="#6666ff" stroke="#6666ff" points="436.21,170.998 425.626,171.469 433.607,164.501 436.21,170.998"/>
</g>
<!-- Metamodel::ParametricRoleHOW&#45;&gt;Metamodel::Stashing -->
<g id="edge15" class="edge"><title>Metamodel::ParametricRoleHOW&#45;&gt;Metamodel::Stashing</title>
<path fill="none" stroke="#6666ff" d="M675.583,34.8063C585.733,3.58381 403.179,-59.8523 403.179,-59.8523 403.179,-59.8523 108.254,-173.942 108.254,-173.942 108.254,-173.942 93.9308,-185.837 79.5409,-197.788"/>
<polygon fill="#6666ff" stroke="#6666ff" points="77.0872,-195.276 71.6303,-204.357 81.5594,-200.661 77.0872,-195.276"/>
</g>
<!-- Metamodel::ParametricRoleHOW&#45;&gt;Metamodel::TypePretense -->
<g id="edge16" class="edge"><title>Metamodel::ParametricRoleHOW&#45;&gt;Metamodel::TypePretense</title>
<path fill="none" stroke="#6666ff" d="M724.191,69.8416C723.684,122.851 722.197,278.162 721.58,342.587"/>
<polygon fill="#6666ff" stroke="#6666ff" points="725.078,342.852 721.482,352.818 718.078,342.785 725.078,342.852"/>
</g>
<!-- Metamodel::ParametricRoleHOW&#45;&gt;Metamodel::RolePunning -->
<g id="edge17" class="edge"><title>Metamodel::ParametricRoleHOW&#45;&gt;Metamodel::RolePunning</title>
<path fill="none" stroke="#6666ff" d="M724.857,33.4818C726.43,-24.9079 731.342,-207.27 733.253,-278.204"/>
<polygon fill="#6666ff" stroke="#6666ff" points="729.765,-278.693 733.533,-288.595 736.762,-278.505 729.765,-278.693"/>
</g>
<!-- Metamodel::ConcreteRoleHOW -->
<g id="node16" class="node"><title>Metamodel::ConcreteRoleHOW</title>
<g id="a_node16"><a xlink:href="/type/Metamodel::ConcreteRoleHOW" xlink:title="Metamodel::ConcreteRoleHOW">
<ellipse fill="none" stroke="#000000" cx="422.037" cy="413.417" rx="135.676" ry="18"/>
<text text-anchor="middle" x="422.037" y="417.117" font-family="FreeSans" font-size="14.00" fill="#000000">Metamodel::ConcreteRoleHOW</text>
</a>
</g>
</g>
<!-- Metamodel::ConcreteRoleHOW&#45;&gt;Metamodel::MethodContainer -->
<g id="edge21" class="edge"><title>Metamodel::ConcreteRoleHOW&#45;&gt;Metamodel::MethodContainer</title>
<path fill="none" stroke="#6666ff" d="M405.762,395.5C360.88,346.09 238.648,211.526 238.648,211.526 238.648,211.526 72.5543,136.922 -11.6165,99.1151"/>
<polygon fill="#6666ff" stroke="#6666ff" points="-13.281,102.204 -20.969,94.9143 -10.4128,95.819 -13.281,102.204"/>
</g>
<!-- Metamodel::ConcreteRoleHOW&#45;&gt;Any -->
<g id="edge3" class="edge"><title>Metamodel::ConcreteRoleHOW&#45;&gt;Any</title>
<path fill="none" stroke="#000000" d="M309.671,423.633C238.487,430.105 159.77,437.262 159.77,437.262 159.77,437.262 16.658,430.655 -53.1499,427.432"/>
<polygon fill="#000000" stroke="#000000" points="-53.4639,430.921 -63.2918,426.964 -53.141,423.929 -53.4639,430.921"/>
</g>
<!-- Metamodel::ConcreteRoleHOW&#45;&gt;Metamodel::Naming -->
<g id="edge18" class="edge"><title>Metamodel::ConcreteRoleHOW&#45;&gt;Metamodel::Naming</title>
<path fill="none" stroke="#6666ff" d="M408.042,395.403C366.604,342.065 247.413,188.645 247.413,188.645 247.413,188.645 135.569,40.9683 135.569,40.9683 135.569,40.9683 123.663,24.1311 112.565,8.43658"/>
<polygon fill="#6666ff" stroke="#6666ff" points="109.479,10.1348 106.563,-0.050829 115.194,6.09327 109.479,10.1348"/>
</g>
<!-- Metamodel::ConcreteRoleHOW&#45;&gt;Metamodel::Versioning -->
<g id="edge19" class="edge"><title>Metamodel::ConcreteRoleHOW&#45;&gt;Metamodel::Versioning</title>
<path fill="none" stroke="#6666ff" d="M429.759,395.394C452.623,342.03 518.388,188.535 518.388,188.535 518.388,188.535 490.862,21.8152 479.697,-45.808"/>
<polygon fill="#6666ff" stroke="#6666ff" points="476.228,-45.333 478.052,-55.7696 483.134,-46.4734 476.228,-45.333"/>
</g>
<!-- Metamodel::ConcreteRoleHOW&#45;&gt;Metamodel::PrivateMethodContainer -->
<g id="edge20" class="edge"><title>Metamodel::ConcreteRoleHOW&#45;&gt;Metamodel::PrivateMethodContainer</title>
<path fill="none" stroke="#6666ff" d="M392.191,395.687C330.683,359.149 189.849,275.488 121.291,234.762"/>
<polygon fill="#6666ff" stroke="#6666ff" points="119.317,237.661 112.507,229.544 122.892,231.642 119.317,237.661"/>
</g>
<!-- Metamodel::ConcreteRoleHOW&#45;&gt;Metamodel::MultiMethodContainer -->
<g id="edge22" class="edge"><title>Metamodel::ConcreteRoleHOW&#45;&gt;Metamodel::MultiMethodContainer</title>
<path fill="none" stroke="#6666ff" d="M429.759,395.394C452.623,342.03 518.388,188.535 518.388,188.535 518.388,188.535 335.217,-64.6627 275.013,-147.883"/>
<polygon fill="#6666ff" stroke="#6666ff" points="272.122,-145.908 269.097,-156.061 277.794,-150.011 272.122,-145.908"/>
</g>
<!-- Metamodel::ConcreteRoleHOW&#45;&gt;Metamodel::AttributeContainer -->
<g id="edge23" class="edge"><title>Metamodel::ConcreteRoleHOW&#45;&gt;Metamodel::AttributeContainer</title>
<path fill="none" stroke="#6666ff" d="M367.593,396.925C254.891,362.785 -3.4996,284.513 -124.159,247.962"/>
<polygon fill="#6666ff" stroke="#6666ff" points="-125.446,251.229 -134.002,244.981 -123.417,244.53 -125.446,251.229"/>
</g>
<!-- Metamodel::ConcreteRoleHOW&#45;&gt;Metamodel::RoleContainer -->
<g id="edge24" class="edge"><title>Metamodel::ConcreteRoleHOW&#45;&gt;Metamodel::RoleContainer</title>
<path fill="none" stroke="#6666ff" d="M408.042,395.403C366.604,342.065 247.413,188.645 247.413,188.645 247.413,188.645 250.238,112.035 251.818,69.166"/>
<polygon fill="#6666ff" stroke="#6666ff" points="248.325,68.9254 252.191,59.0612 255.32,69.1834 248.325,68.9254"/>
</g>
<!-- Metamodel::ConcreteRoleHOW&#45;&gt;Metamodel::MultipleInheritance -->
<g id="edge25" class="edge"><title>Metamodel::ConcreteRoleHOW&#45;&gt;Metamodel::MultipleInheritance</title>
<path fill="none" stroke="#6666ff" d="M418.9,395.398C412.102,356.344 395.965,263.643 387.806,216.768"/>
<polygon fill="#6666ff" stroke="#6666ff" points="384.319,217.147 386.052,206.695 391.215,215.946 384.319,217.147"/>
</g>
<!-- Metamodel::BaseType -->
<g id="node17" class="node"><title>Metamodel::BaseType</title>
<g id="a_node17"><a xlink:href="/type/Metamodel::BaseType" xlink:title="Metamodel::BaseType">
<ellipse fill="none" stroke="#6666ff" cx="-377.493" cy="418.147" rx="99.3824" ry="18"/>
<text text-anchor="middle" x="-377.493" y="421.847" font-family="FreeSans" font-size="14.00" fill="#6666ff">Metamodel::BaseType</text>
</a>
</g>
</g>
<!-- Metamodel::MROBasedMethodDispatch -->
<g id="node18" class="node"><title>Metamodel::MROBasedMethodDispatch</title>
<g id="a_node18"><a xlink:href="/type/Metamodel::MROBasedMethodDispatch" xlink:title="Metamodel::MROBasedMethodDispatch">
<ellipse fill="none" stroke="#6666ff" cx="-470.312" cy="-107.515" rx="169.77" ry="18"/>
<text text-anchor="middle" x="-470.312" y="-103.815" font-family="FreeSans" font-size="14.00" fill="#6666ff">Metamodel::MROBasedMethodDispatch</text>
</a>
</g>
</g>
<!-- Metamodel::MROBasedTypeChecking -->
<g id="node19" class="node"><title>Metamodel::MROBasedTypeChecking</title>
<g id="a_node19"><a xlink:href="/type/Metamodel::MROBasedTypeChecking" xlink:title="Metamodel::MROBasedTypeChecking">
<ellipse fill="none" stroke="#6666ff" cx="-709.634" cy="372.747" rx="163.271" ry="18"/>
<text text-anchor="middle" x="-709.634" y="376.447" font-family="FreeSans" font-size="14.00" fill="#6666ff">Metamodel::MROBasedTypeChecking</text>
</a>
</g>
</g>
<!-- Metamodel::BUILDPLAN -->
<g id="node20" class="node"><title>Metamodel::BUILDPLAN</title>
<g id="a_node20"><a xlink:href="/type/Metamodel::BUILDPLAN" xlink:title="Metamodel::BUILDPLAN">
<ellipse fill="none" stroke="#6666ff" cx="-735.881" cy="28.1548" rx="109.681" ry="18"/>
<text text-anchor="middle" x="-735.881" y="31.8548" font-family="FreeSans" font-size="14.00" fill="#6666ff">Metamodel::BUILDPLAN</text>
</a>
</g>
</g>
<!-- Metamodel::BoolificationProtocol -->
<g id="node21" class="node"><title>Metamodel::BoolificationProtocol</title>
<g id="a_node21"><a xlink:href="/type/Metamodel::BoolificationProtocol" xlink:title="Metamodel::BoolificationProtocol">
<ellipse fill="none" stroke="#6666ff" cx="-241.488" cy="-187.449" rx="139.175" ry="18"/>
<text text-anchor="middle" x="-241.488" y="-183.749" font-family="FreeSans" font-size="14.00" fill="#6666ff">Metamodel::BoolificationProtocol</text>
</a>
</g>
</g>
<!-- Metamodel::EnumHOW -->
<g id="node22" class="node"><title>Metamodel::EnumHOW</title>
<g id="a_node22"><a xlink:href="/type/Metamodel::EnumHOW" xlink:title="Metamodel::EnumHOW">
<ellipse fill="none" stroke="#000000" cx="-253.244" cy="25.7923" rx="104.782" ry="18"/>
<text text-anchor="middle" x="-253.244" y="29.4923" font-family="FreeSans" font-size="14.00" fill="#000000">Metamodel::EnumHOW</text>
</a>
</g>
</g>
<!-- Metamodel::EnumHOW&#45;&gt;Metamodel::MethodContainer -->
<g id="edge29" class="edge"><title>Metamodel::EnumHOW&#45;&gt;Metamodel::MethodContainer</title>
<path fill="none" stroke="#6666ff" d="M-196.629,40.9433C-175.399,46.6249 -151.027,53.1472 -128.765,59.105"/>
<polygon fill="#6666ff" stroke="#6666ff" points="-127.792,55.742 -119.037,61.7083 -129.602,62.504 -127.792,55.742"/>
</g>
<!-- Metamodel::EnumHOW&#45;&gt;Any -->
<g id="edge4" class="edge"><title>Metamodel::EnumHOW&#45;&gt;Any</title>
<path fill="none" stroke="#000000" d="M-236.049,43.6227C-191.166,90.1663 -73.9196,211.75 -73.9196,211.75 -73.9196,211.75 -56.8451,228.452 -56.8451,228.452 -56.8451,228.452 -76.4058,342.901 -85.7276,397.444"/>
<polygon fill="#000000" stroke="#000000" points="-82.3119,398.234 -87.4467,407.502 -89.2119,397.055 -82.3119,398.234"/>
</g>
<!-- Metamodel::EnumHOW&#45;&gt;Metamodel::Naming -->
<g id="edge26" class="edge"><title>Metamodel::EnumHOW&#45;&gt;Metamodel::Naming</title>
<path fill="none" stroke="#6666ff" d="M-168.79,15.1132C-115.446,8.36799 -46.6961,-0.325413 7.07718,-7.12498"/>
<polygon fill="#6666ff" stroke="#6666ff" points="6.91922,-10.6328 17.2793,-8.41502 7.79743,-3.68809 6.91922,-10.6328"/>
</g>
<!-- Metamodel::EnumHOW&#45;&gt;Metamodel::MultiMethodContainer -->
<g id="edge30" class="edge"><title>Metamodel::EnumHOW&#45;&gt;Metamodel::MultiMethodContainer</title>
<path fill="none" stroke="#6666ff" d="M-211.129,9.26902C-118.888,-26.9212 100.859,-113.138 202.648,-153.074"/>
<polygon fill="#6666ff" stroke="#6666ff" points="201.534,-156.397 212.122,-156.791 204.091,-149.88 201.534,-156.397"/>
</g>
<!-- Metamodel::EnumHOW&#45;&gt;Metamodel::AttributeContainer -->
<g id="edge28" class="edge"><title>Metamodel::EnumHOW&#45;&gt;Metamodel::AttributeContainer</title>
<path fill="none" stroke="#6666ff" d="M-247.492,43.7805C-236.159,79.2268 -210.869,158.322 -197.354,200.593"/>
<polygon fill="#6666ff" stroke="#6666ff" points="-193.977,199.662 -194.265,210.253 -200.644,201.794 -193.977,199.662"/>
</g>
<!-- Metamodel::EnumHOW&#45;&gt;Metamodel::RoleContainer -->
<g id="edge31" class="edge"><title>Metamodel::EnumHOW&#45;&gt;Metamodel::RoleContainer</title>
<path fill="none" stroke="#6666ff" d="M-149.911,28.8873C-69.1243,31.307 43.4524,34.6789 129.055,37.2428"/>
<polygon fill="#6666ff" stroke="#6666ff" points="129.202,33.7456 139.093,37.5435 128.992,40.7424 129.202,33.7456"/>
</g>
<!-- Metamodel::EnumHOW&#45;&gt;Metamodel::Stashing -->
<g id="edge27" class="edge"><title>Metamodel::EnumHOW&#45;&gt;Metamodel::Stashing</title>
<path fill="none" stroke="#6666ff" d="M-244.075,7.6453C-225.519,-29.083 -185.26,-108.765 -185.26,-108.765 -185.26,-108.765 -62.1161,-167.913 6.14593,-200.7"/>
<polygon fill="#6666ff" stroke="#6666ff" points="4.8657,-203.968 15.3952,-205.142 7.89646,-197.658 4.8657,-203.968"/>
</g>
<!-- Metamodel::EnumHOW&#45;&gt;Metamodel::BaseType -->
<g id="edge32" class="edge"><title>Metamodel::EnumHOW&#45;&gt;Metamodel::BaseType</title>
<path fill="none" stroke="#6666ff" d="M-259.17,43.7841C-275.513,93.4021 -320.021,228.532 -320.021,228.532 -320.021,228.532 -353.047,337.494 -369.028,390.219"/>
<polygon fill="#6666ff" stroke="#6666ff" points="-365.732,391.411 -371.982,399.966 -372.431,389.38 -365.732,391.411"/>
</g>
<!-- Metamodel::EnumHOW&#45;&gt;Metamodel::MROBasedMethodDispatch -->
<g id="edge33" class="edge"><title>Metamodel::EnumHOW&#45;&gt;Metamodel::MROBasedMethodDispatch</title>
<path fill="none" stroke="#6666ff" d="M-281.622,8.3647C-320.246,-15.3552 -389.469,-57.867 -432.476,-84.2785"/>
<polygon fill="#6666ff" stroke="#6666ff" points="-434.545,-81.4418 -441.235,-89.6575 -430.882,-87.4068 -434.545,-81.4418"/>
</g>
<!-- Metamodel::EnumHOW&#45;&gt;Metamodel::MROBasedTypeChecking -->
<g id="edge34" class="edge"><title>Metamodel::EnumHOW&#45;&gt;Metamodel::MROBasedTypeChecking</title>
<path fill="none" stroke="#6666ff" d="M-267.158,43.8452C-296.007,81.2763 -359.675,163.883 -359.675,163.883 -359.675,163.883 -580.233,295.517 -671.157,349.783"/>
<polygon fill="#6666ff" stroke="#6666ff" points="-669.416,352.82 -679.796,354.939 -673.003,346.809 -669.416,352.82"/>
</g>
<!-- Metamodel::EnumHOW&#45;&gt;Metamodel::BUILDPLAN -->
<g id="edge35" class="edge"><title>Metamodel::EnumHOW&#45;&gt;Metamodel::BUILDPLAN</title>
<path fill="none" stroke="#6666ff" d="M-357.969,26.3049C-433.875,26.6765 -536.665,27.1796 -615.882,27.5674"/>
<polygon fill="#6666ff" stroke="#6666ff" points="-615.896,31.0674 -625.913,27.6165 -615.93,24.0675 -615.896,31.0674"/>
</g>
<!-- Metamodel::EnumHOW&#45;&gt;Metamodel::BoolificationProtocol -->
<g id="edge36" class="edge"><title>Metamodel::EnumHOW&#45;&gt;Metamodel::BoolificationProtocol</title>
<path fill="none" stroke="#6666ff" d="M-252.241,7.61144C-250.189,-29.6071 -245.498,-114.71 -243.046,-159.19"/>
<polygon fill="#6666ff" stroke="#6666ff" points="-246.533,-159.522 -242.487,-169.314 -239.543,-159.137 -246.533,-159.522"/>
</g>
<!-- Metamodel::Finalization -->
<g id="node23" class="node"><title>Metamodel::Finalization</title>
<g id="a_node23"><a xlink:href="/type/Metamodel::Finalization" xlink:title="Metamodel::Finalization">
<ellipse fill="none" stroke="#6666ff" cx="-394.25" cy="-375.433" rx="103.982" ry="18"/>
<text text-anchor="middle" x="-394.25" y="-371.733" font-family="FreeSans" font-size="14.00" fill="#6666ff">Metamodel::Finalization</text>
</a>
</g>
</g>
<!-- Metamodel::DefaultParent -->
<g id="node24" class="node"><title>Metamodel::DefaultParent</title>
<g id="a_node24"><a xlink:href="/type/Metamodel::DefaultParent" xlink:title="Metamodel::DefaultParent">
<ellipse fill="none" stroke="#6666ff" cx="-106.943" cy="-385.483" rx="113.18" ry="18"/>
<text text-anchor="middle" x="-106.943" y="-381.783" font-family="FreeSans" font-size="14.00" fill="#6666ff">Metamodel::DefaultParent</text>
</a>
</g>
</g>
<!-- Metamodel::C3MRO -->
<g id="node25" class="node"><title>Metamodel::C3MRO</title>
<g id="a_node25"><a xlink:href="/type/Metamodel::C3MRO" xlink:title="Metamodel::C3MRO">
<ellipse fill="none" stroke="#6666ff" cx="-715.543" cy="-323.802" rx="92.0841" ry="18"/>
<text text-anchor="middle" x="-715.543" y="-320.102" font-family="FreeSans" font-size="14.00" fill="#6666ff">Metamodel::C3MRO</text>
</a>
</g>
</g>
<!-- Metamodel::Trusting -->
<g id="node26" class="node"><title>Metamodel::Trusting</title>
<g id="a_node26"><a xlink:href="/type/Metamodel::Trusting" xlink:title="Metamodel::Trusting">
<ellipse fill="none" stroke="#6666ff" cx="-452.913" cy="164.07" rx="91.784" ry="18"/>
<text text-anchor="middle" x="-452.913" y="167.77" font-family="FreeSans" font-size="14.00" fill="#6666ff">Metamodel::Trusting</text>
</a>
</g>
</g>
<!-- Metamodel::Mixins -->
<g id="node27" class="node"><title>Metamodel::Mixins</title>
<g id="a_node27"><a xlink:href="/type/Metamodel::Mixins" xlink:title="Metamodel::Mixins">
<ellipse fill="none" stroke="#6666ff" cx="165.996" cy="-394.15" rx="85.2851" ry="18"/>
<text text-anchor="middle" x="165.996" y="-390.45" font-family="FreeSans" font-size="14.00" fill="#6666ff">Metamodel::Mixins</text>
</a>
</g>
</g>
<!-- Metamodel::ClassHOW -->
<g id="node28" class="node"><title>Metamodel::ClassHOW</title>
<g id="a_node28"><a xlink:href="/type/Metamodel::ClassHOW" xlink:title="Metamodel::ClassHOW">
<ellipse fill="none" stroke="#000000" cx="-79.6731" cy="-108.922" rx="103.982" ry="18"/>
<text text-anchor="middle" x="-79.6731" y="-105.222" font-family="FreeSans" font-size="14.00" fill="#000000">Metamodel::ClassHOW</text>
</a>
</g>
</g>
<!-- Metamodel::ClassHOW&#45;&gt;Metamodel::MethodContainer -->
<g id="edge43" class="edge"><title>Metamodel::ClassHOW&#45;&gt;Metamodel::MethodContainer</title>
<path fill="none" stroke="#6666ff" d="M-77.6837,-90.6889C-74.1165,-57.9948 -66.6106,10.7991 -62.3799,49.5739"/>
<polygon fill="#6666ff" stroke="#6666ff" points="-58.8849,49.3387 -61.2795,59.6594 -65.8436,50.098 -58.8849,49.3387"/>
</g>
<!-- Metamodel::ClassHOW&#45;&gt;Any -->
<g id="edge5" class="edge"><title>Metamodel::ClassHOW&#45;&gt;Any</title>
<path fill="none" stroke="#000000" d="M-88.7537,-90.7695C-107.132,-54.03 -147.005,25.676 -147.005,25.676 -147.005,25.676 -188.299,77.7848 -188.299,77.7848 -188.299,77.7848 -73.9196,211.75 -73.9196,211.75 -73.9196,211.75 -56.8451,228.452 -56.8451,228.452 -56.8451,228.452 -76.4058,342.901 -85.7276,397.444"/>
<polygon fill="#000000" stroke="#000000" points="-82.3119,398.234 -87.4467,407.502 -89.2119,397.055 -82.3119,398.234"/>
</g>
<!-- Metamodel::ClassHOW&#45;&gt;Metamodel::Naming -->
<g id="edge37" class="edge"><title>Metamodel::ClassHOW&#45;&gt;Metamodel::Naming</title>
<path fill="none" stroke="#6666ff" d="M-46.6347,-91.6237C-18.482,-76.8835 22.1139,-55.6283 52.4258,-39.7575"/>
<polygon fill="#6666ff" stroke="#6666ff" points="54.242,-42.7573 61.4776,-35.0181 50.995,-36.5559 54.242,-42.7573"/>
</g>
<!-- Metamodel::ClassHOW&#45;&gt;Metamodel::Documenting -->
<g id="edge38" class="edge"><title>Metamodel::ClassHOW&#45;&gt;Metamodel::Documenting</title>
<path fill="none" stroke="#6666ff" d="M-44.8346,-126.02C46.6865,-170.939 293.813,-292.227 394.957,-341.868"/>
<polygon fill="#6666ff" stroke="#6666ff" points="393.475,-345.039 403.994,-346.303 396.559,-338.755 393.475,-345.039"/>
</g>
<!-- Metamodel::ClassHOW&#45;&gt;Metamodel::Versioning -->
<g id="edge39" class="edge"><title>Metamodel::ClassHOW&#45;&gt;Metamodel::Versioning</title>
<path fill="none" stroke="#6666ff" d="M18.2278,-102.724C116.864,-96.4793 268.565,-86.8751 369.763,-80.4683"/>
<polygon fill="#6666ff" stroke="#6666ff" points="370.247,-83.9448 380.006,-79.8198 369.805,-76.9588 370.247,-83.9448"/>
</g>
<!-- Metamodel::ClassHOW&#45;&gt;Metamodel::PrivateMethodContainer -->
<g id="edge44" class="edge"><title>Metamodel::ClassHOW&#45;&gt;Metamodel::PrivateMethodContainer</title>
<path fill="none" stroke="#6666ff" d="M-65.3529,-91.0376C-27.9723,-44.353 69.6752,77.5986 69.6752,77.5986 69.6752,77.5986 75.9802,144.201 79.7013,183.51"/>
<polygon fill="#6666ff" stroke="#6666ff" points="83.1947,183.276 80.6528,193.561 76.2259,183.935 83.1947,183.276"/>
</g>
<!-- Metamodel::ClassHOW&#45;&gt;Metamodel::MultiMethodContainer -->
<g id="edge45" class="edge"><title>Metamodel::ClassHOW&#45;&gt;Metamodel::MultiMethodContainer</title>
<path fill="none" stroke="#6666ff" d="M-10.1029,-122.415C41.4497,-132.413 112.099,-146.115 167.658,-156.891"/>
<polygon fill="#6666ff" stroke="#6666ff" points="167.012,-160.331 177.496,-158.799 168.345,-153.459 167.012,-160.331"/>
</g>
<!-- Metamodel::ClassHOW&#45;&gt;Metamodel::AttributeContainer -->
<g id="edge41" class="edge"><title>Metamodel::ClassHOW&#45;&gt;Metamodel::AttributeContainer</title>
<path fill="none" stroke="#6666ff" d="M-88.7537,-90.7695C-107.132,-54.03 -147.005,25.676 -147.005,25.676 -147.005,25.676 -188.299,77.7848 -188.299,77.7848 -188.299,77.7848 -188.369,156.683 -188.408,200.306"/>
<polygon fill="#6666ff" stroke="#6666ff" points="-184.908,200.317 -188.417,210.313 -191.908,200.31 -184.908,200.317"/>
</g>
<!-- Metamodel::ClassHOW&#45;&gt;Metamodel::RoleContainer -->
<g id="edge46" class="edge"><title>Metamodel::ClassHOW&#45;&gt;Metamodel::RoleContainer</title>
<path fill="none" stroke="#6666ff" d="M-30.2924,-92.981C39.5139,-70.4462 158.65,-31.9868 158.65,-31.9868 158.65,-31.9868 185.747,-18.1425 185.747,-18.1425 185.747,-18.1425 206.578,0.199695 225.029,16.4461"/>
<polygon fill="#6666ff" stroke="#6666ff" points="227.531,13.9856 232.723,23.221 222.905,19.2392 227.531,13.9856"/>
</g>
<!-- Metamodel::ClassHOW&#45;&gt;Metamodel::MultipleInheritance -->
<g id="edge47" class="edge"><title>Metamodel::ClassHOW&#45;&gt;Metamodel::MultipleInheritance</title>
<path fill="none" stroke="#6666ff" d="M-63.5639,-90.9668C-39.8015,-64.4813 1.86409,-18.0409 1.86409,-18.0409 1.86409,-18.0409 242.979,112.713 341.605,166.196"/>
<polygon fill="#6666ff" stroke="#6666ff" points="343.292,163.129 350.414,170.973 339.955,169.283 343.292,163.129"/>
</g>
<!-- Metamodel::ClassHOW&#45;&gt;Metamodel::Stashing -->
<g id="edge40" class="edge"><title>Metamodel::ClassHOW&#45;&gt;Metamodel::Stashing</title>
<path fill="none" stroke="#6666ff" d="M-59.3452,-126.585C-37.4199,-145.637 -2.35673,-176.104 22.2272,-197.466"/>
<polygon fill="#6666ff" stroke="#6666ff" points="19.9666,-200.138 29.8108,-204.055 24.558,-194.854 19.9666,-200.138"/>
</g>
<!-- Metamodel::ClassHOW&#45;&gt;Metamodel::MROBasedMethodDispatch -->
<g id="edge50" class="edge"><title>Metamodel::ClassHOW&#45;&gt;Metamodel::MROBasedMethodDispatch</title>
<path fill="none" stroke="#6666ff" d="M-183.844,-108.547C-216.589,-108.429 -253.74,-108.295 -290.182,-108.164"/>
<polygon fill="#6666ff" stroke="#6666ff" points="-290.425,-104.663 -300.438,-108.127 -290.45,-111.663 -290.425,-104.663"/>
</g>
<!-- Metamodel::ClassHOW&#45;&gt;Metamodel::MROBasedTypeChecking -->
<g id="edge51" class="edge"><title>Metamodel::ClassHOW&#45;&gt;Metamodel::MROBasedTypeChecking</title>
<path fill="none" stroke="#6666ff" d="M-115.111,-91.8456C-190.404,-55.5646 -359.483,25.9085 -359.483,25.9085 -359.483,25.9085 -546.15,164.257 -546.15,164.257 -546.15,164.257 -645.206,290.582 -689.107,346.57"/>
<polygon fill="#6666ff" stroke="#6666ff" points="-686.487,348.9 -695.411,354.61 -691.995,344.581 -686.487,348.9"/>
</g>
<!-- Metamodel::ClassHOW&#45;&gt;Metamodel::BUILDPLAN -->
<g id="edge53" class="edge"><title>Metamodel::ClassHOW&#45;&gt;Metamodel::BUILDPLAN</title>
<path fill="none" stroke="#6666ff" d="M-146.205,-95.024C-268.307,-69.5178 -527.558,-15.3623 -657.788,11.8417"/>
<polygon fill="#6666ff" stroke="#6666ff" points="-657.194,15.2932 -667.699,13.912 -658.626,8.44112 -657.194,15.2932"/>
</g>
<!-- Metamodel::ClassHOW&#45;&gt;Metamodel::BoolificationProtocol -->
<g id="edge55" class="edge"><title>Metamodel::ClassHOW&#45;&gt;Metamodel::BoolificationProtocol</title>
<path fill="none" stroke="#6666ff" d="M-114.784,-125.961C-138.709,-137.572 -170.6,-153.048 -196.401,-165.569"/>
<polygon fill="#6666ff" stroke="#6666ff" points="-198.137,-162.521 -205.606,-170.036 -195.081,-168.819 -198.137,-162.521"/>
</g>
<!-- Metamodel::ClassHOW&#45;&gt;Metamodel::Finalization -->
<g id="edge42" class="edge"><title>Metamodel::ClassHOW&#45;&gt;Metamodel::Finalization</title>
<path fill="none" stroke="#6666ff" d="M-84.5732,-127.144C-90.8144,-150.353 -100.8,-187.487 -100.8,-187.487 -100.8,-187.487 -279.98,-302.247 -358.315,-352.418"/>
<polygon fill="#6666ff" stroke="#6666ff" points="-360.373,-349.58 -366.906,-357.92 -356.598,-355.474 -360.373,-349.58"/>
</g>
<!-- Metamodel::ClassHOW&#45;&gt;Metamodel::DefaultParent -->
<g id="edge48" class="edge"><title>Metamodel::ClassHOW&#45;&gt;Metamodel::DefaultParent</title>
<path fill="none" stroke="#6666ff" d="M-81.4623,-127.068C-86.1042,-174.145 -98.5599,-300.467 -104.155,-357.206"/>
<polygon fill="#6666ff" stroke="#6666ff" points="-107.649,-356.975 -105.147,-367.27 -100.682,-357.662 -107.649,-356.975"/>
</g>
<!-- Metamodel::ClassHOW&#45;&gt;Metamodel::C3MRO -->
<g id="edge49" class="edge"><title>Metamodel::ClassHOW&#45;&gt;Metamodel::C3MRO</title>
<path fill="none" stroke="#6666ff" d="M-139.575,-123.752C-216.661,-142.836 -340.774,-173.563 -340.774,-173.563 -340.774,-173.563 -382.175,-187.411 -382.175,-187.411 -382.175,-187.411 -573.402,-265.647 -666.194,-303.611"/>
<polygon fill="#6666ff" stroke="#6666ff" points="-667.733,-300.459 -675.663,-307.485 -665.082,-306.938 -667.733,-300.459"/>
</g>
<!-- Metamodel::ClassHOW&#45;&gt;Metamodel::Trusting -->
<g id="edge52" class="edge"><title>Metamodel::ClassHOW&#45;&gt;Metamodel::Trusting</title>
<path fill="none" stroke="#6666ff" d="M-115.111,-91.8456C-190.404,-55.5646 -359.483,25.9085 -359.483,25.9085 -359.483,25.9085 -407.79,97.3435 -434.933,137.482"/>
<polygon fill="#6666ff" stroke="#6666ff" points="-432.197,139.684 -440.698,146.008 -437.996,135.763 -432.197,139.684"/>
</g>
<!-- Metamodel::ClassHOW&#45;&gt;Metamodel::Mixins -->
<g id="edge54" class="edge"><title>Metamodel::ClassHOW&#45;&gt;Metamodel::Mixins</title>
<path fill="none" stroke="#6666ff" d="M-74.0643,-127.063C-64.1964,-158.979 -44.7641,-221.83 -44.7641,-221.83 -44.7641,-221.83 78.6122,-322.704 136.573,-370.093"/>
<polygon fill="#6666ff" stroke="#6666ff" points="134.67,-373.058 144.627,-376.679 139.101,-367.639 134.67,-373.058"/>
</g>
</g>
</svg>
