<?xml version="1.0" encoding="UTF-8" standalone="no"?>
<!DOCTYPE svg PUBLIC "-//W3C//DTD SVG 1.1//EN"
 "http://www.w3.org/Graphics/SVG/1.1/DTD/svg11.dtd">
<!-- Generated by graphviz version 2.38.0 (20140413.2041)
 -->
<!-- Title: perl6&#45;type&#45;graph Pages: 1 -->
<svg width="285pt" height="404pt"
 viewBox="0.00 0.00 284.88 404.00" xmlns="http://www.w3.org/2000/svg" xmlns:xlink="http://www.w3.org/1999/xlink">
<g id="graph0" class="graph" transform="scale(1 1) rotate(0) translate(4 400)">
<title>perl6&#45;type&#45;graph</title>
<polygon fill="white" stroke="none" points="-4,4 -4,-400 280.875,-400 280.875,4 -4,4"/>
<!-- X::Syntax::Comment::Embedded -->
<g id="node1" class="node"><title>X::Syntax::Comment::Embedded</title>
<g id="a_node1"><a xlink:href="/type/X::Syntax::Comment::Embedded" xlink:title="X::Syntax::Comment::Embedded">
<ellipse fill="none" stroke="#000000" cx="138.438" cy="-18" rx="138.375" ry="18"/>
<text text-anchor="middle" x="138.438" y="-14.3" font-family="FreeSans" font-size="14.00" fill="#000000">X::Syntax::Comment::Embedded</text>
</a>
</g>
</g>
<!-- Exception -->
<g id="node4" class="node"><title>Exception</title>
<g id="a_node4"><a xlink:href="/type/Exception" xlink:title="Exception">
<ellipse fill="none" stroke="#000000" cx="138.438" cy="-234" rx="49.2915" ry="18"/>
<text text-anchor="middle" x="138.438" y="-230.3" font-family="FreeSans" font-size="14.00" fill="#000000">Exception</text>
</a>
</g>
</g>
<!-- X::Syntax::Comment::Embedded&#45;&gt;Exception -->
<g id="edge1" class="edge"><title>X::Syntax::Comment::Embedded&#45;&gt;Exception</title>
<path fill="none" stroke="#000000" d="M132.321,-36.0613C126.767,-51.5549 119.438,-72 119.438,-72 119.438,-72 119.438,-108 119.438,-108 119.438,-108 128.711,-169.008 134.301,-205.782"/>
<polygon fill="#000000" stroke="#000000" points="130.873,-206.521 135.836,-215.881 137.793,-205.469 130.873,-206.521"/>
</g>
<!-- X::Syntax -->
<g id="node6" class="node"><title>X::Syntax</title>
<g id="a_node6"><a xlink:href="/type/X::Syntax" xlink:title="X::Syntax">
<ellipse fill="none" stroke="#6666ff" cx="176.438" cy="-90" rx="48.1917" ry="18"/>
<text text-anchor="middle" x="176.438" y="-86.3" font-family="FreeSans" font-size="14.00" fill="#6666ff">X::Syntax</text>
</a>
</g>
</g>
<!-- X::Syntax::Comment::Embedded&#45;&gt;X::Syntax -->
<g id="edge6" class="edge"><title>X::Syntax::Comment::Embedded&#45;&gt;X::Syntax</title>
<path fill="none" stroke="#6666ff" d="M147.831,-36.3034C152.203,-44.3564 157.495,-54.1055 162.333,-63.0176"/>
<polygon fill="#6666ff" stroke="#6666ff" points="159.306,-64.777 167.153,-71.8957 165.458,-61.4373 159.306,-64.777"/>
</g>
<!-- Mu -->
<g id="node2" class="node"><title>Mu</title>
<g id="a_node2"><a xlink:href="/type/Mu" xlink:title="Mu">
<ellipse fill="none" stroke="#000000" cx="138.438" cy="-378" rx="27" ry="18"/>
<text text-anchor="middle" x="138.438" y="-374.3" font-family="FreeSans" font-size="14.00" fill="#000000">Mu</text>
</a>
</g>
</g>
<!-- Any -->
<g id="node3" class="node"><title>Any</title>
<g id="a_node3"><a xlink:href="/type/Any" xlink:title="Any">
<ellipse fill="none" stroke="#000000" cx="138.438" cy="-306" rx="27" ry="18"/>
<text text-anchor="middle" x="138.438" y="-302.3" font-family="FreeSans" font-size="14.00" fill="#000000">Any</text>
</a>
</g>
</g>
<!-- Any&#45;&gt;Mu -->
<g id="edge2" class="edge"><title>Any&#45;&gt;Mu</title>
<path fill="none" stroke="#000000" d="M138.438,-324.303C138.438,-332.017 138.438,-341.288 138.438,-349.888"/>
<polygon fill="#000000" stroke="#000000" points="134.938,-349.896 138.438,-359.896 141.938,-349.896 134.938,-349.896"/>
</g>
<!-- Exception&#45;&gt;Any -->
<g id="edge3" class="edge"><title>Exception&#45;&gt;Any</title>
<path fill="none" stroke="#000000" d="M138.438,-252.303C138.438,-260.017 138.438,-269.288 138.438,-277.888"/>
<polygon fill="#000000" stroke="#000000" points="134.938,-277.896 138.438,-287.896 141.938,-277.896 134.938,-277.896"/>
</g>
<!-- X::Comp -->
<g id="node5" class="node"><title>X::Comp</title>
<g id="a_node5"><a xlink:href="/type/X::Comp" xlink:title="X::Comp">
<ellipse fill="none" stroke="#6666ff" cx="211.438" cy="-162" rx="44.6926" ry="18"/>
<text text-anchor="middle" x="211.438" y="-158.3" font-family="FreeSans" font-size="14.00" fill="#6666ff">X::Comp</text>
</a>
</g>
</g>
<!-- X::Comp&#45;&gt;Exception -->
<g id="edge4" class="edge"><title>X::Comp&#45;&gt;Exception</title>
<path fill="none" stroke="#000000" d="M194.873,-178.884C185.327,-188.038 173.157,-199.707 162.564,-209.865"/>
<polygon fill="#000000" stroke="#000000" points="159.985,-207.489 155.19,-216.936 164.83,-212.541 159.985,-207.489"/>
</g>
<!-- X::Syntax&#45;&gt;Exception -->
<g id="edge5" class="edge"><title>X::Syntax&#45;&gt;Exception</title>
<path fill="none" stroke="#000000" d="M170.321,-108.061C164.767,-123.555 157.438,-144 157.438,-144 157.438,-144 149.788,-179.833 144.196,-206.025"/>
<polygon fill="#000000" stroke="#000000" points="140.766,-205.33 142.101,-215.84 147.612,-206.791 140.766,-205.33"/>
</g>
<!-- X::Syntax&#45;&gt;X::Comp -->
<g id="edge7" class="edge"><title>X::Syntax&#45;&gt;X::Comp</title>
<path fill="none" stroke="#6666ff" d="M184.91,-107.945C188.994,-116.113 193.982,-126.088 198.526,-135.176"/>
<polygon fill="#6666ff" stroke="#6666ff" points="195.441,-136.832 203.043,-144.211 201.702,-133.701 195.441,-136.832"/>
</g>
</g>
</svg>
