<?xml version="1.0" encoding="UTF-8" standalone="no"?>
<!DOCTYPE svg PUBLIC "-//W3C//DTD SVG 1.1//EN"
 "http://www.w3.org/Graphics/SVG/1.1/DTD/svg11.dtd">
<!-- Generated by graphviz version 2.38.0 (20140413.2041)
 -->
<!-- Title: perl6&#45;type&#45;graph Pages: 1 -->
<svg width="129pt" height="260pt"
 viewBox="0.00 0.00 128.89 260.00" xmlns="http://www.w3.org/2000/svg" xmlns:xlink="http://www.w3.org/1999/xlink">
<g id="graph0" class="graph" transform="scale(1 1) rotate(0) translate(4 256)">
<title>perl6&#45;type&#45;graph</title>
<polygon fill="white" stroke="none" points="-4,4 -4,-256 124.889,-256 124.889,4 -4,4"/>
<!-- X::StubCode -->
<g id="node1" class="node"><title>X::StubCode</title>
<g id="a_node1"><a xlink:href="/type/X::StubCode" xlink:title="X::StubCode">
<ellipse fill="none" stroke="#000000" cx="60.4446" cy="-18" rx="60.3893" ry="18"/>
<text text-anchor="middle" x="60.4446" y="-14.3" font-family="FreeSans" font-size="14.00" fill="#000000">X::StubCode</text>
</a>
</g>
</g>
<!-- Exception -->
<g id="node4" class="node"><title>Exception</title>
<g id="a_node4"><a xlink:href="/type/Exception" xlink:title="Exception">
<ellipse fill="none" stroke="#000000" cx="60.4446" cy="-90" rx="49.2915" ry="18"/>
<text text-anchor="middle" x="60.4446" y="-86.3" font-family="FreeSans" font-size="14.00" fill="#000000">Exception</text>
</a>
</g>
</g>
<!-- X::StubCode&#45;&gt;Exception -->
<g id="edge1" class="edge"><title>X::StubCode&#45;&gt;Exception</title>
<path fill="none" stroke="#000000" d="M60.4446,-36.3034C60.4446,-44.0173 60.4446,-53.2875 60.4446,-61.8876"/>
<polygon fill="#000000" stroke="#000000" points="56.9447,-61.8956 60.4446,-71.8957 63.9447,-61.8957 56.9447,-61.8956"/>
</g>
<!-- Mu -->
<g id="node2" class="node"><title>Mu</title>
<g id="a_node2"><a xlink:href="/type/Mu" xlink:title="Mu">
<ellipse fill="none" stroke="#000000" cx="60.4446" cy="-234" rx="27" ry="18"/>
<text text-anchor="middle" x="60.4446" y="-230.3" font-family="FreeSans" font-size="14.00" fill="#000000">Mu</text>
</a>
</g>
</g>
<!-- Any -->
<g id="node3" class="node"><title>Any</title>
<g id="a_node3"><a xlink:href="/type/Any" xlink:title="Any">
<ellipse fill="none" stroke="#000000" cx="60.4446" cy="-162" rx="27" ry="18"/>
<text text-anchor="middle" x="60.4446" y="-158.3" font-family="FreeSans" font-size="14.00" fill="#000000">Any</text>
</a>
</g>
</g>
<!-- Any&#45;&gt;Mu -->
<g id="edge2" class="edge"><title>Any&#45;&gt;Mu</title>
<path fill="none" stroke="#000000" d="M60.4446,-180.303C60.4446,-188.017 60.4446,-197.288 60.4446,-205.888"/>
<polygon fill="#000000" stroke="#000000" points="56.9447,-205.896 60.4446,-215.896 63.9447,-205.896 56.9447,-205.896"/>
</g>
<!-- Exception&#45;&gt;Any -->
<g id="edge3" class="edge"><title>Exception&#45;&gt;Any</title>
<path fill="none" stroke="#000000" d="M60.4446,-108.303C60.4446,-116.017 60.4446,-125.288 60.4446,-133.888"/>
<polygon fill="#000000" stroke="#000000" points="56.9447,-133.896 60.4446,-143.896 63.9447,-133.896 56.9447,-133.896"/>
</g>
</g>
</svg>
