<?xml version="1.0" encoding="UTF-8" standalone="no"?>
<!DOCTYPE svg PUBLIC "-//W3C//DTD SVG 1.1//EN"
 "http://www.w3.org/Graphics/SVG/1.1/DTD/svg11.dtd">
<!-- Generated by graphviz version 2.38.0 (20140413.2041)
 -->
<!-- Title: perl6&#45;type&#45;graph Pages: 1 -->
<svg width="1970pt" height="1123pt"
 viewBox="0.00 0.00 1969.61 1122.88" xmlns="http://www.w3.org/2000/svg" xmlns:xlink="http://www.w3.org/1999/xlink">
<g id="graph0" class="graph" transform="scale(1 1) rotate(0) translate(952.397 544.11)">
<title>perl6&#45;type&#45;graph</title>
<polygon fill="white" stroke="none" points="-952.397,578.766 -952.397,-544.11 1017.22,-544.11 1017.22,578.766 -952.397,578.766"/>
<!-- Metamodel::AttributeContainer -->
<g id="node1" class="node"><title>Metamodel::AttributeContainer</title>
<g id="a_node1"><a xlink:href="/type/Metamodel::AttributeContainer" xlink:title="Metamodel::AttributeContainer">
<ellipse fill="none" stroke="#6666ff" cx="244.695" cy="-81.4105" rx="129.977" ry="18"/>
<text text-anchor="middle" x="244.695" y="-77.7105" font-family="FreeSans" font-size="14.00" fill="#6666ff">Metamodel::AttributeContainer</text>
</a>
</g>
</g>
<!-- Mu -->
<g id="node2" class="node"><title>Mu</title>
<g id="a_node2"><a xlink:href="/type/Mu" xlink:title="Mu">
<ellipse fill="none" stroke="#000000" cx="877.013" cy="480.272" rx="27" ry="18"/>
<text text-anchor="middle" x="877.013" y="483.972" font-family="FreeSans" font-size="14.00" fill="#000000">Mu</text>
</a>
</g>
</g>
<!-- Any -->
<g id="node3" class="node"><title>Any</title>
<g id="a_node3"><a xlink:href="/type/Any" xlink:title="Any">
<ellipse fill="none" stroke="#000000" cx="534.024" cy="259.62" rx="27" ry="18"/>
<text text-anchor="middle" x="534.024" y="263.32" font-family="FreeSans" font-size="14.00" fill="#000000">Any</text>
</a>
</g>
</g>
<!-- Any&#45;&gt;Mu -->
<g id="edge1" class="edge"><title>Any&#45;&gt;Mu</title>
<path fill="none" stroke="#000000" d="M553.947,272.437C612.1,309.848 781.742,418.982 849.037,462.274"/>
<polygon fill="#000000" stroke="#000000" points="850.946,459.34 857.463,467.694 847.159,465.227 850.946,459.34"/>
</g>
<!-- Metamodel::Naming -->
<g id="node4" class="node"><title>Metamodel::Naming</title>
<g id="a_node4"><a xlink:href="/type/Metamodel::Naming" xlink:title="Metamodel::Naming">
<ellipse fill="none" stroke="#6666ff" cx="5.2612" cy="25.4244" rx="90.1842" ry="18"/>
<text text-anchor="middle" x="5.2612" y="29.1244" font-family="FreeSans" font-size="14.00" fill="#6666ff">Metamodel::Naming</text>
</a>
</g>
</g>
<!-- Metamodel::Versioning -->
<g id="node5" class="node"><title>Metamodel::Versioning</title>
<g id="a_node5"><a xlink:href="/type/Metamodel::Versioning" xlink:title="Metamodel::Versioning">
<ellipse fill="none" stroke="#6666ff" cx="259.034" cy="-461.529" rx="100.983" ry="18"/>
<text text-anchor="middle" x="259.034" y="-457.829" font-family="FreeSans" font-size="14.00" fill="#6666ff">Metamodel::Versioning</text>
</a>
</g>
</g>
<!-- Metamodel::PrivateMethodContainer -->
<g id="node6" class="node"><title>Metamodel::PrivateMethodContainer</title>
<g id="a_node6"><a xlink:href="/type/Metamodel::PrivateMethodContainer" xlink:title="Metamodel::PrivateMethodContainer">
<ellipse fill="none" stroke="#6666ff" cx="9.24468" cy="-509.036" rx="154.873" ry="18"/>
<text text-anchor="middle" x="9.24468" y="-505.336" font-family="FreeSans" font-size="14.00" fill="#6666ff">Metamodel::PrivateMethodContainer</text>
</a>
</g>
</g>
<!-- Metamodel::MethodContainer -->
<g id="node7" class="node"><title>Metamodel::MethodContainer</title>
<g id="a_node7"><a xlink:href="/type/Metamodel::MethodContainer" xlink:title="Metamodel::MethodContainer">
<ellipse fill="none" stroke="#6666ff" cx="-115.267" cy="271.95" rx="127.277" ry="18"/>
<text text-anchor="middle" x="-115.267" y="275.65" font-family="FreeSans" font-size="14.00" fill="#6666ff">Metamodel::MethodContainer</text>
</a>
</g>
</g>
<!-- Metamodel::MultiMethodContainer -->
<g id="node8" class="node"><title>Metamodel::MultiMethodContainer</title>
<g id="a_node8"><a xlink:href="/type/Metamodel::MultiMethodContainer" xlink:title="Metamodel::MultiMethodContainer">
<ellipse fill="none" stroke="#6666ff" cx="450.687" cy="47.1737" rx="146.474" ry="18"/>
<text text-anchor="middle" x="450.687" y="50.8737" font-family="FreeSans" font-size="14.00" fill="#6666ff">Metamodel::MultiMethodContainer</text>
</a>
</g>
</g>
<!-- Metamodel::RoleContainer -->
<g id="node9" class="node"><title>Metamodel::RoleContainer</title>
<g id="a_node9"><a xlink:href="/type/Metamodel::RoleContainer" xlink:title="Metamodel::RoleContainer">
<ellipse fill="none" stroke="#6666ff" cx="195.406" cy="226.216" rx="115.88" ry="18"/>
<text text-anchor="middle" x="195.406" y="229.916" font-family="FreeSans" font-size="14.00" fill="#6666ff">Metamodel::RoleContainer</text>
</a>
</g>
</g>
<!-- Metamodel::MultipleInheritance -->
<g id="node10" class="node"><title>Metamodel::MultipleInheritance</title>
<g id="a_node10"><a xlink:href="/type/Metamodel::MultipleInheritance" xlink:title="Metamodel::MultipleInheritance">
<ellipse fill="none" stroke="#6666ff" cx="70.319" cy="-225.619" rx="133.776" ry="18"/>
<text text-anchor="middle" x="70.319" y="-221.919" font-family="FreeSans" font-size="14.00" fill="#6666ff">Metamodel::MultipleInheritance</text>
</a>
</g>
</g>
<!-- Metamodel::ConcreteRoleHOW -->
<g id="node11" class="node"><title>Metamodel::ConcreteRoleHOW</title>
<g id="a_node11"><a xlink:href="/type/Metamodel::ConcreteRoleHOW" xlink:title="Metamodel::ConcreteRoleHOW">
<ellipse fill="none" stroke="#000000" cx="877.38" cy="31.7405" rx="135.676" ry="18"/>
<text text-anchor="middle" x="877.38" y="35.4405" font-family="FreeSans" font-size="14.00" fill="#000000">Metamodel::ConcreteRoleHOW</text>
</a>
</g>
</g>
<!-- Metamodel::ConcreteRoleHOW&#45;&gt;Metamodel::AttributeContainer -->
<g id="edge11" class="edge"><title>Metamodel::ConcreteRoleHOW&#45;&gt;Metamodel::AttributeContainer</title>
<path fill="none" stroke="#6666ff" d="M796.285,17.2373C677.745,-3.96265 457.889,-43.2822 334.565,-65.3379"/>
<polygon fill="#6666ff" stroke="#6666ff" points="333.625,-61.9504 324.397,-67.1563 334.857,-68.8411 333.625,-61.9504"/>
</g>
<!-- Metamodel::ConcreteRoleHOW&#45;&gt;Any -->
<g id="edge2" class="edge"><title>Metamodel::ConcreteRoleHOW&#45;&gt;Any</title>
<path fill="none" stroke="#000000" d="M850.723,49.4323C787.067,91.6796 626.686,198.122 561.857,241.148"/>
<polygon fill="#000000" stroke="#000000" points="563.631,244.171 553.364,246.785 559.76,238.339 563.631,244.171"/>
</g>
<!-- Metamodel::ConcreteRoleHOW&#45;&gt;Metamodel::Naming -->
<g id="edge6" class="edge"><title>Metamodel::ConcreteRoleHOW&#45;&gt;Metamodel::Naming</title>
<path fill="none" stroke="#6666ff" d="M741.84,30.4193C616.644,29.199 449.934,27.5739 449.934,27.5739 449.934,27.5739 237.036,26.5448 105.864,25.9107"/>
<polygon fill="#6666ff" stroke="#6666ff" points="105.766,29.4104 95.7834,25.862 105.8,22.4104 105.766,29.4104"/>
</g>
<!-- Metamodel::ConcreteRoleHOW&#45;&gt;Metamodel::Versioning -->
<g id="edge7" class="edge"><title>Metamodel::ConcreteRoleHOW&#45;&gt;Metamodel::Versioning</title>
<path fill="none" stroke="#6666ff" d="M860.974,13.6881C812.4,-39.7629 672.681,-193.51 672.681,-193.51 672.681,-193.51 394.559,-373.716 294.423,-438.598"/>
<polygon fill="#6666ff" stroke="#6666ff" points="292.345,-435.775 285.856,-444.15 296.151,-441.649 292.345,-435.775"/>
</g>
<!-- Metamodel::ConcreteRoleHOW&#45;&gt;Metamodel::PrivateMethodContainer -->
<g id="edge8" class="edge"><title>Metamodel::ConcreteRoleHOW&#45;&gt;Metamodel::PrivateMethodContainer</title>
<path fill="none" stroke="#6666ff" d="M839.139,14.282C723.41,-38.5537 384.819,-193.136 384.819,-193.136 384.819,-193.136 126.353,-410.534 38.2532,-484.636"/>
<polygon fill="#6666ff" stroke="#6666ff" points="35.9132,-482.031 30.5133,-491.147 40.4191,-487.388 35.9132,-482.031"/>
</g>
<!-- Metamodel::ConcreteRoleHOW&#45;&gt;Metamodel::MethodContainer -->
<g id="edge9" class="edge"><title>Metamodel::ConcreteRoleHOW&#45;&gt;Metamodel::MethodContainer</title>
<path fill="none" stroke="#6666ff" d="M810.822,47.4556C624.684,91.4053 112.301,212.385 112.301,212.385 112.301,212.385 21.9386,236.037 -44.9041,253.533"/>
<polygon fill="#6666ff" stroke="#6666ff" points="-44.0216,256.92 -54.5819,256.066 -45.7941,250.148 -44.0216,256.92"/>
</g>
<!-- Metamodel::ConcreteRoleHOW&#45;&gt;Metamodel::MultiMethodContainer -->
<g id="edge10" class="edge"><title>Metamodel::ConcreteRoleHOW&#45;&gt;Metamodel::MultiMethodContainer</title>
<path fill="none" stroke="#6666ff" d="M746.167,36.4864C700.321,38.1446 648.504,40.0188 601.208,41.7295"/>
<polygon fill="#6666ff" stroke="#6666ff" points="601.308,45.228 591.188,42.0919 601.055,38.2326 601.308,45.228"/>
</g>
<!-- Metamodel::ConcreteRoleHOW&#45;&gt;Metamodel::RoleContainer -->
<g id="edge12" class="edge"><title>Metamodel::ConcreteRoleHOW&#45;&gt;Metamodel::RoleContainer</title>
<path fill="none" stroke="#6666ff" d="M820.116,48.0703C694.214,83.9731 393.978,169.59 260.871,207.548"/>
<polygon fill="#6666ff" stroke="#6666ff" points="261.773,210.93 251.197,210.307 259.854,204.198 261.773,210.93"/>
</g>
<!-- Metamodel::ConcreteRoleHOW&#45;&gt;Metamodel::MultipleInheritance -->
<g id="edge13" class="edge"><title>Metamodel::ConcreteRoleHOW&#45;&gt;Metamodel::MultipleInheritance</title>
<path fill="none" stroke="#6666ff" d="M825.048,15.0528C682.179,-30.5062 285.918,-156.868 132.295,-205.856"/>
<polygon fill="#6666ff" stroke="#6666ff" points="130.996,-202.596 122.532,-208.969 133.123,-209.265 130.996,-202.596"/>
</g>
<!-- Metamodel::Documenting -->
<g id="node12" class="node"><title>Metamodel::Documenting</title>
<g id="a_node12"><a xlink:href="/type/Metamodel::Documenting" xlink:title="Metamodel::Documenting">
<ellipse fill="none" stroke="#6666ff" cx="-255.783" cy="-522.11" rx="111.28" ry="18"/>
<text text-anchor="middle" x="-255.783" y="-518.41" font-family="FreeSans" font-size="14.00" fill="#6666ff">Metamodel::Documenting</text>
</a>
</g>
</g>
<!-- Metamodel::Stashing -->
<g id="node13" class="node"><title>Metamodel::Stashing</title>
<g id="a_node13"><a xlink:href="/type/Metamodel::Stashing" xlink:title="Metamodel::Stashing">
<ellipse fill="none" stroke="#6666ff" cx="-196.551" cy="-214.657" rx="93.6835" ry="18"/>
<text text-anchor="middle" x="-196.551" y="-210.957" font-family="FreeSans" font-size="14.00" fill="#6666ff">Metamodel::Stashing</text>
</a>
</g>
</g>
<!-- Metamodel::Finalization -->
<g id="node14" class="node"><title>Metamodel::Finalization</title>
<g id="a_node14"><a xlink:href="/type/Metamodel::Finalization" xlink:title="Metamodel::Finalization">
<ellipse fill="none" stroke="#6666ff" cx="-491.409" cy="-420.648" rx="103.982" ry="18"/>
<text text-anchor="middle" x="-491.409" y="-416.948" font-family="FreeSans" font-size="14.00" fill="#6666ff">Metamodel::Finalization</text>
</a>
</g>
</g>
<!-- Metamodel::DefaultParent -->
<g id="node15" class="node"><title>Metamodel::DefaultParent</title>
<g id="a_node15"><a xlink:href="/type/Metamodel::DefaultParent" xlink:title="Metamodel::DefaultParent">
<ellipse fill="none" stroke="#6666ff" cx="-835.307" cy="-487.343" rx="113.18" ry="18"/>
<text text-anchor="middle" x="-835.307" y="-483.643" font-family="FreeSans" font-size="14.00" fill="#6666ff">Metamodel::DefaultParent</text>
</a>
</g>
</g>
<!-- Metamodel::C3MRO -->
<g id="node16" class="node"><title>Metamodel::C3MRO</title>
<g id="a_node16"><a xlink:href="/type/Metamodel::C3MRO" xlink:title="Metamodel::C3MRO">
<ellipse fill="none" stroke="#6666ff" cx="-838.461" cy="176.539" rx="92.0841" ry="18"/>
<text text-anchor="middle" x="-838.461" y="180.239" font-family="FreeSans" font-size="14.00" fill="#6666ff">Metamodel::C3MRO</text>
</a>
</g>
</g>
<!-- Metamodel::MROBasedMethodDispatch -->
<g id="node17" class="node"><title>Metamodel::MROBasedMethodDispatch</title>
<g id="a_node17"><a xlink:href="/type/Metamodel::MROBasedMethodDispatch" xlink:title="Metamodel::MROBasedMethodDispatch">
<ellipse fill="none" stroke="#6666ff" cx="-100.179" cy="556.766" rx="169.77" ry="18"/>
<text text-anchor="middle" x="-100.179" y="560.466" font-family="FreeSans" font-size="14.00" fill="#6666ff">Metamodel::MROBasedMethodDispatch</text>
</a>
</g>
</g>
<!-- Metamodel::MROBasedTypeChecking -->
<g id="node18" class="node"><title>Metamodel::MROBasedTypeChecking</title>
<g id="a_node18"><a xlink:href="/type/Metamodel::MROBasedTypeChecking" xlink:title="Metamodel::MROBasedTypeChecking">
<ellipse fill="none" stroke="#6666ff" cx="-454.147" cy="234.089" rx="163.271" ry="18"/>
<text text-anchor="middle" x="-454.147" y="237.789" font-family="FreeSans" font-size="14.00" fill="#6666ff">Metamodel::MROBasedTypeChecking</text>
</a>
</g>
</g>
<!-- Metamodel::Trusting -->
<g id="node19" class="node"><title>Metamodel::Trusting</title>
<g id="a_node19"><a xlink:href="/type/Metamodel::Trusting" xlink:title="Metamodel::Trusting">
<ellipse fill="none" stroke="#6666ff" cx="-847.189" cy="-138.099" rx="91.784" ry="18"/>
<text text-anchor="middle" x="-847.189" y="-134.399" font-family="FreeSans" font-size="14.00" fill="#6666ff">Metamodel::Trusting</text>
</a>
</g>
</g>
<!-- Metamodel::BUILDPLAN -->
<g id="node20" class="node"><title>Metamodel::BUILDPLAN</title>
<g id="a_node20"><a xlink:href="/type/Metamodel::BUILDPLAN" xlink:title="Metamodel::BUILDPLAN">
<ellipse fill="none" stroke="#6666ff" cx="-818.438" cy="524.797" rx="109.681" ry="18"/>
<text text-anchor="middle" x="-818.438" y="528.497" font-family="FreeSans" font-size="14.00" fill="#6666ff">Metamodel::BUILDPLAN</text>
</a>
</g>
</g>
<!-- Metamodel::Mixins -->
<g id="node21" class="node"><title>Metamodel::Mixins</title>
<g id="a_node21"><a xlink:href="/type/Metamodel::Mixins" xlink:title="Metamodel::Mixins">
<ellipse fill="none" stroke="#6666ff" cx="-486.37" cy="-74.2551" rx="85.2851" ry="18"/>
<text text-anchor="middle" x="-486.37" y="-70.5551" font-family="FreeSans" font-size="14.00" fill="#6666ff">Metamodel::Mixins</text>
</a>
</g>
</g>
<!-- Metamodel::BoolificationProtocol -->
<g id="node22" class="node"><title>Metamodel::BoolificationProtocol</title>
<g id="a_node22"><a xlink:href="/type/Metamodel::BoolificationProtocol" xlink:title="Metamodel::BoolificationProtocol">
<ellipse fill="none" stroke="#6666ff" cx="-406.811" cy="542.17" rx="139.175" ry="18"/>
<text text-anchor="middle" x="-406.811" y="545.87" font-family="FreeSans" font-size="14.00" fill="#6666ff">Metamodel::BoolificationProtocol</text>
</a>
</g>
</g>
<!-- Metamodel::ClassHOW -->
<g id="node23" class="node"><title>Metamodel::ClassHOW</title>
<g id="a_node23"><a xlink:href="/type/Metamodel::ClassHOW" xlink:title="Metamodel::ClassHOW">
<ellipse fill="none" stroke="#000000" cx="-238.271" cy="42.809" rx="103.982" ry="18"/>
<text text-anchor="middle" x="-238.271" y="46.509" font-family="FreeSans" font-size="14.00" fill="#000000">Metamodel::ClassHOW</text>
</a>
</g>
</g>
<!-- Metamodel::ClassHOW&#45;&gt;Metamodel::AttributeContainer -->
<g id="edge18" class="edge"><title>Metamodel::ClassHOW&#45;&gt;Metamodel::AttributeContainer</title>
<path fill="none" stroke="#6666ff" d="M-180.014,27.8253C-91.4493,5.04622 76.8824,-38.2489 172.887,-62.9414"/>
<polygon fill="#6666ff" stroke="#6666ff" points="172.244,-66.3899 182.801,-65.4913 173.988,-59.6106 172.244,-66.3899"/>
</g>
<!-- Metamodel::ClassHOW&#45;&gt;Any -->
<g id="edge3" class="edge"><title>Metamodel::ClassHOW&#45;&gt;Any</title>
<path fill="none" stroke="#000000" d="M-183.657,58.1412C-34.5896,99.99 376.3,215.342 498.99,249.785"/>
<polygon fill="#000000" stroke="#000000" points="500.287,246.514 508.969,252.587 498.395,253.254 500.287,246.514"/>
</g>
<!-- Metamodel::ClassHOW&#45;&gt;Metamodel::Naming -->
<g id="edge14" class="edge"><title>Metamodel::ClassHOW&#45;&gt;Metamodel::Naming</title>
<path fill="none" stroke="#6666ff" d="M-142.021,35.9382C-125.065,34.7278 -107.419,33.4681 -90.4772,32.2587"/>
<polygon fill="#6666ff" stroke="#6666ff" points="-90.2561,28.7341 -80.0323,31.5131 -89.7577,35.7163 -90.2561,28.7341"/>
</g>
<!-- Metamodel::ClassHOW&#45;&gt;Metamodel::Versioning -->
<g id="edge16" class="edge"><title>Metamodel::ClassHOW&#45;&gt;Metamodel::Versioning</title>
<path fill="none" stroke="#6666ff" d="M-226.645,24.7811C-187.833,-35.3999 -65.169,-225.601 -65.169,-225.601 -65.169,-225.601 144.256,-378.003 226.467,-437.829"/>
<polygon fill="#6666ff" stroke="#6666ff" points="224.786,-440.934 234.931,-443.989 228.905,-435.274 224.786,-440.934"/>
</g>
<!-- Metamodel::ClassHOW&#45;&gt;Metamodel::PrivateMethodContainer -->
<g id="edge21" class="edge"><title>Metamodel::ClassHOW&#45;&gt;Metamodel::PrivateMethodContainer</title>
<path fill="none" stroke="#6666ff" d="M-228.644,24.694C-197.481,-33.9446 -101.362,-214.806 -101.362,-214.806 -101.362,-214.806 -28.8687,-407.649 -1.2599,-481.092"/>
<polygon fill="#6666ff" stroke="#6666ff" points="-4.4693,-482.502 2.32572,-490.63 2.08302,-480.038 -4.4693,-482.502"/>
</g>
<!-- Metamodel::ClassHOW&#45;&gt;Metamodel::MethodContainer -->
<g id="edge20" class="edge"><title>Metamodel::ClassHOW&#45;&gt;Metamodel::MethodContainer</title>
<path fill="none" stroke="#6666ff" d="M-228.619,60.7894C-207.161,100.764 -155.385,197.216 -129.915,244.663"/>
<polygon fill="#6666ff" stroke="#6666ff" points="-126.69,243.27 -125.044,253.737 -132.858,246.581 -126.69,243.27"/>
</g>
<!-- Metamodel::ClassHOW&#45;&gt;Metamodel::MultiMethodContainer -->
<g id="edge22" class="edge"><title>Metamodel::ClassHOW&#45;&gt;Metamodel::MultiMethodContainer</title>
<path fill="none" stroke="#6666ff" d="M-134.184,43.7549C-67.9274,44.357 5.49939,45.0243 5.49939,45.0243 5.49939,45.0243 165.747,45.798 293.958,46.417"/>
<polygon fill="#6666ff" stroke="#6666ff" points="294.317,42.9186 304.3,46.4669 294.283,49.9185 294.317,42.9186"/>
</g>
<!-- Metamodel::ClassHOW&#45;&gt;Metamodel::RoleContainer -->
<g id="edge23" class="edge"><title>Metamodel::ClassHOW&#45;&gt;Metamodel::RoleContainer</title>
<path fill="none" stroke="#6666ff" d="M-198.636,59.5714C-119.228,93.154 59.1672,168.599 146.02,205.33"/>
<polygon fill="#6666ff" stroke="#6666ff" points="147.545,202.175 155.392,209.294 144.818,208.622 147.545,202.175"/>
</g>
<!-- Metamodel::ClassHOW&#45;&gt;Metamodel::MultipleInheritance -->
<g id="edge24" class="edge"><title>Metamodel::ClassHOW&#45;&gt;Metamodel::MultipleInheritance</title>
<path fill="none" stroke="#6666ff" d="M-217.545,24.7799C-163.744,-22.0191 -19.5579,-147.439 41.918,-200.914"/>
<polygon fill="#6666ff" stroke="#6666ff" points="39.8405,-203.746 49.6826,-207.668 44.4346,-198.464 39.8405,-203.746"/>
</g>
<!-- Metamodel::ClassHOW&#45;&gt;Metamodel::Documenting -->
<g id="edge15" class="edge"><title>Metamodel::ClassHOW&#45;&gt;Metamodel::Documenting</title>
<path fill="none" stroke="#6666ff" d="M-242.031,24.715C-254.202,-33.8559 -291.74,-214.508 -291.74,-214.508 -291.74,-214.508 -268.053,-417.147 -259.13,-493.482"/>
<polygon fill="#6666ff" stroke="#6666ff" points="-262.562,-494.263 -257.925,-503.789 -255.61,-493.451 -262.562,-494.263"/>
</g>
<!-- Metamodel::ClassHOW&#45;&gt;Metamodel::Stashing -->
<g id="edge17" class="edge"><title>Metamodel::ClassHOW&#45;&gt;Metamodel::Stashing</title>
<path fill="none" stroke="#6666ff" d="M-235.338,24.7045C-228.171,-19.5216 -209.732,-133.313 -201.116,-186.488"/>
<polygon fill="#6666ff" stroke="#6666ff" points="-204.536,-187.261 -199.482,-196.573 -197.626,-186.142 -204.536,-187.261"/>
</g>
<!-- Metamodel::ClassHOW&#45;&gt;Metamodel::Finalization -->
<g id="edge19" class="edge"><title>Metamodel::ClassHOW&#45;&gt;Metamodel::Finalization</title>
<path fill="none" stroke="#6666ff" d="M-248.195,24.641C-287.226,-46.819 -430.313,-308.79 -476.75,-393.809"/>
<polygon fill="#6666ff" stroke="#6666ff" points="-479.832,-392.151 -481.554,-402.605 -473.689,-395.507 -479.832,-392.151"/>
</g>
<!-- Metamodel::ClassHOW&#45;&gt;Metamodel::DefaultParent -->
<g id="edge25" class="edge"><title>Metamodel::ClassHOW&#45;&gt;Metamodel::DefaultParent</title>
<path fill="none" stroke="#6666ff" d="M-258.478,24.8661C-347.515,-54.1961 -704.954,-371.593 -807.61,-462.749"/>
<polygon fill="#6666ff" stroke="#6666ff" points="-809.952,-460.148 -815.106,-469.405 -805.304,-465.382 -809.952,-460.148"/>
</g>
<!-- Metamodel::ClassHOW&#45;&gt;Metamodel::C3MRO -->
<g id="edge26" class="edge"><title>Metamodel::ClassHOW&#45;&gt;Metamodel::C3MRO</title>
<path fill="none" stroke="#6666ff" d="M-302.218,57.0572C-415.214,82.2342 -649.366,134.407 -767.303,160.684"/>
<polygon fill="#6666ff" stroke="#6666ff" points="-766.791,164.156 -777.313,162.915 -768.314,157.324 -766.791,164.156"/>
</g>
<!-- Metamodel::ClassHOW&#45;&gt;Metamodel::MROBasedMethodDispatch -->
<g id="edge27" class="edge"><title>Metamodel::ClassHOW&#45;&gt;Metamodel::MROBasedMethodDispatch</title>
<path fill="none" stroke="#6666ff" d="M-238.751,61.1822C-240.17,115.583 -244.254,272.062 -244.254,272.062 -244.254,272.062 -150.259,457.803 -114.112,529.234"/>
<polygon fill="#6666ff" stroke="#6666ff" points="-110.803,528.02 -109.411,538.523 -117.049,531.181 -110.803,528.02"/>
</g>
<!-- Metamodel::ClassHOW&#45;&gt;Metamodel::MROBasedTypeChecking -->
<g id="edge28" class="edge"><title>Metamodel::ClassHOW&#45;&gt;Metamodel::MROBasedTypeChecking</title>
<path fill="none" stroke="#6666ff" d="M-258.58,60.8042C-297.314,95.1246 -381.809,169.993 -425.977,209.129"/>
<polygon fill="#6666ff" stroke="#6666ff" points="-423.929,211.99 -433.734,216.003 -428.571,206.751 -423.929,211.99"/>
</g>
<!-- Metamodel::ClassHOW&#45;&gt;Metamodel::Trusting -->
<g id="edge29" class="edge"><title>Metamodel::ClassHOW&#45;&gt;Metamodel::Trusting</title>
<path fill="none" stroke="#6666ff" d="M-290.714,27.2283C-403.231,-6.20028 -667.254,-84.6408 -786.656,-120.115"/>
<polygon fill="#6666ff" stroke="#6666ff" points="-787.787,-116.8 -796.376,-123.003 -785.793,-123.51 -787.787,-116.8"/>
</g>
<!-- Metamodel::ClassHOW&#45;&gt;Metamodel::BUILDPLAN -->
<g id="edge30" class="edge"><title>Metamodel::ClassHOW&#45;&gt;Metamodel::BUILDPLAN</title>
<path fill="none" stroke="#6666ff" d="M-272.383,59.9619C-365.803,106.938 -618.88,234.198 -618.88,234.198 -618.88,234.198 -750.745,426.222 -800.092,498.082"/>
<polygon fill="#6666ff" stroke="#6666ff" points="-797.408,500.356 -805.954,506.619 -803.179,496.394 -797.408,500.356"/>
</g>
<!-- Metamodel::ClassHOW&#45;&gt;Metamodel::Mixins -->
<g id="edge31" class="edge"><title>Metamodel::ClassHOW&#45;&gt;Metamodel::Mixins</title>
<path fill="none" stroke="#6666ff" d="M-274.347,25.7869C-318.823,4.80115 -394.384,-30.8518 -442.264,-53.4438"/>
<polygon fill="#6666ff" stroke="#6666ff" points="-443.903,-50.3471 -451.453,-57.7798 -440.916,-56.6778 -443.903,-50.3471"/>
</g>
<!-- Metamodel::ClassHOW&#45;&gt;Metamodel::BoolificationProtocol -->
<g id="edge32" class="edge"><title>Metamodel::ClassHOW&#45;&gt;Metamodel::BoolificationProtocol</title>
<path fill="none" stroke="#6666ff" d="M-243.083,60.794C-255.814,108.384 -289.414,233.981 -289.414,233.981 -289.414,233.981 -367.387,438.674 -396.241,514.422"/>
<polygon fill="#6666ff" stroke="#6666ff" points="-392.988,515.715 -399.819,523.814 -399.53,513.223 -392.988,515.715"/>
</g>
<!-- Metamodel::TypePretense -->
<g id="node24" class="node"><title>Metamodel::TypePretense</title>
<g id="a_node24"><a xlink:href="/type/Metamodel::TypePretense" xlink:title="Metamodel::TypePretense">
<ellipse fill="none" stroke="#6666ff" cx="891.608" cy="-419.011" rx="114.28" ry="18"/>
<text text-anchor="middle" x="891.608" y="-415.311" font-family="FreeSans" font-size="14.00" fill="#6666ff">Metamodel::TypePretense</text>
</a>
</g>
</g>
<!-- Metamodel::RolePunning -->
<g id="node25" class="node"><title>Metamodel::RolePunning</title>
<g id="a_node25"><a xlink:href="/type/Metamodel::RolePunning" xlink:title="Metamodel::RolePunning">
<ellipse fill="none" stroke="#6666ff" cx="532.645" cy="-513.153" rx="109.681" ry="18"/>
<text text-anchor="middle" x="532.645" y="-509.453" font-family="FreeSans" font-size="14.00" fill="#6666ff">Metamodel::RolePunning</text>
</a>
</g>
</g>
<!-- Metamodel::ParametricRoleHOW -->
<g id="node26" class="node"><title>Metamodel::ParametricRoleHOW</title>
<g id="a_node26"><a xlink:href="/type/Metamodel::ParametricRoleHOW" xlink:title="Metamodel::ParametricRoleHOW">
<ellipse fill="none" stroke="#000000" cx="528.75" cy="-193.323" rx="142.175" ry="18"/>
<text text-anchor="middle" x="528.75" y="-189.623" font-family="FreeSans" font-size="14.00" fill="#000000">Metamodel::ParametricRoleHOW</text>
</a>
</g>
</g>
<!-- Metamodel::ParametricRoleHOW&#45;&gt;Metamodel::AttributeContainer -->
<g id="edge39" class="edge"><title>Metamodel::ParametricRoleHOW&#45;&gt;Metamodel::AttributeContainer</title>
<path fill="none" stroke="#6666ff" d="M484.989,-176.082C434.486,-156.185 351.47,-123.478 297.444,-102.193"/>
<polygon fill="#6666ff" stroke="#6666ff" points="298.627,-98.8967 288.04,-98.4874 296.061,-105.409 298.627,-98.8967"/>
</g>
<!-- Metamodel::ParametricRoleHOW&#45;&gt;Any -->
<g id="edge4" class="edge"><title>Metamodel::ParametricRoleHOW&#45;&gt;Any</title>
<path fill="none" stroke="#000000" d="M533.994,-175.254C550.221,-119.347 598.522,47.0738 598.522,47.0738 598.522,47.0738 559.874,174.434 542.412,231.978"/>
<polygon fill="#000000" stroke="#000000" points="545.665,233.312 539.412,241.864 538.967,231.279 545.665,233.312"/>
</g>
<!-- Metamodel::ParametricRoleHOW&#45;&gt;Metamodel::Naming -->
<g id="edge33" class="edge"><title>Metamodel::ParametricRoleHOW&#45;&gt;Metamodel::Naming</title>
<path fill="none" stroke="#6666ff" d="M504.253,-175.357C461.154,-143.748 376.282,-81.5035 376.282,-81.5035 376.282,-81.5035 338.183,-67.6171 338.183,-67.6171 338.183,-67.6171 164.054,-18.9535 67.6599,7.98583"/>
<polygon fill="#6666ff" stroke="#6666ff" points="68.5867,11.3609 58.0136,10.6817 66.7025,4.6192 68.5867,11.3609"/>
</g>
<!-- Metamodel::ParametricRoleHOW&#45;&gt;Metamodel::Versioning -->
<g id="edge35" class="edge"><title>Metamodel::ParametricRoleHOW&#45;&gt;Metamodel::Versioning</title>
<path fill="none" stroke="#6666ff" d="M510.634,-211.337C463.707,-258.002 338.103,-382.903 284.187,-436.516"/>
<polygon fill="#6666ff" stroke="#6666ff" points="281.694,-434.06 277.071,-443.593 286.63,-439.023 281.694,-434.06"/>
</g>
<!-- Metamodel::ParametricRoleHOW&#45;&gt;Metamodel::PrivateMethodContainer -->
<g id="edge37" class="edge"><title>Metamodel::ParametricRoleHOW&#45;&gt;Metamodel::PrivateMethodContainer</title>
<path fill="none" stroke="#6666ff" d="M499.706,-210.973C411.433,-264.618 146.317,-425.734 47.1921,-485.974"/>
<polygon fill="#6666ff" stroke="#6666ff" points="45.1323,-483.131 38.4043,-491.315 48.7677,-489.113 45.1323,-483.131"/>
</g>
<!-- Metamodel::ParametricRoleHOW&#45;&gt;Metamodel::MethodContainer -->
<g id="edge36" class="edge"><title>Metamodel::ParametricRoleHOW&#45;&gt;Metamodel::MethodContainer</title>
<path fill="none" stroke="#6666ff" d="M504.253,-175.357C461.154,-143.748 376.282,-81.5035 376.282,-81.5035 376.282,-81.5035 28.2301,168.767 -82.1234,248.118"/>
<polygon fill="#6666ff" stroke="#6666ff" points="-80.392,251.184 -90.5543,254.18 -84.4786,245.501 -80.392,251.184"/>
</g>
<!-- Metamodel::ParametricRoleHOW&#45;&gt;Metamodel::MultiMethodContainer -->
<g id="edge38" class="edge"><title>Metamodel::ParametricRoleHOW&#45;&gt;Metamodel::MultiMethodContainer</title>
<path fill="none" stroke="#6666ff" d="M522.882,-175.246C509.376,-133.637 476.008,-30.8352 459.806,19.08"/>
<polygon fill="#6666ff" stroke="#6666ff" points="463.039,20.4567 456.623,28.8876 456.381,18.2955 463.039,20.4567"/>
</g>
<!-- Metamodel::ParametricRoleHOW&#45;&gt;Metamodel::RoleContainer -->
<g id="edge40" class="edge"><title>Metamodel::ParametricRoleHOW&#45;&gt;Metamodel::RoleContainer</title>
<path fill="none" stroke="#6666ff" d="M511.771,-175.239C459.236,-119.285 302.852,47.2736 302.852,47.2736 302.852,47.2736 241.492,149.464 211.511,199.395"/>
<polygon fill="#6666ff" stroke="#6666ff" points="214.448,201.302 206.3,208.074 208.447,197.699 214.448,201.302"/>
</g>
<!-- Metamodel::ParametricRoleHOW&#45;&gt;Metamodel::MultipleInheritance -->
<g id="edge41" class="edge"><title>Metamodel::ParametricRoleHOW&#45;&gt;Metamodel::MultipleInheritance</title>
<path fill="none" stroke="#6666ff" d="M404.39,-202.084C340.838,-206.561 263.579,-212.004 199.372,-216.527"/>
<polygon fill="#6666ff" stroke="#6666ff" points="198.913,-213.051 189.184,-217.245 199.405,-220.033 198.913,-213.051"/>
</g>
<!-- Metamodel::ParametricRoleHOW&#45;&gt;Metamodel::Documenting -->
<g id="edge34" class="edge"><title>Metamodel::ParametricRoleHOW&#45;&gt;Metamodel::Documenting</title>
<path fill="none" stroke="#6666ff" d="M487.4,-210.652C354.404,-266.389 -62.0412,-440.915 -206.133,-501.302"/>
<polygon fill="#6666ff" stroke="#6666ff" points="-207.757,-498.188 -215.627,-505.281 -205.052,-504.644 -207.757,-498.188"/>
</g>
<!-- Metamodel::ParametricRoleHOW&#45;&gt;Metamodel::Stashing -->
<g id="edge42" class="edge"><title>Metamodel::ParametricRoleHOW&#45;&gt;Metamodel::Stashing</title>
<path fill="none" stroke="#6666ff" d="M389.686,-197.175C254.821,-200.911 70.439,-206.019 70.439,-206.019 70.439,-206.019 -18.6296,-208.901 -93.8778,-211.335"/>
<polygon fill="#6666ff" stroke="#6666ff" points="-94.0388,-207.838 -103.92,-211.66 -93.8124,-214.835 -94.0388,-207.838"/>
</g>
<!-- Metamodel::ParametricRoleHOW&#45;&gt;Metamodel::TypePretense -->
<g id="edge43" class="edge"><title>Metamodel::ParametricRoleHOW&#45;&gt;Metamodel::TypePretense</title>
<path fill="none" stroke="#6666ff" d="M557.223,-211.032C622.271,-251.491 781.755,-350.685 854.432,-395.889"/>
<polygon fill="#6666ff" stroke="#6666ff" points="852.927,-399.074 863.267,-401.384 856.624,-393.13 852.927,-399.074"/>
</g>
<!-- Metamodel::ParametricRoleHOW&#45;&gt;Metamodel::RolePunning -->
<g id="edge44" class="edge"><title>Metamodel::ParametricRoleHOW&#45;&gt;Metamodel::RolePunning</title>
<path fill="none" stroke="#6666ff" d="M528.97,-211.435C529.617,-264.525 531.511,-420.073 532.297,-484.596"/>
<polygon fill="#6666ff" stroke="#6666ff" points="528.8,-484.887 532.422,-494.843 535.8,-484.801 528.8,-484.887"/>
</g>
<!-- Metamodel::BaseType -->
<g id="node27" class="node"><title>Metamodel::BaseType</title>
<g id="a_node27"><a xlink:href="/type/Metamodel::BaseType" xlink:title="Metamodel::BaseType">
<ellipse fill="none" stroke="#6666ff" cx="474.858" cy="556.183" rx="99.3824" ry="18"/>
<text text-anchor="middle" x="474.858" y="559.883" font-family="FreeSans" font-size="14.00" fill="#6666ff">Metamodel::BaseType</text>
</a>
</g>
</g>
<!-- Metamodel::EnumHOW -->
<g id="node28" class="node"><title>Metamodel::EnumHOW</title>
<g id="a_node28"><a xlink:href="/type/Metamodel::EnumHOW" xlink:title="Metamodel::EnumHOW">
<ellipse fill="none" stroke="#000000" cx="172.764" cy="529.776" rx="104.782" ry="18"/>
<text text-anchor="middle" x="172.764" y="533.476" font-family="FreeSans" font-size="14.00" fill="#000000">Metamodel::EnumHOW</text>
</a>
</g>
</g>
<!-- Metamodel::EnumHOW&#45;&gt;Metamodel::AttributeContainer -->
<g id="edge47" class="edge"><title>Metamodel::EnumHOW&#45;&gt;Metamodel::AttributeContainer</title>
<path fill="none" stroke="#6666ff" d="M181.098,511.694C211.223,446.335 312.696,226.177 312.696,226.177 312.696,226.177 267.715,22.7166 250.92,-53.2517"/>
<polygon fill="#6666ff" stroke="#6666ff" points="247.486,-52.5708 248.745,-63.0906 254.321,-54.0819 247.486,-52.5708"/>
</g>
<!-- Metamodel::EnumHOW&#45;&gt;Any -->
<g id="edge5" class="edge"><title>Metamodel::EnumHOW&#45;&gt;Any</title>
<path fill="none" stroke="#000000" d="M196.467,512.051C261.197,463.644 440.621,329.468 508.003,279.079"/>
<polygon fill="#000000" stroke="#000000" points="505.912,276.273 516.016,273.087 510.104,281.879 505.912,276.273"/>
</g>
<!-- Metamodel::EnumHOW&#45;&gt;Metamodel::Naming -->
<g id="edge45" class="edge"><title>Metamodel::EnumHOW&#45;&gt;Metamodel::Naming</title>
<path fill="none" stroke="#6666ff" d="M166.703,511.528C141.515,435.687 45.0014,145.083 14.534,53.3448"/>
<polygon fill="#6666ff" stroke="#6666ff" points="11.1438,54.2415 11.3135,43.648 17.787,52.0351 11.1438,54.2415"/>
</g>
<!-- Metamodel::EnumHOW&#45;&gt;Metamodel::MethodContainer -->
<g id="edge48" class="edge"><title>Metamodel::EnumHOW&#45;&gt;Metamodel::MethodContainer</title>
<path fill="none" stroke="#6666ff" d="M152.966,512.055C102.711,467.07 -29.8976,348.368 -87.6893,296.636"/>
<polygon fill="#6666ff" stroke="#6666ff" points="-90.2145,299.073 -95.3311,289.796 -85.5457,293.858 -90.2145,299.073"/>
</g>
<!-- Metamodel::EnumHOW&#45;&gt;Metamodel::MultiMethodContainer -->
<g id="edge49" class="edge"><title>Metamodel::EnumHOW&#45;&gt;Metamodel::MultiMethodContainer</title>
<path fill="none" stroke="#6666ff" d="M183.151,511.739C225.414,438.351 384.59,161.949 435.163,74.1315"/>
<polygon fill="#6666ff" stroke="#6666ff" points="432.224,72.2212 440.247,65.3021 438.29,75.7145 432.224,72.2212"/>
</g>
<!-- Metamodel::EnumHOW&#45;&gt;Metamodel::RoleContainer -->
<g id="edge50" class="edge"><title>Metamodel::EnumHOW&#45;&gt;Metamodel::RoleContainer</title>
<path fill="none" stroke="#6666ff" d="M174.112,511.697C177.902,460.884 188.672,316.499 193.276,254.772"/>
<polygon fill="#6666ff" stroke="#6666ff" points="189.802,254.297 194.036,244.585 196.782,254.818 189.802,254.297"/>
</g>
<!-- Metamodel::EnumHOW&#45;&gt;Metamodel::Stashing -->
<g id="edge46" class="edge"><title>Metamodel::EnumHOW&#45;&gt;Metamodel::Stashing</title>
<path fill="none" stroke="#6666ff" d="M163.53,511.828C117.313,421.992 -86.6805,25.4752 -86.6805,25.4752 -86.6805,25.4752 -155.213,-124.308 -184.026,-187.283"/>
<polygon fill="#6666ff" stroke="#6666ff" points="-187.315,-186.059 -188.293,-196.608 -180.95,-188.971 -187.315,-186.059"/>
</g>
<!-- Metamodel::EnumHOW&#45;&gt;Metamodel::MROBasedMethodDispatch -->
<g id="edge52" class="edge"><title>Metamodel::EnumHOW&#45;&gt;Metamodel::MROBasedMethodDispatch</title>
<path fill="none" stroke="#6666ff" d="M81.8777,538.763C66.5954,540.275 50.4515,541.871 34.3437,543.464"/>
<polygon fill="#6666ff" stroke="#6666ff" points="34.623,546.953 24.3271,544.454 33.9341,539.987 34.623,546.953"/>
</g>
<!-- Metamodel::EnumHOW&#45;&gt;Metamodel::MROBasedTypeChecking -->
<g id="edge53" class="edge"><title>Metamodel::EnumHOW&#45;&gt;Metamodel::MROBasedTypeChecking</title>
<path fill="none" stroke="#6666ff" d="M136.807,512.817C29.6538,462.278 -287.485,312.697 -407.457,256.111"/>
<polygon fill="#6666ff" stroke="#6666ff" points="-409.21,259.154 -416.762,251.722 -406.224,252.823 -409.21,259.154"/>
</g>
<!-- Metamodel::EnumHOW&#45;&gt;Metamodel::BUILDPLAN -->
<g id="edge54" class="edge"><title>Metamodel::EnumHOW&#45;&gt;Metamodel::BUILDPLAN</title>
<path fill="none" stroke="#6666ff" d="M68.3278,528.48C-98.7758,526.405 -407.646,522.57 -407.646,522.57 -407.646,522.57 -577.265,523.49 -698.516,524.147"/>
<polygon fill="#6666ff" stroke="#6666ff" points="-698.604,527.647 -708.623,524.202 -698.642,520.647 -698.604,527.647"/>
</g>
<!-- Metamodel::EnumHOW&#45;&gt;Metamodel::BoolificationProtocol -->
<g id="edge55" class="edge"><title>Metamodel::EnumHOW&#45;&gt;Metamodel::BoolificationProtocol</title>
<path fill="none" stroke="#6666ff" d="M68.8128,531.999C-22.6109,533.954 -156.718,536.822 -259.244,539.014"/>
<polygon fill="#6666ff" stroke="#6666ff" points="-259.306,542.516 -269.378,539.231 -259.455,535.518 -259.306,542.516"/>
</g>
<!-- Metamodel::EnumHOW&#45;&gt;Metamodel::BaseType -->
<g id="edge51" class="edge"><title>Metamodel::EnumHOW&#45;&gt;Metamodel::BaseType</title>
<path fill="none" stroke="#6666ff" d="M266.279,537.951C300.74,540.963 339.899,544.386 374.906,547.446"/>
<polygon fill="#6666ff" stroke="#6666ff" points="375.486,543.984 385.143,548.341 374.877,550.957 375.486,543.984"/>
</g>
</g>
</svg>
