<?xml version="1.0" encoding="UTF-8" standalone="no"?>
<!DOCTYPE svg PUBLIC "-//W3C//DTD SVG 1.1//EN"
 "http://www.w3.org/Graphics/SVG/1.1/DTD/svg11.dtd">
<!-- Generated by graphviz version 2.38.0 (20140413.2041)
 -->
<!-- Title: perl6&#45;type&#45;graph Pages: 1 -->
<svg width="1956pt" height="993pt"
 viewBox="0.00 0.00 1956.47 992.92" xmlns="http://www.w3.org/2000/svg" xmlns:xlink="http://www.w3.org/1999/xlink">
<g id="graph0" class="graph" transform="scale(1 1) rotate(0) translate(955.505 469.428)">
<title>perl6&#45;type&#45;graph</title>
<polygon fill="white" stroke="none" points="-955.505,523.488 -955.505,-469.428 1000.97,-469.428 1000.97,523.488 -955.505,523.488"/>
<!-- Metamodel::RoleContainer -->
<g id="node1" class="node"><title>Metamodel::RoleContainer</title>
<g id="a_node1"><a xlink:href="/type/Metamodel::RoleContainer" xlink:title="Metamodel::RoleContainer">
<ellipse fill="none" stroke="#6666ff" cx="-31.23" cy="66.2784" rx="115.88" ry="18"/>
<text text-anchor="middle" x="-31.23" y="69.9784" font-family="FreeSans" font-size="14.00" fill="#6666ff">Metamodel::RoleContainer</text>
</a>
</g>
</g>
<!-- Mu -->
<g id="node2" class="node"><title>Mu</title>
<g id="a_node2"><a xlink:href="/type/Mu" xlink:title="Mu">
<ellipse fill="none" stroke="#000000" cx="496.478" cy="479.686" rx="27" ry="18"/>
<text text-anchor="middle" x="496.478" y="483.386" font-family="FreeSans" font-size="14.00" fill="#000000">Mu</text>
</a>
</g>
</g>
<!-- Any -->
<g id="node3" class="node"><title>Any</title>
<g id="a_node3"><a xlink:href="/type/Any" xlink:title="Any">
<ellipse fill="none" stroke="#000000" cx="213.762" cy="485.612" rx="27" ry="18"/>
<text text-anchor="middle" x="213.762" y="489.312" font-family="FreeSans" font-size="14.00" fill="#000000">Any</text>
</a>
</g>
</g>
<!-- Any&#45;&gt;Mu -->
<g id="edge1" class="edge"><title>Any&#45;&gt;Mu</title>
<path fill="none" stroke="#000000" d="M240.87,485.044C291.742,483.978 401.58,481.675 459.305,480.465"/>
<polygon fill="#000000" stroke="#000000" points="459.381,476.963 469.452,480.252 459.527,483.961 459.381,476.963"/>
</g>
<!-- Metamodel::Naming -->
<g id="node4" class="node"><title>Metamodel::Naming</title>
<g id="a_node4"><a xlink:href="/type/Metamodel::Naming" xlink:title="Metamodel::Naming">
<ellipse fill="none" stroke="#6666ff" cx="231.576" cy="69.6084" rx="90.1842" ry="18"/>
<text text-anchor="middle" x="231.576" y="73.3084" font-family="FreeSans" font-size="14.00" fill="#6666ff">Metamodel::Naming</text>
</a>
</g>
</g>
<!-- Metamodel::Documenting -->
<g id="node5" class="node"><title>Metamodel::Documenting</title>
<g id="a_node5"><a xlink:href="/type/Metamodel::Documenting" xlink:title="Metamodel::Documenting">
<ellipse fill="none" stroke="#6666ff" cx="260.23" cy="-436.531" rx="111.28" ry="18"/>
<text text-anchor="middle" x="260.23" y="-432.831" font-family="FreeSans" font-size="14.00" fill="#6666ff">Metamodel::Documenting</text>
</a>
</g>
</g>
<!-- Metamodel::Versioning -->
<g id="node6" class="node"><title>Metamodel::Versioning</title>
<g id="a_node6"><a xlink:href="/type/Metamodel::Versioning" xlink:title="Metamodel::Versioning">
<ellipse fill="none" stroke="#6666ff" cx="118.361" cy="-166.417" rx="100.983" ry="18"/>
<text text-anchor="middle" x="118.361" y="-162.717" font-family="FreeSans" font-size="14.00" fill="#6666ff">Metamodel::Versioning</text>
</a>
</g>
</g>
<!-- Metamodel::MethodContainer -->
<g id="node7" class="node"><title>Metamodel::MethodContainer</title>
<g id="a_node7"><a xlink:href="/type/Metamodel::MethodContainer" xlink:title="Metamodel::MethodContainer">
<ellipse fill="none" stroke="#6666ff" cx="-290.197" cy="39.317" rx="127.277" ry="18"/>
<text text-anchor="middle" x="-290.197" y="43.017" font-family="FreeSans" font-size="14.00" fill="#6666ff">Metamodel::MethodContainer</text>
</a>
</g>
</g>
<!-- Metamodel::PrivateMethodContainer -->
<g id="node8" class="node"><title>Metamodel::PrivateMethodContainer</title>
<g id="a_node8"><a xlink:href="/type/Metamodel::PrivateMethodContainer" xlink:title="Metamodel::PrivateMethodContainer">
<ellipse fill="none" stroke="#6666ff" cx="530.389" cy="-427.197" rx="154.873" ry="18"/>
<text text-anchor="middle" x="530.389" y="-423.497" font-family="FreeSans" font-size="14.00" fill="#6666ff">Metamodel::PrivateMethodContainer</text>
</a>
</g>
</g>
<!-- Metamodel::MultiMethodContainer -->
<g id="node9" class="node"><title>Metamodel::MultiMethodContainer</title>
<g id="a_node9"><a xlink:href="/type/Metamodel::MultiMethodContainer" xlink:title="Metamodel::MultiMethodContainer">
<ellipse fill="none" stroke="#6666ff" cx="102.572" cy="263.425" rx="146.474" ry="18"/>
<text text-anchor="middle" x="102.572" y="267.125" font-family="FreeSans" font-size="14.00" fill="#6666ff">Metamodel::MultiMethodContainer</text>
</a>
</g>
</g>
<!-- Metamodel::AttributeContainer -->
<g id="node10" class="node"><title>Metamodel::AttributeContainer</title>
<g id="a_node10"><a xlink:href="/type/Metamodel::AttributeContainer" xlink:title="Metamodel::AttributeContainer">
<ellipse fill="none" stroke="#6666ff" cx="474.795" cy="184.847" rx="129.977" ry="18"/>
<text text-anchor="middle" x="474.795" y="188.547" font-family="FreeSans" font-size="14.00" fill="#6666ff">Metamodel::AttributeContainer</text>
</a>
</g>
</g>
<!-- Metamodel::MultipleInheritance -->
<g id="node11" class="node"><title>Metamodel::MultipleInheritance</title>
<g id="a_node11"><a xlink:href="/type/Metamodel::MultipleInheritance" xlink:title="Metamodel::MultipleInheritance">
<ellipse fill="none" stroke="#6666ff" cx="347.832" cy="-149.31" rx="133.776" ry="18"/>
<text text-anchor="middle" x="347.832" y="-145.61" font-family="FreeSans" font-size="14.00" fill="#6666ff">Metamodel::MultipleInheritance</text>
</a>
</g>
</g>
<!-- Metamodel::Stashing -->
<g id="node12" class="node"><title>Metamodel::Stashing</title>
<g id="a_node12"><a xlink:href="/type/Metamodel::Stashing" xlink:title="Metamodel::Stashing">
<ellipse fill="none" stroke="#6666ff" cx="-96.033" cy="-163.976" rx="93.6835" ry="18"/>
<text text-anchor="middle" x="-96.033" y="-160.276" font-family="FreeSans" font-size="14.00" fill="#6666ff">Metamodel::Stashing</text>
</a>
</g>
</g>
<!-- Metamodel::TypePretense -->
<g id="node13" class="node"><title>Metamodel::TypePretense</title>
<g id="a_node13"><a xlink:href="/type/Metamodel::TypePretense" xlink:title="Metamodel::TypePretense">
<ellipse fill="none" stroke="#6666ff" cx="844.161" cy="432.201" rx="114.28" ry="18"/>
<text text-anchor="middle" x="844.161" y="435.901" font-family="FreeSans" font-size="14.00" fill="#6666ff">Metamodel::TypePretense</text>
</a>
</g>
</g>
<!-- Metamodel::RolePunning -->
<g id="node14" class="node"><title>Metamodel::RolePunning</title>
<g id="a_node14"><a xlink:href="/type/Metamodel::RolePunning" xlink:title="Metamodel::RolePunning">
<ellipse fill="none" stroke="#6666ff" cx="863.642" cy="-367.32" rx="109.681" ry="18"/>
<text text-anchor="middle" x="863.642" y="-363.62" font-family="FreeSans" font-size="14.00" fill="#6666ff">Metamodel::RolePunning</text>
</a>
</g>
</g>
<!-- Metamodel::ParametricRoleHOW -->
<g id="node15" class="node"><title>Metamodel::ParametricRoleHOW</title>
<g id="a_node15"><a xlink:href="/type/Metamodel::ParametricRoleHOW" xlink:title="Metamodel::ParametricRoleHOW">
<ellipse fill="none" stroke="#000000" cx="582.902" cy="-96.1764" rx="142.175" ry="18"/>
<text text-anchor="middle" x="582.902" y="-92.4764" font-family="FreeSans" font-size="14.00" fill="#000000">Metamodel::ParametricRoleHOW</text>
</a>
</g>
</g>
<!-- Metamodel::ParametricRoleHOW&#45;&gt;Metamodel::RoleContainer -->
<g id="edge13" class="edge"><title>Metamodel::ParametricRoleHOW&#45;&gt;Metamodel::RoleContainer</title>
<path fill="none" stroke="#6666ff" d="M521.488,-79.9308C406.252,-49.4477 158.373,16.1231 37.6545,48.0566"/>
<polygon fill="#6666ff" stroke="#6666ff" points="38.3432,51.4947 27.7806,50.6685 36.553,44.7275 38.3432,51.4947"/>
</g>
<!-- Metamodel::ParametricRoleHOW&#45;&gt;Any -->
<g id="edge2" class="edge"><title>Metamodel::ParametricRoleHOW&#45;&gt;Any</title>
<path fill="none" stroke="#000000" d="M567.543,-78.1685C514.64,-16.1398 343.206,184.864 343.206,184.864 343.206,184.864 257.19,384.714 225.393,458.589"/>
<polygon fill="#000000" stroke="#000000" points="228.45,460.341 221.281,468.143 222.02,457.574 228.45,460.341"/>
</g>
<!-- Metamodel::ParametricRoleHOW&#45;&gt;Metamodel::Naming -->
<g id="edge6" class="edge"><title>Metamodel::ParametricRoleHOW&#45;&gt;Metamodel::Naming</title>
<path fill="none" stroke="#6666ff" d="M545.968,-78.7478C481.019,-48.0996 346.603,15.329 276.431,48.4419"/>
<polygon fill="#6666ff" stroke="#6666ff" points="277.507,51.8042 266.97,52.9066 274.52,45.4737 277.507,51.8042"/>
</g>
<!-- Metamodel::ParametricRoleHOW&#45;&gt;Metamodel::Documenting -->
<g id="edge7" class="edge"><title>Metamodel::ParametricRoleHOW&#45;&gt;Metamodel::Documenting</title>
<path fill="none" stroke="#6666ff" d="M565.553,-114.475C511.59,-171.396 346.589,-345.439 284.34,-411.099"/>
<polygon fill="#6666ff" stroke="#6666ff" points="281.613,-408.889 277.273,-418.554 286.693,-413.705 281.613,-408.889"/>
</g>
<!-- Metamodel::ParametricRoleHOW&#45;&gt;Metamodel::Versioning -->
<g id="edge8" class="edge"><title>Metamodel::ParametricRoleHOW&#45;&gt;Metamodel::Versioning</title>
<path fill="none" stroke="#6666ff" d="M478.75,-108.537C381.843,-120.038 252.297,-135.412 252.297,-135.412 252.297,-135.412 221.933,-142.441 190.12,-149.805"/>
<polygon fill="#6666ff" stroke="#6666ff" points="189.185,-146.429 180.232,-152.094 190.764,-153.249 189.185,-146.429"/>
</g>
<!-- Metamodel::ParametricRoleHOW&#45;&gt;Metamodel::MethodContainer -->
<g id="edge9" class="edge"><title>Metamodel::ParametricRoleHOW&#45;&gt;Metamodel::MethodContainer</title>
<path fill="none" stroke="#6666ff" d="M492.753,-82.1865C327.006,-56.4647 -24.6776,-1.88813 -194.488,24.4642"/>
<polygon fill="#6666ff" stroke="#6666ff" points="-193.998,27.93 -204.417,26.005 -195.072,21.0128 -193.998,27.93"/>
</g>
<!-- Metamodel::ParametricRoleHOW&#45;&gt;Metamodel::PrivateMethodContainer -->
<g id="edge10" class="edge"><title>Metamodel::ParametricRoleHOW&#45;&gt;Metamodel::PrivateMethodContainer</title>
<path fill="none" stroke="#6666ff" d="M580.004,-114.445C571.307,-169.267 545.386,-332.661 534.884,-398.867"/>
<polygon fill="#6666ff" stroke="#6666ff" points="531.389,-398.56 533.278,-408.985 538.302,-399.657 531.389,-398.56"/>
</g>
<!-- Metamodel::ParametricRoleHOW&#45;&gt;Metamodel::MultiMethodContainer -->
<g id="edge11" class="edge"><title>Metamodel::ParametricRoleHOW&#45;&gt;Metamodel::MultiMethodContainer</title>
<path fill="none" stroke="#6666ff" d="M559.082,-78.3437C479.861,-19.0344 225.147,171.659 134.758,239.328"/>
<polygon fill="#6666ff" stroke="#6666ff" points="136.638,242.293 126.535,245.484 132.443,236.689 136.638,242.293"/>
</g>
<!-- Metamodel::ParametricRoleHOW&#45;&gt;Metamodel::AttributeContainer -->
<g id="edge12" class="edge"><title>Metamodel::ParametricRoleHOW&#45;&gt;Metamodel::AttributeContainer</title>
<path fill="none" stroke="#6666ff" d="M575.975,-78.1696C557.598,-30.4003 507.512,99.7977 485.46,157.123"/>
<polygon fill="#6666ff" stroke="#6666ff" points="488.661,158.55 481.804,166.626 482.128,156.037 488.661,158.55"/>
</g>
<!-- Metamodel::ParametricRoleHOW&#45;&gt;Metamodel::MultipleInheritance -->
<g id="edge14" class="edge"><title>Metamodel::ParametricRoleHOW&#45;&gt;Metamodel::MultipleInheritance</title>
<path fill="none" stroke="#6666ff" d="M513.327,-111.903C485.957,-118.089 454.4,-125.222 426.228,-131.59"/>
<polygon fill="#6666ff" stroke="#6666ff" points="425.4,-128.189 416.417,-133.807 426.943,-135.017 425.4,-128.189"/>
</g>
<!-- Metamodel::ParametricRoleHOW&#45;&gt;Metamodel::Stashing -->
<g id="edge15" class="edge"><title>Metamodel::ParametricRoleHOW&#45;&gt;Metamodel::Stashing</title>
<path fill="none" stroke="#6666ff" d="M471.17,-107.334C338.908,-120.542 121.045,-142.298 -2.63523,-154.65"/>
<polygon fill="#6666ff" stroke="#6666ff" points="-3.23615,-151.192 -12.8388,-155.668 -2.54051,-158.157 -3.23615,-151.192"/>
</g>
<!-- Metamodel::ParametricRoleHOW&#45;&gt;Metamodel::TypePretense -->
<g id="edge16" class="edge"><title>Metamodel::ParametricRoleHOW&#45;&gt;Metamodel::TypePretense</title>
<path fill="none" stroke="#6666ff" d="M591.895,-77.9884C630.718,0.529093 784.087,310.706 830.671,404.919"/>
<polygon fill="#6666ff" stroke="#6666ff" points="833.911,403.574 835.206,414.09 827.636,406.677 833.911,403.574"/>
</g>
<!-- Metamodel::ParametricRoleHOW&#45;&gt;Metamodel::RolePunning -->
<g id="edge17" class="edge"><title>Metamodel::ParametricRoleHOW&#45;&gt;Metamodel::RolePunning</title>
<path fill="none" stroke="#6666ff" d="M601.758,-114.388C650.721,-161.677 781.97,-288.441 837.864,-342.424"/>
<polygon fill="#6666ff" stroke="#6666ff" points="835.61,-345.113 845.235,-349.542 840.473,-340.078 835.61,-345.113"/>
</g>
<!-- Metamodel::BaseType -->
<g id="node16" class="node"><title>Metamodel::BaseType</title>
<g id="a_node16"><a xlink:href="/type/Metamodel::BaseType" xlink:title="Metamodel::BaseType">
<ellipse fill="none" stroke="#6666ff" cx="-90.8708" cy="501.488" rx="99.3824" ry="18"/>
<text text-anchor="middle" x="-90.8708" y="505.188" font-family="FreeSans" font-size="14.00" fill="#6666ff">Metamodel::BaseType</text>
</a>
</g>
</g>
<!-- Metamodel::MROBasedMethodDispatch -->
<g id="node17" class="node"><title>Metamodel::MROBasedMethodDispatch</title>
<g id="a_node17"><a xlink:href="/type/Metamodel::MROBasedMethodDispatch" xlink:title="Metamodel::MROBasedMethodDispatch">
<ellipse fill="none" stroke="#6666ff" cx="-424.785" cy="490.107" rx="169.77" ry="18"/>
<text text-anchor="middle" x="-424.785" y="493.807" font-family="FreeSans" font-size="14.00" fill="#6666ff">Metamodel::MROBasedMethodDispatch</text>
</a>
</g>
</g>
<!-- Metamodel::MROBasedTypeChecking -->
<g id="node18" class="node"><title>Metamodel::MROBasedTypeChecking</title>
<g id="a_node18"><a xlink:href="/type/Metamodel::MROBasedTypeChecking" xlink:title="Metamodel::MROBasedTypeChecking">
<ellipse fill="none" stroke="#6666ff" cx="-553.525" cy="-107.786" rx="163.271" ry="18"/>
<text text-anchor="middle" x="-553.525" y="-104.086" font-family="FreeSans" font-size="14.00" fill="#6666ff">Metamodel::MROBasedTypeChecking</text>
</a>
</g>
</g>
<!-- Metamodel::BUILDPLAN -->
<g id="node19" class="node"><title>Metamodel::BUILDPLAN</title>
<g id="a_node19"><a xlink:href="/type/Metamodel::BUILDPLAN" xlink:title="Metamodel::BUILDPLAN">
<ellipse fill="none" stroke="#6666ff" cx="-518.288" cy="195.583" rx="109.681" ry="18"/>
<text text-anchor="middle" x="-518.288" y="199.283" font-family="FreeSans" font-size="14.00" fill="#6666ff">Metamodel::BUILDPLAN</text>
</a>
</g>
</g>
<!-- Metamodel::BoolificationProtocol -->
<g id="node20" class="node"><title>Metamodel::BoolificationProtocol</title>
<g id="a_node20"><a xlink:href="/type/Metamodel::BoolificationProtocol" xlink:title="Metamodel::BoolificationProtocol">
<ellipse fill="none" stroke="#6666ff" cx="-812.418" cy="439.629" rx="139.175" ry="18"/>
<text text-anchor="middle" x="-812.418" y="443.329" font-family="FreeSans" font-size="14.00" fill="#6666ff">Metamodel::BoolificationProtocol</text>
</a>
</g>
</g>
<!-- Metamodel::EnumHOW -->
<g id="node21" class="node"><title>Metamodel::EnumHOW</title>
<g id="a_node21"><a xlink:href="/type/Metamodel::EnumHOW" xlink:title="Metamodel::EnumHOW">
<ellipse fill="none" stroke="#000000" cx="-207.806" cy="263.96" rx="104.782" ry="18"/>
<text text-anchor="middle" x="-207.806" y="267.66" font-family="FreeSans" font-size="14.00" fill="#000000">Metamodel::EnumHOW</text>
</a>
</g>
</g>
<!-- Metamodel::EnumHOW&#45;&gt;Metamodel::RoleContainer -->
<g id="edge23" class="edge"><title>Metamodel::EnumHOW&#45;&gt;Metamodel::RoleContainer</title>
<path fill="none" stroke="#6666ff" d="M-191.825,246.069C-160.387,210.874 -90.4157,132.539 -54.0963,91.8779"/>
<polygon fill="#6666ff" stroke="#6666ff" points="-56.5746,89.3984 -47.3025,84.272 -51.3539,94.0616 -56.5746,89.3984"/>
</g>
<!-- Metamodel::EnumHOW&#45;&gt;Any -->
<g id="edge3" class="edge"><title>Metamodel::EnumHOW&#45;&gt;Any</title>
<path fill="none" stroke="#000000" d="M-175.077,281.169C-95.674,322.917 106.307,429.115 183.309,469.601"/>
<polygon fill="#000000" stroke="#000000" points="185.262,466.673 192.484,474.425 182.004,472.869 185.262,466.673"/>
</g>
<!-- Metamodel::EnumHOW&#45;&gt;Metamodel::Naming -->
<g id="edge18" class="edge"><title>Metamodel::EnumHOW&#45;&gt;Metamodel::Naming</title>
<path fill="none" stroke="#6666ff" d="M-169.582,247.053C-89.0852,211.447 97.6528,128.847 184.983,90.2176"/>
<polygon fill="#6666ff" stroke="#6666ff" points="183.814,86.908 194.375,86.0635 186.645,93.3097 183.814,86.908"/>
</g>
<!-- Metamodel::EnumHOW&#45;&gt;Metamodel::MethodContainer -->
<g id="edge21" class="edge"><title>Metamodel::EnumHOW&#45;&gt;Metamodel::MethodContainer</title>
<path fill="none" stroke="#6666ff" d="M-214.409,245.957C-228.782,206.769 -262.979,113.528 -280.087,66.8821"/>
<polygon fill="#6666ff" stroke="#6666ff" points="-283.405,68.0002 -283.563,57.4065 -276.833,65.5898 -283.405,68.0002"/>
</g>
<!-- Metamodel::EnumHOW&#45;&gt;Metamodel::MultiMethodContainer -->
<g id="edge22" class="edge"><title>Metamodel::EnumHOW&#45;&gt;Metamodel::MultiMethodContainer</title>
<path fill="none" stroke="#6666ff" d="M-103.159,263.78C-87.346,263.752 -70.7473,263.724 -54.1255,263.695"/>
<polygon fill="#6666ff" stroke="#6666ff" points="-53.7859,260.195 -43.7799,263.677 -53.7738,267.195 -53.7859,260.195"/>
</g>
<!-- Metamodel::EnumHOW&#45;&gt;Metamodel::AttributeContainer -->
<g id="edge20" class="edge"><title>Metamodel::EnumHOW&#45;&gt;Metamodel::AttributeContainer</title>
<path fill="none" stroke="#6666ff" d="M-121.008,253.9C2.74122,239.558 229.834,213.238 365.084,197.562"/>
<polygon fill="#6666ff" stroke="#6666ff" points="364.726,194.081 375.063,196.406 365.532,201.034 364.726,194.081"/>
</g>
<!-- Metamodel::EnumHOW&#45;&gt;Metamodel::Stashing -->
<g id="edge19" class="edge"><title>Metamodel::EnumHOW&#45;&gt;Metamodel::Stashing</title>
<path fill="none" stroke="#6666ff" d="M-203.075,245.846C-185.617,179.008 -124.734,-54.0923 -103.448,-135.587"/>
<polygon fill="#6666ff" stroke="#6666ff" points="-106.742,-136.827 -100.828,-145.618 -99.9688,-135.058 -106.742,-136.827"/>
</g>
<!-- Metamodel::EnumHOW&#45;&gt;Metamodel::BaseType -->
<g id="edge24" class="edge"><title>Metamodel::EnumHOW&#45;&gt;Metamodel::BaseType</title>
<path fill="none" stroke="#6666ff" d="M-198.824,282.204C-178.368,323.756 -128.226,425.609 -104.17,474.474"/>
<polygon fill="#6666ff" stroke="#6666ff" points="-101,472.99 -99.7229,483.507 -107.28,476.081 -101,472.99"/>
</g>
<!-- Metamodel::EnumHOW&#45;&gt;Metamodel::MROBasedMethodDispatch -->
<g id="edge25" class="edge"><title>Metamodel::EnumHOW&#45;&gt;Metamodel::MROBasedMethodDispatch</title>
<path fill="none" stroke="#6666ff" d="M-225.195,282.085C-263.681,322.196 -356.142,418.563 -400.389,464.68"/>
<polygon fill="#6666ff" stroke="#6666ff" points="-397.864,467.104 -407.313,471.896 -402.915,462.257 -397.864,467.104"/>
</g>
<!-- Metamodel::EnumHOW&#45;&gt;Metamodel::MROBasedTypeChecking -->
<g id="edge26" class="edge"><title>Metamodel::EnumHOW&#45;&gt;Metamodel::MROBasedTypeChecking</title>
<path fill="none" stroke="#6666ff" d="M-224.747,245.965C-274.906,192.685 -419.184,39.4287 -419.184,39.4287 -419.184,39.4287 -491.852,-40.2029 -530.297,-82.3322"/>
<polygon fill="#6666ff" stroke="#6666ff" points="-532.896,-79.9886 -537.052,-89.7346 -527.726,-84.7071 -532.896,-79.9886"/>
</g>
<!-- Metamodel::EnumHOW&#45;&gt;Metamodel::BUILDPLAN -->
<g id="edge27" class="edge"><title>Metamodel::EnumHOW&#45;&gt;Metamodel::BUILDPLAN</title>
<path fill="none" stroke="#6666ff" d="M-272.515,249.709C-322.103,238.789 -390.633,223.696 -442.734,212.222"/>
<polygon fill="#6666ff" stroke="#6666ff" points="-443.58,215.62 -452.594,210.051 -442.075,208.783 -443.58,215.62"/>
</g>
<!-- Metamodel::EnumHOW&#45;&gt;Metamodel::BoolificationProtocol -->
<g id="edge28" class="edge"><title>Metamodel::EnumHOW&#45;&gt;Metamodel::BoolificationProtocol</title>
<path fill="none" stroke="#6666ff" d="M-261.196,279.473C-371.648,311.564 -624.997,385.174 -745.878,420.296"/>
<polygon fill="#6666ff" stroke="#6666ff" points="-745.173,423.736 -755.752,423.165 -747.126,417.014 -745.173,423.736"/>
</g>
<!-- Metamodel::Finalization -->
<g id="node22" class="node"><title>Metamodel::Finalization</title>
<g id="a_node22"><a xlink:href="/type/Metamodel::Finalization" xlink:title="Metamodel::Finalization">
<ellipse fill="none" stroke="#6666ff" cx="-835.721" cy="-372.498" rx="103.982" ry="18"/>
<text text-anchor="middle" x="-835.721" y="-368.798" font-family="FreeSans" font-size="14.00" fill="#6666ff">Metamodel::Finalization</text>
</a>
</g>
</g>
<!-- Metamodel::DefaultParent -->
<g id="node23" class="node"><title>Metamodel::DefaultParent</title>
<g id="a_node23"><a xlink:href="/type/Metamodel::DefaultParent" xlink:title="Metamodel::DefaultParent">
<ellipse fill="none" stroke="#6666ff" cx="-222.666" cy="-447.428" rx="113.18" ry="18"/>
<text text-anchor="middle" x="-222.666" y="-443.728" font-family="FreeSans" font-size="14.00" fill="#6666ff">Metamodel::DefaultParent</text>
</a>
</g>
</g>
<!-- Metamodel::C3MRO -->
<g id="node24" class="node"><title>Metamodel::C3MRO</title>
<g id="a_node24"><a xlink:href="/type/Metamodel::C3MRO" xlink:title="Metamodel::C3MRO">
<ellipse fill="none" stroke="#6666ff" cx="18.1773" cy="-437.381" rx="92.0841" ry="18"/>
<text text-anchor="middle" x="18.1773" y="-433.681" font-family="FreeSans" font-size="14.00" fill="#6666ff">Metamodel::C3MRO</text>
</a>
</g>
</g>
<!-- Metamodel::Trusting -->
<g id="node25" class="node"><title>Metamodel::Trusting</title>
<g id="a_node25"><a xlink:href="/type/Metamodel::Trusting" xlink:title="Metamodel::Trusting">
<ellipse fill="none" stroke="#6666ff" cx="-502.646" cy="-434.46" rx="91.784" ry="18"/>
<text text-anchor="middle" x="-502.646" y="-430.76" font-family="FreeSans" font-size="14.00" fill="#6666ff">Metamodel::Trusting</text>
</a>
</g>
</g>
<!-- Metamodel::Mixins -->
<g id="node26" class="node"><title>Metamodel::Mixins</title>
<g id="a_node26"><a xlink:href="/type/Metamodel::Mixins" xlink:title="Metamodel::Mixins">
<ellipse fill="none" stroke="#6666ff" cx="-845.652" cy="43.186" rx="85.2851" ry="18"/>
<text text-anchor="middle" x="-845.652" y="46.886" font-family="FreeSans" font-size="14.00" fill="#6666ff">Metamodel::Mixins</text>
</a>
</g>
</g>
<!-- Metamodel::ClassHOW -->
<g id="node27" class="node"><title>Metamodel::ClassHOW</title>
<g id="a_node27"><a xlink:href="/type/Metamodel::ClassHOW" xlink:title="Metamodel::ClassHOW">
<ellipse fill="none" stroke="#000000" cx="-315.526" cy="-197.02" rx="103.982" ry="18"/>
<text text-anchor="middle" x="-315.526" y="-193.32" font-family="FreeSans" font-size="14.00" fill="#000000">Metamodel::ClassHOW</text>
</a>
</g>
</g>
<!-- Metamodel::ClassHOW&#45;&gt;Metamodel::RoleContainer -->
<g id="edge38" class="edge"><title>Metamodel::ClassHOW&#45;&gt;Metamodel::RoleContainer</title>
<path fill="none" stroke="#6666ff" d="M-295.985,-178.923C-246.262,-132.872 -114.86,-11.1747 -58.0382,41.4502"/>
<polygon fill="#6666ff" stroke="#6666ff" points="-55.4903,39.0395 -50.5317,48.4023 -60.2467,44.1753 -55.4903,39.0395"/>
</g>
<!-- Metamodel::ClassHOW&#45;&gt;Any -->
<g id="edge4" class="edge"><title>Metamodel::ClassHOW&#45;&gt;Any</title>
<path fill="none" stroke="#000000" d="M-303.673,-178.876C-267.539,-123.561 -161.211,39.2053 -161.211,39.2053 -161.211,39.2053 -148.518,66.3715 -148.518,66.3715 -148.518,66.3715 -45.2647,263.465 -45.2647,263.465 -45.2647,263.465 125.11,409.582 189.505,464.809"/>
<polygon fill="#000000" stroke="#000000" points="191.853,462.211 197.165,471.378 187.296,467.525 191.853,462.211"/>
</g>
<!-- Metamodel::ClassHOW&#45;&gt;Metamodel::Naming -->
<g id="edge29" class="edge"><title>Metamodel::ClassHOW&#45;&gt;Metamodel::Naming</title>
<path fill="none" stroke="#6666ff" d="M-280.47,-179.936C-184.433,-133.132 82.7374,-2.92758 188.077,48.4094"/>
<polygon fill="#6666ff" stroke="#6666ff" points="189.707,45.3104 197.163,52.8377 186.641,51.6029 189.707,45.3104"/>
</g>
<!-- Metamodel::ClassHOW&#45;&gt;Metamodel::Documenting -->
<g id="edge30" class="edge"><title>Metamodel::ClassHOW&#45;&gt;Metamodel::Documenting</title>
<path fill="none" stroke="#6666ff" d="M-275.497,-213.672C-173.158,-256.245 97.8721,-368.991 210.284,-415.753"/>
<polygon fill="#6666ff" stroke="#6666ff" points="209.123,-419.061 219.7,-419.671 211.812,-412.598 209.123,-419.061"/>
</g>
<!-- Metamodel::ClassHOW&#45;&gt;Metamodel::Versioning -->
<g id="edge31" class="edge"><title>Metamodel::ClassHOW&#45;&gt;Metamodel::Versioning</title>
<path fill="none" stroke="#6666ff" d="M-217.316,-190.986C-159.144,-187.412 -96.7037,-183.576 -96.7037,-183.576 -96.7037,-183.576 -39.4967,-179.012 15.9083,-174.591"/>
<polygon fill="#6666ff" stroke="#6666ff" points="16.5285,-178.053 26.2184,-173.768 15.9717,-171.075 16.5285,-178.053"/>
</g>
<!-- Metamodel::ClassHOW&#45;&gt;Metamodel::MethodContainer -->
<g id="edge35" class="edge"><title>Metamodel::ClassHOW&#45;&gt;Metamodel::MethodContainer</title>
<path fill="none" stroke="#6666ff" d="M-313.581,-178.868C-309.197,-137.969 -298.522,-38.3564 -293.248,10.8502"/>
<polygon fill="#6666ff" stroke="#6666ff" points="-289.735,10.7865 -292.149,21.1026 -296.695,11.5325 -289.735,10.7865"/>
</g>
<!-- Metamodel::ClassHOW&#45;&gt;Metamodel::PrivateMethodContainer -->
<g id="edge36" class="edge"><title>Metamodel::ClassHOW&#45;&gt;Metamodel::PrivateMethodContainer</title>
<path fill="none" stroke="#6666ff" d="M-259.696,-212.212C-110.983,-252.677 294.586,-363.034 459.367,-407.872"/>
<polygon fill="#6666ff" stroke="#6666ff" points="458.828,-411.352 469.396,-410.601 460.666,-404.598 458.828,-411.352"/>
</g>
<!-- Metamodel::ClassHOW&#45;&gt;Metamodel::MultiMethodContainer -->
<g id="edge37" class="edge"><title>Metamodel::ClassHOW&#45;&gt;Metamodel::MultiMethodContainer</title>
<path fill="none" stroke="#6666ff" d="M-303.673,-178.876C-267.539,-123.561 -161.211,39.2053 -161.211,39.2053 -161.211,39.2053 -148.518,66.3715 -148.518,66.3715 -148.518,66.3715 4.65568,186.581 71.7313,239.221"/>
<polygon fill="#6666ff" stroke="#6666ff" points="74.1406,236.663 79.8465,245.59 69.819,242.17 74.1406,236.663"/>
</g>
<!-- Metamodel::ClassHOW&#45;&gt;Metamodel::AttributeContainer -->
<g id="edge33" class="edge"><title>Metamodel::ClassHOW&#45;&gt;Metamodel::AttributeContainer</title>
<path fill="none" stroke="#6666ff" d="M-286.012,-179.728C-185.151,-120.634 139.634,69.6592 139.634,69.6592 139.634,69.6592 166.731,83.5036 166.731,83.5036 166.731,83.5036 325.12,135.609 414.756,165.096"/>
<polygon fill="#6666ff" stroke="#6666ff" points="415.864,161.776 424.269,168.226 413.677,168.425 415.864,161.776"/>
</g>
<!-- Metamodel::ClassHOW&#45;&gt;Metamodel::MultipleInheritance -->
<g id="edge39" class="edge"><title>Metamodel::ClassHOW&#45;&gt;Metamodel::MultipleInheritance</title>
<path fill="none" stroke="#6666ff" d="M-212.583,-194.406C-84.4585,-191.151 117.698,-186.016 117.698,-186.016 117.698,-186.016 190.257,-180.365 190.257,-180.365 190.257,-180.365 225.293,-173.46 262.324,-166.162"/>
<polygon fill="#6666ff" stroke="#6666ff" points="263.141,-169.569 272.275,-164.201 261.787,-162.701 263.141,-169.569"/>
</g>
<!-- Metamodel::ClassHOW&#45;&gt;Metamodel::Stashing -->
<g id="edge32" class="edge"><title>Metamodel::ClassHOW&#45;&gt;Metamodel::Stashing</title>
<path fill="none" stroke="#6666ff" d="M-236.904,-185.184C-218.448,-182.406 -198.712,-179.434 -180.031,-176.622"/>
<polygon fill="#6666ff" stroke="#6666ff" points="-179.442,-180.073 -170.074,-175.123 -180.484,-173.151 -179.442,-180.073"/>
</g>
<!-- Metamodel::ClassHOW&#45;&gt;Metamodel::MROBasedMethodDispatch -->
<g id="edge42" class="edge"><title>Metamodel::ClassHOW&#45;&gt;Metamodel::MROBasedMethodDispatch</title>
<path fill="none" stroke="#6666ff" d="M-323.488,-178.859C-347.761,-123.492 -419.184,39.4287 -419.184,39.4287 -419.184,39.4287 -406.851,195.454 -406.851,195.454 -406.851,195.454 -418.557,387.785 -423.055,461.67"/>
<polygon fill="#6666ff" stroke="#6666ff" points="-419.562,461.906 -423.664,471.675 -426.549,461.481 -419.562,461.906"/>
</g>
<!-- Metamodel::ClassHOW&#45;&gt;Metamodel::MROBasedTypeChecking -->
<g id="edge43" class="edge"><title>Metamodel::ClassHOW&#45;&gt;Metamodel::MROBasedTypeChecking</title>
<path fill="none" stroke="#6666ff" d="M-359.179,-180.653C-398.146,-166.043 -455.426,-144.567 -497.712,-128.712"/>
<polygon fill="#6666ff" stroke="#6666ff" points="-496.713,-125.349 -507.305,-125.115 -499.171,-131.903 -496.713,-125.349"/>
</g>
<!-- Metamodel::ClassHOW&#45;&gt;Metamodel::BUILDPLAN -->
<g id="edge45" class="edge"><title>Metamodel::ClassHOW&#45;&gt;Metamodel::BUILDPLAN</title>
<path fill="none" stroke="#6666ff" d="M-324.899,-178.872C-357.398,-115.945 -465.371,93.1194 -504.214,168.331"/>
<polygon fill="#6666ff" stroke="#6666ff" points="-501.316,170.347 -509.015,177.626 -507.536,167.135 -501.316,170.347"/>
</g>
<!-- Metamodel::ClassHOW&#45;&gt;Metamodel::BoolificationProtocol -->
<g id="edge47" class="edge"><title>Metamodel::ClassHOW&#45;&gt;Metamodel::BoolificationProtocol</title>
<path fill="none" stroke="#6666ff" d="M-329.843,-179.125C-391.31,-102.295 -629.726,195.712 -629.726,195.712 -629.726,195.712 -745.634,350.464 -792.803,413.442"/>
<polygon fill="#6666ff" stroke="#6666ff" points="-790.188,415.788 -798.984,421.693 -795.79,411.591 -790.188,415.788"/>
</g>
<!-- Metamodel::ClassHOW&#45;&gt;Metamodel::Finalization -->
<g id="edge34" class="edge"><title>Metamodel::ClassHOW&#45;&gt;Metamodel::Finalization</title>
<path fill="none" stroke="#6666ff" d="M-363.069,-213.058C-458.922,-245.392 -675.022,-318.289 -778.451,-353.179"/>
<polygon fill="#6666ff" stroke="#6666ff" points="-779.744,-349.921 -788.101,-356.434 -777.507,-356.554 -779.744,-349.921"/>
</g>
<!-- Metamodel::ClassHOW&#45;&gt;Metamodel::DefaultParent -->
<g id="edge40" class="edge"><title>Metamodel::ClassHOW&#45;&gt;Metamodel::DefaultParent</title>
<path fill="none" stroke="#6666ff" d="M-308.848,-215.029C-292.824,-258.239 -252.109,-368.032 -232.941,-419.72"/>
<polygon fill="#6666ff" stroke="#6666ff" points="-236.167,-421.087 -229.408,-429.246 -229.604,-418.653 -236.167,-421.087"/>
</g>
<!-- Metamodel::ClassHOW&#45;&gt;Metamodel::C3MRO -->
<g id="edge41" class="edge"><title>Metamodel::ClassHOW&#45;&gt;Metamodel::C3MRO</title>
<path fill="none" stroke="#6666ff" d="M-290.988,-214.695C-231.784,-257.339 -81.0778,-365.889 -14.4032,-413.914"/>
<polygon fill="#6666ff" stroke="#6666ff" points="-16.1065,-417.001 -5.94658,-420.005 -12.0152,-411.321 -16.1065,-417.001"/>
</g>
<!-- Metamodel::ClassHOW&#45;&gt;Metamodel::Trusting -->
<g id="edge44" class="edge"><title>Metamodel::ClassHOW&#45;&gt;Metamodel::Trusting</title>
<path fill="none" stroke="#6666ff" d="M-329.59,-214.867C-362.304,-256.377 -443.629,-359.572 -481.993,-408.252"/>
<polygon fill="#6666ff" stroke="#6666ff" points="-484.978,-406.386 -488.418,-416.406 -479.48,-410.718 -484.978,-406.386"/>
</g>
<!-- Metamodel::ClassHOW&#45;&gt;Metamodel::Mixins -->
<g id="edge46" class="edge"><title>Metamodel::ClassHOW&#45;&gt;Metamodel::Mixins</title>
<path fill="none" stroke="#6666ff" d="M-330.352,-178.984C-351.761,-152.941 -388.792,-107.894 -388.792,-107.894 -388.792,-107.894 -668.544,-15.3823 -790.225,24.8568"/>
<polygon fill="#6666ff" stroke="#6666ff" points="-789.161,28.1913 -799.755,28.0081 -791.359,21.5453 -789.161,28.1913"/>
</g>
<!-- Metamodel::ConcreteRoleHOW -->
<g id="node28" class="node"><title>Metamodel::ConcreteRoleHOW</title>
<g id="a_node28"><a xlink:href="/type/Metamodel::ConcreteRoleHOW" xlink:title="Metamodel::ConcreteRoleHOW">
<ellipse fill="none" stroke="#000000" cx="861.131" cy="53.2642" rx="135.676" ry="18"/>
<text text-anchor="middle" x="861.131" y="56.9642" font-family="FreeSans" font-size="14.00" fill="#000000">Metamodel::ConcreteRoleHOW</text>
</a>
</g>
</g>
<!-- Metamodel::ConcreteRoleHOW&#45;&gt;Metamodel::RoleContainer -->
<g id="edge54" class="edge"><title>Metamodel::ConcreteRoleHOW&#45;&gt;Metamodel::RoleContainer</title>
<path fill="none" stroke="#6666ff" d="M725.25,52.5618C540.108,51.6047 231.337,50.0085 231.337,50.0085 231.337,50.0085 156.389,54.6527 86.5771,58.9785"/>
<polygon fill="#6666ff" stroke="#6666ff" points="86.5211,62.4886 76.3238,59.6139 86.0882,55.502 86.5211,62.4886"/>
</g>
<!-- Metamodel::ConcreteRoleHOW&#45;&gt;Any -->
<g id="edge5" class="edge"><title>Metamodel::ConcreteRoleHOW&#45;&gt;Any</title>
<path fill="none" stroke="#000000" d="M834.546,71.0188C730.049,140.807 348.032,395.94 241.508,467.083"/>
<polygon fill="#000000" stroke="#000000" points="243.169,470.182 232.909,472.825 239.281,464.361 243.169,470.182"/>
</g>
<!-- Metamodel::ConcreteRoleHOW&#45;&gt;Metamodel::Naming -->
<g id="edge48" class="edge"><title>Metamodel::ConcreteRoleHOW&#45;&gt;Metamodel::Naming</title>
<path fill="none" stroke="#6666ff" d="M727.618,56.7304C609.084,59.8077 438.529,64.2356 331.455,67.0154"/>
<polygon fill="#6666ff" stroke="#6666ff" points="331.382,70.5184 321.295,67.2792 331.201,63.5207 331.382,70.5184"/>
</g>
<!-- Metamodel::ConcreteRoleHOW&#45;&gt;Metamodel::Versioning -->
<g id="edge49" class="edge"><title>Metamodel::ConcreteRoleHOW&#45;&gt;Metamodel::Versioning</title>
<path fill="none" stroke="#6666ff" d="M805.302,36.7524C669.559,-3.39494 322.954,-105.906 180.714,-147.975"/>
<polygon fill="#6666ff" stroke="#6666ff" points="179.428,-144.705 170.832,-150.898 181.414,-151.418 179.428,-144.705"/>
</g>
<!-- Metamodel::ConcreteRoleHOW&#45;&gt;Metamodel::MethodContainer -->
<g id="edge51" class="edge"><title>Metamodel::ConcreteRoleHOW&#45;&gt;Metamodel::MethodContainer</title>
<path fill="none" stroke="#6666ff" d="M725.673,51.6233C504.675,48.9461 68.9763,43.668 -153.087,40.978"/>
<polygon fill="#6666ff" stroke="#6666ff" points="-153.216,44.4768 -163.173,40.8558 -153.131,37.4773 -153.216,44.4768"/>
</g>
<!-- Metamodel::ConcreteRoleHOW&#45;&gt;Metamodel::PrivateMethodContainer -->
<g id="edge50" class="edge"><title>Metamodel::ConcreteRoleHOW&#45;&gt;Metamodel::PrivateMethodContainer</title>
<path fill="none" stroke="#6666ff" d="M848.769,35.3064C798.372,-37.9035 608.28,-314.046 548.5,-400.888"/>
<polygon fill="#6666ff" stroke="#6666ff" points="545.6,-398.928 542.813,-409.149 551.366,-402.897 545.6,-398.928"/>
</g>
<!-- Metamodel::ConcreteRoleHOW&#45;&gt;Metamodel::MultiMethodContainer -->
<g id="edge52" class="edge"><title>Metamodel::ConcreteRoleHOW&#45;&gt;Metamodel::MultiMethodContainer</title>
<path fill="none" stroke="#6666ff" d="M796.468,69.1426C665.594,101.279 381.665,171 381.665,171 381.665,171 245.619,216.053 163.497,243.249"/>
<polygon fill="#6666ff" stroke="#6666ff" points="164.355,246.651 153.762,246.473 162.155,240.006 164.355,246.651"/>
</g>
<!-- Metamodel::ConcreteRoleHOW&#45;&gt;Metamodel::AttributeContainer -->
<g id="edge53" class="edge"><title>Metamodel::ConcreteRoleHOW&#45;&gt;Metamodel::AttributeContainer</title>
<path fill="none" stroke="#6666ff" d="M811.809,70.0629C740.75,94.2647 609.78,138.872 533.725,164.776"/>
<polygon fill="#6666ff" stroke="#6666ff" points="534.418,168.237 523.823,168.148 532.161,161.611 534.418,168.237"/>
</g>
<!-- Metamodel::ConcreteRoleHOW&#45;&gt;Metamodel::MultipleInheritance -->
<g id="edge55" class="edge"><title>Metamodel::ConcreteRoleHOW&#45;&gt;Metamodel::MultipleInheritance</title>
<path fill="none" stroke="#6666ff" d="M813.114,36.2805C702.465,-2.85657 438.967,-96.0574 438.967,-96.0574 438.967,-96.0574 411.604,-112.046 386.866,-126.502"/>
<polygon fill="#6666ff" stroke="#6666ff" points="384.794,-123.659 377.925,-131.726 388.325,-129.702 384.794,-123.659"/>
</g>
</g>
</svg>
