<?xml version="1.0" encoding="UTF-8" standalone="no"?>
<!DOCTYPE svg PUBLIC "-//W3C//DTD SVG 1.1//EN"
 "http://www.w3.org/Graphics/SVG/1.1/DTD/svg11.dtd">
<!-- Generated by graphviz version 2.38.0 (20140413.2041)
 -->
<!-- Title: perl6&#45;type&#45;graph Pages: 1 -->
<svg width="1888pt" height="789pt"
 viewBox="0.00 0.00 1888.40 789.08" xmlns="http://www.w3.org/2000/svg" xmlns:xlink="http://www.w3.org/1999/xlink">
<g id="graph0" class="graph" transform="scale(1 1) rotate(0) translate(981.508 362.296)">
<title>perl6&#45;type&#45;graph</title>
<polygon fill="white" stroke="none" points="-981.508,426.788 -981.508,-362.296 906.893,-362.296 906.893,426.788 -981.508,426.788"/>
<!-- Metamodel::RolePunning -->
<g id="node1" class="node"><title>Metamodel::RolePunning</title>
<g id="a_node1"><a xlink:href="/type/Metamodel::RolePunning" xlink:title="Metamodel::RolePunning">
<ellipse fill="none" stroke="#6666ff" cx="96.4179" cy="155.38" rx="109.681" ry="18"/>
<text text-anchor="middle" x="96.4179" y="159.08" font-family="FreeSans" font-size="14.00" fill="#6666ff">Metamodel::RolePunning</text>
</a>
</g>
</g>
<!-- Mu -->
<g id="node2" class="node"><title>Mu</title>
<g id="a_node2"><a xlink:href="/type/Mu" xlink:title="Mu">
<ellipse fill="none" stroke="#000000" cx="-401.616" cy="381.338" rx="27" ry="18"/>
<text text-anchor="middle" x="-401.616" y="385.038" font-family="FreeSans" font-size="14.00" fill="#000000">Mu</text>
</a>
</g>
</g>
<!-- Any -->
<g id="node3" class="node"><title>Any</title>
<g id="a_node3"><a xlink:href="/type/Any" xlink:title="Any">
<ellipse fill="none" stroke="#000000" cx="-184.287" cy="163.677" rx="27" ry="18"/>
<text text-anchor="middle" x="-184.287" y="167.377" font-family="FreeSans" font-size="14.00" fill="#000000">Any</text>
</a>
</g>
</g>
<!-- Any&#45;&gt;Mu -->
<g id="edge1" class="edge"><title>Any&#45;&gt;Mu</title>
<path fill="none" stroke="#000000" d="M-199.569,178.982C-237.382,216.853 -335.438,315.059 -379.547,359.236"/>
<polygon fill="#000000" stroke="#000000" points="-377.097,361.735 -386.639,366.338 -382.05,356.789 -377.097,361.735"/>
</g>
<!-- Metamodel::Naming -->
<g id="node4" class="node"><title>Metamodel::Naming</title>
<g id="a_node4"><a xlink:href="/type/Metamodel::Naming" xlink:title="Metamodel::Naming">
<ellipse fill="none" stroke="#6666ff" cx="-468.524" cy="-319.023" rx="90.1842" ry="18"/>
<text text-anchor="middle" x="-468.524" y="-315.323" font-family="FreeSans" font-size="14.00" fill="#6666ff">Metamodel::Naming</text>
</a>
</g>
</g>
<!-- Metamodel::Stashing -->
<g id="node5" class="node"><title>Metamodel::Stashing</title>
<g id="a_node5"><a xlink:href="/type/Metamodel::Stashing" xlink:title="Metamodel::Stashing">
<ellipse fill="none" stroke="#6666ff" cx="31.8982" cy="-76.4244" rx="93.6835" ry="18"/>
<text text-anchor="middle" x="31.8982" y="-72.7244" font-family="FreeSans" font-size="14.00" fill="#6666ff">Metamodel::Stashing</text>
</a>
</g>
</g>
<!-- Metamodel::TypePretense -->
<g id="node6" class="node"><title>Metamodel::TypePretense</title>
<g id="a_node6"><a xlink:href="/type/Metamodel::TypePretense" xlink:title="Metamodel::TypePretense">
<ellipse fill="none" stroke="#6666ff" cx="-242.765" cy="-74.7846" rx="114.28" ry="18"/>
<text text-anchor="middle" x="-242.765" y="-71.0846" font-family="FreeSans" font-size="14.00" fill="#6666ff">Metamodel::TypePretense</text>
</a>
</g>
</g>
<!-- Metamodel::BoolificationProtocol -->
<g id="node7" class="node"><title>Metamodel::BoolificationProtocol</title>
<g id="a_node7"><a xlink:href="/type/Metamodel::BoolificationProtocol" xlink:title="Metamodel::BoolificationProtocol">
<ellipse fill="none" stroke="#6666ff" cx="-838.42" cy="-226.16" rx="139.175" ry="18"/>
<text text-anchor="middle" x="-838.42" y="-222.46" font-family="FreeSans" font-size="14.00" fill="#6666ff">Metamodel::BoolificationProtocol</text>
</a>
</g>
</g>
<!-- Metamodel::ParametricRoleGroupHOW -->
<g id="node8" class="node"><title>Metamodel::ParametricRoleGroupHOW</title>
<g id="a_node8"><a xlink:href="/type/Metamodel::ParametricRoleGroupHOW" xlink:title="Metamodel::ParametricRoleGroupHOW">
<ellipse fill="none" stroke="#000000" cx="-510.702" cy="44.9204" rx="167.07" ry="18"/>
<text text-anchor="middle" x="-510.702" y="48.6204" font-family="FreeSans" font-size="14.00" fill="#000000">Metamodel::ParametricRoleGroupHOW</text>
</a>
</g>
</g>
<!-- Metamodel::ParametricRoleGroupHOW&#45;&gt;Metamodel::RolePunning -->
<g id="edge8" class="edge"><title>Metamodel::ParametricRoleGroupHOW&#45;&gt;Metamodel::RolePunning</title>
<path fill="none" stroke="#6666ff" d="M-425.325,60.454C-309.174,81.5867 -102.655,119.161 12.653,140.14"/>
<polygon fill="#6666ff" stroke="#6666ff" points="13.2864,136.698 22.4983,141.931 12.0333,143.585 13.2864,136.698"/>
</g>
<!-- Metamodel::ParametricRoleGroupHOW&#45;&gt;Any -->
<g id="edge2" class="edge"><title>Metamodel::ParametricRoleGroupHOW&#45;&gt;Any</title>
<path fill="none" stroke="#000000" d="M-463.239,62.1887C-396.38,86.5133 -276.129,130.263 -217.815,151.479"/>
<polygon fill="#000000" stroke="#000000" points="-216.539,148.218 -208.339,154.926 -218.933,154.796 -216.539,148.218"/>
</g>
<!-- Metamodel::ParametricRoleGroupHOW&#45;&gt;Metamodel::Naming -->
<g id="edge5" class="edge"><title>Metamodel::ParametricRoleGroupHOW&#45;&gt;Metamodel::Naming</title>
<path fill="none" stroke="#6666ff" d="M-508.611,26.8724C-501.78,-32.064 -480.094,-219.189 -471.796,-290.786"/>
<polygon fill="#6666ff" stroke="#6666ff" points="-475.256,-291.336 -470.628,-300.866 -468.303,-290.53 -475.256,-291.336"/>
</g>
<!-- Metamodel::ParametricRoleGroupHOW&#45;&gt;Metamodel::Stashing -->
<g id="edge6" class="edge"><title>Metamodel::ParametricRoleGroupHOW&#45;&gt;Metamodel::Stashing</title>
<path fill="none" stroke="#6666ff" d="M-438.088,28.6812C-333.845,5.3689 -142.973,-37.3171 -39.4417,-60.4703"/>
<polygon fill="#6666ff" stroke="#6666ff" points="-39.9188,-63.95 -29.396,-62.7168 -38.391,-57.1187 -39.9188,-63.95"/>
</g>
<!-- Metamodel::ParametricRoleGroupHOW&#45;&gt;Metamodel::TypePretense -->
<g id="edge7" class="edge"><title>Metamodel::ParametricRoleGroupHOW&#45;&gt;Metamodel::TypePretense</title>
<path fill="none" stroke="#6666ff" d="M-471.455,27.3861C-423.288,5.86666 -341.674,-30.5955 -290.085,-53.6438"/>
<polygon fill="#6666ff" stroke="#6666ff" points="-291.374,-56.9011 -280.816,-57.7847 -288.519,-50.51 -291.374,-56.9011"/>
</g>
<!-- Metamodel::ParametricRoleGroupHOW&#45;&gt;Metamodel::BoolificationProtocol -->
<g id="edge9" class="edge"><title>Metamodel::ParametricRoleGroupHOW&#45;&gt;Metamodel::BoolificationProtocol</title>
<path fill="none" stroke="#6666ff" d="M-532.459,26.9242C-589.627,-20.364 -744.14,-148.174 -809.062,-201.875"/>
<polygon fill="#6666ff" stroke="#6666ff" points="-811.411,-199.276 -816.886,-208.347 -806.949,-204.67 -811.411,-199.276"/>
</g>
<!-- Metamodel::Documenting -->
<g id="node9" class="node"><title>Metamodel::Documenting</title>
<g id="a_node9"><a xlink:href="/type/Metamodel::Documenting" xlink:title="Metamodel::Documenting">
<ellipse fill="none" stroke="#6666ff" cx="-21.4957" cy="404.788" rx="111.28" ry="18"/>
<text text-anchor="middle" x="-21.4957" y="408.488" font-family="FreeSans" font-size="14.00" fill="#6666ff">Metamodel::Documenting</text>
</a>
</g>
</g>
<!-- Metamodel::Versioning -->
<g id="node10" class="node"><title>Metamodel::Versioning</title>
<g id="a_node10"><a xlink:href="/type/Metamodel::Versioning" xlink:title="Metamodel::Versioning">
<ellipse fill="none" stroke="#6666ff" cx="737.906" cy="352.866" rx="100.983" ry="18"/>
<text text-anchor="middle" x="737.906" y="356.566" font-family="FreeSans" font-size="14.00" fill="#6666ff">Metamodel::Versioning</text>
</a>
</g>
</g>
<!-- Metamodel::MethodContainer -->
<g id="node11" class="node"><title>Metamodel::MethodContainer</title>
<g id="a_node11"><a xlink:href="/type/Metamodel::MethodContainer" xlink:title="Metamodel::MethodContainer">
<ellipse fill="none" stroke="#6666ff" cx="334.035" cy="360.415" rx="127.277" ry="18"/>
<text text-anchor="middle" x="334.035" y="364.115" font-family="FreeSans" font-size="14.00" fill="#6666ff">Metamodel::MethodContainer</text>
</a>
</g>
</g>
<!-- Metamodel::PrivateMethodContainer -->
<g id="node12" class="node"><title>Metamodel::PrivateMethodContainer</title>
<g id="a_node12"><a xlink:href="/type/Metamodel::PrivateMethodContainer" xlink:title="Metamodel::PrivateMethodContainer">
<ellipse fill="none" stroke="#6666ff" cx="-157.774" cy="-340.296" rx="154.873" ry="18"/>
<text text-anchor="middle" x="-157.774" y="-336.596" font-family="FreeSans" font-size="14.00" fill="#6666ff">Metamodel::PrivateMethodContainer</text>
</a>
</g>
</g>
<!-- Metamodel::MultiMethodContainer -->
<g id="node13" class="node"><title>Metamodel::MultiMethodContainer</title>
<g id="a_node13"><a xlink:href="/type/Metamodel::MultiMethodContainer" xlink:title="Metamodel::MultiMethodContainer">
<ellipse fill="none" stroke="#6666ff" cx="756.656" cy="-298.189" rx="146.474" ry="18"/>
<text text-anchor="middle" x="756.656" y="-294.489" font-family="FreeSans" font-size="14.00" fill="#6666ff">Metamodel::MultiMethodContainer</text>
</a>
</g>
</g>
<!-- Metamodel::AttributeContainer -->
<g id="node14" class="node"><title>Metamodel::AttributeContainer</title>
<g id="a_node14"><a xlink:href="/type/Metamodel::AttributeContainer" xlink:title="Metamodel::AttributeContainer">
<ellipse fill="none" stroke="#6666ff" cx="389.597" cy="-300.445" rx="129.977" ry="18"/>
<text text-anchor="middle" x="389.597" y="-296.745" font-family="FreeSans" font-size="14.00" fill="#6666ff">Metamodel::AttributeContainer</text>
</a>
</g>
</g>
<!-- Metamodel::RoleContainer -->
<g id="node15" class="node"><title>Metamodel::RoleContainer</title>
<g id="a_node15"><a xlink:href="/type/Metamodel::RoleContainer" xlink:title="Metamodel::RoleContainer">
<ellipse fill="none" stroke="#6666ff" cx="119.232" cy="-333.67" rx="115.88" ry="18"/>
<text text-anchor="middle" x="119.232" y="-329.97" font-family="FreeSans" font-size="14.00" fill="#6666ff">Metamodel::RoleContainer</text>
</a>
</g>
</g>
<!-- Metamodel::MultipleInheritance -->
<g id="node16" class="node"><title>Metamodel::MultipleInheritance</title>
<g id="a_node16"><a xlink:href="/type/Metamodel::MultipleInheritance" xlink:title="Metamodel::MultipleInheritance">
<ellipse fill="none" stroke="#6666ff" cx="717.953" cy="30.9189" rx="133.776" ry="18"/>
<text text-anchor="middle" x="717.953" y="34.6189" font-family="FreeSans" font-size="14.00" fill="#6666ff">Metamodel::MultipleInheritance</text>
</a>
</g>
</g>
<!-- Metamodel::ParametricRoleHOW -->
<g id="node17" class="node"><title>Metamodel::ParametricRoleHOW</title>
<g id="a_node17"><a xlink:href="/type/Metamodel::ParametricRoleHOW" xlink:title="Metamodel::ParametricRoleHOW">
<ellipse fill="none" stroke="#000000" cx="335.807" cy="17.0873" rx="142.175" ry="18"/>
<text text-anchor="middle" x="335.807" y="20.7873" font-family="FreeSans" font-size="14.00" fill="#000000">Metamodel::ParametricRoleHOW</text>
</a>
</g>
</g>
<!-- Metamodel::ParametricRoleHOW&#45;&gt;Metamodel::RolePunning -->
<g id="edge21" class="edge"><title>Metamodel::ParametricRoleHOW&#45;&gt;Metamodel::RolePunning</title>
<path fill="none" stroke="#6666ff" d="M305.001,34.8836C261.7,59.8984 182.842,105.454 135.476,132.817"/>
<polygon fill="#6666ff" stroke="#6666ff" points="137.138,135.899 126.728,137.87 133.636,129.837 137.138,135.899"/>
</g>
<!-- Metamodel::ParametricRoleHOW&#45;&gt;Any -->
<g id="edge3" class="edge"><title>Metamodel::ParametricRoleHOW&#45;&gt;Any</title>
<path fill="none" stroke="#000000" d="M277.409,33.5471C168.668,64.1959 -61.7513,129.14 -149.426,153.851"/>
<polygon fill="#000000" stroke="#000000" points="-148.578,157.249 -159.153,156.593 -150.477,150.511 -148.578,157.249"/>
</g>
<!-- Metamodel::ParametricRoleHOW&#45;&gt;Metamodel::Naming -->
<g id="edge10" class="edge"><title>Metamodel::ParametricRoleHOW&#45;&gt;Metamodel::Naming</title>
<path fill="none" stroke="#6666ff" d="M297.484,-0.292576C230.44,-30.6976 98.9212,-90.3427 98.9212,-90.3427 98.9212,-90.3427 -280.119,-243.096 -418.621,-298.912"/>
<polygon fill="#6666ff" stroke="#6666ff" points="-420.203,-295.776 -428.169,-302.76 -417.586,-302.269 -420.203,-295.776"/>
</g>
<!-- Metamodel::ParametricRoleHOW&#45;&gt;Metamodel::Stashing -->
<g id="edge19" class="edge"><title>Metamodel::ParametricRoleHOW&#45;&gt;Metamodel::Stashing</title>
<path fill="none" stroke="#6666ff" d="M281.474,0.369289C228.002,-16.084 146.56,-41.1434 91.376,-58.1233"/>
<polygon fill="#6666ff" stroke="#6666ff" points="90.2601,-54.8047 81.7317,-61.0908 92.3188,-61.4951 90.2601,-54.8047"/>
</g>
<!-- Metamodel::ParametricRoleHOW&#45;&gt;Metamodel::TypePretense -->
<g id="edge20" class="edge"><title>Metamodel::ParametricRoleHOW&#45;&gt;Metamodel::TypePretense</title>
<path fill="none" stroke="#6666ff" d="M246.989,2.98384C138.862,-14.1857 -42.7728,-43.0276 -151.843,-60.347"/>
<polygon fill="#6666ff" stroke="#6666ff" points="-152.514,-56.9096 -161.841,-61.9346 -151.416,-63.823 -152.514,-56.9096"/>
</g>
<!-- Metamodel::ParametricRoleHOW&#45;&gt;Metamodel::Documenting -->
<g id="edge11" class="edge"><title>Metamodel::ParametricRoleHOW&#45;&gt;Metamodel::Documenting</title>
<path fill="none" stroke="#6666ff" d="M319.29,35.0094C261.687,97.5138 69.5237,306.025 2.11694,379.167"/>
<polygon fill="#6666ff" stroke="#6666ff" points="4.60871,381.628 -4.74196,386.609 -0.538735,376.884 4.60871,381.628"/>
</g>
<!-- Metamodel::ParametricRoleHOW&#45;&gt;Metamodel::Versioning -->
<g id="edge12" class="edge"><title>Metamodel::ParametricRoleHOW&#45;&gt;Metamodel::Versioning</title>
<path fill="none" stroke="#6666ff" d="M357.142,34.9032C424.346,91.0229 631.744,264.214 708.739,328.509"/>
<polygon fill="#6666ff" stroke="#6666ff" points="711.191,325.997 716.623,335.093 706.704,331.37 711.191,325.997"/>
</g>
<!-- Metamodel::ParametricRoleHOW&#45;&gt;Metamodel::MethodContainer -->
<g id="edge13" class="edge"><title>Metamodel::ParametricRoleHOW&#45;&gt;Metamodel::MethodContainer</title>
<path fill="none" stroke="#6666ff" d="M335.712,35.5461C335.42,92.1474 334.535,263.556 334.182,331.869"/>
<polygon fill="#6666ff" stroke="#6666ff" points="337.68,332.3 334.129,342.282 330.68,332.264 337.68,332.3"/>
</g>
<!-- Metamodel::ParametricRoleHOW&#45;&gt;Metamodel::PrivateMethodContainer -->
<g id="edge14" class="edge"><title>Metamodel::ParametricRoleHOW&#45;&gt;Metamodel::PrivateMethodContainer</title>
<path fill="none" stroke="#6666ff" d="M310.992,-0.8803C229.098,-60.1768 -32.6045,-249.666 -125.05,-316.602"/>
<polygon fill="#6666ff" stroke="#6666ff" points="-127.155,-313.805 -133.202,-322.505 -123.05,-319.475 -127.155,-313.805"/>
</g>
<!-- Metamodel::ParametricRoleHOW&#45;&gt;Metamodel::MultiMethodContainer -->
<g id="edge15" class="edge"><title>Metamodel::ParametricRoleHOW&#45;&gt;Metamodel::MultiMethodContainer</title>
<path fill="none" stroke="#6666ff" d="M359.64,-0.766654C431.026,-54.245 643.191,-213.188 724.474,-274.08"/>
<polygon fill="#6666ff" stroke="#6666ff" points="722.723,-277.142 732.825,-280.336 726.92,-271.539 722.723,-277.142"/>
</g>
<!-- Metamodel::ParametricRoleHOW&#45;&gt;Metamodel::AttributeContainer -->
<g id="edge16" class="edge"><title>Metamodel::ParametricRoleHOW&#45;&gt;Metamodel::AttributeContainer</title>
<path fill="none" stroke="#6666ff" d="M338.932,-1.35704C347.94,-54.5343 374.007,-208.414 384.814,-272.214"/>
<polygon fill="#6666ff" stroke="#6666ff" points="381.41,-273.07 386.531,-282.345 388.311,-271.901 381.41,-273.07"/>
</g>
<!-- Metamodel::ParametricRoleHOW&#45;&gt;Metamodel::RoleContainer -->
<g id="edge17" class="edge"><title>Metamodel::ParametricRoleHOW&#45;&gt;Metamodel::RoleContainer</title>
<path fill="none" stroke="#6666ff" d="M324.468,-1.27709C288.724,-59.1667 178.275,-238.047 135.962,-306.575"/>
<polygon fill="#6666ff" stroke="#6666ff" points="132.735,-305.14 130.459,-315.488 138.691,-308.818 132.735,-305.14"/>
</g>
<!-- Metamodel::ParametricRoleHOW&#45;&gt;Metamodel::MultipleInheritance -->
<g id="edge18" class="edge"><title>Metamodel::ParametricRoleHOW&#45;&gt;Metamodel::MultipleInheritance</title>
<path fill="none" stroke="#6666ff" d="M472.691,22.0418C506.998,23.2835 543.845,24.6171 578.285,25.8637"/>
<polygon fill="#6666ff" stroke="#6666ff" points="578.542,22.3706 588.409,26.2301 578.289,29.366 578.542,22.3706"/>
</g>
<!-- Metamodel::CurriedRoleHOW -->
<g id="node18" class="node"><title>Metamodel::CurriedRoleHOW</title>
<g id="a_node18"><a xlink:href="/type/Metamodel::CurriedRoleHOW" xlink:title="Metamodel::CurriedRoleHOW">
<ellipse fill="none" stroke="#000000" cx="-823.024" cy="292.785" rx="128.877" ry="18"/>
<text text-anchor="middle" x="-823.024" y="296.485" font-family="FreeSans" font-size="14.00" fill="#000000">Metamodel::CurriedRoleHOW</text>
</a>
</g>
</g>
<!-- Metamodel::CurriedRoleHOW&#45;&gt;Metamodel::RolePunning -->
<g id="edge22" class="edge"><title>Metamodel::CurriedRoleHOW&#45;&gt;Metamodel::RolePunning</title>
<path fill="none" stroke="#6666ff" d="M-734.864,279.61C-560.263,253.517 -172.086,195.507 5.07546,169.031"/>
<polygon fill="#6666ff" stroke="#6666ff" points="4.74381,165.542 15.1513,167.525 5.77849,172.465 4.74381,165.542"/>
</g>
<!-- Metamodel::CurriedRoleHOW&#45;&gt;Any -->
<g id="edge4" class="edge"><title>Metamodel::CurriedRoleHOW&#45;&gt;Any</title>
<path fill="none" stroke="#000000" d="M-749.753,277.975C-612.714,250.275 -322.286,191.571 -220.471,170.991"/>
<polygon fill="#000000" stroke="#000000" points="-220.881,167.503 -210.385,168.952 -219.494,174.364 -220.881,167.503"/>
</g>
<!-- Metamodel::CurriedRoleHOW&#45;&gt;Metamodel::TypePretense -->
<g id="edge23" class="edge"><title>Metamodel::CurriedRoleHOW&#45;&gt;Metamodel::TypePretense</title>
<path fill="none" stroke="#6666ff" d="M-789.204,275.35C-679.729,218.911 -342.069,44.8348 -342.069,44.8348 -342.069,44.8348 -293.443,-13.7386 -264.245,-48.9107"/>
<polygon fill="#6666ff" stroke="#6666ff" points="-266.712,-51.4177 -257.632,-56.8763 -261.326,-46.9465 -266.712,-51.4177"/>
</g>
</g>
</svg>
