<?xml version="1.0" encoding="UTF-8" standalone="no"?>
<!DOCTYPE svg PUBLIC "-//W3C//DTD SVG 1.1//EN"
 "http://www.w3.org/Graphics/SVG/1.1/DTD/svg11.dtd">
<!-- Generated by graphviz version 2.38.0 (20140413.2041)
 -->
<!-- Title: perl6&#45;type&#45;graph Pages: 1 -->
<svg width="219pt" height="260pt"
 viewBox="0.00 0.00 218.58 260.00" xmlns="http://www.w3.org/2000/svg" xmlns:xlink="http://www.w3.org/1999/xlink">
<g id="graph0" class="graph" transform="scale(1 1) rotate(0) translate(4 256)">
<title>perl6&#45;type&#45;graph</title>
<polygon fill="white" stroke="none" points="-4,4 -4,-256 214.581,-256 214.581,4 -4,4"/>
<!-- X::Sequence::Deduction -->
<g id="node1" class="node"><title>X::Sequence::Deduction</title>
<g id="a_node1"><a xlink:href="/type/X::Sequence::Deduction" xlink:title="X::Sequence::Deduction">
<ellipse fill="none" stroke="#000000" cx="105.291" cy="-18" rx="105.082" ry="18"/>
<text text-anchor="middle" x="105.291" y="-14.3" font-family="FreeSans" font-size="14.00" fill="#000000">X::Sequence::Deduction</text>
</a>
</g>
</g>
<!-- Exception -->
<g id="node4" class="node"><title>Exception</title>
<g id="a_node4"><a xlink:href="/type/Exception" xlink:title="Exception">
<ellipse fill="none" stroke="#000000" cx="105.291" cy="-90" rx="49.2915" ry="18"/>
<text text-anchor="middle" x="105.291" y="-86.3" font-family="FreeSans" font-size="14.00" fill="#000000">Exception</text>
</a>
</g>
</g>
<!-- X::Sequence::Deduction&#45;&gt;Exception -->
<g id="edge1" class="edge"><title>X::Sequence::Deduction&#45;&gt;Exception</title>
<path fill="none" stroke="#000000" d="M105.291,-36.3034C105.291,-44.0173 105.291,-53.2875 105.291,-61.8876"/>
<polygon fill="#000000" stroke="#000000" points="101.791,-61.8956 105.291,-71.8957 108.791,-61.8957 101.791,-61.8956"/>
</g>
<!-- Mu -->
<g id="node2" class="node"><title>Mu</title>
<g id="a_node2"><a xlink:href="/type/Mu" xlink:title="Mu">
<ellipse fill="none" stroke="#000000" cx="105.291" cy="-234" rx="27" ry="18"/>
<text text-anchor="middle" x="105.291" y="-230.3" font-family="FreeSans" font-size="14.00" fill="#000000">Mu</text>
</a>
</g>
</g>
<!-- Any -->
<g id="node3" class="node"><title>Any</title>
<g id="a_node3"><a xlink:href="/type/Any" xlink:title="Any">
<ellipse fill="none" stroke="#000000" cx="105.291" cy="-162" rx="27" ry="18"/>
<text text-anchor="middle" x="105.291" y="-158.3" font-family="FreeSans" font-size="14.00" fill="#000000">Any</text>
</a>
</g>
</g>
<!-- Any&#45;&gt;Mu -->
<g id="edge2" class="edge"><title>Any&#45;&gt;Mu</title>
<path fill="none" stroke="#000000" d="M105.291,-180.303C105.291,-188.017 105.291,-197.288 105.291,-205.888"/>
<polygon fill="#000000" stroke="#000000" points="101.791,-205.896 105.291,-215.896 108.791,-205.896 101.791,-205.896"/>
</g>
<!-- Exception&#45;&gt;Any -->
<g id="edge3" class="edge"><title>Exception&#45;&gt;Any</title>
<path fill="none" stroke="#000000" d="M105.291,-108.303C105.291,-116.017 105.291,-125.288 105.291,-133.888"/>
<polygon fill="#000000" stroke="#000000" points="101.791,-133.896 105.291,-143.896 108.791,-133.896 101.791,-133.896"/>
</g>
</g>
</svg>
