<?xml version="1.0" encoding="UTF-8" standalone="no"?>
<!DOCTYPE svg PUBLIC "-//W3C//DTD SVG 1.1//EN"
 "http://www.w3.org/Graphics/SVG/1.1/DTD/svg11.dtd">
<!-- Generated by graphviz version 2.38.0 (20140413.2041)
 -->
<!-- Title: perl6&#45;type&#45;graph Pages: 1 -->
<svg width="213pt" height="404pt"
 viewBox="0.00 0.00 212.54 404.00" xmlns="http://www.w3.org/2000/svg" xmlns:xlink="http://www.w3.org/1999/xlink">
<g id="graph0" class="graph" transform="scale(1 1) rotate(0) translate(4 400)">
<title>perl6&#45;type&#45;graph</title>
<polygon fill="white" stroke="none" points="-4,4 -4,-400 208.542,-400 208.542,4 -4,4"/>
<!-- X::IO::Unlink -->
<g id="node1" class="node"><title>X::IO::Unlink</title>
<g id="a_node1"><a xlink:href="/type/X::IO::Unlink" xlink:title="X::IO::Unlink">
<ellipse fill="none" stroke="#000000" cx="61.0946" cy="-18" rx="61.1893" ry="18"/>
<text text-anchor="middle" x="61.0946" y="-14.3" font-family="FreeSans" font-size="14.00" fill="#000000">X::IO::Unlink</text>
</a>
</g>
</g>
<!-- Exception -->
<g id="node4" class="node"><title>Exception</title>
<g id="a_node4"><a xlink:href="/type/Exception" xlink:title="Exception">
<ellipse fill="none" stroke="#000000" cx="84.0946" cy="-234" rx="49.2915" ry="18"/>
<text text-anchor="middle" x="84.0946" y="-230.3" font-family="FreeSans" font-size="14.00" fill="#000000">Exception</text>
</a>
</g>
</g>
<!-- X::IO::Unlink&#45;&gt;Exception -->
<g id="edge1" class="edge"><title>X::IO::Unlink&#45;&gt;Exception</title>
<path fill="none" stroke="#000000" d="M59.0604,-36.1508C59.5051,-73.3384 68.7362,-161.626 76.5666,-206.228"/>
<polygon fill="#000000" stroke="#000000" points="73.1285,-206.884 78.4176,-216.065 80.0077,-205.59 73.1285,-206.884"/>
</g>
<!-- X::IO::Unlink&#45;&gt;Exception -->
<g id="edge2" class="edge"><title>X::IO::Unlink&#45;&gt;Exception</title>
<path fill="none" stroke="#000000" d="M66.8154,-36.1508C74.3298,-73.1683 84.0217,-160.819 85.8434,-205.614"/>
<polygon fill="#000000" stroke="#000000" points="82.3491,-205.87 86.1278,-215.768 89.3463,-205.673 82.3491,-205.87"/>
</g>
<!-- X::IO -->
<g id="node6" class="node"><title>X::IO</title>
<g id="a_node6"><a xlink:href="/type/X::IO" xlink:title="X::IO">
<ellipse fill="none" stroke="#6666ff" cx="129.095" cy="-90" rx="31.3957" ry="18"/>
<text text-anchor="middle" x="129.095" y="-86.3" font-family="FreeSans" font-size="14.00" fill="#6666ff">X::IO</text>
</a>
</g>
</g>
<!-- X::IO::Unlink&#45;&gt;X::IO -->
<g id="edge7" class="edge"><title>X::IO::Unlink&#45;&gt;X::IO</title>
<path fill="none" stroke="#6666ff" d="M77.2096,-35.589C86.2231,-44.8676 97.5809,-56.5595 107.37,-66.6369"/>
<polygon fill="#6666ff" stroke="#6666ff" points="105.008,-69.2277 114.486,-73.9618 110.029,-64.3502 105.008,-69.2277"/>
</g>
<!-- Mu -->
<g id="node2" class="node"><title>Mu</title>
<g id="a_node2"><a xlink:href="/type/Mu" xlink:title="Mu">
<ellipse fill="none" stroke="#000000" cx="84.0946" cy="-378" rx="27" ry="18"/>
<text text-anchor="middle" x="84.0946" y="-374.3" font-family="FreeSans" font-size="14.00" fill="#000000">Mu</text>
</a>
</g>
</g>
<!-- Any -->
<g id="node3" class="node"><title>Any</title>
<g id="a_node3"><a xlink:href="/type/Any" xlink:title="Any">
<ellipse fill="none" stroke="#000000" cx="84.0946" cy="-306" rx="27" ry="18"/>
<text text-anchor="middle" x="84.0946" y="-302.3" font-family="FreeSans" font-size="14.00" fill="#000000">Any</text>
</a>
</g>
</g>
<!-- Any&#45;&gt;Mu -->
<g id="edge3" class="edge"><title>Any&#45;&gt;Mu</title>
<path fill="none" stroke="#000000" d="M84.0946,-324.303C84.0946,-332.017 84.0946,-341.288 84.0946,-349.888"/>
<polygon fill="#000000" stroke="#000000" points="80.5947,-349.896 84.0946,-359.896 87.5947,-349.896 80.5947,-349.896"/>
</g>
<!-- Exception&#45;&gt;Any -->
<g id="edge4" class="edge"><title>Exception&#45;&gt;Any</title>
<path fill="none" stroke="#000000" d="M84.0946,-252.303C84.0946,-260.017 84.0946,-269.288 84.0946,-277.888"/>
<polygon fill="#000000" stroke="#000000" points="80.5947,-277.896 84.0946,-287.896 87.5947,-277.896 80.5947,-277.896"/>
</g>
<!-- X::OS -->
<g id="node5" class="node"><title>X::OS</title>
<g id="a_node5"><a xlink:href="/type/X::OS" xlink:title="X::OS">
<ellipse fill="none" stroke="#6666ff" cx="170.095" cy="-162" rx="34.394" ry="18"/>
<text text-anchor="middle" x="170.095" y="-158.3" font-family="FreeSans" font-size="14.00" fill="#6666ff">X::OS</text>
</a>
</g>
</g>
<!-- X::OS&#45;&gt;Exception -->
<g id="edge5" class="edge"><title>X::OS&#45;&gt;Exception</title>
<path fill="none" stroke="#000000" d="M152.275,-177.504C140.46,-187.121 124.728,-199.926 111.353,-210.813"/>
<polygon fill="#000000" stroke="#000000" points="108.932,-208.27 103.386,-217.297 113.351,-213.699 108.932,-208.27"/>
</g>
<!-- X::IO&#45;&gt;Exception -->
<g id="edge6" class="edge"><title>X::IO&#45;&gt;Exception</title>
<path fill="none" stroke="#000000" d="M123.756,-107.847C116.084,-132.056 101.858,-176.946 92.693,-205.867"/>
<polygon fill="#000000" stroke="#000000" points="89.2513,-205.142 89.5668,-215.732 95.9243,-207.257 89.2513,-205.142"/>
</g>
<!-- X::IO&#45;&gt;X::OS -->
<g id="edge8" class="edge"><title>X::IO&#45;&gt;X::OS</title>
<path fill="none" stroke="#6666ff" d="M138.604,-107.235C143.552,-115.683 149.712,-126.201 155.269,-135.688"/>
<polygon fill="#6666ff" stroke="#6666ff" points="152.278,-137.507 160.352,-144.367 158.318,-133.969 152.278,-137.507"/>
</g>
</g>
</svg>
