<?xml version="1.0" encoding="UTF-8" standalone="no"?>
<!DOCTYPE svg PUBLIC "-//W3C//DTD SVG 1.1//EN"
 "http://www.w3.org/Graphics/SVG/1.1/DTD/svg11.dtd">
<!-- Generated by graphviz version 2.38.0 (20140413.2041)
 -->
<!-- Title: perl6&#45;type&#45;graph Pages: 1 -->
<svg width="223pt" height="404pt"
 viewBox="0.00 0.00 223.34 404.00" xmlns="http://www.w3.org/2000/svg" xmlns:xlink="http://www.w3.org/1999/xlink">
<g id="graph0" class="graph" transform="scale(1 1) rotate(0) translate(4 400)">
<title>perl6&#45;type&#45;graph</title>
<polygon fill="white" stroke="none" points="-4,4 -4,-400 219.337,-400 219.337,4 -4,4"/>
<!-- X::Syntax::Name::Null -->
<g id="node1" class="node"><title>X::Syntax::Name::Null</title>
<g id="a_node1"><a xlink:href="/type/X::Syntax::Name::Null" xlink:title="X::Syntax::Name::Null">
<ellipse fill="none" stroke="#000000" cx="97.4913" cy="-18" rx="97.4827" ry="18"/>
<text text-anchor="middle" x="97.4913" y="-14.3" font-family="FreeSans" font-size="14.00" fill="#000000">X::Syntax::Name::Null</text>
</a>
</g>
</g>
<!-- Exception -->
<g id="node4" class="node"><title>Exception</title>
<g id="a_node4"><a xlink:href="/type/Exception" xlink:title="Exception">
<ellipse fill="none" stroke="#000000" cx="97.4913" cy="-234" rx="49.2915" ry="18"/>
<text text-anchor="middle" x="97.4913" y="-230.3" font-family="FreeSans" font-size="14.00" fill="#000000">Exception</text>
</a>
</g>
</g>
<!-- X::Syntax::Name::Null&#45;&gt;Exception -->
<g id="edge1" class="edge"><title>X::Syntax::Name::Null&#45;&gt;Exception</title>
<path fill="none" stroke="#000000" d="M91.375,-36.0613C85.8207,-51.5549 78.4913,-72 78.4913,-72 78.4913,-72 78.4913,-108 78.4913,-108 78.4913,-108 87.7646,-169.008 93.3542,-205.782"/>
<polygon fill="#000000" stroke="#000000" points="89.9262,-206.521 94.8893,-215.881 96.8468,-205.469 89.9262,-206.521"/>
</g>
<!-- X::Syntax -->
<g id="node6" class="node"><title>X::Syntax</title>
<g id="a_node6"><a xlink:href="/type/X::Syntax" xlink:title="X::Syntax">
<ellipse fill="none" stroke="#6666ff" cx="135.491" cy="-90" rx="48.1917" ry="18"/>
<text text-anchor="middle" x="135.491" y="-86.3" font-family="FreeSans" font-size="14.00" fill="#6666ff">X::Syntax</text>
</a>
</g>
</g>
<!-- X::Syntax::Name::Null&#45;&gt;X::Syntax -->
<g id="edge6" class="edge"><title>X::Syntax::Name::Null&#45;&gt;X::Syntax</title>
<path fill="none" stroke="#6666ff" d="M106.69,-35.945C111.124,-44.1134 116.539,-54.0884 121.472,-63.1756"/>
<polygon fill="#6666ff" stroke="#6666ff" points="118.53,-65.0923 126.377,-72.211 124.682,-61.7526 118.53,-65.0923"/>
</g>
<!-- Mu -->
<g id="node2" class="node"><title>Mu</title>
<g id="a_node2"><a xlink:href="/type/Mu" xlink:title="Mu">
<ellipse fill="none" stroke="#000000" cx="97.4913" cy="-378" rx="27" ry="18"/>
<text text-anchor="middle" x="97.4913" y="-374.3" font-family="FreeSans" font-size="14.00" fill="#000000">Mu</text>
</a>
</g>
</g>
<!-- Any -->
<g id="node3" class="node"><title>Any</title>
<g id="a_node3"><a xlink:href="/type/Any" xlink:title="Any">
<ellipse fill="none" stroke="#000000" cx="97.4913" cy="-306" rx="27" ry="18"/>
<text text-anchor="middle" x="97.4913" y="-302.3" font-family="FreeSans" font-size="14.00" fill="#000000">Any</text>
</a>
</g>
</g>
<!-- Any&#45;&gt;Mu -->
<g id="edge2" class="edge"><title>Any&#45;&gt;Mu</title>
<path fill="none" stroke="#000000" d="M97.4913,-324.303C97.4913,-332.017 97.4913,-341.288 97.4913,-349.888"/>
<polygon fill="#000000" stroke="#000000" points="93.9914,-349.896 97.4913,-359.896 100.991,-349.896 93.9914,-349.896"/>
</g>
<!-- Exception&#45;&gt;Any -->
<g id="edge3" class="edge"><title>Exception&#45;&gt;Any</title>
<path fill="none" stroke="#000000" d="M97.4913,-252.303C97.4913,-260.017 97.4913,-269.288 97.4913,-277.888"/>
<polygon fill="#000000" stroke="#000000" points="93.9914,-277.896 97.4913,-287.896 100.991,-277.896 93.9914,-277.896"/>
</g>
<!-- X::Comp -->
<g id="node5" class="node"><title>X::Comp</title>
<g id="a_node5"><a xlink:href="/type/X::Comp" xlink:title="X::Comp">
<ellipse fill="none" stroke="#6666ff" cx="170.491" cy="-162" rx="44.6926" ry="18"/>
<text text-anchor="middle" x="170.491" y="-158.3" font-family="FreeSans" font-size="14.00" fill="#6666ff">X::Comp</text>
</a>
</g>
</g>
<!-- X::Comp&#45;&gt;Exception -->
<g id="edge4" class="edge"><title>X::Comp&#45;&gt;Exception</title>
<path fill="none" stroke="#000000" d="M153.927,-178.884C144.381,-188.038 132.211,-199.707 121.618,-209.865"/>
<polygon fill="#000000" stroke="#000000" points="119.039,-207.489 114.243,-216.936 123.884,-212.541 119.039,-207.489"/>
</g>
<!-- X::Syntax&#45;&gt;Exception -->
<g id="edge5" class="edge"><title>X::Syntax&#45;&gt;Exception</title>
<path fill="none" stroke="#000000" d="M129.375,-108.061C123.821,-123.555 116.491,-144 116.491,-144 116.491,-144 108.842,-179.833 103.25,-206.025"/>
<polygon fill="#000000" stroke="#000000" points="99.8197,-205.33 101.155,-215.84 106.665,-206.791 99.8197,-205.33"/>
</g>
<!-- X::Syntax&#45;&gt;X::Comp -->
<g id="edge7" class="edge"><title>X::Syntax&#45;&gt;X::Comp</title>
<path fill="none" stroke="#6666ff" d="M143.964,-107.945C148.048,-116.113 153.036,-126.088 157.579,-135.176"/>
<polygon fill="#6666ff" stroke="#6666ff" points="154.494,-136.832 162.097,-144.211 160.755,-133.701 154.494,-136.832"/>
</g>
</g>
</svg>
