<?xml version="1.0" encoding="UTF-8" standalone="no"?>
<!DOCTYPE svg PUBLIC "-//W3C//DTD SVG 1.1//EN"
 "http://www.w3.org/Graphics/SVG/1.1/DTD/svg11.dtd">
<!-- Generated by graphviz version 2.38.0 (20140413.2041)
 -->
<!-- Title: perl6&#45;type&#45;graph Pages: 1 -->
<svg width="279pt" height="260pt"
 viewBox="0.00 0.00 278.89 260.00" xmlns="http://www.w3.org/2000/svg" xmlns:xlink="http://www.w3.org/1999/xlink">
<g id="graph0" class="graph" transform="scale(1 1) rotate(0) translate(4 256)">
<title>perl6&#45;type&#45;graph</title>
<polygon fill="white" stroke="none" points="-4,4 -4,-256 274.894,-256 274.894,4 -4,4"/>
<!-- Range -->
<g id="node1" class="node"><title>Range</title>
<g id="a_node1"><a xlink:href="/type/Range" xlink:title="Range">
<ellipse fill="none" stroke="#000000" cx="123.597" cy="-18" rx="36.2938" ry="18"/>
<text text-anchor="middle" x="123.597" y="-14.3" font-family="FreeSans" font-size="14.00" fill="#000000">Range</text>
</a>
</g>
</g>
<!-- Cool -->
<g id="node4" class="node"><title>Cool</title>
<g id="a_node4"><a xlink:href="/type/Cool" xlink:title="Cool">
<ellipse fill="none" stroke="#000000" cx="28.5975" cy="-90" rx="28.6953" ry="18"/>
<text text-anchor="middle" x="28.5975" y="-86.3" font-family="FreeSans" font-size="14.00" fill="#000000">Cool</text>
</a>
</g>
</g>
<!-- Range&#45;&gt;Cool -->
<g id="edge1" class="edge"><title>Range&#45;&gt;Cool</title>
<path fill="none" stroke="#000000" d="M103.913,-33.504C89.698,-43.9785 70.3508,-58.2344 54.825,-69.6744"/>
<polygon fill="#000000" stroke="#000000" points="52.624,-66.9487 46.6496,-75.6984 56.7764,-72.5841 52.624,-66.9487"/>
</g>
<!-- Positional -->
<g id="node5" class="node"><title>Positional</title>
<g id="a_node5"><a xlink:href="/type/Positional" xlink:title="Positional">
<ellipse fill="none" stroke="#6666ff" cx="123.597" cy="-90" rx="48.9926" ry="18"/>
<text text-anchor="middle" x="123.597" y="-86.3" font-family="FreeSans" font-size="14.00" fill="#6666ff">Positional</text>
</a>
</g>
</g>
<!-- Range&#45;&gt;Positional -->
<g id="edge4" class="edge"><title>Range&#45;&gt;Positional</title>
<path fill="none" stroke="#6666ff" d="M123.597,-36.3034C123.597,-44.0173 123.597,-53.2875 123.597,-61.8876"/>
<polygon fill="#6666ff" stroke="#6666ff" points="120.098,-61.8956 123.597,-71.8957 127.098,-61.8957 120.098,-61.8956"/>
</g>
<!-- Iterable -->
<g id="node6" class="node"><title>Iterable</title>
<g id="a_node6"><a xlink:href="/type/Iterable" xlink:title="Iterable">
<ellipse fill="none" stroke="#6666ff" cx="230.597" cy="-90" rx="40.0939" ry="18"/>
<text text-anchor="middle" x="230.597" y="-86.3" font-family="FreeSans" font-size="14.00" fill="#6666ff">Iterable</text>
</a>
</g>
</g>
<!-- Range&#45;&gt;Iterable -->
<g id="edge5" class="edge"><title>Range&#45;&gt;Iterable</title>
<path fill="none" stroke="#6666ff" d="M144.737,-32.8297C160.504,-43.1444 182.277,-57.3883 199.951,-68.9512"/>
<polygon fill="#6666ff" stroke="#6666ff" points="198.483,-72.1727 208.767,-74.7184 202.315,-66.3148 198.483,-72.1727"/>
</g>
<!-- Mu -->
<g id="node2" class="node"><title>Mu</title>
<g id="a_node2"><a xlink:href="/type/Mu" xlink:title="Mu">
<ellipse fill="none" stroke="#000000" cx="28.5975" cy="-234" rx="27" ry="18"/>
<text text-anchor="middle" x="28.5975" y="-230.3" font-family="FreeSans" font-size="14.00" fill="#000000">Mu</text>
</a>
</g>
</g>
<!-- Any -->
<g id="node3" class="node"><title>Any</title>
<g id="a_node3"><a xlink:href="/type/Any" xlink:title="Any">
<ellipse fill="none" stroke="#000000" cx="28.5975" cy="-162" rx="27" ry="18"/>
<text text-anchor="middle" x="28.5975" y="-158.3" font-family="FreeSans" font-size="14.00" fill="#000000">Any</text>
</a>
</g>
</g>
<!-- Any&#45;&gt;Mu -->
<g id="edge2" class="edge"><title>Any&#45;&gt;Mu</title>
<path fill="none" stroke="#000000" d="M28.5975,-180.303C28.5975,-188.017 28.5975,-197.288 28.5975,-205.888"/>
<polygon fill="#000000" stroke="#000000" points="25.0976,-205.896 28.5975,-215.896 32.0976,-205.896 25.0976,-205.896"/>
</g>
<!-- Cool&#45;&gt;Any -->
<g id="edge3" class="edge"><title>Cool&#45;&gt;Any</title>
<path fill="none" stroke="#000000" d="M28.5975,-108.303C28.5975,-116.017 28.5975,-125.288 28.5975,-133.888"/>
<polygon fill="#000000" stroke="#000000" points="25.0976,-133.896 28.5975,-143.896 32.0976,-133.896 25.0976,-133.896"/>
</g>
</g>
</svg>
