<?xml version="1.0" encoding="UTF-8" standalone="no"?>
<!DOCTYPE svg PUBLIC "-//W3C//DTD SVG 1.1//EN"
 "http://www.w3.org/Graphics/SVG/1.1/DTD/svg11.dtd">
<!-- Generated by graphviz version 2.38.0 (20140413.2041)
 -->
<!-- Title: perl6&#45;type&#45;graph Pages: 1 -->
<svg width="1866pt" height="991pt"
 viewBox="0.00 0.00 1866.47 991.08" xmlns="http://www.w3.org/2000/svg" xmlns:xlink="http://www.w3.org/1999/xlink">
<g id="graph0" class="graph" transform="scale(1 1) rotate(0) translate(930.359 458.796)">
<title>perl6&#45;type&#45;graph</title>
<polygon fill="white" stroke="none" points="-930.359,532.28 -930.359,-458.796 936.109,-458.796 936.109,532.28 -930.359,532.28"/>
<!-- Metamodel::DefaultParent -->
<g id="node1" class="node"><title>Metamodel::DefaultParent</title>
<g id="a_node1"><a xlink:href="/type/Metamodel::DefaultParent" xlink:title="Metamodel::DefaultParent">
<ellipse fill="none" stroke="#6666ff" cx="-204.464" cy="114.257" rx="113.18" ry="18"/>
<text text-anchor="middle" x="-204.464" y="117.957" font-family="FreeSans" font-size="14.00" fill="#6666ff">Metamodel::DefaultParent</text>
</a>
</g>
</g>
<!-- Mu -->
<g id="node2" class="node"><title>Mu</title>
<g id="a_node2"><a xlink:href="/type/Mu" xlink:title="Mu">
<ellipse fill="none" stroke="#000000" cx="707.704" cy="494.436" rx="27" ry="18"/>
<text text-anchor="middle" x="707.704" y="498.136" font-family="FreeSans" font-size="14.00" fill="#000000">Mu</text>
</a>
</g>
</g>
<!-- Any -->
<g id="node3" class="node"><title>Any</title>
<g id="a_node3"><a xlink:href="/type/Any" xlink:title="Any">
<ellipse fill="none" stroke="#000000" cx="223.205" cy="494.443" rx="27" ry="18"/>
<text text-anchor="middle" x="223.205" y="498.143" font-family="FreeSans" font-size="14.00" fill="#000000">Any</text>
</a>
</g>
</g>
<!-- Any&#45;&gt;Mu -->
<g id="edge1" class="edge"><title>Any&#45;&gt;Mu</title>
<path fill="none" stroke="#000000" d="M250.292,494.443C332.036,494.441 576.39,494.438 670.335,494.436"/>
<polygon fill="#000000" stroke="#000000" points="670.509,490.936 680.509,494.436 670.509,497.936 670.509,490.936"/>
</g>
<!-- Metamodel::Naming -->
<g id="node4" class="node"><title>Metamodel::Naming</title>
<g id="a_node4"><a xlink:href="/type/Metamodel::Naming" xlink:title="Metamodel::Naming">
<ellipse fill="none" stroke="#6666ff" cx="-3.7928" cy="-436.796" rx="90.1842" ry="18"/>
<text text-anchor="middle" x="-3.7928" y="-433.096" font-family="FreeSans" font-size="14.00" fill="#6666ff">Metamodel::Naming</text>
</a>
</g>
</g>
<!-- Metamodel::Documenting -->
<g id="node5" class="node"><title>Metamodel::Documenting</title>
<g id="a_node5"><a xlink:href="/type/Metamodel::Documenting" xlink:title="Metamodel::Documenting">
<ellipse fill="none" stroke="#6666ff" cx="404.61" cy="-90.339" rx="111.28" ry="18"/>
<text text-anchor="middle" x="404.61" y="-86.639" font-family="FreeSans" font-size="14.00" fill="#6666ff">Metamodel::Documenting</text>
</a>
</g>
</g>
<!-- Metamodel::Versioning -->
<g id="node6" class="node"><title>Metamodel::Versioning</title>
<g id="a_node6"><a xlink:href="/type/Metamodel::Versioning" xlink:title="Metamodel::Versioning">
<ellipse fill="none" stroke="#6666ff" cx="-423.12" cy="-69.4849" rx="100.983" ry="18"/>
<text text-anchor="middle" x="-423.12" y="-65.7849" font-family="FreeSans" font-size="14.00" fill="#6666ff">Metamodel::Versioning</text>
</a>
</g>
</g>
<!-- Metamodel::Stashing -->
<g id="node7" class="node"><title>Metamodel::Stashing</title>
<g id="a_node7"><a xlink:href="/type/Metamodel::Stashing" xlink:title="Metamodel::Stashing">
<ellipse fill="none" stroke="#6666ff" cx="-728.076" cy="489.235" rx="93.6835" ry="18"/>
<text text-anchor="middle" x="-728.076" y="492.935" font-family="FreeSans" font-size="14.00" fill="#6666ff">Metamodel::Stashing</text>
</a>
</g>
</g>
<!-- Metamodel::AttributeContainer -->
<g id="node8" class="node"><title>Metamodel::AttributeContainer</title>
<g id="a_node8"><a xlink:href="/type/Metamodel::AttributeContainer" xlink:title="Metamodel::AttributeContainer">
<ellipse fill="none" stroke="#6666ff" cx="802.12" cy="193.673" rx="129.977" ry="18"/>
<text text-anchor="middle" x="802.12" y="197.373" font-family="FreeSans" font-size="14.00" fill="#6666ff">Metamodel::AttributeContainer</text>
</a>
</g>
</g>
<!-- Metamodel::Finalization -->
<g id="node9" class="node"><title>Metamodel::Finalization</title>
<g id="a_node9"><a xlink:href="/type/Metamodel::Finalization" xlink:title="Metamodel::Finalization">
<ellipse fill="none" stroke="#6666ff" cx="-399.053" cy="275.079" rx="103.982" ry="18"/>
<text text-anchor="middle" x="-399.053" y="278.779" font-family="FreeSans" font-size="14.00" fill="#6666ff">Metamodel::Finalization</text>
</a>
</g>
</g>
<!-- Metamodel::MethodContainer -->
<g id="node10" class="node"><title>Metamodel::MethodContainer</title>
<g id="a_node10"><a xlink:href="/type/Metamodel::MethodContainer" xlink:title="Metamodel::MethodContainer">
<ellipse fill="none" stroke="#6666ff" cx="-5.47686" cy="288.364" rx="127.277" ry="18"/>
<text text-anchor="middle" x="-5.47686" y="292.064" font-family="FreeSans" font-size="14.00" fill="#6666ff">Metamodel::MethodContainer</text>
</a>
</g>
</g>
<!-- Metamodel::PrivateMethodContainer -->
<g id="node11" class="node"><title>Metamodel::PrivateMethodContainer</title>
<g id="a_node11"><a xlink:href="/type/Metamodel::PrivateMethodContainer" xlink:title="Metamodel::PrivateMethodContainer">
<ellipse fill="none" stroke="#6666ff" cx="-201.42" cy="510.28" rx="154.873" ry="18"/>
<text text-anchor="middle" x="-201.42" y="513.98" font-family="FreeSans" font-size="14.00" fill="#6666ff">Metamodel::PrivateMethodContainer</text>
</a>
</g>
</g>
<!-- Metamodel::MultiMethodContainer -->
<g id="node12" class="node"><title>Metamodel::MultiMethodContainer</title>
<g id="a_node12"><a xlink:href="/type/Metamodel::MultiMethodContainer" xlink:title="Metamodel::MultiMethodContainer">
<ellipse fill="none" stroke="#6666ff" cx="-780.121" cy="178.344" rx="146.474" ry="18"/>
<text text-anchor="middle" x="-780.121" y="182.044" font-family="FreeSans" font-size="14.00" fill="#6666ff">Metamodel::MultiMethodContainer</text>
</a>
</g>
</g>
<!-- Metamodel::RoleContainer -->
<g id="node13" class="node"><title>Metamodel::RoleContainer</title>
<g id="a_node13"><a xlink:href="/type/Metamodel::RoleContainer" xlink:title="Metamodel::RoleContainer">
<ellipse fill="none" stroke="#6666ff" cx="779.797" cy="-102.234" rx="115.88" ry="18"/>
<text text-anchor="middle" x="779.797" y="-98.5335" font-family="FreeSans" font-size="14.00" fill="#6666ff">Metamodel::RoleContainer</text>
</a>
</g>
</g>
<!-- Metamodel::MultipleInheritance -->
<g id="node14" class="node"><title>Metamodel::MultipleInheritance</title>
<g id="a_node14"><a xlink:href="/type/Metamodel::MultipleInheritance" xlink:title="Metamodel::MultipleInheritance">
<ellipse fill="none" stroke="#6666ff" cx="743.309" cy="-417.987" rx="133.776" ry="18"/>
<text text-anchor="middle" x="743.309" y="-414.287" font-family="FreeSans" font-size="14.00" fill="#6666ff">Metamodel::MultipleInheritance</text>
</a>
</g>
</g>
<!-- Metamodel::C3MRO -->
<g id="node15" class="node"><title>Metamodel::C3MRO</title>
<g id="a_node15"><a xlink:href="/type/Metamodel::C3MRO" xlink:title="Metamodel::C3MRO">
<ellipse fill="none" stroke="#6666ff" cx="322.174" cy="-420.312" rx="92.0841" ry="18"/>
<text text-anchor="middle" x="322.174" y="-416.612" font-family="FreeSans" font-size="14.00" fill="#6666ff">Metamodel::C3MRO</text>
</a>
</g>
</g>
<!-- Metamodel::MROBasedMethodDispatch -->
<g id="node16" class="node"><title>Metamodel::MROBasedMethodDispatch</title>
<g id="a_node16"><a xlink:href="/type/Metamodel::MROBasedMethodDispatch" xlink:title="Metamodel::MROBasedMethodDispatch">
<ellipse fill="none" stroke="#6666ff" cx="184.473" cy="119.064" rx="169.77" ry="18"/>
<text text-anchor="middle" x="184.473" y="122.764" font-family="FreeSans" font-size="14.00" fill="#6666ff">Metamodel::MROBasedMethodDispatch</text>
</a>
</g>
</g>
<!-- Metamodel::MROBasedTypeChecking -->
<g id="node17" class="node"><title>Metamodel::MROBasedTypeChecking</title>
<g id="a_node17"><a xlink:href="/type/Metamodel::MROBasedTypeChecking" xlink:title="Metamodel::MROBasedTypeChecking">
<ellipse fill="none" stroke="#6666ff" cx="411.511" cy="220.274" rx="163.271" ry="18"/>
<text text-anchor="middle" x="411.511" y="223.974" font-family="FreeSans" font-size="14.00" fill="#6666ff">Metamodel::MROBasedTypeChecking</text>
</a>
</g>
</g>
<!-- Metamodel::Trusting -->
<g id="node18" class="node"><title>Metamodel::Trusting</title>
<g id="a_node18"><a xlink:href="/type/Metamodel::Trusting" xlink:title="Metamodel::Trusting">
<ellipse fill="none" stroke="#6666ff" cx="-741.207" cy="-422.51" rx="91.784" ry="18"/>
<text text-anchor="middle" x="-741.207" y="-418.81" font-family="FreeSans" font-size="14.00" fill="#6666ff">Metamodel::Trusting</text>
</a>
</g>
</g>
<!-- Metamodel::BUILDPLAN -->
<g id="node19" class="node"><title>Metamodel::BUILDPLAN</title>
<g id="a_node19"><a xlink:href="/type/Metamodel::BUILDPLAN" xlink:title="Metamodel::BUILDPLAN">
<ellipse fill="none" stroke="#6666ff" cx="-802.229" cy="-110.888" rx="109.681" ry="18"/>
<text text-anchor="middle" x="-802.229" y="-107.188" font-family="FreeSans" font-size="14.00" fill="#6666ff">Metamodel::BUILDPLAN</text>
</a>
</g>
</g>
<!-- Metamodel::Mixins -->
<g id="node20" class="node"><title>Metamodel::Mixins</title>
<g id="a_node20"><a xlink:href="/type/Metamodel::Mixins" xlink:title="Metamodel::Mixins">
<ellipse fill="none" stroke="#6666ff" cx="-328.262" cy="-416.143" rx="85.2851" ry="18"/>
<text text-anchor="middle" x="-328.262" y="-412.443" font-family="FreeSans" font-size="14.00" fill="#6666ff">Metamodel::Mixins</text>
</a>
</g>
</g>
<!-- Metamodel::BoolificationProtocol -->
<g id="node21" class="node"><title>Metamodel::BoolificationProtocol</title>
<g id="a_node21"><a xlink:href="/type/Metamodel::BoolificationProtocol" xlink:title="Metamodel::BoolificationProtocol">
<ellipse fill="none" stroke="#6666ff" cx="131.292" cy="-159.583" rx="139.175" ry="18"/>
<text text-anchor="middle" x="131.292" y="-155.883" font-family="FreeSans" font-size="14.00" fill="#6666ff">Metamodel::BoolificationProtocol</text>
</a>
</g>
</g>
<!-- Metamodel::ClassHOW -->
<g id="node22" class="node"><title>Metamodel::ClassHOW</title>
<g id="a_node22"><a xlink:href="/type/Metamodel::ClassHOW" xlink:title="Metamodel::ClassHOW">
<ellipse fill="none" stroke="#000000" cx="-9.65986" cy="27.9539" rx="103.982" ry="18"/>
<text text-anchor="middle" x="-9.65986" y="31.6539" font-family="FreeSans" font-size="14.00" fill="#000000">Metamodel::ClassHOW</text>
</a>
</g>
</g>
<!-- Metamodel::ClassHOW&#45;&gt;Metamodel::DefaultParent -->
<g id="edge15" class="edge"><title>Metamodel::ClassHOW&#45;&gt;Metamodel::DefaultParent</title>
<path fill="none" stroke="#6666ff" d="M-47.6824,44.799C-78.9563,58.6542 -123.437,78.3604 -157.036,93.2458"/>
<polygon fill="#6666ff" stroke="#6666ff" points="-155.644,96.457 -166.205,97.3076 -158.479,90.0569 -155.644,96.457"/>
</g>
<!-- Metamodel::ClassHOW&#45;&gt;Any -->
<g id="edge2" class="edge"><title>Metamodel::ClassHOW&#45;&gt;Any</title>
<path fill="none" stroke="#000000" d="M-5.13521,45.9795C1.53907,72.5688 13.2419,119.191 13.2419,119.191 13.2419,119.191 123.51,288.253 123.51,288.253 123.51,288.253 183.496,412.317 210.407,467.974"/>
<polygon fill="#000000" stroke="#000000" points="213.674,466.692 214.876,477.218 207.372,469.739 213.674,466.692"/>
</g>
<!-- Metamodel::ClassHOW&#45;&gt;Metamodel::Naming -->
<g id="edge4" class="edge"><title>Metamodel::ClassHOW&#45;&gt;Metamodel::Naming</title>
<path fill="none" stroke="#6666ff" d="M-9.63394,9.63604C-9.5672,-37.5393 -9.39461,-159.528 -9.39461,-159.528 -9.39461,-159.528 -5.80135,-337.381 -4.37054,-408.201"/>
<polygon fill="#6666ff" stroke="#6666ff" points="-7.86172,-408.677 -4.16035,-418.604 -0.863151,-408.535 -7.86172,-408.677"/>
</g>
<!-- Metamodel::ClassHOW&#45;&gt;Metamodel::Documenting -->
<g id="edge5" class="edge"><title>Metamodel::ClassHOW&#45;&gt;Metamodel::Documenting</title>
<path fill="none" stroke="#6666ff" d="M44.4987,12.4892C120.476,-9.20569 258.495,-48.6163 339.819,-71.8382"/>
<polygon fill="#6666ff" stroke="#6666ff" points="338.871,-75.2073 349.448,-74.5876 340.793,-68.4763 338.871,-75.2073"/>
</g>
<!-- Metamodel::ClassHOW&#45;&gt;Metamodel::Versioning -->
<g id="edge6" class="edge"><title>Metamodel::ClassHOW&#45;&gt;Metamodel::Versioning</title>
<path fill="none" stroke="#6666ff" d="M-71.559,13.3664C-146.74,-4.35124 -273.276,-34.1717 -352.279,-52.79"/>
<polygon fill="#6666ff" stroke="#6666ff" points="-353.217,-49.4151 -362.147,-55.1156 -351.611,-56.2284 -353.217,-49.4151"/>
</g>
<!-- Metamodel::ClassHOW&#45;&gt;Metamodel::Stashing -->
<g id="edge7" class="edge"><title>Metamodel::ClassHOW&#45;&gt;Metamodel::Stashing</title>
<path fill="none" stroke="#6666ff" d="M-26.2602,45.8046C-49.727,71.0389 -89.777,114.106 -89.777,114.106 -89.777,114.106 -293.463,275.005 -293.463,275.005 -293.463,275.005 -574.874,413.718 -684.808,467.907"/>
<polygon fill="#6666ff" stroke="#6666ff" points="-683.455,471.142 -693.972,472.424 -686.55,464.864 -683.455,471.142"/>
</g>
<!-- Metamodel::ClassHOW&#45;&gt;Metamodel::AttributeContainer -->
<g id="edge8" class="edge"><title>Metamodel::ClassHOW&#45;&gt;Metamodel::AttributeContainer</title>
<path fill="none" stroke="#6666ff" d="M57.8086,41.7271C205.663,71.9105 557.867,143.81 719.035,176.712"/>
<polygon fill="#6666ff" stroke="#6666ff" points="719.806,173.297 728.904,178.726 718.406,180.155 719.806,173.297"/>
</g>
<!-- Metamodel::ClassHOW&#45;&gt;Metamodel::Finalization -->
<g id="edge9" class="edge"><title>Metamodel::ClassHOW&#45;&gt;Metamodel::Finalization</title>
<path fill="none" stroke="#6666ff" d="M-26.2602,45.8046C-49.727,71.0389 -89.777,114.106 -89.777,114.106 -89.777,114.106 -272.234,209.072 -356.864,253.12"/>
<polygon fill="#6666ff" stroke="#6666ff" points="-355.468,256.34 -365.955,257.852 -358.7,250.13 -355.468,256.34"/>
</g>
<!-- Metamodel::ClassHOW&#45;&gt;Metamodel::MethodContainer -->
<g id="edge10" class="edge"><title>Metamodel::ClassHOW&#45;&gt;Metamodel::MethodContainer</title>
<path fill="none" stroke="#6666ff" d="M-9.36572,46.2654C-8.64719,90.9971 -6.79845,206.089 -5.93452,259.872"/>
<polygon fill="#6666ff" stroke="#6666ff" points="-2.43184,260.017 -5.77068,270.072 -9.43093,260.13 -2.43184,260.017"/>
</g>
<!-- Metamodel::ClassHOW&#45;&gt;Metamodel::PrivateMethodContainer -->
<g id="edge11" class="edge"><title>Metamodel::ClassHOW&#45;&gt;Metamodel::PrivateMethodContainer</title>
<path fill="none" stroke="#6666ff" d="M-18.4358,46.2732C-46.8438,105.573 -134.464,288.474 -134.464,288.474 -134.464,288.474 -174.943,422.569 -192.953,482.232"/>
<polygon fill="#6666ff" stroke="#6666ff" points="-189.7,483.567 -195.941,492.128 -196.402,481.544 -189.7,483.567"/>
</g>
<!-- Metamodel::ClassHOW&#45;&gt;Metamodel::MultiMethodContainer -->
<g id="edge12" class="edge"><title>Metamodel::ClassHOW&#45;&gt;Metamodel::MultiMethodContainer</title>
<path fill="none" stroke="#6666ff" d="M-78.7112,41.4324C-218.943,68.8048 -536.886,130.866 -691.874,161.118"/>
<polygon fill="#6666ff" stroke="#6666ff" points="-691.358,164.584 -701.844,163.064 -692.699,157.713 -691.358,164.584"/>
</g>
<!-- Metamodel::ClassHOW&#45;&gt;Metamodel::RoleContainer -->
<g id="edge13" class="edge"><title>Metamodel::ClassHOW&#45;&gt;Metamodel::RoleContainer</title>
<path fill="none" stroke="#6666ff" d="M65.679,15.53C211.816,-8.5691 533.162,-61.5615 690.056,-87.4346"/>
<polygon fill="#6666ff" stroke="#6666ff" points="689.713,-90.9252 700.149,-89.099 690.852,-84.0185 689.713,-90.9252"/>
</g>
<!-- Metamodel::ClassHOW&#45;&gt;Metamodel::MultipleInheritance -->
<g id="edge14" class="edge"><title>Metamodel::ClassHOW&#45;&gt;Metamodel::MultipleInheritance</title>
<path fill="none" stroke="#6666ff" d="M19.8574,10.4725C137.471,-59.1834 572.728,-316.962 704.961,-395.276"/>
<polygon fill="#6666ff" stroke="#6666ff" points="703.201,-398.301 713.588,-400.385 706.768,-392.278 703.201,-398.301"/>
</g>
<!-- Metamodel::ClassHOW&#45;&gt;Metamodel::C3MRO -->
<g id="edge16" class="edge"><title>Metamodel::ClassHOW&#45;&gt;Metamodel::C3MRO</title>
<path fill="none" stroke="#6666ff" d="M16.5832,10.4742C86.5002,-36.0955 271.98,-159.638 271.98,-159.638 271.98,-159.638 303.731,-324.532 316.727,-392.026"/>
<polygon fill="#6666ff" stroke="#6666ff" points="313.316,-392.824 318.644,-401.982 320.19,-391.501 313.316,-392.824"/>
</g>
<!-- Metamodel::ClassHOW&#45;&gt;Metamodel::MROBasedMethodDispatch -->
<g id="edge17" class="edge"><title>Metamodel::ClassHOW&#45;&gt;Metamodel::MROBasedMethodDispatch</title>
<path fill="none" stroke="#6666ff" d="M26.4001,44.8775C57.7717,59.6008 103.441,81.0342 137.633,97.0813"/>
<polygon fill="#6666ff" stroke="#6666ff" points="139.386,94.0375 146.952,101.455 136.412,100.374 139.386,94.0375"/>
</g>
<!-- Metamodel::ClassHOW&#45;&gt;Metamodel::MROBasedTypeChecking -->
<g id="edge18" class="edge"><title>Metamodel::ClassHOW&#45;&gt;Metamodel::MROBasedTypeChecking</title>
<path fill="none" stroke="#6666ff" d="M50.5929,42.7401C141.892,65.1452 304.768,105.115 304.768,105.115 304.768,105.115 355.705,118.937 355.705,118.937 355.705,118.937 380.16,163.346 396.693,193.367"/>
<polygon fill="#6666ff" stroke="#6666ff" points="399.776,191.709 401.534,202.157 393.644,195.086 399.776,191.709"/>
</g>
<!-- Metamodel::ClassHOW&#45;&gt;Metamodel::Trusting -->
<g id="edge19" class="edge"><title>Metamodel::ClassHOW&#45;&gt;Metamodel::Trusting</title>
<path fill="none" stroke="#6666ff" d="M-37.8891,10.5712C-151.614,-59.4572 -576.205,-320.907 -704.355,-399.818"/>
<polygon fill="#6666ff" stroke="#6666ff" points="-706.382,-396.955 -713.061,-405.179 -702.711,-402.916 -706.382,-396.955"/>
</g>
<!-- Metamodel::ClassHOW&#45;&gt;Metamodel::BUILDPLAN -->
<g id="edge20" class="edge"><title>Metamodel::ClassHOW&#45;&gt;Metamodel::BUILDPLAN</title>
<path fill="none" stroke="#6666ff" d="M-83.4298,15.2632C-219.308,-8.11208 -495.377,-55.6047 -495.377,-55.6047 -495.377,-55.6047 -627.076,-79.3319 -717.914,-95.6975"/>
<polygon fill="#6666ff" stroke="#6666ff" points="-718.728,-92.2877 -727.949,-97.5054 -717.487,-99.1768 -718.728,-92.2877"/>
</g>
<!-- Metamodel::ClassHOW&#45;&gt;Metamodel::Mixins -->
<g id="edge21" class="edge"><title>Metamodel::ClassHOW&#45;&gt;Metamodel::Mixins</title>
<path fill="none" stroke="#6666ff" d="M-33.9435,10.18C-98.1998,-36.8512 -267.783,-160.975 -267.783,-160.975 -267.783,-160.975 -305.862,-321.634 -321.589,-387.991"/>
<polygon fill="#6666ff" stroke="#6666ff" points="-325.012,-387.254 -323.912,-397.792 -318.2,-388.869 -325.012,-387.254"/>
</g>
<!-- Metamodel::ClassHOW&#45;&gt;Metamodel::BoolificationProtocol -->
<g id="edge22" class="edge"><title>Metamodel::ClassHOW&#45;&gt;Metamodel::BoolificationProtocol</title>
<path fill="none" stroke="#6666ff" d="M3.85525,9.97212C28.9027,-23.3534 82.6208,-94.8253 111.673,-133.479"/>
<polygon fill="#6666ff" stroke="#6666ff" points="109.012,-135.765 117.818,-141.656 114.608,-131.559 109.012,-135.765"/>
</g>
<!-- Metamodel::GrammarHOW -->
<g id="node23" class="node"><title>Metamodel::GrammarHOW</title>
<g id="a_node23"><a xlink:href="/type/Metamodel::GrammarHOW" xlink:title="Metamodel::GrammarHOW">
<ellipse fill="none" stroke="#000000" cx="-147.247" cy="-161.124" rx="118.879" ry="18"/>
<text text-anchor="middle" x="-147.247" y="-157.424" font-family="FreeSans" font-size="14.00" fill="#000000">Metamodel::GrammarHOW</text>
</a>
</g>
</g>
<!-- Metamodel::GrammarHOW&#45;&gt;Metamodel::DefaultParent -->
<g id="edge23" class="edge"><title>Metamodel::GrammarHOW&#45;&gt;Metamodel::DefaultParent</title>
<path fill="none" stroke="#6666ff" d="M-151.001,-143.055C-160.741,-96.1789 -186.875,29.6046 -198.614,86.1018"/>
<polygon fill="#6666ff" stroke="#6666ff" points="-195.234,87.0435 -200.696,96.1224 -202.088,85.6194 -195.234,87.0435"/>
</g>
<!-- Metamodel::GrammarHOW&#45;&gt;Metamodel::ClassHOW -->
<g id="edge3" class="edge"><title>Metamodel::GrammarHOW&#45;&gt;Metamodel::ClassHOW</title>
<path fill="none" stroke="#000000" d="M-134.055,-142.994C-109.605,-109.395 -57.1697,-37.3358 -28.811,1.63573"/>
<polygon fill="#000000" stroke="#000000" points="-25.8662,-0.265912 -22.8124,9.87928 -31.5263,3.85282 -25.8662,-0.265912"/>
</g>
</g>
</svg>
