<?xml version="1.0" encoding="UTF-8" standalone="no"?>
<!DOCTYPE svg PUBLIC "-//W3C//DTD SVG 1.1//EN"
 "http://www.w3.org/Graphics/SVG/1.1/DTD/svg11.dtd">
<!-- Generated by graphviz version 2.38.0 (20140413.2041)
 -->
<!-- Title: perl6&#45;type&#45;graph Pages: 1 -->
<svg width="782pt" height="332pt"
 viewBox="0.00 0.00 782.08 332.00" xmlns="http://www.w3.org/2000/svg" xmlns:xlink="http://www.w3.org/1999/xlink">
<g id="graph0" class="graph" transform="scale(1 1) rotate(0) translate(4 328)">
<title>perl6&#45;type&#45;graph</title>
<polygon fill="white" stroke="none" points="-4,4 -4,-328 778.078,-328 778.078,4 -4,4"/>
<!-- X::Temporal -->
<g id="node1" class="node"><title>X::Temporal</title>
<g id="a_node1"><a xlink:href="/type/X::Temporal" xlink:title="X::Temporal">
<ellipse fill="none" stroke="#6666ff" cx="352.089" cy="-90" rx="59.2899" ry="18"/>
<text text-anchor="middle" x="352.089" y="-86.3" font-family="FreeSans" font-size="14.00" fill="#6666ff">X::Temporal</text>
</a>
</g>
</g>
<!-- Exception -->
<g id="node4" class="node"><title>Exception</title>
<g id="a_node4"><a xlink:href="/type/Exception" xlink:title="Exception">
<ellipse fill="none" stroke="#000000" cx="395.089" cy="-162" rx="49.2915" ry="18"/>
<text text-anchor="middle" x="395.089" y="-158.3" font-family="FreeSans" font-size="14.00" fill="#000000">Exception</text>
</a>
</g>
</g>
<!-- X::Temporal&#45;&gt;Exception -->
<g id="edge1" class="edge"><title>X::Temporal&#45;&gt;Exception</title>
<path fill="none" stroke="#000000" d="M362.498,-107.945C367.568,-116.199 373.772,-126.299 379.401,-135.462"/>
<polygon fill="#000000" stroke="#000000" points="376.559,-137.522 384.776,-144.211 382.524,-133.858 376.559,-137.522"/>
</g>
<!-- Mu -->
<g id="node2" class="node"><title>Mu</title>
<g id="a_node2"><a xlink:href="/type/Mu" xlink:title="Mu">
<ellipse fill="none" stroke="#000000" cx="395.089" cy="-306" rx="27" ry="18"/>
<text text-anchor="middle" x="395.089" y="-302.3" font-family="FreeSans" font-size="14.00" fill="#000000">Mu</text>
</a>
</g>
</g>
<!-- Any -->
<g id="node3" class="node"><title>Any</title>
<g id="a_node3"><a xlink:href="/type/Any" xlink:title="Any">
<ellipse fill="none" stroke="#000000" cx="395.089" cy="-234" rx="27" ry="18"/>
<text text-anchor="middle" x="395.089" y="-230.3" font-family="FreeSans" font-size="14.00" fill="#000000">Any</text>
</a>
</g>
</g>
<!-- Any&#45;&gt;Mu -->
<g id="edge2" class="edge"><title>Any&#45;&gt;Mu</title>
<path fill="none" stroke="#000000" d="M395.089,-252.303C395.089,-260.017 395.089,-269.288 395.089,-277.888"/>
<polygon fill="#000000" stroke="#000000" points="391.589,-277.896 395.089,-287.896 398.589,-277.896 391.589,-277.896"/>
</g>
<!-- Exception&#45;&gt;Any -->
<g id="edge3" class="edge"><title>Exception&#45;&gt;Any</title>
<path fill="none" stroke="#000000" d="M395.089,-180.303C395.089,-188.017 395.089,-197.288 395.089,-205.888"/>
<polygon fill="#000000" stroke="#000000" points="391.589,-205.896 395.089,-215.896 398.589,-205.896 391.589,-205.896"/>
</g>
<!-- X::DateTime::InvalidDeltaUnit -->
<g id="node5" class="node"><title>X::DateTime::InvalidDeltaUnit</title>
<g id="a_node5"><a xlink:href="/type/X::DateTime::InvalidDeltaUnit" xlink:title="X::DateTime::InvalidDeltaUnit">
<ellipse fill="none" stroke="#000000" cx="126.089" cy="-18" rx="126.178" ry="18"/>
<text text-anchor="middle" x="126.089" y="-14.3" font-family="FreeSans" font-size="14.00" fill="#000000">X::DateTime::InvalidDeltaUnit</text>
</a>
</g>
</g>
<!-- X::DateTime::InvalidDeltaUnit&#45;&gt;X::Temporal -->
<g id="edge7" class="edge"><title>X::DateTime::InvalidDeltaUnit&#45;&gt;X::Temporal</title>
<path fill="none" stroke="#6666ff" d="M176.246,-34.5353C213.848,-46.1822 265.065,-62.0456 302.524,-73.648"/>
<polygon fill="#6666ff" stroke="#6666ff" points="301.629,-77.0349 312.217,-76.6503 303.7,-70.3483 301.629,-77.0349"/>
</g>
<!-- X::DateTime::InvalidDeltaUnit&#45;&gt;Exception -->
<g id="edge4" class="edge"><title>X::DateTime::InvalidDeltaUnit&#45;&gt;Exception</title>
<path fill="none" stroke="#000000" d="M155.437,-35.5316C201.13,-61.2698 284.089,-108 284.089,-108 284.089,-108 324.876,-127.475 357.002,-142.814"/>
<polygon fill="#000000" stroke="#000000" points="355.682,-146.063 366.215,-147.213 358.699,-139.746 355.682,-146.063"/>
</g>
<!-- X::DateTime::TimezoneClash -->
<g id="node6" class="node"><title>X::DateTime::TimezoneClash</title>
<g id="a_node6"><a xlink:href="/type/X::DateTime::TimezoneClash" xlink:title="X::DateTime::TimezoneClash">
<ellipse fill="none" stroke="#000000" cx="396.089" cy="-18" rx="126.178" ry="18"/>
<text text-anchor="middle" x="396.089" y="-14.3" font-family="FreeSans" font-size="14.00" fill="#000000">X::DateTime::TimezoneClash</text>
</a>
</g>
</g>
<!-- X::DateTime::TimezoneClash&#45;&gt;X::Temporal -->
<g id="edge8" class="edge"><title>X::DateTime::TimezoneClash&#45;&gt;X::Temporal</title>
<path fill="none" stroke="#6666ff" d="M385.438,-35.945C380.249,-44.1994 373.901,-54.2986 368.141,-63.4622"/>
<polygon fill="#6666ff" stroke="#6666ff" points="365,-61.882 362.642,-72.211 370.927,-65.6072 365,-61.882"/>
</g>
<!-- X::DateTime::TimezoneClash&#45;&gt;Exception -->
<g id="edge5" class="edge"><title>X::DateTime::TimezoneClash&#45;&gt;Exception</title>
<path fill="none" stroke="#000000" d="M403.815,-36.0613C410.831,-51.5549 420.089,-72 420.089,-72 420.089,-72 420.089,-108 420.089,-108 420.089,-108 413.642,-121.667 407.296,-135.121"/>
<polygon fill="#000000" stroke="#000000" points="404.1,-133.693 402.999,-144.23 410.431,-136.679 404.1,-133.693"/>
</g>
<!-- X::Temporal::InvalidFormat -->
<g id="node7" class="node"><title>X::Temporal::InvalidFormat</title>
<g id="a_node7"><a xlink:href="/type/X::Temporal::InvalidFormat" xlink:title="X::Temporal::InvalidFormat">
<ellipse fill="none" stroke="#000000" cx="657.089" cy="-18" rx="116.979" ry="18"/>
<text text-anchor="middle" x="657.089" y="-14.3" font-family="FreeSans" font-size="14.00" fill="#000000">X::Temporal::InvalidFormat</text>
</a>
</g>
</g>
<!-- X::Temporal::InvalidFormat&#45;&gt;X::Temporal -->
<g id="edge9" class="edge"><title>X::Temporal::InvalidFormat&#45;&gt;X::Temporal</title>
<path fill="none" stroke="#6666ff" d="M594.632,-33.3345C539.782,-45.9228 460.722,-64.0678 407.939,-76.182"/>
<polygon fill="#6666ff" stroke="#6666ff" points="407.038,-72.7977 398.074,-78.446 408.604,-79.6203 407.038,-72.7977"/>
</g>
<!-- X::Temporal::InvalidFormat&#45;&gt;Exception -->
<g id="edge6" class="edge"><title>X::Temporal::InvalidFormat&#45;&gt;Exception</title>
<path fill="none" stroke="#000000" d="M626.778,-35.4279C577.983,-61.8742 482.255,-113.757 430.432,-141.845"/>
<polygon fill="#000000" stroke="#000000" points="428.716,-138.794 421.592,-146.636 432.051,-144.948 428.716,-138.794"/>
</g>
</g>
</svg>
