<?xml version="1.0" encoding="UTF-8" standalone="no"?>
<!DOCTYPE svg PUBLIC "-//W3C//DTD SVG 1.1//EN"
 "http://www.w3.org/Graphics/SVG/1.1/DTD/svg11.dtd">
<!-- Generated by graphviz version 2.38.0 (20140413.2041)
 -->
<!-- Title: perl6&#45;type&#45;graph Pages: 1 -->
<svg width="1779pt" height="939pt"
 viewBox="0.00 0.00 1778.54 939.44" xmlns="http://www.w3.org/2000/svg" xmlns:xlink="http://www.w3.org/1999/xlink">
<g id="graph0" class="graph" transform="scale(1 1) rotate(0) translate(896.035 431.829)">
<title>perl6&#45;type&#45;graph</title>
<polygon fill="white" stroke="none" points="-896.035,507.612 -896.035,-431.829 882.505,-431.829 882.505,507.612 -896.035,507.612"/>
<!-- Metamodel::RolePunning -->
<g id="node1" class="node"><title>Metamodel::RolePunning</title>
<g id="a_node1"><a xlink:href="/type/Metamodel::RolePunning" xlink:title="Metamodel::RolePunning">
<ellipse fill="none" stroke="#6666ff" cx="313.589" cy="182.975" rx="109.681" ry="18"/>
<text text-anchor="middle" x="313.589" y="186.675" font-family="FreeSans" font-size="14.00" fill="#6666ff">Metamodel::RolePunning</text>
</a>
</g>
</g>
<!-- Mu -->
<g id="node2" class="node"><title>Mu</title>
<g id="a_node2"><a xlink:href="/type/Mu" xlink:title="Mu">
<ellipse fill="none" stroke="#000000" cx="128.91" cy="465.519" rx="27" ry="18"/>
<text text-anchor="middle" x="128.91" y="469.219" font-family="FreeSans" font-size="14.00" fill="#000000">Mu</text>
</a>
</g>
</g>
<!-- Any -->
<g id="node3" class="node"><title>Any</title>
<g id="a_node3"><a xlink:href="/type/Any" xlink:title="Any">
<ellipse fill="none" stroke="#000000" cx="-48.142" cy="187.049" rx="27" ry="18"/>
<text text-anchor="middle" x="-48.142" y="190.749" font-family="FreeSans" font-size="14.00" fill="#000000">Any</text>
</a>
</g>
</g>
<!-- Any&#45;&gt;Mu -->
<g id="edge1" class="edge"><title>Any&#45;&gt;Mu</title>
<path fill="none" stroke="#000000" d="M-37.5968,203.635C-7.83747,250.441 76.9514,383.797 112.7,440.023"/>
<polygon fill="#000000" stroke="#000000" points="115.785,438.351 118.197,448.668 109.878,442.107 115.785,438.351"/>
</g>
<!-- Metamodel::TypePretense -->
<g id="node4" class="node"><title>Metamodel::TypePretense</title>
<g id="a_node4"><a xlink:href="/type/Metamodel::TypePretense" xlink:title="Metamodel::TypePretense">
<ellipse fill="none" stroke="#6666ff" cx="-174.224" cy="-85.5433" rx="114.28" ry="18"/>
<text text-anchor="middle" x="-174.224" y="-81.8433" font-family="FreeSans" font-size="14.00" fill="#6666ff">Metamodel::TypePretense</text>
</a>
</g>
</g>
<!-- Metamodel::CurriedRoleHOW -->
<g id="node5" class="node"><title>Metamodel::CurriedRoleHOW</title>
<g id="a_node5"><a xlink:href="/type/Metamodel::CurriedRoleHOW" xlink:title="Metamodel::CurriedRoleHOW">
<ellipse fill="none" stroke="#000000" cx="585.314" cy="485.612" rx="128.877" ry="18"/>
<text text-anchor="middle" x="585.314" y="489.312" font-family="FreeSans" font-size="14.00" fill="#000000">Metamodel::CurriedRoleHOW</text>
</a>
</g>
</g>
<!-- Metamodel::CurriedRoleHOW&#45;&gt;Metamodel::RolePunning -->
<g id="edge5" class="edge"><title>Metamodel::CurriedRoleHOW&#45;&gt;Metamodel::RolePunning</title>
<path fill="none" stroke="#6666ff" d="M569.13,467.587C522.878,416.073 390.012,268.092 336.413,208.396"/>
<polygon fill="#6666ff" stroke="#6666ff" points="333.765,210.685 329.688,200.906 338.974,206.008 333.765,210.685"/>
</g>
<!-- Metamodel::CurriedRoleHOW&#45;&gt;Any -->
<g id="edge2" class="edge"><title>Metamodel::CurriedRoleHOW&#45;&gt;Any</title>
<path fill="none" stroke="#000000" d="M548.518,468.269C434.7,414.624 89.633,251.986 -16.6442,201.895"/>
<polygon fill="#000000" stroke="#000000" points="-18.3318,204.969 -25.8852,197.539 -15.3474,198.637 -18.3318,204.969"/>
</g>
<!-- Metamodel::CurriedRoleHOW&#45;&gt;Metamodel::TypePretense -->
<g id="edge6" class="edge"><title>Metamodel::CurriedRoleHOW&#45;&gt;Metamodel::TypePretense</title>
<path fill="none" stroke="#6666ff" d="M561.749,467.892C451.236,384.788 -15.6432,33.7056 -142.371,-61.5907"/>
<polygon fill="#6666ff" stroke="#6666ff" points="-144.67,-58.9406 -150.559,-67.7481 -140.463,-64.5353 -144.67,-58.9406"/>
</g>
<!-- Metamodel::Naming -->
<g id="node6" class="node"><title>Metamodel::Naming</title>
<g id="a_node6"><a xlink:href="/type/Metamodel::Naming" xlink:title="Metamodel::Naming">
<ellipse fill="none" stroke="#6666ff" cx="-781.686" cy="25.5413" rx="90.1842" ry="18"/>
<text text-anchor="middle" x="-781.686" y="29.2413" font-family="FreeSans" font-size="14.00" fill="#6666ff">Metamodel::Naming</text>
</a>
</g>
</g>
<!-- Metamodel::Stashing -->
<g id="node7" class="node"><title>Metamodel::Stashing</title>
<g id="a_node7"><a xlink:href="/type/Metamodel::Stashing" xlink:title="Metamodel::Stashing">
<ellipse fill="none" stroke="#6666ff" cx="-399.139" cy="84.1307" rx="93.6835" ry="18"/>
<text text-anchor="middle" x="-399.139" y="87.8307" font-family="FreeSans" font-size="14.00" fill="#6666ff">Metamodel::Stashing</text>
</a>
</g>
</g>
<!-- Metamodel::BoolificationProtocol -->
<g id="node8" class="node"><title>Metamodel::BoolificationProtocol</title>
<g id="a_node8"><a xlink:href="/type/Metamodel::BoolificationProtocol" xlink:title="Metamodel::BoolificationProtocol">
<ellipse fill="none" stroke="#6666ff" cx="-737.932" cy="420.327" rx="139.175" ry="18"/>
<text text-anchor="middle" x="-737.932" y="424.027" font-family="FreeSans" font-size="14.00" fill="#6666ff">Metamodel::BoolificationProtocol</text>
</a>
</g>
</g>
<!-- Metamodel::ParametricRoleGroupHOW -->
<g id="node9" class="node"><title>Metamodel::ParametricRoleGroupHOW</title>
<g id="a_node9"><a xlink:href="/type/Metamodel::ParametricRoleGroupHOW" xlink:title="Metamodel::ParametricRoleGroupHOW">
<ellipse fill="none" stroke="#000000" cx="-275.085" cy="446.348" rx="167.07" ry="18"/>
<text text-anchor="middle" x="-275.085" y="450.048" font-family="FreeSans" font-size="14.00" fill="#000000">Metamodel::ParametricRoleGroupHOW</text>
</a>
</g>
</g>
<!-- Metamodel::ParametricRoleGroupHOW&#45;&gt;Metamodel::RolePunning -->
<g id="edge10" class="edge"><title>Metamodel::ParametricRoleGroupHOW&#45;&gt;Metamodel::RolePunning</title>
<path fill="none" stroke="#6666ff" d="M-235.547,428.658C-130.842,381.814 153.313,254.683 266.318,204.125"/>
<polygon fill="#6666ff" stroke="#6666ff" points="265.196,200.792 275.753,199.903 268.055,207.182 265.196,200.792"/>
</g>
<!-- Metamodel::ParametricRoleGroupHOW&#45;&gt;Any -->
<g id="edge3" class="edge"><title>Metamodel::ParametricRoleGroupHOW&#45;&gt;Any</title>
<path fill="none" stroke="#000000" d="M-259.127,428.114C-218.904,382.157 -113.399,261.61 -68.6645,210.498"/>
<polygon fill="#000000" stroke="#000000" points="-71.2457,208.133 -62.0259,202.913 -65.9782,212.743 -71.2457,208.133"/>
</g>
<!-- Metamodel::ParametricRoleGroupHOW&#45;&gt;Metamodel::TypePretense -->
<g id="edge9" class="edge"><title>Metamodel::ParametricRoleGroupHOW&#45;&gt;Metamodel::TypePretense</title>
<path fill="none" stroke="#6666ff" d="M-271.672,428.346C-256.811,349.978 -197.691,38.2102 -179.547,-57.472"/>
<polygon fill="#6666ff" stroke="#6666ff" points="-182.938,-58.3732 -177.637,-67.546 -176.061,-57.069 -182.938,-58.3732"/>
</g>
<!-- Metamodel::ParametricRoleGroupHOW&#45;&gt;Metamodel::Naming -->
<g id="edge7" class="edge"><title>Metamodel::ParametricRoleGroupHOW&#45;&gt;Metamodel::Naming</title>
<path fill="none" stroke="#6666ff" d="M-296.853,428.266C-377.743,361.076 -661.065,125.735 -752.792,49.5419"/>
<polygon fill="#6666ff" stroke="#6666ff" points="-755.107,52.1691 -760.563,43.087 -750.634,46.7844 -755.107,52.1691"/>
</g>
<!-- Metamodel::ParametricRoleGroupHOW&#45;&gt;Metamodel::Stashing -->
<g id="edge8" class="edge"><title>Metamodel::ParametricRoleGroupHOW&#45;&gt;Metamodel::Stashing</title>
<path fill="none" stroke="#6666ff" d="M-281.408,427.887C-301.738,368.527 -365.51,182.322 -389.704,111.679"/>
<polygon fill="#6666ff" stroke="#6666ff" points="-393.048,112.719 -392.977,102.124 -386.426,110.45 -393.048,112.719"/>
</g>
<!-- Metamodel::ParametricRoleGroupHOW&#45;&gt;Metamodel::BoolificationProtocol -->
<g id="edge11" class="edge"><title>Metamodel::ParametricRoleGroupHOW&#45;&gt;Metamodel::BoolificationProtocol</title>
<path fill="none" stroke="#6666ff" d="M-423.443,438.007C-480.073,434.823 -544.354,431.209 -599.977,428.082"/>
<polygon fill="#6666ff" stroke="#6666ff" points="-600.47,431.56 -610.258,427.504 -600.077,424.571 -600.47,431.56"/>
</g>
<!-- Metamodel::Documenting -->
<g id="node10" class="node"><title>Metamodel::Documenting</title>
<g id="a_node10"><a xlink:href="/type/Metamodel::Documenting" xlink:title="Metamodel::Documenting">
<ellipse fill="none" stroke="#6666ff" cx="700.275" cy="-405.166" rx="111.28" ry="18"/>
<text text-anchor="middle" x="700.275" y="-401.466" font-family="FreeSans" font-size="14.00" fill="#6666ff">Metamodel::Documenting</text>
</a>
</g>
</g>
<!-- Metamodel::Versioning -->
<g id="node11" class="node"><title>Metamodel::Versioning</title>
<g id="a_node11"><a xlink:href="/type/Metamodel::Versioning" xlink:title="Metamodel::Versioning">
<ellipse fill="none" stroke="#6666ff" cx="777.764" cy="257.127" rx="100.983" ry="18"/>
<text text-anchor="middle" x="777.764" y="260.827" font-family="FreeSans" font-size="14.00" fill="#6666ff">Metamodel::Versioning</text>
</a>
</g>
</g>
<!-- Metamodel::MethodContainer -->
<g id="node12" class="node"><title>Metamodel::MethodContainer</title>
<g id="a_node12"><a xlink:href="/type/Metamodel::MethodContainer" xlink:title="Metamodel::MethodContainer">
<ellipse fill="none" stroke="#6666ff" cx="-764.647" cy="-369.023" rx="127.277" ry="18"/>
<text text-anchor="middle" x="-764.647" y="-365.323" font-family="FreeSans" font-size="14.00" fill="#6666ff">Metamodel::MethodContainer</text>
</a>
</g>
</g>
<!-- Metamodel::PrivateMethodContainer -->
<g id="node13" class="node"><title>Metamodel::PrivateMethodContainer</title>
<g id="a_node13"><a xlink:href="/type/Metamodel::PrivateMethodContainer" xlink:title="Metamodel::PrivateMethodContainer">
<ellipse fill="none" stroke="#6666ff" cx="258.986" cy="-409.829" rx="154.873" ry="18"/>
<text text-anchor="middle" x="258.986" y="-406.129" font-family="FreeSans" font-size="14.00" fill="#6666ff">Metamodel::PrivateMethodContainer</text>
</a>
</g>
</g>
<!-- Metamodel::MultiMethodContainer -->
<g id="node14" class="node"><title>Metamodel::MultiMethodContainer</title>
<g id="a_node14"><a xlink:href="/type/Metamodel::MultiMethodContainer" xlink:title="Metamodel::MultiMethodContainer">
<ellipse fill="none" stroke="#6666ff" cx="-62.3577" cy="-405.081" rx="146.474" ry="18"/>
<text text-anchor="middle" x="-62.3577" y="-401.381" font-family="FreeSans" font-size="14.00" fill="#6666ff">Metamodel::MultiMethodContainer</text>
</a>
</g>
</g>
<!-- Metamodel::AttributeContainer -->
<g id="node15" class="node"><title>Metamodel::AttributeContainer</title>
<g id="a_node15"><a xlink:href="/type/Metamodel::AttributeContainer" xlink:title="Metamodel::AttributeContainer">
<ellipse fill="none" stroke="#6666ff" cx="-375.303" cy="-360.06" rx="129.977" ry="18"/>
<text text-anchor="middle" x="-375.303" y="-356.36" font-family="FreeSans" font-size="14.00" fill="#6666ff">Metamodel::AttributeContainer</text>
</a>
</g>
</g>
<!-- Metamodel::RoleContainer -->
<g id="node16" class="node"><title>Metamodel::RoleContainer</title>
<g id="a_node16"><a xlink:href="/type/Metamodel::RoleContainer" xlink:title="Metamodel::RoleContainer">
<ellipse fill="none" stroke="#6666ff" cx="369.261" cy="-105.822" rx="115.88" ry="18"/>
<text text-anchor="middle" x="369.261" y="-102.122" font-family="FreeSans" font-size="14.00" fill="#6666ff">Metamodel::RoleContainer</text>
</a>
</g>
</g>
<!-- Metamodel::MultipleInheritance -->
<g id="node17" class="node"><title>Metamodel::MultipleInheritance</title>
<g id="a_node17"><a xlink:href="/type/Metamodel::MultipleInheritance" xlink:title="Metamodel::MultipleInheritance">
<ellipse fill="none" stroke="#6666ff" cx="738.814" cy="-76.6878" rx="133.776" ry="18"/>
<text text-anchor="middle" x="738.814" y="-72.9878" font-family="FreeSans" font-size="14.00" fill="#6666ff">Metamodel::MultipleInheritance</text>
</a>
</g>
</g>
<!-- Metamodel::ParametricRoleHOW -->
<g id="node18" class="node"><title>Metamodel::ParametricRoleHOW</title>
<g id="a_node18"><a xlink:href="/type/Metamodel::ParametricRoleHOW" xlink:title="Metamodel::ParametricRoleHOW">
<ellipse fill="none" stroke="#000000" cx="89.1724" cy="-76.1959" rx="142.175" ry="18"/>
<text text-anchor="middle" x="89.1724" y="-72.4959" font-family="FreeSans" font-size="14.00" fill="#000000">Metamodel::ParametricRoleHOW</text>
</a>
</g>
</g>
<!-- Metamodel::ParametricRoleHOW&#45;&gt;Metamodel::RolePunning -->
<g id="edge23" class="edge"><title>Metamodel::ParametricRoleHOW&#45;&gt;Metamodel::RolePunning</title>
<path fill="none" stroke="#6666ff" d="M104.953,-57.9715C144.16,-12.6925 246.091,105.024 291.363,157.307"/>
<polygon fill="#6666ff" stroke="#6666ff" points="294.224,155.264 298.124,165.115 288.932,159.847 294.224,155.264"/>
</g>
<!-- Metamodel::ParametricRoleHOW&#45;&gt;Any -->
<g id="edge4" class="edge"><title>Metamodel::ParametricRoleHOW&#45;&gt;Any</title>
<path fill="none" stroke="#000000" d="M79.7342,-58.102C55.9477,-12.5009 -6.53853,107.291 -34.3964,160.698"/>
<polygon fill="#000000" stroke="#000000" points="-31.4498,162.617 -39.1779,169.864 -37.6562,159.379 -31.4498,162.617"/>
</g>
<!-- Metamodel::ParametricRoleHOW&#45;&gt;Metamodel::TypePretense -->
<g id="edge22" class="edge"><title>Metamodel::ParametricRoleHOW&#45;&gt;Metamodel::TypePretense</title>
<path fill="none" stroke="#6666ff" d="M-47.926,-81.0612C-49.4495,-81.1153 -50.9719,-81.1693 -52.4927,-81.2233"/>
<polygon fill="#6666ff" stroke="#6666ff" points="-52.6252,-77.7257 -62.4947,-81.5782 -52.3768,-84.7213 -52.6252,-77.7257"/>
</g>
<!-- Metamodel::ParametricRoleHOW&#45;&gt;Metamodel::Naming -->
<g id="edge12" class="edge"><title>Metamodel::ParametricRoleHOW&#45;&gt;Metamodel::Naming</title>
<path fill="none" stroke="#6666ff" d="M-15.4407,-63.9746C-188.57,-43.7489 -531.592,-3.67575 -693.348,15.2213"/>
<polygon fill="#6666ff" stroke="#6666ff" points="-693.398,18.7509 -703.737,16.4349 -694.21,11.7981 -693.398,18.7509"/>
</g>
<!-- Metamodel::ParametricRoleHOW&#45;&gt;Metamodel::Stashing -->
<g id="edge21" class="edge"><title>Metamodel::ParametricRoleHOW&#45;&gt;Metamodel::Stashing</title>
<path fill="none" stroke="#6666ff" d="M37.8374,-59.3412C-54.135,-29.144 -246.331,33.9592 -342.207,65.4381"/>
<polygon fill="#6666ff" stroke="#6666ff" points="-341.143,68.7727 -351.736,68.5668 -343.327,62.122 -341.143,68.7727"/>
</g>
<!-- Metamodel::ParametricRoleHOW&#45;&gt;Metamodel::Documenting -->
<g id="edge13" class="edge"><title>Metamodel::ParametricRoleHOW&#45;&gt;Metamodel::Documenting</title>
<path fill="none" stroke="#6666ff" d="M122.028,-93.8827C225.579,-149.627 545.015,-321.586 659.183,-383.045"/>
<polygon fill="#6666ff" stroke="#6666ff" points="657.534,-386.133 667.998,-387.791 660.852,-379.969 657.534,-386.133"/>
</g>
<!-- Metamodel::ParametricRoleHOW&#45;&gt;Metamodel::Versioning -->
<g id="edge14" class="edge"><title>Metamodel::ParametricRoleHOW&#45;&gt;Metamodel::Versioning</title>
<path fill="none" stroke="#6666ff" d="M125.224,-58.7443C241.446,-2.48573 606.077,174.019 733.377,235.641"/>
<polygon fill="#6666ff" stroke="#6666ff" points="735.005,232.54 742.481,240.047 731.955,238.841 735.005,232.54"/>
</g>
<!-- Metamodel::ParametricRoleHOW&#45;&gt;Metamodel::MethodContainer -->
<g id="edge15" class="edge"><title>Metamodel::ParametricRoleHOW&#45;&gt;Metamodel::MethodContainer</title>
<path fill="none" stroke="#6666ff" d="M39.8892,-93.0981C-107.946,-143.8 -547.23,-294.458 -706.308,-349.015"/>
<polygon fill="#6666ff" stroke="#6666ff" points="-707.602,-345.759 -715.926,-352.314 -705.331,-352.38 -707.602,-345.759"/>
</g>
<!-- Metamodel::ParametricRoleHOW&#45;&gt;Metamodel::PrivateMethodContainer -->
<g id="edge16" class="edge"><title>Metamodel::ParametricRoleHOW&#45;&gt;Metamodel::PrivateMethodContainer</title>
<path fill="none" stroke="#6666ff" d="M98.5442,-94.6087C126.842,-150.205 211.528,-316.588 245.077,-382.502"/>
<polygon fill="#6666ff" stroke="#6666ff" points="241.988,-384.149 249.643,-391.473 248.226,-380.974 241.988,-384.149"/>
</g>
<!-- Metamodel::ParametricRoleHOW&#45;&gt;Metamodel::MultiMethodContainer -->
<g id="edge17" class="edge"><title>Metamodel::ParametricRoleHOW&#45;&gt;Metamodel::MultiMethodContainer</title>
<path fill="none" stroke="#6666ff" d="M80.8096,-94.3466C55.6104,-149.04 -19.6999,-312.495 -49.7617,-377.742"/>
<polygon fill="#6666ff" stroke="#6666ff" points="-53.0149,-376.439 -54.0207,-386.986 -46.6573,-379.368 -53.0149,-376.439"/>
</g>
<!-- Metamodel::ParametricRoleHOW&#45;&gt;Metamodel::AttributeContainer -->
<g id="edge18" class="edge"><title>Metamodel::ParametricRoleHOW&#45;&gt;Metamodel::AttributeContainer</title>
<path fill="none" stroke="#6666ff" d="M60.1173,-93.9528C-20.6225,-143.297 -247.663,-282.053 -337.768,-337.121"/>
<polygon fill="#6666ff" stroke="#6666ff" points="-339.849,-334.29 -346.556,-342.491 -336.198,-340.263 -339.849,-334.29"/>
</g>
<!-- Metamodel::ParametricRoleHOW&#45;&gt;Metamodel::RoleContainer -->
<g id="edge19" class="edge"><title>Metamodel::ParametricRoleHOW&#45;&gt;Metamodel::RoleContainer</title>
<path fill="none" stroke="#6666ff" d="M198.665,-87.7774C219.99,-90.033 242.309,-92.3938 263.51,-94.6363"/>
<polygon fill="#6666ff" stroke="#6666ff" points="263.178,-98.1206 273.491,-95.692 263.914,-91.1594 263.178,-98.1206"/>
</g>
<!-- Metamodel::ParametricRoleHOW&#45;&gt;Metamodel::MultipleInheritance -->
<g id="edge20" class="edge"><title>Metamodel::ParametricRoleHOW&#45;&gt;Metamodel::MultipleInheritance</title>
<path fill="none" stroke="#6666ff" d="M231.739,-76.3038C339.492,-76.3854 486.807,-76.497 594.89,-76.5788"/>
<polygon fill="#6666ff" stroke="#6666ff" points="594.893,-80.0788 604.895,-76.5864 594.898,-73.0788 594.893,-80.0788"/>
</g>
</g>
</svg>
