<?xml version="1.0" encoding="UTF-8" standalone="no"?>
<!DOCTYPE svg PUBLIC "-//W3C//DTD SVG 1.1//EN"
 "http://www.w3.org/Graphics/SVG/1.1/DTD/svg11.dtd">
<!-- Generated by graphviz version 2.38.0 (20140413.2041)
 -->
<!-- Title: perl6&#45;type&#45;graph Pages: 1 -->
<svg width="792pt" height="404pt"
 viewBox="0.00 0.00 791.54 404.00" xmlns="http://www.w3.org/2000/svg" xmlns:xlink="http://www.w3.org/1999/xlink">
<g id="graph0" class="graph" transform="scale(1 1) rotate(0) translate(4 400)">
<title>perl6&#45;type&#45;graph</title>
<polygon fill="white" stroke="none" points="-4,4 -4,-400 787.542,-400 787.542,4 -4,4"/>
<!-- Iterable -->
<g id="node1" class="node"><title>Iterable</title>
<g id="a_node1"><a xlink:href="/type/Iterable" xlink:title="Iterable">
<ellipse fill="none" stroke="#6666ff" cx="443.746" cy="-234" rx="40.0939" ry="18"/>
<text text-anchor="middle" x="443.746" y="-230.3" font-family="FreeSans" font-size="14.00" fill="#6666ff">Iterable</text>
</a>
</g>
</g>
<!-- Mu -->
<g id="node2" class="node"><title>Mu</title>
<g id="a_node2"><a xlink:href="/type/Mu" xlink:title="Mu">
<ellipse fill="none" stroke="#000000" cx="640.746" cy="-378" rx="27" ry="18"/>
<text text-anchor="middle" x="640.746" y="-374.3" font-family="FreeSans" font-size="14.00" fill="#000000">Mu</text>
</a>
</g>
</g>
<!-- Any -->
<g id="node3" class="node"><title>Any</title>
<g id="a_node3"><a xlink:href="/type/Any" xlink:title="Any">
<ellipse fill="none" stroke="#000000" cx="640.746" cy="-306" rx="27" ry="18"/>
<text text-anchor="middle" x="640.746" y="-302.3" font-family="FreeSans" font-size="14.00" fill="#000000">Any</text>
</a>
</g>
</g>
<!-- Any&#45;&gt;Mu -->
<g id="edge1" class="edge"><title>Any&#45;&gt;Mu</title>
<path fill="none" stroke="#000000" d="M640.746,-324.303C640.746,-332.017 640.746,-341.288 640.746,-349.888"/>
<polygon fill="#000000" stroke="#000000" points="637.246,-349.896 640.746,-359.896 644.246,-349.896 637.246,-349.896"/>
</g>
<!-- Cool -->
<g id="node4" class="node"><title>Cool</title>
<g id="a_node4"><a xlink:href="/type/Cool" xlink:title="Cool">
<ellipse fill="none" stroke="#000000" cx="143.746" cy="-234" rx="28.6953" ry="18"/>
<text text-anchor="middle" x="143.746" y="-230.3" font-family="FreeSans" font-size="14.00" fill="#000000">Cool</text>
</a>
</g>
</g>
<!-- Cool&#45;&gt;Any -->
<g id="edge2" class="edge"><title>Cool&#45;&gt;Any</title>
<path fill="none" stroke="#000000" d="M166.29,-245.085C174.472,-248.746 181.746,-252 181.746,-252 181.746,-252 495.635,-288.244 604.269,-300.788"/>
<polygon fill="#000000" stroke="#000000" points="604.084,-304.29 614.419,-301.96 604.887,-297.336 604.084,-304.29"/>
</g>
<!-- PositionalBindFailover -->
<g id="node5" class="node"><title>PositionalBindFailover</title>
<g id="a_node5"><a xlink:href="/type/PositionalBindFailover" xlink:title="PositionalBindFailover">
<ellipse fill="none" stroke="#6666ff" cx="287.746" cy="-234" rx="97.4827" ry="18"/>
<text text-anchor="middle" x="287.746" y="-230.3" font-family="FreeSans" font-size="14.00" fill="#6666ff">PositionalBindFailover</text>
</a>
</g>
</g>
<!-- Seq -->
<g id="node6" class="node"><title>Seq</title>
<g id="a_node6"><a xlink:href="/type/Seq" xlink:title="Seq">
<ellipse fill="none" stroke="#000000" cx="287.746" cy="-162" rx="27" ry="18"/>
<text text-anchor="middle" x="287.746" y="-158.3" font-family="FreeSans" font-size="14.00" fill="#000000">Seq</text>
</a>
</g>
</g>
<!-- Seq&#45;&gt;Iterable -->
<g id="edge14" class="edge"><title>Seq&#45;&gt;Iterable</title>
<path fill="none" stroke="#6666ff" d="M309.437,-172.733C334.593,-184.021 376.481,-202.817 406.798,-216.421"/>
<polygon fill="#6666ff" stroke="#6666ff" points="405.642,-219.738 416.198,-220.639 408.508,-213.352 405.642,-219.738"/>
</g>
<!-- Seq&#45;&gt;Cool -->
<g id="edge3" class="edge"><title>Seq&#45;&gt;Cool</title>
<path fill="none" stroke="#000000" d="M266.498,-173.329C242.424,-185.031 202.947,-204.221 175.278,-217.672"/>
<polygon fill="#000000" stroke="#000000" points="173.492,-214.648 166.029,-222.168 176.552,-220.944 173.492,-214.648"/>
</g>
<!-- Seq&#45;&gt;PositionalBindFailover -->
<g id="edge15" class="edge"><title>Seq&#45;&gt;PositionalBindFailover</title>
<path fill="none" stroke="#6666ff" d="M287.746,-180.303C287.746,-188.017 287.746,-197.288 287.746,-205.888"/>
<polygon fill="#6666ff" stroke="#6666ff" points="284.246,-205.896 287.746,-215.896 291.246,-205.896 284.246,-205.896"/>
</g>
<!-- Positional -->
<g id="node7" class="node"><title>Positional</title>
<g id="a_node7"><a xlink:href="/type/Positional" xlink:title="Positional">
<ellipse fill="none" stroke="#6666ff" cx="48.7457" cy="-234" rx="48.9926" ry="18"/>
<text text-anchor="middle" x="48.7457" y="-230.3" font-family="FreeSans" font-size="14.00" fill="#6666ff">Positional</text>
</a>
</g>
</g>
<!-- List -->
<g id="node8" class="node"><title>List</title>
<g id="a_node8"><a xlink:href="/type/List" xlink:title="List">
<ellipse fill="none" stroke="#000000" cx="179.746" cy="-162" rx="27" ry="18"/>
<text text-anchor="middle" x="179.746" y="-158.3" font-family="FreeSans" font-size="14.00" fill="#000000">List</text>
</a>
</g>
</g>
<!-- List&#45;&gt;Iterable -->
<g id="edge17" class="edge"><title>List&#45;&gt;Iterable</title>
<path fill="none" stroke="#6666ff" d="M204.713,-169.184C261.164,-183.164 393.746,-216 393.746,-216 393.746,-216 397.507,-217.279 402.967,-219.135"/>
<polygon fill="#6666ff" stroke="#6666ff" points="402.054,-222.522 412.649,-222.427 404.307,-215.894 402.054,-222.522"/>
</g>
<!-- List&#45;&gt;Cool -->
<g id="edge4" class="edge"><title>List&#45;&gt;Cool</title>
<path fill="none" stroke="#000000" d="M171.396,-179.235C167.096,-187.596 161.754,-197.984 156.914,-207.394"/>
<polygon fill="#000000" stroke="#000000" points="153.761,-205.873 152.3,-216.367 159.986,-209.074 153.761,-205.873"/>
</g>
<!-- List&#45;&gt;Positional -->
<g id="edge16" class="edge"><title>List&#45;&gt;Positional</title>
<path fill="none" stroke="#6666ff" d="M159.277,-173.938C139.241,-184.644 108.309,-201.172 84.2576,-214.024"/>
<polygon fill="#6666ff" stroke="#6666ff" points="82.5837,-210.95 75.4134,-218.75 85.8827,-217.124 82.5837,-210.95"/>
</g>
<!-- Sequence -->
<g id="node9" class="node"><title>Sequence</title>
<g id="a_node9"><a xlink:href="/type/Sequence" xlink:title="Sequence">
<ellipse fill="none" stroke="#6666ff" cx="718.746" cy="-234" rx="50.0912" ry="18"/>
<text text-anchor="middle" x="718.746" y="-230.3" font-family="FreeSans" font-size="14.00" fill="#6666ff">Sequence</text>
</a>
</g>
</g>
<!-- RaceSeq -->
<g id="node10" class="node"><title>RaceSeq</title>
<g id="a_node10"><a xlink:href="/type/RaceSeq" xlink:title="RaceSeq">
<ellipse fill="none" stroke="#000000" cx="736.746" cy="-162" rx="46.5926" ry="18"/>
<text text-anchor="middle" x="736.746" y="-158.3" font-family="FreeSans" font-size="14.00" fill="#000000">RaceSeq</text>
</a>
</g>
</g>
<!-- RaceSeq&#45;&gt;Iterable -->
<g id="edge18" class="edge"><title>RaceSeq&#45;&gt;Iterable</title>
<path fill="none" stroke="#6666ff" d="M701.28,-173.766C690.166,-177.14 680.746,-180 680.746,-180 680.746,-180 493.746,-216 493.746,-216 493.746,-216 489.984,-217.279 484.524,-219.135"/>
<polygon fill="#6666ff" stroke="#6666ff" points="483.184,-215.894 474.843,-222.427 485.437,-222.522 483.184,-215.894"/>
</g>
<!-- RaceSeq&#45;&gt;Any -->
<g id="edge5" class="edge"><title>RaceSeq&#45;&gt;Any</title>
<path fill="none" stroke="#000000" d="M749.494,-179.479C761.529,-195.037 777.746,-216 777.746,-216 777.746,-216 777.746,-252 777.746,-252 777.746,-252 713.678,-276.785 673.167,-292.457"/>
<polygon fill="#000000" stroke="#000000" points="671.74,-289.257 663.676,-296.129 674.266,-295.785 671.74,-289.257"/>
</g>
<!-- RaceSeq&#45;&gt;Sequence -->
<g id="edge19" class="edge"><title>RaceSeq&#45;&gt;Sequence</title>
<path fill="none" stroke="#6666ff" d="M732.388,-179.945C730.384,-187.739 727.957,-197.178 725.709,-205.921"/>
<polygon fill="#6666ff" stroke="#6666ff" points="722.289,-205.168 723.188,-215.725 729.068,-206.911 722.289,-205.168"/>
</g>
<!-- HyperSeq -->
<g id="node11" class="node"><title>HyperSeq</title>
<g id="a_node11"><a xlink:href="/type/HyperSeq" xlink:title="HyperSeq">
<ellipse fill="none" stroke="#000000" cx="621.746" cy="-162" rx="50.0912" ry="18"/>
<text text-anchor="middle" x="621.746" y="-158.3" font-family="FreeSans" font-size="14.00" fill="#000000">HyperSeq</text>
</a>
</g>
</g>
<!-- HyperSeq&#45;&gt;Iterable -->
<g id="edge20" class="edge"><title>HyperSeq&#45;&gt;Iterable</title>
<path fill="none" stroke="#6666ff" d="M589.098,-175.839C558.991,-187.679 514.27,-205.266 482.393,-217.802"/>
<polygon fill="#6666ff" stroke="#6666ff" points="480.968,-214.601 472.943,-221.518 483.53,-221.115 480.968,-214.601"/>
</g>
<!-- HyperSeq&#45;&gt;Any -->
<g id="edge6" class="edge"><title>HyperSeq&#45;&gt;Any</title>
<path fill="none" stroke="#000000" d="M624.038,-180.129C627.276,-204.33 633.225,-248.789 637.08,-277.607"/>
<polygon fill="#000000" stroke="#000000" points="633.65,-278.363 638.446,-287.811 640.588,-277.435 633.65,-278.363"/>
</g>
<!-- HyperSeq&#45;&gt;Sequence -->
<g id="edge21" class="edge"><title>HyperSeq&#45;&gt;Sequence</title>
<path fill="none" stroke="#6666ff" d="M643.273,-178.535C656.71,-188.232 674.198,-200.852 688.956,-211.502"/>
<polygon fill="#6666ff" stroke="#6666ff" points="687.121,-214.494 697.278,-217.508 691.218,-208.818 687.121,-214.494"/>
</g>
<!-- Associative -->
<g id="node12" class="node"><title>Associative</title>
<g id="a_node12"><a xlink:href="/type/Associative" xlink:title="Associative">
<ellipse fill="none" stroke="#6666ff" cx="557.746" cy="-234" rx="55.4913" ry="18"/>
<text text-anchor="middle" x="557.746" y="-230.3" font-family="FreeSans" font-size="14.00" fill="#6666ff">Associative</text>
</a>
</g>
</g>
<!-- Map -->
<g id="node13" class="node"><title>Map</title>
<g id="a_node13"><a xlink:href="/type/Map" xlink:title="Map">
<ellipse fill="none" stroke="#000000" cx="443.746" cy="-162" rx="28.6953" ry="18"/>
<text text-anchor="middle" x="443.746" y="-158.3" font-family="FreeSans" font-size="14.00" fill="#000000">Map</text>
</a>
</g>
</g>
<!-- Map&#45;&gt;Iterable -->
<g id="edge22" class="edge"><title>Map&#45;&gt;Iterable</title>
<path fill="none" stroke="#6666ff" d="M443.746,-180.303C443.746,-188.017 443.746,-197.288 443.746,-205.888"/>
<polygon fill="#6666ff" stroke="#6666ff" points="440.246,-205.896 443.746,-215.896 447.246,-205.896 440.246,-205.896"/>
</g>
<!-- Map&#45;&gt;Cool -->
<g id="edge7" class="edge"><title>Map&#45;&gt;Cool</title>
<path fill="none" stroke="#000000" d="M416.694,-168.472C349.753,-182.014 181.746,-216 181.746,-216 181.746,-216 179.315,-217.088 175.682,-218.712"/>
<polygon fill="#000000" stroke="#000000" points="173.989,-215.636 166.29,-222.915 176.847,-222.026 173.989,-215.636"/>
</g>
<!-- Map&#45;&gt;Associative -->
<g id="edge23" class="edge"><title>Map&#45;&gt;Associative</title>
<path fill="none" stroke="#6666ff" d="M463.603,-175.193C480.31,-185.452 504.556,-200.34 524.259,-212.438"/>
<polygon fill="#6666ff" stroke="#6666ff" points="522.595,-215.523 532.948,-217.773 526.258,-209.558 522.595,-215.523"/>
</g>
<!-- Range -->
<g id="node14" class="node"><title>Range</title>
<g id="a_node14"><a xlink:href="/type/Range" xlink:title="Range">
<ellipse fill="none" stroke="#000000" cx="98.7457" cy="-162" rx="36.2938" ry="18"/>
<text text-anchor="middle" x="98.7457" y="-158.3" font-family="FreeSans" font-size="14.00" fill="#000000">Range</text>
</a>
</g>
</g>
<!-- Range&#45;&gt;Iterable -->
<g id="edge25" class="edge"><title>Range&#45;&gt;Iterable</title>
<path fill="none" stroke="#6666ff" d="M126.733,-173.573C135.884,-177.03 143.746,-180 143.746,-180 143.746,-180 393.746,-216 393.746,-216 393.746,-216 397.507,-217.279 402.967,-219.135"/>
<polygon fill="#6666ff" stroke="#6666ff" points="402.054,-222.522 412.649,-222.427 404.307,-215.894 402.054,-222.522"/>
</g>
<!-- Range&#45;&gt;Cool -->
<g id="edge8" class="edge"><title>Range&#45;&gt;Cool</title>
<path fill="none" stroke="#000000" d="M109.41,-179.589C114.925,-188.168 121.766,-198.809 127.887,-208.33"/>
<polygon fill="#000000" stroke="#000000" points="125.116,-210.493 133.468,-217.012 131.004,-206.707 125.116,-210.493"/>
</g>
<!-- Range&#45;&gt;Positional -->
<g id="edge24" class="edge"><title>Range&#45;&gt;Positional</title>
<path fill="none" stroke="#6666ff" d="M87.149,-179.235C81.0529,-187.77 73.4473,-198.418 66.6165,-207.981"/>
<polygon fill="#6666ff" stroke="#6666ff" points="63.591,-206.195 60.6267,-216.367 69.2872,-210.264 63.591,-206.195"/>
</g>
<!-- Slip -->
<g id="node15" class="node"><title>Slip</title>
<g id="a_node15"><a xlink:href="/type/Slip" xlink:title="Slip">
<ellipse fill="none" stroke="#000000" cx="139.746" cy="-90" rx="27" ry="18"/>
<text text-anchor="middle" x="139.746" y="-86.3" font-family="FreeSans" font-size="14.00" fill="#000000">Slip</text>
</a>
</g>
</g>
<!-- Slip&#45;&gt;List -->
<g id="edge9" class="edge"><title>Slip&#45;&gt;List</title>
<path fill="none" stroke="#000000" d="M149.023,-107.235C153.92,-115.805 160.035,-126.506 165.517,-136.1"/>
<polygon fill="#000000" stroke="#000000" points="162.518,-137.907 170.519,-144.853 168.596,-134.434 162.518,-137.907"/>
</g>
<!-- Array -->
<g id="node16" class="node"><title>Array</title>
<g id="a_node16"><a xlink:href="/type/Array" xlink:title="Array">
<ellipse fill="none" stroke="#000000" cx="216.746" cy="-90" rx="31.6951" ry="18"/>
<text text-anchor="middle" x="216.746" y="-86.3" font-family="FreeSans" font-size="14.00" fill="#000000">Array</text>
</a>
</g>
</g>
<!-- Array&#45;&gt;List -->
<g id="edge10" class="edge"><title>Array&#45;&gt;List</title>
<path fill="none" stroke="#000000" d="M207.977,-107.589C203.554,-115.958 198.092,-126.29 193.155,-135.63"/>
<polygon fill="#000000" stroke="#000000" points="190.03,-134.053 188.451,-144.53 196.219,-137.325 190.03,-134.053"/>
</g>
<!-- PseudoStash -->
<g id="node17" class="node"><title>PseudoStash</title>
<g id="a_node17"><a xlink:href="/type/PseudoStash" xlink:title="PseudoStash">
<ellipse fill="none" stroke="#000000" cx="387.746" cy="-90" rx="63.0888" ry="18"/>
<text text-anchor="middle" x="387.746" y="-86.3" font-family="FreeSans" font-size="14.00" fill="#000000">PseudoStash</text>
</a>
</g>
</g>
<!-- PseudoStash&#45;&gt;Map -->
<g id="edge11" class="edge"><title>PseudoStash&#45;&gt;Map</title>
<path fill="none" stroke="#000000" d="M401.302,-107.945C408.412,-116.833 417.233,-127.86 424.989,-137.554"/>
<polygon fill="#000000" stroke="#000000" points="422.481,-140.021 431.461,-145.644 427.947,-135.648 422.481,-140.021"/>
</g>
<!-- Hash -->
<g id="node18" class="node"><title>Hash</title>
<g id="a_node18"><a xlink:href="/type/Hash" xlink:title="Hash">
<ellipse fill="none" stroke="#000000" cx="499.746" cy="-90" rx="31.3957" ry="18"/>
<text text-anchor="middle" x="499.746" y="-86.3" font-family="FreeSans" font-size="14.00" fill="#000000">Hash</text>
</a>
</g>
</g>
<!-- Hash&#45;&gt;Map -->
<g id="edge12" class="edge"><title>Hash&#45;&gt;Map</title>
<path fill="none" stroke="#000000" d="M487.317,-106.535C479.995,-115.689 470.589,-127.446 462.391,-137.693"/>
<polygon fill="#000000" stroke="#000000" points="459.653,-135.513 456.139,-145.508 465.119,-139.886 459.653,-135.513"/>
</g>
<!-- Stash -->
<g id="node19" class="node"><title>Stash</title>
<g id="a_node19"><a xlink:href="/type/Stash" xlink:title="Stash">
<ellipse fill="none" stroke="#000000" cx="499.746" cy="-18" rx="33.2948" ry="18"/>
<text text-anchor="middle" x="499.746" y="-14.3" font-family="FreeSans" font-size="14.00" fill="#000000">Stash</text>
</a>
</g>
</g>
<!-- Stash&#45;&gt;Hash -->
<g id="edge13" class="edge"><title>Stash&#45;&gt;Hash</title>
<path fill="none" stroke="#000000" d="M499.746,-36.3034C499.746,-44.0173 499.746,-53.2875 499.746,-61.8876"/>
<polygon fill="#000000" stroke="#000000" points="496.246,-61.8956 499.746,-71.8957 503.246,-61.8957 496.246,-61.8956"/>
</g>
</g>
</svg>
