<?xml version="1.0" encoding="UTF-8" standalone="no"?>
<!DOCTYPE svg PUBLIC "-//W3C//DTD SVG 1.1//EN"
 "http://www.w3.org/Graphics/SVG/1.1/DTD/svg11.dtd">
<!-- Generated by graphviz version 2.38.0 (20140413.2041)
 -->
<!-- Title: perl6&#45;type&#45;graph Pages: 1 -->
<svg width="205pt" height="404pt"
 viewBox="0.00 0.00 204.74 404.00" xmlns="http://www.w3.org/2000/svg" xmlns:xlink="http://www.w3.org/1999/xlink">
<g id="graph0" class="graph" transform="scale(1 1) rotate(0) translate(4 400)">
<title>perl6&#45;type&#45;graph</title>
<polygon fill="white" stroke="none" points="-4,4 -4,-400 200.742,-400 200.742,4 -4,4"/>
<!-- X::IO::Link -->
<g id="node1" class="node"><title>X::IO::Link</title>
<g id="a_node1"><a xlink:href="/type/X::IO::Link" xlink:title="X::IO::Link">
<ellipse fill="none" stroke="#000000" cx="53.2953" cy="-18" rx="53.0913" ry="18"/>
<text text-anchor="middle" x="53.2953" y="-14.3" font-family="FreeSans" font-size="14.00" fill="#000000">X::IO::Link</text>
</a>
</g>
</g>
<!-- Exception -->
<g id="node4" class="node"><title>Exception</title>
<g id="a_node4"><a xlink:href="/type/Exception" xlink:title="Exception">
<ellipse fill="none" stroke="#000000" cx="76.2953" cy="-234" rx="49.2915" ry="18"/>
<text text-anchor="middle" x="76.2953" y="-230.3" font-family="FreeSans" font-size="14.00" fill="#000000">Exception</text>
</a>
</g>
</g>
<!-- X::IO::Link&#45;&gt;Exception -->
<g id="edge1" class="edge"><title>X::IO::Link&#45;&gt;Exception</title>
<path fill="none" stroke="#000000" d="M51.2611,-36.1508C51.7058,-73.3384 60.9369,-161.626 68.7673,-206.228"/>
<polygon fill="#000000" stroke="#000000" points="65.3292,-206.884 70.6183,-216.065 72.2084,-205.59 65.3292,-206.884"/>
</g>
<!-- X::IO::Link&#45;&gt;Exception -->
<g id="edge2" class="edge"><title>X::IO::Link&#45;&gt;Exception</title>
<path fill="none" stroke="#000000" d="M59.0161,-36.1508C66.5305,-73.1683 76.2224,-160.819 78.044,-205.614"/>
<polygon fill="#000000" stroke="#000000" points="74.5497,-205.87 78.3285,-215.768 81.547,-205.673 74.5497,-205.87"/>
</g>
<!-- X::IO -->
<g id="node6" class="node"><title>X::IO</title>
<g id="a_node6"><a xlink:href="/type/X::IO" xlink:title="X::IO">
<ellipse fill="none" stroke="#6666ff" cx="121.295" cy="-90" rx="31.3957" ry="18"/>
<text text-anchor="middle" x="121.295" y="-86.3" font-family="FreeSans" font-size="14.00" fill="#6666ff">X::IO</text>
</a>
</g>
</g>
<!-- X::IO::Link&#45;&gt;X::IO -->
<g id="edge7" class="edge"><title>X::IO::Link&#45;&gt;X::IO</title>
<path fill="none" stroke="#6666ff" d="M69.0668,-35.2354C78.071,-44.5044 89.4969,-56.2664 99.3643,-66.424"/>
<polygon fill="#6666ff" stroke="#6666ff" points="97.0619,-69.077 106.54,-73.811 102.083,-64.1995 97.0619,-69.077"/>
</g>
<!-- Mu -->
<g id="node2" class="node"><title>Mu</title>
<g id="a_node2"><a xlink:href="/type/Mu" xlink:title="Mu">
<ellipse fill="none" stroke="#000000" cx="76.2953" cy="-378" rx="27" ry="18"/>
<text text-anchor="middle" x="76.2953" y="-374.3" font-family="FreeSans" font-size="14.00" fill="#000000">Mu</text>
</a>
</g>
</g>
<!-- Any -->
<g id="node3" class="node"><title>Any</title>
<g id="a_node3"><a xlink:href="/type/Any" xlink:title="Any">
<ellipse fill="none" stroke="#000000" cx="76.2953" cy="-306" rx="27" ry="18"/>
<text text-anchor="middle" x="76.2953" y="-302.3" font-family="FreeSans" font-size="14.00" fill="#000000">Any</text>
</a>
</g>
</g>
<!-- Any&#45;&gt;Mu -->
<g id="edge3" class="edge"><title>Any&#45;&gt;Mu</title>
<path fill="none" stroke="#000000" d="M76.2953,-324.303C76.2953,-332.017 76.2953,-341.288 76.2953,-349.888"/>
<polygon fill="#000000" stroke="#000000" points="72.7954,-349.896 76.2953,-359.896 79.7954,-349.896 72.7954,-349.896"/>
</g>
<!-- Exception&#45;&gt;Any -->
<g id="edge4" class="edge"><title>Exception&#45;&gt;Any</title>
<path fill="none" stroke="#000000" d="M76.2953,-252.303C76.2953,-260.017 76.2953,-269.288 76.2953,-277.888"/>
<polygon fill="#000000" stroke="#000000" points="72.7954,-277.896 76.2953,-287.896 79.7954,-277.896 72.7954,-277.896"/>
</g>
<!-- X::OS -->
<g id="node5" class="node"><title>X::OS</title>
<g id="a_node5"><a xlink:href="/type/X::OS" xlink:title="X::OS">
<ellipse fill="none" stroke="#6666ff" cx="162.295" cy="-162" rx="34.394" ry="18"/>
<text text-anchor="middle" x="162.295" y="-158.3" font-family="FreeSans" font-size="14.00" fill="#6666ff">X::OS</text>
</a>
</g>
</g>
<!-- X::OS&#45;&gt;Exception -->
<g id="edge5" class="edge"><title>X::OS&#45;&gt;Exception</title>
<path fill="none" stroke="#000000" d="M144.476,-177.504C132.661,-187.121 116.929,-199.926 103.554,-210.813"/>
<polygon fill="#000000" stroke="#000000" points="101.133,-208.27 95.587,-217.297 105.552,-213.699 101.133,-208.27"/>
</g>
<!-- X::IO&#45;&gt;Exception -->
<g id="edge6" class="edge"><title>X::IO&#45;&gt;Exception</title>
<path fill="none" stroke="#000000" d="M115.956,-107.847C108.285,-132.056 94.0589,-176.946 84.8937,-205.867"/>
<polygon fill="#000000" stroke="#000000" points="81.452,-205.142 81.7675,-215.732 88.125,-207.257 81.452,-205.142"/>
</g>
<!-- X::IO&#45;&gt;X::OS -->
<g id="edge8" class="edge"><title>X::IO&#45;&gt;X::OS</title>
<path fill="none" stroke="#6666ff" d="M130.805,-107.235C135.752,-115.683 141.913,-126.201 147.47,-135.688"/>
<polygon fill="#6666ff" stroke="#6666ff" points="144.479,-137.507 152.553,-144.367 150.519,-133.969 144.479,-137.507"/>
</g>
</g>
</svg>
