<?xml version="1.0" encoding="UTF-8" standalone="no"?>
<!DOCTYPE svg PUBLIC "-//W3C//DTD SVG 1.1//EN"
 "http://www.w3.org/Graphics/SVG/1.1/DTD/svg11.dtd">
<!-- Generated by graphviz version 2.38.0 (20140413.2041)
 -->
<!-- Title: perl6&#45;type&#45;graph Pages: 1 -->
<svg width="270pt" height="404pt"
 viewBox="0.00 0.00 269.69 404.00" xmlns="http://www.w3.org/2000/svg" xmlns:xlink="http://www.w3.org/1999/xlink">
<g id="graph0" class="graph" transform="scale(1 1) rotate(0) translate(4 400)">
<title>perl6&#45;type&#45;graph</title>
<polygon fill="white" stroke="none" points="-4,4 -4,-400 265.687,-400 265.687,4 -4,4"/>
<!-- X::Syntax::UnlessElse -->
<g id="node1" class="node"><title>X::Syntax::UnlessElse</title>
<g id="a_node1"><a xlink:href="/type/X::Syntax::UnlessElse" xlink:title="X::Syntax::UnlessElse">
<ellipse fill="none" stroke="#000000" cx="96.8414" cy="-18" rx="96.6831" ry="18"/>
<text text-anchor="middle" x="96.8414" y="-14.3" font-family="FreeSans" font-size="14.00" fill="#000000">X::Syntax::UnlessElse</text>
</a>
</g>
</g>
<!-- Exception -->
<g id="node4" class="node"><title>Exception</title>
<g id="a_node4"><a xlink:href="/type/Exception" xlink:title="Exception">
<ellipse fill="none" stroke="#000000" cx="119.841" cy="-234" rx="49.2915" ry="18"/>
<text text-anchor="middle" x="119.841" y="-230.3" font-family="FreeSans" font-size="14.00" fill="#000000">Exception</text>
</a>
</g>
</g>
<!-- X::Syntax::UnlessElse&#45;&gt;Exception -->
<g id="edge1" class="edge"><title>X::Syntax::UnlessElse&#45;&gt;Exception</title>
<path fill="none" stroke="#000000" d="M94.8072,-36.1508C95.2519,-73.3384 104.483,-161.626 112.313,-206.228"/>
<polygon fill="#000000" stroke="#000000" points="108.875,-206.884 114.164,-216.065 115.755,-205.59 108.875,-206.884"/>
</g>
<!-- X::Syntax::UnlessElse&#45;&gt;Exception -->
<g id="edge2" class="edge"><title>X::Syntax::UnlessElse&#45;&gt;Exception</title>
<path fill="none" stroke="#000000" d="M102.562,-36.1508C110.077,-73.1683 119.769,-160.819 121.59,-205.614"/>
<polygon fill="#000000" stroke="#000000" points="118.096,-205.87 121.875,-215.768 125.093,-205.673 118.096,-205.87"/>
</g>
<!-- X::Syntax -->
<g id="node6" class="node"><title>X::Syntax</title>
<g id="a_node6"><a xlink:href="/type/X::Syntax" xlink:title="X::Syntax">
<ellipse fill="none" stroke="#6666ff" cx="181.841" cy="-90" rx="48.1917" ry="18"/>
<text text-anchor="middle" x="181.841" y="-86.3" font-family="FreeSans" font-size="14.00" fill="#6666ff">X::Syntax</text>
</a>
</g>
</g>
<!-- X::Syntax::UnlessElse&#45;&gt;X::Syntax -->
<g id="edge7" class="edge"><title>X::Syntax::UnlessElse&#45;&gt;X::Syntax</title>
<path fill="none" stroke="#6666ff" d="M117.418,-35.945C128.675,-45.216 142.759,-56.8143 154.885,-66.8003"/>
<polygon fill="#6666ff" stroke="#6666ff" points="152.964,-69.7523 162.908,-73.4077 157.414,-64.3488 152.964,-69.7523"/>
</g>
<!-- Mu -->
<g id="node2" class="node"><title>Mu</title>
<g id="a_node2"><a xlink:href="/type/Mu" xlink:title="Mu">
<ellipse fill="none" stroke="#000000" cx="119.841" cy="-378" rx="27" ry="18"/>
<text text-anchor="middle" x="119.841" y="-374.3" font-family="FreeSans" font-size="14.00" fill="#000000">Mu</text>
</a>
</g>
</g>
<!-- Any -->
<g id="node3" class="node"><title>Any</title>
<g id="a_node3"><a xlink:href="/type/Any" xlink:title="Any">
<ellipse fill="none" stroke="#000000" cx="119.841" cy="-306" rx="27" ry="18"/>
<text text-anchor="middle" x="119.841" y="-302.3" font-family="FreeSans" font-size="14.00" fill="#000000">Any</text>
</a>
</g>
</g>
<!-- Any&#45;&gt;Mu -->
<g id="edge3" class="edge"><title>Any&#45;&gt;Mu</title>
<path fill="none" stroke="#000000" d="M119.841,-324.303C119.841,-332.017 119.841,-341.288 119.841,-349.888"/>
<polygon fill="#000000" stroke="#000000" points="116.342,-349.896 119.841,-359.896 123.342,-349.896 116.342,-349.896"/>
</g>
<!-- Exception&#45;&gt;Any -->
<g id="edge4" class="edge"><title>Exception&#45;&gt;Any</title>
<path fill="none" stroke="#000000" d="M119.841,-252.303C119.841,-260.017 119.841,-269.288 119.841,-277.888"/>
<polygon fill="#000000" stroke="#000000" points="116.342,-277.896 119.841,-287.896 123.342,-277.896 116.342,-277.896"/>
</g>
<!-- X::Comp -->
<g id="node5" class="node"><title>X::Comp</title>
<g id="a_node5"><a xlink:href="/type/X::Comp" xlink:title="X::Comp">
<ellipse fill="none" stroke="#6666ff" cx="216.841" cy="-162" rx="44.6926" ry="18"/>
<text text-anchor="middle" x="216.841" y="-158.3" font-family="FreeSans" font-size="14.00" fill="#6666ff">X::Comp</text>
</a>
</g>
</g>
<!-- X::Comp&#45;&gt;Exception -->
<g id="edge5" class="edge"><title>X::Comp&#45;&gt;Exception</title>
<path fill="none" stroke="#000000" d="M195.794,-178.189C182.286,-187.937 164.542,-200.742 149.602,-211.523"/>
<polygon fill="#000000" stroke="#000000" points="147.244,-208.909 141.183,-217.599 151.34,-214.585 147.244,-208.909"/>
</g>
<!-- X::Syntax&#45;&gt;Exception -->
<g id="edge6" class="edge"><title>X::Syntax&#45;&gt;Exception</title>
<path fill="none" stroke="#000000" d="M174.486,-107.847C163.812,-132.294 143.93,-177.829 131.318,-206.714"/>
<polygon fill="#000000" stroke="#000000" points="127.981,-205.61 127.188,-216.175 134.397,-208.411 127.981,-205.61"/>
</g>
<!-- X::Syntax&#45;&gt;X::Comp -->
<g id="edge8" class="edge"><title>X::Syntax&#45;&gt;X::Comp</title>
<path fill="none" stroke="#6666ff" d="M190.314,-107.945C194.398,-116.113 199.386,-126.088 203.929,-135.176"/>
<polygon fill="#6666ff" stroke="#6666ff" points="200.844,-136.832 208.447,-144.211 207.105,-133.701 200.844,-136.832"/>
</g>
</g>
</svg>
