<?xml version="1.0" encoding="UTF-8" standalone="no"?>
<!DOCTYPE svg PUBLIC "-//W3C//DTD SVG 1.1//EN"
 "http://www.w3.org/Graphics/SVG/1.1/DTD/svg11.dtd">
<!-- Generated by graphviz version 2.38.0 (20140413.2041)
 -->
<!-- Title: perl6&#45;type&#45;graph Pages: 1 -->
<svg width="937pt" height="404pt"
 viewBox="0.00 0.00 936.90 404.00" xmlns="http://www.w3.org/2000/svg" xmlns:xlink="http://www.w3.org/1999/xlink">
<g id="graph0" class="graph" transform="scale(1 1) rotate(0) translate(4 400)">
<title>perl6&#45;type&#45;graph</title>
<polygon fill="white" stroke="none" points="-4,4 -4,-400 932.896,-400 932.896,4 -4,4"/>
<!-- Stringy -->
<g id="node1" class="node"><title>Stringy</title>
<g id="a_node1"><a xlink:href="/type/Stringy" xlink:title="Stringy">
<ellipse fill="none" stroke="#6666ff" cx="688.896" cy="-306" rx="38.1938" ry="18"/>
<text text-anchor="middle" x="688.896" y="-302.3" font-family="FreeSans" font-size="14.00" fill="#6666ff">Stringy</text>
</a>
</g>
</g>
<!-- Positional -->
<g id="node2" class="node"><title>Positional</title>
<g id="a_node2"><a xlink:href="/type/Positional" xlink:title="Positional">
<ellipse fill="none" stroke="#6666ff" cx="810.896" cy="-306" rx="48.9926" ry="18"/>
<text text-anchor="middle" x="810.896" y="-302.3" font-family="FreeSans" font-size="14.00" fill="#6666ff">Positional</text>
</a>
</g>
</g>
<!-- Blob -->
<g id="node3" class="node"><title>Blob</title>
<g id="a_node3"><a xlink:href="/type/Blob" xlink:title="Blob">
<ellipse fill="none" stroke="#6666ff" cx="819.896" cy="-234" rx="28.6953" ry="18"/>
<text text-anchor="middle" x="819.896" y="-230.3" font-family="FreeSans" font-size="14.00" fill="#6666ff">Blob</text>
</a>
</g>
</g>
<!-- Blob&#45;&gt;Stringy -->
<g id="edge23" class="edge"><title>Blob&#45;&gt;Stringy</title>
<path fill="none" stroke="#6666ff" d="M798.849,-246.247C778.198,-257.281 746.386,-274.28 722.283,-287.16"/>
<polygon fill="#6666ff" stroke="#6666ff" points="720.632,-284.073 713.462,-291.873 723.931,-290.247 720.632,-284.073"/>
</g>
<!-- Blob&#45;&gt;Positional -->
<g id="edge22" class="edge"><title>Blob&#45;&gt;Positional</title>
<path fill="none" stroke="#6666ff" d="M817.671,-252.303C816.68,-260.017 815.488,-269.288 814.382,-277.888"/>
<polygon fill="#6666ff" stroke="#6666ff" points="810.899,-277.531 813.095,-287.896 817.842,-278.424 810.899,-277.531"/>
</g>
<!-- Mu -->
<g id="node4" class="node"><title>Mu</title>
<g id="a_node4"><a xlink:href="/type/Mu" xlink:title="Mu">
<ellipse fill="none" stroke="#000000" cx="605.896" cy="-378" rx="27" ry="18"/>
<text text-anchor="middle" x="605.896" y="-374.3" font-family="FreeSans" font-size="14.00" fill="#000000">Mu</text>
</a>
</g>
</g>
<!-- Any -->
<g id="node5" class="node"><title>Any</title>
<g id="a_node5"><a xlink:href="/type/Any" xlink:title="Any">
<ellipse fill="none" stroke="#000000" cx="605.896" cy="-306" rx="27" ry="18"/>
<text text-anchor="middle" x="605.896" y="-302.3" font-family="FreeSans" font-size="14.00" fill="#000000">Any</text>
</a>
</g>
</g>
<!-- Any&#45;&gt;Mu -->
<g id="edge1" class="edge"><title>Any&#45;&gt;Mu</title>
<path fill="none" stroke="#000000" d="M605.896,-324.303C605.896,-332.017 605.896,-341.288 605.896,-349.888"/>
<polygon fill="#000000" stroke="#000000" points="602.396,-349.896 605.896,-359.896 609.396,-349.896 602.396,-349.896"/>
</g>
<!-- Uni -->
<g id="node6" class="node"><title>Uni</title>
<g id="a_node6"><a xlink:href="/type/Uni" xlink:title="Uni">
<ellipse fill="none" stroke="#000000" cx="679.896" cy="-234" rx="27" ry="18"/>
<text text-anchor="middle" x="679.896" y="-230.3" font-family="FreeSans" font-size="14.00" fill="#000000">Uni</text>
</a>
</g>
</g>
<!-- Uni&#45;&gt;Stringy -->
<g id="edge25" class="edge"><title>Uni&#45;&gt;Stringy</title>
<path fill="none" stroke="#6666ff" d="M682.075,-251.945C683.066,-259.654 684.264,-268.973 685.378,-277.636"/>
<polygon fill="#6666ff" stroke="#6666ff" points="681.928,-278.253 686.675,-287.725 688.871,-277.36 681.928,-278.253"/>
</g>
<!-- Uni&#45;&gt;Positional -->
<g id="edge24" class="edge"><title>Uni&#45;&gt;Positional</title>
<path fill="none" stroke="#6666ff" d="M700.365,-245.938C720.401,-256.644 751.332,-273.172 775.384,-286.024"/>
<polygon fill="#6666ff" stroke="#6666ff" points="773.759,-289.124 784.228,-290.75 777.058,-282.95 773.759,-289.124"/>
</g>
<!-- Uni&#45;&gt;Any -->
<g id="edge2" class="edge"><title>Uni&#45;&gt;Any</title>
<path fill="none" stroke="#000000" d="M664.921,-249.166C654.389,-259.128 640.115,-272.631 628.241,-283.863"/>
<polygon fill="#000000" stroke="#000000" points="625.708,-281.441 620.849,-290.856 630.519,-286.526 625.708,-281.441"/>
</g>
<!-- Cool -->
<g id="node7" class="node"><title>Cool</title>
<g id="a_node7"><a xlink:href="/type/Cool" xlink:title="Cool">
<ellipse fill="none" stroke="#000000" cx="257.896" cy="-234" rx="28.6953" ry="18"/>
<text text-anchor="middle" x="257.896" y="-230.3" font-family="FreeSans" font-size="14.00" fill="#000000">Cool</text>
</a>
</g>
</g>
<!-- Cool&#45;&gt;Any -->
<g id="edge3" class="edge"><title>Cool&#45;&gt;Any</title>
<path fill="none" stroke="#000000" d="M283.884,-242.013C301.238,-246.696 320.896,-252 320.896,-252 320.896,-252 493.343,-284.069 569.955,-298.316"/>
<polygon fill="#000000" stroke="#000000" points="569.63,-301.816 580.102,-300.203 570.91,-294.934 569.63,-301.816"/>
</g>
<!-- Str -->
<g id="node8" class="node"><title>Str</title>
<g id="a_node8"><a xlink:href="/type/Str" xlink:title="Str">
<ellipse fill="none" stroke="#000000" cx="318.896" cy="-162" rx="27" ry="18"/>
<text text-anchor="middle" x="318.896" y="-158.3" font-family="FreeSans" font-size="14.00" fill="#000000">Str</text>
</a>
</g>
</g>
<!-- Str&#45;&gt;Stringy -->
<g id="edge26" class="edge"><title>Str&#45;&gt;Stringy</title>
<path fill="none" stroke="#6666ff" d="M340.254,-173.085C348.006,-176.746 354.896,-180 354.896,-180 354.896,-180 562.287,-257.616 650.224,-290.527"/>
<polygon fill="#6666ff" stroke="#6666ff" points="649.248,-293.899 659.84,-294.126 651.701,-287.343 649.248,-293.899"/>
</g>
<!-- Str&#45;&gt;Cool -->
<g id="edge4" class="edge"><title>Str&#45;&gt;Cool</title>
<path fill="none" stroke="#000000" d="M305.96,-177.845C297.822,-187.184 287.154,-199.426 277.936,-210.003"/>
<polygon fill="#000000" stroke="#000000" points="275.167,-207.854 271.236,-217.692 280.444,-212.453 275.167,-207.854"/>
</g>
<!-- NFKD -->
<g id="node9" class="node"><title>NFKD</title>
<g id="a_node9"><a xlink:href="/type/NFKD" xlink:title="NFKD">
<ellipse fill="none" stroke="#000000" cx="596.896" cy="-162" rx="35.9954" ry="18"/>
<text text-anchor="middle" x="596.896" y="-158.3" font-family="FreeSans" font-size="14.00" fill="#000000">NFKD</text>
</a>
</g>
</g>
<!-- NFKD&#45;&gt;Uni -->
<g id="edge5" class="edge"><title>NFKD&#45;&gt;Uni</title>
<path fill="none" stroke="#000000" d="M614.498,-177.845C626.557,-188.015 642.699,-201.629 655.928,-212.786"/>
<polygon fill="#000000" stroke="#000000" points="653.826,-215.592 663.727,-219.363 658.339,-210.241 653.826,-215.592"/>
</g>
<!-- NFD -->
<g id="node10" class="node"><title>NFD</title>
<g id="a_node10"><a xlink:href="/type/NFD" xlink:title="NFD">
<ellipse fill="none" stroke="#000000" cx="679.896" cy="-162" rx="29.4969" ry="18"/>
<text text-anchor="middle" x="679.896" y="-158.3" font-family="FreeSans" font-size="14.00" fill="#000000">NFD</text>
</a>
</g>
</g>
<!-- NFD&#45;&gt;Uni -->
<g id="edge6" class="edge"><title>NFD&#45;&gt;Uni</title>
<path fill="none" stroke="#000000" d="M679.896,-180.303C679.896,-188.017 679.896,-197.288 679.896,-205.888"/>
<polygon fill="#000000" stroke="#000000" points="676.396,-205.896 679.896,-215.896 683.396,-205.896 676.396,-205.896"/>
</g>
<!-- NFC -->
<g id="node11" class="node"><title>NFC</title>
<g id="a_node11"><a xlink:href="/type/NFC" xlink:title="NFC">
<ellipse fill="none" stroke="#000000" cx="755.896" cy="-162" rx="29.4969" ry="18"/>
<text text-anchor="middle" x="755.896" y="-158.3" font-family="FreeSans" font-size="14.00" fill="#000000">NFC</text>
</a>
</g>
</g>
<!-- NFC&#45;&gt;Uni -->
<g id="edge7" class="edge"><title>NFC&#45;&gt;Uni</title>
<path fill="none" stroke="#000000" d="M740.149,-177.504C729.307,-187.49 714.732,-200.914 702.634,-212.058"/>
<polygon fill="#000000" stroke="#000000" points="700.089,-209.643 695.105,-218.992 704.831,-214.792 700.089,-209.643"/>
</g>
<!-- NFKC -->
<g id="node12" class="node"><title>NFKC</title>
<g id="a_node12"><a xlink:href="/type/NFKC" xlink:title="NFKC">
<ellipse fill="none" stroke="#000000" cx="507.896" cy="-162" rx="35.9954" ry="18"/>
<text text-anchor="middle" x="507.896" y="-158.3" font-family="FreeSans" font-size="14.00" fill="#000000">NFKC</text>
</a>
</g>
</g>
<!-- NFKC&#45;&gt;Uni -->
<g id="edge8" class="edge"><title>NFKC&#45;&gt;Uni</title>
<path fill="none" stroke="#000000" d="M534.771,-173.938C565.339,-186.378 615.223,-206.68 647.806,-219.94"/>
<polygon fill="#000000" stroke="#000000" points="646.74,-223.285 657.322,-223.813 649.379,-216.801 646.74,-223.285"/>
</g>
<!-- Numeric -->
<g id="node13" class="node"><title>Numeric</title>
<g id="a_node13"><a xlink:href="/type/Numeric" xlink:title="Numeric">
<ellipse fill="none" stroke="#6666ff" cx="276.896" cy="-306" rx="44.393" ry="18"/>
<text text-anchor="middle" x="276.896" y="-302.3" font-family="FreeSans" font-size="14.00" fill="#6666ff">Numeric</text>
</a>
</g>
</g>
<!-- Complex -->
<g id="node14" class="node"><title>Complex</title>
<g id="a_node14"><a xlink:href="/type/Complex" xlink:title="Complex">
<ellipse fill="none" stroke="#000000" cx="408.896" cy="-162" rx="45.4919" ry="18"/>
<text text-anchor="middle" x="408.896" y="-158.3" font-family="FreeSans" font-size="14.00" fill="#000000">Complex</text>
</a>
</g>
</g>
<!-- Complex&#45;&gt;Cool -->
<g id="edge9" class="edge"><title>Complex&#45;&gt;Cool</title>
<path fill="none" stroke="#000000" d="M380.494,-176.166C354.624,-188.159 316.471,-205.846 289.614,-218.297"/>
<polygon fill="#000000" stroke="#000000" points="287.874,-215.245 280.273,-222.627 290.818,-221.596 287.874,-215.245"/>
</g>
<!-- Complex&#45;&gt;Numeric -->
<g id="edge27" class="edge"><title>Complex&#45;&gt;Numeric</title>
<path fill="none" stroke="#6666ff" d="M394.011,-179.013C370.838,-203.942 326.004,-252.172 299.031,-281.188"/>
<polygon fill="#6666ff" stroke="#6666ff" points="296.175,-279.12 291.93,-288.827 301.302,-283.886 296.175,-279.12"/>
</g>
<!-- ComplexStr -->
<g id="node15" class="node"><title>ComplexStr</title>
<g id="a_node15"><a xlink:href="/type/ComplexStr" xlink:title="ComplexStr">
<ellipse fill="none" stroke="#000000" cx="405.896" cy="-90" rx="56.59" ry="18"/>
<text text-anchor="middle" x="405.896" y="-86.3" font-family="FreeSans" font-size="14.00" fill="#000000">ComplexStr</text>
</a>
</g>
</g>
<!-- ComplexStr&#45;&gt;Str -->
<g id="edge11" class="edge"><title>ComplexStr&#45;&gt;Str</title>
<path fill="none" stroke="#000000" d="M386.155,-106.884C373.533,-117.039 357.063,-130.291 343.58,-141.14"/>
<polygon fill="#000000" stroke="#000000" points="341.229,-138.539 335.632,-147.534 345.617,-143.992 341.229,-138.539"/>
</g>
<!-- ComplexStr&#45;&gt;Complex -->
<g id="edge10" class="edge"><title>ComplexStr&#45;&gt;Complex</title>
<path fill="none" stroke="#000000" d="M406.638,-108.303C406.968,-116.017 407.366,-125.288 407.734,-133.888"/>
<polygon fill="#000000" stroke="#000000" points="404.238,-134.055 408.163,-143.896 411.232,-133.755 404.238,-134.055"/>
</g>
<!-- Real -->
<g id="node16" class="node"><title>Real</title>
<g id="a_node16"><a xlink:href="/type/Real" xlink:title="Real">
<ellipse fill="none" stroke="#6666ff" cx="153.896" cy="-234" rx="28.6953" ry="18"/>
<text text-anchor="middle" x="153.896" y="-230.3" font-family="FreeSans" font-size="14.00" fill="#6666ff">Real</text>
</a>
</g>
</g>
<!-- Real&#45;&gt;Numeric -->
<g id="edge28" class="edge"><title>Real&#45;&gt;Numeric</title>
<path fill="none" stroke="#6666ff" d="M174.484,-246.716C193.237,-257.389 221.28,-273.348 243.281,-285.87"/>
<polygon fill="#6666ff" stroke="#6666ff" points="241.569,-288.922 251.991,-290.827 245.031,-282.838 241.569,-288.922"/>
</g>
<!-- Rational -->
<g id="node17" class="node"><title>Rational</title>
<g id="a_node17"><a xlink:href="/type/Rational" xlink:title="Rational">
<ellipse fill="none" stroke="#6666ff" cx="42.8962" cy="-162" rx="42.7926" ry="18"/>
<text text-anchor="middle" x="42.8962" y="-158.3" font-family="FreeSans" font-size="14.00" fill="#6666ff">Rational</text>
</a>
</g>
</g>
<!-- Rational&#45;&gt;Real -->
<g id="edge29" class="edge"><title>Rational&#45;&gt;Real</title>
<path fill="none" stroke="#6666ff" d="M65.6266,-177.334C82.9599,-188.265 106.937,-203.386 125.528,-215.11"/>
<polygon fill="#6666ff" stroke="#6666ff" points="123.843,-218.185 134.169,-220.559 127.577,-212.264 123.843,-218.185"/>
</g>
<!-- Rat -->
<g id="node18" class="node"><title>Rat</title>
<g id="a_node18"><a xlink:href="/type/Rat" xlink:title="Rat">
<ellipse fill="none" stroke="#000000" cx="81.8962" cy="-90" rx="27" ry="18"/>
<text text-anchor="middle" x="81.8962" y="-86.3" font-family="FreeSans" font-size="14.00" fill="#000000">Rat</text>
</a>
</g>
</g>
<!-- Rat&#45;&gt;Cool -->
<g id="edge12" class="edge"><title>Rat&#45;&gt;Cool</title>
<path fill="none" stroke="#000000" d="M101.642,-102.5C128.406,-118.088 172.896,-144 172.896,-144 172.896,-144 211.682,-184.612 236.854,-210.968"/>
<polygon fill="#000000" stroke="#000000" points="234.422,-213.489 243.86,-218.303 239.485,-208.654 234.422,-213.489"/>
</g>
<!-- Rat&#45;&gt;Rational -->
<g id="edge30" class="edge"><title>Rat&#45;&gt;Rational</title>
<path fill="none" stroke="#6666ff" d="M72.8508,-107.235C68.1929,-115.596 62.4051,-125.984 57.1624,-135.394"/>
<polygon fill="#6666ff" stroke="#6666ff" points="53.973,-133.927 52.1634,-144.367 60.0879,-137.334 53.973,-133.927"/>
</g>
<!-- RatStr -->
<g id="node19" class="node"><title>RatStr</title>
<g id="a_node19"><a xlink:href="/type/RatStr" xlink:title="RatStr">
<ellipse fill="none" stroke="#000000" cx="199.896" cy="-18" rx="35.9954" ry="18"/>
<text text-anchor="middle" x="199.896" y="-14.3" font-family="FreeSans" font-size="14.00" fill="#000000">RatStr</text>
</a>
</g>
</g>
<!-- RatStr&#45;&gt;Str -->
<g id="edge14" class="edge"><title>RatStr&#45;&gt;Str</title>
<path fill="none" stroke="#000000" d="M223.595,-31.5603C253.166,-47.2331 299.896,-72 299.896,-72 299.896,-72 307.546,-107.833 313.138,-134.025"/>
<polygon fill="#000000" stroke="#000000" points="309.722,-134.791 315.233,-143.84 316.568,-133.33 309.722,-134.791"/>
</g>
<!-- RatStr&#45;&gt;Rat -->
<g id="edge13" class="edge"><title>RatStr&#45;&gt;Rat</title>
<path fill="none" stroke="#000000" d="M177.701,-32.1665C158.626,-43.4821 131.006,-59.8672 110.317,-72.14"/>
<polygon fill="#000000" stroke="#000000" points="108.453,-69.1762 101.638,-77.2885 112.025,-75.1966 108.453,-69.1762"/>
</g>
<!-- Int -->
<g id="node20" class="node"><title>Int</title>
<g id="a_node20"><a xlink:href="/type/Int" xlink:title="Int">
<ellipse fill="none" stroke="#000000" cx="246.896" cy="-162" rx="27" ry="18"/>
<text text-anchor="middle" x="246.896" y="-158.3" font-family="FreeSans" font-size="14.00" fill="#000000">Int</text>
</a>
</g>
</g>
<!-- Int&#45;&gt;Cool -->
<g id="edge15" class="edge"><title>Int&#45;&gt;Cool</title>
<path fill="none" stroke="#000000" d="M249.559,-179.945C250.77,-187.654 252.235,-196.973 253.596,-205.636"/>
<polygon fill="#000000" stroke="#000000" points="250.171,-206.389 255.182,-215.725 257.087,-205.303 250.171,-206.389"/>
</g>
<!-- Int&#45;&gt;Real -->
<g id="edge31" class="edge"><title>Int&#45;&gt;Real</title>
<path fill="none" stroke="#6666ff" d="M229.404,-176.166C215.463,-186.659 195.732,-201.511 179.936,-213.4"/>
<polygon fill="#6666ff" stroke="#6666ff" points="177.511,-210.844 171.627,-219.655 181.721,-216.437 177.511,-210.844"/>
</g>
<!-- IntStr -->
<g id="node21" class="node"><title>IntStr</title>
<g id="a_node21"><a xlink:href="/type/IntStr" xlink:title="IntStr">
<ellipse fill="none" stroke="#000000" cx="258.896" cy="-90" rx="31.6951" ry="18"/>
<text text-anchor="middle" x="258.896" y="-86.3" font-family="FreeSans" font-size="14.00" fill="#000000">IntStr</text>
</a>
</g>
</g>
<!-- IntStr&#45;&gt;Str -->
<g id="edge17" class="edge"><title>IntStr&#45;&gt;Str</title>
<path fill="none" stroke="#000000" d="M272.212,-106.535C280.167,-115.816 290.416,-127.773 299.284,-138.119"/>
<polygon fill="#000000" stroke="#000000" points="296.864,-140.674 306.029,-145.989 302.179,-136.118 296.864,-140.674"/>
</g>
<!-- IntStr&#45;&gt;Int -->
<g id="edge16" class="edge"><title>IntStr&#45;&gt;Int</title>
<path fill="none" stroke="#000000" d="M255.991,-107.945C254.67,-115.654 253.072,-124.973 251.587,-133.636"/>
<polygon fill="#000000" stroke="#000000" points="248.098,-133.277 249.858,-143.725 254.997,-134.46 248.098,-133.277"/>
</g>
<!-- Num -->
<g id="node22" class="node"><title>Num</title>
<g id="a_node22"><a xlink:href="/type/Num" xlink:title="Num">
<ellipse fill="none" stroke="#000000" cx="133.896" cy="-162" rx="29.795" ry="18"/>
<text text-anchor="middle" x="133.896" y="-158.3" font-family="FreeSans" font-size="14.00" fill="#000000">Num</text>
</a>
</g>
</g>
<!-- Num&#45;&gt;Cool -->
<g id="edge18" class="edge"><title>Num&#45;&gt;Cool</title>
<path fill="none" stroke="#000000" d="M154.931,-174.875C175.093,-186.257 205.718,-203.544 228.33,-216.309"/>
<polygon fill="#000000" stroke="#000000" points="226.743,-219.433 237.172,-221.301 230.184,-213.337 226.743,-219.433"/>
</g>
<!-- Num&#45;&gt;Real -->
<g id="edge32" class="edge"><title>Num&#45;&gt;Real</title>
<path fill="none" stroke="#6666ff" d="M138.738,-179.945C140.998,-187.855 143.742,-197.46 146.271,-206.312"/>
<polygon fill="#6666ff" stroke="#6666ff" points="142.987,-207.557 149.099,-216.211 149.717,-205.634 142.987,-207.557"/>
</g>
<!-- NumStr -->
<g id="node23" class="node"><title>NumStr</title>
<g id="a_node23"><a xlink:href="/type/NumStr" xlink:title="NumStr">
<ellipse fill="none" stroke="#000000" cx="167.896" cy="-90" rx="40.8928" ry="18"/>
<text text-anchor="middle" x="167.896" y="-86.3" font-family="FreeSans" font-size="14.00" fill="#000000">NumStr</text>
</a>
</g>
</g>
<!-- NumStr&#45;&gt;Str -->
<g id="edge20" class="edge"><title>NumStr&#45;&gt;Str</title>
<path fill="none" stroke="#000000" d="M195.15,-103.56C229.157,-119.233 282.896,-144 282.896,-144 282.896,-144 285.076,-145.03 288.364,-146.582"/>
<polygon fill="#000000" stroke="#000000" points="287.002,-149.809 297.539,-150.915 289.991,-143.48 287.002,-149.809"/>
</g>
<!-- NumStr&#45;&gt;Num -->
<g id="edge19" class="edge"><title>NumStr&#45;&gt;Num</title>
<path fill="none" stroke="#000000" d="M159.666,-107.945C155.698,-116.113 150.853,-126.088 146.439,-135.176"/>
<polygon fill="#000000" stroke="#000000" points="143.272,-133.687 142.051,-144.211 149.568,-136.745 143.272,-133.687"/>
</g>
<!-- utf8 -->
<g id="node24" class="node"><title>utf8</title>
<g id="a_node24"><a xlink:href="/type/utf8" xlink:title="utf8">
<ellipse fill="none" stroke="#000000" cx="829.896" cy="-162" rx="27" ry="18"/>
<text text-anchor="middle" x="829.896" y="-158.3" font-family="FreeSans" font-size="14.00" fill="#000000">utf8</text>
</a>
</g>
</g>
<!-- utf8&#45;&gt;Blob -->
<g id="edge33" class="edge"><title>utf8&#45;&gt;Blob</title>
<path fill="none" stroke="#6666ff" d="M827.475,-179.945C826.374,-187.654 825.043,-196.973 823.805,-205.636"/>
<polygon fill="#6666ff" stroke="#6666ff" points="820.314,-205.33 822.364,-215.725 827.243,-206.32 820.314,-205.33"/>
</g>
<!-- utf8&#45;&gt;Any -->
<g id="edge21" class="edge"><title>utf8&#45;&gt;Any</title>
<path fill="none" stroke="#000000" d="M813.075,-176.132C781.364,-200.889 715.896,-252 715.896,-252 715.896,-252 668.822,-274.681 636.264,-290.368"/>
<polygon fill="#000000" stroke="#000000" points="634.595,-287.287 627.105,-294.781 637.633,-293.593 634.595,-287.287"/>
</g>
<!-- Buf -->
<g id="node25" class="node"><title>Buf</title>
<g id="a_node25"><a xlink:href="/type/Buf" xlink:title="Buf">
<ellipse fill="none" stroke="#6666ff" cx="901.896" cy="-162" rx="27" ry="18"/>
<text text-anchor="middle" x="901.896" y="-158.3" font-family="FreeSans" font-size="14.00" fill="#6666ff">Buf</text>
</a>
</g>
</g>
<!-- Buf&#45;&gt;Blob -->
<g id="edge34" class="edge"><title>Buf&#45;&gt;Blob</title>
<path fill="none" stroke="#6666ff" d="M885.696,-176.83C873.868,-186.926 857.63,-200.788 844.245,-212.215"/>
<polygon fill="#6666ff" stroke="#6666ff" points="841.677,-209.805 836.344,-218.959 846.222,-215.129 841.677,-209.805"/>
</g>
</g>
</svg>
