<?xml version="1.0" encoding="UTF-8" standalone="no"?>
<!DOCTYPE svg PUBLIC "-//W3C//DTD SVG 1.1//EN"
 "http://www.w3.org/Graphics/SVG/1.1/DTD/svg11.dtd">
<!-- Generated by graphviz version 2.38.0 (20140413.2041)
 -->
<!-- Title: perl6&#45;type&#45;graph Pages: 1 -->
<svg width="481pt" height="44pt"
 viewBox="0.00 0.00 480.56 44.00" xmlns="http://www.w3.org/2000/svg" xmlns:xlink="http://www.w3.org/1999/xlink">
<g id="graph0" class="graph" transform="scale(1 1) rotate(0) translate(282.955 22.7611)">
<title>perl6&#45;type&#45;graph</title>
<polygon fill="white" stroke="none" points="-282.955,21.2396 -282.955,-22.7611 197.602,-22.7611 197.602,21.2396 -282.955,21.2396"/>
<!-- X::Comp::Group -->
<g id="node1" class="node"><title>X::Comp::Group</title>
<g id="a_node1"><a xlink:href="/type/X::Comp::Group" xlink:title="X::Comp::Group">
<ellipse fill="none" stroke="#000000" cx="-204.861" cy="-0.760711" rx="74.187" ry="18"/>
<text text-anchor="middle" x="-204.861" y="2.93929" font-family="FreeSans" font-size="14.00" fill="#000000">X::Comp::Group</text>
</a>
</g>
</g>
<!-- Exception -->
<g id="node4" class="node"><title>Exception</title>
<g id="a_node4"><a xlink:href="/type/Exception" xlink:title="Exception">
<ellipse fill="none" stroke="#000000" cx="-68.236" cy="-0.760389" rx="49.2915" ry="18"/>
<text text-anchor="middle" x="-68.236" y="2.93961" font-family="FreeSans" font-size="14.00" fill="#000000">Exception</text>
</a>
</g>
</g>
<!-- X::Comp::Group&#45;&gt;Exception -->
<g id="edge1" class="edge"><title>X::Comp::Group&#45;&gt;Exception</title>
<path fill="none" stroke="#000000" d="M-130.552,-0.760536C-129.754,-0.760534 -128.957,-0.760532 -128.161,-0.76053"/>
<polygon fill="#000000" stroke="#000000" points="-127.944,-4.26063 -117.944,-0.760506 -127.944,2.73937 -127.944,-4.26063"/>
</g>
<!-- Mu -->
<g id="node2" class="node"><title>Mu</title>
<g id="a_node2"><a xlink:href="/type/Mu" xlink:title="Mu">
<ellipse fill="none" stroke="#000000" cx="166.602" cy="-0.760505" rx="27" ry="18"/>
<text text-anchor="middle" x="166.602" y="2.93949" font-family="FreeSans" font-size="14.00" fill="#000000">Mu</text>
</a>
</g>
</g>
<!-- Any -->
<g id="node3" class="node"><title>Any</title>
<g id="a_node3"><a xlink:href="/type/Any" xlink:title="Any">
<ellipse fill="none" stroke="#000000" cx="42.4805" cy="-0.761114" rx="27" ry="18"/>
<text text-anchor="middle" x="42.4805" y="2.93889" font-family="FreeSans" font-size="14.00" fill="#000000">Any</text>
</a>
</g>
</g>
<!-- Any&#45;&gt;Mu -->
<g id="edge2" class="edge"><title>Any&#45;&gt;Mu</title>
<path fill="none" stroke="#000000" d="M69.7196,-0.760981C87.181,-0.760895 110.08,-0.760783 129.231,-0.760689"/>
<polygon fill="#000000" stroke="#000000" points="129.427,-4.26079 139.427,-0.760639 129.427,2.73921 129.427,-4.26079"/>
</g>
<!-- Exception&#45;&gt;Any -->
<g id="edge3" class="edge"><title>Exception&#45;&gt;Any</title>
<path fill="none" stroke="#000000" d="M-18.7067,-0.760714C-10.6317,-0.760766 -2.38935,-0.76082 5.32269,-0.760871"/>
<polygon fill="#000000" stroke="#000000" points="5.44486,-4.26077 15.4449,-0.760937 5.44497,2.73923 5.44486,-4.26077"/>
</g>
</g>
</svg>
