<?xml version="1.0" encoding="UTF-8" standalone="no"?>
<!DOCTYPE svg PUBLIC "-//W3C//DTD SVG 1.1//EN"
 "http://www.w3.org/Graphics/SVG/1.1/DTD/svg11.dtd">
<!-- Generated by graphviz version 2.38.0 (20140413.2041)
 -->
<!-- Title: perl6&#45;type&#45;graph Pages: 1 -->
<svg width="1817pt" height="404pt"
 viewBox="0.00 0.00 1816.69 404.00" xmlns="http://www.w3.org/2000/svg" xmlns:xlink="http://www.w3.org/1999/xlink">
<g id="graph0" class="graph" transform="scale(1 1) rotate(0) translate(4 400)">
<title>perl6&#45;type&#45;graph</title>
<polygon fill="white" stroke="none" points="-4,4 -4,-400 1812.69,-400 1812.69,4 -4,4"/>
<!-- X::IO -->
<g id="node1" class="node"><title>X::IO</title>
<g id="a_node1"><a xlink:href="/type/X::IO" xlink:title="X::IO">
<ellipse fill="none" stroke="#6666ff" cx="850.594" cy="-90" rx="31.3957" ry="18"/>
<text text-anchor="middle" x="850.594" y="-86.3" font-family="FreeSans" font-size="14.00" fill="#6666ff">X::IO</text>
</a>
</g>
</g>
<!-- Exception -->
<g id="node4" class="node"><title>Exception</title>
<g id="a_node4"><a xlink:href="/type/Exception" xlink:title="Exception">
<ellipse fill="none" stroke="#000000" cx="894.594" cy="-234" rx="49.2915" ry="18"/>
<text text-anchor="middle" x="894.594" y="-230.3" font-family="FreeSans" font-size="14.00" fill="#000000">Exception</text>
</a>
</g>
</g>
<!-- X::IO&#45;&gt;Exception -->
<g id="edge1" class="edge"><title>X::IO&#45;&gt;Exception</title>
<path fill="none" stroke="#000000" d="M855.814,-107.847C863.316,-132.056 877.225,-176.946 886.187,-205.867"/>
<polygon fill="#000000" stroke="#000000" points="882.94,-207.216 889.243,-215.732 889.627,-205.144 882.94,-207.216"/>
</g>
<!-- X::OS -->
<g id="node5" class="node"><title>X::OS</title>
<g id="a_node5"><a xlink:href="/type/X::OS" xlink:title="X::OS">
<ellipse fill="none" stroke="#6666ff" cx="809.594" cy="-162" rx="34.394" ry="18"/>
<text text-anchor="middle" x="809.594" y="-158.3" font-family="FreeSans" font-size="14.00" fill="#6666ff">X::OS</text>
</a>
</g>
</g>
<!-- X::IO&#45;&gt;X::OS -->
<g id="edge31" class="edge"><title>X::IO&#45;&gt;X::OS</title>
<path fill="none" stroke="#6666ff" d="M841.085,-107.235C836.137,-115.683 829.976,-126.201 824.42,-135.688"/>
<polygon fill="#6666ff" stroke="#6666ff" points="821.37,-133.969 819.336,-144.367 827.411,-137.507 821.37,-133.969"/>
</g>
<!-- Mu -->
<g id="node2" class="node"><title>Mu</title>
<g id="a_node2"><a xlink:href="/type/Mu" xlink:title="Mu">
<ellipse fill="none" stroke="#000000" cx="894.594" cy="-378" rx="27" ry="18"/>
<text text-anchor="middle" x="894.594" y="-374.3" font-family="FreeSans" font-size="14.00" fill="#000000">Mu</text>
</a>
</g>
</g>
<!-- Any -->
<g id="node3" class="node"><title>Any</title>
<g id="a_node3"><a xlink:href="/type/Any" xlink:title="Any">
<ellipse fill="none" stroke="#000000" cx="894.594" cy="-306" rx="27" ry="18"/>
<text text-anchor="middle" x="894.594" y="-302.3" font-family="FreeSans" font-size="14.00" fill="#000000">Any</text>
</a>
</g>
</g>
<!-- Any&#45;&gt;Mu -->
<g id="edge2" class="edge"><title>Any&#45;&gt;Mu</title>
<path fill="none" stroke="#000000" d="M894.594,-324.303C894.594,-332.017 894.594,-341.288 894.594,-349.888"/>
<polygon fill="#000000" stroke="#000000" points="891.094,-349.896 894.594,-359.896 898.094,-349.896 891.094,-349.896"/>
</g>
<!-- Exception&#45;&gt;Any -->
<g id="edge3" class="edge"><title>Exception&#45;&gt;Any</title>
<path fill="none" stroke="#000000" d="M894.594,-252.303C894.594,-260.017 894.594,-269.288 894.594,-277.888"/>
<polygon fill="#000000" stroke="#000000" points="891.094,-277.896 894.594,-287.896 898.094,-277.896 891.094,-277.896"/>
</g>
<!-- X::OS&#45;&gt;Exception -->
<g id="edge4" class="edge"><title>X::OS&#45;&gt;Exception</title>
<path fill="none" stroke="#000000" d="M827.206,-177.504C838.884,-187.121 854.433,-199.926 867.652,-210.813"/>
<polygon fill="#000000" stroke="#000000" points="865.582,-213.642 875.527,-217.297 870.032,-208.239 865.582,-213.642"/>
</g>
<!-- X::IO::Symlink -->
<g id="node6" class="node"><title>X::IO::Symlink</title>
<g id="a_node6"><a xlink:href="/type/X::IO::Symlink" xlink:title="X::IO::Symlink">
<ellipse fill="none" stroke="#000000" cx="67.594" cy="-18" rx="67.6881" ry="18"/>
<text text-anchor="middle" x="67.594" y="-14.3" font-family="FreeSans" font-size="14.00" fill="#000000">X::IO::Symlink</text>
</a>
</g>
</g>
<!-- X::IO::Symlink&#45;&gt;X::IO -->
<g id="edge32" class="edge"><title>X::IO::Symlink&#45;&gt;X::IO</title>
<path fill="none" stroke="#6666ff" d="M118.095,-30.1496C132.609,-33.3539 144.594,-36 144.594,-36 144.594,-36 658.935,-74.612 809.597,-85.9223"/>
<polygon fill="#6666ff" stroke="#6666ff" points="809.57,-89.4301 819.804,-86.6886 810.094,-82.4497 809.57,-89.4301"/>
</g>
<!-- X::IO::Symlink&#45;&gt;Exception -->
<g id="edge5" class="edge"><title>X::IO::Symlink&#45;&gt;Exception</title>
<path fill="none" stroke="#000000" d="M102.736,-33.5716C204.707,-73.2032 492.594,-180 492.594,-180 492.594,-180 727.847,-211.726 838.492,-226.086"/>
<polygon fill="#000000" stroke="#000000" points="838.113,-229.566 848.479,-227.378 839.011,-222.624 838.113,-229.566"/>
</g>
<!-- X::IO::Symlink&#45;&gt;Exception -->
<g id="edge6" class="edge"><title>X::IO::Symlink&#45;&gt;Exception</title>
<path fill="none" stroke="#000000" d="M108.237,-32.588C217.854,-71.403 510.594,-180 510.594,-180 510.594,-180 733.459,-210.056 839.688,-224.9"/>
<polygon fill="#000000" stroke="#000000" points="839.204,-228.366 849.593,-226.288 840.175,-221.434 839.204,-228.366"/>
</g>
<!-- X::IO::Link -->
<g id="node7" class="node"><title>X::IO::Link</title>
<g id="a_node7"><a xlink:href="/type/X::IO::Link" xlink:title="X::IO::Link">
<ellipse fill="none" stroke="#000000" cx="206.594" cy="-18" rx="53.0913" ry="18"/>
<text text-anchor="middle" x="206.594" y="-14.3" font-family="FreeSans" font-size="14.00" fill="#000000">X::IO::Link</text>
</a>
</g>
</g>
<!-- X::IO::Link&#45;&gt;X::IO -->
<g id="edge33" class="edge"><title>X::IO::Link&#45;&gt;X::IO</title>
<path fill="none" stroke="#6666ff" d="M246.561,-29.9586C258.557,-33.248 268.594,-36 268.594,-36 268.594,-36 676.975,-73.1893 809.563,-85.2635"/>
<polygon fill="#6666ff" stroke="#6666ff" points="809.438,-88.7665 819.714,-86.1879 810.073,-81.7953 809.438,-88.7665"/>
</g>
<!-- X::IO::Link&#45;&gt;Exception -->
<g id="edge7" class="edge"><title>X::IO::Link&#45;&gt;Exception</title>
<path fill="none" stroke="#000000" d="M235.986,-33.1466C324.042,-72.4335 578.594,-180 578.594,-180 578.594,-180 749.296,-209.47 839.855,-224.459"/>
<polygon fill="#000000" stroke="#000000" points="839.517,-227.951 849.954,-226.126 840.657,-221.044 839.517,-227.951"/>
</g>
<!-- X::IO::Link&#45;&gt;Exception -->
<g id="edge8" class="edge"><title>X::IO::Link&#45;&gt;Exception</title>
<path fill="none" stroke="#000000" d="M241.054,-31.9032C336.539,-70.1078 596.594,-180 596.594,-180 596.594,-180 756.469,-207.601 842.092,-222.966"/>
<polygon fill="#000000" stroke="#000000" points="841.688,-226.45 852.15,-224.777 842.929,-219.561 841.688,-226.45"/>
</g>
<!-- X::IO::Cwd -->
<g id="node8" class="node"><title>X::IO::Cwd</title>
<g id="a_node8"><a xlink:href="/type/X::IO::Cwd" xlink:title="X::IO::Cwd">
<ellipse fill="none" stroke="#000000" cx="331.594" cy="-18" rx="53.8905" ry="18"/>
<text text-anchor="middle" x="331.594" y="-14.3" font-family="FreeSans" font-size="14.00" fill="#000000">X::IO::Cwd</text>
</a>
</g>
</g>
<!-- X::IO::Cwd&#45;&gt;X::IO -->
<g id="edge34" class="edge"><title>X::IO::Cwd&#45;&gt;X::IO</title>
<path fill="none" stroke="#6666ff" d="M372.205,-29.9586C384.396,-33.248 394.594,-36 394.594,-36 394.594,-36 698.549,-71.3282 810.14,-84.2981"/>
<polygon fill="#6666ff" stroke="#6666ff" points="809.984,-87.8035 820.321,-85.4815 810.792,-80.8503 809.984,-87.8035"/>
</g>
<!-- X::IO::Cwd&#45;&gt;Exception -->
<g id="edge9" class="edge"><title>X::IO::Cwd&#45;&gt;Exception</title>
<path fill="none" stroke="#000000" d="M357.968,-33.8579C435.082,-73.7148 653.594,-180 653.594,-180 653.594,-180 771.222,-206.872 842.213,-222.347"/>
<polygon fill="#000000" stroke="#000000" points="841.814,-225.842 852.329,-224.543 843.299,-219.002 841.814,-225.842"/>
</g>
<!-- X::IO::Cwd&#45;&gt;Exception -->
<g id="edge10" class="edge"><title>X::IO::Cwd&#45;&gt;Exception</title>
<path fill="none" stroke="#000000" d="M363.544,-32.588C448.329,-71.403 671.594,-180 671.594,-180 671.594,-180 780.322,-204.839 846.024,-220.508"/>
<polygon fill="#000000" stroke="#000000" points="845.241,-223.919 855.781,-222.844 846.871,-217.112 845.241,-223.919"/>
</g>
<!-- X::IO::Chmod -->
<g id="node9" class="node"><title>X::IO::Chmod</title>
<g id="a_node9"><a xlink:href="/type/X::IO::Chmod" xlink:title="X::IO::Chmod">
<ellipse fill="none" stroke="#000000" cx="467.594" cy="-18" rx="64.189" ry="18"/>
<text text-anchor="middle" x="467.594" y="-14.3" font-family="FreeSans" font-size="14.00" fill="#000000">X::IO::Chmod</text>
</a>
</g>
</g>
<!-- X::IO::Chmod&#45;&gt;X::IO -->
<g id="edge35" class="edge"><title>X::IO::Chmod&#45;&gt;X::IO</title>
<path fill="none" stroke="#6666ff" d="M515.472,-30.1496C529.231,-33.3539 540.594,-36 540.594,-36 540.594,-36 727.825,-68.0105 811.272,-82.2772"/>
<polygon fill="#6666ff" stroke="#6666ff" points="810.704,-85.7307 821.15,-83.9661 811.883,-78.8309 810.704,-85.7307"/>
</g>
<!-- X::IO::Chmod&#45;&gt;Exception -->
<g id="edge11" class="edge"><title>X::IO::Chmod&#45;&gt;Exception</title>
<path fill="none" stroke="#000000" d="M488.901,-35.3235C548.565,-76.2544 711.594,-180 711.594,-180 711.594,-180 791.257,-204.265 845.566,-219.958"/>
<polygon fill="#000000" stroke="#000000" points="844.809,-223.382 855.387,-222.781 846.743,-216.655 844.809,-223.382"/>
</g>
<!-- X::IO::Chmod&#45;&gt;Exception -->
<g id="edge12" class="edge"><title>X::IO::Chmod&#45;&gt;Exception</title>
<path fill="none" stroke="#000000" d="M496.095,-34.4374C564.177,-74.7344 729.594,-180 729.594,-180 729.594,-180 801.986,-202.05 850.967,-217.705"/>
<polygon fill="#000000" stroke="#000000" points="850.134,-221.114 860.725,-220.841 852.275,-214.45 850.134,-221.114"/>
</g>
<!-- X::IO::Copy -->
<g id="node10" class="node"><title>X::IO::Copy</title>
<g id="a_node10"><a xlink:href="/type/X::IO::Copy" xlink:title="X::IO::Copy">
<ellipse fill="none" stroke="#000000" cx="606.594" cy="-18" rx="56.59" ry="18"/>
<text text-anchor="middle" x="606.594" y="-14.3" font-family="FreeSans" font-size="14.00" fill="#000000">X::IO::Copy</text>
</a>
</g>
</g>
<!-- X::IO::Copy&#45;&gt;X::IO -->
<g id="edge36" class="edge"><title>X::IO::Copy&#45;&gt;X::IO</title>
<path fill="none" stroke="#6666ff" d="M647.16,-30.6377C693.522,-43.9383 768.76,-65.5229 813.582,-78.3817"/>
<polygon fill="#6666ff" stroke="#6666ff" points="812.626,-81.7488 823.204,-81.1422 814.557,-75.0202 812.626,-81.7488"/>
</g>
<!-- X::IO::Copy&#45;&gt;Exception -->
<g id="edge13" class="edge"><title>X::IO::Copy&#45;&gt;Exception</title>
<path fill="none" stroke="#000000" d="M617.951,-35.9255C651.875,-77.2617 747.594,-180 747.594,-180 747.594,-180 805.909,-202.396 849.195,-218.071"/>
<polygon fill="#000000" stroke="#000000" points="848.132,-221.408 858.727,-221.5 850.502,-214.822 848.132,-221.408"/>
</g>
<!-- X::IO::Copy&#45;&gt;Exception -->
<g id="edge14" class="edge"><title>X::IO::Copy&#45;&gt;Exception</title>
<path fill="none" stroke="#000000" d="M625.835,-35.0259C668.466,-75.749 765.594,-180 765.594,-180 765.594,-180 817.922,-200.097 856.031,-215.54"/>
<polygon fill="#000000" stroke="#000000" points="854.792,-218.815 865.373,-219.351 857.436,-212.333 854.792,-218.815"/>
</g>
<!-- X::IO::Chdir -->
<g id="node11" class="node"><title>X::IO::Chdir</title>
<g id="a_node11"><a xlink:href="/type/X::IO::Chdir" xlink:title="X::IO::Chdir">
<ellipse fill="none" stroke="#000000" cx="738.594" cy="-18" rx="57.3905" ry="18"/>
<text text-anchor="middle" x="738.594" y="-14.3" font-family="FreeSans" font-size="14.00" fill="#000000">X::IO::Chdir</text>
</a>
</g>
</g>
<!-- X::IO::Chdir&#45;&gt;X::IO -->
<g id="edge37" class="edge"><title>X::IO::Chdir&#45;&gt;X::IO</title>
<path fill="none" stroke="#6666ff" d="M763.173,-34.3618C780.281,-45.0545 803.174,-59.3628 821.242,-70.6549"/>
<polygon fill="#6666ff" stroke="#6666ff" points="819.859,-73.9179 830.194,-76.2499 823.569,-67.9819 819.859,-73.9179"/>
</g>
<!-- X::IO::Chdir&#45;&gt;Exception -->
<g id="edge15" class="edge"><title>X::IO::Chdir&#45;&gt;Exception</title>
<path fill="none" stroke="#000000" d="M737.145,-36.2298C739.814,-77.7634 757.594,-180 757.594,-180 757.594,-180 810.334,-201.838 850.488,-217.478"/>
<polygon fill="#000000" stroke="#000000" points="849.279,-220.763 859.868,-221.106 851.804,-214.234 849.279,-220.763"/>
</g>
<!-- X::IO::Chdir&#45;&gt;Exception -->
<g id="edge16" class="edge"><title>X::IO::Chdir&#45;&gt;Exception</title>
<path fill="none" stroke="#000000" d="M745.95,-35.9255C757.726,-77.2617 775.594,-180 775.594,-180 775.594,-180 822.478,-199.413 857.501,-214.741"/>
<polygon fill="#000000" stroke="#000000" points="856.454,-218.104 867.016,-218.936 859.278,-211.699 856.454,-218.104"/>
</g>
<!-- X::IO::Dir -->
<g id="node12" class="node"><title>X::IO::Dir</title>
<g id="a_node12"><a xlink:href="/type/X::IO::Dir" xlink:title="X::IO::Dir">
<ellipse fill="none" stroke="#000000" cx="861.594" cy="-18" rx="47.3916" ry="18"/>
<text text-anchor="middle" x="861.594" y="-14.3" font-family="FreeSans" font-size="14.00" fill="#000000">X::IO::Dir</text>
</a>
</g>
</g>
<!-- X::IO::Dir&#45;&gt;X::IO -->
<g id="edge38" class="edge"><title>X::IO::Dir&#45;&gt;X::IO</title>
<path fill="none" stroke="#6666ff" d="M858.875,-36.3034C857.663,-44.0173 856.206,-53.2875 854.855,-61.8876"/>
<polygon fill="#6666ff" stroke="#6666ff" points="851.377,-61.4735 853.282,-71.8957 858.292,-62.5603 851.377,-61.4735"/>
</g>
<!-- X::IO::Dir&#45;&gt;Exception -->
<g id="edge17" class="edge"><title>X::IO::Dir&#45;&gt;Exception</title>
<path fill="none" stroke="#000000" d="M864.086,-36.0613C870.407,-51.5549 881.594,-72 881.594,-72 881.594,-72 883.782,-160.054 888.562,-205.923"/>
<polygon fill="#000000" stroke="#000000" points="885.112,-206.554 889.761,-216.074 892.063,-205.733 885.112,-206.554"/>
</g>
<!-- X::IO::Dir&#45;&gt;Exception -->
<g id="edge18" class="edge"><title>X::IO::Dir&#45;&gt;Exception</title>
<path fill="none" stroke="#000000" d="M877.172,-35.1897C887.981,-50.7761 899.594,-72 899.594,-72 899.594,-72 901.771,-159.624 899.299,-205.586"/>
<polygon fill="#000000" stroke="#000000" points="895.793,-205.557 898.612,-215.77 902.777,-206.029 895.793,-205.557"/>
</g>
<!-- X::IO::Move -->
<g id="node13" class="node"><title>X::IO::Move</title>
<g id="a_node13"><a xlink:href="/type/X::IO::Move" xlink:title="X::IO::Move">
<ellipse fill="none" stroke="#000000" cx="984.594" cy="-18" rx="57.6901" ry="18"/>
<text text-anchor="middle" x="984.594" y="-14.3" font-family="FreeSans" font-size="14.00" fill="#000000">X::IO::Move</text>
</a>
</g>
</g>
<!-- X::IO::Move&#45;&gt;X::IO -->
<g id="edge39" class="edge"><title>X::IO::Move&#45;&gt;X::IO</title>
<path fill="none" stroke="#6666ff" d="M956.176,-33.8452C934.531,-45.1525 904.735,-60.7173 882.314,-72.4297"/>
<polygon fill="#6666ff" stroke="#6666ff" points="880.445,-69.4573 873.202,-77.1898 883.686,-75.6618 880.445,-69.4573"/>
</g>
<!-- X::IO::Move&#45;&gt;Exception -->
<g id="edge19" class="edge"><title>X::IO::Move&#45;&gt;Exception</title>
<path fill="none" stroke="#000000" d="M973.689,-35.7922C954.53,-72.814 916.881,-161.703 901.143,-206.396"/>
<polygon fill="#000000" stroke="#000000" points="897.787,-205.395 897.884,-215.99 904.415,-207.647 897.787,-205.395"/>
</g>
<!-- X::IO::Move&#45;&gt;Exception -->
<g id="edge20" class="edge"><title>X::IO::Move&#45;&gt;Exception</title>
<path fill="none" stroke="#000000" d="M981.259,-36.1508C969.064,-73.6661 931.647,-163.186 909.931,-207.398"/>
<polygon fill="#000000" stroke="#000000" points="906.79,-205.853 905.421,-216.359 913.043,-209 906.79,-205.853"/>
</g>
<!-- X::IO::Mkdir -->
<g id="node14" class="node"><title>X::IO::Mkdir</title>
<g id="a_node14"><a xlink:href="/type/X::IO::Mkdir" xlink:title="X::IO::Mkdir">
<ellipse fill="none" stroke="#000000" cx="1118.59" cy="-18" rx="58.4896" ry="18"/>
<text text-anchor="middle" x="1118.59" y="-14.3" font-family="FreeSans" font-size="14.00" fill="#000000">X::IO::Mkdir</text>
</a>
</g>
</g>
<!-- X::IO::Mkdir&#45;&gt;X::IO -->
<g id="edge40" class="edge"><title>X::IO::Mkdir&#45;&gt;X::IO</title>
<path fill="none" stroke="#6666ff" d="M1075.54,-30.2467C1023.73,-43.777 937.6,-66.2745 888.307,-79.1496"/>
<polygon fill="#6666ff" stroke="#6666ff" points="887.164,-75.8307 878.373,-81.7443 888.933,-82.6034 887.164,-75.8307"/>
</g>
<!-- X::IO::Mkdir&#45;&gt;Exception -->
<g id="edge21" class="edge"><title>X::IO::Mkdir&#45;&gt;Exception</title>
<path fill="none" stroke="#000000" d="M1097.98,-35.0848C1055.19,-72.4058 957.992,-165.05 915.207,-209.056"/>
<polygon fill="#000000" stroke="#000000" points="912.521,-206.8 908.113,-216.434 917.567,-211.652 912.521,-206.8"/>
</g>
<!-- X::IO::Mkdir&#45;&gt;Exception -->
<g id="edge22" class="edge"><title>X::IO::Mkdir&#45;&gt;Exception</title>
<path fill="none" stroke="#000000" d="M1104.86,-35.7922C1068.51,-74.0601 970.61,-167.745 922.198,-210.755"/>
<polygon fill="#000000" stroke="#000000" points="919.787,-208.214 914.592,-217.448 924.411,-213.469 919.787,-208.214"/>
</g>
<!-- X::IO::Rename -->
<g id="node15" class="node"><title>X::IO::Rename</title>
<g id="a_node15"><a xlink:href="/type/X::IO::Rename" xlink:title="X::IO::Rename">
<ellipse fill="none" stroke="#000000" cx="1264.59" cy="-18" rx="69.5877" ry="18"/>
<text text-anchor="middle" x="1264.59" y="-14.3" font-family="FreeSans" font-size="14.00" fill="#000000">X::IO::Rename</text>
</a>
</g>
</g>
<!-- X::IO::Rename&#45;&gt;X::IO -->
<g id="edge41" class="edge"><title>X::IO::Rename&#45;&gt;X::IO</title>
<path fill="none" stroke="#6666ff" d="M1212.78,-30.1496C1197.89,-33.3539 1185.59,-36 1185.59,-36 1185.59,-36 978.994,-68.6859 890.285,-82.7205"/>
<polygon fill="#6666ff" stroke="#6666ff" points="889.653,-79.2769 880.323,-84.2966 890.747,-86.1909 889.653,-79.2769"/>
</g>
<!-- X::IO::Rename&#45;&gt;Exception -->
<g id="edge23" class="edge"><title>X::IO::Rename&#45;&gt;Exception</title>
<path fill="none" stroke="#000000" d="M1234.54,-34.2916C1161.86,-74.4799 983.594,-180 983.594,-180 983.594,-180 951.017,-197.618 925.153,-212.538"/>
<polygon fill="#000000" stroke="#000000" points="923.226,-209.611 916.349,-217.67 926.751,-215.658 923.226,-209.611"/>
</g>
<!-- X::IO::Rename&#45;&gt;Exception -->
<g id="edge24" class="edge"><title>X::IO::Rename&#45;&gt;Exception</title>
<path fill="none" stroke="#000000" d="M1241.83,-35.0259C1177.72,-75.749 1001.59,-180 1001.59,-180 1001.59,-180 965.05,-199.764 934.544,-215.154"/>
<polygon fill="#000000" stroke="#000000" points="932.699,-212.163 925.317,-219.763 935.827,-218.425 932.699,-212.163"/>
</g>
<!-- X::IO::Rmdir -->
<g id="node16" class="node"><title>X::IO::Rmdir</title>
<g id="a_node16"><a xlink:href="/type/X::IO::Rmdir" xlink:title="X::IO::Rmdir">
<ellipse fill="none" stroke="#000000" cx="1411.59" cy="-18" rx="59.5901" ry="18"/>
<text text-anchor="middle" x="1411.59" y="-14.3" font-family="FreeSans" font-size="14.00" fill="#000000">X::IO::Rmdir</text>
</a>
</g>
</g>
<!-- X::IO::Rmdir&#45;&gt;X::IO -->
<g id="edge42" class="edge"><title>X::IO::Rmdir&#45;&gt;X::IO</title>
<path fill="none" stroke="#6666ff" d="M1367,-30.1496C1354.18,-33.3539 1343.59,-36 1343.59,-36 1343.59,-36 1009.05,-71.9657 891.131,-84.6421"/>
<polygon fill="#6666ff" stroke="#6666ff" points="890.63,-81.1757 881.061,-85.7246 891.378,-88.1356 890.63,-81.1757"/>
</g>
<!-- X::IO::Rmdir&#45;&gt;Exception -->
<g id="edge25" class="edge"><title>X::IO::Rmdir&#45;&gt;Exception</title>
<path fill="none" stroke="#000000" d="M1376.36,-32.7268C1282.88,-71.6611 1036.59,-180 1036.59,-180 1036.59,-180 977.242,-200.832 935.177,-216.375"/>
<polygon fill="#000000" stroke="#000000" points="933.851,-213.134 925.697,-219.899 936.29,-219.695 933.851,-213.134"/>
</g>
<!-- X::IO::Rmdir&#45;&gt;Exception -->
<g id="edge26" class="edge"><title>X::IO::Rmdir&#45;&gt;Exception</title>
<path fill="none" stroke="#000000" d="M1382.3,-33.7145C1296.79,-73.4592 1054.59,-180 1054.59,-180 1054.59,-180 988.802,-203.092 941.486,-218.792"/>
<polygon fill="#000000" stroke="#000000" points="940.101,-215.563 931.7,-222.018 942.293,-222.211 940.101,-215.563"/>
</g>
<!-- X::IO::DoesNotExist -->
<g id="node17" class="node"><title>X::IO::DoesNotExist</title>
<g id="a_node17"><a xlink:href="/type/X::IO::DoesNotExist" xlink:title="X::IO::DoesNotExist">
<ellipse fill="none" stroke="#000000" cx="1578.59" cy="-18" rx="89.8845" ry="18"/>
<text text-anchor="middle" x="1578.59" y="-14.3" font-family="FreeSans" font-size="14.00" fill="#000000">X::IO::DoesNotExist</text>
</a>
</g>
</g>
<!-- X::IO::DoesNotExist&#45;&gt;X::IO -->
<g id="edge43" class="edge"><title>X::IO::DoesNotExist&#45;&gt;X::IO</title>
<path fill="none" stroke="#6666ff" d="M1513.23,-30.3392C1495.25,-33.4576 1480.59,-36 1480.59,-36 1480.59,-36 1031.59,-73.7733 891.697,-85.5421"/>
<polygon fill="#6666ff" stroke="#6666ff" points="891.078,-82.0817 881.407,-86.4078 891.665,-89.0571 891.078,-82.0817"/>
</g>
<!-- X::IO::DoesNotExist&#45;&gt;Exception -->
<g id="edge27" class="edge"><title>X::IO::DoesNotExist&#45;&gt;Exception</title>
<path fill="none" stroke="#000000" d="M1532.35,-33.4294C1412.11,-72.947 1099.59,-180 1099.59,-180 1099.59,-180 1002.54,-204.037 941.9,-219.736"/>
<polygon fill="#000000" stroke="#000000" points="940.932,-216.371 932.134,-222.275 942.693,-223.146 940.932,-216.371"/>
</g>
<!-- X::IO::DoesNotExist&#45;&gt;Exception -->
<g id="edge28" class="edge"><title>X::IO::DoesNotExist&#45;&gt;Exception</title>
<path fill="none" stroke="#000000" d="M1538.58,-34.1465C1426.38,-74.2252 1117.59,-180 1117.59,-180 1117.59,-180 1011.78,-206.205 945.839,-221.762"/>
<polygon fill="#000000" stroke="#000000" points="944.953,-218.375 936.018,-224.069 946.554,-225.19 944.953,-218.375"/>
</g>
<!-- X::IO::Unlink -->
<g id="node18" class="node"><title>X::IO::Unlink</title>
<g id="a_node18"><a xlink:href="/type/X::IO::Unlink" xlink:title="X::IO::Unlink">
<ellipse fill="none" stroke="#000000" cx="1747.59" cy="-18" rx="61.1893" ry="18"/>
<text text-anchor="middle" x="1747.59" y="-14.3" font-family="FreeSans" font-size="14.00" fill="#000000">X::IO::Unlink</text>
</a>
</g>
</g>
<!-- X::IO::Unlink&#45;&gt;X::IO -->
<g id="edge44" class="edge"><title>X::IO::Unlink&#45;&gt;X::IO</title>
<path fill="none" stroke="#6666ff" d="M1702.08,-30.0542C1688.71,-33.3012 1677.59,-36 1677.59,-36 1677.59,-36 1059.1,-75.6377 891.856,-86.3556"/>
<polygon fill="#6666ff" stroke="#6666ff" points="891.26,-82.8866 881.504,-87.0191 891.707,-89.8723 891.26,-82.8866"/>
</g>
<!-- X::IO::Unlink&#45;&gt;Exception -->
<g id="edge29" class="edge"><title>X::IO::Unlink&#45;&gt;Exception</title>
<path fill="none" stroke="#000000" d="M1703.22,-30.5787C1568.41,-67.4946 1173.59,-180 1173.59,-180 1173.59,-180 1027.31,-206.92 946.514,-222.389"/>
<polygon fill="#000000" stroke="#000000" points="945.683,-218.984 936.523,-224.307 947.004,-225.858 945.683,-218.984"/>
</g>
<!-- X::IO::Unlink&#45;&gt;Exception -->
<g id="edge30" class="edge"><title>X::IO::Unlink&#45;&gt;Exception</title>
<path fill="none" stroke="#000000" d="M1707.15,-31.6334C1579.07,-69.5876 1191.59,-180 1191.59,-180 1191.59,-180 1034.51,-208.908 948.74,-224.025"/>
<polygon fill="#000000" stroke="#000000" points="947.893,-220.62 938.649,-225.797 949.104,-227.514 947.893,-220.62"/>
</g>
</g>
</svg>
