<?xml version="1.0" encoding="UTF-8" standalone="no"?>
<!DOCTYPE svg PUBLIC "-//W3C//DTD SVG 1.1//EN"
 "http://www.w3.org/Graphics/SVG/1.1/DTD/svg11.dtd">
<!-- Generated by graphviz version 2.38.0 (20140413.2041)
 -->
<!-- Title: perl6&#45;type&#45;graph Pages: 1 -->
<svg width="2225pt" height="1090pt"
 viewBox="0.00 0.00 2225.44 1089.86" xmlns="http://www.w3.org/2000/svg" xmlns:xlink="http://www.w3.org/1999/xlink">
<g id="graph0" class="graph" transform="scale(1 1) rotate(0) translate(1161.17 542.193)">
<title>perl6&#45;type&#45;graph</title>
<polygon fill="white" stroke="none" points="-1161.17,547.663 -1161.17,-542.193 1064.28,-542.193 1064.28,547.663 -1161.17,547.663"/>
<!-- Metamodel::Documenting -->
<g id="node1" class="node"><title>Metamodel::Documenting</title>
<g id="a_node1"><a xlink:href="/type/Metamodel::Documenting" xlink:title="Metamodel::Documenting">
<ellipse fill="none" stroke="#6666ff" cx="-242.391" cy="222.294" rx="111.28" ry="18"/>
<text text-anchor="middle" x="-242.391" y="225.994" font-family="FreeSans" font-size="14.00" fill="#6666ff">Metamodel::Documenting</text>
</a>
</g>
</g>
<!-- Mu -->
<g id="node2" class="node"><title>Mu</title>
<g id="a_node2"><a xlink:href="/type/Mu" xlink:title="Mu">
<ellipse fill="none" stroke="#000000" cx="-348.936" cy="493.482" rx="27" ry="18"/>
<text text-anchor="middle" x="-348.936" y="497.182" font-family="FreeSans" font-size="14.00" fill="#000000">Mu</text>
</a>
</g>
</g>
<!-- Any -->
<g id="node3" class="node"><title>Any</title>
<g id="a_node3"><a xlink:href="/type/Any" xlink:title="Any">
<ellipse fill="none" stroke="#000000" cx="-627.462" cy="178.111" rx="27" ry="18"/>
<text text-anchor="middle" x="-627.462" y="181.811" font-family="FreeSans" font-size="14.00" fill="#000000">Any</text>
</a>
</g>
</g>
<!-- Any&#45;&gt;Mu -->
<g id="edge1" class="edge"><title>Any&#45;&gt;Mu</title>
<path fill="none" stroke="#000000" d="M-613.65,193.751C-568.268,245.136 -423.571,408.974 -369.543,470.149"/>
<polygon fill="#000000" stroke="#000000" points="-366.828,467.936 -362.832,477.748 -372.075,472.57 -366.828,467.936"/>
</g>
<!-- Metamodel::Naming -->
<g id="node4" class="node"><title>Metamodel::Naming</title>
<g id="a_node4"><a xlink:href="/type/Metamodel::Naming" xlink:title="Metamodel::Naming">
<ellipse fill="none" stroke="#6666ff" cx="-371.942" cy="22.0276" rx="90.1842" ry="18"/>
<text text-anchor="middle" x="-371.942" y="25.7276" font-family="FreeSans" font-size="14.00" fill="#6666ff">Metamodel::Naming</text>
</a>
</g>
</g>
<!-- Metamodel::Versioning -->
<g id="node5" class="node"><title>Metamodel::Versioning</title>
<g id="a_node5"><a xlink:href="/type/Metamodel::Versioning" xlink:title="Metamodel::Versioning">
<ellipse fill="none" stroke="#6666ff" cx="-56.5196" cy="-10.9652" rx="100.983" ry="18"/>
<text text-anchor="middle" x="-56.5196" y="-7.26521" font-family="FreeSans" font-size="14.00" fill="#6666ff">Metamodel::Versioning</text>
</a>
</g>
</g>
<!-- Metamodel::Stashing -->
<g id="node6" class="node"><title>Metamodel::Stashing</title>
<g id="a_node6"><a xlink:href="/type/Metamodel::Stashing" xlink:title="Metamodel::Stashing">
<ellipse fill="none" stroke="#6666ff" cx="-291.199" cy="-207.992" rx="93.6835" ry="18"/>
<text text-anchor="middle" x="-291.199" y="-204.292" font-family="FreeSans" font-size="14.00" fill="#6666ff">Metamodel::Stashing</text>
</a>
</g>
</g>
<!-- Metamodel::MultipleInheritance -->
<g id="node7" class="node"><title>Metamodel::MultipleInheritance</title>
<g id="a_node7"><a xlink:href="/type/Metamodel::MultipleInheritance" xlink:title="Metamodel::MultipleInheritance">
<ellipse fill="none" stroke="#6666ff" cx="28.2589" cy="228.526" rx="133.776" ry="18"/>
<text text-anchor="middle" x="28.2589" y="232.226" font-family="FreeSans" font-size="14.00" fill="#6666ff">Metamodel::MultipleInheritance</text>
</a>
</g>
</g>
<!-- Metamodel::C3MRO -->
<g id="node8" class="node"><title>Metamodel::C3MRO</title>
<g id="a_node8"><a xlink:href="/type/Metamodel::C3MRO" xlink:title="Metamodel::C3MRO">
<ellipse fill="none" stroke="#6666ff" cx="567.243" cy="148.817" rx="92.0841" ry="18"/>
<text text-anchor="middle" x="567.243" y="152.517" font-family="FreeSans" font-size="14.00" fill="#6666ff">Metamodel::C3MRO</text>
</a>
</g>
</g>
<!-- Metamodel::MROBasedMethodDispatch -->
<g id="node9" class="node"><title>Metamodel::MROBasedMethodDispatch</title>
<g id="a_node9"><a xlink:href="/type/Metamodel::MROBasedMethodDispatch" xlink:title="Metamodel::MROBasedMethodDispatch">
<ellipse fill="none" stroke="#6666ff" cx="508.87" cy="500.374" rx="169.77" ry="18"/>
<text text-anchor="middle" x="508.87" y="504.074" font-family="FreeSans" font-size="14.00" fill="#6666ff">Metamodel::MROBasedMethodDispatch</text>
</a>
</g>
</g>
<!-- Metamodel::MROBasedTypeChecking -->
<g id="node10" class="node"><title>Metamodel::MROBasedTypeChecking</title>
<g id="a_node10"><a xlink:href="/type/Metamodel::MROBasedTypeChecking" xlink:title="Metamodel::MROBasedTypeChecking">
<ellipse fill="none" stroke="#6666ff" cx="290.484" cy="252.498" rx="163.271" ry="18"/>
<text text-anchor="middle" x="290.484" y="256.198" font-family="FreeSans" font-size="14.00" fill="#6666ff">Metamodel::MROBasedTypeChecking</text>
</a>
</g>
</g>
<!-- Metamodel::NativeHOW -->
<g id="node11" class="node"><title>Metamodel::NativeHOW</title>
<g id="a_node11"><a xlink:href="/type/Metamodel::NativeHOW" xlink:title="Metamodel::NativeHOW">
<ellipse fill="none" stroke="#000000" cx="-83.4192" cy="514.978" rx="107.482" ry="18"/>
<text text-anchor="middle" x="-83.4192" y="518.678" font-family="FreeSans" font-size="14.00" fill="#000000">Metamodel::NativeHOW</text>
</a>
</g>
</g>
<!-- Metamodel::NativeHOW&#45;&gt;Metamodel::Documenting -->
<g id="edge9" class="edge"><title>Metamodel::NativeHOW&#45;&gt;Metamodel::Documenting</title>
<path fill="none" stroke="#6666ff" d="M-93.3636,496.669C-120.407,446.879 -195.407,308.797 -227.504,249.702"/>
<polygon fill="#6666ff" stroke="#6666ff" points="-230.753,251.053 -232.45,240.595 -224.602,247.712 -230.753,251.053"/>
</g>
<!-- Metamodel::NativeHOW&#45;&gt;Any -->
<g id="edge2" class="edge"><title>Metamodel::NativeHOW&#45;&gt;Any</title>
<path fill="none" stroke="#000000" d="M-111.524,497.576C-204.914,439.75 -504.297,254.374 -598.678,195.934"/>
<polygon fill="#000000" stroke="#000000" points="-600.75,198.768 -607.41,190.527 -597.065,192.816 -600.75,198.768"/>
</g>
<!-- Metamodel::NativeHOW&#45;&gt;Metamodel::Naming -->
<g id="edge8" class="edge"><title>Metamodel::NativeHOW&#45;&gt;Metamodel::Naming</title>
<path fill="none" stroke="#6666ff" d="M-100.007,497.116C-158.999,433.593 -355.129,222.399 -355.129,222.399 -355.129,222.399 -364.931,105.581 -369.567,50.3375"/>
<polygon fill="#6666ff" stroke="#6666ff" points="-373.072,50.4203 -370.421,40.1627 -366.097,49.835 -373.072,50.4203"/>
</g>
<!-- Metamodel::NativeHOW&#45;&gt;Metamodel::Versioning -->
<g id="edge10" class="edge"><title>Metamodel::NativeHOW&#45;&gt;Metamodel::Versioning</title>
<path fill="none" stroke="#6666ff" d="M-84.9448,496.627C-90.1998,433.416 -107.229,228.581 -107.229,228.581 -107.229,228.581 -75.8586,80.391 -62.4654,17.1224"/>
<polygon fill="#6666ff" stroke="#6666ff" points="-65.8262,16.098 -60.3311,7.03971 -58.978,17.5478 -65.8262,16.098"/>
</g>
<!-- Metamodel::NativeHOW&#45;&gt;Metamodel::Stashing -->
<g id="edge11" class="edge"><title>Metamodel::NativeHOW&#45;&gt;Metamodel::Stashing</title>
<path fill="none" stroke="#6666ff" d="M-86.3113,496.663C-96.4328,432.564 -129.652,222.188 -129.652,222.188 -129.652,222.188 -245.05,-85.1023 -280.782,-180.251"/>
<polygon fill="#6666ff" stroke="#6666ff" points="-284.122,-179.19 -284.361,-189.782 -277.569,-181.651 -284.122,-179.19"/>
</g>
<!-- Metamodel::NativeHOW&#45;&gt;Metamodel::MultipleInheritance -->
<g id="edge12" class="edge"><title>Metamodel::NativeHOW&#45;&gt;Metamodel::MultipleInheritance</title>
<path fill="none" stroke="#6666ff" d="M-76.2634,496.623C-57.2345,447.815 -5.29177,314.583 17.4043,256.368"/>
<polygon fill="#6666ff" stroke="#6666ff" points="14.2692,254.774 21.1626,246.728 20.7911,257.316 14.2692,254.774"/>
</g>
<!-- Metamodel::NativeHOW&#45;&gt;Metamodel::C3MRO -->
<g id="edge13" class="edge"><title>Metamodel::NativeHOW&#45;&gt;Metamodel::C3MRO</title>
<path fill="none" stroke="#6666ff" d="M-48.4929,497.95C70.8657,439.756 455.216,252.366 455.216,252.366 455.216,252.366 507.273,204.248 540.415,173.614"/>
<polygon fill="#6666ff" stroke="#6666ff" points="538.265,170.835 547.985,166.618 543.017,175.976 538.265,170.835"/>
</g>
<!-- Metamodel::NativeHOW&#45;&gt;Metamodel::MROBasedMethodDispatch -->
<g id="edge14" class="edge"><title>Metamodel::NativeHOW&#45;&gt;Metamodel::MROBasedMethodDispatch</title>
<path fill="none" stroke="#6666ff" d="M21.9969,511.532C98.7225,509.023 189.237,506.064 189.237,506.064 189.237,506.064 257.643,504.846 331.163,503.537"/>
<polygon fill="#6666ff" stroke="#6666ff" points="331.504,500.031 341.565,503.352 331.628,507.03 331.504,500.031"/>
</g>
<!-- Metamodel::NativeHOW&#45;&gt;Metamodel::MROBasedTypeChecking -->
<g id="edge15" class="edge"><title>Metamodel::NativeHOW&#45;&gt;Metamodel::MROBasedTypeChecking</title>
<path fill="none" stroke="#6666ff" d="M-58.3058,497.348C6.99099,451.51 182.168,328.536 256.444,276.394"/>
<polygon fill="#6666ff" stroke="#6666ff" points="254.792,273.277 264.987,270.396 258.814,279.007 254.792,273.277"/>
</g>
<!-- Metamodel::MethodContainer -->
<g id="node12" class="node"><title>Metamodel::MethodContainer</title>
<g id="a_node12"><a xlink:href="/type/Metamodel::MethodContainer" xlink:title="Metamodel::MethodContainer">
<ellipse fill="none" stroke="#6666ff" cx="-20.8795" cy="-249.927" rx="127.277" ry="18"/>
<text text-anchor="middle" x="-20.8795" y="-246.227" font-family="FreeSans" font-size="14.00" fill="#6666ff">Metamodel::MethodContainer</text>
</a>
</g>
</g>
<!-- Metamodel::PrivateMethodContainer -->
<g id="node13" class="node"><title>Metamodel::PrivateMethodContainer</title>
<g id="a_node13"><a xlink:href="/type/Metamodel::PrivateMethodContainer" xlink:title="Metamodel::PrivateMethodContainer">
<ellipse fill="none" stroke="#6666ff" cx="528.282" cy="-157.263" rx="154.873" ry="18"/>
<text text-anchor="middle" x="528.282" y="-153.563" font-family="FreeSans" font-size="14.00" fill="#6666ff">Metamodel::PrivateMethodContainer</text>
</a>
</g>
</g>
<!-- Metamodel::MultiMethodContainer -->
<g id="node14" class="node"><title>Metamodel::MultiMethodContainer</title>
<g id="a_node14"><a xlink:href="/type/Metamodel::MultiMethodContainer" xlink:title="Metamodel::MultiMethodContainer">
<ellipse fill="none" stroke="#6666ff" cx="195.882" cy="-515.573" rx="146.474" ry="18"/>
<text text-anchor="middle" x="195.882" y="-511.873" font-family="FreeSans" font-size="14.00" fill="#6666ff">Metamodel::MultiMethodContainer</text>
</a>
</g>
</g>
<!-- Metamodel::AttributeContainer -->
<g id="node15" class="node"><title>Metamodel::AttributeContainer</title>
<g id="a_node15"><a xlink:href="/type/Metamodel::AttributeContainer" xlink:title="Metamodel::AttributeContainer">
<ellipse fill="none" stroke="#6666ff" cx="-85.5521" cy="-520.193" rx="129.977" ry="18"/>
<text text-anchor="middle" x="-85.5521" y="-516.493" font-family="FreeSans" font-size="14.00" fill="#6666ff">Metamodel::AttributeContainer</text>
</a>
</g>
</g>
<!-- Metamodel::RoleContainer -->
<g id="node16" class="node"><title>Metamodel::RoleContainer</title>
<g id="a_node16"><a xlink:href="/type/Metamodel::RoleContainer" xlink:title="Metamodel::RoleContainer">
<ellipse fill="none" stroke="#6666ff" cx="238.851" cy="-231.538" rx="115.88" ry="18"/>
<text text-anchor="middle" x="238.851" y="-227.838" font-family="FreeSans" font-size="14.00" fill="#6666ff">Metamodel::RoleContainer</text>
</a>
</g>
</g>
<!-- Metamodel::TypePretense -->
<g id="node17" class="node"><title>Metamodel::TypePretense</title>
<g id="a_node17"><a xlink:href="/type/Metamodel::TypePretense" xlink:title="Metamodel::TypePretense">
<ellipse fill="none" stroke="#6666ff" cx="-1027.25" cy="-431.428" rx="114.28" ry="18"/>
<text text-anchor="middle" x="-1027.25" y="-427.728" font-family="FreeSans" font-size="14.00" fill="#6666ff">Metamodel::TypePretense</text>
</a>
</g>
</g>
<!-- Metamodel::RolePunning -->
<g id="node18" class="node"><title>Metamodel::RolePunning</title>
<g id="a_node18"><a xlink:href="/type/Metamodel::RolePunning" xlink:title="Metamodel::RolePunning">
<ellipse fill="none" stroke="#6666ff" cx="-641.078" cy="-496.582" rx="109.681" ry="18"/>
<text text-anchor="middle" x="-641.078" y="-492.882" font-family="FreeSans" font-size="14.00" fill="#6666ff">Metamodel::RolePunning</text>
</a>
</g>
</g>
<!-- Metamodel::ParametricRoleHOW -->
<g id="node19" class="node"><title>Metamodel::ParametricRoleHOW</title>
<g id="a_node19"><a xlink:href="/type/Metamodel::ParametricRoleHOW" xlink:title="Metamodel::ParametricRoleHOW">
<ellipse fill="none" stroke="#000000" cx="-350.166" cy="-491.294" rx="142.175" ry="18"/>
<text text-anchor="middle" x="-350.166" y="-487.594" font-family="FreeSans" font-size="14.00" fill="#000000">Metamodel::ParametricRoleHOW</text>
</a>
</g>
</g>
<!-- Metamodel::ParametricRoleHOW&#45;&gt;Metamodel::Documenting -->
<g id="edge17" class="edge"><title>Metamodel::ParametricRoleHOW&#45;&gt;Metamodel::Documenting</title>
<path fill="none" stroke="#6666ff" d="M-352.487,-473.14C-360.482,-410.609 -386.391,-207.974 -386.391,-207.974 -386.391,-207.974 -280.001,21.9277 -280.001,21.9277 -280.001,21.9277 -257.983,139.23 -247.64,194.329"/>
<polygon fill="#6666ff" stroke="#6666ff" points="-244.2,193.685 -245.795,204.159 -251.08,194.976 -244.2,193.685"/>
</g>
<!-- Metamodel::ParametricRoleHOW&#45;&gt;Any -->
<g id="edge3" class="edge"><title>Metamodel::ParametricRoleHOW&#45;&gt;Any</title>
<path fill="none" stroke="#000000" d="M-357.727,-473.042C-396.194,-380.18 -570.153,39.764 -616.232,151.003"/>
<polygon fill="#000000" stroke="#000000" points="-613.105,152.6 -620.166,160.499 -619.573,149.921 -613.105,152.6"/>
</g>
<!-- Metamodel::ParametricRoleHOW&#45;&gt;Metamodel::Naming -->
<g id="edge16" class="edge"><title>Metamodel::ParametricRoleHOW&#45;&gt;Metamodel::Naming</title>
<path fill="none" stroke="#6666ff" d="M-352.487,-473.14C-360.482,-410.609 -386.391,-207.974 -386.391,-207.974 -386.391,-207.974 -377.573,-67.6032 -373.714,-6.18234"/>
<polygon fill="#6666ff" stroke="#6666ff" points="-370.21,-6.22006 -373.076,3.97974 -377.196,-5.78112 -370.21,-6.22006"/>
</g>
<!-- Metamodel::ParametricRoleHOW&#45;&gt;Metamodel::Versioning -->
<g id="edge18" class="edge"><title>Metamodel::ParametricRoleHOW&#45;&gt;Metamodel::Versioning</title>
<path fill="none" stroke="#6666ff" d="M-339.19,-473.341C-294.537,-400.3 -126.356,-125.2 -72.9225,-37.796"/>
<polygon fill="#6666ff" stroke="#6666ff" points="-69.7799,-39.3657 -67.5501,-29.0082 -75.7523,-35.7145 -69.7799,-39.3657"/>
</g>
<!-- Metamodel::ParametricRoleHOW&#45;&gt;Metamodel::Stashing -->
<g id="edge25" class="edge"><title>Metamodel::ParametricRoleHOW&#45;&gt;Metamodel::Stashing</title>
<path fill="none" stroke="#6666ff" d="M-346.387,-473.141C-336.361,-424.969 -309.028,-293.647 -297.005,-235.886"/>
<polygon fill="#6666ff" stroke="#6666ff" points="-293.557,-236.497 -294.946,-225.993 -300.41,-235.07 -293.557,-236.497"/>
</g>
<!-- Metamodel::ParametricRoleHOW&#45;&gt;Metamodel::MultipleInheritance -->
<g id="edge24" class="edge"><title>Metamodel::ParametricRoleHOW&#45;&gt;Metamodel::MultipleInheritance</title>
<path fill="none" stroke="#6666ff" d="M-340.288,-473.143C-306.264,-410.619 -196.008,-208.009 -196.008,-208.009 -196.008,-208.009 -158.86,-10.9254 -158.86,-10.9254 -158.86,-10.9254 -40.699,140.283 7.82873,202.382"/>
<polygon fill="#6666ff" stroke="#6666ff" points="10.7949,200.494 14.1945,210.528 5.27924,204.804 10.7949,200.494"/>
</g>
<!-- Metamodel::ParametricRoleHOW&#45;&gt;Metamodel::MethodContainer -->
<g id="edge19" class="edge"><title>Metamodel::ParametricRoleHOW&#45;&gt;Metamodel::MethodContainer</title>
<path fill="none" stroke="#6666ff" d="M-325.953,-473.546C-267.674,-430.828 -119.544,-322.248 -53.5105,-273.846"/>
<polygon fill="#6666ff" stroke="#6666ff" points="-51.1244,-276.436 -45.1282,-267.701 -55.2627,-270.791 -51.1244,-276.436"/>
</g>
<!-- Metamodel::ParametricRoleHOW&#45;&gt;Metamodel::PrivateMethodContainer -->
<g id="edge20" class="edge"><title>Metamodel::ParametricRoleHOW&#45;&gt;Metamodel::PrivateMethodContainer</title>
<path fill="none" stroke="#6666ff" d="M-303.503,-474.208C-151.296,-418.473 321.006,-245.527 321.006,-245.527 321.006,-245.527 356.136,-231.722 356.136,-231.722 356.136,-231.722 427.837,-200.709 478.69,-178.713"/>
<polygon fill="#6666ff" stroke="#6666ff" points="480.133,-181.903 487.921,-174.72 477.354,-175.478 480.133,-181.903"/>
</g>
<!-- Metamodel::ParametricRoleHOW&#45;&gt;Metamodel::MultiMethodContainer -->
<g id="edge21" class="edge"><title>Metamodel::ParametricRoleHOW&#45;&gt;Metamodel::MultiMethodContainer</title>
<path fill="none" stroke="#6666ff" d="M-212.76,-496.107C-147.981,-498.376 -84.6856,-500.594 -84.6856,-500.594 -84.6856,-500.594 -17.4331,-504.184 51.219,-507.849"/>
<polygon fill="#6666ff" stroke="#6666ff" points="51.1779,-511.352 61.3504,-508.39 51.5512,-504.362 51.1779,-511.352"/>
</g>
<!-- Metamodel::ParametricRoleHOW&#45;&gt;Metamodel::AttributeContainer -->
<g id="edge22" class="edge"><title>Metamodel::ParametricRoleHOW&#45;&gt;Metamodel::AttributeContainer</title>
<path fill="none" stroke="#6666ff" d="M-242.156,-503.09C-227.525,-504.688 -212.485,-506.331 -197.783,-507.936"/>
<polygon fill="#6666ff" stroke="#6666ff" points="-197.989,-511.434 -187.668,-509.041 -197.229,-504.476 -197.989,-511.434"/>
</g>
<!-- Metamodel::ParametricRoleHOW&#45;&gt;Metamodel::RoleContainer -->
<g id="edge23" class="edge"><title>Metamodel::ParametricRoleHOW&#45;&gt;Metamodel::RoleContainer</title>
<path fill="none" stroke="#6666ff" d="M-310.604,-473.848C-205.984,-427.71 77.6923,-302.609 191.08,-252.605"/>
<polygon fill="#6666ff" stroke="#6666ff" points="192.494,-255.807 200.231,-248.57 189.669,-249.402 192.494,-255.807"/>
</g>
<!-- Metamodel::ParametricRoleHOW&#45;&gt;Metamodel::TypePretense -->
<g id="edge26" class="edge"><title>Metamodel::ParametricRoleHOW&#45;&gt;Metamodel::TypePretense</title>
<path fill="none" stroke="#6666ff" d="M-466.946,-480.969C-593.34,-469.793 -793.369,-452.107 -917.11,-441.166"/>
<polygon fill="#6666ff" stroke="#6666ff" points="-917.092,-437.654 -927.362,-440.26 -917.709,-444.627 -917.092,-437.654"/>
</g>
<!-- Metamodel::ParametricRoleHOW&#45;&gt;Metamodel::RolePunning -->
<g id="edge27" class="edge"><title>Metamodel::ParametricRoleHOW&#45;&gt;Metamodel::RolePunning</title>
<path fill="none" stroke="#6666ff" d="M-491.361,-493.861C-501.461,-494.044 -511.588,-494.228 -521.547,-494.409"/>
<polygon fill="#6666ff" stroke="#6666ff" points="-521.923,-490.915 -531.857,-494.597 -521.795,-497.914 -521.923,-490.915"/>
</g>
<!-- Metamodel::MethodDelegation -->
<g id="node20" class="node"><title>Metamodel::MethodDelegation</title>
<g id="a_node20"><a xlink:href="/type/Metamodel::MethodDelegation" xlink:title="Metamodel::MethodDelegation">
<ellipse fill="none" stroke="#6666ff" cx="-1025.88" cy="441.395" rx="131.077" ry="18"/>
<text text-anchor="middle" x="-1025.88" y="445.095" font-family="FreeSans" font-size="14.00" fill="#6666ff">Metamodel::MethodDelegation</text>
</a>
</g>
</g>
<!-- Metamodel::PackageHOW -->
<g id="node21" class="node"><title>Metamodel::PackageHOW</title>
<g id="a_node21"><a xlink:href="/type/Metamodel::PackageHOW" xlink:title="Metamodel::PackageHOW">
<ellipse fill="none" stroke="#000000" cx="-1021.69" cy="7.2439" rx="116.18" ry="18"/>
<text text-anchor="middle" x="-1021.69" y="10.9439" font-family="FreeSans" font-size="14.00" fill="#000000">Metamodel::PackageHOW</text>
</a>
</g>
</g>
<!-- Metamodel::PackageHOW&#45;&gt;Metamodel::Documenting -->
<g id="edge29" class="edge"><title>Metamodel::PackageHOW&#45;&gt;Metamodel::Documenting</title>
<path fill="none" stroke="#6666ff" d="M-964.699,22.9699C-823.727,61.8716 -459.229,162.456 -308.813,203.964"/>
<polygon fill="#6666ff" stroke="#6666ff" points="-307.498,200.696 -298.789,206.73 -309.36,207.444 -307.498,200.696"/>
</g>
<!-- Metamodel::PackageHOW&#45;&gt;Any -->
<g id="edge4" class="edge"><title>Metamodel::PackageHOW&#45;&gt;Any</title>
<path fill="none" stroke="#000000" d="M-982.446,24.252C-904.509,58.0318 -731.545,132.999 -659.711,164.134"/>
<polygon fill="#000000" stroke="#000000" points="-658.05,161.039 -650.266,168.227 -660.834,167.462 -658.05,161.039"/>
</g>
<!-- Metamodel::PackageHOW&#45;&gt;Metamodel::Naming -->
<g id="edge28" class="edge"><title>Metamodel::PackageHOW&#45;&gt;Metamodel::Naming</title>
<path fill="none" stroke="#6666ff" d="M-906.274,9.86989C-782.786,12.6796 -588.91,17.0909 -471.772,19.7562"/>
<polygon fill="#6666ff" stroke="#6666ff" points="-471.646,16.258 -461.729,19.9847 -471.806,23.2562 -471.646,16.258"/>
</g>
<!-- Metamodel::PackageHOW&#45;&gt;Metamodel::Stashing -->
<g id="edge30" class="edge"><title>Metamodel::PackageHOW&#45;&gt;Metamodel::Stashing</title>
<path fill="none" stroke="#6666ff" d="M-967.378,-8.75789C-834.182,-48.0036 -492.007,-148.824 -352.146,-190.034"/>
<polygon fill="#6666ff" stroke="#6666ff" points="-353.013,-193.427 -342.431,-192.896 -351.034,-186.713 -353.013,-193.427"/>
</g>
<!-- Metamodel::PackageHOW&#45;&gt;Metamodel::TypePretense -->
<g id="edge31" class="edge"><title>Metamodel::PackageHOW&#45;&gt;Metamodel::TypePretense</title>
<path fill="none" stroke="#6666ff" d="M-1021.92,-10.7704C-1022.78,-78.6607 -1025.83,-319.42 -1026.89,-402.774"/>
<polygon fill="#6666ff" stroke="#6666ff" points="-1030.39,-402.976 -1027.02,-413.02 -1023.39,-403.065 -1030.39,-402.976"/>
</g>
<!-- Metamodel::PackageHOW&#45;&gt;Metamodel::MethodDelegation -->
<g id="edge32" class="edge"><title>Metamodel::PackageHOW&#45;&gt;Metamodel::MethodDelegation</title>
<path fill="none" stroke="#6666ff" d="M-1021.86,25.3461C-1022.51,92.9238 -1024.81,330.768 -1025.6,413.096"/>
<polygon fill="#6666ff" stroke="#6666ff" points="-1022.11,413.25 -1025.7,423.216 -1029.11,413.182 -1022.11,413.25"/>
</g>
<!-- Metamodel::SubsetHOW -->
<g id="node22" class="node"><title>Metamodel::SubsetHOW</title>
<g id="a_node22"><a xlink:href="/type/Metamodel::SubsetHOW" xlink:title="Metamodel::SubsetHOW">
<ellipse fill="none" stroke="#000000" cx="-639.08" cy="508.796" rx="109.381" ry="18"/>
<text text-anchor="middle" x="-639.08" y="512.496" font-family="FreeSans" font-size="14.00" fill="#000000">Metamodel::SubsetHOW</text>
</a>
</g>
</g>
<!-- Metamodel::SubsetHOW&#45;&gt;Metamodel::Documenting -->
<g id="edge34" class="edge"><title>Metamodel::SubsetHOW&#45;&gt;Metamodel::Documenting</title>
<path fill="none" stroke="#6666ff" d="M-614.564,491.09C-546.088,441.634 -352.739,301.991 -275.18,245.975"/>
<polygon fill="#6666ff" stroke="#6666ff" points="-276.898,242.899 -266.742,239.881 -272.8,248.574 -276.898,242.899"/>
</g>
<!-- Metamodel::SubsetHOW&#45;&gt;Any -->
<g id="edge5" class="edge"><title>Metamodel::SubsetHOW&#45;&gt;Any</title>
<path fill="none" stroke="#000000" d="M-638.438,490.546C-636.514,435.779 -630.78,272.552 -628.456,206.413"/>
<polygon fill="#000000" stroke="#000000" points="-631.95,206.176 -628.101,196.305 -624.954,206.422 -631.95,206.176"/>
</g>
<!-- Metamodel::SubsetHOW&#45;&gt;Metamodel::Naming -->
<g id="edge33" class="edge"><title>Metamodel::SubsetHOW&#45;&gt;Metamodel::Naming</title>
<path fill="none" stroke="#6666ff" d="M-629.095,490.602C-588.427,416.498 -435.13,137.166 -386.701,48.9199"/>
<polygon fill="#6666ff" stroke="#6666ff" points="-389.714,47.1365 -381.835,40.0538 -383.578,50.5043 -389.714,47.1365"/>
</g>
<!-- Metamodel::ModuleHOW -->
<g id="node23" class="node"><title>Metamodel::ModuleHOW</title>
<g id="a_node23"><a xlink:href="/type/Metamodel::ModuleHOW" xlink:title="Metamodel::ModuleHOW">
<ellipse fill="none" stroke="#000000" cx="-636.221" cy="-157.817" rx="111.28" ry="18"/>
<text text-anchor="middle" x="-636.221" y="-154.117" font-family="FreeSans" font-size="14.00" fill="#000000">Metamodel::ModuleHOW</text>
</a>
</g>
</g>
<!-- Metamodel::ModuleHOW&#45;&gt;Metamodel::Documenting -->
<g id="edge36" class="edge"><title>Metamodel::ModuleHOW&#45;&gt;Metamodel::Documenting</title>
<path fill="none" stroke="#6666ff" d="M-619.067,-139.906C-575.476,-94.3907 -463.883,22.1275 -463.883,22.1275 -463.883,22.1275 -328.668,144.323 -269.533,197.765"/>
<polygon fill="#6666ff" stroke="#6666ff" points="-267.119,195.229 -262.047,204.53 -271.813,200.422 -267.119,195.229"/>
</g>
<!-- Metamodel::ModuleHOW&#45;&gt;Any -->
<g id="edge6" class="edge"><title>Metamodel::ModuleHOW&#45;&gt;Any</title>
<path fill="none" stroke="#000000" d="M-635.75,-139.756C-634.31,-84.5039 -629.953,82.5586 -628.202,149.711"/>
<polygon fill="#000000" stroke="#000000" points="-624.697,149.873 -627.935,159.961 -631.695,150.056 -624.697,149.873"/>
</g>
<!-- Metamodel::ModuleHOW&#45;&gt;Metamodel::Naming -->
<g id="edge35" class="edge"><title>Metamodel::ModuleHOW&#45;&gt;Metamodel::Naming</title>
<path fill="none" stroke="#6666ff" d="M-610.4,-140.246C-562.417,-107.593 -459.529,-37.5762 -405.951,-1.11575"/>
<polygon fill="#6666ff" stroke="#6666ff" points="-403.778,-3.87028 -397.479,4.64931 -407.716,1.91684 -403.778,-3.87028"/>
</g>
<!-- Metamodel::ModuleHOW&#45;&gt;Metamodel::Versioning -->
<g id="edge37" class="edge"><title>Metamodel::ModuleHOW&#45;&gt;Metamodel::Versioning</title>
<path fill="none" stroke="#6666ff" d="M-576.095,-142.586C-467.43,-115.058 -239.032,-57.2 -124.722,-28.2425"/>
<polygon fill="#6666ff" stroke="#6666ff" points="-123.524,-31.5497 -114.69,-25.7012 -125.243,-24.7641 -123.524,-31.5497"/>
</g>
<!-- Metamodel::ModuleHOW&#45;&gt;Metamodel::Stashing -->
<g id="edge38" class="edge"><title>Metamodel::ModuleHOW&#45;&gt;Metamodel::Stashing</title>
<path fill="none" stroke="#6666ff" d="M-553.141,-169.899C-499.566,-177.69 -430.085,-187.794 -376.146,-195.638"/>
<polygon fill="#6666ff" stroke="#6666ff" points="-376.319,-199.15 -365.919,-197.125 -375.312,-192.223 -376.319,-199.15"/>
</g>
<!-- Metamodel::ModuleHOW&#45;&gt;Metamodel::TypePretense -->
<g id="edge39" class="edge"><title>Metamodel::ModuleHOW&#45;&gt;Metamodel::TypePretense</title>
<path fill="none" stroke="#6666ff" d="M-661.577,-175.559C-729.693,-223.221 -916.692,-354.067 -993.569,-407.86"/>
<polygon fill="#6666ff" stroke="#6666ff" points="-995.767,-405.126 -1001.95,-413.726 -991.754,-410.861 -995.767,-405.126"/>
</g>
<!-- Metamodel::ModuleHOW&#45;&gt;Metamodel::MethodDelegation -->
<g id="edge40" class="edge"><title>Metamodel::ModuleHOW&#45;&gt;Metamodel::MethodDelegation</title>
<path fill="none" stroke="#6666ff" d="M-647.883,-139.884C-703.504,-54.3503 -941.89,312.239 -1008.52,414.699"/>
<polygon fill="#6666ff" stroke="#6666ff" points="-1005.69,416.764 -1014.07,423.239 -1011.55,412.948 -1005.69,416.764"/>
</g>
<!-- Metamodel::Finalization -->
<g id="node24" class="node"><title>Metamodel::Finalization</title>
<g id="a_node24"><a xlink:href="/type/Metamodel::Finalization" xlink:title="Metamodel::Finalization">
<ellipse fill="none" stroke="#6666ff" cx="919.2" cy="-150.767" rx="103.982" ry="18"/>
<text text-anchor="middle" x="919.2" y="-147.067" font-family="FreeSans" font-size="14.00" fill="#6666ff">Metamodel::Finalization</text>
</a>
</g>
</g>
<!-- Metamodel::DefaultParent -->
<g id="node25" class="node"><title>Metamodel::DefaultParent</title>
<g id="a_node25"><a xlink:href="/type/Metamodel::DefaultParent" xlink:title="Metamodel::DefaultParent">
<ellipse fill="none" stroke="#6666ff" cx="918.321" cy="-485.47" rx="113.18" ry="18"/>
<text text-anchor="middle" x="918.321" y="-481.77" font-family="FreeSans" font-size="14.00" fill="#6666ff">Metamodel::DefaultParent</text>
</a>
</g>
</g>
<!-- Metamodel::Trusting -->
<g id="node26" class="node"><title>Metamodel::Trusting</title>
<g id="a_node26"><a xlink:href="/type/Metamodel::Trusting" xlink:title="Metamodel::Trusting">
<ellipse fill="none" stroke="#6666ff" cx="912.679" cy="496.077" rx="91.784" ry="18"/>
<text text-anchor="middle" x="912.679" y="499.777" font-family="FreeSans" font-size="14.00" fill="#6666ff">Metamodel::Trusting</text>
</a>
</g>
</g>
<!-- Metamodel::BUILDPLAN -->
<g id="node27" class="node"><title>Metamodel::BUILDPLAN</title>
<g id="a_node27"><a xlink:href="/type/Metamodel::BUILDPLAN" xlink:title="Metamodel::BUILDPLAN">
<ellipse fill="none" stroke="#6666ff" cx="950.436" cy="156.339" rx="109.681" ry="18"/>
<text text-anchor="middle" x="950.436" y="160.039" font-family="FreeSans" font-size="14.00" fill="#6666ff">Metamodel::BUILDPLAN</text>
</a>
</g>
</g>
<!-- Metamodel::Mixins -->
<g id="node28" class="node"><title>Metamodel::Mixins</title>
<g id="a_node28"><a xlink:href="/type/Metamodel::Mixins" xlink:title="Metamodel::Mixins">
<ellipse fill="none" stroke="#6666ff" cx="508.229" cy="-490.316" rx="85.2851" ry="18"/>
<text text-anchor="middle" x="508.229" y="-486.616" font-family="FreeSans" font-size="14.00" fill="#6666ff">Metamodel::Mixins</text>
</a>
</g>
</g>
<!-- Metamodel::BoolificationProtocol -->
<g id="node29" class="node"><title>Metamodel::BoolificationProtocol</title>
<g id="a_node29"><a xlink:href="/type/Metamodel::BoolificationProtocol" xlink:title="Metamodel::BoolificationProtocol">
<ellipse fill="none" stroke="#6666ff" cx="190.508" cy="525.663" rx="139.175" ry="18"/>
<text text-anchor="middle" x="190.508" y="529.363" font-family="FreeSans" font-size="14.00" fill="#6666ff">Metamodel::BoolificationProtocol</text>
</a>
</g>
</g>
<!-- Metamodel::ClassHOW -->
<g id="node30" class="node"><title>Metamodel::ClassHOW</title>
<g id="a_node30"><a xlink:href="/type/Metamodel::ClassHOW" xlink:title="Metamodel::ClassHOW">
<ellipse fill="none" stroke="#000000" cx="240.441" cy="10.516" rx="103.982" ry="18"/>
<text text-anchor="middle" x="240.441" y="14.216" font-family="FreeSans" font-size="14.00" fill="#000000">Metamodel::ClassHOW</text>
</a>
</g>
</g>
<!-- Metamodel::ClassHOW&#45;&gt;Metamodel::Documenting -->
<g id="edge42" class="edge"><title>Metamodel::ClassHOW&#45;&gt;Metamodel::Documenting</title>
<path fill="none" stroke="#6666ff" d="M202.15,27.3108C114.835,65.6085 -98.8315,159.326 -194.596,201.33"/>
<polygon fill="#6666ff" stroke="#6666ff" points="-193.197,204.538 -203.761,205.35 -196.009,198.128 -193.197,204.538"/>
</g>
<!-- Metamodel::ClassHOW&#45;&gt;Any -->
<g id="edge7" class="edge"><title>Metamodel::ClassHOW&#45;&gt;Any</title>
<path fill="none" stroke="#000000" d="M170.884,23.9477C-4.37531,57.7909 -459.484,145.674 -591.234,171.116"/>
<polygon fill="#000000" stroke="#000000" points="-590.732,174.583 -601.215,173.043 -592.06,167.71 -590.732,174.583"/>
</g>
<!-- Metamodel::ClassHOW&#45;&gt;Metamodel::Naming -->
<g id="edge41" class="edge"><title>Metamodel::ClassHOW&#45;&gt;Metamodel::Naming</title>
<path fill="none" stroke="#6666ff" d="M136.905,12.4623C22.8533,14.6062 -159.285,18.03 -271.916,20.1473"/>
<polygon fill="#6666ff" stroke="#6666ff" points="-271.856,23.6467 -281.92,20.3354 -271.988,16.6479 -271.856,23.6467"/>
</g>
<!-- Metamodel::ClassHOW&#45;&gt;Metamodel::Versioning -->
<g id="edge43" class="edge"><title>Metamodel::ClassHOW&#45;&gt;Metamodel::Versioning</title>
<path fill="none" stroke="#6666ff" d="M144.436,3.57133C113.32,1.32045 78.6743,-1.18569 47.0339,-3.47446"/>
<polygon fill="#6666ff" stroke="#6666ff" points="46.5963,0.00312521 36.8749,-4.20933 47.1014,-6.97863 46.5963,0.00312521"/>
</g>
<!-- Metamodel::ClassHOW&#45;&gt;Metamodel::Stashing -->
<g id="edge44" class="edge"><title>Metamodel::ClassHOW&#45;&gt;Metamodel::Stashing</title>
<path fill="none" stroke="#6666ff" d="M200.045,-6.08693C104.055,-45.5393 -137.463,-144.805 -241.86,-187.713"/>
<polygon fill="#6666ff" stroke="#6666ff" points="-243.309,-184.524 -251.228,-191.563 -240.648,-190.999 -243.309,-184.524"/>
</g>
<!-- Metamodel::ClassHOW&#45;&gt;Metamodel::MultipleInheritance -->
<g id="edge51" class="edge"><title>Metamodel::ClassHOW&#45;&gt;Metamodel::MultipleInheritance</title>
<path fill="none" stroke="#6666ff" d="M223.077,28.3567C185.465,67.0019 96.3626,158.552 52.9241,203.183"/>
<polygon fill="#6666ff" stroke="#6666ff" points="55.3454,205.714 45.8625,210.439 50.329,200.832 55.3454,205.714"/>
</g>
<!-- Metamodel::ClassHOW&#45;&gt;Metamodel::C3MRO -->
<g id="edge53" class="edge"><title>Metamodel::ClassHOW&#45;&gt;Metamodel::C3MRO</title>
<path fill="none" stroke="#6666ff" d="M279.861,27.1983C339.849,52.5849 453.919,100.859 518.848,128.337"/>
<polygon fill="#6666ff" stroke="#6666ff" points="520.6,125.277 528.445,132.398 517.872,131.724 520.6,125.277"/>
</g>
<!-- Metamodel::ClassHOW&#45;&gt;Metamodel::MROBasedMethodDispatch -->
<g id="edge54" class="edge"><title>Metamodel::ClassHOW&#45;&gt;Metamodel::MROBasedMethodDispatch</title>
<path fill="none" stroke="#6666ff" d="M256.584,28.6941C306.532,84.9392 455.216,252.366 455.216,252.366 455.216,252.366 488.702,407.15 502.765,472.157"/>
<polygon fill="#6666ff" stroke="#6666ff" points="506.231,471.623 504.924,482.137 499.389,473.103 506.231,471.623"/>
</g>
<!-- Metamodel::ClassHOW&#45;&gt;Metamodel::MROBasedTypeChecking -->
<g id="edge55" class="edge"><title>Metamodel::ClassHOW&#45;&gt;Metamodel::MROBasedTypeChecking</title>
<path fill="none" stroke="#6666ff" d="M244.202,28.704C252.881,70.6733 274.356,174.514 284.714,224.599"/>
<polygon fill="#6666ff" stroke="#6666ff" points="288.149,223.927 286.747,234.429 281.294,225.345 288.149,223.927"/>
</g>
<!-- Metamodel::ClassHOW&#45;&gt;Metamodel::MethodContainer -->
<g id="edge47" class="edge"><title>Metamodel::ClassHOW&#45;&gt;Metamodel::MethodContainer</title>
<path fill="none" stroke="#6666ff" d="M222.479,-7.38531C176.978,-52.7339 57.065,-172.244 4.4634,-224.669"/>
<polygon fill="#6666ff" stroke="#6666ff" points="1.82004,-222.362 -2.79221,-231.901 6.76148,-227.32 1.82004,-222.362"/>
</g>
<!-- Metamodel::ClassHOW&#45;&gt;Metamodel::PrivateMethodContainer -->
<g id="edge48" class="edge"><title>Metamodel::ClassHOW&#45;&gt;Metamodel::PrivateMethodContainer</title>
<path fill="none" stroke="#6666ff" d="M270.161,-6.80737C322.38,-37.2457 430.583,-100.315 488.937,-134.33"/>
<polygon fill="#6666ff" stroke="#6666ff" points="487.457,-137.518 497.859,-139.53 490.982,-131.47 487.457,-137.518"/>
</g>
<!-- Metamodel::ClassHOW&#45;&gt;Metamodel::MultiMethodContainer -->
<g id="edge49" class="edge"><title>Metamodel::ClassHOW&#45;&gt;Metamodel::MultiMethodContainer</title>
<path fill="none" stroke="#6666ff" d="M231.506,-7.66359C203.86,-63.9133 121.567,-231.354 121.567,-231.354 121.567,-231.354 169.852,-416.021 188.58,-487.649"/>
<polygon fill="#6666ff" stroke="#6666ff" points="185.204,-488.572 191.12,-497.361 191.976,-486.801 185.204,-488.572"/>
</g>
<!-- Metamodel::ClassHOW&#45;&gt;Metamodel::AttributeContainer -->
<g id="edge45" class="edge"><title>Metamodel::ClassHOW&#45;&gt;Metamodel::AttributeContainer</title>
<path fill="none" stroke="#6666ff" d="M231.135,-7.80304C201.014,-67.1022 108.108,-250.001 108.108,-250.001 108.108,-250.001 -17.5837,-425.365 -66.4463,-493.537"/>
<polygon fill="#6666ff" stroke="#6666ff" points="-69.5639,-491.879 -72.5448,-502.045 -63.8744,-495.957 -69.5639,-491.879"/>
</g>
<!-- Metamodel::ClassHOW&#45;&gt;Metamodel::RoleContainer -->
<g id="edge50" class="edge"><title>Metamodel::ClassHOW&#45;&gt;Metamodel::RoleContainer</title>
<path fill="none" stroke="#6666ff" d="M240.321,-7.67741C240.046,-49.5714 239.366,-153.097 239.037,-203.316"/>
<polygon fill="#6666ff" stroke="#6666ff" points="235.536,-203.441 238.97,-213.464 242.536,-203.487 235.536,-203.441"/>
</g>
<!-- Metamodel::ClassHOW&#45;&gt;Metamodel::Finalization -->
<g id="edge46" class="edge"><title>Metamodel::ClassHOW&#45;&gt;Metamodel::Finalization</title>
<path fill="none" stroke="#6666ff" d="M301.873,-4.08129C427.787,-34.0003 714.513,-102.131 848.165,-133.889"/>
<polygon fill="#6666ff" stroke="#6666ff" points="847.368,-137.297 857.907,-136.203 848.987,-130.486 847.368,-137.297"/>
</g>
<!-- Metamodel::ClassHOW&#45;&gt;Metamodel::DefaultParent -->
<g id="edge52" class="edge"><title>Metamodel::ClassHOW&#45;&gt;Metamodel::DefaultParent</title>
<path fill="none" stroke="#6666ff" d="M254.519,-7.42856C288.458,-50.6851 371.998,-157.163 371.998,-157.163 371.998,-157.163 756.884,-388.456 880.551,-462.772"/>
<polygon fill="#6666ff" stroke="#6666ff" points="878.96,-465.899 889.334,-468.05 882.566,-459.899 878.96,-465.899"/>
</g>
<!-- Metamodel::ClassHOW&#45;&gt;Metamodel::Trusting -->
<g id="edge56" class="edge"><title>Metamodel::ClassHOW&#45;&gt;Metamodel::Trusting</title>
<path fill="none" stroke="#6666ff" d="M264.763,28.0842C367.183,102.063 763.453,388.29 880.162,472.589"/>
<polygon fill="#6666ff" stroke="#6666ff" points="882.332,469.839 888.389,478.532 878.234,475.514 882.332,469.839"/>
</g>
<!-- Metamodel::ClassHOW&#45;&gt;Metamodel::BUILDPLAN -->
<g id="edge57" class="edge"><title>Metamodel::ClassHOW&#45;&gt;Metamodel::BUILDPLAN</title>
<path fill="none" stroke="#6666ff" d="M307.555,24.3003C439.377,51.3747 731.474,111.367 871.965,140.222"/>
<polygon fill="#6666ff" stroke="#6666ff" points="872.723,136.804 881.814,142.245 871.315,143.661 872.723,136.804"/>
</g>
<!-- Metamodel::ClassHOW&#45;&gt;Metamodel::Mixins -->
<g id="edge58" class="edge"><title>Metamodel::ClassHOW&#45;&gt;Metamodel::Mixins</title>
<path fill="none" stroke="#6666ff" d="M250.13,-7.60478C290.48,-83.0697 445.322,-372.665 493.7,-463.143"/>
<polygon fill="#6666ff" stroke="#6666ff" points="490.751,-465.052 498.553,-472.22 496.924,-461.751 490.751,-465.052"/>
</g>
<!-- Metamodel::ClassHOW&#45;&gt;Metamodel::BoolificationProtocol -->
<g id="edge59" class="edge"><title>Metamodel::ClassHOW&#45;&gt;Metamodel::BoolificationProtocol</title>
<path fill="none" stroke="#6666ff" d="M234.034,28.7239C215.601,81.1072 163.746,228.471 163.746,228.471 163.746,228.471 125.752,252.629 125.752,252.629 125.752,252.629 167.268,427.674 183.816,497.449"/>
<polygon fill="#6666ff" stroke="#6666ff" points="187.256,496.787 186.159,507.325 180.445,498.402 187.256,496.787"/>
</g>
</g>
</svg>
