<?xml version="1.0" encoding="UTF-8" standalone="no"?>
<!DOCTYPE svg PUBLIC "-//W3C//DTD SVG 1.1//EN"
 "http://www.w3.org/Graphics/SVG/1.1/DTD/svg11.dtd">
<!-- Generated by graphviz version 2.38.0 (20140413.2041)
 -->
<!-- Title: perl6&#45;type&#45;graph Pages: 1 -->
<svg width="2096pt" height="1408pt"
 viewBox="0.00 0.00 2095.96 1408.45" xmlns="http://www.w3.org/2000/svg" xmlns:xlink="http://www.w3.org/1999/xlink">
<g id="graph0" class="graph" transform="scale(1 1) rotate(0) translate(1018.58 726.987)">
<title>perl6&#45;type&#45;graph</title>
<polygon fill="white" stroke="none" points="-1018.58,681.463 -1018.58,-726.987 1077.38,-726.987 1077.38,681.463 -1018.58,681.463"/>
<!-- Metamodel::Stashing -->
<g id="node1" class="node"><title>Metamodel::Stashing</title>
<g id="a_node1"><a xlink:href="/type/Metamodel::Stashing" xlink:title="Metamodel::Stashing">
<ellipse fill="none" stroke="#6666ff" cx="-171.103" cy="-149.56" rx="93.6835" ry="18"/>
<text text-anchor="middle" x="-171.103" y="-145.86" font-family="FreeSans" font-size="14.00" fill="#6666ff">Metamodel::Stashing</text>
</a>
</g>
</g>
<!-- Mu -->
<g id="node2" class="node"><title>Mu</title>
<g id="a_node2"><a xlink:href="/type/Mu" xlink:title="Mu">
<ellipse fill="none" stroke="#000000" cx="500.211" cy="-686.473" rx="27" ry="18"/>
<text text-anchor="middle" x="500.211" y="-682.773" font-family="FreeSans" font-size="14.00" fill="#000000">Mu</text>
</a>
</g>
</g>
<!-- Any -->
<g id="node3" class="node"><title>Any</title>
<g id="a_node3"><a xlink:href="/type/Any" xlink:title="Any">
<ellipse fill="none" stroke="#000000" cx="6.07843" cy="-399.86" rx="27" ry="18"/>
<text text-anchor="middle" x="6.07843" y="-396.16" font-family="FreeSans" font-size="14.00" fill="#000000">Any</text>
</a>
</g>
</g>
<!-- Any&#45;&gt;Mu -->
<g id="edge1" class="edge"><title>Any&#45;&gt;Mu</title>
<path fill="none" stroke="#000000" d="M26.6816,-411.811C104.469,-456.93 380.471,-617.02 471.125,-669.602"/>
<polygon fill="#000000" stroke="#000000" points="469.388,-672.64 479.794,-674.63 472.9,-666.585 469.388,-672.64"/>
</g>
<!-- Metamodel::Naming -->
<g id="node4" class="node"><title>Metamodel::Naming</title>
<g id="a_node4"><a xlink:href="/type/Metamodel::Naming" xlink:title="Metamodel::Naming">
<ellipse fill="none" stroke="#6666ff" cx="75.5183" cy="-135.227" rx="90.1842" ry="18"/>
<text text-anchor="middle" x="75.5183" y="-131.527" font-family="FreeSans" font-size="14.00" fill="#6666ff">Metamodel::Naming</text>
</a>
</g>
</g>
<!-- Metamodel::Documenting -->
<g id="node5" class="node"><title>Metamodel::Documenting</title>
<g id="a_node5"><a xlink:href="/type/Metamodel::Documenting" xlink:title="Metamodel::Documenting">
<ellipse fill="none" stroke="#6666ff" cx="-293.396" cy="-384.778" rx="111.28" ry="18"/>
<text text-anchor="middle" x="-293.396" y="-381.078" font-family="FreeSans" font-size="14.00" fill="#6666ff">Metamodel::Documenting</text>
</a>
</g>
</g>
<!-- Metamodel::Versioning -->
<g id="node6" class="node"><title>Metamodel::Versioning</title>
<g id="a_node6"><a xlink:href="/type/Metamodel::Versioning" xlink:title="Metamodel::Versioning">
<ellipse fill="none" stroke="#6666ff" cx="-553.515" cy="-201.697" rx="100.983" ry="18"/>
<text text-anchor="middle" x="-553.515" y="-197.997" font-family="FreeSans" font-size="14.00" fill="#6666ff">Metamodel::Versioning</text>
</a>
</g>
</g>
<!-- Metamodel::MethodContainer -->
<g id="node7" class="node"><title>Metamodel::MethodContainer</title>
<g id="a_node7"><a xlink:href="/type/Metamodel::MethodContainer" xlink:title="Metamodel::MethodContainer">
<ellipse fill="none" stroke="#6666ff" cx="213.59" cy="295.143" rx="127.277" ry="18"/>
<text text-anchor="middle" x="213.59" y="298.843" font-family="FreeSans" font-size="14.00" fill="#6666ff">Metamodel::MethodContainer</text>
</a>
</g>
</g>
<!-- Metamodel::PrivateMethodContainer -->
<g id="node8" class="node"><title>Metamodel::PrivateMethodContainer</title>
<g id="a_node8"><a xlink:href="/type/Metamodel::PrivateMethodContainer" xlink:title="Metamodel::PrivateMethodContainer">
<ellipse fill="none" stroke="#6666ff" cx="508.325" cy="635.562" rx="154.873" ry="18"/>
<text text-anchor="middle" x="508.325" y="639.262" font-family="FreeSans" font-size="14.00" fill="#6666ff">Metamodel::PrivateMethodContainer</text>
</a>
</g>
</g>
<!-- Metamodel::MultiMethodContainer -->
<g id="node9" class="node"><title>Metamodel::MultiMethodContainer</title>
<g id="a_node9"><a xlink:href="/type/Metamodel::MultiMethodContainer" xlink:title="Metamodel::MultiMethodContainer">
<ellipse fill="none" stroke="#6666ff" cx="515.195" cy="292.171" rx="146.474" ry="18"/>
<text text-anchor="middle" x="515.195" y="295.871" font-family="FreeSans" font-size="14.00" fill="#6666ff">Metamodel::MultiMethodContainer</text>
</a>
</g>
</g>
<!-- Metamodel::AttributeContainer -->
<g id="node10" class="node"><title>Metamodel::AttributeContainer</title>
<g id="a_node10"><a xlink:href="/type/Metamodel::AttributeContainer" xlink:title="Metamodel::AttributeContainer">
<ellipse fill="none" stroke="#6666ff" cx="550.148" cy="-22.6584" rx="129.977" ry="18"/>
<text text-anchor="middle" x="550.148" y="-18.9584" font-family="FreeSans" font-size="14.00" fill="#6666ff">Metamodel::AttributeContainer</text>
</a>
</g>
</g>
<!-- Metamodel::RoleContainer -->
<g id="node11" class="node"><title>Metamodel::RoleContainer</title>
<g id="a_node11"><a xlink:href="/type/Metamodel::RoleContainer" xlink:title="Metamodel::RoleContainer">
<ellipse fill="none" stroke="#6666ff" cx="906.729" cy="195.256" rx="115.88" ry="18"/>
<text text-anchor="middle" x="906.729" y="198.956" font-family="FreeSans" font-size="14.00" fill="#6666ff">Metamodel::RoleContainer</text>
</a>
</g>
</g>
<!-- Metamodel::MultipleInheritance -->
<g id="node12" class="node"><title>Metamodel::MultipleInheritance</title>
<g id="a_node12"><a xlink:href="/type/Metamodel::MultipleInheritance" xlink:title="Metamodel::MultipleInheritance">
<ellipse fill="none" stroke="#6666ff" cx="-334.997" cy="32.4793" rx="133.776" ry="18"/>
<text text-anchor="middle" x="-334.997" y="36.1793" font-family="FreeSans" font-size="14.00" fill="#6666ff">Metamodel::MultipleInheritance</text>
</a>
</g>
</g>
<!-- Metamodel::TypePretense -->
<g id="node13" class="node"><title>Metamodel::TypePretense</title>
<g id="a_node13"><a xlink:href="/type/Metamodel::TypePretense" xlink:title="Metamodel::TypePretense">
<ellipse fill="none" stroke="#6666ff" cx="169.175" cy="-685.758" rx="114.28" ry="18"/>
<text text-anchor="middle" x="169.175" y="-682.058" font-family="FreeSans" font-size="14.00" fill="#6666ff">Metamodel::TypePretense</text>
</a>
</g>
</g>
<!-- Metamodel::RolePunning -->
<g id="node14" class="node"><title>Metamodel::RolePunning</title>
<g id="a_node14"><a xlink:href="/type/Metamodel::RolePunning" xlink:title="Metamodel::RolePunning">
<ellipse fill="none" stroke="#6666ff" cx="909.854" cy="-640.566" rx="109.681" ry="18"/>
<text text-anchor="middle" x="909.854" y="-636.866" font-family="FreeSans" font-size="14.00" fill="#6666ff">Metamodel::RolePunning</text>
</a>
</g>
</g>
<!-- Metamodel::ParametricRoleHOW -->
<g id="node15" class="node"><title>Metamodel::ParametricRoleHOW</title>
<g id="a_node15"><a xlink:href="/type/Metamodel::ParametricRoleHOW" xlink:title="Metamodel::ParametricRoleHOW">
<ellipse fill="none" stroke="#000000" cx="287.72" cy="-322.767" rx="142.175" ry="18"/>
<text text-anchor="middle" x="287.72" y="-319.067" font-family="FreeSans" font-size="14.00" fill="#000000">Metamodel::ParametricRoleHOW</text>
</a>
</g>
</g>
<!-- Metamodel::ParametricRoleHOW&#45;&gt;Metamodel::Stashing -->
<g id="edge18" class="edge"><title>Metamodel::ParametricRoleHOW&#45;&gt;Metamodel::Stashing</title>
<path fill="none" stroke="#6666ff" d="M242.471,-305.685C156.853,-273.364 -28.3692,-203.442 -119.011,-169.224"/>
<polygon fill="#6666ff" stroke="#6666ff" points="-117.941,-165.887 -128.533,-165.63 -120.414,-172.436 -117.941,-165.887"/>
</g>
<!-- Metamodel::ParametricRoleHOW&#45;&gt;Any -->
<g id="edge2" class="edge"><title>Metamodel::ParametricRoleHOW&#45;&gt;Any</title>
<path fill="none" stroke="#000000" d="M227.991,-339.117C171.127,-354.682 87.503,-377.572 40.832,-390.347"/>
<polygon fill="#000000" stroke="#000000" points="39.9017,-386.973 31.1806,-392.989 41.7498,-393.725 39.9017,-386.973"/>
</g>
<!-- Metamodel::ParametricRoleHOW&#45;&gt;Metamodel::Naming -->
<g id="edge9" class="edge"><title>Metamodel::ParametricRoleHOW&#45;&gt;Metamodel::Naming</title>
<path fill="none" stroke="#6666ff" d="M267.373,-304.785C229.092,-270.952 146.325,-197.805 103.088,-159.592"/>
<polygon fill="#6666ff" stroke="#6666ff" points="105.305,-156.88 95.4937,-152.881 100.669,-162.125 105.305,-156.88"/>
</g>
<!-- Metamodel::ParametricRoleHOW&#45;&gt;Metamodel::Documenting -->
<g id="edge10" class="edge"><title>Metamodel::ParametricRoleHOW&#45;&gt;Metamodel::Documenting</title>
<path fill="none" stroke="#6666ff" d="M178.758,-334.394C73.005,-345.679 -86.3175,-362.681 -190.102,-373.756"/>
<polygon fill="#6666ff" stroke="#6666ff" points="-190.71,-370.301 -200.282,-374.842 -189.967,-377.261 -190.71,-370.301"/>
</g>
<!-- Metamodel::ParametricRoleHOW&#45;&gt;Metamodel::Versioning -->
<g id="edge11" class="edge"><title>Metamodel::ParametricRoleHOW&#45;&gt;Metamodel::Versioning</title>
<path fill="none" stroke="#6666ff" d="M193.669,-309.231C30.0504,-285.683 -304.761,-237.498 -464.667,-214.484"/>
<polygon fill="#6666ff" stroke="#6666ff" points="-464.547,-210.966 -474.944,-213.005 -465.544,-217.894 -464.547,-210.966"/>
</g>
<!-- Metamodel::ParametricRoleHOW&#45;&gt;Metamodel::MethodContainer -->
<g id="edge12" class="edge"><title>Metamodel::ParametricRoleHOW&#45;&gt;Metamodel::MethodContainer</title>
<path fill="none" stroke="#6666ff" d="M280.431,-304.401C252.269,-233.447 152.14,18.8331 152.14,18.8331 152.14,18.8331 191.719,196.801 207.349,267.08"/>
<polygon fill="#6666ff" stroke="#6666ff" points="210.804,266.492 209.558,277.014 203.97,268.012 210.804,266.492"/>
</g>
<!-- Metamodel::ParametricRoleHOW&#45;&gt;Metamodel::PrivateMethodContainer -->
<g id="edge13" class="edge"><title>Metamodel::ParametricRoleHOW&#45;&gt;Metamodel::PrivateMethodContainer</title>
<path fill="none" stroke="#6666ff" d="M291.855,-304.408C307.828,-233.479 364.62,18.7102 364.62,18.7102 364.62,18.7102 367.36,292.271 367.36,292.271 367.36,292.271 463.297,525.904 496.881,607.692"/>
<polygon fill="#6666ff" stroke="#6666ff" points="500.186,606.525 500.747,617.105 493.71,609.184 500.186,606.525"/>
</g>
<!-- Metamodel::ParametricRoleHOW&#45;&gt;Metamodel::MultiMethodContainer -->
<g id="edge14" class="edge"><title>Metamodel::ParametricRoleHOW&#45;&gt;Metamodel::MultiMethodContainer</title>
<path fill="none" stroke="#6666ff" d="M294.405,-304.696C326.613,-217.627 465.838,158.742 504.944,264.459"/>
<polygon fill="#6666ff" stroke="#6666ff" points="508.324,263.506 508.51,274.099 501.758,265.934 508.324,263.506"/>
</g>
<!-- Metamodel::ParametricRoleHOW&#45;&gt;Metamodel::AttributeContainer -->
<g id="edge15" class="edge"><title>Metamodel::ParametricRoleHOW&#45;&gt;Metamodel::AttributeContainer</title>
<path fill="none" stroke="#6666ff" d="M303.741,-304.446C348.593,-253.154 475.522,-107.999 527.514,-48.5422"/>
<polygon fill="#6666ff" stroke="#6666ff" points="530.388,-50.5718 534.336,-40.74 525.119,-45.9639 530.388,-50.5718"/>
</g>
<!-- Metamodel::ParametricRoleHOW&#45;&gt;Metamodel::RoleContainer -->
<g id="edge16" class="edge"><title>Metamodel::ParametricRoleHOW&#45;&gt;Metamodel::RoleContainer</title>
<path fill="none" stroke="#6666ff" d="M311.188,-304.899C396.012,-240.315 681.734,-22.7667 681.734,-22.7667 681.734,-22.7667 821.729,112.89 880.861,170.19"/>
<polygon fill="#6666ff" stroke="#6666ff" points="883.571,167.942 888.317,177.415 878.7,172.969 883.571,167.942"/>
</g>
<!-- Metamodel::ParametricRoleHOW&#45;&gt;Metamodel::MultipleInheritance -->
<g id="edge17" class="edge"><title>Metamodel::ParametricRoleHOW&#45;&gt;Metamodel::MultipleInheritance</title>
<path fill="none" stroke="#6666ff" d="M256.84,-305.15C153.617,-246.264 -179.421,-56.2732 -295.025,9.67628"/>
<polygon fill="#6666ff" stroke="#6666ff" points="-293.509,12.8412 -303.93,14.7563 -296.978,6.76097 -293.509,12.8412"/>
</g>
<!-- Metamodel::ParametricRoleHOW&#45;&gt;Metamodel::TypePretense -->
<g id="edge19" class="edge"><title>Metamodel::ParametricRoleHOW&#45;&gt;Metamodel::TypePretense</title>
<path fill="none" stroke="#6666ff" d="M281.842,-340.768C262.605,-399.671 201.443,-586.952 178.229,-658.034"/>
<polygon fill="#6666ff" stroke="#6666ff" points="174.866,-657.056 175.089,-667.649 181.52,-659.23 174.866,-657.056"/>
</g>
<!-- Metamodel::ParametricRoleHOW&#45;&gt;Metamodel::RolePunning -->
<g id="edge20" class="edge"><title>Metamodel::ParametricRoleHOW&#45;&gt;Metamodel::RolePunning</title>
<path fill="none" stroke="#6666ff" d="M322.055,-340.306C428.082,-394.467 750.185,-559.004 866.977,-618.664"/>
<polygon fill="#6666ff" stroke="#6666ff" points="865.508,-621.844 876.006,-623.276 868.693,-615.61 865.508,-621.844"/>
</g>
<!-- Metamodel::C3MRO -->
<g id="node16" class="node"><title>Metamodel::C3MRO</title>
<g id="a_node16"><a xlink:href="/type/Metamodel::C3MRO" xlink:title="Metamodel::C3MRO">
<ellipse fill="none" stroke="#6666ff" cx="-887.107" cy="589.112" rx="92.0841" ry="18"/>
<text text-anchor="middle" x="-887.107" y="592.812" font-family="FreeSans" font-size="14.00" fill="#6666ff">Metamodel::C3MRO</text>
</a>
</g>
</g>
<!-- Metamodel::MROBasedMethodDispatch -->
<g id="node17" class="node"><title>Metamodel::MROBasedMethodDispatch</title>
<g id="a_node17"><a xlink:href="/type/Metamodel::MROBasedMethodDispatch" xlink:title="Metamodel::MROBasedMethodDispatch">
<ellipse fill="none" stroke="#6666ff" cx="-25.1621" cy="368.319" rx="169.77" ry="18"/>
<text text-anchor="middle" x="-25.1621" y="372.019" font-family="FreeSans" font-size="14.00" fill="#6666ff">Metamodel::MROBasedMethodDispatch</text>
</a>
</g>
</g>
<!-- Metamodel::MROBasedTypeChecking -->
<g id="node18" class="node"><title>Metamodel::MROBasedTypeChecking</title>
<g id="a_node18"><a xlink:href="/type/Metamodel::MROBasedTypeChecking" xlink:title="Metamodel::MROBasedTypeChecking">
<ellipse fill="none" stroke="#6666ff" cx="-282.443" cy="326.841" rx="163.271" ry="18"/>
<text text-anchor="middle" x="-282.443" y="330.541" font-family="FreeSans" font-size="14.00" fill="#6666ff">Metamodel::MROBasedTypeChecking</text>
</a>
</g>
</g>
<!-- Metamodel::NativeHOW -->
<g id="node19" class="node"><title>Metamodel::NativeHOW</title>
<g id="a_node19"><a xlink:href="/type/Metamodel::NativeHOW" xlink:title="Metamodel::NativeHOW">
<ellipse fill="none" stroke="#000000" cx="-900.198" cy="-250.041" rx="107.482" ry="18"/>
<text text-anchor="middle" x="-900.198" y="-246.341" font-family="FreeSans" font-size="14.00" fill="#000000">Metamodel::NativeHOW</text>
</a>
</g>
</g>
<!-- Metamodel::NativeHOW&#45;&gt;Metamodel::Stashing -->
<g id="edge24" class="edge"><title>Metamodel::NativeHOW&#45;&gt;Metamodel::Stashing</title>
<path fill="none" stroke="#6666ff" d="M-803.646,-242.108C-680.034,-231.951 -481.636,-215.649 -481.636,-215.649 -481.636,-215.649 -335.524,-184.553 -243.75,-165.021"/>
<polygon fill="#6666ff" stroke="#6666ff" points="-242.996,-168.439 -233.944,-162.934 -244.453,-161.592 -242.996,-168.439"/>
</g>
<!-- Metamodel::NativeHOW&#45;&gt;Any -->
<g id="edge3" class="edge"><title>Metamodel::NativeHOW&#45;&gt;Any</title>
<path fill="none" stroke="#000000" d="M-823.711,-262.686C-637.364,-293.491 -165.288,-371.531 -30.4177,-393.827"/>
<polygon fill="#000000" stroke="#000000" points="-30.6516,-397.336 -20.2146,-395.514 -29.5099,-390.429 -30.6516,-397.336"/>
</g>
<!-- Metamodel::NativeHOW&#45;&gt;Metamodel::Naming -->
<g id="edge21" class="edge"><title>Metamodel::NativeHOW&#45;&gt;Metamodel::Naming</title>
<path fill="none" stroke="#6666ff" d="M-803.646,-242.108C-680.034,-231.951 -481.636,-215.649 -481.636,-215.649 -481.636,-215.649 -103.929,-163.447 -103.929,-163.447 -103.929,-163.447 -53.057,-155.447 -5.48559,-147.966"/>
<polygon fill="#6666ff" stroke="#6666ff" points="-4.7388,-151.391 4.59603,-146.38 -5.82633,-144.476 -4.7388,-151.391"/>
</g>
<!-- Metamodel::NativeHOW&#45;&gt;Metamodel::Documenting -->
<g id="edge22" class="edge"><title>Metamodel::NativeHOW&#45;&gt;Metamodel::Documenting</title>
<path fill="none" stroke="#6666ff" d="M-835.26,-264.46C-722.107,-289.585 -489.413,-341.254 -369.119,-367.964"/>
<polygon fill="#6666ff" stroke="#6666ff" points="-369.766,-371.406 -359.245,-370.157 -368.249,-364.572 -369.766,-371.406"/>
</g>
<!-- Metamodel::NativeHOW&#45;&gt;Metamodel::Versioning -->
<g id="edge23" class="edge"><title>Metamodel::NativeHOW&#45;&gt;Metamodel::Versioning</title>
<path fill="none" stroke="#6666ff" d="M-817.599,-238.523C-765.105,-231.203 -697.149,-221.727 -643.319,-214.22"/>
<polygon fill="#6666ff" stroke="#6666ff" points="-642.515,-217.642 -633.095,-212.794 -643.482,-210.709 -642.515,-217.642"/>
</g>
<!-- Metamodel::NativeHOW&#45;&gt;Metamodel::MultipleInheritance -->
<g id="edge25" class="edge"><title>Metamodel::NativeHOW&#45;&gt;Metamodel::MultipleInheritance</title>
<path fill="none" stroke="#6666ff" d="M-865.693,-232.794C-767.764,-183.843 -488.161,-44.0809 -379.212,10.3778"/>
<polygon fill="#6666ff" stroke="#6666ff" points="-377.51,7.31588 -370.13,14.9177 -380.64,13.5772 -377.51,7.31588"/>
</g>
<!-- Metamodel::NativeHOW&#45;&gt;Metamodel::C3MRO -->
<g id="edge26" class="edge"><title>Metamodel::NativeHOW&#45;&gt;Metamodel::C3MRO</title>
<path fill="none" stroke="#6666ff" d="M-895.86,-231.97C-877.237,-154.387 -805.002,146.543 -805.002,146.543 -805.002,146.543 -863.795,463.452 -881.879,560.929"/>
<polygon fill="#6666ff" stroke="#6666ff" points="-878.47,561.744 -883.736,570.938 -885.353,560.467 -878.47,561.744"/>
</g>
<!-- Metamodel::NativeHOW&#45;&gt;Metamodel::MROBasedMethodDispatch -->
<g id="edge27" class="edge"><title>Metamodel::NativeHOW&#45;&gt;Metamodel::MROBasedMethodDispatch</title>
<path fill="none" stroke="#6666ff" d="M-874.954,-232.202C-750.344,-144.144 -201.148,243.955 -58.9009,344.477"/>
<polygon fill="#6666ff" stroke="#6666ff" points="-56.6557,341.778 -50.5089,350.407 -60.6955,347.495 -56.6557,341.778"/>
</g>
<!-- Metamodel::NativeHOW&#45;&gt;Metamodel::MROBasedTypeChecking -->
<g id="edge28" class="edge"><title>Metamodel::NativeHOW&#45;&gt;Metamodel::MROBasedTypeChecking</title>
<path fill="none" stroke="#6666ff" d="M-881.033,-232.144C-791.418,-148.458 -413.695,204.274 -309.284,301.776"/>
<polygon fill="#6666ff" stroke="#6666ff" points="-306.61,299.485 -301.69,308.868 -311.388,304.601 -306.61,299.485"/>
</g>
<!-- Metamodel::MethodDelegation -->
<g id="node20" class="node"><title>Metamodel::MethodDelegation</title>
<g id="a_node20"><a xlink:href="/type/Metamodel::MethodDelegation" xlink:title="Metamodel::MethodDelegation">
<ellipse fill="none" stroke="#6666ff" cx="-882.334" cy="-653.24" rx="131.077" ry="18"/>
<text text-anchor="middle" x="-882.334" y="-649.54" font-family="FreeSans" font-size="14.00" fill="#6666ff">Metamodel::MethodDelegation</text>
</a>
</g>
</g>
<!-- Metamodel::ModuleHOW -->
<g id="node21" class="node"><title>Metamodel::ModuleHOW</title>
<g id="a_node21"><a xlink:href="/type/Metamodel::ModuleHOW" xlink:title="Metamodel::ModuleHOW">
<ellipse fill="none" stroke="#000000" cx="-496.86" cy="-657.722" rx="111.28" ry="18"/>
<text text-anchor="middle" x="-496.86" y="-654.022" font-family="FreeSans" font-size="14.00" fill="#000000">Metamodel::ModuleHOW</text>
</a>
</g>
</g>
<!-- Metamodel::ModuleHOW&#45;&gt;Metamodel::Stashing -->
<g id="edge32" class="edge"><title>Metamodel::ModuleHOW&#45;&gt;Metamodel::Stashing</title>
<path fill="none" stroke="#6666ff" d="M-490.766,-639.38C-470.424,-578.149 -406.133,-384.629 -406.133,-384.629 -406.133,-384.629 -257.202,-235.673 -196.448,-174.909"/>
<polygon fill="#6666ff" stroke="#6666ff" points="-193.75,-177.161 -189.155,-167.615 -198.7,-172.212 -193.75,-177.161"/>
</g>
<!-- Metamodel::ModuleHOW&#45;&gt;Any -->
<g id="edge4" class="edge"><title>Metamodel::ModuleHOW&#45;&gt;Any</title>
<path fill="none" stroke="#000000" d="M-463.08,-640.403C-370.429,-592.9 -113.313,-461.074 -24.535,-415.556"/>
<polygon fill="#000000" stroke="#000000" points="-22.8188,-418.609 -15.5171,-410.933 -26.0125,-412.38 -22.8188,-418.609"/>
</g>
<!-- Metamodel::ModuleHOW&#45;&gt;Metamodel::Naming -->
<g id="edge29" class="edge"><title>Metamodel::ModuleHOW&#45;&gt;Metamodel::Naming</title>
<path fill="none" stroke="#6666ff" d="M-476.113,-639.824C-405.767,-579.134 -180.659,-384.927 -180.659,-384.927 -180.659,-384.927 -15.3568,-223.804 49.6785,-160.413"/>
<polygon fill="#6666ff" stroke="#6666ff" points="52.3766,-162.671 57.0947,-153.185 47.4906,-157.658 52.3766,-162.671"/>
</g>
<!-- Metamodel::ModuleHOW&#45;&gt;Metamodel::Documenting -->
<g id="edge30" class="edge"><title>Metamodel::ModuleHOW&#45;&gt;Metamodel::Documenting</title>
<path fill="none" stroke="#6666ff" d="M-483.51,-639.814C-448.516,-592.869 -354.003,-466.082 -312.914,-410.961"/>
<polygon fill="#6666ff" stroke="#6666ff" points="-309.965,-412.862 -306.795,-402.753 -315.578,-408.679 -309.965,-412.862"/>
</g>
<!-- Metamodel::ModuleHOW&#45;&gt;Metamodel::Versioning -->
<g id="edge31" class="edge"><title>Metamodel::ModuleHOW&#45;&gt;Metamodel::Versioning</title>
<path fill="none" stroke="#6666ff" d="M-499.116,-639.564C-507.839,-569.348 -539.403,-315.289 -550.01,-229.909"/>
<polygon fill="#6666ff" stroke="#6666ff" points="-546.547,-229.4 -551.253,-219.907 -553.493,-230.263 -546.547,-229.4"/>
</g>
<!-- Metamodel::ModuleHOW&#45;&gt;Metamodel::TypePretense -->
<g id="edge33" class="edge"><title>Metamodel::ModuleHOW&#45;&gt;Metamodel::TypePretense</title>
<path fill="none" stroke="#6666ff" d="M-389.11,-662.258C-269.414,-667.296 -76.6268,-675.412 48.1674,-680.665"/>
<polygon fill="#6666ff" stroke="#6666ff" points="48.3895,-684.177 58.5279,-681.101 48.684,-677.183 48.3895,-684.177"/>
</g>
<!-- Metamodel::ModuleHOW&#45;&gt;Metamodel::MethodDelegation -->
<g id="edge34" class="edge"><title>Metamodel::ModuleHOW&#45;&gt;Metamodel::MethodDelegation</title>
<path fill="none" stroke="#6666ff" d="M-607.838,-656.432C-649.416,-655.949 -697.225,-655.393 -741.173,-654.882"/>
<polygon fill="#6666ff" stroke="#6666ff" points="-741.328,-651.38 -751.368,-654.763 -741.409,-658.379 -741.328,-651.38"/>
</g>
<!-- Metamodel::PackageHOW -->
<g id="node22" class="node"><title>Metamodel::PackageHOW</title>
<g id="a_node22"><a xlink:href="/type/Metamodel::PackageHOW" xlink:title="Metamodel::PackageHOW">
<ellipse fill="none" stroke="#000000" cx="-150.648" cy="-704.987" rx="116.18" ry="18"/>
<text text-anchor="middle" x="-150.648" y="-701.287" font-family="FreeSans" font-size="14.00" fill="#000000">Metamodel::PackageHOW</text>
</a>
</g>
</g>
<!-- Metamodel::PackageHOW&#45;&gt;Metamodel::Stashing -->
<g id="edge37" class="edge"><title>Metamodel::PackageHOW&#45;&gt;Metamodel::Stashing</title>
<path fill="none" stroke="#6666ff" d="M-151.317,-686.822C-154.304,-605.73 -166.429,-276.459 -170.066,-177.695"/>
<polygon fill="#6666ff" stroke="#6666ff" points="-166.573,-177.45 -170.439,-167.585 -173.568,-177.707 -166.573,-177.45"/>
</g>
<!-- Metamodel::PackageHOW&#45;&gt;Any -->
<g id="edge5" class="edge"><title>Metamodel::PackageHOW&#45;&gt;Any</title>
<path fill="none" stroke="#000000" d="M-141.314,-686.813C-114.729,-635.056 -38.5327,-486.712 -7.40996,-426.12"/>
<polygon fill="#000000" stroke="#000000" points="-4.27216,-427.672 -2.81645,-417.177 -10.4988,-424.473 -4.27216,-427.672"/>
</g>
<!-- Metamodel::PackageHOW&#45;&gt;Metamodel::Naming -->
<g id="edge35" class="edge"><title>Metamodel::PackageHOW&#45;&gt;Metamodel::Naming</title>
<path fill="none" stroke="#6666ff" d="M-143.506,-686.994C-110.767,-604.517 25.0561,-262.351 64.6442,-162.621"/>
<polygon fill="#6666ff" stroke="#6666ff" points="67.9379,-163.81 68.3744,-153.224 61.4317,-161.227 67.9379,-163.81"/>
</g>
<!-- Metamodel::PackageHOW&#45;&gt;Metamodel::Documenting -->
<g id="edge36" class="edge"><title>Metamodel::PackageHOW&#45;&gt;Metamodel::Documenting</title>
<path fill="none" stroke="#6666ff" d="M-158.732,-686.853C-182.525,-633.481 -252.427,-476.679 -281.005,-412.572"/>
<polygon fill="#6666ff" stroke="#6666ff" points="-277.955,-410.818 -285.224,-403.11 -284.349,-413.668 -277.955,-410.818"/>
</g>
<!-- Metamodel::PackageHOW&#45;&gt;Metamodel::TypePretense -->
<g id="edge38" class="edge"><title>Metamodel::PackageHOW&#45;&gt;Metamodel::TypePretense</title>
<path fill="none" stroke="#6666ff" d="M-41.9245,-698.45C-11.7443,-696.636 21.1552,-694.658 51.806,-692.815"/>
<polygon fill="#6666ff" stroke="#6666ff" points="52.3353,-696.289 62.1072,-692.195 51.9151,-689.302 52.3353,-696.289"/>
</g>
<!-- Metamodel::PackageHOW&#45;&gt;Metamodel::MethodDelegation -->
<g id="edge39" class="edge"><title>Metamodel::PackageHOW&#45;&gt;Metamodel::MethodDelegation</title>
<path fill="none" stroke="#6666ff" d="M-256.651,-697.49C-388.733,-688.149 -614.207,-672.203 -755.372,-662.219"/>
<polygon fill="#6666ff" stroke="#6666ff" points="-755.166,-658.725 -765.388,-661.511 -755.659,-665.708 -755.166,-658.725"/>
</g>
<!-- Metamodel::BoolificationProtocol -->
<g id="node23" class="node"><title>Metamodel::BoolificationProtocol</title>
<g id="a_node23"><a xlink:href="/type/Metamodel::BoolificationProtocol" xlink:title="Metamodel::BoolificationProtocol">
<ellipse fill="none" stroke="#6666ff" cx="934.296" cy="-196.513" rx="139.175" ry="18"/>
<text text-anchor="middle" x="934.296" y="-192.813" font-family="FreeSans" font-size="14.00" fill="#6666ff">Metamodel::BoolificationProtocol</text>
</a>
</g>
</g>
<!-- Metamodel::ParametricRoleGroupHOW -->
<g id="node24" class="node"><title>Metamodel::ParametricRoleGroupHOW</title>
<g id="a_node24"><a xlink:href="/type/Metamodel::ParametricRoleGroupHOW" xlink:title="Metamodel::ParametricRoleGroupHOW">
<ellipse fill="none" stroke="#000000" cx="588.463" cy="-339.634" rx="167.07" ry="18"/>
<text text-anchor="middle" x="588.463" y="-335.934" font-family="FreeSans" font-size="14.00" fill="#000000">Metamodel::ParametricRoleGroupHOW</text>
</a>
</g>
</g>
<!-- Metamodel::ParametricRoleGroupHOW&#45;&gt;Metamodel::Stashing -->
<g id="edge41" class="edge"><title>Metamodel::ParametricRoleGroupHOW&#45;&gt;Metamodel::Stashing</title>
<path fill="none" stroke="#6666ff" d="M522.385,-323.098C379.016,-287.222 40.7011,-202.561 -103.784,-166.405"/>
<polygon fill="#6666ff" stroke="#6666ff" points="-103.297,-162.92 -113.847,-163.887 -104.996,-169.71 -103.297,-162.92"/>
</g>
<!-- Metamodel::ParametricRoleGroupHOW&#45;&gt;Any -->
<g id="edge6" class="edge"><title>Metamodel::ParametricRoleGroupHOW&#45;&gt;Any</title>
<path fill="none" stroke="#000000" d="M467.792,-352.113C334.239,-365.924 126.794,-387.377 43.0243,-396.04"/>
<polygon fill="#000000" stroke="#000000" points="42.5568,-392.569 32.9699,-397.079 43.2769,-399.532 42.5568,-392.569"/>
</g>
<!-- Metamodel::ParametricRoleGroupHOW&#45;&gt;Metamodel::Naming -->
<g id="edge40" class="edge"><title>Metamodel::ParametricRoleGroupHOW&#45;&gt;Metamodel::Naming</title>
<path fill="none" stroke="#6666ff" d="M544.729,-322.206C449.792,-284.374 225.33,-194.926 125.217,-155.031"/>
<polygon fill="#6666ff" stroke="#6666ff" points="126.511,-151.779 115.925,-151.329 123.919,-158.282 126.511,-151.779"/>
</g>
<!-- Metamodel::ParametricRoleGroupHOW&#45;&gt;Metamodel::TypePretense -->
<g id="edge42" class="edge"><title>Metamodel::ParametricRoleGroupHOW&#45;&gt;Metamodel::TypePretense</title>
<path fill="none" stroke="#6666ff" d="M566.803,-357.514C497.149,-415.013 278.814,-595.251 198.878,-661.238"/>
<polygon fill="#6666ff" stroke="#6666ff" points="196.189,-658.92 190.705,-667.985 200.645,-664.318 196.189,-658.92"/>
</g>
<!-- Metamodel::ParametricRoleGroupHOW&#45;&gt;Metamodel::RolePunning -->
<g id="edge43" class="edge"><title>Metamodel::ParametricRoleGroupHOW&#45;&gt;Metamodel::RolePunning</title>
<path fill="none" stroke="#6666ff" d="M607.605,-357.557C662.423,-408.886 820.105,-556.53 883.245,-615.651"/>
<polygon fill="#6666ff" stroke="#6666ff" points="881.12,-618.457 890.812,-622.737 885.905,-613.347 881.12,-618.457"/>
</g>
<!-- Metamodel::ParametricRoleGroupHOW&#45;&gt;Metamodel::BoolificationProtocol -->
<g id="edge44" class="edge"><title>Metamodel::ParametricRoleGroupHOW&#45;&gt;Metamodel::BoolificationProtocol</title>
<path fill="none" stroke="#6666ff" d="M630.869,-322.084C694.606,-295.707 814.904,-245.922 883.325,-217.607"/>
<polygon fill="#6666ff" stroke="#6666ff" points="884.722,-220.817 892.623,-213.759 882.045,-214.349 884.722,-220.817"/>
</g>
<!-- Metamodel::Finalization -->
<g id="node25" class="node"><title>Metamodel::Finalization</title>
<g id="a_node25"><a xlink:href="/type/Metamodel::Finalization" xlink:title="Metamodel::Finalization">
<ellipse fill="none" stroke="#6666ff" cx="-910.588" cy="146.72" rx="103.982" ry="18"/>
<text text-anchor="middle" x="-910.588" y="150.42" font-family="FreeSans" font-size="14.00" fill="#6666ff">Metamodel::Finalization</text>
</a>
</g>
</g>
<!-- Metamodel::DefaultParent -->
<g id="node26" class="node"><title>Metamodel::DefaultParent</title>
<g id="a_node26"><a xlink:href="/type/Metamodel::DefaultParent" xlink:title="Metamodel::DefaultParent">
<ellipse fill="none" stroke="#6666ff" cx="-143.209" cy="659.463" rx="113.18" ry="18"/>
<text text-anchor="middle" x="-143.209" y="663.163" font-family="FreeSans" font-size="14.00" fill="#6666ff">Metamodel::DefaultParent</text>
</a>
</g>
</g>
<!-- Metamodel::Trusting -->
<g id="node27" class="node"><title>Metamodel::Trusting</title>
<g id="a_node27"><a xlink:href="/type/Metamodel::Trusting" xlink:title="Metamodel::Trusting">
<ellipse fill="none" stroke="#6666ff" cx="177.427" cy="640.228" rx="91.784" ry="18"/>
<text text-anchor="middle" x="177.427" y="643.928" font-family="FreeSans" font-size="14.00" fill="#6666ff">Metamodel::Trusting</text>
</a>
</g>
</g>
<!-- Metamodel::BUILDPLAN -->
<g id="node28" class="node"><title>Metamodel::BUILDPLAN</title>
<g id="a_node28"><a xlink:href="/type/Metamodel::BUILDPLAN" xlink:title="Metamodel::BUILDPLAN">
<ellipse fill="none" stroke="#6666ff" cx="-576.553" cy="229.245" rx="109.681" ry="18"/>
<text text-anchor="middle" x="-576.553" y="232.945" font-family="FreeSans" font-size="14.00" fill="#6666ff">Metamodel::BUILDPLAN</text>
</a>
</g>
</g>
<!-- Metamodel::Mixins -->
<g id="node29" class="node"><title>Metamodel::Mixins</title>
<g id="a_node29"><a xlink:href="/type/Metamodel::Mixins" xlink:title="Metamodel::Mixins">
<ellipse fill="none" stroke="#6666ff" cx="-488.742" cy="629.1" rx="85.2851" ry="18"/>
<text text-anchor="middle" x="-488.742" y="632.8" font-family="FreeSans" font-size="14.00" fill="#6666ff">Metamodel::Mixins</text>
</a>
</g>
</g>
<!-- Metamodel::ClassHOW -->
<g id="node30" class="node"><title>Metamodel::ClassHOW</title>
<g id="a_node30"><a xlink:href="/type/Metamodel::ClassHOW" xlink:title="Metamodel::ClassHOW">
<ellipse fill="none" stroke="#000000" cx="-44.1306" cy="98.002" rx="103.982" ry="18"/>
<text text-anchor="middle" x="-44.1306" y="101.702" font-family="FreeSans" font-size="14.00" fill="#000000">Metamodel::ClassHOW</text>
</a>
</g>
</g>
<!-- Metamodel::ClassHOW&#45;&gt;Metamodel::Stashing -->
<g id="edge48" class="edge"><title>Metamodel::ClassHOW&#45;&gt;Metamodel::Stashing</title>
<path fill="none" stroke="#6666ff" d="M-53.4672,79.7982C-75.5265,36.7884 -130.971,-71.3141 -157.086,-122.23"/>
<polygon fill="#6666ff" stroke="#6666ff" points="-160.303,-120.834 -161.752,-131.329 -154.074,-124.028 -160.303,-120.834"/>
</g>
<!-- Metamodel::ClassHOW&#45;&gt;Any -->
<g id="edge7" class="edge"><title>Metamodel::ClassHOW&#45;&gt;Any</title>
<path fill="none" stroke="#000000" d="M-42.314,79.9887C-34.7792,5.27507 -5.95102,-280.579 3.24309,-371.746"/>
<polygon fill="#000000" stroke="#000000" points="-0.221585,-372.273 4.26424,-381.871 6.74309,-371.57 -0.221585,-372.273"/>
</g>
<!-- Metamodel::ClassHOW&#45;&gt;Metamodel::Naming -->
<g id="edge45" class="edge"><title>Metamodel::ClassHOW&#45;&gt;Metamodel::Naming</title>
<path fill="none" stroke="#6666ff" d="M-34.742,79.7009C-13.7733,38.8273 36.9548,-60.0557 61.6071,-108.11"/>
<polygon fill="#6666ff" stroke="#6666ff" points="58.4946,-109.711 66.1733,-117.011 64.7228,-106.516 58.4946,-109.711"/>
</g>
<!-- Metamodel::ClassHOW&#45;&gt;Metamodel::Documenting -->
<g id="edge46" class="edge"><title>Metamodel::ClassHOW&#45;&gt;Metamodel::Documenting</title>
<path fill="none" stroke="#6666ff" d="M-60.1081,80.2008C-111.048,23.4464 -266.294,-149.52 -266.294,-149.52 -266.294,-149.52 -282.981,-294.375 -290.168,-356.754"/>
<polygon fill="#6666ff" stroke="#6666ff" points="-293.647,-356.374 -291.314,-366.709 -286.693,-357.175 -293.647,-356.374"/>
</g>
<!-- Metamodel::ClassHOW&#45;&gt;Metamodel::Versioning -->
<g id="edge47" class="edge"><title>Metamodel::ClassHOW&#45;&gt;Metamodel::Versioning</title>
<path fill="none" stroke="#6666ff" d="M-73.7191,80.5935C-161.126,29.167 -418.132,-122.044 -515.519,-179.342"/>
<polygon fill="#6666ff" stroke="#6666ff" points="-517.319,-176.34 -524.163,-184.428 -513.77,-182.374 -517.319,-176.34"/>
</g>
<!-- Metamodel::ClassHOW&#45;&gt;Metamodel::MethodContainer -->
<g id="edge51" class="edge"><title>Metamodel::ClassHOW&#45;&gt;Metamodel::MethodContainer</title>
<path fill="none" stroke="#6666ff" d="M-20.8051,115.845C25.6526,151.382 129.768,231.024 182.18,271.117"/>
<polygon fill="#6666ff" stroke="#6666ff" points="184.315,268.343 190.131,277.199 180.062,273.903 184.315,268.343"/>
</g>
<!-- Metamodel::ClassHOW&#45;&gt;Metamodel::PrivateMethodContainer -->
<g id="edge52" class="edge"><title>Metamodel::ClassHOW&#45;&gt;Metamodel::PrivateMethodContainer</title>
<path fill="none" stroke="#6666ff" d="M-32.2504,116.206C-0.381134,165.04 84.6035,295.262 84.6035,295.262 84.6035,295.262 381.404,533.629 478.199,611.367"/>
<polygon fill="#6666ff" stroke="#6666ff" points="480.536,608.754 486.141,617.745 476.152,614.212 480.536,608.754"/>
</g>
<!-- Metamodel::ClassHOW&#45;&gt;Metamodel::MultiMethodContainer -->
<g id="edge53" class="edge"><title>Metamodel::ClassHOW&#45;&gt;Metamodel::MultiMethodContainer</title>
<path fill="none" stroke="#6666ff" d="M2.59514,114.223C104.158,149.48 344.852,233.036 456.472,271.785"/>
<polygon fill="#6666ff" stroke="#6666ff" points="457.919,268.582 466.218,275.168 455.623,275.195 457.919,268.582"/>
</g>
<!-- Metamodel::ClassHOW&#45;&gt;Metamodel::AttributeContainer -->
<g id="edge49" class="edge"><title>Metamodel::ClassHOW&#45;&gt;Metamodel::AttributeContainer</title>
<path fill="none" stroke="#6666ff" d="M29.6234,85.2341C139.59,66.1973 333.739,32.5874 333.739,32.5874 333.739,32.5874 415.232,11.7834 478.202,-4.29174"/>
<polygon fill="#6666ff" stroke="#6666ff" points="477.578,-7.74483 488.133,-6.82718 479.31,-0.962351 477.578,-7.74483"/>
</g>
<!-- Metamodel::ClassHOW&#45;&gt;Metamodel::RoleContainer -->
<g id="edge54" class="edge"><title>Metamodel::ClassHOW&#45;&gt;Metamodel::RoleContainer</title>
<path fill="none" stroke="#6666ff" d="M45.7522,107.195C221.675,125.189 610.74,164.982 799.648,184.304"/>
<polygon fill="#6666ff" stroke="#6666ff" points="800.277,180.85 809.869,185.349 799.564,187.814 800.277,180.85"/>
</g>
<!-- Metamodel::ClassHOW&#45;&gt;Metamodel::MultipleInheritance -->
<g id="edge55" class="edge"><title>Metamodel::ClassHOW&#45;&gt;Metamodel::MultipleInheritance</title>
<path fill="none" stroke="#6666ff" d="M-107.603,83.7037C-151.377,73.8429 -209.859,60.6687 -256.553,50.1501"/>
<polygon fill="#6666ff" stroke="#6666ff" points="-257.342,53.5602 -266.329,47.948 -255.804,46.7313 -257.342,53.5602"/>
</g>
<!-- Metamodel::ClassHOW&#45;&gt;Metamodel::C3MRO -->
<g id="edge57" class="edge"><title>Metamodel::ClassHOW&#45;&gt;Metamodel::C3MRO</title>
<path fill="none" stroke="#6666ff" d="M-74.755,115.404C-168.811,168.851 -447.171,327.028 -447.171,327.028 -447.171,327.028 -742.88,503.191 -849.42,566.661"/>
<polygon fill="#6666ff" stroke="#6666ff" points="-847.86,569.805 -858.242,571.916 -851.442,563.791 -847.86,569.805"/>
</g>
<!-- Metamodel::ClassHOW&#45;&gt;Metamodel::MROBasedMethodDispatch -->
<g id="edge58" class="edge"><title>Metamodel::ClassHOW&#45;&gt;Metamodel::MROBasedMethodDispatch</title>
<path fill="none" stroke="#6666ff" d="M-42.8566,116.158C-39.617,162.325 -31.0461,284.467 -27.1454,340.054"/>
<polygon fill="#6666ff" stroke="#6666ff" points="-23.6392,340.022 -26.4306,350.242 -30.6221,340.512 -23.6392,340.022"/>
</g>
<!-- Metamodel::ClassHOW&#45;&gt;Metamodel::MROBasedTypeChecking -->
<g id="edge59" class="edge"><title>Metamodel::ClassHOW&#45;&gt;Metamodel::MROBasedTypeChecking</title>
<path fill="none" stroke="#6666ff" d="M-62.8306,115.959C-105.013,156.464 -207.662,255.033 -256.194,301.635"/>
<polygon fill="#6666ff" stroke="#6666ff" points="-253.863,304.25 -263.501,308.652 -258.712,299.201 -253.863,304.25"/>
</g>
<!-- Metamodel::ClassHOW&#45;&gt;Metamodel::BoolificationProtocol -->
<g id="edge63" class="edge"><title>Metamodel::ClassHOW&#45;&gt;Metamodel::BoolificationProtocol</title>
<path fill="none" stroke="#6666ff" d="M-3.5204,81.3672C61.8166,54.6038 183.021,4.95584 183.021,4.95584 183.021,4.95584 677.357,-127.61 864.049,-177.675"/>
<polygon fill="#6666ff" stroke="#6666ff" points="863.204,-181.072 873.77,-180.282 865.017,-174.311 863.204,-181.072"/>
</g>
<!-- Metamodel::ClassHOW&#45;&gt;Metamodel::Finalization -->
<g id="edge50" class="edge"><title>Metamodel::ClassHOW&#45;&gt;Metamodel::Finalization</title>
<path fill="none" stroke="#6666ff" d="M-143.102,103.567C-306.498,112.754 -631.471,131.026 -801.362,140.578"/>
<polygon fill="#6666ff" stroke="#6666ff" points="-801.396,144.086 -811.577,141.153 -801.789,137.097 -801.396,144.086"/>
</g>
<!-- Metamodel::ClassHOW&#45;&gt;Metamodel::DefaultParent -->
<g id="edge56" class="edge"><title>Metamodel::ClassHOW&#45;&gt;Metamodel::DefaultParent</title>
<path fill="none" stroke="#6666ff" d="M-50.028,116.327C-67.4894,170.586 -117.715,326.655 -117.715,326.655 -117.715,326.655 -196.396,368.372 -196.396,368.372 -196.396,368.372 -161.679,558.378 -148.342,631.37"/>
<polygon fill="#6666ff" stroke="#6666ff" points="-144.89,630.787 -146.536,641.254 -151.776,632.046 -144.89,630.787"/>
</g>
<!-- Metamodel::ClassHOW&#45;&gt;Metamodel::Trusting -->
<g id="edge60" class="edge"><title>Metamodel::ClassHOW&#45;&gt;Metamodel::Trusting</title>
<path fill="none" stroke="#6666ff" d="M-32.2504,116.206C-0.381134,165.04 84.6035,295.262 84.6035,295.262 84.6035,295.262 146.072,368.267 146.072,368.267 146.072,368.267 166.092,541.909 174.137,611.696"/>
<polygon fill="#6666ff" stroke="#6666ff" points="177.653,611.627 175.321,621.962 170.699,612.429 177.653,611.627"/>
</g>
<!-- Metamodel::ClassHOW&#45;&gt;Metamodel::BUILDPLAN -->
<g id="edge61" class="edge"><title>Metamodel::ClassHOW&#45;&gt;Metamodel::BUILDPLAN</title>
<path fill="none" stroke="#6666ff" d="M-103.914,112.739C-202.733,137.098 -399.713,185.654 -505.49,211.728"/>
<polygon fill="#6666ff" stroke="#6666ff" points="-504.888,215.184 -515.435,214.179 -506.564,208.388 -504.888,215.184"/>
</g>
<!-- Metamodel::ClassHOW&#45;&gt;Metamodel::Mixins -->
<g id="edge62" class="edge"><title>Metamodel::ClassHOW&#45;&gt;Metamodel::Mixins</title>
<path fill="none" stroke="#6666ff" d="M-50.028,116.327C-67.4894,170.586 -117.715,326.655 -117.715,326.655 -117.715,326.655 -196.396,368.372 -196.396,368.372 -196.396,368.372 -388.355,539.57 -461.177,604.516"/>
<polygon fill="#6666ff" stroke="#6666ff" points="-458.855,607.135 -468.648,611.179 -463.514,601.911 -458.855,607.135"/>
</g>
<!-- Metamodel::BaseType -->
<g id="node31" class="node"><title>Metamodel::BaseType</title>
<g id="a_node31"><a xlink:href="/type/Metamodel::BaseType" xlink:title="Metamodel::BaseType">
<ellipse fill="none" stroke="#6666ff" cx="906.981" cy="600.576" rx="99.3824" ry="18"/>
<text text-anchor="middle" x="906.981" y="604.276" font-family="FreeSans" font-size="14.00" fill="#6666ff">Metamodel::BaseType</text>
</a>
</g>
</g>
<!-- Metamodel::EnumHOW -->
<g id="node32" class="node"><title>Metamodel::EnumHOW</title>
<g id="a_node32"><a xlink:href="/type/Metamodel::EnumHOW" xlink:title="Metamodel::EnumHOW">
<ellipse fill="none" stroke="#000000" cx="258.38" cy="18.7716" rx="104.782" ry="18"/>
<text text-anchor="middle" x="258.38" y="22.4716" font-family="FreeSans" font-size="14.00" fill="#000000">Metamodel::EnumHOW</text>
</a>
</g>
</g>
<!-- Metamodel::EnumHOW&#45;&gt;Metamodel::Stashing -->
<g id="edge65" class="edge"><title>Metamodel::EnumHOW&#45;&gt;Metamodel::Stashing</title>
<path fill="none" stroke="#6666ff" d="M216.024,2.17071C136.553,-28.9771 -34.597,-96.0576 -120.19,-129.605"/>
<polygon fill="#6666ff" stroke="#6666ff" points="-121.662,-126.422 -129.695,-133.33 -119.107,-132.94 -121.662,-126.422"/>
</g>
<!-- Metamodel::EnumHOW&#45;&gt;Any -->
<g id="edge8" class="edge"><title>Metamodel::EnumHOW&#45;&gt;Any</title>
<path fill="none" stroke="#000000" d="M247.772,0.788571C223.788,-39.8709 167.458,-135.365 167.458,-135.365 167.458,-135.365 62.1741,-307.922 21.6845,-374.283"/>
<polygon fill="#000000" stroke="#000000" points="18.6397,-372.553 16.4189,-382.913 24.6152,-376.199 18.6397,-372.553"/>
</g>
<!-- Metamodel::EnumHOW&#45;&gt;Metamodel::Naming -->
<g id="edge64" class="edge"><title>Metamodel::EnumHOW&#45;&gt;Metamodel::Naming</title>
<path fill="none" stroke="#6666ff" d="M237.403,1.10608C204.697,-26.4375 141.473,-79.6826 104.456,-110.857"/>
<polygon fill="#6666ff" stroke="#6666ff" points="101.926,-108.412 96.5311,-117.531 106.435,-113.766 101.926,-108.412"/>
</g>
<!-- Metamodel::EnumHOW&#45;&gt;Metamodel::MethodContainer -->
<g id="edge67" class="edge"><title>Metamodel::EnumHOW&#45;&gt;Metamodel::MethodContainer</title>
<path fill="none" stroke="#6666ff" d="M255.441,36.9052C247.817,83.95 227.358,210.186 218.169,266.886"/>
<polygon fill="#6666ff" stroke="#6666ff" points="221.594,267.632 216.539,276.943 214.684,266.512 221.594,267.632"/>
</g>
<!-- Metamodel::EnumHOW&#45;&gt;Metamodel::MultiMethodContainer -->
<g id="edge68" class="edge"><title>Metamodel::EnumHOW&#45;&gt;Metamodel::MultiMethodContainer</title>
<path fill="none" stroke="#6666ff" d="M275.23,36.7101C319.583,83.9262 439.68,211.778 491.197,266.622"/>
<polygon fill="#6666ff" stroke="#6666ff" points="493.987,264.481 498.283,274.166 488.885,269.274 493.987,264.481"/>
</g>
<!-- Metamodel::EnumHOW&#45;&gt;Metamodel::AttributeContainer -->
<g id="edge66" class="edge"><title>Metamodel::EnumHOW&#45;&gt;Metamodel::AttributeContainer</title>
<path fill="none" stroke="#6666ff" d="M339.266,7.28607C373.334,2.44853 413.346,-3.23311 449.309,-8.33973"/>
<polygon fill="#6666ff" stroke="#6666ff" points="448.944,-11.8229 459.337,-9.76363 449.929,-4.89244 448.944,-11.8229"/>
</g>
<!-- Metamodel::EnumHOW&#45;&gt;Metamodel::RoleContainer -->
<g id="edge69" class="edge"><title>Metamodel::EnumHOW&#45;&gt;Metamodel::RoleContainer</title>
<path fill="none" stroke="#6666ff" d="M314.501,34.048C433.526,66.4475 710.87,141.942 839.275,176.895"/>
<polygon fill="#6666ff" stroke="#6666ff" points="840.272,173.539 849.002,179.543 838.434,180.293 840.272,173.539"/>
</g>
<!-- Metamodel::EnumHOW&#45;&gt;Metamodel::MROBasedMethodDispatch -->
<g id="edge71" class="edge"><title>Metamodel::EnumHOW&#45;&gt;Metamodel::MROBasedMethodDispatch</title>
<path fill="none" stroke="#6666ff" d="M243.535,37.0727C196.547,94.9985 50.9529,274.486 -3.93388,342.149"/>
<polygon fill="#6666ff" stroke="#6666ff" points="-1.44587,344.638 -10.4638,350.199 -6.88222,340.228 -1.44587,344.638"/>
</g>
<!-- Metamodel::EnumHOW&#45;&gt;Metamodel::MROBasedTypeChecking -->
<g id="edge72" class="edge"><title>Metamodel::EnumHOW&#45;&gt;Metamodel::MROBasedTypeChecking</title>
<path fill="none" stroke="#6666ff" d="M227.753,36.2175C135.677,88.6672 -138.657,244.936 -242.242,303.942"/>
<polygon fill="#6666ff" stroke="#6666ff" points="-240.723,307.104 -251.145,309.013 -244.188,301.022 -240.723,307.104"/>
</g>
<!-- Metamodel::EnumHOW&#45;&gt;Metamodel::BoolificationProtocol -->
<g id="edge74" class="edge"><title>Metamodel::EnumHOW&#45;&gt;Metamodel::BoolificationProtocol</title>
<path fill="none" stroke="#6666ff" d="M308.356,2.85382C429.624,-35.7708 739.256,-134.391 872.161,-176.723"/>
<polygon fill="#6666ff" stroke="#6666ff" points="871.211,-180.093 881.801,-179.793 873.335,-173.423 871.211,-180.093"/>
</g>
<!-- Metamodel::EnumHOW&#45;&gt;Metamodel::BUILDPLAN -->
<g id="edge73" class="edge"><title>Metamodel::EnumHOW&#45;&gt;Metamodel::BUILDPLAN</title>
<path fill="none" stroke="#6666ff" d="M184.264,31.6178C74.3496,50.6689 -119.04,84.1884 -119.04,84.1884 -119.04,84.1884 -391.753,170.653 -516.077,210.071"/>
<polygon fill="#6666ff" stroke="#6666ff" points="-515.253,213.481 -525.843,213.167 -517.368,206.808 -515.253,213.481"/>
</g>
<!-- Metamodel::EnumHOW&#45;&gt;Metamodel::BaseType -->
<g id="edge70" class="edge"><title>Metamodel::EnumHOW&#45;&gt;Metamodel::BaseType</title>
<path fill="none" stroke="#6666ff" d="M284.308,36.2834C373.619,96.6033 663.031,292.07 663.031,292.07 663.031,292.07 827.801,500.443 886.511,574.689"/>
<polygon fill="#6666ff" stroke="#6666ff" points="889.354,572.641 892.811,582.656 883.863,576.983 889.354,572.641"/>
</g>
</g>
</svg>
