<?xml version="1.0" encoding="UTF-8" standalone="no"?>
<!DOCTYPE svg PUBLIC "-//W3C//DTD SVG 1.1//EN"
 "http://www.w3.org/Graphics/SVG/1.1/DTD/svg11.dtd">
<!-- Generated by graphviz version 2.38.0 (20140413.2041)
 -->
<!-- Title: perl6&#45;type&#45;graph Pages: 1 -->
<svg width="1817pt" height="404pt"
 viewBox="0.00 0.00 1817.44 404.00" xmlns="http://www.w3.org/2000/svg" xmlns:xlink="http://www.w3.org/1999/xlink">
<g id="graph0" class="graph" transform="scale(1 1) rotate(0) translate(4 400)">
<title>perl6&#45;type&#45;graph</title>
<polygon fill="white" stroke="none" points="-4,4 -4,-400 1813.44,-400 1813.44,4 -4,4"/>
<!-- X::OS -->
<g id="node1" class="node"><title>X::OS</title>
<g id="a_node1"><a xlink:href="/type/X::OS" xlink:title="X::OS">
<ellipse fill="none" stroke="#6666ff" cx="827.495" cy="-162" rx="34.394" ry="18"/>
<text text-anchor="middle" x="827.495" y="-158.3" font-family="FreeSans" font-size="14.00" fill="#6666ff">X::OS</text>
</a>
</g>
</g>
<!-- Exception -->
<g id="node4" class="node"><title>Exception</title>
<g id="a_node4"><a xlink:href="/type/Exception" xlink:title="Exception">
<ellipse fill="none" stroke="#000000" cx="907.495" cy="-234" rx="49.2915" ry="18"/>
<text text-anchor="middle" x="907.495" y="-230.3" font-family="FreeSans" font-size="14.00" fill="#000000">Exception</text>
</a>
</g>
</g>
<!-- X::OS&#45;&gt;Exception -->
<g id="edge1" class="edge"><title>X::OS&#45;&gt;Exception</title>
<path fill="none" stroke="#000000" d="M844.461,-177.845C855.297,-187.327 869.553,-199.801 881.767,-210.488"/>
<polygon fill="#000000" stroke="#000000" points="879.611,-213.252 889.441,-217.203 884.22,-207.984 879.611,-213.252"/>
</g>
<!-- Mu -->
<g id="node2" class="node"><title>Mu</title>
<g id="a_node2"><a xlink:href="/type/Mu" xlink:title="Mu">
<ellipse fill="none" stroke="#000000" cx="907.495" cy="-378" rx="27" ry="18"/>
<text text-anchor="middle" x="907.495" y="-374.3" font-family="FreeSans" font-size="14.00" fill="#000000">Mu</text>
</a>
</g>
</g>
<!-- Any -->
<g id="node3" class="node"><title>Any</title>
<g id="a_node3"><a xlink:href="/type/Any" xlink:title="Any">
<ellipse fill="none" stroke="#000000" cx="907.495" cy="-306" rx="27" ry="18"/>
<text text-anchor="middle" x="907.495" y="-302.3" font-family="FreeSans" font-size="14.00" fill="#000000">Any</text>
</a>
</g>
</g>
<!-- Any&#45;&gt;Mu -->
<g id="edge2" class="edge"><title>Any&#45;&gt;Mu</title>
<path fill="none" stroke="#000000" d="M907.495,-324.303C907.495,-332.017 907.495,-341.288 907.495,-349.888"/>
<polygon fill="#000000" stroke="#000000" points="903.995,-349.896 907.495,-359.896 910.995,-349.896 903.995,-349.896"/>
</g>
<!-- Exception&#45;&gt;Any -->
<g id="edge3" class="edge"><title>Exception&#45;&gt;Any</title>
<path fill="none" stroke="#000000" d="M907.495,-252.303C907.495,-260.017 907.495,-269.288 907.495,-277.888"/>
<polygon fill="#000000" stroke="#000000" points="903.995,-277.896 907.495,-287.896 910.995,-277.896 903.995,-277.896"/>
</g>
<!-- X::IO -->
<g id="node5" class="node"><title>X::IO</title>
<g id="a_node5"><a xlink:href="/type/X::IO" xlink:title="X::IO">
<ellipse fill="none" stroke="#6666ff" cx="827.495" cy="-90" rx="31.3957" ry="18"/>
<text text-anchor="middle" x="827.495" y="-86.3" font-family="FreeSans" font-size="14.00" fill="#6666ff">X::IO</text>
</a>
</g>
</g>
<!-- X::IO&#45;&gt;X::OS -->
<g id="edge40" class="edge"><title>X::IO&#45;&gt;X::OS</title>
<path fill="none" stroke="#6666ff" d="M827.495,-108.303C827.495,-116.017 827.495,-125.288 827.495,-133.888"/>
<polygon fill="#6666ff" stroke="#6666ff" points="823.995,-133.896 827.495,-143.896 830.995,-133.896 823.995,-133.896"/>
</g>
<!-- X::IO&#45;&gt;Exception -->
<g id="edge4" class="edge"><title>X::IO&#45;&gt;Exception</title>
<path fill="none" stroke="#000000" d="M814.826,-106.615C802.142,-122.249 784.495,-144 784.495,-144 784.495,-144 784.495,-180 784.495,-180 784.495,-180 831.556,-200.278 867.458,-215.748"/>
<polygon fill="#000000" stroke="#000000" points="866.205,-219.02 876.774,-219.763 868.975,-212.591 866.205,-219.02"/>
</g>
<!-- X::IO::Mkdir -->
<g id="node6" class="node"><title>X::IO::Mkdir</title>
<g id="a_node6"><a xlink:href="/type/X::IO::Mkdir" xlink:title="X::IO::Mkdir">
<ellipse fill="none" stroke="#000000" cx="58.4948" cy="-18" rx="58.4896" ry="18"/>
<text text-anchor="middle" x="58.4948" y="-14.3" font-family="FreeSans" font-size="14.00" fill="#000000">X::IO::Mkdir</text>
</a>
</g>
</g>
<!-- X::IO::Mkdir&#45;&gt;Exception -->
<g id="edge5" class="edge"><title>X::IO::Mkdir&#45;&gt;Exception</title>
<path fill="none" stroke="#000000" d="M92.2539,-32.8661C193.789,-71.9189 488.495,-180 488.495,-180 488.495,-180 736.833,-212.102 851.204,-226.338"/>
<polygon fill="#000000" stroke="#000000" points="850.828,-229.818 861.183,-227.577 851.69,-222.872 850.828,-229.818"/>
</g>
<!-- X::IO::Mkdir&#45;&gt;Exception -->
<g id="edge6" class="edge"><title>X::IO::Mkdir&#45;&gt;Exception</title>
<path fill="none" stroke="#000000" d="M96.8311,-31.6334C205.433,-69.5876 506.495,-180 506.495,-180 506.495,-180 742.405,-210.496 852.401,-225.222"/>
<polygon fill="#000000" stroke="#000000" points="851.946,-228.693 862.323,-226.554 852.877,-221.755 851.946,-228.693"/>
</g>
<!-- X::IO::Mkdir&#45;&gt;X::IO -->
<g id="edge41" class="edge"><title>X::IO::Mkdir&#45;&gt;X::IO</title>
<path fill="none" stroke="#6666ff" d="M102.061,-30.0542C114.858,-33.3012 125.495,-36 125.495,-36 125.495,-36 635.779,-74.5257 786.227,-85.8843"/>
<polygon fill="#6666ff" stroke="#6666ff" points="786.19,-89.3914 796.425,-86.6543 786.717,-82.4113 786.19,-89.3914"/>
</g>
<!-- X::IO::Rmdir -->
<g id="node7" class="node"><title>X::IO::Rmdir</title>
<g id="a_node7"><a xlink:href="/type/X::IO::Rmdir" xlink:title="X::IO::Rmdir">
<ellipse fill="none" stroke="#000000" cx="194.495" cy="-18" rx="59.5901" ry="18"/>
<text text-anchor="middle" x="194.495" y="-14.3" font-family="FreeSans" font-size="14.00" fill="#000000">X::IO::Rmdir</text>
</a>
</g>
</g>
<!-- X::IO::Rmdir&#45;&gt;Exception -->
<g id="edge7" class="edge"><title>X::IO::Rmdir&#45;&gt;Exception</title>
<path fill="none" stroke="#000000" d="M225.417,-33.4294C316.509,-72.947 576.495,-180 576.495,-180 576.495,-180 758.539,-209.964 852.695,-224.832"/>
<polygon fill="#000000" stroke="#000000" points="852.201,-228.297 862.624,-226.395 853.29,-221.382 852.201,-228.297"/>
</g>
<!-- X::IO::Rmdir&#45;&gt;Exception -->
<g id="edge8" class="edge"><title>X::IO::Rmdir&#45;&gt;Exception</title>
<path fill="none" stroke="#000000" d="M230.803,-32.3123C329.503,-70.8858 594.495,-180 594.495,-180 594.495,-180 765.061,-208.074 854.443,-223.358"/>
<polygon fill="#000000" stroke="#000000" points="853.954,-226.825 864.402,-225.065 855.137,-219.925 853.954,-226.825"/>
</g>
<!-- X::IO::Rmdir&#45;&gt;X::IO -->
<g id="edge42" class="edge"><title>X::IO::Rmdir&#45;&gt;X::IO</title>
<path fill="none" stroke="#6666ff" d="M239.362,-30.0542C252.541,-33.3012 263.495,-36 263.495,-36 263.495,-36 656.661,-72.9464 786.463,-85.1442"/>
<polygon fill="#6666ff" stroke="#6666ff" points="786.488,-88.6618 796.771,-86.1129 787.143,-81.6925 786.488,-88.6618"/>
</g>
<!-- X::IO::Chdir -->
<g id="node8" class="node"><title>X::IO::Chdir</title>
<g id="a_node8"><a xlink:href="/type/X::IO::Chdir" xlink:title="X::IO::Chdir">
<ellipse fill="none" stroke="#000000" cx="329.495" cy="-18" rx="57.3905" ry="18"/>
<text text-anchor="middle" x="329.495" y="-14.3" font-family="FreeSans" font-size="14.00" fill="#000000">X::IO::Chdir</text>
</a>
</g>
</g>
<!-- X::IO::Chdir&#45;&gt;Exception -->
<g id="edge9" class="edge"><title>X::IO::Chdir&#45;&gt;Exception</title>
<path fill="none" stroke="#000000" d="M356.147,-34.0019C433.508,-73.9702 651.495,-180 651.495,-180 651.495,-180 779.222,-207.407 854.324,-222.804"/>
<polygon fill="#000000" stroke="#000000" points="854.055,-226.321 864.553,-224.893 855.456,-219.463 854.055,-226.321"/>
</g>
<!-- X::IO::Chdir&#45;&gt;Exception -->
<g id="edge10" class="edge"><title>X::IO::Chdir&#45;&gt;Exception</title>
<path fill="none" stroke="#000000" d="M362.052,-32.8661C447.291,-71.9189 669.495,-180 669.495,-180 669.495,-180 787.947,-205.417 857.805,-221.048"/>
<polygon fill="#000000" stroke="#000000" points="857.215,-224.503 867.739,-223.279 858.749,-217.673 857.215,-224.503"/>
</g>
<!-- X::IO::Chdir&#45;&gt;X::IO -->
<g id="edge43" class="edge"><title>X::IO::Chdir&#45;&gt;X::IO</title>
<path fill="none" stroke="#6666ff" d="M372.411,-30.0542C385.017,-33.3012 395.495,-36 395.495,-36 395.495,-36 679.552,-70.8496 786.989,-84.0305"/>
<polygon fill="#6666ff" stroke="#6666ff" points="786.766,-87.5293 797.117,-85.2731 787.618,-80.5814 786.766,-87.5293"/>
</g>
<!-- X::IO::Link -->
<g id="node9" class="node"><title>X::IO::Link</title>
<g id="a_node9"><a xlink:href="/type/X::IO::Link" xlink:title="X::IO::Link">
<ellipse fill="none" stroke="#000000" cx="457.495" cy="-18" rx="53.0913" ry="18"/>
<text text-anchor="middle" x="457.495" y="-14.3" font-family="FreeSans" font-size="14.00" fill="#000000">X::IO::Link</text>
</a>
</g>
</g>
<!-- X::IO::Link&#45;&gt;Exception -->
<g id="edge11" class="edge"><title>X::IO::Link&#45;&gt;Exception</title>
<path fill="none" stroke="#000000" d="M478.915,-34.7305C540.369,-75.2423 711.495,-180 711.495,-180 711.495,-180 799.709,-205.002 857.877,-220.662"/>
<polygon fill="#000000" stroke="#000000" points="857.083,-224.072 867.648,-223.279 858.894,-217.311 857.083,-224.072"/>
</g>
<!-- X::IO::Link&#45;&gt;Exception -->
<g id="edge12" class="edge"><title>X::IO::Link&#45;&gt;Exception</title>
<path fill="none" stroke="#000000" d="M485.436,-33.5716C555.038,-73.2032 729.495,-180 729.495,-180 729.495,-180 809.285,-202.614 862.118,-218.299"/>
<polygon fill="#000000" stroke="#000000" points="861.385,-221.733 871.968,-221.238 863.386,-215.025 861.385,-221.733"/>
</g>
<!-- X::IO::Link&#45;&gt;X::IO -->
<g id="edge44" class="edge"><title>X::IO::Link&#45;&gt;X::IO</title>
<path fill="none" stroke="#6666ff" d="M497.461,-29.9586C509.458,-33.248 519.495,-36 519.495,-36 519.495,-36 704.692,-67.8684 787.872,-82.1818"/>
<polygon fill="#6666ff" stroke="#6666ff" points="787.514,-85.6715 797.962,-83.9181 788.701,-78.7729 787.514,-85.6715"/>
</g>
<!-- X::IO::Move -->
<g id="node10" class="node"><title>X::IO::Move</title>
<g id="a_node10"><a xlink:href="/type/X::IO::Move" xlink:title="X::IO::Move">
<ellipse fill="none" stroke="#000000" cx="586.495" cy="-18" rx="57.6901" ry="18"/>
<text text-anchor="middle" x="586.495" y="-14.3" font-family="FreeSans" font-size="14.00" fill="#000000">X::IO::Move</text>
</a>
</g>
</g>
<!-- X::IO::Move&#45;&gt;Exception -->
<g id="edge13" class="edge"><title>X::IO::Move&#45;&gt;Exception</title>
<path fill="none" stroke="#000000" d="M596.068,-35.9255C631.823,-77.2617 743.495,-180 743.495,-180 743.495,-180 809.869,-204.095 858.628,-219.792"/>
<polygon fill="#000000" stroke="#000000" points="857.837,-223.213 868.428,-222.906 859.958,-216.542 857.837,-223.213"/>
</g>
<!-- X::IO::Move&#45;&gt;Exception -->
<g id="edge14" class="edge"><title>X::IO::Move&#45;&gt;Exception</title>
<path fill="none" stroke="#000000" d="M604.238,-35.3235C648.728,-76.2544 761.495,-180 761.495,-180 761.495,-180 821.14,-201.652 864.184,-217.278"/>
<polygon fill="#000000" stroke="#000000" points="863.038,-220.585 873.633,-220.708 865.427,-214.005 863.038,-220.585"/>
</g>
<!-- X::IO::Move&#45;&gt;Exception -->
<g id="edge15" class="edge"><title>X::IO::Move&#45;&gt;Exception</title>
<path fill="none" stroke="#000000" d="M611.758,-34.4374C665.076,-74.7344 779.495,-180 779.495,-180 779.495,-180 833.25,-199.514 871.503,-214.86"/>
<polygon fill="#000000" stroke="#000000" points="870.27,-218.137 880.852,-218.657 872.905,-211.652 870.27,-218.137"/>
</g>
<!-- X::IO::Move&#45;&gt;X::IO -->
<g id="edge45" class="edge"><title>X::IO::Move&#45;&gt;X::IO</title>
<path fill="none" stroke="#6666ff" d="M627.377,-30.8745C673.101,-44.1554 746.509,-65.4771 790.561,-78.2723"/>
<polygon fill="#6666ff" stroke="#6666ff" points="789.714,-81.671 800.294,-81.0993 791.667,-74.9488 789.714,-81.671"/>
</g>
<!-- X::IO::Dir -->
<g id="node11" class="node"><title>X::IO::Dir</title>
<g id="a_node11"><a xlink:href="/type/X::IO::Dir" xlink:title="X::IO::Dir">
<ellipse fill="none" stroke="#000000" cx="709.495" cy="-18" rx="47.3916" ry="18"/>
<text text-anchor="middle" x="709.495" y="-14.3" font-family="FreeSans" font-size="14.00" fill="#000000">X::IO::Dir</text>
</a>
</g>
</g>
<!-- X::IO::Dir&#45;&gt;Exception -->
<g id="edge16" class="edge"><title>X::IO::Dir&#45;&gt;Exception</title>
<path fill="none" stroke="#000000" d="M708.201,-36.2298C717.409,-77.7634 762.495,-180 762.495,-180 762.495,-180 817.671,-203.026 860.441,-218.724"/>
<polygon fill="#000000" stroke="#000000" points="859.309,-222.036 869.903,-222.147 861.69,-215.454 859.309,-222.036"/>
</g>
<!-- X::IO::Dir&#45;&gt;Exception -->
<g id="edge17" class="edge"><title>X::IO::Dir&#45;&gt;Exception</title>
<path fill="none" stroke="#000000" d="M716.959,-35.9255C735.188,-77.2617 780.495,-180 780.495,-180 780.495,-180 829.368,-200.396 866.478,-215.883"/>
<polygon fill="#000000" stroke="#000000" points="865.525,-219.278 876.102,-219.899 868.221,-212.817 865.525,-219.278"/>
</g>
<!-- X::IO::Dir&#45;&gt;Exception -->
<g id="edge18" class="edge"><title>X::IO::Dir&#45;&gt;Exception</title>
<path fill="none" stroke="#000000" d="M725.183,-35.0259C752.521,-75.749 798.495,-180 798.495,-180 798.495,-180 842.73,-198.461 875.288,-213.592"/>
<polygon fill="#000000" stroke="#000000" points="873.996,-216.852 884.534,-217.954 876.983,-210.522 873.996,-216.852"/>
</g>
<!-- X::IO::Dir&#45;&gt;X::IO -->
<g id="edge46" class="edge"><title>X::IO::Dir&#45;&gt;X::IO</title>
<path fill="none" stroke="#6666ff" d="M733.944,-33.504C752.56,-44.5473 778.261,-59.7937 798.015,-71.5121"/>
<polygon fill="#6666ff" stroke="#6666ff" points="796.24,-74.5283 806.626,-76.6202 799.811,-68.5079 796.24,-74.5283"/>
</g>
<!-- X::IO::Copy -->
<g id="node12" class="node"><title>X::IO::Copy</title>
<g id="a_node12"><a xlink:href="/type/X::IO::Copy" xlink:title="X::IO::Copy">
<ellipse fill="none" stroke="#000000" cx="831.495" cy="-18" rx="56.59" ry="18"/>
<text text-anchor="middle" x="831.495" y="-14.3" font-family="FreeSans" font-size="14.00" fill="#000000">X::IO::Copy</text>
</a>
</g>
</g>
<!-- X::IO::Copy&#45;&gt;Exception -->
<g id="edge19" class="edge"><title>X::IO::Copy&#45;&gt;Exception</title>
<path fill="none" stroke="#000000" d="M829.396,-36.0613C835.608,-51.5549 849.495,-72 849.495,-72 849.495,-72 871.758,-161.609 890.54,-207.123"/>
<polygon fill="#000000" stroke="#000000" points="887.379,-208.631 894.608,-216.377 893.787,-205.814 887.379,-208.631"/>
</g>
<!-- X::IO::Copy&#45;&gt;Exception -->
<g id="edge20" class="edge"><title>X::IO::Copy&#45;&gt;Exception</title>
<path fill="none" stroke="#000000" d="M842.885,-35.7695C853.432,-51.2969 867.495,-72 867.495,-72 867.495,-72 889.357,-159.994 900.756,-205.876"/>
<polygon fill="#000000" stroke="#000000" points="897.406,-206.909 903.214,-215.77 904.2,-205.221 897.406,-206.909"/>
</g>
<!-- X::IO::Copy&#45;&gt;Exception -->
<g id="edge21" class="edge"><title>X::IO::Copy&#45;&gt;Exception</title>
<path fill="none" stroke="#000000" d="M855.369,-34.6151C870.72,-50.2488 885.495,-72 885.495,-72 885.495,-72 907.372,-160.054 911.487,-205.923"/>
<polygon fill="#000000" stroke="#000000" points="908.004,-206.309 912.114,-216.074 914.991,-205.878 908.004,-206.309"/>
</g>
<!-- X::IO::Copy&#45;&gt;X::IO -->
<g id="edge47" class="edge"><title>X::IO::Copy&#45;&gt;X::IO</title>
<path fill="none" stroke="#6666ff" d="M830.506,-36.3034C830.065,-44.0173 829.536,-53.2875 829.044,-61.8876"/>
<polygon fill="#6666ff" stroke="#6666ff" points="825.548,-61.7122 828.472,-71.8957 832.537,-62.1117 825.548,-61.7122"/>
</g>
<!-- X::IO::Chmod -->
<g id="node13" class="node"><title>X::IO::Chmod</title>
<g id="a_node13"><a xlink:href="/type/X::IO::Chmod" xlink:title="X::IO::Chmod">
<ellipse fill="none" stroke="#000000" cx="970.495" cy="-18" rx="64.189" ry="18"/>
<text text-anchor="middle" x="970.495" y="-14.3" font-family="FreeSans" font-size="14.00" fill="#000000">X::IO::Chmod</text>
</a>
</g>
</g>
<!-- X::IO::Chmod&#45;&gt;Exception -->
<g id="edge22" class="edge"><title>X::IO::Chmod&#45;&gt;Exception</title>
<path fill="none" stroke="#000000" d="M958.411,-35.9255C941.277,-77.2617 921.495,-180 921.495,-180 921.495,-180 913.502,-193.239 907.752,-206.483"/>
<polygon fill="#000000" stroke="#000000" points="904.438,-205.349 904.109,-215.939 910.97,-207.866 904.438,-205.349"/>
</g>
<!-- X::IO::Chmod&#45;&gt;Exception -->
<g id="edge23" class="edge"><title>X::IO::Chmod&#45;&gt;Exception</title>
<path fill="none" stroke="#000000" d="M967.177,-36.2298C959.18,-77.7634 939.495,-180 939.495,-180 939.495,-180 931.083,-193.931 922.886,-207.509"/>
<polygon fill="#000000" stroke="#000000" points="919.792,-205.861 917.62,-216.23 925.785,-209.479 919.792,-205.861"/>
</g>
<!-- X::IO::Chmod&#45;&gt;Exception -->
<g id="edge24" class="edge"><title>X::IO::Chmod&#45;&gt;Exception</title>
<path fill="none" stroke="#000000" d="M976.069,-36.2298C977.18,-77.7634 957.495,-180 957.495,-180 957.495,-180 948.031,-195.674 936.502,-209.975"/>
<polygon fill="#000000" stroke="#000000" points="933.763,-207.793 929.931,-217.67 939.086,-212.338 933.763,-207.793"/>
</g>
<!-- X::IO::Chmod&#45;&gt;X::IO -->
<g id="edge48" class="edge"><title>X::IO::Chmod&#45;&gt;X::IO</title>
<path fill="none" stroke="#6666ff" d="M939.818,-34.0168C916.199,-45.5783 883.643,-61.5148 859.66,-73.2549"/>
<polygon fill="#6666ff" stroke="#6666ff" points="858.046,-70.148 850.603,-77.6883 861.124,-76.4352 858.046,-70.148"/>
</g>
<!-- X::IO::Rename -->
<g id="node14" class="node"><title>X::IO::Rename</title>
<g id="a_node14"><a xlink:href="/type/X::IO::Rename" xlink:title="X::IO::Rename">
<ellipse fill="none" stroke="#000000" cx="1122.49" cy="-18" rx="69.5877" ry="18"/>
<text text-anchor="middle" x="1122.49" y="-14.3" font-family="FreeSans" font-size="14.00" fill="#000000">X::IO::Rename</text>
</a>
</g>
</g>
<!-- X::IO::Rename&#45;&gt;Exception -->
<g id="edge25" class="edge"><title>X::IO::Rename&#45;&gt;Exception</title>
<path fill="none" stroke="#000000" d="M1099.24,-35.0259C1052.68,-75.749 957.495,-180 957.495,-180 957.495,-180 938.233,-195.013 922.926,-209.058"/>
<polygon fill="#000000" stroke="#000000" points="920.227,-206.796 915.405,-216.23 925.057,-211.862 920.227,-206.796"/>
</g>
<!-- X::IO::Rename&#45;&gt;Exception -->
<g id="edge26" class="edge"><title>X::IO::Rename&#45;&gt;Exception</title>
<path fill="none" stroke="#000000" d="M1107.32,-35.6234C1069.76,-76.7587 975.495,-180 975.495,-180 975.495,-180 954.319,-196.505 935.601,-211.094"/>
<polygon fill="#000000" stroke="#000000" points="933.265,-208.477 927.529,-217.385 937.568,-213.998 933.265,-208.477"/>
</g>
<!-- X::IO::Rename&#45;&gt;Exception -->
<g id="edge27" class="edge"><title>X::IO::Rename&#45;&gt;Exception</title>
<path fill="none" stroke="#000000" d="M1115.87,-35.9255C1087.3,-77.2617 993.495,-180 993.495,-180 993.495,-180 969.428,-198.758 946.14,-213.955"/>
<polygon fill="#000000" stroke="#000000" points="944.208,-211.036 937.642,-219.351 947.96,-216.945 944.208,-211.036"/>
</g>
<!-- X::IO::Rename&#45;&gt;X::IO -->
<g id="edge49" class="edge"><title>X::IO::Rename&#45;&gt;X::IO</title>
<path fill="none" stroke="#6666ff" d="M1073.12,-30.7164C1014.84,-44.5454 919.157,-67.2496 866.052,-79.8508"/>
<polygon fill="#6666ff" stroke="#6666ff" points="864.944,-76.5164 856.022,-82.2307 866.56,-83.3273 864.944,-76.5164"/>
</g>
<!-- X::IO::Unlink -->
<g id="node15" class="node"><title>X::IO::Unlink</title>
<g id="a_node15"><a xlink:href="/type/X::IO::Unlink" xlink:title="X::IO::Unlink">
<ellipse fill="none" stroke="#000000" cx="1271.49" cy="-18" rx="61.1893" ry="18"/>
<text text-anchor="middle" x="1271.49" y="-14.3" font-family="FreeSans" font-size="14.00" fill="#000000">X::IO::Unlink</text>
</a>
</g>
</g>
<!-- X::IO::Unlink&#45;&gt;Exception -->
<g id="edge28" class="edge"><title>X::IO::Unlink&#45;&gt;Exception</title>
<path fill="none" stroke="#000000" d="M1240.77,-33.5716C1170,-73.2032 1005.49,-180 1005.49,-180 1005.49,-180 966.496,-197.819 937.232,-212.792"/>
<polygon fill="#000000" stroke="#000000" points="935.389,-209.806 928.134,-217.528 938.621,-216.015 935.389,-209.806"/>
</g>
<!-- X::IO::Unlink&#45;&gt;Exception -->
<g id="edge29" class="edge"><title>X::IO::Unlink&#45;&gt;Exception</title>
<path fill="none" stroke="#000000" d="M1247.26,-34.7305C1184.86,-75.2423 1023.49,-180 1023.49,-180 1023.49,-180 979.998,-199.874 946.275,-215.282"/>
<polygon fill="#000000" stroke="#000000" points="944.708,-212.149 937.067,-219.489 947.617,-218.516 944.708,-212.149"/>
</g>
<!-- X::IO::Unlink&#45;&gt;Exception -->
<g id="edge30" class="edge"><title>X::IO::Unlink&#45;&gt;Exception</title>
<path fill="none" stroke="#000000" d="M1254.65,-35.6234C1200.52,-76.7587 1041.49,-180 1041.49,-180 1041.49,-180 992.757,-202.268 953.562,-217.936"/>
<polygon fill="#000000" stroke="#000000" points="951.864,-214.843 943.838,-221.76 954.426,-221.358 951.864,-214.843"/>
</g>
<!-- X::IO::Unlink&#45;&gt;X::IO -->
<g id="edge50" class="edge"><title>X::IO::Unlink&#45;&gt;X::IO</title>
<path fill="none" stroke="#6666ff" d="M1225.98,-30.0542C1212.61,-33.3012 1201.49,-36 1201.49,-36 1201.49,-36 963.851,-69.6768 867.428,-83.341"/>
<polygon fill="#6666ff" stroke="#6666ff" points="866.879,-79.8838 857.469,-84.7524 867.861,-86.8146 866.879,-79.8838"/>
</g>
<!-- X::IO::Symlink -->
<g id="node16" class="node"><title>X::IO::Symlink</title>
<g id="a_node16"><a xlink:href="/type/X::IO::Symlink" xlink:title="X::IO::Symlink">
<ellipse fill="none" stroke="#000000" cx="1418.49" cy="-18" rx="67.6881" ry="18"/>
<text text-anchor="middle" x="1418.49" y="-14.3" font-family="FreeSans" font-size="14.00" fill="#000000">X::IO::Symlink</text>
</a>
</g>
</g>
<!-- X::IO::Symlink&#45;&gt;Exception -->
<g id="edge31" class="edge"><title>X::IO::Symlink&#45;&gt;Exception</title>
<path fill="none" stroke="#000000" d="M1381.13,-33.006C1289.52,-72.1764 1064.49,-180 1064.49,-180 1064.49,-180 994.838,-201.096 947.938,-216.669"/>
<polygon fill="#000000" stroke="#000000" points="946.676,-213.401 938.308,-219.899 948.902,-220.037 946.676,-213.401"/>
</g>
<!-- X::IO::Symlink&#45;&gt;Exception -->
<g id="edge32" class="edge"><title>X::IO::Symlink&#45;&gt;Exception</title>
<path fill="none" stroke="#000000" d="M1387.19,-34.0019C1303.77,-73.9702 1082.49,-180 1082.49,-180 1082.49,-180 1005.71,-203.254 953.867,-218.956"/>
<polygon fill="#000000" stroke="#000000" points="952.737,-215.641 944.181,-221.889 954.766,-222.341 952.737,-215.641"/>
</g>
<!-- X::IO::Symlink&#45;&gt;Exception -->
<g id="edge33" class="edge"><title>X::IO::Symlink&#45;&gt;Exception</title>
<path fill="none" stroke="#000000" d="M1393.95,-34.8779C1318.59,-75.4958 1100.49,-180 1100.49,-180 1100.49,-180 1015.71,-205.678 958.096,-221.288"/>
<polygon fill="#000000" stroke="#000000" points="957.145,-217.919 948.392,-223.889 958.958,-224.681 957.145,-217.919"/>
</g>
<!-- X::IO::Symlink&#45;&gt;X::IO -->
<g id="edge51" class="edge"><title>X::IO::Symlink&#45;&gt;X::IO</title>
<path fill="none" stroke="#6666ff" d="M1367.99,-30.1496C1353.48,-33.3539 1341.49,-36 1341.49,-36 1341.49,-36 989.576,-72.2873 868.126,-84.8104"/>
<polygon fill="#6666ff" stroke="#6666ff" points="867.697,-81.336 858.109,-85.8433 868.415,-88.2991 867.697,-81.336"/>
</g>
<!-- X::IO::DoesNotExist -->
<g id="node17" class="node"><title>X::IO::DoesNotExist</title>
<g id="a_node17"><a xlink:href="/type/X::IO::DoesNotExist" xlink:title="X::IO::DoesNotExist">
<ellipse fill="none" stroke="#000000" cx="1593.49" cy="-18" rx="89.8845" ry="18"/>
<text text-anchor="middle" x="1593.49" y="-14.3" font-family="FreeSans" font-size="14.00" fill="#000000">X::IO::DoesNotExist</text>
</a>
</g>
</g>
<!-- X::IO::DoesNotExist&#45;&gt;Exception -->
<g id="edge34" class="edge"><title>X::IO::DoesNotExist&#45;&gt;Exception</title>
<path fill="none" stroke="#000000" d="M1546.06,-33.2877C1428.1,-72.6904 1133.49,-180 1133.49,-180 1133.49,-180 1021.92,-204.236 955.234,-219.93"/>
<polygon fill="#000000" stroke="#000000" points="954.263,-216.563 945.34,-222.275 955.877,-223.374 954.263,-216.563"/>
</g>
<!-- X::IO::DoesNotExist&#45;&gt;Exception -->
<g id="edge35" class="edge"><title>X::IO::DoesNotExist&#45;&gt;Exception</title>
<path fill="none" stroke="#000000" d="M1552.31,-34.0019C1442.58,-73.9702 1151.49,-180 1151.49,-180 1151.49,-180 1030.68,-206.243 959.073,-221.797"/>
<polygon fill="#000000" stroke="#000000" points="957.915,-218.466 948.886,-224.009 959.401,-225.307 957.915,-218.466"/>
</g>
<!-- X::IO::DoesNotExist&#45;&gt;Exception -->
<g id="edge36" class="edge"><title>X::IO::DoesNotExist&#45;&gt;Exception</title>
<path fill="none" stroke="#000000" d="M1558.86,-34.7305C1457.09,-75.2423 1169.49,-180 1169.49,-180 1169.49,-180 1038.49,-208.455 961.387,-223.666"/>
<polygon fill="#000000" stroke="#000000" points="960.486,-220.276 951.344,-225.631 961.83,-227.145 960.486,-220.276"/>
</g>
<!-- X::IO::DoesNotExist&#45;&gt;X::IO -->
<g id="edge52" class="edge"><title>X::IO::DoesNotExist&#45;&gt;X::IO</title>
<path fill="none" stroke="#6666ff" d="M1528.13,-30.3392C1510.15,-33.4576 1495.49,-36 1495.49,-36 1495.49,-36 1014.14,-74.1911 868.653,-85.7345"/>
<polygon fill="#6666ff" stroke="#6666ff" points="868.066,-82.2699 858.374,-86.55 868.62,-89.248 868.066,-82.2699"/>
</g>
<!-- X::IO::Cwd -->
<g id="node18" class="node"><title>X::IO::Cwd</title>
<g id="a_node18"><a xlink:href="/type/X::IO::Cwd" xlink:title="X::IO::Cwd">
<ellipse fill="none" stroke="#000000" cx="1755.49" cy="-18" rx="53.8905" ry="18"/>
<text text-anchor="middle" x="1755.49" y="-14.3" font-family="FreeSans" font-size="14.00" fill="#000000">X::IO::Cwd</text>
</a>
</g>
</g>
<!-- X::IO::Cwd&#45;&gt;Exception -->
<g id="edge37" class="edge"><title>X::IO::Cwd&#45;&gt;Exception</title>
<path fill="none" stroke="#000000" d="M1713.93,-29.5637C1586.54,-65.3818 1213.49,-180 1213.49,-180 1213.49,-180 1047.05,-207.227 959.385,-222.651"/>
<polygon fill="#000000" stroke="#000000" points="958.595,-219.237 949.358,-224.426 959.814,-226.13 958.595,-219.237"/>
</g>
<!-- X::IO::Cwd&#45;&gt;Exception -->
<g id="edge38" class="edge"><title>X::IO::Cwd&#45;&gt;Exception</title>
<path fill="none" stroke="#000000" d="M1716.96,-30.8387C1595.95,-68.0197 1231.49,-180 1231.49,-180 1231.49,-180 1053.7,-209.084 961.52,-224.163"/>
<polygon fill="#000000" stroke="#000000" points="960.832,-220.729 951.528,-225.797 961.962,-227.637 960.832,-220.729"/>
</g>
<!-- X::IO::Cwd&#45;&gt;Exception -->
<g id="edge39" class="edge"><title>X::IO::Cwd&#45;&gt;Exception</title>
<path fill="none" stroke="#000000" d="M1720.94,-32.0389C1606.31,-70.3675 1249.49,-180 1249.49,-180 1249.49,-180 1060.39,-210.934 963.095,-225.536"/>
<polygon fill="#000000" stroke="#000000" points="962.497,-222.087 953.123,-227.023 963.53,-229.01 962.497,-222.087"/>
</g>
<!-- X::IO::Cwd&#45;&gt;X::IO -->
<g id="edge53" class="edge"><title>X::IO::Cwd&#45;&gt;X::IO</title>
<path fill="none" stroke="#6666ff" d="M1714.88,-29.9586C1702.69,-33.248 1692.49,-36 1692.49,-36 1692.49,-36 1040.7,-75.9366 868.698,-86.4754"/>
<polygon fill="#6666ff" stroke="#6666ff" points="868.303,-82.993 858.536,-87.0981 868.731,-89.9799 868.303,-82.993"/>
</g>
</g>
</svg>
