<?xml version="1.0" encoding="UTF-8" standalone="no"?>
<!DOCTYPE svg PUBLIC "-//W3C//DTD SVG 1.1//EN"
 "http://www.w3.org/Graphics/SVG/1.1/DTD/svg11.dtd">
<!-- Generated by graphviz version 2.38.0 (20140413.2041)
 -->
<!-- Title: perl6&#45;type&#45;graph Pages: 1 -->
<svg width="656pt" height="332pt"
 viewBox="0.00 0.00 655.99 332.00" xmlns="http://www.w3.org/2000/svg" xmlns:xlink="http://www.w3.org/1999/xlink">
<g id="graph0" class="graph" transform="scale(1 1) rotate(0) translate(4 328)">
<title>perl6&#45;type&#45;graph</title>
<polygon fill="white" stroke="none" points="-4,4 -4,-328 651.993,-328 651.993,4 -4,4"/>
<!-- Int -->
<g id="node1" class="node"><title>Int</title>
<g id="a_node1"><a xlink:href="/type/Int" xlink:title="Int">
<ellipse fill="none" stroke="#000000" cx="392.146" cy="-90" rx="27" ry="18"/>
<text text-anchor="middle" x="392.146" y="-86.3" font-family="FreeSans" font-size="14.00" fill="#000000">Int</text>
</a>
</g>
</g>
<!-- Cool -->
<g id="node4" class="node"><title>Cool</title>
<g id="a_node4"><a xlink:href="/type/Cool" xlink:title="Cool">
<ellipse fill="none" stroke="#000000" cx="495.146" cy="-162" rx="28.6953" ry="18"/>
<text text-anchor="middle" x="495.146" y="-158.3" font-family="FreeSans" font-size="14.00" fill="#000000">Cool</text>
</a>
</g>
</g>
<!-- Int&#45;&gt;Cool -->
<g id="edge1" class="edge"><title>Int&#45;&gt;Cool</title>
<path fill="none" stroke="#000000" d="M410.56,-103.515C426.473,-114.329 449.694,-130.11 467.782,-142.403"/>
<polygon fill="#000000" stroke="#000000" points="465.956,-145.394 476.194,-148.12 469.891,-139.604 465.956,-145.394"/>
</g>
<!-- Real -->
<g id="node6" class="node"><title>Real</title>
<g id="a_node6"><a xlink:href="/type/Real" xlink:title="Real">
<ellipse fill="none" stroke="#6666ff" cx="392.146" cy="-162" rx="28.6953" ry="18"/>
<text text-anchor="middle" x="392.146" y="-158.3" font-family="FreeSans" font-size="14.00" fill="#6666ff">Real</text>
</a>
</g>
</g>
<!-- Int&#45;&gt;Real -->
<g id="edge13" class="edge"><title>Int&#45;&gt;Real</title>
<path fill="none" stroke="#6666ff" d="M392.146,-108.303C392.146,-116.017 392.146,-125.288 392.146,-133.888"/>
<polygon fill="#6666ff" stroke="#6666ff" points="388.646,-133.896 392.146,-143.896 395.646,-133.896 388.646,-133.896"/>
</g>
<!-- Mu -->
<g id="node2" class="node"><title>Mu</title>
<g id="a_node2"><a xlink:href="/type/Mu" xlink:title="Mu">
<ellipse fill="none" stroke="#000000" cx="495.146" cy="-306" rx="27" ry="18"/>
<text text-anchor="middle" x="495.146" y="-302.3" font-family="FreeSans" font-size="14.00" fill="#000000">Mu</text>
</a>
</g>
</g>
<!-- Any -->
<g id="node3" class="node"><title>Any</title>
<g id="a_node3"><a xlink:href="/type/Any" xlink:title="Any">
<ellipse fill="none" stroke="#000000" cx="495.146" cy="-234" rx="27" ry="18"/>
<text text-anchor="middle" x="495.146" y="-230.3" font-family="FreeSans" font-size="14.00" fill="#000000">Any</text>
</a>
</g>
</g>
<!-- Any&#45;&gt;Mu -->
<g id="edge2" class="edge"><title>Any&#45;&gt;Mu</title>
<path fill="none" stroke="#000000" d="M495.146,-252.303C495.146,-260.017 495.146,-269.288 495.146,-277.888"/>
<polygon fill="#000000" stroke="#000000" points="491.646,-277.896 495.146,-287.896 498.646,-277.896 491.646,-277.896"/>
</g>
<!-- Cool&#45;&gt;Any -->
<g id="edge3" class="edge"><title>Cool&#45;&gt;Any</title>
<path fill="none" stroke="#000000" d="M495.146,-180.303C495.146,-188.017 495.146,-197.288 495.146,-205.888"/>
<polygon fill="#000000" stroke="#000000" points="491.646,-205.896 495.146,-215.896 498.646,-205.896 491.646,-205.896"/>
</g>
<!-- Numeric -->
<g id="node5" class="node"><title>Numeric</title>
<g id="a_node5"><a xlink:href="/type/Numeric" xlink:title="Numeric">
<ellipse fill="none" stroke="#6666ff" cx="392.146" cy="-234" rx="44.393" ry="18"/>
<text text-anchor="middle" x="392.146" y="-230.3" font-family="FreeSans" font-size="14.00" fill="#6666ff">Numeric</text>
</a>
</g>
</g>
<!-- Real&#45;&gt;Numeric -->
<g id="edge14" class="edge"><title>Real&#45;&gt;Numeric</title>
<path fill="none" stroke="#6666ff" d="M392.146,-180.303C392.146,-188.017 392.146,-197.288 392.146,-205.888"/>
<polygon fill="#6666ff" stroke="#6666ff" points="388.646,-205.896 392.146,-215.896 395.646,-205.896 388.646,-205.896"/>
</g>
<!-- atomicint -->
<g id="node7" class="node"><title>atomicint</title>
<g id="a_node7"><a xlink:href="/type/atomicint" xlink:title="atomicint">
<ellipse fill="none" stroke="#000000" cx="46.1459" cy="-18" rx="46.2923" ry="18"/>
<text text-anchor="middle" x="46.1459" y="-14.3" font-family="FreeSans" font-size="14.00" fill="#000000">atomicint</text>
</a>
</g>
</g>
<!-- atomicint&#45;&gt;Int -->
<g id="edge4" class="edge"><title>atomicint&#45;&gt;Int</title>
<path fill="none" stroke="#000000" d="M81.2896,-29.8626C92.0688,-33.1943 101.146,-36 101.146,-36 101.146,-36 278.069,-68.223 356.009,-82.4184"/>
<polygon fill="#000000" stroke="#000000" points="355.856,-85.9481 366.322,-84.2966 357.111,-79.0613 355.856,-85.9481"/>
</g>
<!-- Signal -->
<g id="node8" class="node"><title>Signal</title>
<g id="a_node8"><a xlink:href="/type/Signal" xlink:title="Signal">
<ellipse fill="none" stroke="#33bb33" cx="145.146" cy="-18" rx="35.194" ry="18"/>
<text text-anchor="middle" x="145.146" y="-14.3" font-family="FreeSans" font-size="14.00" fill="#33bb33">Signal</text>
</a>
</g>
</g>
<!-- Signal&#45;&gt;Int -->
<g id="edge5" class="edge"><title>Signal&#45;&gt;Int</title>
<path fill="none" stroke="#000000" d="M172.26,-29.476C181.315,-32.9744 189.146,-36 189.146,-36 189.146,-36 299.409,-64.7879 357.408,-79.9304"/>
<polygon fill="#000000" stroke="#000000" points="356.694,-83.3614 367.254,-82.5012 358.463,-76.5884 356.694,-83.3614"/>
</g>
<!-- PromiseStatus -->
<g id="node9" class="node"><title>PromiseStatus</title>
<g id="a_node9"><a xlink:href="/type/PromiseStatus" xlink:title="PromiseStatus">
<ellipse fill="none" stroke="#33bb33" cx="266.146" cy="-18" rx="67.6881" ry="18"/>
<text text-anchor="middle" x="266.146" y="-14.3" font-family="FreeSans" font-size="14.00" fill="#33bb33">PromiseStatus</text>
</a>
</g>
</g>
<!-- PromiseStatus&#45;&gt;Int -->
<g id="edge6" class="edge"><title>PromiseStatus&#45;&gt;Int</title>
<path fill="none" stroke="#000000" d="M294.109,-34.5353C314.606,-45.9221 342.357,-61.3393 363.102,-72.8645"/>
<polygon fill="#000000" stroke="#000000" points="361.648,-76.0606 372.089,-77.8575 365.048,-69.9415 361.648,-76.0606"/>
</g>
<!-- Order -->
<g id="node10" class="node"><title>Order</title>
<g id="a_node10"><a xlink:href="/type/Order" xlink:title="Order">
<ellipse fill="none" stroke="#33bb33" cx="385.146" cy="-18" rx="33.5952" ry="18"/>
<text text-anchor="middle" x="385.146" y="-14.3" font-family="FreeSans" font-size="14.00" fill="#33bb33">Order</text>
</a>
</g>
</g>
<!-- Order&#45;&gt;Int -->
<g id="edge7" class="edge"><title>Order&#45;&gt;Int</title>
<path fill="none" stroke="#000000" d="M386.876,-36.3034C387.648,-44.0173 388.575,-53.2875 389.435,-61.8876"/>
<polygon fill="#000000" stroke="#000000" points="385.958,-62.2936 390.435,-71.8957 392.923,-61.597 385.958,-62.2936"/>
</g>
<!-- int -->
<g id="node11" class="node"><title>int</title>
<g id="a_node11"><a xlink:href="/type/int" xlink:title="int">
<ellipse fill="none" stroke="#000000" cx="464.146" cy="-18" rx="27" ry="18"/>
<text text-anchor="middle" x="464.146" y="-14.3" font-family="FreeSans" font-size="14.00" fill="#000000">int</text>
</a>
</g>
</g>
<!-- int&#45;&gt;Int -->
<g id="edge8" class="edge"><title>int&#45;&gt;Int</title>
<path fill="none" stroke="#000000" d="M449.576,-33.1655C439.396,-43.0624 425.622,-56.4538 414.115,-67.6409"/>
<polygon fill="#000000" stroke="#000000" points="411.672,-65.135 406.942,-74.6153 416.551,-70.1539 411.672,-65.135"/>
</g>
<!-- Stringy -->
<g id="node12" class="node"><title>Stringy</title>
<g id="a_node12"><a xlink:href="/type/Stringy" xlink:title="Stringy">
<ellipse fill="none" stroke="#6666ff" cx="608.146" cy="-162" rx="38.1938" ry="18"/>
<text text-anchor="middle" x="608.146" y="-158.3" font-family="FreeSans" font-size="14.00" fill="#6666ff">Stringy</text>
</a>
</g>
</g>
<!-- Str -->
<g id="node13" class="node"><title>Str</title>
<g id="a_node13"><a xlink:href="/type/Str" xlink:title="Str">
<ellipse fill="none" stroke="#000000" cx="608.146" cy="-90" rx="27" ry="18"/>
<text text-anchor="middle" x="608.146" y="-86.3" font-family="FreeSans" font-size="14.00" fill="#000000">Str</text>
</a>
</g>
</g>
<!-- Str&#45;&gt;Cool -->
<g id="edge9" class="edge"><title>Str&#45;&gt;Cool</title>
<path fill="none" stroke="#000000" d="M588.977,-102.875C570.986,-114.019 543.854,-130.827 523.386,-143.506"/>
<polygon fill="#000000" stroke="#000000" points="521.447,-140.59 514.789,-148.832 525.133,-146.541 521.447,-140.59"/>
</g>
<!-- Str&#45;&gt;Stringy -->
<g id="edge15" class="edge"><title>Str&#45;&gt;Stringy</title>
<path fill="none" stroke="#6666ff" d="M608.146,-108.303C608.146,-116.017 608.146,-125.288 608.146,-133.888"/>
<polygon fill="#6666ff" stroke="#6666ff" points="604.646,-133.896 608.146,-143.896 611.646,-133.896 604.646,-133.896"/>
</g>
<!-- IntStr -->
<g id="node14" class="node"><title>IntStr</title>
<g id="a_node14"><a xlink:href="/type/IntStr" xlink:title="IntStr">
<ellipse fill="none" stroke="#000000" cx="616.146" cy="-18" rx="31.6951" ry="18"/>
<text text-anchor="middle" x="616.146" y="-14.3" font-family="FreeSans" font-size="14.00" fill="#000000">IntStr</text>
</a>
</g>
</g>
<!-- IntStr&#45;&gt;Int -->
<g id="edge10" class="edge"><title>IntStr&#45;&gt;Int</title>
<path fill="none" stroke="#000000" d="M591.497,-29.476C583.265,-32.9744 576.146,-36 576.146,-36 576.146,-36 479.491,-63.8407 426.288,-79.1657"/>
<polygon fill="#000000" stroke="#000000" points="425.22,-75.8308 416.58,-81.962 427.158,-82.5573 425.22,-75.8308"/>
</g>
<!-- IntStr&#45;&gt;Str -->
<g id="edge11" class="edge"><title>IntStr&#45;&gt;Str</title>
<path fill="none" stroke="#000000" d="M614.168,-36.3034C613.287,-44.0173 612.227,-53.2875 611.244,-61.8876"/>
<polygon fill="#000000" stroke="#000000" points="607.759,-61.5629 610.101,-71.8957 614.714,-62.3578 607.759,-61.5629"/>
</g>
<!-- Bool -->
<g id="node15" class="node"><title>Bool</title>
<g id="a_node15"><a xlink:href="/type/Bool" xlink:title="Bool">
<ellipse fill="none" stroke="#33bb33" cx="538.146" cy="-18" rx="28.6953" ry="18"/>
<text text-anchor="middle" x="538.146" y="-14.3" font-family="FreeSans" font-size="14.00" fill="#33bb33">Bool</text>
</a>
</g>
</g>
<!-- Bool&#45;&gt;Int -->
<g id="edge12" class="edge"><title>Bool&#45;&gt;Int</title>
<path fill="none" stroke="#000000" d="M515.972,-29.6315C491.139,-41.5376 450.729,-60.9123 422.863,-74.2726"/>
<polygon fill="#000000" stroke="#000000" points="421.08,-71.246 413.576,-78.7253 424.106,-77.558 421.08,-71.246"/>
</g>
</g>
</svg>
