<?xml version="1.0" encoding="UTF-8" standalone="no"?>
<!DOCTYPE svg PUBLIC "-//W3C//DTD SVG 1.1//EN"
 "http://www.w3.org/Graphics/SVG/1.1/DTD/svg11.dtd">
<!-- Generated by graphviz version 2.38.0 (20140413.2041)
 -->
<!-- Title: perl6&#45;type&#45;graph Pages: 1 -->
<svg width="620pt" height="332pt"
 viewBox="0.00 0.00 619.85 332.00" xmlns="http://www.w3.org/2000/svg" xmlns:xlink="http://www.w3.org/1999/xlink">
<g id="graph0" class="graph" transform="scale(1 1) rotate(0) translate(4 328)">
<title>perl6&#45;type&#45;graph</title>
<polygon fill="white" stroke="none" points="-4,4 -4,-328 615.847,-328 615.847,4 -4,4"/>
<!-- Positional -->
<g id="node1" class="node"><title>Positional</title>
<g id="a_node1"><a xlink:href="/type/Positional" xlink:title="Positional">
<ellipse fill="none" stroke="#6666ff" cx="301" cy="-162" rx="48.9926" ry="18"/>
<text text-anchor="middle" x="301" y="-158.3" font-family="FreeSans" font-size="14.00" fill="#6666ff">Positional</text>
</a>
</g>
</g>
<!-- Mu -->
<g id="node2" class="node"><title>Mu</title>
<g id="a_node2"><a xlink:href="/type/Mu" xlink:title="Mu">
<ellipse fill="none" stroke="#000000" cx="224" cy="-306" rx="27" ry="18"/>
<text text-anchor="middle" x="224" y="-302.3" font-family="FreeSans" font-size="14.00" fill="#000000">Mu</text>
</a>
</g>
</g>
<!-- Any -->
<g id="node3" class="node"><title>Any</title>
<g id="a_node3"><a xlink:href="/type/Any" xlink:title="Any">
<ellipse fill="none" stroke="#000000" cx="224" cy="-234" rx="27" ry="18"/>
<text text-anchor="middle" x="224" y="-230.3" font-family="FreeSans" font-size="14.00" fill="#000000">Any</text>
</a>
</g>
</g>
<!-- Any&#45;&gt;Mu -->
<g id="edge1" class="edge"><title>Any&#45;&gt;Mu</title>
<path fill="none" stroke="#000000" d="M224,-252.303C224,-260.017 224,-269.288 224,-277.888"/>
<polygon fill="#000000" stroke="#000000" points="220.5,-277.896 224,-287.896 227.5,-277.896 220.5,-277.896"/>
</g>
<!-- Cool -->
<g id="node4" class="node"><title>Cool</title>
<g id="a_node4"><a xlink:href="/type/Cool" xlink:title="Cool">
<ellipse fill="none" stroke="#000000" cx="495" cy="-162" rx="28.6953" ry="18"/>
<text text-anchor="middle" x="495" y="-158.3" font-family="FreeSans" font-size="14.00" fill="#000000">Cool</text>
</a>
</g>
</g>
<!-- Cool&#45;&gt;Any -->
<g id="edge2" class="edge"><title>Cool&#45;&gt;Any</title>
<path fill="none" stroke="#000000" d="M472.456,-173.085C464.273,-176.746 457,-180 457,-180 457,-180 324.341,-210.176 259.22,-224.989"/>
<polygon fill="#000000" stroke="#000000" points="258.353,-221.596 249.379,-227.227 259.906,-228.422 258.353,-221.596"/>
</g>
<!-- Iterable -->
<g id="node5" class="node"><title>Iterable</title>
<g id="a_node5"><a xlink:href="/type/Iterable" xlink:title="Iterable">
<ellipse fill="none" stroke="#6666ff" cx="408" cy="-162" rx="40.0939" ry="18"/>
<text text-anchor="middle" x="408" y="-158.3" font-family="FreeSans" font-size="14.00" fill="#6666ff">Iterable</text>
</a>
</g>
</g>
<!-- Range -->
<g id="node6" class="node"><title>Range</title>
<g id="a_node6"><a xlink:href="/type/Range" xlink:title="Range">
<ellipse fill="none" stroke="#000000" cx="492" cy="-90" rx="36.2938" ry="18"/>
<text text-anchor="middle" x="492" y="-86.3" font-family="FreeSans" font-size="14.00" fill="#000000">Range</text>
</a>
</g>
</g>
<!-- Range&#45;&gt;Positional -->
<g id="edge13" class="edge"><title>Range&#45;&gt;Positional</title>
<path fill="none" stroke="#6666ff" d="M464.013,-101.573C454.861,-105.03 447,-108 447,-108 447,-108 387.016,-129.775 343.944,-145.411"/>
<polygon fill="#6666ff" stroke="#6666ff" points="342.701,-142.138 334.495,-148.841 345.089,-148.718 342.701,-142.138"/>
</g>
<!-- Range&#45;&gt;Cool -->
<g id="edge3" class="edge"><title>Range&#45;&gt;Cool</title>
<path fill="none" stroke="#000000" d="M492.742,-108.303C493.072,-116.017 493.469,-125.288 493.838,-133.888"/>
<polygon fill="#000000" stroke="#000000" points="490.342,-134.055 494.267,-143.896 497.335,-133.755 490.342,-134.055"/>
</g>
<!-- Range&#45;&gt;Iterable -->
<g id="edge14" class="edge"><title>Range&#45;&gt;Iterable</title>
<path fill="none" stroke="#6666ff" d="M474.186,-105.845C462.54,-115.55 447.132,-128.39 434.112,-139.24"/>
<polygon fill="#6666ff" stroke="#6666ff" points="431.811,-136.602 426.369,-145.692 436.292,-141.979 431.811,-136.602"/>
</g>
<!-- Stringy -->
<g id="node7" class="node"><title>Stringy</title>
<g id="a_node7"><a xlink:href="/type/Stringy" xlink:title="Stringy">
<ellipse fill="none" stroke="#6666ff" cx="134" cy="-162" rx="38.1938" ry="18"/>
<text text-anchor="middle" x="134" y="-158.3" font-family="FreeSans" font-size="14.00" fill="#6666ff">Stringy</text>
</a>
</g>
</g>
<!-- Blob -->
<g id="node8" class="node"><title>Blob</title>
<g id="a_node8"><a xlink:href="/type/Blob" xlink:title="Blob">
<ellipse fill="none" stroke="#6666ff" cx="128" cy="-90" rx="28.6953" ry="18"/>
<text text-anchor="middle" x="128" y="-86.3" font-family="FreeSans" font-size="14.00" fill="#6666ff">Blob</text>
</a>
</g>
</g>
<!-- Blob&#45;&gt;Positional -->
<g id="edge15" class="edge"><title>Blob&#45;&gt;Positional</title>
<path fill="none" stroke="#6666ff" d="M151.332,-100.441C179.033,-111.649 225.739,-130.547 259.619,-144.256"/>
<polygon fill="#6666ff" stroke="#6666ff" points="258.664,-147.646 269.247,-148.152 261.29,-141.157 258.664,-147.646"/>
</g>
<!-- Blob&#45;&gt;Stringy -->
<g id="edge16" class="edge"><title>Blob&#45;&gt;Stringy</title>
<path fill="none" stroke="#6666ff" d="M129.483,-108.303C130.144,-116.017 130.939,-125.288 131.676,-133.888"/>
<polygon fill="#6666ff" stroke="#6666ff" points="128.193,-134.231 132.534,-143.896 135.167,-133.633 128.193,-134.231"/>
</g>
<!-- Uni -->
<g id="node9" class="node"><title>Uni</title>
<g id="a_node9"><a xlink:href="/type/Uni" xlink:title="Uni">
<ellipse fill="none" stroke="#000000" cx="263" cy="-90" rx="27" ry="18"/>
<text text-anchor="middle" x="263" y="-86.3" font-family="FreeSans" font-size="14.00" fill="#000000">Uni</text>
</a>
</g>
</g>
<!-- Uni&#45;&gt;Positional -->
<g id="edge17" class="edge"><title>Uni&#45;&gt;Positional</title>
<path fill="none" stroke="#6666ff" d="M271.813,-107.235C276.286,-115.475 281.828,-125.683 286.877,-134.984"/>
<polygon fill="#6666ff" stroke="#6666ff" points="283.857,-136.757 291.704,-143.876 290.009,-133.418 283.857,-136.757"/>
</g>
<!-- Uni&#45;&gt;Any -->
<g id="edge4" class="edge"><title>Uni&#45;&gt;Any</title>
<path fill="none" stroke="#000000" d="M256.672,-107.77C250.812,-123.297 243,-144 243,-144 243,-144 235.35,-179.833 229.759,-206.025"/>
<polygon fill="#000000" stroke="#000000" points="226.328,-205.33 227.663,-215.84 233.174,-206.791 226.328,-205.33"/>
</g>
<!-- Uni&#45;&gt;Stringy -->
<g id="edge18" class="edge"><title>Uni&#45;&gt;Stringy</title>
<path fill="none" stroke="#6666ff" d="M242.56,-102.092C222.364,-113.05 191.13,-129.999 167.34,-142.908"/>
<polygon fill="#6666ff" stroke="#6666ff" points="165.423,-139.967 158.303,-147.812 168.762,-146.119 165.423,-139.967"/>
</g>
<!-- List -->
<g id="node10" class="node"><title>List</title>
<g id="a_node10"><a xlink:href="/type/List" xlink:title="List">
<ellipse fill="none" stroke="#000000" cx="411" cy="-90" rx="27" ry="18"/>
<text text-anchor="middle" x="411" y="-86.3" font-family="FreeSans" font-size="14.00" fill="#000000">List</text>
</a>
</g>
</g>
<!-- List&#45;&gt;Positional -->
<g id="edge19" class="edge"><title>List&#45;&gt;Positional</title>
<path fill="none" stroke="#6666ff" d="M391.839,-103.193C375.685,-113.473 352.225,-128.402 333.193,-140.514"/>
<polygon fill="#6666ff" stroke="#6666ff" points="331.088,-137.705 324.53,-146.026 334.846,-143.61 331.088,-137.705"/>
</g>
<!-- List&#45;&gt;Cool -->
<g id="edge5" class="edge"><title>List&#45;&gt;Cool</title>
<path fill="none" stroke="#000000" d="M427.196,-104.497C439.471,-114.726 456.546,-128.955 470.49,-140.575"/>
<polygon fill="#000000" stroke="#000000" points="468.356,-143.353 478.279,-147.066 472.837,-137.975 468.356,-143.353"/>
</g>
<!-- List&#45;&gt;Iterable -->
<g id="edge20" class="edge"><title>List&#45;&gt;Iterable</title>
<path fill="none" stroke="#6666ff" d="M410.258,-108.303C409.928,-116.017 409.531,-125.288 409.162,-133.888"/>
<polygon fill="#6666ff" stroke="#6666ff" points="405.665,-133.755 408.733,-143.896 412.658,-134.055 405.665,-133.755"/>
</g>
<!-- NFKD -->
<g id="node11" class="node"><title>NFKD</title>
<g id="a_node11"><a xlink:href="/type/NFKD" xlink:title="NFKD">
<ellipse fill="none" stroke="#000000" cx="180" cy="-18" rx="35.9954" ry="18"/>
<text text-anchor="middle" x="180" y="-14.3" font-family="FreeSans" font-size="14.00" fill="#000000">NFKD</text>
</a>
</g>
</g>
<!-- NFKD&#45;&gt;Uni -->
<g id="edge6" class="edge"><title>NFKD&#45;&gt;Uni</title>
<path fill="none" stroke="#000000" d="M197.602,-33.8452C209.661,-44.015 225.803,-57.6288 239.032,-68.7862"/>
<polygon fill="#000000" stroke="#000000" points="236.93,-71.5916 246.831,-75.3631 241.443,-66.2405 236.93,-71.5916"/>
</g>
<!-- NFD -->
<g id="node12" class="node"><title>NFD</title>
<g id="a_node12"><a xlink:href="/type/NFD" xlink:title="NFD">
<ellipse fill="none" stroke="#000000" cx="263" cy="-18" rx="29.4969" ry="18"/>
<text text-anchor="middle" x="263" y="-14.3" font-family="FreeSans" font-size="14.00" fill="#000000">NFD</text>
</a>
</g>
</g>
<!-- NFD&#45;&gt;Uni -->
<g id="edge7" class="edge"><title>NFD&#45;&gt;Uni</title>
<path fill="none" stroke="#000000" d="M263,-36.3034C263,-44.0173 263,-53.2875 263,-61.8876"/>
<polygon fill="#000000" stroke="#000000" points="259.5,-61.8956 263,-71.8957 266.5,-61.8957 259.5,-61.8956"/>
</g>
<!-- NFC -->
<g id="node13" class="node"><title>NFC</title>
<g id="a_node13"><a xlink:href="/type/NFC" xlink:title="NFC">
<ellipse fill="none" stroke="#000000" cx="339" cy="-18" rx="29.4969" ry="18"/>
<text text-anchor="middle" x="339" y="-14.3" font-family="FreeSans" font-size="14.00" fill="#000000">NFC</text>
</a>
</g>
</g>
<!-- NFC&#45;&gt;Uni -->
<g id="edge8" class="edge"><title>NFC&#45;&gt;Uni</title>
<path fill="none" stroke="#000000" d="M323.253,-33.504C312.41,-43.4905 297.836,-56.9141 285.737,-68.0576"/>
<polygon fill="#000000" stroke="#000000" points="283.193,-65.643 278.208,-74.9922 287.935,-70.7918 283.193,-65.643"/>
</g>
<!-- NFKC -->
<g id="node14" class="node"><title>NFKC</title>
<g id="a_node14"><a xlink:href="/type/NFKC" xlink:title="NFKC">
<ellipse fill="none" stroke="#000000" cx="422" cy="-18" rx="35.9954" ry="18"/>
<text text-anchor="middle" x="422" y="-14.3" font-family="FreeSans" font-size="14.00" fill="#000000">NFKC</text>
</a>
</g>
</g>
<!-- NFKC&#45;&gt;Uni -->
<g id="edge9" class="edge"><title>NFKC&#45;&gt;Uni</title>
<path fill="none" stroke="#000000" d="M395.744,-30.5591C368.008,-42.7699 324.27,-62.0257 294.648,-75.067"/>
<polygon fill="#000000" stroke="#000000" points="292.929,-71.9996 285.187,-79.2323 295.749,-78.4062 292.929,-71.9996"/>
</g>
<!-- Slip -->
<g id="node15" class="node"><title>Slip</title>
<g id="a_node15"><a xlink:href="/type/Slip" xlink:title="Slip">
<ellipse fill="none" stroke="#000000" cx="503" cy="-18" rx="27" ry="18"/>
<text text-anchor="middle" x="503" y="-14.3" font-family="FreeSans" font-size="14.00" fill="#000000">Slip</text>
</a>
</g>
</g>
<!-- Slip&#45;&gt;List -->
<g id="edge10" class="edge"><title>Slip&#45;&gt;List</title>
<path fill="none" stroke="#000000" d="M485.696,-32.1665C471.817,-42.7259 452.137,-57.6999 436.461,-69.6272"/>
<polygon fill="#000000" stroke="#000000" points="434.066,-67.0519 428.227,-75.8926 438.305,-72.6227 434.066,-67.0519"/>
</g>
<!-- Array -->
<g id="node16" class="node"><title>Array</title>
<g id="a_node16"><a xlink:href="/type/Array" xlink:title="Array">
<ellipse fill="none" stroke="#000000" cx="580" cy="-18" rx="31.6951" ry="18"/>
<text text-anchor="middle" x="580" y="-14.3" font-family="FreeSans" font-size="14.00" fill="#000000">Array</text>
</a>
</g>
</g>
<!-- Array&#45;&gt;List -->
<g id="edge11" class="edge"><title>Array&#45;&gt;List</title>
<path fill="none" stroke="#000000" d="M554.734,-29.476C546.297,-32.9744 539,-36 539,-36 539,-36 447,-72 447,-72 447,-72 444.82,-73.0296 441.532,-74.5819"/>
<polygon fill="#000000" stroke="#000000" points="439.905,-71.4796 432.357,-78.9146 442.894,-77.8093 439.905,-71.4796"/>
</g>
<!-- utf8 -->
<g id="node17" class="node"><title>utf8</title>
<g id="a_node17"><a xlink:href="/type/utf8" xlink:title="utf8">
<ellipse fill="none" stroke="#000000" cx="27" cy="-18" rx="27" ry="18"/>
<text text-anchor="middle" x="27" y="-14.3" font-family="FreeSans" font-size="14.00" fill="#000000">utf8</text>
</a>
</g>
</g>
<!-- utf8&#45;&gt;Any -->
<g id="edge12" class="edge"><title>utf8&#45;&gt;Any</title>
<path fill="none" stroke="#000000" d="M33.1951,-35.6234C48.525,-76.7587 87,-180 87,-180 87,-180 151.068,-204.785 191.578,-220.457"/>
<polygon fill="#000000" stroke="#000000" points="190.48,-223.785 201.069,-224.129 193.006,-217.257 190.48,-223.785"/>
</g>
<!-- utf8&#45;&gt;Blob -->
<g id="edge21" class="edge"><title>utf8&#45;&gt;Blob</title>
<path fill="none" stroke="#6666ff" d="M45.0568,-31.5146C60.6604,-42.329 83.4304,-58.1101 101.167,-70.4028"/>
<polygon fill="#6666ff" stroke="#6666ff" points="99.2035,-73.3004 109.416,-76.1202 103.191,-67.5471 99.2035,-73.3004"/>
</g>
<!-- Buf -->
<g id="node18" class="node"><title>Buf</title>
<g id="a_node18"><a xlink:href="/type/Buf" xlink:title="Buf">
<ellipse fill="none" stroke="#6666ff" cx="99" cy="-18" rx="27" ry="18"/>
<text text-anchor="middle" x="99" y="-14.3" font-family="FreeSans" font-size="14.00" fill="#6666ff">Buf</text>
</a>
</g>
</g>
<!-- Buf&#45;&gt;Blob -->
<g id="edge22" class="edge"><title>Buf&#45;&gt;Blob</title>
<path fill="none" stroke="#6666ff" d="M105.873,-35.589C109.218,-43.6648 113.321,-53.5688 117.082,-62.6453"/>
<polygon fill="#6666ff" stroke="#6666ff" points="113.914,-64.1448 120.975,-72.0438 120.381,-61.4656 113.914,-64.1448"/>
</g>
</g>
</svg>
