<?xml version="1.0" encoding="UTF-8" standalone="no"?>
<!DOCTYPE svg PUBLIC "-//W3C//DTD SVG 1.1//EN"
 "http://www.w3.org/Graphics/SVG/1.1/DTD/svg11.dtd">
<!-- Generated by graphviz version 2.38.0 (20140413.2041)
 -->
<!-- Title: perl6&#45;type&#45;graph Pages: 1 -->
<svg width="919pt" height="332pt"
 viewBox="0.00 0.00 918.99 332.00" xmlns="http://www.w3.org/2000/svg" xmlns:xlink="http://www.w3.org/1999/xlink">
<g id="graph0" class="graph" transform="scale(1 1) rotate(0) translate(4 328)">
<title>perl6&#45;type&#45;graph</title>
<polygon fill="white" stroke="none" points="-4,4 -4,-328 914.993,-328 914.993,4 -4,4"/>
<!-- Real -->
<g id="node1" class="node"><title>Real</title>
<g id="a_node1"><a xlink:href="/type/Real" xlink:title="Real">
<ellipse fill="none" stroke="#6666ff" cx="327.047" cy="-162" rx="28.6953" ry="18"/>
<text text-anchor="middle" x="327.047" y="-158.3" font-family="FreeSans" font-size="14.00" fill="#6666ff">Real</text>
</a>
</g>
</g>
<!-- Numeric -->
<g id="node2" class="node"><title>Numeric</title>
<g id="a_node2"><a xlink:href="/type/Numeric" xlink:title="Numeric">
<ellipse fill="none" stroke="#6666ff" cx="327.047" cy="-234" rx="44.393" ry="18"/>
<text text-anchor="middle" x="327.047" y="-230.3" font-family="FreeSans" font-size="14.00" fill="#6666ff">Numeric</text>
</a>
</g>
</g>
<!-- Real&#45;&gt;Numeric -->
<g id="edge20" class="edge"><title>Real&#45;&gt;Numeric</title>
<path fill="none" stroke="#6666ff" d="M327.047,-180.303C327.047,-188.017 327.047,-197.288 327.047,-205.888"/>
<polygon fill="#6666ff" stroke="#6666ff" points="323.547,-205.896 327.047,-215.896 330.547,-205.896 323.547,-205.896"/>
</g>
<!-- Mu -->
<g id="node3" class="node"><title>Mu</title>
<g id="a_node3"><a xlink:href="/type/Mu" xlink:title="Mu">
<ellipse fill="none" stroke="#000000" cx="437.047" cy="-306" rx="27" ry="18"/>
<text text-anchor="middle" x="437.047" y="-302.3" font-family="FreeSans" font-size="14.00" fill="#000000">Mu</text>
</a>
</g>
</g>
<!-- Any -->
<g id="node4" class="node"><title>Any</title>
<g id="a_node4"><a xlink:href="/type/Any" xlink:title="Any">
<ellipse fill="none" stroke="#000000" cx="437.047" cy="-234" rx="27" ry="18"/>
<text text-anchor="middle" x="437.047" y="-230.3" font-family="FreeSans" font-size="14.00" fill="#000000">Any</text>
</a>
</g>
</g>
<!-- Any&#45;&gt;Mu -->
<g id="edge1" class="edge"><title>Any&#45;&gt;Mu</title>
<path fill="none" stroke="#000000" d="M437.047,-252.303C437.047,-260.017 437.047,-269.288 437.047,-277.888"/>
<polygon fill="#000000" stroke="#000000" points="433.547,-277.896 437.047,-287.896 440.547,-277.896 433.547,-277.896"/>
</g>
<!-- Cool -->
<g id="node5" class="node"><title>Cool</title>
<g id="a_node5"><a xlink:href="/type/Cool" xlink:title="Cool">
<ellipse fill="none" stroke="#000000" cx="437.047" cy="-162" rx="28.6953" ry="18"/>
<text text-anchor="middle" x="437.047" y="-158.3" font-family="FreeSans" font-size="14.00" fill="#000000">Cool</text>
</a>
</g>
</g>
<!-- Cool&#45;&gt;Any -->
<g id="edge2" class="edge"><title>Cool&#45;&gt;Any</title>
<path fill="none" stroke="#000000" d="M437.047,-180.303C437.047,-188.017 437.047,-197.288 437.047,-205.888"/>
<polygon fill="#000000" stroke="#000000" points="433.547,-205.896 437.047,-215.896 440.547,-205.896 433.547,-205.896"/>
</g>
<!-- Instant -->
<g id="node6" class="node"><title>Instant</title>
<g id="a_node6"><a xlink:href="/type/Instant" xlink:title="Instant">
<ellipse fill="none" stroke="#000000" cx="228.047" cy="-90" rx="37.0935" ry="18"/>
<text text-anchor="middle" x="228.047" y="-86.3" font-family="FreeSans" font-size="14.00" fill="#000000">Instant</text>
</a>
</g>
</g>
<!-- Instant&#45;&gt;Real -->
<g id="edge21" class="edge"><title>Instant&#45;&gt;Real</title>
<path fill="none" stroke="#6666ff" d="M248.081,-105.166C263.188,-115.848 284.054,-130.601 300.542,-142.259"/>
<polygon fill="#6666ff" stroke="#6666ff" points="298.526,-145.12 308.712,-148.036 302.567,-139.405 298.526,-145.12"/>
</g>
<!-- Instant&#45;&gt;Cool -->
<g id="edge3" class="edge"><title>Instant&#45;&gt;Cool</title>
<path fill="none" stroke="#000000" d="M256.656,-101.573C266.011,-105.03 274.047,-108 274.047,-108 274.047,-108 354.796,-134.256 402.625,-149.808"/>
<polygon fill="#000000" stroke="#000000" points="401.698,-153.187 412.291,-152.95 403.863,-146.53 401.698,-153.187"/>
</g>
<!-- Int -->
<g id="node7" class="node"><title>Int</title>
<g id="a_node7"><a xlink:href="/type/Int" xlink:title="Int">
<ellipse fill="none" stroke="#000000" cx="492.047" cy="-90" rx="27" ry="18"/>
<text text-anchor="middle" x="492.047" y="-86.3" font-family="FreeSans" font-size="14.00" fill="#000000">Int</text>
</a>
</g>
</g>
<!-- Int&#45;&gt;Real -->
<g id="edge22" class="edge"><title>Int&#45;&gt;Real</title>
<path fill="none" stroke="#6666ff" d="M469.794,-100.441C441.414,-112.48 392.121,-133.393 359.539,-147.215"/>
<polygon fill="#6666ff" stroke="#6666ff" points="357.844,-144.132 350.006,-151.26 360.578,-150.576 357.844,-144.132"/>
</g>
<!-- Int&#45;&gt;Cool -->
<g id="edge4" class="edge"><title>Int&#45;&gt;Cool</title>
<path fill="none" stroke="#000000" d="M480.113,-106.189C472.933,-115.327 463.643,-127.151 455.53,-137.476"/>
<polygon fill="#000000" stroke="#000000" points="452.765,-135.33 449.338,-145.356 458.269,-139.655 452.765,-135.33"/>
</g>
<!-- Rational -->
<g id="node8" class="node"><title>Rational</title>
<g id="a_node8"><a xlink:href="/type/Rational" xlink:title="Rational">
<ellipse fill="none" stroke="#6666ff" cx="119.047" cy="-90" rx="42.7926" ry="18"/>
<text text-anchor="middle" x="119.047" y="-86.3" font-family="FreeSans" font-size="14.00" fill="#6666ff">Rational</text>
</a>
</g>
</g>
<!-- Rational&#45;&gt;Real -->
<g id="edge23" class="edge"><title>Rational&#45;&gt;Real</title>
<path fill="none" stroke="#6666ff" d="M151.547,-101.938C189.911,-114.849 253.435,-136.227 292.62,-149.414"/>
<polygon fill="#6666ff" stroke="#6666ff" points="291.673,-152.788 302.267,-152.661 293.905,-146.154 291.673,-152.788"/>
</g>
<!-- Duration -->
<g id="node9" class="node"><title>Duration</title>
<g id="a_node9"><a xlink:href="/type/Duration" xlink:title="Duration">
<ellipse fill="none" stroke="#000000" cx="327.047" cy="-90" rx="44.393" ry="18"/>
<text text-anchor="middle" x="327.047" y="-86.3" font-family="FreeSans" font-size="14.00" fill="#000000">Duration</text>
</a>
</g>
</g>
<!-- Duration&#45;&gt;Real -->
<g id="edge24" class="edge"><title>Duration&#45;&gt;Real</title>
<path fill="none" stroke="#6666ff" d="M327.047,-108.303C327.047,-116.017 327.047,-125.288 327.047,-133.888"/>
<polygon fill="#6666ff" stroke="#6666ff" points="323.547,-133.896 327.047,-143.896 330.547,-133.896 323.547,-133.896"/>
</g>
<!-- Duration&#45;&gt;Cool -->
<g id="edge5" class="edge"><title>Duration&#45;&gt;Cool</title>
<path fill="none" stroke="#000000" d="M349.839,-105.504C367.036,-116.448 390.72,-131.519 409.067,-143.195"/>
<polygon fill="#000000" stroke="#000000" points="407.277,-146.204 417.593,-148.62 411.035,-140.299 407.277,-146.204"/>
</g>
<!-- Num -->
<g id="node10" class="node"><title>Num</title>
<g id="a_node10"><a xlink:href="/type/Num" xlink:title="Num">
<ellipse fill="none" stroke="#000000" cx="567.047" cy="-90" rx="29.795" ry="18"/>
<text text-anchor="middle" x="567.047" y="-86.3" font-family="FreeSans" font-size="14.00" fill="#000000">Num</text>
</a>
</g>
</g>
<!-- Num&#45;&gt;Real -->
<g id="edge25" class="edge"><title>Num&#45;&gt;Real</title>
<path fill="none" stroke="#6666ff" d="M543.461,-101.281C535.247,-104.861 528.047,-108 528.047,-108 528.047,-108 420.501,-136.358 362.744,-151.587"/>
<polygon fill="#6666ff" stroke="#6666ff" points="361.69,-148.246 352.912,-154.18 363.474,-155.014 361.69,-148.246"/>
</g>
<!-- Num&#45;&gt;Cool -->
<g id="edge6" class="edge"><title>Num&#45;&gt;Cool</title>
<path fill="none" stroke="#000000" d="M545.58,-102.559C524.188,-114.078 491.155,-131.865 467.149,-144.791"/>
<polygon fill="#000000" stroke="#000000" points="465.259,-141.833 458.114,-149.656 468.578,-147.997 465.259,-141.833"/>
</g>
<!-- atomicint -->
<g id="node11" class="node"><title>atomicint</title>
<g id="a_node11"><a xlink:href="/type/atomicint" xlink:title="atomicint">
<ellipse fill="none" stroke="#000000" cx="370.047" cy="-18" rx="46.2923" ry="18"/>
<text text-anchor="middle" x="370.047" y="-14.3" font-family="FreeSans" font-size="14.00" fill="#000000">atomicint</text>
</a>
</g>
</g>
<!-- atomicint&#45;&gt;Int -->
<g id="edge7" class="edge"><title>atomicint&#45;&gt;Int</title>
<path fill="none" stroke="#000000" d="M395.03,-33.3345C414.948,-44.7629 442.848,-60.7712 463.619,-72.6888"/>
<polygon fill="#000000" stroke="#000000" points="461.907,-75.7418 472.322,-77.6828 465.391,-69.6703 461.907,-75.7418"/>
</g>
<!-- Stringy -->
<g id="node12" class="node"><title>Stringy</title>
<g id="a_node12"><a xlink:href="/type/Stringy" xlink:title="Stringy">
<ellipse fill="none" stroke="#6666ff" cx="779.047" cy="-162" rx="38.1938" ry="18"/>
<text text-anchor="middle" x="779.047" y="-158.3" font-family="FreeSans" font-size="14.00" fill="#6666ff">Stringy</text>
</a>
</g>
</g>
<!-- Str -->
<g id="node13" class="node"><title>Str</title>
<g id="a_node13"><a xlink:href="/type/Str" xlink:title="Str">
<ellipse fill="none" stroke="#000000" cx="779.047" cy="-90" rx="27" ry="18"/>
<text text-anchor="middle" x="779.047" y="-86.3" font-family="FreeSans" font-size="14.00" fill="#000000">Str</text>
</a>
</g>
</g>
<!-- Str&#45;&gt;Cool -->
<g id="edge8" class="edge"><title>Str&#45;&gt;Cool</title>
<path fill="none" stroke="#000000" d="M753.621,-96.2042C693.839,-108.44 544.142,-139.08 474.175,-153.401"/>
<polygon fill="#000000" stroke="#000000" points="473.149,-150.038 464.054,-155.472 474.552,-156.896 473.149,-150.038"/>
</g>
<!-- Str&#45;&gt;Stringy -->
<g id="edge26" class="edge"><title>Str&#45;&gt;Stringy</title>
<path fill="none" stroke="#6666ff" d="M779.047,-108.303C779.047,-116.017 779.047,-125.288 779.047,-133.888"/>
<polygon fill="#6666ff" stroke="#6666ff" points="775.547,-133.896 779.047,-143.896 782.547,-133.896 775.547,-133.896"/>
</g>
<!-- IntStr -->
<g id="node14" class="node"><title>IntStr</title>
<g id="a_node14"><a xlink:href="/type/IntStr" xlink:title="IntStr">
<ellipse fill="none" stroke="#000000" cx="779.047" cy="-18" rx="31.6951" ry="18"/>
<text text-anchor="middle" x="779.047" y="-14.3" font-family="FreeSans" font-size="14.00" fill="#000000">IntStr</text>
</a>
</g>
</g>
<!-- IntStr&#45;&gt;Int -->
<g id="edge9" class="edge"><title>IntStr&#45;&gt;Int</title>
<path fill="none" stroke="#000000" d="M754.397,-29.476C746.166,-32.9744 739.047,-36 739.047,-36 739.047,-36 528.047,-72 528.047,-72 528.047,-72 525.866,-73.0296 522.579,-74.5819"/>
<polygon fill="#000000" stroke="#000000" points="520.952,-71.4796 513.404,-78.9146 523.941,-77.8093 520.952,-71.4796"/>
</g>
<!-- IntStr&#45;&gt;Str -->
<g id="edge10" class="edge"><title>IntStr&#45;&gt;Str</title>
<path fill="none" stroke="#000000" d="M779.047,-36.3034C779.047,-44.0173 779.047,-53.2875 779.047,-61.8876"/>
<polygon fill="#000000" stroke="#000000" points="775.547,-61.8956 779.047,-71.8957 782.547,-61.8957 775.547,-61.8956"/>
</g>
<!-- PromiseStatus -->
<g id="node15" class="node"><title>PromiseStatus</title>
<g id="a_node15"><a xlink:href="/type/PromiseStatus" xlink:title="PromiseStatus">
<ellipse fill="none" stroke="#33bb33" cx="502.047" cy="-18" rx="67.6881" ry="18"/>
<text text-anchor="middle" x="502.047" y="-14.3" font-family="FreeSans" font-size="14.00" fill="#33bb33">PromiseStatus</text>
</a>
</g>
</g>
<!-- PromiseStatus&#45;&gt;Int -->
<g id="edge11" class="edge"><title>PromiseStatus&#45;&gt;Int</title>
<path fill="none" stroke="#000000" d="M499.575,-36.3034C498.473,-44.0173 497.148,-53.2875 495.92,-61.8876"/>
<polygon fill="#000000" stroke="#000000" points="492.44,-61.5012 494.49,-71.8957 499.369,-62.4912 492.44,-61.5012"/>
</g>
<!-- Order -->
<g id="node16" class="node"><title>Order</title>
<g id="a_node16"><a xlink:href="/type/Order" xlink:title="Order">
<ellipse fill="none" stroke="#33bb33" cx="621.047" cy="-18" rx="33.5952" ry="18"/>
<text text-anchor="middle" x="621.047" y="-14.3" font-family="FreeSans" font-size="14.00" fill="#33bb33">Order</text>
</a>
</g>
</g>
<!-- Order&#45;&gt;Int -->
<g id="edge12" class="edge"><title>Order&#45;&gt;Int</title>
<path fill="none" stroke="#000000" d="M598.281,-31.3535C576.921,-42.9443 544.859,-60.342 521.547,-72.9921"/>
<polygon fill="#000000" stroke="#000000" points="519.58,-70.077 512.46,-77.9228 522.919,-76.2296 519.58,-70.077"/>
</g>
<!-- Bool -->
<g id="node17" class="node"><title>Bool</title>
<g id="a_node17"><a xlink:href="/type/Bool" xlink:title="Bool">
<ellipse fill="none" stroke="#33bb33" cx="701.047" cy="-18" rx="28.6953" ry="18"/>
<text text-anchor="middle" x="701.047" y="-14.3" font-family="FreeSans" font-size="14.00" fill="#33bb33">Bool</text>
</a>
</g>
</g>
<!-- Bool&#45;&gt;Int -->
<g id="edge13" class="edge"><title>Bool&#45;&gt;Int</title>
<path fill="none" stroke="#000000" d="M678.67,-29.2811C670.878,-32.8613 664.047,-36 664.047,-36 664.047,-36 528.047,-72 528.047,-72 528.047,-72 525.866,-73.0296 522.579,-74.5819"/>
<polygon fill="#000000" stroke="#000000" points="520.952,-71.4796 513.404,-78.9146 523.941,-77.8093 520.952,-71.4796"/>
</g>
<!-- Signal -->
<g id="node18" class="node"><title>Signal</title>
<g id="a_node18"><a xlink:href="/type/Signal" xlink:title="Signal">
<ellipse fill="none" stroke="#33bb33" cx="199.047" cy="-18" rx="35.194" ry="18"/>
<text text-anchor="middle" x="199.047" y="-14.3" font-family="FreeSans" font-size="14.00" fill="#33bb33">Signal</text>
</a>
</g>
</g>
<!-- Signal&#45;&gt;Int -->
<g id="edge14" class="edge"><title>Signal&#45;&gt;Int</title>
<path fill="none" stroke="#000000" d="M226.161,-29.476C235.216,-32.9744 243.047,-36 243.047,-36 243.047,-36 451.047,-72 451.047,-72 451.047,-72 454.926,-73.6087 460.299,-75.8363"/>
<polygon fill="#000000" stroke="#000000" points="459.049,-79.1071 469.627,-79.7042 461.73,-72.6409 459.049,-79.1071"/>
</g>
<!-- int -->
<g id="node19" class="node"><title>int</title>
<g id="a_node19"><a xlink:href="/type/int" xlink:title="int">
<ellipse fill="none" stroke="#000000" cx="279.047" cy="-18" rx="27" ry="18"/>
<text text-anchor="middle" x="279.047" y="-14.3" font-family="FreeSans" font-size="14.00" fill="#000000">int</text>
</a>
</g>
</g>
<!-- int&#45;&gt;Int -->
<g id="edge15" class="edge"><title>int&#45;&gt;Int</title>
<path fill="none" stroke="#000000" d="M300.404,-29.0854C308.156,-32.7461 315.047,-36 315.047,-36 315.047,-36 451.047,-72 451.047,-72 451.047,-72 454.926,-73.6087 460.299,-75.8363"/>
<polygon fill="#000000" stroke="#000000" points="459.049,-79.1071 469.627,-79.7042 461.73,-72.6409 459.049,-79.1071"/>
</g>
<!-- NumStr -->
<g id="node20" class="node"><title>NumStr</title>
<g id="a_node20"><a xlink:href="/type/NumStr" xlink:title="NumStr">
<ellipse fill="none" stroke="#000000" cx="870.047" cy="-18" rx="40.8928" ry="18"/>
<text text-anchor="middle" x="870.047" y="-14.3" font-family="FreeSans" font-size="14.00" fill="#000000">NumStr</text>
</a>
</g>
</g>
<!-- NumStr&#45;&gt;Num -->
<g id="edge16" class="edge"><title>NumStr&#45;&gt;Num</title>
<path fill="none" stroke="#000000" d="M838.665,-29.6698C828.619,-33.0854 820.047,-36 820.047,-36 820.047,-36 675.525,-66.2752 604.94,-81.0618"/>
<polygon fill="#000000" stroke="#000000" points="604.159,-77.6495 595.089,-83.1256 605.594,-84.5008 604.159,-77.6495"/>
</g>
<!-- NumStr&#45;&gt;Str -->
<g id="edge17" class="edge"><title>NumStr&#45;&gt;Str</title>
<path fill="none" stroke="#000000" d="M850.301,-34.189C836.755,-44.609 818.668,-58.5222 804.106,-69.7232"/>
<polygon fill="#000000" stroke="#000000" points="801.794,-67.0866 796.001,-75.9579 806.062,-72.635 801.794,-67.0866"/>
</g>
<!-- FatRat -->
<g id="node21" class="node"><title>FatRat</title>
<g id="a_node21"><a xlink:href="/type/FatRat" xlink:title="FatRat">
<ellipse fill="none" stroke="#000000" cx="37.0467" cy="-18" rx="37.0935" ry="18"/>
<text text-anchor="middle" x="37.0467" y="-14.3" font-family="FreeSans" font-size="14.00" fill="#000000">FatRat</text>
</a>
</g>
</g>
<!-- FatRat&#45;&gt;Cool -->
<g id="edge18" class="edge"><title>FatRat&#45;&gt;Cool</title>
<path fill="none" stroke="#000000" d="M65.6561,-29.573C75.0106,-33.0301 83.0467,-36 83.0467,-36 83.0467,-36 380.047,-72 380.047,-72 380.047,-72 404.384,-110 421.253,-136.34"/>
<polygon fill="#000000" stroke="#000000" points="418.516,-138.555 426.856,-145.089 424.41,-134.78 418.516,-138.555"/>
</g>
<!-- FatRat&#45;&gt;Rational -->
<g id="edge27" class="edge"><title>FatRat&#45;&gt;Rational</title>
<path fill="none" stroke="#6666ff" d="M54.8395,-34.189C66.0449,-43.7546 80.6987,-56.2639 93.1774,-66.9164"/>
<polygon fill="#6666ff" stroke="#6666ff" points="91.1274,-69.7683 101.005,-73.599 95.6723,-64.4443 91.1274,-69.7683"/>
</g>
<!-- Rat -->
<g id="node22" class="node"><title>Rat</title>
<g id="a_node22"><a xlink:href="/type/Rat" xlink:title="Rat">
<ellipse fill="none" stroke="#000000" cx="119.047" cy="-18" rx="27" ry="18"/>
<text text-anchor="middle" x="119.047" y="-14.3" font-family="FreeSans" font-size="14.00" fill="#000000">Rat</text>
</a>
</g>
</g>
<!-- Rat&#45;&gt;Cool -->
<g id="edge19" class="edge"><title>Rat&#45;&gt;Cool</title>
<path fill="none" stroke="#000000" d="M140.404,-29.0854C148.156,-32.7461 155.047,-36 155.047,-36 155.047,-36 413.047,-72 413.047,-72 413.047,-72 422.71,-107.833 429.773,-134.025"/>
<polygon fill="#000000" stroke="#000000" points="426.436,-135.096 432.419,-143.84 433.195,-133.273 426.436,-135.096"/>
</g>
<!-- Rat&#45;&gt;Rational -->
<g id="edge28" class="edge"><title>Rat&#45;&gt;Rational</title>
<path fill="none" stroke="#6666ff" d="M119.047,-36.3034C119.047,-44.0173 119.047,-53.2875 119.047,-61.8876"/>
<polygon fill="#6666ff" stroke="#6666ff" points="115.547,-61.8956 119.047,-71.8957 122.547,-61.8957 115.547,-61.8956"/>
</g>
</g>
</svg>
