<?xml version="1.0" encoding="UTF-8" standalone="no"?>
<!DOCTYPE svg PUBLIC "-//W3C//DTD SVG 1.1//EN"
 "http://www.w3.org/Graphics/SVG/1.1/DTD/svg11.dtd">
<!-- Generated by graphviz version 2.38.0 (20140413.2041)
 -->
<!-- Title: perl6&#45;type&#45;graph Pages: 1 -->
<svg width="632pt" height="332pt"
 viewBox="0.00 0.00 631.75 332.00" xmlns="http://www.w3.org/2000/svg" xmlns:xlink="http://www.w3.org/1999/xlink">
<g id="graph0" class="graph" transform="scale(1 1) rotate(0) translate(4 328)">
<title>perl6&#45;type&#45;graph</title>
<polygon fill="white" stroke="none" points="-4,4 -4,-328 627.747,-328 627.747,4 -4,4"/>
<!-- Positional -->
<g id="node1" class="node"><title>Positional</title>
<g id="a_node1"><a xlink:href="/type/Positional" xlink:title="Positional">
<ellipse fill="none" stroke="#6666ff" cx="352.747" cy="-162" rx="48.9926" ry="18"/>
<text text-anchor="middle" x="352.747" y="-158.3" font-family="FreeSans" font-size="14.00" fill="#6666ff">Positional</text>
</a>
</g>
</g>
<!-- Mu -->
<g id="node2" class="node"><title>Mu</title>
<g id="a_node2"><a xlink:href="/type/Mu" xlink:title="Mu">
<ellipse fill="none" stroke="#000000" cx="447.747" cy="-306" rx="27" ry="18"/>
<text text-anchor="middle" x="447.747" y="-302.3" font-family="FreeSans" font-size="14.00" fill="#000000">Mu</text>
</a>
</g>
</g>
<!-- Any -->
<g id="node3" class="node"><title>Any</title>
<g id="a_node3"><a xlink:href="/type/Any" xlink:title="Any">
<ellipse fill="none" stroke="#000000" cx="447.747" cy="-234" rx="27" ry="18"/>
<text text-anchor="middle" x="447.747" y="-230.3" font-family="FreeSans" font-size="14.00" fill="#000000">Any</text>
</a>
</g>
</g>
<!-- Any&#45;&gt;Mu -->
<g id="edge1" class="edge"><title>Any&#45;&gt;Mu</title>
<path fill="none" stroke="#000000" d="M447.747,-252.303C447.747,-260.017 447.747,-269.288 447.747,-277.888"/>
<polygon fill="#000000" stroke="#000000" points="444.247,-277.896 447.747,-287.896 451.247,-277.896 444.247,-277.896"/>
</g>
<!-- Cool -->
<g id="node4" class="node"><title>Cool</title>
<g id="a_node4"><a xlink:href="/type/Cool" xlink:title="Cool">
<ellipse fill="none" stroke="#000000" cx="447.747" cy="-162" rx="28.6953" ry="18"/>
<text text-anchor="middle" x="447.747" y="-158.3" font-family="FreeSans" font-size="14.00" fill="#000000">Cool</text>
</a>
</g>
</g>
<!-- Cool&#45;&gt;Any -->
<g id="edge2" class="edge"><title>Cool&#45;&gt;Any</title>
<path fill="none" stroke="#000000" d="M447.747,-180.303C447.747,-188.017 447.747,-197.288 447.747,-205.888"/>
<polygon fill="#000000" stroke="#000000" points="444.247,-205.896 447.747,-215.896 451.247,-205.896 444.247,-205.896"/>
</g>
<!-- Iterable -->
<g id="node5" class="node"><title>Iterable</title>
<g id="a_node5"><a xlink:href="/type/Iterable" xlink:title="Iterable">
<ellipse fill="none" stroke="#6666ff" cx="534.747" cy="-162" rx="40.0939" ry="18"/>
<text text-anchor="middle" x="534.747" y="-158.3" font-family="FreeSans" font-size="14.00" fill="#6666ff">Iterable</text>
</a>
</g>
</g>
<!-- Range -->
<g id="node6" class="node"><title>Range</title>
<g id="a_node6"><a xlink:href="/type/Range" xlink:title="Range">
<ellipse fill="none" stroke="#000000" cx="520.747" cy="-90" rx="36.2938" ry="18"/>
<text text-anchor="middle" x="520.747" y="-86.3" font-family="FreeSans" font-size="14.00" fill="#000000">Range</text>
</a>
</g>
</g>
<!-- Range&#45;&gt;Positional -->
<g id="edge13" class="edge"><title>Range&#45;&gt;Positional</title>
<path fill="none" stroke="#6666ff" d="M493.755,-102.247C466.604,-113.559 424.409,-131.141 393.245,-144.126"/>
<polygon fill="#6666ff" stroke="#6666ff" points="391.842,-140.919 383.957,-147.996 394.534,-147.38 391.842,-140.919"/>
</g>
<!-- Range&#45;&gt;Cool -->
<g id="edge3" class="edge"><title>Range&#45;&gt;Cool</title>
<path fill="none" stroke="#000000" d="M504.546,-106.535C494.444,-116.222 481.3,-128.826 470.201,-139.469"/>
<polygon fill="#000000" stroke="#000000" points="467.701,-137.017 462.906,-146.464 472.546,-142.069 467.701,-137.017"/>
</g>
<!-- Range&#45;&gt;Iterable -->
<g id="edge14" class="edge"><title>Range&#45;&gt;Iterable</title>
<path fill="none" stroke="#6666ff" d="M524.136,-107.945C525.678,-115.654 527.541,-124.973 529.274,-133.636"/>
<polygon fill="#6666ff" stroke="#6666ff" points="525.898,-134.605 531.292,-143.725 532.763,-133.232 525.898,-134.605"/>
</g>
<!-- Stringy -->
<g id="node7" class="node"><title>Stringy</title>
<g id="a_node7"><a xlink:href="/type/Stringy" xlink:title="Stringy">
<ellipse fill="none" stroke="#6666ff" cx="247.747" cy="-162" rx="38.1938" ry="18"/>
<text text-anchor="middle" x="247.747" y="-158.3" font-family="FreeSans" font-size="14.00" fill="#6666ff">Stringy</text>
</a>
</g>
</g>
<!-- Uni -->
<g id="node8" class="node"><title>Uni</title>
<g id="a_node8"><a xlink:href="/type/Uni" xlink:title="Uni">
<ellipse fill="none" stroke="#000000" cx="201.747" cy="-90" rx="27" ry="18"/>
<text text-anchor="middle" x="201.747" y="-86.3" font-family="FreeSans" font-size="14.00" fill="#000000">Uni</text>
</a>
</g>
</g>
<!-- Uni&#45;&gt;Positional -->
<g id="edge15" class="edge"><title>Uni&#45;&gt;Positional</title>
<path fill="none" stroke="#6666ff" d="M223.381,-101.029C247.046,-112 285.444,-129.8 314.271,-143.163"/>
<polygon fill="#6666ff" stroke="#6666ff" points="313.1,-146.479 323.645,-147.509 316.045,-140.128 313.1,-146.479"/>
</g>
<!-- Uni&#45;&gt;Any -->
<g id="edge4" class="edge"><title>Uni&#45;&gt;Any</title>
<path fill="none" stroke="#000000" d="M201.425,-108.061C201.133,-123.555 200.747,-144 200.747,-144 200.747,-144 200.747,-180 200.747,-180 200.747,-180 344.046,-210.748 412.347,-225.404"/>
<polygon fill="#000000" stroke="#000000" points="411.732,-228.852 422.244,-227.528 413.201,-222.008 411.732,-228.852"/>
</g>
<!-- Uni&#45;&gt;Stringy -->
<g id="edge16" class="edge"><title>Uni&#45;&gt;Stringy</title>
<path fill="none" stroke="#6666ff" d="M212.185,-106.884C217.868,-115.531 225.026,-126.425 231.428,-136.167"/>
<polygon fill="#6666ff" stroke="#6666ff" points="228.614,-138.258 237.031,-144.693 234.464,-134.414 228.614,-138.258"/>
</g>
<!-- Blob -->
<g id="node9" class="node"><title>Blob</title>
<g id="a_node9"><a xlink:href="/type/Blob" xlink:title="Blob">
<ellipse fill="none" stroke="#6666ff" cx="355.747" cy="-90" rx="28.6953" ry="18"/>
<text text-anchor="middle" x="355.747" y="-86.3" font-family="FreeSans" font-size="14.00" fill="#6666ff">Blob</text>
</a>
</g>
</g>
<!-- Blob&#45;&gt;Positional -->
<g id="edge17" class="edge"><title>Blob&#45;&gt;Positional</title>
<path fill="none" stroke="#6666ff" d="M355.005,-108.303C354.675,-116.017 354.277,-125.288 353.909,-133.888"/>
<polygon fill="#6666ff" stroke="#6666ff" points="350.411,-133.755 353.48,-143.896 357.405,-134.055 350.411,-133.755"/>
</g>
<!-- Blob&#45;&gt;Stringy -->
<g id="edge18" class="edge"><title>Blob&#45;&gt;Stringy</title>
<path fill="none" stroke="#6666ff" d="M336.439,-103.515C320.201,-114.039 296.707,-129.266 277.978,-141.405"/>
<polygon fill="#6666ff" stroke="#6666ff" points="275.974,-138.533 269.487,-146.909 279.782,-144.407 275.974,-138.533"/>
</g>
<!-- List -->
<g id="node10" class="node"><title>List</title>
<g id="a_node10"><a xlink:href="/type/List" xlink:title="List">
<ellipse fill="none" stroke="#000000" cx="439.747" cy="-90" rx="27" ry="18"/>
<text text-anchor="middle" x="439.747" y="-86.3" font-family="FreeSans" font-size="14.00" fill="#000000">List</text>
</a>
</g>
</g>
<!-- List&#45;&gt;Positional -->
<g id="edge19" class="edge"><title>List&#45;&gt;Positional</title>
<path fill="none" stroke="#6666ff" d="M422.972,-104.497C410.837,-114.261 394.171,-127.67 380.12,-138.975"/>
<polygon fill="#6666ff" stroke="#6666ff" points="377.801,-136.349 372.204,-145.345 382.189,-141.803 377.801,-136.349"/>
</g>
<!-- List&#45;&gt;Cool -->
<g id="edge5" class="edge"><title>List&#45;&gt;Cool</title>
<path fill="none" stroke="#000000" d="M441.724,-108.303C442.606,-116.017 443.665,-125.288 444.648,-133.888"/>
<polygon fill="#000000" stroke="#000000" points="441.179,-134.358 445.792,-143.896 448.134,-133.563 441.179,-134.358"/>
</g>
<!-- List&#45;&gt;Iterable -->
<g id="edge20" class="edge"><title>List&#45;&gt;Iterable</title>
<path fill="none" stroke="#6666ff" d="M457.171,-103.839C470.911,-113.963 490.354,-128.289 506.337,-140.067"/>
<polygon fill="#6666ff" stroke="#6666ff" points="504.676,-143.19 514.803,-146.304 508.828,-137.555 504.676,-143.19"/>
</g>
<!-- NFKC -->
<g id="node11" class="node"><title>NFKC</title>
<g id="a_node11"><a xlink:href="/type/NFKC" xlink:title="NFKC">
<ellipse fill="none" stroke="#000000" cx="35.7468" cy="-18" rx="35.9954" ry="18"/>
<text text-anchor="middle" x="35.7468" y="-14.3" font-family="FreeSans" font-size="14.00" fill="#000000">NFKC</text>
</a>
</g>
</g>
<!-- NFKC&#45;&gt;Uni -->
<g id="edge6" class="edge"><title>NFKC&#45;&gt;Uni</title>
<path fill="none" stroke="#000000" d="M62.4176,-30.2467C91.6931,-42.5918 138.671,-62.4018 169.868,-75.5571"/>
<polygon fill="#000000" stroke="#000000" points="168.826,-78.9159 179.4,-79.5765 171.545,-72.4659 168.826,-78.9159"/>
</g>
<!-- NFC -->
<g id="node12" class="node"><title>NFC</title>
<g id="a_node12"><a xlink:href="/type/NFC" xlink:title="NFC">
<ellipse fill="none" stroke="#000000" cx="118.747" cy="-18" rx="29.4969" ry="18"/>
<text text-anchor="middle" x="118.747" y="-14.3" font-family="FreeSans" font-size="14.00" fill="#000000">NFC</text>
</a>
</g>
</g>
<!-- NFC&#45;&gt;Uni -->
<g id="edge7" class="edge"><title>NFC&#45;&gt;Uni</title>
<path fill="none" stroke="#000000" d="M135.543,-33.1655C147.625,-43.3552 164.099,-57.2491 177.591,-68.6277"/>
<polygon fill="#000000" stroke="#000000" points="175.64,-71.5604 185.54,-75.3319 180.153,-66.2093 175.64,-71.5604"/>
</g>
<!-- NFKD -->
<g id="node13" class="node"><title>NFKD</title>
<g id="a_node13"><a xlink:href="/type/NFKD" xlink:title="NFKD">
<ellipse fill="none" stroke="#000000" cx="201.747" cy="-18" rx="35.9954" ry="18"/>
<text text-anchor="middle" x="201.747" y="-14.3" font-family="FreeSans" font-size="14.00" fill="#000000">NFKD</text>
</a>
</g>
</g>
<!-- NFKD&#45;&gt;Uni -->
<g id="edge8" class="edge"><title>NFKD&#45;&gt;Uni</title>
<path fill="none" stroke="#000000" d="M201.747,-36.3034C201.747,-44.0173 201.747,-53.2875 201.747,-61.8876"/>
<polygon fill="#000000" stroke="#000000" points="198.247,-61.8956 201.747,-71.8957 205.247,-61.8957 198.247,-61.8956"/>
</g>
<!-- NFD -->
<g id="node14" class="node"><title>NFD</title>
<g id="a_node14"><a xlink:href="/type/NFD" xlink:title="NFD">
<ellipse fill="none" stroke="#000000" cx="284.747" cy="-18" rx="29.4969" ry="18"/>
<text text-anchor="middle" x="284.747" y="-14.3" font-family="FreeSans" font-size="14.00" fill="#000000">NFD</text>
</a>
</g>
</g>
<!-- NFD&#45;&gt;Uni -->
<g id="edge9" class="edge"><title>NFD&#45;&gt;Uni</title>
<path fill="none" stroke="#000000" d="M267.951,-33.1655C255.869,-43.3552 239.394,-57.2491 225.903,-68.6277"/>
<polygon fill="#000000" stroke="#000000" points="223.341,-66.2093 217.953,-75.3319 227.854,-71.5604 223.341,-66.2093"/>
</g>
<!-- Slip -->
<g id="node15" class="node"><title>Slip</title>
<g id="a_node15"><a xlink:href="/type/Slip" xlink:title="Slip">
<ellipse fill="none" stroke="#000000" cx="436.747" cy="-18" rx="27" ry="18"/>
<text text-anchor="middle" x="436.747" y="-14.3" font-family="FreeSans" font-size="14.00" fill="#000000">Slip</text>
</a>
</g>
</g>
<!-- Slip&#45;&gt;List -->
<g id="edge10" class="edge"><title>Slip&#45;&gt;List</title>
<path fill="none" stroke="#000000" d="M437.488,-36.3034C437.819,-44.0173 438.216,-53.2875 438.585,-61.8876"/>
<polygon fill="#000000" stroke="#000000" points="435.089,-62.0547 439.014,-71.8957 442.082,-61.7549 435.089,-62.0547"/>
</g>
<!-- Array -->
<g id="node16" class="node"><title>Array</title>
<g id="a_node16"><a xlink:href="/type/Array" xlink:title="Array">
<ellipse fill="none" stroke="#000000" cx="513.747" cy="-18" rx="31.6951" ry="18"/>
<text text-anchor="middle" x="513.747" y="-14.3" font-family="FreeSans" font-size="14.00" fill="#000000">Array</text>
</a>
</g>
</g>
<!-- Array&#45;&gt;List -->
<g id="edge11" class="edge"><title>Array&#45;&gt;List</title>
<path fill="none" stroke="#000000" d="M498.053,-33.8452C487.643,-43.6927 473.819,-56.7693 462.245,-67.7182"/>
<polygon fill="#000000" stroke="#000000" points="459.52,-65.4777 454.661,-74.8924 464.331,-70.563 459.52,-65.4777"/>
</g>
<!-- Buf -->
<g id="node17" class="node"><title>Buf</title>
<g id="a_node17"><a xlink:href="/type/Buf" xlink:title="Buf">
<ellipse fill="none" stroke="#6666ff" cx="358.747" cy="-18" rx="27" ry="18"/>
<text text-anchor="middle" x="358.747" y="-14.3" font-family="FreeSans" font-size="14.00" fill="#6666ff">Buf</text>
</a>
</g>
</g>
<!-- Buf&#45;&gt;Blob -->
<g id="edge21" class="edge"><title>Buf&#45;&gt;Blob</title>
<path fill="none" stroke="#6666ff" d="M358.005,-36.3034C357.675,-44.0173 357.277,-53.2875 356.909,-61.8876"/>
<polygon fill="#6666ff" stroke="#6666ff" points="353.411,-61.7549 356.48,-71.8957 360.405,-62.0547 353.411,-61.7549"/>
</g>
<!-- utf8 -->
<g id="node18" class="node"><title>utf8</title>
<g id="a_node18"><a xlink:href="/type/utf8" xlink:title="utf8">
<ellipse fill="none" stroke="#000000" cx="596.747" cy="-18" rx="27" ry="18"/>
<text text-anchor="middle" x="596.747" y="-14.3" font-family="FreeSans" font-size="14.00" fill="#000000">utf8</text>
</a>
</g>
</g>
<!-- utf8&#45;&gt;Any -->
<g id="edge12" class="edge"><title>utf8&#45;&gt;Any</title>
<path fill="none" stroke="#000000" d="M595.356,-36.2298C592.002,-77.7634 583.747,-180 583.747,-180 583.747,-180 520.146,-204.785 479.932,-220.457"/>
<polygon fill="#000000" stroke="#000000" points="478.557,-217.237 470.51,-224.129 481.099,-223.759 478.557,-217.237"/>
</g>
<!-- utf8&#45;&gt;Blob -->
<g id="edge22" class="edge"><title>utf8&#45;&gt;Blob</title>
<path fill="none" stroke="#6666ff" d="M574.271,-28.0972C564.286,-32.1391 554.747,-36 554.747,-36 554.747,-36 403.747,-72 403.747,-72 403.747,-72 397.511,-74.2086 389.534,-77.0337"/>
<polygon fill="#6666ff" stroke="#6666ff" points="388.286,-73.7627 380.028,-80.4004 390.623,-80.3611 388.286,-73.7627"/>
</g>
</g>
</svg>
