<?xml version="1.0" encoding="UTF-8" standalone="no"?>
<!DOCTYPE svg PUBLIC "-//W3C//DTD SVG 1.1//EN"
 "http://www.w3.org/Graphics/SVG/1.1/DTD/svg11.dtd">
<!-- Generated by graphviz version 2.38.0 (20140413.2041)
 -->
<!-- Title: perl6&#45;type&#45;graph Pages: 1 -->
<svg width="217pt" height="332pt"
 viewBox="0.00 0.00 217.28 332.00" xmlns="http://www.w3.org/2000/svg" xmlns:xlink="http://www.w3.org/1999/xlink">
<g id="graph0" class="graph" transform="scale(1 1) rotate(0) translate(4 328)">
<title>perl6&#45;type&#45;graph</title>
<polygon fill="white" stroke="none" points="-4,4 -4,-328 213.281,-328 213.281,4 -4,4"/>
<!-- X::Undeclared::Symbols -->
<g id="node1" class="node"><title>X::Undeclared::Symbols</title>
<g id="a_node1"><a xlink:href="/type/X::Undeclared::Symbols" xlink:title="X::Undeclared::Symbols">
<ellipse fill="none" stroke="#000000" cx="104.641" cy="-18" rx="104.782" ry="18"/>
<text text-anchor="middle" x="104.641" y="-14.3" font-family="FreeSans" font-size="14.00" fill="#000000">X::Undeclared::Symbols</text>
</a>
</g>
</g>
<!-- Exception -->
<g id="node4" class="node"><title>Exception</title>
<g id="a_node4"><a xlink:href="/type/Exception" xlink:title="Exception">
<ellipse fill="none" stroke="#000000" cx="104.641" cy="-162" rx="49.2915" ry="18"/>
<text text-anchor="middle" x="104.641" y="-158.3" font-family="FreeSans" font-size="14.00" fill="#000000">Exception</text>
</a>
</g>
</g>
<!-- X::Undeclared::Symbols&#45;&gt;Exception -->
<g id="edge1" class="edge"><title>X::Undeclared::Symbols&#45;&gt;Exception</title>
<path fill="none" stroke="#000000" d="M99.1682,-36.0613C94.1986,-51.5549 87.6407,-72 87.6407,-72 87.6407,-72 87.6407,-108 87.6407,-108 87.6407,-108 91.805,-120.983 96.0115,-134.097"/>
<polygon fill="#000000" stroke="#000000" points="92.7811,-135.486 99.1682,-143.939 99.4466,-133.348 92.7811,-135.486"/>
</g>
<!-- X::Comp -->
<g id="node5" class="node"><title>X::Comp</title>
<g id="a_node5"><a xlink:href="/type/X::Comp" xlink:title="X::Comp">
<ellipse fill="none" stroke="#6666ff" cx="141.641" cy="-90" rx="44.6926" ry="18"/>
<text text-anchor="middle" x="141.641" y="-86.3" font-family="FreeSans" font-size="14.00" fill="#6666ff">X::Comp</text>
</a>
</g>
</g>
<!-- X::Undeclared::Symbols&#45;&gt;X::Comp -->
<g id="edge5" class="edge"><title>X::Undeclared::Symbols&#45;&gt;X::Comp</title>
<path fill="none" stroke="#6666ff" d="M113.597,-35.945C117.915,-44.1134 123.187,-54.0884 127.991,-63.1756"/>
<polygon fill="#6666ff" stroke="#6666ff" points="124.999,-65.0056 132.767,-72.211 131.188,-61.7344 124.999,-65.0056"/>
</g>
<!-- Mu -->
<g id="node2" class="node"><title>Mu</title>
<g id="a_node2"><a xlink:href="/type/Mu" xlink:title="Mu">
<ellipse fill="none" stroke="#000000" cx="104.641" cy="-306" rx="27" ry="18"/>
<text text-anchor="middle" x="104.641" y="-302.3" font-family="FreeSans" font-size="14.00" fill="#000000">Mu</text>
</a>
</g>
</g>
<!-- Any -->
<g id="node3" class="node"><title>Any</title>
<g id="a_node3"><a xlink:href="/type/Any" xlink:title="Any">
<ellipse fill="none" stroke="#000000" cx="104.641" cy="-234" rx="27" ry="18"/>
<text text-anchor="middle" x="104.641" y="-230.3" font-family="FreeSans" font-size="14.00" fill="#000000">Any</text>
</a>
</g>
</g>
<!-- Any&#45;&gt;Mu -->
<g id="edge2" class="edge"><title>Any&#45;&gt;Mu</title>
<path fill="none" stroke="#000000" d="M104.641,-252.303C104.641,-260.017 104.641,-269.288 104.641,-277.888"/>
<polygon fill="#000000" stroke="#000000" points="101.141,-277.896 104.641,-287.896 108.141,-277.896 101.141,-277.896"/>
</g>
<!-- Exception&#45;&gt;Any -->
<g id="edge3" class="edge"><title>Exception&#45;&gt;Any</title>
<path fill="none" stroke="#000000" d="M104.641,-180.303C104.641,-188.017 104.641,-197.288 104.641,-205.888"/>
<polygon fill="#000000" stroke="#000000" points="101.141,-205.896 104.641,-215.896 108.141,-205.896 101.141,-205.896"/>
</g>
<!-- X::Comp&#45;&gt;Exception -->
<g id="edge4" class="edge"><title>X::Comp&#45;&gt;Exception</title>
<path fill="none" stroke="#000000" d="M132.684,-107.945C128.367,-116.113 123.094,-126.088 118.291,-135.176"/>
<polygon fill="#000000" stroke="#000000" points="115.094,-133.734 113.515,-144.211 121.282,-137.006 115.094,-133.734"/>
</g>
</g>
</svg>
