<?xml version="1.0" encoding="UTF-8" standalone="no"?>
<!DOCTYPE svg PUBLIC "-//W3C//DTD SVG 1.1//EN"
 "http://www.w3.org/Graphics/SVG/1.1/DTD/svg11.dtd">
<!-- Generated by graphviz version 2.38.0 (20140413.2041)
 -->
<!-- Title: perl6&#45;type&#45;graph Pages: 1 -->
<svg width="316pt" height="332pt"
 viewBox="0.00 0.00 316.09 332.00" xmlns="http://www.w3.org/2000/svg" xmlns:xlink="http://www.w3.org/1999/xlink">
<g id="graph0" class="graph" transform="scale(1 1) rotate(0) translate(4 328)">
<title>perl6&#45;type&#45;graph</title>
<polygon fill="white" stroke="none" points="-4,4 -4,-328 312.089,-328 312.089,4 -4,4"/>
<!-- X::Trait::Unknown -->
<g id="node1" class="node"><title>X::Trait::Unknown</title>
<g id="a_node1"><a xlink:href="/type/X::Trait::Unknown" xlink:title="X::Trait::Unknown">
<ellipse fill="none" stroke="#000000" cx="81.2428" cy="-90" rx="81.4863" ry="18"/>
<text text-anchor="middle" x="81.2428" y="-86.3" font-family="FreeSans" font-size="14.00" fill="#000000">X::Trait::Unknown</text>
</a>
</g>
</g>
<!-- Exception -->
<g id="node4" class="node"><title>Exception</title>
<g id="a_node4"><a xlink:href="/type/Exception" xlink:title="Exception">
<ellipse fill="none" stroke="#000000" cx="190.243" cy="-162" rx="49.2915" ry="18"/>
<text text-anchor="middle" x="190.243" y="-158.3" font-family="FreeSans" font-size="14.00" fill="#000000">Exception</text>
</a>
</g>
</g>
<!-- X::Trait::Unknown&#45;&gt;Exception -->
<g id="edge1" class="edge"><title>X::Trait::Unknown&#45;&gt;Exception</title>
<path fill="none" stroke="#000000" d="M106.524,-107.235C121.912,-117.118 141.713,-129.834 158.194,-140.418"/>
<polygon fill="#000000" stroke="#000000" points="156.654,-143.589 166.96,-146.048 160.437,-137.699 156.654,-143.589"/>
</g>
<!-- Mu -->
<g id="node2" class="node"><title>Mu</title>
<g id="a_node2"><a xlink:href="/type/Mu" xlink:title="Mu">
<ellipse fill="none" stroke="#000000" cx="190.243" cy="-306" rx="27" ry="18"/>
<text text-anchor="middle" x="190.243" y="-302.3" font-family="FreeSans" font-size="14.00" fill="#000000">Mu</text>
</a>
</g>
</g>
<!-- Any -->
<g id="node3" class="node"><title>Any</title>
<g id="a_node3"><a xlink:href="/type/Any" xlink:title="Any">
<ellipse fill="none" stroke="#000000" cx="190.243" cy="-234" rx="27" ry="18"/>
<text text-anchor="middle" x="190.243" y="-230.3" font-family="FreeSans" font-size="14.00" fill="#000000">Any</text>
</a>
</g>
</g>
<!-- Any&#45;&gt;Mu -->
<g id="edge2" class="edge"><title>Any&#45;&gt;Mu</title>
<path fill="none" stroke="#000000" d="M190.243,-252.303C190.243,-260.017 190.243,-269.288 190.243,-277.888"/>
<polygon fill="#000000" stroke="#000000" points="186.743,-277.896 190.243,-287.896 193.743,-277.896 186.743,-277.896"/>
</g>
<!-- Exception&#45;&gt;Any -->
<g id="edge3" class="edge"><title>Exception&#45;&gt;Any</title>
<path fill="none" stroke="#000000" d="M190.243,-180.303C190.243,-188.017 190.243,-197.288 190.243,-205.888"/>
<polygon fill="#000000" stroke="#000000" points="186.743,-205.896 190.243,-215.896 193.743,-205.896 186.743,-205.896"/>
</g>
<!-- X::Comp -->
<g id="node5" class="node"><title>X::Comp</title>
<g id="a_node5"><a xlink:href="/type/X::Comp" xlink:title="X::Comp">
<ellipse fill="none" stroke="#6666ff" cx="263.243" cy="-90" rx="44.6926" ry="18"/>
<text text-anchor="middle" x="263.243" y="-86.3" font-family="FreeSans" font-size="14.00" fill="#6666ff">X::Comp</text>
</a>
</g>
</g>
<!-- X::Comp&#45;&gt;Exception -->
<g id="edge4" class="edge"><title>X::Comp&#45;&gt;Exception</title>
<path fill="none" stroke="#000000" d="M246.678,-106.884C237.132,-116.038 224.962,-127.707 214.369,-137.865"/>
<polygon fill="#000000" stroke="#000000" points="211.79,-135.489 206.995,-144.936 216.635,-140.541 211.79,-135.489"/>
</g>
<!-- X::Comp::Trait::Unknown -->
<g id="node6" class="node"><title>X::Comp::Trait::Unknown</title>
<g id="a_node6"><a xlink:href="/type/X::Comp::Trait::Unknown" xlink:title="X::Comp::Trait::Unknown">
<ellipse fill="none" stroke="#000000" cx="190.243" cy="-18" rx="109.681" ry="18"/>
<text text-anchor="middle" x="190.243" y="-14.3" font-family="FreeSans" font-size="14.00" fill="#000000">X::Comp::Trait::Unknown</text>
</a>
</g>
</g>
<!-- X::Comp::Trait::Unknown&#45;&gt;X::Trait::Unknown -->
<g id="edge5" class="edge"><title>X::Comp::Trait::Unknown&#45;&gt;X::Trait::Unknown</title>
<path fill="none" stroke="#000000" d="M164.411,-35.589C149.645,-45.0723 130.952,-57.0765 115.031,-67.3014"/>
<polygon fill="#000000" stroke="#000000" points="113.036,-64.4228 106.513,-72.7715 116.818,-70.3128 113.036,-64.4228"/>
</g>
<!-- X::Comp::Trait::Unknown&#45;&gt;Exception -->
<g id="edge6" class="edge"><title>X::Comp::Trait::Unknown&#45;&gt;Exception</title>
<path fill="none" stroke="#000000" d="M190.243,-36.1285C190.243,-60.3298 190.243,-104.789 190.243,-133.607"/>
<polygon fill="#000000" stroke="#000000" points="186.743,-133.811 190.243,-143.811 193.743,-133.811 186.743,-133.811"/>
</g>
<!-- X::Comp::Trait::Unknown&#45;&gt;X::Comp -->
<g id="edge7" class="edge"><title>X::Comp::Trait::Unknown&#45;&gt;X::Comp</title>
<path fill="none" stroke="#6666ff" d="M207.914,-35.945C217.329,-44.9732 229.046,-56.2084 239.27,-66.0125"/>
<polygon fill="#6666ff" stroke="#6666ff" points="237.095,-68.7756 246.735,-73.1706 241.94,-63.7231 237.095,-68.7756"/>
</g>
</g>
</svg>
