<?xml version="1.0" encoding="UTF-8" standalone="no"?>
<!DOCTYPE svg PUBLIC "-//W3C//DTD SVG 1.1//EN"
 "http://www.w3.org/Graphics/SVG/1.1/DTD/svg11.dtd">
<!-- Generated by graphviz version 2.38.0 (20140413.2041)
 -->
<!-- Title: perl6&#45;type&#45;graph Pages: 1 -->
<svg width="619pt" height="332pt"
 viewBox="0.00 0.00 619.00 332.00" xmlns="http://www.w3.org/2000/svg" xmlns:xlink="http://www.w3.org/1999/xlink">
<g id="graph0" class="graph" transform="scale(1 1) rotate(0) translate(4 328)">
<title>perl6&#45;type&#45;graph</title>
<polygon fill="white" stroke="none" points="-4,4 -4,-328 615,-328 615,4 -4,4"/>
<!-- Positional -->
<g id="node1" class="node"><title>Positional</title>
<g id="a_node1"><a xlink:href="/type/Positional" xlink:title="Positional">
<ellipse fill="none" stroke="#6666ff" cx="287" cy="-162" rx="48.9926" ry="18"/>
<text text-anchor="middle" x="287" y="-158.3" font-family="FreeSans" font-size="14.00" fill="#6666ff">Positional</text>
</a>
</g>
</g>
<!-- Mu -->
<g id="node2" class="node"><title>Mu</title>
<g id="a_node2"><a xlink:href="/type/Mu" xlink:title="Mu">
<ellipse fill="none" stroke="#000000" cx="210" cy="-306" rx="27" ry="18"/>
<text text-anchor="middle" x="210" y="-302.3" font-family="FreeSans" font-size="14.00" fill="#000000">Mu</text>
</a>
</g>
</g>
<!-- Any -->
<g id="node3" class="node"><title>Any</title>
<g id="a_node3"><a xlink:href="/type/Any" xlink:title="Any">
<ellipse fill="none" stroke="#000000" cx="210" cy="-234" rx="27" ry="18"/>
<text text-anchor="middle" x="210" y="-230.3" font-family="FreeSans" font-size="14.00" fill="#000000">Any</text>
</a>
</g>
</g>
<!-- Any&#45;&gt;Mu -->
<g id="edge1" class="edge"><title>Any&#45;&gt;Mu</title>
<path fill="none" stroke="#000000" d="M210,-252.303C210,-260.017 210,-269.288 210,-277.888"/>
<polygon fill="#000000" stroke="#000000" points="206.5,-277.896 210,-287.896 213.5,-277.896 206.5,-277.896"/>
</g>
<!-- Cool -->
<g id="node4" class="node"><title>Cool</title>
<g id="a_node4"><a xlink:href="/type/Cool" xlink:title="Cool">
<ellipse fill="none" stroke="#000000" cx="382" cy="-162" rx="28.6953" ry="18"/>
<text text-anchor="middle" x="382" y="-158.3" font-family="FreeSans" font-size="14.00" fill="#000000">Cool</text>
</a>
</g>
</g>
<!-- Cool&#45;&gt;Any -->
<g id="edge2" class="edge"><title>Cool&#45;&gt;Any</title>
<path fill="none" stroke="#000000" d="M359.623,-173.281C351.831,-176.861 345,-180 345,-180 345,-180 281.867,-204.785 241.948,-220.457"/>
<polygon fill="#000000" stroke="#000000" points="240.625,-217.217 232.596,-224.129 243.183,-223.732 240.625,-217.217"/>
</g>
<!-- Iterable -->
<g id="node5" class="node"><title>Iterable</title>
<g id="a_node5"><a xlink:href="/type/Iterable" xlink:title="Iterable">
<ellipse fill="none" stroke="#6666ff" cx="469" cy="-162" rx="40.0939" ry="18"/>
<text text-anchor="middle" x="469" y="-158.3" font-family="FreeSans" font-size="14.00" fill="#6666ff">Iterable</text>
</a>
</g>
</g>
<!-- List -->
<g id="node6" class="node"><title>List</title>
<g id="a_node6"><a xlink:href="/type/List" xlink:title="List">
<ellipse fill="none" stroke="#000000" cx="385" cy="-90" rx="27" ry="18"/>
<text text-anchor="middle" x="385" y="-86.3" font-family="FreeSans" font-size="14.00" fill="#000000">List</text>
</a>
</g>
</g>
<!-- List&#45;&gt;Positional -->
<g id="edge13" class="edge"><title>List&#45;&gt;Positional</title>
<path fill="none" stroke="#6666ff" d="M367.025,-103.839C353.003,-113.855 333.222,-127.984 316.835,-139.689"/>
<polygon fill="#6666ff" stroke="#6666ff" points="314.727,-136.894 308.624,-145.554 318.796,-142.59 314.727,-136.894"/>
</g>
<!-- List&#45;&gt;Cool -->
<g id="edge3" class="edge"><title>List&#45;&gt;Cool</title>
<path fill="none" stroke="#000000" d="M384.258,-108.303C383.928,-116.017 383.531,-125.288 383.162,-133.888"/>
<polygon fill="#000000" stroke="#000000" points="379.665,-133.755 382.733,-143.896 386.658,-134.055 379.665,-133.755"/>
</g>
<!-- List&#45;&gt;Iterable -->
<g id="edge14" class="edge"><title>List&#45;&gt;Iterable</title>
<path fill="none" stroke="#6666ff" d="M401.196,-104.497C413.072,-114.394 429.443,-128.036 443.123,-139.436"/>
<polygon fill="#6666ff" stroke="#6666ff" points="440.889,-142.13 450.812,-145.843 445.37,-136.753 440.889,-142.13"/>
</g>
<!-- Stringy -->
<g id="node7" class="node"><title>Stringy</title>
<g id="a_node7"><a xlink:href="/type/Stringy" xlink:title="Stringy">
<ellipse fill="none" stroke="#6666ff" cx="127" cy="-162" rx="38.1938" ry="18"/>
<text text-anchor="middle" x="127" y="-158.3" font-family="FreeSans" font-size="14.00" fill="#6666ff">Stringy</text>
</a>
</g>
</g>
<!-- Blob -->
<g id="node8" class="node"><title>Blob</title>
<g id="a_node8"><a xlink:href="/type/Blob" xlink:title="Blob">
<ellipse fill="none" stroke="#6666ff" cx="121" cy="-90" rx="28.6953" ry="18"/>
<text text-anchor="middle" x="121" y="-86.3" font-family="FreeSans" font-size="14.00" fill="#6666ff">Blob</text>
</a>
</g>
</g>
<!-- Blob&#45;&gt;Positional -->
<g id="edge15" class="edge"><title>Blob&#45;&gt;Positional</title>
<path fill="none" stroke="#6666ff" d="M144.082,-100.733C170.563,-111.9 214.467,-130.414 246.639,-143.98"/>
<polygon fill="#6666ff" stroke="#6666ff" points="245.64,-147.357 256.214,-148.018 248.36,-140.907 245.64,-147.357"/>
</g>
<!-- Blob&#45;&gt;Stringy -->
<g id="edge16" class="edge"><title>Blob&#45;&gt;Stringy</title>
<path fill="none" stroke="#6666ff" d="M122.483,-108.303C123.144,-116.017 123.939,-125.288 124.676,-133.888"/>
<polygon fill="#6666ff" stroke="#6666ff" points="121.193,-134.231 125.534,-143.896 128.167,-133.633 121.193,-134.231"/>
</g>
<!-- Uni -->
<g id="node9" class="node"><title>Uni</title>
<g id="a_node9"><a xlink:href="/type/Uni" xlink:title="Uni">
<ellipse fill="none" stroke="#000000" cx="249" cy="-90" rx="27" ry="18"/>
<text text-anchor="middle" x="249" y="-86.3" font-family="FreeSans" font-size="14.00" fill="#000000">Uni</text>
</a>
</g>
</g>
<!-- Uni&#45;&gt;Positional -->
<g id="edge17" class="edge"><title>Uni&#45;&gt;Positional</title>
<path fill="none" stroke="#6666ff" d="M257.813,-107.235C262.286,-115.475 267.828,-125.683 272.877,-134.984"/>
<polygon fill="#6666ff" stroke="#6666ff" points="269.857,-136.757 277.704,-143.876 276.009,-133.418 269.857,-136.757"/>
</g>
<!-- Uni&#45;&gt;Any -->
<g id="edge4" class="edge"><title>Uni&#45;&gt;Any</title>
<path fill="none" stroke="#000000" d="M242.672,-107.77C236.812,-123.297 229,-144 229,-144 229,-144 221.35,-179.833 215.759,-206.025"/>
<polygon fill="#000000" stroke="#000000" points="212.328,-205.33 213.663,-215.84 219.174,-206.791 212.328,-205.33"/>
</g>
<!-- Uni&#45;&gt;Stringy -->
<g id="edge18" class="edge"><title>Uni&#45;&gt;Stringy</title>
<path fill="none" stroke="#6666ff" d="M229.127,-102.403C210.256,-113.23 181.555,-129.698 159.379,-142.422"/>
<polygon fill="#6666ff" stroke="#6666ff" points="157.56,-139.43 150.628,-147.443 161.043,-145.502 157.56,-139.43"/>
</g>
<!-- Range -->
<g id="node10" class="node"><title>Range</title>
<g id="a_node10"><a xlink:href="/type/Range" xlink:title="Range">
<ellipse fill="none" stroke="#000000" cx="466" cy="-90" rx="36.2938" ry="18"/>
<text text-anchor="middle" x="466" y="-86.3" font-family="FreeSans" font-size="14.00" fill="#000000">Range</text>
</a>
</g>
</g>
<!-- Range&#45;&gt;Positional -->
<g id="edge19" class="edge"><title>Range&#45;&gt;Positional</title>
<path fill="none" stroke="#6666ff" d="M438.424,-101.784C409.147,-113.233 362.532,-131.462 328.75,-144.673"/>
<polygon fill="#6666ff" stroke="#6666ff" points="327.189,-141.526 319.15,-148.427 329.738,-148.045 327.189,-141.526"/>
</g>
<!-- Range&#45;&gt;Cool -->
<g id="edge5" class="edge"><title>Range&#45;&gt;Cool</title>
<path fill="none" stroke="#000000" d="M448.186,-105.845C436.062,-115.949 419.859,-129.451 406.519,-140.567"/>
<polygon fill="#000000" stroke="#000000" points="404.087,-138.038 398.646,-147.128 408.569,-143.415 404.087,-138.038"/>
</g>
<!-- Range&#45;&gt;Iterable -->
<g id="edge20" class="edge"><title>Range&#45;&gt;Iterable</title>
<path fill="none" stroke="#6666ff" d="M466.742,-108.303C467.072,-116.017 467.469,-125.288 467.838,-133.888"/>
<polygon fill="#6666ff" stroke="#6666ff" points="464.342,-134.055 468.267,-143.896 471.335,-133.755 464.342,-134.055"/>
</g>
<!-- Array -->
<g id="node11" class="node"><title>Array</title>
<g id="a_node11"><a xlink:href="/type/Array" xlink:title="Array">
<ellipse fill="none" stroke="#000000" cx="507" cy="-18" rx="31.6951" ry="18"/>
<text text-anchor="middle" x="507" y="-14.3" font-family="FreeSans" font-size="14.00" fill="#000000">Array</text>
</a>
</g>
</g>
<!-- Array&#45;&gt;List -->
<g id="edge6" class="edge"><title>Array&#45;&gt;List</title>
<path fill="none" stroke="#000000" d="M485.47,-31.3535C465.598,-42.7554 435.932,-59.7765 413.984,-72.3699"/>
<polygon fill="#000000" stroke="#000000" points="412.033,-69.4541 405.101,-77.4667 415.516,-75.5257 412.033,-69.4541"/>
</g>
<!-- Slip -->
<g id="node12" class="node"><title>Slip</title>
<g id="a_node12"><a xlink:href="/type/Slip" xlink:title="Slip">
<ellipse fill="none" stroke="#000000" cx="584" cy="-18" rx="27" ry="18"/>
<text text-anchor="middle" x="584" y="-14.3" font-family="FreeSans" font-size="14.00" fill="#000000">Slip</text>
</a>
</g>
</g>
<!-- Slip&#45;&gt;List -->
<g id="edge7" class="edge"><title>Slip&#45;&gt;List</title>
<path fill="none" stroke="#000000" d="M562.643,-29.0854C554.891,-32.7461 548,-36 548,-36 548,-36 421,-72 421,-72 421,-72 418.82,-73.0296 415.532,-74.5819"/>
<polygon fill="#000000" stroke="#000000" points="413.905,-71.4796 406.357,-78.9146 416.894,-77.8093 413.905,-71.4796"/>
</g>
<!-- NFD -->
<g id="node13" class="node"><title>NFD</title>
<g id="a_node13"><a xlink:href="/type/NFD" xlink:title="NFD">
<ellipse fill="none" stroke="#000000" cx="173" cy="-18" rx="29.4969" ry="18"/>
<text text-anchor="middle" x="173" y="-14.3" font-family="FreeSans" font-size="14.00" fill="#000000">NFD</text>
</a>
</g>
</g>
<!-- NFD&#45;&gt;Uni -->
<g id="edge8" class="edge"><title>NFD&#45;&gt;Uni</title>
<path fill="none" stroke="#000000" d="M188.747,-33.504C199.59,-43.4905 214.164,-56.9141 226.263,-68.0576"/>
<polygon fill="#000000" stroke="#000000" points="224.065,-70.7918 233.792,-74.9922 228.807,-65.643 224.065,-70.7918"/>
</g>
<!-- NFC -->
<g id="node14" class="node"><title>NFC</title>
<g id="a_node14"><a xlink:href="/type/NFC" xlink:title="NFC">
<ellipse fill="none" stroke="#000000" cx="249" cy="-18" rx="29.4969" ry="18"/>
<text text-anchor="middle" x="249" y="-14.3" font-family="FreeSans" font-size="14.00" fill="#000000">NFC</text>
</a>
</g>
</g>
<!-- NFC&#45;&gt;Uni -->
<g id="edge9" class="edge"><title>NFC&#45;&gt;Uni</title>
<path fill="none" stroke="#000000" d="M249,-36.3034C249,-44.0173 249,-53.2875 249,-61.8876"/>
<polygon fill="#000000" stroke="#000000" points="245.5,-61.8956 249,-71.8957 252.5,-61.8957 245.5,-61.8956"/>
</g>
<!-- NFKD -->
<g id="node15" class="node"><title>NFKD</title>
<g id="a_node15"><a xlink:href="/type/NFKD" xlink:title="NFKD">
<ellipse fill="none" stroke="#000000" cx="332" cy="-18" rx="35.9954" ry="18"/>
<text text-anchor="middle" x="332" y="-14.3" font-family="FreeSans" font-size="14.00" fill="#000000">NFKD</text>
</a>
</g>
</g>
<!-- NFKD&#45;&gt;Uni -->
<g id="edge10" class="edge"><title>NFKD&#45;&gt;Uni</title>
<path fill="none" stroke="#000000" d="M314.398,-33.8452C302.339,-44.015 286.197,-57.6288 272.968,-68.7862"/>
<polygon fill="#000000" stroke="#000000" points="270.557,-66.2405 265.169,-75.3631 275.07,-71.5916 270.557,-66.2405"/>
</g>
<!-- NFKC -->
<g id="node16" class="node"><title>NFKC</title>
<g id="a_node16"><a xlink:href="/type/NFKC" xlink:title="NFKC">
<ellipse fill="none" stroke="#000000" cx="421" cy="-18" rx="35.9954" ry="18"/>
<text text-anchor="middle" x="421" y="-14.3" font-family="FreeSans" font-size="14.00" fill="#000000">NFKC</text>
</a>
</g>
</g>
<!-- NFKC&#45;&gt;Uni -->
<g id="edge11" class="edge"><title>NFKC&#45;&gt;Uni</title>
<path fill="none" stroke="#000000" d="M394.125,-29.9375C363.557,-42.378 313.673,-62.6795 281.09,-75.94"/>
<polygon fill="#000000" stroke="#000000" points="279.517,-72.8013 271.574,-79.8128 282.156,-79.285 279.517,-72.8013"/>
</g>
<!-- Buf -->
<g id="node17" class="node"><title>Buf</title>
<g id="a_node17"><a xlink:href="/type/Buf" xlink:title="Buf">
<ellipse fill="none" stroke="#6666ff" cx="99" cy="-18" rx="27" ry="18"/>
<text text-anchor="middle" x="99" y="-14.3" font-family="FreeSans" font-size="14.00" fill="#6666ff">Buf</text>
</a>
</g>
</g>
<!-- Buf&#45;&gt;Blob -->
<g id="edge21" class="edge"><title>Buf&#45;&gt;Blob</title>
<path fill="none" stroke="#6666ff" d="M104.326,-35.945C106.839,-43.9414 109.896,-53.6692 112.703,-62.6005"/>
<polygon fill="#6666ff" stroke="#6666ff" points="109.386,-63.7205 115.723,-72.211 116.064,-61.6216 109.386,-63.7205"/>
</g>
<!-- utf8 -->
<g id="node18" class="node"><title>utf8</title>
<g id="a_node18"><a xlink:href="/type/utf8" xlink:title="utf8">
<ellipse fill="none" stroke="#000000" cx="27" cy="-18" rx="27" ry="18"/>
<text text-anchor="middle" x="27" y="-14.3" font-family="FreeSans" font-size="14.00" fill="#000000">utf8</text>
</a>
</g>
</g>
<!-- utf8&#45;&gt;Any -->
<g id="edge12" class="edge"><title>utf8&#45;&gt;Any</title>
<path fill="none" stroke="#000000" d="M32.5718,-35.9255C46.1793,-77.2617 80,-180 80,-180 80,-180 139.9,-204.421 178.38,-220.109"/>
<polygon fill="#000000" stroke="#000000" points="177.071,-223.355 187.652,-223.889 179.714,-216.873 177.071,-223.355"/>
</g>
<!-- utf8&#45;&gt;Blob -->
<g id="edge22" class="edge"><title>utf8&#45;&gt;Blob</title>
<path fill="none" stroke="#6666ff" d="M44.6807,-32.1665C58.7708,-42.6591 78.7142,-57.5105 94.6804,-69.4003"/>
<polygon fill="#6666ff" stroke="#6666ff" points="92.9681,-72.489 103.079,-75.6546 97.149,-66.8747 92.9681,-72.489"/>
</g>
</g>
</svg>
