<?xml version="1.0" encoding="UTF-8" standalone="no"?>
<!DOCTYPE svg PUBLIC "-//W3C//DTD SVG 1.1//EN"
 "http://www.w3.org/Graphics/SVG/1.1/DTD/svg11.dtd">
<!-- Generated by graphviz version 2.38.0 (20140413.2041)
 -->
<!-- Title: perl6&#45;type&#45;graph Pages: 1 -->
<svg width="835pt" height="332pt"
 viewBox="0.00 0.00 834.59 332.00" xmlns="http://www.w3.org/2000/svg" xmlns:xlink="http://www.w3.org/1999/xlink">
<g id="graph0" class="graph" transform="scale(1 1) rotate(0) translate(4 328)">
<title>perl6&#45;type&#45;graph</title>
<polygon fill="white" stroke="none" points="-4,4 -4,-328 830.591,-328 830.591,4 -4,4"/>
<!-- X::Control -->
<g id="node1" class="node"><title>X::Control</title>
<g id="a_node1"><a xlink:href="/type/X::Control" xlink:title="X::Control">
<ellipse fill="none" stroke="#6666ff" cx="398.745" cy="-90" rx="50.0912" ry="18"/>
<text text-anchor="middle" x="398.745" y="-86.3" font-family="FreeSans" font-size="14.00" fill="#6666ff">X::Control</text>
</a>
</g>
</g>
<!-- Exception -->
<g id="node4" class="node"><title>Exception</title>
<g id="a_node4"><a xlink:href="/type/Exception" xlink:title="Exception">
<ellipse fill="none" stroke="#000000" cx="437.745" cy="-162" rx="49.2915" ry="18"/>
<text text-anchor="middle" x="437.745" y="-158.3" font-family="FreeSans" font-size="14.00" fill="#000000">Exception</text>
</a>
</g>
</g>
<!-- X::Control&#45;&gt;Exception -->
<g id="edge1" class="edge"><title>X::Control&#45;&gt;Exception</title>
<path fill="none" stroke="#000000" d="M408.185,-107.945C412.784,-116.199 418.411,-126.299 423.516,-135.462"/>
<polygon fill="#000000" stroke="#000000" points="420.466,-137.179 428.391,-144.211 426.581,-133.772 420.466,-137.179"/>
</g>
<!-- Mu -->
<g id="node2" class="node"><title>Mu</title>
<g id="a_node2"><a xlink:href="/type/Mu" xlink:title="Mu">
<ellipse fill="none" stroke="#000000" cx="437.745" cy="-306" rx="27" ry="18"/>
<text text-anchor="middle" x="437.745" y="-302.3" font-family="FreeSans" font-size="14.00" fill="#000000">Mu</text>
</a>
</g>
</g>
<!-- Any -->
<g id="node3" class="node"><title>Any</title>
<g id="a_node3"><a xlink:href="/type/Any" xlink:title="Any">
<ellipse fill="none" stroke="#000000" cx="437.745" cy="-234" rx="27" ry="18"/>
<text text-anchor="middle" x="437.745" y="-230.3" font-family="FreeSans" font-size="14.00" fill="#000000">Any</text>
</a>
</g>
</g>
<!-- Any&#45;&gt;Mu -->
<g id="edge2" class="edge"><title>Any&#45;&gt;Mu</title>
<path fill="none" stroke="#000000" d="M437.745,-252.303C437.745,-260.017 437.745,-269.288 437.745,-277.888"/>
<polygon fill="#000000" stroke="#000000" points="434.245,-277.896 437.745,-287.896 441.245,-277.896 434.245,-277.896"/>
</g>
<!-- Exception&#45;&gt;Any -->
<g id="edge3" class="edge"><title>Exception&#45;&gt;Any</title>
<path fill="none" stroke="#000000" d="M437.745,-180.303C437.745,-188.017 437.745,-197.288 437.745,-205.888"/>
<polygon fill="#000000" stroke="#000000" points="434.245,-205.896 437.745,-215.896 441.245,-205.896 434.245,-205.896"/>
</g>
<!-- CX::Succeed -->
<g id="node5" class="node"><title>CX::Succeed</title>
<g id="a_node5"><a xlink:href="/type/CX::Succeed" xlink:title="CX::Succeed">
<ellipse fill="none" stroke="#000000" cx="61.7445" cy="-18" rx="61.99" ry="18"/>
<text text-anchor="middle" x="61.7445" y="-14.3" font-family="FreeSans" font-size="14.00" fill="#000000">CX::Succeed</text>
</a>
</g>
</g>
<!-- CX::Succeed&#45;&gt;X::Control -->
<g id="edge11" class="edge"><title>CX::Succeed&#45;&gt;X::Control</title>
<path fill="none" stroke="#6666ff" d="M107.912,-30.0542C121.473,-33.3012 132.745,-36 132.745,-36 132.745,-36 268.364,-63.0218 345.928,-78.4764"/>
<polygon fill="#6666ff" stroke="#6666ff" points="345.516,-81.963 356.007,-80.4846 346.884,-75.098 345.516,-81.963"/>
</g>
<!-- CX::Succeed&#45;&gt;Exception -->
<g id="edge4" class="edge"><title>CX::Succeed&#45;&gt;Exception</title>
<path fill="none" stroke="#000000" d="M94.6813,-33.2994C152.63,-58.4576 266.745,-108 266.745,-108 266.745,-108 341.047,-131.029 391.695,-146.727"/>
<polygon fill="#000000" stroke="#000000" points="390.892,-150.143 401.48,-149.76 392.964,-143.456 390.892,-150.143"/>
</g>
<!-- CX::Next -->
<g id="node6" class="node"><title>CX::Next</title>
<g id="a_node6"><a xlink:href="/type/CX::Next" xlink:title="CX::Next">
<ellipse fill="none" stroke="#000000" cx="187.745" cy="-18" rx="46.2923" ry="18"/>
<text text-anchor="middle" x="187.745" y="-14.3" font-family="FreeSans" font-size="14.00" fill="#000000">CX::Next</text>
</a>
</g>
</g>
<!-- CX::Next&#45;&gt;X::Control -->
<g id="edge12" class="edge"><title>CX::Next&#45;&gt;X::Control</title>
<path fill="none" stroke="#6666ff" d="M221.645,-30.2467C257.407,-42.1108 313.951,-60.8695 353.5,-73.99"/>
<polygon fill="#6666ff" stroke="#6666ff" points="352.572,-77.3697 363.166,-77.1966 354.776,-70.7258 352.572,-77.3697"/>
</g>
<!-- CX::Next&#45;&gt;Exception -->
<g id="edge5" class="edge"><title>CX::Next&#45;&gt;Exception</title>
<path fill="none" stroke="#000000" d="M210.173,-33.8966C248.32,-59.2327 321.745,-108 321.745,-108 321.745,-108 365.241,-127.874 398.964,-143.282"/>
<polygon fill="#000000" stroke="#000000" points="397.623,-146.516 408.173,-147.489 400.532,-140.149 397.623,-146.516"/>
</g>
<!-- CX::Redo -->
<g id="node7" class="node"><title>CX::Redo</title>
<g id="a_node7"><a xlink:href="/type/CX::Redo" xlink:title="CX::Redo">
<ellipse fill="none" stroke="#000000" cx="300.745" cy="-18" rx="48.9926" ry="18"/>
<text text-anchor="middle" x="300.745" y="-14.3" font-family="FreeSans" font-size="14.00" fill="#000000">CX::Redo</text>
</a>
</g>
</g>
<!-- CX::Redo&#45;&gt;X::Control -->
<g id="edge13" class="edge"><title>CX::Redo&#45;&gt;X::Control</title>
<path fill="none" stroke="#6666ff" d="M322.494,-34.5353C336.07,-44.2323 353.738,-56.8522 368.648,-67.5022"/>
<polygon fill="#6666ff" stroke="#6666ff" points="366.884,-70.5438 377.056,-73.5082 370.953,-64.8477 366.884,-70.5438"/>
</g>
<!-- CX::Redo&#45;&gt;Exception -->
<g id="edge6" class="edge"><title>CX::Redo&#45;&gt;Exception</title>
<path fill="none" stroke="#000000" d="M308.264,-36.1601C319.597,-62.0225 339.745,-108 339.745,-108 339.745,-108 374.314,-126.696 402.389,-141.879"/>
<polygon fill="#000000" stroke="#000000" points="400.763,-144.979 411.224,-146.657 404.093,-138.822 400.763,-144.979"/>
</g>
<!-- CX::Proceed -->
<g id="node8" class="node"><title>CX::Proceed</title>
<g id="a_node8"><a xlink:href="/type/CX::Proceed" xlink:title="CX::Proceed">
<ellipse fill="none" stroke="#000000" cx="427.745" cy="-18" rx="60.3893" ry="18"/>
<text text-anchor="middle" x="427.745" y="-14.3" font-family="FreeSans" font-size="14.00" fill="#000000">CX::Proceed</text>
</a>
</g>
</g>
<!-- CX::Proceed&#45;&gt;X::Control -->
<g id="edge14" class="edge"><title>CX::Proceed&#45;&gt;X::Control</title>
<path fill="none" stroke="#6666ff" d="M420.724,-35.945C417.46,-43.8238 413.5,-53.3835 409.845,-62.206"/>
<polygon fill="#6666ff" stroke="#6666ff" points="406.495,-61.1465 405.901,-71.7247 412.962,-63.8257 406.495,-61.1465"/>
</g>
<!-- CX::Proceed&#45;&gt;Exception -->
<g id="edge7" class="edge"><title>CX::Proceed&#45;&gt;Exception</title>
<path fill="none" stroke="#000000" d="M437.402,-36.0613C446.172,-51.5549 457.745,-72 457.745,-72 457.745,-72 457.745,-108 457.745,-108 457.745,-108 452.749,-121.239 447.751,-134.483"/>
<polygon fill="#000000" stroke="#000000" points="444.439,-133.347 444.183,-143.939 450.988,-135.818 444.439,-133.347"/>
</g>
<!-- CX::Warn -->
<g id="node9" class="node"><title>CX::Warn</title>
<g id="a_node9"><a xlink:href="/type/CX::Warn" xlink:title="CX::Warn">
<ellipse fill="none" stroke="#000000" cx="555.745" cy="-18" rx="49.2915" ry="18"/>
<text text-anchor="middle" x="555.745" y="-14.3" font-family="FreeSans" font-size="14.00" fill="#000000">CX::Warn</text>
</a>
</g>
</g>
<!-- CX::Warn&#45;&gt;X::Control -->
<g id="edge15" class="edge"><title>CX::Warn&#45;&gt;X::Control</title>
<path fill="none" stroke="#6666ff" d="M525.844,-32.3312C500.934,-43.4377 465.26,-59.3436 438.043,-71.4785"/>
<polygon fill="#6666ff" stroke="#6666ff" points="436.508,-68.3305 428.8,-75.5994 439.359,-74.7238 436.508,-68.3305"/>
</g>
<!-- CX::Warn&#45;&gt;Exception -->
<g id="edge8" class="edge"><title>CX::Warn&#45;&gt;Exception</title>
<path fill="none" stroke="#000000" d="M541.977,-35.5671C521.283,-60.4707 482.033,-107.703 458.048,-136.567"/>
<polygon fill="#000000" stroke="#000000" points="455.123,-134.61 451.424,-144.538 460.507,-139.084 455.123,-134.61"/>
</g>
<!-- CX::Take -->
<g id="node10" class="node"><title>CX::Take</title>
<g id="a_node10"><a xlink:href="/type/CX::Take" xlink:title="CX::Take">
<ellipse fill="none" stroke="#000000" cx="670.745" cy="-18" rx="48.1917" ry="18"/>
<text text-anchor="middle" x="670.745" y="-14.3" font-family="FreeSans" font-size="14.00" fill="#000000">CX::Take</text>
</a>
</g>
</g>
<!-- CX::Take&#45;&gt;X::Control -->
<g id="edge16" class="edge"><title>CX::Take&#45;&gt;X::Control</title>
<path fill="none" stroke="#6666ff" d="M634.323,-29.8626C623.152,-33.1943 613.745,-36 613.745,-36 613.745,-36 512.305,-61.006 448.781,-76.6655"/>
<polygon fill="#6666ff" stroke="#6666ff" points="447.804,-73.3015 438.932,-79.0933 449.479,-80.098 447.804,-73.3015"/>
</g>
<!-- CX::Take&#45;&gt;Exception -->
<g id="edge9" class="edge"><title>CX::Take&#45;&gt;Exception</title>
<path fill="none" stroke="#000000" d="M646.687,-33.6617C604.742,-59.2247 518.176,-111.982 470.692,-140.921"/>
<polygon fill="#000000" stroke="#000000" points="468.738,-138.012 462.02,-146.205 472.381,-143.99 468.738,-138.012"/>
</g>
<!-- CX::Last -->
<g id="node11" class="node"><title>CX::Last</title>
<g id="a_node11"><a xlink:href="/type/CX::Last" xlink:title="CX::Last">
<ellipse fill="none" stroke="#000000" cx="781.745" cy="-18" rx="44.6926" ry="18"/>
<text text-anchor="middle" x="781.745" y="-14.3" font-family="FreeSans" font-size="14.00" fill="#000000">CX::Last</text>
</a>
</g>
</g>
<!-- CX::Last&#45;&gt;X::Control -->
<g id="edge17" class="edge"><title>CX::Last&#45;&gt;X::Control</title>
<path fill="none" stroke="#6666ff" d="M747.546,-29.7664C736.829,-33.1401 727.745,-36 727.745,-36 727.745,-36 547.202,-65.0844 453.603,-80.1626"/>
<polygon fill="#6666ff" stroke="#6666ff" points="452.773,-76.7511 443.457,-81.797 453.887,-83.662 452.773,-76.7511"/>
</g>
<!-- CX::Last&#45;&gt;Exception -->
<g id="edge10" class="edge"><title>CX::Last&#45;&gt;Exception</title>
<path fill="none" stroke="#000000" d="M751.679,-31.5628C692.965,-56.0957 568.745,-108 568.745,-108 568.745,-108 517.312,-128.808 478.902,-144.349"/>
<polygon fill="#000000" stroke="#000000" points="477.413,-141.175 469.456,-148.17 480.039,-147.664 477.413,-141.175"/>
</g>
</g>
</svg>
