<?xml version="1.0" encoding="UTF-8" standalone="no"?>
<!DOCTYPE svg PUBLIC "-//W3C//DTD SVG 1.1//EN"
 "http://www.w3.org/Graphics/SVG/1.1/DTD/svg11.dtd">
<!-- Generated by graphviz version 2.38.0 (20140413.2041)
 -->
<!-- Title: perl6&#45;type&#45;graph Pages: 1 -->
<svg width="246pt" height="332pt"
 viewBox="0.00 0.00 245.84 332.00" xmlns="http://www.w3.org/2000/svg" xmlns:xlink="http://www.w3.org/1999/xlink">
<g id="graph0" class="graph" transform="scale(1 1) rotate(0) translate(4 328)">
<title>perl6&#45;type&#45;graph</title>
<polygon fill="white" stroke="none" points="-4,4 -4,-328 241.84,-328 241.84,4 -4,4"/>
<!-- IO::Handle -->
<g id="node1" class="node"><title>IO::Handle</title>
<g id="a_node1"><a xlink:href="/type/IO::Handle" xlink:title="IO::Handle">
<ellipse fill="none" stroke="#000000" cx="106.896" cy="-162" rx="53.0913" ry="18"/>
<text text-anchor="middle" x="106.896" y="-158.3" font-family="FreeSans" font-size="14.00" fill="#000000">IO::Handle</text>
</a>
</g>
</g>
<!-- Any -->
<g id="node3" class="node"><title>Any</title>
<g id="a_node3"><a xlink:href="/type/Any" xlink:title="Any">
<ellipse fill="none" stroke="#000000" cx="106.896" cy="-234" rx="27" ry="18"/>
<text text-anchor="middle" x="106.896" y="-230.3" font-family="FreeSans" font-size="14.00" fill="#000000">Any</text>
</a>
</g>
</g>
<!-- IO::Handle&#45;&gt;Any -->
<g id="edge1" class="edge"><title>IO::Handle&#45;&gt;Any</title>
<path fill="none" stroke="#000000" d="M106.896,-180.303C106.896,-188.017 106.896,-197.288 106.896,-205.888"/>
<polygon fill="#000000" stroke="#000000" points="103.396,-205.896 106.896,-215.896 110.396,-205.896 103.396,-205.896"/>
</g>
<!-- Mu -->
<g id="node2" class="node"><title>Mu</title>
<g id="a_node2"><a xlink:href="/type/Mu" xlink:title="Mu">
<ellipse fill="none" stroke="#000000" cx="106.896" cy="-306" rx="27" ry="18"/>
<text text-anchor="middle" x="106.896" y="-302.3" font-family="FreeSans" font-size="14.00" fill="#000000">Mu</text>
</a>
</g>
</g>
<!-- Any&#45;&gt;Mu -->
<g id="edge2" class="edge"><title>Any&#45;&gt;Mu</title>
<path fill="none" stroke="#000000" d="M106.896,-252.303C106.896,-260.017 106.896,-269.288 106.896,-277.888"/>
<polygon fill="#000000" stroke="#000000" points="103.396,-277.896 106.896,-287.896 110.396,-277.896 103.396,-277.896"/>
</g>
<!-- IO::Pipe -->
<g id="node4" class="node"><title>IO::Pipe</title>
<g id="a_node4"><a xlink:href="/type/IO::Pipe" xlink:title="IO::Pipe">
<ellipse fill="none" stroke="#000000" cx="42.8962" cy="-90" rx="42.7926" ry="18"/>
<text text-anchor="middle" x="42.8962" y="-86.3" font-family="FreeSans" font-size="14.00" fill="#000000">IO::Pipe</text>
</a>
</g>
</g>
<!-- IO::Pipe&#45;&gt;IO::Handle -->
<g id="edge3" class="edge"><title>IO::Pipe&#45;&gt;IO::Handle</title>
<path fill="none" stroke="#000000" d="M57.7399,-107.235C65.7818,-116.031 75.876,-127.072 84.8217,-136.856"/>
<polygon fill="#000000" stroke="#000000" points="82.3577,-139.348 91.6885,-144.367 87.5239,-134.625 82.3577,-139.348"/>
</g>
<!-- IO::CatHandle -->
<g id="node5" class="node"><title>IO::CatHandle</title>
<g id="a_node5"><a xlink:href="/type/IO::CatHandle" xlink:title="IO::CatHandle">
<ellipse fill="none" stroke="#000000" cx="170.896" cy="-90" rx="66.8882" ry="18"/>
<text text-anchor="middle" x="170.896" y="-86.3" font-family="FreeSans" font-size="14.00" fill="#000000">IO::CatHandle</text>
</a>
</g>
</g>
<!-- IO::CatHandle&#45;&gt;IO::Handle -->
<g id="edge4" class="edge"><title>IO::CatHandle&#45;&gt;IO::Handle</title>
<path fill="none" stroke="#000000" d="M155.729,-107.589C147.679,-116.394 137.642,-127.372 128.765,-137.081"/>
<polygon fill="#000000" stroke="#000000" points="126.119,-134.788 121.954,-144.53 131.285,-139.511 126.119,-134.788"/>
</g>
<!-- IO::ArgFiles -->
<g id="node6" class="node"><title>IO::ArgFiles</title>
<g id="a_node6"><a xlink:href="/type/IO::ArgFiles" xlink:title="IO::ArgFiles">
<ellipse fill="none" stroke="#000000" cx="170.896" cy="-18" rx="57.6901" ry="18"/>
<text text-anchor="middle" x="170.896" y="-14.3" font-family="FreeSans" font-size="14.00" fill="#000000">IO::ArgFiles</text>
</a>
</g>
</g>
<!-- IO::ArgFiles&#45;&gt;IO::CatHandle -->
<g id="edge5" class="edge"><title>IO::ArgFiles&#45;&gt;IO::CatHandle</title>
<path fill="none" stroke="#000000" d="M170.896,-36.3034C170.896,-44.0173 170.896,-53.2875 170.896,-61.8876"/>
<polygon fill="#000000" stroke="#000000" points="167.396,-61.8956 170.896,-71.8957 174.396,-61.8957 167.396,-61.8956"/>
</g>
</g>
</svg>
