<?xml version="1.0" encoding="UTF-8" standalone="no"?>
<!DOCTYPE svg PUBLIC "-//W3C//DTD SVG 1.1//EN"
 "http://www.w3.org/Graphics/SVG/1.1/DTD/svg11.dtd">
<!-- Generated by graphviz version 2.38.0 (20140413.2041)
 -->
<!-- Title: perl6&#45;type&#45;graph Pages: 1 -->
<svg width="796pt" height="404pt"
 viewBox="0.00 0.00 795.79 404.00" xmlns="http://www.w3.org/2000/svg" xmlns:xlink="http://www.w3.org/1999/xlink">
<g id="graph0" class="graph" transform="scale(1 1) rotate(0) translate(4 400)">
<title>perl6&#45;type&#45;graph</title>
<polygon fill="white" stroke="none" points="-4,4 -4,-400 791.791,-400 791.791,4 -4,4"/>
<!-- Iterable -->
<g id="node1" class="node"><title>Iterable</title>
<g id="a_node1"><a xlink:href="/type/Iterable" xlink:title="Iterable">
<ellipse fill="none" stroke="#6666ff" cx="344.046" cy="-234" rx="40.0939" ry="18"/>
<text text-anchor="middle" x="344.046" y="-230.3" font-family="FreeSans" font-size="14.00" fill="#6666ff">Iterable</text>
</a>
</g>
</g>
<!-- Mu -->
<g id="node2" class="node"><title>Mu</title>
<g id="a_node2"><a xlink:href="/type/Mu" xlink:title="Mu">
<ellipse fill="none" stroke="#000000" cx="147.046" cy="-378" rx="27" ry="18"/>
<text text-anchor="middle" x="147.046" y="-374.3" font-family="FreeSans" font-size="14.00" fill="#000000">Mu</text>
</a>
</g>
</g>
<!-- Any -->
<g id="node3" class="node"><title>Any</title>
<g id="a_node3"><a xlink:href="/type/Any" xlink:title="Any">
<ellipse fill="none" stroke="#000000" cx="147.046" cy="-306" rx="27" ry="18"/>
<text text-anchor="middle" x="147.046" y="-302.3" font-family="FreeSans" font-size="14.00" fill="#000000">Any</text>
</a>
</g>
</g>
<!-- Any&#45;&gt;Mu -->
<g id="edge1" class="edge"><title>Any&#45;&gt;Mu</title>
<path fill="none" stroke="#000000" d="M147.046,-324.303C147.046,-332.017 147.046,-341.288 147.046,-349.888"/>
<polygon fill="#000000" stroke="#000000" points="143.546,-349.896 147.046,-359.896 150.546,-349.896 143.546,-349.896"/>
</g>
<!-- Cool -->
<g id="node4" class="node"><title>Cool</title>
<g id="a_node4"><a xlink:href="/type/Cool" xlink:title="Cool">
<ellipse fill="none" stroke="#000000" cx="644.046" cy="-234" rx="28.6953" ry="18"/>
<text text-anchor="middle" x="644.046" y="-230.3" font-family="FreeSans" font-size="14.00" fill="#000000">Cool</text>
</a>
</g>
</g>
<!-- Cool&#45;&gt;Any -->
<g id="edge2" class="edge"><title>Cool&#45;&gt;Any</title>
<path fill="none" stroke="#000000" d="M621.502,-245.085C613.319,-248.746 606.046,-252 606.046,-252 606.046,-252 292.156,-288.244 183.522,-300.788"/>
<polygon fill="#000000" stroke="#000000" points="182.904,-297.336 173.372,-301.96 183.707,-304.29 182.904,-297.336"/>
</g>
<!-- Positional -->
<g id="node5" class="node"><title>Positional</title>
<g id="a_node5"><a xlink:href="/type/Positional" xlink:title="Positional">
<ellipse fill="none" stroke="#6666ff" cx="739.046" cy="-234" rx="48.9926" ry="18"/>
<text text-anchor="middle" x="739.046" y="-230.3" font-family="FreeSans" font-size="14.00" fill="#6666ff">Positional</text>
</a>
</g>
</g>
<!-- List -->
<g id="node6" class="node"><title>List</title>
<g id="a_node6"><a xlink:href="/type/List" xlink:title="List">
<ellipse fill="none" stroke="#000000" cx="693.046" cy="-162" rx="27" ry="18"/>
<text text-anchor="middle" x="693.046" y="-158.3" font-family="FreeSans" font-size="14.00" fill="#000000">List</text>
</a>
</g>
</g>
<!-- List&#45;&gt;Iterable -->
<g id="edge15" class="edge"><title>List&#45;&gt;Iterable</title>
<path fill="none" stroke="#6666ff" d="M671.688,-173.085C663.936,-176.746 657.046,-180 657.046,-180 657.046,-180 394.046,-216 394.046,-216 394.046,-216 390.284,-217.279 384.824,-219.135"/>
<polygon fill="#6666ff" stroke="#6666ff" points="383.484,-215.894 375.143,-222.427 385.737,-222.522 383.484,-215.894"/>
</g>
<!-- List&#45;&gt;Cool -->
<g id="edge3" class="edge"><title>List&#45;&gt;Cool</title>
<path fill="none" stroke="#000000" d="M682.171,-178.535C675.978,-187.383 668.081,-198.663 661.083,-208.661"/>
<polygon fill="#000000" stroke="#000000" points="658.097,-206.823 655.23,-217.023 663.832,-210.838 658.097,-206.823"/>
</g>
<!-- List&#45;&gt;Positional -->
<g id="edge14" class="edge"><title>List&#45;&gt;Positional</title>
<path fill="none" stroke="#6666ff" d="M703.484,-178.884C709.085,-187.408 716.12,-198.114 722.452,-207.749"/>
<polygon fill="#6666ff" stroke="#6666ff" points="719.591,-209.768 728.007,-216.203 725.44,-205.923 719.591,-209.768"/>
</g>
<!-- Sequence -->
<g id="node7" class="node"><title>Sequence</title>
<g id="a_node7"><a xlink:href="/type/Sequence" xlink:title="Sequence">
<ellipse fill="none" stroke="#6666ff" cx="69.0456" cy="-234" rx="50.0912" ry="18"/>
<text text-anchor="middle" x="69.0456" y="-230.3" font-family="FreeSans" font-size="14.00" fill="#6666ff">Sequence</text>
</a>
</g>
</g>
<!-- HyperSeq -->
<g id="node8" class="node"><title>HyperSeq</title>
<g id="a_node8"><a xlink:href="/type/HyperSeq" xlink:title="HyperSeq">
<ellipse fill="none" stroke="#000000" cx="50.0456" cy="-162" rx="50.0912" ry="18"/>
<text text-anchor="middle" x="50.0456" y="-158.3" font-family="FreeSans" font-size="14.00" fill="#000000">HyperSeq</text>
</a>
</g>
</g>
<!-- HyperSeq&#45;&gt;Iterable -->
<g id="edge16" class="edge"><title>HyperSeq&#45;&gt;Iterable</title>
<path fill="none" stroke="#6666ff" d="M87.7452,-173.863C99.3083,-177.194 109.046,-180 109.046,-180 109.046,-180 294.046,-216 294.046,-216 294.046,-216 297.807,-217.279 303.267,-219.135"/>
<polygon fill="#6666ff" stroke="#6666ff" points="302.354,-222.522 312.948,-222.427 304.607,-215.894 302.354,-222.522"/>
</g>
<!-- HyperSeq&#45;&gt;Any -->
<g id="edge4" class="edge"><title>HyperSeq&#45;&gt;Any</title>
<path fill="none" stroke="#000000" d="M37.6086,-179.479C25.8665,-195.037 10.0456,-216 10.0456,-216 10.0456,-216 10.0456,-252 10.0456,-252 10.0456,-252 74.1136,-276.785 114.624,-292.457"/>
<polygon fill="#000000" stroke="#000000" points="113.526,-295.785 124.115,-296.129 116.051,-289.257 113.526,-295.785"/>
</g>
<!-- HyperSeq&#45;&gt;Sequence -->
<g id="edge17" class="edge"><title>HyperSeq&#45;&gt;Sequence</title>
<path fill="none" stroke="#6666ff" d="M54.6449,-179.945C56.7605,-187.739 59.3225,-197.178 61.6956,-205.921"/>
<polygon fill="#6666ff" stroke="#6666ff" points="58.3592,-206.991 64.3565,-215.725 65.1148,-205.157 58.3592,-206.991"/>
</g>
<!-- Associative -->
<g id="node9" class="node"><title>Associative</title>
<g id="a_node9"><a xlink:href="/type/Associative" xlink:title="Associative">
<ellipse fill="none" stroke="#6666ff" cx="230.046" cy="-234" rx="55.4913" ry="18"/>
<text text-anchor="middle" x="230.046" y="-230.3" font-family="FreeSans" font-size="14.00" fill="#6666ff">Associative</text>
</a>
</g>
</g>
<!-- Map -->
<g id="node10" class="node"><title>Map</title>
<g id="a_node10"><a xlink:href="/type/Map" xlink:title="Map">
<ellipse fill="none" stroke="#000000" cx="344.046" cy="-162" rx="28.6953" ry="18"/>
<text text-anchor="middle" x="344.046" y="-158.3" font-family="FreeSans" font-size="14.00" fill="#000000">Map</text>
</a>
</g>
</g>
<!-- Map&#45;&gt;Iterable -->
<g id="edge18" class="edge"><title>Map&#45;&gt;Iterable</title>
<path fill="none" stroke="#6666ff" d="M344.046,-180.303C344.046,-188.017 344.046,-197.288 344.046,-205.888"/>
<polygon fill="#6666ff" stroke="#6666ff" points="340.546,-205.896 344.046,-215.896 347.546,-205.896 340.546,-205.896"/>
</g>
<!-- Map&#45;&gt;Cool -->
<g id="edge5" class="edge"><title>Map&#45;&gt;Cool</title>
<path fill="none" stroke="#000000" d="M371.097,-168.472C438.038,-182.014 606.046,-216 606.046,-216 606.046,-216 608.477,-217.088 612.109,-218.712"/>
<polygon fill="#000000" stroke="#000000" points="610.944,-222.026 621.502,-222.915 613.803,-215.636 610.944,-222.026"/>
</g>
<!-- Map&#45;&gt;Associative -->
<g id="edge19" class="edge"><title>Map&#45;&gt;Associative</title>
<path fill="none" stroke="#6666ff" d="M324.188,-175.193C307.482,-185.452 283.235,-200.34 263.533,-212.438"/>
<polygon fill="#6666ff" stroke="#6666ff" points="261.534,-209.558 254.843,-217.773 265.197,-215.523 261.534,-209.558"/>
</g>
<!-- PositionalBindFailover -->
<g id="node11" class="node"><title>PositionalBindFailover</title>
<g id="a_node11"><a xlink:href="/type/PositionalBindFailover" xlink:title="PositionalBindFailover">
<ellipse fill="none" stroke="#6666ff" cx="500.046" cy="-234" rx="97.4827" ry="18"/>
<text text-anchor="middle" x="500.046" y="-230.3" font-family="FreeSans" font-size="14.00" fill="#6666ff">PositionalBindFailover</text>
</a>
</g>
</g>
<!-- Seq -->
<g id="node12" class="node"><title>Seq</title>
<g id="a_node12"><a xlink:href="/type/Seq" xlink:title="Seq">
<ellipse fill="none" stroke="#000000" cx="500.046" cy="-162" rx="27" ry="18"/>
<text text-anchor="middle" x="500.046" y="-158.3" font-family="FreeSans" font-size="14.00" fill="#000000">Seq</text>
</a>
</g>
</g>
<!-- Seq&#45;&gt;Iterable -->
<g id="edge20" class="edge"><title>Seq&#45;&gt;Iterable</title>
<path fill="none" stroke="#6666ff" d="M478.354,-172.733C453.198,-184.021 411.31,-202.817 380.993,-216.421"/>
<polygon fill="#6666ff" stroke="#6666ff" points="379.284,-213.352 371.593,-220.639 382.149,-219.738 379.284,-213.352"/>
</g>
<!-- Seq&#45;&gt;Cool -->
<g id="edge6" class="edge"><title>Seq&#45;&gt;Cool</title>
<path fill="none" stroke="#000000" d="M521.293,-173.329C545.367,-185.031 584.844,-204.221 612.513,-217.672"/>
<polygon fill="#000000" stroke="#000000" points="611.239,-220.944 621.763,-222.168 614.299,-214.648 611.239,-220.944"/>
</g>
<!-- Seq&#45;&gt;PositionalBindFailover -->
<g id="edge21" class="edge"><title>Seq&#45;&gt;PositionalBindFailover</title>
<path fill="none" stroke="#6666ff" d="M500.046,-180.303C500.046,-188.017 500.046,-197.288 500.046,-205.888"/>
<polygon fill="#6666ff" stroke="#6666ff" points="496.546,-205.896 500.046,-215.896 503.546,-205.896 496.546,-205.896"/>
</g>
<!-- Range -->
<g id="node13" class="node"><title>Range</title>
<g id="a_node13"><a xlink:href="/type/Range" xlink:title="Range">
<ellipse fill="none" stroke="#000000" cx="612.046" cy="-162" rx="36.2938" ry="18"/>
<text text-anchor="middle" x="612.046" y="-158.3" font-family="FreeSans" font-size="14.00" fill="#000000">Range</text>
</a>
</g>
</g>
<!-- Range&#45;&gt;Iterable -->
<g id="edge23" class="edge"><title>Range&#45;&gt;Iterable</title>
<path fill="none" stroke="#6666ff" d="M579.879,-170.82C519.239,-185.563 394.046,-216 394.046,-216 394.046,-216 390.284,-217.279 384.824,-219.135"/>
<polygon fill="#6666ff" stroke="#6666ff" points="383.484,-215.894 375.143,-222.427 385.737,-222.522 383.484,-215.894"/>
</g>
<!-- Range&#45;&gt;Cool -->
<g id="edge7" class="edge"><title>Range&#45;&gt;Cool</title>
<path fill="none" stroke="#000000" d="M619.792,-179.945C623.487,-188.027 627.99,-197.879 632.109,-206.888"/>
<polygon fill="#000000" stroke="#000000" points="629.03,-208.571 636.371,-216.211 635.396,-205.661 629.03,-208.571"/>
</g>
<!-- Range&#45;&gt;Positional -->
<g id="edge22" class="edge"><title>Range&#45;&gt;Positional</title>
<path fill="none" stroke="#6666ff" d="M635.339,-175.839C654.513,-186.407 681.994,-201.554 703.85,-213.601"/>
<polygon fill="#6666ff" stroke="#6666ff" points="702.385,-216.79 712.832,-218.552 705.764,-210.659 702.385,-216.79"/>
</g>
<!-- RaceSeq -->
<g id="node14" class="node"><title>RaceSeq</title>
<g id="a_node14"><a xlink:href="/type/RaceSeq" xlink:title="RaceSeq">
<ellipse fill="none" stroke="#000000" cx="165.046" cy="-162" rx="46.5926" ry="18"/>
<text text-anchor="middle" x="165.046" y="-158.3" font-family="FreeSans" font-size="14.00" fill="#000000">RaceSeq</text>
</a>
</g>
</g>
<!-- RaceSeq&#45;&gt;Iterable -->
<g id="edge24" class="edge"><title>RaceSeq&#45;&gt;Iterable</title>
<path fill="none" stroke="#6666ff" d="M196.635,-175.353C226.924,-187.198 272.719,-205.107 305.219,-217.816"/>
<polygon fill="#6666ff" stroke="#6666ff" points="304.258,-221.199 314.846,-221.581 306.808,-214.68 304.258,-221.199"/>
</g>
<!-- RaceSeq&#45;&gt;Any -->
<g id="edge8" class="edge"><title>RaceSeq&#45;&gt;Any</title>
<path fill="none" stroke="#000000" d="M162.874,-180.129C159.807,-204.33 154.171,-248.789 150.518,-277.607"/>
<polygon fill="#000000" stroke="#000000" points="147.01,-277.45 149.224,-287.811 153.954,-278.33 147.01,-277.45"/>
</g>
<!-- RaceSeq&#45;&gt;Sequence -->
<g id="edge25" class="edge"><title>RaceSeq&#45;&gt;Sequence</title>
<path fill="none" stroke="#6666ff" d="M144.215,-178.189C130.847,-187.937 113.286,-200.742 98.4996,-211.523"/>
<polygon fill="#6666ff" stroke="#6666ff" points="96.185,-208.879 90.167,-217.599 100.309,-214.535 96.185,-208.879"/>
</g>
<!-- Slip -->
<g id="node15" class="node"><title>Slip</title>
<g id="a_node15"><a xlink:href="/type/Slip" xlink:title="Slip">
<ellipse fill="none" stroke="#000000" cx="654.046" cy="-90" rx="27" ry="18"/>
<text text-anchor="middle" x="654.046" y="-86.3" font-family="FreeSans" font-size="14.00" fill="#000000">Slip</text>
</a>
</g>
</g>
<!-- Slip&#45;&gt;List -->
<g id="edge9" class="edge"><title>Slip&#45;&gt;List</title>
<path fill="none" stroke="#000000" d="M663.091,-107.235C667.866,-115.805 673.827,-126.506 679.172,-136.1"/>
<polygon fill="#000000" stroke="#000000" points="676.125,-137.82 684.049,-144.853 682.24,-134.414 676.125,-137.82"/>
</g>
<!-- Array -->
<g id="node16" class="node"><title>Array</title>
<g id="a_node16"><a xlink:href="/type/Array" xlink:title="Array">
<ellipse fill="none" stroke="#000000" cx="731.046" cy="-90" rx="31.6951" ry="18"/>
<text text-anchor="middle" x="731.046" y="-86.3" font-family="FreeSans" font-size="14.00" fill="#000000">Array</text>
</a>
</g>
</g>
<!-- Array&#45;&gt;List -->
<g id="edge10" class="edge"><title>Array&#45;&gt;List</title>
<path fill="none" stroke="#000000" d="M722.04,-107.589C717.497,-115.958 711.888,-126.29 706.818,-135.63"/>
<polygon fill="#000000" stroke="#000000" points="703.681,-134.072 701.986,-144.53 709.833,-137.411 703.681,-134.072"/>
</g>
<!-- PseudoStash -->
<g id="node17" class="node"><title>PseudoStash</title>
<g id="a_node17"><a xlink:href="/type/PseudoStash" xlink:title="PseudoStash">
<ellipse fill="none" stroke="#000000" cx="288.046" cy="-90" rx="63.0888" ry="18"/>
<text text-anchor="middle" x="288.046" y="-86.3" font-family="FreeSans" font-size="14.00" fill="#000000">PseudoStash</text>
</a>
</g>
</g>
<!-- PseudoStash&#45;&gt;Map -->
<g id="edge11" class="edge"><title>PseudoStash&#45;&gt;Map</title>
<path fill="none" stroke="#000000" d="M301.602,-107.945C308.712,-116.833 317.533,-127.86 325.289,-137.554"/>
<polygon fill="#000000" stroke="#000000" points="322.78,-140.021 331.76,-145.644 328.247,-135.648 322.78,-140.021"/>
</g>
<!-- Hash -->
<g id="node18" class="node"><title>Hash</title>
<g id="a_node18"><a xlink:href="/type/Hash" xlink:title="Hash">
<ellipse fill="none" stroke="#000000" cx="400.046" cy="-90" rx="31.3957" ry="18"/>
<text text-anchor="middle" x="400.046" y="-86.3" font-family="FreeSans" font-size="14.00" fill="#000000">Hash</text>
</a>
</g>
</g>
<!-- Hash&#45;&gt;Map -->
<g id="edge12" class="edge"><title>Hash&#45;&gt;Map</title>
<path fill="none" stroke="#000000" d="M387.617,-106.535C380.295,-115.689 370.889,-127.446 362.691,-137.693"/>
<polygon fill="#000000" stroke="#000000" points="359.953,-135.513 356.439,-145.508 365.419,-139.886 359.953,-135.513"/>
</g>
<!-- Stash -->
<g id="node19" class="node"><title>Stash</title>
<g id="a_node19"><a xlink:href="/type/Stash" xlink:title="Stash">
<ellipse fill="none" stroke="#000000" cx="400.046" cy="-18" rx="33.2948" ry="18"/>
<text text-anchor="middle" x="400.046" y="-14.3" font-family="FreeSans" font-size="14.00" fill="#000000">Stash</text>
</a>
</g>
</g>
<!-- Stash&#45;&gt;Hash -->
<g id="edge13" class="edge"><title>Stash&#45;&gt;Hash</title>
<path fill="none" stroke="#000000" d="M400.046,-36.3034C400.046,-44.0173 400.046,-53.2875 400.046,-61.8876"/>
<polygon fill="#000000" stroke="#000000" points="396.546,-61.8956 400.046,-71.8957 403.546,-61.8957 396.546,-61.8956"/>
</g>
</g>
</svg>
