<?xml version="1.0" encoding="UTF-8" standalone="no"?>
<!DOCTYPE svg PUBLIC "-//W3C//DTD SVG 1.1//EN"
 "http://www.w3.org/Graphics/SVG/1.1/DTD/svg11.dtd">
<!-- Generated by graphviz version 2.38.0 (20140413.2041)
 -->
<!-- Title: perl6&#45;type&#45;graph Pages: 1 -->
<svg width="159pt" height="332pt"
 viewBox="0.00 0.00 158.79 332.00" xmlns="http://www.w3.org/2000/svg" xmlns:xlink="http://www.w3.org/1999/xlink">
<g id="graph0" class="graph" transform="scale(1 1) rotate(0) translate(4 328)">
<title>perl6&#45;type&#45;graph</title>
<polygon fill="white" stroke="none" points="-4,4 -4,-328 154.787,-328 154.787,4 -4,4"/>
<!-- IO::Spec::Win32 -->
<g id="node1" class="node"><title>IO::Spec::Win32</title>
<g id="a_node1"><a xlink:href="/type/IO::Spec::Win32" xlink:title="IO::Spec::Win32">
<ellipse fill="none" stroke="#000000" cx="75.3933" cy="-18" rx="75.2868" ry="18"/>
<text text-anchor="middle" x="75.3933" y="-14.3" font-family="FreeSans" font-size="14.00" fill="#000000">IO::Spec::Win32</text>
</a>
</g>
</g>
<!-- IO::Spec::Unix -->
<g id="node5" class="node"><title>IO::Spec::Unix</title>
<g id="a_node5"><a xlink:href="/type/IO::Spec::Unix" xlink:title="IO::Spec::Unix">
<ellipse fill="none" stroke="#000000" cx="75.3933" cy="-90" rx="67.6881" ry="18"/>
<text text-anchor="middle" x="75.3933" y="-86.3" font-family="FreeSans" font-size="14.00" fill="#000000">IO::Spec::Unix</text>
</a>
</g>
</g>
<!-- IO::Spec::Win32&#45;&gt;IO::Spec::Unix -->
<g id="edge1" class="edge"><title>IO::Spec::Win32&#45;&gt;IO::Spec::Unix</title>
<path fill="none" stroke="#000000" d="M75.3933,-36.3034C75.3933,-44.0173 75.3933,-53.2875 75.3933,-61.8876"/>
<polygon fill="#000000" stroke="#000000" points="71.8934,-61.8956 75.3933,-71.8957 78.8934,-61.8957 71.8934,-61.8956"/>
</g>
<!-- Mu -->
<g id="node2" class="node"><title>Mu</title>
<g id="a_node2"><a xlink:href="/type/Mu" xlink:title="Mu">
<ellipse fill="none" stroke="#000000" cx="75.3933" cy="-306" rx="27" ry="18"/>
<text text-anchor="middle" x="75.3933" y="-302.3" font-family="FreeSans" font-size="14.00" fill="#000000">Mu</text>
</a>
</g>
</g>
<!-- Any -->
<g id="node3" class="node"><title>Any</title>
<g id="a_node3"><a xlink:href="/type/Any" xlink:title="Any">
<ellipse fill="none" stroke="#000000" cx="75.3933" cy="-234" rx="27" ry="18"/>
<text text-anchor="middle" x="75.3933" y="-230.3" font-family="FreeSans" font-size="14.00" fill="#000000">Any</text>
</a>
</g>
</g>
<!-- Any&#45;&gt;Mu -->
<g id="edge2" class="edge"><title>Any&#45;&gt;Mu</title>
<path fill="none" stroke="#000000" d="M75.3933,-252.303C75.3933,-260.017 75.3933,-269.288 75.3933,-277.888"/>
<polygon fill="#000000" stroke="#000000" points="71.8934,-277.896 75.3933,-287.896 78.8934,-277.896 71.8934,-277.896"/>
</g>
<!-- IO::Spec -->
<g id="node4" class="node"><title>IO::Spec</title>
<g id="a_node4"><a xlink:href="/type/IO::Spec" xlink:title="IO::Spec">
<ellipse fill="none" stroke="#000000" cx="75.3933" cy="-162" rx="45.4919" ry="18"/>
<text text-anchor="middle" x="75.3933" y="-158.3" font-family="FreeSans" font-size="14.00" fill="#000000">IO::Spec</text>
</a>
</g>
</g>
<!-- IO::Spec&#45;&gt;Any -->
<g id="edge3" class="edge"><title>IO::Spec&#45;&gt;Any</title>
<path fill="none" stroke="#000000" d="M75.3933,-180.303C75.3933,-188.017 75.3933,-197.288 75.3933,-205.888"/>
<polygon fill="#000000" stroke="#000000" points="71.8934,-205.896 75.3933,-215.896 78.8934,-205.896 71.8934,-205.896"/>
</g>
<!-- IO::Spec::Unix&#45;&gt;IO::Spec -->
<g id="edge4" class="edge"><title>IO::Spec::Unix&#45;&gt;IO::Spec</title>
<path fill="none" stroke="#000000" d="M75.3933,-108.303C75.3933,-116.017 75.3933,-125.288 75.3933,-133.888"/>
<polygon fill="#000000" stroke="#000000" points="71.8934,-133.896 75.3933,-143.896 78.8934,-133.896 71.8934,-133.896"/>
</g>
</g>
</svg>
