<?xml version="1.0" encoding="UTF-8" standalone="no"?>
<!DOCTYPE svg PUBLIC "-//W3C//DTD SVG 1.1//EN"
 "http://www.w3.org/Graphics/SVG/1.1/DTD/svg11.dtd">
<!-- Generated by graphviz version 2.38.0 (20140413.2041)
 -->
<!-- Title: perl6&#45;type&#45;graph Pages: 1 -->
<svg width="669pt" height="332pt"
 viewBox="0.00 0.00 669.09 332.00" xmlns="http://www.w3.org/2000/svg" xmlns:xlink="http://www.w3.org/1999/xlink">
<g id="graph0" class="graph" transform="scale(1 1) rotate(0) translate(4 328)">
<title>perl6&#45;type&#45;graph</title>
<polygon fill="white" stroke="none" points="-4,4 -4,-328 665.095,-328 665.095,4 -4,4"/>
<!-- Positional -->
<g id="node1" class="node"><title>Positional</title>
<g id="a_node1"><a xlink:href="/type/Positional" xlink:title="Positional">
<ellipse fill="none" stroke="#6666ff" cx="329.247" cy="-162" rx="48.9926" ry="18"/>
<text text-anchor="middle" x="329.247" y="-158.3" font-family="FreeSans" font-size="14.00" fill="#6666ff">Positional</text>
</a>
</g>
</g>
<!-- Mu -->
<g id="node2" class="node"><title>Mu</title>
<g id="a_node2"><a xlink:href="/type/Mu" xlink:title="Mu">
<ellipse fill="none" stroke="#000000" cx="523.247" cy="-306" rx="27" ry="18"/>
<text text-anchor="middle" x="523.247" y="-302.3" font-family="FreeSans" font-size="14.00" fill="#000000">Mu</text>
</a>
</g>
</g>
<!-- Any -->
<g id="node3" class="node"><title>Any</title>
<g id="a_node3"><a xlink:href="/type/Any" xlink:title="Any">
<ellipse fill="none" stroke="#000000" cx="523.247" cy="-234" rx="27" ry="18"/>
<text text-anchor="middle" x="523.247" y="-230.3" font-family="FreeSans" font-size="14.00" fill="#000000">Any</text>
</a>
</g>
</g>
<!-- Any&#45;&gt;Mu -->
<g id="edge1" class="edge"><title>Any&#45;&gt;Mu</title>
<path fill="none" stroke="#000000" d="M523.247,-252.303C523.247,-260.017 523.247,-269.288 523.247,-277.888"/>
<polygon fill="#000000" stroke="#000000" points="519.748,-277.896 523.247,-287.896 526.748,-277.896 519.748,-277.896"/>
</g>
<!-- Stringy -->
<g id="node4" class="node"><title>Stringy</title>
<g id="a_node4"><a xlink:href="/type/Stringy" xlink:title="Stringy">
<ellipse fill="none" stroke="#6666ff" cx="224.247" cy="-162" rx="38.1938" ry="18"/>
<text text-anchor="middle" x="224.247" y="-158.3" font-family="FreeSans" font-size="14.00" fill="#6666ff">Stringy</text>
</a>
</g>
</g>
<!-- Uni -->
<g id="node5" class="node"><title>Uni</title>
<g id="a_node5"><a xlink:href="/type/Uni" xlink:title="Uni">
<ellipse fill="none" stroke="#000000" cx="201.247" cy="-90" rx="27" ry="18"/>
<text text-anchor="middle" x="201.247" y="-86.3" font-family="FreeSans" font-size="14.00" fill="#000000">Uni</text>
</a>
</g>
</g>
<!-- Uni&#45;&gt;Positional -->
<g id="edge13" class="edge"><title>Uni&#45;&gt;Positional</title>
<path fill="none" stroke="#6666ff" d="M221.529,-102.092C240.946,-112.71 270.646,-128.952 293.946,-141.694"/>
<polygon fill="#6666ff" stroke="#6666ff" points="292.394,-144.835 302.847,-146.562 295.753,-138.693 292.394,-144.835"/>
</g>
<!-- Uni&#45;&gt;Any -->
<g id="edge2" class="edge"><title>Uni&#45;&gt;Any</title>
<path fill="none" stroke="#000000" d="M193.785,-107.479C186.74,-123.037 177.247,-144 177.247,-144 177.247,-144 177.247,-180 177.247,-180 177.247,-180 398.427,-213.88 487.107,-227.464"/>
<polygon fill="#000000" stroke="#000000" points="486.826,-230.962 497.241,-229.016 487.886,-224.043 486.826,-230.962"/>
</g>
<!-- Uni&#45;&gt;Stringy -->
<g id="edge14" class="edge"><title>Uni&#45;&gt;Stringy</title>
<path fill="none" stroke="#6666ff" d="M206.815,-107.945C209.404,-115.824 212.545,-125.383 215.444,-134.206"/>
<polygon fill="#6666ff" stroke="#6666ff" points="212.125,-135.317 218.571,-143.725 218.775,-133.132 212.125,-135.317"/>
</g>
<!-- Cool -->
<g id="node6" class="node"><title>Cool</title>
<g id="a_node6"><a xlink:href="/type/Cool" xlink:title="Cool">
<ellipse fill="none" stroke="#000000" cx="523.247" cy="-162" rx="28.6953" ry="18"/>
<text text-anchor="middle" x="523.247" y="-158.3" font-family="FreeSans" font-size="14.00" fill="#000000">Cool</text>
</a>
</g>
</g>
<!-- Cool&#45;&gt;Any -->
<g id="edge3" class="edge"><title>Cool&#45;&gt;Any</title>
<path fill="none" stroke="#000000" d="M523.247,-180.303C523.247,-188.017 523.247,-197.288 523.247,-205.888"/>
<polygon fill="#000000" stroke="#000000" points="519.748,-205.896 523.247,-215.896 526.748,-205.896 519.748,-205.896"/>
</g>
<!-- Iterable -->
<g id="node7" class="node"><title>Iterable</title>
<g id="a_node7"><a xlink:href="/type/Iterable" xlink:title="Iterable">
<ellipse fill="none" stroke="#6666ff" cx="436.247" cy="-162" rx="40.0939" ry="18"/>
<text text-anchor="middle" x="436.247" y="-158.3" font-family="FreeSans" font-size="14.00" fill="#6666ff">Iterable</text>
</a>
</g>
</g>
<!-- List -->
<g id="node8" class="node"><title>List</title>
<g id="a_node8"><a xlink:href="/type/List" xlink:title="List">
<ellipse fill="none" stroke="#000000" cx="511.247" cy="-90" rx="27" ry="18"/>
<text text-anchor="middle" x="511.247" y="-86.3" font-family="FreeSans" font-size="14.00" fill="#000000">List</text>
</a>
</g>
</g>
<!-- List&#45;&gt;Positional -->
<g id="edge15" class="edge"><title>List&#45;&gt;Positional</title>
<path fill="none" stroke="#6666ff" d="M489.89,-101.085C482.138,-104.746 475.247,-108 475.247,-108 475.247,-108 415.263,-129.775 372.192,-145.411"/>
<polygon fill="#6666ff" stroke="#6666ff" points="370.948,-142.138 362.743,-148.841 373.337,-148.718 370.948,-142.138"/>
</g>
<!-- List&#45;&gt;Cool -->
<g id="edge4" class="edge"><title>List&#45;&gt;Cool</title>
<path fill="none" stroke="#000000" d="M514.152,-107.945C515.474,-115.654 517.071,-124.973 518.556,-133.636"/>
<polygon fill="#000000" stroke="#000000" points="515.147,-134.46 520.286,-143.725 522.046,-133.277 515.147,-134.46"/>
</g>
<!-- List&#45;&gt;Iterable -->
<g id="edge16" class="edge"><title>List&#45;&gt;Iterable</title>
<path fill="none" stroke="#6666ff" d="M496.07,-105.166C485.817,-114.735 472.064,-127.571 460.33,-138.523"/>
<polygon fill="#6666ff" stroke="#6666ff" points="457.89,-136.012 452.968,-145.394 462.667,-141.13 457.89,-136.012"/>
</g>
<!-- Blob -->
<g id="node9" class="node"><title>Blob</title>
<g id="a_node9"><a xlink:href="/type/Blob" xlink:title="Blob">
<ellipse fill="none" stroke="#6666ff" cx="335.247" cy="-90" rx="28.6953" ry="18"/>
<text text-anchor="middle" x="335.247" y="-86.3" font-family="FreeSans" font-size="14.00" fill="#6666ff">Blob</text>
</a>
</g>
</g>
<!-- Blob&#45;&gt;Positional -->
<g id="edge17" class="edge"><title>Blob&#45;&gt;Positional</title>
<path fill="none" stroke="#6666ff" d="M333.764,-108.303C333.103,-116.017 332.308,-125.288 331.571,-133.888"/>
<polygon fill="#6666ff" stroke="#6666ff" points="328.08,-133.633 330.713,-143.896 335.055,-134.231 328.08,-133.633"/>
</g>
<!-- Blob&#45;&gt;Stringy -->
<g id="edge18" class="edge"><title>Blob&#45;&gt;Stringy</title>
<path fill="none" stroke="#6666ff" d="M315.658,-103.353C298.819,-113.973 274.25,-129.467 254.824,-141.718"/>
<polygon fill="#6666ff" stroke="#6666ff" points="252.898,-138.794 246.306,-147.089 256.632,-144.715 252.898,-138.794"/>
</g>
<!-- Range -->
<g id="node10" class="node"><title>Range</title>
<g id="a_node10"><a xlink:href="/type/Range" xlink:title="Range">
<ellipse fill="none" stroke="#000000" cx="430.247" cy="-90" rx="36.2938" ry="18"/>
<text text-anchor="middle" x="430.247" y="-86.3" font-family="FreeSans" font-size="14.00" fill="#000000">Range</text>
</a>
</g>
</g>
<!-- Range&#45;&gt;Positional -->
<g id="edge19" class="edge"><title>Range&#45;&gt;Positional</title>
<path fill="none" stroke="#6666ff" d="M409.809,-105.166C395.413,-115.143 375.892,-128.672 359.672,-139.914"/>
<polygon fill="#6666ff" stroke="#6666ff" points="357.279,-137.313 351.054,-145.886 361.267,-143.067 357.279,-137.313"/>
</g>
<!-- Range&#45;&gt;Cool -->
<g id="edge5" class="edge"><title>Range&#45;&gt;Cool</title>
<path fill="none" stroke="#000000" d="M449.517,-105.504C463.433,-115.979 482.373,-130.234 497.572,-141.674"/>
<polygon fill="#000000" stroke="#000000" points="495.481,-144.481 505.575,-147.698 499.69,-138.888 495.481,-144.481"/>
</g>
<!-- Range&#45;&gt;Iterable -->
<g id="edge20" class="edge"><title>Range&#45;&gt;Iterable</title>
<path fill="none" stroke="#6666ff" d="M431.731,-108.303C432.392,-116.017 433.186,-125.288 433.923,-133.888"/>
<polygon fill="#6666ff" stroke="#6666ff" points="430.44,-134.231 434.781,-143.896 437.414,-133.633 430.44,-134.231"/>
</g>
<!-- NFD -->
<g id="node11" class="node"><title>NFD</title>
<g id="a_node11"><a xlink:href="/type/NFD" xlink:title="NFD">
<ellipse fill="none" stroke="#000000" cx="29.2474" cy="-18" rx="29.4969" ry="18"/>
<text text-anchor="middle" x="29.2474" y="-14.3" font-family="FreeSans" font-size="14.00" fill="#000000">NFD</text>
</a>
</g>
</g>
<!-- NFD&#45;&gt;Uni -->
<g id="edge6" class="edge"><title>NFD&#45;&gt;Uni</title>
<path fill="none" stroke="#000000" d="M52.2288,-29.2811C60.2314,-32.8613 67.2474,-36 67.2474,-36 67.2474,-36 129.319,-60.5507 168.97,-76.2335"/>
<polygon fill="#000000" stroke="#000000" points="167.93,-79.5859 178.516,-80.0093 170.504,-73.0766 167.93,-79.5859"/>
</g>
<!-- NFKD -->
<g id="node12" class="node"><title>NFKD</title>
<g id="a_node12"><a xlink:href="/type/NFKD" xlink:title="NFKD">
<ellipse fill="none" stroke="#000000" cx="112.247" cy="-18" rx="35.9954" ry="18"/>
<text text-anchor="middle" x="112.247" y="-14.3" font-family="FreeSans" font-size="14.00" fill="#000000">NFKD</text>
</a>
</g>
</g>
<!-- NFKD&#45;&gt;Uni -->
<g id="edge7" class="edge"><title>NFKD&#45;&gt;Uni</title>
<path fill="none" stroke="#000000" d="M130.688,-33.504C143.882,-43.8815 161.796,-57.9707 176.271,-69.3559"/>
<polygon fill="#000000" stroke="#000000" points="174.312,-72.2673 184.335,-75.6984 178.639,-66.7652 174.312,-72.2673"/>
</g>
<!-- NFKC -->
<g id="node13" class="node"><title>NFKC</title>
<g id="a_node13"><a xlink:href="/type/NFKC" xlink:title="NFKC">
<ellipse fill="none" stroke="#000000" cx="201.247" cy="-18" rx="35.9954" ry="18"/>
<text text-anchor="middle" x="201.247" y="-14.3" font-family="FreeSans" font-size="14.00" fill="#000000">NFKC</text>
</a>
</g>
</g>
<!-- NFKC&#45;&gt;Uni -->
<g id="edge8" class="edge"><title>NFKC&#45;&gt;Uni</title>
<path fill="none" stroke="#000000" d="M201.247,-36.3034C201.247,-44.0173 201.247,-53.2875 201.247,-61.8876"/>
<polygon fill="#000000" stroke="#000000" points="197.748,-61.8956 201.247,-71.8957 204.748,-61.8957 197.748,-61.8956"/>
</g>
<!-- NFC -->
<g id="node14" class="node"><title>NFC</title>
<g id="a_node14"><a xlink:href="/type/NFC" xlink:title="NFC">
<ellipse fill="none" stroke="#000000" cx="284.247" cy="-18" rx="29.4969" ry="18"/>
<text text-anchor="middle" x="284.247" y="-14.3" font-family="FreeSans" font-size="14.00" fill="#000000">NFC</text>
</a>
</g>
</g>
<!-- NFC&#45;&gt;Uni -->
<g id="edge9" class="edge"><title>NFC&#45;&gt;Uni</title>
<path fill="none" stroke="#000000" d="M267.451,-33.1655C255.369,-43.3552 238.895,-57.2491 225.403,-68.6277"/>
<polygon fill="#000000" stroke="#000000" points="222.842,-66.2093 217.454,-75.3319 227.355,-71.5604 222.842,-66.2093"/>
</g>
<!-- Array -->
<g id="node15" class="node"><title>Array</title>
<g id="a_node15"><a xlink:href="/type/Array" xlink:title="Array">
<ellipse fill="none" stroke="#000000" cx="629.247" cy="-18" rx="31.6951" ry="18"/>
<text text-anchor="middle" x="629.247" y="-14.3" font-family="FreeSans" font-size="14.00" fill="#000000">Array</text>
</a>
</g>
</g>
<!-- Array&#45;&gt;List -->
<g id="edge10" class="edge"><title>Array&#45;&gt;List</title>
<path fill="none" stroke="#000000" d="M608.151,-31.5146C589.095,-42.819 560.891,-59.5505 539.818,-72.0516"/>
<polygon fill="#000000" stroke="#000000" points="537.798,-69.1799 530.983,-77.2922 541.37,-75.2003 537.798,-69.1799"/>
</g>
<!-- Slip -->
<g id="node16" class="node"><title>Slip</title>
<g id="a_node16"><a xlink:href="/type/Slip" xlink:title="Slip">
<ellipse fill="none" stroke="#000000" cx="480.247" cy="-18" rx="27" ry="18"/>
<text text-anchor="middle" x="480.247" y="-14.3" font-family="FreeSans" font-size="14.00" fill="#000000">Slip</text>
</a>
</g>
</g>
<!-- Slip&#45;&gt;List -->
<g id="edge11" class="edge"><title>Slip&#45;&gt;List</title>
<path fill="none" stroke="#000000" d="M487.594,-35.589C491.262,-43.8708 495.781,-54.0751 499.883,-63.338"/>
<polygon fill="#000000" stroke="#000000" points="496.704,-64.8038 503.954,-72.5301 503.104,-61.9693 496.704,-64.8038"/>
</g>
<!-- utf8 -->
<g id="node17" class="node"><title>utf8</title>
<g id="a_node17"><a xlink:href="/type/utf8" xlink:title="utf8">
<ellipse fill="none" stroke="#000000" cx="552.247" cy="-18" rx="27" ry="18"/>
<text text-anchor="middle" x="552.247" y="-14.3" font-family="FreeSans" font-size="14.00" fill="#000000">utf8</text>
</a>
</g>
</g>
<!-- utf8&#45;&gt;Any -->
<g id="edge12" class="edge"><title>utf8&#45;&gt;Any</title>
<path fill="none" stroke="#000000" d="M553.48,-36.1186C555.945,-70.353 561.247,-144 561.247,-144 561.247,-144 561.247,-180 561.247,-180 561.247,-180 550.552,-194.917 540.51,-208.923"/>
<polygon fill="#000000" stroke="#000000" points="537.426,-207.219 534.443,-217.385 543.114,-211.297 537.426,-207.219"/>
</g>
<!-- utf8&#45;&gt;Blob -->
<g id="edge21" class="edge"><title>utf8&#45;&gt;Blob</title>
<path fill="none" stroke="#6666ff" d="M530.89,-29.0854C523.138,-32.7461 516.247,-36 516.247,-36 516.247,-36 385.247,-72 385.247,-72 385.247,-72 378.254,-74.3778 369.498,-77.3548"/>
<polygon fill="#6666ff" stroke="#6666ff" points="368.295,-74.0668 359.954,-80.5996 370.549,-80.6942 368.295,-74.0668"/>
</g>
<!-- Buf -->
<g id="node18" class="node"><title>Buf</title>
<g id="a_node18"><a xlink:href="/type/Buf" xlink:title="Buf">
<ellipse fill="none" stroke="#6666ff" cx="358.247" cy="-18" rx="27" ry="18"/>
<text text-anchor="middle" x="358.247" y="-14.3" font-family="FreeSans" font-size="14.00" fill="#6666ff">Buf</text>
</a>
</g>
</g>
<!-- Buf&#45;&gt;Blob -->
<g id="edge22" class="edge"><title>Buf&#45;&gt;Blob</title>
<path fill="none" stroke="#6666ff" d="M352.68,-35.945C350.052,-43.9414 346.856,-53.6692 343.922,-62.6005"/>
<polygon fill="#6666ff" stroke="#6666ff" points="340.56,-61.6181 340.764,-72.211 347.211,-63.8032 340.56,-61.6181"/>
</g>
</g>
</svg>
