<?xml version="1.0" encoding="UTF-8" standalone="no"?>
<!DOCTYPE svg PUBLIC "-//W3C//DTD SVG 1.1//EN"
 "http://www.w3.org/Graphics/SVG/1.1/DTD/svg11.dtd">
<!-- Generated by graphviz version 2.38.0 (20140413.2041)
 -->
<!-- Title: perl6&#45;type&#45;graph Pages: 1 -->
<svg width="157pt" height="332pt"
 viewBox="0.00 0.00 157.49 332.00" xmlns="http://www.w3.org/2000/svg" xmlns:xlink="http://www.w3.org/1999/xlink">
<g id="graph0" class="graph" transform="scale(1 1) rotate(0) translate(4 328)">
<title>perl6&#45;type&#45;graph</title>
<polygon fill="white" stroke="none" points="-4,4 -4,-328 153.49,-328 153.49,4 -4,4"/>
<!-- CX::Proceed -->
<g id="node1" class="node"><title>CX::Proceed</title>
<g id="a_node1"><a xlink:href="/type/CX::Proceed" xlink:title="CX::Proceed">
<ellipse fill="none" stroke="#000000" cx="60.4446" cy="-18" rx="60.3893" ry="18"/>
<text text-anchor="middle" x="60.4446" y="-14.3" font-family="FreeSans" font-size="14.00" fill="#000000">CX::Proceed</text>
</a>
</g>
</g>
<!-- Exception -->
<g id="node4" class="node"><title>Exception</title>
<g id="a_node4"><a xlink:href="/type/Exception" xlink:title="Exception">
<ellipse fill="none" stroke="#000000" cx="60.4446" cy="-162" rx="49.2915" ry="18"/>
<text text-anchor="middle" x="60.4446" y="-158.3" font-family="FreeSans" font-size="14.00" fill="#000000">Exception</text>
</a>
</g>
</g>
<!-- CX::Proceed&#45;&gt;Exception -->
<g id="edge1" class="edge"><title>CX::Proceed&#45;&gt;Exception</title>
<path fill="none" stroke="#000000" d="M54.0064,-36.0613C48.1598,-51.5549 40.4446,-72 40.4446,-72 40.4446,-72 40.4446,-108 40.4446,-108 40.4446,-108 45.4404,-121.239 50.4382,-134.483"/>
<polygon fill="#000000" stroke="#000000" points="47.2012,-135.818 54.0064,-143.939 53.7504,-133.347 47.2012,-135.818"/>
</g>
<!-- X::Control -->
<g id="node5" class="node"><title>X::Control</title>
<g id="a_node5"><a xlink:href="/type/X::Control" xlink:title="X::Control">
<ellipse fill="none" stroke="#6666ff" cx="99.4446" cy="-90" rx="50.0912" ry="18"/>
<text text-anchor="middle" x="99.4446" y="-86.3" font-family="FreeSans" font-size="14.00" fill="#6666ff">X::Control</text>
</a>
</g>
</g>
<!-- CX::Proceed&#45;&gt;X::Control -->
<g id="edge5" class="edge"><title>CX::Proceed&#45;&gt;X::Control</title>
<path fill="none" stroke="#6666ff" d="M69.8854,-35.945C74.4843,-44.1994 80.111,-54.2986 85.2165,-63.4622"/>
<polygon fill="#6666ff" stroke="#6666ff" points="82.1662,-65.1788 90.0908,-72.211 88.2812,-61.7718 82.1662,-65.1788"/>
</g>
<!-- Mu -->
<g id="node2" class="node"><title>Mu</title>
<g id="a_node2"><a xlink:href="/type/Mu" xlink:title="Mu">
<ellipse fill="none" stroke="#000000" cx="60.4446" cy="-306" rx="27" ry="18"/>
<text text-anchor="middle" x="60.4446" y="-302.3" font-family="FreeSans" font-size="14.00" fill="#000000">Mu</text>
</a>
</g>
</g>
<!-- Any -->
<g id="node3" class="node"><title>Any</title>
<g id="a_node3"><a xlink:href="/type/Any" xlink:title="Any">
<ellipse fill="none" stroke="#000000" cx="60.4446" cy="-234" rx="27" ry="18"/>
<text text-anchor="middle" x="60.4446" y="-230.3" font-family="FreeSans" font-size="14.00" fill="#000000">Any</text>
</a>
</g>
</g>
<!-- Any&#45;&gt;Mu -->
<g id="edge2" class="edge"><title>Any&#45;&gt;Mu</title>
<path fill="none" stroke="#000000" d="M60.4446,-252.303C60.4446,-260.017 60.4446,-269.288 60.4446,-277.888"/>
<polygon fill="#000000" stroke="#000000" points="56.9447,-277.896 60.4446,-287.896 63.9447,-277.896 56.9447,-277.896"/>
</g>
<!-- Exception&#45;&gt;Any -->
<g id="edge3" class="edge"><title>Exception&#45;&gt;Any</title>
<path fill="none" stroke="#000000" d="M60.4446,-180.303C60.4446,-188.017 60.4446,-197.288 60.4446,-205.888"/>
<polygon fill="#000000" stroke="#000000" points="56.9447,-205.896 60.4446,-215.896 63.9447,-205.896 56.9447,-205.896"/>
</g>
<!-- X::Control&#45;&gt;Exception -->
<g id="edge4" class="edge"><title>X::Control&#45;&gt;Exception</title>
<path fill="none" stroke="#000000" d="M90.0038,-107.945C85.405,-116.199 79.7783,-126.299 74.6728,-135.462"/>
<polygon fill="#000000" stroke="#000000" points="71.6081,-133.772 69.7985,-144.211 77.7231,-137.179 71.6081,-133.772"/>
</g>
</g>
</svg>
