<?xml version="1.0" encoding="UTF-8" standalone="no"?>
<!DOCTYPE svg PUBLIC "-//W3C//DTD SVG 1.1//EN"
 "http://www.w3.org/Graphics/SVG/1.1/DTD/svg11.dtd">
<!-- Generated by graphviz version 2.38.0 (20140413.2041)
 -->
<!-- Title: perl6&#45;type&#45;graph Pages: 1 -->
<svg width="239pt" height="404pt"
 viewBox="0.00 0.00 238.94 404.00" xmlns="http://www.w3.org/2000/svg" xmlns:xlink="http://www.w3.org/1999/xlink">
<g id="graph0" class="graph" transform="scale(1 1) rotate(0) translate(4 400)">
<title>perl6&#45;type&#45;graph</title>
<polygon fill="white" stroke="none" points="-4,4 -4,-400 234.936,-400 234.936,4 -4,4"/>
<!-- X::Syntax::Variable::Twigil -->
<g id="node1" class="node"><title>X::Syntax::Variable::Twigil</title>
<g id="a_node1"><a xlink:href="/type/X::Syntax::Variable::Twigil" xlink:title="X::Syntax::Variable::Twigil">
<ellipse fill="none" stroke="#000000" cx="113.09" cy="-18" rx="113.18" ry="18"/>
<text text-anchor="middle" x="113.09" y="-14.3" font-family="FreeSans" font-size="14.00" fill="#000000">X::Syntax::Variable::Twigil</text>
</a>
</g>
</g>
<!-- Exception -->
<g id="node4" class="node"><title>Exception</title>
<g id="a_node4"><a xlink:href="/type/Exception" xlink:title="Exception">
<ellipse fill="none" stroke="#000000" cx="113.09" cy="-234" rx="49.2915" ry="18"/>
<text text-anchor="middle" x="113.09" y="-230.3" font-family="FreeSans" font-size="14.00" fill="#000000">Exception</text>
</a>
</g>
</g>
<!-- X::Syntax::Variable::Twigil&#45;&gt;Exception -->
<g id="edge1" class="edge"><title>X::Syntax::Variable::Twigil&#45;&gt;Exception</title>
<path fill="none" stroke="#000000" d="M106.974,-36.0613C101.419,-51.5549 94.09,-72 94.09,-72 94.09,-72 94.09,-108 94.09,-108 94.09,-108 103.363,-169.008 108.953,-205.782"/>
<polygon fill="#000000" stroke="#000000" points="105.525,-206.521 110.488,-215.881 112.445,-205.469 105.525,-206.521"/>
</g>
<!-- X::Syntax -->
<g id="node6" class="node"><title>X::Syntax</title>
<g id="a_node6"><a xlink:href="/type/X::Syntax" xlink:title="X::Syntax">
<ellipse fill="none" stroke="#6666ff" cx="151.09" cy="-90" rx="48.1917" ry="18"/>
<text text-anchor="middle" x="151.09" y="-86.3" font-family="FreeSans" font-size="14.00" fill="#6666ff">X::Syntax</text>
</a>
</g>
</g>
<!-- X::Syntax::Variable::Twigil&#45;&gt;X::Syntax -->
<g id="edge6" class="edge"><title>X::Syntax::Variable::Twigil&#45;&gt;X::Syntax</title>
<path fill="none" stroke="#6666ff" d="M122.289,-35.945C126.723,-44.1134 132.138,-54.0884 137.071,-63.1756"/>
<polygon fill="#6666ff" stroke="#6666ff" points="134.129,-65.0923 141.976,-72.211 140.281,-61.7526 134.129,-65.0923"/>
</g>
<!-- Mu -->
<g id="node2" class="node"><title>Mu</title>
<g id="a_node2"><a xlink:href="/type/Mu" xlink:title="Mu">
<ellipse fill="none" stroke="#000000" cx="113.09" cy="-378" rx="27" ry="18"/>
<text text-anchor="middle" x="113.09" y="-374.3" font-family="FreeSans" font-size="14.00" fill="#000000">Mu</text>
</a>
</g>
</g>
<!-- Any -->
<g id="node3" class="node"><title>Any</title>
<g id="a_node3"><a xlink:href="/type/Any" xlink:title="Any">
<ellipse fill="none" stroke="#000000" cx="113.09" cy="-306" rx="27" ry="18"/>
<text text-anchor="middle" x="113.09" y="-302.3" font-family="FreeSans" font-size="14.00" fill="#000000">Any</text>
</a>
</g>
</g>
<!-- Any&#45;&gt;Mu -->
<g id="edge2" class="edge"><title>Any&#45;&gt;Mu</title>
<path fill="none" stroke="#000000" d="M113.09,-324.303C113.09,-332.017 113.09,-341.288 113.09,-349.888"/>
<polygon fill="#000000" stroke="#000000" points="109.59,-349.896 113.09,-359.896 116.59,-349.896 109.59,-349.896"/>
</g>
<!-- Exception&#45;&gt;Any -->
<g id="edge3" class="edge"><title>Exception&#45;&gt;Any</title>
<path fill="none" stroke="#000000" d="M113.09,-252.303C113.09,-260.017 113.09,-269.288 113.09,-277.888"/>
<polygon fill="#000000" stroke="#000000" points="109.59,-277.896 113.09,-287.896 116.59,-277.896 109.59,-277.896"/>
</g>
<!-- X::Comp -->
<g id="node5" class="node"><title>X::Comp</title>
<g id="a_node5"><a xlink:href="/type/X::Comp" xlink:title="X::Comp">
<ellipse fill="none" stroke="#6666ff" cx="186.09" cy="-162" rx="44.6926" ry="18"/>
<text text-anchor="middle" x="186.09" y="-158.3" font-family="FreeSans" font-size="14.00" fill="#6666ff">X::Comp</text>
</a>
</g>
</g>
<!-- X::Comp&#45;&gt;Exception -->
<g id="edge4" class="edge"><title>X::Comp&#45;&gt;Exception</title>
<path fill="none" stroke="#000000" d="M169.525,-178.884C159.979,-188.038 147.809,-199.707 137.216,-209.865"/>
<polygon fill="#000000" stroke="#000000" points="134.637,-207.489 129.842,-216.936 139.482,-212.541 134.637,-207.489"/>
</g>
<!-- X::Syntax&#45;&gt;Exception -->
<g id="edge5" class="edge"><title>X::Syntax&#45;&gt;Exception</title>
<path fill="none" stroke="#000000" d="M144.974,-108.061C139.419,-123.555 132.09,-144 132.09,-144 132.09,-144 124.44,-179.833 118.849,-206.025"/>
<polygon fill="#000000" stroke="#000000" points="115.418,-205.33 116.753,-215.84 122.264,-206.791 115.418,-205.33"/>
</g>
<!-- X::Syntax&#45;&gt;X::Comp -->
<g id="edge7" class="edge"><title>X::Syntax&#45;&gt;X::Comp</title>
<path fill="none" stroke="#6666ff" d="M159.562,-107.945C163.647,-116.113 168.634,-126.088 173.178,-135.176"/>
<polygon fill="#6666ff" stroke="#6666ff" points="170.093,-136.832 177.695,-144.211 176.354,-133.701 170.093,-136.832"/>
</g>
</g>
</svg>
