<?xml version="1.0" encoding="UTF-8" standalone="no"?>
<!DOCTYPE svg PUBLIC "-//W3C//DTD SVG 1.1//EN"
 "http://www.w3.org/Graphics/SVG/1.1/DTD/svg11.dtd">
<!-- Generated by graphviz version 2.38.0 (20140413.2041)
 -->
<!-- Title: perl6&#45;type&#45;graph Pages: 1 -->
<svg width="246pt" height="332pt"
 viewBox="0.00 0.00 245.84 332.00" xmlns="http://www.w3.org/2000/svg" xmlns:xlink="http://www.w3.org/1999/xlink">
<g id="graph0" class="graph" transform="scale(1 1) rotate(0) translate(4 328)">
<title>perl6&#45;type&#45;graph</title>
<polygon fill="white" stroke="none" points="-4,4 -4,-328 241.84,-328 241.84,4 -4,4"/>
<!-- IO::Handle -->
<g id="node1" class="node"><title>IO::Handle</title>
<g id="a_node1"><a xlink:href="/type/IO::Handle" xlink:title="IO::Handle">
<ellipse fill="none" stroke="#000000" cx="130.944" cy="-162" rx="53.0913" ry="18"/>
<text text-anchor="middle" x="130.944" y="-158.3" font-family="FreeSans" font-size="14.00" fill="#000000">IO::Handle</text>
</a>
</g>
</g>
<!-- Any -->
<g id="node3" class="node"><title>Any</title>
<g id="a_node3"><a xlink:href="/type/Any" xlink:title="Any">
<ellipse fill="none" stroke="#000000" cx="130.944" cy="-234" rx="27" ry="18"/>
<text text-anchor="middle" x="130.944" y="-230.3" font-family="FreeSans" font-size="14.00" fill="#000000">Any</text>
</a>
</g>
</g>
<!-- IO::Handle&#45;&gt;Any -->
<g id="edge1" class="edge"><title>IO::Handle&#45;&gt;Any</title>
<path fill="none" stroke="#000000" d="M130.944,-180.303C130.944,-188.017 130.944,-197.288 130.944,-205.888"/>
<polygon fill="#000000" stroke="#000000" points="127.444,-205.896 130.944,-215.896 134.444,-205.896 127.444,-205.896"/>
</g>
<!-- Mu -->
<g id="node2" class="node"><title>Mu</title>
<g id="a_node2"><a xlink:href="/type/Mu" xlink:title="Mu">
<ellipse fill="none" stroke="#000000" cx="130.944" cy="-306" rx="27" ry="18"/>
<text text-anchor="middle" x="130.944" y="-302.3" font-family="FreeSans" font-size="14.00" fill="#000000">Mu</text>
</a>
</g>
</g>
<!-- Any&#45;&gt;Mu -->
<g id="edge2" class="edge"><title>Any&#45;&gt;Mu</title>
<path fill="none" stroke="#000000" d="M130.944,-252.303C130.944,-260.017 130.944,-269.288 130.944,-277.888"/>
<polygon fill="#000000" stroke="#000000" points="127.444,-277.896 130.944,-287.896 134.444,-277.896 127.444,-277.896"/>
</g>
<!-- IO::CatHandle -->
<g id="node4" class="node"><title>IO::CatHandle</title>
<g id="a_node4"><a xlink:href="/type/IO::CatHandle" xlink:title="IO::CatHandle">
<ellipse fill="none" stroke="#000000" cx="66.9441" cy="-90" rx="66.8882" ry="18"/>
<text text-anchor="middle" x="66.9441" y="-86.3" font-family="FreeSans" font-size="14.00" fill="#000000">IO::CatHandle</text>
</a>
</g>
</g>
<!-- IO::CatHandle&#45;&gt;IO::Handle -->
<g id="edge3" class="edge"><title>IO::CatHandle&#45;&gt;IO::Handle</title>
<path fill="none" stroke="#000000" d="M82.1112,-107.589C90.1613,-116.394 100.198,-127.372 109.075,-137.081"/>
<polygon fill="#000000" stroke="#000000" points="106.555,-139.511 115.886,-144.53 111.721,-134.788 106.555,-139.511"/>
</g>
<!-- IO::Pipe -->
<g id="node5" class="node"><title>IO::Pipe</title>
<g id="a_node5"><a xlink:href="/type/IO::Pipe" xlink:title="IO::Pipe">
<ellipse fill="none" stroke="#000000" cx="194.944" cy="-90" rx="42.7926" ry="18"/>
<text text-anchor="middle" x="194.944" y="-86.3" font-family="FreeSans" font-size="14.00" fill="#000000">IO::Pipe</text>
</a>
</g>
</g>
<!-- IO::Pipe&#45;&gt;IO::Handle -->
<g id="edge4" class="edge"><title>IO::Pipe&#45;&gt;IO::Handle</title>
<path fill="none" stroke="#000000" d="M180.1,-107.235C172.058,-116.031 161.964,-127.072 153.019,-136.856"/>
<polygon fill="#000000" stroke="#000000" points="150.316,-134.625 146.152,-144.367 155.483,-139.348 150.316,-134.625"/>
</g>
<!-- IO::ArgFiles -->
<g id="node6" class="node"><title>IO::ArgFiles</title>
<g id="a_node6"><a xlink:href="/type/IO::ArgFiles" xlink:title="IO::ArgFiles">
<ellipse fill="none" stroke="#000000" cx="66.9441" cy="-18" rx="57.6901" ry="18"/>
<text text-anchor="middle" x="66.9441" y="-14.3" font-family="FreeSans" font-size="14.00" fill="#000000">IO::ArgFiles</text>
</a>
</g>
</g>
<!-- IO::ArgFiles&#45;&gt;IO::CatHandle -->
<g id="edge5" class="edge"><title>IO::ArgFiles&#45;&gt;IO::CatHandle</title>
<path fill="none" stroke="#000000" d="M66.9441,-36.3034C66.9441,-44.0173 66.9441,-53.2875 66.9441,-61.8876"/>
<polygon fill="#000000" stroke="#000000" points="63.4442,-61.8956 66.9441,-71.8957 70.4442,-61.8957 63.4442,-61.8956"/>
</g>
</g>
</svg>
