<?xml version="1.0" encoding="UTF-8" standalone="no"?>
<!DOCTYPE svg PUBLIC "-//W3C//DTD SVG 1.1//EN"
 "http://www.w3.org/Graphics/SVG/1.1/DTD/svg11.dtd">
<!-- Generated by graphviz version 2.38.0 (20140413.2041)
 -->
<!-- Title: perl6&#45;type&#45;graph Pages: 1 -->
<svg width="1509pt" height="332pt"
 viewBox="0.00 0.00 1508.84 332.00" xmlns="http://www.w3.org/2000/svg" xmlns:xlink="http://www.w3.org/1999/xlink">
<g id="graph0" class="graph" transform="scale(1 1) rotate(0) translate(4 328)">
<title>perl6&#45;type&#45;graph</title>
<polygon fill="white" stroke="none" points="-4,4 -4,-328 1504.84,-328 1504.84,4 -4,4"/>
<!-- Cool -->
<g id="node1" class="node"><title>Cool</title>
<g id="a_node1"><a xlink:href="/type/Cool" xlink:title="Cool">
<ellipse fill="none" stroke="#000000" cx="705.496" cy="-162" rx="28.6953" ry="18"/>
<text text-anchor="middle" x="705.496" y="-158.3" font-family="FreeSans" font-size="14.00" fill="#000000">Cool</text>
</a>
</g>
</g>
<!-- Any -->
<g id="node3" class="node"><title>Any</title>
<g id="a_node3"><a xlink:href="/type/Any" xlink:title="Any">
<ellipse fill="none" stroke="#000000" cx="653.496" cy="-234" rx="27" ry="18"/>
<text text-anchor="middle" x="653.496" y="-230.3" font-family="FreeSans" font-size="14.00" fill="#000000">Any</text>
</a>
</g>
</g>
<!-- Cool&#45;&gt;Any -->
<g id="edge1" class="edge"><title>Cool&#45;&gt;Any</title>
<path fill="none" stroke="#000000" d="M693.955,-178.535C687.223,-187.598 678.594,-199.214 671.036,-209.388"/>
<polygon fill="#000000" stroke="#000000" points="668.158,-207.394 665.004,-217.508 673.777,-211.568 668.158,-207.394"/>
</g>
<!-- Mu -->
<g id="node2" class="node"><title>Mu</title>
<g id="a_node2"><a xlink:href="/type/Mu" xlink:title="Mu">
<ellipse fill="none" stroke="#000000" cx="653.496" cy="-306" rx="27" ry="18"/>
<text text-anchor="middle" x="653.496" y="-302.3" font-family="FreeSans" font-size="14.00" fill="#000000">Mu</text>
</a>
</g>
</g>
<!-- Any&#45;&gt;Mu -->
<g id="edge2" class="edge"><title>Any&#45;&gt;Mu</title>
<path fill="none" stroke="#000000" d="M653.496,-252.303C653.496,-260.017 653.496,-269.288 653.496,-277.888"/>
<polygon fill="#000000" stroke="#000000" points="649.996,-277.896 653.496,-287.896 656.996,-277.896 649.996,-277.896"/>
</g>
<!-- Numeric -->
<g id="node4" class="node"><title>Numeric</title>
<g id="a_node4"><a xlink:href="/type/Numeric" xlink:title="Numeric">
<ellipse fill="none" stroke="#6666ff" cx="273.496" cy="-234" rx="44.393" ry="18"/>
<text text-anchor="middle" x="273.496" y="-230.3" font-family="FreeSans" font-size="14.00" fill="#6666ff">Numeric</text>
</a>
</g>
</g>
<!-- Real -->
<g id="node5" class="node"><title>Real</title>
<g id="a_node5"><a xlink:href="/type/Real" xlink:title="Real">
<ellipse fill="none" stroke="#6666ff" cx="301.496" cy="-162" rx="28.6953" ry="18"/>
<text text-anchor="middle" x="301.496" y="-158.3" font-family="FreeSans" font-size="14.00" fill="#6666ff">Real</text>
</a>
</g>
</g>
<!-- Real&#45;&gt;Numeric -->
<g id="edge20" class="edge"><title>Real&#45;&gt;Numeric</title>
<path fill="none" stroke="#6666ff" d="M294.86,-179.589C291.63,-187.665 287.668,-197.569 284.038,-206.645"/>
<polygon fill="#6666ff" stroke="#6666ff" points="280.743,-205.459 280.278,-216.044 287.242,-208.059 280.743,-205.459"/>
</g>
<!-- Int -->
<g id="node6" class="node"><title>Int</title>
<g id="a_node6"><a xlink:href="/type/Int" xlink:title="Int">
<ellipse fill="none" stroke="#000000" cx="345.496" cy="-90" rx="27" ry="18"/>
<text text-anchor="middle" x="345.496" y="-86.3" font-family="FreeSans" font-size="14.00" fill="#000000">Int</text>
</a>
</g>
</g>
<!-- Int&#45;&gt;Cool -->
<g id="edge3" class="edge"><title>Int&#45;&gt;Cool</title>
<path fill="none" stroke="#000000" d="M366.853,-101.085C374.605,-104.746 381.496,-108 381.496,-108 381.496,-108 653.496,-144 653.496,-144 653.496,-144 661.435,-146.596 671.11,-149.758"/>
<polygon fill="#000000" stroke="#000000" points="670.122,-153.118 680.714,-152.898 672.297,-146.464 670.122,-153.118"/>
</g>
<!-- Int&#45;&gt;Real -->
<g id="edge21" class="edge"><title>Int&#45;&gt;Real</title>
<path fill="none" stroke="#6666ff" d="M335.512,-106.884C330.076,-115.531 323.229,-126.425 317.105,-136.167"/>
<polygon fill="#6666ff" stroke="#6666ff" points="314.105,-134.364 311.746,-144.693 320.031,-138.089 314.105,-134.364"/>
</g>
<!-- Iterable -->
<g id="node7" class="node"><title>Iterable</title>
<g id="a_node7"><a xlink:href="/type/Iterable" xlink:title="Iterable">
<ellipse fill="none" stroke="#6666ff" cx="1023.5" cy="-162" rx="40.0939" ry="18"/>
<text text-anchor="middle" x="1023.5" y="-158.3" font-family="FreeSans" font-size="14.00" fill="#6666ff">Iterable</text>
</a>
</g>
</g>
<!-- PositionalBindFailover -->
<g id="node8" class="node"><title>PositionalBindFailover</title>
<g id="a_node8"><a xlink:href="/type/PositionalBindFailover" xlink:title="PositionalBindFailover">
<ellipse fill="none" stroke="#6666ff" cx="1308.5" cy="-162" rx="97.4827" ry="18"/>
<text text-anchor="middle" x="1308.5" y="-158.3" font-family="FreeSans" font-size="14.00" fill="#6666ff">PositionalBindFailover</text>
</a>
</g>
</g>
<!-- Seq -->
<g id="node9" class="node"><title>Seq</title>
<g id="a_node9"><a xlink:href="/type/Seq" xlink:title="Seq">
<ellipse fill="none" stroke="#000000" cx="1167.5" cy="-90" rx="27" ry="18"/>
<text text-anchor="middle" x="1167.5" y="-86.3" font-family="FreeSans" font-size="14.00" fill="#000000">Seq</text>
</a>
</g>
</g>
<!-- Seq&#45;&gt;Cool -->
<g id="edge4" class="edge"><title>Seq&#45;&gt;Cool</title>
<path fill="none" stroke="#000000" d="M1146.14,-101.085C1138.39,-104.746 1131.5,-108 1131.5,-108 1131.5,-108 786.496,-144 786.496,-144 786.496,-144 763.792,-148.765 742.424,-153.25"/>
<polygon fill="#000000" stroke="#000000" points="741.536,-149.86 732.468,-155.339 742.974,-156.711 741.536,-149.86"/>
</g>
<!-- Seq&#45;&gt;Iterable -->
<g id="edge22" class="edge"><title>Seq&#45;&gt;Iterable</title>
<path fill="none" stroke="#6666ff" d="M1146.25,-101.329C1123.29,-112.487 1086.34,-130.453 1058.96,-143.759"/>
<polygon fill="#6666ff" stroke="#6666ff" points="1057.18,-140.733 1049.72,-148.252 1060.24,-147.028 1057.18,-140.733"/>
</g>
<!-- Seq&#45;&gt;PositionalBindFailover -->
<g id="edge23" class="edge"><title>Seq&#45;&gt;PositionalBindFailover</title>
<path fill="none" stroke="#6666ff" d="M1188.61,-101.48C1209.27,-111.738 1241.31,-127.644 1267.07,-140.433"/>
<polygon fill="#6666ff" stroke="#6666ff" points="1265.73,-143.676 1276.24,-144.988 1268.84,-137.406 1265.73,-143.676"/>
</g>
<!-- Positional -->
<g id="node10" class="node"><title>Positional</title>
<g id="a_node10"><a xlink:href="/type/Positional" xlink:title="Positional">
<ellipse fill="none" stroke="#6666ff" cx="916.496" cy="-162" rx="48.9926" ry="18"/>
<text text-anchor="middle" x="916.496" y="-158.3" font-family="FreeSans" font-size="14.00" fill="#6666ff">Positional</text>
</a>
</g>
</g>
<!-- List -->
<g id="node11" class="node"><title>List</title>
<g id="a_node11"><a xlink:href="/type/List" xlink:title="List">
<ellipse fill="none" stroke="#000000" cx="929.496" cy="-90" rx="27" ry="18"/>
<text text-anchor="middle" x="929.496" y="-86.3" font-family="FreeSans" font-size="14.00" fill="#000000">List</text>
</a>
</g>
</g>
<!-- List&#45;&gt;Cool -->
<g id="edge5" class="edge"><title>List&#45;&gt;Cool</title>
<path fill="none" stroke="#000000" d="M908.139,-101.085C900.387,-104.746 893.496,-108 893.496,-108 893.496,-108 795.331,-135.674 740.869,-151.028"/>
<polygon fill="#000000" stroke="#000000" points="739.918,-147.66 731.242,-153.742 741.817,-154.397 739.918,-147.66"/>
</g>
<!-- List&#45;&gt;Iterable -->
<g id="edge25" class="edge"><title>List&#45;&gt;Iterable</title>
<path fill="none" stroke="#6666ff" d="M947.177,-104.166C960.728,-114.258 979.694,-128.382 995.329,-140.025"/>
<polygon fill="#6666ff" stroke="#6666ff" points="993.506,-143.031 1003.62,-146.196 997.687,-137.416 993.506,-143.031"/>
</g>
<!-- List&#45;&gt;Positional -->
<g id="edge24" class="edge"><title>List&#45;&gt;Positional</title>
<path fill="none" stroke="#6666ff" d="M926.349,-107.945C924.917,-115.654 923.187,-124.973 921.578,-133.636"/>
<polygon fill="#6666ff" stroke="#6666ff" points="918.089,-133.254 919.704,-143.725 924.971,-134.532 918.089,-133.254"/>
</g>
<!-- Nil -->
<g id="node12" class="node"><title>Nil</title>
<g id="a_node12"><a xlink:href="/type/Nil" xlink:title="Nil">
<ellipse fill="none" stroke="#000000" cx="713.496" cy="-90" rx="27" ry="18"/>
<text text-anchor="middle" x="713.496" y="-86.3" font-family="FreeSans" font-size="14.00" fill="#000000">Nil</text>
</a>
</g>
</g>
<!-- Nil&#45;&gt;Cool -->
<g id="edge6" class="edge"><title>Nil&#45;&gt;Cool</title>
<path fill="none" stroke="#000000" d="M711.518,-108.303C710.637,-116.017 709.577,-125.288 708.595,-133.888"/>
<polygon fill="#000000" stroke="#000000" points="705.109,-133.563 707.451,-143.896 712.064,-134.358 705.109,-133.563"/>
</g>
<!-- Instant -->
<g id="node13" class="node"><title>Instant</title>
<g id="a_node13"><a xlink:href="/type/Instant" xlink:title="Instant">
<ellipse fill="none" stroke="#000000" cx="427.496" cy="-90" rx="37.0935" ry="18"/>
<text text-anchor="middle" x="427.496" y="-86.3" font-family="FreeSans" font-size="14.00" fill="#000000">Instant</text>
</a>
</g>
</g>
<!-- Instant&#45;&gt;Cool -->
<g id="edge7" class="edge"><title>Instant&#45;&gt;Cool</title>
<path fill="none" stroke="#000000" d="M456.105,-101.573C465.46,-105.03 473.496,-108 473.496,-108 473.496,-108 653.496,-144 653.496,-144 653.496,-144 661.435,-146.596 671.11,-149.758"/>
<polygon fill="#000000" stroke="#000000" points="670.122,-153.118 680.714,-152.898 672.297,-146.464 670.122,-153.118"/>
</g>
<!-- Instant&#45;&gt;Real -->
<g id="edge26" class="edge"><title>Instant&#45;&gt;Real</title>
<path fill="none" stroke="#6666ff" d="M404.092,-104.002C383.542,-115.419 353.539,-132.087 331.282,-144.452"/>
<polygon fill="#6666ff" stroke="#6666ff" points="329.31,-141.544 322.268,-149.46 332.709,-147.663 329.31,-141.544"/>
</g>
<!-- Complex -->
<g id="node14" class="node"><title>Complex</title>
<g id="a_node14"><a xlink:href="/type/Complex" xlink:title="Complex">
<ellipse fill="none" stroke="#000000" cx="45.496" cy="-90" rx="45.4919" ry="18"/>
<text text-anchor="middle" x="45.496" y="-86.3" font-family="FreeSans" font-size="14.00" fill="#000000">Complex</text>
</a>
</g>
</g>
<!-- Complex&#45;&gt;Cool -->
<g id="edge8" class="edge"><title>Complex&#45;&gt;Cool</title>
<path fill="none" stroke="#000000" d="M80.0007,-101.863C90.5839,-105.194 99.496,-108 99.496,-108 99.496,-108 653.496,-144 653.496,-144 653.496,-144 661.435,-146.596 671.11,-149.758"/>
<polygon fill="#000000" stroke="#000000" points="670.122,-153.118 680.714,-152.898 672.297,-146.464 670.122,-153.118"/>
</g>
<!-- Complex&#45;&gt;Numeric -->
<g id="edge27" class="edge"><title>Complex&#45;&gt;Numeric</title>
<path fill="none" stroke="#6666ff" d="M69.0372,-105.662C110.21,-131.304 195.319,-184.311 241.689,-213.191"/>
<polygon fill="#6666ff" stroke="#6666ff" points="240.084,-216.314 250.422,-218.63 243.784,-210.372 240.084,-216.314"/>
</g>
<!-- Rational -->
<g id="node15" class="node"><title>Rational</title>
<g id="a_node15"><a xlink:href="/type/Rational" xlink:title="Rational">
<ellipse fill="none" stroke="#6666ff" cx="151.496" cy="-90" rx="42.7926" ry="18"/>
<text text-anchor="middle" x="151.496" y="-86.3" font-family="FreeSans" font-size="14.00" fill="#6666ff">Rational</text>
</a>
</g>
</g>
<!-- Rational&#45;&gt;Real -->
<g id="edge28" class="edge"><title>Rational&#45;&gt;Real</title>
<path fill="none" stroke="#6666ff" d="M179.008,-103.839C204.619,-115.791 242.781,-133.6 269.689,-146.157"/>
<polygon fill="#6666ff" stroke="#6666ff" points="268.508,-149.468 279.05,-150.525 271.468,-143.124 268.508,-149.468"/>
</g>
<!-- Rat -->
<g id="node16" class="node"><title>Rat</title>
<g id="a_node16"><a xlink:href="/type/Rat" xlink:title="Rat">
<ellipse fill="none" stroke="#000000" cx="634.496" cy="-18" rx="27" ry="18"/>
<text text-anchor="middle" x="634.496" y="-14.3" font-family="FreeSans" font-size="14.00" fill="#000000">Rat</text>
</a>
</g>
</g>
<!-- Rat&#45;&gt;Cool -->
<g id="edge9" class="edge"><title>Rat&#45;&gt;Cool</title>
<path fill="none" stroke="#000000" d="M656.127,-28.9689C689.439,-44.3217 749.496,-72 749.496,-72 749.496,-72 749.496,-108 749.496,-108 749.496,-108 736.483,-123.674 724.611,-137.975"/>
<polygon fill="#000000" stroke="#000000" points="721.917,-135.74 718.223,-145.67 727.303,-140.212 721.917,-135.74"/>
</g>
<!-- Rat&#45;&gt;Rational -->
<g id="edge29" class="edge"><title>Rat&#45;&gt;Rational</title>
<path fill="none" stroke="#6666ff" d="M608.184,-22.2356C514.607,-33.7427 203.496,-72 203.496,-72 203.496,-72 199.729,-73.2316 194.222,-75.0319"/>
<polygon fill="#6666ff" stroke="#6666ff" points="192.846,-71.7995 184.428,-78.2336 195.021,-78.4529 192.846,-71.7995"/>
</g>
<!-- Capture -->
<g id="node17" class="node"><title>Capture</title>
<g id="a_node17"><a xlink:href="/type/Capture" xlink:title="Capture">
<ellipse fill="none" stroke="#000000" cx="602.496" cy="-162" rx="42.4939" ry="18"/>
<text text-anchor="middle" x="602.496" y="-158.3" font-family="FreeSans" font-size="14.00" fill="#000000">Capture</text>
</a>
</g>
</g>
<!-- Capture&#45;&gt;Any -->
<g id="edge10" class="edge"><title>Capture&#45;&gt;Any</title>
<path fill="none" stroke="#000000" d="M614.582,-179.589C621.052,-188.47 629.133,-199.561 636.252,-209.332"/>
<polygon fill="#000000" stroke="#000000" points="633.478,-211.468 642.195,-217.489 639.135,-207.346 633.478,-211.468"/>
</g>
<!-- Match -->
<g id="node18" class="node"><title>Match</title>
<g id="a_node18"><a xlink:href="/type/Match" xlink:title="Match">
<ellipse fill="none" stroke="#000000" cx="595.496" cy="-90" rx="35.194" ry="18"/>
<text text-anchor="middle" x="595.496" y="-86.3" font-family="FreeSans" font-size="14.00" fill="#000000">Match</text>
</a>
</g>
</g>
<!-- Match&#45;&gt;Cool -->
<g id="edge12" class="edge"><title>Match&#45;&gt;Cool</title>
<path fill="none" stroke="#000000" d="M616.705,-104.497C634.059,-115.54 658.742,-131.248 677.68,-143.299"/>
<polygon fill="#000000" stroke="#000000" points="675.878,-146.301 686.194,-148.717 679.636,-140.395 675.878,-146.301"/>
</g>
<!-- Match&#45;&gt;Capture -->
<g id="edge11" class="edge"><title>Match&#45;&gt;Capture</title>
<path fill="none" stroke="#000000" d="M597.226,-108.303C597.998,-116.017 598.925,-125.288 599.785,-133.888"/>
<polygon fill="#000000" stroke="#000000" points="596.308,-134.294 600.786,-143.896 603.273,-133.597 596.308,-134.294"/>
</g>
<!-- Range -->
<g id="node19" class="node"><title>Range</title>
<g id="a_node19"><a xlink:href="/type/Range" xlink:title="Range">
<ellipse fill="none" stroke="#000000" cx="1010.5" cy="-90" rx="36.2938" ry="18"/>
<text text-anchor="middle" x="1010.5" y="-86.3" font-family="FreeSans" font-size="14.00" fill="#000000">Range</text>
</a>
</g>
</g>
<!-- Range&#45;&gt;Cool -->
<g id="edge13" class="edge"><title>Range&#45;&gt;Cool</title>
<path fill="none" stroke="#000000" d="M982.509,-101.573C973.357,-105.03 965.496,-108 965.496,-108 965.496,-108 786.496,-144 786.496,-144 786.496,-144 763.792,-148.765 742.424,-153.25"/>
<polygon fill="#000000" stroke="#000000" points="741.536,-149.86 732.468,-155.339 742.974,-156.711 741.536,-149.86"/>
</g>
<!-- Range&#45;&gt;Iterable -->
<g id="edge31" class="edge"><title>Range&#45;&gt;Iterable</title>
<path fill="none" stroke="#6666ff" d="M1013.64,-107.945C1015.07,-115.654 1016.81,-124.973 1018.41,-133.636"/>
<polygon fill="#6666ff" stroke="#6666ff" points="1015.02,-134.532 1020.29,-143.725 1021.9,-133.254 1015.02,-134.532"/>
</g>
<!-- Range&#45;&gt;Positional -->
<g id="edge30" class="edge"><title>Range&#45;&gt;Positional</title>
<path fill="none" stroke="#6666ff" d="M991.019,-105.504C977.893,-115.279 960.344,-128.347 945.573,-139.347"/>
<polygon fill="#6666ff" stroke="#6666ff" points="943.182,-136.764 937.252,-145.543 947.363,-142.378 943.182,-136.764"/>
</g>
<!-- Num -->
<g id="node20" class="node"><title>Num</title>
<g id="a_node20"><a xlink:href="/type/Num" xlink:title="Num">
<ellipse fill="none" stroke="#000000" cx="512.496" cy="-90" rx="29.795" ry="18"/>
<text text-anchor="middle" x="512.496" y="-86.3" font-family="FreeSans" font-size="14.00" fill="#000000">Num</text>
</a>
</g>
</g>
<!-- Num&#45;&gt;Cool -->
<g id="edge14" class="edge"><title>Num&#45;&gt;Cool</title>
<path fill="none" stroke="#000000" d="M536.082,-101.281C544.295,-104.861 551.496,-108 551.496,-108 551.496,-108 626.291,-133.741 671.631,-149.345"/>
<polygon fill="#000000" stroke="#000000" points="670.5,-152.657 681.094,-152.602 672.778,-146.038 670.5,-152.657"/>
</g>
<!-- Num&#45;&gt;Real -->
<g id="edge32" class="edge"><title>Num&#45;&gt;Real</title>
<path fill="none" stroke="#6666ff" d="M488.91,-101.281C480.697,-104.861 473.496,-108 473.496,-108 473.496,-108 387.042,-134.64 336.721,-150.146"/>
<polygon fill="#6666ff" stroke="#6666ff" points="335.401,-146.89 326.875,-153.18 337.462,-153.58 335.401,-146.89"/>
</g>
<!-- Duration -->
<g id="node21" class="node"><title>Duration</title>
<g id="a_node21"><a xlink:href="/type/Duration" xlink:title="Duration">
<ellipse fill="none" stroke="#000000" cx="256.496" cy="-90" rx="44.393" ry="18"/>
<text text-anchor="middle" x="256.496" y="-86.3" font-family="FreeSans" font-size="14.00" fill="#000000">Duration</text>
</a>
</g>
</g>
<!-- Duration&#45;&gt;Cool -->
<g id="edge15" class="edge"><title>Duration&#45;&gt;Cool</title>
<path fill="none" stroke="#000000" d="M290.062,-101.766C300.58,-105.14 309.496,-108 309.496,-108 309.496,-108 653.496,-144 653.496,-144 653.496,-144 661.435,-146.596 671.11,-149.758"/>
<polygon fill="#000000" stroke="#000000" points="670.122,-153.118 680.714,-152.898 672.297,-146.464 670.122,-153.118"/>
</g>
<!-- Duration&#45;&gt;Real -->
<g id="edge33" class="edge"><title>Duration&#45;&gt;Real</title>
<path fill="none" stroke="#6666ff" d="M267.16,-107.589C272.675,-116.168 279.516,-126.809 285.637,-136.33"/>
<polygon fill="#6666ff" stroke="#6666ff" points="282.866,-138.493 291.218,-145.012 288.754,-134.707 282.866,-138.493"/>
</g>
<!-- IO -->
<g id="node22" class="node"><title>IO</title>
<g id="a_node22"><a xlink:href="/type/IO" xlink:title="IO">
<ellipse fill="none" stroke="#6666ff" cx="822.496" cy="-162" rx="27" ry="18"/>
<text text-anchor="middle" x="822.496" y="-158.3" font-family="FreeSans" font-size="14.00" fill="#6666ff">IO</text>
</a>
</g>
</g>
<!-- IO::Path -->
<g id="node23" class="node"><title>IO::Path</title>
<g id="a_node23"><a xlink:href="/type/IO::Path" xlink:title="IO::Path">
<ellipse fill="none" stroke="#000000" cx="840.496" cy="-90" rx="43.5923" ry="18"/>
<text text-anchor="middle" x="840.496" y="-86.3" font-family="FreeSans" font-size="14.00" fill="#000000">IO::Path</text>
</a>
</g>
</g>
<!-- IO::Path&#45;&gt;Cool -->
<g id="edge16" class="edge"><title>IO::Path&#45;&gt;Cool</title>
<path fill="none" stroke="#000000" d="M814.467,-104.497C792.01,-116.141 759.554,-132.97 735.907,-145.231"/>
<polygon fill="#000000" stroke="#000000" points="734.265,-142.14 726.999,-149.85 737.488,-148.354 734.265,-142.14"/>
</g>
<!-- IO::Path&#45;&gt;IO -->
<g id="edge34" class="edge"><title>IO::Path&#45;&gt;IO</title>
<path fill="none" stroke="#6666ff" d="M836.139,-107.945C834.105,-115.855 831.635,-125.46 829.359,-134.312"/>
<polygon fill="#6666ff" stroke="#6666ff" points="825.914,-133.654 826.813,-144.211 832.693,-135.398 825.914,-133.654"/>
</g>
<!-- FatRat -->
<g id="node24" class="node"><title>FatRat</title>
<g id="a_node24"><a xlink:href="/type/FatRat" xlink:title="FatRat">
<ellipse fill="none" stroke="#000000" cx="285.496" cy="-18" rx="37.0935" ry="18"/>
<text text-anchor="middle" x="285.496" y="-14.3" font-family="FreeSans" font-size="14.00" fill="#000000">FatRat</text>
</a>
</g>
</g>
<!-- FatRat&#45;&gt;Cool -->
<g id="edge17" class="edge"><title>FatRat&#45;&gt;Cool</title>
<path fill="none" stroke="#000000" d="M320.408,-24.2269C409.716,-37.598 639.496,-72 639.496,-72 639.496,-72 668.478,-111.081 688.031,-137.449"/>
<polygon fill="#000000" stroke="#000000" points="685.232,-139.55 694,-145.497 690.854,-135.38 685.232,-139.55"/>
</g>
<!-- FatRat&#45;&gt;Rational -->
<g id="edge35" class="edge"><title>FatRat&#45;&gt;Rational</title>
<path fill="none" stroke="#6666ff" d="M261.23,-31.6765C240.323,-42.5979 209.889,-58.4964 186.372,-70.7814"/>
<polygon fill="#6666ff" stroke="#6666ff" points="184.654,-67.73 177.411,-75.4625 187.895,-73.9345 184.654,-67.73"/>
</g>
<!-- Stringy -->
<g id="node25" class="node"><title>Stringy</title>
<g id="a_node25"><a xlink:href="/type/Stringy" xlink:title="Stringy">
<ellipse fill="none" stroke="#6666ff" cx="1462.5" cy="-162" rx="38.1938" ry="18"/>
<text text-anchor="middle" x="1462.5" y="-158.3" font-family="FreeSans" font-size="14.00" fill="#6666ff">Stringy</text>
</a>
</g>
</g>
<!-- Str -->
<g id="node26" class="node"><title>Str</title>
<g id="a_node26"><a xlink:href="/type/Str" xlink:title="Str">
<ellipse fill="none" stroke="#000000" cx="1344.5" cy="-90" rx="27" ry="18"/>
<text text-anchor="middle" x="1344.5" y="-86.3" font-family="FreeSans" font-size="14.00" fill="#000000">Str</text>
</a>
</g>
</g>
<!-- Str&#45;&gt;Cool -->
<g id="edge18" class="edge"><title>Str&#45;&gt;Cool</title>
<path fill="none" stroke="#000000" d="M1317.97,-94.1976C1277.13,-99.1221 1203.5,-108 1203.5,-108 1203.5,-108 786.496,-144 786.496,-144 786.496,-144 763.792,-148.765 742.424,-153.25"/>
<polygon fill="#000000" stroke="#000000" points="741.536,-149.86 732.468,-155.339 742.974,-156.711 741.536,-149.86"/>
</g>
<!-- Str&#45;&gt;Stringy -->
<g id="edge36" class="edge"><title>Str&#45;&gt;Stringy</title>
<path fill="none" stroke="#6666ff" d="M1363.98,-102.559C1382.2,-113.364 1409.71,-129.685 1431.03,-142.336"/>
<polygon fill="#6666ff" stroke="#6666ff" points="1429.36,-145.414 1439.75,-147.506 1432.93,-139.394 1429.36,-145.414"/>
</g>
<!-- Associative -->
<g id="node27" class="node"><title>Associative</title>
<g id="a_node27"><a xlink:href="/type/Associative" xlink:title="Associative">
<ellipse fill="none" stroke="#6666ff" cx="1137.5" cy="-162" rx="55.4913" ry="18"/>
<text text-anchor="middle" x="1137.5" y="-158.3" font-family="FreeSans" font-size="14.00" fill="#6666ff">Associative</text>
</a>
</g>
</g>
<!-- Map -->
<g id="node28" class="node"><title>Map</title>
<g id="a_node28"><a xlink:href="/type/Map" xlink:title="Map">
<ellipse fill="none" stroke="#000000" cx="1093.5" cy="-90" rx="28.6953" ry="18"/>
<text text-anchor="middle" x="1093.5" y="-86.3" font-family="FreeSans" font-size="14.00" fill="#000000">Map</text>
</a>
</g>
</g>
<!-- Map&#45;&gt;Cool -->
<g id="edge19" class="edge"><title>Map&#45;&gt;Cool</title>
<path fill="none" stroke="#000000" d="M1070.95,-101.085C1062.77,-104.746 1055.5,-108 1055.5,-108 1055.5,-108 786.496,-144 786.496,-144 786.496,-144 763.792,-148.765 742.424,-153.25"/>
<polygon fill="#000000" stroke="#000000" points="741.536,-149.86 732.468,-155.339 742.974,-156.711 741.536,-149.86"/>
</g>
<!-- Map&#45;&gt;Iterable -->
<g id="edge37" class="edge"><title>Map&#45;&gt;Iterable</title>
<path fill="none" stroke="#6666ff" d="M1078.65,-105.845C1069.35,-115.146 1057.17,-127.327 1046.62,-137.876"/>
<polygon fill="#6666ff" stroke="#6666ff" points="1043.89,-135.657 1039.29,-145.203 1048.84,-140.607 1043.89,-135.657"/>
</g>
<!-- Map&#45;&gt;Associative -->
<g id="edge38" class="edge"><title>Map&#45;&gt;Associative</title>
<path fill="none" stroke="#6666ff" d="M1103.48,-106.884C1108.78,-115.321 1115.43,-125.896 1121.44,-135.453"/>
<polygon fill="#6666ff" stroke="#6666ff" points="1118.65,-137.599 1126.94,-144.203 1124.58,-133.874 1118.65,-137.599"/>
</g>
</g>
</svg>
