<?xml version="1.0" encoding="UTF-8" standalone="no"?>
<!DOCTYPE svg PUBLIC "-//W3C//DTD SVG 1.1//EN"
 "http://www.w3.org/Graphics/SVG/1.1/DTD/svg11.dtd">
<!-- Generated by graphviz version 2.38.0 (20140413.2041)
 -->
<!-- Title: perl6&#45;type&#45;graph Pages: 1 -->
<svg width="139pt" height="332pt"
 viewBox="0.00 0.00 139.29 332.00" xmlns="http://www.w3.org/2000/svg" xmlns:xlink="http://www.w3.org/1999/xlink">
<g id="graph0" class="graph" transform="scale(1 1) rotate(0) translate(4 328)">
<title>perl6&#45;type&#45;graph</title>
<polygon fill="white" stroke="none" points="-4,4 -4,-328 135.288,-328 135.288,4 -4,4"/>
<!-- IO::Path::Unix -->
<g id="node1" class="node"><title>IO::Path::Unix</title>
<g id="a_node1"><a xlink:href="/type/IO::Path::Unix" xlink:title="IO::Path::Unix">
<ellipse fill="none" stroke="#000000" cx="65.6442" cy="-18" rx="65.7887" ry="18"/>
<text text-anchor="middle" x="65.6442" y="-14.3" font-family="FreeSans" font-size="14.00" fill="#000000">IO::Path::Unix</text>
</a>
</g>
</g>
<!-- IO::Path -->
<g id="node6" class="node"><title>IO::Path</title>
<g id="a_node6"><a xlink:href="/type/IO::Path" xlink:title="IO::Path">
<ellipse fill="none" stroke="#000000" cx="65.6442" cy="-90" rx="43.5923" ry="18"/>
<text text-anchor="middle" x="65.6442" y="-86.3" font-family="FreeSans" font-size="14.00" fill="#000000">IO::Path</text>
</a>
</g>
</g>
<!-- IO::Path::Unix&#45;&gt;IO::Path -->
<g id="edge1" class="edge"><title>IO::Path::Unix&#45;&gt;IO::Path</title>
<path fill="none" stroke="#000000" d="M65.6442,-36.3034C65.6442,-44.0173 65.6442,-53.2875 65.6442,-61.8876"/>
<polygon fill="#000000" stroke="#000000" points="62.1443,-61.8956 65.6442,-71.8957 69.1443,-61.8957 62.1443,-61.8956"/>
</g>
<!-- Mu -->
<g id="node2" class="node"><title>Mu</title>
<g id="a_node2"><a xlink:href="/type/Mu" xlink:title="Mu">
<ellipse fill="none" stroke="#000000" cx="28.6442" cy="-306" rx="27" ry="18"/>
<text text-anchor="middle" x="28.6442" y="-302.3" font-family="FreeSans" font-size="14.00" fill="#000000">Mu</text>
</a>
</g>
</g>
<!-- Any -->
<g id="node3" class="node"><title>Any</title>
<g id="a_node3"><a xlink:href="/type/Any" xlink:title="Any">
<ellipse fill="none" stroke="#000000" cx="28.6442" cy="-234" rx="27" ry="18"/>
<text text-anchor="middle" x="28.6442" y="-230.3" font-family="FreeSans" font-size="14.00" fill="#000000">Any</text>
</a>
</g>
</g>
<!-- Any&#45;&gt;Mu -->
<g id="edge2" class="edge"><title>Any&#45;&gt;Mu</title>
<path fill="none" stroke="#000000" d="M28.6442,-252.303C28.6442,-260.017 28.6442,-269.288 28.6442,-277.888"/>
<polygon fill="#000000" stroke="#000000" points="25.1443,-277.896 28.6442,-287.896 32.1443,-277.896 25.1443,-277.896"/>
</g>
<!-- Cool -->
<g id="node4" class="node"><title>Cool</title>
<g id="a_node4"><a xlink:href="/type/Cool" xlink:title="Cool">
<ellipse fill="none" stroke="#000000" cx="28.6442" cy="-162" rx="28.6953" ry="18"/>
<text text-anchor="middle" x="28.6442" y="-158.3" font-family="FreeSans" font-size="14.00" fill="#000000">Cool</text>
</a>
</g>
</g>
<!-- Cool&#45;&gt;Any -->
<g id="edge3" class="edge"><title>Cool&#45;&gt;Any</title>
<path fill="none" stroke="#000000" d="M28.6442,-180.303C28.6442,-188.017 28.6442,-197.288 28.6442,-205.888"/>
<polygon fill="#000000" stroke="#000000" points="25.1443,-205.896 28.6442,-215.896 32.1443,-205.896 25.1443,-205.896"/>
</g>
<!-- IO -->
<g id="node5" class="node"><title>IO</title>
<g id="a_node5"><a xlink:href="/type/IO" xlink:title="IO">
<ellipse fill="none" stroke="#6666ff" cx="102.644" cy="-162" rx="27" ry="18"/>
<text text-anchor="middle" x="102.644" y="-158.3" font-family="FreeSans" font-size="14.00" fill="#6666ff">IO</text>
</a>
</g>
</g>
<!-- IO::Path&#45;&gt;Cool -->
<g id="edge4" class="edge"><title>IO::Path&#45;&gt;Cool</title>
<path fill="none" stroke="#000000" d="M56.6875,-107.945C52.3065,-116.233 46.9422,-126.382 42.0826,-135.576"/>
<polygon fill="#000000" stroke="#000000" points="38.8424,-134.216 37.2636,-144.693 45.031,-137.488 38.8424,-134.216"/>
</g>
<!-- IO::Path&#45;&gt;IO -->
<g id="edge5" class="edge"><title>IO::Path&#45;&gt;IO</title>
<path fill="none" stroke="#6666ff" d="M74.6008,-107.945C78.9819,-116.233 84.3462,-126.382 89.2057,-135.576"/>
<polygon fill="#6666ff" stroke="#6666ff" points="86.2573,-137.488 94.0248,-144.693 92.446,-134.216 86.2573,-137.488"/>
</g>
</g>
</svg>
