<?xml version="1.0" encoding="UTF-8" standalone="no"?>
<!DOCTYPE svg PUBLIC "-//W3C//DTD SVG 1.1//EN"
 "http://www.w3.org/Graphics/SVG/1.1/DTD/svg11.dtd">
<!-- Generated by graphviz version 2.38.0 (20140413.2041)
 -->
<!-- Title: perl6&#45;type&#45;graph Pages: 1 -->
<svg width="1885pt" height="1186pt"
 viewBox="0.00 0.00 1885.04 1185.67" xmlns="http://www.w3.org/2000/svg" xmlns:xlink="http://www.w3.org/1999/xlink">
<g id="graph0" class="graph" transform="scale(1 1) rotate(0) translate(978.232 574.611)">
<title>perl6&#45;type&#45;graph</title>
<polygon fill="white" stroke="none" points="-978.232,611.059 -978.232,-574.611 906.805,-574.611 906.805,611.059 -978.232,611.059"/>
<!-- Metamodel::Documenting -->
<g id="node1" class="node"><title>Metamodel::Documenting</title>
<g id="a_node1"><a xlink:href="/type/Metamodel::Documenting" xlink:title="Metamodel::Documenting">
<ellipse fill="none" stroke="#6666ff" cx="-152.068" cy="313.056" rx="111.28" ry="18"/>
<text text-anchor="middle" x="-152.068" y="316.756" font-family="FreeSans" font-size="14.00" fill="#6666ff">Metamodel::Documenting</text>
</a>
</g>
</g>
<!-- Mu -->
<g id="node2" class="node"><title>Mu</title>
<g id="a_node2"><a xlink:href="/type/Mu" xlink:title="Mu">
<ellipse fill="none" stroke="#000000" cx="764.524" cy="210.874" rx="27" ry="18"/>
<text text-anchor="middle" x="764.524" y="214.574" font-family="FreeSans" font-size="14.00" fill="#000000">Mu</text>
</a>
</g>
</g>
<!-- Any -->
<g id="node3" class="node"><title>Any</title>
<g id="a_node3"><a xlink:href="/type/Any" xlink:title="Any">
<ellipse fill="none" stroke="#000000" cx="443.847" cy="227.572" rx="27" ry="18"/>
<text text-anchor="middle" x="443.847" y="231.272" font-family="FreeSans" font-size="14.00" fill="#000000">Any</text>
</a>
</g>
</g>
<!-- Any&#45;&gt;Mu -->
<g id="edge1" class="edge"><title>Any&#45;&gt;Mu</title>
<path fill="none" stroke="#000000" d="M470.912,226.163C528.126,223.184 661.461,216.241 726.916,212.833"/>
<polygon fill="#000000" stroke="#000000" points="727.023,209.322 737.192,212.297 727.387,216.313 727.023,209.322"/>
</g>
<!-- Metamodel::Naming -->
<g id="node4" class="node"><title>Metamodel::Naming</title>
<g id="a_node4"><a xlink:href="/type/Metamodel::Naming" xlink:title="Metamodel::Naming">
<ellipse fill="none" stroke="#6666ff" cx="162.977" cy="308.713" rx="90.1842" ry="18"/>
<text text-anchor="middle" x="162.977" y="312.413" font-family="FreeSans" font-size="14.00" fill="#6666ff">Metamodel::Naming</text>
</a>
</g>
</g>
<!-- Metamodel::Versioning -->
<g id="node5" class="node"><title>Metamodel::Versioning</title>
<g id="a_node5"><a xlink:href="/type/Metamodel::Versioning" xlink:title="Metamodel::Versioning">
<ellipse fill="none" stroke="#6666ff" cx="281.461" cy="42.4487" rx="100.983" ry="18"/>
<text text-anchor="middle" x="281.461" y="46.1487" font-family="FreeSans" font-size="14.00" fill="#6666ff">Metamodel::Versioning</text>
</a>
</g>
</g>
<!-- Metamodel::Stashing -->
<g id="node6" class="node"><title>Metamodel::Stashing</title>
<g id="a_node6"><a xlink:href="/type/Metamodel::Stashing" xlink:title="Metamodel::Stashing">
<ellipse fill="none" stroke="#6666ff" cx="-473.11" cy="269.54" rx="93.6835" ry="18"/>
<text text-anchor="middle" x="-473.11" y="273.24" font-family="FreeSans" font-size="14.00" fill="#6666ff">Metamodel::Stashing</text>
</a>
</g>
</g>
<!-- Metamodel::TypePretense -->
<g id="node7" class="node"><title>Metamodel::TypePretense</title>
<g id="a_node7"><a xlink:href="/type/Metamodel::TypePretense" xlink:title="Metamodel::TypePretense">
<ellipse fill="none" stroke="#6666ff" cx="-792.691" cy="508.279" rx="114.28" ry="18"/>
<text text-anchor="middle" x="-792.691" y="511.979" font-family="FreeSans" font-size="14.00" fill="#6666ff">Metamodel::TypePretense</text>
</a>
</g>
</g>
<!-- Metamodel::MethodDelegation -->
<g id="node8" class="node"><title>Metamodel::MethodDelegation</title>
<g id="a_node8"><a xlink:href="/type/Metamodel::MethodDelegation" xlink:title="Metamodel::MethodDelegation">
<ellipse fill="none" stroke="#6666ff" cx="-171.132" cy="589.059" rx="131.077" ry="18"/>
<text text-anchor="middle" x="-171.132" y="592.759" font-family="FreeSans" font-size="14.00" fill="#6666ff">Metamodel::MethodDelegation</text>
</a>
</g>
</g>
<!-- Metamodel::ModuleHOW -->
<g id="node9" class="node"><title>Metamodel::ModuleHOW</title>
<g id="a_node9"><a xlink:href="/type/Metamodel::ModuleHOW" xlink:title="Metamodel::ModuleHOW">
<ellipse fill="none" stroke="#000000" cx="85.1231" cy="583.596" rx="111.28" ry="18"/>
<text text-anchor="middle" x="85.1231" y="587.296" font-family="FreeSans" font-size="14.00" fill="#000000">Metamodel::ModuleHOW</text>
</a>
</g>
</g>
<!-- Metamodel::ModuleHOW&#45;&gt;Metamodel::Documenting -->
<g id="edge9" class="edge"><title>Metamodel::ModuleHOW&#45;&gt;Metamodel::Documenting</title>
<path fill="none" stroke="#6666ff" d="M69.1921,565.425C28.0923,518.547 -81.6313,393.396 -129.363,338.953"/>
<polygon fill="#6666ff" stroke="#6666ff" points="-132.245,340.975 -136.206,331.148 -126.982,336.36 -132.245,340.975"/>
</g>
<!-- Metamodel::ModuleHOW&#45;&gt;Any -->
<g id="edge2" class="edge"><title>Metamodel::ModuleHOW&#45;&gt;Any</title>
<path fill="none" stroke="#000000" d="M103.405,565.451C163.498,505.811 354.852,315.897 421.052,250.196"/>
<polygon fill="#000000" stroke="#000000" points="418.924,247.377 428.487,242.817 423.855,252.345 418.924,247.377"/>
</g>
<!-- Metamodel::ModuleHOW&#45;&gt;Metamodel::Naming -->
<g id="edge8" class="edge"><title>Metamodel::ModuleHOW&#45;&gt;Metamodel::Naming</title>
<path fill="none" stroke="#6666ff" d="M90.2313,565.56C103.511,518.672 139.192,392.69 155.116,336.467"/>
<polygon fill="#6666ff" stroke="#6666ff" points="151.757,335.483 157.85,326.815 158.492,337.391 151.757,335.483"/>
</g>
<!-- Metamodel::ModuleHOW&#45;&gt;Metamodel::Versioning -->
<g id="edge10" class="edge"><title>Metamodel::ModuleHOW&#45;&gt;Metamodel::Versioning</title>
<path fill="none" stroke="#6666ff" d="M96.2638,565.554C134.039,504.377 254.918,308.613 254.918,308.613 254.918,308.613 271.787,139.46 278.629,70.8501"/>
<polygon fill="#6666ff" stroke="#6666ff" points="275.162,70.3465 279.637,60.7432 282.127,71.0412 275.162,70.3465"/>
</g>
<!-- Metamodel::ModuleHOW&#45;&gt;Metamodel::Stashing -->
<g id="edge11" class="edge"><title>Metamodel::ModuleHOW&#45;&gt;Metamodel::Stashing</title>
<path fill="none" stroke="#6666ff" d="M54.3149,566.264C-40.6312,512.848 -328.683,350.794 -434.005,291.541"/>
<polygon fill="#6666ff" stroke="#6666ff" points="-435.74,294.581 -442.739,286.627 -432.307,288.48 -435.74,294.581"/>
</g>
<!-- Metamodel::ModuleHOW&#45;&gt;Metamodel::TypePretense -->
<g id="edge12" class="edge"><title>Metamodel::ModuleHOW&#45;&gt;Metamodel::TypePretense</title>
<path fill="none" stroke="#6666ff" d="M-13.4422,575.139C-178.338,560.991 -509.014,532.619 -681.791,517.794"/>
<polygon fill="#6666ff" stroke="#6666ff" points="-682.262,521.267 -691.926,516.925 -681.663,514.293 -682.262,521.267"/>
</g>
<!-- Metamodel::ModuleHOW&#45;&gt;Metamodel::MethodDelegation -->
<g id="edge13" class="edge"><title>Metamodel::ModuleHOW&#45;&gt;Metamodel::MethodDelegation</title>
<path fill="none" stroke="#6666ff" d="M-25.4114,585.953C-27.2274,585.991 -29.0482,586.03 -30.8723,586.069"/>
<polygon fill="#6666ff" stroke="#6666ff" points="-31.273,589.578 -41.3453,586.292 -31.4222,582.58 -31.273,589.578"/>
</g>
<!-- Metamodel::MethodContainer -->
<g id="node10" class="node"><title>Metamodel::MethodContainer</title>
<g id="a_node10"><a xlink:href="/type/Metamodel::MethodContainer" xlink:title="Metamodel::MethodContainer">
<ellipse fill="none" stroke="#6666ff" cx="744.653" cy="-93.7551" rx="127.277" ry="18"/>
<text text-anchor="middle" x="744.653" y="-90.0551" font-family="FreeSans" font-size="14.00" fill="#6666ff">Metamodel::MethodContainer</text>
</a>
</g>
</g>
<!-- Metamodel::PrivateMethodContainer -->
<g id="node11" class="node"><title>Metamodel::PrivateMethodContainer</title>
<g id="a_node11"><a xlink:href="/type/Metamodel::PrivateMethodContainer" xlink:title="Metamodel::PrivateMethodContainer">
<ellipse fill="none" stroke="#6666ff" cx="-803.617" cy="56.4963" rx="154.873" ry="18"/>
<text text-anchor="middle" x="-803.617" y="60.1963" font-family="FreeSans" font-size="14.00" fill="#6666ff">Metamodel::PrivateMethodContainer</text>
</a>
</g>
</g>
<!-- Metamodel::MultiMethodContainer -->
<g id="node12" class="node"><title>Metamodel::MultiMethodContainer</title>
<g id="a_node12"><a xlink:href="/type/Metamodel::MultiMethodContainer" xlink:title="Metamodel::MultiMethodContainer">
<ellipse fill="none" stroke="#6666ff" cx="-432.613" cy="30.0264" rx="146.474" ry="18"/>
<text text-anchor="middle" x="-432.613" y="33.7264" font-family="FreeSans" font-size="14.00" fill="#6666ff">Metamodel::MultiMethodContainer</text>
</a>
</g>
</g>
<!-- Metamodel::AttributeContainer -->
<g id="node13" class="node"><title>Metamodel::AttributeContainer</title>
<g id="a_node13"><a xlink:href="/type/Metamodel::AttributeContainer" xlink:title="Metamodel::AttributeContainer">
<ellipse fill="none" stroke="#6666ff" cx="438.357" cy="-177.222" rx="129.977" ry="18"/>
<text text-anchor="middle" x="438.357" y="-173.522" font-family="FreeSans" font-size="14.00" fill="#6666ff">Metamodel::AttributeContainer</text>
</a>
</g>
</g>
<!-- Metamodel::RoleContainer -->
<g id="node14" class="node"><title>Metamodel::RoleContainer</title>
<g id="a_node14"><a xlink:href="/type/Metamodel::RoleContainer" xlink:title="Metamodel::RoleContainer">
<ellipse fill="none" stroke="#6666ff" cx="179.335" cy="-177.071" rx="115.88" ry="18"/>
<text text-anchor="middle" x="179.335" y="-173.371" font-family="FreeSans" font-size="14.00" fill="#6666ff">Metamodel::RoleContainer</text>
</a>
</g>
</g>
<!-- Metamodel::MultipleInheritance -->
<g id="node15" class="node"><title>Metamodel::MultipleInheritance</title>
<g id="a_node15"><a xlink:href="/type/Metamodel::MultipleInheritance" xlink:title="Metamodel::MultipleInheritance">
<ellipse fill="none" stroke="#6666ff" cx="-271.627" cy="-193.908" rx="133.776" ry="18"/>
<text text-anchor="middle" x="-271.627" y="-190.208" font-family="FreeSans" font-size="14.00" fill="#6666ff">Metamodel::MultipleInheritance</text>
</a>
</g>
</g>
<!-- Metamodel::RolePunning -->
<g id="node16" class="node"><title>Metamodel::RolePunning</title>
<g id="a_node16"><a xlink:href="/type/Metamodel::RolePunning" xlink:title="Metamodel::RolePunning">
<ellipse fill="none" stroke="#6666ff" cx="732.262" cy="559.058" rx="109.681" ry="18"/>
<text text-anchor="middle" x="732.262" y="562.758" font-family="FreeSans" font-size="14.00" fill="#6666ff">Metamodel::RolePunning</text>
</a>
</g>
</g>
<!-- Metamodel::ParametricRoleHOW -->
<g id="node17" class="node"><title>Metamodel::ParametricRoleHOW</title>
<g id="a_node17"><a xlink:href="/type/Metamodel::ParametricRoleHOW" xlink:title="Metamodel::ParametricRoleHOW">
<ellipse fill="none" stroke="#000000" cx="40.5828" cy="128.331" rx="142.175" ry="18"/>
<text text-anchor="middle" x="40.5828" y="132.031" font-family="FreeSans" font-size="14.00" fill="#000000">Metamodel::ParametricRoleHOW</text>
</a>
</g>
</g>
<!-- Metamodel::ParametricRoleHOW&#45;&gt;Metamodel::Documenting -->
<g id="edge15" class="edge"><title>Metamodel::ParametricRoleHOW&#45;&gt;Metamodel::Documenting</title>
<path fill="none" stroke="#6666ff" d="M21.7599,146.38C-12.8572,179.573 -86.6775,250.356 -126.057,288.116"/>
<polygon fill="#6666ff" stroke="#6666ff" points="-123.811,290.811 -133.452,295.206 -128.656,285.759 -123.811,290.811"/>
</g>
<!-- Metamodel::ParametricRoleHOW&#45;&gt;Any -->
<g id="edge3" class="edge"><title>Metamodel::ParametricRoleHOW&#45;&gt;Any</title>
<path fill="none" stroke="#000000" d="M105.822,144.386C192.119,165.624 341.165,202.303 408.734,218.931"/>
<polygon fill="#000000" stroke="#000000" points="409.602,215.54 418.476,221.329 407.93,222.338 409.602,215.54"/>
</g>
<!-- Metamodel::ParametricRoleHOW&#45;&gt;Metamodel::Naming -->
<g id="edge14" class="edge"><title>Metamodel::ParametricRoleHOW&#45;&gt;Metamodel::Naming</title>
<path fill="none" stroke="#6666ff" d="M52.7659,146.287C74.4852,178.296 119.975,245.338 145.192,282.502"/>
<polygon fill="#6666ff" stroke="#6666ff" points="148.125,280.59 150.843,290.83 142.332,284.521 148.125,280.59"/>
</g>
<!-- Metamodel::ParametricRoleHOW&#45;&gt;Metamodel::Versioning -->
<g id="edge16" class="edge"><title>Metamodel::ParametricRoleHOW&#45;&gt;Metamodel::Versioning</title>
<path fill="none" stroke="#6666ff" d="M88.1727,111.364C127.986,97.1686 184.812,76.9078 226.547,62.0277"/>
<polygon fill="#6666ff" stroke="#6666ff" points="225.415,58.7154 236.01,58.6538 227.766,65.3089 225.415,58.7154"/>
</g>
<!-- Metamodel::ParametricRoleHOW&#45;&gt;Metamodel::Stashing -->
<g id="edge23" class="edge"><title>Metamodel::ParametricRoleHOW&#45;&gt;Metamodel::Stashing</title>
<path fill="none" stroke="#6666ff" d="M-19.0977,144.737C-116.709,171.569 -309.627,224.601 -409.643,252.094"/>
<polygon fill="#6666ff" stroke="#6666ff" points="-408.748,255.478 -419.318,254.753 -410.604,248.728 -408.748,255.478"/>
</g>
<!-- Metamodel::ParametricRoleHOW&#45;&gt;Metamodel::TypePretense -->
<g id="edge24" class="edge"><title>Metamodel::ParametricRoleHOW&#45;&gt;Metamodel::TypePretense</title>
<path fill="none" stroke="#6666ff" d="M2.33894,145.769C-134.012,207.941 -596.153,418.663 -745.63,486.821"/>
<polygon fill="#6666ff" stroke="#6666ff" points="-744.466,490.136 -755.017,491.101 -747.37,483.767 -744.466,490.136"/>
</g>
<!-- Metamodel::ParametricRoleHOW&#45;&gt;Metamodel::MethodContainer -->
<g id="edge17" class="edge"><title>Metamodel::ParametricRoleHOW&#45;&gt;Metamodel::MethodContainer</title>
<path fill="none" stroke="#6666ff" d="M109.358,112.519C201.61,91.3098 353.974,56.2797 353.974,56.2797 353.974,56.2797 584.311,-32.1778 691.26,-73.2502"/>
<polygon fill="#6666ff" stroke="#6666ff" points="690.007,-76.518 700.597,-76.8358 692.517,-69.9833 690.007,-76.518"/>
</g>
<!-- Metamodel::ParametricRoleHOW&#45;&gt;Metamodel::PrivateMethodContainer -->
<g id="edge18" class="edge"><title>Metamodel::ParametricRoleHOW&#45;&gt;Metamodel::PrivateMethodContainer</title>
<path fill="none" stroke="#6666ff" d="M-77.6885,118.267C-233.032,105.049 -505.172,81.8918 -668.477,67.9958"/>
<polygon fill="#6666ff" stroke="#6666ff" points="-668.922,71.4707 -678.589,67.1353 -668.328,64.4959 -668.922,71.4707"/>
</g>
<!-- Metamodel::ParametricRoleHOW&#45;&gt;Metamodel::MultiMethodContainer -->
<g id="edge19" class="edge"><title>Metamodel::ParametricRoleHOW&#45;&gt;Metamodel::MultiMethodContainer</title>
<path fill="none" stroke="#6666ff" d="M-7.74864,111.353C-58.0821,93.6711 -129.667,68.5237 -129.667,68.5237 -129.667,68.5237 -234.091,55.254 -320.322,44.2959"/>
<polygon fill="#6666ff" stroke="#6666ff" points="-320.993,47.739 -330.472,43.0062 -320.11,40.7948 -320.993,47.739"/>
</g>
<!-- Metamodel::ParametricRoleHOW&#45;&gt;Metamodel::AttributeContainer -->
<g id="edge20" class="edge"><title>Metamodel::ParametricRoleHOW&#45;&gt;Metamodel::AttributeContainer</title>
<path fill="none" stroke="#6666ff" d="M63.9804,110.358C131.97,58.1314 329.573,-93.6586 406.853,-153.022"/>
<polygon fill="#6666ff" stroke="#6666ff" points="405.175,-156.146 415.238,-159.463 409.439,-150.595 405.175,-156.146"/>
</g>
<!-- Metamodel::ParametricRoleHOW&#45;&gt;Metamodel::RoleContainer -->
<g id="edge21" class="edge"><title>Metamodel::ParametricRoleHOW&#45;&gt;Metamodel::RoleContainer</title>
<path fill="none" stroke="#6666ff" d="M48.8469,110.142C72.224,58.6875 138.931,-88.139 166.83,-149.546"/>
<polygon fill="#6666ff" stroke="#6666ff" points="163.792,-151.32 171.115,-158.976 170.165,-148.424 163.792,-151.32"/>
</g>
<!-- Metamodel::ParametricRoleHOW&#45;&gt;Metamodel::MultipleInheritance -->
<g id="edge22" class="edge"><title>Metamodel::ParametricRoleHOW&#45;&gt;Metamodel::MultipleInheritance</title>
<path fill="none" stroke="#6666ff" d="M22.9026,110.083C-29.7958,55.6918 -185.91,-105.438 -246.858,-168.344"/>
<polygon fill="#6666ff" stroke="#6666ff" points="-249.695,-166.242 -254.14,-175.86 -244.668,-171.113 -249.695,-166.242"/>
</g>
<!-- Metamodel::ParametricRoleHOW&#45;&gt;Metamodel::RolePunning -->
<g id="edge25" class="edge"><title>Metamodel::ParametricRoleHOW&#45;&gt;Metamodel::RolePunning</title>
<path fill="none" stroke="#6666ff" d="M68.987,146.019C178.357,214.127 572.261,459.421 695.284,536.031"/>
<polygon fill="#6666ff" stroke="#6666ff" points="697.364,533.203 704.003,541.461 693.664,539.145 697.364,533.203"/>
</g>
<!-- Metamodel::Finalization -->
<g id="node18" class="node"><title>Metamodel::Finalization</title>
<g id="a_node18"><a xlink:href="/type/Metamodel::Finalization" xlink:title="Metamodel::Finalization">
<ellipse fill="none" stroke="#6666ff" cx="-227.308" cy="-501.774" rx="103.982" ry="18"/>
<text text-anchor="middle" x="-227.308" y="-498.074" font-family="FreeSans" font-size="14.00" fill="#6666ff">Metamodel::Finalization</text>
</a>
</g>
</g>
<!-- Metamodel::DefaultParent -->
<g id="node19" class="node"><title>Metamodel::DefaultParent</title>
<g id="a_node19"><a xlink:href="/type/Metamodel::DefaultParent" xlink:title="Metamodel::DefaultParent">
<ellipse fill="none" stroke="#6666ff" cx="-481.305" cy="-515.911" rx="113.18" ry="18"/>
<text text-anchor="middle" x="-481.305" y="-512.211" font-family="FreeSans" font-size="14.00" fill="#6666ff">Metamodel::DefaultParent</text>
</a>
</g>
</g>
<!-- Metamodel::C3MRO -->
<g id="node20" class="node"><title>Metamodel::C3MRO</title>
<g id="a_node20"><a xlink:href="/type/Metamodel::C3MRO" xlink:title="Metamodel::C3MRO">
<ellipse fill="none" stroke="#6666ff" cx="-556.672" cy="-187.529" rx="92.0841" ry="18"/>
<text text-anchor="middle" x="-556.672" y="-183.829" font-family="FreeSans" font-size="14.00" fill="#6666ff">Metamodel::C3MRO</text>
</a>
</g>
</g>
<!-- Metamodel::MROBasedMethodDispatch -->
<g id="node21" class="node"><title>Metamodel::MROBasedMethodDispatch</title>
<g id="a_node21"><a xlink:href="/type/Metamodel::MROBasedMethodDispatch" xlink:title="Metamodel::MROBasedMethodDispatch">
<ellipse fill="none" stroke="#6666ff" cx="-36.2427" cy="-276.412" rx="169.77" ry="18"/>
<text text-anchor="middle" x="-36.2427" y="-272.712" font-family="FreeSans" font-size="14.00" fill="#6666ff">Metamodel::MROBasedMethodDispatch</text>
</a>
</g>
</g>
<!-- Metamodel::MROBasedTypeChecking -->
<g id="node22" class="node"><title>Metamodel::MROBasedTypeChecking</title>
<g id="a_node22"><a xlink:href="/type/Metamodel::MROBasedTypeChecking" xlink:title="Metamodel::MROBasedTypeChecking">
<ellipse fill="none" stroke="#6666ff" cx="-811.097" cy="-435.132" rx="163.271" ry="18"/>
<text text-anchor="middle" x="-811.097" y="-431.432" font-family="FreeSans" font-size="14.00" fill="#6666ff">Metamodel::MROBasedTypeChecking</text>
</a>
</g>
</g>
<!-- Metamodel::Trusting -->
<g id="node23" class="node"><title>Metamodel::Trusting</title>
<g id="a_node23"><a xlink:href="/type/Metamodel::Trusting" xlink:title="Metamodel::Trusting">
<ellipse fill="none" stroke="#6666ff" cx="210.827" cy="-465.277" rx="91.784" ry="18"/>
<text text-anchor="middle" x="210.827" y="-461.577" font-family="FreeSans" font-size="14.00" fill="#6666ff">Metamodel::Trusting</text>
</a>
</g>
</g>
<!-- Metamodel::BUILDPLAN -->
<g id="node24" class="node"><title>Metamodel::BUILDPLAN</title>
<g id="a_node24"><a xlink:href="/type/Metamodel::BUILDPLAN" xlink:title="Metamodel::BUILDPLAN">
<ellipse fill="none" stroke="#6666ff" cx="440.819" cy="-519.802" rx="109.681" ry="18"/>
<text text-anchor="middle" x="440.819" y="-516.102" font-family="FreeSans" font-size="14.00" fill="#6666ff">Metamodel::BUILDPLAN</text>
</a>
</g>
</g>
<!-- Metamodel::Mixins -->
<g id="node25" class="node"><title>Metamodel::Mixins</title>
<g id="a_node25"><a xlink:href="/type/Metamodel::Mixins" xlink:title="Metamodel::Mixins">
<ellipse fill="none" stroke="#6666ff" cx="6.72497" cy="-552.611" rx="85.2851" ry="18"/>
<text text-anchor="middle" x="6.72497" y="-548.911" font-family="FreeSans" font-size="14.00" fill="#6666ff">Metamodel::Mixins</text>
</a>
</g>
</g>
<!-- Metamodel::BoolificationProtocol -->
<g id="node26" class="node"><title>Metamodel::BoolificationProtocol</title>
<g id="a_node26"><a xlink:href="/type/Metamodel::BoolificationProtocol" xlink:title="Metamodel::BoolificationProtocol">
<ellipse fill="none" stroke="#6666ff" cx="763.717" cy="-465.39" rx="139.175" ry="18"/>
<text text-anchor="middle" x="763.717" y="-461.69" font-family="FreeSans" font-size="14.00" fill="#6666ff">Metamodel::BoolificationProtocol</text>
</a>
</g>
</g>
<!-- Metamodel::ClassHOW -->
<g id="node27" class="node"><title>Metamodel::ClassHOW</title>
<g id="a_node27"><a xlink:href="/type/Metamodel::ClassHOW" xlink:title="Metamodel::ClassHOW">
<ellipse fill="none" stroke="#000000" cx="-28.5286" cy="-60.0172" rx="103.982" ry="18"/>
<text text-anchor="middle" x="-28.5286" y="-56.3172" font-family="FreeSans" font-size="14.00" fill="#000000">Metamodel::ClassHOW</text>
</a>
</g>
</g>
<!-- Metamodel::ClassHOW&#45;&gt;Metamodel::Documenting -->
<g id="edge27" class="edge"><title>Metamodel::ClassHOW&#45;&gt;Metamodel::Documenting</title>
<path fill="none" stroke="#6666ff" d="M-35.7032,-41.9538C-54.4315,5.19786 -103.354,128.37 -103.354,128.37 -103.354,128.37 -131.096,233.548 -144.709,285.159"/>
<polygon fill="#6666ff" stroke="#6666ff" points="-141.373,286.235 -147.308,295.011 -148.142,284.449 -141.373,286.235"/>
</g>
<!-- Metamodel::ClassHOW&#45;&gt;Any -->
<g id="edge4" class="edge"><title>Metamodel::ClassHOW&#45;&gt;Any</title>
<path fill="none" stroke="#000000" d="M-0.0431561,-42.6748C84.0603,8.52868 330.676,158.672 415.107,210.075"/>
<polygon fill="#000000" stroke="#000000" points="416.953,207.101 423.674,215.291 413.313,213.08 416.953,207.101"/>
</g>
<!-- Metamodel::ClassHOW&#45;&gt;Metamodel::Naming -->
<g id="edge26" class="edge"><title>Metamodel::ClassHOW&#45;&gt;Metamodel::Naming</title>
<path fill="none" stroke="#6666ff" d="M-8.48551,-42.3014C44.55,4.57584 184.52,128.293 184.52,128.293 184.52,128.293 172.421,229.624 166.357,280.406"/>
<polygon fill="#6666ff" stroke="#6666ff" points="169.822,280.906 165.161,290.42 162.872,280.076 169.822,280.906"/>
</g>
<!-- Metamodel::ClassHOW&#45;&gt;Metamodel::Versioning -->
<g id="edge28" class="edge"><title>Metamodel::ClassHOW&#45;&gt;Metamodel::Versioning</title>
<path fill="none" stroke="#6666ff" d="M19.9073,-44.0069C75.0729,-25.7721 165.144,4.00051 223.862,23.4094"/>
<polygon fill="#6666ff" stroke="#6666ff" points="224.969,20.0891 233.365,26.5508 222.772,26.7354 224.969,20.0891"/>
</g>
<!-- Metamodel::ClassHOW&#45;&gt;Metamodel::Stashing -->
<g id="edge29" class="edge"><title>Metamodel::ClassHOW&#45;&gt;Metamodel::Stashing</title>
<path fill="none" stroke="#6666ff" d="M-62.7957,-42.9561C-138.827,-5.10141 -314.97,82.5981 -314.97,82.5981 -314.97,82.5981 -408.132,192.727 -451.446,243.93"/>
<polygon fill="#6666ff" stroke="#6666ff" points="-448.817,246.241 -457.947,251.616 -454.161,241.72 -448.817,246.241"/>
</g>
<!-- Metamodel::ClassHOW&#45;&gt;Metamodel::MethodContainer -->
<g id="edge32" class="edge"><title>Metamodel::ClassHOW&#45;&gt;Metamodel::MethodContainer</title>
<path fill="none" stroke="#6666ff" d="M72.5515,-64.4278C210.901,-70.4647 459.473,-81.3112 612.459,-87.9867"/>
<polygon fill="#6666ff" stroke="#6666ff" points="612.707,-91.5008 622.85,-88.4402 613.012,-84.5075 612.707,-91.5008"/>
</g>
<!-- Metamodel::ClassHOW&#45;&gt;Metamodel::PrivateMethodContainer -->
<g id="edge33" class="edge"><title>Metamodel::ClassHOW&#45;&gt;Metamodel::PrivateMethodContainer</title>
<path fill="none" stroke="#6666ff" d="M-107.225,-48.2306C-250.102,-26.8314 -537.542,16.2192 -537.542,16.2192 -537.542,16.2192 -624.59,29.3962 -699.108,40.6762"/>
<polygon fill="#6666ff" stroke="#6666ff" points="-698.649,44.1465 -709.06,42.1827 -699.696,37.2254 -698.649,44.1465"/>
</g>
<!-- Metamodel::ClassHOW&#45;&gt;Metamodel::MultiMethodContainer -->
<g id="edge34" class="edge"><title>Metamodel::ClassHOW&#45;&gt;Metamodel::MultiMethodContainer</title>
<path fill="none" stroke="#6666ff" d="M-92.557,-45.7495C-162.733,-30.1118 -275.462,-4.99226 -351.706,11.9975"/>
<polygon fill="#6666ff" stroke="#6666ff" points="-351.226,15.4763 -361.747,14.2351 -352.748,8.64385 -351.226,15.4763"/>
</g>
<!-- Metamodel::ClassHOW&#45;&gt;Metamodel::AttributeContainer -->
<g id="edge30" class="edge"><title>Metamodel::ClassHOW&#45;&gt;Metamodel::AttributeContainer</title>
<path fill="none" stroke="#6666ff" d="M30.6027,-74.8612C115.832,-96.2568 273.084,-135.732 365.411,-158.91"/>
<polygon fill="#6666ff" stroke="#6666ff" points="364.687,-162.337 375.239,-161.377 366.392,-155.547 364.687,-162.337"/>
</g>
<!-- Metamodel::ClassHOW&#45;&gt;Metamodel::RoleContainer -->
<g id="edge35" class="edge"><title>Metamodel::ClassHOW&#45;&gt;Metamodel::RoleContainer</title>
<path fill="none" stroke="#6666ff" d="M2.14244,-77.2888C38.4977,-97.7614 99.1864,-131.937 139.236,-154.49"/>
<polygon fill="#6666ff" stroke="#6666ff" points="137.768,-157.68 148.198,-159.537 141.202,-151.58 137.768,-157.68"/>
</g>
<!-- Metamodel::ClassHOW&#45;&gt;Metamodel::MultipleInheritance -->
<g id="edge36" class="edge"><title>Metamodel::ClassHOW&#45;&gt;Metamodel::MultipleInheritance</title>
<path fill="none" stroke="#6666ff" d="M-59.8117,-77.247C-103.423,-101.266 -182.55,-144.847 -230.771,-171.406"/>
<polygon fill="#6666ff" stroke="#6666ff" points="-232.621,-168.429 -239.692,-176.319 -229.244,-174.561 -232.621,-168.429"/>
</g>
<!-- Metamodel::ClassHOW&#45;&gt;Metamodel::Finalization -->
<g id="edge31" class="edge"><title>Metamodel::ClassHOW&#45;&gt;Metamodel::Finalization</title>
<path fill="none" stroke="#6666ff" d="M-43.0417,-78.0917C-72.4154,-114.673 -136.141,-194.037 -136.141,-194.037 -136.141,-194.037 -207.477,-276.36 -207.477,-276.36 -207.477,-276.36 -219.523,-413.283 -224.838,-473.7"/>
<polygon fill="#6666ff" stroke="#6666ff" points="-228.329,-473.44 -225.719,-483.709 -221.356,-474.054 -228.329,-473.44"/>
</g>
<!-- Metamodel::ClassHOW&#45;&gt;Metamodel::DefaultParent -->
<g id="edge37" class="edge"><title>Metamodel::ClassHOW&#45;&gt;Metamodel::DefaultParent</title>
<path fill="none" stroke="#6666ff" d="M-43.0417,-78.0917C-72.4154,-114.673 -136.141,-194.037 -136.141,-194.037 -136.141,-194.037 -373.325,-415.217 -454.464,-490.881"/>
<polygon fill="#6666ff" stroke="#6666ff" points="-457.33,-488.767 -462.256,-498.147 -452.556,-493.887 -457.33,-488.767"/>
</g>
<!-- Metamodel::ClassHOW&#45;&gt;Metamodel::C3MRO -->
<g id="edge38" class="edge"><title>Metamodel::ClassHOW&#45;&gt;Metamodel::C3MRO</title>
<path fill="none" stroke="#6666ff" d="M-89.3711,-74.7067C-188.696,-98.6872 -384.981,-146.077 -488.725,-171.125"/>
<polygon fill="#6666ff" stroke="#6666ff" points="-489.57,-167.728 -498.47,-173.477 -487.928,-174.533 -489.57,-167.728"/>
</g>
<!-- Metamodel::ClassHOW&#45;&gt;Metamodel::MROBasedMethodDispatch -->
<g id="edge39" class="edge"><title>Metamodel::ClassHOW&#45;&gt;Metamodel::MROBasedMethodDispatch</title>
<path fill="none" stroke="#6666ff" d="M-29.173,-78.0947C-30.5173,-115.805 -33.6289,-203.092 -35.2382,-248.236"/>
<polygon fill="#6666ff" stroke="#6666ff" points="-38.7361,-248.116 -35.5946,-258.234 -31.7405,-248.365 -38.7361,-248.116"/>
</g>
<!-- Metamodel::ClassHOW&#45;&gt;Metamodel::MROBasedTypeChecking -->
<g id="edge40" class="edge"><title>Metamodel::ClassHOW&#45;&gt;Metamodel::MROBasedTypeChecking</title>
<path fill="none" stroke="#6666ff" d="M-74.5718,-76.2853C-175.465,-111.933 -407.112,-193.779 -407.112,-193.779 -407.112,-193.779 -671.873,-351.955 -772.72,-412.204"/>
<polygon fill="#6666ff" stroke="#6666ff" points="-774.601,-409.252 -781.391,-417.385 -771.011,-415.261 -774.601,-409.252"/>
</g>
<!-- Metamodel::ClassHOW&#45;&gt;Metamodel::Trusting -->
<g id="edge41" class="edge"><title>Metamodel::ClassHOW&#45;&gt;Metamodel::Trusting</title>
<path fill="none" stroke="#6666ff" d="M-14.8682,-78.0991C24.4322,-130.12 134.992,-276.465 134.992,-276.465 134.992,-276.465 178.752,-385.419 199.789,-437.796"/>
<polygon fill="#6666ff" stroke="#6666ff" points="196.581,-439.198 203.556,-447.173 203.076,-436.589 196.581,-439.198"/>
</g>
<!-- Metamodel::ClassHOW&#45;&gt;Metamodel::BUILDPLAN -->
<g id="edge42" class="edge"><title>Metamodel::ClassHOW&#45;&gt;Metamodel::BUILDPLAN</title>
<path fill="none" stroke="#6666ff" d="M-14.5746,-78.0336C10.8327,-110.838 62.0473,-176.963 62.0473,-176.963 62.0473,-176.963 326.296,-416.143 413.365,-494.952"/>
<polygon fill="#6666ff" stroke="#6666ff" points="411.225,-497.736 420.988,-501.852 415.922,-492.546 411.225,-497.736"/>
</g>
<!-- Metamodel::ClassHOW&#45;&gt;Metamodel::Mixins -->
<g id="edge43" class="edge"><title>Metamodel::ClassHOW&#45;&gt;Metamodel::Mixins</title>
<path fill="none" stroke="#6666ff" d="M-14.8682,-78.0991C24.4322,-130.12 134.992,-276.465 134.992,-276.465 134.992,-276.465 52.0369,-455.059 19.5517,-524.996"/>
<polygon fill="#6666ff" stroke="#6666ff" points="16.1793,-523.948 15.1409,-534.492 22.5279,-526.897 16.1793,-523.948"/>
</g>
<!-- Metamodel::ClassHOW&#45;&gt;Metamodel::BoolificationProtocol -->
<g id="edge44" class="edge"><title>Metamodel::ClassHOW&#45;&gt;Metamodel::BoolificationProtocol</title>
<path fill="none" stroke="#6666ff" d="M17.3007,-76.2669C99.3227,-105.349 262.728,-163.288 262.728,-163.288 262.728,-163.288 296.623,-177.179 296.623,-177.179 296.623,-177.179 615.508,-373.941 726.316,-442.313"/>
<polygon fill="#6666ff" stroke="#6666ff" points="724.502,-445.306 734.851,-447.579 728.178,-439.349 724.502,-445.306"/>
</g>
<!-- Metamodel::NativeHOW -->
<g id="node28" class="node"><title>Metamodel::NativeHOW</title>
<g id="a_node28"><a xlink:href="/type/Metamodel::NativeHOW" xlink:title="Metamodel::NativeHOW">
<ellipse fill="none" stroke="#000000" cx="-206.132" cy="82.472" rx="107.482" ry="18"/>
<text text-anchor="middle" x="-206.132" y="86.172" font-family="FreeSans" font-size="14.00" fill="#000000">Metamodel::NativeHOW</text>
</a>
</g>
</g>
<!-- Metamodel::NativeHOW&#45;&gt;Metamodel::Documenting -->
<g id="edge46" class="edge"><title>Metamodel::NativeHOW&#45;&gt;Metamodel::Documenting</title>
<path fill="none" stroke="#6666ff" d="M-201.89,100.566C-192.494,140.639 -169.874,237.112 -158.634,285.049"/>
<polygon fill="#6666ff" stroke="#6666ff" points="-155.165,284.512 -156.29,295.047 -161.981,286.11 -155.165,284.512"/>
</g>
<!-- Metamodel::NativeHOW&#45;&gt;Any -->
<g id="edge5" class="edge"><title>Metamodel::NativeHOW&#45;&gt;Any</title>
<path fill="none" stroke="#000000" d="M-168.153,99.4322C-138.876,112.507 -103.354,128.37 -103.354,128.37 -103.354,128.37 -60.9972,142.218 -60.9972,142.218 -60.9972,142.218 291.206,201.765 407.255,221.386"/>
<polygon fill="#000000" stroke="#000000" points="408.139,217.985 417.415,223.104 406.972,224.887 408.139,217.985"/>
</g>
<!-- Metamodel::NativeHOW&#45;&gt;Metamodel::Naming -->
<g id="edge45" class="edge"><title>Metamodel::NativeHOW&#45;&gt;Metamodel::Naming</title>
<path fill="none" stroke="#6666ff" d="M-177.782,99.849C-111.732,140.334 52.3675,240.916 126.087,286.102"/>
<polygon fill="#6666ff" stroke="#6666ff" points="128.338,283.376 135.035,291.586 124.68,289.345 128.338,283.376"/>
</g>
<!-- Metamodel::NativeHOW&#45;&gt;Metamodel::Versioning -->
<g id="edge47" class="edge"><title>Metamodel::NativeHOW&#45;&gt;Metamodel::Versioning</title>
<path fill="none" stroke="#6666ff" d="M-109.508,74.5407C-26.0032,67.6864 94.3138,57.8103 179.375,50.8282"/>
<polygon fill="#6666ff" stroke="#6666ff" points="179.316,47.3214 189.569,49.9915 179.889,54.2979 179.316,47.3214"/>
</g>
<!-- Metamodel::NativeHOW&#45;&gt;Metamodel::Stashing -->
<g id="edge48" class="edge"><title>Metamodel::NativeHOW&#45;&gt;Metamodel::Stashing</title>
<path fill="none" stroke="#6666ff" d="M-231.249,100.071C-279.672,134 -385.927,208.452 -440.036,246.365"/>
<polygon fill="#6666ff" stroke="#6666ff" points="-438.057,249.252 -448.255,252.124 -442.074,243.52 -438.057,249.252"/>
</g>
<!-- Metamodel::NativeHOW&#45;&gt;Metamodel::MultipleInheritance -->
<g id="edge49" class="edge"><title>Metamodel::NativeHOW&#45;&gt;Metamodel::MultipleInheritance</title>
<path fill="none" stroke="#6666ff" d="M-210.429,64.3379C-221.578,17.2916 -251.493,-108.948 -264.93,-165.65"/>
<polygon fill="#6666ff" stroke="#6666ff" points="-268.413,-165.17 -267.313,-175.707 -261.602,-166.784 -268.413,-165.17"/>
</g>
<!-- Metamodel::NativeHOW&#45;&gt;Metamodel::C3MRO -->
<g id="edge50" class="edge"><title>Metamodel::NativeHOW&#45;&gt;Metamodel::C3MRO</title>
<path fill="none" stroke="#6666ff" d="M-229.132,64.7564C-290.167,17.7448 -456.291,-110.211 -525.626,-163.616"/>
<polygon fill="#6666ff" stroke="#6666ff" points="-527.801,-160.874 -533.588,-169.749 -523.53,-166.419 -527.801,-160.874"/>
</g>
<!-- Metamodel::NativeHOW&#45;&gt;Metamodel::MROBasedMethodDispatch -->
<g id="edge51" class="edge"><title>Metamodel::NativeHOW&#45;&gt;Metamodel::MROBasedMethodDispatch</title>
<path fill="none" stroke="#6666ff" d="M-197.474,64.1814C-169.64,5.3833 -82.3442,-179.025 -49.1906,-249.061"/>
<polygon fill="#6666ff" stroke="#6666ff" points="-52.3258,-250.618 -44.8836,-258.159 -45.9989,-247.623 -52.3258,-250.618"/>
</g>
<!-- Metamodel::NativeHOW&#45;&gt;Metamodel::MROBasedTypeChecking -->
<g id="edge52" class="edge"><title>Metamodel::NativeHOW&#45;&gt;Metamodel::MROBasedTypeChecking</title>
<path fill="none" stroke="#6666ff" d="M-223.37,64.3297C-280.914,3.76696 -462.782,-187.641 -462.782,-187.641 -462.782,-187.641 -690.746,-349.619 -777.83,-411.495"/>
<polygon fill="#6666ff" stroke="#6666ff" points="-779.922,-408.688 -786.047,-417.333 -775.868,-414.394 -779.922,-408.688"/>
</g>
<!-- Metamodel::PackageHOW -->
<g id="node29" class="node"><title>Metamodel::PackageHOW</title>
<g id="a_node29"><a xlink:href="/type/Metamodel::PackageHOW" xlink:title="Metamodel::PackageHOW">
<ellipse fill="none" stroke="#000000" cx="-447.905" cy="581.892" rx="116.18" ry="18"/>
<text text-anchor="middle" x="-447.905" y="585.592" font-family="FreeSans" font-size="14.00" fill="#000000">Metamodel::PackageHOW</text>
</a>
</g>
</g>
<!-- Metamodel::PackageHOW&#45;&gt;Metamodel::Documenting -->
<g id="edge54" class="edge"><title>Metamodel::PackageHOW&#45;&gt;Metamodel::Documenting</title>
<path fill="none" stroke="#6666ff" d="M-428.035,563.835C-376.457,516.965 -238.23,391.354 -179.295,337.798"/>
<polygon fill="#6666ff" stroke="#6666ff" points="-181.606,335.169 -171.851,331.034 -176.898,340.35 -181.606,335.169"/>
</g>
<!-- Metamodel::PackageHOW&#45;&gt;Any -->
<g id="edge6" class="edge"><title>Metamodel::PackageHOW&#45;&gt;Any</title>
<path fill="none" stroke="#000000" d="M-404.317,565.172C-254.767,507.807 228.32,322.501 228.32,322.501 228.32,322.501 351.731,268.145 411.782,241.696"/>
<polygon fill="#000000" stroke="#000000" points="410.627,238.38 421.189,237.552 413.449,244.786 410.627,238.38"/>
</g>
<!-- Metamodel::PackageHOW&#45;&gt;Metamodel::Naming -->
<g id="edge53" class="edge"><title>Metamodel::PackageHOW&#45;&gt;Metamodel::Naming</title>
<path fill="none" stroke="#6666ff" d="M-409.692,564.803C-302.604,516.915 0.165242,381.52 116.578,329.462"/>
<polygon fill="#6666ff" stroke="#6666ff" points="115.388,326.16 125.945,325.273 118.245,332.55 115.388,326.16"/>
</g>
<!-- Metamodel::PackageHOW&#45;&gt;Metamodel::Stashing -->
<g id="edge55" class="edge"><title>Metamodel::PackageHOW&#45;&gt;Metamodel::Stashing</title>
<path fill="none" stroke="#6666ff" d="M-449.369,563.748C-453.58,511.562 -465.748,360.782 -470.834,297.755"/>
<polygon fill="#6666ff" stroke="#6666ff" points="-474.327,297.983 -471.642,287.734 -467.349,297.42 -474.327,297.983"/>
</g>
<!-- Metamodel::PackageHOW&#45;&gt;Metamodel::TypePretense -->
<g id="edge56" class="edge"><title>Metamodel::PackageHOW&#45;&gt;Metamodel::TypePretense</title>
<path fill="none" stroke="#6666ff" d="M-516.436,567.26C-573.522,555.072 -654.834,537.712 -714.462,524.981"/>
<polygon fill="#6666ff" stroke="#6666ff" points="-715.536,528.331 -724.584,522.82 -714.074,521.485 -715.536,528.331"/>
</g>
<!-- Metamodel::PackageHOW&#45;&gt;Metamodel::MethodDelegation -->
<g id="edge57" class="edge"><title>Metamodel::PackageHOW&#45;&gt;Metamodel::MethodDelegation</title>
<path fill="none" stroke="#6666ff" d="M-332.933,584.869C-325.581,585.06 -318.138,585.252 -310.691,585.445"/>
<polygon fill="#6666ff" stroke="#6666ff" points="-310.447,581.95 -300.541,585.708 -310.629,588.948 -310.447,581.95"/>
</g>
<!-- Metamodel::SubsetHOW -->
<g id="node30" class="node"><title>Metamodel::SubsetHOW</title>
<g id="a_node30"><a xlink:href="/type/Metamodel::SubsetHOW" xlink:title="Metamodel::SubsetHOW">
<ellipse fill="none" stroke="#000000" cx="369.613" cy="569.864" rx="109.381" ry="18"/>
<text text-anchor="middle" x="369.613" y="573.564" font-family="FreeSans" font-size="14.00" fill="#000000">Metamodel::SubsetHOW</text>
</a>
</g>
</g>
<!-- Metamodel::SubsetHOW&#45;&gt;Metamodel::Documenting -->
<g id="edge59" class="edge"><title>Metamodel::SubsetHOW&#45;&gt;Metamodel::Documenting</title>
<path fill="none" stroke="#6666ff" d="M334.574,552.615C242.415,507.248 -6.62175,384.655 -108.116,334.692"/>
<polygon fill="#6666ff" stroke="#6666ff" points="-109.755,337.786 -117.181,330.23 -106.663,331.506 -109.755,337.786"/>
</g>
<!-- Metamodel::SubsetHOW&#45;&gt;Any -->
<g id="edge7" class="edge"><title>Metamodel::SubsetHOW&#45;&gt;Any</title>
<path fill="none" stroke="#000000" d="M373.605,551.461C385.868,494.914 423.058,323.434 437.766,255.612"/>
<polygon fill="#000000" stroke="#000000" points="434.387,254.682 439.927,245.651 441.227,256.166 434.387,254.682"/>
</g>
<!-- Metamodel::SubsetHOW&#45;&gt;Metamodel::Naming -->
<g id="edge58" class="edge"><title>Metamodel::SubsetHOW&#45;&gt;Metamodel::Naming</title>
<path fill="none" stroke="#6666ff" d="M355.41,551.914C319.578,506.628 225.387,387.588 183.531,334.689"/>
<polygon fill="#6666ff" stroke="#6666ff" points="180.74,336.802 177.279,326.789 186.229,332.459 180.74,336.802"/>
</g>
</g>
</svg>
