<?xml version="1.0" encoding="UTF-8" standalone="no"?>
<!DOCTYPE svg PUBLIC "-//W3C//DTD SVG 1.1//EN"
 "http://www.w3.org/Graphics/SVG/1.1/DTD/svg11.dtd">
<!-- Generated by graphviz version 2.38.0 (20140413.2041)
 -->
<!-- Title: perl6&#45;type&#45;graph Pages: 1 -->
<svg width="2531pt" height="1453pt"
 viewBox="0.00 0.00 2531.30 1453.07" xmlns="http://www.w3.org/2000/svg" xmlns:xlink="http://www.w3.org/1999/xlink">
<g id="graph0" class="graph" transform="scale(1 1) rotate(0) translate(1250.86 687.566)">
<title>perl6&#45;type&#45;graph</title>
<polygon fill="white" stroke="none" points="-1250.86,765.505 -1250.86,-687.566 1280.44,-687.566 1280.44,765.505 -1250.86,765.505"/>
<!-- Metamodel::Versioning -->
<g id="node1" class="node"><title>Metamodel::Versioning</title>
<g id="a_node1"><a xlink:href="/type/Metamodel::Versioning" xlink:title="Metamodel::Versioning">
<ellipse fill="none" stroke="#6666ff" cx="-91.7919" cy="-19.0178" rx="100.983" ry="18"/>
<text text-anchor="middle" x="-91.7919" y="-15.3178" font-family="FreeSans" font-size="14.00" fill="#6666ff">Metamodel::Versioning</text>
</a>
</g>
</g>
<!-- Mu -->
<g id="node2" class="node"><title>Mu</title>
<g id="a_node2"><a xlink:href="/type/Mu" xlink:title="Mu">
<ellipse fill="none" stroke="#000000" cx="449.513" cy="743.505" rx="27" ry="18"/>
<text text-anchor="middle" x="449.513" y="747.205" font-family="FreeSans" font-size="14.00" fill="#000000">Mu</text>
</a>
</g>
</g>
<!-- Any -->
<g id="node3" class="node"><title>Any</title>
<g id="a_node3"><a xlink:href="/type/Any" xlink:title="Any">
<ellipse fill="none" stroke="#000000" cx="-11.2009" cy="739.715" rx="27" ry="18"/>
<text text-anchor="middle" x="-11.2009" y="743.415" font-family="FreeSans" font-size="14.00" fill="#000000">Any</text>
</a>
</g>
</g>
<!-- Any&#45;&gt;Mu -->
<g id="edge1" class="edge"><title>Any&#45;&gt;Mu</title>
<path fill="none" stroke="#000000" d="M15.8989,739.938C94.4743,740.585 322.514,742.46 412.434,743.2"/>
<polygon fill="#000000" stroke="#000000" points="412.477,739.7 422.448,743.282 412.419,746.7 412.477,739.7"/>
</g>
<!-- Metamodel::Naming -->
<g id="node4" class="node"><title>Metamodel::Naming</title>
<g id="a_node4"><a xlink:href="/type/Metamodel::Naming" xlink:title="Metamodel::Naming">
<ellipse fill="none" stroke="#6666ff" cx="-279.397" cy="198.15" rx="90.1842" ry="18"/>
<text text-anchor="middle" x="-279.397" y="201.85" font-family="FreeSans" font-size="14.00" fill="#6666ff">Metamodel::Naming</text>
</a>
</g>
</g>
<!-- Metamodel::Documenting -->
<g id="node5" class="node"><title>Metamodel::Documenting</title>
<g id="a_node5"><a xlink:href="/type/Metamodel::Documenting" xlink:title="Metamodel::Documenting">
<ellipse fill="none" stroke="#6666ff" cx="263.279" cy="366.976" rx="111.28" ry="18"/>
<text text-anchor="middle" x="263.279" y="370.676" font-family="FreeSans" font-size="14.00" fill="#6666ff">Metamodel::Documenting</text>
</a>
</g>
</g>
<!-- Metamodel::Stashing -->
<g id="node6" class="node"><title>Metamodel::Stashing</title>
<g id="a_node6"><a xlink:href="/type/Metamodel::Stashing" xlink:title="Metamodel::Stashing">
<ellipse fill="none" stroke="#6666ff" cx="-1.29495" cy="294.003" rx="93.6835" ry="18"/>
<text text-anchor="middle" x="-1.29495" y="297.703" font-family="FreeSans" font-size="14.00" fill="#6666ff">Metamodel::Stashing</text>
</a>
</g>
</g>
<!-- Metamodel::TypePretense -->
<g id="node7" class="node"><title>Metamodel::TypePretense</title>
<g id="a_node7"><a xlink:href="/type/Metamodel::TypePretense" xlink:title="Metamodel::TypePretense">
<ellipse fill="none" stroke="#6666ff" cx="-1093.12" cy="642.725" rx="114.28" ry="18"/>
<text text-anchor="middle" x="-1093.12" y="646.425" font-family="FreeSans" font-size="14.00" fill="#6666ff">Metamodel::TypePretense</text>
</a>
</g>
</g>
<!-- Metamodel::MethodDelegation -->
<g id="node8" class="node"><title>Metamodel::MethodDelegation</title>
<g id="a_node8"><a xlink:href="/type/Metamodel::MethodDelegation" xlink:title="Metamodel::MethodDelegation">
<ellipse fill="none" stroke="#6666ff" cx="-523.314" cy="738.397" rx="131.077" ry="18"/>
<text text-anchor="middle" x="-523.314" y="742.097" font-family="FreeSans" font-size="14.00" fill="#6666ff">Metamodel::MethodDelegation</text>
</a>
</g>
</g>
<!-- Metamodel::ModuleHOW -->
<g id="node9" class="node"><title>Metamodel::ModuleHOW</title>
<g id="a_node9"><a xlink:href="/type/Metamodel::ModuleHOW" xlink:title="Metamodel::ModuleHOW">
<ellipse fill="none" stroke="#000000" cx="-266.489" cy="466.363" rx="111.28" ry="18"/>
<text text-anchor="middle" x="-266.489" y="470.063" font-family="FreeSans" font-size="14.00" fill="#000000">Metamodel::ModuleHOW</text>
</a>
</g>
</g>
<!-- Metamodel::ModuleHOW&#45;&gt;Metamodel::Versioning -->
<g id="edge9" class="edge"><title>Metamodel::ModuleHOW&#45;&gt;Metamodel::Versioning</title>
<path fill="none" stroke="#6666ff" d="M-259.96,448.222C-233.445,374.553 -133.722,97.4821 -101.734,8.60468"/>
<polygon fill="#6666ff" stroke="#6666ff" points="-104.941,7.18089 -98.2614,-1.04294 -98.3548,9.55149 -104.941,7.18089"/>
</g>
<!-- Metamodel::ModuleHOW&#45;&gt;Any -->
<g id="edge2" class="edge"><title>Metamodel::ModuleHOW&#45;&gt;Any</title>
<path fill="none" stroke="#000000" d="M-249.739,484.299C-205.002,532.201 -82.7408,663.113 -32.8425,716.542"/>
<polygon fill="#000000" stroke="#000000" points="-30.0179,714.439 -25.7504,724.136 -35.1338,719.217 -30.0179,714.439"/>
</g>
<!-- Metamodel::ModuleHOW&#45;&gt;Metamodel::Naming -->
<g id="edge7" class="edge"><title>Metamodel::ModuleHOW&#45;&gt;Metamodel::Naming</title>
<path fill="none" stroke="#6666ff" d="M-267.356,448.349C-269.555,402.651 -275.365,281.931 -278.028,226.593"/>
<polygon fill="#6666ff" stroke="#6666ff" points="-281.532,226.596 -278.517,216.439 -274.54,226.259 -281.532,226.596"/>
</g>
<!-- Metamodel::ModuleHOW&#45;&gt;Metamodel::Documenting -->
<g id="edge8" class="edge"><title>Metamodel::ModuleHOW&#45;&gt;Metamodel::Documenting</title>
<path fill="none" stroke="#6666ff" d="M-193.661,452.7C-95.8111,434.343 77.6509,401.801 180.392,382.526"/>
<polygon fill="#6666ff" stroke="#6666ff" points="179.941,379.05 190.415,380.646 181.231,385.93 179.941,379.05"/>
</g>
<!-- Metamodel::ModuleHOW&#45;&gt;Metamodel::Stashing -->
<g id="edge10" class="edge"><title>Metamodel::ModuleHOW&#45;&gt;Metamodel::Stashing</title>
<path fill="none" stroke="#6666ff" d="M-239.601,448.888C-191.329,417.513 -90.0134,351.664 -36.3597,316.793"/>
<polygon fill="#6666ff" stroke="#6666ff" points="-38.1515,313.783 -27.8595,311.268 -34.3368,319.652 -38.1515,313.783"/>
</g>
<!-- Metamodel::ModuleHOW&#45;&gt;Metamodel::TypePretense -->
<g id="edge11" class="edge"><title>Metamodel::ModuleHOW&#45;&gt;Metamodel::TypePretense</title>
<path fill="none" stroke="#6666ff" d="M-333.785,480.721C-485.561,513.102 -853.82,591.671 -1015.18,626.098"/>
<polygon fill="#6666ff" stroke="#6666ff" points="-1014.53,629.538 -1025.04,628.201 -1015.99,622.692 -1014.53,629.538"/>
</g>
<!-- Metamodel::ModuleHOW&#45;&gt;Metamodel::MethodDelegation -->
<g id="edge12" class="edge"><title>Metamodel::ModuleHOW&#45;&gt;Metamodel::MethodDelegation</title>
<path fill="none" stroke="#6666ff" d="M-283.34,484.212C-327.694,531.193 -447.795,658.406 -499.314,712.976"/>
<polygon fill="#6666ff" stroke="#6666ff" points="-496.991,715.614 -506.401,720.482 -502.081,710.808 -496.991,715.614"/>
</g>
<!-- Metamodel::MultipleInheritance -->
<g id="node10" class="node"><title>Metamodel::MultipleInheritance</title>
<g id="a_node10"><a xlink:href="/type/Metamodel::MultipleInheritance" xlink:title="Metamodel::MultipleInheritance">
<ellipse fill="none" stroke="#6666ff" cx="204.525" cy="39.0428" rx="133.776" ry="18"/>
<text text-anchor="middle" x="204.525" y="42.7428" font-family="FreeSans" font-size="14.00" fill="#6666ff">Metamodel::MultipleInheritance</text>
</a>
</g>
</g>
<!-- Metamodel::C3MRO -->
<g id="node11" class="node"><title>Metamodel::C3MRO</title>
<g id="a_node11"><a xlink:href="/type/Metamodel::C3MRO" xlink:title="Metamodel::C3MRO">
<ellipse fill="none" stroke="#6666ff" cx="1060.88" cy="704.893" rx="92.0841" ry="18"/>
<text text-anchor="middle" x="1060.88" y="708.593" font-family="FreeSans" font-size="14.00" fill="#6666ff">Metamodel::C3MRO</text>
</a>
</g>
</g>
<!-- Metamodel::MROBasedMethodDispatch -->
<g id="node12" class="node"><title>Metamodel::MROBasedMethodDispatch</title>
<g id="a_node12"><a xlink:href="/type/Metamodel::MROBasedMethodDispatch" xlink:title="Metamodel::MROBasedMethodDispatch">
<ellipse fill="none" stroke="#6666ff" cx="561.013" cy="54.7413" rx="169.77" ry="18"/>
<text text-anchor="middle" x="561.013" y="58.4413" font-family="FreeSans" font-size="14.00" fill="#6666ff">Metamodel::MROBasedMethodDispatch</text>
</a>
</g>
</g>
<!-- Metamodel::MROBasedTypeChecking -->
<g id="node13" class="node"><title>Metamodel::MROBasedTypeChecking</title>
<g id="a_node13"><a xlink:href="/type/Metamodel::MROBasedTypeChecking" xlink:title="Metamodel::MROBasedTypeChecking">
<ellipse fill="none" stroke="#6666ff" cx="1113.3" cy="246.61" rx="163.271" ry="18"/>
<text text-anchor="middle" x="1113.3" y="250.31" font-family="FreeSans" font-size="14.00" fill="#6666ff">Metamodel::MROBasedTypeChecking</text>
</a>
</g>
</g>
<!-- Metamodel::NativeHOW -->
<g id="node14" class="node"><title>Metamodel::NativeHOW</title>
<g id="a_node14"><a xlink:href="/type/Metamodel::NativeHOW" xlink:title="Metamodel::NativeHOW">
<ellipse fill="none" stroke="#000000" cx="625.67" cy="373.96" rx="107.482" ry="18"/>
<text text-anchor="middle" x="625.67" y="377.66" font-family="FreeSans" font-size="14.00" fill="#000000">Metamodel::NativeHOW</text>
</a>
</g>
</g>
<!-- Metamodel::NativeHOW&#45;&gt;Metamodel::Versioning -->
<g id="edge15" class="edge"><title>Metamodel::NativeHOW&#45;&gt;Metamodel::Versioning</title>
<path fill="none" stroke="#6666ff" d="M593.915,356.567C477.917,293.031 77.1612,73.5235 -51.6106,2.99089"/>
<polygon fill="#6666ff" stroke="#6666ff" points="-53.3153,6.04785 -60.4045,-1.82581 -49.9525,-0.0915369 -53.3153,6.04785"/>
</g>
<!-- Metamodel::NativeHOW&#45;&gt;Any -->
<g id="edge3" class="edge"><title>Metamodel::NativeHOW&#45;&gt;Any</title>
<path fill="none" stroke="#000000" d="M595.38,391.355C487.759,453.162 124.583,661.734 18.2696,722.79"/>
<polygon fill="#000000" stroke="#000000" points="19.7744,725.962 9.3596,727.907 16.2882,719.892 19.7744,725.962"/>
</g>
<!-- Metamodel::NativeHOW&#45;&gt;Metamodel::Naming -->
<g id="edge13" class="edge"><title>Metamodel::NativeHOW&#45;&gt;Metamodel::Naming</title>
<path fill="none" stroke="#6666ff" d="M555.404,360.311C388.037,327.799 -32.9991,246.013 -204.724,212.655"/>
<polygon fill="#6666ff" stroke="#6666ff" points="-205.536,216.063 -214.686,210.72 -204.202,209.191 -205.536,216.063"/>
</g>
<!-- Metamodel::NativeHOW&#45;&gt;Metamodel::Documenting -->
<g id="edge14" class="edge"><title>Metamodel::NativeHOW&#45;&gt;Metamodel::Documenting</title>
<path fill="none" stroke="#6666ff" d="M518.9,371.902C476.481,371.085 427.476,370.14 383.79,369.298"/>
<polygon fill="#6666ff" stroke="#6666ff" points="383.615,372.796 373.684,369.104 383.75,365.797 383.615,372.796"/>
</g>
<!-- Metamodel::NativeHOW&#45;&gt;Metamodel::Stashing -->
<g id="edge16" class="edge"><title>Metamodel::NativeHOW&#45;&gt;Metamodel::Stashing</title>
<path fill="none" stroke="#6666ff" d="M540.135,363.052C421.29,347.895 207.296,320.604 86.9988,305.263"/>
<polygon fill="#6666ff" stroke="#6666ff" points="86.2007,308.689 76.7238,303.952 87.0863,301.746 86.2007,308.689"/>
</g>
<!-- Metamodel::NativeHOW&#45;&gt;Metamodel::MultipleInheritance -->
<g id="edge17" class="edge"><title>Metamodel::NativeHOW&#45;&gt;Metamodel::MultipleInheritance</title>
<path fill="none" stroke="#6666ff" d="M603.324,356.19C533.019,300.279 316.221,127.87 235.356,63.5616"/>
<polygon fill="#6666ff" stroke="#6666ff" points="232.72,65.937 227.071,56.9733 237.077,60.4582 232.72,65.937"/>
</g>
<!-- Metamodel::NativeHOW&#45;&gt;Metamodel::C3MRO -->
<g id="edge18" class="edge"><title>Metamodel::NativeHOW&#45;&gt;Metamodel::C3MRO</title>
<path fill="none" stroke="#6666ff" d="M649.068,391.752C722.297,447.435 947.121,618.391 1029.88,681.321"/>
<polygon fill="#6666ff" stroke="#6666ff" points="1032.05,678.575 1037.89,687.414 1027.82,684.147 1032.05,678.575"/>
</g>
<!-- Metamodel::NativeHOW&#45;&gt;Metamodel::MROBasedMethodDispatch -->
<g id="edge19" class="edge"><title>Metamodel::NativeHOW&#45;&gt;Metamodel::MROBasedMethodDispatch</title>
<path fill="none" stroke="#6666ff" d="M622.008,355.883C611.253,302.785 579.7,147.001 566.705,82.8452"/>
<polygon fill="#6666ff" stroke="#6666ff" points="563.269,83.5117 564.714,73.0159 570.13,82.1221 563.269,83.5117"/>
</g>
<!-- Metamodel::NativeHOW&#45;&gt;Metamodel::MROBasedTypeChecking -->
<g id="edge20" class="edge"><title>Metamodel::NativeHOW&#45;&gt;Metamodel::MROBasedTypeChecking</title>
<path fill="none" stroke="#6666ff" d="M684.005,358.725C772.968,335.491 942.447,291.23 1039.73,265.823"/>
<polygon fill="#6666ff" stroke="#6666ff" points="1038.93,262.414 1049.49,263.274 1040.7,269.187 1038.93,262.414"/>
</g>
<!-- Metamodel::MethodContainer -->
<g id="node15" class="node"><title>Metamodel::MethodContainer</title>
<g id="a_node15"><a xlink:href="/type/Metamodel::MethodContainer" xlink:title="Metamodel::MethodContainer">
<ellipse fill="none" stroke="#6666ff" cx="-590.949" cy="-648.067" rx="127.277" ry="18"/>
<text text-anchor="middle" x="-590.949" y="-644.367" font-family="FreeSans" font-size="14.00" fill="#6666ff">Metamodel::MethodContainer</text>
</a>
</g>
</g>
<!-- Metamodel::PrivateMethodContainer -->
<g id="node16" class="node"><title>Metamodel::PrivateMethodContainer</title>
<g id="a_node16"><a xlink:href="/type/Metamodel::PrivateMethodContainer" xlink:title="Metamodel::PrivateMethodContainer">
<ellipse fill="none" stroke="#6666ff" cx="0.284871" cy="-290.762" rx="154.873" ry="18"/>
<text text-anchor="middle" x="0.284871" y="-287.062" font-family="FreeSans" font-size="14.00" fill="#6666ff">Metamodel::PrivateMethodContainer</text>
</a>
</g>
</g>
<!-- Metamodel::MultiMethodContainer -->
<g id="node17" class="node"><title>Metamodel::MultiMethodContainer</title>
<g id="a_node17"><a xlink:href="/type/Metamodel::MultiMethodContainer" xlink:title="Metamodel::MultiMethodContainer">
<ellipse fill="none" stroke="#6666ff" cx="-320.359" cy="-290.758" rx="146.474" ry="18"/>
<text text-anchor="middle" x="-320.359" y="-287.058" font-family="FreeSans" font-size="14.00" fill="#6666ff">Metamodel::MultiMethodContainer</text>
</a>
</g>
</g>
<!-- Metamodel::AttributeContainer -->
<g id="node18" class="node"><title>Metamodel::AttributeContainer</title>
<g id="a_node18"><a xlink:href="/type/Metamodel::AttributeContainer" xlink:title="Metamodel::AttributeContainer">
<ellipse fill="none" stroke="#6666ff" cx="-1113.72" cy="-563.227" rx="129.977" ry="18"/>
<text text-anchor="middle" x="-1113.72" y="-559.527" font-family="FreeSans" font-size="14.00" fill="#6666ff">Metamodel::AttributeContainer</text>
</a>
</g>
</g>
<!-- Metamodel::RoleContainer -->
<g id="node19" class="node"><title>Metamodel::RoleContainer</title>
<g id="a_node19"><a xlink:href="/type/Metamodel::RoleContainer" xlink:title="Metamodel::RoleContainer">
<ellipse fill="none" stroke="#6666ff" cx="-701.631" cy="-189.369" rx="115.88" ry="18"/>
<text text-anchor="middle" x="-701.631" y="-185.669" font-family="FreeSans" font-size="14.00" fill="#6666ff">Metamodel::RoleContainer</text>
</a>
</g>
</g>
<!-- Metamodel::RolePunning -->
<g id="node20" class="node"><title>Metamodel::RolePunning</title>
<g id="a_node20"><a xlink:href="/type/Metamodel::RolePunning" xlink:title="Metamodel::RolePunning">
<ellipse fill="none" stroke="#6666ff" cx="-1137.02" cy="50.1014" rx="109.681" ry="18"/>
<text text-anchor="middle" x="-1137.02" y="53.8014" font-family="FreeSans" font-size="14.00" fill="#6666ff">Metamodel::RolePunning</text>
</a>
</g>
</g>
<!-- Metamodel::ParametricRoleHOW -->
<g id="node21" class="node"><title>Metamodel::ParametricRoleHOW</title>
<g id="a_node21"><a xlink:href="/type/Metamodel::ParametricRoleHOW" xlink:title="Metamodel::ParametricRoleHOW">
<ellipse fill="none" stroke="#000000" cx="-660.187" cy="280.652" rx="142.175" ry="18"/>
<text text-anchor="middle" x="-660.187" y="284.352" font-family="FreeSans" font-size="14.00" fill="#000000">Metamodel::ParametricRoleHOW</text>
</a>
</g>
</g>
<!-- Metamodel::ParametricRoleHOW&#45;&gt;Metamodel::Versioning -->
<g id="edge23" class="edge"><title>Metamodel::ParametricRoleHOW&#45;&gt;Metamodel::Versioning</title>
<path fill="none" stroke="#6666ff" d="M-626.753,263.025C-528.597,211.275 -241.391,59.854 -133.446,2.94304"/>
<polygon fill="#6666ff" stroke="#6666ff" points="-134.952,-0.219708 -124.473,-1.78744 -131.687,5.97241 -134.952,-0.219708"/>
</g>
<!-- Metamodel::ParametricRoleHOW&#45;&gt;Any -->
<g id="edge4" class="edge"><title>Metamodel::ParametricRoleHOW&#45;&gt;Any</title>
<path fill="none" stroke="#000000" d="M-634.746,298.648C-531.487,371.689 -144.163,645.664 -38.1637,720.643"/>
<polygon fill="#000000" stroke="#000000" points="-36.0464,717.854 -29.9036,726.486 -40.0888,723.568 -36.0464,717.854"/>
</g>
<!-- Metamodel::ParametricRoleHOW&#45;&gt;Metamodel::Naming -->
<g id="edge21" class="edge"><title>Metamodel::ParametricRoleHOW&#45;&gt;Metamodel::Naming</title>
<path fill="none" stroke="#6666ff" d="M-588.116,265.037C-520.129,250.307 -418.794,228.352 -350.971,213.657"/>
<polygon fill="#6666ff" stroke="#6666ff" points="-351.314,210.15 -340.8,211.453 -349.832,216.992 -351.314,210.15"/>
</g>
<!-- Metamodel::ParametricRoleHOW&#45;&gt;Metamodel::Documenting -->
<g id="edge22" class="edge"><title>Metamodel::ParametricRoleHOW&#45;&gt;Metamodel::Documenting</title>
<path fill="none" stroke="#6666ff" d="M-545.562,291.367C-365.267,308.221 -17.9813,340.684 157,357.041"/>
<polygon fill="#6666ff" stroke="#6666ff" points="157.362,353.56 166.993,357.975 156.71,360.529 157.362,353.56"/>
</g>
<!-- Metamodel::ParametricRoleHOW&#45;&gt;Metamodel::Stashing -->
<g id="edge30" class="edge"><title>Metamodel::ParametricRoleHOW&#45;&gt;Metamodel::Stashing</title>
<path fill="none" stroke="#6666ff" d="M-519.242,283.508C-394.966,286.026 -216.754,289.637 -105.1,291.899"/>
<polygon fill="#6666ff" stroke="#6666ff" points="-104.768,288.405 -94.8408,292.107 -104.91,295.404 -104.768,288.405"/>
</g>
<!-- Metamodel::ParametricRoleHOW&#45;&gt;Metamodel::TypePretense -->
<g id="edge31" class="edge"><title>Metamodel::ParametricRoleHOW&#45;&gt;Metamodel::TypePretense</title>
<path fill="none" stroke="#6666ff" d="M-681.656,298.608C-752.999,358.273 -982.244,549.998 -1063.9,618.287"/>
<polygon fill="#6666ff" stroke="#6666ff" points="-1061.86,621.145 -1071.78,624.876 -1066.35,615.775 -1061.86,621.145"/>
</g>
<!-- Metamodel::ParametricRoleHOW&#45;&gt;Metamodel::MultipleInheritance -->
<g id="edge29" class="edge"><title>Metamodel::ParametricRoleHOW&#45;&gt;Metamodel::MultipleInheritance</title>
<path fill="none" stroke="#6666ff" d="M-605.616,263.993C-515.357,236.439 -344.829,184.38 -344.829,184.38 -344.829,184.38 -14.7392,97.0515 133.697,57.781"/>
<polygon fill="#6666ff" stroke="#6666ff" points="133.072,54.3259 143.635,55.1518 134.863,61.0931 133.072,54.3259"/>
</g>
<!-- Metamodel::ParametricRoleHOW&#45;&gt;Metamodel::MethodContainer -->
<g id="edge24" class="edge"><title>Metamodel::ParametricRoleHOW&#45;&gt;Metamodel::MethodContainer</title>
<path fill="none" stroke="#6666ff" d="M-657.26,262.513C-643.322,176.127 -584.341,-189.408 -584.341,-189.408 -584.341,-189.408 -589.094,-519.302 -590.538,-619.53"/>
<polygon fill="#6666ff" stroke="#6666ff" points="-594.042,-619.755 -590.686,-629.804 -587.042,-619.856 -594.042,-619.755"/>
</g>
<!-- Metamodel::ParametricRoleHOW&#45;&gt;Metamodel::PrivateMethodContainer -->
<g id="edge25" class="edge"><title>Metamodel::ParametricRoleHOW&#45;&gt;Metamodel::PrivateMethodContainer</title>
<path fill="none" stroke="#6666ff" d="M-637.035,262.819C-556.008,200.405 -290.073,-4.44096 -290.073,-4.44096 -290.073,-4.44096 -95.8559,-195.957 -25.1051,-265.725"/>
<polygon fill="#6666ff" stroke="#6666ff" points="-27.4562,-268.322 -17.8783,-272.851 -22.5412,-263.337 -27.4562,-268.322"/>
</g>
<!-- Metamodel::ParametricRoleHOW&#45;&gt;Metamodel::MultiMethodContainer -->
<g id="edge26" class="edge"><title>Metamodel::ParametricRoleHOW&#45;&gt;Metamodel::MultiMethodContainer</title>
<path fill="none" stroke="#6666ff" d="M-654.084,262.399C-633.063,199.525 -564.944,-4.21763 -564.944,-4.21763 -564.944,-4.21763 -402.666,-194.332 -342.476,-264.847"/>
<polygon fill="#6666ff" stroke="#6666ff" points="-344.814,-267.5 -335.659,-272.833 -339.489,-262.955 -344.814,-267.5"/>
</g>
<!-- Metamodel::ParametricRoleHOW&#45;&gt;Metamodel::AttributeContainer -->
<g id="edge27" class="edge"><title>Metamodel::ParametricRoleHOW&#45;&gt;Metamodel::AttributeContainer</title>
<path fill="none" stroke="#6666ff" d="M-669.87,262.636C-727.857,154.742 -1028.99,-405.558 -1099.12,-536.046"/>
<polygon fill="#6666ff" stroke="#6666ff" points="-1102.29,-534.556 -1103.94,-545.021 -1096.12,-537.87 -1102.29,-534.556"/>
</g>
<!-- Metamodel::ParametricRoleHOW&#45;&gt;Metamodel::RoleContainer -->
<g id="edge28" class="edge"><title>Metamodel::ParametricRoleHOW&#45;&gt;Metamodel::RoleContainer</title>
<path fill="none" stroke="#6666ff" d="M-661.786,262.515C-668.113,190.761 -691.423,-73.5989 -699.135,-161.063"/>
<polygon fill="#6666ff" stroke="#6666ff" points="-702.644,-161.017 -700.036,-171.286 -695.671,-161.632 -702.644,-161.017"/>
</g>
<!-- Metamodel::ParametricRoleHOW&#45;&gt;Metamodel::RolePunning -->
<g id="edge32" class="edge"><title>Metamodel::ParametricRoleHOW&#45;&gt;Metamodel::RolePunning</title>
<path fill="none" stroke="#6666ff" d="M-696.418,263.134C-782.357,221.582 -998.352,117.148 -1092.26,71.7431"/>
<polygon fill="#6666ff" stroke="#6666ff" points="-1094.01,74.7829 -1101.49,67.2789 -1090.97,68.4809 -1094.01,74.7829"/>
</g>
<!-- Metamodel::ConcreteRoleHOW -->
<g id="node22" class="node"><title>Metamodel::ConcreteRoleHOW</title>
<g id="a_node22"><a xlink:href="/type/Metamodel::ConcreteRoleHOW" xlink:title="Metamodel::ConcreteRoleHOW">
<ellipse fill="none" stroke="#000000" cx="-427.508" cy="-4.3293" rx="135.676" ry="18"/>
<text text-anchor="middle" x="-427.508" y="-0.629298" font-family="FreeSans" font-size="14.00" fill="#000000">Metamodel::ConcreteRoleHOW</text>
</a>
</g>
</g>
<!-- Metamodel::ConcreteRoleHOW&#45;&gt;Metamodel::Versioning -->
<g id="edge34" class="edge"><title>Metamodel::ConcreteRoleHOW&#45;&gt;Metamodel::Versioning</title>
<path fill="none" stroke="#6666ff" d="M-298.192,-9.98724C-265.69,-11.4093 -231.151,-12.9204 -199.813,-14.2916"/>
<polygon fill="#6666ff" stroke="#6666ff" points="-199.901,-17.791 -189.758,-14.7315 -199.595,-10.7977 -199.901,-17.791"/>
</g>
<!-- Metamodel::ConcreteRoleHOW&#45;&gt;Any -->
<g id="edge5" class="edge"><title>Metamodel::ConcreteRoleHOW&#45;&gt;Any</title>
<path fill="none" stroke="#000000" d="M-422.424,14.008C-408.597,63.8813 -371.337,198.277 -371.337,198.277 -371.337,198.277 -153.749,466.308 -153.749,466.308 -153.749,466.308 -60.7025,644.772 -24.958,713.329"/>
<polygon fill="#000000" stroke="#000000" points="-21.6376,712.127 -20.1179,722.612 -27.8446,715.363 -21.6376,712.127"/>
</g>
<!-- Metamodel::ConcreteRoleHOW&#45;&gt;Metamodel::Naming -->
<g id="edge33" class="edge"><title>Metamodel::ConcreteRoleHOW&#45;&gt;Metamodel::Naming</title>
<path fill="none" stroke="#6666ff" d="M-414.364,13.6394C-388.124,49.5116 -329.147,130.137 -298.581,171.924"/>
<polygon fill="#6666ff" stroke="#6666ff" points="-295.59,170.084 -292.511,180.221 -301.24,174.217 -295.59,170.084"/>
</g>
<!-- Metamodel::ConcreteRoleHOW&#45;&gt;Metamodel::MultipleInheritance -->
<g id="edge40" class="edge"><title>Metamodel::ConcreteRoleHOW&#45;&gt;Metamodel::MultipleInheritance</title>
<path fill="none" stroke="#6666ff" d="M-306.767,3.95635C-197.47,11.4567 -36.9186,22.4742 75.0168,30.1556"/>
<polygon fill="#6666ff" stroke="#6666ff" points="75.2793,26.6653 85.0162,30.8418 74.8,33.6489 75.2793,26.6653"/>
</g>
<!-- Metamodel::ConcreteRoleHOW&#45;&gt;Metamodel::MethodContainer -->
<g id="edge36" class="edge"><title>Metamodel::ConcreteRoleHOW&#45;&gt;Metamodel::MethodContainer</title>
<path fill="none" stroke="#6666ff" d="M-432.136,-22.5582C-455.012,-112.655 -556.007,-510.442 -583.831,-620.03"/>
<polygon fill="#6666ff" stroke="#6666ff" points="-587.293,-619.444 -586.361,-629.998 -580.508,-621.166 -587.293,-619.444"/>
</g>
<!-- Metamodel::ConcreteRoleHOW&#45;&gt;Metamodel::PrivateMethodContainer -->
<g id="edge35" class="edge"><title>Metamodel::ConcreteRoleHOW&#45;&gt;Metamodel::PrivateMethodContainer</title>
<path fill="none" stroke="#6666ff" d="M-401.071,-22.0308C-327.088,-71.5662 -117.944,-211.601 -34.6121,-267.396"/>
<polygon fill="#6666ff" stroke="#6666ff" points="-36.506,-270.34 -26.2493,-272.995 -32.6114,-264.523 -36.506,-270.34"/>
</g>
<!-- Metamodel::ConcreteRoleHOW&#45;&gt;Metamodel::MultiMethodContainer -->
<g id="edge37" class="edge"><title>Metamodel::ConcreteRoleHOW&#45;&gt;Metamodel::MultiMethodContainer</title>
<path fill="none" stroke="#6666ff" d="M-420.643,-22.6824C-402.386,-71.4869 -352.549,-204.708 -330.774,-262.918"/>
<polygon fill="#6666ff" stroke="#6666ff" points="-333.95,-264.417 -327.168,-272.557 -327.394,-261.965 -333.95,-264.417"/>
</g>
<!-- Metamodel::ConcreteRoleHOW&#45;&gt;Metamodel::AttributeContainer -->
<g id="edge38" class="edge"><title>Metamodel::ConcreteRoleHOW&#45;&gt;Metamodel::AttributeContainer</title>
<path fill="none" stroke="#6666ff" d="M-442.832,-22.4124C-482.295,-68.9829 -584.341,-189.408 -584.341,-189.408 -584.341,-189.408 -964.097,-457.569 -1080.33,-539.643"/>
<polygon fill="#6666ff" stroke="#6666ff" points="-1082.4,-536.821 -1088.55,-545.448 -1078.36,-542.539 -1082.4,-536.821"/>
</g>
<!-- Metamodel::ConcreteRoleHOW&#45;&gt;Metamodel::RoleContainer -->
<g id="edge39" class="edge"><title>Metamodel::ConcreteRoleHOW&#45;&gt;Metamodel::RoleContainer</title>
<path fill="none" stroke="#6666ff" d="M-453.792,-22.0717C-503.528,-55.6444 -611.389,-128.454 -666.971,-165.973"/>
<polygon fill="#6666ff" stroke="#6666ff" points="-669.096,-163.185 -675.426,-171.681 -665.18,-168.987 -669.096,-163.185"/>
</g>
<!-- Metamodel::Finalization -->
<g id="node23" class="node"><title>Metamodel::Finalization</title>
<g id="a_node23"><a xlink:href="/type/Metamodel::Finalization" xlink:title="Metamodel::Finalization">
<ellipse fill="none" stroke="#6666ff" cx="536.285" cy="-660.267" rx="103.982" ry="18"/>
<text text-anchor="middle" x="536.285" y="-656.567" font-family="FreeSans" font-size="14.00" fill="#6666ff">Metamodel::Finalization</text>
</a>
</g>
</g>
<!-- Metamodel::DefaultParent -->
<g id="node24" class="node"><title>Metamodel::DefaultParent</title>
<g id="a_node24"><a xlink:href="/type/Metamodel::DefaultParent" xlink:title="Metamodel::DefaultParent">
<ellipse fill="none" stroke="#6666ff" cx="645.095" cy="-262.11" rx="113.18" ry="18"/>
<text text-anchor="middle" x="645.095" y="-258.41" font-family="FreeSans" font-size="14.00" fill="#6666ff">Metamodel::DefaultParent</text>
</a>
</g>
</g>
<!-- Metamodel::Trusting -->
<g id="node25" class="node"><title>Metamodel::Trusting</title>
<g id="a_node25"><a xlink:href="/type/Metamodel::Trusting" xlink:title="Metamodel::Trusting">
<ellipse fill="none" stroke="#6666ff" cx="154.848" cy="-657.217" rx="91.784" ry="18"/>
<text text-anchor="middle" x="154.848" y="-653.517" font-family="FreeSans" font-size="14.00" fill="#6666ff">Metamodel::Trusting</text>
</a>
</g>
</g>
<!-- Metamodel::BUILDPLAN -->
<g id="node26" class="node"><title>Metamodel::BUILDPLAN</title>
<g id="a_node26"><a xlink:href="/type/Metamodel::BUILDPLAN" xlink:title="Metamodel::BUILDPLAN">
<ellipse fill="none" stroke="#6666ff" cx="1116.77" cy="-153.305" rx="109.681" ry="18"/>
<text text-anchor="middle" x="1116.77" y="-149.605" font-family="FreeSans" font-size="14.00" fill="#6666ff">Metamodel::BUILDPLAN</text>
</a>
</g>
</g>
<!-- Metamodel::Mixins -->
<g id="node27" class="node"><title>Metamodel::Mixins</title>
<g id="a_node27"><a xlink:href="/type/Metamodel::Mixins" xlink:title="Metamodel::Mixins">
<ellipse fill="none" stroke="#6666ff" cx="1084.67" cy="-623.717" rx="85.2851" ry="18"/>
<text text-anchor="middle" x="1084.67" y="-620.017" font-family="FreeSans" font-size="14.00" fill="#6666ff">Metamodel::Mixins</text>
</a>
</g>
</g>
<!-- Metamodel::BoolificationProtocol -->
<g id="node28" class="node"><title>Metamodel::BoolificationProtocol</title>
<g id="a_node28"><a xlink:href="/type/Metamodel::BoolificationProtocol" xlink:title="Metamodel::BoolificationProtocol">
<ellipse fill="none" stroke="#6666ff" cx="-193.656" cy="-665.566" rx="139.175" ry="18"/>
<text text-anchor="middle" x="-193.656" y="-661.866" font-family="FreeSans" font-size="14.00" fill="#6666ff">Metamodel::BoolificationProtocol</text>
</a>
</g>
</g>
<!-- Metamodel::ClassHOW -->
<g id="node29" class="node"><title>Metamodel::ClassHOW</title>
<g id="a_node29"><a xlink:href="/type/Metamodel::ClassHOW" xlink:title="Metamodel::ClassHOW">
<ellipse fill="none" stroke="#000000" cx="298.728" cy="-260.049" rx="103.982" ry="18"/>
<text text-anchor="middle" x="298.728" y="-256.349" font-family="FreeSans" font-size="14.00" fill="#000000">Metamodel::ClassHOW</text>
</a>
</g>
</g>
<!-- Metamodel::ClassHOW&#45;&gt;Metamodel::Versioning -->
<g id="edge43" class="edge"><title>Metamodel::ClassHOW&#45;&gt;Metamodel::Versioning</title>
<path fill="none" stroke="#6666ff" d="M270.642,-242.714C201.487,-200.031 22.9694,-89.8492 -54.7369,-41.8884"/>
<polygon fill="#6666ff" stroke="#6666ff" points="-53.3514,-38.6305 -63.6994,-36.3567 -57.028,-44.5873 -53.3514,-38.6305"/>
</g>
<!-- Metamodel::ClassHOW&#45;&gt;Any -->
<g id="edge6" class="edge"><title>Metamodel::ClassHOW&#45;&gt;Any</title>
<path fill="none" stroke="#000000" d="M301.248,-241.798C310.211,-176.891 340.009,38.9047 340.009,38.9047 340.009,38.9047 150.54,367.088 150.54,367.088 150.54,367.088 37.4896,627.54 0.417695,712.948"/>
<polygon fill="#000000" stroke="#000000" points="3.57561,714.463 -3.61671,722.242 -2.84559,711.676 3.57561,714.463"/>
</g>
<!-- Metamodel::ClassHOW&#45;&gt;Metamodel::Naming -->
<g id="edge41" class="edge"><title>Metamodel::ClassHOW&#45;&gt;Metamodel::Naming</title>
<path fill="none" stroke="#6666ff" d="M277.537,-242.339C210.985,-186.718 10.5446,-19.2019 10.5446,-19.2019 10.5446,-19.2019 -172.942,118.347 -247.984,174.601"/>
<polygon fill="#6666ff" stroke="#6666ff" points="-246.059,177.533 -256.16,180.73 -250.258,171.932 -246.059,177.533"/>
</g>
<!-- Metamodel::ClassHOW&#45;&gt;Metamodel::Documenting -->
<g id="edge42" class="edge"><title>Metamodel::ClassHOW&#45;&gt;Metamodel::Documenting</title>
<path fill="none" stroke="#6666ff" d="M301.248,-241.798C310.211,-176.891 340.009,38.9047 340.009,38.9047 340.009,38.9047 288.343,259.812 269.803,339.082"/>
<polygon fill="#6666ff" stroke="#6666ff" points="273.199,339.93 267.513,348.87 266.383,338.336 273.199,339.93"/>
</g>
<!-- Metamodel::ClassHOW&#45;&gt;Metamodel::Stashing -->
<g id="edge44" class="edge"><title>Metamodel::ClassHOW&#45;&gt;Metamodel::Stashing</title>
<path fill="none" stroke="#6666ff" d="M284.705,-241.781C234.837,-176.814 69.0397,39.1809 69.0397,39.1809 69.0397,39.1809 24.7554,199.622 6.46492,265.889"/>
<polygon fill="#6666ff" stroke="#6666ff" points="9.79793,266.968 3.76335,275.676 3.05024,265.106 9.79793,266.968"/>
</g>
<!-- Metamodel::ClassHOW&#45;&gt;Metamodel::MultipleInheritance -->
<g id="edge51" class="edge"><title>Metamodel::ClassHOW&#45;&gt;Metamodel::MultipleInheritance</title>
<path fill="none" stroke="#6666ff" d="M292.977,-241.79C277.041,-191.194 232.241,-48.9572 213.23,11.4025"/>
<polygon fill="#6666ff" stroke="#6666ff" points="216.543,12.5359 210.2,21.0225 209.866,10.433 216.543,12.5359"/>
</g>
<!-- Metamodel::ClassHOW&#45;&gt;Metamodel::C3MRO -->
<g id="edge53" class="edge"><title>Metamodel::ClassHOW&#45;&gt;Metamodel::C3MRO</title>
<path fill="none" stroke="#6666ff" d="M304.017,-241.756C323.45,-174.544 389.782,54.8728 389.782,54.8728 389.782,54.8728 734.509,373.886 734.509,373.886 734.509,373.886 959.802,602.379 1036.02,679.682"/>
<polygon fill="#6666ff" stroke="#6666ff" points="1038.8,677.518 1043.33,687.096 1033.82,682.433 1038.8,677.518"/>
</g>
<!-- Metamodel::ClassHOW&#45;&gt;Metamodel::MROBasedMethodDispatch -->
<g id="edge54" class="edge"><title>Metamodel::ClassHOW&#45;&gt;Metamodel::MROBasedMethodDispatch</title>
<path fill="none" stroke="#6666ff" d="M313.581,-242.222C357.658,-189.321 487.856,-33.0602 539.528,28.955"/>
<polygon fill="#6666ff" stroke="#6666ff" points="542.285,26.7971 545.998,36.7202 536.907,31.278 542.285,26.7971"/>
</g>
<!-- Metamodel::ClassHOW&#45;&gt;Metamodel::MROBasedTypeChecking -->
<g id="edge55" class="edge"><title>Metamodel::ClassHOW&#45;&gt;Metamodel::MROBasedTypeChecking</title>
<path fill="none" stroke="#6666ff" d="M326.767,-242.608C449.131,-166.499 936.448,136.608 1075.86,223.324"/>
<polygon fill="#6666ff" stroke="#6666ff" points="1077.89,220.464 1084.54,228.718 1074.2,226.408 1077.89,220.464"/>
</g>
<!-- Metamodel::ClassHOW&#45;&gt;Metamodel::MethodContainer -->
<g id="edge47" class="edge"><title>Metamodel::ClassHOW&#45;&gt;Metamodel::MethodContainer</title>
<path fill="none" stroke="#6666ff" d="M260.214,-276.846C117.208,-339.216 -383.213,-557.467 -542.125,-626.774"/>
<polygon fill="#6666ff" stroke="#6666ff" points="-543.884,-623.722 -551.651,-630.928 -541.086,-630.139 -543.884,-623.722"/>
</g>
<!-- Metamodel::ClassHOW&#45;&gt;Metamodel::PrivateMethodContainer -->
<g id="edge48" class="edge"><title>Metamodel::ClassHOW&#45;&gt;Metamodel::PrivateMethodContainer</title>
<path fill="none" stroke="#6666ff" d="M209.185,-269.264C183.189,-271.939 154.3,-274.912 126.503,-277.773"/>
<polygon fill="#6666ff" stroke="#6666ff" points="125.907,-274.315 116.318,-278.821 126.624,-281.278 125.907,-274.315"/>
</g>
<!-- Metamodel::ClassHOW&#45;&gt;Metamodel::MultiMethodContainer -->
<g id="edge49" class="edge"><title>Metamodel::ClassHOW&#45;&gt;Metamodel::MultiMethodContainer</title>
<path fill="none" stroke="#6666ff" d="M196.734,-263.858C110.591,-267.075 1.14787,-271.162 1.14787,-271.162 1.14787,-271.162 -109.614,-276.826 -109.614,-276.826 -109.614,-276.826 -141.935,-278.963 -181.262,-281.562"/>
<polygon fill="#6666ff" stroke="#6666ff" points="-181.648,-278.08 -191.395,-282.232 -181.186,-285.065 -181.648,-278.08"/>
</g>
<!-- Metamodel::ClassHOW&#45;&gt;Metamodel::AttributeContainer -->
<g id="edge45" class="edge"><title>Metamodel::ClassHOW&#45;&gt;Metamodel::AttributeContainer</title>
<path fill="none" stroke="#6666ff" d="M237.252,-274.607C182.232,-287.636 110.184,-304.697 110.184,-304.697 110.184,-304.697 -758.789,-488.253 -1032.32,-546.031"/>
<polygon fill="#6666ff" stroke="#6666ff" points="-1033.12,-542.624 -1042.18,-548.115 -1031.67,-549.473 -1033.12,-542.624"/>
</g>
<!-- Metamodel::ClassHOW&#45;&gt;Metamodel::RoleContainer -->
<g id="edge50" class="edge"><title>Metamodel::ClassHOW&#45;&gt;Metamodel::RoleContainer</title>
<path fill="none" stroke="#6666ff" d="M202.355,-253.24C17.4103,-240.173 -386.581,-211.629 -585.817,-197.552"/>
<polygon fill="#6666ff" stroke="#6666ff" points="-585.8,-194.045 -596.022,-196.831 -586.293,-201.027 -585.8,-194.045"/>
</g>
<!-- Metamodel::ClassHOW&#45;&gt;Metamodel::Finalization -->
<g id="edge46" class="edge"><title>Metamodel::ClassHOW&#45;&gt;Metamodel::Finalization</title>
<path fill="none" stroke="#6666ff" d="M309.397,-278.023C347.232,-341.765 475.135,-557.247 520.316,-633.364"/>
<polygon fill="#6666ff" stroke="#6666ff" points="517.531,-635.53 525.645,-642.342 523.551,-631.957 517.531,-635.53"/>
</g>
<!-- Metamodel::ClassHOW&#45;&gt;Metamodel::DefaultParent -->
<g id="edge52" class="edge"><title>Metamodel::ClassHOW&#45;&gt;Metamodel::DefaultParent</title>
<path fill="none" stroke="#6666ff" d="M403.119,-260.67C440.42,-260.892 482.806,-261.144 521.567,-261.375"/>
<polygon fill="#6666ff" stroke="#6666ff" points="521.844,-264.876 531.865,-261.436 521.886,-257.876 521.844,-264.876"/>
</g>
<!-- Metamodel::ClassHOW&#45;&gt;Metamodel::Trusting -->
<g id="edge56" class="edge"><title>Metamodel::ClassHOW&#45;&gt;Metamodel::Trusting</title>
<path fill="none" stroke="#6666ff" d="M292.172,-278.146C269.233,-341.468 192.475,-553.35 164.856,-629.59"/>
<polygon fill="#6666ff" stroke="#6666ff" points="161.558,-628.419 161.442,-639.013 168.139,-630.803 161.558,-628.419"/>
</g>
<!-- Metamodel::ClassHOW&#45;&gt;Metamodel::BUILDPLAN -->
<g id="edge57" class="edge"><title>Metamodel::ClassHOW&#45;&gt;Metamodel::BUILDPLAN</title>
<path fill="none" stroke="#6666ff" d="M382.048,-249.177C534.82,-229.242 858.9,-186.954 1020.69,-165.842"/>
<polygon fill="#6666ff" stroke="#6666ff" points="1021.17,-169.309 1030.64,-164.544 1020.27,-162.368 1021.17,-169.309"/>
</g>
<!-- Metamodel::ClassHOW&#45;&gt;Metamodel::Mixins -->
<g id="edge58" class="edge"><title>Metamodel::ClassHOW&#45;&gt;Metamodel::Mixins</title>
<path fill="none" stroke="#6666ff" d="M335.32,-276.981C464.476,-336.744 898.809,-537.717 1039.95,-603.026"/>
<polygon fill="#6666ff" stroke="#6666ff" points="1038.66,-606.287 1049.21,-607.31 1041.6,-599.934 1038.66,-606.287"/>
</g>
<!-- Metamodel::ClassHOW&#45;&gt;Metamodel::BoolificationProtocol -->
<g id="edge59" class="edge"><title>Metamodel::ClassHOW&#45;&gt;Metamodel::BoolificationProtocol</title>
<path fill="none" stroke="#6666ff" d="M277.254,-277.734C198.726,-342.409 -72.9965,-566.194 -163.824,-640.997"/>
<polygon fill="#6666ff" stroke="#6666ff" points="-166.296,-638.499 -171.79,-647.558 -161.846,-643.902 -166.296,-638.499"/>
</g>
</g>
</svg>
