<?xml version="1.0" encoding="UTF-8" standalone="no"?>
<!DOCTYPE svg PUBLIC "-//W3C//DTD SVG 1.1//EN"
 "http://www.w3.org/Graphics/SVG/1.1/DTD/svg11.dtd">
<!-- Generated by graphviz version 2.38.0 (20140413.2041)
 -->
<!-- Title: perl6&#45;type&#45;graph Pages: 1 -->
<svg width="322pt" height="260pt"
 viewBox="0.00 0.00 321.99 260.00" xmlns="http://www.w3.org/2000/svg" xmlns:xlink="http://www.w3.org/1999/xlink">
<g id="graph0" class="graph" transform="scale(1 1) rotate(0) translate(4 256)">
<title>perl6&#45;type&#45;graph</title>
<polygon fill="white" stroke="none" points="-4,4 -4,-256 317.994,-256 317.994,4 -4,4"/>
<!-- Uni -->
<g id="node1" class="node"><title>Uni</title>
<g id="a_node1"><a xlink:href="/type/Uni" xlink:title="Uni">
<ellipse fill="none" stroke="#000000" cx="159.747" cy="-90" rx="27" ry="18"/>
<text text-anchor="middle" x="159.747" y="-86.3" font-family="FreeSans" font-size="14.00" fill="#000000">Uni</text>
</a>
</g>
</g>
<!-- Any -->
<g id="node3" class="node"><title>Any</title>
<g id="a_node3"><a xlink:href="/type/Any" xlink:title="Any">
<ellipse fill="none" stroke="#000000" cx="65.7468" cy="-162" rx="27" ry="18"/>
<text text-anchor="middle" x="65.7468" y="-158.3" font-family="FreeSans" font-size="14.00" fill="#000000">Any</text>
</a>
</g>
</g>
<!-- Uni&#45;&gt;Any -->
<g id="edge1" class="edge"><title>Uni&#45;&gt;Any</title>
<path fill="none" stroke="#000000" d="M142.066,-104.166C127.797,-114.793 107.524,-129.89 91.4582,-141.853"/>
<polygon fill="#000000" stroke="#000000" points="88.9606,-139.349 83.0306,-148.129 93.1415,-144.964 88.9606,-139.349"/>
</g>
<!-- Positional -->
<g id="node4" class="node"><title>Positional</title>
<g id="a_node4"><a xlink:href="/type/Positional" xlink:title="Positional">
<ellipse fill="none" stroke="#6666ff" cx="159.747" cy="-162" rx="48.9926" ry="18"/>
<text text-anchor="middle" x="159.747" y="-158.3" font-family="FreeSans" font-size="14.00" fill="#6666ff">Positional</text>
</a>
</g>
</g>
<!-- Uni&#45;&gt;Positional -->
<g id="edge7" class="edge"><title>Uni&#45;&gt;Positional</title>
<path fill="none" stroke="#6666ff" d="M159.747,-108.303C159.747,-116.017 159.747,-125.288 159.747,-133.888"/>
<polygon fill="#6666ff" stroke="#6666ff" points="156.247,-133.896 159.747,-143.896 163.247,-133.896 156.247,-133.896"/>
</g>
<!-- Stringy -->
<g id="node5" class="node"><title>Stringy</title>
<g id="a_node5"><a xlink:href="/type/Stringy" xlink:title="Stringy">
<ellipse fill="none" stroke="#6666ff" cx="264.747" cy="-162" rx="38.1938" ry="18"/>
<text text-anchor="middle" x="264.747" y="-158.3" font-family="FreeSans" font-size="14.00" fill="#6666ff">Stringy</text>
</a>
</g>
</g>
<!-- Uni&#45;&gt;Stringy -->
<g id="edge8" class="edge"><title>Uni&#45;&gt;Stringy</title>
<path fill="none" stroke="#6666ff" d="M178.519,-103.515C194.233,-113.991 216.94,-129.129 235.107,-141.24"/>
<polygon fill="#6666ff" stroke="#6666ff" points="233.349,-144.275 243.611,-146.909 237.232,-138.45 233.349,-144.275"/>
</g>
<!-- Mu -->
<g id="node2" class="node"><title>Mu</title>
<g id="a_node2"><a xlink:href="/type/Mu" xlink:title="Mu">
<ellipse fill="none" stroke="#000000" cx="65.7468" cy="-234" rx="27" ry="18"/>
<text text-anchor="middle" x="65.7468" y="-230.3" font-family="FreeSans" font-size="14.00" fill="#000000">Mu</text>
</a>
</g>
</g>
<!-- Any&#45;&gt;Mu -->
<g id="edge2" class="edge"><title>Any&#45;&gt;Mu</title>
<path fill="none" stroke="#000000" d="M65.7468,-180.303C65.7468,-188.017 65.7468,-197.288 65.7468,-205.888"/>
<polygon fill="#000000" stroke="#000000" points="62.2469,-205.896 65.7468,-215.896 69.2469,-205.896 62.2469,-205.896"/>
</g>
<!-- NFKC -->
<g id="node6" class="node"><title>NFKC</title>
<g id="a_node6"><a xlink:href="/type/NFKC" xlink:title="NFKC">
<ellipse fill="none" stroke="#000000" cx="35.7468" cy="-18" rx="35.9954" ry="18"/>
<text text-anchor="middle" x="35.7468" y="-14.3" font-family="FreeSans" font-size="14.00" fill="#000000">NFKC</text>
</a>
</g>
</g>
<!-- NFKC&#45;&gt;Uni -->
<g id="edge3" class="edge"><title>NFKC&#45;&gt;Uni</title>
<path fill="none" stroke="#000000" d="M58.7797,-32.0024C79.1259,-43.4882 108.888,-60.2892 130.831,-72.6763"/>
<polygon fill="#000000" stroke="#000000" points="129.277,-75.8183 139.706,-77.6864 132.718,-69.7226 129.277,-75.8183"/>
</g>
<!-- NFC -->
<g id="node7" class="node"><title>NFC</title>
<g id="a_node7"><a xlink:href="/type/NFC" xlink:title="NFC">
<ellipse fill="none" stroke="#000000" cx="118.747" cy="-18" rx="29.4969" ry="18"/>
<text text-anchor="middle" x="118.747" y="-14.3" font-family="FreeSans" font-size="14.00" fill="#000000">NFC</text>
</a>
</g>
</g>
<!-- NFC&#45;&gt;Uni -->
<g id="edge4" class="edge"><title>NFC&#45;&gt;Uni</title>
<path fill="none" stroke="#000000" d="M128.256,-35.2354C133.276,-43.8052 139.543,-54.506 145.162,-64.0996"/>
<polygon fill="#000000" stroke="#000000" points="142.215,-65.9928 150.289,-72.8527 148.255,-62.4549 142.215,-65.9928"/>
</g>
<!-- NFKD -->
<g id="node8" class="node"><title>NFKD</title>
<g id="a_node8"><a xlink:href="/type/NFKD" xlink:title="NFKD">
<ellipse fill="none" stroke="#000000" cx="201.747" cy="-18" rx="35.9954" ry="18"/>
<text text-anchor="middle" x="201.747" y="-14.3" font-family="FreeSans" font-size="14.00" fill="#000000">NFKD</text>
</a>
</g>
</g>
<!-- NFKD&#45;&gt;Uni -->
<g id="edge5" class="edge"><title>NFKD&#45;&gt;Uni</title>
<path fill="none" stroke="#000000" d="M191.793,-35.589C186.646,-44.1677 180.261,-54.8092 174.549,-64.3305"/>
<polygon fill="#000000" stroke="#000000" points="171.483,-62.6362 169.34,-73.0119 177.486,-66.2377 171.483,-62.6362"/>
</g>
<!-- NFD -->
<g id="node9" class="node"><title>NFD</title>
<g id="a_node9"><a xlink:href="/type/NFD" xlink:title="NFD">
<ellipse fill="none" stroke="#000000" cx="284.747" cy="-18" rx="29.4969" ry="18"/>
<text text-anchor="middle" x="284.747" y="-14.3" font-family="FreeSans" font-size="14.00" fill="#000000">NFD</text>
</a>
</g>
</g>
<!-- NFD&#45;&gt;Uni -->
<g id="edge6" class="edge"><title>NFD&#45;&gt;Uni</title>
<path fill="none" stroke="#000000" d="M263.825,-30.7164C243.3,-42.2101 211.828,-59.8348 188.864,-72.6942"/>
<polygon fill="#000000" stroke="#000000" points="186.923,-69.7697 179.908,-77.7096 190.344,-75.8772 186.923,-69.7697"/>
</g>
</g>
</svg>
