<?xml version="1.0" encoding="UTF-8" standalone="no"?>
<!DOCTYPE svg PUBLIC "-//W3C//DTD SVG 1.1//EN"
 "http://www.w3.org/Graphics/SVG/1.1/DTD/svg11.dtd">
<!-- Generated by graphviz version 2.38.0 (20140413.2041)
 -->
<!-- Title: perl6&#45;type&#45;graph Pages: 1 -->
<svg width="632pt" height="279pt"
 viewBox="0.00 0.00 631.92 278.96" xmlns="http://www.w3.org/2000/svg" xmlns:xlink="http://www.w3.org/1999/xlink">
<g id="graph0" class="graph" transform="scale(1 1) rotate(0) translate(333.171 135.379)">
<title>perl6&#45;type&#45;graph</title>
<polygon fill="white" stroke="none" points="-333.171,143.58 -333.171,-135.379 298.752,-135.379 298.752,143.58 -333.171,143.58"/>
<!-- Metamodel::BaseDispatcher -->
<g id="node1" class="node"><title>Metamodel::BaseDispatcher</title>
<g id="a_node1"><a xlink:href="/type/Metamodel::BaseDispatcher" xlink:title="Metamodel::BaseDispatcher">
<ellipse fill="none" stroke="#000000" cx="18.1401" cy="-26.5525" rx="121.578" ry="18"/>
<text text-anchor="middle" x="18.1401" y="-22.8525" font-family="FreeSans" font-size="14.00" fill="#000000">Metamodel::BaseDispatcher</text>
</a>
</g>
</g>
<!-- Any -->
<g id="node3" class="node"><title>Any</title>
<g id="a_node3"><a xlink:href="/type/Any" xlink:title="Any">
<ellipse fill="none" stroke="#000000" cx="-52.2865" cy="121.58" rx="27" ry="18"/>
<text text-anchor="middle" x="-52.2865" y="125.28" font-family="FreeSans" font-size="14.00" fill="#000000">Any</text>
</a>
</g>
</g>
<!-- Metamodel::BaseDispatcher&#45;&gt;Any -->
<g id="edge1" class="edge"><title>Metamodel::BaseDispatcher&#45;&gt;Any</title>
<path fill="none" stroke="#000000" d="M9.50445,-8.38846C-2.77152,17.4324 -25.3504,64.9241 -39.5504,94.7919"/>
<polygon fill="#000000" stroke="#000000" points="-36.5632,96.6602 -44.0179,104.189 -42.8851,93.6545 -36.5632,96.6602"/>
</g>
<!-- Mu -->
<g id="node2" class="node"><title>Mu</title>
<g id="a_node2"><a xlink:href="/type/Mu" xlink:title="Mu">
<ellipse fill="none" stroke="#000000" cx="151.727" cy="120.676" rx="27" ry="18"/>
<text text-anchor="middle" x="151.727" y="124.376" font-family="FreeSans" font-size="14.00" fill="#000000">Mu</text>
</a>
</g>
</g>
<!-- Any&#45;&gt;Mu -->
<g id="edge2" class="edge"><title>Any&#45;&gt;Mu</title>
<path fill="none" stroke="#000000" d="M-25.1951,121.46C10.6244,121.302 73.9108,121.021 114.285,120.842"/>
<polygon fill="#000000" stroke="#000000" points="114.508,117.341 124.524,120.797 114.539,124.341 114.508,117.341"/>
</g>
<!-- Metamodel::WrapDispatcher -->
<g id="node4" class="node"><title>Metamodel::WrapDispatcher</title>
<g id="a_node4"><a xlink:href="/type/Metamodel::WrapDispatcher" xlink:title="Metamodel::WrapDispatcher">
<ellipse fill="none" stroke="#000000" cx="-206.332" cy="34.9528" rx="122.678" ry="18"/>
<text text-anchor="middle" x="-206.332" y="38.6528" font-family="FreeSans" font-size="14.00" fill="#000000">Metamodel::WrapDispatcher</text>
</a>
</g>
</g>
<!-- Metamodel::WrapDispatcher&#45;&gt;Metamodel::BaseDispatcher -->
<g id="edge3" class="edge"><title>Metamodel::WrapDispatcher&#45;&gt;Metamodel::BaseDispatcher</title>
<path fill="none" stroke="#000000" d="M-148.233,19.0337C-118.108,10.7795 -81.1409,0.650569 -49.71,-7.96152"/>
<polygon fill="#000000" stroke="#000000" points="-50.2848,-11.433 -39.7153,-10.7001 -48.4349,-4.6818 -50.2848,-11.433"/>
</g>
<!-- Metamodel::MultiDispatcher -->
<g id="node5" class="node"><title>Metamodel::MultiDispatcher</title>
<g id="a_node5"><a xlink:href="/type/Metamodel::MultiDispatcher" xlink:title="Metamodel::MultiDispatcher">
<ellipse fill="none" stroke="#000000" cx="174.513" cy="-63.6799" rx="120.479" ry="18"/>
<text text-anchor="middle" x="174.513" y="-59.9799" font-family="FreeSans" font-size="14.00" fill="#000000">Metamodel::MultiDispatcher</text>
</a>
</g>
</g>
<!-- Metamodel::MultiDispatcher&#45;&gt;Metamodel::BaseDispatcher -->
<g id="edge4" class="edge"><title>Metamodel::MultiDispatcher&#45;&gt;Metamodel::BaseDispatcher</title>
<path fill="none" stroke="#000000" d="M110.007,-48.3644C104.187,-46.9824 98.2615,-45.5756 92.3664,-44.1759"/>
<polygon fill="#000000" stroke="#000000" points="93.0357,-40.7376 82.4976,-41.8328 91.4186,-47.5483 93.0357,-40.7376"/>
</g>
<!-- Metamodel::MethodDispatcher -->
<g id="node6" class="node"><title>Metamodel::MethodDispatcher</title>
<g id="a_node6"><a xlink:href="/type/Metamodel::MethodDispatcher" xlink:title="Metamodel::MethodDispatcher">
<ellipse fill="none" stroke="#000000" cx="-95.4782" cy="-113.379" rx="131.077" ry="18"/>
<text text-anchor="middle" x="-95.4782" y="-109.679" font-family="FreeSans" font-size="14.00" fill="#000000">Metamodel::MethodDispatcher</text>
</a>
</g>
</g>
<!-- Metamodel::MethodDispatcher&#45;&gt;Metamodel::BaseDispatcher -->
<g id="edge5" class="edge"><title>Metamodel::MethodDispatcher&#45;&gt;Metamodel::BaseDispatcher</title>
<path fill="none" stroke="#000000" d="M-72.2117,-95.5984C-55.1324,-82.5466 -31.7512,-64.6789 -13.053,-50.39"/>
<polygon fill="#000000" stroke="#000000" points="-10.9157,-53.1617 -5.09529,-44.3088 -15.1661,-47.5998 -10.9157,-53.1617"/>
</g>
</g>
</svg>
