<?xml version="1.0" encoding="UTF-8" standalone="no"?>
<!DOCTYPE svg PUBLIC "-//W3C//DTD SVG 1.1//EN"
 "http://www.w3.org/Graphics/SVG/1.1/DTD/svg11.dtd">
<!-- Generated by graphviz version 2.38.0 (20140413.2041)
 -->
<!-- Title: perl6&#45;type&#45;graph Pages: 1 -->
<svg width="2362pt" height="1218pt"
 viewBox="0.00 0.00 2361.74 1217.80" xmlns="http://www.w3.org/2000/svg" xmlns:xlink="http://www.w3.org/1999/xlink">
<g id="graph0" class="graph" transform="scale(1 1) rotate(0) translate(1167.54 590.708)">
<title>perl6&#45;type&#45;graph</title>
<polygon fill="white" stroke="none" points="-1167.54,627.087 -1167.54,-590.708 1194.2,-590.708 1194.2,627.087 -1167.54,627.087"/>
<!-- Metamodel::Versioning -->
<g id="node1" class="node"><title>Metamodel::Versioning</title>
<g id="a_node1"><a xlink:href="/type/Metamodel::Versioning" xlink:title="Metamodel::Versioning">
<ellipse fill="none" stroke="#6666ff" cx="-220.372" cy="62.9087" rx="100.983" ry="18"/>
<text text-anchor="middle" x="-220.372" y="66.6087" font-family="FreeSans" font-size="14.00" fill="#6666ff">Metamodel::Versioning</text>
</a>
</g>
</g>
<!-- Mu -->
<g id="node2" class="node"><title>Mu</title>
<g id="a_node2"><a xlink:href="/type/Mu" xlink:title="Mu">
<ellipse fill="none" stroke="#000000" cx="-166.845" cy="605.087" rx="27" ry="18"/>
<text text-anchor="middle" x="-166.845" y="608.787" font-family="FreeSans" font-size="14.00" fill="#000000">Mu</text>
</a>
</g>
</g>
<!-- Any -->
<g id="node3" class="node"><title>Any</title>
<g id="a_node3"><a xlink:href="/type/Any" xlink:title="Any">
<ellipse fill="none" stroke="#000000" cx="-307.631" cy="314.974" rx="27" ry="18"/>
<text text-anchor="middle" x="-307.631" y="318.674" font-family="FreeSans" font-size="14.00" fill="#000000">Any</text>
</a>
</g>
</g>
<!-- Any&#45;&gt;Mu -->
<g id="edge1" class="edge"><title>Any&#45;&gt;Mu</title>
<path fill="none" stroke="#000000" d="M-299.246,332.253C-275.575,381.031 -208.12,520.033 -179.709,578.579"/>
<polygon fill="#000000" stroke="#000000" points="-176.403,577.374 -175.186,587.899 -182.701,580.43 -176.403,577.374"/>
</g>
<!-- Metamodel::Naming -->
<g id="node4" class="node"><title>Metamodel::Naming</title>
<g id="a_node4"><a xlink:href="/type/Metamodel::Naming" xlink:title="Metamodel::Naming">
<ellipse fill="none" stroke="#6666ff" cx="-627.654" cy="204.499" rx="90.1842" ry="18"/>
<text text-anchor="middle" x="-627.654" y="208.199" font-family="FreeSans" font-size="14.00" fill="#6666ff">Metamodel::Naming</text>
</a>
</g>
</g>
<!-- Metamodel::Documenting -->
<g id="node5" class="node"><title>Metamodel::Documenting</title>
<g id="a_node5"><a xlink:href="/type/Metamodel::Documenting" xlink:title="Metamodel::Documenting">
<ellipse fill="none" stroke="#6666ff" cx="302.553" cy="283.548" rx="111.28" ry="18"/>
<text text-anchor="middle" x="302.553" y="287.248" font-family="FreeSans" font-size="14.00" fill="#6666ff">Metamodel::Documenting</text>
</a>
</g>
</g>
<!-- Metamodel::Stashing -->
<g id="node6" class="node"><title>Metamodel::Stashing</title>
<g id="a_node6"><a xlink:href="/type/Metamodel::Stashing" xlink:title="Metamodel::Stashing">
<ellipse fill="none" stroke="#6666ff" cx="-0.435997" cy="307.404" rx="93.6835" ry="18"/>
<text text-anchor="middle" x="-0.435997" y="311.104" font-family="FreeSans" font-size="14.00" fill="#6666ff">Metamodel::Stashing</text>
</a>
</g>
</g>
<!-- Metamodel::MultipleInheritance -->
<g id="node7" class="node"><title>Metamodel::MultipleInheritance</title>
<g id="a_node7"><a xlink:href="/type/Metamodel::MultipleInheritance" xlink:title="Metamodel::MultipleInheritance">
<ellipse fill="none" stroke="#6666ff" cx="68.6709" cy="33.8885" rx="133.776" ry="18"/>
<text text-anchor="middle" x="68.6709" y="37.5885" font-family="FreeSans" font-size="14.00" fill="#6666ff">Metamodel::MultipleInheritance</text>
</a>
</g>
</g>
<!-- Metamodel::C3MRO -->
<g id="node8" class="node"><title>Metamodel::C3MRO</title>
<g id="a_node8"><a xlink:href="/type/Metamodel::C3MRO" xlink:title="Metamodel::C3MRO">
<ellipse fill="none" stroke="#6666ff" cx="653.404" cy="217.235" rx="92.0841" ry="18"/>
<text text-anchor="middle" x="653.404" y="220.935" font-family="FreeSans" font-size="14.00" fill="#6666ff">Metamodel::C3MRO</text>
</a>
</g>
</g>
<!-- Metamodel::MROBasedMethodDispatch -->
<g id="node9" class="node"><title>Metamodel::MROBasedMethodDispatch</title>
<g id="a_node9"><a xlink:href="/type/Metamodel::MROBasedMethodDispatch" xlink:title="Metamodel::MROBasedMethodDispatch">
<ellipse fill="none" stroke="#6666ff" cx="562.313" cy="581.511" rx="169.77" ry="18"/>
<text text-anchor="middle" x="562.313" y="585.211" font-family="FreeSans" font-size="14.00" fill="#6666ff">Metamodel::MROBasedMethodDispatch</text>
</a>
</g>
</g>
<!-- Metamodel::MROBasedTypeChecking -->
<g id="node10" class="node"><title>Metamodel::MROBasedTypeChecking</title>
<g id="a_node10"><a xlink:href="/type/Metamodel::MROBasedTypeChecking" xlink:title="Metamodel::MROBasedTypeChecking">
<ellipse fill="none" stroke="#6666ff" cx="1016.43" cy="522.21" rx="163.271" ry="18"/>
<text text-anchor="middle" x="1016.43" y="525.91" font-family="FreeSans" font-size="14.00" fill="#6666ff">Metamodel::MROBasedTypeChecking</text>
</a>
</g>
</g>
<!-- Metamodel::NativeHOW -->
<g id="node11" class="node"><title>Metamodel::NativeHOW</title>
<g id="a_node11"><a xlink:href="/type/Metamodel::NativeHOW" xlink:title="Metamodel::NativeHOW">
<ellipse fill="none" stroke="#000000" cx="182.806" cy="596.68" rx="107.482" ry="18"/>
<text text-anchor="middle" x="182.806" y="600.38" font-family="FreeSans" font-size="14.00" fill="#000000">Metamodel::NativeHOW</text>
</a>
</g>
</g>
<!-- Metamodel::NativeHOW&#45;&gt;Metamodel::Versioning -->
<g id="edge9" class="edge"><title>Metamodel::NativeHOW&#45;&gt;Metamodel::Versioning</title>
<path fill="none" stroke="#6666ff" d="M165.389,578.591C104.433,515.283 -95.6265,307.504 -95.6265,307.504 -95.6265,307.504 -174.124,153.588 -206.581,89.9484"/>
<polygon fill="#6666ff" stroke="#6666ff" points="-209.774,91.3928 -211.199,80.8943 -203.538,88.2125 -209.774,91.3928"/>
</g>
<!-- Metamodel::NativeHOW&#45;&gt;Any -->
<g id="edge2" class="edge"><title>Metamodel::NativeHOW&#45;&gt;Any</title>
<path fill="none" stroke="#000000" d="M152.497,579.271C64.3417,528.634 -191.212,381.845 -278.22,331.868"/>
<polygon fill="#000000" stroke="#000000" points="-280.115,334.816 -287.043,326.8 -276.628,328.746 -280.115,334.816"/>
</g>
<!-- Metamodel::NativeHOW&#45;&gt;Metamodel::Naming -->
<g id="edge7" class="edge"><title>Metamodel::NativeHOW&#45;&gt;Metamodel::Naming</title>
<path fill="none" stroke="#6666ff" d="M147.461,579.576C16.5845,516.245 -440.302,295.158 -584.026,225.61"/>
<polygon fill="#6666ff" stroke="#6666ff" points="-585.557,228.758 -593.033,221.252 -582.507,222.457 -585.557,228.758"/>
</g>
<!-- Metamodel::NativeHOW&#45;&gt;Metamodel::Documenting -->
<g id="edge8" class="edge"><title>Metamodel::NativeHOW&#45;&gt;Metamodel::Documenting</title>
<path fill="none" stroke="#6666ff" d="M189.762,578.491C209.81,526.066 267.813,374.392 291.886,311.443"/>
<polygon fill="#6666ff" stroke="#6666ff" points="288.737,309.877 295.579,301.787 295.276,312.377 288.737,309.877"/>
</g>
<!-- Metamodel::NativeHOW&#45;&gt;Metamodel::Stashing -->
<g id="edge10" class="edge"><title>Metamodel::NativeHOW&#45;&gt;Metamodel::Stashing</title>
<path fill="none" stroke="#6666ff" d="M171.344,578.584C140.107,529.272 53.3646,392.336 16.4952,334.132"/>
<polygon fill="#6666ff" stroke="#6666ff" points="13.4168,335.813 11.0223,325.492 19.3303,332.067 13.4168,335.813"/>
</g>
<!-- Metamodel::NativeHOW&#45;&gt;Metamodel::MultipleInheritance -->
<g id="edge11" class="edge"><title>Metamodel::NativeHOW&#45;&gt;Metamodel::MultipleInheritance</title>
<path fill="none" stroke="#6666ff" d="M179.138,578.592C162.553,496.813 94.5123,161.31 74.3355,61.8206"/>
<polygon fill="#6666ff" stroke="#6666ff" points="70.8829,62.4051 72.3254,51.909 77.7432,61.0138 70.8829,62.4051"/>
</g>
<!-- Metamodel::NativeHOW&#45;&gt;Metamodel::C3MRO -->
<g id="edge12" class="edge"><title>Metamodel::NativeHOW&#45;&gt;Metamodel::C3MRO</title>
<path fill="none" stroke="#6666ff" d="M204.873,578.888C281.537,517.072 536.404,311.573 623.739,241.153"/>
<polygon fill="#6666ff" stroke="#6666ff" points="621.675,238.322 631.657,234.77 626.069,243.771 621.675,238.322"/>
</g>
<!-- Metamodel::NativeHOW&#45;&gt;Metamodel::MROBasedMethodDispatch -->
<g id="edge13" class="edge"><title>Metamodel::NativeHOW&#45;&gt;Metamodel::MROBasedMethodDispatch</title>
<path fill="none" stroke="#6666ff" d="M287.261,592.505C320.053,591.194 357.136,589.712 393.211,588.27"/>
<polygon fill="#6666ff" stroke="#6666ff" points="393.223,584.767 403.355,587.864 393.503,591.761 393.223,584.767"/>
</g>
<!-- Metamodel::NativeHOW&#45;&gt;Metamodel::MROBasedTypeChecking -->
<g id="edge14" class="edge"><title>Metamodel::NativeHOW&#45;&gt;Metamodel::MROBasedTypeChecking</title>
<path fill="none" stroke="#6666ff" d="M271.986,586.663C346.585,578.283 440.892,567.69 440.892,567.69 440.892,567.69 703.143,546.966 873.591,533.497"/>
<polygon fill="#6666ff" stroke="#6666ff" points="873.421,530 883.665,532.701 873.972,536.978 873.421,530"/>
</g>
<!-- Metamodel::MethodContainer -->
<g id="node12" class="node"><title>Metamodel::MethodContainer</title>
<g id="a_node12"><a xlink:href="/type/Metamodel::MethodContainer" xlink:title="Metamodel::MethodContainer">
<ellipse fill="none" stroke="#6666ff" cx="-635.851" cy="-533.599" rx="127.277" ry="18"/>
<text text-anchor="middle" x="-635.851" y="-529.899" font-family="FreeSans" font-size="14.00" fill="#6666ff">Metamodel::MethodContainer</text>
</a>
</g>
</g>
<!-- Metamodel::PrivateMethodContainer -->
<g id="node13" class="node"><title>Metamodel::PrivateMethodContainer</title>
<g id="a_node13"><a xlink:href="/type/Metamodel::PrivateMethodContainer" xlink:title="Metamodel::PrivateMethodContainer">
<ellipse fill="none" stroke="#6666ff" cx="112.678" cy="-246.732" rx="154.873" ry="18"/>
<text text-anchor="middle" x="112.678" y="-243.032" font-family="FreeSans" font-size="14.00" fill="#6666ff">Metamodel::PrivateMethodContainer</text>
</a>
</g>
</g>
<!-- Metamodel::MultiMethodContainer -->
<g id="node14" class="node"><title>Metamodel::MultiMethodContainer</title>
<g id="a_node14"><a xlink:href="/type/Metamodel::MultiMethodContainer" xlink:title="Metamodel::MultiMethodContainer">
<ellipse fill="none" stroke="#6666ff" cx="-47.6015" cy="-549.057" rx="146.474" ry="18"/>
<text text-anchor="middle" x="-47.6015" y="-545.357" font-family="FreeSans" font-size="14.00" fill="#6666ff">Metamodel::MultiMethodContainer</text>
</a>
</g>
</g>
<!-- Metamodel::AttributeContainer -->
<g id="node15" class="node"><title>Metamodel::AttributeContainer</title>
<g id="a_node15"><a xlink:href="/type/Metamodel::AttributeContainer" xlink:title="Metamodel::AttributeContainer">
<ellipse fill="none" stroke="#6666ff" cx="-319.428" cy="-524.571" rx="129.977" ry="18"/>
<text text-anchor="middle" x="-319.428" y="-520.871" font-family="FreeSans" font-size="14.00" fill="#6666ff">Metamodel::AttributeContainer</text>
</a>
</g>
</g>
<!-- Metamodel::RoleContainer -->
<g id="node16" class="node"><title>Metamodel::RoleContainer</title>
<g id="a_node16"><a xlink:href="/type/Metamodel::RoleContainer" xlink:title="Metamodel::RoleContainer">
<ellipse fill="none" stroke="#6666ff" cx="-133.896" cy="-223.408" rx="115.88" ry="18"/>
<text text-anchor="middle" x="-133.896" y="-219.708" font-family="FreeSans" font-size="14.00" fill="#6666ff">Metamodel::RoleContainer</text>
</a>
</g>
</g>
<!-- Metamodel::TypePretense -->
<g id="node17" class="node"><title>Metamodel::TypePretense</title>
<g id="a_node17"><a xlink:href="/type/Metamodel::TypePretense" xlink:title="Metamodel::TypePretense">
<ellipse fill="none" stroke="#6666ff" cx="-1049.15" cy="46.683" rx="114.28" ry="18"/>
<text text-anchor="middle" x="-1049.15" y="50.383" font-family="FreeSans" font-size="14.00" fill="#6666ff">Metamodel::TypePretense</text>
</a>
</g>
</g>
<!-- Metamodel::RolePunning -->
<g id="node18" class="node"><title>Metamodel::RolePunning</title>
<g id="a_node18"><a xlink:href="/type/Metamodel::RolePunning" xlink:title="Metamodel::RolePunning">
<ellipse fill="none" stroke="#6666ff" cx="-1041.71" cy="-463.439" rx="109.681" ry="18"/>
<text text-anchor="middle" x="-1041.71" y="-459.739" font-family="FreeSans" font-size="14.00" fill="#6666ff">Metamodel::RolePunning</text>
</a>
</g>
</g>
<!-- Metamodel::ParametricRoleHOW -->
<g id="node19" class="node"><title>Metamodel::ParametricRoleHOW</title>
<g id="a_node19"><a xlink:href="/type/Metamodel::ParametricRoleHOW" xlink:title="Metamodel::ParametricRoleHOW">
<ellipse fill="none" stroke="#000000" cx="-699.476" cy="-157.565" rx="142.175" ry="18"/>
<text text-anchor="middle" x="-699.476" y="-153.865" font-family="FreeSans" font-size="14.00" fill="#000000">Metamodel::ParametricRoleHOW</text>
</a>
</g>
</g>
<!-- Metamodel::ParametricRoleHOW&#45;&gt;Metamodel::Versioning -->
<g id="edge17" class="edge"><title>Metamodel::ParametricRoleHOW&#45;&gt;Metamodel::Versioning</title>
<path fill="none" stroke="#6666ff" d="M-661.481,-140.081C-574.392,-100.004 -360.629,-1.63496 -266.335,41.7574"/>
<polygon fill="#6666ff" stroke="#6666ff" points="-264.674,38.669 -257.053,46.029 -267.6,45.028 -264.674,38.669"/>
</g>
<!-- Metamodel::ParametricRoleHOW&#45;&gt;Any -->
<g id="edge3" class="edge"><title>Metamodel::ParametricRoleHOW&#45;&gt;Any</title>
<path fill="none" stroke="#000000" d="M-684.593,-139.618C-624.045,-66.6002 -396.173,208.198 -327.402,291.131"/>
<polygon fill="#000000" stroke="#000000" points="-324.582,289.049 -320.893,298.981 -329.97,293.518 -324.582,289.049"/>
</g>
<!-- Metamodel::ParametricRoleHOW&#45;&gt;Metamodel::Naming -->
<g id="edge15" class="edge"><title>Metamodel::ParametricRoleHOW&#45;&gt;Metamodel::Naming</title>
<path fill="none" stroke="#6666ff" d="M-695.815,-139.113C-684.096,-80.0362 -647.445,104.729 -633.301,176.032"/>
<polygon fill="#6666ff" stroke="#6666ff" points="-629.82,175.593 -631.307,186.083 -636.686,176.956 -629.82,175.593"/>
</g>
<!-- Metamodel::ParametricRoleHOW&#45;&gt;Metamodel::Documenting -->
<g id="edge16" class="edge"><title>Metamodel::ParametricRoleHOW&#45;&gt;Metamodel::Documenting</title>
<path fill="none" stroke="#6666ff" d="M-653.934,-140.492C-521.972,-91.0208 -148.689,48.9198 -148.689,48.9198 -148.689,48.9198 -118.035,62.7246 -118.035,62.7246 -118.035,62.7246 154.295,205.707 260.682,261.564"/>
<polygon fill="#6666ff" stroke="#6666ff" points="262.324,258.473 269.551,266.22 259.07,264.671 262.324,258.473"/>
</g>
<!-- Metamodel::ParametricRoleHOW&#45;&gt;Metamodel::Stashing -->
<g id="edge24" class="edge"><title>Metamodel::ParametricRoleHOW&#45;&gt;Metamodel::Stashing</title>
<path fill="none" stroke="#6666ff" d="M-672.501,-139.623C-563.693,-67.2488 -157.089,203.205 -35.191,284.286"/>
<polygon fill="#6666ff" stroke="#6666ff" points="-32.9714,281.559 -26.5835,290.012 -36.8482,287.387 -32.9714,281.559"/>
</g>
<!-- Metamodel::ParametricRoleHOW&#45;&gt;Metamodel::MultipleInheritance -->
<g id="edge23" class="edge"><title>Metamodel::ParametricRoleHOW&#45;&gt;Metamodel::MultipleInheritance</title>
<path fill="none" stroke="#6666ff" d="M-634.976,-141.489C-493.147,-106.14 -154.901,-21.8348 -5.00512,15.5255"/>
<polygon fill="#6666ff" stroke="#6666ff" points="-3.83229,12.2106 5.02439,18.0252 -5.52524,19.0028 -3.83229,12.2106"/>
</g>
<!-- Metamodel::ParametricRoleHOW&#45;&gt;Metamodel::MethodContainer -->
<g id="edge18" class="edge"><title>Metamodel::ParametricRoleHOW&#45;&gt;Metamodel::MethodContainer</title>
<path fill="none" stroke="#6666ff" d="M-696.407,-175.702C-686.163,-236.249 -653.088,-431.724 -640.645,-505.268"/>
<polygon fill="#6666ff" stroke="#6666ff" points="-644.083,-505.927 -638.964,-515.203 -637.181,-504.759 -644.083,-505.927"/>
</g>
<!-- Metamodel::ParametricRoleHOW&#45;&gt;Metamodel::PrivateMethodContainer -->
<g id="edge19" class="edge"><title>Metamodel::ParametricRoleHOW&#45;&gt;Metamodel::PrivateMethodContainer</title>
<path fill="none" stroke="#6666ff" d="M-578.93,-167.235C-391.252,-182.291 -50.5034,-209.626 -50.5034,-209.626 -50.5034,-209.626 -8.97394,-219.069 32.1835,-228.428"/>
<polygon fill="#6666ff" stroke="#6666ff" points="31.5262,-231.868 42.0534,-230.672 33.0784,-225.042 31.5262,-231.868"/>
</g>
<!-- Metamodel::ParametricRoleHOW&#45;&gt;Metamodel::MultiMethodContainer -->
<g id="edge20" class="edge"><title>Metamodel::ParametricRoleHOW&#45;&gt;Metamodel::MultiMethodContainer</title>
<path fill="none" stroke="#6666ff" d="M-669.772,-175.404C-563.812,-239.04 -204.399,-454.89 -85.8705,-526.074"/>
<polygon fill="#6666ff" stroke="#6666ff" points="-87.4808,-529.19 -77.106,-531.338 -83.8768,-523.189 -87.4808,-529.19"/>
</g>
<!-- Metamodel::ParametricRoleHOW&#45;&gt;Metamodel::AttributeContainer -->
<g id="edge21" class="edge"><title>Metamodel::ParametricRoleHOW&#45;&gt;Metamodel::AttributeContainer</title>
<path fill="none" stroke="#6666ff" d="M-680.888,-175.515C-618.628,-235.639 -417.309,-430.048 -345.321,-499.566"/>
<polygon fill="#6666ff" stroke="#6666ff" points="-347.605,-502.226 -337.98,-506.655 -342.742,-497.191 -347.605,-502.226"/>
</g>
<!-- Metamodel::ParametricRoleHOW&#45;&gt;Metamodel::RoleContainer -->
<g id="edge22" class="edge"><title>Metamodel::ParametricRoleHOW&#45;&gt;Metamodel::RoleContainer</title>
<path fill="none" stroke="#6666ff" d="M-594.75,-169.757C-492.617,-181.647 -338.238,-199.619 -236.749,-211.434"/>
<polygon fill="#6666ff" stroke="#6666ff" points="-237.128,-214.914 -226.79,-212.594 -236.318,-207.961 -237.128,-214.914"/>
</g>
<!-- Metamodel::ParametricRoleHOW&#45;&gt;Metamodel::TypePretense -->
<g id="edge25" class="edge"><title>Metamodel::ParametricRoleHOW&#45;&gt;Metamodel::TypePretense</title>
<path fill="none" stroke="#6666ff" d="M-729.895,-139.797C-793.344,-102.736 -939.731,-17.2292 -1010.05,23.8457"/>
<polygon fill="#6666ff" stroke="#6666ff" points="-1008.65,27.0796 -1019.05,29.1012 -1012.18,21.0352 -1008.65,27.0796"/>
</g>
<!-- Metamodel::ParametricRoleHOW&#45;&gt;Metamodel::RolePunning -->
<g id="edge26" class="edge"><title>Metamodel::ParametricRoleHOW&#45;&gt;Metamodel::RolePunning</title>
<path fill="none" stroke="#6666ff" d="M-719.859,-175.783C-778.489,-228.184 -947.621,-379.347 -1014.26,-438.903"/>
<polygon fill="#6666ff" stroke="#6666ff" points="-1016.74,-436.426 -1021.86,-445.699 -1012.07,-441.645 -1016.74,-436.426"/>
</g>
<!-- Metamodel::ConcreteRoleHOW -->
<g id="node20" class="node"><title>Metamodel::ConcreteRoleHOW</title>
<g id="a_node20"><a xlink:href="/type/Metamodel::ConcreteRoleHOW" xlink:title="Metamodel::ConcreteRoleHOW">
<ellipse fill="none" stroke="#000000" cx="-397.039" cy="-157.952" rx="135.676" ry="18"/>
<text text-anchor="middle" x="-397.039" y="-154.252" font-family="FreeSans" font-size="14.00" fill="#000000">Metamodel::ConcreteRoleHOW</text>
</a>
</g>
</g>
<!-- Metamodel::ConcreteRoleHOW&#45;&gt;Metamodel::Versioning -->
<g id="edge28" class="edge"><title>Metamodel::ConcreteRoleHOW&#45;&gt;Metamodel::Versioning</title>
<path fill="none" stroke="#6666ff" d="M-382.581,-139.878C-351.317,-100.792 -277.322,-8.28747 -241.089,37.0097"/>
<polygon fill="#6666ff" stroke="#6666ff" points="-238.295,34.8994 -234.781,44.8948 -243.761,39.272 -238.295,34.8994"/>
</g>
<!-- Metamodel::ConcreteRoleHOW&#45;&gt;Any -->
<g id="edge4" class="edge"><title>Metamodel::ConcreteRoleHOW&#45;&gt;Any</title>
<path fill="none" stroke="#000000" d="M-393.589,-139.702C-379.91,-67.3501 -329.437,199.631 -312.909,287.058"/>
<polygon fill="#000000" stroke="#000000" points="-309.441,286.557 -311.023,297.033 -316.319,287.857 -309.441,286.557"/>
</g>
<!-- Metamodel::ConcreteRoleHOW&#45;&gt;Metamodel::Naming -->
<g id="edge27" class="edge"><title>Metamodel::ConcreteRoleHOW&#45;&gt;Metamodel::Naming</title>
<path fill="none" stroke="#6666ff" d="M-408.475,-139.978C-446.05,-80.9215 -565.857,107.375 -610.592,177.682"/>
<polygon fill="#6666ff" stroke="#6666ff" points="-607.828,179.858 -616.149,186.416 -613.734,176.1 -607.828,179.858"/>
</g>
<!-- Metamodel::ConcreteRoleHOW&#45;&gt;Metamodel::MultipleInheritance -->
<g id="edge34" class="edge"><title>Metamodel::ConcreteRoleHOW&#45;&gt;Metamodel::MultipleInheritance</title>
<path fill="none" stroke="#6666ff" d="M-355.3,-140.758C-269.911,-105.584 -75.513,-25.5052 17.3863,12.7629"/>
<polygon fill="#6666ff" stroke="#6666ff" points="18.9454,9.61971 26.8586,16.6648 16.2792,16.0921 18.9454,9.61971"/>
</g>
<!-- Metamodel::ConcreteRoleHOW&#45;&gt;Metamodel::MethodContainer -->
<g id="edge30" class="edge"><title>Metamodel::ConcreteRoleHOW&#45;&gt;Metamodel::MethodContainer</title>
<path fill="none" stroke="#6666ff" d="M-408.557,-176.07C-447.335,-237.067 -573.262,-435.147 -619.029,-507.138"/>
<polygon fill="#6666ff" stroke="#6666ff" points="-622.037,-505.345 -624.449,-515.662 -616.13,-509.101 -622.037,-505.345"/>
</g>
<!-- Metamodel::ConcreteRoleHOW&#45;&gt;Metamodel::PrivateMethodContainer -->
<g id="edge29" class="edge"><title>Metamodel::ConcreteRoleHOW&#45;&gt;Metamodel::PrivateMethodContainer</title>
<path fill="none" stroke="#6666ff" d="M-306.443,-171.461C-203.768,-186.771 -50.5034,-209.626 -50.5034,-209.626 -50.5034,-209.626 -8.97394,-219.069 32.1835,-228.428"/>
<polygon fill="#6666ff" stroke="#6666ff" points="31.5262,-231.868 42.0534,-230.672 33.0784,-225.042 31.5262,-231.868"/>
</g>
<!-- Metamodel::ConcreteRoleHOW&#45;&gt;Metamodel::MultiMethodContainer -->
<g id="edge31" class="edge"><title>Metamodel::ConcreteRoleHOW&#45;&gt;Metamodel::MultiMethodContainer</title>
<path fill="none" stroke="#6666ff" d="M-380.885,-176.031C-324.55,-239.084 -136.617,-449.427 -70.6943,-523.211"/>
<polygon fill="#6666ff" stroke="#6666ff" points="-73.2591,-525.593 -63.9864,-530.718 -68.0391,-520.929 -73.2591,-525.593"/>
</g>
<!-- Metamodel::ConcreteRoleHOW&#45;&gt;Metamodel::AttributeContainer -->
<g id="edge32" class="edge"><title>Metamodel::ConcreteRoleHOW&#45;&gt;Metamodel::AttributeContainer</title>
<path fill="none" stroke="#6666ff" d="M-393.19,-176.132C-380.622,-235.502 -340.717,-424.002 -325.449,-496.126"/>
<polygon fill="#6666ff" stroke="#6666ff" points="-328.795,-497.222 -323.3,-506.28 -321.947,-495.772 -328.795,-497.222"/>
</g>
<!-- Metamodel::ConcreteRoleHOW&#45;&gt;Metamodel::RoleContainer -->
<g id="edge33" class="edge"><title>Metamodel::ConcreteRoleHOW&#45;&gt;Metamodel::RoleContainer</title>
<path fill="none" stroke="#6666ff" d="M-333.003,-173.88C-294.436,-183.474 -245.246,-195.71 -205.409,-205.619"/>
<polygon fill="#6666ff" stroke="#6666ff" points="-206.044,-209.068 -195.495,-208.086 -204.354,-202.275 -206.044,-209.068"/>
</g>
<!-- Metamodel::Finalization -->
<g id="node21" class="node"><title>Metamodel::Finalization</title>
<g id="a_node21"><a xlink:href="/type/Metamodel::Finalization" xlink:title="Metamodel::Finalization">
<ellipse fill="none" stroke="#6666ff" cx="615.11" cy="-546.292" rx="103.982" ry="18"/>
<text text-anchor="middle" x="615.11" y="-542.592" font-family="FreeSans" font-size="14.00" fill="#6666ff">Metamodel::Finalization</text>
</a>
</g>
</g>
<!-- Metamodel::DefaultParent -->
<g id="node22" class="node"><title>Metamodel::DefaultParent</title>
<g id="a_node22"><a xlink:href="/type/Metamodel::DefaultParent" xlink:title="Metamodel::DefaultParent">
<ellipse fill="none" stroke="#6666ff" cx="243.015" cy="-568.708" rx="113.18" ry="18"/>
<text text-anchor="middle" x="243.015" y="-565.008" font-family="FreeSans" font-size="14.00" fill="#6666ff">Metamodel::DefaultParent</text>
</a>
</g>
</g>
<!-- Metamodel::Trusting -->
<g id="node23" class="node"><title>Metamodel::Trusting</title>
<g id="a_node23"><a xlink:href="/type/Metamodel::Trusting" xlink:title="Metamodel::Trusting">
<ellipse fill="none" stroke="#6666ff" cx="1035.19" cy="-467.039" rx="91.784" ry="18"/>
<text text-anchor="middle" x="1035.19" y="-463.339" font-family="FreeSans" font-size="14.00" fill="#6666ff">Metamodel::Trusting</text>
</a>
</g>
</g>
<!-- Metamodel::BUILDPLAN -->
<g id="node24" class="node"><title>Metamodel::BUILDPLAN</title>
<g id="a_node24"><a xlink:href="/type/Metamodel::BUILDPLAN" xlink:title="Metamodel::BUILDPLAN">
<ellipse fill="none" stroke="#6666ff" cx="685.828" cy="-161.118" rx="109.681" ry="18"/>
<text text-anchor="middle" x="685.828" y="-157.418" font-family="FreeSans" font-size="14.00" fill="#6666ff">Metamodel::BUILDPLAN</text>
</a>
</g>
</g>
<!-- Metamodel::Mixins -->
<g id="node25" class="node"><title>Metamodel::Mixins</title>
<g id="a_node25"><a xlink:href="/type/Metamodel::Mixins" xlink:title="Metamodel::Mixins">
<ellipse fill="none" stroke="#6666ff" cx="375.916" cy="-293.347" rx="85.2851" ry="18"/>
<text text-anchor="middle" x="375.916" y="-289.647" font-family="FreeSans" font-size="14.00" fill="#6666ff">Metamodel::Mixins</text>
</a>
</g>
</g>
<!-- Metamodel::BoolificationProtocol -->
<g id="node26" class="node"><title>Metamodel::BoolificationProtocol</title>
<g id="a_node26"><a xlink:href="/type/Metamodel::BoolificationProtocol" xlink:title="Metamodel::BoolificationProtocol">
<ellipse fill="none" stroke="#6666ff" cx="1051.11" cy="36.6745" rx="139.175" ry="18"/>
<text text-anchor="middle" x="1051.11" y="40.3745" font-family="FreeSans" font-size="14.00" fill="#6666ff">Metamodel::BoolificationProtocol</text>
</a>
</g>
</g>
<!-- Metamodel::ClassHOW -->
<g id="node27" class="node"><title>Metamodel::ClassHOW</title>
<g id="a_node27"><a xlink:href="/type/Metamodel::ClassHOW" xlink:title="Metamodel::ClassHOW">
<ellipse fill="none" stroke="#000000" cx="357.379" cy="-6.23333" rx="103.982" ry="18"/>
<text text-anchor="middle" x="357.379" y="-2.53333" font-family="FreeSans" font-size="14.00" fill="#000000">Metamodel::ClassHOW</text>
</a>
</g>
</g>
<!-- Metamodel::ClassHOW&#45;&gt;Metamodel::Versioning -->
<g id="edge37" class="edge"><title>Metamodel::ClassHOW&#45;&gt;Metamodel::Versioning</title>
<path fill="none" stroke="#6666ff" d="M260.301,0.400945C146.335,8.18937 -27.3283,20.0575 -27.3283,20.0575 -27.3283,20.0575 -92.4977,34.5236 -147.106,46.6455"/>
<polygon fill="#6666ff" stroke="#6666ff" points="-146.641,50.1273 -157.162,48.8776 -148.158,43.2937 -146.641,50.1273"/>
</g>
<!-- Metamodel::ClassHOW&#45;&gt;Any -->
<g id="edge5" class="edge"><title>Metamodel::ClassHOW&#45;&gt;Any</title>
<path fill="none" stroke="#000000" d="M322.094,10.8094C205.583,67.086 -165.72,246.43 -276.28,299.831"/>
<polygon fill="#000000" stroke="#000000" points="-275.036,303.118 -285.563,304.315 -278.081,296.814 -275.036,303.118"/>
</g>
<!-- Metamodel::ClassHOW&#45;&gt;Metamodel::Naming -->
<g id="edge35" class="edge"><title>Metamodel::ClassHOW&#45;&gt;Metamodel::Naming</title>
<path fill="none" stroke="#6666ff" d="M302.672,9.08311C245.698,25.034 164.67,47.7196 164.67,47.7196 164.67,47.7196 -356.578,150.86 -553.512,189.828"/>
<polygon fill="#6666ff" stroke="#6666ff" points="-552.997,193.294 -563.486,191.802 -554.356,186.427 -552.997,193.294"/>
</g>
<!-- Metamodel::ClassHOW&#45;&gt;Metamodel::Documenting -->
<g id="edge36" class="edge"><title>Metamodel::ClassHOW&#45;&gt;Metamodel::Documenting</title>
<path fill="none" stroke="#6666ff" d="M353.949,11.8938C344.68,60.8853 319.076,196.215 307.895,255.317"/>
<polygon fill="#6666ff" stroke="#6666ff" points="311.28,256.253 305.982,265.428 304.402,254.951 311.28,256.253"/>
</g>
<!-- Metamodel::ClassHOW&#45;&gt;Metamodel::Stashing -->
<g id="edge38" class="edge"><title>Metamodel::ClassHOW&#45;&gt;Metamodel::Stashing</title>
<path fill="none" stroke="#6666ff" d="M337.116,11.5278C276.616,64.558 97.1866,221.834 27.5921,282.836"/>
<polygon fill="#6666ff" stroke="#6666ff" points="29.8753,285.489 20.0482,289.449 25.2612,280.225 29.8753,285.489"/>
</g>
<!-- Metamodel::ClassHOW&#45;&gt;Metamodel::MultipleInheritance -->
<g id="edge45" class="edge"><title>Metamodel::ClassHOW&#45;&gt;Metamodel::MultipleInheritance</title>
<path fill="none" stroke="#6666ff" d="M276.189,5.04962C243.856,9.54295 206.257,14.7681 172.015,19.5268"/>
<polygon fill="#6666ff" stroke="#6666ff" points="172.367,23.0113 161.981,20.9212 171.404,16.078 172.367,23.0113"/>
</g>
<!-- Metamodel::ClassHOW&#45;&gt;Metamodel::C3MRO -->
<g id="edge47" class="edge"><title>Metamodel::ClassHOW&#45;&gt;Metamodel::C3MRO</title>
<path fill="none" stroke="#6666ff" d="M380.855,11.4886C433.643,51.3379 561.756,148.05 621.607,193.232"/>
<polygon fill="#6666ff" stroke="#6666ff" points="624.053,190.692 629.925,199.511 619.835,196.279 624.053,190.692"/>
</g>
<!-- Metamodel::ClassHOW&#45;&gt;Metamodel::MROBasedMethodDispatch -->
<g id="edge48" class="edge"><title>Metamodel::ClassHOW&#45;&gt;Metamodel::MROBasedMethodDispatch</title>
<path fill="none" stroke="#6666ff" d="M363.737,12.0012C393.26,96.6726 517.042,451.676 552.677,553.875"/>
<polygon fill="#6666ff" stroke="#6666ff" points="556.042,552.894 556.029,563.489 549.432,555.199 556.042,552.894"/>
</g>
<!-- Metamodel::ClassHOW&#45;&gt;Metamodel::MROBasedTypeChecking -->
<g id="edge49" class="edge"><title>Metamodel::ClassHOW&#45;&gt;Metamodel::MROBasedTypeChecking</title>
<path fill="none" stroke="#6666ff" d="M373.579,11.6776C421.544,64.7099 559.512,217.252 559.512,217.252 559.512,217.252 873.695,426.946 981.003,498.566"/>
<polygon fill="#6666ff" stroke="#6666ff" points="983.177,495.809 989.551,504.272 979.291,501.631 983.177,495.809"/>
</g>
<!-- Metamodel::ClassHOW&#45;&gt;Metamodel::MethodContainer -->
<g id="edge41" class="edge"><title>Metamodel::ClassHOW&#45;&gt;Metamodel::MethodContainer</title>
<path fill="none" stroke="#6666ff" d="M327.406,-23.6472C238.66,-75.2077 -16.6085,-223.516 -16.6085,-223.516 -16.6085,-223.516 -450.647,-440.859 -591.963,-511.622"/>
<polygon fill="#6666ff" stroke="#6666ff" points="-593.857,-508.656 -601.231,-516.263 -590.723,-514.915 -593.857,-508.656"/>
</g>
<!-- Metamodel::ClassHOW&#45;&gt;Metamodel::PrivateMethodContainer -->
<g id="edge42" class="edge"><title>Metamodel::ClassHOW&#45;&gt;Metamodel::PrivateMethodContainer</title>
<path fill="none" stroke="#6666ff" d="M338.986,-24.3098C295.746,-66.8073 187.561,-173.135 138.088,-221.758"/>
<polygon fill="#6666ff" stroke="#6666ff" points="135.629,-219.268 130.95,-228.774 140.535,-224.26 135.629,-219.268"/>
</g>
<!-- Metamodel::ClassHOW&#45;&gt;Metamodel::MultiMethodContainer -->
<g id="edge43" class="edge"><title>Metamodel::ClassHOW&#45;&gt;Metamodel::MultiMethodContainer</title>
<path fill="none" stroke="#6666ff" d="M350.733,-24.3188C330.171,-80.2772 268.961,-246.851 268.961,-246.851 268.961,-246.851 54.3941,-451.687 -21.4391,-524.081"/>
<polygon fill="#6666ff" stroke="#6666ff" points="-23.9306,-521.621 -28.747,-531.058 -19.097,-526.684 -23.9306,-521.621"/>
</g>
<!-- Metamodel::ClassHOW&#45;&gt;Metamodel::AttributeContainer -->
<g id="edge39" class="edge"><title>Metamodel::ClassHOW&#45;&gt;Metamodel::AttributeContainer</title>
<path fill="none" stroke="#6666ff" d="M328.218,-23.7145C235.945,-79.03 -43.6053,-246.613 -43.6053,-246.613 -43.6053,-246.613 -225.664,-430.081 -293.958,-498.904"/>
<polygon fill="#6666ff" stroke="#6666ff" points="-296.771,-496.769 -301.33,-506.333 -291.802,-501.7 -296.771,-496.769"/>
</g>
<!-- Metamodel::ClassHOW&#45;&gt;Metamodel::RoleContainer -->
<g id="edge44" class="edge"><title>Metamodel::ClassHOW&#45;&gt;Metamodel::RoleContainer</title>
<path fill="none" stroke="#6666ff" d="M319.238,-23.094C230.658,-62.2522 11.1709,-159.279 -86.1362,-202.295"/>
<polygon fill="#6666ff" stroke="#6666ff" points="-87.7102,-199.164 -95.4413,-206.409 -84.88,-205.566 -87.7102,-199.164"/>
</g>
<!-- Metamodel::ClassHOW&#45;&gt;Metamodel::Finalization -->
<g id="edge40" class="edge"><title>Metamodel::ClassHOW&#45;&gt;Metamodel::Finalization</title>
<path fill="none" stroke="#6666ff" d="M365.954,-24.202C403.869,-103.651 556.592,-423.672 602.192,-519.224"/>
<polygon fill="#6666ff" stroke="#6666ff" points="599.037,-520.738 606.502,-528.256 605.354,-517.723 599.037,-520.738"/>
</g>
<!-- Metamodel::ClassHOW&#45;&gt;Metamodel::DefaultParent -->
<g id="edge46" class="edge"><title>Metamodel::ClassHOW&#45;&gt;Metamodel::DefaultParent</title>
<path fill="none" stroke="#6666ff" d="M353.008,-24.6275C337.955,-87.9865 289.173,-293.302 289.173,-293.302 289.173,-293.302 259.443,-470.688 247.703,-540.737"/>
<polygon fill="#6666ff" stroke="#6666ff" points="244.245,-540.197 246.044,-550.638 251.149,-541.354 244.245,-540.197"/>
</g>
<!-- Metamodel::ClassHOW&#45;&gt;Metamodel::Trusting -->
<g id="edge50" class="edge"><title>Metamodel::ClassHOW&#45;&gt;Metamodel::Trusting</title>
<path fill="none" stroke="#6666ff" d="M382.273,-23.9791C439.276,-64.6131 574.393,-160.931 574.393,-160.931 574.393,-160.931 893.43,-372.865 1000.58,-444.043"/>
<polygon fill="#6666ff" stroke="#6666ff" points="998.833,-447.086 1009.1,-449.704 1002.71,-441.255 998.833,-447.086"/>
</g>
<!-- Metamodel::ClassHOW&#45;&gt;Metamodel::BUILDPLAN -->
<g id="edge51" class="edge"><title>Metamodel::ClassHOW&#45;&gt;Metamodel::BUILDPLAN</title>
<path fill="none" stroke="#6666ff" d="M393.468,-23.2517C453.666,-51.6387 574.451,-108.597 640.366,-139.679"/>
<polygon fill="#6666ff" stroke="#6666ff" points="639.141,-142.971 649.679,-144.071 642.127,-136.64 639.141,-142.971"/>
</g>
<!-- Metamodel::ClassHOW&#45;&gt;Metamodel::Mixins -->
<g id="edge52" class="edge"><title>Metamodel::ClassHOW&#45;&gt;Metamodel::Mixins</title>
<path fill="none" stroke="#6666ff" d="M358.567,-24.6303C361.718,-73.4503 370.311,-206.539 374.09,-265.077"/>
<polygon fill="#6666ff" stroke="#6666ff" points="370.601,-265.349 374.738,-275.103 377.586,-264.898 370.601,-265.349"/>
</g>
<!-- Metamodel::ClassHOW&#45;&gt;Metamodel::BoolificationProtocol -->
<g id="edge53" class="edge"><title>Metamodel::ClassHOW&#45;&gt;Metamodel::BoolificationProtocol</title>
<path fill="none" stroke="#6666ff" d="M455.67,-0.153992C575.916,7.28333 780.129,19.914 915.32,28.2756"/>
<polygon fill="#6666ff" stroke="#6666ff" points="915.573,24.7845 925.338,28.8952 915.141,31.7711 915.573,24.7845"/>
</g>
<!-- Metamodel::MethodDelegation -->
<g id="node28" class="node"><title>Metamodel::MethodDelegation</title>
<g id="a_node28"><a xlink:href="/type/Metamodel::MethodDelegation" xlink:title="Metamodel::MethodDelegation">
<ellipse fill="none" stroke="#6666ff" cx="-1011.71" cy="522.447" rx="131.077" ry="18"/>
<text text-anchor="middle" x="-1011.71" y="526.147" font-family="FreeSans" font-size="14.00" fill="#6666ff">Metamodel::MethodDelegation</text>
</a>
</g>
</g>
<!-- Metamodel::ModuleHOW -->
<g id="node29" class="node"><title>Metamodel::ModuleHOW</title>
<g id="a_node29"><a xlink:href="/type/Metamodel::ModuleHOW" xlink:title="Metamodel::ModuleHOW">
<ellipse fill="none" stroke="#000000" cx="-561.149" cy="582.799" rx="111.28" ry="18"/>
<text text-anchor="middle" x="-561.149" y="586.499" font-family="FreeSans" font-size="14.00" fill="#000000">Metamodel::ModuleHOW</text>
</a>
</g>
</g>
<!-- Metamodel::ModuleHOW&#45;&gt;Metamodel::Versioning -->
<g id="edge56" class="edge"><title>Metamodel::ModuleHOW&#45;&gt;Metamodel::Versioning</title>
<path fill="none" stroke="#6666ff" d="M-549.22,564.601C-498.202,486.768 -298.21,181.659 -237.767,89.4467"/>
<polygon fill="#6666ff" stroke="#6666ff" points="-240.613,87.404 -232.204,80.9593 -234.759,91.2415 -240.613,87.404"/>
</g>
<!-- Metamodel::ModuleHOW&#45;&gt;Any -->
<g id="edge6" class="edge"><title>Metamodel::ModuleHOW&#45;&gt;Any</title>
<path fill="none" stroke="#000000" d="M-544.121,564.811C-499.453,517.622 -378.948,390.316 -329.38,337.951"/>
<polygon fill="#000000" stroke="#000000" points="-331.743,335.356 -322.327,330.5 -326.66,340.168 -331.743,335.356"/>
</g>
<!-- Metamodel::ModuleHOW&#45;&gt;Metamodel::Naming -->
<g id="edge54" class="edge"><title>Metamodel::ModuleHOW&#45;&gt;Metamodel::Naming</title>
<path fill="none" stroke="#6666ff" d="M-564.357,564.553C-575.09,503.501 -609.797,306.078 -622.733,232.49"/>
<polygon fill="#6666ff" stroke="#6666ff" points="-626.194,233.017 -624.479,222.562 -619.3,231.805 -626.194,233.017"/>
</g>
<!-- Metamodel::ModuleHOW&#45;&gt;Metamodel::Documenting -->
<g id="edge55" class="edge"><title>Metamodel::ModuleHOW&#45;&gt;Metamodel::Documenting</title>
<path fill="none" stroke="#6666ff" d="M-513.791,566.391C-366.134,515.232 85.5257,358.743 245.583,303.287"/>
<polygon fill="#6666ff" stroke="#6666ff" points="244.653,299.905 255.248,299.938 246.945,306.519 244.653,299.905"/>
</g>
<!-- Metamodel::ModuleHOW&#45;&gt;Metamodel::Stashing -->
<g id="edge57" class="edge"><title>Metamodel::ModuleHOW&#45;&gt;Metamodel::Stashing</title>
<path fill="none" stroke="#6666ff" d="M-526.074,565.572C-428.095,517.45 -151.649,381.672 -44.053,328.826"/>
<polygon fill="#6666ff" stroke="#6666ff" points="-45.3007,325.54 -34.7819,324.273 -42.2147,331.823 -45.3007,325.54"/>
</g>
<!-- Metamodel::ModuleHOW&#45;&gt;Metamodel::TypePretense -->
<g id="edge58" class="edge"><title>Metamodel::ModuleHOW&#45;&gt;Metamodel::TypePretense</title>
<path fill="none" stroke="#6666ff" d="M-577.386,564.962C-649.539,485.694 -941.276,165.193 -1025.98,72.1332"/>
<polygon fill="#6666ff" stroke="#6666ff" points="-1028.71,74.3388 -1032.85,64.5876 -1023.53,69.6267 -1028.71,74.3388"/>
</g>
<!-- Metamodel::ModuleHOW&#45;&gt;Metamodel::MethodDelegation -->
<g id="edge59" class="edge"><title>Metamodel::ModuleHOW&#45;&gt;Metamodel::MethodDelegation</title>
<path fill="none" stroke="#6666ff" d="M-646.956,571.306C-721.145,561.368 -828.606,546.973 -907.679,536.381"/>
<polygon fill="#6666ff" stroke="#6666ff" points="-908.217,539.841 -917.664,535.044 -907.288,532.903 -908.217,539.841"/>
</g>
</g>
</svg>
