<?xml version="1.0" encoding="UTF-8" standalone="no"?>
<!DOCTYPE svg PUBLIC "-//W3C//DTD SVG 1.1//EN"
 "http://www.w3.org/Graphics/SVG/1.1/DTD/svg11.dtd">
<!-- Generated by graphviz version 2.38.0 (20140413.2041)
 -->
<!-- Title: perl6&#45;type&#45;graph Pages: 1 -->
<svg width="632pt" height="332pt"
 viewBox="0.00 0.00 632.09 332.00" xmlns="http://www.w3.org/2000/svg" xmlns:xlink="http://www.w3.org/1999/xlink">
<g id="graph0" class="graph" transform="scale(1 1) rotate(0) translate(4 328)">
<title>perl6&#45;type&#45;graph</title>
<polygon fill="white" stroke="none" points="-4,4 -4,-328 628.088,-328 628.088,4 -4,4"/>
<!-- IO -->
<g id="node1" class="node"><title>IO</title>
<g id="a_node1"><a xlink:href="/type/IO" xlink:title="IO">
<ellipse fill="none" stroke="#6666ff" cx="229.644" cy="-162" rx="27" ry="18"/>
<text text-anchor="middle" x="229.644" y="-158.3" font-family="FreeSans" font-size="14.00" fill="#6666ff">IO</text>
</a>
</g>
</g>
<!-- Mu -->
<g id="node2" class="node"><title>Mu</title>
<g id="a_node2"><a xlink:href="/type/Mu" xlink:title="Mu">
<ellipse fill="none" stroke="#000000" cx="238.644" cy="-306" rx="27" ry="18"/>
<text text-anchor="middle" x="238.644" y="-302.3" font-family="FreeSans" font-size="14.00" fill="#000000">Mu</text>
</a>
</g>
</g>
<!-- Any -->
<g id="node3" class="node"><title>Any</title>
<g id="a_node3"><a xlink:href="/type/Any" xlink:title="Any">
<ellipse fill="none" stroke="#000000" cx="238.644" cy="-234" rx="27" ry="18"/>
<text text-anchor="middle" x="238.644" y="-230.3" font-family="FreeSans" font-size="14.00" fill="#000000">Any</text>
</a>
</g>
</g>
<!-- Any&#45;&gt;Mu -->
<g id="edge1" class="edge"><title>Any&#45;&gt;Mu</title>
<path fill="none" stroke="#000000" d="M238.644,-252.303C238.644,-260.017 238.644,-269.288 238.644,-277.888"/>
<polygon fill="#000000" stroke="#000000" points="235.144,-277.896 238.644,-287.896 242.144,-277.896 235.144,-277.896"/>
</g>
<!-- IO::Special -->
<g id="node4" class="node"><title>IO::Special</title>
<g id="a_node4"><a xlink:href="/type/IO::Special" xlink:title="IO::Special">
<ellipse fill="none" stroke="#000000" cx="177.644" cy="-90" rx="53.8905" ry="18"/>
<text text-anchor="middle" x="177.644" y="-86.3" font-family="FreeSans" font-size="14.00" fill="#000000">IO::Special</text>
</a>
</g>
</g>
<!-- IO::Special&#45;&gt;IO -->
<g id="edge9" class="edge"><title>IO::Special&#45;&gt;IO</title>
<path fill="none" stroke="#6666ff" d="M189.967,-107.589C196.564,-116.47 204.804,-127.561 212.062,-137.332"/>
<polygon fill="#6666ff" stroke="#6666ff" points="209.349,-139.549 218.122,-145.489 214.968,-135.375 209.349,-139.549"/>
</g>
<!-- IO::Special&#45;&gt;Any -->
<g id="edge2" class="edge"><title>IO::Special&#45;&gt;Any</title>
<path fill="none" stroke="#000000" d="M180.729,-108.16C185.379,-134.022 193.644,-180 193.644,-180 193.644,-180 207.114,-195.865 219.315,-210.235"/>
<polygon fill="#000000" stroke="#000000" points="216.729,-212.596 225.869,-217.954 222.065,-208.066 216.729,-212.596"/>
</g>
<!-- Cool -->
<g id="node5" class="node"><title>Cool</title>
<g id="a_node5"><a xlink:href="/type/Cool" xlink:title="Cool">
<ellipse fill="none" stroke="#000000" cx="303.644" cy="-162" rx="28.6953" ry="18"/>
<text text-anchor="middle" x="303.644" y="-158.3" font-family="FreeSans" font-size="14.00" fill="#000000">Cool</text>
</a>
</g>
</g>
<!-- Cool&#45;&gt;Any -->
<g id="edge3" class="edge"><title>Cool&#45;&gt;Any</title>
<path fill="none" stroke="#000000" d="M289.859,-177.845C280.983,-187.404 269.281,-200.006 259.304,-210.751"/>
<polygon fill="#000000" stroke="#000000" points="256.649,-208.467 252.409,-218.176 261.778,-213.23 256.649,-208.467"/>
</g>
<!-- IO::Path -->
<g id="node6" class="node"><title>IO::Path</title>
<g id="a_node6"><a xlink:href="/type/IO::Path" xlink:title="IO::Path">
<ellipse fill="none" stroke="#000000" cx="299.644" cy="-90" rx="43.5923" ry="18"/>
<text text-anchor="middle" x="299.644" y="-86.3" font-family="FreeSans" font-size="14.00" fill="#000000">IO::Path</text>
</a>
</g>
</g>
<!-- IO::Path&#45;&gt;IO -->
<g id="edge10" class="edge"><title>IO::Path&#45;&gt;IO</title>
<path fill="none" stroke="#6666ff" d="M283.76,-106.884C274.152,-116.492 261.772,-128.872 251.278,-139.366"/>
<polygon fill="#6666ff" stroke="#6666ff" points="248.633,-137.061 244.037,-146.607 253.583,-142.011 248.633,-137.061"/>
</g>
<!-- IO::Path&#45;&gt;Cool -->
<g id="edge4" class="edge"><title>IO::Path&#45;&gt;Cool</title>
<path fill="none" stroke="#000000" d="M300.633,-108.303C301.074,-116.017 301.603,-125.288 302.095,-133.888"/>
<polygon fill="#000000" stroke="#000000" points="298.602,-134.112 302.667,-143.896 305.59,-133.712 298.602,-134.112"/>
</g>
<!-- IO::Path::Unix -->
<g id="node7" class="node"><title>IO::Path::Unix</title>
<g id="a_node7"><a xlink:href="/type/IO::Path::Unix" xlink:title="IO::Path::Unix">
<ellipse fill="none" stroke="#000000" cx="65.6442" cy="-18" rx="65.7887" ry="18"/>
<text text-anchor="middle" x="65.6442" y="-14.3" font-family="FreeSans" font-size="14.00" fill="#000000">IO::Path::Unix</text>
</a>
</g>
</g>
<!-- IO::Path::Unix&#45;&gt;IO::Path -->
<g id="edge5" class="edge"><title>IO::Path::Unix&#45;&gt;IO::Path</title>
<path fill="none" stroke="#000000" d="M108.291,-31.7577C150.029,-44.2433 213.321,-63.1769 255.549,-75.8091"/>
<polygon fill="#000000" stroke="#000000" points="254.693,-79.2063 265.277,-78.7191 256.699,-72.4999 254.693,-79.2063"/>
</g>
<!-- IO::Path::QNX -->
<g id="node8" class="node"><title>IO::Path::QNX</title>
<g id="a_node8"><a xlink:href="/type/IO::Path::QNX" xlink:title="IO::Path::QNX">
<ellipse fill="none" stroke="#000000" cx="217.644" cy="-18" rx="68.4888" ry="18"/>
<text text-anchor="middle" x="217.644" y="-14.3" font-family="FreeSans" font-size="14.00" fill="#000000">IO::Path::QNX</text>
</a>
</g>
</g>
<!-- IO::Path::QNX&#45;&gt;IO::Path -->
<g id="edge6" class="edge"><title>IO::Path::QNX&#45;&gt;IO::Path</title>
<path fill="none" stroke="#000000" d="M237.077,-35.589C248.005,-44.9181 261.792,-56.6869 273.64,-66.8014"/>
<polygon fill="#000000" stroke="#000000" points="271.596,-69.6585 281.474,-73.4892 276.141,-64.3345 271.596,-69.6585"/>
</g>
<!-- IO::Path::Cygwin -->
<g id="node9" class="node"><title>IO::Path::Cygwin</title>
<g id="a_node9"><a xlink:href="/type/IO::Path::Cygwin" xlink:title="IO::Path::Cygwin">
<ellipse fill="none" stroke="#000000" cx="381.644" cy="-18" rx="77.1866" ry="18"/>
<text text-anchor="middle" x="381.644" y="-14.3" font-family="FreeSans" font-size="14.00" fill="#000000">IO::Path::Cygwin</text>
</a>
</g>
</g>
<!-- IO::Path::Cygwin&#45;&gt;IO::Path -->
<g id="edge7" class="edge"><title>IO::Path::Cygwin&#45;&gt;IO::Path</title>
<path fill="none" stroke="#000000" d="M362.211,-35.589C351.283,-44.9181 337.497,-56.6869 325.648,-66.8014"/>
<polygon fill="#000000" stroke="#000000" points="323.147,-64.3345 317.814,-73.4892 327.692,-69.6585 323.147,-64.3345"/>
</g>
<!-- IO::Path::Win32 -->
<g id="node10" class="node"><title>IO::Path::Win32</title>
<g id="a_node10"><a xlink:href="/type/IO::Path::Win32" xlink:title="IO::Path::Win32">
<ellipse fill="none" stroke="#000000" cx="550.644" cy="-18" rx="73.387" ry="18"/>
<text text-anchor="middle" x="550.644" y="-14.3" font-family="FreeSans" font-size="14.00" fill="#000000">IO::Path::Win32</text>
</a>
</g>
</g>
<!-- IO::Path::Win32&#45;&gt;IO::Path -->
<g id="edge8" class="edge"><title>IO::Path::Win32&#45;&gt;IO::Path</title>
<path fill="none" stroke="#000000" d="M504.021,-32.0024C458.417,-44.7207 389.445,-63.956 344.468,-76.4994"/>
<polygon fill="#000000" stroke="#000000" points="343.387,-73.167 334.695,-79.2248 345.268,-79.9097 343.387,-73.167"/>
</g>
</g>
</svg>
