<?xml version="1.0" encoding="UTF-8" standalone="no"?>
<!DOCTYPE svg PUBLIC "-//W3C//DTD SVG 1.1//EN"
 "http://www.w3.org/Graphics/SVG/1.1/DTD/svg11.dtd">
<!-- Generated by graphviz version 2.38.0 (20140413.2041)
 -->
<!-- Title: perl6&#45;type&#45;graph Pages: 1 -->
<svg width="186pt" height="332pt"
 viewBox="0.00 0.00 186.08 332.00" xmlns="http://www.w3.org/2000/svg" xmlns:xlink="http://www.w3.org/1999/xlink">
<g id="graph0" class="graph" transform="scale(1 1) rotate(0) translate(4 328)">
<title>perl6&#45;type&#45;graph</title>
<polygon fill="white" stroke="none" points="-4,4 -4,-328 182.084,-328 182.084,4 -4,4"/>
<!-- X::Bind::NativeType -->
<g id="node1" class="node"><title>X::Bind::NativeType</title>
<g id="a_node1"><a xlink:href="/type/X::Bind::NativeType" xlink:title="X::Bind::NativeType">
<ellipse fill="none" stroke="#000000" cx="89.0421" cy="-18" rx="89.0842" ry="18"/>
<text text-anchor="middle" x="89.0421" y="-14.3" font-family="FreeSans" font-size="14.00" fill="#000000">X::Bind::NativeType</text>
</a>
</g>
</g>
<!-- Exception -->
<g id="node4" class="node"><title>Exception</title>
<g id="a_node4"><a xlink:href="/type/Exception" xlink:title="Exception">
<ellipse fill="none" stroke="#000000" cx="89.0421" cy="-162" rx="49.2915" ry="18"/>
<text text-anchor="middle" x="89.0421" y="-158.3" font-family="FreeSans" font-size="14.00" fill="#000000">Exception</text>
</a>
</g>
</g>
<!-- X::Bind::NativeType&#45;&gt;Exception -->
<g id="edge1" class="edge"><title>X::Bind::NativeType&#45;&gt;Exception</title>
<path fill="none" stroke="#000000" d="M83.5696,-36.0613C78.6,-51.5549 72.0421,-72 72.0421,-72 72.0421,-72 72.0421,-108 72.0421,-108 72.0421,-108 76.2064,-120.983 80.4129,-134.097"/>
<polygon fill="#000000" stroke="#000000" points="77.1825,-135.486 83.5696,-143.939 83.848,-133.348 77.1825,-135.486"/>
</g>
<!-- X::Comp -->
<g id="node5" class="node"><title>X::Comp</title>
<g id="a_node5"><a xlink:href="/type/X::Comp" xlink:title="X::Comp">
<ellipse fill="none" stroke="#6666ff" cx="126.042" cy="-90" rx="44.6926" ry="18"/>
<text text-anchor="middle" x="126.042" y="-86.3" font-family="FreeSans" font-size="14.00" fill="#6666ff">X::Comp</text>
</a>
</g>
</g>
<!-- X::Bind::NativeType&#45;&gt;X::Comp -->
<g id="edge5" class="edge"><title>X::Bind::NativeType&#45;&gt;X::Comp</title>
<path fill="none" stroke="#6666ff" d="M97.9988,-35.945C102.316,-44.1134 107.589,-54.0884 112.392,-63.1756"/>
<polygon fill="#6666ff" stroke="#6666ff" points="109.4,-65.0056 117.168,-72.211 115.589,-61.7344 109.4,-65.0056"/>
</g>
<!-- Mu -->
<g id="node2" class="node"><title>Mu</title>
<g id="a_node2"><a xlink:href="/type/Mu" xlink:title="Mu">
<ellipse fill="none" stroke="#000000" cx="89.0421" cy="-306" rx="27" ry="18"/>
<text text-anchor="middle" x="89.0421" y="-302.3" font-family="FreeSans" font-size="14.00" fill="#000000">Mu</text>
</a>
</g>
</g>
<!-- Any -->
<g id="node3" class="node"><title>Any</title>
<g id="a_node3"><a xlink:href="/type/Any" xlink:title="Any">
<ellipse fill="none" stroke="#000000" cx="89.0421" cy="-234" rx="27" ry="18"/>
<text text-anchor="middle" x="89.0421" y="-230.3" font-family="FreeSans" font-size="14.00" fill="#000000">Any</text>
</a>
</g>
</g>
<!-- Any&#45;&gt;Mu -->
<g id="edge2" class="edge"><title>Any&#45;&gt;Mu</title>
<path fill="none" stroke="#000000" d="M89.0421,-252.303C89.0421,-260.017 89.0421,-269.288 89.0421,-277.888"/>
<polygon fill="#000000" stroke="#000000" points="85.5422,-277.896 89.0421,-287.896 92.5422,-277.896 85.5422,-277.896"/>
</g>
<!-- Exception&#45;&gt;Any -->
<g id="edge3" class="edge"><title>Exception&#45;&gt;Any</title>
<path fill="none" stroke="#000000" d="M89.0421,-180.303C89.0421,-188.017 89.0421,-197.288 89.0421,-205.888"/>
<polygon fill="#000000" stroke="#000000" points="85.5422,-205.896 89.0421,-215.896 92.5422,-205.896 85.5422,-205.896"/>
</g>
<!-- X::Comp&#45;&gt;Exception -->
<g id="edge4" class="edge"><title>X::Comp&#45;&gt;Exception</title>
<path fill="none" stroke="#000000" d="M117.085,-107.945C112.768,-116.113 107.495,-126.088 102.692,-135.176"/>
<polygon fill="#000000" stroke="#000000" points="99.4951,-133.734 97.9163,-144.211 105.684,-137.006 99.4951,-133.734"/>
</g>
</g>
</svg>
