<?xml version="1.0" encoding="UTF-8" standalone="no"?>
<!DOCTYPE svg PUBLIC "-//W3C//DTD SVG 1.1//EN"
 "http://www.w3.org/Graphics/SVG/1.1/DTD/svg11.dtd">
<!-- Generated by graphviz version 2.38.0 (20140413.2041)
 -->
<!-- Title: perl6&#45;type&#45;graph Pages: 1 -->
<svg width="1420pt" height="332pt"
 viewBox="0.00 0.00 1420.13 332.00" xmlns="http://www.w3.org/2000/svg" xmlns:xlink="http://www.w3.org/1999/xlink">
<g id="graph0" class="graph" transform="scale(1 1) rotate(0) translate(4 328)">
<title>perl6&#45;type&#45;graph</title>
<polygon fill="white" stroke="none" points="-4,4 -4,-328 1416.13,-328 1416.13,4 -4,4"/>
<!-- X::Proc::Async -->
<g id="node1" class="node"><title>X::Proc::Async</title>
<g id="a_node1"><a xlink:href="/type/X::Proc::Async" xlink:title="X::Proc::Async">
<ellipse fill="none" stroke="#6666ff" cx="640.288" cy="-90" rx="68.4888" ry="18"/>
<text text-anchor="middle" x="640.288" y="-86.3" font-family="FreeSans" font-size="14.00" fill="#6666ff">X::Proc::Async</text>
</a>
</g>
</g>
<!-- Exception -->
<g id="node4" class="node"><title>Exception</title>
<g id="a_node4"><a xlink:href="/type/Exception" xlink:title="Exception">
<ellipse fill="none" stroke="#000000" cx="688.288" cy="-162" rx="49.2915" ry="18"/>
<text text-anchor="middle" x="688.288" y="-158.3" font-family="FreeSans" font-size="14.00" fill="#000000">Exception</text>
</a>
</g>
</g>
<!-- X::Proc::Async&#45;&gt;Exception -->
<g id="edge1" class="edge"><title>X::Proc::Async&#45;&gt;Exception</title>
<path fill="none" stroke="#000000" d="M651.908,-107.945C657.627,-116.285 664.638,-126.509 670.973,-135.748"/>
<polygon fill="#000000" stroke="#000000" points="668.234,-137.943 676.776,-144.211 674.007,-133.984 668.234,-137.943"/>
</g>
<!-- Mu -->
<g id="node2" class="node"><title>Mu</title>
<g id="a_node2"><a xlink:href="/type/Mu" xlink:title="Mu">
<ellipse fill="none" stroke="#000000" cx="688.288" cy="-306" rx="27" ry="18"/>
<text text-anchor="middle" x="688.288" y="-302.3" font-family="FreeSans" font-size="14.00" fill="#000000">Mu</text>
</a>
</g>
</g>
<!-- Any -->
<g id="node3" class="node"><title>Any</title>
<g id="a_node3"><a xlink:href="/type/Any" xlink:title="Any">
<ellipse fill="none" stroke="#000000" cx="688.288" cy="-234" rx="27" ry="18"/>
<text text-anchor="middle" x="688.288" y="-230.3" font-family="FreeSans" font-size="14.00" fill="#000000">Any</text>
</a>
</g>
</g>
<!-- Any&#45;&gt;Mu -->
<g id="edge2" class="edge"><title>Any&#45;&gt;Mu</title>
<path fill="none" stroke="#000000" d="M688.288,-252.303C688.288,-260.017 688.288,-269.288 688.288,-277.888"/>
<polygon fill="#000000" stroke="#000000" points="684.788,-277.896 688.288,-287.896 691.788,-277.896 684.788,-277.896"/>
</g>
<!-- Exception&#45;&gt;Any -->
<g id="edge3" class="edge"><title>Exception&#45;&gt;Any</title>
<path fill="none" stroke="#000000" d="M688.288,-180.303C688.288,-188.017 688.288,-197.288 688.288,-205.888"/>
<polygon fill="#000000" stroke="#000000" points="684.788,-205.896 688.288,-215.896 691.788,-205.896 684.788,-205.896"/>
</g>
<!-- X::Proc::Async::AlreadyStarted -->
<g id="node5" class="node"><title>X::Proc::Async::AlreadyStarted</title>
<g id="a_node5"><a xlink:href="/type/X::Proc::Async::AlreadyStarted" xlink:title="X::Proc::Async::AlreadyStarted">
<ellipse fill="none" stroke="#000000" cx="131.288" cy="-18" rx="131.077" ry="18"/>
<text text-anchor="middle" x="131.288" y="-14.3" font-family="FreeSans" font-size="14.00" fill="#000000">X::Proc::Async::AlreadyStarted</text>
</a>
</g>
</g>
<!-- X::Proc::Async::AlreadyStarted&#45;&gt;X::Proc::Async -->
<g id="edge9" class="edge"><title>X::Proc::Async::AlreadyStarted&#45;&gt;X::Proc::Async</title>
<path fill="none" stroke="#6666ff" d="M220.532,-31.2732C320.564,-45.03 480.606,-67.0397 571.442,-79.532"/>
<polygon fill="#6666ff" stroke="#6666ff" points="570.976,-83.0007 581.36,-80.8958 571.93,-76.066 570.976,-83.0007"/>
</g>
<!-- X::Proc::Async::AlreadyStarted&#45;&gt;Exception -->
<g id="edge4" class="edge"><title>X::Proc::Async::AlreadyStarted&#45;&gt;Exception</title>
<path fill="none" stroke="#000000" d="M190.633,-34.1292C301.18,-62.3118 536.681,-122.35 639.058,-148.449"/>
<polygon fill="#000000" stroke="#000000" points="638.278,-151.862 648.833,-150.941 640.008,-145.079 638.278,-151.862"/>
</g>
<!-- X::Proc::Async::CharsOrBytes -->
<g id="node6" class="node"><title>X::Proc::Async::CharsOrBytes</title>
<g id="a_node6"><a xlink:href="/type/X::Proc::Async::CharsOrBytes" xlink:title="X::Proc::Async::CharsOrBytes">
<ellipse fill="none" stroke="#000000" cx="409.288" cy="-18" rx="128.877" ry="18"/>
<text text-anchor="middle" x="409.288" y="-14.3" font-family="FreeSans" font-size="14.00" fill="#000000">X::Proc::Async::CharsOrBytes</text>
</a>
</g>
</g>
<!-- X::Proc::Async::CharsOrBytes&#45;&gt;X::Proc::Async -->
<g id="edge10" class="edge"><title>X::Proc::Async::CharsOrBytes&#45;&gt;X::Proc::Async</title>
<path fill="none" stroke="#6666ff" d="M460.555,-34.5353C498.257,-45.9603 549.35,-61.4429 587.424,-72.9804"/>
<polygon fill="#6666ff" stroke="#6666ff" points="586.715,-76.4227 597.3,-75.9733 588.745,-69.7236 586.715,-76.4227"/>
</g>
<!-- X::Proc::Async::CharsOrBytes&#45;&gt;Exception -->
<g id="edge5" class="edge"><title>X::Proc::Async::CharsOrBytes&#45;&gt;Exception</title>
<path fill="none" stroke="#000000" d="M438.255,-35.7402C482.865,-61.5213 563.288,-108 563.288,-108 563.288,-108 611.392,-128.396 647.917,-143.883"/>
<polygon fill="#000000" stroke="#000000" points="646.817,-147.218 657.389,-147.899 649.549,-140.773 646.817,-147.218"/>
</g>
<!-- X::Proc::Async::MustBeStarted -->
<g id="node7" class="node"><title>X::Proc::Async::MustBeStarted</title>
<g id="a_node7"><a xlink:href="/type/X::Proc::Async::MustBeStarted" xlink:title="X::Proc::Async::MustBeStarted">
<ellipse fill="none" stroke="#000000" cx="688.288" cy="-18" rx="131.877" ry="18"/>
<text text-anchor="middle" x="688.288" y="-14.3" font-family="FreeSans" font-size="14.00" fill="#000000">X::Proc::Async::MustBeStarted</text>
</a>
</g>
</g>
<!-- X::Proc::Async::MustBeStarted&#45;&gt;X::Proc::Async -->
<g id="edge11" class="edge"><title>X::Proc::Async::MustBeStarted&#45;&gt;X::Proc::Async</title>
<path fill="none" stroke="#6666ff" d="M676.669,-35.945C670.95,-44.2853 663.939,-54.5092 657.604,-63.7483"/>
<polygon fill="#6666ff" stroke="#6666ff" points="654.57,-61.9843 651.801,-72.211 660.343,-65.9431 654.57,-61.9843"/>
</g>
<!-- X::Proc::Async::MustBeStarted&#45;&gt;Exception -->
<g id="edge6" class="edge"><title>X::Proc::Async::MustBeStarted&#45;&gt;Exception</title>
<path fill="none" stroke="#000000" d="M697.624,-36.0613C706.101,-51.5549 717.288,-72 717.288,-72 717.288,-72 717.288,-108 717.288,-108 717.288,-108 709.81,-121.667 702.449,-135.121"/>
<polygon fill="#000000" stroke="#000000" points="699.194,-133.778 697.464,-144.23 705.335,-137.138 699.194,-133.778"/>
</g>
<!-- X::Proc::Async::TapBeforeSpawn -->
<g id="node8" class="node"><title>X::Proc::Async::TapBeforeSpawn</title>
<g id="a_node8"><a xlink:href="/type/X::Proc::Async::TapBeforeSpawn" xlink:title="X::Proc::Async::TapBeforeSpawn">
<ellipse fill="none" stroke="#000000" cx="980.288" cy="-18" rx="141.875" ry="18"/>
<text text-anchor="middle" x="980.288" y="-14.3" font-family="FreeSans" font-size="14.00" fill="#000000">X::Proc::Async::TapBeforeSpawn</text>
</a>
</g>
</g>
<!-- X::Proc::Async::TapBeforeSpawn&#45;&gt;X::Proc::Async -->
<g id="edge12" class="edge"><title>X::Proc::Async::TapBeforeSpawn&#45;&gt;X::Proc::Async</title>
<path fill="none" stroke="#6666ff" d="M909.427,-33.5891C848.164,-46.2022 760.496,-64.2513 702.05,-76.2843"/>
<polygon fill="#6666ff" stroke="#6666ff" points="701.3,-72.8653 692.211,-78.31 702.711,-79.7215 701.3,-72.8653"/>
</g>
<!-- X::Proc::Async::TapBeforeSpawn&#45;&gt;Exception -->
<g id="edge7" class="edge"><title>X::Proc::Async::TapBeforeSpawn&#45;&gt;Exception</title>
<path fill="none" stroke="#000000" d="M946.221,-35.5671C891.212,-62.3178 783.224,-114.832 725.982,-142.669"/>
<polygon fill="#000000" stroke="#000000" points="724.374,-139.559 716.912,-147.08 727.436,-145.854 724.374,-139.559"/>
</g>
<!-- X::Proc::Async::OpenForWriting -->
<g id="node9" class="node"><title>X::Proc::Async::OpenForWriting</title>
<g id="a_node9"><a xlink:href="/type/X::Proc::Async::OpenForWriting" xlink:title="X::Proc::Async::OpenForWriting">
<ellipse fill="none" stroke="#000000" cx="1276.29" cy="-18" rx="135.676" ry="18"/>
<text text-anchor="middle" x="1276.29" y="-14.3" font-family="FreeSans" font-size="14.00" fill="#000000">X::Proc::Async::OpenForWriting</text>
</a>
</g>
</g>
<!-- X::Proc::Async::OpenForWriting&#45;&gt;X::Proc::Async -->
<g id="edge13" class="edge"><title>X::Proc::Async::OpenForWriting&#45;&gt;X::Proc::Async</title>
<path fill="none" stroke="#6666ff" d="M1178.37,-30.4806C1152.32,-33.5341 1131.29,-36 1131.29,-36 1131.29,-36 848.905,-66.4813 712.438,-81.2119"/>
<polygon fill="#6666ff" stroke="#6666ff" points="712.04,-77.7344 702.474,-82.2875 712.792,-84.694 712.04,-77.7344"/>
</g>
<!-- X::Proc::Async::OpenForWriting&#45;&gt;Exception -->
<g id="edge8" class="edge"><title>X::Proc::Async::OpenForWriting&#45;&gt;Exception</title>
<path fill="none" stroke="#000000" d="M1213.92,-34.0621C1096.67,-62.3778 845.559,-123.02 738.411,-148.896"/>
<polygon fill="#000000" stroke="#000000" points="737.399,-145.539 728.5,-151.289 739.042,-152.344 737.399,-145.539"/>
</g>
</g>
</svg>
