<?xml version="1.0" encoding="UTF-8" standalone="no"?>
<!DOCTYPE svg PUBLIC "-//W3C//DTD SVG 1.1//EN"
 "http://www.w3.org/Graphics/SVG/1.1/DTD/svg11.dtd">
<!-- Generated by graphviz version 2.38.0 (20140413.2041)
 -->
<!-- Title: perl6&#45;type&#45;graph Pages: 1 -->
<svg width="2228pt" height="1325pt"
 viewBox="0.00 0.00 2227.79 1325.17" xmlns="http://www.w3.org/2000/svg" xmlns:xlink="http://www.w3.org/1999/xlink">
<g id="graph0" class="graph" transform="scale(1 1) rotate(0) translate(1150.64 638.711)">
<title>perl6&#45;type&#45;graph</title>
<polygon fill="white" stroke="none" points="-1150.64,686.458 -1150.64,-638.711 1077.15,-638.711 1077.15,686.458 -1150.64,686.458"/>
<!-- Metamodel::MultipleInheritance -->
<g id="node1" class="node"><title>Metamodel::MultipleInheritance</title>
<g id="a_node1"><a xlink:href="/type/Metamodel::MultipleInheritance" xlink:title="Metamodel::MultipleInheritance">
<ellipse fill="none" stroke="#6666ff" cx="-62.2904" cy="27.64" rx="133.776" ry="18"/>
<text text-anchor="middle" x="-62.2904" y="31.34" font-family="FreeSans" font-size="14.00" fill="#6666ff">Metamodel::MultipleInheritance</text>
</a>
</g>
</g>
<!-- Mu -->
<g id="node2" class="node"><title>Mu</title>
<g id="a_node2"><a xlink:href="/type/Mu" xlink:title="Mu">
<ellipse fill="none" stroke="#000000" cx="987.375" cy="30.6127" rx="27" ry="18"/>
<text text-anchor="middle" x="987.375" y="34.3127" font-family="FreeSans" font-size="14.00" fill="#000000">Mu</text>
</a>
</g>
</g>
<!-- Any -->
<g id="node3" class="node"><title>Any</title>
<g id="a_node3"><a xlink:href="/type/Any" xlink:title="Any">
<ellipse fill="none" stroke="#000000" cx="606.468" cy="236.205" rx="27" ry="18"/>
<text text-anchor="middle" x="606.468" y="239.905" font-family="FreeSans" font-size="14.00" fill="#000000">Any</text>
</a>
</g>
</g>
<!-- Any&#45;&gt;Mu -->
<g id="edge1" class="edge"><title>Any&#45;&gt;Mu</title>
<path fill="none" stroke="#000000" d="M627.49,224.859C691.205,190.469 882.365,87.2915 957.027,46.9928"/>
<polygon fill="#000000" stroke="#000000" points="955.486,43.8472 965.949,42.1774 958.811,50.0072 955.486,43.8472"/>
</g>
<!-- Metamodel::Naming -->
<g id="node4" class="node"><title>Metamodel::Naming</title>
<g id="a_node4"><a xlink:href="/type/Metamodel::Naming" xlink:title="Metamodel::Naming">
<ellipse fill="none" stroke="#6666ff" cx="255.098" cy="22.5524" rx="90.1842" ry="18"/>
<text text-anchor="middle" x="255.098" y="26.2524" font-family="FreeSans" font-size="14.00" fill="#6666ff">Metamodel::Naming</text>
</a>
</g>
</g>
<!-- Metamodel::Versioning -->
<g id="node5" class="node"><title>Metamodel::Versioning</title>
<g id="a_node5"><a xlink:href="/type/Metamodel::Versioning" xlink:title="Metamodel::Versioning">
<ellipse fill="none" stroke="#6666ff" cx="269.82" cy="337.402" rx="100.983" ry="18"/>
<text text-anchor="middle" x="269.82" y="341.102" font-family="FreeSans" font-size="14.00" fill="#6666ff">Metamodel::Versioning</text>
</a>
</g>
</g>
<!-- Metamodel::PrivateMethodContainer -->
<g id="node6" class="node"><title>Metamodel::PrivateMethodContainer</title>
<g id="a_node6"><a xlink:href="/type/Metamodel::PrivateMethodContainer" xlink:title="Metamodel::PrivateMethodContainer">
<ellipse fill="none" stroke="#6666ff" cx="-361.658" cy="18.1514" rx="154.873" ry="18"/>
<text text-anchor="middle" x="-361.658" y="21.8514" font-family="FreeSans" font-size="14.00" fill="#6666ff">Metamodel::PrivateMethodContainer</text>
</a>
</g>
</g>
<!-- Metamodel::MethodContainer -->
<g id="node7" class="node"><title>Metamodel::MethodContainer</title>
<g id="a_node7"><a xlink:href="/type/Metamodel::MethodContainer" xlink:title="Metamodel::MethodContainer">
<ellipse fill="none" stroke="#6666ff" cx="-666.867" cy="236.393" rx="127.277" ry="18"/>
<text text-anchor="middle" x="-666.867" y="240.093" font-family="FreeSans" font-size="14.00" fill="#6666ff">Metamodel::MethodContainer</text>
</a>
</g>
</g>
<!-- Metamodel::MultiMethodContainer -->
<g id="node8" class="node"><title>Metamodel::MultiMethodContainer</title>
<g id="a_node8"><a xlink:href="/type/Metamodel::MultiMethodContainer" xlink:title="Metamodel::MultiMethodContainer">
<ellipse fill="none" stroke="#6666ff" cx="-313.11" cy="328.653" rx="146.474" ry="18"/>
<text text-anchor="middle" x="-313.11" y="332.353" font-family="FreeSans" font-size="14.00" fill="#6666ff">Metamodel::MultiMethodContainer</text>
</a>
</g>
</g>
<!-- Metamodel::AttributeContainer -->
<g id="node9" class="node"><title>Metamodel::AttributeContainer</title>
<g id="a_node9"><a xlink:href="/type/Metamodel::AttributeContainer" xlink:title="Metamodel::AttributeContainer">
<ellipse fill="none" stroke="#6666ff" cx="-575.444" cy="644.822" rx="129.977" ry="18"/>
<text text-anchor="middle" x="-575.444" y="648.522" font-family="FreeSans" font-size="14.00" fill="#6666ff">Metamodel::AttributeContainer</text>
</a>
</g>
</g>
<!-- Metamodel::RoleContainer -->
<g id="node10" class="node"><title>Metamodel::RoleContainer</title>
<g id="a_node10"><a xlink:href="/type/Metamodel::RoleContainer" xlink:title="Metamodel::RoleContainer">
<ellipse fill="none" stroke="#6666ff" cx="-198.754" cy="660.741" rx="115.88" ry="18"/>
<text text-anchor="middle" x="-198.754" y="664.441" font-family="FreeSans" font-size="14.00" fill="#6666ff">Metamodel::RoleContainer</text>
</a>
</g>
</g>
<!-- Metamodel::ConcreteRoleHOW -->
<g id="node11" class="node"><title>Metamodel::ConcreteRoleHOW</title>
<g id="a_node11"><a xlink:href="/type/Metamodel::ConcreteRoleHOW" xlink:title="Metamodel::ConcreteRoleHOW">
<ellipse fill="none" stroke="#000000" cx="-17.733" cy="326.619" rx="135.676" ry="18"/>
<text text-anchor="middle" x="-17.733" y="330.319" font-family="FreeSans" font-size="14.00" fill="#000000">Metamodel::ConcreteRoleHOW</text>
</a>
</g>
</g>
<!-- Metamodel::ConcreteRoleHOW&#45;&gt;Metamodel::MultipleInheritance -->
<g id="edge13" class="edge"><title>Metamodel::ConcreteRoleHOW&#45;&gt;Metamodel::MultipleInheritance</title>
<path fill="none" stroke="#6666ff" d="M-20.4532,308.367C-27.9751,257.895 -49.093,116.194 -58.1168,55.645"/>
<polygon fill="#6666ff" stroke="#6666ff" points="-61.5935,56.0603 -59.6058,45.6536 -54.6699,55.0284 -61.5935,56.0603"/>
</g>
<!-- Metamodel::ConcreteRoleHOW&#45;&gt;Any -->
<g id="edge2" class="edge"><title>Metamodel::ConcreteRoleHOW&#45;&gt;Any</title>
<path fill="none" stroke="#000000" d="M74.0347,313.327C213.834,293.077 474.01,255.391 569.822,241.513"/>
<polygon fill="#000000" stroke="#000000" points="569.49,238.025 579.889,240.055 570.494,244.952 569.49,238.025"/>
</g>
<!-- Metamodel::ConcreteRoleHOW&#45;&gt;Metamodel::Naming -->
<g id="edge6" class="edge"><title>Metamodel::ConcreteRoleHOW&#45;&gt;Metamodel::Naming</title>
<path fill="none" stroke="#6666ff" d="M-1.48323,308.509C44.9572,256.752 178.364,108.071 232.181,48.0931"/>
<polygon fill="#6666ff" stroke="#6666ff" points="229.65,45.6733 238.933,40.5677 234.86,50.3482 229.65,45.6733"/>
</g>
<!-- Metamodel::ConcreteRoleHOW&#45;&gt;Metamodel::Versioning -->
<g id="edge7" class="edge"><title>Metamodel::ConcreteRoleHOW&#45;&gt;Metamodel::Versioning</title>
<path fill="none" stroke="#6666ff" d="M113.002,331.522C128.945,332.119 145.103,332.725 160.685,333.31"/>
<polygon fill="#6666ff" stroke="#6666ff" points="160.971,329.818 170.833,333.69 160.709,336.813 160.971,329.818"/>
</g>
<!-- Metamodel::ConcreteRoleHOW&#45;&gt;Metamodel::PrivateMethodContainer -->
<g id="edge8" class="edge"><title>Metamodel::ConcreteRoleHOW&#45;&gt;Metamodel::PrivateMethodContainer</title>
<path fill="none" stroke="#6666ff" d="M-37.7104,308.701C-96.122,256.312 -266.711,103.309 -333.952,43.0009"/>
<polygon fill="#6666ff" stroke="#6666ff" points="-336.518,45.4012 -341.625,36.1187 -331.844,40.1901 -336.518,45.4012"/>
</g>
<!-- Metamodel::ConcreteRoleHOW&#45;&gt;Metamodel::MethodContainer -->
<g id="edge9" class="edge"><title>Metamodel::ConcreteRoleHOW&#45;&gt;Metamodel::MethodContainer</title>
<path fill="none" stroke="#6666ff" d="M-111.776,313.548C-232.588,296.756 -441.473,267.722 -565.655,250.461"/>
<polygon fill="#6666ff" stroke="#6666ff" points="-566.501,253.877 -575.924,249.034 -565.537,246.944 -566.501,253.877"/>
</g>
<!-- Metamodel::ConcreteRoleHOW&#45;&gt;Metamodel::MultiMethodContainer -->
<g id="edge10" class="edge"><title>Metamodel::ConcreteRoleHOW&#45;&gt;Metamodel::MultiMethodContainer</title>
<path fill="none" stroke="#6666ff" d="M-153.75,327.556C-154.71,327.562 -155.671,327.569 -156.633,327.576"/>
<polygon fill="#6666ff" stroke="#6666ff" points="-156.924,331.078 -166.948,327.647 -156.973,324.078 -156.924,331.078"/>
</g>
<!-- Metamodel::ConcreteRoleHOW&#45;&gt;Metamodel::AttributeContainer -->
<g id="edge11" class="edge"><title>Metamodel::ConcreteRoleHOW&#45;&gt;Metamodel::AttributeContainer</title>
<path fill="none" stroke="#6666ff" d="M-48.5123,344.181C-143.259,398.238 -430.478,562.112 -536.005,622.32"/>
<polygon fill="#6666ff" stroke="#6666ff" points="-534.339,625.399 -544.759,627.315 -537.808,619.319 -534.339,625.399"/>
</g>
<!-- Metamodel::ConcreteRoleHOW&#45;&gt;Metamodel::RoleContainer -->
<g id="edge12" class="edge"><title>Metamodel::ConcreteRoleHOW&#45;&gt;Metamodel::RoleContainer</title>
<path fill="none" stroke="#6666ff" d="M-27.4655,344.583C-57.4233,399.878 -148.38,567.762 -184.116,633.722"/>
<polygon fill="#6666ff" stroke="#6666ff" points="-181.133,635.563 -188.974,642.688 -187.287,632.228 -181.133,635.563"/>
</g>
<!-- Metamodel::Documenting -->
<g id="node12" class="node"><title>Metamodel::Documenting</title>
<g id="a_node12"><a xlink:href="/type/Metamodel::Documenting" xlink:title="Metamodel::Documenting">
<ellipse fill="none" stroke="#6666ff" cx="291.157" cy="-293.666" rx="111.28" ry="18"/>
<text text-anchor="middle" x="291.157" y="-289.966" font-family="FreeSans" font-size="14.00" fill="#6666ff">Metamodel::Documenting</text>
</a>
</g>
</g>
<!-- Metamodel::Stashing -->
<g id="node13" class="node"><title>Metamodel::Stashing</title>
<g id="a_node13"><a xlink:href="/type/Metamodel::Stashing" xlink:title="Metamodel::Stashing">
<ellipse fill="none" stroke="#6666ff" cx="617.561" cy="-178.497" rx="93.6835" ry="18"/>
<text text-anchor="middle" x="617.561" y="-174.797" font-family="FreeSans" font-size="14.00" fill="#6666ff">Metamodel::Stashing</text>
</a>
</g>
</g>
<!-- Metamodel::Finalization -->
<g id="node14" class="node"><title>Metamodel::Finalization</title>
<g id="a_node14"><a xlink:href="/type/Metamodel::Finalization" xlink:title="Metamodel::Finalization">
<ellipse fill="none" stroke="#6666ff" cx="-177.9" cy="-613.415" rx="103.982" ry="18"/>
<text text-anchor="middle" x="-177.9" y="-609.715" font-family="FreeSans" font-size="14.00" fill="#6666ff">Metamodel::Finalization</text>
</a>
</g>
</g>
<!-- Metamodel::DefaultParent -->
<g id="node15" class="node"><title>Metamodel::DefaultParent</title>
<g id="a_node15"><a xlink:href="/type/Metamodel::DefaultParent" xlink:title="Metamodel::DefaultParent">
<ellipse fill="none" stroke="#6666ff" cx="-559.064" cy="-601.059" rx="113.18" ry="18"/>
<text text-anchor="middle" x="-559.064" y="-597.359" font-family="FreeSans" font-size="14.00" fill="#6666ff">Metamodel::DefaultParent</text>
</a>
</g>
</g>
<!-- Metamodel::C3MRO -->
<g id="node16" class="node"><title>Metamodel::C3MRO</title>
<g id="a_node16"><a xlink:href="/type/Metamodel::C3MRO" xlink:title="Metamodel::C3MRO">
<ellipse fill="none" stroke="#6666ff" cx="157.066" cy="-616.711" rx="92.0841" ry="18"/>
<text text-anchor="middle" x="157.066" y="-613.011" font-family="FreeSans" font-size="14.00" fill="#6666ff">Metamodel::C3MRO</text>
</a>
</g>
</g>
<!-- Metamodel::MROBasedMethodDispatch -->
<g id="node17" class="node"><title>Metamodel::MROBasedMethodDispatch</title>
<g id="a_node17"><a xlink:href="/type/Metamodel::MROBasedMethodDispatch" xlink:title="Metamodel::MROBasedMethodDispatch">
<ellipse fill="none" stroke="#6666ff" cx="538.69" cy="-598.804" rx="169.77" ry="18"/>
<text text-anchor="middle" x="538.69" y="-595.104" font-family="FreeSans" font-size="14.00" fill="#6666ff">Metamodel::MROBasedMethodDispatch</text>
</a>
</g>
</g>
<!-- Metamodel::MROBasedTypeChecking -->
<g id="node18" class="node"><title>Metamodel::MROBasedTypeChecking</title>
<g id="a_node18"><a xlink:href="/type/Metamodel::MROBasedTypeChecking" xlink:title="Metamodel::MROBasedTypeChecking">
<ellipse fill="none" stroke="#6666ff" cx="3.05504" cy="-270.851" rx="163.271" ry="18"/>
<text text-anchor="middle" x="3.05504" y="-267.151" font-family="FreeSans" font-size="14.00" fill="#6666ff">Metamodel::MROBasedTypeChecking</text>
</a>
</g>
</g>
<!-- Metamodel::Trusting -->
<g id="node19" class="node"><title>Metamodel::Trusting</title>
<g id="a_node19"><a xlink:href="/type/Metamodel::Trusting" xlink:title="Metamodel::Trusting">
<ellipse fill="none" stroke="#6666ff" cx="-1002.33" cy="-528.301" rx="91.784" ry="18"/>
<text text-anchor="middle" x="-1002.33" y="-524.601" font-family="FreeSans" font-size="14.00" fill="#6666ff">Metamodel::Trusting</text>
</a>
</g>
</g>
<!-- Metamodel::BUILDPLAN -->
<g id="node20" class="node"><title>Metamodel::BUILDPLAN</title>
<g id="a_node20"><a xlink:href="/type/Metamodel::BUILDPLAN" xlink:title="Metamodel::BUILDPLAN">
<ellipse fill="none" stroke="#6666ff" cx="-658.78" cy="-201.949" rx="109.681" ry="18"/>
<text text-anchor="middle" x="-658.78" y="-198.249" font-family="FreeSans" font-size="14.00" fill="#6666ff">Metamodel::BUILDPLAN</text>
</a>
</g>
</g>
<!-- Metamodel::Mixins -->
<g id="node21" class="node"><title>Metamodel::Mixins</title>
<g id="a_node21"><a xlink:href="/type/Metamodel::Mixins" xlink:title="Metamodel::Mixins">
<ellipse fill="none" stroke="#6666ff" cx="-1031.75" cy="17.61" rx="85.2851" ry="18"/>
<text text-anchor="middle" x="-1031.75" y="21.31" font-family="FreeSans" font-size="14.00" fill="#6666ff">Metamodel::Mixins</text>
</a>
</g>
</g>
<!-- Metamodel::BoolificationProtocol -->
<g id="node22" class="node"><title>Metamodel::BoolificationProtocol</title>
<g id="a_node22"><a xlink:href="/type/Metamodel::BoolificationProtocol" xlink:title="Metamodel::BoolificationProtocol">
<ellipse fill="none" stroke="#6666ff" cx="-1007.55" cy="569.841" rx="139.175" ry="18"/>
<text text-anchor="middle" x="-1007.55" y="573.541" font-family="FreeSans" font-size="14.00" fill="#6666ff">Metamodel::BoolificationProtocol</text>
</a>
</g>
</g>
<!-- Metamodel::ClassHOW -->
<g id="node23" class="node"><title>Metamodel::ClassHOW</title>
<g id="a_node23"><a xlink:href="/type/Metamodel::ClassHOW" xlink:title="Metamodel::ClassHOW">
<ellipse fill="none" stroke="#000000" cx="-294.046" cy="-286.962" rx="103.982" ry="18"/>
<text text-anchor="middle" x="-294.046" y="-283.262" font-family="FreeSans" font-size="14.00" fill="#000000">Metamodel::ClassHOW</text>
</a>
</g>
</g>
<!-- Metamodel::ClassHOW&#45;&gt;Metamodel::MultipleInheritance -->
<g id="edge24" class="edge"><title>Metamodel::ClassHOW&#45;&gt;Metamodel::MultipleInheritance</title>
<path fill="none" stroke="#6666ff" d="M-280.584,-268.688C-241.371,-215.457 -127.133,-60.3814 -81.4733,1.59977"/>
<polygon fill="#6666ff" stroke="#6666ff" points="-78.6138,-0.419706 -75.5007,9.70744 -84.2497,3.73206 -78.6138,-0.419706"/>
</g>
<!-- Metamodel::ClassHOW&#45;&gt;Any -->
<g id="edge3" class="edge"><title>Metamodel::ClassHOW&#45;&gt;Any</title>
<path fill="none" stroke="#000000" d="M-268.155,-269.432C-171.437,-203.945 163.156,22.6058 163.156,22.6058 163.156,22.6058 190.262,36.4494 190.262,36.4494 190.262,36.4494 478.221,174.654 575.099,221.15"/>
<polygon fill="#000000" stroke="#000000" points="576.884,218.124 584.385,225.606 573.855,224.435 576.884,218.124"/>
</g>
<!-- Metamodel::ClassHOW&#45;&gt;Metamodel::Naming -->
<g id="edge14" class="edge"><title>Metamodel::ClassHOW&#45;&gt;Metamodel::Naming</title>
<path fill="none" stroke="#6666ff" d="M-263.345,-269.658C-169.723,-216.89 112.089,-58.052 216.035,0.535177"/>
<polygon fill="#6666ff" stroke="#6666ff" points="217.957,-2.39897 224.95,5.56022 214.52,3.69911 217.957,-2.39897"/>
</g>
<!-- Metamodel::ClassHOW&#45;&gt;Metamodel::Versioning -->
<g id="edge16" class="edge"><title>Metamodel::ClassHOW&#45;&gt;Metamodel::Versioning</title>
<path fill="none" stroke="#6666ff" d="M-273.249,-269.151C-195.562,-202.614 73.1967,27.5661 73.1967,27.5661 73.1967,27.5661 205.463,235.989 253.032,310.948"/>
<polygon fill="#6666ff" stroke="#6666ff" points="255.996,309.086 258.399,319.405 250.085,312.837 255.996,309.086"/>
</g>
<!-- Metamodel::ClassHOW&#45;&gt;Metamodel::PrivateMethodContainer -->
<g id="edge21" class="edge"><title>Metamodel::ClassHOW&#45;&gt;Metamodel::PrivateMethodContainer</title>
<path fill="none" stroke="#6666ff" d="M-298.073,-268.79C-309.441,-217.49 -341.836,-71.3009 -355.48,-9.72783"/>
<polygon fill="#6666ff" stroke="#6666ff" points="-352.071,-8.93184 -357.652,0.0740833 -358.906,-10.4463 -352.071,-8.93184"/>
</g>
<!-- Metamodel::ClassHOW&#45;&gt;Metamodel::MethodContainer -->
<g id="edge20" class="edge"><title>Metamodel::ClassHOW&#45;&gt;Metamodel::MethodContainer</title>
<path fill="none" stroke="#6666ff" d="M-307.382,-268.787C-355.583,-203.091 -517.944,18.2022 -517.944,18.2022 -517.944,18.2022 -609.041,151.671 -648.738,209.832"/>
<polygon fill="#6666ff" stroke="#6666ff" points="-645.898,211.879 -654.426,218.165 -651.679,207.933 -645.898,211.879"/>
</g>
<!-- Metamodel::ClassHOW&#45;&gt;Metamodel::MultiMethodContainer -->
<g id="edge22" class="edge"><title>Metamodel::ClassHOW&#45;&gt;Metamodel::MultiMethodContainer</title>
<path fill="none" stroke="#6666ff" d="M-288.765,-268.793C-269.675,-203.119 -205.372,18.1006 -205.372,18.1006 -205.372,18.1006 -276.965,224.465 -303.429,300.748"/>
<polygon fill="#6666ff" stroke="#6666ff" points="-300.267,302.313 -306.851,310.614 -306.881,300.019 -300.267,302.313"/>
</g>
<!-- Metamodel::ClassHOW&#45;&gt;Metamodel::AttributeContainer -->
<g id="edge18" class="edge"><title>Metamodel::ClassHOW&#45;&gt;Metamodel::AttributeContainer</title>
<path fill="none" stroke="#6666ff" d="M-307.382,-268.787C-355.583,-203.091 -517.944,18.2022 -517.944,18.2022 -517.944,18.2022 -537.88,236.287 -537.88,236.287 -537.88,236.287 -564.372,524.409 -572.86,616.726"/>
<polygon fill="#6666ff" stroke="#6666ff" points="-569.38,617.103 -573.781,626.74 -576.351,616.462 -569.38,617.103"/>
</g>
<!-- Metamodel::ClassHOW&#45;&gt;Metamodel::RoleContainer -->
<g id="edge23" class="edge"><title>Metamodel::ClassHOW&#45;&gt;Metamodel::RoleContainer</title>
<path fill="none" stroke="#6666ff" d="M-288.765,-268.793C-269.675,-203.119 -205.372,18.1006 -205.372,18.1006 -205.372,18.1006 -165.276,328.526 -165.276,328.526 -165.276,328.526 -187.727,551.311 -195.858,632.002"/>
<polygon fill="#6666ff" stroke="#6666ff" points="-192.421,632.808 -196.907,642.406 -199.386,632.106 -192.421,632.808"/>
</g>
<!-- Metamodel::ClassHOW&#45;&gt;Metamodel::Documenting -->
<g id="edge15" class="edge"><title>Metamodel::ClassHOW&#45;&gt;Metamodel::Documenting</title>
<path fill="none" stroke="#6666ff" d="M-189.935,-288.187C-104.506,-289.193 2.43626,-290.451 2.43626,-290.451 2.43626,-290.451 90.882,-291.436 169.868,-292.315"/>
<polygon fill="#6666ff" stroke="#6666ff" points="169.905,-295.816 179.943,-292.427 169.983,-288.816 169.905,-295.816"/>
</g>
<!-- Metamodel::ClassHOW&#45;&gt;Metamodel::Stashing -->
<g id="edge17" class="edge"><title>Metamodel::ClassHOW&#45;&gt;Metamodel::Stashing</title>
<path fill="none" stroke="#6666ff" d="M-218.836,-274.491C-169.092,-266.242 -112.992,-256.94 -112.992,-256.94 -112.992,-256.94 329.174,-209.462 525.516,-188.38"/>
<polygon fill="#6666ff" stroke="#6666ff" points="525.961,-191.853 535.531,-187.305 525.214,-184.893 525.961,-191.853"/>
</g>
<!-- Metamodel::ClassHOW&#45;&gt;Metamodel::Finalization -->
<g id="edge19" class="edge"><title>Metamodel::ClassHOW&#45;&gt;Metamodel::Finalization</title>
<path fill="none" stroke="#6666ff" d="M-287.636,-304.979C-268.406,-359.029 -211.103,-520.092 -187.86,-585.42"/>
<polygon fill="#6666ff" stroke="#6666ff" points="-191.083,-586.804 -184.433,-595.052 -184.488,-584.457 -191.083,-586.804"/>
</g>
<!-- Metamodel::ClassHOW&#45;&gt;Metamodel::DefaultParent -->
<g id="edge25" class="edge"><title>Metamodel::ClassHOW&#45;&gt;Metamodel::DefaultParent</title>
<path fill="none" stroke="#6666ff" d="M-309.44,-305.207C-354.373,-358.461 -485.451,-513.813 -537.448,-575.44"/>
<polygon fill="#6666ff" stroke="#6666ff" points="-540.185,-573.256 -543.958,-583.156 -534.834,-577.77 -540.185,-573.256"/>
</g>
<!-- Metamodel::ClassHOW&#45;&gt;Metamodel::C3MRO -->
<g id="edge26" class="edge"><title>Metamodel::ClassHOW&#45;&gt;Metamodel::C3MRO</title>
<path fill="none" stroke="#6666ff" d="M-269.793,-304.691C-193.889,-360.175 39.1505,-530.519 124.935,-593.224"/>
<polygon fill="#6666ff" stroke="#6666ff" points="123.101,-596.219 133.239,-599.295 127.232,-590.568 123.101,-596.219"/>
</g>
<!-- Metamodel::ClassHOW&#45;&gt;Metamodel::MROBasedMethodDispatch -->
<g id="edge27" class="edge"><title>Metamodel::ClassHOW&#45;&gt;Metamodel::MROBasedMethodDispatch</title>
<path fill="none" stroke="#6666ff" d="M-250.155,-303.399C-109.938,-355.907 327.108,-519.571 482.862,-577.898"/>
<polygon fill="#6666ff" stroke="#6666ff" points="481.678,-581.191 492.27,-581.421 484.132,-574.636 481.678,-581.191"/>
</g>
<!-- Metamodel::ClassHOW&#45;&gt;Metamodel::MROBasedTypeChecking -->
<g id="edge28" class="edge"><title>Metamodel::ClassHOW&#45;&gt;Metamodel::MROBasedTypeChecking</title>
<path fill="none" stroke="#6666ff" d="M-194.703,-281.575C-181.468,-280.857 -167.645,-280.108 -153.726,-279.353"/>
<polygon fill="#6666ff" stroke="#6666ff" points="-153.377,-282.839 -143.581,-278.803 -153.756,-275.85 -153.377,-282.839"/>
</g>
<!-- Metamodel::ClassHOW&#45;&gt;Metamodel::Trusting -->
<g id="edge29" class="edge"><title>Metamodel::ClassHOW&#45;&gt;Metamodel::Trusting</title>
<path fill="none" stroke="#6666ff" d="M-341.343,-303.078C-467.433,-346.042 -811.22,-463.182 -946.541,-509.291"/>
<polygon fill="#6666ff" stroke="#6666ff" points="-947.965,-506.078 -956.302,-512.617 -945.708,-512.704 -947.965,-506.078"/>
</g>
<!-- Metamodel::ClassHOW&#45;&gt;Metamodel::BUILDPLAN -->
<g id="edge30" class="edge"><title>Metamodel::ClassHOW&#45;&gt;Metamodel::BUILDPLAN</title>
<path fill="none" stroke="#6666ff" d="M-356.332,-272.445C-419.809,-257.649 -518.226,-234.71 -585.434,-219.045"/>
<polygon fill="#6666ff" stroke="#6666ff" points="-584.995,-215.554 -595.528,-216.692 -586.584,-222.371 -584.995,-215.554"/>
</g>
<!-- Metamodel::ClassHOW&#45;&gt;Metamodel::Mixins -->
<g id="edge31" class="edge"><title>Metamodel::ClassHOW&#45;&gt;Metamodel::Mixins</title>
<path fill="none" stroke="#6666ff" d="M-334.495,-270.262C-460.75,-218.136 -847.227,-58.5736 -983.539,-2.29516"/>
<polygon fill="#6666ff" stroke="#6666ff" points="-982.336,0.994371 -992.914,1.5755 -985.007,-5.47587 -982.336,0.994371"/>
</g>
<!-- Metamodel::ClassHOW&#45;&gt;Metamodel::BoolificationProtocol -->
<g id="edge32" class="edge"><title>Metamodel::ClassHOW&#45;&gt;Metamodel::BoolificationProtocol</title>
<path fill="none" stroke="#6666ff" d="M-311.32,-268.944C-399.557,-176.898 -795.854,236.499 -795.854,236.499 -795.854,236.499 -940.149,463.712 -990.479,542.962"/>
<polygon fill="#6666ff" stroke="#6666ff" points="-987.55,544.879 -995.865,551.444 -993.459,541.126 -987.55,544.879"/>
</g>
<!-- Metamodel::NativeHOW -->
<g id="node24" class="node"><title>Metamodel::NativeHOW</title>
<g id="a_node24"><a xlink:href="/type/Metamodel::NativeHOW" xlink:title="Metamodel::NativeHOW">
<ellipse fill="none" stroke="#000000" cx="964.857" cy="-520.113" rx="107.482" ry="18"/>
<text text-anchor="middle" x="964.857" y="-516.413" font-family="FreeSans" font-size="14.00" fill="#000000">Metamodel::NativeHOW</text>
</a>
</g>
</g>
<!-- Metamodel::NativeHOW&#45;&gt;Metamodel::MultipleInheritance -->
<g id="edge37" class="edge"><title>Metamodel::NativeHOW&#45;&gt;Metamodel::MultipleInheritance</title>
<path fill="none" stroke="#6666ff" d="M932.421,-502.815C781.573,-422.372 148.861,-84.962 -20.4626,5.3343"/>
<polygon fill="#6666ff" stroke="#6666ff" points="-18.8615,8.44702 -29.3322,10.0642 -22.1554,2.27039 -18.8615,8.44702"/>
</g>
<!-- Metamodel::NativeHOW&#45;&gt;Any -->
<g id="edge4" class="edge"><title>Metamodel::NativeHOW&#45;&gt;Any</title>
<path fill="none" stroke="#000000" d="M956.352,-502.163C908.822,-401.859 676.191,89.0675 619.125,209.495"/>
<polygon fill="#000000" stroke="#000000" points="622.182,211.218 614.737,218.756 615.856,208.22 622.182,211.218"/>
</g>
<!-- Metamodel::NativeHOW&#45;&gt;Metamodel::Naming -->
<g id="edge33" class="edge"><title>Metamodel::NativeHOW&#45;&gt;Metamodel::Naming</title>
<path fill="none" stroke="#6666ff" d="M941.646,-502.366C836.656,-422.093 406.12,-92.9152 286.219,-1.24238"/>
<polygon fill="#6666ff" stroke="#6666ff" points="288.202,1.64747 278.132,4.94093 283.95,-3.9134 288.202,1.64747"/>
</g>
<!-- Metamodel::NativeHOW&#45;&gt;Metamodel::Versioning -->
<g id="edge35" class="edge"><title>Metamodel::NativeHOW&#45;&gt;Metamodel::Versioning</title>
<path fill="none" stroke="#6666ff" d="M951.658,-502.23C899.786,-431.951 712.752,-178.552 712.752,-178.552 712.752,-178.552 381.883,206.863 292.079,311.473"/>
<polygon fill="#6666ff" stroke="#6666ff" points="294.494,314.034 285.324,319.341 289.182,309.474 294.494,314.034"/>
</g>
<!-- Metamodel::NativeHOW&#45;&gt;Metamodel::Documenting -->
<g id="edge34" class="edge"><title>Metamodel::NativeHOW&#45;&gt;Metamodel::Documenting</title>
<path fill="none" stroke="#6666ff" d="M916.947,-504.009C796.386,-463.485 480.734,-357.387 349.594,-313.308"/>
<polygon fill="#6666ff" stroke="#6666ff" points="350.321,-309.86 339.727,-309.991 348.091,-316.495 350.321,-309.86"/>
</g>
<!-- Metamodel::NativeHOW&#45;&gt;Metamodel::Stashing -->
<g id="edge36" class="edge"><title>Metamodel::NativeHOW&#45;&gt;Metamodel::Stashing</title>
<path fill="none" stroke="#6666ff" d="M946.674,-502.227C888.887,-445.385 709.335,-268.77 642.746,-203.27"/>
<polygon fill="#6666ff" stroke="#6666ff" points="645.147,-200.723 635.564,-196.206 640.239,-205.713 645.147,-200.723"/>
</g>
<!-- Metamodel::NativeHOW&#45;&gt;Metamodel::C3MRO -->
<g id="edge38" class="edge"><title>Metamodel::NativeHOW&#45;&gt;Metamodel::C3MRO</title>
<path fill="none" stroke="#6666ff" d="M877.051,-530.516C722.565,-548.818 418.346,-584.861 418.346,-584.861 418.346,-584.861 321.327,-596.687 245.529,-605.927"/>
<polygon fill="#6666ff" stroke="#6666ff" points="244.961,-602.47 235.458,-607.155 245.808,-609.419 244.961,-602.47"/>
</g>
<!-- Metamodel::NativeHOW&#45;&gt;Metamodel::MROBasedMethodDispatch -->
<g id="edge39" class="edge"><title>Metamodel::NativeHOW&#45;&gt;Metamodel::MROBasedMethodDispatch</title>
<path fill="none" stroke="#6666ff" d="M892.564,-533.462C821.169,-546.645 711.606,-566.875 633.315,-581.332"/>
<polygon fill="#6666ff" stroke="#6666ff" points="632.644,-577.896 623.446,-583.154 633.915,-584.78 632.644,-577.896"/>
</g>
<!-- Metamodel::NativeHOW&#45;&gt;Metamodel::MROBasedTypeChecking -->
<g id="edge40" class="edge"><title>Metamodel::NativeHOW&#45;&gt;Metamodel::MROBasedTypeChecking</title>
<path fill="none" stroke="#6666ff" d="M906.5,-504.989C739.748,-461.773 261.352,-337.791 76.8575,-289.978"/>
<polygon fill="#6666ff" stroke="#6666ff" points="77.5346,-286.538 66.9763,-287.417 75.7784,-293.314 77.5346,-286.538"/>
</g>
<!-- Metamodel::TypePretense -->
<g id="node25" class="node"><title>Metamodel::TypePretense</title>
<g id="a_node25"><a xlink:href="/type/Metamodel::TypePretense" xlink:title="Metamodel::TypePretense">
<ellipse fill="none" stroke="#6666ff" cx="958.76" cy="573.117" rx="114.28" ry="18"/>
<text text-anchor="middle" x="958.76" y="576.817" font-family="FreeSans" font-size="14.00" fill="#6666ff">Metamodel::TypePretense</text>
</a>
</g>
</g>
<!-- Metamodel::RolePunning -->
<g id="node26" class="node"><title>Metamodel::RolePunning</title>
<g id="a_node26"><a xlink:href="/type/Metamodel::RolePunning" xlink:title="Metamodel::RolePunning">
<ellipse fill="none" stroke="#6666ff" cx="138.764" cy="664.458" rx="109.681" ry="18"/>
<text text-anchor="middle" x="138.764" y="668.158" font-family="FreeSans" font-size="14.00" fill="#6666ff">Metamodel::RolePunning</text>
</a>
</g>
</g>
<!-- Metamodel::ParametricRoleHOW -->
<g id="node27" class="node"><title>Metamodel::ParametricRoleHOW</title>
<g id="a_node27"><a xlink:href="/type/Metamodel::ParametricRoleHOW" xlink:title="Metamodel::ParametricRoleHOW">
<ellipse fill="none" stroke="#000000" cx="521.803" cy="646.549" rx="142.175" ry="18"/>
<text text-anchor="middle" x="521.803" y="650.249" font-family="FreeSans" font-size="14.00" fill="#000000">Metamodel::ParametricRoleHOW</text>
</a>
</g>
</g>
<!-- Metamodel::ParametricRoleHOW&#45;&gt;Metamodel::MultipleInheritance -->
<g id="edge49" class="edge"><title>Metamodel::ParametricRoleHOW&#45;&gt;Metamodel::MultipleInheritance</title>
<path fill="none" stroke="#6666ff" d="M501.222,628.603C425.601,562.662 167.483,337.586 167.483,337.586 167.483,337.586 12.9174,129.089 -42.6721,54.1035"/>
<polygon fill="#6666ff" stroke="#6666ff" points="-45.7999,55.7614 -48.9436,45.6437 -40.1766,51.5927 -45.7999,55.7614"/>
</g>
<!-- Metamodel::ParametricRoleHOW&#45;&gt;Any -->
<g id="edge5" class="edge"><title>Metamodel::ParametricRoleHOW&#45;&gt;Any</title>
<path fill="none" stroke="#000000" d="M525.55,628.388C538.938,563.504 584.466,342.842 600.678,264.27"/>
<polygon fill="#000000" stroke="#000000" points="597.316,263.243 602.764,254.157 604.171,264.658 597.316,263.243"/>
</g>
<!-- Metamodel::ParametricRoleHOW&#45;&gt;Metamodel::Naming -->
<g id="edge41" class="edge"><title>Metamodel::ParametricRoleHOW&#45;&gt;Metamodel::Naming</title>
<path fill="none" stroke="#6666ff" d="M514.109,628.547C476.545,540.661 312.393,156.604 266.852,50.0533"/>
<polygon fill="#6666ff" stroke="#6666ff" points="263.535,51.1984 262.823,40.6275 269.972,48.4473 263.535,51.1984"/>
</g>
<!-- Metamodel::ParametricRoleHOW&#45;&gt;Metamodel::Versioning -->
<g id="edge43" class="edge"><title>Metamodel::ParametricRoleHOW&#45;&gt;Metamodel::Versioning</title>
<path fill="none" stroke="#6666ff" d="M507.166,628.592C464.631,576.407 340.905,424.614 291.029,363.422"/>
<polygon fill="#6666ff" stroke="#6666ff" points="288.102,365.371 284.497,355.409 293.528,360.949 288.102,365.371"/>
</g>
<!-- Metamodel::ParametricRoleHOW&#45;&gt;Metamodel::PrivateMethodContainer -->
<g id="edge45" class="edge"><title>Metamodel::ParametricRoleHOW&#45;&gt;Metamodel::PrivateMethodContainer</title>
<path fill="none" stroke="#6666ff" d="M499.323,628.661C414.643,561.277 119.705,326.579 119.705,326.579 119.705,326.579 -212.714,113.586 -325.065,41.5982"/>
<polygon fill="#6666ff" stroke="#6666ff" points="-327.166,44.4089 -333.697,36.0669 -323.389,38.515 -327.166,44.4089"/>
</g>
<!-- Metamodel::ParametricRoleHOW&#45;&gt;Metamodel::MethodContainer -->
<g id="edge44" class="edge"><title>Metamodel::ParametricRoleHOW&#45;&gt;Metamodel::MethodContainer</title>
<path fill="none" stroke="#6666ff" d="M469.66,629.689C266.49,563.994 -460.944,328.78 -460.944,328.78 -460.944,328.78 -557.839,285.308 -618.697,258.004"/>
<polygon fill="#6666ff" stroke="#6666ff" points="-620.443,261.057 -628.134,253.77 -617.578,254.67 -620.443,261.057"/>
</g>
<!-- Metamodel::ParametricRoleHOW&#45;&gt;Metamodel::MultiMethodContainer -->
<g id="edge46" class="edge"><title>Metamodel::ParametricRoleHOW&#45;&gt;Metamodel::MultiMethodContainer</title>
<path fill="none" stroke="#6666ff" d="M476.914,629.458C335.061,575.446 -103.322,408.53 -258.213,349.555"/>
<polygon fill="#6666ff" stroke="#6666ff" points="-259.899,352.658 -267.999,345.829 -257.408,346.116 -259.899,352.658"/>
</g>
<!-- Metamodel::ParametricRoleHOW&#45;&gt;Metamodel::AttributeContainer -->
<g id="edge47" class="edge"><title>Metamodel::ParametricRoleHOW&#45;&gt;Metamodel::AttributeContainer</title>
<path fill="none" stroke="#6666ff" d="M379.326,645.481C169.159,643.905 -199.352,641.141 -199.352,641.141 -199.352,641.141 -328.533,642.405 -435.476,643.452"/>
<polygon fill="#6666ff" stroke="#6666ff" points="-435.717,646.954 -445.751,643.553 -435.786,639.955 -435.717,646.954"/>
</g>
<!-- Metamodel::ParametricRoleHOW&#45;&gt;Metamodel::RoleContainer -->
<g id="edge48" class="edge"><title>Metamodel::ParametricRoleHOW&#45;&gt;Metamodel::RoleContainer</title>
<path fill="none" stroke="#6666ff" d="M379.482,645.922C270.292,645.441 138.129,644.859 138.129,644.859 138.129,644.859 18.804,650.484 -77.8135,655.039"/>
<polygon fill="#6666ff" stroke="#6666ff" points="-77.8258,658.544 -87.9795,655.518 -78.1555,651.551 -77.8258,658.544"/>
</g>
<!-- Metamodel::ParametricRoleHOW&#45;&gt;Metamodel::Documenting -->
<g id="edge42" class="edge"><title>Metamodel::ParametricRoleHOW&#45;&gt;Metamodel::Documenting</title>
<path fill="none" stroke="#6666ff" d="M517.299,628.19C488.738,511.763 332.907,-123.476 298.068,-265.494"/>
<polygon fill="#6666ff" stroke="#6666ff" points="294.579,-265.026 295.596,-275.572 301.378,-266.694 294.579,-265.026"/>
</g>
<!-- Metamodel::ParametricRoleHOW&#45;&gt;Metamodel::Stashing -->
<g id="edge50" class="edge"><title>Metamodel::ParametricRoleHOW&#45;&gt;Metamodel::Stashing</title>
<path fill="none" stroke="#6666ff" d="M523.892,628.55C536.196,522.54 599.189,-20.2038 614.299,-150.398"/>
<polygon fill="#6666ff" stroke="#6666ff" points="610.828,-150.852 615.458,-160.381 617.782,-150.045 610.828,-150.852"/>
</g>
<!-- Metamodel::ParametricRoleHOW&#45;&gt;Metamodel::TypePretense -->
<g id="edge51" class="edge"><title>Metamodel::ParametricRoleHOW&#45;&gt;Metamodel::TypePretense</title>
<path fill="none" stroke="#6666ff" d="M607.61,632.129C683.489,619.377 793.728,600.851 870.372,587.971"/>
<polygon fill="#6666ff" stroke="#6666ff" points="870.045,584.477 880.487,586.271 871.205,591.38 870.045,584.477"/>
</g>
<!-- Metamodel::ParametricRoleHOW&#45;&gt;Metamodel::RolePunning -->
<g id="edge52" class="edge"><title>Metamodel::ParametricRoleHOW&#45;&gt;Metamodel::RolePunning</title>
<path fill="none" stroke="#6666ff" d="M388.103,652.801C344.546,654.837 296.585,657.079 254.461,659.049"/>
<polygon fill="#6666ff" stroke="#6666ff" points="254.6,662.546 244.448,659.517 254.273,655.554 254.6,662.546"/>
</g>
</g>
</svg>
