<?xml version="1.0" encoding="UTF-8" standalone="no"?>
<!DOCTYPE svg PUBLIC "-//W3C//DTD SVG 1.1//EN"
 "http://www.w3.org/Graphics/SVG/1.1/DTD/svg11.dtd">
<!-- Generated by graphviz version 2.38.0 (20140413.2041)
 -->
<!-- Title: perl6&#45;type&#45;graph Pages: 1 -->
<svg width="316pt" height="404pt"
 viewBox="0.00 0.00 316.48 404.00" xmlns="http://www.w3.org/2000/svg" xmlns:xlink="http://www.w3.org/1999/xlink">
<g id="graph0" class="graph" transform="scale(1 1) rotate(0) translate(4 400)">
<title>perl6&#45;type&#45;graph</title>
<polygon fill="white" stroke="none" points="-4,4 -4,-400 312.483,-400 312.483,4 -4,4"/>
<!-- X::Syntax::Term::MissingInitializer -->
<g id="node1" class="node"><title>X::Syntax::Term::MissingInitializer</title>
<g id="a_node1"><a xlink:href="/type/X::Syntax::Term::MissingInitializer" xlink:title="X::Syntax::Term::MissingInitializer">
<ellipse fill="none" stroke="#000000" cx="143.637" cy="-18" rx="143.775" ry="18"/>
<text text-anchor="middle" x="143.637" y="-14.3" font-family="FreeSans" font-size="14.00" fill="#000000">X::Syntax::Term::MissingInitializer</text>
</a>
</g>
</g>
<!-- Exception -->
<g id="node4" class="node"><title>Exception</title>
<g id="a_node4"><a xlink:href="/type/Exception" xlink:title="Exception">
<ellipse fill="none" stroke="#000000" cx="166.637" cy="-234" rx="49.2915" ry="18"/>
<text text-anchor="middle" x="166.637" y="-230.3" font-family="FreeSans" font-size="14.00" fill="#000000">Exception</text>
</a>
</g>
</g>
<!-- X::Syntax::Term::MissingInitializer&#45;&gt;Exception -->
<g id="edge1" class="edge"><title>X::Syntax::Term::MissingInitializer&#45;&gt;Exception</title>
<path fill="none" stroke="#000000" d="M141.603,-36.1508C142.048,-73.3384 151.279,-161.626 159.109,-206.228"/>
<polygon fill="#000000" stroke="#000000" points="155.671,-206.884 160.96,-216.065 162.55,-205.59 155.671,-206.884"/>
</g>
<!-- X::Syntax::Term::MissingInitializer&#45;&gt;Exception -->
<g id="edge2" class="edge"><title>X::Syntax::Term::MissingInitializer&#45;&gt;Exception</title>
<path fill="none" stroke="#000000" d="M149.358,-36.1508C156.872,-73.1683 166.564,-160.819 168.386,-205.614"/>
<polygon fill="#000000" stroke="#000000" points="164.892,-205.87 168.67,-215.768 171.889,-205.673 164.892,-205.87"/>
</g>
<!-- X::Syntax -->
<g id="node6" class="node"><title>X::Syntax</title>
<g id="a_node6"><a xlink:href="/type/X::Syntax" xlink:title="X::Syntax">
<ellipse fill="none" stroke="#6666ff" cx="228.637" cy="-90" rx="48.1917" ry="18"/>
<text text-anchor="middle" x="228.637" y="-86.3" font-family="FreeSans" font-size="14.00" fill="#6666ff">X::Syntax</text>
</a>
</g>
</g>
<!-- X::Syntax::Term::MissingInitializer&#45;&gt;X::Syntax -->
<g id="edge7" class="edge"><title>X::Syntax::Term::MissingInitializer&#45;&gt;X::Syntax</title>
<path fill="none" stroke="#6666ff" d="M164.213,-35.945C175.471,-45.216 189.555,-56.8143 201.68,-66.8003"/>
<polygon fill="#6666ff" stroke="#6666ff" points="199.759,-69.7523 209.704,-73.4077 204.209,-64.3488 199.759,-69.7523"/>
</g>
<!-- Mu -->
<g id="node2" class="node"><title>Mu</title>
<g id="a_node2"><a xlink:href="/type/Mu" xlink:title="Mu">
<ellipse fill="none" stroke="#000000" cx="166.637" cy="-378" rx="27" ry="18"/>
<text text-anchor="middle" x="166.637" y="-374.3" font-family="FreeSans" font-size="14.00" fill="#000000">Mu</text>
</a>
</g>
</g>
<!-- Any -->
<g id="node3" class="node"><title>Any</title>
<g id="a_node3"><a xlink:href="/type/Any" xlink:title="Any">
<ellipse fill="none" stroke="#000000" cx="166.637" cy="-306" rx="27" ry="18"/>
<text text-anchor="middle" x="166.637" y="-302.3" font-family="FreeSans" font-size="14.00" fill="#000000">Any</text>
</a>
</g>
</g>
<!-- Any&#45;&gt;Mu -->
<g id="edge3" class="edge"><title>Any&#45;&gt;Mu</title>
<path fill="none" stroke="#000000" d="M166.637,-324.303C166.637,-332.017 166.637,-341.288 166.637,-349.888"/>
<polygon fill="#000000" stroke="#000000" points="163.137,-349.896 166.637,-359.896 170.137,-349.896 163.137,-349.896"/>
</g>
<!-- Exception&#45;&gt;Any -->
<g id="edge4" class="edge"><title>Exception&#45;&gt;Any</title>
<path fill="none" stroke="#000000" d="M166.637,-252.303C166.637,-260.017 166.637,-269.288 166.637,-277.888"/>
<polygon fill="#000000" stroke="#000000" points="163.137,-277.896 166.637,-287.896 170.137,-277.896 163.137,-277.896"/>
</g>
<!-- X::Comp -->
<g id="node5" class="node"><title>X::Comp</title>
<g id="a_node5"><a xlink:href="/type/X::Comp" xlink:title="X::Comp">
<ellipse fill="none" stroke="#6666ff" cx="263.637" cy="-162" rx="44.6926" ry="18"/>
<text text-anchor="middle" x="263.637" y="-158.3" font-family="FreeSans" font-size="14.00" fill="#6666ff">X::Comp</text>
</a>
</g>
</g>
<!-- X::Comp&#45;&gt;Exception -->
<g id="edge5" class="edge"><title>X::Comp&#45;&gt;Exception</title>
<path fill="none" stroke="#000000" d="M242.59,-178.189C229.082,-187.937 211.338,-200.742 196.398,-211.523"/>
<polygon fill="#000000" stroke="#000000" points="194.04,-208.909 187.979,-217.599 198.136,-214.585 194.04,-208.909"/>
</g>
<!-- X::Syntax&#45;&gt;Exception -->
<g id="edge6" class="edge"><title>X::Syntax&#45;&gt;Exception</title>
<path fill="none" stroke="#000000" d="M221.282,-107.847C210.608,-132.294 190.726,-177.829 178.114,-206.714"/>
<polygon fill="#000000" stroke="#000000" points="174.777,-205.61 173.983,-216.175 181.192,-208.411 174.777,-205.61"/>
</g>
<!-- X::Syntax&#45;&gt;X::Comp -->
<g id="edge8" class="edge"><title>X::Syntax&#45;&gt;X::Comp</title>
<path fill="none" stroke="#6666ff" d="M237.11,-107.945C241.194,-116.113 246.181,-126.088 250.725,-135.176"/>
<polygon fill="#6666ff" stroke="#6666ff" points="247.64,-136.832 255.243,-144.211 253.901,-133.701 247.64,-136.832"/>
</g>
</g>
</svg>
