<?xml version="1.0" encoding="UTF-8" standalone="no"?>
<!DOCTYPE svg PUBLIC "-//W3C//DTD SVG 1.1//EN"
 "http://www.w3.org/Graphics/SVG/1.1/DTD/svg11.dtd">
<!-- Generated by graphviz version 2.38.0 (20140413.2041)
 -->
<!-- Title: perl6&#45;type&#45;graph Pages: 1 -->
<svg width="2225pt" height="1298pt"
 viewBox="0.00 0.00 2224.97 1297.60" xmlns="http://www.w3.org/2000/svg" xmlns:xlink="http://www.w3.org/1999/xlink">
<g id="graph0" class="graph" transform="scale(1 1) rotate(0) translate(1071.59 633.284)">
<title>perl6&#45;type&#45;graph</title>
<polygon fill="white" stroke="none" points="-1071.59,664.318 -1071.59,-633.284 1153.38,-633.284 1153.38,664.318 -1071.59,664.318"/>
<!-- Metamodel::MultiMethodContainer -->
<g id="node1" class="node"><title>Metamodel::MultiMethodContainer</title>
<g id="a_node1"><a xlink:href="/type/Metamodel::MultiMethodContainer" xlink:title="Metamodel::MultiMethodContainer">
<ellipse fill="none" stroke="#6666ff" cx="235.506" cy="223.448" rx="146.474" ry="18"/>
<text text-anchor="middle" x="235.506" y="227.148" font-family="FreeSans" font-size="14.00" fill="#6666ff">Metamodel::MultiMethodContainer</text>
</a>
</g>
</g>
<!-- Mu -->
<g id="node2" class="node"><title>Mu</title>
<g id="a_node2"><a xlink:href="/type/Mu" xlink:title="Mu">
<ellipse fill="none" stroke="#000000" cx="-435.322" cy="629.144" rx="27" ry="18"/>
<text text-anchor="middle" x="-435.322" y="632.844" font-family="FreeSans" font-size="14.00" fill="#000000">Mu</text>
</a>
</g>
</g>
<!-- Any -->
<g id="node3" class="node"><title>Any</title>
<g id="a_node3"><a xlink:href="/type/Any" xlink:title="Any">
<ellipse fill="none" stroke="#000000" cx="-42.1736" cy="83.7324" rx="27" ry="18"/>
<text text-anchor="middle" x="-42.1736" y="87.4324" font-family="FreeSans" font-size="14.00" fill="#000000">Any</text>
</a>
</g>
</g>
<!-- Any&#45;&gt;Mu -->
<g id="edge1" class="edge"><title>Any&#45;&gt;Mu</title>
<path fill="none" stroke="#000000" d="M-57.0826,98.7601C-108.437,150.523 -274.85,318.262 -274.85,318.262 -274.85,318.262 -382.904,527.594 -421.678,602.711"/>
<polygon fill="#000000" stroke="#000000" points="-418.769,604.706 -426.466,611.986 -424.989,601.495 -418.769,604.706"/>
</g>
<!-- Metamodel::Naming -->
<g id="node4" class="node"><title>Metamodel::Naming</title>
<g id="a_node4"><a xlink:href="/type/Metamodel::Naming" xlink:title="Metamodel::Naming">
<ellipse fill="none" stroke="#6666ff" cx="345.942" cy="-145.575" rx="90.1842" ry="18"/>
<text text-anchor="middle" x="345.942" y="-141.875" font-family="FreeSans" font-size="14.00" fill="#6666ff">Metamodel::Naming</text>
</a>
</g>
</g>
<!-- Metamodel::Documenting -->
<g id="node5" class="node"><title>Metamodel::Documenting</title>
<g id="a_node5"><a xlink:href="/type/Metamodel::Documenting" xlink:title="Metamodel::Documenting">
<ellipse fill="none" stroke="#6666ff" cx="545.063" cy="-584.234" rx="111.28" ry="18"/>
<text text-anchor="middle" x="545.063" y="-580.534" font-family="FreeSans" font-size="14.00" fill="#6666ff">Metamodel::Documenting</text>
</a>
</g>
</g>
<!-- Metamodel::Versioning -->
<g id="node6" class="node"><title>Metamodel::Versioning</title>
<g id="a_node6"><a xlink:href="/type/Metamodel::Versioning" xlink:title="Metamodel::Versioning">
<ellipse fill="none" stroke="#6666ff" cx="-484.96" cy="295.135" rx="100.983" ry="18"/>
<text text-anchor="middle" x="-484.96" y="298.835" font-family="FreeSans" font-size="14.00" fill="#6666ff">Metamodel::Versioning</text>
</a>
</g>
</g>
<!-- Metamodel::Stashing -->
<g id="node7" class="node"><title>Metamodel::Stashing</title>
<g id="a_node7"><a xlink:href="/type/Metamodel::Stashing" xlink:title="Metamodel::Stashing">
<ellipse fill="none" stroke="#6666ff" cx="-181.629" cy="-243.905" rx="93.6835" ry="18"/>
<text text-anchor="middle" x="-181.629" y="-240.205" font-family="FreeSans" font-size="14.00" fill="#6666ff">Metamodel::Stashing</text>
</a>
</g>
</g>
<!-- Metamodel::AttributeContainer -->
<g id="node8" class="node"><title>Metamodel::AttributeContainer</title>
<g id="a_node8"><a xlink:href="/type/Metamodel::AttributeContainer" xlink:title="Metamodel::AttributeContainer">
<ellipse fill="none" stroke="#6666ff" cx="1019.39" cy="19.1436" rx="129.977" ry="18"/>
<text text-anchor="middle" x="1019.39" y="22.8436" font-family="FreeSans" font-size="14.00" fill="#6666ff">Metamodel::AttributeContainer</text>
</a>
</g>
</g>
<!-- Metamodel::Finalization -->
<g id="node9" class="node"><title>Metamodel::Finalization</title>
<g id="a_node9"><a xlink:href="/type/Metamodel::Finalization" xlink:title="Metamodel::Finalization">
<ellipse fill="none" stroke="#6666ff" cx="-927.215" cy="602.216" rx="103.982" ry="18"/>
<text text-anchor="middle" x="-927.215" y="605.916" font-family="FreeSans" font-size="14.00" fill="#6666ff">Metamodel::Finalization</text>
</a>
</g>
</g>
<!-- Metamodel::MethodContainer -->
<g id="node10" class="node"><title>Metamodel::MethodContainer</title>
<g id="a_node10"><a xlink:href="/type/Metamodel::MethodContainer" xlink:title="Metamodel::MethodContainer">
<ellipse fill="none" stroke="#6666ff" cx="633.484" cy="-182.78" rx="127.277" ry="18"/>
<text text-anchor="middle" x="633.484" y="-179.08" font-family="FreeSans" font-size="14.00" fill="#6666ff">Metamodel::MethodContainer</text>
</a>
</g>
</g>
<!-- Metamodel::PrivateMethodContainer -->
<g id="node11" class="node"><title>Metamodel::PrivateMethodContainer</title>
<g id="a_node11"><a xlink:href="/type/Metamodel::PrivateMethodContainer" xlink:title="Metamodel::PrivateMethodContainer">
<ellipse fill="none" stroke="#6666ff" cx="-118.565" cy="318.207" rx="154.873" ry="18"/>
<text text-anchor="middle" x="-118.565" y="321.907" font-family="FreeSans" font-size="14.00" fill="#6666ff">Metamodel::PrivateMethodContainer</text>
</a>
</g>
</g>
<!-- Metamodel::RoleContainer -->
<g id="node12" class="node"><title>Metamodel::RoleContainer</title>
<g id="a_node12"><a xlink:href="/type/Metamodel::RoleContainer" xlink:title="Metamodel::RoleContainer">
<ellipse fill="none" stroke="#6666ff" cx="104.218" cy="-52.3818" rx="115.88" ry="18"/>
<text text-anchor="middle" x="104.218" y="-48.6818" font-family="FreeSans" font-size="14.00" fill="#6666ff">Metamodel::RoleContainer</text>
</a>
</g>
</g>
<!-- Metamodel::MultipleInheritance -->
<g id="node13" class="node"><title>Metamodel::MultipleInheritance</title>
<g id="a_node13"><a xlink:href="/type/Metamodel::MultipleInheritance" xlink:title="Metamodel::MultipleInheritance">
<ellipse fill="none" stroke="#6666ff" cx="-82.9137" cy="642.318" rx="133.776" ry="18"/>
<text text-anchor="middle" x="-82.9137" y="646.018" font-family="FreeSans" font-size="14.00" fill="#6666ff">Metamodel::MultipleInheritance</text>
</a>
</g>
</g>
<!-- Metamodel::DefaultParent -->
<g id="node14" class="node"><title>Metamodel::DefaultParent</title>
<g id="a_node14"><a xlink:href="/type/Metamodel::DefaultParent" xlink:title="Metamodel::DefaultParent">
<ellipse fill="none" stroke="#6666ff" cx="-932.849" cy="-583.958" rx="113.18" ry="18"/>
<text text-anchor="middle" x="-932.849" y="-580.258" font-family="FreeSans" font-size="14.00" fill="#6666ff">Metamodel::DefaultParent</text>
</a>
</g>
</g>
<!-- Metamodel::C3MRO -->
<g id="node15" class="node"><title>Metamodel::C3MRO</title>
<g id="a_node15"><a xlink:href="/type/Metamodel::C3MRO" xlink:title="Metamodel::C3MRO">
<ellipse fill="none" stroke="#6666ff" cx="-975.296" cy="-174.335" rx="92.0841" ry="18"/>
<text text-anchor="middle" x="-975.296" y="-170.635" font-family="FreeSans" font-size="14.00" fill="#6666ff">Metamodel::C3MRO</text>
</a>
</g>
</g>
<!-- Metamodel::MROBasedMethodDispatch -->
<g id="node16" class="node"><title>Metamodel::MROBasedMethodDispatch</title>
<g id="a_node16"><a xlink:href="/type/Metamodel::MROBasedMethodDispatch" xlink:title="Metamodel::MROBasedMethodDispatch">
<ellipse fill="none" stroke="#6666ff" cx="-509.246" cy="-267.59" rx="169.77" ry="18"/>
<text text-anchor="middle" x="-509.246" y="-263.89" font-family="FreeSans" font-size="14.00" fill="#6666ff">Metamodel::MROBasedMethodDispatch</text>
</a>
</g>
</g>
<!-- Metamodel::MROBasedTypeChecking -->
<g id="node17" class="node"><title>Metamodel::MROBasedTypeChecking</title>
<g id="a_node17"><a xlink:href="/type/Metamodel::MROBasedTypeChecking" xlink:title="Metamodel::MROBasedTypeChecking">
<ellipse fill="none" stroke="#6666ff" cx="-101.569" cy="-608.662" rx="163.271" ry="18"/>
<text text-anchor="middle" x="-101.569" y="-604.962" font-family="FreeSans" font-size="14.00" fill="#6666ff">Metamodel::MROBasedTypeChecking</text>
</a>
</g>
</g>
<!-- Metamodel::Trusting -->
<g id="node18" class="node"><title>Metamodel::Trusting</title>
<g id="a_node18"><a xlink:href="/type/Metamodel::Trusting" xlink:title="Metamodel::Trusting">
<ellipse fill="none" stroke="#6666ff" cx="-972.139" cy="200.809" rx="91.784" ry="18"/>
<text text-anchor="middle" x="-972.139" y="204.509" font-family="FreeSans" font-size="14.00" fill="#6666ff">Metamodel::Trusting</text>
</a>
</g>
</g>
<!-- Metamodel::BUILDPLAN -->
<g id="node19" class="node"><title>Metamodel::BUILDPLAN</title>
<g id="a_node19"><a xlink:href="/type/Metamodel::BUILDPLAN" xlink:title="Metamodel::BUILDPLAN">
<ellipse fill="none" stroke="#6666ff" cx="-445.374" cy="-611.284" rx="109.681" ry="18"/>
<text text-anchor="middle" x="-445.374" y="-607.584" font-family="FreeSans" font-size="14.00" fill="#6666ff">Metamodel::BUILDPLAN</text>
</a>
</g>
</g>
<!-- Metamodel::Mixins -->
<g id="node20" class="node"><title>Metamodel::Mixins</title>
<g id="a_node20"><a xlink:href="/type/Metamodel::Mixins" xlink:title="Metamodel::Mixins">
<ellipse fill="none" stroke="#6666ff" cx="-580.259" cy="18.0372" rx="85.2851" ry="18"/>
<text text-anchor="middle" x="-580.259" y="21.7372" font-family="FreeSans" font-size="14.00" fill="#6666ff">Metamodel::Mixins</text>
</a>
</g>
</g>
<!-- Metamodel::BoolificationProtocol -->
<g id="node21" class="node"><title>Metamodel::BoolificationProtocol</title>
<g id="a_node21"><a xlink:href="/type/Metamodel::BoolificationProtocol" xlink:title="Metamodel::BoolificationProtocol">
<ellipse fill="none" stroke="#6666ff" cx="219.122" cy="-608.89" rx="139.175" ry="18"/>
<text text-anchor="middle" x="219.122" y="-605.19" font-family="FreeSans" font-size="14.00" fill="#6666ff">Metamodel::BoolificationProtocol</text>
</a>
</g>
</g>
<!-- Metamodel::ClassHOW -->
<g id="node22" class="node"><title>Metamodel::ClassHOW</title>
<g id="a_node22"><a xlink:href="/type/Metamodel::ClassHOW" xlink:title="Metamodel::ClassHOW">
<ellipse fill="none" stroke="#000000" cx="-282.099" cy="29.4065" rx="103.982" ry="18"/>
<text text-anchor="middle" x="-282.099" y="33.1065" font-family="FreeSans" font-size="14.00" fill="#000000">Metamodel::ClassHOW</text>
</a>
</g>
</g>
<!-- Metamodel::ClassHOW&#45;&gt;Metamodel::MultiMethodContainer -->
<g id="edge14" class="edge"><title>Metamodel::ClassHOW&#45;&gt;Metamodel::MultiMethodContainer</title>
<path fill="none" stroke="#6666ff" d="M-238.415,45.7831C-144.561,80.9672 76.1963,163.725 179.878,202.594"/>
<polygon fill="#6666ff" stroke="#6666ff" points="181.403,199.428 189.538,206.215 178.946,205.982 181.403,199.428"/>
</g>
<!-- Metamodel::ClassHOW&#45;&gt;Any -->
<g id="edge2" class="edge"><title>Metamodel::ClassHOW&#45;&gt;Any</title>
<path fill="none" stroke="#000000" d="M-218.748,43.751C-173.697,53.9518 -114.826,67.2819 -77.7479,75.6774"/>
<polygon fill="#000000" stroke="#000000" points="-76.8776,72.2858 -67.8975,77.9078 -78.4235,79.113 -76.8776,72.2858"/>
</g>
<!-- Metamodel::ClassHOW&#45;&gt;Metamodel::Naming -->
<g id="edge6" class="edge"><title>Metamodel::ClassHOW&#45;&gt;Metamodel::Naming</title>
<path fill="none" stroke="#6666ff" d="M-231.758,13.5211C-145.656,-13.6488 20.6995,-66.1431 20.6995,-66.1431 20.6995,-66.1431 183.45,-105.89 278.696,-129.152"/>
<polygon fill="#6666ff" stroke="#6666ff" points="277.999,-132.584 288.544,-131.557 279.66,-125.784 277.999,-132.584"/>
</g>
<!-- Metamodel::ClassHOW&#45;&gt;Metamodel::Documenting -->
<g id="edge7" class="edge"><title>Metamodel::ClassHOW&#45;&gt;Metamodel::Documenting</title>
<path fill="none" stroke="#6666ff" d="M-256.446,11.8707C-155.629,-57.0437 207.881,-305.524 207.881,-305.524 207.881,-305.524 433.29,-491.843 515.509,-559.804"/>
<polygon fill="#6666ff" stroke="#6666ff" points="513.521,-562.702 523.458,-566.375 517.98,-557.306 513.521,-562.702"/>
</g>
<!-- Metamodel::ClassHOW&#45;&gt;Metamodel::Versioning -->
<g id="edge8" class="edge"><title>Metamodel::ClassHOW&#45;&gt;Metamodel::Versioning</title>
<path fill="none" stroke="#6666ff" d="M-295.725,47.2542C-330.719,93.0939 -423.884,215.131 -464.993,268.98"/>
<polygon fill="#6666ff" stroke="#6666ff" points="-462.276,271.19 -471.126,277.015 -467.84,266.942 -462.276,271.19"/>
</g>
<!-- Metamodel::ClassHOW&#45;&gt;Metamodel::Stashing -->
<g id="edge9" class="edge"><title>Metamodel::ClassHOW&#45;&gt;Metamodel::Stashing</title>
<path fill="none" stroke="#6666ff" d="M-275.351,11.0493C-258.121,-35.8232 -212.416,-160.155 -191.878,-216.026"/>
<polygon fill="#6666ff" stroke="#6666ff" points="-195.083,-217.45 -188.348,-225.628 -188.513,-215.035 -195.083,-217.45"/>
</g>
<!-- Metamodel::ClassHOW&#45;&gt;Metamodel::AttributeContainer -->
<g id="edge10" class="edge"><title>Metamodel::ClassHOW&#45;&gt;Metamodel::AttributeContainer</title>
<path fill="none" stroke="#6666ff" d="M-178.067,28.5861C54.3373,26.7535 615.874,22.3255 878.971,20.2509"/>
<polygon fill="#6666ff" stroke="#6666ff" points="879.327,16.7481 889.354,20.169 879.382,23.7478 879.327,16.7481"/>
</g>
<!-- Metamodel::ClassHOW&#45;&gt;Metamodel::Finalization -->
<g id="edge11" class="edge"><title>Metamodel::ClassHOW&#45;&gt;Metamodel::Finalization</title>
<path fill="none" stroke="#6666ff" d="M-302.598,47.2628C-371.028,106.871 -587.298,295.262 -587.298,295.262 -587.298,295.262 -818.753,504.272 -899.68,577.352"/>
<polygon fill="#6666ff" stroke="#6666ff" points="-897.703,580.282 -907.47,584.386 -902.394,575.087 -897.703,580.282"/>
</g>
<!-- Metamodel::ClassHOW&#45;&gt;Metamodel::MethodContainer -->
<g id="edge12" class="edge"><title>Metamodel::ClassHOW&#45;&gt;Metamodel::MethodContainer</title>
<path fill="none" stroke="#6666ff" d="M-231.758,13.5211C-145.656,-13.6488 20.6995,-66.1431 20.6995,-66.1431 20.6995,-66.1431 411.123,-131.751 411.123,-131.751 411.123,-131.751 492.432,-150.411 556.715,-165.163"/>
<polygon fill="#6666ff" stroke="#6666ff" points="555.937,-168.575 566.467,-167.401 557.503,-161.753 555.937,-168.575"/>
</g>
<!-- Metamodel::ClassHOW&#45;&gt;Metamodel::PrivateMethodContainer -->
<g id="edge13" class="edge"><title>Metamodel::ClassHOW&#45;&gt;Metamodel::PrivateMethodContainer</title>
<path fill="none" stroke="#6666ff" d="M-271.869,47.4722C-244.05,96.6018 -166.897,232.852 -133.879,291.163"/>
<polygon fill="#6666ff" stroke="#6666ff" points="-130.673,289.722 -128.791,300.148 -136.764,293.171 -130.673,289.722"/>
</g>
<!-- Metamodel::ClassHOW&#45;&gt;Metamodel::RoleContainer -->
<g id="edge15" class="edge"><title>Metamodel::ClassHOW&#45;&gt;Metamodel::RoleContainer</title>
<path fill="none" stroke="#6666ff" d="M-216.128,15.4395C-149.133,1.25587 -45.3921,-20.7074 25.7728,-35.7739"/>
<polygon fill="#6666ff" stroke="#6666ff" points="25.0829,-39.2054 35.591,-37.8526 26.5328,-32.3572 25.0829,-39.2054"/>
</g>
<!-- Metamodel::ClassHOW&#45;&gt;Metamodel::MultipleInheritance -->
<g id="edge16" class="edge"><title>Metamodel::ClassHOW&#45;&gt;Metamodel::MultipleInheritance</title>
<path fill="none" stroke="#6666ff" d="M-281.646,47.4757C-280.059,110.713 -274.85,318.262 -274.85,318.262 -274.85,318.262 -145.145,537.249 -98.984,615.186"/>
<polygon fill="#6666ff" stroke="#6666ff" points="-95.8677,613.579 -93.783,623.967 -101.891,617.147 -95.8677,613.579"/>
</g>
<!-- Metamodel::ClassHOW&#45;&gt;Metamodel::DefaultParent -->
<g id="edge17" class="edge"><title>Metamodel::ClassHOW&#45;&gt;Metamodel::DefaultParent</title>
<path fill="none" stroke="#6666ff" d="M-305.827,11.7218C-391.591,-52.2002 -680.48,-267.516 -680.48,-267.516 -680.48,-267.516 -851.718,-482.228 -912.088,-557.926"/>
<polygon fill="#6666ff" stroke="#6666ff" points="-915.059,-556.038 -918.558,-566.038 -909.586,-560.402 -915.059,-556.038"/>
</g>
<!-- Metamodel::ClassHOW&#45;&gt;Metamodel::C3MRO -->
<g id="edge18" class="edge"><title>Metamodel::ClassHOW&#45;&gt;Metamodel::C3MRO</title>
<path fill="none" stroke="#6666ff" d="M-335.056,13.8416C-461.496,-23.321 -780.419,-117.057 -914.463,-156.455"/>
<polygon fill="#6666ff" stroke="#6666ff" points="-915.566,-153.131 -924.174,-159.309 -913.592,-159.847 -915.566,-153.131"/>
</g>
<!-- Metamodel::ClassHOW&#45;&gt;Metamodel::MROBasedMethodDispatch -->
<g id="edge19" class="edge"><title>Metamodel::ClassHOW&#45;&gt;Metamodel::MROBasedMethodDispatch</title>
<path fill="none" stroke="#6666ff" d="M-295.966,11.2751C-334.617,-39.2611 -443.686,-181.869 -489.056,-241.191"/>
<polygon fill="#6666ff" stroke="#6666ff" points="-491.977,-239.249 -495.272,-249.319 -486.417,-243.502 -491.977,-239.249"/>
</g>
<!-- Metamodel::ClassHOW&#45;&gt;Metamodel::MROBasedTypeChecking -->
<g id="edge20" class="edge"><title>Metamodel::ClassHOW&#45;&gt;Metamodel::MROBasedTypeChecking</title>
<path fill="none" stroke="#6666ff" d="M-281.745,11.0568C-280.561,-50.198 -276.819,-243.794 -276.819,-243.794 -276.819,-243.794 -155.425,-496.535 -114.705,-581.314"/>
<polygon fill="#6666ff" stroke="#6666ff" points="-117.745,-583.069 -110.26,-590.568 -111.435,-580.038 -117.745,-583.069"/>
</g>
<!-- Metamodel::ClassHOW&#45;&gt;Metamodel::Trusting -->
<g id="edge21" class="edge"><title>Metamodel::ClassHOW&#45;&gt;Metamodel::Trusting</title>
<path fill="none" stroke="#6666ff" d="M-341.829,44.2429C-470.072,76.098 -771.001,150.847 -905.337,184.216"/>
<polygon fill="#6666ff" stroke="#6666ff" points="-904.555,187.628 -915.104,186.642 -906.243,180.834 -904.555,187.628"/>
</g>
<!-- Metamodel::ClassHOW&#45;&gt;Metamodel::BUILDPLAN -->
<g id="edge22" class="edge"><title>Metamodel::ClassHOW&#45;&gt;Metamodel::BUILDPLAN</title>
<path fill="none" stroke="#6666ff" d="M-285.513,11.2706C-297.652,-53.2277 -338.013,-267.664 -338.013,-267.664 -338.013,-267.664 -411.262,-502.107 -436.753,-583.694"/>
<polygon fill="#6666ff" stroke="#6666ff" points="-440.111,-582.704 -439.753,-593.293 -433.43,-584.792 -440.111,-582.704"/>
</g>
<!-- Metamodel::ClassHOW&#45;&gt;Metamodel::Mixins -->
<g id="edge23" class="edge"><title>Metamodel::ClassHOW&#45;&gt;Metamodel::Mixins</title>
<path fill="none" stroke="#6666ff" d="M-383.875,25.5256C-416.908,24.266 -453.398,22.8746 -485.869,21.6364"/>
<polygon fill="#6666ff" stroke="#6666ff" points="-486.402,25.1187 -496.261,21.2402 -486.135,18.1238 -486.402,25.1187"/>
</g>
<!-- Metamodel::ClassHOW&#45;&gt;Metamodel::BoolificationProtocol -->
<g id="edge24" class="edge"><title>Metamodel::ClassHOW&#45;&gt;Metamodel::BoolificationProtocol</title>
<path fill="none" stroke="#6666ff" d="M-267.906,11.3317C-197.331,-78.5447 115.724,-477.215 198.817,-583.032"/>
<polygon fill="#6666ff" stroke="#6666ff" points="196.124,-585.27 205.052,-590.973 201.629,-580.946 196.124,-585.27"/>
</g>
<!-- Metamodel::BaseType -->
<g id="node23" class="node"><title>Metamodel::BaseType</title>
<g id="a_node23"><a xlink:href="/type/Metamodel::BaseType" xlink:title="Metamodel::BaseType">
<ellipse fill="none" stroke="#6666ff" cx="1002.8" cy="-524.994" rx="99.3824" ry="18"/>
<text text-anchor="middle" x="1002.8" y="-521.294" font-family="FreeSans" font-size="14.00" fill="#6666ff">Metamodel::BaseType</text>
</a>
</g>
</g>
<!-- Metamodel::EnumHOW -->
<g id="node24" class="node"><title>Metamodel::EnumHOW</title>
<g id="a_node24"><a xlink:href="/type/Metamodel::EnumHOW" xlink:title="Metamodel::EnumHOW">
<ellipse fill="none" stroke="#000000" cx="101.642" cy="-305.412" rx="104.782" ry="18"/>
<text text-anchor="middle" x="101.642" y="-301.712" font-family="FreeSans" font-size="14.00" fill="#000000">Metamodel::EnumHOW</text>
</a>
</g>
</g>
<!-- Metamodel::EnumHOW&#45;&gt;Metamodel::MultiMethodContainer -->
<g id="edge29" class="edge"><title>Metamodel::EnumHOW&#45;&gt;Metamodel::MultiMethodContainer</title>
<path fill="none" stroke="#6666ff" d="M110.263,-287.225C137.746,-229.239 221.505,-52.5199 221.505,-52.5199 221.505,-52.5199 230.486,124.499 234.062,194.986"/>
<polygon fill="#6666ff" stroke="#6666ff" points="237.576,195.176 234.587,205.341 230.585,195.531 237.576,195.176"/>
</g>
<!-- Metamodel::EnumHOW&#45;&gt;Any -->
<g id="edge3" class="edge"><title>Metamodel::EnumHOW&#45;&gt;Any</title>
<path fill="none" stroke="#000000" d="M93.3925,-287.205C67.0904,-229.156 -13.0686,-52.2437 -13.0686,-52.2437 -13.0686,-52.2437 -27.6661,15.9545 -36.1852,55.7551"/>
<polygon fill="#000000" stroke="#000000" points="-32.7931,56.6299 -38.3087,65.6759 -39.6381,55.1648 -32.7931,56.6299"/>
</g>
<!-- Metamodel::EnumHOW&#45;&gt;Metamodel::Naming -->
<g id="edge25" class="edge"><title>Metamodel::EnumHOW&#45;&gt;Metamodel::Naming</title>
<path fill="none" stroke="#6666ff" d="M128.252,-288.003C172.583,-258.998 261.551,-200.789 310.919,-168.489"/>
<polygon fill="#6666ff" stroke="#6666ff" points="312.914,-171.367 319.365,-162.963 309.081,-165.509 312.914,-171.367"/>
</g>
<!-- Metamodel::EnumHOW&#45;&gt;Metamodel::Stashing -->
<g id="edge26" class="edge"><title>Metamodel::EnumHOW&#45;&gt;Metamodel::Stashing</title>
<path fill="none" stroke="#6666ff" d="M36.6541,-291.301C-6.92904,-281.838 -64.3683,-269.366 -109.386,-259.592"/>
<polygon fill="#6666ff" stroke="#6666ff" points="-108.86,-256.124 -119.375,-257.423 -110.345,-262.965 -108.86,-256.124"/>
</g>
<!-- Metamodel::EnumHOW&#45;&gt;Metamodel::AttributeContainer -->
<g id="edge27" class="edge"><title>Metamodel::EnumHOW&#45;&gt;Metamodel::AttributeContainer</title>
<path fill="none" stroke="#6666ff" d="M147.468,-289.206C300.499,-235.088 793.723,-60.6625 962.29,-1.04995"/>
<polygon fill="#6666ff" stroke="#6666ff" points="963.474,-4.34366 971.735,2.29024 961.14,2.25582 963.474,-4.34366"/>
</g>
<!-- Metamodel::EnumHOW&#45;&gt;Metamodel::MethodContainer -->
<g id="edge28" class="edge"><title>Metamodel::EnumHOW&#45;&gt;Metamodel::MethodContainer</title>
<path fill="none" stroke="#6666ff" d="M164.215,-290.984C261.972,-268.443 450.672,-224.933 556.576,-200.514"/>
<polygon fill="#6666ff" stroke="#6666ff" points="557.603,-203.869 566.561,-198.211 556.03,-197.048 557.603,-203.869"/>
</g>
<!-- Metamodel::EnumHOW&#45;&gt;Metamodel::RoleContainer -->
<g id="edge30" class="edge"><title>Metamodel::EnumHOW&#45;&gt;Metamodel::RoleContainer</title>
<path fill="none" stroke="#6666ff" d="M101.828,-287.215C102.271,-243.629 103.398,-132.996 103.93,-80.6537"/>
<polygon fill="#6666ff" stroke="#6666ff" points="107.433,-80.4494 104.035,-70.4142 100.433,-80.378 107.433,-80.4494"/>
</g>
<!-- Metamodel::EnumHOW&#45;&gt;Metamodel::MROBasedMethodDispatch -->
<g id="edge32" class="edge"><title>Metamodel::EnumHOW&#45;&gt;Metamodel::MROBasedMethodDispatch</title>
<path fill="none" stroke="#6666ff" d="M3.15319,-299.314C-92.8315,-293.372 -240.294,-284.242 -352.423,-277.3"/>
<polygon fill="#6666ff" stroke="#6666ff" points="-352.279,-273.802 -362.476,-276.677 -352.712,-280.788 -352.279,-273.802"/>
</g>
<!-- Metamodel::EnumHOW&#45;&gt;Metamodel::MROBasedTypeChecking -->
<g id="edge33" class="edge"><title>Metamodel::EnumHOW&#45;&gt;Metamodel::MROBasedTypeChecking</title>
<path fill="none" stroke="#6666ff" d="M89.539,-323.474C55.1607,-374.776 -43.2019,-521.561 -83.7574,-582.081"/>
<polygon fill="#6666ff" stroke="#6666ff" points="-86.8703,-580.439 -89.5296,-590.695 -81.0552,-584.336 -86.8703,-580.439"/>
</g>
<!-- Metamodel::EnumHOW&#45;&gt;Metamodel::BUILDPLAN -->
<g id="edge34" class="edge"><title>Metamodel::EnumHOW&#45;&gt;Metamodel::BUILDPLAN</title>
<path fill="none" stroke="#6666ff" d="M70.665,-322.734C-22.6854,-374.932 -301.249,-530.694 -405.45,-588.959"/>
<polygon fill="#6666ff" stroke="#6666ff" points="-407.378,-586.028 -414.398,-593.963 -403.962,-592.137 -407.378,-586.028"/>
</g>
<!-- Metamodel::EnumHOW&#45;&gt;Metamodel::BoolificationProtocol -->
<g id="edge35" class="edge"><title>Metamodel::EnumHOW&#45;&gt;Metamodel::BoolificationProtocol</title>
<path fill="none" stroke="#6666ff" d="M108.639,-323.487C128.432,-374.617 184.912,-520.519 208.534,-581.539"/>
<polygon fill="#6666ff" stroke="#6666ff" points="205.287,-582.848 212.161,-590.91 211.815,-580.321 205.287,-582.848"/>
</g>
<!-- Metamodel::EnumHOW&#45;&gt;Metamodel::BaseType -->
<g id="edge31" class="edge"><title>Metamodel::EnumHOW&#45;&gt;Metamodel::BaseType</title>
<path fill="none" stroke="#6666ff" d="M162.169,-320.161C323.42,-359.452 762.701,-466.49 933.536,-508.117"/>
<polygon fill="#6666ff" stroke="#6666ff" points="932.877,-511.558 943.422,-510.525 934.535,-504.757 932.877,-511.558"/>
</g>
<!-- Metamodel::ConcreteRoleHOW -->
<g id="node25" class="node"><title>Metamodel::ConcreteRoleHOW</title>
<g id="a_node25"><a xlink:href="/type/Metamodel::ConcreteRoleHOW" xlink:title="Metamodel::ConcreteRoleHOW">
<ellipse fill="none" stroke="#000000" cx="211.635" cy="591.707" rx="135.676" ry="18"/>
<text text-anchor="middle" x="211.635" y="595.407" font-family="FreeSans" font-size="14.00" fill="#000000">Metamodel::ConcreteRoleHOW</text>
</a>
</g>
</g>
<!-- Metamodel::ConcreteRoleHOW&#45;&gt;Metamodel::MultiMethodContainer -->
<g id="edge40" class="edge"><title>Metamodel::ConcreteRoleHOW&#45;&gt;Metamodel::MultiMethodContainer</title>
<path fill="none" stroke="#6666ff" d="M212.802,573.696C216.649,514.359 228.944,324.673 233.65,252.08"/>
<polygon fill="#6666ff" stroke="#6666ff" points="230.173,251.612 234.313,241.86 237.158,252.065 230.173,251.612"/>
</g>
<!-- Metamodel::ConcreteRoleHOW&#45;&gt;Any -->
<g id="edge4" class="edge"><title>Metamodel::ConcreteRoleHOW&#45;&gt;Any</title>
<path fill="none" stroke="#000000" d="M202.601,573.628C164.388,497.148 15.9189,200 -29.137,109.824"/>
<polygon fill="#000000" stroke="#000000" points="-32.3012,111.322 -33.6399,100.812 -26.0393,108.193 -32.3012,111.322"/>
</g>
<!-- Metamodel::ConcreteRoleHOW&#45;&gt;Metamodel::Naming -->
<g id="edge36" class="edge"><title>Metamodel::ConcreteRoleHOW&#45;&gt;Metamodel::Naming</title>
<path fill="none" stroke="#6666ff" d="M220.033,573.692C254.506,499.738 383.341,223.355 383.341,223.355 383.341,223.355 357.535,-31.2191 348.795,-117.427"/>
<polygon fill="#6666ff" stroke="#6666ff" points="345.298,-117.229 347.771,-127.531 352.262,-117.935 345.298,-117.229"/>
</g>
<!-- Metamodel::ConcreteRoleHOW&#45;&gt;Metamodel::Versioning -->
<g id="edge37" class="edge"><title>Metamodel::ConcreteRoleHOW&#45;&gt;Metamodel::Versioning</title>
<path fill="none" stroke="#6666ff" d="M171.172,574.48C50.6352,523.162 -305.749,371.433 -436.313,315.846"/>
<polygon fill="#6666ff" stroke="#6666ff" points="-437.854,318.994 -445.684,311.856 -435.112,312.553 -437.854,318.994"/>
</g>
<!-- Metamodel::ConcreteRoleHOW&#45;&gt;Metamodel::AttributeContainer -->
<g id="edge41" class="edge"><title>Metamodel::ConcreteRoleHOW&#45;&gt;Metamodel::AttributeContainer</title>
<path fill="none" stroke="#6666ff" d="M236.695,573.944C354.342,490.552 851.736,137.983 985.919,42.8697"/>
<polygon fill="#6666ff" stroke="#6666ff" points="984.042,39.9101 994.224,36.9826 988.09,45.621 984.042,39.9101"/>
</g>
<!-- Metamodel::ConcreteRoleHOW&#45;&gt;Metamodel::MethodContainer -->
<g id="edge39" class="edge"><title>Metamodel::ConcreteRoleHOW&#45;&gt;Metamodel::MethodContainer</title>
<path fill="none" stroke="#6666ff" d="M221.269,573.644C263.009,495.383 426.147,189.505 426.147,189.505 426.147,189.505 571.003,-70.5925 618.558,-155.981"/>
<polygon fill="#6666ff" stroke="#6666ff" points="615.56,-157.791 623.483,-164.824 621.676,-154.385 615.56,-157.791"/>
</g>
<!-- Metamodel::ConcreteRoleHOW&#45;&gt;Metamodel::PrivateMethodContainer -->
<g id="edge38" class="edge"><title>Metamodel::ConcreteRoleHOW&#45;&gt;Metamodel::PrivateMethodContainer</title>
<path fill="none" stroke="#6666ff" d="M189.969,573.762C132.593,526.238 -23.3727,397.053 -88.9203,342.761"/>
<polygon fill="#6666ff" stroke="#6666ff" points="-91.351,345.292 -96.8197,336.218 -86.8857,339.902 -91.351,345.292"/>
</g>
<!-- Metamodel::ConcreteRoleHOW&#45;&gt;Metamodel::RoleContainer -->
<g id="edge42" class="edge"><title>Metamodel::ConcreteRoleHOW&#45;&gt;Metamodel::RoleContainer</title>
<path fill="none" stroke="#6666ff" d="M205.572,573.701C180.683,499.784 87.6707,223.541 87.6707,223.541 87.6707,223.541 98.285,46.5514 102.512,-23.9247"/>
<polygon fill="#6666ff" stroke="#6666ff" points="99.04,-24.5052 103.132,-34.2777 106.027,-24.0861 99.04,-24.5052"/>
</g>
<!-- Metamodel::ConcreteRoleHOW&#45;&gt;Metamodel::MultipleInheritance -->
<g id="edge43" class="edge"><title>Metamodel::ConcreteRoleHOW&#45;&gt;Metamodel::MultipleInheritance</title>
<path fill="none" stroke="#6666ff" d="M128.41,606.007C91.399,612.367 47.6855,619.878 9.64819,626.414"/>
<polygon fill="#6666ff" stroke="#6666ff" points="10.0441,629.897 -0.404243,628.141 8.8586,622.998 10.0441,629.897"/>
</g>
<!-- Metamodel::TypePretense -->
<g id="node26" class="node"><title>Metamodel::TypePretense</title>
<g id="a_node26"><a xlink:href="/type/Metamodel::TypePretense" xlink:title="Metamodel::TypePretense">
<ellipse fill="none" stroke="#6666ff" cx="539.217" cy="604.473" rx="114.28" ry="18"/>
<text text-anchor="middle" x="539.217" y="608.173" font-family="FreeSans" font-size="14.00" fill="#6666ff">Metamodel::TypePretense</text>
</a>
</g>
</g>
<!-- Metamodel::RolePunning -->
<g id="node27" class="node"><title>Metamodel::RolePunning</title>
<g id="a_node27"><a xlink:href="/type/Metamodel::RolePunning" xlink:title="Metamodel::RolePunning">
<ellipse fill="none" stroke="#6666ff" cx="995.113" cy="541.49" rx="109.681" ry="18"/>
<text text-anchor="middle" x="995.113" y="545.19" font-family="FreeSans" font-size="14.00" fill="#6666ff">Metamodel::RolePunning</text>
</a>
</g>
</g>
<!-- Metamodel::ParametricRoleHOW -->
<g id="node28" class="node"><title>Metamodel::ParametricRoleHOW</title>
<g id="a_node28"><a xlink:href="/type/Metamodel::ParametricRoleHOW" xlink:title="Metamodel::ParametricRoleHOW">
<ellipse fill="none" stroke="#000000" cx="570.08" cy="189.348" rx="142.175" ry="18"/>
<text text-anchor="middle" x="570.08" y="193.048" font-family="FreeSans" font-size="14.00" fill="#000000">Metamodel::ParametricRoleHOW</text>
</a>
</g>
</g>
<!-- Metamodel::ParametricRoleHOW&#45;&gt;Metamodel::MultiMethodContainer -->
<g id="edge49" class="edge"><title>Metamodel::ParametricRoleHOW&#45;&gt;Metamodel::MultiMethodContainer</title>
<path fill="none" stroke="#6666ff" d="M459.137,200.655C426.814,203.95 391.315,207.568 358.307,210.932"/>
<polygon fill="#6666ff" stroke="#6666ff" points="358.453,214.435 348.15,211.967 357.743,207.471 358.453,214.435"/>
</g>
<!-- Metamodel::ParametricRoleHOW&#45;&gt;Any -->
<g id="edge5" class="edge"><title>Metamodel::ParametricRoleHOW&#45;&gt;Any</title>
<path fill="none" stroke="#000000" d="M485.912,174.829C350.537,151.476 89.9315,106.521 -5.77247,90.0117"/>
<polygon fill="#000000" stroke="#000000" points="-6.56557,93.4267 -15.825,88.2776 -5.37557,86.5286 -6.56557,93.4267"/>
</g>
<!-- Metamodel::ParametricRoleHOW&#45;&gt;Metamodel::Naming -->
<g id="edge44" class="edge"><title>Metamodel::ParametricRoleHOW&#45;&gt;Metamodel::Naming</title>
<path fill="none" stroke="#6666ff" d="M558.03,171.341C520.86,115.8 407.853,-53.0631 363.796,-118.896"/>
<polygon fill="#6666ff" stroke="#6666ff" points="360.705,-117.222 358.052,-127.479 366.523,-121.115 360.705,-117.222"/>
</g>
<!-- Metamodel::ParametricRoleHOW&#45;&gt;Metamodel::Documenting -->
<g id="edge45" class="edge"><title>Metamodel::ParametricRoleHOW&#45;&gt;Metamodel::Documenting</title>
<path fill="none" stroke="#6666ff" d="M566.873,171.148C553.705,96.4397 504.495,-182.763 504.495,-182.763 504.495,-182.763 532.984,-464.697 542.214,-556.04"/>
<polygon fill="#6666ff" stroke="#6666ff" points="538.754,-556.606 543.241,-566.203 545.718,-555.902 538.754,-556.606"/>
</g>
<!-- Metamodel::ParametricRoleHOW&#45;&gt;Metamodel::Versioning -->
<g id="edge46" class="edge"><title>Metamodel::ParametricRoleHOW&#45;&gt;Metamodel::Versioning</title>
<path fill="none" stroke="#6666ff" d="M435.16,195.183C341.995,199.212 234.804,203.848 234.804,203.848 234.804,203.848 130.474,209.655 130.474,209.655 130.474,209.655 -224.335,258.935 -395.149,282.66"/>
<polygon fill="#6666ff" stroke="#6666ff" points="-394.747,286.138 -405.133,284.047 -395.71,279.205 -394.747,286.138"/>
</g>
<!-- Metamodel::ParametricRoleHOW&#45;&gt;Metamodel::Stashing -->
<g id="edge53" class="edge"><title>Metamodel::ParametricRoleHOW&#45;&gt;Metamodel::Stashing</title>
<path fill="none" stroke="#6666ff" d="M544.449,171.563C463.95,115.706 221.505,-52.5199 221.505,-52.5199 221.505,-52.5199 -32.2844,-173.005 -137.132,-222.78"/>
<polygon fill="#6666ff" stroke="#6666ff" points="-138.674,-219.638 -146.207,-227.089 -135.672,-225.962 -138.674,-219.638"/>
</g>
<!-- Metamodel::ParametricRoleHOW&#45;&gt;Metamodel::AttributeContainer -->
<g id="edge50" class="edge"><title>Metamodel::ParametricRoleHOW&#45;&gt;Metamodel::AttributeContainer</title>
<path fill="none" stroke="#6666ff" d="M615.219,172.249C698.421,140.731 875.628,73.6027 965.184,39.6779"/>
<polygon fill="#6666ff" stroke="#6666ff" points="964.024,36.3746 974.615,36.1051 966.504,42.9207 964.024,36.3746"/>
</g>
<!-- Metamodel::ParametricRoleHOW&#45;&gt;Metamodel::MethodContainer -->
<g id="edge47" class="edge"><title>Metamodel::ParametricRoleHOW&#45;&gt;Metamodel::MethodContainer</title>
<path fill="none" stroke="#6666ff" d="M573.181,171.147C583.421,111.048 616.207,-81.3796 628.64,-154.355"/>
<polygon fill="#6666ff" stroke="#6666ff" points="625.259,-155.345 630.389,-164.615 632.159,-154.169 625.259,-155.345"/>
</g>
<!-- Metamodel::ParametricRoleHOW&#45;&gt;Metamodel::PrivateMethodContainer -->
<g id="edge48" class="edge"><title>Metamodel::ParametricRoleHOW&#45;&gt;Metamodel::PrivateMethodContainer</title>
<path fill="none" stroke="#6666ff" d="M496.188,204.765C429.086,218.766 340.538,237.241 340.538,237.241 340.538,237.241 111.109,277.702 -23.3742,301.419"/>
<polygon fill="#6666ff" stroke="#6666ff" points="-22.8311,304.878 -33.287,303.168 -24.0469,297.984 -22.8311,304.878"/>
</g>
<!-- Metamodel::ParametricRoleHOW&#45;&gt;Metamodel::RoleContainer -->
<g id="edge51" class="edge"><title>Metamodel::ParametricRoleHOW&#45;&gt;Metamodel::RoleContainer</title>
<path fill="none" stroke="#6666ff" d="M536.201,171.768C452.902,128.546 238.236,17.1584 146.648,-30.3657"/>
<polygon fill="#6666ff" stroke="#6666ff" points="144.921,-27.3183 137.657,-35.0308 148.145,-33.5316 144.921,-27.3183"/>
</g>
<!-- Metamodel::ParametricRoleHOW&#45;&gt;Metamodel::MultipleInheritance -->
<g id="edge52" class="edge"><title>Metamodel::ParametricRoleHOW&#45;&gt;Metamodel::MultipleInheritance</title>
<path fill="none" stroke="#6666ff" d="M544.482,207.105C442.79,277.647 67.2787,538.132 -48.6188,618.528"/>
<polygon fill="#6666ff" stroke="#6666ff" points="-46.9273,621.615 -57.1388,624.439 -50.9171,615.863 -46.9273,621.615"/>
</g>
<!-- Metamodel::ParametricRoleHOW&#45;&gt;Metamodel::TypePretense -->
<g id="edge54" class="edge"><title>Metamodel::ParametricRoleHOW&#45;&gt;Metamodel::TypePretense</title>
<path fill="none" stroke="#6666ff" d="M568.734,207.452C563.881,272.733 547.254,496.373 541.332,576.022"/>
<polygon fill="#6666ff" stroke="#6666ff" points="544.802,576.561 540.57,586.273 537.821,576.041 544.802,576.561"/>
</g>
<!-- Metamodel::ParametricRoleHOW&#45;&gt;Metamodel::RolePunning -->
<g id="edge55" class="edge"><title>Metamodel::ParametricRoleHOW&#45;&gt;Metamodel::RolePunning</title>
<path fill="none" stroke="#6666ff" d="M591.742,207.295C662.314,265.764 885.675,450.82 965.991,517.362"/>
<polygon fill="#6666ff" stroke="#6666ff" points="968.281,514.714 973.748,523.789 963.815,520.104 968.281,514.714"/>
</g>
</g>
</svg>
