<?xml version="1.0" encoding="UTF-8" standalone="no"?>
<!DOCTYPE svg PUBLIC "-//W3C//DTD SVG 1.1//EN"
 "http://www.w3.org/Graphics/SVG/1.1/DTD/svg11.dtd">
<!-- Generated by graphviz version 2.38.0 (20140413.2041)
 -->
<!-- Title: perl6&#45;type&#45;graph Pages: 1 -->
<svg width="333pt" height="404pt"
 viewBox="0.00 0.00 332.73 404.00" xmlns="http://www.w3.org/2000/svg" xmlns:xlink="http://www.w3.org/1999/xlink">
<g id="graph0" class="graph" transform="scale(1 1) rotate(0) translate(4 400)">
<title>perl6&#45;type&#45;graph</title>
<polygon fill="white" stroke="none" points="-4,4 -4,-400 328.734,-400 328.734,4 -4,4"/>
<!-- X::Syntax::Pod::BeginWithoutEnd -->
<g id="node1" class="node"><title>X::Syntax::Pod::BeginWithoutEnd</title>
<g id="a_node1"><a xlink:href="/type/X::Syntax::Pod::BeginWithoutEnd" xlink:title="X::Syntax::Pod::BeginWithoutEnd">
<ellipse fill="none" stroke="#000000" cx="141.687" cy="-18" rx="141.875" ry="18"/>
<text text-anchor="middle" x="141.687" y="-14.3" font-family="FreeSans" font-size="14.00" fill="#000000">X::Syntax::Pod::BeginWithoutEnd</text>
</a>
</g>
</g>
<!-- Exception -->
<g id="node4" class="node"><title>Exception</title>
<g id="a_node4"><a xlink:href="/type/Exception" xlink:title="Exception">
<ellipse fill="none" stroke="#000000" cx="122.687" cy="-234" rx="49.2915" ry="18"/>
<text text-anchor="middle" x="122.687" y="-230.3" font-family="FreeSans" font-size="14.00" fill="#000000">Exception</text>
</a>
</g>
</g>
<!-- X::Syntax::Pod::BeginWithoutEnd&#45;&gt;Exception -->
<g id="edge1" class="edge"><title>X::Syntax::Pod::BeginWithoutEnd&#45;&gt;Exception</title>
<path fill="none" stroke="#000000" d="M130.337,-36.0613C124.088,-51.5549 118.687,-72 118.687,-72 118.687,-72 115.966,-159.624 118.152,-205.586"/>
<polygon fill="#000000" stroke="#000000" points="114.671,-206.003 118.777,-215.77 121.658,-205.575 114.671,-206.003"/>
</g>
<!-- X::Syntax::Pod::BeginWithoutEnd&#45;&gt;Exception -->
<g id="edge2" class="edge"><title>X::Syntax::Pod::BeginWithoutEnd&#45;&gt;Exception</title>
<path fill="none" stroke="#000000" d="M144.024,-36.0613C142.088,-51.5549 136.687,-72 136.687,-72 136.687,-72 133.953,-160.054 128.888,-205.923"/>
<polygon fill="#000000" stroke="#000000" points="125.387,-205.719 127.625,-216.074 132.333,-206.583 125.387,-205.719"/>
</g>
<!-- X::Syntax -->
<g id="node6" class="node"><title>X::Syntax</title>
<g id="a_node6"><a xlink:href="/type/X::Syntax" xlink:title="X::Syntax">
<ellipse fill="none" stroke="#6666ff" cx="184.687" cy="-90" rx="48.1917" ry="18"/>
<text text-anchor="middle" x="184.687" y="-86.3" font-family="FreeSans" font-size="14.00" fill="#6666ff">X::Syntax</text>
</a>
</g>
</g>
<!-- X::Syntax::Pod::BeginWithoutEnd&#45;&gt;X::Syntax -->
<g id="edge7" class="edge"><title>X::Syntax::Pod::BeginWithoutEnd&#45;&gt;X::Syntax</title>
<path fill="none" stroke="#6666ff" d="M152.317,-36.3034C157.39,-44.5626 163.56,-54.606 169.146,-63.7006"/>
<polygon fill="#6666ff" stroke="#6666ff" points="166.26,-65.6889 174.477,-72.3777 172.225,-62.0249 166.26,-65.6889"/>
</g>
<!-- X::Pod -->
<g id="node7" class="node"><title>X::Pod</title>
<g id="a_node7"><a xlink:href="/type/X::Pod" xlink:title="X::Pod">
<ellipse fill="none" stroke="#6666ff" cx="287.687" cy="-90" rx="37.0935" ry="18"/>
<text text-anchor="middle" x="287.687" y="-86.3" font-family="FreeSans" font-size="14.00" fill="#6666ff">X::Pod</text>
</a>
</g>
</g>
<!-- X::Syntax::Pod::BeginWithoutEnd&#45;&gt;X::Pod -->
<g id="edge8" class="edge"><title>X::Syntax::Pod::BeginWithoutEnd&#45;&gt;X::Pod</title>
<path fill="none" stroke="#6666ff" d="M176.287,-35.589C199.411,-46.6756 229.72,-61.2075 252.885,-72.3141"/>
<polygon fill="#6666ff" stroke="#6666ff" points="251.486,-75.5244 262.016,-76.6917 254.512,-69.2124 251.486,-75.5244"/>
</g>
<!-- Mu -->
<g id="node2" class="node"><title>Mu</title>
<g id="a_node2"><a xlink:href="/type/Mu" xlink:title="Mu">
<ellipse fill="none" stroke="#000000" cx="122.687" cy="-378" rx="27" ry="18"/>
<text text-anchor="middle" x="122.687" y="-374.3" font-family="FreeSans" font-size="14.00" fill="#000000">Mu</text>
</a>
</g>
</g>
<!-- Any -->
<g id="node3" class="node"><title>Any</title>
<g id="a_node3"><a xlink:href="/type/Any" xlink:title="Any">
<ellipse fill="none" stroke="#000000" cx="122.687" cy="-306" rx="27" ry="18"/>
<text text-anchor="middle" x="122.687" y="-302.3" font-family="FreeSans" font-size="14.00" fill="#000000">Any</text>
</a>
</g>
</g>
<!-- Any&#45;&gt;Mu -->
<g id="edge3" class="edge"><title>Any&#45;&gt;Mu</title>
<path fill="none" stroke="#000000" d="M122.687,-324.303C122.687,-332.017 122.687,-341.288 122.687,-349.888"/>
<polygon fill="#000000" stroke="#000000" points="119.188,-349.896 122.687,-359.896 126.188,-349.896 119.188,-349.896"/>
</g>
<!-- Exception&#45;&gt;Any -->
<g id="edge4" class="edge"><title>Exception&#45;&gt;Any</title>
<path fill="none" stroke="#000000" d="M122.687,-252.303C122.687,-260.017 122.687,-269.288 122.687,-277.888"/>
<polygon fill="#000000" stroke="#000000" points="119.188,-277.896 122.687,-287.896 126.188,-277.896 119.188,-277.896"/>
</g>
<!-- X::Comp -->
<g id="node5" class="node"><title>X::Comp</title>
<g id="a_node5"><a xlink:href="/type/X::Comp" xlink:title="X::Comp">
<ellipse fill="none" stroke="#6666ff" cx="219.687" cy="-162" rx="44.6926" ry="18"/>
<text text-anchor="middle" x="219.687" y="-158.3" font-family="FreeSans" font-size="14.00" fill="#6666ff">X::Comp</text>
</a>
</g>
</g>
<!-- X::Comp&#45;&gt;Exception -->
<g id="edge5" class="edge"><title>X::Comp&#45;&gt;Exception</title>
<path fill="none" stroke="#000000" d="M198.64,-178.189C185.132,-187.937 167.388,-200.742 152.448,-211.523"/>
<polygon fill="#000000" stroke="#000000" points="150.09,-208.909 144.029,-217.599 154.186,-214.585 150.09,-208.909"/>
</g>
<!-- X::Syntax&#45;&gt;Exception -->
<g id="edge6" class="edge"><title>X::Syntax&#45;&gt;Exception</title>
<path fill="none" stroke="#000000" d="M177.332,-107.847C166.658,-132.294 146.776,-177.829 134.164,-206.714"/>
<polygon fill="#000000" stroke="#000000" points="130.827,-205.61 130.034,-216.175 137.243,-208.411 130.827,-205.61"/>
</g>
<!-- X::Syntax&#45;&gt;X::Comp -->
<g id="edge9" class="edge"><title>X::Syntax&#45;&gt;X::Comp</title>
<path fill="none" stroke="#6666ff" d="M193.16,-107.945C197.244,-116.113 202.232,-126.088 206.775,-135.176"/>
<polygon fill="#6666ff" stroke="#6666ff" points="203.69,-136.832 211.293,-144.211 209.951,-133.701 203.69,-136.832"/>
</g>
</g>
</svg>
