<?xml version="1.0" encoding="UTF-8" standalone="no"?>
<!DOCTYPE svg PUBLIC "-//W3C//DTD SVG 1.1//EN"
 "http://www.w3.org/Graphics/SVG/1.1/DTD/svg11.dtd">
<!-- Generated by graphviz version 2.38.0 (20140413.2041)
 -->
<!-- Title: perl6&#45;type&#45;graph Pages: 1 -->
<svg width="1599pt" height="260pt"
 viewBox="0.00 0.00 1598.88 260.00" xmlns="http://www.w3.org/2000/svg" xmlns:xlink="http://www.w3.org/1999/xlink">
<g id="graph0" class="graph" transform="scale(1 1) rotate(0) translate(4 256)">
<title>perl6&#45;type&#45;graph</title>
<polygon fill="white" stroke="none" points="-4,4 -4,-256 1594.88,-256 1594.88,4 -4,4"/>
<!-- Pod::Block -->
<g id="node1" class="node"><title>Pod::Block</title>
<g id="a_node1"><a xlink:href="/type/Pod::Block" xlink:title="Pod::Block">
<ellipse fill="none" stroke="#000000" cx="789.693" cy="-90" rx="53.0913" ry="18"/>
<text text-anchor="middle" x="789.693" y="-86.3" font-family="FreeSans" font-size="14.00" fill="#000000">Pod::Block</text>
</a>
</g>
</g>
<!-- Any -->
<g id="node3" class="node"><title>Any</title>
<g id="a_node3"><a xlink:href="/type/Any" xlink:title="Any">
<ellipse fill="none" stroke="#000000" cx="789.693" cy="-162" rx="27" ry="18"/>
<text text-anchor="middle" x="789.693" y="-158.3" font-family="FreeSans" font-size="14.00" fill="#000000">Any</text>
</a>
</g>
</g>
<!-- Pod::Block&#45;&gt;Any -->
<g id="edge1" class="edge"><title>Pod::Block&#45;&gt;Any</title>
<path fill="none" stroke="#000000" d="M789.693,-108.303C789.693,-116.017 789.693,-125.288 789.693,-133.888"/>
<polygon fill="#000000" stroke="#000000" points="786.193,-133.896 789.693,-143.896 793.193,-133.896 786.193,-133.896"/>
</g>
<!-- Mu -->
<g id="node2" class="node"><title>Mu</title>
<g id="a_node2"><a xlink:href="/type/Mu" xlink:title="Mu">
<ellipse fill="none" stroke="#000000" cx="789.693" cy="-234" rx="27" ry="18"/>
<text text-anchor="middle" x="789.693" y="-230.3" font-family="FreeSans" font-size="14.00" fill="#000000">Mu</text>
</a>
</g>
</g>
<!-- Any&#45;&gt;Mu -->
<g id="edge2" class="edge"><title>Any&#45;&gt;Mu</title>
<path fill="none" stroke="#000000" d="M789.693,-180.303C789.693,-188.017 789.693,-197.288 789.693,-205.888"/>
<polygon fill="#000000" stroke="#000000" points="786.193,-205.896 789.693,-215.896 793.193,-205.896 786.193,-205.896"/>
</g>
<!-- Pod::Block::Para -->
<g id="node4" class="node"><title>Pod::Block::Para</title>
<g id="a_node4"><a xlink:href="/type/Pod::Block::Para" xlink:title="Pod::Block::Para">
<ellipse fill="none" stroke="#000000" cx="76.6932" cy="-18" rx="76.8869" ry="18"/>
<text text-anchor="middle" x="76.6932" y="-14.3" font-family="FreeSans" font-size="14.00" fill="#000000">Pod::Block::Para</text>
</a>
</g>
</g>
<!-- Pod::Block::Para&#45;&gt;Pod::Block -->
<g id="edge3" class="edge"><title>Pod::Block::Para&#45;&gt;Pod::Block</title>
<path fill="none" stroke="#000000" d="M132.916,-30.2446C148.723,-33.406 161.693,-36 161.693,-36 161.693,-36 570.666,-70.5152 728.539,-83.8389"/>
<polygon fill="#000000" stroke="#000000" points="728.309,-87.3318 738.568,-84.6853 728.897,-80.3566 728.309,-87.3318"/>
</g>
<!-- Pod::Block::Table -->
<g id="node5" class="node"><title>Pod::Block::Table</title>
<g id="a_node5"><a xlink:href="/type/Pod::Block::Table" xlink:title="Pod::Block::Table">
<ellipse fill="none" stroke="#000000" cx="251.693" cy="-18" rx="80.6858" ry="18"/>
<text text-anchor="middle" x="251.693" y="-14.3" font-family="FreeSans" font-size="14.00" fill="#000000">Pod::Block::Table</text>
</a>
</g>
</g>
<!-- Pod::Block::Table&#45;&gt;Pod::Block -->
<g id="edge4" class="edge"><title>Pod::Block::Table&#45;&gt;Pod::Block</title>
<path fill="none" stroke="#000000" d="M311.057,-30.3392C327.383,-33.4576 340.693,-36 340.693,-36 340.693,-36 608.454,-67.6065 730.426,-82.0041"/>
<polygon fill="#000000" stroke="#000000" points="730.017,-85.48 740.358,-83.1765 730.837,-78.5282 730.017,-85.48"/>
</g>
<!-- Pod::Block::Declarator -->
<g id="node6" class="node"><title>Pod::Block::Declarator</title>
<g id="a_node6"><a xlink:href="/type/Pod::Block::Declarator" xlink:title="Pod::Block::Declarator">
<ellipse fill="none" stroke="#000000" cx="448.693" cy="-18" rx="98.5829" ry="18"/>
<text text-anchor="middle" x="448.693" y="-14.3" font-family="FreeSans" font-size="14.00" fill="#000000">Pod::Block::Declarator</text>
</a>
</g>
</g>
<!-- Pod::Block::Declarator&#45;&gt;Pod::Block -->
<g id="edge5" class="edge"><title>Pod::Block::Declarator&#45;&gt;Pod::Block</title>
<path fill="none" stroke="#000000" d="M511.635,-31.9207C575.894,-45.1115 674.602,-65.3743 735.496,-77.8744"/>
<polygon fill="#000000" stroke="#000000" points="734.802,-81.3049 745.302,-79.8874 736.21,-74.4479 734.802,-81.3049"/>
</g>
<!-- Pod::Heading -->
<g id="node7" class="node"><title>Pod::Heading</title>
<g id="a_node7"><a xlink:href="/type/Pod::Heading" xlink:title="Pod::Heading">
<ellipse fill="none" stroke="#000000" cx="628.693" cy="-18" rx="63.8893" ry="18"/>
<text text-anchor="middle" x="628.693" y="-14.3" font-family="FreeSans" font-size="14.00" fill="#000000">Pod::Heading</text>
</a>
</g>
</g>
<!-- Pod::Heading&#45;&gt;Pod::Block -->
<g id="edge6" class="edge"><title>Pod::Heading&#45;&gt;Pod::Block</title>
<path fill="none" stroke="#000000" d="M662.052,-33.504C687.236,-44.4534 721.923,-59.5349 748.782,-71.2125"/>
<polygon fill="#000000" stroke="#000000" points="747.725,-74.5693 758.291,-75.3469 750.516,-68.1498 747.725,-74.5693"/>
</g>
<!-- Pod::Block::Code -->
<g id="node8" class="node"><title>Pod::Block::Code</title>
<g id="a_node8"><a xlink:href="/type/Pod::Block::Code" xlink:title="Pod::Block::Code">
<ellipse fill="none" stroke="#000000" cx="789.693" cy="-18" rx="79.0865" ry="18"/>
<text text-anchor="middle" x="789.693" y="-14.3" font-family="FreeSans" font-size="14.00" fill="#000000">Pod::Block::Code</text>
</a>
</g>
</g>
<!-- Pod::Block::Code&#45;&gt;Pod::Block -->
<g id="edge7" class="edge"><title>Pod::Block::Code&#45;&gt;Pod::Block</title>
<path fill="none" stroke="#000000" d="M789.693,-36.3034C789.693,-44.0173 789.693,-53.2875 789.693,-61.8876"/>
<polygon fill="#000000" stroke="#000000" points="786.193,-61.8956 789.693,-71.8957 793.193,-61.8957 786.193,-61.8956"/>
</g>
<!-- Pod::Block::Named -->
<g id="node9" class="node"><title>Pod::Block::Named</title>
<g id="a_node9"><a xlink:href="/type/Pod::Block::Named" xlink:title="Pod::Block::Named">
<ellipse fill="none" stroke="#000000" cx="973.693" cy="-18" rx="87.1846" ry="18"/>
<text text-anchor="middle" x="973.693" y="-14.3" font-family="FreeSans" font-size="14.00" fill="#000000">Pod::Block::Named</text>
</a>
</g>
</g>
<!-- Pod::Block::Named&#45;&gt;Pod::Block -->
<g id="edge8" class="edge"><title>Pod::Block::Named&#45;&gt;Pod::Block</title>
<path fill="none" stroke="#000000" d="M933.768,-34.189C904.107,-45.4731 863.678,-60.8536 833.196,-72.4502"/>
<polygon fill="#000000" stroke="#000000" points="831.776,-69.2453 823.675,-76.0723 834.266,-75.7878 831.776,-69.2453"/>
</g>
<!-- Pod::FormattingCode -->
<g id="node10" class="node"><title>Pod::FormattingCode</title>
<g id="a_node10"><a xlink:href="/type/Pod::FormattingCode" xlink:title="Pod::FormattingCode">
<ellipse fill="none" stroke="#000000" cx="1172.69" cy="-18" rx="94.4839" ry="18"/>
<text text-anchor="middle" x="1172.69" y="-14.3" font-family="FreeSans" font-size="14.00" fill="#000000">Pod::FormattingCode</text>
</a>
</g>
</g>
<!-- Pod::FormattingCode&#45;&gt;Pod::Block -->
<g id="edge9" class="edge"><title>Pod::FormattingCode&#45;&gt;Pod::Block</title>
<path fill="none" stroke="#000000" d="M1106.85,-31.0334C1033.06,-44.5207 914.692,-66.1543 845.339,-78.8298"/>
<polygon fill="#000000" stroke="#000000" points="844.681,-75.392 835.473,-80.6329 845.939,-82.2779 844.681,-75.392"/>
</g>
<!-- Pod::Item -->
<g id="node11" class="node"><title>Pod::Item</title>
<g id="a_node11"><a xlink:href="/type/Pod::Item" xlink:title="Pod::Item">
<ellipse fill="none" stroke="#000000" cx="1332.69" cy="-18" rx="48.1917" ry="18"/>
<text text-anchor="middle" x="1332.69" y="-14.3" font-family="FreeSans" font-size="14.00" fill="#000000">Pod::Item</text>
</a>
</g>
</g>
<!-- Pod::Item&#45;&gt;Pod::Block -->
<g id="edge10" class="edge"><title>Pod::Item&#45;&gt;Pod::Block</title>
<path fill="none" stroke="#000000" d="M1296.27,-29.8626C1285.1,-33.1943 1275.69,-36 1275.69,-36 1275.69,-36 980.263,-68.2177 850.077,-82.4149"/>
<polygon fill="#000000" stroke="#000000" points="849.435,-78.9641 839.873,-83.5277 850.194,-85.9229 849.435,-78.9641"/>
</g>
<!-- Pod::Block::Comment -->
<g id="node12" class="node"><title>Pod::Block::Comment</title>
<g id="a_node12"><a xlink:href="/type/Pod::Block::Comment" xlink:title="Pod::Block::Comment">
<ellipse fill="none" stroke="#000000" cx="1494.69" cy="-18" rx="96.3833" ry="18"/>
<text text-anchor="middle" x="1494.69" y="-14.3" font-family="FreeSans" font-size="14.00" fill="#000000">Pod::Block::Comment</text>
</a>
</g>
</g>
<!-- Pod::Block::Comment&#45;&gt;Pod::Block -->
<g id="edge11" class="edge"><title>Pod::Block::Comment&#45;&gt;Pod::Block</title>
<path fill="none" stroke="#000000" d="M1424.66,-30.3392C1405.4,-33.4576 1389.69,-36 1389.69,-36 1389.69,-36 1003.42,-70.1208 850.737,-83.6078"/>
<polygon fill="#000000" stroke="#000000" points="850.243,-80.1377 840.59,-84.5041 850.859,-87.1105 850.243,-80.1377"/>
</g>
</g>
</svg>
