<?xml version="1.0" encoding="UTF-8" standalone="no"?>
<!DOCTYPE svg PUBLIC "-//W3C//DTD SVG 1.1//EN"
 "http://www.w3.org/Graphics/SVG/1.1/DTD/svg11.dtd">
<!-- Generated by graphviz version 2.38.0 (20140413.2041)
 -->
<!-- Title: perl6&#45;type&#45;graph Pages: 1 -->
<svg width="1146pt" height="332pt"
 viewBox="0.00 0.00 1145.59 332.00" xmlns="http://www.w3.org/2000/svg" xmlns:xlink="http://www.w3.org/1999/xlink">
<g id="graph0" class="graph" transform="scale(1 1) rotate(0) translate(4 328)">
<title>perl6&#45;type&#45;graph</title>
<polygon fill="white" stroke="none" points="-4,4 -4,-328 1141.59,-328 1141.59,4 -4,4"/>
<!-- Numeric -->
<g id="node1" class="node"><title>Numeric</title>
<g id="a_node1"><a xlink:href="/type/Numeric" xlink:title="Numeric">
<ellipse fill="none" stroke="#6666ff" cx="829.047" cy="-234" rx="44.393" ry="18"/>
<text text-anchor="middle" x="829.047" y="-230.3" font-family="FreeSans" font-size="14.00" fill="#6666ff">Numeric</text>
</a>
</g>
</g>
<!-- Mu -->
<g id="node2" class="node"><title>Mu</title>
<g id="a_node2"><a xlink:href="/type/Mu" xlink:title="Mu">
<ellipse fill="none" stroke="#000000" cx="590.047" cy="-306" rx="27" ry="18"/>
<text text-anchor="middle" x="590.047" y="-302.3" font-family="FreeSans" font-size="14.00" fill="#000000">Mu</text>
</a>
</g>
</g>
<!-- Any -->
<g id="node3" class="node"><title>Any</title>
<g id="a_node3"><a xlink:href="/type/Any" xlink:title="Any">
<ellipse fill="none" stroke="#000000" cx="590.047" cy="-234" rx="27" ry="18"/>
<text text-anchor="middle" x="590.047" y="-230.3" font-family="FreeSans" font-size="14.00" fill="#000000">Any</text>
</a>
</g>
</g>
<!-- Any&#45;&gt;Mu -->
<g id="edge1" class="edge"><title>Any&#45;&gt;Mu</title>
<path fill="none" stroke="#000000" d="M590.047,-252.303C590.047,-260.017 590.047,-269.288 590.047,-277.888"/>
<polygon fill="#000000" stroke="#000000" points="586.547,-277.896 590.047,-287.896 593.547,-277.896 586.547,-277.896"/>
</g>
<!-- Cool -->
<g id="node4" class="node"><title>Cool</title>
<g id="a_node4"><a xlink:href="/type/Cool" xlink:title="Cool">
<ellipse fill="none" stroke="#000000" cx="590.047" cy="-162" rx="28.6953" ry="18"/>
<text text-anchor="middle" x="590.047" y="-158.3" font-family="FreeSans" font-size="14.00" fill="#000000">Cool</text>
</a>
</g>
</g>
<!-- Cool&#45;&gt;Any -->
<g id="edge2" class="edge"><title>Cool&#45;&gt;Any</title>
<path fill="none" stroke="#000000" d="M590.047,-180.303C590.047,-188.017 590.047,-197.288 590.047,-205.888"/>
<polygon fill="#000000" stroke="#000000" points="586.547,-205.896 590.047,-215.896 593.547,-205.896 586.547,-205.896"/>
</g>
<!-- Complex -->
<g id="node5" class="node"><title>Complex</title>
<g id="a_node5"><a xlink:href="/type/Complex" xlink:title="Complex">
<ellipse fill="none" stroke="#000000" cx="965.047" cy="-90" rx="45.4919" ry="18"/>
<text text-anchor="middle" x="965.047" y="-86.3" font-family="FreeSans" font-size="14.00" fill="#000000">Complex</text>
</a>
</g>
</g>
<!-- Complex&#45;&gt;Numeric -->
<g id="edge24" class="edge"><title>Complex&#45;&gt;Numeric</title>
<path fill="none" stroke="#6666ff" d="M956.959,-107.74C944.503,-133.521 922.047,-180 922.047,-180 922.047,-180 889.331,-198.644 862.708,-213.817"/>
<polygon fill="#6666ff" stroke="#6666ff" points="860.924,-210.805 853.969,-218.797 864.39,-216.886 860.924,-210.805"/>
</g>
<!-- Complex&#45;&gt;Cool -->
<g id="edge3" class="edge"><title>Complex&#45;&gt;Cool</title>
<path fill="none" stroke="#000000" d="M930.542,-101.863C919.959,-105.194 911.047,-108 911.047,-108 911.047,-108 711.993,-140.866 627.382,-154.836"/>
<polygon fill="#000000" stroke="#000000" points="626.711,-151.399 617.415,-156.481 627.852,-158.305 626.711,-151.399"/>
</g>
<!-- Real -->
<g id="node6" class="node"><title>Real</title>
<g id="a_node6"><a xlink:href="/type/Real" xlink:title="Real">
<ellipse fill="none" stroke="#6666ff" cx="487.047" cy="-162" rx="28.6953" ry="18"/>
<text text-anchor="middle" x="487.047" y="-158.3" font-family="FreeSans" font-size="14.00" fill="#6666ff">Real</text>
</a>
</g>
</g>
<!-- Real&#45;&gt;Numeric -->
<g id="edge25" class="edge"><title>Real&#45;&gt;Numeric</title>
<path fill="none" stroke="#6666ff" d="M513.11,-169.817C531.194,-174.546 552.047,-180 552.047,-180 552.047,-180 700.007,-208.31 779.652,-223.549"/>
<polygon fill="#6666ff" stroke="#6666ff" points="779.467,-227.077 789.947,-225.519 780.783,-220.202 779.467,-227.077"/>
</g>
<!-- Stringy -->
<g id="node7" class="node"><title>Stringy</title>
<g id="a_node7"><a xlink:href="/type/Stringy" xlink:title="Stringy">
<ellipse fill="none" stroke="#6666ff" cx="875.047" cy="-162" rx="38.1938" ry="18"/>
<text text-anchor="middle" x="875.047" y="-158.3" font-family="FreeSans" font-size="14.00" fill="#6666ff">Stringy</text>
</a>
</g>
</g>
<!-- Str -->
<g id="node8" class="node"><title>Str</title>
<g id="a_node8"><a xlink:href="/type/Str" xlink:title="Str">
<ellipse fill="none" stroke="#000000" cx="875.047" cy="-90" rx="27" ry="18"/>
<text text-anchor="middle" x="875.047" y="-86.3" font-family="FreeSans" font-size="14.00" fill="#000000">Str</text>
</a>
</g>
</g>
<!-- Str&#45;&gt;Cool -->
<g id="edge4" class="edge"><title>Str&#45;&gt;Cool</title>
<path fill="none" stroke="#000000" d="M849.755,-97.212C799.12,-109.649 685.136,-137.645 626.464,-152.055"/>
<polygon fill="#000000" stroke="#000000" points="625.396,-148.714 616.519,-154.498 627.065,-155.512 625.396,-148.714"/>
</g>
<!-- Str&#45;&gt;Stringy -->
<g id="edge26" class="edge"><title>Str&#45;&gt;Stringy</title>
<path fill="none" stroke="#6666ff" d="M875.047,-108.303C875.047,-116.017 875.047,-125.288 875.047,-133.888"/>
<polygon fill="#6666ff" stroke="#6666ff" points="871.547,-133.896 875.047,-143.896 878.547,-133.896 871.547,-133.896"/>
</g>
<!-- ComplexStr -->
<g id="node9" class="node"><title>ComplexStr</title>
<g id="a_node9"><a xlink:href="/type/ComplexStr" xlink:title="ComplexStr">
<ellipse fill="none" stroke="#000000" cx="1081.05" cy="-18" rx="56.59" ry="18"/>
<text text-anchor="middle" x="1081.05" y="-14.3" font-family="FreeSans" font-size="14.00" fill="#000000">ComplexStr</text>
</a>
</g>
</g>
<!-- ComplexStr&#45;&gt;Complex -->
<g id="edge5" class="edge"><title>ComplexStr&#45;&gt;Complex</title>
<path fill="none" stroke="#000000" d="M1055.88,-34.189C1038.81,-44.4865 1016.09,-58.1955 997.648,-69.327"/>
<polygon fill="#000000" stroke="#000000" points="995.732,-66.3949 988.979,-74.5583 999.349,-72.3883 995.732,-66.3949"/>
</g>
<!-- ComplexStr&#45;&gt;Str -->
<g id="edge6" class="edge"><title>ComplexStr&#45;&gt;Str</title>
<path fill="none" stroke="#000000" d="M1042.05,-31.1593C991.855,-46.8067 911.047,-72 911.047,-72 911.047,-72 908.866,-73.0296 905.579,-74.5819"/>
<polygon fill="#000000" stroke="#000000" points="903.952,-71.4796 896.404,-78.9146 906.941,-77.8093 903.952,-71.4796"/>
</g>
<!-- Rational -->
<g id="node10" class="node"><title>Rational</title>
<g id="a_node10"><a xlink:href="/type/Rational" xlink:title="Rational">
<ellipse fill="none" stroke="#6666ff" cx="119.047" cy="-90" rx="42.7926" ry="18"/>
<text text-anchor="middle" x="119.047" y="-86.3" font-family="FreeSans" font-size="14.00" fill="#6666ff">Rational</text>
</a>
</g>
</g>
<!-- Rational&#45;&gt;Real -->
<g id="edge27" class="edge"><title>Rational&#45;&gt;Real</title>
<path fill="none" stroke="#6666ff" d="M157.388,-98.2931C228.479,-111.816 379.87,-140.613 449.985,-153.95"/>
<polygon fill="#6666ff" stroke="#6666ff" points="449.641,-157.447 460.118,-155.878 450.949,-150.571 449.641,-157.447"/>
</g>
<!-- Instant -->
<g id="node11" class="node"><title>Instant</title>
<g id="a_node11"><a xlink:href="/type/Instant" xlink:title="Instant">
<ellipse fill="none" stroke="#000000" cx="460.047" cy="-90" rx="37.0935" ry="18"/>
<text text-anchor="middle" x="460.047" y="-86.3" font-family="FreeSans" font-size="14.00" fill="#000000">Instant</text>
</a>
</g>
</g>
<!-- Instant&#45;&gt;Cool -->
<g id="edge7" class="edge"><title>Instant&#45;&gt;Cool</title>
<path fill="none" stroke="#000000" d="M483.891,-103.839C505.28,-115.356 536.769,-132.312 559.898,-144.766"/>
<polygon fill="#000000" stroke="#000000" points="558.47,-147.972 568.934,-149.632 561.789,-141.809 558.47,-147.972"/>
</g>
<!-- Instant&#45;&gt;Real -->
<g id="edge28" class="edge"><title>Instant&#45;&gt;Real</title>
<path fill="none" stroke="#6666ff" d="M466.583,-107.945C469.667,-115.941 473.419,-125.669 476.864,-134.6"/>
<polygon fill="#6666ff" stroke="#6666ff" points="473.707,-136.141 480.571,-144.211 480.238,-133.621 473.707,-136.141"/>
</g>
<!-- Duration -->
<g id="node12" class="node"><title>Duration</title>
<g id="a_node12"><a xlink:href="/type/Duration" xlink:title="Duration">
<ellipse fill="none" stroke="#000000" cx="361.047" cy="-90" rx="44.393" ry="18"/>
<text text-anchor="middle" x="361.047" y="-86.3" font-family="FreeSans" font-size="14.00" fill="#000000">Duration</text>
</a>
</g>
</g>
<!-- Duration&#45;&gt;Cool -->
<g id="edge8" class="edge"><title>Duration&#45;&gt;Cool</title>
<path fill="none" stroke="#000000" d="M394.612,-101.766C405.131,-105.14 414.047,-108 414.047,-108 414.047,-108 503.799,-135.028 555.117,-150.481"/>
<polygon fill="#000000" stroke="#000000" points="554.246,-153.874 564.83,-153.406 556.264,-147.172 554.246,-153.874"/>
</g>
<!-- Duration&#45;&gt;Real -->
<g id="edge29" class="edge"><title>Duration&#45;&gt;Real</title>
<path fill="none" stroke="#6666ff" d="M386.242,-104.997C406.727,-116.378 435.676,-132.461 457.299,-144.473"/>
<polygon fill="#6666ff" stroke="#6666ff" points="455.63,-147.55 466.071,-149.347 459.029,-141.431 455.63,-147.55"/>
</g>
<!-- Num -->
<g id="node13" class="node"><title>Num</title>
<g id="a_node13"><a xlink:href="/type/Num" xlink:title="Num">
<ellipse fill="none" stroke="#000000" cx="693.047" cy="-90" rx="29.795" ry="18"/>
<text text-anchor="middle" x="693.047" y="-86.3" font-family="FreeSans" font-size="14.00" fill="#000000">Num</text>
</a>
</g>
</g>
<!-- Num&#45;&gt;Cool -->
<g id="edge9" class="edge"><title>Num&#45;&gt;Cool</title>
<path fill="none" stroke="#000000" d="M673.673,-104.166C657.893,-114.891 635.411,-130.17 617.732,-142.185"/>
<polygon fill="#000000" stroke="#000000" points="615.289,-139.613 608.985,-148.129 619.223,-145.403 615.289,-139.613"/>
</g>
<!-- Num&#45;&gt;Real -->
<g id="edge30" class="edge"><title>Num&#45;&gt;Real</title>
<path fill="none" stroke="#6666ff" d="M669.461,-101.281C661.247,-104.861 654.047,-108 654.047,-108 654.047,-108 570.538,-134.503 521.626,-150.026"/>
<polygon fill="#6666ff" stroke="#6666ff" points="520.521,-146.704 512.048,-153.065 522.639,-153.376 520.521,-146.704"/>
</g>
<!-- Int -->
<g id="node14" class="node"><title>Int</title>
<g id="a_node14"><a xlink:href="/type/Int" xlink:title="Int">
<ellipse fill="none" stroke="#000000" cx="618.047" cy="-90" rx="27" ry="18"/>
<text text-anchor="middle" x="618.047" y="-86.3" font-family="FreeSans" font-size="14.00" fill="#000000">Int</text>
</a>
</g>
</g>
<!-- Int&#45;&gt;Cool -->
<g id="edge10" class="edge"><title>Int&#45;&gt;Cool</title>
<path fill="none" stroke="#000000" d="M611.411,-107.589C608.181,-115.665 604.219,-125.569 600.589,-134.645"/>
<polygon fill="#000000" stroke="#000000" points="597.293,-133.459 596.829,-144.044 603.793,-136.059 597.293,-133.459"/>
</g>
<!-- Int&#45;&gt;Real -->
<g id="edge31" class="edge"><title>Int&#45;&gt;Real</title>
<path fill="none" stroke="#6666ff" d="M597.578,-101.938C576.011,-113.462 541.818,-131.733 517.172,-144.902"/>
<polygon fill="#6666ff" stroke="#6666ff" points="515.41,-141.876 508.24,-149.675 518.709,-148.05 515.41,-141.876"/>
</g>
<!-- NumStr -->
<g id="node15" class="node"><title>NumStr</title>
<g id="a_node15"><a xlink:href="/type/NumStr" xlink:title="NumStr">
<ellipse fill="none" stroke="#000000" cx="966.047" cy="-18" rx="40.8928" ry="18"/>
<text text-anchor="middle" x="966.047" y="-14.3" font-family="FreeSans" font-size="14.00" fill="#000000">NumStr</text>
</a>
</g>
</g>
<!-- NumStr&#45;&gt;Str -->
<g id="edge12" class="edge"><title>NumStr&#45;&gt;Str</title>
<path fill="none" stroke="#000000" d="M946.301,-34.189C932.755,-44.609 914.668,-58.5222 900.106,-69.7232"/>
<polygon fill="#000000" stroke="#000000" points="897.794,-67.0866 892.001,-75.9579 902.062,-72.635 897.794,-67.0866"/>
</g>
<!-- NumStr&#45;&gt;Num -->
<g id="edge11" class="edge"><title>NumStr&#45;&gt;Num</title>
<path fill="none" stroke="#000000" d="M934.665,-29.6698C924.619,-33.0854 916.047,-36 916.047,-36 916.047,-36 793.915,-65.0268 730.419,-80.1178"/>
<polygon fill="#000000" stroke="#000000" points="729.311,-76.7837 720.391,-82.5012 730.929,-83.594 729.311,-76.7837"/>
</g>
<!-- Signal -->
<g id="node16" class="node"><title>Signal</title>
<g id="a_node16"><a xlink:href="/type/Signal" xlink:title="Signal">
<ellipse fill="none" stroke="#33bb33" cx="199.047" cy="-18" rx="35.194" ry="18"/>
<text text-anchor="middle" x="199.047" y="-14.3" font-family="FreeSans" font-size="14.00" fill="#33bb33">Signal</text>
</a>
</g>
</g>
<!-- Signal&#45;&gt;Int -->
<g id="edge13" class="edge"><title>Signal&#45;&gt;Int</title>
<path fill="none" stroke="#000000" d="M226.161,-29.476C235.216,-32.9744 243.047,-36 243.047,-36 243.047,-36 577.047,-72 577.047,-72 577.047,-72 580.926,-73.6087 586.299,-75.8363"/>
<polygon fill="#000000" stroke="#000000" points="585.049,-79.1071 595.627,-79.7042 587.73,-72.6409 585.049,-79.1071"/>
</g>
<!-- PromiseStatus -->
<g id="node17" class="node"><title>PromiseStatus</title>
<g id="a_node17"><a xlink:href="/type/PromiseStatus" xlink:title="PromiseStatus">
<ellipse fill="none" stroke="#33bb33" cx="320.047" cy="-18" rx="67.6881" ry="18"/>
<text text-anchor="middle" x="320.047" y="-14.3" font-family="FreeSans" font-size="14.00" fill="#33bb33">PromiseStatus</text>
</a>
</g>
</g>
<!-- PromiseStatus&#45;&gt;Int -->
<g id="edge14" class="edge"><title>PromiseStatus&#45;&gt;Int</title>
<path fill="none" stroke="#000000" d="M370.548,-30.1496C385.061,-33.3539 397.047,-36 397.047,-36 397.047,-36 577.047,-72 577.047,-72 577.047,-72 580.926,-73.6087 586.299,-75.8363"/>
<polygon fill="#000000" stroke="#000000" points="585.049,-79.1071 595.627,-79.7042 587.73,-72.6409 585.049,-79.1071"/>
</g>
<!-- Endian -->
<g id="node18" class="node"><title>Endian</title>
<g id="a_node18"><a xlink:href="/type/Endian" xlink:title="Endian">
<ellipse fill="none" stroke="#33bb33" cx="444.047" cy="-18" rx="38.1938" ry="18"/>
<text text-anchor="middle" x="444.047" y="-14.3" font-family="FreeSans" font-size="14.00" fill="#33bb33">Endian</text>
</a>
</g>
</g>
<!-- Endian&#45;&gt;Int -->
<g id="edge15" class="edge"><title>Endian&#45;&gt;Int</title>
<path fill="none" stroke="#000000" d="M472.253,-30.2399C511.294,-45.7976 577.047,-72 577.047,-72 577.047,-72 580.926,-73.6087 586.299,-75.8363"/>
<polygon fill="#000000" stroke="#000000" points="585.049,-79.1071 595.627,-79.7042 587.73,-72.6409 585.049,-79.1071"/>
</g>
<!-- int -->
<g id="node19" class="node"><title>int</title>
<g id="a_node19"><a xlink:href="/type/int" xlink:title="int">
<ellipse fill="none" stroke="#000000" cx="527.047" cy="-18" rx="27" ry="18"/>
<text text-anchor="middle" x="527.047" y="-14.3" font-family="FreeSans" font-size="14.00" fill="#000000">int</text>
</a>
</g>
</g>
<!-- int&#45;&gt;Int -->
<g id="edge16" class="edge"><title>int&#45;&gt;Int</title>
<path fill="none" stroke="#000000" d="M544.163,-32.1665C557.89,-42.7259 577.357,-57.6999 592.862,-69.6272"/>
<polygon fill="#000000" stroke="#000000" points="590.947,-72.5696 601.007,-75.8926 595.215,-67.0212 590.947,-72.5696"/>
</g>
<!-- atomicint -->
<g id="node20" class="node"><title>atomicint</title>
<g id="a_node20"><a xlink:href="/type/atomicint" xlink:title="atomicint">
<ellipse fill="none" stroke="#000000" cx="618.047" cy="-18" rx="46.2923" ry="18"/>
<text text-anchor="middle" x="618.047" y="-14.3" font-family="FreeSans" font-size="14.00" fill="#000000">atomicint</text>
</a>
</g>
</g>
<!-- atomicint&#45;&gt;Int -->
<g id="edge17" class="edge"><title>atomicint&#45;&gt;Int</title>
<path fill="none" stroke="#000000" d="M618.047,-36.3034C618.047,-44.0173 618.047,-53.2875 618.047,-61.8876"/>
<polygon fill="#000000" stroke="#000000" points="614.547,-61.8956 618.047,-71.8957 621.547,-61.8957 614.547,-61.8956"/>
</g>
<!-- Bool -->
<g id="node21" class="node"><title>Bool</title>
<g id="a_node21"><a xlink:href="/type/Bool" xlink:title="Bool">
<ellipse fill="none" stroke="#33bb33" cx="711.047" cy="-18" rx="28.6953" ry="18"/>
<text text-anchor="middle" x="711.047" y="-14.3" font-family="FreeSans" font-size="14.00" fill="#33bb33">Bool</text>
</a>
</g>
</g>
<!-- Bool&#45;&gt;Int -->
<g id="edge18" class="edge"><title>Bool&#45;&gt;Int</title>
<path fill="none" stroke="#000000" d="M693.115,-32.4967C679.042,-43.0894 659.269,-57.9725 643.549,-69.8049"/>
<polygon fill="#000000" stroke="#000000" points="641.179,-67.2079 635.294,-76.018 645.389,-72.8007 641.179,-67.2079"/>
</g>
<!-- IntStr -->
<g id="node22" class="node"><title>IntStr</title>
<g id="a_node22"><a xlink:href="/type/IntStr" xlink:title="IntStr">
<ellipse fill="none" stroke="#000000" cx="875.047" cy="-18" rx="31.6951" ry="18"/>
<text text-anchor="middle" x="875.047" y="-14.3" font-family="FreeSans" font-size="14.00" fill="#000000">IntStr</text>
</a>
</g>
</g>
<!-- IntStr&#45;&gt;Str -->
<g id="edge20" class="edge"><title>IntStr&#45;&gt;Str</title>
<path fill="none" stroke="#000000" d="M875.047,-36.3034C875.047,-44.0173 875.047,-53.2875 875.047,-61.8876"/>
<polygon fill="#000000" stroke="#000000" points="871.547,-61.8956 875.047,-71.8957 878.547,-61.8957 871.547,-61.8956"/>
</g>
<!-- IntStr&#45;&gt;Int -->
<g id="edge19" class="edge"><title>IntStr&#45;&gt;Int</title>
<path fill="none" stroke="#000000" d="M849.781,-29.476C841.344,-32.9744 834.047,-36 834.047,-36 834.047,-36 654.047,-72 654.047,-72 654.047,-72 651.866,-73.0296 648.579,-74.5819"/>
<polygon fill="#000000" stroke="#000000" points="646.952,-71.4796 639.404,-78.9146 649.941,-77.8093 646.952,-71.4796"/>
</g>
<!-- Order -->
<g id="node23" class="node"><title>Order</title>
<g id="a_node23"><a xlink:href="/type/Order" xlink:title="Order">
<ellipse fill="none" stroke="#33bb33" cx="791.047" cy="-18" rx="33.5952" ry="18"/>
<text text-anchor="middle" x="791.047" y="-14.3" font-family="FreeSans" font-size="14.00" fill="#33bb33">Order</text>
</a>
</g>
</g>
<!-- Order&#45;&gt;Int -->
<g id="edge21" class="edge"><title>Order&#45;&gt;Int</title>
<path fill="none" stroke="#000000" d="M764.686,-29.6698C756.248,-33.0854 749.047,-36 749.047,-36 749.047,-36 654.047,-72 654.047,-72 654.047,-72 651.866,-73.0296 648.579,-74.5819"/>
<polygon fill="#000000" stroke="#000000" points="646.952,-71.4796 639.404,-78.9146 649.941,-77.8093 646.952,-71.4796"/>
</g>
<!-- FatRat -->
<g id="node24" class="node"><title>FatRat</title>
<g id="a_node24"><a xlink:href="/type/FatRat" xlink:title="FatRat">
<ellipse fill="none" stroke="#000000" cx="37.0467" cy="-18" rx="37.0935" ry="18"/>
<text text-anchor="middle" x="37.0467" y="-14.3" font-family="FreeSans" font-size="14.00" fill="#000000">FatRat</text>
</a>
</g>
</g>
<!-- FatRat&#45;&gt;Cool -->
<g id="edge22" class="edge"><title>FatRat&#45;&gt;Cool</title>
<path fill="none" stroke="#000000" d="M65.6561,-29.573C75.0106,-33.0301 83.0467,-36 83.0467,-36 83.0467,-36 506.047,-72 506.047,-72 506.047,-72 539.047,-108 539.047,-108 539.047,-108 554.785,-124.355 568.776,-138.895"/>
<polygon fill="#000000" stroke="#000000" points="566.385,-141.458 575.84,-146.237 571.429,-136.604 566.385,-141.458"/>
</g>
<!-- FatRat&#45;&gt;Rational -->
<g id="edge32" class="edge"><title>FatRat&#45;&gt;Rational</title>
<path fill="none" stroke="#6666ff" d="M54.8395,-34.189C66.0449,-43.7546 80.6987,-56.2639 93.1774,-66.9164"/>
<polygon fill="#6666ff" stroke="#6666ff" points="91.1274,-69.7683 101.005,-73.599 95.6723,-64.4443 91.1274,-69.7683"/>
</g>
<!-- Rat -->
<g id="node25" class="node"><title>Rat</title>
<g id="a_node25"><a xlink:href="/type/Rat" xlink:title="Rat">
<ellipse fill="none" stroke="#000000" cx="119.047" cy="-18" rx="27" ry="18"/>
<text text-anchor="middle" x="119.047" y="-14.3" font-family="FreeSans" font-size="14.00" fill="#000000">Rat</text>
</a>
</g>
</g>
<!-- Rat&#45;&gt;Cool -->
<g id="edge23" class="edge"><title>Rat&#45;&gt;Cool</title>
<path fill="none" stroke="#000000" d="M140.404,-29.0854C148.156,-32.7461 155.047,-36 155.047,-36 155.047,-36 539.047,-72 539.047,-72 539.047,-72 560.59,-109.595 575.673,-135.916"/>
<polygon fill="#000000" stroke="#000000" points="572.684,-137.74 580.693,-144.676 578.757,-134.259 572.684,-137.74"/>
</g>
<!-- Rat&#45;&gt;Rational -->
<g id="edge33" class="edge"><title>Rat&#45;&gt;Rational</title>
<path fill="none" stroke="#6666ff" d="M119.047,-36.3034C119.047,-44.0173 119.047,-53.2875 119.047,-61.8876"/>
<polygon fill="#6666ff" stroke="#6666ff" points="115.547,-61.8956 119.047,-71.8957 122.547,-61.8957 115.547,-61.8956"/>
</g>
</g>
</svg>
