<?xml version="1.0" encoding="UTF-8" standalone="no"?>
<!DOCTYPE svg PUBLIC "-//W3C//DTD SVG 1.1//EN"
 "http://www.w3.org/Graphics/SVG/1.1/DTD/svg11.dtd">
<!-- Generated by graphviz version 2.38.0 (20140413.2041)
 -->
<!-- Title: perl6&#45;type&#45;graph Pages: 1 -->
<svg width="1419pt" height="332pt"
 viewBox="0.00 0.00 1419.13 332.00" xmlns="http://www.w3.org/2000/svg" xmlns:xlink="http://www.w3.org/1999/xlink">
<g id="graph0" class="graph" transform="scale(1 1) rotate(0) translate(4 328)">
<title>perl6&#45;type&#45;graph</title>
<polygon fill="white" stroke="none" points="-4,4 -4,-328 1415.13,-328 1415.13,4 -4,4"/>
<!-- X::Proc::Async -->
<g id="node1" class="node"><title>X::Proc::Async</title>
<g id="a_node1"><a xlink:href="/type/X::Proc::Async" xlink:title="X::Proc::Async">
<ellipse fill="none" stroke="#6666ff" cx="652.838" cy="-90" rx="68.4888" ry="18"/>
<text text-anchor="middle" x="652.838" y="-86.3" font-family="FreeSans" font-size="14.00" fill="#6666ff">X::Proc::Async</text>
</a>
</g>
</g>
<!-- Exception -->
<g id="node4" class="node"><title>Exception</title>
<g id="a_node4"><a xlink:href="/type/Exception" xlink:title="Exception">
<ellipse fill="none" stroke="#000000" cx="700.838" cy="-162" rx="49.2915" ry="18"/>
<text text-anchor="middle" x="700.838" y="-158.3" font-family="FreeSans" font-size="14.00" fill="#000000">Exception</text>
</a>
</g>
</g>
<!-- X::Proc::Async&#45;&gt;Exception -->
<g id="edge1" class="edge"><title>X::Proc::Async&#45;&gt;Exception</title>
<path fill="none" stroke="#000000" d="M664.457,-107.945C670.176,-116.285 677.187,-126.509 683.522,-135.748"/>
<polygon fill="#000000" stroke="#000000" points="680.784,-137.943 689.325,-144.211 686.557,-133.984 680.784,-137.943"/>
</g>
<!-- Mu -->
<g id="node2" class="node"><title>Mu</title>
<g id="a_node2"><a xlink:href="/type/Mu" xlink:title="Mu">
<ellipse fill="none" stroke="#000000" cx="700.838" cy="-306" rx="27" ry="18"/>
<text text-anchor="middle" x="700.838" y="-302.3" font-family="FreeSans" font-size="14.00" fill="#000000">Mu</text>
</a>
</g>
</g>
<!-- Any -->
<g id="node3" class="node"><title>Any</title>
<g id="a_node3"><a xlink:href="/type/Any" xlink:title="Any">
<ellipse fill="none" stroke="#000000" cx="700.838" cy="-234" rx="27" ry="18"/>
<text text-anchor="middle" x="700.838" y="-230.3" font-family="FreeSans" font-size="14.00" fill="#000000">Any</text>
</a>
</g>
</g>
<!-- Any&#45;&gt;Mu -->
<g id="edge2" class="edge"><title>Any&#45;&gt;Mu</title>
<path fill="none" stroke="#000000" d="M700.838,-252.303C700.838,-260.017 700.838,-269.288 700.838,-277.888"/>
<polygon fill="#000000" stroke="#000000" points="697.338,-277.896 700.838,-287.896 704.338,-277.896 697.338,-277.896"/>
</g>
<!-- Exception&#45;&gt;Any -->
<g id="edge3" class="edge"><title>Exception&#45;&gt;Any</title>
<path fill="none" stroke="#000000" d="M700.838,-180.303C700.838,-188.017 700.838,-197.288 700.838,-205.888"/>
<polygon fill="#000000" stroke="#000000" points="697.338,-205.896 700.838,-215.896 704.338,-205.896 697.338,-205.896"/>
</g>
<!-- X::Proc::Async::OpenForWriting -->
<g id="node5" class="node"><title>X::Proc::Async::OpenForWriting</title>
<g id="a_node5"><a xlink:href="/type/X::Proc::Async::OpenForWriting" xlink:title="X::Proc::Async::OpenForWriting">
<ellipse fill="none" stroke="#000000" cx="135.838" cy="-18" rx="135.676" ry="18"/>
<text text-anchor="middle" x="135.838" y="-14.3" font-family="FreeSans" font-size="14.00" fill="#000000">X::Proc::Async::OpenForWriting</text>
</a>
</g>
</g>
<!-- X::Proc::Async::OpenForWriting&#45;&gt;X::Proc::Async -->
<g id="edge9" class="edge"><title>X::Proc::Async::OpenForWriting&#45;&gt;X::Proc::Async</title>
<path fill="none" stroke="#6666ff" d="M227.077,-31.3535C328.922,-45.1429 491.469,-67.1513 583.458,-79.6062"/>
<polygon fill="#6666ff" stroke="#6666ff" points="583.12,-83.0923 593.499,-80.9657 584.059,-76.1555 583.12,-83.0923"/>
</g>
<!-- X::Proc::Async::OpenForWriting&#45;&gt;Exception -->
<g id="edge4" class="edge"><title>X::Proc::Async::OpenForWriting&#45;&gt;Exception</title>
<path fill="none" stroke="#000000" d="M196.303,-34.1965C308.708,-62.447 547.808,-122.539 651.339,-148.559"/>
<polygon fill="#000000" stroke="#000000" points="650.669,-152 661.221,-151.043 652.375,-145.211 650.669,-152"/>
</g>
<!-- X::Proc::Async::MustBeStarted -->
<g id="node6" class="node"><title>X::Proc::Async::MustBeStarted</title>
<g id="a_node6"><a xlink:href="/type/X::Proc::Async::MustBeStarted" xlink:title="X::Proc::Async::MustBeStarted">
<ellipse fill="none" stroke="#000000" cx="421.838" cy="-18" rx="131.877" ry="18"/>
<text text-anchor="middle" x="421.838" y="-14.3" font-family="FreeSans" font-size="14.00" fill="#000000">X::Proc::Async::MustBeStarted</text>
</a>
</g>
</g>
<!-- X::Proc::Async::MustBeStarted&#45;&gt;X::Proc::Async -->
<g id="edge10" class="edge"><title>X::Proc::Async::MustBeStarted&#45;&gt;X::Proc::Async</title>
<path fill="none" stroke="#6666ff" d="M473.391,-34.6222C510.987,-46.0148 561.781,-61.4071 599.733,-72.9077"/>
<polygon fill="#6666ff" stroke="#6666ff" points="598.996,-76.3414 609.581,-75.8919 601.026,-69.6422 598.996,-76.3414"/>
</g>
<!-- X::Proc::Async::MustBeStarted&#45;&gt;Exception -->
<g id="edge5" class="edge"><title>X::Proc::Async::MustBeStarted&#45;&gt;Exception</title>
<path fill="none" stroke="#000000" d="M450.804,-35.7402C495.414,-61.5213 575.838,-108 575.838,-108 575.838,-108 623.942,-128.396 660.467,-143.883"/>
<polygon fill="#000000" stroke="#000000" points="659.366,-147.218 669.939,-147.899 662.099,-140.773 659.366,-147.218"/>
</g>
<!-- X::Proc::Async::CharsOrBytes -->
<g id="node7" class="node"><title>X::Proc::Async::CharsOrBytes</title>
<g id="a_node7"><a xlink:href="/type/X::Proc::Async::CharsOrBytes" xlink:title="X::Proc::Async::CharsOrBytes">
<ellipse fill="none" stroke="#000000" cx="700.838" cy="-18" rx="128.877" ry="18"/>
<text text-anchor="middle" x="700.838" y="-14.3" font-family="FreeSans" font-size="14.00" fill="#000000">X::Proc::Async::CharsOrBytes</text>
</a>
</g>
</g>
<!-- X::Proc::Async::CharsOrBytes&#45;&gt;X::Proc::Async -->
<g id="edge11" class="edge"><title>X::Proc::Async::CharsOrBytes&#45;&gt;X::Proc::Async</title>
<path fill="none" stroke="#6666ff" d="M689.218,-35.945C683.499,-44.2853 676.489,-54.5092 670.153,-63.7483"/>
<polygon fill="#6666ff" stroke="#6666ff" points="667.119,-61.9843 664.35,-72.211 672.892,-65.9431 667.119,-61.9843"/>
</g>
<!-- X::Proc::Async::CharsOrBytes&#45;&gt;Exception -->
<g id="edge6" class="edge"><title>X::Proc::Async::CharsOrBytes&#45;&gt;Exception</title>
<path fill="none" stroke="#000000" d="M710.173,-36.0613C718.651,-51.5549 729.838,-72 729.838,-72 729.838,-72 729.838,-108 729.838,-108 729.838,-108 722.36,-121.667 714.998,-135.121"/>
<polygon fill="#000000" stroke="#000000" points="711.743,-133.778 710.014,-144.23 717.884,-137.138 711.743,-133.778"/>
</g>
<!-- X::Proc::Async::TapBeforeSpawn -->
<g id="node8" class="node"><title>X::Proc::Async::TapBeforeSpawn</title>
<g id="a_node8"><a xlink:href="/type/X::Proc::Async::TapBeforeSpawn" xlink:title="X::Proc::Async::TapBeforeSpawn">
<ellipse fill="none" stroke="#000000" cx="988.838" cy="-18" rx="141.875" ry="18"/>
<text text-anchor="middle" x="988.838" y="-14.3" font-family="FreeSans" font-size="14.00" fill="#000000">X::Proc::Async::TapBeforeSpawn</text>
</a>
</g>
</g>
<!-- X::Proc::Async::TapBeforeSpawn&#45;&gt;X::Proc::Async -->
<g id="edge12" class="edge"><title>X::Proc::Async::TapBeforeSpawn&#45;&gt;X::Proc::Async</title>
<path fill="none" stroke="#6666ff" d="M918.401,-33.6743C858.132,-46.2304 772.227,-64.1274 714.601,-76.1327"/>
<polygon fill="#6666ff" stroke="#6666ff" points="713.614,-72.763 704.538,-78.2291 715.042,-79.6159 713.614,-72.763"/>
</g>
<!-- X::Proc::Async::TapBeforeSpawn&#45;&gt;Exception -->
<g id="edge7" class="edge"><title>X::Proc::Async::TapBeforeSpawn&#45;&gt;Exception</title>
<path fill="none" stroke="#000000" d="M955.237,-35.5671C901.094,-62.2626 794.913,-114.616 738.365,-142.497"/>
<polygon fill="#000000" stroke="#000000" points="736.491,-139.519 729.07,-147.08 739.586,-145.797 736.491,-139.519"/>
</g>
<!-- X::Proc::Async::AlreadyStarted -->
<g id="node9" class="node"><title>X::Proc::Async::AlreadyStarted</title>
<g id="a_node9"><a xlink:href="/type/X::Proc::Async::AlreadyStarted" xlink:title="X::Proc::Async::AlreadyStarted">
<ellipse fill="none" stroke="#000000" cx="1279.84" cy="-18" rx="131.077" ry="18"/>
<text text-anchor="middle" x="1279.84" y="-14.3" font-family="FreeSans" font-size="14.00" fill="#000000">X::Proc::Async::AlreadyStarted</text>
</a>
</g>
</g>
<!-- X::Proc::Async::AlreadyStarted&#45;&gt;X::Proc::Async -->
<g id="edge13" class="edge"><title>X::Proc::Async::AlreadyStarted&#45;&gt;X::Proc::Async</title>
<path fill="none" stroke="#6666ff" d="M1184.91,-30.5275C1159.94,-33.5593 1139.84,-36 1139.84,-36 1139.84,-36 860.316,-66.4203 724.807,-81.1676"/>
<polygon fill="#6666ff" stroke="#6666ff" points="724.079,-77.7261 714.517,-82.2875 724.837,-84.685 724.079,-77.7261"/>
</g>
<!-- X::Proc::Async::AlreadyStarted&#45;&gt;Exception -->
<g id="edge8" class="edge"><title>X::Proc::Async::AlreadyStarted&#45;&gt;Exception</title>
<path fill="none" stroke="#000000" d="M1218.7,-33.995C1103.52,-62.2425 856.477,-122.83 750.637,-148.787"/>
<polygon fill="#000000" stroke="#000000" points="749.723,-145.407 740.844,-151.188 751.39,-152.206 749.723,-145.407"/>
</g>
</g>
</svg>
