<?xml version="1.0" encoding="UTF-8" standalone="no"?>
<!DOCTYPE svg PUBLIC "-//W3C//DTD SVG 1.1//EN"
 "http://www.w3.org/Graphics/SVG/1.1/DTD/svg11.dtd">
<!-- Generated by graphviz version 2.38.0 (20140413.2041)
 -->
<!-- Title: perl6&#45;type&#45;graph Pages: 1 -->
<svg width="202pt" height="188pt"
 viewBox="0.00 0.00 202.24 188.00" xmlns="http://www.w3.org/2000/svg" xmlns:xlink="http://www.w3.org/1999/xlink">
<g id="graph0" class="graph" transform="scale(1 1) rotate(0) translate(4 184)">
<title>perl6&#45;type&#45;graph</title>
<polygon fill="white" stroke="none" points="-4,4 -4,-184 198.237,-184 198.237,4 -4,4"/>
<!-- ThreadPoolScheduler -->
<g id="node1" class="node"><title>ThreadPoolScheduler</title>
<g id="a_node1"><a xlink:href="/type/ThreadPoolScheduler" xlink:title="ThreadPoolScheduler">
<ellipse fill="none" stroke="#000000" cx="96.1915" cy="-18" rx="96.3833" ry="18"/>
<text text-anchor="middle" x="96.1915" y="-14.3" font-family="FreeSans" font-size="14.00" fill="#000000">ThreadPoolScheduler</text>
</a>
</g>
</g>
<!-- Any -->
<g id="node3" class="node"><title>Any</title>
<g id="a_node3"><a xlink:href="/type/Any" xlink:title="Any">
<ellipse fill="none" stroke="#000000" cx="49.1915" cy="-90" rx="27" ry="18"/>
<text text-anchor="middle" x="49.1915" y="-86.3" font-family="FreeSans" font-size="14.00" fill="#000000">Any</text>
</a>
</g>
</g>
<!-- ThreadPoolScheduler&#45;&gt;Any -->
<g id="edge1" class="edge"><title>ThreadPoolScheduler&#45;&gt;Any</title>
<path fill="none" stroke="#000000" d="M84.8141,-35.945C78.99,-44.6192 71.798,-55.3306 65.4046,-64.8527"/>
<polygon fill="#000000" stroke="#000000" points="62.4884,-62.9173 59.8198,-73.1706 68.3,-66.8194 62.4884,-62.9173"/>
</g>
<!-- Scheduler -->
<g id="node4" class="node"><title>Scheduler</title>
<g id="a_node4"><a xlink:href="/type/Scheduler" xlink:title="Scheduler">
<ellipse fill="none" stroke="#6666ff" cx="144.191" cy="-90" rx="50.0912" ry="18"/>
<text text-anchor="middle" x="144.191" y="-86.3" font-family="FreeSans" font-size="14.00" fill="#6666ff">Scheduler</text>
</a>
</g>
</g>
<!-- ThreadPoolScheduler&#45;&gt;Scheduler -->
<g id="edge3" class="edge"><title>ThreadPoolScheduler&#45;&gt;Scheduler</title>
<path fill="none" stroke="#6666ff" d="M107.811,-35.945C113.53,-44.2853 120.541,-54.5092 126.876,-63.7483"/>
<polygon fill="#6666ff" stroke="#6666ff" points="124.137,-65.9431 132.679,-72.211 129.91,-61.9843 124.137,-65.9431"/>
</g>
<!-- Mu -->
<g id="node2" class="node"><title>Mu</title>
<g id="a_node2"><a xlink:href="/type/Mu" xlink:title="Mu">
<ellipse fill="none" stroke="#000000" cx="49.1915" cy="-162" rx="27" ry="18"/>
<text text-anchor="middle" x="49.1915" y="-158.3" font-family="FreeSans" font-size="14.00" fill="#000000">Mu</text>
</a>
</g>
</g>
<!-- Any&#45;&gt;Mu -->
<g id="edge2" class="edge"><title>Any&#45;&gt;Mu</title>
<path fill="none" stroke="#000000" d="M49.1915,-108.303C49.1915,-116.017 49.1915,-125.288 49.1915,-133.888"/>
<polygon fill="#000000" stroke="#000000" points="45.6916,-133.896 49.1915,-143.896 52.6916,-133.896 45.6916,-133.896"/>
</g>
</g>
</svg>
