<?xml version="1.0" encoding="UTF-8" standalone="no"?>
<!DOCTYPE svg PUBLIC "-//W3C//DTD SVG 1.1//EN"
 "http://www.w3.org/Graphics/SVG/1.1/DTD/svg11.dtd">
<!-- Generated by graphviz version 2.38.0 (20140413.2041)
 -->
<!-- Title: perl6&#45;type&#45;graph Pages: 1 -->
<svg width="1976pt" height="1057pt"
 viewBox="0.00 0.00 1975.50 1056.85" xmlns="http://www.w3.org/2000/svg" xmlns:xlink="http://www.w3.org/1999/xlink">
<g id="graph0" class="graph" transform="scale(1 1) rotate(0) translate(991.328 564.723)">
<title>perl6&#45;type&#45;graph</title>
<polygon fill="white" stroke="none" points="-991.328,492.126 -991.328,-564.723 984.173,-564.723 984.173,492.126 -991.328,492.126"/>
<!-- Metamodel::Versioning -->
<g id="node1" class="node"><title>Metamodel::Versioning</title>
<g id="a_node1"><a xlink:href="/type/Metamodel::Versioning" xlink:title="Metamodel::Versioning">
<ellipse fill="none" stroke="#6666ff" cx="180.288" cy="-50.9851" rx="100.983" ry="18"/>
<text text-anchor="middle" x="180.288" y="-47.2851" font-family="FreeSans" font-size="14.00" fill="#6666ff">Metamodel::Versioning</text>
</a>
</g>
</g>
<!-- Mu -->
<g id="node2" class="node"><title>Mu</title>
<g id="a_node2"><a xlink:href="/type/Mu" xlink:title="Mu">
<ellipse fill="none" stroke="#000000" cx="866.238" cy="-29.8812" rx="27" ry="18"/>
<text text-anchor="middle" x="866.238" y="-26.1812" font-family="FreeSans" font-size="14.00" fill="#000000">Mu</text>
</a>
</g>
</g>
<!-- Any -->
<g id="node3" class="node"><title>Any</title>
<g id="a_node3"><a xlink:href="/type/Any" xlink:title="Any">
<ellipse fill="none" stroke="#000000" cx="627.443" cy="-253.18" rx="27" ry="18"/>
<text text-anchor="middle" x="627.443" y="-249.48" font-family="FreeSans" font-size="14.00" fill="#000000">Any</text>
</a>
</g>
</g>
<!-- Any&#45;&gt;Mu -->
<g id="edge1" class="edge"><title>Any&#45;&gt;Mu</title>
<path fill="none" stroke="#000000" d="M643.482,-238.182C684.69,-199.648 794.419,-97.0394 842.784,-51.8127"/>
<polygon fill="#000000" stroke="#000000" points="845.355,-54.2005 850.269,-44.8139 840.574,-49.0876 845.355,-54.2005"/>
</g>
<!-- Metamodel::Naming -->
<g id="node4" class="node"><title>Metamodel::Naming</title>
<g id="a_node4"><a xlink:href="/type/Metamodel::Naming" xlink:title="Metamodel::Naming">
<ellipse fill="none" stroke="#6666ff" cx="15.8078" cy="-296.98" rx="90.1842" ry="18"/>
<text text-anchor="middle" x="15.8078" y="-293.28" font-family="FreeSans" font-size="14.00" fill="#6666ff">Metamodel::Naming</text>
</a>
</g>
</g>
<!-- Metamodel::Documenting -->
<g id="node5" class="node"><title>Metamodel::Documenting</title>
<g id="a_node5"><a xlink:href="/type/Metamodel::Documenting" xlink:title="Metamodel::Documenting">
<ellipse fill="none" stroke="#6666ff" cx="-273.493" cy="-294.906" rx="111.28" ry="18"/>
<text text-anchor="middle" x="-273.493" y="-291.206" font-family="FreeSans" font-size="14.00" fill="#6666ff">Metamodel::Documenting</text>
</a>
</g>
</g>
<!-- Metamodel::MethodContainer -->
<g id="node6" class="node"><title>Metamodel::MethodContainer</title>
<g id="a_node6"><a xlink:href="/type/Metamodel::MethodContainer" xlink:title="Metamodel::MethodContainer">
<ellipse fill="none" stroke="#6666ff" cx="229.644" cy="200.905" rx="127.277" ry="18"/>
<text text-anchor="middle" x="229.644" y="204.605" font-family="FreeSans" font-size="14.00" fill="#6666ff">Metamodel::MethodContainer</text>
</a>
</g>
</g>
<!-- Metamodel::PrivateMethodContainer -->
<g id="node7" class="node"><title>Metamodel::PrivateMethodContainer</title>
<g id="a_node7"><a xlink:href="/type/Metamodel::PrivateMethodContainer" xlink:title="Metamodel::PrivateMethodContainer">
<ellipse fill="none" stroke="#6666ff" cx="-63.2279" cy="205.77" rx="154.873" ry="18"/>
<text text-anchor="middle" x="-63.2279" y="209.47" font-family="FreeSans" font-size="14.00" fill="#6666ff">Metamodel::PrivateMethodContainer</text>
</a>
</g>
</g>
<!-- Metamodel::MultiMethodContainer -->
<g id="node8" class="node"><title>Metamodel::MultiMethodContainer</title>
<g id="a_node8"><a xlink:href="/type/Metamodel::MultiMethodContainer" xlink:title="Metamodel::MultiMethodContainer">
<ellipse fill="none" stroke="#6666ff" cx="567.408" cy="466.853" rx="146.474" ry="18"/>
<text text-anchor="middle" x="567.408" y="470.553" font-family="FreeSans" font-size="14.00" fill="#6666ff">Metamodel::MultiMethodContainer</text>
</a>
</g>
</g>
<!-- Metamodel::AttributeContainer -->
<g id="node9" class="node"><title>Metamodel::AttributeContainer</title>
<g id="a_node9"><a xlink:href="/type/Metamodel::AttributeContainer" xlink:title="Metamodel::AttributeContainer">
<ellipse fill="none" stroke="#6666ff" cx="18.6822" cy="461.686" rx="129.977" ry="18"/>
<text text-anchor="middle" x="18.6822" y="465.386" font-family="FreeSans" font-size="14.00" fill="#6666ff">Metamodel::AttributeContainer</text>
</a>
</g>
</g>
<!-- Metamodel::RoleContainer -->
<g id="node10" class="node"><title>Metamodel::RoleContainer</title>
<g id="a_node10"><a xlink:href="/type/Metamodel::RoleContainer" xlink:title="Metamodel::RoleContainer">
<ellipse fill="none" stroke="#6666ff" cx="285.437" cy="455.481" rx="115.88" ry="18"/>
<text text-anchor="middle" x="285.437" y="459.181" font-family="FreeSans" font-size="14.00" fill="#6666ff">Metamodel::RoleContainer</text>
</a>
</g>
</g>
<!-- Metamodel::MultipleInheritance -->
<g id="node11" class="node"><title>Metamodel::MultipleInheritance</title>
<g id="a_node11"><a xlink:href="/type/Metamodel::MultipleInheritance" xlink:title="Metamodel::MultipleInheritance">
<ellipse fill="none" stroke="#6666ff" cx="-68.9204" cy="-46.405" rx="133.776" ry="18"/>
<text text-anchor="middle" x="-68.9204" y="-42.705" font-family="FreeSans" font-size="14.00" fill="#6666ff">Metamodel::MultipleInheritance</text>
</a>
</g>
</g>
<!-- Metamodel::Stashing -->
<g id="node12" class="node"><title>Metamodel::Stashing</title>
<g id="a_node12"><a xlink:href="/type/Metamodel::Stashing" xlink:title="Metamodel::Stashing">
<ellipse fill="none" stroke="#6666ff" cx="160.666" cy="-542.723" rx="93.6835" ry="18"/>
<text text-anchor="middle" x="160.666" y="-539.023" font-family="FreeSans" font-size="14.00" fill="#6666ff">Metamodel::Stashing</text>
</a>
</g>
</g>
<!-- Metamodel::TypePretense -->
<g id="node13" class="node"><title>Metamodel::TypePretense</title>
<g id="a_node13"><a xlink:href="/type/Metamodel::TypePretense" xlink:title="Metamodel::TypePretense">
<ellipse fill="none" stroke="#6666ff" cx="861.222" cy="-472.126" rx="114.28" ry="18"/>
<text text-anchor="middle" x="861.222" y="-468.426" font-family="FreeSans" font-size="14.00" fill="#6666ff">Metamodel::TypePretense</text>
</a>
</g>
</g>
<!-- Metamodel::RolePunning -->
<g id="node14" class="node"><title>Metamodel::RolePunning</title>
<g id="a_node14"><a xlink:href="/type/Metamodel::RolePunning" xlink:title="Metamodel::RolePunning">
<ellipse fill="none" stroke="#6666ff" cx="870.333" cy="387.742" rx="109.681" ry="18"/>
<text text-anchor="middle" x="870.333" y="391.442" font-family="FreeSans" font-size="14.00" fill="#6666ff">Metamodel::RolePunning</text>
</a>
</g>
</g>
<!-- Metamodel::ParametricRoleHOW -->
<g id="node15" class="node"><title>Metamodel::ParametricRoleHOW</title>
<g id="a_node15"><a xlink:href="/type/Metamodel::ParametricRoleHOW" xlink:title="Metamodel::ParametricRoleHOW">
<ellipse fill="none" stroke="#000000" cx="453.801" cy="-35.8183" rx="142.175" ry="18"/>
<text text-anchor="middle" x="453.801" y="-32.1183" font-family="FreeSans" font-size="14.00" fill="#000000">Metamodel::ParametricRoleHOW</text>
</a>
</g>
</g>
<!-- Metamodel::ParametricRoleHOW&#45;&gt;Metamodel::Versioning -->
<g id="edge9" class="edge"><title>Metamodel::ParametricRoleHOW&#45;&gt;Metamodel::Versioning</title>
<path fill="none" stroke="#6666ff" d="M323.052,-43.0685C310.942,-43.74 298.769,-44.4151 286.914,-45.0724"/>
<polygon fill="#6666ff" stroke="#6666ff" points="286.378,-41.5967 276.587,-45.6451 286.766,-48.586 286.378,-41.5967"/>
</g>
<!-- Metamodel::ParametricRoleHOW&#45;&gt;Any -->
<g id="edge2" class="edge"><title>Metamodel::ParametricRoleHOW&#45;&gt;Any</title>
<path fill="none" stroke="#000000" d="M468.307,-53.9766C499.549,-93.0853 573.2,-185.28 608.254,-229.16"/>
<polygon fill="#000000" stroke="#000000" points="605.553,-231.386 614.529,-237.015 611.022,-227.017 605.553,-231.386"/>
</g>
<!-- Metamodel::ParametricRoleHOW&#45;&gt;Metamodel::Naming -->
<g id="edge7" class="edge"><title>Metamodel::ParametricRoleHOW&#45;&gt;Metamodel::Naming</title>
<path fill="none" stroke="#6666ff" d="M424.04,-53.5637C346.573,-99.7546 138.768,-223.663 53.3057,-274.621"/>
<polygon fill="#6666ff" stroke="#6666ff" points="51.2597,-271.766 44.4632,-279.894 54.8447,-277.779 51.2597,-271.766"/>
</g>
<!-- Metamodel::ParametricRoleHOW&#45;&gt;Metamodel::Documenting -->
<g id="edge8" class="edge"><title>Metamodel::ParametricRoleHOW&#45;&gt;Metamodel::Documenting</title>
<path fill="none" stroke="#6666ff" d="M406.081,-52.8178C276.771,-98.8825 -79.8904,-225.938 -217.926,-275.111"/>
<polygon fill="#6666ff" stroke="#6666ff" points="-219.235,-271.862 -227.48,-278.515 -216.886,-278.456 -219.235,-271.862"/>
</g>
<!-- Metamodel::ParametricRoleHOW&#45;&gt;Metamodel::MethodContainer -->
<g id="edge10" class="edge"><title>Metamodel::ParametricRoleHOW&#45;&gt;Metamodel::MethodContainer</title>
<path fill="none" stroke="#6666ff" d="M436.584,-17.6361C396.962,24.2066 299.243,127.404 253.712,175.487"/>
<polygon fill="#6666ff" stroke="#6666ff" points="256.03,178.13 246.613,182.985 250.947,173.317 256.03,178.13"/>
</g>
<!-- Metamodel::ParametricRoleHOW&#45;&gt;Metamodel::PrivateMethodContainer -->
<g id="edge11" class="edge"><title>Metamodel::ParametricRoleHOW&#45;&gt;Metamodel::PrivateMethodContainer</title>
<path fill="none" stroke="#6666ff" d="M416.201,-18.2493C323.585,25.0266 84.6461,136.674 -16.6893,184.024"/>
<polygon fill="#6666ff" stroke="#6666ff" points="-15.2275,187.204 -25.7689,188.267 -18.1908,180.862 -15.2275,187.204"/>
</g>
<!-- Metamodel::ParametricRoleHOW&#45;&gt;Metamodel::MultiMethodContainer -->
<g id="edge12" class="edge"><title>Metamodel::ParametricRoleHOW&#45;&gt;Metamodel::MultiMethodContainer</title>
<path fill="none" stroke="#6666ff" d="M452.798,-17.503C449.874,35.9492 441.554,187.991 441.554,187.991 441.554,187.991 523.282,369.081 555.018,439.399"/>
<polygon fill="#6666ff" stroke="#6666ff" points="558.227,438.001 559.151,448.556 551.847,440.881 558.227,438.001"/>
</g>
<!-- Metamodel::ParametricRoleHOW&#45;&gt;Metamodel::AttributeContainer -->
<g id="edge13" class="edge"><title>Metamodel::ParametricRoleHOW&#45;&gt;Metamodel::AttributeContainer</title>
<path fill="none" stroke="#6666ff" d="M446.491,-17.6437C424.206,37.7645 358.631,200.805 358.631,200.805 358.631,200.805 133.989,373.198 49.9294,437.707"/>
<polygon fill="#6666ff" stroke="#6666ff" points="51.845,440.649 41.781,443.96 47.5834,435.095 51.845,440.649"/>
</g>
<!-- Metamodel::ParametricRoleHOW&#45;&gt;Metamodel::RoleContainer -->
<g id="edge14" class="edge"><title>Metamodel::ParametricRoleHOW&#45;&gt;Metamodel::RoleContainer</title>
<path fill="none" stroke="#6666ff" d="M447.609,-17.75C422.188,56.4291 325.734,337.891 294.945,427.737"/>
<polygon fill="#6666ff" stroke="#6666ff" points="298.238,428.923 291.685,437.249 291.616,426.654 298.238,428.923"/>
</g>
<!-- Metamodel::ParametricRoleHOW&#45;&gt;Metamodel::MultipleInheritance -->
<g id="edge15" class="edge"><title>Metamodel::ParametricRoleHOW&#45;&gt;Metamodel::MultipleInheritance</title>
<path fill="none" stroke="#6666ff" d="M312.336,-33.5177C245.971,-32.4385 181.249,-31.3859 181.249,-31.3859 181.249,-31.3859 123.584,-34.8479 63.6248,-38.4476"/>
<polygon fill="#6666ff" stroke="#6666ff" points="63.3714,-34.9564 53.5992,-39.0495 63.791,-41.9438 63.3714,-34.9564"/>
</g>
<!-- Metamodel::ParametricRoleHOW&#45;&gt;Metamodel::Stashing -->
<g id="edge16" class="edge"><title>Metamodel::ParametricRoleHOW&#45;&gt;Metamodel::Stashing</title>
<path fill="none" stroke="#6666ff" d="M435.914,-53.8759C377.12,-113.231 193.568,-298.535 193.568,-298.535 193.568,-298.535 173.214,-449.597 164.524,-514.091"/>
<polygon fill="#6666ff" stroke="#6666ff" points="161.006,-513.991 163.139,-524.369 167.943,-514.926 161.006,-513.991"/>
</g>
<!-- Metamodel::ParametricRoleHOW&#45;&gt;Metamodel::TypePretense -->
<g id="edge17" class="edge"><title>Metamodel::ParametricRoleHOW&#45;&gt;Metamodel::TypePretense</title>
<path fill="none" stroke="#6666ff" d="M471.015,-53.8844C518.487,-103.707 647.775,-239.396 647.775,-239.396 647.775,-239.396 782.479,-386.269 837.867,-446.66"/>
<polygon fill="#6666ff" stroke="#6666ff" points="835.489,-449.246 844.828,-454.25 840.648,-444.515 835.489,-449.246"/>
</g>
<!-- Metamodel::ParametricRoleHOW&#45;&gt;Metamodel::RolePunning -->
<g id="edge18" class="edge"><title>Metamodel::ParametricRoleHOW&#45;&gt;Metamodel::RolePunning</title>
<path fill="none" stroke="#6666ff" d="M474.848,-17.9111C537.166,35.1101 716.418,187.62 716.418,187.62 716.418,187.62 808.409,307.228 850.156,361.507"/>
<polygon fill="#6666ff" stroke="#6666ff" points="853.08,359.569 856.403,369.63 847.532,363.837 853.08,359.569"/>
</g>
<!-- Metamodel::Finalization -->
<g id="node16" class="node"><title>Metamodel::Finalization</title>
<g id="a_node16"><a xlink:href="/type/Metamodel::Finalization" xlink:title="Metamodel::Finalization">
<ellipse fill="none" stroke="#6666ff" cx="-254.325" cy="470.126" rx="103.982" ry="18"/>
<text text-anchor="middle" x="-254.325" y="473.826" font-family="FreeSans" font-size="14.00" fill="#6666ff">Metamodel::Finalization</text>
</a>
</g>
</g>
<!-- Metamodel::DefaultParent -->
<g id="node17" class="node"><title>Metamodel::DefaultParent</title>
<g id="a_node17"><a xlink:href="/type/Metamodel::DefaultParent" xlink:title="Metamodel::DefaultParent">
<ellipse fill="none" stroke="#6666ff" cx="-340.25" cy="221.846" rx="113.18" ry="18"/>
<text text-anchor="middle" x="-340.25" y="225.546" font-family="FreeSans" font-size="14.00" fill="#6666ff">Metamodel::DefaultParent</text>
</a>
</g>
</g>
<!-- Metamodel::C3MRO -->
<g id="node18" class="node"><title>Metamodel::C3MRO</title>
<g id="a_node18"><a xlink:href="/type/Metamodel::C3MRO" xlink:title="Metamodel::C3MRO">
<ellipse fill="none" stroke="#6666ff" cx="-859.127" cy="-471.705" rx="92.0841" ry="18"/>
<text text-anchor="middle" x="-859.127" y="-468.005" font-family="FreeSans" font-size="14.00" fill="#6666ff">Metamodel::C3MRO</text>
</a>
</g>
</g>
<!-- Metamodel::MROBasedMethodDispatch -->
<g id="node19" class="node"><title>Metamodel::MROBasedMethodDispatch</title>
<g id="a_node19"><a xlink:href="/type/Metamodel::MROBasedMethodDispatch" xlink:title="Metamodel::MROBasedMethodDispatch">
<ellipse fill="none" stroke="#6666ff" cx="-623.955" cy="122.51" rx="169.77" ry="18"/>
<text text-anchor="middle" x="-623.955" y="126.21" font-family="FreeSans" font-size="14.00" fill="#6666ff">Metamodel::MROBasedMethodDispatch</text>
</a>
</g>
</g>
<!-- Metamodel::MROBasedTypeChecking -->
<g id="node20" class="node"><title>Metamodel::MROBasedTypeChecking</title>
<g id="a_node20"><a xlink:href="/type/Metamodel::MROBasedTypeChecking" xlink:title="Metamodel::MROBasedTypeChecking">
<ellipse fill="none" stroke="#6666ff" cx="-593.644" cy="-222.415" rx="163.271" ry="18"/>
<text text-anchor="middle" x="-593.644" y="-218.715" font-family="FreeSans" font-size="14.00" fill="#6666ff">Metamodel::MROBasedTypeChecking</text>
</a>
</g>
</g>
<!-- Metamodel::Trusting -->
<g id="node21" class="node"><title>Metamodel::Trusting</title>
<g id="a_node21"><a xlink:href="/type/Metamodel::Trusting" xlink:title="Metamodel::Trusting">
<ellipse fill="none" stroke="#6666ff" cx="-564.204" cy="451.178" rx="91.784" ry="18"/>
<text text-anchor="middle" x="-564.204" y="454.878" font-family="FreeSans" font-size="14.00" fill="#6666ff">Metamodel::Trusting</text>
</a>
</g>
</g>
<!-- Metamodel::BUILDPLAN -->
<g id="node22" class="node"><title>Metamodel::BUILDPLAN</title>
<g id="a_node22"><a xlink:href="/type/Metamodel::BUILDPLAN" xlink:title="Metamodel::BUILDPLAN">
<ellipse fill="none" stroke="#6666ff" cx="-877.487" cy="386.178" rx="109.681" ry="18"/>
<text text-anchor="middle" x="-877.487" y="389.878" font-family="FreeSans" font-size="14.00" fill="#6666ff">Metamodel::BUILDPLAN</text>
</a>
</g>
</g>
<!-- Metamodel::Mixins -->
<g id="node23" class="node"><title>Metamodel::Mixins</title>
<g id="a_node23"><a xlink:href="/type/Metamodel::Mixins" xlink:title="Metamodel::Mixins">
<ellipse fill="none" stroke="#6666ff" cx="-887.968" cy="-53.5985" rx="85.2851" ry="18"/>
<text text-anchor="middle" x="-887.968" y="-49.8985" font-family="FreeSans" font-size="14.00" fill="#6666ff">Metamodel::Mixins</text>
</a>
</g>
</g>
<!-- Metamodel::BoolificationProtocol -->
<g id="node24" class="node"><title>Metamodel::BoolificationProtocol</title>
<g id="a_node24"><a xlink:href="/type/Metamodel::BoolificationProtocol" xlink:title="Metamodel::BoolificationProtocol">
<ellipse fill="none" stroke="#6666ff" cx="-503.635" cy="-527.086" rx="139.175" ry="18"/>
<text text-anchor="middle" x="-503.635" y="-523.386" font-family="FreeSans" font-size="14.00" fill="#6666ff">Metamodel::BoolificationProtocol</text>
</a>
</g>
</g>
<!-- Metamodel::ClassHOW -->
<g id="node25" class="node"><title>Metamodel::ClassHOW</title>
<g id="a_node25"><a xlink:href="/type/Metamodel::ClassHOW" xlink:title="Metamodel::ClassHOW">
<ellipse fill="none" stroke="#000000" cx="-335.741" cy="-36.6073" rx="103.982" ry="18"/>
<text text-anchor="middle" x="-335.741" y="-32.9073" font-family="FreeSans" font-size="14.00" fill="#000000">Metamodel::ClassHOW</text>
</a>
</g>
</g>
<!-- Metamodel::ClassHOW&#45;&gt;Metamodel::Versioning -->
<g id="edge21" class="edge"><title>Metamodel::ClassHOW&#45;&gt;Metamodel::Versioning</title>
<path fill="none" stroke="#6666ff" d="M-233.714,-32.8737C-158.02,-30.1037 -67.8908,-26.8056 -67.8908,-26.8056 -67.8908,-26.8056 27.6094,-32.6514 27.6094,-32.6514 27.6094,-32.6514 54.6974,-35.9042 86.0539,-39.6695"/>
<polygon fill="#6666ff" stroke="#6666ff" points="86.0096,-43.1892 96.3556,-40.9065 86.8442,-36.2391 86.0096,-43.1892"/>
</g>
<!-- Metamodel::ClassHOW&#45;&gt;Any -->
<g id="edge3" class="edge"><title>Metamodel::ClassHOW&#45;&gt;Any</title>
<path fill="none" stroke="#000000" d="M-272.172,-50.901C-87.0515,-92.5253 447.625,-212.748 591.455,-245.088"/>
<polygon fill="#000000" stroke="#000000" points="590.983,-248.569 601.507,-247.348 592.518,-241.74 590.983,-248.569"/>
</g>
<!-- Metamodel::ClassHOW&#45;&gt;Metamodel::Naming -->
<g id="edge19" class="edge"><title>Metamodel::ClassHOW&#45;&gt;Metamodel::Naming</title>
<path fill="none" stroke="#6666ff" d="M-311.854,-54.2991C-250.351,-99.8513 -86.4881,-221.215 -16.5544,-273.011"/>
<polygon fill="#6666ff" stroke="#6666ff" points="-18.2312,-276.125 -8.11206,-279.264 -14.0649,-270.5 -18.2312,-276.125"/>
</g>
<!-- Metamodel::ClassHOW&#45;&gt;Metamodel::Documenting -->
<g id="edge20" class="edge"><title>Metamodel::ClassHOW&#45;&gt;Metamodel::Documenting</title>
<path fill="none" stroke="#6666ff" d="M-331.364,-54.7704C-320.649,-99.2321 -293.045,-213.776 -280.223,-266.979"/>
<polygon fill="#6666ff" stroke="#6666ff" points="-283.611,-267.861 -277.865,-276.763 -276.806,-266.221 -283.611,-267.861"/>
</g>
<!-- Metamodel::ClassHOW&#45;&gt;Metamodel::MethodContainer -->
<g id="edge25" class="edge"><title>Metamodel::ClassHOW&#45;&gt;Metamodel::MethodContainer</title>
<path fill="none" stroke="#6666ff" d="M-295.985,-19.9059C-195.481,22.3144 68.6174,133.259 179.497,179.839"/>
<polygon fill="#6666ff" stroke="#6666ff" points="180.93,176.644 188.793,183.744 178.218,183.098 180.93,176.644"/>
</g>
<!-- Metamodel::ClassHOW&#45;&gt;Metamodel::PrivateMethodContainer -->
<g id="edge26" class="edge"><title>Metamodel::ClassHOW&#45;&gt;Metamodel::PrivateMethodContainer</title>
<path fill="none" stroke="#6666ff" d="M-315.703,-18.7847C-267.669,23.9372 -145.881,132.257 -90.9054,181.153"/>
<polygon fill="#6666ff" stroke="#6666ff" points="-88.4419,178.66 -83.2958,187.921 -93.094,183.891 -88.4419,178.66"/>
</g>
<!-- Metamodel::ClassHOW&#45;&gt;Metamodel::MultiMethodContainer -->
<g id="edge27" class="edge"><title>Metamodel::ClassHOW&#45;&gt;Metamodel::MultiMethodContainer</title>
<path fill="none" stroke="#6666ff" d="M-304.653,-19.277C-168.848,56.4274 372.403,358.147 526.362,443.971"/>
<polygon fill="#6666ff" stroke="#6666ff" points="528.485,441.148 535.515,449.074 525.077,447.262 528.485,441.148"/>
</g>
<!-- Metamodel::ClassHOW&#45;&gt;Metamodel::AttributeContainer -->
<g id="edge23" class="edge"><title>Metamodel::ClassHOW&#45;&gt;Metamodel::AttributeContainer</title>
<path fill="none" stroke="#6666ff" d="M-327.005,-18.3866C-299.975,37.9903 -219.514,205.81 -219.514,205.81 -219.514,205.81 -65.0953,371.69 -4.92164,436.331"/>
<polygon fill="#6666ff" stroke="#6666ff" points="-2.31919,433.989 1.9327,443.694 -7.44281,438.759 -2.31919,433.989"/>
</g>
<!-- Metamodel::ClassHOW&#45;&gt;Metamodel::RoleContainer -->
<g id="edge28" class="edge"><title>Metamodel::ClassHOW&#45;&gt;Metamodel::RoleContainer</title>
<path fill="none" stroke="#6666ff" d="M-305.247,-19.3733C-207.284,35.9909 93.0581,205.73 93.0581,205.73 93.0581,205.73 216.186,365.578 265.433,429.511"/>
<polygon fill="#6666ff" stroke="#6666ff" points="268.272,427.462 271.602,437.52 262.726,431.733 268.272,427.462"/>
</g>
<!-- Metamodel::ClassHOW&#45;&gt;Metamodel::MultipleInheritance -->
<g id="edge29" class="edge"><title>Metamodel::ClassHOW&#45;&gt;Metamodel::MultipleInheritance</title>
<path fill="none" stroke="#6666ff" d="M-233.726,-40.3533C-225.372,-40.6601 -216.844,-40.9732 -208.284,-41.2875"/>
<polygon fill="#6666ff" stroke="#6666ff" points="-208.35,-44.7874 -198.228,-41.6568 -208.093,-37.7921 -208.35,-44.7874"/>
</g>
<!-- Metamodel::ClassHOW&#45;&gt;Metamodel::Stashing -->
<g id="edge22" class="edge"><title>Metamodel::ClassHOW&#45;&gt;Metamodel::Stashing</title>
<path fill="none" stroke="#6666ff" d="M-318.074,-54.6202C-243.057,-131.104 49.2081,-429.085 136.143,-517.72"/>
<polygon fill="#6666ff" stroke="#6666ff" points="133.709,-520.237 143.21,-524.926 138.707,-515.336 133.709,-520.237"/>
</g>
<!-- Metamodel::ClassHOW&#45;&gt;Metamodel::Finalization -->
<g id="edge24" class="edge"><title>Metamodel::ClassHOW&#45;&gt;Metamodel::Finalization</title>
<path fill="none" stroke="#6666ff" d="M-327.994,-18.4424C-302.915,40.3578 -225.563,221.717 -225.563,221.717 -225.563,221.717 -243.514,376.751 -251.053,441.864"/>
<polygon fill="#6666ff" stroke="#6666ff" points="-247.583,442.329 -252.21,451.86 -254.537,441.524 -247.583,442.329"/>
</g>
<!-- Metamodel::ClassHOW&#45;&gt;Metamodel::DefaultParent -->
<g id="edge30" class="edge"><title>Metamodel::ClassHOW&#45;&gt;Metamodel::DefaultParent</title>
<path fill="none" stroke="#6666ff" d="M-336.058,-18.4333C-336.833,25.9624 -338.826,140.19 -339.757,193.569"/>
<polygon fill="#6666ff" stroke="#6666ff" points="-336.26,193.755 -339.934,203.693 -343.259,193.633 -336.26,193.755"/>
</g>
<!-- Metamodel::ClassHOW&#45;&gt;Metamodel::C3MRO -->
<g id="edge31" class="edge"><title>Metamodel::ClassHOW&#45;&gt;Metamodel::C3MRO</title>
<path fill="none" stroke="#6666ff" d="M-344.845,-54.773C-368.289,-101.556 -428.912,-222.531 -428.912,-222.531 -428.912,-222.531 -715.414,-388.469 -820.813,-449.514"/>
<polygon fill="#6666ff" stroke="#6666ff" points="-822.657,-446.537 -829.556,-454.578 -819.149,-452.595 -822.657,-446.537"/>
</g>
<!-- Metamodel::ClassHOW&#45;&gt;Metamodel::MROBasedMethodDispatch -->
<g id="edge32" class="edge"><title>Metamodel::ClassHOW&#45;&gt;Metamodel::MROBasedMethodDispatch</title>
<path fill="none" stroke="#6666ff" d="M-366.859,-19.4278C-419.086,9.4056 -524.374,67.5331 -582.705,99.7364"/>
<polygon fill="#6666ff" stroke="#6666ff" points="-581.202,102.905 -591.648,104.674 -584.585,96.7765 -581.202,102.905"/>
</g>
<!-- Metamodel::ClassHOW&#45;&gt;Metamodel::MROBasedTypeChecking -->
<g id="edge33" class="edge"><title>Metamodel::ClassHOW&#45;&gt;Metamodel::MROBasedTypeChecking</title>
<path fill="none" stroke="#6666ff" d="M-360.47,-54.4233C-407.047,-87.9798 -507.807,-160.573 -560.309,-198.399"/>
<polygon fill="#6666ff" stroke="#6666ff" points="-562.544,-195.695 -568.612,-204.38 -558.452,-201.374 -562.544,-195.695"/>
</g>
<!-- Metamodel::ClassHOW&#45;&gt;Metamodel::Trusting -->
<g id="edge34" class="edge"><title>Metamodel::ClassHOW&#45;&gt;Metamodel::Trusting</title>
<path fill="none" stroke="#6666ff" d="M-344.28,-18.3758C-379.026,55.8082 -509.899,335.232 -551.456,423.96"/>
<polygon fill="#6666ff" stroke="#6666ff" points="-548.332,425.542 -555.743,433.114 -554.671,422.573 -548.332,425.542"/>
</g>
<!-- Metamodel::ClassHOW&#45;&gt;Metamodel::BUILDPLAN -->
<g id="edge35" class="edge"><title>Metamodel::ClassHOW&#45;&gt;Metamodel::BUILDPLAN</title>
<path fill="none" stroke="#6666ff" d="M-348.933,-18.6682C-379.526,22.9349 -452.72,122.471 -452.72,122.471 -452.72,122.471 -737.572,299.315 -840.742,363.365"/>
<polygon fill="#6666ff" stroke="#6666ff" points="-838.946,366.37 -849.288,368.671 -842.638,360.423 -838.946,366.37"/>
</g>
<!-- Metamodel::ClassHOW&#45;&gt;Metamodel::Mixins -->
<g id="edge36" class="edge"><title>Metamodel::ClassHOW&#45;&gt;Metamodel::Mixins</title>
<path fill="none" stroke="#6666ff" d="M-438.317,-39.7634C-539.99,-42.8917 -694.456,-47.6444 -793.284,-50.6852"/>
<polygon fill="#6666ff" stroke="#6666ff" points="-793.675,-47.1955 -803.563,-51.0015 -793.46,-54.1922 -793.675,-47.1955"/>
</g>
<!-- Metamodel::ClassHOW&#45;&gt;Metamodel::BoolificationProtocol -->
<g id="edge37" class="edge"><title>Metamodel::ClassHOW&#45;&gt;Metamodel::BoolificationProtocol</title>
<path fill="none" stroke="#6666ff" d="M-341.916,-54.6454C-367.265,-128.701 -463.45,-409.692 -494.154,-499.388"/>
<polygon fill="#6666ff" stroke="#6666ff" points="-497.477,-498.289 -497.404,-508.884 -490.854,-500.556 -497.477,-498.289"/>
</g>
<!-- Metamodel::NativeHOW -->
<g id="node26" class="node"><title>Metamodel::NativeHOW</title>
<g id="a_node26"><a xlink:href="/type/Metamodel::NativeHOW" xlink:title="Metamodel::NativeHOW">
<ellipse fill="none" stroke="#000000" cx="-160.234" cy="-542.608" rx="107.482" ry="18"/>
<text text-anchor="middle" x="-160.234" y="-538.908" font-family="FreeSans" font-size="14.00" fill="#000000">Metamodel::NativeHOW</text>
</a>
</g>
</g>
<!-- Metamodel::NativeHOW&#45;&gt;Metamodel::Versioning -->
<g id="edge40" class="edge"><title>Metamodel::NativeHOW&#45;&gt;Metamodel::Versioning</title>
<path fill="none" stroke="#6666ff" d="M-154.05,-524.537C-134.627,-467.783 -76.1322,-296.853 -76.1322,-296.853 -76.1322,-296.853 88.5541,-138.944 153.965,-76.2242"/>
<polygon fill="#6666ff" stroke="#6666ff" points="156.637,-78.5117 161.432,-69.0644 151.792,-73.4591 156.637,-78.5117"/>
</g>
<!-- Metamodel::NativeHOW&#45;&gt;Any -->
<g id="edge4" class="edge"><title>Metamodel::NativeHOW&#45;&gt;Any</title>
<path fill="none" stroke="#000000" d="M-115.628,-526.218C26.8025,-473.882 468.665,-311.522 593.994,-265.47"/>
<polygon fill="#000000" stroke="#000000" points="595.289,-268.724 603.468,-261.989 592.875,-262.153 595.289,-268.724"/>
</g>
<!-- Metamodel::NativeHOW&#45;&gt;Metamodel::Naming -->
<g id="edge38" class="edge"><title>Metamodel::NativeHOW&#45;&gt;Metamodel::Naming</title>
<path fill="none" stroke="#6666ff" d="M-147.289,-524.546C-116.578,-481.695 -39.1926,-373.721 -3.1768,-323.469"/>
<polygon fill="#6666ff" stroke="#6666ff" points="-0.136525,-325.235 2.84407,-315.068 -5.82616,-321.157 -0.136525,-325.235"/>
</g>
<!-- Metamodel::NativeHOW&#45;&gt;Metamodel::Documenting -->
<g id="edge39" class="edge"><title>Metamodel::NativeHOW&#45;&gt;Metamodel::Documenting</title>
<path fill="none" stroke="#6666ff" d="M-168.562,-524.394C-188.239,-481.36 -237.696,-373.196 -260.99,-322.251"/>
<polygon fill="#6666ff" stroke="#6666ff" points="-257.811,-320.786 -265.152,-313.147 -264.177,-323.697 -257.811,-320.786"/>
</g>
<!-- Metamodel::NativeHOW&#45;&gt;Metamodel::MultipleInheritance -->
<g id="edge42" class="edge"><title>Metamodel::NativeHOW&#45;&gt;Metamodel::MultipleInheritance</title>
<path fill="none" stroke="#6666ff" d="M-156.876,-524.359C-143.087,-449.432 -90.7645,-165.107 -74.0715,-74.3963"/>
<polygon fill="#6666ff" stroke="#6666ff" points="-70.6285,-75.0254 -72.2608,-64.557 -77.5129,-73.7584 -70.6285,-75.0254"/>
</g>
<!-- Metamodel::NativeHOW&#45;&gt;Metamodel::Stashing -->
<g id="edge41" class="edge"><title>Metamodel::NativeHOW&#45;&gt;Metamodel::Stashing</title>
<path fill="none" stroke="#6666ff" d="M-52.9327,-542.646C-17.6103,-542.659 21.5864,-542.673 56.6593,-542.685"/>
<polygon fill="#6666ff" stroke="#6666ff" points="56.9162,-546.185 66.9175,-542.689 56.9188,-539.185 56.9162,-546.185"/>
</g>
<!-- Metamodel::NativeHOW&#45;&gt;Metamodel::C3MRO -->
<g id="edge43" class="edge"><title>Metamodel::NativeHOW&#45;&gt;Metamodel::C3MRO</title>
<path fill="none" stroke="#6666ff" d="M-247.611,-532.09C-317.27,-523.704 -403.21,-513.359 -403.21,-513.359 -403.21,-513.359 -631.819,-492.473 -765.274,-480.279"/>
<polygon fill="#6666ff" stroke="#6666ff" points="-765.227,-476.769 -775.504,-479.345 -765.864,-483.74 -765.227,-476.769"/>
</g>
<!-- Metamodel::NativeHOW&#45;&gt;Metamodel::MROBasedMethodDispatch -->
<g id="edge44" class="edge"><title>Metamodel::NativeHOW&#45;&gt;Metamodel::MROBasedMethodDispatch</title>
<path fill="none" stroke="#6666ff" d="M-176.487,-524.786C-228.306,-467.964 -386.231,-294.794 -386.231,-294.794 -386.231,-294.794 -555.973,3.17328 -608.592,95.5414"/>
<polygon fill="#6666ff" stroke="#6666ff" points="-605.596,97.3536 -613.587,104.31 -611.678,93.8887 -605.596,97.3536"/>
</g>
<!-- Metamodel::NativeHOW&#45;&gt;Metamodel::MROBasedTypeChecking -->
<g id="edge45" class="edge"><title>Metamodel::NativeHOW&#45;&gt;Metamodel::MROBasedTypeChecking</title>
<path fill="none" stroke="#6666ff" d="M-184.153,-524.937C-257.327,-470.878 -478.231,-307.68 -561.456,-246.195"/>
<polygon fill="#6666ff" stroke="#6666ff" points="-559.41,-243.355 -569.533,-240.228 -563.569,-248.985 -559.41,-243.355"/>
</g>
<!-- Metamodel::MethodDelegation -->
<g id="node27" class="node"><title>Metamodel::MethodDelegation</title>
<g id="a_node27"><a xlink:href="/type/Metamodel::MethodDelegation" xlink:title="Metamodel::MethodDelegation">
<ellipse fill="none" stroke="#6666ff" cx="504.027" cy="-536.342" rx="131.077" ry="18"/>
<text text-anchor="middle" x="504.027" y="-532.642" font-family="FreeSans" font-size="14.00" fill="#6666ff">Metamodel::MethodDelegation</text>
</a>
</g>
</g>
<!-- Metamodel::ModuleHOW -->
<g id="node28" class="node"><title>Metamodel::ModuleHOW</title>
<g id="a_node28"><a xlink:href="/type/Metamodel::ModuleHOW" xlink:title="Metamodel::ModuleHOW">
<ellipse fill="none" stroke="#000000" cx="306.306" cy="-298.65" rx="111.28" ry="18"/>
<text text-anchor="middle" x="306.306" y="-294.95" font-family="FreeSans" font-size="14.00" fill="#000000">Metamodel::ModuleHOW</text>
</a>
</g>
</g>
<!-- Metamodel::ModuleHOW&#45;&gt;Metamodel::Versioning -->
<g id="edge48" class="edge"><title>Metamodel::ModuleHOW&#45;&gt;Metamodel::Versioning</title>
<path fill="none" stroke="#6666ff" d="M297.04,-280.439C275.146,-237.411 220.118,-129.263 194.199,-78.3261"/>
<polygon fill="#6666ff" stroke="#6666ff" points="197.222,-76.5485 189.568,-69.2232 190.983,-79.723 197.222,-76.5485"/>
</g>
<!-- Metamodel::ModuleHOW&#45;&gt;Any -->
<g id="edge5" class="edge"><title>Metamodel::ModuleHOW&#45;&gt;Any</title>
<path fill="none" stroke="#000000" d="M390.262,-286.763C455.361,-277.545 542.405,-265.221 590.893,-258.355"/>
<polygon fill="#000000" stroke="#000000" points="591.509,-261.803 600.92,-256.935 590.528,-254.872 591.509,-261.803"/>
</g>
<!-- Metamodel::ModuleHOW&#45;&gt;Metamodel::Naming -->
<g id="edge46" class="edge"><title>Metamodel::ModuleHOW&#45;&gt;Metamodel::Naming</title>
<path fill="none" stroke="#6666ff" d="M194.823,-298.009C169.088,-297.861 141.856,-297.705 116.607,-297.56"/>
<polygon fill="#6666ff" stroke="#6666ff" points="116.312,-294.058 106.292,-297.5 116.272,-301.058 116.312,-294.058"/>
</g>
<!-- Metamodel::ModuleHOW&#45;&gt;Metamodel::Documenting -->
<g id="edge47" class="edge"><title>Metamodel::ModuleHOW&#45;&gt;Metamodel::Documenting</title>
<path fill="none" stroke="#6666ff" d="M204.912,-291.211C121.313,-285.078 16.4034,-277.381 16.4034,-277.381 16.4034,-277.381 -77.8942,-283.081 -158.927,-287.98"/>
<polygon fill="#6666ff" stroke="#6666ff" points="-159.473,-284.507 -169.243,-288.604 -159.05,-291.494 -159.473,-284.507"/>
</g>
<!-- Metamodel::ModuleHOW&#45;&gt;Metamodel::Stashing -->
<g id="edge49" class="edge"><title>Metamodel::ModuleHOW&#45;&gt;Metamodel::Stashing</title>
<path fill="none" stroke="#6666ff" d="M295.597,-316.597C270.242,-359.089 206.433,-466.023 176.558,-516.091"/>
<polygon fill="#6666ff" stroke="#6666ff" points="173.51,-514.368 171.391,-524.749 179.521,-517.955 173.51,-514.368"/>
</g>
<!-- Metamodel::ModuleHOW&#45;&gt;Metamodel::TypePretense -->
<g id="edge50" class="edge"><title>Metamodel::ModuleHOW&#45;&gt;Metamodel::TypePretense</title>
<path fill="none" stroke="#6666ff" d="M357.517,-314.659C460.003,-346.698 689.921,-418.574 800.092,-453.015"/>
<polygon fill="#6666ff" stroke="#6666ff" points="799.144,-456.386 809.733,-456.029 801.233,-449.705 799.144,-456.386"/>
</g>
<!-- Metamodel::ModuleHOW&#45;&gt;Metamodel::MethodDelegation -->
<g id="edge51" class="edge"><title>Metamodel::ModuleHOW&#45;&gt;Metamodel::MethodDelegation</title>
<path fill="none" stroke="#6666ff" d="M321.168,-316.516C355.806,-358.156 442.023,-461.803 482.455,-510.409"/>
<polygon fill="#6666ff" stroke="#6666ff" points="479.908,-512.82 488.994,-518.269 485.289,-508.343 479.908,-512.82"/>
</g>
<!-- Metamodel::ConcreteRoleHOW -->
<g id="node29" class="node"><title>Metamodel::ConcreteRoleHOW</title>
<g id="a_node29"><a xlink:href="/type/Metamodel::ConcreteRoleHOW" xlink:title="Metamodel::ConcreteRoleHOW">
<ellipse fill="none" stroke="#000000" cx="578.986" cy="187.806" rx="135.676" ry="18"/>
<text text-anchor="middle" x="578.986" y="191.506" font-family="FreeSans" font-size="14.00" fill="#000000">Metamodel::ConcreteRoleHOW</text>
</a>
</g>
</g>
<!-- Metamodel::ConcreteRoleHOW&#45;&gt;Metamodel::Versioning -->
<g id="edge53" class="edge"><title>Metamodel::ConcreteRoleHOW&#45;&gt;Metamodel::Versioning</title>
<path fill="none" stroke="#6666ff" d="M549.345,170.053C478.012,127.33 296.863,18.8347 217.968,-28.4171"/>
<polygon fill="#6666ff" stroke="#6666ff" points="216.095,-25.4592 209.315,-33.6001 219.692,-31.4645 216.095,-25.4592"/>
</g>
<!-- Metamodel::ConcreteRoleHOW&#45;&gt;Any -->
<g id="edge6" class="edge"><title>Metamodel::ConcreteRoleHOW&#45;&gt;Any</title>
<path fill="none" stroke="#000000" d="M580.976,169.696C588.5,101.223 615.246,-142.179 624.368,-225.199"/>
<polygon fill="#000000" stroke="#000000" points="620.892,-225.605 625.463,-235.163 627.85,-224.841 620.892,-225.605"/>
</g>
<!-- Metamodel::ConcreteRoleHOW&#45;&gt;Metamodel::Naming -->
<g id="edge52" class="edge"><title>Metamodel::ConcreteRoleHOW&#45;&gt;Metamodel::Naming</title>
<path fill="none" stroke="#6666ff" d="M557.418,169.892C493.556,116.85 309.865,-35.7179 309.865,-35.7179 309.865,-35.7179 116.783,-207.267 43.534,-272.346"/>
<polygon fill="#6666ff" stroke="#6666ff" points="41.1705,-269.764 36.0196,-279.023 45.8199,-274.997 41.1705,-269.764"/>
</g>
<!-- Metamodel::ConcreteRoleHOW&#45;&gt;Metamodel::MethodContainer -->
<g id="edge55" class="edge"><title>Metamodel::ConcreteRoleHOW&#45;&gt;Metamodel::MethodContainer</title>
<path fill="none" stroke="#6666ff" d="M447.91,192.721C420.148,193.762 390.817,194.861 362.973,195.905"/>
<polygon fill="#6666ff" stroke="#6666ff" points="362.912,199.41 352.788,196.287 362.649,192.415 362.912,199.41"/>
</g>
<!-- Metamodel::ConcreteRoleHOW&#45;&gt;Metamodel::PrivateMethodContainer -->
<g id="edge54" class="edge"><title>Metamodel::ConcreteRoleHOW&#45;&gt;Metamodel::PrivateMethodContainer</title>
<path fill="none" stroke="#6666ff" d="M444.418,185.306C345.769,183.474 228.986,181.305 228.986,181.305 228.986,181.305 137.971,187.116 137.971,187.116 137.971,187.116 106.383,190.045 68.239,193.581"/>
<polygon fill="#6666ff" stroke="#6666ff" points="68.1544,197.104 57.874,194.542 67.5082,190.134 68.1544,197.104"/>
</g>
<!-- Metamodel::ConcreteRoleHOW&#45;&gt;Metamodel::MultiMethodContainer -->
<g id="edge56" class="edge"><title>Metamodel::ConcreteRoleHOW&#45;&gt;Metamodel::MultiMethodContainer</title>
<path fill="none" stroke="#6666ff" d="M578.226,206.115C576.251,253.729 570.942,381.685 568.575,438.733"/>
<polygon fill="#6666ff" stroke="#6666ff" points="572.067,438.993 568.156,448.839 565.073,438.703 572.067,438.993"/>
</g>
<!-- Metamodel::ConcreteRoleHOW&#45;&gt;Metamodel::AttributeContainer -->
<g id="edge57" class="edge"><title>Metamodel::ConcreteRoleHOW&#45;&gt;Metamodel::AttributeContainer</title>
<path fill="none" stroke="#6666ff" d="M543.084,205.355C444.748,253.422 171.214,387.128 63.2911,439.881"/>
<polygon fill="#6666ff" stroke="#6666ff" points="64.8062,443.036 54.285,444.283 61.7321,436.747 64.8062,443.036"/>
</g>
<!-- Metamodel::ConcreteRoleHOW&#45;&gt;Metamodel::RoleContainer -->
<g id="edge58" class="edge"><title>Metamodel::ConcreteRoleHOW&#45;&gt;Metamodel::RoleContainer</title>
<path fill="none" stroke="#6666ff" d="M559.27,205.784C508.195,252.357 371.493,377.01 312.813,430.518"/>
<polygon fill="#6666ff" stroke="#6666ff" points="314.815,433.429 305.068,437.581 310.099,428.257 314.815,433.429"/>
</g>
<!-- Metamodel::ConcreteRoleHOW&#45;&gt;Metamodel::MultipleInheritance -->
<g id="edge59" class="edge"><title>Metamodel::ConcreteRoleHOW&#45;&gt;Metamodel::MultipleInheritance</title>
<path fill="none" stroke="#6666ff" d="M532.13,170.868C415.694,128.778 113.558,19.5588 -12.4449,-25.9897"/>
<polygon fill="#6666ff" stroke="#6666ff" points="-13.7132,-22.7265 -21.9278,-29.4177 -11.3335,-29.3096 -13.7132,-22.7265"/>
</g>
</g>
</svg>
