<?xml version="1.0" encoding="UTF-8" standalone="no"?>
<!DOCTYPE svg PUBLIC "-//W3C//DTD SVG 1.1//EN"
 "http://www.w3.org/Graphics/SVG/1.1/DTD/svg11.dtd">
<!-- Generated by graphviz version 2.38.0 (20140413.2041)
 -->
<!-- Title: perl6&#45;type&#45;graph Pages: 1 -->
<svg width="350pt" height="404pt"
 viewBox="0.00 0.00 349.87 404.00" xmlns="http://www.w3.org/2000/svg" xmlns:xlink="http://www.w3.org/1999/xlink">
<g id="graph0" class="graph" transform="scale(1 1) rotate(0) translate(4 400)">
<title>perl6&#45;type&#45;graph</title>
<polygon fill="white" stroke="none" points="-4,4 -4,-400 345.87,-400 345.87,4 -4,4"/>
<!-- X::Syntax::AddCategorical::TooFewParts -->
<g id="node1" class="node"><title>X::Syntax::AddCategorical::TooFewParts</title>
<g id="a_node1"><a xlink:href="/type/X::Syntax::AddCategorical::TooFewParts" xlink:title="X::Syntax::AddCategorical::TooFewParts">
<ellipse fill="none" stroke="#000000" cx="170.935" cy="-18" rx="170.87" ry="18"/>
<text text-anchor="middle" x="170.935" y="-14.3" font-family="FreeSans" font-size="14.00" fill="#000000">X::Syntax::AddCategorical::TooFewParts</text>
</a>
</g>
</g>
<!-- Exception -->
<g id="node4" class="node"><title>Exception</title>
<g id="a_node4"><a xlink:href="/type/Exception" xlink:title="Exception">
<ellipse fill="none" stroke="#000000" cx="170.935" cy="-234" rx="49.2915" ry="18"/>
<text text-anchor="middle" x="170.935" y="-230.3" font-family="FreeSans" font-size="14.00" fill="#000000">Exception</text>
</a>
</g>
</g>
<!-- X::Syntax::AddCategorical::TooFewParts&#45;&gt;Exception -->
<g id="edge1" class="edge"><title>X::Syntax::AddCategorical::TooFewParts&#45;&gt;Exception</title>
<path fill="none" stroke="#000000" d="M164.819,-36.0613C159.264,-51.5549 151.935,-72 151.935,-72 151.935,-72 151.935,-108 151.935,-108 151.935,-108 161.208,-169.008 166.798,-205.782"/>
<polygon fill="#000000" stroke="#000000" points="163.37,-206.521 168.333,-215.881 170.29,-205.469 163.37,-206.521"/>
</g>
<!-- X::Syntax -->
<g id="node6" class="node"><title>X::Syntax</title>
<g id="a_node6"><a xlink:href="/type/X::Syntax" xlink:title="X::Syntax">
<ellipse fill="none" stroke="#6666ff" cx="208.935" cy="-90" rx="48.1917" ry="18"/>
<text text-anchor="middle" x="208.935" y="-86.3" font-family="FreeSans" font-size="14.00" fill="#6666ff">X::Syntax</text>
</a>
</g>
</g>
<!-- X::Syntax::AddCategorical::TooFewParts&#45;&gt;X::Syntax -->
<g id="edge6" class="edge"><title>X::Syntax::AddCategorical::TooFewParts&#45;&gt;X::Syntax</title>
<path fill="none" stroke="#6666ff" d="M180.328,-36.3034C184.7,-44.3564 189.992,-54.1055 194.83,-63.0176"/>
<polygon fill="#6666ff" stroke="#6666ff" points="191.803,-64.777 199.65,-71.8957 197.955,-61.4373 191.803,-64.777"/>
</g>
<!-- Mu -->
<g id="node2" class="node"><title>Mu</title>
<g id="a_node2"><a xlink:href="/type/Mu" xlink:title="Mu">
<ellipse fill="none" stroke="#000000" cx="170.935" cy="-378" rx="27" ry="18"/>
<text text-anchor="middle" x="170.935" y="-374.3" font-family="FreeSans" font-size="14.00" fill="#000000">Mu</text>
</a>
</g>
</g>
<!-- Any -->
<g id="node3" class="node"><title>Any</title>
<g id="a_node3"><a xlink:href="/type/Any" xlink:title="Any">
<ellipse fill="none" stroke="#000000" cx="170.935" cy="-306" rx="27" ry="18"/>
<text text-anchor="middle" x="170.935" y="-302.3" font-family="FreeSans" font-size="14.00" fill="#000000">Any</text>
</a>
</g>
</g>
<!-- Any&#45;&gt;Mu -->
<g id="edge2" class="edge"><title>Any&#45;&gt;Mu</title>
<path fill="none" stroke="#000000" d="M170.935,-324.303C170.935,-332.017 170.935,-341.288 170.935,-349.888"/>
<polygon fill="#000000" stroke="#000000" points="167.435,-349.896 170.935,-359.896 174.435,-349.896 167.435,-349.896"/>
</g>
<!-- Exception&#45;&gt;Any -->
<g id="edge3" class="edge"><title>Exception&#45;&gt;Any</title>
<path fill="none" stroke="#000000" d="M170.935,-252.303C170.935,-260.017 170.935,-269.288 170.935,-277.888"/>
<polygon fill="#000000" stroke="#000000" points="167.435,-277.896 170.935,-287.896 174.435,-277.896 167.435,-277.896"/>
</g>
<!-- X::Comp -->
<g id="node5" class="node"><title>X::Comp</title>
<g id="a_node5"><a xlink:href="/type/X::Comp" xlink:title="X::Comp">
<ellipse fill="none" stroke="#6666ff" cx="243.935" cy="-162" rx="44.6926" ry="18"/>
<text text-anchor="middle" x="243.935" y="-158.3" font-family="FreeSans" font-size="14.00" fill="#6666ff">X::Comp</text>
</a>
</g>
</g>
<!-- X::Comp&#45;&gt;Exception -->
<g id="edge4" class="edge"><title>X::Comp&#45;&gt;Exception</title>
<path fill="none" stroke="#000000" d="M227.37,-178.884C217.824,-188.038 205.654,-199.707 195.061,-209.865"/>
<polygon fill="#000000" stroke="#000000" points="192.482,-207.489 187.687,-216.936 197.327,-212.541 192.482,-207.489"/>
</g>
<!-- X::Syntax&#45;&gt;Exception -->
<g id="edge5" class="edge"><title>X::Syntax&#45;&gt;Exception</title>
<path fill="none" stroke="#000000" d="M202.819,-108.061C197.264,-123.555 189.935,-144 189.935,-144 189.935,-144 182.285,-179.833 176.693,-206.025"/>
<polygon fill="#000000" stroke="#000000" points="173.263,-205.33 174.598,-215.84 180.109,-206.791 173.263,-205.33"/>
</g>
<!-- X::Syntax&#45;&gt;X::Comp -->
<g id="edge7" class="edge"><title>X::Syntax&#45;&gt;X::Comp</title>
<path fill="none" stroke="#6666ff" d="M217.407,-107.945C221.492,-116.113 226.479,-126.088 231.023,-135.176"/>
<polygon fill="#6666ff" stroke="#6666ff" points="227.938,-136.832 235.54,-144.211 234.199,-133.701 227.938,-136.832"/>
</g>
</g>
</svg>
