<?xml version="1.0" encoding="UTF-8" standalone="no"?>
<!DOCTYPE svg PUBLIC "-//W3C//DTD SVG 1.1//EN"
 "http://www.w3.org/Graphics/SVG/1.1/DTD/svg11.dtd">
<!-- Generated by graphviz version 2.38.0 (20140413.2041)
 -->
<!-- Title: perl6&#45;type&#45;graph Pages: 1 -->
<svg width="619pt" height="332pt"
 viewBox="0.00 0.00 619.00 332.00" xmlns="http://www.w3.org/2000/svg" xmlns:xlink="http://www.w3.org/1999/xlink">
<g id="graph0" class="graph" transform="scale(1 1) rotate(0) translate(4 328)">
<title>perl6&#45;type&#45;graph</title>
<polygon fill="white" stroke="none" points="-4,4 -4,-328 615,-328 615,4 -4,4"/>
<!-- Positional -->
<g id="node1" class="node"><title>Positional</title>
<g id="a_node1"><a xlink:href="/type/Positional" xlink:title="Positional">
<ellipse fill="none" stroke="#6666ff" cx="304" cy="-162" rx="48.9926" ry="18"/>
<text text-anchor="middle" x="304" y="-158.3" font-family="FreeSans" font-size="14.00" fill="#6666ff">Positional</text>
</a>
</g>
</g>
<!-- Mu -->
<g id="node2" class="node"><title>Mu</title>
<g id="a_node2"><a xlink:href="/type/Mu" xlink:title="Mu">
<ellipse fill="none" stroke="#000000" cx="381" cy="-306" rx="27" ry="18"/>
<text text-anchor="middle" x="381" y="-302.3" font-family="FreeSans" font-size="14.00" fill="#000000">Mu</text>
</a>
</g>
</g>
<!-- Any -->
<g id="node3" class="node"><title>Any</title>
<g id="a_node3"><a xlink:href="/type/Any" xlink:title="Any">
<ellipse fill="none" stroke="#000000" cx="381" cy="-234" rx="27" ry="18"/>
<text text-anchor="middle" x="381" y="-230.3" font-family="FreeSans" font-size="14.00" fill="#000000">Any</text>
</a>
</g>
</g>
<!-- Any&#45;&gt;Mu -->
<g id="edge1" class="edge"><title>Any&#45;&gt;Mu</title>
<path fill="none" stroke="#000000" d="M381,-252.303C381,-260.017 381,-269.288 381,-277.888"/>
<polygon fill="#000000" stroke="#000000" points="377.5,-277.896 381,-287.896 384.5,-277.896 377.5,-277.896"/>
</g>
<!-- Cool -->
<g id="node4" class="node"><title>Cool</title>
<g id="a_node4"><a xlink:href="/type/Cool" xlink:title="Cool">
<ellipse fill="none" stroke="#000000" cx="110" cy="-162" rx="28.6953" ry="18"/>
<text text-anchor="middle" x="110" y="-158.3" font-family="FreeSans" font-size="14.00" fill="#000000">Cool</text>
</a>
</g>
</g>
<!-- Cool&#45;&gt;Any -->
<g id="edge2" class="edge"><title>Cool&#45;&gt;Any</title>
<path fill="none" stroke="#000000" d="M132.544,-173.085C140.727,-176.746 148,-180 148,-180 148,-180 280.659,-210.176 345.78,-224.989"/>
<polygon fill="#000000" stroke="#000000" points="345.094,-228.422 355.621,-227.227 346.647,-221.596 345.094,-228.422"/>
</g>
<!-- Iterable -->
<g id="node5" class="node"><title>Iterable</title>
<g id="a_node5"><a xlink:href="/type/Iterable" xlink:title="Iterable">
<ellipse fill="none" stroke="#6666ff" cx="197" cy="-162" rx="40.0939" ry="18"/>
<text text-anchor="middle" x="197" y="-158.3" font-family="FreeSans" font-size="14.00" fill="#6666ff">Iterable</text>
</a>
</g>
</g>
<!-- Range -->
<g id="node6" class="node"><title>Range</title>
<g id="a_node6"><a xlink:href="/type/Range" xlink:title="Range">
<ellipse fill="none" stroke="#000000" cx="113" cy="-90" rx="36.2938" ry="18"/>
<text text-anchor="middle" x="113" y="-86.3" font-family="FreeSans" font-size="14.00" fill="#000000">Range</text>
</a>
</g>
</g>
<!-- Range&#45;&gt;Positional -->
<g id="edge13" class="edge"><title>Range&#45;&gt;Positional</title>
<path fill="none" stroke="#6666ff" d="M140.987,-101.573C150.139,-105.03 158,-108 158,-108 158,-108 217.984,-129.775 261.056,-145.411"/>
<polygon fill="#6666ff" stroke="#6666ff" points="259.911,-148.718 270.505,-148.841 262.299,-142.138 259.911,-148.718"/>
</g>
<!-- Range&#45;&gt;Cool -->
<g id="edge3" class="edge"><title>Range&#45;&gt;Cool</title>
<path fill="none" stroke="#000000" d="M112.258,-108.303C111.928,-116.017 111.531,-125.288 111.162,-133.888"/>
<polygon fill="#000000" stroke="#000000" points="107.665,-133.755 110.733,-143.896 114.658,-134.055 107.665,-133.755"/>
</g>
<!-- Range&#45;&gt;Iterable -->
<g id="edge14" class="edge"><title>Range&#45;&gt;Iterable</title>
<path fill="none" stroke="#6666ff" d="M130.814,-105.845C142.46,-115.55 157.868,-128.39 170.888,-139.24"/>
<polygon fill="#6666ff" stroke="#6666ff" points="168.708,-141.979 178.631,-145.692 173.189,-136.602 168.708,-141.979"/>
</g>
<!-- List -->
<g id="node7" class="node"><title>List</title>
<g id="a_node7"><a xlink:href="/type/List" xlink:title="List">
<ellipse fill="none" stroke="#000000" cx="194" cy="-90" rx="27" ry="18"/>
<text text-anchor="middle" x="194" y="-86.3" font-family="FreeSans" font-size="14.00" fill="#000000">List</text>
</a>
</g>
</g>
<!-- List&#45;&gt;Positional -->
<g id="edge15" class="edge"><title>List&#45;&gt;Positional</title>
<path fill="none" stroke="#6666ff" d="M213.161,-103.193C229.315,-113.473 252.775,-128.402 271.807,-140.514"/>
<polygon fill="#6666ff" stroke="#6666ff" points="270.154,-143.61 280.47,-146.026 273.912,-137.705 270.154,-143.61"/>
</g>
<!-- List&#45;&gt;Cool -->
<g id="edge4" class="edge"><title>List&#45;&gt;Cool</title>
<path fill="none" stroke="#000000" d="M177.804,-104.497C165.529,-114.726 148.454,-128.955 134.51,-140.575"/>
<polygon fill="#000000" stroke="#000000" points="132.163,-137.975 126.721,-147.066 136.644,-143.353 132.163,-137.975"/>
</g>
<!-- List&#45;&gt;Iterable -->
<g id="edge16" class="edge"><title>List&#45;&gt;Iterable</title>
<path fill="none" stroke="#6666ff" d="M194.742,-108.303C195.072,-116.017 195.469,-125.288 195.838,-133.888"/>
<polygon fill="#6666ff" stroke="#6666ff" points="192.342,-134.055 196.267,-143.896 199.335,-133.755 192.342,-134.055"/>
</g>
<!-- Stringy -->
<g id="node8" class="node"><title>Stringy</title>
<g id="a_node8"><a xlink:href="/type/Stringy" xlink:title="Stringy">
<ellipse fill="none" stroke="#6666ff" cx="472" cy="-162" rx="38.1938" ry="18"/>
<text text-anchor="middle" x="472" y="-158.3" font-family="FreeSans" font-size="14.00" fill="#6666ff">Stringy</text>
</a>
</g>
</g>
<!-- Uni -->
<g id="node9" class="node"><title>Uni</title>
<g id="a_node9"><a xlink:href="/type/Uni" xlink:title="Uni">
<ellipse fill="none" stroke="#000000" cx="342" cy="-90" rx="27" ry="18"/>
<text text-anchor="middle" x="342" y="-86.3" font-family="FreeSans" font-size="14.00" fill="#000000">Uni</text>
</a>
</g>
</g>
<!-- Uni&#45;&gt;Positional -->
<g id="edge17" class="edge"><title>Uni&#45;&gt;Positional</title>
<path fill="none" stroke="#6666ff" d="M333.187,-107.235C328.714,-115.475 323.172,-125.683 318.123,-134.984"/>
<polygon fill="#6666ff" stroke="#6666ff" points="314.991,-133.418 313.296,-143.876 321.143,-136.757 314.991,-133.418"/>
</g>
<!-- Uni&#45;&gt;Any -->
<g id="edge5" class="edge"><title>Uni&#45;&gt;Any</title>
<path fill="none" stroke="#000000" d="M348.328,-107.77C354.188,-123.297 362,-144 362,-144 362,-144 369.65,-179.833 375.241,-206.025"/>
<polygon fill="#000000" stroke="#000000" points="371.826,-206.791 377.337,-215.84 378.672,-205.33 371.826,-206.791"/>
</g>
<!-- Uni&#45;&gt;Stringy -->
<g id="edge18" class="edge"><title>Uni&#45;&gt;Stringy</title>
<path fill="none" stroke="#6666ff" d="M362.312,-101.938C382.829,-112.985 414.857,-130.231 439.018,-143.241"/>
<polygon fill="#6666ff" stroke="#6666ff" points="437.389,-146.338 447.853,-147.998 440.707,-140.175 437.389,-146.338"/>
</g>
<!-- Blob -->
<g id="node10" class="node"><title>Blob</title>
<g id="a_node10"><a xlink:href="/type/Blob" xlink:title="Blob">
<ellipse fill="none" stroke="#6666ff" cx="488" cy="-90" rx="28.6953" ry="18"/>
<text text-anchor="middle" x="488" y="-86.3" font-family="FreeSans" font-size="14.00" fill="#6666ff">Blob</text>
</a>
</g>
</g>
<!-- Blob&#45;&gt;Positional -->
<g id="edge19" class="edge"><title>Blob&#45;&gt;Positional</title>
<path fill="none" stroke="#6666ff" d="M463.945,-100.151C434.078,-111.514 382.626,-131.088 346.15,-144.965"/>
<polygon fill="#6666ff" stroke="#6666ff" points="344.858,-141.711 336.756,-148.538 347.347,-148.254 344.858,-141.711"/>
</g>
<!-- Blob&#45;&gt;Stringy -->
<g id="edge20" class="edge"><title>Blob&#45;&gt;Stringy</title>
<path fill="none" stroke="#6666ff" d="M484.127,-107.945C482.345,-115.739 480.188,-125.178 478.189,-133.921"/>
<polygon fill="#6666ff" stroke="#6666ff" points="474.765,-133.196 475.949,-143.725 481.589,-134.756 474.765,-133.196"/>
</g>
<!-- Slip -->
<g id="node11" class="node"><title>Slip</title>
<g id="a_node11"><a xlink:href="/type/Slip" xlink:title="Slip">
<ellipse fill="none" stroke="#000000" cx="27" cy="-18" rx="27" ry="18"/>
<text text-anchor="middle" x="27" y="-14.3" font-family="FreeSans" font-size="14.00" fill="#000000">Slip</text>
</a>
</g>
</g>
<!-- Slip&#45;&gt;List -->
<g id="edge6" class="edge"><title>Slip&#45;&gt;List</title>
<path fill="none" stroke="#000000" d="M48.3574,-29.0854C56.1094,-32.7461 63,-36 63,-36 63,-36 158,-72 158,-72 158,-72 160.18,-73.0296 163.468,-74.5819"/>
<polygon fill="#000000" stroke="#000000" points="162.106,-77.8093 172.643,-78.9146 165.095,-71.4796 162.106,-77.8093"/>
</g>
<!-- Array -->
<g id="node12" class="node"><title>Array</title>
<g id="a_node12"><a xlink:href="/type/Array" xlink:title="Array">
<ellipse fill="none" stroke="#000000" cx="104" cy="-18" rx="31.6951" ry="18"/>
<text text-anchor="middle" x="104" y="-14.3" font-family="FreeSans" font-size="14.00" fill="#000000">Array</text>
</a>
</g>
</g>
<!-- Array&#45;&gt;List -->
<g id="edge7" class="edge"><title>Array&#45;&gt;List</title>
<path fill="none" stroke="#000000" d="M122.213,-33.1655C135.609,-43.5849 153.985,-57.8774 168.791,-69.3934"/>
<polygon fill="#000000" stroke="#000000" points="166.99,-72.426 177.032,-75.8027 171.287,-66.9005 166.99,-72.426"/>
</g>
<!-- NFC -->
<g id="node13" class="node"><title>NFC</title>
<g id="a_node13"><a xlink:href="/type/NFC" xlink:title="NFC">
<ellipse fill="none" stroke="#000000" cx="183" cy="-18" rx="29.4969" ry="18"/>
<text text-anchor="middle" x="183" y="-14.3" font-family="FreeSans" font-size="14.00" fill="#000000">NFC</text>
</a>
</g>
</g>
<!-- NFC&#45;&gt;Uni -->
<g id="edge8" class="edge"><title>NFC&#45;&gt;Uni</title>
<path fill="none" stroke="#000000" d="M205.981,-29.2811C213.984,-32.8613 221,-36 221,-36 221,-36 274.656,-59.502 310.507,-75.2057"/>
<polygon fill="#000000" stroke="#000000" points="309.524,-78.5958 320.088,-79.4021 312.332,-72.1839 309.524,-78.5958"/>
</g>
<!-- NFD -->
<g id="node14" class="node"><title>NFD</title>
<g id="a_node14"><a xlink:href="/type/NFD" xlink:title="NFD">
<ellipse fill="none" stroke="#000000" cx="259" cy="-18" rx="29.4969" ry="18"/>
<text text-anchor="middle" x="259" y="-14.3" font-family="FreeSans" font-size="14.00" fill="#000000">NFD</text>
</a>
</g>
</g>
<!-- NFD&#45;&gt;Uni -->
<g id="edge9" class="edge"><title>NFD&#45;&gt;Uni</title>
<path fill="none" stroke="#000000" d="M275.796,-33.1655C287.878,-43.3552 304.352,-57.2491 317.844,-68.6277"/>
<polygon fill="#000000" stroke="#000000" points="315.893,-71.5604 325.794,-75.3319 320.406,-66.2093 315.893,-71.5604"/>
</g>
<!-- NFKD -->
<g id="node15" class="node"><title>NFKD</title>
<g id="a_node15"><a xlink:href="/type/NFKD" xlink:title="NFKD">
<ellipse fill="none" stroke="#000000" cx="342" cy="-18" rx="35.9954" ry="18"/>
<text text-anchor="middle" x="342" y="-14.3" font-family="FreeSans" font-size="14.00" fill="#000000">NFKD</text>
</a>
</g>
</g>
<!-- NFKD&#45;&gt;Uni -->
<g id="edge10" class="edge"><title>NFKD&#45;&gt;Uni</title>
<path fill="none" stroke="#000000" d="M342,-36.3034C342,-44.0173 342,-53.2875 342,-61.8876"/>
<polygon fill="#000000" stroke="#000000" points="338.5,-61.8956 342,-71.8957 345.5,-61.8957 338.5,-61.8956"/>
</g>
<!-- NFKC -->
<g id="node16" class="node"><title>NFKC</title>
<g id="a_node16"><a xlink:href="/type/NFKC" xlink:title="NFKC">
<ellipse fill="none" stroke="#000000" cx="431" cy="-18" rx="35.9954" ry="18"/>
<text text-anchor="middle" x="431" y="-14.3" font-family="FreeSans" font-size="14.00" fill="#000000">NFKC</text>
</a>
</g>
</g>
<!-- NFKC&#45;&gt;Uni -->
<g id="edge11" class="edge"><title>NFKC&#45;&gt;Uni</title>
<path fill="none" stroke="#000000" d="M412.559,-33.504C399.365,-43.8815 381.452,-57.9707 366.976,-69.3559"/>
<polygon fill="#000000" stroke="#000000" points="364.608,-66.7652 358.912,-75.6984 368.936,-72.2673 364.608,-66.7652"/>
</g>
<!-- Buf -->
<g id="node17" class="node"><title>Buf</title>
<g id="a_node17"><a xlink:href="/type/Buf" xlink:title="Buf">
<ellipse fill="none" stroke="#6666ff" cx="512" cy="-18" rx="27" ry="18"/>
<text text-anchor="middle" x="512" y="-14.3" font-family="FreeSans" font-size="14.00" fill="#6666ff">Buf</text>
</a>
</g>
</g>
<!-- Buf&#45;&gt;Blob -->
<g id="edge21" class="edge"><title>Buf&#45;&gt;Blob</title>
<path fill="none" stroke="#6666ff" d="M506.19,-35.945C503.449,-43.9414 500.113,-53.6692 497.051,-62.6005"/>
<polygon fill="#6666ff" stroke="#6666ff" points="493.689,-61.6164 493.756,-72.211 500.31,-63.8867 493.689,-61.6164"/>
</g>
<!-- utf8 -->
<g id="node18" class="node"><title>utf8</title>
<g id="a_node18"><a xlink:href="/type/utf8" xlink:title="utf8">
<ellipse fill="none" stroke="#000000" cx="584" cy="-18" rx="27" ry="18"/>
<text text-anchor="middle" x="584" y="-14.3" font-family="FreeSans" font-size="14.00" fill="#000000">utf8</text>
</a>
</g>
</g>
<!-- utf8&#45;&gt;Any -->
<g id="edge12" class="edge"><title>utf8&#45;&gt;Any</title>
<path fill="none" stroke="#000000" d="M577.289,-35.6234C560.681,-76.7587 519,-180 519,-180 519,-180 454.123,-204.916 413.336,-220.581"/>
<polygon fill="#000000" stroke="#000000" points="411.868,-217.395 403.788,-224.248 414.378,-223.93 411.868,-217.395"/>
</g>
<!-- utf8&#45;&gt;Blob -->
<g id="edge22" class="edge"><title>utf8&#45;&gt;Blob</title>
<path fill="none" stroke="#6666ff" d="M566.392,-31.8391C551.826,-42.4601 530.917,-57.7063 514.356,-69.7821"/>
<polygon fill="#6666ff" stroke="#6666ff" points="512.167,-67.0469 506.149,-75.7667 516.291,-72.703 512.167,-67.0469"/>
</g>
</g>
</svg>
