<?xml version="1.0" encoding="UTF-8" standalone="no"?>
<!DOCTYPE svg PUBLIC "-//W3C//DTD SVG 1.1//EN"
 "http://www.w3.org/Graphics/SVG/1.1/DTD/svg11.dtd">
<!-- Generated by graphviz version 2.38.0 (20140413.2041)
 -->
<!-- Title: perl6&#45;type&#45;graph Pages: 1 -->
<svg width="144pt" height="332pt"
 viewBox="0.00 0.00 144.49 332.00" xmlns="http://www.w3.org/2000/svg" xmlns:xlink="http://www.w3.org/1999/xlink">
<g id="graph0" class="graph" transform="scale(1 1) rotate(0) translate(4 328)">
<title>perl6&#45;type&#45;graph</title>
<polygon fill="white" stroke="none" points="-4,4 -4,-328 140.488,-328 140.488,4 -4,4"/>
<!-- IO::Path::QNX -->
<g id="node1" class="node"><title>IO::Path::QNX</title>
<g id="a_node1"><a xlink:href="/type/IO::Path::QNX" xlink:title="IO::Path::QNX">
<ellipse fill="none" stroke="#000000" cx="68.2439" cy="-18" rx="68.4888" ry="18"/>
<text text-anchor="middle" x="68.2439" y="-14.3" font-family="FreeSans" font-size="14.00" fill="#000000">IO::Path::QNX</text>
</a>
</g>
</g>
<!-- IO::Path -->
<g id="node6" class="node"><title>IO::Path</title>
<g id="a_node6"><a xlink:href="/type/IO::Path" xlink:title="IO::Path">
<ellipse fill="none" stroke="#000000" cx="68.2439" cy="-90" rx="43.5923" ry="18"/>
<text text-anchor="middle" x="68.2439" y="-86.3" font-family="FreeSans" font-size="14.00" fill="#000000">IO::Path</text>
</a>
</g>
</g>
<!-- IO::Path::QNX&#45;&gt;IO::Path -->
<g id="edge1" class="edge"><title>IO::Path::QNX&#45;&gt;IO::Path</title>
<path fill="none" stroke="#000000" d="M68.2439,-36.3034C68.2439,-44.0173 68.2439,-53.2875 68.2439,-61.8876"/>
<polygon fill="#000000" stroke="#000000" points="64.744,-61.8956 68.2439,-71.8957 71.744,-61.8957 64.744,-61.8956"/>
</g>
<!-- Mu -->
<g id="node2" class="node"><title>Mu</title>
<g id="a_node2"><a xlink:href="/type/Mu" xlink:title="Mu">
<ellipse fill="none" stroke="#000000" cx="31.2439" cy="-306" rx="27" ry="18"/>
<text text-anchor="middle" x="31.2439" y="-302.3" font-family="FreeSans" font-size="14.00" fill="#000000">Mu</text>
</a>
</g>
</g>
<!-- Any -->
<g id="node3" class="node"><title>Any</title>
<g id="a_node3"><a xlink:href="/type/Any" xlink:title="Any">
<ellipse fill="none" stroke="#000000" cx="31.2439" cy="-234" rx="27" ry="18"/>
<text text-anchor="middle" x="31.2439" y="-230.3" font-family="FreeSans" font-size="14.00" fill="#000000">Any</text>
</a>
</g>
</g>
<!-- Any&#45;&gt;Mu -->
<g id="edge2" class="edge"><title>Any&#45;&gt;Mu</title>
<path fill="none" stroke="#000000" d="M31.2439,-252.303C31.2439,-260.017 31.2439,-269.288 31.2439,-277.888"/>
<polygon fill="#000000" stroke="#000000" points="27.744,-277.896 31.2439,-287.896 34.744,-277.896 27.744,-277.896"/>
</g>
<!-- Cool -->
<g id="node4" class="node"><title>Cool</title>
<g id="a_node4"><a xlink:href="/type/Cool" xlink:title="Cool">
<ellipse fill="none" stroke="#000000" cx="31.2439" cy="-162" rx="28.6953" ry="18"/>
<text text-anchor="middle" x="31.2439" y="-158.3" font-family="FreeSans" font-size="14.00" fill="#000000">Cool</text>
</a>
</g>
</g>
<!-- Cool&#45;&gt;Any -->
<g id="edge3" class="edge"><title>Cool&#45;&gt;Any</title>
<path fill="none" stroke="#000000" d="M31.2439,-180.303C31.2439,-188.017 31.2439,-197.288 31.2439,-205.888"/>
<polygon fill="#000000" stroke="#000000" points="27.744,-205.896 31.2439,-215.896 34.744,-205.896 27.744,-205.896"/>
</g>
<!-- IO -->
<g id="node5" class="node"><title>IO</title>
<g id="a_node5"><a xlink:href="/type/IO" xlink:title="IO">
<ellipse fill="none" stroke="#6666ff" cx="105.244" cy="-162" rx="27" ry="18"/>
<text text-anchor="middle" x="105.244" y="-158.3" font-family="FreeSans" font-size="14.00" fill="#6666ff">IO</text>
</a>
</g>
</g>
<!-- IO::Path&#45;&gt;Cool -->
<g id="edge4" class="edge"><title>IO::Path&#45;&gt;Cool</title>
<path fill="none" stroke="#000000" d="M59.2873,-107.945C54.9062,-116.233 49.5419,-126.382 44.6824,-135.576"/>
<polygon fill="#000000" stroke="#000000" points="41.4421,-134.216 39.8634,-144.693 47.6308,-137.488 41.4421,-134.216"/>
</g>
<!-- IO::Path&#45;&gt;IO -->
<g id="edge5" class="edge"><title>IO::Path&#45;&gt;IO</title>
<path fill="none" stroke="#6666ff" d="M77.2006,-107.945C81.5816,-116.233 86.946,-126.382 91.8055,-135.576"/>
<polygon fill="#6666ff" stroke="#6666ff" points="88.8571,-137.488 96.6245,-144.693 95.0457,-134.216 88.8571,-137.488"/>
</g>
</g>
</svg>
