<?xml version="1.0" encoding="UTF-8" standalone="no"?>
<!DOCTYPE svg PUBLIC "-//W3C//DTD SVG 1.1//EN"
 "http://www.w3.org/Graphics/SVG/1.1/DTD/svg11.dtd">
<!-- Generated by graphviz version 2.38.0 (20140413.2041)
 -->
<!-- Title: perl6&#45;type&#45;graph Pages: 1 -->
<svg width="1720pt" height="260pt"
 viewBox="0.00 0.00 1719.69 260.00" xmlns="http://www.w3.org/2000/svg" xmlns:xlink="http://www.w3.org/1999/xlink">
<g id="graph0" class="graph" transform="scale(1 1) rotate(0) translate(4 256)">
<title>perl6&#45;type&#45;graph</title>
<polygon fill="white" stroke="none" points="-4,4 -4,-256 1715.69,-256 1715.69,4 -4,4"/>
<!-- Pod::Block -->
<g id="node1" class="node"><title>Pod::Block</title>
<g id="a_node1"><a xlink:href="/type/Pod::Block" xlink:title="Pod::Block">
<ellipse fill="none" stroke="#000000" cx="850.092" cy="-90" rx="53.0913" ry="18"/>
<text text-anchor="middle" x="850.092" y="-86.3" font-family="FreeSans" font-size="14.00" fill="#000000">Pod::Block</text>
</a>
</g>
</g>
<!-- Any -->
<g id="node3" class="node"><title>Any</title>
<g id="a_node3"><a xlink:href="/type/Any" xlink:title="Any">
<ellipse fill="none" stroke="#000000" cx="850.092" cy="-162" rx="27" ry="18"/>
<text text-anchor="middle" x="850.092" y="-158.3" font-family="FreeSans" font-size="14.00" fill="#000000">Any</text>
</a>
</g>
</g>
<!-- Pod::Block&#45;&gt;Any -->
<g id="edge1" class="edge"><title>Pod::Block&#45;&gt;Any</title>
<path fill="none" stroke="#000000" d="M850.092,-108.303C850.092,-116.017 850.092,-125.288 850.092,-133.888"/>
<polygon fill="#000000" stroke="#000000" points="846.592,-133.896 850.092,-143.896 853.592,-133.896 846.592,-133.896"/>
</g>
<!-- Mu -->
<g id="node2" class="node"><title>Mu</title>
<g id="a_node2"><a xlink:href="/type/Mu" xlink:title="Mu">
<ellipse fill="none" stroke="#000000" cx="850.092" cy="-234" rx="27" ry="18"/>
<text text-anchor="middle" x="850.092" y="-230.3" font-family="FreeSans" font-size="14.00" fill="#000000">Mu</text>
</a>
</g>
</g>
<!-- Any&#45;&gt;Mu -->
<g id="edge2" class="edge"><title>Any&#45;&gt;Mu</title>
<path fill="none" stroke="#000000" d="M850.092,-180.303C850.092,-188.017 850.092,-197.288 850.092,-205.888"/>
<polygon fill="#000000" stroke="#000000" points="846.592,-205.896 850.092,-215.896 853.592,-205.896 846.592,-205.896"/>
</g>
<!-- Pod::Block::Named -->
<g id="node4" class="node"><title>Pod::Block::Named</title>
<g id="a_node4"><a xlink:href="/type/Pod::Block::Named" xlink:title="Pod::Block::Named">
<ellipse fill="none" stroke="#000000" cx="87.0923" cy="-18" rx="87.1846" ry="18"/>
<text text-anchor="middle" x="87.0923" y="-14.3" font-family="FreeSans" font-size="14.00" fill="#000000">Pod::Block::Named</text>
</a>
</g>
</g>
<!-- Pod::Block::Named&#45;&gt;Pod::Block -->
<g id="edge3" class="edge"><title>Pod::Block::Named&#45;&gt;Pod::Block</title>
<path fill="none" stroke="#000000" d="M150.859,-30.292C168.59,-33.4319 183.092,-36 183.092,-36 183.092,-36 624.018,-71.0361 788.876,-84.1357"/>
<polygon fill="#000000" stroke="#000000" points="788.616,-87.626 798.861,-84.9292 789.17,-80.648 788.616,-87.626"/>
</g>
<!-- Pod::Block::Declarator -->
<g id="node5" class="node"><title>Pod::Block::Declarator</title>
<g id="a_node5"><a xlink:href="/type/Pod::Block::Declarator" xlink:title="Pod::Block::Declarator">
<ellipse fill="none" stroke="#000000" cx="291.092" cy="-18" rx="98.5829" ry="18"/>
<text text-anchor="middle" x="291.092" y="-14.3" font-family="FreeSans" font-size="14.00" fill="#000000">Pod::Block::Declarator</text>
</a>
</g>
</g>
<!-- Pod::Block::Declarator&#45;&gt;Pod::Block -->
<g id="edge4" class="edge"><title>Pod::Block::Declarator&#45;&gt;Pod::Block</title>
<path fill="none" stroke="#000000" d="M363.13,-30.3392C382.941,-33.4576 399.092,-36 399.092,-36 399.092,-36 668.045,-67.6065 790.561,-82.0041"/>
<polygon fill="#000000" stroke="#000000" points="790.197,-85.4853 800.537,-83.1765 791.014,-78.5332 790.197,-85.4853"/>
</g>
<!-- Pod::Item -->
<g id="node6" class="node"><title>Pod::Item</title>
<g id="a_node6"><a xlink:href="/type/Pod::Item" xlink:title="Pod::Item">
<ellipse fill="none" stroke="#000000" cx="456.092" cy="-18" rx="48.1917" ry="18"/>
<text text-anchor="middle" x="456.092" y="-14.3" font-family="FreeSans" font-size="14.00" fill="#000000">Pod::Item</text>
</a>
</g>
</g>
<!-- Pod::Item&#45;&gt;Pod::Block -->
<g id="edge5" class="edge"><title>Pod::Item&#45;&gt;Pod::Block</title>
<path fill="none" stroke="#000000" d="M492.514,-29.8626C503.685,-33.1943 513.092,-36 513.092,-36 513.092,-36 696.521,-64.8479 792.723,-79.9776"/>
<polygon fill="#000000" stroke="#000000" points="792.457,-83.4786 802.879,-81.5748 793.544,-76.5636 792.457,-83.4786"/>
</g>
<!-- Pod::FormattingCode -->
<g id="node7" class="node"><title>Pod::FormattingCode</title>
<g id="a_node7"><a xlink:href="/type/Pod::FormattingCode" xlink:title="Pod::FormattingCode">
<ellipse fill="none" stroke="#000000" cx="616.092" cy="-18" rx="94.4839" ry="18"/>
<text text-anchor="middle" x="616.092" y="-14.3" font-family="FreeSans" font-size="14.00" fill="#000000">Pod::FormattingCode</text>
</a>
</g>
</g>
<!-- Pod::FormattingCode&#45;&gt;Pod::Block -->
<g id="edge6" class="edge"><title>Pod::FormattingCode&#45;&gt;Pod::Block</title>
<path fill="none" stroke="#000000" d="M664.577,-33.504C704.685,-45.5021 761.379,-62.4617 801.513,-74.4676"/>
<polygon fill="#000000" stroke="#000000" points="800.756,-77.8943 811.339,-77.4072 802.762,-71.188 800.756,-77.8943"/>
</g>
<!-- Pod::Defn -->
<g id="node8" class="node"><title>Pod::Defn</title>
<g id="a_node8"><a xlink:href="/type/Pod::Defn" xlink:title="Pod::Defn">
<ellipse fill="none" stroke="#000000" cx="778.092" cy="-18" rx="50.0912" ry="18"/>
<text text-anchor="middle" x="778.092" y="-14.3" font-family="FreeSans" font-size="14.00" fill="#000000">Pod::Defn</text>
</a>
</g>
</g>
<!-- Pod::Defn&#45;&gt;Pod::Block -->
<g id="edge7" class="edge"><title>Pod::Defn&#45;&gt;Pod::Block</title>
<path fill="none" stroke="#000000" d="M794.791,-35.2354C804.151,-44.3353 815.983,-55.838 826.298,-65.8664"/>
<polygon fill="#000000" stroke="#000000" points="823.874,-68.3914 833.484,-72.8527 828.753,-63.3724 823.874,-68.3914"/>
</g>
<!-- Pod::Block::Para -->
<g id="node9" class="node"><title>Pod::Block::Para</title>
<g id="a_node9"><a xlink:href="/type/Pod::Block::Para" xlink:title="Pod::Block::Para">
<ellipse fill="none" stroke="#000000" cx="923.092" cy="-18" rx="76.8869" ry="18"/>
<text text-anchor="middle" x="923.092" y="-14.3" font-family="FreeSans" font-size="14.00" fill="#000000">Pod::Block::Para</text>
</a>
</g>
</g>
<!-- Pod::Block::Para&#45;&gt;Pod::Block -->
<g id="edge8" class="edge"><title>Pod::Block::Para&#45;&gt;Pod::Block</title>
<path fill="none" stroke="#000000" d="M905.792,-35.589C896.452,-44.5454 884.767,-55.7505 874.514,-65.5815"/>
<polygon fill="#000000" stroke="#000000" points="871.812,-63.3241 867.016,-72.7715 876.657,-68.3765 871.812,-63.3241"/>
</g>
<!-- Pod::Block::Comment -->
<g id="node10" class="node"><title>Pod::Block::Comment</title>
<g id="a_node10"><a xlink:href="/type/Pod::Block::Comment" xlink:title="Pod::Block::Comment">
<ellipse fill="none" stroke="#000000" cx="1114.09" cy="-18" rx="96.3833" ry="18"/>
<text text-anchor="middle" x="1114.09" y="-14.3" font-family="FreeSans" font-size="14.00" fill="#000000">Pod::Block::Comment</text>
</a>
</g>
</g>
<!-- Pod::Block::Comment&#45;&gt;Pod::Block -->
<g id="edge9" class="edge"><title>Pod::Block::Comment&#45;&gt;Pod::Block</title>
<path fill="none" stroke="#000000" d="M1060.99,-33.0813C1014.13,-45.5044 946.334,-63.4814 900.355,-75.6729"/>
<polygon fill="#000000" stroke="#000000" points="899.372,-72.3125 890.603,-78.2586 901.166,-79.0787 899.372,-72.3125"/>
</g>
<!-- Pod::Heading -->
<g id="node11" class="node"><title>Pod::Heading</title>
<g id="a_node11"><a xlink:href="/type/Pod::Heading" xlink:title="Pod::Heading">
<ellipse fill="none" stroke="#000000" cx="1292.09" cy="-18" rx="63.8893" ry="18"/>
<text text-anchor="middle" x="1292.09" y="-14.3" font-family="FreeSans" font-size="14.00" fill="#000000">Pod::Heading</text>
</a>
</g>
</g>
<!-- Pod::Heading&#45;&gt;Pod::Block -->
<g id="edge10" class="edge"><title>Pod::Heading&#45;&gt;Pod::Block</title>
<path fill="none" stroke="#000000" d="M1244.62,-30.0542C1230.68,-33.3012 1219.09,-36 1219.09,-36 1219.09,-36 1012.35,-65.6943 908.367,-80.6299"/>
<polygon fill="#000000" stroke="#000000" points="907.733,-77.1849 898.333,-82.0712 908.729,-84.1138 907.733,-77.1849"/>
</g>
<!-- Pod::Block::Code -->
<g id="node12" class="node"><title>Pod::Block::Code</title>
<g id="a_node12"><a xlink:href="/type/Pod::Block::Code" xlink:title="Pod::Block::Code">
<ellipse fill="none" stroke="#000000" cx="1453.09" cy="-18" rx="79.0865" ry="18"/>
<text text-anchor="middle" x="1453.09" y="-14.3" font-family="FreeSans" font-size="14.00" fill="#000000">Pod::Block::Code</text>
</a>
</g>
</g>
<!-- Pod::Block::Code&#45;&gt;Pod::Block -->
<g id="edge11" class="edge"><title>Pod::Block::Code&#45;&gt;Pod::Block</title>
<path fill="none" stroke="#000000" d="M1394.89,-30.2446C1378.52,-33.406 1365.09,-36 1365.09,-36 1365.09,-36 1046.8,-68.7565 910.67,-82.7658"/>
<polygon fill="#000000" stroke="#000000" points="909.999,-79.3162 900.41,-83.8216 910.716,-86.2794 909.999,-79.3162"/>
</g>
<!-- Pod::Block::Table -->
<g id="node13" class="node"><title>Pod::Block::Table</title>
<g id="a_node13"><a xlink:href="/type/Pod::Block::Table" xlink:title="Pod::Block::Table">
<ellipse fill="none" stroke="#000000" cx="1631.09" cy="-18" rx="80.6858" ry="18"/>
<text text-anchor="middle" x="1631.09" y="-14.3" font-family="FreeSans" font-size="14.00" fill="#000000">Pod::Block::Table</text>
</a>
</g>
</g>
<!-- Pod::Block::Table&#45;&gt;Pod::Block -->
<g id="edge12" class="edge"><title>Pod::Block::Table&#45;&gt;Pod::Block</title>
<path fill="none" stroke="#000000" d="M1571.81,-30.1971C1554.96,-33.38 1541.09,-36 1541.09,-36 1541.09,-36 1080.61,-71.319 911.46,-84.293"/>
<polygon fill="#000000" stroke="#000000" points="911.168,-80.8051 901.465,-85.0597 911.703,-87.7846 911.168,-80.8051"/>
</g>
</g>
</svg>
