<?xml version="1.0" encoding="UTF-8" standalone="no"?>
<!DOCTYPE svg PUBLIC "-//W3C//DTD SVG 1.1//EN"
 "http://www.w3.org/Graphics/SVG/1.1/DTD/svg11.dtd">
<!-- Generated by graphviz version 2.38.0 (20140413.2041)
 -->
<!-- Title: perl6&#45;type&#45;graph Pages: 1 -->
<svg width="835pt" height="332pt"
 viewBox="0.00 0.00 835.19 332.00" xmlns="http://www.w3.org/2000/svg" xmlns:xlink="http://www.w3.org/1999/xlink">
<g id="graph0" class="graph" transform="scale(1 1) rotate(0) translate(4 328)">
<title>perl6&#45;type&#45;graph</title>
<polygon fill="white" stroke="none" points="-4,4 -4,-328 831.189,-328 831.189,4 -4,4"/>
<!-- X::Control -->
<g id="node1" class="node"><title>X::Control</title>
<g id="a_node1"><a xlink:href="/type/X::Control" xlink:title="X::Control">
<ellipse fill="none" stroke="#6666ff" cx="390.745" cy="-90" rx="50.0912" ry="18"/>
<text text-anchor="middle" x="390.745" y="-86.3" font-family="FreeSans" font-size="14.00" fill="#6666ff">X::Control</text>
</a>
</g>
</g>
<!-- Exception -->
<g id="node4" class="node"><title>Exception</title>
<g id="a_node4"><a xlink:href="/type/Exception" xlink:title="Exception">
<ellipse fill="none" stroke="#000000" cx="429.745" cy="-162" rx="49.2915" ry="18"/>
<text text-anchor="middle" x="429.745" y="-158.3" font-family="FreeSans" font-size="14.00" fill="#000000">Exception</text>
</a>
</g>
</g>
<!-- X::Control&#45;&gt;Exception -->
<g id="edge1" class="edge"><title>X::Control&#45;&gt;Exception</title>
<path fill="none" stroke="#000000" d="M400.185,-107.945C404.784,-116.199 410.411,-126.299 415.516,-135.462"/>
<polygon fill="#000000" stroke="#000000" points="412.466,-137.179 420.391,-144.211 418.581,-133.772 412.466,-137.179"/>
</g>
<!-- Mu -->
<g id="node2" class="node"><title>Mu</title>
<g id="a_node2"><a xlink:href="/type/Mu" xlink:title="Mu">
<ellipse fill="none" stroke="#000000" cx="429.745" cy="-306" rx="27" ry="18"/>
<text text-anchor="middle" x="429.745" y="-302.3" font-family="FreeSans" font-size="14.00" fill="#000000">Mu</text>
</a>
</g>
</g>
<!-- Any -->
<g id="node3" class="node"><title>Any</title>
<g id="a_node3"><a xlink:href="/type/Any" xlink:title="Any">
<ellipse fill="none" stroke="#000000" cx="429.745" cy="-234" rx="27" ry="18"/>
<text text-anchor="middle" x="429.745" y="-230.3" font-family="FreeSans" font-size="14.00" fill="#000000">Any</text>
</a>
</g>
</g>
<!-- Any&#45;&gt;Mu -->
<g id="edge2" class="edge"><title>Any&#45;&gt;Mu</title>
<path fill="none" stroke="#000000" d="M429.745,-252.303C429.745,-260.017 429.745,-269.288 429.745,-277.888"/>
<polygon fill="#000000" stroke="#000000" points="426.245,-277.896 429.745,-287.896 433.245,-277.896 426.245,-277.896"/>
</g>
<!-- Exception&#45;&gt;Any -->
<g id="edge3" class="edge"><title>Exception&#45;&gt;Any</title>
<path fill="none" stroke="#000000" d="M429.745,-180.303C429.745,-188.017 429.745,-197.288 429.745,-205.888"/>
<polygon fill="#000000" stroke="#000000" points="426.245,-205.896 429.745,-215.896 433.245,-205.896 426.245,-205.896"/>
</g>
<!-- CX::Succeed -->
<g id="node5" class="node"><title>CX::Succeed</title>
<g id="a_node5"><a xlink:href="/type/CX::Succeed" xlink:title="CX::Succeed">
<ellipse fill="none" stroke="#000000" cx="61.7445" cy="-18" rx="61.99" ry="18"/>
<text text-anchor="middle" x="61.7445" y="-14.3" font-family="FreeSans" font-size="14.00" fill="#000000">CX::Succeed</text>
</a>
</g>
</g>
<!-- CX::Succeed&#45;&gt;X::Control -->
<g id="edge11" class="edge"><title>CX::Succeed&#45;&gt;X::Control</title>
<path fill="none" stroke="#6666ff" d="M107.654,-30.1496C120.849,-33.3539 131.745,-36 131.745,-36 131.745,-36 262.76,-62.81 338.426,-78.2938"/>
<polygon fill="#6666ff" stroke="#6666ff" points="337.767,-81.7316 348.266,-80.3075 339.171,-74.8737 337.767,-81.7316"/>
</g>
<!-- CX::Succeed&#45;&gt;Exception -->
<g id="edge4" class="edge"><title>CX::Succeed&#45;&gt;Exception</title>
<path fill="none" stroke="#000000" d="M94.36,-33.2994C151.743,-58.4576 264.745,-108 264.745,-108 264.745,-108 335.35,-130.679 384.188,-146.367"/>
<polygon fill="#000000" stroke="#000000" points="383.351,-149.774 393.942,-149.5 385.491,-143.109 383.351,-149.774"/>
</g>
<!-- CX::Redo -->
<g id="node6" class="node"><title>CX::Redo</title>
<g id="a_node6"><a xlink:href="/type/CX::Redo" xlink:title="CX::Redo">
<ellipse fill="none" stroke="#000000" cx="189.745" cy="-18" rx="48.9926" ry="18"/>
<text text-anchor="middle" x="189.745" y="-14.3" font-family="FreeSans" font-size="14.00" fill="#000000">CX::Redo</text>
</a>
</g>
</g>
<!-- CX::Redo&#45;&gt;X::Control -->
<g id="edge12" class="edge"><title>CX::Redo&#45;&gt;X::Control</title>
<path fill="none" stroke="#6666ff" d="M223.841,-30.8745C257.668,-42.655 309.661,-60.7619 346.619,-73.6329"/>
<polygon fill="#6666ff" stroke="#6666ff" points="345.548,-76.9661 356.143,-76.9498 347.851,-70.3556 345.548,-76.9661"/>
</g>
<!-- CX::Redo&#45;&gt;Exception -->
<g id="edge5" class="edge"><title>CX::Redo&#45;&gt;Exception</title>
<path fill="none" stroke="#000000" d="M211.577,-34.2996C247.888,-59.7461 316.745,-108 316.745,-108 316.745,-108 358.51,-127.589 391.259,-142.949"/>
<polygon fill="#000000" stroke="#000000" points="390.104,-146.274 400.644,-147.351 393.077,-139.936 390.104,-146.274"/>
</g>
<!-- CX::Last -->
<g id="node7" class="node"><title>CX::Last</title>
<g id="a_node7"><a xlink:href="/type/CX::Last" xlink:title="CX::Last">
<ellipse fill="none" stroke="#000000" cx="301.745" cy="-18" rx="44.6926" ry="18"/>
<text text-anchor="middle" x="301.745" y="-14.3" font-family="FreeSans" font-size="14.00" fill="#000000">CX::Last</text>
</a>
</g>
</g>
<!-- CX::Last&#45;&gt;X::Control -->
<g id="edge13" class="edge"><title>CX::Last&#45;&gt;X::Control</title>
<path fill="none" stroke="#6666ff" d="M321.497,-34.5353C333.626,-44.075 349.351,-56.4435 362.751,-66.9823"/>
<polygon fill="#6666ff" stroke="#6666ff" points="360.716,-69.835 370.74,-73.2661 365.044,-64.3329 360.716,-69.835"/>
</g>
<!-- CX::Last&#45;&gt;Exception -->
<g id="edge6" class="edge"><title>CX::Last&#45;&gt;Exception</title>
<path fill="none" stroke="#000000" d="M307.529,-36.1601C316.246,-62.0225 331.745,-108 331.745,-108 331.745,-108 366.314,-126.696 394.389,-141.879"/>
<polygon fill="#000000" stroke="#000000" points="392.763,-144.979 403.224,-146.657 396.093,-138.822 392.763,-144.979"/>
</g>
<!-- CX::Take -->
<g id="node8" class="node"><title>CX::Take</title>
<g id="a_node8"><a xlink:href="/type/CX::Take" xlink:title="CX::Take">
<ellipse fill="none" stroke="#000000" cx="412.745" cy="-18" rx="48.1917" ry="18"/>
<text text-anchor="middle" x="412.745" y="-14.3" font-family="FreeSans" font-size="14.00" fill="#000000">CX::Take</text>
</a>
</g>
</g>
<!-- CX::Take&#45;&gt;X::Control -->
<g id="edge14" class="edge"><title>CX::Take&#45;&gt;X::Control</title>
<path fill="none" stroke="#6666ff" d="M407.419,-35.945C404.969,-43.7391 402.003,-53.1781 399.255,-61.9211"/>
<polygon fill="#6666ff" stroke="#6666ff" points="395.833,-61.1353 396.174,-71.7247 402.511,-63.2342 395.833,-61.1353"/>
</g>
<!-- CX::Take&#45;&gt;Exception -->
<g id="edge7" class="edge"><title>CX::Take&#45;&gt;Exception</title>
<path fill="none" stroke="#000000" d="M424.249,-35.479C435.11,-51.0373 449.745,-72 449.745,-72 449.745,-72 449.745,-108 449.745,-108 449.745,-108 444.749,-121.239 439.751,-134.483"/>
<polygon fill="#000000" stroke="#000000" points="436.439,-133.347 436.183,-143.939 442.988,-135.818 436.439,-133.347"/>
</g>
<!-- CX::Next -->
<g id="node9" class="node"><title>CX::Next</title>
<g id="a_node9"><a xlink:href="/type/CX::Next" xlink:title="CX::Next">
<ellipse fill="none" stroke="#000000" cx="524.745" cy="-18" rx="46.2923" ry="18"/>
<text text-anchor="middle" x="524.745" y="-14.3" font-family="FreeSans" font-size="14.00" fill="#000000">CX::Next</text>
</a>
</g>
</g>
<!-- CX::Next&#45;&gt;X::Control -->
<g id="edge15" class="edge"><title>CX::Next&#45;&gt;X::Control</title>
<path fill="none" stroke="#6666ff" d="M498.27,-32.8297C477.891,-43.4756 449.5,-58.3071 427.008,-70.0565"/>
<polygon fill="#6666ff" stroke="#6666ff" points="425.327,-66.9859 418.084,-74.7184 428.568,-73.1904 425.327,-66.9859"/>
</g>
<!-- CX::Next&#45;&gt;Exception -->
<g id="edge8" class="edge"><title>CX::Next&#45;&gt;Exception</title>
<path fill="none" stroke="#000000" d="M513.661,-35.5671C497.16,-60.2313 466.007,-106.797 446.651,-135.729"/>
<polygon fill="#000000" stroke="#000000" points="443.704,-133.841 441.052,-144.098 449.522,-137.733 443.704,-133.841"/>
</g>
<!-- CX::Warn -->
<g id="node10" class="node"><title>CX::Warn</title>
<g id="a_node10"><a xlink:href="/type/CX::Warn" xlink:title="CX::Warn">
<ellipse fill="none" stroke="#000000" cx="638.745" cy="-18" rx="49.2915" ry="18"/>
<text text-anchor="middle" x="638.745" y="-14.3" font-family="FreeSans" font-size="14.00" fill="#000000">CX::Warn</text>
</a>
</g>
</g>
<!-- CX::Warn&#45;&gt;X::Control -->
<g id="edge16" class="edge"><title>CX::Warn&#45;&gt;X::Control</title>
<path fill="none" stroke="#6666ff" d="M601.045,-29.8626C589.482,-33.1943 579.745,-36 579.745,-36 579.745,-36 494.733,-59.8393 438.739,-75.5413"/>
<polygon fill="#6666ff" stroke="#6666ff" points="437.675,-72.2045 428.991,-78.2747 439.565,-78.9445 437.675,-72.2045"/>
</g>
<!-- CX::Warn&#45;&gt;Exception -->
<g id="edge9" class="edge"><title>CX::Warn&#45;&gt;Exception</title>
<path fill="none" stroke="#000000" d="M616.378,-34.1965C578.744,-59.7659 502.717,-111.42 460.23,-140.287"/>
<polygon fill="#000000" stroke="#000000" points="458.255,-137.398 451.95,-145.913 462.189,-143.188 458.255,-137.398"/>
</g>
<!-- CX::Proceed -->
<g id="node11" class="node"><title>CX::Proceed</title>
<g id="a_node11"><a xlink:href="/type/CX::Proceed" xlink:title="CX::Proceed">
<ellipse fill="none" stroke="#000000" cx="766.745" cy="-18" rx="60.3893" ry="18"/>
<text text-anchor="middle" x="766.745" y="-14.3" font-family="FreeSans" font-size="14.00" fill="#000000">CX::Proceed</text>
</a>
</g>
</g>
<!-- CX::Proceed&#45;&gt;X::Control -->
<g id="edge17" class="edge"><title>CX::Proceed&#45;&gt;X::Control</title>
<path fill="none" stroke="#6666ff" d="M721.227,-30.0542C707.857,-33.3012 696.745,-36 696.745,-36 696.745,-36 532.886,-64.3807 444.982,-79.6059"/>
<polygon fill="#6666ff" stroke="#6666ff" points="444.169,-76.1946 434.913,-81.3499 445.363,-83.0919 444.169,-76.1946"/>
</g>
<!-- CX::Proceed&#45;&gt;Exception -->
<g id="edge10" class="edge"><title>CX::Proceed&#45;&gt;Exception</title>
<path fill="none" stroke="#000000" d="M733.2,-33.1346C670.838,-59.4116 537.304,-115.678 470.114,-143.99"/>
<polygon fill="#000000" stroke="#000000" points="468.555,-140.848 460.699,-147.957 471.273,-147.299 468.555,-140.848"/>
</g>
</g>
</svg>
