<?xml version="1.0" encoding="UTF-8" standalone="no"?>
<!DOCTYPE svg PUBLIC "-//W3C//DTD SVG 1.1//EN"
 "http://www.w3.org/Graphics/SVG/1.1/DTD/svg11.dtd">
<!-- Generated by graphviz version 2.38.0 (20140413.2041)
 -->
<!-- Title: perl6&#45;type&#45;graph Pages: 1 -->
<svg width="1819pt" height="404pt"
 viewBox="0.00 0.00 1819.44 404.00" xmlns="http://www.w3.org/2000/svg" xmlns:xlink="http://www.w3.org/1999/xlink">
<g id="graph0" class="graph" transform="scale(1 1) rotate(0) translate(4 400)">
<title>perl6&#45;type&#45;graph</title>
<polygon fill="white" stroke="none" points="-4,4 -4,-400 1815.44,-400 1815.44,4 -4,4"/>
<!-- X::IO -->
<g id="node1" class="node"><title>X::IO</title>
<g id="a_node1"><a xlink:href="/type/X::IO" xlink:title="X::IO">
<ellipse fill="none" stroke="#6666ff" cx="909.594" cy="-90" rx="31.3957" ry="18"/>
<text text-anchor="middle" x="909.594" y="-86.3" font-family="FreeSans" font-size="14.00" fill="#6666ff">X::IO</text>
</a>
</g>
</g>
<!-- Exception -->
<g id="node4" class="node"><title>Exception</title>
<g id="a_node4"><a xlink:href="/type/Exception" xlink:title="Exception">
<ellipse fill="none" stroke="#000000" cx="977.594" cy="-234" rx="49.2915" ry="18"/>
<text text-anchor="middle" x="977.594" y="-230.3" font-family="FreeSans" font-size="14.00" fill="#000000">Exception</text>
</a>
</g>
</g>
<!-- X::IO&#45;&gt;Exception -->
<g id="edge1" class="edge"><title>X::IO&#45;&gt;Exception</title>
<path fill="none" stroke="#000000" d="M917.528,-107.567C929.237,-132.019 951.254,-177.996 965.132,-206.977"/>
<polygon fill="#000000" stroke="#000000" points="962.024,-208.591 969.5,-216.098 968.338,-205.567 962.024,-208.591"/>
</g>
<!-- X::OS -->
<g id="node5" class="node"><title>X::OS</title>
<g id="a_node5"><a xlink:href="/type/X::OS" xlink:title="X::OS">
<ellipse fill="none" stroke="#6666ff" cx="868.594" cy="-162" rx="34.394" ry="18"/>
<text text-anchor="middle" x="868.594" y="-158.3" font-family="FreeSans" font-size="14.00" fill="#6666ff">X::OS</text>
</a>
</g>
</g>
<!-- X::IO&#45;&gt;X::OS -->
<g id="edge33" class="edge"><title>X::IO&#45;&gt;X::OS</title>
<path fill="none" stroke="#6666ff" d="M900.085,-107.235C895.137,-115.683 888.976,-126.201 883.42,-135.688"/>
<polygon fill="#6666ff" stroke="#6666ff" points="880.37,-133.969 878.336,-144.367 886.411,-137.507 880.37,-133.969"/>
</g>
<!-- Mu -->
<g id="node2" class="node"><title>Mu</title>
<g id="a_node2"><a xlink:href="/type/Mu" xlink:title="Mu">
<ellipse fill="none" stroke="#000000" cx="977.594" cy="-378" rx="27" ry="18"/>
<text text-anchor="middle" x="977.594" y="-374.3" font-family="FreeSans" font-size="14.00" fill="#000000">Mu</text>
</a>
</g>
</g>
<!-- Any -->
<g id="node3" class="node"><title>Any</title>
<g id="a_node3"><a xlink:href="/type/Any" xlink:title="Any">
<ellipse fill="none" stroke="#000000" cx="977.594" cy="-306" rx="27" ry="18"/>
<text text-anchor="middle" x="977.594" y="-302.3" font-family="FreeSans" font-size="14.00" fill="#000000">Any</text>
</a>
</g>
</g>
<!-- Any&#45;&gt;Mu -->
<g id="edge2" class="edge"><title>Any&#45;&gt;Mu</title>
<path fill="none" stroke="#000000" d="M977.594,-324.303C977.594,-332.017 977.594,-341.288 977.594,-349.888"/>
<polygon fill="#000000" stroke="#000000" points="974.094,-349.896 977.594,-359.896 981.094,-349.896 974.094,-349.896"/>
</g>
<!-- Exception&#45;&gt;Any -->
<g id="edge3" class="edge"><title>Exception&#45;&gt;Any</title>
<path fill="none" stroke="#000000" d="M977.594,-252.303C977.594,-260.017 977.594,-269.288 977.594,-277.888"/>
<polygon fill="#000000" stroke="#000000" points="974.094,-277.896 977.594,-287.896 981.094,-277.896 974.094,-277.896"/>
</g>
<!-- X::OS&#45;&gt;Exception -->
<g id="edge4" class="edge"><title>X::OS&#45;&gt;Exception</title>
<path fill="none" stroke="#000000" d="M889.61,-176.497C905.559,-186.739 927.755,-200.993 945.862,-212.622"/>
<polygon fill="#000000" stroke="#000000" points="944.072,-215.632 954.378,-218.091 947.855,-209.742 944.072,-215.632"/>
</g>
<!-- X::IO::Symlink -->
<g id="node6" class="node"><title>X::IO::Symlink</title>
<g id="a_node6"><a xlink:href="/type/X::IO::Symlink" xlink:title="X::IO::Symlink">
<ellipse fill="none" stroke="#000000" cx="67.594" cy="-18" rx="67.6881" ry="18"/>
<text text-anchor="middle" x="67.594" y="-14.3" font-family="FreeSans" font-size="14.00" fill="#000000">X::IO::Symlink</text>
</a>
</g>
</g>
<!-- X::IO::Symlink&#45;&gt;X::IO -->
<g id="edge34" class="edge"><title>X::IO::Symlink&#45;&gt;X::IO</title>
<path fill="none" stroke="#6666ff" d="M118.095,-30.1496C132.609,-33.3539 144.594,-36 144.594,-36 144.594,-36 709.29,-75.1227 868.348,-86.1424"/>
<polygon fill="#6666ff" stroke="#6666ff" points="868.44,-89.6571 878.658,-86.8567 868.923,-82.6738 868.44,-89.6571"/>
</g>
<!-- X::IO::Symlink&#45;&gt;Exception -->
<g id="edge5" class="edge"><title>X::IO::Symlink&#45;&gt;Exception</title>
<path fill="none" stroke="#000000" d="M105.246,-33.1466C216.24,-72.4335 533.594,-180 533.594,-180 533.594,-180 800.83,-212.56 920.719,-226.639"/>
<polygon fill="#000000" stroke="#000000" points="920.477,-230.134 930.816,-227.822 921.291,-223.182 920.477,-230.134"/>
</g>
<!-- X::IO::Symlink&#45;&gt;Exception -->
<g id="edge6" class="edge"><title>X::IO::Symlink&#45;&gt;Exception</title>
<path fill="none" stroke="#000000" d="M110.006,-32.0389C228.144,-70.3675 551.594,-180 551.594,-180 551.594,-180 806.165,-211.017 921.786,-225.595"/>
<polygon fill="#000000" stroke="#000000" points="921.504,-229.087 931.864,-226.868 922.382,-222.142 921.504,-229.087"/>
</g>
<!-- X::IO::Chmod -->
<g id="node7" class="node"><title>X::IO::Chmod</title>
<g id="a_node7"><a xlink:href="/type/X::IO::Chmod" xlink:title="X::IO::Chmod">
<ellipse fill="none" stroke="#000000" cx="217.594" cy="-18" rx="64.189" ry="18"/>
<text text-anchor="middle" x="217.594" y="-14.3" font-family="FreeSans" font-size="14.00" fill="#000000">X::IO::Chmod</text>
</a>
</g>
</g>
<!-- X::IO::Chmod&#45;&gt;X::IO -->
<g id="edge35" class="edge"><title>X::IO::Chmod&#45;&gt;X::IO</title>
<path fill="none" stroke="#6666ff" d="M265.472,-30.1496C279.231,-33.3539 290.594,-36 290.594,-36 290.594,-36 730.763,-73.6881 868.742,-85.5022"/>
<polygon fill="#6666ff" stroke="#6666ff" points="868.636,-89.0058 878.898,-86.3717 869.233,-82.0313 868.636,-89.0058"/>
</g>
<!-- X::IO::Chmod&#45;&gt;Exception -->
<g id="edge7" class="edge"><title>X::IO::Chmod&#45;&gt;Exception</title>
<path fill="none" stroke="#000000" d="M251.026,-33.4294C348.99,-72.947 627.594,-180 627.594,-180 627.594,-180 823.198,-210.402 922.025,-225.154"/>
<polygon fill="#000000" stroke="#000000" points="921.734,-228.649 932.14,-226.66 922.764,-221.726 921.734,-228.649"/>
</g>
<!-- X::IO::Chmod&#45;&gt;Exception -->
<g id="edge8" class="edge"><title>X::IO::Chmod&#45;&gt;Exception</title>
<path fill="none" stroke="#000000" d="M256.593,-32.4499C362.299,-71.1446 645.594,-180 645.594,-180 645.594,-180 830.253,-208.701 924.21,-223.861"/>
<polygon fill="#000000" stroke="#000000" points="923.675,-227.32 934.106,-225.463 924.794,-220.41 923.675,-227.32"/>
</g>
<!-- X::IO::Rename -->
<g id="node8" class="node"><title>X::IO::Rename</title>
<g id="a_node8"><a xlink:href="/type/X::IO::Rename" xlink:title="X::IO::Rename">
<ellipse fill="none" stroke="#000000" cx="369.594" cy="-18" rx="69.5877" ry="18"/>
<text text-anchor="middle" x="369.594" y="-14.3" font-family="FreeSans" font-size="14.00" fill="#000000">X::IO::Rename</text>
</a>
</g>
</g>
<!-- X::IO::Rename&#45;&gt;X::IO -->
<g id="edge36" class="edge"><title>X::IO::Rename&#45;&gt;X::IO</title>
<path fill="none" stroke="#6666ff" d="M421.407,-30.1496C436.297,-33.3539 448.594,-36 448.594,-36 448.594,-36 756.595,-71.4101 869.087,-84.3431"/>
<polygon fill="#6666ff" stroke="#6666ff" points="869.012,-87.8574 879.347,-85.5225 869.812,-80.9032 869.012,-87.8574"/>
</g>
<!-- X::IO::Rename&#45;&gt;Exception -->
<g id="edge9" class="edge"><title>X::IO::Rename&#45;&gt;Exception</title>
<path fill="none" stroke="#000000" d="M398.432,-34.4374C480.025,-74.7344 705.594,-180 705.594,-180 705.594,-180 845.211,-208.136 924.475,-223.408"/>
<polygon fill="#000000" stroke="#000000" points="923.818,-226.845 934.299,-225.293 925.138,-219.971 923.818,-226.845"/>
</g>
<!-- X::IO::Rename&#45;&gt;Exception -->
<g id="edge10" class="edge"><title>X::IO::Rename&#45;&gt;Exception</title>
<path fill="none" stroke="#000000" d="M404.957,-33.5716C494.744,-73.2032 723.594,-180 723.594,-180 723.594,-180 852.631,-206.004 926.843,-221.582"/>
<polygon fill="#000000" stroke="#000000" points="926.425,-225.071 936.932,-223.707 927.868,-218.221 926.425,-225.071"/>
</g>
<!-- X::IO::Mkdir -->
<g id="node9" class="node"><title>X::IO::Mkdir</title>
<g id="a_node9"><a xlink:href="/type/X::IO::Mkdir" xlink:title="X::IO::Mkdir">
<ellipse fill="none" stroke="#000000" cx="515.594" cy="-18" rx="58.4896" ry="18"/>
<text text-anchor="middle" x="515.594" y="-14.3" font-family="FreeSans" font-size="14.00" fill="#000000">X::IO::Mkdir</text>
</a>
</g>
</g>
<!-- X::IO::Mkdir&#45;&gt;X::IO -->
<g id="edge37" class="edge"><title>X::IO::Mkdir&#45;&gt;X::IO</title>
<path fill="none" stroke="#6666ff" d="M559.428,-29.9586C572.586,-33.248 583.594,-36 583.594,-36 583.594,-36 782.798,-68.3859 869.77,-82.5256"/>
<polygon fill="#6666ff" stroke="#6666ff" points="869.367,-86.006 879.799,-84.1561 870.491,-79.0967 869.367,-86.006"/>
</g>
<!-- X::IO::Mkdir&#45;&gt;Exception -->
<g id="edge11" class="edge"><title>X::IO::Mkdir&#45;&gt;Exception</title>
<path fill="none" stroke="#000000" d="M536.965,-35.0259C597.533,-75.749 764.594,-180 764.594,-180 764.594,-180 863.723,-205.754 926.827,-221.357"/>
<polygon fill="#000000" stroke="#000000" points="926.078,-224.777 936.624,-223.768 927.751,-217.98 926.078,-224.777"/>
</g>
<!-- X::IO::Mkdir&#45;&gt;Exception -->
<g id="edge12" class="edge"><title>X::IO::Mkdir&#45;&gt;Exception</title>
<path fill="none" stroke="#000000" d="M543.576,-33.8579C612.274,-73.7148 782.594,-180 782.594,-180 782.594,-180 873.221,-203.545 931,-219.249"/>
<polygon fill="#000000" stroke="#000000" points="930.106,-222.633 940.674,-221.889 931.949,-215.88 930.106,-222.633"/>
</g>
<!-- X::IO::Chdir -->
<g id="node10" class="node"><title>X::IO::Chdir</title>
<g id="a_node10"><a xlink:href="/type/X::IO::Chdir" xlink:title="X::IO::Chdir">
<ellipse fill="none" stroke="#000000" cx="649.594" cy="-18" rx="57.3905" ry="18"/>
<text text-anchor="middle" x="649.594" y="-14.3" font-family="FreeSans" font-size="14.00" fill="#000000">X::IO::Chdir</text>
</a>
</g>
</g>
<!-- X::IO::Chdir&#45;&gt;X::IO -->
<g id="edge38" class="edge"><title>X::IO::Chdir&#45;&gt;X::IO</title>
<path fill="none" stroke="#6666ff" d="M691.656,-30.3245C741.6,-43.7709 824.143,-65.9938 872.026,-78.8857"/>
<polygon fill="#6666ff" stroke="#6666ff" points="871.414,-82.3455 881.981,-81.5656 873.234,-75.5861 871.414,-82.3455"/>
</g>
<!-- X::IO::Chdir&#45;&gt;Exception -->
<g id="edge13" class="edge"><title>X::IO::Chdir&#45;&gt;Exception</title>
<path fill="none" stroke="#000000" d="M662.045,-35.6234C699.07,-76.7587 803.594,-180 803.594,-180 803.594,-180 878.008,-203.903 929.615,-219.604"/>
<polygon fill="#000000" stroke="#000000" points="928.698,-222.983 939.283,-222.529 930.725,-216.283 928.698,-222.983"/>
</g>
<!-- X::IO::Chdir&#45;&gt;Exception -->
<g id="edge14" class="edge"><title>X::IO::Chdir&#45;&gt;Exception</title>
<path fill="none" stroke="#000000" d="M670.13,-35.0259C716.048,-75.749 821.594,-180 821.594,-180 821.594,-180 888.798,-201.587 935.088,-217.207"/>
<polygon fill="#000000" stroke="#000000" points="934.022,-220.541 944.616,-220.44 936.271,-213.912 934.022,-220.541"/>
</g>
<!-- X::IO::Copy -->
<g id="node11" class="node"><title>X::IO::Copy</title>
<g id="a_node11"><a xlink:href="/type/X::IO::Copy" xlink:title="X::IO::Copy">
<ellipse fill="none" stroke="#000000" cx="781.594" cy="-18" rx="56.59" ry="18"/>
<text text-anchor="middle" x="781.594" y="-14.3" font-family="FreeSans" font-size="14.00" fill="#000000">X::IO::Copy</text>
</a>
</g>
</g>
<!-- X::IO::Copy&#45;&gt;X::IO -->
<g id="edge39" class="edge"><title>X::IO::Copy&#45;&gt;X::IO</title>
<path fill="none" stroke="#6666ff" d="M808.74,-33.8452C829.196,-45.0321 857.272,-60.3863 878.607,-72.0543"/>
<polygon fill="#6666ff" stroke="#6666ff" points="877.137,-75.2392 887.59,-76.9666 880.496,-69.0976 877.137,-75.2392"/>
</g>
<!-- X::IO::Copy&#45;&gt;Exception -->
<g id="edge15" class="edge"><title>X::IO::Copy&#45;&gt;Exception</title>
<path fill="none" stroke="#000000" d="M781.857,-36.2298C788.654,-77.7634 816.594,-180 816.594,-180 816.594,-180 883.099,-203.189 930.732,-218.89"/>
<polygon fill="#000000" stroke="#000000" points="929.688,-222.231 940.28,-222.018 931.867,-215.579 929.688,-222.231"/>
</g>
<!-- X::IO::Copy&#45;&gt;Exception -->
<g id="edge16" class="edge"><title>X::IO::Copy&#45;&gt;Exception</title>
<path fill="none" stroke="#000000" d="M790.632,-35.9255C806.516,-77.2617 834.594,-180 834.594,-180 834.594,-180 894.339,-200.832 936.698,-216.375"/>
<polygon fill="#000000" stroke="#000000" points="935.65,-219.719 946.243,-219.899 938.074,-213.152 935.65,-219.719"/>
</g>
<!-- X::IO::Link -->
<g id="node12" class="node"><title>X::IO::Link</title>
<g id="a_node12"><a xlink:href="/type/X::IO::Link" xlink:title="X::IO::Link">
<ellipse fill="none" stroke="#000000" cx="909.594" cy="-18" rx="53.0913" ry="18"/>
<text text-anchor="middle" x="909.594" y="-14.3" font-family="FreeSans" font-size="14.00" fill="#000000">X::IO::Link</text>
</a>
</g>
</g>
<!-- X::IO::Link&#45;&gt;X::IO -->
<g id="edge40" class="edge"><title>X::IO::Link&#45;&gt;X::IO</title>
<path fill="none" stroke="#6666ff" d="M909.594,-36.3034C909.594,-44.0173 909.594,-53.2875 909.594,-61.8876"/>
<polygon fill="#6666ff" stroke="#6666ff" points="906.094,-61.8956 909.594,-71.8957 913.094,-61.8957 906.094,-61.8956"/>
</g>
<!-- X::IO::Link&#45;&gt;Exception -->
<g id="edge17" class="edge"><title>X::IO::Link&#45;&gt;Exception</title>
<path fill="none" stroke="#000000" d="M915.627,-36.0613C925.164,-51.5549 940.594,-72 940.594,-72 940.594,-72 955.972,-160.426 967.599,-206.213"/>
<polygon fill="#000000" stroke="#000000" points="964.272,-207.319 970.238,-216.074 971.034,-205.51 964.272,-207.319"/>
</g>
<!-- X::IO::Link&#45;&gt;Exception -->
<g id="edge18" class="edge"><title>X::IO::Link&#45;&gt;Exception</title>
<path fill="none" stroke="#000000" d="M928.272,-34.9017C942.378,-50.5132 958.594,-72 958.594,-72 958.594,-72 973.833,-159.624 978.213,-205.586"/>
<polygon fill="#000000" stroke="#000000" points="974.742,-206.088 979.043,-215.77 981.719,-205.519 974.742,-206.088"/>
</g>
<!-- X::IO::Cwd -->
<g id="node13" class="node"><title>X::IO::Cwd</title>
<g id="a_node13"><a xlink:href="/type/X::IO::Cwd" xlink:title="X::IO::Cwd">
<ellipse fill="none" stroke="#000000" cx="1034.59" cy="-18" rx="53.8905" ry="18"/>
<text text-anchor="middle" x="1034.59" y="-14.3" font-family="FreeSans" font-size="14.00" fill="#000000">X::IO::Cwd</text>
</a>
</g>
</g>
<!-- X::IO::Cwd&#45;&gt;X::IO -->
<g id="edge41" class="edge"><title>X::IO::Cwd&#45;&gt;X::IO</title>
<path fill="none" stroke="#6666ff" d="M1008.08,-33.8452C988.233,-44.9622 961.032,-60.1946 940.246,-71.8351"/>
<polygon fill="#6666ff" stroke="#6666ff" points="938.498,-68.802 931.484,-76.7419 941.919,-74.9096 938.498,-68.802"/>
</g>
<!-- X::IO::Cwd&#45;&gt;Exception -->
<g id="edge19" class="edge"><title>X::IO::Cwd&#45;&gt;Exception</title>
<path fill="none" stroke="#000000" d="M1026.61,-35.9255C1013.29,-77.2617 991.594,-180 991.594,-180 991.594,-180 985.96,-192.983 981.36,-206.097"/>
<polygon fill="#000000" stroke="#000000" points="977.924,-205.346 978.154,-215.939 984.579,-207.514 977.924,-205.346"/>
</g>
<!-- X::IO::Cwd&#45;&gt;Exception -->
<g id="edge20" class="edge"><title>X::IO::Cwd&#45;&gt;Exception</title>
<path fill="none" stroke="#000000" d="M1035.4,-36.2298C1031.18,-77.7634 1009.59,-180 1009.59,-180 1009.59,-180 1003.59,-193.839 996.514,-207.373"/>
<polygon fill="#000000" stroke="#000000" points="993.238,-206.069 991.507,-216.521 999.379,-209.43 993.238,-206.069"/>
</g>
<!-- X::IO::DoesNotExist -->
<g id="node14" class="node"><title>X::IO::DoesNotExist</title>
<g id="a_node14"><a xlink:href="/type/X::IO::DoesNotExist" xlink:title="X::IO::DoesNotExist">
<ellipse fill="none" stroke="#000000" cx="1196.59" cy="-18" rx="89.8845" ry="18"/>
<text text-anchor="middle" x="1196.59" y="-14.3" font-family="FreeSans" font-size="14.00" fill="#000000">X::IO::DoesNotExist</text>
</a>
</g>
</g>
<!-- X::IO::DoesNotExist&#45;&gt;X::IO -->
<g id="edge42" class="edge"><title>X::IO::DoesNotExist&#45;&gt;X::IO</title>
<path fill="none" stroke="#6666ff" d="M1141.94,-32.3312C1085.03,-46.2107 997.394,-67.5855 947.605,-79.7291"/>
<polygon fill="#6666ff" stroke="#6666ff" points="946.761,-76.3321 937.875,-82.1021 948.42,-83.1328 946.761,-76.3321"/>
</g>
<!-- X::IO::DoesNotExist&#45;&gt;Exception -->
<g id="edge21" class="edge"><title>X::IO::DoesNotExist&#45;&gt;Exception</title>
<path fill="none" stroke="#000000" d="M1175.57,-35.7922C1133.18,-73.6234 1038.85,-165.615 997.452,-209.263"/>
<polygon fill="#000000" stroke="#000000" points="994.878,-206.891 990.591,-216.58 999.984,-211.679 994.878,-206.891"/>
</g>
<!-- X::IO::DoesNotExist&#45;&gt;Exception -->
<g id="edge22" class="edge"><title>X::IO::DoesNotExist&#45;&gt;Exception</title>
<path fill="none" stroke="#000000" d="M1182.92,-36.1508C1147.27,-74.5772 1052.26,-167.564 1004.92,-210.537"/>
<polygon fill="#000000" stroke="#000000" points="1002.57,-207.942 997.473,-217.231 1007.25,-213.147 1002.57,-207.942"/>
</g>
<!-- X::IO::Unlink -->
<g id="node15" class="node"><title>X::IO::Unlink</title>
<g id="a_node15"><a xlink:href="/type/X::IO::Unlink" xlink:title="X::IO::Unlink">
<ellipse fill="none" stroke="#000000" cx="1365.59" cy="-18" rx="61.1893" ry="18"/>
<text text-anchor="middle" x="1365.59" y="-14.3" font-family="FreeSans" font-size="14.00" fill="#000000">X::IO::Unlink</text>
</a>
</g>
</g>
<!-- X::IO::Unlink&#45;&gt;X::IO -->
<g id="edge43" class="edge"><title>X::IO::Unlink&#45;&gt;X::IO</title>
<path fill="none" stroke="#6666ff" d="M1320.08,-30.0542C1306.71,-33.3012 1295.59,-36 1295.59,-36 1295.59,-36 1048.58,-69.9161 949.755,-83.4856"/>
<polygon fill="#6666ff" stroke="#6666ff" points="948.992,-80.0574 939.562,-84.8853 949.945,-86.9924 948.992,-80.0574"/>
</g>
<!-- X::IO::Unlink&#45;&gt;Exception -->
<g id="edge23" class="edge"><title>X::IO::Unlink&#45;&gt;Exception</title>
<path fill="none" stroke="#000000" d="M1334.84,-33.7145C1258.16,-73.4592 1065.59,-180 1065.59,-180 1065.59,-180 1033.35,-197.618 1007.77,-212.538"/>
<polygon fill="#000000" stroke="#000000" points="1005.9,-209.577 999.06,-217.67 1009.45,-215.608 1005.9,-209.577"/>
</g>
<!-- X::IO::Unlink&#45;&gt;Exception -->
<g id="edge24" class="edge"><title>X::IO::Unlink&#45;&gt;Exception</title>
<path fill="none" stroke="#000000" d="M1341.44,-34.7305C1272.94,-75.2423 1083.59,-180 1083.59,-180 1083.59,-180 1047.42,-199.764 1017.21,-215.154"/>
<polygon fill="#000000" stroke="#000000" points="1015.42,-212.135 1008.07,-219.763 1018.57,-218.385 1015.42,-212.135"/>
</g>
<!-- X::IO::Dir -->
<g id="node16" class="node"><title>X::IO::Dir</title>
<g id="a_node16"><a xlink:href="/type/X::IO::Dir" xlink:title="X::IO::Dir">
<ellipse fill="none" stroke="#000000" cx="1492.59" cy="-18" rx="47.3916" ry="18"/>
<text text-anchor="middle" x="1492.59" y="-14.3" font-family="FreeSans" font-size="14.00" fill="#000000">X::IO::Dir</text>
</a>
</g>
</g>
<!-- X::IO::Dir&#45;&gt;X::IO -->
<g id="edge44" class="edge"><title>X::IO::Dir&#45;&gt;X::IO</title>
<path fill="none" stroke="#6666ff" d="M1456.5,-29.7664C1445.18,-33.1401 1435.59,-36 1435.59,-36 1435.59,-36 1073.81,-72.454 950.322,-84.8962"/>
<polygon fill="#6666ff" stroke="#6666ff" points="949.746,-81.4364 940.148,-85.9214 950.448,-88.4012 949.746,-81.4364"/>
</g>
<!-- X::IO::Dir&#45;&gt;Exception -->
<g id="edge25" class="edge"><title>X::IO::Dir&#45;&gt;Exception</title>
<path fill="none" stroke="#000000" d="M1460.54,-31.4994C1370.12,-69.3271 1120.59,-180 1120.59,-180 1120.59,-180 1060.85,-200.832 1018.49,-216.375"/>
<polygon fill="#000000" stroke="#000000" points="1017.11,-213.152 1008.94,-219.899 1019.54,-219.719 1017.11,-213.152"/>
</g>
<!-- X::IO::Dir&#45;&gt;Exception -->
<g id="edge26" class="edge"><title>X::IO::Dir&#45;&gt;Exception</title>
<path fill="none" stroke="#000000" d="M1465.38,-32.8661C1382.28,-71.9189 1138.59,-180 1138.59,-180 1138.59,-180 1072.09,-203.189 1024.46,-218.89"/>
<polygon fill="#000000" stroke="#000000" points="1023.32,-215.579 1014.91,-222.018 1025.5,-222.231 1023.32,-215.579"/>
</g>
<!-- X::IO::Rmdir -->
<g id="node17" class="node"><title>X::IO::Rmdir</title>
<g id="a_node17"><a xlink:href="/type/X::IO::Rmdir" xlink:title="X::IO::Rmdir">
<ellipse fill="none" stroke="#000000" cx="1617.59" cy="-18" rx="59.5901" ry="18"/>
<text text-anchor="middle" x="1617.59" y="-14.3" font-family="FreeSans" font-size="14.00" fill="#000000">X::IO::Rmdir</text>
</a>
</g>
</g>
<!-- X::IO::Rmdir&#45;&gt;X::IO -->
<g id="edge45" class="edge"><title>X::IO::Rmdir&#45;&gt;X::IO</title>
<path fill="none" stroke="#6666ff" d="M1572.73,-30.0542C1559.55,-33.3012 1548.59,-36 1548.59,-36 1548.59,-36 1091.23,-73.9344 950.382,-85.617"/>
<polygon fill="#6666ff" stroke="#6666ff" points="950.091,-82.129 940.414,-86.4437 950.669,-89.105 950.091,-82.129"/>
</g>
<!-- X::IO::Rmdir&#45;&gt;Exception -->
<g id="edge27" class="edge"><title>X::IO::Rmdir&#45;&gt;Exception</title>
<path fill="none" stroke="#000000" d="M1577.25,-31.3661C1467.43,-69.0662 1174.59,-180 1174.59,-180 1174.59,-180 1081.19,-203.026 1022.66,-218.724"/>
<polygon fill="#000000" stroke="#000000" points="1021.62,-215.38 1012.88,-221.369 1023.45,-222.137 1021.62,-215.38"/>
</g>
<!-- X::IO::Rmdir&#45;&gt;Exception -->
<g id="edge28" class="edge"><title>X::IO::Rmdir&#45;&gt;Exception</title>
<path fill="none" stroke="#000000" d="M1581.73,-32.588C1479.26,-71.403 1192.59,-180 1192.59,-180 1192.59,-180 1090.61,-205.141 1027.12,-220.792"/>
<polygon fill="#000000" stroke="#000000" points="1026.15,-217.425 1017.28,-223.217 1027.83,-224.222 1026.15,-217.425"/>
</g>
<!-- X::IO::Rmdir&#45;&gt;Exception -->
<g id="edge29" class="edge"><title>X::IO::Rmdir&#45;&gt;Exception</title>
<path fill="none" stroke="#000000" d="M1587.4,-33.5716C1492.51,-73.2032 1210.59,-180 1210.59,-180 1210.59,-180 1099.58,-207.366 1030.42,-222.769"/>
<polygon fill="#000000" stroke="#000000" points="1029.55,-219.377 1020.53,-224.95 1031.05,-226.213 1029.55,-219.377"/>
</g>
<!-- X::IO::Move -->
<g id="node18" class="node"><title>X::IO::Move</title>
<g id="a_node18"><a xlink:href="/type/X::IO::Move" xlink:title="X::IO::Move">
<ellipse fill="none" stroke="#000000" cx="1753.59" cy="-18" rx="57.6901" ry="18"/>
<text text-anchor="middle" x="1753.59" y="-14.3" font-family="FreeSans" font-size="14.00" fill="#000000">X::IO::Move</text>
</a>
</g>
</g>
<!-- X::IO::Move&#45;&gt;X::IO -->
<g id="edge46" class="edge"><title>X::IO::Move&#45;&gt;X::IO</title>
<path fill="none" stroke="#6666ff" d="M1710.03,-30.0542C1697.23,-33.3012 1686.59,-36 1686.59,-36 1686.59,-36 1111.76,-75.2097 950.95,-86.179"/>
<polygon fill="#6666ff" stroke="#6666ff" points="950.271,-82.7171 940.533,-86.8896 950.748,-89.7009 950.271,-82.7171"/>
</g>
<!-- X::IO::Move&#45;&gt;Exception -->
<g id="edge30" class="edge"><title>X::IO::Move&#45;&gt;Exception</title>
<path fill="none" stroke="#000000" d="M1711.8,-30.4497C1590.9,-67.2316 1252.59,-180 1252.59,-180 1252.59,-180 1108.05,-206.147 1028.24,-221.711"/>
<polygon fill="#000000" stroke="#000000" points="1027.51,-218.287 1018.37,-223.647 1028.86,-225.156 1027.51,-218.287"/>
</g>
<!-- X::IO::Move&#45;&gt;Exception -->
<g id="edge31" class="edge"><title>X::IO::Move&#45;&gt;Exception</title>
<path fill="none" stroke="#000000" d="M1715.69,-31.6334C1601.83,-69.5876 1270.59,-180 1270.59,-180 1270.59,-180 1115.22,-208.105 1030.76,-223.383"/>
<polygon fill="#000000" stroke="#000000" points="1030.04,-219.955 1020.83,-225.18 1031.29,-226.844 1030.04,-219.955"/>
</g>
<!-- X::IO::Move&#45;&gt;Exception -->
<g id="edge32" class="edge"><title>X::IO::Move&#45;&gt;Exception</title>
<path fill="none" stroke="#000000" d="M1720.1,-32.8661C1612.84,-71.9189 1288.59,-180 1288.59,-180 1288.59,-180 1122.37,-210.067 1032.63,-224.909"/>
<polygon fill="#000000" stroke="#000000" points="1031.91,-221.48 1022.61,-226.554 1033.05,-228.387 1031.91,-221.48"/>
</g>
</g>
</svg>
