<?xml version="1.0" encoding="UTF-8" standalone="no"?>
<!DOCTYPE svg PUBLIC "-//W3C//DTD SVG 1.1//EN"
 "http://www.w3.org/Graphics/SVG/1.1/DTD/svg11.dtd">
<!-- Generated by graphviz version 2.38.0 (20140413.2041)
 -->
<!-- Title: perl6&#45;type&#45;graph Pages: 1 -->
<svg width="94pt" height="188pt"
 viewBox="0.00 0.00 93.79 188.00" xmlns="http://www.w3.org/2000/svg" xmlns:xlink="http://www.w3.org/1999/xlink">
<g id="graph0" class="graph" transform="scale(1 1) rotate(0) translate(4 184)">
<title>perl6&#45;type&#45;graph</title>
<polygon fill="white" stroke="none" points="-4,4 -4,-184 89.7924,-184 89.7924,4 -4,4"/>
<!-- Promise -->
<g id="node1" class="node"><title>Promise</title>
<g id="a_node1"><a xlink:href="/type/Promise" xlink:title="Promise">
<ellipse fill="none" stroke="#000000" cx="42.8962" cy="-18" rx="42.7926" ry="18"/>
<text text-anchor="middle" x="42.8962" y="-14.3" font-family="FreeSans" font-size="14.00" fill="#000000">Promise</text>
</a>
</g>
</g>
<!-- Any -->
<g id="node3" class="node"><title>Any</title>
<g id="a_node3"><a xlink:href="/type/Any" xlink:title="Any">
<ellipse fill="none" stroke="#000000" cx="42.8962" cy="-90" rx="27" ry="18"/>
<text text-anchor="middle" x="42.8962" y="-86.3" font-family="FreeSans" font-size="14.00" fill="#000000">Any</text>
</a>
</g>
</g>
<!-- Promise&#45;&gt;Any -->
<g id="edge1" class="edge"><title>Promise&#45;&gt;Any</title>
<path fill="none" stroke="#000000" d="M42.8962,-36.3034C42.8962,-44.0173 42.8962,-53.2875 42.8962,-61.8876"/>
<polygon fill="#000000" stroke="#000000" points="39.3963,-61.8956 42.8962,-71.8957 46.3963,-61.8957 39.3963,-61.8956"/>
</g>
<!-- Mu -->
<g id="node2" class="node"><title>Mu</title>
<g id="a_node2"><a xlink:href="/type/Mu" xlink:title="Mu">
<ellipse fill="none" stroke="#000000" cx="42.8962" cy="-162" rx="27" ry="18"/>
<text text-anchor="middle" x="42.8962" y="-158.3" font-family="FreeSans" font-size="14.00" fill="#000000">Mu</text>
</a>
</g>
</g>
<!-- Any&#45;&gt;Mu -->
<g id="edge2" class="edge"><title>Any&#45;&gt;Mu</title>
<path fill="none" stroke="#000000" d="M42.8962,-108.303C42.8962,-116.017 42.8962,-125.288 42.8962,-133.888"/>
<polygon fill="#000000" stroke="#000000" points="39.3963,-133.896 42.8962,-143.896 46.3963,-133.896 39.3963,-133.896"/>
</g>
</g>
</svg>
