<?xml version="1.0" encoding="UTF-8" standalone="no"?>
<!DOCTYPE svg PUBLIC "-//W3C//DTD SVG 1.1//EN"
 "http://www.w3.org/Graphics/SVG/1.1/DTD/svg11.dtd">
<!-- Generated by graphviz version 2.38.0 (20140413.2041)
 -->
<!-- Title: perl6&#45;type&#45;graph Pages: 1 -->
<svg width="1391pt" height="332pt"
 viewBox="0.00 0.00 1391.29 332.00" xmlns="http://www.w3.org/2000/svg" xmlns:xlink="http://www.w3.org/1999/xlink">
<g id="graph0" class="graph" transform="scale(1 1) rotate(0) translate(4 328)">
<title>perl6&#45;type&#45;graph</title>
<polygon fill="white" stroke="none" points="-4,4 -4,-328 1387.29,-328 1387.29,4 -4,4"/>
<!-- Cool -->
<g id="node1" class="node"><title>Cool</title>
<g id="a_node1"><a xlink:href="/type/Cool" xlink:title="Cool">
<ellipse fill="none" stroke="#000000" cx="686.746" cy="-162" rx="28.6953" ry="18"/>
<text text-anchor="middle" x="686.746" y="-158.3" font-family="FreeSans" font-size="14.00" fill="#000000">Cool</text>
</a>
</g>
</g>
<!-- Any -->
<g id="node3" class="node"><title>Any</title>
<g id="a_node3"><a xlink:href="/type/Any" xlink:title="Any">
<ellipse fill="none" stroke="#000000" cx="642.746" cy="-234" rx="27" ry="18"/>
<text text-anchor="middle" x="642.746" y="-230.3" font-family="FreeSans" font-size="14.00" fill="#000000">Any</text>
</a>
</g>
</g>
<!-- Cool&#45;&gt;Any -->
<g id="edge1" class="edge"><title>Cool&#45;&gt;Any</title>
<path fill="none" stroke="#000000" d="M676.761,-178.884C671.248,-187.655 664.283,-198.736 658.093,-208.584"/>
<polygon fill="#000000" stroke="#000000" points="655.049,-206.85 652.69,-217.179 660.975,-210.575 655.049,-206.85"/>
</g>
<!-- Mu -->
<g id="node2" class="node"><title>Mu</title>
<g id="a_node2"><a xlink:href="/type/Mu" xlink:title="Mu">
<ellipse fill="none" stroke="#000000" cx="642.746" cy="-306" rx="27" ry="18"/>
<text text-anchor="middle" x="642.746" y="-302.3" font-family="FreeSans" font-size="14.00" fill="#000000">Mu</text>
</a>
</g>
</g>
<!-- Any&#45;&gt;Mu -->
<g id="edge2" class="edge"><title>Any&#45;&gt;Mu</title>
<path fill="none" stroke="#000000" d="M642.746,-252.303C642.746,-260.017 642.746,-269.288 642.746,-277.888"/>
<polygon fill="#000000" stroke="#000000" points="639.246,-277.896 642.746,-287.896 646.246,-277.896 639.246,-277.896"/>
</g>
<!-- Iterable -->
<g id="node4" class="node"><title>Iterable</title>
<g id="a_node4"><a xlink:href="/type/Iterable" xlink:title="Iterable">
<ellipse fill="none" stroke="#6666ff" cx="155.746" cy="-162" rx="40.0939" ry="18"/>
<text text-anchor="middle" x="155.746" y="-158.3" font-family="FreeSans" font-size="14.00" fill="#6666ff">Iterable</text>
</a>
</g>
</g>
<!-- Associative -->
<g id="node5" class="node"><title>Associative</title>
<g id="a_node5"><a xlink:href="/type/Associative" xlink:title="Associative">
<ellipse fill="none" stroke="#6666ff" cx="482.746" cy="-162" rx="55.4913" ry="18"/>
<text text-anchor="middle" x="482.746" y="-158.3" font-family="FreeSans" font-size="14.00" fill="#6666ff">Associative</text>
</a>
</g>
</g>
<!-- Map -->
<g id="node6" class="node"><title>Map</title>
<g id="a_node6"><a xlink:href="/type/Map" xlink:title="Map">
<ellipse fill="none" stroke="#000000" cx="380.746" cy="-90" rx="28.6953" ry="18"/>
<text text-anchor="middle" x="380.746" y="-86.3" font-family="FreeSans" font-size="14.00" fill="#000000">Map</text>
</a>
</g>
</g>
<!-- Map&#45;&gt;Cool -->
<g id="edge3" class="edge"><title>Map&#45;&gt;Cool</title>
<path fill="none" stroke="#000000" d="M403.29,-101.085C411.472,-104.746 418.746,-108 418.746,-108 418.746,-108 648.746,-144 648.746,-144 648.746,-144 651.177,-145.088 654.809,-146.712"/>
<polygon fill="#000000" stroke="#000000" points="653.644,-150.026 664.202,-150.915 656.503,-143.636 653.644,-150.026"/>
</g>
<!-- Map&#45;&gt;Iterable -->
<g id="edge20" class="edge"><title>Map&#45;&gt;Iterable</title>
<path fill="none" stroke="#6666ff" d="M358.202,-101.085C350.019,-104.746 342.746,-108 342.746,-108 342.746,-108 205.746,-144 205.746,-144 205.746,-144 201.984,-145.279 196.524,-147.135"/>
<polygon fill="#6666ff" stroke="#6666ff" points="195.184,-143.894 186.843,-150.427 197.437,-150.522 195.184,-143.894"/>
</g>
<!-- Map&#45;&gt;Associative -->
<g id="edge21" class="edge"><title>Map&#45;&gt;Associative</title>
<path fill="none" stroke="#6666ff" d="M399.454,-103.839C414.049,-113.855 434.637,-127.984 451.693,-139.689"/>
<polygon fill="#6666ff" stroke="#6666ff" points="450.013,-142.782 460.239,-145.554 453.974,-137.01 450.013,-142.782"/>
</g>
<!-- Numeric -->
<g id="node7" class="node"><title>Numeric</title>
<g id="a_node7"><a xlink:href="/type/Numeric" xlink:title="Numeric">
<ellipse fill="none" stroke="#6666ff" cx="1059.75" cy="-234" rx="44.393" ry="18"/>
<text text-anchor="middle" x="1059.75" y="-230.3" font-family="FreeSans" font-size="14.00" fill="#6666ff">Numeric</text>
</a>
</g>
</g>
<!-- Real -->
<g id="node8" class="node"><title>Real</title>
<g id="a_node8"><a xlink:href="/type/Real" xlink:title="Real">
<ellipse fill="none" stroke="#6666ff" cx="899.746" cy="-162" rx="28.6953" ry="18"/>
<text text-anchor="middle" x="899.746" y="-158.3" font-family="FreeSans" font-size="14.00" fill="#6666ff">Real</text>
</a>
</g>
</g>
<!-- Real&#45;&gt;Numeric -->
<g id="edge22" class="edge"><title>Real&#45;&gt;Numeric</title>
<path fill="none" stroke="#6666ff" d="M922.67,-173.029C948.322,-184.252 990.311,-202.622 1021.07,-216.079"/>
<polygon fill="#6666ff" stroke="#6666ff" points="1020.06,-219.458 1030.62,-220.259 1022.87,-213.045 1020.06,-219.458"/>
</g>
<!-- Rational -->
<g id="node9" class="node"><title>Rational</title>
<g id="a_node9"><a xlink:href="/type/Rational" xlink:title="Rational">
<ellipse fill="none" stroke="#6666ff" cx="1054.75" cy="-90" rx="42.7926" ry="18"/>
<text text-anchor="middle" x="1054.75" y="-86.3" font-family="FreeSans" font-size="14.00" fill="#6666ff">Rational</text>
</a>
</g>
</g>
<!-- Rational&#45;&gt;Real -->
<g id="edge23" class="edge"><title>Rational&#45;&gt;Real</title>
<path fill="none" stroke="#6666ff" d="M1026.68,-103.676C999.987,-115.73 959.875,-133.845 931.909,-146.475"/>
<polygon fill="#6666ff" stroke="#6666ff" points="930.239,-143.388 922.566,-150.694 933.12,-149.768 930.239,-143.388"/>
</g>
<!-- FatRat -->
<g id="node10" class="node"><title>FatRat</title>
<g id="a_node10"><a xlink:href="/type/FatRat" xlink:title="FatRat">
<ellipse fill="none" stroke="#000000" cx="844.746" cy="-18" rx="37.0935" ry="18"/>
<text text-anchor="middle" x="844.746" y="-14.3" font-family="FreeSans" font-size="14.00" fill="#000000">FatRat</text>
</a>
</g>
</g>
<!-- FatRat&#45;&gt;Cool -->
<g id="edge4" class="edge"><title>FatRat&#45;&gt;Cool</title>
<path fill="none" stroke="#000000" d="M813.34,-27.8983C798.823,-32.0115 784.746,-36 784.746,-36 784.746,-36 654.746,-72 654.746,-72 654.746,-72 654.746,-108 654.746,-108 654.746,-108 663.369,-122.282 671.662,-136.018"/>
<polygon fill="#000000" stroke="#000000" points="668.806,-138.059 676.971,-144.81 674.798,-134.441 668.806,-138.059"/>
</g>
<!-- FatRat&#45;&gt;Rational -->
<g id="edge24" class="edge"><title>FatRat&#45;&gt;Rational</title>
<path fill="none" stroke="#6666ff" d="M874.388,-28.8808C910.423,-40.8923 971.484,-61.2461 1012.45,-74.9015"/>
<polygon fill="#6666ff" stroke="#6666ff" points="1011.55,-78.2923 1022.15,-78.1342 1013.77,-71.6515 1011.55,-78.2923"/>
</g>
<!-- Capture -->
<g id="node11" class="node"><title>Capture</title>
<g id="a_node11"><a xlink:href="/type/Capture" xlink:title="Capture">
<ellipse fill="none" stroke="#000000" cx="597.746" cy="-162" rx="42.4939" ry="18"/>
<text text-anchor="middle" x="597.746" y="-158.3" font-family="FreeSans" font-size="14.00" fill="#000000">Capture</text>
</a>
</g>
</g>
<!-- Capture&#45;&gt;Any -->
<g id="edge5" class="edge"><title>Capture&#45;&gt;Any</title>
<path fill="none" stroke="#000000" d="M608.41,-179.589C613.925,-188.168 620.766,-198.809 626.887,-208.33"/>
<polygon fill="#000000" stroke="#000000" points="624.116,-210.493 632.468,-217.012 630.004,-206.707 624.116,-210.493"/>
</g>
<!-- Match -->
<g id="node12" class="node"><title>Match</title>
<g id="a_node12"><a xlink:href="/type/Match" xlink:title="Match">
<ellipse fill="none" stroke="#000000" cx="462.746" cy="-90" rx="35.194" ry="18"/>
<text text-anchor="middle" x="462.746" y="-86.3" font-family="FreeSans" font-size="14.00" fill="#000000">Match</text>
</a>
</g>
</g>
<!-- Match&#45;&gt;Cool -->
<g id="edge7" class="edge"><title>Match&#45;&gt;Cool</title>
<path fill="none" stroke="#000000" d="M490.965,-100.79C501.858,-104.569 511.746,-108 511.746,-108 511.746,-108 648.746,-144 648.746,-144 648.746,-144 651.177,-145.088 654.809,-146.712"/>
<polygon fill="#000000" stroke="#000000" points="653.644,-150.026 664.202,-150.915 656.503,-143.636 653.644,-150.026"/>
</g>
<!-- Match&#45;&gt;Capture -->
<g id="edge6" class="edge"><title>Match&#45;&gt;Capture</title>
<path fill="none" stroke="#000000" d="M486.57,-103.353C507.687,-114.303 538.797,-130.434 562.742,-142.85"/>
<polygon fill="#000000" stroke="#000000" points="561.37,-146.081 571.859,-147.577 564.592,-139.867 561.37,-146.081"/>
</g>
<!-- Rat -->
<g id="node13" class="node"><title>Rat</title>
<g id="a_node13"><a xlink:href="/type/Rat" xlink:title="Rat">
<ellipse fill="none" stroke="#000000" cx="748.746" cy="-18" rx="27" ry="18"/>
<text text-anchor="middle" x="748.746" y="-14.3" font-family="FreeSans" font-size="14.00" fill="#000000">Rat</text>
</a>
</g>
</g>
<!-- Rat&#45;&gt;Cool -->
<g id="edge8" class="edge"><title>Rat&#45;&gt;Cool</title>
<path fill="none" stroke="#000000" d="M723.731,-25.4988C669.257,-39.6514 544.746,-72 544.746,-72 544.746,-72 544.746,-108 544.746,-108 544.746,-108 648.746,-144 648.746,-144 648.746,-144 651.177,-145.088 654.809,-146.712"/>
<polygon fill="#000000" stroke="#000000" points="653.644,-150.026 664.202,-150.915 656.503,-143.636 653.644,-150.026"/>
</g>
<!-- Rat&#45;&gt;Rational -->
<g id="edge25" class="edge"><title>Rat&#45;&gt;Rational</title>
<path fill="none" stroke="#6666ff" d="M772.282,-27.0022C785.25,-31.4115 798.746,-36 798.746,-36 798.746,-36 1002.75,-72 1002.75,-72 1002.75,-72 1006.51,-73.2316 1012.02,-75.0319"/>
<polygon fill="#6666ff" stroke="#6666ff" points="1011.22,-78.4529 1021.81,-78.2336 1013.4,-71.7995 1011.22,-78.4529"/>
</g>
<!-- Positional -->
<g id="node14" class="node"><title>Positional</title>
<g id="a_node14"><a xlink:href="/type/Positional" xlink:title="Positional">
<ellipse fill="none" stroke="#6666ff" cx="48.7457" cy="-162" rx="48.9926" ry="18"/>
<text text-anchor="middle" x="48.7457" y="-158.3" font-family="FreeSans" font-size="14.00" fill="#6666ff">Positional</text>
</a>
</g>
</g>
<!-- List -->
<g id="node15" class="node"><title>List</title>
<g id="a_node15"><a xlink:href="/type/List" xlink:title="List">
<ellipse fill="none" stroke="#000000" cx="109.746" cy="-90" rx="27" ry="18"/>
<text text-anchor="middle" x="109.746" y="-86.3" font-family="FreeSans" font-size="14.00" fill="#000000">List</text>
</a>
</g>
</g>
<!-- List&#45;&gt;Cool -->
<g id="edge9" class="edge"><title>List&#45;&gt;Cool</title>
<path fill="none" stroke="#000000" d="M131.103,-101.085C138.855,-104.746 145.746,-108 145.746,-108 145.746,-108 648.746,-144 648.746,-144 648.746,-144 651.177,-145.088 654.809,-146.712"/>
<polygon fill="#000000" stroke="#000000" points="653.644,-150.026 664.202,-150.915 656.503,-143.636 653.644,-150.026"/>
</g>
<!-- List&#45;&gt;Iterable -->
<g id="edge27" class="edge"><title>List&#45;&gt;Iterable</title>
<path fill="none" stroke="#6666ff" d="M120.184,-106.884C125.785,-115.408 132.82,-126.114 139.152,-135.749"/>
<polygon fill="#6666ff" stroke="#6666ff" points="136.291,-137.768 144.707,-144.203 142.141,-133.923 136.291,-137.768"/>
</g>
<!-- List&#45;&gt;Positional -->
<g id="edge26" class="edge"><title>List&#45;&gt;Positional</title>
<path fill="none" stroke="#6666ff" d="M96.8091,-105.845C88.8944,-114.928 78.586,-126.757 69.5463,-137.13"/>
<polygon fill="#6666ff" stroke="#6666ff" points="66.8728,-134.871 62.9416,-144.71 72.1502,-139.47 66.8728,-134.871"/>
</g>
<!-- PositionalBindFailover -->
<g id="node16" class="node"><title>PositionalBindFailover</title>
<g id="a_node16"><a xlink:href="/type/PositionalBindFailover" xlink:title="PositionalBindFailover">
<ellipse fill="none" stroke="#6666ff" cx="311.746" cy="-162" rx="97.4827" ry="18"/>
<text text-anchor="middle" x="311.746" y="-158.3" font-family="FreeSans" font-size="14.00" fill="#6666ff">PositionalBindFailover</text>
</a>
</g>
</g>
<!-- Seq -->
<g id="node17" class="node"><title>Seq</title>
<g id="a_node17"><a xlink:href="/type/Seq" xlink:title="Seq">
<ellipse fill="none" stroke="#000000" cx="306.746" cy="-90" rx="27" ry="18"/>
<text text-anchor="middle" x="306.746" y="-86.3" font-family="FreeSans" font-size="14.00" fill="#000000">Seq</text>
</a>
</g>
</g>
<!-- Seq&#45;&gt;Cool -->
<g id="edge10" class="edge"><title>Seq&#45;&gt;Cool</title>
<path fill="none" stroke="#000000" d="M328.103,-101.085C335.855,-104.746 342.746,-108 342.746,-108 342.746,-108 648.746,-144 648.746,-144 648.746,-144 651.177,-145.088 654.809,-146.712"/>
<polygon fill="#000000" stroke="#000000" points="653.644,-150.026 664.202,-150.915 656.503,-143.636 653.644,-150.026"/>
</g>
<!-- Seq&#45;&gt;Iterable -->
<g id="edge28" class="edge"><title>Seq&#45;&gt;Iterable</title>
<path fill="none" stroke="#6666ff" d="M285.111,-101.029C260.86,-112.272 221.138,-130.686 192.098,-144.148"/>
<polygon fill="#6666ff" stroke="#6666ff" points="190.297,-141.125 182.697,-148.506 193.241,-147.476 190.297,-141.125"/>
</g>
<!-- Seq&#45;&gt;PositionalBindFailover -->
<g id="edge29" class="edge"><title>Seq&#45;&gt;PositionalBindFailover</title>
<path fill="none" stroke="#6666ff" d="M307.982,-108.303C308.533,-116.017 309.195,-125.288 309.809,-133.888"/>
<polygon fill="#6666ff" stroke="#6666ff" points="306.32,-134.17 310.524,-143.896 313.302,-133.672 306.32,-134.17"/>
</g>
<!-- Duration -->
<g id="node18" class="node"><title>Duration</title>
<g id="a_node18"><a xlink:href="/type/Duration" xlink:title="Duration">
<ellipse fill="none" stroke="#000000" cx="949.746" cy="-90" rx="44.393" ry="18"/>
<text text-anchor="middle" x="949.746" y="-86.3" font-family="FreeSans" font-size="14.00" fill="#000000">Duration</text>
</a>
</g>
</g>
<!-- Duration&#45;&gt;Cool -->
<g id="edge11" class="edge"><title>Duration&#45;&gt;Cool</title>
<path fill="none" stroke="#000000" d="M916.18,-101.766C905.662,-105.14 896.746,-108 896.746,-108 896.746,-108 782.78,-136.763 722.76,-151.911"/>
<polygon fill="#000000" stroke="#000000" points="721.757,-148.554 712.918,-154.395 723.47,-155.341 721.757,-148.554"/>
</g>
<!-- Duration&#45;&gt;Real -->
<g id="edge30" class="edge"><title>Duration&#45;&gt;Real</title>
<path fill="none" stroke="#6666ff" d="M937.896,-107.589C931.706,-116.256 924.011,-127.029 917.157,-136.625"/>
<polygon fill="#6666ff" stroke="#6666ff" points="914.13,-134.84 911.166,-145.012 919.826,-138.909 914.13,-134.84"/>
</g>
<!-- Stringy -->
<g id="node19" class="node"><title>Stringy</title>
<g id="a_node19"><a xlink:href="/type/Stringy" xlink:title="Stringy">
<ellipse fill="none" stroke="#6666ff" cx="1142.75" cy="-162" rx="38.1938" ry="18"/>
<text text-anchor="middle" x="1142.75" y="-158.3" font-family="FreeSans" font-size="14.00" fill="#6666ff">Stringy</text>
</a>
</g>
</g>
<!-- Str -->
<g id="node20" class="node"><title>Str</title>
<g id="a_node20"><a xlink:href="/type/Str" xlink:title="Str">
<ellipse fill="none" stroke="#000000" cx="1142.75" cy="-90" rx="27" ry="18"/>
<text text-anchor="middle" x="1142.75" y="-86.3" font-family="FreeSans" font-size="14.00" fill="#000000">Str</text>
</a>
</g>
</g>
<!-- Str&#45;&gt;Cool -->
<g id="edge12" class="edge"><title>Str&#45;&gt;Cool</title>
<path fill="none" stroke="#000000" d="M1121.39,-101.085C1113.64,-104.746 1106.75,-108 1106.75,-108 1106.75,-108 827.914,-143.186 724.63,-156.219"/>
<polygon fill="#000000" stroke="#000000" points="724.111,-152.757 714.628,-157.481 724.988,-159.702 724.111,-152.757"/>
</g>
<!-- Str&#45;&gt;Stringy -->
<g id="edge31" class="edge"><title>Str&#45;&gt;Stringy</title>
<path fill="none" stroke="#6666ff" d="M1142.75,-108.303C1142.75,-116.017 1142.75,-125.288 1142.75,-133.888"/>
<polygon fill="#6666ff" stroke="#6666ff" points="1139.25,-133.896 1142.75,-143.896 1146.25,-133.896 1139.25,-133.896"/>
</g>
<!-- IO -->
<g id="node21" class="node"><title>IO</title>
<g id="a_node21"><a xlink:href="/type/IO" xlink:title="IO">
<ellipse fill="none" stroke="#6666ff" cx="1339.75" cy="-162" rx="27" ry="18"/>
<text text-anchor="middle" x="1339.75" y="-158.3" font-family="FreeSans" font-size="14.00" fill="#6666ff">IO</text>
</a>
</g>
</g>
<!-- IO::Path -->
<g id="node22" class="node"><title>IO::Path</title>
<g id="a_node22"><a xlink:href="/type/IO::Path" xlink:title="IO::Path">
<ellipse fill="none" stroke="#000000" cx="1339.75" cy="-90" rx="43.5923" ry="18"/>
<text text-anchor="middle" x="1339.75" y="-86.3" font-family="FreeSans" font-size="14.00" fill="#000000">IO::Path</text>
</a>
</g>
</g>
<!-- IO::Path&#45;&gt;Cool -->
<g id="edge13" class="edge"><title>IO::Path&#45;&gt;Cool</title>
<path fill="none" stroke="#000000" d="M1306.48,-101.67C1295.83,-105.085 1286.75,-108 1286.75,-108 1286.75,-108 861.746,-144 861.746,-144 861.746,-144 776.484,-152.283 724.986,-157.285"/>
<polygon fill="#000000" stroke="#000000" points="724.477,-153.818 714.862,-158.269 725.154,-160.785 724.477,-153.818"/>
</g>
<!-- IO::Path&#45;&gt;IO -->
<g id="edge32" class="edge"><title>IO::Path&#45;&gt;IO</title>
<path fill="none" stroke="#6666ff" d="M1339.75,-108.303C1339.75,-116.017 1339.75,-125.288 1339.75,-133.888"/>
<polygon fill="#6666ff" stroke="#6666ff" points="1336.25,-133.896 1339.75,-143.896 1343.25,-133.896 1336.25,-133.896"/>
</g>
<!-- Int -->
<g id="node23" class="node"><title>Int</title>
<g id="a_node23"><a xlink:href="/type/Int" xlink:title="Int">
<ellipse fill="none" stroke="#000000" cx="690.746" cy="-90" rx="27" ry="18"/>
<text text-anchor="middle" x="690.746" y="-86.3" font-family="FreeSans" font-size="14.00" fill="#000000">Int</text>
</a>
</g>
</g>
<!-- Int&#45;&gt;Cool -->
<g id="edge14" class="edge"><title>Int&#45;&gt;Cool</title>
<path fill="none" stroke="#000000" d="M689.757,-108.303C689.316,-116.017 688.786,-125.288 688.295,-133.888"/>
<polygon fill="#000000" stroke="#000000" points="684.799,-133.712 687.723,-143.896 691.788,-134.112 684.799,-133.712"/>
</g>
<!-- Int&#45;&gt;Real -->
<g id="edge33" class="edge"><title>Int&#45;&gt;Real</title>
<path fill="none" stroke="#6666ff" d="M712.103,-101.085C719.855,-104.746 726.746,-108 726.746,-108 726.746,-108 814.516,-134.889 865.023,-150.362"/>
<polygon fill="#6666ff" stroke="#6666ff" points="864.003,-153.711 874.59,-153.293 866.054,-147.018 864.003,-153.711"/>
</g>
<!-- Num -->
<g id="node24" class="node"><title>Num</title>
<g id="a_node24"><a xlink:href="/type/Num" xlink:title="Num">
<ellipse fill="none" stroke="#000000" cx="765.746" cy="-90" rx="29.795" ry="18"/>
<text text-anchor="middle" x="765.746" y="-86.3" font-family="FreeSans" font-size="14.00" fill="#000000">Num</text>
</a>
</g>
</g>
<!-- Num&#45;&gt;Cool -->
<g id="edge15" class="edge"><title>Num&#45;&gt;Cool</title>
<path fill="none" stroke="#000000" d="M749.377,-105.504C738.106,-115.49 722.957,-128.914 710.381,-140.058"/>
<polygon fill="#000000" stroke="#000000" points="707.718,-137.741 702.554,-146.992 712.36,-142.98 707.718,-137.741"/>
</g>
<!-- Num&#45;&gt;Real -->
<g id="edge34" class="edge"><title>Num&#45;&gt;Real</title>
<path fill="none" stroke="#6666ff" d="M787.573,-102.403C809.8,-114.014 844.442,-132.11 869.348,-145.121"/>
<polygon fill="#6666ff" stroke="#6666ff" points="867.887,-148.306 878.371,-149.834 871.128,-142.101 867.887,-148.306"/>
</g>
<!-- Instant -->
<g id="node25" class="node"><title>Instant</title>
<g id="a_node25"><a xlink:href="/type/Instant" xlink:title="Instant">
<ellipse fill="none" stroke="#000000" cx="850.746" cy="-90" rx="37.0935" ry="18"/>
<text text-anchor="middle" x="850.746" y="-86.3" font-family="FreeSans" font-size="14.00" fill="#000000">Instant</text>
</a>
</g>
</g>
<!-- Instant&#45;&gt;Cool -->
<g id="edge16" class="edge"><title>Instant&#45;&gt;Cool</title>
<path fill="none" stroke="#000000" d="M823.664,-102.559C795.014,-114.788 749.809,-134.083 719.253,-147.125"/>
<polygon fill="#000000" stroke="#000000" points="717.71,-143.978 709.887,-151.123 720.458,-150.416 717.71,-143.978"/>
</g>
<!-- Instant&#45;&gt;Real -->
<g id="edge35" class="edge"><title>Instant&#45;&gt;Real</title>
<path fill="none" stroke="#6666ff" d="M862.11,-107.235C868.32,-116.107 876.129,-127.262 883.022,-137.108"/>
<polygon fill="#6666ff" stroke="#6666ff" points="880.178,-139.149 888.78,-145.334 885.912,-135.135 880.178,-139.149"/>
</g>
<!-- Complex -->
<g id="node26" class="node"><title>Complex</title>
<g id="a_node26"><a xlink:href="/type/Complex" xlink:title="Complex">
<ellipse fill="none" stroke="#000000" cx="1232.75" cy="-90" rx="45.4919" ry="18"/>
<text text-anchor="middle" x="1232.75" y="-86.3" font-family="FreeSans" font-size="14.00" fill="#000000">Complex</text>
</a>
</g>
</g>
<!-- Complex&#45;&gt;Cool -->
<g id="edge17" class="edge"><title>Complex&#45;&gt;Cool</title>
<path fill="none" stroke="#000000" d="M1198.24,-101.863C1187.66,-105.194 1178.75,-108 1178.75,-108 1178.75,-108 840.93,-144.391 725.143,-156.864"/>
<polygon fill="#000000" stroke="#000000" points="724.532,-153.409 714.965,-157.96 725.282,-160.369 724.532,-153.409"/>
</g>
<!-- Complex&#45;&gt;Numeric -->
<g id="edge36" class="edge"><title>Complex&#45;&gt;Numeric</title>
<path fill="none" stroke="#6666ff" d="M1224.66,-107.74C1212.2,-133.521 1189.75,-180 1189.75,-180 1189.75,-180 1137.53,-201.289 1099.28,-216.882"/>
<polygon fill="#6666ff" stroke="#6666ff" points="1097.84,-213.691 1089.9,-220.708 1100.48,-220.173 1097.84,-213.691"/>
</g>
<!-- Range -->
<g id="node27" class="node"><title>Range</title>
<g id="a_node27"><a xlink:href="/type/Range" xlink:title="Range">
<ellipse fill="none" stroke="#000000" cx="190.746" cy="-90" rx="36.2938" ry="18"/>
<text text-anchor="middle" x="190.746" y="-86.3" font-family="FreeSans" font-size="14.00" fill="#000000">Range</text>
</a>
</g>
</g>
<!-- Range&#45;&gt;Cool -->
<g id="edge18" class="edge"><title>Range&#45;&gt;Cool</title>
<path fill="none" stroke="#000000" d="M223.747,-98.0127C245.784,-102.696 270.746,-108 270.746,-108 270.746,-108 648.746,-144 648.746,-144 648.746,-144 651.177,-145.088 654.809,-146.712"/>
<polygon fill="#000000" stroke="#000000" points="653.644,-150.026 664.202,-150.915 656.503,-143.636 653.644,-150.026"/>
</g>
<!-- Range&#45;&gt;Iterable -->
<g id="edge38" class="edge"><title>Range&#45;&gt;Iterable</title>
<path fill="none" stroke="#6666ff" d="M182.451,-107.589C178.37,-115.751 173.356,-125.78 168.778,-134.935"/>
<polygon fill="#6666ff" stroke="#6666ff" points="165.565,-133.534 164.224,-144.044 171.826,-136.665 165.565,-133.534"/>
</g>
<!-- Range&#45;&gt;Positional -->
<g id="edge37" class="edge"><title>Range&#45;&gt;Positional</title>
<path fill="none" stroke="#6666ff" d="M165.686,-103.353C143.658,-114.212 111.293,-130.167 86.1923,-142.54"/>
<polygon fill="#6666ff" stroke="#6666ff" points="84.3866,-139.528 76.9648,-147.089 87.4817,-145.807 84.3866,-139.528"/>
</g>
<!-- Nil -->
<g id="node28" class="node"><title>Nil</title>
<g id="a_node28"><a xlink:href="/type/Nil" xlink:title="Nil">
<ellipse fill="none" stroke="#000000" cx="580.746" cy="-90" rx="27" ry="18"/>
<text text-anchor="middle" x="580.746" y="-86.3" font-family="FreeSans" font-size="14.00" fill="#000000">Nil</text>
</a>
</g>
</g>
<!-- Nil&#45;&gt;Cool -->
<g id="edge19" class="edge"><title>Nil&#45;&gt;Cool</title>
<path fill="none" stroke="#000000" d="M599.209,-103.193C615.8,-114.149 640.388,-130.387 659.285,-142.865"/>
<polygon fill="#000000" stroke="#000000" points="657.506,-145.885 667.78,-148.475 661.364,-140.044 657.506,-145.885"/>
</g>
</g>
</svg>
