<?xml version="1.0" encoding="UTF-8" standalone="no"?>
<!DOCTYPE svg PUBLIC "-//W3C//DTD SVG 1.1//EN"
 "http://www.w3.org/Graphics/SVG/1.1/DTD/svg11.dtd">
<!-- Generated by graphviz version 2.38.0 (20140413.2041)
 -->
<!-- Title: perl6&#45;type&#45;graph Pages: 1 -->
<svg width="626pt" height="332pt"
 viewBox="0.00 0.00 625.84 332.00" xmlns="http://www.w3.org/2000/svg" xmlns:xlink="http://www.w3.org/1999/xlink">
<g id="graph0" class="graph" transform="scale(1 1) rotate(0) translate(4 328)">
<title>perl6&#45;type&#45;graph</title>
<polygon fill="white" stroke="none" points="-4,4 -4,-328 621.845,-328 621.845,4 -4,4"/>
<!-- Positional -->
<g id="node1" class="node"><title>Positional</title>
<g id="a_node1"><a xlink:href="/type/Positional" xlink:title="Positional">
<ellipse fill="none" stroke="#6666ff" cx="260.597" cy="-162" rx="48.9926" ry="18"/>
<text text-anchor="middle" x="260.597" y="-158.3" font-family="FreeSans" font-size="14.00" fill="#6666ff">Positional</text>
</a>
</g>
</g>
<!-- Stringy -->
<g id="node2" class="node"><title>Stringy</title>
<g id="a_node2"><a xlink:href="/type/Stringy" xlink:title="Stringy">
<ellipse fill="none" stroke="#6666ff" cx="365.597" cy="-162" rx="38.1938" ry="18"/>
<text text-anchor="middle" x="365.597" y="-158.3" font-family="FreeSans" font-size="14.00" fill="#6666ff">Stringy</text>
</a>
</g>
</g>
<!-- Blob -->
<g id="node3" class="node"><title>Blob</title>
<g id="a_node3"><a xlink:href="/type/Blob" xlink:title="Blob">
<ellipse fill="none" stroke="#6666ff" cx="260.597" cy="-90" rx="28.6953" ry="18"/>
<text text-anchor="middle" x="260.597" y="-86.3" font-family="FreeSans" font-size="14.00" fill="#6666ff">Blob</text>
</a>
</g>
</g>
<!-- Blob&#45;&gt;Positional -->
<g id="edge13" class="edge"><title>Blob&#45;&gt;Positional</title>
<path fill="none" stroke="#6666ff" d="M260.597,-108.303C260.597,-116.017 260.597,-125.288 260.597,-133.888"/>
<polygon fill="#6666ff" stroke="#6666ff" points="257.098,-133.896 260.597,-143.896 264.098,-133.896 257.098,-133.896"/>
</g>
<!-- Blob&#45;&gt;Stringy -->
<g id="edge14" class="edge"><title>Blob&#45;&gt;Stringy</title>
<path fill="none" stroke="#6666ff" d="M279.856,-103.839C295.527,-114.286 317.91,-129.208 335.877,-141.186"/>
<polygon fill="#6666ff" stroke="#6666ff" points="334.032,-144.163 344.294,-146.798 337.915,-138.338 334.032,-144.163"/>
</g>
<!-- Mu -->
<g id="node4" class="node"><title>Mu</title>
<g id="a_node4"><a xlink:href="/type/Mu" xlink:title="Mu">
<ellipse fill="none" stroke="#000000" cx="183.597" cy="-306" rx="27" ry="18"/>
<text text-anchor="middle" x="183.597" y="-302.3" font-family="FreeSans" font-size="14.00" fill="#000000">Mu</text>
</a>
</g>
</g>
<!-- Any -->
<g id="node5" class="node"><title>Any</title>
<g id="a_node5"><a xlink:href="/type/Any" xlink:title="Any">
<ellipse fill="none" stroke="#000000" cx="183.597" cy="-234" rx="27" ry="18"/>
<text text-anchor="middle" x="183.597" y="-230.3" font-family="FreeSans" font-size="14.00" fill="#000000">Any</text>
</a>
</g>
</g>
<!-- Any&#45;&gt;Mu -->
<g id="edge1" class="edge"><title>Any&#45;&gt;Mu</title>
<path fill="none" stroke="#000000" d="M183.597,-252.303C183.597,-260.017 183.597,-269.288 183.597,-277.888"/>
<polygon fill="#000000" stroke="#000000" points="180.098,-277.896 183.597,-287.896 187.098,-277.896 180.098,-277.896"/>
</g>
<!-- Cool -->
<g id="node6" class="node"><title>Cool</title>
<g id="a_node6"><a xlink:href="/type/Cool" xlink:title="Cool">
<ellipse fill="none" stroke="#000000" cx="28.5975" cy="-162" rx="28.6953" ry="18"/>
<text text-anchor="middle" x="28.5975" y="-158.3" font-family="FreeSans" font-size="14.00" fill="#000000">Cool</text>
</a>
</g>
</g>
<!-- Cool&#45;&gt;Any -->
<g id="edge2" class="edge"><title>Cool&#45;&gt;Any</title>
<path fill="none" stroke="#000000" d="M51.1358,-173.179C77.8044,-185.223 122.362,-205.345 152.35,-218.888"/>
<polygon fill="#000000" stroke="#000000" points="150.98,-222.11 161.534,-223.036 153.861,-215.73 150.98,-222.11"/>
</g>
<!-- Iterable -->
<g id="node7" class="node"><title>Iterable</title>
<g id="a_node7"><a xlink:href="/type/Iterable" xlink:title="Iterable">
<ellipse fill="none" stroke="#6666ff" cx="115.597" cy="-162" rx="40.0939" ry="18"/>
<text text-anchor="middle" x="115.597" y="-158.3" font-family="FreeSans" font-size="14.00" fill="#6666ff">Iterable</text>
</a>
</g>
</g>
<!-- List -->
<g id="node8" class="node"><title>List</title>
<g id="a_node8"><a xlink:href="/type/List" xlink:title="List">
<ellipse fill="none" stroke="#000000" cx="34.5975" cy="-90" rx="27" ry="18"/>
<text text-anchor="middle" x="34.5975" y="-86.3" font-family="FreeSans" font-size="14.00" fill="#000000">List</text>
</a>
</g>
</g>
<!-- List&#45;&gt;Positional -->
<g id="edge15" class="edge"><title>List&#45;&gt;Positional</title>
<path fill="none" stroke="#6666ff" d="M55.9549,-101.085C63.7068,-104.746 70.5975,-108 70.5975,-108 70.5975,-108 156.529,-131.97 212.812,-147.671"/>
<polygon fill="#6666ff" stroke="#6666ff" points="212.032,-151.086 222.605,-150.402 213.913,-144.344 212.032,-151.086"/>
</g>
<!-- List&#45;&gt;Cool -->
<g id="edge3" class="edge"><title>List&#45;&gt;Cool</title>
<path fill="none" stroke="#000000" d="M33.1143,-108.303C32.4531,-116.017 31.6585,-125.288 30.9214,-133.888"/>
<polygon fill="#000000" stroke="#000000" points="27.4304,-133.633 30.0635,-143.896 34.4049,-134.231 27.4304,-133.633"/>
</g>
<!-- List&#45;&gt;Iterable -->
<g id="edge16" class="edge"><title>List&#45;&gt;Iterable</title>
<path fill="none" stroke="#6666ff" d="M50.6005,-104.83C61.902,-114.597 77.2801,-127.886 90.241,-139.087"/>
<polygon fill="#6666ff" stroke="#6666ff" points="88.0858,-141.85 97.9405,-145.741 92.6629,-136.554 88.0858,-141.85"/>
</g>
<!-- Range -->
<g id="node9" class="node"><title>Range</title>
<g id="a_node9"><a xlink:href="/type/Range" xlink:title="Range">
<ellipse fill="none" stroke="#000000" cx="115.597" cy="-90" rx="36.2938" ry="18"/>
<text text-anchor="middle" x="115.597" y="-86.3" font-family="FreeSans" font-size="14.00" fill="#000000">Range</text>
</a>
</g>
</g>
<!-- Range&#45;&gt;Positional -->
<g id="edge17" class="edge"><title>Range&#45;&gt;Positional</title>
<path fill="none" stroke="#6666ff" d="M140.855,-103.193C163.546,-114.147 197.173,-130.381 223.02,-142.859"/>
<polygon fill="#6666ff" stroke="#6666ff" points="221.628,-146.074 232.156,-147.269 224.672,-139.77 221.628,-146.074"/>
</g>
<!-- Range&#45;&gt;Cool -->
<g id="edge4" class="edge"><title>Range&#45;&gt;Cool</title>
<path fill="none" stroke="#000000" d="M97.147,-105.845C84.5073,-116.015 67.5874,-129.629 53.7203,-140.786"/>
<polygon fill="#000000" stroke="#000000" points="51.1433,-138.367 45.5461,-147.363 55.5314,-143.821 51.1433,-138.367"/>
</g>
<!-- Range&#45;&gt;Iterable -->
<g id="edge18" class="edge"><title>Range&#45;&gt;Iterable</title>
<path fill="none" stroke="#6666ff" d="M115.597,-108.303C115.597,-116.017 115.597,-125.288 115.597,-133.888"/>
<polygon fill="#6666ff" stroke="#6666ff" points="112.098,-133.896 115.597,-143.896 119.098,-133.896 112.098,-133.896"/>
</g>
<!-- Uni -->
<g id="node10" class="node"><title>Uni</title>
<g id="a_node10"><a xlink:href="/type/Uni" xlink:title="Uni">
<ellipse fill="none" stroke="#000000" cx="429.597" cy="-90" rx="27" ry="18"/>
<text text-anchor="middle" x="429.597" y="-86.3" font-family="FreeSans" font-size="14.00" fill="#000000">Uni</text>
</a>
</g>
</g>
<!-- Uni&#45;&gt;Positional -->
<g id="edge19" class="edge"><title>Uni&#45;&gt;Positional</title>
<path fill="none" stroke="#6666ff" d="M407.156,-100.295C380.188,-111.466 334.425,-130.421 301.199,-144.183"/>
<polygon fill="#6666ff" stroke="#6666ff" points="299.656,-141.034 291.756,-148.094 302.334,-147.501 299.656,-141.034"/>
</g>
<!-- Uni&#45;&gt;Stringy -->
<g id="edge20" class="edge"><title>Uni&#45;&gt;Stringy</title>
<path fill="none" stroke="#6666ff" d="M416.025,-105.845C407.604,-115.056 396.6,-127.091 387.021,-137.568"/>
<polygon fill="#6666ff" stroke="#6666ff" points="384.205,-135.461 380.04,-145.203 389.371,-140.185 384.205,-135.461"/>
</g>
<!-- Uni&#45;&gt;Any -->
<g id="edge5" class="edge"><title>Uni&#45;&gt;Any</title>
<path fill="none" stroke="#000000" d="M426.32,-108.16C421.38,-134.022 412.597,-180 412.597,-180 412.597,-180 283.389,-209.904 219.082,-224.787"/>
<polygon fill="#000000" stroke="#000000" points="217.933,-221.461 208.979,-227.126 219.511,-228.281 217.933,-221.461"/>
</g>
<!-- Slip -->
<g id="node11" class="node"><title>Slip</title>
<g id="a_node11"><a xlink:href="/type/Slip" xlink:title="Slip">
<ellipse fill="none" stroke="#000000" cx="32.5975" cy="-18" rx="27" ry="18"/>
<text text-anchor="middle" x="32.5975" y="-14.3" font-family="FreeSans" font-size="14.00" fill="#000000">Slip</text>
</a>
</g>
</g>
<!-- Slip&#45;&gt;List -->
<g id="edge6" class="edge"><title>Slip&#45;&gt;List</title>
<path fill="none" stroke="#000000" d="M33.0918,-36.3034C33.3122,-44.0173 33.5771,-53.2875 33.8228,-61.8876"/>
<polygon fill="#000000" stroke="#000000" points="30.3245,-61.9997 34.1088,-71.8957 37.3216,-61.7998 30.3245,-61.9997"/>
</g>
<!-- Array -->
<g id="node12" class="node"><title>Array</title>
<g id="a_node12"><a xlink:href="/type/Array" xlink:title="Array">
<ellipse fill="none" stroke="#000000" cx="109.597" cy="-18" rx="31.6951" ry="18"/>
<text text-anchor="middle" x="109.597" y="-14.3" font-family="FreeSans" font-size="14.00" fill="#000000">Array</text>
</a>
</g>
</g>
<!-- Array&#45;&gt;List -->
<g id="edge7" class="edge"><title>Array&#45;&gt;List</title>
<path fill="none" stroke="#000000" d="M93.6919,-33.8452C83.0395,-43.7874 68.8606,-57.0211 57.0617,-68.0334"/>
<polygon fill="#000000" stroke="#000000" points="54.6352,-65.5104 49.7128,-74.8924 59.4115,-70.6279 54.6352,-65.5104"/>
</g>
<!-- NFKD -->
<g id="node13" class="node"><title>NFKD</title>
<g id="a_node13"><a xlink:href="/type/NFKD" xlink:title="NFKD">
<ellipse fill="none" stroke="#000000" cx="340.597" cy="-18" rx="35.9954" ry="18"/>
<text text-anchor="middle" x="340.597" y="-14.3" font-family="FreeSans" font-size="14.00" fill="#000000">NFKD</text>
</a>
</g>
</g>
<!-- NFKD&#45;&gt;Uni -->
<g id="edge8" class="edge"><title>NFKD&#45;&gt;Uni</title>
<path fill="none" stroke="#000000" d="M359.038,-33.504C372.233,-43.8815 390.146,-57.9707 404.621,-69.3559"/>
<polygon fill="#000000" stroke="#000000" points="402.662,-72.2673 412.685,-75.6984 406.989,-66.7652 402.662,-72.2673"/>
</g>
<!-- NFKC -->
<g id="node14" class="node"><title>NFKC</title>
<g id="a_node14"><a xlink:href="/type/NFKC" xlink:title="NFKC">
<ellipse fill="none" stroke="#000000" cx="429.597" cy="-18" rx="35.9954" ry="18"/>
<text text-anchor="middle" x="429.597" y="-14.3" font-family="FreeSans" font-size="14.00" fill="#000000">NFKC</text>
</a>
</g>
</g>
<!-- NFKC&#45;&gt;Uni -->
<g id="edge9" class="edge"><title>NFKC&#45;&gt;Uni</title>
<path fill="none" stroke="#000000" d="M429.597,-36.3034C429.597,-44.0173 429.597,-53.2875 429.597,-61.8876"/>
<polygon fill="#000000" stroke="#000000" points="426.098,-61.8956 429.597,-71.8957 433.098,-61.8957 426.098,-61.8956"/>
</g>
<!-- NFD -->
<g id="node15" class="node"><title>NFD</title>
<g id="a_node15"><a xlink:href="/type/NFD" xlink:title="NFD">
<ellipse fill="none" stroke="#000000" cx="512.597" cy="-18" rx="29.4969" ry="18"/>
<text text-anchor="middle" x="512.597" y="-14.3" font-family="FreeSans" font-size="14.00" fill="#000000">NFD</text>
</a>
</g>
</g>
<!-- NFD&#45;&gt;Uni -->
<g id="edge10" class="edge"><title>NFD&#45;&gt;Uni</title>
<path fill="none" stroke="#000000" d="M495.801,-33.1655C483.719,-43.3552 467.245,-57.2491 453.753,-68.6277"/>
<polygon fill="#000000" stroke="#000000" points="451.192,-66.2093 445.804,-75.3319 455.705,-71.5604 451.192,-66.2093"/>
</g>
<!-- NFC -->
<g id="node16" class="node"><title>NFC</title>
<g id="a_node16"><a xlink:href="/type/NFC" xlink:title="NFC">
<ellipse fill="none" stroke="#000000" cx="588.597" cy="-18" rx="29.4969" ry="18"/>
<text text-anchor="middle" x="588.597" y="-14.3" font-family="FreeSans" font-size="14.00" fill="#000000">NFC</text>
</a>
</g>
</g>
<!-- NFC&#45;&gt;Uni -->
<g id="edge11" class="edge"><title>NFC&#45;&gt;Uni</title>
<path fill="none" stroke="#000000" d="M565.616,-29.2811C557.613,-32.8613 550.597,-36 550.597,-36 550.597,-36 496.942,-59.502 461.09,-75.2057"/>
<polygon fill="#000000" stroke="#000000" points="459.265,-72.1839 451.51,-79.4021 462.074,-78.5958 459.265,-72.1839"/>
</g>
<!-- utf8 -->
<g id="node17" class="node"><title>utf8</title>
<g id="a_node17"><a xlink:href="/type/utf8" xlink:title="utf8">
<ellipse fill="none" stroke="#000000" cx="187.597" cy="-18" rx="27" ry="18"/>
<text text-anchor="middle" x="187.597" y="-14.3" font-family="FreeSans" font-size="14.00" fill="#000000">utf8</text>
</a>
</g>
</g>
<!-- utf8&#45;&gt;Blob -->
<g id="edge21" class="edge"><title>utf8&#45;&gt;Blob</title>
<path fill="none" stroke="#6666ff" d="M202.37,-33.1655C212.691,-43.0624 226.656,-56.4538 238.323,-67.6409"/>
<polygon fill="#6666ff" stroke="#6666ff" points="235.956,-70.2203 245.596,-74.6153 240.801,-65.1678 235.956,-70.2203"/>
</g>
<!-- utf8&#45;&gt;Any -->
<g id="edge12" class="edge"><title>utf8&#45;&gt;Any</title>
<path fill="none" stroke="#000000" d="M187.277,-36.1508C186.585,-73.1683 184.947,-160.819 184.109,-205.614"/>
<polygon fill="#000000" stroke="#000000" points="180.607,-205.704 183.92,-215.768 187.606,-205.835 180.607,-205.704"/>
</g>
<!-- Buf -->
<g id="node18" class="node"><title>Buf</title>
<g id="a_node18"><a xlink:href="/type/Buf" xlink:title="Buf">
<ellipse fill="none" stroke="#6666ff" cx="259.597" cy="-18" rx="27" ry="18"/>
<text text-anchor="middle" x="259.597" y="-14.3" font-family="FreeSans" font-size="14.00" fill="#6666ff">Buf</text>
</a>
</g>
</g>
<!-- Buf&#45;&gt;Blob -->
<g id="edge22" class="edge"><title>Buf&#45;&gt;Blob</title>
<path fill="none" stroke="#6666ff" d="M259.845,-36.3034C259.955,-44.0173 260.087,-53.2875 260.21,-61.8876"/>
<polygon fill="#6666ff" stroke="#6666ff" points="256.711,-61.9467 260.353,-71.8957 263.71,-61.8467 256.711,-61.9467"/>
</g>
</g>
</svg>
