<?xml version="1.0" encoding="UTF-8" standalone="no"?>
<!DOCTYPE svg PUBLIC "-//W3C//DTD SVG 1.1//EN"
 "http://www.w3.org/Graphics/SVG/1.1/DTD/svg11.dtd">
<!-- Generated by graphviz version 2.38.0 (20140413.2041)
 -->
<!-- Title: perl6&#45;type&#45;graph Pages: 1 -->
<svg width="886pt" height="332pt"
 viewBox="0.00 0.00 885.78 332.00" xmlns="http://www.w3.org/2000/svg" xmlns:xlink="http://www.w3.org/1999/xlink">
<g id="graph0" class="graph" transform="scale(1 1) rotate(0) translate(4 328)">
<title>perl6&#45;type&#45;graph</title>
<polygon fill="white" stroke="none" points="-4,4 -4,-328 881.781,-328 881.781,4 -4,4"/>
<!-- X::TypeCheck -->
<g id="node1" class="node"><title>X::TypeCheck</title>
<g id="a_node1"><a xlink:href="/type/X::TypeCheck" xlink:title="X::TypeCheck">
<ellipse fill="none" stroke="#000000" cx="422.141" cy="-90" rx="66.8882" ry="18"/>
<text text-anchor="middle" x="422.141" y="-86.3" font-family="FreeSans" font-size="14.00" fill="#000000">X::TypeCheck</text>
</a>
</g>
</g>
<!-- Exception -->
<g id="node4" class="node"><title>Exception</title>
<g id="a_node4"><a xlink:href="/type/Exception" xlink:title="Exception">
<ellipse fill="none" stroke="#000000" cx="422.141" cy="-162" rx="49.2915" ry="18"/>
<text text-anchor="middle" x="422.141" y="-158.3" font-family="FreeSans" font-size="14.00" fill="#000000">Exception</text>
</a>
</g>
</g>
<!-- X::TypeCheck&#45;&gt;Exception -->
<g id="edge1" class="edge"><title>X::TypeCheck&#45;&gt;Exception</title>
<path fill="none" stroke="#000000" d="M422.141,-108.303C422.141,-116.017 422.141,-125.288 422.141,-133.888"/>
<polygon fill="#000000" stroke="#000000" points="418.641,-133.896 422.141,-143.896 425.641,-133.896 418.641,-133.896"/>
</g>
<!-- Mu -->
<g id="node2" class="node"><title>Mu</title>
<g id="a_node2"><a xlink:href="/type/Mu" xlink:title="Mu">
<ellipse fill="none" stroke="#000000" cx="422.141" cy="-306" rx="27" ry="18"/>
<text text-anchor="middle" x="422.141" y="-302.3" font-family="FreeSans" font-size="14.00" fill="#000000">Mu</text>
</a>
</g>
</g>
<!-- Any -->
<g id="node3" class="node"><title>Any</title>
<g id="a_node3"><a xlink:href="/type/Any" xlink:title="Any">
<ellipse fill="none" stroke="#000000" cx="422.141" cy="-234" rx="27" ry="18"/>
<text text-anchor="middle" x="422.141" y="-230.3" font-family="FreeSans" font-size="14.00" fill="#000000">Any</text>
</a>
</g>
</g>
<!-- Any&#45;&gt;Mu -->
<g id="edge2" class="edge"><title>Any&#45;&gt;Mu</title>
<path fill="none" stroke="#000000" d="M422.141,-252.303C422.141,-260.017 422.141,-269.288 422.141,-277.888"/>
<polygon fill="#000000" stroke="#000000" points="418.641,-277.896 422.141,-287.896 425.641,-277.896 418.641,-277.896"/>
</g>
<!-- Exception&#45;&gt;Any -->
<g id="edge3" class="edge"><title>Exception&#45;&gt;Any</title>
<path fill="none" stroke="#000000" d="M422.141,-180.303C422.141,-188.017 422.141,-197.288 422.141,-205.888"/>
<polygon fill="#000000" stroke="#000000" points="418.641,-205.896 422.141,-215.896 425.641,-205.896 418.641,-205.896"/>
</g>
<!-- X::TypeCheck::Return -->
<g id="node5" class="node"><title>X::TypeCheck::Return</title>
<g id="a_node5"><a xlink:href="/type/X::TypeCheck::Return" xlink:title="X::TypeCheck::Return">
<ellipse fill="none" stroke="#000000" cx="98.1413" cy="-18" rx="98.2828" ry="18"/>
<text text-anchor="middle" x="98.1413" y="-14.3" font-family="FreeSans" font-size="14.00" fill="#000000">X::TypeCheck::Return</text>
</a>
</g>
</g>
<!-- X::TypeCheck::Return&#45;&gt;X::TypeCheck -->
<g id="edge4" class="edge"><title>X::TypeCheck::Return&#45;&gt;X::TypeCheck</title>
<path fill="none" stroke="#000000" d="M159.083,-32.1665C217.014,-44.6824 303.651,-63.4002 361.487,-75.8956"/>
<polygon fill="#000000" stroke="#000000" points="361.067,-79.3855 371.58,-78.0763 362.545,-72.5434 361.067,-79.3855"/>
</g>
<!-- X::TypeCheck::Binding -->
<g id="node6" class="node"><title>X::TypeCheck::Binding</title>
<g id="a_node6"><a xlink:href="/type/X::TypeCheck::Binding" xlink:title="X::TypeCheck::Binding">
<ellipse fill="none" stroke="#000000" cx="315.141" cy="-18" rx="100.983" ry="18"/>
<text text-anchor="middle" x="315.141" y="-14.3" font-family="FreeSans" font-size="14.00" fill="#000000">X::TypeCheck::Binding</text>
</a>
</g>
</g>
<!-- X::TypeCheck::Binding&#45;&gt;X::TypeCheck -->
<g id="edge5" class="edge"><title>X::TypeCheck::Binding&#45;&gt;X::TypeCheck</title>
<path fill="none" stroke="#000000" d="M340.499,-35.589C355.099,-45.1405 373.608,-57.2493 389.31,-67.5218"/>
<polygon fill="#000000" stroke="#000000" points="387.418,-70.4662 397.702,-73.0119 391.25,-64.6083 387.418,-70.4662"/>
</g>
<!-- X::TypeCheck::Splice -->
<g id="node7" class="node"><title>X::TypeCheck::Splice</title>
<g id="a_node7"><a xlink:href="/type/X::TypeCheck::Splice" xlink:title="X::TypeCheck::Splice">
<ellipse fill="none" stroke="#000000" cx="529.141" cy="-18" rx="95.5831" ry="18"/>
<text text-anchor="middle" x="529.141" y="-14.3" font-family="FreeSans" font-size="14.00" fill="#000000">X::TypeCheck::Splice</text>
</a>
</g>
</g>
<!-- X::TypeCheck::Splice&#45;&gt;X::TypeCheck -->
<g id="edge6" class="edge"><title>X::TypeCheck::Splice&#45;&gt;X::TypeCheck</title>
<path fill="none" stroke="#000000" d="M504.055,-35.4119C489.357,-45.0269 470.63,-57.2786 454.792,-67.6397"/>
<polygon fill="#000000" stroke="#000000" points="452.787,-64.7691 446.335,-73.1726 456.619,-70.6269 452.787,-64.7691"/>
</g>
<!-- X::TypeCheck::Assignment -->
<g id="node8" class="node"><title>X::TypeCheck::Assignment</title>
<g id="a_node8"><a xlink:href="/type/X::TypeCheck::Assignment" xlink:title="X::TypeCheck::Assignment">
<ellipse fill="none" stroke="#000000" cx="760.141" cy="-18" rx="117.779" ry="18"/>
<text text-anchor="middle" x="760.141" y="-14.3" font-family="FreeSans" font-size="14.00" fill="#000000">X::TypeCheck::Assignment</text>
</a>
</g>
</g>
<!-- X::TypeCheck::Assignment&#45;&gt;X::TypeCheck -->
<g id="edge7" class="edge"><title>X::TypeCheck::Assignment&#45;&gt;X::TypeCheck</title>
<path fill="none" stroke="#000000" d="M693.363,-32.8297C632.256,-45.4852 542.586,-64.0558 483.31,-76.332"/>
<polygon fill="#000000" stroke="#000000" points="482.421,-72.9417 473.338,-78.397 483.841,-79.7963 482.421,-72.9417"/>
</g>
</g>
</svg>
