<?xml version="1.0" encoding="UTF-8" standalone="no"?>
<!DOCTYPE svg PUBLIC "-//W3C//DTD SVG 1.1//EN"
 "http://www.w3.org/Graphics/SVG/1.1/DTD/svg11.dtd">
<!-- Generated by graphviz version 2.38.0 (20140413.2041)
 -->
<!-- Title: perl6&#45;type&#45;graph Pages: 1 -->
<svg width="656pt" height="332pt"
 viewBox="0.00 0.00 656.44 332.00" xmlns="http://www.w3.org/2000/svg" xmlns:xlink="http://www.w3.org/1999/xlink">
<g id="graph0" class="graph" transform="scale(1 1) rotate(0) translate(4 328)">
<title>perl6&#45;type&#45;graph</title>
<polygon fill="white" stroke="none" points="-4,4 -4,-328 652.441,-328 652.441,4 -4,4"/>
<!-- Int -->
<g id="node1" class="node"><title>Int</title>
<g id="a_node1"><a xlink:href="/type/Int" xlink:title="Int">
<ellipse fill="none" stroke="#000000" cx="375.594" cy="-90" rx="27" ry="18"/>
<text text-anchor="middle" x="375.594" y="-86.3" font-family="FreeSans" font-size="14.00" fill="#000000">Int</text>
</a>
</g>
</g>
<!-- Cool -->
<g id="node4" class="node"><title>Cool</title>
<g id="a_node4"><a xlink:href="/type/Cool" xlink:title="Cool">
<ellipse fill="none" stroke="#000000" cx="483.594" cy="-162" rx="28.6953" ry="18"/>
<text text-anchor="middle" x="483.594" y="-158.3" font-family="FreeSans" font-size="14.00" fill="#000000">Cool</text>
</a>
</g>
</g>
<!-- Int&#45;&gt;Cool -->
<g id="edge1" class="edge"><title>Int&#45;&gt;Cool</title>
<path fill="none" stroke="#000000" d="M394.406,-103.193C411.387,-114.199 436.589,-130.534 455.876,-143.034"/>
<polygon fill="#000000" stroke="#000000" points="453.975,-145.973 464.27,-148.475 457.782,-140.099 453.975,-145.973"/>
</g>
<!-- Real -->
<g id="node6" class="node"><title>Real</title>
<g id="a_node6"><a xlink:href="/type/Real" xlink:title="Real">
<ellipse fill="none" stroke="#6666ff" cx="375.594" cy="-162" rx="28.6953" ry="18"/>
<text text-anchor="middle" x="375.594" y="-158.3" font-family="FreeSans" font-size="14.00" fill="#6666ff">Real</text>
</a>
</g>
</g>
<!-- Int&#45;&gt;Real -->
<g id="edge13" class="edge"><title>Int&#45;&gt;Real</title>
<path fill="none" stroke="#6666ff" d="M375.594,-108.303C375.594,-116.017 375.594,-125.288 375.594,-133.888"/>
<polygon fill="#6666ff" stroke="#6666ff" points="372.094,-133.896 375.594,-143.896 379.094,-133.896 372.094,-133.896"/>
</g>
<!-- Mu -->
<g id="node2" class="node"><title>Mu</title>
<g id="a_node2"><a xlink:href="/type/Mu" xlink:title="Mu">
<ellipse fill="none" stroke="#000000" cx="483.594" cy="-306" rx="27" ry="18"/>
<text text-anchor="middle" x="483.594" y="-302.3" font-family="FreeSans" font-size="14.00" fill="#000000">Mu</text>
</a>
</g>
</g>
<!-- Any -->
<g id="node3" class="node"><title>Any</title>
<g id="a_node3"><a xlink:href="/type/Any" xlink:title="Any">
<ellipse fill="none" stroke="#000000" cx="483.594" cy="-234" rx="27" ry="18"/>
<text text-anchor="middle" x="483.594" y="-230.3" font-family="FreeSans" font-size="14.00" fill="#000000">Any</text>
</a>
</g>
</g>
<!-- Any&#45;&gt;Mu -->
<g id="edge2" class="edge"><title>Any&#45;&gt;Mu</title>
<path fill="none" stroke="#000000" d="M483.594,-252.303C483.594,-260.017 483.594,-269.288 483.594,-277.888"/>
<polygon fill="#000000" stroke="#000000" points="480.094,-277.896 483.594,-287.896 487.094,-277.896 480.094,-277.896"/>
</g>
<!-- Cool&#45;&gt;Any -->
<g id="edge3" class="edge"><title>Cool&#45;&gt;Any</title>
<path fill="none" stroke="#000000" d="M483.594,-180.303C483.594,-188.017 483.594,-197.288 483.594,-205.888"/>
<polygon fill="#000000" stroke="#000000" points="480.094,-205.896 483.594,-215.896 487.094,-205.896 480.094,-205.896"/>
</g>
<!-- Numeric -->
<g id="node5" class="node"><title>Numeric</title>
<g id="a_node5"><a xlink:href="/type/Numeric" xlink:title="Numeric">
<ellipse fill="none" stroke="#6666ff" cx="375.594" cy="-234" rx="44.393" ry="18"/>
<text text-anchor="middle" x="375.594" y="-230.3" font-family="FreeSans" font-size="14.00" fill="#6666ff">Numeric</text>
</a>
</g>
</g>
<!-- Real&#45;&gt;Numeric -->
<g id="edge14" class="edge"><title>Real&#45;&gt;Numeric</title>
<path fill="none" stroke="#6666ff" d="M375.594,-180.303C375.594,-188.017 375.594,-197.288 375.594,-205.888"/>
<polygon fill="#6666ff" stroke="#6666ff" points="372.094,-205.896 375.594,-215.896 379.094,-205.896 372.094,-205.896"/>
</g>
<!-- PromiseStatus -->
<g id="node7" class="node"><title>PromiseStatus</title>
<g id="a_node7"><a xlink:href="/type/PromiseStatus" xlink:title="PromiseStatus">
<ellipse fill="none" stroke="#33bb33" cx="67.594" cy="-18" rx="67.6881" ry="18"/>
<text text-anchor="middle" x="67.594" y="-14.3" font-family="FreeSans" font-size="14.00" fill="#33bb33">PromiseStatus</text>
</a>
</g>
</g>
<!-- PromiseStatus&#45;&gt;Int -->
<g id="edge4" class="edge"><title>PromiseStatus&#45;&gt;Int</title>
<path fill="none" stroke="#000000" d="M117.422,-30.3245C179.961,-44.538 285.649,-68.5579 340.383,-80.9975"/>
<polygon fill="#000000" stroke="#000000" points="339.779,-84.4494 350.306,-83.2527 341.33,-77.6234 339.779,-84.4494"/>
</g>
<!-- Bool -->
<g id="node8" class="node"><title>Bool</title>
<g id="a_node8"><a xlink:href="/type/Bool" xlink:title="Bool">
<ellipse fill="none" stroke="#33bb33" cx="181.594" cy="-18" rx="28.6953" ry="18"/>
<text text-anchor="middle" x="181.594" y="-14.3" font-family="FreeSans" font-size="14.00" fill="#33bb33">Bool</text>
</a>
</g>
</g>
<!-- Bool&#45;&gt;Int -->
<g id="edge5" class="edge"><title>Bool&#45;&gt;Int</title>
<path fill="none" stroke="#000000" d="M204.138,-29.0854C212.321,-32.7461 219.594,-36 219.594,-36 219.594,-36 296.552,-62.1461 342.363,-77.7099"/>
<polygon fill="#000000" stroke="#000000" points="341.307,-81.0475 351.901,-80.9504 343.558,-74.4196 341.307,-81.0475"/>
</g>
<!-- atomicint -->
<g id="node9" class="node"><title>atomicint</title>
<g id="a_node9"><a xlink:href="/type/atomicint" xlink:title="atomicint">
<ellipse fill="none" stroke="#000000" cx="274.594" cy="-18" rx="46.2923" ry="18"/>
<text text-anchor="middle" x="274.594" y="-14.3" font-family="FreeSans" font-size="14.00" fill="#000000">atomicint</text>
</a>
</g>
</g>
<!-- atomicint&#45;&gt;Int -->
<g id="edge6" class="edge"><title>atomicint&#45;&gt;Int</title>
<path fill="none" stroke="#000000" d="M296.509,-34.189C311.88,-44.8421 332.52,-59.1464 348.859,-70.4708"/>
<polygon fill="#000000" stroke="#000000" points="347.221,-73.5937 357.433,-76.4134 351.208,-67.8404 347.221,-73.5937"/>
</g>
<!-- int -->
<g id="node10" class="node"><title>int</title>
<g id="a_node10"><a xlink:href="/type/int" xlink:title="int">
<ellipse fill="none" stroke="#000000" cx="365.594" cy="-18" rx="27" ry="18"/>
<text text-anchor="middle" x="365.594" y="-14.3" font-family="FreeSans" font-size="14.00" fill="#000000">int</text>
</a>
</g>
</g>
<!-- int&#45;&gt;Int -->
<g id="edge7" class="edge"><title>int&#45;&gt;Int</title>
<path fill="none" stroke="#000000" d="M368.015,-35.945C369.116,-43.6544 370.447,-52.9731 371.685,-61.6358"/>
<polygon fill="#000000" stroke="#000000" points="368.247,-62.3202 373.126,-71.7247 375.177,-61.3302 368.247,-62.3202"/>
</g>
<!-- Signal -->
<g id="node11" class="node"><title>Signal</title>
<g id="a_node11"><a xlink:href="/type/Signal" xlink:title="Signal">
<ellipse fill="none" stroke="#33bb33" cx="445.594" cy="-18" rx="35.194" ry="18"/>
<text text-anchor="middle" x="445.594" y="-14.3" font-family="FreeSans" font-size="14.00" fill="#33bb33">Signal</text>
</a>
</g>
</g>
<!-- Signal&#45;&gt;Int -->
<g id="edge8" class="edge"><title>Signal&#45;&gt;Int</title>
<path fill="none" stroke="#000000" d="M430.059,-34.5353C420.465,-44.1291 408.01,-56.5839 397.433,-67.1615"/>
<polygon fill="#000000" stroke="#000000" points="394.726,-64.9181 390.13,-74.4641 399.676,-69.8679 394.726,-64.9181"/>
</g>
<!-- Order -->
<g id="node12" class="node"><title>Order</title>
<g id="a_node12"><a xlink:href="/type/Order" xlink:title="Order">
<ellipse fill="none" stroke="#33bb33" cx="532.594" cy="-18" rx="33.5952" ry="18"/>
<text text-anchor="middle" x="532.594" y="-14.3" font-family="FreeSans" font-size="14.00" fill="#33bb33">Order</text>
</a>
</g>
</g>
<!-- Order&#45;&gt;Int -->
<g id="edge9" class="edge"><title>Order&#45;&gt;Int</title>
<path fill="none" stroke="#000000" d="M507.369,-30.2467C480.112,-42.3995 436.63,-61.7863 407.134,-74.9374"/>
<polygon fill="#000000" stroke="#000000" points="405.419,-71.8699 397.711,-79.1388 408.27,-78.2633 405.419,-71.8699"/>
</g>
<!-- Stringy -->
<g id="node13" class="node"><title>Stringy</title>
<g id="a_node13"><a xlink:href="/type/Stringy" xlink:title="Stringy">
<ellipse fill="none" stroke="#6666ff" cx="606.594" cy="-162" rx="38.1938" ry="18"/>
<text text-anchor="middle" x="606.594" y="-158.3" font-family="FreeSans" font-size="14.00" fill="#6666ff">Stringy</text>
</a>
</g>
</g>
<!-- Str -->
<g id="node14" class="node"><title>Str</title>
<g id="a_node14"><a xlink:href="/type/Str" xlink:title="Str">
<ellipse fill="none" stroke="#000000" cx="606.594" cy="-90" rx="27" ry="18"/>
<text text-anchor="middle" x="606.594" y="-86.3" font-family="FreeSans" font-size="14.00" fill="#000000">Str</text>
</a>
</g>
</g>
<!-- Str&#45;&gt;Cool -->
<g id="edge10" class="edge"><title>Str&#45;&gt;Cool</title>
<path fill="none" stroke="#000000" d="M586.558,-102.403C566.575,-113.775 535.659,-131.369 512.916,-144.313"/>
<polygon fill="#000000" stroke="#000000" points="510.991,-141.381 504.031,-149.369 514.453,-147.465 510.991,-141.381"/>
</g>
<!-- Str&#45;&gt;Stringy -->
<g id="edge15" class="edge"><title>Str&#45;&gt;Stringy</title>
<path fill="none" stroke="#6666ff" d="M606.594,-108.303C606.594,-116.017 606.594,-125.288 606.594,-133.888"/>
<polygon fill="#6666ff" stroke="#6666ff" points="603.094,-133.896 606.594,-143.896 610.094,-133.896 603.094,-133.896"/>
</g>
<!-- IntStr -->
<g id="node15" class="node"><title>IntStr</title>
<g id="a_node15"><a xlink:href="/type/IntStr" xlink:title="IntStr">
<ellipse fill="none" stroke="#000000" cx="616.594" cy="-18" rx="31.6951" ry="18"/>
<text text-anchor="middle" x="616.594" y="-14.3" font-family="FreeSans" font-size="14.00" fill="#000000">IntStr</text>
</a>
</g>
</g>
<!-- IntStr&#45;&gt;Int -->
<g id="edge11" class="edge"><title>IntStr&#45;&gt;Int</title>
<path fill="none" stroke="#000000" d="M591.328,-29.476C582.891,-32.9744 575.594,-36 575.594,-36 575.594,-36 467.503,-64.6442 410.248,-79.8166"/>
<polygon fill="#000000" stroke="#000000" points="409.29,-76.4498 400.52,-82.3947 411.083,-83.2162 409.29,-76.4498"/>
</g>
<!-- IntStr&#45;&gt;Str -->
<g id="edge12" class="edge"><title>IntStr&#45;&gt;Str</title>
<path fill="none" stroke="#000000" d="M614.122,-36.3034C613.02,-44.0173 611.696,-53.2875 610.467,-61.8876"/>
<polygon fill="#000000" stroke="#000000" points="606.987,-61.5012 609.037,-71.8957 613.917,-62.4912 606.987,-61.5012"/>
</g>
</g>
</svg>
