<?xml version="1.0" encoding="UTF-8" standalone="no"?>
<!DOCTYPE svg PUBLIC "-//W3C//DTD SVG 1.1//EN"
 "http://www.w3.org/Graphics/SVG/1.1/DTD/svg11.dtd">
<!-- Generated by graphviz version 2.38.0 (20140413.2041)
 -->
<!-- Title: perl6&#45;type&#45;graph Pages: 1 -->
<svg width="1633pt" height="1082pt"
 viewBox="0.00 0.00 1632.51 1081.62" xmlns="http://www.w3.org/2000/svg" xmlns:xlink="http://www.w3.org/1999/xlink">
<g id="graph0" class="graph" transform="scale(1 1) rotate(0) translate(855.781 508.114)">
<title>perl6&#45;type&#45;graph</title>
<polygon fill="white" stroke="none" points="-855.781,573.504 -855.781,-508.114 776.733,-508.114 776.733,573.504 -855.781,573.504"/>
<!-- Metamodel::Documenting -->
<g id="node1" class="node"><title>Metamodel::Documenting</title>
<g id="a_node1"><a xlink:href="/type/Metamodel::Documenting" xlink:title="Metamodel::Documenting">
<ellipse fill="none" stroke="#6666ff" cx="13.5113" cy="291.965" rx="111.28" ry="18"/>
<text text-anchor="middle" x="13.5113" y="295.665" font-family="FreeSans" font-size="14.00" fill="#6666ff">Metamodel::Documenting</text>
</a>
</g>
</g>
<!-- Mu -->
<g id="node2" class="node"><title>Mu</title>
<g id="a_node2"><a xlink:href="/type/Mu" xlink:title="Mu">
<ellipse fill="none" stroke="#000000" cx="691.493" cy="61.3535" rx="27" ry="18"/>
<text text-anchor="middle" x="691.493" y="65.0535" font-family="FreeSans" font-size="14.00" fill="#000000">Mu</text>
</a>
</g>
</g>
<!-- Any -->
<g id="node3" class="node"><title>Any</title>
<g id="a_node3"><a xlink:href="/type/Any" xlink:title="Any">
<ellipse fill="none" stroke="#000000" cx="462.969" cy="239.921" rx="27" ry="18"/>
<text text-anchor="middle" x="462.969" y="243.621" font-family="FreeSans" font-size="14.00" fill="#000000">Any</text>
</a>
</g>
</g>
<!-- Any&#45;&gt;Mu -->
<g id="edge1" class="edge"><title>Any&#45;&gt;Mu</title>
<path fill="none" stroke="#000000" d="M480.521,226.206C520.567,194.914 618.825,118.136 665.743,81.4743"/>
<polygon fill="#000000" stroke="#000000" points="663.846,78.5149 673.881,75.1156 668.156,84.0307 663.846,78.5149"/>
</g>
<!-- Metamodel::Naming -->
<g id="node4" class="node"><title>Metamodel::Naming</title>
<g id="a_node4"><a xlink:href="/type/Metamodel::Naming" xlink:title="Metamodel::Naming">
<ellipse fill="none" stroke="#6666ff" cx="193.229" cy="129.311" rx="90.1842" ry="18"/>
<text text-anchor="middle" x="193.229" y="133.011" font-family="FreeSans" font-size="14.00" fill="#6666ff">Metamodel::Naming</text>
</a>
</g>
</g>
<!-- Metamodel::Versioning -->
<g id="node5" class="node"><title>Metamodel::Versioning</title>
<g id="a_node5"><a xlink:href="/type/Metamodel::Versioning" xlink:title="Metamodel::Versioning">
<ellipse fill="none" stroke="#6666ff" cx="-27.3049" cy="90.1299" rx="100.983" ry="18"/>
<text text-anchor="middle" x="-27.3049" y="93.8299" font-family="FreeSans" font-size="14.00" fill="#6666ff">Metamodel::Versioning</text>
</a>
</g>
</g>
<!-- Metamodel::Stashing -->
<g id="node6" class="node"><title>Metamodel::Stashing</title>
<g id="a_node6"><a xlink:href="/type/Metamodel::Stashing" xlink:title="Metamodel::Stashing">
<ellipse fill="none" stroke="#6666ff" cx="-186.121" cy="357.828" rx="93.6835" ry="18"/>
<text text-anchor="middle" x="-186.121" y="361.528" font-family="FreeSans" font-size="14.00" fill="#6666ff">Metamodel::Stashing</text>
</a>
</g>
</g>
<!-- Metamodel::TypePretense -->
<g id="node7" class="node"><title>Metamodel::TypePretense</title>
<g id="a_node7"><a xlink:href="/type/Metamodel::TypePretense" xlink:title="Metamodel::TypePretense">
<ellipse fill="none" stroke="#6666ff" cx="-339.924" cy="549.427" rx="114.28" ry="18"/>
<text text-anchor="middle" x="-339.924" y="553.127" font-family="FreeSans" font-size="14.00" fill="#6666ff">Metamodel::TypePretense</text>
</a>
</g>
</g>
<!-- Metamodel::MethodDelegation -->
<g id="node8" class="node"><title>Metamodel::MethodDelegation</title>
<g id="a_node8"><a xlink:href="/type/Metamodel::MethodDelegation" xlink:title="Metamodel::MethodDelegation">
<ellipse fill="none" stroke="#6666ff" cx="345.76" cy="546.269" rx="131.077" ry="18"/>
<text text-anchor="middle" x="345.76" y="549.969" font-family="FreeSans" font-size="14.00" fill="#6666ff">Metamodel::MethodDelegation</text>
</a>
</g>
</g>
<!-- Metamodel::ModuleHOW -->
<g id="node9" class="node"><title>Metamodel::ModuleHOW</title>
<g id="a_node9"><a xlink:href="/type/Metamodel::ModuleHOW" xlink:title="Metamodel::ModuleHOW">
<ellipse fill="none" stroke="#000000" cx="220.072" cy="348.559" rx="111.28" ry="18"/>
<text text-anchor="middle" x="220.072" y="352.259" font-family="FreeSans" font-size="14.00" fill="#000000">Metamodel::ModuleHOW</text>
</a>
</g>
</g>
<!-- Metamodel::ModuleHOW&#45;&gt;Metamodel::Documenting -->
<g id="edge9" class="edge"><title>Metamodel::ModuleHOW&#45;&gt;Metamodel::Documenting</title>
<path fill="none" stroke="#6666ff" d="M163.355,333.02C137.507,325.938 106.737,317.508 79.8256,310.134"/>
<polygon fill="#6666ff" stroke="#6666ff" points="78.8211,313.488 70.1015,307.47 80.6709,306.737 78.8211,313.488"/>
</g>
<!-- Metamodel::ModuleHOW&#45;&gt;Any -->
<g id="edge2" class="edge"><title>Metamodel::ModuleHOW&#45;&gt;Any</title>
<path fill="none" stroke="#000000" d="M258.024,331.585C305.634,310.291 386.422,274.157 431.021,254.21"/>
<polygon fill="#000000" stroke="#000000" points="429.669,250.98 440.227,250.092 432.527,257.37 429.669,250.98"/>
</g>
<!-- Metamodel::ModuleHOW&#45;&gt;Metamodel::Naming -->
<g id="edge8" class="edge"><title>Metamodel::ModuleHOW&#45;&gt;Metamodel::Naming</title>
<path fill="none" stroke="#6666ff" d="M217.829,330.243C213.14,291.941 202.27,203.157 196.682,157.517"/>
<polygon fill="#6666ff" stroke="#6666ff" points="193.187,157.772 195.446,147.42 200.135,156.921 193.187,157.772"/>
</g>
<!-- Metamodel::ModuleHOW&#45;&gt;Metamodel::Versioning -->
<g id="edge10" class="edge"><title>Metamodel::ModuleHOW&#45;&gt;Metamodel::Versioning</title>
<path fill="none" stroke="#6666ff" d="M202.677,330.387C159.369,285.145 46.6367,167.375 -3.11185,115.404"/>
<polygon fill="#6666ff" stroke="#6666ff" points="-5.87092,117.583 -10.2575,107.939 -0.814202,112.743 -5.87092,117.583"/>
</g>
<!-- Metamodel::ModuleHOW&#45;&gt;Metamodel::Stashing -->
<g id="edge11" class="edge"><title>Metamodel::ModuleHOW&#45;&gt;Metamodel::Stashing</title>
<path fill="none" stroke="#6666ff" d="M109.882,351.074C49.8064,352.444 -24.0939,354.131 -83.0255,355.475"/>
<polygon fill="#6666ff" stroke="#6666ff" points="-83.0202,358.976 -93.0975,355.705 -83.18,351.978 -83.0202,358.976"/>
</g>
<!-- Metamodel::ModuleHOW&#45;&gt;Metamodel::TypePretense -->
<g id="edge12" class="edge"><title>Metamodel::ModuleHOW&#45;&gt;Metamodel::TypePretense</title>
<path fill="none" stroke="#6666ff" d="M174.245,364.997C72.1849,401.606 -173.524,489.74 -284.212,529.444"/>
<polygon fill="#6666ff" stroke="#6666ff" points="-283.263,532.822 -293.858,532.903 -285.627,526.233 -283.263,532.822"/>
</g>
<!-- Metamodel::ModuleHOW&#45;&gt;Metamodel::MethodDelegation -->
<g id="edge13" class="edge"><title>Metamodel::ModuleHOW&#45;&gt;Metamodel::MethodDelegation</title>
<path fill="none" stroke="#6666ff" d="M231.671,366.805C253.931,401.821 302.735,478.59 328.709,519.447"/>
<polygon fill="#6666ff" stroke="#6666ff" points="331.778,517.751 334.189,528.067 325.87,521.506 331.778,517.751"/>
</g>
<!-- Metamodel::PackageHOW -->
<g id="node10" class="node"><title>Metamodel::PackageHOW</title>
<g id="a_node10"><a xlink:href="/type/Metamodel::PackageHOW" xlink:title="Metamodel::PackageHOW">
<ellipse fill="none" stroke="#000000" cx="6.44193" cy="551.504" rx="116.18" ry="18"/>
<text text-anchor="middle" x="6.44193" y="555.204" font-family="FreeSans" font-size="14.00" fill="#000000">Metamodel::PackageHOW</text>
</a>
</g>
</g>
<!-- Metamodel::PackageHOW&#45;&gt;Metamodel::Documenting -->
<g id="edge15" class="edge"><title>Metamodel::PackageHOW&#45;&gt;Metamodel::Documenting</title>
<path fill="none" stroke="#6666ff" d="M6.93903,533.253C8.15336,488.671 11.2778,373.964 12.7378,320.361"/>
<polygon fill="#6666ff" stroke="#6666ff" points="9.24363,320.096 13.0147,310.195 16.241,320.287 9.24363,320.096"/>
</g>
<!-- Metamodel::PackageHOW&#45;&gt;Any -->
<g id="edge3" class="edge"><title>Metamodel::PackageHOW&#45;&gt;Any</title>
<path fill="none" stroke="#000000" d="M34.5502,534.012C113.715,484.749 332.808,348.41 332.808,348.41 332.808,348.41 400.107,292.317 437.921,260.799"/>
<polygon fill="#000000" stroke="#000000" points="436.03,257.818 445.953,254.104 440.512,263.195 436.03,257.818"/>
</g>
<!-- Metamodel::PackageHOW&#45;&gt;Metamodel::Naming -->
<g id="edge14" class="edge"><title>Metamodel::PackageHOW&#45;&gt;Metamodel::Naming</title>
<path fill="none" stroke="#6666ff" d="M14.8666,533.246C42.1374,474.145 126.25,291.859 126.25,291.859 126.25,291.859 162.805,203.145 181.904,156.794"/>
<polygon fill="#6666ff" stroke="#6666ff" points="178.759,155.24 185.805,147.327 185.231,157.907 178.759,155.24"/>
</g>
<!-- Metamodel::PackageHOW&#45;&gt;Metamodel::Stashing -->
<g id="edge16" class="edge"><title>Metamodel::PackageHOW&#45;&gt;Metamodel::Stashing</title>
<path fill="none" stroke="#6666ff" d="M-11.3288,533.63C-45.7202,499.04 -121.463,422.859 -160.993,383.101"/>
<polygon fill="#6666ff" stroke="#6666ff" points="-163.825,385.217 -168.394,375.658 -158.861,380.282 -163.825,385.217"/>
</g>
<!-- Metamodel::PackageHOW&#45;&gt;Metamodel::TypePretense -->
<g id="edge17" class="edge"><title>Metamodel::PackageHOW&#45;&gt;Metamodel::TypePretense</title>
<path fill="none" stroke="#6666ff" d="M-109.857,550.806C-143.753,550.603 -180.92,550.38 -215.307,550.174"/>
<polygon fill="#6666ff" stroke="#6666ff" points="-215.425,553.674 -225.404,550.114 -215.383,546.674 -215.425,553.674"/>
</g>
<!-- Metamodel::PackageHOW&#45;&gt;Metamodel::MethodDelegation -->
<g id="edge18" class="edge"><title>Metamodel::PackageHOW&#45;&gt;Metamodel::MethodDelegation</title>
<path fill="none" stroke="#6666ff" d="M122.267,549.717C148.856,549.307 177.413,548.866 204.927,548.442"/>
<polygon fill="#6666ff" stroke="#6666ff" points="204.959,544.941 215.012,548.286 205.067,551.94 204.959,544.941"/>
</g>
<!-- Metamodel::AttributeContainer -->
<g id="node11" class="node"><title>Metamodel::AttributeContainer</title>
<g id="a_node11"><a xlink:href="/type/Metamodel::AttributeContainer" xlink:title="Metamodel::AttributeContainer">
<ellipse fill="none" stroke="#6666ff" cx="-445.325" cy="280.051" rx="129.977" ry="18"/>
<text text-anchor="middle" x="-445.325" y="283.751" font-family="FreeSans" font-size="14.00" fill="#6666ff">Metamodel::AttributeContainer</text>
</a>
</g>
</g>
<!-- Metamodel::Finalization -->
<g id="node12" class="node"><title>Metamodel::Finalization</title>
<g id="a_node12"><a xlink:href="/type/Metamodel::Finalization" xlink:title="Metamodel::Finalization">
<ellipse fill="none" stroke="#6666ff" cx="-409.991" cy="-476.326" rx="103.982" ry="18"/>
<text text-anchor="middle" x="-409.991" y="-472.626" font-family="FreeSans" font-size="14.00" fill="#6666ff">Metamodel::Finalization</text>
</a>
</g>
</g>
<!-- Metamodel::MethodContainer -->
<g id="node13" class="node"><title>Metamodel::MethodContainer</title>
<g id="a_node13"><a xlink:href="/type/Metamodel::MethodContainer" xlink:title="Metamodel::MethodContainer">
<ellipse fill="none" stroke="#6666ff" cx="540.389" cy="-181.87" rx="127.277" ry="18"/>
<text text-anchor="middle" x="540.389" y="-178.17" font-family="FreeSans" font-size="14.00" fill="#6666ff">Metamodel::MethodContainer</text>
</a>
</g>
</g>
<!-- Metamodel::PrivateMethodContainer -->
<g id="node14" class="node"><title>Metamodel::PrivateMethodContainer</title>
<g id="a_node14"><a xlink:href="/type/Metamodel::PrivateMethodContainer" xlink:title="Metamodel::PrivateMethodContainer">
<ellipse fill="none" stroke="#6666ff" cx="-435.905" cy="2.33373" rx="154.873" ry="18"/>
<text text-anchor="middle" x="-435.905" y="6.03373" font-family="FreeSans" font-size="14.00" fill="#6666ff">Metamodel::PrivateMethodContainer</text>
</a>
</g>
</g>
<!-- Metamodel::MultiMethodContainer -->
<g id="node15" class="node"><title>Metamodel::MultiMethodContainer</title>
<g id="a_node15"><a xlink:href="/type/Metamodel::MultiMethodContainer" xlink:title="Metamodel::MultiMethodContainer">
<ellipse fill="none" stroke="#6666ff" cx="-705.544" cy="160.779" rx="146.474" ry="18"/>
<text text-anchor="middle" x="-705.544" y="164.479" font-family="FreeSans" font-size="14.00" fill="#6666ff">Metamodel::MultiMethodContainer</text>
</a>
</g>
</g>
<!-- Metamodel::RoleContainer -->
<g id="node16" class="node"><title>Metamodel::RoleContainer</title>
<g id="a_node16"><a xlink:href="/type/Metamodel::RoleContainer" xlink:title="Metamodel::RoleContainer">
<ellipse fill="none" stroke="#6666ff" cx="243.772" cy="-246.536" rx="115.88" ry="18"/>
<text text-anchor="middle" x="243.772" y="-242.836" font-family="FreeSans" font-size="14.00" fill="#6666ff">Metamodel::RoleContainer</text>
</a>
</g>
</g>
<!-- Metamodel::MultipleInheritance -->
<g id="node17" class="node"><title>Metamodel::MultipleInheritance</title>
<g id="a_node17"><a xlink:href="/type/Metamodel::MultipleInheritance" xlink:title="Metamodel::MultipleInheritance">
<ellipse fill="none" stroke="#6666ff" cx="357.82" cy="-9.3214" rx="133.776" ry="18"/>
<text text-anchor="middle" x="357.82" y="-5.6214" font-family="FreeSans" font-size="14.00" fill="#6666ff">Metamodel::MultipleInheritance</text>
</a>
</g>
</g>
<!-- Metamodel::DefaultParent -->
<g id="node18" class="node"><title>Metamodel::DefaultParent</title>
<g id="a_node18"><a xlink:href="/type/Metamodel::DefaultParent" xlink:title="Metamodel::DefaultParent">
<ellipse fill="none" stroke="#6666ff" cx="-149.101" cy="-482.63" rx="113.18" ry="18"/>
<text text-anchor="middle" x="-149.101" y="-478.93" font-family="FreeSans" font-size="14.00" fill="#6666ff">Metamodel::DefaultParent</text>
</a>
</g>
</g>
<!-- Metamodel::C3MRO -->
<g id="node19" class="node"><title>Metamodel::C3MRO</title>
<g id="a_node19"><a xlink:href="/type/Metamodel::C3MRO" xlink:title="Metamodel::C3MRO">
<ellipse fill="none" stroke="#6666ff" cx="-680.581" cy="-150.069" rx="92.0841" ry="18"/>
<text text-anchor="middle" x="-680.581" y="-146.369" font-family="FreeSans" font-size="14.00" fill="#6666ff">Metamodel::C3MRO</text>
</a>
</g>
</g>
<!-- Metamodel::MROBasedMethodDispatch -->
<g id="node20" class="node"><title>Metamodel::MROBasedMethodDispatch</title>
<g id="a_node20"><a xlink:href="/type/Metamodel::MROBasedMethodDispatch" xlink:title="Metamodel::MROBasedMethodDispatch">
<ellipse fill="none" stroke="#6666ff" cx="-40.428" cy="-264.746" rx="169.77" ry="18"/>
<text text-anchor="middle" x="-40.428" y="-261.046" font-family="FreeSans" font-size="14.00" fill="#6666ff">Metamodel::MROBasedMethodDispatch</text>
</a>
</g>
</g>
<!-- Metamodel::MROBasedTypeChecking -->
<g id="node21" class="node"><title>Metamodel::MROBasedTypeChecking</title>
<g id="a_node21"><a xlink:href="/type/Metamodel::MROBasedTypeChecking" xlink:title="Metamodel::MROBasedTypeChecking">
<ellipse fill="none" stroke="#6666ff" cx="-348.889" cy="-234.889" rx="163.271" ry="18"/>
<text text-anchor="middle" x="-348.889" y="-231.189" font-family="FreeSans" font-size="14.00" fill="#6666ff">Metamodel::MROBasedTypeChecking</text>
</a>
</g>
</g>
<!-- Metamodel::Trusting -->
<g id="node22" class="node"><title>Metamodel::Trusting</title>
<g id="a_node22"><a xlink:href="/type/Metamodel::Trusting" xlink:title="Metamodel::Trusting">
<ellipse fill="none" stroke="#6666ff" cx="-691.138" cy="-450.597" rx="91.784" ry="18"/>
<text text-anchor="middle" x="-691.138" y="-446.897" font-family="FreeSans" font-size="14.00" fill="#6666ff">Metamodel::Trusting</text>
</a>
</g>
</g>
<!-- Metamodel::BUILDPLAN -->
<g id="node23" class="node"><title>Metamodel::BUILDPLAN</title>
<g id="a_node23"><a xlink:href="/type/Metamodel::BUILDPLAN" xlink:title="Metamodel::BUILDPLAN">
<ellipse fill="none" stroke="#6666ff" cx="390.931" cy="-476.883" rx="109.681" ry="18"/>
<text text-anchor="middle" x="390.931" y="-473.183" font-family="FreeSans" font-size="14.00" fill="#6666ff">Metamodel::BUILDPLAN</text>
</a>
</g>
</g>
<!-- Metamodel::Mixins -->
<g id="node24" class="node"><title>Metamodel::Mixins</title>
<g id="a_node24"><a xlink:href="/type/Metamodel::Mixins" xlink:title="Metamodel::Mixins">
<ellipse fill="none" stroke="#6666ff" cx="681.403" cy="-424.147" rx="85.2851" ry="18"/>
<text text-anchor="middle" x="681.403" y="-420.447" font-family="FreeSans" font-size="14.00" fill="#6666ff">Metamodel::Mixins</text>
</a>
</g>
</g>
<!-- Metamodel::BoolificationProtocol -->
<g id="node25" class="node"><title>Metamodel::BoolificationProtocol</title>
<g id="a_node25"><a xlink:href="/type/Metamodel::BoolificationProtocol" xlink:title="Metamodel::BoolificationProtocol">
<ellipse fill="none" stroke="#6666ff" cx="113.073" cy="-486.114" rx="139.175" ry="18"/>
<text text-anchor="middle" x="113.073" y="-482.414" font-family="FreeSans" font-size="14.00" fill="#6666ff">Metamodel::BoolificationProtocol</text>
</a>
</g>
</g>
<!-- Metamodel::ClassHOW -->
<g id="node26" class="node"><title>Metamodel::ClassHOW</title>
<g id="a_node26"><a xlink:href="/type/Metamodel::ClassHOW" xlink:title="Metamodel::ClassHOW">
<ellipse fill="none" stroke="#000000" cx="94.2246" cy="-77.8256" rx="103.982" ry="18"/>
<text text-anchor="middle" x="94.2246" y="-74.1256" font-family="FreeSans" font-size="14.00" fill="#000000">Metamodel::ClassHOW</text>
</a>
</g>
</g>
<!-- Metamodel::ClassHOW&#45;&gt;Metamodel::Documenting -->
<g id="edge20" class="edge"><title>Metamodel::ClassHOW&#45;&gt;Metamodel::Documenting</title>
<path fill="none" stroke="#6666ff" d="M92.1346,-59.536C87.1613,-16.016 75.036,90.0901 75.036,90.0901 75.036,90.0901 39.0169,208.276 22.0981,263.79"/>
<polygon fill="#6666ff" stroke="#6666ff" points="25.343,265.149 19.0797,273.694 18.6471,263.108 25.343,265.149"/>
</g>
<!-- Metamodel::ClassHOW&#45;&gt;Any -->
<g id="edge4" class="edge"><title>Metamodel::ClassHOW&#45;&gt;Any</title>
<path fill="none" stroke="#000000" d="M114.84,-60.0613C178.24,-5.42997 370.161,159.948 438.489,218.827"/>
<polygon fill="#000000" stroke="#000000" points="440.902,216.286 446.193,225.465 436.332,221.588 440.902,216.286"/>
</g>
<!-- Metamodel::ClassHOW&#45;&gt;Metamodel::Naming -->
<g id="edge19" class="edge"><title>Metamodel::ClassHOW&#45;&gt;Metamodel::Naming</title>
<path fill="none" stroke="#6666ff" d="M102.837,-59.806C120.245,-23.3861 159.701,59.1646 180.246,102.149"/>
<polygon fill="#6666ff" stroke="#6666ff" points="183.411,100.654 184.565,111.185 177.095,103.672 183.411,100.654"/>
</g>
<!-- Metamodel::ClassHOW&#45;&gt;Metamodel::Versioning -->
<g id="edge21" class="edge"><title>Metamodel::ClassHOW&#45;&gt;Metamodel::Versioning</title>
<path fill="none" stroke="#6666ff" d="M81.2188,-59.8514C59.7117,-30.1282 16.641,29.396 -8.28647,63.8462"/>
<polygon fill="#6666ff" stroke="#6666ff" points="-5.51118,65.9813 -14.2089,72.0311 -11.1823,61.8778 -5.51118,65.9813"/>
</g>
<!-- Metamodel::ClassHOW&#45;&gt;Metamodel::Stashing -->
<g id="edge22" class="edge"><title>Metamodel::ClassHOW&#45;&gt;Metamodel::Stashing</title>
<path fill="none" stroke="#6666ff" d="M92.1346,-59.536C87.1613,-16.016 75.036,90.0901 75.036,90.0901 75.036,90.0901 -96.5457,265.995 -161.555,332.642"/>
<polygon fill="#6666ff" stroke="#6666ff" points="-159.093,335.13 -168.581,339.845 -164.104,330.242 -159.093,335.13"/>
</g>
<!-- Metamodel::ClassHOW&#45;&gt;Metamodel::AttributeContainer -->
<g id="edge23" class="edge"><title>Metamodel::ClassHOW&#45;&gt;Metamodel::AttributeContainer</title>
<path fill="none" stroke="#6666ff" d="M56.8277,-60.9417C-54.7072,-10.5861 -377.339,135.075 -377.339,135.075 -377.339,135.075 -412.875,210.854 -432.564,252.839"/>
<polygon fill="#6666ff" stroke="#6666ff" points="-429.437,254.415 -436.852,261.983 -435.775,251.443 -429.437,254.415"/>
</g>
<!-- Metamodel::ClassHOW&#45;&gt;Metamodel::Finalization -->
<g id="edge24" class="edge"><title>Metamodel::ClassHOW&#45;&gt;Metamodel::Finalization</title>
<path fill="none" stroke="#6666ff" d="M65.7224,-95.2323C-10.2135,-141.608 -211.66,-264.634 -211.66,-264.634 -211.66,-264.634 -333.399,-394.573 -386.12,-450.847"/>
<polygon fill="#6666ff" stroke="#6666ff" points="-388.799,-448.586 -393.082,-458.277 -383.69,-453.372 -388.799,-448.586"/>
</g>
<!-- Metamodel::ClassHOW&#45;&gt;Metamodel::MethodContainer -->
<g id="edge25" class="edge"><title>Metamodel::ClassHOW&#45;&gt;Metamodel::MethodContainer</title>
<path fill="none" stroke="#6666ff" d="M156.262,-92.2926C236.841,-111.083 377.446,-143.872 464.356,-164.139"/>
<polygon fill="#6666ff" stroke="#6666ff" points="463.625,-167.563 474.158,-166.425 465.215,-160.746 463.625,-167.563"/>
</g>
<!-- Metamodel::ClassHOW&#45;&gt;Metamodel::PrivateMethodContainer -->
<g id="edge26" class="edge"><title>Metamodel::ClassHOW&#45;&gt;Metamodel::PrivateMethodContainer</title>
<path fill="none" stroke="#6666ff" d="M15.717,-65.9547C-76.3322,-52.0362 -229.264,-28.9119 -331.311,-13.4815"/>
<polygon fill="#6666ff" stroke="#6666ff" points="-330.922,-10.0008 -341.333,-11.9663 -331.968,-16.9221 -330.922,-10.0008"/>
</g>
<!-- Metamodel::ClassHOW&#45;&gt;Metamodel::MultiMethodContainer -->
<g id="edge27" class="edge"><title>Metamodel::ClassHOW&#45;&gt;Metamodel::MultiMethodContainer</title>
<path fill="none" stroke="#6666ff" d="M41.7496,-62.1701C-99.0301,-20.1696 -484.863,94.9405 -639.834,141.175"/>
<polygon fill="#6666ff" stroke="#6666ff" points="-639.12,144.614 -649.703,144.119 -641.121,137.906 -639.12,144.614"/>
</g>
<!-- Metamodel::ClassHOW&#45;&gt;Metamodel::RoleContainer -->
<g id="edge28" class="edge"><title>Metamodel::ClassHOW&#45;&gt;Metamodel::RoleContainer</title>
<path fill="none" stroke="#6666ff" d="M110.229,-95.8806C136.876,-125.943 190.424,-186.353 220.998,-220.844"/>
<polygon fill="#6666ff" stroke="#6666ff" points="218.63,-223.449 227.883,-228.611 223.869,-218.806 218.63,-223.449"/>
</g>
<!-- Metamodel::ClassHOW&#45;&gt;Metamodel::MultipleInheritance -->
<g id="edge29" class="edge"><title>Metamodel::ClassHOW&#45;&gt;Metamodel::MultipleInheritance</title>
<path fill="none" stroke="#6666ff" d="M152.072,-62.7921C191.497,-52.5462 243.975,-38.908 286.063,-27.9699"/>
<polygon fill="#6666ff" stroke="#6666ff" points="287.175,-31.2973 295.973,-25.3944 285.414,-24.5223 287.175,-31.2973"/>
</g>
<!-- Metamodel::ClassHOW&#45;&gt;Metamodel::DefaultParent -->
<g id="edge30" class="edge"><title>Metamodel::ClassHOW&#45;&gt;Metamodel::DefaultParent</title>
<path fill="none" stroke="#6666ff" d="M97.6773,-95.8609C106,-139.336 126.487,-246.352 126.487,-246.352 126.487,-246.352 130.804,-264.857 130.804,-264.857 130.804,-264.857 -45.4946,-402.022 -118.259,-458.635"/>
<polygon fill="#6666ff" stroke="#6666ff" points="-120.452,-455.906 -126.195,-464.809 -116.153,-461.43 -120.452,-455.906"/>
</g>
<!-- Metamodel::ClassHOW&#45;&gt;Metamodel::C3MRO -->
<g id="edge31" class="edge"><title>Metamodel::ClassHOW&#45;&gt;Metamodel::C3MRO</title>
<path fill="none" stroke="#6666ff" d="M2.30159,-86.3965C-146.21,-100.244 -437.357,-127.39 -586.953,-141.339"/>
<polygon fill="#6666ff" stroke="#6666ff" points="-587.405,-137.866 -597.037,-142.279 -586.755,-144.835 -587.405,-137.866"/>
</g>
<!-- Metamodel::ClassHOW&#45;&gt;Metamodel::MROBasedMethodDispatch -->
<g id="edge32" class="edge"><title>Metamodel::ClassHOW&#45;&gt;Metamodel::MROBasedMethodDispatch</title>
<path fill="none" stroke="#6666ff" d="M81.3136,-95.7483C57.4468,-128.879 6.33071,-199.837 -21.472,-238.432"/>
<polygon fill="#6666ff" stroke="#6666ff" points="-24.353,-236.443 -27.3582,-246.603 -18.6732,-240.535 -24.353,-236.443"/>
</g>
<!-- Metamodel::ClassHOW&#45;&gt;Metamodel::MROBasedTypeChecking -->
<g id="edge33" class="edge"><title>Metamodel::ClassHOW&#45;&gt;Metamodel::MROBasedTypeChecking</title>
<path fill="none" stroke="#6666ff" d="M48.4727,-94.0426C-32.6244,-122.788 -201.427,-182.621 -290.675,-214.255"/>
<polygon fill="#6666ff" stroke="#6666ff" points="-292.112,-211.051 -300.368,-217.691 -289.773,-217.649 -292.112,-211.051"/>
</g>
<!-- Metamodel::ClassHOW&#45;&gt;Metamodel::Trusting -->
<g id="edge34" class="edge"><title>Metamodel::ClassHOW&#45;&gt;Metamodel::Trusting</title>
<path fill="none" stroke="#6666ff" d="M63.6369,-95.0892C-8.67829,-135.904 -184.154,-234.942 -184.154,-234.942 -184.154,-234.942 -516.748,-376.417 -643.165,-430.191"/>
<polygon fill="#6666ff" stroke="#6666ff" points="-644.784,-427.076 -652.616,-434.211 -642.044,-433.517 -644.784,-427.076"/>
</g>
<!-- Metamodel::ClassHOW&#45;&gt;Metamodel::BUILDPLAN -->
<g id="edge35" class="edge"><title>Metamodel::ClassHOW&#45;&gt;Metamodel::BUILDPLAN</title>
<path fill="none" stroke="#6666ff" d="M97.6773,-95.8609C106,-139.336 126.487,-246.352 126.487,-246.352 126.487,-246.352 294.74,-393.028 362.83,-452.387"/>
<polygon fill="#6666ff" stroke="#6666ff" points="360.782,-455.244 370.619,-459.177 365.381,-449.967 360.782,-455.244"/>
</g>
<!-- Metamodel::ClassHOW&#45;&gt;Metamodel::Mixins -->
<g id="edge36" class="edge"><title>Metamodel::ClassHOW&#45;&gt;Metamodel::Mixins</title>
<path fill="none" stroke="#6666ff" d="M123.745,-95.2371C221.576,-152.939 535.105,-337.86 643.842,-401.994"/>
<polygon fill="#6666ff" stroke="#6666ff" points="642.126,-405.045 652.518,-407.111 645.682,-399.016 642.126,-405.045"/>
</g>
<!-- Metamodel::ClassHOW&#45;&gt;Metamodel::BoolificationProtocol -->
<g id="edge37" class="edge"><title>Metamodel::ClassHOW&#45;&gt;Metamodel::BoolificationProtocol</title>
<path fill="none" stroke="#6666ff" d="M97.6773,-95.8609C106,-139.336 126.487,-246.352 126.487,-246.352 126.487,-246.352 130.804,-264.857 130.804,-264.857 130.804,-264.857 120.129,-398.067 115.345,-457.765"/>
<polygon fill="#6666ff" stroke="#6666ff" points="111.834,-457.76 114.524,-468.008 118.812,-458.319 111.834,-457.76"/>
</g>
<!-- Metamodel::NativeHOW -->
<g id="node27" class="node"><title>Metamodel::NativeHOW</title>
<g id="a_node27"><a xlink:href="/type/Metamodel::NativeHOW" xlink:title="Metamodel::NativeHOW">
<ellipse fill="none" stroke="#000000" cx="-166.199" cy="-78.5361" rx="107.482" ry="18"/>
<text text-anchor="middle" x="-166.199" y="-74.8361" font-family="FreeSans" font-size="14.00" fill="#000000">Metamodel::NativeHOW</text>
</a>
</g>
</g>
<!-- Metamodel::NativeHOW&#45;&gt;Metamodel::Documenting -->
<g id="edge39" class="edge"><title>Metamodel::NativeHOW&#45;&gt;Metamodel::Documenting</title>
<path fill="none" stroke="#6666ff" d="M-162.287,-60.4816C-152.857,-16.9601 -129.646,90.1698 -129.646,90.1698 -129.646,90.1698 -89.4761,134.721 -89.4761,134.721 -89.4761,134.721 -33.1189,220.769 -3.78456,265.557"/>
<polygon fill="#6666ff" stroke="#6666ff" points="-0.853797,263.644 1.6973,273.927 -6.70963,267.479 -0.853797,263.644"/>
</g>
<!-- Metamodel::NativeHOW&#45;&gt;Any -->
<g id="edge5" class="edge"><title>Metamodel::NativeHOW&#45;&gt;Any</title>
<path fill="none" stroke="#000000" d="M-128.934,-61.4972C-25.4435,-14.1778 257.909,115.381 257.909,115.381 257.909,115.381 285.169,129.211 285.169,129.211 285.169,129.211 384.174,190.858 434.426,222.148"/>
<polygon fill="#000000" stroke="#000000" points="436.28,219.179 442.919,227.436 432.58,225.122 436.28,219.179"/>
</g>
<!-- Metamodel::NativeHOW&#45;&gt;Metamodel::Naming -->
<g id="edge38" class="edge"><title>Metamodel::NativeHOW&#45;&gt;Metamodel::Naming</title>
<path fill="none" stroke="#6666ff" d="M-136.172,-61.1727C-71.0479,-23.513 83.0979,65.6253 155.027,107.22"/>
<polygon fill="#6666ff" stroke="#6666ff" points="156.887,104.252 163.792,112.288 153.383,110.312 156.887,104.252"/>
</g>
<!-- Metamodel::NativeHOW&#45;&gt;Metamodel::Versioning -->
<g id="edge40" class="edge"><title>Metamodel::NativeHOW&#45;&gt;Metamodel::Versioning</title>
<path fill="none" stroke="#6666ff" d="M-151.335,-60.4859C-126.586,-30.4318 -76.8521,29.9622 -48.4562,64.4448"/>
<polygon fill="#6666ff" stroke="#6666ff" points="-45.7172,62.2651 -42.0621,72.2095 -51.1208,66.7149 -45.7172,62.2651"/>
</g>
<!-- Metamodel::NativeHOW&#45;&gt;Metamodel::Stashing -->
<g id="edge41" class="edge"><title>Metamodel::NativeHOW&#45;&gt;Metamodel::Stashing</title>
<path fill="none" stroke="#6666ff" d="M-162.287,-60.4816C-152.857,-16.9601 -129.646,90.1698 -129.646,90.1698 -129.646,90.1698 -89.4761,134.721 -89.4761,134.721 -89.4761,134.721 -148.389,270.722 -174.222,330.357"/>
<polygon fill="#6666ff" stroke="#6666ff" points="-171.026,331.785 -178.213,339.57 -177.449,329.003 -171.026,331.785"/>
</g>
<!-- Metamodel::NativeHOW&#45;&gt;Metamodel::MultipleInheritance -->
<g id="edge42" class="edge"><title>Metamodel::NativeHOW&#45;&gt;Metamodel::MultipleInheritance</title>
<path fill="none" stroke="#6666ff" d="M-81.7151,-67.3771C9.10525,-55.3812 153.653,-36.2887 251.986,-23.3005"/>
<polygon fill="#6666ff" stroke="#6666ff" points="252.494,-26.7638 261.95,-21.9844 251.577,-19.8241 252.494,-26.7638"/>
</g>
<!-- Metamodel::NativeHOW&#45;&gt;Metamodel::C3MRO -->
<g id="edge43" class="edge"><title>Metamodel::NativeHOW&#45;&gt;Metamodel::C3MRO</title>
<path fill="none" stroke="#6666ff" d="M-248.843,-90.0291C-343.883,-103.246 -499.132,-124.835 -595.278,-138.206"/>
<polygon fill="#6666ff" stroke="#6666ff" points="-595.836,-134.75 -605.259,-139.594 -594.872,-141.683 -595.836,-134.75"/>
</g>
<!-- Metamodel::NativeHOW&#45;&gt;Metamodel::MROBasedMethodDispatch -->
<g id="edge44" class="edge"><title>Metamodel::NativeHOW&#45;&gt;Metamodel::MROBasedMethodDispatch</title>
<path fill="none" stroke="#6666ff" d="M-153.91,-96.7297C-131.593,-129.771 -84.3184,-199.764 -58.3834,-238.162"/>
<polygon fill="#6666ff" stroke="#6666ff" points="-61.0788,-240.425 -52.5812,-246.753 -55.2779,-236.507 -61.0788,-240.425"/>
</g>
<!-- Metamodel::NativeHOW&#45;&gt;Metamodel::MROBasedTypeChecking -->
<g id="edge45" class="edge"><title>Metamodel::NativeHOW&#45;&gt;Metamodel::MROBasedTypeChecking</title>
<path fill="none" stroke="#6666ff" d="M-187.156,-96.4718C-219.831,-124.437 -282.996,-178.496 -319.979,-210.147"/>
<polygon fill="#6666ff" stroke="#6666ff" points="-322.574,-207.761 -327.896,-216.923 -318.023,-213.079 -322.574,-207.761"/>
</g>
<!-- Metamodel::RolePunning -->
<g id="node28" class="node"><title>Metamodel::RolePunning</title>
<g id="a_node28"><a xlink:href="/type/Metamodel::RolePunning" xlink:title="Metamodel::RolePunning">
<ellipse fill="none" stroke="#6666ff" cx="-677.783" cy="501.003" rx="109.681" ry="18"/>
<text text-anchor="middle" x="-677.783" y="504.703" font-family="FreeSans" font-size="14.00" fill="#6666ff">Metamodel::RolePunning</text>
</a>
</g>
</g>
<!-- Metamodel::ParametricRoleHOW -->
<g id="node29" class="node"><title>Metamodel::ParametricRoleHOW</title>
<g id="a_node29"><a xlink:href="/type/Metamodel::ParametricRoleHOW" xlink:title="Metamodel::ParametricRoleHOW">
<ellipse fill="none" stroke="#000000" cx="-233.408" cy="134.898" rx="142.175" ry="18"/>
<text text-anchor="middle" x="-233.408" y="138.598" font-family="FreeSans" font-size="14.00" fill="#000000">Metamodel::ParametricRoleHOW</text>
</a>
</g>
</g>
<!-- Metamodel::ParametricRoleHOW&#45;&gt;Metamodel::Documenting -->
<g id="edge47" class="edge"><title>Metamodel::ParametricRoleHOW&#45;&gt;Metamodel::Documenting</title>
<path fill="none" stroke="#6666ff" d="M-205.563,152.61C-160.707,181.143 -72.4638,237.276 -22.7517,268.898"/>
<polygon fill="#6666ff" stroke="#6666ff" points="-20.7908,265.997 -14.2317,274.318 -24.5479,271.904 -20.7908,265.997"/>
</g>
<!-- Metamodel::ParametricRoleHOW&#45;&gt;Any -->
<g id="edge6" class="edge"><title>Metamodel::ParametricRoleHOW&#45;&gt;Any</title>
<path fill="none" stroke="#000000" d="M-141.652,148.736C13.4927,172.134 321.058,218.519 426.5,234.421"/>
<polygon fill="#000000" stroke="#000000" points="427.267,230.997 436.634,235.949 426.224,237.919 427.267,230.997"/>
</g>
<!-- Metamodel::ParametricRoleHOW&#45;&gt;Metamodel::Naming -->
<g id="edge46" class="edge"><title>Metamodel::ParametricRoleHOW&#45;&gt;Metamodel::Naming</title>
<path fill="none" stroke="#6666ff" d="M-91.6403,133.041C-31.2625,132.251 37.7649,131.347 92.7481,130.627"/>
<polygon fill="#6666ff" stroke="#6666ff" points="92.801,127.126 102.846,130.494 92.8928,134.125 92.801,127.126"/>
</g>
<!-- Metamodel::ParametricRoleHOW&#45;&gt;Metamodel::Versioning -->
<g id="edge48" class="edge"><title>Metamodel::ParametricRoleHOW&#45;&gt;Metamodel::Versioning</title>
<path fill="none" stroke="#6666ff" d="M-161.612,119.303C-142.133,115.072 -121.008,110.483 -101.405,106.225"/>
<polygon fill="#6666ff" stroke="#6666ff" points="-102.129,102.801 -91.6142,104.099 -100.643,109.642 -102.129,102.801"/>
</g>
<!-- Metamodel::ParametricRoleHOW&#45;&gt;Metamodel::Stashing -->
<g id="edge55" class="edge"><title>Metamodel::ParametricRoleHOW&#45;&gt;Metamodel::Stashing</title>
<path fill="none" stroke="#6666ff" d="M-229.538,153.141C-221.291,192.02 -201.937,283.264 -192.095,329.664"/>
<polygon fill="#6666ff" stroke="#6666ff" points="-188.629,329.136 -189.978,339.645 -195.477,330.589 -188.629,329.136"/>
</g>
<!-- Metamodel::ParametricRoleHOW&#45;&gt;Metamodel::TypePretense -->
<g id="edge56" class="edge"><title>Metamodel::ParametricRoleHOW&#45;&gt;Metamodel::TypePretense</title>
<path fill="none" stroke="#6666ff" d="M-238.053,152.976C-254.838,218.297 -312.422,442.396 -332.749,521.503"/>
<polygon fill="#6666ff" stroke="#6666ff" points="-329.376,522.44 -335.254,531.254 -336.156,520.697 -329.376,522.44"/>
</g>
<!-- Metamodel::ParametricRoleHOW&#45;&gt;Metamodel::AttributeContainer -->
<g id="edge52" class="edge"><title>Metamodel::ParametricRoleHOW&#45;&gt;Metamodel::AttributeContainer</title>
<path fill="none" stroke="#6666ff" d="M-259.393,152.697C-297.547,178.831 -368.778,227.62 -411.136,256.633"/>
<polygon fill="#6666ff" stroke="#6666ff" points="-409.231,259.571 -419.459,262.334 -413.187,253.795 -409.231,259.571"/>
</g>
<!-- Metamodel::ParametricRoleHOW&#45;&gt;Metamodel::MethodContainer -->
<g id="edge49" class="edge"><title>Metamodel::ParametricRoleHOW&#45;&gt;Metamodel::MethodContainer</title>
<path fill="none" stroke="#6666ff" d="M-193.688,117.475C-154.309,100.202 -99.8179,76.2988 -99.8179,76.2988 -99.8179,76.2988 335.571,-99.2756 488.248,-160.844"/>
<polygon fill="#6666ff" stroke="#6666ff" points="487.304,-164.237 497.888,-164.731 489.922,-157.745 487.304,-164.237"/>
</g>
<!-- Metamodel::ParametricRoleHOW&#45;&gt;Metamodel::PrivateMethodContainer -->
<g id="edge50" class="edge"><title>Metamodel::ParametricRoleHOW&#45;&gt;Metamodel::PrivateMethodContainer</title>
<path fill="none" stroke="#6666ff" d="M-260.717,117.02C-296.748,93.4323 -360.248,51.8626 -400.093,25.778"/>
<polygon fill="#6666ff" stroke="#6666ff" points="-402.256,28.5454 -408.705,20.1399 -398.422,22.6888 -402.256,28.5454"/>
</g>
<!-- Metamodel::ParametricRoleHOW&#45;&gt;Metamodel::MultiMethodContainer -->
<g id="edge51" class="edge"><title>Metamodel::ParametricRoleHOW&#45;&gt;Metamodel::MultiMethodContainer</title>
<path fill="none" stroke="#6666ff" d="M-364.297,142.073C-425.69,145.438 -499.014,149.458 -561.931,152.906"/>
<polygon fill="#6666ff" stroke="#6666ff" points="-561.76,156.402 -571.936,153.455 -562.143,149.413 -561.76,156.402"/>
</g>
<!-- Metamodel::ParametricRoleHOW&#45;&gt;Metamodel::RoleContainer -->
<g id="edge53" class="edge"><title>Metamodel::ParametricRoleHOW&#45;&gt;Metamodel::RoleContainer</title>
<path fill="none" stroke="#6666ff" d="M-214.476,116.771C-160.78,65.3563 -11.3643,-77.711 -11.3643,-77.711 -11.3643,-77.711 138.363,-176.787 208.417,-223.141"/>
<polygon fill="#6666ff" stroke="#6666ff" points="206.679,-226.188 216.95,-228.788 210.542,-220.351 206.679,-226.188"/>
</g>
<!-- Metamodel::ParametricRoleHOW&#45;&gt;Metamodel::MultipleInheritance -->
<g id="edge54" class="edge"><title>Metamodel::ParametricRoleHOW&#45;&gt;Metamodel::MultipleInheritance</title>
<path fill="none" stroke="#6666ff" d="M-193.688,117.475C-154.309,100.202 -99.8179,76.2988 -99.8179,76.2988 -99.8179,76.2988 136.49,32.0877 269.491,7.20428"/>
<polygon fill="#6666ff" stroke="#6666ff" points="269.196,3.69874 279.669,5.29996 270.484,10.5794 269.196,3.69874"/>
</g>
<!-- Metamodel::ParametricRoleHOW&#45;&gt;Metamodel::RolePunning -->
<g id="edge57" class="edge"><title>Metamodel::ParametricRoleHOW&#45;&gt;Metamodel::RolePunning</title>
<path fill="none" stroke="#6666ff" d="M-243.419,152.973C-264.953,191.852 -313.739,279.932 -313.739,279.932 -313.739,279.932 -547.014,421.591 -640.094,478.116"/>
<polygon fill="#6666ff" stroke="#6666ff" points="-638.549,481.272 -648.913,483.471 -642.182,475.289 -638.549,481.272"/>
</g>
<!-- Metamodel::SubsetHOW -->
<g id="node30" class="node"><title>Metamodel::SubsetHOW</title>
<g id="a_node30"><a xlink:href="/type/Metamodel::SubsetHOW" xlink:title="Metamodel::SubsetHOW">
<ellipse fill="none" stroke="#000000" cx="663.542" cy="476.03" rx="109.381" ry="18"/>
<text text-anchor="middle" x="663.542" y="479.73" font-family="FreeSans" font-size="14.00" fill="#000000">Metamodel::SubsetHOW</text>
</a>
</g>
</g>
<!-- Metamodel::SubsetHOW&#45;&gt;Metamodel::Documenting -->
<g id="edge59" class="edge"><title>Metamodel::SubsetHOW&#45;&gt;Metamodel::Documenting</title>
<path fill="none" stroke="#6666ff" d="M620.674,459.39C524.359,422.002 299.183,334.595 299.183,334.595 299.183,334.595 188.934,318.143 105.417,305.68"/>
<polygon fill="#6666ff" stroke="#6666ff" points="104.747,309.119 95.3732,304.181 105.78,302.196 104.747,309.119"/>
</g>
<!-- Metamodel::SubsetHOW&#45;&gt;Any -->
<g id="edge7" class="edge"><title>Metamodel::SubsetHOW&#45;&gt;Any</title>
<path fill="none" stroke="#000000" d="M648.137,457.895C612.224,415.62 522.97,310.552 482.945,263.436"/>
<polygon fill="#000000" stroke="#000000" points="480.097,265.489 476.29,255.602 485.432,260.957 480.097,265.489"/>
</g>
<!-- Metamodel::SubsetHOW&#45;&gt;Metamodel::Naming -->
<g id="edge58" class="edge"><title>Metamodel::SubsetHOW&#45;&gt;Metamodel::Naming</title>
<path fill="none" stroke="#6666ff" d="M639.573,458.359C561.404,400.732 313.827,218.217 225.184,152.869"/>
<polygon fill="#6666ff" stroke="#6666ff" points="222.842,155.491 216.87,146.739 226.996,149.856 222.842,155.491"/>
</g>
</g>
</svg>
