<?xml version="1.0" encoding="UTF-8" standalone="no"?>
<!DOCTYPE svg PUBLIC "-//W3C//DTD SVG 1.1//EN"
 "http://www.w3.org/Graphics/SVG/1.1/DTD/svg11.dtd">
<!-- Generated by graphviz version 2.38.0 (20140413.2041)
 -->
<!-- Title: perl6&#45;type&#45;graph Pages: 1 -->
<svg width="886pt" height="332pt"
 viewBox="0.00 0.00 885.88 332.00" xmlns="http://www.w3.org/2000/svg" xmlns:xlink="http://www.w3.org/1999/xlink">
<g id="graph0" class="graph" transform="scale(1 1) rotate(0) translate(4 328)">
<title>perl6&#45;type&#45;graph</title>
<polygon fill="white" stroke="none" points="-4,4 -4,-328 881.882,-328 881.882,4 -4,4"/>
<!-- X::TypeCheck -->
<g id="node1" class="node"><title>X::TypeCheck</title>
<g id="a_node1"><a xlink:href="/type/X::TypeCheck" xlink:title="X::TypeCheck">
<ellipse fill="none" stroke="#000000" cx="429.741" cy="-90" rx="66.8882" ry="18"/>
<text text-anchor="middle" x="429.741" y="-86.3" font-family="FreeSans" font-size="14.00" fill="#000000">X::TypeCheck</text>
</a>
</g>
</g>
<!-- Exception -->
<g id="node4" class="node"><title>Exception</title>
<g id="a_node4"><a xlink:href="/type/Exception" xlink:title="Exception">
<ellipse fill="none" stroke="#000000" cx="429.741" cy="-162" rx="49.2915" ry="18"/>
<text text-anchor="middle" x="429.741" y="-158.3" font-family="FreeSans" font-size="14.00" fill="#000000">Exception</text>
</a>
</g>
</g>
<!-- X::TypeCheck&#45;&gt;Exception -->
<g id="edge1" class="edge"><title>X::TypeCheck&#45;&gt;Exception</title>
<path fill="none" stroke="#000000" d="M429.741,-108.303C429.741,-116.017 429.741,-125.288 429.741,-133.888"/>
<polygon fill="#000000" stroke="#000000" points="426.241,-133.896 429.741,-143.896 433.241,-133.896 426.241,-133.896"/>
</g>
<!-- Mu -->
<g id="node2" class="node"><title>Mu</title>
<g id="a_node2"><a xlink:href="/type/Mu" xlink:title="Mu">
<ellipse fill="none" stroke="#000000" cx="429.741" cy="-306" rx="27" ry="18"/>
<text text-anchor="middle" x="429.741" y="-302.3" font-family="FreeSans" font-size="14.00" fill="#000000">Mu</text>
</a>
</g>
</g>
<!-- Any -->
<g id="node3" class="node"><title>Any</title>
<g id="a_node3"><a xlink:href="/type/Any" xlink:title="Any">
<ellipse fill="none" stroke="#000000" cx="429.741" cy="-234" rx="27" ry="18"/>
<text text-anchor="middle" x="429.741" y="-230.3" font-family="FreeSans" font-size="14.00" fill="#000000">Any</text>
</a>
</g>
</g>
<!-- Any&#45;&gt;Mu -->
<g id="edge2" class="edge"><title>Any&#45;&gt;Mu</title>
<path fill="none" stroke="#000000" d="M429.741,-252.303C429.741,-260.017 429.741,-269.288 429.741,-277.888"/>
<polygon fill="#000000" stroke="#000000" points="426.241,-277.896 429.741,-287.896 433.241,-277.896 426.241,-277.896"/>
</g>
<!-- Exception&#45;&gt;Any -->
<g id="edge3" class="edge"><title>Exception&#45;&gt;Any</title>
<path fill="none" stroke="#000000" d="M429.741,-180.303C429.741,-188.017 429.741,-197.288 429.741,-205.888"/>
<polygon fill="#000000" stroke="#000000" points="426.241,-205.896 429.741,-215.896 433.241,-205.896 426.241,-205.896"/>
</g>
<!-- X::TypeCheck::Binding -->
<g id="node5" class="node"><title>X::TypeCheck::Binding</title>
<g id="a_node5"><a xlink:href="/type/X::TypeCheck::Binding" xlink:title="X::TypeCheck::Binding">
<ellipse fill="none" stroke="#000000" cx="100.741" cy="-18" rx="100.983" ry="18"/>
<text text-anchor="middle" x="100.741" y="-14.3" font-family="FreeSans" font-size="14.00" fill="#000000">X::TypeCheck::Binding</text>
</a>
</g>
</g>
<!-- X::TypeCheck::Binding&#45;&gt;X::TypeCheck -->
<g id="edge4" class="edge"><title>X::TypeCheck::Binding&#45;&gt;X::TypeCheck</title>
<path fill="none" stroke="#000000" d="M163.01,-32.2488C222.181,-44.8382 310.588,-63.6483 369.185,-76.1158"/>
<polygon fill="#000000" stroke="#000000" points="368.535,-79.5557 379.045,-78.2135 369.992,-72.709 368.535,-79.5557"/>
</g>
<!-- X::TypeCheck::Splice -->
<g id="node6" class="node"><title>X::TypeCheck::Splice</title>
<g id="a_node6"><a xlink:href="/type/X::TypeCheck::Splice" xlink:title="X::TypeCheck::Splice">
<ellipse fill="none" stroke="#000000" cx="314.741" cy="-18" rx="95.5831" ry="18"/>
<text text-anchor="middle" x="314.741" y="-14.3" font-family="FreeSans" font-size="14.00" fill="#000000">X::TypeCheck::Splice</text>
</a>
</g>
</g>
<!-- X::TypeCheck::Splice&#45;&gt;X::TypeCheck -->
<g id="edge5" class="edge"><title>X::TypeCheck::Splice&#45;&gt;X::TypeCheck</title>
<path fill="none" stroke="#000000" d="M341.703,-35.4119C357.646,-45.116 378,-57.5057 395.121,-67.927"/>
<polygon fill="#000000" stroke="#000000" points="393.377,-70.9628 403.739,-73.1726 397.017,-64.9834 393.377,-70.9628"/>
</g>
<!-- X::TypeCheck::Assignment -->
<g id="node7" class="node"><title>X::TypeCheck::Assignment</title>
<g id="a_node7"><a xlink:href="/type/X::TypeCheck::Assignment" xlink:title="X::TypeCheck::Assignment">
<ellipse fill="none" stroke="#000000" cx="545.741" cy="-18" rx="117.779" ry="18"/>
<text text-anchor="middle" x="545.741" y="-14.3" font-family="FreeSans" font-size="14.00" fill="#000000">X::TypeCheck::Assignment</text>
</a>
</g>
</g>
<!-- X::TypeCheck::Assignment&#45;&gt;X::TypeCheck -->
<g id="edge6" class="edge"><title>X::TypeCheck::Assignment&#45;&gt;X::TypeCheck</title>
<path fill="none" stroke="#000000" d="M518.251,-35.589C502.162,-45.2978 481.694,-57.6488 464.495,-68.0278"/>
<polygon fill="#000000" stroke="#000000" points="462.593,-65.0877 455.839,-73.2511 466.209,-71.0811 462.593,-65.0877"/>
</g>
<!-- X::TypeCheck::Return -->
<g id="node8" class="node"><title>X::TypeCheck::Return</title>
<g id="a_node8"><a xlink:href="/type/X::TypeCheck::Return" xlink:title="X::TypeCheck::Return">
<ellipse fill="none" stroke="#000000" cx="779.741" cy="-18" rx="98.2828" ry="18"/>
<text text-anchor="middle" x="779.741" y="-14.3" font-family="FreeSans" font-size="14.00" fill="#000000">X::TypeCheck::Return</text>
</a>
</g>
</g>
<!-- X::TypeCheck::Return&#45;&gt;X::TypeCheck -->
<g id="edge7" class="edge"><title>X::TypeCheck::Return&#45;&gt;X::TypeCheck</title>
<path fill="none" stroke="#000000" d="M715.953,-31.7577C652.131,-44.5219 554.615,-64.0252 491.514,-76.6453"/>
<polygon fill="#000000" stroke="#000000" points="490.813,-73.2163 481.693,-78.6096 492.185,-80.0804 490.813,-73.2163"/>
</g>
</g>
</svg>
