<?xml version="1.0" encoding="UTF-8" standalone="no"?>
<!DOCTYPE svg PUBLIC "-//W3C//DTD SVG 1.1//EN"
 "http://www.w3.org/Graphics/SVG/1.1/DTD/svg11.dtd">
<!-- Generated by graphviz version 2.38.0 (20140413.2041)
 -->
<!-- Title: perl6&#45;type&#45;graph Pages: 1 -->
<svg width="921pt" height="332pt"
 viewBox="0.00 0.00 920.99 332.00" xmlns="http://www.w3.org/2000/svg" xmlns:xlink="http://www.w3.org/1999/xlink">
<g id="graph0" class="graph" transform="scale(1 1) rotate(0) translate(4 328)">
<title>perl6&#45;type&#45;graph</title>
<polygon fill="white" stroke="none" points="-4,4 -4,-328 916.993,-328 916.993,4 -4,4"/>
<!-- Real -->
<g id="node1" class="node"><title>Real</title>
<g id="a_node1"><a xlink:href="/type/Real" xlink:title="Real">
<ellipse fill="none" stroke="#6666ff" cx="347.047" cy="-162" rx="28.6953" ry="18"/>
<text text-anchor="middle" x="347.047" y="-158.3" font-family="FreeSans" font-size="14.00" fill="#6666ff">Real</text>
</a>
</g>
</g>
<!-- Numeric -->
<g id="node2" class="node"><title>Numeric</title>
<g id="a_node2"><a xlink:href="/type/Numeric" xlink:title="Numeric">
<ellipse fill="none" stroke="#6666ff" cx="347.047" cy="-234" rx="44.393" ry="18"/>
<text text-anchor="middle" x="347.047" y="-230.3" font-family="FreeSans" font-size="14.00" fill="#6666ff">Numeric</text>
</a>
</g>
</g>
<!-- Real&#45;&gt;Numeric -->
<g id="edge20" class="edge"><title>Real&#45;&gt;Numeric</title>
<path fill="none" stroke="#6666ff" d="M347.047,-180.303C347.047,-188.017 347.047,-197.288 347.047,-205.888"/>
<polygon fill="#6666ff" stroke="#6666ff" points="343.547,-205.896 347.047,-215.896 350.547,-205.896 343.547,-205.896"/>
</g>
<!-- Rational -->
<g id="node3" class="node"><title>Rational</title>
<g id="a_node3"><a xlink:href="/type/Rational" xlink:title="Rational">
<ellipse fill="none" stroke="#6666ff" cx="119.047" cy="-90" rx="42.7926" ry="18"/>
<text text-anchor="middle" x="119.047" y="-86.3" font-family="FreeSans" font-size="14.00" fill="#6666ff">Rational</text>
</a>
</g>
</g>
<!-- Rational&#45;&gt;Real -->
<g id="edge21" class="edge"><title>Rational&#45;&gt;Real</title>
<path fill="none" stroke="#6666ff" d="M152.689,-101.329C195.349,-114.426 268.555,-136.902 311.913,-150.213"/>
<polygon fill="#6666ff" stroke="#6666ff" points="311.148,-153.64 321.734,-153.229 313.202,-146.948 311.148,-153.64"/>
</g>
<!-- Mu -->
<g id="node4" class="node"><title>Mu</title>
<g id="a_node4"><a xlink:href="/type/Mu" xlink:title="Mu">
<ellipse fill="none" stroke="#000000" cx="457.047" cy="-306" rx="27" ry="18"/>
<text text-anchor="middle" x="457.047" y="-302.3" font-family="FreeSans" font-size="14.00" fill="#000000">Mu</text>
</a>
</g>
</g>
<!-- Any -->
<g id="node5" class="node"><title>Any</title>
<g id="a_node5"><a xlink:href="/type/Any" xlink:title="Any">
<ellipse fill="none" stroke="#000000" cx="457.047" cy="-234" rx="27" ry="18"/>
<text text-anchor="middle" x="457.047" y="-230.3" font-family="FreeSans" font-size="14.00" fill="#000000">Any</text>
</a>
</g>
</g>
<!-- Any&#45;&gt;Mu -->
<g id="edge1" class="edge"><title>Any&#45;&gt;Mu</title>
<path fill="none" stroke="#000000" d="M457.047,-252.303C457.047,-260.017 457.047,-269.288 457.047,-277.888"/>
<polygon fill="#000000" stroke="#000000" points="453.547,-277.896 457.047,-287.896 460.547,-277.896 453.547,-277.896"/>
</g>
<!-- Cool -->
<g id="node6" class="node"><title>Cool</title>
<g id="a_node6"><a xlink:href="/type/Cool" xlink:title="Cool">
<ellipse fill="none" stroke="#000000" cx="457.047" cy="-162" rx="28.6953" ry="18"/>
<text text-anchor="middle" x="457.047" y="-158.3" font-family="FreeSans" font-size="14.00" fill="#000000">Cool</text>
</a>
</g>
</g>
<!-- Cool&#45;&gt;Any -->
<g id="edge2" class="edge"><title>Cool&#45;&gt;Any</title>
<path fill="none" stroke="#000000" d="M457.047,-180.303C457.047,-188.017 457.047,-197.288 457.047,-205.888"/>
<polygon fill="#000000" stroke="#000000" points="453.547,-205.896 457.047,-215.896 460.547,-205.896 453.547,-205.896"/>
</g>
<!-- Instant -->
<g id="node7" class="node"><title>Instant</title>
<g id="a_node7"><a xlink:href="/type/Instant" xlink:title="Instant">
<ellipse fill="none" stroke="#000000" cx="248.047" cy="-90" rx="37.0935" ry="18"/>
<text text-anchor="middle" x="248.047" y="-86.3" font-family="FreeSans" font-size="14.00" fill="#000000">Instant</text>
</a>
</g>
</g>
<!-- Instant&#45;&gt;Real -->
<g id="edge22" class="edge"><title>Instant&#45;&gt;Real</title>
<path fill="none" stroke="#6666ff" d="M268.081,-105.166C283.188,-115.848 304.054,-130.601 320.542,-142.259"/>
<polygon fill="#6666ff" stroke="#6666ff" points="318.526,-145.12 328.712,-148.036 322.567,-139.405 318.526,-145.12"/>
</g>
<!-- Instant&#45;&gt;Cool -->
<g id="edge3" class="edge"><title>Instant&#45;&gt;Cool</title>
<path fill="none" stroke="#000000" d="M276.656,-101.573C286.011,-105.03 294.047,-108 294.047,-108 294.047,-108 374.796,-134.256 422.625,-149.808"/>
<polygon fill="#000000" stroke="#000000" points="421.698,-153.187 432.291,-152.95 423.863,-146.53 421.698,-153.187"/>
</g>
<!-- Duration -->
<g id="node8" class="node"><title>Duration</title>
<g id="a_node8"><a xlink:href="/type/Duration" xlink:title="Duration">
<ellipse fill="none" stroke="#000000" cx="347.047" cy="-90" rx="44.393" ry="18"/>
<text text-anchor="middle" x="347.047" y="-86.3" font-family="FreeSans" font-size="14.00" fill="#000000">Duration</text>
</a>
</g>
</g>
<!-- Duration&#45;&gt;Real -->
<g id="edge23" class="edge"><title>Duration&#45;&gt;Real</title>
<path fill="none" stroke="#6666ff" d="M347.047,-108.303C347.047,-116.017 347.047,-125.288 347.047,-133.888"/>
<polygon fill="#6666ff" stroke="#6666ff" points="343.547,-133.896 347.047,-143.896 350.547,-133.896 343.547,-133.896"/>
</g>
<!-- Duration&#45;&gt;Cool -->
<g id="edge4" class="edge"><title>Duration&#45;&gt;Cool</title>
<path fill="none" stroke="#000000" d="M369.839,-105.504C387.036,-116.448 410.72,-131.519 429.067,-143.195"/>
<polygon fill="#000000" stroke="#000000" points="427.277,-146.204 437.593,-148.62 431.035,-140.299 427.277,-146.204"/>
</g>
<!-- Num -->
<g id="node9" class="node"><title>Num</title>
<g id="a_node9"><a xlink:href="/type/Num" xlink:title="Num">
<ellipse fill="none" stroke="#000000" cx="587.047" cy="-90" rx="29.795" ry="18"/>
<text text-anchor="middle" x="587.047" y="-86.3" font-family="FreeSans" font-size="14.00" fill="#000000">Num</text>
</a>
</g>
</g>
<!-- Num&#45;&gt;Real -->
<g id="edge24" class="edge"><title>Num&#45;&gt;Real</title>
<path fill="none" stroke="#6666ff" d="M563.461,-101.281C555.247,-104.861 548.047,-108 548.047,-108 548.047,-108 440.501,-136.358 382.744,-151.587"/>
<polygon fill="#6666ff" stroke="#6666ff" points="381.69,-148.246 372.912,-154.18 383.474,-155.014 381.69,-148.246"/>
</g>
<!-- Num&#45;&gt;Cool -->
<g id="edge5" class="edge"><title>Num&#45;&gt;Cool</title>
<path fill="none" stroke="#000000" d="M565.58,-102.559C544.188,-114.078 511.155,-131.865 487.149,-144.791"/>
<polygon fill="#000000" stroke="#000000" points="485.259,-141.833 478.114,-149.656 488.578,-147.997 485.259,-141.833"/>
</g>
<!-- Int -->
<g id="node10" class="node"><title>Int</title>
<g id="a_node10"><a xlink:href="/type/Int" xlink:title="Int">
<ellipse fill="none" stroke="#000000" cx="512.047" cy="-90" rx="27" ry="18"/>
<text text-anchor="middle" x="512.047" y="-86.3" font-family="FreeSans" font-size="14.00" fill="#000000">Int</text>
</a>
</g>
</g>
<!-- Int&#45;&gt;Real -->
<g id="edge25" class="edge"><title>Int&#45;&gt;Real</title>
<path fill="none" stroke="#6666ff" d="M489.794,-100.441C461.414,-112.48 412.121,-133.393 379.539,-147.215"/>
<polygon fill="#6666ff" stroke="#6666ff" points="377.844,-144.132 370.006,-151.26 380.578,-150.576 377.844,-144.132"/>
</g>
<!-- Int&#45;&gt;Cool -->
<g id="edge6" class="edge"><title>Int&#45;&gt;Cool</title>
<path fill="none" stroke="#000000" d="M500.113,-106.189C492.933,-115.327 483.643,-127.151 475.53,-137.476"/>
<polygon fill="#000000" stroke="#000000" points="472.765,-135.33 469.338,-145.356 478.269,-139.655 472.765,-135.33"/>
</g>
<!-- Stringy -->
<g id="node11" class="node"><title>Stringy</title>
<g id="a_node11"><a xlink:href="/type/Stringy" xlink:title="Stringy">
<ellipse fill="none" stroke="#6666ff" cx="781.047" cy="-162" rx="38.1938" ry="18"/>
<text text-anchor="middle" x="781.047" y="-158.3" font-family="FreeSans" font-size="14.00" fill="#6666ff">Stringy</text>
</a>
</g>
</g>
<!-- Str -->
<g id="node12" class="node"><title>Str</title>
<g id="a_node12"><a xlink:href="/type/Str" xlink:title="Str">
<ellipse fill="none" stroke="#000000" cx="781.047" cy="-90" rx="27" ry="18"/>
<text text-anchor="middle" x="781.047" y="-86.3" font-family="FreeSans" font-size="14.00" fill="#000000">Str</text>
</a>
</g>
</g>
<!-- Str&#45;&gt;Cool -->
<g id="edge7" class="edge"><title>Str&#45;&gt;Cool</title>
<path fill="none" stroke="#000000" d="M755.623,-96.4928C698.557,-108.822 560.093,-138.737 493.718,-153.077"/>
<polygon fill="#000000" stroke="#000000" points="492.743,-149.707 483.707,-155.24 494.221,-156.549 492.743,-149.707"/>
</g>
<!-- Str&#45;&gt;Stringy -->
<g id="edge26" class="edge"><title>Str&#45;&gt;Stringy</title>
<path fill="none" stroke="#6666ff" d="M781.047,-108.303C781.047,-116.017 781.047,-125.288 781.047,-133.888"/>
<polygon fill="#6666ff" stroke="#6666ff" points="777.547,-133.896 781.047,-143.896 784.547,-133.896 777.547,-133.896"/>
</g>
<!-- NumStr -->
<g id="node13" class="node"><title>NumStr</title>
<g id="a_node13"><a xlink:href="/type/NumStr" xlink:title="NumStr">
<ellipse fill="none" stroke="#000000" cx="872.047" cy="-18" rx="40.8928" ry="18"/>
<text text-anchor="middle" x="872.047" y="-14.3" font-family="FreeSans" font-size="14.00" fill="#000000">NumStr</text>
</a>
</g>
</g>
<!-- NumStr&#45;&gt;Num -->
<g id="edge8" class="edge"><title>NumStr&#45;&gt;Num</title>
<path fill="none" stroke="#000000" d="M840.665,-29.6698C830.619,-33.0854 822.047,-36 822.047,-36 822.047,-36 690.866,-65.5855 624.525,-80.5475"/>
<polygon fill="#000000" stroke="#000000" points="623.449,-77.2021 614.464,-82.8165 624.989,-84.0306 623.449,-77.2021"/>
</g>
<!-- NumStr&#45;&gt;Str -->
<g id="edge9" class="edge"><title>NumStr&#45;&gt;Str</title>
<path fill="none" stroke="#000000" d="M852.301,-34.189C838.755,-44.609 820.668,-58.5222 806.106,-69.7232"/>
<polygon fill="#000000" stroke="#000000" points="803.794,-67.0866 798.001,-75.9579 808.062,-72.635 803.794,-67.0866"/>
</g>
<!-- Signal -->
<g id="node14" class="node"><title>Signal</title>
<g id="a_node14"><a xlink:href="/type/Signal" xlink:title="Signal">
<ellipse fill="none" stroke="#33bb33" cx="696.047" cy="-18" rx="35.194" ry="18"/>
<text text-anchor="middle" x="696.047" y="-14.3" font-family="FreeSans" font-size="14.00" fill="#33bb33">Signal</text>
</a>
</g>
</g>
<!-- Signal&#45;&gt;Int -->
<g id="edge10" class="edge"><title>Signal&#45;&gt;Int</title>
<path fill="none" stroke="#000000" d="M668.932,-29.476C659.878,-32.9744 652.047,-36 652.047,-36 652.047,-36 548.047,-72 548.047,-72 548.047,-72 545.866,-73.0296 542.579,-74.5819"/>
<polygon fill="#000000" stroke="#000000" points="540.952,-71.4796 533.404,-78.9146 543.941,-77.8093 540.952,-71.4796"/>
</g>
<!-- Order -->
<g id="node15" class="node"><title>Order</title>
<g id="a_node15"><a xlink:href="/type/Order" xlink:title="Order">
<ellipse fill="none" stroke="#33bb33" cx="198.047" cy="-18" rx="33.5952" ry="18"/>
<text text-anchor="middle" x="198.047" y="-14.3" font-family="FreeSans" font-size="14.00" fill="#33bb33">Order</text>
</a>
</g>
</g>
<!-- Order&#45;&gt;Int -->
<g id="edge11" class="edge"><title>Order&#45;&gt;Int</title>
<path fill="none" stroke="#000000" d="M224.545,-29.476C233.394,-32.9744 241.047,-36 241.047,-36 241.047,-36 471.047,-72 471.047,-72 471.047,-72 474.926,-73.6087 480.299,-75.8363"/>
<polygon fill="#000000" stroke="#000000" points="479.049,-79.1071 489.627,-79.7042 481.73,-72.6409 479.049,-79.1071"/>
</g>
<!-- atomicint -->
<g id="node16" class="node"><title>atomicint</title>
<g id="a_node16"><a xlink:href="/type/atomicint" xlink:title="atomicint">
<ellipse fill="none" stroke="#000000" cx="296.047" cy="-18" rx="46.2923" ry="18"/>
<text text-anchor="middle" x="296.047" y="-14.3" font-family="FreeSans" font-size="14.00" fill="#000000">atomicint</text>
</a>
</g>
</g>
<!-- atomicint&#45;&gt;Int -->
<g id="edge12" class="edge"><title>atomicint&#45;&gt;Int</title>
<path fill="none" stroke="#000000" d="M331.19,-29.8626C341.97,-33.1943 351.047,-36 351.047,-36 351.047,-36 471.047,-72 471.047,-72 471.047,-72 474.926,-73.6087 480.299,-75.8363"/>
<polygon fill="#000000" stroke="#000000" points="479.049,-79.1071 489.627,-79.7042 481.73,-72.6409 479.049,-79.1071"/>
</g>
<!-- PromiseStatus -->
<g id="node17" class="node"><title>PromiseStatus</title>
<g id="a_node17"><a xlink:href="/type/PromiseStatus" xlink:title="PromiseStatus">
<ellipse fill="none" stroke="#33bb33" cx="428.047" cy="-18" rx="67.6881" ry="18"/>
<text text-anchor="middle" x="428.047" y="-14.3" font-family="FreeSans" font-size="14.00" fill="#33bb33">PromiseStatus</text>
</a>
</g>
</g>
<!-- PromiseStatus&#45;&gt;Int -->
<g id="edge13" class="edge"><title>PromiseStatus&#45;&gt;Int</title>
<path fill="none" stroke="#000000" d="M447.954,-35.589C459.893,-45.5385 475.162,-58.2628 487.802,-68.796"/>
<polygon fill="#000000" stroke="#000000" points="485.744,-71.637 495.667,-75.3501 490.225,-66.2595 485.744,-71.637"/>
</g>
<!-- IntStr -->
<g id="node18" class="node"><title>IntStr</title>
<g id="a_node18"><a xlink:href="/type/IntStr" xlink:title="IntStr">
<ellipse fill="none" stroke="#000000" cx="781.047" cy="-18" rx="31.6951" ry="18"/>
<text text-anchor="middle" x="781.047" y="-14.3" font-family="FreeSans" font-size="14.00" fill="#000000">IntStr</text>
</a>
</g>
</g>
<!-- IntStr&#45;&gt;Int -->
<g id="edge14" class="edge"><title>IntStr&#45;&gt;Int</title>
<path fill="none" stroke="#000000" d="M755.781,-29.476C747.344,-32.9744 740.047,-36 740.047,-36 740.047,-36 548.047,-72 548.047,-72 548.047,-72 545.866,-73.0296 542.579,-74.5819"/>
<polygon fill="#000000" stroke="#000000" points="540.952,-71.4796 533.404,-78.9146 543.941,-77.8093 540.952,-71.4796"/>
</g>
<!-- IntStr&#45;&gt;Str -->
<g id="edge15" class="edge"><title>IntStr&#45;&gt;Str</title>
<path fill="none" stroke="#000000" d="M781.047,-36.3034C781.047,-44.0173 781.047,-53.2875 781.047,-61.8876"/>
<polygon fill="#000000" stroke="#000000" points="777.547,-61.8956 781.047,-71.8957 784.547,-61.8957 777.547,-61.8956"/>
</g>
<!-- Bool -->
<g id="node19" class="node"><title>Bool</title>
<g id="a_node19"><a xlink:href="/type/Bool" xlink:title="Bool">
<ellipse fill="none" stroke="#33bb33" cx="542.047" cy="-18" rx="28.6953" ry="18"/>
<text text-anchor="middle" x="542.047" y="-14.3" font-family="FreeSans" font-size="14.00" fill="#33bb33">Bool</text>
</a>
</g>
</g>
<!-- Bool&#45;&gt;Int -->
<g id="edge16" class="edge"><title>Bool&#45;&gt;Int</title>
<path fill="none" stroke="#000000" d="M534.937,-35.589C531.388,-43.8708 527.015,-54.0751 523.045,-63.338"/>
<polygon fill="#000000" stroke="#000000" points="519.828,-61.9599 519.105,-72.5301 526.262,-64.7173 519.828,-61.9599"/>
</g>
<!-- int -->
<g id="node20" class="node"><title>int</title>
<g id="a_node20"><a xlink:href="/type/int" xlink:title="int">
<ellipse fill="none" stroke="#000000" cx="616.047" cy="-18" rx="27" ry="18"/>
<text text-anchor="middle" x="616.047" y="-14.3" font-family="FreeSans" font-size="14.00" fill="#000000">int</text>
</a>
</g>
</g>
<!-- int&#45;&gt;Int -->
<g id="edge17" class="edge"><title>int&#45;&gt;Int</title>
<path fill="none" stroke="#000000" d="M597.454,-31.5146C581.186,-42.4642 557.353,-58.5054 538.994,-70.8622"/>
<polygon fill="#000000" stroke="#000000" points="536.82,-68.1064 530.479,-76.5937 540.729,-73.9135 536.82,-68.1064"/>
</g>
<!-- FatRat -->
<g id="node21" class="node"><title>FatRat</title>
<g id="a_node21"><a xlink:href="/type/FatRat" xlink:title="FatRat">
<ellipse fill="none" stroke="#000000" cx="37.0467" cy="-18" rx="37.0935" ry="18"/>
<text text-anchor="middle" x="37.0467" y="-14.3" font-family="FreeSans" font-size="14.00" fill="#000000">FatRat</text>
</a>
</g>
</g>
<!-- FatRat&#45;&gt;Rational -->
<g id="edge27" class="edge"><title>FatRat&#45;&gt;Rational</title>
<path fill="none" stroke="#6666ff" d="M54.8395,-34.189C66.0449,-43.7546 80.6987,-56.2639 93.1774,-66.9164"/>
<polygon fill="#6666ff" stroke="#6666ff" points="91.1274,-69.7683 101.005,-73.599 95.6723,-64.4443 91.1274,-69.7683"/>
</g>
<!-- FatRat&#45;&gt;Cool -->
<g id="edge18" class="edge"><title>FatRat&#45;&gt;Cool</title>
<path fill="none" stroke="#000000" d="M65.6561,-29.573C75.0106,-33.0301 83.0467,-36 83.0467,-36 83.0467,-36 400.047,-72 400.047,-72 400.047,-72 424.384,-110 441.253,-136.34"/>
<polygon fill="#000000" stroke="#000000" points="438.516,-138.555 446.856,-145.089 444.41,-134.78 438.516,-138.555"/>
</g>
<!-- Rat -->
<g id="node22" class="node"><title>Rat</title>
<g id="a_node22"><a xlink:href="/type/Rat" xlink:title="Rat">
<ellipse fill="none" stroke="#000000" cx="119.047" cy="-18" rx="27" ry="18"/>
<text text-anchor="middle" x="119.047" y="-14.3" font-family="FreeSans" font-size="14.00" fill="#000000">Rat</text>
</a>
</g>
</g>
<!-- Rat&#45;&gt;Rational -->
<g id="edge28" class="edge"><title>Rat&#45;&gt;Rational</title>
<path fill="none" stroke="#6666ff" d="M119.047,-36.3034C119.047,-44.0173 119.047,-53.2875 119.047,-61.8876"/>
<polygon fill="#6666ff" stroke="#6666ff" points="115.547,-61.8956 119.047,-71.8957 122.547,-61.8957 115.547,-61.8956"/>
</g>
<!-- Rat&#45;&gt;Cool -->
<g id="edge19" class="edge"><title>Rat&#45;&gt;Cool</title>
<path fill="none" stroke="#000000" d="M140.404,-29.0854C148.156,-32.7461 155.047,-36 155.047,-36 155.047,-36 433.047,-72 433.047,-72 433.047,-72 442.71,-107.833 449.773,-134.025"/>
<polygon fill="#000000" stroke="#000000" points="446.436,-135.096 452.419,-143.84 453.195,-133.273 446.436,-135.096"/>
</g>
</g>
</svg>
