<?xml version="1.0" encoding="UTF-8" standalone="no"?>
<!DOCTYPE svg PUBLIC "-//W3C//DTD SVG 1.1//EN"
 "http://www.w3.org/Graphics/SVG/1.1/DTD/svg11.dtd">
<!-- Generated by graphviz version 2.38.0 (20140413.2041)
 -->
<!-- Title: perl6&#45;type&#45;graph Pages: 1 -->
<svg width="948pt" height="404pt"
 viewBox="0.00 0.00 947.79 404.00" xmlns="http://www.w3.org/2000/svg" xmlns:xlink="http://www.w3.org/1999/xlink">
<g id="graph0" class="graph" transform="scale(1 1) rotate(0) translate(4 400)">
<title>perl6&#45;type&#45;graph</title>
<polygon fill="white" stroke="none" points="-4,4 -4,-400 943.792,-400 943.792,4 -4,4"/>
<!-- Stringy -->
<g id="node1" class="node"><title>Stringy</title>
<g id="a_node1"><a xlink:href="/type/Stringy" xlink:title="Stringy">
<ellipse fill="none" stroke="#6666ff" cx="358.247" cy="-306" rx="38.1938" ry="18"/>
<text text-anchor="middle" x="358.247" y="-302.3" font-family="FreeSans" font-size="14.00" fill="#6666ff">Stringy</text>
</a>
</g>
</g>
<!-- Mu -->
<g id="node2" class="node"><title>Mu</title>
<g id="a_node2"><a xlink:href="/type/Mu" xlink:title="Mu">
<ellipse fill="none" stroke="#000000" cx="441.247" cy="-378" rx="27" ry="18"/>
<text text-anchor="middle" x="441.247" y="-374.3" font-family="FreeSans" font-size="14.00" fill="#000000">Mu</text>
</a>
</g>
</g>
<!-- Any -->
<g id="node3" class="node"><title>Any</title>
<g id="a_node3"><a xlink:href="/type/Any" xlink:title="Any">
<ellipse fill="none" stroke="#000000" cx="441.247" cy="-306" rx="27" ry="18"/>
<text text-anchor="middle" x="441.247" y="-302.3" font-family="FreeSans" font-size="14.00" fill="#000000">Any</text>
</a>
</g>
</g>
<!-- Any&#45;&gt;Mu -->
<g id="edge1" class="edge"><title>Any&#45;&gt;Mu</title>
<path fill="none" stroke="#000000" d="M441.247,-324.303C441.247,-332.017 441.247,-341.288 441.247,-349.888"/>
<polygon fill="#000000" stroke="#000000" points="437.748,-349.896 441.247,-359.896 444.748,-349.896 437.748,-349.896"/>
</g>
<!-- Positional -->
<g id="node4" class="node"><title>Positional</title>
<g id="a_node4"><a xlink:href="/type/Positional" xlink:title="Positional">
<ellipse fill="none" stroke="#6666ff" cx="253.247" cy="-306" rx="48.9926" ry="18"/>
<text text-anchor="middle" x="253.247" y="-302.3" font-family="FreeSans" font-size="14.00" fill="#6666ff">Positional</text>
</a>
</g>
</g>
<!-- Uni -->
<g id="node5" class="node"><title>Uni</title>
<g id="a_node5"><a xlink:href="/type/Uni" xlink:title="Uni">
<ellipse fill="none" stroke="#000000" cx="253.247" cy="-234" rx="27" ry="18"/>
<text text-anchor="middle" x="253.247" y="-230.3" font-family="FreeSans" font-size="14.00" fill="#000000">Uni</text>
</a>
</g>
</g>
<!-- Uni&#45;&gt;Stringy -->
<g id="edge23" class="edge"><title>Uni&#45;&gt;Stringy</title>
<path fill="none" stroke="#6666ff" d="M272.019,-247.515C287.734,-257.991 310.44,-273.129 328.608,-285.24"/>
<polygon fill="#6666ff" stroke="#6666ff" points="326.85,-288.275 337.112,-290.909 330.733,-282.45 326.85,-288.275"/>
</g>
<!-- Uni&#45;&gt;Any -->
<g id="edge2" class="edge"><title>Uni&#45;&gt;Any</title>
<path fill="none" stroke="#000000" d="M276.664,-243.165C319.302,-258.032 405.247,-288 405.247,-288 405.247,-288 407.428,-289.03 410.715,-290.582"/>
<polygon fill="#000000" stroke="#000000" points="409.353,-293.809 419.89,-294.915 412.342,-287.48 409.353,-293.809"/>
</g>
<!-- Uni&#45;&gt;Positional -->
<g id="edge22" class="edge"><title>Uni&#45;&gt;Positional</title>
<path fill="none" stroke="#6666ff" d="M253.247,-252.303C253.247,-260.017 253.247,-269.288 253.247,-277.888"/>
<polygon fill="#6666ff" stroke="#6666ff" points="249.748,-277.896 253.247,-287.896 256.748,-277.896 249.748,-277.896"/>
</g>
<!-- Blob -->
<g id="node6" class="node"><title>Blob</title>
<g id="a_node6"><a xlink:href="/type/Blob" xlink:title="Blob">
<ellipse fill="none" stroke="#6666ff" cx="358.247" cy="-234" rx="28.6953" ry="18"/>
<text text-anchor="middle" x="358.247" y="-230.3" font-family="FreeSans" font-size="14.00" fill="#6666ff">Blob</text>
</a>
</g>
</g>
<!-- Blob&#45;&gt;Stringy -->
<g id="edge25" class="edge"><title>Blob&#45;&gt;Stringy</title>
<path fill="none" stroke="#6666ff" d="M358.247,-252.303C358.247,-260.017 358.247,-269.288 358.247,-277.888"/>
<polygon fill="#6666ff" stroke="#6666ff" points="354.748,-277.896 358.247,-287.896 361.748,-277.896 354.748,-277.896"/>
</g>
<!-- Blob&#45;&gt;Positional -->
<g id="edge24" class="edge"><title>Blob&#45;&gt;Positional</title>
<path fill="none" stroke="#6666ff" d="M338.989,-247.839C323.725,-258.015 302.093,-272.436 284.377,-284.247"/>
<polygon fill="#6666ff" stroke="#6666ff" points="282.418,-281.346 276.039,-289.806 286.301,-287.171 282.418,-281.346"/>
</g>
<!-- Cool -->
<g id="node7" class="node"><title>Cool</title>
<g id="a_node7"><a xlink:href="/type/Cool" xlink:title="Cool">
<ellipse fill="none" stroke="#000000" cx="722.247" cy="-234" rx="28.6953" ry="18"/>
<text text-anchor="middle" x="722.247" y="-230.3" font-family="FreeSans" font-size="14.00" fill="#000000">Cool</text>
</a>
</g>
</g>
<!-- Cool&#45;&gt;Any -->
<g id="edge3" class="edge"><title>Cool&#45;&gt;Any</title>
<path fill="none" stroke="#000000" d="M699.871,-245.281C692.079,-248.861 685.247,-252 685.247,-252 685.247,-252 544.379,-282.599 476.712,-297.297"/>
<polygon fill="#000000" stroke="#000000" points="475.928,-293.885 466.899,-299.428 477.414,-300.726 475.928,-293.885"/>
</g>
<!-- Str -->
<g id="node8" class="node"><title>Str</title>
<g id="a_node8"><a xlink:href="/type/Str" xlink:title="Str">
<ellipse fill="none" stroke="#000000" cx="794.247" cy="-162" rx="27" ry="18"/>
<text text-anchor="middle" x="794.247" y="-158.3" font-family="FreeSans" font-size="14.00" fill="#000000">Str</text>
</a>
</g>
</g>
<!-- Str&#45;&gt;Stringy -->
<g id="edge26" class="edge"><title>Str&#45;&gt;Stringy</title>
<path fill="none" stroke="#6666ff" d="M787.852,-179.74C778.003,-205.521 760.247,-252 760.247,-252 760.247,-252 405.247,-288 405.247,-288 405.247,-288 402.1,-289.139 397.434,-290.826"/>
<polygon fill="#6666ff" stroke="#6666ff" points="395.96,-287.637 387.746,-294.33 398.341,-294.22 395.96,-287.637"/>
</g>
<!-- Str&#45;&gt;Cool -->
<g id="edge4" class="edge"><title>Str&#45;&gt;Cool</title>
<path fill="none" stroke="#000000" d="M779.677,-177.166C769.661,-186.903 756.166,-200.024 744.774,-211.099"/>
<polygon fill="#000000" stroke="#000000" points="742.022,-208.893 737.292,-218.374 746.901,-213.912 742.022,-208.893"/>
</g>
<!-- NFC -->
<g id="node9" class="node"><title>NFC</title>
<g id="a_node9"><a xlink:href="/type/NFC" xlink:title="NFC">
<ellipse fill="none" stroke="#000000" cx="29.2474" cy="-162" rx="29.4969" ry="18"/>
<text text-anchor="middle" x="29.2474" y="-158.3" font-family="FreeSans" font-size="14.00" fill="#000000">NFC</text>
</a>
</g>
</g>
<!-- NFC&#45;&gt;Uni -->
<g id="edge5" class="edge"><title>NFC&#45;&gt;Uni</title>
<path fill="none" stroke="#000000" d="M52.2288,-173.281C60.2314,-176.861 67.2474,-180 67.2474,-180 67.2474,-180 165.448,-207.982 219.142,-223.282"/>
<polygon fill="#000000" stroke="#000000" points="218.355,-226.697 228.931,-226.071 220.273,-219.965 218.355,-226.697"/>
</g>
<!-- NFD -->
<g id="node10" class="node"><title>NFD</title>
<g id="a_node10"><a xlink:href="/type/NFD" xlink:title="NFD">
<ellipse fill="none" stroke="#000000" cx="105.247" cy="-162" rx="29.4969" ry="18"/>
<text text-anchor="middle" x="105.247" y="-158.3" font-family="FreeSans" font-size="14.00" fill="#000000">NFD</text>
</a>
</g>
</g>
<!-- NFD&#45;&gt;Uni -->
<g id="edge6" class="edge"><title>NFD&#45;&gt;Uni</title>
<path fill="none" stroke="#000000" d="M127.725,-173.631C153.008,-185.59 194.22,-205.082 222.479,-218.447"/>
<polygon fill="#000000" stroke="#000000" points="220.987,-221.614 231.524,-222.725 223.98,-215.286 220.987,-221.614"/>
</g>
<!-- NFKD -->
<g id="node11" class="node"><title>NFKD</title>
<g id="a_node11"><a xlink:href="/type/NFKD" xlink:title="NFKD">
<ellipse fill="none" stroke="#000000" cx="188.247" cy="-162" rx="35.9954" ry="18"/>
<text text-anchor="middle" x="188.247" y="-158.3" font-family="FreeSans" font-size="14.00" fill="#000000">NFKD</text>
</a>
</g>
</g>
<!-- NFKD&#45;&gt;Uni -->
<g id="edge7" class="edge"><title>NFKD&#45;&gt;Uni</title>
<path fill="none" stroke="#000000" d="M202.673,-178.535C211.376,-187.908 222.614,-200.01 232.286,-210.426"/>
<polygon fill="#000000" stroke="#000000" points="229.939,-213.042 239.308,-217.989 235.069,-208.279 229.939,-213.042"/>
</g>
<!-- NFKC -->
<g id="node12" class="node"><title>NFKC</title>
<g id="a_node12"><a xlink:href="/type/NFKC" xlink:title="NFKC">
<ellipse fill="none" stroke="#000000" cx="277.247" cy="-162" rx="35.9954" ry="18"/>
<text text-anchor="middle" x="277.247" y="-158.3" font-family="FreeSans" font-size="14.00" fill="#000000">NFKC</text>
</a>
</g>
</g>
<!-- NFKC&#45;&gt;Uni -->
<g id="edge8" class="edge"><title>NFKC&#45;&gt;Uni</title>
<path fill="none" stroke="#000000" d="M271.438,-179.945C268.696,-187.941 265.361,-197.669 262.299,-206.6"/>
<polygon fill="#000000" stroke="#000000" points="258.936,-205.616 259.004,-216.211 265.558,-207.887 258.936,-205.616"/>
</g>
<!-- Numeric -->
<g id="node13" class="node"><title>Numeric</title>
<g id="a_node13"><a xlink:href="/type/Numeric" xlink:title="Numeric">
<ellipse fill="none" stroke="#6666ff" cx="750.247" cy="-306" rx="44.393" ry="18"/>
<text text-anchor="middle" x="750.247" y="-302.3" font-family="FreeSans" font-size="14.00" fill="#6666ff">Numeric</text>
</a>
</g>
</g>
<!-- Real -->
<g id="node14" class="node"><title>Real</title>
<g id="a_node14"><a xlink:href="/type/Real" xlink:title="Real">
<ellipse fill="none" stroke="#6666ff" cx="647.247" cy="-234" rx="28.6953" ry="18"/>
<text text-anchor="middle" x="647.247" y="-230.3" font-family="FreeSans" font-size="14.00" fill="#6666ff">Real</text>
</a>
</g>
</g>
<!-- Real&#45;&gt;Numeric -->
<g id="edge27" class="edge"><title>Real&#45;&gt;Numeric</title>
<path fill="none" stroke="#6666ff" d="M666.139,-247.839C681.075,-257.99 702.226,-272.364 719.581,-284.159"/>
<polygon fill="#6666ff" stroke="#6666ff" points="718.02,-287.33 728.258,-290.056 721.954,-281.54 718.02,-287.33"/>
</g>
<!-- Num -->
<g id="node15" class="node"><title>Num</title>
<g id="a_node15"><a xlink:href="/type/Num" xlink:title="Num">
<ellipse fill="none" stroke="#000000" cx="647.247" cy="-162" rx="29.795" ry="18"/>
<text text-anchor="middle" x="647.247" y="-158.3" font-family="FreeSans" font-size="14.00" fill="#000000">Num</text>
</a>
</g>
</g>
<!-- Num&#45;&gt;Cool -->
<g id="edge9" class="edge"><title>Num&#45;&gt;Cool</title>
<path fill="none" stroke="#000000" d="M662.787,-177.504C673.417,-187.425 687.681,-200.738 699.573,-211.837"/>
<polygon fill="#000000" stroke="#000000" points="697.285,-214.49 706.984,-218.754 702.061,-209.372 697.285,-214.49"/>
</g>
<!-- Num&#45;&gt;Real -->
<g id="edge28" class="edge"><title>Num&#45;&gt;Real</title>
<path fill="none" stroke="#6666ff" d="M647.247,-180.303C647.247,-188.017 647.247,-197.288 647.247,-205.888"/>
<polygon fill="#6666ff" stroke="#6666ff" points="643.748,-205.896 647.247,-215.896 650.748,-205.896 643.748,-205.896"/>
</g>
<!-- NumStr -->
<g id="node16" class="node"><title>NumStr</title>
<g id="a_node16"><a xlink:href="/type/NumStr" xlink:title="NumStr">
<ellipse fill="none" stroke="#000000" cx="647.247" cy="-90" rx="40.8928" ry="18"/>
<text text-anchor="middle" x="647.247" y="-86.3" font-family="FreeSans" font-size="14.00" fill="#000000">NumStr</text>
</a>
</g>
</g>
<!-- NumStr&#45;&gt;Str -->
<g id="edge11" class="edge"><title>NumStr&#45;&gt;Str</title>
<path fill="none" stroke="#000000" d="M674.209,-103.839C699.456,-115.861 737.147,-133.809 763.541,-146.378"/>
<polygon fill="#000000" stroke="#000000" points="762.177,-149.605 772.71,-150.744 765.186,-143.285 762.177,-149.605"/>
</g>
<!-- NumStr&#45;&gt;Num -->
<g id="edge10" class="edge"><title>NumStr&#45;&gt;Num</title>
<path fill="none" stroke="#000000" d="M647.247,-108.303C647.247,-116.017 647.247,-125.288 647.247,-133.888"/>
<polygon fill="#000000" stroke="#000000" points="643.748,-133.896 647.247,-143.896 650.748,-133.896 643.748,-133.896"/>
</g>
<!-- Rational -->
<g id="node17" class="node"><title>Rational</title>
<g id="a_node17"><a xlink:href="/type/Rational" xlink:title="Rational">
<ellipse fill="none" stroke="#6666ff" cx="518.247" cy="-162" rx="42.7926" ry="18"/>
<text text-anchor="middle" x="518.247" y="-158.3" font-family="FreeSans" font-size="14.00" fill="#6666ff">Rational</text>
</a>
</g>
</g>
<!-- Rational&#45;&gt;Real -->
<g id="edge29" class="edge"><title>Rational&#45;&gt;Real</title>
<path fill="none" stroke="#6666ff" d="M543.426,-176.663C564.598,-188.152 594.911,-204.6 617.32,-216.76"/>
<polygon fill="#6666ff" stroke="#6666ff" points="615.932,-219.989 626.39,-221.682 619.27,-213.836 615.932,-219.989"/>
</g>
<!-- Rat -->
<g id="node18" class="node"><title>Rat</title>
<g id="a_node18"><a xlink:href="/type/Rat" xlink:title="Rat">
<ellipse fill="none" stroke="#000000" cx="561.247" cy="-90" rx="27" ry="18"/>
<text text-anchor="middle" x="561.247" y="-86.3" font-family="FreeSans" font-size="14.00" fill="#000000">Rat</text>
</a>
</g>
</g>
<!-- Rat&#45;&gt;Cool -->
<g id="edge12" class="edge"><title>Rat&#45;&gt;Cool</title>
<path fill="none" stroke="#000000" d="M569.868,-107.324C583.436,-133.018 608.247,-180 608.247,-180 608.247,-180 656.768,-202.558 690.5,-218.24"/>
<polygon fill="#000000" stroke="#000000" points="689.453,-221.613 699.996,-222.655 692.404,-215.266 689.453,-221.613"/>
</g>
<!-- Rat&#45;&gt;Rational -->
<g id="edge30" class="edge"><title>Rat&#45;&gt;Rational</title>
<path fill="none" stroke="#6666ff" d="M551.49,-106.884C546.307,-115.321 539.812,-125.896 533.94,-135.453"/>
<polygon fill="#6666ff" stroke="#6666ff" points="530.818,-133.85 528.566,-144.203 536.782,-137.514 530.818,-133.85"/>
</g>
<!-- RatStr -->
<g id="node19" class="node"><title>RatStr</title>
<g id="a_node19"><a xlink:href="/type/RatStr" xlink:title="RatStr">
<ellipse fill="none" stroke="#000000" cx="679.247" cy="-18" rx="35.9954" ry="18"/>
<text text-anchor="middle" x="679.247" y="-14.3" font-family="FreeSans" font-size="14.00" fill="#000000">RatStr</text>
</a>
</g>
</g>
<!-- RatStr&#45;&gt;Str -->
<g id="edge14" class="edge"><title>RatStr&#45;&gt;Str</title>
<path fill="none" stroke="#000000" d="M702.946,-31.5603C732.517,-47.2331 779.247,-72 779.247,-72 779.247,-72 785.233,-107.517 789.642,-133.677"/>
<polygon fill="#000000" stroke="#000000" points="786.242,-134.561 791.355,-143.84 793.145,-133.397 786.242,-134.561"/>
</g>
<!-- RatStr&#45;&gt;Rat -->
<g id="edge13" class="edge"><title>RatStr&#45;&gt;Rat</title>
<path fill="none" stroke="#000000" d="M657.053,-32.1665C637.978,-43.4821 610.357,-59.8672 589.669,-72.14"/>
<polygon fill="#000000" stroke="#000000" points="587.804,-69.1762 580.99,-77.2885 591.376,-75.1966 587.804,-69.1762"/>
</g>
<!-- Int -->
<g id="node20" class="node"><title>Int</title>
<g id="a_node20"><a xlink:href="/type/Int" xlink:title="Int">
<ellipse fill="none" stroke="#000000" cx="722.247" cy="-162" rx="27" ry="18"/>
<text text-anchor="middle" x="722.247" y="-158.3" font-family="FreeSans" font-size="14.00" fill="#000000">Int</text>
</a>
</g>
</g>
<!-- Int&#45;&gt;Cool -->
<g id="edge15" class="edge"><title>Int&#45;&gt;Cool</title>
<path fill="none" stroke="#000000" d="M722.247,-180.303C722.247,-188.017 722.247,-197.288 722.247,-205.888"/>
<polygon fill="#000000" stroke="#000000" points="718.748,-205.896 722.247,-215.896 725.748,-205.896 718.748,-205.896"/>
</g>
<!-- Int&#45;&gt;Real -->
<g id="edge31" class="edge"><title>Int&#45;&gt;Real</title>
<path fill="none" stroke="#6666ff" d="M707.07,-177.166C696.466,-187.062 682.118,-200.454 670.132,-211.641"/>
<polygon fill="#6666ff" stroke="#6666ff" points="667.582,-209.233 662.66,-218.615 672.358,-214.351 667.582,-209.233"/>
</g>
<!-- IntStr -->
<g id="node21" class="node"><title>IntStr</title>
<g id="a_node21"><a xlink:href="/type/IntStr" xlink:title="IntStr">
<ellipse fill="none" stroke="#000000" cx="738.247" cy="-90" rx="31.6951" ry="18"/>
<text text-anchor="middle" x="738.247" y="-86.3" font-family="FreeSans" font-size="14.00" fill="#000000">IntStr</text>
</a>
</g>
</g>
<!-- IntStr&#45;&gt;Str -->
<g id="edge17" class="edge"><title>IntStr&#45;&gt;Str</title>
<path fill="none" stroke="#000000" d="M750.955,-106.884C758.215,-115.96 767.455,-127.51 775.533,-137.607"/>
<polygon fill="#000000" stroke="#000000" points="772.995,-140.038 781.975,-145.66 778.461,-135.665 772.995,-140.038"/>
</g>
<!-- IntStr&#45;&gt;Int -->
<g id="edge16" class="edge"><title>IntStr&#45;&gt;Int</title>
<path fill="none" stroke="#000000" d="M734.374,-107.945C732.593,-115.739 730.435,-125.178 728.437,-133.921"/>
<polygon fill="#000000" stroke="#000000" points="725.012,-133.196 726.196,-143.725 731.836,-134.756 725.012,-133.196"/>
</g>
<!-- Complex -->
<g id="node22" class="node"><title>Complex</title>
<g id="a_node22"><a xlink:href="/type/Complex" xlink:title="Complex">
<ellipse fill="none" stroke="#000000" cx="884.247" cy="-162" rx="45.4919" ry="18"/>
<text text-anchor="middle" x="884.247" y="-158.3" font-family="FreeSans" font-size="14.00" fill="#000000">Complex</text>
</a>
</g>
</g>
<!-- Complex&#45;&gt;Cool -->
<g id="edge18" class="edge"><title>Complex&#45;&gt;Cool</title>
<path fill="none" stroke="#000000" d="M854.534,-175.839C826.303,-188.038 783.952,-206.337 754.815,-218.928"/>
<polygon fill="#000000" stroke="#000000" points="753.271,-215.782 745.48,-222.961 756.048,-222.208 753.271,-215.782"/>
</g>
<!-- Complex&#45;&gt;Numeric -->
<g id="edge32" class="edge"><title>Complex&#45;&gt;Numeric</title>
<path fill="none" stroke="#6666ff" d="M869.136,-179.013C845.612,-203.942 800.099,-252.172 772.718,-281.188"/>
<polygon fill="#6666ff" stroke="#6666ff" points="769.827,-279.152 765.509,-288.827 774.918,-283.957 769.827,-279.152"/>
</g>
<!-- ComplexStr -->
<g id="node23" class="node"><title>ComplexStr</title>
<g id="a_node23"><a xlink:href="/type/ComplexStr" xlink:title="ComplexStr">
<ellipse fill="none" stroke="#000000" cx="883.247" cy="-90" rx="56.59" ry="18"/>
<text text-anchor="middle" x="883.247" y="-86.3" font-family="FreeSans" font-size="14.00" fill="#000000">ComplexStr</text>
</a>
</g>
</g>
<!-- ComplexStr&#45;&gt;Str -->
<g id="edge20" class="edge"><title>ComplexStr&#45;&gt;Str</title>
<path fill="none" stroke="#000000" d="M863.052,-106.884C850.056,-117.106 833.07,-130.466 819.227,-141.353"/>
<polygon fill="#000000" stroke="#000000" points="816.774,-138.83 811.078,-147.763 821.101,-144.332 816.774,-138.83"/>
</g>
<!-- ComplexStr&#45;&gt;Complex -->
<g id="edge19" class="edge"><title>ComplexStr&#45;&gt;Complex</title>
<path fill="none" stroke="#000000" d="M883.495,-108.303C883.605,-116.017 883.737,-125.288 883.86,-133.888"/>
<polygon fill="#000000" stroke="#000000" points="880.36,-133.947 884.003,-143.896 887.36,-133.847 880.36,-133.947"/>
</g>
<!-- Buf -->
<g id="node24" class="node"><title>Buf</title>
<g id="a_node24"><a xlink:href="/type/Buf" xlink:title="Buf">
<ellipse fill="none" stroke="#6666ff" cx="358.247" cy="-162" rx="27" ry="18"/>
<text text-anchor="middle" x="358.247" y="-158.3" font-family="FreeSans" font-size="14.00" fill="#6666ff">Buf</text>
</a>
</g>
</g>
<!-- Buf&#45;&gt;Blob -->
<g id="edge33" class="edge"><title>Buf&#45;&gt;Blob</title>
<path fill="none" stroke="#6666ff" d="M358.247,-180.303C358.247,-188.017 358.247,-197.288 358.247,-205.888"/>
<polygon fill="#6666ff" stroke="#6666ff" points="354.748,-205.896 358.247,-215.896 361.748,-205.896 354.748,-205.896"/>
</g>
<!-- utf8 -->
<g id="node25" class="node"><title>utf8</title>
<g id="a_node25"><a xlink:href="/type/utf8" xlink:title="utf8">
<ellipse fill="none" stroke="#000000" cx="430.247" cy="-162" rx="27" ry="18"/>
<text text-anchor="middle" x="430.247" y="-158.3" font-family="FreeSans" font-size="14.00" fill="#000000">utf8</text>
</a>
</g>
</g>
<!-- utf8&#45;&gt;Any -->
<g id="edge21" class="edge"><title>utf8&#45;&gt;Any</title>
<path fill="none" stroke="#000000" d="M431.574,-180.129C433.449,-204.33 436.893,-248.789 439.125,-277.607"/>
<polygon fill="#000000" stroke="#000000" points="435.654,-278.111 439.916,-287.811 442.633,-277.57 435.654,-278.111"/>
</g>
<!-- utf8&#45;&gt;Blob -->
<g id="edge34" class="edge"><title>utf8&#45;&gt;Blob</title>
<path fill="none" stroke="#6666ff" d="M415.677,-177.166C405.661,-186.903 392.166,-200.024 380.774,-211.099"/>
<polygon fill="#6666ff" stroke="#6666ff" points="378.022,-208.893 373.292,-218.374 382.901,-213.912 378.022,-208.893"/>
</g>
</g>
</svg>
