<?xml version="1.0" encoding="UTF-8" standalone="no"?>
<!DOCTYPE svg PUBLIC "-//W3C//DTD SVG 1.1//EN"
 "http://www.w3.org/Graphics/SVG/1.1/DTD/svg11.dtd">
<!-- Generated by graphviz version 2.38.0 (20140413.2041)
 -->
<!-- Title: perl6&#45;type&#45;graph Pages: 1 -->
<svg width="204pt" height="332pt"
 viewBox="0.00 0.00 204.28 332.00" xmlns="http://www.w3.org/2000/svg" xmlns:xlink="http://www.w3.org/1999/xlink">
<g id="graph0" class="graph" transform="scale(1 1) rotate(0) translate(4 328)">
<title>perl6&#45;type&#45;graph</title>
<polygon fill="white" stroke="none" points="-4,4 -4,-328 200.283,-328 200.283,4 -4,4"/>
<!-- X::TypeCheck::Return -->
<g id="node1" class="node"><title>X::TypeCheck::Return</title>
<g id="a_node1"><a xlink:href="/type/X::TypeCheck::Return" xlink:title="X::TypeCheck::Return">
<ellipse fill="none" stroke="#000000" cx="98.1413" cy="-18" rx="98.2828" ry="18"/>
<text text-anchor="middle" x="98.1413" y="-14.3" font-family="FreeSans" font-size="14.00" fill="#000000">X::TypeCheck::Return</text>
</a>
</g>
</g>
<!-- X::TypeCheck -->
<g id="node5" class="node"><title>X::TypeCheck</title>
<g id="a_node5"><a xlink:href="/type/X::TypeCheck" xlink:title="X::TypeCheck">
<ellipse fill="none" stroke="#000000" cx="98.1413" cy="-90" rx="66.8882" ry="18"/>
<text text-anchor="middle" x="98.1413" y="-86.3" font-family="FreeSans" font-size="14.00" fill="#000000">X::TypeCheck</text>
</a>
</g>
</g>
<!-- X::TypeCheck::Return&#45;&gt;X::TypeCheck -->
<g id="edge1" class="edge"><title>X::TypeCheck::Return&#45;&gt;X::TypeCheck</title>
<path fill="none" stroke="#000000" d="M98.1413,-36.3034C98.1413,-44.0173 98.1413,-53.2875 98.1413,-61.8876"/>
<polygon fill="#000000" stroke="#000000" points="94.6414,-61.8956 98.1413,-71.8957 101.641,-61.8957 94.6414,-61.8956"/>
</g>
<!-- Mu -->
<g id="node2" class="node"><title>Mu</title>
<g id="a_node2"><a xlink:href="/type/Mu" xlink:title="Mu">
<ellipse fill="none" stroke="#000000" cx="98.1413" cy="-306" rx="27" ry="18"/>
<text text-anchor="middle" x="98.1413" y="-302.3" font-family="FreeSans" font-size="14.00" fill="#000000">Mu</text>
</a>
</g>
</g>
<!-- Any -->
<g id="node3" class="node"><title>Any</title>
<g id="a_node3"><a xlink:href="/type/Any" xlink:title="Any">
<ellipse fill="none" stroke="#000000" cx="98.1413" cy="-234" rx="27" ry="18"/>
<text text-anchor="middle" x="98.1413" y="-230.3" font-family="FreeSans" font-size="14.00" fill="#000000">Any</text>
</a>
</g>
</g>
<!-- Any&#45;&gt;Mu -->
<g id="edge2" class="edge"><title>Any&#45;&gt;Mu</title>
<path fill="none" stroke="#000000" d="M98.1413,-252.303C98.1413,-260.017 98.1413,-269.288 98.1413,-277.888"/>
<polygon fill="#000000" stroke="#000000" points="94.6414,-277.896 98.1413,-287.896 101.641,-277.896 94.6414,-277.896"/>
</g>
<!-- Exception -->
<g id="node4" class="node"><title>Exception</title>
<g id="a_node4"><a xlink:href="/type/Exception" xlink:title="Exception">
<ellipse fill="none" stroke="#000000" cx="98.1413" cy="-162" rx="49.2915" ry="18"/>
<text text-anchor="middle" x="98.1413" y="-158.3" font-family="FreeSans" font-size="14.00" fill="#000000">Exception</text>
</a>
</g>
</g>
<!-- Exception&#45;&gt;Any -->
<g id="edge3" class="edge"><title>Exception&#45;&gt;Any</title>
<path fill="none" stroke="#000000" d="M98.1413,-180.303C98.1413,-188.017 98.1413,-197.288 98.1413,-205.888"/>
<polygon fill="#000000" stroke="#000000" points="94.6414,-205.896 98.1413,-215.896 101.641,-205.896 94.6414,-205.896"/>
</g>
<!-- X::TypeCheck&#45;&gt;Exception -->
<g id="edge4" class="edge"><title>X::TypeCheck&#45;&gt;Exception</title>
<path fill="none" stroke="#000000" d="M98.1413,-108.303C98.1413,-116.017 98.1413,-125.288 98.1413,-133.888"/>
<polygon fill="#000000" stroke="#000000" points="94.6414,-133.896 98.1413,-143.896 101.641,-133.896 94.6414,-133.896"/>
</g>
</g>
</svg>
