<?xml version="1.0" encoding="UTF-8" standalone="no"?>
<!DOCTYPE svg PUBLIC "-//W3C//DTD SVG 1.1//EN"
 "http://www.w3.org/Graphics/SVG/1.1/DTD/svg11.dtd">
<!-- Generated by graphviz version 2.38.0 (20140413.2041)
 -->
<!-- Title: perl6&#45;type&#45;graph Pages: 1 -->
<svg width="1052pt" height="332pt"
 viewBox="0.00 0.00 1051.59 332.00" xmlns="http://www.w3.org/2000/svg" xmlns:xlink="http://www.w3.org/1999/xlink">
<g id="graph0" class="graph" transform="scale(1 1) rotate(0) translate(4 328)">
<title>perl6&#45;type&#45;graph</title>
<polygon fill="white" stroke="none" points="-4,4 -4,-328 1047.59,-328 1047.59,4 -4,4"/>
<!-- Numeric -->
<g id="node1" class="node"><title>Numeric</title>
<g id="a_node1"><a xlink:href="/type/Numeric" xlink:title="Numeric">
<ellipse fill="none" stroke="#6666ff" cx="718.047" cy="-234" rx="44.393" ry="18"/>
<text text-anchor="middle" x="718.047" y="-230.3" font-family="FreeSans" font-size="14.00" fill="#6666ff">Numeric</text>
</a>
</g>
</g>
<!-- Real -->
<g id="node2" class="node"><title>Real</title>
<g id="a_node2"><a xlink:href="/type/Real" xlink:title="Real">
<ellipse fill="none" stroke="#6666ff" cx="382.047" cy="-162" rx="28.6953" ry="18"/>
<text text-anchor="middle" x="382.047" y="-158.3" font-family="FreeSans" font-size="14.00" fill="#6666ff">Real</text>
</a>
</g>
</g>
<!-- Real&#45;&gt;Numeric -->
<g id="edge23" class="edge"><title>Real&#45;&gt;Numeric</title>
<path fill="none" stroke="#6666ff" d="M408.133,-169.427C427.672,-174.241 451.047,-180 451.047,-180 451.047,-180 592.21,-208.021 669.252,-223.314"/>
<polygon fill="#6666ff" stroke="#6666ff" points="668.733,-226.779 679.223,-225.293 670.095,-219.913 668.733,-226.779"/>
</g>
<!-- Mu -->
<g id="node3" class="node"><title>Mu</title>
<g id="a_node3"><a xlink:href="/type/Mu" xlink:title="Mu">
<ellipse fill="none" stroke="#000000" cx="489.047" cy="-306" rx="27" ry="18"/>
<text text-anchor="middle" x="489.047" y="-302.3" font-family="FreeSans" font-size="14.00" fill="#000000">Mu</text>
</a>
</g>
</g>
<!-- Any -->
<g id="node4" class="node"><title>Any</title>
<g id="a_node4"><a xlink:href="/type/Any" xlink:title="Any">
<ellipse fill="none" stroke="#000000" cx="489.047" cy="-234" rx="27" ry="18"/>
<text text-anchor="middle" x="489.047" y="-230.3" font-family="FreeSans" font-size="14.00" fill="#000000">Any</text>
</a>
</g>
</g>
<!-- Any&#45;&gt;Mu -->
<g id="edge1" class="edge"><title>Any&#45;&gt;Mu</title>
<path fill="none" stroke="#000000" d="M489.047,-252.303C489.047,-260.017 489.047,-269.288 489.047,-277.888"/>
<polygon fill="#000000" stroke="#000000" points="485.547,-277.896 489.047,-287.896 492.547,-277.896 485.547,-277.896"/>
</g>
<!-- Cool -->
<g id="node5" class="node"><title>Cool</title>
<g id="a_node5"><a xlink:href="/type/Cool" xlink:title="Cool">
<ellipse fill="none" stroke="#000000" cx="489.047" cy="-162" rx="28.6953" ry="18"/>
<text text-anchor="middle" x="489.047" y="-158.3" font-family="FreeSans" font-size="14.00" fill="#000000">Cool</text>
</a>
</g>
</g>
<!-- Cool&#45;&gt;Any -->
<g id="edge2" class="edge"><title>Cool&#45;&gt;Any</title>
<path fill="none" stroke="#000000" d="M489.047,-180.303C489.047,-188.017 489.047,-197.288 489.047,-205.888"/>
<polygon fill="#000000" stroke="#000000" points="485.547,-205.896 489.047,-215.896 492.547,-205.896 485.547,-205.896"/>
</g>
<!-- Complex -->
<g id="node6" class="node"><title>Complex</title>
<g id="a_node6"><a xlink:href="/type/Complex" xlink:title="Complex">
<ellipse fill="none" stroke="#000000" cx="871.047" cy="-90" rx="45.4919" ry="18"/>
<text text-anchor="middle" x="871.047" y="-86.3" font-family="FreeSans" font-size="14.00" fill="#000000">Complex</text>
</a>
</g>
</g>
<!-- Complex&#45;&gt;Numeric -->
<g id="edge24" class="edge"><title>Complex&#45;&gt;Numeric</title>
<path fill="none" stroke="#6666ff" d="M862.959,-107.74C850.503,-133.521 828.047,-180 828.047,-180 828.047,-180 786.673,-199.935 754.674,-215.352"/>
<polygon fill="#6666ff" stroke="#6666ff" points="753.01,-212.269 745.521,-219.763 756.049,-218.575 753.01,-212.269"/>
</g>
<!-- Complex&#45;&gt;Cool -->
<g id="edge3" class="edge"><title>Complex&#45;&gt;Cool</title>
<path fill="none" stroke="#000000" d="M836.542,-101.863C825.959,-105.194 817.047,-108 817.047,-108 817.047,-108 612.682,-141.022 526.581,-154.935"/>
<polygon fill="#000000" stroke="#000000" points="525.761,-151.522 516.448,-156.572 526.878,-158.432 525.761,-151.522"/>
</g>
<!-- Stringy -->
<g id="node7" class="node"><title>Stringy</title>
<g id="a_node7"><a xlink:href="/type/Stringy" xlink:title="Stringy">
<ellipse fill="none" stroke="#6666ff" cx="781.047" cy="-162" rx="38.1938" ry="18"/>
<text text-anchor="middle" x="781.047" y="-158.3" font-family="FreeSans" font-size="14.00" fill="#6666ff">Stringy</text>
</a>
</g>
</g>
<!-- Str -->
<g id="node8" class="node"><title>Str</title>
<g id="a_node8"><a xlink:href="/type/Str" xlink:title="Str">
<ellipse fill="none" stroke="#000000" cx="781.047" cy="-90" rx="27" ry="18"/>
<text text-anchor="middle" x="781.047" y="-86.3" font-family="FreeSans" font-size="14.00" fill="#000000">Str</text>
</a>
</g>
</g>
<!-- Str&#45;&gt;Cool -->
<g id="edge4" class="edge"><title>Str&#45;&gt;Cool</title>
<path fill="none" stroke="#000000" d="M756.151,-96.9682C704.522,-109.345 585.604,-137.853 525.392,-152.287"/>
<polygon fill="#000000" stroke="#000000" points="524.464,-148.91 515.556,-154.645 526.096,-155.717 524.464,-148.91"/>
</g>
<!-- Str&#45;&gt;Stringy -->
<g id="edge25" class="edge"><title>Str&#45;&gt;Stringy</title>
<path fill="none" stroke="#6666ff" d="M781.047,-108.303C781.047,-116.017 781.047,-125.288 781.047,-133.888"/>
<polygon fill="#6666ff" stroke="#6666ff" points="777.547,-133.896 781.047,-143.896 784.547,-133.896 777.547,-133.896"/>
</g>
<!-- ComplexStr -->
<g id="node9" class="node"><title>ComplexStr</title>
<g id="a_node9"><a xlink:href="/type/ComplexStr" xlink:title="ComplexStr">
<ellipse fill="none" stroke="#000000" cx="987.047" cy="-18" rx="56.59" ry="18"/>
<text text-anchor="middle" x="987.047" y="-14.3" font-family="FreeSans" font-size="14.00" fill="#000000">ComplexStr</text>
</a>
</g>
</g>
<!-- ComplexStr&#45;&gt;Complex -->
<g id="edge5" class="edge"><title>ComplexStr&#45;&gt;Complex</title>
<path fill="none" stroke="#000000" d="M961.876,-34.189C944.812,-44.4865 922.094,-58.1955 903.648,-69.327"/>
<polygon fill="#000000" stroke="#000000" points="901.732,-66.3949 894.979,-74.5583 905.349,-72.3883 901.732,-66.3949"/>
</g>
<!-- ComplexStr&#45;&gt;Str -->
<g id="edge6" class="edge"><title>ComplexStr&#45;&gt;Str</title>
<path fill="none" stroke="#000000" d="M948.045,-31.1593C897.855,-46.8067 817.047,-72 817.047,-72 817.047,-72 814.866,-73.0296 811.579,-74.5819"/>
<polygon fill="#000000" stroke="#000000" points="809.952,-71.4796 802.404,-78.9146 812.941,-77.8093 809.952,-71.4796"/>
</g>
<!-- Duration -->
<g id="node10" class="node"><title>Duration</title>
<g id="a_node10"><a xlink:href="/type/Duration" xlink:title="Duration">
<ellipse fill="none" stroke="#000000" cx="351.047" cy="-90" rx="44.393" ry="18"/>
<text text-anchor="middle" x="351.047" y="-86.3" font-family="FreeSans" font-size="14.00" fill="#000000">Duration</text>
</a>
</g>
</g>
<!-- Duration&#45;&gt;Real -->
<g id="edge26" class="edge"><title>Duration&#45;&gt;Real</title>
<path fill="none" stroke="#6666ff" d="M358.551,-107.945C362.13,-116.027 366.493,-125.879 370.483,-134.888"/>
<polygon fill="#6666ff" stroke="#6666ff" points="367.362,-136.485 374.612,-144.211 373.762,-133.65 367.362,-136.485"/>
</g>
<!-- Duration&#45;&gt;Cool -->
<g id="edge7" class="edge"><title>Duration&#45;&gt;Cool</title>
<path fill="none" stroke="#000000" d="M377.655,-104.497C400.749,-116.211 434.187,-133.173 458.396,-145.453"/>
<polygon fill="#000000" stroke="#000000" points="457.002,-148.67 467.503,-150.072 460.168,-142.427 457.002,-148.67"/>
</g>
<!-- Int -->
<g id="node11" class="node"><title>Int</title>
<g id="a_node11"><a xlink:href="/type/Int" xlink:title="Int">
<ellipse fill="none" stroke="#000000" cx="516.047" cy="-90" rx="27" ry="18"/>
<text text-anchor="middle" x="516.047" y="-86.3" font-family="FreeSans" font-size="14.00" fill="#000000">Int</text>
</a>
</g>
</g>
<!-- Int&#45;&gt;Real -->
<g id="edge27" class="edge"><title>Int&#45;&gt;Real</title>
<path fill="none" stroke="#6666ff" d="M495.403,-101.784C473.27,-113.346 437.898,-131.824 412.553,-145.064"/>
<polygon fill="#6666ff" stroke="#6666ff" points="410.622,-142.124 403.379,-149.856 413.863,-148.328 410.622,-142.124"/>
</g>
<!-- Int&#45;&gt;Cool -->
<g id="edge8" class="edge"><title>Int&#45;&gt;Cool</title>
<path fill="none" stroke="#000000" d="M509.648,-107.589C506.533,-115.665 502.713,-125.569 499.212,-134.645"/>
<polygon fill="#000000" stroke="#000000" points="495.92,-133.454 495.587,-144.044 502.451,-135.973 495.92,-133.454"/>
</g>
<!-- Num -->
<g id="node12" class="node"><title>Num</title>
<g id="a_node12"><a xlink:href="/type/Num" xlink:title="Num">
<ellipse fill="none" stroke="#000000" cx="591.047" cy="-90" rx="29.795" ry="18"/>
<text text-anchor="middle" x="591.047" y="-86.3" font-family="FreeSans" font-size="14.00" fill="#000000">Num</text>
</a>
</g>
</g>
<!-- Num&#45;&gt;Real -->
<g id="edge28" class="edge"><title>Num&#45;&gt;Real</title>
<path fill="none" stroke="#6666ff" d="M567.461,-101.281C559.247,-104.861 552.047,-108 552.047,-108 552.047,-108 466.598,-134.64 416.862,-150.146"/>
<polygon fill="#6666ff" stroke="#6666ff" points="415.636,-146.862 407.131,-153.18 417.719,-153.545 415.636,-146.862"/>
</g>
<!-- Num&#45;&gt;Cool -->
<g id="edge9" class="edge"><title>Num&#45;&gt;Cool</title>
<path fill="none" stroke="#000000" d="M571.861,-104.166C556.234,-114.891 533.971,-130.17 516.463,-142.185"/>
<polygon fill="#000000" stroke="#000000" points="514.066,-139.585 507.801,-148.129 518.027,-145.356 514.066,-139.585"/>
</g>
<!-- Rational -->
<g id="node13" class="node"><title>Rational</title>
<g id="a_node13"><a xlink:href="/type/Rational" xlink:title="Rational">
<ellipse fill="none" stroke="#6666ff" cx="119.047" cy="-90" rx="42.7926" ry="18"/>
<text text-anchor="middle" x="119.047" y="-86.3" font-family="FreeSans" font-size="14.00" fill="#6666ff">Rational</text>
</a>
</g>
</g>
<!-- Rational&#45;&gt;Real -->
<g id="edge29" class="edge"><title>Rational&#45;&gt;Real</title>
<path fill="none" stroke="#6666ff" d="M154.243,-100.368C204.397,-113.717 295.923,-138.077 346.35,-151.499"/>
<polygon fill="#6666ff" stroke="#6666ff" points="345.596,-154.92 356.16,-154.11 347.397,-148.156 345.596,-154.92"/>
</g>
<!-- Instant -->
<g id="node14" class="node"><title>Instant</title>
<g id="a_node14"><a xlink:href="/type/Instant" xlink:title="Instant">
<ellipse fill="none" stroke="#000000" cx="252.047" cy="-90" rx="37.0935" ry="18"/>
<text text-anchor="middle" x="252.047" y="-86.3" font-family="FreeSans" font-size="14.00" fill="#000000">Instant</text>
</a>
</g>
</g>
<!-- Instant&#45;&gt;Real -->
<g id="edge30" class="edge"><title>Instant&#45;&gt;Real</title>
<path fill="none" stroke="#6666ff" d="M275.891,-103.839C297.28,-115.356 328.769,-132.312 351.898,-144.766"/>
<polygon fill="#6666ff" stroke="#6666ff" points="350.47,-147.972 360.934,-149.632 353.789,-141.809 350.47,-147.972"/>
</g>
<!-- Instant&#45;&gt;Cool -->
<g id="edge10" class="edge"><title>Instant&#45;&gt;Cool</title>
<path fill="none" stroke="#000000" d="M280.656,-101.573C290.011,-105.03 298.047,-108 298.047,-108 298.047,-108 398.286,-135.815 453.53,-151.145"/>
<polygon fill="#000000" stroke="#000000" points="452.716,-154.551 463.288,-153.852 454.588,-147.806 452.716,-154.551"/>
</g>
<!-- IntStr -->
<g id="node15" class="node"><title>IntStr</title>
<g id="a_node15"><a xlink:href="/type/IntStr" xlink:title="IntStr">
<ellipse fill="none" stroke="#000000" cx="781.047" cy="-18" rx="31.6951" ry="18"/>
<text text-anchor="middle" x="781.047" y="-14.3" font-family="FreeSans" font-size="14.00" fill="#000000">IntStr</text>
</a>
</g>
</g>
<!-- IntStr&#45;&gt;Str -->
<g id="edge12" class="edge"><title>IntStr&#45;&gt;Str</title>
<path fill="none" stroke="#000000" d="M781.047,-36.3034C781.047,-44.0173 781.047,-53.2875 781.047,-61.8876"/>
<polygon fill="#000000" stroke="#000000" points="777.547,-61.8956 781.047,-71.8957 784.547,-61.8957 777.547,-61.8956"/>
</g>
<!-- IntStr&#45;&gt;Int -->
<g id="edge11" class="edge"><title>IntStr&#45;&gt;Int</title>
<path fill="none" stroke="#000000" d="M756.397,-29.476C748.166,-32.9744 741.047,-36 741.047,-36 741.047,-36 552.047,-72 552.047,-72 552.047,-72 549.866,-73.0296 546.579,-74.5819"/>
<polygon fill="#000000" stroke="#000000" points="544.952,-71.4796 537.404,-78.9146 547.941,-77.8093 544.952,-71.4796"/>
</g>
<!-- atomicint -->
<g id="node16" class="node"><title>atomicint</title>
<g id="a_node16"><a xlink:href="/type/atomicint" xlink:title="atomicint">
<ellipse fill="none" stroke="#000000" cx="374.047" cy="-18" rx="46.2923" ry="18"/>
<text text-anchor="middle" x="374.047" y="-14.3" font-family="FreeSans" font-size="14.00" fill="#000000">atomicint</text>
</a>
</g>
</g>
<!-- atomicint&#45;&gt;Int -->
<g id="edge13" class="edge"><title>atomicint&#45;&gt;Int</title>
<path fill="none" stroke="#000000" d="M401.426,-32.4967C425.58,-44.4039 460.732,-61.7323 485.73,-74.0549"/>
<polygon fill="#000000" stroke="#000000" points="484.252,-77.2285 494.769,-78.5108 487.347,-70.95 484.252,-77.2285"/>
</g>
<!-- Order -->
<g id="node17" class="node"><title>Order</title>
<g id="a_node17"><a xlink:href="/type/Order" xlink:title="Order">
<ellipse fill="none" stroke="#33bb33" cx="472.047" cy="-18" rx="33.5952" ry="18"/>
<text text-anchor="middle" x="472.047" y="-14.3" font-family="FreeSans" font-size="14.00" fill="#33bb33">Order</text>
</a>
</g>
</g>
<!-- Order&#45;&gt;Int -->
<g id="edge14" class="edge"><title>Order&#45;&gt;Int</title>
<path fill="none" stroke="#000000" d="M482.252,-35.2354C487.639,-43.8052 494.365,-54.506 500.395,-64.0996"/>
<polygon fill="#000000" stroke="#000000" points="497.612,-66.2489 505.897,-72.8527 503.538,-62.5237 497.612,-66.2489"/>
</g>
<!-- int -->
<g id="node18" class="node"><title>int</title>
<g id="a_node18"><a xlink:href="/type/int" xlink:title="int">
<ellipse fill="none" stroke="#000000" cx="551.047" cy="-18" rx="27" ry="18"/>
<text text-anchor="middle" x="551.047" y="-14.3" font-family="FreeSans" font-size="14.00" fill="#000000">int</text>
</a>
</g>
</g>
<!-- int&#45;&gt;Int -->
<g id="edge15" class="edge"><title>int&#45;&gt;Int</title>
<path fill="none" stroke="#000000" d="M542.929,-35.2354C538.749,-43.5957 533.555,-53.9841 528.85,-63.3941"/>
<polygon fill="#000000" stroke="#000000" points="525.705,-61.8571 524.363,-72.3666 531.966,-64.9876 525.705,-61.8571"/>
</g>
<!-- PromiseStatus -->
<g id="node19" class="node"><title>PromiseStatus</title>
<g id="a_node19"><a xlink:href="/type/PromiseStatus" xlink:title="PromiseStatus">
<ellipse fill="none" stroke="#33bb33" cx="664.047" cy="-18" rx="67.6881" ry="18"/>
<text text-anchor="middle" x="664.047" y="-14.3" font-family="FreeSans" font-size="14.00" fill="#33bb33">PromiseStatus</text>
</a>
</g>
</g>
<!-- PromiseStatus&#45;&gt;Int -->
<g id="edge16" class="edge"><title>PromiseStatus&#45;&gt;Int</title>
<path fill="none" stroke="#000000" d="M632.297,-34.0168C606.991,-45.9856 571.772,-62.6433 546.746,-74.4799"/>
<polygon fill="#000000" stroke="#000000" points="545.239,-71.3209 537.696,-78.7605 548.232,-77.6488 545.239,-71.3209"/>
</g>
<!-- Bool -->
<g id="node20" class="node"><title>Bool</title>
<g id="a_node20"><a xlink:href="/type/Bool" xlink:title="Bool">
<ellipse fill="none" stroke="#33bb33" cx="193.047" cy="-18" rx="28.6953" ry="18"/>
<text text-anchor="middle" x="193.047" y="-14.3" font-family="FreeSans" font-size="14.00" fill="#33bb33">Bool</text>
</a>
</g>
</g>
<!-- Bool&#45;&gt;Int -->
<g id="edge17" class="edge"><title>Bool&#45;&gt;Int</title>
<path fill="none" stroke="#000000" d="M215.591,-29.0854C223.773,-32.7461 231.047,-36 231.047,-36 231.047,-36 475.047,-72 475.047,-72 475.047,-72 478.926,-73.6087 484.299,-75.8363"/>
<polygon fill="#000000" stroke="#000000" points="483.049,-79.1071 493.627,-79.7042 485.73,-72.6409 483.049,-79.1071"/>
</g>
<!-- Signal -->
<g id="node21" class="node"><title>Signal</title>
<g id="a_node21"><a xlink:href="/type/Signal" xlink:title="Signal">
<ellipse fill="none" stroke="#33bb33" cx="275.047" cy="-18" rx="35.194" ry="18"/>
<text text-anchor="middle" x="275.047" y="-14.3" font-family="FreeSans" font-size="14.00" fill="#33bb33">Signal</text>
</a>
</g>
</g>
<!-- Signal&#45;&gt;Int -->
<g id="edge18" class="edge"><title>Signal&#45;&gt;Int</title>
<path fill="none" stroke="#000000" d="M302.161,-29.476C311.216,-32.9744 319.047,-36 319.047,-36 319.047,-36 475.047,-72 475.047,-72 475.047,-72 478.926,-73.6087 484.299,-75.8363"/>
<polygon fill="#000000" stroke="#000000" points="483.049,-79.1071 493.627,-79.7042 485.73,-72.6409 483.049,-79.1071"/>
</g>
<!-- NumStr -->
<g id="node22" class="node"><title>NumStr</title>
<g id="a_node22"><a xlink:href="/type/NumStr" xlink:title="NumStr">
<ellipse fill="none" stroke="#000000" cx="872.047" cy="-18" rx="40.8928" ry="18"/>
<text text-anchor="middle" x="872.047" y="-14.3" font-family="FreeSans" font-size="14.00" fill="#000000">NumStr</text>
</a>
</g>
</g>
<!-- NumStr&#45;&gt;Str -->
<g id="edge20" class="edge"><title>NumStr&#45;&gt;Str</title>
<path fill="none" stroke="#000000" d="M852.301,-34.189C838.755,-44.609 820.668,-58.5222 806.106,-69.7232"/>
<polygon fill="#000000" stroke="#000000" points="803.794,-67.0866 798.001,-75.9579 808.062,-72.635 803.794,-67.0866"/>
</g>
<!-- NumStr&#45;&gt;Num -->
<g id="edge19" class="edge"><title>NumStr&#45;&gt;Num</title>
<path fill="none" stroke="#000000" d="M840.665,-29.6698C830.619,-33.0854 822.047,-36 822.047,-36 822.047,-36 693.738,-65.4388 628.373,-80.4359"/>
<polygon fill="#000000" stroke="#000000" points="627.417,-77.0644 618.453,-82.7121 628.982,-83.8871 627.417,-77.0644"/>
</g>
<!-- FatRat -->
<g id="node23" class="node"><title>FatRat</title>
<g id="a_node23"><a xlink:href="/type/FatRat" xlink:title="FatRat">
<ellipse fill="none" stroke="#000000" cx="37.0467" cy="-18" rx="37.0935" ry="18"/>
<text text-anchor="middle" x="37.0467" y="-14.3" font-family="FreeSans" font-size="14.00" fill="#000000">FatRat</text>
</a>
</g>
</g>
<!-- FatRat&#45;&gt;Cool -->
<g id="edge21" class="edge"><title>FatRat&#45;&gt;Cool</title>
<path fill="none" stroke="#000000" d="M65.6561,-29.573C75.0106,-33.0301 83.0467,-36 83.0467,-36 83.0467,-36 404.047,-72 404.047,-72 404.047,-72 437.047,-108 437.047,-108 437.047,-108 453.094,-124.355 467.359,-138.895"/>
<polygon fill="#000000" stroke="#000000" points="465.06,-141.55 474.562,-146.237 470.057,-136.647 465.06,-141.55"/>
</g>
<!-- FatRat&#45;&gt;Rational -->
<g id="edge31" class="edge"><title>FatRat&#45;&gt;Rational</title>
<path fill="none" stroke="#6666ff" d="M54.8395,-34.189C66.0449,-43.7546 80.6987,-56.2639 93.1774,-66.9164"/>
<polygon fill="#6666ff" stroke="#6666ff" points="91.1274,-69.7683 101.005,-73.599 95.6723,-64.4443 91.1274,-69.7683"/>
</g>
<!-- Rat -->
<g id="node24" class="node"><title>Rat</title>
<g id="a_node24"><a xlink:href="/type/Rat" xlink:title="Rat">
<ellipse fill="none" stroke="#000000" cx="119.047" cy="-18" rx="27" ry="18"/>
<text text-anchor="middle" x="119.047" y="-14.3" font-family="FreeSans" font-size="14.00" fill="#000000">Rat</text>
</a>
</g>
</g>
<!-- Rat&#45;&gt;Cool -->
<g id="edge22" class="edge"><title>Rat&#45;&gt;Cool</title>
<path fill="none" stroke="#000000" d="M140.404,-29.0854C148.156,-32.7461 155.047,-36 155.047,-36 155.047,-36 437.047,-72 437.047,-72 437.047,-72 459.012,-109.595 474.391,-135.916"/>
<polygon fill="#000000" stroke="#000000" points="471.442,-137.807 479.509,-144.676 477.486,-134.276 471.442,-137.807"/>
</g>
<!-- Rat&#45;&gt;Rational -->
<g id="edge32" class="edge"><title>Rat&#45;&gt;Rational</title>
<path fill="none" stroke="#6666ff" d="M119.047,-36.3034C119.047,-44.0173 119.047,-53.2875 119.047,-61.8876"/>
<polygon fill="#6666ff" stroke="#6666ff" points="115.547,-61.8956 119.047,-71.8957 122.547,-61.8957 115.547,-61.8956"/>
</g>
</g>
</svg>
