<?xml version="1.0" encoding="UTF-8" standalone="no"?>
<!DOCTYPE svg PUBLIC "-//W3C//DTD SVG 1.1//EN"
 "http://www.w3.org/Graphics/SVG/1.1/DTD/svg11.dtd">
<!-- Generated by graphviz version 2.38.0 (20140413.2041)
 -->
<!-- Title: perl6&#45;type&#45;graph Pages: 1 -->
<svg width="632pt" height="332pt"
 viewBox="0.00 0.00 631.89 332.00" xmlns="http://www.w3.org/2000/svg" xmlns:xlink="http://www.w3.org/1999/xlink">
<g id="graph0" class="graph" transform="scale(1 1) rotate(0) translate(4 328)">
<title>perl6&#45;type&#45;graph</title>
<polygon fill="white" stroke="none" points="-4,4 -4,-328 627.888,-328 627.888,4 -4,4"/>
<!-- IO::Path -->
<g id="node1" class="node"><title>IO::Path</title>
<g id="a_node1"><a xlink:href="/type/IO::Path" xlink:title="IO::Path">
<ellipse fill="none" stroke="#000000" cx="312.244" cy="-90" rx="43.5923" ry="18"/>
<text text-anchor="middle" x="312.244" y="-86.3" font-family="FreeSans" font-size="14.00" fill="#000000">IO::Path</text>
</a>
</g>
</g>
<!-- Cool -->
<g id="node4" class="node"><title>Cool</title>
<g id="a_node4"><a xlink:href="/type/Cool" xlink:title="Cool">
<ellipse fill="none" stroke="#000000" cx="275.244" cy="-162" rx="28.6953" ry="18"/>
<text text-anchor="middle" x="275.244" y="-158.3" font-family="FreeSans" font-size="14.00" fill="#000000">Cool</text>
</a>
</g>
</g>
<!-- IO::Path&#45;&gt;Cool -->
<g id="edge1" class="edge"><title>IO::Path&#45;&gt;Cool</title>
<path fill="none" stroke="#000000" d="M303.287,-107.945C298.906,-116.233 293.542,-126.382 288.682,-135.576"/>
<polygon fill="#000000" stroke="#000000" points="285.442,-134.216 283.863,-144.693 291.631,-137.488 285.442,-134.216"/>
</g>
<!-- IO -->
<g id="node5" class="node"><title>IO</title>
<g id="a_node5"><a xlink:href="/type/IO" xlink:title="IO">
<ellipse fill="none" stroke="#6666ff" cx="349.244" cy="-162" rx="27" ry="18"/>
<text text-anchor="middle" x="349.244" y="-158.3" font-family="FreeSans" font-size="14.00" fill="#6666ff">IO</text>
</a>
</g>
</g>
<!-- IO::Path&#45;&gt;IO -->
<g id="edge8" class="edge"><title>IO::Path&#45;&gt;IO</title>
<path fill="none" stroke="#6666ff" d="M321.201,-107.945C325.582,-116.233 330.946,-126.382 335.805,-135.576"/>
<polygon fill="#6666ff" stroke="#6666ff" points="332.857,-137.488 340.625,-144.693 339.046,-134.216 332.857,-137.488"/>
</g>
<!-- Mu -->
<g id="node2" class="node"><title>Mu</title>
<g id="a_node2"><a xlink:href="/type/Mu" xlink:title="Mu">
<ellipse fill="none" stroke="#000000" cx="275.244" cy="-306" rx="27" ry="18"/>
<text text-anchor="middle" x="275.244" y="-302.3" font-family="FreeSans" font-size="14.00" fill="#000000">Mu</text>
</a>
</g>
</g>
<!-- Any -->
<g id="node3" class="node"><title>Any</title>
<g id="a_node3"><a xlink:href="/type/Any" xlink:title="Any">
<ellipse fill="none" stroke="#000000" cx="275.244" cy="-234" rx="27" ry="18"/>
<text text-anchor="middle" x="275.244" y="-230.3" font-family="FreeSans" font-size="14.00" fill="#000000">Any</text>
</a>
</g>
</g>
<!-- Any&#45;&gt;Mu -->
<g id="edge2" class="edge"><title>Any&#45;&gt;Mu</title>
<path fill="none" stroke="#000000" d="M275.244,-252.303C275.244,-260.017 275.244,-269.288 275.244,-277.888"/>
<polygon fill="#000000" stroke="#000000" points="271.744,-277.896 275.244,-287.896 278.744,-277.896 271.744,-277.896"/>
</g>
<!-- Cool&#45;&gt;Any -->
<g id="edge3" class="edge"><title>Cool&#45;&gt;Any</title>
<path fill="none" stroke="#000000" d="M275.244,-180.303C275.244,-188.017 275.244,-197.288 275.244,-205.888"/>
<polygon fill="#000000" stroke="#000000" points="271.744,-205.896 275.244,-215.896 278.744,-205.896 271.744,-205.896"/>
</g>
<!-- IO::Path::QNX -->
<g id="node6" class="node"><title>IO::Path::QNX</title>
<g id="a_node6"><a xlink:href="/type/IO::Path::QNX" xlink:title="IO::Path::QNX">
<ellipse fill="none" stroke="#000000" cx="68.2439" cy="-18" rx="68.4888" ry="18"/>
<text text-anchor="middle" x="68.2439" y="-14.3" font-family="FreeSans" font-size="14.00" fill="#000000">IO::Path::QNX</text>
</a>
</g>
</g>
<!-- IO::Path::QNX&#45;&gt;IO::Path -->
<g id="edge4" class="edge"><title>IO::Path::QNX&#45;&gt;IO::Path</title>
<path fill="none" stroke="#000000" d="M112.714,-31.7577C156.709,-44.3794 223.673,-63.5904 267.696,-76.2199"/>
<polygon fill="#000000" stroke="#000000" points="266.967,-79.6518 277.544,-79.0452 268.897,-72.9232 266.967,-79.6518"/>
</g>
<!-- IO::Path::Win32 -->
<g id="node7" class="node"><title>IO::Path::Win32</title>
<g id="a_node7"><a xlink:href="/type/IO::Path::Win32" xlink:title="IO::Path::Win32">
<ellipse fill="none" stroke="#000000" cx="228.244" cy="-18" rx="73.387" ry="18"/>
<text text-anchor="middle" x="228.244" y="-14.3" font-family="FreeSans" font-size="14.00" fill="#000000">IO::Path::Win32</text>
</a>
</g>
</g>
<!-- IO::Path::Win32&#45;&gt;IO::Path -->
<g id="edge5" class="edge"><title>IO::Path::Win32&#45;&gt;IO::Path</title>
<path fill="none" stroke="#000000" d="M248.151,-35.589C259.346,-44.9181 273.468,-56.6869 285.606,-66.8014"/>
<polygon fill="#000000" stroke="#000000" points="283.708,-69.7761 293.631,-73.4892 288.189,-64.3985 283.708,-69.7761"/>
</g>
<!-- IO::Path::Cygwin -->
<g id="node8" class="node"><title>IO::Path::Cygwin</title>
<g id="a_node8"><a xlink:href="/type/IO::Path::Cygwin" xlink:title="IO::Path::Cygwin">
<ellipse fill="none" stroke="#000000" cx="397.244" cy="-18" rx="77.1866" ry="18"/>
<text text-anchor="middle" x="397.244" y="-14.3" font-family="FreeSans" font-size="14.00" fill="#000000">IO::Path::Cygwin</text>
</a>
</g>
</g>
<!-- IO::Path::Cygwin&#45;&gt;IO::Path -->
<g id="edge6" class="edge"><title>IO::Path::Cygwin&#45;&gt;IO::Path</title>
<path fill="none" stroke="#000000" d="M377.1,-35.589C365.663,-45.0079 351.206,-56.9135 338.846,-67.0927"/>
<polygon fill="#000000" stroke="#000000" points="336.573,-64.4303 331.079,-73.4892 341.023,-69.8338 336.573,-64.4303"/>
</g>
<!-- IO::Path::Unix -->
<g id="node9" class="node"><title>IO::Path::Unix</title>
<g id="a_node9"><a xlink:href="/type/IO::Path::Unix" xlink:title="IO::Path::Unix">
<ellipse fill="none" stroke="#000000" cx="558.244" cy="-18" rx="65.7887" ry="18"/>
<text text-anchor="middle" x="558.244" y="-14.3" font-family="FreeSans" font-size="14.00" fill="#000000">IO::Path::Unix</text>
</a>
</g>
</g>
<!-- IO::Path::Unix&#45;&gt;IO::Path -->
<g id="edge7" class="edge"><title>IO::Path::Unix&#45;&gt;IO::Path</title>
<path fill="none" stroke="#000000" d="M514.548,-31.4339C470.135,-44.0716 401.676,-63.552 356.915,-76.2887"/>
<polygon fill="#000000" stroke="#000000" points="355.847,-72.9536 347.187,-79.0569 357.763,-79.6863 355.847,-72.9536"/>
</g>
</g>
</svg>
