<?xml version="1.0" encoding="UTF-8" standalone="no"?>
<!DOCTYPE svg PUBLIC "-//W3C//DTD SVG 1.1//EN"
 "http://www.w3.org/Graphics/SVG/1.1/DTD/svg11.dtd">
<!-- Generated by graphviz version 2.38.0 (20140413.2041)
 -->
<!-- Title: perl6&#45;type&#45;graph Pages: 1 -->
<svg width="213pt" height="404pt"
 viewBox="0.00 0.00 212.94 404.00" xmlns="http://www.w3.org/2000/svg" xmlns:xlink="http://www.w3.org/1999/xlink">
<g id="graph0" class="graph" transform="scale(1 1) rotate(0) translate(4 400)">
<title>perl6&#45;type&#45;graph</title>
<polygon fill="white" stroke="none" points="-4,4 -4,-400 208.938,-400 208.938,4 -4,4"/>
<!-- X::Syntax::Perl5Var -->
<g id="node1" class="node"><title>X::Syntax::Perl5Var</title>
<g id="a_node1"><a xlink:href="/type/X::Syntax::Perl5Var" xlink:title="X::Syntax::Perl5Var">
<ellipse fill="none" stroke="#000000" cx="87.0923" cy="-18" rx="87.1846" ry="18"/>
<text text-anchor="middle" x="87.0923" y="-14.3" font-family="FreeSans" font-size="14.00" fill="#000000">X::Syntax::Perl5Var</text>
</a>
</g>
</g>
<!-- Exception -->
<g id="node4" class="node"><title>Exception</title>
<g id="a_node4"><a xlink:href="/type/Exception" xlink:title="Exception">
<ellipse fill="none" stroke="#000000" cx="87.0923" cy="-234" rx="49.2915" ry="18"/>
<text text-anchor="middle" x="87.0923" y="-230.3" font-family="FreeSans" font-size="14.00" fill="#000000">Exception</text>
</a>
</g>
</g>
<!-- X::Syntax::Perl5Var&#45;&gt;Exception -->
<g id="edge1" class="edge"><title>X::Syntax::Perl5Var&#45;&gt;Exception</title>
<path fill="none" stroke="#000000" d="M80.976,-36.0613C75.4217,-51.5549 68.0923,-72 68.0923,-72 68.0923,-72 68.0923,-108 68.0923,-108 68.0923,-108 77.3655,-169.008 82.9551,-205.782"/>
<polygon fill="#000000" stroke="#000000" points="79.5272,-206.521 84.4902,-215.881 86.4477,-205.469 79.5272,-206.521"/>
</g>
<!-- X::Syntax -->
<g id="node6" class="node"><title>X::Syntax</title>
<g id="a_node6"><a xlink:href="/type/X::Syntax" xlink:title="X::Syntax">
<ellipse fill="none" stroke="#6666ff" cx="125.092" cy="-90" rx="48.1917" ry="18"/>
<text text-anchor="middle" x="125.092" y="-86.3" font-family="FreeSans" font-size="14.00" fill="#6666ff">X::Syntax</text>
</a>
</g>
</g>
<!-- X::Syntax::Perl5Var&#45;&gt;X::Syntax -->
<g id="edge6" class="edge"><title>X::Syntax::Perl5Var&#45;&gt;X::Syntax</title>
<path fill="none" stroke="#6666ff" d="M96.291,-35.945C100.725,-44.1134 106.14,-54.0884 111.073,-63.1756"/>
<polygon fill="#6666ff" stroke="#6666ff" points="108.131,-65.0923 115.978,-72.211 114.283,-61.7526 108.131,-65.0923"/>
</g>
<!-- Mu -->
<g id="node2" class="node"><title>Mu</title>
<g id="a_node2"><a xlink:href="/type/Mu" xlink:title="Mu">
<ellipse fill="none" stroke="#000000" cx="87.0923" cy="-378" rx="27" ry="18"/>
<text text-anchor="middle" x="87.0923" y="-374.3" font-family="FreeSans" font-size="14.00" fill="#000000">Mu</text>
</a>
</g>
</g>
<!-- Any -->
<g id="node3" class="node"><title>Any</title>
<g id="a_node3"><a xlink:href="/type/Any" xlink:title="Any">
<ellipse fill="none" stroke="#000000" cx="87.0923" cy="-306" rx="27" ry="18"/>
<text text-anchor="middle" x="87.0923" y="-302.3" font-family="FreeSans" font-size="14.00" fill="#000000">Any</text>
</a>
</g>
</g>
<!-- Any&#45;&gt;Mu -->
<g id="edge2" class="edge"><title>Any&#45;&gt;Mu</title>
<path fill="none" stroke="#000000" d="M87.0923,-324.303C87.0923,-332.017 87.0923,-341.288 87.0923,-349.888"/>
<polygon fill="#000000" stroke="#000000" points="83.5924,-349.896 87.0923,-359.896 90.5924,-349.896 83.5924,-349.896"/>
</g>
<!-- Exception&#45;&gt;Any -->
<g id="edge3" class="edge"><title>Exception&#45;&gt;Any</title>
<path fill="none" stroke="#000000" d="M87.0923,-252.303C87.0923,-260.017 87.0923,-269.288 87.0923,-277.888"/>
<polygon fill="#000000" stroke="#000000" points="83.5924,-277.896 87.0923,-287.896 90.5924,-277.896 83.5924,-277.896"/>
</g>
<!-- X::Comp -->
<g id="node5" class="node"><title>X::Comp</title>
<g id="a_node5"><a xlink:href="/type/X::Comp" xlink:title="X::Comp">
<ellipse fill="none" stroke="#6666ff" cx="160.092" cy="-162" rx="44.6926" ry="18"/>
<text text-anchor="middle" x="160.092" y="-158.3" font-family="FreeSans" font-size="14.00" fill="#6666ff">X::Comp</text>
</a>
</g>
</g>
<!-- X::Comp&#45;&gt;Exception -->
<g id="edge4" class="edge"><title>X::Comp&#45;&gt;Exception</title>
<path fill="none" stroke="#000000" d="M143.527,-178.884C133.982,-188.038 121.812,-199.707 111.219,-209.865"/>
<polygon fill="#000000" stroke="#000000" points="108.64,-207.489 103.844,-216.936 113.485,-212.541 108.64,-207.489"/>
</g>
<!-- X::Syntax&#45;&gt;Exception -->
<g id="edge5" class="edge"><title>X::Syntax&#45;&gt;Exception</title>
<path fill="none" stroke="#000000" d="M118.976,-108.061C113.422,-123.555 106.092,-144 106.092,-144 106.092,-144 98.4425,-179.833 92.8509,-206.025"/>
<polygon fill="#000000" stroke="#000000" points="89.4207,-205.33 90.7557,-215.84 96.2664,-206.791 89.4207,-205.33"/>
</g>
<!-- X::Syntax&#45;&gt;X::Comp -->
<g id="edge7" class="edge"><title>X::Syntax&#45;&gt;X::Comp</title>
<path fill="none" stroke="#6666ff" d="M133.565,-107.945C137.649,-116.113 142.636,-126.088 147.18,-135.176"/>
<polygon fill="#6666ff" stroke="#6666ff" points="144.095,-136.832 151.698,-144.211 150.356,-133.701 144.095,-136.832"/>
</g>
</g>
</svg>
